<svg width="768" height="768" viewBox="0 0 768 768" fill="none" xmlns="http://www.w3.org/2000/svg">
<rect x="0.5" y="0.5" width="767" height="767" fill="#F2F2F2"/>
<path d="M104.08 224.76C104.08 222.52 103.413 220.707 102.08 219.32C100.747 217.88 99.0667 216.627 97.04 215.56C95.0667 214.44 92.9067 213.4 90.56 212.44C88.2133 211.48 86.0267 210.333 84 209C82.0267 207.613 80.3733 205.933 79.04 203.96C77.7067 201.933 77.04 199.373 77.04 196.28C77.04 191.907 78.56 188.44 81.6 185.88C84.64 183.32 88.96 182.04 94.56 182.04C97.8133 182.04 100.773 182.28 103.44 182.76C106.107 183.24 108.187 183.853 109.68 184.6L107.68 190.44C106.453 189.853 104.64 189.293 102.24 188.76C99.8933 188.227 97.2267 187.96 94.24 187.96C90.72 187.96 88.08 188.76 86.32 190.36C84.56 191.907 83.68 193.747 83.68 195.88C83.68 197.96 84.3467 199.693 85.68 201.08C87.0133 202.467 88.6667 203.72 90.64 204.84C92.6667 205.907 94.8533 206.973 97.2 208.04C99.5467 209.107 101.707 210.36 103.68 211.8C105.707 213.187 107.387 214.867 108.72 216.84C110.053 218.813 110.72 221.267 110.72 224.2C110.72 226.6 110.293 228.76 109.44 230.68C108.587 232.6 107.333 234.253 105.68 235.64C104.027 237.027 102.027 238.093 99.68 238.84C97.3333 239.587 94.6667 239.96 91.68 239.96C87.68 239.96 84.3733 239.64 81.76 239C79.1467 238.413 77.12 237.747 75.68 237L77.92 231C79.1467 231.693 80.96 232.387 83.36 233.08C85.76 233.72 88.4533 234.04 91.44 234.04C93.2 234.04 94.8533 233.88 96.4 233.56C97.9467 233.187 99.28 232.627 100.4 231.88C101.52 231.08 102.4 230.093 103.04 228.92C103.733 227.747 104.08 226.36 104.08 224.76ZM133.22 224.92L135.46 232.6H135.86L137.62 224.84L145.38 199H151.86L140.02 234.92C139.113 237.533 138.207 240.067 137.3 242.52C136.447 244.973 135.487 247.16 134.42 249.08C133.353 251 132.153 252.52 130.82 253.64C129.487 254.813 127.94 255.4 126.18 255.4C124.26 255.4 122.687 255.133 121.46 254.6L122.58 249.08C123.273 249.347 123.94 249.48 124.58 249.48C126.073 249.48 127.513 248.68 128.9 247.08C130.287 245.533 131.433 242.84 132.34 239L116.26 199H123.62L133.22 224.92ZM185.206 239V216.2C185.206 212.04 184.592 208.92 183.366 206.84C182.192 204.707 180.006 203.64 176.806 203.64C173.979 203.64 171.632 204.413 169.766 205.96C167.952 207.453 166.672 209.347 165.926 211.64V239H159.526V199H164.006L165.206 203.88H165.526C166.806 202.173 168.512 200.787 170.646 199.72C172.832 198.6 175.419 198.04 178.406 198.04C180.592 198.04 182.512 198.307 184.166 198.84C185.819 199.32 187.179 200.2 188.246 201.48C189.366 202.76 190.192 204.493 190.726 206.68C191.312 208.813 191.606 211.533 191.606 214.84V239H185.206ZM198.796 199H205.036V191.08L211.436 189.24V199H222.316V204.6H211.436V226.76C211.436 229.533 211.782 231.507 212.476 232.68C213.169 233.8 214.342 234.36 215.996 234.36C217.382 234.36 218.556 234.227 219.516 233.96C220.476 233.64 221.542 233.24 222.716 232.76L224.156 237.64C222.716 238.333 221.142 238.893 219.436 239.32C217.729 239.747 215.889 239.96 213.916 239.96C210.662 239.96 208.369 239.053 207.036 237.24C205.702 235.373 205.036 232.28 205.036 227.96V204.6H198.796V199ZM257.665 239V216.2C257.665 214.12 257.532 212.307 257.265 210.76C257.052 209.16 256.625 207.853 255.985 206.84C255.345 205.773 254.465 204.973 253.345 204.44C252.278 203.907 250.865 203.64 249.105 203.64C246.598 203.64 244.332 204.467 242.305 206.12C240.278 207.72 238.972 209.8 238.385 212.36V239H231.985V183H238.385V203.48H238.705C240.092 201.827 241.745 200.52 243.665 199.56C245.638 198.547 248.065 198.04 250.945 198.04C253.185 198.04 255.132 198.307 256.785 198.84C258.438 199.32 259.798 200.2 260.865 201.48C261.985 202.76 262.785 204.493 263.265 206.68C263.798 208.813 264.065 211.533 264.065 214.84V239H257.665ZM305.735 235.8C304.135 237.08 302.108 238.093 299.655 238.84C297.255 239.587 294.695 239.96 291.975 239.96C288.935 239.96 286.295 239.48 284.055 238.52C281.815 237.507 279.975 236.093 278.535 234.28C277.095 232.413 276.028 230.2 275.335 227.64C274.642 225.08 274.295 222.2 274.295 219C274.295 212.173 275.815 206.973 278.855 203.4C281.895 199.827 286.242 198.04 291.895 198.04C293.708 198.04 295.522 198.253 297.335 198.68C299.148 199.053 300.775 199.8 302.215 200.92C303.655 202.04 304.828 203.64 305.735 205.72C306.642 207.747 307.095 210.44 307.095 213.8C307.095 215.56 306.935 217.507 306.615 219.64H280.935C280.935 221.987 281.175 224.067 281.655 225.88C282.135 227.693 282.882 229.24 283.895 230.52C284.908 231.747 286.215 232.707 287.815 233.4C289.468 234.04 291.468 234.36 293.815 234.36C295.628 234.36 297.442 234.04 299.255 233.4C301.068 232.76 302.428 232.013 303.335 231.16L305.735 235.8ZM291.975 203.64C288.828 203.64 286.295 204.467 284.375 206.12C282.508 207.773 281.388 210.6 281.015 214.6H300.855C300.855 210.547 300.082 207.72 298.535 206.12C296.988 204.467 294.802 203.64 291.975 203.64ZM335.56 228.12C335.56 226.52 335.08 225.267 334.12 224.36C333.16 223.453 331.96 222.707 330.52 222.12C329.133 221.48 327.587 220.893 325.88 220.36C324.227 219.773 322.68 219.053 321.24 218.2C319.853 217.293 318.68 216.147 317.72 214.76C316.76 213.373 316.28 211.507 316.28 209.16C316.28 205.32 317.373 202.52 319.56 200.76C321.747 198.947 324.787 198.04 328.68 198.04C331.56 198.04 333.96 198.307 335.88 198.84C337.853 199.32 339.56 199.907 341 200.6L339.48 205.88C338.253 205.293 336.76 204.787 335 204.36C333.293 203.88 331.453 203.64 329.48 203.64C327.133 203.64 325.4 204.04 324.28 204.84C323.213 205.64 322.68 207.027 322.68 209C322.68 210.387 323.16 211.48 324.12 212.28C325.08 213.027 326.253 213.72 327.64 214.36C329.08 214.947 330.627 215.533 332.28 216.12C333.987 216.707 335.533 217.48 336.92 218.44C338.36 219.4 339.56 220.627 340.52 222.12C341.48 223.56 341.96 225.48 341.96 227.88C341.96 229.587 341.667 231.187 341.08 232.68C340.547 234.173 339.693 235.453 338.52 236.52C337.347 237.587 335.88 238.413 334.12 239C332.413 239.64 330.387 239.96 328.04 239.96C325 239.96 322.413 239.667 320.28 239.08C318.147 238.493 316.36 237.8 314.92 237L316.84 231.56C318.067 232.253 319.667 232.893 321.64 233.48C323.613 234.067 325.613 234.36 327.64 234.36C329.933 234.36 331.827 233.907 333.32 233C334.813 232.093 335.56 230.467 335.56 228.12ZM353.792 199H360.192V239H353.792V199ZM352.432 186.84C352.432 185.613 352.832 184.573 353.632 183.72C354.485 182.813 355.552 182.36 356.832 182.36C358.112 182.36 359.205 182.813 360.112 183.72C361.019 184.573 361.472 185.613 361.472 186.84C361.472 188.067 361.019 189.08 360.112 189.88C359.205 190.68 358.112 191.08 356.832 191.08C355.552 191.08 354.485 190.68 353.632 189.88C352.832 189.08 352.432 188.067 352.432 186.84ZM371.838 233.4L390.318 207.96L393.678 204.6H371.838V199H400.318V204.6L381.678 230.28L378.398 233.4H400.318V239H371.838V233.4ZM412.579 199H418.979V239H412.579V199ZM411.219 186.84C411.219 185.613 411.619 184.573 412.419 183.72C413.273 182.813 414.339 182.36 415.619 182.36C416.899 182.36 417.993 182.813 418.899 183.72C419.806 184.573 420.259 185.613 420.259 186.84C420.259 188.067 419.806 189.08 418.899 189.88C417.993 190.68 416.899 191.08 415.619 191.08C414.339 191.08 413.273 190.68 412.419 189.88C411.619 189.08 411.219 188.067 411.219 186.84ZM459.106 239V216.2C459.106 212.04 458.492 208.92 457.266 206.84C456.092 204.707 453.906 203.64 450.706 203.64C447.879 203.64 445.532 204.413 443.666 205.96C441.852 207.453 440.572 209.347 439.826 211.64V239H433.426V199H437.906L439.106 203.88H439.426C440.706 202.173 442.412 200.787 444.546 199.72C446.732 198.6 449.319 198.04 452.306 198.04C454.492 198.04 456.412 198.307 458.066 198.84C459.719 199.32 461.079 200.2 462.146 201.48C463.266 202.76 464.092 204.493 464.626 206.68C465.212 208.813 465.506 211.533 465.506 214.84V239H459.106ZM508.616 240.84C508.616 246.013 507.229 249.827 504.456 252.28C501.736 254.733 497.682 255.96 492.296 255.96C489.096 255.96 486.509 255.747 484.536 255.32C482.616 254.947 480.962 254.44 479.576 253.8L481.256 248.36C482.482 248.84 483.842 249.293 485.336 249.72C486.829 250.147 488.776 250.36 491.176 250.36C493.416 250.36 495.229 250.147 496.616 249.72C498.056 249.347 499.202 248.68 500.056 247.72C500.909 246.813 501.496 245.613 501.816 244.12C502.136 242.68 502.296 240.947 502.296 238.92V235.08H501.976C500.909 236.627 499.549 237.827 497.896 238.68C496.242 239.48 494.082 239.88 491.416 239.88C486.029 239.88 482.056 238.2 479.496 234.84C476.989 231.48 475.736 226.253 475.736 219.16C475.736 212.333 477.362 207.16 480.616 203.64C483.869 200.067 488.669 198.28 495.016 198.28C498.056 198.28 500.642 198.52 502.776 199C504.962 199.48 506.909 200.04 508.616 200.68V240.84ZM492.536 234.28C495.256 234.28 497.389 233.613 498.936 232.28C500.482 230.893 501.576 228.76 502.216 225.88V205.4C500.082 204.387 497.362 203.88 494.056 203.88C490.429 203.88 487.576 205.107 485.496 207.56C483.416 210.013 482.376 213.853 482.376 219.08C482.376 221.32 482.562 223.373 482.936 225.24C483.309 227.107 483.896 228.707 484.696 230.04C485.496 231.373 486.536 232.413 487.816 233.16C489.096 233.907 490.669 234.28 492.536 234.28ZM77.92 287H88.88V343H77.92V287ZM124.652 343V320.28C124.652 317.027 124.173 314.68 123.213 313.24C122.306 311.8 120.733 311.08 118.493 311.08C116.519 311.08 114.839 311.667 113.452 312.84C112.119 313.96 111.159 315.373 110.572 317.08V343H100.172V303H108.413L109.613 308.28H109.932C111.159 306.573 112.786 305.08 114.812 303.8C116.839 302.52 119.453 301.88 122.653 301.88C124.626 301.88 126.386 302.147 127.933 302.68C129.479 303.213 130.786 304.093 131.852 305.32C132.919 306.547 133.719 308.227 134.253 310.36C134.786 312.44 135.053 315.027 135.053 318.12V343H124.652ZM161.126 331.96C161.126 330.893 160.673 330.04 159.766 329.4C158.86 328.76 157.74 328.173 156.406 327.64C155.073 327.107 153.606 326.573 152.006 326.04C150.406 325.453 148.94 324.68 147.606 323.72C146.273 322.707 145.153 321.453 144.246 319.96C143.34 318.413 142.886 316.44 142.886 314.04C142.886 310.093 144.06 307.08 146.406 305C148.753 302.92 152.14 301.88 156.566 301.88C159.606 301.88 162.353 302.2 164.806 302.84C167.26 303.48 169.18 304.2 170.566 305L168.246 312.52C167.02 312.04 165.473 311.533 163.606 311C161.74 310.467 159.846 310.2 157.926 310.2C154.833 310.2 153.286 311.4 153.286 313.8C153.286 314.76 153.74 315.533 154.646 316.12C155.553 316.707 156.673 317.267 158.006 317.8C159.34 318.28 160.806 318.813 162.406 319.4C164.006 319.987 165.473 320.76 166.806 321.72C168.14 322.627 169.26 323.827 170.166 325.32C171.073 326.813 171.526 328.733 171.526 331.08C171.526 335.133 170.22 338.333 167.606 340.68C165.046 342.973 161.18 344.12 156.006 344.12C153.18 344.12 150.513 343.747 148.006 343C145.553 342.307 143.553 341.48 142.006 340.52L144.886 332.76C146.113 333.453 147.74 334.147 149.766 334.84C151.793 335.48 153.873 335.8 156.006 335.8C157.553 335.8 158.78 335.507 159.686 334.92C160.646 334.333 161.126 333.347 161.126 331.96ZM180.076 303H190.476V343H180.076V303ZM178.556 291.72C178.556 290.173 179.116 288.867 180.236 287.8C181.41 286.68 183.01 286.12 185.036 286.12C187.063 286.12 188.69 286.68 189.916 287.8C191.196 288.867 191.836 290.173 191.836 291.72C191.836 293.267 191.196 294.573 189.916 295.64C188.69 296.653 187.063 297.16 185.036 297.16C183.01 297.16 181.41 296.653 180.236 295.64C179.116 294.573 178.556 293.267 178.556 291.72ZM235.241 343C235.241 348.813 233.667 353.08 230.521 355.8C227.374 358.573 222.974 359.96 217.321 359.96C213.481 359.96 210.441 359.693 208.201 359.16C206.014 358.627 204.361 358.067 203.241 357.48L205.401 349.24C206.627 349.72 208.041 350.2 209.641 350.68C211.294 351.16 213.321 351.4 215.721 351.4C219.347 351.4 221.801 350.6 223.081 349C224.414 347.453 225.081 345.267 225.081 342.44V339.88H224.761C222.894 342.387 219.587 343.64 214.841 343.64C209.667 343.64 205.801 342.04 203.241 338.84C200.734 335.64 199.481 330.627 199.481 323.8C199.481 316.653 201.187 311.24 204.601 307.56C208.014 303.88 212.974 302.04 219.481 302.04C222.894 302.04 225.934 302.28 228.601 302.76C231.321 303.24 233.534 303.8 235.241 304.44V343ZM217.641 335.32C219.667 335.32 221.214 334.867 222.281 333.96C223.401 333.053 224.254 331.693 224.841 329.88V311.88C223.187 311.187 221.134 310.84 218.681 310.84C216.014 310.84 213.934 311.853 212.441 313.88C210.947 315.853 210.201 319.027 210.201 323.4C210.201 327.293 210.841 330.253 212.121 332.28C213.401 334.307 215.241 335.32 217.641 335.32ZM269.571 343V320.28C269.571 317.027 269.118 314.68 268.211 313.24C267.305 311.8 265.651 311.08 263.251 311.08C261.491 311.08 259.865 311.693 258.371 312.92C256.931 314.093 255.971 315.613 255.491 317.48V343H245.091V287H255.491V307.48H255.811C257.091 305.773 258.665 304.413 260.531 303.4C262.398 302.387 264.771 301.88 267.651 301.88C269.678 301.88 271.465 302.147 273.011 302.68C274.558 303.213 275.838 304.093 276.851 305.32C277.918 306.547 278.691 308.227 279.171 310.36C279.705 312.44 279.971 315.027 279.971 318.12V343H269.571ZM285.325 303H290.845V295.48L301.245 292.52V303H311.005V311.8H301.245V327.16C301.245 329.933 301.512 331.933 302.045 333.16C302.632 334.333 303.698 334.92 305.245 334.92C306.312 334.92 307.218 334.813 307.965 334.6C308.765 334.387 309.645 334.067 310.605 333.64L312.445 341.64C311.005 342.333 309.325 342.92 307.405 343.4C305.485 343.88 303.538 344.12 301.565 344.12C297.885 344.12 295.165 343.187 293.405 341.32C291.698 339.4 290.845 336.28 290.845 331.96V311.8H285.325V303ZM334.736 331.96C334.736 330.893 334.282 330.04 333.376 329.4C332.469 328.76 331.349 328.173 330.016 327.64C328.682 327.107 327.216 326.573 325.616 326.04C324.016 325.453 322.549 324.68 321.216 323.72C319.882 322.707 318.762 321.453 317.856 319.96C316.949 318.413 316.496 316.44 316.496 314.04C316.496 310.093 317.669 307.08 320.016 305C322.362 302.92 325.749 301.88 330.176 301.88C333.216 301.88 335.962 302.2 338.416 302.84C340.869 303.48 342.789 304.2 344.176 305L341.856 312.52C340.629 312.04 339.082 311.533 337.216 311C335.349 310.467 333.456 310.2 331.536 310.2C328.442 310.2 326.896 311.4 326.896 313.8C326.896 314.76 327.349 315.533 328.256 316.12C329.162 316.707 330.282 317.267 331.616 317.8C332.949 318.28 334.416 318.813 336.016 319.4C337.616 319.987 339.082 320.76 340.416 321.72C341.749 322.627 342.869 323.827 343.776 325.32C344.682 326.813 345.136 328.733 345.136 331.08C345.136 335.133 343.829 338.333 341.216 340.68C338.656 342.973 334.789 344.12 329.616 344.12C326.789 344.12 324.122 343.747 321.616 343C319.162 342.307 317.162 341.48 315.616 340.52L318.496 332.76C319.722 333.453 321.349 334.147 323.376 334.84C325.402 335.48 327.482 335.8 329.616 335.8C331.162 335.8 332.389 335.507 333.296 334.92C334.256 334.333 334.736 333.347 334.736 331.96ZM72.88 407H79.12V399.08L85.52 397.24V407H96.4V412.6H85.52V434.76C85.52 437.533 85.8667 439.507 86.56 440.68C87.2533 441.8 88.4267 442.36 90.08 442.36C91.4667 442.36 92.64 442.227 93.6 441.96C94.56 441.64 95.6267 441.24 96.8 440.76L98.24 445.64C96.8 446.333 95.2267 446.893 93.52 447.32C91.8133 447.747 89.9733 447.96 88 447.96C84.7467 447.96 82.4533 447.053 81.12 445.24C79.7867 443.373 79.12 440.28 79.12 435.96V412.6H72.88V407ZM102.97 427C102.97 420.227 104.463 415.053 107.45 411.48C110.49 407.853 114.837 406.04 120.49 406.04C123.477 406.04 126.063 406.547 128.25 407.56C130.49 408.52 132.33 409.933 133.77 411.8C135.21 413.613 136.277 415.827 136.97 418.44C137.663 421 138.01 423.853 138.01 427C138.01 433.773 136.49 438.973 133.45 442.6C130.463 446.173 126.143 447.96 120.49 447.96C117.503 447.96 114.89 447.48 112.65 446.52C110.463 445.507 108.65 444.093 107.21 442.28C105.77 440.413 104.703 438.2 104.01 435.64C103.317 433.027 102.97 430.147 102.97 427ZM109.61 427C109.61 429.027 109.797 430.973 110.17 432.84C110.597 434.707 111.237 436.333 112.09 437.72C112.943 439.107 114.063 440.227 115.45 441.08C116.837 441.933 118.517 442.36 120.49 442.36C127.743 442.413 131.37 437.293 131.37 427C131.37 424.92 131.157 422.947 130.73 421.08C130.357 419.213 129.743 417.587 128.89 416.2C128.037 414.813 126.917 413.72 125.53 412.92C124.143 412.067 122.463 411.64 120.49 411.64C113.237 411.587 109.61 416.707 109.61 427ZM171.669 391.56C173.695 391.187 176.015 390.893 178.629 390.68C181.295 390.467 183.722 390.36 185.909 390.36C188.362 390.36 190.682 390.627 192.869 391.16C195.109 391.693 197.055 392.573 198.709 393.8C200.415 395.027 201.775 396.627 202.789 398.6C203.802 400.573 204.309 402.973 204.309 405.8C204.309 410.173 203.109 413.72 200.709 416.44C198.309 419.16 195.269 420.973 191.589 421.88L195.429 424.84L209.349 447H201.589L186.149 422.84L178.309 421.64V447H171.669V391.56ZM186.069 396.12C185.375 396.12 184.655 396.12 183.909 396.12C183.162 396.12 182.442 396.147 181.749 396.2C181.055 396.253 180.389 396.307 179.749 396.36C179.162 396.413 178.682 396.493 178.309 396.6V417.24H184.549C188.229 417.24 191.269 416.333 193.669 414.52C196.069 412.707 197.269 409.88 197.269 406.04C197.269 403.16 196.282 400.787 194.309 398.92C192.335 397.053 189.589 396.12 186.069 396.12ZM244.779 443.8C243.179 445.08 241.152 446.093 238.699 446.84C236.299 447.587 233.739 447.96 231.019 447.96C227.979 447.96 225.339 447.48 223.099 446.52C220.859 445.507 219.019 444.093 217.579 442.28C216.139 440.413 215.072 438.2 214.379 435.64C213.685 433.08 213.339 430.2 213.339 427C213.339 420.173 214.859 414.973 217.899 411.4C220.939 407.827 225.285 406.04 230.939 406.04C232.752 406.04 234.565 406.253 236.379 406.68C238.192 407.053 239.819 407.8 241.259 408.92C242.699 410.04 243.872 411.64 244.779 413.72C245.685 415.747 246.139 418.44 246.139 421.8C246.139 423.56 245.979 425.507 245.659 427.64H219.979C219.979 429.987 220.219 432.067 220.699 433.88C221.179 435.693 221.925 437.24 222.939 438.52C223.952 439.747 225.259 440.707 226.859 441.4C228.512 442.04 230.512 442.36 232.859 442.36C234.672 442.36 236.485 442.04 238.299 441.4C240.112 440.76 241.472 440.013 242.379 439.16L244.779 443.8ZM231.019 411.64C227.872 411.64 225.339 412.467 223.419 414.12C221.552 415.773 220.432 418.6 220.059 422.6H239.899C239.899 418.547 239.125 415.72 237.579 414.12C236.032 412.467 233.845 411.64 231.019 411.64ZM258.364 407H264.764V447H258.364V407ZM257.004 394.84C257.004 393.613 257.404 392.573 258.204 391.72C259.057 390.813 260.124 390.36 261.404 390.36C262.684 390.36 263.777 390.813 264.684 391.72C265.59 392.573 266.044 393.613 266.044 394.84C266.044 396.067 265.59 397.08 264.684 397.88C263.777 398.68 262.684 399.08 261.404 399.08C260.124 399.08 259.057 398.68 258.204 397.88C257.404 397.08 257.004 396.067 257.004 394.84ZM302.65 447V424.36C302.65 422.227 302.543 420.387 302.33 418.84C302.17 417.24 301.823 415.907 301.29 414.84C300.757 413.773 299.983 412.973 298.97 412.44C298.01 411.907 296.73 411.64 295.13 411.64C292.677 411.64 290.623 412.387 288.97 413.88C287.37 415.373 286.25 417.24 285.61 419.48V447H279.21V407H283.69L284.89 411.88H285.21C286.65 410.173 288.303 408.787 290.17 407.72C292.09 406.6 294.57 406.04 297.61 406.04C300.17 406.04 302.25 406.547 303.85 407.56C305.503 408.52 306.783 410.227 307.69 412.68C308.917 410.6 310.597 408.973 312.73 407.8C314.917 406.627 317.37 406.04 320.09 406.04C322.33 406.04 324.223 406.307 325.77 406.84C327.317 407.32 328.597 408.2 329.61 409.48C330.623 410.76 331.343 412.493 331.77 414.68C332.25 416.867 332.49 419.64 332.49 423V447H326.09V422.92C326.09 421 325.983 419.347 325.77 417.96C325.61 416.52 325.237 415.347 324.65 414.44C324.117 413.48 323.343 412.787 322.33 412.36C321.37 411.88 320.09 411.64 318.49 411.64C315.823 411.64 313.743 412.387 312.25 413.88C310.757 415.373 309.69 417.507 309.05 420.28V447H302.65ZM344.292 409.96C346.319 408.733 348.665 407.827 351.332 407.24C354.052 406.653 356.879 406.36 359.812 406.36C362.585 406.36 364.799 406.733 366.452 407.48C368.159 408.227 369.439 409.213 370.292 410.44C371.199 411.613 371.785 412.92 372.052 414.36C372.372 415.8 372.532 417.24 372.532 418.68C372.532 421.88 372.452 425 372.292 428.04C372.132 431.08 372.052 433.96 372.052 436.68C372.052 438.653 372.132 440.52 372.292 442.28C372.452 444.04 372.745 445.667 373.172 447.16H368.452L366.772 441.56H366.372C365.892 442.307 365.279 443.053 364.532 443.8C363.839 444.493 362.985 445.133 361.972 445.72C360.959 446.253 359.785 446.707 358.452 447.08C357.119 447.453 355.599 447.64 353.892 447.64C352.185 447.64 350.585 447.373 349.092 446.84C347.652 446.307 346.399 445.56 345.332 444.6C344.265 443.587 343.412 442.387 342.772 441C342.185 439.613 341.892 438.04 341.892 436.28C341.892 433.933 342.372 431.987 343.332 430.44C344.292 428.84 345.625 427.587 347.332 426.68C349.092 425.72 351.172 425.053 353.572 424.68C356.025 424.253 358.719 424.04 361.652 424.04C362.399 424.04 363.119 424.04 363.812 424.04C364.559 424.04 365.305 424.093 366.052 424.2C366.212 422.6 366.292 421.16 366.292 419.88C366.292 416.947 365.705 414.893 364.532 413.72C363.359 412.547 361.225 411.96 358.132 411.96C357.225 411.96 356.239 412.04 355.172 412.2C354.159 412.307 353.092 412.493 351.972 412.76C350.905 412.973 349.865 413.267 348.852 413.64C347.892 413.96 347.039 414.333 346.292 414.76L344.292 409.96ZM355.652 442.04C357.145 442.04 358.479 441.853 359.652 441.48C360.825 441.053 361.839 440.547 362.692 439.96C363.545 439.32 364.239 438.627 364.772 437.88C365.359 437.133 365.785 436.413 366.052 435.72V429.08C365.305 429.027 364.532 429 363.732 429C362.985 428.947 362.239 428.92 361.492 428.92C359.839 428.92 358.212 429.027 356.612 429.24C355.065 429.4 353.679 429.747 352.452 430.28C351.279 430.76 350.319 431.453 349.572 432.36C348.879 433.213 348.532 434.307 348.532 435.64C348.532 437.507 349.199 439.053 350.532 440.28C351.865 441.453 353.572 442.04 355.652 442.04ZM416.059 448.84C416.059 454.013 414.673 457.827 411.899 460.28C409.179 462.733 405.126 463.96 399.739 463.96C396.539 463.96 393.953 463.747 391.979 463.32C390.059 462.947 388.406 462.44 387.019 461.8L388.699 456.36C389.926 456.84 391.286 457.293 392.779 457.72C394.273 458.147 396.219 458.36 398.619 458.36C400.859 458.36 402.673 458.147 404.059 457.72C405.499 457.347 406.646 456.68 407.499 455.72C408.353 454.813 408.939 453.613 409.259 452.12C409.579 450.68 409.739 448.947 409.739 446.92V443.08H409.419C408.353 444.627 406.993 445.827 405.339 446.68C403.686 447.48 401.526 447.88 398.859 447.88C393.473 447.88 389.499 446.2 386.939 442.84C384.433 439.48 383.179 434.253 383.179 427.16C383.179 420.333 384.806 415.16 388.059 411.64C391.313 408.067 396.113 406.28 402.459 406.28C405.499 406.28 408.086 406.52 410.219 407C412.406 407.48 414.353 408.04 416.059 408.68V448.84ZM399.979 442.28C402.699 442.28 404.833 441.613 406.379 440.28C407.926 438.893 409.019 436.76 409.659 433.88V413.4C407.526 412.387 404.806 411.88 401.499 411.88C397.873 411.88 395.019 413.107 392.939 415.56C390.859 418.013 389.819 421.853 389.819 427.08C389.819 429.32 390.006 431.373 390.379 433.24C390.753 435.107 391.339 436.707 392.139 438.04C392.939 439.373 393.979 440.413 395.259 441.16C396.539 441.907 398.113 442.28 399.979 442.28ZM430.548 407H436.948V447H430.548V407ZM429.188 394.84C429.188 393.613 429.588 392.573 430.388 391.72C431.241 390.813 432.308 390.36 433.588 390.36C434.868 390.36 435.961 390.813 436.868 391.72C437.775 392.573 438.228 393.613 438.228 394.84C438.228 396.067 437.775 397.08 436.868 397.88C435.961 398.68 434.868 399.08 433.588 399.08C432.308 399.08 431.241 398.68 430.388 397.88C429.588 397.08 429.188 396.067 429.188 394.84ZM477.074 447V424.2C477.074 420.04 476.461 416.92 475.234 414.84C474.061 412.707 471.874 411.64 468.674 411.64C465.848 411.64 463.501 412.413 461.634 413.96C459.821 415.453 458.541 417.347 457.794 419.64V447H451.394V407H455.874L457.074 411.88H457.394C458.674 410.173 460.381 408.787 462.514 407.72C464.701 406.6 467.288 406.04 470.274 406.04C472.461 406.04 474.381 406.307 476.034 406.84C477.688 407.32 479.048 408.2 480.114 409.48C481.234 410.76 482.061 412.493 482.594 414.68C483.181 416.813 483.474 419.533 483.474 422.84V447H477.074ZM525.144 443.8C523.544 445.08 521.518 446.093 519.064 446.84C516.664 447.587 514.104 447.96 511.384 447.96C508.344 447.96 505.704 447.48 503.464 446.52C501.224 445.507 499.384 444.093 497.944 442.28C496.504 440.413 495.438 438.2 494.744 435.64C494.051 433.08 493.704 430.2 493.704 427C493.704 420.173 495.224 414.973 498.264 411.4C501.304 407.827 505.651 406.04 511.304 406.04C513.118 406.04 514.931 406.253 516.744 406.68C518.558 407.053 520.184 407.8 521.624 408.92C523.064 410.04 524.238 411.64 525.144 413.72C526.051 415.747 526.504 418.44 526.504 421.8C526.504 423.56 526.344 425.507 526.024 427.64H500.344C500.344 429.987 500.584 432.067 501.064 433.88C501.544 435.693 502.291 437.24 503.304 438.52C504.318 439.747 505.624 440.707 507.224 441.4C508.878 442.04 510.878 442.36 513.224 442.36C515.038 442.36 516.851 442.04 518.664 441.4C520.478 440.76 521.838 440.013 522.744 439.16L525.144 443.8ZM511.384 411.64C508.238 411.64 505.704 412.467 503.784 414.12C501.918 415.773 500.798 418.6 500.424 422.6H520.264C520.264 418.547 519.491 415.72 517.944 414.12C516.398 412.467 514.211 411.64 511.384 411.64ZM77.52 513.96C79.5467 512.733 81.8933 511.827 84.56 511.24C87.28 510.653 90.1067 510.36 93.04 510.36C95.8133 510.36 98.0267 510.733 99.68 511.48C101.387 512.227 102.667 513.213 103.52 514.44C104.427 515.613 105.013 516.92 105.28 518.36C105.6 519.8 105.76 521.24 105.76 522.68C105.76 525.88 105.68 529 105.52 532.04C105.36 535.08 105.28 537.96 105.28 540.68C105.28 542.653 105.36 544.52 105.52 546.28C105.68 548.04 105.973 549.667 106.4 551.16H101.68L100 545.56H99.6C99.12 546.307 98.5067 547.053 97.76 547.8C97.0667 548.493 96.2133 549.133 95.2 549.72C94.1867 550.253 93.0133 550.707 91.68 551.08C90.3467 551.453 88.8267 551.64 87.12 551.64C85.4133 551.64 83.8133 551.373 82.32 550.84C80.88 550.307 79.6267 549.56 78.56 548.6C77.4933 547.587 76.64 546.387 76 545C75.4133 543.613 75.12 542.04 75.12 540.28C75.12 537.933 75.6 535.987 76.56 534.44C77.52 532.84 78.8533 531.587 80.56 530.68C82.32 529.72 84.4 529.053 86.8 528.68C89.2533 528.253 91.9467 528.04 94.88 528.04C95.6267 528.04 96.3467 528.04 97.04 528.04C97.7867 528.04 98.5333 528.093 99.28 528.2C99.44 526.6 99.52 525.16 99.52 523.88C99.52 520.947 98.9333 518.893 97.76 517.72C96.5867 516.547 94.4533 515.96 91.36 515.96C90.4533 515.96 89.4667 516.04 88.4 516.2C87.3867 516.307 86.32 516.493 85.2 516.76C84.1333 516.973 83.0933 517.267 82.08 517.64C81.12 517.96 80.2667 518.333 79.52 518.76L77.52 513.96ZM88.88 546.04C90.3733 546.04 91.7067 545.853 92.88 545.48C94.0533 545.053 95.0667 544.547 95.92 543.96C96.7733 543.32 97.4667 542.627 98 541.88C98.5867 541.133 99.0133 540.413 99.28 539.72V533.08C98.5333 533.027 97.76 533 96.96 533C96.2133 532.947 95.4667 532.92 94.72 532.92C93.0667 532.92 91.44 533.027 89.84 533.24C88.2933 533.4 86.9067 533.747 85.68 534.28C84.5067 534.76 83.5467 535.453 82.8 536.36C82.1067 537.213 81.76 538.307 81.76 539.64C81.76 541.507 82.4267 543.053 83.76 544.28C85.0933 545.453 86.8 546.04 88.88 546.04ZM162.482 535.96C162.482 534.253 161.842 532.867 160.562 531.8C159.335 530.733 157.762 529.773 155.842 528.92C153.975 528.013 151.922 527.107 149.682 526.2C147.495 525.24 145.442 524.093 143.522 522.76C141.655 521.373 140.082 519.667 138.802 517.64C137.575 515.613 136.962 513.027 136.962 509.88C136.962 507.16 137.415 504.813 138.322 502.84C139.229 500.813 140.509 499.133 142.162 497.8C143.869 496.467 145.869 495.48 148.162 494.84C150.455 494.2 153.015 493.88 155.842 493.88C159.095 493.88 162.162 494.173 165.042 494.76C167.922 495.293 170.295 496.093 172.162 497.16L168.722 506.36C167.549 505.613 165.789 504.947 163.442 504.36C161.095 503.72 158.562 503.4 155.842 503.4C153.282 503.4 151.309 503.907 149.922 504.92C148.589 505.933 147.922 507.293 147.922 509C147.922 510.6 148.535 511.933 149.762 513C151.042 514.067 152.615 515.053 154.482 515.96C156.402 516.867 158.455 517.8 160.642 518.76C162.882 519.72 164.935 520.893 166.802 522.28C168.722 523.613 170.295 525.293 171.522 527.32C172.802 529.293 173.442 531.773 173.442 534.76C173.442 537.747 172.935 540.333 171.922 542.52C170.962 544.653 169.575 546.44 167.762 547.88C166.002 549.32 163.842 550.387 161.282 551.08C158.775 551.773 156.002 552.12 152.962 552.12C148.962 552.12 145.442 551.747 142.402 551C139.362 550.253 137.122 549.507 135.682 548.76L139.202 539.4C139.789 539.72 140.535 540.067 141.442 540.44C142.402 540.813 143.469 541.16 144.642 541.48C145.815 541.8 147.042 542.067 148.322 542.28C149.655 542.493 151.015 542.6 152.402 542.6C155.655 542.6 158.135 542.067 159.842 541C161.602 539.88 162.482 538.2 162.482 535.96ZM213.304 547.56C211.704 548.84 209.517 549.933 206.744 550.84C204.024 551.693 201.117 552.12 198.024 552.12C191.57 552.12 186.85 550.253 183.864 546.52C180.877 542.733 179.384 537.56 179.384 531C179.384 523.96 181.064 518.68 184.424 515.16C187.784 511.64 192.504 509.88 198.584 509.88C200.61 509.88 202.584 510.147 204.504 510.68C206.424 511.213 208.13 512.093 209.624 513.32C211.117 514.547 212.317 516.2 213.224 518.28C214.13 520.36 214.584 522.947 214.584 526.04C214.584 527.16 214.504 528.36 214.344 529.64C214.237 530.92 214.05 532.253 213.784 533.64H189.784C189.944 537 190.797 539.533 192.344 541.24C193.944 542.947 196.504 543.8 200.024 543.8C202.21 543.8 204.157 543.48 205.864 542.84C207.624 542.147 208.957 541.453 209.864 540.76L213.304 547.56ZM198.424 518.2C195.704 518.2 193.677 519.027 192.344 520.68C191.064 522.28 190.29 524.44 190.024 527.16H204.904C205.117 524.28 204.664 522.067 203.544 520.52C202.477 518.973 200.77 518.2 198.424 518.2ZM244.809 520.76C243.155 520.173 241.662 519.88 240.329 519.88C238.462 519.88 236.889 520.387 235.609 521.4C234.382 522.36 233.555 523.613 233.129 525.16V551H222.729V511H230.809L232.009 516.28H232.329C233.235 514.307 234.462 512.787 236.009 511.72C237.555 510.653 239.369 510.12 241.449 510.12C242.835 510.12 244.409 510.413 246.169 511L244.809 520.76ZM265.416 531.96L266.776 538.12H267.176L268.296 531.8L275.096 511H286.296L269.576 551.4H263.256L245.896 511H257.976L265.416 531.96ZM291.461 511H301.861V551H291.461V511ZM289.941 499.72C289.941 498.173 290.501 496.867 291.621 495.8C292.794 494.68 294.394 494.12 296.421 494.12C298.447 494.12 300.074 494.68 301.301 495.8C302.581 496.867 303.221 498.173 303.221 499.72C303.221 501.267 302.581 502.573 301.301 503.64C300.074 504.653 298.447 505.16 296.421 505.16C294.394 505.16 292.794 504.653 291.621 503.64C290.501 502.573 289.941 501.267 289.941 499.72ZM341.105 548.52C339.505 549.693 337.558 550.573 335.265 551.16C333.025 551.8 330.705 552.12 328.305 552.12C325.105 552.12 322.385 551.613 320.145 550.6C317.958 549.587 316.172 548.173 314.785 546.36C313.398 544.493 312.385 542.253 311.745 539.64C311.158 537.027 310.865 534.147 310.865 531C310.865 524.227 312.385 519.027 315.425 515.4C318.465 511.72 322.892 509.88 328.705 509.88C331.638 509.88 333.985 510.12 335.745 510.6C337.558 511.08 339.185 511.693 340.625 512.44L338.145 520.92C336.918 520.333 335.692 519.88 334.465 519.56C333.292 519.24 331.932 519.08 330.385 519.08C327.505 519.08 325.318 520.04 323.825 521.96C322.332 523.827 321.585 526.84 321.585 531C321.585 532.707 321.772 534.28 322.145 535.72C322.518 537.16 323.078 538.413 323.825 539.48C324.572 540.547 325.532 541.4 326.705 542.04C327.932 542.627 329.345 542.92 330.945 542.92C332.705 542.92 334.198 542.707 335.425 542.28C336.652 541.8 337.745 541.24 338.705 540.6L341.105 548.52ZM378.866 547.56C377.266 548.84 375.08 549.933 372.306 550.84C369.586 551.693 366.68 552.12 363.586 552.12C357.133 552.12 352.413 550.253 349.426 546.52C346.44 542.733 344.946 537.56 344.946 531C344.946 523.96 346.626 518.68 349.986 515.16C353.346 511.64 358.066 509.88 364.146 509.88C366.173 509.88 368.146 510.147 370.066 510.68C371.986 511.213 373.693 512.093 375.186 513.32C376.68 514.547 377.88 516.2 378.786 518.28C379.693 520.36 380.146 522.947 380.146 526.04C380.146 527.16 380.066 528.36 379.906 529.64C379.8 530.92 379.613 532.253 379.346 533.64H355.346C355.506 537 356.36 539.533 357.906 541.24C359.506 542.947 362.066 543.8 365.586 543.8C367.773 543.8 369.72 543.48 371.426 542.84C373.186 542.147 374.52 541.453 375.426 540.76L378.866 547.56ZM363.986 518.2C361.266 518.2 359.24 519.027 357.906 520.68C356.626 522.28 355.853 524.44 355.586 527.16H370.466C370.68 524.28 370.226 522.067 369.106 520.52C368.04 518.973 366.333 518.2 363.986 518.2Z" fill="#000C13"/>
<path d="M595.129 638.074C599.83 639.007 602.181 641.687 602.181 646.112C602.181 649.257 601.04 651.626 598.759 653.216C596.477 654.806 593.072 655.601 588.543 655.601C585.501 655.601 583.064 655.532 581.232 655.394H581.18L581.439 645.386L581.18 622.154L590.41 622.103C593.521 622.103 595.907 622.794 597.566 624.177C599.26 625.56 600.107 627.565 600.107 630.192C600.107 632.059 599.675 633.666 598.81 635.015C597.946 636.363 596.719 637.383 595.129 638.074ZM595.855 630.659C595.855 628.861 595.353 627.565 594.351 626.77C593.383 625.94 591.793 625.525 589.58 625.525H585.38L585.276 636.674L590.98 636.829C594.23 636.069 595.855 634.012 595.855 630.659ZM589.165 652.127C592 652.127 594.178 651.591 595.699 650.519C597.22 649.448 597.981 647.909 597.981 645.904C597.981 642.516 595.855 640.58 591.603 640.096L585.224 640.148L585.173 645.023L585.328 651.971C586.676 652.075 587.955 652.127 589.165 652.127ZM622.566 641.963C624.848 645.731 627.717 649.88 631.174 654.408L631.122 654.927C629.878 655.411 628.598 655.722 627.285 655.86L626.714 655.497C623.88 651.245 621.339 647.097 619.092 643.052H613.025V645.023L613.232 655.394H609.032L609.291 645.386L609.032 622.154L619.195 622.103C622.445 622.103 624.951 622.932 626.714 624.592C628.512 626.216 629.411 628.55 629.411 631.592C629.411 633.874 628.806 635.931 627.596 637.763C626.421 639.56 624.744 640.961 622.566 641.963ZM613.076 639.526L619.299 639.681C623.171 638.575 625.107 636 625.107 631.955C625.107 629.846 624.536 628.273 623.396 627.236C622.255 626.165 620.544 625.594 618.262 625.525L613.232 625.681L613.076 639.526ZM656.774 652.179L656.463 655.394H637.795L638.055 645.386L637.795 622.154H656.515L656.723 622.569L656.411 625.784L648.581 625.629L641.996 625.732L641.892 636.622L648.115 636.726L653.611 636.57L653.922 636.933L653.559 640.148L647.752 640.044L641.84 640.096L641.788 645.023L641.944 651.919L648.529 651.971L656.515 651.764L656.774 652.179ZM686.82 655.394H682.568L681.791 652.075L679.924 646.371L672.457 646.215L665.715 646.371L663.693 651.867L662.863 655.394H658.715L670.901 622.154H675.723L686.82 655.394ZM678.783 642.845L673.39 626.458H673.027L667.012 642.845L672.82 642.948L678.783 642.845ZM696.783 645.023L696.939 655.394H692.842L692.998 645.386L692.842 622.154H696.99L696.783 645.023ZM701.917 637.763C706.515 643.709 711.32 649.292 716.332 654.512L716.281 655.031C715.244 655.342 713.947 655.618 712.391 655.86L711.873 655.601C706.411 649.413 701.64 643.536 697.561 637.97V637.659L708.658 625.058L710.732 622.154H715.399L701.917 637.763Z" fill="#C50063"/>
<path d="M650.662 764.865V695.725L682.351 664.035" stroke="#C50063" stroke-width="2"/>
<path d="M644.902 763.424V666.915L610.332 702.05" stroke="#C50063" stroke-width="2"/>
<path d="M644.902 388.913V576.168L613.213 607.858" stroke="#C50063" stroke-width="2"/>
<path d="M650.662 386.033V604.978L685.232 569.843" stroke="#C50063" stroke-width="2"/>
<rect x="644" y="11" width="7" height="563" fill="#C50063"/>
<rect x="644" y="696" width="7" height="60" fill="#C50063"/>
<path d="M609.5 702L646.5 665V700.5L683.5 663.5" stroke="#C50063" stroke-width="4"/>
<path d="M612 607.5L649 570.5V606L686 569" stroke="#C50063" stroke-width="4"/>
<rect x="6" y="6" width="756" height="756" stroke="white" stroke-width="12"/>
<rect x="0.5" y="0.5" width="767" height="767" stroke="#E0E0E0"/>
</svg>
