<svg width="1280" height="720" viewBox="0 0 1280 720" fill="none" xmlns="http://www.w3.org/2000/svg">
<rect width="1280" height="720" fill="white"/>
<g clip-path="url(#clip0)">
<path d="M672.163 486.713C672.153 486.723 672.143 486.723 672.143 486.733C664.475 492.158 655.397 497.856 645.629 503.838L645.244 504.061C645.112 504.152 645.081 504.335 645.173 504.467C645.264 504.599 645.447 504.629 645.578 504.538L645.903 504.365C654.19 500.046 663.704 494.916 673.279 489.653C673.33 489.623 673.38 489.592 673.431 489.572C672.904 488.7 672.468 487.747 672.163 486.713V486.713ZM722.472 446.004C710.392 432.681 632.646 444.665 599.59 451.884L598.819 452.047C598.657 452.077 598.556 452.229 598.586 452.381C598.616 452.544 598.769 452.645 598.921 452.614L599.681 452.462C627.067 447.585 684.031 440.833 696.283 452.979C700.026 456.69 699.133 461.456 694.792 467.093C697.125 468.594 698.789 470.956 699.539 473.907C716.478 462.673 727.848 451.935 722.472 446.004V446.004Z" fill="#D03027"/>
<path d="M677.052 483.215C677.204 487.899 680.176 491.742 684.04 491.742C691.536 491.742 694.731 482.536 694.508 476.391C694.346 471.697 691.303 467.864 687.438 467.864C680.997 467.854 676.829 477.02 677.052 483.215V483.215ZM673.096 482.961C672.822 474.962 679.091 466.779 688.199 466.779C694.285 466.779 698.271 470.835 698.494 477.05C698.788 485.486 692.926 493.233 683.401 493.233C677.295 493.233 673.309 489.187 673.096 482.961V482.961Z" fill="#004977"/>
<path d="M586.832 480.852C586.508 480.974 586.092 481.096 585.564 481.207C585.047 481.329 584.094 481.491 582.714 481.714C581.761 481.866 581.101 482.059 580.726 482.333C580.371 482.596 580.158 482.911 580.097 483.306C580.026 483.722 580.158 484.046 580.513 484.31C580.878 484.563 581.487 484.695 582.349 484.695C582.998 484.695 583.627 484.594 584.236 484.391C584.854 484.188 585.382 483.915 585.777 483.57C586.071 483.316 586.284 482.992 586.447 482.596C586.548 482.333 586.68 481.755 586.832 480.852V480.852ZM594.744 475.935C594.713 476.665 594.581 477.314 594.389 478.439L593.05 485.953C592.938 486.622 593.182 487.139 593.8 487.504L593.76 487.798L586.092 487.788L586.021 485.882C584.905 486.551 583.556 487.119 582.339 487.453C581.122 487.767 580.138 487.899 578.667 487.899C576.192 487.899 574.772 487.646 573.788 486.784C572.794 485.902 572.307 485.314 572.358 484.097C572.399 483.397 572.764 482.495 573.281 481.866C573.809 481.228 574.539 480.812 575.32 480.437C576.111 480.062 577.044 479.788 578.393 479.575C579.752 479.352 581.639 479.139 584.165 478.926C585.493 478.814 586.305 478.51 586.68 478.358C587.207 478.155 587.42 477.922 587.491 477.496C587.633 476.726 587.39 476.28 586.355 476.077C583.597 475.529 578.413 476.432 575.746 477.091L577.196 473.177C580.716 472.66 584.012 472.335 587.491 472.335C593.04 472.335 594.805 473.907 594.744 475.935V475.935Z" fill="#004977"/>
<path d="M616.978 487.788L619.635 472.771H626.979L624.321 487.788H616.978ZM620.041 469.294C620.264 468.057 622.211 467.063 624.382 467.063C626.563 467.063 628.155 468.067 627.942 469.294C627.709 470.531 625.772 471.534 623.581 471.534C621.41 471.534 619.828 470.531 620.041 469.294V469.294Z" fill="#004977"/>
<path d="M653.054 480.883C652.719 480.994 652.293 481.116 651.776 481.237C651.259 481.359 650.305 481.511 648.926 481.734C647.982 481.886 647.313 482.079 646.948 482.353C646.593 482.606 646.39 482.931 646.309 483.316C646.228 483.732 646.38 484.066 646.725 484.32C647.1 484.573 647.709 484.695 648.571 484.695C649.21 484.695 649.839 484.604 650.457 484.411C651.086 484.198 651.603 483.935 652.009 483.59C652.293 483.336 652.506 483.002 652.658 482.616C652.76 482.363 652.892 481.785 653.054 480.883V480.883ZM660.965 475.955C660.935 476.695 660.803 477.344 660.6 478.459L659.272 485.983C659.16 486.642 659.403 487.169 660.022 487.534L659.982 487.798L652.313 487.808L652.253 485.891C651.137 486.571 649.778 487.139 648.571 487.463C647.354 487.787 646.37 487.919 644.879 487.919C642.404 487.919 640.994 487.676 640.01 486.804C639.006 485.912 638.529 485.334 638.58 484.117C638.61 483.407 638.975 482.505 639.503 481.886C640.03 481.237 640.761 480.832 641.552 480.457C642.343 480.082 643.276 479.808 644.615 479.585C645.974 479.372 647.871 479.149 650.396 478.936C651.715 478.824 652.526 478.53 652.902 478.378C653.439 478.175 653.642 477.942 653.723 477.506C653.855 476.746 653.622 476.3 652.597 476.087C649.818 475.539 644.655 476.442 641.988 477.101L643.428 473.187C646.958 472.67 650.244 472.345 653.723 472.345C659.251 472.355 661.016 473.937 660.965 475.955V475.955Z" fill="#004977"/>
<path d="M571.365 482.394C568.971 482.87 567.632 483.053 565.269 483.053C561.759 483.053 558.97 481.309 559.122 478.115C559.233 475.986 561.749 471.504 568.149 471.504C570.168 471.504 571.74 471.859 573.86 473.065L574.793 467.854C571.912 466.769 570.005 466.607 567.53 466.627C559.132 466.718 551.079 470.531 550.074 478.287C549.06 486.165 558.686 488.143 562.956 488.122C565.421 488.112 567.987 488.011 570.381 487.767L571.365 482.394Z" fill="#004977"/>
<path d="M631.025 472.69L631.552 469.628L639.231 467.955L638.409 472.68H642.172L641.462 475.702L637.811 475.692L635.589 487.767C635.589 487.767 628.195 487.717 628.165 487.767L630.376 475.722H627.597L628.165 472.68H631.025V472.69Z" fill="#004977"/>
<path d="M671.993 467.042L668.422 487.777L660.947 487.787L664.71 466.839L671.993 467.042Z" fill="#004977"/>
<path d="M607.261 476.29C606.297 476.29 605.425 476.584 604.654 477.162C603.883 477.75 603.397 478.602 603.204 479.727C602.971 481.035 603.113 481.978 603.63 482.556C604.157 483.134 604.908 483.428 605.902 483.428C606.571 483.428 607.261 483.306 607.768 483.053C608.397 482.718 608.833 482.373 609.209 481.816C609.614 481.238 609.878 480.589 610.02 479.839C610.233 478.652 610.05 477.77 609.503 477.182C608.965 476.594 608.225 476.29 607.261 476.29V476.29ZM593.893 492.969L597.473 472.853H603.924L603.427 475.418C603.985 474.647 604.877 474.019 606.115 473.512C607.362 473.005 608.762 472.63 610.284 472.63C611.967 472.63 613.002 472.721 614.26 473.37C615.507 474.029 616.39 474.982 616.856 476.219C617.343 477.436 617.445 478.814 617.181 480.305C616.745 482.789 615.538 484.736 613.55 486.176C611.582 487.615 609.807 487.991 607.281 488.001C606.389 488.001 605.638 487.909 605.019 487.757C604.411 487.595 603.924 487.402 603.559 487.169C603.204 486.936 602.829 486.601 602.352 486.074L601.155 492.969H593.893Z" fill="#004977"/>
<path d="M727.188 478.135C727.148 476.928 726.539 476.107 725.291 476.107C722.279 476.107 719.074 482.008 718.526 484.381C723.466 484.391 727.31 481.45 727.188 478.135V478.135ZM727.837 487.382L728.416 487.777C726.945 490.768 723.953 493.171 720.443 493.171C717.573 493.171 715.209 491.255 715.088 487.666C714.854 481.227 720.889 475.255 725.829 475.255C727.949 475.255 729.917 476.178 729.998 478.459C730.18 483.58 722.989 485.141 718.252 485.253C718.1 485.79 718.039 486.327 718.07 487.138C718.151 489.258 719.429 491.042 722.086 491.042C724.379 491.042 726.671 489.197 727.837 487.382V487.382Z" fill="#004977"/>
<path d="M698.381 477.973C698.889 477.902 699.71 477.81 700.065 477.81C700.603 477.81 701.11 477.912 701.14 478.449C701.151 478.764 700.583 481.045 700.461 481.572L699.315 486.622C698.848 488.69 698.351 490.85 697.905 492.563H700.846L702.5 484.563C707.541 479.311 709.488 477.598 710.675 477.598C711.212 477.598 711.578 477.881 711.608 478.52C711.638 479.443 711.06 481.542 710.868 482.15L709.184 487.98C708.798 489.288 708.514 490.474 708.545 491.316C708.596 492.594 709.366 493.161 710.523 493.161C712.673 493.161 714.235 490.921 715.594 488.72L715.199 488C714.651 488.883 713.373 490.819 712.369 490.819C712.054 490.819 711.75 490.606 711.74 490.079C711.709 489.4 711.993 488.376 712.196 487.696L714.073 480.862C714.58 478.976 714.813 477.77 714.803 477.121C714.752 475.843 714.012 475.245 712.866 475.245C710.928 475.245 708.362 476.665 702.915 482.921H702.834L703.524 479.869C703.899 478.196 704.264 476.452 704.609 475.245C702.723 475.925 700.025 476.685 698.361 477.009L698.381 477.973Z" fill="#004977"/>
</g>
<path d="M311.688 356.144C310.408 357.125 308.787 357.808 306.824 358.192C304.862 358.576 302.771 358.768 300.552 358.768C297.864 358.768 295.347 358.32 293 357.424C290.654 356.485 288.606 355.077 286.856 353.2C285.107 351.323 283.72 348.933 282.696 346.032C281.672 343.088 281.16 339.611 281.16 335.6C281.16 331.419 281.715 327.877 282.824 324.976C283.976 322.032 285.47 319.643 287.304 317.808C289.182 315.931 291.272 314.565 293.576 313.712C295.88 312.859 298.227 312.432 300.616 312.432C303.176 312.432 305.267 312.581 306.888 312.88C308.51 313.136 309.896 313.499 311.048 313.968L309.768 318.64C307.72 317.659 304.798 317.168 301 317.168C299.251 317.168 297.523 317.488 295.816 318.128C294.11 318.768 292.574 319.813 291.208 321.264C289.886 322.715 288.819 324.613 288.008 326.96C287.198 329.307 286.792 332.187 286.792 335.6C286.792 338.672 287.176 341.36 287.944 343.664C288.712 345.968 289.758 347.888 291.08 349.424C292.446 350.96 294.024 352.112 295.816 352.88C297.651 353.648 299.635 354.032 301.768 354.032C303.688 354.032 305.352 353.84 306.76 353.456C308.211 353.072 309.427 352.581 310.408 351.984L311.688 356.144ZM340.891 358V339.76C340.891 338.096 340.784 336.645 340.571 335.408C340.4 334.128 340.059 333.083 339.547 332.272C339.035 331.419 338.331 330.779 337.435 330.352C336.581 329.925 335.451 329.712 334.043 329.712C332.037 329.712 330.224 330.373 328.603 331.696C326.981 332.976 325.936 334.64 325.467 336.688V358H320.347V313.2H325.467V329.584H325.723C326.832 328.261 328.155 327.216 329.691 326.448C331.269 325.637 333.211 325.232 335.515 325.232C337.307 325.232 338.864 325.445 340.187 325.872C341.509 326.256 342.597 326.96 343.451 327.984C344.347 329.008 344.987 330.395 345.371 332.144C345.797 333.851 346.011 336.027 346.011 338.672V358H340.891ZM356.115 328.368C357.736 327.387 359.613 326.661 361.747 326.192C363.923 325.723 366.184 325.488 368.531 325.488C370.749 325.488 372.52 325.787 373.843 326.384C375.208 326.981 376.232 327.771 376.915 328.752C377.64 329.691 378.109 330.736 378.323 331.888C378.579 333.04 378.707 334.192 378.707 335.344C378.707 337.904 378.643 340.4 378.515 342.832C378.387 345.264 378.323 347.568 378.323 349.744C378.323 351.323 378.387 352.816 378.515 354.224C378.643 355.632 378.877 356.933 379.219 358.128H375.443L374.099 353.648H373.779C373.395 354.245 372.904 354.843 372.307 355.44C371.752 355.995 371.069 356.507 370.259 356.976C369.448 357.403 368.509 357.765 367.443 358.064C366.376 358.363 365.16 358.512 363.795 358.512C362.429 358.512 361.149 358.299 359.955 357.872C358.803 357.445 357.8 356.848 356.947 356.08C356.093 355.269 355.411 354.309 354.899 353.2C354.429 352.091 354.195 350.832 354.195 349.424C354.195 347.547 354.579 345.989 355.347 344.752C356.115 343.472 357.181 342.469 358.547 341.744C359.955 340.976 361.619 340.443 363.539 340.144C365.501 339.803 367.656 339.632 370.003 339.632C370.6 339.632 371.176 339.632 371.731 339.632C372.328 339.632 372.925 339.675 373.523 339.76C373.651 338.48 373.715 337.328 373.715 336.304C373.715 333.957 373.245 332.315 372.307 331.376C371.368 330.437 369.661 329.968 367.187 329.968C366.461 329.968 365.672 330.032 364.819 330.16C364.008 330.245 363.155 330.395 362.259 330.608C361.405 330.779 360.573 331.013 359.763 331.312C358.995 331.568 358.312 331.867 357.715 332.208L356.115 328.368ZM365.203 354.032C366.397 354.032 367.464 353.883 368.403 353.584C369.341 353.243 370.152 352.837 370.835 352.368C371.517 351.856 372.072 351.301 372.499 350.704C372.968 350.107 373.309 349.531 373.523 348.976V343.664C372.925 343.621 372.307 343.6 371.667 343.6C371.069 343.557 370.472 343.536 369.875 343.536C368.552 343.536 367.251 343.621 365.971 343.792C364.733 343.92 363.624 344.197 362.643 344.624C361.704 345.008 360.936 345.563 360.339 346.288C359.784 346.971 359.507 347.845 359.507 348.912C359.507 350.405 360.04 351.643 361.107 352.624C362.173 353.563 363.539 354.032 365.203 354.032ZM410.201 358V339.76C410.201 336.432 409.71 333.936 408.729 332.272C407.79 330.565 406.041 329.712 403.481 329.712C401.219 329.712 399.342 330.331 397.849 331.568C396.398 332.763 395.374 334.277 394.777 336.112V358H389.657V326H393.241L394.201 329.904H394.457C395.481 328.539 396.846 327.429 398.553 326.576C400.302 325.68 402.371 325.232 404.761 325.232C406.51 325.232 408.046 325.445 409.369 325.872C410.691 326.256 411.779 326.96 412.633 327.984C413.529 329.008 414.19 330.395 414.617 332.144C415.086 333.851 415.321 336.027 415.321 338.672V358H410.201ZM450.449 359.472C450.449 363.611 449.339 366.661 447.121 368.624C444.945 370.587 441.702 371.568 437.393 371.568C434.833 371.568 432.763 371.397 431.185 371.056C429.649 370.757 428.326 370.352 427.217 369.84L428.561 365.488C429.542 365.872 430.63 366.235 431.825 366.576C433.019 366.917 434.577 367.088 436.497 367.088C438.289 367.088 439.739 366.917 440.849 366.576C442.001 366.277 442.918 365.744 443.601 364.976C444.283 364.251 444.753 363.291 445.009 362.096C445.265 360.944 445.393 359.557 445.393 357.936V354.864H445.137C444.283 356.101 443.195 357.061 441.873 357.744C440.55 358.384 438.822 358.704 436.689 358.704C432.379 358.704 429.201 357.36 427.153 354.672C425.147 351.984 424.145 347.803 424.145 342.128C424.145 336.667 425.446 332.528 428.049 329.712C430.651 326.853 434.491 325.424 439.569 325.424C442.001 325.424 444.07 325.616 445.777 326C447.526 326.384 449.083 326.832 450.449 327.344V359.472ZM437.585 354.224C439.761 354.224 441.467 353.691 442.705 352.624C443.942 351.515 444.817 349.808 445.329 347.504V331.12C443.622 330.309 441.446 329.904 438.801 329.904C435.899 329.904 433.617 330.885 431.953 332.848C430.289 334.811 429.457 337.883 429.457 342.064C429.457 343.856 429.606 345.499 429.905 346.992C430.203 348.485 430.673 349.765 431.313 350.832C431.953 351.899 432.785 352.731 433.809 353.328C434.833 353.925 436.091 354.224 437.585 354.224ZM484.952 355.44C483.672 356.464 482.05 357.275 480.088 357.872C478.168 358.469 476.12 358.768 473.944 358.768C471.512 358.768 469.4 358.384 467.608 357.616C465.816 356.805 464.344 355.675 463.192 354.224C462.04 352.731 461.186 350.96 460.632 348.912C460.077 346.864 459.8 344.56 459.8 342C459.8 336.539 461.016 332.379 463.448 329.52C465.88 326.661 469.357 325.232 473.88 325.232C475.33 325.232 476.781 325.403 478.232 325.744C479.682 326.043 480.984 326.64 482.136 327.536C483.288 328.432 484.226 329.712 484.952 331.376C485.677 332.997 486.04 335.152 486.04 337.84C486.04 339.248 485.912 340.805 485.656 342.512H465.112C465.112 344.389 465.304 346.053 465.688 347.504C466.072 348.955 466.669 350.192 467.48 351.216C468.29 352.197 469.336 352.965 470.616 353.52C471.938 354.032 473.538 354.288 475.416 354.288C476.866 354.288 478.317 354.032 479.768 353.52C481.218 353.008 482.306 352.411 483.032 351.728L484.952 355.44ZM473.944 329.712C471.426 329.712 469.4 330.373 467.864 331.696C466.37 333.019 465.474 335.28 465.176 338.48H481.048C481.048 335.237 480.429 332.976 479.192 331.696C477.954 330.373 476.205 329.712 473.944 329.712ZM542.77 323.632C542.77 324.741 542.621 325.851 542.322 326.96C542.066 328.069 541.618 329.093 540.978 330.032C540.338 330.928 539.506 331.739 538.482 332.464C537.458 333.147 536.221 333.659 534.77 334V334.384C536.05 334.597 537.266 334.96 538.418 335.472C539.57 335.984 540.573 336.688 541.426 337.584C542.28 338.48 542.941 339.568 543.41 340.848C543.922 342.128 544.178 343.643 544.178 345.392C544.178 347.696 543.688 349.701 542.706 351.408C541.725 353.072 540.402 354.437 538.738 355.504C537.117 356.571 535.261 357.36 533.17 357.872C531.08 358.384 528.925 358.64 526.706 358.64C525.981 358.64 525.042 358.64 523.89 358.64C522.781 358.64 521.565 358.597 520.242 358.512C518.962 358.469 517.64 358.384 516.274 358.256C514.952 358.128 513.736 357.936 512.626 357.68V313.52C513.437 313.392 514.354 313.264 515.378 313.136C516.445 313.008 517.576 312.901 518.77 312.816C519.965 312.731 521.181 312.667 522.418 312.624C523.698 312.581 524.957 312.56 526.194 312.56C528.285 312.56 530.312 312.731 532.274 313.072C534.28 313.371 536.05 313.925 537.586 314.736C539.165 315.547 540.424 316.677 541.362 318.128C542.301 319.579 542.77 321.413 542.77 323.632ZM526.77 351.408C527.837 351.408 528.861 351.28 529.842 351.024C530.866 350.768 531.762 350.384 532.53 349.872C533.298 349.317 533.917 348.635 534.386 347.824C534.856 347.013 535.09 346.053 535.09 344.944C535.09 343.536 534.813 342.427 534.258 341.616C533.704 340.805 532.978 340.187 532.082 339.76C531.186 339.291 530.184 338.992 529.074 338.864C527.965 338.736 526.856 338.672 525.746 338.672H521.074V351.024C521.288 351.109 521.629 351.173 522.098 351.216C522.568 351.259 523.058 351.301 523.57 351.344C524.125 351.344 524.68 351.365 525.234 351.408C525.832 351.408 526.344 351.408 526.77 351.408ZM523.89 332.016C524.488 332.016 525.17 331.995 525.938 331.952C526.749 331.909 527.41 331.845 527.922 331.76C529.544 331.248 530.93 330.48 532.082 329.456C533.277 328.432 533.874 327.088 533.874 325.424C533.874 324.315 533.661 323.397 533.234 322.672C532.808 321.947 532.232 321.371 531.506 320.944C530.824 320.517 530.034 320.219 529.138 320.048C528.242 319.877 527.304 319.792 526.322 319.792C525.213 319.792 524.189 319.813 523.25 319.856C522.312 319.899 521.586 319.963 521.074 320.048V332.016H523.89ZM551.335 327.856C553.041 327.088 555.068 326.491 557.415 326.064C559.761 325.595 562.215 325.36 564.775 325.36C566.993 325.36 568.849 325.637 570.343 326.192C571.836 326.704 573.009 327.451 573.863 328.432C574.759 329.413 575.377 330.587 575.719 331.952C576.103 333.317 576.295 334.853 576.295 336.56C576.295 338.437 576.231 340.336 576.103 342.256C575.975 344.133 575.889 345.989 575.847 347.824C575.847 349.659 575.911 351.451 576.039 353.2C576.167 354.907 576.487 356.528 576.999 358.064H570.215L568.871 353.648H568.551C567.697 354.971 566.503 356.123 564.967 357.104C563.473 358.043 561.532 358.512 559.143 358.512C557.649 358.512 556.305 358.299 555.111 357.872C553.916 357.403 552.892 356.763 552.039 355.952C551.185 355.099 550.524 354.117 550.055 353.008C549.585 351.856 549.351 350.576 549.351 349.168C549.351 347.205 549.777 345.563 550.631 344.24C551.527 342.875 552.785 341.787 554.407 340.976C556.071 340.123 558.033 339.547 560.295 339.248C562.599 338.907 565.159 338.8 567.975 338.928C568.273 336.539 568.103 334.832 567.463 333.808C566.823 332.741 565.393 332.208 563.175 332.208C561.511 332.208 559.74 332.379 557.863 332.72C556.028 333.061 554.513 333.509 553.319 334.064L551.335 327.856ZM561.895 351.664C563.559 351.664 564.881 351.301 565.863 350.576C566.844 349.808 567.569 348.997 568.039 348.144V343.984C566.716 343.856 565.436 343.835 564.199 343.92C563.004 344.005 561.937 344.197 560.999 344.496C560.06 344.795 559.313 345.221 558.759 345.776C558.204 346.331 557.927 347.035 557.927 347.888C557.927 349.083 558.268 350.021 558.951 350.704C559.676 351.344 560.657 351.664 561.895 351.664ZM604.141 358V339.824C604.141 337.221 603.757 335.344 602.989 334.192C602.263 333.04 601.005 332.464 599.213 332.464C597.634 332.464 596.29 332.933 595.181 333.872C594.114 334.768 593.346 335.899 592.877 337.264V358H584.557V326H591.149L592.109 330.224H592.365C593.346 328.859 594.647 327.664 596.269 326.64C597.89 325.616 599.981 325.104 602.541 325.104C604.119 325.104 605.527 325.317 606.765 325.744C608.002 326.171 609.047 326.875 609.901 327.856C610.754 328.837 611.394 330.181 611.821 331.888C612.247 333.552 612.461 335.621 612.461 338.096V358H604.141ZM631.272 344.752H629.032V358H620.712V313.2H629.032V339.632L630.952 338.736L638.248 326H647.4L639.72 338.16L636.456 340.592L639.976 343.088L648.616 358H639.08L631.272 344.752ZM654.197 326H662.517V358H654.197V326ZM652.981 316.976C652.981 315.739 653.429 314.693 654.325 313.84C655.264 312.944 656.544 312.496 658.165 312.496C659.787 312.496 661.088 312.944 662.069 313.84C663.093 314.693 663.605 315.739 663.605 316.976C663.605 318.213 663.093 319.259 662.069 320.112C661.088 320.923 659.787 321.328 658.165 321.328C656.544 321.328 655.264 320.923 654.325 320.112C653.429 319.259 652.981 318.213 652.981 316.976ZM691.481 358V339.824C691.481 337.221 691.097 335.344 690.329 334.192C689.603 333.04 688.345 332.464 686.553 332.464C684.974 332.464 683.63 332.933 682.521 333.872C681.454 334.768 680.686 335.899 680.217 337.264V358H671.897V326H678.489L679.449 330.224H679.705C680.686 328.859 681.987 327.664 683.609 326.64C685.23 325.616 687.321 325.104 689.881 325.104C691.459 325.104 692.867 325.317 694.105 325.744C695.342 326.171 696.387 326.875 697.241 327.856C698.094 328.837 698.734 330.181 699.161 331.888C699.587 333.552 699.801 335.621 699.801 338.096V358H691.481ZM735.124 358C735.124 362.651 733.865 366.064 731.348 368.24C728.83 370.459 725.31 371.568 720.788 371.568C717.716 371.568 715.284 371.355 713.492 370.928C711.742 370.501 710.42 370.053 709.524 369.584L711.252 362.992C712.233 363.376 713.364 363.76 714.644 364.144C715.966 364.528 717.588 364.72 719.508 364.72C722.409 364.72 724.372 364.08 725.396 362.8C726.462 361.563 726.996 359.813 726.996 357.552V355.504H726.74C725.246 357.509 722.601 358.512 718.804 358.512C714.665 358.512 711.572 357.232 709.524 354.672C707.518 352.112 706.516 348.101 706.516 342.64C706.516 336.923 707.881 332.592 710.612 329.648C713.342 326.704 717.31 325.232 722.516 325.232C725.246 325.232 727.678 325.424 729.812 325.808C731.988 326.192 733.758 326.64 735.124 327.152V358ZM721.044 351.856C722.665 351.856 723.902 351.493 724.756 350.768C725.652 350.043 726.334 348.955 726.804 347.504V333.104C725.481 332.549 723.838 332.272 721.876 332.272C719.742 332.272 718.078 333.083 716.884 334.704C715.689 336.283 715.092 338.821 715.092 342.32C715.092 345.435 715.604 347.803 716.628 349.424C717.652 351.045 719.124 351.856 721.044 351.856ZM759.747 326H764.739V324.208C764.739 322.245 764.888 320.539 765.187 319.088C765.528 317.637 766.061 316.464 766.787 315.568C767.512 314.629 768.451 313.947 769.603 313.52C770.755 313.051 772.184 312.816 773.891 312.816C775.256 312.816 776.451 312.901 777.475 313.072C778.541 313.243 779.651 313.563 780.803 314.032L779.651 318.32C778.669 317.893 777.731 317.616 776.835 317.488C775.981 317.36 775.171 317.296 774.403 317.296C773.293 317.296 772.419 317.467 771.779 317.808C771.181 318.149 770.733 318.661 770.435 319.344C770.179 319.984 770.008 320.795 769.923 321.776C769.88 322.715 769.859 323.824 769.859 325.104V326H778.371V330.48H769.859V358H764.739V330.48H759.747V326ZM782.505 342C782.505 336.581 783.699 332.443 786.089 329.584C788.521 326.683 791.998 325.232 796.521 325.232C798.91 325.232 800.979 325.637 802.729 326.448C804.521 327.216 805.993 328.347 807.145 329.84C808.297 331.291 809.15 333.061 809.705 335.152C810.259 337.2 810.537 339.483 810.537 342C810.537 347.419 809.321 351.579 806.889 354.48C804.499 357.339 801.043 358.768 796.521 358.768C794.131 358.768 792.041 358.384 790.249 357.616C788.499 356.805 787.049 355.675 785.897 354.224C784.745 352.731 783.891 350.96 783.337 348.912C782.782 346.821 782.505 344.517 782.505 342ZM787.817 342C787.817 343.621 787.966 345.179 788.265 346.672C788.606 348.165 789.118 349.467 789.801 350.576C790.483 351.685 791.379 352.581 792.489 353.264C793.598 353.947 794.942 354.288 796.521 354.288C802.323 354.331 805.225 350.235 805.225 342C805.225 340.336 805.054 338.757 804.713 337.264C804.414 335.771 803.923 334.469 803.241 333.36C802.558 332.251 801.662 331.376 800.553 330.736C799.443 330.053 798.099 329.712 796.521 329.712C790.718 329.669 787.817 333.765 787.817 342ZM834.993 330.928C833.713 330.501 832.497 330.288 831.345 330.288C829.511 330.288 828.06 330.8 826.993 331.824C825.927 332.805 825.265 334.064 825.009 335.6V358H819.889V326H823.473L824.433 329.904H824.689C825.5 328.453 826.46 327.344 827.569 326.576C828.721 325.765 830.172 325.36 831.921 325.36C833.159 325.36 834.545 325.573 836.081 326L834.993 330.928ZM875.982 334.64H892.686V354.608C890.894 356.101 888.739 357.189 886.222 357.872C883.747 358.555 881.294 358.896 878.862 358.896C876.003 358.896 873.336 358.448 870.862 357.552C868.43 356.656 866.318 355.269 864.526 353.392C862.734 351.472 861.326 349.04 860.302 346.096C859.278 343.152 858.766 339.653 858.766 335.6C858.766 331.376 859.363 327.792 860.558 324.848C861.795 321.861 863.395 319.451 865.358 317.616C867.363 315.739 869.603 314.395 872.078 313.584C874.552 312.731 877.07 312.304 879.63 312.304C882.19 312.304 884.43 312.496 886.35 312.88C888.312 313.264 889.87 313.669 891.022 314.096L889.23 321.456C888.163 321.029 886.968 320.709 885.646 320.496C884.323 320.24 882.638 320.112 880.59 320.112C878.755 320.112 877.07 320.389 875.534 320.944C873.998 321.499 872.654 322.416 871.502 323.696C870.392 324.933 869.518 326.533 868.878 328.496C868.28 330.459 867.982 332.848 867.982 335.664C867.982 338.352 868.28 340.677 868.878 342.64C869.475 344.56 870.307 346.16 871.374 347.44C872.44 348.677 873.678 349.595 875.086 350.192C876.536 350.789 878.072 351.088 879.694 351.088C880.803 351.088 881.891 350.96 882.958 350.704C884.024 350.405 884.92 349.979 885.646 349.424V340.976L875.982 339.952V334.64ZM898.726 342C898.726 336.581 900.048 332.421 902.694 329.52C905.339 326.576 909.051 325.104 913.83 325.104C916.39 325.104 918.608 325.509 920.486 326.32C922.363 327.131 923.92 328.283 925.158 329.776C926.395 331.227 927.312 332.997 927.91 335.088C928.55 337.179 928.87 339.483 928.87 342C928.87 347.419 927.547 351.6 924.902 354.544C922.299 357.445 918.608 358.896 913.83 358.896C911.27 358.896 909.051 358.491 907.174 357.68C905.296 356.869 903.718 355.739 902.438 354.288C901.2 352.795 900.262 351.003 899.622 348.912C899.024 346.821 898.726 344.517 898.726 342ZM907.302 342C907.302 343.408 907.43 344.709 907.686 345.904C907.942 347.099 908.326 348.144 908.838 349.04C909.35 349.936 910.011 350.64 910.822 351.152C911.675 351.621 912.678 351.856 913.83 351.856C916.006 351.856 917.627 351.067 918.694 349.488C919.76 347.909 920.294 345.413 920.294 342C920.294 339.056 919.803 336.688 918.822 334.896C917.84 333.061 916.176 332.144 913.83 332.144C911.782 332.144 910.182 332.912 909.03 334.448C907.878 335.984 907.302 338.501 907.302 342ZM934.381 342C934.381 336.581 935.703 332.421 938.349 329.52C940.994 326.576 944.706 325.104 949.485 325.104C952.045 325.104 954.263 325.509 956.141 326.32C958.018 327.131 959.575 328.283 960.813 329.776C962.05 331.227 962.967 332.997 963.565 335.088C964.205 337.179 964.525 339.483 964.525 342C964.525 347.419 963.202 351.6 960.557 354.544C957.954 357.445 954.263 358.896 949.485 358.896C946.925 358.896 944.706 358.491 942.829 357.68C940.951 356.869 939.373 355.739 938.093 354.288C936.855 352.795 935.917 351.003 935.277 348.912C934.679 346.821 934.381 344.517 934.381 342ZM942.957 342C942.957 343.408 943.085 344.709 943.341 345.904C943.597 347.099 943.981 348.144 944.493 349.04C945.005 349.936 945.666 350.64 946.477 351.152C947.33 351.621 948.333 351.856 949.485 351.856C951.661 351.856 953.282 351.067 954.349 349.488C955.415 347.909 955.949 345.413 955.949 342C955.949 339.056 955.458 336.688 954.477 334.896C953.495 333.061 951.831 332.144 949.485 332.144C947.437 332.144 945.837 332.912 944.685 334.448C943.533 335.984 942.957 338.501 942.957 342ZM998.772 346.736C998.772 348.528 998.793 350.32 998.836 352.112C998.878 353.904 999.07 355.888 999.412 358.064H993.46L992.308 353.904H992.052C991.198 355.397 989.961 356.613 988.34 357.552C986.761 358.448 984.884 358.896 982.708 358.896C978.697 358.896 975.582 357.573 973.364 354.928C971.145 352.283 970.036 348.144 970.036 342.512C970.036 337.051 971.273 332.805 973.748 329.776C976.222 326.747 979.849 325.232 984.628 325.232C985.95 325.232 987.038 325.317 987.892 325.488C988.745 325.616 989.598 325.851 990.452 326.192V313.2H998.772V346.736ZM984.628 351.856C986.249 351.856 987.529 351.472 988.468 350.704C989.406 349.893 990.068 348.741 990.452 347.248V333.68C989.854 333.211 989.193 332.869 988.468 332.656C987.742 332.4 986.804 332.272 985.652 332.272C983.305 332.272 981.534 333.061 980.34 334.64C979.188 336.219 978.612 338.928 978.612 342.768C978.612 345.499 979.081 347.696 980.02 349.36C981.001 351.024 982.537 351.856 984.628 351.856Z" fill="#000C13"/>
<rect x="6" y="6" width="1268" height="708" stroke="white" stroke-width="12"/>
<defs>
<clipPath id="clip0">
<rect width="180" height="64.5882" fill="white" transform="translate(550 440)"/>
</clipPath>
</defs>
</svg>
