<svg width="1280" height="720" viewBox="0 0 1280 720" fill="none" xmlns="http://www.w3.org/2000/svg">
<rect width="1280" height="720" fill="#E1E1E1"/>
<g clip-path="url(#clip0)">
<path d="M672.163 484.713C672.153 484.723 672.142 484.723 672.142 484.734C664.474 490.158 655.396 495.856 645.629 501.839L645.243 502.062C645.111 502.153 645.081 502.335 645.172 502.467C645.264 502.599 645.446 502.629 645.578 502.538L645.903 502.366C654.189 498.046 663.703 492.916 673.278 487.654C673.329 487.623 673.38 487.593 673.431 487.573C672.903 486.701 672.467 485.747 672.163 484.713ZM722.472 444.004C710.392 430.681 632.646 442.666 599.59 449.885L598.819 450.047C598.656 450.077 598.555 450.23 598.585 450.382C598.616 450.544 598.768 450.645 598.92 450.615L599.681 450.463C627.067 445.586 684.03 438.833 696.283 450.98C700.026 454.691 699.133 459.456 694.792 465.094C697.125 466.594 698.788 468.957 699.539 471.907C716.477 460.673 727.848 449.936 722.472 444.004Z" fill="#D03027"/>
<path d="M677.052 481.215C677.204 485.899 680.176 489.742 684.041 489.742C691.537 489.742 694.732 480.536 694.508 474.391C694.346 469.697 691.303 465.864 687.439 465.864C680.998 465.854 676.829 475.02 677.052 481.215ZM673.097 480.962C672.823 472.962 679.091 464.779 688.199 464.779C694.285 464.779 698.271 468.835 698.495 475.05C698.789 483.486 692.926 491.233 683.402 491.233C677.296 491.233 673.31 487.187 673.097 480.962Z" fill="#004977"/>
<path d="M586.831 478.853C586.507 478.975 586.091 479.096 585.563 479.208C585.046 479.329 584.093 479.492 582.713 479.715C581.76 479.867 581.1 480.06 580.725 480.333C580.37 480.597 580.157 480.911 580.096 481.307C580.025 481.722 580.157 482.047 580.512 482.31C580.877 482.564 581.486 482.696 582.348 482.696C582.997 482.696 583.626 482.594 584.235 482.392C584.853 482.189 585.381 481.915 585.776 481.57C586.07 481.317 586.283 480.992 586.446 480.597C586.547 480.333 586.679 479.755 586.831 478.853ZM594.743 473.935C594.712 474.665 594.58 475.314 594.388 476.44L593.049 483.953C592.937 484.622 593.181 485.139 593.799 485.504L593.759 485.798L586.091 485.788L586.02 483.882C584.904 484.551 583.555 485.119 582.338 485.454C581.121 485.768 580.137 485.9 578.666 485.9C576.191 485.9 574.771 485.646 573.787 484.784C572.793 483.902 572.306 483.314 572.357 482.098C572.398 481.398 572.763 480.496 573.28 479.867C573.808 479.228 574.538 478.812 575.319 478.437C576.11 478.062 577.043 477.788 578.392 477.575C579.751 477.352 581.638 477.139 584.164 476.926C585.492 476.815 586.304 476.511 586.679 476.359C587.206 476.156 587.419 475.923 587.49 475.497C587.632 474.726 587.389 474.28 586.354 474.077C583.596 473.53 578.412 474.432 575.745 475.091L577.195 471.177C580.715 470.66 584.011 470.336 587.49 470.336C593.039 470.336 594.804 471.908 594.743 473.935Z" fill="#004977"/>
<path d="M616.979 485.788L619.636 470.772H626.98L624.322 485.788H616.979ZM620.042 467.294C620.265 466.057 622.212 465.063 624.383 465.063C626.564 465.063 628.156 466.067 627.943 467.294C627.71 468.531 625.772 469.535 623.582 469.535C621.411 469.535 619.829 468.531 620.042 467.294Z" fill="#004977"/>
<path d="M653.054 478.883C652.719 478.995 652.293 479.116 651.776 479.238C651.259 479.36 650.305 479.512 648.926 479.735C647.982 479.887 647.313 480.079 646.948 480.353C646.593 480.607 646.39 480.931 646.309 481.316C646.228 481.732 646.38 482.067 646.725 482.32C647.1 482.574 647.709 482.695 648.571 482.695C649.21 482.695 649.839 482.604 650.457 482.411C651.086 482.199 651.603 481.935 652.009 481.59C652.293 481.337 652.506 481.002 652.658 480.617C652.76 480.363 652.892 479.785 653.054 478.883ZM660.965 473.955C660.935 474.695 660.803 475.344 660.6 476.46L659.272 483.983C659.16 484.642 659.403 485.169 660.022 485.534L659.982 485.798L652.313 485.808L652.253 483.892C651.137 484.571 649.778 485.139 648.571 485.463C647.354 485.788 646.37 485.92 644.879 485.92C642.404 485.92 640.994 485.676 640.01 484.804C639.006 483.912 638.529 483.334 638.58 482.117C638.61 481.408 638.975 480.505 639.503 479.887C640.03 479.238 640.761 478.832 641.552 478.457C642.343 478.082 643.276 477.808 644.615 477.585C645.974 477.372 647.871 477.149 650.396 476.936C651.715 476.825 652.526 476.531 652.902 476.379C653.439 476.176 653.642 475.943 653.723 475.507C653.855 474.746 653.622 474.3 652.597 474.087C649.818 473.54 644.655 474.442 641.988 475.101L643.428 471.187C646.958 470.67 650.244 470.346 653.723 470.346C659.251 470.356 661.016 471.938 660.965 473.955Z" fill="#004977"/>
<path d="M571.365 480.394C568.971 480.871 567.632 481.053 565.269 481.053C561.759 481.053 558.97 479.309 559.122 476.115C559.233 473.986 561.749 469.505 568.149 469.505C570.168 469.505 571.74 469.859 573.86 471.066L574.793 465.854C571.912 464.77 570.005 464.607 567.53 464.628C559.132 464.719 551.079 468.531 550.074 476.288C549.06 484.166 558.686 486.143 562.956 486.123C565.421 486.113 567.987 486.011 570.381 485.768L571.365 480.394Z" fill="#004977"/>
<path d="M631.024 470.691L631.551 467.629L639.23 465.956L638.408 470.681H642.171L641.461 473.702L637.81 473.692L635.588 485.768C635.588 485.768 628.194 485.717 628.164 485.768L630.375 473.723H627.596L628.164 470.681H631.024V470.691Z" fill="#004977"/>
<path d="M671.993 465.043L668.423 485.777L660.947 485.788L664.71 464.84L671.993 465.043Z" fill="#004977"/>
<path d="M607.261 474.29C606.297 474.29 605.425 474.584 604.654 475.162C603.883 475.75 603.397 476.602 603.204 477.727C602.971 479.035 603.113 479.978 603.63 480.556C604.157 481.134 604.908 481.428 605.902 481.428C606.571 481.428 607.261 481.307 607.768 481.053C608.397 480.718 608.833 480.374 609.209 479.816C609.614 479.238 609.878 478.589 610.02 477.839C610.233 476.653 610.05 475.771 609.503 475.182C608.965 474.594 608.225 474.29 607.261 474.29ZM593.893 490.969L597.473 470.853H603.924L603.427 473.418C603.985 472.648 604.877 472.019 606.115 471.512C607.362 471.005 608.762 470.63 610.284 470.63C611.967 470.63 613.002 470.721 614.26 471.37C615.507 472.029 616.39 472.982 616.856 474.219C617.343 475.436 617.445 476.815 617.181 478.305C616.745 480.789 615.538 482.736 613.55 484.176C611.582 485.616 609.807 485.991 607.281 486.001C606.389 486.001 605.638 485.91 605.019 485.758C604.411 485.595 603.924 485.403 603.559 485.17C603.204 484.936 602.829 484.602 602.352 484.075L601.155 490.969H593.893Z" fill="#004977"/>
<path d="M727.189 476.135C727.149 474.929 726.54 474.108 725.292 474.108C722.28 474.108 719.075 480.009 718.527 482.381C723.467 482.391 727.311 479.451 727.189 476.135ZM727.838 485.382L728.416 485.778C726.946 488.769 723.954 491.172 720.444 491.172C717.574 491.172 715.21 489.256 715.089 485.666C714.855 479.228 720.89 473.256 725.83 473.256C727.95 473.256 729.918 474.179 729.999 476.46C730.181 481.58 722.99 483.142 718.253 483.253C718.101 483.791 718.04 484.328 718.071 485.139C718.152 487.258 719.43 489.043 722.087 489.043C724.38 489.043 726.672 487.197 727.838 485.382Z" fill="#004977"/>
<path d="M698.381 475.974C698.888 475.903 699.71 475.811 700.065 475.811C700.602 475.811 701.109 475.913 701.14 476.45C701.15 476.764 700.582 479.046 700.46 479.573L699.314 484.622C698.848 486.691 698.351 488.85 697.904 490.564H700.846L702.499 482.564C707.54 477.312 709.488 475.598 710.674 475.598C711.212 475.598 711.577 475.882 711.607 476.521C711.638 477.444 711.06 479.543 710.867 480.151L709.183 485.981C708.798 487.289 708.514 488.475 708.544 489.317C708.595 490.594 709.366 491.162 710.522 491.162C712.673 491.162 714.235 488.921 715.594 486.721L715.198 486.001C714.65 486.883 713.372 488.82 712.368 488.82C712.054 488.82 711.75 488.607 711.739 488.08C711.709 487.401 711.993 486.376 712.196 485.697L714.072 478.863C714.579 476.977 714.813 475.771 714.803 475.122C714.752 473.844 714.011 473.246 712.865 473.246C710.928 473.246 708.362 474.666 702.915 480.922H702.834L703.524 477.87C703.899 476.197 704.264 474.453 704.609 473.246C702.722 473.925 700.024 474.686 698.361 475.01L698.381 475.974Z" fill="#004977"/>
</g>
<path d="M311.688 362.144C310.408 363.125 308.787 363.808 306.824 364.192C304.862 364.576 302.771 364.768 300.552 364.768C297.864 364.768 295.347 364.32 293 363.424C290.654 362.485 288.606 361.077 286.856 359.2C285.107 357.323 283.72 354.933 282.696 352.032C281.672 349.088 281.16 345.611 281.16 341.6C281.16 337.419 281.715 333.877 282.824 330.976C283.976 328.032 285.47 325.643 287.304 323.808C289.182 321.931 291.272 320.565 293.576 319.712C295.88 318.859 298.227 318.432 300.616 318.432C303.176 318.432 305.267 318.581 306.888 318.88C308.51 319.136 309.896 319.499 311.048 319.968L309.768 324.64C307.72 323.659 304.798 323.168 301 323.168C299.251 323.168 297.523 323.488 295.816 324.128C294.11 324.768 292.574 325.813 291.208 327.264C289.886 328.715 288.819 330.613 288.008 332.96C287.198 335.307 286.792 338.187 286.792 341.6C286.792 344.672 287.176 347.36 287.944 349.664C288.712 351.968 289.758 353.888 291.08 355.424C292.446 356.96 294.024 358.112 295.816 358.88C297.651 359.648 299.635 360.032 301.768 360.032C303.688 360.032 305.352 359.84 306.76 359.456C308.211 359.072 309.427 358.581 310.408 357.984L311.688 362.144ZM340.891 364V345.76C340.891 344.096 340.784 342.645 340.571 341.408C340.4 340.128 340.059 339.083 339.547 338.272C339.035 337.419 338.331 336.779 337.435 336.352C336.581 335.925 335.451 335.712 334.043 335.712C332.037 335.712 330.224 336.373 328.603 337.696C326.981 338.976 325.936 340.64 325.467 342.688V364H320.347V319.2H325.467V335.584H325.723C326.832 334.261 328.155 333.216 329.691 332.448C331.269 331.637 333.211 331.232 335.515 331.232C337.307 331.232 338.864 331.445 340.187 331.872C341.509 332.256 342.597 332.96 343.451 333.984C344.347 335.008 344.987 336.395 345.371 338.144C345.797 339.851 346.011 342.027 346.011 344.672V364H340.891ZM356.115 334.368C357.736 333.387 359.613 332.661 361.747 332.192C363.923 331.723 366.184 331.488 368.531 331.488C370.749 331.488 372.52 331.787 373.843 332.384C375.208 332.981 376.232 333.771 376.915 334.752C377.64 335.691 378.109 336.736 378.323 337.888C378.579 339.04 378.707 340.192 378.707 341.344C378.707 343.904 378.643 346.4 378.515 348.832C378.387 351.264 378.323 353.568 378.323 355.744C378.323 357.323 378.387 358.816 378.515 360.224C378.643 361.632 378.877 362.933 379.219 364.128H375.443L374.099 359.648H373.779C373.395 360.245 372.904 360.843 372.307 361.44C371.752 361.995 371.069 362.507 370.259 362.976C369.448 363.403 368.509 363.765 367.443 364.064C366.376 364.363 365.16 364.512 363.795 364.512C362.429 364.512 361.149 364.299 359.955 363.872C358.803 363.445 357.8 362.848 356.947 362.08C356.093 361.269 355.411 360.309 354.899 359.2C354.429 358.091 354.195 356.832 354.195 355.424C354.195 353.547 354.579 351.989 355.347 350.752C356.115 349.472 357.181 348.469 358.547 347.744C359.955 346.976 361.619 346.443 363.539 346.144C365.501 345.803 367.656 345.632 370.003 345.632C370.6 345.632 371.176 345.632 371.731 345.632C372.328 345.632 372.925 345.675 373.523 345.76C373.651 344.48 373.715 343.328 373.715 342.304C373.715 339.957 373.245 338.315 372.307 337.376C371.368 336.437 369.661 335.968 367.187 335.968C366.461 335.968 365.672 336.032 364.819 336.16C364.008 336.245 363.155 336.395 362.259 336.608C361.405 336.779 360.573 337.013 359.763 337.312C358.995 337.568 358.312 337.867 357.715 338.208L356.115 334.368ZM365.203 360.032C366.397 360.032 367.464 359.883 368.403 359.584C369.341 359.243 370.152 358.837 370.835 358.368C371.517 357.856 372.072 357.301 372.499 356.704C372.968 356.107 373.309 355.531 373.523 354.976V349.664C372.925 349.621 372.307 349.6 371.667 349.6C371.069 349.557 370.472 349.536 369.875 349.536C368.552 349.536 367.251 349.621 365.971 349.792C364.733 349.92 363.624 350.197 362.643 350.624C361.704 351.008 360.936 351.563 360.339 352.288C359.784 352.971 359.507 353.845 359.507 354.912C359.507 356.405 360.04 357.643 361.107 358.624C362.173 359.563 363.539 360.032 365.203 360.032ZM410.201 364V345.76C410.201 342.432 409.71 339.936 408.729 338.272C407.79 336.565 406.041 335.712 403.481 335.712C401.219 335.712 399.342 336.331 397.849 337.568C396.398 338.763 395.374 340.277 394.777 342.112V364H389.657V332H393.241L394.201 335.904H394.457C395.481 334.539 396.846 333.429 398.553 332.576C400.302 331.68 402.371 331.232 404.761 331.232C406.51 331.232 408.046 331.445 409.369 331.872C410.691 332.256 411.779 332.96 412.633 333.984C413.529 335.008 414.19 336.395 414.617 338.144C415.086 339.851 415.321 342.027 415.321 344.672V364H410.201ZM450.449 365.472C450.449 369.611 449.339 372.661 447.121 374.624C444.945 376.587 441.702 377.568 437.393 377.568C434.833 377.568 432.763 377.397 431.185 377.056C429.649 376.757 428.326 376.352 427.217 375.84L428.561 371.488C429.542 371.872 430.63 372.235 431.825 372.576C433.019 372.917 434.577 373.088 436.497 373.088C438.289 373.088 439.739 372.917 440.849 372.576C442.001 372.277 442.918 371.744 443.601 370.976C444.283 370.251 444.753 369.291 445.009 368.096C445.265 366.944 445.393 365.557 445.393 363.936V360.864H445.137C444.283 362.101 443.195 363.061 441.873 363.744C440.55 364.384 438.822 364.704 436.689 364.704C432.379 364.704 429.201 363.36 427.153 360.672C425.147 357.984 424.145 353.803 424.145 348.128C424.145 342.667 425.446 338.528 428.049 335.712C430.651 332.853 434.491 331.424 439.569 331.424C442.001 331.424 444.07 331.616 445.777 332C447.526 332.384 449.083 332.832 450.449 333.344V365.472ZM437.585 360.224C439.761 360.224 441.467 359.691 442.705 358.624C443.942 357.515 444.817 355.808 445.329 353.504V337.12C443.622 336.309 441.446 335.904 438.801 335.904C435.899 335.904 433.617 336.885 431.953 338.848C430.289 340.811 429.457 343.883 429.457 348.064C429.457 349.856 429.606 351.499 429.905 352.992C430.203 354.485 430.673 355.765 431.313 356.832C431.953 357.899 432.785 358.731 433.809 359.328C434.833 359.925 436.091 360.224 437.585 360.224ZM484.952 361.44C483.672 362.464 482.05 363.275 480.088 363.872C478.168 364.469 476.12 364.768 473.944 364.768C471.512 364.768 469.4 364.384 467.608 363.616C465.816 362.805 464.344 361.675 463.192 360.224C462.04 358.731 461.186 356.96 460.632 354.912C460.077 352.864 459.8 350.56 459.8 348C459.8 342.539 461.016 338.379 463.448 335.52C465.88 332.661 469.357 331.232 473.88 331.232C475.33 331.232 476.781 331.403 478.232 331.744C479.682 332.043 480.984 332.64 482.136 333.536C483.288 334.432 484.226 335.712 484.952 337.376C485.677 338.997 486.04 341.152 486.04 343.84C486.04 345.248 485.912 346.805 485.656 348.512H465.112C465.112 350.389 465.304 352.053 465.688 353.504C466.072 354.955 466.669 356.192 467.48 357.216C468.29 358.197 469.336 358.965 470.616 359.52C471.938 360.032 473.538 360.288 475.416 360.288C476.866 360.288 478.317 360.032 479.768 359.52C481.218 359.008 482.306 358.411 483.032 357.728L484.952 361.44ZM473.944 335.712C471.426 335.712 469.4 336.373 467.864 337.696C466.37 339.019 465.474 341.28 465.176 344.48H481.048C481.048 341.237 480.429 338.976 479.192 337.696C477.954 336.373 476.205 335.712 473.944 335.712ZM542.77 329.632C542.77 330.741 542.621 331.851 542.322 332.96C542.066 334.069 541.618 335.093 540.978 336.032C540.338 336.928 539.506 337.739 538.482 338.464C537.458 339.147 536.221 339.659 534.77 340V340.384C536.05 340.597 537.266 340.96 538.418 341.472C539.57 341.984 540.573 342.688 541.426 343.584C542.28 344.48 542.941 345.568 543.41 346.848C543.922 348.128 544.178 349.643 544.178 351.392C544.178 353.696 543.688 355.701 542.706 357.408C541.725 359.072 540.402 360.437 538.738 361.504C537.117 362.571 535.261 363.36 533.17 363.872C531.08 364.384 528.925 364.64 526.706 364.64C525.981 364.64 525.042 364.64 523.89 364.64C522.781 364.64 521.565 364.597 520.242 364.512C518.962 364.469 517.64 364.384 516.274 364.256C514.952 364.128 513.736 363.936 512.626 363.68V319.52C513.437 319.392 514.354 319.264 515.378 319.136C516.445 319.008 517.576 318.901 518.77 318.816C519.965 318.731 521.181 318.667 522.418 318.624C523.698 318.581 524.957 318.56 526.194 318.56C528.285 318.56 530.312 318.731 532.274 319.072C534.28 319.371 536.05 319.925 537.586 320.736C539.165 321.547 540.424 322.677 541.362 324.128C542.301 325.579 542.77 327.413 542.77 329.632ZM526.77 357.408C527.837 357.408 528.861 357.28 529.842 357.024C530.866 356.768 531.762 356.384 532.53 355.872C533.298 355.317 533.917 354.635 534.386 353.824C534.856 353.013 535.09 352.053 535.09 350.944C535.09 349.536 534.813 348.427 534.258 347.616C533.704 346.805 532.978 346.187 532.082 345.76C531.186 345.291 530.184 344.992 529.074 344.864C527.965 344.736 526.856 344.672 525.746 344.672H521.074V357.024C521.288 357.109 521.629 357.173 522.098 357.216C522.568 357.259 523.058 357.301 523.57 357.344C524.125 357.344 524.68 357.365 525.234 357.408C525.832 357.408 526.344 357.408 526.77 357.408ZM523.89 338.016C524.488 338.016 525.17 337.995 525.938 337.952C526.749 337.909 527.41 337.845 527.922 337.76C529.544 337.248 530.93 336.48 532.082 335.456C533.277 334.432 533.874 333.088 533.874 331.424C533.874 330.315 533.661 329.397 533.234 328.672C532.808 327.947 532.232 327.371 531.506 326.944C530.824 326.517 530.034 326.219 529.138 326.048C528.242 325.877 527.304 325.792 526.322 325.792C525.213 325.792 524.189 325.813 523.25 325.856C522.312 325.899 521.586 325.963 521.074 326.048V338.016H523.89ZM551.335 333.856C553.041 333.088 555.068 332.491 557.415 332.064C559.761 331.595 562.215 331.36 564.775 331.36C566.993 331.36 568.849 331.637 570.343 332.192C571.836 332.704 573.009 333.451 573.863 334.432C574.759 335.413 575.377 336.587 575.719 337.952C576.103 339.317 576.295 340.853 576.295 342.56C576.295 344.437 576.231 346.336 576.103 348.256C575.975 350.133 575.889 351.989 575.847 353.824C575.847 355.659 575.911 357.451 576.039 359.2C576.167 360.907 576.487 362.528 576.999 364.064H570.215L568.871 359.648H568.551C567.697 360.971 566.503 362.123 564.967 363.104C563.473 364.043 561.532 364.512 559.143 364.512C557.649 364.512 556.305 364.299 555.111 363.872C553.916 363.403 552.892 362.763 552.039 361.952C551.185 361.099 550.524 360.117 550.055 359.008C549.585 357.856 549.351 356.576 549.351 355.168C549.351 353.205 549.777 351.563 550.631 350.24C551.527 348.875 552.785 347.787 554.407 346.976C556.071 346.123 558.033 345.547 560.295 345.248C562.599 344.907 565.159 344.8 567.975 344.928C568.273 342.539 568.103 340.832 567.463 339.808C566.823 338.741 565.393 338.208 563.175 338.208C561.511 338.208 559.74 338.379 557.863 338.72C556.028 339.061 554.513 339.509 553.319 340.064L551.335 333.856ZM561.895 357.664C563.559 357.664 564.881 357.301 565.863 356.576C566.844 355.808 567.569 354.997 568.039 354.144V349.984C566.716 349.856 565.436 349.835 564.199 349.92C563.004 350.005 561.937 350.197 560.999 350.496C560.06 350.795 559.313 351.221 558.759 351.776C558.204 352.331 557.927 353.035 557.927 353.888C557.927 355.083 558.268 356.021 558.951 356.704C559.676 357.344 560.657 357.664 561.895 357.664ZM604.141 364V345.824C604.141 343.221 603.757 341.344 602.989 340.192C602.263 339.04 601.005 338.464 599.213 338.464C597.634 338.464 596.29 338.933 595.181 339.872C594.114 340.768 593.346 341.899 592.877 343.264V364H584.557V332H591.149L592.109 336.224H592.365C593.346 334.859 594.647 333.664 596.269 332.64C597.89 331.616 599.981 331.104 602.541 331.104C604.119 331.104 605.527 331.317 606.765 331.744C608.002 332.171 609.047 332.875 609.901 333.856C610.754 334.837 611.394 336.181 611.821 337.888C612.247 339.552 612.461 341.621 612.461 344.096V364H604.141ZM631.272 350.752H629.032V364H620.712V319.2H629.032V345.632L630.952 344.736L638.248 332H647.4L639.72 344.16L636.456 346.592L639.976 349.088L648.616 364H639.08L631.272 350.752ZM654.197 332H662.517V364H654.197V332ZM652.981 322.976C652.981 321.739 653.429 320.693 654.325 319.84C655.264 318.944 656.544 318.496 658.165 318.496C659.787 318.496 661.088 318.944 662.069 319.84C663.093 320.693 663.605 321.739 663.605 322.976C663.605 324.213 663.093 325.259 662.069 326.112C661.088 326.923 659.787 327.328 658.165 327.328C656.544 327.328 655.264 326.923 654.325 326.112C653.429 325.259 652.981 324.213 652.981 322.976ZM691.481 364V345.824C691.481 343.221 691.097 341.344 690.329 340.192C689.603 339.04 688.345 338.464 686.553 338.464C684.974 338.464 683.63 338.933 682.521 339.872C681.454 340.768 680.686 341.899 680.217 343.264V364H671.897V332H678.489L679.449 336.224H679.705C680.686 334.859 681.987 333.664 683.609 332.64C685.23 331.616 687.321 331.104 689.881 331.104C691.459 331.104 692.867 331.317 694.105 331.744C695.342 332.171 696.387 332.875 697.241 333.856C698.094 334.837 698.734 336.181 699.161 337.888C699.587 339.552 699.801 341.621 699.801 344.096V364H691.481ZM735.124 364C735.124 368.651 733.865 372.064 731.348 374.24C728.83 376.459 725.31 377.568 720.788 377.568C717.716 377.568 715.284 377.355 713.492 376.928C711.742 376.501 710.42 376.053 709.524 375.584L711.252 368.992C712.233 369.376 713.364 369.76 714.644 370.144C715.966 370.528 717.588 370.72 719.508 370.72C722.409 370.72 724.372 370.08 725.396 368.8C726.462 367.563 726.996 365.813 726.996 363.552V361.504H726.74C725.246 363.509 722.601 364.512 718.804 364.512C714.665 364.512 711.572 363.232 709.524 360.672C707.518 358.112 706.516 354.101 706.516 348.64C706.516 342.923 707.881 338.592 710.612 335.648C713.342 332.704 717.31 331.232 722.516 331.232C725.246 331.232 727.678 331.424 729.812 331.808C731.988 332.192 733.758 332.64 735.124 333.152V364ZM721.044 357.856C722.665 357.856 723.902 357.493 724.756 356.768C725.652 356.043 726.334 354.955 726.804 353.504V339.104C725.481 338.549 723.838 338.272 721.876 338.272C719.742 338.272 718.078 339.083 716.884 340.704C715.689 342.283 715.092 344.821 715.092 348.32C715.092 351.435 715.604 353.803 716.628 355.424C717.652 357.045 719.124 357.856 721.044 357.856ZM759.747 332H764.739V330.208C764.739 328.245 764.888 326.539 765.187 325.088C765.528 323.637 766.061 322.464 766.787 321.568C767.512 320.629 768.451 319.947 769.603 319.52C770.755 319.051 772.184 318.816 773.891 318.816C775.256 318.816 776.451 318.901 777.475 319.072C778.541 319.243 779.651 319.563 780.803 320.032L779.651 324.32C778.669 323.893 777.731 323.616 776.835 323.488C775.981 323.36 775.171 323.296 774.403 323.296C773.293 323.296 772.419 323.467 771.779 323.808C771.181 324.149 770.733 324.661 770.435 325.344C770.179 325.984 770.008 326.795 769.923 327.776C769.88 328.715 769.859 329.824 769.859 331.104V332H778.371V336.48H769.859V364H764.739V336.48H759.747V332ZM782.505 348C782.505 342.581 783.699 338.443 786.089 335.584C788.521 332.683 791.998 331.232 796.521 331.232C798.91 331.232 800.979 331.637 802.729 332.448C804.521 333.216 805.993 334.347 807.145 335.84C808.297 337.291 809.15 339.061 809.705 341.152C810.259 343.2 810.537 345.483 810.537 348C810.537 353.419 809.321 357.579 806.889 360.48C804.499 363.339 801.043 364.768 796.521 364.768C794.131 364.768 792.041 364.384 790.249 363.616C788.499 362.805 787.049 361.675 785.897 360.224C784.745 358.731 783.891 356.96 783.337 354.912C782.782 352.821 782.505 350.517 782.505 348ZM787.817 348C787.817 349.621 787.966 351.179 788.265 352.672C788.606 354.165 789.118 355.467 789.801 356.576C790.483 357.685 791.379 358.581 792.489 359.264C793.598 359.947 794.942 360.288 796.521 360.288C802.323 360.331 805.225 356.235 805.225 348C805.225 346.336 805.054 344.757 804.713 343.264C804.414 341.771 803.923 340.469 803.241 339.36C802.558 338.251 801.662 337.376 800.553 336.736C799.443 336.053 798.099 335.712 796.521 335.712C790.718 335.669 787.817 339.765 787.817 348ZM834.993 336.928C833.713 336.501 832.497 336.288 831.345 336.288C829.511 336.288 828.06 336.8 826.993 337.824C825.927 338.805 825.265 340.064 825.009 341.6V364H819.889V332H823.473L824.433 335.904H824.689C825.5 334.453 826.46 333.344 827.569 332.576C828.721 331.765 830.172 331.36 831.921 331.36C833.159 331.36 834.545 331.573 836.081 332L834.993 336.928ZM875.982 340.64H892.686V360.608C890.894 362.101 888.739 363.189 886.222 363.872C883.747 364.555 881.294 364.896 878.862 364.896C876.003 364.896 873.336 364.448 870.862 363.552C868.43 362.656 866.318 361.269 864.526 359.392C862.734 357.472 861.326 355.04 860.302 352.096C859.278 349.152 858.766 345.653 858.766 341.6C858.766 337.376 859.363 333.792 860.558 330.848C861.795 327.861 863.395 325.451 865.358 323.616C867.363 321.739 869.603 320.395 872.078 319.584C874.552 318.731 877.07 318.304 879.63 318.304C882.19 318.304 884.43 318.496 886.35 318.88C888.312 319.264 889.87 319.669 891.022 320.096L889.23 327.456C888.163 327.029 886.968 326.709 885.646 326.496C884.323 326.24 882.638 326.112 880.59 326.112C878.755 326.112 877.07 326.389 875.534 326.944C873.998 327.499 872.654 328.416 871.502 329.696C870.392 330.933 869.518 332.533 868.878 334.496C868.28 336.459 867.982 338.848 867.982 341.664C867.982 344.352 868.28 346.677 868.878 348.64C869.475 350.56 870.307 352.16 871.374 353.44C872.44 354.677 873.678 355.595 875.086 356.192C876.536 356.789 878.072 357.088 879.694 357.088C880.803 357.088 881.891 356.96 882.958 356.704C884.024 356.405 884.92 355.979 885.646 355.424V346.976L875.982 345.952V340.64ZM898.726 348C898.726 342.581 900.048 338.421 902.694 335.52C905.339 332.576 909.051 331.104 913.83 331.104C916.39 331.104 918.608 331.509 920.486 332.32C922.363 333.131 923.92 334.283 925.158 335.776C926.395 337.227 927.312 338.997 927.91 341.088C928.55 343.179 928.87 345.483 928.87 348C928.87 353.419 927.547 357.6 924.902 360.544C922.299 363.445 918.608 364.896 913.83 364.896C911.27 364.896 909.051 364.491 907.174 363.68C905.296 362.869 903.718 361.739 902.438 360.288C901.2 358.795 900.262 357.003 899.622 354.912C899.024 352.821 898.726 350.517 898.726 348ZM907.302 348C907.302 349.408 907.43 350.709 907.686 351.904C907.942 353.099 908.326 354.144 908.838 355.04C909.35 355.936 910.011 356.64 910.822 357.152C911.675 357.621 912.678 357.856 913.83 357.856C916.006 357.856 917.627 357.067 918.694 355.488C919.76 353.909 920.294 351.413 920.294 348C920.294 345.056 919.803 342.688 918.822 340.896C917.84 339.061 916.176 338.144 913.83 338.144C911.782 338.144 910.182 338.912 909.03 340.448C907.878 341.984 907.302 344.501 907.302 348ZM934.381 348C934.381 342.581 935.703 338.421 938.349 335.52C940.994 332.576 944.706 331.104 949.485 331.104C952.045 331.104 954.263 331.509 956.141 332.32C958.018 333.131 959.575 334.283 960.813 335.776C962.05 337.227 962.967 338.997 963.565 341.088C964.205 343.179 964.525 345.483 964.525 348C964.525 353.419 963.202 357.6 960.557 360.544C957.954 363.445 954.263 364.896 949.485 364.896C946.925 364.896 944.706 364.491 942.829 363.68C940.951 362.869 939.373 361.739 938.093 360.288C936.855 358.795 935.917 357.003 935.277 354.912C934.679 352.821 934.381 350.517 934.381 348ZM942.957 348C942.957 349.408 943.085 350.709 943.341 351.904C943.597 353.099 943.981 354.144 944.493 355.04C945.005 355.936 945.666 356.64 946.477 357.152C947.33 357.621 948.333 357.856 949.485 357.856C951.661 357.856 953.282 357.067 954.349 355.488C955.415 353.909 955.949 351.413 955.949 348C955.949 345.056 955.458 342.688 954.477 340.896C953.495 339.061 951.831 338.144 949.485 338.144C947.437 338.144 945.837 338.912 944.685 340.448C943.533 341.984 942.957 344.501 942.957 348ZM998.772 352.736C998.772 354.528 998.793 356.32 998.836 358.112C998.878 359.904 999.07 361.888 999.412 364.064H993.46L992.308 359.904H992.052C991.198 361.397 989.961 362.613 988.34 363.552C986.761 364.448 984.884 364.896 982.708 364.896C978.697 364.896 975.582 363.573 973.364 360.928C971.145 358.283 970.036 354.144 970.036 348.512C970.036 343.051 971.273 338.805 973.748 335.776C976.222 332.747 979.849 331.232 984.628 331.232C985.95 331.232 987.038 331.317 987.892 331.488C988.745 331.616 989.598 331.851 990.452 332.192V319.2H998.772V352.736ZM984.628 357.856C986.249 357.856 987.529 357.472 988.468 356.704C989.406 355.893 990.068 354.741 990.452 353.248V339.68C989.854 339.211 989.193 338.869 988.468 338.656C987.742 338.4 986.804 338.272 985.652 338.272C983.305 338.272 981.534 339.061 980.34 340.64C979.188 342.219 978.612 344.928 978.612 348.768C978.612 351.499 979.081 353.696 980.02 355.36C981.001 357.024 982.537 357.856 984.628 357.856Z" fill="#000C13"/>
<rect x="6" y="6" width="1268" height="708" stroke="white" stroke-width="12"/>
<defs>
<clipPath id="clip0">
<rect width="180" height="64.5882" fill="white" transform="translate(550 438)"/>
</clipPath>
</defs>
</svg>
