<svg width="768" height="768" viewBox="0 0 768 768" fill="none" xmlns="http://www.w3.org/2000/svg">
<g clip-path="url(#clip0_15635_7)">
<rect width="768" height="768" fill="#555626" fill-opacity="0.85"/>
<path d="M85.76 316C84.7467 316 83.7067 316.053 82.64 316.16C81.5733 316.267 80.5867 316.373 79.68 316.48C78.7733 316.587 78.0267 316.693 77.44 316.8C76.9067 316.907 76.64 316.96 76.64 316.96L77.12 313.28C79.6267 312.8 81.28 312.107 82.08 311.2C82.9333 310.24 83.36 308.64 83.36 306.4L83.44 272.8C83.44 271.093 83.2533 269.947 82.88 269.36C82.5067 268.773 81.7067 268.48 80.48 268.48C80 268.48 79.4133 268.507 78.72 268.56C78.08 268.613 77.76 268.64 77.76 268.64L77.6 268.32L78.16 264.8C78.16 264.8 78.4533 264.827 79.04 264.88C79.68 264.88 80.48 264.907 81.44 264.96C82.4 264.96 83.3867 264.987 84.4 265.04C85.4133 265.04 86.2933 265.04 87.04 265.04C87.6267 265.04 88.32 265.04 89.12 265.04C89.92 264.987 90.7467 264.96 91.6 264.96C92.4533 264.907 93.2533 264.88 94 264.88C94.7467 264.827 95.3333 264.8 95.76 264.8C96.24 264.747 96.48 264.72 96.48 264.72C101.547 264.72 105.44 265.76 108.16 267.84C110.88 269.92 112.24 272.933 112.24 276.88C112.24 279.493 111.44 281.893 109.84 284.08C108.24 286.213 105.947 287.92 102.96 289.2C105.573 289.733 107.787 290.587 109.6 291.76C111.467 292.933 112.88 294.347 113.84 296C114.853 297.6 115.36 299.387 115.36 301.36C115.36 304.133 114.48 306.693 112.72 309.04C111.013 311.387 108.72 313.28 105.84 314.72C103.013 316.107 99.92 316.8 96.56 316.8C95.7067 316.8 94.8267 316.747 93.92 316.64C93.0667 316.587 92.2133 316.507 91.36 316.4C90.5067 316.293 89.6 316.187 88.64 316.08C87.7333 316.027 86.7733 316 85.76 316ZM89.36 292.16L89.04 307.12C89.04 309.147 89.7333 310.587 91.12 311.44C92.5067 312.293 94.8533 312.72 98.16 312.72C101.36 312.72 103.867 311.84 105.68 310.08C107.547 308.267 108.48 305.84 108.48 302.8C108.48 296.88 104.88 293.28 97.68 292L89.36 292.16ZM89.52 287.92C89.52 287.92 89.8933 287.947 90.64 288C91.44 288.053 92.3733 288.133 93.44 288.24C94.5067 288.347 95.4933 288.427 96.4 288.48C97.3067 288.533 97.92 288.56 98.24 288.56C98.24 288.56 98.6133 288.427 99.36 288.16C100.107 287.84 100.987 287.333 102 286.64C103.013 285.893 103.893 284.853 104.64 283.52C105.387 282.133 105.76 280.373 105.76 278.24C105.76 274.773 104.613 272.24 102.32 270.64C100.027 268.987 96.48 268.16 91.68 268.16C91.1467 268.16 90.7733 268.293 90.56 268.56C90.4 268.773 90.2933 269.253 90.24 270C90.1333 271.707 90.0267 273.547 89.92 275.52C89.8667 277.44 89.7867 279.44 89.68 281.52C89.6267 283.547 89.5733 285.68 89.52 287.92ZM127.734 288.24C127.734 286.853 127.494 285.787 127.014 285.04C126.534 284.293 125.788 283.92 124.774 283.92C124.348 283.92 123.894 283.973 123.414 284.08C122.988 284.187 122.774 284.24 122.774 284.24L123.094 281.28C124.321 281.067 125.601 280.827 126.934 280.56C128.268 280.293 129.494 280.027 130.614 279.76C131.788 279.493 132.721 279.28 133.414 279.12C134.161 278.96 134.534 278.88 134.534 278.88L135.014 279.84C134.748 280.533 134.481 281.733 134.214 283.44C134.001 285.093 133.788 287.04 133.574 289.28C133.361 291.52 133.201 293.893 133.094 296.4C132.988 298.853 132.934 301.253 132.934 303.6C132.934 308.827 135.068 311.44 139.334 311.44C141.201 311.44 142.934 310.933 144.534 309.92C146.188 308.853 147.681 307.84 149.014 306.88V288.32C149.014 286.72 148.721 285.6 148.134 284.96C147.548 284.32 146.508 284 145.014 284C144.801 284 144.428 284.027 143.894 284.08C143.361 284.08 143.094 284.08 143.094 284.08L143.414 281.2C144.854 280.987 146.294 280.747 147.734 280.48C149.174 280.213 150.481 279.973 151.654 279.76C152.881 279.493 153.868 279.28 154.614 279.12C155.361 278.96 155.734 278.88 155.734 278.88L156.214 279.84C155.894 280.64 155.601 282.427 155.334 285.2C155.068 287.973 154.854 291.333 154.694 295.28C154.534 299.227 154.454 303.333 154.454 307.6C154.454 308.773 154.748 309.68 155.334 310.32C155.921 310.96 156.721 311.28 157.734 311.28C158.588 311.28 159.361 311.12 160.054 310.8C160.801 310.427 161.388 310.08 161.814 309.76C162.294 309.44 162.534 309.28 162.534 309.28L163.654 310.56C163.654 310.56 163.414 310.88 162.934 311.52C162.508 312.16 161.921 312.907 161.174 313.76C160.481 314.613 159.734 315.36 158.934 316C158.134 316.64 157.388 316.96 156.694 316.96C152.374 316.96 150.001 314.8 149.574 310.48L149.174 310.32C146.614 312.293 144.294 313.893 142.214 315.12C140.188 316.347 138.801 316.96 138.054 316.96C134.641 316.96 132.001 316.16 130.134 314.56C128.321 312.96 127.414 310.667 127.414 307.68L127.734 288.24ZM168.136 316.96L168.456 313.68C170.056 313.253 171.202 312.64 171.896 311.84C172.589 310.987 172.936 309.867 172.936 308.48V288.16C172.936 286.667 172.696 285.573 172.216 284.88C171.736 284.187 170.989 283.84 169.976 283.84C169.549 283.84 169.096 283.893 168.616 284C168.189 284.107 167.976 284.16 167.976 284.16L168.296 281.2C169.629 280.987 170.962 280.747 172.296 280.48C173.682 280.213 174.936 279.973 176.056 279.76C177.176 279.493 178.082 279.28 178.776 279.12C179.469 278.96 179.816 278.88 179.816 278.88L180.216 279.84C180.002 280.373 179.762 281.573 179.496 283.44C179.282 285.253 179.096 287.493 178.936 290.16C178.776 292.773 178.642 295.653 178.536 298.8C178.429 301.893 178.376 305.013 178.376 308.16C178.376 309.707 178.589 310.853 179.016 311.6C179.442 312.293 180.162 312.64 181.176 312.64C181.656 312.64 182.242 312.613 182.936 312.56C183.629 312.507 183.976 312.48 183.976 312.48L184.136 312.8L183.496 316.24C183.496 316.24 183.256 316.213 182.776 316.16C182.349 316.16 181.762 316.133 181.016 316.08C180.322 316.08 179.549 316.053 178.696 316C177.896 316 177.122 316 176.376 316C175.256 316 174.056 316.08 172.776 316.24C171.496 316.4 170.402 316.56 169.496 316.72C168.589 316.88 168.136 316.96 168.136 316.96ZM175.176 269.44C173.842 269.44 172.856 269.013 172.216 268.16C171.576 267.307 171.256 266.373 171.256 265.36C171.256 264.08 171.709 262.987 172.616 262.08C173.522 261.12 174.642 260.64 175.976 260.64C177.256 260.64 178.216 261.067 178.856 261.92C179.549 262.72 179.896 263.653 179.896 264.72C179.896 266 179.442 267.12 178.536 268.08C177.682 268.987 176.562 269.44 175.176 269.44ZM190.154 316.96L190.474 313.68C192.02 313.253 193.087 312.72 193.674 312.08C194.314 311.387 194.687 310.48 194.794 309.36C194.9 308.24 194.954 306.853 194.954 305.2V265.92C194.954 264.587 194.82 263.627 194.554 263.04C194.34 262.4 193.887 262 193.194 261.84C192.554 261.68 191.567 261.68 190.234 261.84L189.994 261.68L190.314 258.96C192.287 258.693 194.26 258.373 196.234 258C198.207 257.627 200.18 257.173 202.154 256.64L202.634 257.68C202.42 258.053 202.207 259.28 201.994 261.36C201.78 263.387 201.567 266.08 201.354 269.44C201.194 272.747 201.034 276.507 200.874 280.72C200.714 284.933 200.58 289.387 200.474 294.08C200.42 298.773 200.394 303.467 200.394 308.16C200.394 309.76 200.607 310.907 201.034 311.6C201.46 312.293 202.18 312.64 203.194 312.64L205.994 312.48L206.154 312.8L205.514 316.24C204.66 316.187 203.514 316.133 202.074 316.08C200.687 316.027 199.46 316 198.394 316C197.434 316 196.207 316.08 194.714 316.24C193.274 316.453 191.754 316.693 190.154 316.96ZM244.325 316.96C240.165 316.96 237.792 315.067 237.205 311.28L236.645 311.04C233.872 312.907 231.658 314.32 230.005 315.28C228.352 316.24 227.232 316.72 226.645 316.72C223.605 316.72 220.912 316.027 218.565 314.64C216.272 313.2 214.458 311.227 213.125 308.72C211.845 306.16 211.205 303.2 211.205 299.84C211.205 296 212.085 292.507 213.845 289.36C215.658 286.16 218.085 283.627 221.125 281.76C224.165 279.84 227.498 278.88 231.125 278.88C231.872 278.88 232.698 278.907 233.605 278.96C234.512 279.013 235.525 279.093 236.645 279.2V265.92C236.645 264.427 236.405 263.333 235.925 262.64C235.445 261.947 234.698 261.6 233.685 261.6C233.258 261.6 232.805 261.653 232.325 261.76C231.898 261.867 231.685 261.92 231.685 261.92L232.005 258.96C233.392 258.8 234.778 258.587 236.165 258.32C237.552 258.053 238.832 257.787 240.005 257.52C241.178 257.253 242.112 257.04 242.805 256.88C243.498 256.72 243.845 256.64 243.845 256.64L244.325 257.68C244.112 258.053 243.898 259.253 243.685 261.28C243.472 263.307 243.258 265.973 243.045 269.28C242.885 272.587 242.725 276.32 242.565 280.48C242.405 284.587 242.272 288.96 242.165 293.6C242.112 298.24 242.085 302.907 242.085 307.6C242.085 308.773 242.378 309.68 242.965 310.32C243.552 310.96 244.352 311.28 245.365 311.28C246.218 311.28 246.992 311.12 247.685 310.8C248.432 310.427 249.018 310.08 249.445 309.76C249.925 309.44 250.165 309.28 250.165 309.28L251.285 310.56C251.285 310.56 251.098 310.827 250.725 311.36C250.352 311.893 249.845 312.56 249.205 313.36C248.565 314.107 247.818 314.827 246.965 315.52C246.165 316.213 245.285 316.693 244.325 316.96ZM227.925 311.52C228.885 311.52 229.872 311.307 230.885 310.88C231.898 310.453 232.832 309.973 233.685 309.44C234.592 308.853 235.312 308.347 235.845 307.92C236.378 307.493 236.645 307.28 236.645 307.28V285.36C236.645 285.36 235.952 285.067 234.565 284.48C233.178 283.84 231.285 283.52 228.885 283.52C225.312 283.52 222.485 284.747 220.405 287.2C218.378 289.6 217.365 292.907 217.365 297.12C217.365 299.787 217.818 302.213 218.725 304.4C219.685 306.587 220.965 308.32 222.565 309.6C224.165 310.88 225.952 311.52 227.925 311.52ZM255.614 316.96L255.934 313.68C257.534 313.253 258.68 312.64 259.374 311.84C260.067 310.987 260.414 309.867 260.414 308.48V288.16C260.414 286.667 260.174 285.573 259.694 284.88C259.214 284.187 258.467 283.84 257.454 283.84C257.027 283.84 256.574 283.893 256.094 284C255.667 284.107 255.454 284.16 255.454 284.16L255.774 281.2C257.107 280.987 258.44 280.747 259.774 280.48C261.16 280.213 262.414 279.973 263.534 279.76C264.654 279.493 265.56 279.28 266.254 279.12C266.947 278.96 267.294 278.88 267.294 278.88L267.694 279.84C267.48 280.373 267.24 281.573 266.974 283.44C266.76 285.253 266.574 287.493 266.414 290.16C266.254 292.773 266.12 295.653 266.014 298.8C265.907 301.893 265.854 305.013 265.854 308.16C265.854 309.707 266.067 310.853 266.494 311.6C266.92 312.293 267.64 312.64 268.654 312.64C269.134 312.64 269.72 312.613 270.414 312.56C271.107 312.507 271.454 312.48 271.454 312.48L271.614 312.8L270.974 316.24C270.974 316.24 270.734 316.213 270.254 316.16C269.827 316.16 269.24 316.133 268.494 316.08C267.8 316.08 267.027 316.053 266.174 316C265.374 316 264.6 316 263.854 316C262.734 316 261.534 316.08 260.254 316.24C258.974 316.4 257.88 316.56 256.974 316.72C256.067 316.88 255.614 316.96 255.614 316.96ZM262.654 269.44C261.32 269.44 260.334 269.013 259.694 268.16C259.054 267.307 258.734 266.373 258.734 265.36C258.734 264.08 259.187 262.987 260.094 262.08C261 261.12 262.12 260.64 263.454 260.64C264.734 260.64 265.694 261.067 266.334 261.92C267.027 262.72 267.374 263.653 267.374 264.72C267.374 266 266.92 267.12 266.014 268.08C265.16 268.987 264.04 269.44 262.654 269.44ZM301.632 313.68C303.232 313.253 304.379 312.64 305.072 311.84C305.765 310.987 306.112 309.867 306.112 308.48L306.432 292.64C306.432 289.973 305.845 287.92 304.672 286.48C303.552 285.04 301.925 284.32 299.792 284.32C298.512 284.32 297.205 284.587 295.872 285.12C294.539 285.653 293.339 286.24 292.272 286.88C291.259 287.52 290.485 288.053 289.952 288.48C289.899 289.867 289.819 291.52 289.712 293.44C289.659 295.307 289.579 297.227 289.472 299.2C289.419 301.173 289.365 302.96 289.312 304.56C289.259 306.16 289.232 307.36 289.232 308.16C289.232 309.813 289.445 310.987 289.872 311.68C290.352 312.32 291.099 312.64 292.112 312.64C292.592 312.64 293.179 312.613 293.872 312.56C294.565 312.507 294.912 312.48 294.912 312.48L295.072 312.8L294.352 316.24C294.352 316.24 293.952 316.213 293.152 316.16C292.352 316.107 291.392 316.053 290.272 316C289.152 316 288.085 316 287.072 316C285.952 316 284.779 316.027 283.552 316.08C282.325 316.187 281.285 316.267 280.432 316.32C279.579 316.427 279.152 316.48 279.152 316.48L279.552 313.2C281.099 312.933 282.192 312.453 282.832 311.76C283.472 311.067 283.792 309.973 283.792 308.48V288.96C283.792 287.147 283.499 285.893 282.912 285.2C282.325 284.453 281.312 284.08 279.872 284.08H278.992L278.752 283.76L278.992 281.12C280.859 280.8 282.645 280.48 284.352 280.16C286.059 279.787 287.445 279.467 288.512 279.2C289.632 278.933 290.192 278.8 290.192 278.8L290.672 279.44C290.672 279.44 290.539 279.973 290.272 281.04C290.059 282.107 289.899 283.333 289.792 284.72L289.952 284.96C290.432 284.64 291.179 284.16 292.192 283.52C293.259 282.827 294.379 282.133 295.552 281.44C296.779 280.747 297.952 280.16 299.072 279.68C300.192 279.147 301.072 278.88 301.712 278.88C305.072 278.88 307.739 279.813 309.712 281.68C311.685 283.547 312.672 286.053 312.672 289.2C312.672 289.893 312.619 291.04 312.512 292.64C312.405 294.24 312.272 296.027 312.112 298C311.952 299.973 311.819 301.867 311.712 303.68C311.605 305.493 311.552 306.987 311.552 308.16C311.552 309.707 311.765 310.853 312.192 311.6C312.619 312.293 313.339 312.64 314.352 312.64C314.832 312.64 315.419 312.613 316.112 312.56C316.805 312.507 317.152 312.48 317.152 312.48L317.312 312.8L316.672 316.24C316.672 316.24 316.432 316.213 315.952 316.16C315.525 316.16 314.939 316.133 314.192 316.08C313.499 316.08 312.725 316.053 311.872 316C311.072 316 310.299 316 309.552 316C308.699 316 307.792 316.053 306.832 316.16C305.925 316.267 305.045 316.373 304.192 316.48C303.339 316.587 302.645 316.693 302.112 316.8C301.579 316.907 301.312 316.96 301.312 316.96L301.632 313.68ZM337.14 335.36C334.633 335.36 332.473 334.933 330.66 334.08C328.847 333.227 327.433 332 326.42 330.4C325.46 328.8 324.98 326.907 324.98 324.72C325.727 323.813 326.793 322.693 328.18 321.36C329.62 320.08 331.193 318.8 332.9 317.52V317.04C330.127 316.56 327.993 315.653 326.5 314.32C325.06 312.987 324.287 311.28 324.18 309.2C325.14 308.293 326.18 307.413 327.3 306.56C328.42 305.653 329.62 304.827 330.9 304.08V302.96L335.06 304.32C333.407 305.173 332.207 305.947 331.46 306.64C330.767 307.28 330.42 307.947 330.42 308.64C330.42 309.707 331.06 310.507 332.34 311.04C333.62 311.52 335.247 311.893 337.22 312.16C339.247 312.373 341.38 312.613 343.62 312.88C345.913 313.147 348.047 313.573 350.02 314.16C352.047 314.693 353.7 315.493 354.98 316.56C356.26 317.68 356.9 319.227 356.9 321.2C356.9 322.96 356.34 324.693 355.22 326.4C354.153 328.107 352.66 329.627 350.74 330.96C348.873 332.293 346.767 333.36 344.42 334.16C342.073 334.96 339.647 335.36 337.14 335.36ZM339.86 331.44C341.94 331.44 343.887 331.067 345.7 330.32C347.513 329.627 348.98 328.667 350.1 327.44C351.22 326.213 351.78 324.907 351.78 323.52C351.78 322.453 351.38 321.6 350.58 320.96C349.78 320.32 348.26 319.733 346.02 319.2C343.833 318.72 340.607 318.213 336.34 317.68C334.74 318.8 333.513 320.027 332.66 321.36C331.807 322.747 331.38 324.107 331.38 325.44C331.38 327.253 332.153 328.693 333.7 329.76C335.247 330.88 337.3 331.44 339.86 331.44ZM340.18 302.08C342.633 302.08 344.553 301.307 345.94 299.76C347.38 298.213 348.1 296.08 348.1 293.36C348.1 290.267 347.247 287.76 345.54 285.84C343.833 283.92 341.62 282.96 338.9 282.96C336.447 282.96 334.5 283.76 333.06 285.36C331.673 286.96 330.98 289.12 330.98 291.84C330.98 294.88 331.833 297.36 333.54 299.28C335.247 301.147 337.46 302.08 340.18 302.08ZM338.34 305.6C335.727 305.6 333.407 305.093 331.38 304.08C329.407 303.013 327.833 301.573 326.66 299.76C325.54 297.893 324.98 295.787 324.98 293.44C324.98 290.773 325.647 288.347 326.98 286.16C328.367 283.973 330.18 282.213 332.42 280.88C334.713 279.547 337.193 278.88 339.86 278.88C341.353 278.88 342.767 279.04 344.1 279.36C345.487 279.627 346.687 279.76 347.7 279.76C348.767 279.653 350.26 279.387 352.18 278.96C354.153 278.533 356.34 278 358.74 277.36L358.98 277.68L358.1 282.16C356.927 282.32 355.7 282.453 354.42 282.56C353.14 282.667 352.073 282.773 351.22 282.88L350.9 283.28C353.033 285.627 354.1 288.347 354.1 291.44C354.1 294.053 353.38 296.427 351.94 298.56C350.553 300.693 348.66 302.4 346.26 303.68C343.913 304.96 341.273 305.6 338.34 305.6ZM386.358 316.48L386.998 311.28C389.398 311.067 391.158 310.747 392.278 310.32C393.398 309.893 394.118 309.12 394.438 308C394.811 306.827 394.998 305.093 394.998 302.8V270.72C392.811 270.827 391.078 270.987 389.798 271.2C388.518 271.413 387.531 271.867 386.838 272.56C386.198 273.253 385.718 274.293 385.398 275.68C385.078 277.013 384.811 278.853 384.598 281.2L378.038 281.68C378.198 279.867 378.331 277.947 378.438 275.92C378.598 273.84 378.704 271.813 378.758 269.84C378.864 267.867 378.944 266.133 378.998 264.64L379.878 263.76L387.798 264.64H412.758L420.838 263.76L421.718 264.64C421.771 266.4 421.824 268.32 421.878 270.4C421.931 272.427 422.011 274.373 422.118 276.24C422.278 278.107 422.411 279.76 422.518 281.2L415.958 281.68C415.691 279.173 415.398 277.2 415.078 275.76C414.758 274.32 414.278 273.28 413.638 272.64C413.051 271.947 412.144 271.493 410.918 271.28C409.744 271.013 408.144 270.827 406.118 270.72C405.958 272.587 405.824 274.907 405.718 277.68C405.611 280.4 405.531 283.36 405.478 286.56C405.424 289.707 405.344 292.907 405.238 296.16C405.184 299.413 405.158 302.453 405.158 305.28C405.158 307.307 405.504 308.747 406.198 309.6C406.891 310.4 408.011 310.8 409.558 310.8C410.891 310.8 412.304 310.72 413.798 310.56L414.118 310.96L413.398 316.32C412.011 316.267 410.438 316.213 408.678 316.16C406.918 316.107 405.211 316.053 403.558 316C401.904 316 400.598 316 399.638 316C398.731 316 397.504 316 395.958 316C394.464 316.053 392.864 316.107 391.158 316.16C389.504 316.267 387.904 316.373 386.358 316.48ZM426.333 311.44C427.933 311.333 428.999 310.907 429.533 310.16C430.119 309.413 430.413 308 430.413 305.92V290C430.413 288.187 430.173 286.96 429.693 286.32C429.213 285.627 428.306 285.28 426.973 285.28C426.653 285.28 426.306 285.307 425.933 285.36C425.613 285.36 425.452 285.36 425.452 285.36L425.053 284.8L425.533 280.8C427.826 280.427 430.066 280.027 432.253 279.6C434.439 279.173 436.253 278.827 437.693 278.56C439.186 278.24 439.933 278.08 439.933 278.08L440.653 278.8C440.653 278.8 440.573 279.2 440.413 280C440.306 280.747 440.199 281.707 440.093 282.88C439.986 284 439.906 285.147 439.853 286.32L440.333 286.64C442.039 284.133 443.879 282.187 445.853 280.8C447.826 279.413 449.719 278.72 451.533 278.72C452.386 278.72 453.053 278.773 453.533 278.88C454.066 278.933 454.333 278.96 454.333 278.96L454.653 279.6C454.653 279.6 454.573 280.053 454.413 280.96C454.306 281.813 454.146 282.96 453.933 284.4C453.773 285.84 453.586 287.413 453.373 289.12C453.213 290.827 453.106 292.48 453.053 294.08L447.933 294.4C447.933 291.84 447.773 290.16 447.453 289.36C447.186 288.507 446.599 288.08 445.693 288.08C444.839 288.08 443.933 288.4 442.973 289.04C442.013 289.68 441.106 290.56 440.253 291.68C440.253 291.68 440.226 292.16 440.173 293.12C440.119 294.027 440.039 295.2 439.933 296.64C439.879 298.08 439.826 299.547 439.773 301.04C439.719 302.533 439.666 303.84 439.613 304.96C439.559 306.08 439.533 306.8 439.533 307.12C439.533 308.507 439.746 309.467 440.173 310C440.653 310.533 441.479 310.8 442.653 310.8C443.399 310.8 444.253 310.773 445.213 310.72C446.173 310.613 446.653 310.56 446.653 310.56L446.893 311.04L446.013 316.32C446.013 316.32 445.666 316.293 444.973 316.24C444.279 316.187 443.373 316.133 442.253 316.08C441.186 316.08 440.066 316.053 438.893 316C437.719 316 436.653 316 435.693 316C434.093 316 432.519 316.027 430.973 316.08C429.426 316.133 428.146 316.187 427.133 316.24C426.173 316.293 425.693 316.32 425.693 316.32L426.333 311.44ZM462.503 289.04C462.503 287.707 462.29 286.72 461.863 286.08C461.436 285.44 460.743 285.12 459.783 285.12C459.303 285.12 458.85 285.173 458.423 285.28C457.996 285.333 457.783 285.36 457.783 285.36L458.263 280.72C459.916 280.507 461.57 280.267 463.223 280C464.93 279.68 466.503 279.387 467.943 279.12C469.383 278.8 470.53 278.56 471.383 278.4C472.29 278.24 472.743 278.16 472.743 278.16L473.463 279.44C473.143 280.133 472.85 281.253 472.583 282.8C472.37 284.347 472.156 286.187 471.943 288.32C471.73 290.4 471.57 292.64 471.463 295.04C471.356 297.387 471.303 299.76 471.303 302.16C471.303 306.48 472.983 308.64 476.343 308.64C477.57 308.64 478.77 308.32 479.943 307.68C481.17 306.987 482.29 306.293 483.303 305.6V289.12C483.303 287.573 483.063 286.56 482.583 286.08C482.156 285.547 481.25 285.253 479.863 285.2C479.65 285.2 479.356 285.227 478.983 285.28C478.663 285.28 478.476 285.28 478.423 285.28L479.063 280.72C480.823 280.507 482.556 280.267 484.263 280C486.023 279.68 487.623 279.413 489.063 279.2C490.503 278.933 491.676 278.72 492.583 278.56C493.49 278.4 493.943 278.32 493.943 278.32L494.663 279.6C494.29 280.4 493.943 282.107 493.623 284.72C493.303 287.28 493.036 290.373 492.823 294C492.61 297.627 492.503 301.467 492.503 305.52C492.503 306.533 492.743 307.333 493.223 307.92C493.756 308.507 494.476 308.8 495.383 308.8C496.023 308.8 496.636 308.693 497.223 308.48C497.81 308.213 498.29 307.973 498.663 307.76C499.036 307.547 499.223 307.44 499.223 307.44L500.423 309.04C500.423 309.04 500.183 309.413 499.703 310.16C499.223 310.853 498.556 311.707 497.703 312.72C496.903 313.68 496.023 314.587 495.063 315.44C494.103 316.24 493.143 316.747 492.183 316.96C487.276 316.96 484.556 314.907 484.023 310.8L483.383 310.48C481.303 312.4 479.436 313.947 477.783 315.12C476.183 316.293 475.063 316.88 474.423 316.88C470.37 316.88 467.276 316.027 465.143 314.32C463.01 312.613 461.943 310.133 461.943 306.88L462.503 289.04ZM514.575 316.96C512.442 316.96 510.575 316.773 508.975 316.4C507.375 316.027 506.122 315.68 505.215 315.36C504.362 314.987 503.935 314.8 503.935 314.8L503.455 314C503.562 313.253 503.668 312.24 503.775 310.96C503.935 309.68 504.068 308.373 504.175 307.04C504.335 305.653 504.442 304.453 504.495 303.44L508.895 303.04C508.948 305.76 509.562 307.787 510.735 309.12C511.908 310.453 513.668 311.12 516.015 311.12C517.562 311.12 518.842 310.8 519.855 310.16C520.868 309.467 521.375 308.613 521.375 307.6C521.375 306.853 521.135 306.187 520.655 305.6C520.228 305.013 519.428 304.373 518.255 303.68C517.135 302.933 515.508 302.053 513.375 301.04C510.175 299.547 507.855 297.973 506.415 296.32C504.975 294.613 504.255 292.64 504.255 290.4C504.255 287.947 504.948 285.813 506.335 284C507.722 282.187 509.668 280.773 512.175 279.76C514.682 278.693 517.535 278.16 520.735 278.16C523.348 278.16 525.482 278.4 527.135 278.88C528.842 279.36 529.695 279.6 529.695 279.6L530.095 280.4C530.095 280.4 529.988 280.907 529.775 281.92C529.615 282.88 529.402 284.16 529.135 285.76C528.922 287.307 528.735 288.96 528.575 290.72L524.095 291.04C524.095 291.04 524.095 290.853 524.095 290.48C524.148 290.107 524.175 289.813 524.175 289.6C524.175 287.733 523.722 286.373 522.815 285.52C521.908 284.613 520.495 284.16 518.575 284.16C517.135 284.16 515.935 284.507 514.975 285.2C514.068 285.84 513.615 286.667 513.615 287.68C513.615 288.693 514.042 289.627 514.895 290.48C515.802 291.333 517.215 292.24 519.135 293.2C522.228 294.64 524.628 295.973 526.335 297.2C528.042 298.373 529.215 299.573 529.855 300.8C530.548 302.027 530.895 303.44 530.895 305.04C530.895 307.227 530.175 309.253 528.735 311.12C527.295 312.933 525.322 314.373 522.815 315.44C520.362 316.453 517.615 316.96 514.575 316.96ZM550.911 316.96C547.125 316.96 544.351 316.16 542.591 314.56C540.831 312.96 539.951 310.48 539.951 307.12V289.28C539.951 287.627 539.658 286.507 539.071 285.92C538.485 285.333 537.338 285.013 535.631 284.96L534.831 284.4L535.391 280.48C537.098 279.68 538.751 278.8 540.351 277.84C541.951 276.827 543.365 275.893 544.591 275.04C545.871 274.133 546.885 273.413 547.631 272.88C548.378 272.293 548.751 272 548.751 272L550.991 273.12C550.991 273.12 550.885 273.733 550.671 274.96C550.511 276.133 550.325 277.813 550.111 280L559.551 279.76L559.871 280.16L559.071 285.52L549.631 285.28C549.471 287.573 549.338 290.187 549.231 293.12C549.178 296 549.151 299.2 549.151 302.72C549.151 305.013 549.551 306.667 550.351 307.68C551.151 308.693 552.458 309.2 554.271 309.2C555.445 309.2 556.538 309.013 557.551 308.64C558.565 308.267 559.071 308.08 559.071 308.08L560.111 310.64C560.111 310.64 559.738 310.96 558.991 311.6C558.298 312.24 557.418 312.987 556.351 313.84C555.338 314.64 554.325 315.36 553.311 316C552.298 316.64 551.498 316.96 550.911 316.96ZM75.52 425.96L75.84 422.68C77.44 422.253 78.5867 421.64 79.28 420.84C79.9733 419.987 80.32 418.867 80.32 417.48V397.16C80.32 395.667 80.08 394.573 79.6 393.88C79.12 393.187 78.3733 392.84 77.36 392.84C76.9333 392.84 76.48 392.893 76 393C75.5733 393.107 75.36 393.16 75.36 393.16L75.68 390.2C77.0133 389.987 78.3467 389.747 79.68 389.48C81.0667 389.213 82.32 388.973 83.44 388.76C84.56 388.493 85.4667 388.28 86.16 388.12C86.8533 387.96 87.2 387.88 87.2 387.88L87.6 388.84C87.3867 389.373 87.1467 390.573 86.88 392.44C86.6667 394.253 86.48 396.493 86.32 399.16C86.16 401.773 86.0267 404.653 85.92 407.8C85.8133 410.893 85.76 414.013 85.76 417.16C85.76 418.707 85.9733 419.853 86.4 420.6C86.8267 421.293 87.5467 421.64 88.56 421.64C89.04 421.64 89.6267 421.613 90.32 421.56C91.0133 421.507 91.36 421.48 91.36 421.48L91.52 421.8L90.88 425.24C90.88 425.24 90.64 425.213 90.16 425.16C89.7333 425.16 89.1467 425.133 88.4 425.08C87.7067 425.08 86.9333 425.053 86.08 425C85.28 425 84.5067 425 83.76 425C82.64 425 81.44 425.08 80.16 425.24C78.88 425.4 77.7867 425.56 76.88 425.72C75.9733 425.88 75.52 425.96 75.52 425.96ZM82.56 378.44C81.2267 378.44 80.24 378.013 79.6 377.16C78.96 376.307 78.64 375.373 78.64 374.36C78.64 373.08 79.0933 371.987 80 371.08C80.9067 370.12 82.0267 369.64 83.36 369.64C84.64 369.64 85.6 370.067 86.24 370.92C86.9333 371.72 87.28 372.653 87.28 373.72C87.28 375 86.8267 376.12 85.92 377.08C85.0667 377.987 83.9467 378.44 82.56 378.44ZM121.538 422.68C123.138 422.253 124.285 421.64 124.978 420.84C125.671 419.987 126.018 418.867 126.018 417.48L126.338 401.64C126.338 398.973 125.751 396.92 124.578 395.48C123.458 394.04 121.831 393.32 119.698 393.32C118.418 393.32 117.111 393.587 115.778 394.12C114.445 394.653 113.245 395.24 112.178 395.88C111.165 396.52 110.391 397.053 109.858 397.48C109.805 398.867 109.725 400.52 109.618 402.44C109.565 404.307 109.485 406.227 109.378 408.2C109.325 410.173 109.271 411.96 109.218 413.56C109.165 415.16 109.138 416.36 109.138 417.16C109.138 418.813 109.351 419.987 109.778 420.68C110.258 421.32 111.005 421.64 112.018 421.64C112.498 421.64 113.085 421.613 113.778 421.56C114.471 421.507 114.818 421.48 114.818 421.48L114.978 421.8L114.258 425.24C114.258 425.24 113.858 425.213 113.058 425.16C112.258 425.107 111.298 425.053 110.178 425C109.058 425 107.991 425 106.978 425C105.858 425 104.685 425.027 103.458 425.08C102.231 425.187 101.191 425.267 100.338 425.32C99.4848 425.427 99.0581 425.48 99.0581 425.48L99.4581 422.2C101.005 421.933 102.098 421.453 102.738 420.76C103.378 420.067 103.698 418.973 103.698 417.48V397.96C103.698 396.147 103.405 394.893 102.818 394.2C102.231 393.453 101.218 393.08 99.7781 393.08H98.8981L98.6581 392.76L98.8981 390.12C100.765 389.8 102.551 389.48 104.258 389.16C105.965 388.787 107.351 388.467 108.418 388.2C109.538 387.933 110.098 387.8 110.098 387.8L110.578 388.44C110.578 388.44 110.445 388.973 110.178 390.04C109.965 391.107 109.805 392.333 109.698 393.72L109.858 393.96C110.338 393.64 111.085 393.16 112.098 392.52C113.165 391.827 114.285 391.133 115.458 390.44C116.685 389.747 117.858 389.16 118.978 388.68C120.098 388.147 120.978 387.88 121.618 387.88C124.978 387.88 127.645 388.813 129.618 390.68C131.591 392.547 132.578 395.053 132.578 398.2C132.578 398.893 132.525 400.04 132.418 401.64C132.311 403.24 132.178 405.027 132.018 407C131.858 408.973 131.725 410.867 131.618 412.68C131.511 414.493 131.458 415.987 131.458 417.16C131.458 418.707 131.671 419.853 132.098 420.6C132.525 421.293 133.245 421.64 134.258 421.64C134.738 421.64 135.325 421.613 136.018 421.56C136.711 421.507 137.058 421.48 137.058 421.48L137.218 421.8L136.578 425.24C136.578 425.24 136.338 425.213 135.858 425.16C135.431 425.16 134.845 425.133 134.098 425.08C133.405 425.08 132.631 425.053 131.778 425C130.978 425 130.205 425 129.458 425C128.605 425 127.698 425.053 126.738 425.16C125.831 425.267 124.951 425.373 124.098 425.48C123.245 425.587 122.551 425.693 122.018 425.8C121.485 425.907 121.218 425.96 121.218 425.96L121.538 422.68ZM159.786 425.72L160.346 420.6C162.639 420.173 164.159 419.507 164.906 418.6C165.706 417.693 166.106 416.12 166.106 413.88V382.92C166.106 381.267 165.919 380.173 165.546 379.64C165.172 379.053 164.399 378.76 163.226 378.76C162.906 378.76 162.506 378.787 162.026 378.84C161.546 378.84 161.146 378.84 160.826 378.84L160.426 378.2L160.986 373.56C162.319 373.56 163.946 373.587 165.866 373.64C167.786 373.64 169.332 373.64 170.506 373.64C171.626 373.64 173.252 373.587 175.386 373.48C177.519 373.373 179.866 373.24 182.426 373.08L181.946 378.36C180.612 378.573 179.599 378.84 178.906 379.16C178.266 379.48 177.839 380.04 177.626 380.84C177.412 381.587 177.252 382.68 177.146 384.12L176.666 395.64L187.146 395.8C188.799 395.8 190.319 395.773 191.706 395.72C193.092 395.613 194.746 395.453 196.666 395.24V382.92C196.666 381.267 196.479 380.173 196.106 379.64C195.732 379.053 194.959 378.76 193.786 378.76C193.466 378.76 193.066 378.787 192.586 378.84C192.106 378.84 191.679 378.84 191.306 378.84L190.906 378.2L191.546 373.56C192.079 373.56 192.959 373.587 194.186 373.64C195.466 373.64 196.799 373.64 198.186 373.64C199.572 373.64 200.719 373.64 201.626 373.64C202.692 373.64 204.239 373.587 206.266 373.48C208.346 373.373 210.666 373.24 213.226 373.08L212.826 378.28C210.852 378.547 209.546 378.973 208.906 379.56C208.319 380.147 207.972 381.187 207.866 382.68C207.706 385.08 207.572 387.693 207.466 390.52C207.359 393.293 207.252 396.12 207.146 399C207.039 401.827 206.959 404.547 206.906 407.16C206.906 409.773 206.906 412.093 206.906 414.12C206.906 416.36 207.119 417.88 207.546 418.68C208.026 419.48 208.906 419.88 210.186 419.88C210.719 419.88 211.279 419.853 211.866 419.8C212.452 419.747 212.906 419.693 213.226 419.64L213.546 420.2L212.826 425.24C211.332 425.187 209.439 425.133 207.146 425.08C204.906 425.027 202.959 425 201.306 425C200.559 425 199.519 425 198.186 425C196.852 425.053 195.466 425.08 194.026 425.08C192.639 425.08 191.386 425.107 190.266 425.16L190.906 420.04C192.452 419.987 193.626 419.747 194.426 419.32C195.226 418.893 195.786 418.147 196.106 417.08C196.479 416.013 196.666 414.52 196.666 412.6V402.28C195.812 402.28 194.826 402.28 193.706 402.28C192.639 402.227 191.572 402.2 190.506 402.2C189.439 402.2 188.559 402.2 187.866 402.2C187.386 402.2 186.532 402.227 185.306 402.28C184.132 402.333 182.746 402.44 181.146 402.6C179.599 402.707 178.052 402.84 176.506 403L176.266 414.44C176.266 416.627 176.479 418.093 176.906 418.84C177.332 419.587 178.159 419.96 179.386 419.96C179.866 419.96 180.372 419.933 180.906 419.88C181.492 419.827 181.972 419.773 182.346 419.72L182.746 420.2L182.026 425.24C181.386 425.187 180.452 425.133 179.226 425.08C177.999 425.08 176.746 425.053 175.466 425C174.239 425 173.226 425 172.426 425C171.146 425 169.679 425.027 168.026 425.08C166.372 425.187 164.799 425.267 163.306 425.32C161.812 425.427 160.639 425.56 159.786 425.72ZM222.528 398.04C222.528 396.707 222.315 395.72 221.888 395.08C221.461 394.44 220.768 394.12 219.808 394.12C219.328 394.12 218.875 394.173 218.448 394.28C218.021 394.333 217.808 394.36 217.808 394.36L218.288 389.72C219.941 389.507 221.595 389.267 223.248 389C224.955 388.68 226.528 388.387 227.968 388.12C229.408 387.8 230.555 387.56 231.408 387.4C232.315 387.24 232.768 387.16 232.768 387.16L233.488 388.44C233.168 389.133 232.875 390.253 232.608 391.8C232.395 393.347 232.181 395.187 231.968 397.32C231.755 399.4 231.595 401.64 231.488 404.04C231.381 406.387 231.328 408.76 231.328 411.16C231.328 415.48 233.008 417.64 236.368 417.64C237.595 417.64 238.795 417.32 239.968 416.68C241.195 415.987 242.315 415.293 243.328 414.6V398.12C243.328 396.573 243.088 395.56 242.608 395.08C242.181 394.547 241.275 394.253 239.888 394.2C239.675 394.2 239.381 394.227 239.008 394.28C238.688 394.28 238.501 394.28 238.448 394.28L239.088 389.72C240.848 389.507 242.581 389.267 244.288 389C246.048 388.68 247.648 388.413 249.088 388.2C250.528 387.933 251.701 387.72 252.608 387.56C253.515 387.4 253.968 387.32 253.968 387.32L254.688 388.6C254.315 389.4 253.968 391.107 253.648 393.72C253.328 396.28 253.061 399.373 252.848 403C252.635 406.627 252.528 410.467 252.528 414.52C252.528 415.533 252.768 416.333 253.248 416.92C253.781 417.507 254.501 417.8 255.408 417.8C256.048 417.8 256.661 417.693 257.248 417.48C257.835 417.213 258.315 416.973 258.688 416.76C259.061 416.547 259.248 416.44 259.248 416.44L260.448 418.04C260.448 418.04 260.208 418.413 259.728 419.16C259.248 419.853 258.581 420.707 257.728 421.72C256.928 422.68 256.048 423.587 255.088 424.44C254.128 425.24 253.168 425.747 252.208 425.96C247.301 425.96 244.581 423.907 244.048 419.8L243.408 419.48C241.328 421.4 239.461 422.947 237.808 424.12C236.208 425.293 235.088 425.88 234.448 425.88C230.395 425.88 227.301 425.027 225.168 423.32C223.035 421.613 221.968 419.133 221.968 415.88L222.528 398.04ZM286.52 420.68C287.8 420.413 288.707 419.933 289.24 419.24C289.827 418.493 290.147 417.48 290.2 416.2L290.44 402.36C290.44 400.013 290.013 398.28 289.16 397.16C288.307 395.987 287 395.4 285.24 395.4C284.387 395.4 283.48 395.587 282.52 395.96C281.613 396.333 280.76 396.76 279.96 397.24C279.213 397.72 278.627 398.12 278.2 398.44C278.093 399.88 277.987 401.507 277.88 403.32C277.827 405.133 277.747 406.947 277.64 408.76C277.587 410.52 277.533 412.093 277.48 413.48C277.427 414.867 277.4 415.853 277.4 416.44C277.4 417.827 277.587 418.787 277.96 419.32C278.333 419.8 278.947 420.04 279.8 420.04C280.173 420.04 280.627 420.04 281.16 420.04C281.693 419.987 281.96 419.96 281.96 419.96L282.12 420.28L281.32 425.24C281.32 425.24 280.84 425.213 279.88 425.16C278.92 425.107 277.773 425.053 276.44 425C275.16 425 273.987 425 272.92 425C271.533 425 270.093 425 268.6 425C267.16 425.053 265.933 425.107 264.92 425.16C263.907 425.213 263.4 425.24 263.4 425.24L264.12 420.36C265.667 420.2 266.733 419.827 267.32 419.24C267.96 418.6 268.28 417.533 268.28 416.04V399.08C268.28 397.267 267.987 396.013 267.4 395.32C266.867 394.627 265.853 394.28 264.36 394.28H263.32L263 393.88L263.4 389.72C265.853 389.347 268.173 388.973 270.36 388.6C272.6 388.173 274.44 387.827 275.88 387.56C277.373 387.24 278.12 387.08 278.12 387.08L278.76 387.88C278.76 387.88 278.627 388.467 278.36 389.64C278.147 390.76 277.987 392.013 277.88 393.4L278.12 393.64C278.76 393.107 279.56 392.493 280.52 391.8C281.533 391.053 282.547 390.333 283.56 389.64C284.627 388.893 285.613 388.307 286.52 387.88C287.427 387.4 288.12 387.16 288.6 387.16C291.587 387.16 294.04 387.72 295.96 388.84C297.88 389.96 299.187 391.613 299.88 393.8C300.467 393.32 301.24 392.707 302.2 391.96C303.16 391.213 304.173 390.493 305.24 389.8C306.307 389.053 307.32 388.44 308.28 387.96C309.24 387.427 309.987 387.16 310.52 387.16C314.36 387.16 317.32 388.093 319.4 389.96C321.533 391.773 322.6 394.28 322.6 397.48C322.6 398.28 322.52 399.507 322.36 401.16C322.2 402.813 322.013 404.627 321.8 406.6C321.64 408.573 321.48 410.44 321.32 412.2C321.16 413.96 321.08 415.347 321.08 416.36C321.08 417.8 321.267 418.813 321.64 419.4C322.067 419.933 322.733 420.2 323.64 420.2C324.12 420.2 324.653 420.173 325.24 420.12C325.827 420.067 326.12 420.04 326.12 420.04L326.28 420.36L325.48 425.24C325.48 425.24 325.16 425.213 324.52 425.16C323.933 425.16 323.187 425.133 322.28 425.08C321.373 425.08 320.413 425.053 319.4 425C318.44 425 317.56 425 316.76 425C316.013 425 315.133 425.027 314.12 425.08C313.16 425.133 312.227 425.16 311.32 425.16C310.413 425.213 309.64 425.267 309 425.32C308.413 425.373 308.12 425.4 308.12 425.4L308.68 420.44C309.907 420.227 310.787 419.827 311.32 419.24C311.853 418.6 312.12 417.587 312.12 416.2L312.36 402.36C312.413 400.013 312.013 398.28 311.16 397.16C310.307 395.987 308.973 395.4 307.16 395.4C306.307 395.4 305.427 395.56 304.52 395.88C303.667 396.2 302.867 396.6 302.12 397.08C301.373 397.56 300.76 397.987 300.28 398.36L299.24 416.36C299.24 417.693 299.427 418.68 299.8 419.32C300.173 419.907 300.813 420.2 301.72 420.2C302.147 420.2 302.627 420.173 303.16 420.12C303.693 420.067 303.96 420.04 303.96 420.04L304.12 420.36L303.32 425.24C303.32 425.24 303.027 425.213 302.44 425.16C301.853 425.16 301.107 425.133 300.2 425.08C299.347 425.08 298.44 425.053 297.48 425C296.52 425 295.667 425 294.92 425C294.12 425 293.213 425.027 292.2 425.08C291.24 425.187 290.28 425.267 289.32 425.32C288.36 425.373 287.56 425.427 286.92 425.48C286.28 425.587 285.96 425.64 285.96 425.64L286.52 420.68ZM359.391 425.96C357.045 425.96 355.178 425.427 353.791 424.36C352.458 423.293 351.658 421.773 351.391 419.8L350.751 419.56C349.738 420.627 348.671 421.64 347.551 422.6C346.431 423.507 345.391 424.253 344.431 424.84C343.471 425.373 342.645 425.64 341.951 425.64C339.871 425.64 338.005 425.133 336.351 424.12C334.698 423.107 333.391 421.72 332.431 419.96C331.471 418.2 330.991 416.227 330.991 414.04C330.991 412.387 331.418 410.973 332.271 409.8C333.178 408.573 334.298 407.773 335.631 407.4L351.071 403.8L351.151 401.88C351.151 399.587 350.538 397.8 349.311 396.52C348.138 395.24 346.458 394.6 344.271 394.6C342.778 394.6 341.178 394.973 339.471 395.72C337.765 396.413 336.245 397.293 334.911 398.36L334.191 398.04L332.831 393.24C334.378 392.333 336.111 391.427 338.031 390.52C339.951 389.56 341.765 388.76 343.471 388.12C345.231 387.48 346.565 387.16 347.471 387.16C350.565 387.16 353.098 387.64 355.071 388.6C357.045 389.56 358.485 390.867 359.391 392.52C360.298 394.12 360.751 395.96 360.751 398.04C360.751 398.733 360.671 399.8 360.511 401.24C360.351 402.68 360.165 404.253 359.951 405.96C359.738 407.667 359.551 409.293 359.391 410.84C359.231 412.387 359.151 413.613 359.151 414.52C359.151 415.533 359.391 416.333 359.871 416.92C360.405 417.507 361.125 417.8 362.031 417.8C362.725 417.8 363.418 417.64 364.111 417.32C364.858 417 365.445 416.707 365.871 416.44L367.071 418.12C366.538 419.027 365.845 420.067 364.991 421.24C364.138 422.36 363.231 423.373 362.271 424.28C361.311 425.133 360.351 425.693 359.391 425.96ZM344.911 418.04C345.711 418.04 346.645 417.827 347.711 417.4C348.831 416.92 349.818 416.36 350.671 415.72L350.911 408.12L342.351 410.52C341.071 410.893 340.431 411.773 340.431 413.16C340.431 414.547 340.831 415.72 341.631 416.68C342.485 417.587 343.578 418.04 344.911 418.04ZM393.823 420.68C395.156 420.413 396.09 419.933 396.623 419.24C397.21 418.493 397.53 417.48 397.583 416.2L397.823 402.36C397.823 400.013 397.396 398.28 396.543 397.16C395.69 395.987 394.383 395.4 392.623 395.4C391.77 395.4 390.863 395.587 389.903 395.96C388.996 396.28 388.17 396.68 387.423 397.16C386.676 397.64 386.063 398.067 385.583 398.44C385.53 399.88 385.45 401.507 385.343 403.32C385.236 405.133 385.13 406.947 385.023 408.76C384.97 410.52 384.916 412.093 384.863 413.48C384.81 414.867 384.783 415.853 384.783 416.44C384.783 417.827 384.97 418.787 385.343 419.32C385.716 419.8 386.33 420.04 387.183 420.04C387.556 420.04 388.01 420.04 388.543 420.04C389.076 419.987 389.343 419.96 389.343 419.96L389.503 420.28L388.703 425.24C388.703 425.24 388.223 425.213 387.263 425.16C386.303 425.107 385.156 425.053 383.823 425C382.543 425 381.37 425 380.303 425C378.916 425 377.476 425.027 375.983 425.08C374.543 425.187 373.316 425.267 372.303 425.32C371.343 425.427 370.863 425.48 370.863 425.48L371.503 420.52C373.05 420.307 374.116 419.88 374.703 419.24C375.343 418.6 375.663 417.533 375.663 416.04V399.08C375.663 397.267 375.37 396.013 374.783 395.32C374.25 394.627 373.236 394.28 371.743 394.28H370.703L370.383 393.88L370.783 389.72C373.236 389.347 375.583 388.973 377.823 388.6C380.063 388.173 381.903 387.827 383.343 387.56C384.783 387.24 385.503 387.08 385.503 387.08L386.143 387.88C386.143 387.88 386.01 388.467 385.743 389.64C385.53 390.76 385.37 392.013 385.263 393.4L385.583 393.72C386.223 393.187 386.996 392.547 387.903 391.8C388.863 391.053 389.85 390.333 390.863 389.64C391.93 388.947 392.916 388.36 393.823 387.88C394.73 387.4 395.45 387.16 395.983 387.16C399.77 387.16 402.703 388.067 404.783 389.88C406.916 391.693 407.983 394.227 407.983 397.48C407.983 398.28 407.903 399.507 407.743 401.16C407.583 402.813 407.396 404.627 407.183 406.6C407.023 408.573 406.863 410.44 406.703 412.2C406.596 413.96 406.543 415.347 406.543 416.36C406.543 417.693 406.73 418.68 407.103 419.32C407.476 419.907 408.116 420.2 409.023 420.2C409.503 420.2 410.036 420.173 410.623 420.12C411.21 420.067 411.503 420.04 411.503 420.04L411.663 420.36L410.943 425.24C410.943 425.24 410.623 425.213 409.983 425.16C409.396 425.16 408.65 425.133 407.743 425.08C406.836 425.08 405.903 425.053 404.943 425C403.983 425 403.103 425 402.303 425C401.503 425 400.596 425.027 399.583 425.08C398.623 425.187 397.663 425.267 396.703 425.32C395.743 425.373 394.943 425.427 394.303 425.48C393.716 425.587 393.423 425.64 393.423 425.64L393.823 420.68ZM418.825 409.4L418.025 408.44L418.665 402.28L431.785 400.84C433.972 400.573 435.492 400.387 436.345 400.28C437.198 400.12 437.625 400.04 437.625 400.04L438.425 401.08L437.705 407.32L418.825 409.4ZM459.743 425.96C455.956 425.96 453.183 425.16 451.423 423.56C449.663 421.96 448.783 419.48 448.783 416.12V398.28C448.783 396.627 448.489 395.507 447.903 394.92C447.316 394.333 446.169 394.013 444.463 393.96L443.663 393.4L444.223 389.48C445.929 388.68 447.583 387.8 449.183 386.84C450.783 385.827 452.196 384.893 453.423 384.04C454.703 383.133 455.716 382.413 456.463 381.88C457.209 381.293 457.583 381 457.583 381L459.823 382.12C459.823 382.12 459.716 382.733 459.503 383.96C459.343 385.133 459.156 386.813 458.943 389L468.383 388.76L468.703 389.16L467.903 394.52L458.463 394.28C458.303 396.573 458.169 399.187 458.063 402.12C458.009 405 457.983 408.2 457.983 411.72C457.983 414.013 458.383 415.667 459.183 416.68C459.983 417.693 461.289 418.2 463.103 418.2C464.276 418.2 465.369 418.013 466.383 417.64C467.396 417.267 467.903 417.08 467.903 417.08L468.943 419.64C468.943 419.64 468.569 419.96 467.823 420.6C467.129 421.24 466.249 421.987 465.183 422.84C464.169 423.64 463.156 424.36 462.143 425C461.129 425.64 460.329 425.96 459.743 425.96ZM490.065 425.96C486.652 425.96 483.692 425.213 481.185 423.72C478.678 422.227 476.705 420.093 475.265 417.32C473.878 414.547 473.185 411.32 473.185 407.64C473.185 403.587 473.985 400.04 475.585 397C477.238 393.907 479.505 391.507 482.385 389.8C485.318 388.04 488.678 387.16 492.465 387.16C495.932 387.16 498.918 387.907 501.425 389.4C503.932 390.893 505.852 393 507.185 395.72C508.572 398.44 509.265 401.667 509.265 405.4C509.265 409.453 508.465 413.027 506.865 416.12C505.265 419.213 502.998 421.64 500.065 423.4C497.185 425.107 493.852 425.96 490.065 425.96ZM491.665 419.96C493.958 419.96 495.692 419.053 496.865 417.24C498.092 415.373 498.705 412.653 498.705 409.08C498.705 405.72 498.385 402.92 497.745 400.68C497.105 398.387 496.172 396.68 494.945 395.56C493.772 394.44 492.332 393.88 490.625 393.88C488.332 393.88 486.572 394.787 485.345 396.6C484.172 398.413 483.585 401.133 483.585 404.76C483.585 408.12 483.905 410.947 484.545 413.24C485.185 415.48 486.092 417.16 487.265 418.28C488.492 419.4 489.958 419.96 491.665 419.96ZM517.475 409.4L516.675 408.44L517.315 402.28L530.435 400.84C532.622 400.573 534.142 400.387 534.995 400.28C535.848 400.12 536.275 400.04 536.275 400.04L537.075 401.08L536.355 407.32L517.475 409.4ZM565.199 425.64L564.799 425L565.199 420.28C566.959 420.12 568.265 419.96 569.119 419.8C569.972 419.587 570.559 419.293 570.879 418.92C571.199 418.547 571.359 418.04 571.359 417.4C571.359 417.027 571.332 416.627 571.279 416.2C571.225 415.72 571.119 415.187 570.959 414.6L569.279 408.44C568.265 408.387 567.012 408.36 565.519 408.36C564.079 408.307 562.879 408.28 561.919 408.28C560.639 408.28 559.279 408.36 557.839 408.52C556.399 408.627 555.199 408.733 554.239 408.84L552.239 415C551.919 416.173 551.759 417 551.759 417.48C551.759 418.44 552.025 419.107 552.559 419.48C553.145 419.853 554.132 420.04 555.519 420.04H558.959L559.359 420.6L558.799 425.48C558.799 425.48 558.159 425.427 556.879 425.32C555.652 425.267 554.132 425.187 552.319 425.08C550.559 425.027 548.825 425 547.119 425C545.679 425 544.212 425 542.719 425C541.225 425.053 539.972 425.107 538.959 425.16C537.999 425.213 537.519 425.24 537.519 425.24L538.079 420.04C539.359 419.827 540.399 419.32 541.199 418.52C541.999 417.72 542.719 416.413 543.359 414.6L557.679 374.04L569.919 372.76L570.799 373.16C570.799 373.16 570.959 373.853 571.279 375.24C571.652 376.627 572.159 378.493 572.799 380.84C573.439 383.133 574.159 385.747 574.959 388.68C575.759 391.613 576.559 394.627 577.359 397.72C578.212 400.813 579.065 403.827 579.919 406.76C580.772 409.64 581.572 412.227 582.319 414.52C582.852 416.44 583.572 417.8 584.479 418.6C585.439 419.4 586.825 419.88 588.639 420.04L588.959 420.6L588.399 425.24C588.399 425.24 587.812 425.213 586.639 425.16C585.519 425.107 584.185 425.053 582.639 425C581.145 425 579.812 425 578.639 425C576.399 425 574.239 425.053 572.159 425.16C570.079 425.267 568.399 425.373 567.119 425.48C565.839 425.587 565.199 425.64 565.199 425.64ZM556.159 402.12H561.919C562.772 402.12 563.759 402.093 564.879 402.04C566.052 401.987 567.039 401.933 567.839 401.88L563.119 384.04H562.079L556.159 402.12ZM592.159 425.72L592.639 420.6C595.039 420.12 596.612 419.453 597.359 418.6C598.159 417.693 598.559 416.12 598.559 413.88V382.92C598.559 381.267 598.372 380.173 597.999 379.64C597.625 379.053 596.852 378.76 595.679 378.76C595.359 378.76 594.905 378.787 594.319 378.84C593.785 378.84 593.305 378.84 592.879 378.84L592.479 378.2L593.119 373.56C594.825 373.56 596.665 373.587 598.639 373.64C600.665 373.64 602.505 373.64 604.159 373.64C605.172 373.64 606.665 373.587 608.639 373.48C610.665 373.373 612.905 373.24 615.359 373.08L614.959 378.36C612.932 378.627 611.572 379.053 610.879 379.64C610.239 380.173 609.865 381.187 609.759 382.68C609.599 385.24 609.465 387.96 609.359 390.84C609.252 393.667 609.145 396.52 609.039 399.4C608.932 402.28 608.852 405.027 608.799 407.64C608.745 410.2 608.719 412.467 608.719 414.44C608.719 416.627 608.932 418.093 609.359 418.84C609.785 419.587 610.612 419.96 611.839 419.96C612.425 419.96 613.039 419.933 613.679 419.88C614.319 419.827 614.879 419.773 615.359 419.72L615.679 420.2L614.959 425.24C613.785 425.187 612.452 425.133 610.959 425.08C609.465 425.08 607.999 425.053 606.559 425C605.172 425 604.052 425 603.199 425C601.972 425 600.319 425.053 598.239 425.16C596.212 425.32 594.185 425.507 592.159 425.72ZM76.48 534.96L76.96 531.28C79.4667 530.8 81.1467 530.107 82 529.2C82.9067 528.24 83.36 526.64 83.36 524.4L83.44 490.8C83.44 489.093 83.2267 487.947 82.8 487.36C82.4267 486.773 81.6533 486.48 80.48 486.48C80.1067 486.48 79.5733 486.507 78.88 486.56C78.24 486.56 77.6533 486.587 77.12 486.64L76.96 486.32L77.52 482.8C78.9067 482.853 80.5333 482.907 82.4 482.96C84.32 483.013 85.8667 483.04 87.04 483.04C88.16 483.04 89.5733 482.987 91.28 482.88C93.04 482.72 94.6933 482.533 96.24 482.32L95.92 485.92C93.7333 486.187 92.24 486.64 91.44 487.28C90.6933 487.867 90.2667 488.933 90.16 490.48C90 493.413 89.84 496.533 89.68 499.84C89.5733 503.147 89.4667 506.427 89.36 509.68C89.2533 512.88 89.1733 515.84 89.12 518.56C89.0667 521.227 89.04 523.387 89.04 525.04C89.04 527.173 89.28 528.613 89.76 529.36C90.24 530.107 91.1733 530.48 92.56 530.48C93.3067 530.48 94.08 530.453 94.88 530.4C95.68 530.347 96.32 530.293 96.8 530.24L96.96 530.56L96.24 534.24C95.28 534.187 94.16 534.133 92.88 534.08C91.6 534.08 90.32 534.053 89.04 534C87.76 534 86.6667 534 85.76 534C84.5867 534 83.12 534.08 81.36 534.24C79.6533 534.453 78.0267 534.693 76.48 534.96ZM127.085 531.68C128.685 531.253 129.832 530.64 130.525 529.84C131.218 528.987 131.565 527.867 131.565 526.48L131.885 510.64C131.885 507.973 131.298 505.92 130.125 504.48C129.005 503.04 127.378 502.32 125.245 502.32C123.965 502.32 122.658 502.587 121.325 503.12C119.992 503.653 118.792 504.24 117.725 504.88C116.712 505.52 115.938 506.053 115.405 506.48C115.352 507.867 115.272 509.52 115.165 511.44C115.112 513.307 115.032 515.227 114.925 517.2C114.872 519.173 114.818 520.96 114.765 522.56C114.712 524.16 114.685 525.36 114.685 526.16C114.685 527.813 114.898 528.987 115.325 529.68C115.805 530.32 116.552 530.64 117.565 530.64C118.045 530.64 118.632 530.613 119.325 530.56C120.018 530.507 120.365 530.48 120.365 530.48L120.525 530.8L119.805 534.24C119.805 534.24 119.405 534.213 118.605 534.16C117.805 534.107 116.845 534.053 115.725 534C114.605 534 113.538 534 112.525 534C111.405 534 110.232 534.027 109.005 534.08C107.778 534.187 106.738 534.267 105.885 534.32C105.032 534.427 104.605 534.48 104.605 534.48L105.005 531.2C106.552 530.933 107.645 530.453 108.285 529.76C108.925 529.067 109.245 527.973 109.245 526.48V506.96C109.245 505.147 108.952 503.893 108.365 503.2C107.778 502.453 106.765 502.08 105.325 502.08H104.445L104.205 501.76L104.445 499.12C106.312 498.8 108.098 498.48 109.805 498.16C111.512 497.787 112.898 497.467 113.965 497.2C115.085 496.933 115.645 496.8 115.645 496.8L116.125 497.44C116.125 497.44 115.992 497.973 115.725 499.04C115.512 500.107 115.352 501.333 115.245 502.72L115.405 502.96C115.885 502.64 116.632 502.16 117.645 501.52C118.712 500.827 119.832 500.133 121.005 499.44C122.232 498.747 123.405 498.16 124.525 497.68C125.645 497.147 126.525 496.88 127.165 496.88C130.525 496.88 133.192 497.813 135.165 499.68C137.138 501.547 138.125 504.053 138.125 507.2C138.125 507.893 138.072 509.04 137.965 510.64C137.858 512.24 137.725 514.027 137.565 516C137.405 517.973 137.272 519.867 137.165 521.68C137.058 523.493 137.005 524.987 137.005 526.16C137.005 527.707 137.218 528.853 137.645 529.6C138.072 530.293 138.792 530.64 139.805 530.64C140.285 530.64 140.872 530.613 141.565 530.56C142.258 530.507 142.605 530.48 142.605 530.48L142.765 530.8L142.125 534.24C142.125 534.24 141.885 534.213 141.405 534.16C140.978 534.16 140.392 534.133 139.645 534.08C138.952 534.08 138.178 534.053 137.325 534C136.525 534 135.752 534 135.005 534C134.152 534 133.245 534.053 132.285 534.16C131.378 534.267 130.498 534.373 129.645 534.48C128.792 534.587 128.098 534.693 127.565 534.8C127.032 534.907 126.765 534.96 126.765 534.96L127.085 531.68ZM162.033 534.96C158.406 534.96 155.846 534.24 154.353 532.8C152.86 531.307 152.113 528.8 152.113 525.28V505.6C152.113 504.16 151.793 503.147 151.153 502.56C150.513 501.973 149.313 501.653 147.553 501.6L147.233 501.12L147.633 498.72C148.913 498.08 150.14 497.36 151.313 496.56C152.54 495.707 153.606 494.907 154.513 494.16C155.473 493.36 156.22 492.72 156.753 492.24C157.286 491.707 157.553 491.44 157.553 491.44L159.153 492.08C159.153 492.08 159.073 492.587 158.913 493.6C158.806 494.613 158.673 496.107 158.513 498.08L170.273 497.84L170.513 498.08L169.793 502.32L158.193 502.08C158.033 504.587 157.9 507.52 157.793 510.88C157.686 514.24 157.633 517.973 157.633 522.08C157.633 524.8 158.086 526.72 158.993 527.84C159.953 528.96 161.58 529.52 163.873 529.52C165.206 529.52 166.433 529.28 167.553 528.8C168.726 528.32 169.313 528.08 169.313 528.08L170.113 530.16C170.113 530.16 169.793 530.4 169.153 530.88C168.513 531.36 167.713 531.92 166.753 532.56C165.846 533.2 164.94 533.76 164.033 534.24C163.18 534.72 162.513 534.96 162.033 534.96ZM192.439 534.96C189.079 534.96 186.146 534.213 183.639 532.72C181.133 531.227 179.159 529.173 177.719 526.56C176.333 523.893 175.639 520.8 175.639 517.28C175.639 514.56 176.093 511.973 176.999 509.52C177.959 507.067 179.266 504.907 180.919 503.04C182.573 501.12 184.439 499.627 186.519 498.56C188.653 497.44 190.919 496.88 193.319 496.88C201.266 496.88 205.239 500.747 205.239 508.48C205.239 509.173 205.186 509.893 205.079 510.64C204.973 511.387 204.866 511.973 204.759 512.4L203.719 513.36H181.639C181.586 518.107 182.439 521.867 184.199 524.64C186.013 527.36 188.546 528.96 191.799 529.44C195.053 529.867 198.893 529.067 203.319 527.04L203.799 527.2L204.679 529.52C203.613 530.267 202.333 531.067 200.839 531.92C199.399 532.773 197.933 533.493 196.439 534.08C194.946 534.667 193.613 534.96 192.439 534.96ZM181.959 510.4L196.439 509.68C197.239 509.573 197.773 509.387 198.039 509.12C198.306 508.853 198.439 508.32 198.439 507.52C198.439 505.387 197.853 503.76 196.679 502.64C195.559 501.52 193.933 500.96 191.799 500.96C189.346 500.96 187.213 501.813 185.399 503.52C183.586 505.173 182.439 507.467 181.959 510.4ZM214.139 531.12C215.739 530.96 216.805 530.453 217.339 529.6C217.872 528.693 218.139 526.987 218.139 524.48V506.88C218.139 505.12 217.899 503.867 217.419 503.12C216.939 502.373 216.165 502 215.099 502C214.672 502 214.272 502.053 213.899 502.16C213.579 502.213 213.419 502.24 213.419 502.24L213.019 501.68L213.259 499.2C214.912 498.88 216.565 498.533 218.219 498.16C219.872 497.787 221.259 497.467 222.379 497.2C223.499 496.933 224.059 496.8 224.059 496.8L224.619 497.28C224.619 497.28 224.539 497.707 224.379 498.56C224.272 499.413 224.165 500.48 224.059 501.76C223.952 502.987 223.899 504.24 223.899 505.52L224.219 505.76C225.872 503.253 227.765 501.2 229.899 499.6C232.032 498 233.899 497.2 235.499 497.2C236.405 497.2 237.045 497.253 237.419 497.36C237.792 497.467 237.979 497.52 237.979 497.52L238.219 497.84C238.219 497.84 238.165 498.213 238.059 498.96C237.952 499.653 237.819 500.587 237.659 501.76C237.499 502.88 237.339 504.107 237.179 505.44C237.072 506.773 236.992 508.053 236.939 509.28L233.819 509.52C233.819 507.333 233.685 505.893 233.419 505.2C233.152 504.453 232.565 504.08 231.659 504.08C230.485 504.08 229.232 504.56 227.899 505.52C226.565 506.48 225.339 507.813 224.219 509.52C224.219 509.52 224.192 510.027 224.139 511.04C224.085 512 224.032 513.227 223.979 514.72C223.925 516.213 223.872 517.76 223.819 519.36C223.765 520.907 223.712 522.293 223.659 523.52C223.605 524.693 223.579 525.467 223.579 525.84C223.579 527.653 223.845 528.88 224.379 529.52C224.912 530.16 225.925 530.48 227.419 530.48C228.005 530.48 228.725 530.453 229.579 530.4C230.485 530.347 230.939 530.32 230.939 530.32L231.019 530.64L230.299 534.16C230.299 534.16 230.032 534.133 229.499 534.08C228.965 534.08 228.272 534.08 227.419 534.08C226.565 534.08 225.659 534.053 224.699 534C223.792 534 222.939 534 222.139 534C220.592 534 219.179 534.027 217.899 534.08C216.619 534.133 215.605 534.187 214.859 534.24C214.112 534.293 213.739 534.32 213.739 534.32L214.139 531.12ZM269.823 534.96C267.689 534.96 266.009 534.427 264.783 533.36C263.609 532.24 262.916 530.613 262.703 528.48L262.383 528.4C261.103 529.68 259.876 530.8 258.703 531.76C257.583 532.667 256.569 533.387 255.663 533.92C254.809 534.4 254.116 534.64 253.583 534.64C251.609 534.64 249.849 534.213 248.303 533.36C246.756 532.507 245.529 531.333 244.623 529.84C243.769 528.347 243.343 526.64 243.343 524.72C243.343 523.173 243.716 521.813 244.463 520.64C245.263 519.467 246.303 518.693 247.583 518.32L262.783 514.16L262.863 510.64C262.863 507.973 262.249 505.893 261.023 504.4C259.796 502.907 258.063 502.16 255.823 502.16C254.329 502.16 252.756 502.507 251.103 503.2C249.449 503.893 247.823 504.88 246.223 506.16L245.823 505.92L244.863 502.48C246.249 501.68 247.796 500.853 249.503 500C251.209 499.093 252.836 498.347 254.383 497.76C255.929 497.173 257.103 496.88 257.903 496.88C260.249 496.88 262.249 497.307 263.903 498.16C265.556 498.96 266.809 500.133 267.663 501.68C268.569 503.173 269.023 505.013 269.023 507.2C269.023 507.893 268.943 509.013 268.783 510.56C268.676 512.107 268.516 513.84 268.303 515.76C268.089 517.627 267.903 519.44 267.743 521.2C267.636 522.96 267.583 524.427 267.583 525.6C267.583 526.773 267.876 527.68 268.463 528.32C269.049 528.96 269.849 529.28 270.863 529.28C271.769 529.28 272.676 529.067 273.583 528.64C274.489 528.16 275.183 527.707 275.663 527.28L276.783 528.56C276.356 529.253 275.769 530.053 275.023 530.96C274.329 531.813 273.529 532.613 272.623 533.36C271.769 534.107 270.836 534.64 269.823 534.96ZM254.943 529.2C255.956 529.2 257.129 528.853 258.463 528.16C259.849 527.413 261.103 526.48 262.223 525.36L262.623 517.2L251.743 520.48C250.196 520.96 249.423 522.08 249.423 523.84C249.423 525.333 249.929 526.613 250.943 527.68C252.009 528.693 253.343 529.2 254.943 529.2ZM297.728 534.96C294.368 534.96 291.435 534.24 288.928 532.8C286.421 531.307 284.475 529.253 283.088 526.64C281.701 523.973 281.008 520.853 281.008 517.28C281.008 513.44 281.808 510 283.408 506.96C285.061 503.867 287.275 501.413 290.048 499.6C292.875 497.787 296.021 496.88 299.488 496.88C301.195 496.88 302.741 497.013 304.128 497.28C305.568 497.493 306.715 497.733 307.568 498C308.421 498.267 308.848 498.4 308.848 498.4L309.088 498.96C309.088 498.96 308.955 499.44 308.688 500.4C308.475 501.36 308.235 502.693 307.968 504.4C307.701 506.053 307.515 507.92 307.408 510L304.128 510.24V507.76C304.128 505.787 303.515 504.213 302.288 503.04C301.115 501.813 299.541 501.2 297.568 501.2C294.315 501.2 291.808 502.373 290.048 504.72C288.288 507.013 287.408 510.293 287.408 514.56C287.408 519.2 288.368 522.88 290.288 525.6C292.261 528.267 294.928 529.6 298.288 529.6C299.781 529.6 301.221 529.387 302.608 528.96C303.995 528.48 305.115 528.027 305.968 527.6C306.875 527.173 307.328 526.96 307.328 526.96L307.808 527.12L308.688 529.6C308.688 529.6 308.315 529.867 307.568 530.4C306.821 530.933 305.861 531.573 304.688 532.32C303.515 533.013 302.288 533.627 301.008 534.16C299.781 534.693 298.688 534.96 297.728 534.96ZM329.314 534.96C325.688 534.96 323.128 534.24 321.634 532.8C320.141 531.307 319.394 528.8 319.394 525.28V505.6C319.394 504.16 319.074 503.147 318.434 502.56C317.794 501.973 316.594 501.653 314.834 501.6L314.514 501.12L314.914 498.72C316.194 498.08 317.421 497.36 318.594 496.56C319.821 495.707 320.888 494.907 321.794 494.16C322.754 493.36 323.501 492.72 324.034 492.24C324.568 491.707 324.834 491.44 324.834 491.44L326.434 492.08C326.434 492.08 326.354 492.587 326.194 493.6C326.088 494.613 325.954 496.107 325.794 498.08L337.554 497.84L337.794 498.08L337.074 502.32L325.474 502.08C325.314 504.587 325.181 507.52 325.074 510.88C324.968 514.24 324.914 517.973 324.914 522.08C324.914 524.8 325.368 526.72 326.274 527.84C327.234 528.96 328.861 529.52 331.154 529.52C332.488 529.52 333.714 529.28 334.834 528.8C336.008 528.32 336.594 528.08 336.594 528.08L337.394 530.16C337.394 530.16 337.074 530.4 336.434 530.88C335.794 531.36 334.994 531.92 334.034 532.56C333.128 533.2 332.221 533.76 331.314 534.24C330.461 534.72 329.794 534.96 329.314 534.96ZM343.561 534.96L343.881 531.68C345.481 531.253 346.627 530.64 347.321 529.84C348.014 528.987 348.361 527.867 348.361 526.48V506.16C348.361 504.667 348.121 503.573 347.641 502.88C347.161 502.187 346.414 501.84 345.401 501.84C344.974 501.84 344.521 501.893 344.041 502C343.614 502.107 343.401 502.16 343.401 502.16L343.721 499.2C345.054 498.987 346.387 498.747 347.721 498.48C349.107 498.213 350.361 497.973 351.481 497.76C352.601 497.493 353.507 497.28 354.201 497.12C354.894 496.96 355.241 496.88 355.241 496.88L355.641 497.84C355.427 498.373 355.187 499.573 354.921 501.44C354.707 503.253 354.521 505.493 354.361 508.16C354.201 510.773 354.067 513.653 353.961 516.8C353.854 519.893 353.801 523.013 353.801 526.16C353.801 527.707 354.014 528.853 354.441 529.6C354.867 530.293 355.587 530.64 356.601 530.64C357.081 530.64 357.667 530.613 358.361 530.56C359.054 530.507 359.401 530.48 359.401 530.48L359.561 530.8L358.921 534.24C358.921 534.24 358.681 534.213 358.201 534.16C357.774 534.16 357.187 534.133 356.441 534.08C355.747 534.08 354.974 534.053 354.121 534C353.321 534 352.547 534 351.801 534C350.681 534 349.481 534.08 348.201 534.24C346.921 534.4 345.827 534.56 344.921 534.72C344.014 534.88 343.561 534.96 343.561 534.96ZM350.601 487.44C349.267 487.44 348.281 487.013 347.641 486.16C347.001 485.307 346.681 484.373 346.681 483.36C346.681 482.08 347.134 480.987 348.041 480.08C348.947 479.12 350.067 478.64 351.401 478.64C352.681 478.64 353.641 479.067 354.281 479.92C354.974 480.72 355.321 481.653 355.321 482.72C355.321 484 354.867 485.12 353.961 486.08C353.107 486.987 351.987 487.44 350.601 487.44ZM381.819 534.96C378.779 534.96 376.085 534.213 373.739 532.72C371.392 531.227 369.552 529.147 368.219 526.48C366.939 523.76 366.299 520.667 366.299 517.2C366.299 513.36 367.099 509.92 368.699 506.88C370.352 503.787 372.592 501.36 375.419 499.6C378.245 497.787 381.392 496.88 384.859 496.88C387.899 496.88 390.592 497.627 392.939 499.12C395.285 500.613 397.099 502.693 398.379 505.36C399.712 508.027 400.379 511.12 400.379 514.64C400.379 518.427 399.552 521.867 397.899 524.96C396.299 528.053 394.085 530.507 391.259 532.32C388.485 534.08 385.339 534.96 381.819 534.96ZM384.059 531.04C387.045 531.04 389.419 529.84 391.179 527.44C392.939 524.987 393.819 521.68 393.819 517.52C393.819 514.32 393.339 511.493 392.379 509.04C391.419 506.587 390.085 504.667 388.379 503.28C386.672 501.893 384.699 501.2 382.459 501.2C379.472 501.2 377.099 502.427 375.339 504.88C373.579 507.333 372.699 510.667 372.699 514.88C372.699 518.08 373.179 520.907 374.139 523.36C375.099 525.76 376.432 527.653 378.139 529.04C379.845 530.373 381.819 531.04 384.059 531.04ZM430.223 531.68C431.823 531.253 432.969 530.64 433.663 529.84C434.356 528.987 434.703 527.867 434.703 526.48L435.023 510.64C435.023 507.973 434.436 505.92 433.263 504.48C432.143 503.04 430.516 502.32 428.383 502.32C427.103 502.32 425.796 502.587 424.463 503.12C423.129 503.653 421.929 504.24 420.863 504.88C419.849 505.52 419.076 506.053 418.543 506.48C418.489 507.867 418.409 509.52 418.303 511.44C418.249 513.307 418.169 515.227 418.063 517.2C418.009 519.173 417.956 520.96 417.903 522.56C417.849 524.16 417.823 525.36 417.823 526.16C417.823 527.813 418.036 528.987 418.463 529.68C418.943 530.32 419.689 530.64 420.703 530.64C421.183 530.64 421.769 530.613 422.463 530.56C423.156 530.507 423.503 530.48 423.503 530.48L423.663 530.8L422.943 534.24C422.943 534.24 422.543 534.213 421.743 534.16C420.943 534.107 419.983 534.053 418.863 534C417.743 534 416.676 534 415.663 534C414.543 534 413.369 534.027 412.143 534.08C410.916 534.187 409.876 534.267 409.023 534.32C408.169 534.427 407.743 534.48 407.743 534.48L408.143 531.2C409.689 530.933 410.783 530.453 411.423 529.76C412.063 529.067 412.383 527.973 412.383 526.48V506.96C412.383 505.147 412.089 503.893 411.503 503.2C410.916 502.453 409.903 502.08 408.463 502.08H407.583L407.343 501.76L407.583 499.12C409.449 498.8 411.236 498.48 412.943 498.16C414.649 497.787 416.036 497.467 417.103 497.2C418.223 496.933 418.783 496.8 418.783 496.8L419.263 497.44C419.263 497.44 419.129 497.973 418.863 499.04C418.649 500.107 418.489 501.333 418.383 502.72L418.543 502.96C419.023 502.64 419.769 502.16 420.783 501.52C421.849 500.827 422.969 500.133 424.143 499.44C425.369 498.747 426.543 498.16 427.663 497.68C428.783 497.147 429.663 496.88 430.303 496.88C433.663 496.88 436.329 497.813 438.303 499.68C440.276 501.547 441.263 504.053 441.263 507.2C441.263 507.893 441.209 509.04 441.103 510.64C440.996 512.24 440.863 514.027 440.703 516C440.543 517.973 440.409 519.867 440.303 521.68C440.196 523.493 440.143 524.987 440.143 526.16C440.143 527.707 440.356 528.853 440.783 529.6C441.209 530.293 441.929 530.64 442.943 530.64C443.423 530.64 444.009 530.613 444.703 530.56C445.396 530.507 445.743 530.48 445.743 530.48L445.903 530.8L445.263 534.24C445.263 534.24 445.023 534.213 444.543 534.16C444.116 534.16 443.529 534.133 442.783 534.08C442.089 534.08 441.316 534.053 440.463 534C439.663 534 438.889 534 438.143 534C437.289 534 436.383 534.053 435.423 534.16C434.516 534.267 433.636 534.373 432.783 534.48C431.929 534.587 431.236 534.693 430.703 534.8C430.169 534.907 429.903 534.96 429.903 534.96L430.223 531.68ZM462.371 534.96C460.451 534.96 458.771 534.8 457.331 534.48C455.891 534.213 454.771 533.947 453.971 533.68C453.224 533.413 452.851 533.28 452.851 533.28L452.611 532.72C452.717 532.133 452.824 531.173 452.931 529.84C453.091 528.453 453.224 527.013 453.331 525.52C453.491 524.027 453.571 522.853 453.571 522L456.371 521.6C456.371 525.12 456.957 527.6 458.131 529.04C459.304 530.48 461.304 531.2 464.131 531.2C466.157 531.2 467.864 530.747 469.251 529.84C470.637 528.933 471.331 527.813 471.331 526.48C471.331 525.573 471.064 524.747 470.531 524C469.997 523.253 469.064 522.427 467.731 521.52C466.397 520.613 464.504 519.52 462.051 518.24C459.011 516.693 456.797 515.12 455.411 513.52C454.024 511.92 453.331 510.16 453.331 508.24C453.331 506.053 453.971 504.107 455.251 502.4C456.531 500.693 458.291 499.36 460.531 498.4C462.771 497.387 465.277 496.88 468.051 496.88C470.237 496.88 472.104 497.093 473.651 497.52C475.251 497.947 476.051 498.16 476.051 498.16L476.211 498.56C476.211 498.56 476.104 499.013 475.891 499.92C475.731 500.827 475.517 502.027 475.251 503.52C475.037 504.96 474.851 506.56 474.691 508.32L471.731 508.56C471.731 508.56 471.757 508.267 471.811 507.68C471.864 507.093 471.891 506.613 471.891 506.24C471.891 504.32 471.357 502.933 470.291 502.08C469.277 501.173 467.624 500.72 465.331 500.72C463.517 500.72 461.971 501.147 460.691 502C459.464 502.853 458.851 503.893 458.851 505.12C458.851 506.4 459.384 507.6 460.451 508.72C461.571 509.84 463.357 511.04 465.811 512.32C468.691 513.813 470.931 515.173 472.531 516.4C474.184 517.573 475.331 518.72 475.971 519.84C476.664 520.96 477.011 522.187 477.011 523.52C477.011 525.547 476.317 527.44 474.931 529.2C473.597 530.96 471.811 532.373 469.571 533.44C467.384 534.453 464.984 534.96 462.371 534.96Z" fill="white"/>
<rect x="6" y="6" width="756" height="756" stroke="white" stroke-width="12"/>
<path d="M549 534L509 518L549 502L589 518L549 534Z" stroke="white"/>
<path d="M549 527.6L517 514.8L549 502L581 514.8L549 527.6Z" fill="#D9D9D9" stroke="white"/>
<path d="M89.28 140.992C90.784 140.992 92.208 141.2 93.552 141.616C94.896 142 96.08 142.576 97.104 143.344L95.952 146.656L95.568 146.752C93.712 144.96 91.472 144.064 88.848 144.064C85.392 144.064 82.72 145.392 80.832 148.048C78.944 150.672 78 154.4 78 159.232C78 162.464 78.656 164.944 79.968 166.672C81.28 168.368 83.152 169.216 85.584 169.216C86.928 169.216 88.288 168.96 89.664 168.448C91.072 167.936 92.384 167.216 93.6 166.288L94.032 166.528L93.264 169.936C90.512 171.536 87.76 172.336 85.008 172.336C81.584 172.336 78.928 171.248 77.04 169.072C75.184 166.864 74.256 163.76 74.256 159.76C74.256 155.888 74.848 152.544 76.032 149.728C77.216 146.912 78.928 144.752 81.168 143.248C83.44 141.744 86.144 140.992 89.28 140.992ZM108.79 149.632C110.55 149.92 111.862 150.656 112.727 151.84C113.622 153.024 114.07 154.72 114.07 156.928C114.07 159.872 113.655 162.48 112.823 164.752C111.99 167.024 110.774 168.832 109.174 170.176C107.606 171.488 105.734 172.24 103.558 172.432L103.126 172.384C101.302 172.032 99.9425 171.264 99.0465 170.08C98.1825 168.896 97.7505 167.152 97.7505 164.848C97.7505 161.968 98.1825 159.408 99.0465 157.168C99.9105 154.896 101.142 153.104 102.742 151.792C104.374 150.48 106.262 149.76 108.406 149.632H108.79ZM107.782 152.56C105.606 152.56 103.942 153.664 102.79 155.872C101.638 158.08 101.062 161.056 101.062 164.8C101.062 166.464 101.286 167.68 101.734 168.448C102.182 169.184 102.934 169.552 103.99 169.552C106.134 169.552 107.782 168.432 108.935 166.192C110.086 163.952 110.662 160.944 110.662 157.168C110.662 155.536 110.438 154.368 109.99 153.664C109.542 152.928 108.806 152.56 107.782 152.56ZM144.893 149.68C146.013 149.936 146.909 150.432 147.581 151.168C148.285 151.872 148.621 152.768 148.589 153.856L148.541 154.48L146.573 166.816L146.285 171.856L142.589 172.192L145.181 155.776L145.229 155.152C145.261 154.704 145.181 154.352 144.989 154.096C144.829 153.808 144.589 153.664 144.269 153.664C143.341 153.664 142.013 154.864 140.285 157.264C138.557 159.664 136.637 163.072 134.525 167.488L134.285 171.856L130.589 172.192L133.229 155.776L133.277 155.152C133.277 154.16 132.941 153.664 132.269 153.664C131.341 153.664 130.029 154.832 128.333 157.168C126.669 159.504 124.797 162.832 122.717 167.152L122.477 171.856L118.829 172.192L121.325 154.768L121.565 150.112L125.117 149.776L123.581 160.576H124.013C125.645 157.792 127.101 155.552 128.381 153.856C129.661 152.128 130.989 150.736 132.365 149.68H132.893C134.013 149.936 134.909 150.432 135.581 151.168C136.285 151.872 136.621 152.768 136.589 153.856L136.541 154.48L135.581 160.576H136.013C137.581 157.824 139.021 155.6 140.333 153.904C141.645 152.176 142.989 150.768 144.365 149.68H144.893ZM158.035 166.768L157.843 171.856L154.195 172.192L156.691 154.768L156.883 150.112L160.435 149.776L158.035 166.768ZM159.619 140.368C160.227 140.368 160.707 140.544 161.059 140.896C161.443 141.248 161.635 141.744 161.635 142.384C161.635 143.056 161.443 143.6 161.059 144.016C160.675 144.432 160.163 144.64 159.523 144.64C158.883 144.64 158.371 144.448 157.987 144.064C157.635 143.68 157.459 143.168 157.459 142.528C157.459 141.888 157.651 141.376 158.035 140.992C158.419 140.576 158.947 140.368 159.619 140.368ZM179.672 149.68C180.792 149.936 181.688 150.432 182.36 151.168C183.064 151.872 183.4 152.768 183.368 153.856L183.32 154.48L181.352 166.816L181.064 171.856L177.368 172.192L180.008 155.776L180.056 155.152C180.056 154.16 179.72 153.664 179.048 153.664C178.12 153.664 176.808 154.832 175.112 157.168C173.448 159.504 171.576 162.832 169.496 167.152L169.256 171.856L165.608 172.192L168.104 154.768L168.344 150.112L171.896 149.776L170.36 160.576H170.792C172.424 157.792 173.88 155.552 175.16 153.856C176.44 152.128 177.768 150.736 179.144 149.68H179.672ZM205.727 149.92L203.375 166.576L202.991 170.176C202.671 172.512 201.983 174.528 200.927 176.224C199.871 177.952 198.543 179.264 196.943 180.16C195.375 181.056 193.679 181.504 191.855 181.504C189.807 181.504 188.111 180.912 186.767 179.728C185.423 178.576 184.559 176.928 184.175 174.784L184.319 174.4L191.087 170.176L191.135 169.744C190.463 169.136 189.967 168.384 189.647 167.488C189.327 166.56 189.167 165.408 189.167 164.032C189.167 161.728 189.567 159.552 190.367 157.504C191.199 155.456 192.415 153.744 194.015 152.368C195.615 150.96 197.535 150.08 199.775 149.728H200.015L202.991 150.784L205.247 149.632L205.727 149.92ZM199.103 152.608C196.991 152.608 195.343 153.584 194.159 155.536C192.975 157.488 192.383 159.92 192.383 162.832C192.383 164.4 192.527 165.568 192.815 166.336C193.135 167.104 193.439 167.488 193.727 167.488C194.047 167.488 194.623 166.992 195.455 166C196.319 165.008 197.311 163.6 198.431 161.776C199.583 159.92 200.719 157.792 201.839 155.392L201.935 154.768L202.031 153.664L199.103 152.608ZM192.623 178.768C194.447 178.768 195.983 178.112 197.231 176.8C198.511 175.488 199.327 173.6 199.679 171.136L200.927 161.92H200.447C198.175 165.92 195.807 168.896 193.343 170.848L188.447 174.496C188.159 174.752 188.015 175.024 188.015 175.312C188.047 176.176 188.479 176.96 189.311 177.664C190.143 178.4 191.247 178.768 192.623 178.768ZM231.352 140.992C233.656 140.992 235.912 141.488 238.12 142.48L237.112 145.888L236.44 146.08C234.776 144.672 232.92 143.968 230.872 143.968C229.656 143.968 228.584 144.208 227.656 144.688C226.728 145.168 226.008 145.808 225.496 146.608C224.984 147.376 224.728 148.192 224.728 149.056C224.728 150.24 225.144 151.232 225.976 152.032C226.808 152.8 228.088 153.728 229.816 154.816C231.224 155.68 232.36 156.464 233.224 157.168C234.12 157.84 234.872 158.704 235.48 159.76C236.12 160.784 236.44 161.984 236.44 163.36C236.44 164.992 235.976 166.496 235.048 167.872C234.152 169.248 232.904 170.336 231.304 171.136C229.704 171.936 227.912 172.336 225.928 172.336C224.616 172.336 223.24 172.144 221.8 171.76C220.392 171.376 219.112 170.848 217.96 170.176L218.872 166.48L219.352 166.288C220.28 167.312 221.368 168.08 222.616 168.592C223.864 169.104 225.096 169.36 226.312 169.36C228.2 169.36 229.752 168.848 230.968 167.824C232.184 166.768 232.792 165.504 232.792 164.032C232.792 162.784 232.376 161.744 231.544 160.912C230.712 160.08 229.432 159.136 227.704 158.08C226.328 157.248 225.208 156.496 224.344 155.824C223.48 155.152 222.744 154.304 222.136 153.28C221.528 152.256 221.224 151.056 221.224 149.68C221.224 148.08 221.656 146.624 222.52 145.312C223.416 143.968 224.632 142.912 226.168 142.144C227.736 141.376 229.464 140.992 231.352 140.992ZM251.495 149.632C253.255 149.92 254.567 150.656 255.431 151.84C256.327 153.024 256.775 154.72 256.775 156.928C256.775 159.872 256.359 162.48 255.527 164.752C254.695 167.024 253.479 168.832 251.879 170.176C250.311 171.488 248.439 172.24 246.263 172.432L245.831 172.384C244.007 172.032 242.647 171.264 241.751 170.08C240.887 168.896 240.455 167.152 240.455 164.848C240.455 161.968 240.887 159.408 241.751 157.168C242.615 154.896 243.847 153.104 245.447 151.792C247.079 150.48 248.967 149.76 251.111 149.632H251.495ZM250.487 152.56C248.311 152.56 246.647 153.664 245.495 155.872C244.343 158.08 243.767 161.056 243.767 164.8C243.767 166.464 243.991 167.68 244.439 168.448C244.887 169.184 245.639 169.552 246.695 169.552C248.839 169.552 250.487 168.432 251.639 166.192C252.791 163.952 253.367 160.944 253.367 157.168C253.367 155.536 253.143 154.368 252.695 153.664C252.247 152.928 251.511 152.56 250.487 152.56ZM272.189 149.632C273.949 149.92 275.261 150.656 276.125 151.84C277.021 153.024 277.469 154.72 277.469 156.928C277.469 159.872 277.053 162.48 276.221 164.752C275.389 167.024 274.173 168.832 272.573 170.176C271.005 171.488 269.133 172.24 266.957 172.432L266.525 172.384C264.701 172.032 263.341 171.264 262.445 170.08C261.581 168.896 261.149 167.152 261.149 164.848C261.149 161.968 261.581 159.408 262.445 157.168C263.309 154.896 264.541 153.104 266.141 151.792C267.773 150.48 269.661 149.76 271.805 149.632H272.189ZM271.181 152.56C269.005 152.56 267.341 153.664 266.189 155.872C265.037 158.08 264.461 161.056 264.461 164.8C264.461 166.464 264.685 167.68 265.133 168.448C265.581 169.184 266.333 169.552 267.389 169.552C269.533 169.552 271.181 168.432 272.333 166.192C273.485 163.952 274.061 160.944 274.061 157.168C274.061 155.536 273.837 154.368 273.389 153.664C272.941 152.928 272.205 152.56 271.181 152.56ZM296.292 149.68C297.412 149.936 298.308 150.432 298.98 151.168C299.684 151.872 300.02 152.768 299.988 153.856L299.94 154.48L297.972 166.816L297.684 171.856L293.988 172.192L296.628 155.776L296.676 155.152C296.676 154.16 296.34 153.664 295.668 153.664C294.74 153.664 293.428 154.832 291.732 157.168C290.068 159.504 288.196 162.832 286.116 167.152L285.876 171.856L282.228 172.192L284.724 154.768L284.964 150.112L288.516 149.776L286.98 160.576H287.412C289.044 157.792 290.5 155.552 291.78 153.856C293.06 152.128 294.388 150.736 295.764 149.68H296.292Z" fill="#F5F5F5"/>
</g>
<rect x="0.5" y="0.5" width="767" height="767" stroke="#E0E0E0"/>
<defs>
<clipPath id="clip0_15635_7">
<rect width="768" height="768" fill="white"/>
</clipPath>
</defs>
</svg>
