<svg width="768" height="768" viewBox="0 0 768 768" fill="none" xmlns="http://www.w3.org/2000/svg">
<g clip-path="url(#clip0)">
<rect width="768" height="768" fill="#FBFBFB"/>
<rect x="6" y="6" width="756" height="756" stroke="white" stroke-width="12"/>
<path d="M212.424 551.342C212.413 551.353 212.401 551.353 212.401 551.365C203.717 557.504 193.435 563.952 182.373 570.722L181.936 570.975C181.787 571.078 181.753 571.285 181.856 571.434C181.959 571.583 182.166 571.617 182.316 571.514L182.683 571.319C192.068 566.431 202.844 560.625 213.688 554.669C213.745 554.635 213.803 554.601 213.86 554.578C213.263 553.591 212.769 552.512 212.424 551.342ZM269.402 505.271C255.721 490.194 167.669 503.757 130.231 511.926L129.358 512.11C129.174 512.144 129.06 512.317 129.094 512.489C129.128 512.672 129.301 512.787 129.473 512.753L130.335 512.581C161.351 507.061 225.865 499.419 239.741 513.166C243.98 517.365 242.969 522.759 238.053 529.138C240.695 530.837 242.579 533.51 243.429 536.849C262.613 524.135 275.491 511.984 269.402 505.271Z" fill="#D03027"/>
<path d="M217.961 547.383C218.133 552.684 221.499 557.033 225.875 557.033C234.365 557.033 237.983 546.614 237.731 539.66C237.547 534.347 234.101 530.01 229.724 530.01C222.429 529.999 217.708 540.372 217.961 547.383ZM213.48 547.096C213.17 538.042 220.27 528.782 230.585 528.782C237.478 528.782 241.992 533.372 242.245 540.406C242.578 549.953 235.939 558.719 225.152 558.719C218.236 558.719 213.722 554.141 213.48 547.096Z" fill="#004977"/>
<path d="M115.781 544.709C115.414 544.847 114.943 544.984 114.346 545.111C113.76 545.248 112.68 545.432 111.118 545.684C110.038 545.856 109.291 546.074 108.866 546.384C108.464 546.683 108.223 547.038 108.154 547.486C108.073 547.956 108.223 548.323 108.625 548.622C109.038 548.909 109.728 549.058 110.704 549.058C111.439 549.058 112.151 548.943 112.841 548.714C113.541 548.484 114.139 548.174 114.587 547.784C114.92 547.497 115.161 547.13 115.345 546.683C115.46 546.384 115.609 545.73 115.781 544.709ZM124.742 539.144C124.707 539.97 124.558 540.704 124.34 541.978L122.823 550.481C122.697 551.238 122.973 551.823 123.673 552.236L123.627 552.569L114.943 552.558L114.862 550.4C113.599 551.158 112.071 551.8 110.693 552.179C109.314 552.535 108.2 552.684 106.534 552.684C103.731 552.684 102.123 552.397 101.009 551.422C99.8828 550.423 99.3314 549.758 99.3888 548.381C99.4348 547.589 99.8483 546.568 100.434 545.856C101.032 545.134 101.859 544.663 102.743 544.239C103.639 543.814 104.696 543.504 106.224 543.263C107.763 543.011 109.9 542.77 112.76 542.529C114.265 542.403 115.184 542.058 115.609 541.886C116.207 541.657 116.448 541.393 116.528 540.911C116.689 540.039 116.413 539.534 115.242 539.304C112.117 538.685 106.247 539.706 103.226 540.452L104.868 536.023C108.855 535.438 112.588 535.07 116.528 535.07C122.812 535.07 124.811 536.849 124.742 539.144Z" fill="#004977"/>
<path d="M149.924 552.558L152.934 535.564H161.25L158.241 552.558H149.924ZM153.393 531.628C153.646 530.228 155.851 529.104 158.31 529.104C160.78 529.104 162.583 530.24 162.342 531.628C162.078 533.028 159.883 534.164 157.402 534.164C154.944 534.164 153.152 533.028 153.393 531.628Z" fill="#004977"/>
<path d="M190.782 544.744C190.402 544.87 189.92 545.008 189.334 545.145C188.748 545.283 187.668 545.455 186.106 545.708C185.038 545.88 184.28 546.098 183.866 546.407C183.464 546.694 183.234 547.062 183.142 547.498C183.05 547.968 183.223 548.347 183.613 548.634C184.038 548.92 184.728 549.058 185.704 549.058C186.428 549.058 187.14 548.955 187.841 548.737C188.553 548.496 189.139 548.198 189.598 547.807C189.92 547.521 190.161 547.142 190.334 546.706C190.448 546.419 190.598 545.765 190.782 544.744ZM199.742 539.167C199.707 540.005 199.558 540.739 199.328 542.001L197.823 550.515C197.697 551.261 197.973 551.858 198.673 552.271L198.628 552.569L189.943 552.581L189.874 550.412C188.61 551.181 187.071 551.823 185.704 552.191C184.326 552.558 183.211 552.707 181.523 552.707C178.72 552.707 177.123 552.432 176.009 551.445C174.871 550.435 174.331 549.781 174.389 548.404C174.423 547.601 174.837 546.58 175.434 545.88C176.032 545.145 176.859 544.686 177.755 544.262C178.651 543.837 179.708 543.527 181.224 543.275C182.763 543.034 184.911 542.782 187.772 542.541C189.265 542.414 190.184 542.082 190.609 541.909C191.218 541.68 191.448 541.416 191.54 540.923C191.689 540.062 191.425 539.557 190.265 539.316C187.117 538.697 181.27 539.718 178.249 540.464L179.88 536.034C183.878 535.449 187.6 535.082 191.54 535.082C197.8 535.094 199.799 536.884 199.742 539.167Z" fill="#004977"/>
<path d="M98.2648 546.453C95.5538 546.993 94.0374 547.199 91.3608 547.199C87.3862 547.199 84.2271 545.225 84.3994 541.611C84.5258 539.201 87.3747 534.129 94.6233 534.129C96.9093 534.129 98.6899 534.531 101.091 535.897L102.148 529.999C98.8851 528.771 96.7255 528.587 93.9225 528.61C84.4109 528.713 75.2898 533.028 74.1526 541.806C73.0038 550.722 83.9054 552.959 88.7417 552.936C91.5331 552.925 94.4395 552.81 97.1505 552.535L98.2648 546.453Z" fill="#004977"/>
<path d="M165.834 535.472L166.431 532.007L175.127 530.113L174.197 535.46H178.459L177.655 538.88L173.519 538.868L171.003 552.535C171.003 552.535 162.629 552.477 162.594 552.535L165.099 538.903H161.951L162.594 535.46H165.834V535.472Z" fill="#004977"/>
<path d="M212.232 529.08L208.189 552.546L199.723 552.557L203.985 528.851L212.232 529.08Z" fill="#004977"/>
<path d="M138.92 539.546C137.828 539.546 136.841 539.878 135.968 540.532C135.094 541.198 134.543 542.162 134.325 543.436C134.061 544.916 134.221 545.983 134.807 546.637C135.405 547.291 136.255 547.624 137.38 547.624C138.139 547.624 138.92 547.486 139.494 547.199C140.206 546.821 140.7 546.43 141.125 545.799C141.585 545.145 141.884 544.411 142.044 543.562C142.286 542.219 142.079 541.221 141.459 540.555C140.85 539.89 140.011 539.546 138.92 539.546ZM123.779 558.421L127.834 535.656H135.14L134.578 538.559C135.209 537.687 136.22 536.975 137.622 536.402C139.035 535.828 140.62 535.403 142.343 535.403C144.25 535.403 145.422 535.507 146.846 536.241C148.259 536.987 149.259 538.065 149.787 539.465C150.338 540.842 150.453 542.403 150.155 544.09C149.661 546.901 148.294 549.104 146.042 550.733C143.813 552.363 141.803 552.787 138.943 552.799C137.932 552.799 137.082 552.696 136.381 552.523C135.692 552.34 135.14 552.122 134.727 551.858C134.325 551.594 133.9 551.215 133.36 550.619L132.004 558.421H123.779Z" fill="#004977"/>
<path d="M274.743 541.634C274.697 540.268 274.008 539.339 272.595 539.339C269.183 539.339 265.553 546.017 264.933 548.702C270.527 548.714 274.881 545.386 274.743 541.634ZM275.478 552.099L276.133 552.546C274.468 555.931 271.079 558.651 267.104 558.651C263.853 558.651 261.177 556.482 261.039 552.42C260.774 545.134 267.61 538.375 273.204 538.375C275.605 538.375 277.833 539.419 277.925 542.001C278.132 547.796 269.987 549.563 264.623 549.689C264.45 550.297 264.382 550.905 264.416 551.823C264.508 554.221 265.955 556.241 268.965 556.241C271.561 556.241 274.157 554.153 275.478 552.099Z" fill="#004977"/>
<path d="M242.12 541.45C242.694 541.37 243.625 541.266 244.027 541.266C244.636 541.266 245.21 541.381 245.245 541.989C245.256 542.345 244.613 544.927 244.475 545.523L243.177 551.238C242.648 553.579 242.086 556.023 241.58 557.962H244.911L246.784 548.908C252.493 542.965 254.699 541.025 256.043 541.025C256.652 541.025 257.065 541.347 257.1 542.07C257.134 543.114 256.479 545.489 256.261 546.177L254.354 552.775C253.918 554.256 253.596 555.598 253.63 556.551C253.688 557.996 254.561 558.639 255.871 558.639C258.306 558.639 260.075 556.103 261.614 553.613L261.166 552.798C260.546 553.797 259.099 555.988 257.961 555.988C257.605 555.988 257.261 555.747 257.249 555.151C257.215 554.382 257.536 553.223 257.766 552.454L259.891 544.72C260.466 542.586 260.73 541.22 260.718 540.486C260.661 539.04 259.822 538.363 258.524 538.363C256.33 538.363 253.424 539.97 247.255 547.05H247.163L247.944 543.596C248.369 541.702 248.783 539.729 249.173 538.363C247.037 539.132 243.981 539.993 242.097 540.36L242.12 541.45Z" fill="#004977"/>
<path d="M114.64 289.68C113.04 290.907 111.013 291.76 108.56 292.24C106.107 292.72 103.493 292.96 100.72 292.96C97.36 292.96 94.2133 292.4 91.28 291.28C88.3467 290.107 85.7867 288.347 83.6 286C81.4133 283.653 79.68 280.667 78.4 277.04C77.12 273.36 76.48 269.013 76.48 264C76.48 258.773 77.1733 254.347 78.56 250.72C80 247.04 81.8667 244.053 84.16 241.76C86.5067 239.413 89.12 237.707 92 236.64C94.88 235.573 97.8133 235.04 100.8 235.04C104 235.04 106.613 235.227 108.64 235.6C110.667 235.92 112.4 236.373 113.84 236.96L112.24 242.8C109.68 241.573 106.027 240.96 101.28 240.96C99.0933 240.96 96.9333 241.36 94.8 242.16C92.6667 242.96 90.7467 244.267 89.04 246.08C87.3867 247.893 86.0533 250.267 85.04 253.2C84.0267 256.133 83.52 259.733 83.52 264C83.52 267.84 84 271.2 84.96 274.08C85.92 276.96 87.2267 279.36 88.88 281.28C90.5867 283.2 92.56 284.64 94.8 285.6C97.0933 286.56 99.5733 287.04 102.24 287.04C104.64 287.04 106.72 286.8 108.48 286.32C110.293 285.84 111.813 285.227 113.04 284.48L114.64 289.68ZM150.343 292V269.2C150.343 267.12 150.21 265.307 149.943 263.76C149.73 262.16 149.303 260.853 148.663 259.84C148.023 258.773 147.143 257.973 146.023 257.44C144.956 256.907 143.543 256.64 141.783 256.64C139.276 256.64 137.01 257.467 134.983 259.12C132.956 260.72 131.65 262.8 131.063 265.36V292H124.663V236H131.063V256.48H131.383C132.77 254.827 134.423 253.52 136.343 252.56C138.316 251.547 140.743 251.04 143.623 251.04C145.863 251.04 147.81 251.307 149.463 251.84C151.116 252.32 152.476 253.2 153.543 254.48C154.663 255.76 155.463 257.493 155.943 259.68C156.476 261.813 156.743 264.533 156.743 267.84V292H150.343ZM168.573 254.96C170.6 253.733 172.946 252.827 175.613 252.24C178.333 251.653 181.16 251.36 184.093 251.36C186.866 251.36 189.08 251.733 190.733 252.48C192.44 253.227 193.72 254.213 194.573 255.44C195.48 256.613 196.066 257.92 196.333 259.36C196.653 260.8 196.813 262.24 196.813 263.68C196.813 266.88 196.733 270 196.573 273.04C196.413 276.08 196.333 278.96 196.333 281.68C196.333 283.653 196.413 285.52 196.573 287.28C196.733 289.04 197.026 290.667 197.453 292.16H192.733L191.053 286.56H190.653C190.173 287.307 189.56 288.053 188.813 288.8C188.12 289.493 187.266 290.133 186.253 290.72C185.24 291.253 184.066 291.707 182.733 292.08C181.4 292.453 179.88 292.64 178.173 292.64C176.466 292.64 174.866 292.373 173.373 291.84C171.933 291.307 170.68 290.56 169.613 289.6C168.546 288.587 167.693 287.387 167.053 286C166.466 284.613 166.173 283.04 166.173 281.28C166.173 278.933 166.653 276.987 167.613 275.44C168.573 273.84 169.906 272.587 171.613 271.68C173.373 270.72 175.453 270.053 177.853 269.68C180.306 269.253 183 269.04 185.933 269.04C186.68 269.04 187.4 269.04 188.093 269.04C188.84 269.04 189.586 269.093 190.333 269.2C190.493 267.6 190.573 266.16 190.573 264.88C190.573 261.947 189.986 259.893 188.813 258.72C187.64 257.547 185.506 256.96 182.413 256.96C181.506 256.96 180.52 257.04 179.453 257.2C178.44 257.307 177.373 257.493 176.253 257.76C175.186 257.973 174.146 258.267 173.133 258.64C172.173 258.96 171.32 259.333 170.573 259.76L168.573 254.96ZM179.933 287.04C181.426 287.04 182.76 286.853 183.933 286.48C185.106 286.053 186.12 285.547 186.973 284.96C187.826 284.32 188.52 283.627 189.053 282.88C189.64 282.133 190.066 281.413 190.333 280.72V274.08C189.586 274.027 188.813 274 188.013 274C187.266 273.947 186.52 273.92 185.773 273.92C184.12 273.92 182.493 274.027 180.893 274.24C179.346 274.4 177.96 274.747 176.733 275.28C175.56 275.76 174.6 276.453 173.853 277.36C173.16 278.213 172.813 279.307 172.813 280.64C172.813 282.507 173.48 284.053 174.813 285.28C176.146 286.453 177.853 287.04 179.933 287.04ZM235.381 292V269.2C235.381 265.04 234.767 261.92 233.541 259.84C232.367 257.707 230.181 256.64 226.981 256.64C224.154 256.64 221.807 257.413 219.941 258.96C218.127 260.453 216.847 262.347 216.101 264.64V292H209.701V252H214.181L215.381 256.88H215.701C216.981 255.173 218.687 253.787 220.821 252.72C223.007 251.6 225.594 251.04 228.581 251.04C230.767 251.04 232.687 251.307 234.341 251.84C235.994 252.32 237.354 253.2 238.421 254.48C239.541 255.76 240.367 257.493 240.901 259.68C241.487 261.813 241.781 264.533 241.781 267.84V292H235.381ZM284.891 293.84C284.891 299.013 283.504 302.827 280.731 305.28C278.011 307.733 273.957 308.96 268.571 308.96C265.371 308.96 262.784 308.747 260.811 308.32C258.891 307.947 257.237 307.44 255.851 306.8L257.531 301.36C258.757 301.84 260.117 302.293 261.611 302.72C263.104 303.147 265.051 303.36 267.451 303.36C269.691 303.36 271.504 303.147 272.891 302.72C274.331 302.347 275.477 301.68 276.331 300.72C277.184 299.813 277.771 298.613 278.091 297.12C278.411 295.68 278.571 293.947 278.571 291.92V288.08H278.251C277.184 289.627 275.824 290.827 274.171 291.68C272.517 292.48 270.357 292.88 267.691 292.88C262.304 292.88 258.331 291.2 255.771 287.84C253.264 284.48 252.011 279.253 252.011 272.16C252.011 265.333 253.637 260.16 256.891 256.64C260.144 253.067 264.944 251.28 271.291 251.28C274.331 251.28 276.917 251.52 279.051 252C281.237 252.48 283.184 253.04 284.891 253.68V293.84ZM268.811 287.28C271.531 287.28 273.664 286.613 275.211 285.28C276.757 283.893 277.851 281.76 278.491 278.88V258.4C276.357 257.387 273.637 256.88 270.331 256.88C266.704 256.88 263.851 258.107 261.771 260.56C259.691 263.013 258.651 266.853 258.651 272.08C258.651 274.32 258.837 276.373 259.211 278.24C259.584 280.107 260.171 281.707 260.971 283.04C261.771 284.373 262.811 285.413 264.091 286.16C265.371 286.907 266.944 287.28 268.811 287.28ZM327.219 288.8C325.619 290.08 323.593 291.093 321.139 291.84C318.739 292.587 316.179 292.96 313.459 292.96C310.419 292.96 307.779 292.48 305.539 291.52C303.299 290.507 301.459 289.093 300.019 287.28C298.579 285.413 297.513 283.2 296.819 280.64C296.126 278.08 295.779 275.2 295.779 272C295.779 265.173 297.299 259.973 300.339 256.4C303.379 252.827 307.726 251.04 313.379 251.04C315.193 251.04 317.006 251.253 318.819 251.68C320.633 252.053 322.259 252.8 323.699 253.92C325.139 255.04 326.313 256.64 327.219 258.72C328.126 260.747 328.579 263.44 328.579 266.8C328.579 268.56 328.419 270.507 328.099 272.64H302.419C302.419 274.987 302.659 277.067 303.139 278.88C303.619 280.693 304.366 282.24 305.379 283.52C306.393 284.747 307.699 285.707 309.299 286.4C310.953 287.04 312.953 287.36 315.299 287.36C317.113 287.36 318.926 287.04 320.739 286.4C322.553 285.76 323.913 285.013 324.819 284.16L327.219 288.8ZM313.459 256.64C310.313 256.64 307.779 257.467 305.859 259.12C303.993 260.773 302.873 263.6 302.499 267.6H322.339C322.339 263.547 321.566 260.72 320.019 259.12C318.473 257.467 316.286 256.64 313.459 256.64ZM397.893 249.04C397.893 250.427 397.706 251.813 397.333 253.2C397.013 254.587 396.453 255.867 395.653 257.04C394.853 258.16 393.813 259.173 392.533 260.08C391.253 260.933 389.706 261.573 387.893 262V262.48C389.493 262.747 391.013 263.2 392.453 263.84C393.893 264.48 395.146 265.36 396.213 266.48C397.279 267.6 398.106 268.96 398.693 270.56C399.333 272.16 399.653 274.053 399.653 276.24C399.653 279.12 399.039 281.627 397.813 283.76C396.586 285.84 394.933 287.547 392.853 288.88C390.826 290.213 388.506 291.2 385.893 291.84C383.279 292.48 380.586 292.8 377.813 292.8C376.906 292.8 375.733 292.8 374.293 292.8C372.906 292.8 371.386 292.747 369.733 292.64C368.133 292.587 366.479 292.48 364.773 292.32C363.119 292.16 361.599 291.92 360.213 291.6V236.4C361.226 236.24 362.373 236.08 363.653 235.92C364.986 235.76 366.399 235.627 367.893 235.52C369.386 235.413 370.906 235.333 372.453 235.28C374.053 235.227 375.626 235.2 377.173 235.2C379.786 235.2 382.319 235.413 384.773 235.84C387.279 236.213 389.493 236.907 391.413 237.92C393.386 238.933 394.959 240.347 396.133 242.16C397.306 243.973 397.893 246.267 397.893 249.04ZM377.893 283.76C379.226 283.76 380.506 283.6 381.733 283.28C383.013 282.96 384.133 282.48 385.093 281.84C386.053 281.147 386.826 280.293 387.413 279.28C387.999 278.267 388.293 277.067 388.293 275.68C388.293 273.92 387.946 272.533 387.253 271.52C386.559 270.507 385.653 269.733 384.533 269.2C383.413 268.613 382.159 268.24 380.773 268.08C379.386 267.92 377.999 267.84 376.613 267.84H370.773V283.28C371.039 283.387 371.466 283.467 372.053 283.52C372.639 283.573 373.253 283.627 373.893 283.68C374.586 283.68 375.279 283.707 375.973 283.76C376.719 283.76 377.359 283.76 377.893 283.76ZM374.293 259.52C375.039 259.52 375.893 259.493 376.853 259.44C377.866 259.387 378.693 259.307 379.333 259.2C381.359 258.56 383.093 257.6 384.533 256.32C386.026 255.04 386.773 253.36 386.773 251.28C386.773 249.893 386.506 248.747 385.973 247.84C385.439 246.933 384.719 246.213 383.813 245.68C382.959 245.147 381.973 244.773 380.853 244.56C379.733 244.347 378.559 244.24 377.333 244.24C375.946 244.24 374.666 244.267 373.493 244.32C372.319 244.373 371.413 244.453 370.773 244.56V259.52H374.293ZM407.798 254.32C409.931 253.36 412.465 252.613 415.398 252.08C418.331 251.493 421.398 251.2 424.598 251.2C427.371 251.2 429.691 251.547 431.558 252.24C433.425 252.88 434.891 253.813 435.958 255.04C437.078 256.267 437.851 257.733 438.278 259.44C438.758 261.147 438.998 263.067 438.998 265.2C438.998 267.547 438.918 269.92 438.758 272.32C438.598 274.667 438.491 276.987 438.438 279.28C438.438 281.573 438.518 283.813 438.678 286C438.838 288.133 439.238 290.16 439.878 292.08H431.398L429.718 286.56H429.318C428.251 288.213 426.758 289.653 424.838 290.88C422.971 292.053 420.545 292.64 417.558 292.64C415.691 292.64 414.011 292.373 412.518 291.84C411.025 291.253 409.745 290.453 408.678 289.44C407.611 288.373 406.785 287.147 406.198 285.76C405.611 284.32 405.318 282.72 405.318 280.96C405.318 278.507 405.851 276.453 406.918 274.8C408.038 273.093 409.611 271.733 411.638 270.72C413.718 269.653 416.171 268.933 418.998 268.56C421.878 268.133 425.078 268 428.598 268.16C428.971 265.173 428.758 263.04 427.958 261.76C427.158 260.427 425.371 259.76 422.598 259.76C420.518 259.76 418.305 259.973 415.958 260.4C413.665 260.827 411.771 261.387 410.278 262.08L407.798 254.32ZM420.998 284.08C423.078 284.08 424.731 283.627 425.958 282.72C427.185 281.76 428.091 280.747 428.678 279.68V274.48C427.025 274.32 425.425 274.293 423.878 274.4C422.385 274.507 421.051 274.747 419.878 275.12C418.705 275.493 417.771 276.027 417.078 276.72C416.385 277.413 416.038 278.293 416.038 279.36C416.038 280.853 416.465 282.027 417.318 282.88C418.225 283.68 419.451 284.08 420.998 284.08ZM473.006 292V269.28C473.006 266.027 472.526 263.68 471.566 262.24C470.659 260.8 469.086 260.08 466.846 260.08C464.872 260.08 463.192 260.667 461.806 261.84C460.472 262.96 459.512 264.373 458.926 266.08V292H448.526V252H456.766L457.966 257.28H458.286C459.512 255.573 461.139 254.08 463.166 252.8C465.192 251.52 467.806 250.88 471.006 250.88C472.979 250.88 474.739 251.147 476.286 251.68C477.832 252.213 479.139 253.093 480.206 254.32C481.272 255.547 482.072 257.227 482.606 259.36C483.139 261.44 483.406 264.027 483.406 267.12V292H473.006ZM506.119 275.44H503.319V292H492.919V236H503.319V269.04L505.719 267.92L514.839 252H526.279L516.679 267.2L512.599 270.24L516.999 273.36L527.799 292H515.879L506.119 275.44ZM533.976 252H544.376V292H533.976V252ZM532.456 240.72C532.456 239.173 533.016 237.867 534.136 236.8C535.31 235.68 536.91 235.12 538.936 235.12C540.963 235.12 542.59 235.68 543.816 236.8C545.096 237.867 545.736 239.173 545.736 240.72C545.736 242.267 545.096 243.573 543.816 244.64C542.59 245.653 540.963 246.16 538.936 246.16C536.91 246.16 535.31 245.653 534.136 244.64C533.016 243.573 532.456 242.267 532.456 240.72ZM579.781 292V269.28C579.781 266.027 579.301 263.68 578.341 262.24C577.434 260.8 575.861 260.08 573.621 260.08C571.647 260.08 569.967 260.667 568.581 261.84C567.247 262.96 566.287 264.373 565.701 266.08V292H555.301V252H563.541L564.741 257.28H565.061C566.287 255.573 567.914 254.08 569.941 252.8C571.967 251.52 574.581 250.88 577.781 250.88C579.754 250.88 581.514 251.147 583.061 251.68C584.607 252.213 585.914 253.093 586.981 254.32C588.047 255.547 588.847 257.227 589.381 259.36C589.914 261.44 590.181 264.027 590.181 267.12V292H579.781ZM633.534 292C633.534 297.813 631.961 302.08 628.814 304.8C625.668 307.573 621.268 308.96 615.614 308.96C611.774 308.96 608.734 308.693 606.494 308.16C604.308 307.627 602.654 307.067 601.534 306.48L603.694 298.24C604.921 298.72 606.334 299.2 607.934 299.68C609.588 300.16 611.614 300.4 614.014 300.4C617.641 300.4 620.094 299.6 621.374 298C622.708 296.453 623.374 294.267 623.374 291.44V288.88H623.054C621.188 291.387 617.881 292.64 613.134 292.64C607.961 292.64 604.094 291.04 601.534 287.84C599.028 284.64 597.774 279.627 597.774 272.8C597.774 265.653 599.481 260.24 602.894 256.56C606.308 252.88 611.268 251.04 617.774 251.04C621.188 251.04 624.228 251.28 626.894 251.76C629.614 252.24 631.828 252.8 633.534 253.44V292ZM615.934 284.32C617.961 284.32 619.508 283.867 620.574 282.96C621.694 282.053 622.548 280.693 623.134 278.88V260.88C621.481 260.187 619.428 259.84 616.974 259.84C614.308 259.84 612.228 260.853 610.734 262.88C609.241 264.853 608.494 268.027 608.494 272.4C608.494 276.293 609.134 279.253 610.414 281.28C611.694 283.307 613.534 284.32 615.934 284.32ZM73.76 356H80V353.76C80 351.307 80.1867 349.173 80.56 347.36C80.9867 345.547 81.6533 344.08 82.56 342.96C83.4667 341.787 84.64 340.933 86.08 340.4C87.52 339.813 89.3067 339.52 91.44 339.52C93.1467 339.52 94.64 339.627 95.92 339.84C97.2533 340.053 98.64 340.453 100.08 341.04L98.64 346.4C97.4133 345.867 96.24 345.52 95.12 345.36C94.0533 345.2 93.04 345.12 92.08 345.12C90.6933 345.12 89.6 345.333 88.8 345.76C88.0533 346.187 87.4933 346.827 87.12 347.68C86.8 348.48 86.5867 349.493 86.48 350.72C86.4267 351.893 86.4 353.28 86.4 354.88V356H97.04V361.6H86.4V396H80V361.6H73.76V356ZM101.407 376C101.407 369.227 102.901 364.053 105.887 360.48C108.927 356.853 113.274 355.04 118.927 355.04C121.914 355.04 124.501 355.547 126.688 356.56C128.927 357.52 130.767 358.933 132.208 360.8C133.648 362.613 134.714 364.827 135.408 367.44C136.101 370 136.448 372.853 136.448 376C136.448 382.773 134.928 387.973 131.887 391.6C128.901 395.173 124.581 396.96 118.927 396.96C115.941 396.96 113.327 396.48 111.087 395.52C108.901 394.507 107.087 393.093 105.647 391.28C104.207 389.413 103.141 387.2 102.447 384.64C101.754 382.027 101.407 379.147 101.407 376ZM108.047 376C108.047 378.027 108.234 379.973 108.608 381.84C109.034 383.707 109.674 385.333 110.527 386.72C111.381 388.107 112.501 389.227 113.888 390.08C115.274 390.933 116.954 391.36 118.927 391.36C126.181 391.413 129.808 386.293 129.808 376C129.808 373.92 129.594 371.947 129.168 370.08C128.794 368.213 128.181 366.587 127.328 365.2C126.474 363.813 125.354 362.72 123.968 361.92C122.581 361.067 120.901 360.64 118.927 360.64C111.674 360.587 108.047 365.707 108.047 376ZM166.218 362.16C164.618 361.627 163.098 361.36 161.658 361.36C159.365 361.36 157.551 362 156.218 363.28C154.885 364.507 154.058 366.08 153.738 368V396H147.338V356H151.818L153.018 360.88H153.338C154.351 359.067 155.551 357.68 156.938 356.72C158.378 355.707 160.191 355.2 162.378 355.2C163.925 355.2 165.658 355.467 167.578 356L166.218 362.16ZM215.854 366.8H236.734V391.76C234.494 393.627 231.8 394.987 228.654 395.84C225.56 396.693 222.494 397.12 219.454 397.12C215.88 397.12 212.547 396.56 209.454 395.44C206.414 394.32 203.774 392.587 201.534 390.24C199.294 387.84 197.534 384.8 196.254 381.12C194.974 377.44 194.334 373.067 194.334 368C194.334 362.72 195.08 358.24 196.574 354.56C198.12 350.827 200.12 347.813 202.574 345.52C205.08 343.173 207.88 341.493 210.974 340.48C214.067 339.413 217.214 338.88 220.414 338.88C223.614 338.88 226.414 339.12 228.814 339.6C231.267 340.08 233.214 340.587 234.654 341.12L232.414 350.32C231.08 349.787 229.587 349.387 227.934 349.12C226.28 348.8 224.174 348.64 221.614 348.64C219.32 348.64 217.214 348.987 215.294 349.68C213.374 350.373 211.694 351.52 210.254 353.12C208.867 354.667 207.774 356.667 206.974 359.12C206.227 361.573 205.854 364.56 205.854 368.08C205.854 371.44 206.227 374.347 206.974 376.8C207.72 379.2 208.76 381.2 210.094 382.8C211.427 384.347 212.974 385.493 214.734 386.24C216.547 386.987 218.467 387.36 220.494 387.36C221.88 387.36 223.24 387.2 224.574 386.88C225.907 386.507 227.027 385.973 227.934 385.28V374.72L215.854 373.44V366.8ZM243.484 376C243.484 369.227 245.137 364.027 248.444 360.4C251.75 356.72 256.39 354.88 262.364 354.88C265.564 354.88 268.337 355.387 270.684 356.4C273.03 357.413 274.977 358.853 276.524 360.72C278.07 362.533 279.217 364.747 279.964 367.36C280.764 369.973 281.164 372.853 281.164 376C281.164 382.773 279.51 388 276.204 391.68C272.95 395.307 268.337 397.12 262.364 397.12C259.164 397.12 256.39 396.613 254.044 395.6C251.697 394.587 249.724 393.173 248.124 391.36C246.577 389.493 245.404 387.253 244.604 384.64C243.857 382.027 243.484 379.147 243.484 376ZM254.204 376C254.204 377.76 254.364 379.387 254.684 380.88C255.004 382.373 255.484 383.68 256.124 384.8C256.764 385.92 257.59 386.8 258.604 387.44C259.67 388.027 260.924 388.32 262.364 388.32C265.084 388.32 267.11 387.333 268.444 385.36C269.777 383.387 270.444 380.267 270.444 376C270.444 372.32 269.83 369.36 268.604 367.12C267.377 364.827 265.297 363.68 262.364 363.68C259.804 363.68 257.804 364.64 256.364 366.56C254.924 368.48 254.204 371.627 254.204 376ZM287.253 376C287.253 369.227 288.906 364.027 292.213 360.4C295.519 356.72 300.159 354.88 306.133 354.88C309.333 354.88 312.106 355.387 314.453 356.4C316.799 357.413 318.746 358.853 320.293 360.72C321.839 362.533 322.986 364.747 323.733 367.36C324.533 369.973 324.933 372.853 324.933 376C324.933 382.773 323.279 388 319.973 391.68C316.719 395.307 312.106 397.12 306.133 397.12C302.933 397.12 300.159 396.613 297.813 395.6C295.466 394.587 293.493 393.173 291.893 391.36C290.346 389.493 289.173 387.253 288.373 384.64C287.626 382.027 287.253 379.147 287.253 376ZM297.973 376C297.973 377.76 298.133 379.387 298.453 380.88C298.773 382.373 299.253 383.68 299.893 384.8C300.533 385.92 301.359 386.8 302.373 387.44C303.439 388.027 304.693 388.32 306.133 388.32C308.853 388.32 310.879 387.333 312.213 385.36C313.546 383.387 314.213 380.267 314.213 376C314.213 372.32 313.599 369.36 312.373 367.12C311.146 364.827 309.066 363.68 306.133 363.68C303.573 363.68 301.573 364.64 300.133 366.56C298.693 368.48 297.973 371.627 297.973 376ZM366.941 381.92C366.941 384.16 366.968 386.4 367.021 388.64C367.075 390.88 367.315 393.36 367.741 396.08H360.301L358.861 390.88H358.541C357.475 392.747 355.928 394.267 353.901 395.44C351.928 396.56 349.581 397.12 346.861 397.12C341.848 397.12 337.955 395.467 335.181 392.16C332.408 388.853 331.021 383.68 331.021 376.64C331.021 369.813 332.568 364.507 335.661 360.72C338.755 356.933 343.288 355.04 349.261 355.04C350.915 355.04 352.275 355.147 353.341 355.36C354.408 355.52 355.475 355.813 356.541 356.24V340H366.941V381.92ZM349.261 388.32C351.288 388.32 352.888 387.84 354.061 386.88C355.235 385.867 356.061 384.427 356.541 382.56V365.6C355.795 365.013 354.968 364.587 354.061 364.32C353.155 364 351.981 363.84 350.541 363.84C347.608 363.84 345.395 364.827 343.901 366.8C342.461 368.773 341.741 372.16 341.741 376.96C341.741 380.373 342.328 383.12 343.501 385.2C344.728 387.28 346.648 388.32 349.261 388.32Z" fill="#000C13"/>
</g>
<defs>
<clipPath id="clip0">
<rect width="768" height="768" fill="white"/>
</clipPath>
</defs>
</svg>
