<svg width="1280" height="720" viewBox="0 0 1280 720" fill="none" xmlns="http://www.w3.org/2000/svg">
<rect width="1280" height="720" fill="#E4E4E4"/>
<g clip-path="url(#clip0)">
<path d="M672.163 452.713C672.153 452.723 672.142 452.723 672.142 452.734C664.474 458.158 655.396 463.856 645.629 469.839L645.243 470.062C645.111 470.153 645.081 470.335 645.172 470.467C645.264 470.599 645.446 470.629 645.578 470.538L645.903 470.366C654.189 466.046 663.703 460.916 673.278 455.654C673.329 455.623 673.38 455.593 673.431 455.573C672.903 454.701 672.467 453.747 672.163 452.713ZM722.472 412.004C710.392 398.681 632.646 410.666 599.59 417.885L598.819 418.047C598.656 418.077 598.555 418.23 598.585 418.382C598.616 418.544 598.768 418.645 598.92 418.615L599.681 418.463C627.067 413.586 684.03 406.833 696.283 418.98C700.026 422.691 699.133 427.456 694.792 433.094C697.125 434.594 698.788 436.957 699.539 439.907C716.477 428.673 727.848 417.936 722.472 412.004Z" fill="#D03027"/>
<path d="M677.052 449.215C677.204 453.899 680.176 457.742 684.041 457.742C691.537 457.742 694.732 448.536 694.508 442.391C694.346 437.697 691.303 433.864 687.439 433.864C680.998 433.854 676.829 443.02 677.052 449.215ZM673.097 448.962C672.823 440.962 679.091 432.779 688.199 432.779C694.285 432.779 698.271 436.835 698.495 443.05C698.789 451.486 692.926 459.233 683.402 459.233C677.296 459.233 673.31 455.187 673.097 448.962Z" fill="#004977"/>
<path d="M586.831 446.853C586.507 446.975 586.091 447.096 585.563 447.208C585.046 447.329 584.093 447.492 582.713 447.715C581.76 447.867 581.1 448.06 580.725 448.333C580.37 448.597 580.157 448.911 580.096 449.307C580.025 449.722 580.157 450.047 580.512 450.31C580.877 450.564 581.486 450.696 582.348 450.696C582.997 450.696 583.626 450.594 584.235 450.392C584.853 450.189 585.381 449.915 585.776 449.57C586.07 449.317 586.283 448.992 586.446 448.597C586.547 448.333 586.679 447.755 586.831 446.853ZM594.743 441.935C594.712 442.665 594.58 443.314 594.388 444.44L593.049 451.953C592.937 452.622 593.181 453.139 593.799 453.504L593.759 453.798L586.091 453.788L586.02 451.882C584.904 452.551 583.555 453.119 582.338 453.454C581.121 453.768 580.137 453.9 578.666 453.9C576.191 453.9 574.771 453.646 573.787 452.784C572.793 451.902 572.306 451.314 572.357 450.098C572.398 449.398 572.763 448.496 573.28 447.867C573.808 447.228 574.538 446.812 575.319 446.437C576.11 446.062 577.043 445.788 578.392 445.575C579.751 445.352 581.638 445.139 584.164 444.926C585.492 444.815 586.304 444.511 586.679 444.359C587.206 444.156 587.419 443.923 587.49 443.497C587.632 442.726 587.389 442.28 586.354 442.077C583.596 441.53 578.412 442.432 575.745 443.091L577.195 439.177C580.715 438.66 584.011 438.336 587.49 438.336C593.039 438.336 594.804 439.908 594.743 441.935Z" fill="#004977"/>
<path d="M616.979 453.788L619.636 438.772H626.98L624.322 453.788H616.979ZM620.042 435.294C620.265 434.057 622.212 433.063 624.383 433.063C626.564 433.063 628.156 434.067 627.943 435.294C627.71 436.531 625.772 437.535 623.582 437.535C621.411 437.535 619.829 436.531 620.042 435.294Z" fill="#004977"/>
<path d="M653.054 446.883C652.719 446.995 652.293 447.116 651.776 447.238C651.259 447.36 650.305 447.512 648.926 447.735C647.982 447.887 647.313 448.079 646.948 448.353C646.593 448.607 646.39 448.931 646.309 449.316C646.228 449.732 646.38 450.067 646.725 450.32C647.1 450.574 647.709 450.695 648.571 450.695C649.21 450.695 649.839 450.604 650.457 450.411C651.086 450.199 651.603 449.935 652.009 449.59C652.293 449.337 652.506 449.002 652.658 448.617C652.76 448.363 652.892 447.785 653.054 446.883ZM660.965 441.955C660.935 442.695 660.803 443.344 660.6 444.46L659.272 451.983C659.16 452.642 659.403 453.169 660.022 453.534L659.982 453.798L652.313 453.808L652.253 451.892C651.137 452.571 649.778 453.139 648.571 453.463C647.354 453.788 646.37 453.92 644.879 453.92C642.404 453.92 640.994 453.676 640.01 452.804C639.006 451.912 638.529 451.334 638.58 450.117C638.61 449.408 638.975 448.505 639.503 447.887C640.03 447.238 640.761 446.832 641.552 446.457C642.343 446.082 643.276 445.808 644.615 445.585C645.974 445.372 647.871 445.149 650.396 444.936C651.715 444.825 652.526 444.531 652.902 444.379C653.439 444.176 653.642 443.943 653.723 443.507C653.855 442.746 653.622 442.3 652.597 442.087C649.818 441.54 644.655 442.442 641.988 443.101L643.428 439.187C646.958 438.67 650.244 438.346 653.723 438.346C659.251 438.356 661.016 439.938 660.965 441.955Z" fill="#004977"/>
<path d="M571.365 448.394C568.971 448.871 567.632 449.053 565.269 449.053C561.759 449.053 558.97 447.309 559.122 444.115C559.233 441.986 561.749 437.505 568.149 437.505C570.168 437.505 571.74 437.859 573.86 439.066L574.793 433.854C571.912 432.77 570.005 432.607 567.53 432.628C559.132 432.719 551.079 436.531 550.074 444.288C549.06 452.166 558.686 454.143 562.956 454.123C565.421 454.113 567.987 454.011 570.381 453.768L571.365 448.394Z" fill="#004977"/>
<path d="M631.024 438.691L631.551 435.629L639.23 433.956L638.408 438.681H642.171L641.461 441.702L637.81 441.692L635.588 453.768C635.588 453.768 628.194 453.717 628.164 453.768L630.375 441.723H627.596L628.164 438.681H631.024V438.691Z" fill="#004977"/>
<path d="M671.993 433.043L668.423 453.777L660.947 453.788L664.71 432.84L671.993 433.043Z" fill="#004977"/>
<path d="M607.261 442.29C606.297 442.29 605.425 442.584 604.654 443.162C603.883 443.75 603.397 444.602 603.204 445.727C602.971 447.035 603.113 447.978 603.63 448.556C604.157 449.134 604.908 449.428 605.902 449.428C606.571 449.428 607.261 449.307 607.768 449.053C608.397 448.718 608.833 448.374 609.209 447.816C609.614 447.238 609.878 446.589 610.02 445.839C610.233 444.653 610.05 443.771 609.503 443.182C608.965 442.594 608.225 442.29 607.261 442.29ZM593.893 458.969L597.473 438.853H603.924L603.427 441.418C603.985 440.648 604.877 440.019 606.115 439.512C607.362 439.005 608.762 438.63 610.284 438.63C611.967 438.63 613.002 438.721 614.26 439.37C615.507 440.029 616.39 440.982 616.856 442.219C617.343 443.436 617.445 444.815 617.181 446.305C616.745 448.789 615.538 450.736 613.55 452.176C611.582 453.616 609.807 453.991 607.281 454.001C606.389 454.001 605.638 453.91 605.019 453.758C604.411 453.595 603.924 453.403 603.559 453.17C603.204 452.936 602.829 452.602 602.352 452.075L601.155 458.969H593.893Z" fill="#004977"/>
<path d="M727.189 444.135C727.149 442.929 726.54 442.108 725.292 442.108C722.28 442.108 719.075 448.009 718.527 450.381C723.467 450.391 727.311 447.451 727.189 444.135ZM727.838 453.382L728.416 453.778C726.946 456.769 723.954 459.172 720.444 459.172C717.574 459.172 715.21 457.256 715.089 453.666C714.855 447.228 720.89 441.256 725.83 441.256C727.95 441.256 729.918 442.179 729.999 444.46C730.181 449.58 722.99 451.142 718.253 451.253C718.101 451.791 718.04 452.328 718.071 453.139C718.152 455.258 719.43 457.043 722.087 457.043C724.38 457.043 726.672 455.197 727.838 453.382Z" fill="#004977"/>
<path d="M698.381 443.974C698.888 443.903 699.71 443.811 700.065 443.811C700.602 443.811 701.109 443.913 701.14 444.45C701.15 444.764 700.582 447.046 700.46 447.573L699.314 452.622C698.848 454.691 698.351 456.85 697.904 458.564H700.846L702.499 450.564C707.54 445.312 709.488 443.598 710.674 443.598C711.212 443.598 711.577 443.882 711.607 444.521C711.638 445.444 711.06 447.543 710.867 448.151L709.183 453.981C708.798 455.289 708.514 456.475 708.544 457.317C708.595 458.594 709.366 459.162 710.522 459.162C712.673 459.162 714.235 456.921 715.594 454.721L715.198 454.001C714.65 454.883 713.372 456.82 712.368 456.82C712.054 456.82 711.75 456.607 711.739 456.08C711.709 455.401 711.993 454.376 712.196 453.697L714.072 446.863C714.579 444.977 714.813 443.771 714.803 443.122C714.752 441.844 714.011 441.246 712.865 441.246C710.928 441.246 708.362 442.666 702.915 448.922H702.834L703.524 445.87C703.899 444.197 704.264 442.453 704.609 441.246C702.722 441.925 700.024 442.686 698.361 443.01L698.381 443.974Z" fill="#004977"/>
</g>
<path d="M311.688 330.144C310.408 331.125 308.787 331.808 306.824 332.192C304.862 332.576 302.771 332.768 300.552 332.768C297.864 332.768 295.347 332.32 293 331.424C290.654 330.485 288.606 329.077 286.856 327.2C285.107 325.323 283.72 322.933 282.696 320.032C281.672 317.088 281.16 313.611 281.16 309.6C281.16 305.419 281.715 301.877 282.824 298.976C283.976 296.032 285.47 293.643 287.304 291.808C289.182 289.931 291.272 288.565 293.576 287.712C295.88 286.859 298.227 286.432 300.616 286.432C303.176 286.432 305.267 286.581 306.888 286.88C308.51 287.136 309.896 287.499 311.048 287.968L309.768 292.64C307.72 291.659 304.798 291.168 301 291.168C299.251 291.168 297.523 291.488 295.816 292.128C294.11 292.768 292.574 293.813 291.208 295.264C289.886 296.715 288.819 298.613 288.008 300.96C287.198 303.307 286.792 306.187 286.792 309.6C286.792 312.672 287.176 315.36 287.944 317.664C288.712 319.968 289.758 321.888 291.08 323.424C292.446 324.96 294.024 326.112 295.816 326.88C297.651 327.648 299.635 328.032 301.768 328.032C303.688 328.032 305.352 327.84 306.76 327.456C308.211 327.072 309.427 326.581 310.408 325.984L311.688 330.144ZM340.891 332V313.76C340.891 312.096 340.784 310.645 340.571 309.408C340.4 308.128 340.059 307.083 339.547 306.272C339.035 305.419 338.331 304.779 337.435 304.352C336.581 303.925 335.451 303.712 334.043 303.712C332.037 303.712 330.224 304.373 328.603 305.696C326.981 306.976 325.936 308.64 325.467 310.688V332H320.347V287.2H325.467V303.584H325.723C326.832 302.261 328.155 301.216 329.691 300.448C331.269 299.637 333.211 299.232 335.515 299.232C337.307 299.232 338.864 299.445 340.187 299.872C341.509 300.256 342.597 300.96 343.451 301.984C344.347 303.008 344.987 304.395 345.371 306.144C345.797 307.851 346.011 310.027 346.011 312.672V332H340.891ZM356.115 302.368C357.736 301.387 359.613 300.661 361.747 300.192C363.923 299.723 366.184 299.488 368.531 299.488C370.749 299.488 372.52 299.787 373.843 300.384C375.208 300.981 376.232 301.771 376.915 302.752C377.64 303.691 378.109 304.736 378.323 305.888C378.579 307.04 378.707 308.192 378.707 309.344C378.707 311.904 378.643 314.4 378.515 316.832C378.387 319.264 378.323 321.568 378.323 323.744C378.323 325.323 378.387 326.816 378.515 328.224C378.643 329.632 378.877 330.933 379.219 332.128H375.443L374.099 327.648H373.779C373.395 328.245 372.904 328.843 372.307 329.44C371.752 329.995 371.069 330.507 370.259 330.976C369.448 331.403 368.509 331.765 367.443 332.064C366.376 332.363 365.16 332.512 363.795 332.512C362.429 332.512 361.149 332.299 359.955 331.872C358.803 331.445 357.8 330.848 356.947 330.08C356.093 329.269 355.411 328.309 354.899 327.2C354.429 326.091 354.195 324.832 354.195 323.424C354.195 321.547 354.579 319.989 355.347 318.752C356.115 317.472 357.181 316.469 358.547 315.744C359.955 314.976 361.619 314.443 363.539 314.144C365.501 313.803 367.656 313.632 370.003 313.632C370.6 313.632 371.176 313.632 371.731 313.632C372.328 313.632 372.925 313.675 373.523 313.76C373.651 312.48 373.715 311.328 373.715 310.304C373.715 307.957 373.245 306.315 372.307 305.376C371.368 304.437 369.661 303.968 367.187 303.968C366.461 303.968 365.672 304.032 364.819 304.16C364.008 304.245 363.155 304.395 362.259 304.608C361.405 304.779 360.573 305.013 359.763 305.312C358.995 305.568 358.312 305.867 357.715 306.208L356.115 302.368ZM365.203 328.032C366.397 328.032 367.464 327.883 368.403 327.584C369.341 327.243 370.152 326.837 370.835 326.368C371.517 325.856 372.072 325.301 372.499 324.704C372.968 324.107 373.309 323.531 373.523 322.976V317.664C372.925 317.621 372.307 317.6 371.667 317.6C371.069 317.557 370.472 317.536 369.875 317.536C368.552 317.536 367.251 317.621 365.971 317.792C364.733 317.92 363.624 318.197 362.643 318.624C361.704 319.008 360.936 319.563 360.339 320.288C359.784 320.971 359.507 321.845 359.507 322.912C359.507 324.405 360.04 325.643 361.107 326.624C362.173 327.563 363.539 328.032 365.203 328.032ZM410.201 332V313.76C410.201 310.432 409.71 307.936 408.729 306.272C407.79 304.565 406.041 303.712 403.481 303.712C401.219 303.712 399.342 304.331 397.849 305.568C396.398 306.763 395.374 308.277 394.777 310.112V332H389.657V300H393.241L394.201 303.904H394.457C395.481 302.539 396.846 301.429 398.553 300.576C400.302 299.68 402.371 299.232 404.761 299.232C406.51 299.232 408.046 299.445 409.369 299.872C410.691 300.256 411.779 300.96 412.633 301.984C413.529 303.008 414.19 304.395 414.617 306.144C415.086 307.851 415.321 310.027 415.321 312.672V332H410.201ZM450.449 333.472C450.449 337.611 449.339 340.661 447.121 342.624C444.945 344.587 441.702 345.568 437.393 345.568C434.833 345.568 432.763 345.397 431.185 345.056C429.649 344.757 428.326 344.352 427.217 343.84L428.561 339.488C429.542 339.872 430.63 340.235 431.825 340.576C433.019 340.917 434.577 341.088 436.497 341.088C438.289 341.088 439.739 340.917 440.849 340.576C442.001 340.277 442.918 339.744 443.601 338.976C444.283 338.251 444.753 337.291 445.009 336.096C445.265 334.944 445.393 333.557 445.393 331.936V328.864H445.137C444.283 330.101 443.195 331.061 441.873 331.744C440.55 332.384 438.822 332.704 436.689 332.704C432.379 332.704 429.201 331.36 427.153 328.672C425.147 325.984 424.145 321.803 424.145 316.128C424.145 310.667 425.446 306.528 428.049 303.712C430.651 300.853 434.491 299.424 439.569 299.424C442.001 299.424 444.07 299.616 445.777 300C447.526 300.384 449.083 300.832 450.449 301.344V333.472ZM437.585 328.224C439.761 328.224 441.467 327.691 442.705 326.624C443.942 325.515 444.817 323.808 445.329 321.504V305.12C443.622 304.309 441.446 303.904 438.801 303.904C435.899 303.904 433.617 304.885 431.953 306.848C430.289 308.811 429.457 311.883 429.457 316.064C429.457 317.856 429.606 319.499 429.905 320.992C430.203 322.485 430.673 323.765 431.313 324.832C431.953 325.899 432.785 326.731 433.809 327.328C434.833 327.925 436.091 328.224 437.585 328.224ZM484.952 329.44C483.672 330.464 482.05 331.275 480.088 331.872C478.168 332.469 476.12 332.768 473.944 332.768C471.512 332.768 469.4 332.384 467.608 331.616C465.816 330.805 464.344 329.675 463.192 328.224C462.04 326.731 461.186 324.96 460.632 322.912C460.077 320.864 459.8 318.56 459.8 316C459.8 310.539 461.016 306.379 463.448 303.52C465.88 300.661 469.357 299.232 473.88 299.232C475.33 299.232 476.781 299.403 478.232 299.744C479.682 300.043 480.984 300.64 482.136 301.536C483.288 302.432 484.226 303.712 484.952 305.376C485.677 306.997 486.04 309.152 486.04 311.84C486.04 313.248 485.912 314.805 485.656 316.512H465.112C465.112 318.389 465.304 320.053 465.688 321.504C466.072 322.955 466.669 324.192 467.48 325.216C468.29 326.197 469.336 326.965 470.616 327.52C471.938 328.032 473.538 328.288 475.416 328.288C476.866 328.288 478.317 328.032 479.768 327.52C481.218 327.008 482.306 326.411 483.032 325.728L484.952 329.44ZM473.944 303.712C471.426 303.712 469.4 304.373 467.864 305.696C466.37 307.019 465.474 309.28 465.176 312.48H481.048C481.048 309.237 480.429 306.976 479.192 305.696C477.954 304.373 476.205 303.712 473.944 303.712ZM542.77 297.632C542.77 298.741 542.621 299.851 542.322 300.96C542.066 302.069 541.618 303.093 540.978 304.032C540.338 304.928 539.506 305.739 538.482 306.464C537.458 307.147 536.221 307.659 534.77 308V308.384C536.05 308.597 537.266 308.96 538.418 309.472C539.57 309.984 540.573 310.688 541.426 311.584C542.28 312.48 542.941 313.568 543.41 314.848C543.922 316.128 544.178 317.643 544.178 319.392C544.178 321.696 543.688 323.701 542.706 325.408C541.725 327.072 540.402 328.437 538.738 329.504C537.117 330.571 535.261 331.36 533.17 331.872C531.08 332.384 528.925 332.64 526.706 332.64C525.981 332.64 525.042 332.64 523.89 332.64C522.781 332.64 521.565 332.597 520.242 332.512C518.962 332.469 517.64 332.384 516.274 332.256C514.952 332.128 513.736 331.936 512.626 331.68V287.52C513.437 287.392 514.354 287.264 515.378 287.136C516.445 287.008 517.576 286.901 518.77 286.816C519.965 286.731 521.181 286.667 522.418 286.624C523.698 286.581 524.957 286.56 526.194 286.56C528.285 286.56 530.312 286.731 532.274 287.072C534.28 287.371 536.05 287.925 537.586 288.736C539.165 289.547 540.424 290.677 541.362 292.128C542.301 293.579 542.77 295.413 542.77 297.632ZM526.77 325.408C527.837 325.408 528.861 325.28 529.842 325.024C530.866 324.768 531.762 324.384 532.53 323.872C533.298 323.317 533.917 322.635 534.386 321.824C534.856 321.013 535.09 320.053 535.09 318.944C535.09 317.536 534.813 316.427 534.258 315.616C533.704 314.805 532.978 314.187 532.082 313.76C531.186 313.291 530.184 312.992 529.074 312.864C527.965 312.736 526.856 312.672 525.746 312.672H521.074V325.024C521.288 325.109 521.629 325.173 522.098 325.216C522.568 325.259 523.058 325.301 523.57 325.344C524.125 325.344 524.68 325.365 525.234 325.408C525.832 325.408 526.344 325.408 526.77 325.408ZM523.89 306.016C524.488 306.016 525.17 305.995 525.938 305.952C526.749 305.909 527.41 305.845 527.922 305.76C529.544 305.248 530.93 304.48 532.082 303.456C533.277 302.432 533.874 301.088 533.874 299.424C533.874 298.315 533.661 297.397 533.234 296.672C532.808 295.947 532.232 295.371 531.506 294.944C530.824 294.517 530.034 294.219 529.138 294.048C528.242 293.877 527.304 293.792 526.322 293.792C525.213 293.792 524.189 293.813 523.25 293.856C522.312 293.899 521.586 293.963 521.074 294.048V306.016H523.89ZM551.335 301.856C553.041 301.088 555.068 300.491 557.415 300.064C559.761 299.595 562.215 299.36 564.775 299.36C566.993 299.36 568.849 299.637 570.343 300.192C571.836 300.704 573.009 301.451 573.863 302.432C574.759 303.413 575.377 304.587 575.719 305.952C576.103 307.317 576.295 308.853 576.295 310.56C576.295 312.437 576.231 314.336 576.103 316.256C575.975 318.133 575.889 319.989 575.847 321.824C575.847 323.659 575.911 325.451 576.039 327.2C576.167 328.907 576.487 330.528 576.999 332.064H570.215L568.871 327.648H568.551C567.697 328.971 566.503 330.123 564.967 331.104C563.473 332.043 561.532 332.512 559.143 332.512C557.649 332.512 556.305 332.299 555.111 331.872C553.916 331.403 552.892 330.763 552.039 329.952C551.185 329.099 550.524 328.117 550.055 327.008C549.585 325.856 549.351 324.576 549.351 323.168C549.351 321.205 549.777 319.563 550.631 318.24C551.527 316.875 552.785 315.787 554.407 314.976C556.071 314.123 558.033 313.547 560.295 313.248C562.599 312.907 565.159 312.8 567.975 312.928C568.273 310.539 568.103 308.832 567.463 307.808C566.823 306.741 565.393 306.208 563.175 306.208C561.511 306.208 559.74 306.379 557.863 306.72C556.028 307.061 554.513 307.509 553.319 308.064L551.335 301.856ZM561.895 325.664C563.559 325.664 564.881 325.301 565.863 324.576C566.844 323.808 567.569 322.997 568.039 322.144V317.984C566.716 317.856 565.436 317.835 564.199 317.92C563.004 318.005 561.937 318.197 560.999 318.496C560.06 318.795 559.313 319.221 558.759 319.776C558.204 320.331 557.927 321.035 557.927 321.888C557.927 323.083 558.268 324.021 558.951 324.704C559.676 325.344 560.657 325.664 561.895 325.664ZM604.141 332V313.824C604.141 311.221 603.757 309.344 602.989 308.192C602.263 307.04 601.005 306.464 599.213 306.464C597.634 306.464 596.29 306.933 595.181 307.872C594.114 308.768 593.346 309.899 592.877 311.264V332H584.557V300H591.149L592.109 304.224H592.365C593.346 302.859 594.647 301.664 596.269 300.64C597.89 299.616 599.981 299.104 602.541 299.104C604.119 299.104 605.527 299.317 606.765 299.744C608.002 300.171 609.047 300.875 609.901 301.856C610.754 302.837 611.394 304.181 611.821 305.888C612.247 307.552 612.461 309.621 612.461 312.096V332H604.141ZM631.272 318.752H629.032V332H620.712V287.2H629.032V313.632L630.952 312.736L638.248 300H647.4L639.72 312.16L636.456 314.592L639.976 317.088L648.616 332H639.08L631.272 318.752ZM654.197 300H662.517V332H654.197V300ZM652.981 290.976C652.981 289.739 653.429 288.693 654.325 287.84C655.264 286.944 656.544 286.496 658.165 286.496C659.787 286.496 661.088 286.944 662.069 287.84C663.093 288.693 663.605 289.739 663.605 290.976C663.605 292.213 663.093 293.259 662.069 294.112C661.088 294.923 659.787 295.328 658.165 295.328C656.544 295.328 655.264 294.923 654.325 294.112C653.429 293.259 652.981 292.213 652.981 290.976ZM691.481 332V313.824C691.481 311.221 691.097 309.344 690.329 308.192C689.603 307.04 688.345 306.464 686.553 306.464C684.974 306.464 683.63 306.933 682.521 307.872C681.454 308.768 680.686 309.899 680.217 311.264V332H671.897V300H678.489L679.449 304.224H679.705C680.686 302.859 681.987 301.664 683.609 300.64C685.23 299.616 687.321 299.104 689.881 299.104C691.459 299.104 692.867 299.317 694.105 299.744C695.342 300.171 696.387 300.875 697.241 301.856C698.094 302.837 698.734 304.181 699.161 305.888C699.587 307.552 699.801 309.621 699.801 312.096V332H691.481ZM735.124 332C735.124 336.651 733.865 340.064 731.348 342.24C728.83 344.459 725.31 345.568 720.788 345.568C717.716 345.568 715.284 345.355 713.492 344.928C711.742 344.501 710.42 344.053 709.524 343.584L711.252 336.992C712.233 337.376 713.364 337.76 714.644 338.144C715.966 338.528 717.588 338.72 719.508 338.72C722.409 338.72 724.372 338.08 725.396 336.8C726.462 335.563 726.996 333.813 726.996 331.552V329.504H726.74C725.246 331.509 722.601 332.512 718.804 332.512C714.665 332.512 711.572 331.232 709.524 328.672C707.518 326.112 706.516 322.101 706.516 316.64C706.516 310.923 707.881 306.592 710.612 303.648C713.342 300.704 717.31 299.232 722.516 299.232C725.246 299.232 727.678 299.424 729.812 299.808C731.988 300.192 733.758 300.64 735.124 301.152V332ZM721.044 325.856C722.665 325.856 723.902 325.493 724.756 324.768C725.652 324.043 726.334 322.955 726.804 321.504V307.104C725.481 306.549 723.838 306.272 721.876 306.272C719.742 306.272 718.078 307.083 716.884 308.704C715.689 310.283 715.092 312.821 715.092 316.32C715.092 319.435 715.604 321.803 716.628 323.424C717.652 325.045 719.124 325.856 721.044 325.856ZM759.747 300H764.739V298.208C764.739 296.245 764.888 294.539 765.187 293.088C765.528 291.637 766.061 290.464 766.787 289.568C767.512 288.629 768.451 287.947 769.603 287.52C770.755 287.051 772.184 286.816 773.891 286.816C775.256 286.816 776.451 286.901 777.475 287.072C778.541 287.243 779.651 287.563 780.803 288.032L779.651 292.32C778.669 291.893 777.731 291.616 776.835 291.488C775.981 291.36 775.171 291.296 774.403 291.296C773.293 291.296 772.419 291.467 771.779 291.808C771.181 292.149 770.733 292.661 770.435 293.344C770.179 293.984 770.008 294.795 769.923 295.776C769.88 296.715 769.859 297.824 769.859 299.104V300H778.371V304.48H769.859V332H764.739V304.48H759.747V300ZM782.505 316C782.505 310.581 783.699 306.443 786.089 303.584C788.521 300.683 791.998 299.232 796.521 299.232C798.91 299.232 800.979 299.637 802.729 300.448C804.521 301.216 805.993 302.347 807.145 303.84C808.297 305.291 809.15 307.061 809.705 309.152C810.259 311.2 810.537 313.483 810.537 316C810.537 321.419 809.321 325.579 806.889 328.48C804.499 331.339 801.043 332.768 796.521 332.768C794.131 332.768 792.041 332.384 790.249 331.616C788.499 330.805 787.049 329.675 785.897 328.224C784.745 326.731 783.891 324.96 783.337 322.912C782.782 320.821 782.505 318.517 782.505 316ZM787.817 316C787.817 317.621 787.966 319.179 788.265 320.672C788.606 322.165 789.118 323.467 789.801 324.576C790.483 325.685 791.379 326.581 792.489 327.264C793.598 327.947 794.942 328.288 796.521 328.288C802.323 328.331 805.225 324.235 805.225 316C805.225 314.336 805.054 312.757 804.713 311.264C804.414 309.771 803.923 308.469 803.241 307.36C802.558 306.251 801.662 305.376 800.553 304.736C799.443 304.053 798.099 303.712 796.521 303.712C790.718 303.669 787.817 307.765 787.817 316ZM834.993 304.928C833.713 304.501 832.497 304.288 831.345 304.288C829.511 304.288 828.06 304.8 826.993 305.824C825.927 306.805 825.265 308.064 825.009 309.6V332H819.889V300H823.473L824.433 303.904H824.689C825.5 302.453 826.46 301.344 827.569 300.576C828.721 299.765 830.172 299.36 831.921 299.36C833.159 299.36 834.545 299.573 836.081 300L834.993 304.928ZM875.982 308.64H892.686V328.608C890.894 330.101 888.739 331.189 886.222 331.872C883.747 332.555 881.294 332.896 878.862 332.896C876.003 332.896 873.336 332.448 870.862 331.552C868.43 330.656 866.318 329.269 864.526 327.392C862.734 325.472 861.326 323.04 860.302 320.096C859.278 317.152 858.766 313.653 858.766 309.6C858.766 305.376 859.363 301.792 860.558 298.848C861.795 295.861 863.395 293.451 865.358 291.616C867.363 289.739 869.603 288.395 872.078 287.584C874.552 286.731 877.07 286.304 879.63 286.304C882.19 286.304 884.43 286.496 886.35 286.88C888.312 287.264 889.87 287.669 891.022 288.096L889.23 295.456C888.163 295.029 886.968 294.709 885.646 294.496C884.323 294.24 882.638 294.112 880.59 294.112C878.755 294.112 877.07 294.389 875.534 294.944C873.998 295.499 872.654 296.416 871.502 297.696C870.392 298.933 869.518 300.533 868.878 302.496C868.28 304.459 867.982 306.848 867.982 309.664C867.982 312.352 868.28 314.677 868.878 316.64C869.475 318.56 870.307 320.16 871.374 321.44C872.44 322.677 873.678 323.595 875.086 324.192C876.536 324.789 878.072 325.088 879.694 325.088C880.803 325.088 881.891 324.96 882.958 324.704C884.024 324.405 884.92 323.979 885.646 323.424V314.976L875.982 313.952V308.64ZM898.726 316C898.726 310.581 900.048 306.421 902.694 303.52C905.339 300.576 909.051 299.104 913.83 299.104C916.39 299.104 918.608 299.509 920.486 300.32C922.363 301.131 923.92 302.283 925.158 303.776C926.395 305.227 927.312 306.997 927.91 309.088C928.55 311.179 928.87 313.483 928.87 316C928.87 321.419 927.547 325.6 924.902 328.544C922.299 331.445 918.608 332.896 913.83 332.896C911.27 332.896 909.051 332.491 907.174 331.68C905.296 330.869 903.718 329.739 902.438 328.288C901.2 326.795 900.262 325.003 899.622 322.912C899.024 320.821 898.726 318.517 898.726 316ZM907.302 316C907.302 317.408 907.43 318.709 907.686 319.904C907.942 321.099 908.326 322.144 908.838 323.04C909.35 323.936 910.011 324.64 910.822 325.152C911.675 325.621 912.678 325.856 913.83 325.856C916.006 325.856 917.627 325.067 918.694 323.488C919.76 321.909 920.294 319.413 920.294 316C920.294 313.056 919.803 310.688 918.822 308.896C917.84 307.061 916.176 306.144 913.83 306.144C911.782 306.144 910.182 306.912 909.03 308.448C907.878 309.984 907.302 312.501 907.302 316ZM934.381 316C934.381 310.581 935.703 306.421 938.349 303.52C940.994 300.576 944.706 299.104 949.485 299.104C952.045 299.104 954.263 299.509 956.141 300.32C958.018 301.131 959.575 302.283 960.813 303.776C962.05 305.227 962.967 306.997 963.565 309.088C964.205 311.179 964.525 313.483 964.525 316C964.525 321.419 963.202 325.6 960.557 328.544C957.954 331.445 954.263 332.896 949.485 332.896C946.925 332.896 944.706 332.491 942.829 331.68C940.951 330.869 939.373 329.739 938.093 328.288C936.855 326.795 935.917 325.003 935.277 322.912C934.679 320.821 934.381 318.517 934.381 316ZM942.957 316C942.957 317.408 943.085 318.709 943.341 319.904C943.597 321.099 943.981 322.144 944.493 323.04C945.005 323.936 945.666 324.64 946.477 325.152C947.33 325.621 948.333 325.856 949.485 325.856C951.661 325.856 953.282 325.067 954.349 323.488C955.415 321.909 955.949 319.413 955.949 316C955.949 313.056 955.458 310.688 954.477 308.896C953.495 307.061 951.831 306.144 949.485 306.144C947.437 306.144 945.837 306.912 944.685 308.448C943.533 309.984 942.957 312.501 942.957 316ZM998.772 320.736C998.772 322.528 998.793 324.32 998.836 326.112C998.878 327.904 999.07 329.888 999.412 332.064H993.46L992.308 327.904H992.052C991.198 329.397 989.961 330.613 988.34 331.552C986.761 332.448 984.884 332.896 982.708 332.896C978.697 332.896 975.582 331.573 973.364 328.928C971.145 326.283 970.036 322.144 970.036 316.512C970.036 311.051 971.273 306.805 973.748 303.776C976.222 300.747 979.849 299.232 984.628 299.232C985.95 299.232 987.038 299.317 987.892 299.488C988.745 299.616 989.598 299.851 990.452 300.192V287.2H998.772V320.736ZM984.628 325.856C986.249 325.856 987.529 325.472 988.468 324.704C989.406 323.893 990.068 322.741 990.452 321.248V307.68C989.854 307.211 989.193 306.869 988.468 306.656C987.742 306.4 986.804 306.272 985.652 306.272C983.305 306.272 981.534 307.061 980.34 308.64C979.188 310.219 978.612 312.928 978.612 316.768C978.612 319.499 979.081 321.696 980.02 323.36C981.001 325.024 982.537 325.856 984.628 325.856Z" fill="#000C13"/>
<rect x="6" y="6" width="1268" height="708" stroke="white" stroke-width="12"/>
<defs>
<clipPath id="clip0">
<rect width="180" height="64.5882" fill="white" transform="translate(550 406)"/>
</clipPath>
</defs>
</svg>
