<svg width="768" height="768" viewBox="0 0 768 768" fill="none" xmlns="http://www.w3.org/2000/svg">
<g clip-path="url(#clip0)">
<rect width="768" height="768" fill="#E7E7E7"/>
<path d="M462.618 411.264C462.593 411.289 462.568 411.289 462.568 411.314C443.824 424.583 421.633 438.522 397.757 453.155L396.815 453.701C396.492 453.924 396.418 454.37 396.641 454.693C396.864 455.015 397.311 455.089 397.633 454.866L398.426 454.445C418.683 443.879 441.94 431.329 465.345 418.457C465.469 418.383 465.593 418.308 465.717 418.258C464.428 416.126 463.361 413.794 462.618 411.264ZM585.595 311.684C556.066 279.094 366.021 308.41 285.218 326.069L283.333 326.466C282.937 326.541 282.689 326.913 282.763 327.285C282.838 327.682 283.209 327.93 283.581 327.855L285.441 327.483C352.384 315.553 491.626 299.035 521.577 328.748C530.726 337.826 528.544 349.483 517.933 363.272C523.635 366.943 527.701 372.722 529.536 379.939C570.942 352.459 598.736 326.193 585.595 311.684Z" fill="#D03027"/>
<path d="M474.568 402.708C474.94 414.166 482.204 423.566 491.651 423.566C509.973 423.566 517.783 401.046 517.238 386.016C516.841 374.533 509.403 365.158 499.957 365.158C484.212 365.133 474.022 387.554 474.568 402.708ZM464.898 402.088C464.229 382.519 479.551 362.504 501.816 362.504C516.692 362.504 526.436 372.425 526.982 387.628C527.701 408.264 513.37 427.212 490.089 427.212C475.163 427.212 465.419 417.316 464.898 402.088Z" fill="#004977"/>
<path d="M254.034 396.928C253.241 397.226 252.224 397.524 250.935 397.796C249.67 398.094 247.34 398.491 243.968 399.037C241.637 399.409 240.026 399.88 239.108 400.55C238.24 401.194 237.72 401.963 237.571 402.931C237.397 403.947 237.72 404.741 238.588 405.386C239.48 406.006 240.968 406.328 243.075 406.328C244.662 406.328 246.199 406.08 247.687 405.584C249.199 405.088 250.489 404.419 251.456 403.575C252.175 402.955 252.695 402.162 253.092 401.194C253.34 400.55 253.662 399.136 254.034 396.928ZM273.373 384.899C273.299 386.685 272.977 388.273 272.506 391.026L269.233 409.404C268.96 411.041 269.555 412.306 271.067 413.199L270.968 413.918L252.224 413.893L252.051 409.23C249.323 410.867 246.026 412.256 243.05 413.075C240.075 413.843 237.67 414.166 234.075 414.166C228.025 414.166 224.554 413.546 222.149 411.438C219.719 409.28 218.529 407.841 218.653 404.865C218.752 403.154 219.645 400.946 220.91 399.409C222.199 397.846 223.984 396.829 225.893 395.912C227.827 394.994 230.108 394.324 233.406 393.803C236.728 393.258 241.34 392.737 247.513 392.216C250.761 391.943 252.745 391.199 253.662 390.827C254.951 390.331 255.472 389.761 255.646 388.719C255.993 386.834 255.398 385.743 252.869 385.247C246.125 383.907 233.455 386.115 226.934 387.727L230.48 378.153C239.083 376.888 247.141 376.095 255.646 376.095C269.208 376.095 273.522 379.939 273.373 384.899Z" fill="#004977"/>
<path d="M327.725 413.893L334.221 377.161H352.171L345.675 413.893H327.725ZM335.212 368.654C335.758 365.628 340.518 363.198 345.824 363.198C351.155 363.198 355.047 365.653 354.527 368.654C353.957 371.68 349.221 374.135 343.865 374.135C338.56 374.135 334.692 371.68 335.212 368.654Z" fill="#004977"/>
<path d="M415.907 397.003C415.089 397.276 414.048 397.573 412.783 397.871C411.519 398.169 409.188 398.541 405.816 399.086C403.51 399.458 401.874 399.93 400.981 400.599C400.114 401.219 399.618 402.013 399.419 402.955C399.221 403.972 399.593 404.791 400.436 405.411C401.353 406.031 402.841 406.328 404.948 406.328C406.51 406.328 408.048 406.105 409.56 405.634C411.097 405.113 412.362 404.468 413.354 403.625C414.048 403.005 414.568 402.187 414.94 401.244C415.188 400.624 415.511 399.21 415.907 397.003ZM435.246 384.949C435.172 386.76 434.85 388.347 434.354 391.075L431.106 409.478C430.833 411.09 431.428 412.38 432.941 413.273L432.841 413.918L414.097 413.943L413.949 409.255C411.221 410.917 407.899 412.306 404.948 413.099C401.973 413.893 399.568 414.216 395.923 414.216C389.874 414.216 386.427 413.62 384.022 411.487C381.568 409.305 380.403 407.891 380.527 404.915C380.601 403.179 381.493 400.971 382.783 399.458C384.072 397.871 385.857 396.879 387.791 395.961C389.725 395.044 392.006 394.374 395.279 393.828C398.601 393.307 403.238 392.762 409.411 392.241C412.635 391.968 414.618 391.249 415.535 390.877C416.849 390.381 417.345 389.81 417.544 388.744C417.866 386.884 417.296 385.792 414.792 385.272C407.998 383.932 395.378 386.14 388.857 387.752L392.378 378.178C401.006 376.913 409.039 376.12 417.544 376.12C431.056 376.144 435.37 380.014 435.246 384.949Z" fill="#004977"/>
<path d="M216.224 400.698C210.373 401.864 207.1 402.311 201.323 402.311C192.744 402.311 185.926 398.045 186.298 390.232C186.571 385.024 192.719 374.061 208.364 374.061C213.298 374.061 217.141 374.929 222.323 377.881L224.604 365.132C217.563 362.479 212.902 362.082 206.852 362.131C186.323 362.355 166.636 371.68 164.182 390.654C161.702 409.925 185.232 414.761 195.67 414.712C201.695 414.687 207.968 414.439 213.819 413.844L216.224 400.698Z" fill="#004977"/>
<path d="M362.06 376.963L363.349 369.473L382.118 365.38L380.11 376.938H389.308L387.573 384.329L378.647 384.304L373.217 413.843C373.217 413.843 355.143 413.719 355.068 413.843L360.473 384.379H353.68L355.068 376.938H362.06V376.963Z" fill="#004977"/>
<path d="M462.206 363.147L453.478 413.867L435.205 413.892L444.404 362.651L462.206 363.147Z" fill="#004977"/>
<path d="M303.969 385.767C301.614 385.767 299.482 386.487 297.597 387.9C295.713 389.339 294.523 391.422 294.052 394.175C293.482 397.375 293.829 399.681 295.093 401.095C296.382 402.509 298.217 403.228 300.647 403.228C302.283 403.228 303.969 402.93 305.209 402.31C306.746 401.492 307.812 400.649 308.73 399.285C309.721 397.871 310.366 396.284 310.713 394.448C311.234 391.546 310.788 389.389 309.449 387.95C308.135 386.512 306.325 385.767 303.969 385.767ZM271.291 426.567L280.043 377.36H295.812L294.597 383.635C295.961 381.75 298.143 380.212 301.168 378.972C304.217 377.732 307.639 376.814 311.358 376.814C315.474 376.814 318.003 377.037 321.077 378.625C324.127 380.237 326.284 382.568 327.424 385.594C328.614 388.57 328.862 391.943 328.218 395.589C327.152 401.666 324.201 406.428 319.341 409.949C314.531 413.471 310.193 414.389 304.019 414.414C301.837 414.414 300.002 414.191 298.49 413.819C297.002 413.422 295.812 412.951 294.92 412.38C294.052 411.81 293.134 410.991 291.969 409.701L289.043 426.567H271.291Z" fill="#004977"/>
<path d="M597.124 390.281C597.025 387.33 595.538 385.321 592.488 385.321C585.124 385.321 577.289 399.755 575.95 405.559C588.025 405.584 597.422 398.391 597.124 390.281ZM598.711 412.901L600.124 413.868C596.529 421.184 589.215 427.062 580.636 427.062C573.62 427.062 567.843 422.375 567.545 413.595C566.975 397.846 581.727 383.237 593.802 383.237C598.984 383.237 603.794 385.494 603.992 391.075C604.439 403.6 586.86 407.419 575.281 407.692C574.909 409.007 574.76 410.321 574.835 412.305C575.033 417.489 578.157 421.854 584.653 421.854C590.257 421.854 595.86 417.34 598.711 412.901Z" fill="#004977"/>
<path d="M526.71 389.885C527.95 389.711 529.958 389.488 530.826 389.488C532.14 389.488 533.38 389.736 533.454 391.05C533.479 391.819 532.09 397.4 531.793 398.689L528.991 411.041C527.851 416.1 526.636 421.383 525.545 425.575H532.735L536.777 406.006C549.099 393.158 553.859 388.967 556.76 388.967C558.074 388.967 558.967 389.661 559.041 391.224C559.116 393.481 557.703 398.615 557.231 400.103L553.116 414.364C552.174 417.564 551.479 420.466 551.554 422.524C551.678 425.649 553.562 427.038 556.388 427.038C561.645 427.038 565.463 421.557 568.785 416.175L567.818 414.414C566.48 416.572 563.356 421.309 560.901 421.309C560.132 421.309 559.389 420.788 559.364 419.498C559.289 417.836 559.984 415.331 560.479 413.67L565.066 396.953C566.306 392.34 566.876 389.389 566.851 387.801C566.727 384.676 564.918 383.213 562.116 383.213C557.38 383.213 551.107 386.685 537.793 401.988H537.595L539.281 394.523C540.198 390.43 541.091 386.164 541.934 383.213C537.322 384.875 530.727 386.735 526.661 387.528L526.71 389.885Z" fill="#004977"/>
<rect x="6" y="6" width="756" height="756" stroke="white" stroke-width="12"/>
</g>
<defs>
<clipPath id="clip0">
<rect width="768" height="768" fill="white"/>
</clipPath>
</defs>
</svg>
