<svg width="1280" height="720" viewBox="0 0 1280 720" fill="none" xmlns="http://www.w3.org/2000/svg">
<rect width="1280" height="720" fill="#3D2B2F"/>
<g filter="url(#filter0_d_15438_56)">
<path fill-rule="evenodd" clip-rule="evenodd" d="M86.2609 167.423C125.839 165.795 157.428 133.03 157.428 92.8562L83.1667 92.8562L83.1667 92.9169C43.5885 94.5445 11.9999 127.309 11.9999 167.483L86.2609 167.483L86.2609 167.423ZM157.428 12L157.428 86.6273L11.9999 86.6273L11.9999 12L157.428 12Z" fill="#62474E"/>
</g>
<mask id="path-2-inside-1_15438_56" fill="white">
<path fill-rule="evenodd" clip-rule="evenodd" d="M86.2609 248.516C125.839 246.886 157.428 214.062 157.428 173.815L83.1667 173.815L83.1667 173.876C43.5885 175.507 11.9999 208.331 11.9999 248.577L86.2609 248.577L86.2609 248.516ZM86.4943 92.9691L86.4943 92.9082L82.9334 92.9082L82.9334 92.9691C43.4848 94.5996 11.9999 127.424 11.9999 167.67L157.428 167.67C157.428 127.424 125.943 94.5996 86.4943 92.9691Z"/>
</mask>
<path d="M157.428 173.815L159.928 173.815L159.928 171.315L157.428 171.315L157.428 173.815ZM86.2609 248.516L86.158 246.019L83.7609 246.117L83.7609 248.516L86.2609 248.516ZM83.1667 173.815L83.1667 171.315L80.6667 171.315L80.6667 173.815L83.1667 173.815ZM83.1667 173.876L83.2696 176.374L85.6667 176.275L85.6667 173.876L83.1667 173.876ZM11.9999 248.577L9.4999 248.577L9.4999 251.077L11.9999 251.077L11.9999 248.577ZM86.2609 248.577L86.2609 251.077L88.7609 251.077L88.7609 248.577L86.2609 248.577ZM86.4943 92.9082L88.9943 92.9082L88.9943 90.4082L86.4943 90.4082L86.4943 92.9082ZM86.4943 92.9691L83.9943 92.9691L83.9943 95.3679L86.391 95.467L86.4943 92.9691ZM82.9334 92.9082L82.9334 90.4082L80.4334 90.4082L80.4334 92.9082L82.9334 92.9082ZM82.9334 92.9691L83.0366 95.467L85.4334 95.3679L85.4334 92.9691L82.9334 92.9691ZM11.9999 167.67L9.49989 167.67L9.49989 170.17L11.9999 170.17L11.9999 167.67ZM157.428 167.67L157.428 170.17L159.928 170.17L159.928 167.67L157.428 167.67ZM154.928 173.815C154.928 212.731 124.387 244.444 86.158 246.019L86.3638 251.014C127.291 249.328 159.928 215.393 159.928 173.815L154.928 173.815ZM83.1667 176.315L157.428 176.315L157.428 171.315L83.1667 171.315L83.1667 176.315ZM85.6667 173.876L85.6667 173.815L80.6667 173.815L80.6667 173.876L85.6667 173.876ZM14.4999 248.577C14.4999 209.662 45.0406 177.949 83.2696 176.374L83.0638 171.378C42.1363 173.064 9.4999 207 9.4999 248.577L14.4999 248.577ZM86.2609 246.077L11.9999 246.077L11.9999 251.077L86.2609 251.077L86.2609 246.077ZM83.7609 248.516L83.7609 248.577L88.7609 248.577L88.7609 248.516L83.7609 248.516ZM83.9943 92.9082L83.9943 92.9691L88.9943 92.9691L88.9943 92.9082L83.9943 92.9082ZM82.9334 95.4082L86.4943 95.4082L86.4943 90.4082L82.9334 90.4082L82.9334 95.4082ZM85.4334 92.9691L85.4334 92.9082L80.4334 92.9082L80.4334 92.9691L85.4334 92.9691ZM14.4999 167.67C14.4999 128.747 44.9444 97.0414 83.0366 95.467L82.8301 90.4712C42.0253 92.1578 9.49989 126.1 9.49989 167.67L14.4999 167.67ZM157.428 165.17L11.9999 165.17L11.9999 170.17L157.428 170.17L157.428 165.17ZM86.391 95.467C124.483 97.0415 154.928 128.747 154.928 167.67L159.928 167.67C159.928 126.1 127.402 92.1578 86.5975 90.4712L86.391 95.467Z" fill="#DA9218" mask="url(#path-2-inside-1_15438_56)"/>
<path d="M1092 339.581C1092 292.948 1130.17 254.916 1177.99 253.026L1177.99 252.956L1267.73 252.956C1267.73 299.589 1229.56 337.621 1181.73 339.511L1181.73 339.581L1092 339.581Z" fill="#784853"/>
<path d="M1177.99 431.086L1177.99 431.156L1267.73 431.156L1267.73 344.531L1181.73 344.531L1092 344.531L1092 431.156L1177.99 431.086Z" fill="#784853"/>
<path d="M1267.72 527.683C1267.72 574.316 1229.56 612.348 1181.73 614.237L1181.73 614.308L1092 614.308L1092 527.683L1177.99 527.683L1267.72 527.683Z" fill="#62474E"/>
<path d="M1267.72 705.883C1267.72 659.25 1229.56 621.217 1181.73 619.328L1181.73 619.258L1092 619.258L1092 705.883L1177.99 705.883L1267.72 705.883Z" fill="#62474E"/>
<path d="M1179.49 338.081L1266.23 338.081L1266.23 254.456L1181.73 254.456L1093.5 254.456L1093.5 338.08L1177.99 338.011L1179.49 338.009L1179.49 338.081Z" stroke="#DA9218" stroke-width="3"/>
<path d="M1179.86 247.125C1133.32 247.125 1095.36 210.004 1093.55 163.5L1266.18 163.5C1264.37 210.004 1226.41 247.125 1179.86 247.125Z" stroke="#DA9218" stroke-width="3"/>
<path d="M1179.86 612.808C1133.32 612.808 1095.36 575.686 1093.55 529.182L1266.18 529.182C1264.37 575.686 1226.41 612.808 1179.86 612.808Z" stroke="#DA9218" stroke-width="3"/>
<path d="M1179.86 438.95C1133.32 438.95 1095.36 476.071 1093.55 522.575L1266.18 522.575C1264.37 476.071 1226.41 438.95 1179.86 438.95Z" stroke="#DA9218" stroke-width="3"/>
<rect x="229.117" y="338.457" width="792.001" height="1.85625" fill="#DA9218"/>
<rect x="6" y="6" width="1268" height="708" stroke="white" stroke-width="12"/>
<path d="M234.44 259.2C235.251 259.072 236.147 258.987 237.128 258.944C238.152 258.859 239.197 258.816 240.264 258.816C241.373 258.773 242.44 258.752 243.464 258.752C244.531 258.709 245.512 258.688 246.408 258.688C249.992 258.688 253.085 259.243 255.688 260.352C258.333 261.461 260.509 263.019 262.216 265.024C263.923 266.987 265.181 269.355 265.992 272.128C266.845 274.901 267.272 277.952 267.272 281.28C267.272 284.309 266.867 287.232 266.056 290.048C265.288 292.821 264.051 295.296 262.344 297.472C260.637 299.605 258.419 301.333 255.688 302.656C252.957 303.936 249.651 304.576 245.768 304.576C245.085 304.576 244.189 304.555 243.08 304.512C242.013 304.512 240.904 304.469 239.752 304.384C238.6 304.341 237.533 304.299 236.552 304.256C235.571 304.213 234.867 304.149 234.44 304.064V259.2ZM246.536 263.424C245.981 263.424 245.363 263.424 244.68 263.424C244.04 263.424 243.4 263.445 242.76 263.488C242.12 263.531 241.523 263.573 240.968 263.616C240.456 263.659 240.051 263.701 239.752 263.744V299.584C239.965 299.627 240.371 299.669 240.968 299.712C241.565 299.712 242.184 299.733 242.824 299.776C243.464 299.776 244.083 299.797 244.68 299.84C245.277 299.84 245.683 299.84 245.896 299.84C248.883 299.84 251.379 299.328 253.384 298.304C255.432 297.28 257.053 295.915 258.248 294.208C259.485 292.459 260.36 290.475 260.872 288.256C261.384 285.995 261.64 283.669 261.64 281.28C261.64 279.189 261.405 277.099 260.936 275.008C260.467 272.875 259.656 270.955 258.504 269.248C257.352 267.541 255.795 266.155 253.832 265.088C251.912 263.979 249.48 263.424 246.536 263.424ZM300.443 301.44C299.163 302.464 297.542 303.275 295.579 303.872C293.659 304.469 291.611 304.768 289.435 304.768C287.003 304.768 284.891 304.384 283.099 303.616C281.307 302.805 279.835 301.675 278.683 300.224C277.531 298.731 276.678 296.96 276.123 294.912C275.568 292.864 275.291 290.56 275.291 288C275.291 282.539 276.507 278.379 278.939 275.52C281.371 272.661 284.848 271.232 289.371 271.232C290.822 271.232 292.272 271.403 293.723 271.744C295.174 272.043 296.475 272.64 297.627 273.536C298.779 274.432 299.718 275.712 300.443 277.376C301.168 278.997 301.531 281.152 301.531 283.84C301.531 285.248 301.403 286.805 301.147 288.512H280.603C280.603 290.389 280.795 292.053 281.179 293.504C281.563 294.955 282.16 296.192 282.971 297.216C283.782 298.197 284.827 298.965 286.107 299.52C287.43 300.032 289.03 300.288 290.907 300.288C292.358 300.288 293.808 300.032 295.259 299.52C296.71 299.008 297.798 298.411 298.523 297.728L300.443 301.44ZM289.435 275.712C286.918 275.712 284.891 276.373 283.355 277.696C281.862 279.019 280.966 281.28 280.667 284.48H296.539C296.539 281.237 295.92 278.976 294.683 277.696C293.446 276.373 291.696 275.712 289.435 275.712ZM324.943 295.296C324.943 294.016 324.559 293.013 323.791 292.288C323.023 291.563 322.063 290.965 320.911 290.496C319.802 289.984 318.564 289.515 317.199 289.088C315.876 288.619 314.639 288.043 313.487 287.36C312.378 286.635 311.439 285.717 310.671 284.608C309.903 283.499 309.519 282.005 309.519 280.128C309.519 277.056 310.394 274.816 312.143 273.408C313.892 271.957 316.324 271.232 319.439 271.232C321.743 271.232 323.663 271.445 325.199 271.872C326.778 272.256 328.143 272.725 329.295 273.28L328.079 277.504C327.098 277.035 325.903 276.629 324.495 276.288C323.13 275.904 321.658 275.712 320.079 275.712C318.202 275.712 316.815 276.032 315.919 276.672C315.066 277.312 314.639 278.421 314.639 280C314.639 281.109 315.023 281.984 315.791 282.624C316.559 283.221 317.498 283.776 318.607 284.288C319.759 284.757 320.996 285.227 322.319 285.696C323.684 286.165 324.922 286.784 326.031 287.552C327.183 288.32 328.143 289.301 328.911 290.496C329.679 291.648 330.063 293.184 330.063 295.104C330.063 296.469 329.828 297.749 329.359 298.944C328.932 300.139 328.25 301.163 327.311 302.016C326.372 302.869 325.199 303.531 323.791 304C322.426 304.512 320.804 304.768 318.927 304.768C316.495 304.768 314.426 304.533 312.719 304.064C311.012 303.595 309.583 303.04 308.431 302.4L309.967 298.048C310.948 298.603 312.228 299.115 313.807 299.584C315.386 300.053 316.986 300.288 318.607 300.288C320.442 300.288 321.956 299.925 323.151 299.2C324.346 298.475 324.943 297.173 324.943 295.296ZM340.168 272H345.288V304H340.168V272ZM339.08 262.272C339.08 261.291 339.4 260.459 340.04 259.776C340.723 259.051 341.576 258.688 342.6 258.688C343.624 258.688 344.499 259.051 345.224 259.776C345.95 260.459 346.312 261.291 346.312 262.272C346.312 263.253 345.95 264.064 345.224 264.704C344.499 265.344 343.624 265.664 342.6 265.664C341.576 265.664 340.723 265.344 340.04 264.704C339.4 264.064 339.08 263.253 339.08 262.272ZM381.998 305.472C381.998 309.611 380.888 312.661 378.67 314.624C376.494 316.587 373.251 317.568 368.942 317.568C366.382 317.568 364.312 317.397 362.734 317.056C361.198 316.757 359.875 316.352 358.766 315.84L360.11 311.488C361.091 311.872 362.179 312.235 363.374 312.576C364.568 312.917 366.126 313.088 368.046 313.088C369.838 313.088 371.288 312.917 372.398 312.576C373.55 312.277 374.467 311.744 375.15 310.976C375.832 310.251 376.302 309.291 376.558 308.096C376.814 306.944 376.942 305.557 376.942 303.936V300.864H376.686C375.832 302.101 374.744 303.061 373.422 303.744C372.099 304.384 370.371 304.704 368.238 304.704C363.928 304.704 360.75 303.36 358.702 300.672C356.696 297.984 355.694 293.803 355.694 288.128C355.694 282.667 356.995 278.528 359.598 275.712C362.2 272.853 366.04 271.424 371.118 271.424C373.55 271.424 375.619 271.616 377.326 272C379.075 272.384 380.632 272.832 381.998 273.344V305.472ZM369.134 300.224C371.31 300.224 373.016 299.691 374.254 298.624C375.491 297.515 376.366 295.808 376.878 293.504V277.12C375.171 276.309 372.995 275.904 370.35 275.904C367.448 275.904 365.166 276.885 363.502 278.848C361.838 280.811 361.006 283.883 361.006 288.064C361.006 289.856 361.155 291.499 361.454 292.992C361.752 294.485 362.222 295.765 362.862 296.832C363.502 297.899 364.334 298.731 365.358 299.328C366.382 299.925 367.64 300.224 369.134 300.224ZM413.684 304V285.76C413.684 282.432 413.194 279.936 412.212 278.272C411.274 276.565 409.524 275.712 406.964 275.712C404.703 275.712 402.826 276.331 401.332 277.568C399.882 278.763 398.858 280.277 398.26 282.112V304H393.14V272H396.724L397.684 275.904H397.94C398.964 274.539 400.33 273.429 402.036 272.576C403.786 271.68 405.855 271.232 408.244 271.232C409.994 271.232 411.53 271.445 412.852 271.872C414.175 272.256 415.263 272.96 416.116 273.984C417.012 275.008 417.674 276.395 418.1 278.144C418.57 279.851 418.804 282.027 418.804 284.672V304H413.684ZM430.508 272H435.628V304H430.508V272ZM429.42 262.272C429.42 261.291 429.74 260.459 430.38 259.776C431.063 259.051 431.916 258.688 432.94 258.688C433.964 258.688 434.839 259.051 435.564 259.776C436.29 260.459 436.652 261.291 436.652 262.272C436.652 263.253 436.29 264.064 435.564 264.704C434.839 265.344 433.964 265.664 432.94 265.664C431.916 265.664 431.063 265.344 430.38 264.704C429.74 264.064 429.42 263.253 429.42 262.272ZM468.37 304V285.76C468.37 282.432 467.879 279.936 466.898 278.272C465.959 276.565 464.21 275.712 461.65 275.712C459.388 275.712 457.511 276.331 456.018 277.568C454.567 278.763 453.543 280.277 452.946 282.112V304H447.826V272H451.41L452.37 275.904H452.626C453.65 274.539 455.015 273.429 456.722 272.576C458.471 271.68 460.54 271.232 462.93 271.232C464.679 271.232 466.215 271.445 467.538 271.872C468.86 272.256 469.948 272.96 470.802 273.984C471.698 275.008 472.359 276.395 472.786 278.144C473.255 279.851 473.49 282.027 473.49 284.672V304H468.37ZM508.618 305.472C508.618 309.611 507.508 312.661 505.29 314.624C503.114 316.587 499.871 317.568 495.562 317.568C493.002 317.568 490.932 317.397 489.354 317.056C487.818 316.757 486.495 316.352 485.386 315.84L486.73 311.488C487.711 311.872 488.799 312.235 489.994 312.576C491.188 312.917 492.746 313.088 494.666 313.088C496.458 313.088 497.908 312.917 499.018 312.576C500.17 312.277 501.087 311.744 501.77 310.976C502.452 310.251 502.922 309.291 503.178 308.096C503.434 306.944 503.562 305.557 503.562 303.936V300.864H503.306C502.452 302.101 501.364 303.061 500.042 303.744C498.719 304.384 496.991 304.704 494.858 304.704C490.548 304.704 487.37 303.36 485.322 300.672C483.316 297.984 482.314 293.803 482.314 288.128C482.314 282.667 483.615 278.528 486.218 275.712C488.82 272.853 492.66 271.424 497.738 271.424C500.17 271.424 502.239 271.616 503.946 272C505.695 272.384 507.252 272.832 508.618 273.344V305.472ZM495.754 300.224C497.93 300.224 499.636 299.691 500.874 298.624C502.111 297.515 502.986 295.808 503.498 293.504V277.12C501.791 276.309 499.615 275.904 496.97 275.904C494.068 275.904 491.786 276.885 490.122 278.848C488.458 280.811 487.626 283.883 487.626 288.064C487.626 289.856 487.775 291.499 488.074 292.992C488.372 294.485 488.842 295.765 489.482 296.832C490.122 297.899 490.954 298.731 491.978 299.328C493.002 299.925 494.26 300.224 495.754 300.224ZM537.015 259.648C537.996 259.477 539.042 259.328 540.151 259.2C541.303 259.029 542.434 258.901 543.543 258.816C544.695 258.731 545.804 258.667 546.871 258.624C547.938 258.581 548.919 258.56 549.815 258.56C551.906 258.56 553.954 258.752 555.959 259.136C558.007 259.52 559.82 260.181 561.399 261.12C563.02 262.059 564.3 263.36 565.239 265.024C566.22 266.645 566.711 268.693 566.711 271.168C566.711 274.837 565.858 277.824 564.151 280.128C562.444 282.432 560.162 284.032 557.303 284.928L560.439 286.912L570.679 304H560.567L550.391 286.464L545.783 285.632V304H537.015V259.648ZM550.455 266.368C549.559 266.368 548.663 266.389 547.767 266.432C546.914 266.475 546.252 266.56 545.783 266.688V279.68H549.495C551.927 279.68 553.868 279.125 555.319 278.016C556.77 276.907 557.495 275.072 557.495 272.512C557.495 270.592 556.898 269.099 555.703 268.032C554.508 266.923 552.759 266.368 550.455 266.368ZM599.14 301.248C597.86 302.272 596.111 303.147 593.892 303.872C591.716 304.555 589.391 304.896 586.916 304.896C581.754 304.896 577.978 303.403 575.588 300.416C573.199 297.387 572.004 293.248 572.004 288C572.004 282.368 573.348 278.144 576.036 275.328C578.724 272.512 582.5 271.104 587.364 271.104C588.986 271.104 590.564 271.317 592.1 271.744C593.636 272.171 595.002 272.875 596.196 273.856C597.391 274.837 598.351 276.16 599.076 277.824C599.802 279.488 600.164 281.557 600.164 284.032C600.164 284.928 600.1 285.888 599.972 286.912C599.887 287.936 599.738 289.003 599.524 290.112H580.324C580.452 292.8 581.135 294.827 582.372 296.192C583.652 297.557 585.7 298.24 588.516 298.24C590.266 298.24 591.823 297.984 593.188 297.472C594.596 296.917 595.663 296.363 596.388 295.808L599.14 301.248ZM587.236 277.76C585.06 277.76 583.439 278.421 582.372 279.744C581.348 281.024 580.73 282.752 580.516 284.928H592.42C592.591 282.624 592.228 280.853 591.332 279.616C590.479 278.379 589.114 277.76 587.236 277.76ZM620.568 295.168C620.568 294.315 620.206 293.632 619.48 293.12C618.755 292.608 617.859 292.139 616.792 291.712C615.726 291.285 614.552 290.859 613.272 290.432C611.992 289.963 610.819 289.344 609.752 288.576C608.686 287.765 607.79 286.763 607.064 285.568C606.339 284.331 605.976 282.752 605.976 280.832C605.976 277.675 606.915 275.264 608.792 273.6C610.67 271.936 613.379 271.104 616.92 271.104C619.352 271.104 621.55 271.36 623.512 271.872C625.475 272.384 627.011 272.96 628.12 273.6L626.264 279.616C625.283 279.232 624.046 278.827 622.552 278.4C621.059 277.973 619.544 277.76 618.008 277.76C615.534 277.76 614.296 278.72 614.296 280.64C614.296 281.408 614.659 282.027 615.384 282.496C616.11 282.965 617.006 283.413 618.072 283.84C619.139 284.224 620.312 284.651 621.592 285.12C622.872 285.589 624.046 286.208 625.112 286.976C626.179 287.701 627.075 288.661 627.8 289.856C628.526 291.051 628.888 292.587 628.888 294.464C628.888 297.707 627.843 300.267 625.752 302.144C623.704 303.979 620.611 304.896 616.472 304.896C614.211 304.896 612.078 304.597 610.072 304C608.11 303.445 606.51 302.784 605.272 302.016L607.576 295.808C608.558 296.363 609.859 296.917 611.48 297.472C613.102 297.984 614.766 298.24 616.472 298.24C617.71 298.24 618.691 298.005 619.416 297.536C620.184 297.067 620.568 296.277 620.568 295.168ZM635.601 272H641.681L642.641 275.84H642.897C644.006 274.219 645.307 273.024 646.801 272.256C648.337 271.488 650.193 271.104 652.369 271.104C656.379 271.104 659.387 272.384 661.393 274.944C663.398 277.461 664.401 281.536 664.401 287.168C664.401 289.899 664.081 292.373 663.441 294.592C662.801 296.768 661.841 298.624 660.561 300.16C659.323 301.696 657.787 302.869 655.953 303.68C654.161 304.491 652.091 304.896 649.745 304.896C648.422 304.896 647.334 304.789 646.481 304.576C645.627 304.405 644.774 304.107 643.921 303.68V316.8H635.601V272ZM649.873 278.144C648.251 278.144 646.971 278.549 646.033 279.36C645.137 280.171 644.433 281.387 643.921 283.008V296.32C644.518 296.789 645.158 297.173 645.841 297.472C646.566 297.728 647.505 297.856 648.657 297.856C651.046 297.856 652.838 297.024 654.033 295.36C655.227 293.653 655.825 290.859 655.825 286.976C655.825 284.16 655.355 281.984 654.417 280.448C653.478 278.912 651.963 278.144 649.873 278.144ZM669.907 288C669.907 282.581 671.23 278.421 673.875 275.52C676.52 272.576 680.232 271.104 685.011 271.104C687.571 271.104 689.79 271.509 691.667 272.32C693.544 273.131 695.102 274.283 696.339 275.776C697.576 277.227 698.494 278.997 699.091 281.088C699.731 283.179 700.051 285.483 700.051 288C700.051 293.419 698.728 297.6 696.083 300.544C693.48 303.445 689.79 304.896 685.011 304.896C682.451 304.896 680.232 304.491 678.355 303.68C676.478 302.869 674.899 301.739 673.619 300.288C672.382 298.795 671.443 297.003 670.803 294.912C670.206 292.821 669.907 290.517 669.907 288ZM678.483 288C678.483 289.408 678.611 290.709 678.867 291.904C679.123 293.099 679.507 294.144 680.019 295.04C680.531 295.936 681.192 296.64 682.003 297.152C682.856 297.621 683.859 297.856 685.011 297.856C687.187 297.856 688.808 297.067 689.875 295.488C690.942 293.909 691.475 291.413 691.475 288C691.475 285.056 690.984 282.688 690.003 280.896C689.022 279.061 687.358 278.144 685.011 278.144C682.963 278.144 681.363 278.912 680.211 280.448C679.059 281.984 678.483 284.501 678.483 288ZM726.682 304V285.824C726.682 283.221 726.298 281.344 725.53 280.192C724.805 279.04 723.546 278.464 721.754 278.464C720.175 278.464 718.831 278.933 717.722 279.872C716.655 280.768 715.887 281.899 715.418 283.264V304H707.098V272H713.69L714.65 276.224H714.906C715.887 274.859 717.189 273.664 718.81 272.64C720.431 271.616 722.522 271.104 725.082 271.104C726.661 271.104 728.069 271.317 729.306 271.744C730.543 272.171 731.589 272.875 732.442 273.856C733.295 274.837 733.935 276.181 734.362 277.888C734.789 279.552 735.002 281.621 735.002 284.096V304H726.682ZM756.501 295.168C756.501 294.315 756.138 293.632 755.413 293.12C754.688 292.608 753.792 292.139 752.725 291.712C751.658 291.285 750.485 290.859 749.205 290.432C747.925 289.963 746.752 289.344 745.685 288.576C744.618 287.765 743.722 286.763 742.997 285.568C742.272 284.331 741.909 282.752 741.909 280.832C741.909 277.675 742.848 275.264 744.725 273.6C746.602 271.936 749.312 271.104 752.853 271.104C755.285 271.104 757.482 271.36 759.445 271.872C761.408 272.384 762.944 272.96 764.053 273.6L762.197 279.616C761.216 279.232 759.978 278.827 758.485 278.4C756.992 277.973 755.477 277.76 753.941 277.76C751.466 277.76 750.229 278.72 750.229 280.64C750.229 281.408 750.592 282.027 751.317 282.496C752.042 282.965 752.938 283.413 754.005 283.84C755.072 284.224 756.245 284.651 757.525 285.12C758.805 285.589 759.978 286.208 761.045 286.976C762.112 287.701 763.008 288.661 763.733 289.856C764.458 291.051 764.821 292.587 764.821 294.464C764.821 297.707 763.776 300.267 761.685 302.144C759.637 303.979 756.544 304.896 752.405 304.896C750.144 304.896 748.01 304.597 746.005 304C744.042 303.445 742.442 302.784 741.205 302.016L743.509 295.808C744.49 296.363 745.792 296.917 747.413 297.472C749.034 297.984 750.698 298.24 752.405 298.24C753.642 298.24 754.624 298.005 755.349 297.536C756.117 297.067 756.501 296.277 756.501 295.168ZM772.301 272H780.621V304H772.301V272ZM771.085 262.976C771.085 261.739 771.533 260.693 772.429 259.84C773.368 258.944 774.648 258.496 776.269 258.496C777.89 258.496 779.192 258.944 780.173 259.84C781.197 260.693 781.709 261.739 781.709 262.976C781.709 264.213 781.197 265.259 780.173 266.112C779.192 266.923 777.89 267.328 776.269 267.328C774.648 267.328 773.368 266.923 772.429 266.112C771.533 265.259 771.085 264.213 771.085 262.976ZM790 259.2H798.32V274.56H798.576C799.472 273.536 800.624 272.725 802.032 272.128C803.44 271.531 804.998 271.232 806.704 271.232C810.544 271.232 813.467 272.555 815.472 275.2C817.52 277.803 818.544 281.792 818.544 287.168C818.544 292.928 817.115 297.301 814.256 300.288C811.44 303.275 807.558 304.768 802.608 304.768C799.878 304.768 797.382 304.533 795.12 304.064C792.859 303.637 791.152 303.147 790 302.592V259.2ZM804.272 278.272C802.736 278.272 801.478 278.677 800.496 279.488C799.558 280.256 798.832 281.387 798.32 282.88V296.832C799.003 297.173 799.728 297.408 800.496 297.536C801.307 297.664 802.16 297.728 803.056 297.728C805.318 297.728 807.024 296.917 808.176 295.296C809.371 293.632 809.968 291.008 809.968 287.424C809.968 281.323 808.07 278.272 804.272 278.272ZM834.169 293.248C834.169 294.741 834.361 295.829 834.745 296.512C835.129 297.195 835.748 297.536 836.601 297.536C837.113 297.536 837.604 297.493 838.073 297.408C838.585 297.323 839.204 297.131 839.929 296.832L840.825 303.36C840.142 303.701 839.097 304.043 837.689 304.384C836.281 304.725 834.83 304.896 833.337 304.896C830.905 304.896 829.049 304.341 827.769 303.232C826.489 302.08 825.849 300.203 825.849 297.6V259.2H834.169V293.248ZM871.285 301.248C870.005 302.272 868.256 303.147 866.037 303.872C863.861 304.555 861.536 304.896 859.061 304.896C853.899 304.896 850.123 303.403 847.733 300.416C845.344 297.387 844.149 293.248 844.149 288C844.149 282.368 845.493 278.144 848.181 275.328C850.869 272.512 854.645 271.104 859.509 271.104C861.131 271.104 862.709 271.317 864.245 271.744C865.781 272.171 867.147 272.875 868.341 273.856C869.536 274.837 870.496 276.16 871.221 277.824C871.947 279.488 872.309 281.557 872.309 284.032C872.309 284.928 872.245 285.888 872.117 286.912C872.032 287.936 871.883 289.003 871.669 290.112H852.469C852.597 292.8 853.28 294.827 854.517 296.192C855.797 297.557 857.845 298.24 860.661 298.24C862.411 298.24 863.968 297.984 865.333 297.472C866.741 296.917 867.808 296.363 868.533 295.808L871.285 301.248ZM859.381 277.76C857.205 277.76 855.584 278.421 854.517 279.744C853.493 281.024 852.875 282.752 852.661 284.928H864.565C864.736 282.624 864.373 280.853 863.477 279.616C862.624 278.379 861.259 277.76 859.381 277.76ZM916.642 294.08H902.882L899.49 304H890.722L906.85 258.88H913.314L929.442 304H920.226L916.642 294.08ZM905.122 287.04H914.722L911.394 277.056L910.05 270.016H909.73L908.386 277.12L905.122 287.04ZM935.489 259.2H944.257V304H935.489V259.2Z" fill="#F8F8F8"/>
<path d="M240.704 380.568H233.48L231.52 386H229.224L236.644 366.092H237.708L245.156 386H242.72L240.704 380.568ZM234.236 378.552H240.004L237.82 372.588L237.12 369.62H237.092L236.392 372.644L234.236 378.552ZM260.011 382.192C260.011 381.632 259.843 381.193 259.507 380.876C259.171 380.559 258.751 380.297 258.247 380.092C257.762 379.868 257.221 379.663 256.623 379.476C256.045 379.271 255.503 379.019 254.999 378.72C254.514 378.403 254.103 378.001 253.767 377.516C253.431 377.031 253.263 376.377 253.263 375.556C253.263 374.212 253.646 373.232 254.411 372.616C255.177 371.981 256.241 371.664 257.603 371.664C258.611 371.664 259.451 371.757 260.123 371.944C260.814 372.112 261.411 372.317 261.915 372.56L261.383 374.408C260.954 374.203 260.431 374.025 259.815 373.876C259.218 373.708 258.574 373.624 257.883 373.624C257.062 373.624 256.455 373.764 256.063 374.044C255.69 374.324 255.503 374.809 255.503 375.5C255.503 375.985 255.671 376.368 256.007 376.648C256.343 376.909 256.754 377.152 257.239 377.376C257.743 377.581 258.285 377.787 258.863 377.992C259.461 378.197 260.002 378.468 260.487 378.804C260.991 379.14 261.411 379.569 261.747 380.092C262.083 380.596 262.251 381.268 262.251 382.108C262.251 382.705 262.149 383.265 261.943 383.788C261.757 384.311 261.458 384.759 261.047 385.132C260.637 385.505 260.123 385.795 259.507 386C258.91 386.224 258.201 386.336 257.379 386.336C256.315 386.336 255.41 386.233 254.663 386.028C253.917 385.823 253.291 385.58 252.787 385.3L253.459 383.396C253.889 383.639 254.449 383.863 255.139 384.068C255.83 384.273 256.53 384.376 257.239 384.376C258.042 384.376 258.705 384.217 259.227 383.9C259.75 383.583 260.011 383.013 260.011 382.192ZM265.636 372H267.176L267.596 373.68H267.708C268.138 373.027 268.688 372.532 269.36 372.196C270.051 371.841 270.835 371.664 271.712 371.664C273.579 371.664 274.97 372.215 275.884 373.316C276.799 374.417 277.256 376.219 277.256 378.72C277.256 379.896 277.098 380.96 276.78 381.912C276.482 382.845 276.052 383.639 275.492 384.292C274.932 384.945 274.251 385.449 273.448 385.804C272.664 386.159 271.787 386.336 270.816 386.336C270.126 386.336 269.575 386.289 269.164 386.196C268.772 386.121 268.343 385.981 267.876 385.776V391.6H265.636V372ZM271.292 373.624C270.34 373.624 269.584 373.876 269.024 374.38C268.483 374.865 268.1 375.612 267.876 376.62V383.564C268.212 383.825 268.595 384.031 269.024 384.18C269.454 384.311 270.023 384.376 270.732 384.376C272.02 384.376 273.038 383.9 273.784 382.948C274.55 381.977 274.932 380.559 274.932 378.692C274.932 377.927 274.867 377.236 274.736 376.62C274.606 375.985 274.391 375.453 274.092 375.024C273.812 374.576 273.439 374.231 272.972 373.988C272.524 373.745 271.964 373.624 271.292 373.624ZM291.005 384.88C290.445 385.328 289.736 385.683 288.877 385.944C288.037 386.205 287.141 386.336 286.189 386.336C285.125 386.336 284.201 386.168 283.417 385.832C282.633 385.477 281.989 384.983 281.485 384.348C280.981 383.695 280.608 382.92 280.365 382.024C280.122 381.128 280.001 380.12 280.001 379C280.001 376.611 280.533 374.791 281.597 373.54C282.661 372.289 284.182 371.664 286.161 371.664C286.796 371.664 287.43 371.739 288.065 371.888C288.7 372.019 289.269 372.28 289.773 372.672C290.277 373.064 290.688 373.624 291.005 374.352C291.322 375.061 291.481 376.004 291.481 377.18C291.481 377.796 291.425 378.477 291.313 379.224H282.325C282.325 380.045 282.409 380.773 282.577 381.408C282.745 382.043 283.006 382.584 283.361 383.032C283.716 383.461 284.173 383.797 284.733 384.04C285.312 384.264 286.012 384.376 286.833 384.376C287.468 384.376 288.102 384.264 288.737 384.04C289.372 383.816 289.848 383.555 290.165 383.256L291.005 384.88ZM286.189 373.624C285.088 373.624 284.201 373.913 283.529 374.492C282.876 375.071 282.484 376.06 282.353 377.46H289.297C289.297 376.041 289.026 375.052 288.485 374.492C287.944 373.913 287.178 373.624 286.189 373.624ZM294.78 373.036C295.489 372.607 296.31 372.289 297.244 372.084C298.196 371.879 299.185 371.776 300.212 371.776C301.182 371.776 301.957 371.907 302.536 372.168C303.133 372.429 303.581 372.775 303.88 373.204C304.197 373.615 304.402 374.072 304.496 374.576C304.608 375.08 304.664 375.584 304.664 376.088C304.664 377.208 304.636 378.3 304.58 379.364C304.524 380.428 304.496 381.436 304.496 382.388C304.496 383.079 304.524 383.732 304.58 384.348C304.636 384.964 304.738 385.533 304.888 386.056H303.236L302.648 384.096H302.508C302.34 384.357 302.125 384.619 301.864 384.88C301.621 385.123 301.322 385.347 300.968 385.552C300.613 385.739 300.202 385.897 299.736 386.028C299.269 386.159 298.737 386.224 298.14 386.224C297.542 386.224 296.982 386.131 296.46 385.944C295.956 385.757 295.517 385.496 295.144 385.16C294.77 384.805 294.472 384.385 294.248 383.9C294.042 383.415 293.94 382.864 293.94 382.248C293.94 381.427 294.108 380.745 294.444 380.204C294.78 379.644 295.246 379.205 295.844 378.888C296.46 378.552 297.188 378.319 298.028 378.188C298.886 378.039 299.829 377.964 300.856 377.964C301.117 377.964 301.369 377.964 301.612 377.964C301.873 377.964 302.134 377.983 302.396 378.02C302.452 377.46 302.48 376.956 302.48 376.508C302.48 375.481 302.274 374.763 301.864 374.352C301.453 373.941 300.706 373.736 299.624 373.736C299.306 373.736 298.961 373.764 298.588 373.82C298.233 373.857 297.86 373.923 297.468 374.016C297.094 374.091 296.73 374.193 296.376 374.324C296.04 374.436 295.741 374.567 295.48 374.716L294.78 373.036ZM298.756 384.264C299.278 384.264 299.745 384.199 300.156 384.068C300.566 383.919 300.921 383.741 301.22 383.536C301.518 383.312 301.761 383.069 301.948 382.808C302.153 382.547 302.302 382.295 302.396 382.052V379.728C302.134 379.709 301.864 379.7 301.584 379.7C301.322 379.681 301.061 379.672 300.8 379.672C300.221 379.672 299.652 379.709 299.092 379.784C298.55 379.84 298.065 379.961 297.636 380.148C297.225 380.316 296.889 380.559 296.628 380.876C296.385 381.175 296.264 381.557 296.264 382.024C296.264 382.677 296.497 383.219 296.964 383.648C297.43 384.059 298.028 384.264 298.756 384.264ZM312.422 379.7H311.134V386H308.894V366.4H311.134V378.328L312.282 377.936L316.622 372H319.226L314.942 377.628L313.794 378.552L315.194 379.672L319.87 386H317.098L312.422 379.7ZM322.769 372H325.009V386H322.769V372ZM322.293 367.744C322.293 367.315 322.433 366.951 322.713 366.652C323.011 366.335 323.385 366.176 323.833 366.176C324.281 366.176 324.663 366.335 324.981 366.652C325.298 366.951 325.457 367.315 325.457 367.744C325.457 368.173 325.298 368.528 324.981 368.808C324.663 369.088 324.281 369.228 323.833 369.228C323.385 369.228 323.011 369.088 322.713 368.808C322.433 368.528 322.293 368.173 322.293 367.744ZM338.773 386V378.02C338.773 376.564 338.558 375.472 338.129 374.744C337.718 373.997 336.953 373.624 335.833 373.624C334.844 373.624 334.022 373.895 333.369 374.436C332.734 374.959 332.286 375.621 332.025 376.424V386H329.785V372H331.353L331.773 373.708H331.885C332.333 373.111 332.93 372.625 333.677 372.252C334.442 371.86 335.348 371.664 336.393 371.664C337.158 371.664 337.83 371.757 338.409 371.944C338.988 372.112 339.464 372.42 339.837 372.868C340.229 373.316 340.518 373.923 340.705 374.688C340.91 375.435 341.013 376.387 341.013 377.544V386H338.773ZM355.821 386.644C355.821 388.455 355.336 389.789 354.365 390.648C353.413 391.507 351.995 391.936 350.109 391.936C348.989 391.936 348.084 391.861 347.393 391.712C346.721 391.581 346.143 391.404 345.657 391.18L346.245 389.276C346.675 389.444 347.151 389.603 347.673 389.752C348.196 389.901 348.877 389.976 349.717 389.976C350.501 389.976 351.136 389.901 351.621 389.752C352.125 389.621 352.527 389.388 352.825 389.052C353.124 388.735 353.329 388.315 353.441 387.792C353.553 387.288 353.609 386.681 353.609 385.972V384.628H353.497C353.124 385.169 352.648 385.589 352.069 385.888C351.491 386.168 350.735 386.308 349.801 386.308C347.916 386.308 346.525 385.72 345.629 384.544C344.752 383.368 344.313 381.539 344.313 379.056C344.313 376.667 344.883 374.856 346.021 373.624C347.16 372.373 348.84 371.748 351.061 371.748C352.125 371.748 353.031 371.832 353.777 372C354.543 372.168 355.224 372.364 355.821 372.588V386.644ZM350.193 384.348C351.145 384.348 351.892 384.115 352.433 383.648C352.975 383.163 353.357 382.416 353.581 381.408V374.24C352.835 373.885 351.883 373.708 350.725 373.708C349.456 373.708 348.457 374.137 347.729 374.996C347.001 375.855 346.637 377.199 346.637 379.028C346.637 379.812 346.703 380.531 346.833 381.184C346.964 381.837 347.169 382.397 347.449 382.864C347.729 383.331 348.093 383.695 348.541 383.956C348.989 384.217 349.54 384.348 350.193 384.348ZM377.821 384.88C377.261 385.328 376.552 385.683 375.693 385.944C374.853 386.205 373.957 386.336 373.005 386.336C371.941 386.336 371.017 386.168 370.233 385.832C369.449 385.477 368.805 384.983 368.301 384.348C367.797 383.695 367.424 382.92 367.181 382.024C366.939 381.128 366.817 380.12 366.817 379C366.817 376.611 367.349 374.791 368.413 373.54C369.477 372.289 370.999 371.664 372.977 371.664C373.612 371.664 374.247 371.739 374.881 371.888C375.516 372.019 376.085 372.28 376.589 372.672C377.093 373.064 377.504 373.624 377.821 374.352C378.139 375.061 378.297 376.004 378.297 377.18C378.297 377.796 378.241 378.477 378.129 379.224H369.141C369.141 380.045 369.225 380.773 369.393 381.408C369.561 382.043 369.823 382.584 370.177 383.032C370.532 383.461 370.989 383.797 371.549 384.04C372.128 384.264 372.828 384.376 373.649 384.376C374.284 384.376 374.919 384.264 375.553 384.04C376.188 383.816 376.664 383.555 376.981 383.256L377.821 384.88ZM373.005 373.624C371.904 373.624 371.017 373.913 370.345 374.492C369.692 375.071 369.3 376.06 369.169 377.46H376.113C376.113 376.041 375.843 375.052 375.301 374.492C374.76 373.913 373.995 373.624 373.005 373.624ZM390.808 386V378.02C390.808 376.564 390.593 375.472 390.164 374.744C389.753 373.997 388.988 373.624 387.868 373.624C386.879 373.624 386.057 373.895 385.404 374.436C384.769 374.959 384.321 375.621 384.06 376.424V386H381.82V372H383.388L383.808 373.708H383.92C384.368 373.111 384.965 372.625 385.712 372.252C386.477 371.86 387.383 371.664 388.428 371.664C389.193 371.664 389.865 371.757 390.444 371.944C391.023 372.112 391.499 372.42 391.872 372.868C392.264 373.316 392.553 373.923 392.74 374.688C392.945 375.435 393.048 376.387 393.048 377.544V386H390.808ZM407.857 386.644C407.857 388.455 407.371 389.789 406.401 390.648C405.449 391.507 404.03 391.936 402.145 391.936C401.025 391.936 400.119 391.861 399.429 391.712C398.757 391.581 398.178 391.404 397.693 391.18L398.281 389.276C398.71 389.444 399.186 389.603 399.709 389.752C400.231 389.901 400.913 389.976 401.753 389.976C402.537 389.976 403.171 389.901 403.657 389.752C404.161 389.621 404.562 389.388 404.861 389.052C405.159 388.735 405.365 388.315 405.477 387.792C405.589 387.288 405.645 386.681 405.645 385.972V384.628H405.533C405.159 385.169 404.683 385.589 404.105 385.888C403.526 386.168 402.77 386.308 401.837 386.308C399.951 386.308 398.561 385.72 397.665 384.544C396.787 383.368 396.349 381.539 396.349 379.056C396.349 376.667 396.918 374.856 398.057 373.624C399.195 372.373 400.875 371.748 403.097 371.748C404.161 371.748 405.066 371.832 405.813 372C406.578 372.168 407.259 372.364 407.857 372.588V386.644ZM402.229 384.348C403.181 384.348 403.927 384.115 404.469 383.648C405.01 383.163 405.393 382.416 405.617 381.408V374.24C404.87 373.885 403.918 373.708 402.761 373.708C401.491 373.708 400.493 374.137 399.765 374.996C399.037 375.855 398.673 377.199 398.673 379.028C398.673 379.812 398.738 380.531 398.869 381.184C398.999 381.837 399.205 382.397 399.485 382.864C399.765 383.331 400.129 383.695 400.577 383.956C401.025 384.217 401.575 384.348 402.229 384.348ZM411.948 373.036C412.657 372.607 413.478 372.289 414.412 372.084C415.364 371.879 416.353 371.776 417.38 371.776C418.35 371.776 419.125 371.907 419.704 372.168C420.301 372.429 420.749 372.775 421.048 373.204C421.365 373.615 421.57 374.072 421.664 374.576C421.776 375.08 421.832 375.584 421.832 376.088C421.832 377.208 421.804 378.3 421.748 379.364C421.692 380.428 421.664 381.436 421.664 382.388C421.664 383.079 421.692 383.732 421.748 384.348C421.804 384.964 421.906 385.533 422.056 386.056H420.404L419.816 384.096H419.676C419.508 384.357 419.293 384.619 419.032 384.88C418.789 385.123 418.49 385.347 418.136 385.552C417.781 385.739 417.37 385.897 416.904 386.028C416.437 386.159 415.905 386.224 415.308 386.224C414.71 386.224 414.15 386.131 413.628 385.944C413.124 385.757 412.685 385.496 412.312 385.16C411.938 384.805 411.64 384.385 411.416 383.9C411.21 383.415 411.108 382.864 411.108 382.248C411.108 381.427 411.276 380.745 411.612 380.204C411.948 379.644 412.414 379.205 413.012 378.888C413.628 378.552 414.356 378.319 415.196 378.188C416.054 378.039 416.997 377.964 418.024 377.964C418.285 377.964 418.537 377.964 418.78 377.964C419.041 377.964 419.302 377.983 419.564 378.02C419.62 377.46 419.648 376.956 419.648 376.508C419.648 375.481 419.442 374.763 419.032 374.352C418.621 373.941 417.874 373.736 416.792 373.736C416.474 373.736 416.129 373.764 415.756 373.82C415.401 373.857 415.028 373.923 414.636 374.016C414.262 374.091 413.898 374.193 413.544 374.324C413.208 374.436 412.909 374.567 412.648 374.716L411.948 373.036ZM415.924 384.264C416.446 384.264 416.913 384.199 417.324 384.068C417.734 383.919 418.089 383.741 418.388 383.536C418.686 383.312 418.929 383.069 419.116 382.808C419.321 382.547 419.47 382.295 419.564 382.052V379.728C419.302 379.709 419.032 379.7 418.752 379.7C418.49 379.681 418.229 379.672 417.968 379.672C417.389 379.672 416.82 379.709 416.26 379.784C415.718 379.84 415.233 379.961 414.804 380.148C414.393 380.316 414.057 380.559 413.796 380.876C413.553 381.175 413.432 381.557 413.432 382.024C413.432 382.677 413.665 383.219 414.132 383.648C414.598 384.059 415.196 384.264 415.924 384.264ZM436.786 386.644C436.786 388.455 436.301 389.789 435.33 390.648C434.378 391.507 432.96 391.936 431.074 391.936C429.954 391.936 429.049 391.861 428.358 391.712C427.686 391.581 427.108 391.404 426.622 391.18L427.21 389.276C427.64 389.444 428.116 389.603 428.638 389.752C429.161 389.901 429.842 389.976 430.682 389.976C431.466 389.976 432.101 389.901 432.586 389.752C433.09 389.621 433.492 389.388 433.79 389.052C434.089 388.735 434.294 388.315 434.406 387.792C434.518 387.288 434.574 386.681 434.574 385.972V384.628H434.462C434.089 385.169 433.613 385.589 433.034 385.888C432.456 386.168 431.7 386.308 430.766 386.308C428.881 386.308 427.49 385.72 426.594 384.544C425.717 383.368 425.278 381.539 425.278 379.056C425.278 376.667 425.848 374.856 426.986 373.624C428.125 372.373 429.805 371.748 432.026 371.748C433.09 371.748 433.996 371.832 434.742 372C435.508 372.168 436.189 372.364 436.786 372.588V386.644ZM431.158 384.348C432.11 384.348 432.857 384.115 433.398 383.648C433.94 383.163 434.322 382.416 434.546 381.408V374.24C433.8 373.885 432.848 373.708 431.69 373.708C430.421 373.708 429.422 374.137 428.694 374.996C427.966 375.855 427.602 377.199 427.602 379.028C427.602 379.812 427.668 380.531 427.798 381.184C427.929 381.837 428.134 382.397 428.414 382.864C428.694 383.331 429.058 383.695 429.506 383.956C429.954 384.217 430.505 384.348 431.158 384.348ZM451.321 384.88C450.761 385.328 450.052 385.683 449.193 385.944C448.353 386.205 447.457 386.336 446.505 386.336C445.441 386.336 444.517 386.168 443.733 385.832C442.949 385.477 442.305 384.983 441.801 384.348C441.297 383.695 440.924 382.92 440.681 382.024C440.439 381.128 440.317 380.12 440.317 379C440.317 376.611 440.849 374.791 441.913 373.54C442.977 372.289 444.499 371.664 446.477 371.664C447.112 371.664 447.747 371.739 448.381 371.888C449.016 372.019 449.585 372.28 450.089 372.672C450.593 373.064 451.004 373.624 451.321 374.352C451.639 375.061 451.797 376.004 451.797 377.18C451.797 377.796 451.741 378.477 451.629 379.224H442.641C442.641 380.045 442.725 380.773 442.893 381.408C443.061 382.043 443.323 382.584 443.677 383.032C444.032 383.461 444.489 383.797 445.049 384.04C445.628 384.264 446.328 384.376 447.149 384.376C447.784 384.376 448.419 384.264 449.053 384.04C449.688 383.816 450.164 383.555 450.481 383.256L451.321 384.88ZM446.505 373.624C445.404 373.624 444.517 373.913 443.845 374.492C443.192 375.071 442.8 376.06 442.669 377.46H449.613C449.613 376.041 449.343 375.052 448.801 374.492C448.26 373.913 447.495 373.624 446.505 373.624ZM463.524 386V378.076C463.524 377.329 463.487 376.685 463.412 376.144C463.356 375.584 463.235 375.117 463.048 374.744C462.861 374.371 462.591 374.091 462.236 373.904C461.9 373.717 461.452 373.624 460.892 373.624C460.033 373.624 459.315 373.885 458.736 374.408C458.176 374.931 457.784 375.584 457.56 376.368V386H455.32V372H456.888L457.308 373.708H457.42C457.924 373.111 458.503 372.625 459.156 372.252C459.828 371.86 460.696 371.664 461.76 371.664C462.656 371.664 463.384 371.841 463.944 372.196C464.523 372.532 464.971 373.129 465.288 373.988C465.717 373.26 466.305 372.691 467.052 372.28C467.817 371.869 468.676 371.664 469.628 371.664C470.412 371.664 471.075 371.757 471.616 371.944C472.157 372.112 472.605 372.42 472.96 372.868C473.315 373.316 473.567 373.923 473.716 374.688C473.884 375.453 473.968 376.424 473.968 377.6V386H471.728V377.572C471.728 376.9 471.691 376.321 471.616 375.836C471.56 375.332 471.429 374.921 471.224 374.604C471.037 374.268 470.767 374.025 470.412 373.876C470.076 373.708 469.628 373.624 469.068 373.624C468.135 373.624 467.407 373.885 466.884 374.408C466.361 374.931 465.988 375.677 465.764 376.648V386H463.524ZM488.263 384.88C487.703 385.328 486.993 385.683 486.135 385.944C485.295 386.205 484.399 386.336 483.447 386.336C482.383 386.336 481.459 386.168 480.675 385.832C479.891 385.477 479.247 384.983 478.743 384.348C478.239 383.695 477.865 382.92 477.623 382.024C477.38 381.128 477.259 380.12 477.259 379C477.259 376.611 477.791 374.791 478.855 373.54C479.919 372.289 481.44 371.664 483.419 371.664C484.053 371.664 484.688 371.739 485.323 371.888C485.957 372.019 486.527 372.28 487.031 372.672C487.535 373.064 487.945 373.624 488.263 374.352C488.58 375.061 488.739 376.004 488.739 377.18C488.739 377.796 488.683 378.477 488.571 379.224H479.583C479.583 380.045 479.667 380.773 479.835 381.408C480.003 382.043 480.264 382.584 480.619 383.032C480.973 383.461 481.431 383.797 481.991 384.04C482.569 384.264 483.269 384.376 484.091 384.376C484.725 384.376 485.36 384.264 485.995 384.04C486.629 383.816 487.105 383.555 487.423 383.256L488.263 384.88ZM483.447 373.624C482.345 373.624 481.459 373.913 480.787 374.492C480.133 375.071 479.741 376.06 479.611 377.46H486.555C486.555 376.041 486.284 375.052 485.743 374.492C485.201 373.913 484.436 373.624 483.447 373.624ZM501.249 386V378.02C501.249 376.564 501.035 375.472 500.605 374.744C500.195 373.997 499.429 373.624 498.309 373.624C497.32 373.624 496.499 373.895 495.845 374.436C495.211 374.959 494.763 375.621 494.501 376.424V386H492.261V372H493.829L494.249 373.708H494.361C494.809 373.111 495.407 372.625 496.153 372.252C496.919 371.86 497.824 371.664 498.869 371.664C499.635 371.664 500.307 371.757 500.885 371.944C501.464 372.112 501.94 372.42 502.313 372.868C502.705 373.316 502.995 373.923 503.181 374.688C503.387 375.435 503.489 376.387 503.489 377.544V386H501.249ZM505.726 372H507.91V369.228L510.15 368.584V372H513.958V373.96H510.15V381.716C510.15 382.687 510.271 383.377 510.514 383.788C510.757 384.18 511.167 384.376 511.746 384.376C512.231 384.376 512.642 384.329 512.978 384.236C513.314 384.124 513.687 383.984 514.098 383.816L514.602 385.524C514.098 385.767 513.547 385.963 512.95 386.112C512.353 386.261 511.709 386.336 511.018 386.336C509.879 386.336 509.077 386.019 508.61 385.384C508.143 384.731 507.91 383.648 507.91 382.136V373.96H505.726V372ZM524.527 366.4H526.767V373.372H526.879C527.308 372.831 527.85 372.411 528.503 372.112C529.175 371.813 529.903 371.664 530.687 371.664C532.498 371.664 533.851 372.243 534.747 373.4C535.662 374.557 536.119 376.349 536.119 378.776C536.119 381.221 535.522 383.079 534.327 384.348C533.132 385.617 531.452 386.252 529.287 386.252C528.242 386.252 527.29 386.14 526.431 385.916C525.591 385.692 524.956 385.449 524.527 385.188V366.4ZM530.295 373.624C529.362 373.624 528.606 373.885 528.027 374.408C527.448 374.931 527.028 375.668 526.767 376.62V383.676C527.122 383.881 527.551 384.04 528.055 384.152C528.559 384.245 529.082 384.292 529.623 384.292C530.892 384.292 531.9 383.844 532.647 382.948C533.412 382.052 533.795 380.652 533.795 378.748C533.795 378.02 533.73 377.339 533.599 376.704C533.468 376.069 533.263 375.528 532.983 375.08C532.703 374.632 532.339 374.277 531.891 374.016C531.462 373.755 530.93 373.624 530.295 373.624ZM549.868 384.88C549.308 385.328 548.599 385.683 547.74 385.944C546.9 386.205 546.004 386.336 545.052 386.336C543.988 386.336 543.064 386.168 542.28 385.832C541.496 385.477 540.852 384.983 540.348 384.348C539.844 383.695 539.471 382.92 539.228 382.024C538.986 381.128 538.864 380.12 538.864 379C538.864 376.611 539.396 374.791 540.46 373.54C541.524 372.289 543.046 371.664 545.024 371.664C545.659 371.664 546.294 371.739 546.928 371.888C547.563 372.019 548.132 372.28 548.636 372.672C549.14 373.064 549.551 373.624 549.868 374.352C550.186 375.061 550.344 376.004 550.344 377.18C550.344 377.796 550.288 378.477 550.176 379.224H541.188C541.188 380.045 541.272 380.773 541.44 381.408C541.608 382.043 541.87 382.584 542.224 383.032C542.579 383.461 543.036 383.797 543.596 384.04C544.175 384.264 544.875 384.376 545.696 384.376C546.331 384.376 546.966 384.264 547.6 384.04C548.235 383.816 548.711 383.555 549.028 383.256L549.868 384.88ZM545.052 373.624C543.951 373.624 543.064 373.913 542.392 374.492C541.739 375.071 541.347 376.06 541.216 377.46H548.16C548.16 376.041 547.89 375.052 547.348 374.492C546.807 373.913 546.042 373.624 545.052 373.624ZM552.327 372H554.511V371.216C554.511 370.357 554.576 369.611 554.707 368.976C554.856 368.341 555.09 367.828 555.407 367.436C555.724 367.025 556.135 366.727 556.639 366.54C557.143 366.335 557.768 366.232 558.515 366.232C559.112 366.232 559.635 366.269 560.083 366.344C560.55 366.419 561.035 366.559 561.539 366.764L561.035 368.64C560.606 368.453 560.195 368.332 559.803 368.276C559.43 368.22 559.075 368.192 558.739 368.192C558.254 368.192 557.871 368.267 557.591 368.416C557.33 368.565 557.134 368.789 557.003 369.088C556.891 369.368 556.816 369.723 556.779 370.152C556.76 370.563 556.751 371.048 556.751 371.608V372H560.475V373.96H556.751V386H554.511V373.96H552.327V372ZM561.724 379C561.724 376.629 562.246 374.819 563.292 373.568C564.356 372.299 565.877 371.664 567.856 371.664C568.901 371.664 569.806 371.841 570.572 372.196C571.356 372.532 572 373.027 572.504 373.68C573.008 374.315 573.381 375.089 573.624 376.004C573.866 376.9 573.988 377.899 573.988 379C573.988 381.371 573.456 383.191 572.392 384.46C571.346 385.711 569.834 386.336 567.856 386.336C566.81 386.336 565.896 386.168 565.112 385.832C564.346 385.477 563.712 384.983 563.208 384.348C562.704 383.695 562.33 382.92 562.088 382.024C561.845 381.109 561.724 380.101 561.724 379ZM564.048 379C564.048 379.709 564.113 380.391 564.244 381.044C564.393 381.697 564.617 382.267 564.916 382.752C565.214 383.237 565.606 383.629 566.092 383.928C566.577 384.227 567.165 384.376 567.856 384.376C570.394 384.395 571.664 382.603 571.664 379C571.664 378.272 571.589 377.581 571.44 376.928C571.309 376.275 571.094 375.705 570.796 375.22C570.497 374.735 570.105 374.352 569.62 374.072C569.134 373.773 568.546 373.624 567.856 373.624C565.317 373.605 564.048 375.397 564.048 379ZM584.127 374.156C583.567 373.969 583.035 373.876 582.531 373.876C581.729 373.876 581.094 374.1 580.627 374.548C580.161 374.977 579.871 375.528 579.759 376.2V386H577.519V372H579.087L579.507 373.708H579.619C579.974 373.073 580.394 372.588 580.879 372.252C581.383 371.897 582.018 371.72 582.783 371.72C583.325 371.72 583.931 371.813 584.603 372L584.127 374.156ZM597.255 384.88C596.695 385.328 595.986 385.683 595.127 385.944C594.287 386.205 593.391 386.336 592.439 386.336C591.375 386.336 590.451 386.168 589.667 385.832C588.883 385.477 588.239 384.983 587.735 384.348C587.231 383.695 586.858 382.92 586.615 382.024C586.372 381.128 586.251 380.12 586.251 379C586.251 376.611 586.783 374.791 587.847 373.54C588.911 372.289 590.432 371.664 592.411 371.664C593.046 371.664 593.68 371.739 594.315 371.888C594.95 372.019 595.519 372.28 596.023 372.672C596.527 373.064 596.938 373.624 597.255 374.352C597.572 375.061 597.731 376.004 597.731 377.18C597.731 377.796 597.675 378.477 597.563 379.224H588.575C588.575 380.045 588.659 380.773 588.827 381.408C588.995 382.043 589.256 382.584 589.611 383.032C589.966 383.461 590.423 383.797 590.983 384.04C591.562 384.264 592.262 384.376 593.083 384.376C593.718 384.376 594.352 384.264 594.987 384.04C595.622 383.816 596.098 383.555 596.415 383.256L597.255 384.88ZM592.439 373.624C591.338 373.624 590.451 373.913 589.779 374.492C589.126 375.071 588.734 376.06 588.603 377.46H595.547C595.547 376.041 595.276 375.052 594.735 374.492C594.194 373.913 593.428 373.624 592.439 373.624ZM608.495 373.036C609.204 372.607 610.025 372.289 610.959 372.084C611.911 371.879 612.9 371.776 613.927 371.776C614.897 371.776 615.672 371.907 616.251 372.168C616.848 372.429 617.296 372.775 617.595 373.204C617.912 373.615 618.117 374.072 618.211 374.576C618.323 375.08 618.379 375.584 618.379 376.088C618.379 377.208 618.351 378.3 618.295 379.364C618.239 380.428 618.211 381.436 618.211 382.388C618.211 383.079 618.239 383.732 618.295 384.348C618.351 384.964 618.453 385.533 618.603 386.056H616.951L616.363 384.096H616.223C616.055 384.357 615.84 384.619 615.579 384.88C615.336 385.123 615.037 385.347 614.683 385.552C614.328 385.739 613.917 385.897 613.451 386.028C612.984 386.159 612.452 386.224 611.855 386.224C611.257 386.224 610.697 386.131 610.175 385.944C609.671 385.757 609.232 385.496 608.859 385.16C608.485 384.805 608.187 384.385 607.963 383.9C607.757 383.415 607.655 382.864 607.655 382.248C607.655 381.427 607.823 380.745 608.159 380.204C608.495 379.644 608.961 379.205 609.559 378.888C610.175 378.552 610.903 378.319 611.743 378.188C612.601 378.039 613.544 377.964 614.571 377.964C614.832 377.964 615.084 377.964 615.327 377.964C615.588 377.964 615.849 377.983 616.111 378.02C616.167 377.46 616.195 376.956 616.195 376.508C616.195 375.481 615.989 374.763 615.579 374.352C615.168 373.941 614.421 373.736 613.339 373.736C613.021 373.736 612.676 373.764 612.303 373.82C611.948 373.857 611.575 373.923 611.183 374.016C610.809 374.091 610.445 374.193 610.091 374.324C609.755 374.436 609.456 374.567 609.195 374.716L608.495 373.036ZM612.471 384.264C612.993 384.264 613.46 384.199 613.871 384.068C614.281 383.919 614.636 383.741 614.935 383.536C615.233 383.312 615.476 383.069 615.663 382.808C615.868 382.547 616.017 382.295 616.111 382.052V379.728C615.849 379.709 615.579 379.7 615.299 379.7C615.037 379.681 614.776 379.672 614.515 379.672C613.936 379.672 613.367 379.709 612.807 379.784C612.265 379.84 611.78 379.961 611.351 380.148C610.94 380.316 610.604 380.559 610.343 380.876C610.1 381.175 609.979 381.557 609.979 382.024C609.979 382.677 610.212 383.219 610.678 383.648C611.145 384.059 611.743 384.264 612.471 384.264ZM631.597 386V378.02C631.597 376.564 631.382 375.472 630.953 374.744C630.542 373.997 629.777 373.624 628.657 373.624C627.668 373.624 626.846 373.895 626.193 374.436C625.558 374.959 625.11 375.621 624.849 376.424V386H622.609V372H624.177L624.597 373.708H624.709C625.157 373.111 625.754 372.625 626.501 372.252C627.266 371.86 628.172 371.664 629.217 371.664C629.982 371.664 630.654 371.757 631.233 371.944C631.812 372.112 632.288 372.42 632.661 372.868C633.053 373.316 633.342 373.923 633.529 374.688C633.734 375.435 633.837 376.387 633.837 377.544V386H631.597ZM645.162 373.036C645.872 372.607 646.693 372.289 647.626 372.084C648.578 371.879 649.568 371.776 650.594 371.776C651.565 371.776 652.34 371.907 652.918 372.168C653.516 372.429 653.964 372.775 654.262 373.204C654.58 373.615 654.785 374.072 654.878 374.576C654.99 375.08 655.046 375.584 655.046 376.088C655.046 377.208 655.018 378.3 654.962 379.364C654.906 380.428 654.878 381.436 654.878 382.388C654.878 383.079 654.906 383.732 654.962 384.348C655.018 384.964 655.121 385.533 655.27 386.056H653.618L653.03 384.096H652.89C652.722 384.357 652.508 384.619 652.246 384.88C652.004 385.123 651.705 385.347 651.35 385.552C650.996 385.739 650.585 385.897 650.118 386.028C649.652 386.159 649.12 386.224 648.522 386.224C647.925 386.224 647.365 386.131 646.842 385.944C646.338 385.757 645.9 385.496 645.526 385.16C645.153 384.805 644.854 384.385 644.63 383.9C644.425 383.415 644.322 382.864 644.322 382.248C644.322 381.427 644.49 380.745 644.826 380.204C645.162 379.644 645.629 379.205 646.226 378.888C646.842 378.552 647.57 378.319 648.41 378.188C649.269 378.039 650.212 377.964 651.238 377.964C651.5 377.964 651.752 377.964 651.994 377.964C652.256 377.964 652.517 377.983 652.778 378.02C652.834 377.46 652.862 376.956 652.862 376.508C652.862 375.481 652.657 374.763 652.246 374.352C651.836 373.941 651.089 373.736 650.006 373.736C649.689 373.736 649.344 373.764 648.97 373.82C648.616 373.857 648.242 373.923 647.85 374.016C647.477 374.091 647.113 374.193 646.758 374.324C646.422 374.436 646.124 374.567 645.862 374.716L645.162 373.036ZM649.138 384.264C649.661 384.264 650.128 384.199 650.538 384.068C650.949 383.919 651.304 383.741 651.602 383.536C651.901 383.312 652.144 383.069 652.33 382.808C652.536 382.547 652.685 382.295 652.778 382.052V379.728C652.517 379.709 652.246 379.7 651.966 379.7C651.705 379.681 651.444 379.672 651.182 379.672C650.604 379.672 650.034 379.709 649.474 379.784C648.933 379.84 648.448 379.961 648.018 380.148C647.608 380.316 647.272 380.559 647.01 380.876C646.768 381.175 646.646 381.557 646.646 382.024C646.646 382.677 646.88 383.219 647.346 383.648C647.813 384.059 648.41 384.264 649.138 384.264ZM661.293 372V379.98C661.293 380.708 661.33 381.352 661.405 381.912C661.498 382.453 661.648 382.911 661.853 383.284C662.058 383.639 662.338 383.909 662.693 384.096C663.048 384.283 663.496 384.376 664.037 384.376C664.541 384.376 664.989 384.301 665.381 384.152C665.773 383.984 666.118 383.76 666.417 383.48C666.734 383.2 667.005 382.883 667.229 382.528C667.472 382.155 667.668 381.763 667.817 381.352V372H670.057V382.024C670.057 382.696 670.076 383.396 670.113 384.124C670.169 384.833 670.253 385.459 670.365 386H668.825L668.265 383.788H668.125C667.696 384.516 667.117 385.123 666.389 385.608C665.661 386.093 664.737 386.336 663.617 386.336C662.87 386.336 662.208 386.243 661.629 386.056C661.069 385.888 660.593 385.58 660.201 385.132C659.828 384.684 659.538 384.087 659.333 383.34C659.146 382.575 659.053 381.613 659.053 380.456V372H661.293ZM685.123 381.184C685.123 382.136 685.132 383.004 685.151 383.788C685.17 384.553 685.254 385.309 685.403 386.056H683.891L683.331 384.068H683.219C682.846 384.721 682.304 385.263 681.595 385.692C680.886 386.121 680.055 386.336 679.103 386.336C677.236 386.336 675.846 385.748 674.931 384.572C674.035 383.396 673.587 381.557 673.587 379.056C673.587 376.667 674.147 374.856 675.267 373.624C676.406 372.373 677.964 371.748 679.943 371.748C680.634 371.748 681.175 371.785 681.567 371.86C681.978 371.935 682.416 372.056 682.883 372.224V366.4H685.123V381.184ZM679.467 384.376C680.419 384.376 681.175 384.133 681.735 383.648C682.295 383.144 682.678 382.388 682.883 381.38V374.436C682.547 374.175 682.164 373.988 681.735 373.876C681.306 373.764 680.736 373.708 680.027 373.708C678.739 373.708 677.731 374.137 677.003 374.996C676.275 375.836 675.911 377.189 675.911 379.056C675.911 379.821 675.967 380.531 676.079 381.184C676.21 381.837 676.415 382.397 676.695 382.864C676.975 383.331 677.339 383.704 677.787 383.984C678.254 384.245 678.814 384.376 679.467 384.376ZM689.913 372H692.153V386H689.913V372ZM689.437 367.744C689.437 367.315 689.577 366.951 689.857 366.652C690.156 366.335 690.529 366.176 690.977 366.176C691.425 366.176 691.808 366.335 692.125 366.652C692.443 366.951 692.601 367.315 692.601 367.744C692.601 368.173 692.443 368.528 692.125 368.808C691.808 369.088 691.425 369.228 690.977 369.228C690.529 369.228 690.156 369.088 689.857 368.808C689.577 368.528 689.437 368.173 689.437 367.744ZM707.149 384.88C706.589 385.328 705.88 385.683 705.021 385.944C704.181 386.205 703.285 386.336 702.333 386.336C701.269 386.336 700.345 386.168 699.561 385.832C698.777 385.477 698.133 384.983 697.629 384.348C697.125 383.695 696.752 382.92 696.509 382.024C696.267 381.128 696.145 380.12 696.145 379C696.145 376.611 696.677 374.791 697.741 373.54C698.805 372.289 700.327 371.664 702.305 371.664C702.94 371.664 703.575 371.739 704.209 371.888C704.844 372.019 705.413 372.28 705.917 372.672C706.421 373.064 706.832 373.624 707.149 374.352C707.467 375.061 707.625 376.004 707.625 377.18C707.625 377.796 707.569 378.477 707.457 379.224H698.469C698.469 380.045 698.553 380.773 698.721 381.408C698.889 382.043 699.151 382.584 699.505 383.032C699.86 383.461 700.317 383.797 700.877 384.04C701.456 384.264 702.156 384.376 702.977 384.376C703.612 384.376 704.247 384.264 704.881 384.04C705.516 383.816 705.992 383.555 706.309 383.256L707.149 384.88ZM702.333 373.624C701.232 373.624 700.345 373.913 699.673 374.492C699.02 375.071 698.628 376.06 698.497 377.46H705.441C705.441 376.041 705.171 375.052 704.629 374.492C704.088 373.913 703.323 373.624 702.333 373.624ZM720.136 386V378.02C720.136 376.564 719.922 375.472 719.492 374.744C719.082 373.997 718.316 373.624 717.196 373.624C716.207 373.624 715.386 373.895 714.732 374.436C714.098 374.959 713.65 375.621 713.388 376.424V386H711.148V372H712.716L713.136 373.708H713.248C713.696 373.111 714.294 372.625 715.04 372.252C715.806 371.86 716.711 371.664 717.756 371.664C718.522 371.664 719.194 371.757 719.772 371.944C720.351 372.112 720.827 372.42 721.2 372.868C721.592 373.316 721.882 373.923 722.068 374.688C722.274 375.435 722.376 376.387 722.376 377.544V386H720.136ZM736.009 385.076C735.449 385.487 734.786 385.795 734.021 386C733.255 386.224 732.453 386.336 731.613 386.336C730.53 386.336 729.615 386.168 728.869 385.832C728.122 385.477 727.506 384.983 727.021 384.348C726.554 383.695 726.209 382.92 725.985 382.024C725.779 381.109 725.677 380.101 725.677 379C725.677 376.629 726.199 374.819 727.245 373.568C728.29 372.299 729.793 371.664 731.753 371.664C732.649 371.664 733.405 371.739 734.021 371.888C734.655 372.019 735.225 372.215 735.729 372.476L735.085 374.408C734.655 374.165 734.179 373.979 733.657 373.848C733.134 373.699 732.574 373.624 731.977 373.624C729.326 373.624 728.001 375.416 728.001 379C728.001 379.709 728.066 380.391 728.197 381.044C728.346 381.679 728.579 382.248 728.897 382.752C729.233 383.237 729.662 383.629 730.185 383.928C730.726 384.227 731.389 384.376 732.173 384.376C732.845 384.376 733.442 384.273 733.965 384.068C734.506 383.863 734.945 383.629 735.281 383.368L736.009 385.076ZM748.657 384.88C748.097 385.328 747.388 385.683 746.529 385.944C745.689 386.205 744.793 386.336 743.841 386.336C742.777 386.336 741.853 386.168 741.069 385.832C740.285 385.477 739.641 384.983 739.137 384.348C738.633 383.695 738.26 382.92 738.017 382.024C737.775 381.128 737.653 380.12 737.653 379C737.653 376.611 738.185 374.791 739.249 373.54C740.313 372.289 741.835 371.664 743.813 371.664C744.448 371.664 745.083 371.739 745.717 371.888C746.352 372.019 746.921 372.28 747.425 372.672C747.929 373.064 748.34 373.624 748.657 374.352C748.975 375.061 749.133 376.004 749.133 377.18C749.133 377.796 749.077 378.477 748.965 379.224H739.977C739.977 380.045 740.061 380.773 740.229 381.408C740.397 382.043 740.659 382.584 741.013 383.032C741.368 383.461 741.825 383.797 742.385 384.04C742.964 384.264 743.664 384.376 744.485 384.376C745.12 384.376 745.755 384.264 746.389 384.04C747.024 383.816 747.5 383.555 747.817 383.256L748.657 384.88ZM743.841 373.624C742.74 373.624 741.853 373.913 741.181 374.492C740.528 375.071 740.136 376.06 740.005 377.46H746.949C746.949 376.041 746.679 375.052 746.137 374.492C745.596 373.913 744.831 373.624 743.841 373.624ZM759.337 379C759.337 376.629 759.86 374.819 760.905 373.568C761.969 372.299 763.49 371.664 765.469 371.664C766.514 371.664 767.42 371.841 768.185 372.196C768.969 372.532 769.613 373.027 770.117 373.68C770.621 374.315 770.994 375.089 771.237 376.004C771.48 376.9 771.601 377.899 771.601 379C771.601 381.371 771.069 383.191 770.005 384.46C768.96 385.711 767.448 386.336 765.469 386.336C764.424 386.336 763.509 386.168 762.725 385.832C761.96 385.477 761.325 384.983 760.821 384.348C760.317 383.695 759.944 382.92 759.701 382.024C759.458 381.109 759.337 380.101 759.337 379ZM761.661 379C761.661 379.709 761.726 380.391 761.857 381.044C762.006 381.697 762.23 382.267 762.529 382.752C762.828 383.237 763.22 383.629 763.705 383.928C764.19 384.227 764.778 384.376 765.469 384.376C768.008 384.395 769.277 382.603 769.277 379C769.277 378.272 769.202 377.581 769.053 376.928C768.922 376.275 768.708 375.705 768.409 375.22C768.11 374.735 767.718 374.352 767.233 374.072C766.748 373.773 766.16 373.624 765.469 373.624C762.93 373.605 761.661 375.397 761.661 379ZM773.264 372H775.448V371.216C775.448 370.357 775.514 369.611 775.644 368.976C775.794 368.341 776.027 367.828 776.344 367.436C776.662 367.025 777.072 366.727 777.576 366.54C778.08 366.335 778.706 366.232 779.452 366.232C780.05 366.232 780.572 366.269 781.02 366.344C781.487 366.419 781.972 366.559 782.476 366.764L781.972 368.64C781.543 368.453 781.132 368.332 780.74 368.276C780.367 368.22 780.012 368.192 779.676 368.192C779.191 368.192 778.808 368.267 778.528 368.416C778.267 368.565 778.071 368.789 777.94 369.088C777.828 369.368 777.754 369.723 777.716 370.152C777.698 370.563 777.688 371.048 777.688 371.608V372H781.412V373.96H777.688V386H775.448V373.96H773.264V372ZM231.38 406.4C231.735 406.344 232.127 406.307 232.556 406.288C233.004 406.251 233.461 406.232 233.928 406.232C234.413 406.213 234.88 406.204 235.328 406.204C235.795 406.185 236.224 406.176 236.616 406.176C238.184 406.176 239.537 406.419 240.676 406.904C241.833 407.389 242.785 408.071 243.532 408.948C244.279 409.807 244.829 410.843 245.184 412.056C245.557 413.269 245.744 414.604 245.744 416.06C245.744 417.385 245.567 418.664 245.212 419.896C244.876 421.109 244.335 422.192 243.588 423.144C242.841 424.077 241.871 424.833 240.676 425.412C239.481 425.972 238.035 426.252 236.336 426.252C236.037 426.252 235.645 426.243 235.16 426.224C234.693 426.224 234.208 426.205 233.704 426.168C233.2 426.149 232.733 426.131 232.304 426.112C231.875 426.093 231.567 426.065 231.38 426.028V406.4ZM236.672 408.248C236.429 408.248 236.159 408.248 235.86 408.248C235.58 408.248 235.3 408.257 235.02 408.276C234.74 408.295 234.479 408.313 234.236 408.332C234.012 408.351 233.835 408.369 233.704 408.388V424.068C233.797 424.087 233.975 424.105 234.236 424.124C234.497 424.124 234.768 424.133 235.048 424.152C235.328 424.152 235.599 424.161 235.86 424.18C236.121 424.18 236.299 424.18 236.392 424.18C237.699 424.18 238.791 423.956 239.668 423.508C240.564 423.06 241.273 422.463 241.796 421.716C242.337 420.951 242.72 420.083 242.944 419.112C243.168 418.123 243.28 417.105 243.28 416.06C243.28 415.145 243.177 414.231 242.972 413.316C242.767 412.383 242.412 411.543 241.908 410.796C241.404 410.049 240.723 409.443 239.864 408.976C239.024 408.491 237.96 408.248 236.672 408.248ZM259.696 424.88C259.136 425.328 258.427 425.683 257.568 425.944C256.728 426.205 255.832 426.336 254.88 426.336C253.816 426.336 252.892 426.168 252.108 425.832C251.324 425.477 250.68 424.983 250.176 424.348C249.672 423.695 249.299 422.92 249.056 422.024C248.814 421.128 248.692 420.12 248.692 419C248.692 416.611 249.224 414.791 250.288 413.54C251.352 412.289 252.874 411.664 254.852 411.664C255.487 411.664 256.122 411.739 256.756 411.888C257.391 412.019 257.96 412.28 258.464 412.672C258.968 413.064 259.379 413.624 259.696 414.352C260.014 415.061 260.172 416.004 260.172 417.18C260.172 417.796 260.116 418.477 260.004 419.224H251.016C251.016 420.045 251.1 420.773 251.268 421.408C251.436 422.043 251.698 422.584 252.052 423.032C252.407 423.461 252.864 423.797 253.424 424.04C254.003 424.264 254.703 424.376 255.524 424.376C256.159 424.376 256.794 424.264 257.428 424.04C258.063 423.816 258.539 423.555 258.856 423.256L259.696 424.88ZM254.88 413.624C253.779 413.624 252.892 413.913 252.22 414.492C251.567 415.071 251.175 416.06 251.044 417.46H257.988C257.988 416.041 257.718 415.052 257.176 414.492C256.635 413.913 255.87 413.624 254.88 413.624ZM269.855 422.192C269.855 421.632 269.687 421.193 269.351 420.876C269.015 420.559 268.595 420.297 268.091 420.092C267.606 419.868 267.064 419.663 266.467 419.476C265.888 419.271 265.347 419.019 264.843 418.72C264.358 418.403 263.947 418.001 263.611 417.516C263.275 417.031 263.107 416.377 263.107 415.556C263.107 414.212 263.49 413.232 264.255 412.616C265.02 411.981 266.084 411.664 267.447 411.664C268.455 411.664 269.295 411.757 269.967 411.944C270.658 412.112 271.255 412.317 271.759 412.56L271.227 414.408C270.798 414.203 270.275 414.025 269.659 413.876C269.062 413.708 268.418 413.624 267.727 413.624C266.906 413.624 266.299 413.764 265.907 414.044C265.534 414.324 265.347 414.809 265.347 415.5C265.347 415.985 265.515 416.368 265.851 416.648C266.187 416.909 266.598 417.152 267.083 417.376C267.587 417.581 268.128 417.787 268.707 417.992C269.304 418.197 269.846 418.468 270.331 418.804C270.835 419.14 271.255 419.569 271.591 420.092C271.927 420.596 272.095 421.268 272.095 422.108C272.095 422.705 271.992 423.265 271.787 423.788C271.6 424.311 271.302 424.759 270.891 425.132C270.48 425.505 269.967 425.795 269.351 426C268.754 426.224 268.044 426.336 267.223 426.336C266.159 426.336 265.254 426.233 264.507 426.028C263.76 425.823 263.135 425.58 262.631 425.3L263.303 423.396C263.732 423.639 264.292 423.863 264.983 424.068C265.674 424.273 266.374 424.376 267.083 424.376C267.886 424.376 268.548 424.217 269.071 423.9C269.594 423.583 269.855 423.013 269.855 422.192ZM275.956 412H278.196V426H275.956V412ZM275.48 407.744C275.48 407.315 275.62 406.951 275.9 406.652C276.199 406.335 276.572 406.176 277.02 406.176C277.468 406.176 277.851 406.335 278.168 406.652C278.486 406.951 278.644 407.315 278.644 407.744C278.644 408.173 278.486 408.528 278.168 408.808C277.851 409.088 277.468 409.228 277.02 409.228C276.572 409.228 276.199 409.088 275.9 408.808C275.62 408.528 275.48 408.173 275.48 407.744ZM293.696 426.644C293.696 428.455 293.211 429.789 292.24 430.648C291.288 431.507 289.87 431.936 287.984 431.936C286.864 431.936 285.959 431.861 285.268 431.712C284.596 431.581 284.018 431.404 283.532 431.18L284.12 429.276C284.55 429.444 285.026 429.603 285.548 429.752C286.071 429.901 286.752 429.976 287.592 429.976C288.376 429.976 289.011 429.901 289.496 429.752C290 429.621 290.402 429.388 290.7 429.052C290.999 428.735 291.204 428.315 291.316 427.792C291.428 427.288 291.484 426.681 291.484 425.972V424.628H291.372C290.999 425.169 290.523 425.589 289.944 425.888C289.366 426.168 288.61 426.308 287.676 426.308C285.791 426.308 284.4 425.72 283.504 424.544C282.627 423.368 282.188 421.539 282.188 419.056C282.188 416.667 282.758 414.856 283.896 413.624C285.035 412.373 286.715 411.748 288.936 411.748C290 411.748 290.906 411.832 291.652 412C292.418 412.168 293.099 412.364 293.696 412.588V426.644ZM288.068 424.348C289.02 424.348 289.767 424.115 290.308 423.648C290.85 423.163 291.232 422.416 291.456 421.408V414.24C290.71 413.885 289.758 413.708 288.6 413.708C287.331 413.708 286.332 414.137 285.604 414.996C284.876 415.855 284.512 417.199 284.512 419.028C284.512 419.812 284.578 420.531 284.708 421.184C284.839 421.837 285.044 422.397 285.324 422.864C285.604 423.331 285.968 423.695 286.416 423.956C286.864 424.217 287.415 424.348 288.068 424.348ZM306.999 426V418.02C306.999 416.564 306.785 415.472 306.355 414.744C305.945 413.997 305.179 413.624 304.059 413.624C303.07 413.624 302.249 413.895 301.595 414.436C300.961 414.959 300.513 415.621 300.251 416.424V426H298.011V412H299.579L299.999 413.708H300.111C300.559 413.111 301.157 412.625 301.903 412.252C302.669 411.86 303.574 411.664 304.619 411.664C305.385 411.664 306.057 411.757 306.635 411.944C307.214 412.112 307.69 412.42 308.063 412.868C308.455 413.316 308.745 413.923 308.931 414.688C309.137 415.435 309.239 416.387 309.239 417.544V426H306.999ZM332.794 408.472H326.69V426H324.366V408.472H318.262V406.4H332.794V408.472ZM344.433 426V418.02C344.433 417.292 344.386 416.657 344.293 416.116C344.218 415.556 344.069 415.099 343.845 414.744C343.621 414.371 343.313 414.091 342.921 413.904C342.548 413.717 342.053 413.624 341.437 413.624C340.56 413.624 339.766 413.913 339.057 414.492C338.348 415.052 337.89 415.78 337.685 416.676V426H335.445V406.4H337.685V413.568H337.797C338.282 412.989 338.861 412.532 339.533 412.196C340.224 411.841 341.073 411.664 342.081 411.664C342.865 411.664 343.546 411.757 344.125 411.944C344.704 412.112 345.18 412.42 345.553 412.868C345.945 413.316 346.225 413.923 346.393 414.688C346.58 415.435 346.673 416.387 346.673 417.544V426H344.433ZM351.234 412H353.474V426H351.234V412ZM350.758 407.744C350.758 407.315 350.898 406.951 351.178 406.652C351.476 406.335 351.85 406.176 352.298 406.176C352.746 406.176 353.128 406.335 353.446 406.652C353.763 406.951 353.922 407.315 353.922 407.744C353.922 408.173 353.763 408.528 353.446 408.808C353.128 409.088 352.746 409.228 352.298 409.228C351.85 409.228 351.476 409.088 351.178 408.808C350.898 408.528 350.758 408.173 350.758 407.744ZM367.238 426V418.02C367.238 416.564 367.023 415.472 366.594 414.744C366.183 413.997 365.418 413.624 364.298 413.624C363.308 413.624 362.487 413.895 361.834 414.436C361.199 414.959 360.751 415.621 360.49 416.424V426H358.25V412H359.818L360.238 413.708H360.35C360.798 413.111 361.395 412.625 362.142 412.252C362.907 411.86 363.812 411.664 364.858 411.664C365.623 411.664 366.295 411.757 366.874 411.944C367.452 412.112 367.928 412.42 368.302 412.868C368.694 413.316 368.983 413.923 369.17 414.688C369.375 415.435 369.478 416.387 369.478 417.544V426H367.238ZM377.09 419.7H375.802V426H373.562V406.4H375.802V418.328L376.95 417.936L381.29 412H383.894L379.61 417.628L378.462 418.552L379.862 419.672L384.538 426H381.766L377.09 419.7ZM396.853 424.88C396.293 425.328 395.583 425.683 394.725 425.944C393.885 426.205 392.989 426.336 392.037 426.336C390.973 426.336 390.049 426.168 389.265 425.832C388.481 425.477 387.837 424.983 387.333 424.348C386.829 423.695 386.455 422.92 386.213 422.024C385.97 421.128 385.849 420.12 385.849 419C385.849 416.611 386.381 414.791 387.445 413.54C388.509 412.289 390.03 411.664 392.009 411.664C392.643 411.664 393.278 411.739 393.913 411.888C394.547 412.019 395.117 412.28 395.621 412.672C396.125 413.064 396.535 413.624 396.853 414.352C397.17 415.061 397.329 416.004 397.329 417.18C397.329 417.796 397.273 418.477 397.161 419.224H388.173C388.173 420.045 388.257 420.773 388.425 421.408C388.593 422.043 388.854 422.584 389.209 423.032C389.563 423.461 390.021 423.797 390.581 424.04C391.159 424.264 391.859 424.376 392.681 424.376C393.315 424.376 393.95 424.264 394.585 424.04C395.219 423.816 395.695 423.555 396.013 423.256L396.853 424.88ZM392.037 413.624C390.935 413.624 390.049 413.913 389.377 414.492C388.723 415.071 388.331 416.06 388.201 417.46H395.145C395.145 416.041 394.874 415.052 394.333 414.492C393.791 413.913 393.026 413.624 392.037 413.624ZM407.459 414.156C406.899 413.969 406.367 413.876 405.863 413.876C405.061 413.876 404.426 414.1 403.959 414.548C403.493 414.977 403.203 415.528 403.091 416.2V426H400.851V412H402.419L402.839 413.708H402.951C403.306 413.073 403.726 412.588 404.211 412.252C404.715 411.897 405.35 411.72 406.115 411.72C406.657 411.72 407.263 411.813 407.935 412L407.459 414.156ZM416.527 422.192C416.527 421.632 416.359 421.193 416.023 420.876C415.687 420.559 415.267 420.297 414.763 420.092C414.278 419.868 413.736 419.663 413.139 419.476C412.56 419.271 412.019 419.019 411.515 418.72C411.03 418.403 410.619 418.001 410.283 417.516C409.947 417.031 409.779 416.377 409.779 415.556C409.779 414.212 410.162 413.232 410.927 412.616C411.692 411.981 412.756 411.664 414.119 411.664C415.127 411.664 415.967 411.757 416.639 411.944C417.33 412.112 417.927 412.317 418.431 412.56L417.899 414.408C417.47 414.203 416.947 414.025 416.331 413.876C415.734 413.708 415.09 413.624 414.399 413.624C413.578 413.624 412.971 413.764 412.579 414.044C412.206 414.324 412.019 414.809 412.019 415.5C412.019 415.985 412.187 416.368 412.523 416.648C412.859 416.909 413.27 417.152 413.755 417.376C414.259 417.581 414.8 417.787 415.379 417.992C415.976 418.197 416.518 418.468 417.003 418.804C417.507 419.14 417.927 419.569 418.263 420.092C418.599 420.596 418.767 421.268 418.767 422.108C418.767 422.705 418.664 423.265 418.459 423.788C418.272 424.311 417.974 424.759 417.563 425.132C417.152 425.505 416.639 425.795 416.023 426C415.426 426.224 414.716 426.336 413.895 426.336C412.831 426.336 411.926 426.233 411.179 426.028C410.432 425.823 409.807 425.58 409.303 425.3L409.975 423.396C410.404 423.639 410.964 423.863 411.655 424.068C412.346 424.273 413.046 424.376 413.755 424.376C414.558 424.376 415.22 424.217 415.743 423.9C416.266 423.583 416.527 423.013 416.527 422.192ZM429.393 413.036C430.102 412.607 430.924 412.289 431.857 412.084C432.809 411.879 433.798 411.776 434.825 411.776C435.796 411.776 436.57 411.907 437.149 412.168C437.746 412.429 438.194 412.775 438.493 413.204C438.81 413.615 439.016 414.072 439.109 414.576C439.221 415.08 439.277 415.584 439.277 416.088C439.277 417.208 439.249 418.3 439.193 419.364C439.137 420.428 439.109 421.436 439.109 422.388C439.109 423.079 439.137 423.732 439.193 424.348C439.249 424.964 439.352 425.533 439.501 426.056H437.849L437.261 424.096H437.121C436.953 424.357 436.738 424.619 436.477 424.88C436.234 425.123 435.936 425.347 435.581 425.552C435.226 425.739 434.816 425.897 434.349 426.028C433.882 426.159 433.35 426.224 432.753 426.224C432.156 426.224 431.596 426.131 431.073 425.944C430.569 425.757 430.13 425.496 429.757 425.16C429.384 424.805 429.085 424.385 428.861 423.9C428.656 423.415 428.553 422.864 428.553 422.248C428.553 421.427 428.721 420.745 429.057 420.204C429.393 419.644 429.86 419.205 430.457 418.888C431.073 418.552 431.801 418.319 432.641 418.188C433.5 418.039 434.442 417.964 435.469 417.964C435.73 417.964 435.982 417.964 436.225 417.964C436.486 417.964 436.748 417.983 437.009 418.02C437.065 417.46 437.093 416.956 437.093 416.508C437.093 415.481 436.888 414.763 436.477 414.352C436.066 413.941 435.32 413.736 434.237 413.736C433.92 413.736 433.574 413.764 433.201 413.82C432.846 413.857 432.473 413.923 432.081 414.016C431.708 414.091 431.344 414.193 430.989 414.324C430.653 414.436 430.354 414.567 430.093 414.716L429.393 413.036ZM433.369 424.264C433.892 424.264 434.358 424.199 434.769 424.068C435.18 423.919 435.534 423.741 435.833 423.536C436.132 423.312 436.374 423.069 436.561 422.808C436.766 422.547 436.916 422.295 437.009 422.052V419.728C436.748 419.709 436.477 419.7 436.197 419.7C435.936 419.681 435.674 419.672 435.413 419.672C434.834 419.672 434.265 419.709 433.705 419.784C433.164 419.84 432.678 419.961 432.249 420.148C431.838 420.316 431.502 420.559 431.241 420.876C430.998 421.175 430.877 421.557 430.877 422.024C430.877 422.677 431.11 423.219 431.577 423.648C432.044 424.059 432.641 424.264 433.369 424.264ZM452.496 426V418.02C452.496 416.564 452.281 415.472 451.852 414.744C451.441 413.997 450.676 413.624 449.556 413.624C448.566 413.624 447.745 413.895 447.092 414.436C446.457 414.959 446.009 415.621 445.748 416.424V426H443.508V412H445.076L445.496 413.708H445.608C446.056 413.111 446.653 412.625 447.4 412.252C448.165 411.86 449.07 411.664 450.116 411.664C450.881 411.664 451.553 411.757 452.132 411.944C452.71 412.112 453.186 412.42 453.56 412.868C453.952 413.316 454.241 413.923 454.428 414.688C454.633 415.435 454.736 416.387 454.736 417.544V426H452.496ZM469.572 421.184C469.572 422.136 469.581 423.004 469.6 423.788C469.619 424.553 469.703 425.309 469.852 426.056H468.34L467.78 424.068H467.668C467.295 424.721 466.753 425.263 466.044 425.692C465.335 426.121 464.504 426.336 463.552 426.336C461.685 426.336 460.295 425.748 459.38 424.572C458.484 423.396 458.036 421.557 458.036 419.056C458.036 416.667 458.596 414.856 459.716 413.624C460.855 412.373 462.413 411.748 464.392 411.748C465.083 411.748 465.624 411.785 466.016 411.86C466.427 411.935 466.865 412.056 467.332 412.224V406.4H469.572V421.184ZM463.916 424.376C464.868 424.376 465.624 424.133 466.184 423.648C466.744 423.144 467.127 422.388 467.332 421.38V414.436C466.996 414.175 466.613 413.988 466.184 413.876C465.755 413.764 465.185 413.708 464.476 413.708C463.188 413.708 462.18 414.137 461.452 414.996C460.724 415.836 460.36 417.189 460.36 419.056C460.36 419.821 460.416 420.531 460.528 421.184C460.659 421.837 460.864 422.397 461.144 422.864C461.424 423.331 461.788 423.704 462.236 423.984C462.703 424.245 463.263 424.376 463.916 424.376ZM481.575 406.596C482.285 406.428 483.05 406.316 483.871 406.26C484.693 406.204 485.505 406.176 486.307 406.176C487.166 406.176 488.034 406.26 488.911 406.428C489.807 406.596 490.619 406.904 491.347 407.352C492.075 407.8 492.663 408.416 493.111 409.2C493.578 409.984 493.811 410.983 493.811 412.196C493.811 413.391 493.597 414.399 493.167 415.22C492.738 416.041 492.169 416.713 491.459 417.236C490.75 417.74 489.938 418.104 489.023 418.328C488.109 418.552 487.166 418.664 486.195 418.664C486.102 418.664 485.943 418.664 485.719 418.664C485.514 418.664 485.29 418.664 485.047 418.664C484.823 418.645 484.599 418.627 484.375 418.608C484.151 418.589 483.993 418.571 483.899 418.552V426H481.575V406.596ZM486.363 408.192C485.878 408.192 485.411 408.201 484.963 408.22C484.515 408.239 484.161 408.285 483.899 408.36V416.48C483.993 416.517 484.142 416.545 484.347 416.564C484.553 416.564 484.767 416.573 484.991 416.592C485.215 416.592 485.43 416.592 485.635 416.592C485.841 416.592 485.99 416.592 486.083 416.592C486.718 416.592 487.343 416.536 487.959 416.424C488.594 416.293 489.163 416.069 489.667 415.752C490.171 415.435 490.573 414.987 490.871 414.408C491.189 413.829 491.347 413.092 491.347 412.196C491.347 411.431 491.198 410.796 490.899 410.292C490.619 409.769 490.237 409.359 489.751 409.06C489.285 408.743 488.753 408.519 488.155 408.388C487.558 408.257 486.961 408.192 486.363 408.192ZM502.616 414.156C502.056 413.969 501.524 413.876 501.02 413.876C500.217 413.876 499.582 414.1 499.116 414.548C498.649 414.977 498.36 415.528 498.248 416.2V426H496.008V412H497.576L497.996 413.708H498.108C498.462 413.073 498.882 412.588 499.368 412.252C499.872 411.897 500.506 411.72 501.272 411.72C501.813 411.72 502.42 411.813 503.092 412L502.616 414.156ZM505.299 413.036C506.009 412.607 506.83 412.289 507.763 412.084C508.715 411.879 509.705 411.776 510.731 411.776C511.702 411.776 512.477 411.907 513.055 412.168C513.653 412.429 514.101 412.775 514.399 413.204C514.717 413.615 514.922 414.072 515.015 414.576C515.127 415.08 515.183 415.584 515.183 416.088C515.183 417.208 515.155 418.3 515.099 419.364C515.043 420.428 515.015 421.436 515.015 422.388C515.015 423.079 515.043 423.732 515.099 424.348C515.155 424.964 515.258 425.533 515.407 426.056H513.755L513.167 424.096H513.027C512.859 424.357 512.645 424.619 512.383 424.88C512.141 425.123 511.842 425.347 511.487 425.552C511.133 425.739 510.722 425.897 510.255 426.028C509.789 426.159 509.257 426.224 508.659 426.224C508.062 426.224 507.502 426.131 506.979 425.944C506.475 425.757 506.037 425.496 505.663 425.16C505.29 424.805 504.991 424.385 504.767 423.9C504.562 423.415 504.459 422.864 504.459 422.248C504.459 421.427 504.627 420.745 504.963 420.204C505.299 419.644 505.766 419.205 506.363 418.888C506.979 418.552 507.707 418.319 508.547 418.188C509.406 418.039 510.349 417.964 511.375 417.964C511.637 417.964 511.889 417.964 512.131 417.964C512.393 417.964 512.654 417.983 512.915 418.02C512.971 417.46 512.999 416.956 512.999 416.508C512.999 415.481 512.794 414.763 512.383 414.352C511.973 413.941 511.226 413.736 510.143 413.736C509.826 413.736 509.481 413.764 509.107 413.82C508.753 413.857 508.379 413.923 507.987 414.016C507.614 414.091 507.25 414.193 506.895 414.324C506.559 414.436 506.261 414.567 505.999 414.716L505.299 413.036ZM509.275 424.264C509.798 424.264 510.265 424.199 510.675 424.068C511.086 423.919 511.441 423.741 511.739 423.536C512.038 423.312 512.281 423.069 512.467 422.808C512.673 422.547 512.822 422.295 512.915 422.052V419.728C512.654 419.709 512.383 419.7 512.103 419.7C511.842 419.681 511.581 419.672 511.319 419.672C510.741 419.672 510.171 419.709 509.611 419.784C509.07 419.84 508.585 419.961 508.155 420.148C507.745 420.316 507.409 420.559 507.147 420.876C506.905 421.175 506.783 421.557 506.783 422.024C506.783 422.677 507.017 423.219 507.483 423.648C507.95 424.059 508.547 424.264 509.275 424.264ZM528.962 425.076C528.402 425.487 527.739 425.795 526.974 426C526.208 426.224 525.406 426.336 524.566 426.336C523.483 426.336 522.568 426.168 521.822 425.832C521.075 425.477 520.459 424.983 519.974 424.348C519.507 423.695 519.162 422.92 518.938 422.024C518.732 421.109 518.63 420.101 518.63 419C518.63 416.629 519.152 414.819 520.198 413.568C521.243 412.299 522.746 411.664 524.706 411.664C525.602 411.664 526.358 411.739 526.974 411.888C527.608 412.019 528.178 412.215 528.682 412.476L528.038 414.408C527.608 414.165 527.132 413.979 526.61 413.848C526.087 413.699 525.527 413.624 524.93 413.624C522.279 413.624 520.954 415.416 520.954 419C520.954 419.709 521.019 420.391 521.15 421.044C521.299 421.679 521.532 422.248 521.85 422.752C522.186 423.237 522.615 423.629 523.138 423.928C523.679 424.227 524.342 424.376 525.126 424.376C525.798 424.376 526.395 424.273 526.918 424.068C527.459 423.863 527.898 423.629 528.234 423.368L528.962 425.076ZM530.199 412H532.383V409.228L534.623 408.584V412H538.431V413.96H534.623V421.716C534.623 422.687 534.744 423.377 534.987 423.788C535.229 424.18 535.64 424.376 536.219 424.376C536.704 424.376 537.115 424.329 537.451 424.236C537.787 424.124 538.16 423.984 538.571 423.816L539.075 425.524C538.571 425.767 538.02 425.963 537.423 426.112C536.825 426.261 536.181 426.336 535.491 426.336C534.352 426.336 533.549 426.019 533.083 425.384C532.616 424.731 532.383 423.648 532.383 422.136V413.96H530.199V412ZM542.011 412H544.251V426H542.011V412ZM541.535 407.744C541.535 407.315 541.675 406.951 541.955 406.652C542.254 406.335 542.627 406.176 543.075 406.176C543.523 406.176 543.906 406.335 544.223 406.652C544.54 406.951 544.699 407.315 544.699 407.744C544.699 408.173 544.54 408.528 544.223 408.808C543.906 409.088 543.523 409.228 543.075 409.228C542.627 409.228 542.254 409.088 541.955 408.808C541.675 408.528 541.535 408.173 541.535 407.744ZM547.179 412H549.363V409.228L551.603 408.584V412H555.411V413.96H551.603V421.716C551.603 422.687 551.724 423.377 551.967 423.788C552.21 424.18 552.62 424.376 553.199 424.376C553.684 424.376 554.095 424.329 554.431 424.236C554.767 424.124 555.14 423.984 555.551 423.816L556.055 425.524C555.551 425.767 555 425.963 554.403 426.112C553.806 426.261 553.162 426.336 552.471 426.336C551.332 426.336 550.53 426.019 550.063 425.384C549.596 424.731 549.363 423.648 549.363 422.136V413.96H547.179V412ZM558.991 412H561.231V426H558.991V412ZM558.515 407.744C558.515 407.315 558.655 406.951 558.935 406.652C559.234 406.335 559.607 406.176 560.055 406.176C560.503 406.176 560.886 406.335 561.203 406.652C561.521 406.951 561.679 407.315 561.679 407.744C561.679 408.173 561.521 408.528 561.203 408.808C560.886 409.088 560.503 409.228 560.055 409.228C559.607 409.228 559.234 409.088 558.935 408.808C558.655 408.528 558.515 408.173 558.515 407.744ZM565.224 419C565.224 416.629 565.746 414.819 566.792 413.568C567.856 412.299 569.377 411.664 571.356 411.664C572.401 411.664 573.306 411.841 574.072 412.196C574.856 412.532 575.5 413.027 576.004 413.68C576.508 414.315 576.881 415.089 577.124 416.004C577.366 416.9 577.488 417.899 577.488 419C577.488 421.371 576.956 423.191 575.892 424.46C574.846 425.711 573.334 426.336 571.356 426.336C570.31 426.336 569.396 426.168 568.612 425.832C567.846 425.477 567.212 424.983 566.708 424.348C566.204 423.695 565.83 422.92 565.588 422.024C565.345 421.109 565.224 420.101 565.224 419ZM567.548 419C567.548 419.709 567.613 420.391 567.744 421.044C567.893 421.697 568.117 422.267 568.416 422.752C568.714 423.237 569.106 423.629 569.592 423.928C570.077 424.227 570.665 424.376 571.356 424.376C573.894 424.395 575.164 422.603 575.164 419C575.164 418.272 575.089 417.581 574.94 416.928C574.809 416.275 574.594 415.705 574.296 415.22C573.997 414.735 573.605 414.352 573.12 414.072C572.634 413.773 572.046 413.624 571.356 413.624C568.817 413.605 567.548 415.397 567.548 419ZM590.007 426V418.02C590.007 416.564 589.793 415.472 589.363 414.744C588.953 413.997 588.187 413.624 587.067 413.624C586.078 413.624 585.257 413.895 584.603 414.436C583.969 414.959 583.521 415.621 583.259 416.424V426H581.019V412H582.587L583.007 413.708H583.119C583.567 413.111 584.165 412.625 584.911 412.252C585.677 411.86 586.582 411.664 587.627 411.664C588.393 411.664 589.065 411.757 589.643 411.944C590.222 412.112 590.698 412.42 591.071 412.868C591.463 413.316 591.753 413.923 591.939 414.688C592.145 415.435 592.247 416.387 592.247 417.544V426H590.007ZM606.552 424.88C605.992 425.328 605.282 425.683 604.424 425.944C603.584 426.205 602.688 426.336 601.736 426.336C600.672 426.336 599.748 426.168 598.964 425.832C598.18 425.477 597.536 424.983 597.032 424.348C596.528 423.695 596.154 422.92 595.912 422.024C595.669 421.128 595.548 420.12 595.548 419C595.548 416.611 596.08 414.791 597.144 413.54C598.208 412.289 599.729 411.664 601.708 411.664C602.342 411.664 602.977 411.739 603.612 411.888C604.246 412.019 604.816 412.28 605.32 412.672C605.824 413.064 606.234 413.624 606.552 414.352C606.869 415.061 607.028 416.004 607.028 417.18C607.028 417.796 606.972 418.477 606.86 419.224H597.872C597.872 420.045 597.956 420.773 598.124 421.408C598.292 422.043 598.553 422.584 598.908 423.032C599.262 423.461 599.72 423.797 600.28 424.04C600.858 424.264 601.558 424.376 602.38 424.376C603.014 424.376 603.649 424.264 604.284 424.04C604.918 423.816 605.394 423.555 605.712 423.256L606.552 424.88ZM601.736 413.624C600.634 413.624 599.748 413.913 599.076 414.492C598.422 415.071 598.03 416.06 597.9 417.46H604.844C604.844 416.041 604.573 415.052 604.032 414.492C603.49 413.913 602.725 413.624 601.736 413.624ZM617.159 414.156C616.599 413.969 616.067 413.876 615.563 413.876C614.76 413.876 614.125 414.1 613.659 414.548C613.192 414.977 612.903 415.528 612.791 416.2V426H610.551V412H612.119L612.539 413.708H612.651C613.005 413.073 613.425 412.588 613.911 412.252C614.415 411.897 615.049 411.72 615.815 411.72C616.356 411.72 616.963 411.813 617.635 412L617.159 414.156ZM626.226 422.192C626.226 421.632 626.058 421.193 625.722 420.876C625.386 420.559 624.966 420.297 624.462 420.092C623.977 419.868 623.435 419.663 622.838 419.476C622.259 419.271 621.718 419.019 621.214 418.72C620.729 418.403 620.318 418.001 619.982 417.516C619.646 417.031 619.478 416.377 619.478 415.556C619.478 414.212 619.861 413.232 620.626 412.616C621.391 411.981 622.455 411.664 623.818 411.664C624.826 411.664 625.666 411.757 626.338 411.944C627.029 412.112 627.626 412.317 628.13 412.56L627.598 414.408C627.169 414.203 626.646 414.025 626.03 413.876C625.433 413.708 624.789 413.624 624.098 413.624C623.277 413.624 622.67 413.764 622.278 414.044C621.905 414.324 621.718 414.809 621.718 415.5C621.718 415.985 621.886 416.368 622.222 416.648C622.558 416.909 622.969 417.152 623.454 417.376C623.958 417.581 624.499 417.787 625.078 417.992C625.675 418.197 626.217 418.468 626.702 418.804C627.206 419.14 627.626 419.569 627.962 420.092C628.298 420.596 628.466 421.268 628.466 422.108C628.466 422.705 628.363 423.265 628.158 423.788C627.971 424.311 627.673 424.759 627.262 425.132C626.851 425.505 626.338 425.795 625.722 426C625.125 426.224 624.415 426.336 623.594 426.336C622.53 426.336 621.625 426.233 620.878 426.028C620.131 425.823 619.506 425.58 619.002 425.3L619.674 423.396C620.103 423.639 620.663 423.863 621.354 424.068C622.045 424.273 622.745 424.376 623.454 424.376C624.257 424.376 624.919 424.217 625.442 423.9C625.965 423.583 626.226 423.013 626.226 422.192ZM631.067 424.712C631.067 424.208 631.207 423.816 631.487 423.536C631.786 423.237 632.178 423.088 632.663 423.088C633.167 423.088 633.569 423.237 633.867 423.536C634.166 423.816 634.315 424.208 634.315 424.712C634.315 425.197 634.166 425.589 633.867 425.888C633.569 426.187 633.167 426.336 632.663 426.336C632.178 426.336 631.786 426.187 631.487 425.888C631.207 425.589 631.067 425.197 631.067 424.712Z" fill="#F2F2F2"/>
<defs>
<filter id="filter0_d_15438_56" x="8" y="12" width="153.428" height="163.483" filterUnits="userSpaceOnUse" color-interpolation-filters="sRGB">
<feFlood flood-opacity="0" result="BackgroundImageFix"/>
<feColorMatrix in="SourceAlpha" type="matrix" values="0 0 0 0 0 0 0 0 0 0 0 0 0 0 0 0 0 0 127 0" result="hardAlpha"/>
<feOffset dy="4"/>
<feGaussianBlur stdDeviation="2"/>
<feColorMatrix type="matrix" values="0 0 0 0 0 0 0 0 0 0 0 0 0 0 0 0 0 0 0.04 0"/>
<feBlend mode="normal" in2="BackgroundImageFix" result="effect1_dropShadow_15438_56"/>
<feBlend mode="normal" in="SourceGraphic" in2="effect1_dropShadow_15438_56" result="shape"/>
</filter>
</defs>
</svg>
