<svg width="91" height="24" viewBox="0 0 91 24" fill="none" xmlns="http://www.w3.org/2000/svg">
<path d="M39.136 6.43659V17.8286H38.112L31.232 8.66059V17.8286H30V6.43659H31.008L37.888 15.6046V6.43659H39.136Z" fill="#828282"/>
<path d="M41.9375 6.43659H43.2495V17.8286H41.9375V6.43659Z" fill="#828282"/>
<path d="M56.8305 6.43659V17.8286H55.6145V9.36459L51.9185 17.8286H50.9905L47.2625 9.42859L47.2785 17.8286H46.0625V6.43659H47.1505L51.4705 16.2606L55.7425 6.43659H56.8305Z" fill="#828282"/>
<path d="M66.1046 11.9726C66.7553 12.1539 67.262 12.4846 67.6246 12.9646C67.9873 13.4339 68.1686 14.0206 68.1686 14.7246C68.1686 15.7166 67.838 16.4846 67.1766 17.0286C66.5153 17.5619 65.582 17.8286 64.3766 17.8286H59.6406V6.43659H64.2166C65.3793 6.43659 66.2806 6.69793 66.9206 7.22059C67.5713 7.73259 67.8966 8.46326 67.8966 9.41259C67.8966 10.0206 67.7366 10.5486 67.4166 10.9966C67.1073 11.4339 66.67 11.7593 66.1046 11.9726ZM60.9366 11.4926H64.0086C64.862 11.4926 65.5073 11.3219 65.9446 10.9806C66.382 10.6393 66.6006 10.1379 66.6006 9.47659C66.6006 8.17526 65.7366 7.52459 64.0086 7.52459H60.9366V11.4926ZM64.2646 16.7406C65.1606 16.7406 65.8166 16.5753 66.2326 16.2446C66.6593 15.9033 66.8726 15.3859 66.8726 14.6926C66.8726 13.2953 66.0033 12.5966 64.2646 12.5966H60.9366V16.7406H64.2646Z" fill="#828282"/>
<path d="M74.9792 17.9566C73.4859 17.9566 72.3552 17.5726 71.5872 16.8046C70.8299 16.0259 70.4512 14.8793 70.4512 13.3646V6.43659H71.7472V13.4766C71.7472 14.5859 72.0193 15.4233 72.5633 15.9886C73.1073 16.5539 73.9126 16.8366 74.9792 16.8366C76.0352 16.8366 76.8299 16.5539 77.3633 15.9886C77.9073 15.4233 78.1793 14.5859 78.1793 13.4766V6.43659H79.4912V13.3646C79.4912 14.8686 79.1073 16.0099 78.3393 16.7886C77.5713 17.5673 76.4512 17.9566 74.9792 17.9566Z" fill="#828282"/>
<path d="M85.8504 17.9566C84.069 17.9566 82.6504 17.4766 81.5944 16.5166L82.0904 15.5086C82.6557 15.9886 83.2317 16.3299 83.8184 16.5326C84.405 16.7353 85.0877 16.8366 85.8664 16.8366C86.7837 16.8366 87.4877 16.6606 87.9784 16.3086C88.4797 15.9459 88.7304 15.4393 88.7304 14.7886C88.7304 14.4046 88.6077 14.0953 88.3624 13.8606C88.1277 13.6153 87.813 13.4233 87.4184 13.2846C87.0344 13.1459 86.517 13.0019 85.8664 12.8526C84.9917 12.6606 84.2717 12.4526 83.7064 12.2286C83.141 12.0046 82.6824 11.6846 82.3304 11.2686C81.9784 10.8419 81.8024 10.2873 81.8024 9.60459C81.8024 8.95393 81.973 8.38326 82.3144 7.89259C82.6557 7.39126 83.1357 7.00193 83.7544 6.72459C84.3837 6.44726 85.1144 6.30859 85.9464 6.30859C86.7357 6.30859 87.4717 6.43126 88.1544 6.67659C88.837 6.92193 89.413 7.27926 89.8824 7.74859L89.3704 8.75659C88.837 8.29793 88.293 7.96193 87.7384 7.74859C87.1944 7.53526 86.597 7.42859 85.9464 7.42859C85.061 7.42859 84.3677 7.62059 83.8664 8.00459C83.365 8.37793 83.1144 8.89526 83.1144 9.55659C83.1144 10.1326 83.333 10.5646 83.7704 10.8526C84.2077 11.1406 84.8797 11.3913 85.7864 11.6046C86.7677 11.8393 87.5357 12.0579 88.0904 12.2606C88.6557 12.4526 89.125 12.7513 89.4984 13.1566C89.8717 13.5513 90.0584 14.0793 90.0584 14.7406C90.0584 15.3806 89.8877 15.9459 89.5464 16.4366C89.205 16.9166 88.7144 17.2899 88.0744 17.5566C87.445 17.8233 86.7037 17.9566 85.8504 17.9566Z" fill="#828282"/>
<path fill-rule="evenodd" clip-rule="evenodd" d="M12 24C18.6274 24 24 18.6274 24 12C24 6.83951 20.7426 2.43984 16.1717 0.744995V15.6V16.9798L15.1959 16.004L8.9717 9.77978V23.58H8.84157C9.84793 23.8538 10.9069 24 12 24ZM7.82858 23.2551C3.25757 21.5603 0 17.1606 0 12C0 5.37258 5.37258 0 12 0C13.0462 0 14.0611 0.133882 15.0286 0.385447V14.2202L8.80434 7.99599L7.82858 7.02023V8.40001V23.2551Z" fill="#828282"/>
</svg>
