<svg width="98" height="24" viewBox="0 0 98 24" fill="none" xmlns="http://www.w3.org/2000/svg">
<path fill-rule="evenodd" clip-rule="evenodd" d="M32.1677 5.35576C32.381 5.15309 32.6637 5.05176 33.0157 5.05176C33.3677 5.05176 33.653 5.15309 33.8717 5.35576C34.0903 5.55843 34.1997 5.81442 34.1997 6.12376C34.1997 6.43309 34.0903 6.68376 33.8717 6.87576C33.653 7.06776 33.3677 7.16376 33.0157 7.16376C32.6637 7.16376 32.381 7.06776 32.1677 6.87576C31.9543 6.68376 31.8477 6.43309 31.8477 6.12376C31.8477 5.81442 31.9543 5.55843 32.1677 5.35576ZM33.9277 8.68376V17.4998H32.1037V8.68376H33.9277ZM44.7214 9.53176C45.3401 10.1931 45.6494 11.1371 45.6494 12.3638V17.4998H43.8254V12.5558C43.8254 11.7664 43.6227 11.1558 43.2174 10.7238C42.8121 10.2918 42.2574 10.0758 41.5534 10.0758C40.8281 10.0758 40.2467 10.3078 39.8094 10.7718C39.3721 11.2358 39.1534 11.9158 39.1534 12.8118V17.4998H37.3294V8.68376H39.1534V10.6198C39.3881 9.95842 39.7827 9.44643 40.3374 9.08376C40.8921 8.72109 41.5321 8.53976 42.2574 8.53976C43.2814 8.53976 44.1027 8.87042 44.7214 9.53176ZM54.5552 9.16376C55.1205 9.55843 55.5205 10.0811 55.7552 10.7318V8.68376H57.5792V17.5958C57.5792 18.4171 57.4112 19.1451 57.0752 19.7798C56.7392 20.4144 56.2565 20.9131 55.6272 21.2758C54.9978 21.6384 54.2512 21.8198 53.3872 21.8198C52.1498 21.8198 51.1498 21.5264 50.3872 20.9398C49.6245 20.3531 49.1472 19.5584 48.9552 18.5558H50.7632C50.9125 19.0784 51.2005 19.4864 51.6272 19.7798C52.0538 20.0731 52.5978 20.2198 53.2592 20.2198C53.9845 20.2198 54.5818 19.9958 55.0512 19.5478C55.5205 19.0998 55.7552 18.4491 55.7552 17.5958V15.4518C55.5205 16.1024 55.1205 16.6251 54.5552 17.0198C53.9898 17.4144 53.3072 17.6118 52.5072 17.6118C51.7392 17.6118 51.0538 17.4304 50.4512 17.0678C49.8485 16.7051 49.3765 16.1824 49.0352 15.4998C48.6938 14.8171 48.5232 14.0118 48.5232 13.0838C48.5232 12.1664 48.6938 11.3664 49.0352 10.6838C49.3765 10.0011 49.8485 9.47843 50.4512 9.11576C51.0538 8.75309 51.7392 8.57176 52.5072 8.57176C53.3072 8.57176 53.9898 8.76909 54.5552 9.16376ZM51.1232 10.9478C50.6378 11.4651 50.3952 12.1771 50.3952 13.0838C50.3952 13.9904 50.6378 14.7024 51.1232 15.2198C51.6085 15.7371 52.2565 15.9958 53.0672 15.9958C53.5792 15.9958 54.0378 15.8758 54.4432 15.6358C54.8485 15.3958 55.1685 15.0571 55.4032 14.6198C55.6378 14.1824 55.7552 13.6704 55.7552 13.0838C55.7552 12.5078 55.6378 11.9984 55.4032 11.5558C55.1685 11.1131 54.8485 10.7718 54.4432 10.5318C54.0378 10.2918 53.5792 10.1718 53.0672 10.1718C52.2565 10.1718 51.6085 10.4304 51.1232 10.9478ZM64.0689 9.04376C64.6236 8.70776 65.2636 8.53976 65.9889 8.53976V10.5238H65.4449C64.6449 10.5238 64.0022 10.7184 63.5169 11.1078C63.0316 11.4971 62.7889 12.1398 62.7889 13.0358V17.4998H60.9649V8.68376H62.7889V10.4118C63.0876 9.83576 63.5142 9.37976 64.0689 9.04376ZM74.1267 9.16376C74.692 9.55843 75.092 10.0811 75.3267 10.7318V8.68376H77.1507V17.4998H75.3267V15.4518C75.092 16.1024 74.692 16.6251 74.1267 17.0198C73.5613 17.4144 72.8787 17.6118 72.0787 17.6118C71.3107 17.6118 70.6253 17.4304 70.0227 17.0678C69.42 16.7051 68.948 16.1824 68.6067 15.4998C68.2653 14.8171 68.0947 14.0118 68.0947 13.0838C68.0947 12.1664 68.2653 11.3664 68.6067 10.6838C68.948 10.0011 69.42 9.47843 70.0227 9.11576C70.6253 8.75309 71.3107 8.57176 72.0787 8.57176C72.8787 8.57176 73.5613 8.76909 74.1267 9.16376ZM70.6947 10.9478C70.2093 11.4651 69.9667 12.1771 69.9667 13.0838C69.9667 13.9904 70.2093 14.7024 70.6947 15.2198C71.18 15.7371 71.828 15.9958 72.6387 15.9958C73.1507 15.9958 73.6093 15.8758 74.0147 15.6358C74.42 15.3958 74.74 15.0571 74.9747 14.6198C75.2093 14.1824 75.3267 13.6704 75.3267 13.0838C75.3267 12.5078 75.2093 11.9984 74.9747 11.5558C74.74 11.1131 74.42 10.7718 74.0147 10.5318C73.6093 10.2918 73.1507 10.1718 72.6387 10.1718C71.828 10.1718 71.18 10.4304 70.6947 10.9478ZM80.6004 5.35576C80.8137 5.15309 81.0964 5.05176 81.4484 5.05176C81.8004 5.05176 82.0857 5.15309 82.3044 5.35576C82.5231 5.55843 82.6324 5.81442 82.6324 6.12376C82.6324 6.43309 82.5231 6.68376 82.3044 6.87576C82.0857 7.06776 81.8004 7.16376 81.4484 7.16376C81.0964 7.16376 80.8137 7.06776 80.6004 6.87576C80.3871 6.68376 80.2804 6.43309 80.2804 6.12376C80.2804 5.81442 80.3871 5.55843 80.6004 5.35576ZM82.3604 8.68376V17.4998H80.5364V8.68376H82.3604ZM93.1542 9.53176C93.7728 10.1931 94.0822 11.1371 94.0822 12.3638V17.4998H92.2582V12.5558C92.2582 11.7664 92.0555 11.1558 91.6502 10.7238C91.2448 10.2918 90.6902 10.0758 89.9862 10.0758C89.2608 10.0758 88.6795 10.3078 88.2422 10.7718C87.8048 11.2358 87.5862 11.9158 87.5862 12.8118V17.4998H85.7622V8.68376H87.5862V10.6198C87.8208 9.95842 88.2155 9.44643 88.7702 9.08376C89.3248 8.72109 89.9648 8.53976 90.6902 8.53976C91.7142 8.53976 92.5355 8.87042 93.1542 9.53176Z" fill="#828282"/>
<path d="M97 17.5C97.5523 17.5 98 17.0523 98 16.5C98 15.9477 97.5523 15.5 97 15.5C96.4477 15.5 96 15.9477 96 16.5C96 17.0523 96.4477 17.5 97 17.5Z" fill="#828282"/>
<path fill-rule="evenodd" clip-rule="evenodd" d="M8.38304 23.8863C3.51226 22.2655 0 17.6706 0 12.2553C0 5.48689 5.48689 0 12.2553 0C19.0237 0 24.5106 5.48689 24.5106 12.2553C24.5106 17.6706 20.9984 22.2655 16.1276 23.8863C16.005 23.1201 15.6605 22.4279 15.162 21.8779C19.2949 20.6312 22.3047 16.7948 22.3047 12.2553H2.20596C2.20596 16.7948 5.21578 20.6312 9.34865 21.8779C8.85016 22.4279 8.50562 23.1201 8.38304 23.8863ZM13.0569 11.7038H18.4005L19.7283 9.84463C20.2303 9.14172 20.1071 8.17091 19.4454 7.61569L19.3149 7.50616C18.6532 6.95094 17.6757 6.99818 17.0707 7.61462L13.0569 11.7038Z" fill="#828282"/>
</svg>
