<svg width="90" height="24" viewBox="0 0 90 24" fill="none" xmlns="http://www.w3.org/2000/svg">
<path d="M38.886 6.43659V17.8286H37.862L30.982 8.66059V17.8286H29.75V6.43659H30.758L37.638 15.6046V6.43659H38.886Z" fill="#333333"/>
<path d="M41.6875 6.43659H42.9995V17.8286H41.6875V6.43659Z" fill="#333333"/>
<path d="M56.5805 6.43659V17.8286H55.3645V9.36459L51.6685 17.8286H50.7405L47.0125 9.42859L47.0285 17.8286H45.8125V6.43659H46.9005L51.2205 16.2606L55.4925 6.43659H56.5805Z" fill="#333333"/>
<path d="M65.8546 11.9726C66.5053 12.1539 67.012 12.4846 67.3746 12.9646C67.7373 13.4339 67.9186 14.0206 67.9186 14.7246C67.9186 15.7166 67.588 16.4846 66.9266 17.0286C66.2653 17.5619 65.332 17.8286 64.1266 17.8286H59.3906V6.43659H63.9666C65.1293 6.43659 66.0306 6.69793 66.6706 7.22059C67.3213 7.73259 67.6466 8.46326 67.6466 9.41259C67.6466 10.0206 67.4866 10.5486 67.1666 10.9966C66.8573 11.4339 66.42 11.7593 65.8546 11.9726ZM60.6866 11.4926H63.7586C64.612 11.4926 65.2573 11.3219 65.6946 10.9806C66.132 10.6393 66.3506 10.1379 66.3506 9.47659C66.3506 8.17526 65.4866 7.52459 63.7586 7.52459H60.6866V11.4926ZM64.0146 16.7406C64.9106 16.7406 65.5666 16.5753 65.9826 16.2446C66.4093 15.9033 66.6226 15.3859 66.6226 14.6926C66.6226 13.2953 65.7533 12.5966 64.0146 12.5966H60.6866V16.7406H64.0146Z" fill="#333333"/>
<path d="M74.7292 17.9566C73.2359 17.9566 72.1052 17.5726 71.3372 16.8046C70.5799 16.0259 70.2012 14.8793 70.2012 13.3646V6.43659H71.4972V13.4766C71.4972 14.5859 71.7693 15.4233 72.3133 15.9886C72.8573 16.5539 73.6626 16.8366 74.7292 16.8366C75.7852 16.8366 76.5799 16.5539 77.1133 15.9886C77.6573 15.4233 77.9293 14.5859 77.9293 13.4766V6.43659H79.2412V13.3646C79.2412 14.8686 78.8573 16.0099 78.0893 16.7886C77.3213 17.5673 76.2012 17.9566 74.7292 17.9566Z" fill="#333333"/>
<path d="M85.6004 17.9566C83.819 17.9566 82.4004 17.4766 81.3444 16.5166L81.8404 15.5086C82.4057 15.9886 82.9817 16.3299 83.5684 16.5326C84.155 16.7353 84.8377 16.8366 85.6164 16.8366C86.5337 16.8366 87.2377 16.6606 87.7284 16.3086C88.2297 15.9459 88.4804 15.4393 88.4804 14.7886C88.4804 14.4046 88.3577 14.0953 88.1124 13.8606C87.8777 13.6153 87.563 13.4233 87.1684 13.2846C86.7844 13.1459 86.267 13.0019 85.6164 12.8526C84.7417 12.6606 84.0217 12.4526 83.4564 12.2286C82.891 12.0046 82.4324 11.6846 82.0804 11.2686C81.7284 10.8419 81.5524 10.2873 81.5524 9.60459C81.5524 8.95393 81.723 8.38326 82.0644 7.89259C82.4057 7.39126 82.8857 7.00193 83.5044 6.72459C84.1337 6.44726 84.8644 6.30859 85.6964 6.30859C86.4857 6.30859 87.2217 6.43126 87.9044 6.67659C88.587 6.92193 89.163 7.27926 89.6324 7.74859L89.1204 8.75659C88.587 8.29793 88.043 7.96193 87.4884 7.74859C86.9444 7.53526 86.347 7.42859 85.6964 7.42859C84.811 7.42859 84.1177 7.62059 83.6164 8.00459C83.115 8.37793 82.8644 8.89526 82.8644 9.55659C82.8644 10.1326 83.083 10.5646 83.5204 10.8526C83.9577 11.1406 84.6297 11.3913 85.5364 11.6046C86.5177 11.8393 87.2857 12.0579 87.8404 12.2606C88.4057 12.4526 88.875 12.7513 89.2484 13.1566C89.6217 13.5513 89.8084 14.0793 89.8084 14.7406C89.8084 15.3806 89.6377 15.9459 89.2964 16.4366C88.955 16.9166 88.4644 17.2899 87.8244 17.5566C87.195 17.8233 86.4537 17.9566 85.6004 17.9566Z" fill="#333333"/>
<path fill-rule="evenodd" clip-rule="evenodd" d="M11.9972 24C18.6231 24 23.9945 18.6274 23.9945 12C23.9945 6.83951 20.7378 2.43984 16.168 0.744995V15.6V16.9798L15.1925 16.004L8.96964 9.77978V23.58H8.83954C9.84567 23.8538 10.9044 24 11.9972 24ZM7.82679 23.2551C3.25682 21.5603 0 17.1606 0 12C0 5.37258 5.37135 0 11.9972 0C13.0432 0 14.0579 0.133882 15.0251 0.385447V14.2202L8.80232 7.99599L7.82679 7.02023V8.40001V23.2551Z" fill="#333333"/>
</svg>
