<svg width="1320" height="760" viewBox="0 0 1320 760" fill="none" xmlns="http://www.w3.org/2000/svg">
<g filter="url(#filter0_d)">
<rect width="1280" height="720" transform="translate(20 16)" fill="#F5F5F5"/>
<g clip-path="url(#clip0)">
<path d="M692.163 476.713C692.153 476.723 692.143 476.723 692.143 476.733C684.475 482.158 675.397 487.856 665.629 493.838L665.244 494.061C665.112 494.152 665.082 494.335 665.173 494.467C665.264 494.599 665.447 494.629 665.579 494.538L665.903 494.365C674.19 490.046 683.704 484.916 693.279 479.653C693.33 479.623 693.381 479.592 693.431 479.572C692.904 478.7 692.468 477.747 692.163 476.713ZM742.473 436.004C730.392 422.681 652.646 434.665 619.59 441.884L618.819 442.047C618.657 442.077 618.556 442.229 618.586 442.381C618.617 442.543 618.769 442.645 618.921 442.614L619.682 442.462C647.068 437.585 704.031 430.833 716.284 442.979C720.026 446.69 719.134 451.456 714.793 457.093C717.125 458.594 718.789 460.956 719.539 463.907C736.478 452.673 747.849 441.935 742.473 436.004Z" fill="#D03027"/>
<path d="M697.052 473.215C697.204 477.899 700.176 481.742 704.04 481.742C711.536 481.742 714.731 472.536 714.508 466.391C714.345 461.697 711.302 457.864 707.438 457.864C700.997 457.854 696.828 467.02 697.052 473.215ZM693.096 472.961C692.822 464.961 699.09 456.779 708.199 456.779C714.285 456.779 718.271 460.835 718.494 467.05C718.788 475.486 712.925 483.232 703.401 483.232C697.295 483.232 693.309 479.187 693.096 472.961Z" fill="#004977"/>
<path d="M606.832 470.852C606.507 470.974 606.091 471.096 605.564 471.207C605.047 471.329 604.093 471.491 602.714 471.714C601.76 471.866 601.101 472.059 600.726 472.333C600.371 472.596 600.158 472.911 600.097 473.306C600.026 473.722 600.158 474.046 600.513 474.31C600.878 474.563 601.487 474.695 602.349 474.695C602.998 474.695 603.627 474.594 604.235 474.391C604.854 474.188 605.381 473.914 605.777 473.57C606.071 473.316 606.284 472.992 606.446 472.596C606.548 472.333 606.68 471.755 606.832 470.852ZM614.743 465.935C614.713 466.665 614.581 467.314 614.388 468.439L613.05 475.952C612.938 476.622 613.181 477.139 613.8 477.504L613.76 477.798L606.091 477.788L606.02 475.881C604.905 476.551 603.556 477.118 602.339 477.453C601.121 477.767 600.138 477.899 598.667 477.899C596.192 477.899 594.772 477.646 593.788 476.784C592.794 475.902 592.307 475.314 592.358 474.097C592.398 473.397 592.764 472.495 593.281 471.866C593.808 471.227 594.539 470.812 595.32 470.437C596.111 470.061 597.044 469.788 598.393 469.575C599.752 469.352 601.639 469.139 604.164 468.926C605.493 468.814 606.304 468.51 606.68 468.358C607.207 468.155 607.42 467.922 607.491 467.496C607.633 466.726 607.39 466.28 606.355 466.077C603.596 465.529 598.413 466.432 595.746 467.091L597.196 463.177C600.716 462.66 604.012 462.335 607.491 462.335C613.039 462.335 614.804 463.907 614.743 465.935Z" fill="#004977"/>
<path d="M636.978 477.787L639.635 462.771H646.979L644.321 477.787H636.978ZM640.041 459.293C640.264 458.056 642.212 457.063 644.382 457.063C646.563 457.063 648.155 458.067 647.942 459.293C647.709 460.53 645.772 461.534 643.581 461.534C641.41 461.534 639.828 460.53 640.041 459.293Z" fill="#004977"/>
<path d="M673.054 470.883C672.719 470.994 672.293 471.116 671.776 471.237C671.259 471.359 670.305 471.511 668.926 471.734C667.982 471.886 667.313 472.079 666.948 472.353C666.593 472.606 666.39 472.931 666.309 473.316C666.228 473.732 666.38 474.066 666.725 474.32C667.1 474.573 667.709 474.695 668.571 474.695C669.21 474.695 669.839 474.604 670.457 474.411C671.086 474.198 671.603 473.935 672.009 473.59C672.293 473.336 672.506 473.002 672.658 472.616C672.76 472.363 672.892 471.785 673.054 470.883ZM680.965 465.955C680.935 466.695 680.803 467.344 680.6 468.459L679.272 475.983C679.16 476.642 679.403 477.169 680.022 477.534L679.982 477.798L672.313 477.808L672.253 475.891C671.137 476.571 669.778 477.139 668.571 477.463C667.354 477.787 666.37 477.919 664.879 477.919C662.404 477.919 660.994 477.676 660.01 476.804C659.006 475.912 658.529 475.334 658.58 474.117C658.61 473.407 658.975 472.505 659.503 471.886C660.03 471.237 660.761 470.832 661.552 470.457C662.343 470.082 663.276 469.808 664.615 469.585C665.974 469.372 667.871 469.149 670.396 468.936C671.715 468.824 672.526 468.53 672.902 468.378C673.439 468.175 673.642 467.942 673.723 467.506C673.855 466.746 673.622 466.3 672.597 466.087C669.818 465.539 664.655 466.442 661.988 467.101L663.428 463.187C666.958 462.67 670.244 462.345 673.723 462.345C679.251 462.355 681.016 463.937 680.965 465.955Z" fill="#004977"/>
<path d="M591.365 472.393C588.971 472.87 587.632 473.053 585.269 473.053C581.759 473.053 578.97 471.309 579.122 468.115C579.233 465.985 581.749 461.504 588.149 461.504C590.168 461.504 591.74 461.859 593.86 463.065L594.793 457.854C591.912 456.769 590.005 456.607 587.53 456.627C579.132 456.718 571.079 460.531 570.074 468.287C569.06 476.165 578.686 478.142 582.956 478.122C585.421 478.112 587.987 478.011 590.381 477.767L591.365 472.393Z" fill="#004977"/>
<path d="M651.025 462.69L651.552 459.628L659.23 457.955L658.409 462.68H662.172L661.462 465.702L657.81 465.692L655.589 477.767C655.589 477.767 648.195 477.717 648.164 477.767L650.376 465.722H647.596L648.164 462.68H651.025V462.69Z" fill="#004977"/>
<path d="M691.993 457.042L688.422 477.777L680.947 477.787L684.71 456.839L691.993 457.042Z" fill="#004977"/>
<path d="M627.261 466.29C626.297 466.29 625.425 466.584 624.654 467.162C623.883 467.75 623.396 468.601 623.204 469.727C622.97 471.035 623.112 471.978 623.63 472.556C624.157 473.134 624.908 473.428 625.902 473.428C626.571 473.428 627.261 473.306 627.768 473.053C628.397 472.718 628.833 472.373 629.208 471.816C629.614 471.238 629.878 470.589 630.02 469.838C630.233 468.652 630.05 467.77 629.502 467.182C628.965 466.594 628.224 466.29 627.261 466.29ZM613.892 482.969L617.473 462.853H623.924L623.427 465.418C623.985 464.647 624.877 464.019 626.115 463.512C627.362 463.005 628.762 462.629 630.283 462.629C631.967 462.629 633.002 462.721 634.259 463.37C635.507 464.029 636.39 464.982 636.856 466.219C637.343 467.435 637.444 468.814 637.181 470.305C636.745 472.789 635.538 474.736 633.549 476.176C631.582 477.615 629.807 477.99 627.281 478.001C626.389 478.001 625.638 477.909 625.019 477.757C624.411 477.595 623.924 477.402 623.559 477.169C623.204 476.936 622.828 476.601 622.352 476.074L621.155 482.969H613.892Z" fill="#004977"/>
<path d="M747.188 468.135C747.148 466.928 746.539 466.107 745.291 466.107C742.279 466.107 739.074 472.008 738.526 474.381C743.466 474.391 747.31 471.45 747.188 468.135ZM747.837 477.382L748.416 477.777C746.945 480.768 743.953 483.171 740.443 483.171C737.573 483.171 735.209 481.255 735.088 477.666C734.854 471.227 740.889 465.255 745.829 465.255C747.949 465.255 749.917 466.178 749.998 468.459C750.18 473.58 742.989 475.141 738.252 475.253C738.1 475.79 738.039 476.327 738.07 477.138C738.151 479.258 739.429 481.042 742.086 481.042C744.379 481.042 746.671 479.197 747.837 477.382Z" fill="#004977"/>
<path d="M718.382 467.973C718.889 467.902 719.71 467.81 720.065 467.81C720.603 467.81 721.11 467.912 721.141 468.449C721.151 468.764 720.583 471.045 720.461 471.572L719.315 476.621C718.848 478.69 718.351 480.85 717.905 482.563H720.846L722.5 474.563C727.541 469.311 729.488 467.597 730.675 467.597C731.213 467.597 731.578 467.881 731.608 468.52C731.639 469.443 731.061 471.542 730.868 472.15L729.184 477.98C728.799 479.288 728.515 480.474 728.545 481.316C728.596 482.594 729.367 483.161 730.523 483.161C732.673 483.161 734.235 480.921 735.594 478.72L735.199 478C734.651 478.883 733.373 480.819 732.369 480.819C732.055 480.819 731.75 480.606 731.74 480.079C731.71 479.4 731.994 478.376 732.197 477.696L734.073 470.862C734.58 468.976 734.813 467.77 734.803 467.121C734.753 465.843 734.012 465.245 732.866 465.245C730.929 465.245 728.362 466.665 722.916 472.921H722.835L723.524 469.869C723.9 468.196 724.265 466.452 724.61 465.245C722.723 465.925 720.025 466.685 718.361 467.009L718.382 467.973Z" fill="#004977"/>
</g>
<path d="M332.815 370.144C331.449 371.125 329.7 371.829 327.567 372.256C325.476 372.683 323.321 372.896 321.103 372.896C318.415 372.896 315.855 372.491 313.423 371.68C311.033 370.827 308.921 369.483 307.087 367.648C305.252 365.771 303.78 363.36 302.671 360.416C301.604 357.429 301.071 353.824 301.071 349.6C301.071 345.205 301.668 341.536 302.863 338.592C304.1 335.605 305.679 333.216 307.599 331.424C309.561 329.589 311.737 328.288 314.127 327.52C316.516 326.709 318.905 326.304 321.295 326.304C323.855 326.304 326.009 326.475 327.759 326.816C329.551 327.157 331.023 327.563 332.175 328.032L330.447 335.456C329.465 334.987 328.292 334.645 326.927 334.432C325.604 334.219 323.983 334.112 322.063 334.112C318.521 334.112 315.663 335.371 313.487 337.888C311.353 340.405 310.287 344.309 310.287 349.6C310.287 351.904 310.543 354.016 311.055 355.936C311.567 357.813 312.335 359.435 313.359 360.8C314.425 362.123 315.727 363.168 317.263 363.936C318.841 364.661 320.655 365.024 322.703 365.024C324.623 365.024 326.244 364.832 327.567 364.448C328.889 364.064 330.041 363.573 331.023 362.976L332.815 370.144ZM358.901 372V353.824C358.901 351.221 358.538 349.344 357.813 348.192C357.087 347.04 355.765 346.464 353.845 346.464C352.437 346.464 351.135 346.955 349.941 347.936C348.789 348.875 348.021 350.091 347.637 351.584V372H339.317V327.2H347.637V343.584H347.893C348.917 342.219 350.175 341.131 351.669 340.32C353.162 339.509 355.061 339.104 357.365 339.104C358.986 339.104 360.415 339.317 361.653 339.744C362.89 340.171 363.914 340.875 364.725 341.856C365.578 342.837 366.197 344.181 366.581 345.888C367.007 347.552 367.221 349.621 367.221 352.096V372H358.901ZM375.28 341.856C376.986 341.088 379.013 340.491 381.36 340.064C383.706 339.595 386.16 339.36 388.72 339.36C390.938 339.36 392.794 339.637 394.288 340.192C395.781 340.704 396.954 341.451 397.808 342.432C398.704 343.413 399.322 344.587 399.664 345.952C400.048 347.317 400.24 348.853 400.24 350.56C400.24 352.437 400.176 354.336 400.048 356.256C399.92 358.133 399.834 359.989 399.792 361.824C399.792 363.659 399.856 365.451 399.984 367.2C400.112 368.907 400.432 370.528 400.944 372.064H394.16L392.816 367.648H392.496C391.642 368.971 390.448 370.123 388.912 371.104C387.418 372.043 385.477 372.512 383.088 372.512C381.594 372.512 380.25 372.299 379.056 371.872C377.861 371.403 376.837 370.763 375.984 369.952C375.13 369.099 374.469 368.117 374 367.008C373.53 365.856 373.296 364.576 373.296 363.168C373.296 361.205 373.722 359.563 374.576 358.24C375.472 356.875 376.73 355.787 378.352 354.976C380.016 354.123 381.978 353.547 384.24 353.248C386.544 352.907 389.104 352.8 391.92 352.928C392.218 350.539 392.048 348.832 391.408 347.808C390.768 346.741 389.338 346.208 387.12 346.208C385.456 346.208 383.685 346.379 381.808 346.72C379.973 347.061 378.458 347.509 377.264 348.064L375.28 341.856ZM385.84 365.664C387.504 365.664 388.826 365.301 389.808 364.576C390.789 363.808 391.514 362.997 391.984 362.144V357.984C390.661 357.856 389.381 357.835 388.144 357.92C386.949 358.005 385.882 358.197 384.944 358.496C384.005 358.795 383.258 359.221 382.704 359.776C382.149 360.331 381.872 361.035 381.872 361.888C381.872 363.083 382.213 364.021 382.896 364.704C383.621 365.344 384.602 365.664 385.84 365.664ZM428.086 372V353.824C428.086 351.221 427.702 349.344 426.934 348.192C426.208 347.04 424.95 346.464 423.158 346.464C421.579 346.464 420.235 346.933 419.126 347.872C418.059 348.768 417.291 349.899 416.822 351.264V372H408.502V340H415.094L416.054 344.224H416.31C417.291 342.859 418.592 341.664 420.214 340.64C421.835 339.616 423.926 339.104 426.486 339.104C428.064 339.104 429.472 339.317 430.71 339.744C431.947 340.171 432.992 340.875 433.846 341.856C434.699 342.837 435.339 344.181 435.766 345.888C436.192 347.552 436.406 349.621 436.406 352.096V372H428.086ZM471.729 372C471.729 376.651 470.47 380.064 467.953 382.24C465.435 384.459 461.915 385.568 457.393 385.568C454.321 385.568 451.889 385.355 450.097 384.928C448.347 384.501 447.025 384.053 446.129 383.584L447.857 376.992C448.838 377.376 449.969 377.76 451.249 378.144C452.571 378.528 454.193 378.72 456.113 378.72C459.014 378.72 460.977 378.08 462.001 376.8C463.067 375.563 463.601 373.813 463.601 371.552V369.504H463.345C461.851 371.509 459.206 372.512 455.409 372.512C451.27 372.512 448.177 371.232 446.129 368.672C444.123 366.112 443.121 362.101 443.121 356.64C443.121 350.923 444.486 346.592 447.217 343.648C449.947 340.704 453.915 339.232 459.121 339.232C461.851 339.232 464.283 339.424 466.417 339.808C468.593 340.192 470.363 340.64 471.729 341.152V372ZM457.649 365.856C459.27 365.856 460.507 365.493 461.361 364.768C462.257 364.043 462.939 362.955 463.409 361.504V347.104C462.086 346.549 460.443 346.272 458.481 346.272C456.347 346.272 454.683 347.083 453.489 348.704C452.294 350.283 451.697 352.821 451.697 356.32C451.697 359.435 452.209 361.803 453.233 363.424C454.257 365.045 455.729 365.856 457.649 365.856ZM505.849 369.248C504.569 370.272 502.82 371.147 500.601 371.872C498.425 372.555 496.1 372.896 493.625 372.896C488.463 372.896 484.687 371.403 482.297 368.416C479.908 365.387 478.713 361.248 478.713 356C478.713 350.368 480.057 346.144 482.745 343.328C485.433 340.512 489.209 339.104 494.073 339.104C495.695 339.104 497.273 339.317 498.809 339.744C500.345 340.171 501.711 340.875 502.905 341.856C504.1 342.837 505.06 344.16 505.785 345.824C506.511 347.488 506.873 349.557 506.873 352.032C506.873 352.928 506.809 353.888 506.681 354.912C506.596 355.936 506.447 357.003 506.233 358.112H487.033C487.161 360.8 487.844 362.827 489.081 364.192C490.361 365.557 492.409 366.24 495.225 366.24C496.975 366.24 498.532 365.984 499.897 365.472C501.305 364.917 502.372 364.363 503.097 363.808L505.849 369.248ZM493.945 345.76C491.769 345.76 490.148 346.421 489.081 347.744C488.057 349.024 487.439 350.752 487.225 352.928H499.129C499.3 350.624 498.937 348.853 498.041 347.616C497.188 346.379 495.823 345.76 493.945 345.76ZM561.172 337.44C561.172 338.507 561.001 339.595 560.66 340.704C560.318 341.813 559.806 342.859 559.124 343.84C558.441 344.779 557.566 345.611 556.5 346.336C555.433 347.061 554.174 347.616 552.724 348V348.256C554.004 348.469 555.22 348.832 556.372 349.344C557.566 349.856 558.612 350.56 559.508 351.456C560.404 352.352 561.129 353.44 561.684 354.72C562.238 356 562.516 357.515 562.516 359.264C562.516 361.568 562.025 363.573 561.044 365.28C560.105 366.944 558.846 368.309 557.268 369.376C555.732 370.443 553.961 371.232 551.956 371.744C549.95 372.256 547.902 372.512 545.812 372.512C545.086 372.512 544.233 372.512 543.252 372.512C542.27 372.512 541.246 372.469 540.18 372.384C539.113 372.341 538.046 372.256 536.98 372.128C535.913 372.043 534.974 371.893 534.164 371.68V327.584C535.742 327.328 537.577 327.115 539.668 326.944C541.758 326.773 544.041 326.688 546.516 326.688C548.18 326.688 549.865 326.837 551.572 327.136C553.321 327.392 554.9 327.925 556.308 328.736C557.716 329.504 558.868 330.592 559.764 332C560.702 333.408 561.172 335.221 561.172 337.44ZM546.324 367.904C547.689 367.904 549.012 367.755 550.292 367.456C551.572 367.115 552.702 366.603 553.684 365.92C554.665 365.195 555.433 364.32 555.988 363.296C556.585 362.272 556.884 361.056 556.884 359.648C556.884 357.899 556.521 356.491 555.796 355.424C555.113 354.357 554.196 353.525 553.044 352.928C551.934 352.331 550.676 351.925 549.268 351.712C547.86 351.499 546.452 351.392 545.044 351.392H539.476V367.456C539.774 367.541 540.201 367.605 540.756 367.648C541.31 367.691 541.908 367.733 542.548 367.776C543.188 367.819 543.849 367.861 544.532 367.904C545.214 367.904 545.812 367.904 546.324 367.904ZM542.804 346.912C543.529 346.912 544.404 346.891 545.428 346.848C546.452 346.805 547.305 346.741 547.988 346.656C549.012 346.315 549.972 345.909 550.868 345.44C551.764 344.928 552.553 344.352 553.236 343.712C553.961 343.029 554.516 342.261 554.9 341.408C555.326 340.512 555.54 339.552 555.54 338.528C555.54 337.12 555.262 335.968 554.708 335.072C554.196 334.133 553.492 333.387 552.596 332.832C551.7 332.277 550.676 331.893 549.524 331.68C548.372 331.424 547.198 331.296 546.004 331.296C544.596 331.296 543.294 331.339 542.1 331.424C540.948 331.467 540.073 331.552 539.476 331.68V346.912H542.804ZM571.795 342.368C573.416 341.387 575.293 340.661 577.427 340.192C579.603 339.723 581.864 339.488 584.211 339.488C586.429 339.488 588.2 339.787 589.523 340.384C590.888 340.981 591.912 341.771 592.595 342.752C593.32 343.691 593.789 344.736 594.003 345.888C594.259 347.04 594.387 348.192 594.387 349.344C594.387 351.904 594.323 354.4 594.195 356.832C594.067 359.264 594.003 361.568 594.003 363.744C594.003 365.323 594.067 366.816 594.195 368.224C594.323 369.632 594.557 370.933 594.899 372.128H591.123L589.779 367.648H589.459C589.075 368.245 588.584 368.843 587.987 369.44C587.432 369.995 586.749 370.507 585.939 370.976C585.128 371.403 584.189 371.765 583.123 372.064C582.056 372.363 580.84 372.512 579.475 372.512C578.109 372.512 576.829 372.299 575.635 371.872C574.483 371.445 573.48 370.848 572.627 370.08C571.773 369.269 571.091 368.309 570.579 367.2C570.109 366.091 569.875 364.832 569.875 363.424C569.875 361.547 570.259 359.989 571.027 358.752C571.795 357.472 572.861 356.469 574.227 355.744C575.635 354.976 577.299 354.443 579.219 354.144C581.181 353.803 583.336 353.632 585.683 353.632C586.28 353.632 586.856 353.632 587.411 353.632C588.008 353.632 588.605 353.675 589.203 353.76C589.331 352.48 589.395 351.328 589.395 350.304C589.395 347.957 588.925 346.315 587.987 345.376C587.048 344.437 585.341 343.968 582.867 343.968C582.141 343.968 581.352 344.032 580.499 344.16C579.688 344.245 578.835 344.395 577.939 344.608C577.085 344.779 576.253 345.013 575.443 345.312C574.675 345.568 573.992 345.867 573.395 346.208L571.795 342.368ZM580.883 368.032C582.077 368.032 583.144 367.883 584.083 367.584C585.021 367.243 585.832 366.837 586.515 366.368C587.197 365.856 587.752 365.301 588.179 364.704C588.648 364.107 588.989 363.531 589.203 362.976V357.664C588.605 357.621 587.987 357.6 587.347 357.6C586.749 357.557 586.152 357.536 585.555 357.536C584.232 357.536 582.931 357.621 581.651 357.792C580.413 357.92 579.304 358.197 578.323 358.624C577.384 359.008 576.616 359.563 576.019 360.288C575.464 360.971 575.187 361.845 575.187 362.912C575.187 364.405 575.72 365.643 576.787 366.624C577.853 367.563 579.219 368.032 580.883 368.032ZM625.881 372V353.76C625.881 350.432 625.39 347.936 624.409 346.272C623.47 344.565 621.721 343.712 619.161 343.712C616.899 343.712 615.022 344.331 613.529 345.568C612.078 346.763 611.054 348.277 610.457 350.112V372H605.337V340H608.921L609.881 343.904H610.137C611.161 342.539 612.526 341.429 614.233 340.576C615.982 339.68 618.051 339.232 620.441 339.232C622.19 339.232 623.726 339.445 625.049 339.872C626.371 340.256 627.459 340.96 628.313 341.984C629.209 343.008 629.87 344.395 630.297 346.144C630.766 347.851 631.001 350.027 631.001 352.672V372H625.881ZM649.681 357.6H646.737V372H641.617V327.2H646.737V354.464L649.361 353.568L659.281 340H665.233L655.441 352.864L652.817 354.976L656.017 357.536L666.705 372H660.369L649.681 357.6ZM674.61 340H679.73V372H674.61V340ZM673.522 330.272C673.522 329.291 673.842 328.459 674.482 327.776C675.164 327.051 676.018 326.688 677.042 326.688C678.066 326.688 678.94 327.051 679.666 327.776C680.391 328.459 680.754 329.291 680.754 330.272C680.754 331.253 680.391 332.064 679.666 332.704C678.94 333.344 678.066 333.664 677.042 333.664C676.018 333.664 675.164 333.344 674.482 332.704C673.842 332.064 673.522 331.253 673.522 330.272ZM712.471 372V353.76C712.471 350.432 711.98 347.936 710.999 346.272C710.06 344.565 708.311 343.712 705.751 343.712C703.489 343.712 701.612 344.331 700.119 345.568C698.668 346.763 697.644 348.277 697.047 350.112V372H691.927V340H695.511L696.471 343.904H696.727C697.751 342.539 699.116 341.429 700.823 340.576C702.572 339.68 704.641 339.232 707.031 339.232C708.78 339.232 710.316 339.445 711.639 339.872C712.961 340.256 714.049 340.96 714.903 341.984C715.799 343.008 716.46 344.395 716.887 346.144C717.356 347.851 717.591 350.027 717.591 352.672V372H712.471ZM752.719 373.472C752.719 377.611 751.609 380.661 749.391 382.624C747.215 384.587 743.972 385.568 739.663 385.568C737.103 385.568 735.033 385.397 733.455 385.056C731.919 384.757 730.596 384.352 729.487 383.84L730.831 379.488C731.812 379.872 732.9 380.235 734.095 380.576C735.289 380.917 736.847 381.088 738.767 381.088C740.559 381.088 742.009 380.917 743.119 380.576C744.271 380.277 745.188 379.744 745.871 378.976C746.553 378.251 747.023 377.291 747.279 376.096C747.535 374.944 747.663 373.557 747.663 371.936V368.864H747.407C746.553 370.101 745.465 371.061 744.143 371.744C742.82 372.384 741.092 372.704 738.959 372.704C734.649 372.704 731.471 371.36 729.423 368.672C727.417 365.984 726.415 361.803 726.415 356.128C726.415 350.667 727.716 346.528 730.319 343.712C732.921 340.853 736.761 339.424 741.839 339.424C744.271 339.424 746.34 339.616 748.047 340C749.796 340.384 751.353 340.832 752.719 341.344V373.472ZM739.855 368.224C742.031 368.224 743.737 367.691 744.975 366.624C746.212 365.515 747.087 363.808 747.599 361.504V345.12C745.892 344.309 743.716 343.904 741.071 343.904C738.169 343.904 735.887 344.885 734.223 346.848C732.559 348.811 731.727 351.883 731.727 356.064C731.727 357.856 731.876 359.499 732.175 360.992C732.473 362.485 732.943 363.765 733.583 364.832C734.223 365.899 735.055 366.731 736.079 367.328C737.103 367.925 738.361 368.224 739.855 368.224ZM778.684 340H783.676V338.208C783.676 336.245 783.826 334.539 784.124 333.088C784.466 331.637 784.999 330.464 785.724 329.568C786.45 328.629 787.388 327.947 788.54 327.52C789.692 327.051 791.122 326.816 792.828 326.816C794.194 326.816 795.388 326.901 796.412 327.072C797.479 327.243 798.588 327.563 799.74 328.032L798.588 332.32C797.607 331.893 796.668 331.616 795.772 331.488C794.919 331.36 794.108 331.296 793.34 331.296C792.231 331.296 791.356 331.467 790.716 331.808C790.119 332.149 789.671 332.661 789.372 333.344C789.116 333.984 788.946 334.795 788.86 335.776C788.818 336.715 788.796 337.824 788.796 339.104V340H797.308V344.48H788.796V372H783.676V344.48H778.684V340ZM801.442 356C801.442 350.581 802.637 346.443 805.026 343.584C807.458 340.683 810.936 339.232 815.458 339.232C817.848 339.232 819.917 339.637 821.666 340.448C823.458 341.216 824.93 342.347 826.082 343.84C827.234 345.291 828.088 347.061 828.642 349.152C829.197 351.2 829.474 353.483 829.474 356C829.474 361.419 828.258 365.579 825.826 368.48C823.437 371.339 819.981 372.768 815.458 372.768C813.069 372.768 810.978 372.384 809.186 371.616C807.437 370.805 805.986 369.675 804.834 368.224C803.682 366.731 802.829 364.96 802.274 362.912C801.72 360.821 801.442 358.517 801.442 356ZM806.754 356C806.754 357.621 806.904 359.179 807.202 360.672C807.544 362.165 808.056 363.467 808.738 364.576C809.421 365.685 810.317 366.581 811.426 367.264C812.536 367.947 813.88 368.288 815.458 368.288C821.261 368.331 824.162 364.235 824.162 356C824.162 354.336 823.992 352.757 823.65 351.264C823.352 349.771 822.861 348.469 822.178 347.36C821.496 346.251 820.6 345.376 819.49 344.736C818.381 344.053 817.037 343.712 815.458 343.712C809.656 343.669 806.754 347.765 806.754 356ZM853.931 344.928C852.651 344.501 851.435 344.288 850.283 344.288C848.448 344.288 846.997 344.8 845.931 345.824C844.864 346.805 844.203 348.064 843.947 349.6V372H838.827V340H842.411L843.371 343.904H843.627C844.437 342.453 845.397 341.344 846.507 340.576C847.659 339.765 849.109 339.36 850.859 339.36C852.096 339.36 853.483 339.573 855.019 340L853.931 344.928ZM894.919 348.64H911.623V368.608C909.831 370.101 907.677 371.189 905.159 371.872C902.685 372.555 900.231 372.896 897.799 372.896C894.941 372.896 892.274 372.448 889.799 371.552C887.367 370.656 885.255 369.269 883.463 367.392C881.671 365.472 880.263 363.04 879.239 360.096C878.215 357.152 877.703 353.653 877.703 349.6C877.703 345.376 878.301 341.792 879.495 338.848C880.733 335.861 882.333 333.451 884.295 331.616C886.301 329.739 888.541 328.395 891.015 327.584C893.49 326.731 896.007 326.304 898.567 326.304C901.127 326.304 903.367 326.496 905.287 326.88C907.25 327.264 908.807 327.669 909.959 328.096L908.167 335.456C907.101 335.029 905.906 334.709 904.583 334.496C903.261 334.24 901.575 334.112 899.527 334.112C897.693 334.112 896.007 334.389 894.471 334.944C892.935 335.499 891.591 336.416 890.439 337.696C889.33 338.933 888.455 340.533 887.815 342.496C887.218 344.459 886.919 346.848 886.919 349.664C886.919 352.352 887.218 354.677 887.815 356.64C888.413 358.56 889.245 360.16 890.311 361.44C891.378 362.677 892.615 363.595 894.023 364.192C895.474 364.789 897.01 365.088 898.631 365.088C899.741 365.088 900.829 364.96 901.895 364.704C902.962 364.405 903.858 363.979 904.583 363.424V354.976L894.919 353.952V348.64ZM917.663 356C917.663 350.581 918.986 346.421 921.631 343.52C924.277 340.576 927.989 339.104 932.767 339.104C935.327 339.104 937.546 339.509 939.423 340.32C941.301 341.131 942.858 342.283 944.095 343.776C945.333 345.227 946.25 346.997 946.847 349.088C947.487 351.179 947.807 353.483 947.807 356C947.807 361.419 946.485 365.6 943.839 368.544C941.237 371.445 937.546 372.896 932.767 372.896C930.207 372.896 927.989 372.491 926.111 371.68C924.234 370.869 922.655 369.739 921.375 368.288C920.138 366.795 919.199 365.003 918.559 362.912C917.962 360.821 917.663 358.517 917.663 356ZM926.239 356C926.239 357.408 926.367 358.709 926.623 359.904C926.879 361.099 927.263 362.144 927.775 363.04C928.287 363.936 928.949 364.64 929.759 365.152C930.613 365.621 931.615 365.856 932.767 365.856C934.943 365.856 936.565 365.067 937.631 363.488C938.698 361.909 939.231 359.413 939.231 356C939.231 353.056 938.741 350.688 937.759 348.896C936.778 347.061 935.114 346.144 932.767 346.144C930.719 346.144 929.119 346.912 927.967 348.448C926.815 349.984 926.239 352.501 926.239 356ZM953.318 356C953.318 350.581 954.641 346.421 957.286 343.52C959.932 340.576 963.644 339.104 968.422 339.104C970.982 339.104 973.201 339.509 975.078 340.32C976.956 341.131 978.513 342.283 979.75 343.776C980.988 345.227 981.905 346.997 982.502 349.088C983.142 351.179 983.462 353.483 983.462 356C983.462 361.419 982.14 365.6 979.494 368.544C976.892 371.445 973.201 372.896 968.422 372.896C965.862 372.896 963.644 372.491 961.766 371.68C959.889 370.869 958.31 369.739 957.03 368.288C955.793 366.795 954.854 365.003 954.214 362.912C953.617 360.821 953.318 358.517 953.318 356ZM961.894 356C961.894 357.408 962.022 358.709 962.278 359.904C962.534 361.099 962.918 362.144 963.43 363.04C963.942 363.936 964.604 364.64 965.414 365.152C966.268 365.621 967.27 365.856 968.422 365.856C970.598 365.856 972.22 365.067 973.286 363.488C974.353 361.909 974.886 359.413 974.886 356C974.886 353.056 974.396 350.688 973.414 348.896C972.433 347.061 970.769 346.144 968.422 346.144C966.374 346.144 964.774 346.912 963.622 348.448C962.47 349.984 961.894 352.501 961.894 356ZM1017.71 360.736C1017.71 362.528 1017.73 364.32 1017.77 366.112C1017.82 367.904 1018.01 369.888 1018.35 372.064H1012.4L1011.25 367.904H1010.99C1010.14 369.397 1008.9 370.613 1007.28 371.552C1005.7 372.448 1003.82 372.896 1001.65 372.896C997.635 372.896 994.52 371.573 992.301 368.928C990.083 366.283 988.973 362.144 988.973 356.512C988.973 351.051 990.211 346.805 992.685 343.776C995.16 340.747 998.787 339.232 1003.57 339.232C1004.89 339.232 1005.98 339.317 1006.83 339.488C1007.68 339.616 1008.54 339.851 1009.39 340.192V327.2H1017.71V360.736ZM1003.57 365.856C1005.19 365.856 1006.47 365.472 1007.41 364.704C1008.34 363.893 1009.01 362.741 1009.39 361.248V347.68C1008.79 347.211 1008.13 346.869 1007.41 346.656C1006.68 346.4 1005.74 346.272 1004.59 346.272C1002.24 346.272 1000.47 347.061 999.277 348.64C998.125 350.219 997.549 352.928 997.549 356.768C997.549 359.499 998.019 361.696 998.957 363.36C999.939 365.024 1001.47 365.856 1003.57 365.856Z" fill="#000C13"/>
<rect x="26" y="22" width="1268" height="708" stroke="white" stroke-width="12"/>
</g>
<defs>
<filter id="filter0_d" x="0" y="0" width="1320" height="760" filterUnits="userSpaceOnUse" color-interpolation-filters="sRGB">
<feFlood flood-opacity="0" result="BackgroundImageFix"/>
<feColorMatrix in="SourceAlpha" type="matrix" values="0 0 0 0 0 0 0 0 0 0 0 0 0 0 0 0 0 0 127 0"/>
<feOffset dy="4"/>
<feGaussianBlur stdDeviation="10"/>
<feColorMatrix type="matrix" values="0 0 0 0 0 0 0 0 0 0 0 0 0 0 0 0 0 0 0.25 0"/>
<feBlend mode="normal" in2="BackgroundImageFix" result="effect1_dropShadow"/>
<feBlend mode="normal" in="SourceGraphic" in2="effect1_dropShadow" result="shape"/>
</filter>
<clipPath id="clip0">
<rect width="180" height="64.5882" fill="white" transform="translate(570 430)"/>
</clipPath>
</defs>
</svg>
