<svg width="51" height="32" viewBox="0 0 51 32" fill="none" xmlns="http://www.w3.org/2000/svg">
<path d="M16 0H0V32H16V0Z" fill="#333333"/>
<path d="M17.334 0C25.9473 0 32.972 6.95076 33.321 15.6596H33.334V32C24.7207 32 17.696 25.0492 17.347 16.3404H17.334V0Z" fill="#333333"/>
<path fill-rule="evenodd" clip-rule="evenodd" d="M32.6673 15.9985L32.6549 15.6874C32.3295 7.5679 25.948 1.0426 18.0007 0.695386V16.0015L18.0131 16.3126C18.3385 24.4321 24.72 30.9574 32.6673 31.3046V15.9985ZM33.321 15.6596H33.334V32C33.1107 32 32.8884 31.9953 32.6673 31.9861C24.3609 31.6384 17.6869 24.8234 17.347 16.3404H17.334V0C17.5573 0 17.7796 0.00467249 18.0007 0.013927C26.307 0.361611 32.9811 7.17655 33.321 15.6596Z" fill="#333333"/>
<path fill-rule="evenodd" clip-rule="evenodd" d="M17.347 16.3404C17.6869 24.8234 24.3609 31.6384 32.6673 31.9861C32.8884 31.9953 33.1107 32 33.334 32V0C33.1107 0 32.8884 0.00467249 32.6673 0.013927C24.3609 0.361611 17.6869 7.17655 17.347 15.6596H17.334C17.334 15.7733 17.3353 15.8868 17.3379 16C17.3353 16.1132 17.334 16.2267 17.334 16.3404H17.347ZM18.0033 16.0673L18.0131 16.3126C18.3385 24.4321 24.72 30.9574 32.6673 31.3046V0.695386C24.72 1.0426 18.3385 7.5679 18.0131 15.6874L18.0033 15.9327C18.0036 15.9498 18.004 15.9669 18.0044 15.984L18.0047 16L18.0044 16.016C18.004 16.0331 18.0036 16.0502 18.0033 16.0673Z" fill="#DA9218"/>
<path fill-rule="evenodd" clip-rule="evenodd" d="M49.9993 15.9985L49.9869 15.6874C49.6615 7.5679 43.28 1.0426 35.3327 0.695386V16.0015L35.3451 16.3126C35.6705 24.4321 42.052 30.9574 49.9993 31.3046V15.9985ZM50.653 15.6596H50.666V32C50.4427 32 50.2204 31.9953 49.9993 31.9861C41.693 31.6384 35.0189 24.8234 34.679 16.3404H34.666V0C34.8893 0 35.1116 0.00467249 35.3327 0.013927C43.6391 0.361611 50.3131 7.17655 50.653 15.6596Z" fill="#DA9218"/>
</svg>
