<svg width="61" height="38" viewBox="0 0 61 38" fill="none" xmlns="http://www.w3.org/2000/svg">
<path d="M21 1.11765C30.8799 1.11765 38.9377 8.88614 39.338 18.6195H39.3529V36.8823C29.473 36.8823 21.4152 29.1139 21.0149 19.3805H21V1.11765Z" fill="#DA9218"/>
<path d="M19.4701 1.11765H1.11719V36.8823H19.4701V1.11765Z" fill="#333333"/>
<path d="M21.002 1.11765C30.8819 1.11765 38.9396 8.88614 39.3399 18.6195H39.3549V36.8823C29.4749 36.8823 21.4172 29.1139 21.0169 19.3805H21.002V1.11765Z" fill="#333333"/>
<path fill-rule="evenodd" clip-rule="evenodd" d="M38.5902 18.9983L38.5759 18.6506C38.2027 9.57588 30.8827 2.28291 21.7667 1.89484V19.0017L21.781 19.3494C22.1541 28.4241 29.4741 35.7171 38.5902 36.1052V18.9983ZM39.3399 18.6195H39.3549V36.8823C39.0987 36.8823 38.8438 36.8771 38.5902 36.8668C29.0623 36.4782 21.4068 28.8615 21.0169 19.3805H21.002V1.11765C21.2581 1.11765 21.513 1.12287 21.7667 1.13321C31.2946 1.5218 38.95 9.1385 39.3399 18.6195Z" fill="#333333"/>
<path fill-rule="evenodd" clip-rule="evenodd" d="M21.0169 19.3805C21.4068 28.8615 29.0623 36.4782 38.5902 36.8668C38.8438 36.8771 39.0987 36.8823 39.3549 36.8823V1.11765C39.0987 1.11765 38.8438 1.12287 38.5902 1.13321C29.0623 1.5218 21.4068 9.1385 21.0169 18.6195H21.002C21.002 18.7466 21.0034 18.8735 21.0064 19C21.0034 19.1265 21.002 19.2534 21.002 19.3805H21.0169ZM21.7697 19.0752L21.781 19.3494C22.1541 28.4241 29.4741 35.7171 38.5902 36.1052V1.89484C29.4741 2.28291 22.1541 9.57588 21.781 18.6506L21.7697 18.9248C21.7701 18.9439 21.7705 18.963 21.7709 18.9821L21.7713 19L21.7709 19.0179C21.7705 19.037 21.7701 19.0561 21.7697 19.0752Z" fill="#DA9218"/>
<path fill-rule="evenodd" clip-rule="evenodd" d="M58.471 18.9983L58.4567 18.6506C58.0835 9.57588 50.7635 2.28291 41.6475 1.89484V19.0017L41.6618 19.3494C42.035 28.4241 49.355 35.7171 58.471 36.1052V18.9983ZM59.2208 18.6195H59.2357V36.8823C58.9796 36.8823 58.7246 36.8771 58.471 36.8668C48.9431 36.4782 41.2876 28.8615 40.8977 19.3805H40.8828V1.11765C41.139 1.11765 41.3939 1.12287 41.6475 1.13321C51.1754 1.5218 58.8309 9.1385 59.2208 18.6195Z" fill="#DA9218"/>
<path d="M41 1.11768C50.8799 1.11768 58.9377 8.88617 59.338 18.6196H59.3529V36.8824C49.473 36.8824 41.4152 29.1139 41.0149 19.3805H41V1.11768Z" fill="#DA9218"/>
<path d="M39.338 18.6196H39.3529V36.8824C29.473 36.8824 21.4152 29.1139 21.0149 19.3805H21V18.6196H39.338Z" fill="#DA9218"/>
<path d="M39.338 19.2628H39.3529V0.999989C29.473 0.999989 21.4152 8.76848 21.0149 18.5019H21V19.2628H39.338Z" fill="#DA9218"/>
</svg>
