<svg width="61" height="38" viewBox="0 0 61 38" fill="none" xmlns="http://www.w3.org/2000/svg">
<path d="M19.4705 1.11768H1.11765V36.8824H19.4705V1.11768Z" fill="#222222"/>
<path d="M21.0022 1.11768C30.8821 1.11768 38.9399 8.88617 39.3401 18.6196H39.3551V36.8824C29.4752 36.8824 21.4174 29.1139 21.0171 19.3805H21.0022V1.11768Z" fill="#222222"/>
<path fill-rule="evenodd" clip-rule="evenodd" d="M38.5904 18.9983L38.5761 18.6507C38.2029 9.57591 30.8829 2.28294 21.7669 1.89487V19.0018L21.7812 19.3494C22.1544 28.4241 29.4744 35.7171 38.5904 36.1052V18.9983ZM39.3401 18.6196H39.3551V36.8824C39.0989 36.8824 38.844 36.8772 38.5904 36.8668C29.0625 36.4782 21.407 28.8615 21.0171 19.3805H21.0022V1.11768C21.2583 1.11768 21.5133 1.1229 21.7669 1.13324C31.2948 1.52183 38.9503 9.13853 39.3401 18.6196Z" fill="#333333"/>
<path fill-rule="evenodd" clip-rule="evenodd" d="M21.0171 19.3805C21.407 28.8615 29.0625 36.4782 38.5904 36.8668C38.844 36.8772 39.0989 36.8824 39.3551 36.8824V1.11768C39.0989 1.11768 38.844 1.1229 38.5904 1.13324C29.0625 1.52183 21.407 9.13853 21.0171 18.6196H21.0022C21.0022 18.7467 21.0037 18.8735 21.0067 19C21.0037 19.1265 21.0022 19.2534 21.0022 19.3805H21.0171ZM21.7699 19.0753L21.7812 19.3494C22.1544 28.4241 29.4744 35.7171 38.5904 36.1052V1.89487C29.4744 2.28294 22.1544 9.57591 21.7812 18.6507L21.7699 18.9248C21.7703 18.9439 21.7707 18.963 21.7712 18.9822L21.7716 19L21.7712 19.0179C21.7707 19.037 21.7703 19.0561 21.7699 19.0753Z" fill="#DA9218"/>
<path fill-rule="evenodd" clip-rule="evenodd" d="M58.4701 18.9983L58.4558 18.6507C58.0826 9.57591 50.7626 2.28294 41.6466 1.89487V19.0018L41.6609 19.3494C42.0341 28.4241 49.3541 35.7171 58.4701 36.1052V18.9983ZM59.2199 18.6196H59.2348V36.8824C58.9786 36.8824 58.7237 36.8772 58.4701 36.8668C48.9422 36.4782 41.2867 28.8615 40.8968 19.3805H40.8819V1.11768C41.1381 1.11768 41.393 1.1229 41.6466 1.13324C51.1745 1.52183 58.83 9.13853 59.2199 18.6196Z" fill="#DA9218"/>
</svg>
