<svg width="54" height="34" viewBox="0 0 54 34" fill="none" xmlns="http://www.w3.org/2000/svg">
<path d="M17.421 1H1V33H17.421V1Z" fill="#DA9218"/>
<path d="M18.791 1C27.6309 1 34.8405 7.95076 35.1987 16.6596H35.212V33C26.3721 33 19.1625 26.0492 18.8044 17.3404H18.791V1Z" fill="#DA9218"/>
<path fill-rule="evenodd" clip-rule="evenodd" d="M34.5278 16.9985L34.515 16.6874C34.1811 8.5679 27.6317 2.0426 19.4752 1.69539V17.0015L19.488 17.3126C19.8219 25.4321 26.3714 31.9574 34.5278 32.3046V16.9985ZM35.1987 16.6596H35.212V33C34.9828 33 34.7547 32.9953 34.5278 32.9861C26.0029 32.6384 19.1532 25.8234 18.8044 17.3404H18.791V1C19.0202 1 19.2483 1.00467 19.4752 1.01393C28.0002 1.36161 34.8498 8.17655 35.1987 16.6596Z" fill="#DA9218"/>
<path fill-rule="evenodd" clip-rule="evenodd" d="M18.8044 17.3404C19.1532 25.8234 26.0029 32.6384 34.5278 32.9861C34.7547 32.9953 34.9828 33 35.212 33V1C34.9828 1 34.7547 1.00467 34.5278 1.01393C26.0029 1.36161 19.1532 8.17655 18.8044 16.6596H18.791C18.791 16.7733 18.7924 16.8868 18.795 17C18.7924 17.1132 18.791 17.2267 18.791 17.3404H18.8044ZM19.4779 17.0673L19.488 17.3126C19.8219 25.4321 26.3714 31.9574 34.5278 32.3046V1.69539C26.3714 2.0426 19.8219 8.5679 19.488 16.6874L19.4779 16.9327C19.4783 16.9498 19.4786 16.9669 19.479 16.984L19.4794 17L19.479 17.016C19.4786 17.0331 19.4783 17.0502 19.4779 17.0673Z" fill="#DA9218"/>
<path fill-rule="evenodd" clip-rule="evenodd" d="M52.3149 16.9985L52.3021 16.6874C51.9682 8.5679 45.4188 2.0426 37.2623 1.69539V17.0015L37.2751 17.3126C37.609 25.4321 44.1585 31.9574 52.3149 32.3046V16.9985ZM52.9858 16.6596H52.9991V33C52.7699 33 52.5418 32.9953 52.3149 32.9861C43.79 32.6384 36.9403 25.8234 36.5915 17.3404H36.5781V1C36.8073 1 37.0354 1.00467 37.2623 1.01393C45.7873 1.36161 52.6369 8.17655 52.9858 16.6596Z" fill="#DA9218"/>
</svg>
