<svg width="61" height="38" viewBox="0 0 61 38" fill="none" xmlns="http://www.w3.org/2000/svg">
<path d="M19.4701 1.11768H1.11719V36.8824H19.4701V1.11768Z" fill="#333333"/>
<path d="M21.002 1.11768C30.8819 1.11768 38.9396 8.88617 39.3399 18.6196H39.3549V36.8824C29.4749 36.8824 21.4172 29.1139 21.0169 19.3805H21.002V1.11768Z" fill="#333333"/>
<path fill-rule="evenodd" clip-rule="evenodd" d="M38.5902 18.9983L38.5759 18.6507C38.2027 9.57591 30.8827 2.28294 21.7667 1.89487V19.0018L21.781 19.3494C22.1541 28.4241 29.4741 35.7171 38.5902 36.1052V18.9983ZM39.3399 18.6196H39.3549V36.8824C39.0987 36.8824 38.8438 36.8772 38.5902 36.8668C29.0623 36.4782 21.4068 28.8615 21.0169 19.3805H21.002V1.11768C21.2581 1.11768 21.513 1.1229 21.7667 1.13324C31.2946 1.52183 38.95 9.13853 39.3399 18.6196Z" fill="#333333"/>
<path fill-rule="evenodd" clip-rule="evenodd" d="M21.0169 19.3805C21.4068 28.8615 29.0623 36.4782 38.5902 36.8668C38.8438 36.8772 39.0987 36.8824 39.3549 36.8824V1.11768C39.0987 1.11768 38.8438 1.1229 38.5902 1.13324C29.0623 1.52183 21.4068 9.13853 21.0169 18.6196H21.002C21.002 18.7467 21.0034 18.8735 21.0064 19C21.0034 19.1265 21.002 19.2534 21.002 19.3805H21.0169ZM21.7697 19.0753L21.781 19.3494C22.1541 28.4241 29.4741 35.7171 38.5902 36.1052V1.89487C29.4741 2.28294 22.1541 9.57591 21.781 18.6507L21.7697 18.9248C21.7701 18.9439 21.7705 18.963 21.7709 18.9822L21.7713 19L21.7709 19.0179C21.7705 19.037 21.7701 19.0561 21.7697 19.0753Z" fill="#333333"/>
<path fill-rule="evenodd" clip-rule="evenodd" d="M58.4691 18.9983L58.4548 18.6507C58.0816 9.57591 50.7616 2.28294 41.6456 1.89487V19.0018L41.6599 19.3494C42.033 28.4241 49.353 35.7171 58.4691 36.1052V18.9983ZM59.2188 18.6196H59.2338V36.8824C58.9776 36.8824 58.7227 36.8772 58.4691 36.8668C48.9412 36.4782 41.2857 28.8615 40.8958 19.3805H40.8809V1.11768C41.137 1.11768 41.392 1.1229 41.6456 1.13324C51.1735 1.52183 58.8289 9.13853 59.2188 18.6196Z" fill="#333333"/>
</svg>
