<svg width="61" height="38" viewBox="0 0 61 38" fill="none" xmlns="http://www.w3.org/2000/svg">
<path d="M19.4701 1.11719H1.11719V36.8818H19.4701V1.11719Z" fill="#F8F8F8"/>
<path d="M21.0039 1.11719C30.8838 1.11719 38.9415 8.88568 39.3418 18.619H39.3568V36.8818C29.4768 36.8818 21.4191 29.1134 21.0188 19.38H21.0039V1.11719Z" fill="#F8F8F8"/>
<path fill-rule="evenodd" clip-rule="evenodd" d="M38.5921 18.9978L38.5778 18.6501C38.2046 9.57542 30.8846 2.28245 21.7686 1.89438V19.0012L21.7829 19.3489C22.156 28.4236 29.476 35.7166 38.5921 36.1047V18.9978ZM39.3418 18.619H39.3568V36.8818C39.1006 36.8818 38.8457 36.8766 38.5921 36.8663C29.0642 36.4777 21.4087 28.861 21.0188 19.38H21.0039V1.11719C21.26 1.11719 21.5149 1.12241 21.7686 1.13275C31.2965 1.52134 38.9519 9.13804 39.3418 18.619Z" fill="#F8F8F8"/>
<path fill-rule="evenodd" clip-rule="evenodd" d="M21.0188 19.38C21.4087 28.861 29.0642 36.4777 38.5921 36.8663C38.8457 36.8766 39.1006 36.8818 39.3568 36.8818V1.11719C39.1006 1.11719 38.8457 1.12241 38.5921 1.13275C29.0642 1.52134 21.4087 9.13804 21.0188 18.619H21.0039C21.0039 18.7461 21.0053 18.873 21.0083 18.9995C21.0053 19.126 21.0039 19.2529 21.0039 19.38H21.0188ZM21.7716 19.0747L21.7829 19.3489C22.156 28.4236 29.476 35.7166 38.5921 36.1047V1.89438C29.476 2.28245 22.156 9.57542 21.7829 18.6501L21.7716 18.9243C21.772 18.9434 21.7724 18.9625 21.7728 18.9816L21.7732 18.9995L21.7728 19.0174C21.7724 19.0365 21.772 19.0556 21.7716 19.0747Z" fill="#DA9218"/>
<path fill-rule="evenodd" clip-rule="evenodd" d="M58.471 18.9978L58.4567 18.6501C58.0835 9.57542 50.7635 2.28245 41.6475 1.89438V19.0012L41.6618 19.3489C42.0349 28.4236 49.3549 35.7166 58.471 36.1047V18.9978ZM59.2207 18.619H59.2357V36.8818C58.9795 36.8818 58.7246 36.8766 58.471 36.8663C48.9431 36.4777 41.2876 28.861 40.8977 19.38H40.8828V1.11719C41.1389 1.11719 41.3939 1.12241 41.6475 1.13275C51.1754 1.52134 58.8308 9.13804 59.2207 18.619Z" fill="#DA9218"/>
</svg>
