<svg width="76" height="48" viewBox="0 0 76 48" fill="none" xmlns="http://www.w3.org/2000/svg">
<path d="M24 0H0V48H24V0Z" fill="#333333"/>
<path d="M0 0C12.9199 0 23.457 10.4261 23.9805 23.4894H24V48C11.0801 48 0.542969 37.5739 0.0195312 24.5106H0V0Z" transform="translate(26)" fill="#333333"/>
<path fill-rule="evenodd" clip-rule="evenodd" d="M23 23.9977L22.9813 23.5311C22.4933 11.3518 12.921 1.5639 1 1.04308V24.0023L1.01869 24.4689C1.50671 36.6482 11.079 46.4361 23 46.9569V23.9977ZM23.9805 23.4894H24V48C23.665 48 23.3316 47.993 23 47.9791C10.5404 47.4576 0.529397 37.2352 0.0195312 24.5106H0V0C0.334979 0 0.668357 0.00700874 1 0.0208905C13.4596 0.542417 23.4706 10.7648 23.9805 23.4894Z" transform="translate(26)" fill="#333333"/>
<path fill-rule="evenodd" clip-rule="evenodd" d="M0.0195312 24.5106C0.529397 37.2352 10.5404 47.4576 23 47.9791C23.3316 47.993 23.665 48 24 48V0C23.665 0 23.3316 0.00700874 23 0.0208905C10.5404 0.542417 0.529397 10.7648 0.0195312 23.4894H0C0 23.66 0.00195312 23.8302 0.00585938 24C0.00195312 24.1698 0 24.34 0 24.5106H0.0195312ZM1.00395 24.101L1.01869 24.4689C1.50671 36.6482 11.079 46.4361 23 46.9569V1.04308C11.079 1.5639 1.50671 11.3518 1.01869 23.5311L1.00395 23.899C1.00445 23.9247 1.00499 23.9504 1.00558 23.976L1.00614 24L1.00558 24.024C1.00499 24.0496 1.00445 24.0753 1.00395 24.101Z" transform="translate(26)" fill="#DA9218"/>
<path fill-rule="evenodd" clip-rule="evenodd" d="M23 23.9977L22.9813 23.5311C22.4933 11.3518 12.921 1.5639 1 1.04308V24.0023L1.01869 24.4689C1.50671 36.6482 11.079 46.4361 23 46.9569V23.9977ZM23.9805 23.4894H24V48C23.665 48 23.3316 47.993 23 47.9791C10.5404 47.4576 0.529397 37.2352 0.0195312 24.5106H0V0C0.334979 0 0.668357 0.00700874 1 0.0208905C13.4596 0.542417 23.4706 10.7648 23.9805 23.4894Z" transform="translate(52)" fill="#DA9218"/>
</svg>
