<svg width="39" height="24" viewBox="0 0 39 24" fill="none" xmlns="http://www.w3.org/2000/svg">
<path d="M12.0134 0H0V24H12.0134V0Z" fill="#333333"/>
<path d="M0 0C6.4672 0 11.7416 5.21307 12.0037 11.7447H12.0134V24C5.54624 24 0.271788 18.7869 0.00977656 12.2553H0V0Z" transform="translate(13.0146)" fill="#333333"/>
<path fill-rule="evenodd" clip-rule="evenodd" d="M11.5129 11.9988L11.5035 11.7656C11.2592 5.67592 6.46772 0.781951 0.50056 0.52154V12.0012L0.509918 12.2344C0.7542 18.3241 5.54572 23.2181 11.5129 23.4785V11.9988ZM12.0037 11.7447H12.0134V24C11.8458 24 11.6789 23.9965 11.5129 23.9896C5.27611 23.7288 0.264995 18.6176 0.00977656 12.2553H0V0C0.167677 0 0.334553 0.00350437 0.50056 0.0104452C6.73733 0.271209 11.7484 5.38241 12.0037 11.7447Z" transform="translate(13.0146)" fill="#333333"/>
<path fill-rule="evenodd" clip-rule="evenodd" d="M0.00977656 12.2553C0.264995 18.6176 5.27611 23.7288 11.5129 23.9896C11.6789 23.9965 11.8458 24 12.0134 24V0C11.8458 0 11.6789 0.00350437 11.5129 0.0104452C5.27611 0.271209 0.264995 5.38241 0.00977656 11.7447H0C0 11.83 0.000977656 11.9151 0.00293297 12C0.000977656 12.0849 0 12.17 0 12.2553H0.00977656ZM0.502539 12.0505L0.509918 12.2344C0.7542 18.3241 5.54572 23.2181 11.5129 23.4785V0.52154C5.54572 0.781951 0.7542 5.67592 0.509918 11.7656L0.502539 11.9495C0.502787 11.9623 0.503059 11.9752 0.503355 11.988L0.503631 12L0.503355 12.012C0.503059 12.0248 0.502787 12.0377 0.502539 12.0505Z" transform="translate(13.0146)" fill="#DA9218"/>
<path fill-rule="evenodd" clip-rule="evenodd" d="M11.5129 11.9988L11.5035 11.7656C11.2592 5.67592 6.46772 0.781951 0.50056 0.52154V12.0012L0.509918 12.2344C0.7542 18.3241 5.54572 23.2181 11.5129 23.4785V11.9988ZM12.0037 11.7447H12.0134V24C11.8458 24 11.6789 23.9965 11.5129 23.9896C5.27611 23.7288 0.264995 18.6176 0.00977656 12.2553H0V0C0.167677 0 0.334553 0.00350437 0.50056 0.0104452C6.73733 0.271209 11.7484 5.38241 12.0037 11.7447Z" transform="translate(26.0293)" fill="#DA9218"/>
</svg>
