<svg width="57" height="36" viewBox="0 0 57 36" fill="none" xmlns="http://www.w3.org/2000/svg">
<path d="M18 0H0V36H18V0Z" fill="#333333"/>
<path d="M0 0C9.68994 0 17.5928 7.8196 17.9854 17.617H18V36C8.31006 36 0.407227 28.1804 0.0146484 18.383H0V0Z" transform="translate(19.5)" fill="#333333"/>
<path fill-rule="evenodd" clip-rule="evenodd" d="M17.25 17.9983L17.236 17.6483C16.87 8.51388 9.69072 1.17293 0.75 0.78231V18.0017L0.764021 18.3517C1.13003 27.4861 8.30928 34.8271 17.25 35.2177V17.9983ZM17.9854 17.617H18V36C17.7488 36 17.4987 35.9947 17.25 35.9843C7.90531 35.5932 0.397048 27.9264 0.0146484 18.383H0V0C0.251235 0 0.501268 0.00525655 0.75 0.0156678C10.0947 0.406813 17.603 8.07362 17.9854 17.617Z" transform="translate(19.5)" fill="#333333"/>
<path fill-rule="evenodd" clip-rule="evenodd" d="M0.0146484 18.383C0.397048 27.9264 7.90531 35.5932 17.25 35.9843C17.4987 35.9947 17.7488 36 18 36V0C17.7488 0 17.4987 0.00525655 17.25 0.0156678C7.90531 0.406813 0.397048 8.07362 0.0146484 17.617H0C0 17.745 0.00146484 17.8727 0.00439453 18C0.00146484 18.1273 0 18.255 0 18.383H0.0146484ZM0.752965 18.0757L0.764021 18.3517C1.13003 27.4861 8.30928 34.8271 17.25 35.2177V0.78231C8.30928 1.17293 1.13003 8.51388 0.764021 17.6483L0.752965 17.9243C0.753338 17.9435 0.753745 17.9628 0.754188 17.982L0.754601 18L0.754188 18.018C0.753745 18.0372 0.753338 18.0565 0.752965 18.0757Z" transform="translate(19.5)" fill="#DA9218"/>
<path fill-rule="evenodd" clip-rule="evenodd" d="M17.25 17.9983L17.236 17.6483C16.87 8.51388 9.69072 1.17293 0.75 0.78231V18.0017L0.764021 18.3517C1.13003 27.4861 8.30928 34.8271 17.25 35.2177V17.9983ZM17.9854 17.617H18V36C17.7488 36 17.4987 35.9947 17.25 35.9843C7.90531 35.5932 0.397048 27.9264 0.0146484 18.383H0V0C0.251235 0 0.501268 0.00525655 0.75 0.0156678C10.0947 0.406813 17.603 8.07362 17.9854 17.617Z" transform="translate(39)" fill="#DA9218"/>
</svg>
