<svg width="149" height="38" viewBox="0 0 149 38" fill="none" xmlns="http://www.w3.org/2000/svg">
<path d="M110.75 18.5193L110.764 18.8726V36.2526C101.787 35.9854 94.5172 28.5491 94.1495 19.2407L94.1355 18.8874V1.50743C103.112 1.77456 110.382 9.21088 110.75 18.5193Z" stroke="#DA9218"/>
<path d="M75.5 18.9996V36.26H92.1282V19.2604V1.5H75.5004L75.5144 18.4992L75.5148 18.9996H75.5Z" stroke="#DA9218"/>
<path d="M20.1495 19.2407L20.1355 18.8875V1.50001H36.7637V18.4996V36.2526C27.7875 35.9855 20.5172 28.5491 20.1495 19.2407Z" stroke="#DA9218"/>
<path d="M18.1142 19.2407L18.1282 18.8875V1.50001H1.5V18.4996V36.2526C10.4762 35.9855 17.7465 28.5491 18.1142 19.2407Z" stroke="#DA9218"/>
<path d="M112.5 18.9996V36.26H129.128V19.2604V1.5H112.5L112.514 18.4992L112.515 18.9996H112.5Z" stroke="#DA9218"/>
<path d="M131.135 18.88C131.135 9.58264 138.498 1.9841 147.764 1.51826V36.2417C138.498 35.7759 131.135 28.1774 131.135 18.88Z" stroke="#DA9218"/>
<path d="M38.5 18.88C38.5 9.58264 45.8623 1.9841 55.1282 1.51826V36.2417C45.8623 35.7759 38.5 28.1774 38.5 18.88Z" stroke="#DA9218"/>
<path d="M73.7637 18.88C73.7637 9.58264 66.4014 1.9841 57.1355 1.51826V36.2417C66.4014 35.7759 73.7637 28.1774 73.7637 18.88Z" stroke="#DA9218"/>
</svg>
