<svg width="149" height="38" viewBox="0 0 149 38" fill="none" xmlns="http://www.w3.org/2000/svg">
<path d="M110.875 18.5144L110.889 18.8701V36.3809C101.784 36.1794 94.3965 28.6602 94.0246 19.2456L94.0105 18.8899V1.37914C103.115 1.58059 110.503 9.09977 110.875 18.5144Z" stroke="#DA9218" stroke-width="0.75"/>
<path d="M75.375 18.8746V36.385H92.2532V19.2604V1.375H75.3753L75.3894 18.4993L75.3897 18.8746H75.375Z" stroke="#DA9218" stroke-width="0.75"/>
<path d="M20.0246 19.2456L20.0105 18.8899V1.37501H36.8887V18.4996V36.3809C27.784 36.1794 20.3965 28.6602 20.0246 19.2456Z" stroke="#DA9218" stroke-width="0.75"/>
<path d="M18.2391 19.2456L18.2532 18.8899V1.37501H1.375V18.4996V36.3809C10.4797 36.1794 17.8672 28.6602 18.2391 19.2456Z" stroke="#DA9218" stroke-width="0.75"/>
<path d="M112.375 18.8746V36.385H129.253V19.2604V1.375H112.375L112.389 18.4993L112.39 18.8746H112.375Z" stroke="#DA9218" stroke-width="0.75"/>
<path d="M131.01 18.88C131.01 9.47094 138.496 1.79086 147.889 1.3873V36.3727C138.496 35.9691 131.01 28.2891 131.01 18.88Z" stroke="#DA9218" stroke-width="0.75"/>
<path d="M38.375 18.88C38.375 9.47094 45.8604 1.79086 55.2532 1.3873V36.3727C45.8604 35.9691 38.375 28.2891 38.375 18.88Z" stroke="#DA9218" stroke-width="0.75"/>
<path d="M73.8887 18.88C73.8887 9.47094 66.4033 1.79086 57.0105 1.3873V36.3727C66.4033 35.9691 73.8887 28.2891 73.8887 18.88Z" stroke="#DA9218" stroke-width="0.75"/>
</svg>
