<svg width="156" height="38" viewBox="0 0 156 38" fill="none" xmlns="http://www.w3.org/2000/svg">
<path d="M98.6355 1C108.125 1 115.865 8.76747 116.249 18.4996H116.264V36.76C106.774 36.76 99.0343 28.9925 98.6498 19.2604H98.6355V1Z" fill="#D8D2CA"/>
<path d="M79.0144 18.4996H79V36.76H96.6282V19.2604V1H79L79.0144 18.4996Z" fill="#D8D2CA"/>
<path d="M38.2637 36.76C28.7739 36.76 21.0343 28.9925 20.6498 19.2604H20.6355V1.00001H38.2637V18.4996V36.76Z" fill="#D8D2CA"/>
<path d="M1 36.76C10.4898 36.76 18.2294 28.9925 18.6138 19.2604H18.6282V1.00001H1V18.4996V36.76Z" fill="#D8D2CA"/>
<path d="M118.014 18.4996H118V36.76H135.628V19.2604V1H118L118.014 18.4996Z" fill="#D8D2CA"/>
<path d="M155.264 1C145.491 1.21234 137.635 9.13619 137.635 18.88C137.635 28.6238 145.491 36.5477 155.264 36.76V1Z" fill="#D8D2CA"/>
<path d="M57.6282 1C47.856 1.21234 40 9.13619 40 18.88C40 28.6238 47.856 36.5477 57.6282 36.76V1Z" fill="#D8D2CA"/>
<path d="M59.6355 1C69.4077 1.21234 77.2637 9.13619 77.2637 18.88C77.2637 28.6238 69.4077 36.5477 59.6355 36.76V1Z" fill="#D8D2CA"/>
</svg>
