<svg width="152" height="38" viewBox="0 0 152 38" fill="none" xmlns="http://www.w3.org/2000/svg">
<path d="M95.6355 1C105.125 1 112.865 8.76747 113.249 18.4996H113.264V36.76C103.774 36.76 96.0343 28.9925 95.6498 19.2604H95.6355V1Z" fill="#EFE8DF"/>
<path d="M77.0144 18.4996H77V36.76H94.6282V19.2604V1H77L77.0144 18.4996Z" fill="#EFE8DF"/>
<path d="M37.2637 36.76C27.7739 36.76 20.0343 28.9925 19.6498 19.2604H19.6355V1.00001H37.2637V18.4996V36.76Z" fill="#EFE8DF"/>
<path d="M1 36.76C10.4898 36.76 18.2294 28.9925 18.6138 19.2604H18.6282V1.00001H1V18.4996V36.76Z" fill="#EFE8DF"/>
<path d="M115.014 18.4996H115V36.76H132.628V19.2604V1H115L115.014 18.4996Z" fill="#EFE8DF"/>
<path d="M151.264 1C141.491 1.21234 133.635 9.13619 133.635 18.88C133.635 28.6238 141.491 36.5477 151.264 36.76V1Z" fill="#EFE8DF"/>
<path d="M56.6282 1C46.856 1.21234 39 9.13619 39 18.88C39 28.6238 46.856 36.5477 56.6282 36.76V1Z" fill="#EFE8DF"/>
<path d="M57.6355 1C67.4077 1.21234 75.2637 9.13619 75.2637 18.88C75.2637 28.6238 67.4077 36.5477 57.6355 36.76V1Z" fill="#EFE8DF"/>
</svg>
