<svg width="360" height="144" viewBox="0 0 360 144" fill="none" xmlns="http://www.w3.org/2000/svg">
<path d="M0 0H360V72V144H0V72V0Z" fill="#F2F2F2"/>
<path d="M71.2019 95H69.6179L66.4979 84.44H67.8739L70.4179 93.992L72.9139 84.44H74.3699L76.8659 94.024L79.4259 84.44H80.7219L77.6179 95H76.0339L74.1619 88.152L73.6179 85.768H73.6019L73.0579 88.152L71.2019 95ZM83.4249 85.464C83.1369 85.464 82.9022 85.3787 82.7209 85.208C82.5502 85.0267 82.4649 84.792 82.4649 84.504C82.4649 84.216 82.5502 83.9867 82.7209 83.816C82.9022 83.6347 83.1369 83.544 83.4249 83.544C83.7129 83.544 83.9422 83.6347 84.1129 83.816C84.2942 83.9867 84.3849 84.216 84.3849 84.504C84.3849 84.792 84.2942 85.0267 84.1129 85.208C83.9422 85.3787 83.7129 85.464 83.4249 85.464ZM84.0649 95H82.7849V87H84.0649V95ZM94.1389 83.32V95H93.0189L92.9389 93.608C92.7042 94.0773 92.3415 94.456 91.8509 94.744C91.3709 95.0213 90.8215 95.16 90.2029 95.16C89.0829 95.16 88.1922 94.792 87.5309 94.056C86.8802 93.3093 86.5549 92.2907 86.5549 91C86.5549 89.7093 86.8802 88.696 87.5309 87.96C88.1922 87.2133 89.0829 86.84 90.2029 86.84C90.7895 86.84 91.3122 86.968 91.7709 87.224C92.2402 87.48 92.6029 87.8213 92.8589 88.248V83.32H94.1389ZM90.3469 94.04C91.1149 94.04 91.7229 93.7733 92.1709 93.24C92.6295 92.7067 92.8589 91.992 92.8589 91.096V90.904C92.8589 90.008 92.6295 89.2933 92.1709 88.76C91.7229 88.2267 91.1149 87.96 90.3469 87.96C89.5682 87.96 88.9549 88.2373 88.5069 88.792C88.0589 89.336 87.8349 90.072 87.8349 91C87.8349 91.928 88.0589 92.6693 88.5069 93.224C88.9549 93.768 89.5682 94.04 90.3469 94.04ZM103.977 90.584C103.977 90.8827 103.956 91.1813 103.913 91.48H97.881C97.9557 92.2907 98.2223 92.92 98.681 93.368C99.1503 93.816 99.753 94.04 100.489 94.04C101.076 94.04 101.561 93.9387 101.945 93.736C102.34 93.5333 102.606 93.24 102.745 92.856L103.817 93.416C103.497 93.9813 103.07 94.4133 102.537 94.712C102.004 95.0107 101.321 95.16 100.489 95.16C99.2837 95.16 98.3343 94.792 97.641 94.056C96.9583 93.32 96.617 92.3013 96.617 91C96.617 89.6987 96.9423 88.68 97.593 87.944C98.2543 87.208 99.1877 86.84 100.393 86.84C101.14 86.84 101.785 87.0053 102.329 87.336C102.873 87.6667 103.284 88.1147 103.561 88.68C103.838 89.2453 103.977 89.88 103.977 90.584ZM100.393 87.96C99.689 87.96 99.1183 88.168 98.681 88.584C98.2543 89 97.993 89.5867 97.897 90.344H102.745C102.66 89.5973 102.414 89.016 102.009 88.6C101.604 88.1733 101.065 87.96 100.393 87.96ZM109.13 95.16C108.362 95.16 107.669 95.0107 107.05 94.712C106.431 94.4027 105.978 93.9493 105.69 93.352L106.73 92.632C106.911 93.1013 107.226 93.4533 107.674 93.688C108.122 93.9227 108.65 94.04 109.258 94.04C109.887 94.04 110.367 93.928 110.698 93.704C111.029 93.48 111.194 93.1973 111.194 92.856C111.194 92.5467 111.039 92.3013 110.73 92.12C110.421 91.928 109.877 91.7627 109.098 91.624C108.33 91.4853 107.722 91.32 107.274 91.128C106.826 90.9253 106.501 90.6747 106.298 90.376C106.095 90.0667 105.994 89.688 105.994 89.24C105.994 88.8027 106.122 88.4027 106.378 88.04C106.634 87.6773 107.002 87.3893 107.482 87.176C107.962 86.952 108.517 86.84 109.146 86.84C109.999 86.84 110.682 87 111.194 87.32C111.717 87.6293 112.09 88.1093 112.314 88.76L111.226 89.4C111.055 88.888 110.794 88.52 110.442 88.296C110.101 88.072 109.669 87.96 109.146 87.96C108.623 87.96 108.181 88.0773 107.818 88.312C107.455 88.5467 107.274 88.8187 107.274 89.128C107.274 89.48 107.429 89.752 107.738 89.944C108.058 90.136 108.623 90.3013 109.434 90.44C110.543 90.6213 111.327 90.8933 111.786 91.256C112.245 91.6187 112.474 92.1307 112.474 92.792C112.474 93.2507 112.335 93.6613 112.058 94.024C111.791 94.376 111.402 94.6533 110.89 94.856C110.389 95.0587 109.802 95.16 109.13 95.16ZM118.783 86.84C119.903 86.84 120.789 87.2133 121.439 87.96C122.101 88.696 122.431 89.7093 122.431 91C122.431 92.2907 122.101 93.3093 121.439 94.056C120.789 94.792 119.903 95.16 118.783 95.16C118.197 95.16 117.669 95.032 117.199 94.776C116.741 94.52 116.383 94.1787 116.127 93.752V98.36H114.847V87H115.967L116.047 88.392C116.282 87.9227 116.639 87.5493 117.119 87.272C117.61 86.984 118.165 86.84 118.783 86.84ZM118.639 94.04C119.418 94.04 120.031 93.768 120.479 93.224C120.927 92.6693 121.151 91.928 121.151 91C121.151 90.072 120.927 89.336 120.479 88.792C120.031 88.2373 119.418 87.96 118.639 87.96C117.871 87.96 117.258 88.2267 116.799 88.76C116.351 89.2933 116.127 90.008 116.127 90.904V91.096C116.127 91.992 116.351 92.7067 116.799 93.24C117.258 93.7733 117.871 94.04 118.639 94.04ZM128.702 86.84C129.086 86.84 129.379 86.8933 129.582 87L129.326 88.248C129.07 88.1093 128.734 88.04 128.318 88.04C127.976 88.04 127.64 88.1413 127.31 88.344C126.99 88.536 126.723 88.8347 126.51 89.24C126.307 89.6347 126.206 90.1147 126.206 90.68V95H124.926V87H125.966L126.142 88.312C126.59 87.3307 127.443 86.84 128.702 86.84ZM138.071 90.584C138.071 90.8827 138.049 91.1813 138.007 91.48H131.975C132.049 92.2907 132.316 92.92 132.775 93.368C133.244 93.816 133.847 94.04 134.583 94.04C135.169 94.04 135.655 93.9387 136.039 93.736C136.433 93.5333 136.7 93.24 136.839 92.856L137.911 93.416C137.591 93.9813 137.164 94.4133 136.631 94.712C136.097 95.0107 135.415 95.16 134.583 95.16C133.377 95.16 132.428 94.792 131.735 94.056C131.052 93.32 130.711 92.3013 130.711 91C130.711 89.6987 131.036 88.68 131.687 87.944C132.348 87.208 133.281 86.84 134.487 86.84C135.233 86.84 135.879 87.0053 136.423 87.336C136.967 87.6667 137.377 88.1147 137.655 88.68C137.932 89.2453 138.071 89.88 138.071 90.584ZM134.487 87.96C133.783 87.96 133.212 88.168 132.775 88.584C132.348 89 132.087 89.5867 131.991 90.344H136.839C136.753 89.5973 136.508 89.016 136.103 88.6C135.697 88.1733 135.159 87.96 134.487 87.96ZM147.064 94.072C147.277 94.072 147.49 94.0453 147.704 93.992L147.624 95C147.325 95.1067 147.005 95.16 146.664 95.16C146.248 95.16 145.917 95.0693 145.672 94.888C145.437 94.7067 145.288 94.4027 145.224 93.976C144.978 94.3493 144.616 94.6427 144.136 94.856C143.666 95.0587 143.17 95.16 142.648 95.16C141.858 95.16 141.208 94.9787 140.696 94.616C140.184 94.2427 139.928 93.7093 139.928 93.016C139.928 92.408 140.194 91.8853 140.728 91.448C141.261 91 142.034 90.6907 143.048 90.52L145.176 90.168V89.72C145.176 89.1867 145.01 88.76 144.68 88.44C144.349 88.12 143.89 87.96 143.304 87.96C142.77 87.96 142.306 88.088 141.912 88.344C141.528 88.6 141.229 88.9787 141.016 89.48L140.072 88.792C140.285 88.1947 140.68 87.72 141.256 87.368C141.842 87.016 142.525 86.84 143.304 86.84C144.253 86.84 145.016 87.0693 145.592 87.528C146.168 87.9867 146.456 88.664 146.456 89.56V93.496C146.456 93.688 146.504 93.832 146.6 93.928C146.696 94.024 146.85 94.072 147.064 94.072ZM142.712 94.04C143.384 94.04 143.96 93.88 144.44 93.56C144.93 93.24 145.176 92.824 145.176 92.312V91.208L143.384 91.544C142.669 91.672 142.136 91.8587 141.784 92.104C141.432 92.3387 141.256 92.6427 141.256 93.016C141.256 93.3467 141.384 93.6027 141.64 93.784C141.896 93.9547 142.253 94.04 142.712 94.04ZM156.67 83.32V95H155.55L155.47 93.608C155.235 94.0773 154.873 94.456 154.382 94.744C153.902 95.0213 153.353 95.16 152.734 95.16C151.614 95.16 150.723 94.792 150.062 94.056C149.411 93.3093 149.086 92.2907 149.086 91C149.086 89.7093 149.411 88.696 150.062 87.96C150.723 87.2133 151.614 86.84 152.734 86.84C153.321 86.84 153.843 86.968 154.302 87.224C154.771 87.48 155.134 87.8213 155.39 88.248V83.32H156.67ZM152.878 94.04C153.646 94.04 154.254 93.7733 154.702 93.24C155.161 92.7067 155.39 91.992 155.39 91.096V90.904C155.39 90.008 155.161 89.2933 154.702 88.76C154.254 88.2267 153.646 87.96 152.878 87.96C152.099 87.96 151.486 88.2373 151.038 88.792C150.59 89.336 150.366 90.072 150.366 91C150.366 91.928 150.59 92.6693 151.038 93.224C151.486 93.768 152.099 94.04 152.878 94.04ZM172.201 83.32V95H171.081L171.001 93.608C170.767 94.0773 170.404 94.456 169.913 94.744C169.433 95.0213 168.884 95.16 168.265 95.16C167.145 95.16 166.255 94.792 165.593 94.056C164.943 93.3093 164.617 92.2907 164.617 91C164.617 89.7093 164.943 88.696 165.593 87.96C166.255 87.2133 167.145 86.84 168.265 86.84C168.852 86.84 169.375 86.968 169.833 87.224C170.303 87.48 170.665 87.8213 170.921 88.248V83.32H172.201ZM168.409 94.04C169.177 94.04 169.785 93.7733 170.233 93.24C170.692 92.7067 170.921 91.992 170.921 91.096V90.904C170.921 90.008 170.692 89.2933 170.233 88.76C169.785 88.2267 169.177 87.96 168.409 87.96C167.631 87.96 167.017 88.2373 166.569 88.792C166.121 89.336 165.897 90.072 165.897 91C165.897 91.928 166.121 92.6693 166.569 93.224C167.017 93.768 167.631 94.04 168.409 94.04ZM178.552 86.84C179.757 86.84 180.701 87.208 181.384 87.944C182.077 88.68 182.424 89.6987 182.424 91C182.424 92.3013 182.077 93.32 181.384 94.056C180.701 94.792 179.757 95.16 178.552 95.16C177.346 95.16 176.397 94.792 175.704 94.056C175.021 93.32 174.68 92.3013 174.68 91C174.68 89.6987 175.021 88.68 175.704 87.944C176.397 87.208 177.346 86.84 178.552 86.84ZM178.552 87.944C177.741 87.944 177.106 88.216 176.648 88.76C176.189 89.304 175.96 90.0507 175.96 91C175.96 91.9493 176.189 92.696 176.648 93.24C177.106 93.784 177.741 94.056 178.552 94.056C179.362 94.056 179.997 93.784 180.456 93.24C180.914 92.696 181.144 91.9493 181.144 91C181.144 90.0507 180.914 89.304 180.456 88.76C179.997 88.216 179.362 87.944 178.552 87.944ZM191.838 87V95H190.718L190.638 93.784C190.105 94.7013 189.15 95.16 187.774 95.16C186.91 95.16 186.201 94.92 185.646 94.44C185.102 93.96 184.83 93.224 184.83 92.232V87H186.11V91.896C186.11 92.6747 186.27 93.2293 186.59 93.56C186.91 93.88 187.379 94.04 187.998 94.04C188.734 94.04 189.342 93.816 189.822 93.368C190.313 92.92 190.558 92.248 190.558 91.352V87H191.838ZM198.752 86.84C199.872 86.84 200.757 87.2133 201.408 87.96C202.069 88.696 202.4 89.7093 202.4 91C202.4 92.2907 202.069 93.3093 201.408 94.056C200.757 94.792 199.872 95.16 198.752 95.16C198.133 95.16 197.579 95.0213 197.088 94.744C196.608 94.456 196.251 94.0773 196.016 93.608L195.936 95H194.816V83.32H196.096V88.248C196.352 87.8213 196.709 87.48 197.168 87.224C197.637 86.968 198.165 86.84 198.752 86.84ZM198.608 94.04C199.387 94.04 200 93.768 200.448 93.224C200.896 92.6693 201.12 91.928 201.12 91C201.12 90.072 200.896 89.336 200.448 88.792C200 88.2373 199.387 87.96 198.608 87.96C197.84 87.96 197.227 88.2267 196.768 88.76C196.32 89.2933 196.096 90.008 196.096 90.904V91.096C196.096 91.992 196.32 92.7067 196.768 93.24C197.227 93.7733 197.84 94.04 198.608 94.04ZM209.65 94.44C209.116 94.92 208.428 95.16 207.586 95.16C206.935 95.16 206.402 94.984 205.986 94.632C205.58 94.28 205.372 93.7413 205.362 93.016V88.104H203.762V87H205.362V85.08L206.642 84.728V87H209.602V88.104H206.642V92.792C206.642 93.176 206.748 93.4693 206.962 93.672C207.186 93.864 207.479 93.96 207.842 93.96C208.354 93.96 208.807 93.7627 209.202 93.368L209.65 94.44ZM220.286 86.84C221.491 86.84 222.435 87.208 223.118 87.944C223.811 88.68 224.158 89.6987 224.158 91C224.158 92.3013 223.811 93.32 223.118 94.056C222.435 94.792 221.491 95.16 220.286 95.16C219.081 95.16 218.131 94.792 217.438 94.056C216.755 93.32 216.414 92.3013 216.414 91C216.414 89.6987 216.755 88.68 217.438 87.944C218.131 87.208 219.081 86.84 220.286 86.84ZM220.286 87.944C219.475 87.944 218.841 88.216 218.382 88.76C217.923 89.304 217.694 90.0507 217.694 91C217.694 91.9493 217.923 92.696 218.382 93.24C218.841 93.784 219.475 94.056 220.286 94.056C221.097 94.056 221.731 93.784 222.19 93.24C222.649 92.696 222.878 91.9493 222.878 91C222.878 90.0507 222.649 89.304 222.19 88.76C221.731 88.216 221.097 87.944 220.286 87.944ZM233.284 87L229.956 95H228.676L225.348 87H226.804L229.332 93.704L231.94 87H233.284ZM241.821 90.584C241.821 90.8827 241.799 91.1813 241.757 91.48H235.725C235.799 92.2907 236.066 92.92 236.525 93.368C236.994 93.816 237.597 94.04 238.333 94.04C238.919 94.04 239.405 93.9387 239.789 93.736C240.183 93.5333 240.45 93.24 240.589 92.856L241.661 93.416C241.341 93.9813 240.914 94.4133 240.381 94.712C239.847 95.0107 239.165 95.16 238.333 95.16C237.127 95.16 236.178 94.792 235.485 94.056C234.802 93.32 234.461 92.3013 234.461 91C234.461 89.6987 234.786 88.68 235.437 87.944C236.098 87.208 237.031 86.84 238.237 86.84C238.983 86.84 239.629 87.0053 240.173 87.336C240.717 87.6667 241.127 88.1147 241.405 88.68C241.682 89.2453 241.821 89.88 241.821 90.584ZM238.237 87.96C237.533 87.96 236.962 88.168 236.525 88.584C236.098 89 235.837 89.5867 235.741 90.344H240.589C240.503 89.5973 240.258 89.016 239.853 88.6C239.447 88.1733 238.909 87.96 238.237 87.96ZM248.03 86.84C248.414 86.84 248.707 86.8933 248.91 87L248.654 88.248C248.398 88.1093 248.062 88.04 247.646 88.04C247.304 88.04 246.968 88.1413 246.638 88.344C246.318 88.536 246.051 88.8347 245.838 89.24C245.635 89.6347 245.534 90.1147 245.534 90.68V95H244.254V87H245.294L245.47 88.312C245.918 87.3307 246.771 86.84 248.03 86.84ZM267.12 87L264.336 95H263.056L260.8 88.632L258.672 95H257.392L254.608 87H256.032L258.048 93.512L260.224 87H261.504L263.68 93.512L265.696 87H267.12ZM273.095 86.84C274.001 86.84 274.748 87.1013 275.335 87.624C275.921 88.1467 276.215 88.8987 276.215 89.88V95H274.935V90.328C274.935 89.496 274.753 88.8933 274.391 88.52C274.039 88.1467 273.564 87.96 272.967 87.96C272.551 87.96 272.151 88.056 271.767 88.248C271.393 88.44 271.084 88.7493 270.839 89.176C270.604 89.592 270.487 90.12 270.487 90.76V95H269.207V83.32H270.487V88.2C270.753 87.7413 271.111 87.4 271.559 87.176C272.017 86.952 272.529 86.84 273.095 86.84ZM285.673 94.072C285.886 94.072 286.1 94.0453 286.313 93.992L286.233 95C285.934 95.1067 285.614 95.16 285.273 95.16C284.857 95.16 284.526 95.0693 284.281 94.888C284.046 94.7067 283.897 94.4027 283.833 93.976C283.588 94.3493 283.225 94.6427 282.745 94.856C282.276 95.0587 281.78 95.16 281.257 95.16C280.468 95.16 279.817 94.9787 279.305 94.616C278.793 94.2427 278.537 93.7093 278.537 93.016C278.537 92.408 278.804 91.8853 279.337 91.448C279.87 91 280.644 90.6907 281.657 90.52L283.785 90.168V89.72C283.785 89.1867 283.62 88.76 283.289 88.44C282.958 88.12 282.5 87.96 281.913 87.96C281.38 87.96 280.916 88.088 280.521 88.344C280.137 88.6 279.838 88.9787 279.625 89.48L278.681 88.792C278.894 88.1947 279.289 87.72 279.865 87.368C280.452 87.016 281.134 86.84 281.913 86.84C282.862 86.84 283.625 87.0693 284.201 87.528C284.777 87.9867 285.065 88.664 285.065 89.56V93.496C285.065 93.688 285.113 93.832 285.209 93.928C285.305 94.024 285.46 94.072 285.673 94.072ZM281.321 94.04C281.993 94.04 282.569 93.88 283.049 93.56C283.54 93.24 283.785 92.824 283.785 92.312V91.208L281.993 91.544C281.278 91.672 280.745 91.8587 280.393 92.104C280.041 92.3387 279.865 92.6427 279.865 93.016C279.865 93.3467 279.993 93.6027 280.249 93.784C280.505 93.9547 280.862 94.04 281.321 94.04ZM292.759 94.44C292.226 94.92 291.538 95.16 290.695 95.16C290.044 95.16 289.511 94.984 289.095 94.632C288.69 94.28 288.482 93.7413 288.471 93.016V88.104H286.871V87H288.471V85.08L289.751 84.728V87H292.711V88.104H289.751V92.792C289.751 93.176 289.858 93.4693 290.071 93.672C290.295 93.864 290.588 93.96 290.951 93.96C291.463 93.96 291.916 93.7627 292.311 93.368L292.759 94.44ZM78.364 107.84C79.164 107.84 79.836 108.027 80.38 108.4C80.9347 108.763 81.3667 109.285 81.676 109.968L80.46 110.544C80.1187 109.488 79.4093 108.96 78.332 108.96C77.532 108.96 76.9027 109.232 76.444 109.776C75.996 110.309 75.772 111.051 75.772 112C75.772 112.949 75.996 113.696 76.444 114.24C76.9027 114.773 77.532 115.04 78.332 115.04C78.9507 115.04 79.4467 114.901 79.82 114.624C80.204 114.336 80.4547 113.925 80.572 113.392L81.756 113.808C81.4787 114.555 81.052 115.136 80.476 115.552C79.9 115.957 79.196 116.16 78.364 116.16C77.1587 116.16 76.2093 115.792 75.516 115.056C74.8333 114.32 74.492 113.301 74.492 112C74.492 110.699 74.8333 109.68 75.516 108.944C76.2093 108.208 77.1587 107.84 78.364 107.84ZM87.3953 107.84C88.6006 107.84 89.5446 108.208 90.2273 108.944C90.9206 109.68 91.2673 110.699 91.2673 112C91.2673 113.301 90.9206 114.32 90.2273 115.056C89.5446 115.792 88.6006 116.16 87.3953 116.16C86.1899 116.16 85.2406 115.792 84.5473 115.056C83.8646 114.32 83.5233 113.301 83.5233 112C83.5233 110.699 83.8646 109.68 84.5473 108.944C85.2406 108.208 86.1899 107.84 87.3953 107.84ZM87.3953 108.944C86.5846 108.944 85.9499 109.216 85.4913 109.76C85.0326 110.304 84.8033 111.051 84.8033 112C84.8033 112.949 85.0326 113.696 85.4913 114.24C85.9499 114.784 86.5846 115.056 87.3953 115.056C88.2059 115.056 88.8406 114.784 89.2993 114.24C89.7579 113.696 89.9873 112.949 89.9873 112C89.9873 111.051 89.7579 110.304 89.2993 109.76C88.8406 109.216 88.2059 108.944 87.3953 108.944ZM97.6416 107.84C98.5483 107.84 99.295 108.101 99.8816 108.624C100.468 109.147 100.762 109.899 100.762 110.88V116H99.4816V111.328C99.4816 110.496 99.3003 109.893 98.9376 109.52C98.5856 109.147 98.111 108.96 97.5136 108.96C97.087 108.96 96.687 109.056 96.3136 109.248C95.9403 109.429 95.631 109.733 95.3856 110.16C95.151 110.576 95.0336 111.104 95.0336 111.744V116H93.7536V108H94.8736L94.9536 109.248C95.2203 108.768 95.5883 108.416 96.0576 108.192C96.527 107.957 97.055 107.84 97.6416 107.84ZM108.447 115.44C107.913 115.92 107.225 116.16 106.383 116.16C105.732 116.16 105.199 115.984 104.783 115.632C104.377 115.28 104.169 114.741 104.159 114.016V109.104H102.559V108H104.159V106.08L105.439 105.728V108H108.399V109.104H105.439V113.792C105.439 114.176 105.545 114.469 105.759 114.672C105.983 114.864 106.276 114.96 106.639 114.96C107.151 114.96 107.604 114.763 107.999 114.368L108.447 115.44ZM112.974 116.16C112.206 116.16 111.512 116.011 110.894 115.712C110.275 115.403 109.822 114.949 109.534 114.352L110.574 113.632C110.755 114.101 111.07 114.453 111.518 114.688C111.966 114.923 112.494 115.04 113.102 115.04C113.731 115.04 114.211 114.928 114.542 114.704C114.872 114.48 115.038 114.197 115.038 113.856C115.038 113.547 114.883 113.301 114.574 113.12C114.264 112.928 113.72 112.763 112.942 112.624C112.174 112.485 111.566 112.32 111.118 112.128C110.67 111.925 110.344 111.675 110.142 111.376C109.939 111.067 109.838 110.688 109.838 110.24C109.838 109.803 109.966 109.403 110.222 109.04C110.478 108.677 110.846 108.389 111.326 108.176C111.806 107.952 112.36 107.84 112.99 107.84C113.843 107.84 114.526 108 115.038 108.32C115.56 108.629 115.934 109.109 116.158 109.76L115.07 110.4C114.899 109.888 114.638 109.52 114.286 109.296C113.944 109.072 113.512 108.96 112.99 108.96C112.467 108.96 112.024 109.077 111.662 109.312C111.299 109.547 111.118 109.819 111.118 110.128C111.118 110.48 111.272 110.752 111.582 110.944C111.902 111.136 112.467 111.301 113.278 111.44C114.387 111.621 115.171 111.893 115.63 112.256C116.088 112.619 116.318 113.131 116.318 113.792C116.318 114.251 116.179 114.661 115.902 115.024C115.635 115.376 115.246 115.653 114.734 115.856C114.232 116.059 113.646 116.16 112.974 116.16ZM123.587 115.44C123.054 115.92 122.366 116.16 121.523 116.16C120.872 116.16 120.339 115.984 119.923 115.632C119.518 115.28 119.31 114.741 119.299 114.016V109.104H117.699V108H119.299V106.08L120.579 105.728V108H123.539V109.104H120.579V113.792C120.579 114.176 120.686 114.469 120.899 114.672C121.123 114.864 121.416 114.96 121.779 114.96C122.291 114.96 122.744 114.763 123.139 114.368L123.587 115.44ZM126.034 106.464C125.746 106.464 125.512 106.379 125.33 106.208C125.16 106.027 125.074 105.792 125.074 105.504C125.074 105.216 125.16 104.987 125.33 104.816C125.512 104.635 125.746 104.544 126.034 104.544C126.322 104.544 126.552 104.635 126.722 104.816C126.904 104.987 126.994 105.216 126.994 105.504C126.994 105.792 126.904 106.027 126.722 106.208C126.552 106.379 126.322 106.464 126.034 106.464ZM126.674 116H125.394V108H126.674V116ZM134.54 115.44C134.007 115.92 133.319 116.16 132.476 116.16C131.826 116.16 131.292 115.984 130.876 115.632C130.471 115.28 130.263 114.741 130.252 114.016V109.104H128.652V108H130.252V106.08L131.532 105.728V108H134.492V109.104H131.532V113.792C131.532 114.176 131.639 114.469 131.852 114.672C132.076 114.864 132.37 114.96 132.732 114.96C133.244 114.96 133.698 114.763 134.092 114.368L134.54 115.44ZM143.275 108V116H142.155L142.075 114.784C141.542 115.701 140.587 116.16 139.211 116.16C138.347 116.16 137.638 115.92 137.083 115.44C136.539 114.96 136.267 114.224 136.267 113.232V108H137.547V112.896C137.547 113.675 137.707 114.229 138.027 114.56C138.347 114.88 138.817 115.04 139.435 115.04C140.171 115.04 140.779 114.816 141.259 114.368C141.75 113.92 141.995 113.248 141.995 112.352V108H143.275ZM151.15 115.44C150.616 115.92 149.928 116.16 149.086 116.16C148.435 116.16 147.902 115.984 147.486 115.632C147.08 115.28 146.872 114.741 146.862 114.016V109.104H145.262V108H146.862V106.08L148.142 105.728V108H151.102V109.104H148.142V113.792C148.142 114.176 148.248 114.469 148.462 114.672C148.686 114.864 148.979 114.96 149.342 114.96C149.854 114.96 150.307 114.763 150.702 114.368L151.15 115.44ZM159.821 111.584C159.821 111.883 159.799 112.181 159.757 112.48H153.725C153.799 113.291 154.066 113.92 154.525 114.368C154.994 114.816 155.597 115.04 156.333 115.04C156.919 115.04 157.405 114.939 157.789 114.736C158.183 114.533 158.45 114.24 158.589 113.856L159.661 114.416C159.341 114.981 158.914 115.413 158.381 115.712C157.847 116.011 157.165 116.16 156.333 116.16C155.127 116.16 154.178 115.792 153.485 115.056C152.802 114.32 152.461 113.301 152.461 112C152.461 110.699 152.786 109.68 153.437 108.944C154.098 108.208 155.031 107.84 156.237 107.84C156.983 107.84 157.629 108.005 158.173 108.336C158.717 108.667 159.127 109.115 159.405 109.68C159.682 110.245 159.821 110.88 159.821 111.584ZM156.237 108.96C155.533 108.96 154.962 109.168 154.525 109.584C154.098 110 153.837 110.587 153.741 111.344H158.589C158.503 110.597 158.258 110.016 157.853 109.6C157.447 109.173 156.909 108.96 156.237 108.96ZM164.974 116.16C164.206 116.16 163.512 116.011 162.894 115.712C162.275 115.403 161.822 114.949 161.534 114.352L162.574 113.632C162.755 114.101 163.07 114.453 163.518 114.688C163.966 114.923 164.494 115.04 165.102 115.04C165.731 115.04 166.211 114.928 166.542 114.704C166.872 114.48 167.038 114.197 167.038 113.856C167.038 113.547 166.883 113.301 166.574 113.12C166.264 112.928 165.72 112.763 164.942 112.624C164.174 112.485 163.566 112.32 163.118 112.128C162.67 111.925 162.344 111.675 162.142 111.376C161.939 111.067 161.838 110.688 161.838 110.24C161.838 109.803 161.966 109.403 162.222 109.04C162.478 108.677 162.846 108.389 163.326 108.176C163.806 107.952 164.36 107.84 164.99 107.84C165.843 107.84 166.526 108 167.038 108.32C167.56 108.629 167.934 109.109 168.158 109.76L167.07 110.4C166.899 109.888 166.638 109.52 166.286 109.296C165.944 109.072 165.512 108.96 164.99 108.96C164.467 108.96 164.024 109.077 163.662 109.312C163.299 109.547 163.118 109.819 163.118 110.128C163.118 110.48 163.272 110.752 163.582 110.944C163.902 111.136 164.467 111.301 165.278 111.44C166.387 111.621 167.171 111.893 167.63 112.256C168.088 112.619 168.318 113.131 168.318 113.792C168.318 114.251 168.179 114.661 167.902 115.024C167.635 115.376 167.246 115.653 166.734 115.856C166.232 116.059 165.646 116.16 164.974 116.16ZM180.032 107.84C180.939 107.84 181.686 108.101 182.272 108.624C182.859 109.147 183.152 109.899 183.152 110.88V116H181.872V111.328C181.872 110.496 181.691 109.893 181.328 109.52C180.976 109.147 180.502 108.96 179.904 108.96C179.488 108.96 179.088 109.056 178.704 109.248C178.331 109.44 178.022 109.749 177.776 110.176C177.542 110.592 177.424 111.12 177.424 111.76V116H176.144V104.32H177.424V109.2C177.691 108.741 178.048 108.4 178.496 108.176C178.955 107.952 179.467 107.84 180.032 107.84ZM192.915 111.584C192.915 111.883 192.893 112.181 192.851 112.48H186.819C186.893 113.291 187.16 113.92 187.619 114.368C188.088 114.816 188.691 115.04 189.427 115.04C190.013 115.04 190.499 114.939 190.883 114.736C191.277 114.533 191.544 114.24 191.683 113.856L192.755 114.416C192.435 114.981 192.008 115.413 191.475 115.712C190.941 116.011 190.259 116.16 189.427 116.16C188.221 116.16 187.272 115.792 186.579 115.056C185.896 114.32 185.555 113.301 185.555 112C185.555 110.699 185.88 109.68 186.531 108.944C187.192 108.208 188.125 107.84 189.331 107.84C190.077 107.84 190.723 108.005 191.267 108.336C191.811 108.667 192.221 109.115 192.499 109.68C192.776 110.245 192.915 110.88 192.915 111.584ZM189.331 108.96C188.627 108.96 188.056 109.168 187.619 109.584C187.192 110 186.931 110.587 186.835 111.344H191.683C191.597 110.597 191.352 110.016 190.947 109.6C190.541 109.173 190.003 108.96 189.331 108.96ZM201.907 115.072C202.121 115.072 202.334 115.045 202.547 114.992L202.467 116C202.169 116.107 201.849 116.16 201.507 116.16C201.091 116.16 200.761 116.069 200.515 115.888C200.281 115.707 200.131 115.403 200.067 114.976C199.822 115.349 199.459 115.643 198.979 115.856C198.51 116.059 198.014 116.16 197.491 116.16C196.702 116.16 196.051 115.979 195.539 115.616C195.027 115.243 194.771 114.709 194.771 114.016C194.771 113.408 195.038 112.885 195.571 112.448C196.105 112 196.878 111.691 197.891 111.52L200.019 111.168V110.72C200.019 110.187 199.854 109.76 199.523 109.44C199.193 109.12 198.734 108.96 198.147 108.96C197.614 108.96 197.15 109.088 196.755 109.344C196.371 109.6 196.073 109.979 195.859 110.48L194.915 109.792C195.129 109.195 195.523 108.72 196.099 108.368C196.686 108.016 197.369 107.84 198.147 107.84C199.097 107.84 199.859 108.069 200.435 108.528C201.011 108.987 201.299 109.664 201.299 110.56V114.496C201.299 114.688 201.347 114.832 201.443 114.928C201.539 115.024 201.694 115.072 201.907 115.072ZM197.555 115.04C198.227 115.04 198.803 114.88 199.283 114.56C199.774 114.24 200.019 113.824 200.019 113.312V112.208L198.227 112.544C197.513 112.672 196.979 112.859 196.627 113.104C196.275 113.339 196.099 113.643 196.099 114.016C196.099 114.347 196.227 114.603 196.483 114.784C196.739 114.955 197.097 115.04 197.555 115.04ZM205.626 113.856C205.626 114.261 205.685 114.544 205.802 114.704C205.93 114.853 206.159 114.928 206.49 114.928C206.714 114.928 206.906 114.912 207.066 114.88C207.237 114.848 207.434 114.789 207.658 114.704L207.45 115.936C207.098 116.085 206.703 116.16 206.266 116.16C205.615 116.16 205.13 115.984 204.81 115.632C204.501 115.28 204.346 114.741 204.346 114.016V104.32H205.626V113.856ZM213.884 115.44C213.351 115.92 212.663 116.16 211.82 116.16C211.169 116.16 210.636 115.984 210.22 115.632C209.815 115.28 209.607 114.741 209.596 114.016V109.104H207.996V108H209.596V106.08L210.876 105.728V108H213.836V109.104H210.876V113.792C210.876 114.176 210.983 114.469 211.196 114.672C211.42 114.864 211.713 114.96 212.076 114.96C212.588 114.96 213.041 114.763 213.436 114.368L213.884 115.44ZM219.579 107.84C220.486 107.84 221.232 108.101 221.819 108.624C222.406 109.147 222.699 109.899 222.699 110.88V116H221.419V111.328C221.419 110.496 221.238 109.893 220.875 109.52C220.523 109.147 220.048 108.96 219.451 108.96C219.035 108.96 218.635 109.056 218.251 109.248C217.878 109.44 217.568 109.749 217.323 110.176C217.088 110.592 216.971 111.12 216.971 111.76V116H215.691V104.32H216.971V109.2C217.238 108.741 217.595 108.4 218.043 108.176C218.502 107.952 219.014 107.84 219.579 107.84ZM228.419 117.344C228.109 118.112 227.763 118.651 227.379 118.96C226.995 119.28 226.499 119.44 225.891 119.44C225.485 119.44 225.144 119.387 224.867 119.28C224.6 119.173 224.355 119.003 224.131 118.768L224.579 117.68C224.888 118.107 225.32 118.32 225.875 118.32C226.184 118.32 226.456 118.224 226.691 118.032C226.936 117.851 227.149 117.515 227.331 117.024L227.747 115.984L224.403 108H225.859L227.859 113.216L228.355 114.64L228.931 113.056L230.803 108H232.179L228.419 117.344ZM240.595 108H243.267V109.104H240.595V116H239.315V109.104H237.715V108H239.315V106.656C239.315 105.92 239.539 105.333 239.987 104.896C240.435 104.459 241.086 104.24 241.939 104.24C242.227 104.24 242.488 104.272 242.723 104.336C242.968 104.4 243.16 104.491 243.299 104.608L242.963 105.648C242.707 105.488 242.403 105.408 242.051 105.408C241.08 105.408 240.595 105.867 240.595 106.784V108ZM248.13 107.84C249.335 107.84 250.279 108.208 250.962 108.944C251.655 109.68 252.002 110.699 252.002 112C252.002 113.301 251.655 114.32 250.962 115.056C250.279 115.792 249.335 116.16 248.13 116.16C246.924 116.16 245.975 115.792 245.282 115.056C244.599 114.32 244.258 113.301 244.258 112C244.258 110.699 244.599 109.68 245.282 108.944C245.975 108.208 246.924 107.84 248.13 107.84ZM248.13 108.944C247.319 108.944 246.684 109.216 246.226 109.76C245.767 110.304 245.538 111.051 245.538 112C245.538 112.949 245.767 113.696 246.226 114.24C246.684 114.784 247.319 115.056 248.13 115.056C248.94 115.056 249.575 114.784 250.034 114.24C250.492 113.696 250.722 112.949 250.722 112C250.722 111.051 250.492 110.304 250.034 109.76C249.575 109.216 248.94 108.944 248.13 108.944ZM257.864 107.84C259.069 107.84 260.013 108.208 260.696 108.944C261.389 109.68 261.736 110.699 261.736 112C261.736 113.301 261.389 114.32 260.696 115.056C260.013 115.792 259.069 116.16 257.864 116.16C256.659 116.16 255.709 115.792 255.016 115.056C254.333 114.32 253.992 113.301 253.992 112C253.992 110.699 254.333 109.68 255.016 108.944C255.709 108.208 256.659 107.84 257.864 107.84ZM257.864 108.944C257.053 108.944 256.419 109.216 255.96 109.76C255.501 110.304 255.272 111.051 255.272 112C255.272 112.949 255.501 113.696 255.96 114.24C256.419 114.784 257.053 115.056 257.864 115.056C258.675 115.056 259.309 114.784 259.768 114.24C260.227 113.696 260.456 112.949 260.456 112C260.456 111.051 260.227 110.304 259.768 109.76C259.309 109.216 258.675 108.944 257.864 108.944ZM271.326 104.32V116H270.206L270.126 114.608C269.892 115.077 269.529 115.456 269.038 115.744C268.558 116.021 268.009 116.16 267.39 116.16C266.27 116.16 265.38 115.792 264.718 115.056C264.068 114.309 263.742 113.291 263.742 112C263.742 110.709 264.068 109.696 264.718 108.96C265.38 108.213 266.27 107.84 267.39 107.84C267.977 107.84 268.5 107.968 268.958 108.224C269.428 108.48 269.79 108.821 270.046 109.248V104.32H271.326ZM267.534 115.04C268.302 115.04 268.91 114.773 269.358 114.24C269.817 113.707 270.046 112.992 270.046 112.096V111.904C270.046 111.008 269.817 110.293 269.358 109.76C268.91 109.227 268.302 108.96 267.534 108.96C266.756 108.96 266.142 109.237 265.694 109.792C265.246 110.336 265.022 111.072 265.022 112C265.022 112.928 265.246 113.669 265.694 114.224C266.142 114.768 266.756 115.04 267.534 115.04ZM277.021 116.16C276.253 116.16 275.559 116.011 274.941 115.712C274.322 115.403 273.869 114.949 273.581 114.352L274.621 113.632C274.802 114.101 275.117 114.453 275.565 114.688C276.013 114.923 276.541 115.04 277.149 115.04C277.778 115.04 278.258 114.928 278.589 114.704C278.919 114.48 279.085 114.197 279.085 113.856C279.085 113.547 278.93 113.301 278.621 113.12C278.311 112.928 277.767 112.763 276.989 112.624C276.221 112.485 275.613 112.32 275.164 112.128C274.717 111.925 274.391 111.675 274.189 111.376C273.986 111.067 273.885 110.688 273.885 110.24C273.885 109.803 274.013 109.403 274.269 109.04C274.525 108.677 274.893 108.389 275.373 108.176C275.853 107.952 276.407 107.84 277.036 107.84C277.89 107.84 278.573 108 279.085 108.32C279.607 108.629 279.981 109.109 280.205 109.76L279.117 110.4C278.946 109.888 278.685 109.52 278.333 109.296C277.991 109.072 277.559 108.96 277.036 108.96C276.514 108.96 276.071 109.077 275.709 109.312C275.346 109.547 275.164 109.819 275.164 110.128C275.164 110.48 275.319 110.752 275.629 110.944C275.949 111.136 276.514 111.301 277.325 111.44C278.434 111.621 279.218 111.893 279.677 112.256C280.135 112.619 280.365 113.131 280.365 113.792C280.365 114.251 280.226 114.661 279.949 115.024C279.682 115.376 279.293 115.653 278.781 115.856C278.279 116.059 277.693 116.16 277.021 116.16ZM283.378 114.08C283.687 114.08 283.938 114.176 284.13 114.368C284.322 114.56 284.418 114.811 284.418 115.12C284.418 115.429 284.322 115.68 284.13 115.872C283.938 116.064 283.687 116.16 283.378 116.16C283.069 116.16 282.818 116.064 282.626 115.872C282.434 115.68 282.338 115.429 282.338 115.12C282.338 114.811 282.434 114.56 282.626 114.368C282.818 114.176 283.069 114.08 283.378 114.08Z" fill="#333333"/>
<path d="M121.406 49.4C120.766 51.2987 119.667 52.76 118.11 53.784C116.574 54.808 114.76 55.32 112.67 55.32C110.643 55.32 108.883 54.8827 107.39 54.008C105.896 53.1333 104.744 51.8747 103.934 50.232C103.123 48.5893 102.718 46.6587 102.718 44.44C102.718 42.2213 103.123 40.2907 103.934 38.648C104.744 37.0053 105.896 35.7467 107.39 34.872C108.883 33.9973 110.632 33.56 112.638 33.56C114.75 33.56 116.52 33.9973 117.95 34.872C119.4 35.7467 120.446 37.0373 121.086 38.744L117.854 40.184C117.427 38.9253 116.808 38.008 115.998 37.432C115.187 36.8347 114.131 36.536 112.83 36.536C110.846 36.536 109.256 37.24 108.062 38.648C106.888 40.0347 106.302 41.9653 106.302 44.44C106.302 46.936 106.867 48.8773 107.998 50.264C109.128 51.6507 110.696 52.344 112.702 52.344C114.067 52.344 115.208 52.0027 116.126 51.32C117.064 50.6373 117.736 49.6347 118.142 48.312L121.406 49.4ZM132.337 38.68C134.833 38.68 136.785 39.416 138.193 40.888C139.601 42.36 140.305 44.3973 140.305 47C140.305 49.6027 139.601 51.64 138.193 53.112C136.785 54.584 134.833 55.32 132.337 55.32C129.841 55.32 127.889 54.584 126.481 53.112C125.073 51.64 124.369 49.6027 124.369 47C124.369 44.3973 125.073 42.36 126.481 40.888C127.889 39.416 129.841 38.68 132.337 38.68ZM132.337 41.368C130.886 41.368 129.766 41.8587 128.977 42.84C128.209 43.8 127.825 45.1867 127.825 47C127.825 48.8133 128.209 50.2107 128.977 51.192C129.766 52.152 130.886 52.632 132.337 52.632C133.787 52.632 134.907 52.1413 135.697 51.16C136.486 50.1787 136.881 48.792 136.881 47C136.881 45.208 136.486 43.8213 135.697 42.84C134.907 41.8587 133.787 41.368 132.337 41.368ZM153.311 38.68C155.082 38.68 156.522 39.192 157.631 40.216C158.762 41.24 159.327 42.712 159.327 44.632V55H155.903V45.72C155.903 42.904 154.762 41.496 152.479 41.496C151.284 41.496 150.26 41.912 149.407 42.744C148.554 43.5547 148.127 44.8133 148.127 46.52V55H144.703V39H147.743L147.903 41.656C148.436 40.6533 149.172 39.9067 150.111 39.416C151.05 38.9253 152.116 38.68 153.311 38.68ZM168.872 39H174.056V41.688H168.968V55H165.544V41.688H162.536V39H165.544V36.696C165.544 35.0747 166.035 33.816 167.016 32.92C167.997 32.024 169.373 31.576 171.144 31.576C171.784 31.576 172.371 31.6507 172.904 31.8C173.437 31.928 173.853 32.1093 174.152 32.344L173.512 34.84C173.021 34.52 172.413 34.36 171.688 34.36C169.811 34.36 168.872 35.224 168.872 36.952V39ZM191.636 39V55H188.596L188.468 52.408C187.38 54.3493 185.482 55.32 182.772 55.32C181.044 55.32 179.647 54.8507 178.58 53.912C177.535 52.952 177.012 51.4907 177.012 49.528V39H180.436V48.632C180.436 50.04 180.714 51.0427 181.268 51.64C181.823 52.216 182.644 52.504 183.732 52.504C185.034 52.504 186.1 52.0987 186.932 51.288C187.786 50.456 188.212 49.24 188.212 47.64V39H191.636ZM202.745 55.32C201.124 55.32 199.684 55.0427 198.425 54.488C197.188 53.9333 196.249 53.0907 195.609 51.96L197.913 49.976C198.318 50.8933 198.948 51.5653 199.801 51.992C200.654 52.4187 201.678 52.632 202.873 52.632C203.961 52.632 204.804 52.4613 205.401 52.12C205.998 51.7573 206.297 51.288 206.297 50.712C206.297 50.2 206.02 49.7947 205.465 49.496C204.91 49.176 203.95 48.8773 202.585 48.6C200.217 48.152 198.553 47.5547 197.593 46.808C196.633 46.0613 196.153 45.0053 196.153 43.64C196.153 42.7653 196.42 41.9547 196.953 41.208C197.486 40.44 198.254 39.832 199.257 39.384C200.281 38.9147 201.486 38.68 202.873 38.68C204.644 38.68 206.062 38.9787 207.129 39.576C208.196 40.152 209.017 41.0587 209.593 42.296L207.161 44.088C206.777 43.1493 206.233 42.4667 205.529 42.04C204.846 41.592 203.972 41.368 202.905 41.368C201.945 41.368 201.145 41.5707 200.505 41.976C199.886 42.36 199.577 42.808 199.577 43.32C199.577 43.896 199.854 44.3547 200.409 44.696C200.985 45.0373 202.02 45.3467 203.513 45.624C205.774 46.0293 207.374 46.6053 208.313 47.352C209.252 48.0987 209.721 49.144 209.721 50.488C209.721 51.9173 209.102 53.08 207.865 53.976C206.628 54.872 204.921 55.32 202.745 55.32ZM215.618 36.312C214.893 36.312 214.328 36.1307 213.922 35.768C213.517 35.384 213.314 34.8507 213.314 34.168C213.314 33.4853 213.517 32.9627 213.922 32.6C214.328 32.2373 214.893 32.056 215.618 32.056C216.344 32.056 216.898 32.2373 217.282 32.6C217.688 32.9627 217.89 33.4853 217.89 34.168C217.89 34.8507 217.688 35.384 217.282 35.768C216.898 36.1307 216.344 36.312 215.618 36.312ZM217.314 55H213.89V39H217.314V55ZM229.712 38.68C232.208 38.68 234.16 39.416 235.568 40.888C236.976 42.36 237.68 44.3973 237.68 47C237.68 49.6027 236.976 51.64 235.568 53.112C234.16 54.584 232.208 55.32 229.712 55.32C227.216 55.32 225.264 54.584 223.856 53.112C222.448 51.64 221.744 49.6027 221.744 47C221.744 44.3973 222.448 42.36 223.856 40.888C225.264 39.416 227.216 38.68 229.712 38.68ZM229.712 41.368C228.261 41.368 227.141 41.8587 226.352 42.84C225.584 43.8 225.2 45.1867 225.2 47C225.2 48.8133 225.584 50.2107 226.352 51.192C227.141 52.152 228.261 52.632 229.712 52.632C231.162 52.632 232.282 52.1413 233.072 51.16C233.861 50.1787 234.256 48.792 234.256 47C234.256 45.208 233.861 43.8213 233.072 42.84C232.282 41.8587 231.162 41.368 229.712 41.368ZM250.686 38.68C252.457 38.68 253.897 39.192 255.006 40.216C256.137 41.24 256.702 42.712 256.702 44.632V55H253.278V45.72C253.278 42.904 252.137 41.496 249.854 41.496C248.659 41.496 247.635 41.912 246.782 42.744C245.929 43.5547 245.502 44.8133 245.502 46.52V55H242.078V39H245.118L245.278 41.656C245.811 40.6533 246.547 39.9067 247.486 39.416C248.425 38.9253 249.491 38.68 250.686 38.68Z" fill="#4F4F4F"/>
</svg>
