<svg width="360" height="144" viewBox="0 0 360 144" fill="none" xmlns="http://www.w3.org/2000/svg">
<path d="M0 0H360V72V144H0V72V0Z" fill="white"/>
<path d="M77.5716 93.8V95H70.2436V84.44H71.5236V93.8H77.5716ZM82.7078 86.84C83.9131 86.84 84.8571 87.208 85.5398 87.944C86.2331 88.68 86.5798 89.6987 86.5798 91C86.5798 92.3013 86.2331 93.32 85.5398 94.056C84.8571 94.792 83.9131 95.16 82.7078 95.16C81.5024 95.16 80.5531 94.792 79.8598 94.056C79.1771 93.32 78.8358 92.3013 78.8358 91C78.8358 89.6987 79.1771 88.68 79.8598 87.944C80.5531 87.208 81.5024 86.84 82.7078 86.84ZM82.7078 87.944C81.8971 87.944 81.2624 88.216 80.8038 88.76C80.3451 89.304 80.1158 90.0507 80.1158 91C80.1158 91.9493 80.3451 92.696 80.8038 93.24C81.2624 93.784 81.8971 94.056 82.7078 94.056C83.5184 94.056 84.1531 93.784 84.6118 93.24C85.0704 92.696 85.2998 91.9493 85.2998 91C85.2998 90.0507 85.0704 89.304 84.6118 88.76C84.1531 88.216 83.5184 87.944 82.7078 87.944ZM100.432 87L97.6481 95H96.3681L94.1121 88.632L91.9841 95H90.7041L87.9201 87H89.3441L91.3601 93.512L93.5361 87H94.8161L96.9921 93.512L99.0081 87H100.432ZM110.989 86.84C111.789 86.84 112.461 87.0267 113.005 87.4C113.56 87.7627 113.992 88.2853 114.301 88.968L113.085 89.544C112.744 88.488 112.034 87.96 110.957 87.96C110.157 87.96 109.528 88.232 109.069 88.776C108.621 89.3093 108.397 90.0507 108.397 91C108.397 91.9493 108.621 92.696 109.069 93.24C109.528 93.7733 110.157 94.04 110.957 94.04C111.576 94.04 112.072 93.9013 112.445 93.624C112.829 93.336 113.08 92.9253 113.197 92.392L114.381 92.808C114.104 93.5547 113.677 94.136 113.101 94.552C112.525 94.9573 111.821 95.16 110.989 95.16C109.784 95.16 108.834 94.792 108.141 94.056C107.458 93.32 107.117 92.3013 107.117 91C107.117 89.6987 107.458 88.68 108.141 87.944C108.834 87.208 109.784 86.84 110.989 86.84ZM120.02 86.84C121.226 86.84 122.17 87.208 122.852 87.944C123.546 88.68 123.892 89.6987 123.892 91C123.892 92.3013 123.546 93.32 122.852 94.056C122.17 94.792 121.226 95.16 120.02 95.16C118.815 95.16 117.866 94.792 117.172 94.056C116.49 93.32 116.148 92.3013 116.148 91C116.148 89.6987 116.49 88.68 117.172 87.944C117.866 87.208 118.815 86.84 120.02 86.84ZM120.02 87.944C119.21 87.944 118.575 88.216 118.116 88.76C117.658 89.304 117.428 90.0507 117.428 91C117.428 91.9493 117.658 92.696 118.116 93.24C118.575 93.784 119.21 94.056 120.02 94.056C120.831 94.056 121.466 93.784 121.924 93.24C122.383 92.696 122.612 91.9493 122.612 91C122.612 90.0507 122.383 89.304 121.924 88.76C121.466 88.216 120.831 87.944 120.02 87.944ZM130.267 86.84C131.173 86.84 131.92 87.1013 132.507 87.624C133.093 88.1467 133.387 88.8987 133.387 89.88V95H132.107V90.328C132.107 89.496 131.925 88.8933 131.563 88.52C131.211 88.1467 130.736 87.96 130.139 87.96C129.712 87.96 129.312 88.056 128.939 88.248C128.565 88.4293 128.256 88.7333 128.011 89.16C127.776 89.576 127.659 90.104 127.659 90.744V95H126.379V87H127.499L127.579 88.248C127.845 87.768 128.213 87.416 128.683 87.192C129.152 86.9573 129.68 86.84 130.267 86.84ZM138.08 87H140.752V88.104H138.08V95H136.799V88.104H135.2V87H136.799V85.656C136.799 84.92 137.024 84.3333 137.472 83.896C137.92 83.4587 138.57 83.24 139.424 83.24C139.712 83.24 139.973 83.272 140.208 83.336C140.453 83.4 140.645 83.4907 140.784 83.608L140.448 84.648C140.192 84.488 139.888 84.408 139.536 84.408C138.565 84.408 138.08 84.8667 138.08 85.784V87ZM143.104 85.464C142.816 85.464 142.581 85.3787 142.4 85.208C142.229 85.0267 142.144 84.792 142.144 84.504C142.144 84.216 142.229 83.9867 142.4 83.816C142.581 83.6347 142.816 83.544 143.104 83.544C143.392 83.544 143.621 83.6347 143.792 83.816C143.973 83.9867 144.064 84.216 144.064 84.504C144.064 84.792 143.973 85.0267 143.792 85.208C143.621 85.3787 143.392 85.464 143.104 85.464ZM143.744 95H142.464V87H143.744V95ZM153.826 83.32V95H152.706L152.626 93.608C152.392 94.0773 152.029 94.456 151.538 94.744C151.058 95.0213 150.509 95.16 149.89 95.16C148.77 95.16 147.88 94.792 147.218 94.056C146.568 93.3093 146.242 92.2907 146.242 91C146.242 89.7093 146.568 88.696 147.218 87.96C147.88 87.2133 148.77 86.84 149.89 86.84C150.477 86.84 151 86.968 151.458 87.224C151.928 87.48 152.29 87.8213 152.546 88.248V83.32H153.826ZM150.034 94.04C150.802 94.04 151.41 93.7733 151.858 93.24C152.317 92.7067 152.546 91.992 152.546 91.096V90.904C152.546 90.008 152.317 89.2933 151.858 88.76C151.41 88.2267 150.802 87.96 150.034 87.96C149.256 87.96 148.642 88.2373 148.194 88.792C147.746 89.336 147.522 90.072 147.522 91C147.522 91.928 147.746 92.6693 148.194 93.224C148.642 93.768 149.256 94.04 150.034 94.04ZM163.665 90.584C163.665 90.8827 163.643 91.1813 163.601 91.48H157.569C157.643 92.2907 157.91 92.92 158.369 93.368C158.838 93.816 159.441 94.04 160.177 94.04C160.763 94.04 161.249 93.9387 161.633 93.736C162.027 93.5333 162.294 93.24 162.433 92.856L163.505 93.416C163.185 93.9813 162.758 94.4133 162.225 94.712C161.691 95.0107 161.009 95.16 160.177 95.16C158.971 95.16 158.022 94.792 157.329 94.056C156.646 93.32 156.305 92.3013 156.305 91C156.305 89.6987 156.63 88.68 157.281 87.944C157.942 87.208 158.875 86.84 160.081 86.84C160.827 86.84 161.473 87.0053 162.017 87.336C162.561 87.6667 162.971 88.1147 163.249 88.68C163.526 89.2453 163.665 89.88 163.665 90.584ZM160.081 87.96C159.377 87.96 158.806 88.168 158.369 88.584C157.942 89 157.681 89.5867 157.585 90.344H162.433C162.347 89.5973 162.102 89.016 161.697 88.6C161.291 88.1733 160.753 87.96 160.081 87.96ZM169.985 86.84C170.892 86.84 171.639 87.1013 172.225 87.624C172.812 88.1467 173.105 88.8987 173.105 89.88V95H171.825V90.328C171.825 89.496 171.644 88.8933 171.281 88.52C170.929 88.1467 170.455 87.96 169.857 87.96C169.431 87.96 169.031 88.056 168.657 88.248C168.284 88.4293 167.975 88.7333 167.729 89.16C167.495 89.576 167.377 90.104 167.377 90.744V95H166.097V87H167.217L167.297 88.248C167.564 87.768 167.932 87.416 168.401 87.192C168.871 86.9573 169.399 86.84 169.985 86.84ZM179.38 86.84C180.18 86.84 180.852 87.0267 181.396 87.4C181.95 87.7627 182.382 88.2853 182.692 88.968L181.476 89.544C181.134 88.488 180.425 87.96 179.348 87.96C178.548 87.96 177.918 88.232 177.46 88.776C177.012 89.3093 176.788 90.0507 176.788 91C176.788 91.9493 177.012 92.696 177.46 93.24C177.918 93.7733 178.548 94.04 179.348 94.04C179.966 94.04 180.462 93.9013 180.836 93.624C181.22 93.336 181.47 92.9253 181.588 92.392L182.772 92.808C182.494 93.5547 182.068 94.136 181.492 94.552C180.916 94.9573 180.212 95.16 179.38 95.16C178.174 95.16 177.225 94.792 176.532 94.056C175.849 93.32 175.508 92.3013 175.508 91C175.508 89.6987 175.849 88.68 176.532 87.944C177.225 87.208 178.174 86.84 179.38 86.84ZM191.899 90.584C191.899 90.8827 191.878 91.1813 191.835 91.48H185.803C185.878 92.2907 186.144 92.92 186.603 93.368C187.072 93.816 187.675 94.04 188.411 94.04C188.998 94.04 189.483 93.9387 189.867 93.736C190.262 93.5333 190.528 93.24 190.667 92.856L191.739 93.416C191.419 93.9813 190.992 94.4133 190.459 94.712C189.926 95.0107 189.243 95.16 188.411 95.16C187.206 95.16 186.256 94.792 185.563 94.056C184.88 93.32 184.539 92.3013 184.539 91C184.539 89.6987 184.864 88.68 185.515 87.944C186.176 87.208 187.11 86.84 188.315 86.84C189.062 86.84 189.707 87.0053 190.251 87.336C190.795 87.6667 191.206 88.1147 191.483 88.68C191.76 89.2453 191.899 89.88 191.899 90.584ZM188.315 87.96C187.611 87.96 187.04 88.168 186.603 88.584C186.176 89 185.915 89.5867 185.819 90.344H190.667C190.582 89.5973 190.336 89.016 189.931 88.6C189.526 88.1733 188.987 87.96 188.315 87.96ZM200.425 85.464C200.137 85.464 199.902 85.3787 199.721 85.208C199.55 85.0267 199.465 84.792 199.465 84.504C199.465 84.216 199.55 83.9867 199.721 83.816C199.902 83.6347 200.137 83.544 200.425 83.544C200.713 83.544 200.942 83.6347 201.113 83.816C201.294 83.9867 201.385 84.216 201.385 84.504C201.385 84.792 201.294 85.0267 201.113 85.208C200.942 85.3787 200.713 85.464 200.425 85.464ZM201.065 95H199.785V87H201.065V95ZM207.923 86.84C208.83 86.84 209.576 87.1013 210.163 87.624C210.75 88.1467 211.043 88.8987 211.043 89.88V95H209.763V90.328C209.763 89.496 209.582 88.8933 209.219 88.52C208.867 88.1467 208.392 87.96 207.795 87.96C207.368 87.96 206.968 88.056 206.595 88.248C206.222 88.4293 205.912 88.7333 205.667 89.16C205.432 89.576 205.315 90.104 205.315 90.744V95H204.035V87H205.155L205.235 88.248C205.502 87.768 205.87 87.416 206.339 87.192C206.808 86.9573 207.336 86.84 207.923 86.84ZM225.954 94.072C226.168 94.072 226.381 94.0453 226.594 93.992L226.514 95C226.216 95.1067 225.896 95.16 225.554 95.16C225.138 95.16 224.808 95.0693 224.562 94.888C224.328 94.7067 224.178 94.4027 224.114 93.976C223.869 94.3493 223.506 94.6427 223.026 94.856C222.557 95.0587 222.061 95.16 221.538 95.16C220.749 95.16 220.098 94.9787 219.586 94.616C219.074 94.2427 218.818 93.7093 218.818 93.016C218.818 92.408 219.085 91.8853 219.618 91.448C220.152 91 220.925 90.6907 221.938 90.52L224.066 90.168V89.72C224.066 89.1867 223.901 88.76 223.57 88.44C223.24 88.12 222.781 87.96 222.194 87.96C221.661 87.96 221.197 88.088 220.802 88.344C220.418 88.6 220.12 88.9787 219.906 89.48L218.962 88.792C219.176 88.1947 219.57 87.72 220.146 87.368C220.733 87.016 221.416 86.84 222.194 86.84C223.144 86.84 223.906 87.0693 224.482 87.528C225.058 87.9867 225.346 88.664 225.346 89.56V93.496C225.346 93.688 225.394 93.832 225.49 93.928C225.586 94.024 225.741 94.072 225.954 94.072ZM221.602 94.04C222.274 94.04 222.85 93.88 223.33 93.56C223.821 93.24 224.066 92.824 224.066 92.312V91.208L222.274 91.544C221.56 91.672 221.026 91.8587 220.674 92.104C220.322 92.3387 220.146 92.6427 220.146 93.016C220.146 93.3467 220.274 93.6027 220.53 93.784C220.786 93.9547 221.144 94.04 221.602 94.04ZM231.833 86.84C232.633 86.84 233.305 87.0267 233.849 87.4C234.403 87.7627 234.835 88.2853 235.145 88.968L233.929 89.544C233.587 88.488 232.878 87.96 231.801 87.96C231.001 87.96 230.371 88.232 229.913 88.776C229.465 89.3093 229.241 90.0507 229.241 91C229.241 91.9493 229.465 92.696 229.913 93.24C230.371 93.7733 231.001 94.04 231.801 94.04C232.419 94.04 232.915 93.9013 233.289 93.624C233.673 93.336 233.923 92.9253 234.041 92.392L235.225 92.808C234.947 93.5547 234.521 94.136 233.945 94.552C233.369 94.9573 232.665 95.16 231.833 95.16C230.627 95.16 229.678 94.792 228.985 94.056C228.302 93.32 227.961 92.3013 227.961 91C227.961 89.6987 228.302 88.68 228.985 87.944C229.678 87.208 230.627 86.84 231.833 86.84ZM241.376 86.84C242.283 86.84 243.029 87.1013 243.616 87.624C244.203 88.1467 244.496 88.8987 244.496 89.88V95H243.216V90.328C243.216 89.496 243.035 88.8933 242.672 88.52C242.32 88.1467 241.845 87.96 241.248 87.96C240.832 87.96 240.432 88.056 240.048 88.248C239.675 88.44 239.365 88.7493 239.12 89.176C238.885 89.592 238.768 90.12 238.768 90.76V95H237.488V83.32H238.768V88.2C239.035 87.7413 239.392 87.4 239.84 87.176C240.299 86.952 240.811 86.84 241.376 86.84ZM248.034 85.464C247.746 85.464 247.512 85.3787 247.33 85.208C247.16 85.0267 247.074 84.792 247.074 84.504C247.074 84.216 247.16 83.9867 247.33 83.816C247.512 83.6347 247.746 83.544 248.034 83.544C248.322 83.544 248.552 83.6347 248.722 83.816C248.904 83.9867 248.994 84.216 248.994 84.504C248.994 84.792 248.904 85.0267 248.722 85.208C248.552 85.3787 248.322 85.464 248.034 85.464ZM248.674 95H247.394V87H248.674V95ZM258.508 90.584C258.508 90.8827 258.487 91.1813 258.444 91.48H252.412C252.487 92.2907 252.754 92.92 253.212 93.368C253.682 93.816 254.284 94.04 255.02 94.04C255.607 94.04 256.092 93.9387 256.476 93.736C256.871 93.5333 257.138 93.24 257.276 92.856L258.348 93.416C258.028 93.9813 257.602 94.4133 257.068 94.712C256.535 95.0107 255.852 95.16 255.02 95.16C253.815 95.16 252.866 94.792 252.172 94.056C251.49 93.32 251.148 92.3013 251.148 91C251.148 89.6987 251.474 88.68 252.124 87.944C252.786 87.208 253.719 86.84 254.924 86.84C255.671 86.84 256.316 87.0053 256.86 87.336C257.404 87.6667 257.815 88.1147 258.092 88.68C258.37 89.2453 258.508 89.88 258.508 90.584ZM254.924 87.96C254.22 87.96 253.65 88.168 253.212 88.584C252.786 89 252.524 89.5867 252.428 90.344H257.276C257.191 89.5973 256.946 89.016 256.54 88.6C256.135 88.1733 255.596 87.96 254.924 87.96ZM267.362 87L264.034 95H262.754L259.426 87H260.882L263.41 93.704L266.018 87H267.362ZM269.675 85.464C269.387 85.464 269.152 85.3787 268.971 85.208C268.8 85.0267 268.715 84.792 268.715 84.504C268.715 84.216 268.8 83.9867 268.971 83.816C269.152 83.6347 269.387 83.544 269.675 83.544C269.963 83.544 270.192 83.6347 270.363 83.816C270.544 83.9867 270.635 84.216 270.635 84.504C270.635 84.792 270.544 85.0267 270.363 85.208C270.192 85.3787 269.963 85.464 269.675 85.464ZM270.315 95H269.035V87H270.315V95ZM277.173 86.84C278.08 86.84 278.826 87.1013 279.413 87.624C280 88.1467 280.293 88.8987 280.293 89.88V95H279.013V90.328C279.013 89.496 278.832 88.8933 278.469 88.52C278.117 88.1467 277.642 87.96 277.045 87.96C276.618 87.96 276.218 88.056 275.845 88.248C275.472 88.4293 275.162 88.7333 274.917 89.16C274.682 89.576 274.565 90.104 274.565 90.744V95H273.285V87H274.405L274.485 88.248C274.752 87.768 275.12 87.416 275.589 87.192C276.058 86.9573 276.586 86.84 277.173 86.84ZM287.655 93.976C288.412 93.976 289.004 94.1467 289.431 94.488C289.858 94.8293 290.071 95.2933 290.071 95.88C290.071 96.392 289.895 96.84 289.543 97.224C289.191 97.6187 288.711 97.9173 288.103 98.12C287.506 98.3333 286.844 98.44 286.119 98.44C284.903 98.44 283.986 98.2427 283.367 97.848C282.748 97.464 282.439 96.9573 282.439 96.328C282.439 95.9653 282.562 95.6453 282.807 95.368C283.063 95.0907 283.41 94.8933 283.847 94.776C283.516 94.616 283.25 94.4133 283.047 94.168C282.855 93.9227 282.759 93.6347 282.759 93.304C282.759 92.9093 282.866 92.584 283.079 92.328C283.292 92.0613 283.586 91.864 283.959 91.736C283.575 91.5013 283.282 91.1973 283.079 90.824C282.887 90.44 282.791 90.0133 282.791 89.544C282.791 89.0213 282.93 88.5573 283.207 88.152C283.484 87.736 283.874 87.416 284.375 87.192C284.876 86.9573 285.442 86.84 286.071 86.84C286.668 86.84 287.212 86.9467 287.703 87.16C288.002 86.072 288.754 85.528 289.959 85.528L290.247 86.648C289.202 86.648 288.567 86.9413 288.343 87.528C288.663 87.7733 288.908 88.0667 289.079 88.408C289.26 88.7493 289.351 89.128 289.351 89.544C289.351 90.0667 289.212 90.536 288.935 90.952C288.658 91.3573 288.268 91.6773 287.767 91.912C287.266 92.136 286.7 92.248 286.071 92.248C285.602 92.248 285.191 92.2 284.839 92.104C284.519 92.1787 284.29 92.296 284.151 92.456C284.012 92.616 283.943 92.8347 283.943 93.112C283.943 93.3893 284.039 93.6027 284.231 93.752C284.423 93.9013 284.679 93.976 284.999 93.976H287.655ZM286.071 87.88C285.516 87.88 285.052 88.0347 284.679 88.344C284.306 88.6533 284.119 89.0533 284.119 89.544C284.119 90.0347 284.306 90.4347 284.679 90.744C285.052 91.0533 285.516 91.208 286.071 91.208C286.626 91.208 287.09 91.0533 287.463 90.744C287.836 90.4347 288.023 90.0347 288.023 89.544C288.023 89.0533 287.836 88.6533 287.463 88.344C287.09 88.0347 286.626 87.88 286.071 87.88ZM286.263 97.368C287.074 97.368 287.714 97.2347 288.183 96.968C288.652 96.712 288.887 96.3973 288.887 96.024C288.887 95.7147 288.764 95.48 288.519 95.32C288.284 95.16 287.879 95.08 287.303 95.08H285.159C284.668 95.08 284.29 95.1653 284.023 95.336C283.756 95.5173 283.623 95.7627 283.623 96.072C283.623 96.4773 283.847 96.792 284.295 97.016C284.743 97.2507 285.399 97.368 286.263 97.368ZM31.0518 116.16C30.2838 116.16 29.5904 116.011 28.9718 115.712C28.3531 115.403 27.8998 114.949 27.6118 114.352L28.6518 113.632C28.8331 114.101 29.1478 114.453 29.5958 114.688C30.0438 114.923 30.5718 115.04 31.1798 115.04C31.8091 115.04 32.2891 114.928 32.6198 114.704C32.9504 114.48 33.1158 114.197 33.1158 113.856C33.1158 113.547 32.9611 113.301 32.6518 113.12C32.3424 112.928 31.7984 112.763 31.0198 112.624C30.2518 112.485 29.6438 112.32 29.1957 112.128C28.7478 111.925 28.4224 111.675 28.2198 111.376C28.0171 111.067 27.9158 110.688 27.9158 110.24C27.9158 109.803 28.0438 109.403 28.2998 109.04C28.5558 108.677 28.9238 108.389 29.4038 108.176C29.8838 107.952 30.4384 107.84 31.0677 107.84C31.9211 107.84 32.6038 108 33.1158 108.32C33.6384 108.629 34.0118 109.109 34.2358 109.76L33.1478 110.4C32.9771 109.888 32.7158 109.52 32.3638 109.296C32.0224 109.072 31.5904 108.96 31.0677 108.96C30.5451 108.96 30.1024 109.077 29.7398 109.312C29.3771 109.547 29.1957 109.819 29.1957 110.128C29.1957 110.48 29.3504 110.752 29.6598 110.944C29.9798 111.136 30.5451 111.301 31.3558 111.44C32.4651 111.621 33.2491 111.893 33.7078 112.256C34.1664 112.619 34.3958 113.131 34.3958 113.792C34.3958 114.251 34.2571 114.661 33.9798 115.024C33.7131 115.376 33.3238 115.653 32.8118 115.856C32.3104 116.059 31.7238 116.16 31.0518 116.16ZM43.6973 108V116H42.5773L42.4973 114.784C41.9639 115.701 41.0093 116.16 39.6333 116.16C38.7693 116.16 38.0599 115.92 37.5053 115.44C36.9613 114.96 36.6893 114.224 36.6893 113.232V108H37.9693V112.896C37.9693 113.675 38.1293 114.229 38.4493 114.56C38.7693 114.88 39.2386 115.04 39.8573 115.04C40.5933 115.04 41.2013 114.816 41.6813 114.368C42.1719 113.92 42.4173 113.248 42.4173 112.352V108H43.6973ZM50.0515 107.84C50.8515 107.84 51.5235 108.027 52.0675 108.4C52.6222 108.763 53.0542 109.285 53.3635 109.968L52.1475 110.544C51.8062 109.488 51.0968 108.96 50.0195 108.96C49.2195 108.96 48.5902 109.232 48.1315 109.776C47.6835 110.309 47.4595 111.051 47.4595 112C47.4595 112.949 47.6835 113.696 48.1315 114.24C48.5902 114.773 49.2195 115.04 50.0195 115.04C50.6382 115.04 51.1342 114.901 51.5075 114.624C51.8915 114.336 52.1422 113.925 52.2595 113.392L53.4435 113.808C53.1662 114.555 52.7395 115.136 52.1635 115.552C51.5875 115.957 50.8835 116.16 50.0515 116.16C48.8462 116.16 47.8968 115.792 47.2035 115.056C46.5208 114.32 46.1795 113.301 46.1795 112C46.1795 110.699 46.5208 109.68 47.2035 108.944C47.8968 108.208 48.8462 107.84 50.0515 107.84ZM59.0828 107.84C59.8828 107.84 60.5548 108.027 61.0988 108.4C61.6534 108.763 62.0854 109.285 62.3948 109.968L61.1788 110.544C60.8374 109.488 60.1281 108.96 59.0508 108.96C58.2508 108.96 57.6214 109.232 57.1628 109.776C56.7148 110.309 56.4908 111.051 56.4908 112C56.4908 112.949 56.7148 113.696 57.1628 114.24C57.6214 114.773 58.2508 115.04 59.0508 115.04C59.6694 115.04 60.1654 114.901 60.5388 114.624C60.9228 114.336 61.1734 113.925 61.2908 113.392L62.4748 113.808C62.1974 114.555 61.7708 115.136 61.1948 115.552C60.6188 115.957 59.9148 116.16 59.0828 116.16C57.8774 116.16 56.9281 115.792 56.2348 115.056C55.5521 114.32 55.2108 113.301 55.2108 112C55.2108 110.699 55.5521 109.68 56.2348 108.944C56.9281 108.208 57.8774 107.84 59.0828 107.84ZM71.602 111.584C71.602 111.883 71.5807 112.181 71.538 112.48H65.506C65.5807 113.291 65.8473 113.92 66.306 114.368C66.7753 114.816 67.378 115.04 68.114 115.04C68.7007 115.04 69.186 114.939 69.57 114.736C69.9647 114.533 70.2313 114.24 70.37 113.856L71.442 114.416C71.122 114.981 70.6953 115.413 70.162 115.712C69.6287 116.011 68.946 116.16 68.114 116.16C66.9087 116.16 65.9593 115.792 65.266 115.056C64.5833 114.32 64.242 113.301 64.242 112C64.242 110.699 64.5673 109.68 65.218 108.944C65.8793 108.208 66.8127 107.84 68.018 107.84C68.7647 107.84 69.41 108.005 69.954 108.336C70.498 108.667 70.9087 109.115 71.186 109.68C71.4633 110.245 71.602 110.88 71.602 111.584ZM68.018 108.96C67.314 108.96 66.7433 109.168 66.306 109.584C65.8793 110 65.618 110.587 65.522 111.344H70.37C70.2847 110.597 70.0393 110.016 69.634 109.6C69.2287 109.173 68.69 108.96 68.018 108.96ZM76.7549 116.16C75.9869 116.16 75.2935 116.011 74.6749 115.712C74.0562 115.403 73.6029 114.949 73.3149 114.352L74.3549 113.632C74.5362 114.101 74.8509 114.453 75.2989 114.688C75.7469 114.923 76.2749 115.04 76.8829 115.04C77.5122 115.04 77.9922 114.928 78.3229 114.704C78.6535 114.48 78.8189 114.197 78.8189 113.856C78.8189 113.547 78.6642 113.301 78.3549 113.12C78.0455 112.928 77.5015 112.763 76.7229 112.624C75.9549 112.485 75.3469 112.32 74.8989 112.128C74.4509 111.925 74.1255 111.675 73.9229 111.376C73.7202 111.067 73.6189 110.688 73.6189 110.24C73.6189 109.803 73.7469 109.403 74.0029 109.04C74.2589 108.677 74.6269 108.389 75.1069 108.176C75.5869 107.952 76.1415 107.84 76.7709 107.84C77.6242 107.84 78.3069 108 78.8189 108.32C79.3415 108.629 79.7149 109.109 79.9389 109.76L78.8509 110.4C78.6802 109.888 78.4189 109.52 78.0669 109.296C77.7255 109.072 77.2935 108.96 76.7709 108.96C76.2482 108.96 75.8055 109.077 75.4429 109.312C75.0802 109.547 74.8989 109.819 74.8989 110.128C74.8989 110.48 75.0535 110.752 75.3629 110.944C75.6829 111.136 76.2482 111.301 77.0589 111.44C78.1682 111.621 78.9522 111.893 79.4109 112.256C79.8695 112.619 80.0989 113.131 80.0989 113.792C80.0989 114.251 79.9602 114.661 79.6829 115.024C79.4162 115.376 79.0269 115.653 78.5149 115.856C78.0135 116.059 77.4269 116.16 76.7549 116.16ZM85.1924 116.16C84.4244 116.16 83.731 116.011 83.1124 115.712C82.4937 115.403 82.0404 114.949 81.7524 114.352L82.7924 113.632C82.9737 114.101 83.2884 114.453 83.7364 114.688C84.1844 114.923 84.7124 115.04 85.3204 115.04C85.9497 115.04 86.4297 114.928 86.7604 114.704C87.091 114.48 87.2564 114.197 87.2564 113.856C87.2564 113.547 87.1017 113.301 86.7924 113.12C86.483 112.928 85.939 112.763 85.1604 112.624C84.3924 112.485 83.7844 112.32 83.3364 112.128C82.8884 111.925 82.563 111.675 82.3604 111.376C82.1577 111.067 82.0564 110.688 82.0564 110.24C82.0564 109.803 82.1844 109.403 82.4404 109.04C82.6964 108.677 83.0644 108.389 83.5444 108.176C84.0244 107.952 84.579 107.84 85.2084 107.84C86.0617 107.84 86.7444 108 87.2564 108.32C87.779 108.629 88.1524 109.109 88.3764 109.76L87.2884 110.4C87.1177 109.888 86.8564 109.52 86.5044 109.296C86.163 109.072 85.731 108.96 85.2084 108.96C84.6857 108.96 84.243 109.077 83.8804 109.312C83.5177 109.547 83.3364 109.819 83.3364 110.128C83.3364 110.48 83.491 110.752 83.8004 110.944C84.1204 111.136 84.6857 111.301 85.4964 111.44C86.6057 111.621 87.3897 111.893 87.8484 112.256C88.307 112.619 88.5364 113.131 88.5364 113.792C88.5364 114.251 88.3977 114.661 88.1204 115.024C87.8537 115.376 87.4644 115.653 86.9524 115.856C86.451 116.059 85.8644 116.16 85.1924 116.16ZM92.8139 108H95.4859V109.104H92.8139V116H91.5339V109.104H89.9339V108H91.5339V106.656C91.5339 105.92 91.7579 105.333 92.2059 104.896C92.6539 104.459 93.3045 104.24 94.1579 104.24C94.4459 104.24 94.7072 104.272 94.9419 104.336C95.1872 104.4 95.3792 104.491 95.5179 104.608L95.1819 105.648C94.9259 105.488 94.6219 105.408 94.2699 105.408C93.2992 105.408 92.8139 105.867 92.8139 106.784V108ZM104.119 108V116H102.999L102.919 114.784C102.386 115.701 101.431 116.16 100.055 116.16C99.1911 116.16 98.4818 115.92 97.9271 115.44C97.3831 114.96 97.1111 114.224 97.1111 113.232V108H98.3911V112.896C98.3911 113.675 98.5511 114.229 98.8711 114.56C99.1911 114.88 99.6605 115.04 100.279 115.04C101.015 115.04 101.623 114.816 102.103 114.368C102.594 113.92 102.839 113.248 102.839 112.352V108H104.119ZM108.313 113.856C108.313 114.261 108.372 114.544 108.489 114.704C108.617 114.853 108.847 114.928 109.177 114.928C109.401 114.928 109.593 114.912 109.753 114.88C109.924 114.848 110.121 114.789 110.345 114.704L110.137 115.936C109.785 116.085 109.391 116.16 108.953 116.16C108.303 116.16 107.817 115.984 107.497 115.632C107.188 115.28 107.033 114.741 107.033 114.016V104.32H108.313V113.856ZM121.462 115.44C120.929 115.92 120.241 116.16 119.398 116.16C118.747 116.16 118.214 115.984 117.798 115.632C117.393 115.28 117.185 114.741 117.174 114.016V109.104H115.574V108H117.174V106.08L118.454 105.728V108H121.414V109.104H118.454V113.792C118.454 114.176 118.561 114.469 118.774 114.672C118.998 114.864 119.291 114.96 119.654 114.96C120.166 114.96 120.619 114.763 121.014 114.368L121.462 115.44ZM127.045 107.84C127.429 107.84 127.723 107.893 127.925 108L127.669 109.248C127.413 109.109 127.077 109.04 126.661 109.04C126.32 109.04 125.984 109.141 125.653 109.344C125.333 109.536 125.067 109.835 124.853 110.24C124.651 110.635 124.549 111.115 124.549 111.68V116H123.269V108H124.309L124.485 109.312C124.933 108.331 125.787 107.84 127.045 107.84ZM136.142 115.072C136.355 115.072 136.568 115.045 136.782 114.992L136.702 116C136.403 116.107 136.083 116.16 135.742 116.16C135.326 116.16 134.995 116.069 134.75 115.888C134.515 115.707 134.366 115.403 134.302 114.976C134.056 115.349 133.694 115.643 133.214 115.856C132.744 116.059 132.248 116.16 131.726 116.16C130.936 116.16 130.286 115.979 129.774 115.616C129.262 115.243 129.006 114.709 129.006 114.016C129.006 113.408 129.272 112.885 129.806 112.448C130.339 112 131.112 111.691 132.126 111.52L134.254 111.168V110.72C134.254 110.187 134.088 109.76 133.758 109.44C133.427 109.12 132.968 108.96 132.382 108.96C131.848 108.96 131.384 109.088 130.99 109.344C130.606 109.6 130.307 109.979 130.094 110.48L129.15 109.792C129.363 109.195 129.758 108.72 130.334 108.368C130.92 108.016 131.603 107.84 132.382 107.84C133.331 107.84 134.094 108.069 134.67 108.528C135.246 108.987 135.534 109.664 135.534 110.56V114.496C135.534 114.688 135.582 114.832 135.678 114.928C135.774 115.024 135.928 115.072 136.142 115.072ZM131.79 115.04C132.462 115.04 133.038 114.88 133.518 114.56C134.008 114.24 134.254 113.824 134.254 113.312V112.208L132.462 112.544C131.747 112.672 131.214 112.859 130.862 113.104C130.51 113.339 130.334 113.643 130.334 114.016C130.334 114.347 130.462 114.603 130.718 114.784C130.974 114.955 131.331 115.04 131.79 115.04ZM142.532 107.84C143.439 107.84 144.186 108.101 144.772 108.624C145.359 109.147 145.652 109.899 145.652 110.88V116H144.372V111.328C144.372 110.496 144.191 109.893 143.828 109.52C143.476 109.147 143.002 108.96 142.404 108.96C141.978 108.96 141.578 109.056 141.204 109.248C140.831 109.429 140.522 109.733 140.276 110.16C140.042 110.576 139.924 111.104 139.924 111.744V116H138.644V108H139.764L139.844 109.248C140.111 108.768 140.479 108.416 140.948 108.192C141.418 107.957 141.946 107.84 142.532 107.84ZM151.271 116.16C150.503 116.16 149.809 116.011 149.191 115.712C148.572 115.403 148.119 114.949 147.831 114.352L148.871 113.632C149.052 114.101 149.367 114.453 149.815 114.688C150.263 114.923 150.791 115.04 151.399 115.04C152.028 115.04 152.508 114.928 152.839 114.704C153.169 114.48 153.335 114.197 153.335 113.856C153.335 113.547 153.18 113.301 152.871 113.12C152.561 112.928 152.017 112.763 151.239 112.624C150.471 112.485 149.863 112.32 149.414 112.128C148.967 111.925 148.641 111.675 148.439 111.376C148.236 111.067 148.135 110.688 148.135 110.24C148.135 109.803 148.263 109.403 148.519 109.04C148.775 108.677 149.143 108.389 149.623 108.176C150.103 107.952 150.657 107.84 151.286 107.84C152.14 107.84 152.823 108 153.335 108.32C153.857 108.629 154.231 109.109 154.455 109.76L153.367 110.4C153.196 109.888 152.935 109.52 152.583 109.296C152.241 109.072 151.809 108.96 151.286 108.96C150.764 108.96 150.321 109.077 149.959 109.312C149.596 109.547 149.414 109.819 149.414 110.128C149.414 110.48 149.569 110.752 149.879 110.944C150.199 111.136 150.764 111.301 151.575 111.44C152.684 111.621 153.468 111.893 153.927 112.256C154.385 112.619 154.615 113.131 154.615 113.792C154.615 114.251 154.476 114.661 154.199 115.024C153.932 115.376 153.543 115.653 153.031 115.856C152.529 116.059 151.943 116.16 151.271 116.16ZM157.628 106.464C157.34 106.464 157.105 106.379 156.924 106.208C156.753 106.027 156.668 105.792 156.668 105.504C156.668 105.216 156.753 104.987 156.924 104.816C157.105 104.635 157.34 104.544 157.628 104.544C157.916 104.544 158.145 104.635 158.316 104.816C158.497 104.987 158.588 105.216 158.588 105.504C158.588 105.792 158.497 106.027 158.316 106.208C158.145 106.379 157.916 106.464 157.628 106.464ZM158.268 116H156.988V108H158.268V116ZM166.134 115.44C165.601 115.92 164.913 116.16 164.07 116.16C163.419 116.16 162.886 115.984 162.47 115.632C162.065 115.28 161.857 114.741 161.846 114.016V109.104H160.246V108H161.846V106.08L163.126 105.728V108H166.086V109.104H163.126V113.792C163.126 114.176 163.233 114.469 163.446 114.672C163.67 114.864 163.963 114.96 164.326 114.96C164.838 114.96 165.291 114.763 165.686 114.368L166.134 115.44ZM168.581 106.464C168.293 106.464 168.058 106.379 167.877 106.208C167.706 106.027 167.621 105.792 167.621 105.504C167.621 105.216 167.706 104.987 167.877 104.816C168.058 104.635 168.293 104.544 168.581 104.544C168.869 104.544 169.098 104.635 169.269 104.816C169.45 104.987 169.541 105.216 169.541 105.504C169.541 105.792 169.45 106.027 169.269 106.208C169.098 106.379 168.869 106.464 168.581 106.464ZM169.221 116H167.941V108H169.221V116ZM175.567 107.84C176.772 107.84 177.716 108.208 178.399 108.944C179.092 109.68 179.439 110.699 179.439 112C179.439 113.301 179.092 114.32 178.399 115.056C177.716 115.792 176.772 116.16 175.567 116.16C174.362 116.16 173.412 115.792 172.719 115.056C172.036 114.32 171.695 113.301 171.695 112C171.695 110.699 172.036 109.68 172.719 108.944C173.412 108.208 174.362 107.84 175.567 107.84ZM175.567 108.944C174.756 108.944 174.122 109.216 173.663 109.76C173.204 110.304 172.975 111.051 172.975 112C172.975 112.949 173.204 113.696 173.663 114.24C174.122 114.784 174.756 115.056 175.567 115.056C176.378 115.056 177.012 114.784 177.471 114.24C177.93 113.696 178.159 112.949 178.159 112C178.159 111.051 177.93 110.304 177.471 109.76C177.012 109.216 176.378 108.944 175.567 108.944ZM185.814 107.84C186.72 107.84 187.467 108.101 188.054 108.624C188.64 109.147 188.934 109.899 188.934 110.88V116H187.654V111.328C187.654 110.496 187.472 109.893 187.11 109.52C186.758 109.147 186.283 108.96 185.686 108.96C185.259 108.96 184.859 109.056 184.486 109.248C184.112 109.429 183.803 109.733 183.558 110.16C183.323 110.576 183.206 111.104 183.206 111.744V116H181.926V108H183.046L183.126 109.248C183.392 108.768 183.76 108.416 184.23 108.192C184.699 107.957 185.227 107.84 185.814 107.84ZM201.868 115.44C201.335 115.92 200.647 116.16 199.804 116.16C199.154 116.16 198.62 115.984 198.204 115.632C197.799 115.28 197.591 114.741 197.58 114.016V109.104H195.98V108H197.58V106.08L198.86 105.728V108H201.82V109.104H198.86V113.792C198.86 114.176 198.967 114.469 199.18 114.672C199.404 114.864 199.698 114.96 200.06 114.96C200.572 114.96 201.026 114.763 201.42 114.368L201.868 115.44ZM207.052 107.84C208.257 107.84 209.201 108.208 209.884 108.944C210.577 109.68 210.924 110.699 210.924 112C210.924 113.301 210.577 114.32 209.884 115.056C209.201 115.792 208.257 116.16 207.052 116.16C205.846 116.16 204.897 115.792 204.204 115.056C203.521 114.32 203.18 113.301 203.18 112C203.18 110.699 203.521 109.68 204.204 108.944C204.897 108.208 205.846 107.84 207.052 107.84ZM207.052 108.944C206.241 108.944 205.606 109.216 205.148 109.76C204.689 110.304 204.46 111.051 204.46 112C204.46 112.949 204.689 113.696 205.148 114.24C205.606 114.784 206.241 115.056 207.052 115.056C207.862 115.056 208.497 114.784 208.956 114.24C209.414 113.696 209.644 112.949 209.644 112C209.644 111.051 209.414 110.304 208.956 109.76C208.497 109.216 207.862 108.944 207.052 108.944ZM222.751 107.84C223.658 107.84 224.404 108.101 224.991 108.624C225.578 109.147 225.871 109.899 225.871 110.88V116H224.591V111.328C224.591 110.496 224.41 109.893 224.047 109.52C223.695 109.147 223.22 108.96 222.623 108.96C222.207 108.96 221.807 109.056 221.423 109.248C221.05 109.44 220.74 109.749 220.495 110.176C220.26 110.592 220.143 111.12 220.143 111.76V116H218.863V104.32H220.143V109.2C220.41 108.741 220.767 108.4 221.215 108.176C221.674 107.952 222.186 107.84 222.751 107.84ZM235.633 111.584C235.633 111.883 235.612 112.181 235.569 112.48H229.537C229.612 113.291 229.879 113.92 230.337 114.368C230.807 114.816 231.409 115.04 232.145 115.04C232.732 115.04 233.217 114.939 233.601 114.736C233.996 114.533 234.263 114.24 234.401 113.856L235.473 114.416C235.153 114.981 234.727 115.413 234.193 115.712C233.66 116.011 232.977 116.16 232.145 116.16C230.94 116.16 229.991 115.792 229.297 115.056C228.615 114.32 228.273 113.301 228.273 112C228.273 110.699 228.599 109.68 229.249 108.944C229.911 108.208 230.844 107.84 232.049 107.84C232.796 107.84 233.441 108.005 233.985 108.336C234.529 108.667 234.94 109.115 235.217 109.68C235.495 110.245 235.633 110.88 235.633 111.584ZM232.049 108.96C231.345 108.96 230.775 109.168 230.337 109.584C229.911 110 229.649 110.587 229.553 111.344H234.401C234.316 110.597 234.071 110.016 233.665 109.6C233.26 109.173 232.721 108.96 232.049 108.96ZM244.626 115.072C244.839 115.072 245.053 115.045 245.266 114.992L245.186 116C244.887 116.107 244.567 116.16 244.226 116.16C243.81 116.16 243.479 116.069 243.234 115.888C242.999 115.707 242.85 115.403 242.786 114.976C242.541 115.349 242.178 115.643 241.698 115.856C241.229 116.059 240.733 116.16 240.21 116.16C239.421 116.16 238.77 115.979 238.258 115.616C237.746 115.243 237.49 114.709 237.49 114.016C237.49 113.408 237.757 112.885 238.29 112.448C238.823 112 239.597 111.691 240.61 111.52L242.738 111.168V110.72C242.738 110.187 242.573 109.76 242.242 109.44C241.911 109.12 241.453 108.96 240.866 108.96C240.333 108.96 239.869 109.088 239.474 109.344C239.09 109.6 238.791 109.979 238.578 110.48L237.634 109.792C237.847 109.195 238.242 108.72 238.818 108.368C239.405 108.016 240.087 107.84 240.866 107.84C241.815 107.84 242.578 108.069 243.154 108.528C243.73 108.987 244.018 109.664 244.018 110.56V114.496C244.018 114.688 244.066 114.832 244.162 114.928C244.258 115.024 244.413 115.072 244.626 115.072ZM240.274 115.04C240.946 115.04 241.522 114.88 242.002 114.56C242.493 114.24 242.738 113.824 242.738 113.312V112.208L240.946 112.544C240.231 112.672 239.698 112.859 239.346 113.104C238.994 113.339 238.818 113.643 238.818 114.016C238.818 114.347 238.946 114.603 239.202 114.784C239.458 114.955 239.815 115.04 240.274 115.04ZM248.345 113.856C248.345 114.261 248.403 114.544 248.521 114.704C248.649 114.853 248.878 114.928 249.209 114.928C249.433 114.928 249.625 114.912 249.785 114.88C249.955 114.848 250.153 114.789 250.377 114.704L250.169 115.936C249.817 116.085 249.422 116.16 248.985 116.16C248.334 116.16 247.849 115.984 247.529 115.632C247.219 115.28 247.065 114.741 247.065 114.016V104.32H248.345V113.856ZM256.603 115.44C256.069 115.92 255.381 116.16 254.539 116.16C253.888 116.16 253.355 115.984 252.939 115.632C252.533 115.28 252.325 114.741 252.315 114.016V109.104H250.715V108H252.315V106.08L253.595 105.728V108H256.555V109.104H253.595V113.792C253.595 114.176 253.701 114.469 253.915 114.672C254.139 114.864 254.432 114.96 254.795 114.96C255.307 114.96 255.76 114.763 256.155 114.368L256.603 115.44ZM262.298 107.84C263.205 107.84 263.951 108.101 264.538 108.624C265.125 109.147 265.418 109.899 265.418 110.88V116H264.138V111.328C264.138 110.496 263.957 109.893 263.594 109.52C263.242 109.147 262.767 108.96 262.17 108.96C261.754 108.96 261.354 109.056 260.97 109.248C260.597 109.44 260.287 109.749 260.042 110.176C259.807 110.592 259.69 111.12 259.69 111.76V116H258.41V104.32H259.69V109.2C259.957 108.741 260.314 108.4 260.762 108.176C261.221 107.952 261.733 107.84 262.298 107.84ZM271.137 117.344C270.828 118.112 270.481 118.651 270.097 118.96C269.713 119.28 269.217 119.44 268.609 119.44C268.204 119.44 267.863 119.387 267.585 119.28C267.319 119.173 267.073 119.003 266.849 118.768L267.297 117.68C267.607 118.107 268.039 118.32 268.593 118.32C268.903 118.32 269.175 118.224 269.409 118.032C269.655 117.851 269.868 117.515 270.049 117.024L270.465 115.984L267.121 108H268.577L270.577 113.216L271.073 114.64L271.649 113.056L273.521 108H274.897L271.137 117.344ZM288.571 111.584C288.571 111.883 288.549 112.181 288.507 112.48H282.475C282.549 113.291 282.816 113.92 283.275 114.368C283.744 114.816 284.347 115.04 285.083 115.04C285.669 115.04 286.155 114.939 286.539 114.736C286.933 114.533 287.2 114.24 287.339 113.856L288.411 114.416C288.091 114.981 287.664 115.413 287.131 115.712C286.597 116.011 285.915 116.16 285.083 116.16C283.877 116.16 282.928 115.792 282.235 115.056C281.552 114.32 281.211 113.301 281.211 112C281.211 110.699 281.536 109.68 282.187 108.944C282.848 108.208 283.781 107.84 284.987 107.84C285.733 107.84 286.379 108.005 286.923 108.336C287.467 108.667 287.877 109.115 288.155 109.68C288.432 110.245 288.571 110.88 288.571 111.584ZM284.987 108.96C284.283 108.96 283.712 109.168 283.275 109.584C282.848 110 282.587 110.587 282.491 111.344H287.339C287.253 110.597 287.008 110.016 286.603 109.6C286.197 109.173 285.659 108.96 284.987 108.96ZM297.564 115.072C297.777 115.072 297.99 115.045 298.204 114.992L298.124 116C297.825 116.107 297.505 116.16 297.164 116.16C296.748 116.16 296.417 116.069 296.172 115.888C295.937 115.707 295.788 115.403 295.724 114.976C295.478 115.349 295.116 115.643 294.636 115.856C294.166 116.059 293.67 116.16 293.148 116.16C292.358 116.16 291.708 115.979 291.196 115.616C290.684 115.243 290.428 114.709 290.428 114.016C290.428 113.408 290.694 112.885 291.228 112.448C291.761 112 292.534 111.691 293.548 111.52L295.676 111.168V110.72C295.676 110.187 295.51 109.76 295.18 109.44C294.849 109.12 294.39 108.96 293.804 108.96C293.27 108.96 292.806 109.088 292.412 109.344C292.028 109.6 291.729 109.979 291.516 110.48L290.572 109.792C290.785 109.195 291.18 108.72 291.756 108.368C292.342 108.016 293.025 107.84 293.804 107.84C294.753 107.84 295.516 108.069 296.092 108.528C296.668 108.987 296.956 109.664 296.956 110.56V114.496C296.956 114.688 297.004 114.832 297.1 114.928C297.196 115.024 297.35 115.072 297.564 115.072ZM293.212 115.04C293.884 115.04 294.46 114.88 294.94 114.56C295.43 114.24 295.676 113.824 295.676 113.312V112.208L293.884 112.544C293.169 112.672 292.636 112.859 292.284 113.104C291.932 113.339 291.756 113.643 291.756 114.016C291.756 114.347 291.884 114.603 292.14 114.784C292.396 114.955 292.753 115.04 293.212 115.04ZM304.65 115.44C304.116 115.92 303.428 116.16 302.586 116.16C301.935 116.16 301.402 115.984 300.986 115.632C300.58 115.28 300.372 114.741 300.362 114.016V109.104H298.762V108H300.362V106.08L301.642 105.728V108H304.602V109.104H301.642V113.792C301.642 114.176 301.748 114.469 301.962 114.672C302.186 114.864 302.479 114.96 302.842 114.96C303.354 114.96 303.807 114.763 304.202 114.368L304.65 115.44ZM307.097 106.464C306.809 106.464 306.574 106.379 306.393 106.208C306.222 106.027 306.137 105.792 306.137 105.504C306.137 105.216 306.222 104.987 306.393 104.816C306.574 104.635 306.809 104.544 307.097 104.544C307.385 104.544 307.614 104.635 307.785 104.816C307.966 104.987 308.057 105.216 308.057 105.504C308.057 105.792 307.966 106.027 307.785 106.208C307.614 106.379 307.385 106.464 307.097 106.464ZM307.737 116H306.457V108H307.737V116ZM314.595 107.84C315.501 107.84 316.248 108.101 316.835 108.624C317.421 109.147 317.715 109.899 317.715 110.88V116H316.435V111.328C316.435 110.496 316.253 109.893 315.891 109.52C315.539 109.147 315.064 108.96 314.467 108.96C314.04 108.96 313.64 109.056 313.267 109.248C312.893 109.429 312.584 109.733 312.339 110.16C312.104 110.576 311.987 111.104 311.987 111.744V116H310.707V108H311.827L311.907 109.248C312.173 108.768 312.541 108.416 313.011 108.192C313.48 107.957 314.008 107.84 314.595 107.84ZM325.077 114.976C325.834 114.976 326.426 115.147 326.853 115.488C327.28 115.829 327.493 116.293 327.493 116.88C327.493 117.392 327.317 117.84 326.965 118.224C326.613 118.619 326.133 118.917 325.525 119.12C324.928 119.333 324.266 119.44 323.541 119.44C322.325 119.44 321.408 119.243 320.789 118.848C320.17 118.464 319.861 117.957 319.861 117.328C319.861 116.965 319.984 116.645 320.229 116.368C320.485 116.091 320.832 115.893 321.269 115.776C320.938 115.616 320.672 115.413 320.469 115.168C320.277 114.923 320.181 114.635 320.181 114.304C320.181 113.909 320.288 113.584 320.501 113.328C320.714 113.061 321.008 112.864 321.381 112.736C320.997 112.501 320.704 112.197 320.501 111.824C320.309 111.44 320.213 111.013 320.213 110.544C320.213 110.021 320.352 109.557 320.629 109.152C320.906 108.736 321.296 108.416 321.797 108.192C322.298 107.957 322.864 107.84 323.493 107.84C324.09 107.84 324.634 107.947 325.125 108.16C325.424 107.072 326.176 106.528 327.381 106.528L327.669 107.648C326.624 107.648 325.989 107.941 325.765 108.528C326.085 108.773 326.33 109.067 326.501 109.408C326.682 109.749 326.773 110.128 326.773 110.544C326.773 111.067 326.634 111.536 326.357 111.952C326.08 112.357 325.69 112.677 325.189 112.912C324.688 113.136 324.122 113.248 323.493 113.248C323.024 113.248 322.613 113.2 322.261 113.104C321.941 113.179 321.712 113.296 321.573 113.456C321.434 113.616 321.365 113.835 321.365 114.112C321.365 114.389 321.461 114.603 321.653 114.752C321.845 114.901 322.101 114.976 322.421 114.976H325.077ZM323.493 108.88C322.938 108.88 322.474 109.035 322.101 109.344C321.728 109.653 321.541 110.053 321.541 110.544C321.541 111.035 321.728 111.435 322.101 111.744C322.474 112.053 322.938 112.208 323.493 112.208C324.048 112.208 324.512 112.053 324.885 111.744C325.258 111.435 325.445 111.035 325.445 110.544C325.445 110.053 325.258 109.653 324.885 109.344C324.512 109.035 324.048 108.88 323.493 108.88ZM323.685 118.368C324.496 118.368 325.136 118.235 325.605 117.968C326.074 117.712 326.309 117.397 326.309 117.024C326.309 116.715 326.186 116.48 325.941 116.32C325.706 116.16 325.301 116.08 324.725 116.08H322.581C322.09 116.08 321.712 116.165 321.445 116.336C321.178 116.517 321.045 116.763 321.045 117.072C321.045 117.477 321.269 117.792 321.717 118.016C322.165 118.251 322.821 118.368 323.685 118.368ZM330.034 114.08C330.344 114.08 330.594 114.176 330.786 114.368C330.978 114.56 331.074 114.811 331.074 115.12C331.074 115.429 330.978 115.68 330.786 115.872C330.594 116.064 330.344 116.16 330.034 116.16C329.725 116.16 329.474 116.064 329.282 115.872C329.09 115.68 328.994 115.429 328.994 115.12C328.994 114.811 329.09 114.56 329.282 114.368C329.474 114.176 329.725 114.08 330.034 114.08Z" fill="#333333"/>
<path d="M62.9268 52.056V55H47.8548V33.88H51.2788V52.056H62.9268ZM73.196 38.68C75.692 38.68 77.644 39.416 79.052 40.888C80.46 42.36 81.164 44.3973 81.164 47C81.164 49.6027 80.46 51.64 79.052 53.112C77.644 54.584 75.692 55.32 73.196 55.32C70.7 55.32 68.748 54.584 67.34 53.112C65.932 51.64 65.228 49.6027 65.228 47C65.228 44.3973 65.932 42.36 67.34 40.888C68.748 39.416 70.7 38.68 73.196 38.68ZM73.196 41.368C71.7453 41.368 70.6253 41.8587 69.836 42.84C69.068 43.8 68.684 45.1867 68.684 47C68.684 48.8133 69.068 50.2107 69.836 51.192C70.6253 52.152 71.7453 52.632 73.196 52.632C74.6467 52.632 75.7667 52.1413 76.556 51.16C77.3453 50.1787 77.74 48.792 77.74 47C77.74 45.208 77.3453 43.8213 76.556 42.84C75.7667 41.8587 74.6467 41.368 73.196 41.368ZM109.414 39L104.07 55H100.326L96.2935 42.904L92.4535 55H88.7095L83.3655 39H87.0775L90.6935 51.8L94.6935 39H98.0855L102.054 51.8L105.702 39H109.414ZM128.448 55.32C126.827 55.32 125.387 55.0427 124.128 54.488C122.891 53.9333 121.952 53.0907 121.312 51.96L123.616 49.976C124.021 50.8933 124.651 51.5653 125.504 51.992C126.357 52.4187 127.381 52.632 128.576 52.632C129.664 52.632 130.507 52.4613 131.104 52.12C131.701 51.7573 132 51.288 132 50.712C132 50.2 131.723 49.7947 131.168 49.496C130.613 49.176 129.653 48.8773 128.288 48.6C125.92 48.152 124.256 47.5547 123.296 46.808C122.336 46.0613 121.856 45.0053 121.856 43.64C121.856 42.7653 122.123 41.9547 122.656 41.208C123.189 40.44 123.957 39.832 124.96 39.384C125.984 38.9147 127.189 38.68 128.576 38.68C130.347 38.68 131.765 38.9787 132.832 39.576C133.899 40.152 134.72 41.0587 135.296 42.296L132.864 44.088C132.48 43.1493 131.936 42.4667 131.232 42.04C130.549 41.592 129.675 41.368 128.608 41.368C127.648 41.368 126.848 41.5707 126.208 41.976C125.589 42.36 125.28 42.808 125.28 43.32C125.28 43.896 125.557 44.3547 126.112 44.696C126.688 45.0373 127.723 45.3467 129.216 45.624C131.477 46.0293 133.077 46.6053 134.016 47.352C134.955 48.0987 135.424 49.144 135.424 50.488C135.424 51.9173 134.805 53.08 133.568 53.976C132.331 54.872 130.624 55.32 128.448 55.32ZM153.866 46.52C153.866 47.1387 153.824 47.7253 153.738 48.28H142.026C142.218 49.688 142.72 50.7653 143.53 51.512C144.341 52.2373 145.386 52.6 146.666 52.6C147.712 52.6 148.576 52.4187 149.258 52.056C149.962 51.672 150.442 51.128 150.698 50.424L153.546 51.608C152.352 54.0827 150.058 55.32 146.666 55.32C144.149 55.32 142.176 54.584 140.746 53.112C139.338 51.64 138.634 49.6027 138.634 47C138.634 44.376 139.317 42.3387 140.682 40.888C142.048 39.416 143.968 38.68 146.442 38.68C148.789 38.68 150.613 39.3947 151.914 40.824C153.216 42.2533 153.866 44.152 153.866 46.52ZM146.442 41.4C145.205 41.4 144.202 41.7627 143.434 42.488C142.688 43.2133 142.218 44.2693 142.026 45.656H150.666C150.496 44.312 150.037 43.2667 149.29 42.52C148.565 41.7733 147.616 41.4 146.442 41.4ZM161.484 50.328C161.484 51.1173 161.601 51.672 161.836 51.992C162.071 52.2907 162.508 52.44 163.148 52.44C163.553 52.44 163.895 52.4187 164.172 52.376C164.471 52.312 164.833 52.1947 165.26 52.024L164.876 54.776C164.151 55.1387 163.265 55.32 162.22 55.32C160.791 55.32 159.735 54.9573 159.052 54.232C158.391 53.5067 158.06 52.3653 158.06 50.808V31.8H161.484V50.328ZM172.669 39H177.853V41.688H172.765V55H169.341V41.688H166.333V39H169.341V36.696C169.341 35.0747 169.831 33.816 170.813 32.92C171.794 32.024 173.17 31.576 174.941 31.576C175.581 31.576 176.167 31.6507 176.701 31.8C177.234 31.928 177.65 32.1093 177.949 32.344L177.309 34.84C176.818 34.52 176.21 34.36 175.485 34.36C173.607 34.36 172.669 35.224 172.669 36.952V39ZM190.196 48.152H179.284V44.984H190.196V48.152ZM209.929 46.52C209.929 47.1387 209.886 47.7253 209.801 48.28H198.089C198.281 49.688 198.782 50.7653 199.593 51.512C200.403 52.2373 201.449 52.6 202.729 52.6C203.774 52.6 204.638 52.4187 205.321 52.056C206.025 51.672 206.505 51.128 206.761 50.424L209.609 51.608C208.414 54.0827 206.121 55.32 202.729 55.32C200.211 55.32 198.238 54.584 196.809 53.112C195.401 51.64 194.697 49.6027 194.697 47C194.697 44.376 195.379 42.3387 196.745 40.888C198.11 39.416 200.03 38.68 202.505 38.68C204.851 38.68 206.675 39.3947 207.977 40.824C209.278 42.2533 209.929 44.152 209.929 46.52ZM202.505 41.4C201.267 41.4 200.265 41.7627 199.497 42.488C198.75 43.2133 198.281 44.2693 198.089 45.656H206.729C206.558 44.312 206.099 43.2667 205.353 42.52C204.627 41.7733 203.678 41.4 202.505 41.4ZM218.638 39H223.822V41.688H218.734V55H215.31V41.688H212.302V39H215.31V36.696C215.31 35.0747 215.8 33.816 216.782 32.92C217.763 32.024 219.139 31.576 220.91 31.576C221.55 31.576 222.136 31.6507 222.67 31.8C223.203 31.928 223.619 32.1093 223.918 32.344L223.278 34.84C222.787 34.52 222.179 34.36 221.454 34.36C219.576 34.36 218.638 35.224 218.638 36.952V39ZM229.513 39H234.697V41.688H229.609V55H226.185V41.688H223.177V39H226.185V36.696C226.185 35.0747 226.675 33.816 227.657 32.92C228.638 32.024 230.014 31.576 231.785 31.576C232.425 31.576 233.011 31.6507 233.545 31.8C234.078 31.928 234.494 32.1093 234.793 32.344L234.153 34.84C233.662 34.52 233.054 34.36 232.329 34.36C230.451 34.36 229.513 35.224 229.513 36.952V39ZM239.497 36.312C238.771 36.312 238.206 36.1307 237.801 35.768C237.395 35.384 237.193 34.8507 237.193 34.168C237.193 33.4853 237.395 32.9627 237.801 32.6C238.206 32.2373 238.771 32.056 239.497 32.056C240.222 32.056 240.777 32.2373 241.161 32.6C241.566 32.9627 241.769 33.4853 241.769 34.168C241.769 34.8507 241.566 35.384 241.161 35.768C240.777 36.1307 240.222 36.312 239.497 36.312ZM241.193 55H237.769V39H241.193V55ZM253.54 38.68C257.038 38.68 259.353 40.1733 260.484 43.16L257.284 44.44C256.729 42.4133 255.481 41.4 253.54 41.4C252.11 41.4 251.001 41.8907 250.212 42.872C249.422 43.8533 249.028 45.24 249.028 47.032C249.028 48.824 249.422 50.2 250.212 51.16C251.001 52.12 252.11 52.6 253.54 52.6C254.628 52.6 255.502 52.3333 256.164 51.8C256.825 51.2667 257.262 50.4987 257.476 49.496L260.612 50.552C260.142 52.0453 259.31 53.2187 258.116 54.072C256.921 54.904 255.417 55.32 253.604 55.32C251.086 55.32 249.113 54.584 247.684 53.112C246.276 51.64 245.572 49.6027 245.572 47C245.572 44.3973 246.276 42.36 247.684 40.888C249.092 39.416 251.044 38.68 253.54 38.68ZM278.449 52.76C278.918 52.76 279.313 52.7173 279.633 52.632L279.409 54.936C278.833 55.192 278.171 55.32 277.425 55.32C276.507 55.32 275.771 55.1387 275.217 54.776C274.683 54.4133 274.331 53.8053 274.161 52.952C273.67 53.6987 272.945 54.2853 271.985 54.712C271.025 55.1173 269.947 55.32 268.753 55.32C267.195 55.32 265.937 54.9573 264.977 54.232C264.017 53.5067 263.537 52.472 263.537 51.128C263.537 49.8693 264.059 48.8133 265.105 47.96C266.15 47.0853 267.707 46.4667 269.777 46.104L273.841 45.4V44.536C273.841 43.5547 273.553 42.7867 272.977 42.232C272.401 41.656 271.601 41.368 270.577 41.368C268.465 41.368 267.089 42.328 266.449 44.248L263.793 42.84C264.177 41.56 264.955 40.5467 266.129 39.8C267.323 39.0533 268.785 38.68 270.513 38.68C272.582 38.68 274.225 39.16 275.441 40.12C276.657 41.08 277.265 42.488 277.265 44.344V51.576C277.265 51.9813 277.35 52.28 277.521 52.472C277.713 52.664 278.022 52.76 278.449 52.76ZM269.489 52.728C270.641 52.728 271.654 52.4507 272.529 51.896C273.403 51.3413 273.841 50.6053 273.841 49.688V47.768L270.353 48.472C269.243 48.6853 268.422 48.984 267.889 49.368C267.355 49.752 267.089 50.264 267.089 50.904C267.089 51.5013 267.291 51.96 267.697 52.28C268.123 52.5787 268.721 52.728 269.489 52.728ZM289.884 38.68C293.382 38.68 295.697 40.1733 296.828 43.16L293.628 44.44C293.073 42.4133 291.825 41.4 289.884 41.4C288.454 41.4 287.345 41.8907 286.556 42.872C285.766 43.8533 285.372 45.24 285.372 47.032C285.372 48.824 285.766 50.2 286.556 51.16C287.345 52.12 288.454 52.6 289.884 52.6C290.972 52.6 291.846 52.3333 292.508 51.8C293.169 51.2667 293.606 50.4987 293.82 49.496L296.956 50.552C296.486 52.0453 295.654 53.2187 294.46 54.072C293.265 54.904 291.761 55.32 289.948 55.32C287.43 55.32 285.457 54.584 284.028 53.112C282.62 51.64 281.916 49.6027 281.916 47C281.916 44.3973 282.62 42.36 284.028 40.888C285.436 39.416 287.388 38.68 289.884 38.68ZM307.861 56.888C307.157 58.7227 306.357 60.0133 305.461 60.76C304.565 61.5067 303.391 61.88 301.941 61.88C301.109 61.88 300.383 61.7733 299.765 61.56C299.167 61.368 298.634 61.048 298.165 60.6L299.157 57.976C299.797 58.744 300.671 59.128 301.781 59.128C302.421 59.128 302.954 58.9573 303.381 58.616C303.829 58.296 304.223 57.6987 304.565 56.824L305.269 55.096L303.605 51.128L298.613 39H302.453L305.973 49.048L306.901 52.056L307.989 48.76L311.317 39H314.869L307.861 56.888Z" fill="#333333"/>
</svg>
