<svg width="360" height="144" viewBox="0 0 360 144" fill="none" xmlns="http://www.w3.org/2000/svg">
<path d="M0 0H360V72V144H0V72V0Z" fill="#F2F2F2"/>
<path d="M32.7971 95H31.5171V84.44H32.7971V95ZM45.2293 86.84C45.7626 86.84 46.2586 86.952 46.7173 87.176C47.1866 87.3893 47.5653 87.7253 47.8533 88.184C48.1413 88.6427 48.2853 89.208 48.2853 89.88V95H47.0053V90.008C47.0053 89.3147 46.8293 88.8027 46.4773 88.472C46.136 88.1307 45.6826 87.96 45.1173 87.96C44.6906 87.96 44.296 88.0667 43.9333 88.28C43.5813 88.4827 43.2933 88.7867 43.0693 89.192C42.856 89.5867 42.7493 90.0613 42.7493 90.616V95H41.4693V90.008C41.4693 89.3147 41.2933 88.8027 40.9413 88.472C40.6 88.1307 40.1466 87.96 39.5813 87.96C39.1973 87.96 38.824 88.0613 38.4613 88.264C38.0986 88.456 37.8 88.76 37.5653 89.176C37.3306 89.592 37.2133 90.1093 37.2133 90.728V95H35.9333V87H37.0533L37.1333 88.248C37.4106 87.7787 37.7733 87.4267 38.2213 87.192C38.68 86.9573 39.1706 86.84 39.6933 86.84C40.28 86.84 40.8186 86.9733 41.3093 87.24C41.8106 87.5067 42.1893 87.896 42.4453 88.408C42.68 87.896 43.064 87.5067 43.5973 87.24C44.1306 86.9733 44.6746 86.84 45.2293 86.84ZM60.4793 86.84C61.0126 86.84 61.5086 86.952 61.9673 87.176C62.4366 87.3893 62.8153 87.7253 63.1033 88.184C63.3913 88.6427 63.5353 89.208 63.5353 89.88V95H62.2553V90.008C62.2553 89.3147 62.0793 88.8027 61.7273 88.472C61.386 88.1307 60.9326 87.96 60.3673 87.96C59.9406 87.96 59.546 88.0667 59.1833 88.28C58.8313 88.4827 58.5433 88.7867 58.3193 89.192C58.106 89.5867 57.9993 90.0613 57.9993 90.616V95H56.7193V90.008C56.7193 89.3147 56.5433 88.8027 56.1913 88.472C55.85 88.1307 55.3966 87.96 54.8313 87.96C54.4473 87.96 54.074 88.0613 53.7113 88.264C53.3486 88.456 53.05 88.76 52.8153 89.176C52.5806 89.592 52.4633 90.1093 52.4633 90.728V95H51.1833V87H52.3033L52.3833 88.248C52.6606 87.7787 53.0233 87.4267 53.4713 87.192C53.93 86.9573 54.4206 86.84 54.9433 86.84C55.53 86.84 56.0686 86.9733 56.5593 87.24C57.0606 87.5067 57.4393 87.896 57.6953 88.408C57.93 87.896 58.314 87.5067 58.8473 87.24C59.3806 86.9733 59.9246 86.84 60.4793 86.84ZM67.0733 85.464C66.7853 85.464 66.5506 85.3787 66.3693 85.208C66.1986 85.0267 66.1133 84.792 66.1133 84.504C66.1133 84.216 66.1986 83.9867 66.3693 83.816C66.5506 83.6347 66.7853 83.544 67.0733 83.544C67.3613 83.544 67.5906 83.6347 67.7613 83.816C67.9426 83.9867 68.0333 84.216 68.0333 84.504C68.0333 84.792 67.9426 85.0267 67.7613 85.208C67.5906 85.3787 67.3613 85.464 67.0733 85.464ZM67.7133 95H66.4333V87H67.7133V95ZM74.5713 86.84C75.478 86.84 76.2246 87.1013 76.8113 87.624C77.398 88.1467 77.6913 88.8987 77.6913 89.88V95H76.4113V90.328C76.4113 89.496 76.23 88.8933 75.8673 88.52C75.5153 88.1467 75.0406 87.96 74.4433 87.96C74.0166 87.96 73.6166 88.056 73.2433 88.248C72.87 88.4293 72.5606 88.7333 72.3153 89.16C72.0806 89.576 71.9633 90.104 71.9633 90.744V95H70.6833V87H71.8033L71.8833 88.248C72.15 87.768 72.518 87.416 72.9873 87.192C73.4566 86.9573 73.9846 86.84 74.5713 86.84ZM87.4536 90.584C87.4536 90.8827 87.4322 91.1813 87.3896 91.48H81.3576C81.4322 92.2907 81.6989 92.92 82.1576 93.368C82.6269 93.816 83.2296 94.04 83.9656 94.04C84.5522 94.04 85.0376 93.9387 85.4216 93.736C85.8162 93.5333 86.0829 93.24 86.2216 92.856L87.2936 93.416C86.9736 93.9813 86.5469 94.4133 86.0136 94.712C85.4802 95.0107 84.7976 95.16 83.9656 95.16C82.7602 95.16 81.8109 94.792 81.1176 94.056C80.4349 93.32 80.0936 92.3013 80.0936 91C80.0936 89.6987 80.4189 88.68 81.0696 87.944C81.7309 87.208 82.6642 86.84 83.8696 86.84C84.6162 86.84 85.2616 87.0053 85.8056 87.336C86.3496 87.6667 86.7602 88.1147 87.0376 88.68C87.3149 89.2453 87.4536 89.88 87.4536 90.584ZM83.8696 87.96C83.1656 87.96 82.5949 88.168 82.1576 88.584C81.7309 89 81.4696 89.5867 81.3736 90.344H86.2216C86.1362 89.5973 85.8909 89.016 85.4856 88.6C85.0802 88.1733 84.5416 87.96 83.8696 87.96ZM93.7744 86.84C94.6811 86.84 95.4278 87.1013 96.0144 87.624C96.6011 88.1467 96.8944 88.8987 96.8944 89.88V95H95.6144V90.328C95.6144 89.496 95.4331 88.8933 95.0704 88.52C94.7184 88.1467 94.2438 87.96 93.6464 87.96C93.2198 87.96 92.8198 88.056 92.4464 88.248C92.0731 88.4293 91.7638 88.7333 91.5184 89.16C91.2838 89.576 91.1664 90.104 91.1664 90.744V95H89.8864V87H91.0064L91.0864 88.248C91.3531 87.768 91.7211 87.416 92.1904 87.192C92.6598 86.9573 93.1878 86.84 93.7744 86.84ZM104.579 94.44C104.046 94.92 103.358 95.16 102.515 95.16C101.865 95.16 101.331 94.984 100.915 94.632C100.51 94.28 100.302 93.7413 100.291 93.016V88.104H98.6913V87H100.291V85.08L101.571 84.728V87H104.531V88.104H101.571V92.792C101.571 93.176 101.678 93.4693 101.891 93.672C102.115 93.864 102.409 93.96 102.771 93.96C103.283 93.96 103.737 93.7627 104.131 93.368L104.579 94.44ZM118.944 83.32V95H117.824L117.744 93.608C117.509 94.0773 117.146 94.456 116.656 94.744C116.176 95.0213 115.626 95.16 115.008 95.16C113.888 95.16 112.997 94.792 112.336 94.056C111.685 93.3093 111.36 92.2907 111.36 91C111.36 89.7093 111.685 88.696 112.336 87.96C112.997 87.2133 113.888 86.84 115.008 86.84C115.594 86.84 116.117 86.968 116.576 87.224C117.045 87.48 117.408 87.8213 117.664 88.248V83.32H118.944ZM115.152 94.04C115.92 94.04 116.528 93.7733 116.976 93.24C117.434 92.7067 117.664 91.992 117.664 91.096V90.904C117.664 90.008 117.434 89.2933 116.976 88.76C116.528 88.2267 115.92 87.96 115.152 87.96C114.373 87.96 113.76 88.2373 113.312 88.792C112.864 89.336 112.64 90.072 112.64 91C112.64 91.928 112.864 92.6693 113.312 93.224C113.76 93.768 114.373 94.04 115.152 94.04ZM122.558 85.464C122.27 85.464 122.035 85.3787 121.854 85.208C121.683 85.0267 121.598 84.792 121.598 84.504C121.598 84.216 121.683 83.9867 121.854 83.816C122.035 83.6347 122.27 83.544 122.558 83.544C122.846 83.544 123.075 83.6347 123.246 83.816C123.427 83.9867 123.518 84.216 123.518 84.504C123.518 84.792 123.427 85.0267 123.246 85.208C123.075 85.3787 122.846 85.464 122.558 85.464ZM123.198 95H121.918V87H123.198V95ZM132.728 94.072C132.941 94.072 133.154 94.0453 133.368 93.992L133.288 95C132.989 95.1067 132.669 95.16 132.328 95.16C131.912 95.16 131.581 95.0693 131.336 94.888C131.101 94.7067 130.952 94.4027 130.888 93.976C130.642 94.3493 130.28 94.6427 129.8 94.856C129.33 95.0587 128.834 95.16 128.312 95.16C127.522 95.16 126.872 94.9787 126.36 94.616C125.848 94.2427 125.592 93.7093 125.592 93.016C125.592 92.408 125.858 91.8853 126.392 91.448C126.925 91 127.698 90.6907 128.712 90.52L130.84 90.168V89.72C130.84 89.1867 130.674 88.76 130.344 88.44C130.013 88.12 129.554 87.96 128.968 87.96C128.434 87.96 127.97 88.088 127.576 88.344C127.192 88.6 126.893 88.9787 126.68 89.48L125.736 88.792C125.949 88.1947 126.344 87.72 126.92 87.368C127.506 87.016 128.189 86.84 128.968 86.84C129.917 86.84 130.68 87.0693 131.256 87.528C131.832 87.9867 132.12 88.664 132.12 89.56V93.496C132.12 93.688 132.168 93.832 132.264 93.928C132.36 94.024 132.514 94.072 132.728 94.072ZM128.376 94.04C129.048 94.04 129.624 93.88 130.104 93.56C130.594 93.24 130.84 92.824 130.84 92.312V91.208L129.048 91.544C128.333 91.672 127.8 91.8587 127.448 92.104C127.096 92.3387 126.92 92.6427 126.92 93.016C126.92 93.3467 127.048 93.6027 127.304 93.784C127.56 93.9547 127.917 94.04 128.376 94.04ZM139.694 93.976C140.452 93.976 141.044 94.1467 141.47 94.488C141.897 94.8293 142.11 95.2933 142.11 95.88C142.11 96.392 141.934 96.84 141.582 97.224C141.23 97.6187 140.75 97.9173 140.142 98.12C139.545 98.3333 138.884 98.44 138.158 98.44C136.942 98.44 136.025 98.2427 135.406 97.848C134.788 97.464 134.478 96.9573 134.478 96.328C134.478 95.9653 134.601 95.6453 134.846 95.368C135.102 95.0907 135.449 94.8933 135.886 94.776C135.556 94.616 135.289 94.4133 135.086 94.168C134.894 93.9227 134.798 93.6347 134.798 93.304C134.798 92.9093 134.905 92.584 135.118 92.328C135.332 92.0613 135.625 91.864 135.998 91.736C135.614 91.5013 135.321 91.1973 135.118 90.824C134.926 90.44 134.83 90.0133 134.83 89.544C134.83 89.0213 134.969 88.5573 135.246 88.152C135.524 87.736 135.913 87.416 136.414 87.192C136.916 86.9573 137.481 86.84 138.11 86.84C138.708 86.84 139.252 86.9467 139.742 87.16C140.041 86.072 140.793 85.528 141.998 85.528L142.286 86.648C141.241 86.648 140.606 86.9413 140.382 87.528C140.702 87.7733 140.948 88.0667 141.118 88.408C141.3 88.7493 141.39 89.128 141.39 89.544C141.39 90.0667 141.252 90.536 140.974 90.952C140.697 91.3573 140.308 91.6773 139.806 91.912C139.305 92.136 138.74 92.248 138.11 92.248C137.641 92.248 137.23 92.2 136.878 92.104C136.558 92.1787 136.329 92.296 136.19 92.456C136.052 92.616 135.982 92.8347 135.982 93.112C135.982 93.3893 136.078 93.6027 136.27 93.752C136.462 93.9013 136.718 93.976 137.038 93.976H139.694ZM138.11 87.88C137.556 87.88 137.092 88.0347 136.718 88.344C136.345 88.6533 136.158 89.0533 136.158 89.544C136.158 90.0347 136.345 90.4347 136.718 90.744C137.092 91.0533 137.556 91.208 138.11 91.208C138.665 91.208 139.129 91.0533 139.502 90.744C139.876 90.4347 140.062 90.0347 140.062 89.544C140.062 89.0533 139.876 88.6533 139.502 88.344C139.129 88.0347 138.665 87.88 138.11 87.88ZM138.302 97.368C139.113 97.368 139.753 97.2347 140.222 96.968C140.692 96.712 140.926 96.3973 140.926 96.024C140.926 95.7147 140.804 95.48 140.558 95.32C140.324 95.16 139.918 95.08 139.342 95.08H137.198C136.708 95.08 136.329 95.1653 136.062 95.336C135.796 95.5173 135.662 95.7627 135.662 96.072C135.662 96.4773 135.886 96.792 136.334 97.016C136.782 97.2507 137.438 97.368 138.302 97.368ZM147.899 86.84C148.806 86.84 149.553 87.1013 150.139 87.624C150.726 88.1467 151.019 88.8987 151.019 89.88V95H149.739V90.328C149.739 89.496 149.558 88.8933 149.195 88.52C148.843 88.1467 148.369 87.96 147.771 87.96C147.345 87.96 146.945 88.056 146.571 88.248C146.198 88.4293 145.889 88.7333 145.643 89.16C145.409 89.576 145.291 90.104 145.291 90.744V95H144.011V87H145.131L145.211 88.248C145.478 87.768 145.846 87.416 146.315 87.192C146.785 86.9573 147.313 86.84 147.899 86.84ZM157.294 86.84C158.499 86.84 159.443 87.208 160.126 87.944C160.819 88.68 161.166 89.6987 161.166 91C161.166 92.3013 160.819 93.32 160.126 94.056C159.443 94.792 158.499 95.16 157.294 95.16C156.088 95.16 155.139 94.792 154.446 94.056C153.763 93.32 153.422 92.3013 153.422 91C153.422 89.6987 153.763 88.68 154.446 87.944C155.139 87.208 156.088 86.84 157.294 86.84ZM157.294 87.944C156.483 87.944 155.848 88.216 155.39 88.76C154.931 89.304 154.702 90.0507 154.702 91C154.702 91.9493 154.931 92.696 155.39 93.24C155.848 93.784 156.483 94.056 157.294 94.056C158.104 94.056 158.739 93.784 159.198 93.24C159.656 92.696 159.886 91.9493 159.886 91C159.886 90.0507 159.656 89.304 159.198 88.76C158.739 88.216 158.104 87.944 157.294 87.944ZM166.372 95.16C165.604 95.16 164.911 95.0107 164.292 94.712C163.673 94.4027 163.22 93.9493 162.932 93.352L163.972 92.632C164.153 93.1013 164.468 93.4533 164.916 93.688C165.364 93.9227 165.892 94.04 166.5 94.04C167.129 94.04 167.609 93.928 167.94 93.704C168.271 93.48 168.436 93.1973 168.436 92.856C168.436 92.5467 168.281 92.3013 167.972 92.12C167.663 91.928 167.119 91.7627 166.34 91.624C165.572 91.4853 164.964 91.32 164.516 91.128C164.068 90.9253 163.743 90.6747 163.54 90.376C163.337 90.0667 163.236 89.688 163.236 89.24C163.236 88.8027 163.364 88.4027 163.62 88.04C163.876 87.6773 164.244 87.3893 164.724 87.176C165.204 86.952 165.759 86.84 166.388 86.84C167.241 86.84 167.924 87 168.436 87.32C168.959 87.6293 169.332 88.1093 169.556 88.76L168.468 89.4C168.297 88.888 168.036 88.52 167.684 88.296C167.343 88.072 166.911 87.96 166.388 87.96C165.865 87.96 165.423 88.0773 165.06 88.312C164.697 88.5467 164.516 88.8187 164.516 89.128C164.516 89.48 164.671 89.752 164.98 89.944C165.3 90.136 165.865 90.3013 166.676 90.44C167.785 90.6213 168.569 90.8933 169.028 91.256C169.487 91.6187 169.716 92.1307 169.716 92.792C169.716 93.2507 169.577 93.6613 169.3 94.024C169.033 94.376 168.644 94.6533 168.132 94.856C167.631 95.0587 167.044 95.16 166.372 95.16ZM172.73 85.464C172.442 85.464 172.207 85.3787 172.026 85.208C171.855 85.0267 171.77 84.792 171.77 84.504C171.77 84.216 171.855 83.9867 172.026 83.816C172.207 83.6347 172.442 83.544 172.73 83.544C173.018 83.544 173.247 83.6347 173.418 83.816C173.599 83.9867 173.69 84.216 173.69 84.504C173.69 84.792 173.599 85.0267 173.418 85.208C173.247 85.3787 173.018 85.464 172.73 85.464ZM173.37 95H172.09V87H173.37V95ZM179.06 95.16C178.292 95.16 177.598 95.0107 176.98 94.712C176.361 94.4027 175.908 93.9493 175.62 93.352L176.66 92.632C176.841 93.1013 177.156 93.4533 177.604 93.688C178.052 93.9227 178.58 94.04 179.188 94.04C179.817 94.04 180.297 93.928 180.628 93.704C180.958 93.48 181.124 93.1973 181.124 92.856C181.124 92.5467 180.969 92.3013 180.66 92.12C180.35 91.928 179.806 91.7627 179.028 91.624C178.26 91.4853 177.652 91.32 177.204 91.128C176.756 90.9253 176.43 90.6747 176.228 90.376C176.025 90.0667 175.924 89.688 175.924 89.24C175.924 88.8027 176.052 88.4027 176.308 88.04C176.564 87.6773 176.932 87.3893 177.412 87.176C177.892 86.952 178.446 86.84 179.076 86.84C179.929 86.84 180.612 87 181.124 87.32C181.646 87.6293 182.02 88.1093 182.244 88.76L181.156 89.4C180.985 88.888 180.724 88.52 180.372 88.296C180.03 88.072 179.598 87.96 179.076 87.96C178.553 87.96 178.11 88.0773 177.748 88.312C177.385 88.5467 177.204 88.8187 177.204 89.128C177.204 89.48 177.358 89.752 177.668 89.944C177.988 90.136 178.553 90.3013 179.364 90.44C180.473 90.6213 181.257 90.8933 181.716 91.256C182.174 91.6187 182.404 92.1307 182.404 92.792C182.404 93.2507 182.265 93.6613 181.988 94.024C181.721 94.376 181.332 94.6533 180.82 94.856C180.318 95.0587 179.732 95.16 179.06 95.16ZM190.87 85.464C190.582 85.464 190.348 85.3787 190.166 85.208C189.996 85.0267 189.91 84.792 189.91 84.504C189.91 84.216 189.996 83.9867 190.166 83.816C190.348 83.6347 190.582 83.544 190.87 83.544C191.158 83.544 191.388 83.6347 191.558 83.816C191.74 83.9867 191.83 84.216 191.83 84.504C191.83 84.792 191.74 85.0267 191.558 85.208C191.388 85.3787 191.158 85.464 190.87 85.464ZM191.51 95H190.23V87H191.51V95ZM198.368 86.84C199.275 86.84 200.022 87.1013 200.608 87.624C201.195 88.1467 201.488 88.8987 201.488 89.88V95H200.208V90.328C200.208 89.496 200.027 88.8933 199.664 88.52C199.312 88.1467 198.838 87.96 198.24 87.96C197.814 87.96 197.414 88.056 197.04 88.248C196.667 88.4293 196.358 88.7333 196.112 89.16C195.878 89.576 195.76 90.104 195.76 90.744V95H194.48V87H195.6L195.68 88.248C195.947 87.768 196.315 87.416 196.784 87.192C197.254 86.9573 197.782 86.84 198.368 86.84ZM207.106 95.16C206.338 95.16 205.645 95.0107 205.026 94.712C204.408 94.4027 203.954 93.9493 203.666 93.352L204.706 92.632C204.888 93.1013 205.202 93.4533 205.65 93.688C206.098 93.9227 206.626 94.04 207.234 94.04C207.864 94.04 208.344 93.928 208.674 93.704C209.005 93.48 209.17 93.1973 209.17 92.856C209.17 92.5467 209.016 92.3013 208.706 92.12C208.397 91.928 207.853 91.7627 207.074 91.624C206.306 91.4853 205.698 91.32 205.25 91.128C204.802 90.9253 204.477 90.6747 204.274 90.376C204.072 90.0667 203.97 89.688 203.97 89.24C203.97 88.8027 204.098 88.4027 204.354 88.04C204.61 87.6773 204.978 87.3893 205.458 87.176C205.938 86.952 206.493 86.84 207.122 86.84C207.976 86.84 208.658 87 209.17 87.32C209.693 87.6293 210.066 88.1093 210.29 88.76L209.202 89.4C209.032 88.888 208.77 88.52 208.418 88.296C208.077 88.072 207.645 87.96 207.122 87.96C206.6 87.96 206.157 88.0773 205.794 88.312C205.432 88.5467 205.25 88.8187 205.25 89.128C205.25 89.48 205.405 89.752 205.714 89.944C206.034 90.136 206.6 90.3013 207.41 90.44C208.52 90.6213 209.304 90.8933 209.762 91.256C210.221 91.6187 210.45 92.1307 210.45 92.792C210.45 93.2507 210.312 93.6613 210.034 94.024C209.768 94.376 209.378 94.6533 208.866 94.856C208.365 95.0587 207.778 95.16 207.106 95.16ZM217.72 94.44C217.187 94.92 216.499 95.16 215.656 95.16C215.005 95.16 214.472 94.984 214.056 94.632C213.651 94.28 213.443 93.7413 213.432 93.016V88.104H211.832V87H213.432V85.08L214.712 84.728V87H217.672V88.104H214.712V92.792C214.712 93.176 214.819 93.4693 215.032 93.672C215.256 93.864 215.549 93.96 215.912 93.96C216.424 93.96 216.877 93.7627 217.272 93.368L217.72 94.44ZM220.167 85.464C219.879 85.464 219.644 85.3787 219.463 85.208C219.292 85.0267 219.207 84.792 219.207 84.504C219.207 84.216 219.292 83.9867 219.463 83.816C219.644 83.6347 219.879 83.544 220.167 83.544C220.455 83.544 220.684 83.6347 220.855 83.816C221.036 83.9867 221.127 84.216 221.127 84.504C221.127 84.792 221.036 85.0267 220.855 85.208C220.684 85.3787 220.455 85.464 220.167 85.464ZM220.807 95H219.527V87H220.807V95ZM224.993 92.856C224.993 93.2613 225.052 93.544 225.169 93.704C225.297 93.8533 225.526 93.928 225.857 93.928C226.081 93.928 226.273 93.912 226.433 93.88C226.604 93.848 226.801 93.7893 227.025 93.704L226.817 94.936C226.465 95.0853 226.07 95.16 225.633 95.16C224.982 95.16 224.497 94.984 224.177 94.632C223.868 94.28 223.713 93.7413 223.713 93.016V83.32H224.993V92.856ZM229.884 92.856C229.884 93.2613 229.942 93.544 230.06 93.704C230.188 93.8533 230.417 93.928 230.748 93.928C230.972 93.928 231.164 93.912 231.324 93.88C231.494 93.848 231.692 93.7893 231.916 93.704L231.708 94.936C231.356 95.0853 230.961 95.16 230.524 95.16C229.873 95.16 229.388 94.984 229.068 94.632C228.758 94.28 228.604 93.7413 228.604 93.016V83.32H229.884V92.856ZM236.278 95.16C235.51 95.16 234.817 95.0107 234.198 94.712C233.58 94.4027 233.126 93.9493 232.838 93.352L233.878 92.632C234.06 93.1013 234.374 93.4533 234.822 93.688C235.27 93.9227 235.798 94.04 236.406 94.04C237.036 94.04 237.516 93.928 237.846 93.704C238.177 93.48 238.342 93.1973 238.342 92.856C238.342 92.5467 238.188 92.3013 237.878 92.12C237.569 91.928 237.025 91.7627 236.246 91.624C235.478 91.4853 234.87 91.32 234.422 91.128C233.974 90.9253 233.649 90.6747 233.446 90.376C233.244 90.0667 233.142 89.688 233.142 89.24C233.142 88.8027 233.27 88.4027 233.526 88.04C233.782 87.6773 234.15 87.3893 234.63 87.176C235.11 86.952 235.665 86.84 236.294 86.84C237.148 86.84 237.83 87 238.342 87.32C238.865 87.6293 239.238 88.1093 239.462 88.76L238.374 89.4C238.204 88.888 237.942 88.52 237.59 88.296C237.249 88.072 236.817 87.96 236.294 87.96C235.772 87.96 235.329 88.0773 234.966 88.312C234.604 88.5467 234.422 88.8187 234.422 89.128C234.422 89.48 234.577 89.752 234.886 89.944C235.206 90.136 235.772 90.3013 236.582 90.44C237.692 90.6213 238.476 90.8933 238.934 91.256C239.393 91.6187 239.622 92.1307 239.622 92.792C239.622 93.2507 239.484 93.6613 239.206 94.024C238.94 94.376 238.55 94.6533 238.038 94.856C237.537 95.0587 236.95 95.16 236.278 95.16ZM256.745 86.84C257.278 86.84 257.774 86.952 258.233 87.176C258.702 87.3893 259.081 87.7253 259.369 88.184C259.657 88.6427 259.801 89.208 259.801 89.88V95H258.521V90.008C258.521 89.3147 258.345 88.8027 257.993 88.472C257.652 88.1307 257.198 87.96 256.633 87.96C256.206 87.96 255.812 88.0667 255.449 88.28C255.097 88.4827 254.809 88.7867 254.585 89.192C254.372 89.5867 254.265 90.0613 254.265 90.616V95H252.985V90.008C252.985 89.3147 252.809 88.8027 252.457 88.472C252.116 88.1307 251.662 87.96 251.097 87.96C250.713 87.96 250.34 88.0613 249.977 88.264C249.614 88.456 249.316 88.76 249.081 89.176C248.846 89.592 248.729 90.1093 248.729 90.728V95H247.449V87H248.569L248.649 88.248C248.926 87.7787 249.289 87.4267 249.737 87.192C250.196 86.9573 250.686 86.84 251.209 86.84C251.796 86.84 252.334 86.9733 252.825 87.24C253.326 87.5067 253.705 87.896 253.961 88.408C254.196 87.896 254.58 87.5067 255.113 87.24C255.646 86.9733 256.19 86.84 256.745 86.84ZM266.075 86.84C267.28 86.84 268.224 87.208 268.907 87.944C269.6 88.68 269.947 89.6987 269.947 91C269.947 92.3013 269.6 93.32 268.907 94.056C268.224 94.792 267.28 95.16 266.075 95.16C264.87 95.16 263.92 94.792 263.227 94.056C262.544 93.32 262.203 92.3013 262.203 91C262.203 89.6987 262.544 88.68 263.227 87.944C263.92 87.208 264.87 86.84 266.075 86.84ZM266.075 87.944C265.264 87.944 264.63 88.216 264.171 88.76C263.712 89.304 263.483 90.0507 263.483 91C263.483 91.9493 263.712 92.696 264.171 93.24C264.63 93.784 265.264 94.056 266.075 94.056C266.886 94.056 267.52 93.784 267.979 93.24C268.438 92.696 268.667 91.9493 268.667 91C268.667 90.0507 268.438 89.304 267.979 88.76C267.52 88.216 266.886 87.944 266.075 87.944ZM277.189 94.44C276.655 94.92 275.967 95.16 275.125 95.16C274.474 95.16 273.941 94.984 273.525 94.632C273.119 94.28 272.911 93.7413 272.901 93.016V88.104H271.301V87H272.901V85.08L274.181 84.728V87H277.141V88.104H274.181V92.792C274.181 93.176 274.287 93.4693 274.501 93.672C274.725 93.864 275.018 93.96 275.381 93.96C275.893 93.96 276.346 93.7627 276.741 93.368L277.189 94.44ZM279.636 85.464C279.348 85.464 279.113 85.3787 278.932 85.208C278.761 85.0267 278.676 84.792 278.676 84.504C278.676 84.216 278.761 83.9867 278.932 83.816C279.113 83.6347 279.348 83.544 279.636 83.544C279.924 83.544 280.153 83.6347 280.324 83.816C280.505 83.9867 280.596 84.216 280.596 84.504C280.596 84.792 280.505 85.0267 280.324 85.208C280.153 85.3787 279.924 85.464 279.636 85.464ZM280.276 95H278.996V87H280.276V95ZM289.886 87L286.558 95H285.278L281.95 87H283.406L285.934 93.704L288.542 87H289.886ZM297.915 94.072C298.129 94.072 298.342 94.0453 298.555 93.992L298.475 95C298.177 95.1067 297.857 95.16 297.515 95.16C297.099 95.16 296.769 95.0693 296.523 94.888C296.289 94.7067 296.139 94.4027 296.075 93.976C295.83 94.3493 295.467 94.6427 294.987 94.856C294.518 95.0587 294.022 95.16 293.499 95.16C292.71 95.16 292.059 94.9787 291.547 94.616C291.035 94.2427 290.779 93.7093 290.779 93.016C290.779 92.408 291.046 91.8853 291.579 91.448C292.113 91 292.886 90.6907 293.899 90.52L296.027 90.168V89.72C296.027 89.1867 295.862 88.76 295.531 88.44C295.201 88.12 294.742 87.96 294.155 87.96C293.622 87.96 293.158 88.088 292.763 88.344C292.379 88.6 292.081 88.9787 291.867 89.48L290.923 88.792C291.137 88.1947 291.531 87.72 292.107 87.368C292.694 87.016 293.377 86.84 294.155 86.84C295.105 86.84 295.867 87.0693 296.443 87.528C297.019 87.9867 297.307 88.664 297.307 89.56V93.496C297.307 93.688 297.355 93.832 297.451 93.928C297.547 94.024 297.702 94.072 297.915 94.072ZM293.563 94.04C294.235 94.04 294.811 93.88 295.291 93.56C295.782 93.24 296.027 92.824 296.027 92.312V91.208L294.235 91.544C293.521 91.672 292.987 91.8587 292.635 92.104C292.283 92.3387 292.107 92.6427 292.107 93.016C292.107 93.3467 292.235 93.6027 292.491 93.784C292.747 93.9547 293.105 94.04 293.563 94.04ZM305.001 94.44C304.468 94.92 303.78 95.16 302.937 95.16C302.287 95.16 301.753 94.984 301.337 94.632C300.932 94.28 300.724 93.7413 300.713 93.016V88.104H299.113V87H300.713V85.08L301.993 84.728V87H304.953V88.104H301.993V92.792C301.993 93.176 302.1 93.4693 302.313 93.672C302.537 93.864 302.831 93.96 303.193 93.96C303.705 93.96 304.159 93.7627 304.553 93.368L305.001 94.44ZM307.448 85.464C307.16 85.464 306.926 85.3787 306.744 85.208C306.574 85.0267 306.488 84.792 306.488 84.504C306.488 84.216 306.574 83.9867 306.744 83.816C306.926 83.6347 307.16 83.544 307.448 83.544C307.736 83.544 307.966 83.6347 308.136 83.816C308.318 83.9867 308.408 84.216 308.408 84.504C308.408 84.792 308.318 85.0267 308.136 85.208C307.966 85.3787 307.736 85.464 307.448 85.464ZM308.088 95H306.808V87H308.088V95ZM314.434 86.84C315.64 86.84 316.584 87.208 317.266 87.944C317.96 88.68 318.306 89.6987 318.306 91C318.306 92.3013 317.96 93.32 317.266 94.056C316.584 94.792 315.64 95.16 314.434 95.16C313.229 95.16 312.28 94.792 311.586 94.056C310.904 93.32 310.562 92.3013 310.562 91C310.562 89.6987 310.904 88.68 311.586 87.944C312.28 87.208 313.229 86.84 314.434 86.84ZM314.434 87.944C313.624 87.944 312.989 88.216 312.53 88.76C312.072 89.304 311.842 90.0507 311.842 91C311.842 91.9493 312.072 92.696 312.53 93.24C312.989 93.784 313.624 94.056 314.434 94.056C315.245 94.056 315.88 93.784 316.338 93.24C316.797 92.696 317.026 91.9493 317.026 91C317.026 90.0507 316.797 89.304 316.338 88.76C315.88 88.216 315.245 87.944 314.434 87.944ZM324.681 86.84C325.587 86.84 326.334 87.1013 326.921 87.624C327.507 88.1467 327.801 88.8987 327.801 89.88V95H326.521V90.328C326.521 89.496 326.339 88.8933 325.977 88.52C325.625 88.1467 325.15 87.96 324.553 87.96C324.126 87.96 323.726 88.056 323.353 88.248C322.979 88.4293 322.67 88.7333 322.425 89.16C322.19 89.576 322.073 90.104 322.073 90.744V95H320.793V87H321.913L321.993 88.248C322.259 87.768 322.627 87.416 323.097 87.192C323.566 86.9573 324.094 86.84 324.681 86.84ZM46.0012 115.44C45.4679 115.92 44.7799 116.16 43.9372 116.16C43.2865 116.16 42.7532 115.984 42.3372 115.632C41.9319 115.28 41.7239 114.741 41.7132 114.016V109.104H40.1132V108H41.7132V106.08L42.9932 105.728V108H45.9532V109.104H42.9932V113.792C42.9932 114.176 43.0999 114.469 43.3132 114.672C43.5372 114.864 43.8305 114.96 44.1932 114.96C44.7052 114.96 45.1585 114.763 45.5532 114.368L46.0012 115.44ZM51.1843 107.84C52.3896 107.84 53.3336 108.208 54.0163 108.944C54.7096 109.68 55.0563 110.699 55.0563 112C55.0563 113.301 54.7096 114.32 54.0163 115.056C53.3336 115.792 52.3896 116.16 51.1843 116.16C49.979 116.16 49.0296 115.792 48.3363 115.056C47.6536 114.32 47.3123 113.301 47.3123 112C47.3123 110.699 47.6536 109.68 48.3363 108.944C49.0296 108.208 49.979 107.84 51.1843 107.84ZM51.1843 108.944C50.3736 108.944 49.739 109.216 49.2803 109.76C48.8216 110.304 48.5923 111.051 48.5923 112C48.5923 112.949 48.8216 113.696 49.2803 114.24C49.739 114.784 50.3736 115.056 51.1843 115.056C51.995 115.056 52.6296 114.784 53.0883 114.24C53.547 113.696 53.7763 112.949 53.7763 112C53.7763 111.051 53.547 110.304 53.0883 109.76C52.6296 109.216 51.995 108.944 51.1843 108.944ZM72.2918 107.84C72.8251 107.84 73.3211 107.952 73.7798 108.176C74.2491 108.389 74.6278 108.725 74.9158 109.184C75.2038 109.643 75.3478 110.208 75.3478 110.88V116H74.0678V111.008C74.0678 110.315 73.8918 109.803 73.5398 109.472C73.1985 109.131 72.7451 108.96 72.1798 108.96C71.7531 108.96 71.3585 109.067 70.9958 109.28C70.6438 109.483 70.3558 109.787 70.1318 110.192C69.9185 110.587 69.8118 111.061 69.8118 111.616V116H68.5318V111.008C68.5318 110.315 68.3558 109.803 68.0038 109.472C67.6625 109.131 67.2091 108.96 66.6438 108.96C66.2598 108.96 65.8865 109.061 65.5238 109.264C65.1611 109.456 64.8625 109.76 64.6278 110.176C64.3931 110.592 64.2758 111.109 64.2758 111.728V116H62.9958V108H64.1158L64.1958 109.248C64.4731 108.779 64.8358 108.427 65.2838 108.192C65.7425 107.957 66.2331 107.84 66.7558 107.84C67.3425 107.84 67.8811 107.973 68.3718 108.24C68.8731 108.507 69.2518 108.896 69.5078 109.408C69.7425 108.896 70.1265 108.507 70.6598 108.24C71.1931 107.973 71.7371 107.84 72.2918 107.84ZM84.8058 115.072C85.0191 115.072 85.2325 115.045 85.4458 114.992L85.3658 116C85.0671 116.107 84.7471 116.16 84.4058 116.16C83.9898 116.16 83.6591 116.069 83.4138 115.888C83.1791 115.707 83.0298 115.403 82.9658 114.976C82.7205 115.349 82.3578 115.643 81.8778 115.856C81.4085 116.059 80.9125 116.16 80.3898 116.16C79.6005 116.16 78.9498 115.979 78.4378 115.616C77.9258 115.243 77.6698 114.709 77.6698 114.016C77.6698 113.408 77.9365 112.885 78.4698 112.448C79.0031 112 79.7765 111.691 80.7898 111.52L82.9178 111.168V110.72C82.9178 110.187 82.7525 109.76 82.4218 109.44C82.0911 109.12 81.6325 108.96 81.0458 108.96C80.5125 108.96 80.0485 109.088 79.6538 109.344C79.2698 109.6 78.9711 109.979 78.7578 110.48L77.8138 109.792C78.0271 109.195 78.4218 108.72 78.9978 108.368C79.5845 108.016 80.2671 107.84 81.0458 107.84C81.9951 107.84 82.7578 108.069 83.3338 108.528C83.9098 108.987 84.1978 109.664 84.1978 110.56V114.496C84.1978 114.688 84.2458 114.832 84.3418 114.928C84.4378 115.024 84.5925 115.072 84.8058 115.072ZM80.4538 115.04C81.1258 115.04 81.7018 114.88 82.1818 114.56C82.6725 114.24 82.9178 113.824 82.9178 113.312V112.208L81.1258 112.544C80.4111 112.672 79.8778 112.859 79.5258 113.104C79.1738 113.339 78.9978 113.643 78.9978 114.016C78.9978 114.347 79.1258 114.603 79.3818 114.784C79.6378 114.955 79.9951 115.04 80.4538 115.04ZM90.2843 112.048L88.5883 113.744V116H87.3083V104.32H88.5883V112.144L92.7323 108H94.3323L91.2123 111.12L94.5243 116H92.9723L90.2843 112.048ZM102.969 111.584C102.969 111.883 102.948 112.181 102.905 112.48H96.8732C96.9479 113.291 97.2145 113.92 97.6732 114.368C98.1425 114.816 98.7452 115.04 99.4812 115.04C100.068 115.04 100.553 114.939 100.937 114.736C101.332 114.533 101.599 114.24 101.737 113.856L102.809 114.416C102.489 114.981 102.063 115.413 101.529 115.712C100.996 116.011 100.313 116.16 99.4812 116.16C98.2759 116.16 97.3265 115.792 96.6332 115.056C95.9505 114.32 95.6092 113.301 95.6092 112C95.6092 110.699 95.9345 109.68 96.5852 108.944C97.2465 108.208 98.1799 107.84 99.3852 107.84C100.132 107.84 100.777 108.005 101.321 108.336C101.865 108.667 102.276 109.115 102.553 109.68C102.831 110.245 102.969 110.88 102.969 111.584ZM99.3852 108.96C98.6812 108.96 98.1105 109.168 97.6732 109.584C97.2465 110 96.9852 110.587 96.8892 111.344H101.737C101.652 110.597 101.407 110.016 101.001 109.6C100.596 109.173 100.057 108.96 99.3852 108.96ZM117.959 104.32V116H116.839L116.759 114.608C116.525 115.077 116.162 115.456 115.671 115.744C115.191 116.021 114.642 116.16 114.023 116.16C112.903 116.16 112.013 115.792 111.351 115.056C110.701 114.309 110.375 113.291 110.375 112C110.375 110.709 110.701 109.696 111.351 108.96C112.013 108.213 112.903 107.84 114.023 107.84C114.61 107.84 115.133 107.968 115.591 108.224C116.061 108.48 116.423 108.821 116.679 109.248V104.32H117.959ZM114.167 115.04C114.935 115.04 115.543 114.773 115.991 114.24C116.45 113.707 116.679 112.992 116.679 112.096V111.904C116.679 111.008 116.45 110.293 115.991 109.76C115.543 109.227 114.935 108.96 114.167 108.96C113.389 108.96 112.775 109.237 112.327 109.792C111.879 110.336 111.655 111.072 111.655 112C111.655 112.928 111.879 113.669 112.327 114.224C112.775 114.768 113.389 115.04 114.167 115.04ZM124.709 107.84C125.093 107.84 125.387 107.893 125.589 108L125.333 109.248C125.077 109.109 124.741 109.04 124.325 109.04C123.984 109.04 123.648 109.141 123.317 109.344C122.997 109.536 122.731 109.835 122.517 110.24C122.315 110.635 122.213 111.115 122.213 111.68V116H120.933V108H121.973L122.149 109.312C122.597 108.331 123.451 107.84 124.709 107.84ZM133.806 115.072C134.019 115.072 134.232 115.045 134.446 114.992L134.366 116C134.067 116.107 133.747 116.16 133.406 116.16C132.99 116.16 132.659 116.069 132.414 115.888C132.179 115.707 132.03 115.403 131.966 114.976C131.72 115.349 131.358 115.643 130.878 115.856C130.408 116.059 129.912 116.16 129.39 116.16C128.6 116.16 127.95 115.979 127.438 115.616C126.926 115.243 126.67 114.709 126.67 114.016C126.67 113.408 126.936 112.885 127.47 112.448C128.003 112 128.776 111.691 129.79 111.52L131.918 111.168V110.72C131.918 110.187 131.752 109.76 131.422 109.44C131.091 109.12 130.632 108.96 130.046 108.96C129.512 108.96 129.048 109.088 128.654 109.344C128.27 109.6 127.971 109.979 127.758 110.48L126.814 109.792C127.027 109.195 127.422 108.72 127.998 108.368C128.584 108.016 129.267 107.84 130.046 107.84C130.995 107.84 131.758 108.069 132.334 108.528C132.91 108.987 133.198 109.664 133.198 110.56V114.496C133.198 114.688 133.246 114.832 133.342 114.928C133.438 115.024 133.592 115.072 133.806 115.072ZM129.454 115.04C130.126 115.04 130.702 114.88 131.182 114.56C131.672 114.24 131.918 113.824 131.918 113.312V112.208L130.126 112.544C129.411 112.672 128.878 112.859 128.526 113.104C128.174 113.339 127.998 113.643 127.998 114.016C127.998 114.347 128.126 114.603 128.382 114.784C128.638 114.955 128.995 115.04 129.454 115.04ZM139.028 116.16C138.26 116.16 137.567 116.011 136.948 115.712C136.33 115.403 135.876 114.949 135.588 114.352L136.628 113.632C136.81 114.101 137.124 114.453 137.572 114.688C138.02 114.923 138.548 115.04 139.156 115.04C139.786 115.04 140.266 114.928 140.596 114.704C140.927 114.48 141.092 114.197 141.092 113.856C141.092 113.547 140.938 113.301 140.628 113.12C140.319 112.928 139.775 112.763 138.996 112.624C138.228 112.485 137.62 112.32 137.172 112.128C136.724 111.925 136.399 111.675 136.196 111.376C135.994 111.067 135.892 110.688 135.892 110.24C135.892 109.803 136.02 109.403 136.276 109.04C136.532 108.677 136.9 108.389 137.38 108.176C137.86 107.952 138.415 107.84 139.044 107.84C139.898 107.84 140.58 108 141.092 108.32C141.615 108.629 141.988 109.109 142.212 109.76L141.124 110.4C140.954 109.888 140.692 109.52 140.34 109.296C139.999 109.072 139.567 108.96 139.044 108.96C138.522 108.96 138.079 109.077 137.716 109.312C137.354 109.547 137.172 109.819 137.172 110.128C137.172 110.48 137.327 110.752 137.636 110.944C137.956 111.136 138.522 111.301 139.332 111.44C140.442 111.621 141.226 111.893 141.684 112.256C142.143 112.619 142.372 113.131 142.372 113.792C142.372 114.251 142.234 114.661 141.956 115.024C141.69 115.376 141.3 115.653 140.788 115.856C140.287 116.059 139.7 116.16 139.028 116.16ZM149.642 115.44C149.108 115.92 148.42 116.16 147.578 116.16C146.927 116.16 146.394 115.984 145.978 115.632C145.572 115.28 145.364 114.741 145.354 114.016V109.104H143.754V108H145.354V106.08L146.634 105.728V108H149.594V109.104H146.634V113.792C146.634 114.176 146.74 114.469 146.954 114.672C147.178 114.864 147.471 114.96 147.834 114.96C148.346 114.96 148.799 114.763 149.194 114.368L149.642 115.44ZM152.089 106.464C151.801 106.464 151.566 106.379 151.385 106.208C151.214 106.027 151.129 105.792 151.129 105.504C151.129 105.216 151.214 104.987 151.385 104.816C151.566 104.635 151.801 104.544 152.089 104.544C152.377 104.544 152.606 104.635 152.777 104.816C152.958 104.987 153.049 105.216 153.049 105.504C153.049 105.792 152.958 106.027 152.777 106.208C152.606 106.379 152.377 106.464 152.089 106.464ZM152.729 116H151.449V108H152.729V116ZM159.075 107.84C159.875 107.84 160.547 108.027 161.091 108.4C161.646 108.763 162.078 109.285 162.387 109.968L161.171 110.544C160.83 109.488 160.12 108.96 159.043 108.96C158.243 108.96 157.614 109.232 157.155 109.776C156.707 110.309 156.483 111.051 156.483 112C156.483 112.949 156.707 113.696 157.155 114.24C157.614 114.773 158.243 115.04 159.043 115.04C159.662 115.04 160.158 114.901 160.531 114.624C160.915 114.336 161.166 113.925 161.283 113.392L162.467 113.808C162.19 114.555 161.763 115.136 161.187 115.552C160.611 115.957 159.907 116.16 159.075 116.16C157.87 116.16 156.92 115.792 156.227 115.056C155.544 114.32 155.203 113.301 155.203 112C155.203 110.699 155.544 109.68 156.227 108.944C156.92 108.208 157.87 107.84 159.075 107.84ZM173.559 107.84C174.359 107.84 175.031 108.027 175.575 108.4C176.13 108.763 176.562 109.285 176.871 109.968L175.655 110.544C175.314 109.488 174.605 108.96 173.527 108.96C172.727 108.96 172.098 109.232 171.639 109.776C171.191 110.309 170.967 111.051 170.967 112C170.967 112.949 171.191 113.696 171.639 114.24C172.098 114.773 172.727 115.04 173.527 115.04C174.146 115.04 174.642 114.901 175.015 114.624C175.399 114.336 175.65 113.925 175.767 113.392L176.951 113.808C176.674 114.555 176.247 115.136 175.671 115.552C175.095 115.957 174.391 116.16 173.559 116.16C172.354 116.16 171.405 115.792 170.711 115.056C170.029 114.32 169.687 113.301 169.687 112C169.687 110.699 170.029 109.68 170.711 108.944C171.405 108.208 172.354 107.84 173.559 107.84ZM183.103 107.84C184.009 107.84 184.756 108.101 185.343 108.624C185.929 109.147 186.223 109.899 186.223 110.88V116H184.943V111.328C184.943 110.496 184.761 109.893 184.399 109.52C184.047 109.147 183.572 108.96 182.975 108.96C182.559 108.96 182.159 109.056 181.775 109.248C181.401 109.44 181.092 109.749 180.847 110.176C180.612 110.592 180.495 111.12 180.495 111.76V116H179.215V104.32H180.495V109.2C180.761 108.741 181.119 108.4 181.567 108.176C182.025 107.952 182.537 107.84 183.103 107.84ZM195.681 115.072C195.894 115.072 196.107 115.045 196.321 114.992L196.241 116C195.942 116.107 195.622 116.16 195.281 116.16C194.865 116.16 194.534 116.069 194.289 115.888C194.054 115.707 193.905 115.403 193.841 114.976C193.595 115.349 193.233 115.643 192.753 115.856C192.283 116.059 191.787 116.16 191.265 116.16C190.475 116.16 189.825 115.979 189.313 115.616C188.801 115.243 188.545 114.709 188.545 114.016C188.545 113.408 188.811 112.885 189.345 112.448C189.878 112 190.651 111.691 191.665 111.52L193.793 111.168V110.72C193.793 110.187 193.627 109.76 193.297 109.44C192.966 109.12 192.507 108.96 191.921 108.96C191.387 108.96 190.923 109.088 190.529 109.344C190.145 109.6 189.846 109.979 189.633 110.48L188.689 109.792C188.902 109.195 189.297 108.72 189.873 108.368C190.459 108.016 191.142 107.84 191.921 107.84C192.87 107.84 193.633 108.069 194.209 108.528C194.785 108.987 195.073 109.664 195.073 110.56V114.496C195.073 114.688 195.121 114.832 195.217 114.928C195.313 115.024 195.467 115.072 195.681 115.072ZM191.329 115.04C192.001 115.04 192.577 114.88 193.057 114.56C193.547 114.24 193.793 113.824 193.793 113.312V112.208L192.001 112.544C191.286 112.672 190.753 112.859 190.401 113.104C190.049 113.339 189.873 113.643 189.873 114.016C189.873 114.347 190.001 114.603 190.257 114.784C190.513 114.955 190.87 115.04 191.329 115.04ZM202.071 107.84C202.978 107.84 203.725 108.101 204.311 108.624C204.898 109.147 205.191 109.899 205.191 110.88V116H203.911V111.328C203.911 110.496 203.73 109.893 203.367 109.52C203.015 109.147 202.541 108.96 201.943 108.96C201.517 108.96 201.117 109.056 200.743 109.248C200.37 109.429 200.061 109.733 199.815 110.16C199.581 110.576 199.463 111.104 199.463 111.744V116H198.183V108H199.303L199.383 109.248C199.65 108.768 200.018 108.416 200.487 108.192C200.957 107.957 201.485 107.84 202.071 107.84ZM212.554 114.976C213.311 114.976 213.903 115.147 214.33 115.488C214.756 115.829 214.97 116.293 214.97 116.88C214.97 117.392 214.794 117.84 214.442 118.224C214.09 118.619 213.61 118.917 213.002 119.12C212.404 119.333 211.743 119.44 211.018 119.44C209.802 119.44 208.884 119.243 208.266 118.848C207.647 118.464 207.338 117.957 207.338 117.328C207.338 116.965 207.46 116.645 207.706 116.368C207.962 116.091 208.308 115.893 208.746 115.776C208.415 115.616 208.148 115.413 207.946 115.168C207.754 114.923 207.658 114.635 207.658 114.304C207.658 113.909 207.764 113.584 207.978 113.328C208.191 113.061 208.484 112.864 208.858 112.736C208.474 112.501 208.18 112.197 207.978 111.824C207.786 111.44 207.69 111.013 207.69 110.544C207.69 110.021 207.828 109.557 208.106 109.152C208.383 108.736 208.772 108.416 209.274 108.192C209.775 107.957 210.34 107.84 210.97 107.84C211.567 107.84 212.111 107.947 212.602 108.16C212.9 107.072 213.652 106.528 214.858 106.528L215.146 107.648C214.1 107.648 213.466 107.941 213.242 108.528C213.562 108.773 213.807 109.067 213.978 109.408C214.159 109.749 214.25 110.128 214.25 110.544C214.25 111.067 214.111 111.536 213.834 111.952C213.556 112.357 213.167 112.677 212.666 112.912C212.164 113.136 211.599 113.248 210.97 113.248C210.5 113.248 210.09 113.2 209.738 113.104C209.418 113.179 209.188 113.296 209.05 113.456C208.911 113.616 208.842 113.835 208.842 114.112C208.842 114.389 208.938 114.603 209.13 114.752C209.322 114.901 209.578 114.976 209.898 114.976H212.554ZM210.97 108.88C210.415 108.88 209.951 109.035 209.578 109.344C209.204 109.653 209.018 110.053 209.018 110.544C209.018 111.035 209.204 111.435 209.578 111.744C209.951 112.053 210.415 112.208 210.97 112.208C211.524 112.208 211.988 112.053 212.362 111.744C212.735 111.435 212.922 111.035 212.922 110.544C212.922 110.053 212.735 109.653 212.362 109.344C211.988 109.035 211.524 108.88 210.97 108.88ZM211.162 118.368C211.972 118.368 212.612 118.235 213.082 117.968C213.551 117.712 213.786 117.397 213.786 117.024C213.786 116.715 213.663 116.48 213.418 116.32C213.183 116.16 212.778 116.08 212.202 116.08H210.058C209.567 116.08 209.188 116.165 208.922 116.336C208.655 116.517 208.522 116.763 208.522 117.072C208.522 117.477 208.746 117.792 209.194 118.016C209.642 118.251 210.298 118.368 211.162 118.368ZM223.735 111.584C223.735 111.883 223.713 112.181 223.671 112.48H217.639C217.713 113.291 217.98 113.92 218.439 114.368C218.908 114.816 219.511 115.04 220.247 115.04C220.833 115.04 221.319 114.939 221.703 114.736C222.097 114.533 222.364 114.24 222.503 113.856L223.575 114.416C223.255 114.981 222.828 115.413 222.295 115.712C221.761 116.011 221.079 116.16 220.247 116.16C219.041 116.16 218.092 115.792 217.399 115.056C216.716 114.32 216.375 113.301 216.375 112C216.375 110.699 216.7 109.68 217.351 108.944C218.012 108.208 218.945 107.84 220.151 107.84C220.897 107.84 221.543 108.005 222.087 108.336C222.631 108.667 223.041 109.115 223.319 109.68C223.596 110.245 223.735 110.88 223.735 111.584ZM220.151 108.96C219.447 108.96 218.876 109.168 218.439 109.584C218.012 110 217.751 110.587 217.655 111.344H222.503C222.417 110.597 222.172 110.016 221.767 109.6C221.361 109.173 220.823 108.96 220.151 108.96ZM228.888 116.16C228.12 116.16 227.426 116.011 226.808 115.712C226.189 115.403 225.736 114.949 225.448 114.352L226.488 113.632C226.669 114.101 226.984 114.453 227.432 114.688C227.88 114.923 228.408 115.04 229.016 115.04C229.645 115.04 230.125 114.928 230.456 114.704C230.786 114.48 230.952 114.197 230.952 113.856C230.952 113.547 230.797 113.301 230.488 113.12C230.178 112.928 229.634 112.763 228.856 112.624C228.088 112.485 227.48 112.32 227.032 112.128C226.584 111.925 226.258 111.675 226.056 111.376C225.853 111.067 225.752 110.688 225.752 110.24C225.752 109.803 225.88 109.403 226.136 109.04C226.392 108.677 226.76 108.389 227.24 108.176C227.72 107.952 228.274 107.84 228.904 107.84C229.757 107.84 230.44 108 230.952 108.32C231.474 108.629 231.848 109.109 232.072 109.76L230.984 110.4C230.813 109.888 230.552 109.52 230.2 109.296C229.858 109.072 229.426 108.96 228.904 108.96C228.381 108.96 227.938 109.077 227.576 109.312C227.213 109.547 227.032 109.819 227.032 110.128C227.032 110.48 227.186 110.752 227.496 110.944C227.816 111.136 228.381 111.301 229.192 111.44C230.301 111.621 231.085 111.893 231.544 112.256C232.002 112.619 232.232 113.131 232.232 113.792C232.232 114.251 232.093 114.661 231.816 115.024C231.549 115.376 231.16 115.653 230.648 115.856C230.146 116.059 229.56 116.16 228.888 116.16ZM241.665 108H244.337V109.104H241.665V116H240.385V109.104H238.785V108H240.385V106.656C240.385 105.92 240.609 105.333 241.057 104.896C241.505 104.459 242.156 104.24 243.009 104.24C243.297 104.24 243.559 104.272 243.793 104.336C244.039 104.4 244.231 104.491 244.369 104.608L244.033 105.648C243.777 105.488 243.473 105.408 243.121 105.408C242.151 105.408 241.665 105.867 241.665 106.784V108ZM249.2 107.84C250.405 107.84 251.349 108.208 252.032 108.944C252.725 109.68 253.072 110.699 253.072 112C253.072 113.301 252.725 114.32 252.032 115.056C251.349 115.792 250.405 116.16 249.2 116.16C247.995 116.16 247.045 115.792 246.352 115.056C245.669 114.32 245.328 113.301 245.328 112C245.328 110.699 245.669 109.68 246.352 108.944C247.045 108.208 247.995 107.84 249.2 107.84ZM249.2 108.944C248.389 108.944 247.755 109.216 247.296 109.76C246.837 110.304 246.608 111.051 246.608 112C246.608 112.949 246.837 113.696 247.296 114.24C247.755 114.784 248.389 115.056 249.2 115.056C250.011 115.056 250.645 114.784 251.104 114.24C251.563 113.696 251.792 112.949 251.792 112C251.792 111.051 251.563 110.304 251.104 109.76C250.645 109.216 250.011 108.944 249.2 108.944ZM259.334 107.84C259.718 107.84 260.012 107.893 260.214 108L259.958 109.248C259.702 109.109 259.366 109.04 258.95 109.04C258.609 109.04 258.273 109.141 257.942 109.344C257.622 109.536 257.356 109.835 257.142 110.24C256.94 110.635 256.838 111.115 256.838 111.68V116H255.558V108H256.598L256.774 109.312C257.222 108.331 258.076 107.84 259.334 107.84ZM271.056 107.84C271.962 107.84 272.709 108.101 273.296 108.624C273.882 109.147 274.176 109.899 274.176 110.88V116H272.896V111.328C272.896 110.496 272.714 109.893 272.352 109.52C272 109.147 271.525 108.96 270.928 108.96C270.512 108.96 270.112 109.056 269.728 109.248C269.354 109.44 269.045 109.749 268.8 110.176C268.565 110.592 268.448 111.12 268.448 111.76V116H267.168V104.32H268.448V109.2C268.714 108.741 269.072 108.4 269.52 108.176C269.978 107.952 270.49 107.84 271.056 107.84ZM283.938 111.584C283.938 111.883 283.917 112.181 283.874 112.48H277.842C277.917 113.291 278.183 113.92 278.642 114.368C279.111 114.816 279.714 115.04 280.45 115.04C281.037 115.04 281.522 114.939 281.906 114.736C282.301 114.533 282.567 114.24 282.706 113.856L283.778 114.416C283.458 114.981 283.031 115.413 282.498 115.712C281.965 116.011 281.282 116.16 280.45 116.16C279.245 116.16 278.295 115.792 277.602 115.056C276.919 114.32 276.578 113.301 276.578 112C276.578 110.699 276.903 109.68 277.554 108.944C278.215 108.208 279.149 107.84 280.354 107.84C281.101 107.84 281.746 108.005 282.29 108.336C282.834 108.667 283.245 109.115 283.522 109.68C283.799 110.245 283.938 110.88 283.938 111.584ZM280.354 108.96C279.65 108.96 279.079 109.168 278.642 109.584C278.215 110 277.954 110.587 277.858 111.344H282.706C282.621 110.597 282.375 110.016 281.97 109.6C281.565 109.173 281.026 108.96 280.354 108.96ZM292.931 115.072C293.144 115.072 293.357 115.045 293.571 114.992L293.491 116C293.192 116.107 292.872 116.16 292.531 116.16C292.115 116.16 291.784 116.069 291.539 115.888C291.304 115.707 291.155 115.403 291.091 114.976C290.845 115.349 290.483 115.643 290.003 115.856C289.533 116.059 289.037 116.16 288.515 116.16C287.725 116.16 287.075 115.979 286.563 115.616C286.051 115.243 285.795 114.709 285.795 114.016C285.795 113.408 286.061 112.885 286.595 112.448C287.128 112 287.901 111.691 288.915 111.52L291.043 111.168V110.72C291.043 110.187 290.877 109.76 290.547 109.44C290.216 109.12 289.757 108.96 289.171 108.96C288.637 108.96 288.173 109.088 287.779 109.344C287.395 109.6 287.096 109.979 286.883 110.48L285.939 109.792C286.152 109.195 286.547 108.72 287.123 108.368C287.709 108.016 288.392 107.84 289.171 107.84C290.12 107.84 290.883 108.069 291.459 108.528C292.035 108.987 292.323 109.664 292.323 110.56V114.496C292.323 114.688 292.371 114.832 292.467 114.928C292.563 115.024 292.717 115.072 292.931 115.072ZM288.579 115.04C289.251 115.04 289.827 114.88 290.307 114.56C290.797 114.24 291.043 113.824 291.043 113.312V112.208L289.251 112.544C288.536 112.672 288.003 112.859 287.651 113.104C287.299 113.339 287.123 113.643 287.123 114.016C287.123 114.347 287.251 114.603 287.507 114.784C287.763 114.955 288.12 115.04 288.579 115.04ZM296.649 113.856C296.649 114.261 296.708 114.544 296.825 114.704C296.953 114.853 297.183 114.928 297.513 114.928C297.737 114.928 297.929 114.912 298.089 114.88C298.26 114.848 298.457 114.789 298.681 114.704L298.473 115.936C298.121 116.085 297.727 116.16 297.289 116.16C296.639 116.16 296.153 115.984 295.833 115.632C295.524 115.28 295.369 114.741 295.369 114.016V104.32H296.649V113.856ZM304.907 115.44C304.374 115.92 303.686 116.16 302.843 116.16C302.193 116.16 301.659 115.984 301.243 115.632C300.838 115.28 300.63 114.741 300.619 114.016V109.104H299.019V108H300.619V106.08L301.899 105.728V108H304.859V109.104H301.899V113.792C301.899 114.176 302.006 114.469 302.219 114.672C302.443 114.864 302.737 114.96 303.099 114.96C303.611 114.96 304.065 114.763 304.459 114.368L304.907 115.44ZM310.603 107.84C311.509 107.84 312.256 108.101 312.843 108.624C313.429 109.147 313.723 109.899 313.723 110.88V116H312.443V111.328C312.443 110.496 312.261 109.893 311.899 109.52C311.547 109.147 311.072 108.96 310.475 108.96C310.059 108.96 309.659 109.056 309.275 109.248C308.901 109.44 308.592 109.749 308.347 110.176C308.112 110.592 307.995 111.12 307.995 111.76V116H306.715V104.32H307.995V109.2C308.261 108.741 308.619 108.4 309.067 108.176C309.525 107.952 310.037 107.84 310.603 107.84ZM317.261 114.08C317.57 114.08 317.821 114.176 318.013 114.368C318.205 114.56 318.301 114.811 318.301 115.12C318.301 115.429 318.205 115.68 318.013 115.872C317.821 116.064 317.57 116.16 317.261 116.16C316.951 116.16 316.701 116.064 316.509 115.872C316.317 115.68 316.221 115.429 316.221 115.12C316.221 114.811 316.317 114.56 316.509 114.368C316.701 114.176 316.951 114.08 317.261 114.08Z" fill="#333333"/>
<path d="M99.5418 33.88V55H96.0858V45.784H85.6538V55H82.2298V33.88H85.6538V42.84H96.0858V33.88H99.5418ZM119.398 46.52C119.398 47.1387 119.355 47.7253 119.27 48.28H107.558C107.75 49.688 108.251 50.7653 109.062 51.512C109.872 52.2373 110.918 52.6 112.198 52.6C113.243 52.6 114.107 52.4187 114.79 52.056C115.494 51.672 115.974 51.128 116.23 50.424L119.078 51.608C117.883 54.0827 115.59 55.32 112.198 55.32C109.68 55.32 107.707 54.584 106.278 53.112C104.87 51.64 104.166 49.6027 104.166 47C104.166 44.376 104.848 42.3387 106.214 40.888C107.579 39.416 109.499 38.68 111.974 38.68C114.32 38.68 116.144 39.3947 117.446 40.824C118.747 42.2533 119.398 44.152 119.398 46.52ZM111.974 41.4C110.736 41.4 109.734 41.7627 108.966 42.488C108.219 43.2133 107.75 44.2693 107.558 45.656H116.198C116.027 44.312 115.568 43.2667 114.822 42.52C114.096 41.7733 113.147 41.4 111.974 41.4ZM137.511 52.76C137.981 52.76 138.375 52.7173 138.695 52.632L138.471 54.936C137.895 55.192 137.234 55.32 136.487 55.32C135.57 55.32 134.834 55.1387 134.279 54.776C133.746 54.4133 133.394 53.8053 133.223 52.952C132.733 53.6987 132.007 54.2853 131.047 54.712C130.087 55.1173 129.01 55.32 127.815 55.32C126.258 55.32 124.999 54.9573 124.039 54.232C123.079 53.5067 122.599 52.472 122.599 51.128C122.599 49.8693 123.122 48.8133 124.167 47.96C125.213 47.0853 126.77 46.4667 128.839 46.104L132.903 45.4V44.536C132.903 43.5547 132.615 42.7867 132.039 42.232C131.463 41.656 130.663 41.368 129.639 41.368C127.527 41.368 126.151 42.328 125.511 44.248L122.855 42.84C123.239 41.56 124.018 40.5467 125.191 39.8C126.386 39.0533 127.847 38.68 129.575 38.68C131.645 38.68 133.287 39.16 134.503 40.12C135.719 41.08 136.327 42.488 136.327 44.344V51.576C136.327 51.9813 136.413 52.28 136.583 52.472C136.775 52.664 137.085 52.76 137.511 52.76ZM128.551 52.728C129.703 52.728 130.717 52.4507 131.591 51.896C132.466 51.3413 132.903 50.6053 132.903 49.688V47.768L129.415 48.472C128.306 48.6853 127.485 48.984 126.951 49.368C126.418 49.752 126.151 50.264 126.151 50.904C126.151 51.5013 126.354 51.96 126.759 52.28C127.186 52.5787 127.783 52.728 128.551 52.728ZM145.265 50.328C145.265 51.1173 145.383 51.672 145.617 51.992C145.852 52.2907 146.289 52.44 146.929 52.44C147.335 52.44 147.676 52.4187 147.953 52.376C148.252 52.312 148.615 52.1947 149.041 52.024L148.657 54.776C147.932 55.1387 147.047 55.32 146.001 55.32C144.572 55.32 143.516 54.9573 142.833 54.232C142.172 53.5067 141.841 52.3653 141.841 50.808V31.8H145.265V50.328ZM161.68 53.944C161.168 54.3707 160.539 54.712 159.792 54.968C159.067 55.2027 158.278 55.32 157.424 55.32C155.952 55.32 154.768 54.9573 153.872 54.232C152.998 53.4853 152.55 52.3333 152.528 50.776V41.688H149.488V39H152.528V35.256L155.952 34.296V39H161.552V41.688H155.952V50.2C155.952 50.968 156.155 51.544 156.56 51.928C156.987 52.2907 157.563 52.472 158.288 52.472C159.27 52.472 160.134 52.1307 160.88 51.448L161.68 53.944ZM173.608 38.68C175.378 38.68 176.818 39.192 177.928 40.216C179.058 41.24 179.624 42.712 179.624 44.632V55H176.2V45.72C176.2 42.904 175.058 41.496 172.776 41.496C171.581 41.496 170.557 41.912 169.704 42.744C168.85 43.576 168.424 44.8453 168.424 46.552V55H165V31.8H168.424V41.56C168.957 40.5787 169.661 39.8533 170.536 39.384C171.432 38.9147 172.456 38.68 173.608 38.68ZM202.899 33.56C204.84 33.56 206.493 33.912 207.859 34.616C209.245 35.32 210.408 36.3973 211.347 37.848L208.755 40.184C208.157 38.904 207.411 37.976 206.515 37.4C205.619 36.824 204.424 36.536 202.931 36.536C201.459 36.536 200.317 36.8347 199.507 37.432C198.696 38.008 198.291 38.7547 198.291 39.672C198.291 40.5253 198.685 41.208 199.475 41.72C200.264 42.2107 201.672 42.6373 203.699 43C205.597 43.3413 207.101 43.7787 208.211 44.312C209.341 44.824 210.163 45.4747 210.675 46.264C211.187 47.032 211.443 47.992 211.443 49.144C211.443 50.3813 211.091 51.4693 210.387 52.408C209.683 53.3467 208.691 54.072 207.411 54.584C206.152 55.0747 204.691 55.32 203.027 55.32C198.739 55.32 195.709 53.8907 193.939 51.032L196.339 48.632C197.021 49.912 197.896 50.8507 198.963 51.448C200.051 52.0453 201.395 52.344 202.995 52.344C204.509 52.344 205.693 52.088 206.547 51.576C207.421 51.0427 207.859 50.296 207.859 49.336C207.859 48.568 207.464 47.9493 206.675 47.48C205.907 47.0107 204.552 46.5947 202.611 46.232C200.669 45.8693 199.123 45.4213 197.971 44.888C196.819 44.3547 195.976 43.6933 195.443 42.904C194.931 42.1147 194.674 41.1547 194.674 40.024C194.674 38.8293 195.005 37.7413 195.667 36.76C196.328 35.7787 197.277 35 198.515 34.424C199.773 33.848 201.235 33.56 202.899 33.56ZM222.79 38.68C226.288 38.68 228.603 40.1733 229.734 43.16L226.534 44.44C225.979 42.4133 224.731 41.4 222.79 41.4C221.36 41.4 220.251 41.8907 219.462 42.872C218.672 43.8533 218.278 45.24 218.278 47.032C218.278 48.824 218.672 50.2 219.462 51.16C220.251 52.12 221.36 52.6 222.79 52.6C223.878 52.6 224.752 52.3333 225.414 51.8C226.075 51.2667 226.512 50.4987 226.726 49.496L229.862 50.552C229.392 52.0453 228.56 53.2187 227.366 54.072C226.171 54.904 224.667 55.32 222.854 55.32C220.336 55.32 218.363 54.584 216.934 53.112C215.526 51.64 214.822 49.6027 214.822 47C214.822 44.3973 215.526 42.36 216.934 40.888C218.342 39.416 220.294 38.68 222.79 38.68ZM247.699 52.76C248.168 52.76 248.563 52.7173 248.883 52.632L248.659 54.936C248.083 55.192 247.421 55.32 246.675 55.32C245.757 55.32 245.021 55.1387 244.467 54.776C243.933 54.4133 243.581 53.8053 243.411 52.952C242.92 53.6987 242.195 54.2853 241.235 54.712C240.275 55.1173 239.197 55.32 238.003 55.32C236.445 55.32 235.187 54.9573 234.227 54.232C233.267 53.5067 232.787 52.472 232.787 51.128C232.787 49.8693 233.309 48.8133 234.355 47.96C235.4 47.0853 236.957 46.4667 239.027 46.104L243.091 45.4V44.536C243.091 43.5547 242.803 42.7867 242.227 42.232C241.651 41.656 240.851 41.368 239.827 41.368C237.715 41.368 236.339 42.328 235.699 44.248L233.043 42.84C233.427 41.56 234.205 40.5467 235.379 39.8C236.573 39.0533 238.035 38.68 239.763 38.68C241.832 38.68 243.475 39.16 244.691 40.12C245.907 41.08 246.515 42.488 246.515 44.344V51.576C246.515 51.9813 246.6 52.28 246.771 52.472C246.963 52.664 247.272 52.76 247.699 52.76ZM238.739 52.728C239.891 52.728 240.904 52.4507 241.779 51.896C242.653 51.3413 243.091 50.6053 243.091 49.688V47.768L239.603 48.472C238.493 48.6853 237.672 48.984 237.139 49.368C236.605 49.752 236.339 50.264 236.339 50.904C236.339 51.5013 236.541 51.96 236.947 52.28C237.373 52.5787 237.971 52.728 238.739 52.728ZM260.381 38.68C261.127 38.68 261.714 38.7867 262.141 39L261.597 42.136C261.106 41.8587 260.434 41.72 259.581 41.72C258.898 41.72 258.247 41.9013 257.629 42.264C257.031 42.6267 256.53 43.1707 256.125 43.896C255.741 44.6213 255.549 45.496 255.549 46.52V55H252.125V39H255.037L255.325 41.88C256.221 39.7467 257.906 38.68 260.381 38.68ZM279.273 46.52C279.273 47.1387 279.23 47.7253 279.145 48.28H267.433C267.625 49.688 268.126 50.7653 268.937 51.512C269.747 52.2373 270.793 52.6 272.073 52.6C273.118 52.6 273.982 52.4187 274.665 52.056C275.369 51.672 275.849 51.128 276.105 50.424L278.953 51.608C277.758 54.0827 275.465 55.32 272.073 55.32C269.555 55.32 267.582 54.584 266.153 53.112C264.745 51.64 264.041 49.6027 264.041 47C264.041 44.376 264.723 42.3387 266.089 40.888C267.454 39.416 269.374 38.68 271.849 38.68C274.195 38.68 276.019 39.3947 277.321 40.824C278.622 42.2533 279.273 44.152 279.273 46.52ZM271.849 41.4C270.611 41.4 269.609 41.7627 268.841 42.488C268.094 43.2133 267.625 44.2693 267.433 45.656H276.073C275.902 44.312 275.443 43.2667 274.697 42.52C273.971 41.7733 273.022 41.4 271.849 41.4Z" fill="#4F4F4F"/>
</svg>
