<svg width="360" height="144" viewBox="0 0 360 144" fill="none" xmlns="http://www.w3.org/2000/svg">
<path d="M0 0H360V72V144H0V72V0Z" fill="#F2F2F2"/>
<path d="M40.1306 92.296C39.8 93.192 39.256 93.896 38.4986 94.408C37.7413 94.9093 36.8666 95.16 35.8746 95.16C34.8826 95.16 34.0186 94.9413 33.2826 94.504C32.5466 94.056 31.976 93.4267 31.5706 92.616C31.176 91.7947 30.9786 90.8293 30.9786 89.72C30.9786 88.6213 31.176 87.6613 31.5706 86.84C31.976 86.0187 32.5466 85.3893 33.2826 84.952C34.0186 84.504 34.872 84.28 35.8426 84.28C36.856 84.28 37.704 84.488 38.3866 84.904C39.08 85.32 39.5973 85.9333 39.9386 86.744L38.6746 87.336C38.44 86.7173 38.0986 86.2533 37.6506 85.944C37.2026 85.6347 36.632 85.48 35.9386 85.48C35.2133 85.48 34.5786 85.6507 34.0346 85.992C33.4906 86.3227 33.0693 86.808 32.7706 87.448C32.472 88.088 32.3226 88.8453 32.3226 89.72C32.3226 91.0427 32.6373 92.0827 33.2666 92.84C33.9066 93.5867 34.776 93.96 35.8746 93.96C36.5893 93.96 37.208 93.7787 37.7306 93.416C38.2533 93.0533 38.6266 92.52 38.8506 91.816L40.1306 92.296ZM45.7234 86.84C46.9287 86.84 47.8727 87.208 48.5554 87.944C49.2487 88.68 49.5954 89.6987 49.5954 91C49.5954 92.3013 49.2487 93.32 48.5554 94.056C47.8727 94.792 46.9287 95.16 45.7234 95.16C44.518 95.16 43.5687 94.792 42.8754 94.056C42.1927 93.32 41.8514 92.3013 41.8514 91C41.8514 89.6987 42.1927 88.68 42.8754 87.944C43.5687 87.208 44.518 86.84 45.7234 86.84ZM45.7234 87.944C44.9127 87.944 44.278 88.216 43.8194 88.76C43.3607 89.304 43.1314 90.0507 43.1314 91C43.1314 91.9493 43.3607 92.696 43.8194 93.24C44.278 93.784 44.9127 94.056 45.7234 94.056C46.534 94.056 47.1687 93.784 47.6274 93.24C48.086 92.696 48.3154 91.9493 48.3154 91C48.3154 90.0507 48.086 89.304 47.6274 88.76C47.1687 88.216 46.534 87.944 45.7234 87.944ZM55.9698 86.84C56.8764 86.84 57.6231 87.1013 58.2098 87.624C58.7964 88.1467 59.0898 88.8987 59.0898 89.88V95H57.8098V90.328C57.8098 89.496 57.6284 88.8933 57.2658 88.52C56.9138 88.1467 56.4391 87.96 55.8418 87.96C55.4151 87.96 55.0151 88.056 54.6418 88.248C54.2684 88.4293 53.9591 88.7333 53.7138 89.16C53.4791 89.576 53.3618 90.104 53.3618 90.744V95H52.0818V87H53.2018L53.2818 88.248C53.5484 87.768 53.9164 87.416 54.3858 87.192C54.8551 86.9573 55.3831 86.84 55.9698 86.84ZM68.4249 87L65.0969 95H63.8169L60.4889 87H61.9449L64.4729 93.704L67.0809 87H68.4249ZM70.7374 85.464C70.4494 85.464 70.2147 85.3787 70.0334 85.208C69.8627 85.0267 69.7774 84.792 69.7774 84.504C69.7774 84.216 69.8627 83.9867 70.0334 83.816C70.2147 83.6347 70.4494 83.544 70.7374 83.544C71.0254 83.544 71.2547 83.6347 71.4254 83.816C71.6067 83.9867 71.6974 84.216 71.6974 84.504C71.6974 84.792 71.6067 85.0267 71.4254 85.208C71.2547 85.3787 71.0254 85.464 70.7374 85.464ZM71.3774 95H70.0974V87H71.3774V95ZM78.2354 86.84C79.142 86.84 79.8887 87.1013 80.4754 87.624C81.062 88.1467 81.3554 88.8987 81.3554 89.88V95H80.0754V90.328C80.0754 89.496 79.894 88.8933 79.5314 88.52C79.1794 88.1467 78.7047 87.96 78.1074 87.96C77.6807 87.96 77.2807 88.056 76.9074 88.248C76.534 88.4293 76.2247 88.7333 75.9794 89.16C75.7447 89.576 75.6274 90.104 75.6274 90.744V95H74.3474V87H75.4674L75.5474 88.248C75.814 87.768 76.182 87.416 76.6514 87.192C77.1207 86.9573 77.6487 86.84 78.2354 86.84ZM87.6296 86.84C88.4296 86.84 89.1016 87.0267 89.6456 87.4C90.2003 87.7627 90.6323 88.2853 90.9416 88.968L89.7256 89.544C89.3843 88.488 88.675 87.96 87.5976 87.96C86.7976 87.96 86.1683 88.232 85.7096 88.776C85.2616 89.3093 85.0376 90.0507 85.0376 91C85.0376 91.9493 85.2616 92.696 85.7096 93.24C86.1683 93.7733 86.7976 94.04 87.5976 94.04C88.2163 94.04 88.7123 93.9013 89.0856 93.624C89.4696 93.336 89.7203 92.9253 89.8376 92.392L91.0216 92.808C90.7443 93.5547 90.3176 94.136 89.7416 94.552C89.1656 94.9573 88.4616 95.16 87.6296 95.16C86.4243 95.16 85.475 94.792 84.7816 94.056C84.099 93.32 83.7576 92.3013 83.7576 91C83.7576 89.6987 84.099 88.68 84.7816 87.944C85.475 87.208 86.4243 86.84 87.6296 86.84ZM100.149 90.584C100.149 90.8827 100.128 91.1813 100.085 91.48H94.0529C94.1275 92.2907 94.3942 92.92 94.8529 93.368C95.3222 93.816 95.9249 94.04 96.6609 94.04C97.2475 94.04 97.7329 93.9387 98.1169 93.736C98.5115 93.5333 98.7782 93.24 98.9169 92.856L99.9889 93.416C99.6689 93.9813 99.2422 94.4133 98.7089 94.712C98.1755 95.0107 97.4929 95.16 96.6609 95.16C95.4555 95.16 94.5062 94.792 93.8129 94.056C93.1302 93.32 92.7889 92.3013 92.7889 91C92.7889 89.6987 93.1142 88.68 93.7649 87.944C94.4262 87.208 95.3595 86.84 96.5649 86.84C97.3115 86.84 97.9569 87.0053 98.5009 87.336C99.0449 87.6667 99.4555 88.1147 99.7329 88.68C100.01 89.2453 100.149 89.88 100.149 90.584ZM96.5649 87.96C95.8609 87.96 95.2902 88.168 94.8529 88.584C94.4262 89 94.1649 89.5867 94.0689 90.344H98.9169C98.8315 89.5973 98.5862 89.016 98.1809 88.6C97.7755 88.1733 97.2369 87.96 96.5649 87.96ZM109.686 83.32V95H108.566L108.486 93.608C108.251 94.0773 107.888 94.456 107.398 94.744C106.918 95.0213 106.368 95.16 105.75 95.16C104.63 95.16 103.739 94.792 103.078 94.056C102.427 93.3093 102.102 92.2907 102.102 91C102.102 89.7093 102.427 88.696 103.078 87.96C103.739 87.2133 104.63 86.84 105.75 86.84C106.336 86.84 106.859 86.968 107.318 87.224C107.787 87.48 108.15 87.8213 108.406 88.248V83.32H109.686ZM105.894 94.04C106.662 94.04 107.27 93.7733 107.718 93.24C108.176 92.7067 108.406 91.992 108.406 91.096V90.904C108.406 90.008 108.176 89.2933 107.718 88.76C107.27 88.2267 106.662 87.96 105.894 87.96C105.115 87.96 104.502 88.2373 104.054 88.792C103.606 89.336 103.382 90.072 103.382 91C103.382 91.928 103.606 92.6693 104.054 93.224C104.502 93.768 105.115 94.04 105.894 94.04ZM121.489 86.84C122.694 86.84 123.638 87.208 124.321 87.944C125.014 88.68 125.361 89.6987 125.361 91C125.361 92.3013 125.014 93.32 124.321 94.056C123.638 94.792 122.694 95.16 121.489 95.16C120.284 95.16 119.334 94.792 118.641 94.056C117.958 93.32 117.617 92.3013 117.617 91C117.617 89.6987 117.958 88.68 118.641 87.944C119.334 87.208 120.284 86.84 121.489 86.84ZM121.489 87.944C120.678 87.944 120.044 88.216 119.585 88.76C119.126 89.304 118.897 90.0507 118.897 91C118.897 91.9493 119.126 92.696 119.585 93.24C120.044 93.784 120.678 94.056 121.489 94.056C122.3 94.056 122.934 93.784 123.393 93.24C123.852 92.696 124.081 91.9493 124.081 91C124.081 90.0507 123.852 89.304 123.393 88.76C122.934 88.216 122.3 87.944 121.489 87.944ZM129.611 87H132.283V88.104H129.611V95H128.331V88.104H126.731V87H128.331V85.656C128.331 84.92 128.555 84.3333 129.003 83.896C129.451 83.4587 130.101 83.24 130.955 83.24C131.243 83.24 131.504 83.272 131.739 83.336C131.984 83.4 132.176 83.4907 132.315 83.608L131.979 84.648C131.723 84.488 131.419 84.408 131.067 84.408C130.096 84.408 129.611 84.8667 129.611 85.784V87ZM143.384 94.44C142.851 94.92 142.163 95.16 141.32 95.16C140.669 95.16 140.136 94.984 139.72 94.632C139.315 94.28 139.107 93.7413 139.096 93.016V88.104H137.496V87H139.096V85.08L140.376 84.728V87H143.336V88.104H140.376V92.792C140.376 93.176 140.483 93.4693 140.696 93.672C140.92 93.864 141.213 93.96 141.576 93.96C142.088 93.96 142.541 93.7627 142.936 93.368L143.384 94.44ZM149.079 86.84C149.986 86.84 150.732 87.1013 151.319 87.624C151.906 88.1467 152.199 88.8987 152.199 89.88V95H150.919V90.328C150.919 89.496 150.738 88.8933 150.375 88.52C150.023 88.1467 149.548 87.96 148.951 87.96C148.535 87.96 148.135 88.056 147.751 88.248C147.378 88.44 147.068 88.7493 146.823 89.176C146.588 89.592 146.471 90.12 146.471 90.76V95H145.191V83.32H146.471V88.2C146.738 87.7413 147.095 87.4 147.543 87.176C148.002 86.952 148.514 86.84 149.079 86.84ZM161.961 90.584C161.961 90.8827 161.94 91.1813 161.897 91.48H155.865C155.94 92.2907 156.207 92.92 156.665 93.368C157.135 93.816 157.737 94.04 158.473 94.04C159.06 94.04 159.545 93.9387 159.929 93.736C160.324 93.5333 160.591 93.24 160.729 92.856L161.801 93.416C161.481 93.9813 161.055 94.4133 160.521 94.712C159.988 95.0107 159.305 95.16 158.473 95.16C157.268 95.16 156.319 94.792 155.625 94.056C154.943 93.32 154.601 92.3013 154.601 91C154.601 89.6987 154.927 88.68 155.577 87.944C156.239 87.208 157.172 86.84 158.377 86.84C159.124 86.84 159.769 87.0053 160.313 87.336C160.857 87.6667 161.268 88.1147 161.545 88.68C161.823 89.2453 161.961 89.88 161.961 90.584ZM158.377 87.96C157.673 87.96 157.103 88.168 156.665 88.584C156.239 89 155.977 89.5867 155.881 90.344H160.729C160.644 89.5973 160.399 89.016 159.993 88.6C159.588 88.1733 159.049 87.96 158.377 87.96ZM173.223 86.84C174.023 86.84 174.695 87.0267 175.239 87.4C175.794 87.7627 176.226 88.2853 176.535 88.968L175.319 89.544C174.978 88.488 174.269 87.96 173.191 87.96C172.391 87.96 171.762 88.232 171.303 88.776C170.855 89.3093 170.631 90.0507 170.631 91C170.631 91.9493 170.855 92.696 171.303 93.24C171.762 93.7733 172.391 94.04 173.191 94.04C173.81 94.04 174.306 93.9013 174.679 93.624C175.063 93.336 175.314 92.9253 175.431 92.392L176.615 92.808C176.338 93.5547 175.911 94.136 175.335 94.552C174.759 94.9573 174.055 95.16 173.223 95.16C172.018 95.16 171.069 94.792 170.375 94.056C169.693 93.32 169.351 92.3013 169.351 91C169.351 89.6987 169.693 88.68 170.375 87.944C171.069 87.208 172.018 86.84 173.223 86.84ZM182.255 86.84C183.46 86.84 184.404 87.208 185.087 87.944C185.78 88.68 186.127 89.6987 186.127 91C186.127 92.3013 185.78 93.32 185.087 94.056C184.404 94.792 183.46 95.16 182.255 95.16C181.049 95.16 180.1 94.792 179.407 94.056C178.724 93.32 178.383 92.3013 178.383 91C178.383 89.6987 178.724 88.68 179.407 87.944C180.1 87.208 181.049 86.84 182.255 86.84ZM182.255 87.944C181.444 87.944 180.809 88.216 180.351 88.76C179.892 89.304 179.663 90.0507 179.663 91C179.663 91.9493 179.892 92.696 180.351 93.24C180.809 93.784 181.444 94.056 182.255 94.056C183.065 94.056 183.7 93.784 184.159 93.24C184.617 92.696 184.847 91.9493 184.847 91C184.847 90.0507 184.617 89.304 184.159 88.76C183.7 88.216 183.065 87.944 182.255 87.944ZM192.501 86.84C193.408 86.84 194.154 87.1013 194.741 87.624C195.328 88.1467 195.621 88.8987 195.621 89.88V95H194.341V90.328C194.341 89.496 194.16 88.8933 193.797 88.52C193.445 88.1467 192.97 87.96 192.373 87.96C191.946 87.96 191.546 88.056 191.173 88.248C190.8 88.4293 190.49 88.7333 190.245 89.16C190.01 89.576 189.893 90.104 189.893 90.744V95H188.613V87H189.733L189.813 88.248C190.08 87.768 190.448 87.416 190.917 87.192C191.386 86.9573 191.914 86.84 192.501 86.84ZM202.407 86.84C203.314 86.84 204.061 87.1013 204.647 87.624C205.234 88.1467 205.527 88.8987 205.527 89.88V95H204.247V90.328C204.247 89.496 204.066 88.8933 203.703 88.52C203.351 88.1467 202.877 87.96 202.279 87.96C201.853 87.96 201.453 88.056 201.079 88.248C200.706 88.4293 200.397 88.7333 200.151 89.16C199.917 89.576 199.799 90.104 199.799 90.744V95H198.519V87H199.639L199.719 88.248C199.986 87.768 200.354 87.416 200.823 87.192C201.293 86.9573 201.821 86.84 202.407 86.84ZM215.29 90.584C215.29 90.8827 215.268 91.1813 215.226 91.48H209.194C209.268 92.2907 209.535 92.92 209.994 93.368C210.463 93.816 211.066 94.04 211.802 94.04C212.388 94.04 212.874 93.9387 213.258 93.736C213.652 93.5333 213.919 93.24 214.058 92.856L215.13 93.416C214.81 93.9813 214.383 94.4133 213.85 94.712C213.316 95.0107 212.634 95.16 211.802 95.16C210.596 95.16 209.647 94.792 208.954 94.056C208.271 93.32 207.93 92.3013 207.93 91C207.93 89.6987 208.255 88.68 208.906 87.944C209.567 87.208 210.5 86.84 211.706 86.84C212.452 86.84 213.098 87.0053 213.642 87.336C214.186 87.6667 214.596 88.1147 214.874 88.68C215.151 89.2453 215.29 89.88 215.29 90.584ZM211.706 87.96C211.002 87.96 210.431 88.168 209.994 88.584C209.567 89 209.306 89.5867 209.21 90.344H214.058C213.972 89.5973 213.727 89.016 213.322 88.6C212.916 88.1733 212.378 87.96 211.706 87.96ZM221.098 86.84C221.898 86.84 222.57 87.0267 223.114 87.4C223.669 87.7627 224.101 88.2853 224.41 88.968L223.194 89.544C222.853 88.488 222.144 87.96 221.066 87.96C220.266 87.96 219.637 88.232 219.178 88.776C218.73 89.3093 218.506 90.0507 218.506 91C218.506 91.9493 218.73 92.696 219.178 93.24C219.637 93.7733 220.266 94.04 221.066 94.04C221.685 94.04 222.181 93.9013 222.554 93.624C222.938 93.336 223.189 92.9253 223.306 92.392L224.49 92.808C224.213 93.5547 223.786 94.136 223.21 94.552C222.634 94.9573 221.93 95.16 221.098 95.16C219.893 95.16 218.944 94.792 218.25 94.056C217.568 93.32 217.226 92.3013 217.226 91C217.226 89.6987 217.568 88.68 218.25 87.944C218.944 87.208 219.893 86.84 221.098 86.84ZM231.65 94.44C231.116 94.92 230.428 95.16 229.586 95.16C228.935 95.16 228.402 94.984 227.986 94.632C227.58 94.28 227.372 93.7413 227.362 93.016V88.104H225.762V87H227.362V85.08L228.642 84.728V87H231.602V88.104H228.642V92.792C228.642 93.176 228.748 93.4693 228.962 93.672C229.186 93.864 229.479 93.96 229.842 93.96C230.354 93.96 230.807 93.7627 231.202 93.368L231.65 94.44ZM234.097 85.464C233.809 85.464 233.574 85.3787 233.393 85.208C233.222 85.0267 233.137 84.792 233.137 84.504C233.137 84.216 233.222 83.9867 233.393 83.816C233.574 83.6347 233.809 83.544 234.097 83.544C234.385 83.544 234.614 83.6347 234.785 83.816C234.966 83.9867 235.057 84.216 235.057 84.504C235.057 84.792 234.966 85.0267 234.785 85.208C234.614 85.3787 234.385 85.464 234.097 85.464ZM234.737 95H233.457V87H234.737V95ZM241.083 86.84C242.288 86.84 243.232 87.208 243.915 87.944C244.608 88.68 244.955 89.6987 244.955 91C244.955 92.3013 244.608 93.32 243.915 94.056C243.232 94.792 242.288 95.16 241.083 95.16C239.877 95.16 238.928 94.792 238.235 94.056C237.552 93.32 237.211 92.3013 237.211 91C237.211 89.6987 237.552 88.68 238.235 87.944C238.928 87.208 239.877 86.84 241.083 86.84ZM241.083 87.944C240.272 87.944 239.637 88.216 239.179 88.76C238.72 89.304 238.491 90.0507 238.491 91C238.491 91.9493 238.72 92.696 239.179 93.24C239.637 93.784 240.272 94.056 241.083 94.056C241.893 94.056 242.528 93.784 242.987 93.24C243.445 92.696 243.675 91.9493 243.675 91C243.675 90.0507 243.445 89.304 242.987 88.76C242.528 88.216 241.893 87.944 241.083 87.944ZM251.329 86.84C252.236 86.84 252.982 87.1013 253.569 87.624C254.156 88.1467 254.449 88.8987 254.449 89.88V95H253.169V90.328C253.169 89.496 252.988 88.8933 252.625 88.52C252.273 88.1467 251.798 87.96 251.201 87.96C250.774 87.96 250.374 88.056 250.001 88.248C249.628 88.4293 249.318 88.7333 249.073 89.16C248.838 89.576 248.721 90.104 248.721 90.744V95H247.441V87H248.561L248.641 88.248C248.908 87.768 249.276 87.416 249.745 87.192C250.214 86.9573 250.742 86.84 251.329 86.84ZM266.737 86.84C267.857 86.84 268.742 87.2133 269.392 87.96C270.054 88.696 270.385 89.7093 270.385 91C270.385 92.2907 270.054 93.3093 269.392 94.056C268.742 94.792 267.857 95.16 266.737 95.16C266.118 95.16 265.563 95.0213 265.073 94.744C264.593 94.456 264.235 94.0773 264.001 93.608L263.921 95H262.801V83.32H264.081V88.248C264.337 87.8213 264.694 87.48 265.153 87.224C265.622 86.968 266.15 86.84 266.737 86.84ZM266.593 94.04C267.371 94.04 267.985 93.768 268.433 93.224C268.881 92.6693 269.105 91.928 269.105 91C269.105 90.072 268.881 89.336 268.433 88.792C267.985 88.2373 267.371 87.96 266.593 87.96C265.825 87.96 265.211 88.2267 264.753 88.76C264.305 89.2933 264.081 90.008 264.081 90.904V91.096C264.081 91.992 264.305 92.7067 264.753 93.24C265.211 93.7733 265.825 94.04 266.593 94.04ZM279.743 90.584C279.743 90.8827 279.721 91.1813 279.679 91.48H273.647C273.721 92.2907 273.988 92.92 274.447 93.368C274.916 93.816 275.519 94.04 276.255 94.04C276.841 94.04 277.327 93.9387 277.711 93.736C278.105 93.5333 278.372 93.24 278.511 92.856L279.583 93.416C279.263 93.9813 278.836 94.4133 278.303 94.712C277.769 95.0107 277.087 95.16 276.255 95.16C275.049 95.16 274.1 94.792 273.407 94.056C272.724 93.32 272.383 92.3013 272.383 91C272.383 89.6987 272.708 88.68 273.359 87.944C274.02 87.208 274.953 86.84 276.159 86.84C276.905 86.84 277.551 87.0053 278.095 87.336C278.639 87.6667 279.049 88.1147 279.327 88.68C279.604 89.2453 279.743 89.88 279.743 90.584ZM276.159 87.96C275.455 87.96 274.884 88.168 274.447 88.584C274.02 89 273.759 89.5867 273.663 90.344H278.511C278.425 89.5973 278.18 89.016 277.775 88.6C277.369 88.1733 276.831 87.96 276.159 87.96ZM286.837 94.44C286.304 94.92 285.616 95.16 284.773 95.16C284.122 95.16 283.589 94.984 283.173 94.632C282.768 94.28 282.56 93.7413 282.549 93.016V88.104H280.949V87H282.549V85.08L283.829 84.728V87H286.789V88.104H283.829V92.792C283.829 93.176 283.936 93.4693 284.149 93.672C284.373 93.864 284.666 93.96 285.029 93.96C285.541 93.96 285.994 93.7627 286.389 93.368L286.837 94.44ZM300.26 87L297.476 95H296.196L293.94 88.632L291.812 95H290.532L287.748 87H289.172L291.188 93.512L293.364 87H294.644L296.82 93.512L298.836 87H300.26ZM308.961 90.584C308.961 90.8827 308.94 91.1813 308.897 91.48H302.865C302.94 92.2907 303.207 92.92 303.665 93.368C304.135 93.816 304.737 94.04 305.473 94.04C306.06 94.04 306.545 93.9387 306.929 93.736C307.324 93.5333 307.591 93.24 307.729 92.856L308.801 93.416C308.481 93.9813 308.055 94.4133 307.521 94.712C306.988 95.0107 306.305 95.16 305.473 95.16C304.268 95.16 303.319 94.792 302.625 94.056C301.943 93.32 301.601 92.3013 301.601 91C301.601 89.6987 301.927 88.68 302.577 87.944C303.239 87.208 304.172 86.84 305.377 86.84C306.124 86.84 306.769 87.0053 307.313 87.336C307.857 87.6667 308.268 88.1147 308.545 88.68C308.823 89.2453 308.961 89.88 308.961 90.584ZM305.377 87.96C304.673 87.96 304.103 88.168 303.665 88.584C303.239 89 302.977 89.5867 302.881 90.344H307.729C307.644 89.5973 307.399 89.016 306.993 88.6C306.588 88.1733 306.049 87.96 305.377 87.96ZM318.258 90.584C318.258 90.8827 318.237 91.1813 318.194 91.48H312.162C312.237 92.2907 312.504 92.92 312.962 93.368C313.432 93.816 314.034 94.04 314.77 94.04C315.357 94.04 315.842 93.9387 316.226 93.736C316.621 93.5333 316.888 93.24 317.026 92.856L318.098 93.416C317.778 93.9813 317.352 94.4133 316.818 94.712C316.285 95.0107 315.602 95.16 314.77 95.16C313.565 95.16 312.616 94.792 311.922 94.056C311.24 93.32 310.898 92.3013 310.898 91C310.898 89.6987 311.224 88.68 311.874 87.944C312.536 87.208 313.469 86.84 314.674 86.84C315.421 86.84 316.066 87.0053 316.61 87.336C317.154 87.6667 317.565 88.1147 317.842 88.68C318.12 89.2453 318.258 89.88 318.258 90.584ZM314.674 87.96C313.97 87.96 313.4 88.168 312.962 88.584C312.536 89 312.274 89.5867 312.178 90.344H317.026C316.941 89.5973 316.696 89.016 316.29 88.6C315.885 88.1733 315.346 87.96 314.674 87.96ZM324.579 86.84C325.486 86.84 326.232 87.1013 326.819 87.624C327.406 88.1467 327.699 88.8987 327.699 89.88V95H326.419V90.328C326.419 89.496 326.238 88.8933 325.875 88.52C325.523 88.1467 325.048 87.96 324.451 87.96C324.024 87.96 323.624 88.056 323.251 88.248C322.878 88.4293 322.568 88.7333 322.323 89.16C322.088 89.576 321.971 90.104 321.971 90.744V95H320.691V87H321.811L321.891 88.248C322.158 87.768 322.526 87.416 322.995 87.192C323.464 86.9573 323.992 86.84 324.579 86.84ZM54.3605 115.072C54.5738 115.072 54.7872 115.045 55.0005 114.992L54.9205 116C54.6218 116.107 54.3018 116.16 53.9605 116.16C53.5445 116.16 53.2138 116.069 52.9685 115.888C52.7338 115.707 52.5845 115.403 52.5205 114.976C52.2752 115.349 51.9125 115.643 51.4325 115.856C50.9632 116.059 50.4672 116.16 49.9445 116.16C49.1552 116.16 48.5045 115.979 47.9925 115.616C47.4805 115.243 47.2245 114.709 47.2245 114.016C47.2245 113.408 47.4912 112.885 48.0245 112.448C48.5578 112 49.3312 111.691 50.3445 111.52L52.4725 111.168V110.72C52.4725 110.187 52.3072 109.76 51.9765 109.44C51.6458 109.12 51.1872 108.96 50.6005 108.96C50.0672 108.96 49.6032 109.088 49.2085 109.344C48.8245 109.6 48.5258 109.979 48.3125 110.48L47.3685 109.792C47.5818 109.195 47.9765 108.72 48.5525 108.368C49.1392 108.016 49.8218 107.84 50.6005 107.84C51.5498 107.84 52.3125 108.069 52.8885 108.528C53.4645 108.987 53.7525 109.664 53.7525 110.56V114.496C53.7525 114.688 53.8005 114.832 53.8965 114.928C53.9925 115.024 54.1472 115.072 54.3605 115.072ZM50.0085 115.04C50.6805 115.04 51.2565 114.88 51.7365 114.56C52.2272 114.24 52.4725 113.824 52.4725 113.312V112.208L50.6805 112.544C49.9658 112.672 49.4325 112.859 49.0805 113.104C48.7285 113.339 48.5525 113.643 48.5525 114.016C48.5525 114.347 48.6805 114.603 48.9365 114.784C49.1925 114.955 49.5498 115.04 50.0085 115.04ZM65.8291 107.84C66.7358 107.84 67.4825 108.101 68.0691 108.624C68.6558 109.147 68.9491 109.899 68.9491 110.88V116H67.6691V111.328C67.6691 110.496 67.4878 109.893 67.1251 109.52C66.7731 109.147 66.2985 108.96 65.7011 108.96C65.2851 108.96 64.8851 109.056 64.5011 109.248C64.1278 109.44 63.8185 109.749 63.5731 110.176C63.3385 110.592 63.2211 111.12 63.2211 111.76V116H61.9411V104.32H63.2211V109.2C63.4878 108.741 63.8451 108.4 64.2931 108.176C64.7518 107.952 65.2638 107.84 65.8291 107.84ZM78.7114 111.584C78.7114 111.883 78.69 112.181 78.6474 112.48H72.6154C72.69 113.291 72.9567 113.92 73.4154 114.368C73.8847 114.816 74.4874 115.04 75.2234 115.04C75.81 115.04 76.2954 114.939 76.6794 114.736C77.074 114.533 77.3407 114.24 77.4794 113.856L78.5514 114.416C78.2314 114.981 77.8047 115.413 77.2714 115.712C76.738 116.011 76.0554 116.16 75.2234 116.16C74.018 116.16 73.0687 115.792 72.3754 115.056C71.6927 114.32 71.3514 113.301 71.3514 112C71.3514 110.699 71.6767 109.68 72.3274 108.944C72.9887 108.208 73.922 107.84 75.1274 107.84C75.874 107.84 76.5194 108.005 77.0634 108.336C77.6074 108.667 78.018 109.115 78.2954 109.68C78.5727 110.245 78.7114 110.88 78.7114 111.584ZM75.1274 108.96C74.4234 108.96 73.8527 109.168 73.4154 109.584C72.9887 110 72.7274 110.587 72.6314 111.344H77.4794C77.394 110.597 77.1487 110.016 76.7434 109.6C76.338 109.173 75.7994 108.96 75.1274 108.96ZM87.7043 115.072C87.9176 115.072 88.1309 115.045 88.3443 114.992L88.2643 116C87.9656 116.107 87.6456 116.16 87.3043 116.16C86.8883 116.16 86.5576 116.069 86.3123 115.888C86.0776 115.707 85.9283 115.403 85.8643 114.976C85.6189 115.349 85.2563 115.643 84.7763 115.856C84.3069 116.059 83.8109 116.16 83.2883 116.16C82.4989 116.16 81.8483 115.979 81.3363 115.616C80.8243 115.243 80.5683 114.709 80.5683 114.016C80.5683 113.408 80.8349 112.885 81.3683 112.448C81.9016 112 82.6749 111.691 83.6883 111.52L85.8163 111.168V110.72C85.8163 110.187 85.6509 109.76 85.3203 109.44C84.9896 109.12 84.5309 108.96 83.9443 108.96C83.4109 108.96 82.9469 109.088 82.5523 109.344C82.1683 109.6 81.8696 109.979 81.6562 110.48L80.7122 109.792C80.9256 109.195 81.3203 108.72 81.8963 108.368C82.4829 108.016 83.1656 107.84 83.9443 107.84C84.8936 107.84 85.6563 108.069 86.2323 108.528C86.8083 108.987 87.0963 109.664 87.0963 110.56V114.496C87.0963 114.688 87.1443 114.832 87.2403 114.928C87.3363 115.024 87.4909 115.072 87.7043 115.072ZM83.3523 115.04C84.0243 115.04 84.6003 114.88 85.0803 114.56C85.5709 114.24 85.8163 113.824 85.8163 113.312V112.208L84.0243 112.544C83.3096 112.672 82.7763 112.859 82.4243 113.104C82.0723 113.339 81.8963 113.643 81.8963 114.016C81.8963 114.347 82.0243 114.603 82.2803 114.784C82.5363 114.955 82.8936 115.04 83.3523 115.04ZM91.4228 113.856C91.4228 114.261 91.4814 114.544 91.5988 114.704C91.7268 114.853 91.9561 114.928 92.2868 114.928C92.5108 114.928 92.7028 114.912 92.8628 114.88C93.0334 114.848 93.2308 114.789 93.4548 114.704L93.2468 115.936C92.8948 116.085 92.5001 116.16 92.0628 116.16C91.4121 116.16 90.9268 115.984 90.6068 115.632C90.2974 115.28 90.1428 114.741 90.1428 114.016V104.32H91.4228V113.856ZM99.6809 115.44C99.1475 115.92 98.4595 116.16 97.6169 116.16C96.9662 116.16 96.4329 115.984 96.0169 115.632C95.6115 115.28 95.4035 114.741 95.3929 114.016V109.104H93.7929V108H95.3929V106.08L96.6729 105.728V108H99.6329V109.104H96.6729V113.792C96.6729 114.176 96.7795 114.469 96.9929 114.672C97.2169 114.864 97.5102 114.96 97.8729 114.96C98.3849 114.96 98.8382 114.763 99.2329 114.368L99.6809 115.44ZM105.376 107.84C106.283 107.84 107.029 108.101 107.616 108.624C108.203 109.147 108.496 109.899 108.496 110.88V116H107.216V111.328C107.216 110.496 107.035 109.893 106.672 109.52C106.32 109.147 105.845 108.96 105.248 108.96C104.832 108.96 104.432 109.056 104.048 109.248C103.675 109.44 103.365 109.749 103.12 110.176C102.885 110.592 102.768 111.12 102.768 111.76V116H101.488V104.32H102.768V109.2C103.035 108.741 103.392 108.4 103.84 108.176C104.299 107.952 104.811 107.84 105.376 107.84ZM114.216 117.344C113.906 118.112 113.56 118.651 113.176 118.96C112.792 119.28 112.296 119.44 111.688 119.44C111.282 119.44 110.941 119.387 110.664 119.28C110.397 119.173 110.152 119.003 109.928 118.768L110.376 117.68C110.685 118.107 111.117 118.32 111.672 118.32C111.981 118.32 112.253 118.224 112.488 118.032C112.733 117.851 112.946 117.515 113.128 117.024L113.544 115.984L110.2 108H111.656L113.656 113.216L114.152 114.64L114.728 113.056L116.6 108H117.976L114.216 117.344ZM128.721 107.84C129.841 107.84 130.726 108.213 131.377 108.96C132.038 109.696 132.369 110.709 132.369 112C132.369 113.291 132.038 114.309 131.377 115.056C130.726 115.792 129.841 116.16 128.721 116.16C128.102 116.16 127.548 116.021 127.057 115.744C126.577 115.456 126.22 115.077 125.985 114.608L125.905 116H124.785V104.32H126.065V109.248C126.321 108.821 126.678 108.48 127.137 108.224C127.606 107.968 128.134 107.84 128.721 107.84ZM128.577 115.04C129.356 115.04 129.969 114.768 130.417 114.224C130.865 113.669 131.089 112.928 131.089 112C131.089 111.072 130.865 110.336 130.417 109.792C129.969 109.237 129.356 108.96 128.577 108.96C127.809 108.96 127.196 109.227 126.737 109.76C126.289 110.293 126.065 111.008 126.065 111.904V112.096C126.065 112.992 126.289 113.707 126.737 114.24C127.196 114.773 127.809 115.04 128.577 115.04ZM138.239 107.84C139.444 107.84 140.388 108.208 141.071 108.944C141.764 109.68 142.111 110.699 142.111 112C142.111 113.301 141.764 114.32 141.071 115.056C140.388 115.792 139.444 116.16 138.239 116.16C137.034 116.16 136.084 115.792 135.391 115.056C134.708 114.32 134.367 113.301 134.367 112C134.367 110.699 134.708 109.68 135.391 108.944C136.084 108.208 137.034 107.84 138.239 107.84ZM138.239 108.944C137.428 108.944 136.794 109.216 136.335 109.76C135.876 110.304 135.647 111.051 135.647 112C135.647 112.949 135.876 113.696 136.335 114.24C136.794 114.784 137.428 115.056 138.239 115.056C139.05 115.056 139.684 114.784 140.143 114.24C140.602 113.696 140.831 112.949 140.831 112C140.831 111.051 140.602 110.304 140.143 109.76C139.684 109.216 139.05 108.944 138.239 108.944ZM151.701 104.32V116H150.581L150.501 114.608C150.267 115.077 149.904 115.456 149.413 115.744C148.933 116.021 148.384 116.16 147.765 116.16C146.645 116.16 145.755 115.792 145.093 115.056C144.443 114.309 144.117 113.291 144.117 112C144.117 110.709 144.443 109.696 145.093 108.96C145.755 108.213 146.645 107.84 147.765 107.84C148.352 107.84 148.875 107.968 149.333 108.224C149.803 108.48 150.165 108.821 150.421 109.248V104.32H151.701ZM147.909 115.04C148.677 115.04 149.285 114.773 149.733 114.24C150.192 113.707 150.421 112.992 150.421 112.096V111.904C150.421 111.008 150.192 110.293 149.733 109.76C149.285 109.227 148.677 108.96 147.909 108.96C147.131 108.96 146.517 109.237 146.069 109.792C145.621 110.336 145.397 111.072 145.397 112C145.397 112.928 145.621 113.669 146.069 114.224C146.517 114.768 147.131 115.04 147.909 115.04ZM157.716 117.344C157.406 118.112 157.06 118.651 156.676 118.96C156.292 119.28 155.796 119.44 155.188 119.44C154.782 119.44 154.441 119.387 154.164 119.28C153.897 119.173 153.652 119.003 153.428 118.768L153.876 117.68C154.185 118.107 154.617 118.32 155.172 118.32C155.481 118.32 155.753 118.224 155.988 118.032C156.233 117.851 156.446 117.515 156.628 117.024L157.044 115.984L153.7 108H155.156L157.156 113.216L157.652 114.64L158.228 113.056L160.1 108H161.476L157.716 117.344ZM174.845 115.072C175.058 115.072 175.272 115.045 175.485 114.992L175.405 116C175.106 116.107 174.786 116.16 174.445 116.16C174.029 116.16 173.698 116.069 173.453 115.888C173.218 115.707 173.069 115.403 173.005 114.976C172.76 115.349 172.397 115.643 171.917 115.856C171.448 116.059 170.952 116.16 170.429 116.16C169.64 116.16 168.989 115.979 168.477 115.616C167.965 115.243 167.709 114.709 167.709 114.016C167.709 113.408 167.976 112.885 168.509 112.448C169.042 112 169.816 111.691 170.829 111.52L172.957 111.168V110.72C172.957 110.187 172.792 109.76 172.461 109.44C172.13 109.12 171.672 108.96 171.085 108.96C170.552 108.96 170.088 109.088 169.693 109.344C169.309 109.6 169.01 109.979 168.797 110.48L167.853 109.792C168.066 109.195 168.461 108.72 169.037 108.368C169.624 108.016 170.306 107.84 171.085 107.84C172.034 107.84 172.797 108.069 173.373 108.528C173.949 108.987 174.237 109.664 174.237 110.56V114.496C174.237 114.688 174.285 114.832 174.381 114.928C174.477 115.024 174.632 115.072 174.845 115.072ZM170.493 115.04C171.165 115.04 171.741 114.88 172.221 114.56C172.712 114.24 172.957 113.824 172.957 113.312V112.208L171.165 112.544C170.45 112.672 169.917 112.859 169.565 113.104C169.213 113.339 169.037 113.643 169.037 114.016C169.037 114.347 169.165 114.603 169.421 114.784C169.677 114.955 170.034 115.04 170.493 115.04ZM181.235 107.84C182.142 107.84 182.889 108.101 183.475 108.624C184.062 109.147 184.355 109.899 184.355 110.88V116H183.075V111.328C183.075 110.496 182.894 109.893 182.531 109.52C182.179 109.147 181.705 108.96 181.107 108.96C180.681 108.96 180.281 109.056 179.907 109.248C179.534 109.429 179.225 109.733 178.979 110.16C178.745 110.576 178.627 111.104 178.627 111.744V116H177.347V108H178.467L178.547 109.248C178.814 108.768 179.182 108.416 179.651 108.192C180.121 107.957 180.649 107.84 181.235 107.84ZM194.358 104.32V116H193.238L193.158 114.608C192.923 115.077 192.56 115.456 192.07 115.744C191.59 116.021 191.04 116.16 190.422 116.16C189.302 116.16 188.411 115.792 187.75 115.056C187.099 114.309 186.774 113.291 186.774 112C186.774 110.709 187.099 109.696 187.75 108.96C188.411 108.213 189.302 107.84 190.422 107.84C191.008 107.84 191.531 107.968 191.99 108.224C192.459 108.48 192.822 108.821 193.078 109.248V104.32H194.358ZM190.566 115.04C191.334 115.04 191.942 114.773 192.39 114.24C192.848 113.707 193.078 112.992 193.078 112.096V111.904C193.078 111.008 192.848 110.293 192.39 109.76C191.942 109.227 191.334 108.96 190.566 108.96C189.787 108.96 189.174 109.237 188.726 109.792C188.278 110.336 188.054 111.072 188.054 112C188.054 112.928 188.278 113.669 188.726 114.224C189.174 114.768 189.787 115.04 190.566 115.04ZM209.345 115.072C209.558 115.072 209.772 115.045 209.985 114.992L209.905 116C209.606 116.107 209.286 116.16 208.945 116.16C208.529 116.16 208.198 116.069 207.953 115.888C207.718 115.707 207.569 115.403 207.505 114.976C207.26 115.349 206.897 115.643 206.417 115.856C205.948 116.059 205.452 116.16 204.929 116.16C204.14 116.16 203.489 115.979 202.977 115.616C202.465 115.243 202.209 114.709 202.209 114.016C202.209 113.408 202.476 112.885 203.009 112.448C203.542 112 204.316 111.691 205.329 111.52L207.457 111.168V110.72C207.457 110.187 207.292 109.76 206.961 109.44C206.63 109.12 206.172 108.96 205.585 108.96C205.052 108.96 204.588 109.088 204.193 109.344C203.809 109.6 203.51 109.979 203.297 110.48L202.353 109.792C202.566 109.195 202.961 108.72 203.537 108.368C204.124 108.016 204.806 107.84 205.585 107.84C206.534 107.84 207.297 108.069 207.873 108.528C208.449 108.987 208.737 109.664 208.737 110.56V114.496C208.737 114.688 208.785 114.832 208.881 114.928C208.977 115.024 209.132 115.072 209.345 115.072ZM204.993 115.04C205.665 115.04 206.241 114.88 206.721 114.56C207.212 114.24 207.457 113.824 207.457 113.312V112.208L205.665 112.544C204.95 112.672 204.417 112.859 204.065 113.104C203.713 113.339 203.537 113.643 203.537 114.016C203.537 114.347 203.665 114.603 203.921 114.784C204.177 114.955 204.534 115.04 204.993 115.04ZM219.646 116.16C218.878 116.16 218.184 116.011 217.566 115.712C216.947 115.403 216.494 114.949 216.206 114.352L217.246 113.632C217.427 114.101 217.742 114.453 218.19 114.688C218.638 114.923 219.166 115.04 219.774 115.04C220.403 115.04 220.883 114.928 221.214 114.704C221.544 114.48 221.71 114.197 221.71 113.856C221.71 113.547 221.555 113.301 221.246 113.12C220.936 112.928 220.392 112.763 219.614 112.624C218.846 112.485 218.238 112.32 217.789 112.128C217.342 111.925 217.016 111.675 216.814 111.376C216.611 111.067 216.51 110.688 216.51 110.24C216.51 109.803 216.638 109.403 216.894 109.04C217.15 108.677 217.518 108.389 217.998 108.176C218.478 107.952 219.032 107.84 219.661 107.84C220.515 107.84 221.198 108 221.71 108.32C222.232 108.629 222.606 109.109 222.83 109.76L221.742 110.4C221.571 109.888 221.31 109.52 220.958 109.296C220.616 109.072 220.184 108.96 219.661 108.96C219.139 108.96 218.696 109.077 218.334 109.312C217.971 109.547 217.789 109.819 217.789 110.128C217.789 110.48 217.944 110.752 218.254 110.944C218.574 111.136 219.139 111.301 219.95 111.44C221.059 111.621 221.843 111.893 222.302 112.256C222.76 112.619 222.99 113.131 222.99 113.792C222.99 114.251 222.851 114.661 222.574 115.024C222.307 115.376 221.918 115.653 221.406 115.856C220.904 116.059 220.318 116.16 219.646 116.16ZM228.739 107.84C229.944 107.84 230.888 108.208 231.571 108.944C232.264 109.68 232.611 110.699 232.611 112C232.611 113.301 232.264 114.32 231.571 115.056C230.888 115.792 229.944 116.16 228.739 116.16C227.534 116.16 226.584 115.792 225.891 115.056C225.208 114.32 224.867 113.301 224.867 112C224.867 110.699 225.208 109.68 225.891 108.944C226.584 108.208 227.534 107.84 228.739 107.84ZM228.739 108.944C227.928 108.944 227.294 109.216 226.835 109.76C226.376 110.304 226.147 111.051 226.147 112C226.147 112.949 226.376 113.696 226.835 114.24C227.294 114.784 227.928 115.056 228.739 115.056C229.55 115.056 230.184 114.784 230.643 114.24C231.102 113.696 231.331 112.949 231.331 112C231.331 111.051 231.102 110.304 230.643 109.76C230.184 109.216 229.55 108.944 228.739 108.944ZM242.025 108V116H240.905L240.825 114.784C240.292 115.701 239.337 116.16 237.961 116.16C237.097 116.16 236.388 115.92 235.833 115.44C235.289 114.96 235.017 114.224 235.017 113.232V108H236.297V112.896C236.297 113.675 236.457 114.229 236.777 114.56C237.097 114.88 237.567 115.04 238.185 115.04C238.921 115.04 239.529 114.816 240.009 114.368C240.5 113.92 240.745 113.248 240.745 112.352V108H242.025ZM248.892 107.84C249.798 107.84 250.545 108.101 251.132 108.624C251.718 109.147 252.012 109.899 252.012 110.88V116H250.732V111.328C250.732 110.496 250.55 109.893 250.188 109.52C249.836 109.147 249.361 108.96 248.764 108.96C248.337 108.96 247.937 109.056 247.564 109.248C247.19 109.429 246.881 109.733 246.636 110.16C246.401 110.576 246.284 111.104 246.284 111.744V116H245.004V108H246.124L246.204 109.248C246.47 108.768 246.838 108.416 247.308 108.192C247.777 107.957 248.305 107.84 248.892 107.84ZM262.014 104.32V116H260.894L260.814 114.608C260.579 115.077 260.217 115.456 259.726 115.744C259.246 116.021 258.697 116.16 258.078 116.16C256.958 116.16 256.067 115.792 255.406 115.056C254.755 114.309 254.43 113.291 254.43 112C254.43 110.709 254.755 109.696 255.406 108.96C256.067 108.213 256.958 107.84 258.078 107.84C258.665 107.84 259.187 107.968 259.646 108.224C260.115 108.48 260.478 108.821 260.734 109.248V104.32H262.014ZM258.222 115.04C258.99 115.04 259.598 114.773 260.046 114.24C260.505 113.707 260.734 112.992 260.734 112.096V111.904C260.734 111.008 260.505 110.293 260.046 109.76C259.598 109.227 258.99 108.96 258.222 108.96C257.443 108.96 256.83 109.237 256.382 109.792C255.934 110.336 255.71 111.072 255.71 112C255.71 112.928 255.934 113.669 256.382 114.224C256.83 114.768 257.443 115.04 258.222 115.04ZM279.737 107.84C280.27 107.84 280.766 107.952 281.225 108.176C281.694 108.389 282.073 108.725 282.361 109.184C282.649 109.643 282.793 110.208 282.793 110.88V116H281.513V111.008C281.513 110.315 281.337 109.803 280.985 109.472C280.644 109.131 280.19 108.96 279.625 108.96C279.198 108.96 278.804 109.067 278.441 109.28C278.089 109.483 277.801 109.787 277.577 110.192C277.364 110.587 277.257 111.061 277.257 111.616V116H275.977V111.008C275.977 110.315 275.801 109.803 275.449 109.472C275.108 109.131 274.654 108.96 274.089 108.96C273.705 108.96 273.332 109.061 272.969 109.264C272.606 109.456 272.308 109.76 272.073 110.176C271.838 110.592 271.721 111.109 271.721 111.728V116H270.441V108H271.561L271.641 109.248C271.918 108.779 272.281 108.427 272.729 108.192C273.188 107.957 273.678 107.84 274.201 107.84C274.788 107.84 275.326 107.973 275.817 108.24C276.318 108.507 276.697 108.896 276.953 109.408C277.188 108.896 277.572 108.507 278.105 108.24C278.638 107.973 279.182 107.84 279.737 107.84ZM286.331 106.464C286.043 106.464 285.808 106.379 285.627 106.208C285.456 106.027 285.371 105.792 285.371 105.504C285.371 105.216 285.456 104.987 285.627 104.816C285.808 104.635 286.043 104.544 286.331 104.544C286.619 104.544 286.848 104.635 287.019 104.816C287.2 104.987 287.291 105.216 287.291 105.504C287.291 105.792 287.2 106.027 287.019 106.208C286.848 106.379 286.619 106.464 286.331 106.464ZM286.971 116H285.691V108H286.971V116ZM293.829 107.84C294.736 107.84 295.482 108.101 296.069 108.624C296.656 109.147 296.949 109.899 296.949 110.88V116H295.669V111.328C295.669 110.496 295.488 109.893 295.125 109.52C294.773 109.147 294.298 108.96 293.701 108.96C293.274 108.96 292.874 109.056 292.501 109.248C292.128 109.429 291.818 109.733 291.573 110.16C291.338 110.576 291.221 111.104 291.221 111.744V116H289.941V108H291.061L291.141 109.248C291.408 108.768 291.776 108.416 292.245 108.192C292.714 107.957 293.242 107.84 293.829 107.84ZM306.951 104.32V116H305.831L305.751 114.608C305.517 115.077 305.154 115.456 304.663 115.744C304.183 116.021 303.634 116.16 303.015 116.16C301.895 116.16 301.005 115.792 300.343 115.056C299.693 114.309 299.367 113.291 299.367 112C299.367 110.709 299.693 109.696 300.343 108.96C301.005 108.213 301.895 107.84 303.015 107.84C303.602 107.84 304.125 107.968 304.583 108.224C305.053 108.48 305.415 108.821 305.671 109.248V104.32H306.951ZM303.159 115.04C303.927 115.04 304.535 114.773 304.983 114.24C305.442 113.707 305.671 112.992 305.671 112.096V111.904C305.671 111.008 305.442 110.293 304.983 109.76C304.535 109.227 303.927 108.96 303.159 108.96C302.381 108.96 301.767 109.237 301.319 109.792C300.871 110.336 300.647 111.072 300.647 112C300.647 112.928 300.871 113.669 301.319 114.224C301.767 114.768 302.381 115.04 303.159 115.04ZM310.566 114.08C310.875 114.08 311.126 114.176 311.318 114.368C311.51 114.56 311.606 114.811 311.606 115.12C311.606 115.429 311.51 115.68 311.318 115.872C311.126 116.064 310.875 116.16 310.566 116.16C310.256 116.16 310.006 116.064 309.814 115.872C309.622 115.68 309.526 115.429 309.526 115.12C309.526 114.811 309.622 114.56 309.814 114.368C310.006 114.176 310.256 114.08 310.566 114.08Z" fill="#333333"/>
<path d="M64.5363 52.056V55H48.7923V33.88H64.0883V36.824H52.2163V42.904H61.4963V45.784H52.2163V52.056H64.5363ZM87.952 38.68C89.0187 38.68 90 38.904 90.896 39.352C91.792 39.7787 92.5067 40.44 93.04 41.336C93.5733 42.232 93.84 43.3307 93.84 44.632V55H90.416V45.176C90.416 43.9173 90.1173 42.9893 89.52 42.392C88.9227 41.7947 88.1227 41.496 87.12 41.496C85.9467 41.496 84.9547 41.9227 84.144 42.776C83.3547 43.6293 82.96 44.8027 82.96 46.296V55H79.536V45.176C79.536 43.9173 79.2373 42.9893 78.64 42.392C78.0427 41.7947 77.2427 41.496 76.24 41.496C75.5573 41.496 74.896 41.6773 74.256 42.04C73.616 42.3813 73.0933 42.9253 72.688 43.672C72.2827 44.4187 72.08 45.3573 72.08 46.488V55H68.656V39H71.696L71.856 41.656C72.3893 40.6747 73.1147 39.9387 74.032 39.448C74.9493 38.936 75.952 38.68 77.04 38.68C78.2347 38.68 79.312 38.9573 80.272 39.512C81.2533 40.0453 81.9787 40.8347 82.448 41.88C82.9387 40.8347 83.6853 40.0453 84.688 39.512C85.712 38.9573 86.8 38.68 87.952 38.68ZM106.071 38.68C108.567 38.68 110.519 39.416 111.927 40.888C113.335 42.36 114.039 44.3973 114.039 47C114.039 49.6027 113.335 51.64 111.927 53.112C110.519 54.584 108.567 55.32 106.071 55.32C103.575 55.32 101.623 54.584 100.215 53.112C98.807 51.64 98.103 49.6027 98.103 47C98.103 44.3973 98.807 42.36 100.215 40.888C101.623 39.416 103.575 38.68 106.071 38.68ZM106.071 41.368C104.62 41.368 103.5 41.8587 102.711 42.84C101.943 43.8 101.559 45.1867 101.559 47C101.559 48.8133 101.943 50.2107 102.711 51.192C103.5 52.152 104.62 52.632 106.071 52.632C107.522 52.632 108.642 52.1413 109.431 51.16C110.22 50.1787 110.615 48.792 110.615 47C110.615 45.208 110.22 43.8213 109.431 42.84C108.642 41.8587 107.522 41.368 106.071 41.368ZM128.587 53.944C128.075 54.3707 127.445 54.712 126.699 54.968C125.973 55.2027 125.184 55.32 124.331 55.32C122.859 55.32 121.675 54.9573 120.779 54.232C119.904 53.4853 119.456 52.3333 119.435 50.776V41.688H116.395V39H119.435V35.256L122.859 34.296V39H128.459V41.688H122.859V50.2C122.859 50.968 123.061 51.544 123.467 51.928C123.893 52.2907 124.469 52.472 125.195 52.472C126.176 52.472 127.04 52.1307 127.787 51.448L128.587 53.944ZM133.509 36.312C132.784 36.312 132.218 36.1307 131.813 35.768C131.408 35.384 131.205 34.8507 131.205 34.168C131.205 33.4853 131.408 32.9627 131.813 32.6C132.218 32.2373 132.784 32.056 133.509 32.056C134.234 32.056 134.789 32.2373 135.173 32.6C135.578 32.9627 135.781 33.4853 135.781 34.168C135.781 34.8507 135.578 35.384 135.173 35.768C134.789 36.1307 134.234 36.312 133.509 36.312ZM135.205 55H131.781V39H135.205V55ZM147.602 38.68C150.098 38.68 152.05 39.416 153.458 40.888C154.866 42.36 155.57 44.3973 155.57 47C155.57 49.6027 154.866 51.64 153.458 53.112C152.05 54.584 150.098 55.32 147.602 55.32C145.106 55.32 143.154 54.584 141.746 53.112C140.338 51.64 139.634 49.6027 139.634 47C139.634 44.3973 140.338 42.36 141.746 40.888C143.154 39.416 145.106 38.68 147.602 38.68ZM147.602 41.368C146.152 41.368 145.032 41.8587 144.242 42.84C143.474 43.8 143.09 45.1867 143.09 47C143.09 48.8133 143.474 50.2107 144.242 51.192C145.032 52.152 146.152 52.632 147.602 52.632C149.053 52.632 150.173 52.1413 150.962 51.16C151.752 50.1787 152.146 48.792 152.146 47C152.146 45.208 151.752 43.8213 150.962 42.84C150.173 41.8587 149.053 41.368 147.602 41.368ZM168.577 38.68C170.347 38.68 171.787 39.192 172.897 40.216C174.027 41.24 174.593 42.712 174.593 44.632V55H171.169V45.72C171.169 42.904 170.027 41.496 167.745 41.496C166.55 41.496 165.526 41.912 164.673 42.744C163.819 43.5547 163.393 44.8133 163.393 46.52V55H159.969V39H163.009L163.169 41.656C163.702 40.6533 164.438 39.9067 165.377 39.416C166.315 38.9253 167.382 38.68 168.577 38.68ZM193.605 52.76C194.074 52.76 194.469 52.7173 194.789 52.632L194.565 54.936C193.989 55.192 193.328 55.32 192.581 55.32C191.664 55.32 190.928 55.1387 190.373 54.776C189.84 54.4133 189.488 53.8053 189.317 52.952C188.826 53.6987 188.101 54.2853 187.141 54.712C186.181 55.1173 185.104 55.32 183.909 55.32C182.352 55.32 181.093 54.9573 180.133 54.232C179.173 53.5067 178.693 52.472 178.693 51.128C178.693 49.8693 179.216 48.8133 180.261 47.96C181.306 47.0853 182.864 46.4667 184.933 46.104L188.997 45.4V44.536C188.997 43.5547 188.709 42.7867 188.133 42.232C187.557 41.656 186.757 41.368 185.733 41.368C183.621 41.368 182.245 42.328 181.605 44.248L178.949 42.84C179.333 41.56 180.112 40.5467 181.285 39.8C182.48 39.0533 183.941 38.68 185.669 38.68C187.738 38.68 189.381 39.16 190.597 40.12C191.813 41.08 192.421 42.488 192.421 44.344V51.576C192.421 51.9813 192.506 52.28 192.677 52.472C192.869 52.664 193.178 52.76 193.605 52.76ZM184.645 52.728C185.797 52.728 186.81 52.4507 187.685 51.896C188.56 51.3413 188.997 50.6053 188.997 49.688V47.768L185.509 48.472C184.4 48.6853 183.578 48.984 183.045 49.368C182.512 49.752 182.245 50.264 182.245 50.904C182.245 51.5013 182.448 51.96 182.853 52.28C183.28 52.5787 183.877 52.728 184.645 52.728ZM201.359 50.328C201.359 51.1173 201.476 51.672 201.711 51.992C201.946 52.2907 202.383 52.44 203.023 52.44C203.428 52.44 203.77 52.4187 204.047 52.376C204.346 52.312 204.708 52.1947 205.135 52.024L204.751 54.776C204.026 55.1387 203.14 55.32 202.095 55.32C200.666 55.32 199.61 54.9573 198.927 54.232C198.266 53.5067 197.935 52.3653 197.935 50.808V31.8H201.359V50.328ZM226.077 38.68C227.847 38.68 229.287 39.192 230.397 40.216C231.527 41.24 232.093 42.712 232.093 44.632V55H228.669V45.72C228.669 42.904 227.527 41.496 225.245 41.496C224.05 41.496 223.026 41.912 222.173 42.744C221.319 43.576 220.893 44.8453 220.893 46.552V55H217.469V31.8H220.893V41.56C221.426 40.5787 222.13 39.8533 223.005 39.384C223.901 38.9147 224.925 38.68 226.077 38.68ZM251.585 46.52C251.585 47.1387 251.542 47.7253 251.457 48.28H239.745C239.937 49.688 240.438 50.7653 241.249 51.512C242.06 52.2373 243.105 52.6 244.385 52.6C245.43 52.6 246.294 52.4187 246.977 52.056C247.681 51.672 248.161 51.128 248.417 50.424L251.265 51.608C250.07 54.0827 247.777 55.32 244.385 55.32C241.868 55.32 239.894 54.584 238.465 53.112C237.057 51.64 236.353 49.6027 236.353 47C236.353 44.376 237.036 42.3387 238.401 40.888C239.766 39.416 241.686 38.68 244.161 38.68C246.508 38.68 248.332 39.3947 249.633 40.824C250.934 42.2533 251.585 44.152 251.585 46.52ZM244.161 41.4C242.924 41.4 241.921 41.7627 241.153 42.488C240.406 43.2133 239.937 44.2693 239.745 45.656H248.385C248.214 44.312 247.756 43.2667 247.009 42.52C246.284 41.7733 245.334 41.4 244.161 41.4ZM269.699 52.76C270.168 52.76 270.563 52.7173 270.883 52.632L270.659 54.936C270.083 55.192 269.421 55.32 268.675 55.32C267.757 55.32 267.021 55.1387 266.467 54.776C265.933 54.4133 265.581 53.8053 265.411 52.952C264.92 53.6987 264.195 54.2853 263.235 54.712C262.275 55.1173 261.197 55.32 260.003 55.32C258.445 55.32 257.187 54.9573 256.227 54.232C255.267 53.5067 254.787 52.472 254.787 51.128C254.787 49.8693 255.309 48.8133 256.355 47.96C257.4 47.0853 258.957 46.4667 261.027 46.104L265.091 45.4V44.536C265.091 43.5547 264.803 42.7867 264.227 42.232C263.651 41.656 262.851 41.368 261.827 41.368C259.715 41.368 258.339 42.328 257.699 44.248L255.043 42.84C255.427 41.56 256.205 40.5467 257.379 39.8C258.573 39.0533 260.035 38.68 261.763 38.68C263.832 38.68 265.475 39.16 266.691 40.12C267.907 41.08 268.515 42.488 268.515 44.344V51.576C268.515 51.9813 268.6 52.28 268.771 52.472C268.963 52.664 269.272 52.76 269.699 52.76ZM260.739 52.728C261.891 52.728 262.904 52.4507 263.779 51.896C264.653 51.3413 265.091 50.6053 265.091 49.688V47.768L261.603 48.472C260.493 48.6853 259.672 48.984 259.139 49.368C258.605 49.752 258.339 50.264 258.339 50.904C258.339 51.5013 258.541 51.96 258.947 52.28C259.373 52.5787 259.971 52.728 260.739 52.728ZM277.453 50.328C277.453 51.1173 277.57 51.672 277.805 51.992C278.039 52.2907 278.477 52.44 279.117 52.44C279.522 52.44 279.863 52.4187 280.141 52.376C280.439 52.312 280.802 52.1947 281.229 52.024L280.845 54.776C280.119 55.1387 279.234 55.32 278.189 55.32C276.759 55.32 275.703 54.9573 275.021 54.232C274.359 53.5067 274.029 52.3653 274.029 50.808V31.8H277.453V50.328ZM293.868 53.944C293.356 54.3707 292.726 54.712 291.98 54.968C291.254 55.2027 290.465 55.32 289.612 55.32C288.14 55.32 286.956 54.9573 286.06 54.232C285.185 53.4853 284.737 52.3333 284.716 50.776V41.688H281.676V39H284.716V35.256L288.14 34.296V39H293.74V41.688H288.14V50.2C288.14 50.968 288.342 51.544 288.748 51.928C289.174 52.2907 289.75 52.472 290.476 52.472C291.457 52.472 292.321 52.1307 293.068 51.448L293.868 53.944ZM305.795 38.68C307.566 38.68 309.006 39.192 310.115 40.216C311.246 41.24 311.811 42.712 311.811 44.632V55H308.387V45.72C308.387 42.904 307.246 41.496 304.963 41.496C303.769 41.496 302.745 41.912 301.891 42.744C301.038 43.576 300.611 44.8453 300.611 46.552V55H297.187V31.8H300.611V41.56C301.145 40.5787 301.849 39.8533 302.723 39.384C303.619 38.9147 304.643 38.68 305.795 38.68Z" fill="#4F4F4F"/>
</svg>
