<svg width="360" height="144" viewBox="0 0 360 144" fill="none" xmlns="http://www.w3.org/2000/svg">
<path d="M0 0H360V72V144H0V72V0Z" fill="#E0E0E0"/>
<path d="M47.2189 85.64V89.048H51.9869V90.248H47.2189V95H45.9389V84.44H53.3309V85.64H47.2189ZM61.4536 90.584C61.4536 90.8827 61.4322 91.1813 61.3896 91.48H55.3576C55.4322 92.2907 55.6989 92.92 56.1576 93.368C56.6269 93.816 57.2296 94.04 57.9656 94.04C58.5522 94.04 59.0376 93.9387 59.4216 93.736C59.8162 93.5333 60.0829 93.24 60.2216 92.856L61.2936 93.416C60.9736 93.9813 60.5469 94.4133 60.0136 94.712C59.4802 95.0107 58.7976 95.16 57.9656 95.16C56.7602 95.16 55.8109 94.792 55.1176 94.056C54.4349 93.32 54.0936 92.3013 54.0936 91C54.0936 89.6987 54.4189 88.68 55.0696 87.944C55.7309 87.208 56.6642 86.84 57.8696 86.84C58.6162 86.84 59.2616 87.0053 59.8056 87.336C60.3496 87.6667 60.7602 88.1147 61.0376 88.68C61.3149 89.2453 61.4536 89.88 61.4536 90.584ZM57.8696 87.96C57.1656 87.96 56.5949 88.168 56.1576 88.584C55.7309 89 55.4696 89.5867 55.3736 90.344H60.2216C60.1362 89.5973 59.8909 89.016 59.4856 88.6C59.0802 88.1733 58.5416 87.96 57.8696 87.96ZM70.4464 94.072C70.6598 94.072 70.8731 94.0453 71.0864 93.992L71.0064 95C70.7078 95.1067 70.3878 95.16 70.0464 95.16C69.6304 95.16 69.2998 95.0693 69.0544 94.888C68.8198 94.7067 68.6704 94.4027 68.6064 93.976C68.3611 94.3493 67.9984 94.6427 67.5184 94.856C67.0491 95.0587 66.5531 95.16 66.0304 95.16C65.2411 95.16 64.5904 94.9787 64.0784 94.616C63.5664 94.2427 63.3104 93.7093 63.3104 93.016C63.3104 92.408 63.5771 91.8853 64.1104 91.448C64.6438 91 65.4171 90.6907 66.4304 90.52L68.5584 90.168V89.72C68.5584 89.1867 68.3931 88.76 68.0624 88.44C67.7318 88.12 67.2731 87.96 66.6864 87.96C66.1531 87.96 65.6891 88.088 65.2944 88.344C64.9104 88.6 64.6118 88.9787 64.3984 89.48L63.4544 88.792C63.6678 88.1947 64.0624 87.72 64.6384 87.368C65.2251 87.016 65.9078 86.84 66.6864 86.84C67.6358 86.84 68.3984 87.0693 68.9744 87.528C69.5504 87.9867 69.8384 88.664 69.8384 89.56V93.496C69.8384 93.688 69.8864 93.832 69.9824 93.928C70.0784 94.024 70.2331 94.072 70.4464 94.072ZM66.0944 94.04C66.7664 94.04 67.3424 93.88 67.8224 93.56C68.3131 93.24 68.5584 92.824 68.5584 92.312V91.208L66.7664 91.544C66.0518 91.672 65.5184 91.8587 65.1664 92.104C64.8144 92.3387 64.6384 92.6427 64.6384 93.016C64.6384 93.3467 64.7664 93.6027 65.0224 93.784C65.2784 93.9547 65.6358 94.04 66.0944 94.04ZM76.7249 86.84C77.1089 86.84 77.4023 86.8933 77.6049 87L77.3489 88.248C77.0929 88.1093 76.7569 88.04 76.3409 88.04C75.9996 88.04 75.6636 88.1413 75.3329 88.344C75.0129 88.536 74.7463 88.8347 74.5329 89.24C74.3303 89.6347 74.2289 90.1147 74.2289 90.68V95H72.9489V87H73.9889L74.1649 88.312C74.6129 87.3307 75.4663 86.84 76.7249 86.84ZM87.9343 86.84C89.1396 86.84 90.0836 87.208 90.7663 87.944C91.4596 88.68 91.8063 89.6987 91.8063 91C91.8063 92.3013 91.4596 93.32 90.7663 94.056C90.0836 94.792 89.1396 95.16 87.9343 95.16C86.729 95.16 85.7796 94.792 85.0863 94.056C84.4036 93.32 84.0623 92.3013 84.0623 91C84.0623 89.6987 84.4036 88.68 85.0863 87.944C85.7796 87.208 86.729 86.84 87.9343 86.84ZM87.9343 87.944C87.1236 87.944 86.489 88.216 86.0303 88.76C85.5716 89.304 85.3423 90.0507 85.3423 91C85.3423 91.9493 85.5716 92.696 86.0303 93.24C86.489 93.784 87.1236 94.056 87.9343 94.056C88.745 94.056 89.3796 93.784 89.8383 93.24C90.297 92.696 90.5263 91.9493 90.5263 91C90.5263 90.0507 90.297 89.304 89.8383 88.76C89.3796 88.216 88.745 87.944 87.9343 87.944ZM96.0561 87H98.7281V88.104H96.0561V95H94.7761V88.104H93.1761V87H94.7761V85.656C94.7761 84.92 95.0001 84.3333 95.4481 83.896C95.8961 83.4587 96.5467 83.24 97.4001 83.24C97.6881 83.24 97.9494 83.272 98.1841 83.336C98.4294 83.4 98.6214 83.4907 98.7601 83.608L98.4241 84.648C98.1681 84.488 97.8641 84.408 97.5121 84.408C96.5414 84.408 96.0561 84.8667 96.0561 85.784V87ZM107.966 95.16C107.198 95.16 106.504 95.0107 105.886 94.712C105.267 94.4027 104.814 93.9493 104.526 93.352L105.566 92.632C105.747 93.1013 106.062 93.4533 106.51 93.688C106.958 93.9227 107.486 94.04 108.094 94.04C108.723 94.04 109.203 93.928 109.534 93.704C109.864 93.48 110.03 93.1973 110.03 92.856C110.03 92.5467 109.875 92.3013 109.566 92.12C109.256 91.928 108.712 91.7627 107.934 91.624C107.166 91.4853 106.558 91.32 106.11 91.128C105.662 90.9253 105.336 90.6747 105.134 90.376C104.931 90.0667 104.83 89.688 104.83 89.24C104.83 88.8027 104.958 88.4027 105.214 88.04C105.47 87.6773 105.838 87.3893 106.318 87.176C106.798 86.952 107.352 86.84 107.982 86.84C108.835 86.84 109.518 87 110.03 87.32C110.552 87.6293 110.926 88.1093 111.15 88.76L110.062 89.4C109.891 88.888 109.63 88.52 109.278 88.296C108.936 88.072 108.504 87.96 107.982 87.96C107.459 87.96 107.016 88.0773 106.654 88.312C106.291 88.5467 106.11 88.8187 106.11 89.128C106.11 89.48 106.264 89.752 106.574 89.944C106.894 90.136 107.459 90.3013 108.27 90.44C109.379 90.6213 110.163 90.8933 110.622 91.256C111.08 91.6187 111.31 92.1307 111.31 92.792C111.31 93.2507 111.171 93.6613 110.894 94.024C110.627 94.376 110.238 94.6533 109.726 94.856C109.224 95.0587 108.638 95.16 107.966 95.16ZM117.571 86.84C118.478 86.84 119.225 87.1013 119.811 87.624C120.398 88.1467 120.691 88.8987 120.691 89.88V95H119.411V90.328C119.411 89.496 119.23 88.8933 118.867 88.52C118.515 88.1467 118.041 87.96 117.443 87.96C117.027 87.96 116.627 88.056 116.243 88.248C115.87 88.44 115.561 88.7493 115.315 89.176C115.081 89.592 114.963 90.12 114.963 90.76V95H113.683V83.32H114.963V88.2C115.23 87.7413 115.587 87.4 116.035 87.176C116.494 86.952 117.006 86.84 117.571 86.84ZM124.23 85.464C123.942 85.464 123.707 85.3787 123.526 85.208C123.355 85.0267 123.27 84.792 123.27 84.504C123.27 84.216 123.355 83.9867 123.526 83.816C123.707 83.6347 123.942 83.544 124.23 83.544C124.518 83.544 124.747 83.6347 124.918 83.816C125.099 83.9867 125.19 84.216 125.19 84.504C125.19 84.792 125.099 85.0267 124.918 85.208C124.747 85.3787 124.518 85.464 124.23 85.464ZM124.87 95H123.59V87H124.87V95ZM129.744 87H132.416V88.104H129.744V95H128.464V88.104H126.864V87H128.464V85.656C128.464 84.92 128.688 84.3333 129.136 83.896C129.584 83.4587 130.234 83.24 131.088 83.24C131.376 83.24 131.637 83.272 131.872 83.336C132.117 83.4 132.309 83.4907 132.448 83.608L132.112 84.648C131.856 84.488 131.552 84.408 131.2 84.408C130.229 84.408 129.744 84.8667 129.744 85.784V87ZM138.22 94.44C137.687 94.92 136.999 95.16 136.156 95.16C135.505 95.16 134.972 94.984 134.556 94.632C134.151 94.28 133.943 93.7413 133.932 93.016V88.104H132.332V87H133.932V85.08L135.212 84.728V87H138.172V88.104H135.212V92.792C135.212 93.176 135.319 93.4693 135.532 93.672C135.756 93.864 136.049 93.96 136.412 93.96C136.924 93.96 137.377 93.7627 137.772 93.368L138.22 94.44ZM140.667 85.464C140.379 85.464 140.144 85.3787 139.963 85.208C139.792 85.0267 139.707 84.792 139.707 84.504C139.707 84.216 139.792 83.9867 139.963 83.816C140.144 83.6347 140.379 83.544 140.667 83.544C140.955 83.544 141.184 83.6347 141.355 83.816C141.536 83.9867 141.627 84.216 141.627 84.504C141.627 84.792 141.536 85.0267 141.355 85.208C141.184 85.3787 140.955 85.464 140.667 85.464ZM141.307 95H140.027V87H141.307V95ZM148.165 86.84C149.072 86.84 149.818 87.1013 150.405 87.624C150.992 88.1467 151.285 88.8987 151.285 89.88V95H150.005V90.328C150.005 89.496 149.824 88.8933 149.461 88.52C149.109 88.1467 148.634 87.96 148.037 87.96C147.61 87.96 147.21 88.056 146.837 88.248C146.464 88.4293 146.154 88.7333 145.909 89.16C145.674 89.576 145.557 90.104 145.557 90.744V95H144.277V87H145.397L145.477 88.248C145.744 87.768 146.112 87.416 146.581 87.192C147.05 86.9573 147.578 86.84 148.165 86.84ZM158.647 93.976C159.405 93.976 159.997 94.1467 160.423 94.488C160.85 94.8293 161.063 95.2933 161.063 95.88C161.063 96.392 160.887 96.84 160.535 97.224C160.183 97.6187 159.703 97.9173 159.095 98.12C158.498 98.3333 157.837 98.44 157.111 98.44C155.895 98.44 154.978 98.2427 154.359 97.848C153.741 97.464 153.431 96.9573 153.431 96.328C153.431 95.9653 153.554 95.6453 153.799 95.368C154.055 95.0907 154.402 94.8933 154.839 94.776C154.509 94.616 154.242 94.4133 154.039 94.168C153.847 93.9227 153.751 93.6347 153.751 93.304C153.751 92.9093 153.858 92.584 154.071 92.328C154.285 92.0613 154.578 91.864 154.951 91.736C154.567 91.5013 154.274 91.1973 154.071 90.824C153.879 90.44 153.783 90.0133 153.783 89.544C153.783 89.0213 153.922 88.5573 154.199 88.152C154.477 87.736 154.866 87.416 155.367 87.192C155.869 86.9573 156.434 86.84 157.063 86.84C157.661 86.84 158.205 86.9467 158.695 87.16C158.994 86.072 159.746 85.528 160.951 85.528L161.239 86.648C160.194 86.648 159.559 86.9413 159.335 87.528C159.655 87.7733 159.901 88.0667 160.071 88.408C160.253 88.7493 160.343 89.128 160.343 89.544C160.343 90.0667 160.205 90.536 159.927 90.952C159.65 91.3573 159.261 91.6773 158.759 91.912C158.258 92.136 157.693 92.248 157.063 92.248C156.594 92.248 156.183 92.2 155.831 92.104C155.511 92.1787 155.282 92.296 155.143 92.456C155.005 92.616 154.935 92.8347 154.935 93.112C154.935 93.3893 155.031 93.6027 155.223 93.752C155.415 93.9013 155.671 93.976 155.991 93.976H158.647ZM157.063 87.88C156.509 87.88 156.045 88.0347 155.671 88.344C155.298 88.6533 155.111 89.0533 155.111 89.544C155.111 90.0347 155.298 90.4347 155.671 90.744C156.045 91.0533 156.509 91.208 157.063 91.208C157.618 91.208 158.082 91.0533 158.455 90.744C158.829 90.4347 159.015 90.0347 159.015 89.544C159.015 89.0533 158.829 88.6533 158.455 88.344C158.082 88.0347 157.618 87.88 157.063 87.88ZM157.255 97.368C158.066 97.368 158.706 97.2347 159.175 96.968C159.645 96.712 159.879 96.3973 159.879 96.024C159.879 95.7147 159.757 95.48 159.511 95.32C159.277 95.16 158.871 95.08 158.295 95.08H156.151C155.661 95.08 155.282 95.1653 155.015 95.336C154.749 95.5173 154.615 95.7627 154.615 96.072C154.615 96.4773 154.839 96.792 155.287 97.016C155.735 97.2507 156.391 97.368 157.255 97.368ZM173.001 94.44C172.468 94.92 171.78 95.16 170.937 95.16C170.287 95.16 169.753 94.984 169.337 94.632C168.932 94.28 168.724 93.7413 168.713 93.016V88.104H167.113V87H168.713V85.08L169.993 84.728V87H172.953V88.104H169.993V92.792C169.993 93.176 170.1 93.4693 170.313 93.672C170.537 93.864 170.831 93.96 171.193 93.96C171.705 93.96 172.159 93.7627 172.553 93.368L173.001 94.44ZM178.696 86.84C179.603 86.84 180.35 87.1013 180.936 87.624C181.523 88.1467 181.816 88.8987 181.816 89.88V95H180.536V90.328C180.536 89.496 180.355 88.8933 179.992 88.52C179.64 88.1467 179.166 87.96 178.568 87.96C178.152 87.96 177.752 88.056 177.368 88.248C176.995 88.44 176.686 88.7493 176.44 89.176C176.206 89.592 176.088 90.12 176.088 90.76V95H174.808V83.32H176.088V88.2C176.355 87.7413 176.712 87.4 177.16 87.176C177.619 86.952 178.131 86.84 178.696 86.84ZM191.579 90.584C191.579 90.8827 191.557 91.1813 191.515 91.48H185.483C185.557 92.2907 185.824 92.92 186.283 93.368C186.752 93.816 187.355 94.04 188.091 94.04C188.677 94.04 189.163 93.9387 189.547 93.736C189.941 93.5333 190.208 93.24 190.347 92.856L191.419 93.416C191.099 93.9813 190.672 94.4133 190.139 94.712C189.605 95.0107 188.923 95.16 188.091 95.16C186.885 95.16 185.936 94.792 185.243 94.056C184.56 93.32 184.219 92.3013 184.219 91C184.219 89.6987 184.544 88.68 185.195 87.944C185.856 87.208 186.789 86.84 187.995 86.84C188.741 86.84 189.387 87.0053 189.931 87.336C190.475 87.6667 190.885 88.1147 191.163 88.68C191.44 89.2453 191.579 89.88 191.579 90.584ZM187.995 87.96C187.291 87.96 186.72 88.168 186.283 88.584C185.856 89 185.595 89.5867 185.499 90.344H190.347C190.261 89.5973 190.016 89.016 189.611 88.6C189.205 88.1733 188.667 87.96 187.995 87.96ZM194.651 85.464C194.363 85.464 194.129 85.3787 193.947 85.208C193.777 85.0267 193.691 84.792 193.691 84.504C193.691 84.216 193.777 83.9867 193.947 83.816C194.129 83.6347 194.363 83.544 194.651 83.544C194.939 83.544 195.169 83.6347 195.339 83.816C195.521 83.9867 195.611 84.216 195.611 84.504C195.611 84.792 195.521 85.0267 195.339 85.208C195.169 85.3787 194.939 85.464 194.651 85.464ZM195.291 95H194.011V87H195.291V95ZM202.037 86.84C202.421 86.84 202.715 86.8933 202.917 87L202.661 88.248C202.405 88.1093 202.069 88.04 201.653 88.04C201.312 88.04 200.976 88.1413 200.645 88.344C200.325 88.536 200.059 88.8347 199.845 89.24C199.643 89.6347 199.541 90.1147 199.541 90.68V95H198.261V87H199.301L199.477 88.312C199.925 87.3307 200.779 86.84 202.037 86.84ZM213.807 86.84C214.927 86.84 215.812 87.2133 216.463 87.96C217.124 88.696 217.455 89.7093 217.455 91C217.455 92.2907 217.124 93.3093 216.463 94.056C215.812 94.792 214.927 95.16 213.807 95.16C213.22 95.16 212.692 95.032 212.223 94.776C211.764 94.52 211.407 94.1787 211.151 93.752V98.36H209.871V87H210.991L211.071 88.392C211.305 87.9227 211.663 87.5493 212.143 87.272C212.633 86.984 213.188 86.84 213.807 86.84ZM213.663 94.04C214.441 94.04 215.055 93.768 215.503 93.224C215.951 92.6693 216.175 91.928 216.175 91C216.175 90.072 215.951 89.336 215.503 88.792C215.055 88.2373 214.441 87.96 213.663 87.96C212.895 87.96 212.281 88.2267 211.823 88.76C211.375 89.2933 211.151 90.008 211.151 90.904V91.096C211.151 91.992 211.375 92.7067 211.823 93.24C212.281 93.7733 212.895 94.04 213.663 94.04ZM226.509 94.072C226.722 94.072 226.936 94.0453 227.149 93.992L227.069 95C226.77 95.1067 226.45 95.16 226.109 95.16C225.693 95.16 225.362 95.0693 225.117 94.888C224.882 94.7067 224.733 94.4027 224.669 93.976C224.424 94.3493 224.061 94.6427 223.581 94.856C223.112 95.0587 222.616 95.16 222.093 95.16C221.304 95.16 220.653 94.9787 220.141 94.616C219.629 94.2427 219.373 93.7093 219.373 93.016C219.373 92.408 219.64 91.8853 220.173 91.448C220.706 91 221.48 90.6907 222.493 90.52L224.621 90.168V89.72C224.621 89.1867 224.456 88.76 224.125 88.44C223.794 88.12 223.336 87.96 222.749 87.96C222.216 87.96 221.752 88.088 221.357 88.344C220.973 88.6 220.674 88.9787 220.461 89.48L219.517 88.792C219.73 88.1947 220.125 87.72 220.701 87.368C221.288 87.016 221.97 86.84 222.749 86.84C223.698 86.84 224.461 87.0693 225.037 87.528C225.613 87.9867 225.901 88.664 225.901 89.56V93.496C225.901 93.688 225.949 93.832 226.045 93.928C226.141 94.024 226.296 94.072 226.509 94.072ZM222.157 94.04C222.829 94.04 223.405 93.88 223.885 93.56C224.376 93.24 224.621 92.824 224.621 92.312V91.208L222.829 91.544C222.114 91.672 221.581 91.8587 221.229 92.104C220.877 92.3387 220.701 92.6427 220.701 93.016C220.701 93.3467 220.829 93.6027 221.085 93.784C221.341 93.9547 221.698 94.04 222.157 94.04ZM232.787 86.84C233.171 86.84 233.465 86.8933 233.667 87L233.411 88.248C233.155 88.1093 232.819 88.04 232.403 88.04C232.062 88.04 231.726 88.1413 231.395 88.344C231.075 88.536 230.809 88.8347 230.595 89.24C230.393 89.6347 230.291 90.1147 230.291 90.68V95H229.011V87H230.051L230.227 88.312C230.675 87.3307 231.529 86.84 232.787 86.84ZM241.884 94.072C242.097 94.072 242.311 94.0453 242.524 93.992L242.444 95C242.145 95.1067 241.825 95.16 241.484 95.16C241.068 95.16 240.737 95.0693 240.492 94.888C240.257 94.7067 240.108 94.4027 240.044 93.976C239.799 94.3493 239.436 94.6427 238.956 94.856C238.487 95.0587 237.991 95.16 237.468 95.16C236.679 95.16 236.028 94.9787 235.516 94.616C235.004 94.2427 234.748 93.7093 234.748 93.016C234.748 92.408 235.015 91.8853 235.548 91.448C236.081 91 236.855 90.6907 237.868 90.52L239.996 90.168V89.72C239.996 89.1867 239.831 88.76 239.5 88.44C239.169 88.12 238.711 87.96 238.124 87.96C237.591 87.96 237.127 88.088 236.732 88.344C236.348 88.6 236.049 88.9787 235.836 89.48L234.892 88.792C235.105 88.1947 235.5 87.72 236.076 87.368C236.663 87.016 237.345 86.84 238.124 86.84C239.073 86.84 239.836 87.0693 240.412 87.528C240.988 87.9867 241.276 88.664 241.276 89.56V93.496C241.276 93.688 241.324 93.832 241.42 93.928C241.516 94.024 241.671 94.072 241.884 94.072ZM237.532 94.04C238.204 94.04 238.78 93.88 239.26 93.56C239.751 93.24 239.996 92.824 239.996 92.312V91.208L238.204 91.544C237.489 91.672 236.956 91.8587 236.604 92.104C236.252 92.3387 236.076 92.6427 236.076 93.016C236.076 93.3467 236.204 93.6027 236.46 93.784C236.716 93.9547 237.073 94.04 237.532 94.04ZM251.49 83.32V95H250.37L250.29 93.608C250.056 94.0773 249.693 94.456 249.202 94.744C248.722 95.0213 248.173 95.16 247.554 95.16C246.434 95.16 245.544 94.792 244.882 94.056C244.232 93.3093 243.906 92.2907 243.906 91C243.906 89.7093 244.232 88.696 244.882 87.96C245.544 87.2133 246.434 86.84 247.554 86.84C248.141 86.84 248.664 86.968 249.122 87.224C249.592 87.48 249.954 87.8213 250.21 88.248V83.32H251.49ZM247.698 94.04C248.466 94.04 249.074 93.7733 249.522 93.24C249.981 92.7067 250.21 91.992 250.21 91.096V90.904C250.21 90.008 249.981 89.2933 249.522 88.76C249.074 88.2267 248.466 87.96 247.698 87.96C246.92 87.96 246.306 88.2373 245.858 88.792C245.41 89.336 245.186 90.072 245.186 91C245.186 91.928 245.41 92.6693 245.858 93.224C246.306 93.768 246.92 94.04 247.698 94.04ZM255.105 85.464C254.817 85.464 254.582 85.3787 254.401 85.208C254.23 85.0267 254.145 84.792 254.145 84.504C254.145 84.216 254.23 83.9867 254.401 83.816C254.582 83.6347 254.817 83.544 255.105 83.544C255.393 83.544 255.622 83.6347 255.793 83.816C255.974 83.9867 256.065 84.216 256.065 84.504C256.065 84.792 255.974 85.0267 255.793 85.208C255.622 85.3787 255.393 85.464 255.105 85.464ZM255.745 95H254.465V87H255.745V95ZM263.179 93.976C263.936 93.976 264.528 94.1467 264.955 94.488C265.381 94.8293 265.595 95.2933 265.595 95.88C265.595 96.392 265.419 96.84 265.067 97.224C264.715 97.6187 264.235 97.9173 263.627 98.12C263.029 98.3333 262.368 98.44 261.643 98.44C260.427 98.44 259.509 98.2427 258.891 97.848C258.272 97.464 257.963 96.9573 257.963 96.328C257.963 95.9653 258.085 95.6453 258.331 95.368C258.587 95.0907 258.933 94.8933 259.371 94.776C259.04 94.616 258.773 94.4133 258.571 94.168C258.379 93.9227 258.283 93.6347 258.283 93.304C258.283 92.9093 258.389 92.584 258.603 92.328C258.816 92.0613 259.109 91.864 259.483 91.736C259.099 91.5013 258.805 91.1973 258.603 90.824C258.411 90.44 258.315 90.0133 258.315 89.544C258.315 89.0213 258.453 88.5573 258.731 88.152C259.008 87.736 259.397 87.416 259.899 87.192C260.4 86.9573 260.965 86.84 261.595 86.84C262.192 86.84 262.736 86.9467 263.227 87.16C263.525 86.072 264.277 85.528 265.483 85.528L265.771 86.648C264.725 86.648 264.091 86.9413 263.867 87.528C264.187 87.7733 264.432 88.0667 264.603 88.408C264.784 88.7493 264.875 89.128 264.875 89.544C264.875 90.0667 264.736 90.536 264.459 90.952C264.181 91.3573 263.792 91.6773 263.291 91.912C262.789 92.136 262.224 92.248 261.595 92.248C261.125 92.248 260.715 92.2 260.363 92.104C260.043 92.1787 259.813 92.296 259.675 92.456C259.536 92.616 259.467 92.8347 259.467 93.112C259.467 93.3893 259.563 93.6027 259.755 93.752C259.947 93.9013 260.203 93.976 260.523 93.976H263.179ZM261.595 87.88C261.04 87.88 260.576 88.0347 260.203 88.344C259.829 88.6533 259.643 89.0533 259.643 89.544C259.643 90.0347 259.829 90.4347 260.203 90.744C260.576 91.0533 261.04 91.208 261.595 91.208C262.149 91.208 262.613 91.0533 262.987 90.744C263.36 90.4347 263.547 90.0347 263.547 89.544C263.547 89.0533 263.36 88.6533 262.987 88.344C262.613 88.0347 262.149 87.88 261.595 87.88ZM261.787 97.368C262.597 97.368 263.237 97.2347 263.707 96.968C264.176 96.712 264.411 96.3973 264.411 96.024C264.411 95.7147 264.288 95.48 264.043 95.32C263.808 95.16 263.403 95.08 262.827 95.08H260.683C260.192 95.08 259.813 95.1653 259.547 95.336C259.28 95.5173 259.147 95.7627 259.147 96.072C259.147 96.4773 259.371 96.792 259.819 97.016C260.267 97.2507 260.923 97.368 261.787 97.368ZM276.792 86.84C277.325 86.84 277.821 86.952 278.28 87.176C278.749 87.3893 279.128 87.7253 279.416 88.184C279.704 88.6427 279.848 89.208 279.848 89.88V95H278.568V90.008C278.568 89.3147 278.392 88.8027 278.04 88.472C277.698 88.1307 277.245 87.96 276.68 87.96C276.253 87.96 275.858 88.0667 275.496 88.28C275.144 88.4827 274.856 88.7867 274.632 89.192C274.418 89.5867 274.312 90.0613 274.312 90.616V95H273.032V90.008C273.032 89.3147 272.856 88.8027 272.504 88.472C272.162 88.1307 271.709 87.96 271.144 87.96C270.76 87.96 270.386 88.0613 270.024 88.264C269.661 88.456 269.362 88.76 269.128 89.176C268.893 89.592 268.776 90.1093 268.776 90.728V95H267.496V87H268.616L268.696 88.248C268.973 87.7787 269.336 87.4267 269.784 87.192C270.242 86.9573 270.733 86.84 271.256 86.84C271.842 86.84 272.381 86.9733 272.872 87.24C273.373 87.5067 273.752 87.896 274.008 88.408C274.242 87.896 274.626 87.5067 275.16 87.24C275.693 86.9733 276.237 86.84 276.792 86.84ZM285.466 95.16C284.698 95.16 284.004 95.0107 283.386 94.712C282.767 94.4027 282.314 93.9493 282.026 93.352L283.066 92.632C283.247 93.1013 283.562 93.4533 284.01 93.688C284.458 93.9227 284.986 94.04 285.594 94.04C286.223 94.04 286.703 93.928 287.034 93.704C287.364 93.48 287.53 93.1973 287.53 92.856C287.53 92.5467 287.375 92.3013 287.066 92.12C286.756 91.928 286.212 91.7627 285.434 91.624C284.666 91.4853 284.058 91.32 283.61 91.128C283.162 90.9253 282.836 90.6747 282.634 90.376C282.431 90.0667 282.33 89.688 282.33 89.24C282.33 88.8027 282.458 88.4027 282.714 88.04C282.97 87.6773 283.338 87.3893 283.818 87.176C284.298 86.952 284.852 86.84 285.482 86.84C286.335 86.84 287.018 87 287.53 87.32C288.052 87.6293 288.426 88.1093 288.65 88.76L287.562 89.4C287.391 88.888 287.13 88.52 286.778 88.296C286.436 88.072 286.004 87.96 285.482 87.96C284.959 87.96 284.516 88.0773 284.154 88.312C283.791 88.5467 283.61 88.8187 283.61 89.128C283.61 89.48 283.764 89.752 284.074 89.944C284.394 90.136 284.959 90.3013 285.77 90.44C286.879 90.6213 287.663 90.8933 288.122 91.256C288.58 91.6187 288.81 92.1307 288.81 92.792C288.81 93.2507 288.671 93.6613 288.394 94.024C288.127 94.376 287.738 94.6533 287.226 94.856C286.724 95.0587 286.138 95.16 285.466 95.16ZM300.012 86.84C301.218 86.84 302.162 87.208 302.844 87.944C303.538 88.68 303.884 89.6987 303.884 91C303.884 92.3013 303.538 93.32 302.844 94.056C302.162 94.792 301.218 95.16 300.012 95.16C298.807 95.16 297.858 94.792 297.164 94.056C296.482 93.32 296.14 92.3013 296.14 91C296.14 89.6987 296.482 88.68 297.164 87.944C297.858 87.208 298.807 86.84 300.012 86.84ZM300.012 87.944C299.202 87.944 298.567 88.216 298.108 88.76C297.65 89.304 297.42 90.0507 297.42 91C297.42 91.9493 297.65 92.696 298.108 93.24C298.567 93.784 299.202 94.056 300.012 94.056C300.823 94.056 301.458 93.784 301.916 93.24C302.375 92.696 302.604 91.9493 302.604 91C302.604 90.0507 302.375 89.304 301.916 88.76C301.458 88.216 300.823 87.944 300.012 87.944ZM310.259 86.84C311.165 86.84 311.912 87.1013 312.499 87.624C313.085 88.1467 313.379 88.8987 313.379 89.88V95H312.099V90.328C312.099 89.496 311.917 88.8933 311.555 88.52C311.203 88.1467 310.728 87.96 310.131 87.96C309.704 87.96 309.304 88.056 308.931 88.248C308.557 88.4293 308.248 88.7333 308.003 89.16C307.768 89.576 307.651 90.104 307.651 90.744V95H306.371V87H307.491L307.571 88.248C307.837 87.768 308.205 87.416 308.675 87.192C309.144 86.9573 309.672 86.84 310.259 86.84ZM71.1899 108L68.4059 116H67.1259L64.8699 109.632L62.7419 116H61.4619L58.6779 108H60.1019L62.1179 114.512L64.2939 108H65.5739L67.7499 114.512L69.7659 108H71.1899ZM77.1651 107.84C78.0717 107.84 78.8184 108.101 79.4051 108.624C79.9917 109.147 80.2851 109.899 80.2851 110.88V116H79.0051V111.328C79.0051 110.496 78.8237 109.893 78.4611 109.52C78.1091 109.147 77.6344 108.96 77.0371 108.96C76.6211 108.96 76.2211 109.056 75.8371 109.248C75.4637 109.44 75.1544 109.749 74.9091 110.176C74.6744 110.592 74.5571 111.12 74.5571 111.76V116H73.2771V104.32H74.5571V109.2C74.8237 108.741 75.1811 108.4 75.6291 108.176C76.0877 107.952 76.5997 107.84 77.1651 107.84ZM89.7433 115.072C89.9566 115.072 90.17 115.045 90.3833 114.992L90.3033 116C90.0046 116.107 89.6846 116.16 89.3433 116.16C88.9273 116.16 88.5966 116.069 88.3513 115.888C88.1166 115.707 87.9673 115.403 87.9033 114.976C87.658 115.349 87.2953 115.643 86.8153 115.856C86.346 116.059 85.85 116.16 85.3273 116.16C84.538 116.16 83.8873 115.979 83.3753 115.616C82.8633 115.243 82.6073 114.709 82.6073 114.016C82.6073 113.408 82.874 112.885 83.4073 112.448C83.9406 112 84.714 111.691 85.7273 111.52L87.8553 111.168V110.72C87.8553 110.187 87.69 109.76 87.3593 109.44C87.0286 109.12 86.57 108.96 85.9833 108.96C85.45 108.96 84.986 109.088 84.5913 109.344C84.2073 109.6 83.9086 109.979 83.6953 110.48L82.7513 109.792C82.9646 109.195 83.3593 108.72 83.9353 108.368C84.522 108.016 85.2046 107.84 85.9833 107.84C86.9326 107.84 87.6953 108.069 88.2713 108.528C88.8473 108.987 89.1353 109.664 89.1353 110.56V114.496C89.1353 114.688 89.1833 114.832 89.2793 114.928C89.3753 115.024 89.53 115.072 89.7433 115.072ZM85.3913 115.04C86.0633 115.04 86.6393 114.88 87.1193 114.56C87.61 114.24 87.8553 113.824 87.8553 113.312V112.208L86.0633 112.544C85.3486 112.672 84.8153 112.859 84.4633 113.104C84.1113 113.339 83.9353 113.643 83.9353 114.016C83.9353 114.347 84.0633 114.603 84.3193 114.784C84.5753 114.955 84.9326 115.04 85.3913 115.04ZM96.8293 115.44C96.296 115.92 95.608 116.16 94.7653 116.16C94.1146 116.16 93.5813 115.984 93.1653 115.632C92.76 115.28 92.552 114.741 92.5413 114.016V109.104H90.9413V108H92.5413V106.08L93.8213 105.728V108H96.7813V109.104H93.8213V113.792C93.8213 114.176 93.928 114.469 94.1413 114.672C94.3653 114.864 94.6586 114.96 95.0213 114.96C95.5333 114.96 95.9866 114.763 96.3813 114.368L96.8293 115.44ZM104.73 106.464C104.442 106.464 104.207 106.379 104.026 106.208C103.855 106.027 103.77 105.792 103.77 105.504C103.77 105.216 103.855 104.987 104.026 104.816C104.207 104.635 104.442 104.544 104.73 104.544C105.018 104.544 105.247 104.635 105.418 104.816C105.599 104.987 105.69 105.216 105.69 105.504C105.69 105.792 105.599 106.027 105.418 106.208C105.247 106.379 105.018 106.464 104.73 106.464ZM105.37 116H104.09V108H105.37V116ZM111.06 116.16C110.292 116.16 109.598 116.011 108.98 115.712C108.361 115.403 107.908 114.949 107.62 114.352L108.66 113.632C108.841 114.101 109.156 114.453 109.604 114.688C110.052 114.923 110.58 115.04 111.188 115.04C111.817 115.04 112.297 114.928 112.628 114.704C112.958 114.48 113.124 114.197 113.124 113.856C113.124 113.547 112.969 113.301 112.66 113.12C112.35 112.928 111.806 112.763 111.028 112.624C110.26 112.485 109.652 112.32 109.204 112.128C108.756 111.925 108.43 111.675 108.228 111.376C108.025 111.067 107.924 110.688 107.924 110.24C107.924 109.803 108.052 109.403 108.308 109.04C108.564 108.677 108.932 108.389 109.412 108.176C109.892 107.952 110.446 107.84 111.076 107.84C111.929 107.84 112.612 108 113.124 108.32C113.646 108.629 114.02 109.109 114.244 109.76L113.156 110.4C112.985 109.888 112.724 109.52 112.372 109.296C112.03 109.072 111.598 108.96 111.076 108.96C110.553 108.96 110.11 109.077 109.748 109.312C109.385 109.547 109.204 109.819 109.204 110.128C109.204 110.48 109.358 110.752 109.668 110.944C109.988 111.136 110.553 111.301 111.364 111.44C112.473 111.621 113.257 111.893 113.716 112.256C114.174 112.619 114.404 113.131 114.404 113.792C114.404 114.251 114.265 114.661 113.988 115.024C113.721 115.376 113.332 115.653 112.82 115.856C112.318 116.059 111.732 116.16 111.06 116.16ZM128.79 115.072C129.004 115.072 129.217 115.045 129.43 114.992L129.35 116C129.052 116.107 128.732 116.16 128.39 116.16C127.974 116.16 127.644 116.069 127.398 115.888C127.164 115.707 127.014 115.403 126.95 114.976C126.705 115.349 126.342 115.643 125.862 115.856C125.393 116.059 124.897 116.16 124.374 116.16C123.585 116.16 122.934 115.979 122.422 115.616C121.91 115.243 121.654 114.709 121.654 114.016C121.654 113.408 121.921 112.885 122.454 112.448C122.988 112 123.761 111.691 124.774 111.52L126.902 111.168V110.72C126.902 110.187 126.737 109.76 126.406 109.44C126.076 109.12 125.617 108.96 125.03 108.96C124.497 108.96 124.033 109.088 123.638 109.344C123.254 109.6 122.956 109.979 122.742 110.48L121.798 109.792C122.012 109.195 122.406 108.72 122.982 108.368C123.569 108.016 124.252 107.84 125.03 107.84C125.98 107.84 126.742 108.069 127.318 108.528C127.894 108.987 128.182 109.664 128.182 110.56V114.496C128.182 114.688 128.23 114.832 128.326 114.928C128.422 115.024 128.577 115.072 128.79 115.072ZM124.438 115.04C125.11 115.04 125.686 114.88 126.166 114.56C126.657 114.24 126.902 113.824 126.902 113.312V112.208L125.11 112.544C124.396 112.672 123.862 112.859 123.51 113.104C123.158 113.339 122.982 113.643 122.982 114.016C122.982 114.347 123.11 114.603 123.366 114.784C123.622 114.955 123.98 115.04 124.438 115.04ZM134.669 107.84C135.469 107.84 136.141 108.027 136.685 108.4C137.239 108.763 137.671 109.285 137.981 109.968L136.765 110.544C136.423 109.488 135.714 108.96 134.637 108.96C133.837 108.96 133.207 109.232 132.749 109.776C132.301 110.309 132.077 111.051 132.077 112C132.077 112.949 132.301 113.696 132.749 114.24C133.207 114.773 133.837 115.04 134.637 115.04C135.255 115.04 135.751 114.901 136.125 114.624C136.509 114.336 136.759 113.925 136.877 113.392L138.061 113.808C137.783 114.555 137.357 115.136 136.781 115.552C136.205 115.957 135.501 116.16 134.669 116.16C133.463 116.16 132.514 115.792 131.821 115.056C131.138 114.32 130.797 113.301 130.797 112C130.797 110.699 131.138 109.68 131.821 108.944C132.514 108.208 133.463 107.84 134.669 107.84ZM145.22 115.44C144.687 115.92 143.999 116.16 143.156 116.16C142.505 116.16 141.972 115.984 141.556 115.632C141.151 115.28 140.943 114.741 140.932 114.016V109.104H139.332V108H140.932V106.08L142.212 105.728V108H145.172V109.104H142.212V113.792C142.212 114.176 142.319 114.469 142.532 114.672C142.756 114.864 143.049 114.96 143.412 114.96C143.924 114.96 144.377 114.763 144.772 114.368L145.22 115.44ZM153.955 108V116H152.835L152.755 114.784C152.222 115.701 151.267 116.16 149.891 116.16C149.027 116.16 148.318 115.92 147.763 115.44C147.219 114.96 146.947 114.224 146.947 113.232V108H148.227V112.896C148.227 113.675 148.387 114.229 148.707 114.56C149.027 114.88 149.496 115.04 150.115 115.04C150.851 115.04 151.459 114.816 151.939 114.368C152.43 113.92 152.675 113.248 152.675 112.352V108H153.955ZM163.493 115.072C163.707 115.072 163.92 115.045 164.133 114.992L164.053 116C163.755 116.107 163.435 116.16 163.093 116.16C162.677 116.16 162.347 116.069 162.101 115.888C161.867 115.707 161.717 115.403 161.653 114.976C161.408 115.349 161.045 115.643 160.565 115.856C160.096 116.059 159.6 116.16 159.077 116.16C158.288 116.16 157.637 115.979 157.125 115.616C156.613 115.243 156.357 114.709 156.357 114.016C156.357 113.408 156.624 112.885 157.157 112.448C157.691 112 158.464 111.691 159.477 111.52L161.605 111.168V110.72C161.605 110.187 161.44 109.76 161.109 109.44C160.779 109.12 160.32 108.96 159.733 108.96C159.2 108.96 158.736 109.088 158.341 109.344C157.957 109.6 157.659 109.979 157.445 110.48L156.501 109.792C156.715 109.195 157.109 108.72 157.685 108.368C158.272 108.016 158.955 107.84 159.733 107.84C160.683 107.84 161.445 108.069 162.021 108.528C162.597 108.987 162.885 109.664 162.885 110.56V114.496C162.885 114.688 162.933 114.832 163.029 114.928C163.125 115.024 163.28 115.072 163.493 115.072ZM159.141 115.04C159.813 115.04 160.389 114.88 160.869 114.56C161.36 114.24 161.605 113.824 161.605 113.312V112.208L159.813 112.544C159.099 112.672 158.565 112.859 158.213 113.104C157.861 113.339 157.685 113.643 157.685 114.016C157.685 114.347 157.813 114.603 158.069 114.784C158.325 114.955 158.683 115.04 159.141 115.04ZM167.212 113.856C167.212 114.261 167.27 114.544 167.388 114.704C167.516 114.853 167.745 114.928 168.076 114.928C168.3 114.928 168.492 114.912 168.652 114.88C168.822 114.848 169.02 114.789 169.244 114.704L169.036 115.936C168.684 116.085 168.289 116.16 167.852 116.16C167.201 116.16 166.716 115.984 166.396 115.632C166.086 115.28 165.932 114.741 165.932 114.016V104.32H167.212V113.856ZM172.102 113.856C172.102 114.261 172.161 114.544 172.278 114.704C172.406 114.853 172.636 114.928 172.966 114.928C173.19 114.928 173.382 114.912 173.542 114.88C173.713 114.848 173.91 114.789 174.134 114.704L173.926 115.936C173.574 116.085 173.18 116.16 172.742 116.16C172.092 116.16 171.606 115.984 171.286 115.632C170.977 115.28 170.822 114.741 170.822 114.016V104.32H172.102V113.856ZM178.411 117.344C178.101 118.112 177.755 118.651 177.371 118.96C176.987 119.28 176.491 119.44 175.883 119.44C175.477 119.44 175.136 119.387 174.859 119.28C174.592 119.173 174.347 119.003 174.123 118.768L174.571 117.68C174.88 118.107 175.312 118.32 175.867 118.32C176.176 118.32 176.448 118.224 176.683 118.032C176.928 117.851 177.141 117.515 177.323 117.024L177.739 115.984L174.395 108H175.851L177.851 113.216L178.347 114.64L178.923 113.056L180.795 108H182.171L178.411 117.344ZM192.868 107.84C193.775 107.84 194.522 108.101 195.108 108.624C195.695 109.147 195.988 109.899 195.988 110.88V116H194.708V111.328C194.708 110.496 194.527 109.893 194.164 109.52C193.812 109.147 193.338 108.96 192.74 108.96C192.324 108.96 191.924 109.056 191.54 109.248C191.167 109.44 190.858 109.749 190.612 110.176C190.378 110.592 190.26 111.12 190.26 111.76V116H188.98V104.32H190.26V109.2C190.527 108.741 190.884 108.4 191.332 108.176C191.791 107.952 192.303 107.84 192.868 107.84ZM205.75 111.584C205.75 111.883 205.729 112.181 205.686 112.48H199.654C199.729 113.291 199.996 113.92 200.454 114.368C200.924 114.816 201.526 115.04 202.262 115.04C202.849 115.04 203.334 114.939 203.718 114.736C204.113 114.533 204.38 114.24 204.518 113.856L205.59 114.416C205.27 114.981 204.844 115.413 204.31 115.712C203.777 116.011 203.094 116.16 202.262 116.16C201.057 116.16 200.108 115.792 199.414 115.056C198.732 114.32 198.39 113.301 198.39 112C198.39 110.699 198.716 109.68 199.366 108.944C200.028 108.208 200.961 107.84 202.166 107.84C202.913 107.84 203.558 108.005 204.102 108.336C204.646 108.667 205.057 109.115 205.334 109.68C205.612 110.245 205.75 110.88 205.75 111.584ZM202.166 108.96C201.462 108.96 200.892 109.168 200.454 109.584C200.028 110 199.766 110.587 199.67 111.344H204.518C204.433 110.597 204.188 110.016 203.782 109.6C203.377 109.173 202.838 108.96 202.166 108.96ZM214.743 115.072C214.957 115.072 215.17 115.045 215.383 114.992L215.303 116C215.005 116.107 214.685 116.16 214.343 116.16C213.927 116.16 213.597 116.069 213.351 115.888C213.117 115.707 212.967 115.403 212.903 114.976C212.658 115.349 212.295 115.643 211.815 115.856C211.346 116.059 210.85 116.16 210.327 116.16C209.538 116.16 208.887 115.979 208.375 115.616C207.863 115.243 207.607 114.709 207.607 114.016C207.607 113.408 207.874 112.885 208.407 112.448C208.941 112 209.714 111.691 210.727 111.52L212.855 111.168V110.72C212.855 110.187 212.69 109.76 212.359 109.44C212.029 109.12 211.57 108.96 210.983 108.96C210.45 108.96 209.986 109.088 209.591 109.344C209.207 109.6 208.909 109.979 208.695 110.48L207.751 109.792C207.965 109.195 208.359 108.72 208.935 108.368C209.522 108.016 210.205 107.84 210.983 107.84C211.933 107.84 212.695 108.069 213.271 108.528C213.847 108.987 214.135 109.664 214.135 110.56V114.496C214.135 114.688 214.183 114.832 214.279 114.928C214.375 115.024 214.53 115.072 214.743 115.072ZM210.391 115.04C211.063 115.04 211.639 114.88 212.119 114.56C212.61 114.24 212.855 113.824 212.855 113.312V112.208L211.063 112.544C210.349 112.672 209.815 112.859 209.463 113.104C209.111 113.339 208.935 113.643 208.935 114.016C208.935 114.347 209.063 114.603 209.319 114.784C209.575 114.955 209.933 115.04 210.391 115.04ZM218.462 113.856C218.462 114.261 218.52 114.544 218.638 114.704C218.766 114.853 218.995 114.928 219.326 114.928C219.55 114.928 219.742 114.912 219.902 114.88C220.072 114.848 220.27 114.789 220.494 114.704L220.286 115.936C219.934 116.085 219.539 116.16 219.102 116.16C218.451 116.16 217.966 115.984 217.646 115.632C217.336 115.28 217.182 114.741 217.182 114.016V104.32H218.462V113.856ZM226.72 115.44C226.187 115.92 225.499 116.16 224.656 116.16C224.005 116.16 223.472 115.984 223.056 115.632C222.651 115.28 222.443 114.741 222.432 114.016V109.104H220.832V108H222.432V106.08L223.712 105.728V108H226.672V109.104H223.712V113.792C223.712 114.176 223.819 114.469 224.032 114.672C224.256 114.864 224.549 114.96 224.912 114.96C225.424 114.96 225.877 114.763 226.272 114.368L226.72 115.44ZM232.415 107.84C233.322 107.84 234.068 108.101 234.655 108.624C235.242 109.147 235.535 109.899 235.535 110.88V116H234.255V111.328C234.255 110.496 234.074 109.893 233.711 109.52C233.359 109.147 232.884 108.96 232.287 108.96C231.871 108.96 231.471 109.056 231.087 109.248C230.714 109.44 230.404 109.749 230.159 110.176C229.924 110.592 229.807 111.12 229.807 111.76V116H228.527V104.32H229.807V109.2C230.074 108.741 230.431 108.4 230.879 108.176C231.338 107.952 231.85 107.84 232.415 107.84ZM241.255 117.344C240.945 118.112 240.599 118.651 240.215 118.96C239.831 119.28 239.335 119.44 238.727 119.44C238.321 119.44 237.98 119.387 237.703 119.28C237.436 119.173 237.191 119.003 236.967 118.768L237.415 117.68C237.724 118.107 238.156 118.32 238.711 118.32C239.02 118.32 239.292 118.224 239.527 118.032C239.772 117.851 239.985 117.515 240.167 117.024L240.583 115.984L237.239 108H238.695L240.695 113.216L241.191 114.64L241.767 113.056L243.639 108H245.015L241.255 117.344ZM256.407 115.44C255.874 115.92 255.186 116.16 254.343 116.16C253.693 116.16 253.159 115.984 252.743 115.632C252.338 115.28 252.13 114.741 252.119 114.016V109.104H250.519V108H252.119V106.08L253.399 105.728V108H256.359V109.104H253.399V113.792C253.399 114.176 253.506 114.469 253.719 114.672C253.943 114.864 254.237 114.96 254.599 114.96C255.111 114.96 255.565 114.763 255.959 114.368L256.407 115.44ZM261.591 107.84C262.796 107.84 263.74 108.208 264.423 108.944C265.116 109.68 265.463 110.699 265.463 112C265.463 113.301 265.116 114.32 264.423 115.056C263.74 115.792 262.796 116.16 261.591 116.16C260.385 116.16 259.436 115.792 258.743 115.056C258.06 114.32 257.719 113.301 257.719 112C257.719 110.699 258.06 109.68 258.743 108.944C259.436 108.208 260.385 107.84 261.591 107.84ZM261.591 108.944C260.78 108.944 260.145 109.216 259.687 109.76C259.228 110.304 258.999 111.051 258.999 112C258.999 112.949 259.228 113.696 259.687 114.24C260.145 114.784 260.78 115.056 261.591 115.056C262.401 115.056 263.036 114.784 263.495 114.24C263.953 113.696 264.183 112.949 264.183 112C264.183 111.051 263.953 110.304 263.495 109.76C263.036 109.216 262.401 108.944 261.591 108.944ZM280.266 111.584C280.266 111.883 280.245 112.181 280.202 112.48H274.17C274.245 113.291 274.511 113.92 274.97 114.368C275.439 114.816 276.042 115.04 276.778 115.04C277.365 115.04 277.85 114.939 278.234 114.736C278.629 114.533 278.895 114.24 279.034 113.856L280.106 114.416C279.786 114.981 279.359 115.413 278.826 115.712C278.293 116.011 277.61 116.16 276.778 116.16C275.573 116.16 274.623 115.792 273.93 115.056C273.247 114.32 272.906 113.301 272.906 112C272.906 110.699 273.231 109.68 273.882 108.944C274.543 108.208 275.477 107.84 276.682 107.84C277.429 107.84 278.074 108.005 278.618 108.336C279.162 108.667 279.573 109.115 279.85 109.68C280.127 110.245 280.266 110.88 280.266 111.584ZM276.682 108.96C275.978 108.96 275.407 109.168 274.97 109.584C274.543 110 274.282 110.587 274.186 111.344H279.034C278.949 110.597 278.703 110.016 278.298 109.6C277.893 109.173 277.354 108.96 276.682 108.96ZM289.259 115.072C289.472 115.072 289.686 115.045 289.899 114.992L289.819 116C289.52 116.107 289.2 116.16 288.859 116.16C288.443 116.16 288.112 116.069 287.867 115.888C287.632 115.707 287.483 115.403 287.419 114.976C287.174 115.349 286.811 115.643 286.331 115.856C285.862 116.059 285.366 116.16 284.843 116.16C284.054 116.16 283.403 115.979 282.891 115.616C282.379 115.243 282.123 114.709 282.123 114.016C282.123 113.408 282.39 112.885 282.923 112.448C283.456 112 284.23 111.691 285.243 111.52L287.371 111.168V110.72C287.371 110.187 287.206 109.76 286.875 109.44C286.544 109.12 286.086 108.96 285.499 108.96C284.966 108.96 284.502 109.088 284.107 109.344C283.723 109.6 283.424 109.979 283.211 110.48L282.267 109.792C282.48 109.195 282.875 108.72 283.451 108.368C284.038 108.016 284.72 107.84 285.499 107.84C286.448 107.84 287.211 108.069 287.787 108.528C288.363 108.987 288.651 109.664 288.651 110.56V114.496C288.651 114.688 288.699 114.832 288.795 114.928C288.891 115.024 289.046 115.072 289.259 115.072ZM284.907 115.04C285.579 115.04 286.155 114.88 286.635 114.56C287.126 114.24 287.371 113.824 287.371 113.312V112.208L285.579 112.544C284.864 112.672 284.331 112.859 283.979 113.104C283.627 113.339 283.451 113.643 283.451 114.016C283.451 114.347 283.579 114.603 283.835 114.784C284.091 114.955 284.448 115.04 284.907 115.04ZM296.345 115.44C295.812 115.92 295.124 116.16 294.281 116.16C293.63 116.16 293.097 115.984 292.681 115.632C292.276 115.28 292.068 114.741 292.057 114.016V109.104H290.457V108H292.057V106.08L293.337 105.728V108H296.297V109.104H293.337V113.792C293.337 114.176 293.444 114.469 293.657 114.672C293.881 114.864 294.174 114.96 294.537 114.96C295.049 114.96 295.502 114.763 295.897 114.368L296.345 115.44ZM298.792 114.08C299.101 114.08 299.352 114.176 299.544 114.368C299.736 114.56 299.832 114.811 299.832 115.12C299.832 115.429 299.736 115.68 299.544 115.872C299.352 116.064 299.101 116.16 298.792 116.16C298.483 116.16 298.232 116.064 298.04 115.872C297.848 115.68 297.752 115.429 297.752 115.12C297.752 114.811 297.848 114.56 298.04 114.368C298.232 114.176 298.483 114.08 298.792 114.08Z" fill="#333333"/>
<path d="M105.697 46.552H101.153V55H97.761V33.88H106.369C108.652 33.88 110.454 34.4453 111.777 35.576C113.1 36.6853 113.761 38.232 113.761 40.216C113.761 41.7307 113.366 43 112.577 44.024C111.809 45.0267 110.71 45.7413 109.281 46.168L115.009 55H111.073L105.697 46.552ZM101.153 43.704H106.081C107.468 43.704 108.502 43.4267 109.185 42.872C109.868 42.296 110.209 41.4213 110.209 40.248C110.209 39.0747 109.868 38.2107 109.185 37.656C108.502 37.08 107.468 36.792 106.081 36.792H101.153V43.704ZM132.648 46.52C132.648 47.1387 132.605 47.7253 132.52 48.28H120.808C121 49.688 121.501 50.7653 122.312 51.512C123.122 52.2373 124.168 52.6 125.448 52.6C126.493 52.6 127.357 52.4187 128.04 52.056C128.744 51.672 129.224 51.128 129.48 50.424L132.328 51.608C131.133 54.0827 128.84 55.32 125.448 55.32C122.93 55.32 120.957 54.584 119.528 53.112C118.12 51.64 117.416 49.6027 117.416 47C117.416 44.376 118.098 42.3387 119.464 40.888C120.829 39.416 122.749 38.68 125.224 38.68C127.57 38.68 129.394 39.3947 130.696 40.824C131.997 42.2533 132.648 44.152 132.648 46.52ZM125.224 41.4C123.986 41.4 122.984 41.7627 122.216 42.488C121.469 43.2133 121 44.2693 120.808 45.656H129.448C129.277 44.312 128.818 43.2667 128.072 42.52C127.346 41.7733 126.397 41.4 125.224 41.4ZM142.729 55.32C141.108 55.32 139.668 55.0427 138.409 54.488C137.172 53.9333 136.233 53.0907 135.593 51.96L137.897 49.976C138.303 50.8933 138.932 51.5653 139.785 51.992C140.639 52.4187 141.663 52.632 142.857 52.632C143.945 52.632 144.788 52.4613 145.385 52.12C145.983 51.7573 146.281 51.288 146.281 50.712C146.281 50.2 146.004 49.7947 145.449 49.496C144.895 49.176 143.935 48.8773 142.569 48.6C140.201 48.152 138.537 47.5547 137.577 46.808C136.617 46.0613 136.137 45.0053 136.137 43.64C136.137 42.7653 136.404 41.9547 136.937 41.208C137.471 40.44 138.239 39.832 139.241 39.384C140.265 38.9147 141.471 38.68 142.857 38.68C144.628 38.68 146.047 38.9787 147.113 39.576C148.18 40.152 149.001 41.0587 149.577 42.296L147.145 44.088C146.761 43.1493 146.217 42.4667 145.513 42.04C144.831 41.592 143.956 41.368 142.889 41.368C141.929 41.368 141.129 41.5707 140.489 41.976C139.871 42.36 139.561 42.808 139.561 43.32C139.561 43.896 139.839 44.3547 140.393 44.696C140.969 45.0373 142.004 45.3467 143.497 45.624C145.759 46.0293 147.359 46.6053 148.297 47.352C149.236 48.0987 149.705 49.144 149.705 50.488C149.705 51.9173 149.087 53.08 147.849 53.976C146.612 54.872 144.905 55.32 142.729 55.32ZM155.603 36.312C154.877 36.312 154.312 36.1307 153.907 35.768C153.501 35.384 153.299 34.8507 153.299 34.168C153.299 33.4853 153.501 32.9627 153.907 32.6C154.312 32.2373 154.877 32.056 155.603 32.056C156.328 32.056 156.883 32.2373 157.267 32.6C157.672 32.9627 157.875 33.4853 157.875 34.168C157.875 34.8507 157.672 35.384 157.267 35.768C156.883 36.1307 156.328 36.312 155.603 36.312ZM157.299 55H153.875V39H157.299V55ZM168.448 55.32C166.827 55.32 165.387 55.0427 164.128 54.488C162.891 53.9333 161.952 53.0907 161.312 51.96L163.616 49.976C164.021 50.8933 164.651 51.5653 165.504 51.992C166.357 52.4187 167.381 52.632 168.576 52.632C169.664 52.632 170.507 52.4613 171.104 52.12C171.701 51.7573 172 51.288 172 50.712C172 50.2 171.723 49.7947 171.168 49.496C170.613 49.176 169.653 48.8773 168.288 48.6C165.92 48.152 164.256 47.5547 163.296 46.808C162.336 46.0613 161.856 45.0053 161.856 43.64C161.856 42.7653 162.123 41.9547 162.656 41.208C163.189 40.44 163.957 39.832 164.96 39.384C165.984 38.9147 167.189 38.68 168.576 38.68C170.347 38.68 171.765 38.9787 172.832 39.576C173.899 40.152 174.72 41.0587 175.296 42.296L172.864 44.088C172.48 43.1493 171.936 42.4667 171.232 42.04C170.549 41.592 169.675 41.368 168.608 41.368C167.648 41.368 166.848 41.5707 166.208 41.976C165.589 42.36 165.28 42.808 165.28 43.32C165.28 43.896 165.557 44.3547 166.112 44.696C166.688 45.0373 167.723 45.3467 169.216 45.624C171.477 46.0293 173.077 46.6053 174.016 47.352C174.955 48.0987 175.424 49.144 175.424 50.488C175.424 51.9173 174.805 53.08 173.568 53.976C172.331 54.872 170.624 55.32 168.448 55.32ZM189.962 53.944C189.45 54.3707 188.82 54.712 188.074 54.968C187.348 55.2027 186.559 55.32 185.706 55.32C184.234 55.32 183.05 54.9573 182.154 54.232C181.279 53.4853 180.831 52.3333 180.81 50.776V41.688H177.77V39H180.81V35.256L184.234 34.296V39H189.834V41.688H184.234V50.2C184.234 50.968 184.436 51.544 184.842 51.928C185.268 52.2907 185.844 52.472 186.57 52.472C187.551 52.472 188.415 52.1307 189.162 51.448L189.962 53.944ZM207.074 52.76C207.543 52.76 207.938 52.7173 208.258 52.632L208.034 54.936C207.458 55.192 206.796 55.32 206.05 55.32C205.132 55.32 204.396 55.1387 203.842 54.776C203.308 54.4133 202.956 53.8053 202.786 52.952C202.295 53.6987 201.57 54.2853 200.61 54.712C199.65 55.1173 198.572 55.32 197.378 55.32C195.82 55.32 194.562 54.9573 193.602 54.232C192.642 53.5067 192.162 52.472 192.162 51.128C192.162 49.8693 192.684 48.8133 193.73 47.96C194.775 47.0853 196.332 46.4667 198.402 46.104L202.466 45.4V44.536C202.466 43.5547 202.178 42.7867 201.602 42.232C201.026 41.656 200.226 41.368 199.202 41.368C197.09 41.368 195.714 42.328 195.074 44.248L192.418 42.84C192.802 41.56 193.58 40.5467 194.754 39.8C195.948 39.0533 197.41 38.68 199.138 38.68C201.207 38.68 202.85 39.16 204.066 40.12C205.282 41.08 205.89 42.488 205.89 44.344V51.576C205.89 51.9813 205.975 52.28 206.146 52.472C206.338 52.664 206.647 52.76 207.074 52.76ZM198.114 52.728C199.266 52.728 200.279 52.4507 201.154 51.896C202.028 51.3413 202.466 50.6053 202.466 49.688V47.768L198.978 48.472C197.868 48.6853 197.047 48.984 196.514 49.368C195.98 49.752 195.714 50.264 195.714 50.904C195.714 51.5013 195.916 51.96 196.322 52.28C196.748 52.5787 197.346 52.728 198.114 52.728ZM220.108 38.68C221.878 38.68 223.318 39.192 224.428 40.216C225.558 41.24 226.124 42.712 226.124 44.632V55H222.7V45.72C222.7 42.904 221.558 41.496 219.276 41.496C218.081 41.496 217.057 41.912 216.204 42.744C215.35 43.5547 214.924 44.8133 214.924 46.52V55H211.5V39H214.54L214.7 41.656C215.233 40.6533 215.969 39.9067 216.908 39.416C217.846 38.9253 218.913 38.68 220.108 38.68ZM238.352 38.68C241.851 38.68 244.166 40.1733 245.296 43.16L242.096 44.44C241.542 42.4133 240.294 41.4 238.352 41.4C236.923 41.4 235.814 41.8907 235.024 42.872C234.235 43.8533 233.84 45.24 233.84 47.032C233.84 48.824 234.235 50.2 235.024 51.16C235.814 52.12 236.923 52.6 238.352 52.6C239.44 52.6 240.315 52.3333 240.976 51.8C241.638 51.2667 242.075 50.4987 242.288 49.496L245.424 50.552C244.955 52.0453 244.123 53.2187 242.928 54.072C241.734 54.904 240.23 55.32 238.416 55.32C235.899 55.32 233.926 54.584 232.496 53.112C231.088 51.64 230.384 49.6027 230.384 47C230.384 44.3973 231.088 42.36 232.496 40.888C233.904 39.416 235.856 38.68 238.352 38.68ZM263.741 46.52C263.741 47.1387 263.699 47.7253 263.613 48.28H251.901C252.093 49.688 252.595 50.7653 253.405 51.512C254.216 52.2373 255.261 52.6 256.541 52.6C257.587 52.6 258.451 52.4187 259.133 52.056C259.837 51.672 260.317 51.128 260.573 50.424L263.421 51.608C262.227 54.0827 259.933 55.32 256.541 55.32C254.024 55.32 252.051 54.584 250.621 53.112C249.213 51.64 248.509 49.6027 248.509 47C248.509 44.376 249.192 42.3387 250.557 40.888C251.923 39.416 253.843 38.68 256.317 38.68C258.664 38.68 260.488 39.3947 261.789 40.824C263.091 42.2533 263.741 44.152 263.741 46.52ZM256.317 41.4C255.08 41.4 254.077 41.7627 253.309 42.488C252.563 43.2133 252.093 44.2693 251.901 45.656H260.541C260.371 44.312 259.912 43.2667 259.165 42.52C258.44 41.7733 257.491 41.4 256.317 41.4Z" fill="#333333"/>
</svg>
