<svg width="360" height="144" viewBox="0 0 360 144" fill="none" xmlns="http://www.w3.org/2000/svg">
<path d="M0 0H360V72V144H0V72V0Z" fill="#E0E0E0"/>
<path d="M62.3136 88.056C61.9403 88.056 61.647 87.912 61.4336 87.624C61.2203 87.336 61.1136 86.9627 61.1136 86.504C61.1136 85.9387 61.2576 85.416 61.5456 84.936C61.8336 84.456 62.271 84.0773 62.8576 83.8L63.5296 84.424C63.1136 84.5627 62.767 84.7813 62.4896 85.08C62.2123 85.3787 62.0363 85.704 61.9616 86.056L62.0256 86.088C62.1216 86.0133 62.271 85.976 62.4736 85.976C62.6976 85.976 62.9003 86.0667 63.0816 86.248C63.263 86.4187 63.3536 86.664 63.3536 86.984C63.3536 87.272 63.2523 87.5227 63.0496 87.736C62.847 87.9493 62.6016 88.056 62.3136 88.056ZM65.3216 88.056C64.9483 88.056 64.655 87.912 64.4416 87.624C64.2283 87.336 64.1216 86.9627 64.1216 86.504C64.1216 85.9387 64.2656 85.416 64.5536 84.936C64.8416 84.456 65.279 84.0773 65.8656 83.8L66.5376 84.424C66.1216 84.5627 65.775 84.7813 65.4976 85.08C65.2203 85.3787 65.0443 85.704 64.9696 86.056L65.0336 86.088C65.1296 86.0133 65.279 85.976 65.4816 85.976C65.7056 85.976 65.9083 86.0667 66.0896 86.248C66.271 86.4187 66.3616 86.664 66.3616 86.984C66.3616 87.272 66.2603 87.5227 66.0576 87.736C65.855 87.9493 65.6096 88.056 65.3216 88.056ZM72.9519 95H71.3679L68.2479 84.44H69.6239L72.1679 93.992L74.6639 84.44H76.1199L78.6159 94.024L81.1759 84.44H82.4719L79.3679 95H77.7839L75.9119 88.152L75.3679 85.768H75.3519L74.8079 88.152L72.9519 95ZM88.4229 86.84C89.3295 86.84 90.0762 87.1013 90.6629 87.624C91.2495 88.1467 91.5429 88.8987 91.5429 89.88V95H90.2629V90.328C90.2629 89.496 90.0815 88.8933 89.7189 88.52C89.3669 88.1467 88.8922 87.96 88.2949 87.96C87.8789 87.96 87.4789 88.056 87.0949 88.248C86.7215 88.44 86.4122 88.7493 86.1669 89.176C85.9322 89.592 85.8149 90.12 85.8149 90.76V95H84.5349V83.32H85.8149V88.2C86.0815 87.7413 86.4389 87.4 86.8869 87.176C87.3455 86.952 87.8575 86.84 88.4229 86.84ZM101.001 94.072C101.214 94.072 101.428 94.0453 101.641 93.992L101.561 95C101.262 95.1067 100.942 95.16 100.601 95.16C100.185 95.16 99.8545 95.0693 99.6091 94.888C99.3745 94.7067 99.2251 94.4027 99.1611 93.976C98.9158 94.3493 98.5531 94.6427 98.0731 94.856C97.6038 95.0587 97.1078 95.16 96.5851 95.16C95.7958 95.16 95.1451 94.9787 94.6331 94.616C94.1211 94.2427 93.8651 93.7093 93.8651 93.016C93.8651 92.408 94.1318 91.8853 94.6651 91.448C95.1985 91 95.9718 90.6907 96.9851 90.52L99.1131 90.168V89.72C99.1131 89.1867 98.9478 88.76 98.6171 88.44C98.2865 88.12 97.8278 87.96 97.2411 87.96C96.7078 87.96 96.2438 88.088 95.8491 88.344C95.4651 88.6 95.1665 88.9787 94.9531 89.48L94.0091 88.792C94.2225 88.1947 94.6171 87.72 95.1931 87.368C95.7798 87.016 96.4625 86.84 97.2411 86.84C98.1905 86.84 98.9531 87.0693 99.5291 87.528C100.105 87.9867 100.393 88.664 100.393 89.56V93.496C100.393 93.688 100.441 93.832 100.537 93.928C100.633 94.024 100.788 94.072 101.001 94.072ZM96.6491 94.04C97.3211 94.04 97.8971 93.88 98.3771 93.56C98.8678 93.24 99.1131 92.824 99.1131 92.312V91.208L97.3211 91.544C96.6065 91.672 96.0731 91.8587 95.7211 92.104C95.3691 92.3387 95.1931 92.6427 95.1931 93.016C95.1931 93.3467 95.3211 93.6027 95.5771 93.784C95.8331 93.9547 96.1905 94.04 96.6491 94.04ZM108.087 94.44C107.554 94.92 106.866 95.16 106.023 95.16C105.372 95.16 104.839 94.984 104.423 94.632C104.018 94.28 103.81 93.7413 103.799 93.016V88.104H102.199V87H103.799V85.08L105.079 84.728V87H108.039V88.104H105.079V92.792C105.079 93.176 105.186 93.4693 105.399 93.672C105.623 93.864 105.916 93.96 106.279 93.96C106.791 93.96 107.244 93.7627 107.639 93.368L108.087 94.44ZM110.502 83.8C110.876 83.8 111.169 83.944 111.382 84.232C111.596 84.52 111.702 84.8933 111.702 85.352C111.702 85.9173 111.558 86.44 111.27 86.92C110.982 87.4 110.545 87.7787 109.958 88.056L109.286 87.432C109.702 87.2933 110.049 87.0747 110.326 86.776C110.604 86.4773 110.78 86.152 110.854 85.8L110.79 85.768C110.694 85.8427 110.545 85.88 110.342 85.88C110.118 85.88 109.916 85.7947 109.734 85.624C109.553 85.4427 109.462 85.192 109.462 84.872C109.462 84.584 109.564 84.3333 109.766 84.12C109.969 83.9067 110.214 83.8 110.502 83.8ZM115.942 95.16C115.174 95.16 114.481 95.0107 113.862 94.712C113.244 94.4027 112.79 93.9493 112.502 93.352L113.542 92.632C113.724 93.1013 114.038 93.4533 114.486 93.688C114.934 93.9227 115.462 94.04 116.07 94.04C116.7 94.04 117.18 93.928 117.51 93.704C117.841 93.48 118.006 93.1973 118.006 92.856C118.006 92.5467 117.852 92.3013 117.542 92.12C117.233 91.928 116.689 91.7627 115.91 91.624C115.142 91.4853 114.534 91.32 114.086 91.128C113.638 90.9253 113.313 90.6747 113.11 90.376C112.908 90.0667 112.806 89.688 112.806 89.24C112.806 88.8027 112.934 88.4027 113.19 88.04C113.446 87.6773 113.814 87.3893 114.294 87.176C114.774 86.952 115.329 86.84 115.958 86.84C116.812 86.84 117.494 87 118.006 87.32C118.529 87.6293 118.902 88.1093 119.126 88.76L118.038 89.4C117.868 88.888 117.606 88.52 117.254 88.296C116.913 88.072 116.481 87.96 115.958 87.96C115.436 87.96 114.993 88.0773 114.63 88.312C114.268 88.5467 114.086 88.8187 114.086 89.128C114.086 89.48 114.241 89.752 114.55 89.944C114.87 90.136 115.436 90.3013 116.246 90.44C117.356 90.6213 118.14 90.8933 118.598 91.256C119.057 91.6187 119.286 92.1307 119.286 92.792C119.286 93.2507 119.148 93.6613 118.87 94.024C118.604 94.376 118.214 94.6533 117.702 94.856C117.201 95.0587 116.614 95.16 115.942 95.16ZM130.489 86.84C131.694 86.84 132.638 87.208 133.321 87.944C134.014 88.68 134.361 89.6987 134.361 91C134.361 92.3013 134.014 93.32 133.321 94.056C132.638 94.792 131.694 95.16 130.489 95.16C129.284 95.16 128.334 94.792 127.641 94.056C126.958 93.32 126.617 92.3013 126.617 91C126.617 89.6987 126.958 88.68 127.641 87.944C128.334 87.208 129.284 86.84 130.489 86.84ZM130.489 87.944C129.678 87.944 129.044 88.216 128.585 88.76C128.126 89.304 127.897 90.0507 127.897 91C127.897 91.9493 128.126 92.696 128.585 93.24C129.044 93.784 129.678 94.056 130.489 94.056C131.3 94.056 131.934 93.784 132.393 93.24C132.852 92.696 133.081 91.9493 133.081 91C133.081 90.0507 132.852 89.304 132.393 88.76C131.934 88.216 131.3 87.944 130.489 87.944ZM140.735 86.84C141.642 86.84 142.389 87.1013 142.975 87.624C143.562 88.1467 143.855 88.8987 143.855 89.88V95H142.575V90.328C142.575 89.496 142.394 88.8933 142.031 88.52C141.679 88.1467 141.205 87.96 140.607 87.96C140.181 87.96 139.781 88.056 139.407 88.248C139.034 88.4293 138.725 88.7333 138.479 89.16C138.245 89.576 138.127 90.104 138.127 90.744V95H136.847V87H137.967L138.047 88.248C138.314 87.768 138.682 87.416 139.151 87.192C139.621 86.9573 140.149 86.84 140.735 86.84ZM153.618 90.584C153.618 90.8827 153.596 91.1813 153.554 91.48H147.522C147.596 92.2907 147.863 92.92 148.322 93.368C148.791 93.816 149.394 94.04 150.13 94.04C150.716 94.04 151.202 93.9387 151.586 93.736C151.98 93.5333 152.247 93.24 152.386 92.856L153.458 93.416C153.138 93.9813 152.711 94.4133 152.178 94.712C151.644 95.0107 150.962 95.16 150.13 95.16C148.924 95.16 147.975 94.792 147.282 94.056C146.599 93.32 146.258 92.3013 146.258 91C146.258 89.6987 146.583 88.68 147.234 87.944C147.895 87.208 148.828 86.84 150.034 86.84C150.78 86.84 151.426 87.0053 151.97 87.336C152.514 87.6667 152.924 88.1147 153.202 88.68C153.479 89.2453 153.618 89.88 153.618 90.584ZM150.034 87.96C149.33 87.96 148.759 88.168 148.322 88.584C147.895 89 147.634 89.5867 147.538 90.344H152.386C152.3 89.5973 152.055 89.016 151.65 88.6C151.244 88.1733 150.706 87.96 150.034 87.96ZM170.8 86.84C171.333 86.84 171.829 86.952 172.288 87.176C172.757 87.3893 173.136 87.7253 173.424 88.184C173.712 88.6427 173.856 89.208 173.856 89.88V95H172.576V90.008C172.576 89.3147 172.4 88.8027 172.048 88.472C171.706 88.1307 171.253 87.96 170.688 87.96C170.261 87.96 169.866 88.0667 169.504 88.28C169.152 88.4827 168.864 88.7867 168.64 89.192C168.426 89.5867 168.32 90.0613 168.32 90.616V95H167.04V90.008C167.04 89.3147 166.864 88.8027 166.512 88.472C166.17 88.1307 165.717 87.96 165.152 87.96C164.768 87.96 164.394 88.0613 164.032 88.264C163.669 88.456 163.37 88.76 163.136 89.176C162.901 89.592 162.784 90.1093 162.784 90.728V95H161.504V87H162.624L162.704 88.248C162.981 87.7787 163.344 87.4267 163.792 87.192C164.25 86.9573 164.741 86.84 165.264 86.84C165.85 86.84 166.389 86.9733 166.88 87.24C167.381 87.5067 167.76 87.896 168.016 88.408C168.25 87.896 168.634 87.5067 169.168 87.24C169.701 86.9733 170.245 86.84 170.8 86.84ZM180.13 86.84C181.335 86.84 182.279 87.208 182.962 87.944C183.655 88.68 184.002 89.6987 184.002 91C184.002 92.3013 183.655 93.32 182.962 94.056C182.279 94.792 181.335 95.16 180.13 95.16C178.924 95.16 177.975 94.792 177.282 94.056C176.599 93.32 176.258 92.3013 176.258 91C176.258 89.6987 176.599 88.68 177.282 87.944C177.975 87.208 178.924 86.84 180.13 86.84ZM180.13 87.944C179.319 87.944 178.684 88.216 178.226 88.76C177.767 89.304 177.538 90.0507 177.538 91C177.538 91.9493 177.767 92.696 178.226 93.24C178.684 93.784 179.319 94.056 180.13 94.056C180.94 94.056 181.575 93.784 182.034 93.24C182.492 92.696 182.722 91.9493 182.722 91C182.722 90.0507 182.492 89.304 182.034 88.76C181.575 88.216 180.94 87.944 180.13 87.944ZM190.264 86.84C190.648 86.84 190.941 86.8933 191.144 87L190.888 88.248C190.632 88.1093 190.296 88.04 189.88 88.04C189.539 88.04 189.203 88.1413 188.872 88.344C188.552 88.536 188.285 88.8347 188.072 89.24C187.869 89.6347 187.768 90.1147 187.768 90.68V95H186.488V87H187.528L187.704 88.312C188.152 87.3307 189.005 86.84 190.264 86.84ZM199.633 90.584C199.633 90.8827 199.612 91.1813 199.569 91.48H193.537C193.612 92.2907 193.879 92.92 194.337 93.368C194.807 93.816 195.409 94.04 196.145 94.04C196.732 94.04 197.217 93.9387 197.601 93.736C197.996 93.5333 198.263 93.24 198.401 92.856L199.473 93.416C199.153 93.9813 198.727 94.4133 198.193 94.712C197.66 95.0107 196.977 95.16 196.145 95.16C194.94 95.16 193.991 94.792 193.297 94.056C192.615 93.32 192.273 92.3013 192.273 91C192.273 89.6987 192.599 88.68 193.249 87.944C193.911 87.208 194.844 86.84 196.049 86.84C196.796 86.84 197.441 87.0053 197.985 87.336C198.529 87.6667 198.94 88.1147 199.217 88.68C199.495 89.2453 199.633 89.88 199.633 90.584ZM196.049 87.96C195.345 87.96 194.775 88.168 194.337 88.584C193.911 89 193.649 89.5867 193.553 90.344H198.401C198.316 89.5973 198.071 89.016 197.665 88.6C197.26 88.1733 196.721 87.96 196.049 87.96ZM209.126 87H211.798V88.104H209.126V95H207.846V88.104H206.246V87H207.846V85.656C207.846 84.92 208.07 84.3333 208.518 83.896C208.966 83.4587 209.617 83.24 210.47 83.24C210.758 83.24 211.02 83.272 211.254 83.336C211.5 83.4 211.692 83.4907 211.83 83.608L211.494 84.648C211.238 84.488 210.934 84.408 210.582 84.408C209.612 84.408 209.126 84.8667 209.126 85.784V87ZM217.28 86.84C217.664 86.84 217.957 86.8933 218.16 87L217.904 88.248C217.648 88.1093 217.312 88.04 216.896 88.04C216.554 88.04 216.218 88.1413 215.888 88.344C215.568 88.536 215.301 88.8347 215.088 89.24C214.885 89.6347 214.784 90.1147 214.784 90.68V95H213.504V87H214.544L214.72 88.312C215.168 87.3307 216.021 86.84 217.28 86.84ZM226.649 90.584C226.649 90.8827 226.628 91.1813 226.585 91.48H220.553C220.628 92.2907 220.894 92.92 221.353 93.368C221.822 93.816 222.425 94.04 223.161 94.04C223.748 94.04 224.233 93.9387 224.617 93.736C225.012 93.5333 225.278 93.24 225.417 92.856L226.489 93.416C226.169 93.9813 225.742 94.4133 225.209 94.712C224.676 95.0107 223.993 95.16 223.161 95.16C221.956 95.16 221.006 94.792 220.313 94.056C219.63 93.32 219.289 92.3013 219.289 91C219.289 89.6987 219.614 88.68 220.265 87.944C220.926 87.208 221.86 86.84 223.065 86.84C223.812 86.84 224.457 87.0053 225.001 87.336C225.545 87.6667 225.956 88.1147 226.233 88.68C226.51 89.2453 226.649 89.88 226.649 90.584ZM223.065 87.96C222.361 87.96 221.79 88.168 221.353 88.584C220.926 89 220.665 89.5867 220.569 90.344H225.417C225.332 89.5973 225.086 89.016 224.681 88.6C224.276 88.1733 223.737 87.96 223.065 87.96ZM232.97 86.84C233.876 86.84 234.623 87.1013 235.21 87.624C235.796 88.1467 236.09 88.8987 236.09 89.88V95H234.81V90.328C234.81 89.496 234.628 88.8933 234.266 88.52C233.914 88.1467 233.439 87.96 232.842 87.96C232.415 87.96 232.015 88.056 231.642 88.248C231.268 88.4293 230.959 88.7333 230.714 89.16C230.479 89.576 230.362 90.104 230.362 90.744V95H229.082V87H230.202L230.282 88.248C230.548 87.768 230.916 87.416 231.386 87.192C231.855 86.9573 232.383 86.84 232.97 86.84ZM242.364 86.84C243.164 86.84 243.836 87.0267 244.38 87.4C244.935 87.7627 245.367 88.2853 245.676 88.968L244.46 89.544C244.119 88.488 243.409 87.96 242.332 87.96C241.532 87.96 240.903 88.232 240.444 88.776C239.996 89.3093 239.772 90.0507 239.772 91C239.772 91.9493 239.996 92.696 240.444 93.24C240.903 93.7733 241.532 94.04 242.332 94.04C242.951 94.04 243.447 93.9013 243.82 93.624C244.204 93.336 244.455 92.9253 244.572 92.392L245.756 92.808C245.479 93.5547 245.052 94.136 244.476 94.552C243.9 94.9573 243.196 95.16 242.364 95.16C241.159 95.16 240.209 94.792 239.516 94.056C238.833 93.32 238.492 92.3013 238.492 91C238.492 89.6987 238.833 88.68 239.516 87.944C240.209 87.208 241.159 86.84 242.364 86.84ZM251.907 86.84C252.814 86.84 253.561 87.1013 254.147 87.624C254.734 88.1467 255.027 88.8987 255.027 89.88V95H253.747V90.328C253.747 89.496 253.566 88.8933 253.203 88.52C252.851 88.1467 252.377 87.96 251.779 87.96C251.363 87.96 250.963 88.056 250.579 88.248C250.206 88.44 249.897 88.7493 249.651 89.176C249.417 89.592 249.299 90.12 249.299 90.76V95H248.019V83.32H249.299V88.2C249.566 87.7413 249.923 87.4 250.371 87.176C250.83 86.952 251.342 86.84 251.907 86.84ZM264.986 87H267.658V88.104H264.986V95H263.706V88.104H262.106V87H263.706V85.656C263.706 84.92 263.93 84.3333 264.378 83.896C264.826 83.4587 265.476 83.24 266.33 83.24C266.618 83.24 266.879 83.272 267.114 83.336C267.359 83.4 267.551 83.4907 267.69 83.608L267.354 84.648C267.098 84.488 266.794 84.408 266.442 84.408C265.471 84.408 264.986 84.8667 264.986 85.784V87ZM273.139 86.84C273.523 86.84 273.816 86.8933 274.019 87L273.763 88.248C273.507 88.1093 273.171 88.04 272.755 88.04C272.414 88.04 272.078 88.1413 271.747 88.344C271.427 88.536 271.16 88.8347 270.947 89.24C270.744 89.6347 270.643 90.1147 270.643 90.68V95H269.363V87H270.403L270.579 88.312C271.027 87.3307 271.88 86.84 273.139 86.84ZM278.934 96.344C278.625 97.112 278.278 97.6507 277.894 97.96C277.51 98.28 277.014 98.44 276.406 98.44C276.001 98.44 275.66 98.3867 275.382 98.28C275.116 98.1733 274.87 98.0027 274.646 97.768L275.094 96.68C275.404 97.1067 275.836 97.32 276.39 97.32C276.7 97.32 276.972 97.224 277.206 97.032C277.452 96.8507 277.665 96.5147 277.846 96.024L278.262 94.984L274.918 87H276.374L278.374 92.216L278.87 93.64L279.446 92.056L281.318 87H282.694L278.934 96.344ZM287.337 84.28C288.371 84.28 289.214 84.5253 289.865 85.016C290.515 85.5067 290.841 86.168 290.841 87C290.841 87.8853 290.563 88.5787 290.009 89.08C289.454 89.5707 288.729 89.864 287.833 89.96V91.672H286.505V89.272C287.582 89.112 288.35 88.872 288.809 88.552C289.267 88.232 289.497 87.768 289.497 87.16C289.497 86.6373 289.305 86.2267 288.921 85.928C288.537 85.6293 287.977 85.48 287.241 85.48C286.537 85.48 285.961 85.6773 285.513 86.072C285.075 86.456 284.814 86.984 284.729 87.656L283.593 87C283.774 86.168 284.195 85.5067 284.857 85.016C285.518 84.5253 286.345 84.28 287.337 84.28ZM287.145 93.08C287.454 93.08 287.705 93.176 287.897 93.368C288.089 93.56 288.185 93.8107 288.185 94.12C288.185 94.4293 288.089 94.68 287.897 94.872C287.705 95.064 287.454 95.16 287.145 95.16C286.835 95.16 286.585 95.064 286.393 94.872C286.201 94.68 286.105 94.4293 286.105 94.12C286.105 93.8107 286.201 93.56 286.393 93.368C286.585 93.176 286.835 93.08 287.145 93.08ZM293.737 83.8C294.11 83.8 294.403 83.944 294.617 84.232C294.83 84.52 294.937 84.8933 294.937 85.352C294.937 85.9173 294.793 86.44 294.505 86.92C294.217 87.4 293.779 87.7787 293.193 88.056L292.521 87.432C292.937 87.2933 293.283 87.0747 293.561 86.776C293.838 86.4773 294.014 86.152 294.089 85.8L294.025 85.768C293.929 85.8427 293.779 85.88 293.577 85.88C293.353 85.88 293.15 85.7947 292.969 85.624C292.787 85.4427 292.697 85.192 292.697 84.872C292.697 84.584 292.798 84.3333 293.001 84.12C293.203 83.9067 293.449 83.8 293.737 83.8ZM296.745 83.8C297.118 83.8 297.411 83.944 297.625 84.232C297.838 84.52 297.945 84.8933 297.945 85.352C297.945 85.9173 297.801 86.44 297.513 86.92C297.225 87.4 296.787 87.7787 296.201 88.056L295.529 87.432C295.945 87.2933 296.291 87.0747 296.569 86.776C296.846 86.4773 297.022 86.152 297.097 85.8L297.033 85.768C296.937 85.8427 296.787 85.88 296.585 85.88C296.361 85.88 296.158 85.7947 295.977 85.624C295.795 85.4427 295.705 85.192 295.705 84.872C295.705 84.584 295.806 84.3333 296.009 84.12C296.211 83.9067 296.457 83.8 296.745 83.8Z" fill="#333333"/>
<path d="M50.336 33.56C52.2773 33.56 53.9307 33.912 55.296 34.616C56.6827 35.32 57.8453 36.3973 58.784 37.848L56.192 40.184C55.5947 38.904 54.848 37.976 53.952 37.4C53.056 36.824 51.8613 36.536 50.368 36.536C48.896 36.536 47.7547 36.8347 46.944 37.432C46.1333 38.008 45.728 38.7547 45.728 39.672C45.728 40.5253 46.1227 41.208 46.912 41.72C47.7013 42.2107 49.1093 42.6373 51.136 43C53.0347 43.3413 54.5387 43.7787 55.648 44.312C56.7787 44.824 57.6 45.4747 58.112 46.264C58.624 47.032 58.88 47.992 58.88 49.144C58.88 50.3813 58.528 51.4693 57.824 52.408C57.12 53.3467 56.128 54.072 54.848 54.584C53.5893 55.0747 52.128 55.32 50.464 55.32C46.176 55.32 43.1467 53.8907 41.376 51.032L43.776 48.632C44.4587 49.912 45.3333 50.8507 46.4 51.448C47.488 52.0453 48.832 52.344 50.432 52.344C51.9467 52.344 53.1307 52.088 53.984 51.576C54.8587 51.0427 55.296 50.296 55.296 49.336C55.296 48.568 54.9013 47.9493 54.112 47.48C53.344 47.0107 51.9893 46.5947 50.048 46.232C48.1067 45.8693 46.56 45.4213 45.408 44.888C44.256 44.3547 43.4133 43.6933 42.88 42.904C42.368 42.1147 42.112 41.1547 42.112 40.024C42.112 38.8293 42.4427 37.7413 43.104 36.76C43.7653 35.7787 44.7147 35 45.952 34.424C47.2107 33.848 48.672 33.56 50.336 33.56ZM82.3583 38.68C83.4249 38.68 84.4063 38.904 85.3023 39.352C86.1983 39.7787 86.9129 40.44 87.4463 41.336C87.9796 42.232 88.2463 43.3307 88.2463 44.632V55H84.8223V45.176C84.8223 43.9173 84.5236 42.9893 83.9263 42.392C83.3289 41.7947 82.5289 41.496 81.5263 41.496C80.3529 41.496 79.3609 41.9227 78.5503 42.776C77.7609 43.6293 77.3663 44.8027 77.3663 46.296V55H73.9423V45.176C73.9423 43.9173 73.6436 42.9893 73.0463 42.392C72.4489 41.7947 71.6489 41.496 70.6463 41.496C69.9636 41.496 69.3023 41.6773 68.6623 42.04C68.0223 42.3813 67.4996 42.9253 67.0943 43.672C66.6889 44.4187 66.4863 45.3573 66.4863 46.488V55H63.0623V39H66.1023L66.2623 41.656C66.7956 40.6747 67.5209 39.9387 68.4383 39.448C69.3556 38.936 70.3583 38.68 71.4463 38.68C72.6409 38.68 73.7183 38.9573 74.6783 39.512C75.6596 40.0453 76.3849 40.8347 76.8542 41.88C77.3449 40.8347 78.0916 40.0453 79.0943 39.512C80.1183 38.9573 81.2063 38.68 82.3583 38.68ZM100.477 38.68C102.973 38.68 104.925 39.416 106.333 40.888C107.741 42.36 108.445 44.3973 108.445 47C108.445 49.6027 107.741 51.64 106.333 53.112C104.925 54.584 102.973 55.32 100.477 55.32C97.9813 55.32 96.0293 54.584 94.6213 53.112C93.2133 51.64 92.5093 49.6027 92.5093 47C92.5093 44.3973 93.2133 42.36 94.6213 40.888C96.0293 39.416 97.9813 38.68 100.477 38.68ZM100.477 41.368C99.0266 41.368 97.9066 41.8587 97.1173 42.84C96.3493 43.8 95.9653 45.1867 95.9653 47C95.9653 48.8133 96.3493 50.2107 97.1173 51.192C97.9066 52.152 99.0266 52.632 100.477 52.632C101.928 52.632 103.048 52.1413 103.837 51.16C104.627 50.1787 105.021 48.792 105.021 47C105.021 45.208 104.627 43.8213 103.837 42.84C103.048 41.8587 101.928 41.368 100.477 41.368ZM119.436 47.48L116.268 50.744V55H112.844V31.8H116.268V46.84L123.916 39H127.948L121.836 45.272L128.332 55H124.364L119.436 47.48ZM145.116 46.52C145.116 47.1387 145.074 47.7253 144.988 48.28H133.276C133.468 49.688 133.97 50.7653 134.78 51.512C135.591 52.2373 136.636 52.6 137.916 52.6C138.962 52.6 139.826 52.4187 140.508 52.056C141.212 51.672 141.692 51.128 141.948 50.424L144.796 51.608C143.602 54.0827 141.308 55.32 137.916 55.32C135.399 55.32 133.426 54.584 131.996 53.112C130.588 51.64 129.884 49.6027 129.884 47C129.884 44.376 130.567 42.3387 131.932 40.888C133.298 39.416 135.218 38.68 137.692 38.68C140.039 38.68 141.863 39.3947 143.164 40.824C144.466 42.2533 145.116 44.152 145.116 46.52ZM137.692 41.4C136.455 41.4 135.452 41.7627 134.684 42.488C133.938 43.2133 133.468 44.2693 133.276 45.656H141.916C141.746 44.312 141.287 43.2667 140.54 42.52C139.815 41.7733 138.866 41.4 137.692 41.4ZM157.662 38.68C158.409 38.68 158.995 38.7867 159.422 39L158.878 42.136C158.387 41.8587 157.715 41.72 156.862 41.72C156.179 41.72 155.529 41.9013 154.91 42.264C154.313 42.6267 153.811 43.1707 153.406 43.896C153.022 44.6213 152.83 45.496 152.83 46.52V55H149.406V39H152.318L152.606 41.88C153.502 39.7467 155.187 38.68 157.662 38.68ZM191.671 38.68C192.737 38.68 193.719 38.904 194.615 39.352C195.511 39.7787 196.225 40.44 196.759 41.336C197.292 42.232 197.559 43.3307 197.559 44.632V55H194.135V45.176C194.135 43.9173 193.836 42.9893 193.239 42.392C192.641 41.7947 191.841 41.496 190.839 41.496C189.665 41.496 188.673 41.9227 187.863 42.776C187.073 43.6293 186.679 44.8027 186.679 46.296V55H183.255V45.176C183.255 43.9173 182.956 42.9893 182.359 42.392C181.761 41.7947 180.961 41.496 179.959 41.496C179.276 41.496 178.615 41.6773 177.975 42.04C177.335 42.3813 176.812 42.9253 176.407 43.672C176.001 44.4187 175.799 45.3573 175.799 46.488V55H172.375V39H175.415L175.575 41.656C176.108 40.6747 176.833 39.9387 177.751 39.448C178.668 38.936 179.671 38.68 180.759 38.68C181.953 38.68 183.031 38.9573 183.991 39.512C184.972 40.0453 185.697 40.8347 186.167 41.88C186.657 40.8347 187.404 40.0453 188.407 39.512C189.431 38.9573 190.519 38.68 191.671 38.68ZM217.054 46.52C217.054 47.1387 217.011 47.7253 216.926 48.28H205.214C205.406 49.688 205.907 50.7653 206.718 51.512C207.528 52.2373 208.574 52.6 209.854 52.6C210.899 52.6 211.763 52.4187 212.446 52.056C213.15 51.672 213.63 51.128 213.886 50.424L216.734 51.608C215.539 54.0827 213.246 55.32 209.854 55.32C207.336 55.32 205.363 54.584 203.934 53.112C202.526 51.64 201.822 49.6027 201.822 47C201.822 44.376 202.504 42.3387 203.87 40.888C205.235 39.416 207.155 38.68 209.63 38.68C211.976 38.68 213.8 39.3947 215.102 40.824C216.403 42.2533 217.054 44.152 217.054 46.52ZM209.63 41.4C208.392 41.4 207.39 41.7627 206.622 42.488C205.875 43.2133 205.406 44.2693 205.214 45.656H213.854C213.683 44.312 213.224 43.2667 212.478 42.52C211.752 41.7733 210.803 41.4 209.63 41.4ZM229.952 38.68C231.722 38.68 233.162 39.192 234.272 40.216C235.402 41.24 235.968 42.712 235.968 44.632V55H232.544V45.72C232.544 42.904 231.402 41.496 229.12 41.496C227.925 41.496 226.901 41.912 226.048 42.744C225.194 43.5547 224.768 44.8133 224.768 46.52V55H221.344V39H224.384L224.544 41.656C225.077 40.6533 225.813 39.9067 226.752 39.416C227.69 38.9253 228.757 38.68 229.952 38.68ZM251.337 53.944C250.825 54.3707 250.195 54.712 249.449 54.968C248.723 55.2027 247.934 55.32 247.081 55.32C245.609 55.32 244.425 54.9573 243.529 54.232C242.654 53.4853 242.206 52.3333 242.185 50.776V41.688H239.145V39H242.185V35.256L245.609 34.296V39H251.209V41.688H245.609V50.2C245.609 50.968 245.811 51.544 246.217 51.928C246.643 52.2907 247.219 52.472 247.945 52.472C248.926 52.472 249.79 52.1307 250.537 51.448L251.337 53.944ZM268.449 52.76C268.918 52.76 269.313 52.7173 269.633 52.632L269.409 54.936C268.833 55.192 268.171 55.32 267.425 55.32C266.507 55.32 265.771 55.1387 265.217 54.776C264.683 54.4133 264.331 53.8053 264.161 52.952C263.67 53.6987 262.945 54.2853 261.985 54.712C261.025 55.1173 259.947 55.32 258.753 55.32C257.195 55.32 255.937 54.9573 254.977 54.232C254.017 53.5067 253.537 52.472 253.537 51.128C253.537 49.8693 254.059 48.8133 255.105 47.96C256.15 47.0853 257.707 46.4667 259.777 46.104L263.841 45.4V44.536C263.841 43.5547 263.553 42.7867 262.977 42.232C262.401 41.656 261.601 41.368 260.577 41.368C258.465 41.368 257.089 42.328 256.449 44.248L253.793 42.84C254.177 41.56 254.955 40.5467 256.129 39.8C257.323 39.0533 258.785 38.68 260.513 38.68C262.582 38.68 264.225 39.16 265.441 40.12C266.657 41.08 267.265 42.488 267.265 44.344V51.576C267.265 51.9813 267.35 52.28 267.521 52.472C267.713 52.664 268.022 52.76 268.449 52.76ZM259.489 52.728C260.641 52.728 261.654 52.4507 262.529 51.896C263.403 51.3413 263.841 50.6053 263.841 49.688V47.768L260.353 48.472C259.243 48.6853 258.422 48.984 257.889 49.368C257.355 49.752 257.089 50.264 257.089 50.904C257.089 51.5013 257.291 51.96 257.697 52.28C258.123 52.5787 258.721 52.728 259.489 52.728ZM276.203 50.328C276.203 51.1173 276.32 51.672 276.555 51.992C276.789 52.2907 277.227 52.44 277.867 52.44C278.272 52.44 278.613 52.4187 278.891 52.376C279.189 52.312 279.552 52.1947 279.979 52.024L279.595 54.776C278.869 55.1387 277.984 55.32 276.939 55.32C275.509 55.32 274.453 54.9573 273.771 54.232C273.109 53.5067 272.779 52.3653 272.779 50.808V31.8H276.203V50.328ZM284.572 36.312C283.846 36.312 283.281 36.1307 282.876 35.768C282.47 35.384 282.268 34.8507 282.268 34.168C282.268 33.4853 282.47 32.9627 282.876 32.6C283.281 32.2373 283.846 32.056 284.572 32.056C285.297 32.056 285.852 32.2373 286.236 32.6C286.641 32.9627 286.844 33.4853 286.844 34.168C286.844 34.8507 286.641 35.384 286.236 35.768C285.852 36.1307 285.297 36.312 284.572 36.312ZM286.268 55H282.844V39H286.268V55ZM301.993 53.944C301.481 54.3707 300.851 54.712 300.105 54.968C299.379 55.2027 298.59 55.32 297.737 55.32C296.265 55.32 295.081 54.9573 294.185 54.232C293.31 53.4853 292.862 52.3333 292.841 50.776V41.688H289.801V39H292.841V35.256L296.265 34.296V39H301.865V41.688H296.265V50.2C296.265 50.968 296.467 51.544 296.873 51.928C297.299 52.2907 297.875 52.472 298.601 52.472C299.582 52.472 300.446 52.1307 301.193 51.448L301.993 53.944ZM312.579 56.888C311.875 58.7227 311.075 60.0133 310.179 60.76C309.283 61.5067 308.11 61.88 306.659 61.88C305.827 61.88 305.102 61.7733 304.483 61.56C303.886 61.368 303.353 61.048 302.883 60.6L303.875 57.976C304.515 58.744 305.39 59.128 306.499 59.128C307.139 59.128 307.673 58.9573 308.099 58.616C308.547 58.296 308.942 57.6987 309.283 56.824L309.987 55.096L308.323 51.128L303.331 39H307.171L310.691 49.048L311.619 52.056L312.707 48.76L316.035 39H319.587L312.579 56.888Z" fill="#333333"/>
</svg>
