<svg width="315" height="207" viewBox="0 0 315 207" fill="none" xmlns="http://www.w3.org/2000/svg">
<mask id="mask0" mask-type="alpha" maskUnits="userSpaceOnUse" x="0" y="0" width="315" height="207">
<rect width="315" height="207" fill="#C4C4C4"/>
</mask>
<g mask="url(#mask0)">
<path d="M2 2H313V98.3342V204.825H2V103.413V2Z" fill="white" stroke="#BDBDBD" stroke-width="4"/>
<path d="M0.680664 206.825L315 0" stroke="#BDBDBD" stroke-width="2"/>
<path d="M132.533 75.4914V78.9693H137.399V80.194H132.533V85.0435H131.227V74.2668H138.77V75.4914H132.533Z" fill="#828282"/>
<path d="M145.345 74.1035C146.357 74.1035 147.239 74.3321 147.99 74.7893C148.741 75.2356 149.318 75.8779 149.721 76.716C150.134 77.5433 150.341 78.523 150.341 79.6551C150.341 80.7872 150.134 81.7724 149.721 82.6106C149.318 83.4379 148.741 84.0801 147.99 84.5373C147.239 84.9836 146.357 85.2068 145.345 85.2068C144.332 85.2068 143.451 84.9836 142.7 84.5373C141.948 84.0801 141.366 83.4379 140.952 82.6106C140.55 81.7724 140.348 80.7872 140.348 79.6551C140.348 78.523 140.55 77.5433 140.952 76.716C141.366 75.8779 141.948 75.2356 142.7 74.7893C143.451 74.3321 144.332 74.1035 145.345 74.1035ZM145.345 75.3281C144.223 75.3281 143.336 75.7146 142.683 76.4874C142.041 77.2494 141.72 78.3053 141.72 79.6551C141.72 81.0049 142.041 82.0663 142.683 82.8392C143.336 83.6011 144.223 83.9821 145.345 83.9821C146.466 83.9821 147.348 83.6011 147.99 82.8392C148.643 82.0663 148.97 81.0049 148.97 79.6551C148.97 78.3053 148.643 77.2494 147.99 76.4874C147.348 75.7146 146.466 75.3281 145.345 75.3281Z" fill="#828282"/>
<path d="M161.902 82.284C161.565 83.1984 161.01 83.9168 160.237 84.4393C159.464 84.9509 158.571 85.2068 157.559 85.2068C156.547 85.2068 155.665 84.9836 154.914 84.5373C154.163 84.0801 153.58 83.4379 153.167 82.6106C152.764 81.7724 152.563 80.7872 152.563 79.6551C152.563 78.5339 152.764 77.5542 153.167 76.716C153.58 75.8779 154.163 75.2356 154.914 74.7893C155.665 74.3321 156.536 74.1035 157.526 74.1035C158.56 74.1035 159.426 74.3158 160.123 74.7403C160.83 75.1649 161.358 75.7908 161.706 76.6181L160.416 77.2222C160.177 76.5909 159.829 76.1173 159.371 75.8017C158.914 75.486 158.332 75.3281 157.624 75.3281C156.884 75.3281 156.236 75.5023 155.681 75.8506C155.126 76.1881 154.696 76.6834 154.391 77.3365C154.087 77.9896 153.934 78.7625 153.934 79.6551C153.934 81.0049 154.255 82.0663 154.897 82.8392C155.551 83.6011 156.438 83.9821 157.559 83.9821C158.288 83.9821 158.92 83.7971 159.453 83.427C159.986 83.0569 160.367 82.5126 160.596 81.7941L161.902 82.284Z" fill="#828282"/>
<path d="M172.753 81.0267C172.753 82.4092 172.389 83.4542 171.659 84.1617C170.941 84.8584 169.896 85.2068 168.524 85.2068C167.153 85.2068 166.102 84.853 165.373 84.1454C164.654 83.4379 164.295 82.3983 164.295 81.0267V74.2668H165.601V80.7001C165.601 81.8322 165.836 82.665 166.304 83.1984C166.783 83.7209 167.523 83.9821 168.524 83.9821C169.526 83.9821 170.26 83.7209 170.729 83.1984C171.208 82.665 171.447 81.8322 171.447 80.7001V74.2668H172.753V81.0267Z" fill="#828282"/>
<path d="M179.623 74.1035C181.55 74.1035 182.938 74.8655 183.787 76.3895L182.66 77.3039C182.333 76.5854 181.942 76.0792 181.484 75.7853C181.038 75.4805 180.423 75.3281 179.639 75.3281C178.812 75.3281 178.159 75.5023 177.68 75.8506C177.212 76.1881 176.978 76.6235 176.978 77.1569C176.978 77.5052 177.07 77.7937 177.255 78.0223C177.44 78.2509 177.745 78.4523 178.17 78.6265C178.605 78.7897 179.204 78.9367 179.966 79.0673C181.392 79.3068 182.399 79.666 182.987 80.145C183.585 80.6239 183.885 81.288 183.885 82.137C183.885 82.7466 183.711 83.2855 183.362 83.7535C183.025 84.2107 182.54 84.57 181.909 84.8312C181.278 85.0816 180.548 85.2068 179.721 85.2068C178.632 85.2068 177.702 84.9945 176.929 84.57C176.167 84.1454 175.584 83.5794 175.182 82.8718L176.308 81.9574C176.602 82.5997 177.032 83.1004 177.598 83.4596C178.175 83.808 178.894 83.9821 179.754 83.9821C180.603 83.9821 181.278 83.8297 181.778 83.5249C182.279 83.2093 182.529 82.7684 182.529 82.2023C182.529 81.7234 182.312 81.3424 181.876 81.0594C181.441 80.7763 180.668 80.5369 179.558 80.3409C178.121 80.0906 177.103 79.7313 176.504 79.2633C175.906 78.7952 175.606 78.142 175.606 77.3039C175.606 76.7269 175.77 76.1935 176.096 75.7037C176.423 75.2138 176.891 74.8274 177.5 74.5444C178.11 74.2505 178.817 74.1035 179.623 74.1035Z" fill="#828282"/>
<path d="M90.7441 107.495H88.7194V101.878L88.8173 98.7266H88.7847L85.7966 107.495H83.9515L80.9798 98.7266H80.9471L81.0614 101.878V107.495H79.0204V96.7182H82.286L84.2291 102.596L84.9149 105.029H84.9475L85.6496 102.613L87.5764 96.7182H90.7441V107.495Z" fill="#828282"/>
<path d="M100.716 106.14C100.945 106.14 101.13 106.118 101.272 106.074L101.108 107.43C100.804 107.582 100.45 107.658 100.047 107.658C99.002 107.658 98.3761 107.25 98.1692 106.434C97.9298 106.836 97.5597 107.141 97.0589 107.348C96.5582 107.555 95.9649 107.658 95.2791 107.658C94.4845 107.658 93.864 107.479 93.4177 107.119C92.9714 106.76 92.7482 106.243 92.7482 105.568C92.7482 104.24 93.8096 103.38 95.9323 102.988L97.8917 102.613V102.221C97.8917 101.785 97.7665 101.443 97.5161 101.192C97.2766 100.931 96.9392 100.8 96.5038 100.8C96.003 100.8 95.5948 100.909 95.2791 101.127C94.9635 101.345 94.7457 101.698 94.626 102.188L92.8462 101.437C93.0204 100.73 93.4123 100.174 94.0219 99.7716C94.6314 99.3688 95.4261 99.1674 96.4058 99.1674C97.5705 99.1674 98.4795 99.4233 99.1326 99.9349C99.7857 100.436 100.112 101.181 100.112 102.172V105.519C100.112 105.737 100.161 105.895 100.259 105.993C100.357 106.091 100.51 106.14 100.716 106.14ZM95.9813 106.14C96.4602 106.14 96.8956 106.025 97.2875 105.797C97.6903 105.557 97.8917 105.236 97.8917 104.833V103.984L96.1445 104.376C95.7744 104.463 95.4968 104.583 95.3118 104.735C95.1376 104.877 95.0505 105.078 95.0505 105.34C95.0505 105.601 95.1322 105.802 95.2955 105.944C95.4587 106.074 95.6873 106.14 95.9813 106.14Z" fill="#828282"/>
<path d="M107.496 99.1674C108.378 99.1674 109.086 99.4233 109.619 99.9349C110.163 100.446 110.435 101.181 110.435 102.139V107.495H108.198V102.792C108.198 101.551 107.714 100.931 106.745 100.931C106.223 100.931 105.776 101.116 105.406 101.486C105.047 101.856 104.867 102.422 104.867 103.184V107.495H102.63V99.3307H104.639L104.704 100.784C104.976 100.251 105.352 99.8478 105.831 99.5757C106.31 99.3035 106.865 99.1674 107.496 99.1674Z" fill="#828282"/>
<path d="M120.202 106.14C120.431 106.14 120.616 106.118 120.757 106.074L120.594 107.43C120.289 107.582 119.935 107.658 119.533 107.658C118.488 107.658 117.862 107.25 117.655 106.434C117.415 106.836 117.045 107.141 116.544 107.348C116.044 107.555 115.45 107.658 114.765 107.658C113.97 107.658 113.35 107.479 112.903 107.119C112.457 106.76 112.234 106.243 112.234 105.568C112.234 104.24 113.295 103.38 115.418 102.988L117.377 102.613V102.221C117.377 101.785 117.252 101.443 117.002 101.192C116.762 100.931 116.425 100.8 115.989 100.8C115.489 100.8 115.08 100.909 114.765 101.127C114.449 101.345 114.231 101.698 114.112 102.188L112.332 101.437C112.506 100.73 112.898 100.174 113.507 99.7716C114.117 99.3688 114.912 99.1674 115.891 99.1674C117.056 99.1674 117.965 99.4233 118.618 99.9349C119.271 100.436 119.598 101.181 119.598 102.172V105.519C119.598 105.737 119.647 105.895 119.745 105.993C119.843 106.091 119.995 106.14 120.202 106.14ZM115.467 106.14C115.946 106.14 116.381 106.025 116.773 105.797C117.176 105.557 117.377 105.236 117.377 104.833V103.984L115.63 104.376C115.26 104.463 114.982 104.583 114.797 104.735C114.623 104.877 114.536 105.078 114.536 105.34C114.536 105.601 114.618 105.802 114.781 105.944C114.944 106.074 115.173 106.14 115.467 106.14Z" fill="#828282"/>
<path d="M127.128 105.96C128.02 105.96 128.706 106.156 129.185 106.548C129.675 106.94 129.92 107.5 129.92 108.23C129.92 109.1 129.517 109.781 128.711 110.271C127.906 110.761 126.845 111.005 125.527 111.005C124.167 111.005 123.154 110.826 122.49 110.467C121.837 110.107 121.511 109.618 121.511 108.997C121.511 108.627 121.636 108.306 121.886 108.034C122.137 107.762 122.507 107.566 122.997 107.446C122.626 107.293 122.333 107.081 122.115 106.809C121.897 106.526 121.788 106.194 121.788 105.813C121.788 105.421 121.903 105.084 122.131 104.801C122.36 104.518 122.675 104.305 123.078 104.164C122.665 103.924 122.349 103.62 122.131 103.25C121.913 102.869 121.805 102.433 121.805 101.943C121.805 101.083 122.137 100.408 122.801 99.9185C123.476 99.4178 124.39 99.1674 125.544 99.1674C126.132 99.1674 126.681 99.2382 127.193 99.3797C127.334 98.7375 127.607 98.2367 128.009 97.8775C128.423 97.5074 128.978 97.3441 129.675 97.3877L129.969 98.9878C129.893 98.977 129.778 98.9715 129.626 98.9715C129.223 98.9715 128.886 99.0423 128.613 99.1838C128.352 99.3253 128.167 99.5158 128.058 99.7553C128.461 99.9947 128.766 100.3 128.973 100.67C129.19 101.04 129.299 101.464 129.299 101.943C129.299 102.792 128.962 103.467 128.287 103.968C127.623 104.458 126.709 104.703 125.544 104.703C125.01 104.703 124.521 104.654 124.074 104.556C123.65 104.665 123.437 104.91 123.437 105.291C123.437 105.508 123.519 105.677 123.682 105.797C123.846 105.906 124.074 105.96 124.368 105.96H127.128ZM125.544 100.572C125.108 100.572 124.749 100.697 124.466 100.947C124.194 101.198 124.058 101.524 124.058 101.927C124.058 102.341 124.194 102.673 124.466 102.923C124.749 103.173 125.108 103.299 125.544 103.299C125.99 103.299 126.349 103.173 126.621 102.923C126.904 102.673 127.046 102.341 127.046 101.927C127.046 101.524 126.904 101.198 126.621 100.947C126.349 100.697 125.99 100.572 125.544 100.572ZM125.707 109.471C126.469 109.471 127.057 109.373 127.47 109.177C127.884 108.992 128.091 108.752 128.091 108.458C128.091 108.23 127.993 108.055 127.797 107.936C127.612 107.827 127.302 107.772 126.866 107.772H124.646C123.742 107.772 123.29 108.017 123.29 108.507C123.29 108.812 123.492 109.046 123.895 109.209C124.297 109.384 124.902 109.471 125.707 109.471Z" fill="#828282"/>
<path d="M138.926 103.38C138.926 103.685 138.904 103.979 138.861 104.262H133.08C133.309 105.416 133.989 105.993 135.121 105.993C135.59 105.993 135.976 105.906 136.281 105.731C136.586 105.557 136.798 105.307 136.918 104.98L138.746 105.65C138.485 106.303 138.044 106.804 137.424 107.152C136.814 107.489 136.047 107.658 135.121 107.658C133.772 107.658 132.727 107.288 131.986 106.548C131.246 105.797 130.876 104.752 130.876 103.413C130.876 102.074 131.235 101.034 131.954 100.294C132.672 99.543 133.685 99.1674 134.991 99.1674C136.254 99.1674 137.222 99.5321 137.897 100.261C138.583 100.991 138.926 102.03 138.926 103.38ZM134.975 100.817C134.43 100.817 133.995 100.974 133.668 101.29C133.353 101.606 133.151 102.074 133.064 102.694H136.869C136.781 102.085 136.575 101.622 136.248 101.306C135.922 100.98 135.497 100.817 134.975 100.817Z" fill="#828282"/>
<path d="M151.204 106.989C150.943 107.196 150.611 107.359 150.208 107.479C149.817 107.598 149.403 107.658 148.967 107.658C147.15 107.658 146.241 106.836 146.241 105.193V100.996H144.755V99.3307H146.241V97.453L148.478 96.8325V99.3307H151.123V100.996H148.478V104.833C148.478 105.584 148.853 105.96 149.604 105.96C150.083 105.96 150.502 105.808 150.862 105.503L151.204 106.989Z" fill="#828282"/>
<path d="M157.597 99.1674C158.479 99.1674 159.187 99.4233 159.72 99.9349C160.264 100.446 160.536 101.181 160.536 102.139V107.495H158.299V102.792C158.299 101.551 157.815 100.931 156.846 100.931C156.324 100.931 155.877 101.116 155.507 101.486C155.148 101.856 154.968 102.422 154.968 103.184V107.495H152.732V95.7548H154.968V100.719C155.219 100.196 155.567 99.8097 156.014 99.5593C156.471 99.2981 156.999 99.1674 157.597 99.1674Z" fill="#828282"/>
<path d="M170.466 103.38C170.466 103.685 170.445 103.979 170.401 104.262H164.621C164.849 105.416 165.53 105.993 166.662 105.993C167.13 105.993 167.516 105.906 167.821 105.731C168.126 105.557 168.338 105.307 168.458 104.98L170.287 105.65C170.025 106.303 169.585 106.804 168.964 107.152C168.355 107.489 167.587 107.658 166.662 107.658C165.312 107.658 164.267 107.288 163.527 106.548C162.787 105.797 162.416 104.752 162.416 103.413C162.416 102.074 162.776 101.034 163.494 100.294C164.213 99.543 165.225 99.1674 166.531 99.1674C167.794 99.1674 168.763 99.5321 169.438 100.261C170.123 100.991 170.466 102.03 170.466 103.38ZM166.515 100.817C165.971 100.817 165.535 100.974 165.209 101.29C164.893 101.606 164.692 102.074 164.604 102.694H168.409C168.322 102.085 168.115 101.622 167.788 101.306C167.462 100.98 167.037 100.817 166.515 100.817Z" fill="#828282"/>
<path d="M185.238 95.7548V107.495H183.246L183.148 105.976C182.909 106.488 182.55 106.896 182.071 107.201C181.603 107.506 181.064 107.658 180.454 107.658C179.366 107.658 178.511 107.288 177.891 106.548C177.27 105.797 176.96 104.757 176.96 103.429C176.96 102.09 177.27 101.045 177.891 100.294C178.511 99.543 179.366 99.1674 180.454 99.1674C181.042 99.1674 181.554 99.3035 181.989 99.5757C182.425 99.8369 182.762 100.202 183.001 100.67V95.7548H185.238ZM181.107 105.944C181.695 105.944 182.158 105.731 182.495 105.307C182.833 104.882 183.001 104.278 183.001 103.494V103.331C183.001 102.558 182.833 101.96 182.495 101.535C182.158 101.1 181.695 100.882 181.107 100.882C180.509 100.882 180.041 101.1 179.703 101.535C179.366 101.97 179.197 102.596 179.197 103.413C179.197 104.229 179.366 104.855 179.703 105.291C180.041 105.726 180.509 105.944 181.107 105.944Z" fill="#828282"/>
<path d="M188.731 98.1551C187.806 98.1551 187.343 97.7578 187.343 96.9631C187.343 96.1576 187.806 95.7548 188.731 95.7548C189.656 95.7548 190.119 96.1576 190.119 96.9631C190.119 97.7578 189.656 98.1551 188.731 98.1551ZM189.842 107.495H187.605V99.3307H189.842V107.495Z" fill="#828282"/>
<path d="M195.381 107.658C193.563 107.658 192.3 107.136 191.592 106.091L192.899 104.752C193.116 105.22 193.427 105.552 193.829 105.748C194.243 105.933 194.749 106.025 195.348 106.025C195.827 106.025 196.197 105.96 196.458 105.829C196.719 105.699 196.85 105.519 196.85 105.291C196.85 105.106 196.725 104.948 196.475 104.817C196.235 104.686 195.816 104.561 195.217 104.441C193.965 104.191 193.084 103.865 192.572 103.462C192.071 103.048 191.821 102.493 191.821 101.796C191.821 101.339 191.962 100.909 192.245 100.506C192.529 100.104 192.948 99.7825 193.503 99.543C194.058 99.2926 194.722 99.1674 195.495 99.1674C196.409 99.1674 197.149 99.309 197.715 99.592C198.281 99.8641 198.755 100.3 199.136 100.898L197.748 102.074C197.509 101.638 197.209 101.317 196.85 101.111C196.502 100.904 196.061 100.8 195.527 100.8C195.081 100.8 194.722 100.876 194.45 101.029C194.189 101.181 194.058 101.366 194.058 101.584C194.058 101.813 194.189 102.003 194.45 102.156C194.711 102.308 195.174 102.449 195.838 102.58C197.024 102.82 197.862 103.135 198.352 103.527C198.853 103.908 199.103 104.441 199.103 105.127C199.103 105.889 198.777 106.504 198.124 106.972C197.481 107.43 196.567 107.658 195.381 107.658Z" fill="#828282"/>
<path d="M208.481 103.38C208.481 103.685 208.459 103.979 208.415 104.262H202.635C202.864 105.416 203.544 105.993 204.676 105.993C205.144 105.993 205.531 105.906 205.835 105.731C206.14 105.557 206.353 105.307 206.472 104.98L208.301 105.65C208.04 106.303 207.599 106.804 206.978 107.152C206.369 107.489 205.601 107.658 204.676 107.658C203.326 107.658 202.281 107.288 201.541 106.548C200.801 105.797 200.431 104.752 200.431 103.413C200.431 102.074 200.79 101.034 201.508 100.294C202.227 99.543 203.239 99.1674 204.546 99.1674C205.808 99.1674 206.777 99.5321 207.452 100.261C208.138 100.991 208.481 102.03 208.481 103.38ZM204.529 100.817C203.985 100.817 203.55 100.974 203.223 101.29C202.907 101.606 202.706 102.074 202.619 102.694H206.423C206.336 102.085 206.129 101.622 205.803 101.306C205.476 100.98 205.052 100.817 204.529 100.817Z" fill="#828282"/>
<path d="M217.821 106.14C218.05 106.14 218.235 106.118 218.376 106.074L218.213 107.43C217.908 107.582 217.554 107.658 217.151 107.658C216.106 107.658 215.481 107.25 215.274 106.434C215.034 106.836 214.664 107.141 214.163 107.348C213.663 107.555 213.069 107.658 212.384 107.658C211.589 107.658 210.968 107.479 210.522 107.119C210.076 106.76 209.853 106.243 209.853 105.568C209.853 104.24 210.914 103.38 213.037 102.988L214.996 102.613V102.221C214.996 101.785 214.871 101.443 214.621 101.192C214.381 100.931 214.044 100.8 213.608 100.8C213.108 100.8 212.699 100.909 212.384 101.127C212.068 101.345 211.85 101.698 211.73 102.188L209.951 101.437C210.125 100.73 210.517 100.174 211.126 99.7716C211.736 99.3688 212.531 99.1674 213.51 99.1674C214.675 99.1674 215.584 99.4233 216.237 99.9349C216.89 100.436 217.217 101.181 217.217 102.172V105.519C217.217 105.737 217.266 105.895 217.364 105.993C217.462 106.091 217.614 106.14 217.821 106.14ZM213.086 106.14C213.565 106.14 214 106.025 214.392 105.797C214.795 105.557 214.996 105.236 214.996 104.833V103.984L213.249 104.376C212.879 104.463 212.601 104.583 212.416 104.735C212.242 104.877 212.155 105.078 212.155 105.34C212.155 105.601 212.237 105.802 212.4 105.944C212.563 106.074 212.792 106.14 213.086 106.14Z" fill="#828282"/>
<path d="M222.903 107.658C221.085 107.658 219.822 107.136 219.114 106.091L220.421 104.752C220.638 105.22 220.949 105.552 221.351 105.748C221.765 105.933 222.271 106.025 222.87 106.025C223.349 106.025 223.719 105.96 223.98 105.829C224.242 105.699 224.372 105.519 224.372 105.291C224.372 105.106 224.247 104.948 223.997 104.817C223.757 104.686 223.338 104.561 222.739 104.441C221.488 104.191 220.606 103.865 220.094 103.462C219.593 103.048 219.343 102.493 219.343 101.796C219.343 101.339 219.485 100.909 219.768 100.506C220.051 100.104 220.47 99.7825 221.025 99.543C221.58 99.2926 222.244 99.1674 223.017 99.1674C223.931 99.1674 224.672 99.309 225.238 99.592C225.804 99.8641 226.277 100.3 226.658 100.898L225.27 102.074C225.031 101.638 224.731 101.317 224.372 101.111C224.024 100.904 223.583 100.8 223.05 100.8C222.603 100.8 222.244 100.876 221.972 101.029C221.711 101.181 221.58 101.366 221.58 101.584C221.58 101.813 221.711 102.003 221.972 102.156C222.233 102.308 222.696 102.449 223.36 102.58C224.546 102.82 225.385 103.135 225.874 103.527C226.375 103.908 226.625 104.441 226.625 105.127C226.625 105.889 226.299 106.504 225.646 106.972C225.004 107.43 224.089 107.658 222.903 107.658Z" fill="#828282"/>
<path d="M236.003 103.38C236.003 103.685 235.981 103.979 235.937 104.262H230.157C230.386 105.416 231.066 105.993 232.198 105.993C232.666 105.993 233.053 105.906 233.358 105.731C233.662 105.557 233.875 105.307 233.994 104.98L235.823 105.65C235.562 106.303 235.121 106.804 234.501 107.152C233.891 107.489 233.124 107.658 232.198 107.658C230.848 107.658 229.803 107.288 229.063 106.548C228.323 105.797 227.953 104.752 227.953 103.413C227.953 102.074 228.312 101.034 229.031 100.294C229.749 99.543 230.761 99.1674 232.068 99.1674C233.33 99.1674 234.299 99.5321 234.974 100.261C235.66 100.991 236.003 102.03 236.003 103.38ZM232.051 100.817C231.507 100.817 231.072 100.974 230.745 101.29C230.429 101.606 230.228 102.074 230.141 102.694H233.945C233.858 102.085 233.651 101.622 233.325 101.306C232.998 100.98 232.574 100.817 232.051 100.817Z" fill="#828282"/>
<path d="M145.592 145.6V151.037H144.612L144.563 149.584C144.248 150.106 143.801 150.509 143.224 150.792C142.658 151.064 141.972 151.2 141.167 151.2C140.155 151.2 139.273 150.977 138.522 150.531C137.771 150.074 137.188 149.431 136.775 148.604C136.372 147.766 136.17 146.781 136.17 145.649C136.17 144.527 136.377 143.548 136.791 142.71C137.215 141.871 137.803 141.229 138.554 140.783C139.316 140.326 140.198 140.097 141.2 140.097C142.266 140.097 143.143 140.298 143.828 140.701C144.525 141.104 145.086 141.724 145.51 142.563L144.318 143.216C144.079 142.606 143.687 142.138 143.143 141.812C142.609 141.485 141.962 141.322 141.2 141.322C140.47 141.322 139.828 141.496 139.273 141.844C138.729 142.193 138.304 142.693 137.999 143.346C137.694 143.989 137.542 144.756 137.542 145.649C137.542 147.02 137.858 148.087 138.489 148.849C139.12 149.6 140.029 149.976 141.216 149.976C142.152 149.976 142.914 149.736 143.502 149.257C144.101 148.778 144.4 148.092 144.4 147.2V146.824H140.971V145.6H145.592Z" fill="#828282"/>
<path d="M152.983 140.097C153.995 140.097 154.877 140.326 155.628 140.783C156.379 141.229 156.956 141.871 157.359 142.71C157.772 143.537 157.979 144.517 157.979 145.649C157.979 146.781 157.772 147.766 157.359 148.604C156.956 149.431 156.379 150.074 155.628 150.531C154.877 150.977 153.995 151.2 152.983 151.2C151.97 151.2 151.089 150.977 150.337 150.531C149.586 150.074 149.004 149.431 148.59 148.604C148.188 147.766 147.986 146.781 147.986 145.649C147.986 144.517 148.188 143.537 148.59 142.71C149.004 141.871 149.586 141.229 150.337 140.783C151.089 140.326 151.97 140.097 152.983 140.097ZM152.983 141.322C151.861 141.322 150.974 141.708 150.321 142.481C149.679 143.243 149.358 144.299 149.358 145.649C149.358 146.998 149.679 148.06 150.321 148.833C150.974 149.595 151.861 149.976 152.983 149.976C154.104 149.976 154.986 149.595 155.628 148.833C156.281 148.06 156.608 146.998 156.608 145.649C156.608 144.299 156.281 143.243 155.628 142.481C154.986 141.708 154.104 141.322 152.983 141.322Z" fill="#828282"/>
<path d="M166.545 148.049H161.663L160.52 151.037H159.148L163.344 140.26H164.896L169.076 151.037H167.688L166.545 148.049ZM166.071 146.824L164.618 143.003L164.112 141.501H164.079L163.606 142.954L162.136 146.824H166.071Z" fill="#828282"/>
<path d="M178.744 149.812V151.037H171.266V140.26H172.572V149.812H178.744Z" fill="#828282"/>
<path d="M42.6344 162.712C44.3217 162.712 45.6279 163.18 46.5532 164.116C47.4785 165.052 47.9411 166.38 47.9411 168.1C47.9411 169.82 47.4785 171.148 46.5532 172.084C45.6279 173.02 44.3217 173.488 42.6344 173.488H38.4707V162.712H42.6344ZM42.5201 171.692C43.5434 171.692 44.3108 171.387 44.8224 170.778C45.3449 170.157 45.6062 169.265 45.6062 168.1C45.6062 166.935 45.3449 166.048 44.8224 165.439C44.3108 164.818 43.5434 164.508 42.5201 164.508H40.724V171.692H42.5201Z" fill="#828282"/>
<path d="M57.6034 169.374C57.6034 169.678 57.5816 169.972 57.5381 170.255H51.7579C51.9865 171.409 52.6668 171.986 53.7989 171.986C54.267 171.986 54.6534 171.899 54.9582 171.725C55.263 171.551 55.4753 171.3 55.595 170.974L57.4238 171.643C57.1625 172.296 56.7217 172.797 56.1012 173.146C55.4916 173.483 54.7242 173.652 53.7989 173.652C52.4491 173.652 51.4041 173.282 50.6639 172.541C49.9236 171.79 49.5535 170.745 49.5535 169.406C49.5535 168.067 49.9128 167.028 50.6312 166.288C51.3496 165.537 52.362 165.161 53.6683 165.161C54.931 165.161 55.8998 165.526 56.5747 166.255C57.2605 166.984 57.6034 168.024 57.6034 169.374ZM53.6519 166.81C53.1077 166.81 52.6722 166.968 52.3457 167.284C52.03 167.599 51.8286 168.067 51.7415 168.688H55.546C55.4589 168.078 55.2521 167.616 54.9255 167.3C54.599 166.973 54.1744 166.81 53.6519 166.81Z" fill="#828282"/>
<path d="M61.686 170.892C61.686 171.284 61.7404 171.556 61.8492 171.709C61.969 171.861 62.1813 171.937 62.4861 171.937C62.6711 171.937 62.8289 171.926 62.9596 171.905C63.1011 171.872 63.2644 171.823 63.4494 171.758L63.2535 173.309C63.0793 173.418 62.8507 173.499 62.5677 173.554C62.2847 173.619 62.0071 173.652 61.735 173.652C60.9403 173.652 60.3579 173.461 59.9878 173.08C59.6286 172.688 59.449 172.068 59.449 171.219V161.748H61.686V170.892Z" fill="#828282"/>
<path d="M72.1738 172.133C72.4024 172.133 72.5875 172.111 72.729 172.068L72.5657 173.423C72.2609 173.575 71.9071 173.652 71.5044 173.652C70.4594 173.652 69.8334 173.243 69.6266 172.427C69.3871 172.83 69.017 173.135 68.5163 173.341C68.0156 173.548 67.4223 173.652 66.7365 173.652C65.9419 173.652 65.3214 173.472 64.8751 173.113C64.4288 172.754 64.2056 172.237 64.2056 171.562C64.2056 170.234 65.267 169.374 67.3896 168.982L69.349 168.606V168.214C69.349 167.779 69.2239 167.436 68.9735 167.186C68.734 166.924 68.3966 166.794 67.9611 166.794C67.4604 166.794 67.0522 166.903 66.7365 167.12C66.4208 167.338 66.2031 167.692 66.0834 168.182L64.3036 167.431C64.4778 166.723 64.8696 166.168 65.4792 165.765C66.0888 165.362 66.8835 165.161 67.8632 165.161C69.0279 165.161 69.9369 165.417 70.59 165.928C71.2431 166.429 71.5697 167.175 71.5697 168.165V171.513C71.5697 171.73 71.6187 171.888 71.7166 171.986C71.8146 172.084 71.967 172.133 72.1738 172.133ZM67.4386 172.133C67.9176 172.133 68.353 172.019 68.7449 171.79C69.1477 171.551 69.349 171.23 69.349 170.827V169.978L67.6019 170.37C67.2318 170.457 66.9542 170.577 66.7692 170.729C66.595 170.87 66.5079 171.072 66.5079 171.333C66.5079 171.594 66.5896 171.796 66.7528 171.937C66.9161 172.068 67.1447 172.133 67.4386 172.133Z" fill="#828282"/>
<path d="M78.1005 173.995C77.6977 175.105 77.2296 175.883 76.6963 176.33C76.1738 176.776 75.4716 176.999 74.5899 176.999C73.7082 176.999 73.017 176.787 72.5162 176.362L73.0714 174.778C73.2455 174.974 73.436 175.105 73.6429 175.17C73.8606 175.246 74.1273 175.285 74.443 175.285C74.7804 175.285 75.0525 175.214 75.2594 175.072C75.4662 174.931 75.6404 174.675 75.7819 174.305L76.0758 173.603L75.1777 171.48L72.6795 165.324H75.1614L76.6963 170.223L77.1371 171.856L77.627 170.125L79.1292 165.324H81.3988L78.1005 173.995Z" fill="#828282"/>
<path d="M92.6841 172.982C92.4228 173.189 92.0908 173.352 91.6881 173.472C91.2962 173.592 90.8825 173.652 90.4471 173.652C88.6292 173.652 87.7203 172.83 87.7203 171.186V166.99H86.2344V165.324H87.7203V163.447L89.9573 162.826V165.324H92.6024V166.99H89.9573V170.827C89.9573 171.578 90.3328 171.954 91.0839 171.954C91.5629 171.954 91.982 171.801 92.3412 171.496L92.6841 172.982Z" fill="#828282"/>
<path d="M99.077 165.161C99.9587 165.161 100.666 165.417 101.2 165.928C101.744 166.44 102.016 167.175 102.016 168.133V173.488H99.7791V168.786C99.7791 167.545 99.2947 166.924 98.3259 166.924C97.8034 166.924 97.3571 167.109 96.987 167.48C96.6277 167.85 96.4481 168.416 96.4481 169.178V173.488H94.2112V161.748H96.4481V166.712C96.6985 166.19 97.0468 165.803 97.4931 165.553C97.9503 165.292 98.4783 165.161 99.077 165.161Z" fill="#828282"/>
<path d="M111.946 169.374C111.946 169.678 111.924 169.972 111.881 170.255H106.1C106.329 171.409 107.009 171.986 108.141 171.986C108.61 171.986 108.996 171.899 109.301 171.725C109.606 171.551 109.818 171.3 109.938 170.974L111.766 171.643C111.505 172.296 111.064 172.797 110.444 173.146C109.834 173.483 109.067 173.652 108.141 173.652C106.792 173.652 105.747 173.282 105.006 172.541C104.266 171.79 103.896 170.745 103.896 169.406C103.896 168.067 104.255 167.028 104.974 166.288C105.692 165.537 106.705 165.161 108.011 165.161C109.274 165.161 110.242 165.526 110.917 166.255C111.603 166.984 111.946 168.024 111.946 169.374ZM107.995 166.81C107.45 166.81 107.015 166.968 106.688 167.284C106.373 167.599 106.171 168.067 106.084 168.688H109.889C109.802 168.078 109.595 167.616 109.268 167.3C108.942 166.973 108.517 166.81 107.995 166.81Z" fill="#828282"/>
<path d="M126.718 161.748V173.488H124.726L124.628 171.97C124.389 172.481 124.029 172.89 123.55 173.194C123.082 173.499 122.544 173.652 121.934 173.652C120.845 173.652 119.991 173.282 119.37 172.541C118.75 171.79 118.44 170.751 118.44 169.423C118.44 168.084 118.75 167.039 119.37 166.288C119.991 165.537 120.845 165.161 121.934 165.161C122.522 165.161 123.033 165.297 123.469 165.569C123.904 165.83 124.242 166.195 124.481 166.663V161.748H126.718ZM122.587 171.937C123.175 171.937 123.638 171.725 123.975 171.3C124.312 170.876 124.481 170.272 124.481 169.488V169.325C124.481 168.552 124.312 167.953 123.975 167.529C123.638 167.093 123.175 166.875 122.587 166.875C121.988 166.875 121.52 167.093 121.183 167.529C120.845 167.964 120.677 168.59 120.677 169.406C120.677 170.223 120.845 170.849 121.183 171.284C121.52 171.719 121.988 171.937 122.587 171.937Z" fill="#828282"/>
<path d="M130.211 164.149C129.286 164.149 128.823 163.751 128.823 162.957C128.823 162.151 129.286 161.748 130.211 161.748C131.136 161.748 131.599 162.151 131.599 162.957C131.599 163.751 131.136 164.149 130.211 164.149ZM131.321 173.488H129.084V165.324H131.321V173.488Z" fill="#828282"/>
<path d="M136.86 173.652C135.042 173.652 133.78 173.129 133.072 172.084L134.378 170.745C134.596 171.213 134.906 171.545 135.309 171.741C135.723 171.926 136.229 172.019 136.827 172.019C137.306 172.019 137.677 171.954 137.938 171.823C138.199 171.692 138.33 171.513 138.33 171.284C138.33 171.099 138.205 170.941 137.954 170.811C137.715 170.68 137.296 170.555 136.697 170.435C135.445 170.185 134.563 169.858 134.052 169.455C133.551 169.042 133.301 168.486 133.301 167.79C133.301 167.333 133.442 166.903 133.725 166.5C134.008 166.097 134.427 165.776 134.982 165.537C135.538 165.286 136.202 165.161 136.974 165.161C137.889 165.161 138.629 165.302 139.195 165.586C139.761 165.858 140.235 166.293 140.616 166.892L139.228 168.067C138.988 167.632 138.689 167.311 138.33 167.104C137.981 166.897 137.541 166.794 137.007 166.794C136.561 166.794 136.202 166.87 135.929 167.022C135.668 167.175 135.538 167.36 135.538 167.578C135.538 167.806 135.668 167.997 135.929 168.149C136.191 168.301 136.653 168.443 137.317 168.574C138.504 168.813 139.342 169.129 139.832 169.521C140.333 169.902 140.583 170.435 140.583 171.121C140.583 171.883 140.256 172.498 139.603 172.966C138.961 173.423 138.047 173.652 136.86 173.652Z" fill="#828282"/>
<path d="M149.96 169.374C149.96 169.678 149.939 169.972 149.895 170.255H144.115C144.343 171.409 145.024 171.986 146.156 171.986C146.624 171.986 147.01 171.899 147.315 171.725C147.62 171.551 147.832 171.3 147.952 170.974L149.781 171.643C149.519 172.296 149.079 172.797 148.458 173.146C147.849 173.483 147.081 173.652 146.156 173.652C144.806 173.652 143.761 173.282 143.021 172.541C142.281 171.79 141.91 170.745 141.91 169.406C141.91 168.067 142.27 167.028 142.988 166.288C143.707 165.537 144.719 165.161 146.025 165.161C147.288 165.161 148.257 165.526 148.932 166.255C149.617 166.984 149.96 168.024 149.96 169.374ZM146.009 166.81C145.465 166.81 145.029 166.968 144.703 167.284C144.387 167.599 144.186 168.067 144.098 168.688H147.903C147.816 168.078 147.609 167.616 147.282 167.3C146.956 166.973 146.531 166.81 146.009 166.81Z" fill="#828282"/>
<path d="M159.301 172.133C159.529 172.133 159.714 172.111 159.856 172.068L159.692 173.423C159.388 173.575 159.034 173.652 158.631 173.652C157.586 173.652 156.96 173.243 156.753 172.427C156.514 172.83 156.144 173.135 155.643 173.341C155.142 173.548 154.549 173.652 153.863 173.652C153.069 173.652 152.448 173.472 152.002 173.113C151.556 172.754 151.332 172.237 151.332 171.562C151.332 170.234 152.394 169.374 154.516 168.982L156.476 168.606V168.214C156.476 167.779 156.351 167.436 156.1 167.186C155.861 166.924 155.523 166.794 155.088 166.794C154.587 166.794 154.179 166.903 153.863 167.12C153.548 167.338 153.33 167.692 153.21 168.182L151.43 167.431C151.605 166.723 151.996 166.168 152.606 165.765C153.216 165.362 154.01 165.161 154.99 165.161C156.155 165.161 157.064 165.417 157.717 165.928C158.37 166.429 158.696 167.175 158.696 168.165V171.513C158.696 171.73 158.745 171.888 158.843 171.986C158.941 172.084 159.094 172.133 159.301 172.133ZM154.565 172.133C155.044 172.133 155.48 172.019 155.872 171.79C156.274 171.551 156.476 171.23 156.476 170.827V169.978L154.729 170.37C154.359 170.457 154.081 170.577 153.896 170.729C153.722 170.87 153.635 171.072 153.635 171.333C153.635 171.594 153.716 171.796 153.88 171.937C154.043 172.068 154.271 172.133 154.565 172.133Z" fill="#828282"/>
<path d="M164.382 173.652C162.564 173.652 161.302 173.129 160.594 172.084L161.9 170.745C162.118 171.213 162.428 171.545 162.831 171.741C163.245 171.926 163.751 172.019 164.35 172.019C164.829 172.019 165.199 171.954 165.46 171.823C165.721 171.692 165.852 171.513 165.852 171.284C165.852 171.099 165.727 170.941 165.476 170.811C165.237 170.68 164.818 170.555 164.219 170.435C162.967 170.185 162.085 169.858 161.574 169.455C161.073 169.042 160.823 168.486 160.823 167.79C160.823 167.333 160.964 166.903 161.247 166.5C161.53 166.097 161.949 165.776 162.505 165.537C163.06 165.286 163.724 165.161 164.497 165.161C165.411 165.161 166.151 165.302 166.717 165.586C167.283 165.858 167.757 166.293 168.138 166.892L166.75 168.067C166.51 167.632 166.211 167.311 165.852 167.104C165.503 166.897 165.063 166.794 164.529 166.794C164.083 166.794 163.724 166.87 163.452 167.022C163.19 167.175 163.06 167.36 163.06 167.578C163.06 167.806 163.19 167.997 163.452 168.149C163.713 168.301 164.175 168.443 164.839 168.574C166.026 168.813 166.864 169.129 167.354 169.521C167.855 169.902 168.105 170.435 168.105 171.121C168.105 171.883 167.779 172.498 167.125 172.966C166.483 173.423 165.569 173.652 164.382 173.652Z" fill="#828282"/>
<path d="M177.482 169.374C177.482 169.678 177.461 169.972 177.417 170.255H171.637C171.865 171.409 172.546 171.986 173.678 171.986C174.146 171.986 174.532 171.899 174.837 171.725C175.142 171.551 175.354 171.3 175.474 170.974L177.303 171.643C177.042 172.296 176.601 172.797 175.98 173.146C175.371 173.483 174.603 173.652 173.678 173.652C172.328 173.652 171.283 173.282 170.543 172.541C169.803 171.79 169.433 170.745 169.433 169.406C169.433 168.067 169.792 167.028 170.51 166.288C171.229 165.537 172.241 165.161 173.547 165.161C174.81 165.161 175.779 165.526 176.454 166.255C177.14 166.984 177.482 168.024 177.482 169.374ZM173.531 166.81C172.987 166.81 172.551 166.968 172.225 167.284C171.909 167.599 171.708 168.067 171.621 168.688H175.425C175.338 168.078 175.131 167.616 174.805 167.3C174.478 166.973 174.053 166.81 173.531 166.81Z" fill="#828282"/>
<path d="M189.152 165.161C190.241 165.161 191.095 165.537 191.716 166.288C192.336 167.028 192.646 168.062 192.646 169.39C192.646 170.729 192.336 171.774 191.716 172.525C191.095 173.276 190.241 173.652 189.152 173.652C188.564 173.652 188.053 173.521 187.617 173.26C187.182 172.988 186.839 172.618 186.589 172.149V176.917H184.352V165.324H186.327L186.409 166.941C186.648 166.396 187.002 165.966 187.47 165.651C187.949 165.324 188.51 165.161 189.152 165.161ZM188.483 171.937C189.092 171.937 189.566 171.719 189.903 171.284C190.241 170.849 190.409 170.223 190.409 169.406C190.409 168.59 190.241 167.964 189.903 167.529C189.566 167.093 189.092 166.875 188.483 166.875C187.938 166.875 187.498 167.066 187.16 167.447C186.823 167.817 186.632 168.35 186.589 169.047V169.766C186.632 170.451 186.823 170.985 187.16 171.366C187.498 171.747 187.938 171.937 188.483 171.937Z" fill="#828282"/>
<path d="M199.242 165.161C199.623 165.161 199.916 165.221 200.123 165.341L199.846 167.3C199.595 167.137 199.252 167.055 198.817 167.055C198.284 167.055 197.821 167.251 197.429 167.643C197.048 168.024 196.858 168.563 196.858 169.259V173.488H194.621V165.324H196.564L196.711 166.924C197.157 165.749 198.001 165.161 199.242 165.161Z" fill="#828282"/>
<path d="M205.105 165.161C206.422 165.161 207.446 165.537 208.175 166.288C208.915 167.039 209.285 168.078 209.285 169.406C209.285 170.734 208.915 171.774 208.175 172.525C207.446 173.276 206.422 173.652 205.105 173.652C203.788 173.652 202.759 173.276 202.019 172.525C201.29 171.774 200.925 170.734 200.925 169.406C200.925 168.078 201.29 167.039 202.019 166.288C202.759 165.537 203.788 165.161 205.105 165.161ZM205.105 166.826C204.474 166.826 203.989 167.044 203.652 167.48C203.325 167.904 203.162 168.546 203.162 169.406C203.162 170.266 203.325 170.914 203.652 171.349C203.989 171.774 204.474 171.986 205.105 171.986C205.737 171.986 206.215 171.774 206.542 171.349C206.879 170.914 207.048 170.266 207.048 169.406C207.048 168.546 206.879 167.904 206.542 167.48C206.215 167.044 205.737 166.826 205.105 166.826Z" fill="#828282"/>
<path d="M216.104 171.954C216.997 171.954 217.682 172.149 218.161 172.541C218.651 172.933 218.896 173.494 218.896 174.223C218.896 175.094 218.493 175.774 217.688 176.264C216.882 176.754 215.821 176.999 214.504 176.999C213.143 176.999 212.131 176.819 211.467 176.46C210.814 176.101 210.487 175.611 210.487 174.991C210.487 174.62 210.612 174.299 210.863 174.027C211.113 173.755 211.483 173.559 211.973 173.439C211.603 173.287 211.309 173.075 211.091 172.803C210.874 172.52 210.765 172.188 210.765 171.807C210.765 171.415 210.879 171.077 211.108 170.794C211.336 170.511 211.652 170.299 212.055 170.157C211.641 169.918 211.325 169.613 211.108 169.243C210.89 168.862 210.781 168.427 210.781 167.937C210.781 167.077 211.113 166.402 211.777 165.912C212.452 165.411 213.366 165.161 214.52 165.161C215.108 165.161 215.658 165.232 216.169 165.373C216.311 164.731 216.583 164.23 216.986 163.871C217.399 163.501 217.955 163.338 218.651 163.381L218.945 164.981C218.869 164.97 218.755 164.965 218.602 164.965C218.2 164.965 217.862 165.036 217.59 165.177C217.329 165.319 217.144 165.509 217.035 165.749C217.438 165.988 217.742 166.293 217.949 166.663C218.167 167.033 218.276 167.458 218.276 167.937C218.276 168.786 217.938 169.461 217.263 169.961C216.599 170.451 215.685 170.696 214.52 170.696C213.987 170.696 213.497 170.647 213.051 170.549C212.626 170.658 212.414 170.903 212.414 171.284C212.414 171.502 212.495 171.671 212.659 171.79C212.822 171.899 213.051 171.954 213.345 171.954H216.104ZM214.52 166.565C214.085 166.565 213.726 166.69 213.443 166.941C213.17 167.191 213.034 167.518 213.034 167.92C213.034 168.334 213.17 168.666 213.443 168.916C213.726 169.167 214.085 169.292 214.52 169.292C214.967 169.292 215.326 169.167 215.598 168.916C215.881 168.666 216.022 168.334 216.022 167.92C216.022 167.518 215.881 167.191 215.598 166.941C215.326 166.69 214.967 166.565 214.52 166.565ZM214.683 175.464C215.445 175.464 216.033 175.366 216.447 175.17C216.861 174.985 217.067 174.746 217.067 174.452C217.067 174.223 216.969 174.049 216.774 173.929C216.588 173.82 216.278 173.766 215.843 173.766H213.622C212.719 173.766 212.267 174.011 212.267 174.501C212.267 174.806 212.468 175.04 212.871 175.203C213.274 175.377 213.878 175.464 214.683 175.464Z" fill="#828282"/>
<path d="M224.898 165.161C225.279 165.161 225.573 165.221 225.78 165.341L225.502 167.3C225.252 167.137 224.909 167.055 224.473 167.055C223.94 167.055 223.477 167.251 223.086 167.643C222.705 168.024 222.514 168.563 222.514 169.259V173.488H220.277V165.324H222.22L222.367 166.924C222.813 165.749 223.657 165.161 224.898 165.161Z" fill="#828282"/>
<path d="M234.631 169.374C234.631 169.678 234.61 169.972 234.566 170.255H228.786C229.014 171.409 229.695 171.986 230.827 171.986C231.295 171.986 231.681 171.899 231.986 171.725C232.291 171.551 232.503 171.3 232.623 170.974L234.452 171.643C234.191 172.296 233.75 172.797 233.129 173.146C232.52 173.483 231.752 173.652 230.827 173.652C229.477 173.652 228.432 173.282 227.692 172.541C226.952 171.79 226.582 170.745 226.582 169.406C226.582 168.067 226.941 167.028 227.659 166.288C228.378 165.537 229.39 165.161 230.696 165.161C231.959 165.161 232.928 165.526 233.603 166.255C234.289 166.984 234.631 168.024 234.631 169.374ZM230.68 166.81C230.136 166.81 229.7 166.968 229.374 167.284C229.058 167.599 228.857 168.067 228.77 168.688H232.574C232.487 168.078 232.28 167.616 231.954 167.3C231.627 166.973 231.202 166.81 230.68 166.81Z" fill="#828282"/>
<path d="M239.677 173.652C237.86 173.652 236.597 173.129 235.889 172.084L237.195 170.745C237.413 171.213 237.723 171.545 238.126 171.741C238.54 171.926 239.046 172.019 239.645 172.019C240.124 172.019 240.494 171.954 240.755 171.823C241.016 171.692 241.147 171.513 241.147 171.284C241.147 171.099 241.022 170.941 240.771 170.811C240.532 170.68 240.113 170.555 239.514 170.435C238.262 170.185 237.381 169.858 236.869 169.455C236.368 169.042 236.118 168.486 236.118 167.79C236.118 167.333 236.259 166.903 236.542 166.5C236.825 166.097 237.244 165.776 237.8 165.537C238.355 165.286 239.019 165.161 239.792 165.161C240.706 165.161 241.446 165.302 242.012 165.586C242.578 165.858 243.052 166.293 243.433 166.892L242.045 168.067C241.806 167.632 241.506 167.311 241.147 167.104C240.799 166.897 240.358 166.794 239.824 166.794C239.378 166.794 239.019 166.87 238.747 167.022C238.485 167.175 238.355 167.36 238.355 167.578C238.355 167.806 238.485 167.997 238.747 168.149C239.008 168.301 239.471 168.443 240.135 168.574C241.321 168.813 242.159 169.129 242.649 169.521C243.15 169.902 243.4 170.435 243.4 171.121C243.4 171.883 243.074 172.498 242.421 172.966C241.778 173.423 240.864 173.652 239.677 173.652Z" fill="#828282"/>
<path d="M248.352 173.652C246.534 173.652 245.271 173.129 244.564 172.084L245.87 170.745C246.088 171.213 246.398 171.545 246.801 171.741C247.214 171.926 247.72 172.019 248.319 172.019C248.798 172.019 249.168 171.954 249.429 171.823C249.691 171.692 249.821 171.513 249.821 171.284C249.821 171.099 249.696 170.941 249.446 170.811C249.206 170.68 248.787 170.555 248.189 170.435C246.937 170.185 246.055 169.858 245.543 169.455C245.043 169.042 244.792 168.486 244.792 167.79C244.792 167.333 244.934 166.903 245.217 166.5C245.5 166.097 245.919 165.776 246.474 165.537C247.029 165.286 247.693 165.161 248.466 165.161C249.38 165.161 250.121 165.302 250.687 165.586C251.253 165.858 251.726 166.293 252.107 166.892L250.719 168.067C250.48 167.632 250.181 167.311 249.821 167.104C249.473 166.897 249.032 166.794 248.499 166.794C248.052 166.794 247.693 166.87 247.421 167.022C247.16 167.175 247.029 167.36 247.029 167.578C247.029 167.806 247.16 167.997 247.421 168.149C247.682 168.301 248.145 168.443 248.809 168.574C249.996 168.813 250.834 169.129 251.324 169.521C251.824 169.902 252.075 170.435 252.075 171.121C252.075 171.883 251.748 172.498 251.095 172.966C250.453 173.423 249.538 173.652 248.352 173.652Z" fill="#828282"/>
<path d="M254.985 164.149C254.06 164.149 253.597 163.751 253.597 162.957C253.597 162.151 254.06 161.748 254.985 161.748C255.91 161.748 256.373 162.151 256.373 162.957C256.373 163.751 255.91 164.149 254.985 164.149ZM256.095 173.488H253.859V165.324H256.095V173.488Z" fill="#828282"/>
<path d="M262.222 165.161C263.539 165.161 264.563 165.537 265.292 166.288C266.032 167.039 266.402 168.078 266.402 169.406C266.402 170.734 266.032 171.774 265.292 172.525C264.563 173.276 263.539 173.652 262.222 173.652C260.905 173.652 259.876 173.276 259.136 172.525C258.407 171.774 258.042 170.734 258.042 169.406C258.042 168.078 258.407 167.039 259.136 166.288C259.876 165.537 260.905 165.161 262.222 165.161ZM262.222 166.826C261.591 166.826 261.107 167.044 260.769 167.48C260.443 167.904 260.279 168.546 260.279 169.406C260.279 170.266 260.443 170.914 260.769 171.349C261.107 171.774 261.591 171.986 262.222 171.986C262.854 171.986 263.333 171.774 263.659 171.349C263.997 170.914 264.165 170.266 264.165 169.406C264.165 168.546 263.997 167.904 263.659 167.48C263.333 167.044 262.854 166.826 262.222 166.826Z" fill="#828282"/>
<path d="M273.187 165.161C274.069 165.161 274.776 165.417 275.31 165.928C275.854 166.44 276.126 167.175 276.126 168.133V173.488H273.889V168.786C273.889 167.545 273.405 166.924 272.436 166.924C271.913 166.924 271.467 167.109 271.097 167.48C270.738 167.85 270.558 168.416 270.558 169.178V173.488H268.321V165.324H270.33L270.395 166.777C270.667 166.244 271.043 165.841 271.522 165.569C272 165.297 272.556 165.161 273.187 165.161Z" fill="#828282"/>
<path d="M98.7648 33.9358C101.015 33.9358 102.734 34.5599 103.925 35.8081C105.129 37.0418 105.732 38.8125 105.732 41.1203C105.732 43.428 105.129 45.206 103.925 46.4542C102.734 47.6879 101.015 48.3047 98.7648 48.3047H92.6689V33.9358H98.7648ZM98.3947 45.4745C99.5994 45.4745 100.485 45.1116 101.051 44.3859C101.617 43.6602 101.9 42.5717 101.9 41.1203C101.9 39.6689 101.617 38.5803 101.051 37.8546C100.485 37.1289 99.5994 36.766 98.3947 36.766H96.4136V45.4745H98.3947Z" fill="#828282"/>
<path d="M118.637 42.7095C118.637 43.203 118.601 43.6094 118.528 43.9287H111.104C111.22 44.6109 111.467 45.1116 111.844 45.4309C112.236 45.7502 112.751 45.9099 113.39 45.9099C113.927 45.9099 114.363 45.8083 114.696 45.6051C115.045 45.4019 115.277 45.1044 115.393 44.7125L118.397 45.6704C118.093 46.5993 117.498 47.3105 116.612 47.804C115.741 48.2829 114.667 48.5224 113.39 48.5224C111.489 48.5224 110.03 48.0289 109.014 47.042C108.013 46.055 107.512 44.6617 107.512 42.8619C107.512 41.0622 108.005 39.6689 108.992 38.6819C109.979 37.6949 111.38 37.2015 113.194 37.2015C114.95 37.2015 116.293 37.6877 117.222 38.6601C118.165 39.6181 118.637 40.9679 118.637 42.7095ZM113.172 39.7922C111.997 39.7922 111.3 40.5034 111.082 41.9258H115.175C115.001 40.5034 114.333 39.7922 113.172 39.7922Z" fill="#828282"/>
<path d="M127.694 37.2015C129.117 37.2015 130.22 37.6949 131.004 38.6819C131.787 39.6689 132.179 41.0477 132.179 42.8184C132.179 44.6181 131.78 46.0187 130.982 47.0202C130.183 48.0217 129.088 48.5224 127.694 48.5224C126.925 48.5224 126.257 48.341 125.691 47.9781C125.14 47.6153 124.712 47.1146 124.407 46.4759V52.8766H120.706V37.4192H123.95L124.059 39.7269C124.363 38.9577 124.828 38.3481 125.452 37.8981C126.091 37.4337 126.838 37.2015 127.694 37.2015ZM126.41 45.801C127.063 45.801 127.564 45.5616 127.912 45.0826C128.275 44.6036 128.456 43.8634 128.456 42.8619C128.456 41.8605 128.275 41.1203 127.912 40.6413C127.564 40.1623 127.063 39.9228 126.41 39.9228C125.786 39.9228 125.292 40.1623 124.929 40.6413C124.581 41.1203 124.407 41.8242 124.407 42.7531V42.9708C124.407 43.8707 124.581 44.5673 124.929 45.0608C125.278 45.5543 125.771 45.801 126.41 45.801Z" fill="#828282"/>
<path d="M144.979 42.7095C144.979 43.203 144.943 43.6094 144.87 43.9287H137.446C137.562 44.6109 137.809 45.1116 138.186 45.4309C138.578 45.7502 139.094 45.9099 139.732 45.9099C140.269 45.9099 140.705 45.8083 141.038 45.6051C141.387 45.4019 141.619 45.1044 141.735 44.7125L144.74 45.6704C144.435 46.5993 143.84 47.3105 142.954 47.804C142.083 48.2829 141.009 48.5224 139.732 48.5224C137.831 48.5224 136.372 48.0289 135.356 47.042C134.355 46.055 133.854 44.6617 133.854 42.8619C133.854 41.0622 134.347 39.6689 135.334 38.6819C136.321 37.6949 137.722 37.2015 139.536 37.2015C141.292 37.2015 142.635 37.6877 143.564 38.6601C144.507 39.6181 144.979 40.9679 144.979 42.7095ZM139.514 39.7922C138.339 39.7922 137.642 40.5034 137.424 41.9258H141.517C141.343 40.5034 140.676 39.7922 139.514 39.7922Z" fill="#828282"/>
<path d="M154.189 37.2015C155.335 37.2015 156.25 37.5353 156.932 38.2029C157.614 38.8706 157.955 39.8213 157.955 41.0549V48.3047H154.254V42.0782C154.254 41.338 154.116 40.8155 153.841 40.5107C153.579 40.1914 153.202 40.0317 152.708 40.0317C152.128 40.0317 151.656 40.2422 151.293 40.6631C150.93 41.0695 150.749 41.7008 150.749 42.5571V48.3047H147.048V37.4192H150.357L150.466 39.5092C150.814 38.74 151.308 38.1666 151.946 37.7893C152.585 37.3974 153.333 37.2015 154.189 37.2015Z" fill="#828282"/>
<path d="M171.586 32.8037V48.3047H168.256L168.125 46.2365C167.806 46.9476 167.334 47.5064 166.71 47.9128C166.1 48.3192 165.389 48.5224 164.576 48.5224C163.168 48.5224 162.065 48.0289 161.267 47.042C160.483 46.055 160.091 44.6762 160.091 42.9055C160.091 41.1057 160.49 39.7051 161.289 38.7037C162.087 37.7022 163.19 37.2015 164.598 37.2015C165.367 37.2015 166.028 37.3829 166.579 37.7457C167.131 38.1086 167.566 38.6093 167.885 39.2479V32.8037H171.586ZM165.861 45.801C166.456 45.801 166.927 45.5906 167.276 45.1697C167.639 44.7343 167.842 44.1101 167.885 43.2974V42.4265C167.842 41.6282 167.639 41.0114 167.276 40.576C166.927 40.1406 166.456 39.9228 165.861 39.9228C165.208 39.9228 164.7 40.1623 164.337 40.6413C163.988 41.1203 163.814 41.8605 163.814 42.8619C163.814 43.8634 163.988 44.6036 164.337 45.0826C164.7 45.5616 165.208 45.801 165.861 45.801Z" fill="#828282"/>
<path d="M184.822 42.7095C184.822 43.203 184.785 43.6094 184.713 43.9287H177.289C177.405 44.6109 177.652 45.1116 178.029 45.4309C178.421 45.7502 178.936 45.9099 179.575 45.9099C180.112 45.9099 180.547 45.8083 180.881 45.6051C181.23 45.4019 181.462 45.1044 181.578 44.7125L184.582 45.6704C184.277 46.5993 183.682 47.3105 182.797 47.804C181.926 48.2829 180.852 48.5224 179.575 48.5224C177.674 48.5224 176.215 48.0289 175.199 47.042C174.197 46.055 173.697 44.6617 173.697 42.8619C173.697 41.0622 174.19 39.6689 175.177 38.6819C176.164 37.6949 177.565 37.2015 179.379 37.2015C181.135 37.2015 182.478 37.6877 183.407 38.6601C184.35 39.6181 184.822 40.9679 184.822 42.7095ZM179.357 39.7922C178.182 39.7922 177.485 40.5034 177.267 41.9258H181.36C181.186 40.5034 180.518 39.7922 179.357 39.7922Z" fill="#828282"/>
<path d="M194.032 37.2015C195.178 37.2015 196.093 37.5353 196.775 38.2029C197.457 38.8706 197.798 39.8213 197.798 41.0549V48.3047H194.097V42.0782C194.097 41.338 193.959 40.8155 193.683 40.5107C193.422 40.1914 193.045 40.0317 192.551 40.0317C191.971 40.0317 191.499 40.2422 191.136 40.6631C190.773 41.0695 190.592 41.7008 190.592 42.5571V48.3047H186.891V37.4192H190.2L190.309 39.5092C190.657 38.74 191.151 38.1666 191.789 37.7893C192.428 37.3974 193.175 37.2015 194.032 37.2015Z" fill="#828282"/>
<path d="M205.595 37.2015C207.235 37.2015 208.468 37.5135 209.296 38.1376C210.123 38.7617 210.638 39.5745 210.841 40.576L207.402 41.7081C207.256 40.4599 206.698 39.8358 205.725 39.8358C204.288 39.8358 203.57 40.859 203.57 42.9055C203.57 44.8939 204.288 45.8881 205.725 45.8881C206.756 45.8881 207.358 45.3003 207.532 44.1247L210.863 45.1914C210.704 46.1784 210.174 46.9839 209.274 47.608C208.389 48.2176 207.213 48.5224 205.747 48.5224C203.86 48.5224 202.409 48.0289 201.393 47.042C200.377 46.055 199.869 44.6617 199.869 42.8619C199.869 41.0767 200.37 39.6906 201.371 38.7037C202.387 37.7022 203.795 37.2015 205.595 37.2015Z" fill="#828282"/>
<path d="M219.735 48.3047C219.328 49.4658 218.886 50.3875 218.407 51.0696C217.928 51.7518 217.362 52.238 216.709 52.5283C216.056 52.8331 215.265 52.9855 214.336 52.9855C213.102 52.9855 212.115 52.717 211.375 52.18L212.159 49.6981C212.391 49.9158 212.645 50.0609 212.921 50.1335C213.211 50.2206 213.581 50.2641 214.031 50.2641C214.481 50.2641 214.836 50.1843 215.098 50.0246C215.359 49.8795 215.569 49.611 215.729 49.2191L215.99 48.5442L214.728 45.5833L211.484 37.4192H215.555L217.231 43.6239L217.754 45.9317L218.342 43.5368L220.018 37.4192H223.719L219.735 48.3047Z" fill="#828282"/>
</g>
</svg>
