<svg width="315" height="207" viewBox="0 0 315 207" fill="none" xmlns="http://www.w3.org/2000/svg">
<path d="M2 2H313V98.3342V204.825H2V103.413V2Z" fill="white" stroke="#333333" stroke-width="4"/>
<path d="M132.873 75.4912V78.9691H137.739V80.1937H132.873V85.0432H131.567V74.2666H139.11V75.4912H132.873Z" fill="#333333"/>
<path d="M145.685 74.1033C146.697 74.1033 147.579 74.3319 148.33 74.7891C149.081 75.2354 149.658 75.8776 150.061 76.7158C150.474 77.5431 150.681 78.5228 150.681 79.6549C150.681 80.787 150.474 81.7721 150.061 82.6103C149.658 83.4376 149.081 84.0799 148.33 84.5371C147.579 84.9834 146.697 85.2065 145.685 85.2065C144.672 85.2065 143.791 84.9834 143.04 84.5371C142.288 84.0799 141.706 83.4376 141.292 82.6103C140.89 81.7721 140.688 80.787 140.688 79.6549C140.688 78.5228 140.89 77.5431 141.292 76.7158C141.706 75.8776 142.288 75.2354 143.04 74.7891C143.791 74.3319 144.672 74.1033 145.685 74.1033ZM145.685 75.3279C144.564 75.3279 143.676 75.7143 143.023 76.4872C142.381 77.2492 142.06 78.3051 142.06 79.6549C142.06 81.0047 142.381 82.066 143.023 82.8389C143.676 83.6009 144.564 83.9819 145.685 83.9819C146.806 83.9819 147.688 83.6009 148.33 82.8389C148.983 82.066 149.31 81.0047 149.31 79.6549C149.31 78.3051 148.983 77.2492 148.33 76.4872C147.688 75.7143 146.806 75.3279 145.685 75.3279Z" fill="#333333"/>
<path d="M162.242 82.2837C161.905 83.1981 161.35 83.9166 160.577 84.4391C159.804 84.9507 158.911 85.2065 157.899 85.2065C156.887 85.2065 156.005 84.9834 155.254 84.5371C154.503 84.0799 153.92 83.4376 153.507 82.6103C153.104 81.7721 152.903 80.787 152.903 79.6549C152.903 78.5337 153.104 77.554 153.507 76.7158C153.92 75.8776 154.503 75.2354 155.254 74.7891C156.005 74.3319 156.876 74.1033 157.866 74.1033C158.901 74.1033 159.766 74.3155 160.463 74.7401C161.17 75.1646 161.698 75.7905 162.047 76.6178L160.757 77.222C160.517 76.5906 160.169 76.1171 159.712 75.8014C159.254 75.4857 158.672 75.3279 157.964 75.3279C157.224 75.3279 156.577 75.5021 156.021 75.8504C155.466 76.1879 155.036 76.6831 154.731 77.3363C154.427 77.9894 154.274 78.7623 154.274 79.6549C154.274 81.0047 154.595 82.066 155.238 82.8389C155.891 83.6009 156.778 83.9819 157.899 83.9819C158.628 83.9819 159.26 83.7968 159.793 83.4267C160.327 83.0566 160.708 82.5123 160.936 81.7939L162.242 82.2837Z" fill="#333333"/>
<path d="M173.093 81.0265C173.093 82.4089 172.729 83.4539 171.999 84.1615C171.281 84.8582 170.236 85.2065 168.864 85.2065C167.493 85.2065 166.442 84.8527 165.713 84.1452C164.995 83.4376 164.635 82.398 164.635 81.0265V74.2666H165.942V80.6999C165.942 81.832 166.176 82.6647 166.644 83.1981C167.123 83.7206 167.863 83.9819 168.864 83.9819C169.866 83.9819 170.601 83.7206 171.069 83.1981C171.548 82.6647 171.787 81.832 171.787 80.6999V74.2666H173.093V81.0265Z" fill="#333333"/>
<path d="M179.963 74.1033C181.89 74.1033 183.278 74.8653 184.127 76.3892L183 77.3036C182.674 76.5852 182.282 76.079 181.825 75.7851C181.378 75.4803 180.763 75.3279 179.979 75.3279C179.152 75.3279 178.499 75.5021 178.02 75.8504C177.552 76.1879 177.318 76.6233 177.318 77.1567C177.318 77.505 177.41 77.7935 177.595 78.0221C177.781 78.2507 178.085 78.452 178.51 78.6262C178.945 78.7895 179.544 78.9364 180.306 79.0671C181.732 79.3066 182.739 79.6658 183.327 80.1447C183.925 80.6237 184.225 81.2877 184.225 82.1368C184.225 82.7464 184.051 83.2852 183.702 83.7533C183.365 84.2105 182.88 84.5697 182.249 84.831C181.618 85.0813 180.888 85.2065 180.061 85.2065C178.973 85.2065 178.042 84.9942 177.269 84.5697C176.507 84.1452 175.925 83.5791 175.522 82.8716L176.648 81.9572C176.942 82.5994 177.372 83.1002 177.938 83.4594C178.515 83.8077 179.234 83.9819 180.094 83.9819C180.943 83.9819 181.618 83.8295 182.118 83.5247C182.619 83.209 182.87 82.7682 182.87 82.2021C182.87 81.7231 182.652 81.3421 182.216 81.0591C181.781 80.7761 181.008 80.5366 179.898 80.3407C178.461 80.0903 177.443 79.7311 176.844 79.263C176.246 78.7949 175.946 78.1418 175.946 77.3036C175.946 76.7267 176.11 76.1933 176.436 75.7034C176.763 75.2136 177.231 74.8272 177.84 74.5441C178.45 74.2502 179.158 74.1033 179.963 74.1033Z" fill="#333333"/>
<path d="M104.516 96.718V107.495H102.263V102.955H97.5115V107.495H95.2582V96.718H97.5115V101.143H102.263V96.718H104.516Z" fill="#333333"/>
<path d="M114.63 103.38C114.63 103.685 114.608 103.979 114.565 104.262H108.785C109.013 105.415 109.693 105.992 110.826 105.992C111.294 105.992 111.68 105.905 111.985 105.731C112.29 105.557 112.502 105.307 112.622 104.98L114.45 105.65C114.189 106.303 113.748 106.803 113.128 107.152C112.518 107.489 111.751 107.658 110.826 107.658C109.476 107.658 108.431 107.288 107.691 106.548C106.95 105.796 106.58 104.751 106.58 103.413C106.58 102.074 106.939 101.034 107.658 100.294C108.376 99.5428 109.389 99.1672 110.695 99.1672C111.958 99.1672 112.926 99.5319 113.601 100.261C114.287 100.991 114.63 102.03 114.63 103.38ZM110.679 100.816C110.134 100.816 109.699 100.974 109.372 101.29C109.057 101.606 108.855 102.074 108.768 102.694H112.573C112.486 102.085 112.279 101.622 111.952 101.306C111.626 100.98 111.201 100.816 110.679 100.816Z" fill="#333333"/>
<path d="M123.97 106.139C124.199 106.139 124.384 106.118 124.526 106.074L124.362 107.429C124.057 107.582 123.704 107.658 123.301 107.658C122.256 107.658 121.63 107.25 121.423 106.433C121.184 106.836 120.814 107.141 120.313 107.348C119.812 107.555 119.219 107.658 118.533 107.658C117.738 107.658 117.118 107.478 116.672 107.119C116.225 106.76 116.002 106.243 116.002 105.568C116.002 104.24 117.064 103.38 119.186 102.988L121.146 102.612V102.221C121.146 101.785 121.02 101.442 120.77 101.192C120.531 100.931 120.193 100.8 119.758 100.8C119.257 100.8 118.849 100.909 118.533 101.127C118.217 101.344 118 101.698 117.88 102.188L116.1 101.437C116.274 100.729 116.666 100.174 117.276 99.7714C117.885 99.3686 118.68 99.1672 119.66 99.1672C120.824 99.1672 121.733 99.423 122.387 99.9346C123.04 100.435 123.366 101.181 123.366 102.172V105.519C123.366 105.737 123.415 105.894 123.513 105.992C123.611 106.09 123.764 106.139 123.97 106.139ZM119.235 106.139C119.714 106.139 120.15 106.025 120.541 105.796C120.944 105.557 121.146 105.236 121.146 104.833V103.984L119.398 104.376C119.028 104.463 118.751 104.583 118.566 104.735C118.392 104.877 118.304 105.078 118.304 105.339C118.304 105.601 118.386 105.802 118.549 105.943C118.713 106.074 118.941 106.139 119.235 106.139Z" fill="#333333"/>
<path d="M128.089 104.898C128.089 105.29 128.143 105.562 128.252 105.715C128.372 105.867 128.584 105.943 128.889 105.943C129.074 105.943 129.232 105.933 129.362 105.911C129.504 105.878 129.667 105.829 129.852 105.764L129.656 107.315C129.482 107.424 129.253 107.506 128.97 107.56C128.687 107.625 128.41 107.658 128.138 107.658C127.343 107.658 126.761 107.467 126.391 107.086C126.031 106.695 125.852 106.074 125.852 105.225V95.7546H128.089V104.898Z" fill="#333333"/>
<path d="M141.132 106.988C140.871 107.195 140.539 107.359 140.136 107.478C139.744 107.598 139.33 107.658 138.895 107.658C137.077 107.658 136.168 106.836 136.168 105.192V100.996H134.682V99.3305H136.168V97.4527L138.405 96.8323V99.3305H141.05V100.996H138.405V104.833C138.405 105.584 138.781 105.96 139.532 105.96C140.011 105.96 140.43 105.807 140.789 105.503L141.132 106.988Z" fill="#333333"/>
<path d="M147.525 99.1672C148.407 99.1672 149.114 99.423 149.648 99.9346C150.192 100.446 150.464 101.181 150.464 102.139V107.495H148.227V102.792C148.227 101.551 147.743 100.931 146.774 100.931C146.251 100.931 145.805 101.116 145.435 101.486C145.076 101.856 144.896 102.422 144.896 103.184V107.495H142.659V95.7546H144.896V100.718C145.146 100.196 145.495 99.8095 145.941 99.5591C146.398 99.2978 146.926 99.1672 147.525 99.1672Z" fill="#333333"/>
<path d="M160.394 103.38C160.394 103.685 160.372 103.979 160.329 104.262H154.548C154.777 105.415 155.457 105.992 156.589 105.992C157.058 105.992 157.444 105.905 157.749 105.731C158.054 105.557 158.266 105.307 158.386 104.98L160.214 105.65C159.953 106.303 159.512 106.803 158.892 107.152C158.282 107.489 157.515 107.658 156.589 107.658C155.24 107.658 154.195 107.288 153.454 106.548C152.714 105.796 152.344 104.751 152.344 103.413C152.344 102.074 152.703 101.034 153.422 100.294C154.14 99.5428 155.153 99.1672 156.459 99.1672C157.722 99.1672 158.69 99.5319 159.365 100.261C160.051 100.991 160.394 102.03 160.394 103.38ZM156.443 100.816C155.898 100.816 155.463 100.974 155.136 101.29C154.821 101.606 154.619 102.074 154.532 102.694H158.337C158.25 102.085 158.043 101.622 157.716 101.306C157.39 100.98 156.965 100.816 156.443 100.816Z" fill="#333333"/>
<path d="M172.064 99.1672C173.152 99.1672 174.007 99.5428 174.627 100.294C175.248 101.034 175.558 102.068 175.558 103.396C175.558 104.735 175.248 105.78 174.627 106.531C174.007 107.282 173.152 107.658 172.064 107.658C171.476 107.658 170.964 107.527 170.529 107.266C170.093 106.994 169.751 106.624 169.5 106.156V110.924H167.263V99.3305H169.239L169.321 100.947C169.56 100.403 169.914 99.9727 170.382 99.6571C170.861 99.3305 171.421 99.1672 172.064 99.1672ZM171.394 105.943C172.004 105.943 172.477 105.726 172.815 105.29C173.152 104.855 173.321 104.229 173.321 103.413C173.321 102.596 173.152 101.97 172.815 101.535C172.477 101.099 172.004 100.882 171.394 100.882C170.85 100.882 170.409 101.072 170.072 101.453C169.734 101.823 169.544 102.357 169.5 103.053V103.772C169.544 104.458 169.734 104.991 170.072 105.372C170.409 105.753 170.85 105.943 171.394 105.943Z" fill="#333333"/>
<path d="M185.157 103.38C185.157 103.685 185.136 103.979 185.092 104.262H179.312C179.541 105.415 180.221 105.992 181.353 105.992C181.821 105.992 182.208 105.905 182.512 105.731C182.817 105.557 183.029 105.307 183.149 104.98L184.978 105.65C184.717 106.303 184.276 106.803 183.655 107.152C183.046 107.489 182.278 107.658 181.353 107.658C180.003 107.658 178.958 107.288 178.218 106.548C177.478 105.796 177.108 104.751 177.108 103.413C177.108 102.074 177.467 101.034 178.185 100.294C178.904 99.5428 179.916 99.1672 181.222 99.1672C182.485 99.1672 183.454 99.5319 184.129 100.261C184.815 100.991 185.157 102.03 185.157 103.38ZM181.206 100.816C180.662 100.816 180.226 100.974 179.9 101.29C179.584 101.606 179.383 102.074 179.296 102.694H183.1C183.013 102.085 182.806 101.622 182.48 101.306C182.153 100.98 181.729 100.816 181.206 100.816Z" fill="#333333"/>
<path d="M191.657 99.1672C192.038 99.1672 192.332 99.2271 192.538 99.3468L192.261 101.306C192.01 101.143 191.668 101.061 191.232 101.061C190.699 101.061 190.236 101.257 189.844 101.649C189.463 102.03 189.273 102.569 189.273 103.266V107.495H187.036V99.3305H188.979L189.126 100.931C189.572 99.755 190.416 99.1672 191.657 99.1672Z" fill="#333333"/>
<path d="M196.885 107.658C195.067 107.658 193.804 107.135 193.096 106.09L194.403 104.751C194.62 105.22 194.931 105.552 195.333 105.748C195.747 105.933 196.253 106.025 196.852 106.025C197.331 106.025 197.701 105.96 197.962 105.829C198.224 105.699 198.354 105.519 198.354 105.29C198.354 105.105 198.229 104.947 197.979 104.817C197.739 104.686 197.32 104.561 196.721 104.441C195.47 104.191 194.588 103.864 194.076 103.462C193.575 103.048 193.325 102.493 193.325 101.796C193.325 101.339 193.467 100.909 193.75 100.506C194.033 100.103 194.452 99.7822 195.007 99.5428C195.562 99.2924 196.226 99.1672 196.999 99.1672C197.913 99.1672 198.654 99.3087 199.22 99.5917C199.786 99.8639 200.259 100.299 200.64 100.898L199.252 102.074C199.013 101.638 198.713 101.317 198.354 101.11C198.006 100.903 197.565 100.8 197.032 100.8C196.585 100.8 196.226 100.876 195.954 101.029C195.693 101.181 195.562 101.366 195.562 101.584C195.562 101.812 195.693 102.003 195.954 102.155C196.215 102.308 196.678 102.449 197.342 102.58C198.528 102.819 199.367 103.135 199.856 103.527C200.357 103.908 200.607 104.441 200.607 105.127C200.607 105.889 200.281 106.504 199.628 106.972C198.986 107.429 198.071 107.658 196.885 107.658Z" fill="#333333"/>
<path d="M206.115 99.1672C207.432 99.1672 208.455 99.5428 209.185 100.294C209.925 101.045 210.295 102.085 210.295 103.413C210.295 104.741 209.925 105.78 209.185 106.531C208.455 107.282 207.432 107.658 206.115 107.658C204.798 107.658 203.769 107.282 203.029 106.531C202.3 105.78 201.935 104.741 201.935 103.413C201.935 102.085 202.3 101.045 203.029 100.294C203.769 99.5428 204.798 99.1672 206.115 99.1672ZM206.115 100.833C205.484 100.833 204.999 101.05 204.662 101.486C204.335 101.91 204.172 102.553 204.172 103.413C204.172 104.273 204.335 104.92 204.662 105.356C204.999 105.78 205.484 105.992 206.115 105.992C206.746 105.992 207.225 105.78 207.552 105.356C207.889 104.92 208.058 104.273 208.058 103.413C208.058 102.553 207.889 101.91 207.552 101.486C207.225 101.05 206.746 100.833 206.115 100.833Z" fill="#333333"/>
<path d="M217.08 99.1672C217.961 99.1672 218.669 99.423 219.202 99.9346C219.747 100.446 220.019 101.181 220.019 102.139V107.495H217.782V102.792C217.782 101.551 217.297 100.931 216.329 100.931C215.806 100.931 215.36 101.116 214.99 101.486C214.63 101.856 214.451 102.422 214.451 103.184V107.495H212.214V99.3305H214.222L214.288 100.784C214.56 100.25 214.935 99.8476 215.414 99.5754C215.893 99.3033 216.448 99.1672 217.08 99.1672Z" fill="#333333"/>
<path d="M145.932 145.599V151.037H144.952L144.903 149.584C144.588 150.106 144.141 150.509 143.564 150.792C142.998 151.064 142.313 151.2 141.507 151.2C140.495 151.2 139.613 150.977 138.862 150.531C138.111 150.073 137.528 149.431 137.115 148.604C136.712 147.766 136.511 146.781 136.511 145.648C136.511 144.527 136.717 143.548 137.131 142.709C137.556 141.871 138.143 141.229 138.895 140.783C139.656 140.325 140.538 140.097 141.54 140.097C142.606 140.097 143.483 140.298 144.169 140.701C144.865 141.104 145.426 141.724 145.85 142.562L144.658 143.215C144.419 142.606 144.027 142.138 143.483 141.811C142.949 141.485 142.302 141.321 141.54 141.321C140.81 141.321 140.168 141.496 139.613 141.844C139.069 142.192 138.644 142.693 138.339 143.346C138.035 143.988 137.882 144.756 137.882 145.648C137.882 147.02 138.198 148.087 138.829 148.849C139.461 149.6 140.369 149.975 141.556 149.975C142.492 149.975 143.254 149.736 143.842 149.257C144.441 148.778 144.74 148.092 144.74 147.2V146.824H141.311V145.599H145.932Z" fill="#333333"/>
<path d="M153.323 140.097C154.335 140.097 155.217 140.325 155.968 140.783C156.719 141.229 157.296 141.871 157.699 142.709C158.112 143.537 158.319 144.516 158.319 145.648C158.319 146.781 158.112 147.766 157.699 148.604C157.296 149.431 156.719 150.073 155.968 150.531C155.217 150.977 154.335 151.2 153.323 151.2C152.31 151.2 151.429 150.977 150.678 150.531C149.926 150.073 149.344 149.431 148.93 148.604C148.528 147.766 148.326 146.781 148.326 145.648C148.326 144.516 148.528 143.537 148.93 142.709C149.344 141.871 149.926 141.229 150.678 140.783C151.429 140.325 152.31 140.097 153.323 140.097ZM153.323 141.321C152.202 141.321 151.314 141.708 150.661 142.481C150.019 143.243 149.698 144.299 149.698 145.648C149.698 146.998 150.019 148.06 150.661 148.832C151.314 149.594 152.202 149.975 153.323 149.975C154.444 149.975 155.326 149.594 155.968 148.832C156.621 148.06 156.948 146.998 156.948 145.648C156.948 144.299 156.621 143.243 155.968 142.481C155.326 141.708 154.444 141.321 153.323 141.321Z" fill="#333333"/>
<path d="M166.885 148.049H162.003L160.86 151.037H159.488L163.684 140.26H165.236L169.416 151.037H168.028L166.885 148.049ZM166.411 146.824L164.958 143.003L164.452 141.501H164.419L163.946 142.954L162.476 146.824H166.411Z" fill="#333333"/>
<path d="M179.085 149.812V151.037H171.606V140.26H172.912V149.812H179.085Z" fill="#333333"/>
<path d="M47.0266 169.357H45.0019V173.488H42.7812V162.711H47.5328C48.7628 162.711 49.7208 163.005 50.4066 163.593C51.1032 164.17 51.4516 164.987 51.4516 166.042C51.4516 166.815 51.2611 167.463 50.8801 167.986C50.4991 168.508 49.9548 168.884 49.2473 169.112L52.0884 173.488H49.5575L47.0266 169.357ZM45.0019 167.643H47.2389C47.892 167.643 48.371 167.517 48.6758 167.267C48.9914 167.006 49.1493 166.609 49.1493 166.075C49.1493 165.542 48.9914 165.15 48.6758 164.899C48.371 164.638 47.892 164.508 47.2389 164.508H45.0019V167.643Z" fill="#333333"/>
<path d="M61.1007 169.373C61.1007 169.678 61.0789 169.972 61.0354 170.255H55.2552C55.4838 171.409 56.1641 171.986 57.2962 171.986C57.7643 171.986 58.1507 171.899 58.4555 171.725C58.7603 171.551 58.9726 171.3 59.0923 170.974L60.9211 171.643C60.6598 172.296 60.219 172.797 59.5985 173.145C58.9889 173.483 58.2215 173.651 57.2962 173.651C55.9464 173.651 54.9014 173.281 54.1612 172.541C53.421 171.79 53.0509 170.745 53.0509 169.406C53.0509 168.067 53.4101 167.028 54.1285 166.287C54.847 165.536 55.8593 165.161 57.1656 165.161C58.4283 165.161 59.3971 165.525 60.072 166.255C60.7578 166.984 61.1007 168.024 61.1007 169.373ZM57.1493 166.81C56.605 166.81 56.1696 166.968 55.843 167.283C55.5273 167.599 55.3259 168.067 55.2388 168.688H59.0433C58.9563 168.078 58.7494 167.615 58.4229 167.3C58.0963 166.973 57.6718 166.81 57.1493 166.81Z" fill="#333333"/>
<path d="M70.3981 165.324L67.2958 173.488H64.7159L61.6135 165.324H64.0138L66.0222 171.921L68.0795 165.324H70.3981Z" fill="#333333"/>
<path d="M79.1511 169.373C79.1511 169.678 79.1294 169.972 79.0858 170.255H73.3056C73.5342 171.409 74.2145 171.986 75.3466 171.986C75.8147 171.986 76.2011 171.899 76.5059 171.725C76.8107 171.551 77.023 171.3 77.1427 170.974L78.9715 171.643C78.7103 172.296 78.2694 172.797 77.6489 173.145C77.0393 173.483 76.2719 173.651 75.3466 173.651C73.9968 173.651 72.9518 173.281 72.2116 172.541C71.4714 171.79 71.1013 170.745 71.1013 169.406C71.1013 168.067 71.4605 167.028 72.1789 166.287C72.8974 165.536 73.9097 165.161 75.216 165.161C76.4787 165.161 77.4475 165.525 78.1224 166.255C78.8082 166.984 79.1511 168.024 79.1511 169.373ZM75.1997 166.81C74.6554 166.81 74.22 166.968 73.8934 167.283C73.5777 167.599 73.3763 168.067 73.2893 168.688H77.0938C77.0067 168.078 76.7998 167.615 76.4733 167.3C76.1467 166.973 75.7222 166.81 75.1997 166.81Z" fill="#333333"/>
<path d="M85.6503 165.161C86.0313 165.161 86.3252 165.221 86.532 165.34L86.2544 167.3C86.0041 167.136 85.6612 167.055 85.2258 167.055C84.6924 167.055 84.2297 167.251 83.8379 167.643C83.4569 168.024 83.2664 168.562 83.2664 169.259V173.488H81.0294V165.324H82.9725L83.1194 166.924C83.5657 165.749 84.4093 165.161 85.6503 165.161Z" fill="#333333"/>
<path d="M90.8783 173.651C89.0604 173.651 87.7977 173.129 87.0901 172.084L88.3964 170.745C88.6141 171.213 88.9243 171.545 89.3271 171.741C89.7407 171.926 90.2469 172.019 90.8456 172.019C91.3246 172.019 91.6947 171.953 91.9559 171.823C92.2172 171.692 92.3478 171.512 92.3478 171.284C92.3478 171.099 92.2226 170.941 91.9723 170.81C91.7328 170.68 91.3137 170.555 90.715 170.435C89.4632 170.184 88.5814 169.858 88.0698 169.455C87.5691 169.041 87.3187 168.486 87.3187 167.79C87.3187 167.332 87.4602 166.902 87.7432 166.5C88.0263 166.097 88.4454 165.776 89.0005 165.536C89.5557 165.286 90.2197 165.161 90.9926 165.161C91.907 165.161 92.6472 165.302 93.2132 165.585C93.7793 165.857 94.2528 166.293 94.6338 166.892L93.2459 168.067C93.0064 167.632 92.707 167.311 92.3478 167.104C91.9995 166.897 91.5586 166.794 91.0252 166.794C90.5789 166.794 90.2197 166.87 89.9476 167.022C89.6863 167.175 89.5557 167.36 89.5557 167.577C89.5557 167.806 89.6863 167.996 89.9476 168.149C90.2088 168.301 90.6715 168.443 91.3355 168.573C92.522 168.813 93.3602 169.129 93.85 169.52C94.3508 169.901 94.6011 170.435 94.6011 171.121C94.6011 171.883 94.2746 172.498 93.6214 172.966C92.9792 173.423 92.0648 173.651 90.8783 173.651Z" fill="#333333"/>
<path d="M103.978 169.373C103.978 169.678 103.957 169.972 103.913 170.255H98.1329C98.3615 171.409 99.0418 171.986 100.174 171.986C100.642 171.986 101.028 171.899 101.333 171.725C101.638 171.551 101.85 171.3 101.97 170.974L103.799 171.643C103.538 172.296 103.097 172.797 102.476 173.145C101.867 173.483 101.099 173.651 100.174 173.651C98.8241 173.651 97.7791 173.281 97.0389 172.541C96.2987 171.79 95.9286 170.745 95.9286 169.406C95.9286 168.067 96.2878 167.028 97.0062 166.287C97.7247 165.536 98.737 165.161 100.043 165.161C101.306 165.161 102.275 165.525 102.95 166.255C103.636 166.984 103.978 168.024 103.978 169.373ZM100.027 166.81C99.4827 166.81 99.0473 166.968 98.7207 167.283C98.405 167.599 98.2036 168.067 98.1166 168.688H101.921C101.834 168.078 101.627 167.615 101.301 167.3C100.974 166.973 100.549 166.81 100.027 166.81Z" fill="#333333"/>
<path d="M116.257 172.982C115.996 173.189 115.664 173.352 115.261 173.472C114.869 173.592 114.455 173.651 114.02 173.651C112.202 173.651 111.293 172.83 111.293 171.186V166.989H109.807V165.324H111.293V163.446L113.53 162.826V165.324H116.175V166.989H113.53V170.827C113.53 171.578 113.906 171.953 114.657 171.953C115.136 171.953 115.555 171.801 115.914 171.496L116.257 172.982Z" fill="#333333"/>
<path d="M122.65 165.161C123.532 165.161 124.239 165.417 124.772 165.928C125.317 166.44 125.589 167.175 125.589 168.132V173.488H123.352V168.786C123.352 167.545 122.868 166.924 121.899 166.924C121.376 166.924 120.93 167.109 120.56 167.479C120.201 167.849 120.021 168.416 120.021 169.177V173.488H117.784V161.748H120.021V166.712C120.271 166.189 120.62 165.803 121.066 165.553C121.523 165.291 122.051 165.161 122.65 165.161Z" fill="#333333"/>
<path d="M135.519 169.373C135.519 169.678 135.497 169.972 135.454 170.255H129.673C129.902 171.409 130.582 171.986 131.714 171.986C132.182 171.986 132.569 171.899 132.874 171.725C133.178 171.551 133.391 171.3 133.51 170.974L135.339 171.643C135.078 172.296 134.637 172.797 134.017 173.145C133.407 173.483 132.64 173.651 131.714 173.651C130.365 173.651 129.32 173.281 128.579 172.541C127.839 171.79 127.469 170.745 127.469 169.406C127.469 168.067 127.828 167.028 128.547 166.287C129.265 165.536 130.277 165.161 131.584 165.161C132.846 165.161 133.815 165.525 134.49 166.255C135.176 166.984 135.519 168.024 135.519 169.373ZM131.567 166.81C131.023 166.81 130.588 166.968 130.261 167.283C129.945 167.599 129.744 168.067 129.657 168.688H133.461C133.374 168.078 133.168 167.615 132.841 167.3C132.514 166.973 132.09 166.81 131.567 166.81Z" fill="#333333"/>
<path d="M150.291 161.748V173.488H148.299L148.201 171.97C147.961 172.481 147.602 172.889 147.123 173.194C146.655 173.499 146.116 173.651 145.507 173.651C144.418 173.651 143.564 173.281 142.943 172.541C142.323 171.79 142.013 170.75 142.013 169.422C142.013 168.083 142.323 167.038 142.943 166.287C143.564 165.536 144.418 165.161 145.507 165.161C146.095 165.161 146.606 165.297 147.042 165.569C147.477 165.83 147.814 166.195 148.054 166.663V161.748H150.291ZM146.16 171.937C146.748 171.937 147.21 171.725 147.548 171.3C147.885 170.876 148.054 170.271 148.054 169.488V169.324C148.054 168.552 147.885 167.953 147.548 167.528C147.21 167.093 146.748 166.875 146.16 166.875C145.561 166.875 145.093 167.093 144.756 167.528C144.418 167.964 144.249 168.59 144.249 169.406C144.249 170.222 144.418 170.848 144.756 171.284C145.093 171.719 145.561 171.937 146.16 171.937Z" fill="#333333"/>
<path d="M153.784 164.148C152.858 164.148 152.396 163.751 152.396 162.956C152.396 162.151 152.858 161.748 153.784 161.748C154.709 161.748 155.172 162.151 155.172 162.956C155.172 163.751 154.709 164.148 153.784 164.148ZM154.894 173.488H152.657V165.324H154.894V173.488Z" fill="#333333"/>
<path d="M160.433 173.651C158.615 173.651 157.352 173.129 156.645 172.084L157.951 170.745C158.169 171.213 158.479 171.545 158.882 171.741C159.295 171.926 159.802 172.019 160.4 172.019C160.879 172.019 161.249 171.953 161.511 171.823C161.772 171.692 161.903 171.512 161.903 171.284C161.903 171.099 161.777 170.941 161.527 170.81C161.288 170.68 160.868 170.555 160.27 170.435C159.018 170.184 158.136 169.858 157.625 169.455C157.124 169.041 156.873 168.486 156.873 167.79C156.873 167.332 157.015 166.902 157.298 166.5C157.581 166.097 158 165.776 158.555 165.536C159.11 165.286 159.774 165.161 160.547 165.161C161.462 165.161 162.202 165.302 162.768 165.585C163.334 165.857 163.808 166.293 164.189 166.892L162.801 168.067C162.561 167.632 162.262 167.311 161.903 167.104C161.554 166.897 161.113 166.794 160.58 166.794C160.134 166.794 159.774 166.87 159.502 167.022C159.241 167.175 159.11 167.36 159.11 167.577C159.11 167.806 159.241 167.996 159.502 168.149C159.764 168.301 160.226 168.443 160.89 168.573C162.077 168.813 162.915 169.129 163.405 169.52C163.905 169.901 164.156 170.435 164.156 171.121C164.156 171.883 163.829 172.498 163.176 172.966C162.534 173.423 161.62 173.651 160.433 173.651Z" fill="#333333"/>
<path d="M173.533 169.373C173.533 169.678 173.511 169.972 173.468 170.255H167.688C167.916 171.409 168.597 171.986 169.729 171.986C170.197 171.986 170.583 171.899 170.888 171.725C171.193 171.551 171.405 171.3 171.525 170.974L173.354 171.643C173.092 172.296 172.651 172.797 172.031 173.145C171.421 173.483 170.654 173.651 169.729 173.651C168.379 173.651 167.334 173.281 166.594 172.541C165.853 171.79 165.483 170.745 165.483 169.406C165.483 168.067 165.843 167.028 166.561 166.287C167.279 165.536 168.292 165.161 169.598 165.161C170.861 165.161 171.83 165.525 172.504 166.255C173.19 166.984 173.533 168.024 173.533 169.373ZM169.582 166.81C169.037 166.81 168.602 166.968 168.275 167.283C167.96 167.599 167.758 168.067 167.671 168.688H171.476C171.389 168.078 171.182 167.615 170.855 167.3C170.529 166.973 170.104 166.81 169.582 166.81Z" fill="#333333"/>
<path d="M182.873 172.133C183.102 172.133 183.287 172.111 183.429 172.068L183.265 173.423C182.961 173.575 182.607 173.651 182.204 173.651C181.159 173.651 180.533 173.243 180.326 172.427C180.087 172.83 179.717 173.134 179.216 173.341C178.715 173.548 178.122 173.651 177.436 173.651C176.641 173.651 176.021 173.472 175.575 173.113C175.128 172.753 174.905 172.236 174.905 171.561C174.905 170.233 175.967 169.373 178.089 168.982L180.049 168.606V168.214C180.049 167.779 179.923 167.436 179.673 167.185C179.434 166.924 179.096 166.794 178.661 166.794C178.16 166.794 177.752 166.902 177.436 167.12C177.12 167.338 176.903 167.692 176.783 168.181L175.003 167.43C175.177 166.723 175.569 166.168 176.179 165.765C176.788 165.362 177.583 165.161 178.563 165.161C179.728 165.161 180.636 165.417 181.29 165.928C181.943 166.429 182.269 167.175 182.269 168.165V171.512C182.269 171.73 182.318 171.888 182.416 171.986C182.514 172.084 182.667 172.133 182.873 172.133ZM178.138 172.133C178.617 172.133 179.053 172.019 179.444 171.79C179.847 171.551 180.049 171.229 180.049 170.827V169.978L178.301 170.369C177.931 170.457 177.654 170.576 177.469 170.729C177.295 170.87 177.208 171.072 177.208 171.333C177.208 171.594 177.289 171.795 177.452 171.937C177.616 172.068 177.844 172.133 178.138 172.133Z" fill="#333333"/>
<path d="M187.955 173.651C186.137 173.651 184.874 173.129 184.167 172.084L185.473 170.745C185.691 171.213 186.001 171.545 186.404 171.741C186.818 171.926 187.324 172.019 187.922 172.019C188.401 172.019 188.772 171.953 189.033 171.823C189.294 171.692 189.425 171.512 189.425 171.284C189.425 171.099 189.299 170.941 189.049 170.81C188.81 170.68 188.391 170.555 187.792 170.435C186.54 170.184 185.658 169.858 185.147 169.455C184.646 169.041 184.396 168.486 184.396 167.79C184.396 167.332 184.537 166.902 184.82 166.5C185.103 166.097 185.522 165.776 186.077 165.536C186.633 165.286 187.297 165.161 188.069 165.161C188.984 165.161 189.724 165.302 190.29 165.585C190.856 165.857 191.33 166.293 191.711 166.892L190.323 168.067C190.083 167.632 189.784 167.311 189.425 167.104C189.076 166.897 188.635 166.794 188.102 166.794C187.656 166.794 187.297 166.87 187.024 167.022C186.763 167.175 186.633 167.36 186.633 167.577C186.633 167.806 186.763 167.996 187.024 168.149C187.286 168.301 187.748 168.443 188.412 168.573C189.599 168.813 190.437 169.129 190.927 169.52C191.428 169.901 191.678 170.435 191.678 171.121C191.678 171.883 191.351 172.498 190.698 172.966C190.056 173.423 189.142 173.651 187.955 173.651Z" fill="#333333"/>
<path d="M201.055 169.373C201.055 169.678 201.033 169.972 200.99 170.255H195.21C195.438 171.409 196.119 171.986 197.251 171.986C197.719 171.986 198.105 171.899 198.41 171.725C198.715 171.551 198.927 171.3 199.047 170.974L200.876 171.643C200.614 172.296 200.174 172.797 199.553 173.145C198.943 173.483 198.176 173.651 197.251 173.651C195.901 173.651 194.856 173.281 194.116 172.541C193.376 171.79 193.005 170.745 193.005 169.406C193.005 168.067 193.365 167.028 194.083 166.287C194.801 165.536 195.814 165.161 197.12 165.161C198.383 165.161 199.352 165.525 200.027 166.255C200.712 166.984 201.055 168.024 201.055 169.373ZM197.104 166.81C196.56 166.81 196.124 166.968 195.798 167.283C195.482 167.599 195.28 168.067 195.193 168.688H198.998C198.911 168.078 198.704 167.615 198.377 167.3C198.051 166.973 197.626 166.81 197.104 166.81Z" fill="#333333"/>
<path d="M210.46 165.324H213.04V166.989H210.558V173.488H208.321V166.989H206.9V165.324H208.321V164.344C208.321 163.452 208.599 162.771 209.154 162.303C209.709 161.824 210.46 161.585 211.407 161.585C211.766 161.585 212.093 161.623 212.387 161.699C212.691 161.775 212.931 161.879 213.105 162.009L212.795 163.495C212.545 163.332 212.234 163.25 211.864 163.25C210.928 163.25 210.46 163.669 210.46 164.508V165.324Z" fill="#333333"/>
<path d="M217.994 165.161C219.312 165.161 220.335 165.536 221.064 166.287C221.804 167.038 222.174 168.078 222.174 169.406C222.174 170.734 221.804 171.774 221.064 172.525C220.335 173.276 219.312 173.651 217.994 173.651C216.677 173.651 215.649 173.276 214.908 172.525C214.179 171.774 213.814 170.734 213.814 169.406C213.814 168.078 214.179 167.038 214.908 166.287C215.649 165.536 216.677 165.161 217.994 165.161ZM217.994 166.826C217.363 166.826 216.879 167.044 216.541 167.479C216.215 167.904 216.051 168.546 216.051 169.406C216.051 170.266 216.215 170.914 216.541 171.349C216.879 171.774 217.363 171.986 217.994 171.986C218.626 171.986 219.105 171.774 219.431 171.349C219.769 170.914 219.938 170.266 219.938 169.406C219.938 168.546 219.769 167.904 219.431 167.479C219.105 167.044 218.626 166.826 217.994 166.826Z" fill="#333333"/>
<path d="M228.714 165.161C229.095 165.161 229.389 165.221 229.596 165.34L229.318 167.3C229.068 167.136 228.725 167.055 228.29 167.055C227.756 167.055 227.294 167.251 226.902 167.643C226.521 168.024 226.33 168.562 226.33 169.259V173.488H224.093V165.324H226.036L226.183 166.924C226.63 165.749 227.473 165.161 228.714 165.161Z" fill="#333333"/>
<path d="M240.65 171.953C241.542 171.953 242.228 172.149 242.707 172.541C243.197 172.933 243.442 173.494 243.442 174.223C243.442 175.094 243.039 175.774 242.233 176.264C241.428 176.754 240.367 176.999 239.049 176.999C237.689 176.999 236.676 176.819 236.012 176.46C235.359 176.101 235.033 175.611 235.033 174.99C235.033 174.62 235.158 174.299 235.408 174.027C235.659 173.755 236.029 173.559 236.519 173.439C236.148 173.287 235.854 173.075 235.637 172.802C235.419 172.519 235.31 172.187 235.31 171.806C235.31 171.414 235.424 171.077 235.653 170.794C235.882 170.511 236.197 170.299 236.6 170.157C236.186 169.918 235.871 169.613 235.653 169.243C235.435 168.862 235.327 168.426 235.327 167.937C235.327 167.077 235.659 166.402 236.323 165.912C236.997 165.411 237.912 165.161 239.066 165.161C239.654 165.161 240.203 165.231 240.715 165.373C240.856 164.731 241.129 164.23 241.531 163.871C241.945 163.501 242.5 163.337 243.197 163.381L243.491 164.981C243.415 164.97 243.3 164.965 243.148 164.965C242.745 164.965 242.408 165.036 242.135 165.177C241.874 165.319 241.689 165.509 241.58 165.749C241.983 165.988 242.288 166.293 242.495 166.663C242.712 167.033 242.821 167.458 242.821 167.937C242.821 168.786 242.484 169.461 241.809 169.961C241.145 170.451 240.23 170.696 239.066 170.696C238.532 170.696 238.042 170.647 237.596 170.549C237.172 170.658 236.959 170.903 236.959 171.284C236.959 171.502 237.041 171.67 237.204 171.79C237.368 171.899 237.596 171.953 237.89 171.953H240.65ZM239.066 166.565C238.63 166.565 238.271 166.69 237.988 166.941C237.716 167.191 237.58 167.517 237.58 167.92C237.58 168.334 237.716 168.666 237.988 168.916C238.271 169.167 238.63 169.292 239.066 169.292C239.512 169.292 239.871 169.167 240.143 168.916C240.426 168.666 240.568 168.334 240.568 167.92C240.568 167.517 240.426 167.191 240.143 166.941C239.871 166.69 239.512 166.565 239.066 166.565ZM239.229 175.464C239.991 175.464 240.579 175.366 240.992 175.17C241.406 174.985 241.613 174.745 241.613 174.452C241.613 174.223 241.515 174.049 241.319 173.929C241.134 173.82 240.824 173.766 240.388 173.766H238.168C237.264 173.766 236.812 174.011 236.812 174.501C236.812 174.805 237.014 175.039 237.417 175.203C237.819 175.377 238.423 175.464 239.229 175.464Z" fill="#333333"/>
<path d="M248.578 165.161C249.895 165.161 250.918 165.536 251.648 166.287C252.388 167.038 252.758 168.078 252.758 169.406C252.758 170.734 252.388 171.774 251.648 172.525C250.918 173.276 249.895 173.651 248.578 173.651C247.261 173.651 246.232 173.276 245.492 172.525C244.763 171.774 244.398 170.734 244.398 169.406C244.398 168.078 244.763 167.038 245.492 166.287C246.232 165.536 247.261 165.161 248.578 165.161ZM248.578 166.826C247.947 166.826 247.462 167.044 247.125 167.479C246.798 167.904 246.635 168.546 246.635 169.406C246.635 170.266 246.798 170.914 247.125 171.349C247.462 171.774 247.947 171.986 248.578 171.986C249.209 171.986 249.688 171.774 250.015 171.349C250.352 170.914 250.521 170.266 250.521 169.406C250.521 168.546 250.352 167.904 250.015 167.479C249.688 167.044 249.209 166.826 248.578 166.826Z" fill="#333333"/>
<path d="M258.432 165.161C259.75 165.161 260.773 165.536 261.502 166.287C262.242 167.038 262.613 168.078 262.613 169.406C262.613 170.734 262.242 171.774 261.502 172.525C260.773 173.276 259.75 173.651 258.432 173.651C257.115 173.651 256.087 173.276 255.346 172.525C254.617 171.774 254.252 170.734 254.252 169.406C254.252 168.078 254.617 167.038 255.346 166.287C256.087 165.536 257.115 165.161 258.432 165.161ZM258.432 166.826C257.801 166.826 257.317 167.044 256.979 167.479C256.653 167.904 256.489 168.546 256.489 169.406C256.489 170.266 256.653 170.914 256.979 171.349C257.317 171.774 257.801 171.986 258.432 171.986C259.064 171.986 259.543 171.774 259.869 171.349C260.207 170.914 260.376 170.266 260.376 169.406C260.376 168.546 260.207 167.904 259.869 167.479C259.543 167.044 259.064 166.826 258.432 166.826Z" fill="#333333"/>
<path d="M272.434 161.748V173.488H270.442L270.344 171.97C270.105 172.481 269.746 172.889 269.267 173.194C268.798 173.499 268.26 173.651 267.65 173.651C266.562 173.651 265.707 173.281 265.087 172.541C264.466 171.79 264.156 170.75 264.156 169.422C264.156 168.083 264.466 167.038 265.087 166.287C265.707 165.536 266.562 165.161 267.65 165.161C268.238 165.161 268.749 165.297 269.185 165.569C269.62 165.83 269.958 166.195 270.197 166.663V161.748H272.434ZM268.303 171.937C268.891 171.937 269.354 171.725 269.691 171.3C270.029 170.876 270.197 170.271 270.197 169.488V169.324C270.197 168.552 270.029 167.953 269.691 167.528C269.354 167.093 268.891 166.875 268.303 166.875C267.704 166.875 267.236 167.093 266.899 167.528C266.562 167.964 266.393 168.59 266.393 169.406C266.393 170.222 266.562 170.848 266.899 171.284C267.236 171.719 267.704 171.937 268.303 171.937Z" fill="#333333"/>
<path d="M128.272 45.0606H123.308L122.306 48.3044H118.54L123.591 33.9355H128.076L133.105 48.3044H129.251L128.272 45.0606ZM127.488 42.5133L126.443 39.0735L125.812 36.8093H125.768L125.18 39.0517L124.092 42.5133H127.488Z" fill="#333333"/>
<path d="M141.416 45.8879C142.679 45.8879 143.651 46.1636 144.333 46.7152C145.03 47.2667 145.378 48.0795 145.378 49.1535C145.378 50.3872 144.827 51.3306 143.724 51.9838C142.635 52.6514 141.148 52.9852 139.261 52.9852C137.359 52.9852 135.952 52.7603 135.037 52.3103C134.137 51.8604 133.687 51.229 133.687 50.4162C133.687 49.9373 133.854 49.5164 134.188 49.1535C134.522 48.7907 135.03 48.5294 135.712 48.3698C134.595 47.8908 134.036 47.1361 134.036 46.1056C134.036 45.5976 134.195 45.1476 134.515 44.7558C134.834 44.3639 135.269 44.0736 135.821 43.8849C134.631 43.2463 134.036 42.2521 134.036 40.9023C134.036 39.7266 134.5 38.8195 135.429 38.1809C136.358 37.5278 137.664 37.2012 139.348 37.2012C140.132 37.2012 140.857 37.281 141.525 37.4407C141.67 36.5698 141.997 35.8587 142.505 35.3071C143.013 34.7556 143.717 34.4798 144.616 34.4798L144.965 34.5016L145.378 36.9617C145.088 36.9327 144.885 36.9182 144.769 36.9182C144.275 36.9182 143.862 37.0053 143.528 37.1794C143.209 37.3536 142.976 37.5931 142.831 37.8979C144.05 38.5365 144.66 39.538 144.66 40.9023C144.66 42.0779 144.196 42.985 143.267 43.6237C142.338 44.2623 141.032 44.5816 139.348 44.5816C138.564 44.5816 137.867 44.5163 137.258 44.3857C136.808 44.5018 136.583 44.7558 136.583 45.1476C136.583 45.6411 136.96 45.8879 137.715 45.8879H141.416ZM139.348 39.313C138.869 39.313 138.477 39.4581 138.172 39.7484C137.882 40.0387 137.737 40.4233 137.737 40.9023C137.737 41.3812 137.882 41.7659 138.172 42.0562C138.477 42.3319 138.869 42.4698 139.348 42.4698C139.827 42.4698 140.211 42.3319 140.502 42.0562C140.807 41.7659 140.959 41.3812 140.959 40.9023C140.959 40.4233 140.807 40.0387 140.502 39.7484C140.211 39.4581 139.827 39.313 139.348 39.313ZM139.522 50.5904C140.48 50.5904 141.206 50.4888 141.699 50.2856C142.207 50.0969 142.461 49.8429 142.461 49.5236C142.461 49.2914 142.36 49.1172 142.156 49.0011C141.953 48.885 141.612 48.827 141.133 48.827H138.15C137.555 48.827 137.127 48.885 136.866 49.0011C136.619 49.1317 136.496 49.3277 136.496 49.5889C136.496 50.2566 137.505 50.5904 139.522 50.5904Z" fill="#333333"/>
<path d="M157.448 42.7093C157.448 43.2028 157.412 43.6092 157.34 43.9285H149.916C150.032 44.6106 150.279 45.1114 150.656 45.4307C151.048 45.75 151.563 45.9096 152.202 45.9096C152.739 45.9096 153.174 45.808 153.508 45.6048C153.856 45.4016 154.088 45.1041 154.205 44.7122L157.209 45.6701C156.904 46.599 156.309 47.3102 155.424 47.8037C154.553 48.2827 153.479 48.5222 152.202 48.5222C150.3 48.5222 148.842 48.0287 147.826 47.0417C146.824 46.0548 146.323 44.6614 146.323 42.8617C146.323 41.0619 146.817 39.6686 147.804 38.6816C148.791 37.6947 150.191 37.2012 152.006 37.2012C153.762 37.2012 155.104 37.6874 156.033 38.6599C156.977 39.6178 157.448 40.9676 157.448 42.7093ZM151.984 39.792C150.808 39.792 150.112 40.5031 149.894 41.9255H153.987C153.813 40.5031 153.145 39.792 151.984 39.792Z" fill="#333333"/>
<path d="M166.658 37.2012C167.805 37.2012 168.719 37.535 169.401 38.2027C170.084 38.8703 170.425 39.821 170.425 41.0547V48.3044H166.724V42.0779C166.724 41.3377 166.586 40.8152 166.31 40.5104C166.049 40.1911 165.671 40.0314 165.178 40.0314C164.597 40.0314 164.126 40.2419 163.763 40.6628C163.4 41.0692 163.219 41.7006 163.219 42.5569V48.3044H159.517V37.4189H162.827L162.935 39.5089C163.284 38.7397 163.777 38.1664 164.416 37.789C165.055 37.3971 165.802 37.2012 166.658 37.2012Z" fill="#333333"/>
<path d="M178.221 37.2012C179.861 37.2012 181.095 37.5133 181.922 38.1374C182.75 38.7615 183.265 39.5743 183.468 40.5757L180.028 41.7078C179.883 40.4596 179.324 39.8355 178.352 39.8355C176.915 39.8355 176.197 40.8587 176.197 42.9052C176.197 44.8936 176.915 45.8879 178.352 45.8879C179.382 45.8879 179.985 45.3 180.159 44.1244L183.49 45.1912C183.33 46.1781 182.8 46.9837 181.901 47.6078C181.015 48.2174 179.84 48.5222 178.374 48.5222C176.487 48.5222 175.035 48.0287 174.02 47.0417C173.004 46.0548 172.496 44.6614 172.496 42.8617C172.496 41.0765 172.996 39.6904 173.998 38.7034C175.014 37.7019 176.422 37.2012 178.221 37.2012Z" fill="#333333"/>
<path d="M192.362 48.3044C191.955 49.4656 191.513 50.3872 191.034 51.0694C190.555 51.7515 189.989 52.2377 189.335 52.528C188.682 52.8328 187.891 52.9852 186.962 52.9852C185.729 52.9852 184.742 52.7167 184.002 52.1797L184.785 49.6978C185.018 49.9155 185.272 50.0606 185.547 50.1332C185.838 50.2203 186.208 50.2638 186.658 50.2638C187.108 50.2638 187.463 50.184 187.724 50.0244C187.986 49.8792 188.196 49.6107 188.356 49.2188L188.617 48.5439L187.354 45.5831L184.11 37.4189H188.182L189.858 43.6237L190.38 45.9314L190.968 43.5366L192.645 37.4189H196.346L192.362 48.3044Z" fill="#333333"/>
</svg>
