<svg width="315" height="163" viewBox="0 0 315 163" fill="none" xmlns="http://www.w3.org/2000/svg">
<mask id="mask0" mask-type="alpha" maskUnits="userSpaceOnUse" x="0" y="0" width="315" height="163">
<rect width="315" height="163" fill="#BDBDBD"/>
</mask>
<g mask="url(#mask0)">
<path d="M2 2H313V77.6323V161.283H2V81.6415V2Z" stroke="#BDBDBD" stroke-width="4"/>
<path d="M75.0745 56.1101V63.5633H72.9175L72.8535 61.8762C71.9992 63.1433 70.6111 63.7769 68.6891 63.7769C67.3935 63.7769 66.2545 63.4922 65.2721 62.9227C64.2897 62.3532 63.5209 61.5274 62.9657 60.4454C62.4247 59.3491 62.1541 58.0464 62.1541 56.5372C62.1541 55.0423 62.4318 53.7467 62.987 52.6505C63.5565 51.5542 64.3538 50.7142 65.3789 50.1305C66.4182 49.5467 67.6284 49.2549 69.0094 49.2549C70.5328 49.2549 71.7714 49.5325 72.7253 50.0878C73.6935 50.643 74.4552 51.5186 75.0104 52.7145L72.2982 53.8891C72.0847 53.163 71.6931 52.6149 71.1236 52.2447C70.5684 51.8603 69.8921 51.6681 69.0948 51.6681C67.8704 51.6681 66.9165 52.0881 66.2331 52.9281C65.5497 53.7681 65.208 54.964 65.208 56.5159C65.208 58.1247 65.5426 59.342 66.2118 60.1678C66.8809 60.9935 67.8633 61.4064 69.1589 61.4064C70.1555 61.4064 70.967 61.1715 71.5935 60.7017C72.2199 60.2176 72.5331 59.52 72.5331 58.6088V58.2884H68.4114V56.1101H75.0745Z" fill="#828282"/>
<path d="M87.7526 61.7908C88.0515 61.7908 88.2936 61.7623 88.4787 61.7054L88.2651 63.4779C87.8665 63.6772 87.4037 63.7769 86.877 63.7769C85.5102 63.7769 84.6915 63.243 84.421 62.1752C84.1078 62.702 83.6238 63.1006 82.9688 63.3711C82.3139 63.6417 81.538 63.7769 80.641 63.7769C79.6017 63.7769 78.7902 63.542 78.2065 63.0722C77.6227 62.6023 77.3309 61.9261 77.3309 61.0433C77.3309 59.3064 78.719 58.1817 81.4953 57.6691L84.058 57.1779V56.6654C84.058 56.0959 83.8943 55.6474 83.5668 55.32C83.2536 54.9783 82.8122 54.8074 82.2427 54.8074C81.5878 54.8074 81.0539 54.9498 80.641 55.2345C80.2282 55.5193 79.9434 55.982 79.7868 56.6227L77.459 55.6403C77.6868 54.7149 78.1993 53.9888 78.9966 53.462C79.7939 52.9352 80.8332 52.6718 82.1146 52.6718C83.638 52.6718 84.8268 53.0064 85.681 53.6756C86.5353 54.3305 86.9624 55.3057 86.9624 56.6013V60.9793C86.9624 61.264 87.0265 61.4705 87.1546 61.5986C87.2827 61.7267 87.4821 61.7908 87.7526 61.7908ZM81.5593 61.7908C82.1858 61.7908 82.7553 61.6413 83.2678 61.3423C83.7946 61.0291 84.058 60.6091 84.058 60.0823V58.9718L81.7729 59.4844C81.2888 59.5983 80.9258 59.7549 80.6838 59.9542C80.456 60.1393 80.3421 60.4027 80.3421 60.7444C80.3421 61.0861 80.4488 61.3494 80.6624 61.5345C80.876 61.7054 81.1749 61.7908 81.5593 61.7908Z" fill="#828282"/>
<path d="M103.625 52.6718C104.721 52.6718 105.625 53.0064 106.337 53.6756C107.063 54.3447 107.426 55.3057 107.426 56.5586V63.5633H104.5V57.1352C104.5 56.3949 104.337 55.8539 104.009 55.5122C103.682 55.1562 103.233 54.9783 102.664 54.9783C101.98 54.9783 101.418 55.2274 100.977 55.7257C100.535 56.224 100.315 56.9217 100.315 57.8186V63.5633H97.3888V57.1352C97.3888 56.3949 97.225 55.8539 96.8976 55.5122C96.5701 55.1562 96.1145 54.9783 95.5308 54.9783C94.8901 54.9783 94.3349 55.2274 93.865 55.7257C93.4094 56.2098 93.1816 56.9359 93.1816 57.904V63.5633H90.2559V52.8854H92.8827L92.9681 54.7861C93.324 54.0884 93.8081 53.5617 94.4203 53.2057C95.0467 52.8498 95.7444 52.6718 96.5132 52.6718C97.3105 52.6718 98.0152 52.8569 98.6274 53.2271C99.2538 53.5972 99.7094 54.1311 99.9942 54.8288C100.336 54.1311 100.834 53.5972 101.489 53.2271C102.144 52.8569 102.856 52.6718 103.625 52.6718Z" fill="#828282"/>
<path d="M111.917 51.3478C110.707 51.3478 110.102 50.8281 110.102 49.7888C110.102 48.7352 110.707 48.2084 111.917 48.2084C113.128 48.2084 113.733 48.7352 113.733 49.7888C113.733 50.8281 113.128 51.3478 111.917 51.3478ZM113.37 63.5633H110.444V52.8854H113.37V63.5633Z" fill="#828282"/>
<path d="M120.038 52.8854H123.412V55.0637H120.166V63.5633H117.24V55.0637H115.382V52.8854H117.24V51.604C117.24 50.4366 117.603 49.5467 118.329 48.9345C119.055 48.3081 120.038 47.9949 121.276 47.9949C121.746 47.9949 122.173 48.0447 122.558 48.1444C122.956 48.244 123.269 48.3793 123.497 48.5501L123.091 50.4935C122.764 50.28 122.358 50.1732 121.874 50.1732C120.65 50.1732 120.038 50.7213 120.038 51.8176V52.8854ZM126.637 51.3478C125.426 51.3478 124.821 50.8281 124.821 49.7888C124.821 48.7352 125.426 48.2084 126.637 48.2084C127.847 48.2084 128.452 48.7352 128.452 49.7888C128.452 50.8281 127.847 51.3478 126.637 51.3478ZM128.089 63.5633H125.163V52.8854H128.089V63.5633Z" fill="#828282"/>
<path d="M141.168 58.1817C141.168 58.5803 141.14 58.9647 141.083 59.3349H133.523C133.822 60.844 134.712 61.5986 136.192 61.5986C136.805 61.5986 137.31 61.4847 137.709 61.2569C138.107 61.0291 138.385 60.7017 138.541 60.2745L140.933 61.1501C140.592 62.0044 140.015 62.6593 139.204 63.1149C138.406 63.5562 137.402 63.7769 136.192 63.7769C134.427 63.7769 133.06 63.2928 132.092 62.3247C131.124 61.3423 130.64 59.9756 130.64 58.2244C130.64 56.4732 131.11 55.1135 132.049 54.1454C132.989 53.163 134.313 52.6718 136.021 52.6718C137.673 52.6718 138.94 53.1488 139.823 54.1027C140.72 55.0566 141.168 56.4162 141.168 58.1817ZM136 54.8288C135.288 54.8288 134.719 55.0352 134.292 55.4481C133.879 55.861 133.615 56.4732 133.501 57.2847H138.477C138.364 56.4874 138.093 55.8823 137.666 55.4694C137.239 55.0423 136.684 54.8288 136 54.8288Z" fill="#828282"/>
<path d="M153.961 48.2084V63.5633H151.356L151.228 61.5772C150.914 62.2464 150.445 62.7803 149.818 63.1789C149.206 63.5776 148.501 63.7769 147.704 63.7769C146.28 63.7769 145.162 63.2928 144.351 62.3247C143.539 61.3423 143.134 59.9827 143.134 58.2457C143.134 56.4945 143.539 55.1278 144.351 54.1454C145.162 53.163 146.28 52.6718 147.704 52.6718C148.473 52.6718 149.142 52.8498 149.711 53.2057C150.281 53.5474 150.722 54.0244 151.035 54.6366V48.2084H153.961ZM148.558 61.5345C149.327 61.5345 149.932 61.2569 150.373 60.7017C150.815 60.1464 151.035 59.3562 151.035 58.3311V58.1176C151.035 57.1067 150.815 56.3237 150.373 55.7684C149.932 55.1989 149.327 54.9142 148.558 54.9142C147.775 54.9142 147.163 55.1989 146.721 55.7684C146.28 56.3379 146.059 57.1566 146.059 58.2244C146.059 59.2922 146.28 60.1108 146.721 60.6803C147.163 61.2498 147.775 61.5345 148.558 61.5345Z" fill="#828282"/>
<path d="M169.948 52.6718C171.101 52.6718 172.026 53.0064 172.724 53.6756C173.436 54.3447 173.792 55.3057 173.792 56.5586V63.5633H170.866V57.4128C170.866 55.7898 170.232 54.9783 168.965 54.9783C168.282 54.9783 167.698 55.2203 167.214 55.7044C166.744 56.1884 166.509 56.9288 166.509 57.9254V63.5633H163.583V52.8854H166.21L166.296 54.7861C166.652 54.0884 167.143 53.5617 167.769 53.2057C168.396 52.8498 169.122 52.6718 169.948 52.6718Z" fill="#828282"/>
<path d="M186.95 52.8854V63.5633H184.344L184.238 61.7267C183.554 63.0935 182.309 63.7769 180.5 63.7769C179.347 63.7769 178.429 63.4708 177.745 62.8586C177.076 62.2322 176.742 61.264 176.742 59.9542V52.8854H179.667V59.2067C179.667 60.0325 179.824 60.6162 180.137 60.9579C180.451 61.2996 180.913 61.4705 181.525 61.4705C182.266 61.4705 182.864 61.2356 183.319 60.7657C183.789 60.2817 184.024 59.5627 184.024 58.6088V52.8854H186.95Z" fill="#828282"/>
<path d="M197.353 62.9013C197.012 63.1718 196.577 63.3854 196.051 63.542C195.538 63.6986 194.997 63.7769 194.427 63.7769C192.05 63.7769 190.861 62.702 190.861 60.5522V55.0637H188.918V52.8854H190.861V50.4294L193.787 49.6179V52.8854H197.246V55.0637H193.787V60.0823C193.787 61.0647 194.278 61.5559 195.26 61.5559C195.887 61.5559 196.435 61.3566 196.905 60.9579L197.353 62.9013Z" fill="#828282"/>
<path d="M205.227 52.6718C205.726 52.6718 206.11 52.7501 206.381 52.9067L206.018 55.4694C205.69 55.2559 205.242 55.1491 204.672 55.1491C203.974 55.1491 203.369 55.4054 202.857 55.9179C202.359 56.4162 202.109 57.121 202.109 58.0322V63.5633H199.184V52.8854H201.725L201.917 54.9783C202.501 53.4406 203.604 52.6718 205.227 52.6718Z" fill="#828282"/>
<path d="M209.667 51.3478C208.457 51.3478 207.851 50.8281 207.851 49.7888C207.851 48.7352 208.457 48.2084 209.667 48.2084C210.877 48.2084 211.482 48.7352 211.482 49.7888C211.482 50.8281 210.877 51.3478 209.667 51.3478ZM211.119 63.5633H208.193V52.8854H211.119V63.5633Z" fill="#828282"/>
<path d="M221.545 62.9013C221.204 63.1718 220.77 63.3854 220.243 63.542C219.73 63.6986 219.189 63.7769 218.62 63.7769C216.242 63.7769 215.053 62.702 215.053 60.5522V55.0637H213.11V52.8854H215.053V50.4294L217.979 49.6179V52.8854H221.439V55.0637H217.979V60.0823C217.979 61.0647 218.47 61.5559 219.453 61.5559C220.079 61.5559 220.627 61.3566 221.097 60.9579L221.545 62.9013Z" fill="#828282"/>
<path d="M224.849 51.3478C223.639 51.3478 223.034 50.8281 223.034 49.7888C223.034 48.7352 223.639 48.2084 224.849 48.2084C226.06 48.2084 226.665 48.7352 226.665 49.7888C226.665 50.8281 226.06 51.3478 224.849 51.3478ZM226.302 63.5633H223.376V52.8854H226.302V63.5633Z" fill="#828282"/>
<path d="M234.315 52.6718C236.038 52.6718 237.376 53.163 238.33 54.1454C239.298 55.1278 239.782 56.4874 239.782 58.2244C239.782 59.9613 239.298 61.321 238.33 62.3033C237.376 63.2857 236.038 63.7769 234.315 63.7769C232.592 63.7769 231.247 63.2857 230.279 62.3033C229.325 61.321 228.848 59.9613 228.848 58.2244C228.848 56.4874 229.325 55.1278 230.279 54.1454C231.247 53.163 232.592 52.6718 234.315 52.6718ZM234.315 54.8501C233.489 54.8501 232.856 55.1349 232.414 55.7044C231.987 56.2596 231.774 57.0996 231.774 58.2244C231.774 59.3491 231.987 60.1962 232.414 60.7657C232.856 61.321 233.489 61.5986 234.315 61.5986C235.141 61.5986 235.767 61.321 236.194 60.7657C236.636 60.1962 236.856 59.3491 236.856 58.2244C236.856 57.0996 236.636 56.2596 236.194 55.7044C235.767 55.1349 235.141 54.8501 234.315 54.8501Z" fill="#828282"/>
<path d="M248.656 52.6718C249.809 52.6718 250.734 53.0064 251.432 53.6756C252.144 54.3447 252.5 55.3057 252.5 56.5586V63.5633H249.574V57.4128C249.574 55.7898 248.941 54.9783 247.673 54.9783C246.99 54.9783 246.406 55.2203 245.922 55.7044C245.452 56.1884 245.218 56.9288 245.218 57.9254V63.5633H242.292V52.8854H244.919L245.004 54.7861C245.36 54.0884 245.851 53.5617 246.478 53.2057C247.104 52.8498 247.83 52.6718 248.656 52.6718Z" fill="#828282"/>
<path d="M65.3693 82.8745C65.3693 83.2731 65.3408 83.6575 65.2839 84.0277H57.7239C58.0229 85.5368 58.9127 86.2914 60.3934 86.2914C61.0056 86.2914 61.511 86.1775 61.9096 85.9497C62.3083 85.7219 62.5859 85.3945 62.7425 84.9673L65.1344 85.8429C64.7927 86.6972 64.2161 87.3521 63.4045 87.8077C62.6073 88.249 61.6035 88.4697 60.3934 88.4697C58.6279 88.4697 57.2612 87.9856 56.293 87.0175C55.3249 86.0351 54.8408 84.6684 54.8408 82.9172C54.8408 81.166 55.3107 79.8063 56.2503 78.8382C57.19 77.8558 58.514 77.3646 60.2225 77.3646C61.874 77.3646 63.1412 77.8416 64.0239 78.7955C64.9208 79.7494 65.3693 81.109 65.3693 82.8745ZM60.2012 79.5216C59.4893 79.5216 58.9198 79.728 58.4927 80.1409C58.0798 80.5538 57.8164 81.166 57.7025 81.9775H62.6784C62.5645 81.1802 62.294 80.5751 61.8669 80.1623C61.4398 79.7351 60.8846 79.5216 60.2012 79.5216Z" fill="#828282"/>
<path d="M78.1622 72.9012V88.2561H75.5567L75.4286 86.27C75.1154 86.9392 74.6456 87.4731 74.0191 87.8717C73.4069 88.2704 72.7022 88.4697 71.9049 88.4697C70.4811 88.4697 69.3635 87.9856 68.552 87.0175C67.7405 86.0351 67.3347 84.6755 67.3347 82.9385C67.3347 81.1873 67.7405 79.8206 68.552 78.8382C69.3635 77.8558 70.4811 77.3646 71.9049 77.3646C72.6737 77.3646 73.3428 77.5426 73.9123 77.8985C74.4818 78.2402 74.9232 78.7172 75.2364 79.3294V72.9012H78.1622ZM72.7591 86.2273C73.5279 86.2273 74.133 85.9497 74.5744 85.3945C75.0157 84.8392 75.2364 84.049 75.2364 83.0239V82.8104C75.2364 81.7995 75.0157 81.0165 74.5744 80.4612C74.133 79.8917 73.5279 79.607 72.7591 79.607C71.9761 79.607 71.3639 79.8917 70.9225 80.4612C70.4811 81.0307 70.2605 81.8494 70.2605 82.9172C70.2605 83.985 70.4811 84.8036 70.9225 85.3731C71.3639 85.9426 71.9761 86.2273 72.7591 86.2273Z" fill="#828282"/>
<path d="M91.4008 77.5782V88.2561H88.7954L88.6886 86.4195C88.0052 87.7863 86.7595 88.4697 84.9513 88.4697C83.7981 88.4697 82.8798 88.1636 82.1964 87.5514C81.5273 86.925 81.1927 85.9568 81.1927 84.647V77.5782H84.1185V83.8995C84.1185 84.7253 84.2751 85.309 84.5883 85.6507C84.9015 85.9924 85.3642 86.1633 85.9764 86.1633C86.7168 86.1633 87.3147 85.9283 87.7703 85.4585C88.2402 84.9744 88.4751 84.2555 88.4751 83.3016V77.5782H91.4008Z" fill="#828282"/>
<path d="M99.3696 77.3646C100.779 77.3646 101.875 77.6494 102.658 78.2189C103.441 78.7883 103.975 79.55 104.26 80.5039L101.527 81.4863C101.27 80.1907 100.58 79.5429 99.455 79.5429C98.615 79.5429 97.9672 79.8348 97.5116 80.4185C97.0703 80.988 96.8496 81.828 96.8496 82.9385C96.8496 84.049 97.0774 84.889 97.533 85.4585C97.9886 86.0138 98.6221 86.2914 99.4337 86.2914C100.687 86.2914 101.427 85.6578 101.655 84.3907L104.303 85.245C104.075 86.2273 103.541 87.0104 102.701 87.5941C101.875 88.1778 100.8 88.4697 99.4764 88.4697C97.711 88.4697 96.3442 87.9856 95.376 87.0175C94.4079 86.0351 93.9238 84.6684 93.9238 82.9172C93.9238 81.166 94.4008 79.8063 95.3547 78.8382C96.3228 77.8558 97.6611 77.3646 99.3696 77.3646Z" fill="#828282"/>
<path d="M116.397 86.4836C116.696 86.4836 116.938 86.4551 117.124 86.3982L116.91 88.1707C116.511 88.37 116.049 88.4697 115.522 88.4697C114.155 88.4697 113.336 87.9358 113.066 86.868C112.753 87.3948 112.269 87.7934 111.614 88.0639C110.959 88.3344 110.183 88.4697 109.286 88.4697C108.247 88.4697 107.435 88.2348 106.851 87.765C106.268 87.2951 105.976 86.6189 105.976 85.7361C105.976 83.9992 107.364 82.8745 110.14 82.3619L112.703 81.8707V81.3582C112.703 80.7887 112.539 80.3402 112.212 80.0128C111.898 79.6711 111.457 79.5002 110.888 79.5002C110.233 79.5002 109.699 79.6426 109.286 79.9273C108.873 80.2121 108.588 80.6748 108.432 81.3155L106.104 80.3331C106.332 79.4077 106.844 78.6816 107.642 78.1548C108.439 77.628 109.478 77.3646 110.759 77.3646C112.283 77.3646 113.472 77.6992 114.326 78.3683C115.18 79.0233 115.607 79.9985 115.607 81.2941V85.6721C115.607 85.9568 115.671 86.1633 115.799 86.2914C115.928 86.4195 116.127 86.4836 116.397 86.4836ZM110.204 86.4836C110.831 86.4836 111.4 86.3341 111.913 86.0351C112.439 85.7219 112.703 85.3019 112.703 84.7751V83.6646L110.418 84.1772C109.934 84.2911 109.571 84.4477 109.329 84.647C109.101 84.8321 108.987 85.0955 108.987 85.4372C108.987 85.7789 109.094 86.0422 109.307 86.2273C109.521 86.3982 109.82 86.4836 110.204 86.4836Z" fill="#828282"/>
<path d="M125.809 87.5941C125.467 87.8646 125.033 88.0782 124.506 88.2348C123.993 88.3914 123.452 88.4697 122.883 88.4697C120.505 88.4697 119.317 87.3948 119.317 85.245V79.7565H117.373V77.5782H119.317V75.1222L122.242 74.3107V77.5782H125.702V79.7565H122.242V84.7751C122.242 85.7575 122.733 86.2487 123.716 86.2487C124.342 86.2487 124.89 86.0494 125.36 85.6507L125.809 87.5941Z" fill="#828282"/>
<path d="M129.113 76.0406C127.903 76.0406 127.298 75.5209 127.298 74.4816C127.298 73.428 127.903 72.9012 129.113 72.9012C130.323 72.9012 130.928 73.428 130.928 74.4816C130.928 75.5209 130.323 76.0406 129.113 76.0406ZM130.565 88.2561H127.639V77.5782H130.565V88.2561Z" fill="#828282"/>
<path d="M138.578 77.3646C140.301 77.3646 141.639 77.8558 142.593 78.8382C143.561 79.8206 144.045 81.1802 144.045 82.9172C144.045 84.6541 143.561 86.0138 142.593 86.9961C141.639 87.9785 140.301 88.4697 138.578 88.4697C136.856 88.4697 135.51 87.9785 134.542 86.9961C133.588 86.0138 133.111 84.6541 133.111 82.9172C133.111 81.1802 133.588 79.8206 134.542 78.8382C135.51 77.8558 136.856 77.3646 138.578 77.3646ZM138.578 79.5429C137.753 79.5429 137.119 79.8277 136.678 80.3972C136.25 80.9524 136.037 81.7924 136.037 82.9172C136.037 84.0419 136.25 84.889 136.678 85.4585C137.119 86.0138 137.753 86.2914 138.578 86.2914C139.404 86.2914 140.03 86.0138 140.458 85.4585C140.899 84.889 141.12 84.0419 141.12 82.9172C141.12 81.7924 140.899 80.9524 140.458 80.3972C140.03 79.8277 139.404 79.5429 138.578 79.5429Z" fill="#828282"/>
<path d="M152.919 77.3646C154.072 77.3646 154.998 77.6992 155.695 78.3683C156.407 79.0375 156.763 79.9985 156.763 81.2514V88.2561H153.837V82.1056C153.837 80.4826 153.204 79.6711 151.937 79.6711C151.253 79.6711 150.67 79.9131 150.186 80.3972C149.716 80.8812 149.481 81.6216 149.481 82.6182V88.2561H146.555V77.5782H149.182L149.267 79.4789C149.623 78.7812 150.114 78.2544 150.741 77.8985C151.367 77.5426 152.093 77.3646 152.919 77.3646Z" fill="#828282"/>
<path d="M169.621 77.5782H172.996V79.7565H169.749V88.2561H166.824V79.7565H164.966V77.5782H166.824V76.2968C166.824 75.1294 167.187 74.2395 167.913 73.6273C168.639 73.0009 169.621 72.6877 170.86 72.6877C171.33 72.6877 171.757 72.7375 172.141 72.8372C172.54 72.9368 172.853 73.0721 173.081 73.2429L172.675 75.1863C172.348 74.9728 171.942 74.866 171.458 74.866C170.233 74.866 169.621 75.4141 169.621 76.5104V77.5782Z" fill="#828282"/>
<path d="M179.476 77.3646C181.198 77.3646 182.537 77.8558 183.491 78.8382C184.459 79.8206 184.943 81.1802 184.943 82.9172C184.943 84.6541 184.459 86.0138 183.491 86.9961C182.537 87.9785 181.198 88.4697 179.476 88.4697C177.753 88.4697 176.408 87.9785 175.439 86.9961C174.486 86.0138 174.009 84.6541 174.009 82.9172C174.009 81.1802 174.486 79.8206 175.439 78.8382C176.408 77.8558 177.753 77.3646 179.476 77.3646ZM179.476 79.5429C178.65 79.5429 178.016 79.8277 177.575 80.3972C177.148 80.9524 176.934 81.7924 176.934 82.9172C176.934 84.0419 177.148 84.889 177.575 85.4585C178.016 86.0138 178.65 86.2914 179.476 86.2914C180.301 86.2914 180.928 86.0138 181.355 85.4585C181.796 84.889 182.017 84.0419 182.017 82.9172C182.017 81.7924 181.796 80.9524 181.355 80.3972C180.928 79.8277 180.301 79.5429 179.476 79.5429Z" fill="#828282"/>
<path d="M193.496 77.3646C193.995 77.3646 194.379 77.4429 194.649 77.5995L194.286 80.1623C193.959 79.9487 193.51 79.8419 192.941 79.8419C192.243 79.8419 191.638 80.0982 191.126 80.6107C190.627 81.109 190.378 81.8138 190.378 82.725V88.2561H187.452V77.5782H189.994L190.186 79.6711C190.77 78.1334 191.873 77.3646 193.496 77.3646Z" fill="#828282"/>
<path d="M208.196 88.9182C207.669 90.3704 207.057 91.3884 206.36 91.9721C205.676 92.5558 204.758 92.8477 203.605 92.8477C202.452 92.8477 201.547 92.57 200.893 92.0148L201.619 89.9433C201.846 90.1995 202.096 90.3704 202.366 90.4558C202.651 90.5555 203 90.6053 203.413 90.6053C203.854 90.6053 204.21 90.5128 204.48 90.3277C204.751 90.1426 204.979 89.808 205.164 89.3239L205.548 88.4056L204.374 85.6294L201.106 77.5782H204.352L206.36 83.985L206.936 86.1205L207.577 83.8568L209.542 77.5782H212.51L208.196 88.9182Z" fill="#828282"/>
<path d="M218.934 77.3646C220.657 77.3646 221.995 77.8558 222.949 78.8382C223.917 79.8206 224.401 81.1802 224.401 82.9172C224.401 84.6541 223.917 86.0138 222.949 86.9961C221.995 87.9785 220.657 88.4697 218.934 88.4697C217.211 88.4697 215.866 87.9785 214.898 86.9961C213.944 86.0138 213.467 84.6541 213.467 82.9172C213.467 81.1802 213.944 79.8206 214.898 78.8382C215.866 77.8558 217.211 77.3646 218.934 77.3646ZM218.934 79.5429C218.108 79.5429 217.475 79.8277 217.033 80.3972C216.606 80.9524 216.393 81.7924 216.393 82.9172C216.393 84.0419 216.606 84.889 217.033 85.4585C217.475 86.0138 218.108 86.2914 218.934 86.2914C219.76 86.2914 220.386 86.0138 220.813 85.4585C221.255 84.889 221.476 84.0419 221.476 82.9172C221.476 81.7924 221.255 80.9524 220.813 80.3972C220.386 79.8277 219.76 79.5429 218.934 79.5429Z" fill="#828282"/>
<path d="M237.055 77.5782V88.2561H234.45L234.343 86.4195C233.659 87.7863 232.414 88.4697 230.605 88.4697C229.452 88.4697 228.534 88.1636 227.851 87.5514C227.181 86.925 226.847 85.9568 226.847 84.647V77.5782H229.773V83.8995C229.773 84.7253 229.929 85.309 230.242 85.6507C230.556 85.9924 231.018 86.1633 231.631 86.1633C232.371 86.1633 232.969 85.9283 233.424 85.4585C233.894 84.9744 234.129 84.2555 234.129 83.3016V77.5782H237.055Z" fill="#828282"/>
<path d="M247.458 87.5941C247.117 87.8646 246.682 88.0782 246.156 88.2348C245.643 88.3914 245.102 88.4697 244.533 88.4697C242.155 88.4697 240.966 87.3948 240.966 85.245V79.7565H239.023V77.5782H240.966V75.1222L243.892 74.3107V77.5782H247.352V79.7565H243.892V84.7751C243.892 85.7575 244.383 86.2487 245.365 86.2487C245.992 86.2487 246.54 86.0494 247.01 85.6507L247.458 87.5941Z" fill="#828282"/>
<path d="M255.82 77.3646C256.973 77.3646 257.898 77.6992 258.596 78.3683C259.308 79.0375 259.664 79.9985 259.664 81.2514V88.2561H256.738V82.1056C256.738 80.4826 256.104 79.6711 254.837 79.6711C254.154 79.6711 253.57 79.9131 253.086 80.3972C252.616 80.8812 252.381 81.6216 252.381 82.6182V88.2561H249.456V72.9012H252.381V79.3934C252.709 78.71 253.164 78.2046 253.748 77.8772C254.346 77.5355 255.037 77.3646 255.82 77.3646Z" fill="#828282"/>
<path d="M106.283 111.844C106.582 111.844 106.824 111.815 107.009 111.758L106.795 113.531C106.396 113.73 105.934 113.83 105.407 113.83C104.04 113.83 103.222 113.296 102.951 112.228C102.638 112.755 102.154 113.154 101.499 113.424C100.844 113.695 100.068 113.83 99.1711 113.83C98.1317 113.83 97.3202 113.595 96.7365 113.125C96.1528 112.655 95.8609 111.979 95.8609 111.096C95.8609 109.359 97.249 108.235 100.025 107.722L102.588 107.231V106.718C102.588 106.149 102.424 105.7 102.097 105.373C101.784 105.031 101.342 104.86 100.773 104.86C100.118 104.86 99.5839 105.003 99.1711 105.287C98.7582 105.572 98.4734 106.035 98.3168 106.676L95.989 105.693C96.2168 104.768 96.7294 104.042 97.5267 103.515C98.3239 102.988 99.3633 102.725 100.645 102.725C102.168 102.725 103.357 103.059 104.211 103.729C105.065 104.383 105.492 105.359 105.492 106.654V111.032C105.492 111.317 105.556 111.523 105.685 111.652C105.813 111.78 106.012 111.844 106.283 111.844ZM100.089 111.844C100.716 111.844 101.285 111.694 101.798 111.395C102.325 111.082 102.588 110.662 102.588 110.135V109.025L100.303 109.537C99.8189 109.651 99.4558 109.808 99.2138 110.007C98.986 110.192 98.8721 110.456 98.8721 110.797C98.8721 111.139 98.9789 111.402 99.1924 111.588C99.406 111.758 99.705 111.844 100.089 111.844Z" fill="#828282"/>
<path d="M115.341 111.609C116.508 111.609 117.405 111.865 118.032 112.378C118.672 112.89 118.993 113.623 118.993 114.577C118.993 115.716 118.466 116.606 117.412 117.247C116.359 117.888 114.971 118.208 113.248 118.208C111.468 118.208 110.144 117.973 109.276 117.503C108.421 117.033 107.994 116.393 107.994 115.581C107.994 115.097 108.158 114.677 108.485 114.321C108.813 113.965 109.297 113.709 109.938 113.552C109.454 113.353 109.069 113.075 108.784 112.719C108.5 112.349 108.357 111.915 108.357 111.417C108.357 110.904 108.507 110.463 108.806 110.093C109.105 109.722 109.518 109.445 110.044 109.26C109.503 108.946 109.091 108.548 108.806 108.064C108.521 107.565 108.379 106.996 108.379 106.355C108.379 105.231 108.813 104.348 109.681 103.707C110.564 103.052 111.76 102.725 113.269 102.725C114.038 102.725 114.757 102.817 115.426 103.002C115.611 102.162 115.967 101.508 116.494 101.038C117.035 100.554 117.761 100.34 118.672 100.397L119.057 102.49C118.957 102.476 118.807 102.469 118.608 102.469C118.081 102.469 117.64 102.561 117.284 102.746C116.942 102.931 116.7 103.18 116.558 103.494C117.085 103.807 117.483 104.205 117.754 104.69C118.039 105.174 118.181 105.729 118.181 106.355C118.181 107.466 117.74 108.349 116.857 109.003C115.988 109.644 114.793 109.964 113.269 109.964C112.572 109.964 111.931 109.9 111.347 109.772C110.792 109.915 110.514 110.235 110.514 110.733C110.514 111.018 110.621 111.239 110.835 111.395C111.048 111.538 111.347 111.609 111.732 111.609H115.341ZM113.269 104.561C112.7 104.561 112.23 104.725 111.86 105.053C111.504 105.38 111.326 105.807 111.326 106.334C111.326 106.875 111.504 107.309 111.86 107.637C112.23 107.964 112.7 108.128 113.269 108.128C113.853 108.128 114.323 107.964 114.679 107.637C115.049 107.309 115.234 106.875 115.234 106.334C115.234 105.807 115.049 105.38 114.679 105.053C114.323 104.725 113.853 104.561 113.269 104.561ZM113.483 116.2C114.479 116.2 115.248 116.072 115.789 115.816C116.33 115.574 116.601 115.261 116.601 114.876C116.601 114.577 116.473 114.35 116.216 114.193C115.974 114.051 115.568 113.979 114.999 113.979H112.095C110.913 113.979 110.322 114.3 110.322 114.94C110.322 115.339 110.585 115.645 111.112 115.859C111.639 116.086 112.429 116.2 113.483 116.2Z" fill="#828282"/>
<path d="M130.772 108.235C130.772 108.633 130.743 109.018 130.686 109.388H123.126C123.425 110.897 124.315 111.652 125.796 111.652C126.408 111.652 126.914 111.538 127.312 111.31C127.711 111.082 127.988 110.755 128.145 110.327L130.537 111.203C130.195 112.057 129.619 112.712 128.807 113.168C128.01 113.609 127.006 113.83 125.796 113.83C124.03 113.83 122.664 113.346 121.696 112.378C120.727 111.395 120.243 110.029 120.243 108.277C120.243 106.526 120.713 105.166 121.653 104.198C122.593 103.216 123.917 102.725 125.625 102.725C127.277 102.725 128.544 103.202 129.426 104.156C130.323 105.11 130.772 106.469 130.772 108.235ZM125.604 104.882C124.892 104.882 124.322 105.088 123.895 105.501C123.482 105.914 123.219 106.526 123.105 107.338H128.081C127.967 106.54 127.697 105.935 127.269 105.522C126.842 105.095 126.287 104.882 125.604 104.882Z" fill="#828282"/>
<path d="M137.371 113.83C134.994 113.83 133.342 113.146 132.417 111.78L134.125 110.029C134.41 110.641 134.816 111.075 135.343 111.331C135.884 111.573 136.546 111.694 137.329 111.694C137.955 111.694 138.439 111.609 138.781 111.438C139.123 111.267 139.294 111.032 139.294 110.733C139.294 110.491 139.13 110.285 138.802 110.114C138.489 109.943 137.941 109.779 137.158 109.623C135.521 109.295 134.367 108.868 133.698 108.341C133.043 107.8 132.716 107.074 132.716 106.163C132.716 105.565 132.901 105.003 133.271 104.476C133.641 103.949 134.189 103.529 134.916 103.216C135.642 102.889 136.51 102.725 137.521 102.725C138.717 102.725 139.685 102.91 140.425 103.28C141.166 103.636 141.785 104.205 142.283 104.989L140.468 106.526C140.155 105.957 139.763 105.537 139.294 105.266C138.838 104.996 138.261 104.86 137.564 104.86C136.98 104.86 136.51 104.96 136.154 105.159C135.813 105.359 135.642 105.601 135.642 105.885C135.642 106.184 135.813 106.434 136.154 106.633C136.496 106.832 137.101 107.017 137.969 107.188C139.521 107.501 140.618 107.914 141.258 108.427C141.913 108.925 142.241 109.623 142.241 110.52C142.241 111.516 141.814 112.321 140.959 112.933C140.119 113.531 138.923 113.83 137.371 113.83Z" fill="#828282"/>
<path d="M155.907 99.3078C157.729 99.3078 159.131 99.9485 160.114 101.23C161.11 102.497 161.609 104.291 161.609 106.612C161.609 109.032 161.11 110.84 160.114 112.036C159.117 113.232 157.693 113.83 155.843 113.83C154.547 113.83 153.479 113.574 152.639 113.061C151.813 112.549 151.187 111.765 150.76 110.712L153.472 109.559C153.643 110.199 153.899 110.683 154.241 111.011C154.597 111.324 155.138 111.481 155.864 111.481C156.932 111.481 157.708 111.068 158.192 110.242C158.69 109.416 158.939 108.228 158.939 106.676V106.377H158.854C158.669 107.103 158.242 107.644 157.572 108C156.903 108.356 156.142 108.534 155.287 108.534C154.405 108.534 153.614 108.349 152.917 107.978C152.219 107.608 151.664 107.081 151.251 106.398C150.852 105.715 150.653 104.917 150.653 104.006C150.653 102.554 151.116 101.408 152.041 100.568C152.981 99.7278 154.269 99.3078 155.907 99.3078ZM155.864 101.721C155.095 101.721 154.504 101.92 154.091 102.319C153.678 102.718 153.472 103.28 153.472 104.006C153.472 104.718 153.678 105.273 154.091 105.672C154.504 106.071 155.095 106.27 155.864 106.27C156.59 106.27 157.167 106.063 157.594 105.651C158.035 105.238 158.256 104.69 158.256 104.006C158.256 103.309 158.035 102.753 157.594 102.34C157.167 101.928 156.59 101.721 155.864 101.721Z" fill="#828282"/>
<path d="M177.906 112.954C177.564 113.225 177.13 113.438 176.603 113.595C176.09 113.752 175.549 113.83 174.98 113.83C172.602 113.83 171.413 112.755 171.413 110.605V105.117H169.47V102.938H171.413V100.482L174.339 99.6709V102.938H177.799V105.117H174.339V110.135C174.339 111.118 174.83 111.609 175.813 111.609C176.439 111.609 176.987 111.41 177.457 111.011L177.906 112.954Z" fill="#828282"/>
<path d="M184.648 102.725C186.371 102.725 187.709 103.216 188.663 104.198C189.631 105.181 190.115 106.54 190.115 108.277C190.115 110.014 189.631 111.374 188.663 112.356C187.709 113.339 186.371 113.83 184.648 113.83C182.925 113.83 181.58 113.339 180.612 112.356C179.658 111.374 179.181 110.014 179.181 108.277C179.181 106.54 179.658 105.181 180.612 104.198C181.58 103.216 182.925 102.725 184.648 102.725ZM184.648 104.903C183.822 104.903 183.189 105.188 182.747 105.757C182.32 106.313 182.106 107.153 182.106 108.277C182.106 109.402 182.32 110.249 182.747 110.819C183.189 111.374 183.822 111.652 184.648 111.652C185.474 111.652 186.1 111.374 186.527 110.819C186.969 110.249 187.189 109.402 187.189 108.277C187.189 107.153 186.969 106.313 186.527 105.757C186.1 105.188 185.474 104.903 184.648 104.903Z" fill="#828282"/>
<path d="M204.69 99.5214V113.616H201.828V103.109C201.828 102.881 201.835 102.703 201.849 102.575C201.337 103.045 200.781 103.444 200.183 103.771C199.6 104.099 199.009 104.319 198.411 104.433L198.027 101.956C198.681 101.885 199.464 101.593 200.376 101.08C201.301 100.554 201.942 100.034 202.298 99.5214H204.69Z" fill="#828282"/>
<path d="M219.27 110.306H216.985V113.616H214.315V110.306H207.289V108.747L213.461 99.5214H216.985V108.171H219.27V110.306ZM210.13 108.171H214.315V103.857L214.379 101.55H214.337C214.024 102.276 213.596 103.052 213.055 103.878L210.13 108.171Z" fill="#828282"/>
<path d="M0.680664 163.283L315 0" stroke="#BDBDBD" stroke-width="2"/>
</g>
</svg>
