<svg width="315" height="164" viewBox="0 0 315 164" fill="none" xmlns="http://www.w3.org/2000/svg">
<path d="M2 2H313V77.6323V161.283H2V81.6415V2Z" fill="#F2F2F2" stroke="#333333" stroke-width="4"/>
<path d="M75.7556 56.1101V63.5633H73.5986L73.5345 61.8762C72.6803 63.1433 71.2922 63.7769 69.3701 63.7769C68.0745 63.7769 66.9356 63.4922 65.9532 62.9227C64.9708 62.3532 64.202 61.5274 63.6468 60.4454C63.1057 59.3491 62.8352 58.0464 62.8352 56.5372C62.8352 55.0423 63.1129 53.7467 63.6681 52.6505C64.2376 51.5542 65.0349 50.7142 66.06 50.1305C67.0993 49.5467 68.3095 49.2549 69.6905 49.2549C71.2139 49.2549 72.4525 49.5325 73.4064 50.0878C74.3745 50.643 75.1362 51.5186 75.6915 52.7145L72.9793 53.8891C72.7657 53.163 72.3742 52.6149 71.8047 52.2447C71.2495 51.8603 70.5732 51.6681 69.7759 51.6681C68.5515 51.6681 67.5976 52.0881 66.9142 52.9281C66.2308 53.7681 65.8891 54.964 65.8891 56.5159C65.8891 58.1247 66.2237 59.342 66.8929 60.1678C67.562 60.9935 68.5444 61.4064 69.84 61.4064C70.8366 61.4064 71.6481 61.1715 72.2745 60.7017C72.901 60.2176 73.2142 59.52 73.2142 58.6088V58.2884H69.0925V56.1101H75.7556Z" fill="#333333"/>
<path d="M88.4336 61.7908C88.7326 61.7908 88.9747 61.7623 89.1597 61.7054L88.9462 63.4779C88.5475 63.6772 88.0848 63.7769 87.5581 63.7769C86.1913 63.7769 85.3726 63.243 85.1021 62.1752C84.7889 62.702 84.3048 63.1006 83.6499 63.3711C82.995 63.6417 82.2191 63.7769 81.3221 63.7769C80.2828 63.7769 79.4713 63.542 78.8875 63.0722C78.3038 62.6023 78.012 61.9261 78.012 61.0433C78.012 59.3064 79.4001 58.1817 82.1764 57.6691L84.7391 57.1779V56.6654C84.7391 56.0959 84.5753 55.6474 84.2479 55.32C83.9347 54.9783 83.4933 54.8074 82.9238 54.8074C82.2689 54.8074 81.735 54.9498 81.3221 55.2345C80.9092 55.5193 80.6245 55.982 80.4679 56.6227L78.1401 55.6403C78.3679 54.7149 78.8804 53.9888 79.6777 53.462C80.475 52.9352 81.5143 52.6718 82.7957 52.6718C84.3191 52.6718 85.5079 53.0064 86.3621 53.6756C87.2164 54.3305 87.6435 55.3057 87.6435 56.6013V60.9793C87.6435 61.264 87.7075 61.4705 87.8357 61.5986C87.9638 61.7267 88.1631 61.7908 88.4336 61.7908ZM82.2404 61.7908C82.8669 61.7908 83.4364 61.6413 83.9489 61.3423C84.4757 61.0291 84.7391 60.6091 84.7391 60.0823V58.9718L82.454 59.4844C81.9699 59.5983 81.6069 59.7549 81.3648 59.9542C81.137 60.1393 81.0231 60.4027 81.0231 60.7444C81.0231 61.0861 81.1299 61.3494 81.3435 61.5345C81.557 61.7054 81.856 61.7908 82.2404 61.7908Z" fill="#333333"/>
<path d="M104.306 52.6718C105.402 52.6718 106.306 53.0064 107.018 53.6756C107.744 54.3447 108.107 55.3057 108.107 56.5586V63.5633H105.181V57.1352C105.181 56.3949 105.018 55.8539 104.69 55.5122C104.363 55.1562 103.914 54.9783 103.345 54.9783C102.661 54.9783 102.099 55.2274 101.658 55.7257C101.216 56.224 100.996 56.9217 100.996 57.8186V63.5633H98.0698V57.1352C98.0698 56.3949 97.9061 55.8539 97.5787 55.5122C97.2512 55.1562 96.7956 54.9783 96.2119 54.9783C95.5712 54.9783 95.0159 55.2274 94.5461 55.7257C94.0905 56.2098 93.8627 56.9359 93.8627 57.904V63.5633H90.937V52.8854H93.5637L93.6492 54.7861C94.0051 54.0884 94.4892 53.5617 95.1014 53.2057C95.7278 52.8498 96.4254 52.6718 97.1943 52.6718C97.9915 52.6718 98.6963 52.8569 99.3085 53.2271C99.9349 53.5972 100.391 54.1311 100.675 54.8288C101.017 54.1311 101.515 53.5972 102.17 53.2271C102.825 52.8569 103.537 52.6718 104.306 52.6718Z" fill="#333333"/>
<path d="M112.599 51.3478C111.388 51.3478 110.783 50.8281 110.783 49.7888C110.783 48.7352 111.388 48.2084 112.599 48.2084C113.809 48.2084 114.414 48.7352 114.414 49.7888C114.414 50.8281 113.809 51.3478 112.599 51.3478ZM114.051 63.5633H111.125V52.8854H114.051V63.5633Z" fill="#333333"/>
<path d="M120.719 52.8854H124.093V55.0637H120.847V63.5633H117.921V55.0637H116.063V52.8854H117.921V51.604C117.921 50.4366 118.284 49.5467 119.01 48.9345C119.736 48.3081 120.719 47.9949 121.957 47.9949C122.427 47.9949 122.854 48.0447 123.239 48.1444C123.637 48.244 123.951 48.3793 124.178 48.5501L123.773 50.4935C123.445 50.28 123.039 50.1732 122.555 50.1732C121.331 50.1732 120.719 50.7213 120.719 51.8176V52.8854ZM127.318 51.3478C126.107 51.3478 125.502 50.8281 125.502 49.7888C125.502 48.7352 126.107 48.2084 127.318 48.2084C128.528 48.2084 129.133 48.7352 129.133 49.7888C129.133 50.8281 128.528 51.3478 127.318 51.3478ZM128.77 63.5633H125.844V52.8854H128.77V63.5633Z" fill="#333333"/>
<path d="M141.849 58.1817C141.849 58.5803 141.821 58.9647 141.764 59.3349H134.204C134.503 60.844 135.393 61.5986 136.873 61.5986C137.486 61.5986 137.991 61.4847 138.39 61.2569C138.788 61.0291 139.066 60.7017 139.223 60.2745L141.614 61.1501C141.273 62.0044 140.696 62.6593 139.885 63.1149C139.087 63.5562 138.084 63.7769 136.873 63.7769C135.108 63.7769 133.741 63.2928 132.773 62.3247C131.805 61.3423 131.321 59.9756 131.321 58.2244C131.321 56.4732 131.791 55.1135 132.73 54.1454C133.67 53.163 134.994 52.6718 136.703 52.6718C138.354 52.6718 139.621 53.1488 140.504 54.1027C141.401 55.0566 141.849 56.4162 141.849 58.1817ZM136.681 54.8288C135.969 54.8288 135.4 55.0352 134.973 55.4481C134.56 55.861 134.296 56.4732 134.183 57.2847H139.158C139.045 56.4874 138.774 55.8823 138.347 55.4694C137.92 55.0423 137.365 54.8288 136.681 54.8288Z" fill="#333333"/>
<path d="M154.642 48.2084V63.5633H152.037L151.909 61.5772C151.595 62.2464 151.126 62.7803 150.499 63.1789C149.887 63.5776 149.182 63.7769 148.385 63.7769C146.961 63.7769 145.844 63.2928 145.032 62.3247C144.221 61.3423 143.815 59.9827 143.815 58.2457C143.815 56.4945 144.221 55.1278 145.032 54.1454C145.844 53.163 146.961 52.6718 148.385 52.6718C149.154 52.6718 149.823 52.8498 150.392 53.2057C150.962 53.5474 151.403 54.0244 151.716 54.6366V48.2084H154.642ZM149.239 61.5345C150.008 61.5345 150.613 61.2569 151.054 60.7017C151.496 60.1464 151.716 59.3562 151.716 58.3311V58.1176C151.716 57.1067 151.496 56.3237 151.054 55.7684C150.613 55.1989 150.008 54.9142 149.239 54.9142C148.456 54.9142 147.844 55.1989 147.403 55.7684C146.961 56.3379 146.741 57.1566 146.741 58.2244C146.741 59.2922 146.961 60.1108 147.403 60.6803C147.844 61.2498 148.456 61.5345 149.239 61.5345Z" fill="#333333"/>
<path d="M170.629 52.6718C171.782 52.6718 172.707 53.0064 173.405 53.6756C174.117 54.3447 174.473 55.3057 174.473 56.5586V63.5633H171.547V57.4128C171.547 55.7898 170.913 54.9783 169.646 54.9783C168.963 54.9783 168.379 55.2203 167.895 55.7044C167.425 56.1884 167.19 56.9288 167.19 57.9254V63.5633H164.265V52.8854H166.891L166.977 54.7861C167.333 54.0884 167.824 53.5617 168.45 53.2057C169.077 52.8498 169.803 52.6718 170.629 52.6718Z" fill="#333333"/>
<path d="M187.631 52.8854V63.5633H185.026L184.919 61.7267C184.235 63.0935 182.99 63.7769 181.181 63.7769C180.028 63.7769 179.11 63.4708 178.427 62.8586C177.757 62.2322 177.423 61.264 177.423 59.9542V52.8854H180.349V59.2067C180.349 60.0325 180.505 60.6162 180.818 60.9579C181.132 61.2996 181.594 61.4705 182.207 61.4705C182.947 61.4705 183.545 61.2355 184 60.7657C184.47 60.2817 184.705 59.5627 184.705 58.6088V52.8854H187.631Z" fill="#333333"/>
<path d="M198.034 62.9013C197.693 63.1718 197.258 63.3854 196.732 63.542C196.219 63.6986 195.678 63.7769 195.109 63.7769C192.731 63.7769 191.542 62.702 191.542 60.5522V55.0637H189.599V52.8854H191.542V50.4294L194.468 49.6179V52.8854H197.928V55.0637H194.468V60.0823C194.468 61.0647 194.959 61.5559 195.941 61.5559C196.568 61.5559 197.116 61.3566 197.586 60.9579L198.034 62.9013Z" fill="#333333"/>
<path d="M205.908 52.6718C206.407 52.6718 206.791 52.7501 207.062 52.9067L206.699 55.4694C206.371 55.2559 205.923 55.1491 205.353 55.1491C204.656 55.1491 204.05 55.4054 203.538 55.9179C203.04 56.4162 202.79 57.121 202.79 58.0322V63.5633H199.865V52.8854H202.406L202.598 54.9783C203.182 53.4406 204.285 52.6718 205.908 52.6718Z" fill="#333333"/>
<path d="M210.348 51.3478C209.138 51.3478 208.533 50.8281 208.533 49.7888C208.533 48.7352 209.138 48.2084 210.348 48.2084C211.558 48.2084 212.163 48.7352 212.163 49.7888C212.163 50.8281 211.558 51.3478 210.348 51.3478ZM211.8 63.5633H208.874V52.8854H211.8V63.5633Z" fill="#333333"/>
<path d="M222.227 62.9013C221.885 63.1718 221.451 63.3854 220.924 63.542C220.411 63.6986 219.87 63.7769 219.301 63.7769C216.923 63.7769 215.734 62.702 215.734 60.5522V55.0637H213.791V52.8854H215.734V50.4294L218.66 49.6179V52.8854H222.12V55.0637H218.66V60.0823C218.66 61.0647 219.151 61.5559 220.134 61.5559C220.76 61.5559 221.308 61.3566 221.778 60.9579L222.227 62.9013Z" fill="#333333"/>
<path d="M225.531 51.3478C224.32 51.3478 223.715 50.8281 223.715 49.7888C223.715 48.7352 224.32 48.2084 225.531 48.2084C226.741 48.2084 227.346 48.7352 227.346 49.7888C227.346 50.8281 226.741 51.3478 225.531 51.3478ZM226.983 63.5633H224.057V52.8854H226.983V63.5633Z" fill="#333333"/>
<path d="M234.996 52.6718C236.719 52.6718 238.057 53.163 239.011 54.1454C239.979 55.1278 240.463 56.4874 240.463 58.2244C240.463 59.9613 239.979 61.321 239.011 62.3033C238.057 63.2857 236.719 63.7769 234.996 63.7769C233.273 63.7769 231.928 63.2857 230.96 62.3033C230.006 61.321 229.529 59.9613 229.529 58.2244C229.529 56.4874 230.006 55.1278 230.96 54.1454C231.928 53.163 233.273 52.6718 234.996 52.6718ZM234.996 54.8501C234.17 54.8501 233.537 55.1349 233.095 55.7044C232.668 56.2596 232.455 57.0996 232.455 58.2244C232.455 59.3491 232.668 60.1962 233.095 60.7657C233.537 61.321 234.17 61.5986 234.996 61.5986C235.822 61.5986 236.448 61.321 236.875 60.7657C237.317 60.1962 237.537 59.3491 237.537 58.2244C237.537 57.0996 237.317 56.2596 236.875 55.7044C236.448 55.1349 235.822 54.8501 234.996 54.8501Z" fill="#333333"/>
<path d="M249.337 52.6718C250.49 52.6718 251.416 53.0064 252.113 53.6756C252.825 54.3447 253.181 55.3057 253.181 56.5586V63.5633H250.255V57.4128C250.255 55.7898 249.622 54.9783 248.355 54.9783C247.671 54.9783 247.087 55.2203 246.603 55.7044C246.134 56.1884 245.899 56.9288 245.899 57.9254V63.5633H242.973V52.8854H245.6L245.685 54.7861C246.041 54.0884 246.532 53.5617 247.159 53.2057C247.785 52.8498 248.511 52.6718 249.337 52.6718Z" fill="#333333"/>
<path d="M63.1723 82.8744C63.1723 83.2731 63.1439 83.6575 63.0869 84.0277H55.5269C55.8259 85.5368 56.7157 86.2914 58.1964 86.2914C58.8086 86.2914 59.314 86.1775 59.7127 85.9497C60.1113 85.7219 60.3889 85.3944 60.5455 84.9673L62.9374 85.8429C62.5957 86.6972 62.0191 87.3521 61.2076 87.8077C60.4103 88.249 59.4066 88.4697 58.1964 88.4697C56.431 88.4697 55.0642 87.9856 54.0961 87.0175C53.1279 86.0351 52.6439 84.6683 52.6439 82.9172C52.6439 81.166 53.1137 79.8063 54.0533 78.8382C54.993 77.8558 56.3171 77.3646 58.0256 77.3646C59.6771 77.3646 60.9442 77.8416 61.8269 78.7955C62.7239 79.7494 63.1723 81.109 63.1723 82.8744ZM58.0042 79.5216C57.2923 79.5216 56.7228 79.728 56.2957 80.1409C55.8828 80.5538 55.6194 81.166 55.5056 81.9775H60.4815C60.3676 81.1802 60.0971 80.5751 59.67 80.1622C59.2428 79.7351 58.6876 79.5216 58.0042 79.5216Z" fill="#333333"/>
<path d="M75.9652 72.9012V88.2561H73.3598L73.2316 86.27C72.9184 86.9392 72.4486 87.4731 71.8222 87.8717C71.2099 88.2704 70.5052 88.4697 69.7079 88.4697C68.2842 88.4697 67.1666 87.9856 66.355 87.0175C65.5435 86.0351 65.1377 84.6755 65.1377 82.9385C65.1377 81.1873 65.5435 79.8206 66.355 78.8382C67.1666 77.8558 68.2842 77.3646 69.7079 77.3646C70.4767 77.3646 71.1459 77.5426 71.7154 77.8985C72.2849 78.2402 72.7262 78.7172 73.0394 79.3294V72.9012H75.9652ZM70.5621 86.2273C71.331 86.2273 71.9361 85.9497 72.3774 85.3944C72.8188 84.8392 73.0394 84.049 73.0394 83.0239V82.8104C73.0394 81.7995 72.8188 81.0165 72.3774 80.4612C71.9361 79.8917 71.331 79.607 70.5621 79.607C69.7791 79.607 69.1669 79.8917 68.7255 80.4612C68.2842 81.0307 68.0635 81.8494 68.0635 82.9172C68.0635 83.985 68.2842 84.8036 68.7255 85.3731C69.1669 85.9426 69.7791 86.2273 70.5621 86.2273Z" fill="#333333"/>
<path d="M89.2039 77.5782V88.2561H86.5984L86.4917 86.4195C85.8083 87.7863 84.5625 88.4697 82.7544 88.4697C81.6012 88.4697 80.6829 88.1636 79.9995 87.5514C79.3303 86.925 78.9957 85.9568 78.9957 84.647V77.5782H81.9215V83.8995C81.9215 84.7253 82.0781 85.309 82.3913 85.6507C82.7046 85.9924 83.1673 86.1633 83.7795 86.1633C84.5198 86.1633 85.1178 85.9283 85.5734 85.4585C86.0432 84.9744 86.2781 84.2555 86.2781 83.3016V77.5782H89.2039Z" fill="#333333"/>
<path d="M97.1726 77.3646C98.5821 77.3646 99.6784 77.6494 100.461 78.2189C101.245 78.7883 101.778 79.55 102.063 80.5039L99.3296 81.4863C99.0733 80.1907 98.3828 79.5429 97.2581 79.5429C96.4181 79.5429 95.7703 79.8348 95.3147 80.4185C94.8733 80.988 94.6526 81.828 94.6526 82.9385C94.6526 84.049 94.8804 84.889 95.336 85.4585C95.7916 86.0138 96.4252 86.2914 97.2367 86.2914C98.4896 86.2914 99.2299 85.6578 99.4577 84.3907L102.106 85.245C101.878 86.2273 101.344 87.0104 100.504 87.5941C99.6784 88.1778 98.6035 88.4697 97.2794 88.4697C95.514 88.4697 94.1472 87.9856 93.1791 87.0175C92.2109 86.0351 91.7269 84.6683 91.7269 82.9172C91.7269 81.166 92.2038 79.8063 93.1577 78.8382C94.1259 77.8558 95.4642 77.3646 97.1726 77.3646Z" fill="#333333"/>
<path d="M114.2 86.4836C114.499 86.4836 114.742 86.4551 114.927 86.3982L114.713 88.1707C114.314 88.37 113.852 88.4697 113.325 88.4697C111.958 88.4697 111.139 87.9358 110.869 86.868C110.556 87.3948 110.072 87.7934 109.417 88.0639C108.762 88.3344 107.986 88.4697 107.089 88.4697C106.05 88.4697 105.238 88.2348 104.654 87.765C104.071 87.2951 103.779 86.6189 103.779 85.7361C103.779 83.9992 105.167 82.8744 107.943 82.3619L110.506 81.8707V81.3582C110.506 80.7887 110.342 80.3402 110.015 80.0127C109.702 79.6711 109.26 79.5002 108.691 79.5002C108.036 79.5002 107.502 79.6426 107.089 79.9273C106.676 80.2121 106.391 80.6748 106.235 81.3155L103.907 80.3331C104.135 79.4077 104.647 78.6816 105.445 78.1548C106.242 77.628 107.281 77.3646 108.563 77.3646C110.086 77.3646 111.275 77.6992 112.129 78.3683C112.983 79.0233 113.41 79.9985 113.41 81.2941V85.6721C113.41 85.9568 113.474 86.1633 113.603 86.2914C113.731 86.4195 113.93 86.4836 114.2 86.4836ZM108.007 86.4836C108.634 86.4836 109.203 86.3341 109.716 86.0351C110.243 85.7219 110.506 85.3019 110.506 84.7751V83.6646L108.221 84.1772C107.737 84.2911 107.374 84.4477 107.132 84.647C106.904 84.8321 106.79 85.0955 106.79 85.4372C106.79 85.7789 106.897 86.0422 107.11 86.2273C107.324 86.3982 107.623 86.4836 108.007 86.4836Z" fill="#333333"/>
<path d="M123.612 87.5941C123.27 87.8646 122.836 88.0782 122.309 88.2348C121.797 88.3914 121.256 88.4697 120.686 88.4697C118.308 88.4697 117.12 87.3948 117.12 85.245V79.7565H115.176V77.5782H117.12V75.1222L120.045 74.3107V77.5782H123.505V79.7565H120.045V84.7751C120.045 85.7575 120.537 86.2487 121.519 86.2487C122.145 86.2487 122.693 86.0494 123.163 85.6507L123.612 87.5941Z" fill="#333333"/>
<path d="M126.916 76.0406C125.706 76.0406 125.101 75.5209 125.101 74.4816C125.101 73.428 125.706 72.9012 126.916 72.9012C128.126 72.9012 128.731 73.428 128.731 74.4816C128.731 75.5209 128.126 76.0406 126.916 76.0406ZM128.368 88.2561H125.442V77.5782H128.368V88.2561Z" fill="#333333"/>
<path d="M136.381 77.3646C138.104 77.3646 139.442 77.8558 140.396 78.8382C141.364 79.8206 141.848 81.1802 141.848 82.9172C141.848 84.6541 141.364 86.0138 140.396 86.9961C139.442 87.9785 138.104 88.4697 136.381 88.4697C134.659 88.4697 133.313 87.9785 132.345 86.9961C131.391 86.0138 130.914 84.6541 130.914 82.9172C130.914 81.1802 131.391 79.8206 132.345 78.8382C133.313 77.8558 134.659 77.3646 136.381 77.3646ZM136.381 79.5429C135.556 79.5429 134.922 79.8277 134.481 80.3972C134.054 80.9524 133.84 81.7924 133.84 82.9172C133.84 84.0419 134.054 84.889 134.481 85.4585C134.922 86.0138 135.556 86.2914 136.381 86.2914C137.207 86.2914 137.834 86.0138 138.261 85.4585C138.702 84.889 138.923 84.0419 138.923 82.9172C138.923 81.7924 138.702 80.9524 138.261 80.3972C137.834 79.8277 137.207 79.5429 136.381 79.5429Z" fill="#333333"/>
<path d="M150.722 77.3646C151.875 77.3646 152.801 77.6992 153.498 78.3683C154.21 79.0375 154.566 79.9985 154.566 81.2514V88.2561H151.64V82.1056C151.64 80.4826 151.007 79.6711 149.74 79.6711C149.056 79.6711 148.473 79.9131 147.989 80.3972C147.519 80.8812 147.284 81.6216 147.284 82.6182V88.2561H144.358V77.5782H146.985L147.07 79.4789C147.426 78.7812 147.917 78.2544 148.544 77.8985C149.17 77.5426 149.896 77.3646 150.722 77.3646Z" fill="#333333"/>
<path d="M167.424 77.5782H170.799V79.7565H167.552V88.2561H164.627V79.7565H162.769V77.5782H164.627V76.2968C164.627 75.1294 164.99 74.2395 165.716 73.6273C166.442 73.0009 167.424 72.6877 168.663 72.6877C169.133 72.6877 169.56 72.7375 169.944 72.8372C170.343 72.9368 170.656 73.0721 170.884 73.2429L170.478 75.1863C170.151 74.9728 169.745 74.866 169.261 74.866C168.037 74.866 167.424 75.4141 167.424 76.5104V77.5782Z" fill="#333333"/>
<path d="M177.279 77.3646C179.001 77.3646 180.34 77.8558 181.294 78.8382C182.262 79.8206 182.746 81.1802 182.746 82.9172C182.746 84.6541 182.262 86.0138 181.294 86.9961C180.34 87.9785 179.001 88.4697 177.279 88.4697C175.556 88.4697 174.211 87.9785 173.242 86.9961C172.289 86.0138 171.812 84.6541 171.812 82.9172C171.812 81.1802 172.289 79.8206 173.242 78.8382C174.211 77.8558 175.556 77.3646 177.279 77.3646ZM177.279 79.5429C176.453 79.5429 175.819 79.8277 175.378 80.3972C174.951 80.9524 174.737 81.7924 174.737 82.9172C174.737 84.0419 174.951 84.889 175.378 85.4585C175.819 86.0138 176.453 86.2914 177.279 86.2914C178.105 86.2914 178.731 86.0138 179.158 85.4585C179.599 84.889 179.82 84.0419 179.82 82.9172C179.82 81.7924 179.599 80.9524 179.158 80.3972C178.731 79.8277 178.105 79.5429 177.279 79.5429Z" fill="#333333"/>
<path d="M191.299 77.3646C191.798 77.3646 192.182 77.4429 192.452 77.5995L192.089 80.1622C191.762 79.9487 191.313 79.8419 190.744 79.8419C190.046 79.8419 189.441 80.0982 188.929 80.6107C188.43 81.109 188.181 81.8138 188.181 82.725V88.2561H185.256V77.5782H187.797L187.989 79.6711C188.573 78.1334 189.676 77.3646 191.299 77.3646Z" fill="#333333"/>
<path d="M210.177 86.4836C210.476 86.4836 210.718 86.4551 210.903 86.3982L210.69 88.1707C210.291 88.37 209.828 88.4697 209.301 88.4697C207.935 88.4697 207.116 87.9358 206.846 86.868C206.532 87.3948 206.048 87.7934 205.393 88.0639C204.738 88.3344 203.962 88.4697 203.066 88.4697C202.026 88.4697 201.215 88.2348 200.631 87.765C200.047 87.2951 199.755 86.6189 199.755 85.7361C199.755 83.9992 201.143 82.8744 203.92 82.3619L206.482 81.8707V81.3582C206.482 80.7887 206.319 80.3402 205.991 80.0127C205.678 79.6711 205.237 79.5002 204.667 79.5002C204.012 79.5002 203.478 79.6426 203.066 79.9273C202.653 80.2121 202.368 80.6748 202.211 81.3155L199.883 80.3331C200.111 79.4077 200.624 78.6816 201.421 78.1548C202.218 77.628 203.258 77.3646 204.539 77.3646C206.062 77.3646 207.251 77.6992 208.106 78.3683C208.96 79.0233 209.387 79.9985 209.387 81.2941V85.6721C209.387 85.9568 209.451 86.1633 209.579 86.2914C209.707 86.4195 209.907 86.4836 210.177 86.4836ZM203.984 86.4836C204.61 86.4836 205.18 86.3341 205.692 86.0351C206.219 85.7219 206.482 85.3019 206.482 84.7751V83.6646L204.197 84.1772C203.713 84.2911 203.35 84.4477 203.108 84.647C202.88 84.8321 202.767 85.0955 202.767 85.4372C202.767 85.7789 202.873 86.0422 203.087 86.2273C203.3 86.3982 203.599 86.4836 203.984 86.4836Z" fill="#333333"/>
<path d="M222.975 72.9012V88.2561H220.37L220.241 86.27C219.928 86.9392 219.458 87.4731 218.832 87.8717C218.22 88.2704 217.515 88.4697 216.718 88.4697C215.294 88.4697 214.176 87.9856 213.365 87.0175C212.553 86.0351 212.147 84.6755 212.147 82.9385C212.147 81.1873 212.553 79.8206 213.365 78.8382C214.176 77.8558 215.294 77.3646 216.718 77.3646C217.486 77.3646 218.156 77.5426 218.725 77.8985C219.295 78.2402 219.736 78.7172 220.049 79.3294V72.9012H222.975ZM217.572 86.2273C218.341 86.2273 218.946 85.9497 219.387 85.3944C219.828 84.8392 220.049 84.049 220.049 83.0239V82.8104C220.049 81.7995 219.828 81.0165 219.387 80.4612C218.946 79.8917 218.341 79.607 217.572 79.607C216.789 79.607 216.177 79.8917 215.735 80.4612C215.294 81.0307 215.073 81.8494 215.073 82.9172C215.073 83.985 215.294 84.8036 215.735 85.3731C216.177 85.9426 216.789 86.2273 217.572 86.2273Z" fill="#333333"/>
<path d="M236.214 77.5782V88.2561H233.608L233.501 86.4195C232.818 87.7863 231.572 88.4697 229.764 88.4697C228.611 88.4697 227.693 88.1636 227.009 87.5514C226.34 86.925 226.005 85.9568 226.005 84.647V77.5782H228.931V83.8995C228.931 84.7253 229.088 85.309 229.401 85.6507C229.714 85.9924 230.177 86.1633 230.789 86.1633C231.53 86.1633 232.128 85.9283 232.583 85.4585C233.053 84.9744 233.288 84.2555 233.288 83.3016V77.5782H236.214Z" fill="#333333"/>
<path d="M242.175 84.8605C242.175 85.3731 242.246 85.729 242.388 85.9283C242.545 86.1277 242.823 86.2273 243.221 86.2273C243.463 86.2273 243.67 86.2131 243.841 86.1846C244.026 86.1419 244.239 86.0778 244.481 85.9924L244.225 88.0212C243.997 88.1636 243.698 88.2704 243.328 88.3416C242.958 88.427 242.595 88.4697 242.239 88.4697C241.2 88.4697 240.438 88.2205 239.954 87.7222C239.484 87.2097 239.249 86.3982 239.249 85.2877V72.9012H242.175V84.8605Z" fill="#333333"/>
<path d="M253.061 87.5941C252.72 87.8646 252.285 88.0782 251.759 88.2348C251.246 88.3914 250.705 88.4697 250.135 88.4697C247.758 88.4697 246.569 87.3948 246.569 85.245V79.7565H244.626V77.5782H246.569V75.1222L249.495 74.3107V77.5782H252.954V79.7565H249.495V84.7751C249.495 85.7575 249.986 86.2487 250.968 86.2487C251.595 86.2487 252.143 86.0494 252.613 85.6507L253.061 87.5941Z" fill="#333333"/>
<path d="M259.035 88.4697C256.657 88.4697 255.006 87.7863 254.08 86.4195L255.789 84.6683C256.073 85.2806 256.479 85.7148 257.006 85.9711C257.547 86.2131 258.209 86.3341 258.992 86.3341C259.618 86.3341 260.103 86.2487 260.444 86.0778C260.786 85.907 260.957 85.6721 260.957 85.3731C260.957 85.1311 260.793 84.9246 260.466 84.7538C260.152 84.5829 259.604 84.4192 258.821 84.2626C257.184 83.9351 256.031 83.508 255.362 82.9812C254.707 82.4402 254.379 81.7141 254.379 80.8029C254.379 80.205 254.564 79.6426 254.934 79.1158C255.305 78.589 255.853 78.169 256.579 77.8558C257.305 77.5283 258.173 77.3646 259.184 77.3646C260.38 77.3646 261.348 77.5497 262.089 77.9199C262.829 78.2758 263.448 78.8453 263.947 79.6283L262.131 81.166C261.818 80.5965 261.427 80.1765 260.957 79.906C260.501 79.6355 259.925 79.5002 259.227 79.5002C258.643 79.5002 258.173 79.5999 257.817 79.7992C257.476 79.9985 257.305 80.2406 257.305 80.5253C257.305 80.8243 257.476 81.0734 257.817 81.2728C258.159 81.4721 258.764 81.6572 259.633 81.828C261.185 82.1412 262.281 82.5541 262.922 83.0667C263.576 83.565 263.904 84.2626 263.904 85.1595C263.904 86.1561 263.477 86.9605 262.623 87.5728C261.783 88.1707 260.587 88.4697 259.035 88.4697Z" fill="#333333"/>
<path d="M40.8416 111.844C41.1406 111.844 41.3826 111.815 41.5677 111.758L41.3542 113.531C40.9555 113.73 40.4928 113.83 39.966 113.83C38.5992 113.83 37.7806 113.296 37.5101 112.228C37.1969 112.755 36.7128 113.154 36.0579 113.424C35.403 113.695 34.627 113.83 33.7301 113.83C32.6908 113.83 31.8792 113.595 31.2955 113.125C30.7118 112.655 30.4199 111.979 30.4199 111.096C30.4199 109.359 31.8081 108.235 34.5843 107.722L37.147 107.231V106.718C37.147 106.149 36.9833 105.7 36.6559 105.373C36.3426 105.031 35.9013 104.86 35.3318 104.86C34.6769 104.86 34.143 105.003 33.7301 105.287C33.3172 105.572 33.0325 106.035 32.8759 106.676L30.5481 105.693C30.7759 104.768 31.2884 104.042 32.0857 103.515C32.883 102.988 33.9223 102.725 35.2036 102.725C36.727 102.725 37.9159 103.059 38.7701 103.729C39.6243 104.383 40.0514 105.359 40.0514 106.654V111.032C40.0514 111.317 40.1155 111.523 40.2437 111.652C40.3718 111.78 40.5711 111.844 40.8416 111.844ZM34.6484 111.844C35.2748 111.844 35.8443 111.694 36.3569 111.395C36.8837 111.082 37.147 110.662 37.147 110.135V109.025L34.862 109.537C34.3779 109.651 34.0148 109.808 33.7728 110.007C33.545 110.192 33.4311 110.456 33.4311 110.797C33.4311 111.139 33.5379 111.402 33.7514 111.587C33.965 111.758 34.264 111.844 34.6484 111.844Z" fill="#333333"/>
<path d="M49.6236 102.725C51.0473 102.725 52.1649 103.216 52.9765 104.198C53.788 105.166 54.1937 106.519 54.1937 108.256C54.1937 110.007 53.788 111.374 52.9765 112.356C52.1649 113.339 51.0473 113.83 49.6236 113.83C48.8548 113.83 48.1856 113.659 47.6161 113.317C47.0466 112.961 46.5982 112.477 46.2707 111.865V118.101H43.3449V102.938H45.929L46.0358 105.053C46.349 104.341 46.8117 103.778 47.4239 103.365C48.0504 102.938 48.7836 102.725 49.6236 102.725ZM48.748 111.587C49.5453 111.587 50.1646 111.303 50.606 110.733C51.0473 110.164 51.268 109.345 51.268 108.277C51.268 107.21 51.0473 106.391 50.606 105.821C50.1646 105.252 49.5453 104.967 48.748 104.967C48.0361 104.967 47.4595 105.216 47.0182 105.715C46.5768 106.199 46.3276 106.896 46.2707 107.807V108.747C46.3276 109.644 46.5768 110.342 47.0182 110.84C47.4595 111.338 48.0361 111.587 48.748 111.587Z" fill="#333333"/>
<path d="M66.4729 111.844C66.7719 111.844 67.0139 111.815 67.199 111.758L66.9854 113.531C66.5868 113.73 66.1241 113.83 65.5973 113.83C64.2305 113.83 63.4119 113.296 63.1414 112.228C62.8282 112.755 62.3441 113.154 61.6892 113.424C61.0343 113.695 60.2583 113.83 59.3614 113.83C58.3221 113.83 57.5105 113.595 56.9268 113.125C56.3431 112.655 56.0512 111.979 56.0512 111.096C56.0512 109.359 57.4393 108.235 60.2156 107.722L62.7783 107.231V106.718C62.7783 106.149 62.6146 105.7 62.2871 105.373C61.9739 105.031 61.5326 104.86 60.9631 104.86C60.3082 104.86 59.7743 105.003 59.3614 105.287C58.9485 105.572 58.6638 106.035 58.5071 106.676L56.1793 105.693C56.4071 104.768 56.9197 104.042 57.717 103.515C58.5143 102.988 59.5536 102.725 60.8349 102.725C62.3583 102.725 63.5471 103.059 64.4014 103.729C65.2556 104.383 65.6827 105.359 65.6827 106.654V111.032C65.6827 111.317 65.7468 111.523 65.8749 111.652C66.0031 111.78 66.2024 111.844 66.4729 111.844ZM60.2797 111.844C60.9061 111.844 61.4756 111.694 61.9882 111.395C62.5149 111.082 62.7783 110.662 62.7783 110.135V109.025L60.4932 109.537C60.0092 109.651 59.6461 109.808 59.4041 110.007C59.1763 110.192 59.0624 110.456 59.0624 110.797C59.0624 111.139 59.1692 111.402 59.3827 111.587C59.5963 111.758 59.8953 111.844 60.2797 111.844Z" fill="#333333"/>
<path d="M75.8842 112.954C75.5425 113.225 75.1083 113.438 74.5815 113.595C74.069 113.752 73.5279 113.83 72.9584 113.83C70.5808 113.83 69.392 112.755 69.392 110.605V105.117H67.4486V102.938H69.392V100.482L72.3178 99.6709V102.938H75.7774V105.117H72.3178V110.135C72.3178 111.118 72.8089 111.609 73.7913 111.609C74.4178 111.609 74.9659 111.41 75.4357 111.011L75.8842 112.954Z" fill="#333333"/>
<path d="M84.2455 102.725C85.3988 102.725 86.3242 103.059 87.0218 103.729C87.7337 104.398 88.0896 105.359 88.0896 106.612V113.616H85.1639V107.466C85.1639 105.843 84.5303 105.031 83.2632 105.031C82.5798 105.031 81.9961 105.273 81.512 105.757C81.0422 106.241 80.8072 106.982 80.8072 107.978V113.616H77.8815V98.2614H80.8072V104.754C81.1347 104.07 81.5903 103.565 82.174 103.237C82.772 102.896 83.4625 102.725 84.2455 102.725Z" fill="#333333"/>
<path d="M101.077 108.235C101.077 108.633 101.049 109.018 100.992 109.388H93.4316C93.7306 110.897 94.6204 111.652 96.1011 111.652C96.7133 111.652 97.2187 111.538 97.6174 111.31C98.016 111.082 98.2936 110.755 98.4502 110.327L100.842 111.203C100.5 112.057 99.9238 112.712 99.1123 113.168C98.315 113.609 97.3113 113.83 96.1011 113.83C94.3357 113.83 92.9689 113.346 92.0008 112.378C91.0326 111.395 90.5486 110.029 90.5486 108.277C90.5486 106.526 91.0184 105.166 91.958 104.198C92.8977 103.216 94.2218 102.725 95.9302 102.725C97.5818 102.725 98.8489 103.202 99.7316 104.156C100.629 105.11 101.077 106.469 101.077 108.235ZM95.9089 104.882C95.197 104.882 94.6275 105.088 94.2004 105.501C93.7875 105.914 93.5241 106.526 93.4102 107.338H98.3862C98.2723 106.54 98.0018 105.935 97.5747 105.522C97.1475 105.095 96.5923 104.882 95.9089 104.882Z" fill="#333333"/>
<path d="M110.671 112.954C110.329 113.225 109.895 113.438 109.368 113.595C108.856 113.752 108.315 113.83 107.745 113.83C105.368 113.83 104.179 112.755 104.179 110.605V105.117H102.235V102.938H104.179V100.482L107.105 99.6709V102.938H110.564V105.117H107.105V110.135C107.105 111.118 107.596 111.609 108.578 111.609C109.205 111.609 109.753 111.41 110.223 111.011L110.671 112.954Z" fill="#333333"/>
<path d="M113.975 101.401C112.765 101.401 112.16 100.881 112.16 99.8417C112.16 98.7882 112.765 98.2614 113.975 98.2614C115.185 98.2614 115.79 98.7882 115.79 99.8417C115.79 100.881 115.185 101.401 113.975 101.401ZM115.427 113.616H112.501V102.938H115.427V113.616Z" fill="#333333"/>
<path d="M123.419 102.725C124.829 102.725 125.925 103.01 126.708 103.579C127.491 104.149 128.025 104.91 128.31 105.864L125.576 106.846C125.32 105.551 124.629 104.903 123.505 104.903C122.665 104.903 122.017 105.195 121.561 105.779C121.12 106.348 120.899 107.188 120.899 108.299C120.899 109.409 121.127 110.249 121.583 110.819C122.038 111.374 122.672 111.652 123.483 111.652C124.736 111.652 125.476 111.018 125.704 109.751L128.352 110.605C128.125 111.587 127.591 112.371 126.751 112.954C125.925 113.538 124.85 113.83 123.526 113.83C121.761 113.83 120.394 113.346 119.426 112.378C118.457 111.395 117.973 110.029 117.973 108.277C117.973 106.526 118.45 105.166 119.404 104.198C120.372 103.216 121.711 102.725 123.419 102.725Z" fill="#333333"/>
<path d="M144.29 112.954C143.948 113.225 143.514 113.438 142.987 113.595C142.475 113.752 141.934 113.83 141.364 113.83C138.987 113.83 137.798 112.755 137.798 110.605V105.117H135.854V102.938H137.798V100.482L140.723 99.6709V102.938H144.183V105.117H140.723V110.135C140.723 111.118 141.215 111.609 142.197 111.609C142.823 111.609 143.372 111.41 143.841 111.011L144.29 112.954Z" fill="#333333"/>
<path d="M151.032 102.725C152.755 102.725 154.093 103.216 155.047 104.198C156.015 105.181 156.499 106.54 156.499 108.277C156.499 110.014 156.015 111.374 155.047 112.356C154.093 113.339 152.755 113.83 151.032 113.83C149.31 113.83 147.964 113.339 146.996 112.356C146.042 111.374 145.565 110.014 145.565 108.277C145.565 106.54 146.042 105.181 146.996 104.198C147.964 103.216 149.31 102.725 151.032 102.725ZM151.032 104.903C150.206 104.903 149.573 105.188 149.132 105.757C148.704 106.313 148.491 107.153 148.491 108.277C148.491 109.402 148.704 110.249 149.132 110.819C149.573 111.374 150.206 111.652 151.032 111.652C151.858 111.652 152.484 111.374 152.912 110.819C153.353 110.249 153.574 109.402 153.574 108.277C153.574 107.153 153.353 106.313 152.912 105.757C152.484 105.188 151.858 104.903 151.032 104.903Z" fill="#333333"/>
<path d="M172.612 112.954C172.27 113.225 171.836 113.438 171.309 113.595C170.796 113.752 170.255 113.83 169.686 113.83C167.308 113.83 166.119 112.755 166.119 110.605V105.117H164.176V102.938H166.119V100.482L169.045 99.6709V102.938H172.505V105.117H169.045V110.135C169.045 111.118 169.536 111.609 170.519 111.609C171.145 111.609 171.693 111.41 172.163 111.011L172.612 112.954Z" fill="#333333"/>
<path d="M180.973 102.725C182.126 102.725 183.052 103.059 183.749 103.729C184.461 104.398 184.817 105.359 184.817 106.612V113.616H181.891V107.466C181.891 105.843 181.258 105.031 179.991 105.031C179.307 105.031 178.723 105.273 178.239 105.757C177.77 106.241 177.535 106.982 177.535 107.978V113.616H174.609V98.2614H177.535V104.754C177.862 104.07 178.318 103.565 178.901 103.237C179.499 102.896 180.19 102.725 180.973 102.725Z" fill="#333333"/>
<path d="M197.804 108.235C197.804 108.633 197.776 109.018 197.719 109.388H190.159C190.458 110.897 191.348 111.652 192.828 111.652C193.441 111.652 193.946 111.538 194.345 111.31C194.743 111.082 195.021 110.755 195.178 110.327L197.569 111.203C197.228 112.057 196.651 112.712 195.84 113.168C195.042 113.609 194.039 113.83 192.828 113.83C191.063 113.83 189.696 113.346 188.728 112.378C187.76 111.395 187.276 110.029 187.276 108.277C187.276 106.526 187.746 105.166 188.685 104.198C189.625 103.216 190.949 102.725 192.658 102.725C194.309 102.725 195.576 103.202 196.459 104.156C197.356 105.11 197.804 106.469 197.804 108.235ZM192.636 104.882C191.924 104.882 191.355 105.088 190.928 105.501C190.515 105.914 190.251 106.526 190.138 107.338H195.114C195 106.54 194.729 105.935 194.302 105.522C193.875 105.095 193.32 104.882 192.636 104.882Z" fill="#333333"/>
<path d="M201.735 101.401C200.524 101.401 199.919 100.881 199.919 99.8417C199.919 98.7882 200.524 98.2614 201.735 98.2614C202.945 98.2614 203.55 98.7882 203.55 99.8417C203.55 100.881 202.945 101.401 201.735 101.401ZM203.187 113.616H200.261V102.938H203.187V113.616Z" fill="#333333"/>
<path d="M212.332 102.725C212.83 102.725 213.215 102.803 213.485 102.96L213.122 105.522C212.795 105.309 212.346 105.202 211.777 105.202C211.079 105.202 210.474 105.458 209.961 105.971C209.463 106.469 209.214 107.174 209.214 108.085V113.616H206.288V102.938H208.83L209.022 105.031C209.605 103.494 210.709 102.725 212.332 102.725Z" fill="#333333"/>
<path d="M227.814 102.725C228.967 102.725 229.893 103.059 230.59 103.729C231.302 104.398 231.658 105.359 231.658 106.612V113.616H228.732V107.466C228.732 105.843 228.099 105.031 226.832 105.031C226.148 105.031 225.565 105.273 225.081 105.757C224.611 106.241 224.376 106.982 224.376 107.978V113.616H221.45V98.2614H224.376V104.754C224.703 104.07 225.159 103.565 225.743 103.237C226.341 102.896 227.031 102.725 227.814 102.725Z" fill="#333333"/>
<path d="M244.646 108.235C244.646 108.633 244.617 109.018 244.56 109.388H237C237.299 110.897 238.189 111.652 239.67 111.652C240.282 111.652 240.787 111.538 241.186 111.31C241.585 111.082 241.862 110.755 242.019 110.327L244.411 111.203C244.069 112.057 243.492 112.712 242.681 113.168C241.884 113.609 240.88 113.83 239.67 113.83C237.904 113.83 236.537 113.346 235.569 112.378C234.601 111.395 234.117 110.029 234.117 108.277C234.117 106.526 234.587 105.166 235.527 104.198C236.466 103.216 237.79 102.725 239.499 102.725C241.15 102.725 242.417 103.202 243.3 104.156C244.197 105.11 244.646 106.469 244.646 108.235ZM239.477 104.882C238.766 104.882 238.196 105.088 237.769 105.501C237.356 105.914 237.093 106.526 236.979 107.338H241.955C241.841 106.54 241.57 105.935 241.143 105.522C240.716 105.095 240.161 104.882 239.477 104.882Z" fill="#333333"/>
<path d="M256.862 111.844C257.161 111.844 257.403 111.815 257.588 111.758L257.374 113.531C256.976 113.73 256.513 113.83 255.986 113.83C254.619 113.83 253.801 113.296 253.53 112.228C253.217 112.755 252.733 113.154 252.078 113.424C251.423 113.695 250.647 113.83 249.75 113.83C248.711 113.83 247.899 113.595 247.316 113.125C246.732 112.655 246.44 111.979 246.44 111.096C246.44 109.359 247.828 108.235 250.605 107.722L253.167 107.231V106.718C253.167 106.149 253.004 105.7 252.676 105.373C252.363 105.031 251.922 104.86 251.352 104.86C250.697 104.86 250.163 105.003 249.75 105.287C249.337 105.572 249.053 106.035 248.896 106.676L246.568 105.693C246.796 104.768 247.309 104.042 248.106 103.515C248.903 102.988 249.943 102.725 251.224 102.725C252.747 102.725 253.936 103.059 254.79 103.729C255.645 104.383 256.072 105.359 256.072 106.654V111.032C256.072 111.317 256.136 111.523 256.264 111.652C256.392 111.78 256.591 111.844 256.862 111.844ZM250.669 111.844C251.295 111.844 251.865 111.694 252.377 111.395C252.904 111.082 253.167 110.662 253.167 110.135V109.025L250.882 109.537C250.398 109.651 250.035 109.808 249.793 110.007C249.565 110.192 249.451 110.456 249.451 110.797C249.451 111.139 249.558 111.402 249.772 111.587C249.985 111.758 250.284 111.844 250.669 111.844Z" fill="#333333"/>
<path d="M262.248 110.221C262.248 110.733 262.319 111.089 262.462 111.289C262.618 111.488 262.896 111.587 263.295 111.587C263.537 111.587 263.743 111.573 263.914 111.545C264.099 111.502 264.313 111.438 264.555 111.353L264.298 113.381C264.071 113.524 263.772 113.631 263.401 113.702C263.031 113.787 262.668 113.83 262.312 113.83C261.273 113.83 260.511 113.581 260.027 113.082C259.557 112.57 259.322 111.758 259.322 110.648V98.2614H262.248V110.221Z" fill="#333333"/>
<path d="M273.135 112.954C272.793 113.225 272.359 113.438 271.832 113.595C271.319 113.752 270.778 113.83 270.209 113.83C267.831 113.83 266.642 112.755 266.642 110.605V105.117H264.699V102.938H266.642V100.482L269.568 99.6709V102.938H273.028V105.117H269.568V110.135C269.568 111.118 270.059 111.609 271.042 111.609C271.668 111.609 272.216 111.41 272.686 111.011L273.135 112.954Z" fill="#333333"/>
<path d="M281.496 102.725C282.649 102.725 283.575 103.059 284.272 103.729C284.984 104.398 285.34 105.359 285.34 106.612V113.616H282.414V107.466C282.414 105.843 281.781 105.031 280.514 105.031C279.83 105.031 279.246 105.273 278.762 105.757C278.293 106.241 278.058 106.982 278.058 107.978V113.616H275.132V98.2614H278.058V104.754C278.385 104.07 278.841 103.565 279.424 103.237C280.022 102.896 280.713 102.725 281.496 102.725Z" fill="#333333"/>
</svg>
