<svg width="315" height="163" viewBox="0 0 315 163" fill="none" xmlns="http://www.w3.org/2000/svg">
<mask id="mask0" mask-type="alpha" maskUnits="userSpaceOnUse" x="0" y="0" width="315" height="163">
<rect width="315" height="163" fill="#BDBDBD"/>
</mask>
<g mask="url(#mask0)">
<path d="M2 2H313V77.6323V161.283H2V81.6415V2Z" stroke="#BDBDBD" stroke-width="4"/>
<path d="M75.4147 56.1099V63.5631H73.2578L73.1937 61.876C72.3395 63.1431 70.9514 63.7767 69.0293 63.7767C67.7337 63.7767 66.5947 63.4919 65.6124 62.9224C64.63 62.3529 63.8612 61.5272 63.3059 60.4451C62.7649 59.3489 62.4944 58.0462 62.4944 56.537C62.4944 55.0421 62.772 53.7465 63.3273 52.6502C63.8968 51.554 64.6941 50.714 65.7192 50.1302C66.7585 49.5465 67.9686 49.2546 69.3497 49.2546C70.8731 49.2546 72.1117 49.5323 73.0656 50.0875C74.0337 50.6428 74.7954 51.5184 75.3507 52.7143L72.6385 53.8889C72.4249 53.1628 72.0334 52.6146 71.4639 52.2445C70.9086 51.8601 70.2324 51.6678 69.4351 51.6678C68.2107 51.6678 67.2568 52.0878 66.5734 52.9278C65.89 53.7678 65.5483 54.9638 65.5483 56.5156C65.5483 58.1245 65.8829 59.3417 66.552 60.1675C67.2212 60.9933 68.2036 61.4062 69.4991 61.4062C70.4958 61.4062 71.3073 61.1712 71.9337 60.7014C72.5602 60.2173 72.8734 59.5197 72.8734 58.6085V58.2882H68.7517V56.1099H75.4147Z" fill="#828282"/>
<path d="M88.0928 61.7906C88.3918 61.7906 88.6338 61.7621 88.8189 61.7051L88.6054 63.4777C88.2067 63.677 87.744 63.7767 87.2172 63.7767C85.8505 63.7767 85.0318 63.2428 84.7613 62.175C84.4481 62.7017 83.964 63.1004 83.3091 63.3709C82.6542 63.6414 81.8783 63.7767 80.9813 63.7767C79.942 63.7767 79.1305 63.5417 78.5467 63.0719C77.963 62.6021 77.6711 61.9258 77.6711 61.0431C77.6711 59.3062 79.0593 58.1814 81.8355 57.6689L84.3983 57.1777V56.6651C84.3983 56.0956 84.2345 55.6472 83.9071 55.3197C83.5938 54.978 83.1525 54.8072 82.583 54.8072C81.9281 54.8072 81.3942 54.9495 80.9813 55.2343C80.5684 55.519 80.2837 55.9817 80.1271 56.6224L77.7993 55.6401C78.0271 54.7146 78.5396 53.9885 79.3369 53.4617C80.1342 52.935 81.1735 52.6716 82.4549 52.6716C83.9782 52.6716 85.1671 53.0062 86.0213 53.6753C86.8755 54.3302 87.3027 55.3055 87.3027 56.6011V60.979C87.3027 61.2638 87.3667 61.4702 87.4949 61.5984C87.623 61.7265 87.8223 61.7906 88.0928 61.7906ZM81.8996 61.7906C82.526 61.7906 83.0955 61.6411 83.6081 61.3421C84.1349 61.0289 84.3983 60.6089 84.3983 60.0821V58.9716L82.1132 59.4841C81.6291 59.598 81.266 59.7546 81.024 59.9539C80.7962 60.139 80.6823 60.4024 80.6823 60.7441C80.6823 61.0858 80.7891 61.3492 81.0027 61.5343C81.2162 61.7051 81.5152 61.7906 81.8996 61.7906Z" fill="#828282"/>
<path d="M103.965 52.6716C105.061 52.6716 105.965 53.0062 106.677 53.6753C107.403 54.3445 107.766 55.3055 107.766 56.5584V63.5631H104.841V57.135C104.841 56.3946 104.677 55.8536 104.349 55.5119C104.022 55.156 103.573 54.978 103.004 54.978C102.321 54.978 101.758 55.2272 101.317 55.7255C100.875 56.2238 100.655 56.9214 100.655 57.8184V63.5631H97.729V57.135C97.729 56.3946 97.5653 55.8536 97.2378 55.5119C96.9104 55.156 96.4548 54.978 95.8711 54.978C95.2304 54.978 94.6751 55.2272 94.2053 55.7255C93.7497 56.2095 93.5219 56.9356 93.5219 57.9038V63.5631H90.5961V52.8851H93.2229L93.3083 54.7858C93.6643 54.0882 94.1484 53.5614 94.7606 53.2055C95.387 52.8495 96.0846 52.6716 96.8534 52.6716C97.6507 52.6716 98.3555 52.8567 98.9677 53.2268C99.5941 53.597 100.05 54.1309 100.334 54.8285C100.676 54.1309 101.174 53.597 101.829 53.2268C102.484 52.8567 103.196 52.6716 103.965 52.6716Z" fill="#828282"/>
<path d="M112.258 51.3475C111.048 51.3475 110.442 50.8278 110.442 49.7885C110.442 48.735 111.048 48.2082 112.258 48.2082C113.468 48.2082 114.073 48.735 114.073 49.7885C114.073 50.8278 113.468 51.3475 112.258 51.3475ZM113.71 63.5631H110.784V52.8851H113.71V63.5631Z" fill="#828282"/>
<path d="M120.378 52.8851H123.752V55.0634H120.506V63.5631H117.58V55.0634H115.722V52.8851H117.58V51.6038C117.58 50.4363 117.943 49.5465 118.669 48.9343C119.395 48.3078 120.378 47.9946 121.616 47.9946C122.086 47.9946 122.513 48.0445 122.898 48.1441C123.296 48.2438 123.61 48.379 123.837 48.5499L123.432 50.4933C123.104 50.2797 122.699 50.1729 122.214 50.1729C120.99 50.1729 120.378 50.7211 120.378 51.8173V52.8851ZM126.977 51.3475C125.767 51.3475 125.162 50.8278 125.162 49.7885C125.162 48.735 125.767 48.2082 126.977 48.2082C128.187 48.2082 128.792 48.735 128.792 49.7885C128.792 50.8278 128.187 51.3475 126.977 51.3475ZM128.429 63.5631H125.503V52.8851H128.429V63.5631Z" fill="#828282"/>
<path d="M141.509 58.1814C141.509 58.5801 141.48 58.9645 141.423 59.3346H133.863C134.162 60.8438 135.052 61.5984 136.533 61.5984C137.145 61.5984 137.65 61.4845 138.049 61.2567C138.448 61.0289 138.725 60.7014 138.882 60.2743L141.274 61.1499C140.932 62.0041 140.355 62.659 139.544 63.1146C138.746 63.556 137.743 63.7767 136.533 63.7767C134.767 63.7767 133.4 63.2926 132.432 62.3245C131.464 61.3421 130.98 59.9753 130.98 58.2241C130.98 56.4729 131.45 55.1133 132.39 54.1451C133.329 53.1628 134.653 52.6716 136.362 52.6716C138.013 52.6716 139.28 53.1485 140.163 54.1024C141.06 55.0563 141.509 56.416 141.509 58.1814ZM136.34 54.8285C135.629 54.8285 135.059 55.035 134.632 55.4478C134.219 55.8607 133.956 56.4729 133.842 57.2845H138.818C138.704 56.4872 138.433 55.8821 138.006 55.4692C137.579 55.0421 137.024 54.8285 136.34 54.8285Z" fill="#828282"/>
<path d="M154.301 48.2082V63.5631H151.696L151.568 61.577C151.255 62.2462 150.785 62.7801 150.158 63.1787C149.546 63.5773 148.841 63.7767 148.044 63.7767C146.62 63.7767 145.503 63.2926 144.691 62.3245C143.88 61.3421 143.474 59.9824 143.474 58.2455C143.474 56.4943 143.88 55.1275 144.691 54.1451C145.503 53.1628 146.62 52.6716 148.044 52.6716C148.813 52.6716 149.482 52.8495 150.052 53.2055C150.621 53.5472 151.062 54.0241 151.376 54.6363V48.2082H154.301ZM148.898 61.5343C149.667 61.5343 150.272 61.2567 150.714 60.7014C151.155 60.1462 151.376 59.356 151.376 58.3309V58.1173C151.376 57.1065 151.155 56.3234 150.714 55.7682C150.272 55.1987 149.667 54.914 148.898 54.914C148.115 54.914 147.503 55.1987 147.062 55.7682C146.62 56.3377 146.4 57.1563 146.4 58.2241C146.4 59.2919 146.62 60.1106 147.062 60.6801C147.503 61.2495 148.115 61.5343 148.898 61.5343Z" fill="#828282"/>
<path d="M170.288 52.6716C171.441 52.6716 172.366 53.0062 173.064 53.6753C173.776 54.3445 174.132 55.3055 174.132 56.5584V63.5631H171.206V57.4126C171.206 55.7895 170.573 54.978 169.305 54.978C168.622 54.978 168.038 55.2201 167.554 55.7041C167.084 56.1882 166.85 56.9285 166.85 57.9251V63.5631H163.924V52.8851H166.551L166.636 54.7858C166.992 54.0882 167.483 53.5614 168.109 53.2055C168.736 52.8495 169.462 52.6716 170.288 52.6716Z" fill="#828282"/>
<path d="M187.29 52.8851V63.5631H184.685L184.578 61.7265C183.895 63.0933 182.649 63.7767 180.841 63.7767C179.687 63.7767 178.769 63.4706 178.086 62.8584C177.417 62.2319 177.082 61.2638 177.082 59.9539V52.8851H180.008V59.2065C180.008 60.0323 180.164 60.616 180.478 60.9577C180.791 61.2994 181.254 61.4702 181.866 61.4702C182.606 61.4702 183.204 61.2353 183.66 60.7655C184.129 60.2814 184.364 59.5624 184.364 58.6085V52.8851H187.29Z" fill="#828282"/>
<path d="M197.693 62.9011C197.352 63.1716 196.918 63.3851 196.391 63.5417C195.878 63.6984 195.337 63.7767 194.768 63.7767C192.39 63.7767 191.201 62.7017 191.201 60.5519V55.0634H189.258V52.8851H191.201V50.4292L194.127 49.6177V52.8851H197.587V55.0634H194.127V60.0821C194.127 61.0645 194.618 61.5556 195.601 61.5556C196.227 61.5556 196.775 61.3563 197.245 60.9577L197.693 62.9011Z" fill="#828282"/>
<path d="M205.568 52.6716C206.066 52.6716 206.45 52.7499 206.721 52.9065L206.358 55.4692C206.03 55.2556 205.582 55.1489 205.012 55.1489C204.315 55.1489 203.71 55.4051 203.197 55.9177C202.699 56.416 202.45 57.1207 202.45 58.0319V63.5631H199.524V52.8851H202.065L202.257 54.978C202.841 53.4404 203.945 52.6716 205.568 52.6716Z" fill="#828282"/>
<path d="M210.007 51.3475C208.797 51.3475 208.192 50.8278 208.192 49.7885C208.192 48.735 208.797 48.2082 210.007 48.2082C211.217 48.2082 211.822 48.735 211.822 49.7885C211.822 50.8278 211.217 51.3475 210.007 51.3475ZM211.459 63.5631H208.533V52.8851H211.459V63.5631Z" fill="#828282"/>
<path d="M221.886 62.9011C221.544 63.1716 221.11 63.3851 220.583 63.5417C220.07 63.6984 219.529 63.7767 218.96 63.7767C216.582 63.7767 215.394 62.7017 215.394 60.5519V55.0634H213.45V52.8851H215.394V50.4292L218.319 49.6177V52.8851H221.779V55.0634H218.319V60.0821C218.319 61.0645 218.81 61.5556 219.793 61.5556C220.419 61.5556 220.967 61.3563 221.437 60.9577L221.886 62.9011Z" fill="#828282"/>
<path d="M225.19 51.3475C223.98 51.3475 223.374 50.8278 223.374 49.7885C223.374 48.735 223.98 48.2082 225.19 48.2082C226.4 48.2082 227.005 48.735 227.005 49.7885C227.005 50.8278 226.4 51.3475 225.19 51.3475ZM226.642 63.5631H223.716V52.8851H226.642V63.5631Z" fill="#828282"/>
<path d="M234.655 52.6716C236.378 52.6716 237.716 53.1628 238.67 54.1451C239.638 55.1275 240.122 56.4872 240.122 58.2241C240.122 59.9611 239.638 61.3207 238.67 62.3031C237.716 63.2855 236.378 63.7767 234.655 63.7767C232.933 63.7767 231.587 63.2855 230.619 62.3031C229.665 61.3207 229.188 59.9611 229.188 58.2241C229.188 56.4872 229.665 55.1275 230.619 54.1451C231.587 53.1628 232.933 52.6716 234.655 52.6716ZM234.655 54.8499C233.829 54.8499 233.196 55.1346 232.755 55.7041C232.327 56.2594 232.114 57.0994 232.114 58.2241C232.114 59.3489 232.327 60.196 232.755 60.7655C233.196 61.3207 233.829 61.5984 234.655 61.5984C235.481 61.5984 236.107 61.3207 236.535 60.7655C236.976 60.196 237.197 59.3489 237.197 58.2241C237.197 57.0994 236.976 56.2594 236.535 55.7041C236.107 55.1346 235.481 54.8499 234.655 54.8499Z" fill="#828282"/>
<path d="M248.996 52.6716C250.149 52.6716 251.075 53.0062 251.772 53.6753C252.484 54.3445 252.84 55.3055 252.84 56.5584V63.5631H249.914V57.4126C249.914 55.7895 249.281 54.978 248.014 54.978C247.33 54.978 246.747 55.2201 246.263 55.7041C245.793 56.1882 245.558 56.9285 245.558 57.9251V63.5631H242.632V52.8851H245.259L245.344 54.7858C245.7 54.0882 246.191 53.5614 246.818 53.2055C247.444 52.8495 248.17 52.6716 248.996 52.6716Z" fill="#828282"/>
<path d="M62.8315 82.8742C62.8315 83.2728 62.803 83.6573 62.7461 84.0274H55.1861C55.4851 85.5366 56.3749 86.2912 57.8556 86.2912C58.4678 86.2912 58.9732 86.1773 59.3719 85.9495C59.7705 85.7217 60.0481 85.3942 60.2047 84.9671L62.5966 85.8427C62.2549 86.6969 61.6783 87.3518 60.8668 87.8074C60.0695 88.2488 59.0657 88.4695 57.8556 88.4695C56.0902 88.4695 54.7234 87.9854 53.7552 87.0173C52.7871 86.0349 52.303 84.6681 52.303 82.9169C52.303 81.1657 52.7729 79.8061 53.7125 78.8379C54.6522 77.8556 55.9763 77.3644 57.6847 77.3644C59.3363 77.3644 60.6034 77.8413 61.4861 78.7952C62.383 79.7491 62.8315 81.1088 62.8315 82.8742ZM57.6634 79.5213C56.9515 79.5213 56.382 79.7278 55.9549 80.1406C55.542 80.5535 55.2786 81.1657 55.1647 81.9773H60.1407C60.0268 81.18 59.7563 80.5749 59.3291 80.162C58.902 79.7349 58.3468 79.5213 57.6634 79.5213Z" fill="#828282"/>
<path d="M75.6244 72.901V88.2559H73.019L72.8908 86.2698C72.5776 86.9389 72.1078 87.4729 71.4813 87.8715C70.8691 88.2701 70.1644 88.4695 69.3671 88.4695C67.9434 88.4695 66.8257 87.9854 66.0142 87.0173C65.2027 86.0349 64.7969 84.6752 64.7969 82.9383C64.7969 81.1871 65.2027 79.8203 66.0142 78.8379C66.8257 77.8556 67.9434 77.3644 69.3671 77.3644C70.1359 77.3644 70.8051 77.5423 71.3746 77.8983C71.944 78.24 72.3854 78.7169 72.6986 79.3291V72.901H75.6244ZM70.2213 86.2271C70.9901 86.2271 71.5952 85.9495 72.0366 85.3942C72.4779 84.8389 72.6986 84.0488 72.6986 83.0237V82.8101C72.6986 81.7993 72.4779 81.0162 72.0366 80.461C71.5952 79.8915 70.9901 79.6067 70.2213 79.6067C69.4383 79.6067 68.8261 79.8915 68.3847 80.461C67.9434 81.0305 67.7227 81.8491 67.7227 82.9169C67.7227 83.9847 67.9434 84.8034 68.3847 85.3728C68.8261 85.9423 69.4383 86.2271 70.2213 86.2271Z" fill="#828282"/>
<path d="M88.8631 77.5779V88.2559H86.2576L86.1509 86.4193C85.4675 87.7861 84.2217 88.4695 82.4136 88.4695C81.2603 88.4695 80.342 88.1634 79.6586 87.5512C78.9895 86.9247 78.6549 85.9566 78.6549 84.6467V77.5779H81.5807V83.8993C81.5807 84.7251 81.7373 85.3088 82.0505 85.6505C82.3637 85.9922 82.8264 86.163 83.4386 86.163C84.179 86.163 84.777 85.9281 85.2325 85.4583C85.7024 84.9742 85.9373 84.2552 85.9373 83.3013V77.5779H88.8631Z" fill="#828282"/>
<path d="M96.8318 77.3644C98.2413 77.3644 99.3376 77.6491 100.121 78.2186C100.904 78.7881 101.438 79.5498 101.722 80.5037L98.9888 81.4861C98.7325 80.1905 98.042 79.5427 96.9172 79.5427C96.0772 79.5427 95.4295 79.8345 94.9739 80.4183C94.5325 80.9878 94.3118 81.8278 94.3118 82.9383C94.3118 84.0488 94.5396 84.8888 94.9952 85.4583C95.4508 86.0135 96.0844 86.2912 96.8959 86.2912C98.1488 86.2912 98.8891 85.6576 99.1169 84.3905L101.765 85.2447C101.537 86.2271 101.003 87.0101 100.163 87.5939C99.3376 88.1776 98.2627 88.4695 96.9386 88.4695C95.1732 88.4695 93.8064 87.9854 92.8383 87.0173C91.8701 86.0349 91.3861 84.6681 91.3861 82.9169C91.3861 81.1657 91.863 79.8061 92.8169 78.8379C93.785 77.8556 95.1234 77.3644 96.8318 77.3644Z" fill="#828282"/>
<path d="M113.86 86.4834C114.159 86.4834 114.401 86.4549 114.586 86.3979L114.372 88.1705C113.974 88.3698 113.511 88.4695 112.984 88.4695C111.617 88.4695 110.799 87.9356 110.528 86.8678C110.215 87.3945 109.731 87.7932 109.076 88.0637C108.421 88.3342 107.645 88.4695 106.748 88.4695C105.709 88.4695 104.897 88.2345 104.314 87.7647C103.73 87.2949 103.438 86.6186 103.438 85.7359C103.438 83.999 104.826 82.8742 107.602 82.3617L110.165 81.8705V81.3579C110.165 80.7884 110.001 80.34 109.674 80.0125C109.361 79.6708 108.919 79.5 108.35 79.5C107.695 79.5 107.161 79.6423 106.748 79.9271C106.335 80.2118 106.051 80.6745 105.894 81.3152L103.566 80.3328C103.794 79.4074 104.306 78.6813 105.104 78.1545C105.901 77.6278 106.94 77.3644 108.222 77.3644C109.745 77.3644 110.934 77.6989 111.788 78.3681C112.642 79.023 113.07 79.9983 113.07 81.2939V85.6718C113.07 85.9566 113.134 86.163 113.262 86.2912C113.39 86.4193 113.589 86.4834 113.86 86.4834ZM107.666 86.4834C108.293 86.4834 108.862 86.3339 109.375 86.0349C109.902 85.7217 110.165 85.3017 110.165 84.7749V83.6644L107.88 84.1769C107.396 84.2908 107.033 84.4474 106.791 84.6467C106.563 84.8318 106.449 85.0952 106.449 85.4369C106.449 85.7786 106.556 86.042 106.77 86.2271C106.983 86.3979 107.282 86.4834 107.666 86.4834Z" fill="#828282"/>
<path d="M123.271 87.5939C122.929 87.8644 122.495 88.0779 121.968 88.2345C121.456 88.3912 120.915 88.4695 120.345 88.4695C117.968 88.4695 116.779 87.3945 116.779 85.2447V79.7562H114.835V77.5779H116.779V75.122L119.705 74.3105V77.5779H123.164V79.7562H119.705V84.7749C119.705 85.7573 120.196 86.2484 121.178 86.2484C121.805 86.2484 122.353 86.0491 122.822 85.6505L123.271 87.5939Z" fill="#828282"/>
<path d="M126.575 76.0403C125.365 76.0403 124.76 75.5206 124.76 74.4813C124.76 73.4278 125.365 72.901 126.575 72.901C127.785 72.901 128.39 73.4278 128.39 74.4813C128.39 75.5206 127.785 76.0403 126.575 76.0403ZM128.027 88.2559H125.101V77.5779H128.027V88.2559Z" fill="#828282"/>
<path d="M136.04 77.3644C137.763 77.3644 139.101 77.8556 140.055 78.8379C141.024 79.8203 141.508 81.18 141.508 82.9169C141.508 84.6539 141.024 86.0135 140.055 86.9959C139.101 87.9783 137.763 88.4695 136.04 88.4695C134.318 88.4695 132.972 87.9783 132.004 86.9959C131.05 86.0135 130.573 84.6539 130.573 82.9169C130.573 81.18 131.05 79.8203 132.004 78.8379C132.972 77.8556 134.318 77.3644 136.04 77.3644ZM136.04 79.5427C135.215 79.5427 134.581 79.8274 134.14 80.3969C133.713 80.9522 133.499 81.7922 133.499 82.9169C133.499 84.0417 133.713 84.8888 134.14 85.4583C134.581 86.0135 135.215 86.2912 136.04 86.2912C136.866 86.2912 137.493 86.0135 137.92 85.4583C138.361 84.8888 138.582 84.0417 138.582 82.9169C138.582 81.7922 138.361 80.9522 137.92 80.3969C137.493 79.8274 136.866 79.5427 136.04 79.5427Z" fill="#828282"/>
<path d="M150.381 77.3644C151.535 77.3644 152.46 77.6989 153.158 78.3681C153.869 79.0373 154.225 79.9983 154.225 81.2512V88.2559H151.3V82.1054C151.3 80.4823 150.666 79.6708 149.399 79.6708C148.716 79.6708 148.132 79.9128 147.648 80.3969C147.178 80.881 146.943 81.6213 146.943 82.6179V88.2559H144.017V77.5779H146.644L146.729 79.4786C147.085 78.781 147.577 78.2542 148.203 77.8983C148.829 77.5423 149.556 77.3644 150.381 77.3644Z" fill="#828282"/>
<path d="M167.083 77.5779H170.458V79.7562H167.212V88.2559H164.286V79.7562H162.428V77.5779H164.286V76.2966C164.286 75.1291 164.649 74.2393 165.375 73.6271C166.101 73.0006 167.083 72.6874 168.322 72.6874C168.792 72.6874 169.219 72.7373 169.604 72.8369C170.002 72.9366 170.315 73.0718 170.543 73.2427L170.137 75.1861C169.81 74.9725 169.404 74.8657 168.92 74.8657C167.696 74.8657 167.083 75.4139 167.083 76.5101V77.5779Z" fill="#828282"/>
<path d="M176.938 77.3644C178.661 77.3644 179.999 77.8556 180.953 78.8379C181.921 79.8203 182.405 81.18 182.405 82.9169C182.405 84.6539 181.921 86.0135 180.953 86.9959C179.999 87.9783 178.661 88.4695 176.938 88.4695C175.215 88.4695 173.87 87.9783 172.902 86.9959C171.948 86.0135 171.471 84.6539 171.471 82.9169C171.471 81.18 171.948 79.8203 172.902 78.8379C173.87 77.8556 175.215 77.3644 176.938 77.3644ZM176.938 79.5427C176.112 79.5427 175.479 79.8274 175.037 80.3969C174.61 80.9522 174.397 81.7922 174.397 82.9169C174.397 84.0417 174.61 84.8888 175.037 85.4583C175.479 86.0135 176.112 86.2912 176.938 86.2912C177.764 86.2912 178.39 86.0135 178.817 85.4583C179.259 84.8888 179.479 84.0417 179.479 82.9169C179.479 81.7922 179.259 80.9522 178.817 80.3969C178.39 79.8274 177.764 79.5427 176.938 79.5427Z" fill="#828282"/>
<path d="M190.958 77.3644C191.457 77.3644 191.841 77.4427 192.112 77.5993L191.749 80.162C191.421 79.9484 190.973 79.8417 190.403 79.8417C189.706 79.8417 189.1 80.0979 188.588 80.6105C188.09 81.1088 187.84 81.8135 187.84 82.7247V88.2559H184.915V77.5779H187.456L187.648 79.6708C188.232 78.1332 189.335 77.3644 190.958 77.3644Z" fill="#828282"/>
<path d="M209.836 86.4834C210.135 86.4834 210.377 86.4549 210.562 86.3979L210.349 88.1705C209.95 88.3698 209.487 88.4695 208.961 88.4695C207.594 88.4695 206.775 87.9356 206.505 86.8678C206.191 87.3945 205.707 87.7932 205.053 88.0637C204.398 88.3342 203.622 88.4695 202.725 88.4695C201.685 88.4695 200.874 88.2345 200.29 87.7647C199.706 87.2949 199.415 86.6186 199.415 85.7359C199.415 83.999 200.803 82.8742 203.579 82.3617L206.142 81.8705V81.3579C206.142 80.7884 205.978 80.34 205.65 80.0125C205.337 79.6708 204.896 79.5 204.326 79.5C203.671 79.5 203.138 79.6423 202.725 79.9271C202.312 80.2118 202.027 80.6745 201.87 81.3152L199.543 80.3328C199.77 79.4074 200.283 78.6813 201.08 78.1545C201.878 77.6278 202.917 77.3644 204.198 77.3644C205.722 77.3644 206.91 77.6989 207.765 78.3681C208.619 79.023 209.046 79.9983 209.046 81.2939V85.6718C209.046 85.9566 209.11 86.163 209.238 86.2912C209.366 86.4193 209.566 86.4834 209.836 86.4834ZM203.643 86.4834C204.269 86.4834 204.839 86.3339 205.351 86.0349C205.878 85.7217 206.142 85.3017 206.142 84.7749V83.6644L203.857 84.1769C203.372 84.2908 203.009 84.4474 202.767 84.6467C202.54 84.8318 202.426 85.0952 202.426 85.4369C202.426 85.7786 202.532 86.042 202.746 86.2271C202.96 86.3979 203.259 86.4834 203.643 86.4834Z" fill="#828282"/>
<path d="M222.634 72.901V88.2559H220.029L219.901 86.2698C219.587 86.9389 219.118 87.4729 218.491 87.8715C217.879 88.2701 217.174 88.4695 216.377 88.4695C214.953 88.4695 213.835 87.9854 213.024 87.0173C212.212 86.0349 211.807 84.6752 211.807 82.9383C211.807 81.1871 212.212 79.8203 213.024 78.8379C213.835 77.8556 214.953 77.3644 216.377 77.3644C217.146 77.3644 217.815 77.5423 218.384 77.8983C218.954 78.24 219.395 78.7169 219.708 79.3291V72.901H222.634ZM217.231 86.2271C218 86.2271 218.605 85.9495 219.046 85.3942C219.488 84.8389 219.708 84.0488 219.708 83.0237V82.8101C219.708 81.7993 219.488 81.0162 219.046 80.461C218.605 79.8915 218 79.6067 217.231 79.6067C216.448 79.6067 215.836 79.8915 215.394 80.461C214.953 81.0305 214.732 81.8491 214.732 82.9169C214.732 83.9847 214.953 84.8034 215.394 85.3728C215.836 85.9423 216.448 86.2271 217.231 86.2271Z" fill="#828282"/>
<path d="M235.873 77.5779V88.2559H233.267L233.161 86.4193C232.477 87.7861 231.231 88.4695 229.423 88.4695C228.27 88.4695 227.352 88.1634 226.668 87.5512C225.999 86.9247 225.665 85.9566 225.665 84.6467V77.5779H228.59V83.8993C228.59 84.7251 228.747 85.3088 229.06 85.6505C229.373 85.9922 229.836 86.163 230.448 86.163C231.189 86.163 231.787 85.9281 232.242 85.4583C232.712 84.9742 232.947 84.2552 232.947 83.3013V77.5779H235.873Z" fill="#828282"/>
<path d="M241.834 84.8603C241.834 85.3728 241.905 85.7288 242.048 85.9281C242.204 86.1274 242.482 86.2271 242.881 86.2271C243.123 86.2271 243.329 86.2128 243.5 86.1844C243.685 86.1417 243.898 86.0776 244.141 85.9922L243.884 88.021C243.656 88.1634 243.357 88.2701 242.987 88.3413C242.617 88.4267 242.254 88.4695 241.898 88.4695C240.859 88.4695 240.097 88.2203 239.613 87.722C239.143 87.2095 238.908 86.3979 238.908 85.2874V72.901H241.834V84.8603Z" fill="#828282"/>
<path d="M252.72 87.5939C252.379 87.8644 251.945 88.0779 251.418 88.2345C250.905 88.3912 250.364 88.4695 249.795 88.4695C247.417 88.4695 246.228 87.3945 246.228 85.2447V79.7562H244.285V77.5779H246.228V75.122L249.154 74.3105V77.5779H252.614V79.7562H249.154V84.7749C249.154 85.7573 249.645 86.2484 250.628 86.2484C251.254 86.2484 251.802 86.0491 252.272 85.6505L252.72 87.5939Z" fill="#828282"/>
<path d="M258.694 88.4695C256.316 88.4695 254.665 87.7861 253.739 86.4193L255.448 84.6681C255.733 85.2803 256.138 85.7145 256.665 85.9708C257.206 86.2128 257.868 86.3339 258.651 86.3339C259.278 86.3339 259.762 86.2484 260.103 86.0776C260.445 85.9067 260.616 85.6718 260.616 85.3728C260.616 85.1308 260.452 84.9244 260.125 84.7535C259.812 84.5827 259.263 84.4189 258.48 84.2623C256.843 83.9349 255.69 83.5078 255.021 82.981C254.366 82.44 254.038 81.7139 254.038 80.8027C254.038 80.2047 254.223 79.6423 254.594 79.1156C254.964 78.5888 255.512 78.1688 256.238 77.8556C256.964 77.5281 257.833 77.3644 258.843 77.3644C260.039 77.3644 261.007 77.5495 261.748 77.9196C262.488 78.2756 263.107 78.8451 263.606 79.6281L261.791 81.1657C261.477 80.5962 261.086 80.1762 260.616 79.9057C260.16 79.6352 259.584 79.5 258.886 79.5C258.302 79.5 257.833 79.5996 257.477 79.7989C257.135 79.9983 256.964 80.2403 256.964 80.5251C256.964 80.824 257.135 81.0732 257.477 81.2725C257.818 81.4718 258.423 81.6569 259.292 81.8278C260.844 82.141 261.94 82.5539 262.581 83.0664C263.236 83.5647 263.563 84.2623 263.563 85.1593C263.563 86.1559 263.136 86.9603 262.282 87.5725C261.442 88.1705 260.246 88.4695 258.694 88.4695Z" fill="#828282"/>
<path d="M40.5008 111.844C40.7998 111.844 41.0418 111.815 41.2269 111.758L41.0133 113.531C40.6147 113.73 40.152 113.83 39.6252 113.83C38.2584 113.83 37.4398 113.296 37.1693 112.228C36.8561 112.755 36.372 113.153 35.7171 113.424C35.0622 113.694 34.2862 113.83 33.3893 113.83C32.3499 113.83 31.5384 113.595 30.9547 113.125C30.371 112.655 30.0791 111.979 30.0791 111.096C30.0791 109.359 31.4672 108.234 34.2435 107.722L36.8062 107.231V106.718C36.8062 106.149 36.6425 105.7 36.315 105.373C36.0018 105.031 35.5605 104.86 34.991 104.86C34.3361 104.86 33.8022 105.003 33.3893 105.287C32.9764 105.572 32.6916 106.035 32.535 106.675L30.2072 105.693C30.435 104.768 30.9476 104.041 31.7449 103.515C32.5422 102.988 33.5815 102.725 34.8628 102.725C36.3862 102.725 37.575 103.059 38.4293 103.728C39.2835 104.383 39.7106 105.358 39.7106 106.654V111.032C39.7106 111.317 39.7747 111.523 39.9028 111.651C40.031 111.779 40.2303 111.844 40.5008 111.844ZM34.3076 111.844C34.934 111.844 35.5035 111.694 36.0161 111.395C36.5428 111.082 36.8062 110.662 36.8062 110.135V109.025L34.5211 109.537C34.0371 109.651 33.674 109.808 33.432 110.007C33.2042 110.192 33.0903 110.455 33.0903 110.797C33.0903 111.139 33.1971 111.402 33.4106 111.587C33.6242 111.758 33.9232 111.844 34.3076 111.844Z" fill="#828282"/>
<path d="M49.2828 102.725C50.7065 102.725 51.8241 103.216 52.6356 104.198C53.4472 105.166 53.8529 106.519 53.8529 108.256C53.8529 110.007 53.4472 111.374 52.6356 112.356C51.8241 113.338 50.7065 113.83 49.2828 113.83C48.5139 113.83 47.8448 113.659 47.2753 113.317C46.7058 112.961 46.2573 112.477 45.9299 111.865V118.101H43.0041V102.938H45.5882L45.695 105.052C46.0082 104.34 46.4709 103.778 47.0831 103.365C47.7095 102.938 48.4428 102.725 49.2828 102.725ZM48.4072 111.587C49.2045 111.587 49.8238 111.303 50.2651 110.733C50.7065 110.164 50.9272 109.345 50.9272 108.277C50.9272 107.209 50.7065 106.391 50.2651 105.821C49.8238 105.252 49.2045 104.967 48.4072 104.967C47.6953 104.967 47.1187 105.216 46.6773 105.714C46.236 106.198 45.9868 106.896 45.9299 107.807V108.747C45.9868 109.644 46.236 110.341 46.6773 110.84C47.1187 111.338 47.6953 111.587 48.4072 111.587Z" fill="#828282"/>
<path d="M66.1321 111.844C66.4311 111.844 66.6731 111.815 66.8582 111.758L66.6446 113.531C66.246 113.73 65.7833 113.83 65.2565 113.83C63.8897 113.83 63.0711 113.296 62.8006 112.228C62.4873 112.755 62.0033 113.153 61.3484 113.424C60.6934 113.694 59.9175 113.83 59.0206 113.83C57.9812 113.83 57.1697 113.595 56.586 113.125C56.0023 112.655 55.7104 111.979 55.7104 111.096C55.7104 109.359 57.0985 108.234 59.8748 107.722L62.4375 107.231V106.718C62.4375 106.149 62.2738 105.7 61.9463 105.373C61.6331 105.031 61.1917 104.86 60.6223 104.86C59.9673 104.86 59.4334 105.003 59.0206 105.287C58.6077 105.572 58.3229 106.035 58.1663 106.675L55.8385 105.693C56.0663 104.768 56.5789 104.041 57.3762 103.515C58.1734 102.988 59.2128 102.725 60.4941 102.725C62.0175 102.725 63.2063 103.059 64.0606 103.728C64.9148 104.383 65.3419 105.358 65.3419 106.654V111.032C65.3419 111.317 65.406 111.523 65.5341 111.651C65.6623 111.779 65.8616 111.844 66.1321 111.844ZM59.9389 111.844C60.5653 111.844 61.1348 111.694 61.6473 111.395C62.1741 111.082 62.4375 110.662 62.4375 110.135V109.025L60.1524 109.537C59.6684 109.651 59.3053 109.808 59.0633 110.007C58.8355 110.192 58.7216 110.455 58.7216 110.797C58.7216 111.139 58.8284 111.402 59.0419 111.587C59.2555 111.758 59.5545 111.844 59.9389 111.844Z" fill="#828282"/>
<path d="M75.5434 112.954C75.2017 113.225 74.7675 113.438 74.2407 113.595C73.7281 113.751 73.1871 113.83 72.6176 113.83C70.24 113.83 69.0512 112.755 69.0512 110.605V105.116H67.1078V102.938H69.0512V100.482L71.9769 99.6706V102.938H75.4366V105.116H71.9769V110.135C71.9769 111.117 72.4681 111.609 73.4505 111.609C74.0769 111.609 74.6251 111.409 75.0949 111.011L75.5434 112.954Z" fill="#828282"/>
<path d="M83.9047 102.725C85.0579 102.725 85.9834 103.059 86.681 103.728C87.3929 104.397 87.7488 105.358 87.7488 106.611V113.616H84.823V107.466C84.823 105.843 84.1895 105.031 82.9224 105.031C82.239 105.031 81.6552 105.273 81.1712 105.757C80.7013 106.241 80.4664 106.981 80.4664 107.978V113.616H77.5407V98.2612H80.4664V104.753C80.7939 104.07 81.2495 103.565 81.8332 103.237C82.4312 102.895 83.1217 102.725 83.9047 102.725Z" fill="#828282"/>
<path d="M100.736 108.234C100.736 108.633 100.708 109.017 100.651 109.388H93.0908C93.3898 110.897 94.2796 111.651 95.7603 111.651C96.3725 111.651 96.8779 111.537 97.2765 111.31C97.6752 111.082 97.9528 110.754 98.1094 110.327L100.501 111.203C100.16 112.057 99.583 112.712 98.7715 113.168C97.9742 113.609 96.9705 113.83 95.7603 113.83C93.9949 113.83 92.6281 113.346 91.6599 112.377C90.6918 111.395 90.2077 110.028 90.2077 108.277C90.2077 106.526 90.6776 105.166 91.6172 104.198C92.5569 103.216 93.881 102.725 95.5894 102.725C97.241 102.725 98.5081 103.201 99.3908 104.155C100.288 105.109 100.736 106.469 100.736 108.234ZM95.5681 104.881C94.8562 104.881 94.2867 105.088 93.8596 105.501C93.4467 105.914 93.1833 106.526 93.0694 107.337H98.0454C97.9315 106.54 97.6609 105.935 97.2338 105.522C96.8067 105.095 96.2515 104.881 95.5681 104.881Z" fill="#828282"/>
<path d="M110.33 112.954C109.988 113.225 109.554 113.438 109.027 113.595C108.515 113.751 107.974 113.83 107.404 113.83C105.027 113.83 103.838 112.755 103.838 110.605V105.116H101.895V102.938H103.838V100.482L106.764 99.6706V102.938H110.223V105.116H106.764V110.135C106.764 111.117 107.255 111.609 108.237 111.609C108.864 111.609 109.412 111.409 109.882 111.011L110.33 112.954Z" fill="#828282"/>
<path d="M113.634 101.4C112.424 101.4 111.819 100.881 111.819 99.8415C111.819 98.7879 112.424 98.2612 113.634 98.2612C114.844 98.2612 115.449 98.7879 115.449 99.8415C115.449 100.881 114.844 101.4 113.634 101.4ZM115.086 113.616H112.161V102.938H115.086V113.616Z" fill="#828282"/>
<path d="M123.078 102.725C124.488 102.725 125.584 103.009 126.367 103.579C127.15 104.148 127.684 104.91 127.969 105.864L125.235 106.846C124.979 105.551 124.289 104.903 123.164 104.903C122.324 104.903 121.676 105.195 121.22 105.778C120.779 106.348 120.558 107.188 120.558 108.298C120.558 109.409 120.786 110.249 121.242 110.818C121.697 111.374 122.331 111.651 123.142 111.651C124.395 111.651 125.136 111.018 125.363 109.751L128.012 110.605C127.784 111.587 127.25 112.37 126.41 112.954C125.584 113.538 124.509 113.83 123.185 113.83C121.42 113.83 120.053 113.346 119.085 112.377C118.117 111.395 117.633 110.028 117.633 108.277C117.633 106.526 118.11 105.166 119.063 104.198C120.032 103.216 121.37 102.725 123.078 102.725Z" fill="#828282"/>
<path d="M143.949 112.954C143.607 113.225 143.173 113.438 142.646 113.595C142.134 113.751 141.593 113.83 141.023 113.83C138.646 113.83 137.457 112.755 137.457 110.605V105.116H135.514V102.938H137.457V100.482L140.383 99.6706V102.938H143.842V105.116H140.383V110.135C140.383 111.117 140.874 111.609 141.856 111.609C142.483 111.609 143.031 111.409 143.501 111.011L143.949 112.954Z" fill="#828282"/>
<path d="M150.691 102.725C152.414 102.725 153.752 103.216 154.706 104.198C155.674 105.18 156.159 106.54 156.159 108.277C156.159 110.014 155.674 111.374 154.706 112.356C153.752 113.338 152.414 113.83 150.691 113.83C148.969 113.83 147.623 113.338 146.655 112.356C145.701 111.374 145.224 110.014 145.224 108.277C145.224 106.54 145.701 105.18 146.655 104.198C147.623 103.216 148.969 102.725 150.691 102.725ZM150.691 104.903C149.866 104.903 149.232 105.188 148.791 105.757C148.364 106.312 148.15 107.152 148.15 108.277C148.15 109.402 148.364 110.249 148.791 110.818C149.232 111.374 149.866 111.651 150.691 111.651C151.517 111.651 152.144 111.374 152.571 110.818C153.012 110.249 153.233 109.402 153.233 108.277C153.233 107.152 153.012 106.312 152.571 105.757C152.144 105.188 151.517 104.903 150.691 104.903Z" fill="#828282"/>
<path d="M172.271 112.954C171.929 113.225 171.495 113.438 170.968 113.595C170.455 113.751 169.914 113.83 169.345 113.83C166.967 113.83 165.779 112.755 165.779 110.605V105.116H163.835V102.938H165.779V100.482L168.704 99.6706V102.938H172.164V105.116H168.704V110.135C168.704 111.117 169.195 111.609 170.178 111.609C170.804 111.609 171.352 111.409 171.822 111.011L172.271 112.954Z" fill="#828282"/>
<path d="M180.632 102.725C181.785 102.725 182.711 103.059 183.408 103.728C184.12 104.397 184.476 105.358 184.476 106.611V113.616H181.55V107.466C181.55 105.843 180.917 105.031 179.65 105.031C178.966 105.031 178.383 105.273 177.899 105.757C177.429 106.241 177.194 106.981 177.194 107.978V113.616H174.268V98.2612H177.194V104.753C177.521 104.07 177.977 103.565 178.561 103.237C179.159 102.895 179.849 102.725 180.632 102.725Z" fill="#828282"/>
<path d="M197.464 108.234C197.464 108.633 197.435 109.017 197.378 109.388H189.818C190.117 110.897 191.007 111.651 192.488 111.651C193.1 111.651 193.605 111.537 194.004 111.31C194.403 111.082 194.68 110.754 194.837 110.327L197.229 111.203C196.887 112.057 196.31 112.712 195.499 113.168C194.702 113.609 193.698 113.83 192.488 113.83C190.722 113.83 189.355 113.346 188.387 112.377C187.419 111.395 186.935 110.028 186.935 108.277C186.935 106.526 187.405 105.166 188.345 104.198C189.284 103.216 190.608 102.725 192.317 102.725C193.968 102.725 195.235 103.201 196.118 104.155C197.015 105.109 197.464 106.469 197.464 108.234ZM192.295 104.881C191.584 104.881 191.014 105.088 190.587 105.501C190.174 105.914 189.911 106.526 189.797 107.337H194.773C194.659 106.54 194.388 105.935 193.961 105.522C193.534 105.095 192.979 104.881 192.295 104.881Z" fill="#828282"/>
<path d="M201.394 101.4C200.184 101.4 199.578 100.881 199.578 99.8415C199.578 98.7879 200.184 98.2612 201.394 98.2612C202.604 98.2612 203.209 98.7879 203.209 99.8415C203.209 100.881 202.604 101.4 201.394 101.4ZM202.846 113.616H199.92V102.938H202.846V113.616Z" fill="#828282"/>
<path d="M211.991 102.725C212.489 102.725 212.874 102.803 213.144 102.959L212.781 105.522C212.454 105.309 212.005 105.202 211.436 105.202C210.738 105.202 210.133 105.458 209.621 105.971C209.122 106.469 208.873 107.174 208.873 108.085V113.616H205.947V102.938H208.489L208.681 105.031C209.265 103.493 210.368 102.725 211.991 102.725Z" fill="#828282"/>
<path d="M227.473 102.725C228.627 102.725 229.552 103.059 230.25 103.728C230.961 104.397 231.317 105.358 231.317 106.611V113.616H228.392V107.466C228.392 105.843 227.758 105.031 226.491 105.031C225.808 105.031 225.224 105.273 224.74 105.757C224.27 106.241 224.035 106.981 224.035 107.978V113.616H221.109V98.2612H224.035V104.753C224.362 104.07 224.818 103.565 225.402 103.237C226 102.895 226.69 102.725 227.473 102.725Z" fill="#828282"/>
<path d="M244.305 108.234C244.305 108.633 244.276 109.017 244.219 109.388H236.659C236.958 110.897 237.848 111.651 239.329 111.651C239.941 111.651 240.446 111.537 240.845 111.31C241.244 111.082 241.521 110.754 241.678 110.327L244.07 111.203C243.728 112.057 243.152 112.712 242.34 113.168C241.543 113.609 240.539 113.83 239.329 113.83C237.563 113.83 236.197 113.346 235.229 112.377C234.26 111.395 233.776 110.028 233.776 108.277C233.776 106.526 234.246 105.166 235.186 104.198C236.125 103.216 237.45 102.725 239.158 102.725C240.81 102.725 242.077 103.201 242.959 104.155C243.856 105.109 244.305 106.469 244.305 108.234ZM239.137 104.881C238.425 104.881 237.855 105.088 237.428 105.501C237.015 105.914 236.752 106.526 236.638 107.337H241.614C241.5 106.54 241.23 105.935 240.802 105.522C240.375 105.095 239.82 104.881 239.137 104.881Z" fill="#828282"/>
<path d="M256.521 111.844C256.82 111.844 257.062 111.815 257.247 111.758L257.034 113.531C256.635 113.73 256.172 113.83 255.645 113.83C254.279 113.83 253.46 113.296 253.19 112.228C252.876 112.755 252.392 113.153 251.737 113.424C251.082 113.694 250.306 113.83 249.41 113.83C248.37 113.83 247.559 113.595 246.975 113.125C246.391 112.655 246.099 111.979 246.099 111.096C246.099 109.359 247.487 108.234 250.264 107.722L252.826 107.231V106.718C252.826 106.149 252.663 105.7 252.335 105.373C252.022 105.031 251.581 104.86 251.011 104.86C250.356 104.86 249.822 105.003 249.41 105.287C248.997 105.572 248.712 106.035 248.555 106.675L246.227 105.693C246.455 104.768 246.968 104.041 247.765 103.515C248.562 102.988 249.602 102.725 250.883 102.725C252.406 102.725 253.595 103.059 254.45 103.728C255.304 104.383 255.731 105.358 255.731 106.654V111.032C255.731 111.317 255.795 111.523 255.923 111.651C256.051 111.779 256.251 111.844 256.521 111.844ZM250.328 111.844C250.954 111.844 251.524 111.694 252.036 111.395C252.563 111.082 252.826 110.662 252.826 110.135V109.025L250.541 109.537C250.057 109.651 249.694 109.808 249.452 110.007C249.224 110.192 249.111 110.455 249.111 110.797C249.111 111.139 249.217 111.402 249.431 111.587C249.644 111.758 249.943 111.844 250.328 111.844Z" fill="#828282"/>
<path d="M261.907 110.22C261.907 110.733 261.979 111.089 262.121 111.288C262.278 111.488 262.555 111.587 262.954 111.587C263.196 111.587 263.402 111.573 263.573 111.545C263.758 111.502 263.972 111.438 264.214 111.352L263.958 113.381C263.73 113.524 263.431 113.63 263.061 113.701C262.69 113.787 262.327 113.83 261.971 113.83C260.932 113.83 260.17 113.58 259.686 113.082C259.217 112.57 258.982 111.758 258.982 110.648V98.2612H261.907V110.22Z" fill="#828282"/>
<path d="M272.794 112.954C272.452 113.225 272.018 113.438 271.491 113.595C270.979 113.751 270.438 113.83 269.868 113.83C267.49 113.83 266.302 112.755 266.302 110.605V105.116H264.358V102.938H266.302V100.482L269.227 99.6706V102.938H272.687V105.116H269.227V110.135C269.227 111.117 269.719 111.609 270.701 111.609C271.327 111.609 271.875 111.409 272.345 111.011L272.794 112.954Z" fill="#828282"/>
<path d="M281.155 102.725C282.308 102.725 283.234 103.059 283.931 103.728C284.643 104.397 284.999 105.358 284.999 106.611V113.616H282.073V107.466C282.073 105.843 281.44 105.031 280.173 105.031C279.489 105.031 278.906 105.273 278.422 105.757C277.952 106.241 277.717 106.981 277.717 107.978V113.616H274.791V98.2612H277.717V104.753C278.044 104.07 278.5 103.565 279.084 103.237C279.682 102.895 280.372 102.725 281.155 102.725Z" fill="#828282"/>
<path d="M0.680664 163.283L315 0" stroke="#BDBDBD" stroke-width="2"/>
</g>
</svg>
