<svg width="315" height="164" viewBox="0 0 315 164" fill="none" xmlns="http://www.w3.org/2000/svg">
<path d="M2 2H313V77.6323V161.283H2V81.6415V2Z" fill="white" stroke="#333333" stroke-width="4"/>
<path d="M62.2695 63.5629H59.6214V56.2165L59.7495 52.0948H59.7068L55.7987 63.5629H53.3855L49.4987 52.0948H49.456L49.6054 56.2165V63.5629H46.936V49.468H51.2071L53.7485 57.1561L54.6455 60.3382H54.6882L55.6065 57.1775L58.1265 49.468H62.2695V63.5629Z" fill="#333333"/>
<path d="M75.4843 58.1812C75.4843 58.5799 75.4559 58.9643 75.3989 59.3344H67.8389C68.1379 60.8436 69.0277 61.5982 70.5084 61.5982C71.1206 61.5982 71.626 61.4843 72.0247 61.2565C72.4233 61.0287 72.7009 60.7012 72.8576 60.2741L75.2494 61.1497C74.9077 62.0039 74.3311 62.6589 73.5196 63.1144C72.7223 63.5558 71.7186 63.7765 70.5084 63.7765C68.743 63.7765 67.3762 63.2924 66.4081 62.3243C65.4399 61.3419 64.9559 59.9751 64.9559 58.2239C64.9559 56.4728 65.4257 55.1131 66.3654 54.145C67.305 53.1626 68.6291 52.6714 70.3376 52.6714C71.9891 52.6714 73.2562 53.1483 74.1389 54.1022C75.0359 55.0561 75.4843 56.4158 75.4843 58.1812ZM70.3162 54.8283C69.6043 54.8283 69.0348 55.0348 68.6077 55.4477C68.1948 55.8606 67.9315 56.4728 67.8176 57.2843H72.7935C72.6796 56.487 72.4091 55.8819 71.982 55.469C71.5548 55.0419 70.9996 54.8283 70.3162 54.8283Z" fill="#333333"/>
<path d="M87.7006 61.7904C87.9996 61.7904 88.2416 61.7619 88.4267 61.705L88.2131 63.4775C87.8145 63.6768 87.3518 63.7765 86.825 63.7765C85.4582 63.7765 84.6396 63.2426 84.3691 62.1748C84.0559 62.7016 83.5718 63.1002 82.9169 63.3707C82.262 63.6412 81.486 63.7765 80.5891 63.7765C79.5498 63.7765 78.7382 63.5416 78.1545 63.0717C77.5708 62.6019 77.2789 61.9256 77.2789 61.0429C77.2789 59.306 78.667 58.1812 81.4433 57.6687L84.006 57.1775V56.665C84.006 56.0955 83.8423 55.647 83.5148 55.3195C83.2016 54.9778 82.7603 54.807 82.1908 54.807C81.5358 54.807 81.002 54.9494 80.5891 55.2341C80.1762 55.5189 79.8914 55.9816 79.7348 56.6222L77.407 55.6399C77.6348 54.7144 78.1474 53.9883 78.9447 53.4616C79.742 52.9348 80.7813 52.6714 82.0626 52.6714C83.586 52.6714 84.7748 53.006 85.6291 53.6751C86.4833 54.33 86.9104 55.3053 86.9104 56.6009V60.9789C86.9104 61.2636 86.9745 61.47 87.1026 61.5982C87.2308 61.7263 87.4301 61.7904 87.7006 61.7904ZM81.5074 61.7904C82.1338 61.7904 82.7033 61.6409 83.2159 61.3419C83.7426 61.0287 84.006 60.6087 84.006 60.0819V58.9714L81.7209 59.4839C81.2369 59.5978 80.8738 59.7544 80.6318 59.9538C80.404 60.1389 80.2901 60.4022 80.2901 60.7439C80.2901 61.0856 80.3969 61.349 80.6104 61.5341C80.824 61.705 81.123 61.7904 81.5074 61.7904Z" fill="#333333"/>
<path d="M93.087 60.1673C93.087 60.6799 93.1581 61.0358 93.3005 61.2351C93.4571 61.4344 93.7348 61.5341 94.1334 61.5341C94.3754 61.5341 94.5819 61.5199 94.7527 61.4914C94.9378 61.4487 95.1514 61.3846 95.3934 61.2992L95.1371 63.328C94.9093 63.4704 94.6104 63.5772 94.2402 63.6483C93.87 63.7338 93.507 63.7765 93.151 63.7765C92.1117 63.7765 91.35 63.5273 90.8659 63.029C90.3961 62.5165 90.1612 61.705 90.1612 60.5944V48.208H93.087V60.1673Z" fill="#333333"/>
<path d="M103.943 59.1636H96.404V56.6436H103.943V59.1636Z" fill="#333333"/>
<path d="M113.563 52.6714C114.987 52.6714 116.104 53.1626 116.916 54.145C117.728 55.1131 118.133 56.4656 118.133 58.2026C118.133 59.9538 117.728 61.3206 116.916 62.3029C116.104 63.2853 114.987 63.7765 113.563 63.7765C112.794 63.7765 112.125 63.6056 111.556 63.2639C110.986 62.908 110.538 62.4239 110.21 61.8117V68.0477H107.284V52.885H109.869L109.975 54.9992C110.289 54.2873 110.751 53.725 111.363 53.3121C111.99 52.885 112.723 52.6714 113.563 52.6714ZM112.688 61.5341C113.485 61.5341 114.104 61.2494 114.546 60.6799C114.987 60.1104 115.208 59.2917 115.208 58.2239C115.208 57.1561 114.987 56.3375 114.546 55.768C114.104 55.1985 113.485 54.9138 112.688 54.9138C111.976 54.9138 111.399 55.1629 110.958 55.6612C110.516 56.1453 110.267 56.8429 110.21 57.7541V58.6938C110.267 59.5907 110.516 60.2883 110.958 60.7867C111.399 61.285 111.976 61.5341 112.688 61.5341Z" fill="#333333"/>
<path d="M123.598 60.1673C123.598 60.6799 123.67 61.0358 123.812 61.2351C123.969 61.4344 124.246 61.5341 124.645 61.5341C124.887 61.5341 125.093 61.5199 125.264 61.4914C125.449 61.4487 125.663 61.3846 125.905 61.2992L125.649 63.328C125.421 63.4704 125.122 63.5772 124.752 63.6483C124.381 63.7338 124.018 63.7765 123.662 63.7765C122.623 63.7765 121.861 63.5273 121.377 63.029C120.908 62.5165 120.673 61.705 120.673 60.5944V48.208H123.598V60.1673Z" fill="#333333"/>
<path d="M137.316 61.7904C137.615 61.7904 137.857 61.7619 138.042 61.705L137.828 63.4775C137.429 63.6768 136.967 63.7765 136.44 63.7765C135.073 63.7765 134.255 63.2426 133.984 62.1748C133.671 62.7016 133.187 63.1002 132.532 63.3707C131.877 63.6412 131.101 63.7765 130.204 63.7765C129.165 63.7765 128.353 63.5416 127.769 63.0717C127.186 62.6019 126.894 61.9256 126.894 61.0429C126.894 59.306 128.282 58.1812 131.058 57.6687L133.621 57.1775V56.665C133.621 56.0955 133.457 55.647 133.13 55.3195C132.817 54.9778 132.375 54.807 131.806 54.807C131.151 54.807 130.617 54.9494 130.204 55.2341C129.791 55.5189 129.506 55.9816 129.35 56.6222L127.022 55.6399C127.25 54.7144 127.762 53.9883 128.56 53.4616C129.357 52.9348 130.396 52.6714 131.678 52.6714C133.201 52.6714 134.39 53.006 135.244 53.6751C136.098 54.33 136.525 55.3053 136.525 56.6009V60.9789C136.525 61.2636 136.589 61.47 136.718 61.5982C136.846 61.7263 137.045 61.7904 137.316 61.7904ZM131.122 61.7904C131.749 61.7904 132.318 61.6409 132.831 61.3419C133.358 61.0287 133.621 60.6087 133.621 60.0819V58.9714L131.336 59.4839C130.852 59.5978 130.489 59.7544 130.247 59.9538C130.019 60.1389 129.905 60.4022 129.905 60.7439C129.905 61.0856 130.012 61.349 130.225 61.5341C130.439 61.705 130.738 61.7904 131.122 61.7904Z" fill="#333333"/>
<path d="M146.183 52.6714C147.336 52.6714 148.262 53.006 148.959 53.6751C149.671 54.3443 150.027 55.3053 150.027 56.5582V63.5629H147.101V57.4124C147.101 55.7894 146.468 54.9778 145.201 54.9778C144.517 54.9778 143.933 55.2199 143.449 55.7039C142.98 56.188 142.745 56.9283 142.745 57.925V63.5629H139.819V52.885H142.446L142.531 54.7856C142.887 54.088 143.378 53.5612 144.005 53.2053C144.631 52.8494 145.357 52.6714 146.183 52.6714Z" fill="#333333"/>
<path d="M159.405 52.6714C160.559 52.6714 161.484 53.006 162.182 53.6751C162.893 54.3443 163.249 55.3053 163.249 56.5582V63.5629H160.324V57.4124C160.324 55.7894 159.69 54.9778 158.423 54.9778C157.74 54.9778 157.156 55.2199 156.672 55.7039C156.202 56.188 155.967 56.9283 155.967 57.925V63.5629H153.041V52.885H155.668L155.753 54.7856C156.109 54.088 156.601 53.5612 157.227 53.2053C157.853 52.8494 158.58 52.6714 159.405 52.6714Z" fill="#333333"/>
<path d="M167.737 51.3473C166.527 51.3473 165.922 50.8277 165.922 49.7883C165.922 48.7348 166.527 48.208 167.737 48.208C168.947 48.208 169.552 48.7348 169.552 49.7883C169.552 50.8277 168.947 51.3473 167.737 51.3473ZM169.189 63.5629H166.264V52.885H169.189V63.5629Z" fill="#333333"/>
<path d="M178.655 52.6714C179.808 52.6714 180.733 53.006 181.431 53.6751C182.143 54.3443 182.499 55.3053 182.499 56.5582V63.5629H179.573V57.4124C179.573 55.7894 178.94 54.9778 177.672 54.9778C176.989 54.9778 176.405 55.2199 175.921 55.7039C175.451 56.188 175.217 56.9283 175.217 57.925V63.5629H172.291V52.885H174.918L175.003 54.7856C175.359 54.088 175.85 53.5612 176.477 53.2053C177.103 52.8494 177.829 52.6714 178.655 52.6714Z" fill="#333333"/>
<path d="M192.005 61.5555C193.173 61.5555 194.07 61.8117 194.696 62.3243C195.337 62.8368 195.657 63.57 195.657 64.5239C195.657 65.6629 195.13 66.5528 194.077 67.1934C193.023 67.8341 191.635 68.1544 189.912 68.1544C188.133 68.1544 186.809 67.9195 185.94 67.4497C185.086 66.9799 184.659 66.3392 184.659 65.5277C184.659 65.0436 184.823 64.6236 185.15 64.2677C185.478 63.9117 185.962 63.6555 186.602 63.4989C186.118 63.2995 185.734 63.0219 185.449 62.666C185.164 62.2958 185.022 61.8616 185.022 61.3633C185.022 60.8507 185.171 60.4094 185.47 60.0392C185.769 59.669 186.182 59.3914 186.709 59.2063C186.168 58.8931 185.755 58.4944 185.47 58.0104C185.186 57.5121 185.043 56.9426 185.043 56.3019C185.043 55.1772 185.478 54.2944 186.346 53.6538C187.229 52.9989 188.425 52.6714 189.934 52.6714C190.703 52.6714 191.422 52.7639 192.091 52.949C192.276 52.109 192.632 51.4541 193.159 50.9843C193.7 50.5002 194.426 50.2867 195.337 50.3436L195.721 52.4365C195.622 52.4222 195.472 52.4151 195.273 52.4151C194.746 52.4151 194.305 52.5077 193.949 52.6928C193.607 52.8778 193.365 53.127 193.223 53.4402C193.749 53.7534 194.148 54.1521 194.419 54.6361C194.703 55.1202 194.846 55.6755 194.846 56.3019C194.846 57.4124 194.404 58.2951 193.522 58.95C192.653 59.5907 191.457 59.9111 189.934 59.9111C189.236 59.9111 188.595 59.847 188.012 59.7189C187.456 59.8612 187.179 60.1816 187.179 60.6799C187.179 60.9646 187.286 61.1853 187.499 61.3419C187.713 61.4843 188.012 61.5555 188.396 61.5555H192.005ZM189.934 54.508C189.364 54.508 188.894 54.6717 188.524 54.9992C188.168 55.3267 187.99 55.7538 187.99 56.2806C187.99 56.8216 188.168 57.2558 188.524 57.5833C188.894 57.9107 189.364 58.0745 189.934 58.0745C190.518 58.0745 190.987 57.9107 191.343 57.5833C191.713 57.2558 191.899 56.8216 191.899 56.2806C191.899 55.7538 191.713 55.3267 191.343 54.9992C190.987 54.6717 190.518 54.508 189.934 54.508ZM190.147 66.147C191.144 66.147 191.913 66.0189 192.454 65.7626C192.995 65.5206 193.265 65.2073 193.265 64.8229C193.265 64.5239 193.137 64.2961 192.881 64.1395C192.639 63.9972 192.233 63.926 191.664 63.926H188.759C187.578 63.926 186.987 64.2463 186.987 64.887C186.987 65.2856 187.25 65.5917 187.777 65.8053C188.304 66.0331 189.094 66.147 190.147 66.147Z" fill="#333333"/>
<path d="M213.751 61.7904C214.05 61.7904 214.292 61.7619 214.477 61.705L214.263 63.4775C213.865 63.6768 213.402 63.7765 212.875 63.7765C211.508 63.7765 210.69 63.2426 210.419 62.1748C210.106 62.7016 209.622 63.1002 208.967 63.3707C208.312 63.6412 207.536 63.7765 206.639 63.7765C205.6 63.7765 204.788 63.5416 204.205 63.0717C203.621 62.6019 203.329 61.9256 203.329 61.0429C203.329 59.306 204.717 58.1812 207.493 57.6687L210.056 57.1775V56.665C210.056 56.0955 209.892 55.647 209.565 55.3195C209.252 54.9778 208.81 54.807 208.241 54.807C207.586 54.807 207.052 54.9494 206.639 55.2341C206.226 55.5189 205.941 55.9816 205.785 56.6222L203.457 55.6399C203.685 54.7144 204.197 53.9883 204.995 53.4616C205.792 52.9348 206.831 52.6714 208.113 52.6714C209.636 52.6714 210.825 53.006 211.679 53.6751C212.533 54.33 212.96 55.3053 212.96 56.6009V60.9789C212.96 61.2636 213.025 61.47 213.153 61.5982C213.281 61.7263 213.48 61.7904 213.751 61.7904ZM207.557 61.7904C208.184 61.7904 208.753 61.6409 209.266 61.3419C209.793 61.0287 210.056 60.6087 210.056 60.0819V58.9714L207.771 59.4839C207.287 59.5978 206.924 59.7544 206.682 59.9538C206.454 60.1389 206.34 60.4022 206.34 60.7439C206.34 61.0856 206.447 61.349 206.66 61.5341C206.874 61.705 207.173 61.7904 207.557 61.7904Z" fill="#333333"/>
<path d="M222.533 52.6714C223.956 52.6714 225.074 53.1626 225.885 54.145C226.697 55.1131 227.103 56.4656 227.103 58.2026C227.103 59.9538 226.697 61.3206 225.885 62.3029C225.074 63.2853 223.956 63.7765 222.533 63.7765C221.764 63.7765 221.095 63.6056 220.525 63.2639C219.956 62.908 219.507 62.4239 219.18 61.8117V68.0477H216.254V52.885H218.838L218.945 54.9992C219.258 54.2873 219.721 53.725 220.333 53.3121C220.959 52.885 221.693 52.6714 222.533 52.6714ZM221.657 61.5341C222.454 61.5341 223.074 61.2494 223.515 60.6799C223.956 60.1104 224.177 59.2917 224.177 58.2239C224.177 57.1561 223.956 56.3375 223.515 55.768C223.074 55.1985 222.454 54.9138 221.657 54.9138C220.945 54.9138 220.369 55.1629 219.927 55.6612C219.486 56.1453 219.237 56.8429 219.18 57.7541V58.6938C219.237 59.5907 219.486 60.2883 219.927 60.7867C220.369 61.285 220.945 61.5341 221.657 61.5341Z" fill="#333333"/>
<path d="M235.963 52.6714C237.387 52.6714 238.505 53.1626 239.316 54.145C240.128 55.1131 240.534 56.4656 240.534 58.2026C240.534 59.9538 240.128 61.3206 239.316 62.3029C238.505 63.2853 237.387 63.7765 235.963 63.7765C235.195 63.7765 234.526 63.6056 233.956 63.2639C233.387 62.908 232.938 62.4239 232.611 61.8117V68.0477H229.685V52.885H232.269L232.376 54.9992C232.689 54.2873 233.152 53.725 233.764 53.3121C234.39 52.885 235.123 52.6714 235.963 52.6714ZM235.088 61.5341C235.885 61.5341 236.504 61.2494 236.946 60.6799C237.387 60.1104 237.608 59.2917 237.608 58.2239C237.608 57.1561 237.387 56.3375 236.946 55.768C236.504 55.1985 235.885 54.9138 235.088 54.9138C234.376 54.9138 233.799 55.1629 233.358 55.6612C232.917 56.1453 232.668 56.8429 232.611 57.7541V58.6938C232.668 59.5907 232.917 60.2883 233.358 60.7867C233.799 61.285 234.376 61.5341 235.088 61.5341Z" fill="#333333"/>
<path d="M256.718 62.9009C256.377 63.1714 255.942 63.385 255.416 63.5416C254.903 63.6982 254.362 63.7765 253.793 63.7765C251.415 63.7765 250.226 62.7016 250.226 60.5517V55.0633H248.283V52.885H250.226V50.429L253.152 49.6175V52.885H256.611V55.0633H253.152V60.0819C253.152 61.0643 253.643 61.5555 254.625 61.5555C255.252 61.5555 255.8 61.3561 256.27 60.9575L256.718 62.9009Z" fill="#333333"/>
<path d="M263.461 52.6714C265.183 52.6714 266.522 53.1626 267.475 54.145C268.444 55.1273 268.928 56.487 268.928 58.2239C268.928 59.9609 268.444 61.3206 267.475 62.3029C266.522 63.2853 265.183 63.7765 263.461 63.7765C261.738 63.7765 260.392 63.2853 259.424 62.3029C258.47 61.3206 257.993 59.9609 257.993 58.2239C257.993 56.487 258.47 55.1273 259.424 54.145C260.392 53.1626 261.738 52.6714 263.461 52.6714ZM263.461 54.8497C262.635 54.8497 262.001 55.1344 261.56 55.7039C261.133 56.2592 260.919 57.0992 260.919 58.2239C260.919 59.3487 261.133 60.1958 261.56 60.7653C262.001 61.3205 262.635 61.5982 263.461 61.5982C264.286 61.5982 264.913 61.3205 265.34 60.7653C265.781 60.1958 266.002 59.3487 266.002 58.2239C266.002 57.0992 265.781 56.2592 265.34 55.7039C264.913 55.1344 264.286 54.8497 263.461 54.8497Z" fill="#333333"/>
<path d="M45.8268 77.3642C46.98 77.3642 47.9054 77.6988 48.6031 78.3679C49.3149 79.0371 49.6709 79.9981 49.6709 81.251V88.2557H46.7451V82.1052C46.7451 80.4822 46.1115 79.6706 44.8444 79.6706C44.161 79.6706 43.5773 79.9127 43.0932 80.3967C42.6234 80.8808 42.3885 81.6211 42.3885 82.6178V88.2557H39.4627V72.9008H42.3885V79.393C42.7159 78.7096 43.1715 78.2042 43.7553 77.8767C44.3532 77.535 45.0437 77.3642 45.8268 77.3642Z" fill="#333333"/>
<path d="M62.6583 82.874C62.6583 83.2727 62.6298 83.6571 62.5728 84.0272H55.0128C55.3118 85.5364 56.2017 86.291 57.6823 86.291C58.2945 86.291 58.8 86.1771 59.1986 85.9493C59.5972 85.7215 59.8749 85.394 60.0315 84.9669L62.4233 85.8425C62.0817 86.6967 61.505 87.3517 60.6935 87.8073C59.8962 88.2486 58.8925 88.4693 57.6823 88.4693C55.9169 88.4693 54.5501 87.9852 53.582 87.0171C52.6139 86.0347 52.1298 84.6679 52.1298 82.9167C52.1298 81.1656 52.5996 79.8059 53.5393 78.8378C54.4789 77.8554 55.803 77.3642 57.5115 77.3642C59.163 77.3642 60.4301 77.8411 61.3128 78.795C62.2098 79.7489 62.6583 81.1086 62.6583 82.874ZM57.4901 79.5211C56.7783 79.5211 56.2088 79.7276 55.7817 80.1405C55.3688 80.5533 55.1054 81.1656 54.9915 81.9771H59.9674C59.8535 81.1798 59.583 80.5747 59.1559 80.1618C58.7288 79.7347 58.1735 79.5211 57.4901 79.5211Z" fill="#333333"/>
<path d="M67.9979 84.8601C67.9979 85.3727 68.0691 85.7286 68.2115 85.9279C68.3681 86.1272 68.6457 86.2269 69.0444 86.2269C69.2864 86.2269 69.4928 86.2127 69.6637 86.1842C69.8488 86.1415 70.0623 86.0774 70.3044 85.992L70.0481 88.0208C69.8203 88.1632 69.5213 88.27 69.1511 88.3411C68.781 88.4266 68.4179 88.4693 68.062 88.4693C67.0227 88.4693 66.261 88.2201 65.7769 87.7218C65.3071 87.2093 65.0722 86.3978 65.0722 85.2872V72.9008H67.9979V84.8601Z" fill="#333333"/>
<path d="M78.2132 77.3642C79.637 77.3642 80.7546 77.8554 81.5661 78.8378C82.3776 79.8059 82.7834 81.1584 82.7834 82.8954C82.7834 84.6466 82.3776 86.0133 81.5661 86.9957C80.7546 87.9781 79.637 88.4693 78.2132 88.4693C77.4444 88.4693 76.7753 88.2984 76.2058 87.9567C75.6363 87.6008 75.1878 87.1167 74.8603 86.5045V92.7405H71.9346V77.5778H74.5187L74.6254 79.692C74.9386 78.9801 75.4014 78.4178 76.0136 78.0049C76.64 77.5778 77.3732 77.3642 78.2132 77.3642ZM77.3376 86.2269C78.1349 86.2269 78.7542 85.9422 79.1956 85.3727C79.637 84.8032 79.8576 83.9845 79.8576 82.9167C79.8576 81.8489 79.637 81.0303 79.1956 80.4608C78.7542 79.8913 78.1349 79.6066 77.3376 79.6066C76.6258 79.6066 76.0492 79.8557 75.6078 80.354C75.1664 80.8381 74.9173 81.5357 74.8603 82.4469V83.3866C74.9173 84.2835 75.1664 84.9811 75.6078 85.4794C76.0492 85.9778 76.6258 86.2269 77.3376 86.2269Z" fill="#333333"/>
<path d="M101.653 86.4832C101.952 86.4832 102.194 86.4547 102.379 86.3978L102.165 88.1703C101.767 88.3696 101.304 88.4693 100.777 88.4693C99.4105 88.4693 98.5918 87.9354 98.3213 86.8676C98.0081 87.3944 97.524 87.793 96.8691 88.0635C96.2142 88.334 95.4383 88.4693 94.5413 88.4693C93.502 88.4693 92.6905 88.2344 92.1068 87.7645C91.523 87.2947 91.2312 86.6184 91.2312 85.7357C91.2312 83.9988 92.6193 82.874 95.3956 82.3615L97.9583 81.8703V81.3578C97.9583 80.7883 97.7946 80.3398 97.4671 80.0123C97.1539 79.6706 96.7125 79.4998 96.143 79.4998C95.4881 79.4998 94.9542 79.6422 94.5413 79.9269C94.1285 80.2117 93.8437 80.6744 93.6871 81.315L91.3593 80.3327C91.5871 79.4072 92.0996 78.6811 92.8969 78.1544C93.6942 77.6276 94.7335 77.3642 96.0149 77.3642C97.5383 77.3642 98.7271 77.6988 99.5813 78.3679C100.436 79.0228 100.863 79.9981 100.863 81.2937V85.6717C100.863 85.9564 100.927 86.1628 101.055 86.291C101.183 86.4191 101.382 86.4832 101.653 86.4832ZM95.4596 86.4832C96.0861 86.4832 96.6556 86.3337 97.1681 86.0347C97.6949 85.7215 97.9583 85.3015 97.9583 84.7747V83.6642L95.6732 84.1767C95.1891 84.2906 94.8261 84.4472 94.584 84.6466C94.3562 84.8316 94.2424 85.095 94.2424 85.4367C94.2424 85.7784 94.3491 86.0418 94.5627 86.2269C94.7762 86.3978 95.0752 86.4832 95.4596 86.4832Z" fill="#333333"/>
<path d="M114.451 72.9008V88.2557H111.845L111.717 86.2696C111.404 86.9388 110.934 87.4727 110.308 87.8713C109.695 88.27 108.991 88.4693 108.193 88.4693C106.77 88.4693 105.652 87.9852 104.841 87.0171C104.029 86.0347 103.623 84.675 103.623 82.9381C103.623 81.1869 104.029 79.8201 104.841 78.8378C105.652 77.8554 106.77 77.3642 108.193 77.3642C108.962 77.3642 109.631 77.5422 110.201 77.8981C110.77 78.2398 111.212 78.7167 111.525 79.3289V72.9008H114.451ZM109.048 86.2269C109.816 86.2269 110.422 85.9493 110.863 85.394C111.304 84.8388 111.525 84.0486 111.525 83.0235V82.81C111.525 81.7991 111.304 81.0161 110.863 80.4608C110.422 79.8913 109.816 79.6066 109.048 79.6066C108.265 79.6066 107.652 79.8913 107.211 80.4608C106.77 81.0303 106.549 81.8489 106.549 82.9167C106.549 83.9845 106.77 84.8032 107.211 85.3727C107.652 85.9422 108.265 86.2269 109.048 86.2269Z" fill="#333333"/>
<path d="M127.689 77.5778V88.2557H125.084L124.977 86.4191C124.294 87.7859 123.048 88.4693 121.24 88.4693C120.087 88.4693 119.168 88.1632 118.485 87.551C117.816 86.9245 117.481 85.9564 117.481 84.6466V77.5778H120.407V83.8991C120.407 84.7249 120.564 85.3086 120.877 85.6503C121.19 85.992 121.653 86.1628 122.265 86.1628C123.005 86.1628 123.603 85.9279 124.059 85.4581C124.529 84.974 124.764 84.255 124.764 83.3011V77.5778H127.689Z" fill="#333333"/>
<path d="M133.651 84.8601C133.651 85.3727 133.722 85.7286 133.864 85.9279C134.021 86.1272 134.299 86.2269 134.697 86.2269C134.939 86.2269 135.146 86.2127 135.316 86.1842C135.502 86.1415 135.715 86.0774 135.957 85.992L135.701 88.0208C135.473 88.1632 135.174 88.27 134.804 88.3411C134.434 88.4266 134.071 88.4693 133.715 88.4693C132.675 88.4693 131.914 88.2201 131.43 87.7218C130.96 87.2093 130.725 86.3978 130.725 85.2872V72.9008H133.651V84.8601Z" fill="#333333"/>
<path d="M144.537 87.5937C144.195 87.8642 143.761 88.0778 143.234 88.2344C142.722 88.391 142.181 88.4693 141.611 88.4693C139.234 88.4693 138.045 87.3944 138.045 85.2445V79.7561H136.101V77.5778H138.045V75.1218L140.971 74.3103V77.5778H144.43V79.7561H140.971V84.7747C140.971 85.7571 141.462 86.2483 142.444 86.2483C143.071 86.2483 143.619 86.0489 144.089 85.6503L144.537 87.5937Z" fill="#333333"/>
<path d="M150.511 88.4693C148.133 88.4693 146.481 87.7859 145.556 86.4191L147.264 84.6679C147.549 85.2801 147.955 85.7144 148.482 85.9706C149.023 86.2127 149.685 86.3337 150.468 86.3337C151.094 86.3337 151.578 86.2483 151.92 86.0774C152.262 85.9066 152.433 85.6717 152.433 85.3727C152.433 85.1306 152.269 84.9242 151.941 84.7533C151.628 84.5825 151.08 84.4188 150.297 84.2622C148.66 83.9347 147.506 83.5076 146.837 82.9808C146.182 82.4398 145.855 81.7137 145.855 80.8025C145.855 80.2045 146.04 79.6422 146.41 79.1154C146.78 78.5886 147.329 78.1686 148.055 77.8554C148.781 77.5279 149.649 77.3642 150.66 77.3642C151.856 77.3642 152.824 77.5493 153.564 77.9195C154.305 78.2754 154.924 78.8449 155.422 79.6279L153.607 81.1656C153.294 80.5961 152.902 80.1761 152.433 79.9056C151.977 79.635 151.4 79.4998 150.703 79.4998C150.119 79.4998 149.649 79.5994 149.293 79.7988C148.952 79.9981 148.781 80.2401 148.781 80.5249C148.781 80.8239 148.952 81.073 149.293 81.2723C149.635 81.4716 150.24 81.6567 151.109 81.8276C152.66 82.1408 153.757 82.5537 154.397 83.0662C155.052 83.5645 155.38 84.2622 155.38 85.1591C155.38 86.1557 154.953 86.9601 154.098 87.5723C153.258 88.1703 152.062 88.4693 150.511 88.4693Z" fill="#333333"/>
<path d="M169.131 77.3642C170.541 77.3642 171.637 77.6489 172.42 78.2184C173.203 78.7879 173.737 79.5496 174.022 80.5035L171.288 81.4859C171.032 80.1903 170.341 79.5425 169.217 79.5425C168.377 79.5425 167.729 79.8344 167.273 80.4181C166.832 80.9876 166.611 81.8276 166.611 82.9381C166.611 84.0486 166.839 84.8886 167.294 85.4581C167.75 86.0133 168.384 86.291 169.195 86.291C170.448 86.291 171.188 85.6574 171.416 84.3903L174.064 85.2445C173.837 86.2269 173.303 87.01 172.463 87.5937C171.637 88.1774 170.562 88.4693 169.238 88.4693C167.472 88.4693 166.106 87.9852 165.138 87.0171C164.169 86.0347 163.685 84.6679 163.685 82.9167C163.685 81.1656 164.162 79.8059 165.116 78.8378C166.084 77.8554 167.423 77.3642 169.131 77.3642Z" fill="#333333"/>
<path d="M181.311 77.3642C183.034 77.3642 184.372 77.8554 185.326 78.8378C186.294 79.8201 186.778 81.1798 186.778 82.9167C186.778 84.6537 186.294 86.0133 185.326 86.9957C184.372 87.9781 183.034 88.4693 181.311 88.4693C179.588 88.4693 178.243 87.9781 177.275 86.9957C176.321 86.0133 175.844 84.6537 175.844 82.9167C175.844 81.1798 176.321 79.8201 177.275 78.8378C178.243 77.8554 179.588 77.3642 181.311 77.3642ZM181.311 79.5425C180.485 79.5425 179.852 79.8272 179.41 80.3967C178.983 80.952 178.77 81.792 178.77 82.9167C178.77 84.0415 178.983 84.8886 179.41 85.4581C179.852 86.0133 180.485 86.291 181.311 86.291C182.137 86.291 182.763 86.0133 183.19 85.4581C183.632 84.8886 183.853 84.0415 183.853 82.9167C183.853 81.792 183.632 80.952 183.19 80.3967C182.763 79.8272 182.137 79.5425 181.311 79.5425Z" fill="#333333"/>
<path d="M202.657 77.3642C203.753 77.3642 204.657 77.6988 205.369 78.3679C206.095 79.0371 206.458 79.9981 206.458 81.251V88.2557H203.532V81.8276C203.532 81.0872 203.369 80.5462 203.041 80.2045C202.714 79.8486 202.265 79.6706 201.696 79.6706C201.012 79.6706 200.45 79.9198 200.009 80.4181C199.567 80.9164 199.347 81.614 199.347 82.511V88.2557H196.421V81.8276C196.421 81.0872 196.257 80.5462 195.93 80.2045C195.602 79.8486 195.147 79.6706 194.563 79.6706C193.922 79.6706 193.367 79.9198 192.897 80.4181C192.441 80.9022 192.214 81.6283 192.214 82.5964V88.2557H189.288V77.5778H191.915L192 79.4784C192.356 78.7808 192.84 78.254 193.452 77.8981C194.079 77.5422 194.776 77.3642 195.545 77.3642C196.343 77.3642 197.047 77.5493 197.659 77.9195C198.286 78.2896 198.742 78.8235 199.026 79.5211C199.368 78.8235 199.866 78.2896 200.521 77.9195C201.176 77.5493 201.888 77.3642 202.657 77.3642Z" fill="#333333"/>
<path d="M222.845 77.3642C223.941 77.3642 224.845 77.6988 225.557 78.3679C226.283 79.0371 226.646 79.9981 226.646 81.251V88.2557H223.72V81.8276C223.72 81.0872 223.557 80.5462 223.229 80.2045C222.902 79.8486 222.453 79.6706 221.884 79.6706C221.2 79.6706 220.638 79.9198 220.197 80.4181C219.755 80.9164 219.535 81.614 219.535 82.511V88.2557H216.609V81.8276C216.609 81.0872 216.445 80.5462 216.118 80.2045C215.79 79.8486 215.335 79.6706 214.751 79.6706C214.11 79.6706 213.555 79.9198 213.085 80.4181C212.63 80.9022 212.402 81.6283 212.402 82.5964V88.2557H209.476V77.5778H212.103L212.188 79.4784C212.544 78.7808 213.028 78.254 213.64 77.8981C214.267 77.5422 214.964 77.3642 215.733 77.3642C216.531 77.3642 217.235 77.5493 217.847 77.9195C218.474 78.2896 218.93 78.8235 219.214 79.5211C219.556 78.8235 220.054 78.2896 220.709 77.9195C221.364 77.5493 222.076 77.3642 222.845 77.3642Z" fill="#333333"/>
<path d="M231.138 76.0401C229.927 76.0401 229.322 75.5205 229.322 74.4811C229.322 73.4276 229.927 72.9008 231.138 72.9008C232.348 72.9008 232.953 73.4276 232.953 74.4811C232.953 75.5205 232.348 76.0401 231.138 76.0401ZM232.59 88.2557H229.664V77.5778H232.59V88.2557Z" fill="#333333"/>
<path d="M250.939 87.5937C250.583 87.8642 250.149 88.0778 249.637 88.2344C249.124 88.391 248.583 88.4693 248.014 88.4693C245.636 88.4693 244.44 87.3944 244.426 85.2445V79.7561H239.45V84.7747C239.45 85.2872 239.557 85.6645 239.77 85.9066C239.998 86.1344 240.34 86.2483 240.795 86.2483C241.123 86.2483 241.407 86.1984 241.649 86.0988C241.906 85.9991 242.148 85.8425 242.376 85.6289L242.845 87.5937C242.518 87.8642 242.098 88.0778 241.585 88.2344C241.087 88.391 240.56 88.4693 240.005 88.4693C238.923 88.4693 238.069 88.213 237.442 87.7005C236.83 87.1879 236.524 86.3693 236.524 85.2445V79.7561H234.581V77.5778H236.524V75.1218L239.45 74.3103V77.5778H244.426V75.1218L247.352 74.3103V77.5778H250.833V79.7561H247.352V84.7747C247.352 85.273 247.48 85.6432 247.736 85.8852C248.006 86.1272 248.377 86.2483 248.846 86.2483C249.459 86.2483 250 86.0489 250.469 85.6503L250.939 87.5937Z" fill="#333333"/>
<path d="M262.724 82.874C262.724 83.2727 262.696 83.6571 262.639 84.0272H255.079C255.378 85.5364 256.268 86.291 257.748 86.291C258.36 86.291 258.866 86.1771 259.264 85.9493C259.663 85.7215 259.941 85.394 260.097 84.9669L262.489 85.8425C262.148 86.6967 261.571 87.3517 260.759 87.8073C259.962 88.2486 258.958 88.4693 257.748 88.4693C255.983 88.4693 254.616 87.9852 253.648 87.0171C252.68 86.0347 252.196 84.6679 252.196 82.9167C252.196 81.1656 252.665 79.8059 253.605 78.8378C254.545 77.8554 255.869 77.3642 257.577 77.3642C259.229 77.3642 260.496 77.8411 261.379 78.795C262.276 79.7489 262.724 81.1086 262.724 82.874ZM257.556 79.5211C256.844 79.5211 256.275 79.7276 255.848 80.1405C255.435 80.5533 255.171 81.1656 255.057 81.9771H260.033C259.919 81.1798 259.649 80.5747 259.222 80.1618C258.795 79.7347 258.239 79.5211 257.556 79.5211Z" fill="#333333"/>
<path d="M275.517 72.9008V88.2557H272.912L272.783 86.2696C272.47 86.9388 272 87.4727 271.374 87.8713C270.762 88.27 270.057 88.4693 269.26 88.4693C267.836 88.4693 266.718 87.9852 265.907 87.0171C265.095 86.0347 264.69 84.675 264.69 82.9381C264.69 81.1869 265.095 79.8201 265.907 78.8378C266.718 77.8554 267.836 77.3642 269.26 77.3642C270.029 77.3642 270.698 77.5422 271.267 77.8981C271.837 78.2398 272.278 78.7167 272.591 79.3289V72.9008H275.517ZM270.114 86.2269C270.883 86.2269 271.488 85.9493 271.929 85.394C272.371 84.8388 272.591 84.0486 272.591 83.0235V82.81C272.591 81.7991 272.371 81.0161 271.929 80.4608C271.488 79.8913 270.883 79.6066 270.114 79.6066C269.331 79.6066 268.719 79.8913 268.277 80.4608C267.836 81.0303 267.615 81.8489 267.615 82.9167C267.615 83.9845 267.836 84.8032 268.277 85.3727C268.719 85.9422 269.331 86.2269 270.114 86.2269Z" fill="#333333"/>
<path d="M39.7178 112.954C39.3761 113.224 38.9419 113.438 38.4151 113.595C37.9026 113.751 37.3615 113.829 36.7921 113.829C34.4144 113.829 33.2256 112.755 33.2256 110.605V105.116H31.2822V102.938H33.2256V100.482L36.1514 99.6705V102.938H39.611V105.116H36.1514V110.135C36.1514 111.117 36.6426 111.608 37.6249 111.608C38.2514 111.608 38.7995 111.409 39.2693 111.01L39.7178 112.954Z" fill="#333333"/>
<path d="M46.4601 102.724C48.1828 102.724 49.5211 103.216 50.475 104.198C51.4432 105.18 51.9272 106.54 51.9272 108.277C51.9272 110.014 51.4432 111.374 50.475 112.356C49.5211 113.338 48.1828 113.829 46.4601 113.829C44.7374 113.829 43.392 113.338 42.4239 112.356C41.47 111.374 40.993 110.014 40.993 108.277C40.993 106.54 41.47 105.18 42.4239 104.198C43.392 103.216 44.7374 102.724 46.4601 102.724ZM46.4601 104.903C45.6344 104.903 45.0008 105.187 44.5594 105.757C44.1323 106.312 43.9188 107.152 43.9188 108.277C43.9188 109.402 44.1323 110.249 44.5594 110.818C45.0008 111.374 45.6344 111.651 46.4601 111.651C47.2859 111.651 47.9123 111.374 48.3394 110.818C48.7808 110.249 49.0015 109.402 49.0015 108.277C49.0015 107.152 48.7808 106.312 48.3394 105.757C47.9123 105.187 47.2859 104.903 46.4601 104.903Z" fill="#333333"/>
<path d="M67.2433 102.724C68.667 102.724 69.7846 103.216 70.5962 104.198C71.4077 105.18 71.8134 106.547 71.8134 108.298C71.8134 110.035 71.4077 111.395 70.5962 112.377C69.7846 113.345 68.667 113.829 67.2433 113.829C66.4033 113.829 65.6701 113.623 65.0436 113.21C64.4314 112.783 63.9687 112.214 63.6555 111.502L63.5487 113.616H60.9646V98.261H63.8904V104.689C64.2179 104.077 64.6663 103.6 65.2358 103.258C65.8053 102.902 66.4745 102.724 67.2433 102.724ZM66.3677 111.587C67.165 111.587 67.7843 111.302 68.2257 110.733C68.667 110.163 68.8877 109.345 68.8877 108.277C68.8877 107.209 68.667 106.39 68.2257 105.821C67.7843 105.251 67.165 104.967 66.3677 104.967C65.6558 104.967 65.0792 105.216 64.6379 105.714C64.1965 106.213 63.9473 106.91 63.8904 107.807V108.747C63.9473 109.658 64.1965 110.363 64.6379 110.861C65.0792 111.345 65.6558 111.587 66.3677 111.587Z" fill="#333333"/>
<path d="M84.3687 108.234C84.3687 108.633 84.3403 109.017 84.2833 109.387H76.7233C77.0223 110.897 77.9121 111.651 79.3928 111.651C80.005 111.651 80.5104 111.537 80.9091 111.309C81.3077 111.082 81.5853 110.754 81.742 110.327L84.1338 111.203C83.7921 112.057 83.2155 112.712 82.404 113.167C81.6067 113.609 80.603 113.829 79.3928 113.829C77.6274 113.829 76.2606 113.345 75.2925 112.377C74.3243 111.395 73.8403 110.028 73.8403 108.277C73.8403 106.526 74.3101 105.166 75.2498 104.198C76.1894 103.216 77.5135 102.724 79.222 102.724C80.8735 102.724 82.1406 103.201 83.0233 104.155C83.9203 105.109 84.3687 106.469 84.3687 108.234ZM79.2006 104.881C78.4887 104.881 77.9192 105.088 77.4921 105.501C77.0792 105.914 76.8159 106.526 76.702 107.337H81.6779C81.564 106.54 81.2935 105.935 80.8664 105.522C80.4392 105.095 79.884 104.881 79.2006 104.881Z" fill="#333333"/>
<path d="M101.886 112.954C101.53 113.224 101.096 113.438 100.583 113.595C100.071 113.751 99.5295 113.829 98.96 113.829C96.5824 113.829 95.3865 112.755 95.3722 110.605V105.116H90.3963V110.135C90.3963 110.647 90.5031 111.025 90.7166 111.267C90.9444 111.495 91.2861 111.608 91.7417 111.608C92.0692 111.608 92.3539 111.559 92.5959 111.459C92.8522 111.359 93.0942 111.203 93.322 110.989L93.7919 112.954C93.4644 113.224 93.0444 113.438 92.5319 113.595C92.0336 113.751 91.5068 113.829 90.9515 113.829C89.8695 113.829 89.0153 113.573 88.3888 113.061C87.7766 112.548 87.4705 111.729 87.4705 110.605V105.116H85.5271V102.938H87.4705V100.482L90.3963 99.6705V102.938H95.3722V100.482L98.298 99.6705V102.938H101.779V105.116H98.298V110.135C98.298 110.633 98.4261 111.003 98.6824 111.245C98.9529 111.487 99.3231 111.608 99.7929 111.608C100.405 111.608 100.946 111.409 101.416 111.01L101.886 112.954Z" fill="#333333"/>
<path d="M113.671 108.234C113.671 108.633 113.642 109.017 113.585 109.387H106.025C106.324 110.897 107.214 111.651 108.695 111.651C109.307 111.651 109.812 111.537 110.211 111.309C110.61 111.082 110.887 110.754 111.044 110.327L113.436 111.203C113.094 112.057 112.517 112.712 111.706 113.167C110.909 113.609 109.905 113.829 108.695 113.829C106.929 113.829 105.562 113.345 104.594 112.377C103.626 111.395 103.142 110.028 103.142 108.277C103.142 106.526 103.612 105.166 104.552 104.198C105.491 103.216 106.815 102.724 108.524 102.724C110.175 102.724 111.442 103.201 112.325 104.155C113.222 105.109 113.671 106.469 113.671 108.234ZM108.502 104.881C107.791 104.881 107.221 105.088 106.794 105.501C106.381 105.914 106.118 106.526 106.004 107.337H110.98C110.866 106.54 110.595 105.935 110.168 105.522C109.741 105.095 109.186 104.881 108.502 104.881Z" fill="#333333"/>
<path d="M122.171 102.724C122.669 102.724 123.054 102.803 123.324 102.959L122.961 105.522C122.634 105.308 122.185 105.202 121.616 105.202C120.918 105.202 120.313 105.458 119.8 105.97C119.302 106.469 119.053 107.174 119.053 108.085V113.616H116.127V102.938H118.669L118.861 105.031C119.444 103.493 120.548 102.724 122.171 102.724Z" fill="#333333"/>
<path d="M126.61 101.4C125.4 101.4 124.795 100.881 124.795 99.8413C124.795 98.7878 125.4 98.261 126.61 98.261C127.82 98.261 128.426 98.7878 128.426 99.8413C128.426 100.881 127.82 101.4 126.61 101.4ZM128.062 113.616H125.137V102.938H128.062V113.616Z" fill="#333333"/>
<path d="M137.528 102.724C138.681 102.724 139.607 103.059 140.304 103.728C141.016 104.397 141.372 105.358 141.372 106.611V113.616H138.446V107.465C138.446 105.842 137.813 105.031 136.546 105.031C135.862 105.031 135.279 105.273 134.794 105.757C134.325 106.241 134.09 106.981 134.09 107.978V113.616H131.164V102.938H133.791L133.876 104.839C134.232 104.141 134.723 103.614 135.35 103.258C135.976 102.902 136.702 102.724 137.528 102.724Z" fill="#333333"/>
<path d="M150.878 111.608C152.046 111.608 152.943 111.865 153.569 112.377C154.21 112.89 154.53 113.623 154.53 114.577C154.53 115.716 154.004 116.606 152.95 117.246C151.896 117.887 150.508 118.207 148.786 118.207C147.006 118.207 145.682 117.972 144.813 117.503C143.959 117.033 143.532 116.392 143.532 115.581C143.532 115.097 143.696 114.677 144.023 114.321C144.351 113.965 144.835 113.708 145.475 113.552C144.991 113.353 144.607 113.075 144.322 112.719C144.037 112.349 143.895 111.915 143.895 111.416C143.895 110.904 144.045 110.462 144.344 110.092C144.643 109.722 145.055 109.444 145.582 109.259C145.041 108.946 144.628 108.547 144.344 108.063C144.059 107.565 143.916 106.996 143.916 106.355C143.916 105.23 144.351 104.347 145.219 103.707C146.102 103.052 147.298 102.724 148.807 102.724C149.576 102.724 150.295 102.817 150.964 103.002C151.149 102.162 151.505 101.507 152.032 101.037C152.573 100.553 153.299 100.34 154.21 100.397L154.594 102.489C154.495 102.475 154.345 102.468 154.146 102.468C153.619 102.468 153.178 102.561 152.822 102.746C152.48 102.931 152.238 103.18 152.096 103.493C152.623 103.806 153.021 104.205 153.292 104.689C153.576 105.173 153.719 105.728 153.719 106.355C153.719 107.465 153.277 108.348 152.395 109.003C151.526 109.644 150.33 109.964 148.807 109.964C148.109 109.964 147.469 109.9 146.885 109.772C146.33 109.914 146.052 110.235 146.052 110.733C146.052 111.018 146.159 111.238 146.372 111.395C146.586 111.537 146.885 111.608 147.269 111.608H150.878ZM148.807 104.561C148.237 104.561 147.768 104.725 147.397 105.052C147.041 105.38 146.864 105.807 146.864 106.334C146.864 106.875 147.041 107.309 147.397 107.636C147.768 107.964 148.237 108.127 148.807 108.127C149.391 108.127 149.86 107.964 150.216 107.636C150.587 107.309 150.772 106.875 150.772 106.334C150.772 105.807 150.587 105.38 150.216 105.052C149.86 104.725 149.391 104.561 148.807 104.561ZM149.02 116.2C150.017 116.2 150.786 116.072 151.327 115.816C151.868 115.574 152.138 115.26 152.138 114.876C152.138 114.577 152.01 114.349 151.754 114.192C151.512 114.05 151.106 113.979 150.537 113.979H147.632C146.451 113.979 145.86 114.299 145.86 114.94C145.86 115.339 146.123 115.645 146.65 115.858C147.177 116.086 147.967 116.2 149.02 116.2Z" fill="#333333"/>
<path d="M169.939 112.954C169.597 113.224 169.163 113.438 168.636 113.595C168.124 113.751 167.583 113.829 167.013 113.829C164.636 113.829 163.447 112.755 163.447 110.605V105.116H161.503V102.938H163.447V100.482L166.373 99.6705V102.938H169.832V105.116H166.373V110.135C166.373 111.117 166.864 111.608 167.846 111.608C168.473 111.608 169.021 111.409 169.49 111.01L169.939 112.954Z" fill="#333333"/>
<path d="M178.3 102.724C179.454 102.724 180.379 103.059 181.077 103.728C181.788 104.397 182.144 105.358 182.144 106.611V113.616H179.219V107.465C179.219 105.842 178.585 105.031 177.318 105.031C176.635 105.031 176.051 105.273 175.567 105.757C175.097 106.241 174.862 106.981 174.862 107.978V113.616H171.936V98.261H174.862V104.753C175.189 104.07 175.645 103.564 176.229 103.237C176.827 102.895 177.517 102.724 178.3 102.724Z" fill="#333333"/>
<path d="M195.132 108.234C195.132 108.633 195.103 109.017 195.046 109.387H187.486C187.785 110.897 188.675 111.651 190.156 111.651C190.768 111.651 191.273 111.537 191.672 111.309C192.071 111.082 192.348 110.754 192.505 110.327L194.897 111.203C194.555 112.057 193.979 112.712 193.167 113.167C192.37 113.609 191.366 113.829 190.156 113.829C188.39 113.829 187.024 113.345 186.056 112.377C185.087 111.395 184.603 110.028 184.603 108.277C184.603 106.526 185.073 105.166 186.013 104.198C186.952 103.216 188.277 102.724 189.985 102.724C191.637 102.724 192.904 103.201 193.786 104.155C194.683 105.109 195.132 106.469 195.132 108.234ZM189.964 104.881C189.252 104.881 188.682 105.088 188.255 105.501C187.842 105.914 187.579 106.526 187.465 107.337H192.441C192.327 106.54 192.057 105.935 191.629 105.522C191.202 105.095 190.647 104.881 189.964 104.881Z" fill="#333333"/>
<path d="M199.062 101.4C197.852 101.4 197.247 100.881 197.247 99.8413C197.247 98.7878 197.852 98.261 199.062 98.261C200.272 98.261 200.877 98.7878 200.877 99.8413C200.877 100.881 200.272 101.4 199.062 101.4ZM200.514 113.616H197.588V102.938H200.514V113.616Z" fill="#333333"/>
<path d="M209.659 102.724C210.158 102.724 210.542 102.803 210.813 102.959L210.449 105.522C210.122 105.308 209.674 105.202 209.104 105.202C208.406 105.202 207.801 105.458 207.289 105.97C206.791 106.469 206.541 107.174 206.541 108.085V113.616H203.616V102.938H206.157L206.349 105.031C206.933 103.493 208.036 102.724 209.659 102.724Z" fill="#333333"/>
<path d="M225.142 102.724C226.295 102.724 227.22 103.059 227.918 103.728C228.63 104.397 228.986 105.358 228.986 106.611V113.616H226.06V107.465C226.06 105.842 225.426 105.031 224.159 105.031C223.476 105.031 222.892 105.273 222.408 105.757C221.938 106.241 221.703 106.981 221.703 107.978V113.616H218.777V98.261H221.703V104.753C222.031 104.07 222.486 103.564 223.07 103.237C223.668 102.895 224.358 102.724 225.142 102.724Z" fill="#333333"/>
<path d="M241.973 108.234C241.973 108.633 241.945 109.017 241.888 109.387H234.328C234.627 110.897 235.516 111.651 236.997 111.651C237.609 111.651 238.115 111.537 238.513 111.309C238.912 111.082 239.19 110.754 239.346 110.327L241.738 111.203C241.396 112.057 240.82 112.712 240.008 113.167C239.211 113.609 238.207 113.829 236.997 113.829C235.232 113.829 233.865 113.345 232.897 112.377C231.929 111.395 231.445 110.028 231.445 108.277C231.445 106.526 231.914 105.166 232.854 104.198C233.794 103.216 235.118 102.724 236.826 102.724C238.478 102.724 239.745 103.201 240.628 104.155C241.525 105.109 241.973 106.469 241.973 108.234ZM236.805 104.881C236.093 104.881 235.524 105.088 235.096 105.501C234.684 105.914 234.42 106.526 234.306 107.337H239.282C239.168 106.54 238.898 105.935 238.471 105.522C238.044 105.095 237.488 104.881 236.805 104.881Z" fill="#333333"/>
<path d="M254.189 111.843C254.488 111.843 254.73 111.815 254.915 111.758L254.702 113.53C254.303 113.73 253.84 113.829 253.314 113.829C251.947 113.829 251.128 113.296 250.858 112.228C250.545 112.755 250.06 113.153 249.406 113.424C248.751 113.694 247.975 113.829 247.078 113.829C246.038 113.829 245.227 113.595 244.643 113.125C244.059 112.655 243.768 111.979 243.768 111.096C243.768 109.359 245.156 108.234 247.932 107.722L250.495 107.23V106.718C250.495 106.148 250.331 105.7 250.004 105.373C249.69 105.031 249.249 104.86 248.679 104.86C248.025 104.86 247.491 105.002 247.078 105.287C246.665 105.572 246.38 106.035 246.224 106.675L243.896 105.693C244.124 104.767 244.636 104.041 245.433 103.515C246.231 102.988 247.27 102.724 248.551 102.724C250.075 102.724 251.264 103.059 252.118 103.728C252.972 104.383 253.399 105.358 253.399 106.654V111.032C253.399 111.317 253.463 111.523 253.591 111.651C253.719 111.779 253.919 111.843 254.189 111.843ZM247.996 111.843C248.622 111.843 249.192 111.694 249.705 111.395C250.231 111.082 250.495 110.662 250.495 110.135V109.024L248.21 109.537C247.726 109.651 247.362 109.807 247.12 110.007C246.893 110.192 246.779 110.455 246.779 110.797C246.779 111.139 246.886 111.402 247.099 111.587C247.313 111.758 247.612 111.843 247.996 111.843Z" fill="#333333"/>
<path d="M259.576 110.22C259.576 110.733 259.647 111.089 259.789 111.288C259.946 111.487 260.223 111.587 260.622 111.587C260.864 111.587 261.071 111.573 261.241 111.544C261.426 111.502 261.64 111.438 261.882 111.352L261.626 113.381C261.398 113.523 261.099 113.63 260.729 113.701C260.359 113.787 259.996 113.829 259.64 113.829C258.6 113.829 257.839 113.58 257.355 113.082C256.885 112.569 256.65 111.758 256.65 110.647V98.261H259.576V110.22Z" fill="#333333"/>
<path d="M270.462 112.954C270.12 113.224 269.686 113.438 269.159 113.595C268.647 113.751 268.106 113.829 267.536 113.829C265.159 113.829 263.97 112.755 263.97 110.605V105.116H262.026V102.938H263.97V100.482L266.896 99.6705V102.938H270.355V105.116H266.896V110.135C266.896 111.117 267.387 111.608 268.369 111.608C268.996 111.608 269.544 111.409 270.014 111.01L270.462 112.954Z" fill="#333333"/>
<path d="M278.823 102.724C279.977 102.724 280.902 103.059 281.6 103.728C282.311 104.397 282.667 105.358 282.667 106.611V113.616H279.742V107.465C279.742 105.842 279.108 105.031 277.841 105.031C277.158 105.031 276.574 105.273 276.09 105.757C275.62 106.241 275.385 106.981 275.385 107.978V113.616H272.459V98.261H275.385V104.753C275.712 104.07 276.168 103.564 276.752 103.237C277.35 102.895 278.04 102.724 278.823 102.724Z" fill="#333333"/>
</svg>
