<svg width="768" height="768" viewBox="0 0 768 768" fill="none" xmlns="http://www.w3.org/2000/svg">
<g clip-path="url(#clip0)">
<rect width="768" height="768" fill="white"/>
<rect x="6" y="6" width="756" height="756" stroke="white" stroke-width="12"/>
<path d="M261.049 587.718C261.035 587.732 261.021 587.732 261.021 587.746C250.526 595.165 238.1 602.959 224.73 611.141L224.203 611.446C224.022 611.57 223.981 611.82 224.106 612C224.231 612.181 224.48 612.222 224.661 612.097L225.105 611.862C236.448 605.954 249.471 598.937 262.576 591.74C262.646 591.698 262.715 591.656 262.785 591.629C262.063 590.436 261.466 589.132 261.049 587.718V587.718ZM329.911 532.039C313.376 513.816 206.96 530.208 161.714 540.082L160.659 540.304C160.437 540.345 160.298 540.553 160.339 540.762C160.381 540.983 160.589 541.122 160.798 541.08L161.839 540.872C199.324 534.202 277.293 524.966 294.064 541.58C299.187 546.655 297.965 553.173 292.023 560.884C295.216 562.936 297.493 566.167 298.52 570.203C321.706 554.837 337.269 540.151 329.911 532.039V532.039Z" fill="#D03027"/>
<path d="M267.741 582.933C267.949 589.34 272.017 594.596 277.306 594.596C287.566 594.596 291.939 582.004 291.634 573.6C291.412 567.179 287.247 561.937 281.957 561.937C273.141 561.924 267.435 574.46 267.741 582.933V582.933ZM262.326 582.587C261.951 571.645 270.531 560.454 282.999 560.454C291.329 560.454 296.785 566.001 297.09 574.502C297.493 586.04 289.468 596.635 276.432 596.635C268.074 596.635 262.618 591.101 262.326 582.587V582.587Z" fill="#004977"/>
<path d="M144.252 579.702C143.808 579.869 143.239 580.035 142.517 580.188C141.809 580.354 140.503 580.576 138.615 580.881C137.31 581.089 136.408 581.352 135.894 581.727C135.408 582.087 135.117 582.517 135.033 583.058C134.936 583.627 135.117 584.071 135.603 584.431C136.102 584.778 136.935 584.958 138.116 584.958C139.004 584.958 139.865 584.819 140.698 584.542C141.545 584.265 142.267 583.89 142.808 583.419C143.211 583.072 143.502 582.628 143.724 582.087C143.863 581.727 144.044 580.936 144.252 579.702V579.702ZM155.081 572.976C155.039 573.975 154.859 574.862 154.595 576.402L152.762 586.678C152.61 587.593 152.943 588.3 153.79 588.799L153.734 589.202L143.239 589.188L143.141 586.581C141.614 587.496 139.768 588.272 138.102 588.73C136.436 589.16 135.089 589.34 133.076 589.34C129.688 589.34 127.745 588.994 126.398 587.815C125.037 586.608 124.371 585.804 124.44 584.14C124.496 583.183 124.996 581.949 125.704 581.089C126.426 580.215 127.425 579.647 128.494 579.134C129.577 578.62 130.855 578.246 132.701 577.955C134.561 577.65 137.144 577.359 140.601 577.067C142.419 576.915 143.53 576.499 144.044 576.291C144.766 576.013 145.057 575.694 145.154 575.112C145.349 574.058 145.016 573.448 143.599 573.17C139.823 572.422 132.729 573.656 129.078 574.557L131.063 569.204C135.88 568.497 140.392 568.053 145.154 568.053C152.749 568.053 155.164 570.203 155.081 572.976V572.976Z" fill="#004977"/>
<path d="M185.514 589.188L189.151 568.649H199.203L195.565 589.188H185.514ZM189.706 563.893C190.012 562.201 192.677 560.842 195.649 560.842C198.633 560.842 200.813 562.215 200.522 563.893C200.202 565.585 197.551 566.957 194.552 566.957C191.581 566.957 189.415 565.585 189.706 563.893V563.893Z" fill="#004977"/>
<path d="M234.895 579.743C234.437 579.896 233.853 580.062 233.145 580.228C232.437 580.395 231.132 580.603 229.244 580.908C227.953 581.116 227.037 581.379 226.537 581.754C226.051 582.101 225.773 582.544 225.662 583.071C225.551 583.64 225.759 584.098 226.231 584.444C226.745 584.791 227.578 584.957 228.758 584.957C229.633 584.957 230.494 584.833 231.341 584.569C232.201 584.278 232.909 583.917 233.465 583.446C233.853 583.099 234.145 582.641 234.353 582.114C234.492 581.768 234.673 580.977 234.895 579.743V579.743ZM245.724 573.003C245.682 574.016 245.502 574.903 245.224 576.429L243.405 586.719C243.252 587.62 243.586 588.341 244.433 588.84L244.377 589.201L233.881 589.215L233.798 586.594C232.271 587.523 230.41 588.3 228.758 588.743C227.092 589.187 225.746 589.367 223.705 589.367C220.317 589.367 218.387 589.035 217.041 587.842C215.666 586.622 215.014 585.831 215.083 584.167C215.125 583.196 215.625 581.962 216.347 581.116C217.068 580.228 218.068 579.674 219.151 579.161C220.234 578.648 221.511 578.273 223.344 577.968C225.204 577.677 227.8 577.372 231.257 577.08C233.062 576.928 234.173 576.526 234.686 576.318C235.422 576.04 235.7 575.721 235.811 575.125C235.991 574.085 235.672 573.475 234.27 573.184C230.466 572.435 223.399 573.669 219.748 574.57L221.719 569.217C226.551 568.51 231.049 568.066 235.811 568.066C243.377 568.08 245.793 570.244 245.724 573.003V573.003Z" fill="#004977"/>
<path d="M123.081 581.81C119.804 582.462 117.972 582.711 114.737 582.711C109.933 582.711 106.115 580.326 106.324 575.958C106.476 573.045 109.919 566.916 118.68 566.916C121.443 566.916 123.595 567.401 126.496 569.051L127.773 561.923C123.831 560.439 121.22 560.218 117.833 560.245C106.337 560.37 95.3141 565.584 93.9397 576.193C92.5513 586.969 105.727 589.673 111.572 589.645C114.945 589.631 118.458 589.493 121.734 589.16L123.081 581.81Z" fill="#004977"/>
<path d="M204.743 568.538L205.465 564.35L215.975 562.062L214.85 568.524H220.001L219.029 572.657L214.031 572.643L210.991 589.16C210.991 589.16 200.87 589.09 200.828 589.16L203.855 572.685H200.051L200.828 568.524H204.743V568.538Z" fill="#004977"/>
<path d="M260.818 560.813L255.931 589.173L245.699 589.187L250.85 560.536L260.818 560.813Z" fill="#004977"/>
<path d="M172.214 573.461C170.895 573.461 169.701 573.864 168.646 574.654C167.591 575.458 166.925 576.623 166.661 578.163C166.342 579.951 166.536 581.241 167.244 582.032C167.966 582.822 168.993 583.224 170.354 583.224C171.27 583.224 172.214 583.058 172.908 582.711C173.769 582.254 174.366 581.782 174.88 581.019C175.435 580.229 175.796 579.341 175.991 578.315C176.282 576.693 176.032 575.486 175.282 574.682C174.547 573.877 173.533 573.461 172.214 573.461V573.461ZM153.916 596.274L158.817 568.76H167.647L166.966 572.269C167.73 571.215 168.952 570.355 170.645 569.662C172.353 568.968 174.269 568.455 176.352 568.455C178.656 568.455 180.072 568.58 181.794 569.467C183.501 570.369 184.709 571.672 185.348 573.364C186.014 575.028 186.153 576.914 185.792 578.953C185.195 582.351 183.543 585.013 180.822 586.982C178.129 588.952 175.699 589.465 172.242 589.479C171.02 589.479 169.993 589.354 169.146 589.146C168.313 588.924 167.647 588.66 167.147 588.342C166.661 588.023 166.147 587.565 165.495 586.844L163.856 596.274H153.916Z" fill="#004977"/>
<path d="M336.367 575.985C336.311 574.335 335.478 573.212 333.771 573.212C329.647 573.212 325.26 581.283 324.51 584.528C331.272 584.542 336.533 580.52 336.367 575.985V575.985ZM337.255 588.633L338.047 589.174C336.033 593.265 331.938 596.551 327.134 596.551C323.205 596.551 319.971 593.93 319.804 589.021C319.485 580.215 327.745 572.047 334.506 572.047C337.408 572.047 340.101 573.309 340.212 576.429C340.462 583.432 330.619 585.568 324.136 585.721C323.927 586.456 323.844 587.191 323.886 588.3C323.997 591.198 325.746 593.639 329.383 593.639C332.521 593.639 335.659 591.115 337.255 588.633V588.633Z" fill="#004977"/>
<path d="M296.938 575.764C297.632 575.667 298.756 575.542 299.242 575.542C299.978 575.542 300.672 575.68 300.714 576.415C300.728 576.845 299.95 579.966 299.784 580.687L298.215 587.593C297.576 590.422 296.896 593.376 296.285 595.719H300.311L302.574 584.778C309.474 577.594 312.14 575.251 313.764 575.251C314.5 575.251 315 575.639 315.042 576.512C315.083 577.774 314.292 580.645 314.028 581.477L311.723 589.451C311.196 591.24 310.807 592.863 310.849 594.014C310.918 595.761 311.973 596.538 313.556 596.538C316.499 596.538 318.637 593.473 320.498 590.463L319.956 589.479C319.207 590.685 317.457 593.334 316.083 593.334C315.652 593.334 315.236 593.043 315.222 592.322C315.18 591.393 315.569 589.992 315.847 589.063L318.415 579.716C319.109 577.137 319.429 575.486 319.415 574.599C319.345 572.851 318.332 572.033 316.763 572.033C314.111 572.033 310.599 573.975 303.144 582.531H303.032L303.977 578.357C304.49 576.069 304.99 573.683 305.462 572.033C302.88 572.962 299.187 574.002 296.91 574.446L296.938 575.764Z" fill="#004977"/>
<path d="M118.904 319.448C117.144 320.797 114.915 321.736 112.216 322.264C109.517 322.792 106.643 323.056 103.592 323.056C99.896 323.056 96.4347 322.44 93.208 321.208C89.9813 319.917 87.1653 317.981 84.76 315.4C82.3547 312.819 80.448 309.533 79.04 305.544C77.632 301.496 76.928 296.715 76.928 291.2C76.928 285.451 77.6907 280.581 79.216 276.592C80.8 272.544 82.8533 269.259 85.376 266.736C87.9573 264.155 90.832 262.277 94 261.104C97.168 259.931 100.395 259.344 103.68 259.344C107.2 259.344 110.075 259.549 112.304 259.96C114.533 260.312 116.44 260.811 118.024 261.456L116.264 267.88C113.448 266.531 109.429 265.856 104.208 265.856C101.803 265.856 99.4267 266.296 97.08 267.176C94.7333 268.056 92.6213 269.493 90.744 271.488C88.9253 273.483 87.4587 276.093 86.344 279.32C85.2293 282.547 84.672 286.507 84.672 291.2C84.672 295.424 85.2 299.12 86.256 302.288C87.312 305.456 88.7493 308.096 90.568 310.208C92.4453 312.32 94.616 313.904 97.08 314.96C99.6027 316.016 102.331 316.544 105.264 316.544C107.904 316.544 110.192 316.28 112.128 315.752C114.123 315.224 115.795 314.549 117.144 313.728L118.904 319.448ZM158.177 322V296.92C158.177 294.632 158.031 292.637 157.737 290.936C157.503 289.176 157.033 287.739 156.329 286.624C155.625 285.451 154.657 284.571 153.425 283.984C152.252 283.397 150.697 283.104 148.761 283.104C146.004 283.104 143.511 284.013 141.281 285.832C139.052 287.592 137.615 289.88 136.969 292.696V322H129.929V260.4H136.969V282.928H137.321C138.847 281.109 140.665 279.672 142.777 278.616C144.948 277.501 147.617 276.944 150.785 276.944C153.249 276.944 155.391 277.237 157.209 277.824C159.028 278.352 160.524 279.32 161.697 280.728C162.929 282.136 163.809 284.043 164.337 286.448C164.924 288.795 165.217 291.787 165.217 295.424V322H158.177ZM178.23 281.256C180.46 279.907 183.041 278.909 185.974 278.264C188.966 277.619 192.076 277.296 195.302 277.296C198.353 277.296 200.788 277.707 202.606 278.528C204.484 279.349 205.892 280.435 206.83 281.784C207.828 283.075 208.473 284.512 208.766 286.096C209.118 287.68 209.294 289.264 209.294 290.848C209.294 294.368 209.206 297.8 209.03 301.144C208.854 304.488 208.766 307.656 208.766 310.648C208.766 312.819 208.854 314.872 209.03 316.808C209.206 318.744 209.529 320.533 209.998 322.176H204.806L202.958 316.016H202.518C201.99 316.837 201.316 317.659 200.494 318.48C199.732 319.243 198.793 319.947 197.678 320.592C196.564 321.179 195.273 321.677 193.806 322.088C192.34 322.499 190.668 322.704 188.79 322.704C186.913 322.704 185.153 322.411 183.51 321.824C181.926 321.237 180.548 320.416 179.374 319.36C178.201 318.245 177.262 316.925 176.558 315.4C175.913 313.875 175.59 312.144 175.59 310.208C175.59 307.627 176.118 305.485 177.174 303.784C178.23 302.024 179.697 300.645 181.574 299.648C183.51 298.592 185.798 297.859 188.438 297.448C191.137 296.979 194.1 296.744 197.326 296.744C198.148 296.744 198.94 296.744 199.702 296.744C200.524 296.744 201.345 296.803 202.166 296.92C202.342 295.16 202.43 293.576 202.43 292.168C202.43 288.941 201.785 286.683 200.494 285.392C199.204 284.101 196.857 283.456 193.454 283.456C192.457 283.456 191.372 283.544 190.198 283.72C189.084 283.837 187.91 284.043 186.678 284.336C185.505 284.571 184.361 284.893 183.246 285.304C182.19 285.656 181.252 286.067 180.43 286.536L178.23 281.256ZM190.726 316.544C192.369 316.544 193.836 316.339 195.126 315.928C196.417 315.459 197.532 314.901 198.47 314.256C199.409 313.552 200.172 312.789 200.758 311.968C201.404 311.147 201.873 310.355 202.166 309.592V302.288C201.345 302.229 200.494 302.2 199.614 302.2C198.793 302.141 197.972 302.112 197.15 302.112C195.332 302.112 193.542 302.229 191.782 302.464C190.081 302.64 188.556 303.021 187.206 303.608C185.916 304.136 184.86 304.899 184.038 305.896C183.276 306.835 182.894 308.037 182.894 309.504C182.894 311.557 183.628 313.259 185.094 314.608C186.561 315.899 188.438 316.544 190.726 316.544ZM251.719 322V296.92C251.719 292.344 251.044 288.912 249.695 286.624C248.404 284.277 245.999 283.104 242.479 283.104C239.369 283.104 236.788 283.955 234.735 285.656C232.74 287.299 231.332 289.381 230.511 291.904V322H223.471V278H228.399L229.719 283.368H230.071C231.479 281.491 233.356 279.965 235.703 278.792C238.108 277.56 240.953 276.944 244.239 276.944C246.644 276.944 248.756 277.237 250.575 277.824C252.393 278.352 253.889 279.32 255.063 280.728C256.295 282.136 257.204 284.043 257.791 286.448C258.436 288.795 258.759 291.787 258.759 295.424V322H251.719ZM306.18 324.024C306.18 329.715 304.654 333.909 301.604 336.608C298.612 339.307 294.153 340.656 288.228 340.656C284.708 340.656 281.862 340.421 279.692 339.952C277.58 339.541 275.761 338.984 274.236 338.28L276.084 332.296C277.433 332.824 278.929 333.323 280.572 333.792C282.214 334.261 284.356 334.496 286.996 334.496C289.46 334.496 291.454 334.261 292.98 333.792C294.564 333.381 295.825 332.648 296.764 331.592C297.702 330.595 298.348 329.275 298.7 327.632C299.052 326.048 299.228 324.141 299.228 321.912V317.688H298.876C297.702 319.389 296.206 320.709 294.388 321.648C292.569 322.528 290.193 322.968 287.26 322.968C281.334 322.968 276.964 321.12 274.148 317.424C271.39 313.728 270.012 307.979 270.012 300.176C270.012 292.667 271.801 286.976 275.38 283.104C278.958 279.173 284.238 277.208 291.22 277.208C294.564 277.208 297.409 277.472 299.756 278C302.161 278.528 304.302 279.144 306.18 279.848V324.024ZM288.492 316.808C291.484 316.808 293.83 316.075 295.532 314.608C297.233 313.083 298.436 310.736 299.14 307.568V285.04C296.793 283.925 293.801 283.368 290.164 283.368C286.174 283.368 283.036 284.717 280.748 287.416C278.46 290.115 277.316 294.339 277.316 300.088C277.316 302.552 277.521 304.811 277.932 306.864C278.342 308.917 278.988 310.677 279.868 312.144C280.748 313.611 281.892 314.755 283.3 315.576C284.708 316.397 286.438 316.808 288.492 316.808ZM352.741 318.48C350.981 319.888 348.752 321.003 346.053 321.824C343.413 322.645 340.597 323.056 337.605 323.056C334.261 323.056 331.357 322.528 328.893 321.472C326.429 320.357 324.405 318.803 322.821 316.808C321.237 314.755 320.064 312.32 319.301 309.504C318.539 306.688 318.157 303.52 318.157 300C318.157 292.491 319.829 286.771 323.173 282.84C326.517 278.909 331.299 276.944 337.517 276.944C339.512 276.944 341.507 277.179 343.501 277.648C345.496 278.059 347.285 278.88 348.869 280.112C350.453 281.344 351.744 283.104 352.741 285.392C353.739 287.621 354.237 290.584 354.237 294.28C354.237 296.216 354.061 298.357 353.709 300.704H325.461C325.461 303.285 325.725 305.573 326.253 307.568C326.781 309.563 327.603 311.264 328.717 312.672C329.832 314.021 331.269 315.077 333.029 315.84C334.848 316.544 337.048 316.896 339.629 316.896C341.624 316.896 343.619 316.544 345.613 315.84C347.608 315.136 349.104 314.315 350.101 313.376L352.741 318.48ZM337.605 283.104C334.144 283.104 331.357 284.013 329.245 285.832C327.192 287.651 325.96 290.76 325.549 295.16H347.373C347.373 290.701 346.523 287.592 344.821 285.832C343.12 284.013 340.715 283.104 337.605 283.104ZM430.482 274.744C430.482 276.269 430.276 277.795 429.866 279.32C429.514 280.845 428.898 282.253 428.018 283.544C427.138 284.776 425.994 285.891 424.586 286.888C423.178 287.827 421.476 288.531 419.482 289V289.528C421.242 289.821 422.914 290.32 424.498 291.024C426.082 291.728 427.46 292.696 428.634 293.928C429.807 295.16 430.716 296.656 431.362 298.416C432.066 300.176 432.418 302.259 432.418 304.664C432.418 307.832 431.743 310.589 430.394 312.936C429.044 315.224 427.226 317.101 424.938 318.568C422.708 320.035 420.156 321.12 417.282 321.824C414.407 322.528 411.444 322.88 408.394 322.88C407.396 322.88 406.106 322.88 404.522 322.88C402.996 322.88 401.324 322.821 399.506 322.704C397.746 322.645 395.927 322.528 394.05 322.352C392.231 322.176 390.559 321.912 389.034 321.56V260.84C390.148 260.664 391.41 260.488 392.818 260.312C394.284 260.136 395.839 259.989 397.482 259.872C399.124 259.755 400.796 259.667 402.498 259.608C404.258 259.549 405.988 259.52 407.69 259.52C410.564 259.52 413.351 259.755 416.05 260.224C418.807 260.635 421.242 261.397 423.354 262.512C425.524 263.627 427.255 265.181 428.546 267.176C429.836 269.171 430.482 271.693 430.482 274.744ZM408.482 312.936C409.948 312.936 411.356 312.76 412.706 312.408C414.114 312.056 415.346 311.528 416.402 310.824C417.458 310.061 418.308 309.123 418.954 308.008C419.599 306.893 419.922 305.573 419.922 304.048C419.922 302.112 419.54 300.587 418.778 299.472C418.015 298.357 417.018 297.507 415.786 296.92C414.554 296.275 413.175 295.864 411.65 295.688C410.124 295.512 408.599 295.424 407.074 295.424H400.65V312.408C400.943 312.525 401.412 312.613 402.058 312.672C402.703 312.731 403.378 312.789 404.082 312.848C404.844 312.848 405.607 312.877 406.37 312.936C407.191 312.936 407.895 312.936 408.482 312.936ZM404.522 286.272C405.343 286.272 406.282 286.243 407.338 286.184C408.452 286.125 409.362 286.037 410.066 285.92C412.295 285.216 414.202 284.16 415.786 282.752C417.428 281.344 418.25 279.496 418.25 277.208C418.25 275.683 417.956 274.421 417.37 273.424C416.783 272.427 415.991 271.635 414.994 271.048C414.055 270.461 412.97 270.051 411.738 269.816C410.506 269.581 409.215 269.464 407.866 269.464C406.34 269.464 404.932 269.493 403.642 269.552C402.351 269.611 401.354 269.699 400.65 269.816V286.272H404.522ZM441.378 280.552C443.725 279.496 446.511 278.675 449.738 278.088C452.965 277.443 456.338 277.12 459.858 277.12C462.909 277.12 465.461 277.501 467.514 278.264C469.567 278.968 471.181 279.995 472.354 281.344C473.586 282.693 474.437 284.307 474.906 286.184C475.434 288.061 475.698 290.173 475.698 292.52C475.698 295.101 475.61 297.712 475.434 300.352C475.258 302.933 475.141 305.485 475.082 308.008C475.082 310.531 475.17 312.995 475.346 315.4C475.522 317.747 475.962 319.976 476.666 322.088H467.338L465.49 316.016H465.05C463.877 317.835 462.234 319.419 460.122 320.768C458.069 322.059 455.399 322.704 452.114 322.704C450.061 322.704 448.213 322.411 446.57 321.824C444.927 321.179 443.519 320.299 442.346 319.184C441.173 318.011 440.263 316.661 439.618 315.136C438.973 313.552 438.65 311.792 438.65 309.856C438.65 307.157 439.237 304.899 440.41 303.08C441.642 301.203 443.373 299.707 445.602 298.592C447.89 297.419 450.589 296.627 453.698 296.216C456.866 295.747 460.386 295.6 464.258 295.776C464.669 292.491 464.434 290.144 463.554 288.736C462.674 287.269 460.709 286.536 457.658 286.536C455.37 286.536 452.935 286.771 450.354 287.24C447.831 287.709 445.749 288.325 444.106 289.088L441.378 280.552ZM455.898 313.288C458.186 313.288 460.005 312.789 461.354 311.792C462.703 310.736 463.701 309.621 464.346 308.448V302.728C462.527 302.552 460.767 302.523 459.066 302.64C457.423 302.757 455.957 303.021 454.666 303.432C453.375 303.843 452.349 304.429 451.586 305.192C450.823 305.955 450.442 306.923 450.442 308.096C450.442 309.739 450.911 311.029 451.85 311.968C452.847 312.848 454.197 313.288 455.898 313.288ZM513.106 322V297.008C513.106 293.429 512.578 290.848 511.522 289.264C510.525 287.68 508.794 286.888 506.33 286.888C504.16 286.888 502.312 287.533 500.786 288.824C499.32 290.056 498.264 291.611 497.618 293.488V322H486.178V278H495.242L496.562 283.808H496.914C498.264 281.931 500.053 280.288 502.282 278.88C504.512 277.472 507.386 276.768 510.906 276.768C513.077 276.768 515.013 277.061 516.714 277.648C518.416 278.235 519.853 279.203 521.026 280.552C522.2 281.901 523.08 283.749 523.666 286.096C524.253 288.384 524.546 291.229 524.546 294.632V322H513.106ZM549.531 303.784H546.451V322H535.011V260.4H546.451V296.744L549.091 295.512L559.123 278H571.707L561.147 294.72L556.659 298.064L561.499 301.496L573.379 322H560.267L549.531 303.784ZM580.174 278H591.614V322H580.174V278ZM578.502 265.592C578.502 263.891 579.118 262.453 580.35 261.28C581.641 260.048 583.401 259.432 585.63 259.432C587.859 259.432 589.649 260.048 590.998 261.28C592.406 262.453 593.11 263.891 593.11 265.592C593.11 267.293 592.406 268.731 590.998 269.904C589.649 271.019 587.859 271.576 585.63 271.576C583.401 271.576 581.641 271.019 580.35 269.904C579.118 268.731 578.502 267.293 578.502 265.592ZM630.559 322V297.008C630.559 293.429 630.031 290.848 628.975 289.264C627.977 287.68 626.247 286.888 623.783 286.888C621.612 286.888 619.764 287.533 618.239 288.824C616.772 290.056 615.716 291.611 615.071 293.488V322H603.631V278H612.695L614.015 283.808H614.367C615.716 281.931 617.505 280.288 619.735 278.88C621.964 277.472 624.839 276.768 628.359 276.768C630.529 276.768 632.465 277.061 634.167 277.648C635.868 278.235 637.305 279.203 638.479 280.552C639.652 281.901 640.532 283.749 641.119 286.096C641.705 288.384 641.999 291.229 641.999 294.632V322H630.559ZM689.688 322C689.688 328.395 687.957 333.088 684.496 336.08C681.034 339.131 676.194 340.656 669.976 340.656C665.752 340.656 662.408 340.363 659.944 339.776C657.538 339.189 655.72 338.573 654.488 337.928L656.864 328.864C658.213 329.392 659.768 329.92 661.528 330.448C663.346 330.976 665.576 331.24 668.216 331.24C672.205 331.24 674.904 330.36 676.312 328.6C677.778 326.899 678.512 324.493 678.512 321.384V318.568H678.16C676.106 321.325 672.469 322.704 667.248 322.704C661.557 322.704 657.304 320.944 654.488 317.424C651.73 313.904 650.352 308.389 650.352 300.88C650.352 293.019 652.229 287.064 655.984 283.016C659.738 278.968 665.194 276.944 672.352 276.944C676.106 276.944 679.45 277.208 682.384 277.736C685.376 278.264 687.81 278.88 689.688 279.584V322ZM670.328 313.552C672.557 313.552 674.258 313.053 675.432 312.056C676.664 311.059 677.602 309.563 678.248 307.568V287.768C676.429 287.005 674.17 286.624 671.472 286.624C668.538 286.624 666.25 287.739 664.608 289.968C662.965 292.139 662.144 295.629 662.144 300.44C662.144 304.723 662.848 307.979 664.256 310.208C665.664 312.437 667.688 313.552 670.328 313.552ZM73.936 392H80.8V389.536C80.8 386.837 81.0053 384.491 81.416 382.496C81.8853 380.501 82.6187 378.888 83.616 377.656C84.6133 376.365 85.904 375.427 87.488 374.84C89.072 374.195 91.0373 373.872 93.384 373.872C95.2613 373.872 96.904 373.989 98.312 374.224C99.7787 374.459 101.304 374.899 102.888 375.544L101.304 381.44C99.9547 380.853 98.664 380.472 97.432 380.296C96.2587 380.12 95.144 380.032 94.088 380.032C92.5627 380.032 91.36 380.267 90.48 380.736C89.6587 381.205 89.0427 381.909 88.632 382.848C88.28 383.728 88.0453 384.843 87.928 386.192C87.8693 387.483 87.84 389.008 87.84 390.768V392H99.544V398.16H87.84V436H80.8V398.16H73.936V392ZM104.348 414C104.348 406.549 105.991 400.859 109.276 396.928C112.62 392.939 117.402 390.944 123.62 390.944C126.906 390.944 129.751 391.501 132.156 392.616C134.62 393.672 136.644 395.227 138.228 397.28C139.812 399.275 140.986 401.709 141.748 404.584C142.511 407.4 142.892 410.539 142.892 414C142.892 421.451 141.22 427.171 137.876 431.16C134.591 435.091 129.839 437.056 123.62 437.056C120.335 437.056 117.46 436.528 114.996 435.472C112.591 434.357 110.596 432.803 109.012 430.808C107.428 428.755 106.255 426.32 105.492 423.504C104.73 420.629 104.348 417.461 104.348 414ZM111.652 414C111.652 416.229 111.858 418.371 112.268 420.424C112.738 422.477 113.442 424.267 114.38 425.792C115.319 427.317 116.551 428.549 118.076 429.488C119.602 430.427 121.45 430.896 123.62 430.896C131.599 430.955 135.588 425.323 135.588 414C135.588 411.712 135.354 409.541 134.884 407.488C134.474 405.435 133.799 403.645 132.86 402.12C131.922 400.595 130.69 399.392 129.164 398.512C127.639 397.573 125.791 397.104 123.62 397.104C115.642 397.045 111.652 402.677 111.652 414ZM175.64 398.776C173.88 398.189 172.208 397.896 170.624 397.896C168.101 397.896 166.107 398.6 164.64 400.008C163.173 401.357 162.264 403.088 161.912 405.2V436H154.872V392H159.8L161.12 397.368H161.472C162.587 395.373 163.907 393.848 165.432 392.792C167.016 391.677 169.011 391.12 171.416 391.12C173.117 391.12 175.024 391.413 177.136 392L175.64 398.776ZM230.239 403.88H253.207V431.336C250.743 433.389 247.78 434.885 244.319 435.824C240.916 436.763 237.543 437.232 234.199 437.232C230.268 437.232 226.602 436.616 223.199 435.384C219.855 434.152 216.951 432.245 214.487 429.664C212.023 427.024 210.087 423.68 208.679 419.632C207.271 415.584 206.567 410.773 206.567 405.2C206.567 399.392 207.388 394.464 209.031 390.416C210.732 386.309 212.932 382.995 215.631 380.472C218.388 377.891 221.468 376.043 224.871 374.928C228.274 373.755 231.735 373.168 235.255 373.168C238.775 373.168 241.855 373.432 244.495 373.96C247.194 374.488 249.335 375.045 250.919 375.632L248.455 385.752C246.988 385.165 245.346 384.725 243.527 384.432C241.708 384.08 239.391 383.904 236.575 383.904C234.052 383.904 231.735 384.285 229.623 385.048C227.511 385.811 225.663 387.072 224.079 388.832C222.554 390.533 221.351 392.733 220.471 395.432C219.65 398.131 219.239 401.416 219.239 405.288C219.239 408.984 219.65 412.181 220.471 414.88C221.292 417.52 222.436 419.72 223.903 421.48C225.37 423.181 227.071 424.443 229.007 425.264C231.002 426.085 233.114 426.496 235.343 426.496C236.868 426.496 238.364 426.32 239.831 425.968C241.298 425.557 242.53 424.971 243.527 424.208V412.592L230.239 411.184V403.88ZM260.632 414C260.632 406.549 262.451 400.829 266.088 396.84C269.725 392.792 274.829 390.768 281.4 390.768C284.92 390.768 287.971 391.325 290.552 392.44C293.133 393.555 295.275 395.139 296.976 397.192C298.677 399.187 299.939 401.621 300.76 404.496C301.64 407.371 302.08 410.539 302.08 414C302.08 421.451 300.261 427.2 296.624 431.248C293.045 435.237 287.971 437.232 281.4 437.232C277.88 437.232 274.829 436.675 272.248 435.56C269.667 434.445 267.496 432.891 265.736 430.896C264.035 428.843 262.744 426.379 261.864 423.504C261.043 420.629 260.632 417.461 260.632 414ZM272.424 414C272.424 415.936 272.6 417.725 272.952 419.368C273.304 421.011 273.832 422.448 274.536 423.68C275.24 424.912 276.149 425.88 277.264 426.584C278.437 427.229 279.816 427.552 281.4 427.552C284.392 427.552 286.621 426.467 288.088 424.296C289.555 422.125 290.288 418.693 290.288 414C290.288 409.952 289.613 406.696 288.264 404.232C286.915 401.709 284.627 400.448 281.4 400.448C278.584 400.448 276.384 401.504 274.8 403.616C273.216 405.728 272.424 409.189 272.424 414ZM308.778 414C308.778 406.549 310.596 400.829 314.234 396.84C317.871 392.792 322.975 390.768 329.546 390.768C333.066 390.768 336.116 391.325 338.698 392.44C341.279 393.555 343.42 395.139 345.122 397.192C346.823 399.187 348.084 401.621 348.906 404.496C349.786 407.371 350.226 410.539 350.226 414C350.226 421.451 348.407 427.2 344.77 431.248C341.191 435.237 336.116 437.232 329.546 437.232C326.026 437.232 322.975 436.675 320.394 435.56C317.812 434.445 315.642 432.891 313.882 430.896C312.18 428.843 310.89 426.379 310.01 423.504C309.188 420.629 308.778 417.461 308.778 414ZM320.57 414C320.57 415.936 320.746 417.725 321.098 419.368C321.45 421.011 321.978 422.448 322.682 423.68C323.386 424.912 324.295 425.88 325.41 426.584C326.583 427.229 327.962 427.552 329.546 427.552C332.538 427.552 334.767 426.467 336.234 424.296C337.7 422.125 338.434 418.693 338.434 414C338.434 409.952 337.759 406.696 336.41 404.232C335.06 401.709 332.772 400.448 329.546 400.448C326.73 400.448 324.53 401.504 322.946 403.616C321.362 405.728 320.57 409.189 320.57 414ZM396.435 420.512C396.435 422.976 396.465 425.44 396.523 427.904C396.582 430.368 396.846 433.096 397.315 436.088H389.131L387.547 430.368H387.195C386.022 432.421 384.321 434.093 382.091 435.384C379.921 436.616 377.339 437.232 374.347 437.232C368.833 437.232 364.55 435.413 361.499 431.776C358.449 428.139 356.923 422.448 356.923 414.704C356.923 407.195 358.625 401.357 362.027 397.192C365.43 393.027 370.417 390.944 376.987 390.944C378.806 390.944 380.302 391.061 381.475 391.296C382.649 391.472 383.822 391.795 384.995 392.264V374.4H396.435V420.512ZM376.987 427.552C379.217 427.552 380.977 427.024 382.267 425.968C383.558 424.853 384.467 423.269 384.995 421.216V402.56C384.174 401.915 383.265 401.445 382.267 401.152C381.27 400.8 379.979 400.624 378.395 400.624C375.169 400.624 372.734 401.709 371.091 403.88C369.507 406.051 368.715 409.776 368.715 415.056C368.715 418.811 369.361 421.832 370.651 424.12C372.001 426.408 374.113 427.552 376.987 427.552Z" fill="#000C13"/>
</g>
<defs>
<clipPath id="clip0">
<rect width="768" height="768" fill="white"/>
</clipPath>
</defs>
</svg>
