<svg width="1280" height="720" viewBox="0 0 1280 720" fill="none" xmlns="http://www.w3.org/2000/svg">
<rect width="1280" height="720" fill="#F5F5F5"/>
<g clip-path="url(#clip0)">
<path d="M672.163 460.713C672.153 460.723 672.143 460.723 672.143 460.733C664.475 466.158 655.397 471.856 645.629 477.838L645.244 478.061C645.112 478.152 645.082 478.335 645.173 478.467C645.264 478.599 645.447 478.629 645.579 478.538L645.903 478.365C654.19 474.046 663.704 468.916 673.279 463.653C673.33 463.623 673.381 463.592 673.431 463.572C672.904 462.7 672.468 461.747 672.163 460.713V460.713ZM722.473 420.004C710.392 406.681 632.646 418.665 599.59 425.884L598.819 426.047C598.657 426.077 598.556 426.229 598.586 426.381C598.617 426.543 598.769 426.645 598.921 426.614L599.682 426.462C627.068 421.585 684.031 414.833 696.284 426.979C700.026 430.69 699.134 435.456 694.793 441.093C697.125 442.594 698.789 444.956 699.539 447.907C716.478 436.673 727.849 425.935 722.473 420.004V420.004Z" fill="#D03027"/>
<path d="M677.052 457.215C677.204 461.899 680.176 465.742 684.04 465.742C691.536 465.742 694.731 456.536 694.508 450.391C694.345 445.697 691.302 441.864 687.438 441.864C680.997 441.854 676.828 451.02 677.052 457.215V457.215ZM673.096 456.961C672.822 448.961 679.09 440.779 688.199 440.779C694.285 440.779 698.271 444.835 698.494 451.05C698.788 459.486 692.925 467.232 683.401 467.232C677.295 467.232 673.309 463.187 673.096 456.961V456.961Z" fill="#004977"/>
<path d="M586.832 454.852C586.507 454.974 586.091 455.096 585.564 455.207C585.047 455.329 584.093 455.491 582.714 455.714C581.76 455.866 581.101 456.059 580.726 456.333C580.371 456.596 580.158 456.911 580.097 457.306C580.026 457.722 580.158 458.046 580.513 458.31C580.878 458.563 581.487 458.695 582.349 458.695C582.998 458.695 583.627 458.594 584.235 458.391C584.854 458.188 585.381 457.914 585.777 457.57C586.071 457.316 586.284 456.992 586.446 456.596C586.548 456.333 586.68 455.755 586.832 454.852V454.852ZM594.743 449.935C594.713 450.665 594.581 451.314 594.388 452.439L593.05 459.952C592.938 460.622 593.181 461.139 593.8 461.504L593.76 461.798L586.091 461.788L586.02 459.881C584.905 460.551 583.556 461.118 582.339 461.453C581.121 461.767 580.138 461.899 578.667 461.899C576.192 461.899 574.772 461.646 573.788 460.784C572.794 459.902 572.307 459.314 572.358 458.097C572.398 457.397 572.764 456.495 573.281 455.866C573.808 455.227 574.539 454.812 575.32 454.437C576.111 454.061 577.044 453.788 578.393 453.575C579.752 453.352 581.639 453.139 584.164 452.926C585.493 452.814 586.304 452.51 586.68 452.358C587.207 452.155 587.42 451.922 587.491 451.496C587.633 450.726 587.39 450.28 586.355 450.077C583.596 449.529 578.413 450.432 575.746 451.091L577.196 447.177C580.716 446.66 584.012 446.335 587.491 446.335C593.039 446.335 594.804 447.907 594.743 449.935V449.935Z" fill="#004977"/>
<path d="M616.978 461.787L619.635 446.771H626.979L624.321 461.787H616.978ZM620.041 443.293C620.264 442.056 622.212 441.063 624.382 441.063C626.563 441.063 628.155 442.067 627.942 443.293C627.709 444.53 625.772 445.534 623.581 445.534C621.41 445.534 619.828 444.53 620.041 443.293V443.293Z" fill="#004977"/>
<path d="M653.054 454.883C652.719 454.994 652.293 455.116 651.776 455.237C651.259 455.359 650.305 455.511 648.926 455.734C647.982 455.886 647.313 456.079 646.948 456.353C646.593 456.606 646.39 456.931 646.309 457.316C646.228 457.732 646.38 458.066 646.725 458.32C647.1 458.573 647.709 458.695 648.571 458.695C649.21 458.695 649.839 458.604 650.457 458.411C651.086 458.198 651.603 457.935 652.009 457.59C652.293 457.336 652.506 457.002 652.658 456.616C652.76 456.363 652.892 455.785 653.054 454.883V454.883ZM660.965 449.955C660.935 450.695 660.803 451.344 660.6 452.459L659.272 459.983C659.16 460.642 659.403 461.169 660.022 461.534L659.982 461.798L652.313 461.808L652.253 459.891C651.137 460.571 649.778 461.139 648.571 461.463C647.354 461.787 646.37 461.919 644.879 461.919C642.404 461.919 640.994 461.676 640.01 460.804C639.006 459.912 638.529 459.334 638.58 458.117C638.61 457.407 638.975 456.505 639.503 455.886C640.03 455.237 640.761 454.832 641.552 454.457C642.343 454.082 643.276 453.808 644.615 453.585C645.974 453.372 647.871 453.149 650.396 452.936C651.715 452.824 652.526 452.53 652.902 452.378C653.439 452.175 653.642 451.942 653.723 451.506C653.855 450.746 653.622 450.3 652.597 450.087C649.818 449.539 644.655 450.442 641.988 451.101L643.428 447.187C646.958 446.67 650.244 446.345 653.723 446.345C659.251 446.355 661.016 447.937 660.965 449.955V449.955Z" fill="#004977"/>
<path d="M571.365 456.393C568.971 456.87 567.632 457.053 565.269 457.053C561.759 457.053 558.97 455.309 559.122 452.115C559.233 449.985 561.749 445.504 568.149 445.504C570.168 445.504 571.74 445.859 573.86 447.065L574.793 441.854C571.912 440.769 570.005 440.607 567.53 440.627C559.132 440.718 551.079 444.531 550.074 452.287C549.06 460.165 558.686 462.142 562.956 462.122C565.421 462.112 567.987 462.011 570.381 461.767L571.365 456.393Z" fill="#004977"/>
<path d="M631.025 446.69L631.552 443.628L639.23 441.955L638.409 446.68H642.172L641.462 449.702L637.81 449.692L635.589 461.767C635.589 461.767 628.195 461.717 628.164 461.767L630.376 449.722H627.596L628.164 446.68H631.025V446.69Z" fill="#004977"/>
<path d="M671.993 441.042L668.422 461.777L660.947 461.787L664.71 440.839L671.993 441.042Z" fill="#004977"/>
<path d="M607.261 450.29C606.297 450.29 605.425 450.584 604.654 451.162C603.883 451.75 603.396 452.601 603.204 453.727C602.97 455.035 603.112 455.978 603.63 456.556C604.157 457.134 604.908 457.428 605.902 457.428C606.571 457.428 607.261 457.306 607.768 457.053C608.397 456.718 608.833 456.373 609.208 455.816C609.614 455.238 609.878 454.589 610.02 453.838C610.233 452.652 610.05 451.77 609.502 451.182C608.965 450.594 608.224 450.29 607.261 450.29V450.29ZM593.892 466.969L597.473 446.853H603.924L603.427 449.418C603.985 448.647 604.877 448.019 606.115 447.512C607.362 447.005 608.762 446.629 610.283 446.629C611.967 446.629 613.002 446.721 614.259 447.37C615.507 448.029 616.39 448.982 616.856 450.219C617.343 451.435 617.444 452.814 617.181 454.305C616.745 456.789 615.538 458.736 613.549 460.176C611.582 461.615 609.807 461.99 607.281 462.001C606.389 462.001 605.638 461.909 605.019 461.757C604.411 461.595 603.924 461.402 603.559 461.169C603.204 460.936 602.828 460.601 602.352 460.074L601.155 466.969H593.892Z" fill="#004977"/>
<path d="M727.188 452.135C727.148 450.928 726.539 450.107 725.291 450.107C722.279 450.107 719.074 456.008 718.526 458.381C723.466 458.391 727.31 455.45 727.188 452.135V452.135ZM727.837 461.382L728.416 461.777C726.945 464.768 723.953 467.171 720.443 467.171C717.573 467.171 715.209 465.255 715.088 461.666C714.854 455.227 720.889 449.255 725.829 449.255C727.949 449.255 729.917 450.178 729.998 452.459C730.18 457.58 722.989 459.141 718.252 459.253C718.1 459.79 718.039 460.327 718.07 461.138C718.151 463.258 719.429 465.042 722.086 465.042C724.379 465.042 726.671 463.197 727.837 461.382V461.382Z" fill="#004977"/>
<path d="M698.382 451.973C698.889 451.902 699.71 451.81 700.065 451.81C700.603 451.81 701.11 451.912 701.141 452.449C701.151 452.764 700.583 455.045 700.461 455.572L699.315 460.621C698.848 462.69 698.351 464.85 697.905 466.563H700.846L702.5 458.563C707.541 453.311 709.488 451.597 710.675 451.597C711.213 451.597 711.578 451.881 711.608 452.52C711.639 453.443 711.061 455.542 710.868 456.15L709.184 461.98C708.799 463.288 708.515 464.474 708.545 465.316C708.596 466.593 709.367 467.161 710.523 467.161C712.673 467.161 714.235 464.921 715.594 462.72L715.199 462C714.651 462.883 713.373 464.819 712.369 464.819C712.055 464.819 711.75 464.606 711.74 464.079C711.71 463.4 711.994 462.376 712.197 461.696L714.073 454.862C714.58 452.976 714.813 451.77 714.803 451.121C714.753 449.843 714.012 449.245 712.866 449.245C710.929 449.245 708.362 450.665 702.916 456.921H702.835L703.524 453.869C703.9 452.196 704.265 450.452 704.61 449.245C702.723 449.925 700.025 450.685 698.361 451.009L698.382 451.973Z" fill="#004977"/>
</g>
<path d="M312.815 354.144C311.449 355.125 309.7 355.829 307.567 356.256C305.476 356.683 303.321 356.896 301.103 356.896C298.415 356.896 295.855 356.491 293.423 355.68C291.033 354.827 288.921 353.483 287.087 351.648C285.252 349.771 283.78 347.36 282.671 344.416C281.604 341.429 281.071 337.824 281.071 333.6C281.071 329.205 281.668 325.536 282.863 322.592C284.1 319.605 285.679 317.216 287.599 315.424C289.561 313.589 291.737 312.288 294.127 311.52C296.516 310.709 298.905 310.304 301.295 310.304C303.855 310.304 306.009 310.475 307.759 310.816C309.551 311.157 311.023 311.563 312.175 312.032L310.447 319.456C309.465 318.987 308.292 318.645 306.927 318.432C305.604 318.219 303.983 318.112 302.063 318.112C298.521 318.112 295.663 319.371 293.487 321.888C291.353 324.405 290.287 328.309 290.287 333.6C290.287 335.904 290.543 338.016 291.055 339.936C291.567 341.813 292.335 343.435 293.359 344.8C294.425 346.123 295.727 347.168 297.263 347.936C298.841 348.661 300.655 349.024 302.703 349.024C304.623 349.024 306.244 348.832 307.567 348.448C308.889 348.064 310.041 347.573 311.023 346.976L312.815 354.144ZM338.901 356V337.824C338.901 335.221 338.538 333.344 337.813 332.192C337.087 331.04 335.765 330.464 333.845 330.464C332.437 330.464 331.135 330.955 329.941 331.936C328.789 332.875 328.021 334.091 327.637 335.584V356H319.317V311.2H327.637V327.584H327.893C328.917 326.219 330.175 325.131 331.669 324.32C333.162 323.509 335.061 323.104 337.365 323.104C338.986 323.104 340.415 323.317 341.653 323.744C342.89 324.171 343.914 324.875 344.725 325.856C345.578 326.837 346.197 328.181 346.581 329.888C347.007 331.552 347.221 333.621 347.221 336.096V356H338.901ZM355.28 325.856C356.986 325.088 359.013 324.491 361.36 324.064C363.706 323.595 366.16 323.36 368.72 323.36C370.938 323.36 372.794 323.637 374.288 324.192C375.781 324.704 376.954 325.451 377.808 326.432C378.704 327.413 379.322 328.587 379.664 329.952C380.048 331.317 380.24 332.853 380.24 334.56C380.24 336.437 380.176 338.336 380.048 340.256C379.92 342.133 379.834 343.989 379.792 345.824C379.792 347.659 379.856 349.451 379.984 351.2C380.112 352.907 380.432 354.528 380.944 356.064H374.16L372.816 351.648H372.496C371.642 352.971 370.448 354.123 368.912 355.104C367.418 356.043 365.477 356.512 363.088 356.512C361.594 356.512 360.25 356.299 359.056 355.872C357.861 355.403 356.837 354.763 355.984 353.952C355.13 353.099 354.469 352.117 354 351.008C353.53 349.856 353.296 348.576 353.296 347.168C353.296 345.205 353.722 343.563 354.576 342.24C355.472 340.875 356.73 339.787 358.352 338.976C360.016 338.123 361.978 337.547 364.24 337.248C366.544 336.907 369.104 336.8 371.92 336.928C372.218 334.539 372.048 332.832 371.408 331.808C370.768 330.741 369.338 330.208 367.12 330.208C365.456 330.208 363.685 330.379 361.808 330.72C359.973 331.061 358.458 331.509 357.264 332.064L355.28 325.856ZM365.84 349.664C367.504 349.664 368.826 349.301 369.808 348.576C370.789 347.808 371.514 346.997 371.984 346.144V341.984C370.661 341.856 369.381 341.835 368.144 341.92C366.949 342.005 365.882 342.197 364.944 342.496C364.005 342.795 363.258 343.221 362.704 343.776C362.149 344.331 361.872 345.035 361.872 345.888C361.872 347.083 362.213 348.021 362.896 348.704C363.621 349.344 364.602 349.664 365.84 349.664ZM408.086 356V337.824C408.086 335.221 407.702 333.344 406.934 332.192C406.208 331.04 404.95 330.464 403.158 330.464C401.579 330.464 400.235 330.933 399.126 331.872C398.059 332.768 397.291 333.899 396.822 335.264V356H388.502V324H395.094L396.054 328.224H396.31C397.291 326.859 398.592 325.664 400.214 324.64C401.835 323.616 403.926 323.104 406.486 323.104C408.064 323.104 409.472 323.317 410.71 323.744C411.947 324.171 412.992 324.875 413.846 325.856C414.699 326.837 415.339 328.181 415.766 329.888C416.192 331.552 416.406 333.621 416.406 336.096V356H408.086ZM451.729 356C451.729 360.651 450.47 364.064 447.953 366.24C445.435 368.459 441.915 369.568 437.393 369.568C434.321 369.568 431.889 369.355 430.097 368.928C428.347 368.501 427.025 368.053 426.129 367.584L427.857 360.992C428.838 361.376 429.969 361.76 431.249 362.144C432.571 362.528 434.193 362.72 436.113 362.72C439.014 362.72 440.977 362.08 442.001 360.8C443.067 359.563 443.601 357.813 443.601 355.552V353.504H443.345C441.851 355.509 439.206 356.512 435.409 356.512C431.27 356.512 428.177 355.232 426.129 352.672C424.123 350.112 423.121 346.101 423.121 340.64C423.121 334.923 424.486 330.592 427.217 327.648C429.947 324.704 433.915 323.232 439.121 323.232C441.851 323.232 444.283 323.424 446.417 323.808C448.593 324.192 450.363 324.64 451.729 325.152V356ZM437.649 349.856C439.27 349.856 440.507 349.493 441.361 348.768C442.257 348.043 442.939 346.955 443.409 345.504V331.104C442.086 330.549 440.443 330.272 438.481 330.272C436.347 330.272 434.683 331.083 433.489 332.704C432.294 334.283 431.697 336.821 431.697 340.32C431.697 343.435 432.209 345.803 433.233 347.424C434.257 349.045 435.729 349.856 437.649 349.856ZM485.849 353.248C484.569 354.272 482.82 355.147 480.601 355.872C478.425 356.555 476.1 356.896 473.625 356.896C468.463 356.896 464.687 355.403 462.297 352.416C459.908 349.387 458.713 345.248 458.713 340C458.713 334.368 460.057 330.144 462.745 327.328C465.433 324.512 469.209 323.104 474.073 323.104C475.695 323.104 477.273 323.317 478.809 323.744C480.345 324.171 481.711 324.875 482.905 325.856C484.1 326.837 485.06 328.16 485.785 329.824C486.511 331.488 486.873 333.557 486.873 336.032C486.873 336.928 486.809 337.888 486.681 338.912C486.596 339.936 486.447 341.003 486.233 342.112H467.033C467.161 344.8 467.844 346.827 469.081 348.192C470.361 349.557 472.409 350.24 475.225 350.24C476.975 350.24 478.532 349.984 479.897 349.472C481.305 348.917 482.372 348.363 483.097 347.808L485.849 353.248ZM473.945 329.76C471.769 329.76 470.148 330.421 469.081 331.744C468.057 333.024 467.439 334.752 467.225 336.928H479.129C479.3 334.624 478.937 332.853 478.041 331.616C477.188 330.379 475.823 329.76 473.945 329.76ZM541.172 321.44C541.172 322.507 541.001 323.595 540.66 324.704C540.318 325.813 539.806 326.859 539.124 327.84C538.441 328.779 537.566 329.611 536.5 330.336C535.433 331.061 534.174 331.616 532.724 332V332.256C534.004 332.469 535.22 332.832 536.372 333.344C537.566 333.856 538.612 334.56 539.508 335.456C540.404 336.352 541.129 337.44 541.684 338.72C542.238 340 542.516 341.515 542.516 343.264C542.516 345.568 542.025 347.573 541.044 349.28C540.105 350.944 538.846 352.309 537.268 353.376C535.732 354.443 533.961 355.232 531.956 355.744C529.95 356.256 527.902 356.512 525.812 356.512C525.086 356.512 524.233 356.512 523.252 356.512C522.27 356.512 521.246 356.469 520.18 356.384C519.113 356.341 518.046 356.256 516.98 356.128C515.913 356.043 514.974 355.893 514.164 355.68V311.584C515.742 311.328 517.577 311.115 519.668 310.944C521.758 310.773 524.041 310.688 526.516 310.688C528.18 310.688 529.865 310.837 531.572 311.136C533.321 311.392 534.9 311.925 536.308 312.736C537.716 313.504 538.868 314.592 539.764 316C540.702 317.408 541.172 319.221 541.172 321.44ZM526.324 351.904C527.689 351.904 529.012 351.755 530.292 351.456C531.572 351.115 532.702 350.603 533.684 349.92C534.665 349.195 535.433 348.32 535.988 347.296C536.585 346.272 536.884 345.056 536.884 343.648C536.884 341.899 536.521 340.491 535.796 339.424C535.113 338.357 534.196 337.525 533.044 336.928C531.934 336.331 530.676 335.925 529.268 335.712C527.86 335.499 526.452 335.392 525.044 335.392H519.476V351.456C519.774 351.541 520.201 351.605 520.756 351.648C521.31 351.691 521.908 351.733 522.548 351.776C523.188 351.819 523.849 351.861 524.532 351.904C525.214 351.904 525.812 351.904 526.324 351.904ZM522.804 330.912C523.529 330.912 524.404 330.891 525.428 330.848C526.452 330.805 527.305 330.741 527.988 330.656C529.012 330.315 529.972 329.909 530.868 329.44C531.764 328.928 532.553 328.352 533.236 327.712C533.961 327.029 534.516 326.261 534.9 325.408C535.326 324.512 535.54 323.552 535.54 322.528C535.54 321.12 535.262 319.968 534.708 319.072C534.196 318.133 533.492 317.387 532.596 316.832C531.7 316.277 530.676 315.893 529.524 315.68C528.372 315.424 527.198 315.296 526.004 315.296C524.596 315.296 523.294 315.339 522.1 315.424C520.948 315.467 520.073 315.552 519.476 315.68V330.912H522.804ZM551.795 326.368C553.416 325.387 555.293 324.661 557.427 324.192C559.603 323.723 561.864 323.488 564.211 323.488C566.429 323.488 568.2 323.787 569.523 324.384C570.888 324.981 571.912 325.771 572.595 326.752C573.32 327.691 573.789 328.736 574.003 329.888C574.259 331.04 574.387 332.192 574.387 333.344C574.387 335.904 574.323 338.4 574.195 340.832C574.067 343.264 574.003 345.568 574.003 347.744C574.003 349.323 574.067 350.816 574.195 352.224C574.323 353.632 574.557 354.933 574.899 356.128H571.123L569.779 351.648H569.459C569.075 352.245 568.584 352.843 567.987 353.44C567.432 353.995 566.749 354.507 565.939 354.976C565.128 355.403 564.189 355.765 563.123 356.064C562.056 356.363 560.84 356.512 559.475 356.512C558.109 356.512 556.829 356.299 555.635 355.872C554.483 355.445 553.48 354.848 552.627 354.08C551.773 353.269 551.091 352.309 550.579 351.2C550.109 350.091 549.875 348.832 549.875 347.424C549.875 345.547 550.259 343.989 551.027 342.752C551.795 341.472 552.861 340.469 554.227 339.744C555.635 338.976 557.299 338.443 559.219 338.144C561.181 337.803 563.336 337.632 565.683 337.632C566.28 337.632 566.856 337.632 567.411 337.632C568.008 337.632 568.605 337.675 569.203 337.76C569.331 336.48 569.395 335.328 569.395 334.304C569.395 331.957 568.925 330.315 567.987 329.376C567.048 328.437 565.341 327.968 562.867 327.968C562.141 327.968 561.352 328.032 560.499 328.16C559.688 328.245 558.835 328.395 557.939 328.608C557.085 328.779 556.253 329.013 555.443 329.312C554.675 329.568 553.992 329.867 553.395 330.208L551.795 326.368ZM560.883 352.032C562.077 352.032 563.144 351.883 564.083 351.584C565.021 351.243 565.832 350.837 566.515 350.368C567.197 349.856 567.752 349.301 568.179 348.704C568.648 348.107 568.989 347.531 569.203 346.976V341.664C568.605 341.621 567.987 341.6 567.347 341.6C566.749 341.557 566.152 341.536 565.555 341.536C564.232 341.536 562.931 341.621 561.651 341.792C560.413 341.92 559.304 342.197 558.323 342.624C557.384 343.008 556.616 343.563 556.019 344.288C555.464 344.971 555.187 345.845 555.187 346.912C555.187 348.405 555.72 349.643 556.787 350.624C557.853 351.563 559.219 352.032 560.883 352.032ZM605.881 356V337.76C605.881 334.432 605.39 331.936 604.409 330.272C603.47 328.565 601.721 327.712 599.161 327.712C596.899 327.712 595.022 328.331 593.529 329.568C592.078 330.763 591.054 332.277 590.457 334.112V356H585.337V324H588.921L589.881 327.904H590.137C591.161 326.539 592.526 325.429 594.233 324.576C595.982 323.68 598.051 323.232 600.441 323.232C602.19 323.232 603.726 323.445 605.049 323.872C606.371 324.256 607.459 324.96 608.313 325.984C609.209 327.008 609.87 328.395 610.297 330.144C610.766 331.851 611.001 334.027 611.001 336.672V356H605.881ZM629.681 341.6H626.737V356H621.617V311.2H626.737V338.464L629.361 337.568L639.281 324H645.233L635.441 336.864L632.817 338.976L636.017 341.536L646.705 356H640.369L629.681 341.6ZM654.61 324H659.73V356H654.61V324ZM653.522 314.272C653.522 313.291 653.842 312.459 654.482 311.776C655.164 311.051 656.018 310.688 657.042 310.688C658.066 310.688 658.94 311.051 659.666 311.776C660.391 312.459 660.754 313.291 660.754 314.272C660.754 315.253 660.391 316.064 659.666 316.704C658.94 317.344 658.066 317.664 657.042 317.664C656.018 317.664 655.164 317.344 654.482 316.704C653.842 316.064 653.522 315.253 653.522 314.272ZM692.471 356V337.76C692.471 334.432 691.98 331.936 690.999 330.272C690.06 328.565 688.311 327.712 685.751 327.712C683.489 327.712 681.612 328.331 680.119 329.568C678.668 330.763 677.644 332.277 677.047 334.112V356H671.927V324H675.511L676.471 327.904H676.727C677.751 326.539 679.116 325.429 680.823 324.576C682.572 323.68 684.641 323.232 687.031 323.232C688.78 323.232 690.316 323.445 691.639 323.872C692.961 324.256 694.049 324.96 694.903 325.984C695.799 327.008 696.46 328.395 696.887 330.144C697.356 331.851 697.591 334.027 697.591 336.672V356H692.471ZM732.719 357.472C732.719 361.611 731.609 364.661 729.391 366.624C727.215 368.587 723.972 369.568 719.663 369.568C717.103 369.568 715.033 369.397 713.455 369.056C711.919 368.757 710.596 368.352 709.487 367.84L710.831 363.488C711.812 363.872 712.9 364.235 714.095 364.576C715.289 364.917 716.847 365.088 718.767 365.088C720.559 365.088 722.009 364.917 723.119 364.576C724.271 364.277 725.188 363.744 725.871 362.976C726.553 362.251 727.023 361.291 727.279 360.096C727.535 358.944 727.663 357.557 727.663 355.936V352.864H727.407C726.553 354.101 725.465 355.061 724.143 355.744C722.82 356.384 721.092 356.704 718.959 356.704C714.649 356.704 711.471 355.36 709.423 352.672C707.417 349.984 706.415 345.803 706.415 340.128C706.415 334.667 707.716 330.528 710.319 327.712C712.921 324.853 716.761 323.424 721.839 323.424C724.271 323.424 726.34 323.616 728.047 324C729.796 324.384 731.353 324.832 732.719 325.344V357.472ZM719.855 352.224C722.031 352.224 723.737 351.691 724.975 350.624C726.212 349.515 727.087 347.808 727.599 345.504V329.12C725.892 328.309 723.716 327.904 721.071 327.904C718.169 327.904 715.887 328.885 714.223 330.848C712.559 332.811 711.727 335.883 711.727 340.064C711.727 341.856 711.876 343.499 712.175 344.992C712.473 346.485 712.943 347.765 713.583 348.832C714.223 349.899 715.055 350.731 716.079 351.328C717.103 351.925 718.361 352.224 719.855 352.224ZM758.684 324H763.676V322.208C763.676 320.245 763.826 318.539 764.124 317.088C764.466 315.637 764.999 314.464 765.724 313.568C766.45 312.629 767.388 311.947 768.54 311.52C769.692 311.051 771.122 310.816 772.828 310.816C774.194 310.816 775.388 310.901 776.412 311.072C777.479 311.243 778.588 311.563 779.74 312.032L778.588 316.32C777.607 315.893 776.668 315.616 775.772 315.488C774.919 315.36 774.108 315.296 773.34 315.296C772.231 315.296 771.356 315.467 770.716 315.808C770.119 316.149 769.671 316.661 769.372 317.344C769.116 317.984 768.946 318.795 768.86 319.776C768.818 320.715 768.796 321.824 768.796 323.104V324H777.308V328.48H768.796V356H763.676V328.48H758.684V324ZM781.442 340C781.442 334.581 782.637 330.443 785.026 327.584C787.458 324.683 790.936 323.232 795.458 323.232C797.848 323.232 799.917 323.637 801.666 324.448C803.458 325.216 804.93 326.347 806.082 327.84C807.234 329.291 808.088 331.061 808.642 333.152C809.197 335.2 809.474 337.483 809.474 340C809.474 345.419 808.258 349.579 805.826 352.48C803.437 355.339 799.981 356.768 795.458 356.768C793.069 356.768 790.978 356.384 789.186 355.616C787.437 354.805 785.986 353.675 784.834 352.224C783.682 350.731 782.829 348.96 782.274 346.912C781.72 344.821 781.442 342.517 781.442 340ZM786.754 340C786.754 341.621 786.904 343.179 787.202 344.672C787.544 346.165 788.056 347.467 788.738 348.576C789.421 349.685 790.317 350.581 791.426 351.264C792.536 351.947 793.88 352.288 795.458 352.288C801.261 352.331 804.162 348.235 804.162 340C804.162 338.336 803.992 336.757 803.65 335.264C803.352 333.771 802.861 332.469 802.178 331.36C801.496 330.251 800.6 329.376 799.49 328.736C798.381 328.053 797.037 327.712 795.458 327.712C789.656 327.669 786.754 331.765 786.754 340ZM833.931 328.928C832.651 328.501 831.435 328.288 830.283 328.288C828.448 328.288 826.997 328.8 825.931 329.824C824.864 330.805 824.203 332.064 823.947 333.6V356H818.827V324H822.411L823.371 327.904H823.627C824.437 326.453 825.397 325.344 826.507 324.576C827.659 323.765 829.109 323.36 830.859 323.36C832.096 323.36 833.483 323.573 835.019 324L833.931 328.928ZM874.919 332.64H891.623V352.608C889.831 354.101 887.677 355.189 885.159 355.872C882.685 356.555 880.231 356.896 877.799 356.896C874.941 356.896 872.274 356.448 869.799 355.552C867.367 354.656 865.255 353.269 863.463 351.392C861.671 349.472 860.263 347.04 859.239 344.096C858.215 341.152 857.703 337.653 857.703 333.6C857.703 329.376 858.301 325.792 859.495 322.848C860.733 319.861 862.333 317.451 864.295 315.616C866.301 313.739 868.541 312.395 871.015 311.584C873.49 310.731 876.007 310.304 878.567 310.304C881.127 310.304 883.367 310.496 885.287 310.88C887.25 311.264 888.807 311.669 889.959 312.096L888.167 319.456C887.101 319.029 885.906 318.709 884.583 318.496C883.261 318.24 881.575 318.112 879.527 318.112C877.693 318.112 876.007 318.389 874.471 318.944C872.935 319.499 871.591 320.416 870.439 321.696C869.33 322.933 868.455 324.533 867.815 326.496C867.218 328.459 866.919 330.848 866.919 333.664C866.919 336.352 867.218 338.677 867.815 340.64C868.413 342.56 869.245 344.16 870.311 345.44C871.378 346.677 872.615 347.595 874.023 348.192C875.474 348.789 877.01 349.088 878.631 349.088C879.741 349.088 880.829 348.96 881.895 348.704C882.962 348.405 883.858 347.979 884.583 347.424V338.976L874.919 337.952V332.64ZM897.663 340C897.663 334.581 898.986 330.421 901.631 327.52C904.277 324.576 907.989 323.104 912.767 323.104C915.327 323.104 917.546 323.509 919.423 324.32C921.301 325.131 922.858 326.283 924.095 327.776C925.333 329.227 926.25 330.997 926.847 333.088C927.487 335.179 927.807 337.483 927.807 340C927.807 345.419 926.485 349.6 923.839 352.544C921.237 355.445 917.546 356.896 912.767 356.896C910.207 356.896 907.989 356.491 906.111 355.68C904.234 354.869 902.655 353.739 901.375 352.288C900.138 350.795 899.199 349.003 898.559 346.912C897.962 344.821 897.663 342.517 897.663 340ZM906.239 340C906.239 341.408 906.367 342.709 906.623 343.904C906.879 345.099 907.263 346.144 907.775 347.04C908.287 347.936 908.949 348.64 909.759 349.152C910.613 349.621 911.615 349.856 912.767 349.856C914.943 349.856 916.565 349.067 917.631 347.488C918.698 345.909 919.231 343.413 919.231 340C919.231 337.056 918.741 334.688 917.759 332.896C916.778 331.061 915.114 330.144 912.767 330.144C910.719 330.144 909.119 330.912 907.967 332.448C906.815 333.984 906.239 336.501 906.239 340ZM933.318 340C933.318 334.581 934.641 330.421 937.286 327.52C939.932 324.576 943.644 323.104 948.422 323.104C950.982 323.104 953.201 323.509 955.078 324.32C956.956 325.131 958.513 326.283 959.75 327.776C960.988 329.227 961.905 330.997 962.502 333.088C963.142 335.179 963.462 337.483 963.462 340C963.462 345.419 962.14 349.6 959.494 352.544C956.892 355.445 953.201 356.896 948.422 356.896C945.862 356.896 943.644 356.491 941.766 355.68C939.889 354.869 938.31 353.739 937.03 352.288C935.793 350.795 934.854 349.003 934.214 346.912C933.617 344.821 933.318 342.517 933.318 340ZM941.894 340C941.894 341.408 942.022 342.709 942.278 343.904C942.534 345.099 942.918 346.144 943.43 347.04C943.942 347.936 944.604 348.64 945.414 349.152C946.268 349.621 947.27 349.856 948.422 349.856C950.598 349.856 952.22 349.067 953.286 347.488C954.353 345.909 954.886 343.413 954.886 340C954.886 337.056 954.396 334.688 953.414 332.896C952.433 331.061 950.769 330.144 948.422 330.144C946.374 330.144 944.774 330.912 943.622 332.448C942.47 333.984 941.894 336.501 941.894 340ZM997.709 344.736C997.709 346.528 997.731 348.32 997.773 350.112C997.816 351.904 998.008 353.888 998.349 356.064H992.397L991.245 351.904H990.989C990.136 353.397 988.899 354.613 987.277 355.552C985.699 356.448 983.821 356.896 981.645 356.896C977.635 356.896 974.52 355.573 972.301 352.928C970.083 350.283 968.973 346.144 968.973 340.512C968.973 335.051 970.211 330.805 972.685 327.776C975.16 324.747 978.787 323.232 983.565 323.232C984.888 323.232 985.976 323.317 986.829 323.488C987.683 323.616 988.536 323.851 989.389 324.192V311.2H997.709V344.736ZM983.565 349.856C985.187 349.856 986.467 349.472 987.405 348.704C988.344 347.893 989.005 346.741 989.389 345.248V331.68C988.792 331.211 988.131 330.869 987.405 330.656C986.68 330.4 985.741 330.272 984.589 330.272C982.243 330.272 980.472 331.061 979.277 332.64C978.125 334.219 977.549 336.928 977.549 340.768C977.549 343.499 978.019 345.696 978.957 347.36C979.939 349.024 981.475 349.856 983.565 349.856Z" fill="#000C13"/>
<rect x="6" y="6" width="1268" height="708" stroke="white" stroke-width="12"/>
<defs>
<clipPath id="clip0">
<rect width="180" height="64.5882" fill="white" transform="translate(550 414)"/>
</clipPath>
</defs>
</svg>
