<svg width="1104" height="720" viewBox="0 0 1104 720" fill="none" xmlns="http://www.w3.org/2000/svg">
<g clip-path="url(#clip0)" filter="url(#filter0_d)">
<rect width="1064" height="680" transform="translate(20 16)" fill="white"/>
<g clip-path="url(#clip1)">
<path d="M584.163 444.713C584.153 444.723 584.143 444.723 584.143 444.733C576.475 450.158 567.397 455.856 557.629 461.838L557.244 462.061C557.112 462.152 557.081 462.335 557.173 462.467C557.264 462.599 557.447 462.629 557.578 462.538L557.903 462.365C566.19 458.046 575.704 452.916 585.279 447.653C585.33 447.623 585.38 447.592 585.431 447.572C584.904 446.7 584.468 445.747 584.163 444.713V444.713ZM634.472 404.004C622.392 390.681 544.646 402.665 511.59 409.884L510.819 410.047C510.657 410.077 510.556 410.229 510.586 410.381C510.616 410.544 510.769 410.645 510.921 410.614L511.681 410.462C539.067 405.585 596.031 398.833 608.283 410.979C612.026 414.69 611.133 419.456 606.792 425.093C609.125 426.594 610.789 428.956 611.539 431.907C628.478 420.673 639.848 409.935 634.472 404.004V404.004Z" fill="#D03027"/>
<path d="M589.052 441.215C589.204 445.899 592.176 449.742 596.04 449.742C603.536 449.742 606.731 440.536 606.508 434.391C606.346 429.697 603.303 425.864 599.438 425.864C592.997 425.854 588.829 435.02 589.052 441.215V441.215ZM585.096 440.961C584.822 432.962 591.091 424.779 600.199 424.779C606.285 424.779 610.271 428.835 610.494 435.05C610.788 443.486 604.926 451.233 595.401 451.233C589.295 451.233 585.309 447.187 585.096 440.961V440.961Z" fill="#004977"/>
<path d="M498.832 438.852C498.508 438.974 498.092 439.096 497.564 439.207C497.047 439.329 496.094 439.491 494.714 439.714C493.761 439.866 493.101 440.059 492.726 440.333C492.371 440.596 492.158 440.911 492.097 441.306C492.026 441.722 492.158 442.046 492.513 442.31C492.878 442.563 493.487 442.695 494.349 442.695C494.998 442.695 495.627 442.594 496.236 442.391C496.854 442.188 497.382 441.915 497.777 441.57C498.071 441.316 498.284 440.992 498.447 440.596C498.548 440.333 498.68 439.755 498.832 438.852V438.852ZM506.744 433.935C506.713 434.665 506.581 435.314 506.389 436.439L505.05 443.953C504.938 444.622 505.182 445.139 505.8 445.504L505.76 445.798L498.092 445.788L498.021 443.882C496.905 444.551 495.556 445.119 494.339 445.453C493.122 445.767 492.138 445.899 490.667 445.899C488.192 445.899 486.772 445.646 485.788 444.784C484.794 443.902 484.307 443.314 484.358 442.097C484.399 441.397 484.764 440.495 485.281 439.866C485.809 439.228 486.539 438.812 487.32 438.437C488.111 438.062 489.044 437.788 490.393 437.575C491.752 437.352 493.639 437.139 496.165 436.926C497.493 436.814 498.305 436.51 498.68 436.358C499.207 436.155 499.42 435.922 499.491 435.496C499.633 434.726 499.39 434.28 498.355 434.077C495.597 433.529 490.413 434.432 487.746 435.091L489.196 431.177C492.716 430.66 496.012 430.335 499.491 430.335C505.04 430.335 506.805 431.907 506.744 433.935V433.935Z" fill="#004977"/>
<path d="M528.978 445.788L531.635 430.771H538.979L536.321 445.788H528.978ZM532.041 427.294C532.264 426.057 534.211 425.063 536.382 425.063C538.563 425.063 540.155 426.067 539.942 427.294C539.709 428.531 537.772 429.534 535.581 429.534C533.41 429.534 531.828 428.531 532.041 427.294V427.294Z" fill="#004977"/>
<path d="M565.054 438.883C564.719 438.994 564.293 439.116 563.776 439.237C563.259 439.359 562.305 439.511 560.926 439.734C559.982 439.886 559.313 440.079 558.948 440.353C558.593 440.606 558.39 440.931 558.309 441.316C558.228 441.732 558.38 442.066 558.725 442.32C559.1 442.573 559.709 442.695 560.571 442.695C561.21 442.695 561.839 442.604 562.457 442.411C563.086 442.198 563.603 441.935 564.009 441.59C564.293 441.336 564.506 441.002 564.658 440.616C564.76 440.363 564.892 439.785 565.054 438.883V438.883ZM572.965 433.955C572.935 434.695 572.803 435.344 572.6 436.459L571.272 443.983C571.16 444.642 571.403 445.169 572.022 445.534L571.982 445.798L564.313 445.808L564.253 443.891C563.137 444.571 561.778 445.139 560.571 445.463C559.354 445.787 558.37 445.919 556.879 445.919C554.404 445.919 552.994 445.676 552.01 444.804C551.006 443.912 550.529 443.334 550.58 442.117C550.61 441.407 550.975 440.505 551.503 439.886C552.03 439.237 552.761 438.832 553.552 438.457C554.343 438.082 555.276 437.808 556.615 437.585C557.974 437.372 559.871 437.149 562.396 436.936C563.715 436.824 564.526 436.53 564.902 436.378C565.439 436.175 565.642 435.942 565.723 435.506C565.855 434.746 565.622 434.3 564.597 434.087C561.818 433.539 556.655 434.442 553.988 435.101L555.428 431.187C558.958 430.67 562.244 430.345 565.723 430.345C571.251 430.355 573.016 431.937 572.965 433.955V433.955Z" fill="#004977"/>
<path d="M483.365 440.394C480.971 440.87 479.632 441.053 477.269 441.053C473.759 441.053 470.97 439.309 471.122 436.115C471.233 433.986 473.749 429.504 480.149 429.504C482.168 429.504 483.74 429.859 485.86 431.065L486.793 425.854C483.912 424.769 482.005 424.607 479.53 424.627C471.132 424.718 463.079 428.531 462.074 436.287C461.06 444.165 470.686 446.143 474.956 446.122C477.421 446.112 479.987 446.011 482.381 445.767L483.365 440.394Z" fill="#004977"/>
<path d="M543.025 430.69L543.552 427.628L551.231 425.955L550.409 430.68H554.172L553.462 433.702L549.811 433.692L547.589 445.767C547.589 445.767 540.195 445.717 540.165 445.767L542.376 433.722H539.597L540.165 430.68H543.025V430.69Z" fill="#004977"/>
<path d="M583.993 425.042L580.422 445.777L572.947 445.787L576.71 424.839L583.993 425.042Z" fill="#004977"/>
<path d="M519.261 434.29C518.297 434.29 517.425 434.584 516.654 435.162C515.883 435.75 515.397 436.602 515.204 437.727C514.971 439.035 515.113 439.978 515.63 440.556C516.157 441.134 516.908 441.428 517.902 441.428C518.571 441.428 519.261 441.306 519.768 441.053C520.397 440.718 520.833 440.373 521.209 439.816C521.614 439.238 521.878 438.589 522.02 437.839C522.233 436.652 522.05 435.77 521.503 435.182C520.965 434.594 520.225 434.29 519.261 434.29V434.29ZM505.893 450.969L509.473 430.853H515.924L515.427 433.418C515.985 432.647 516.877 432.019 518.115 431.512C519.362 431.005 520.762 430.63 522.284 430.63C523.967 430.63 525.002 430.721 526.26 431.37C527.507 432.029 528.39 432.982 528.856 434.219C529.343 435.436 529.445 436.814 529.181 438.305C528.745 440.789 527.538 442.736 525.55 444.176C523.582 445.615 521.807 445.991 519.281 446.001C518.389 446.001 517.638 445.909 517.019 445.757C516.411 445.595 515.924 445.402 515.559 445.169C515.204 444.936 514.829 444.601 514.352 444.074L513.155 450.969H505.893Z" fill="#004977"/>
<path d="M639.188 436.135C639.148 434.928 638.539 434.107 637.291 434.107C634.279 434.107 631.074 440.008 630.526 442.381C635.466 442.391 639.31 439.45 639.188 436.135V436.135ZM639.837 445.382L640.416 445.777C638.945 448.768 635.953 451.171 632.443 451.171C629.573 451.171 627.209 449.255 627.088 445.666C626.854 439.227 632.889 433.255 637.829 433.255C639.949 433.255 641.917 434.178 641.998 436.459C642.18 441.58 634.989 443.141 630.252 443.253C630.1 443.79 630.039 444.327 630.07 445.138C630.151 447.258 631.429 449.042 634.086 449.042C636.379 449.042 638.671 447.197 639.837 445.382V445.382Z" fill="#004977"/>
<path d="M610.381 435.973C610.889 435.902 611.71 435.81 612.065 435.81C612.603 435.81 613.11 435.912 613.14 436.449C613.151 436.764 612.583 439.045 612.461 439.572L611.315 444.622C610.848 446.69 610.351 448.85 609.905 450.563H612.846L614.5 442.563C619.541 437.311 621.488 435.598 622.675 435.598C623.212 435.598 623.578 435.881 623.608 436.52C623.638 437.443 623.06 439.542 622.868 440.15L621.184 445.98C620.798 447.288 620.514 448.474 620.545 449.316C620.596 450.594 621.366 451.161 622.523 451.161C624.673 451.161 626.235 448.921 627.594 446.72L627.199 446C626.651 446.883 625.373 448.819 624.369 448.819C624.054 448.819 623.75 448.606 623.74 448.079C623.709 447.4 623.993 446.376 624.196 445.696L626.073 438.862C626.58 436.976 626.813 435.77 626.803 435.121C626.752 433.843 626.012 433.245 624.866 433.245C622.928 433.245 620.362 434.665 614.915 440.921H614.834L615.524 437.869C615.899 436.196 616.264 434.452 616.609 433.245C614.723 433.925 612.025 434.685 610.361 435.009L610.381 435.973Z" fill="#004977"/>
</g>
<path d="M223.815 338.144C222.449 339.125 220.7 339.829 218.567 340.256C216.476 340.683 214.321 340.896 212.103 340.896C209.415 340.896 206.855 340.491 204.423 339.68C202.033 338.827 199.921 337.483 198.087 335.648C196.252 333.771 194.78 331.36 193.671 328.416C192.604 325.429 192.071 321.824 192.071 317.6C192.071 313.205 192.668 309.536 193.863 306.592C195.1 303.605 196.679 301.216 198.599 299.424C200.561 297.589 202.737 296.288 205.127 295.52C207.516 294.709 209.905 294.304 212.295 294.304C214.855 294.304 217.009 294.475 218.759 294.816C220.551 295.157 222.023 295.563 223.175 296.032L221.447 303.456C220.465 302.987 219.292 302.645 217.927 302.432C216.604 302.219 214.983 302.112 213.063 302.112C209.521 302.112 206.663 303.371 204.487 305.888C202.353 308.405 201.287 312.309 201.287 317.6C201.287 319.904 201.543 322.016 202.055 323.936C202.567 325.813 203.335 327.435 204.359 328.8C205.425 330.123 206.727 331.168 208.263 331.936C209.841 332.661 211.655 333.024 213.703 333.024C215.623 333.024 217.244 332.832 218.567 332.448C219.889 332.064 221.041 331.573 222.023 330.976L223.815 338.144ZM249.901 340V321.824C249.901 319.221 249.538 317.344 248.813 316.192C248.087 315.04 246.765 314.464 244.845 314.464C243.437 314.464 242.135 314.955 240.941 315.936C239.789 316.875 239.021 318.091 238.637 319.584V340H230.317V295.2H238.637V311.584H238.893C239.917 310.219 241.175 309.131 242.669 308.32C244.162 307.509 246.061 307.104 248.365 307.104C249.986 307.104 251.415 307.317 252.653 307.744C253.89 308.171 254.914 308.875 255.725 309.856C256.578 310.837 257.197 312.181 257.581 313.888C258.007 315.552 258.221 317.621 258.221 320.096V340H249.901ZM266.28 309.856C267.986 309.088 270.013 308.491 272.36 308.064C274.706 307.595 277.16 307.36 279.72 307.36C281.938 307.36 283.794 307.637 285.288 308.192C286.781 308.704 287.954 309.451 288.808 310.432C289.704 311.413 290.322 312.587 290.664 313.952C291.048 315.317 291.24 316.853 291.24 318.56C291.24 320.437 291.176 322.336 291.048 324.256C290.92 326.133 290.834 327.989 290.792 329.824C290.792 331.659 290.856 333.451 290.984 335.2C291.112 336.907 291.432 338.528 291.944 340.064H285.16L283.816 335.648H283.496C282.642 336.971 281.448 338.123 279.912 339.104C278.418 340.043 276.477 340.512 274.088 340.512C272.594 340.512 271.25 340.299 270.056 339.872C268.861 339.403 267.837 338.763 266.984 337.952C266.13 337.099 265.469 336.117 265 335.008C264.53 333.856 264.296 332.576 264.296 331.168C264.296 329.205 264.722 327.563 265.576 326.24C266.472 324.875 267.73 323.787 269.352 322.976C271.016 322.123 272.978 321.547 275.24 321.248C277.544 320.907 280.104 320.8 282.92 320.928C283.218 318.539 283.048 316.832 282.408 315.808C281.768 314.741 280.338 314.208 278.12 314.208C276.456 314.208 274.685 314.379 272.808 314.72C270.973 315.061 269.458 315.509 268.264 316.064L266.28 309.856ZM276.84 333.664C278.504 333.664 279.826 333.301 280.808 332.576C281.789 331.808 282.514 330.997 282.984 330.144V325.984C281.661 325.856 280.381 325.835 279.144 325.92C277.949 326.005 276.882 326.197 275.944 326.496C275.005 326.795 274.258 327.221 273.704 327.776C273.149 328.331 272.872 329.035 272.872 329.888C272.872 331.083 273.213 332.021 273.896 332.704C274.621 333.344 275.602 333.664 276.84 333.664ZM319.086 340V321.824C319.086 319.221 318.702 317.344 317.934 316.192C317.208 315.04 315.95 314.464 314.158 314.464C312.579 314.464 311.235 314.933 310.126 315.872C309.059 316.768 308.291 317.899 307.822 319.264V340H299.502V308H306.094L307.054 312.224H307.31C308.291 310.859 309.592 309.664 311.214 308.64C312.835 307.616 314.926 307.104 317.486 307.104C319.064 307.104 320.472 307.317 321.71 307.744C322.947 308.171 323.992 308.875 324.846 309.856C325.699 310.837 326.339 312.181 326.766 313.888C327.192 315.552 327.406 317.621 327.406 320.096V340H319.086ZM362.729 340C362.729 344.651 361.47 348.064 358.953 350.24C356.435 352.459 352.915 353.568 348.393 353.568C345.321 353.568 342.889 353.355 341.097 352.928C339.347 352.501 338.025 352.053 337.129 351.584L338.857 344.992C339.838 345.376 340.969 345.76 342.249 346.144C343.571 346.528 345.193 346.72 347.113 346.72C350.014 346.72 351.977 346.08 353.001 344.8C354.067 343.563 354.601 341.813 354.601 339.552V337.504H354.345C352.851 339.509 350.206 340.512 346.409 340.512C342.27 340.512 339.177 339.232 337.129 336.672C335.123 334.112 334.121 330.101 334.121 324.64C334.121 318.923 335.486 314.592 338.217 311.648C340.947 308.704 344.915 307.232 350.121 307.232C352.851 307.232 355.283 307.424 357.417 307.808C359.593 308.192 361.363 308.64 362.729 309.152V340ZM348.649 333.856C350.27 333.856 351.507 333.493 352.361 332.768C353.257 332.043 353.939 330.955 354.409 329.504V315.104C353.086 314.549 351.443 314.272 349.481 314.272C347.347 314.272 345.683 315.083 344.489 316.704C343.294 318.283 342.697 320.821 342.697 324.32C342.697 327.435 343.209 329.803 344.233 331.424C345.257 333.045 346.729 333.856 348.649 333.856ZM396.849 337.248C395.569 338.272 393.82 339.147 391.601 339.872C389.425 340.555 387.1 340.896 384.625 340.896C379.463 340.896 375.687 339.403 373.297 336.416C370.908 333.387 369.713 329.248 369.713 324C369.713 318.368 371.057 314.144 373.745 311.328C376.433 308.512 380.209 307.104 385.073 307.104C386.695 307.104 388.273 307.317 389.809 307.744C391.345 308.171 392.711 308.875 393.905 309.856C395.1 310.837 396.06 312.16 396.785 313.824C397.511 315.488 397.873 317.557 397.873 320.032C397.873 320.928 397.809 321.888 397.681 322.912C397.596 323.936 397.447 325.003 397.233 326.112H378.033C378.161 328.8 378.844 330.827 380.081 332.192C381.361 333.557 383.409 334.24 386.225 334.24C387.975 334.24 389.532 333.984 390.897 333.472C392.305 332.917 393.372 332.363 394.097 331.808L396.849 337.248ZM384.945 313.76C382.769 313.76 381.148 314.421 380.081 315.744C379.057 317.024 378.439 318.752 378.225 320.928H390.129C390.3 318.624 389.937 316.853 389.041 315.616C388.188 314.379 386.823 313.76 384.945 313.76ZM452.172 305.44C452.172 306.507 452.001 307.595 451.66 308.704C451.318 309.813 450.806 310.859 450.124 311.84C449.441 312.779 448.566 313.611 447.5 314.336C446.433 315.061 445.174 315.616 443.724 316V316.256C445.004 316.469 446.22 316.832 447.372 317.344C448.566 317.856 449.612 318.56 450.508 319.456C451.404 320.352 452.129 321.44 452.684 322.72C453.238 324 453.516 325.515 453.516 327.264C453.516 329.568 453.025 331.573 452.044 333.28C451.105 334.944 449.846 336.309 448.268 337.376C446.732 338.443 444.961 339.232 442.956 339.744C440.95 340.256 438.902 340.512 436.812 340.512C436.086 340.512 435.233 340.512 434.252 340.512C433.27 340.512 432.246 340.469 431.18 340.384C430.113 340.341 429.046 340.256 427.98 340.128C426.913 340.043 425.974 339.893 425.164 339.68V295.584C426.742 295.328 428.577 295.115 430.668 294.944C432.758 294.773 435.041 294.688 437.516 294.688C439.18 294.688 440.865 294.837 442.572 295.136C444.321 295.392 445.9 295.925 447.308 296.736C448.716 297.504 449.868 298.592 450.764 300C451.702 301.408 452.172 303.221 452.172 305.44ZM437.324 335.904C438.689 335.904 440.012 335.755 441.292 335.456C442.572 335.115 443.702 334.603 444.684 333.92C445.665 333.195 446.433 332.32 446.988 331.296C447.585 330.272 447.884 329.056 447.884 327.648C447.884 325.899 447.521 324.491 446.796 323.424C446.113 322.357 445.196 321.525 444.044 320.928C442.934 320.331 441.676 319.925 440.268 319.712C438.86 319.499 437.452 319.392 436.044 319.392H430.476V335.456C430.774 335.541 431.201 335.605 431.756 335.648C432.31 335.691 432.908 335.733 433.548 335.776C434.188 335.819 434.849 335.861 435.532 335.904C436.214 335.904 436.812 335.904 437.324 335.904ZM433.804 314.912C434.529 314.912 435.404 314.891 436.428 314.848C437.452 314.805 438.305 314.741 438.988 314.656C440.012 314.315 440.972 313.909 441.868 313.44C442.764 312.928 443.553 312.352 444.236 311.712C444.961 311.029 445.516 310.261 445.9 309.408C446.326 308.512 446.54 307.552 446.54 306.528C446.54 305.12 446.262 303.968 445.708 303.072C445.196 302.133 444.492 301.387 443.596 300.832C442.7 300.277 441.676 299.893 440.524 299.68C439.372 299.424 438.198 299.296 437.004 299.296C435.596 299.296 434.294 299.339 433.1 299.424C431.948 299.467 431.073 299.552 430.476 299.68V314.912H433.804ZM462.795 310.368C464.416 309.387 466.293 308.661 468.427 308.192C470.603 307.723 472.864 307.488 475.211 307.488C477.429 307.488 479.2 307.787 480.523 308.384C481.888 308.981 482.912 309.771 483.595 310.752C484.32 311.691 484.789 312.736 485.003 313.888C485.259 315.04 485.387 316.192 485.387 317.344C485.387 319.904 485.323 322.4 485.195 324.832C485.067 327.264 485.003 329.568 485.003 331.744C485.003 333.323 485.067 334.816 485.195 336.224C485.323 337.632 485.557 338.933 485.899 340.128H482.123L480.779 335.648H480.459C480.075 336.245 479.584 336.843 478.987 337.44C478.432 337.995 477.749 338.507 476.939 338.976C476.128 339.403 475.189 339.765 474.123 340.064C473.056 340.363 471.84 340.512 470.475 340.512C469.109 340.512 467.829 340.299 466.635 339.872C465.483 339.445 464.48 338.848 463.627 338.08C462.773 337.269 462.091 336.309 461.579 335.2C461.109 334.091 460.875 332.832 460.875 331.424C460.875 329.547 461.259 327.989 462.027 326.752C462.795 325.472 463.861 324.469 465.227 323.744C466.635 322.976 468.299 322.443 470.219 322.144C472.181 321.803 474.336 321.632 476.683 321.632C477.28 321.632 477.856 321.632 478.411 321.632C479.008 321.632 479.605 321.675 480.203 321.76C480.331 320.48 480.395 319.328 480.395 318.304C480.395 315.957 479.925 314.315 478.987 313.376C478.048 312.437 476.341 311.968 473.867 311.968C473.141 311.968 472.352 312.032 471.499 312.16C470.688 312.245 469.835 312.395 468.939 312.608C468.085 312.779 467.253 313.013 466.443 313.312C465.675 313.568 464.992 313.867 464.395 314.208L462.795 310.368ZM471.883 336.032C473.077 336.032 474.144 335.883 475.083 335.584C476.021 335.243 476.832 334.837 477.515 334.368C478.197 333.856 478.752 333.301 479.179 332.704C479.648 332.107 479.989 331.531 480.203 330.976V325.664C479.605 325.621 478.987 325.6 478.347 325.6C477.749 325.557 477.152 325.536 476.555 325.536C475.232 325.536 473.931 325.621 472.651 325.792C471.413 325.92 470.304 326.197 469.323 326.624C468.384 327.008 467.616 327.563 467.019 328.288C466.464 328.971 466.187 329.845 466.187 330.912C466.187 332.405 466.72 333.643 467.787 334.624C468.853 335.563 470.219 336.032 471.883 336.032ZM516.881 340V321.76C516.881 318.432 516.39 315.936 515.409 314.272C514.47 312.565 512.721 311.712 510.161 311.712C507.899 311.712 506.022 312.331 504.529 313.568C503.078 314.763 502.054 316.277 501.457 318.112V340H496.337V308H499.921L500.881 311.904H501.137C502.161 310.539 503.526 309.429 505.233 308.576C506.982 307.68 509.051 307.232 511.441 307.232C513.19 307.232 514.726 307.445 516.049 307.872C517.371 308.256 518.459 308.96 519.313 309.984C520.209 311.008 520.87 312.395 521.297 314.144C521.766 315.851 522.001 318.027 522.001 320.672V340H516.881ZM540.681 325.6H537.737V340H532.617V295.2H537.737V322.464L540.361 321.568L550.281 308H556.233L546.441 320.864L543.817 322.976L547.017 325.536L557.705 340H551.369L540.681 325.6ZM565.61 308H570.73V340H565.61V308ZM564.522 298.272C564.522 297.291 564.842 296.459 565.482 295.776C566.164 295.051 567.018 294.688 568.042 294.688C569.066 294.688 569.94 295.051 570.666 295.776C571.391 296.459 571.754 297.291 571.754 298.272C571.754 299.253 571.391 300.064 570.666 300.704C569.94 301.344 569.066 301.664 568.042 301.664C567.018 301.664 566.164 301.344 565.482 300.704C564.842 300.064 564.522 299.253 564.522 298.272ZM603.471 340V321.76C603.471 318.432 602.98 315.936 601.999 314.272C601.06 312.565 599.311 311.712 596.751 311.712C594.489 311.712 592.612 312.331 591.119 313.568C589.668 314.763 588.644 316.277 588.047 318.112V340H582.927V308H586.511L587.471 311.904H587.727C588.751 310.539 590.116 309.429 591.823 308.576C593.572 307.68 595.641 307.232 598.031 307.232C599.78 307.232 601.316 307.445 602.639 307.872C603.961 308.256 605.049 308.96 605.903 309.984C606.799 311.008 607.46 312.395 607.887 314.144C608.356 315.851 608.591 318.027 608.591 320.672V340H603.471ZM643.719 341.472C643.719 345.611 642.609 348.661 640.391 350.624C638.215 352.587 634.972 353.568 630.663 353.568C628.103 353.568 626.033 353.397 624.455 353.056C622.919 352.757 621.596 352.352 620.487 351.84L621.831 347.488C622.812 347.872 623.9 348.235 625.095 348.576C626.289 348.917 627.847 349.088 629.767 349.088C631.559 349.088 633.009 348.917 634.119 348.576C635.271 348.277 636.188 347.744 636.871 346.976C637.553 346.251 638.023 345.291 638.279 344.096C638.535 342.944 638.663 341.557 638.663 339.936V336.864H638.407C637.553 338.101 636.465 339.061 635.143 339.744C633.82 340.384 632.092 340.704 629.959 340.704C625.649 340.704 622.471 339.36 620.423 336.672C618.417 333.984 617.415 329.803 617.415 324.128C617.415 318.667 618.716 314.528 621.319 311.712C623.921 308.853 627.761 307.424 632.839 307.424C635.271 307.424 637.34 307.616 639.047 308C640.796 308.384 642.353 308.832 643.719 309.344V341.472ZM630.855 336.224C633.031 336.224 634.737 335.691 635.975 334.624C637.212 333.515 638.087 331.808 638.599 329.504V313.12C636.892 312.309 634.716 311.904 632.071 311.904C629.169 311.904 626.887 312.885 625.223 314.848C623.559 316.811 622.727 319.883 622.727 324.064C622.727 325.856 622.876 327.499 623.175 328.992C623.473 330.485 623.943 331.765 624.583 332.832C625.223 333.899 626.055 334.731 627.079 335.328C628.103 335.925 629.361 336.224 630.855 336.224ZM669.684 308H674.676V306.208C674.676 304.245 674.826 302.539 675.124 301.088C675.466 299.637 675.999 298.464 676.724 297.568C677.45 296.629 678.388 295.947 679.54 295.52C680.692 295.051 682.122 294.816 683.828 294.816C685.194 294.816 686.388 294.901 687.412 295.072C688.479 295.243 689.588 295.563 690.74 296.032L689.588 300.32C688.607 299.893 687.668 299.616 686.772 299.488C685.919 299.36 685.108 299.296 684.34 299.296C683.231 299.296 682.356 299.467 681.716 299.808C681.119 300.149 680.671 300.661 680.372 301.344C680.116 301.984 679.946 302.795 679.86 303.776C679.818 304.715 679.796 305.824 679.796 307.104V308H688.308V312.48H679.796V340H674.676V312.48H669.684V308ZM692.442 324C692.442 318.581 693.637 314.443 696.026 311.584C698.458 308.683 701.936 307.232 706.458 307.232C708.848 307.232 710.917 307.637 712.666 308.448C714.458 309.216 715.93 310.347 717.082 311.84C718.234 313.291 719.088 315.061 719.642 317.152C720.197 319.2 720.474 321.483 720.474 324C720.474 329.419 719.258 333.579 716.826 336.48C714.437 339.339 710.981 340.768 706.458 340.768C704.069 340.768 701.978 340.384 700.186 339.616C698.437 338.805 696.986 337.675 695.834 336.224C694.682 334.731 693.829 332.96 693.274 330.912C692.72 328.821 692.442 326.517 692.442 324ZM697.754 324C697.754 325.621 697.904 327.179 698.202 328.672C698.544 330.165 699.056 331.467 699.738 332.576C700.421 333.685 701.317 334.581 702.426 335.264C703.536 335.947 704.88 336.288 706.458 336.288C712.261 336.331 715.162 332.235 715.162 324C715.162 322.336 714.992 320.757 714.65 319.264C714.352 317.771 713.861 316.469 713.178 315.36C712.496 314.251 711.6 313.376 710.49 312.736C709.381 312.053 708.037 311.712 706.458 311.712C700.656 311.669 697.754 315.765 697.754 324ZM744.931 312.928C743.651 312.501 742.435 312.288 741.283 312.288C739.448 312.288 737.997 312.8 736.931 313.824C735.864 314.805 735.203 316.064 734.947 317.6V340H729.827V308H733.411L734.371 311.904H734.627C735.437 310.453 736.397 309.344 737.507 308.576C738.659 307.765 740.109 307.36 741.859 307.36C743.096 307.36 744.483 307.573 746.019 308L744.931 312.928ZM785.919 316.64H802.623V336.608C800.831 338.101 798.677 339.189 796.159 339.872C793.685 340.555 791.231 340.896 788.799 340.896C785.941 340.896 783.274 340.448 780.799 339.552C778.367 338.656 776.255 337.269 774.463 335.392C772.671 333.472 771.263 331.04 770.239 328.096C769.215 325.152 768.703 321.653 768.703 317.6C768.703 313.376 769.301 309.792 770.495 306.848C771.733 303.861 773.333 301.451 775.295 299.616C777.301 297.739 779.541 296.395 782.015 295.584C784.49 294.731 787.007 294.304 789.567 294.304C792.127 294.304 794.367 294.496 796.287 294.88C798.25 295.264 799.807 295.669 800.959 296.096L799.167 303.456C798.101 303.029 796.906 302.709 795.583 302.496C794.261 302.24 792.575 302.112 790.527 302.112C788.693 302.112 787.007 302.389 785.471 302.944C783.935 303.499 782.591 304.416 781.439 305.696C780.33 306.933 779.455 308.533 778.815 310.496C778.218 312.459 777.919 314.848 777.919 317.664C777.919 320.352 778.218 322.677 778.815 324.64C779.413 326.56 780.245 328.16 781.311 329.44C782.378 330.677 783.615 331.595 785.023 332.192C786.474 332.789 788.01 333.088 789.631 333.088C790.741 333.088 791.829 332.96 792.895 332.704C793.962 332.405 794.858 331.979 795.583 331.424V322.976L785.919 321.952V316.64ZM808.663 324C808.663 318.581 809.986 314.421 812.631 311.52C815.277 308.576 818.989 307.104 823.767 307.104C826.327 307.104 828.546 307.509 830.423 308.32C832.301 309.131 833.858 310.283 835.095 311.776C836.333 313.227 837.25 314.997 837.847 317.088C838.487 319.179 838.807 321.483 838.807 324C838.807 329.419 837.485 333.6 834.839 336.544C832.237 339.445 828.546 340.896 823.767 340.896C821.207 340.896 818.989 340.491 817.111 339.68C815.234 338.869 813.655 337.739 812.375 336.288C811.138 334.795 810.199 333.003 809.559 330.912C808.962 328.821 808.663 326.517 808.663 324ZM817.239 324C817.239 325.408 817.367 326.709 817.623 327.904C817.879 329.099 818.263 330.144 818.775 331.04C819.287 331.936 819.949 332.64 820.759 333.152C821.613 333.621 822.615 333.856 823.767 333.856C825.943 333.856 827.565 333.067 828.631 331.488C829.698 329.909 830.231 327.413 830.231 324C830.231 321.056 829.741 318.688 828.759 316.896C827.778 315.061 826.114 314.144 823.767 314.144C821.719 314.144 820.119 314.912 818.967 316.448C817.815 317.984 817.239 320.501 817.239 324ZM844.318 324C844.318 318.581 845.641 314.421 848.286 311.52C850.932 308.576 854.644 307.104 859.422 307.104C861.982 307.104 864.201 307.509 866.078 308.32C867.956 309.131 869.513 310.283 870.75 311.776C871.988 313.227 872.905 314.997 873.502 317.088C874.142 319.179 874.462 321.483 874.462 324C874.462 329.419 873.14 333.6 870.494 336.544C867.892 339.445 864.201 340.896 859.422 340.896C856.862 340.896 854.644 340.491 852.766 339.68C850.889 338.869 849.31 337.739 848.03 336.288C846.793 334.795 845.854 333.003 845.214 330.912C844.617 328.821 844.318 326.517 844.318 324ZM852.894 324C852.894 325.408 853.022 326.709 853.278 327.904C853.534 329.099 853.918 330.144 854.43 331.04C854.942 331.936 855.604 332.64 856.414 333.152C857.268 333.621 858.27 333.856 859.422 333.856C861.598 333.856 863.22 333.067 864.286 331.488C865.353 329.909 865.886 327.413 865.886 324C865.886 321.056 865.396 318.688 864.414 316.896C863.433 315.061 861.769 314.144 859.422 314.144C857.374 314.144 855.774 314.912 854.622 316.448C853.47 317.984 852.894 320.501 852.894 324ZM908.709 328.736C908.709 330.528 908.731 332.32 908.773 334.112C908.816 335.904 909.008 337.888 909.349 340.064H903.397L902.245 335.904H901.989C901.136 337.397 899.899 338.613 898.277 339.552C896.699 340.448 894.821 340.896 892.645 340.896C888.635 340.896 885.52 339.573 883.301 336.928C881.083 334.283 879.973 330.144 879.973 324.512C879.973 319.051 881.211 314.805 883.685 311.776C886.16 308.747 889.787 307.232 894.565 307.232C895.888 307.232 896.976 307.317 897.829 307.488C898.683 307.616 899.536 307.851 900.389 308.192V295.2H908.709V328.736ZM894.565 333.856C896.187 333.856 897.467 333.472 898.405 332.704C899.344 331.893 900.005 330.741 900.389 329.248V315.68C899.792 315.211 899.131 314.869 898.405 314.656C897.68 314.4 896.741 314.272 895.589 314.272C893.243 314.272 891.472 315.061 890.277 316.64C889.125 318.219 888.549 320.928 888.549 324.768C888.549 327.499 889.019 329.696 889.957 331.36C890.939 333.024 892.475 333.856 894.565 333.856Z" fill="#000C13"/>
<rect x="26" y="22" width="1268" height="708" stroke="white" stroke-width="12"/>
</g>
<defs>
<filter id="filter0_d" x="0" y="0" width="1104" height="720" filterUnits="userSpaceOnUse" color-interpolation-filters="sRGB">
<feFlood flood-opacity="0" result="BackgroundImageFix"/>
<feColorMatrix in="SourceAlpha" type="matrix" values="0 0 0 0 0 0 0 0 0 0 0 0 0 0 0 0 0 0 127 0"/>
<feOffset dy="4"/>
<feGaussianBlur stdDeviation="10"/>
<feColorMatrix type="matrix" values="0 0 0 0 0 0 0 0 0 0 0 0 0 0 0 0 0 0 0.25 0"/>
<feBlend mode="normal" in2="BackgroundImageFix" result="effect1_dropShadow"/>
<feBlend mode="normal" in="SourceGraphic" in2="effect1_dropShadow" result="shape"/>
</filter>
<clipPath id="clip0">
<rect width="1064" height="680" fill="white" transform="translate(20 16)"/>
</clipPath>
<clipPath id="clip1">
<rect width="180" height="64.5882" fill="white" transform="translate(462 398)"/>
</clipPath>
</defs>
</svg>
