<svg width="1061" height="390" viewBox="0 0 1061 390" fill="none" xmlns="http://www.w3.org/2000/svg">
<rect x="1" y="1" width="1059" height="388" fill="#FAFAFA" stroke="#BDBDBD" stroke-width="2"/>
<path d="M21.491 363.36C21.491 362.475 21.6403 361.685 21.939 360.992C22.2377 360.288 22.643 359.696 23.155 359.216C23.667 358.736 24.2643 358.368 24.947 358.112C25.6297 357.856 26.355 357.728 27.123 357.728C27.891 357.728 28.6163 357.856 29.299 358.112C29.9817 358.368 30.579 358.736 31.091 359.216C31.603 359.696 32.0083 360.288 32.307 360.992C32.6057 361.685 32.755 362.475 32.755 363.36C32.755 364.245 32.6057 365.04 32.307 365.744C32.0083 366.437 31.603 367.024 31.091 367.504C30.579 367.984 29.9817 368.352 29.299 368.608C28.6163 368.864 27.891 368.992 27.123 368.992C26.2697 368.992 25.4963 368.864 24.803 368.608C24.1097 368.352 23.5177 367.984 23.027 367.504C22.5363 367.024 22.1577 366.437 21.891 365.744C21.6243 365.04 21.491 364.245 21.491 363.36ZM22.611 363.36C22.611 364.096 22.7283 364.752 22.963 365.328C23.1977 365.893 23.5177 366.368 23.923 366.752C24.3283 367.136 24.803 367.429 25.347 367.632C25.9017 367.835 26.4937 367.936 27.123 367.936C27.7523 367.936 28.339 367.835 28.883 367.632C29.4377 367.429 29.9177 367.136 30.323 366.752C30.7283 366.368 31.0483 365.893 31.283 365.328C31.5177 364.752 31.635 364.096 31.635 363.36C31.635 362.624 31.5177 361.973 31.283 361.408C31.0483 360.832 30.7283 360.352 30.323 359.968C29.9177 359.584 29.4377 359.291 28.883 359.088C28.339 358.885 27.7523 358.784 27.123 358.784C26.4937 358.784 25.9017 358.885 25.347 359.088C24.803 359.291 24.3283 359.584 23.923 359.968C23.5177 360.352 23.1977 360.832 22.963 361.408C22.7283 361.973 22.611 362.624 22.611 363.36ZM28.979 365.968C28.7337 366.107 28.4563 366.213 28.147 366.288C27.8483 366.363 27.4963 366.4 27.091 366.4C26.227 366.4 25.5657 366.128 25.107 365.584C24.659 365.04 24.435 364.299 24.435 363.36C24.435 362.389 24.675 361.643 25.155 361.12C25.6457 360.587 26.291 360.32 27.091 360.32C27.283 360.32 27.4537 360.331 27.603 360.352C27.763 360.373 27.907 360.405 28.035 360.448C28.1737 360.48 28.307 360.523 28.435 360.576C28.563 360.629 28.707 360.688 28.867 360.752L28.451 361.728C28.2163 361.611 27.9923 361.531 27.779 361.488C27.5657 361.445 27.3843 361.424 27.235 361.424C26.787 361.424 26.419 361.563 26.131 361.84C25.8537 362.117 25.715 362.624 25.715 363.36C25.715 363.979 25.8537 364.459 26.131 364.8C26.4083 365.131 26.819 365.301 27.363 365.312C27.8643 365.312 28.291 365.216 28.643 365.024L28.979 365.968ZM40.8616 359.344C40.8616 359.909 40.755 360.491 40.5416 361.088C40.339 361.675 40.067 362.267 39.7256 362.864C39.395 363.461 39.0216 364.048 38.6056 364.624C38.1896 365.189 37.7736 365.728 37.3576 366.24L36.5736 366.928V366.992L37.5976 366.816H41.0856V368H34.7176V367.536C34.9523 367.291 35.235 366.987 35.5656 366.624C35.8963 366.261 36.2376 365.861 36.5896 365.424C36.9523 364.976 37.3043 364.507 37.6456 364.016C37.9976 363.515 38.3123 363.008 38.5896 362.496C38.8776 361.984 39.107 361.477 39.2776 360.976C39.4483 360.475 39.5336 360 39.5336 359.552C39.5336 359.029 39.3843 358.597 39.0856 358.256C38.787 357.904 38.3336 357.728 37.7256 357.728C37.3203 357.728 36.9256 357.813 36.5416 357.984C36.1576 358.144 35.827 358.331 35.5496 358.544L35.0216 357.632C35.395 357.312 35.8376 357.061 36.3496 356.88C36.8616 356.699 37.411 356.608 37.9976 356.608C38.4563 356.608 38.8616 356.677 39.2136 356.816C39.5656 356.944 39.8643 357.131 40.1096 357.376C40.355 357.621 40.5416 357.915 40.6696 358.256C40.7976 358.587 40.8616 358.949 40.8616 359.344ZM43.2924 362.4C43.2924 360.48 43.6017 359.035 44.2204 358.064C44.8497 357.093 45.7617 356.608 46.9564 356.608C48.247 356.608 49.1804 357.088 49.7564 358.048C50.343 358.997 50.6364 360.448 50.6364 362.4C50.6364 364.32 50.3217 365.765 49.6924 366.736C49.0737 367.707 48.1617 368.192 46.9564 368.192C45.687 368.192 44.759 367.685 44.1724 366.672C43.5857 365.659 43.2924 364.235 43.2924 362.4ZM44.6204 362.4C44.6204 363.093 44.663 363.728 44.7484 364.304C44.8444 364.869 44.9884 365.36 45.1804 365.776C45.3724 366.181 45.6124 366.501 45.9004 366.736C46.199 366.96 46.551 367.072 46.9564 367.072C47.767 367.072 48.359 366.699 48.7324 365.952C49.1164 365.195 49.3084 364.011 49.3084 362.4C49.3084 361.717 49.2657 361.088 49.1804 360.512C49.1057 359.936 48.9724 359.44 48.7804 359.024C48.599 358.608 48.359 358.288 48.0604 358.064C47.7617 357.84 47.3937 357.728 46.9564 357.728C46.1564 357.728 45.5644 358.107 45.1804 358.864C44.807 359.621 44.6204 360.8 44.6204 362.4ZM58.6191 359.344C58.6191 359.909 58.5125 360.491 58.2991 361.088C58.0965 361.675 57.8245 362.267 57.4831 362.864C57.1525 363.461 56.7791 364.048 56.3631 364.624C55.9471 365.189 55.5311 365.728 55.1151 366.24L54.3311 366.928V366.992L55.3551 366.816H58.8431V368H52.4751V367.536C52.7098 367.291 52.9925 366.987 53.3231 366.624C53.6538 366.261 53.9951 365.861 54.3471 365.424C54.7098 364.976 55.0618 364.507 55.4031 364.016C55.7551 363.515 56.0698 363.008 56.3471 362.496C56.6351 361.984 56.8645 361.477 57.0351 360.976C57.2058 360.475 57.2911 360 57.2911 359.552C57.2911 359.029 57.1418 358.597 56.8431 358.256C56.5445 357.904 56.0911 357.728 55.4831 357.728C55.0778 357.728 54.6831 357.813 54.2991 357.984C53.9151 358.144 53.5845 358.331 53.3071 358.544L52.7791 357.632C53.1525 357.312 53.5951 357.061 54.1071 356.88C54.6191 356.699 55.1685 356.608 55.7551 356.608C56.2138 356.608 56.6191 356.677 56.9711 356.816C57.3231 356.944 57.6218 357.131 57.8671 357.376C58.1125 357.621 58.2991 357.915 58.4271 358.256C58.5551 358.587 58.6191 358.949 58.6191 359.344ZM61.0499 362.4C61.0499 360.48 61.3592 359.035 61.9779 358.064C62.6072 357.093 63.5192 356.608 64.7139 356.608C66.0045 356.608 66.9379 357.088 67.5139 358.048C68.1005 358.997 68.3939 360.448 68.3939 362.4C68.3939 364.32 68.0792 365.765 67.4499 366.736C66.8312 367.707 65.9192 368.192 64.7139 368.192C63.4445 368.192 62.5165 367.685 61.9299 366.672C61.3432 365.659 61.0499 364.235 61.0499 362.4ZM62.3779 362.4C62.3779 363.093 62.4205 363.728 62.5059 364.304C62.6019 364.869 62.7459 365.36 62.9379 365.776C63.1299 366.181 63.3699 366.501 63.6579 366.736C63.9565 366.96 64.3085 367.072 64.7139 367.072C65.5245 367.072 66.1165 366.699 66.4899 365.952C66.8739 365.195 67.0659 364.011 67.0659 362.4C67.0659 361.717 67.0232 361.088 66.9379 360.512C66.8632 359.936 66.7299 359.44 66.5379 359.024C66.3565 358.608 66.1165 358.288 65.8179 358.064C65.5192 357.84 65.1512 357.728 64.7139 357.728C63.9139 357.728 63.3219 358.107 62.9379 358.864C62.5645 359.621 62.3779 360.8 62.3779 362.4ZM75.0263 356.912C75.4316 356.837 75.8956 356.779 76.4183 356.736C76.9516 356.693 77.4369 356.672 77.8743 356.672C78.3649 356.672 78.8289 356.725 79.2663 356.832C79.7143 356.939 80.1036 357.115 80.4343 357.36C80.7756 357.605 81.0476 357.925 81.2503 358.32C81.4529 358.715 81.5543 359.195 81.5543 359.76C81.5543 360.635 81.3143 361.344 80.8343 361.888C80.3543 362.432 79.7463 362.795 79.0103 362.976L79.7783 363.568L82.5623 368H81.0103L77.9223 363.168L76.3543 362.928V368H75.0263V356.912ZM77.9063 357.824C77.7676 357.824 77.6236 357.824 77.4743 357.824C77.3249 357.824 77.1809 357.829 77.0423 357.84C76.9036 357.851 76.7703 357.861 76.6423 357.872C76.5249 357.883 76.4289 357.899 76.3543 357.92V362.048H77.6023C78.3383 362.048 78.9463 361.867 79.4263 361.504C79.9063 361.141 80.1463 360.576 80.1463 359.808C80.1463 359.232 79.9489 358.757 79.5543 358.384C79.1596 358.011 78.6103 357.824 77.9063 357.824ZM84.2896 360.592C84.695 360.347 85.1643 360.165 85.6976 360.048C86.2416 359.931 86.807 359.872 87.3936 359.872C87.9483 359.872 88.391 359.947 88.7216 360.096C89.063 360.245 89.319 360.443 89.4896 360.688C89.671 360.923 89.7883 361.184 89.8416 361.472C89.9056 361.76 89.9376 362.048 89.9376 362.336C89.9376 362.976 89.9216 363.6 89.8896 364.208C89.8576 364.816 89.8416 365.392 89.8416 365.936C89.8416 366.331 89.8576 366.704 89.8896 367.056C89.9216 367.408 89.9803 367.733 90.0656 368.032H89.1216L88.7856 366.912H88.7056C88.6096 367.061 88.487 367.211 88.3376 367.36C88.199 367.499 88.0283 367.627 87.8256 367.744C87.623 367.851 87.3883 367.941 87.1216 368.016C86.855 368.091 86.551 368.128 86.2096 368.128C85.8683 368.128 85.5483 368.075 85.2496 367.968C84.9616 367.861 84.711 367.712 84.4976 367.52C84.2843 367.317 84.1136 367.077 83.9856 366.8C83.8683 366.523 83.8096 366.208 83.8096 365.856C83.8096 365.387 83.9056 364.997 84.0976 364.688C84.2896 364.368 84.5563 364.117 84.8976 363.936C85.2496 363.744 85.6656 363.611 86.1456 363.536C86.6363 363.451 87.175 363.408 87.7616 363.408C87.911 363.408 88.055 363.408 88.1936 363.408C88.343 363.408 88.4923 363.419 88.6416 363.44C88.6736 363.12 88.6896 362.832 88.6896 362.576C88.6896 361.989 88.5723 361.579 88.3376 361.344C88.103 361.109 87.6763 360.992 87.0576 360.992C86.8763 360.992 86.679 361.008 86.4656 361.04C86.263 361.061 86.0496 361.099 85.8256 361.152C85.6123 361.195 85.4043 361.253 85.2016 361.328C85.0096 361.392 84.839 361.467 84.6896 361.552L84.2896 360.592ZM86.5616 367.008C86.8603 367.008 87.127 366.971 87.3616 366.896C87.5963 366.811 87.799 366.709 87.9696 366.592C88.1403 366.464 88.279 366.325 88.3856 366.176C88.503 366.027 88.5883 365.883 88.6416 365.744V364.416C88.4923 364.405 88.3376 364.4 88.1776 364.4C88.0283 364.389 87.879 364.384 87.7296 364.384C87.399 364.384 87.0736 364.405 86.7536 364.448C86.4443 364.48 86.167 364.549 85.9216 364.656C85.687 364.752 85.495 364.891 85.3456 365.072C85.207 365.243 85.1376 365.461 85.1376 365.728C85.1376 366.101 85.271 366.411 85.5376 366.656C85.8043 366.891 86.1456 367.008 86.5616 367.008ZM97.9711 367.472C97.6511 367.707 97.2725 367.883 96.8351 368C96.3978 368.128 95.9391 368.192 95.4591 368.192C94.8405 368.192 94.3178 368.096 93.8911 367.904C93.4645 367.701 93.1125 367.419 92.8351 367.056C92.5685 366.683 92.3711 366.24 92.2431 365.728C92.1258 365.205 92.0671 364.629 92.0671 364C92.0671 362.645 92.3658 361.611 92.9631 360.896C93.5605 360.171 94.4191 359.808 95.5391 359.808C96.0511 359.808 96.4831 359.851 96.8351 359.936C97.1978 360.011 97.5231 360.123 97.8111 360.272L97.4431 361.376C97.1978 361.237 96.9258 361.131 96.6271 361.056C96.3285 360.971 96.0085 360.928 95.6671 360.928C94.1525 360.928 93.3951 361.952 93.3951 364C93.3951 364.405 93.4325 364.795 93.5071 365.168C93.5925 365.531 93.7258 365.856 93.9071 366.144C94.0991 366.421 94.3445 366.645 94.6431 366.816C94.9525 366.987 95.3311 367.072 95.7791 367.072C96.1631 367.072 96.5045 367.013 96.8031 366.896C97.1125 366.779 97.3631 366.645 97.5551 366.496L97.9711 367.472ZM105.03 368V363.44C105.03 363.024 105.003 362.661 104.95 362.352C104.907 362.032 104.822 361.771 104.694 361.568C104.566 361.355 104.39 361.195 104.166 361.088C103.953 360.981 103.67 360.928 103.318 360.928C102.817 360.928 102.363 361.093 101.958 361.424C101.553 361.744 101.291 362.16 101.174 362.672V368H99.8939V356.8H101.174V360.896H101.238C101.515 360.565 101.846 360.304 102.23 360.112C102.625 359.909 103.11 359.808 103.686 359.808C104.134 359.808 104.523 359.861 104.854 359.968C105.185 360.064 105.457 360.24 105.67 360.496C105.894 360.752 106.054 361.099 106.15 361.536C106.257 361.963 106.31 362.507 106.31 363.168V368H105.03ZM114.644 367.36C114.324 367.616 113.919 367.819 113.428 367.968C112.948 368.117 112.436 368.192 111.892 368.192C111.284 368.192 110.756 368.096 110.308 367.904C109.86 367.701 109.492 367.419 109.204 367.056C108.916 366.683 108.703 366.24 108.564 365.728C108.425 365.216 108.356 364.64 108.356 364C108.356 362.635 108.66 361.595 109.268 360.88C109.876 360.165 110.745 359.808 111.876 359.808C112.239 359.808 112.601 359.851 112.964 359.936C113.327 360.011 113.652 360.16 113.94 360.384C114.228 360.608 114.463 360.928 114.644 361.344C114.825 361.749 114.916 362.288 114.916 362.96C114.916 363.312 114.884 363.701 114.82 364.128H109.684C109.684 364.597 109.732 365.013 109.828 365.376C109.924 365.739 110.073 366.048 110.276 366.304C110.479 366.549 110.74 366.741 111.06 366.88C111.391 367.008 111.791 367.072 112.26 367.072C112.623 367.072 112.985 367.008 113.348 366.88C113.711 366.752 113.983 366.603 114.164 366.432L114.644 367.36ZM111.892 360.928C111.263 360.928 110.756 361.093 110.372 361.424C109.999 361.755 109.775 362.32 109.7 363.12H113.668C113.668 362.309 113.513 361.744 113.204 361.424C112.895 361.093 112.457 360.928 111.892 360.928ZM118.513 366.032C118.513 366.405 118.577 366.672 118.705 366.832C118.833 366.992 119.014 367.072 119.249 367.072C119.388 367.072 119.537 367.061 119.697 367.04C119.857 367.019 120.038 366.971 120.241 366.896L120.385 367.904C120.214 367.989 119.974 368.059 119.665 368.112C119.366 368.165 119.105 368.192 118.881 368.192C118.401 368.192 118.006 368.059 117.697 367.792C117.388 367.515 117.233 367.051 117.233 366.4V356.8H118.513V366.032ZM131.287 364.896H127.159L126.039 368H124.727L128.967 356.624H129.575L133.831 368H132.439L131.287 364.896ZM127.591 363.744H130.887L129.639 360.336L129.239 358.64H129.223L128.823 360.368L127.591 363.744ZM134.06 360H135.308V358.416L136.588 358.048V360H138.764V361.12H136.588V365.552C136.588 366.107 136.657 366.501 136.796 366.736C136.934 366.96 137.169 367.072 137.5 367.072C137.777 367.072 138.012 367.045 138.204 366.992C138.396 366.928 138.609 366.848 138.844 366.752L139.132 367.728C138.844 367.867 138.529 367.979 138.188 368.064C137.846 368.149 137.478 368.192 137.084 368.192C136.433 368.192 135.974 368.011 135.708 367.648C135.441 367.275 135.308 366.656 135.308 365.792V361.12H134.06V360ZM145.386 368V363.472C145.386 363.045 145.364 362.677 145.322 362.368C145.29 362.048 145.22 361.781 145.114 361.568C145.007 361.355 144.852 361.195 144.65 361.088C144.458 360.981 144.202 360.928 143.882 360.928C143.391 360.928 142.98 361.077 142.65 361.376C142.33 361.675 142.106 362.048 141.978 362.496V368H140.698V360H141.594L141.834 360.976H141.898C142.186 360.635 142.516 360.357 142.89 360.144C143.274 359.92 143.77 359.808 144.378 359.808C144.89 359.808 145.306 359.909 145.626 360.112C145.956 360.304 146.212 360.645 146.394 361.136C146.639 360.72 146.975 360.395 147.402 360.16C147.839 359.925 148.33 359.808 148.874 359.808C149.322 359.808 149.7 359.861 150.01 359.968C150.319 360.064 150.575 360.24 150.778 360.496C150.98 360.752 151.124 361.099 151.21 361.536C151.306 361.973 151.354 362.528 151.354 363.2V368H150.074V363.184C150.074 362.8 150.052 362.469 150.01 362.192C149.978 361.904 149.903 361.669 149.786 361.488C149.679 361.296 149.524 361.157 149.322 361.072C149.13 360.976 148.874 360.928 148.554 360.928C148.02 360.928 147.604 361.077 147.306 361.376C147.007 361.675 146.794 362.101 146.666 362.656V368H145.386ZM153.714 360.592C154.119 360.347 154.589 360.165 155.122 360.048C155.666 359.931 156.231 359.872 156.818 359.872C157.373 359.872 157.815 359.947 158.146 360.096C158.487 360.245 158.743 360.443 158.914 360.688C159.095 360.923 159.213 361.184 159.266 361.472C159.33 361.76 159.362 362.048 159.362 362.336C159.362 362.976 159.346 363.6 159.314 364.208C159.282 364.816 159.266 365.392 159.266 365.936C159.266 366.331 159.282 366.704 159.314 367.056C159.346 367.408 159.405 367.733 159.49 368.032H158.546L158.21 366.912H158.13C158.034 367.061 157.911 367.211 157.762 367.36C157.623 367.499 157.453 367.627 157.25 367.744C157.047 367.851 156.813 367.941 156.546 368.016C156.279 368.091 155.975 368.128 155.634 368.128C155.293 368.128 154.973 368.075 154.674 367.968C154.386 367.861 154.135 367.712 153.922 367.52C153.709 367.317 153.538 367.077 153.41 366.8C153.293 366.523 153.234 366.208 153.234 365.856C153.234 365.387 153.33 364.997 153.522 364.688C153.714 364.368 153.981 364.117 154.322 363.936C154.674 363.744 155.09 363.611 155.57 363.536C156.061 363.451 156.599 363.408 157.186 363.408C157.335 363.408 157.479 363.408 157.618 363.408C157.767 363.408 157.917 363.419 158.066 363.44C158.098 363.12 158.114 362.832 158.114 362.576C158.114 361.989 157.997 361.579 157.762 361.344C157.527 361.109 157.101 360.992 156.482 360.992C156.301 360.992 156.103 361.008 155.89 361.04C155.687 361.061 155.474 361.099 155.25 361.152C155.037 361.195 154.829 361.253 154.626 361.328C154.434 361.392 154.263 361.467 154.114 361.552L153.714 360.592ZM155.986 367.008C156.285 367.008 156.551 366.971 156.786 366.896C157.021 366.811 157.223 366.709 157.394 366.592C157.565 366.464 157.703 366.325 157.81 366.176C157.927 366.027 158.013 365.883 158.066 365.744V364.416C157.917 364.405 157.762 364.4 157.602 364.4C157.453 364.389 157.303 364.384 157.154 364.384C156.823 364.384 156.498 364.405 156.178 364.448C155.869 364.48 155.591 364.549 155.346 364.656C155.111 364.752 154.919 364.891 154.77 365.072C154.631 365.243 154.562 365.461 154.562 365.728C154.562 366.101 154.695 366.411 154.962 366.656C155.229 366.891 155.57 367.008 155.986 367.008ZM168.084 365.248C168.084 365.792 168.089 366.288 168.1 366.736C168.11 367.173 168.158 367.605 168.244 368.032H167.38L167.06 366.896H166.996C166.782 367.269 166.473 367.579 166.068 367.824C165.662 368.069 165.188 368.192 164.644 368.192C163.577 368.192 162.782 367.856 162.26 367.184C161.748 366.512 161.492 365.461 161.492 364.032C161.492 362.667 161.812 361.632 162.452 360.928C163.102 360.213 163.993 359.856 165.124 359.856C165.518 359.856 165.828 359.877 166.052 359.92C166.286 359.963 166.537 360.032 166.804 360.128V356.8H168.084V365.248ZM164.852 367.072C165.396 367.072 165.828 366.933 166.148 366.656C166.468 366.368 166.686 365.936 166.804 365.36V361.392C166.612 361.243 166.393 361.136 166.148 361.072C165.902 361.008 165.577 360.976 165.172 360.976C164.436 360.976 163.86 361.221 163.444 361.712C163.028 362.192 162.82 362.965 162.82 364.032C162.82 364.469 162.852 364.875 162.916 365.248C162.99 365.621 163.108 365.941 163.268 366.208C163.428 366.475 163.636 366.688 163.892 366.848C164.158 366.997 164.478 367.072 164.852 367.072ZM170.965 360H172.245V368.432C172.245 369.424 172.074 370.165 171.733 370.656C171.392 371.147 170.848 371.392 170.101 371.392C170.016 371.392 169.936 371.387 169.861 371.376C169.786 371.376 169.706 371.371 169.621 371.36V370.272C169.92 370.272 170.154 370.224 170.325 370.128C170.506 370.043 170.645 369.904 170.741 369.712C170.837 369.52 170.896 369.275 170.917 368.976C170.949 368.688 170.965 368.347 170.965 367.952V360ZM170.693 357.568C170.693 357.323 170.773 357.115 170.933 356.944C171.104 356.763 171.317 356.672 171.573 356.672C171.829 356.672 172.048 356.763 172.229 356.944C172.41 357.115 172.501 357.323 172.501 357.568C172.501 357.813 172.41 358.016 172.229 358.176C172.048 358.336 171.829 358.416 171.573 358.416C171.317 358.416 171.104 358.336 170.933 358.176C170.773 358.016 170.693 357.813 170.693 357.568ZM175.006 360.592C175.412 360.347 175.881 360.165 176.414 360.048C176.958 359.931 177.524 359.872 178.11 359.872C178.665 359.872 179.108 359.947 179.438 360.096C179.78 360.245 180.036 360.443 180.206 360.688C180.388 360.923 180.505 361.184 180.558 361.472C180.622 361.76 180.654 362.048 180.654 362.336C180.654 362.976 180.638 363.6 180.606 364.208C180.574 364.816 180.558 365.392 180.558 365.936C180.558 366.331 180.574 366.704 180.606 367.056C180.638 367.408 180.697 367.733 180.782 368.032H179.838L179.502 366.912H179.422C179.326 367.061 179.204 367.211 179.054 367.36C178.916 367.499 178.745 367.627 178.542 367.744C178.34 367.851 178.105 367.941 177.838 368.016C177.572 368.091 177.268 368.128 176.926 368.128C176.585 368.128 176.265 368.075 175.966 367.968C175.678 367.861 175.428 367.712 175.214 367.52C175.001 367.317 174.83 367.077 174.702 366.8C174.585 366.523 174.526 366.208 174.526 365.856C174.526 365.387 174.622 364.997 174.814 364.688C175.006 364.368 175.273 364.117 175.614 363.936C175.966 363.744 176.382 363.611 176.862 363.536C177.353 363.451 177.892 363.408 178.478 363.408C178.628 363.408 178.772 363.408 178.91 363.408C179.06 363.408 179.209 363.419 179.358 363.44C179.39 363.12 179.406 362.832 179.406 362.576C179.406 361.989 179.289 361.579 179.054 361.344C178.82 361.109 178.393 360.992 177.774 360.992C177.593 360.992 177.396 361.008 177.182 361.04C176.98 361.061 176.766 361.099 176.542 361.152C176.329 361.195 176.121 361.253 175.918 361.328C175.726 361.392 175.556 361.467 175.406 361.552L175.006 360.592ZM177.278 367.008C177.577 367.008 177.844 366.971 178.078 366.896C178.313 366.811 178.516 366.709 178.686 366.592C178.857 366.464 178.996 366.325 179.102 366.176C179.22 366.027 179.305 365.883 179.358 365.744V364.416C179.209 364.405 179.054 364.4 178.894 364.4C178.745 364.389 178.596 364.384 178.446 364.384C178.116 364.384 177.79 364.405 177.47 364.448C177.161 364.48 176.884 364.549 176.638 364.656C176.404 364.752 176.212 364.891 176.062 365.072C175.924 365.243 175.854 365.461 175.854 365.728C175.854 366.101 175.988 366.411 176.254 366.656C176.521 366.891 176.862 367.008 177.278 367.008Z" fill="#4F4F4F"/>
<path d="M175 160C427.279 160 568.721 160 821 160" stroke="#ECECEC" stroke-width="4"/>
<path d="M48 47V326C425.246 326 636.754 326 1014 326" stroke="#BDBDBD" stroke-width="2"/>
<path d="M75.494 236.074L75.362 237.79L72.81 237.658H71.622L71.512 245.556L71.622 250H69.334L69.466 245.754L69.356 237.658H68.168L65.572 237.79L65.418 237.592L65.594 235.876H75.362L75.494 236.074ZM83.7932 243.334C83.8078 242.777 83.6758 242.344 83.3972 242.036C83.1332 241.713 82.7445 241.552 82.2312 241.552C81.3952 241.552 80.5152 241.992 79.5912 242.872L79.5472 245.534L79.7012 250H77.4572L77.6112 245.732L77.4792 234.732L79.7232 234.556L79.6132 241.288H79.7452C80.6105 240.525 81.5125 240.005 82.4512 239.726C83.5805 239.726 84.4312 239.983 85.0032 240.496C85.5898 241.009 85.8758 241.743 85.8612 242.696L85.8172 245.556L85.9052 250H83.6612L83.7932 243.334ZM89.0598 245.754L88.9938 240.012L91.1938 239.814L91.1058 245.556L91.1718 250H88.9718L89.0598 245.754ZM90.1158 235.128C90.4824 235.128 90.7684 235.238 90.9738 235.458C91.1791 235.663 91.2818 235.957 91.2818 236.338C91.2818 236.734 91.1718 237.049 90.9518 237.284C90.7318 237.519 90.4311 237.636 90.0498 237.636C89.6684 237.636 89.3678 237.526 89.1478 237.306C88.9424 237.086 88.8398 236.785 88.8398 236.404C88.8398 236.023 88.9498 235.715 89.1698 235.48C89.4044 235.245 89.7198 235.128 90.1158 235.128ZM100.764 243.334C100.778 242.777 100.646 242.344 100.368 242.036C100.104 241.713 99.7151 241.552 99.2018 241.552C98.3511 241.552 97.4711 241.992 96.5618 242.872L96.5398 245.556L96.6718 250H94.4278L94.5598 245.754L94.4498 240.012L96.5838 239.814L96.5618 241.288H96.7158C97.5811 240.525 98.4831 240.005 99.4218 239.726C100.551 239.726 101.402 239.983 101.974 240.496C102.56 241.009 102.846 241.743 102.832 242.696L102.766 245.556L102.876 250H100.61L100.764 243.334ZM108.078 245.534L108.232 250H105.988L106.142 245.732L106.01 234.732L108.254 234.556L108.078 245.534ZM110.586 244.478C111.628 245.959 112.94 247.668 114.524 249.604V249.868C114.143 249.971 113.732 250.044 113.292 250.088C112.852 250.147 112.581 250.183 112.478 250.198L112.236 250.11C110.726 248.203 109.45 246.392 108.408 244.676V244.522L111.29 240.826L111.84 239.858H114.282L110.586 244.478ZM116.409 245.754L116.343 240.012L118.543 239.814L118.455 245.556L118.521 250H116.321L116.409 245.754ZM117.465 235.128C117.832 235.128 118.118 235.238 118.323 235.458C118.529 235.663 118.631 235.957 118.631 236.338C118.631 236.734 118.521 237.049 118.301 237.284C118.081 237.519 117.781 237.636 117.399 237.636C117.018 237.636 116.717 237.526 116.497 237.306C116.292 237.086 116.189 236.785 116.189 236.404C116.189 236.023 116.299 235.715 116.519 235.48C116.754 235.245 117.069 235.128 117.465 235.128ZM128.113 243.334C128.128 242.777 127.996 242.344 127.717 242.036C127.453 241.713 127.065 241.552 126.551 241.552C125.701 241.552 124.821 241.992 123.911 242.872L123.889 245.556L124.021 250H121.777L121.909 245.754L121.799 240.012L123.933 239.814L123.911 241.288H124.065C124.931 240.525 125.833 240.005 126.771 239.726C127.901 239.726 128.751 239.983 129.323 240.496C129.91 241.009 130.196 241.743 130.181 242.696L130.115 245.556L130.225 250H127.959L128.113 243.334ZM142.556 240.936C142.145 241.068 141.515 241.207 140.664 241.354L140.62 241.442C140.899 241.911 141.038 242.476 141.038 243.136C141.038 244.221 140.664 245.087 139.916 245.732C139.168 246.363 138.156 246.678 136.88 246.678C136.411 246.678 135.963 246.634 135.538 246.546C135.362 246.693 135.237 246.825 135.164 246.942C135.105 247.045 135.076 247.155 135.076 247.272C135.076 247.565 135.259 247.771 135.626 247.888C136.007 248.005 136.601 248.123 137.408 248.24C138.244 248.343 138.941 248.467 139.498 248.614C140.055 248.761 140.532 249.01 140.928 249.362C141.339 249.714 141.544 250.198 141.544 250.814C141.544 251.459 141.331 252.046 140.906 252.574C140.481 253.102 139.894 253.513 139.146 253.806C138.413 254.114 137.591 254.268 136.682 254.268C135.45 254.268 134.489 253.997 133.8 253.454C133.125 252.911 132.788 252.2 132.788 251.32C133.008 250.968 133.272 250.653 133.58 250.374C133.888 250.095 134.255 249.817 134.68 249.538V249.428C134.167 249.252 133.771 249.025 133.492 248.746C133.213 248.453 133.074 248.064 133.074 247.58C133.455 247.037 133.925 246.59 134.482 246.238V246.128C133.983 245.849 133.602 245.475 133.338 245.006C133.089 244.522 132.964 243.957 132.964 243.312C132.964 242.197 133.331 241.325 134.064 240.694C134.812 240.049 135.817 239.726 137.078 239.726C137.841 239.726 138.515 239.851 139.102 240.1C140.187 239.924 141.273 239.667 142.358 239.33L142.556 239.462V240.936ZM136.968 245.248C137.643 245.248 138.156 245.065 138.508 244.698C138.875 244.331 139.058 243.811 139.058 243.136C139.058 242.505 138.889 242.021 138.552 241.684C138.215 241.347 137.716 241.178 137.056 241.178C136.367 241.178 135.839 241.354 135.472 241.706C135.12 242.043 134.944 242.542 134.944 243.202C134.944 243.862 135.113 244.368 135.45 244.72C135.802 245.072 136.308 245.248 136.968 245.248ZM139.608 251.232C139.608 250.909 139.483 250.66 139.234 250.484C138.985 250.308 138.684 250.176 138.332 250.088C137.98 250.015 137.467 249.927 136.792 249.824C136.469 249.795 136.242 249.765 136.11 249.736C135.641 250.029 135.289 250.315 135.054 250.594C134.819 250.873 134.702 251.159 134.702 251.452C134.702 251.848 134.893 252.171 135.274 252.42C135.67 252.684 136.227 252.816 136.946 252.816C137.723 252.816 138.361 252.669 138.86 252.376C139.359 252.083 139.608 251.701 139.608 251.232Z" fill="#333333"/>
<path d="M69.202 147.746L69.136 152.19L71.358 152.234L73.69 152.168L73.844 152.366L73.668 154.082L71.16 154.016L69.114 154.038L69.092 155.556L69.202 160H66.892L67.046 155.754L66.892 145.876H74.79L74.944 146.074L74.768 147.856L71.468 147.724L69.202 147.746ZM83.0869 155.028L76.9049 155.05C76.9196 156.165 77.1909 157.015 77.7189 157.602C78.2469 158.174 78.9949 158.46 79.9629 158.46C80.9749 158.46 81.9649 158.159 82.9329 157.558L83.1529 157.69L82.8229 159.494C81.7523 159.963 80.7109 160.198 79.6989 160.198C78.1883 160.198 77.0003 159.736 76.1349 158.812C75.2843 157.873 74.8589 156.597 74.8589 154.984C74.8589 153.356 75.2843 152.065 76.1349 151.112C76.9856 150.159 78.1369 149.682 79.5889 149.682C80.8209 149.682 81.7669 150.019 82.4269 150.694C83.1016 151.369 83.4389 152.322 83.4389 153.554C83.4389 153.891 83.4023 154.295 83.3289 154.764L83.0869 155.028ZM81.4149 153.29C81.4149 152.601 81.2536 152.08 80.9309 151.728C80.6229 151.376 80.1683 151.2 79.5669 151.2C78.8923 151.2 78.3349 151.42 77.8949 151.86C77.4549 152.285 77.1616 152.894 77.0149 153.686L81.3709 153.598L81.4149 153.29ZM93.3135 155.028L87.1315 155.05C87.1462 156.165 87.4175 157.015 87.9455 157.602C88.4735 158.174 89.2215 158.46 90.1895 158.46C91.2015 158.46 92.1915 158.159 93.1595 157.558L93.3795 157.69L93.0495 159.494C91.9788 159.963 90.9375 160.198 89.9255 160.198C88.4148 160.198 87.2268 159.736 86.3615 158.812C85.5108 157.873 85.0855 156.597 85.0855 154.984C85.0855 153.356 85.5108 152.065 86.3615 151.112C87.2122 150.159 88.3635 149.682 89.8155 149.682C91.0475 149.682 91.9935 150.019 92.6535 150.694C93.3282 151.369 93.6655 152.322 93.6655 153.554C93.6655 153.891 93.6288 154.295 93.5555 154.764L93.3135 155.028ZM91.6415 153.29C91.6415 152.601 91.4802 152.08 91.1575 151.728C90.8495 151.376 90.3948 151.2 89.7935 151.2C89.1188 151.2 88.5615 151.42 88.1215 151.86C87.6815 152.285 87.3882 152.894 87.2415 153.686L91.5975 153.598L91.6415 153.29ZM98.2171 155.534L98.3711 160H96.1271L96.2811 155.732L96.1491 144.732L98.3931 144.556L98.2171 155.534ZM101.757 155.754L101.691 150.012L103.891 149.814L103.803 155.556L103.869 160H101.669L101.757 155.754ZM102.813 145.128C103.18 145.128 103.466 145.238 103.671 145.458C103.876 145.663 103.979 145.957 103.979 146.338C103.979 146.734 103.869 147.049 103.649 147.284C103.429 147.519 103.128 147.636 102.747 147.636C102.366 147.636 102.065 147.526 101.845 147.306C101.64 147.086 101.537 146.785 101.537 146.404C101.537 146.023 101.647 145.715 101.867 145.48C102.102 145.245 102.417 145.128 102.813 145.128ZM113.461 153.334C113.476 152.777 113.344 152.344 113.065 152.036C112.801 151.713 112.412 151.552 111.899 151.552C111.048 151.552 110.168 151.992 109.259 152.872L109.237 155.556L109.369 160H107.125L107.257 155.754L107.147 150.012L109.281 149.814L109.259 151.288H109.413C110.278 150.525 111.18 150.005 112.119 149.726C113.248 149.726 114.099 149.983 114.671 150.496C115.258 151.009 115.544 151.743 115.529 152.696L115.463 155.556L115.573 160H113.307L113.461 153.334ZM127.904 150.936C127.493 151.068 126.862 151.207 126.012 151.354L125.968 151.442C126.246 151.911 126.386 152.476 126.386 153.136C126.386 154.221 126.012 155.087 125.264 155.732C124.516 156.363 123.504 156.678 122.228 156.678C121.758 156.678 121.311 156.634 120.886 156.546C120.71 156.693 120.585 156.825 120.512 156.942C120.453 157.045 120.424 157.155 120.424 157.272C120.424 157.565 120.607 157.771 120.974 157.888C121.355 158.005 121.949 158.123 122.756 158.24C123.592 158.343 124.288 158.467 124.846 158.614C125.403 158.761 125.88 159.01 126.276 159.362C126.686 159.714 126.892 160.198 126.892 160.814C126.892 161.459 126.679 162.046 126.254 162.574C125.828 163.102 125.242 163.513 124.494 163.806C123.76 164.114 122.939 164.268 122.03 164.268C120.798 164.268 119.837 163.997 119.148 163.454C118.473 162.911 118.136 162.2 118.136 161.32C118.356 160.968 118.62 160.653 118.928 160.374C119.236 160.095 119.602 159.817 120.028 159.538V159.428C119.514 159.252 119.118 159.025 118.84 158.746C118.561 158.453 118.422 158.064 118.422 157.58C118.803 157.037 119.272 156.59 119.83 156.238V156.128C119.331 155.849 118.95 155.475 118.686 155.006C118.436 154.522 118.312 153.957 118.312 153.312C118.312 152.197 118.678 151.325 119.412 150.694C120.16 150.049 121.164 149.726 122.426 149.726C123.188 149.726 123.863 149.851 124.45 150.1C125.535 149.924 126.62 149.667 127.706 149.33L127.904 149.462V150.936ZM122.316 155.248C122.99 155.248 123.504 155.065 123.856 154.698C124.222 154.331 124.406 153.811 124.406 153.136C124.406 152.505 124.237 152.021 123.9 151.684C123.562 151.347 123.064 151.178 122.404 151.178C121.714 151.178 121.186 151.354 120.82 151.706C120.468 152.043 120.292 152.542 120.292 153.202C120.292 153.862 120.46 154.368 120.798 154.72C121.15 155.072 121.656 155.248 122.316 155.248ZM124.956 161.232C124.956 160.909 124.831 160.66 124.582 160.484C124.332 160.308 124.032 160.176 123.68 160.088C123.328 160.015 122.814 159.927 122.14 159.824C121.817 159.795 121.59 159.765 121.458 159.736C120.988 160.029 120.636 160.315 120.402 160.594C120.167 160.873 120.05 161.159 120.05 161.452C120.05 161.848 120.24 162.171 120.622 162.42C121.018 162.684 121.575 162.816 122.294 162.816C123.071 162.816 123.709 162.669 124.208 162.376C124.706 162.083 124.956 161.701 124.956 161.232Z" fill="#333333"/>
<path d="M181.05 116.704V120.444H184.79L184.944 120.598L184.834 121.984H181.05V125.768L179.686 125.878L179.51 125.724V121.984H175.77L175.616 121.83L175.726 120.444H179.51V116.66L180.896 116.528L181.05 116.704Z" fill="#2D9CDB"/>
<path d="M182.094 190.4V191.808L176.814 192.6L176.616 192.402V190.994L181.896 190.224L182.094 190.4Z" fill="#2D9CDB"/>
<path d="M190 159.001C201 145.335 236.478 121.171 252.5 118.501C276.5 114.501 287.5 124.784 306 139.5C328 157 378.5 143.003 411 159.001C443.5 175 441.896 190.5 472 190.5C498 190.5 514 171.001 526 159.001C543 142.003 548.5 125.854 574.5 118.501C587.57 114.804 614 175.501 632.5 190.5C651 205.499 664.5 207 688.5 207C697.7 207 713.5 189.502 742 160.5C760.5 138.5 774.5 120 801.5 106" stroke="#2F80ED" stroke-width="2" stroke-linecap="round"/>
<circle cx="798.5" cy="105.5" r="5.5" fill="#2F80ED"/>
<path d="M71.028 70.722C72.1427 70.722 73.2573 70.9567 74.372 71.426L73.998 73.494L73.646 73.626C73.1767 73.2887 72.6927 73.0247 72.194 72.834C71.6953 72.6433 71.2187 72.548 70.764 72.548C70.0453 72.548 69.4733 72.746 69.048 73.142C68.6227 73.538 68.41 74 68.41 74.528C68.41 75.0413 68.6227 75.4667 69.048 75.804C69.4733 76.1267 70.1407 76.5007 71.05 76.926C71.842 77.3073 72.48 77.652 72.964 77.96C73.4627 78.268 73.888 78.6787 74.24 79.192C74.592 79.6907 74.768 80.292 74.768 80.996C74.768 81.7587 74.5553 82.4627 74.13 83.108C73.7193 83.7387 73.1327 84.2447 72.37 84.626C71.622 84.9927 70.764 85.176 69.796 85.176C69.1507 85.176 68.4833 85.0953 67.794 84.934C67.1047 84.7727 66.452 84.538 65.836 84.23L66.122 81.986L66.408 81.854C66.9507 82.3673 67.5447 82.756 68.19 83.02C68.85 83.2693 69.4587 83.394 70.016 83.394C70.7787 83.394 71.3873 83.196 71.842 82.8C72.2967 82.3893 72.524 81.9053 72.524 81.348C72.524 80.7907 72.304 80.3433 71.864 80.006C71.424 79.654 70.7493 79.2653 69.84 78.84C69.0627 78.4733 68.432 78.1433 67.948 77.85C67.464 77.542 67.046 77.1387 66.694 76.64C66.3567 76.1413 66.188 75.54 66.188 74.836C66.188 74.0733 66.3933 73.3767 66.804 72.746C67.2147 72.1153 67.7867 71.624 68.52 71.272C69.2533 70.9053 70.0893 70.722 71.028 70.722ZM80.7828 83.306C81.2668 83.306 81.7801 83.174 82.3228 82.91L82.5428 83.064L82.3228 84.472C81.5161 84.8533 80.7681 85.0733 80.0788 85.132C79.1694 84.9853 78.5094 84.6847 78.0988 84.23C77.6881 83.7607 77.4828 83.086 77.4828 82.206L77.5708 80.622L77.5488 76.332H76.1628L76.0748 76.2L76.1848 74.902H77.5268V73.296L79.5068 72.548L79.7048 72.724L79.6608 74.902H82.4768L82.5648 75.056L82.4548 76.332H79.6168L79.5068 81.854C79.4921 82.3967 79.5801 82.778 79.7708 82.998C79.9761 83.2033 80.3134 83.306 80.7828 83.306ZM88.046 74.66C89.058 74.66 89.8574 74.902 90.444 75.386C91.0307 75.87 91.324 76.5447 91.324 77.41C91.324 77.674 91.28 78.554 91.192 80.05C91.104 81.5167 91.06 82.3747 91.06 82.624C91.06 82.9027 91.104 83.1007 91.192 83.218C91.2947 83.3207 91.4634 83.372 91.698 83.372C91.8447 83.372 92.0647 83.3427 92.358 83.284L92.556 83.438L92.336 84.67C91.9107 84.934 91.4487 85.0953 90.95 85.154C90.4954 85.11 90.1287 84.9487 89.85 84.67C89.5714 84.3767 89.4027 83.9953 89.344 83.526H89.19C88.442 84.318 87.6794 84.868 86.902 85.176C85.89 85.1613 85.0907 84.8973 84.504 84.384C83.932 83.8707 83.646 83.174 83.646 82.294C83.646 80.9887 84.3574 80.1747 85.78 79.852L89.256 79.082L89.278 77.894C89.278 77.3513 89.1387 76.9407 88.86 76.662C88.596 76.3833 88.2074 76.244 87.694 76.244C87.1954 76.244 86.6967 76.3613 86.198 76.596C85.6994 76.816 85.1494 77.168 84.548 77.652L84.372 77.542L84.086 75.98C85.3767 75.1 86.6967 74.66 88.046 74.66ZM86.396 81.062C86.132 81.1207 85.9414 81.2233 85.824 81.37C85.7067 81.502 85.648 81.7147 85.648 82.008C85.648 82.448 85.7654 82.7927 86 83.042C86.2494 83.2913 86.5794 83.416 86.99 83.416C87.6794 83.416 88.4127 82.9687 89.19 82.074L89.256 80.38L86.396 81.062ZM104.056 75.936C103.645 76.068 103.015 76.2073 102.164 76.354L102.12 76.442C102.399 76.9113 102.538 77.476 102.538 78.136C102.538 79.2213 102.164 80.0867 101.416 80.732C100.668 81.3627 99.656 81.678 98.38 81.678C97.9107 81.678 97.4633 81.634 97.038 81.546C96.862 81.6927 96.7373 81.8247 96.664 81.942C96.6053 82.0447 96.576 82.1547 96.576 82.272C96.576 82.5653 96.7593 82.7707 97.126 82.888C97.5073 83.0053 98.1013 83.1227 98.908 83.24C99.744 83.3427 100.441 83.4673 100.998 83.614C101.555 83.7607 102.032 84.01 102.428 84.362C102.839 84.714 103.044 85.198 103.044 85.814C103.044 86.4593 102.831 87.046 102.406 87.574C101.981 88.102 101.394 88.5127 100.646 88.806C99.9127 89.114 99.0913 89.268 98.182 89.268C96.95 89.268 95.9893 88.9967 95.3 88.454C94.6253 87.9113 94.288 87.2 94.288 86.32C94.508 85.968 94.772 85.6527 95.08 85.374C95.388 85.0953 95.7547 84.8167 96.18 84.538V84.428C95.6667 84.252 95.2707 84.0247 94.992 83.746C94.7133 83.4527 94.574 83.064 94.574 82.58C94.9553 82.0373 95.4247 81.59 95.982 81.238V81.128C95.4833 80.8493 95.102 80.4753 94.838 80.006C94.5887 79.522 94.464 78.9573 94.464 78.312C94.464 77.1973 94.8307 76.3247 95.564 75.694C96.312 75.0487 97.3167 74.726 98.578 74.726C99.3407 74.726 100.015 74.8507 100.602 75.1C101.687 74.924 102.773 74.6673 103.858 74.33L104.056 74.462V75.936ZM98.468 80.248C99.1427 80.248 99.656 80.0647 100.008 79.698C100.375 79.3313 100.558 78.8107 100.558 78.136C100.558 77.5053 100.389 77.0213 100.052 76.684C99.7147 76.3467 99.216 76.178 98.556 76.178C97.8667 76.178 97.3387 76.354 96.972 76.706C96.62 77.0433 96.444 77.542 96.444 78.202C96.444 78.862 96.6127 79.368 96.95 79.72C97.302 80.072 97.808 80.248 98.468 80.248ZM101.108 86.232C101.108 85.9093 100.983 85.66 100.734 85.484C100.485 85.308 100.184 85.176 99.832 85.088C99.48 85.0147 98.9667 84.9267 98.292 84.824C97.9693 84.7947 97.742 84.7653 97.61 84.736C97.1407 85.0293 96.7887 85.3153 96.554 85.594C96.3193 85.8727 96.202 86.1587 96.202 86.452C96.202 86.848 96.3927 87.1707 96.774 87.42C97.17 87.684 97.7273 87.816 98.446 87.816C99.2233 87.816 99.8613 87.6693 100.36 87.376C100.859 87.0827 101.108 86.7013 101.108 86.232ZM112.993 80.028L106.811 80.05C106.826 81.1647 107.097 82.0153 107.625 82.602C108.153 83.174 108.901 83.46 109.869 83.46C110.881 83.46 111.871 83.1593 112.839 82.558L113.059 82.69L112.729 84.494C111.659 84.9633 110.617 85.198 109.605 85.198C108.095 85.198 106.907 84.736 106.041 83.812C105.191 82.8733 104.765 81.5973 104.765 79.984C104.765 78.356 105.191 77.0653 106.041 76.112C106.892 75.1587 108.043 74.682 109.495 74.682C110.727 74.682 111.673 75.0193 112.333 75.694C113.008 76.3687 113.345 77.322 113.345 78.554C113.345 78.8913 113.309 79.2947 113.235 79.764L112.993 80.028ZM111.321 78.29C111.321 77.6007 111.16 77.08 110.837 76.728C110.529 76.376 110.075 76.2 109.473 76.2C108.799 76.2 108.241 76.42 107.801 76.86C107.361 77.2853 107.068 77.894 106.921 78.686L111.277 78.598L111.321 78.29ZM118.798 74.682C119.678 74.682 120.536 74.8507 121.372 75.188L121.064 76.948L120.778 77.014C120.015 76.5007 119.267 76.244 118.534 76.244C118.094 76.244 117.742 76.3613 117.478 76.596C117.228 76.8307 117.104 77.1167 117.104 77.454C117.104 77.8207 117.25 78.114 117.544 78.334C117.852 78.554 118.321 78.796 118.952 79.06C119.524 79.3093 119.986 79.544 120.338 79.764C120.704 79.984 121.012 80.2773 121.262 80.644C121.526 81.0107 121.658 81.4653 121.658 82.008C121.658 82.5653 121.511 83.0933 121.218 83.592C120.924 84.076 120.492 84.4647 119.92 84.758C119.348 85.0513 118.658 85.198 117.852 85.198C116.84 85.198 115.813 84.9707 114.772 84.516L115.036 82.646L115.278 82.492C115.703 82.8587 116.172 83.152 116.686 83.372C117.199 83.5773 117.668 83.68 118.094 83.68C118.563 83.68 118.937 83.5553 119.216 83.306C119.509 83.042 119.656 82.734 119.656 82.382C119.656 82.0153 119.509 81.7293 119.216 81.524C118.922 81.304 118.46 81.0473 117.83 80.754C117.258 80.5047 116.788 80.27 116.422 80.05C116.055 79.83 115.74 79.5293 115.476 79.148C115.226 78.7667 115.102 78.2973 115.102 77.74C115.102 76.8453 115.432 76.112 116.092 75.54C116.752 74.968 117.654 74.682 118.798 74.682Z" fill="#333333"/>
<path d="M72.26 279.788C74.284 279.788 75.8387 280.36 76.924 281.504C78.0093 282.648 78.552 284.291 78.552 286.432C78.552 288.911 77.958 290.817 76.77 292.152C75.582 293.472 73.8733 294.132 71.644 294.132C71.0133 294.132 70.258 294.117 69.378 294.088C68.498 294.073 67.6767 294.044 66.914 294H66.892L67.046 289.754L66.892 279.876H66.914L72.26 279.788ZM72.04 292.328C73.3893 292.328 74.416 291.881 75.12 290.986C75.8387 290.091 76.198 288.742 76.198 286.938C76.198 285.119 75.8533 283.785 75.164 282.934C74.4893 282.069 73.4627 281.636 72.084 281.636C71.2773 281.636 70.3167 281.665 69.202 281.724L69.092 289.556L69.158 292.174C69.686 292.218 70.214 292.255 70.742 292.284C71.27 292.313 71.7027 292.328 72.04 292.328ZM84.8096 283.66C86.2323 283.66 87.325 284.107 88.0876 285.002C88.865 285.882 89.2536 287.136 89.2536 288.764C89.2536 290.509 88.843 291.851 88.0216 292.79C87.2003 293.729 86.0343 294.198 84.5236 294.198C83.101 294.198 82.001 293.758 81.2236 292.878C80.461 291.983 80.0796 290.722 80.0796 289.094C80.0796 287.349 80.4903 286.007 81.3116 285.068C82.133 284.129 83.299 283.66 84.8096 283.66ZM84.6776 285.222C83.0056 285.222 82.1696 286.351 82.1696 288.61C82.1696 289.989 82.375 291.008 82.7856 291.668C83.1963 292.328 83.827 292.658 84.6776 292.658C85.5136 292.658 86.137 292.379 86.5476 291.822C86.9583 291.265 87.1636 290.414 87.1636 289.27C87.1636 287.891 86.9583 286.872 86.5476 286.212C86.137 285.552 85.5136 285.222 84.6776 285.222ZM91.8098 289.754L91.7438 284.012L93.9438 283.814L93.8558 289.556L93.9218 294H91.7218L91.8098 289.754ZM92.8658 279.128C93.2324 279.128 93.5184 279.238 93.7238 279.458C93.9291 279.663 94.0318 279.957 94.0318 280.338C94.0318 280.734 93.9218 281.049 93.7018 281.284C93.4818 281.519 93.1811 281.636 92.7998 281.636C92.4184 281.636 92.1178 281.526 91.8978 281.306C91.6924 281.086 91.5898 280.785 91.5898 280.404C91.5898 280.023 91.6998 279.715 91.9198 279.48C92.1544 279.245 92.4698 279.128 92.8658 279.128ZM103.514 287.334C103.528 286.777 103.396 286.344 103.118 286.036C102.854 285.713 102.465 285.552 101.952 285.552C101.101 285.552 100.221 285.992 99.3118 286.872L99.2898 289.556L99.4218 294H97.1778L97.3098 289.754L97.1998 284.012L99.3338 283.814L99.3118 285.288H99.4658C100.331 284.525 101.233 284.005 102.172 283.726C103.301 283.726 104.152 283.983 104.724 284.496C105.31 285.009 105.596 285.743 105.582 286.696L105.516 289.556L105.626 294H103.36L103.514 287.334ZM117.956 284.936C117.546 285.068 116.915 285.207 116.064 285.354L116.02 285.442C116.299 285.911 116.438 286.476 116.438 287.136C116.438 288.221 116.064 289.087 115.316 289.732C114.568 290.363 113.556 290.678 112.28 290.678C111.811 290.678 111.364 290.634 110.938 290.546C110.762 290.693 110.638 290.825 110.564 290.942C110.506 291.045 110.476 291.155 110.476 291.272C110.476 291.565 110.66 291.771 111.026 291.888C111.408 292.005 112.002 292.123 112.808 292.24C113.644 292.343 114.341 292.467 114.898 292.614C115.456 292.761 115.932 293.01 116.328 293.362C116.739 293.714 116.944 294.198 116.944 294.814C116.944 295.459 116.732 296.046 116.306 296.574C115.881 297.102 115.294 297.513 114.546 297.806C113.813 298.114 112.992 298.268 112.082 298.268C110.85 298.268 109.89 297.997 109.2 297.454C108.526 296.911 108.188 296.2 108.188 295.32C108.408 294.968 108.672 294.653 108.98 294.374C109.288 294.095 109.655 293.817 110.08 293.538V293.428C109.567 293.252 109.171 293.025 108.892 292.746C108.614 292.453 108.474 292.064 108.474 291.58C108.856 291.037 109.325 290.59 109.882 290.238V290.128C109.384 289.849 109.002 289.475 108.738 289.006C108.489 288.522 108.364 287.957 108.364 287.312C108.364 286.197 108.731 285.325 109.464 284.694C110.212 284.049 111.217 283.726 112.478 283.726C113.241 283.726 113.916 283.851 114.502 284.1C115.588 283.924 116.673 283.667 117.758 283.33L117.956 283.462V284.936ZM112.368 289.248C113.043 289.248 113.556 289.065 113.908 288.698C114.275 288.331 114.458 287.811 114.458 287.136C114.458 286.505 114.29 286.021 113.952 285.684C113.615 285.347 113.116 285.178 112.456 285.178C111.767 285.178 111.239 285.354 110.872 285.706C110.52 286.043 110.344 286.542 110.344 287.202C110.344 287.862 110.513 288.368 110.85 288.72C111.202 289.072 111.708 289.248 112.368 289.248ZM115.008 295.232C115.008 294.909 114.884 294.66 114.634 294.484C114.385 294.308 114.084 294.176 113.732 294.088C113.38 294.015 112.867 293.927 112.192 293.824C111.87 293.795 111.642 293.765 111.51 293.736C111.041 294.029 110.689 294.315 110.454 294.594C110.22 294.873 110.102 295.159 110.102 295.452C110.102 295.848 110.293 296.171 110.674 296.42C111.07 296.684 111.628 296.816 112.346 296.816C113.124 296.816 113.762 296.669 114.26 296.376C114.759 296.083 115.008 295.701 115.008 295.232Z" fill="#333333"/>
<rect x="175.5" y="270.5" width="44" height="39" fill="#EFE8DF" stroke="#828282"/>
<rect x="612.5" y="270.5" width="44" height="39" fill="#EFE8DF" stroke="#828282"/>
<rect x="394.5" y="270.5" width="44" height="39" fill="#EFE8DF" stroke="#828282"/>
<rect x="230.5" y="270.5" width="44" height="39" fill="#EFE8DF" stroke="#828282"/>
<rect x="667.5" y="270.5" width="44" height="39" fill="#EFE8DF" stroke="#828282"/>
<rect x="449.5" y="270.5" width="44" height="39" fill="#EFE8DF" stroke="#828282"/>
<rect x="339.5" y="270.5" width="44" height="39" fill="#EFE8DF" stroke="#828282"/>
<rect x="776.5" y="270.5" width="44" height="39" fill="#EFE8DF" stroke="#828282"/>
<rect x="558.5" y="270.5" width="44" height="39" fill="#EFE8DF" stroke="#828282"/>
<rect x="284.5" y="270.5" width="44" height="39" fill="#EFE8DF" stroke="#828282"/>
<rect x="721.5" y="270.5" width="44" height="39" fill="#EFE8DF" stroke="#828282"/>
<rect x="503.5" y="270.5" width="44" height="39" fill="#EFE8DF" stroke="#828282"/>
<rect x="175.5" y="224.5" width="44" height="39" fill="#D9DFE9" stroke="#828282"/>
<rect x="612.5" y="224.5" width="44" height="39" fill="#D9DFE9" stroke="#828282"/>
<rect x="394.5" y="224.5" width="44" height="39" fill="#D9DFE9" stroke="#828282"/>
<rect x="230.5" y="224.5" width="44" height="39" fill="#D9DFE9" stroke="#828282"/>
<rect x="667.5" y="224.5" width="44" height="39" fill="#D9DFE9" stroke="#828282"/>
<rect x="449.5" y="224.5" width="44" height="39" fill="#D9DFE9" stroke="#828282"/>
<rect x="339.5" y="224.5" width="44" height="39" fill="#D9DFE9" stroke="#828282"/>
<rect x="776.5" y="224.5" width="44" height="39" fill="#D9DFE9" stroke="#828282"/>
<rect x="558.5" y="224.5" width="44" height="39" fill="#D9DFE9" stroke="#828282"/>
<rect x="284.5" y="224.5" width="44" height="39" fill="#D9DFE9" stroke="#828282"/>
<rect x="721.5" y="224.5" width="44" height="39" fill="#D9DFE9" stroke="#828282"/>
<rect x="503.5" y="224.5" width="44" height="39" fill="#D9DFE9" stroke="#828282"/>
<rect x="175.5" y="68.5" width="208" height="21" fill="#D9DFE9" stroke="#828282"/>
<rect x="394.5" y="68.5" width="99" height="21" fill="#D9DFE9" stroke="#828282"/>
<rect x="504.5" y="68.5" width="152" height="21" fill="#D9DFE9" stroke="#828282"/>
<rect x="667.5" y="68.5" width="153" height="21" fill="#D9DFE9" stroke="#828282"/>
<path d="M839.12 97.02C840.467 97.02 841.72 97.3067 842.88 97.88L842.46 99.8L842.24 99.82C841.587 99.4333 840.993 99.16 840.46 99C839.927 98.8267 839.367 98.74 838.78 98.74C837.447 98.74 836.453 99.1467 835.8 99.96C835.147 100.76 834.82 102.027 834.82 103.76C834.82 105.413 835.127 106.613 835.74 107.36C836.353 108.093 837.327 108.46 838.66 108.46C838.993 108.46 839.32 108.433 839.64 108.38C839.973 108.313 840.387 108.207 840.88 108.06L840.94 106.76L840.88 104.78L842.82 104.64L842.78 106.44L842.84 109.38C841.187 109.9 839.753 110.16 838.54 110.16C836.58 110.16 835.113 109.62 834.14 108.54C833.167 107.447 832.68 105.887 832.68 103.86C832.68 101.647 833.233 99.9533 834.34 98.78C835.46 97.6067 837.053 97.02 839.12 97.02ZM850.533 97C852.306 97 853.673 97.5467 854.633 98.64C855.593 99.7333 856.073 101.293 856.073 103.32C856.073 105.507 855.559 107.2 854.533 108.4C853.506 109.587 852.046 110.18 850.153 110.18C848.393 110.18 847.033 109.62 846.073 108.5C845.126 107.367 844.653 105.767 844.653 103.7C844.653 101.553 845.159 99.9 846.173 98.74C847.199 97.58 848.653 97 850.533 97ZM850.373 98.68C849.159 98.68 848.253 99.0733 847.653 99.86C847.066 100.633 846.773 101.833 846.773 103.46C846.773 105.233 847.059 106.533 847.633 107.36C848.219 108.173 849.119 108.58 850.333 108.58C851.559 108.58 852.466 108.187 853.053 107.4C853.639 106.613 853.933 105.387 853.933 103.72C853.933 101.973 853.639 100.7 853.053 99.9C852.479 99.0867 851.586 98.68 850.373 98.68ZM867.813 110H865.693L865.393 108.56L864.833 106.78L862.113 106.72L859.653 106.78L859.053 108.46L858.733 110H856.673L861.253 97.16H863.673L867.813 110ZM864.313 105.1L862.473 99.18H862.333L860.233 105.1L862.253 105.14L864.313 105.1ZM876.611 108.46L876.451 110H869.851L869.991 106.14L869.851 97.16H871.971L871.851 105.96L871.891 108.28H876.471L876.611 108.46ZM835.82 125.86L835.76 129.9L837.78 129.94L839.9 129.88L840.04 130.06L839.88 131.62L837.6 131.56L835.74 131.58L835.72 132.96L835.82 137H833.72L833.86 133.14L833.72 124.16H840.9L841.04 124.34L840.88 125.96L837.88 125.84L835.82 125.86ZM848.443 132.48L842.823 132.5C842.836 133.513 843.083 134.287 843.563 134.82C844.043 135.34 844.723 135.6 845.603 135.6C846.523 135.6 847.423 135.327 848.303 134.78L848.503 134.9L848.203 136.54C847.229 136.967 846.283 137.18 845.363 137.18C843.989 137.18 842.909 136.76 842.123 135.92C841.349 135.067 840.963 133.907 840.963 132.44C840.963 130.96 841.349 129.787 842.123 128.92C842.896 128.053 843.943 127.62 845.263 127.62C846.383 127.62 847.243 127.927 847.843 128.54C848.456 129.153 848.763 130.02 848.763 131.14C848.763 131.447 848.729 131.813 848.663 132.24L848.443 132.48ZM846.923 130.9C846.923 130.273 846.776 129.8 846.483 129.48C846.203 129.16 845.789 129 845.243 129C844.629 129 844.123 129.2 843.723 129.6C843.323 129.987 843.056 130.54 842.923 131.26L846.883 131.18L846.923 130.9ZM857.74 132.48L852.12 132.5C852.133 133.513 852.38 134.287 852.86 134.82C853.34 135.34 854.02 135.6 854.9 135.6C855.82 135.6 856.72 135.327 857.6 134.78L857.8 134.9L857.5 136.54C856.526 136.967 855.58 137.18 854.66 137.18C853.286 137.18 852.206 136.76 851.42 135.92C850.646 135.067 850.26 133.907 850.26 132.44C850.26 130.96 850.646 129.787 851.42 128.92C852.193 128.053 853.24 127.62 854.56 127.62C855.68 127.62 856.54 127.927 857.14 128.54C857.753 129.153 858.06 130.02 858.06 131.14C858.06 131.447 858.026 131.813 857.96 132.24L857.74 132.48ZM856.22 130.9C856.22 130.273 856.073 129.8 855.78 129.48C855.5 129.16 855.086 129 854.54 129C853.926 129 853.42 129.2 853.02 129.6C852.62 129.987 852.353 130.54 852.22 131.26L856.18 131.18L856.22 130.9ZM862.197 132.94L862.337 137H860.297L860.437 133.12L860.317 123.12L862.357 122.96L862.197 132.94ZM875.279 132.48L869.659 132.5C869.672 133.513 869.919 134.287 870.399 134.82C870.879 135.34 871.559 135.6 872.439 135.6C873.359 135.6 874.259 135.327 875.139 134.78L875.339 134.9L875.039 136.54C874.065 136.967 873.119 137.18 872.199 137.18C870.825 137.18 869.745 136.76 868.959 135.92C868.185 135.067 867.799 133.907 867.799 132.44C867.799 130.96 868.185 129.787 868.959 128.92C869.732 128.053 870.779 127.62 872.099 127.62C873.219 127.62 874.079 127.927 874.679 128.54C875.292 129.153 875.599 130.02 875.599 131.14C875.599 131.447 875.565 131.813 875.499 132.24L875.279 132.48ZM873.759 130.9C873.759 130.273 873.612 129.8 873.319 129.48C873.039 129.16 872.625 129 872.079 129C871.465 129 870.959 129.2 870.559 129.6C870.159 129.987 869.892 130.54 869.759 131.26L873.719 131.18L873.759 130.9ZM884.995 127.64L885.175 127.76L885.035 132.96L885.155 140.7H883.155L883.235 136.38V135.96H883.075C882.742 136.227 882.435 136.447 882.155 136.62C881.875 136.793 881.542 136.96 881.155 137.12C879.849 137.12 878.842 136.713 878.135 135.9C877.442 135.073 877.095 133.933 877.095 132.48C877.095 130.92 877.489 129.72 878.275 128.88C879.075 128.04 880.175 127.62 881.575 127.62C882.282 127.62 883.082 127.747 883.975 128L884.995 127.64ZM881.415 129.04C880.655 129.04 880.062 129.3 879.635 129.82C879.209 130.34 878.995 131.133 878.995 132.2C878.995 133.24 879.189 134.047 879.575 134.62C879.962 135.18 880.502 135.46 881.195 135.46C881.542 135.46 881.875 135.38 882.195 135.22C882.515 135.06 882.862 134.787 883.235 134.4L883.255 133.16L883.195 129.54C882.569 129.207 881.975 129.04 881.415 129.04ZM896.549 135.58L896.369 136.7C895.929 136.953 895.496 137.1 895.069 137.14C894.669 137.073 894.349 136.933 894.109 136.72C893.882 136.493 893.709 136.16 893.589 135.72H893.449C892.662 136.427 891.862 136.893 891.049 137.12C890.049 137.12 889.282 136.887 888.749 136.42C888.216 135.953 887.956 135.287 887.969 134.42L888.009 131.92L887.929 127.92L889.949 127.74L889.849 133.86C889.836 134.353 889.942 134.74 890.169 135.02C890.409 135.3 890.762 135.44 891.229 135.44C891.936 135.44 892.662 135.107 893.409 134.44V127.92L895.349 127.74L895.209 134.86C895.209 135.1 895.249 135.273 895.329 135.38C895.409 135.473 895.549 135.52 895.749 135.52C895.909 135.52 896.116 135.493 896.369 135.44L896.549 135.58ZM898.482 133.14L898.422 127.92L900.422 127.74L900.342 132.96L900.402 137H898.402L898.482 133.14ZM899.442 123.48C899.775 123.48 900.035 123.58 900.222 123.78C900.409 123.967 900.502 124.233 900.502 124.58C900.502 124.94 900.402 125.227 900.202 125.44C900.002 125.653 899.729 125.76 899.382 125.76C899.035 125.76 898.762 125.66 898.562 125.46C898.375 125.26 898.282 124.987 898.282 124.64C898.282 124.293 898.382 124.013 898.582 123.8C898.795 123.587 899.082 123.48 899.442 123.48ZM907.803 127.68C908.949 127.68 909.829 128.067 910.443 128.84C911.069 129.6 911.383 130.693 911.383 132.12C911.383 133.733 910.989 134.98 910.203 135.86C909.416 136.74 908.296 137.18 906.843 137.18C906.376 137.18 905.856 137.127 905.283 137.02L905.343 140.7H903.323L903.463 133.14L903.323 127.92L905.283 127.74L905.263 129.06H905.403C905.829 128.687 906.223 128.4 906.583 128.2C906.943 128 907.349 127.827 907.803 127.68ZM907.003 135.78C907.803 135.78 908.416 135.493 908.843 134.92C909.269 134.347 909.483 133.527 909.483 132.46C909.483 131.447 909.309 130.673 908.963 130.14C908.616 129.593 908.116 129.32 907.463 129.32C907.103 129.32 906.743 129.42 906.383 129.62C906.036 129.807 905.656 130.107 905.243 130.52L905.223 132.96L905.263 135.34C905.889 135.633 906.469 135.78 907.003 135.78ZM918.057 127.68C919.203 127.68 920.083 128.067 920.697 128.84C921.323 129.6 921.637 130.693 921.637 132.12C921.637 133.733 921.243 134.98 920.457 135.86C919.67 136.74 918.55 137.18 917.097 137.18C916.63 137.18 916.11 137.127 915.537 137.02L915.597 140.7H913.577L913.717 133.14L913.577 127.92L915.537 127.74L915.517 129.06H915.657C916.083 128.687 916.477 128.4 916.837 128.2C917.197 128 917.603 127.827 918.057 127.68ZM917.257 135.78C918.057 135.78 918.67 135.493 919.097 134.92C919.523 134.347 919.737 133.527 919.737 132.46C919.737 131.447 919.563 130.673 919.217 130.14C918.87 129.593 918.37 129.32 917.717 129.32C917.357 129.32 916.997 129.42 916.637 129.62C916.29 129.807 915.91 130.107 915.497 130.52L915.477 132.96L915.517 135.34C916.143 135.633 916.723 135.78 917.257 135.78ZM930.611 132.48L924.991 132.5C925.004 133.513 925.251 134.287 925.731 134.82C926.211 135.34 926.891 135.6 927.771 135.6C928.691 135.6 929.591 135.327 930.471 134.78L930.671 134.9L930.371 136.54C929.397 136.967 928.451 137.18 927.531 137.18C926.157 137.18 925.077 136.76 924.291 135.92C923.517 135.067 923.131 133.907 923.131 132.44C923.131 130.96 923.517 129.787 924.291 128.92C925.064 128.053 926.111 127.62 927.431 127.62C928.551 127.62 929.411 127.927 930.011 128.54C930.624 129.153 930.931 130.02 930.931 131.14C930.931 131.447 930.897 131.813 930.831 132.24L930.611 132.48ZM929.091 130.9C929.091 130.273 928.944 129.8 928.651 129.48C928.371 129.16 927.957 129 927.411 129C926.797 129 926.291 129.2 925.891 129.6C925.491 129.987 925.224 130.54 925.091 131.26L929.051 131.18L929.091 130.9ZM940.368 132.94L940.428 134.86C940.441 135.113 940.481 135.287 940.548 135.38C940.614 135.473 940.748 135.52 940.948 135.52C941.094 135.52 941.301 135.493 941.568 135.44L941.748 135.58L941.548 136.7C941.161 136.94 940.741 137.087 940.288 137.14C939.874 137.1 939.534 136.96 939.268 136.72C939.014 136.467 938.854 136.14 938.788 135.74H938.628C938.241 136.073 937.894 136.347 937.588 136.56C937.281 136.76 936.941 136.947 936.568 137.12C935.234 137.12 934.208 136.713 933.488 135.9C932.781 135.073 932.428 133.913 932.428 132.42C932.428 130.887 932.828 129.707 933.628 128.88C934.428 128.04 935.541 127.62 936.967 127.62C937.434 127.62 937.954 127.673 938.528 127.78L938.488 123.12L940.508 122.96L940.368 132.94ZM936.768 129.02C936.008 129.02 935.408 129.28 934.968 129.8C934.541 130.32 934.327 131.093 934.327 132.12C934.327 133.2 934.527 134.027 934.928 134.6C935.328 135.173 935.888 135.46 936.608 135.46C936.941 135.46 937.261 135.38 937.567 135.22C937.874 135.06 938.201 134.787 938.548 134.4L938.588 133.12L938.528 129.48C937.888 129.173 937.301 129.02 936.768 129.02ZM950 135.46C950.44 135.46 950.907 135.34 951.4 135.1L951.6 135.24L951.4 136.52C950.667 136.867 949.987 137.067 949.36 137.12C948.534 136.987 947.934 136.713 947.56 136.3C947.187 135.873 947 135.26 947 134.46L947.08 133.02L947.06 129.12H945.8L945.72 129L945.82 127.82H947.04V126.36L948.84 125.68L949.02 125.84L948.98 127.82H951.54L951.62 127.96L951.52 129.12H948.94L948.84 134.14C948.827 134.633 948.907 134.98 949.08 135.18C949.267 135.367 949.574 135.46 950 135.46ZM956.688 127.6C957.982 127.6 958.975 128.007 959.668 128.82C960.375 129.62 960.728 130.76 960.728 132.24C960.728 133.827 960.355 135.047 959.608 135.9C958.862 136.753 957.802 137.18 956.428 137.18C955.135 137.18 954.135 136.78 953.428 135.98C952.735 135.167 952.388 134.02 952.388 132.54C952.388 130.953 952.762 129.733 953.508 128.88C954.255 128.027 955.315 127.6 956.688 127.6ZM956.568 129.02C955.048 129.02 954.288 130.047 954.288 132.1C954.288 133.353 954.475 134.28 954.848 134.88C955.222 135.48 955.795 135.78 956.568 135.78C957.328 135.78 957.895 135.527 958.268 135.02C958.642 134.513 958.828 133.74 958.828 132.7C958.828 131.447 958.642 130.52 958.268 129.92C957.895 129.32 957.328 129.02 956.568 129.02ZM836.2 154.62C837 154.62 837.78 154.773 838.54 155.08L838.26 156.68L838 156.74C837.307 156.273 836.627 156.04 835.96 156.04C835.56 156.04 835.24 156.147 835 156.36C834.773 156.573 834.66 156.833 834.66 157.14C834.66 157.473 834.793 157.74 835.06 157.94C835.34 158.14 835.767 158.36 836.34 158.6C836.86 158.827 837.28 159.04 837.6 159.24C837.933 159.44 838.213 159.707 838.44 160.04C838.68 160.373 838.8 160.787 838.8 161.28C838.8 161.787 838.667 162.267 838.4 162.72C838.133 163.16 837.74 163.513 837.22 163.78C836.7 164.047 836.073 164.18 835.34 164.18C834.42 164.18 833.487 163.973 832.54 163.56L832.78 161.86L833 161.72C833.387 162.053 833.813 162.32 834.28 162.52C834.747 162.707 835.173 162.8 835.56 162.8C835.987 162.8 836.327 162.687 836.58 162.46C836.847 162.22 836.98 161.94 836.98 161.62C836.98 161.287 836.847 161.027 836.58 160.84C836.313 160.64 835.893 160.407 835.32 160.14C834.8 159.913 834.373 159.7 834.04 159.5C833.707 159.3 833.42 159.027 833.18 158.68C832.953 158.333 832.84 157.907 832.84 157.4C832.84 156.587 833.14 155.92 833.74 155.4C834.34 154.88 835.16 154.62 836.2 154.62ZM849.44 162.58L849.26 163.7C848.82 163.953 848.386 164.1 847.96 164.14C847.56 164.073 847.24 163.933 847 163.72C846.773 163.493 846.6 163.16 846.48 162.72H846.34C845.553 163.427 844.753 163.893 843.94 164.12C842.94 164.12 842.173 163.887 841.64 163.42C841.106 162.953 840.846 162.287 840.86 161.42L840.9 158.92L840.82 154.92L842.84 154.74L842.74 160.86C842.726 161.353 842.833 161.74 843.06 162.02C843.3 162.3 843.653 162.44 844.12 162.44C844.826 162.44 845.553 162.107 846.3 161.44V154.92L848.24 154.74L848.1 161.86C848.1 162.1 848.14 162.273 848.22 162.38C848.3 162.473 848.44 162.52 848.64 162.52C848.8 162.52 849.006 162.493 849.26 162.44L849.44 162.58ZM854.773 154.6C855.199 154.6 855.633 154.647 856.073 154.74C856.513 154.833 856.899 154.96 857.233 155.12L856.893 156.82L856.693 156.9C855.986 156.487 855.333 156.28 854.733 156.28C854.026 156.28 853.473 156.547 853.073 157.08C852.673 157.613 852.473 158.36 852.473 159.32C852.473 160.347 852.679 161.147 853.093 161.72C853.506 162.28 854.093 162.56 854.853 162.56C855.519 162.56 856.233 162.36 856.993 161.96L857.173 162.08L856.973 163.72C856.159 164.027 855.346 164.18 854.533 164.18C853.279 164.18 852.299 163.767 851.593 162.94C850.899 162.1 850.553 160.947 850.553 159.48C850.553 157.96 850.926 156.767 851.673 155.9C852.419 155.033 853.453 154.6 854.773 154.6ZM862.468 154.6C862.894 154.6 863.328 154.647 863.768 154.74C864.208 154.833 864.594 154.96 864.928 155.12L864.588 156.82L864.388 156.9C863.681 156.487 863.028 156.28 862.428 156.28C861.721 156.28 861.168 156.547 860.768 157.08C860.368 157.613 860.168 158.36 860.168 159.32C860.168 160.347 860.374 161.147 860.788 161.72C861.201 162.28 861.788 162.56 862.548 162.56C863.214 162.56 863.928 162.36 864.688 161.96L864.868 162.08L864.668 163.72C863.854 164.027 863.041 164.18 862.228 164.18C860.974 164.18 859.994 163.767 859.288 162.94C858.594 162.1 858.248 160.947 858.248 159.48C858.248 157.96 858.621 156.767 859.368 155.9C860.114 155.033 861.148 154.6 862.468 154.6ZM873.423 159.48L867.803 159.5C867.816 160.513 868.063 161.287 868.543 161.82C869.023 162.34 869.703 162.6 870.583 162.6C871.503 162.6 872.403 162.327 873.283 161.78L873.483 161.9L873.183 163.54C872.21 163.967 871.263 164.18 870.343 164.18C868.97 164.18 867.89 163.76 867.103 162.92C866.33 162.067 865.943 160.907 865.943 159.44C865.943 157.96 866.33 156.787 867.103 155.92C867.876 155.053 868.923 154.62 870.243 154.62C871.363 154.62 872.223 154.927 872.823 155.54C873.436 156.153 873.743 157.02 873.743 158.14C873.743 158.447 873.71 158.813 873.643 159.24L873.423 159.48ZM871.903 157.9C871.903 157.273 871.756 156.8 871.463 156.48C871.183 156.16 870.77 156 870.223 156C869.61 156 869.103 156.2 868.703 156.6C868.303 156.987 868.036 157.54 867.903 158.26L871.863 158.18L871.903 157.9ZM878.7 154.62C879.5 154.62 880.28 154.773 881.04 155.08L880.76 156.68L880.5 156.74C879.807 156.273 879.127 156.04 878.46 156.04C878.06 156.04 877.74 156.147 877.5 156.36C877.273 156.573 877.16 156.833 877.16 157.14C877.16 157.473 877.293 157.74 877.56 157.94C877.84 158.14 878.267 158.36 878.84 158.6C879.36 158.827 879.78 159.04 880.1 159.24C880.433 159.44 880.713 159.707 880.94 160.04C881.18 160.373 881.3 160.787 881.3 161.28C881.3 161.787 881.167 162.267 880.9 162.72C880.633 163.16 880.24 163.513 879.72 163.78C879.2 164.047 878.573 164.18 877.84 164.18C876.92 164.18 875.987 163.973 875.04 163.56L875.28 161.86L875.5 161.72C875.887 162.053 876.313 162.32 876.78 162.52C877.247 162.707 877.673 162.8 878.06 162.8C878.487 162.8 878.827 162.687 879.08 162.46C879.347 162.22 879.48 161.94 879.48 161.62C879.48 161.287 879.347 161.027 879.08 160.84C878.813 160.64 878.393 160.407 877.82 160.14C877.3 159.913 876.873 159.7 876.54 159.5C876.207 159.3 875.92 159.027 875.68 158.68C875.453 158.333 875.34 157.907 875.34 157.4C875.34 156.587 875.64 155.92 876.24 155.4C876.84 154.88 877.66 154.62 878.7 154.62ZM886.22 154.62C887.02 154.62 887.8 154.773 888.56 155.08L888.28 156.68L888.02 156.74C887.326 156.273 886.646 156.04 885.98 156.04C885.58 156.04 885.26 156.147 885.02 156.36C884.793 156.573 884.68 156.833 884.68 157.14C884.68 157.473 884.813 157.74 885.08 157.94C885.36 158.14 885.786 158.36 886.36 158.6C886.88 158.827 887.3 159.04 887.62 159.24C887.953 159.44 888.233 159.707 888.46 160.04C888.7 160.373 888.82 160.787 888.82 161.28C888.82 161.787 888.686 162.267 888.42 162.72C888.153 163.16 887.76 163.513 887.24 163.78C886.72 164.047 886.093 164.18 885.36 164.18C884.44 164.18 883.506 163.973 882.56 163.56L882.8 161.86L883.02 161.72C883.406 162.053 883.833 162.32 884.3 162.52C884.766 162.707 885.193 162.8 885.58 162.8C886.006 162.8 886.346 162.687 886.6 162.46C886.866 162.22 887 161.94 887 161.62C887 161.287 886.866 161.027 886.6 160.84C886.333 160.64 885.913 160.407 885.34 160.14C884.82 159.913 884.393 159.7 884.06 159.5C883.726 159.3 883.44 159.027 883.2 158.68C882.973 158.333 882.86 157.907 882.86 157.4C882.86 156.587 883.16 155.92 883.76 155.4C884.36 154.88 885.18 154.62 886.22 154.62ZM895.239 149.92C895.759 149.92 896.299 149.98 896.859 150.1L896.739 151.64L896.599 151.76C896.026 151.507 895.512 151.38 895.059 151.38C894.579 151.38 894.212 151.527 893.959 151.82C893.706 152.1 893.572 152.527 893.559 153.1L893.539 154.82H895.899L895.959 154.96L895.839 156.12H893.519L893.459 159.94L893.599 164H891.559L891.679 160.12L891.639 156.12H890.259L890.179 156L890.279 154.82H891.639L891.619 153.44C891.606 152.307 891.912 151.44 892.539 150.84C893.179 150.227 894.079 149.92 895.239 149.92ZM905.748 162.58L905.568 163.7C905.128 163.953 904.695 164.1 904.268 164.14C903.868 164.073 903.548 163.933 903.308 163.72C903.081 163.493 902.908 163.16 902.788 162.72H902.648C901.861 163.427 901.061 163.893 900.248 164.12C899.248 164.12 898.481 163.887 897.948 163.42C897.415 162.953 897.155 162.287 897.168 161.42L897.208 158.92L897.128 154.92L899.148 154.74L899.048 160.86C899.035 161.353 899.141 161.74 899.368 162.02C899.608 162.3 899.961 162.44 900.428 162.44C901.135 162.44 901.861 162.107 902.608 161.44V154.92L904.548 154.74L904.408 161.86C904.408 162.1 904.448 162.273 904.528 162.38C904.608 162.473 904.748 162.52 904.948 162.52C905.108 162.52 905.315 162.493 905.568 162.44L905.748 162.58ZM909.541 159.94L909.681 164H907.641L907.781 160.12L907.661 150.12L909.701 149.96L909.541 159.94ZM914.619 159.94L914.759 164H912.719L912.859 160.12L912.739 150.12L914.779 149.96L914.619 159.94ZM918.597 156.02L920.597 161.88H920.737L922.737 156.2L923.077 154.78H924.837L921.657 163.54C921.337 164.447 920.984 165.167 920.597 165.7C920.211 166.247 919.731 166.68 919.157 167C918.597 167.32 917.864 167.593 916.957 167.82H916.777C916.457 167.5 916.177 167.1 915.937 166.62L915.997 166.4C916.944 166.227 917.691 165.973 918.237 165.64C918.784 165.307 919.284 164.76 919.737 164L916.377 154.82L918.297 154.72L918.597 156.02ZM941.012 157.94C941.025 157.433 940.905 157.04 940.652 156.76C940.412 156.467 940.059 156.32 939.592 156.32C938.832 156.32 938.045 156.707 937.232 157.48L937.192 159.96L937.292 164H935.232L935.372 157.94C935.385 157.433 935.265 157.04 935.012 156.76C934.772 156.467 934.419 156.32 933.952 156.32C933.179 156.32 932.379 156.72 931.552 157.52L931.532 159.96L931.652 164H929.612L929.732 160.14L929.632 154.92L931.572 154.74L931.552 156.08H931.692C932.479 155.387 933.299 154.913 934.152 154.66C934.899 154.66 935.512 154.793 935.992 155.06C936.485 155.313 936.832 155.68 937.032 156.16H937.152C937.965 155.453 938.845 154.953 939.792 154.66C940.819 154.66 941.592 154.893 942.112 155.36C942.645 155.827 942.905 156.493 942.892 157.36L942.832 159.96L942.932 164H940.892L941.012 157.94ZM948.967 154.6C949.887 154.6 950.613 154.82 951.147 155.26C951.68 155.7 951.947 156.313 951.947 157.1C951.947 157.34 951.907 158.14 951.827 159.5C951.747 160.833 951.707 161.613 951.707 161.84C951.707 162.093 951.747 162.273 951.827 162.38C951.92 162.473 952.073 162.52 952.287 162.52C952.42 162.52 952.62 162.493 952.887 162.44L953.067 162.58L952.867 163.7C952.48 163.94 952.06 164.087 951.607 164.14C951.193 164.1 950.86 163.953 950.607 163.7C950.353 163.433 950.2 163.087 950.147 162.66H950.007C949.327 163.38 948.633 163.88 947.927 164.16C947.007 164.147 946.28 163.907 945.747 163.44C945.227 162.973 944.967 162.34 944.967 161.54C944.967 160.353 945.613 159.613 946.907 159.32L950.067 158.62L950.087 157.54C950.087 157.047 949.96 156.673 949.707 156.42C949.467 156.167 949.113 156.04 948.647 156.04C948.193 156.04 947.74 156.147 947.287 156.36C946.833 156.56 946.333 156.88 945.787 157.32L945.627 157.22L945.367 155.8C946.54 155 947.74 154.6 948.967 154.6ZM947.467 160.42C947.227 160.473 947.053 160.567 946.947 160.7C946.84 160.82 946.787 161.013 946.787 161.28C946.787 161.68 946.893 161.993 947.107 162.22C947.333 162.447 947.633 162.56 948.007 162.56C948.633 162.56 949.3 162.153 950.007 161.34L950.067 159.8L947.467 160.42ZM960.665 157.94C960.678 157.433 960.558 157.04 960.305 156.76C960.065 156.467 959.712 156.32 959.245 156.32C958.472 156.32 957.672 156.72 956.845 157.52L956.825 159.96L956.945 164H954.905L955.025 160.14L954.925 154.92L956.865 154.74L956.845 156.08H956.985C957.772 155.387 958.592 154.913 959.445 154.66C960.472 154.66 961.245 154.893 961.765 155.36C962.298 155.827 962.558 156.493 962.545 157.36L962.485 159.96L962.585 164H960.525L960.665 157.94ZM968.635 154.6C969.555 154.6 970.281 154.82 970.815 155.26C971.348 155.7 971.615 156.313 971.615 157.1C971.615 157.34 971.575 158.14 971.495 159.5C971.415 160.833 971.375 161.613 971.375 161.84C971.375 162.093 971.415 162.273 971.495 162.38C971.588 162.473 971.741 162.52 971.955 162.52C972.088 162.52 972.288 162.493 972.555 162.44L972.735 162.58L972.535 163.7C972.148 163.94 971.728 164.087 971.275 164.14C970.861 164.1 970.528 163.953 970.275 163.7C970.021 163.433 969.868 163.087 969.815 162.66H969.675C968.995 163.38 968.301 163.88 967.595 164.16C966.675 164.147 965.948 163.907 965.415 163.44C964.895 162.973 964.635 162.34 964.635 161.54C964.635 160.353 965.281 159.613 966.575 159.32L969.735 158.62L969.755 157.54C969.755 157.047 969.628 156.673 969.375 156.42C969.135 156.167 968.781 156.04 968.315 156.04C967.861 156.04 967.408 156.147 966.955 156.36C966.501 156.56 966.001 156.88 965.455 157.32L965.295 157.22L965.035 155.8C966.208 155 967.408 154.6 968.635 154.6ZM967.135 160.42C966.895 160.473 966.721 160.567 966.615 160.7C966.508 160.82 966.455 161.013 966.455 161.28C966.455 161.68 966.561 161.993 966.775 162.22C967.001 162.447 967.301 162.56 967.675 162.56C968.301 162.56 968.968 162.153 969.675 161.34L969.735 159.8L967.135 160.42ZM983.189 155.76C982.816 155.88 982.242 156.007 981.469 156.14L981.429 156.22C981.682 156.647 981.809 157.16 981.809 157.76C981.809 158.747 981.469 159.533 980.789 160.12C980.109 160.693 979.189 160.98 978.029 160.98C977.602 160.98 977.196 160.94 976.809 160.86C976.649 160.993 976.536 161.113 976.469 161.22C976.416 161.313 976.389 161.413 976.389 161.52C976.389 161.787 976.556 161.973 976.889 162.08C977.236 162.187 977.776 162.293 978.509 162.4C979.269 162.493 979.902 162.607 980.409 162.74C980.916 162.873 981.349 163.1 981.709 163.42C982.082 163.74 982.269 164.18 982.269 164.74C982.269 165.327 982.076 165.86 981.689 166.34C981.302 166.82 980.769 167.193 980.089 167.46C979.422 167.74 978.676 167.88 977.849 167.88C976.729 167.88 975.856 167.633 975.229 167.14C974.616 166.647 974.309 166 974.309 165.2C974.509 164.88 974.749 164.593 975.029 164.34C975.309 164.087 975.642 163.833 976.029 163.58V163.48C975.562 163.32 975.202 163.113 974.949 162.86C974.696 162.593 974.569 162.24 974.569 161.8C974.916 161.307 975.342 160.9 975.849 160.58V160.48C975.396 160.227 975.049 159.887 974.809 159.46C974.582 159.02 974.469 158.507 974.469 157.92C974.469 156.907 974.802 156.113 975.469 155.54C976.149 154.953 977.062 154.66 978.209 154.66C978.902 154.66 979.516 154.773 980.049 155C981.036 154.84 982.022 154.607 983.009 154.3L983.189 154.42V155.76ZM978.109 159.68C978.722 159.68 979.189 159.513 979.509 159.18C979.842 158.847 980.009 158.373 980.009 157.76C980.009 157.187 979.856 156.747 979.549 156.44C979.242 156.133 978.789 155.98 978.189 155.98C977.562 155.98 977.082 156.14 976.749 156.46C976.429 156.767 976.269 157.22 976.269 157.82C976.269 158.42 976.422 158.88 976.729 159.2C977.049 159.52 977.509 159.68 978.109 159.68ZM980.509 165.12C980.509 164.827 980.396 164.6 980.169 164.44C979.942 164.28 979.669 164.16 979.349 164.08C979.029 164.013 978.562 163.933 977.949 163.84C977.656 163.813 977.449 163.787 977.329 163.76C976.902 164.027 976.582 164.287 976.369 164.54C976.156 164.793 976.049 165.053 976.049 165.32C976.049 165.68 976.222 165.973 976.569 166.2C976.929 166.44 977.436 166.56 978.089 166.56C978.796 166.56 979.376 166.427 979.829 166.16C980.282 165.893 980.509 165.547 980.509 165.12ZM991.314 159.48L985.694 159.5C985.707 160.513 985.954 161.287 986.434 161.82C986.914 162.34 987.594 162.6 988.474 162.6C989.394 162.6 990.294 162.327 991.174 161.78L991.374 161.9L991.074 163.54C990.1 163.967 989.154 164.18 988.234 164.18C986.86 164.18 985.78 163.76 984.994 162.92C984.22 162.067 983.834 160.907 983.834 159.44C983.834 157.96 984.22 156.787 984.994 155.92C985.767 155.053 986.814 154.62 988.134 154.62C989.254 154.62 990.114 154.927 990.714 155.54C991.327 156.153 991.634 157.02 991.634 158.14C991.634 158.447 991.6 158.813 991.534 159.24L991.314 159.48ZM989.794 157.9C989.794 157.273 989.647 156.8 989.354 156.48C989.074 156.16 988.66 156 988.114 156C987.5 156 986.994 156.2 986.594 156.6C986.194 156.987 985.927 157.54 985.794 158.26L989.754 158.18L989.794 157.9ZM1000.33 154.6C1001.25 154.6 1001.98 154.82 1002.51 155.26C1003.05 155.7 1003.31 156.313 1003.31 157.1C1003.31 157.34 1003.27 158.14 1003.19 159.5C1003.11 160.833 1003.07 161.613 1003.07 161.84C1003.07 162.093 1003.11 162.273 1003.19 162.38C1003.29 162.473 1003.44 162.52 1003.65 162.52C1003.79 162.52 1003.99 162.493 1004.25 162.44L1004.43 162.58L1004.23 163.7C1003.85 163.94 1003.43 164.087 1002.97 164.14C1002.56 164.1 1002.23 163.953 1001.97 163.7C1001.72 163.433 1001.57 163.087 1001.51 162.66H1001.37C1000.69 163.38 1000 163.88 999.294 164.16C998.374 164.147 997.647 163.907 997.114 163.44C996.594 162.973 996.334 162.34 996.334 161.54C996.334 160.353 996.98 159.613 998.274 159.32L1001.43 158.62L1001.45 157.54C1001.45 157.047 1001.33 156.673 1001.07 156.42C1000.83 156.167 1000.48 156.04 1000.01 156.04C999.56 156.04 999.107 156.147 998.654 156.36C998.2 156.56 997.7 156.88 997.154 157.32L996.994 157.22L996.734 155.8C997.907 155 999.107 154.6 1000.33 154.6ZM998.834 160.42C998.594 160.473 998.42 160.567 998.314 160.7C998.207 160.82 998.154 161.013 998.154 161.28C998.154 161.68 998.26 161.993 998.474 162.22C998.7 162.447 999 162.56 999.374 162.56C1000 162.56 1000.67 162.153 1001.37 161.34L1001.43 159.8L998.834 160.42ZM836.96 181.6C837.387 181.6 837.82 181.647 838.26 181.74C838.7 181.833 839.087 181.96 839.42 182.12L839.08 183.82L838.88 183.9C838.173 183.487 837.52 183.28 836.92 183.28C836.213 183.28 835.66 183.547 835.26 184.08C834.86 184.613 834.66 185.36 834.66 186.32C834.66 187.347 834.867 188.147 835.28 188.72C835.693 189.28 836.28 189.56 837.04 189.56C837.707 189.56 838.42 189.36 839.18 188.96L839.36 189.08L839.16 190.72C838.347 191.027 837.533 191.18 836.72 191.18C835.467 191.18 834.487 190.767 833.78 189.94C833.087 189.1 832.74 187.947 832.74 186.48C832.74 184.96 833.113 183.767 833.86 182.9C834.607 182.033 835.64 181.6 836.96 181.6ZM846.936 184.94C846.95 184.433 846.83 184.04 846.576 183.76C846.336 183.467 845.983 183.32 845.516 183.32C844.756 183.32 843.956 183.72 843.116 184.52L843.076 186.94L843.216 191H841.176L841.316 187.12L841.196 177.12L843.236 176.96L843.136 183.08H843.256C844.043 182.387 844.863 181.913 845.716 181.66C846.743 181.66 847.516 181.893 848.036 182.36C848.57 182.827 848.83 183.493 848.816 184.36L848.776 186.96L848.856 191H846.816L846.936 184.94ZM856.048 181.76C856.194 181.76 856.361 181.773 856.548 181.8V183.74L856.328 183.8C856.114 183.733 855.868 183.7 855.588 183.7C855.174 183.7 854.788 183.853 854.428 184.16C854.068 184.467 853.721 184.96 853.388 185.64L853.368 186.96L853.488 191H851.448L851.588 187.14L851.468 181.92L853.408 181.74L853.388 183.58H853.528C853.888 182.94 854.288 182.48 854.728 182.2C855.168 181.907 855.608 181.76 856.048 181.76ZM861.728 181.6C863.021 181.6 864.014 182.007 864.708 182.82C865.414 183.62 865.768 184.76 865.768 186.24C865.768 187.827 865.394 189.047 864.648 189.9C863.901 190.753 862.841 191.18 861.468 191.18C860.174 191.18 859.174 190.78 858.468 189.98C857.774 189.167 857.428 188.02 857.428 186.54C857.428 184.953 857.801 183.733 858.548 182.88C859.294 182.027 860.354 181.6 861.728 181.6ZM861.608 183.02C860.088 183.02 859.327 184.047 859.327 186.1C859.327 187.353 859.514 188.28 859.888 188.88C860.261 189.48 860.834 189.78 861.608 189.78C862.368 189.78 862.934 189.527 863.308 189.02C863.681 188.513 863.868 187.74 863.868 186.7C863.868 185.447 863.681 184.52 863.308 183.92C862.934 183.32 862.368 183.02 861.608 183.02ZM873.575 184.94C873.588 184.433 873.468 184.04 873.215 183.76C872.975 183.467 872.622 183.32 872.155 183.32C871.382 183.32 870.582 183.72 869.755 184.52L869.735 186.96L869.855 191H867.815L867.935 187.14L867.835 181.92L869.775 181.74L869.755 183.08H869.895C870.682 182.387 871.502 181.913 872.355 181.66C873.382 181.66 874.155 181.893 874.675 182.36C875.208 182.827 875.468 183.493 875.455 184.36L875.395 186.96L875.495 191H873.435L873.575 184.94ZM878.365 187.14L878.305 181.92L880.305 181.74L880.225 186.96L880.285 191H878.285L878.365 187.14ZM879.325 177.48C879.658 177.48 879.918 177.58 880.105 177.78C880.291 177.967 880.385 178.233 880.385 178.58C880.385 178.94 880.285 179.227 880.085 179.44C879.885 179.653 879.611 179.76 879.265 179.76C878.918 179.76 878.645 179.66 878.445 179.46C878.258 179.26 878.165 178.987 878.165 178.64C878.165 178.293 878.265 178.013 878.465 177.8C878.678 177.587 878.965 177.48 879.325 177.48ZM886.765 181.6C887.191 181.6 887.625 181.647 888.065 181.74C888.505 181.833 888.891 181.96 889.225 182.12L888.885 183.82L888.685 183.9C887.978 183.487 887.325 183.28 886.725 183.28C886.018 183.28 885.465 183.547 885.065 184.08C884.665 184.613 884.465 185.36 884.465 186.32C884.465 187.347 884.671 188.147 885.085 188.72C885.498 189.28 886.085 189.56 886.845 189.56C887.511 189.56 888.225 189.36 888.985 188.96L889.165 189.08L888.965 190.72C888.151 191.027 887.338 191.18 886.525 191.18C885.271 191.18 884.291 190.767 883.585 189.94C882.891 189.1 882.545 187.947 882.545 186.48C882.545 184.96 882.918 183.767 883.665 182.9C884.411 182.033 885.445 181.6 886.765 181.6ZM894.263 187.14L894.203 181.92L896.203 181.74L896.123 186.96L896.183 191H894.183L894.263 187.14ZM895.223 177.48C895.556 177.48 895.816 177.58 896.003 177.78C896.19 177.967 896.283 178.233 896.283 178.58C896.283 178.94 896.183 179.227 895.983 179.44C895.783 179.653 895.51 179.76 895.163 179.76C894.816 179.76 894.543 179.66 894.343 179.46C894.156 179.26 894.063 178.987 894.063 178.64C894.063 178.293 894.163 178.013 894.363 177.8C894.576 177.587 894.863 177.48 895.223 177.48ZM901.123 186.94L901.263 191H899.223L899.363 187.12L899.243 177.12L901.283 176.96L901.123 186.94ZM906.201 186.94L906.341 191H904.301L904.441 187.12L904.321 177.12L906.361 176.96L906.201 186.94ZM915.059 184.94C915.073 184.433 914.953 184.04 914.699 183.76C914.459 183.467 914.106 183.32 913.639 183.32C912.866 183.32 912.066 183.72 911.239 184.52L911.219 186.96L911.339 191H909.299L909.419 187.14L909.319 181.92L911.259 181.74L911.239 183.08H911.379C912.166 182.387 912.986 181.913 913.839 181.66C914.866 181.66 915.639 181.893 916.159 182.36C916.693 182.827 916.953 183.493 916.939 184.36L916.879 186.96L916.979 191H914.919L915.059 184.94ZM926.509 186.48L920.889 186.5C920.902 187.513 921.149 188.287 921.629 188.82C922.109 189.34 922.789 189.6 923.669 189.6C924.589 189.6 925.489 189.327 926.369 188.78L926.569 188.9L926.269 190.54C925.296 190.967 924.349 191.18 923.429 191.18C922.056 191.18 920.976 190.76 920.189 189.92C919.416 189.067 919.029 187.907 919.029 186.44C919.029 184.96 919.416 183.787 920.189 182.92C920.962 182.053 922.009 181.62 923.329 181.62C924.449 181.62 925.309 181.927 925.909 182.54C926.522 183.153 926.829 184.02 926.829 185.14C926.829 185.447 926.796 185.813 926.729 186.24L926.509 186.48ZM924.989 184.9C924.989 184.273 924.842 183.8 924.549 183.48C924.269 183.16 923.856 183 923.309 183C922.696 183 922.189 183.2 921.789 183.6C921.389 183.987 921.122 184.54 920.989 185.26L924.949 185.18L924.989 184.9ZM931.786 181.62C932.586 181.62 933.366 181.773 934.126 182.08L933.846 183.68L933.586 183.74C932.893 183.273 932.213 183.04 931.546 183.04C931.146 183.04 930.826 183.147 930.586 183.36C930.359 183.573 930.246 183.833 930.246 184.14C930.246 184.473 930.379 184.74 930.646 184.94C930.926 185.14 931.353 185.36 931.926 185.6C932.446 185.827 932.866 186.04 933.186 186.24C933.519 186.44 933.799 186.707 934.026 187.04C934.266 187.373 934.386 187.787 934.386 188.28C934.386 188.787 934.253 189.267 933.986 189.72C933.719 190.16 933.326 190.513 932.806 190.78C932.286 191.047 931.659 191.18 930.926 191.18C930.006 191.18 929.073 190.973 928.126 190.56L928.366 188.86L928.586 188.72C928.973 189.053 929.399 189.32 929.866 189.52C930.333 189.707 930.759 189.8 931.146 189.8C931.573 189.8 931.913 189.687 932.166 189.46C932.433 189.22 932.566 188.94 932.566 188.62C932.566 188.287 932.433 188.027 932.166 187.84C931.899 187.64 931.479 187.407 930.906 187.14C930.386 186.913 929.959 186.7 929.626 186.5C929.293 186.3 929.006 186.027 928.766 185.68C928.539 185.333 928.426 184.907 928.426 184.4C928.426 183.587 928.726 182.92 929.326 182.4C929.926 181.88 930.746 181.62 931.786 181.62ZM939.305 181.62C940.105 181.62 940.885 181.773 941.645 182.08L941.365 183.68L941.105 183.74C940.412 183.273 939.732 183.04 939.065 183.04C938.665 183.04 938.345 183.147 938.105 183.36C937.879 183.573 937.765 183.833 937.765 184.14C937.765 184.473 937.899 184.74 938.165 184.94C938.445 185.14 938.872 185.36 939.445 185.6C939.965 185.827 940.385 186.04 940.705 186.24C941.039 186.44 941.319 186.707 941.545 187.04C941.785 187.373 941.905 187.787 941.905 188.28C941.905 188.787 941.772 189.267 941.505 189.72C941.239 190.16 940.845 190.513 940.325 190.78C939.805 191.047 939.179 191.18 938.445 191.18C937.525 191.18 936.592 190.973 935.645 190.56L935.885 188.86L936.105 188.72C936.492 189.053 936.919 189.32 937.385 189.52C937.852 189.707 938.279 189.8 938.665 189.8C939.092 189.8 939.432 189.687 939.685 189.46C939.952 189.22 940.085 188.94 940.085 188.62C940.085 188.287 939.952 188.027 939.685 187.84C939.419 187.64 938.999 187.407 938.425 187.14C937.905 186.913 937.479 186.7 937.145 186.5C936.812 186.3 936.525 186.027 936.285 185.68C936.059 185.333 935.945 184.907 935.945 184.4C935.945 183.587 936.245 182.92 936.845 182.4C937.445 181.88 938.265 181.62 939.305 181.62ZM944.652 188.84C944.985 188.84 945.245 188.94 945.432 189.14C945.619 189.327 945.712 189.593 945.712 189.94C945.712 190.3 945.612 190.587 945.412 190.8C945.212 191.013 944.939 191.12 944.592 191.12C944.245 191.12 943.972 191.02 943.772 190.82C943.585 190.62 943.492 190.347 943.492 190C943.492 189.653 943.592 189.373 943.792 189.16C944.005 188.947 944.292 188.84 944.652 188.84Z" fill="#333333"/>
</svg>
