<svg width="1061" height="350" viewBox="0 0 1061 350" fill="none" xmlns="http://www.w3.org/2000/svg">
<rect x="0.5" y="0.5" width="1060" height="349" fill="#FAFAFA" stroke="#CFCFCF"/>
<path d="M167 148C483.715 148 661.285 148 978 148" stroke="#ECECEC" stroke-width="4"/>
<path d="M40 35V314C427.791 314 645.209 314 1033 314" stroke="#BDBDBD" stroke-width="2"/>
<path d="M62.412 238H64.656V225.218H69.738V223.326H57.374V225.218H62.412V238ZM71.6455 238H73.8235V231.598C74.4835 230.938 75.9135 229.684 77.0135 229.684C77.7615 229.684 78.2015 230.212 78.2015 231.62V238H80.3795V230.828C80.3795 228.694 79.3015 227.792 77.7175 227.792C75.8915 227.792 74.4835 229.024 73.8235 229.728V222.27L71.6455 222.622V238ZM84.4545 225.68C85.2465 225.68 85.8405 225.108 85.8405 224.338C85.8405 223.568 85.2465 222.996 84.4545 222.996C83.6845 222.996 83.0905 223.568 83.0905 224.338C83.0905 225.108 83.6845 225.68 84.4545 225.68ZM83.3545 238H85.5325V228.056H83.3545V238ZM88.5956 238H90.7736V231.554C91.4556 230.894 92.8636 229.684 93.9636 229.684C94.7116 229.684 95.1516 230.212 95.1516 231.62V238H97.3296V230.828C97.3296 228.694 96.2516 227.792 94.6896 227.792C92.8636 227.792 91.4336 229.002 90.7296 229.772V227.88L88.5956 228.232V238ZM100.306 238H102.484V233.292H102.792L106.752 238H109.546L104.706 232.412L109.238 228.056H106.4L102.792 231.686H102.484V222.27L100.306 222.622V238ZM112.277 225.68C113.069 225.68 113.663 225.108 113.663 224.338C113.663 223.568 113.069 222.996 112.277 222.996C111.507 222.996 110.913 223.568 110.913 224.338C110.913 225.108 111.507 225.68 112.277 225.68ZM111.177 238H113.355V228.056H111.177V238ZM116.418 238H118.596V231.554C119.278 230.894 120.686 229.684 121.786 229.684C122.534 229.684 122.974 230.212 122.974 231.62V238H125.152V230.828C125.152 228.694 124.074 227.792 122.512 227.792C120.686 227.792 119.256 229.002 118.552 229.772V227.88L116.418 228.232V238ZM128.062 236.24C128.062 236.922 128.7 237.318 129.69 237.648C128.634 238.198 127.16 239.144 127.16 240.596C127.16 242.334 129.316 243.214 131.516 243.214C134.508 243.214 136.95 241.52 136.95 239.518C136.95 237.692 134.948 237.142 133.188 236.702C131.12 236.196 130.152 235.998 130.152 235.602C130.152 235.36 130.504 235.096 130.966 234.788C131.186 234.832 131.428 234.832 131.692 234.832C133.826 234.832 136.092 233.666 136.092 231.488C136.092 230.608 135.674 230.014 135.366 229.662C135.63 229.706 135.938 229.728 136.18 229.728H137.368L137.214 227.99C137.214 227.99 136.554 228.21 135.894 228.21H134.75C133.65 228.21 133.078 227.792 131.868 227.792C129.646 227.792 127.644 229.046 127.644 231.268C127.644 232.61 128.37 233.776 129.624 234.392C128.81 234.854 128.062 235.514 128.062 236.24ZM131.934 238.22C133.782 238.704 134.816 238.99 134.816 239.848C134.816 240.838 133.408 241.63 131.648 241.63C130.394 241.63 129.118 241.234 129.118 240.244C129.118 239.254 130.328 238.594 131.274 238.066C131.494 238.11 131.714 238.154 131.934 238.22ZM131.846 233.292C130.438 233.292 129.778 232.28 129.778 231.334C129.778 230.3 130.526 229.332 131.846 229.332C133.254 229.332 133.936 230.476 133.936 231.444C133.936 232.566 133.056 233.292 131.846 233.292Z" fill="#333333"/>
<path d="M59.002 148H61.268V141.62H66.438V139.662H61.268V135.218H67.802V133.326H59.002V148ZM68.5363 143.182C68.5363 145.844 70.2303 148.264 73.5523 148.264C76.0383 148.264 77.5563 146.834 77.5563 146.834L76.9403 145.25C76.9403 145.25 75.5543 146.482 73.8823 146.482C72.1443 146.482 71.0443 145.316 70.8023 143.512L76.2363 142.786L77.4903 142.434C77.4903 139.42 75.7743 137.792 73.3983 137.792C70.4943 137.792 68.5363 140.146 68.5363 143.182ZM73.2443 139.486C74.9823 139.486 75.1143 141.51 75.1143 141.51L70.8023 142.06C71.0003 140.608 71.8363 139.486 73.2443 139.486ZM79.3214 143.182C79.3214 145.844 81.0154 148.264 84.3374 148.264C86.8234 148.264 88.3414 146.834 88.3414 146.834L87.7254 145.25C87.7254 145.25 86.3394 146.482 84.6674 146.482C82.9294 146.482 81.8294 145.316 81.5874 143.512L87.0214 142.786L88.2754 142.434C88.2754 139.42 86.5594 137.792 84.1834 137.792C81.2794 137.792 79.3214 140.146 79.3214 143.182ZM84.0294 139.486C85.7674 139.486 85.8994 141.51 85.8994 141.51L81.5874 142.06C81.7854 140.608 82.6214 139.486 84.0294 139.486ZM90.7666 148H92.9446V132.27L90.7666 132.622V148ZM97.1517 135.68C97.9437 135.68 98.5377 135.108 98.5377 134.338C98.5377 133.568 97.9437 132.996 97.1517 132.996C96.3817 132.996 95.7877 133.568 95.7877 134.338C95.7877 135.108 96.3817 135.68 97.1517 135.68ZM96.0517 148H98.2297V138.056H96.0517V148ZM101.293 148H103.471V141.554C104.153 140.894 105.561 139.684 106.661 139.684C107.409 139.684 107.849 140.212 107.849 141.62V148H110.027V140.828C110.027 138.694 108.949 137.792 107.387 137.792C105.561 137.792 104.131 139.002 103.427 139.772V137.88L101.293 138.232V148ZM112.937 146.24C112.937 146.922 113.575 147.318 114.565 147.648C113.509 148.198 112.035 149.144 112.035 150.596C112.035 152.334 114.191 153.214 116.391 153.214C119.383 153.214 121.825 151.52 121.825 149.518C121.825 147.692 119.823 147.142 118.063 146.702C115.995 146.196 115.027 145.998 115.027 145.602C115.027 145.36 115.379 145.096 115.841 144.788C116.061 144.832 116.303 144.832 116.567 144.832C118.701 144.832 120.967 143.666 120.967 141.488C120.967 140.608 120.549 140.014 120.241 139.662C120.505 139.706 120.813 139.728 121.055 139.728H122.243L122.089 137.99C122.089 137.99 121.429 138.21 120.769 138.21H119.625C118.525 138.21 117.953 137.792 116.743 137.792C114.521 137.792 112.519 139.046 112.519 141.268C112.519 142.61 113.245 143.776 114.499 144.392C113.685 144.854 112.937 145.514 112.937 146.24ZM116.809 148.22C118.657 148.704 119.691 148.99 119.691 149.848C119.691 150.838 118.283 151.63 116.523 151.63C115.269 151.63 113.993 151.234 113.993 150.244C113.993 149.254 115.203 148.594 116.149 148.066C116.369 148.11 116.589 148.154 116.809 148.22ZM116.721 143.292C115.313 143.292 114.653 142.28 114.653 141.334C114.653 140.3 115.401 139.332 116.721 139.332C118.129 139.332 118.811 140.476 118.811 141.444C118.811 142.566 117.931 143.292 116.721 143.292Z" fill="#333333"/>
<path d="M167.616 110.226H171.906V115H173.578V110.226H177.802V108.642H173.578V104.176H171.906V108.642H167.616V110.226Z" fill="#2D9CDB"/>
<path d="M169.188 180.292H174.556V178.62H169.188V180.292Z" fill="#2D9CDB"/>
<path d="M182 147C193 133.333 228.478 109.169 244.5 106.499C268.5 102.5 275.5 113.284 294 127.999C316 145.499 350.482 156.755 389.5 165.998C427.5 175 426.5 175.999 473 183.998C495.5 187.869 507.5 177.997 519.5 165.998C534.5 150.999 550.5 143.998 564 142.498C577.5 140.998 604.5 160.5 623 175.499C641.5 190.498 668.5 178.002 680.5 171.5C688.589 167.117 720.5 148 732 142.498C741 139.5 756.308 127.329 787 136.999C823.5 148.5 820.5 150.5 840.5 150.5C860.5 150.5 871.572 148.746 894 136.999C915 126 938 92.5009 956.5 92.5" stroke="#2F80ED" stroke-width="2" stroke-linecap="round"/>
<path d="M57.968 72.032C57.968 72.032 59.728 73.264 62.324 73.264C65.03 73.264 67.274 71.834 67.274 69.216C67.274 64.574 60.498 64.882 60.498 61.824C60.498 60.658 61.642 60.042 63.094 60.042C64.832 60.042 66.504 60.79 66.504 60.79L66.966 58.722C66.966 58.722 65.096 58.062 63.116 58.062C59.992 58.062 58.21 59.866 58.21 62.066C58.21 66.51 64.986 66.378 64.986 69.392C64.986 70.624 63.754 71.284 62.346 71.284C60.234 71.284 58.606 69.964 58.606 69.964L57.968 72.032ZM70.0465 70.294C70.0465 72.34 71.1685 73.264 72.8845 73.264C74.6445 73.264 75.9425 72.208 75.9425 72.208L75.3925 70.558C75.1285 70.712 74.2045 71.438 73.3685 71.438C72.6425 71.438 72.2245 70.954 72.2245 69.744V64.706H75.3705V63.056H72.2245V60.24L70.0905 60.702V62.968L68.5725 63.518V64.706H70.0465V70.294ZM76.997 70.712C76.997 72.186 78.119 73.264 79.857 73.264C81.793 73.264 82.805 72.032 83.069 71.614C83.355 72.406 83.993 73.044 85.511 73.154L86.171 71.438C86.171 71.438 85.071 71.416 85.071 70.184V65.982C85.071 63.76 84.323 62.792 81.969 62.792C79.351 62.792 77.657 64.046 77.657 64.046L78.229 65.674C78.229 65.674 79.747 64.53 81.375 64.53C82.981 64.53 82.893 65.63 82.893 66.884C79.175 67.368 76.997 68.622 76.997 70.712ZM80.407 71.548C79.769 71.548 79.241 71.262 79.241 70.558C79.241 69.392 80.363 68.666 82.893 68.292V70.008C82.233 70.778 81.419 71.548 80.407 71.548ZM88.2943 71.24C88.2943 71.922 88.9323 72.318 89.9223 72.648C88.8663 73.198 87.3923 74.144 87.3923 75.596C87.3923 77.334 89.5483 78.214 91.7483 78.214C94.7403 78.214 97.1823 76.52 97.1823 74.518C97.1823 72.692 95.1803 72.142 93.4203 71.702C91.3523 71.196 90.3843 70.998 90.3843 70.602C90.3843 70.36 90.7363 70.096 91.1983 69.788C91.4183 69.832 91.6603 69.832 91.9243 69.832C94.0583 69.832 96.3243 68.666 96.3243 66.488C96.3243 65.608 95.9063 65.014 95.5983 64.662C95.8623 64.706 96.1703 64.728 96.4123 64.728H97.6003L97.4463 62.99C97.4463 62.99 96.7863 63.21 96.1263 63.21H94.9823C93.8823 63.21 93.3103 62.792 92.1003 62.792C89.8783 62.792 87.8763 64.046 87.8763 66.268C87.8763 67.61 88.6023 68.776 89.8563 69.392C89.0423 69.854 88.2943 70.514 88.2943 71.24ZM92.1663 73.22C94.0143 73.704 95.0483 73.99 95.0483 74.848C95.0483 75.838 93.6403 76.63 91.8803 76.63C90.6263 76.63 89.3503 76.234 89.3503 75.244C89.3503 74.254 90.5603 73.594 91.5063 73.066C91.7263 73.11 91.9463 73.154 92.1663 73.22ZM92.0783 68.292C90.6703 68.292 90.0103 67.28 90.0103 66.334C90.0103 65.3 90.7583 64.332 92.0783 64.332C93.4863 64.332 94.1683 65.476 94.1683 66.444C94.1683 67.566 93.2883 68.292 92.0783 68.292ZM98.8292 68.182C98.8292 70.844 100.523 73.264 103.845 73.264C106.331 73.264 107.849 71.834 107.849 71.834L107.233 70.25C107.233 70.25 105.847 71.482 104.175 71.482C102.437 71.482 101.337 70.316 101.095 68.512L106.529 67.786L107.783 67.434C107.783 64.42 106.067 62.792 103.691 62.792C100.787 62.792 98.8292 65.146 98.8292 68.182ZM103.537 64.486C105.275 64.486 105.407 66.51 105.407 66.51L101.095 67.06C101.293 65.608 102.129 64.486 103.537 64.486ZM109.57 72.384C109.57 72.384 110.802 73.264 112.87 73.264C115.312 73.264 116.742 72.054 116.742 70.25C116.742 67.082 111.968 67.236 111.968 65.498C111.968 64.926 112.452 64.508 113.552 64.508C114.828 64.508 115.972 65.124 115.972 65.124L116.478 63.342C116.478 63.342 115.378 62.792 113.64 62.792C110.89 62.792 109.79 64.134 109.79 65.674C109.79 68.798 114.564 68.666 114.564 70.448C114.564 71.086 114.014 71.548 112.848 71.548C111.242 71.548 110.032 70.536 110.032 70.536L109.57 72.384Z" fill="#333333"/>
<path d="M59.002 282H62.962C68.242 282 71.916 279.36 71.916 274.432C71.916 269.218 67.78 267.326 63.798 267.326H59.002V282ZM61.268 280.108V269.218H63.49C67.472 269.218 69.518 271.352 69.518 274.608C69.518 277.666 67.692 280.108 62.742 280.108H61.268ZM73.692 277.072C73.692 279.712 75.474 282.264 78.774 282.264C82.36 282.264 83.944 279.25 83.944 276.83C83.944 274.278 82.162 271.792 78.862 271.792C75.298 271.792 73.692 274.586 73.692 277.072ZM75.958 276.874C75.958 274.894 77.124 273.53 78.818 273.53C80.842 273.53 81.678 275.356 81.678 277.116C81.678 279.118 80.512 280.526 78.84 280.526C76.86 280.526 75.958 278.722 75.958 276.874ZM87.4408 269.68C88.2328 269.68 88.8268 269.108 88.8268 268.338C88.8268 267.568 88.2328 266.996 87.4408 266.996C86.6708 266.996 86.0768 267.568 86.0768 268.338C86.0768 269.108 86.6708 269.68 87.4408 269.68ZM86.3408 282H88.5188V272.056H86.3408V282ZM91.5819 282H93.7599V275.554C94.4419 274.894 95.8499 273.684 96.9499 273.684C97.6979 273.684 98.1379 274.212 98.1379 275.62V282H100.316V274.828C100.316 272.694 99.2379 271.792 97.6759 271.792C95.8499 271.792 94.4199 273.002 93.7159 273.772V271.88L91.5819 272.232V282ZM103.226 280.24C103.226 280.922 103.864 281.318 104.854 281.648C103.798 282.198 102.324 283.144 102.324 284.596C102.324 286.334 104.48 287.214 106.68 287.214C109.672 287.214 112.114 285.52 112.114 283.518C112.114 281.692 110.112 281.142 108.352 280.702C106.284 280.196 105.316 279.998 105.316 279.602C105.316 279.36 105.668 279.096 106.13 278.788C106.35 278.832 106.592 278.832 106.856 278.832C108.99 278.832 111.256 277.666 111.256 275.488C111.256 274.608 110.838 274.014 110.53 273.662C110.794 273.706 111.102 273.728 111.344 273.728H112.532L112.378 271.99C112.378 271.99 111.718 272.21 111.058 272.21H109.914C108.814 272.21 108.242 271.792 107.032 271.792C104.81 271.792 102.808 273.046 102.808 275.268C102.808 276.61 103.534 277.776 104.788 278.392C103.974 278.854 103.226 279.514 103.226 280.24ZM107.098 282.22C108.946 282.704 109.98 282.99 109.98 283.848C109.98 284.838 108.572 285.63 106.812 285.63C105.558 285.63 104.282 285.234 104.282 284.244C104.282 283.254 105.492 282.594 106.438 282.066C106.658 282.11 106.878 282.154 107.098 282.22ZM107.01 277.292C105.602 277.292 104.942 276.28 104.942 275.334C104.942 274.3 105.69 273.332 107.01 273.332C108.418 273.332 109.1 274.476 109.1 275.444C109.1 276.566 108.22 277.292 107.01 277.292Z" fill="#333333"/>
<rect x="167.5" y="258.5" width="44" height="39" fill="#EFE8DF" stroke="#828282"/>
<rect x="604.5" y="258.5" width="44" height="39" fill="#EFE8DF" stroke="#828282"/>
<rect x="386.5" y="258.5" width="44" height="39" fill="#EFE8DF" stroke="#828282"/>
<rect x="824.5" y="258.5" width="44" height="39" fill="#EFE8DF" stroke="#828282"/>
<rect x="222.5" y="258.5" width="44" height="39" fill="#EFE8DF" stroke="#828282"/>
<rect x="659.5" y="258.5" width="44" height="39" fill="#EFE8DF" stroke="#828282"/>
<rect x="441.5" y="258.5" width="44" height="39" fill="#EFE8DF" stroke="#828282"/>
<rect x="879.5" y="258.5" width="44" height="39" fill="#EFE8DF" stroke="#828282"/>
<rect x="331.5" y="258.5" width="44" height="39" fill="#EFE8DF" stroke="#828282"/>
<rect x="768.5" y="258.5" width="44" height="39" fill="#EFE8DF" stroke="#828282"/>
<rect x="550.5" y="258.5" width="44" height="39" fill="#EFE8DF" stroke="#828282"/>
<rect x="276.5" y="258.5" width="44" height="39" fill="#EFE8DF" stroke="#828282"/>
<rect x="713.5" y="258.5" width="44" height="39" fill="#EFE8DF" stroke="#828282"/>
<rect x="495.5" y="258.5" width="44" height="39" fill="#EFE8DF" stroke="#828282"/>
<rect x="933.5" y="258.5" width="44" height="39" fill="#EFE8DF" stroke="#828282"/>
<rect x="167.5" y="212.5" width="44" height="39" fill="#D9DFE9" stroke="#828282"/>
<rect x="604.5" y="212.5" width="44" height="39" fill="#D9DFE9" stroke="#828282"/>
<rect x="386.5" y="212.5" width="44" height="39" fill="#D9DFE9" stroke="#828282"/>
<rect x="824.5" y="212.5" width="44" height="39" fill="#D9DFE9" stroke="#828282"/>
<rect x="222.5" y="212.5" width="44" height="39" fill="#D9DFE9" stroke="#828282"/>
<rect x="659.5" y="212.5" width="44" height="39" fill="#D9DFE9" stroke="#828282"/>
<rect x="441.5" y="212.5" width="44" height="39" fill="#D9DFE9" stroke="#828282"/>
<rect x="879.5" y="212.5" width="44" height="39" fill="#D9DFE9" stroke="#828282"/>
<rect x="331.5" y="212.5" width="44" height="39" fill="#D9DFE9" stroke="#828282"/>
<rect x="768.5" y="212.5" width="44" height="39" fill="#D9DFE9" stroke="#828282"/>
<rect x="550.5" y="212.5" width="44" height="39" fill="#D9DFE9" stroke="#828282"/>
<rect x="276.5" y="212.5" width="44" height="39" fill="#D9DFE9" stroke="#828282"/>
<rect x="713.5" y="212.5" width="44" height="39" fill="#D9DFE9" stroke="#828282"/>
<rect x="495.5" y="212.5" width="44" height="39" fill="#D9DFE9" stroke="#828282"/>
<rect x="933.5" y="212.5" width="44" height="39" fill="#D9DFE9" stroke="#828282"/>
<rect x="167.5" y="56.5" width="208" height="21" fill="#D9DFE9" stroke="#828282"/>
<rect x="386.5" y="56.5" width="99" height="21" fill="#D9DFE9" stroke="#828282"/>
<rect x="496.5" y="56.5" width="152" height="21" fill="#D9DFE9" stroke="#828282"/>
<rect x="659.5" y="56.5" width="153" height="21" fill="#D9DFE9" stroke="#828282"/>
<rect x="824.5" y="56.5" width="153" height="21" fill="#D9DFE9" stroke="#828282"/>
</svg>
