<svg width="1061" height="374" viewBox="0 0 1061 374" fill="none" xmlns="http://www.w3.org/2000/svg">
<rect x="1" y="1" width="1059" height="372" fill="#FAFAFA" stroke="#BDBDBD" stroke-width="2"/>
<path d="M175 160C427.279 160 568.721 160 821 160" stroke="#ECECEC" stroke-width="4"/>
<path d="M48 47V326C425.246 326 636.754 326 1014 326" stroke="#BDBDBD" stroke-width="2"/>
<path d="M70.412 250H72.656V237.218H77.738V235.326H65.374V237.218H70.412V250ZM79.6455 250H81.8235V243.598C82.4835 242.938 83.9135 241.684 85.0135 241.684C85.7615 241.684 86.2015 242.212 86.2015 243.62V250H88.3795V242.828C88.3795 240.694 87.3015 239.792 85.7175 239.792C83.8915 239.792 82.4835 241.024 81.8235 241.728V234.27L79.6455 234.622V250ZM92.4545 237.68C93.2465 237.68 93.8405 237.108 93.8405 236.338C93.8405 235.568 93.2465 234.996 92.4545 234.996C91.6845 234.996 91.0905 235.568 91.0905 236.338C91.0905 237.108 91.6845 237.68 92.4545 237.68ZM91.3545 250H93.5325V240.056H91.3545V250ZM96.5956 250H98.7736V243.554C99.4556 242.894 100.864 241.684 101.964 241.684C102.712 241.684 103.152 242.212 103.152 243.62V250H105.33V242.828C105.33 240.694 104.252 239.792 102.69 239.792C100.864 239.792 99.4336 241.002 98.7296 241.772V239.88L96.5956 240.232V250ZM108.306 250H110.484V245.292H110.792L114.752 250H117.546L112.706 244.412L117.238 240.056H114.4L110.792 243.686H110.484V234.27L108.306 234.622V250ZM120.277 237.68C121.069 237.68 121.663 237.108 121.663 236.338C121.663 235.568 121.069 234.996 120.277 234.996C119.507 234.996 118.913 235.568 118.913 236.338C118.913 237.108 119.507 237.68 120.277 237.68ZM119.177 250H121.355V240.056H119.177V250ZM124.418 250H126.596V243.554C127.278 242.894 128.686 241.684 129.786 241.684C130.534 241.684 130.974 242.212 130.974 243.62V250H133.152V242.828C133.152 240.694 132.074 239.792 130.512 239.792C128.686 239.792 127.256 241.002 126.552 241.772V239.88L124.418 240.232V250ZM136.062 248.24C136.062 248.922 136.7 249.318 137.69 249.648C136.634 250.198 135.16 251.144 135.16 252.596C135.16 254.334 137.316 255.214 139.516 255.214C142.508 255.214 144.95 253.52 144.95 251.518C144.95 249.692 142.948 249.142 141.188 248.702C139.12 248.196 138.152 247.998 138.152 247.602C138.152 247.36 138.504 247.096 138.966 246.788C139.186 246.832 139.428 246.832 139.692 246.832C141.826 246.832 144.092 245.666 144.092 243.488C144.092 242.608 143.674 242.014 143.366 241.662C143.63 241.706 143.938 241.728 144.18 241.728H145.368L145.214 239.99C145.214 239.99 144.554 240.21 143.894 240.21H142.75C141.65 240.21 141.078 239.792 139.868 239.792C137.646 239.792 135.644 241.046 135.644 243.268C135.644 244.61 136.37 245.776 137.624 246.392C136.81 246.854 136.062 247.514 136.062 248.24ZM139.934 250.22C141.782 250.704 142.816 250.99 142.816 251.848C142.816 252.838 141.408 253.63 139.648 253.63C138.394 253.63 137.118 253.234 137.118 252.244C137.118 251.254 138.328 250.594 139.274 250.066C139.494 250.11 139.714 250.154 139.934 250.22ZM139.846 245.292C138.438 245.292 137.778 244.28 137.778 243.334C137.778 242.3 138.526 241.332 139.846 241.332C141.254 241.332 141.936 242.476 141.936 243.444C141.936 244.566 141.056 245.292 139.846 245.292Z" fill="#333333"/>
<path d="M67.002 160H69.268V153.62H74.438V151.662H69.268V147.218H75.802V145.326H67.002V160ZM76.5363 155.182C76.5363 157.844 78.2303 160.264 81.5523 160.264C84.0383 160.264 85.5563 158.834 85.5563 158.834L84.9403 157.25C84.9403 157.25 83.5543 158.482 81.8823 158.482C80.1443 158.482 79.0443 157.316 78.8023 155.512L84.2363 154.786L85.4903 154.434C85.4903 151.42 83.7743 149.792 81.3983 149.792C78.4943 149.792 76.5363 152.146 76.5363 155.182ZM81.2443 151.486C82.9823 151.486 83.1143 153.51 83.1143 153.51L78.8023 154.06C79.0003 152.608 79.8363 151.486 81.2443 151.486ZM87.3214 155.182C87.3214 157.844 89.0154 160.264 92.3374 160.264C94.8234 160.264 96.3414 158.834 96.3414 158.834L95.7254 157.25C95.7254 157.25 94.3394 158.482 92.6674 158.482C90.9294 158.482 89.8294 157.316 89.5874 155.512L95.0214 154.786L96.2754 154.434C96.2754 151.42 94.5594 149.792 92.1834 149.792C89.2794 149.792 87.3214 152.146 87.3214 155.182ZM92.0294 151.486C93.7674 151.486 93.8994 153.51 93.8994 153.51L89.5874 154.06C89.7854 152.608 90.6214 151.486 92.0294 151.486ZM98.7666 160H100.945V144.27L98.7666 144.622V160ZM105.152 147.68C105.944 147.68 106.538 147.108 106.538 146.338C106.538 145.568 105.944 144.996 105.152 144.996C104.382 144.996 103.788 145.568 103.788 146.338C103.788 147.108 104.382 147.68 105.152 147.68ZM104.052 160H106.23V150.056H104.052V160ZM109.293 160H111.471V153.554C112.153 152.894 113.561 151.684 114.661 151.684C115.409 151.684 115.849 152.212 115.849 153.62V160H118.027V152.828C118.027 150.694 116.949 149.792 115.387 149.792C113.561 149.792 112.131 151.002 111.427 151.772V149.88L109.293 150.232V160ZM120.937 158.24C120.937 158.922 121.575 159.318 122.565 159.648C121.509 160.198 120.035 161.144 120.035 162.596C120.035 164.334 122.191 165.214 124.391 165.214C127.383 165.214 129.825 163.52 129.825 161.518C129.825 159.692 127.823 159.142 126.063 158.702C123.995 158.196 123.027 157.998 123.027 157.602C123.027 157.36 123.379 157.096 123.841 156.788C124.061 156.832 124.303 156.832 124.567 156.832C126.701 156.832 128.967 155.666 128.967 153.488C128.967 152.608 128.549 152.014 128.241 151.662C128.505 151.706 128.813 151.728 129.055 151.728H130.243L130.089 149.99C130.089 149.99 129.429 150.21 128.769 150.21H127.625C126.525 150.21 125.953 149.792 124.743 149.792C122.521 149.792 120.519 151.046 120.519 153.268C120.519 154.61 121.245 155.776 122.499 156.392C121.685 156.854 120.937 157.514 120.937 158.24ZM124.809 160.22C126.657 160.704 127.691 160.99 127.691 161.848C127.691 162.838 126.283 163.63 124.523 163.63C123.269 163.63 121.993 163.234 121.993 162.244C121.993 161.254 123.203 160.594 124.149 160.066C124.369 160.11 124.589 160.154 124.809 160.22ZM124.721 155.292C123.313 155.292 122.653 154.28 122.653 153.334C122.653 152.3 123.401 151.332 124.721 151.332C126.129 151.332 126.811 152.476 126.811 153.444C126.811 154.566 125.931 155.292 124.721 155.292Z" fill="#333333"/>
<path d="M175.616 122.226H179.906V127H181.578V122.226H185.802V120.642H181.578V116.176H179.906V120.642H175.616V122.226Z" fill="#2D9CDB"/>
<path d="M177.188 192.292H182.556V190.62H177.188V192.292Z" fill="#2D9CDB"/>
<path d="M190 159.001C201 145.335 236.478 121.171 252.5 118.501C276.5 114.501 287.5 124.784 306 139.5C328 157 378.5 143.003 411 159.001C443.5 175 441.896 190.5 472 190.5C498 190.5 514 171.001 526 159.001C543 142.003 548.5 125.854 574.5 118.501C587.57 114.804 614 175.501 632.5 190.5C651 205.499 664.5 207 688.5 207C697.7 207 713.5 189.502 742 160.5C760.5 138.5 774.5 120 801.5 106" stroke="#2F80ED" stroke-width="2" stroke-linecap="round"/>
<circle cx="798.5" cy="105.5" r="5.5" fill="#2F80ED"/>
<path d="M65.968 84.032C65.968 84.032 67.728 85.264 70.324 85.264C73.03 85.264 75.274 83.834 75.274 81.216C75.274 76.574 68.498 76.882 68.498 73.824C68.498 72.658 69.642 72.042 71.094 72.042C72.832 72.042 74.504 72.79 74.504 72.79L74.966 70.722C74.966 70.722 73.096 70.062 71.116 70.062C67.992 70.062 66.21 71.866 66.21 74.066C66.21 78.51 72.986 78.378 72.986 81.392C72.986 82.624 71.754 83.284 70.346 83.284C68.234 83.284 66.606 81.964 66.606 81.964L65.968 84.032ZM78.0465 82.294C78.0465 84.34 79.1685 85.264 80.8845 85.264C82.6445 85.264 83.9425 84.208 83.9425 84.208L83.3925 82.558C83.1285 82.712 82.2045 83.438 81.3685 83.438C80.6425 83.438 80.2245 82.954 80.2245 81.744V76.706H83.3705V75.056H80.2245V72.24L78.0905 72.702V74.968L76.5725 75.518V76.706H78.0465V82.294ZM84.997 82.712C84.997 84.186 86.119 85.264 87.857 85.264C89.793 85.264 90.805 84.032 91.069 83.614C91.355 84.406 91.993 85.044 93.511 85.154L94.171 83.438C94.171 83.438 93.071 83.416 93.071 82.184V77.982C93.071 75.76 92.323 74.792 89.969 74.792C87.351 74.792 85.657 76.046 85.657 76.046L86.229 77.674C86.229 77.674 87.747 76.53 89.375 76.53C90.981 76.53 90.893 77.63 90.893 78.884C87.175 79.368 84.997 80.622 84.997 82.712ZM88.407 83.548C87.769 83.548 87.241 83.262 87.241 82.558C87.241 81.392 88.363 80.666 90.893 80.292V82.008C90.233 82.778 89.419 83.548 88.407 83.548ZM96.2943 83.24C96.2943 83.922 96.9323 84.318 97.9223 84.648C96.8663 85.198 95.3923 86.144 95.3923 87.596C95.3923 89.334 97.5483 90.214 99.7483 90.214C102.74 90.214 105.182 88.52 105.182 86.518C105.182 84.692 103.18 84.142 101.42 83.702C99.3523 83.196 98.3843 82.998 98.3843 82.602C98.3843 82.36 98.7363 82.096 99.1983 81.788C99.4183 81.832 99.6603 81.832 99.9243 81.832C102.058 81.832 104.324 80.666 104.324 78.488C104.324 77.608 103.906 77.014 103.598 76.662C103.862 76.706 104.17 76.728 104.412 76.728H105.6L105.446 74.99C105.446 74.99 104.786 75.21 104.126 75.21H102.982C101.882 75.21 101.31 74.792 100.1 74.792C97.8783 74.792 95.8763 76.046 95.8763 78.268C95.8763 79.61 96.6023 80.776 97.8563 81.392C97.0423 81.854 96.2943 82.514 96.2943 83.24ZM100.166 85.22C102.014 85.704 103.048 85.99 103.048 86.848C103.048 87.838 101.64 88.63 99.8803 88.63C98.6263 88.63 97.3503 88.234 97.3503 87.244C97.3503 86.254 98.5603 85.594 99.5063 85.066C99.7263 85.11 99.9463 85.154 100.166 85.22ZM100.078 80.292C98.6703 80.292 98.0103 79.28 98.0103 78.334C98.0103 77.3 98.7583 76.332 100.078 76.332C101.486 76.332 102.168 77.476 102.168 78.444C102.168 79.566 101.288 80.292 100.078 80.292ZM106.829 80.182C106.829 82.844 108.523 85.264 111.845 85.264C114.331 85.264 115.849 83.834 115.849 83.834L115.233 82.25C115.233 82.25 113.847 83.482 112.175 83.482C110.437 83.482 109.337 82.316 109.095 80.512L114.529 79.786L115.783 79.434C115.783 76.42 114.067 74.792 111.691 74.792C108.787 74.792 106.829 77.146 106.829 80.182ZM111.537 76.486C113.275 76.486 113.407 78.51 113.407 78.51L109.095 79.06C109.293 77.608 110.129 76.486 111.537 76.486ZM117.57 84.384C117.57 84.384 118.802 85.264 120.87 85.264C123.312 85.264 124.742 84.054 124.742 82.25C124.742 79.082 119.968 79.236 119.968 77.498C119.968 76.926 120.452 76.508 121.552 76.508C122.828 76.508 123.972 77.124 123.972 77.124L124.478 75.342C124.478 75.342 123.378 74.792 121.64 74.792C118.89 74.792 117.79 76.134 117.79 77.674C117.79 80.798 122.564 80.666 122.564 82.448C122.564 83.086 122.014 83.548 120.848 83.548C119.242 83.548 118.032 82.536 118.032 82.536L117.57 84.384Z" fill="#333333"/>
<path d="M67.002 294H70.962C76.242 294 79.916 291.36 79.916 286.432C79.916 281.218 75.78 279.326 71.798 279.326H67.002V294ZM69.268 292.108V281.218H71.49C75.472 281.218 77.518 283.352 77.518 286.608C77.518 289.666 75.692 292.108 70.742 292.108H69.268ZM81.692 289.072C81.692 291.712 83.474 294.264 86.774 294.264C90.36 294.264 91.944 291.25 91.944 288.83C91.944 286.278 90.162 283.792 86.862 283.792C83.298 283.792 81.692 286.586 81.692 289.072ZM83.958 288.874C83.958 286.894 85.124 285.53 86.818 285.53C88.842 285.53 89.678 287.356 89.678 289.116C89.678 291.118 88.512 292.526 86.84 292.526C84.86 292.526 83.958 290.722 83.958 288.874ZM95.4408 281.68C96.2328 281.68 96.8268 281.108 96.8268 280.338C96.8268 279.568 96.2328 278.996 95.4408 278.996C94.6708 278.996 94.0768 279.568 94.0768 280.338C94.0768 281.108 94.6708 281.68 95.4408 281.68ZM94.3408 294H96.5188V284.056H94.3408V294ZM99.5819 294H101.76V287.554C102.442 286.894 103.85 285.684 104.95 285.684C105.698 285.684 106.138 286.212 106.138 287.62V294H108.316V286.828C108.316 284.694 107.238 283.792 105.676 283.792C103.85 283.792 102.42 285.002 101.716 285.772V283.88L99.5819 284.232V294ZM111.226 292.24C111.226 292.922 111.864 293.318 112.854 293.648C111.798 294.198 110.324 295.144 110.324 296.596C110.324 298.334 112.48 299.214 114.68 299.214C117.672 299.214 120.114 297.52 120.114 295.518C120.114 293.692 118.112 293.142 116.352 292.702C114.284 292.196 113.316 291.998 113.316 291.602C113.316 291.36 113.668 291.096 114.13 290.788C114.35 290.832 114.592 290.832 114.856 290.832C116.99 290.832 119.256 289.666 119.256 287.488C119.256 286.608 118.838 286.014 118.53 285.662C118.794 285.706 119.102 285.728 119.344 285.728H120.532L120.378 283.99C120.378 283.99 119.718 284.21 119.058 284.21H117.914C116.814 284.21 116.242 283.792 115.032 283.792C112.81 283.792 110.808 285.046 110.808 287.268C110.808 288.61 111.534 289.776 112.788 290.392C111.974 290.854 111.226 291.514 111.226 292.24ZM115.098 294.22C116.946 294.704 117.98 294.99 117.98 295.848C117.98 296.838 116.572 297.63 114.812 297.63C113.558 297.63 112.282 297.234 112.282 296.244C112.282 295.254 113.492 294.594 114.438 294.066C114.658 294.11 114.878 294.154 115.098 294.22ZM115.01 289.292C113.602 289.292 112.942 288.28 112.942 287.334C112.942 286.3 113.69 285.332 115.01 285.332C116.418 285.332 117.1 286.476 117.1 287.444C117.1 288.566 116.22 289.292 115.01 289.292Z" fill="#333333"/>
<rect x="175.5" y="270.5" width="44" height="39" fill="#EFE8DF" stroke="#828282"/>
<rect x="612.5" y="270.5" width="44" height="39" fill="#EFE8DF" stroke="#828282"/>
<rect x="394.5" y="270.5" width="44" height="39" fill="#EFE8DF" stroke="#828282"/>
<rect x="230.5" y="270.5" width="44" height="39" fill="#EFE8DF" stroke="#828282"/>
<rect x="667.5" y="270.5" width="44" height="39" fill="#EFE8DF" stroke="#828282"/>
<rect x="449.5" y="270.5" width="44" height="39" fill="#EFE8DF" stroke="#828282"/>
<rect x="339.5" y="270.5" width="44" height="39" fill="#EFE8DF" stroke="#828282"/>
<rect x="776.5" y="270.5" width="44" height="39" fill="#EFE8DF" stroke="#828282"/>
<rect x="558.5" y="270.5" width="44" height="39" fill="#EFE8DF" stroke="#828282"/>
<rect x="284.5" y="270.5" width="44" height="39" fill="#EFE8DF" stroke="#828282"/>
<rect x="721.5" y="270.5" width="44" height="39" fill="#EFE8DF" stroke="#828282"/>
<rect x="503.5" y="270.5" width="44" height="39" fill="#EFE8DF" stroke="#828282"/>
<rect x="175.5" y="224.5" width="44" height="39" fill="#D9DFE9" stroke="#828282"/>
<rect x="612.5" y="224.5" width="44" height="39" fill="#D9DFE9" stroke="#828282"/>
<rect x="394.5" y="224.5" width="44" height="39" fill="#D9DFE9" stroke="#828282"/>
<rect x="230.5" y="224.5" width="44" height="39" fill="#D9DFE9" stroke="#828282"/>
<rect x="667.5" y="224.5" width="44" height="39" fill="#D9DFE9" stroke="#828282"/>
<rect x="449.5" y="224.5" width="44" height="39" fill="#D9DFE9" stroke="#828282"/>
<rect x="339.5" y="224.5" width="44" height="39" fill="#D9DFE9" stroke="#828282"/>
<rect x="776.5" y="224.5" width="44" height="39" fill="#D9DFE9" stroke="#828282"/>
<rect x="558.5" y="224.5" width="44" height="39" fill="#D9DFE9" stroke="#828282"/>
<rect x="284.5" y="224.5" width="44" height="39" fill="#D9DFE9" stroke="#828282"/>
<rect x="721.5" y="224.5" width="44" height="39" fill="#D9DFE9" stroke="#828282"/>
<rect x="503.5" y="224.5" width="44" height="39" fill="#D9DFE9" stroke="#828282"/>
<rect x="175.5" y="68.5" width="208" height="21" fill="#D9DFE9" stroke="#828282"/>
<rect x="394.5" y="68.5" width="99" height="21" fill="#D9DFE9" stroke="#828282"/>
<rect x="504.5" y="68.5" width="152" height="21" fill="#D9DFE9" stroke="#828282"/>
<rect x="667.5" y="68.5" width="153" height="21" fill="#D9DFE9" stroke="#828282"/>
<path d="M832.9 103.54C832.9 107.68 836.14 110.24 840.18 110.24C842.16 110.24 844.8 109.62 844.8 109.62V102.96H839.98V104.68H842.76V108.18C842.76 108.18 841.58 108.46 840.42 108.46C837.22 108.46 835.04 106.4 835.04 103.38C835.04 100.68 836.78 98.2 840.18 98.2C842.36 98.2 843.96 99.2 843.96 99.2L844.76 97.42C844.76 97.42 842.98 96.42 840.28 96.42C835.56 96.42 832.9 99.78 832.9 103.54ZM846.943 103.36C846.943 107.04 849.683 110.24 853.903 110.24C858.263 110.24 861.103 106.82 861.103 103.08C861.103 99.4 858.383 96.42 854.083 96.42C849.503 96.42 846.943 99.84 846.943 103.36ZM849.123 103.26C849.123 100.7 850.863 98.18 854.023 98.18C857.183 98.18 858.923 100.66 858.923 103.24C858.923 105.84 857.103 108.48 853.963 108.48C850.803 108.48 849.123 105.74 849.123 103.26ZM862.044 110H864.104L865.404 106.44H870.724L872.044 110H874.164L869.084 96.56H867.124L862.044 110ZM868.064 99.2L870.104 104.72H866.044L868.064 99.2ZM876.183 110H884.483V108.28H878.243V96.66H876.183V110ZM833.82 137H835.88V131.2H840.58V129.42H835.88V125.38H841.82V123.66H833.82V137ZM842.488 132.62C842.488 135.04 844.028 137.24 847.048 137.24C849.308 137.24 850.688 135.94 850.688 135.94L850.128 134.5C850.128 134.5 848.868 135.62 847.348 135.62C845.768 135.62 844.768 134.56 844.548 132.92L849.488 132.26L850.628 131.94C850.628 129.2 849.068 127.72 846.908 127.72C844.268 127.72 842.488 129.86 842.488 132.62ZM846.768 129.26C848.348 129.26 848.468 131.1 848.468 131.1L844.548 131.6C844.728 130.28 845.488 129.26 846.768 129.26ZM852.292 132.62C852.292 135.04 853.832 137.24 856.852 137.24C859.112 137.24 860.492 135.94 860.492 135.94L859.932 134.5C859.932 134.5 858.672 135.62 857.152 135.62C855.572 135.62 854.572 134.56 854.352 132.92L859.292 132.26L860.432 131.94C860.432 129.2 858.872 127.72 856.712 127.72C854.072 127.72 852.292 129.86 852.292 132.62ZM856.572 129.26C858.152 129.26 858.272 131.1 858.272 131.1L854.352 131.6C854.532 130.28 855.292 129.26 856.572 129.26ZM862.697 137H864.677V122.7L862.697 123.02V137ZM871.706 132.62C871.706 135.04 873.246 137.24 876.266 137.24C878.526 137.24 879.906 135.94 879.906 135.94L879.346 134.5C879.346 134.5 878.086 135.62 876.566 135.62C874.986 135.62 873.986 134.56 873.766 132.92L878.706 132.26L879.846 131.94C879.846 129.2 878.286 127.72 876.126 127.72C873.486 127.72 871.706 129.86 871.706 132.62ZM875.986 129.26C877.566 129.26 877.686 131.1 877.686 131.1L873.766 131.6C873.946 130.28 874.706 129.26 875.986 129.26ZM881.511 132.8C881.511 135.28 882.951 137.24 885.451 137.24C886.711 137.24 887.451 136.74 887.911 136.24V141.66L889.891 141.34V128.16C889.891 128.16 888.091 127.72 886.591 127.72C883.171 127.72 881.511 130.16 881.511 132.8ZM885.771 135.58C884.451 135.58 883.571 134.5 883.571 132.66C883.571 130.42 884.811 129.24 886.551 129.24C887.271 129.24 887.911 129.44 887.911 129.44V134.66C887.511 135.02 886.731 135.58 885.771 135.58ZM892.558 134.52C892.558 136.46 893.558 137.24 895.018 137.24C896.678 137.24 897.938 136.18 898.518 135.56C898.618 136.22 898.818 137.16 898.818 137.16L900.738 136.98C900.738 136.98 900.338 135.32 900.338 134.22V127.96H898.358V134.04C897.798 134.56 896.678 135.52 895.658 135.52C894.918 135.52 894.538 135.02 894.538 133.76V127.96H892.558V134.52ZM904.205 125.8C904.925 125.8 905.465 125.28 905.465 124.58C905.465 123.88 904.925 123.36 904.205 123.36C903.505 123.36 902.965 123.88 902.965 124.58C902.965 125.28 903.505 125.8 904.205 125.8ZM903.205 137H905.185V127.96H903.205V137ZM907.969 141.66L909.949 141.34V136.76C910.329 137.04 911.009 137.24 911.849 137.24C914.729 137.24 916.409 134.88 916.409 132.2C916.409 129.74 914.969 127.72 912.589 127.72C911.169 127.72 910.309 128.46 909.889 129.24V127.8L907.969 128.12V141.66ZM912.249 129.36C913.469 129.36 914.329 130.46 914.329 132.34C914.329 134.5 913.189 135.68 911.489 135.68C910.549 135.68 909.949 135.34 909.949 134.66V130.82C910.209 130.44 911.049 129.36 912.249 129.36ZM918.575 141.66L920.555 141.34V136.76C920.935 137.04 921.615 137.24 922.455 137.24C925.335 137.24 927.015 134.88 927.015 132.2C927.015 129.74 925.575 127.72 923.195 127.72C921.775 127.72 920.915 128.46 920.495 129.24V127.8L918.575 128.12V141.66ZM922.855 129.36C924.075 129.36 924.935 130.46 924.935 132.34C924.935 134.5 923.795 135.68 922.095 135.68C921.155 135.68 920.555 135.34 920.555 134.66V130.82C920.815 130.44 921.655 129.36 922.855 129.36ZM928.62 132.62C928.62 135.04 930.16 137.24 933.18 137.24C935.44 137.24 936.82 135.94 936.82 135.94L936.26 134.5C936.26 134.5 935 135.62 933.48 135.62C931.9 135.62 930.9 134.56 930.68 132.92L935.62 132.26L936.76 131.94C936.76 129.2 935.2 127.72 933.04 127.72C930.4 127.72 928.62 129.86 928.62 132.62ZM932.9 129.26C934.48 129.26 934.6 131.1 934.6 131.1L930.68 131.6C930.86 130.28 931.62 129.26 932.9 129.26ZM938.425 132.76C938.425 135.24 939.945 137.24 942.305 137.24C943.745 137.24 944.665 136.54 945.145 135.76C945.245 136.4 945.425 137.14 945.425 137.14L947.325 137C947.325 137 946.925 135.32 946.925 134.22V122.7L944.945 123.02V128.02C944.685 127.92 944.085 127.72 943.265 127.72C940.065 127.72 938.425 130.18 938.425 132.76ZM942.645 135.66C941.365 135.66 940.505 134.52 940.505 132.64C940.505 130.48 941.645 129.28 943.365 129.28C944.185 129.28 944.905 129.58 944.945 130.48V134.2C944.665 134.62 943.865 135.66 942.645 135.66ZM955.052 134.54C955.052 136.4 956.072 137.24 957.632 137.24C959.232 137.24 960.412 136.28 960.412 136.28L959.912 134.78C959.672 134.92 958.832 135.58 958.072 135.58C957.412 135.58 957.032 135.14 957.032 134.04V129.46H959.892V127.96H957.032V125.4L955.092 125.82V127.88L953.712 128.38V129.46H955.052V134.54ZM961.51 132.52C961.51 134.92 963.13 137.24 966.13 137.24C969.39 137.24 970.83 134.5 970.83 132.3C970.83 129.98 969.21 127.72 966.21 127.72C962.97 127.72 961.51 130.26 961.51 132.52ZM963.57 132.34C963.57 130.54 964.63 129.3 966.17 129.3C968.01 129.3 968.77 130.96 968.77 132.56C968.77 134.38 967.71 135.66 966.19 135.66C964.39 135.66 963.57 134.02 963.57 132.34ZM832.76 163.44C832.76 163.44 833.88 164.24 835.76 164.24C837.98 164.24 839.28 163.14 839.28 161.5C839.28 158.62 834.94 158.76 834.94 157.18C834.94 156.66 835.38 156.28 836.38 156.28C837.54 156.28 838.58 156.84 838.58 156.84L839.04 155.22C839.04 155.22 838.04 154.72 836.46 154.72C833.96 154.72 832.96 155.94 832.96 157.34C832.96 160.18 837.3 160.06 837.3 161.68C837.3 162.26 836.8 162.68 835.74 162.68C834.28 162.68 833.18 161.76 833.18 161.76L832.76 163.44ZM841.347 161.52C841.347 163.46 842.347 164.24 843.807 164.24C845.467 164.24 846.727 163.18 847.307 162.56C847.407 163.22 847.607 164.16 847.607 164.16L849.527 163.98C849.527 163.98 849.127 162.32 849.127 161.22V154.96H847.147V161.04C846.587 161.56 845.467 162.52 844.447 162.52C843.707 162.52 843.327 162.02 843.327 160.76V154.96H841.347V161.52ZM851.374 159.6C851.374 162.22 853.194 164.24 856.014 164.24C858.174 164.24 859.214 163.08 859.214 163.08L858.574 161.68C858.574 161.68 857.594 162.62 856.154 162.62C854.454 162.62 853.434 161.28 853.434 159.5C853.434 157.66 854.534 156.32 856.174 156.32C857.494 156.32 858.434 157.16 858.434 157.16L859.214 155.68C859.214 155.68 858.114 154.72 856.134 154.72C853.154 154.72 851.374 157.1 851.374 159.6ZM860.456 159.6C860.456 162.22 862.276 164.24 865.096 164.24C867.256 164.24 868.296 163.08 868.296 163.08L867.656 161.68C867.656 161.68 866.676 162.62 865.236 162.62C863.536 162.62 862.516 161.28 862.516 159.5C862.516 157.66 863.616 156.32 865.256 156.32C866.576 156.32 867.516 157.16 867.516 157.16L868.296 155.68C868.296 155.68 867.196 154.72 865.216 154.72C862.236 154.72 860.456 157.1 860.456 159.6ZM869.558 159.62C869.558 162.04 871.098 164.24 874.118 164.24C876.378 164.24 877.758 162.94 877.758 162.94L877.198 161.5C877.198 161.5 875.938 162.62 874.418 162.62C872.838 162.62 871.838 161.56 871.618 159.92L876.558 159.26L877.698 158.94C877.698 156.2 876.138 154.72 873.978 154.72C871.338 154.72 869.558 156.86 869.558 159.62ZM873.838 156.26C875.418 156.26 875.538 158.1 875.538 158.1L871.618 158.6C871.798 157.28 872.558 156.26 873.838 156.26ZM879.323 163.44C879.323 163.44 880.443 164.24 882.323 164.24C884.543 164.24 885.843 163.14 885.843 161.5C885.843 158.62 881.502 158.76 881.502 157.18C881.502 156.66 881.943 156.28 882.943 156.28C884.103 156.28 885.143 156.84 885.143 156.84L885.603 155.22C885.603 155.22 884.603 154.72 883.023 154.72C880.523 154.72 879.523 155.94 879.523 157.34C879.523 160.18 883.863 160.06 883.863 161.68C883.863 162.26 883.363 162.68 882.303 162.68C880.843 162.68 879.743 161.76 879.743 161.76L879.323 163.44ZM887.369 163.44C887.369 163.44 888.489 164.24 890.369 164.24C892.589 164.24 893.889 163.14 893.889 161.5C893.889 158.62 889.549 158.76 889.549 157.18C889.549 156.66 889.989 156.28 890.989 156.28C892.149 156.28 893.189 156.84 893.189 156.84L893.649 155.22C893.649 155.22 892.649 154.72 891.069 154.72C888.569 154.72 887.569 155.94 887.569 157.34C887.569 160.18 891.909 160.06 891.909 161.68C891.909 162.26 891.409 162.68 890.349 162.68C888.889 162.68 887.789 161.76 887.789 161.76L887.369 163.44ZM895.156 156.46H896.576V164H898.556V156.46H901.056V154.96H898.556V153.88C898.556 151.76 899.516 151.02 900.576 151.02C901.556 151.02 902.436 151.66 902.436 151.66L903.216 150.14C903.216 150.14 902.176 149.38 900.596 149.38C898.236 149.38 896.576 151.04 896.576 154V154.88L895.156 155.4V156.46ZM902.773 161.52C902.773 163.46 903.773 164.24 905.233 164.24C906.893 164.24 908.153 163.18 908.733 162.56C908.833 163.22 909.033 164.16 909.033 164.16L910.953 163.98C910.953 163.98 910.553 162.32 910.553 161.22V154.96H908.573V161.04C908.013 161.56 906.893 162.52 905.873 162.52C905.133 162.52 904.753 162.02 904.753 160.76V154.96H902.773V161.52ZM913.42 164H915.4V149.7L913.42 150.02V164ZM918.224 164H920.204V149.7L918.224 150.02V164ZM921.949 167.16L922.569 168.74C924.689 168.5 926.009 166.6 926.789 164.68L930.709 154.96H928.669L926.329 161.16L923.949 154.96H921.849L925.349 163.54L924.869 164.62C924.329 165.88 923.269 166.94 921.949 167.16ZM937.09 164H939.07V158.12C939.65 157.54 940.89 156.44 941.87 156.44C942.53 156.44 942.89 156.92 942.89 158.2V164H944.87V158.08C945.55 157.42 946.67 156.44 947.59 156.44C948.25 156.44 948.63 156.92 948.63 158.2V164H950.59V157.48C950.59 155.54 949.65 154.72 948.25 154.72C946.67 154.72 945.43 155.78 944.77 156.5C944.49 155.26 943.67 154.72 942.53 154.72C940.93 154.72 939.65 155.82 939.03 156.5V154.8L937.09 155.12V164ZM952.542 161.92C952.542 163.26 953.562 164.24 955.142 164.24C956.902 164.24 957.822 163.12 958.062 162.74C958.322 163.46 958.902 164.04 960.282 164.14L960.882 162.58C960.882 162.58 959.882 162.56 959.882 161.44V157.62C959.882 155.6 959.202 154.72 957.062 154.72C954.682 154.72 953.142 155.86 953.142 155.86L953.662 157.34C953.662 157.34 955.042 156.3 956.522 156.3C957.982 156.3 957.902 157.3 957.902 158.44C954.522 158.88 952.542 160.02 952.542 161.92ZM955.642 162.68C955.062 162.68 954.582 162.42 954.582 161.78C954.582 160.72 955.602 160.06 957.902 159.72V161.28C957.302 161.98 956.562 162.68 955.642 162.68ZM962.833 164H964.813V158.14C965.433 157.54 966.713 156.44 967.713 156.44C968.393 156.44 968.793 156.92 968.793 158.2V164H970.773V157.48C970.773 155.54 969.793 154.72 968.373 154.72C966.713 154.72 965.413 155.82 964.773 156.52V154.8L962.833 155.12V164ZM972.718 161.92C972.718 163.26 973.738 164.24 975.318 164.24C977.078 164.24 977.998 163.12 978.238 162.74C978.498 163.46 979.078 164.04 980.458 164.14L981.058 162.58C981.058 162.58 980.058 162.56 980.058 161.44V157.62C980.058 155.6 979.378 154.72 977.238 154.72C974.858 154.72 973.318 155.86 973.318 155.86L973.838 157.34C973.838 157.34 975.218 156.3 976.698 156.3C978.158 156.3 978.078 157.3 978.078 158.44C974.698 158.88 972.718 160.02 972.718 161.92ZM975.818 162.68C975.238 162.68 974.758 162.42 974.758 161.78C974.758 160.72 975.778 160.06 978.078 159.72V161.28C977.478 161.98 976.738 162.68 975.818 162.68ZM982.988 162.4C982.988 163.02 983.568 163.38 984.468 163.68C983.508 164.18 982.168 165.04 982.168 166.36C982.168 167.94 984.128 168.74 986.128 168.74C988.848 168.74 991.068 167.2 991.068 165.38C991.068 163.72 989.248 163.22 987.648 162.82C985.768 162.36 984.888 162.18 984.888 161.82C984.888 161.6 985.208 161.36 985.628 161.08C985.828 161.12 986.048 161.12 986.288 161.12C988.228 161.12 990.288 160.06 990.288 158.08C990.288 157.28 989.908 156.74 989.628 156.42C989.868 156.46 990.148 156.48 990.368 156.48H991.448L991.308 154.9C991.308 154.9 990.708 155.1 990.108 155.1H989.068C988.068 155.1 987.548 154.72 986.448 154.72C984.428 154.72 982.608 155.86 982.608 157.88C982.608 159.1 983.268 160.16 984.408 160.72C983.668 161.14 982.988 161.74 982.988 162.4ZM986.508 164.2C988.188 164.64 989.128 164.9 989.128 165.68C989.128 166.58 987.848 167.3 986.248 167.3C985.108 167.3 983.948 166.94 983.948 166.04C983.948 165.14 985.048 164.54 985.908 164.06C986.108 164.1 986.308 164.14 986.508 164.2ZM986.428 159.72C985.148 159.72 984.548 158.8 984.548 157.94C984.548 157 985.228 156.12 986.428 156.12C987.708 156.12 988.328 157.16 988.328 158.04C988.328 159.06 987.528 159.72 986.428 159.72ZM992.566 159.62C992.566 162.04 994.106 164.24 997.126 164.24C999.386 164.24 1000.77 162.94 1000.77 162.94L1000.21 161.5C1000.21 161.5 998.946 162.62 997.426 162.62C995.846 162.62 994.846 161.56 994.626 159.92L999.566 159.26L1000.71 158.94C1000.71 156.2 999.146 154.72 996.986 154.72C994.346 154.72 992.566 156.86 992.566 159.62ZM996.846 156.26C998.426 156.26 998.546 158.1 998.546 158.1L994.626 158.6C994.806 157.28 995.566 156.26 996.846 156.26ZM832.64 188.92C832.64 190.26 833.66 191.24 835.24 191.24C837 191.24 837.92 190.12 838.16 189.74C838.42 190.46 839 191.04 840.38 191.14L840.98 189.58C840.98 189.58 839.98 189.56 839.98 188.44V184.62C839.98 182.6 839.3 181.72 837.16 181.72C834.78 181.72 833.24 182.86 833.24 182.86L833.76 184.34C833.76 184.34 835.14 183.3 836.62 183.3C838.08 183.3 838 184.3 838 185.44C834.62 185.88 832.64 187.02 832.64 188.92ZM835.74 189.68C835.16 189.68 834.68 189.42 834.68 188.78C834.68 187.72 835.7 187.06 838 186.72V188.28C837.4 188.98 836.66 189.68 835.74 189.68ZM847.155 186.6C847.155 189.22 848.975 191.24 851.795 191.24C853.955 191.24 854.995 190.08 854.995 190.08L854.355 188.68C854.355 188.68 853.375 189.62 851.935 189.62C850.235 189.62 849.215 188.28 849.215 186.5C849.215 184.66 850.315 183.32 851.955 183.32C853.275 183.32 854.215 184.16 854.215 184.16L854.995 182.68C854.995 182.68 853.895 181.72 851.915 181.72C848.935 181.72 847.155 184.1 847.155 186.6ZM856.994 191H858.974V185.18C859.574 184.58 860.874 183.44 861.874 183.44C862.554 183.44 862.954 183.92 862.954 185.2V191H864.934V184.48C864.934 182.54 863.954 181.72 862.514 181.72C860.854 181.72 859.574 182.84 858.974 183.48V176.7L856.994 177.02V191ZM867.598 191H869.578V185.4C869.958 184.8 870.778 183.72 871.778 183.72C872.178 183.72 872.578 183.88 872.578 183.88L872.978 181.88C872.978 181.88 872.698 181.72 872.198 181.72C870.818 181.72 869.898 183 869.538 183.62V181.8L867.598 182.12V191ZM873.815 186.52C873.815 188.92 875.435 191.24 878.435 191.24C881.695 191.24 883.135 188.5 883.135 186.3C883.135 183.98 881.515 181.72 878.515 181.72C875.275 181.72 873.815 184.26 873.815 186.52ZM875.875 186.34C875.875 184.54 876.935 183.3 878.475 183.3C880.315 183.3 881.075 184.96 881.075 186.56C881.075 188.38 880.015 189.66 878.495 189.66C876.695 189.66 875.875 188.02 875.875 186.34ZM885.274 191H887.254V185.14C887.874 184.54 889.154 183.44 890.154 183.44C890.834 183.44 891.234 183.92 891.234 185.2V191H893.214V184.48C893.214 182.54 892.234 181.72 890.814 181.72C889.154 181.72 887.854 182.82 887.214 183.52V181.8L885.274 182.12V191ZM896.92 179.8C897.64 179.8 898.18 179.28 898.18 178.58C898.18 177.88 897.64 177.36 896.92 177.36C896.22 177.36 895.68 177.88 895.68 178.58C895.68 179.28 896.22 179.8 896.92 179.8ZM895.92 191H897.9V181.96H895.92V191ZM900.104 186.6C900.104 189.22 901.924 191.24 904.744 191.24C906.904 191.24 907.944 190.08 907.944 190.08L907.304 188.68C907.304 188.68 906.324 189.62 904.884 189.62C903.184 189.62 902.164 188.28 902.164 186.5C902.164 184.66 903.264 183.32 904.904 183.32C906.224 183.32 907.164 184.16 907.164 184.16L907.944 182.68C907.944 182.68 906.844 181.72 904.864 181.72C901.884 181.72 900.104 184.1 900.104 186.6ZM915.748 179.8C916.468 179.8 917.008 179.28 917.008 178.58C917.008 177.88 916.468 177.36 915.748 177.36C915.048 177.36 914.508 177.88 914.508 178.58C914.508 179.28 915.048 179.8 915.748 179.8ZM914.748 191H916.728V181.96H914.748V191ZM919.552 191H921.532V176.7L919.552 177.02V191ZM924.357 191H926.337V176.7L924.357 177.02V191ZM929.122 191H931.102V185.14C931.722 184.54 933.002 183.44 934.002 183.44C934.682 183.44 935.082 183.92 935.082 185.2V191H937.062V184.48C937.062 182.54 936.082 181.72 934.662 181.72C933.002 181.72 931.702 182.82 931.062 183.52V181.8L929.122 182.12V191ZM939.167 186.62C939.167 189.04 940.707 191.24 943.727 191.24C945.987 191.24 947.367 189.94 947.367 189.94L946.807 188.5C946.807 188.5 945.547 189.62 944.027 189.62C942.447 189.62 941.447 188.56 941.227 186.92L946.167 186.26L947.307 185.94C947.307 183.2 945.747 181.72 943.587 181.72C940.947 181.72 939.167 183.86 939.167 186.62ZM943.447 183.26C945.027 183.26 945.147 185.1 945.147 185.1L941.227 185.6C941.407 184.28 942.167 183.26 943.447 183.26ZM948.932 190.44C948.932 190.44 950.052 191.24 951.932 191.24C954.152 191.24 955.452 190.14 955.452 188.5C955.452 185.62 951.112 185.76 951.112 184.18C951.112 183.66 951.552 183.28 952.552 183.28C953.712 183.28 954.752 183.84 954.752 183.84L955.212 182.22C955.212 182.22 954.212 181.72 952.632 181.72C950.132 181.72 949.132 182.94 949.132 184.34C949.132 187.18 953.472 187.06 953.472 188.68C953.472 189.26 952.972 189.68 951.912 189.68C950.452 189.68 949.352 188.76 949.352 188.76L948.932 190.44ZM956.979 190.44C956.979 190.44 958.099 191.24 959.979 191.24C962.199 191.24 963.499 190.14 963.499 188.5C963.499 185.62 959.159 185.76 959.159 184.18C959.159 183.66 959.599 183.28 960.599 183.28C961.759 183.28 962.799 183.84 962.799 183.84L963.259 182.22C963.259 182.22 962.259 181.72 960.679 181.72C958.179 181.72 957.179 182.94 957.179 184.34C957.179 187.18 961.519 187.06 961.519 188.68C961.519 189.26 961.019 189.68 959.959 189.68C958.499 189.68 957.399 188.76 957.399 188.76L956.979 190.44ZM965.366 189.9C965.366 190.64 965.966 191.24 966.706 191.24C967.446 191.24 968.066 190.64 968.066 189.9C968.066 189.14 967.446 188.54 966.706 188.54C965.966 188.54 965.366 189.14 965.366 189.9Z" fill="#333333"/>
</svg>
