<svg width="1061" height="434" viewBox="0 0 1061 434" fill="none" xmlns="http://www.w3.org/2000/svg">
<rect x="1" y="1" width="1059" height="432" fill="#FAFAFA" stroke="#BDBDBD" stroke-width="2"/>
<path d="M167 232C419.279 232 560.721 232 813 232" stroke="#ECECEC" stroke-width="4"/>
<path d="M40 119V398C427.791 398 645.209 398 1033 398" stroke="#BDBDBD" stroke-width="2"/>
<path d="M62.412 322H64.656V309.218H69.738V307.326H57.374V309.218H62.412V322ZM71.6455 322H73.8235V315.598C74.4835 314.938 75.9135 313.684 77.0135 313.684C77.7615 313.684 78.2015 314.212 78.2015 315.62V322H80.3795V314.828C80.3795 312.694 79.3015 311.792 77.7175 311.792C75.8915 311.792 74.4835 313.024 73.8235 313.728V306.27L71.6455 306.622V322ZM84.4545 309.68C85.2465 309.68 85.8405 309.108 85.8405 308.338C85.8405 307.568 85.2465 306.996 84.4545 306.996C83.6845 306.996 83.0905 307.568 83.0905 308.338C83.0905 309.108 83.6845 309.68 84.4545 309.68ZM83.3545 322H85.5325V312.056H83.3545V322ZM88.5956 322H90.7736V315.554C91.4556 314.894 92.8636 313.684 93.9636 313.684C94.7116 313.684 95.1516 314.212 95.1516 315.62V322H97.3296V314.828C97.3296 312.694 96.2516 311.792 94.6896 311.792C92.8636 311.792 91.4336 313.002 90.7296 313.772V311.88L88.5956 312.232V322ZM100.306 322H102.484V317.292H102.792L106.752 322H109.546L104.706 316.412L109.238 312.056H106.4L102.792 315.686H102.484V306.27L100.306 306.622V322ZM112.277 309.68C113.069 309.68 113.663 309.108 113.663 308.338C113.663 307.568 113.069 306.996 112.277 306.996C111.507 306.996 110.913 307.568 110.913 308.338C110.913 309.108 111.507 309.68 112.277 309.68ZM111.177 322H113.355V312.056H111.177V322ZM116.418 322H118.596V315.554C119.278 314.894 120.686 313.684 121.786 313.684C122.534 313.684 122.974 314.212 122.974 315.62V322H125.152V314.828C125.152 312.694 124.074 311.792 122.512 311.792C120.686 311.792 119.256 313.002 118.552 313.772V311.88L116.418 312.232V322ZM128.062 320.24C128.062 320.922 128.7 321.318 129.69 321.648C128.634 322.198 127.16 323.144 127.16 324.596C127.16 326.334 129.316 327.214 131.516 327.214C134.508 327.214 136.95 325.52 136.95 323.518C136.95 321.692 134.948 321.142 133.188 320.702C131.12 320.196 130.152 319.998 130.152 319.602C130.152 319.36 130.504 319.096 130.966 318.788C131.186 318.832 131.428 318.832 131.692 318.832C133.826 318.832 136.092 317.666 136.092 315.488C136.092 314.608 135.674 314.014 135.366 313.662C135.63 313.706 135.938 313.728 136.18 313.728H137.368L137.214 311.99C137.214 311.99 136.554 312.21 135.894 312.21H134.75C133.65 312.21 133.078 311.792 131.868 311.792C129.646 311.792 127.644 313.046 127.644 315.268C127.644 316.61 128.37 317.776 129.624 318.392C128.81 318.854 128.062 319.514 128.062 320.24ZM131.934 322.22C133.782 322.704 134.816 322.99 134.816 323.848C134.816 324.838 133.408 325.63 131.648 325.63C130.394 325.63 129.118 325.234 129.118 324.244C129.118 323.254 130.328 322.594 131.274 322.066C131.494 322.11 131.714 322.154 131.934 322.22ZM131.846 317.292C130.438 317.292 129.778 316.28 129.778 315.334C129.778 314.3 130.526 313.332 131.846 313.332C133.254 313.332 133.936 314.476 133.936 315.444C133.936 316.566 133.056 317.292 131.846 317.292Z" fill="#333333"/>
<path d="M59.002 232H61.268V225.62H66.438V223.662H61.268V219.218H67.802V217.326H59.002V232ZM68.5363 227.182C68.5363 229.844 70.2303 232.264 73.5523 232.264C76.0383 232.264 77.5563 230.834 77.5563 230.834L76.9403 229.25C76.9403 229.25 75.5543 230.482 73.8823 230.482C72.1443 230.482 71.0443 229.316 70.8023 227.512L76.2363 226.786L77.4903 226.434C77.4903 223.42 75.7743 221.792 73.3983 221.792C70.4943 221.792 68.5363 224.146 68.5363 227.182ZM73.2443 223.486C74.9823 223.486 75.1143 225.51 75.1143 225.51L70.8023 226.06C71.0003 224.608 71.8363 223.486 73.2443 223.486ZM79.3214 227.182C79.3214 229.844 81.0154 232.264 84.3374 232.264C86.8234 232.264 88.3414 230.834 88.3414 230.834L87.7254 229.25C87.7254 229.25 86.3394 230.482 84.6674 230.482C82.9294 230.482 81.8294 229.316 81.5874 227.512L87.0214 226.786L88.2754 226.434C88.2754 223.42 86.5594 221.792 84.1834 221.792C81.2794 221.792 79.3214 224.146 79.3214 227.182ZM84.0294 223.486C85.7674 223.486 85.8994 225.51 85.8994 225.51L81.5874 226.06C81.7854 224.608 82.6214 223.486 84.0294 223.486ZM90.7666 232H92.9446V216.27L90.7666 216.622V232ZM97.1517 219.68C97.9437 219.68 98.5377 219.108 98.5377 218.338C98.5377 217.568 97.9437 216.996 97.1517 216.996C96.3817 216.996 95.7877 217.568 95.7877 218.338C95.7877 219.108 96.3817 219.68 97.1517 219.68ZM96.0517 232H98.2297V222.056H96.0517V232ZM101.293 232H103.471V225.554C104.153 224.894 105.561 223.684 106.661 223.684C107.409 223.684 107.849 224.212 107.849 225.62V232H110.027V224.828C110.027 222.694 108.949 221.792 107.387 221.792C105.561 221.792 104.131 223.002 103.427 223.772V221.88L101.293 222.232V232ZM112.937 230.24C112.937 230.922 113.575 231.318 114.565 231.648C113.509 232.198 112.035 233.144 112.035 234.596C112.035 236.334 114.191 237.214 116.391 237.214C119.383 237.214 121.825 235.52 121.825 233.518C121.825 231.692 119.823 231.142 118.063 230.702C115.995 230.196 115.027 229.998 115.027 229.602C115.027 229.36 115.379 229.096 115.841 228.788C116.061 228.832 116.303 228.832 116.567 228.832C118.701 228.832 120.967 227.666 120.967 225.488C120.967 224.608 120.549 224.014 120.241 223.662C120.505 223.706 120.813 223.728 121.055 223.728H122.243L122.089 221.99C122.089 221.99 121.429 222.21 120.769 222.21H119.625C118.525 222.21 117.953 221.792 116.743 221.792C114.521 221.792 112.519 223.046 112.519 225.268C112.519 226.61 113.245 227.776 114.499 228.392C113.685 228.854 112.937 229.514 112.937 230.24ZM116.809 232.22C118.657 232.704 119.691 232.99 119.691 233.848C119.691 234.838 118.283 235.63 116.523 235.63C115.269 235.63 113.993 235.234 113.993 234.244C113.993 233.254 115.203 232.594 116.149 232.066C116.369 232.11 116.589 232.154 116.809 232.22ZM116.721 227.292C115.313 227.292 114.653 226.28 114.653 225.334C114.653 224.3 115.401 223.332 116.721 223.332C118.129 223.332 118.811 224.476 118.811 225.444C118.811 226.566 117.931 227.292 116.721 227.292Z" fill="#333333"/>
<path d="M167.616 194.226H171.906V199H173.578V194.226H177.802V192.642H173.578V188.176H171.906V192.642H167.616V194.226Z" fill="#2D9CDB"/>
<path d="M169.188 264.292H174.556V262.62H169.188V264.292Z" fill="#2D9CDB"/>
<path d="M182 231.001C193 217.335 228.478 193.171 244.5 190.501C268.5 186.501 279.5 196.784 298 211.5C320 229 370.5 215.003 403 231.001C435.5 247 433.896 262.5 464 262.5C490 262.5 506 243.001 518 231.001C535 214.003 540.5 197.854 566.5 190.501C579.57 186.804 606 247.501 624.5 262.5C643 277.499 656.5 279 680.5 279C689.7 279 705.5 261.502 734 232.5C752.5 210.5 766.5 192 793.5 178" stroke="#2F80ED" stroke-width="2" stroke-linecap="round"/>
<circle cx="790.5" cy="177.5" r="5.5" fill="#2F80ED"/>
<path d="M57.968 156.032C57.968 156.032 59.728 157.264 62.324 157.264C65.03 157.264 67.274 155.834 67.274 153.216C67.274 148.574 60.498 148.882 60.498 145.824C60.498 144.658 61.642 144.042 63.094 144.042C64.832 144.042 66.504 144.79 66.504 144.79L66.966 142.722C66.966 142.722 65.096 142.062 63.116 142.062C59.992 142.062 58.21 143.866 58.21 146.066C58.21 150.51 64.986 150.378 64.986 153.392C64.986 154.624 63.754 155.284 62.346 155.284C60.234 155.284 58.606 153.964 58.606 153.964L57.968 156.032ZM70.0465 154.294C70.0465 156.34 71.1685 157.264 72.8845 157.264C74.6445 157.264 75.9425 156.208 75.9425 156.208L75.3925 154.558C75.1285 154.712 74.2045 155.438 73.3685 155.438C72.6425 155.438 72.2245 154.954 72.2245 153.744V148.706H75.3705V147.056H72.2245V144.24L70.0905 144.702V146.968L68.5725 147.518V148.706H70.0465V154.294ZM76.997 154.712C76.997 156.186 78.119 157.264 79.857 157.264C81.793 157.264 82.805 156.032 83.069 155.614C83.355 156.406 83.993 157.044 85.511 157.154L86.171 155.438C86.171 155.438 85.071 155.416 85.071 154.184V149.982C85.071 147.76 84.323 146.792 81.969 146.792C79.351 146.792 77.657 148.046 77.657 148.046L78.229 149.674C78.229 149.674 79.747 148.53 81.375 148.53C82.981 148.53 82.893 149.63 82.893 150.884C79.175 151.368 76.997 152.622 76.997 154.712ZM80.407 155.548C79.769 155.548 79.241 155.262 79.241 154.558C79.241 153.392 80.363 152.666 82.893 152.292V154.008C82.233 154.778 81.419 155.548 80.407 155.548ZM88.2943 155.24C88.2943 155.922 88.9323 156.318 89.9223 156.648C88.8663 157.198 87.3923 158.144 87.3923 159.596C87.3923 161.334 89.5483 162.214 91.7483 162.214C94.7403 162.214 97.1823 160.52 97.1823 158.518C97.1823 156.692 95.1803 156.142 93.4203 155.702C91.3523 155.196 90.3843 154.998 90.3843 154.602C90.3843 154.36 90.7363 154.096 91.1983 153.788C91.4183 153.832 91.6603 153.832 91.9243 153.832C94.0583 153.832 96.3243 152.666 96.3243 150.488C96.3243 149.608 95.9063 149.014 95.5983 148.662C95.8623 148.706 96.1703 148.728 96.4123 148.728H97.6003L97.4463 146.99C97.4463 146.99 96.7863 147.21 96.1263 147.21H94.9823C93.8823 147.21 93.3103 146.792 92.1003 146.792C89.8783 146.792 87.8763 148.046 87.8763 150.268C87.8763 151.61 88.6023 152.776 89.8563 153.392C89.0423 153.854 88.2943 154.514 88.2943 155.24ZM92.1663 157.22C94.0143 157.704 95.0483 157.99 95.0483 158.848C95.0483 159.838 93.6403 160.63 91.8803 160.63C90.6263 160.63 89.3503 160.234 89.3503 159.244C89.3503 158.254 90.5603 157.594 91.5063 157.066C91.7263 157.11 91.9463 157.154 92.1663 157.22ZM92.0783 152.292C90.6703 152.292 90.0103 151.28 90.0103 150.334C90.0103 149.3 90.7583 148.332 92.0783 148.332C93.4863 148.332 94.1683 149.476 94.1683 150.444C94.1683 151.566 93.2883 152.292 92.0783 152.292ZM98.8292 152.182C98.8292 154.844 100.523 157.264 103.845 157.264C106.331 157.264 107.849 155.834 107.849 155.834L107.233 154.25C107.233 154.25 105.847 155.482 104.175 155.482C102.437 155.482 101.337 154.316 101.095 152.512L106.529 151.786L107.783 151.434C107.783 148.42 106.067 146.792 103.691 146.792C100.787 146.792 98.8292 149.146 98.8292 152.182ZM103.537 148.486C105.275 148.486 105.407 150.51 105.407 150.51L101.095 151.06C101.293 149.608 102.129 148.486 103.537 148.486ZM109.57 156.384C109.57 156.384 110.802 157.264 112.87 157.264C115.312 157.264 116.742 156.054 116.742 154.25C116.742 151.082 111.968 151.236 111.968 149.498C111.968 148.926 112.452 148.508 113.552 148.508C114.828 148.508 115.972 149.124 115.972 149.124L116.478 147.342C116.478 147.342 115.378 146.792 113.64 146.792C110.89 146.792 109.79 148.134 109.79 149.674C109.79 152.798 114.564 152.666 114.564 154.448C114.564 155.086 114.014 155.548 112.848 155.548C111.242 155.548 110.032 154.536 110.032 154.536L109.57 156.384Z" fill="#333333"/>
<path d="M59.002 366H62.962C68.242 366 71.916 363.36 71.916 358.432C71.916 353.218 67.78 351.326 63.798 351.326H59.002V366ZM61.268 364.108V353.218H63.49C67.472 353.218 69.518 355.352 69.518 358.608C69.518 361.666 67.692 364.108 62.742 364.108H61.268ZM73.692 361.072C73.692 363.712 75.474 366.264 78.774 366.264C82.36 366.264 83.944 363.25 83.944 360.83C83.944 358.278 82.162 355.792 78.862 355.792C75.298 355.792 73.692 358.586 73.692 361.072ZM75.958 360.874C75.958 358.894 77.124 357.53 78.818 357.53C80.842 357.53 81.678 359.356 81.678 361.116C81.678 363.118 80.512 364.526 78.84 364.526C76.86 364.526 75.958 362.722 75.958 360.874ZM87.4408 353.68C88.2328 353.68 88.8268 353.108 88.8268 352.338C88.8268 351.568 88.2328 350.996 87.4408 350.996C86.6708 350.996 86.0768 351.568 86.0768 352.338C86.0768 353.108 86.6708 353.68 87.4408 353.68ZM86.3408 366H88.5188V356.056H86.3408V366ZM91.5819 366H93.7599V359.554C94.4419 358.894 95.8499 357.684 96.9499 357.684C97.6979 357.684 98.1379 358.212 98.1379 359.62V366H100.316V358.828C100.316 356.694 99.2379 355.792 97.6759 355.792C95.8499 355.792 94.4199 357.002 93.7159 357.772V355.88L91.5819 356.232V366ZM103.226 364.24C103.226 364.922 103.864 365.318 104.854 365.648C103.798 366.198 102.324 367.144 102.324 368.596C102.324 370.334 104.48 371.214 106.68 371.214C109.672 371.214 112.114 369.52 112.114 367.518C112.114 365.692 110.112 365.142 108.352 364.702C106.284 364.196 105.316 363.998 105.316 363.602C105.316 363.36 105.668 363.096 106.13 362.788C106.35 362.832 106.592 362.832 106.856 362.832C108.99 362.832 111.256 361.666 111.256 359.488C111.256 358.608 110.838 358.014 110.53 357.662C110.794 357.706 111.102 357.728 111.344 357.728H112.532L112.378 355.99C112.378 355.99 111.718 356.21 111.058 356.21H109.914C108.814 356.21 108.242 355.792 107.032 355.792C104.81 355.792 102.808 357.046 102.808 359.268C102.808 360.61 103.534 361.776 104.788 362.392C103.974 362.854 103.226 363.514 103.226 364.24ZM107.098 366.22C108.946 366.704 109.98 366.99 109.98 367.848C109.98 368.838 108.572 369.63 106.812 369.63C105.558 369.63 104.282 369.234 104.282 368.244C104.282 367.254 105.492 366.594 106.438 366.066C106.658 366.11 106.878 366.154 107.098 366.22ZM107.01 361.292C105.602 361.292 104.942 360.28 104.942 359.334C104.942 358.3 105.69 357.332 107.01 357.332C108.418 357.332 109.1 358.476 109.1 359.444C109.1 360.566 108.22 361.292 107.01 361.292Z" fill="#333333"/>
<rect x="167.5" y="342.5" width="44" height="39" fill="#EFE8DF" stroke="#828282"/>
<rect x="604.5" y="342.5" width="44" height="39" fill="#EFE8DF" stroke="#828282"/>
<rect x="386.5" y="342.5" width="44" height="39" fill="#EFE8DF" stroke="#828282"/>
<rect x="222.5" y="342.5" width="44" height="39" fill="#EFE8DF" stroke="#828282"/>
<rect x="659.5" y="342.5" width="44" height="39" fill="#EFE8DF" stroke="#828282"/>
<rect x="441.5" y="342.5" width="44" height="39" fill="#EFE8DF" stroke="#828282"/>
<rect x="331.5" y="342.5" width="44" height="39" fill="#EFE8DF" stroke="#828282"/>
<rect x="768.5" y="342.5" width="44" height="39" fill="#EFE8DF" stroke="#828282"/>
<rect x="550.5" y="342.5" width="44" height="39" fill="#EFE8DF" stroke="#828282"/>
<rect x="276.5" y="342.5" width="44" height="39" fill="#EFE8DF" stroke="#828282"/>
<rect x="713.5" y="342.5" width="44" height="39" fill="#EFE8DF" stroke="#828282"/>
<rect x="495.5" y="342.5" width="44" height="39" fill="#EFE8DF" stroke="#828282"/>
<rect x="167.5" y="296.5" width="44" height="39" fill="#D9DFE9" stroke="#828282"/>
<rect x="604.5" y="296.5" width="44" height="39" fill="#D9DFE9" stroke="#828282"/>
<rect x="386.5" y="296.5" width="44" height="39" fill="#D9DFE9" stroke="#828282"/>
<rect x="222.5" y="296.5" width="44" height="39" fill="#D9DFE9" stroke="#828282"/>
<rect x="659.5" y="296.5" width="44" height="39" fill="#D9DFE9" stroke="#828282"/>
<rect x="441.5" y="296.5" width="44" height="39" fill="#D9DFE9" stroke="#828282"/>
<rect x="331.5" y="296.5" width="44" height="39" fill="#D9DFE9" stroke="#828282"/>
<rect x="768.5" y="296.5" width="44" height="39" fill="#D9DFE9" stroke="#828282"/>
<rect x="550.5" y="296.5" width="44" height="39" fill="#D9DFE9" stroke="#828282"/>
<rect x="276.5" y="296.5" width="44" height="39" fill="#D9DFE9" stroke="#828282"/>
<rect x="713.5" y="296.5" width="44" height="39" fill="#D9DFE9" stroke="#828282"/>
<rect x="495.5" y="296.5" width="44" height="39" fill="#D9DFE9" stroke="#828282"/>
<rect x="167.5" y="140.5" width="208" height="21" fill="#D9DFE9" stroke="#828282"/>
<rect x="386.5" y="140.5" width="99" height="21" fill="#D9DFE9" stroke="#828282"/>
<rect x="496.5" y="140.5" width="152" height="21" fill="#D9DFE9" stroke="#828282"/>
<rect x="659.5" y="140.5" width="153" height="21" fill="#D9DFE9" stroke="#828282"/>
<path d="M825.82 182H834V180.28H827.88V176.08H832.66V174.34H827.88V170.38H833.94V168.66H825.82V182ZM836.718 182H838.738V171.9L845.938 182H848.018V168.66H845.998V178.88L838.798 168.66H836.718V182ZM851.66 182H855.26C860.06 182 863.4 179.6 863.4 175.12C863.4 170.38 859.64 168.66 856.02 168.66H851.66V182ZM853.72 180.28V170.38H855.74C859.36 170.38 861.22 172.32 861.22 175.28C861.22 178.06 859.56 180.28 855.06 180.28H853.72ZM865.412 177.72H870.292V176.2H865.412V177.72ZM875.229 182H877.269V170.38H881.889V168.66H870.649V170.38H875.229V182ZM881.407 182H883.467L884.767 178.44H890.087L891.407 182H893.527L888.447 168.56H886.487L881.407 182ZM887.427 171.2L889.467 176.72H885.407L887.427 171.2ZM894.607 181.12C894.607 181.12 896.207 182.24 898.567 182.24C901.027 182.24 903.067 180.94 903.067 178.56C903.067 174.34 896.907 174.62 896.907 171.84C896.907 170.78 897.947 170.22 899.267 170.22C900.847 170.22 902.367 170.9 902.367 170.9L902.787 169.02C902.787 169.02 901.087 168.42 899.287 168.42C896.447 168.42 894.827 170.06 894.827 172.06C894.827 176.1 900.987 175.98 900.987 178.72C900.987 179.84 899.867 180.44 898.587 180.44C896.667 180.44 895.187 179.24 895.187 179.24L894.607 181.12ZM905.781 182H907.841V175.88H908.161L913.301 182H915.961L909.921 174.92L915.701 168.66H913.121L908.161 174.14H907.841V168.66H905.781V182ZM921.658 175.54C921.658 179.68 924.898 182.24 928.938 182.24C930.918 182.24 933.558 181.62 933.558 181.62V174.96H928.738V176.68H931.518V180.18C931.518 180.18 930.338 180.46 929.178 180.46C925.978 180.46 923.798 178.4 923.798 175.38C923.798 172.68 925.538 170.2 928.938 170.2C931.118 170.2 932.718 171.2 932.718 171.2L933.518 169.42C933.518 169.42 931.738 168.42 929.038 168.42C924.318 168.42 921.658 171.78 921.658 175.54ZM935.701 175.36C935.701 179.04 938.441 182.24 942.661 182.24C947.021 182.24 949.861 178.82 949.861 175.08C949.861 171.4 947.141 168.42 942.841 168.42C938.261 168.42 935.701 171.84 935.701 175.36ZM937.881 175.26C937.881 172.7 939.621 170.18 942.781 170.18C945.941 170.18 947.681 172.66 947.681 175.24C947.681 177.84 945.861 180.48 942.721 180.48C939.561 180.48 937.881 177.74 937.881 175.26ZM950.802 182H952.862L954.162 178.44H959.482L960.802 182H962.922L957.842 168.56H955.882L950.802 182ZM956.822 171.2L958.862 176.72H954.802L956.822 171.2ZM964.941 182H973.241V180.28H967.001V168.66H964.941V182ZM825.82 209H827.88V203.2H832.58V201.42H827.88V197.38H833.82V195.66H825.82V209ZM834.488 204.62C834.488 207.04 836.028 209.24 839.048 209.24C841.308 209.24 842.688 207.94 842.688 207.94L842.128 206.5C842.128 206.5 840.868 207.62 839.348 207.62C837.768 207.62 836.768 206.56 836.548 204.92L841.488 204.26L842.628 203.94C842.628 201.2 841.068 199.72 838.908 199.72C836.268 199.72 834.488 201.86 834.488 204.62ZM838.768 201.26C840.348 201.26 840.468 203.1 840.468 203.1L836.548 203.6C836.728 202.28 837.488 201.26 838.768 201.26ZM844.292 204.62C844.292 207.04 845.832 209.24 848.852 209.24C851.112 209.24 852.492 207.94 852.492 207.94L851.932 206.5C851.932 206.5 850.672 207.62 849.152 207.62C847.572 207.62 846.572 206.56 846.352 204.92L851.292 204.26L852.432 203.94C852.432 201.2 850.872 199.72 848.712 199.72C846.072 199.72 844.292 201.86 844.292 204.62ZM848.572 201.26C850.152 201.26 850.272 203.1 850.272 203.1L846.352 203.6C846.532 202.28 847.292 201.26 848.572 201.26ZM854.697 209H856.677V194.7L854.697 195.02V209ZM863.706 204.62C863.706 207.04 865.246 209.24 868.266 209.24C870.526 209.24 871.906 207.94 871.906 207.94L871.346 206.5C871.346 206.5 870.086 207.62 868.566 207.62C866.986 207.62 865.986 206.56 865.766 204.92L870.706 204.26L871.846 203.94C871.846 201.2 870.286 199.72 868.126 199.72C865.486 199.72 863.706 201.86 863.706 204.62ZM867.986 201.26C869.566 201.26 869.686 203.1 869.686 203.1L865.766 203.6C865.946 202.28 866.706 201.26 867.986 201.26ZM873.511 204.8C873.511 207.28 874.951 209.24 877.451 209.24C878.711 209.24 879.451 208.74 879.911 208.24V213.66L881.891 213.34V200.16C881.891 200.16 880.091 199.72 878.591 199.72C875.171 199.72 873.511 202.16 873.511 204.8ZM877.771 207.58C876.451 207.58 875.571 206.5 875.571 204.66C875.571 202.42 876.811 201.24 878.551 201.24C879.271 201.24 879.911 201.44 879.911 201.44V206.66C879.511 207.02 878.731 207.58 877.771 207.58ZM884.558 206.52C884.558 208.46 885.558 209.24 887.018 209.24C888.678 209.24 889.938 208.18 890.518 207.56C890.618 208.22 890.818 209.16 890.818 209.16L892.738 208.98C892.738 208.98 892.338 207.32 892.338 206.22V199.96H890.358V206.04C889.798 206.56 888.678 207.52 887.658 207.52C886.918 207.52 886.538 207.02 886.538 205.76V199.96H884.558V206.52ZM896.205 197.8C896.925 197.8 897.465 197.28 897.465 196.58C897.465 195.88 896.925 195.36 896.205 195.36C895.505 195.36 894.965 195.88 894.965 196.58C894.965 197.28 895.505 197.8 896.205 197.8ZM895.205 209H897.185V199.96H895.205V209ZM899.969 213.66L901.949 213.34V208.76C902.329 209.04 903.009 209.24 903.849 209.24C906.729 209.24 908.409 206.88 908.409 204.2C908.409 201.74 906.969 199.72 904.589 199.72C903.169 199.72 902.309 200.46 901.889 201.24V199.8L899.969 200.12V213.66ZM904.249 201.36C905.469 201.36 906.329 202.46 906.329 204.34C906.329 206.5 905.189 207.68 903.489 207.68C902.549 207.68 901.949 207.34 901.949 206.66V202.82C902.209 202.44 903.049 201.36 904.249 201.36ZM910.575 213.66L912.555 213.34V208.76C912.935 209.04 913.615 209.24 914.455 209.24C917.335 209.24 919.015 206.88 919.015 204.2C919.015 201.74 917.575 199.72 915.195 199.72C913.775 199.72 912.915 200.46 912.495 201.24V199.8L910.575 200.12V213.66ZM914.855 201.36C916.075 201.36 916.935 202.46 916.935 204.34C916.935 206.5 915.795 207.68 914.095 207.68C913.155 207.68 912.555 207.34 912.555 206.66V202.82C912.815 202.44 913.655 201.36 914.855 201.36ZM920.62 204.62C920.62 207.04 922.16 209.24 925.18 209.24C927.44 209.24 928.82 207.94 928.82 207.94L928.26 206.5C928.26 206.5 927 207.62 925.48 207.62C923.9 207.62 922.9 206.56 922.68 204.92L927.62 204.26L928.76 203.94C928.76 201.2 927.2 199.72 925.04 199.72C922.4 199.72 920.62 201.86 920.62 204.62ZM924.9 201.26C926.48 201.26 926.6 203.1 926.6 203.1L922.68 203.6C922.86 202.28 923.62 201.26 924.9 201.26ZM930.425 204.76C930.425 207.24 931.945 209.24 934.305 209.24C935.745 209.24 936.665 208.54 937.145 207.76C937.245 208.4 937.425 209.14 937.425 209.14L939.325 209C939.325 209 938.925 207.32 938.925 206.22V194.7L936.945 195.02V200.02C936.685 199.92 936.085 199.72 935.265 199.72C932.065 199.72 930.425 202.18 930.425 204.76ZM934.645 207.66C933.365 207.66 932.505 206.52 932.505 204.64C932.505 202.48 933.645 201.28 935.365 201.28C936.185 201.28 936.905 201.58 936.945 202.48V206.2C936.665 206.62 935.865 207.66 934.645 207.66ZM947.052 206.54C947.052 208.4 948.072 209.24 949.632 209.24C951.232 209.24 952.412 208.28 952.412 208.28L951.912 206.78C951.672 206.92 950.832 207.58 950.072 207.58C949.412 207.58 949.032 207.14 949.032 206.04V201.46H951.892V199.96H949.032V197.4L947.092 197.82V199.88L945.712 200.38V201.46H947.052V206.54ZM953.51 204.52C953.51 206.92 955.13 209.24 958.13 209.24C961.39 209.24 962.83 206.5 962.83 204.3C962.83 201.98 961.21 199.72 958.21 199.72C954.97 199.72 953.51 202.26 953.51 204.52ZM955.57 204.34C955.57 202.54 956.63 201.3 958.17 201.3C960.01 201.3 960.77 202.96 960.77 204.56C960.77 206.38 959.71 207.66 958.19 207.66C956.39 207.66 955.57 206.02 955.57 204.34ZM824.76 235.44C824.76 235.44 825.88 236.24 827.76 236.24C829.98 236.24 831.28 235.14 831.28 233.5C831.28 230.62 826.94 230.76 826.94 229.18C826.94 228.66 827.38 228.28 828.38 228.28C829.54 228.28 830.58 228.84 830.58 228.84L831.04 227.22C831.04 227.22 830.04 226.72 828.46 226.72C825.96 226.72 824.96 227.94 824.96 229.34C824.96 232.18 829.3 232.06 829.3 233.68C829.3 234.26 828.8 234.68 827.74 234.68C826.28 234.68 825.18 233.76 825.18 233.76L824.76 235.44ZM833.347 233.52C833.347 235.46 834.347 236.24 835.807 236.24C837.467 236.24 838.727 235.18 839.307 234.56C839.407 235.22 839.607 236.16 839.607 236.16L841.527 235.98C841.527 235.98 841.127 234.32 841.127 233.22V226.96H839.147V233.04C838.587 233.56 837.467 234.52 836.447 234.52C835.707 234.52 835.327 234.02 835.327 232.76V226.96H833.347V233.52ZM843.374 231.6C843.374 234.22 845.194 236.24 848.014 236.24C850.174 236.24 851.214 235.08 851.214 235.08L850.574 233.68C850.574 233.68 849.594 234.62 848.154 234.62C846.454 234.62 845.434 233.28 845.434 231.5C845.434 229.66 846.534 228.32 848.174 228.32C849.494 228.32 850.434 229.16 850.434 229.16L851.214 227.68C851.214 227.68 850.114 226.72 848.134 226.72C845.154 226.72 843.374 229.1 843.374 231.6ZM852.456 231.6C852.456 234.22 854.276 236.24 857.096 236.24C859.256 236.24 860.296 235.08 860.296 235.08L859.656 233.68C859.656 233.68 858.676 234.62 857.236 234.62C855.536 234.62 854.516 233.28 854.516 231.5C854.516 229.66 855.616 228.32 857.256 228.32C858.576 228.32 859.516 229.16 859.516 229.16L860.296 227.68C860.296 227.68 859.196 226.72 857.216 226.72C854.236 226.72 852.456 229.1 852.456 231.6ZM861.558 231.62C861.558 234.04 863.098 236.24 866.118 236.24C868.378 236.24 869.758 234.94 869.758 234.94L869.198 233.5C869.198 233.5 867.938 234.62 866.418 234.62C864.838 234.62 863.838 233.56 863.618 231.92L868.558 231.26L869.698 230.94C869.698 228.2 868.138 226.72 865.978 226.72C863.338 226.72 861.558 228.86 861.558 231.62ZM865.838 228.26C867.418 228.26 867.538 230.1 867.538 230.1L863.618 230.6C863.798 229.28 864.558 228.26 865.838 228.26ZM871.323 235.44C871.323 235.44 872.443 236.24 874.323 236.24C876.543 236.24 877.843 235.14 877.843 233.5C877.843 230.62 873.502 230.76 873.502 229.18C873.502 228.66 873.943 228.28 874.943 228.28C876.103 228.28 877.143 228.84 877.143 228.84L877.603 227.22C877.603 227.22 876.603 226.72 875.023 226.72C872.523 226.72 871.523 227.94 871.523 229.34C871.523 232.18 875.863 232.06 875.863 233.68C875.863 234.26 875.363 234.68 874.303 234.68C872.843 234.68 871.743 233.76 871.743 233.76L871.323 235.44ZM879.369 235.44C879.369 235.44 880.489 236.24 882.369 236.24C884.589 236.24 885.889 235.14 885.889 233.5C885.889 230.62 881.549 230.76 881.549 229.18C881.549 228.66 881.989 228.28 882.989 228.28C884.149 228.28 885.189 228.84 885.189 228.84L885.649 227.22C885.649 227.22 884.649 226.72 883.069 226.72C880.569 226.72 879.569 227.94 879.569 229.34C879.569 232.18 883.909 232.06 883.909 233.68C883.909 234.26 883.409 234.68 882.349 234.68C880.889 234.68 879.789 233.76 879.789 233.76L879.369 235.44ZM887.156 228.46H888.576V236H890.556V228.46H893.056V226.96H890.556V225.88C890.556 223.76 891.516 223.02 892.576 223.02C893.556 223.02 894.436 223.66 894.436 223.66L895.216 222.14C895.216 222.14 894.176 221.38 892.596 221.38C890.236 221.38 888.576 223.04 888.576 226V226.88L887.156 227.4V228.46ZM894.773 233.52C894.773 235.46 895.773 236.24 897.233 236.24C898.893 236.24 900.153 235.18 900.733 234.56C900.833 235.22 901.033 236.16 901.033 236.16L902.953 235.98C902.953 235.98 902.553 234.32 902.553 233.22V226.96H900.573V233.04C900.013 233.56 898.893 234.52 897.873 234.52C897.133 234.52 896.753 234.02 896.753 232.76V226.96H894.773V233.52ZM905.42 236H907.4V221.7L905.42 222.02V236ZM910.224 236H912.204V221.7L910.224 222.02V236ZM913.949 239.16L914.569 240.74C916.689 240.5 918.009 238.6 918.789 236.68L922.709 226.96H920.669L918.329 233.16L915.949 226.96H913.849L917.349 235.54L916.869 236.62C916.329 237.88 915.269 238.94 913.949 239.16ZM929.09 236H931.07V230.12C931.65 229.54 932.89 228.44 933.87 228.44C934.53 228.44 934.89 228.92 934.89 230.2V236H936.87V230.08C937.55 229.42 938.67 228.44 939.59 228.44C940.25 228.44 940.63 228.92 940.63 230.2V236H942.59V229.48C942.59 227.54 941.65 226.72 940.25 226.72C938.67 226.72 937.43 227.78 936.77 228.5C936.49 227.26 935.67 226.72 934.53 226.72C932.93 226.72 931.65 227.82 931.03 228.5V226.8L929.09 227.12V236ZM944.542 233.92C944.542 235.26 945.562 236.24 947.142 236.24C948.902 236.24 949.822 235.12 950.062 234.74C950.322 235.46 950.902 236.04 952.282 236.14L952.882 234.58C952.882 234.58 951.882 234.56 951.882 233.44V229.62C951.882 227.6 951.202 226.72 949.062 226.72C946.682 226.72 945.142 227.86 945.142 227.86L945.662 229.34C945.662 229.34 947.042 228.3 948.522 228.3C949.982 228.3 949.902 229.3 949.902 230.44C946.522 230.88 944.542 232.02 944.542 233.92ZM947.642 234.68C947.062 234.68 946.582 234.42 946.582 233.78C946.582 232.72 947.602 232.06 949.902 231.72V233.28C949.302 233.98 948.562 234.68 947.642 234.68ZM954.833 236H956.813V230.14C957.433 229.54 958.713 228.44 959.713 228.44C960.393 228.44 960.793 228.92 960.793 230.2V236H962.773V229.48C962.773 227.54 961.793 226.72 960.373 226.72C958.713 226.72 957.413 227.82 956.773 228.52V226.8L954.833 227.12V236ZM964.718 233.92C964.718 235.26 965.738 236.24 967.318 236.24C969.078 236.24 969.998 235.12 970.238 234.74C970.498 235.46 971.078 236.04 972.458 236.14L973.058 234.58C973.058 234.58 972.058 234.56 972.058 233.44V229.62C972.058 227.6 971.378 226.72 969.238 226.72C966.858 226.72 965.318 227.86 965.318 227.86L965.838 229.34C965.838 229.34 967.218 228.3 968.698 228.3C970.158 228.3 970.078 229.3 970.078 230.44C966.698 230.88 964.718 232.02 964.718 233.92ZM967.818 234.68C967.238 234.68 966.758 234.42 966.758 233.78C966.758 232.72 967.778 232.06 970.078 231.72V233.28C969.478 233.98 968.738 234.68 967.818 234.68ZM974.988 234.4C974.988 235.02 975.568 235.38 976.468 235.68C975.508 236.18 974.168 237.04 974.168 238.36C974.168 239.94 976.128 240.74 978.128 240.74C980.848 240.74 983.068 239.2 983.068 237.38C983.068 235.72 981.248 235.22 979.648 234.82C977.768 234.36 976.888 234.18 976.888 233.82C976.888 233.6 977.208 233.36 977.628 233.08C977.828 233.12 978.048 233.12 978.288 233.12C980.228 233.12 982.288 232.06 982.288 230.08C982.288 229.28 981.908 228.74 981.628 228.42C981.868 228.46 982.148 228.48 982.368 228.48H983.448L983.308 226.9C983.308 226.9 982.708 227.1 982.108 227.1H981.068C980.068 227.1 979.548 226.72 978.448 226.72C976.428 226.72 974.608 227.86 974.608 229.88C974.608 231.1 975.268 232.16 976.408 232.72C975.668 233.14 974.988 233.74 974.988 234.4ZM978.508 236.2C980.188 236.64 981.128 236.9 981.128 237.68C981.128 238.58 979.848 239.3 978.248 239.3C977.108 239.3 975.948 238.94 975.948 238.04C975.948 237.14 977.048 236.54 977.908 236.06C978.108 236.1 978.308 236.14 978.508 236.2ZM978.428 231.72C977.148 231.72 976.548 230.8 976.548 229.94C976.548 229 977.228 228.12 978.428 228.12C979.708 228.12 980.328 229.16 980.328 230.04C980.328 231.06 979.528 231.72 978.428 231.72ZM984.566 231.62C984.566 234.04 986.106 236.24 989.126 236.24C991.386 236.24 992.766 234.94 992.766 234.94L992.206 233.5C992.206 233.5 990.946 234.62 989.426 234.62C987.846 234.62 986.846 233.56 986.626 231.92L991.566 231.26L992.706 230.94C992.706 228.2 991.146 226.72 988.986 226.72C986.346 226.72 984.566 228.86 984.566 231.62ZM988.846 228.26C990.426 228.26 990.546 230.1 990.546 230.1L986.626 230.6C986.806 229.28 987.566 228.26 988.846 228.26ZM824.64 260.92C824.64 262.26 825.66 263.24 827.24 263.24C829 263.24 829.92 262.12 830.16 261.74C830.42 262.46 831 263.04 832.38 263.14L832.98 261.58C832.98 261.58 831.98 261.56 831.98 260.44V256.62C831.98 254.6 831.3 253.72 829.16 253.72C826.78 253.72 825.24 254.86 825.24 254.86L825.76 256.34C825.76 256.34 827.14 255.3 828.62 255.3C830.08 255.3 830 256.3 830 257.44C826.62 257.88 824.64 259.02 824.64 260.92ZM827.74 261.68C827.16 261.68 826.68 261.42 826.68 260.78C826.68 259.72 827.7 259.06 830 258.72V260.28C829.4 260.98 828.66 261.68 827.74 261.68ZM839.155 258.6C839.155 261.22 840.975 263.24 843.795 263.24C845.955 263.24 846.995 262.08 846.995 262.08L846.355 260.68C846.355 260.68 845.375 261.62 843.935 261.62C842.235 261.62 841.215 260.28 841.215 258.5C841.215 256.66 842.315 255.32 843.955 255.32C845.275 255.32 846.215 256.16 846.215 256.16L846.995 254.68C846.995 254.68 845.895 253.72 843.915 253.72C840.935 253.72 839.155 256.1 839.155 258.6ZM848.994 263H850.974V257.18C851.574 256.58 852.874 255.44 853.874 255.44C854.554 255.44 854.954 255.92 854.954 257.2V263H856.934V256.48C856.934 254.54 855.954 253.72 854.514 253.72C852.854 253.72 851.574 254.84 850.974 255.48V248.7L848.994 249.02V263ZM859.598 263H861.578V257.4C861.958 256.8 862.778 255.72 863.778 255.72C864.178 255.72 864.578 255.88 864.578 255.88L864.978 253.88C864.978 253.88 864.698 253.72 864.198 253.72C862.818 253.72 861.898 255 861.538 255.62V253.8L859.598 254.12V263ZM865.815 258.52C865.815 260.92 867.435 263.24 870.435 263.24C873.695 263.24 875.135 260.5 875.135 258.3C875.135 255.98 873.515 253.72 870.515 253.72C867.275 253.72 865.815 256.26 865.815 258.52ZM867.875 258.34C867.875 256.54 868.935 255.3 870.475 255.3C872.315 255.3 873.075 256.96 873.075 258.56C873.075 260.38 872.015 261.66 870.495 261.66C868.695 261.66 867.875 260.02 867.875 258.34ZM877.274 263H879.254V257.14C879.874 256.54 881.154 255.44 882.154 255.44C882.834 255.44 883.234 255.92 883.234 257.2V263H885.214V256.48C885.214 254.54 884.234 253.72 882.814 253.72C881.154 253.72 879.854 254.82 879.214 255.52V253.8L877.274 254.12V263ZM888.92 251.8C889.64 251.8 890.18 251.28 890.18 250.58C890.18 249.88 889.64 249.36 888.92 249.36C888.22 249.36 887.68 249.88 887.68 250.58C887.68 251.28 888.22 251.8 888.92 251.8ZM887.92 263H889.9V253.96H887.92V263ZM892.104 258.6C892.104 261.22 893.924 263.24 896.744 263.24C898.904 263.24 899.944 262.08 899.944 262.08L899.304 260.68C899.304 260.68 898.324 261.62 896.884 261.62C895.184 261.62 894.164 260.28 894.164 258.5C894.164 256.66 895.264 255.32 896.904 255.32C898.224 255.32 899.164 256.16 899.164 256.16L899.944 254.68C899.944 254.68 898.844 253.72 896.864 253.72C893.884 253.72 892.104 256.1 892.104 258.6ZM907.748 251.8C908.468 251.8 909.008 251.28 909.008 250.58C909.008 249.88 908.468 249.36 907.748 249.36C907.048 249.36 906.508 249.88 906.508 250.58C906.508 251.28 907.048 251.8 907.748 251.8ZM906.748 263H908.728V253.96H906.748V263ZM911.552 263H913.532V248.7L911.552 249.02V263ZM916.357 263H918.337V248.7L916.357 249.02V263ZM921.122 263H923.102V257.14C923.722 256.54 925.002 255.44 926.002 255.44C926.682 255.44 927.082 255.92 927.082 257.2V263H929.062V256.48C929.062 254.54 928.082 253.72 926.662 253.72C925.002 253.72 923.702 254.82 923.062 255.52V253.8L921.122 254.12V263ZM931.167 258.62C931.167 261.04 932.707 263.24 935.727 263.24C937.987 263.24 939.367 261.94 939.367 261.94L938.807 260.5C938.807 260.5 937.547 261.62 936.027 261.62C934.447 261.62 933.447 260.56 933.227 258.92L938.167 258.26L939.307 257.94C939.307 255.2 937.747 253.72 935.587 253.72C932.947 253.72 931.167 255.86 931.167 258.62ZM935.447 255.26C937.027 255.26 937.147 257.1 937.147 257.1L933.227 257.6C933.407 256.28 934.167 255.26 935.447 255.26ZM940.932 262.44C940.932 262.44 942.052 263.24 943.932 263.24C946.152 263.24 947.452 262.14 947.452 260.5C947.452 257.62 943.112 257.76 943.112 256.18C943.112 255.66 943.552 255.28 944.552 255.28C945.712 255.28 946.752 255.84 946.752 255.84L947.212 254.22C947.212 254.22 946.212 253.72 944.632 253.72C942.132 253.72 941.132 254.94 941.132 256.34C941.132 259.18 945.472 259.06 945.472 260.68C945.472 261.26 944.972 261.68 943.912 261.68C942.452 261.68 941.352 260.76 941.352 260.76L940.932 262.44ZM948.979 262.44C948.979 262.44 950.099 263.24 951.979 263.24C954.199 263.24 955.499 262.14 955.499 260.5C955.499 257.62 951.159 257.76 951.159 256.18C951.159 255.66 951.599 255.28 952.599 255.28C953.759 255.28 954.799 255.84 954.799 255.84L955.259 254.22C955.259 254.22 954.259 253.72 952.679 253.72C950.179 253.72 949.179 254.94 949.179 256.34C949.179 259.18 953.519 259.06 953.519 260.68C953.519 261.26 953.019 261.68 951.959 261.68C950.499 261.68 949.399 260.76 949.399 260.76L948.979 262.44ZM957.366 261.9C957.366 262.64 957.966 263.24 958.706 263.24C959.446 263.24 960.066 262.64 960.066 261.9C960.066 261.14 959.446 260.54 958.706 260.54C957.966 260.54 957.366 261.14 957.366 261.9Z" fill="#333333"/>
</svg>
