<svg width="1061" height="434" viewBox="0 0 1061 434" fill="none" xmlns="http://www.w3.org/2000/svg">
<rect x="1" y="1" width="1059" height="432" fill="#FAFAFA" stroke="#BDBDBD" stroke-width="2"/>
<path d="M167 232C419.279 232 560.721 232 813 232" stroke="#ECECEC" stroke-width="4"/>
<path d="M40 119V398C427.791 398 645.209 398 1033 398" stroke="#BDBDBD" stroke-width="2"/>
<path d="M62.412 322H64.656V309.218H69.738V307.326H57.374V309.218H62.412V322ZM71.6455 322H73.8235V315.598C74.4835 314.938 75.9135 313.684 77.0135 313.684C77.7615 313.684 78.2015 314.212 78.2015 315.62V322H80.3795V314.828C80.3795 312.694 79.3015 311.792 77.7175 311.792C75.8915 311.792 74.4835 313.024 73.8235 313.728V306.27L71.6455 306.622V322ZM84.4545 309.68C85.2465 309.68 85.8405 309.108 85.8405 308.338C85.8405 307.568 85.2465 306.996 84.4545 306.996C83.6845 306.996 83.0905 307.568 83.0905 308.338C83.0905 309.108 83.6845 309.68 84.4545 309.68ZM83.3545 322H85.5325V312.056H83.3545V322ZM88.5956 322H90.7736V315.554C91.4556 314.894 92.8636 313.684 93.9636 313.684C94.7116 313.684 95.1516 314.212 95.1516 315.62V322H97.3296V314.828C97.3296 312.694 96.2516 311.792 94.6896 311.792C92.8636 311.792 91.4336 313.002 90.7296 313.772V311.88L88.5956 312.232V322ZM100.306 322H102.484V317.292H102.792L106.752 322H109.546L104.706 316.412L109.238 312.056H106.4L102.792 315.686H102.484V306.27L100.306 306.622V322ZM112.277 309.68C113.069 309.68 113.663 309.108 113.663 308.338C113.663 307.568 113.069 306.996 112.277 306.996C111.507 306.996 110.913 307.568 110.913 308.338C110.913 309.108 111.507 309.68 112.277 309.68ZM111.177 322H113.355V312.056H111.177V322ZM116.418 322H118.596V315.554C119.278 314.894 120.686 313.684 121.786 313.684C122.534 313.684 122.974 314.212 122.974 315.62V322H125.152V314.828C125.152 312.694 124.074 311.792 122.512 311.792C120.686 311.792 119.256 313.002 118.552 313.772V311.88L116.418 312.232V322ZM128.062 320.24C128.062 320.922 128.7 321.318 129.69 321.648C128.634 322.198 127.16 323.144 127.16 324.596C127.16 326.334 129.316 327.214 131.516 327.214C134.508 327.214 136.95 325.52 136.95 323.518C136.95 321.692 134.948 321.142 133.188 320.702C131.12 320.196 130.152 319.998 130.152 319.602C130.152 319.36 130.504 319.096 130.966 318.788C131.186 318.832 131.428 318.832 131.692 318.832C133.826 318.832 136.092 317.666 136.092 315.488C136.092 314.608 135.674 314.014 135.366 313.662C135.63 313.706 135.938 313.728 136.18 313.728H137.368L137.214 311.99C137.214 311.99 136.554 312.21 135.894 312.21H134.75C133.65 312.21 133.078 311.792 131.868 311.792C129.646 311.792 127.644 313.046 127.644 315.268C127.644 316.61 128.37 317.776 129.624 318.392C128.81 318.854 128.062 319.514 128.062 320.24ZM131.934 322.22C133.782 322.704 134.816 322.99 134.816 323.848C134.816 324.838 133.408 325.63 131.648 325.63C130.394 325.63 129.118 325.234 129.118 324.244C129.118 323.254 130.328 322.594 131.274 322.066C131.494 322.11 131.714 322.154 131.934 322.22ZM131.846 317.292C130.438 317.292 129.778 316.28 129.778 315.334C129.778 314.3 130.526 313.332 131.846 313.332C133.254 313.332 133.936 314.476 133.936 315.444C133.936 316.566 133.056 317.292 131.846 317.292Z" fill="#333333"/>
<path d="M59.002 232H61.268V225.62H66.438V223.662H61.268V219.218H67.802V217.326H59.002V232ZM68.5363 227.182C68.5363 229.844 70.2303 232.264 73.5523 232.264C76.0383 232.264 77.5563 230.834 77.5563 230.834L76.9403 229.25C76.9403 229.25 75.5543 230.482 73.8823 230.482C72.1443 230.482 71.0443 229.316 70.8023 227.512L76.2363 226.786L77.4903 226.434C77.4903 223.42 75.7743 221.792 73.3983 221.792C70.4943 221.792 68.5363 224.146 68.5363 227.182ZM73.2443 223.486C74.9823 223.486 75.1143 225.51 75.1143 225.51L70.8023 226.06C71.0003 224.608 71.8363 223.486 73.2443 223.486ZM79.3214 227.182C79.3214 229.844 81.0154 232.264 84.3374 232.264C86.8234 232.264 88.3414 230.834 88.3414 230.834L87.7254 229.25C87.7254 229.25 86.3394 230.482 84.6674 230.482C82.9294 230.482 81.8294 229.316 81.5874 227.512L87.0214 226.786L88.2754 226.434C88.2754 223.42 86.5594 221.792 84.1834 221.792C81.2794 221.792 79.3214 224.146 79.3214 227.182ZM84.0294 223.486C85.7674 223.486 85.8994 225.51 85.8994 225.51L81.5874 226.06C81.7854 224.608 82.6214 223.486 84.0294 223.486ZM90.7666 232H92.9446V216.27L90.7666 216.622V232ZM97.1517 219.68C97.9437 219.68 98.5377 219.108 98.5377 218.338C98.5377 217.568 97.9437 216.996 97.1517 216.996C96.3817 216.996 95.7877 217.568 95.7877 218.338C95.7877 219.108 96.3817 219.68 97.1517 219.68ZM96.0517 232H98.2297V222.056H96.0517V232ZM101.293 232H103.471V225.554C104.153 224.894 105.561 223.684 106.661 223.684C107.409 223.684 107.849 224.212 107.849 225.62V232H110.027V224.828C110.027 222.694 108.949 221.792 107.387 221.792C105.561 221.792 104.131 223.002 103.427 223.772V221.88L101.293 222.232V232ZM112.937 230.24C112.937 230.922 113.575 231.318 114.565 231.648C113.509 232.198 112.035 233.144 112.035 234.596C112.035 236.334 114.191 237.214 116.391 237.214C119.383 237.214 121.825 235.52 121.825 233.518C121.825 231.692 119.823 231.142 118.063 230.702C115.995 230.196 115.027 229.998 115.027 229.602C115.027 229.36 115.379 229.096 115.841 228.788C116.061 228.832 116.303 228.832 116.567 228.832C118.701 228.832 120.967 227.666 120.967 225.488C120.967 224.608 120.549 224.014 120.241 223.662C120.505 223.706 120.813 223.728 121.055 223.728H122.243L122.089 221.99C122.089 221.99 121.429 222.21 120.769 222.21H119.625C118.525 222.21 117.953 221.792 116.743 221.792C114.521 221.792 112.519 223.046 112.519 225.268C112.519 226.61 113.245 227.776 114.499 228.392C113.685 228.854 112.937 229.514 112.937 230.24ZM116.809 232.22C118.657 232.704 119.691 232.99 119.691 233.848C119.691 234.838 118.283 235.63 116.523 235.63C115.269 235.63 113.993 235.234 113.993 234.244C113.993 233.254 115.203 232.594 116.149 232.066C116.369 232.11 116.589 232.154 116.809 232.22ZM116.721 227.292C115.313 227.292 114.653 226.28 114.653 225.334C114.653 224.3 115.401 223.332 116.721 223.332C118.129 223.332 118.811 224.476 118.811 225.444C118.811 226.566 117.931 227.292 116.721 227.292Z" fill="#333333"/>
<path d="M167.616 194.226H171.906V199H173.578V194.226H177.802V192.642H173.578V188.176H171.906V192.642H167.616V194.226Z" fill="#2D9CDB"/>
<path d="M169.188 264.292H174.556V262.62H169.188V264.292Z" fill="#2D9CDB"/>
<path d="M182 231.001C193 217.335 228.478 193.171 244.5 190.501C268.5 186.501 279.5 196.784 298 211.5C320 229 370.5 215.003 403 231.001C435.5 247 433.896 262.5 464 262.5C490 262.5 506 243.001 518 231.001C535 214.003 540.5 197.854 566.5 190.501C579.57 186.804 606 247.501 624.5 262.5C643 277.499 656.5 279 680.5 279C689.7 279 705.5 261.502 734 232.5C752.5 210.5 766.5 192 793.5 178" stroke="#2F80ED" stroke-width="2" stroke-linecap="round"/>
<circle cx="790.5" cy="177.5" r="5.5" fill="#2F80ED"/>
<path d="M57.968 156.032C57.968 156.032 59.728 157.264 62.324 157.264C65.03 157.264 67.274 155.834 67.274 153.216C67.274 148.574 60.498 148.882 60.498 145.824C60.498 144.658 61.642 144.042 63.094 144.042C64.832 144.042 66.504 144.79 66.504 144.79L66.966 142.722C66.966 142.722 65.096 142.062 63.116 142.062C59.992 142.062 58.21 143.866 58.21 146.066C58.21 150.51 64.986 150.378 64.986 153.392C64.986 154.624 63.754 155.284 62.346 155.284C60.234 155.284 58.606 153.964 58.606 153.964L57.968 156.032ZM70.0465 154.294C70.0465 156.34 71.1685 157.264 72.8845 157.264C74.6445 157.264 75.9425 156.208 75.9425 156.208L75.3925 154.558C75.1285 154.712 74.2045 155.438 73.3685 155.438C72.6425 155.438 72.2245 154.954 72.2245 153.744V148.706H75.3705V147.056H72.2245V144.24L70.0905 144.702V146.968L68.5725 147.518V148.706H70.0465V154.294ZM76.997 154.712C76.997 156.186 78.119 157.264 79.857 157.264C81.793 157.264 82.805 156.032 83.069 155.614C83.355 156.406 83.993 157.044 85.511 157.154L86.171 155.438C86.171 155.438 85.071 155.416 85.071 154.184V149.982C85.071 147.76 84.323 146.792 81.969 146.792C79.351 146.792 77.657 148.046 77.657 148.046L78.229 149.674C78.229 149.674 79.747 148.53 81.375 148.53C82.981 148.53 82.893 149.63 82.893 150.884C79.175 151.368 76.997 152.622 76.997 154.712ZM80.407 155.548C79.769 155.548 79.241 155.262 79.241 154.558C79.241 153.392 80.363 152.666 82.893 152.292V154.008C82.233 154.778 81.419 155.548 80.407 155.548ZM88.2943 155.24C88.2943 155.922 88.9323 156.318 89.9223 156.648C88.8663 157.198 87.3923 158.144 87.3923 159.596C87.3923 161.334 89.5483 162.214 91.7483 162.214C94.7403 162.214 97.1823 160.52 97.1823 158.518C97.1823 156.692 95.1803 156.142 93.4203 155.702C91.3523 155.196 90.3843 154.998 90.3843 154.602C90.3843 154.36 90.7363 154.096 91.1983 153.788C91.4183 153.832 91.6603 153.832 91.9243 153.832C94.0583 153.832 96.3243 152.666 96.3243 150.488C96.3243 149.608 95.9063 149.014 95.5983 148.662C95.8623 148.706 96.1703 148.728 96.4123 148.728H97.6003L97.4463 146.99C97.4463 146.99 96.7863 147.21 96.1263 147.21H94.9823C93.8823 147.21 93.3103 146.792 92.1003 146.792C89.8783 146.792 87.8763 148.046 87.8763 150.268C87.8763 151.61 88.6023 152.776 89.8563 153.392C89.0423 153.854 88.2943 154.514 88.2943 155.24ZM92.1663 157.22C94.0143 157.704 95.0483 157.99 95.0483 158.848C95.0483 159.838 93.6403 160.63 91.8803 160.63C90.6263 160.63 89.3503 160.234 89.3503 159.244C89.3503 158.254 90.5603 157.594 91.5063 157.066C91.7263 157.11 91.9463 157.154 92.1663 157.22ZM92.0783 152.292C90.6703 152.292 90.0103 151.28 90.0103 150.334C90.0103 149.3 90.7583 148.332 92.0783 148.332C93.4863 148.332 94.1683 149.476 94.1683 150.444C94.1683 151.566 93.2883 152.292 92.0783 152.292ZM98.8292 152.182C98.8292 154.844 100.523 157.264 103.845 157.264C106.331 157.264 107.849 155.834 107.849 155.834L107.233 154.25C107.233 154.25 105.847 155.482 104.175 155.482C102.437 155.482 101.337 154.316 101.095 152.512L106.529 151.786L107.783 151.434C107.783 148.42 106.067 146.792 103.691 146.792C100.787 146.792 98.8292 149.146 98.8292 152.182ZM103.537 148.486C105.275 148.486 105.407 150.51 105.407 150.51L101.095 151.06C101.293 149.608 102.129 148.486 103.537 148.486ZM109.57 156.384C109.57 156.384 110.802 157.264 112.87 157.264C115.312 157.264 116.742 156.054 116.742 154.25C116.742 151.082 111.968 151.236 111.968 149.498C111.968 148.926 112.452 148.508 113.552 148.508C114.828 148.508 115.972 149.124 115.972 149.124L116.478 147.342C116.478 147.342 115.378 146.792 113.64 146.792C110.89 146.792 109.79 148.134 109.79 149.674C109.79 152.798 114.564 152.666 114.564 154.448C114.564 155.086 114.014 155.548 112.848 155.548C111.242 155.548 110.032 154.536 110.032 154.536L109.57 156.384Z" fill="#333333"/>
<path d="M59.002 366H62.962C68.242 366 71.916 363.36 71.916 358.432C71.916 353.218 67.78 351.326 63.798 351.326H59.002V366ZM61.268 364.108V353.218H63.49C67.472 353.218 69.518 355.352 69.518 358.608C69.518 361.666 67.692 364.108 62.742 364.108H61.268ZM73.692 361.072C73.692 363.712 75.474 366.264 78.774 366.264C82.36 366.264 83.944 363.25 83.944 360.83C83.944 358.278 82.162 355.792 78.862 355.792C75.298 355.792 73.692 358.586 73.692 361.072ZM75.958 360.874C75.958 358.894 77.124 357.53 78.818 357.53C80.842 357.53 81.678 359.356 81.678 361.116C81.678 363.118 80.512 364.526 78.84 364.526C76.86 364.526 75.958 362.722 75.958 360.874ZM87.4408 353.68C88.2328 353.68 88.8268 353.108 88.8268 352.338C88.8268 351.568 88.2328 350.996 87.4408 350.996C86.6708 350.996 86.0768 351.568 86.0768 352.338C86.0768 353.108 86.6708 353.68 87.4408 353.68ZM86.3408 366H88.5188V356.056H86.3408V366ZM91.5819 366H93.7599V359.554C94.4419 358.894 95.8499 357.684 96.9499 357.684C97.6979 357.684 98.1379 358.212 98.1379 359.62V366H100.316V358.828C100.316 356.694 99.2379 355.792 97.6759 355.792C95.8499 355.792 94.4199 357.002 93.7159 357.772V355.88L91.5819 356.232V366ZM103.226 364.24C103.226 364.922 103.864 365.318 104.854 365.648C103.798 366.198 102.324 367.144 102.324 368.596C102.324 370.334 104.48 371.214 106.68 371.214C109.672 371.214 112.114 369.52 112.114 367.518C112.114 365.692 110.112 365.142 108.352 364.702C106.284 364.196 105.316 363.998 105.316 363.602C105.316 363.36 105.668 363.096 106.13 362.788C106.35 362.832 106.592 362.832 106.856 362.832C108.99 362.832 111.256 361.666 111.256 359.488C111.256 358.608 110.838 358.014 110.53 357.662C110.794 357.706 111.102 357.728 111.344 357.728H112.532L112.378 355.99C112.378 355.99 111.718 356.21 111.058 356.21H109.914C108.814 356.21 108.242 355.792 107.032 355.792C104.81 355.792 102.808 357.046 102.808 359.268C102.808 360.61 103.534 361.776 104.788 362.392C103.974 362.854 103.226 363.514 103.226 364.24ZM107.098 366.22C108.946 366.704 109.98 366.99 109.98 367.848C109.98 368.838 108.572 369.63 106.812 369.63C105.558 369.63 104.282 369.234 104.282 368.244C104.282 367.254 105.492 366.594 106.438 366.066C106.658 366.11 106.878 366.154 107.098 366.22ZM107.01 361.292C105.602 361.292 104.942 360.28 104.942 359.334C104.942 358.3 105.69 357.332 107.01 357.332C108.418 357.332 109.1 358.476 109.1 359.444C109.1 360.566 108.22 361.292 107.01 361.292Z" fill="#333333"/>
<rect x="167.5" y="342.5" width="44" height="39" fill="#EFE8DF" stroke="#828282"/>
<rect x="604.5" y="342.5" width="44" height="39" fill="#EFE8DF" stroke="#828282"/>
<rect x="386.5" y="342.5" width="44" height="39" fill="#EFE8DF" stroke="#828282"/>
<rect x="222.5" y="342.5" width="44" height="39" fill="#EFE8DF" stroke="#828282"/>
<rect x="659.5" y="342.5" width="44" height="39" fill="#EFE8DF" stroke="#828282"/>
<rect x="441.5" y="342.5" width="44" height="39" fill="#EFE8DF" stroke="#828282"/>
<rect x="331.5" y="342.5" width="44" height="39" fill="#EFE8DF" stroke="#828282"/>
<rect x="768.5" y="342.5" width="44" height="39" fill="#EFE8DF" stroke="#828282"/>
<rect x="550.5" y="342.5" width="44" height="39" fill="#EFE8DF" stroke="#828282"/>
<rect x="276.5" y="342.5" width="44" height="39" fill="#EFE8DF" stroke="#828282"/>
<rect x="713.5" y="342.5" width="44" height="39" fill="#EFE8DF" stroke="#828282"/>
<rect x="495.5" y="342.5" width="44" height="39" fill="#EFE8DF" stroke="#828282"/>
<rect x="167.5" y="296.5" width="44" height="39" fill="#D9DFE9" stroke="#828282"/>
<rect x="604.5" y="296.5" width="44" height="39" fill="#D9DFE9" stroke="#828282"/>
<rect x="386.5" y="296.5" width="44" height="39" fill="#D9DFE9" stroke="#828282"/>
<rect x="222.5" y="296.5" width="44" height="39" fill="#D9DFE9" stroke="#828282"/>
<rect x="659.5" y="296.5" width="44" height="39" fill="#D9DFE9" stroke="#828282"/>
<rect x="441.5" y="296.5" width="44" height="39" fill="#D9DFE9" stroke="#828282"/>
<rect x="331.5" y="296.5" width="44" height="39" fill="#D9DFE9" stroke="#828282"/>
<rect x="768.5" y="296.5" width="44" height="39" fill="#D9DFE9" stroke="#828282"/>
<rect x="550.5" y="296.5" width="44" height="39" fill="#D9DFE9" stroke="#828282"/>
<rect x="276.5" y="296.5" width="44" height="39" fill="#D9DFE9" stroke="#828282"/>
<rect x="713.5" y="296.5" width="44" height="39" fill="#D9DFE9" stroke="#828282"/>
<rect x="495.5" y="296.5" width="44" height="39" fill="#D9DFE9" stroke="#828282"/>
<rect x="167.5" y="140.5" width="208" height="21" fill="#D9DFE9" stroke="#828282"/>
<rect x="386.5" y="140.5" width="99" height="21" fill="#D9DFE9" stroke="#828282"/>
<rect x="496.5" y="140.5" width="152" height="21" fill="#D9DFE9" stroke="#828282"/>
<rect x="659.5" y="140.5" width="153" height="21" fill="#D9DFE9" stroke="#828282"/>
<path d="M824.9 175.54C824.9 179.68 828.14 182.24 832.18 182.24C834.16 182.24 836.8 181.62 836.8 181.62V174.96H831.98V176.68H834.76V180.18C834.76 180.18 833.58 180.46 832.42 180.46C829.22 180.46 827.04 178.4 827.04 175.38C827.04 172.68 828.78 170.2 832.18 170.2C834.36 170.2 835.96 171.2 835.96 171.2L836.76 169.42C836.76 169.42 834.98 168.42 832.28 168.42C827.56 168.42 824.9 171.78 824.9 175.54ZM838.943 175.36C838.943 179.04 841.683 182.24 845.903 182.24C850.263 182.24 853.103 178.82 853.103 175.08C853.103 171.4 850.383 168.42 846.083 168.42C841.503 168.42 838.943 171.84 838.943 175.36ZM841.123 175.26C841.123 172.7 842.863 170.18 846.023 170.18C849.183 170.18 850.923 172.66 850.923 175.24C850.923 177.84 849.103 180.48 845.963 180.48C842.803 180.48 841.123 177.74 841.123 175.26ZM854.044 182H856.104L857.404 178.44H862.724L864.044 182H866.164L861.084 168.56H859.124L854.044 182ZM860.064 171.2L862.104 176.72H858.044L860.064 171.2ZM868.183 182H876.483V180.28H870.243V168.66H868.183V182ZM825.82 209H830.42C833.1 209 834.98 207.48 834.98 205.12C834.98 203 833.44 202.12 832.66 201.8C833.36 201.26 834.26 200.28 834.26 198.86C834.26 197.32 833.18 195.66 829.74 195.66H825.82V209ZM827.88 207.28V203.02H830.12C831.98 203.02 832.8 203.92 832.8 205.16C832.8 206.42 831.98 207.28 830.12 207.28H827.88ZM827.88 197.38H829.44C831.52 197.38 832.08 198.2 832.08 199.2C832.08 200.64 830.8 201.32 830.8 201.32H827.88V197.38ZM836.675 204.62C836.675 207.04 838.215 209.24 841.235 209.24C843.495 209.24 844.875 207.94 844.875 207.94L844.315 206.5C844.315 206.5 843.055 207.62 841.535 207.62C839.955 207.62 838.955 206.56 838.735 204.92L843.675 204.26L844.815 203.94C844.815 201.2 843.255 199.72 841.095 199.72C838.455 199.72 836.675 201.86 836.675 204.62ZM840.955 201.26C842.535 201.26 842.655 203.1 842.655 203.1L838.735 203.6C838.915 202.28 839.675 201.26 840.955 201.26ZM847.08 209H849.06V194.7L847.08 195.02V209ZM852.884 197.8C853.604 197.8 854.144 197.28 854.144 196.58C854.144 195.88 853.604 195.36 852.884 195.36C852.184 195.36 851.644 195.88 851.644 196.58C851.644 197.28 852.184 197.8 852.884 197.8ZM851.884 209H853.864V199.96H851.884V209ZM856.089 204.62C856.089 207.04 857.629 209.24 860.649 209.24C862.909 209.24 864.289 207.94 864.289 207.94L863.729 206.5C863.729 206.5 862.469 207.62 860.949 207.62C859.369 207.62 858.369 206.56 858.149 204.92L863.089 204.26L864.229 203.94C864.229 201.2 862.669 199.72 860.509 199.72C857.869 199.72 856.089 201.86 856.089 204.62ZM860.369 201.26C861.949 201.26 862.069 203.1 862.069 203.1L858.149 203.6C858.329 202.28 859.089 201.26 860.369 201.26ZM868.634 209.08H870.474L874.194 199.96H872.174L869.634 206.52L867.434 199.96H865.354L868.634 209.08ZM875.113 204.62C875.113 207.04 876.653 209.24 879.673 209.24C881.933 209.24 883.313 207.94 883.313 207.94L882.753 206.5C882.753 206.5 881.493 207.62 879.973 207.62C878.393 207.62 877.393 206.56 877.173 204.92L882.113 204.26L883.253 203.94C883.253 201.2 881.693 199.72 879.533 199.72C876.893 199.72 875.113 201.86 875.113 204.62ZM879.393 201.26C880.973 201.26 881.093 203.1 881.093 203.1L877.173 203.6C877.353 202.28 878.113 201.26 879.393 201.26ZM890.802 206.54C890.802 208.4 891.822 209.24 893.382 209.24C894.982 209.24 896.162 208.28 896.162 208.28L895.662 206.78C895.422 206.92 894.582 207.58 893.822 207.58C893.162 207.58 892.782 207.14 892.782 206.04V201.46H895.642V199.96H892.782V197.4L890.842 197.82V199.88L889.462 200.38V201.46H890.802V206.54ZM897.88 209H899.86V203.18C900.46 202.58 901.76 201.44 902.76 201.44C903.44 201.44 903.84 201.92 903.84 203.2V209H905.82V202.48C905.82 200.54 904.84 199.72 903.4 199.72C901.74 199.72 900.46 200.84 899.86 201.48V194.7L897.88 195.02V209ZM907.765 206.92C907.765 208.26 908.785 209.24 910.365 209.24C912.125 209.24 913.045 208.12 913.285 207.74C913.545 208.46 914.125 209.04 915.505 209.14L916.105 207.58C916.105 207.58 915.105 207.56 915.105 206.44V202.62C915.105 200.6 914.425 199.72 912.285 199.72C909.905 199.72 908.365 200.86 908.365 200.86L908.885 202.34C908.885 202.34 910.265 201.3 911.745 201.3C913.205 201.3 913.125 202.3 913.125 203.44C909.745 203.88 907.765 205.02 907.765 206.92ZM910.865 207.68C910.285 207.68 909.805 207.42 909.805 206.78C909.805 205.72 910.825 205.06 913.125 204.72V206.28C912.525 206.98 911.785 207.68 910.865 207.68ZM918.497 206.54C918.497 208.4 919.517 209.24 921.077 209.24C922.677 209.24 923.857 208.28 923.857 208.28L923.357 206.78C923.117 206.92 922.277 207.58 921.517 207.58C920.857 207.58 920.477 207.14 920.477 206.04V201.46H923.337V199.96H920.477V197.4L918.537 197.82V199.88L917.157 200.38V201.46H918.497V206.54ZM934.44 200.04L936.18 199.06C935.24 198.06 934.98 197.5 934.98 196.86C934.98 196.16 935.32 195.54 936.08 194.96L935.32 194.16C934.04 195.14 933.38 196.34 933.38 197.54C933.38 198.4 933.68 199.22 934.44 200.04ZM930.94 200.04L932.68 199.06C931.74 198.06 931.48 197.5 931.48 196.86C931.48 196.16 931.82 195.54 932.58 194.96L931.82 194.16C930.54 195.14 929.88 196.34 929.88 197.54C929.88 198.4 930.18 199.22 930.94 200.04ZM938.633 209H940.693V195.66H938.633V209ZM948.12 204.6C948.12 207.22 949.94 209.24 952.76 209.24C954.92 209.24 955.96 208.08 955.96 208.08L955.32 206.68C955.32 206.68 954.34 207.62 952.9 207.62C951.2 207.62 950.18 206.28 950.18 204.5C950.18 202.66 951.28 201.32 952.92 201.32C954.24 201.32 955.18 202.16 955.18 202.16L955.96 200.68C955.96 200.68 954.86 199.72 952.88 199.72C949.9 199.72 948.12 202.1 948.12 204.6ZM957.199 206.92C957.199 208.26 958.219 209.24 959.799 209.24C961.559 209.24 962.479 208.12 962.719 207.74C962.979 208.46 963.559 209.04 964.939 209.14L965.539 207.58C965.539 207.58 964.539 207.56 964.539 206.44V202.62C964.539 200.6 963.859 199.72 961.719 199.72C959.339 199.72 957.799 200.86 957.799 200.86L958.319 202.34C958.319 202.34 959.699 201.3 961.179 201.3C962.639 201.3 962.559 202.3 962.559 203.44C959.179 203.88 957.199 205.02 957.199 206.92ZM960.299 207.68C959.719 207.68 959.239 207.42 959.239 206.78C959.239 205.72 960.259 205.06 962.559 204.72V206.28C961.959 206.98 961.219 207.68 960.299 207.68ZM967.489 209H969.469V203.14C970.089 202.54 971.369 201.44 972.369 201.44C973.049 201.44 973.449 201.92 973.449 203.2V209H975.429V202.48C975.429 200.54 974.449 199.72 973.029 199.72C971.369 199.72 970.069 200.82 969.429 201.52V199.8L967.489 200.12V209ZM824.8 231.76C824.8 234.24 826.32 236.24 828.68 236.24C830.12 236.24 831.04 235.54 831.52 234.76C831.62 235.4 831.8 236.14 831.8 236.14L833.7 236C833.7 236 833.3 234.32 833.3 233.22V221.7L831.32 222.02V227.02C831.06 226.92 830.46 226.72 829.64 226.72C826.44 226.72 824.8 229.18 824.8 231.76ZM829.02 234.66C827.74 234.66 826.88 233.52 826.88 231.64C826.88 229.48 828.02 228.28 829.74 228.28C830.56 228.28 831.28 228.58 831.32 229.48V233.2C831.04 233.62 830.24 234.66 829.02 234.66ZM835.522 231.52C835.522 233.92 837.142 236.24 840.142 236.24C843.402 236.24 844.842 233.5 844.842 231.3C844.842 228.98 843.222 226.72 840.222 226.72C836.982 226.72 835.522 229.26 835.522 231.52ZM837.582 231.34C837.582 229.54 838.642 228.3 840.182 228.3C842.022 228.3 842.782 229.96 842.782 231.56C842.782 233.38 841.722 234.66 840.202 234.66C838.402 234.66 837.582 233.02 837.582 231.34ZM852.306 233.54C852.306 235.4 853.326 236.24 854.886 236.24C856.486 236.24 857.666 235.28 857.666 235.28L857.166 233.78C856.926 233.92 856.086 234.58 855.326 234.58C854.666 234.58 854.286 234.14 854.286 233.04V228.46H857.146V226.96H854.286V224.4L852.346 224.82V226.88L850.966 227.38V228.46H852.306V233.54ZM859.384 236H861.364V230.18C861.964 229.58 863.264 228.44 864.264 228.44C864.944 228.44 865.344 228.92 865.344 230.2V236H867.324V229.48C867.324 227.54 866.344 226.72 864.904 226.72C863.244 226.72 861.964 227.84 861.364 228.48V221.7L859.384 222.02V236ZM871.029 224.8C871.749 224.8 872.289 224.28 872.289 223.58C872.289 222.88 871.749 222.36 871.029 222.36C870.329 222.36 869.789 222.88 869.789 223.58C869.789 224.28 870.329 224.8 871.029 224.8ZM870.029 236H872.009V226.96H870.029V236ZM874.194 235.44C874.194 235.44 875.314 236.24 877.194 236.24C879.414 236.24 880.714 235.14 880.714 233.5C880.714 230.62 876.374 230.76 876.374 229.18C876.374 228.66 876.814 228.28 877.814 228.28C878.974 228.28 880.014 228.84 880.014 228.84L880.474 227.22C880.474 227.22 879.474 226.72 877.894 226.72C875.394 226.72 874.394 227.94 874.394 229.34C874.394 232.18 878.734 232.06 878.734 233.68C878.734 234.26 878.234 234.68 877.174 234.68C875.714 234.68 874.614 233.76 874.614 233.76L874.194 235.44ZM886.48 227.04C887.76 226.04 888.42 224.86 888.42 223.64C888.42 222.78 888.12 221.96 887.36 221.16L885.62 222.12C886.56 223.12 886.82 223.68 886.82 224.32C886.82 225.02 886.48 225.64 885.72 226.22L886.48 227.04ZM882.98 227.04C884.26 226.04 884.92 224.86 884.92 223.64C884.92 222.78 884.62 221.96 883.86 221.16L882.1 222.12C883.06 223.12 883.32 223.68 883.32 224.32C883.32 225.02 882.98 225.64 882.22 226.22L882.98 227.04ZM897.26 236.08H899.18L901.5 229.64L903.58 236.08H905.52L908.76 226.96H906.74L904.56 233.76L902.44 226.96H900.72L898.38 233.8L896.4 226.96H894.36L897.26 236.08ZM911.459 224.8C912.179 224.8 912.719 224.28 912.719 223.58C912.719 222.88 912.179 222.36 911.459 222.36C910.759 222.36 910.219 222.88 910.219 223.58C910.219 224.28 910.759 224.8 911.459 224.8ZM910.459 236H912.439V226.96H910.459V236ZM915.743 233.54C915.743 235.4 916.763 236.24 918.323 236.24C919.923 236.24 921.103 235.28 921.103 235.28L920.603 233.78C920.363 233.92 919.523 234.58 918.763 234.58C918.103 234.58 917.723 234.14 917.723 233.04V228.46H920.583V226.96H917.723V224.4L915.783 224.82V226.88L914.403 227.38V228.46H915.743V233.54ZM922.822 236H924.802V230.18C925.402 229.58 926.702 228.44 927.702 228.44C928.382 228.44 928.782 228.92 928.782 230.2V236H930.762V229.48C930.762 227.54 929.782 226.72 928.342 226.72C926.682 226.72 925.402 227.84 924.802 228.48V221.7L922.822 222.02V236ZM938.751 233.54C938.751 235.4 939.771 236.24 941.331 236.24C942.931 236.24 944.111 235.28 944.111 235.28L943.611 233.78C943.371 233.92 942.531 234.58 941.771 234.58C941.111 234.58 940.731 234.14 940.731 233.04V228.46H943.591V226.96H940.731V224.4L938.791 224.82V226.88L937.411 227.38V228.46H938.751V233.54ZM945.83 236H947.81V230.18C948.41 229.58 949.71 228.44 950.71 228.44C951.39 228.44 951.79 228.92 951.79 230.2V236H953.77V229.48C953.77 227.54 952.79 226.72 951.35 226.72C949.69 226.72 948.41 227.84 947.81 228.48V221.7L945.83 222.02V236ZM955.874 231.62C955.874 234.04 957.414 236.24 960.434 236.24C962.694 236.24 964.074 234.94 964.074 234.94L963.514 233.5C963.514 233.5 962.254 234.62 960.734 234.62C959.154 234.62 958.154 233.56 957.934 231.92L962.874 231.26L964.014 230.94C964.014 228.2 962.454 226.72 960.294 226.72C957.654 226.72 955.874 228.86 955.874 231.62ZM960.154 228.26C961.734 228.26 961.854 230.1 961.854 230.1L957.934 230.6C958.114 229.28 958.874 228.26 960.154 228.26ZM825.36 263H827.34V257.4C827.72 256.8 828.54 255.72 829.54 255.72C829.94 255.72 830.34 255.88 830.34 255.88L830.74 253.88C830.74 253.88 830.46 253.72 829.96 253.72C828.58 253.72 827.66 255 827.3 255.62V253.8L825.36 254.12V263ZM833.353 251.8C834.073 251.8 834.613 251.28 834.613 250.58C834.613 249.88 834.073 249.36 833.353 249.36C832.653 249.36 832.113 249.88 832.113 250.58C832.113 251.28 832.653 251.8 833.353 251.8ZM832.353 263H834.333V253.96H832.353V263ZM837.098 261.4C837.098 262.02 837.678 262.38 838.578 262.68C837.618 263.18 836.278 264.04 836.278 265.36C836.278 266.94 838.238 267.74 840.238 267.74C842.958 267.74 845.178 266.2 845.178 264.38C845.178 262.72 843.358 262.22 841.758 261.82C839.878 261.36 838.998 261.18 838.998 260.82C838.998 260.6 839.318 260.36 839.738 260.08C839.938 260.12 840.158 260.12 840.398 260.12C842.338 260.12 844.398 259.06 844.398 257.08C844.398 256.28 844.018 255.74 843.738 255.42C843.978 255.46 844.258 255.48 844.478 255.48H845.558L845.418 253.9C845.418 253.9 844.818 254.1 844.218 254.1H843.178C842.178 254.1 841.658 253.72 840.558 253.72C838.538 253.72 836.718 254.86 836.718 256.88C836.718 258.1 837.378 259.16 838.518 259.72C837.778 260.14 837.098 260.74 837.098 261.4ZM840.618 263.2C842.298 263.64 843.238 263.9 843.238 264.68C843.238 265.58 841.958 266.3 840.358 266.3C839.218 266.3 838.058 265.94 838.058 265.04C838.058 264.14 839.158 263.54 840.018 263.06C840.218 263.1 840.418 263.14 840.618 263.2ZM840.538 258.72C839.258 258.72 838.658 257.8 838.658 256.94C838.658 256 839.338 255.12 840.538 255.12C841.818 255.12 842.438 256.16 842.438 257.04C842.438 258.06 841.638 258.72 840.538 258.72ZM847.275 263H849.255V257.18C849.855 256.58 851.155 255.44 852.155 255.44C852.835 255.44 853.235 255.92 853.235 257.2V263H855.215V256.48C855.215 254.54 854.235 253.72 852.795 253.72C851.135 253.72 849.855 254.84 849.255 255.48V248.7L847.275 249.02V263ZM858.4 260.54C858.4 262.4 859.42 263.24 860.98 263.24C862.58 263.24 863.76 262.28 863.76 262.28L863.26 260.78C863.02 260.92 862.18 261.58 861.42 261.58C860.76 261.58 860.38 261.14 860.38 260.04V255.46H863.24V253.96H860.38V251.4L858.44 251.82V253.88L857.06 254.38V255.46H858.4V260.54ZM869.643 262.44C869.643 262.44 870.763 263.24 872.643 263.24C874.863 263.24 876.163 262.14 876.163 260.5C876.163 257.62 871.823 257.76 871.823 256.18C871.823 255.66 872.263 255.28 873.263 255.28C874.423 255.28 875.463 255.84 875.463 255.84L875.923 254.22C875.923 254.22 874.923 253.72 873.343 253.72C870.843 253.72 869.843 254.94 869.843 256.34C869.843 259.18 874.183 259.06 874.183 260.68C874.183 261.26 873.683 261.68 872.623 261.68C871.163 261.68 870.063 260.76 870.063 260.76L869.643 262.44ZM878.23 260.52C878.23 262.46 879.23 263.24 880.69 263.24C882.35 263.24 883.61 262.18 884.19 261.56C884.29 262.22 884.49 263.16 884.49 263.16L886.41 262.98C886.41 262.98 886.01 261.32 886.01 260.22V253.96H884.03V260.04C883.47 260.56 882.35 261.52 881.33 261.52C880.59 261.52 880.21 261.02 880.21 259.76V253.96H878.23V260.52ZM888.837 267.66L890.817 267.34V262.76C891.197 263.04 891.877 263.24 892.717 263.24C895.597 263.24 897.277 260.88 897.277 258.2C897.277 255.74 895.837 253.72 893.457 253.72C892.037 253.72 891.177 254.46 890.757 255.24V253.8L888.837 254.12V267.66ZM893.117 255.36C894.337 255.36 895.197 256.46 895.197 258.34C895.197 260.5 894.057 261.68 892.357 261.68C891.417 261.68 890.817 261.34 890.817 260.66V256.82C891.077 256.44 891.917 255.36 893.117 255.36ZM899.442 267.66L901.422 267.34V262.76C901.802 263.04 902.482 263.24 903.322 263.24C906.202 263.24 907.882 260.88 907.882 258.2C907.882 255.74 906.442 253.72 904.062 253.72C902.642 253.72 901.782 254.46 901.362 255.24V253.8L899.442 254.12V267.66ZM903.722 255.36C904.942 255.36 905.802 256.46 905.802 258.34C905.802 260.5 904.662 261.68 902.962 261.68C902.022 261.68 901.422 261.34 901.422 260.66V256.82C901.682 256.44 902.522 255.36 903.722 255.36ZM909.468 258.52C909.468 260.92 911.088 263.24 914.088 263.24C917.348 263.24 918.787 260.5 918.787 258.3C918.787 255.98 917.168 253.72 914.168 253.72C910.928 253.72 909.468 256.26 909.468 258.52ZM911.528 258.34C911.528 256.54 912.588 255.3 914.128 255.3C915.968 255.3 916.728 256.96 916.728 258.56C916.728 260.38 915.668 261.66 914.148 261.66C912.348 261.66 911.528 260.02 911.528 258.34ZM920.926 263H922.906V257.4C923.286 256.8 924.106 255.72 925.106 255.72C925.506 255.72 925.906 255.88 925.906 255.88L926.306 253.88C926.306 253.88 926.026 253.72 925.526 253.72C924.146 253.72 923.226 255 922.866 255.62V253.8L920.926 254.12V263ZM928.4 260.54C928.4 262.4 929.42 263.24 930.98 263.24C932.58 263.24 933.76 262.28 933.76 262.28L933.26 260.78C933.02 260.92 932.18 261.58 931.42 261.58C930.76 261.58 930.38 261.14 930.38 260.04V255.46H933.24V253.96H930.38V251.4L928.44 251.82V253.88L927.06 254.38V255.46H928.4V260.54ZM935.178 261.9C935.178 262.64 935.778 263.24 936.518 263.24C937.258 263.24 937.878 262.64 937.878 261.9C937.878 261.14 937.258 260.54 936.518 260.54C935.778 260.54 935.178 261.14 935.178 261.9Z" fill="#333333"/>
</svg>
