<svg width="584" height="407" viewBox="0 0 584 407" fill="none" xmlns="http://www.w3.org/2000/svg">
<rect x="1" y="1" width="582" height="405" fill="#FAFAFA" stroke="#BDBDBD" stroke-width="2"/>
<path d="M21.491 380.36C21.491 379.475 21.6403 378.685 21.939 377.992C22.2377 377.288 22.643 376.696 23.155 376.216C23.667 375.736 24.2643 375.368 24.947 375.112C25.6297 374.856 26.355 374.728 27.123 374.728C27.891 374.728 28.6163 374.856 29.299 375.112C29.9817 375.368 30.579 375.736 31.091 376.216C31.603 376.696 32.0083 377.288 32.307 377.992C32.6057 378.685 32.755 379.475 32.755 380.36C32.755 381.245 32.6057 382.04 32.307 382.744C32.0083 383.437 31.603 384.024 31.091 384.504C30.579 384.984 29.9817 385.352 29.299 385.608C28.6163 385.864 27.891 385.992 27.123 385.992C26.2697 385.992 25.4963 385.864 24.803 385.608C24.1097 385.352 23.5177 384.984 23.027 384.504C22.5363 384.024 22.1577 383.437 21.891 382.744C21.6243 382.04 21.491 381.245 21.491 380.36ZM22.611 380.36C22.611 381.096 22.7283 381.752 22.963 382.328C23.1977 382.893 23.5177 383.368 23.923 383.752C24.3283 384.136 24.803 384.429 25.347 384.632C25.9017 384.835 26.4937 384.936 27.123 384.936C27.7523 384.936 28.339 384.835 28.883 384.632C29.4377 384.429 29.9177 384.136 30.323 383.752C30.7283 383.368 31.0483 382.893 31.283 382.328C31.5177 381.752 31.635 381.096 31.635 380.36C31.635 379.624 31.5177 378.973 31.283 378.408C31.0483 377.832 30.7283 377.352 30.323 376.968C29.9177 376.584 29.4377 376.291 28.883 376.088C28.339 375.885 27.7523 375.784 27.123 375.784C26.4937 375.784 25.9017 375.885 25.347 376.088C24.803 376.291 24.3283 376.584 23.923 376.968C23.5177 377.352 23.1977 377.832 22.963 378.408C22.7283 378.973 22.611 379.624 22.611 380.36ZM28.979 382.968C28.7337 383.107 28.4563 383.213 28.147 383.288C27.8483 383.363 27.4963 383.4 27.091 383.4C26.227 383.4 25.5657 383.128 25.107 382.584C24.659 382.04 24.435 381.299 24.435 380.36C24.435 379.389 24.675 378.643 25.155 378.12C25.6457 377.587 26.291 377.32 27.091 377.32C27.283 377.32 27.4537 377.331 27.603 377.352C27.763 377.373 27.907 377.405 28.035 377.448C28.1737 377.48 28.307 377.523 28.435 377.576C28.563 377.629 28.707 377.688 28.867 377.752L28.451 378.728C28.2163 378.611 27.9923 378.531 27.779 378.488C27.5657 378.445 27.3843 378.424 27.235 378.424C26.787 378.424 26.419 378.563 26.131 378.84C25.8537 379.117 25.715 379.624 25.715 380.36C25.715 380.979 25.8537 381.459 26.131 381.8C26.4083 382.131 26.819 382.301 27.363 382.312C27.8643 382.312 28.291 382.216 28.643 382.024L28.979 382.968ZM40.8616 376.344C40.8616 376.909 40.755 377.491 40.5416 378.088C40.339 378.675 40.067 379.267 39.7256 379.864C39.395 380.461 39.0216 381.048 38.6056 381.624C38.1896 382.189 37.7736 382.728 37.3576 383.24L36.5736 383.928V383.992L37.5976 383.816H41.0856V385H34.7176V384.536C34.9523 384.291 35.235 383.987 35.5656 383.624C35.8963 383.261 36.2376 382.861 36.5896 382.424C36.9523 381.976 37.3043 381.507 37.6456 381.016C37.9976 380.515 38.3123 380.008 38.5896 379.496C38.8776 378.984 39.107 378.477 39.2776 377.976C39.4483 377.475 39.5336 377 39.5336 376.552C39.5336 376.029 39.3843 375.597 39.0856 375.256C38.787 374.904 38.3336 374.728 37.7256 374.728C37.3203 374.728 36.9256 374.813 36.5416 374.984C36.1576 375.144 35.827 375.331 35.5496 375.544L35.0216 374.632C35.395 374.312 35.8376 374.061 36.3496 373.88C36.8616 373.699 37.411 373.608 37.9976 373.608C38.4563 373.608 38.8616 373.677 39.2136 373.816C39.5656 373.944 39.8643 374.131 40.1096 374.376C40.355 374.621 40.5416 374.915 40.6696 375.256C40.7976 375.587 40.8616 375.949 40.8616 376.344ZM43.2924 379.4C43.2924 377.48 43.6017 376.035 44.2204 375.064C44.8497 374.093 45.7617 373.608 46.9564 373.608C48.247 373.608 49.1804 374.088 49.7564 375.048C50.343 375.997 50.6364 377.448 50.6364 379.4C50.6364 381.32 50.3217 382.765 49.6924 383.736C49.0737 384.707 48.1617 385.192 46.9564 385.192C45.687 385.192 44.759 384.685 44.1724 383.672C43.5857 382.659 43.2924 381.235 43.2924 379.4ZM44.6204 379.4C44.6204 380.093 44.663 380.728 44.7484 381.304C44.8444 381.869 44.9884 382.36 45.1804 382.776C45.3724 383.181 45.6124 383.501 45.9004 383.736C46.199 383.96 46.551 384.072 46.9564 384.072C47.767 384.072 48.359 383.699 48.7324 382.952C49.1164 382.195 49.3084 381.011 49.3084 379.4C49.3084 378.717 49.2657 378.088 49.1804 377.512C49.1057 376.936 48.9724 376.44 48.7804 376.024C48.599 375.608 48.359 375.288 48.0604 375.064C47.7617 374.84 47.3937 374.728 46.9564 374.728C46.1564 374.728 45.5644 375.107 45.1804 375.864C44.807 376.621 44.6204 377.8 44.6204 379.4ZM58.6191 376.344C58.6191 376.909 58.5125 377.491 58.2991 378.088C58.0965 378.675 57.8245 379.267 57.4831 379.864C57.1525 380.461 56.7791 381.048 56.3631 381.624C55.9471 382.189 55.5311 382.728 55.1151 383.24L54.3311 383.928V383.992L55.3551 383.816H58.8431V385H52.4751V384.536C52.7098 384.291 52.9925 383.987 53.3231 383.624C53.6538 383.261 53.9951 382.861 54.3471 382.424C54.7098 381.976 55.0618 381.507 55.4031 381.016C55.7551 380.515 56.0698 380.008 56.3471 379.496C56.6351 378.984 56.8645 378.477 57.0351 377.976C57.2058 377.475 57.2911 377 57.2911 376.552C57.2911 376.029 57.1418 375.597 56.8431 375.256C56.5445 374.904 56.0911 374.728 55.4831 374.728C55.0778 374.728 54.6831 374.813 54.2991 374.984C53.9151 375.144 53.5845 375.331 53.3071 375.544L52.7791 374.632C53.1525 374.312 53.5951 374.061 54.1071 373.88C54.6191 373.699 55.1685 373.608 55.7551 373.608C56.2138 373.608 56.6191 373.677 56.9711 373.816C57.3231 373.944 57.6218 374.131 57.8671 374.376C58.1125 374.621 58.2991 374.915 58.4271 375.256C58.5551 375.587 58.6191 375.949 58.6191 376.344ZM61.0499 379.4C61.0499 377.48 61.3592 376.035 61.9779 375.064C62.6072 374.093 63.5192 373.608 64.7139 373.608C66.0045 373.608 66.9379 374.088 67.5139 375.048C68.1005 375.997 68.3939 377.448 68.3939 379.4C68.3939 381.32 68.0792 382.765 67.4499 383.736C66.8312 384.707 65.9192 385.192 64.7139 385.192C63.4445 385.192 62.5165 384.685 61.9299 383.672C61.3432 382.659 61.0499 381.235 61.0499 379.4ZM62.3779 379.4C62.3779 380.093 62.4205 380.728 62.5059 381.304C62.6019 381.869 62.7459 382.36 62.9379 382.776C63.1299 383.181 63.3699 383.501 63.6579 383.736C63.9565 383.96 64.3085 384.072 64.7139 384.072C65.5245 384.072 66.1165 383.699 66.4899 382.952C66.8739 382.195 67.0659 381.011 67.0659 379.4C67.0659 378.717 67.0232 378.088 66.9379 377.512C66.8632 376.936 66.7299 376.44 66.5379 376.024C66.3565 375.608 66.1165 375.288 65.8179 375.064C65.5192 374.84 65.1512 374.728 64.7139 374.728C63.9139 374.728 63.3219 375.107 62.9379 375.864C62.5645 376.621 62.3779 377.8 62.3779 379.4ZM75.0263 373.912C75.4316 373.837 75.8956 373.779 76.4183 373.736C76.9516 373.693 77.4369 373.672 77.8743 373.672C78.3649 373.672 78.8289 373.725 79.2663 373.832C79.7143 373.939 80.1036 374.115 80.4343 374.36C80.7756 374.605 81.0476 374.925 81.2503 375.32C81.4529 375.715 81.5543 376.195 81.5543 376.76C81.5543 377.635 81.3143 378.344 80.8343 378.888C80.3543 379.432 79.7463 379.795 79.0103 379.976L79.7783 380.568L82.5623 385H81.0103L77.9223 380.168L76.3543 379.928V385H75.0263V373.912ZM77.9063 374.824C77.7676 374.824 77.6236 374.824 77.4743 374.824C77.3249 374.824 77.1809 374.829 77.0423 374.84C76.9036 374.851 76.7703 374.861 76.6423 374.872C76.5249 374.883 76.4289 374.899 76.3543 374.92V379.048H77.6023C78.3383 379.048 78.9463 378.867 79.4263 378.504C79.9063 378.141 80.1463 377.576 80.1463 376.808C80.1463 376.232 79.9489 375.757 79.5543 375.384C79.1596 375.011 78.6103 374.824 77.9063 374.824ZM84.2896 377.592C84.695 377.347 85.1643 377.165 85.6976 377.048C86.2416 376.931 86.807 376.872 87.3936 376.872C87.9483 376.872 88.391 376.947 88.7216 377.096C89.063 377.245 89.319 377.443 89.4896 377.688C89.671 377.923 89.7883 378.184 89.8416 378.472C89.9056 378.76 89.9376 379.048 89.9376 379.336C89.9376 379.976 89.9216 380.6 89.8896 381.208C89.8576 381.816 89.8416 382.392 89.8416 382.936C89.8416 383.331 89.8576 383.704 89.8896 384.056C89.9216 384.408 89.9803 384.733 90.0656 385.032H89.1216L88.7856 383.912H88.7056C88.6096 384.061 88.487 384.211 88.3376 384.36C88.199 384.499 88.0283 384.627 87.8256 384.744C87.623 384.851 87.3883 384.941 87.1216 385.016C86.855 385.091 86.551 385.128 86.2096 385.128C85.8683 385.128 85.5483 385.075 85.2496 384.968C84.9616 384.861 84.711 384.712 84.4976 384.52C84.2843 384.317 84.1136 384.077 83.9856 383.8C83.8683 383.523 83.8096 383.208 83.8096 382.856C83.8096 382.387 83.9056 381.997 84.0976 381.688C84.2896 381.368 84.5563 381.117 84.8976 380.936C85.2496 380.744 85.6656 380.611 86.1456 380.536C86.6363 380.451 87.175 380.408 87.7616 380.408C87.911 380.408 88.055 380.408 88.1936 380.408C88.343 380.408 88.4923 380.419 88.6416 380.44C88.6736 380.12 88.6896 379.832 88.6896 379.576C88.6896 378.989 88.5723 378.579 88.3376 378.344C88.103 378.109 87.6763 377.992 87.0576 377.992C86.8763 377.992 86.679 378.008 86.4656 378.04C86.263 378.061 86.0496 378.099 85.8256 378.152C85.6123 378.195 85.4043 378.253 85.2016 378.328C85.0096 378.392 84.839 378.467 84.6896 378.552L84.2896 377.592ZM86.5616 384.008C86.8603 384.008 87.127 383.971 87.3616 383.896C87.5963 383.811 87.799 383.709 87.9696 383.592C88.1403 383.464 88.279 383.325 88.3856 383.176C88.503 383.027 88.5883 382.883 88.6416 382.744V381.416C88.4923 381.405 88.3376 381.4 88.1776 381.4C88.0283 381.389 87.879 381.384 87.7296 381.384C87.399 381.384 87.0736 381.405 86.7536 381.448C86.4443 381.48 86.167 381.549 85.9216 381.656C85.687 381.752 85.495 381.891 85.3456 382.072C85.207 382.243 85.1376 382.461 85.1376 382.728C85.1376 383.101 85.271 383.411 85.5376 383.656C85.8043 383.891 86.1456 384.008 86.5616 384.008ZM97.9711 384.472C97.6511 384.707 97.2725 384.883 96.8351 385C96.3978 385.128 95.9391 385.192 95.4591 385.192C94.8405 385.192 94.3178 385.096 93.8911 384.904C93.4645 384.701 93.1125 384.419 92.8351 384.056C92.5685 383.683 92.3711 383.24 92.2431 382.728C92.1258 382.205 92.0671 381.629 92.0671 381C92.0671 379.645 92.3658 378.611 92.9631 377.896C93.5605 377.171 94.4191 376.808 95.5391 376.808C96.0511 376.808 96.4831 376.851 96.8351 376.936C97.1978 377.011 97.5231 377.123 97.8111 377.272L97.4431 378.376C97.1978 378.237 96.9258 378.131 96.6271 378.056C96.3285 377.971 96.0085 377.928 95.6671 377.928C94.1525 377.928 93.3951 378.952 93.3951 381C93.3951 381.405 93.4325 381.795 93.5071 382.168C93.5925 382.531 93.7258 382.856 93.9071 383.144C94.0991 383.421 94.3445 383.645 94.6431 383.816C94.9525 383.987 95.3311 384.072 95.7791 384.072C96.1631 384.072 96.5045 384.013 96.8031 383.896C97.1125 383.779 97.3631 383.645 97.5551 383.496L97.9711 384.472ZM105.03 385V380.44C105.03 380.024 105.003 379.661 104.95 379.352C104.907 379.032 104.822 378.771 104.694 378.568C104.566 378.355 104.39 378.195 104.166 378.088C103.953 377.981 103.67 377.928 103.318 377.928C102.817 377.928 102.363 378.093 101.958 378.424C101.553 378.744 101.291 379.16 101.174 379.672V385H99.8939V373.8H101.174V377.896H101.238C101.515 377.565 101.846 377.304 102.23 377.112C102.625 376.909 103.11 376.808 103.686 376.808C104.134 376.808 104.523 376.861 104.854 376.968C105.185 377.064 105.457 377.24 105.67 377.496C105.894 377.752 106.054 378.099 106.15 378.536C106.257 378.963 106.31 379.507 106.31 380.168V385H105.03ZM114.644 384.36C114.324 384.616 113.919 384.819 113.428 384.968C112.948 385.117 112.436 385.192 111.892 385.192C111.284 385.192 110.756 385.096 110.308 384.904C109.86 384.701 109.492 384.419 109.204 384.056C108.916 383.683 108.703 383.24 108.564 382.728C108.425 382.216 108.356 381.64 108.356 381C108.356 379.635 108.66 378.595 109.268 377.88C109.876 377.165 110.745 376.808 111.876 376.808C112.239 376.808 112.601 376.851 112.964 376.936C113.327 377.011 113.652 377.16 113.94 377.384C114.228 377.608 114.463 377.928 114.644 378.344C114.825 378.749 114.916 379.288 114.916 379.96C114.916 380.312 114.884 380.701 114.82 381.128H109.684C109.684 381.597 109.732 382.013 109.828 382.376C109.924 382.739 110.073 383.048 110.276 383.304C110.479 383.549 110.74 383.741 111.06 383.88C111.391 384.008 111.791 384.072 112.26 384.072C112.623 384.072 112.985 384.008 113.348 383.88C113.711 383.752 113.983 383.603 114.164 383.432L114.644 384.36ZM111.892 377.928C111.263 377.928 110.756 378.093 110.372 378.424C109.999 378.755 109.775 379.32 109.7 380.12H113.668C113.668 379.309 113.513 378.744 113.204 378.424C112.895 378.093 112.457 377.928 111.892 377.928ZM118.513 383.032C118.513 383.405 118.577 383.672 118.705 383.832C118.833 383.992 119.014 384.072 119.249 384.072C119.388 384.072 119.537 384.061 119.697 384.04C119.857 384.019 120.038 383.971 120.241 383.896L120.385 384.904C120.214 384.989 119.974 385.059 119.665 385.112C119.366 385.165 119.105 385.192 118.881 385.192C118.401 385.192 118.006 385.059 117.697 384.792C117.388 384.515 117.233 384.051 117.233 383.4V373.8H118.513V383.032ZM131.287 381.896H127.159L126.039 385H124.727L128.967 373.624H129.575L133.831 385H132.439L131.287 381.896ZM127.591 380.744H130.887L129.639 377.336L129.239 375.64H129.223L128.823 377.368L127.591 380.744ZM134.06 377H135.308V375.416L136.588 375.048V377H138.764V378.12H136.588V382.552C136.588 383.107 136.657 383.501 136.796 383.736C136.934 383.96 137.169 384.072 137.5 384.072C137.777 384.072 138.012 384.045 138.204 383.992C138.396 383.928 138.609 383.848 138.844 383.752L139.132 384.728C138.844 384.867 138.529 384.979 138.188 385.064C137.846 385.149 137.478 385.192 137.084 385.192C136.433 385.192 135.974 385.011 135.708 384.648C135.441 384.275 135.308 383.656 135.308 382.792V378.12H134.06V377ZM145.386 385V380.472C145.386 380.045 145.364 379.677 145.322 379.368C145.29 379.048 145.22 378.781 145.114 378.568C145.007 378.355 144.852 378.195 144.65 378.088C144.458 377.981 144.202 377.928 143.882 377.928C143.391 377.928 142.98 378.077 142.65 378.376C142.33 378.675 142.106 379.048 141.978 379.496V385H140.698V377H141.594L141.834 377.976H141.898C142.186 377.635 142.516 377.357 142.89 377.144C143.274 376.92 143.77 376.808 144.378 376.808C144.89 376.808 145.306 376.909 145.626 377.112C145.956 377.304 146.212 377.645 146.394 378.136C146.639 377.72 146.975 377.395 147.402 377.16C147.839 376.925 148.33 376.808 148.874 376.808C149.322 376.808 149.7 376.861 150.01 376.968C150.319 377.064 150.575 377.24 150.778 377.496C150.98 377.752 151.124 378.099 151.21 378.536C151.306 378.973 151.354 379.528 151.354 380.2V385H150.074V380.184C150.074 379.8 150.052 379.469 150.01 379.192C149.978 378.904 149.903 378.669 149.786 378.488C149.679 378.296 149.524 378.157 149.322 378.072C149.13 377.976 148.874 377.928 148.554 377.928C148.02 377.928 147.604 378.077 147.306 378.376C147.007 378.675 146.794 379.101 146.666 379.656V385H145.386ZM153.714 377.592C154.119 377.347 154.589 377.165 155.122 377.048C155.666 376.931 156.231 376.872 156.818 376.872C157.373 376.872 157.815 376.947 158.146 377.096C158.487 377.245 158.743 377.443 158.914 377.688C159.095 377.923 159.213 378.184 159.266 378.472C159.33 378.76 159.362 379.048 159.362 379.336C159.362 379.976 159.346 380.6 159.314 381.208C159.282 381.816 159.266 382.392 159.266 382.936C159.266 383.331 159.282 383.704 159.314 384.056C159.346 384.408 159.405 384.733 159.49 385.032H158.546L158.21 383.912H158.13C158.034 384.061 157.911 384.211 157.762 384.36C157.623 384.499 157.453 384.627 157.25 384.744C157.047 384.851 156.813 384.941 156.546 385.016C156.279 385.091 155.975 385.128 155.634 385.128C155.293 385.128 154.973 385.075 154.674 384.968C154.386 384.861 154.135 384.712 153.922 384.52C153.709 384.317 153.538 384.077 153.41 383.8C153.293 383.523 153.234 383.208 153.234 382.856C153.234 382.387 153.33 381.997 153.522 381.688C153.714 381.368 153.981 381.117 154.322 380.936C154.674 380.744 155.09 380.611 155.57 380.536C156.061 380.451 156.599 380.408 157.186 380.408C157.335 380.408 157.479 380.408 157.618 380.408C157.767 380.408 157.917 380.419 158.066 380.44C158.098 380.12 158.114 379.832 158.114 379.576C158.114 378.989 157.997 378.579 157.762 378.344C157.527 378.109 157.101 377.992 156.482 377.992C156.301 377.992 156.103 378.008 155.89 378.04C155.687 378.061 155.474 378.099 155.25 378.152C155.037 378.195 154.829 378.253 154.626 378.328C154.434 378.392 154.263 378.467 154.114 378.552L153.714 377.592ZM155.986 384.008C156.285 384.008 156.551 383.971 156.786 383.896C157.021 383.811 157.223 383.709 157.394 383.592C157.565 383.464 157.703 383.325 157.81 383.176C157.927 383.027 158.013 382.883 158.066 382.744V381.416C157.917 381.405 157.762 381.4 157.602 381.4C157.453 381.389 157.303 381.384 157.154 381.384C156.823 381.384 156.498 381.405 156.178 381.448C155.869 381.48 155.591 381.549 155.346 381.656C155.111 381.752 154.919 381.891 154.77 382.072C154.631 382.243 154.562 382.461 154.562 382.728C154.562 383.101 154.695 383.411 154.962 383.656C155.229 383.891 155.57 384.008 155.986 384.008ZM168.084 382.248C168.084 382.792 168.089 383.288 168.1 383.736C168.11 384.173 168.158 384.605 168.244 385.032H167.38L167.06 383.896H166.996C166.782 384.269 166.473 384.579 166.068 384.824C165.662 385.069 165.188 385.192 164.644 385.192C163.577 385.192 162.782 384.856 162.26 384.184C161.748 383.512 161.492 382.461 161.492 381.032C161.492 379.667 161.812 378.632 162.452 377.928C163.102 377.213 163.993 376.856 165.124 376.856C165.518 376.856 165.828 376.877 166.052 376.92C166.286 376.963 166.537 377.032 166.804 377.128V373.8H168.084V382.248ZM164.852 384.072C165.396 384.072 165.828 383.933 166.148 383.656C166.468 383.368 166.686 382.936 166.804 382.36V378.392C166.612 378.243 166.393 378.136 166.148 378.072C165.902 378.008 165.577 377.976 165.172 377.976C164.436 377.976 163.86 378.221 163.444 378.712C163.028 379.192 162.82 379.965 162.82 381.032C162.82 381.469 162.852 381.875 162.916 382.248C162.99 382.621 163.108 382.941 163.268 383.208C163.428 383.475 163.636 383.688 163.892 383.848C164.158 383.997 164.478 384.072 164.852 384.072ZM170.965 377H172.245V385.432C172.245 386.424 172.074 387.165 171.733 387.656C171.392 388.147 170.848 388.392 170.101 388.392C170.016 388.392 169.936 388.387 169.861 388.376C169.786 388.376 169.706 388.371 169.621 388.36V387.272C169.92 387.272 170.154 387.224 170.325 387.128C170.506 387.043 170.645 386.904 170.741 386.712C170.837 386.52 170.896 386.275 170.917 385.976C170.949 385.688 170.965 385.347 170.965 384.952V377ZM170.693 374.568C170.693 374.323 170.773 374.115 170.933 373.944C171.104 373.763 171.317 373.672 171.573 373.672C171.829 373.672 172.048 373.763 172.229 373.944C172.41 374.115 172.501 374.323 172.501 374.568C172.501 374.813 172.41 375.016 172.229 375.176C172.048 375.336 171.829 375.416 171.573 375.416C171.317 375.416 171.104 375.336 170.933 375.176C170.773 375.016 170.693 374.813 170.693 374.568ZM175.006 377.592C175.412 377.347 175.881 377.165 176.414 377.048C176.958 376.931 177.524 376.872 178.11 376.872C178.665 376.872 179.108 376.947 179.438 377.096C179.78 377.245 180.036 377.443 180.206 377.688C180.388 377.923 180.505 378.184 180.558 378.472C180.622 378.76 180.654 379.048 180.654 379.336C180.654 379.976 180.638 380.6 180.606 381.208C180.574 381.816 180.558 382.392 180.558 382.936C180.558 383.331 180.574 383.704 180.606 384.056C180.638 384.408 180.697 384.733 180.782 385.032H179.838L179.502 383.912H179.422C179.326 384.061 179.204 384.211 179.054 384.36C178.916 384.499 178.745 384.627 178.542 384.744C178.34 384.851 178.105 384.941 177.838 385.016C177.572 385.091 177.268 385.128 176.926 385.128C176.585 385.128 176.265 385.075 175.966 384.968C175.678 384.861 175.428 384.712 175.214 384.52C175.001 384.317 174.83 384.077 174.702 383.8C174.585 383.523 174.526 383.208 174.526 382.856C174.526 382.387 174.622 381.997 174.814 381.688C175.006 381.368 175.273 381.117 175.614 380.936C175.966 380.744 176.382 380.611 176.862 380.536C177.353 380.451 177.892 380.408 178.478 380.408C178.628 380.408 178.772 380.408 178.91 380.408C179.06 380.408 179.209 380.419 179.358 380.44C179.39 380.12 179.406 379.832 179.406 379.576C179.406 378.989 179.289 378.579 179.054 378.344C178.82 378.109 178.393 377.992 177.774 377.992C177.593 377.992 177.396 378.008 177.182 378.04C176.98 378.061 176.766 378.099 176.542 378.152C176.329 378.195 176.121 378.253 175.918 378.328C175.726 378.392 175.556 378.467 175.406 378.552L175.006 377.592ZM177.278 384.008C177.577 384.008 177.844 383.971 178.078 383.896C178.313 383.811 178.516 383.709 178.686 383.592C178.857 383.464 178.996 383.325 179.102 383.176C179.22 383.027 179.305 382.883 179.358 382.744V381.416C179.209 381.405 179.054 381.4 178.894 381.4C178.745 381.389 178.596 381.384 178.446 381.384C178.116 381.384 177.79 381.405 177.47 381.448C177.161 381.48 176.884 381.549 176.638 381.656C176.404 381.752 176.212 381.891 176.062 382.072C175.924 382.243 175.854 382.461 175.854 382.728C175.854 383.101 175.988 383.411 176.254 383.656C176.521 383.891 176.862 384.008 177.278 384.008Z" fill="#4F4F4F"/>
<rect x="56.5" y="147.5" width="471" height="178" stroke="#828282" stroke-opacity="0.25"/>
<path d="M92.8092 77.346C93.8066 78.9447 94.9872 80.6533 96.3512 82.472L96.3292 82.736C95.6252 82.9707 94.8992 83.1247 94.1512 83.198L93.8872 83.022C92.6699 81.0273 91.6872 79.3407 90.9392 77.962H88.5412V78.556L88.6512 83H86.3412L86.4952 78.754L86.3412 68.876L91.1372 68.854C92.5599 68.854 93.6599 69.2133 94.4372 69.932C95.2146 70.636 95.6032 71.648 95.6032 72.968C95.6032 73.9067 95.3539 74.7573 94.8552 75.52C94.3712 76.268 93.6892 76.8767 92.8092 77.346ZM88.5852 76.114L91.0052 76.18C92.4866 75.7253 93.2272 74.7133 93.2272 73.144C93.2272 72.3227 92.9999 71.7067 92.5452 71.296C92.1052 70.8853 91.4306 70.6653 90.5212 70.636L88.6512 70.702L88.5852 76.114ZM105.265 78.028L99.0827 78.05C99.0973 79.1647 99.3687 80.0153 99.8967 80.602C100.425 81.174 101.173 81.46 102.141 81.46C103.153 81.46 104.143 81.1593 105.111 80.558L105.331 80.69L105.001 82.494C103.93 82.9633 102.889 83.198 101.877 83.198C100.366 83.198 99.178 82.736 98.3127 81.812C97.462 80.8733 97.0367 79.5973 97.0367 77.984C97.0367 76.356 97.462 75.0653 98.3127 74.112C99.1633 73.1587 100.315 72.682 101.767 72.682C102.999 72.682 103.945 73.0193 104.605 73.694C105.279 74.3687 105.617 75.322 105.617 76.554C105.617 76.8913 105.58 77.2947 105.507 77.764L105.265 78.028ZM103.593 76.29C103.593 75.6007 103.431 75.08 103.109 74.728C102.801 74.376 102.346 74.2 101.745 74.2C101.07 74.2 100.513 74.42 100.073 74.86C99.6327 75.2853 99.3393 75.894 99.1927 76.686L103.549 76.598L103.593 76.29ZM111.663 72.66C112.675 72.66 113.475 72.902 114.061 73.386C114.648 73.87 114.941 74.5447 114.941 75.41C114.941 75.674 114.897 76.554 114.809 78.05C114.721 79.5167 114.677 80.3747 114.677 80.624C114.677 80.9027 114.721 81.1007 114.809 81.218C114.912 81.3207 115.081 81.372 115.315 81.372C115.462 81.372 115.682 81.3427 115.975 81.284L116.173 81.438L115.953 82.67C115.528 82.934 115.066 83.0953 114.567 83.154C114.113 83.11 113.746 82.9487 113.467 82.67C113.189 82.3767 113.02 81.9953 112.961 81.526H112.807C112.059 82.318 111.297 82.868 110.519 83.176C109.507 83.1613 108.708 82.8973 108.121 82.384C107.549 81.8707 107.263 81.174 107.263 80.294C107.263 78.9887 107.975 78.1747 109.397 77.852L112.873 77.082L112.895 75.894C112.895 75.3513 112.756 74.9407 112.477 74.662C112.213 74.3833 111.825 74.244 111.311 74.244C110.813 74.244 110.314 74.3613 109.815 74.596C109.317 74.816 108.767 75.168 108.165 75.652L107.989 75.542L107.703 73.98C108.994 73.1 110.314 72.66 111.663 72.66ZM110.013 79.062C109.749 79.1207 109.559 79.2233 109.441 79.37C109.324 79.502 109.265 79.7147 109.265 80.008C109.265 80.448 109.383 80.7927 109.617 81.042C109.867 81.2913 110.197 81.416 110.607 81.416C111.297 81.416 112.03 80.9687 112.807 80.074L112.873 78.38L110.013 79.062ZM120.545 78.534L120.699 83H118.455L118.609 78.732L118.477 67.732L120.721 67.556L120.545 78.534ZM124.085 78.754L124.019 73.012L126.219 72.814L126.131 78.556L126.197 83H123.997L124.085 78.754ZM125.141 68.128C125.508 68.128 125.794 68.238 125.999 68.458C126.204 68.6633 126.307 68.9567 126.307 69.338C126.307 69.734 126.197 70.0493 125.977 70.284C125.757 70.5187 125.456 70.636 125.075 70.636C124.694 70.636 124.393 70.526 124.173 70.306C123.968 70.086 123.865 69.7853 123.865 69.404C123.865 69.0227 123.975 68.7147 124.195 68.48C124.43 68.2453 124.745 68.128 125.141 68.128ZM130.817 72.858H135.261L136.229 72.836L136.273 74.178L130.905 81.504H134.513L136.273 81.328L136.405 81.504L136.229 83.044L133.963 83H129.739L128.551 83.044L128.529 81.724L133.919 74.354H130.487L128.793 74.53L128.661 74.354L128.815 72.814L130.817 72.858ZM145.849 78.028L139.667 78.05C139.681 79.1647 139.953 80.0153 140.481 80.602C141.009 81.174 141.757 81.46 142.725 81.46C143.737 81.46 144.727 81.1593 145.695 80.558L145.915 80.69L145.585 82.494C144.514 82.9633 143.473 83.198 142.461 83.198C140.95 83.198 139.762 82.736 138.897 81.812C138.046 80.8733 137.621 79.5973 137.621 77.984C137.621 76.356 138.046 75.0653 138.897 74.112C139.747 73.1587 140.899 72.682 142.351 72.682C143.583 72.682 144.529 73.0193 145.189 73.694C145.863 74.3687 146.201 75.322 146.201 76.554C146.201 76.8913 146.164 77.2947 146.091 77.764L145.849 78.028ZM144.177 76.29C144.177 75.6007 144.015 75.08 143.693 74.728C143.385 74.376 142.93 74.2 142.329 74.2C141.654 74.2 141.097 74.42 140.657 74.86C140.217 75.2853 139.923 75.894 139.777 76.686L144.133 76.598L144.177 76.29ZM155.705 81.306C156.189 81.306 156.702 81.174 157.245 80.91L157.465 81.064L157.245 82.472C156.438 82.8533 155.69 83.0733 155.001 83.132C154.091 82.9853 153.431 82.6847 153.021 82.23C152.61 81.7607 152.405 81.086 152.405 80.206L152.493 78.622L152.471 74.332H151.085L150.997 74.2L151.107 72.902H152.449V71.296L154.429 70.548L154.627 70.724L154.583 72.902H157.399L157.487 73.056L157.377 74.332H154.539L154.429 79.854C154.414 80.3967 154.502 80.778 154.693 80.998C154.898 81.2033 155.235 81.306 155.705 81.306ZM165.762 76.334C165.777 75.7767 165.645 75.344 165.366 75.036C165.102 74.7133 164.713 74.552 164.2 74.552C163.364 74.552 162.484 74.992 161.56 75.872L161.516 78.534L161.67 83H159.426L159.58 78.732L159.448 67.732L161.692 67.556L161.582 74.288H161.714C162.579 73.5253 163.481 73.0047 164.42 72.726C165.549 72.726 166.4 72.9827 166.972 73.496C167.559 74.0093 167.845 74.7427 167.83 75.696L167.786 78.556L167.874 83H165.63L165.762 76.334ZM174.527 72.66C175.539 72.66 176.338 72.902 176.925 73.386C177.511 73.87 177.805 74.5447 177.805 75.41C177.805 75.674 177.761 76.554 177.673 78.05C177.585 79.5167 177.541 80.3747 177.541 80.624C177.541 80.9027 177.585 81.1007 177.673 81.218C177.775 81.3207 177.944 81.372 178.179 81.372C178.325 81.372 178.545 81.3427 178.839 81.284L179.037 81.438L178.817 82.67C178.391 82.934 177.929 83.0953 177.431 83.154C176.976 83.11 176.609 82.9487 176.331 82.67C176.052 82.3767 175.883 81.9953 175.825 81.526H175.671C174.923 82.318 174.16 82.868 173.383 83.176C172.371 83.1613 171.571 82.8973 170.985 82.384C170.413 81.8707 170.127 81.174 170.127 80.294C170.127 78.9887 170.838 78.1747 172.261 77.852L175.737 77.082L175.759 75.894C175.759 75.3513 175.619 74.9407 175.341 74.662C175.077 74.3833 174.688 74.244 174.175 74.244C173.676 74.244 173.177 74.3613 172.679 74.596C172.18 74.816 171.63 75.168 171.029 75.652L170.853 75.542L170.567 73.98C171.857 73.1 173.177 72.66 174.527 72.66ZM172.877 79.062C172.613 79.1207 172.422 79.2233 172.305 79.37C172.187 79.502 172.129 79.7147 172.129 80.008C172.129 80.448 172.246 80.7927 172.481 81.042C172.73 81.2913 173.06 81.416 173.471 81.416C174.16 81.416 174.893 80.9687 175.671 80.074L175.737 78.38L172.877 79.062ZM184.794 81.306C185.278 81.306 185.792 81.174 186.334 80.91L186.554 81.064L186.334 82.472C185.528 82.8533 184.78 83.0733 184.09 83.132C183.181 82.9853 182.521 82.6847 182.11 82.23C181.7 81.7607 181.494 81.086 181.494 80.206L181.582 78.622L181.56 74.332H180.174L180.086 74.2L180.196 72.902H181.538V71.296L183.518 70.548L183.716 70.724L183.672 72.902H186.488L186.576 73.056L186.466 74.332H183.628L183.518 79.854C183.504 80.3967 183.592 80.778 183.782 80.998C183.988 81.2033 184.325 81.306 184.794 81.306ZM194.987 72.682C195.867 72.682 196.725 72.8507 197.561 73.188L197.253 74.948L196.967 75.014C196.205 74.5007 195.457 74.244 194.723 74.244C194.283 74.244 193.931 74.3613 193.667 74.596C193.418 74.8307 193.293 75.1167 193.293 75.454C193.293 75.8207 193.44 76.114 193.733 76.334C194.041 76.554 194.511 76.796 195.141 77.06C195.713 77.3093 196.175 77.544 196.527 77.764C196.894 77.984 197.202 78.2773 197.451 78.644C197.715 79.0107 197.847 79.4653 197.847 80.008C197.847 80.5653 197.701 81.0933 197.407 81.592C197.114 82.076 196.681 82.4647 196.109 82.758C195.537 83.0513 194.848 83.198 194.041 83.198C193.029 83.198 192.003 82.9707 190.961 82.516L191.225 80.646L191.467 80.492C191.893 80.8587 192.362 81.152 192.875 81.372C193.389 81.5773 193.858 81.68 194.283 81.68C194.753 81.68 195.127 81.5553 195.405 81.306C195.699 81.042 195.845 80.734 195.845 80.382C195.845 80.0153 195.699 79.7293 195.405 79.524C195.112 79.304 194.65 79.0473 194.019 78.754C193.447 78.5047 192.978 78.27 192.611 78.05C192.245 77.83 191.929 77.5293 191.665 77.148C191.416 76.7667 191.291 76.2973 191.291 75.74C191.291 74.8453 191.621 74.112 192.281 73.54C192.941 72.968 193.843 72.682 194.987 72.682ZM206.647 76.334C206.661 75.7767 206.529 75.344 206.251 75.036C205.987 74.7133 205.598 74.552 205.085 74.552C204.249 74.552 203.369 74.992 202.445 75.872L202.401 78.534L202.555 83H200.311L200.465 78.732L200.333 67.732L202.577 67.556L202.467 74.288H202.599C203.464 73.5253 204.366 73.0047 205.305 72.726C206.434 72.726 207.285 72.9827 207.857 73.496C208.443 74.0093 208.729 74.7427 208.715 75.696L208.671 78.556L208.759 83H206.515L206.647 76.334ZM219.239 78.028L213.057 78.05C213.072 79.1647 213.343 80.0153 213.871 80.602C214.399 81.174 215.147 81.46 216.115 81.46C217.127 81.46 218.117 81.1593 219.085 80.558L219.305 80.69L218.975 82.494C217.905 82.9633 216.863 83.198 215.851 83.198C214.341 83.198 213.153 82.736 212.287 81.812C211.437 80.8733 211.011 79.5973 211.011 77.984C211.011 76.356 211.437 75.0653 212.287 74.112C213.138 73.1587 214.289 72.682 215.741 72.682C216.973 72.682 217.919 73.0193 218.579 73.694C219.254 74.3687 219.591 75.322 219.591 76.554C219.591 76.8913 219.555 77.2947 219.481 77.764L219.239 78.028ZM217.567 76.29C217.567 75.6007 217.406 75.08 217.083 74.728C216.775 74.376 216.321 74.2 215.719 74.2C215.045 74.2 214.487 74.42 214.047 74.86C213.607 75.2853 213.314 75.894 213.167 76.686L217.523 76.598L217.567 76.29ZM229.403 72.66C229.873 72.66 230.349 72.7113 230.833 72.814C231.317 72.9167 231.743 73.056 232.109 73.232L231.735 75.102L231.515 75.19C230.738 74.7353 230.019 74.508 229.359 74.508C228.582 74.508 227.973 74.8013 227.533 75.388C227.093 75.9747 226.873 76.796 226.873 77.852C226.873 78.9813 227.101 79.8613 227.555 80.492C228.01 81.108 228.655 81.416 229.491 81.416C230.225 81.416 231.009 81.196 231.845 80.756L232.043 80.888L231.823 82.692C230.929 83.0293 230.034 83.198 229.139 83.198C227.761 83.198 226.683 82.7433 225.905 81.834C225.143 80.91 224.761 79.6413 224.761 78.028C224.761 76.356 225.172 75.0433 225.993 74.09C226.815 73.1367 227.951 72.66 229.403 72.66ZM237.411 72.66C238.423 72.66 239.223 72.902 239.809 73.386C240.396 73.87 240.689 74.5447 240.689 75.41C240.689 75.674 240.645 76.554 240.557 78.05C240.469 79.5167 240.425 80.3747 240.425 80.624C240.425 80.9027 240.469 81.1007 240.557 81.218C240.66 81.3207 240.829 81.372 241.063 81.372C241.21 81.372 241.43 81.3427 241.723 81.284L241.921 81.438L241.701 82.67C241.276 82.934 240.814 83.0953 240.315 83.154C239.861 83.11 239.494 82.9487 239.215 82.67C238.937 82.3767 238.768 81.9953 238.709 81.526H238.555C237.807 82.318 237.045 82.868 236.267 83.176C235.255 83.1613 234.456 82.8973 233.869 82.384C233.297 81.8707 233.011 81.174 233.011 80.294C233.011 78.9887 233.723 78.1747 235.145 77.852L238.621 77.082L238.643 75.894C238.643 75.3513 238.504 74.9407 238.225 74.662C237.961 74.3833 237.573 74.244 237.059 74.244C236.561 74.244 236.062 74.3613 235.563 74.596C235.065 74.816 234.515 75.168 233.913 75.652L233.737 75.542L233.451 73.98C234.742 73.1 236.062 72.66 237.411 72.66ZM235.761 79.062C235.497 79.1207 235.307 79.2233 235.189 79.37C235.072 79.502 235.013 79.7147 235.013 80.008C235.013 80.448 235.131 80.7927 235.365 81.042C235.615 81.2913 235.945 81.416 236.355 81.416C237.045 81.416 237.778 80.9687 238.555 80.074L238.621 78.38L235.761 79.062ZM250.279 76.334C250.294 75.7767 250.162 75.344 249.883 75.036C249.619 74.7133 249.231 74.552 248.717 74.552C247.867 74.552 246.987 74.992 246.077 75.872L246.055 78.556L246.187 83H243.943L244.075 78.754L243.965 73.012L246.099 72.814L246.077 74.288H246.231C247.097 73.5253 247.999 73.0047 248.937 72.726C250.067 72.726 250.917 72.9827 251.489 73.496C252.076 74.0093 252.362 74.7427 252.347 75.696L252.281 78.556L252.391 83H250.125L250.279 76.334ZM261.117 78.534L261.271 83H259.027L259.181 78.732L259.049 67.732L261.293 67.556L261.117 78.534ZM264.657 78.754L264.591 73.012L266.791 72.814L266.703 78.556L266.769 83H264.569L264.657 78.754ZM265.713 68.128C266.08 68.128 266.366 68.238 266.571 68.458C266.777 68.6633 266.879 68.9567 266.879 69.338C266.879 69.734 266.769 70.0493 266.549 70.284C266.329 70.5187 266.029 70.636 265.647 70.636C265.266 70.636 264.965 70.526 264.745 70.306C264.54 70.086 264.437 69.7853 264.437 69.404C264.437 69.0227 264.547 68.7147 264.767 68.48C265.002 68.2453 265.317 68.128 265.713 68.128ZM271.191 74.288L273.083 80.844H273.237L275.503 74.398L275.855 72.858H277.835L274.249 83H271.851L268.815 72.902L270.905 72.792L271.191 74.288ZM286.722 78.028L280.54 78.05C280.554 79.1647 280.826 80.0153 281.354 80.602C281.882 81.174 282.63 81.46 283.598 81.46C284.61 81.46 285.6 81.1593 286.568 80.558L286.788 80.69L286.458 82.494C285.387 82.9633 284.346 83.198 283.334 83.198C281.823 83.198 280.635 82.736 279.77 81.812C278.919 80.8733 278.494 79.5973 278.494 77.984C278.494 76.356 278.919 75.0653 279.77 74.112C280.62 73.1587 281.772 72.682 283.224 72.682C284.456 72.682 285.402 73.0193 286.062 73.694C286.736 74.3687 287.074 75.322 287.074 76.554C287.074 76.8913 287.037 77.2947 286.964 77.764L286.722 78.028ZM285.05 76.29C285.05 75.6007 284.888 75.08 284.566 74.728C284.258 74.376 283.803 74.2 283.202 74.2C282.527 74.2 281.97 74.42 281.53 74.86C281.09 75.2853 280.796 75.894 280.65 76.686L285.006 76.598L285.05 76.29ZM296.644 72.66C297.656 72.66 298.455 72.902 299.042 73.386C299.628 73.87 299.922 74.5447 299.922 75.41C299.922 75.674 299.878 76.554 299.79 78.05C299.702 79.5167 299.658 80.3747 299.658 80.624C299.658 80.9027 299.702 81.1007 299.79 81.218C299.892 81.3207 300.061 81.372 300.296 81.372C300.442 81.372 300.662 81.3427 300.956 81.284L301.154 81.438L300.934 82.67C300.508 82.934 300.046 83.0953 299.548 83.154C299.093 83.11 298.726 82.9487 298.448 82.67C298.169 82.3767 298 81.9953 297.942 81.526H297.788C297.04 82.318 296.277 82.868 295.5 83.176C294.488 83.1613 293.688 82.8973 293.102 82.384C292.53 81.8707 292.244 81.174 292.244 80.294C292.244 78.9887 292.955 78.1747 294.378 77.852L297.854 77.082L297.876 75.894C297.876 75.3513 297.736 74.9407 297.458 74.662C297.194 74.3833 296.805 74.244 296.292 74.244C295.793 74.244 295.294 74.3613 294.796 74.596C294.297 74.816 293.747 75.168 293.146 75.652L292.97 75.542L292.684 73.98C293.974 73.1 295.294 72.66 296.644 72.66ZM294.994 79.062C294.73 79.1207 294.539 79.2233 294.422 79.37C294.304 79.502 294.246 79.7147 294.246 80.008C294.246 80.448 294.363 80.7927 294.598 81.042C294.847 81.2913 295.177 81.416 295.588 81.416C296.277 81.416 297.01 80.9687 297.788 80.074L297.854 78.38L294.994 79.062ZM311.557 67.512C312.129 67.512 312.723 67.578 313.339 67.71L313.207 69.404L313.053 69.536C312.422 69.2573 311.858 69.118 311.359 69.118C310.831 69.118 310.428 69.2793 310.149 69.602C309.87 69.91 309.724 70.3793 309.709 71.01L309.687 72.902H312.283L312.349 73.056L312.217 74.332H309.665L309.599 78.534L309.753 83H307.509L307.641 78.732L307.597 74.332H306.079L305.991 74.2L306.101 72.902H307.597L307.575 71.384C307.56 70.1373 307.898 69.184 308.587 68.524C309.291 67.8493 310.281 67.512 311.557 67.512ZM323.117 81.438L322.919 82.67C322.435 82.9487 321.958 83.11 321.489 83.154C321.049 83.0807 320.697 82.9267 320.433 82.692C320.184 82.4427 319.993 82.076 319.861 81.592H319.707C318.842 82.3693 317.962 82.8827 317.067 83.132C315.967 83.132 315.124 82.8753 314.537 82.362C313.95 81.8487 313.664 81.1153 313.679 80.162L313.723 77.412L313.635 73.012L315.857 72.814L315.747 79.546C315.732 80.0887 315.85 80.514 316.099 80.822C316.363 81.13 316.752 81.284 317.265 81.284C318.042 81.284 318.842 80.9173 319.663 80.184V73.012L321.797 72.814L321.643 80.646C321.643 80.91 321.687 81.1007 321.775 81.218C321.863 81.3207 322.017 81.372 322.237 81.372C322.413 81.372 322.64 81.3427 322.919 81.284L323.117 81.438ZM327.289 78.534L327.443 83H325.199L325.353 78.732L325.221 67.732L327.465 67.556L327.289 78.534ZM332.875 78.534L333.029 83H330.785L330.939 78.732L330.807 67.732L333.051 67.556L332.875 78.534ZM341.985 78.534L342.139 83H339.895L340.049 78.732L339.917 67.732L342.161 67.556L341.985 78.534ZM345.525 78.754L345.459 73.012L347.659 72.814L347.571 78.556L347.637 83H345.437L345.525 78.754ZM346.581 68.128C346.947 68.128 347.233 68.238 347.439 68.458C347.644 68.6633 347.747 68.9567 347.747 69.338C347.747 69.734 347.637 70.0493 347.417 70.284C347.197 70.5187 346.896 70.636 346.515 70.636C346.133 70.636 345.833 70.526 345.613 70.306C345.407 70.086 345.305 69.7853 345.305 69.404C345.305 69.0227 345.415 68.7147 345.635 68.48C345.869 68.2453 346.185 68.128 346.581 68.128ZM355.579 67.512C356.151 67.512 356.745 67.578 357.361 67.71L357.229 69.404L357.075 69.536C356.444 69.2573 355.879 69.118 355.381 69.118C354.853 69.118 354.449 69.2793 354.171 69.602C353.892 69.91 353.745 70.3793 353.731 71.01L353.709 72.902H356.305L356.371 73.056L356.239 74.332H353.687L353.621 78.534L353.775 83H351.531L351.663 78.732L351.619 74.332H350.101L350.013 74.2L350.123 72.902H351.619L351.597 71.384C351.582 70.1373 351.919 69.184 352.609 68.524C353.313 67.8493 354.303 67.512 355.579 67.512ZM364.968 78.028L358.786 78.05C358.8 79.1647 359.072 80.0153 359.6 80.602C360.128 81.174 360.876 81.46 361.844 81.46C362.856 81.46 363.846 81.1593 364.814 80.558L365.034 80.69L364.704 82.494C363.633 82.9633 362.592 83.198 361.58 83.198C360.069 83.198 358.881 82.736 358.016 81.812C357.165 80.8733 356.74 79.5973 356.74 77.984C356.74 76.356 357.165 75.0653 358.016 74.112C358.866 73.1587 360.018 72.682 361.47 72.682C362.702 72.682 363.648 73.0193 364.308 73.694C364.982 74.3687 365.32 75.322 365.32 76.554C365.32 76.8913 365.283 77.2947 365.21 77.764L364.968 78.028ZM363.296 76.29C363.296 75.6007 363.134 75.08 362.812 74.728C362.504 74.376 362.049 74.2 361.448 74.2C360.773 74.2 360.216 74.42 359.776 74.86C359.336 75.2853 359.042 75.894 358.896 76.686L363.252 76.598L363.296 76.29ZM379.224 78.534L379.29 80.646C379.304 80.9247 379.348 81.1153 379.422 81.218C379.495 81.3207 379.642 81.372 379.862 81.372C380.023 81.372 380.25 81.3427 380.544 81.284L380.742 81.438L380.522 82.67C380.096 82.934 379.634 83.0953 379.136 83.154C378.681 83.11 378.307 82.956 378.014 82.692C377.735 82.4133 377.559 82.054 377.486 81.614H377.31C376.884 81.9807 376.503 82.2813 376.166 82.516C375.828 82.736 375.454 82.9413 375.044 83.132C373.577 83.132 372.448 82.6847 371.656 81.79C370.878 80.8807 370.49 79.6047 370.49 77.962C370.49 76.2753 370.93 74.9773 371.81 74.068C372.69 73.144 373.914 72.682 375.484 72.682C375.997 72.682 376.569 72.7407 377.2 72.858L377.156 67.732L379.378 67.556L379.224 78.534ZM375.264 74.222C374.428 74.222 373.768 74.508 373.284 75.08C372.814 75.652 372.58 76.5027 372.58 77.632C372.58 78.82 372.8 79.7293 373.24 80.36C373.68 80.9907 374.296 81.306 375.088 81.306C375.454 81.306 375.806 81.218 376.144 81.042C376.481 80.866 376.84 80.5653 377.222 80.14L377.266 78.732L377.2 74.728C376.496 74.3907 375.85 74.222 375.264 74.222ZM390.19 78.028L384.008 78.05C384.023 79.1647 384.294 80.0153 384.822 80.602C385.35 81.174 386.098 81.46 387.066 81.46C388.078 81.46 389.068 81.1593 390.036 80.558L390.256 80.69L389.926 82.494C388.856 82.9633 387.814 83.198 386.802 83.198C385.292 83.198 384.104 82.736 383.238 81.812C382.388 80.8733 381.962 79.5973 381.962 77.984C381.962 76.356 382.388 75.0653 383.238 74.112C384.089 73.1587 385.24 72.682 386.692 72.682C387.924 72.682 388.87 73.0193 389.53 73.694C390.205 74.3687 390.542 75.322 390.542 76.554C390.542 76.8913 390.506 77.2947 390.432 77.764L390.19 78.028ZM388.518 76.29C388.518 75.6007 388.357 75.08 388.034 74.728C387.726 74.376 387.272 74.2 386.67 74.2C385.996 74.2 385.438 74.42 384.998 74.86C384.558 75.2853 384.265 75.894 384.118 76.686L388.474 76.598L388.518 76.29ZM395.995 72.682C396.875 72.682 397.733 72.8507 398.569 73.188L398.261 74.948L397.975 75.014C397.212 74.5007 396.464 74.244 395.731 74.244C395.291 74.244 394.939 74.3613 394.675 74.596C394.426 74.8307 394.301 75.1167 394.301 75.454C394.301 75.8207 394.448 76.114 394.741 76.334C395.049 76.554 395.518 76.796 396.149 77.06C396.721 77.3093 397.183 77.544 397.535 77.764C397.902 77.984 398.21 78.2773 398.459 78.644C398.723 79.0107 398.855 79.4653 398.855 80.008C398.855 80.5653 398.708 81.0933 398.415 81.592C398.122 82.076 397.689 82.4647 397.117 82.758C396.545 83.0513 395.856 83.198 395.049 83.198C394.037 83.198 393.01 82.9707 391.969 82.516L392.233 80.646L392.475 80.492C392.9 80.8587 393.37 81.152 393.883 81.372C394.396 81.5773 394.866 81.68 395.291 81.68C395.76 81.68 396.134 81.5553 396.413 81.306C396.706 81.042 396.853 80.734 396.853 80.382C396.853 80.0153 396.706 79.7293 396.413 79.524C396.12 79.304 395.658 79.0473 395.027 78.754C394.455 78.5047 393.986 78.27 393.619 78.05C393.252 77.83 392.937 77.5293 392.673 77.148C392.424 76.7667 392.299 76.2973 392.299 75.74C392.299 74.8453 392.629 74.112 393.289 73.54C393.949 72.968 394.851 72.682 395.995 72.682ZM406.158 72.748C407.42 72.748 408.388 73.1733 409.062 74.024C409.752 74.86 410.096 76.0627 410.096 77.632C410.096 79.4067 409.664 80.778 408.798 81.746C407.933 82.714 406.701 83.198 405.102 83.198C404.589 83.198 404.017 83.1393 403.386 83.022L403.452 87.07H401.23L401.384 78.754L401.23 73.012L403.386 72.814L403.364 74.266H403.518C403.988 73.8553 404.42 73.54 404.816 73.32C405.212 73.1 405.66 72.9093 406.158 72.748ZM405.278 81.658C406.158 81.658 406.833 81.3427 407.302 80.712C407.772 80.0813 408.006 79.1793 408.006 78.006C408.006 76.8913 407.816 76.0407 407.434 75.454C407.053 74.8527 406.503 74.552 405.784 74.552C405.388 74.552 404.992 74.662 404.596 74.882C404.215 75.0873 403.797 75.4173 403.342 75.872L403.32 78.556L403.364 81.174C404.054 81.4967 404.692 81.658 405.278 81.658ZM412.642 78.754L412.576 73.012L414.776 72.814L414.688 78.556L414.754 83H412.554L412.642 78.754ZM413.698 68.128C414.064 68.128 414.35 68.238 414.556 68.458C414.761 68.6633 414.864 68.9567 414.864 69.338C414.864 69.734 414.754 70.0493 414.534 70.284C414.314 70.5187 414.013 70.636 413.632 70.636C413.25 70.636 412.95 70.526 412.73 70.306C412.524 70.086 412.422 69.7853 412.422 69.404C412.422 69.0227 412.532 68.7147 412.752 68.48C412.986 68.2453 413.302 68.128 413.698 68.128ZM421.574 81.306C422.058 81.306 422.571 81.174 423.114 80.91L423.334 81.064L423.114 82.472C422.307 82.8533 421.559 83.0733 420.87 83.132C419.96 82.9853 419.3 82.6847 418.89 82.23C418.479 81.7607 418.274 81.086 418.274 80.206L418.362 78.622L418.34 74.332H416.954L416.866 74.2L416.976 72.902H418.318V71.296L420.298 70.548L420.496 70.724L420.452 72.902H423.268L423.356 73.056L423.246 74.332H420.408L420.298 79.854C420.283 80.3967 420.371 80.778 420.562 80.998C420.767 81.2033 421.104 81.306 421.574 81.306ZM432.429 78.028L426.247 78.05C426.261 79.1647 426.533 80.0153 427.061 80.602C427.589 81.174 428.337 81.46 429.305 81.46C430.317 81.46 431.307 81.1593 432.275 80.558L432.495 80.69L432.165 82.494C431.094 82.9633 430.053 83.198 429.041 83.198C427.53 83.198 426.342 82.736 425.477 81.812C424.626 80.8733 424.201 79.5973 424.201 77.984C424.201 76.356 424.626 75.0653 425.477 74.112C426.327 73.1587 427.479 72.682 428.931 72.682C430.163 72.682 431.109 73.0193 431.769 73.694C432.443 74.3687 432.781 75.322 432.781 76.554C432.781 76.8913 432.744 77.2947 432.671 77.764L432.429 78.028ZM430.757 76.29C430.757 75.6007 430.595 75.08 430.273 74.728C429.965 74.376 429.51 74.2 428.909 74.2C428.234 74.2 427.677 74.42 427.237 74.86C426.797 75.2853 426.503 75.894 426.357 76.686L430.713 76.598L430.757 76.29ZM443.759 72.748C445.035 72.748 446.01 73.1733 446.685 74.024C447.359 74.8747 447.697 76.07 447.697 77.61C447.697 79.3993 447.264 80.778 446.399 81.746C445.533 82.714 444.331 83.198 442.791 83.198C442.043 83.198 441.295 83.0293 440.547 82.692L439.139 83.264L438.809 83.044L438.963 78.776L438.831 67.732L441.075 67.556L440.987 74.266H441.119C441.573 73.87 441.999 73.562 442.395 73.342C442.791 73.1073 443.245 72.9093 443.759 72.748ZM442.879 81.658C443.729 81.658 444.397 81.3573 444.881 80.756C445.365 80.14 445.607 79.216 445.607 77.984C445.607 76.884 445.416 76.0407 445.035 75.454C444.653 74.8527 444.103 74.552 443.385 74.552C442.607 74.552 441.801 74.992 440.965 75.872L440.921 78.512L440.987 81.064C441.647 81.46 442.277 81.658 442.879 81.658ZM457.565 78.028L451.383 78.05C451.398 79.1647 451.669 80.0153 452.197 80.602C452.725 81.174 453.473 81.46 454.441 81.46C455.453 81.46 456.443 81.1593 457.411 80.558L457.631 80.69L457.301 82.494C456.231 82.9633 455.189 83.198 454.177 83.198C452.667 83.198 451.479 82.736 450.613 81.812C449.763 80.8733 449.337 79.5973 449.337 77.984C449.337 76.356 449.763 75.0653 450.613 74.112C451.464 73.1587 452.615 72.682 454.067 72.682C455.299 72.682 456.245 73.0193 456.905 73.694C457.58 74.3687 457.917 75.322 457.917 76.554C457.917 76.8913 457.881 77.2947 457.807 77.764L457.565 78.028ZM455.893 76.29C455.893 75.6007 455.732 75.08 455.409 74.728C455.101 74.376 454.647 74.2 454.045 74.2C453.371 74.2 452.813 74.42 452.373 74.86C451.933 75.2853 451.64 75.894 451.493 76.686L455.849 76.598L455.893 76.29ZM460.466 78.754L460.4 73.012L462.6 72.814L462.512 78.556L462.578 83H460.378L460.466 78.754ZM461.522 68.128C461.889 68.128 462.175 68.238 462.38 68.458C462.585 68.6633 462.688 68.9567 462.688 69.338C462.688 69.734 462.578 70.0493 462.358 70.284C462.138 70.5187 461.837 70.636 461.456 70.636C461.075 70.636 460.774 70.526 460.554 70.306C460.349 70.086 460.246 69.7853 460.246 69.404C460.246 69.0227 460.356 68.7147 460.576 68.48C460.811 68.2453 461.126 68.128 461.522 68.128ZM472.17 76.334C472.185 75.7767 472.053 75.344 471.774 75.036C471.51 74.7133 471.121 74.552 470.608 74.552C469.757 74.552 468.877 74.992 467.968 75.872L467.946 78.556L468.078 83H465.834L465.966 78.754L465.856 73.012L467.99 72.814L467.968 74.288H468.122C468.987 73.5253 469.889 73.0047 470.828 72.726C471.957 72.726 472.808 72.9827 473.38 73.496C473.967 74.0093 474.253 74.7427 474.238 75.696L474.172 78.556L474.282 83H472.016L472.17 76.334ZM486.613 73.936C486.202 74.068 485.571 74.2073 484.721 74.354L484.677 74.442C484.955 74.9113 485.095 75.476 485.095 76.136C485.095 77.2213 484.721 78.0867 483.973 78.732C483.225 79.3627 482.213 79.678 480.937 79.678C480.467 79.678 480.02 79.634 479.595 79.546C479.419 79.6927 479.294 79.8247 479.221 79.942C479.162 80.0447 479.133 80.1547 479.133 80.272C479.133 80.5653 479.316 80.7707 479.683 80.888C480.064 81.0053 480.658 81.1227 481.465 81.24C482.301 81.3427 482.997 81.4673 483.555 81.614C484.112 81.7607 484.589 82.01 484.985 82.362C485.395 82.714 485.601 83.198 485.601 83.814C485.601 84.4593 485.388 85.046 484.963 85.574C484.537 86.102 483.951 86.5127 483.203 86.806C482.469 87.114 481.648 87.268 480.739 87.268C479.507 87.268 478.546 86.9967 477.857 86.454C477.182 85.9113 476.845 85.2 476.845 84.32C477.065 83.968 477.329 83.6527 477.637 83.374C477.945 83.0953 478.311 82.8167 478.737 82.538V82.428C478.223 82.252 477.827 82.0247 477.549 81.746C477.27 81.4527 477.131 81.064 477.131 80.58C477.512 80.0373 477.981 79.59 478.539 79.238V79.128C478.04 78.8493 477.659 78.4753 477.395 78.006C477.145 77.522 477.021 76.9573 477.021 76.312C477.021 75.1973 477.387 74.3247 478.121 73.694C478.869 73.0487 479.873 72.726 481.135 72.726C481.897 72.726 482.572 72.8507 483.159 73.1C484.244 72.924 485.329 72.6673 486.415 72.33L486.613 72.462V73.936ZM481.025 78.248C481.699 78.248 482.213 78.0647 482.565 77.698C482.931 77.3313 483.115 76.8107 483.115 76.136C483.115 75.5053 482.946 75.0213 482.609 74.684C482.271 74.3467 481.773 74.178 481.113 74.178C480.423 74.178 479.895 74.354 479.529 74.706C479.177 75.0433 479.001 75.542 479.001 76.202C479.001 76.862 479.169 77.368 479.507 77.72C479.859 78.072 480.365 78.248 481.025 78.248ZM483.665 84.232C483.665 83.9093 483.54 83.66 483.291 83.484C483.041 83.308 482.741 83.176 482.389 83.088C482.037 83.0147 481.523 82.9267 480.849 82.824C480.526 82.7947 480.299 82.7653 480.167 82.736C479.697 83.0293 479.345 83.3153 479.111 83.594C478.876 83.8727 478.759 84.1587 478.759 84.452C478.759 84.848 478.949 85.1707 479.331 85.42C479.727 85.684 480.284 85.816 481.003 85.816C481.78 85.816 482.418 85.6693 482.917 85.376C483.415 85.0827 483.665 84.7013 483.665 84.232ZM158.891 107.534L158.957 109.646C158.971 109.925 159.015 110.115 159.089 110.218C159.162 110.321 159.309 110.372 159.529 110.372C159.69 110.372 159.917 110.343 160.211 110.284L160.409 110.438L160.189 111.67C159.763 111.934 159.301 112.095 158.803 112.154C158.348 112.11 157.974 111.956 157.681 111.692C157.402 111.413 157.226 111.054 157.153 110.614H156.977C156.551 110.981 156.17 111.281 155.833 111.516C155.495 111.736 155.121 111.941 154.711 112.132C153.244 112.132 152.115 111.685 151.323 110.79C150.545 109.881 150.157 108.605 150.157 106.962C150.157 105.275 150.597 103.977 151.477 103.068C152.357 102.144 153.581 101.682 155.151 101.682C155.664 101.682 156.236 101.741 156.867 101.858L156.823 96.732L159.045 96.556L158.891 107.534ZM154.931 103.222C154.095 103.222 153.435 103.508 152.951 104.08C152.481 104.652 152.247 105.503 152.247 106.632C152.247 107.82 152.467 108.729 152.907 109.36C153.347 109.991 153.963 110.306 154.755 110.306C155.121 110.306 155.473 110.218 155.811 110.042C156.148 109.866 156.507 109.565 156.889 109.14L156.933 107.732L156.867 103.728C156.163 103.391 155.517 103.222 154.931 103.222ZM162.531 107.754L162.465 102.012L164.665 101.814L164.577 107.556L164.643 112H162.443L162.531 107.754ZM163.587 97.128C163.954 97.128 164.24 97.238 164.445 97.458C164.651 97.6633 164.753 97.9567 164.753 98.338C164.753 98.734 164.643 99.0493 164.423 99.284C164.203 99.5187 163.903 99.636 163.521 99.636C163.14 99.636 162.839 99.526 162.619 99.306C162.414 99.086 162.311 98.7853 162.311 98.404C162.311 98.0227 162.421 97.7147 162.641 97.48C162.876 97.2453 163.191 97.128 163.587 97.128ZM171.529 101.66C172.541 101.66 173.341 101.902 173.927 102.386C174.514 102.87 174.807 103.545 174.807 104.41C174.807 104.674 174.763 105.554 174.675 107.05C174.587 108.517 174.543 109.375 174.543 109.624C174.543 109.903 174.587 110.101 174.675 110.218C174.778 110.321 174.947 110.372 175.181 110.372C175.328 110.372 175.548 110.343 175.841 110.284L176.039 110.438L175.819 111.67C175.394 111.934 174.932 112.095 174.433 112.154C173.979 112.11 173.612 111.949 173.333 111.67C173.055 111.377 172.886 110.995 172.827 110.526H172.673C171.925 111.318 171.163 111.868 170.385 112.176C169.373 112.161 168.574 111.897 167.987 111.384C167.415 110.871 167.129 110.174 167.129 109.294C167.129 107.989 167.841 107.175 169.263 106.852L172.739 106.082L172.761 104.894C172.761 104.351 172.622 103.941 172.343 103.662C172.079 103.383 171.691 103.244 171.177 103.244C170.679 103.244 170.18 103.361 169.681 103.596C169.183 103.816 168.633 104.168 168.031 104.652L167.855 104.542L167.569 102.98C168.86 102.1 170.18 101.66 171.529 101.66ZM169.879 108.062C169.615 108.121 169.425 108.223 169.307 108.37C169.19 108.502 169.131 108.715 169.131 109.008C169.131 109.448 169.249 109.793 169.483 110.042C169.733 110.291 170.063 110.416 170.473 110.416C171.163 110.416 171.896 109.969 172.673 109.074L172.739 107.38L169.879 108.062ZM187.539 102.936C187.129 103.068 186.498 103.207 185.647 103.354L185.603 103.442C185.882 103.911 186.021 104.476 186.021 105.136C186.021 106.221 185.647 107.087 184.899 107.732C184.151 108.363 183.139 108.678 181.863 108.678C181.394 108.678 180.947 108.634 180.521 108.546C180.345 108.693 180.221 108.825 180.147 108.942C180.089 109.045 180.059 109.155 180.059 109.272C180.059 109.565 180.243 109.771 180.609 109.888C180.991 110.005 181.585 110.123 182.391 110.24C183.227 110.343 183.924 110.467 184.481 110.614C185.039 110.761 185.515 111.01 185.911 111.362C186.322 111.714 186.527 112.198 186.527 112.814C186.527 113.459 186.315 114.046 185.889 114.574C185.464 115.102 184.877 115.513 184.129 115.806C183.396 116.114 182.575 116.268 181.665 116.268C180.433 116.268 179.473 115.997 178.783 115.454C178.109 114.911 177.771 114.2 177.771 113.32C177.991 112.968 178.255 112.653 178.563 112.374C178.871 112.095 179.238 111.817 179.663 111.538V111.428C179.15 111.252 178.754 111.025 178.475 110.746C178.197 110.453 178.057 110.064 178.057 109.58C178.439 109.037 178.908 108.59 179.465 108.238V108.128C178.967 107.849 178.585 107.475 178.321 107.006C178.072 106.522 177.947 105.957 177.947 105.312C177.947 104.197 178.314 103.325 179.047 102.694C179.795 102.049 180.8 101.726 182.061 101.726C182.824 101.726 183.499 101.851 184.085 102.1C185.171 101.924 186.256 101.667 187.341 101.33L187.539 101.462V102.936ZM181.951 107.248C182.626 107.248 183.139 107.065 183.491 106.698C183.858 106.331 184.041 105.811 184.041 105.136C184.041 104.505 183.873 104.021 183.535 103.684C183.198 103.347 182.699 103.178 182.039 103.178C181.35 103.178 180.822 103.354 180.455 103.706C180.103 104.043 179.927 104.542 179.927 105.202C179.927 105.862 180.096 106.368 180.433 106.72C180.785 107.072 181.291 107.248 181.951 107.248ZM184.591 113.232C184.591 112.909 184.467 112.66 184.217 112.484C183.968 112.308 183.667 112.176 183.315 112.088C182.963 112.015 182.45 111.927 181.775 111.824C181.453 111.795 181.225 111.765 181.093 111.736C180.624 112.029 180.272 112.315 180.037 112.594C179.803 112.873 179.685 113.159 179.685 113.452C179.685 113.848 179.876 114.171 180.257 114.42C180.653 114.684 181.211 114.816 181.929 114.816C182.707 114.816 183.345 114.669 183.843 114.376C184.342 114.083 184.591 113.701 184.591 113.232ZM195.398 105.334C195.412 104.777 195.28 104.344 195.002 104.036C194.738 103.713 194.349 103.552 193.836 103.552C192.985 103.552 192.105 103.992 191.196 104.872L191.174 107.556L191.306 112H189.062L189.194 107.754L189.084 102.012L191.218 101.814L191.196 103.288H191.35C192.215 102.525 193.117 102.005 194.056 101.726C195.185 101.726 196.036 101.983 196.608 102.496C197.194 103.009 197.48 103.743 197.466 104.696L197.4 107.556L197.51 112H195.244L195.398 105.334ZM204.494 101.66C205.917 101.66 207.01 102.107 207.772 103.002C208.55 103.882 208.938 105.136 208.938 106.764C208.938 108.509 208.528 109.851 207.706 110.79C206.885 111.729 205.719 112.198 204.208 112.198C202.786 112.198 201.686 111.758 200.908 110.878C200.146 109.983 199.764 108.722 199.764 107.094C199.764 105.349 200.175 104.007 200.996 103.068C201.818 102.129 202.984 101.66 204.494 101.66ZM204.362 103.222C202.69 103.222 201.854 104.351 201.854 106.61C201.854 107.989 202.06 109.008 202.47 109.668C202.881 110.328 203.512 110.658 204.362 110.658C205.198 110.658 205.822 110.379 206.232 109.822C206.643 109.265 206.848 108.414 206.848 107.27C206.848 105.891 206.643 104.872 206.232 104.212C205.822 103.552 205.198 103.222 204.362 103.222ZM214.398 101.682C215.278 101.682 216.136 101.851 216.972 102.188L216.664 103.948L216.378 104.014C215.616 103.501 214.868 103.244 214.134 103.244C213.694 103.244 213.342 103.361 213.078 103.596C212.829 103.831 212.704 104.117 212.704 104.454C212.704 104.821 212.851 105.114 213.144 105.334C213.452 105.554 213.922 105.796 214.552 106.06C215.124 106.309 215.586 106.544 215.938 106.764C216.305 106.984 216.613 107.277 216.862 107.644C217.126 108.011 217.258 108.465 217.258 109.008C217.258 109.565 217.112 110.093 216.818 110.592C216.525 111.076 216.092 111.465 215.52 111.758C214.948 112.051 214.259 112.198 213.452 112.198C212.44 112.198 211.414 111.971 210.372 111.516L210.636 109.646L210.878 109.492C211.304 109.859 211.773 110.152 212.286 110.372C212.8 110.577 213.269 110.68 213.694 110.68C214.164 110.68 214.538 110.555 214.816 110.306C215.11 110.042 215.256 109.734 215.256 109.382C215.256 109.015 215.11 108.729 214.816 108.524C214.523 108.304 214.061 108.047 213.43 107.754C212.858 107.505 212.389 107.27 212.022 107.05C211.656 106.83 211.34 106.529 211.076 106.148C210.827 105.767 210.702 105.297 210.702 104.74C210.702 103.845 211.032 103.112 211.692 102.54C212.352 101.968 213.254 101.682 214.398 101.682ZM227.092 107.028L220.91 107.05C220.924 108.165 221.196 109.015 221.724 109.602C222.252 110.174 223 110.46 223.968 110.46C224.98 110.46 225.97 110.159 226.938 109.558L227.158 109.69L226.828 111.494C225.757 111.963 224.716 112.198 223.704 112.198C222.193 112.198 221.005 111.736 220.14 110.812C219.289 109.873 218.864 108.597 218.864 106.984C218.864 105.356 219.289 104.065 220.14 103.112C220.99 102.159 222.142 101.682 223.594 101.682C224.826 101.682 225.772 102.019 226.432 102.694C227.106 103.369 227.444 104.322 227.444 105.554C227.444 105.891 227.407 106.295 227.334 106.764L227.092 107.028ZM225.42 105.29C225.42 104.601 225.258 104.08 224.936 103.728C224.628 103.376 224.173 103.2 223.572 103.2C222.897 103.2 222.34 103.42 221.9 103.86C221.46 104.285 221.166 104.894 221.02 105.686L225.376 105.598L225.42 105.29ZM237.824 107.534L237.89 109.646C237.905 109.925 237.949 110.115 238.022 110.218C238.096 110.321 238.242 110.372 238.462 110.372C238.624 110.372 238.851 110.343 239.144 110.284L239.342 110.438L239.122 111.67C238.697 111.934 238.235 112.095 237.736 112.154C237.282 112.11 236.908 111.956 236.614 111.692C236.336 111.413 236.16 111.054 236.086 110.614H235.91C235.485 110.981 235.104 111.281 234.766 111.516C234.429 111.736 234.055 111.941 233.644 112.132C232.178 112.132 231.048 111.685 230.256 110.79C229.479 109.881 229.09 108.605 229.09 106.962C229.09 105.275 229.53 103.977 230.41 103.068C231.29 102.144 232.515 101.682 234.084 101.682C234.598 101.682 235.17 101.741 235.8 101.858L235.756 96.732L237.978 96.556L237.824 107.534ZM233.864 103.222C233.028 103.222 232.368 103.508 231.884 104.08C231.415 104.652 231.18 105.503 231.18 106.632C231.18 107.82 231.4 108.729 231.84 109.36C232.28 109.991 232.896 110.306 233.688 110.306C234.055 110.306 234.407 110.218 234.744 110.042C235.082 109.866 235.441 109.565 235.822 109.14L235.866 107.732L235.8 103.728C235.096 103.391 234.451 103.222 233.864 103.222ZM245.934 103.222L247.54 109.668H247.694L249.564 103.332L249.938 101.858H252.094L252.336 103.222L253.964 109.668H254.096L255.966 103.332L256.318 101.858H258.232L254.976 112H252.842L250.972 104.696H250.796L248.618 112H246.418L243.668 101.902L245.714 101.792L245.934 103.222ZM260.049 107.754L259.983 102.012L262.183 101.814L262.095 107.556L262.161 112H259.961L260.049 107.754ZM261.105 97.128C261.472 97.128 261.758 97.238 261.963 97.458C262.168 97.6633 262.271 97.9567 262.271 98.338C262.271 98.734 262.161 99.0493 261.941 99.284C261.721 99.5187 261.42 99.636 261.039 99.636C260.658 99.636 260.357 99.526 260.137 99.306C259.932 99.086 259.829 98.7853 259.829 98.404C259.829 98.0227 259.939 97.7147 260.159 97.48C260.394 97.2453 260.709 97.128 261.105 97.128ZM268.981 110.306C269.465 110.306 269.978 110.174 270.521 109.91L270.741 110.064L270.521 111.472C269.714 111.853 268.966 112.073 268.277 112.132C267.368 111.985 266.708 111.685 266.297 111.23C265.886 110.761 265.681 110.086 265.681 109.206L265.769 107.622L265.747 103.332H264.361L264.273 103.2L264.383 101.902H265.725V100.296L267.705 99.548L267.903 99.724L267.859 101.902H270.675L270.763 102.056L270.653 103.332H267.815L267.705 108.854C267.69 109.397 267.778 109.778 267.969 109.998C268.174 110.203 268.512 110.306 268.981 110.306ZM279.038 105.334C279.053 104.777 278.921 104.344 278.642 104.036C278.378 103.713 277.99 103.552 277.476 103.552C276.64 103.552 275.76 103.992 274.836 104.872L274.792 107.534L274.946 112H272.702L272.856 107.732L272.724 96.732L274.968 96.556L274.858 103.288H274.99C275.856 102.525 276.758 102.005 277.696 101.726C278.826 101.726 279.676 101.983 280.248 102.496C280.835 103.009 281.121 103.743 281.106 104.696L281.062 107.556L281.15 112H278.906L279.038 105.334ZM291.326 101.66C292.338 101.66 293.138 101.902 293.724 102.386C294.311 102.87 294.604 103.545 294.604 104.41C294.604 104.674 294.56 105.554 294.472 107.05C294.384 108.517 294.34 109.375 294.34 109.624C294.34 109.903 294.384 110.101 294.472 110.218C294.575 110.321 294.744 110.372 294.978 110.372C295.125 110.372 295.345 110.343 295.638 110.284L295.836 110.438L295.616 111.67C295.191 111.934 294.729 112.095 294.23 112.154C293.776 112.11 293.409 111.949 293.13 111.67C292.852 111.377 292.683 110.995 292.624 110.526H292.47C291.722 111.318 290.96 111.868 290.182 112.176C289.17 112.161 288.371 111.897 287.784 111.384C287.212 110.871 286.926 110.174 286.926 109.294C286.926 107.989 287.638 107.175 289.06 106.852L292.536 106.082L292.558 104.894C292.558 104.351 292.419 103.941 292.14 103.662C291.876 103.383 291.488 103.244 290.974 103.244C290.476 103.244 289.977 103.361 289.478 103.596C288.98 103.816 288.43 104.168 287.828 104.652L287.652 104.542L287.366 102.98C288.657 102.1 289.977 101.66 291.326 101.66ZM289.676 108.062C289.412 108.121 289.222 108.223 289.104 108.37C288.987 108.502 288.928 108.715 288.928 109.008C288.928 109.448 289.046 109.793 289.28 110.042C289.53 110.291 289.86 110.416 290.27 110.416C290.96 110.416 291.693 109.969 292.47 109.074L292.536 107.38L289.676 108.062ZM305.426 101.66C305.895 101.66 306.372 101.711 306.856 101.814C307.34 101.917 307.765 102.056 308.132 102.232L307.758 104.102L307.538 104.19C306.76 103.735 306.042 103.508 305.382 103.508C304.604 103.508 303.996 103.801 303.556 104.388C303.116 104.975 302.896 105.796 302.896 106.852C302.896 107.981 303.123 108.861 303.578 109.492C304.032 110.108 304.678 110.416 305.514 110.416C306.247 110.416 307.032 110.196 307.868 109.756L308.066 109.888L307.846 111.692C306.951 112.029 306.056 112.198 305.162 112.198C303.783 112.198 302.705 111.743 301.928 110.834C301.165 109.91 300.784 108.641 300.784 107.028C300.784 105.356 301.194 104.043 302.016 103.09C302.837 102.137 303.974 101.66 305.426 101.66ZM316.4 105.334C316.414 104.777 316.282 104.344 316.004 104.036C315.74 103.713 315.351 103.552 314.838 103.552C314.002 103.552 313.122 103.992 312.198 104.872L312.154 107.534L312.308 112H310.064L310.218 107.732L310.086 96.732L312.33 96.556L312.22 103.288H312.352C313.217 102.525 314.119 102.005 315.058 101.726C316.187 101.726 317.038 101.983 317.61 102.496C318.196 103.009 318.482 103.743 318.468 104.696L318.424 107.556L318.512 112H316.268L316.4 105.334ZM326.422 101.836C326.584 101.836 326.767 101.851 326.972 101.88V104.014L326.73 104.08C326.496 104.007 326.224 103.97 325.916 103.97C325.462 103.97 325.036 104.139 324.64 104.476C324.244 104.813 323.863 105.356 323.496 106.104L323.474 107.556L323.606 112H321.362L321.516 107.754L321.384 102.012L323.518 101.814L323.496 103.838H323.65C324.046 103.134 324.486 102.628 324.97 102.32C325.454 101.997 325.938 101.836 326.422 101.836ZM332.67 101.66C334.093 101.66 335.185 102.107 335.948 103.002C336.725 103.882 337.114 105.136 337.114 106.764C337.114 108.509 336.703 109.851 335.882 110.79C335.061 111.729 333.895 112.198 332.384 112.198C330.961 112.198 329.861 111.758 329.084 110.878C328.321 109.983 327.94 108.722 327.94 107.094C327.94 105.349 328.351 104.007 329.172 103.068C329.993 102.129 331.159 101.66 332.67 101.66ZM332.538 103.222C330.866 103.222 330.03 104.351 330.03 106.61C330.03 107.989 330.235 109.008 330.646 109.668C331.057 110.328 331.687 110.658 332.538 110.658C333.374 110.658 333.997 110.379 334.408 109.822C334.819 109.265 335.024 108.414 335.024 107.27C335.024 105.891 334.819 104.872 334.408 104.212C333.997 103.552 333.374 103.222 332.538 103.222ZM345.702 105.334C345.717 104.777 345.585 104.344 345.306 104.036C345.042 103.713 344.654 103.552 344.14 103.552C343.29 103.552 342.41 103.992 341.5 104.872L341.478 107.556L341.61 112H339.366L339.498 107.754L339.388 102.012L341.522 101.814L341.5 103.288H341.654C342.52 102.525 343.422 102.005 344.36 101.726C345.49 101.726 346.34 101.983 346.912 102.496C347.499 103.009 347.785 103.743 347.77 104.696L347.704 107.556L347.814 112H345.548L345.702 105.334ZM350.971 107.754L350.905 102.012L353.105 101.814L353.017 107.556L353.083 112H350.883L350.971 107.754ZM352.027 97.128C352.394 97.128 352.68 97.238 352.885 97.458C353.09 97.6633 353.193 97.9567 353.193 98.338C353.193 98.734 353.083 99.0493 352.863 99.284C352.643 99.5187 352.342 99.636 351.961 99.636C351.58 99.636 351.279 99.526 351.059 99.306C350.854 99.086 350.751 98.7853 350.751 98.404C350.751 98.0227 350.861 97.7147 351.081 97.48C351.316 97.2453 351.631 97.128 352.027 97.128ZM360.211 101.66C360.68 101.66 361.157 101.711 361.641 101.814C362.125 101.917 362.55 102.056 362.917 102.232L362.543 104.102L362.323 104.19C361.546 103.735 360.827 103.508 360.167 103.508C359.39 103.508 358.781 103.801 358.341 104.388C357.901 104.975 357.681 105.796 357.681 106.852C357.681 107.981 357.908 108.861 358.363 109.492C358.818 110.108 359.463 110.416 360.299 110.416C361.032 110.416 361.817 110.196 362.653 109.756L362.851 109.888L362.631 111.692C361.736 112.029 360.842 112.198 359.947 112.198C358.568 112.198 357.49 111.743 356.713 110.834C355.95 109.91 355.569 108.641 355.569 107.028C355.569 105.356 355.98 104.043 356.801 103.09C357.622 102.137 358.759 101.66 360.211 101.66ZM368.459 107.754L368.393 102.012L370.593 101.814L370.505 107.556L370.571 112H368.371L368.459 107.754ZM369.515 97.128C369.882 97.128 370.168 97.238 370.373 97.458C370.578 97.6633 370.681 97.9567 370.681 98.338C370.681 98.734 370.571 99.0493 370.351 99.284C370.131 99.5187 369.83 99.636 369.449 99.636C369.068 99.636 368.767 99.526 368.547 99.306C368.342 99.086 368.239 98.7853 368.239 98.404C368.239 98.0227 368.349 97.7147 368.569 97.48C368.804 97.2453 369.119 97.128 369.515 97.128ZM376.005 107.534L376.159 112H373.915L374.069 107.732L373.937 96.732L376.181 96.556L376.005 107.534ZM381.591 107.534L381.745 112H379.501L379.655 107.732L379.523 96.732L381.767 96.556L381.591 107.534ZM391.335 105.334C391.35 104.777 391.218 104.344 390.939 104.036C390.675 103.713 390.286 103.552 389.773 103.552C388.922 103.552 388.042 103.992 387.133 104.872L387.111 107.556L387.243 112H384.999L385.131 107.754L385.021 102.012L387.155 101.814L387.133 103.288H387.287C388.152 102.525 389.054 102.005 389.993 101.726C391.122 101.726 391.973 101.983 392.545 102.496C393.132 103.009 393.418 103.743 393.403 104.696L393.337 107.556L393.447 112H391.181L391.335 105.334ZM403.93 107.028L397.748 107.05C397.762 108.165 398.034 109.015 398.562 109.602C399.09 110.174 399.838 110.46 400.806 110.46C401.818 110.46 402.808 110.159 403.776 109.558L403.996 109.69L403.666 111.494C402.595 111.963 401.554 112.198 400.542 112.198C399.031 112.198 397.843 111.736 396.978 110.812C396.127 109.873 395.702 108.597 395.702 106.984C395.702 105.356 396.127 104.065 396.978 103.112C397.828 102.159 398.98 101.682 400.432 101.682C401.664 101.682 402.61 102.019 403.27 102.694C403.944 103.369 404.282 104.322 404.282 105.554C404.282 105.891 404.245 106.295 404.172 106.764L403.93 107.028ZM402.258 105.29C402.258 104.601 402.096 104.08 401.774 103.728C401.466 103.376 401.011 103.2 400.41 103.2C399.735 103.2 399.178 103.42 398.738 103.86C398.298 104.285 398.004 104.894 397.858 105.686L402.214 105.598L402.258 105.29ZM409.734 101.682C410.614 101.682 411.472 101.851 412.308 102.188L412 103.948L411.714 104.014C410.952 103.501 410.204 103.244 409.47 103.244C409.03 103.244 408.678 103.361 408.414 103.596C408.165 103.831 408.04 104.117 408.04 104.454C408.04 104.821 408.187 105.114 408.48 105.334C408.788 105.554 409.258 105.796 409.888 106.06C410.46 106.309 410.922 106.544 411.274 106.764C411.641 106.984 411.949 107.277 412.198 107.644C412.462 108.011 412.594 108.465 412.594 109.008C412.594 109.565 412.448 110.093 412.154 110.592C411.861 111.076 411.428 111.465 410.856 111.758C410.284 112.051 409.595 112.198 408.788 112.198C407.776 112.198 406.75 111.971 405.708 111.516L405.972 109.646L406.214 109.492C406.64 109.859 407.109 110.152 407.622 110.372C408.136 110.577 408.605 110.68 409.03 110.68C409.5 110.68 409.874 110.555 410.152 110.306C410.446 110.042 410.592 109.734 410.592 109.382C410.592 109.015 410.446 108.729 410.152 108.524C409.859 108.304 409.397 108.047 408.766 107.754C408.194 107.505 407.725 107.27 407.358 107.05C406.992 106.83 406.676 106.529 406.412 106.148C406.163 105.767 406.038 105.297 406.038 104.74C406.038 103.845 406.368 103.112 407.028 102.54C407.688 101.968 408.59 101.682 409.734 101.682ZM418.006 101.682C418.886 101.682 419.744 101.851 420.58 102.188L420.272 103.948L419.986 104.014C419.223 103.501 418.475 103.244 417.742 103.244C417.302 103.244 416.95 103.361 416.686 103.596C416.436 103.831 416.312 104.117 416.312 104.454C416.312 104.821 416.458 105.114 416.752 105.334C417.06 105.554 417.529 105.796 418.16 106.06C418.732 106.309 419.194 106.544 419.546 106.764C419.912 106.984 420.22 107.277 420.47 107.644C420.734 108.011 420.866 108.465 420.866 109.008C420.866 109.565 420.719 110.093 420.426 110.592C420.132 111.076 419.7 111.465 419.128 111.758C418.556 112.051 417.866 112.198 417.06 112.198C416.048 112.198 415.021 111.971 413.98 111.516L414.244 109.646L414.486 109.492C414.911 109.859 415.38 110.152 415.894 110.372C416.407 110.577 416.876 110.68 417.302 110.68C417.771 110.68 418.145 110.555 418.424 110.306C418.717 110.042 418.864 109.734 418.864 109.382C418.864 109.015 418.717 108.729 418.424 108.524C418.13 108.304 417.668 108.047 417.038 107.754C416.466 107.505 415.996 107.27 415.63 107.05C415.263 106.83 414.948 106.529 414.684 106.148C414.434 105.767 414.31 105.297 414.31 104.74C414.31 103.845 414.64 103.112 415.3 102.54C415.96 101.968 416.862 101.682 418.006 101.682Z" fill="#333333"/>
<path d="M252.271 50.816L251.935 54H250.719L251.199 50.912L252.015 43.76H253.231L252.271 50.816ZM254.063 48.592C255.119 50.352 256.313 52.0693 257.647 53.744L257.599 53.888C257.225 53.9947 256.836 54.08 256.431 54.144L256.319 54.064C254.847 51.984 253.663 50.1707 252.767 48.624L252.783 48.528L256.543 44.624L257.263 43.76H258.623L254.063 48.592ZM262.512 51.776L262.896 52.272C262.554 52.7947 262.181 53.2053 261.776 53.504C261.37 53.8027 260.912 54.0053 260.4 54.112H260.208C259.525 54.0267 259.024 53.776 258.704 53.36C258.394 52.944 258.24 52.3253 258.24 51.504C258.24 50.5653 258.389 49.7227 258.688 48.976C258.997 48.2293 259.413 47.6427 259.936 47.216C260.469 46.7893 261.077 46.5653 261.76 46.544L261.888 46.56C262.346 46.6133 262.693 46.7627 262.928 47.008C263.173 47.2533 263.296 47.5787 263.296 47.984C263.296 48.624 262.965 49.216 262.304 49.76C261.642 50.2933 260.661 50.7627 259.36 51.168C259.36 51.84 259.445 52.3307 259.616 52.64C259.797 52.9493 260.074 53.104 260.448 53.104C260.768 53.104 261.072 52.9973 261.36 52.784C261.658 52.5707 261.978 52.2293 262.32 51.76L262.512 51.776ZM261.504 47.408C260.96 47.408 260.496 47.6747 260.112 48.208C259.738 48.7307 259.504 49.4347 259.408 50.32C260.325 50.0213 261.018 49.6853 261.488 49.312C261.968 48.928 262.208 48.512 262.208 48.064C262.208 47.6267 261.973 47.408 261.504 47.408ZM269.759 46.592C270.015 47.0613 270.143 47.4933 270.143 47.888C270.143 48.496 269.929 49.1787 269.503 49.936L267.231 53.952C266.591 55.0827 265.999 55.8933 265.455 56.384C264.921 56.8747 264.329 57.12 263.679 57.12C263.327 57.12 262.927 57.0453 262.479 56.896L262.511 55.872L262.655 55.776C263.017 55.872 263.353 55.92 263.663 55.92C264.153 55.92 264.585 55.776 264.959 55.488C265.332 55.2107 265.716 54.7413 266.111 54.08L264.655 46.72L265.839 46.592L266.015 47.872L266.783 52.576H266.943L268.511 49.696C268.863 49.088 269.039 48.512 269.039 47.968C269.039 47.6053 268.916 47.2533 268.671 46.912L268.719 46.768L269.759 46.592ZM283.304 54H282.232L282.408 50.88L282.536 45.664H282.44L278.824 52.816H277.816L276.12 45.664H276.008L274.872 50.784L274.2 54H273.176L275.48 43.76H276.84L277.16 45.312L278.52 51.248H278.632L281.624 45.216L282.296 43.76H283.656L283.304 54ZM288.67 46.544C289.257 46.64 289.694 46.8853 289.982 47.28C290.281 47.6747 290.43 48.24 290.43 48.976C290.43 49.9573 290.291 50.8267 290.014 51.584C289.737 52.3413 289.331 52.944 288.798 53.392C288.275 53.8293 287.651 54.08 286.926 54.144L286.782 54.128C286.174 54.0107 285.721 53.7547 285.422 53.36C285.134 52.9653 284.99 52.384 284.99 51.616C284.99 50.656 285.134 49.8027 285.422 49.056C285.71 48.2987 286.121 47.7013 286.654 47.264C287.198 46.8267 287.827 46.5867 288.542 46.544H288.67ZM288.334 47.52C287.609 47.52 287.054 47.888 286.67 48.624C286.286 49.36 286.094 50.352 286.094 51.6C286.094 52.1547 286.169 52.56 286.318 52.816C286.467 53.0613 286.718 53.184 287.07 53.184C287.785 53.184 288.334 52.8107 288.718 52.064C289.102 51.3173 289.294 50.3147 289.294 49.056C289.294 48.512 289.219 48.1227 289.07 47.888C288.921 47.6427 288.675 47.52 288.334 47.52ZM300.384 46.56C300.758 46.6453 301.056 46.8107 301.28 47.056C301.515 47.2907 301.627 47.5893 301.616 47.952L301.6 48.16L300.944 52.272L300.848 53.952L299.616 54.064L300.48 48.592L300.496 48.384C300.507 48.2347 300.48 48.1173 300.416 48.032C300.363 47.936 300.283 47.888 300.176 47.888C299.867 47.888 299.424 48.288 298.848 49.088C298.272 49.888 297.632 51.024 296.928 52.496L296.848 53.952L295.616 54.064L296.496 48.592L296.512 48.384C296.512 48.0533 296.4 47.888 296.176 47.888C295.867 47.888 295.43 48.2773 294.864 49.056C294.31 49.8347 293.686 50.944 292.992 52.384L292.912 53.952L291.696 54.064L292.528 48.256L292.608 46.704L293.792 46.592L293.28 50.192H293.424C293.968 49.264 294.454 48.5173 294.88 47.952C295.307 47.376 295.75 46.912 296.208 46.56H296.384C296.758 46.6453 297.056 46.8107 297.28 47.056C297.515 47.2907 297.627 47.5893 297.616 47.952L297.6 48.16L297.28 50.192H297.424C297.947 49.2747 298.427 48.5333 298.864 47.968C299.302 47.392 299.75 46.9227 300.208 46.56H300.384ZM307.293 51.776L307.677 52.272C307.336 52.7947 306.962 53.2053 306.557 53.504C306.152 53.8027 305.693 54.0053 305.181 54.112H304.989C304.306 54.0267 303.805 53.776 303.485 53.36C303.176 52.944 303.021 52.3253 303.021 51.504C303.021 50.5653 303.17 49.7227 303.469 48.976C303.778 48.2293 304.194 47.6427 304.717 47.216C305.25 46.7893 305.858 46.5653 306.541 46.544L306.669 46.56C307.128 46.6133 307.474 46.7627 307.709 47.008C307.954 47.2533 308.077 47.5787 308.077 47.984C308.077 48.624 307.746 49.216 307.085 49.76C306.424 50.2933 305.442 50.7627 304.141 51.168C304.141 51.84 304.226 52.3307 304.397 52.64C304.578 52.9493 304.856 53.104 305.229 53.104C305.549 53.104 305.853 52.9973 306.141 52.784C306.44 52.5707 306.76 52.2293 307.101 51.76L307.293 51.776ZM306.285 47.408C305.741 47.408 305.277 47.6747 304.893 48.208C304.52 48.7307 304.285 49.4347 304.189 50.32C305.106 50.0213 305.8 49.6853 306.269 49.312C306.749 48.928 306.989 48.512 306.989 48.064C306.989 47.6267 306.754 47.408 306.285 47.408ZM313.9 46.56C314.273 46.6453 314.572 46.8107 314.796 47.056C315.03 47.2907 315.142 47.5893 315.132 47.952L315.116 48.16L314.46 52.272L314.364 53.952L313.132 54.064L314.012 48.592L314.028 48.384C314.028 48.0533 313.916 47.888 313.692 47.888C313.382 47.888 312.945 48.2773 312.38 49.056C311.825 49.8347 311.201 50.944 310.508 52.384L310.428 53.952L309.212 54.064L310.044 48.256L310.124 46.704L311.308 46.592L310.796 50.192H310.94C311.484 49.264 311.969 48.5173 312.396 47.952C312.822 47.376 313.265 46.912 313.724 46.56H313.9ZM318.297 52.224L318.265 52.48C318.265 52.64 318.302 52.768 318.377 52.864C318.451 52.96 318.558 53.008 318.697 53.008C319.081 53.008 319.545 52.5813 320.089 51.728H320.233L320.569 52.16C320.195 52.7787 319.859 53.232 319.561 53.52C319.262 53.808 318.926 54.0053 318.553 54.112C318.126 54.112 317.79 53.9947 317.545 53.76C317.31 53.5253 317.193 53.1947 317.193 52.768L317.225 52.384L317.913 48.256L317.993 47.6H316.921L316.841 47.52L316.921 46.8H318.105L318.329 45.024L319.433 44.512L319.529 44.608L319.177 46.8H321.129L321.225 46.928L321.145 47.6H319.049L318.297 52.224Z" fill="black"/>
<path opacity="0.6" d="M40 343V131H544V343" stroke="#828282" stroke-width="8"/>
</svg>
