<svg width="1078" height="439" viewBox="0 0 1078 439" fill="none" xmlns="http://www.w3.org/2000/svg">
<rect x="1" y="1" width="1076" height="437" fill="#FAFAFA" stroke="#BDBDBD" stroke-width="2"/>
<path d="M54.1 65H60.986V63.24H58.72V54.616H54.232V56.354H56.564V63.24H54.1V65ZM64.6078 57.916C65.4438 57.916 66.1038 57.234 66.1038 56.42C66.1038 55.606 65.4438 54.946 64.6078 54.946C63.7938 54.946 63.1338 55.606 63.1338 56.42C63.1338 57.234 63.7938 57.916 64.6078 57.916ZM63.1338 63.79C63.1338 64.604 63.7938 65.264 64.6078 65.264C65.4438 65.264 66.1038 64.604 66.1038 63.79C66.1038 62.954 65.4438 62.294 64.6078 62.294C63.7938 62.294 63.1338 62.954 63.1338 63.79ZM78.372 65.11H80.55L85.808 50.326H83.498L79.516 61.744L75.534 50.326H73.136L78.372 65.11ZM86.081 62.712C86.081 64.186 87.203 65.264 88.941 65.264C90.877 65.264 91.889 64.032 92.153 63.614C92.439 64.406 93.077 65.044 94.595 65.154L95.255 63.438C95.255 63.438 94.155 63.416 94.155 62.184V57.982C94.155 55.76 93.407 54.792 91.053 54.792C88.435 54.792 86.741 56.046 86.741 56.046L87.313 57.674C87.313 57.674 88.831 56.53 90.459 56.53C92.065 56.53 91.977 57.63 91.977 58.884C88.259 59.368 86.081 60.622 86.081 62.712ZM89.491 63.548C88.853 63.548 88.325 63.262 88.325 62.558C88.325 61.392 89.447 60.666 91.977 60.292V62.008C91.317 62.778 90.503 63.548 89.491 63.548ZM97.4443 65H99.6223V49.27L97.4443 49.622V65ZM102.619 62.272C102.619 64.406 103.719 65.264 105.325 65.264C107.151 65.264 108.537 64.098 109.175 63.416C109.285 64.142 109.505 65.176 109.505 65.176L111.617 64.978C111.617 64.978 111.177 63.152 111.177 61.942V55.056H108.999V61.744C108.383 62.316 107.151 63.372 106.029 63.372C105.215 63.372 104.797 62.822 104.797 61.436V55.056H102.619V62.272ZM113.671 60.182C113.671 62.844 115.365 65.264 118.687 65.264C121.173 65.264 122.691 63.834 122.691 63.834L122.075 62.25C122.075 62.25 120.689 63.482 119.017 63.482C117.279 63.482 116.179 62.316 115.937 60.512L121.371 59.786L122.625 59.434C122.625 56.42 120.909 54.792 118.533 54.792C115.629 54.792 113.671 57.146 113.671 60.182ZM118.379 56.486C120.117 56.486 120.249 58.51 120.249 58.51L115.937 59.06C116.135 57.608 116.971 56.486 118.379 56.486ZM130.357 65H132.535V58.532C133.173 57.894 134.537 56.684 135.615 56.684C136.341 56.684 136.737 57.212 136.737 58.62V65H138.915V58.488C139.663 57.762 140.895 56.684 141.907 56.684C142.633 56.684 143.051 57.212 143.051 58.62V65H145.207V57.828C145.207 55.694 144.173 54.792 142.633 54.792C140.895 54.792 139.531 55.958 138.805 56.75C138.497 55.386 137.595 54.792 136.341 54.792C134.581 54.792 133.173 56.002 132.491 56.75V54.88L130.357 55.232V65ZM147.002 68.476L147.684 70.214C150.016 69.95 151.468 67.86 152.326 65.748L156.638 55.056H154.394L151.82 61.876L149.202 55.056H146.892L150.742 64.494L150.214 65.682C149.62 67.068 148.454 68.234 147.002 68.476ZM157.713 64.384C157.713 64.384 158.945 65.264 161.013 65.264C163.455 65.264 164.885 64.054 164.885 62.25C164.885 59.082 160.111 59.236 160.111 57.498C160.111 56.926 160.595 56.508 161.695 56.508C162.971 56.508 164.115 57.124 164.115 57.124L164.621 55.342C164.621 55.342 163.521 54.792 161.783 54.792C159.033 54.792 157.933 56.134 157.933 57.674C157.933 60.798 162.707 60.666 162.707 62.448C162.707 63.086 162.157 63.548 160.991 63.548C159.385 63.548 158.175 62.536 158.175 62.536L157.713 64.384ZM166.609 60.182C166.609 62.844 168.303 65.264 171.625 65.264C174.111 65.264 175.629 63.834 175.629 63.834L175.013 62.25C175.013 62.25 173.627 63.482 171.955 63.482C170.217 63.482 169.117 62.316 168.875 60.512L174.309 59.786L175.563 59.434C175.563 56.42 173.847 54.792 171.471 54.792C168.567 54.792 166.609 57.146 166.609 60.182ZM171.317 56.486C173.055 56.486 173.187 58.51 173.187 58.51L168.875 59.06C169.073 57.608 169.909 56.486 171.317 56.486ZM178.054 65H180.232V49.27L178.054 49.622V65ZM182.349 56.706H183.911V65H186.089V56.706H188.839V55.056H186.089V53.868C186.089 51.536 187.145 50.722 188.311 50.722C189.389 50.722 190.357 51.426 190.357 51.426L191.215 49.754C191.215 49.754 190.071 48.918 188.333 48.918C185.737 48.918 183.911 50.744 183.911 54V54.968L182.349 55.54V56.706ZM195.462 60.182C195.462 62.844 197.156 65.264 200.478 65.264C202.964 65.264 204.482 63.834 204.482 63.834L203.866 62.25C203.866 62.25 202.48 63.482 200.808 63.482C199.07 63.482 197.97 62.316 197.728 60.512L203.162 59.786L204.416 59.434C204.416 56.42 202.7 54.792 200.324 54.792C197.42 54.792 195.462 57.146 195.462 60.182ZM200.17 56.486C201.908 56.486 202.04 58.51 202.04 58.51L197.728 59.06C197.926 57.608 198.762 56.486 200.17 56.486ZM206.863 65H209.041V58.554C209.723 57.894 211.131 56.684 212.231 56.684C212.979 56.684 213.419 57.212 213.419 58.62V65H215.597V57.828C215.597 55.694 214.519 54.792 212.957 54.792C211.131 54.792 209.701 56.002 208.997 56.772V54.88L206.863 55.232V65ZM217.891 60.072C217.891 62.712 219.673 65.264 222.973 65.264C226.559 65.264 228.143 62.25 228.143 59.83C228.143 57.278 226.361 54.792 223.061 54.792C219.497 54.792 217.891 57.586 217.891 60.072ZM220.157 59.874C220.157 57.894 221.323 56.53 223.017 56.53C225.041 56.53 225.877 58.356 225.877 60.116C225.877 62.118 224.711 63.526 223.039 63.526C221.059 63.526 220.157 61.722 220.157 59.874ZM230.43 62.272C230.43 64.406 231.53 65.264 233.136 65.264C234.962 65.264 236.348 64.098 236.986 63.416C237.096 64.142 237.316 65.176 237.316 65.176L239.428 64.978C239.428 64.978 238.988 63.152 238.988 61.942V55.056H236.81V61.744C236.194 62.316 234.962 63.372 233.84 63.372C233.026 63.372 232.608 62.822 232.608 61.436V55.056H230.43V62.272ZM242.076 63.24C242.076 63.922 242.714 64.318 243.704 64.648C242.648 65.198 241.174 66.144 241.174 67.596C241.174 69.334 243.33 70.214 245.53 70.214C248.522 70.214 250.964 68.52 250.964 66.518C250.964 64.692 248.962 64.142 247.202 63.702C245.134 63.196 244.166 62.998 244.166 62.602C244.166 62.36 244.518 62.096 244.98 61.788C245.2 61.832 245.442 61.832 245.706 61.832C247.84 61.832 250.106 60.666 250.106 58.488C250.106 57.608 249.688 57.014 249.38 56.662C249.644 56.706 249.952 56.728 250.194 56.728H251.382L251.228 54.99C251.228 54.99 250.568 55.21 249.908 55.21H248.764C247.664 55.21 247.092 54.792 245.882 54.792C243.66 54.792 241.658 56.046 241.658 58.268C241.658 59.61 242.384 60.776 243.638 61.392C242.824 61.854 242.076 62.514 242.076 63.24ZM245.948 65.22C247.796 65.704 248.83 65.99 248.83 66.848C248.83 67.838 247.422 68.63 245.662 68.63C244.408 68.63 243.132 68.234 243.132 67.244C243.132 66.254 244.342 65.594 245.288 65.066C245.508 65.11 245.728 65.154 245.948 65.22ZM245.86 60.292C244.452 60.292 243.792 59.28 243.792 58.334C243.792 57.3 244.54 56.332 245.86 56.332C247.268 56.332 247.95 57.476 247.95 58.444C247.95 59.566 247.07 60.292 245.86 60.292ZM253.27 65H255.448V58.598C256.108 57.938 257.538 56.684 258.638 56.684C259.386 56.684 259.826 57.212 259.826 58.62V65H262.004V57.828C262.004 55.694 260.926 54.792 259.342 54.792C257.516 54.792 256.108 56.024 255.448 56.728V49.27L253.27 49.622V65ZM55.068 92.294C55.068 94.34 56.19 95.264 57.906 95.264C59.666 95.264 60.964 94.208 60.964 94.208L60.414 92.558C60.15 92.712 59.226 93.438 58.39 93.438C57.664 93.438 57.246 92.954 57.246 91.744V86.706H60.392V85.056H57.246V82.24L55.112 82.702V84.968L53.594 85.518V86.706H55.068V92.294ZM62.1725 90.072C62.1725 92.712 63.9545 95.264 67.2545 95.264C70.8405 95.264 72.4245 92.25 72.4245 89.83C72.4245 87.278 70.6425 84.792 67.3425 84.792C63.7785 84.792 62.1725 87.586 62.1725 90.072ZM64.4385 89.874C64.4385 87.894 65.6045 86.53 67.2985 86.53C69.3225 86.53 70.1585 88.356 70.1585 90.116C70.1585 92.118 68.9925 93.526 67.3205 93.526C65.3405 93.526 64.4385 91.722 64.4385 89.874ZM80.6344 92.294C80.6344 94.34 81.7564 95.264 83.4724 95.264C85.2324 95.264 86.5304 94.208 86.5304 94.208L85.9804 92.558C85.7164 92.712 84.7924 93.438 83.9564 93.438C83.2304 93.438 82.8124 92.954 82.8124 91.744V86.706H85.9584V85.056H82.8124V82.24L80.6784 82.702V84.968L79.1604 85.518V86.706H80.6344V92.294ZM87.5849 92.712C87.5849 94.186 88.7069 95.264 90.4449 95.264C92.3809 95.264 93.3929 94.032 93.6569 93.614C93.9429 94.406 94.5809 95.044 96.0989 95.154L96.7589 93.438C96.7589 93.438 95.6589 93.416 95.6589 92.184V87.982C95.6589 85.76 94.9109 84.792 92.5569 84.792C89.9389 84.792 88.2449 86.046 88.2449 86.046L88.8169 87.674C88.8169 87.674 90.3349 86.53 91.9629 86.53C93.5689 86.53 93.4809 87.63 93.4809 88.884C89.7629 89.368 87.5849 90.622 87.5849 92.712ZM90.9949 93.548C90.3569 93.548 89.8289 93.262 89.8289 92.558C89.8289 91.392 90.9509 90.666 93.4809 90.292V92.008C92.8209 92.778 92.0069 93.548 90.9949 93.548ZM98.9482 95H101.126V90.292H101.434L105.394 95H108.188L103.348 89.412L107.88 85.056H105.042L101.434 88.686H101.126V79.27L98.9482 79.622V95ZM108.73 90.182C108.73 92.844 110.424 95.264 113.746 95.264C116.232 95.264 117.75 93.834 117.75 93.834L117.134 92.25C117.134 92.25 115.748 93.482 114.076 93.482C112.338 93.482 111.238 92.316 110.996 90.512L116.43 89.786L117.684 89.434C117.684 86.42 115.968 84.792 113.592 84.792C110.688 84.792 108.73 87.146 108.73 90.182ZM113.438 86.486C115.176 86.486 115.308 88.51 115.308 88.51L110.996 89.06C111.194 87.608 112.03 86.486 113.438 86.486ZM124.778 90.16C124.778 93.042 126.78 95.264 129.882 95.264C132.258 95.264 133.402 93.988 133.402 93.988L132.698 92.448C132.698 92.448 131.62 93.482 130.036 93.482C128.166 93.482 127.044 92.008 127.044 90.05C127.044 88.026 128.254 86.552 130.058 86.552C131.51 86.552 132.544 87.476 132.544 87.476L133.402 85.848C133.402 85.848 132.192 84.792 130.014 84.792C126.736 84.792 124.778 87.41 124.778 90.16ZM134.747 90.072C134.747 92.712 136.529 95.264 139.829 95.264C143.415 95.264 144.999 92.25 144.999 89.83C144.999 87.278 143.217 84.792 139.917 84.792C136.353 84.792 134.747 87.586 134.747 90.072ZM137.013 89.874C137.013 87.894 138.179 86.53 139.873 86.53C141.897 86.53 142.733 88.356 142.733 90.116C142.733 92.118 141.567 93.526 139.895 93.526C137.915 93.526 137.013 91.722 137.013 89.874ZM147.351 95H149.529V88.554C150.211 87.894 151.619 86.684 152.719 86.684C153.467 86.684 153.907 87.212 153.907 88.62V95H156.085V87.828C156.085 85.694 155.007 84.792 153.445 84.792C151.619 84.792 150.189 86.002 149.485 86.772V84.88L147.351 85.232V95ZM158.357 94.384C158.357 94.384 159.589 95.264 161.657 95.264C164.099 95.264 165.529 94.054 165.529 92.25C165.529 89.082 160.755 89.236 160.755 87.498C160.755 86.926 161.239 86.508 162.339 86.508C163.615 86.508 164.759 87.124 164.759 87.124L165.265 85.342C165.265 85.342 164.165 84.792 162.427 84.792C159.677 84.792 158.577 86.134 158.577 87.674C158.577 90.798 163.351 90.666 163.351 92.448C163.351 93.086 162.801 93.548 161.635 93.548C160.029 93.548 158.819 92.536 158.819 92.536L158.357 94.384ZM169.013 82.68C169.805 82.68 170.399 82.108 170.399 81.338C170.399 80.568 169.805 79.996 169.013 79.996C168.243 79.996 167.649 80.568 167.649 81.338C167.649 82.108 168.243 82.68 169.013 82.68ZM167.913 95H170.091V85.056H167.913V95ZM172.494 94.384C172.494 94.384 173.726 95.264 175.794 95.264C178.236 95.264 179.666 94.054 179.666 92.25C179.666 89.082 174.892 89.236 174.892 87.498C174.892 86.926 175.376 86.508 176.476 86.508C177.752 86.508 178.896 87.124 178.896 87.124L179.402 85.342C179.402 85.342 178.302 84.792 176.564 84.792C173.814 84.792 172.714 86.134 172.714 87.674C172.714 90.798 177.488 90.666 177.488 92.448C177.488 93.086 176.938 93.548 175.772 93.548C174.166 93.548 172.956 92.536 172.956 92.536L172.494 94.384ZM182.578 92.294C182.578 94.34 183.7 95.264 185.416 95.264C187.176 95.264 188.474 94.208 188.474 94.208L187.924 92.558C187.66 92.712 186.736 93.438 185.9 93.438C185.174 93.438 184.756 92.954 184.756 91.744V86.706H187.902V85.056H184.756V82.24L182.622 82.702V84.968L181.104 85.518V86.706H182.578V92.294ZM189.704 90.182C189.704 92.844 191.398 95.264 194.72 95.264C197.206 95.264 198.724 93.834 198.724 93.834L198.108 92.25C198.108 92.25 196.722 93.482 195.05 93.482C193.312 93.482 192.212 92.316 191.97 90.512L197.404 89.786L198.658 89.434C198.658 86.42 196.942 84.792 194.566 84.792C191.662 84.792 189.704 87.146 189.704 90.182ZM194.412 86.486C196.15 86.486 196.282 88.51 196.282 88.51L191.97 89.06C192.168 87.608 193.004 86.486 194.412 86.486ZM201.105 95H203.283V88.554C203.965 87.894 205.373 86.684 206.473 86.684C207.221 86.684 207.661 87.212 207.661 88.62V95H209.839V87.828C209.839 85.694 208.761 84.792 207.199 84.792C205.373 84.792 203.943 86.002 203.239 86.772V84.88L201.105 85.232V95ZM213.343 92.294C213.343 94.34 214.465 95.264 216.181 95.264C217.941 95.264 219.239 94.208 219.239 94.208L218.689 92.558C218.425 92.712 217.501 93.438 216.665 93.438C215.939 93.438 215.521 92.954 215.521 91.744V86.706H218.667V85.056H215.521V82.24L213.387 82.702V84.968L211.869 85.518V86.706H213.343V92.294ZM53.704 122.712C53.704 124.186 54.826 125.264 56.564 125.264C58.5 125.264 59.512 124.032 59.776 123.614C60.062 124.406 60.7 125.044 62.218 125.154L62.878 123.438C62.878 123.438 61.778 123.416 61.778 122.184V117.982C61.778 115.76 61.03 114.792 58.676 114.792C56.058 114.792 54.364 116.046 54.364 116.046L54.936 117.674C54.936 117.674 56.454 116.53 58.082 116.53C59.688 116.53 59.6 117.63 59.6 118.884C55.882 119.368 53.704 120.622 53.704 122.712ZM57.114 123.548C56.476 123.548 55.948 123.262 55.948 122.558C55.948 121.392 57.07 120.666 59.6 120.292V122.008C58.94 122.778 58.126 123.548 57.114 123.548ZM64.3853 120.16C64.3853 123.042 66.3873 125.264 69.4893 125.264C71.8653 125.264 73.0093 123.988 73.0093 123.988L72.3053 122.448C72.3053 122.448 71.2273 123.482 69.6433 123.482C67.7733 123.482 66.6513 122.008 66.6513 120.05C66.6513 118.026 67.8613 116.552 69.6653 116.552C71.1173 116.552 72.1513 117.476 72.1513 117.476L73.0093 115.848C73.0093 115.848 71.7993 114.792 69.6213 114.792C66.3433 114.792 64.3853 117.41 64.3853 120.16ZM75.736 122.294C75.736 124.34 76.858 125.264 78.574 125.264C80.334 125.264 81.632 124.208 81.632 124.208L81.082 122.558C80.818 122.712 79.894 123.438 79.058 123.438C78.332 123.438 77.914 122.954 77.914 121.744V116.706H81.06V115.056H77.914V112.24L75.78 112.702V114.968L74.262 115.518V116.706H75.736V122.294ZM84.6224 112.68C85.4144 112.68 86.0084 112.108 86.0084 111.338C86.0084 110.568 85.4144 109.996 84.6224 109.996C83.8524 109.996 83.2584 110.568 83.2584 111.338C83.2584 112.108 83.8524 112.68 84.6224 112.68ZM83.5224 125H85.7004V115.056H83.5224V125ZM88.1256 120.072C88.1256 122.712 89.9076 125.264 93.2076 125.264C96.7936 125.264 98.3776 122.25 98.3776 119.83C98.3776 117.278 96.5956 114.792 93.2956 114.792C89.7316 114.792 88.1256 117.586 88.1256 120.072ZM90.3916 119.874C90.3916 117.894 91.5576 116.53 93.2516 116.53C95.2756 116.53 96.1116 118.356 96.1116 120.116C96.1116 122.118 94.9456 123.526 93.2736 123.526C91.2936 123.526 90.3916 121.722 90.3916 119.874ZM100.73 125H102.908V118.554C103.59 117.894 104.998 116.684 106.098 116.684C106.846 116.684 107.286 117.212 107.286 118.62V125H109.464V117.828C109.464 115.694 108.386 114.792 106.824 114.792C104.998 114.792 103.568 116.002 102.864 116.772V114.88L100.73 115.232V125ZM111.736 124.384C111.736 124.384 112.968 125.264 115.036 125.264C117.478 125.264 118.908 124.054 118.908 122.25C118.908 119.082 114.134 119.236 114.134 117.498C114.134 116.926 114.618 116.508 115.718 116.508C116.994 116.508 118.138 117.124 118.138 117.124L118.644 115.342C118.644 115.342 117.544 114.792 115.806 114.792C113.056 114.792 111.956 116.134 111.956 117.674C111.956 120.798 116.73 120.666 116.73 122.448C116.73 123.086 116.18 123.548 115.014 123.548C113.408 123.548 112.198 122.536 112.198 122.536L111.736 124.384ZM125.587 116.706H127.149V125H129.327V116.706H132.077V115.056H129.327V113.868C129.327 111.536 130.383 110.722 131.549 110.722C132.627 110.722 133.595 111.426 133.595 111.426L134.453 109.754C134.453 109.754 133.309 108.918 131.571 108.918C128.975 108.918 127.149 110.744 127.149 114V114.968L125.587 115.54V116.706ZM133.221 120.072C133.221 122.712 135.003 125.264 138.303 125.264C141.889 125.264 143.473 122.25 143.473 119.83C143.473 117.278 141.691 114.792 138.391 114.792C134.827 114.792 133.221 117.586 133.221 120.072ZM135.487 119.874C135.487 117.894 136.653 116.53 138.347 116.53C140.371 116.53 141.207 118.356 141.207 120.116C141.207 122.118 140.041 123.526 138.369 123.526C136.389 123.526 135.487 121.722 135.487 119.874ZM145.826 125H148.004V118.84C148.422 118.18 149.324 116.992 150.424 116.992C150.864 116.992 151.304 117.168 151.304 117.168L151.744 114.968C151.744 114.968 151.436 114.792 150.886 114.792C149.368 114.792 148.356 116.2 147.96 116.882V114.88L145.826 115.232V125ZM158.76 125H160.938V118.532C161.576 117.894 162.94 116.684 164.018 116.684C164.744 116.684 165.14 117.212 165.14 118.62V125H167.318V118.488C168.066 117.762 169.298 116.684 170.31 116.684C171.036 116.684 171.454 117.212 171.454 118.62V125H173.61V117.828C173.61 115.694 172.576 114.792 171.036 114.792C169.298 114.792 167.934 115.958 167.208 116.75C166.9 115.386 165.998 114.792 164.744 114.792C162.984 114.792 161.576 116.002 160.894 116.75V114.88L158.76 115.232V125ZM175.405 128.476L176.087 130.214C178.419 129.95 179.871 127.86 180.729 125.748L185.041 115.056H182.797L180.223 121.876L177.605 115.056H175.295L179.145 124.494L178.617 125.682C178.023 127.068 176.857 128.234 175.405 128.476ZM192.104 125H194.282V118.598C194.942 117.938 196.372 116.684 197.472 116.684C198.22 116.684 198.66 117.212 198.66 118.62V125H200.838V117.828C200.838 115.694 199.76 114.792 198.176 114.792C196.35 114.792 194.942 116.024 194.282 116.728V109.27L192.104 109.622V125ZM203.153 120.182C203.153 122.844 204.847 125.264 208.169 125.264C210.655 125.264 212.173 123.834 212.173 123.834L211.557 122.25C211.557 122.25 210.171 123.482 208.499 123.482C206.761 123.482 205.661 122.316 205.419 120.512L210.853 119.786L212.107 119.434C212.107 116.42 210.391 114.792 208.015 114.792C205.111 114.792 203.153 117.146 203.153 120.182ZM207.861 116.486C209.599 116.486 209.731 118.51 209.731 118.51L205.419 119.06C205.617 117.608 206.453 116.486 207.861 116.486ZM213.763 122.712C213.763 124.186 214.885 125.264 216.623 125.264C218.559 125.264 219.571 124.032 219.835 123.614C220.121 124.406 220.759 125.044 222.277 125.154L222.937 123.438C222.937 123.438 221.837 123.416 221.837 122.184V117.982C221.837 115.76 221.089 114.792 218.735 114.792C216.117 114.792 214.423 116.046 214.423 116.046L214.995 117.674C214.995 117.674 216.513 116.53 218.141 116.53C219.747 116.53 219.659 117.63 219.659 118.884C215.941 119.368 213.763 120.622 213.763 122.712ZM217.173 123.548C216.535 123.548 216.007 123.262 216.007 122.558C216.007 121.392 217.129 120.666 219.659 120.292V122.008C218.999 122.778 218.185 123.548 217.173 123.548ZM225.126 125H227.304V109.27L225.126 109.622V125ZM230.939 122.294C230.939 124.34 232.061 125.264 233.777 125.264C235.537 125.264 236.835 124.208 236.835 124.208L236.285 122.558C236.021 122.712 235.097 123.438 234.261 123.438C233.535 123.438 233.117 122.954 233.117 121.744V116.706H236.263V115.056H233.117V112.24L230.983 112.702V114.968L229.465 115.518V116.706H230.939V122.294ZM238.726 125H240.904V118.598C241.564 117.938 242.994 116.684 244.094 116.684C244.842 116.684 245.282 117.212 245.282 118.62V125H247.46V117.828C247.46 115.694 246.382 114.792 244.798 114.792C242.972 114.792 241.564 116.024 240.904 116.728V109.27L238.726 109.622V125ZM250.105 123.79C250.105 124.604 250.765 125.264 251.579 125.264C252.393 125.264 253.075 124.604 253.075 123.79C253.075 122.954 252.393 122.294 251.579 122.294C250.765 122.294 250.105 122.954 250.105 123.79Z" fill="#333333"/>
<path d="M549.528 67.552L549.704 69.246C549.924 69.268 550.122 69.268 550.32 69.268C554.104 69.268 556.986 67.398 556.986 64.472C556.986 62.8 555.908 61.458 553.928 60.974C555.226 60.27 556.612 58.994 556.612 57.3C556.612 55.584 555.116 54.352 553.114 54.352C550.98 54.352 549.374 55.738 549.374 55.738L550.32 57.124C550.32 57.124 551.596 56.178 552.784 56.178C553.686 56.178 554.368 56.728 554.368 57.608C554.368 59.104 552.432 60.49 550.892 60.622V62.316H551.42C552.96 62.316 554.72 62.822 554.72 64.538C554.72 66.54 552.674 67.574 550.232 67.574C549.99 67.574 549.77 67.574 549.528 67.552ZM560.909 57.916C561.745 57.916 562.405 57.234 562.405 56.42C562.405 55.606 561.745 54.946 560.909 54.946C560.095 54.946 559.435 55.606 559.435 56.42C559.435 57.234 560.095 57.916 560.909 57.916ZM559.435 63.79C559.435 64.604 560.095 65.264 560.909 65.264C561.745 65.264 562.405 64.604 562.405 63.79C562.405 62.954 561.745 62.294 560.909 62.294C560.095 62.294 559.435 62.954 559.435 63.79ZM571.219 65H573.485V58.62H578.655V56.662H573.485V52.218H580.019V50.326H571.219V65ZM580.753 60.182C580.753 62.844 582.447 65.264 585.769 65.264C588.255 65.264 589.773 63.834 589.773 63.834L589.157 62.25C589.157 62.25 587.771 63.482 586.099 63.482C584.361 63.482 583.261 62.316 583.019 60.512L588.453 59.786L589.707 59.434C589.707 56.42 587.991 54.792 585.615 54.792C582.711 54.792 580.753 57.146 580.753 60.182ZM585.461 56.486C587.199 56.486 587.331 58.51 587.331 58.51L583.019 59.06C583.217 57.608 584.053 56.486 585.461 56.486ZM591.538 60.182C591.538 62.844 593.232 65.264 596.554 65.264C599.04 65.264 600.558 63.834 600.558 63.834L599.942 62.25C599.942 62.25 598.556 63.482 596.884 63.482C595.146 63.482 594.046 62.316 593.804 60.512L599.238 59.786L600.492 59.434C600.492 56.42 598.776 54.792 596.4 54.792C593.496 54.792 591.538 57.146 591.538 60.182ZM596.246 56.486C597.984 56.486 598.116 58.51 598.116 58.51L593.804 59.06C594.002 57.608 594.838 56.486 596.246 56.486ZM602.983 65H605.161V49.27L602.983 49.622V65ZM613.554 65H615.732V58.598C616.392 57.938 617.822 56.684 618.922 56.684C619.67 56.684 620.11 57.212 620.11 58.62V65H622.288V57.828C622.288 55.694 621.21 54.792 619.626 54.792C617.8 54.792 616.392 56.024 615.732 56.728V49.27L613.554 49.622V65ZM624.581 60.072C624.581 62.712 626.363 65.264 629.663 65.264C633.249 65.264 634.833 62.25 634.833 59.83C634.833 57.278 633.051 54.792 629.751 54.792C626.187 54.792 624.581 57.586 624.581 60.072ZM626.847 59.874C626.847 57.894 628.013 56.53 629.707 56.53C631.731 56.53 632.567 58.356 632.567 60.116C632.567 62.118 631.401 63.526 629.729 63.526C627.749 63.526 626.847 61.722 626.847 59.874ZM637.185 70.126L639.363 69.774V64.736C639.781 65.044 640.529 65.264 641.453 65.264C644.621 65.264 646.469 62.668 646.469 59.72C646.469 57.014 644.885 54.792 642.267 54.792C640.705 54.792 639.759 55.606 639.297 56.464V54.88L637.185 55.232V70.126ZM641.893 56.596C643.235 56.596 644.181 57.806 644.181 59.874C644.181 62.25 642.927 63.548 641.057 63.548C640.023 63.548 639.363 63.174 639.363 62.426V58.202C639.649 57.784 640.573 56.596 641.893 56.596ZM648.235 60.182C648.235 62.844 649.929 65.264 653.251 65.264C655.737 65.264 657.255 63.834 657.255 63.834L656.639 62.25C656.639 62.25 655.253 63.482 653.581 63.482C651.843 63.482 650.743 62.316 650.501 60.512L655.935 59.786L657.189 59.434C657.189 56.42 655.473 54.792 653.097 54.792C650.193 54.792 648.235 57.146 648.235 60.182ZM652.943 56.486C654.681 56.486 654.813 58.51 654.813 58.51L650.501 59.06C650.699 57.608 651.535 56.486 652.943 56.486ZM658.691 56.706H660.253V65H662.431V56.706H665.181V55.056H662.431V53.868C662.431 51.536 663.487 50.722 664.653 50.722C665.731 50.722 666.699 51.426 666.699 51.426L667.557 49.754C667.557 49.754 666.413 48.918 664.675 48.918C662.079 48.918 660.253 50.744 660.253 54V54.968L658.691 55.54V56.706ZM667.069 62.272C667.069 64.406 668.169 65.264 669.775 65.264C671.601 65.264 672.987 64.098 673.625 63.416C673.735 64.142 673.955 65.176 673.955 65.176L676.067 64.978C676.067 64.978 675.627 63.152 675.627 61.942V55.056H673.449V61.744C672.833 62.316 671.601 63.372 670.479 63.372C669.665 63.372 669.247 62.822 669.247 61.436V55.056H667.069V62.272ZM678.78 65H680.958V49.27L678.78 49.622V65ZM689.879 62.294C689.879 64.34 691.001 65.264 692.717 65.264C694.477 65.264 695.775 64.208 695.775 64.208L695.225 62.558C694.961 62.712 694.037 63.438 693.201 63.438C692.475 63.438 692.057 62.954 692.057 61.744V56.706H695.203V55.056H692.057V52.24L689.923 52.702V54.968L688.405 55.518V56.706H689.879V62.294ZM697.665 65H699.843V58.598C700.503 57.938 701.933 56.684 703.033 56.684C703.781 56.684 704.221 57.212 704.221 58.62V65H706.399V57.828C706.399 55.694 705.321 54.792 703.737 54.792C701.911 54.792 700.503 56.024 699.843 56.728V49.27L697.665 49.622V65ZM708.538 62.712C708.538 64.186 709.66 65.264 711.398 65.264C713.334 65.264 714.346 64.032 714.61 63.614C714.896 64.406 715.534 65.044 717.052 65.154L717.712 63.438C717.712 63.438 716.612 63.416 716.612 62.184V57.982C716.612 55.76 715.864 54.792 713.51 54.792C710.892 54.792 709.198 56.046 709.198 56.046L709.77 57.674C709.77 57.674 711.288 56.53 712.916 56.53C714.522 56.53 714.434 57.63 714.434 58.884C710.716 59.368 708.538 60.622 708.538 62.712ZM711.948 63.548C711.31 63.548 710.782 63.262 710.782 62.558C710.782 61.392 711.904 60.666 714.434 60.292V62.008C713.774 62.778 712.96 63.548 711.948 63.548ZM720.343 62.294C720.343 64.34 721.465 65.264 723.181 65.264C724.941 65.264 726.239 64.208 726.239 64.208L725.689 62.558C725.425 62.712 724.501 63.438 723.665 63.438C722.939 63.438 722.521 62.954 722.521 61.744V56.706H725.667V55.056H722.521V52.24L720.387 52.702V54.968L718.869 55.518V56.706H720.343V62.294ZM733.877 65H736.143V50.326H733.877V65ZM549.858 90.16C549.858 93.042 551.86 95.264 554.962 95.264C557.338 95.264 558.482 93.988 558.482 93.988L557.778 92.448C557.778 92.448 556.7 93.482 555.116 93.482C553.246 93.482 552.124 92.008 552.124 90.05C552.124 88.026 553.334 86.552 555.138 86.552C556.59 86.552 557.624 87.476 557.624 87.476L558.482 85.848C558.482 85.848 557.272 84.792 555.094 84.792C551.816 84.792 549.858 87.41 549.858 90.16ZM559.845 92.712C559.845 94.186 560.967 95.264 562.705 95.264C564.641 95.264 565.653 94.032 565.917 93.614C566.203 94.406 566.841 95.044 568.359 95.154L569.019 93.438C569.019 93.438 567.919 93.416 567.919 92.184V87.982C567.919 85.76 567.171 84.792 564.817 84.792C562.199 84.792 560.505 86.046 560.505 86.046L561.077 87.674C561.077 87.674 562.595 86.53 564.223 86.53C565.829 86.53 565.741 87.63 565.741 88.884C562.023 89.368 559.845 90.622 559.845 92.712ZM563.255 93.548C562.617 93.548 562.089 93.262 562.089 92.558C562.089 91.392 563.211 90.666 565.741 90.292V92.008C565.081 92.778 564.267 93.548 563.255 93.548ZM571.164 95H573.342V88.554C574.024 87.894 575.432 86.684 576.532 86.684C577.28 86.684 577.72 87.212 577.72 88.62V95H579.898V87.828C579.898 85.694 578.82 84.792 577.258 84.792C575.432 84.792 574.002 86.002 573.298 86.772V84.88L571.164 85.232V95ZM588.093 93.24C588.093 93.922 588.731 94.318 589.721 94.648C588.665 95.198 587.191 96.144 587.191 97.596C587.191 99.334 589.347 100.214 591.547 100.214C594.539 100.214 596.981 98.52 596.981 96.518C596.981 94.692 594.979 94.142 593.219 93.702C591.151 93.196 590.183 92.998 590.183 92.602C590.183 92.36 590.535 92.096 590.997 91.788C591.217 91.832 591.459 91.832 591.723 91.832C593.857 91.832 596.123 90.666 596.123 88.488C596.123 87.608 595.705 87.014 595.397 86.662C595.661 86.706 595.969 86.728 596.211 86.728H597.399L597.245 84.99C597.245 84.99 596.585 85.21 595.925 85.21H594.781C593.681 85.21 593.109 84.792 591.899 84.792C589.677 84.792 587.675 86.046 587.675 88.268C587.675 89.61 588.401 90.776 589.655 91.392C588.841 91.854 588.093 92.514 588.093 93.24ZM591.965 95.22C593.813 95.704 594.847 95.99 594.847 96.848C594.847 97.838 593.439 98.63 591.679 98.63C590.425 98.63 589.149 98.234 589.149 97.244C589.149 96.254 590.359 95.594 591.305 95.066C591.525 95.11 591.745 95.154 591.965 95.22ZM591.877 90.292C590.469 90.292 589.809 89.28 589.809 88.334C589.809 87.3 590.557 86.332 591.877 86.332C593.285 86.332 593.967 87.476 593.967 88.444C593.967 89.566 593.087 90.292 591.877 90.292ZM598.628 90.182C598.628 92.844 600.322 95.264 603.644 95.264C606.13 95.264 607.648 93.834 607.648 93.834L607.032 92.25C607.032 92.25 605.646 93.482 603.974 93.482C602.236 93.482 601.136 92.316 600.894 90.512L606.328 89.786L607.582 89.434C607.582 86.42 605.866 84.792 603.49 84.792C600.586 84.792 598.628 87.146 598.628 90.182ZM603.336 86.486C605.074 86.486 605.206 88.51 605.206 88.51L600.894 89.06C601.092 87.608 601.928 86.486 603.336 86.486ZM610.601 92.294C610.601 94.34 611.723 95.264 613.439 95.264C615.199 95.264 616.497 94.208 616.497 94.208L615.947 92.558C615.683 92.712 614.759 93.438 613.923 93.438C613.197 93.438 612.779 92.954 612.779 91.744V86.706H615.925V85.056H612.779V82.24L610.645 82.702V84.968L609.127 85.518V86.706H610.601V92.294ZM623.629 94.78C624.377 94.956 626.071 95.264 627.259 95.264C631.021 95.264 632.825 92.58 632.825 89.676C632.825 86.948 631.241 84.792 628.491 84.792C627.127 84.792 626.313 85.342 625.807 85.914V79.27L623.629 79.622V94.78ZM628.139 86.552C629.591 86.552 630.581 87.762 630.581 89.83C630.581 92.294 629.195 93.614 627.303 93.614C626.489 93.614 625.807 93.394 625.807 93.394V87.586C626.269 87.168 627.105 86.552 628.139 86.552ZM634.438 92.712C634.438 94.186 635.56 95.264 637.298 95.264C639.234 95.264 640.246 94.032 640.51 93.614C640.796 94.406 641.434 95.044 642.952 95.154L643.612 93.438C643.612 93.438 642.512 93.416 642.512 92.184V87.982C642.512 85.76 641.764 84.792 639.41 84.792C636.792 84.792 635.098 86.046 635.098 86.046L635.67 87.674C635.67 87.674 637.188 86.53 638.816 86.53C640.422 86.53 640.334 87.63 640.334 88.884C636.616 89.368 634.438 90.622 634.438 92.712ZM637.848 93.548C637.21 93.548 636.682 93.262 636.682 92.558C636.682 91.392 637.804 90.666 640.334 90.292V92.008C639.674 92.778 638.86 93.548 637.848 93.548ZM645.12 90.16C645.12 93.042 647.122 95.264 650.224 95.264C652.6 95.264 653.744 93.988 653.744 93.988L653.04 92.448C653.04 92.448 651.962 93.482 650.378 93.482C648.508 93.482 647.386 92.008 647.386 90.05C647.386 88.026 648.596 86.552 650.4 86.552C651.852 86.552 652.886 87.476 652.886 87.476L653.744 85.848C653.744 85.848 652.534 84.792 650.356 84.792C647.078 84.792 645.12 87.41 645.12 90.16ZM655.942 95H658.12V90.292H658.428L662.388 95H665.182L660.342 89.412L664.874 85.056H662.036L658.428 88.686H658.12V79.27L655.942 79.622V95ZM671.417 90.072C671.417 92.712 673.199 95.264 676.499 95.264C680.085 95.264 681.669 92.25 681.669 89.83C681.669 87.278 679.887 84.792 676.587 84.792C673.023 84.792 671.417 87.586 671.417 90.072ZM673.683 89.874C673.683 87.894 674.849 86.53 676.543 86.53C678.567 86.53 679.403 88.356 679.403 90.116C679.403 92.118 678.237 93.526 676.565 93.526C674.585 93.526 673.683 91.722 673.683 89.874ZM684.021 95H686.199V88.554C686.881 87.894 688.289 86.684 689.389 86.684C690.137 86.684 690.577 87.212 690.577 88.62V95H692.755V87.828C692.755 85.694 691.677 84.792 690.115 84.792C688.289 84.792 686.859 86.002 686.155 86.772V84.88L684.021 85.232V95ZM701.545 92.294C701.545 94.34 702.667 95.264 704.383 95.264C706.143 95.264 707.441 94.208 707.441 94.208L706.891 92.558C706.627 92.712 705.703 93.438 704.867 93.438C704.141 93.438 703.723 92.954 703.723 91.744V86.706H706.869V85.056H703.723V82.24L701.589 82.702V84.968L700.071 85.518V86.706H701.545V92.294ZM709.287 95H711.465V88.84C711.883 88.18 712.785 86.992 713.885 86.992C714.325 86.992 714.765 87.168 714.765 87.168L715.205 84.968C715.205 84.968 714.897 84.792 714.347 84.792C712.829 84.792 711.817 86.2 711.421 86.882V84.88L709.287 85.232V95ZM716.143 92.712C716.143 94.186 717.265 95.264 719.003 95.264C720.939 95.264 721.951 94.032 722.215 93.614C722.501 94.406 723.139 95.044 724.657 95.154L725.317 93.438C725.317 93.438 724.217 93.416 724.217 92.184V87.982C724.217 85.76 723.469 84.792 721.115 84.792C718.497 84.792 716.803 86.046 716.803 86.046L717.375 87.674C717.375 87.674 718.893 86.53 720.521 86.53C722.127 86.53 722.039 87.63 722.039 88.884C718.321 89.368 716.143 90.622 716.143 92.712ZM719.553 93.548C718.915 93.548 718.387 93.262 718.387 92.558C718.387 91.392 719.509 90.666 722.039 90.292V92.008C721.379 92.778 720.565 93.548 719.553 93.548ZM726.825 90.16C726.825 93.042 728.827 95.264 731.929 95.264C734.305 95.264 735.449 93.988 735.449 93.988L734.745 92.448C734.745 92.448 733.667 93.482 732.083 93.482C730.213 93.482 729.091 92.008 729.091 90.05C729.091 88.026 730.301 86.552 732.105 86.552C733.557 86.552 734.591 87.476 734.591 87.476L735.449 85.848C735.449 85.848 734.239 84.792 732.061 84.792C728.783 84.792 726.825 87.41 726.825 90.16ZM737.647 95H739.825V90.292H740.133L744.093 95H746.887L742.047 89.412L746.579 85.056H743.741L740.133 88.686H739.825V79.27L737.647 79.622V95ZM549.704 122.712C549.704 124.186 550.826 125.264 552.564 125.264C554.5 125.264 555.512 124.032 555.776 123.614C556.062 124.406 556.7 125.044 558.218 125.154L558.878 123.438C558.878 123.438 557.778 123.416 557.778 122.184V117.982C557.778 115.76 557.03 114.792 554.676 114.792C552.058 114.792 550.364 116.046 550.364 116.046L550.936 117.674C550.936 117.674 552.454 116.53 554.082 116.53C555.688 116.53 555.6 117.63 555.6 118.884C551.882 119.368 549.704 120.622 549.704 122.712ZM553.114 123.548C552.476 123.548 551.948 123.262 551.948 122.558C551.948 121.392 553.07 120.666 555.6 120.292V122.008C554.94 122.778 554.126 123.548 553.114 123.548ZM560.077 116.706H561.639V125H563.817V116.706H566.567V115.056H563.817V113.868C563.817 111.536 564.873 110.722 566.039 110.722C567.117 110.722 568.085 111.426 568.085 111.426L568.943 109.754C568.943 109.754 567.799 108.918 566.061 108.918C563.465 108.918 561.639 110.744 561.639 114V114.968L560.077 115.54V116.706ZM569.093 122.294C569.093 124.34 570.215 125.264 571.931 125.264C573.691 125.264 574.989 124.208 574.989 124.208L574.439 122.558C574.175 122.712 573.251 123.438 572.415 123.438C571.689 123.438 571.271 122.954 571.271 121.744V116.706H574.417V115.056H571.271V112.24L569.137 112.702V114.968L567.619 115.518V116.706H569.093V122.294ZM576.22 120.182C576.22 122.844 577.914 125.264 581.236 125.264C583.722 125.264 585.24 123.834 585.24 123.834L584.624 122.25C584.624 122.25 583.238 123.482 581.566 123.482C579.828 123.482 578.728 122.316 578.486 120.512L583.92 119.786L585.174 119.434C585.174 116.42 583.458 114.792 581.082 114.792C578.178 114.792 576.22 117.146 576.22 120.182ZM580.928 116.486C582.666 116.486 582.798 118.51 582.798 118.51L578.486 119.06C578.684 117.608 579.52 116.486 580.928 116.486ZM587.621 125H589.799V118.84C590.217 118.18 591.119 116.992 592.219 116.992C592.659 116.992 593.099 117.168 593.099 117.168L593.539 114.968C593.539 114.968 593.231 114.792 592.681 114.792C591.163 114.792 590.151 116.2 589.755 116.882V114.88L587.621 115.232V125ZM599.763 122.712C599.763 124.186 600.885 125.264 602.623 125.264C604.559 125.264 605.571 124.032 605.835 123.614C606.121 124.406 606.759 125.044 608.277 125.154L608.937 123.438C608.937 123.438 607.837 123.416 607.837 122.184V117.982C607.837 115.76 607.089 114.792 604.735 114.792C602.117 114.792 600.423 116.046 600.423 116.046L600.995 117.674C600.995 117.674 602.513 116.53 604.141 116.53C605.747 116.53 605.659 117.63 605.659 118.884C601.941 119.368 599.763 120.622 599.763 122.712ZM603.173 123.548C602.535 123.548 602.007 123.262 602.007 122.558C602.007 121.392 603.129 120.666 605.659 120.292V122.008C604.999 122.778 604.185 123.548 603.173 123.548ZM616.367 125H618.545V118.84C618.963 118.18 619.865 116.992 620.965 116.992C621.405 116.992 621.845 117.168 621.845 117.168L622.285 114.968C622.285 114.968 621.977 114.792 621.427 114.792C619.909 114.792 618.897 116.2 618.501 116.882V114.88L616.367 115.232V125ZM623.228 120.182C623.228 122.844 624.922 125.264 628.244 125.264C630.73 125.264 632.248 123.834 632.248 123.834L631.632 122.25C631.632 122.25 630.246 123.482 628.574 123.482C626.836 123.482 625.736 122.316 625.494 120.512L630.928 119.786L632.182 119.434C632.182 116.42 630.466 114.792 628.09 114.792C625.186 114.792 623.228 117.146 623.228 120.182ZM627.936 116.486C629.674 116.486 629.806 118.51 629.806 118.51L625.494 119.06C625.692 117.608 626.528 116.486 627.936 116.486ZM634.673 125H636.851V109.27L634.673 109.622V125ZM639.122 122.712C639.122 124.186 640.244 125.264 641.982 125.264C643.918 125.264 644.93 124.032 645.194 123.614C645.48 124.406 646.118 125.044 647.636 125.154L648.296 123.438C648.296 123.438 647.196 123.416 647.196 122.184V117.982C647.196 115.76 646.448 114.792 644.094 114.792C641.476 114.792 639.782 116.046 639.782 116.046L640.354 117.674C640.354 117.674 641.872 116.53 643.5 116.53C645.106 116.53 645.018 117.63 645.018 118.884C641.3 119.368 639.122 120.622 639.122 122.712ZM642.532 123.548C641.894 123.548 641.366 123.262 641.366 122.558C641.366 121.392 642.488 120.666 645.018 120.292V122.008C644.358 122.778 643.544 123.548 642.532 123.548ZM650.441 130.126L652.619 129.774V124.736C653.037 125.044 653.785 125.264 654.709 125.264C657.877 125.264 659.725 122.668 659.725 119.72C659.725 117.014 658.141 114.792 655.523 114.792C653.961 114.792 653.015 115.606 652.553 116.464V114.88L650.441 115.232V130.126ZM655.149 116.596C656.491 116.596 657.437 117.806 657.437 119.874C657.437 122.25 656.183 123.548 654.313 123.548C653.279 123.548 652.619 123.174 652.619 122.426V118.202C652.905 117.784 653.829 116.596 655.149 116.596ZM661.447 124.384C661.447 124.384 662.679 125.264 664.747 125.264C667.189 125.264 668.619 124.054 668.619 122.25C668.619 119.082 663.845 119.236 663.845 117.498C663.845 116.926 664.329 116.508 665.429 116.508C666.705 116.508 667.849 117.124 667.849 117.124L668.355 115.342C668.355 115.342 667.255 114.792 665.517 114.792C662.767 114.792 661.667 116.134 661.667 117.674C661.667 120.798 666.441 120.666 666.441 122.448C666.441 123.086 665.891 123.548 664.725 123.548C663.119 123.548 661.909 122.536 661.909 122.536L661.447 124.384ZM670.343 120.182C670.343 122.844 672.037 125.264 675.359 125.264C677.845 125.264 679.363 123.834 679.363 123.834L678.747 122.25C678.747 122.25 677.361 123.482 675.689 123.482C673.951 123.482 672.851 122.316 672.609 120.512L678.043 119.786L679.297 119.434C679.297 116.42 677.581 114.792 675.205 114.792C672.301 114.792 670.343 117.146 670.343 120.182ZM675.051 116.486C676.789 116.486 676.921 118.51 676.921 118.51L672.609 119.06C672.807 117.608 673.643 116.486 675.051 116.486Z" fill="#333333"/>
<path d="M797.572 64.56H803.754V69.246H805.888V64.56H807.934V62.866H805.888V54.44H803.82L797.572 63.108V64.56ZM799.794 62.866L803.754 57.256V62.866H799.794ZM811.637 57.916C812.473 57.916 813.133 57.234 813.133 56.42C813.133 55.606 812.473 54.946 811.637 54.946C810.823 54.946 810.163 55.606 810.163 56.42C810.163 57.234 810.823 57.916 811.637 57.916ZM810.163 63.79C810.163 64.604 810.823 65.264 811.637 65.264C812.473 65.264 813.133 64.604 813.133 63.79C813.133 62.954 812.473 62.294 811.637 62.294C810.823 62.294 810.163 62.954 810.163 63.79ZM821.947 65H824.213V59.104H826.479L830.395 65H833.079L828.767 58.576C830.241 57.894 831.583 56.508 831.583 54.506C831.583 52.284 830.043 50.326 826.259 50.326H821.947V65ZM824.213 57.212V52.218H825.885C828.327 52.218 829.185 53.34 829.185 54.66C829.185 56.288 827.865 57.212 826.215 57.212H824.213ZM833.866 60.182C833.866 62.844 835.56 65.264 838.882 65.264C841.368 65.264 842.886 63.834 842.886 63.834L842.27 62.25C842.27 62.25 840.884 63.482 839.212 63.482C837.474 63.482 836.374 62.316 836.132 60.512L841.566 59.786L842.82 59.434C842.82 56.42 841.104 54.792 838.728 54.792C835.824 54.792 833.866 57.146 833.866 60.182ZM838.574 56.486C840.312 56.486 840.444 58.51 840.444 58.51L836.132 59.06C836.33 57.608 837.166 56.486 838.574 56.486ZM844.475 62.712C844.475 64.186 845.597 65.264 847.335 65.264C849.271 65.264 850.283 64.032 850.547 63.614C850.833 64.406 851.471 65.044 852.989 65.154L853.649 63.438C853.649 63.438 852.549 63.416 852.549 62.184V57.982C852.549 55.76 851.801 54.792 849.447 54.792C846.829 54.792 845.135 56.046 845.135 56.046L845.707 57.674C845.707 57.674 847.225 56.53 848.853 56.53C850.459 56.53 850.371 57.63 850.371 58.884C846.653 59.368 844.475 60.622 844.475 62.712ZM847.885 63.548C847.247 63.548 846.719 63.262 846.719 62.558C846.719 61.392 847.841 60.666 850.371 60.292V62.008C849.711 62.778 848.897 63.548 847.885 63.548ZM855.839 65H858.017V49.27L855.839 49.622V65ZM862.224 52.68C863.016 52.68 863.61 52.108 863.61 51.338C863.61 50.568 863.016 49.996 862.224 49.996C861.454 49.996 860.86 50.568 860.86 51.338C860.86 52.108 861.454 52.68 862.224 52.68ZM861.124 65H863.302V55.056H861.124V65ZM865.727 65H873.713V63.24H868.477L873.537 56.376V55.056H865.903V56.816H870.677L865.727 63.68V65ZM875.353 60.182C875.353 62.844 877.047 65.264 880.369 65.264C882.855 65.264 884.373 63.834 884.373 63.834L883.757 62.25C883.757 62.25 882.371 63.482 880.699 63.482C878.961 63.482 877.861 62.316 877.619 60.512L883.053 59.786L884.307 59.434C884.307 56.42 882.591 54.792 880.215 54.792C877.311 54.792 875.353 57.146 875.353 60.182ZM880.061 56.486C881.799 56.486 881.931 58.51 881.931 58.51L877.619 59.06C877.817 57.608 878.653 56.486 880.061 56.486ZM892.611 62.294C892.611 64.34 893.733 65.264 895.449 65.264C897.209 65.264 898.507 64.208 898.507 64.208L897.957 62.558C897.693 62.712 896.769 63.438 895.933 63.438C895.207 63.438 894.789 62.954 894.789 61.744V56.706H897.935V55.056H894.789V52.24L892.655 52.702V54.968L891.137 55.518V56.706H892.611V62.294ZM900.397 65H902.575V58.598C903.235 57.938 904.665 56.684 905.765 56.684C906.513 56.684 906.953 57.212 906.953 58.62V65H909.131V57.828C909.131 55.694 908.053 54.792 906.469 54.792C904.643 54.792 903.235 56.024 902.575 56.728V49.27L900.397 49.622V65ZM911.27 62.712C911.27 64.186 912.392 65.264 914.13 65.264C916.066 65.264 917.078 64.032 917.342 63.614C917.628 64.406 918.266 65.044 919.784 65.154L920.444 63.438C920.444 63.438 919.344 63.416 919.344 62.184V57.982C919.344 55.76 918.596 54.792 916.242 54.792C913.624 54.792 911.93 56.046 911.93 56.046L912.502 57.674C912.502 57.674 914.02 56.53 915.648 56.53C917.254 56.53 917.166 57.63 917.166 58.884C913.448 59.368 911.27 60.622 911.27 62.712ZM914.68 63.548C914.042 63.548 913.514 63.262 913.514 62.558C913.514 61.392 914.636 60.666 917.166 60.292V62.008C916.506 62.778 915.692 63.548 914.68 63.548ZM923.076 62.294C923.076 64.34 924.198 65.264 925.914 65.264C927.674 65.264 928.972 64.208 928.972 64.208L928.422 62.558C928.158 62.712 927.234 63.438 926.398 63.438C925.672 63.438 925.254 62.954 925.254 61.744V56.706H928.4V55.056H925.254V52.24L923.12 52.702V54.968L921.602 55.518V56.706H923.076V62.294ZM936.609 65H938.875V50.326H936.609V65ZM947.046 60.16C947.046 63.042 949.048 65.264 952.15 65.264C954.526 65.264 955.67 63.988 955.67 63.988L954.966 62.448C954.966 62.448 953.888 63.482 952.304 63.482C950.434 63.482 949.312 62.008 949.312 60.05C949.312 58.026 950.522 56.552 952.326 56.552C953.778 56.552 954.812 57.476 954.812 57.476L955.67 55.848C955.67 55.848 954.46 54.792 952.282 54.792C949.004 54.792 947.046 57.41 947.046 60.16ZM957.032 62.712C957.032 64.186 958.154 65.264 959.892 65.264C961.828 65.264 962.84 64.032 963.104 63.614C963.39 64.406 964.028 65.044 965.546 65.154L966.206 63.438C966.206 63.438 965.106 63.416 965.106 62.184V57.982C965.106 55.76 964.358 54.792 962.004 54.792C959.386 54.792 957.692 56.046 957.692 56.046L958.264 57.674C958.264 57.674 959.782 56.53 961.41 56.53C963.016 56.53 962.928 57.63 962.928 58.884C959.21 59.368 957.032 60.622 957.032 62.712ZM960.442 63.548C959.804 63.548 959.276 63.262 959.276 62.558C959.276 61.392 960.398 60.666 962.928 60.292V62.008C962.268 62.778 961.454 63.548 960.442 63.548ZM968.351 65H970.529V58.554C971.211 57.894 972.619 56.684 973.719 56.684C974.467 56.684 974.907 57.212 974.907 58.62V65H977.085V57.828C977.085 55.694 976.007 54.792 974.445 54.792C972.619 54.792 971.189 56.002 970.485 56.772V54.88L968.351 55.232V65ZM985.347 65H987.525V49.27L985.347 49.622V65ZM991.732 52.68C992.524 52.68 993.118 52.108 993.118 51.338C993.118 50.568 992.524 49.996 991.732 49.996C990.962 49.996 990.368 50.568 990.368 51.338C990.368 52.108 990.962 52.68 991.732 52.68ZM990.632 65H992.81V55.056H990.632V65ZM998.271 65.088H1000.29L1004.39 55.056H1002.16L999.371 62.272L996.951 55.056H994.663L998.271 65.088ZM1005.4 60.182C1005.4 62.844 1007.09 65.264 1010.41 65.264C1012.9 65.264 1014.42 63.834 1014.42 63.834L1013.8 62.25C1013.8 62.25 1012.42 63.482 1010.74 63.482C1009.01 63.482 1007.91 62.316 1007.66 60.512L1013.1 59.786L1014.35 59.434C1014.35 56.42 1012.64 54.792 1010.26 54.792C1007.36 54.792 1005.4 57.146 1005.4 60.182ZM1010.11 56.486C1011.84 56.486 1011.98 58.51 1011.98 58.51L1007.66 59.06C1007.86 57.608 1008.7 56.486 1010.11 56.486ZM797.704 92.712C797.704 94.186 798.826 95.264 800.564 95.264C802.5 95.264 803.512 94.032 803.776 93.614C804.062 94.406 804.7 95.044 806.218 95.154L806.878 93.438C806.878 93.438 805.778 93.416 805.778 92.184V87.982C805.778 85.76 805.03 84.792 802.676 84.792C800.058 84.792 798.364 86.046 798.364 86.046L798.936 87.674C798.936 87.674 800.454 86.53 802.082 86.53C803.688 86.53 803.6 87.63 803.6 88.884C799.882 89.368 797.704 90.622 797.704 92.712ZM801.114 93.548C800.476 93.548 799.948 93.262 799.948 92.558C799.948 91.392 801.07 90.666 803.6 90.292V92.008C802.94 92.778 802.126 93.548 801.114 93.548ZM813.363 86.706H814.925V95H817.103V86.706H819.853V85.056H817.103V83.868C817.103 81.536 818.159 80.722 819.325 80.722C820.403 80.722 821.371 81.426 821.371 81.426L822.229 79.754C822.229 79.754 821.085 78.918 819.347 78.918C816.751 78.918 814.925 80.744 814.925 84V84.968L813.363 85.54V86.706ZM821.741 92.272C821.741 94.406 822.841 95.264 824.447 95.264C826.273 95.264 827.659 94.098 828.297 93.416C828.407 94.142 828.627 95.176 828.627 95.176L830.739 94.978C830.739 94.978 830.299 93.152 830.299 91.942V85.056H828.121V91.744C827.505 92.316 826.273 93.372 825.151 93.372C824.337 93.372 823.919 92.822 823.919 91.436V85.056H821.741V92.272ZM833.452 95H835.63V79.27L833.452 79.622V95ZM838.737 95H840.915V79.27L838.737 79.622V95ZM849.308 95H851.486V79.27L849.308 79.622V95ZM855.693 82.68C856.485 82.68 857.079 82.108 857.079 81.338C857.079 80.568 856.485 79.996 855.693 79.996C854.923 79.996 854.329 80.568 854.329 81.338C854.329 82.108 854.923 82.68 855.693 82.68ZM854.593 95H856.771V85.056H854.593V95ZM858.888 86.706H860.45V95H862.628V86.706H865.378V85.056H862.628V83.868C862.628 81.536 863.684 80.722 864.85 80.722C865.928 80.722 866.896 81.426 866.896 81.426L867.754 79.754C867.754 79.754 866.61 78.918 864.872 78.918C862.276 78.918 860.45 80.744 860.45 84V84.968L858.888 85.54V86.706ZM866.566 90.182C866.566 92.844 868.26 95.264 871.582 95.264C874.068 95.264 875.586 93.834 875.586 93.834L874.97 92.25C874.97 92.25 873.584 93.482 871.912 93.482C870.174 93.482 869.074 92.316 868.832 90.512L874.266 89.786L875.52 89.434C875.52 86.42 873.804 84.792 871.428 84.792C868.524 84.792 866.566 87.146 866.566 90.182ZM871.274 86.486C873.012 86.486 873.144 88.51 873.144 88.51L868.832 89.06C869.03 87.608 869.866 86.486 871.274 86.486ZM882.636 90.182C882.636 92.844 884.33 95.264 887.652 95.264C890.138 95.264 891.656 93.834 891.656 93.834L891.04 92.25C891.04 92.25 889.654 93.482 887.982 93.482C886.244 93.482 885.144 92.316 884.902 90.512L890.336 89.786L891.59 89.434C891.59 86.42 889.874 84.792 887.498 84.792C884.594 84.792 882.636 87.146 882.636 90.182ZM887.344 86.486C889.082 86.486 889.214 88.51 889.214 88.51L884.902 89.06C885.1 87.608 885.936 86.486 887.344 86.486ZM896.435 95.088H898.459L902.551 85.056H900.329L897.535 92.272L895.115 85.056H892.827L896.435 95.088ZM903.562 90.182C903.562 92.844 905.256 95.264 908.578 95.264C911.064 95.264 912.582 93.834 912.582 93.834L911.966 92.25C911.966 92.25 910.58 93.482 908.908 93.482C907.17 93.482 906.07 92.316 905.828 90.512L911.262 89.786L912.516 89.434C912.516 86.42 910.8 84.792 908.424 84.792C905.52 84.792 903.562 87.146 903.562 90.182ZM908.27 86.486C910.008 86.486 910.14 88.51 910.14 88.51L905.828 89.06C906.026 87.608 906.862 86.486 908.27 86.486ZM914.963 95H917.141V88.554C917.823 87.894 919.231 86.684 920.331 86.684C921.079 86.684 921.519 87.212 921.519 88.62V95H923.697V87.828C923.697 85.694 922.619 84.792 921.057 84.792C919.231 84.792 917.801 86.002 917.097 86.772V84.88L914.963 85.232V95ZM934.004 95.088H936.116L938.668 88.004L940.956 95.088H943.09L946.654 85.056H944.432L942.034 92.536L939.702 85.056H937.81L935.236 92.58L933.058 85.056H930.814L934.004 95.088ZM949.622 82.68C950.414 82.68 951.008 82.108 951.008 81.338C951.008 80.568 950.414 79.996 949.622 79.996C948.852 79.996 948.258 80.568 948.258 81.338C948.258 82.108 948.852 82.68 949.622 82.68ZM948.522 95H950.7V85.056H948.522V95ZM954.336 92.294C954.336 94.34 955.458 95.264 957.174 95.264C958.934 95.264 960.232 94.208 960.232 94.208L959.682 92.558C959.418 92.712 958.494 93.438 957.658 93.438C956.932 93.438 956.514 92.954 956.514 91.744V86.706H959.66V85.056H956.514V82.24L954.38 82.702V84.968L952.862 85.518V86.706H954.336V92.294ZM962.122 95H964.3V88.598C964.96 87.938 966.39 86.684 967.49 86.684C968.238 86.684 968.678 87.212 968.678 88.62V95H970.856V87.828C970.856 85.694 969.778 84.792 968.194 84.792C966.368 84.792 964.96 86.024 964.3 86.728V79.27L962.122 79.622V95ZM978.28 92.712C978.28 94.186 979.402 95.264 981.14 95.264C983.076 95.264 984.088 94.032 984.352 93.614C984.638 94.406 985.276 95.044 986.794 95.154L987.454 93.438C987.454 93.438 986.354 93.416 986.354 92.184V87.982C986.354 85.76 985.606 84.792 983.252 84.792C980.634 84.792 978.94 86.046 978.94 86.046L979.512 87.674C979.512 87.674 981.03 86.53 982.658 86.53C984.264 86.53 984.176 87.63 984.176 88.884C980.458 89.368 978.28 90.622 978.28 92.712ZM981.69 93.548C981.052 93.548 980.524 93.262 980.524 92.558C980.524 91.392 981.646 90.666 984.176 90.292V92.008C983.516 92.778 982.702 93.548 981.69 93.548ZM797.858 120.16C797.858 123.042 799.86 125.264 802.962 125.264C805.338 125.264 806.482 123.988 806.482 123.988L805.778 122.448C805.778 122.448 804.7 123.482 803.116 123.482C801.246 123.482 800.124 122.008 800.124 120.05C800.124 118.026 801.334 116.552 803.138 116.552C804.59 116.552 805.624 117.476 805.624 117.476L806.482 115.848C806.482 115.848 805.272 114.792 803.094 114.792C799.816 114.792 797.858 117.41 797.858 120.16ZM808.681 125H810.859V118.598C811.519 117.938 812.949 116.684 814.049 116.684C814.797 116.684 815.237 117.212 815.237 118.62V125H817.415V117.828C817.415 115.694 816.337 114.792 814.753 114.792C812.927 114.792 811.519 116.024 810.859 116.728V109.27L808.681 109.622V125ZM820.346 125H822.524V118.84C822.942 118.18 823.844 116.992 824.944 116.992C825.384 116.992 825.824 117.168 825.824 117.168L826.264 114.968C826.264 114.968 825.956 114.792 825.406 114.792C823.888 114.792 822.876 116.2 822.48 116.882V114.88L820.346 115.232V125ZM827.184 120.072C827.184 122.712 828.966 125.264 832.266 125.264C835.852 125.264 837.436 122.25 837.436 119.83C837.436 117.278 835.654 114.792 832.354 114.792C828.79 114.792 827.184 117.586 827.184 120.072ZM829.45 119.874C829.45 117.894 830.616 116.53 832.31 116.53C834.334 116.53 835.17 118.356 835.17 120.116C835.17 122.118 834.004 123.526 832.332 123.526C830.352 123.526 829.45 121.722 829.45 119.874ZM839.789 125H841.967V118.554C842.649 117.894 844.057 116.684 845.157 116.684C845.905 116.684 846.345 117.212 846.345 118.62V125H848.523V117.828C848.523 115.694 847.445 114.792 845.883 114.792C844.057 114.792 842.627 116.002 841.923 116.772V114.88L839.789 115.232V125ZM852.599 112.68C853.391 112.68 853.985 112.108 853.985 111.338C853.985 110.568 853.391 109.996 852.599 109.996C851.829 109.996 851.235 110.568 851.235 111.338C851.235 112.108 851.829 112.68 852.599 112.68ZM851.499 125H853.677V115.056H851.499V125ZM856.102 120.16C856.102 123.042 858.104 125.264 861.206 125.264C863.582 125.264 864.726 123.988 864.726 123.988L864.022 122.448C864.022 122.448 862.944 123.482 861.36 123.482C859.49 123.482 858.368 122.008 858.368 120.05C858.368 118.026 859.578 116.552 861.382 116.552C862.834 116.552 863.868 117.476 863.868 117.476L864.726 115.848C864.726 115.848 863.516 114.792 861.338 114.792C858.06 114.792 856.102 117.41 856.102 120.16ZM873.31 112.68C874.102 112.68 874.696 112.108 874.696 111.338C874.696 110.568 874.102 109.996 873.31 109.996C872.54 109.996 871.946 110.568 871.946 111.338C871.946 112.108 872.54 112.68 873.31 112.68ZM872.21 125H874.388V115.056H872.21V125ZM877.495 125H879.673V109.27L877.495 109.622V125ZM882.78 125H884.958V109.27L882.78 109.622V125ZM888.021 125H890.199V118.554C890.881 117.894 892.289 116.684 893.389 116.684C894.137 116.684 894.577 117.212 894.577 118.62V125H896.755V117.828C896.755 115.694 895.677 114.792 894.115 114.792C892.289 114.792 890.859 116.002 890.155 116.772V114.88L888.021 115.232V125ZM899.071 120.182C899.071 122.844 900.765 125.264 904.087 125.264C906.573 125.264 908.091 123.834 908.091 123.834L907.475 122.25C907.475 122.25 906.089 123.482 904.417 123.482C902.679 123.482 901.579 122.316 901.337 120.512L906.771 119.786L908.025 119.434C908.025 116.42 906.309 114.792 903.933 114.792C901.029 114.792 899.071 117.146 899.071 120.182ZM903.779 116.486C905.517 116.486 905.649 118.51 905.649 118.51L901.337 119.06C901.535 117.608 902.371 116.486 903.779 116.486ZM909.813 124.384C909.813 124.384 911.045 125.264 913.113 125.264C915.555 125.264 916.985 124.054 916.985 122.25C916.985 119.082 912.211 119.236 912.211 117.498C912.211 116.926 912.695 116.508 913.795 116.508C915.071 116.508 916.215 117.124 916.215 117.124L916.721 115.342C916.721 115.342 915.621 114.792 913.883 114.792C911.133 114.792 910.033 116.134 910.033 117.674C910.033 120.798 914.807 120.666 914.807 122.448C914.807 123.086 914.257 123.548 913.091 123.548C911.485 123.548 910.275 122.536 910.275 122.536L909.813 124.384ZM918.664 124.384C918.664 124.384 919.896 125.264 921.964 125.264C924.406 125.264 925.836 124.054 925.836 122.25C925.836 119.082 921.062 119.236 921.062 117.498C921.062 116.926 921.546 116.508 922.646 116.508C923.922 116.508 925.066 117.124 925.066 117.124L925.572 115.342C925.572 115.342 924.472 114.792 922.734 114.792C919.984 114.792 918.884 116.134 918.884 117.674C918.884 120.798 923.658 120.666 923.658 122.448C923.658 123.086 923.108 123.548 921.942 123.548C920.336 123.548 919.126 122.536 919.126 122.536L918.664 124.384ZM927.89 123.79C927.89 124.604 928.55 125.264 929.364 125.264C930.178 125.264 930.86 124.604 930.86 123.79C930.86 122.954 930.178 122.294 929.364 122.294C928.55 122.294 927.89 122.954 927.89 123.79Z" fill="#333333"/>
<path d="M302.056 65H310.174V63.24H305.158C306.984 61.722 309.25 59.698 309.25 57.476C309.25 55.694 307.776 54.352 305.686 54.352C303.574 54.352 301.968 55.738 301.968 55.738L302.848 57.124C302.848 57.124 304.014 56.178 305.29 56.178C306.302 56.178 306.984 56.838 306.984 57.784C306.984 60.138 301.968 63.68 301.968 63.68L302.056 65ZM313.983 57.916C314.819 57.916 315.479 57.234 315.479 56.42C315.479 55.606 314.819 54.946 313.983 54.946C313.169 54.946 312.509 55.606 312.509 56.42C312.509 57.234 313.169 57.916 313.983 57.916ZM312.509 63.79C312.509 64.604 313.169 65.264 313.983 65.264C314.819 65.264 315.479 64.604 315.479 63.79C315.479 62.954 314.819 62.294 313.983 62.294C313.169 62.294 312.509 62.954 312.509 63.79ZM324.293 65H329.353C332.301 65 334.369 63.328 334.369 60.732C334.369 58.4 332.675 57.432 331.817 57.08C332.587 56.486 333.577 55.408 333.577 53.846C333.577 52.152 332.389 50.326 328.605 50.326H324.293V65ZM326.559 63.108V58.422H329.023C331.069 58.422 331.971 59.412 331.971 60.776C331.971 62.162 331.069 63.108 329.023 63.108H326.559ZM326.559 52.218H328.275C330.563 52.218 331.179 53.12 331.179 54.22C331.179 55.804 329.771 56.552 329.771 56.552H326.559V52.218ZM336.234 60.182C336.234 62.844 337.928 65.264 341.25 65.264C343.736 65.264 345.254 63.834 345.254 63.834L344.638 62.25C344.638 62.25 343.252 63.482 341.58 63.482C339.842 63.482 338.742 62.316 338.5 60.512L343.934 59.786L345.188 59.434C345.188 56.42 343.472 54.792 341.096 54.792C338.192 54.792 336.234 57.146 336.234 60.182ZM340.942 56.486C342.68 56.486 342.812 58.51 342.812 58.51L338.5 59.06C338.698 57.608 339.534 56.486 340.942 56.486ZM347.679 65H349.857V49.27L347.679 49.622V65ZM354.064 52.68C354.856 52.68 355.45 52.108 355.45 51.338C355.45 50.568 354.856 49.996 354.064 49.996C353.294 49.996 352.7 50.568 352.7 51.338C352.7 52.108 353.294 52.68 354.064 52.68ZM352.964 65H355.142V55.056H352.964V65ZM357.589 60.182C357.589 62.844 359.283 65.264 362.605 65.264C365.091 65.264 366.609 63.834 366.609 63.834L365.993 62.25C365.993 62.25 364.607 63.482 362.935 63.482C361.197 63.482 360.097 62.316 359.855 60.512L365.289 59.786L366.543 59.434C366.543 56.42 364.827 54.792 362.451 54.792C359.547 54.792 357.589 57.146 357.589 60.182ZM362.297 56.486C364.035 56.486 364.167 58.51 364.167 58.51L359.855 59.06C360.053 57.608 360.889 56.486 362.297 56.486ZM371.388 65.088H373.412L377.504 55.056H375.282L372.488 62.272L370.068 55.056H367.78L371.388 65.088ZM378.515 60.182C378.515 62.844 380.209 65.264 383.531 65.264C386.017 65.264 387.535 63.834 387.535 63.834L386.919 62.25C386.919 62.25 385.533 63.482 383.861 63.482C382.123 63.482 381.023 62.316 380.781 60.512L386.215 59.786L387.469 59.434C387.469 56.42 385.753 54.792 383.377 54.792C380.473 54.792 378.515 57.146 378.515 60.182ZM383.223 56.486C384.961 56.486 385.093 58.51 385.093 58.51L380.781 59.06C380.979 57.608 381.815 56.486 383.223 56.486ZM395.773 62.294C395.773 64.34 396.895 65.264 398.611 65.264C400.371 65.264 401.669 64.208 401.669 64.208L401.119 62.558C400.855 62.712 399.931 63.438 399.095 63.438C398.369 63.438 397.951 62.954 397.951 61.744V56.706H401.097V55.056H397.951V52.24L395.817 52.702V54.968L394.299 55.518V56.706H395.773V62.294ZM403.56 65H405.738V58.598C406.398 57.938 407.828 56.684 408.928 56.684C409.676 56.684 410.116 57.212 410.116 58.62V65H412.294V57.828C412.294 55.694 411.216 54.792 409.632 54.792C407.806 54.792 406.398 56.024 405.738 56.728V49.27L403.56 49.622V65ZM414.433 62.712C414.433 64.186 415.555 65.264 417.293 65.264C419.229 65.264 420.241 64.032 420.505 63.614C420.791 64.406 421.429 65.044 422.947 65.154L423.607 63.438C423.607 63.438 422.507 63.416 422.507 62.184V57.982C422.507 55.76 421.759 54.792 419.405 54.792C416.787 54.792 415.093 56.046 415.093 56.046L415.665 57.674C415.665 57.674 417.183 56.53 418.811 56.53C420.417 56.53 420.329 57.63 420.329 58.884C416.611 59.368 414.433 60.622 414.433 62.712ZM417.843 63.548C417.205 63.548 416.677 63.262 416.677 62.558C416.677 61.392 417.799 60.666 420.329 60.292V62.008C419.669 62.778 418.855 63.548 417.843 63.548ZM426.238 62.294C426.238 64.34 427.36 65.264 429.076 65.264C430.836 65.264 432.134 64.208 432.134 64.208L431.584 62.558C431.32 62.712 430.396 63.438 429.56 63.438C428.834 63.438 428.416 62.954 428.416 61.744V56.706H431.562V55.056H428.416V52.24L426.282 52.702V54.968L424.764 55.518V56.706H426.238V62.294ZM443.776 55.144L445.69 54.066C444.656 52.966 444.37 52.35 444.37 51.646C444.37 50.876 444.744 50.194 445.58 49.556L444.744 48.676C443.336 49.754 442.61 51.074 442.61 52.394C442.61 53.34 442.94 54.242 443.776 55.144ZM439.926 55.144L441.84 54.066C440.806 52.966 440.52 52.35 440.52 51.646C440.52 50.876 440.894 50.194 441.73 49.556L440.894 48.676C439.486 49.754 438.76 51.074 438.76 52.394C438.76 53.34 439.09 54.242 439.926 55.144ZM448.387 65H450.653V50.326H448.387V65ZM458.823 60.16C458.823 63.042 460.825 65.264 463.927 65.264C466.303 65.264 467.447 63.988 467.447 63.988L466.743 62.448C466.743 62.448 465.665 63.482 464.081 63.482C462.211 63.482 461.089 62.008 461.089 60.05C461.089 58.026 462.299 56.552 464.103 56.552C465.555 56.552 466.589 57.476 466.589 57.476L467.447 55.848C467.447 55.848 466.237 54.792 464.059 54.792C460.781 54.792 458.823 57.41 458.823 60.16ZM468.809 62.712C468.809 64.186 469.931 65.264 471.669 65.264C473.605 65.264 474.617 64.032 474.881 63.614C475.167 64.406 475.805 65.044 477.323 65.154L477.983 63.438C477.983 63.438 476.883 63.416 476.883 62.184V57.982C476.883 55.76 476.135 54.792 473.781 54.792C471.163 54.792 469.469 56.046 469.469 56.046L470.041 57.674C470.041 57.674 471.559 56.53 473.187 56.53C474.793 56.53 474.705 57.63 474.705 58.884C470.987 59.368 468.809 60.622 468.809 62.712ZM472.219 63.548C471.581 63.548 471.053 63.262 471.053 62.558C471.053 61.392 472.175 60.666 474.705 60.292V62.008C474.045 62.778 473.231 63.548 472.219 63.548ZM480.129 65H482.307V58.554C482.989 57.894 484.397 56.684 485.497 56.684C486.245 56.684 486.685 57.212 486.685 58.62V65H488.863V57.828C488.863 55.694 487.785 54.792 486.223 54.792C484.397 54.792 482.967 56.002 482.263 56.772V54.88L480.129 55.232V65ZM496.464 60.336C496.464 63.064 498.136 65.264 500.732 65.264C502.316 65.264 503.328 64.494 503.856 63.636C503.966 64.34 504.164 65.154 504.164 65.154L506.254 65C506.254 65 505.814 63.152 505.814 61.942V49.27L503.636 49.622V55.122C503.35 55.012 502.69 54.792 501.788 54.792C498.268 54.792 496.464 57.498 496.464 60.336ZM501.106 63.526C499.698 63.526 498.752 62.272 498.752 60.204C498.752 57.828 500.006 56.508 501.898 56.508C502.8 56.508 503.592 56.838 503.636 57.828V61.92C503.328 62.382 502.448 63.526 501.106 63.526ZM508.258 60.072C508.258 62.712 510.04 65.264 513.34 65.264C516.926 65.264 518.51 62.25 518.51 59.83C518.51 57.278 516.728 54.792 513.428 54.792C509.864 54.792 508.258 57.586 508.258 60.072ZM510.524 59.874C510.524 57.894 511.69 56.53 513.384 56.53C515.408 56.53 516.244 58.356 516.244 60.116C516.244 62.118 515.078 63.526 513.406 63.526C511.426 63.526 510.524 61.722 510.524 59.874ZM303.068 92.294C303.068 94.34 304.19 95.264 305.906 95.264C307.666 95.264 308.964 94.208 308.964 94.208L308.414 92.558C308.15 92.712 307.226 93.438 306.39 93.438C305.664 93.438 305.246 92.954 305.246 91.744V86.706H308.392V85.056H305.246V82.24L303.112 82.702V84.968L301.594 85.518V86.706H303.068V92.294ZM310.854 95H313.032V88.598C313.692 87.938 315.122 86.684 316.222 86.684C316.97 86.684 317.41 87.212 317.41 88.62V95H319.588V87.828C319.588 85.694 318.51 84.792 316.926 84.792C315.1 84.792 313.692 86.024 313.032 86.728V79.27L310.854 79.622V95ZM323.663 82.68C324.455 82.68 325.049 82.108 325.049 81.338C325.049 80.568 324.455 79.996 323.663 79.996C322.893 79.996 322.299 80.568 322.299 81.338C322.299 82.108 322.893 82.68 323.663 82.68ZM322.563 95H324.741V85.056H322.563V95ZM327.145 94.384C327.145 94.384 328.377 95.264 330.445 95.264C332.887 95.264 334.317 94.054 334.317 92.25C334.317 89.082 329.543 89.236 329.543 87.498C329.543 86.926 330.027 86.508 331.127 86.508C332.403 86.508 333.547 87.124 333.547 87.124L334.053 85.342C334.053 85.342 332.953 84.792 331.215 84.792C328.465 84.792 327.365 86.134 327.365 87.674C327.365 90.798 332.139 90.666 332.139 92.448C332.139 93.086 331.589 93.548 330.423 93.548C328.817 93.548 327.607 92.536 327.607 92.536L327.145 94.384ZM340.66 85.144C342.068 84.044 342.794 82.746 342.794 81.404C342.794 80.458 342.464 79.556 341.628 78.676L339.714 79.732C340.748 80.832 341.034 81.448 341.034 82.152C341.034 82.922 340.66 83.604 339.824 84.242L340.66 85.144ZM336.81 85.144C338.218 84.044 338.944 82.746 338.944 81.404C338.944 80.458 338.614 79.556 337.778 78.676L335.842 79.732C336.898 80.832 337.184 81.448 337.184 82.152C337.184 82.922 336.81 83.604 335.974 84.242L336.81 85.144ZM352.518 95.088H354.63L357.182 88.004L359.47 95.088H361.604L365.168 85.056H362.946L360.548 92.536L358.216 85.056H356.324L353.75 92.58L351.572 85.056H349.328L352.518 95.088ZM368.136 82.68C368.928 82.68 369.522 82.108 369.522 81.338C369.522 80.568 368.928 79.996 368.136 79.996C367.366 79.996 366.772 80.568 366.772 81.338C366.772 82.108 367.366 82.68 368.136 82.68ZM367.036 95H369.214V85.056H367.036V95ZM372.849 92.294C372.849 94.34 373.971 95.264 375.687 95.264C377.447 95.264 378.745 94.208 378.745 94.208L378.195 92.558C377.931 92.712 377.007 93.438 376.171 93.438C375.445 93.438 375.027 92.954 375.027 91.744V86.706H378.173V85.056H375.027V82.24L372.893 82.702V84.968L371.375 85.518V86.706H372.849V92.294ZM380.636 95H382.814V88.598C383.474 87.938 384.904 86.684 386.004 86.684C386.752 86.684 387.192 87.212 387.192 88.62V95H389.37V87.828C389.37 85.694 388.292 84.792 386.708 84.792C384.882 84.792 383.474 86.024 382.814 86.728V79.27L380.636 79.622V95ZM398.158 92.294C398.158 94.34 399.28 95.264 400.996 95.264C402.756 95.264 404.054 94.208 404.054 94.208L403.504 92.558C403.24 92.712 402.316 93.438 401.48 93.438C400.754 93.438 400.336 92.954 400.336 91.744V86.706H403.482V85.056H400.336V82.24L398.202 82.702V84.968L396.684 85.518V86.706H398.158V92.294ZM405.944 95H408.122V88.598C408.782 87.938 410.212 86.684 411.312 86.684C412.06 86.684 412.5 87.212 412.5 88.62V95H414.678V87.828C414.678 85.694 413.6 84.792 412.016 84.792C410.19 84.792 408.782 86.024 408.122 86.728V79.27L405.944 79.622V95ZM416.993 90.182C416.993 92.844 418.687 95.264 422.009 95.264C424.495 95.264 426.013 93.834 426.013 93.834L425.397 92.25C425.397 92.25 424.011 93.482 422.339 93.482C420.601 93.482 419.501 92.316 419.259 90.512L424.693 89.786L425.947 89.434C425.947 86.42 424.231 84.792 421.855 84.792C418.951 84.792 416.993 87.146 416.993 90.182ZM421.701 86.486C423.439 86.486 423.571 88.51 423.571 88.51L419.259 89.06C419.457 87.608 420.293 86.486 421.701 86.486ZM433.68 95H435.858V88.84C436.276 88.18 437.178 86.992 438.278 86.992C438.718 86.992 439.158 87.168 439.158 87.168L439.598 84.968C439.598 84.968 439.29 84.792 438.74 84.792C437.222 84.792 436.21 86.2 435.814 86.882V84.88L433.68 85.232V95ZM442.472 82.68C443.264 82.68 443.858 82.108 443.858 81.338C443.858 80.568 443.264 79.996 442.472 79.996C441.702 79.996 441.108 80.568 441.108 81.338C441.108 82.108 441.702 82.68 442.472 82.68ZM441.372 95H443.55V85.056H441.372V95ZM446.591 93.24C446.591 93.922 447.229 94.318 448.219 94.648C447.163 95.198 445.689 96.144 445.689 97.596C445.689 99.334 447.845 100.214 450.045 100.214C453.037 100.214 455.479 98.52 455.479 96.518C455.479 94.692 453.477 94.142 451.717 93.702C449.649 93.196 448.681 92.998 448.681 92.602C448.681 92.36 449.033 92.096 449.495 91.788C449.715 91.832 449.957 91.832 450.221 91.832C452.355 91.832 454.621 90.666 454.621 88.488C454.621 87.608 454.203 87.014 453.895 86.662C454.159 86.706 454.467 86.728 454.709 86.728H455.897L455.743 84.99C455.743 84.99 455.083 85.21 454.423 85.21H453.279C452.179 85.21 451.607 84.792 450.397 84.792C448.175 84.792 446.173 86.046 446.173 88.268C446.173 89.61 446.899 90.776 448.153 91.392C447.339 91.854 446.591 92.514 446.591 93.24ZM450.463 95.22C452.311 95.704 453.345 95.99 453.345 96.848C453.345 97.838 451.937 98.63 450.177 98.63C448.923 98.63 447.647 98.234 447.647 97.244C447.647 96.254 448.857 95.594 449.803 95.066C450.023 95.11 450.243 95.154 450.463 95.22ZM450.375 90.292C448.967 90.292 448.307 89.28 448.307 88.334C448.307 87.3 449.055 86.332 450.375 86.332C451.783 86.332 452.465 87.476 452.465 88.444C452.465 89.566 451.585 90.292 450.375 90.292ZM457.786 95H459.964V88.598C460.624 87.938 462.054 86.684 463.154 86.684C463.902 86.684 464.342 87.212 464.342 88.62V95H466.52V87.828C466.52 85.694 465.442 84.792 463.858 84.792C462.032 84.792 460.624 86.024 459.964 86.728V79.27L457.786 79.622V95ZM470.023 92.294C470.023 94.34 471.145 95.264 472.861 95.264C474.621 95.264 475.919 94.208 475.919 94.208L475.369 92.558C475.105 92.712 474.181 93.438 473.345 93.438C472.619 93.438 472.201 92.954 472.201 91.744V86.706H475.347V85.056H472.201V82.24L470.067 82.702V84.968L468.549 85.518V86.706H470.023V92.294ZM301.836 124.384C301.836 124.384 303.068 125.264 305.136 125.264C307.578 125.264 309.008 124.054 309.008 122.25C309.008 119.082 304.234 119.236 304.234 117.498C304.234 116.926 304.718 116.508 305.818 116.508C307.094 116.508 308.238 117.124 308.238 117.124L308.744 115.342C308.744 115.342 307.644 114.792 305.906 114.792C303.156 114.792 302.056 116.134 302.056 117.674C302.056 120.798 306.83 120.666 306.83 122.448C306.83 123.086 306.28 123.548 305.114 123.548C303.508 123.548 302.298 122.536 302.298 122.536L301.836 124.384ZM311.282 122.272C311.282 124.406 312.382 125.264 313.988 125.264C315.814 125.264 317.2 124.098 317.838 123.416C317.948 124.142 318.168 125.176 318.168 125.176L320.28 124.978C320.28 124.978 319.84 123.152 319.84 121.942V115.056H317.662V121.744C317.046 122.316 315.814 123.372 314.692 123.372C313.878 123.372 313.46 122.822 313.46 121.436V115.056H311.282V122.272ZM322.949 130.126L325.127 129.774V124.736C325.545 125.044 326.293 125.264 327.217 125.264C330.385 125.264 332.233 122.668 332.233 119.72C332.233 117.014 330.649 114.792 328.031 114.792C326.469 114.792 325.523 115.606 325.061 116.464V114.88L322.949 115.232V130.126ZM327.657 116.596C328.999 116.596 329.945 117.806 329.945 119.874C329.945 122.25 328.691 123.548 326.821 123.548C325.787 123.548 325.127 123.174 325.127 122.426V118.202C325.413 117.784 326.337 116.596 327.657 116.596ZM334.615 130.126L336.793 129.774V124.736C337.211 125.044 337.959 125.264 338.883 125.264C342.051 125.264 343.899 122.668 343.899 119.72C343.899 117.014 342.315 114.792 339.697 114.792C338.135 114.792 337.189 115.606 336.727 116.464V114.88L334.615 115.232V130.126ZM339.323 116.596C340.665 116.596 341.611 117.806 341.611 119.874C341.611 122.25 340.357 123.548 338.487 123.548C337.453 123.548 336.793 123.174 336.793 122.426V118.202C337.079 117.784 338.003 116.596 339.323 116.596ZM345.643 120.072C345.643 122.712 347.425 125.264 350.725 125.264C354.311 125.264 355.895 122.25 355.895 119.83C355.895 117.278 354.113 114.792 350.813 114.792C347.249 114.792 345.643 117.586 345.643 120.072ZM347.909 119.874C347.909 117.894 349.075 116.53 350.769 116.53C352.793 116.53 353.629 118.356 353.629 120.116C353.629 122.118 352.463 123.526 350.791 123.526C348.811 123.526 347.909 121.722 347.909 119.874ZM358.248 125H360.426V118.84C360.844 118.18 361.746 116.992 362.846 116.992C363.286 116.992 363.726 117.168 363.726 117.168L364.166 114.968C364.166 114.968 363.858 114.792 363.308 114.792C361.79 114.792 360.778 116.2 360.382 116.882V114.88L358.248 115.232V125ZM366.468 122.294C366.468 124.34 367.59 125.264 369.306 125.264C371.066 125.264 372.364 124.208 372.364 124.208L371.814 122.558C371.55 122.712 370.626 123.438 369.79 123.438C369.064 123.438 368.646 122.954 368.646 121.744V116.706H371.792V115.056H368.646V112.24L366.512 112.702V114.968L364.994 115.518V116.706H366.468V122.294ZM373.925 123.79C373.925 124.604 374.585 125.264 375.399 125.264C376.213 125.264 376.895 124.604 376.895 123.79C376.895 122.954 376.213 122.294 375.399 122.294C374.585 122.294 373.925 122.954 373.925 123.79Z" fill="#333333"/>
<path d="M43 395.324V152.385H291V395.324" stroke="#828282" stroke-width="4"/>
<path d="M539 395.324V152.385H787V395.324" stroke="#828282" stroke-width="4"/>
<path d="M291 395.324V152.385H539V395.324" stroke="#828282" stroke-width="4"/>
<path d="M787 395.324V152.385H1035V395.324" stroke="#828282" stroke-width="4"/>
<rect x="53" y="165" width="49" height="170" fill="#EDE3E4"/>
<rect x="549" y="165" width="49" height="186" fill="#D9DFE9"/>
<rect x="301" y="165" width="49" height="170" fill="#EFE8DF"/>
<rect x="797.121" y="165.039" width="49.3469" height="137.918" fill="#DFDDE2"/>
<rect x="112.594" y="165.039" width="49.3469" height="221.429" fill="#EDE3E4"/>
<rect x="609" y="165" width="49" height="151" fill="#D9DFE9"/>
<rect x="360.594" y="165.039" width="49.3469" height="137.918" fill="#EFE8DF"/>
<rect x="857" y="165" width="49" height="170" fill="#DFDDE2"/>
<rect x="231.531" y="165.039" width="49.3469" height="169.551" fill="#EDE3E4"/>
<rect x="728" y="165" width="49" height="186" fill="#D9DFE9"/>
<rect x="480" y="165" width="49" height="138" fill="#EFE8DF"/>
<rect x="975.531" y="165.039" width="49.3469" height="137.918" fill="#DFDDE2"/>
<rect x="172" y="165" width="49" height="221" fill="#EDE3E4"/>
<rect x="668" y="165" width="49" height="151" fill="#D9DFE9"/>
<rect x="420" y="165" width="49" height="170" fill="#EFE8DF"/>
<rect x="916" y="165" width="49" height="151" fill="#DFDDE2"/>
</svg>
