<svg width="1004" height="449" viewBox="0 0 1004 449" fill="none" xmlns="http://www.w3.org/2000/svg">
<path d="M532 339.256V134.031H741.5V339.256" stroke="#BDBDBD" stroke-width="4"/>
<rect x="541" y="145" width="41" height="128" fill="#EDE3E4"/>
<rect x="591" y="145" width="41" height="160" fill="#EDE3E4"/>
<rect x="691" y="145" width="42" height="128" fill="#EDE3E4"/>
<rect x="641" y="145" width="42" height="160" fill="#EDE3E4"/>
<path d="M757.5 339.256V134.031H967V339.256" stroke="#BDBDBD" stroke-width="4"/>
<rect x="766.051" y="144.721" width="41.6862" height="116.508" fill="#DFDDE2"/>
<rect x="816" y="145" width="42" height="157" fill="#DFDDE2"/>
<rect x="916.762" y="144.721" width="41.6862" height="116.508" fill="#DFDDE2"/>
<rect x="866.523" y="144.721" width="41.6862" height="143.23" fill="#DFDDE2"/>
<path d="M261.5 339.256V134.031H471V339.256" stroke="#BDBDBD" stroke-width="4"/>
<rect x="270.051" y="144.721" width="41.6862" height="160.332" fill="#D9DFE9"/>
<rect x="320" y="145" width="42" height="128" fill="#D9DFE9"/>
<rect x="421" y="145" width="41" height="160" fill="#D9DFE9"/>
<rect x="371" y="145" width="41" height="128" fill="#D9DFE9"/>
<path d="M271.638 65H273.492V59.78H277.722V58.178H273.492V54.542H278.838V52.994H271.638V65ZM279.439 61.058C279.439 63.236 280.825 65.216 283.543 65.216C285.577 65.216 286.819 64.046 286.819 64.046L286.315 62.75C286.315 62.75 285.181 63.758 283.813 63.758C282.391 63.758 281.491 62.804 281.293 61.328L285.739 60.734L286.765 60.446C286.765 57.98 285.361 56.648 283.417 56.648C281.041 56.648 279.439 58.574 279.439 61.058ZM283.291 58.034C284.713 58.034 284.821 59.69 284.821 59.69L281.293 60.14C281.455 58.952 282.139 58.034 283.291 58.034ZM288.263 61.058C288.263 63.236 289.649 65.216 292.367 65.216C294.401 65.216 295.643 64.046 295.643 64.046L295.139 62.75C295.139 62.75 294.005 63.758 292.637 63.758C291.215 63.758 290.315 62.804 290.117 61.328L294.563 60.734L295.589 60.446C295.589 57.98 294.185 56.648 292.241 56.648C289.865 56.648 288.263 58.574 288.263 61.058ZM292.115 58.034C293.537 58.034 293.645 59.69 293.645 59.69L290.117 60.14C290.279 58.952 290.963 58.034 292.115 58.034ZM297.627 65H299.409V52.13L297.627 52.418V65ZM306.276 65H308.058V59.762C308.598 59.222 309.768 58.196 310.668 58.196C311.28 58.196 311.64 58.628 311.64 59.78V65H313.422V59.132C313.422 57.386 312.54 56.648 311.244 56.648C309.75 56.648 308.598 57.656 308.058 58.232V52.13L306.276 52.418V65ZM315.298 60.968C315.298 63.128 316.756 65.216 319.456 65.216C322.39 65.216 323.686 62.75 323.686 60.77C323.686 58.682 322.228 56.648 319.528 56.648C316.612 56.648 315.298 58.934 315.298 60.968ZM317.152 60.806C317.152 59.186 318.106 58.07 319.492 58.07C321.148 58.07 321.832 59.564 321.832 61.004C321.832 62.642 320.878 63.794 319.51 63.794C317.89 63.794 317.152 62.318 317.152 60.806ZM325.611 69.194L327.393 68.906V64.784C327.735 65.036 328.347 65.216 329.103 65.216C331.695 65.216 333.207 63.092 333.207 60.68C333.207 58.466 331.911 56.648 329.769 56.648C328.491 56.648 327.717 57.314 327.339 58.016V56.72L325.611 57.008V69.194ZM329.463 58.124C330.561 58.124 331.335 59.114 331.335 60.806C331.335 62.75 330.309 63.812 328.779 63.812C327.933 63.812 327.393 63.506 327.393 62.894V59.438C327.627 59.096 328.383 58.124 329.463 58.124ZM334.652 61.058C334.652 63.236 336.038 65.216 338.756 65.216C340.79 65.216 342.032 64.046 342.032 64.046L341.528 62.75C341.528 62.75 340.394 63.758 339.026 63.758C337.604 63.758 336.704 62.804 336.506 61.328L340.952 60.734L341.978 60.446C341.978 57.98 340.574 56.648 338.63 56.648C336.254 56.648 334.652 58.574 334.652 61.058ZM338.504 58.034C339.926 58.034 340.034 59.69 340.034 59.69L336.506 60.14C336.668 58.952 337.352 58.034 338.504 58.034ZM343.206 58.214H344.484V65H346.266V58.214H348.516V56.864H346.266V55.892C346.266 53.984 347.13 53.318 348.084 53.318C348.966 53.318 349.758 53.894 349.758 53.894L350.46 52.526C350.46 52.526 349.524 51.842 348.102 51.842C345.978 51.842 344.484 53.336 344.484 56V56.792L343.206 57.26V58.214ZM350.061 62.768C350.061 64.514 350.961 65.216 352.275 65.216C353.769 65.216 354.903 64.262 355.425 63.704C355.515 64.298 355.695 65.144 355.695 65.144L357.423 64.982C357.423 64.982 357.063 63.488 357.063 62.498V56.864H355.281V62.336C354.777 62.804 353.769 63.668 352.851 63.668C352.185 63.668 351.843 63.218 351.843 62.084V56.864H350.061V62.768ZM359.643 65H361.425V52.13L359.643 52.418V65ZM368.723 62.786C368.723 64.46 369.641 65.216 371.045 65.216C372.485 65.216 373.547 64.352 373.547 64.352L373.097 63.002C372.881 63.128 372.125 63.722 371.441 63.722C370.847 63.722 370.505 63.326 370.505 62.336V58.214H373.079V56.864H370.505V54.56L368.759 54.938V56.792L367.517 57.242V58.214H368.723V62.786ZM375.094 65H376.876V59.762C377.416 59.222 378.586 58.196 379.486 58.196C380.098 58.196 380.458 58.628 380.458 59.78V65H382.24V59.132C382.24 57.386 381.358 56.648 380.062 56.648C378.568 56.648 377.416 57.656 376.876 58.232V52.13L375.094 52.418V65ZM383.99 63.128C383.99 64.334 384.908 65.216 386.33 65.216C387.914 65.216 388.742 64.208 388.958 63.866C389.192 64.514 389.714 65.036 390.956 65.126L391.496 63.722C391.496 63.722 390.596 63.704 390.596 62.696V59.258C390.596 57.44 389.984 56.648 388.058 56.648C385.916 56.648 384.53 57.674 384.53 57.674L384.998 59.006C384.998 59.006 386.24 58.07 387.572 58.07C388.886 58.07 388.814 58.97 388.814 59.996C385.772 60.392 383.99 61.418 383.99 63.128ZM386.78 63.812C386.258 63.812 385.826 63.578 385.826 63.002C385.826 62.048 386.744 61.454 388.814 61.148V62.552C388.274 63.182 387.608 63.812 386.78 63.812ZM393.649 62.786C393.649 64.46 394.567 65.216 395.971 65.216C397.411 65.216 398.473 64.352 398.473 64.352L398.023 63.002C397.807 63.128 397.051 63.722 396.367 63.722C395.773 63.722 395.431 63.326 395.431 62.336V58.214H398.005V56.864H395.431V54.56L393.685 54.938V56.792L392.443 57.242V58.214H393.649V62.786ZM404.722 65H406.576V52.994H404.722V65ZM413.261 61.04C413.261 63.398 414.899 65.216 417.437 65.216C419.381 65.216 420.317 64.172 420.317 64.172L419.741 62.912C419.741 62.912 418.859 63.758 417.563 63.758C416.033 63.758 415.115 62.552 415.115 60.95C415.115 59.294 416.105 58.088 417.581 58.088C418.769 58.088 419.615 58.844 419.615 58.844L420.317 57.512C420.317 57.512 419.327 56.648 417.545 56.648C414.863 56.648 413.261 58.79 413.261 61.04ZM421.431 63.128C421.431 64.334 422.349 65.216 423.771 65.216C425.355 65.216 426.183 64.208 426.399 63.866C426.633 64.514 427.155 65.036 428.397 65.126L428.937 63.722C428.937 63.722 428.037 63.704 428.037 62.696V59.258C428.037 57.44 427.425 56.648 425.499 56.648C423.357 56.648 421.971 57.674 421.971 57.674L422.439 59.006C422.439 59.006 423.681 58.07 425.013 58.07C426.327 58.07 426.255 58.97 426.255 59.996C423.213 60.392 421.431 61.418 421.431 63.128ZM424.221 63.812C423.699 63.812 423.267 63.578 423.267 63.002C423.267 62.048 424.185 61.454 426.255 61.148V62.552C425.715 63.182 425.049 63.812 424.221 63.812ZM430.693 65H432.475V59.726C433.033 59.186 434.185 58.196 435.085 58.196C435.697 58.196 436.057 58.628 436.057 59.78V65H437.839V59.132C437.839 57.386 436.957 56.648 435.679 56.648C434.185 56.648 433.015 57.638 432.439 58.268V56.72L430.693 57.008V65ZM444.544 63.56C444.544 64.118 445.066 64.442 445.876 64.712C445.012 65.162 443.806 65.936 443.806 67.124C443.806 68.546 445.57 69.266 447.37 69.266C449.818 69.266 451.816 67.88 451.816 66.242C451.816 64.748 450.178 64.298 448.738 63.938C447.046 63.524 446.254 63.362 446.254 63.038C446.254 62.84 446.542 62.624 446.92 62.372C447.1 62.408 447.298 62.408 447.514 62.408C449.26 62.408 451.114 61.454 451.114 59.672C451.114 58.952 450.772 58.466 450.52 58.178C450.736 58.214 450.988 58.232 451.186 58.232H452.158L452.032 56.81C452.032 56.81 451.492 56.99 450.952 56.99H450.016C449.116 56.99 448.648 56.648 447.658 56.648C445.84 56.648 444.202 57.674 444.202 59.492C444.202 60.59 444.796 61.544 445.822 62.048C445.156 62.426 444.544 62.966 444.544 63.56ZM447.712 65.18C449.224 65.576 450.07 65.81 450.07 66.512C450.07 67.322 448.918 67.97 447.478 67.97C446.452 67.97 445.408 67.646 445.408 66.836C445.408 66.026 446.398 65.486 447.172 65.054C447.352 65.09 447.532 65.126 447.712 65.18ZM447.64 61.148C446.488 61.148 445.948 60.32 445.948 59.546C445.948 58.7 446.56 57.908 447.64 57.908C448.792 57.908 449.35 58.844 449.35 59.636C449.35 60.554 448.63 61.148 447.64 61.148ZM453.163 61.058C453.163 63.236 454.549 65.216 457.267 65.216C459.301 65.216 460.543 64.046 460.543 64.046L460.039 62.75C460.039 62.75 458.905 63.758 457.537 63.758C456.115 63.758 455.215 62.804 455.017 61.328L459.463 60.734L460.489 60.446C460.489 57.98 459.085 56.648 457.141 56.648C454.765 56.648 453.163 58.574 453.163 61.058ZM457.015 58.034C458.437 58.034 458.545 59.69 458.545 59.69L455.017 60.14C455.179 58.952 455.863 58.034 457.015 58.034ZM462.96 62.786C462.96 64.46 463.878 65.216 465.282 65.216C466.722 65.216 467.784 64.352 467.784 64.352L467.334 63.002C467.118 63.128 466.362 63.722 465.678 63.722C465.084 63.722 464.742 63.326 464.742 62.336V58.214H467.316V56.864H464.742V54.56L462.996 54.938V56.792L461.754 57.242V58.214H462.96V62.786ZM271.224 88.82C271.836 88.964 273.222 89.216 274.194 89.216C277.272 89.216 278.748 87.02 278.748 84.644C278.748 82.412 277.452 80.648 275.202 80.648C274.086 80.648 273.42 81.098 273.006 81.566V76.13L271.224 76.418V88.82ZM274.914 82.088C276.102 82.088 276.912 83.078 276.912 84.77C276.912 86.786 275.778 87.866 274.23 87.866C273.564 87.866 273.006 87.686 273.006 87.686V82.934C273.384 82.592 274.068 82.088 274.914 82.088ZM280.068 87.128C280.068 88.334 280.986 89.216 282.408 89.216C283.992 89.216 284.82 88.208 285.036 87.866C285.27 88.514 285.792 89.036 287.034 89.126L287.574 87.722C287.574 87.722 286.674 87.704 286.674 86.696V83.258C286.674 81.44 286.062 80.648 284.136 80.648C281.994 80.648 280.608 81.674 280.608 81.674L281.076 83.006C281.076 83.006 282.318 82.07 283.65 82.07C284.964 82.07 284.892 82.97 284.892 83.996C281.85 84.392 280.068 85.418 280.068 87.128ZM282.858 87.812C282.336 87.812 281.904 87.578 281.904 87.002C281.904 86.048 282.822 85.454 284.892 85.148V86.552C284.352 87.182 283.686 87.812 282.858 87.812ZM288.807 85.04C288.807 87.398 290.445 89.216 292.983 89.216C294.927 89.216 295.863 88.172 295.863 88.172L295.287 86.912C295.287 86.912 294.405 87.758 293.109 87.758C291.579 87.758 290.661 86.552 290.661 84.95C290.661 83.294 291.651 82.088 293.127 82.088C294.315 82.088 295.161 82.844 295.161 82.844L295.863 81.512C295.863 81.512 294.873 80.648 293.091 80.648C290.409 80.648 288.807 82.79 288.807 85.04ZM297.662 89H299.444V85.148H299.696L302.936 89H305.222L301.262 84.428L304.97 80.864H302.648L299.696 83.834H299.444V76.13L297.662 76.418V89ZM310.323 84.968C310.323 87.128 311.781 89.216 314.481 89.216C317.415 89.216 318.711 86.75 318.711 84.77C318.711 82.682 317.253 80.648 314.553 80.648C311.637 80.648 310.323 82.934 310.323 84.968ZM312.177 84.806C312.177 83.186 313.131 82.07 314.517 82.07C316.173 82.07 316.857 83.564 316.857 85.004C316.857 86.642 315.903 87.794 314.535 87.794C312.915 87.794 312.177 86.318 312.177 84.806ZM320.636 89H322.418V83.726C322.976 83.186 324.128 82.196 325.028 82.196C325.64 82.196 326 82.628 326 83.78V89H327.782V83.132C327.782 81.386 326.9 80.648 325.622 80.648C324.128 80.648 322.958 81.638 322.382 82.268V80.72L320.636 81.008V89ZM334.973 86.786C334.973 88.46 335.891 89.216 337.295 89.216C338.735 89.216 339.797 88.352 339.797 88.352L339.347 87.002C339.131 87.128 338.375 87.722 337.691 87.722C337.097 87.722 336.755 87.326 336.755 86.336V82.214H339.329V80.864H336.755V78.56L335.009 78.938V80.792L333.767 81.242V82.214H334.973V86.786ZM341.308 89H343.09V83.96C343.432 83.42 344.17 82.448 345.07 82.448C345.43 82.448 345.79 82.592 345.79 82.592L346.15 80.792C346.15 80.792 345.898 80.648 345.448 80.648C344.206 80.648 343.378 81.8 343.054 82.358V80.72L341.308 81.008V89ZM346.918 87.128C346.918 88.334 347.836 89.216 349.258 89.216C350.842 89.216 351.67 88.208 351.886 87.866C352.12 88.514 352.642 89.036 353.884 89.126L354.424 87.722C354.424 87.722 353.524 87.704 353.524 86.696V83.258C353.524 81.44 352.912 80.648 350.986 80.648C348.844 80.648 347.458 81.674 347.458 81.674L347.926 83.006C347.926 83.006 349.168 82.07 350.5 82.07C351.814 82.07 351.742 82.97 351.742 83.996C348.7 84.392 346.918 85.418 346.918 87.128ZM349.708 87.812C349.186 87.812 348.754 87.578 348.754 87.002C348.754 86.048 349.672 85.454 351.742 85.148V86.552C351.202 87.182 350.536 87.812 349.708 87.812ZM355.657 85.04C355.657 87.398 357.295 89.216 359.833 89.216C361.777 89.216 362.713 88.172 362.713 88.172L362.137 86.912C362.137 86.912 361.255 87.758 359.959 87.758C358.429 87.758 357.511 86.552 357.511 84.95C357.511 83.294 358.501 82.088 359.977 82.088C361.165 82.088 362.011 82.844 362.011 82.844L362.713 81.512C362.713 81.512 361.723 80.648 359.941 80.648C357.259 80.648 355.657 82.79 355.657 85.04ZM364.512 89H366.294V85.148H366.546L369.786 89H372.072L368.112 84.428L371.82 80.864H369.498L366.546 83.834H366.294V76.13L364.512 76.418V89ZM377.047 87.128C377.047 88.334 377.965 89.216 379.387 89.216C380.971 89.216 381.799 88.208 382.015 87.866C382.249 88.514 382.771 89.036 384.013 89.126L384.553 87.722C384.553 87.722 383.653 87.704 383.653 86.696V83.258C383.653 81.44 383.041 80.648 381.115 80.648C378.973 80.648 377.587 81.674 377.587 81.674L378.055 83.006C378.055 83.006 379.297 82.07 380.629 82.07C381.943 82.07 381.871 82.97 381.871 83.996C378.829 84.392 377.047 85.418 377.047 87.128ZM379.837 87.812C379.315 87.812 378.883 87.578 378.883 87.002C378.883 86.048 379.801 85.454 381.871 85.148V86.552C381.331 87.182 380.665 87.812 379.837 87.812ZM385.534 82.214H386.812V89H388.594V82.214H390.844V80.864H388.594V79.892C388.594 77.984 389.458 77.318 390.412 77.318C391.294 77.318 392.086 77.894 392.086 77.894L392.788 76.526C392.788 76.526 391.852 75.842 390.43 75.842C388.306 75.842 386.812 77.336 386.812 80V80.792L385.534 81.26V82.214ZM392.911 86.786C392.911 88.46 393.829 89.216 395.233 89.216C396.673 89.216 397.735 88.352 397.735 88.352L397.285 87.002C397.069 87.128 396.313 87.722 395.629 87.722C395.035 87.722 394.693 87.326 394.693 86.336V82.214H397.267V80.864H394.693V78.56L392.947 78.938V80.792L391.705 81.242V82.214H392.911V86.786ZM398.741 85.058C398.741 87.236 400.127 89.216 402.845 89.216C404.879 89.216 406.121 88.046 406.121 88.046L405.617 86.75C405.617 86.75 404.483 87.758 403.115 87.758C401.693 87.758 400.793 86.804 400.595 85.328L405.041 84.734L406.067 84.446C406.067 81.98 404.663 80.648 402.719 80.648C400.343 80.648 398.741 82.574 398.741 85.058ZM402.593 82.034C404.015 82.034 404.123 83.69 404.123 83.69L400.595 84.14C400.757 82.952 401.441 82.034 402.593 82.034ZM408.07 89H409.852V83.96C410.194 83.42 410.932 82.448 411.832 82.448C412.192 82.448 412.552 82.592 412.552 82.592L412.912 80.792C412.912 80.792 412.66 80.648 412.21 80.648C410.968 80.648 410.14 81.8 409.816 82.358V80.72L408.07 81.008V89ZM418.004 87.128C418.004 88.334 418.922 89.216 420.344 89.216C421.928 89.216 422.756 88.208 422.972 87.866C423.206 88.514 423.728 89.036 424.97 89.126L425.51 87.722C425.51 87.722 424.61 87.704 424.61 86.696V83.258C424.61 81.44 423.998 80.648 422.072 80.648C419.93 80.648 418.544 81.674 418.544 81.674L419.012 83.006C419.012 83.006 420.254 82.07 421.586 82.07C422.9 82.07 422.828 82.97 422.828 83.996C419.786 84.392 418.004 85.418 418.004 87.128ZM420.794 87.812C420.272 87.812 419.84 87.578 419.84 87.002C419.84 86.048 420.758 85.454 422.828 85.148V86.552C422.288 87.182 421.622 87.812 420.794 87.812ZM271.224 113H273.006V107.96C273.348 107.42 274.086 106.448 274.986 106.448C275.346 106.448 275.706 106.592 275.706 106.592L276.066 104.792C276.066 104.792 275.814 104.648 275.364 104.648C274.122 104.648 273.294 105.8 272.97 106.358V104.72L271.224 105.008V113ZM276.837 109.058C276.837 111.236 278.223 113.216 280.941 113.216C282.975 113.216 284.217 112.046 284.217 112.046L283.713 110.75C283.713 110.75 282.579 111.758 281.211 111.758C279.789 111.758 278.889 110.804 278.691 109.328L283.137 108.734L284.163 108.446C284.163 105.98 282.759 104.648 280.815 104.648C278.439 104.648 276.837 106.574 276.837 109.058ZM280.689 106.034C282.111 106.034 282.219 107.69 282.219 107.69L278.691 108.14C278.853 106.952 279.537 106.034 280.689 106.034ZM286.201 113H287.983V100.13L286.201 100.418V113ZM289.842 111.128C289.842 112.334 290.76 113.216 292.182 113.216C293.766 113.216 294.594 112.208 294.81 111.866C295.044 112.514 295.566 113.036 296.808 113.126L297.348 111.722C297.348 111.722 296.448 111.704 296.448 110.696V107.258C296.448 105.44 295.836 104.648 293.91 104.648C291.768 104.648 290.382 105.674 290.382 105.674L290.85 107.006C290.85 107.006 292.092 106.07 293.424 106.07C294.738 106.07 294.666 106.97 294.666 107.996C291.624 108.392 289.842 109.418 289.842 111.128ZM292.632 111.812C292.11 111.812 291.678 111.578 291.678 111.002C291.678 110.048 292.596 109.454 294.666 109.148V110.552C294.126 111.182 293.46 111.812 292.632 111.812ZM299.103 117.194L300.885 116.906V112.784C301.227 113.036 301.839 113.216 302.595 113.216C305.187 113.216 306.699 111.092 306.699 108.68C306.699 106.466 305.403 104.648 303.261 104.648C301.983 104.648 301.209 105.314 300.831 106.016V104.72L299.103 105.008V117.194ZM302.955 106.124C304.053 106.124 304.827 107.114 304.827 108.806C304.827 110.75 303.801 111.812 302.271 111.812C301.425 111.812 300.885 111.506 300.885 110.894V107.438C301.119 107.096 301.875 106.124 302.955 106.124ZM308.108 112.496C308.108 112.496 309.116 113.216 310.808 113.216C312.806 113.216 313.976 112.226 313.976 110.75C313.976 108.158 310.07 108.284 310.07 106.862C310.07 106.394 310.466 106.052 311.366 106.052C312.41 106.052 313.346 106.556 313.346 106.556L313.76 105.098C313.76 105.098 312.86 104.648 311.438 104.648C309.188 104.648 308.288 105.746 308.288 107.006C308.288 109.562 312.194 109.454 312.194 110.912C312.194 111.434 311.744 111.812 310.79 111.812C309.476 111.812 308.486 110.984 308.486 110.984L308.108 112.496ZM315.386 109.058C315.386 111.236 316.772 113.216 319.49 113.216C321.524 113.216 322.766 112.046 322.766 112.046L322.262 110.75C322.262 110.75 321.128 111.758 319.76 111.758C318.338 111.758 317.438 110.804 317.24 109.328L321.686 108.734L322.712 108.446C322.712 105.98 321.308 104.648 319.364 104.648C316.988 104.648 315.386 106.574 315.386 109.058ZM319.238 106.034C320.66 106.034 320.768 107.69 320.768 107.69L317.24 108.14C317.402 106.952 318.086 106.034 319.238 106.034Z" fill="#333333"/>
<path d="M767.638 65H769.492V60.176H771.346L774.55 65H776.746L773.218 59.744C774.424 59.186 775.522 58.052 775.522 56.414C775.522 54.596 774.262 52.994 771.166 52.994H767.638V65ZM769.492 58.628V54.542H770.86C772.858 54.542 773.56 55.46 773.56 56.54C773.56 57.872 772.48 58.628 771.13 58.628H769.492ZM777.39 61.058C777.39 63.236 778.776 65.216 781.494 65.216C783.528 65.216 784.77 64.046 784.77 64.046L784.266 62.75C784.266 62.75 783.132 63.758 781.764 63.758C780.342 63.758 779.442 62.804 779.244 61.328L783.69 60.734L784.716 60.446C784.716 57.98 783.312 56.648 781.368 56.648C778.992 56.648 777.39 58.574 777.39 61.058ZM781.242 58.034C782.664 58.034 782.772 59.69 782.772 59.69L779.244 60.14C779.406 58.952 780.09 58.034 781.242 58.034ZM786.07 63.128C786.07 64.334 786.988 65.216 788.41 65.216C789.994 65.216 790.822 64.208 791.038 63.866C791.272 64.514 791.794 65.036 793.036 65.126L793.576 63.722C793.576 63.722 792.676 63.704 792.676 62.696V59.258C792.676 57.44 792.064 56.648 790.138 56.648C787.996 56.648 786.61 57.674 786.61 57.674L787.078 59.006C787.078 59.006 788.32 58.07 789.652 58.07C790.966 58.07 790.894 58.97 790.894 59.996C787.852 60.392 786.07 61.418 786.07 63.128ZM788.86 63.812C788.338 63.812 787.906 63.578 787.906 63.002C787.906 62.048 788.824 61.454 790.894 61.148V62.552C790.354 63.182 789.688 63.812 788.86 63.812ZM795.367 65H797.149V52.13L795.367 52.418V65ZM800.592 54.92C801.24 54.92 801.726 54.452 801.726 53.822C801.726 53.192 801.24 52.724 800.592 52.724C799.962 52.724 799.476 53.192 799.476 53.822C799.476 54.452 799.962 54.92 800.592 54.92ZM799.692 65H801.474V56.864H799.692V65ZM803.458 65H809.992V63.56H805.708L809.848 57.944V56.864H803.602V58.304H807.508L803.458 63.92V65ZM811.333 61.058C811.333 63.236 812.719 65.216 815.437 65.216C817.471 65.216 818.713 64.046 818.713 64.046L818.209 62.75C818.209 62.75 817.075 63.758 815.707 63.758C814.285 63.758 813.385 62.804 813.187 61.328L817.633 60.734L818.659 60.446C818.659 57.98 817.255 56.648 815.311 56.648C812.935 56.648 811.333 58.574 811.333 61.058ZM815.185 58.034C816.607 58.034 816.715 59.69 816.715 59.69L813.187 60.14C813.349 58.952 814.033 58.034 815.185 58.034ZM825.454 62.786C825.454 64.46 826.372 65.216 827.776 65.216C829.216 65.216 830.278 64.352 830.278 64.352L829.828 63.002C829.612 63.128 828.856 63.722 828.172 63.722C827.578 63.722 827.236 63.326 827.236 62.336V58.214H829.81V56.864H827.236V54.56L825.49 54.938V56.792L824.248 57.242V58.214H825.454V62.786ZM831.824 65H833.606V59.762C834.146 59.222 835.316 58.196 836.216 58.196C836.828 58.196 837.188 58.628 837.188 59.78V65H838.97V59.132C838.97 57.386 838.088 56.648 836.792 56.648C835.298 56.648 834.146 57.656 833.606 58.232V52.13L831.824 52.418V65ZM840.721 63.128C840.721 64.334 841.639 65.216 843.061 65.216C844.645 65.216 845.473 64.208 845.689 63.866C845.923 64.514 846.445 65.036 847.687 65.126L848.227 63.722C848.227 63.722 847.327 63.704 847.327 62.696V59.258C847.327 57.44 846.715 56.648 844.789 56.648C842.647 56.648 841.261 57.674 841.261 57.674L841.729 59.006C841.729 59.006 842.971 58.07 844.303 58.07C845.617 58.07 845.545 58.97 845.545 59.996C842.503 60.392 840.721 61.418 840.721 63.128ZM843.511 63.812C842.989 63.812 842.557 63.578 842.557 63.002C842.557 62.048 843.475 61.454 845.545 61.148V62.552C845.005 63.182 844.339 63.812 843.511 63.812ZM850.38 62.786C850.38 64.46 851.298 65.216 852.702 65.216C854.142 65.216 855.204 64.352 855.204 64.352L854.754 63.002C854.538 63.128 853.782 63.722 853.098 63.722C852.504 63.722 852.162 63.326 852.162 62.336V58.214H854.736V56.864H852.162V54.56L850.416 54.938V56.792L849.174 57.242V58.214H850.38V62.786ZM861.452 65H863.306V52.994H861.452V65ZM869.991 61.04C869.991 63.398 871.629 65.216 874.167 65.216C876.111 65.216 877.047 64.172 877.047 64.172L876.471 62.912C876.471 62.912 875.589 63.758 874.293 63.758C872.763 63.758 871.845 62.552 871.845 60.95C871.845 59.294 872.835 58.088 874.311 58.088C875.499 58.088 876.345 58.844 876.345 58.844L877.047 57.512C877.047 57.512 876.057 56.648 874.275 56.648C871.593 56.648 869.991 58.79 869.991 61.04ZM878.162 63.128C878.162 64.334 879.08 65.216 880.502 65.216C882.086 65.216 882.914 64.208 883.13 63.866C883.364 64.514 883.886 65.036 885.128 65.126L885.668 63.722C885.668 63.722 884.768 63.704 884.768 62.696V59.258C884.768 57.44 884.156 56.648 882.23 56.648C880.088 56.648 878.702 57.674 878.702 57.674L879.17 59.006C879.17 59.006 880.412 58.07 881.744 58.07C883.058 58.07 882.986 58.97 882.986 59.996C879.944 60.392 878.162 61.418 878.162 63.128ZM880.952 63.812C880.43 63.812 879.998 63.578 879.998 63.002C879.998 62.048 880.916 61.454 882.986 61.148V62.552C882.446 63.182 881.78 63.812 880.952 63.812ZM887.423 65H889.205V59.726C889.763 59.186 890.915 58.196 891.815 58.196C892.427 58.196 892.787 58.628 892.787 59.78V65H894.569V59.132C894.569 57.386 893.687 56.648 892.409 56.648C890.915 56.648 889.745 57.638 889.169 58.268V56.72L887.423 57.008V65ZM901.328 65H903.11V52.13L901.328 52.418V65ZM906.553 54.92C907.201 54.92 907.687 54.452 907.687 53.822C907.687 53.192 907.201 52.724 906.553 52.724C905.923 52.724 905.437 53.192 905.437 53.822C905.437 54.452 905.923 54.92 906.553 54.92ZM905.653 65H907.435V56.864H905.653V65ZM911.903 65.072H913.559L916.907 56.864H915.089L912.803 62.768L910.823 56.864H908.951L911.903 65.072ZM917.734 61.058C917.734 63.236 919.12 65.216 921.838 65.216C923.872 65.216 925.114 64.046 925.114 64.046L924.61 62.75C924.61 62.75 923.476 63.758 922.108 63.758C920.686 63.758 919.786 62.804 919.588 61.328L924.034 60.734L925.06 60.446C925.06 57.98 923.656 56.648 921.712 56.648C919.336 56.648 917.734 58.574 917.734 61.058ZM921.586 58.034C923.008 58.034 923.116 59.69 923.116 59.69L919.588 60.14C919.75 58.952 920.434 58.034 921.586 58.034ZM930.738 63.128C930.738 64.334 931.656 65.216 933.078 65.216C934.662 65.216 935.49 64.208 935.706 63.866C935.94 64.514 936.462 65.036 937.704 65.126L938.244 63.722C938.244 63.722 937.344 63.704 937.344 62.696V59.258C937.344 57.44 936.732 56.648 934.806 56.648C932.664 56.648 931.278 57.674 931.278 57.674L931.746 59.006C931.746 59.006 932.988 58.07 934.32 58.07C935.634 58.07 935.562 58.97 935.562 59.996C932.52 60.392 930.738 61.418 930.738 63.128ZM933.528 63.812C933.006 63.812 932.574 63.578 932.574 63.002C932.574 62.048 933.492 61.454 935.562 61.148V62.552C935.022 63.182 934.356 63.812 933.528 63.812ZM766.45 82.214H767.728V89H769.51V82.214H771.76V80.864H769.51V79.892C769.51 77.984 770.374 77.318 771.328 77.318C772.21 77.318 773.002 77.894 773.002 77.894L773.704 76.526C773.704 76.526 772.768 75.842 771.346 75.842C769.222 75.842 767.728 77.336 767.728 80V80.792L766.45 81.26V82.214ZM773.305 86.768C773.305 88.514 774.205 89.216 775.519 89.216C777.013 89.216 778.147 88.262 778.669 87.704C778.759 88.298 778.939 89.144 778.939 89.144L780.667 88.982C780.667 88.982 780.307 87.488 780.307 86.498V80.864H778.525V86.336C778.021 86.804 777.013 87.668 776.095 87.668C775.429 87.668 775.087 87.218 775.087 86.084V80.864H773.305V86.768ZM782.887 89H784.669V76.13L782.887 76.418V89ZM787.211 89H788.993V76.13L787.211 76.418V89ZM795.86 89H797.642V76.13L795.86 76.418V89ZM801.084 78.92C801.732 78.92 802.218 78.452 802.218 77.822C802.218 77.192 801.732 76.724 801.084 76.724C800.454 76.724 799.968 77.192 799.968 77.822C799.968 78.452 800.454 78.92 801.084 78.92ZM800.184 89H801.966V80.864H800.184V89ZM803.698 82.214H804.976V89H806.758V82.214H809.008V80.864H806.758V79.892C806.758 77.984 807.622 77.318 808.576 77.318C809.458 77.318 810.25 77.894 810.25 77.894L810.952 76.526C810.952 76.526 810.016 75.842 808.594 75.842C806.47 75.842 804.976 77.336 804.976 80V80.792L803.698 81.26V82.214ZM809.98 85.058C809.98 87.236 811.366 89.216 814.084 89.216C816.118 89.216 817.36 88.046 817.36 88.046L816.856 86.75C816.856 86.75 815.722 87.758 814.354 87.758C812.932 87.758 812.032 86.804 811.834 85.328L816.28 84.734L817.306 84.446C817.306 81.98 815.902 80.648 813.958 80.648C811.582 80.648 809.98 82.574 809.98 85.058ZM813.832 82.034C815.254 82.034 815.362 83.69 815.362 83.69L811.834 84.14C811.996 82.952 812.68 82.034 813.832 82.034ZM823.128 85.058C823.128 87.236 824.514 89.216 827.232 89.216C829.266 89.216 830.508 88.046 830.508 88.046L830.004 86.75C830.004 86.75 828.87 87.758 827.502 87.758C826.08 87.758 825.18 86.804 824.982 85.328L829.428 84.734L830.454 84.446C830.454 81.98 829.05 80.648 827.106 80.648C824.73 80.648 823.128 82.574 823.128 85.058ZM826.98 82.034C828.402 82.034 828.51 83.69 828.51 83.69L824.982 84.14C825.144 82.952 825.828 82.034 826.98 82.034ZM834.418 89.072H836.074L839.422 80.864H837.604L835.318 86.768L833.338 80.864H831.466L834.418 89.072ZM840.249 85.058C840.249 87.236 841.635 89.216 844.353 89.216C846.387 89.216 847.629 88.046 847.629 88.046L847.125 86.75C847.125 86.75 845.991 87.758 844.623 87.758C843.201 87.758 842.301 86.804 842.103 85.328L846.549 84.734L847.575 84.446C847.575 81.98 846.171 80.648 844.227 80.648C841.851 80.648 840.249 82.574 840.249 85.058ZM844.101 82.034C845.523 82.034 845.631 83.69 845.631 83.69L842.103 84.14C842.265 82.952 842.949 82.034 844.101 82.034ZM849.578 89H851.36V83.726C851.918 83.186 853.07 82.196 853.97 82.196C854.582 82.196 854.942 82.628 854.942 83.78V89H856.724V83.132C856.724 81.386 855.842 80.648 854.564 80.648C853.07 80.648 851.9 81.638 851.324 82.268V80.72L849.578 81.008V89ZM865.157 89.072H866.885L868.973 83.276L870.845 89.072H872.591L875.507 80.864H873.689L871.727 86.984L869.819 80.864H868.271L866.165 87.02L864.383 80.864H862.547L865.157 89.072ZM877.935 78.92C878.583 78.92 879.069 78.452 879.069 77.822C879.069 77.192 878.583 76.724 877.935 76.724C877.305 76.724 876.819 77.192 876.819 77.822C876.819 78.452 877.305 78.92 877.935 78.92ZM877.035 89H878.817V80.864H877.035V89ZM881.792 86.786C881.792 88.46 882.71 89.216 884.114 89.216C885.554 89.216 886.616 88.352 886.616 88.352L886.166 87.002C885.95 87.128 885.194 87.722 884.51 87.722C883.916 87.722 883.574 87.326 883.574 86.336V82.214H886.148V80.864H883.574V78.56L881.828 78.938V80.792L880.586 81.242V82.214H881.792V86.786ZM888.162 89H889.944V83.762C890.484 83.222 891.654 82.196 892.554 82.196C893.166 82.196 893.526 82.628 893.526 83.78V89H895.308V83.132C895.308 81.386 894.426 80.648 893.13 80.648C891.636 80.648 890.484 81.656 889.944 82.232V76.13L888.162 76.418V89ZM901.383 87.128C901.383 88.334 902.301 89.216 903.723 89.216C905.307 89.216 906.135 88.208 906.351 87.866C906.585 88.514 907.107 89.036 908.349 89.126L908.889 87.722C908.889 87.722 907.989 87.704 907.989 86.696V83.258C907.989 81.44 907.377 80.648 905.451 80.648C903.309 80.648 901.923 81.674 901.923 81.674L902.391 83.006C902.391 83.006 903.633 82.07 904.965 82.07C906.279 82.07 906.207 82.97 906.207 83.996C903.165 84.392 901.383 85.418 901.383 87.128ZM904.173 87.812C903.651 87.812 903.219 87.578 903.219 87.002C903.219 86.048 904.137 85.454 906.207 85.148V86.552C905.667 87.182 905.001 87.812 904.173 87.812ZM766.702 109.04C766.702 111.398 768.34 113.216 770.878 113.216C772.822 113.216 773.758 112.172 773.758 112.172L773.182 110.912C773.182 110.912 772.3 111.758 771.004 111.758C769.474 111.758 768.556 110.552 768.556 108.95C768.556 107.294 769.546 106.088 771.022 106.088C772.21 106.088 773.056 106.844 773.056 106.844L773.758 105.512C773.758 105.512 772.768 104.648 770.986 104.648C768.304 104.648 766.702 106.79 766.702 109.04ZM775.557 113H777.339V107.762C777.879 107.222 779.049 106.196 779.949 106.196C780.561 106.196 780.921 106.628 780.921 107.78V113H782.703V107.132C782.703 105.386 781.821 104.648 780.525 104.648C779.031 104.648 777.879 105.656 777.339 106.232V100.13L775.557 100.418V113ZM785.101 113H786.883V107.96C787.225 107.42 787.963 106.448 788.863 106.448C789.223 106.448 789.583 106.592 789.583 106.592L789.943 104.792C789.943 104.792 789.691 104.648 789.241 104.648C787.999 104.648 787.171 105.8 786.847 106.358V104.72L785.101 105.008V113ZM790.696 108.968C790.696 111.128 792.154 113.216 794.854 113.216C797.788 113.216 799.084 110.75 799.084 108.77C799.084 106.682 797.626 104.648 794.926 104.648C792.01 104.648 790.696 106.934 790.696 108.968ZM792.55 108.806C792.55 107.186 793.504 106.07 794.89 106.07C796.546 106.07 797.23 107.564 797.23 109.004C797.23 110.642 796.276 111.794 794.908 111.794C793.288 111.794 792.55 110.318 792.55 108.806ZM801.009 113H802.791V107.726C803.349 107.186 804.501 106.196 805.401 106.196C806.013 106.196 806.373 106.628 806.373 107.78V113H808.155V107.132C808.155 105.386 807.273 104.648 805.995 104.648C804.501 104.648 803.331 105.638 802.755 106.268V104.72L801.009 105.008V113ZM811.49 102.92C812.138 102.92 812.624 102.452 812.624 101.822C812.624 101.192 812.138 100.724 811.49 100.724C810.86 100.724 810.374 101.192 810.374 101.822C810.374 102.452 810.86 102.92 811.49 102.92ZM810.59 113H812.372V104.864H810.59V113ZM814.356 109.04C814.356 111.398 815.994 113.216 818.532 113.216C820.476 113.216 821.412 112.172 821.412 112.172L820.836 110.912C820.836 110.912 819.954 111.758 818.658 111.758C817.128 111.758 816.21 110.552 816.21 108.95C816.21 107.294 817.2 106.088 818.676 106.088C819.864 106.088 820.71 106.844 820.71 106.844L821.412 105.512C821.412 105.512 820.422 104.648 818.64 104.648C815.958 104.648 814.356 106.79 814.356 109.04ZM828.435 102.92C829.083 102.92 829.569 102.452 829.569 101.822C829.569 101.192 829.083 100.724 828.435 100.724C827.805 100.724 827.319 101.192 827.319 101.822C827.319 102.452 827.805 102.92 828.435 102.92ZM827.535 113H829.317V104.864H827.535V113ZM831.86 113H833.642V100.13L831.86 100.418V113ZM836.184 113H837.966V100.13L836.184 100.418V113ZM840.472 113H842.254V107.726C842.812 107.186 843.964 106.196 844.864 106.196C845.476 106.196 845.836 106.628 845.836 107.78V113H847.618V107.132C847.618 105.386 846.736 104.648 845.458 104.648C843.964 104.648 842.794 105.638 842.218 106.268V104.72L840.472 105.008V113ZM849.513 109.058C849.513 111.236 850.899 113.216 853.617 113.216C855.651 113.216 856.893 112.046 856.893 112.046L856.389 110.75C856.389 110.75 855.255 111.758 853.887 111.758C852.465 111.758 851.565 110.804 851.367 109.328L855.813 108.734L856.839 108.446C856.839 105.98 855.435 104.648 853.491 104.648C851.115 104.648 849.513 106.574 849.513 109.058ZM853.365 106.034C854.787 106.034 854.895 107.69 854.895 107.69L851.367 108.14C851.529 106.952 852.213 106.034 853.365 106.034ZM858.301 112.496C858.301 112.496 859.309 113.216 861.001 113.216C862.999 113.216 864.169 112.226 864.169 110.75C864.169 108.158 860.263 108.284 860.263 106.862C860.263 106.394 860.659 106.052 861.559 106.052C862.603 106.052 863.539 106.556 863.539 106.556L863.953 105.098C863.953 105.098 863.053 104.648 861.631 104.648C859.381 104.648 858.481 105.746 858.481 107.006C858.481 109.562 862.387 109.454 862.387 110.912C862.387 111.434 861.937 111.812 860.983 111.812C859.669 111.812 858.679 110.984 858.679 110.984L858.301 112.496ZM865.543 112.496C865.543 112.496 866.551 113.216 868.243 113.216C870.241 113.216 871.411 112.226 871.411 110.75C871.411 108.158 867.505 108.284 867.505 106.862C867.505 106.394 867.901 106.052 868.801 106.052C869.845 106.052 870.781 106.556 870.781 106.556L871.195 105.098C871.195 105.098 870.295 104.648 868.873 104.648C866.623 104.648 865.723 105.746 865.723 107.006C865.723 109.562 869.629 109.454 869.629 110.912C869.629 111.434 869.179 111.812 868.225 111.812C866.911 111.812 865.921 110.984 865.921 110.984L865.543 112.496ZM873.092 112.01C873.092 112.676 873.632 113.216 874.298 113.216C874.964 113.216 875.522 112.676 875.522 112.01C875.522 111.326 874.964 110.786 874.298 110.786C873.632 110.786 873.092 111.326 873.092 112.01Z" fill="#333333"/>
<path d="M36 339.256V134.031H245.5V339.256" stroke="#BDBDBD" stroke-width="4"/>
<rect x="44.5508" y="144.721" width="41.6862" height="160.332" fill="#EFE8DF"/>
<rect x="95" y="145" width="41" height="128" fill="#EFE8DF"/>
<rect x="195.262" y="144.721" width="41.6862" height="143.23" fill="#EFE8DF"/>
<rect x="145.027" y="144.721" width="41.6862" height="166.745" fill="#EFE8DF"/>
<path d="M46.638 65H50.778C53.19 65 54.882 63.632 54.882 61.508C54.882 59.6 53.496 58.808 52.794 58.52C53.424 58.034 54.234 57.152 54.234 55.874C54.234 54.488 53.262 52.994 50.166 52.994H46.638V65ZM48.492 63.452V59.618H50.508C52.182 59.618 52.92 60.428 52.92 61.544C52.92 62.678 52.182 63.452 50.508 63.452H48.492ZM48.492 54.542H49.896C51.768 54.542 52.272 55.28 52.272 56.18C52.272 57.476 51.12 58.088 51.12 58.088H48.492V54.542ZM56.4075 61.058C56.4075 63.236 57.7935 65.216 60.5115 65.216C62.5455 65.216 63.7875 64.046 63.7875 64.046L63.2835 62.75C63.2835 62.75 62.1495 63.758 60.7815 63.758C59.3595 63.758 58.4595 62.804 58.2615 61.328L62.7075 60.734L63.7335 60.446C63.7335 57.98 62.3295 56.648 60.3855 56.648C58.0095 56.648 56.4075 58.574 56.4075 61.058ZM60.2595 58.034C61.6815 58.034 61.7895 59.69 61.7895 59.69L58.2615 60.14C58.4235 58.952 59.1075 58.034 60.2595 58.034ZM65.7717 65H67.5537V52.13L65.7717 52.418V65ZM70.9959 54.92C71.6439 54.92 72.1299 54.452 72.1299 53.822C72.1299 53.192 71.6439 52.724 70.9959 52.724C70.3659 52.724 69.8799 53.192 69.8799 53.822C69.8799 54.452 70.3659 54.92 70.9959 54.92ZM70.0959 65H71.8779V56.864H70.0959V65ZM73.8802 61.058C73.8802 63.236 75.2662 65.216 77.9842 65.216C80.0182 65.216 81.2602 64.046 81.2602 64.046L80.7562 62.75C80.7562 62.75 79.6222 63.758 78.2542 63.758C76.8322 63.758 75.9322 62.804 75.7342 61.328L80.1802 60.734L81.2062 60.446C81.2062 57.98 79.8022 56.648 77.8582 56.648C75.4822 56.648 73.8802 58.574 73.8802 61.058ZM77.7322 58.034C79.1542 58.034 79.2622 59.69 79.2622 59.69L75.7342 60.14C75.8962 58.952 76.5802 58.034 77.7322 58.034ZM85.1704 65.072H86.8264L90.1744 56.864H88.3564L86.0704 62.768L84.0904 56.864H82.2184L85.1704 65.072ZM91.0013 61.058C91.0013 63.236 92.3873 65.216 95.1053 65.216C97.1393 65.216 98.3813 64.046 98.3813 64.046L97.8773 62.75C97.8773 62.75 96.7433 63.758 95.3753 63.758C93.9533 63.758 93.0533 62.804 92.8553 61.328L97.3013 60.734L98.3273 60.446C98.3273 57.98 96.9233 56.648 94.9793 56.648C92.6033 56.648 91.0013 58.574 91.0013 61.058ZM94.8533 58.034C96.2753 58.034 96.3833 59.69 96.3833 59.69L92.8553 60.14C93.0173 58.952 93.7013 58.034 94.8533 58.034ZM105.122 62.786C105.122 64.46 106.04 65.216 107.444 65.216C108.884 65.216 109.946 64.352 109.946 64.352L109.496 63.002C109.28 63.128 108.524 63.722 107.84 63.722C107.246 63.722 106.904 63.326 106.904 62.336V58.214H109.478V56.864H106.904V54.56L105.158 54.938V56.792L103.916 57.242V58.214H105.122V62.786ZM111.492 65H113.274V59.762C113.814 59.222 114.984 58.196 115.884 58.196C116.496 58.196 116.856 58.628 116.856 59.78V65H118.638V59.132C118.638 57.386 117.756 56.648 116.46 56.648C114.966 56.648 113.814 57.656 113.274 58.232V52.13L111.492 52.418V65ZM120.389 63.128C120.389 64.334 121.307 65.216 122.729 65.216C124.312 65.216 125.141 64.208 125.357 63.866C125.591 64.514 126.113 65.036 127.355 65.126L127.895 63.722C127.895 63.722 126.995 63.704 126.995 62.696V59.258C126.995 57.44 126.383 56.648 124.457 56.648C122.315 56.648 120.929 57.674 120.929 57.674L121.397 59.006C121.397 59.006 122.639 58.07 123.971 58.07C125.285 58.07 125.213 58.97 125.213 59.996C122.171 60.392 120.389 61.418 120.389 63.128ZM123.179 63.812C122.657 63.812 122.225 63.578 122.225 63.002C122.225 62.048 123.143 61.454 125.213 61.148V62.552C124.673 63.182 124.007 63.812 123.179 63.812ZM130.047 62.786C130.047 64.46 130.965 65.216 132.369 65.216C133.809 65.216 134.871 64.352 134.871 64.352L134.421 63.002C134.205 63.128 133.449 63.722 132.765 63.722C132.171 63.722 131.829 63.326 131.829 62.336V58.214H134.403V56.864H131.829V54.56L130.083 54.938V56.792L128.841 57.242V58.214H130.047V62.786ZM144.396 56.936L145.962 56.054C145.116 55.154 144.882 54.65 144.882 54.074C144.882 53.444 145.188 52.886 145.872 52.364L145.188 51.644C144.036 52.526 143.442 53.606 143.442 54.686C143.442 55.46 143.712 56.198 144.396 56.936ZM141.246 56.936L142.812 56.054C141.966 55.154 141.732 54.65 141.732 54.074C141.732 53.444 142.038 52.886 142.722 52.364L142.038 51.644C140.886 52.526 140.292 53.606 140.292 54.686C140.292 55.46 140.562 56.198 141.246 56.936ZM148.169 65H150.023V52.994H148.169V65ZM156.708 61.04C156.708 63.398 158.346 65.216 160.884 65.216C162.828 65.216 163.764 64.172 163.764 64.172L163.188 62.912C163.188 62.912 162.306 63.758 161.01 63.758C159.48 63.758 158.562 62.552 158.562 60.95C158.562 59.294 159.552 58.088 161.028 58.088C162.216 58.088 163.062 58.844 163.062 58.844L163.764 57.512C163.764 57.512 162.774 56.648 160.992 56.648C158.31 56.648 156.708 58.79 156.708 61.04ZM164.879 63.128C164.879 64.334 165.797 65.216 167.219 65.216C168.803 65.216 169.631 64.208 169.847 63.866C170.081 64.514 170.603 65.036 171.845 65.126L172.385 63.722C172.385 63.722 171.485 63.704 171.485 62.696V59.258C171.485 57.44 170.873 56.648 168.947 56.648C166.805 56.648 165.419 57.674 165.419 57.674L165.887 59.006C165.887 59.006 167.129 58.07 168.461 58.07C169.775 58.07 169.703 58.97 169.703 59.996C166.661 60.392 164.879 61.418 164.879 63.128ZM167.669 63.812C167.147 63.812 166.715 63.578 166.715 63.002C166.715 62.048 167.633 61.454 169.703 61.148V62.552C169.163 63.182 168.497 63.812 167.669 63.812ZM174.14 65H175.922V59.726C176.48 59.186 177.632 58.196 178.532 58.196C179.144 58.196 179.504 58.628 179.504 59.78V65H181.286V59.132C181.286 57.386 180.404 56.648 179.126 56.648C177.632 56.648 176.462 57.638 175.886 58.268V56.72L174.14 57.008V65ZM187.505 61.184C187.505 63.416 188.873 65.216 190.997 65.216C192.293 65.216 193.121 64.586 193.553 63.884C193.643 64.46 193.805 65.126 193.805 65.126L195.515 65C195.515 65 195.155 63.488 195.155 62.498V52.13L193.373 52.418V56.918C193.139 56.828 192.599 56.648 191.861 56.648C188.981 56.648 187.505 58.862 187.505 61.184ZM191.303 63.794C190.151 63.794 189.377 62.768 189.377 61.076C189.377 59.132 190.403 58.052 191.951 58.052C192.689 58.052 193.337 58.322 193.373 59.132V62.48C193.121 62.858 192.401 63.794 191.303 63.794ZM197.155 60.968C197.155 63.128 198.613 65.216 201.313 65.216C204.247 65.216 205.543 62.75 205.543 60.77C205.543 58.682 204.085 56.648 201.385 56.648C198.469 56.648 197.155 58.934 197.155 60.968ZM199.009 60.806C199.009 59.186 199.963 58.07 201.349 58.07C203.005 58.07 203.689 59.564 203.689 61.004C203.689 62.642 202.735 63.794 201.367 63.794C199.747 63.794 199.009 62.318 199.009 60.806ZM212.26 62.786C212.26 64.46 213.178 65.216 214.582 65.216C216.022 65.216 217.084 64.352 217.084 64.352L216.634 63.002C216.418 63.128 215.662 63.722 214.978 63.722C214.384 63.722 214.042 63.326 214.042 62.336V58.214H216.616V56.864H214.042V54.56L212.296 54.938V56.792L211.054 57.242V58.214H212.26V62.786ZM218.631 65H220.413V59.762C220.953 59.222 222.123 58.196 223.023 58.196C223.635 58.196 223.995 58.628 223.995 59.78V65H225.777V59.132C225.777 57.386 224.895 56.648 223.599 56.648C222.105 56.648 220.953 57.656 220.413 58.232V52.13L218.631 52.418V65ZM229.111 54.92C229.759 54.92 230.245 54.452 230.245 53.822C230.245 53.192 229.759 52.724 229.111 52.724C228.481 52.724 227.995 53.192 227.995 53.822C227.995 54.452 228.481 54.92 229.111 54.92ZM228.211 65H229.993V56.864H228.211V65ZM231.959 64.496C231.959 64.496 232.967 65.216 234.659 65.216C236.657 65.216 237.827 64.226 237.827 62.75C237.827 60.158 233.921 60.284 233.921 58.862C233.921 58.394 234.317 58.052 235.217 58.052C236.261 58.052 237.197 58.556 237.197 58.556L237.611 57.098C237.611 57.098 236.711 56.648 235.289 56.648C233.039 56.648 232.139 57.746 232.139 59.006C232.139 61.562 236.045 61.454 236.045 62.912C236.045 63.434 235.595 63.812 234.641 63.812C233.327 63.812 232.337 62.984 232.337 62.984L231.959 64.496ZM243.018 56.936C244.17 56.036 244.764 54.974 244.764 53.876C244.764 53.102 244.494 52.364 243.81 51.644L242.244 52.508C243.09 53.408 243.324 53.912 243.324 54.488C243.324 55.118 243.018 55.676 242.334 56.198L243.018 56.936ZM239.868 56.936C241.02 56.036 241.614 54.974 241.614 53.876C241.614 53.102 241.344 52.364 240.66 51.644L239.076 52.508C239.94 53.408 240.174 53.912 240.174 54.488C240.174 55.118 239.868 55.676 239.184 56.198L239.868 56.936ZM47.934 89.072H49.662L51.75 83.276L53.622 89.072H55.368L58.284 80.864H56.466L54.504 86.984L52.596 80.864H51.048L48.942 87.02L47.16 80.864H45.324L47.934 89.072ZM60.7127 78.92C61.3607 78.92 61.8467 78.452 61.8467 77.822C61.8467 77.192 61.3607 76.724 60.7127 76.724C60.0827 76.724 59.5967 77.192 59.5967 77.822C59.5967 78.452 60.0827 78.92 60.7127 78.92ZM59.8127 89H61.5947V80.864H59.8127V89ZM64.569 86.786C64.569 88.46 65.487 89.216 66.891 89.216C68.331 89.216 69.393 88.352 69.393 88.352L68.943 87.002C68.727 87.128 67.971 87.722 67.287 87.722C66.693 87.722 66.351 87.326 66.351 86.336V82.214H68.925V80.864H66.351V78.56L64.605 78.938V80.792L63.363 81.242V82.214H64.569V86.786ZM70.9397 89H72.7217V83.762C73.2617 83.222 74.4317 82.196 75.3317 82.196C75.9437 82.196 76.3037 82.628 76.3037 83.78V89H78.0857V83.132C78.0857 81.386 77.2037 80.648 75.9077 80.648C74.4137 80.648 73.2617 81.656 72.7217 82.232V76.13L70.9397 76.418V89ZM85.276 86.786C85.276 88.46 86.194 89.216 87.598 89.216C89.038 89.216 90.1 88.352 90.1 88.352L89.65 87.002C89.434 87.128 88.678 87.722 87.994 87.722C87.4 87.722 87.058 87.326 87.058 86.336V82.214H89.632V80.864H87.058V78.56L85.312 78.938V80.792L84.07 81.242V82.214H85.276V86.786ZM91.6467 89H93.4287V83.762C93.9687 83.222 95.1387 82.196 96.0387 82.196C96.6507 82.196 97.0107 82.628 97.0107 83.78V89H98.7927V83.132C98.7927 81.386 97.9107 80.648 96.6147 80.648C95.1207 80.648 93.9687 81.656 93.4287 82.232V76.13L91.6467 76.418V89ZM100.687 85.058C100.687 87.236 102.073 89.216 104.791 89.216C106.825 89.216 108.067 88.046 108.067 88.046L107.563 86.75C107.563 86.75 106.429 87.758 105.061 87.758C103.639 87.758 102.739 86.804 102.541 85.328L106.987 84.734L108.013 84.446C108.013 81.98 106.609 80.648 104.665 80.648C102.289 80.648 100.687 82.574 100.687 85.058ZM104.539 82.034C105.961 82.034 106.069 83.69 106.069 83.69L102.541 84.14C102.703 82.952 103.387 82.034 104.539 82.034ZM114.339 89H116.121V83.96C116.463 83.42 117.201 82.448 118.101 82.448C118.461 82.448 118.821 82.592 118.821 82.592L119.181 80.792C119.181 80.792 118.929 80.648 118.479 80.648C117.237 80.648 116.409 81.8 116.085 82.358V80.72L114.339 81.008V89ZM121.533 78.92C122.181 78.92 122.667 78.452 122.667 77.822C122.667 77.192 122.181 76.724 121.533 76.724C120.903 76.724 120.417 77.192 120.417 77.822C120.417 78.452 120.903 78.92 121.533 78.92ZM120.633 89H122.415V80.864H120.633V89ZM124.903 87.56C124.903 88.118 125.425 88.442 126.235 88.712C125.371 89.162 124.165 89.936 124.165 91.124C124.165 92.546 125.929 93.266 127.729 93.266C130.177 93.266 132.175 91.88 132.175 90.242C132.175 88.748 130.537 88.298 129.097 87.938C127.405 87.524 126.613 87.362 126.613 87.038C126.613 86.84 126.901 86.624 127.279 86.372C127.459 86.408 127.657 86.408 127.873 86.408C129.619 86.408 131.473 85.454 131.473 83.672C131.473 82.952 131.131 82.466 130.879 82.178C131.095 82.214 131.347 82.232 131.545 82.232H132.517L132.391 80.81C132.391 80.81 131.851 80.99 131.311 80.99H130.375C129.475 80.99 129.007 80.648 128.017 80.648C126.199 80.648 124.561 81.674 124.561 83.492C124.561 84.59 125.155 85.544 126.181 86.048C125.515 86.426 124.903 86.966 124.903 87.56ZM128.071 89.18C129.583 89.576 130.429 89.81 130.429 90.512C130.429 91.322 129.277 91.97 127.837 91.97C126.811 91.97 125.767 91.646 125.767 90.836C125.767 90.026 126.757 89.486 127.531 89.054C127.711 89.09 127.891 89.126 128.071 89.18ZM127.999 85.148C126.847 85.148 126.307 84.32 126.307 83.546C126.307 82.7 126.919 81.908 127.999 81.908C129.151 81.908 129.709 82.844 129.709 83.636C129.709 84.554 128.989 85.148 127.999 85.148ZM134.063 89H135.845V83.762C136.385 83.222 137.555 82.196 138.455 82.196C139.067 82.196 139.427 82.628 139.427 83.78V89H141.209V83.132C141.209 81.386 140.327 80.648 139.031 80.648C137.537 80.648 136.385 81.656 135.845 82.232V76.13L134.063 76.418V89ZM144.075 86.786C144.075 88.46 144.993 89.216 146.397 89.216C147.837 89.216 148.899 88.352 148.899 88.352L148.449 87.002C148.233 87.128 147.477 87.722 146.793 87.722C146.199 87.722 145.857 87.326 145.857 86.336V82.214H148.431V80.864H145.857V78.56L144.111 78.938V80.792L142.869 81.242V82.214H144.075V86.786ZM154.194 88.496C154.194 88.496 155.202 89.216 156.894 89.216C158.892 89.216 160.062 88.226 160.062 86.75C160.062 84.158 156.156 84.284 156.156 82.862C156.156 82.394 156.552 82.052 157.452 82.052C158.496 82.052 159.432 82.556 159.432 82.556L159.846 81.098C159.846 81.098 158.946 80.648 157.524 80.648C155.274 80.648 154.374 81.746 154.374 83.006C154.374 85.562 158.28 85.454 158.28 86.912C158.28 87.434 157.83 87.812 156.876 87.812C155.562 87.812 154.572 86.984 154.572 86.984L154.194 88.496ZM161.922 86.768C161.922 88.514 162.822 89.216 164.136 89.216C165.63 89.216 166.764 88.262 167.286 87.704C167.376 88.298 167.556 89.144 167.556 89.144L169.284 88.982C169.284 88.982 168.924 87.488 168.924 86.498V80.864H167.142V86.336C166.638 86.804 165.63 87.668 164.712 87.668C164.046 87.668 163.704 87.218 163.704 86.084V80.864H161.922V86.768ZM171.468 93.194L173.25 92.906V88.784C173.592 89.036 174.204 89.216 174.96 89.216C177.552 89.216 179.064 87.092 179.064 84.68C179.064 82.466 177.768 80.648 175.626 80.648C174.348 80.648 173.574 81.314 173.196 82.016V80.72L171.468 81.008V93.194ZM175.32 82.124C176.418 82.124 177.192 83.114 177.192 84.806C177.192 86.75 176.166 87.812 174.636 87.812C173.79 87.812 173.25 87.506 173.25 86.894V83.438C173.484 83.096 174.24 82.124 175.32 82.124ZM181.013 93.194L182.795 92.906V88.784C183.137 89.036 183.749 89.216 184.505 89.216C187.097 89.216 188.609 87.092 188.609 84.68C188.609 82.466 187.313 80.648 185.171 80.648C183.893 80.648 183.119 81.314 182.741 82.016V80.72L181.013 81.008V93.194ZM184.865 82.124C185.963 82.124 186.737 83.114 186.737 84.806C186.737 86.75 185.711 87.812 184.181 87.812C183.335 87.812 182.795 87.506 182.795 86.894V83.438C183.029 83.096 183.785 82.124 184.865 82.124ZM190.036 84.968C190.036 87.128 191.494 89.216 194.194 89.216C197.128 89.216 198.424 86.75 198.424 84.77C198.424 82.682 196.966 80.648 194.266 80.648C191.35 80.648 190.036 82.934 190.036 84.968ZM191.89 84.806C191.89 83.186 192.844 82.07 194.23 82.07C195.886 82.07 196.57 83.564 196.57 85.004C196.57 86.642 195.616 87.794 194.248 87.794C192.628 87.794 191.89 86.318 191.89 84.806ZM200.349 89H202.131V83.96C202.473 83.42 203.211 82.448 204.111 82.448C204.471 82.448 204.831 82.592 204.831 82.592L205.191 80.792C205.191 80.792 204.939 80.648 204.489 80.648C203.247 80.648 202.419 81.8 202.095 82.358V80.72L200.349 81.008V89ZM207.075 86.786C207.075 88.46 207.993 89.216 209.397 89.216C210.837 89.216 211.899 88.352 211.899 88.352L211.449 87.002C211.233 87.128 210.477 87.722 209.793 87.722C209.199 87.722 208.857 87.326 208.857 86.336V82.214H211.431V80.864H208.857V78.56L207.111 78.938V80.792L205.869 81.242V82.214H207.075V86.786ZM213.176 88.01C213.176 88.676 213.716 89.216 214.382 89.216C215.048 89.216 215.606 88.676 215.606 88.01C215.606 87.326 215.048 86.786 214.382 86.786C213.716 86.786 213.176 87.326 213.176 88.01Z" fill="#333333"/>
<path d="M545.464 65.09H547.246L551.548 52.994H549.658L546.4 62.336L543.142 52.994H541.18L545.464 65.09ZM551.771 63.128C551.771 64.334 552.689 65.216 554.111 65.216C555.695 65.216 556.523 64.208 556.739 63.866C556.973 64.514 557.495 65.036 558.737 65.126L559.277 63.722C559.277 63.722 558.377 63.704 558.377 62.696V59.258C558.377 57.44 557.765 56.648 555.839 56.648C553.697 56.648 552.311 57.674 552.311 57.674L552.779 59.006C552.779 59.006 554.021 58.07 555.353 58.07C556.667 58.07 556.595 58.97 556.595 59.996C553.553 60.392 551.771 61.418 551.771 63.128ZM554.561 63.812C554.039 63.812 553.607 63.578 553.607 63.002C553.607 62.048 554.525 61.454 556.595 61.148V62.552C556.055 63.182 555.389 63.812 554.561 63.812ZM561.069 65H562.851V52.13L561.069 52.418V65ZM565.303 62.768C565.303 64.514 566.203 65.216 567.517 65.216C569.011 65.216 570.145 64.262 570.667 63.704C570.757 64.298 570.937 65.144 570.937 65.144L572.665 64.982C572.665 64.982 572.305 63.488 572.305 62.498V56.864H570.523V62.336C570.019 62.804 569.011 63.668 568.093 63.668C567.427 63.668 567.085 63.218 567.085 62.084V56.864H565.303V62.768ZM574.345 61.058C574.345 63.236 575.731 65.216 578.449 65.216C580.483 65.216 581.725 64.046 581.725 64.046L581.221 62.75C581.221 62.75 580.087 63.758 578.719 63.758C577.297 63.758 576.397 62.804 576.199 61.328L580.645 60.734L581.671 60.446C581.671 57.98 580.267 56.648 578.323 56.648C575.947 56.648 574.345 58.574 574.345 61.058ZM578.197 58.034C579.619 58.034 579.727 59.69 579.727 59.69L576.199 60.14C576.361 58.952 577.045 58.034 578.197 58.034ZM587.997 65H589.779V59.708C590.301 59.186 591.417 58.196 592.299 58.196C592.893 58.196 593.217 58.628 593.217 59.78V65H594.999V59.672C595.611 59.078 596.619 58.196 597.447 58.196C598.041 58.196 598.383 58.628 598.383 59.78V65H600.147V59.132C600.147 57.386 599.301 56.648 598.041 56.648C596.619 56.648 595.503 57.602 594.909 58.25C594.657 57.134 593.919 56.648 592.893 56.648C591.453 56.648 590.301 57.638 589.743 58.25V56.72L587.997 57.008V65ZM601.616 67.844L602.174 69.266C604.082 69.05 605.27 67.34 605.972 65.612L609.5 56.864H607.664L605.558 62.444L603.416 56.864H601.526L604.676 64.586L604.244 65.558C603.758 66.692 602.804 67.646 601.616 67.844ZM610.379 64.496C610.379 64.496 611.387 65.216 613.079 65.216C615.077 65.216 616.247 64.226 616.247 62.75C616.247 60.158 612.341 60.284 612.341 58.862C612.341 58.394 612.737 58.052 613.637 58.052C614.681 58.052 615.617 58.556 615.617 58.556L616.031 57.098C616.031 57.098 615.131 56.648 613.709 56.648C611.459 56.648 610.559 57.746 610.559 59.006C610.559 61.562 614.465 61.454 614.465 62.912C614.465 63.434 614.015 63.812 613.061 63.812C611.747 63.812 610.757 62.984 610.757 62.984L610.379 64.496ZM617.658 61.058C617.658 63.236 619.044 65.216 621.762 65.216C623.796 65.216 625.038 64.046 625.038 64.046L624.534 62.75C624.534 62.75 623.4 63.758 622.032 63.758C620.61 63.758 619.71 62.804 619.512 61.328L623.958 60.734L624.984 60.446C624.984 57.98 623.58 56.648 621.636 56.648C619.26 56.648 617.658 58.574 617.658 61.058ZM621.51 58.034C622.932 58.034 623.04 59.69 623.04 59.69L619.512 60.14C619.674 58.952 620.358 58.034 621.51 58.034ZM627.022 65H628.804V52.13L627.022 52.418V65ZM630.536 58.214H631.814V65H633.596V58.214H635.846V56.864H633.596V55.892C633.596 53.984 634.46 53.318 635.414 53.318C636.296 53.318 637.088 53.894 637.088 53.894L637.79 52.526C637.79 52.526 636.854 51.842 635.432 51.842C633.308 51.842 631.814 53.336 631.814 56V56.792L630.536 57.26V58.214ZM641.265 61.058C641.265 63.236 642.651 65.216 645.369 65.216C647.403 65.216 648.645 64.046 648.645 64.046L648.141 62.75C648.141 62.75 647.007 63.758 645.639 63.758C644.217 63.758 643.317 62.804 643.119 61.328L647.565 60.734L648.591 60.446C648.591 57.98 647.187 56.648 645.243 56.648C642.867 56.648 641.265 58.574 641.265 61.058ZM645.117 58.034C646.539 58.034 646.647 59.69 646.647 59.69L643.119 60.14C643.281 58.952 643.965 58.034 645.117 58.034ZM650.593 65H652.375V59.726C652.933 59.186 654.085 58.196 654.985 58.196C655.597 58.196 655.957 58.628 655.957 59.78V65H657.739V59.132C657.739 57.386 656.857 56.648 655.579 56.648C654.085 56.648 652.915 57.638 652.339 58.268V56.72L650.593 57.008V65ZM659.616 60.968C659.616 63.128 661.074 65.216 663.774 65.216C666.708 65.216 668.004 62.75 668.004 60.77C668.004 58.682 666.546 56.648 663.846 56.648C660.93 56.648 659.616 58.934 659.616 60.968ZM661.47 60.806C661.47 59.186 662.424 58.07 663.81 58.07C665.466 58.07 666.15 59.564 666.15 61.004C666.15 62.642 665.196 63.794 663.828 63.794C662.208 63.794 661.47 62.318 661.47 60.806ZM669.875 62.768C669.875 64.514 670.775 65.216 672.089 65.216C673.583 65.216 674.717 64.262 675.239 63.704C675.329 64.298 675.509 65.144 675.509 65.144L677.237 64.982C677.237 64.982 676.877 63.488 676.877 62.498V56.864H675.095V62.336C674.591 62.804 673.583 63.668 672.665 63.668C671.999 63.668 671.657 63.218 671.657 62.084V56.864H669.875V62.768ZM679.403 63.56C679.403 64.118 679.925 64.442 680.735 64.712C679.871 65.162 678.665 65.936 678.665 67.124C678.665 68.546 680.429 69.266 682.229 69.266C684.677 69.266 686.675 67.88 686.675 66.242C686.675 64.748 685.037 64.298 683.597 63.938C681.905 63.524 681.113 63.362 681.113 63.038C681.113 62.84 681.401 62.624 681.779 62.372C681.959 62.408 682.157 62.408 682.373 62.408C684.119 62.408 685.973 61.454 685.973 59.672C685.973 58.952 685.631 58.466 685.379 58.178C685.595 58.214 685.847 58.232 686.045 58.232H687.017L686.891 56.81C686.891 56.81 686.351 56.99 685.811 56.99H684.875C683.975 56.99 683.507 56.648 682.517 56.648C680.699 56.648 679.061 57.674 679.061 59.492C679.061 60.59 679.655 61.544 680.681 62.048C680.015 62.426 679.403 62.966 679.403 63.56ZM682.571 65.18C684.083 65.576 684.929 65.81 684.929 66.512C684.929 67.322 683.777 67.97 682.337 67.97C681.311 67.97 680.267 67.646 680.267 66.836C680.267 66.026 681.257 65.486 682.031 65.054C682.211 65.09 682.391 65.126 682.571 65.18ZM682.499 61.148C681.347 61.148 680.807 60.32 680.807 59.546C680.807 58.7 681.419 57.908 682.499 57.908C683.651 57.908 684.209 58.844 684.209 59.636C684.209 60.554 683.489 61.148 682.499 61.148ZM688.563 65H690.345V59.762C690.885 59.222 692.055 58.196 692.955 58.196C693.567 58.196 693.927 58.628 693.927 59.78V65H695.709V59.132C695.709 57.386 694.827 56.648 693.531 56.648C692.037 56.648 690.885 57.656 690.345 58.232V52.13L688.563 52.418V65ZM702.899 62.786C702.899 64.46 703.817 65.216 705.221 65.216C706.661 65.216 707.723 64.352 707.723 64.352L707.273 63.002C707.057 63.128 706.301 63.722 705.617 63.722C705.023 63.722 704.681 63.326 704.681 62.336V58.214H707.255V56.864H704.681V54.56L702.935 54.938V56.792L701.693 57.242V58.214H702.899V62.786ZM708.712 60.968C708.712 63.128 710.17 65.216 712.87 65.216C715.804 65.216 717.1 62.75 717.1 60.77C717.1 58.682 715.642 56.648 712.942 56.648C710.026 56.648 708.712 58.934 708.712 60.968ZM710.566 60.806C710.566 59.186 711.52 58.07 712.906 58.07C714.562 58.07 715.246 59.564 715.246 61.004C715.246 62.642 714.292 63.794 712.924 63.794C711.304 63.794 710.566 62.318 710.566 60.806ZM542.692 86.786C542.692 88.46 543.61 89.216 545.014 89.216C546.454 89.216 547.516 88.352 547.516 88.352L547.066 87.002C546.85 87.128 546.094 87.722 545.41 87.722C544.816 87.722 544.474 87.326 544.474 86.336V82.214H547.048V80.864H544.474V78.56L542.728 78.938V80.792L541.486 81.242V82.214H542.692V86.786ZM548.379 87.128C548.379 88.334 549.297 89.216 550.719 89.216C552.303 89.216 553.131 88.208 553.347 87.866C553.581 88.514 554.103 89.036 555.345 89.126L555.885 87.722C555.885 87.722 554.985 87.704 554.985 86.696V83.258C554.985 81.44 554.373 80.648 552.447 80.648C550.305 80.648 548.919 81.674 548.919 81.674L549.387 83.006C549.387 83.006 550.629 82.07 551.961 82.07C553.275 82.07 553.203 82.97 553.203 83.996C550.161 84.392 548.379 85.418 548.379 87.128ZM551.169 87.812C550.647 87.812 550.215 87.578 550.215 87.002C550.215 86.048 551.133 85.454 553.203 85.148V86.552C552.663 87.182 551.997 87.812 551.169 87.812ZM557.676 89H559.458V85.148H559.71L562.95 89H565.236L561.276 84.428L564.984 80.864H562.662L559.71 83.834H559.458V76.13L557.676 76.418V89ZM565.679 85.058C565.679 87.236 567.065 89.216 569.783 89.216C571.817 89.216 573.059 88.046 573.059 88.046L572.555 86.75C572.555 86.75 571.421 87.758 570.053 87.758C568.631 87.758 567.731 86.804 567.533 85.328L571.979 84.734L573.005 84.446C573.005 81.98 571.601 80.648 569.657 80.648C567.281 80.648 565.679 82.574 565.679 85.058ZM569.531 82.034C570.953 82.034 571.061 83.69 571.061 83.69L567.533 84.14C567.695 82.952 568.379 82.034 569.531 82.034ZM578.809 85.04C578.809 87.398 580.447 89.216 582.985 89.216C584.929 89.216 585.865 88.172 585.865 88.172L585.289 86.912C585.289 86.912 584.407 87.758 583.111 87.758C581.581 87.758 580.663 86.552 580.663 84.95C580.663 83.294 581.653 82.088 583.129 82.088C584.317 82.088 585.163 82.844 585.163 82.844L585.865 81.512C585.865 81.512 584.875 80.648 583.093 80.648C580.411 80.648 578.809 82.79 578.809 85.04ZM586.966 84.968C586.966 87.128 588.424 89.216 591.124 89.216C594.058 89.216 595.354 86.75 595.354 84.77C595.354 82.682 593.896 80.648 591.196 80.648C588.28 80.648 586.966 82.934 586.966 84.968ZM588.82 84.806C588.82 83.186 589.774 82.07 591.16 82.07C592.816 82.07 593.5 83.564 593.5 85.004C593.5 86.642 592.546 87.794 591.178 87.794C589.558 87.794 588.82 86.318 588.82 84.806ZM597.279 89H599.061V83.726C599.619 83.186 600.771 82.196 601.671 82.196C602.283 82.196 602.643 82.628 602.643 83.78V89H604.425V83.132C604.425 81.386 603.543 80.648 602.265 80.648C600.771 80.648 599.601 81.638 599.025 82.268V80.72L597.279 81.008V89ZM606.284 88.496C606.284 88.496 607.292 89.216 608.984 89.216C610.982 89.216 612.152 88.226 612.152 86.75C612.152 84.158 608.246 84.284 608.246 82.862C608.246 82.394 608.642 82.052 609.542 82.052C610.586 82.052 611.522 82.556 611.522 82.556L611.936 81.098C611.936 81.098 611.036 80.648 609.614 80.648C607.364 80.648 606.464 81.746 606.464 83.006C606.464 85.562 610.37 85.454 610.37 86.912C610.37 87.434 609.92 87.812 608.966 87.812C607.652 87.812 606.662 86.984 606.662 86.984L606.284 88.496ZM615.002 78.92C615.65 78.92 616.136 78.452 616.136 77.822C616.136 77.192 615.65 76.724 615.002 76.724C614.372 76.724 613.886 77.192 613.886 77.822C613.886 78.452 614.372 78.92 615.002 78.92ZM614.102 89H615.884V80.864H614.102V89ZM617.85 88.496C617.85 88.496 618.858 89.216 620.55 89.216C622.548 89.216 623.718 88.226 623.718 86.75C623.718 84.158 619.812 84.284 619.812 82.862C619.812 82.394 620.208 82.052 621.108 82.052C622.152 82.052 623.088 82.556 623.088 82.556L623.502 81.098C623.502 81.098 622.602 80.648 621.18 80.648C618.93 80.648 618.03 81.746 618.03 83.006C618.03 85.562 621.936 85.454 621.936 86.912C621.936 87.434 621.486 87.812 620.532 87.812C619.218 87.812 618.228 86.984 618.228 86.984L617.85 88.496ZM626.1 86.786C626.1 88.46 627.018 89.216 628.422 89.216C629.862 89.216 630.924 88.352 630.924 88.352L630.474 87.002C630.258 87.128 629.502 87.722 628.818 87.722C628.224 87.722 627.882 87.326 627.882 86.336V82.214H630.456V80.864H627.882V78.56L626.136 78.938V80.792L624.894 81.242V82.214H626.1V86.786ZM631.931 85.058C631.931 87.236 633.317 89.216 636.035 89.216C638.069 89.216 639.311 88.046 639.311 88.046L638.807 86.75C638.807 86.75 637.673 87.758 636.305 87.758C634.883 87.758 633.983 86.804 633.785 85.328L638.231 84.734L639.257 84.446C639.257 81.98 637.853 80.648 635.909 80.648C633.533 80.648 631.931 82.574 631.931 85.058ZM635.783 82.034C637.205 82.034 637.313 83.69 637.313 83.69L633.785 84.14C633.947 82.952 634.631 82.034 635.783 82.034ZM641.259 89H643.041V83.726C643.599 83.186 644.751 82.196 645.651 82.196C646.263 82.196 646.623 82.628 646.623 83.78V89H648.405V83.132C648.405 81.386 647.523 80.648 646.245 80.648C644.751 80.648 643.581 81.638 643.005 82.268V80.72L641.259 81.008V89ZM651.272 86.786C651.272 88.46 652.19 89.216 653.594 89.216C655.034 89.216 656.096 88.352 656.096 88.352L655.646 87.002C655.43 87.128 654.674 87.722 653.99 87.722C653.396 87.722 653.054 87.326 653.054 86.336V82.214H655.628V80.864H653.054V78.56L651.308 78.938V80.792L650.066 81.242V82.214H651.272V86.786ZM661.283 87.128C661.283 88.334 662.201 89.216 663.623 89.216C665.207 89.216 666.035 88.208 666.251 87.866C666.485 88.514 667.007 89.036 668.249 89.126L668.789 87.722C668.789 87.722 667.889 87.704 667.889 86.696V83.258C667.889 81.44 667.277 80.648 665.351 80.648C663.209 80.648 661.823 81.674 661.823 81.674L662.291 83.006C662.291 83.006 663.533 82.07 664.865 82.07C666.179 82.07 666.107 82.97 666.107 83.996C663.065 84.392 661.283 85.418 661.283 87.128ZM664.073 87.812C663.551 87.812 663.119 87.578 663.119 87.002C663.119 86.048 664.037 85.454 666.107 85.148V86.552C665.567 87.182 664.901 87.812 664.073 87.812ZM670.022 85.04C670.022 87.398 671.66 89.216 674.198 89.216C676.142 89.216 677.078 88.172 677.078 88.172L676.502 86.912C676.502 86.912 675.62 87.758 674.324 87.758C672.794 87.758 671.876 86.552 671.876 84.95C671.876 83.294 672.866 82.088 674.342 82.088C675.53 82.088 676.376 82.844 676.376 82.844L677.078 81.512C677.078 81.512 676.088 80.648 674.306 80.648C671.624 80.648 670.022 82.79 670.022 85.04ZM679.309 86.786C679.309 88.46 680.227 89.216 681.631 89.216C683.071 89.216 684.133 88.352 684.133 88.352L683.683 87.002C683.467 87.128 682.711 87.722 682.027 87.722C681.433 87.722 681.091 87.326 681.091 86.336V82.214H683.665V80.864H681.091V78.56L679.345 78.938V80.792L678.103 81.242V82.214H679.309V86.786ZM686.58 78.92C687.228 78.92 687.714 78.452 687.714 77.822C687.714 77.192 687.228 76.724 686.58 76.724C685.95 76.724 685.464 77.192 685.464 77.822C685.464 78.452 685.95 78.92 686.58 78.92ZM685.68 89H687.462V80.864H685.68V89ZM689.446 84.968C689.446 87.128 690.904 89.216 693.604 89.216C696.538 89.216 697.834 86.75 697.834 84.77C697.834 82.682 696.376 80.648 693.676 80.648C690.76 80.648 689.446 82.934 689.446 84.968ZM691.3 84.806C691.3 83.186 692.254 82.07 693.64 82.07C695.296 82.07 695.98 83.564 695.98 85.004C695.98 86.642 695.026 87.794 693.658 87.794C692.038 87.794 691.3 86.318 691.3 84.806ZM699.759 89H701.541V83.726C702.099 83.186 703.251 82.196 704.151 82.196C704.763 82.196 705.123 82.628 705.123 83.78V89H706.905V83.132C706.905 81.386 706.023 80.648 704.745 80.648C703.251 80.648 702.081 81.638 701.505 82.268V80.72L699.759 81.008V89ZM708.764 88.496C708.764 88.496 709.772 89.216 711.464 89.216C713.462 89.216 714.632 88.226 714.632 86.75C714.632 84.158 710.726 84.284 710.726 82.862C710.726 82.394 711.122 82.052 712.022 82.052C713.066 82.052 714.002 82.556 714.002 82.556L714.416 81.098C714.416 81.098 713.516 80.648 712.094 80.648C709.844 80.648 708.944 81.746 708.944 83.006C708.944 85.562 712.85 85.454 712.85 86.912C712.85 87.434 712.4 87.812 711.446 87.812C710.132 87.812 709.142 86.984 709.142 86.984L708.764 88.496ZM721.338 86.786C721.338 88.46 722.256 89.216 723.66 89.216C725.1 89.216 726.162 88.352 726.162 88.352L725.712 87.002C725.496 87.128 724.74 87.722 724.056 87.722C723.462 87.722 723.12 87.326 723.12 86.336V82.214H725.694V80.864H723.12V78.56L721.374 78.938V80.792L720.132 81.242V82.214H721.338V86.786ZM727.151 84.968C727.151 87.128 728.609 89.216 731.309 89.216C734.243 89.216 735.539 86.75 735.539 84.77C735.539 82.682 734.081 80.648 731.381 80.648C728.465 80.648 727.151 82.934 727.151 84.968ZM729.005 84.806C729.005 83.186 729.959 82.07 731.345 82.07C733.001 82.07 733.685 83.564 733.685 85.004C733.685 86.642 732.731 87.794 731.363 87.794C729.743 87.794 729.005 86.318 729.005 84.806ZM542.224 112.82C542.836 112.964 544.222 113.216 545.194 113.216C548.272 113.216 549.748 111.02 549.748 108.644C549.748 106.412 548.452 104.648 546.202 104.648C545.086 104.648 544.42 105.098 544.006 105.566V100.13L542.224 100.418V112.82ZM545.914 106.088C547.102 106.088 547.912 107.078 547.912 108.77C547.912 110.786 546.778 111.866 545.23 111.866C544.564 111.866 544.006 111.686 544.006 111.686V106.934C544.384 106.592 545.068 106.088 545.914 106.088ZM551.212 109.058C551.212 111.236 552.598 113.216 555.316 113.216C557.35 113.216 558.592 112.046 558.592 112.046L558.088 110.75C558.088 110.75 556.954 111.758 555.586 111.758C554.164 111.758 553.264 110.804 553.066 109.328L557.512 108.734L558.538 108.446C558.538 105.98 557.134 104.648 555.19 104.648C552.814 104.648 551.212 106.574 551.212 109.058ZM555.064 106.034C556.486 106.034 556.594 107.69 556.594 107.69L553.066 108.14C553.228 106.952 553.912 106.034 555.064 106.034ZM561.008 110.786C561.008 112.46 561.926 113.216 563.33 113.216C564.77 113.216 565.832 112.352 565.832 112.352L565.382 111.002C565.166 111.128 564.41 111.722 563.726 111.722C563.132 111.722 562.79 111.326 562.79 110.336V106.214H565.364V104.864H562.79V102.56L561.044 102.938V104.792L559.802 105.242V106.214H561.008V110.786ZM567.811 110.786C567.811 112.46 568.729 113.216 570.133 113.216C571.573 113.216 572.635 112.352 572.635 112.352L572.185 111.002C571.969 111.128 571.213 111.722 570.529 111.722C569.935 111.722 569.593 111.326 569.593 110.336V106.214H572.167V104.864H569.593V102.56L567.847 102.938V104.792L566.605 105.242V106.214H567.811V110.786ZM573.642 109.058C573.642 111.236 575.028 113.216 577.746 113.216C579.78 113.216 581.022 112.046 581.022 112.046L580.518 110.75C580.518 110.75 579.384 111.758 578.016 111.758C576.594 111.758 575.694 110.804 575.496 109.328L579.942 108.734L580.968 108.446C580.968 105.98 579.564 104.648 577.62 104.648C575.244 104.648 573.642 106.574 573.642 109.058ZM577.494 106.034C578.916 106.034 579.024 107.69 579.024 107.69L575.496 108.14C575.658 106.952 576.342 106.034 577.494 106.034ZM582.97 113H584.752V107.96C585.094 107.42 585.832 106.448 586.732 106.448C587.092 106.448 587.452 106.592 587.452 106.592L587.812 104.792C587.812 104.792 587.56 104.648 587.11 104.648C585.868 104.648 585.04 105.8 584.716 106.358V104.72L582.97 105.008V113ZM593.552 113H595.334V107.708C595.856 107.186 596.972 106.196 597.854 106.196C598.448 106.196 598.772 106.628 598.772 107.78V113H600.554V107.672C601.166 107.078 602.174 106.196 603.002 106.196C603.596 106.196 603.938 106.628 603.938 107.78V113H605.702V107.132C605.702 105.386 604.856 104.648 603.596 104.648C602.174 104.648 601.058 105.602 600.464 106.25C600.212 105.134 599.474 104.648 598.448 104.648C597.008 104.648 595.856 105.638 595.298 106.25V104.72L593.552 105.008V113ZM607.171 115.844L607.729 117.266C609.637 117.05 610.825 115.34 611.527 113.612L615.055 104.864H613.219L611.113 110.444L608.971 104.864H607.081L610.231 112.586L609.799 113.558C609.313 114.692 608.359 115.646 607.171 115.844ZM620.834 113H622.616V107.762C623.156 107.222 624.326 106.196 625.226 106.196C625.838 106.196 626.198 106.628 626.198 107.78V113H627.98V107.132C627.98 105.386 627.098 104.648 625.802 104.648C624.308 104.648 623.156 105.656 622.616 106.232V100.13L620.834 100.418V113ZM629.874 109.058C629.874 111.236 631.26 113.216 633.978 113.216C636.012 113.216 637.254 112.046 637.254 112.046L636.75 110.75C636.75 110.75 635.616 111.758 634.248 111.758C632.826 111.758 631.926 110.804 631.728 109.328L636.174 108.734L637.2 108.446C637.2 105.98 635.796 104.648 633.852 104.648C631.476 104.648 629.874 106.574 629.874 109.058ZM633.726 106.034C635.148 106.034 635.256 107.69 635.256 107.69L631.728 108.14C631.89 106.952 632.574 106.034 633.726 106.034ZM638.555 111.128C638.555 112.334 639.473 113.216 640.895 113.216C642.479 113.216 643.307 112.208 643.523 111.866C643.757 112.514 644.279 113.036 645.521 113.126L646.061 111.722C646.061 111.722 645.161 111.704 645.161 110.696V107.258C645.161 105.44 644.549 104.648 642.623 104.648C640.481 104.648 639.095 105.674 639.095 105.674L639.563 107.006C639.563 107.006 640.805 106.07 642.137 106.07C643.451 106.07 643.379 106.97 643.379 107.996C640.337 108.392 638.555 109.418 638.555 111.128ZM641.345 111.812C640.823 111.812 640.391 111.578 640.391 111.002C640.391 110.048 641.309 109.454 643.379 109.148V110.552C642.839 111.182 642.173 111.812 641.345 111.812ZM647.852 113H649.634V100.13L647.852 100.418V113ZM652.608 110.786C652.608 112.46 653.526 113.216 654.93 113.216C656.37 113.216 657.432 112.352 657.432 112.352L656.982 111.002C656.766 111.128 656.01 111.722 655.326 111.722C654.732 111.722 654.39 111.326 654.39 110.336V106.214H656.964V104.864H654.39V102.56L652.644 102.938V104.792L651.402 105.242V106.214H652.608V110.786ZM658.979 113H660.761V107.762C661.301 107.222 662.471 106.196 663.371 106.196C663.983 106.196 664.343 106.628 664.343 107.78V113H666.125V107.132C666.125 105.386 665.243 104.648 663.947 104.648C662.453 104.648 661.301 105.656 660.761 106.232V100.13L658.979 100.418V113ZM668.289 112.01C668.289 112.676 668.829 113.216 669.495 113.216C670.161 113.216 670.719 112.676 670.719 112.01C670.719 111.326 670.161 110.786 669.495 110.786C668.829 110.786 668.289 111.326 668.289 112.01Z" fill="#333333"/>
<path d="M69.9609 271.696L69.9609 268.744C69.9609 264.406 67.8009 261.382 63.7689 261.382C59.5029 261.382 57.9549 264.784 57.9549 268.06L57.9549 271.696L69.9609 271.696ZM68.7189 270.22L59.1969 270.22L59.1969 268.312C59.1969 264.82 61.0509 262.966 63.9309 262.966C66.5949 262.966 68.7189 264.55 68.7189 268.924L68.7189 270.22ZM68.1429 259.945C69.3309 259.945 70.1769 259.063 70.1769 257.677C70.1769 256.039 69.0249 255.157 68.7729 254.995C69.4389 254.815 69.9609 254.383 70.0869 253.249L68.9529 252.781C68.9529 252.781 68.9349 253.681 67.8729 253.681L64.2189 253.681C62.4009 253.681 61.6449 254.257 61.6449 256.021C61.6449 258.037 62.6349 259.387 62.6349 259.387L63.7689 258.955C63.7689 258.955 62.8689 257.767 62.8689 256.417C62.8689 255.067 63.7689 255.085 64.7229 255.085L65.0289 255.085C65.4249 258.163 66.4689 259.945 68.1429 259.945ZM68.9529 257.389C68.9529 257.983 68.6829 258.451 68.0529 258.451C67.0089 258.451 66.4329 257.371 66.0549 255.085L67.5489 255.085C68.2149 255.661 68.9529 256.399 68.9529 257.389ZM67.8189 250.498C69.4749 250.498 70.1769 249.67 70.1769 248.392C70.1769 247.042 69.3489 246.052 69.3489 246.052L68.2149 246.394C68.2149 246.394 68.9529 247.258 68.9529 248.104C68.9529 248.716 68.5209 249.094 67.4409 249.094L62.9949 249.094L62.9949 246.466L61.8609 246.466L61.8609 249.094L59.6289 249.094L59.9709 250.498L61.7709 250.498L62.2389 251.65L62.9949 251.65L62.9949 250.498L67.8189 250.498ZM68.1429 245.056C69.3309 245.056 70.1769 244.174 70.1769 242.788C70.1769 241.15 69.0249 240.268 68.7729 240.106C69.4389 239.926 69.9609 239.494 70.0869 238.36L68.9529 237.892C68.9529 237.892 68.9349 238.792 67.8729 238.792L64.2189 238.792C62.4009 238.792 61.6449 239.368 61.6449 241.132C61.6449 243.148 62.6349 244.498 62.6349 244.498L63.7689 244.066C63.7689 244.066 62.8689 242.878 62.8689 241.528C62.8689 240.178 63.7689 240.196 64.7229 240.196L65.0289 240.196C65.4249 243.274 66.4689 245.056 68.1429 245.056ZM68.9529 242.5C68.9529 243.094 68.6829 243.562 68.0529 243.562C67.0089 243.562 66.4329 242.482 66.0549 240.196L67.5489 240.196C68.2149 240.772 68.9529 241.51 68.9529 242.5ZM69.9609 231.178L69.9609 229.702L64.9029 229.702L64.9029 227.776L69.9609 224.338L69.9609 222.592L64.5969 226.228C64.0749 225.04 62.9769 223.744 61.2309 223.744C59.5389 223.744 57.9549 224.932 57.9549 228.028L57.9549 231.178L69.9609 231.178ZM63.6609 229.702L59.1969 229.702L59.1969 228.298C59.1969 226.102 60.2409 225.328 61.3749 225.328C62.8689 225.328 63.6609 226.66 63.6609 227.812L63.6609 229.702ZM66.0909 221.761C68.2149 221.761 70.1769 220.429 70.1769 217.747C70.1769 215.803 69.0069 214.633 69.0069 214.633L67.9269 215.047C67.9269 215.047 68.9529 216.199 68.9529 217.585C68.9529 219.169 67.8189 220.141 66.1449 220.267L65.5149 215.497L65.2629 214.633C62.9409 214.633 61.6449 216.001 61.6449 217.873C61.6449 220.177 63.5529 221.761 66.0909 221.761ZM62.8149 217.963C62.8149 216.343 64.5429 216.181 64.5429 216.181L65.0649 220.249C63.8049 220.051 62.8149 219.259 62.8149 217.963ZM68.1429 213.152C69.3309 213.152 70.1769 212.27 70.1769 210.884C70.1769 209.246 69.0249 208.364 68.7729 208.202C69.4389 208.022 69.9609 207.59 70.0869 206.456L68.9529 205.988C68.9529 205.988 68.9349 206.888 67.8729 206.888L64.2189 206.888C62.4009 206.888 61.6449 207.464 61.6449 209.228C61.6449 211.244 62.6349 212.594 62.6349 212.594L63.7689 212.162C63.7689 212.162 62.8689 210.974 62.8689 209.624C62.8689 208.274 63.7689 208.292 64.7229 208.292L65.0289 208.292C65.4249 211.37 66.4689 213.152 68.1429 213.152ZM68.9529 210.596C68.9529 211.19 68.6829 211.658 68.0529 211.658C67.0089 211.658 66.4329 210.578 66.0549 208.292L67.5489 208.292C68.2149 208.868 68.9529 209.606 68.9529 210.596ZM66.1809 204.552C68.4129 204.552 70.1769 203.184 70.1769 201.078C70.1769 199.782 69.5109 198.9 68.7909 198.45C69.3489 198.36 70.0869 198.198 70.0869 198.198L69.9609 196.812C69.9609 196.812 68.4489 197.172 67.4589 197.172L57.1089 197.172L57.3609 198.576L61.9329 198.576C61.8429 198.792 61.6449 199.332 61.6449 200.142C61.6449 203.04 63.8409 204.552 66.1809 204.552ZM68.9529 200.898C68.9529 202.122 67.8909 203.058 66.0909 203.058C64.0209 203.058 62.8329 201.852 62.8329 200.124C62.8329 199.35 63.0849 198.612 63.9849 198.576L67.4769 198.576C67.8189 198.792 68.9529 199.62 68.9529 200.898ZM59.8089 193.677C59.8089 193.137 59.3769 192.705 58.8369 192.705C58.2969 192.705 57.8649 193.137 57.8649 193.677C57.8649 194.217 58.2969 194.649 58.8369 194.649C59.3769 194.649 59.8089 194.217 59.8089 193.677ZM69.9609 194.397L69.9609 192.993L61.8609 192.993L61.8609 194.397L69.9609 194.397ZM69.9609 190.284L69.9609 188.88L64.6149 188.88C64.1109 188.358 62.8869 186.972 62.8869 185.91C62.8869 185.298 63.2649 184.812 64.4709 184.812L69.9609 184.812L69.9609 183.408L64.0749 183.408C62.3289 183.408 61.6449 184.326 61.6449 185.532C61.6449 187.098 62.7789 188.358 63.3189 188.88L61.7349 188.88L61.9869 190.284L69.9609 190.284ZM68.5029 180.846C69.0429 180.846 69.3669 180.288 69.6009 179.496C70.0689 180.414 70.8249 181.602 72.0669 181.602C73.5069 181.602 74.2269 179.892 74.2269 178.146C74.2269 175.842 72.8949 173.826 71.2389 173.826C69.7629 173.826 69.3309 175.41 68.9889 176.958C68.6469 178.488 68.4669 179.334 68.1249 179.334C67.8909 179.334 67.6389 178.992 67.3689 178.614C67.4049 178.416 67.4229 178.2 67.4229 177.966C67.4229 176.346 66.5049 174.528 64.6149 174.528C63.8229 174.528 63.2649 174.924 63.0309 175.14C63.0489 174.96 63.0669 174.708 63.0669 174.474L63.0669 173.448L61.8069 173.574C61.8069 173.574 61.9869 174.114 61.9869 174.636L61.9869 175.5C61.9869 176.382 61.6449 176.886 61.6449 177.822C61.6449 179.586 62.6889 181.17 64.4709 181.17C65.6049 181.17 66.5589 180.576 67.0629 179.604C67.4049 180.18 67.9269 180.846 68.5029 180.846ZM71.8689 180.306C70.9689 180.306 70.4289 179.28 69.9069 178.326C69.9609 178.02 70.0149 177.732 70.0869 177.426C70.3569 176.202 70.6449 175.266 71.4369 175.266C72.3369 175.266 73.1469 176.508 73.1469 178.038C73.1469 178.992 72.8409 180.306 71.8689 180.306ZM66.3429 177.84C66.3429 179.136 65.4609 179.73 64.5609 179.73C63.5349 179.73 62.7249 179.028 62.7249 177.876C62.7249 176.598 63.7689 175.968 64.6869 175.968C65.7489 175.968 66.3429 176.778 66.3429 177.84Z" fill="black"/>
<path d="M6 0V370H502V0" stroke="#BDBDBD" stroke-width="12"/>
<path d="M502 0V370H998V0" stroke="#BDBDBD" stroke-width="12"/>
<path d="M91.1673 432H97.9193C102.207 432 105.215 429.568 105.215 425.792C105.215 422.272 102.591 420.96 101.375 420.544C102.495 419.68 103.967 418.08 103.967 415.776C103.967 413.312 102.239 410.656 96.7353 410.656H91.1673V432ZM93.7913 429.792V422.112H97.4392C100.895 422.112 102.399 423.712 102.399 425.984C102.399 428.256 100.863 429.792 97.4392 429.792H93.7913ZM93.7913 412.864H96.2552C100.095 412.864 101.151 414.272 101.151 416.032C101.151 418.656 98.7513 419.904 98.7513 419.904H93.7913V412.864ZM108.896 428.064C108.896 431.168 110.432 432.384 112.8 432.384C115.52 432.384 117.632 430.528 118.496 429.6C118.624 430.624 118.976 432.224 118.976 432.224L121.44 432C121.44 432 120.8 429.312 120.8 427.552V417.6H118.304V427.488C117.344 428.448 115.296 430.176 113.44 430.176C112.288 430.176 111.392 429.568 111.392 427.36V417.6H108.896V428.064ZM126.993 413.952C127.953 413.952 128.721 413.184 128.721 412.224C128.721 411.264 127.953 410.496 126.993 410.496C126.033 410.496 125.265 411.264 125.265 412.224C125.265 413.184 126.033 413.952 126.993 413.952ZM125.713 432H128.209V417.6H125.713V432ZM133.088 432H135.584V409.152L133.088 409.6V432ZM139.471 425.28C139.471 429.248 141.903 432.384 145.647 432.384C147.951 432.384 149.519 431.2 150.319 429.92C150.479 430.912 150.767 432.224 150.767 432.224L153.231 432C153.231 432 152.591 429.312 152.591 427.552V409.152L150.095 409.6V417.728C149.711 417.568 148.751 417.216 147.311 417.216C142.159 417.216 139.471 421.12 139.471 425.28ZM145.967 430.208C143.791 430.208 142.127 428.32 142.127 425.12C142.127 421.44 144.271 419.328 147.343 419.328C148.719 419.328 150.031 419.776 150.095 421.376V427.584C149.711 428.192 148.239 430.208 145.967 430.208ZM165.213 432H167.709V422.464C168.669 421.568 171.101 419.424 172.957 419.424C174.045 419.424 174.909 420.096 174.909 422.24V432H177.405V421.536C177.405 418.432 175.773 417.216 173.629 417.216C170.877 417.216 168.637 419.168 167.709 420.16V409.152L165.213 409.6V432ZM181.096 424.864C181.096 428.672 183.688 432.384 188.135 432.384C192.968 432.384 195.336 428.032 195.336 424.512C195.336 420.8 192.744 417.216 188.264 417.216C183.496 417.216 181.096 421.28 181.096 424.864ZM183.72 424.576C183.72 421.472 185.48 419.392 188.2 419.392C191.432 419.392 192.712 422.176 192.712 424.928C192.712 428.032 190.952 430.208 188.232 430.208C185.096 430.208 183.72 427.392 183.72 424.576ZM199.118 439.424L201.614 438.976V431.488C202.19 431.936 203.31 432.384 204.846 432.384C209.262 432.384 212.078 428.736 212.078 424.384C212.078 420.416 209.742 417.216 205.966 417.216C203.694 417.216 202.222 418.4 201.55 419.616V417.376L199.118 417.824V439.424ZM205.646 419.456C207.822 419.456 209.422 421.344 209.422 424.576C209.422 428.16 207.438 430.272 204.334 430.272C202.702 430.272 201.614 429.696 201.614 428.384V421.92C201.966 421.408 203.438 419.456 205.646 419.456ZM214.971 425.12C214.971 428.896 217.339 432.384 222.107 432.384C225.563 432.384 227.643 430.304 227.643 430.304L226.907 428.384C226.907 428.384 224.859 430.208 222.395 430.208C219.579 430.208 217.851 428.192 217.627 425.216L226.107 424.096L227.643 423.648C227.643 419.52 225.211 417.216 221.883 417.216C217.787 417.216 214.971 420.608 214.971 425.12ZM221.723 419.296C224.603 419.296 224.891 422.368 224.891 422.368L217.659 423.296C218.011 421.056 219.419 419.296 221.723 419.296ZM240.525 413.952C241.485 413.952 242.253 413.184 242.253 412.224C242.253 411.264 241.485 410.496 240.525 410.496C239.565 410.496 238.797 411.264 238.797 412.224C238.797 413.184 239.565 413.952 240.525 413.952ZM239.245 432H241.741V417.6H239.245V432ZM246.556 432H249.052V422.496C249.98 421.6 252.444 419.424 254.332 419.424C255.42 419.424 256.284 420.096 256.284 422.24V432H258.78V421.536C258.78 418.432 257.148 417.216 255.004 417.216C252.22 417.216 249.98 419.232 249.052 420.192V417.376L246.556 417.824V432ZM271.822 428.192C271.822 431.136 273.294 432.384 275.566 432.384C277.966 432.384 279.726 430.912 279.726 430.912L279.118 428.896C279.118 428.896 277.582 430.208 276.078 430.208C274.99 430.208 274.318 429.44 274.318 427.52V419.616H278.99V417.6H274.318V413.632L271.822 414.24V417.44L269.774 418.272V419.616H271.822V428.192ZM282.776 432H285.272V422.464C286.232 421.568 288.664 419.424 290.52 419.424C291.608 419.424 292.472 420.096 292.472 422.24V432H294.968V421.536C294.968 418.432 293.336 417.216 291.192 417.216C288.44 417.216 286.2 419.168 285.272 420.16V409.152L282.776 409.6V432ZM298.69 425.12C298.69 428.896 301.058 432.384 305.826 432.384C309.282 432.384 311.362 430.304 311.362 430.304L310.626 428.384C310.626 428.384 308.578 430.208 306.114 430.208C303.298 430.208 301.57 428.192 301.346 425.216L309.826 424.096L311.362 423.648C311.362 419.52 308.93 417.216 305.602 417.216C301.506 417.216 298.69 420.608 298.69 425.12ZM305.442 419.296C308.322 419.296 308.61 422.368 308.61 422.368L301.378 423.296C301.73 421.056 303.138 419.296 305.442 419.296ZM322.899 439.424L325.395 438.976V431.488C325.971 431.936 327.091 432.384 328.627 432.384C333.043 432.384 335.859 428.736 335.859 424.384C335.859 420.416 333.523 417.216 329.747 417.216C327.475 417.216 326.003 418.4 325.331 419.616V417.376L322.899 417.824V439.424ZM329.427 419.456C331.603 419.456 333.203 421.344 333.203 424.576C333.203 428.16 331.219 430.272 328.115 430.272C326.483 430.272 325.395 429.696 325.395 428.384V421.92C325.747 421.408 327.219 419.456 329.427 419.456ZM339.681 432H342.177V422.88C342.753 421.888 344.097 419.936 345.76 419.936C346.337 419.936 346.977 420.192 346.977 420.192L347.617 417.504C347.617 417.504 347.169 417.216 346.369 417.216C344.193 417.216 342.721 419.264 342.177 420.224V417.376L339.681 417.824V432ZM349.19 425.12C349.19 428.896 351.558 432.384 356.326 432.384C359.782 432.384 361.862 430.304 361.862 430.304L361.126 428.384C361.126 428.384 359.078 430.208 356.614 430.208C353.798 430.208 352.07 428.192 351.846 425.216L360.326 424.096L361.862 423.648C361.862 419.52 359.43 417.216 356.102 417.216C352.006 417.216 349.19 420.608 349.19 425.12ZM355.942 419.296C358.822 419.296 359.11 422.368 359.11 422.368L351.878 423.296C352.23 421.056 353.638 419.296 355.942 419.296ZM364.688 431.104C364.688 431.104 366.384 432.384 369.296 432.384C372.56 432.384 374.576 430.784 374.576 428.224C374.576 423.456 367.504 423.936 367.504 420.992C367.504 420 368.304 419.296 370.032 419.296C371.824 419.296 373.552 420.128 373.552 420.128L374.224 418.016C374.224 418.016 372.656 417.216 370.224 417.216C366.544 417.216 364.976 419.008 364.976 421.184C364.976 425.792 372.048 425.344 372.048 428.416C372.048 429.536 371.152 430.304 369.36 430.304C367.056 430.304 365.232 428.896 365.232 428.896L364.688 431.104ZM377.346 425.12C377.346 428.896 379.714 432.384 384.482 432.384C387.938 432.384 390.018 430.304 390.018 430.304L389.282 428.384C389.282 428.384 387.234 430.208 384.77 430.208C381.954 430.208 380.226 428.192 380.002 425.216L388.482 424.096L390.018 423.648C390.018 419.52 387.586 417.216 384.258 417.216C380.162 417.216 377.346 420.608 377.346 425.12ZM384.098 419.296C386.978 419.296 387.266 422.368 387.266 422.368L380.034 423.296C380.386 421.056 381.794 419.296 384.098 419.296ZM393.868 432H396.364V422.496C397.292 421.6 399.756 419.424 401.644 419.424C402.732 419.424 403.596 420.096 403.596 422.24V432H406.092V421.536C406.092 418.432 404.46 417.216 402.316 417.216C399.532 417.216 397.292 419.232 396.364 420.192V417.376L393.868 417.824V432ZM411.447 428.192C411.447 431.136 412.919 432.384 415.191 432.384C417.591 432.384 419.351 430.912 419.351 430.912L418.743 428.896C418.743 428.896 417.207 430.208 415.703 430.208C414.615 430.208 413.943 429.44 413.943 427.52V419.616H418.615V417.6H413.943V413.632L411.447 414.24V417.44L409.399 418.272V419.616H411.447V428.192Z" fill="black"/>
<path d="M589.355 432H596.107C600.395 432 603.403 429.568 603.403 425.792C603.403 422.272 600.779 420.96 599.563 420.544C600.683 419.68 602.155 418.08 602.155 415.776C602.155 413.312 600.427 410.656 594.923 410.656H589.355V432ZM591.979 429.792V422.112H595.627C599.083 422.112 600.587 423.712 600.587 425.984C600.587 428.256 599.051 429.792 595.627 429.792H591.979ZM591.979 412.864H594.443C598.283 412.864 599.339 414.272 599.339 416.032C599.339 418.656 596.939 419.904 596.939 419.904H591.979V412.864ZM607.084 428.064C607.084 431.168 608.62 432.384 610.988 432.384C613.708 432.384 615.82 430.528 616.684 429.6C616.812 430.624 617.164 432.224 617.164 432.224L619.628 432C619.628 432 618.988 429.312 618.988 427.552V417.6H616.492V427.488C615.532 428.448 613.484 430.176 611.628 430.176C610.476 430.176 609.58 429.568 609.58 427.36V417.6H607.084V428.064ZM625.181 413.952C626.141 413.952 626.909 413.184 626.909 412.224C626.909 411.264 626.141 410.496 625.181 410.496C624.221 410.496 623.453 411.264 623.453 412.224C623.453 413.184 624.221 413.952 625.181 413.952ZM623.901 432H626.397V417.6H623.901V432ZM631.276 432H633.772V409.152L631.276 409.6V432ZM637.659 425.28C637.659 429.248 640.091 432.384 643.835 432.384C646.139 432.384 647.707 431.2 648.507 429.92C648.667 430.912 648.955 432.224 648.955 432.224L651.419 432C651.419 432 650.779 429.312 650.779 427.552V409.152L648.283 409.6V417.728C647.899 417.568 646.939 417.216 645.499 417.216C640.347 417.216 637.659 421.12 637.659 425.28ZM644.155 430.208C641.979 430.208 640.315 428.32 640.315 425.12C640.315 421.44 642.459 419.328 645.531 419.328C646.907 419.328 648.219 419.776 648.283 421.376V427.584C647.899 428.192 646.427 430.208 644.155 430.208ZM663.401 432H665.897V422.464C666.857 421.568 669.289 419.424 671.145 419.424C672.233 419.424 673.097 420.096 673.097 422.24V432H675.593V421.536C675.593 418.432 673.961 417.216 671.817 417.216C669.065 417.216 666.825 419.168 665.897 420.16V409.152L663.401 409.6V432ZM679.283 424.864C679.283 428.672 681.875 432.384 686.323 432.384C691.155 432.384 693.523 428.032 693.523 424.512C693.523 420.8 690.931 417.216 686.451 417.216C681.683 417.216 679.283 421.28 679.283 424.864ZM681.907 424.576C681.907 421.472 683.667 419.392 686.387 419.392C689.619 419.392 690.899 422.176 690.899 424.928C690.899 428.032 689.139 430.208 686.419 430.208C683.283 430.208 681.907 427.392 681.907 424.576ZM697.306 439.424L699.802 438.976V431.488C700.378 431.936 701.498 432.384 703.034 432.384C707.45 432.384 710.266 428.736 710.266 424.384C710.266 420.416 707.93 417.216 704.154 417.216C701.882 417.216 700.41 418.4 699.738 419.616V417.376L697.306 417.824V439.424ZM703.834 419.456C706.01 419.456 707.61 421.344 707.61 424.576C707.61 428.16 705.626 430.272 702.522 430.272C700.89 430.272 699.802 429.696 699.802 428.384V421.92C700.154 421.408 701.626 419.456 703.834 419.456ZM713.159 425.12C713.159 428.896 715.527 432.384 720.295 432.384C723.751 432.384 725.831 430.304 725.831 430.304L725.095 428.384C725.095 428.384 723.047 430.208 720.583 430.208C717.767 430.208 716.039 428.192 715.815 425.216L724.295 424.096L725.831 423.648C725.831 419.52 723.399 417.216 720.071 417.216C715.975 417.216 713.159 420.608 713.159 425.12ZM719.911 419.296C722.791 419.296 723.079 422.368 723.079 422.368L715.847 423.296C716.199 421.056 717.607 419.296 719.911 419.296ZM735.896 419.616H738.168V432H740.664V419.616H744.728V417.6H740.664V415.776C740.664 412.16 742.296 410.88 744.056 410.88C745.56 410.88 747 411.904 747 411.904L748.152 409.92C748.152 409.92 746.52 408.704 744.12 408.704C740.536 408.704 738.168 411.296 738.168 415.904V417.44L735.896 418.304V419.616ZM746.627 424.864C746.627 428.672 749.219 432.384 753.667 432.384C758.499 432.384 760.867 428.032 760.867 424.512C760.867 420.8 758.275 417.216 753.795 417.216C749.027 417.216 746.627 421.28 746.627 424.864ZM749.251 424.576C749.251 421.472 751.011 419.392 753.731 419.392C756.963 419.392 758.243 422.176 758.243 424.928C758.243 428.032 756.483 430.208 753.763 430.208C750.627 430.208 749.251 427.392 749.251 424.576ZM764.649 432H767.145V422.88C767.721 421.888 769.065 419.936 770.729 419.936C771.305 419.936 771.945 420.192 771.945 420.192L772.585 417.504C772.585 417.504 772.137 417.216 771.337 417.216C769.161 417.216 767.689 419.264 767.145 420.224V417.376L764.649 417.824V432ZM783.728 428.192C783.728 431.136 785.2 432.384 787.472 432.384C789.872 432.384 791.632 430.912 791.632 430.912L791.024 428.896C791.024 428.896 789.488 430.208 787.984 430.208C786.896 430.208 786.224 429.44 786.224 427.52V419.616H790.896V417.6H786.224V413.632L783.728 414.24V417.44L781.68 418.272V419.616H783.728V428.192ZM794.682 432H797.178V422.464C798.138 421.568 800.57 419.424 802.426 419.424C803.514 419.424 804.378 420.096 804.378 422.24V432H806.874V421.536C806.874 418.432 805.242 417.216 803.098 417.216C800.346 417.216 798.106 419.168 797.178 420.16V409.152L794.682 409.6V432ZM810.596 425.12C810.596 428.896 812.964 432.384 817.732 432.384C821.188 432.384 823.268 430.304 823.268 430.304L822.532 428.384C822.532 428.384 820.484 430.208 818.02 430.208C815.204 430.208 813.476 428.192 813.252 425.216L821.732 424.096L823.268 423.648C823.268 419.52 820.836 417.216 817.508 417.216C813.412 417.216 810.596 420.608 810.596 425.12ZM817.348 419.296C820.228 419.296 820.516 422.368 820.516 422.368L813.284 423.296C813.636 421.056 815.044 419.296 817.348 419.296ZM833.334 419.616H835.606V432H838.102V419.616H842.166V417.6H838.102V415.776C838.102 412.16 839.734 410.88 841.494 410.88C842.998 410.88 844.438 411.904 844.438 411.904L845.59 409.92C845.59 409.92 843.958 408.704 841.558 408.704C837.974 408.704 835.606 411.296 835.606 415.904V417.44L833.334 418.304V419.616ZM845.146 428.064C845.146 431.168 846.682 432.384 849.05 432.384C851.77 432.384 853.882 430.528 854.746 429.6C854.874 430.624 855.226 432.224 855.226 432.224L857.69 432C857.69 432 857.05 429.312 857.05 427.552V417.6H854.554V427.488C853.594 428.448 851.546 430.176 849.69 430.176C848.538 430.176 847.642 429.568 847.642 427.36V417.6H845.146V428.064ZM862.603 428.192C862.603 431.136 864.075 432.384 866.347 432.384C868.747 432.384 870.507 430.912 870.507 430.912L869.899 428.896C869.899 428.896 868.363 430.208 866.859 430.208C865.771 430.208 865.099 429.44 865.099 427.52V419.616H869.771V417.6H865.099V413.632L862.603 414.24V417.44L860.555 418.272V419.616H862.603V428.192ZM873.365 428.064C873.365 431.168 874.901 432.384 877.269 432.384C879.989 432.384 882.101 430.528 882.965 429.6C883.093 430.624 883.445 432.224 883.445 432.224L885.909 432C885.909 432 885.269 429.312 885.269 427.552V417.6H882.773V427.488C881.813 428.448 879.765 430.176 877.909 430.176C876.757 430.176 875.861 429.568 875.861 427.36V417.6H873.365V428.064ZM890.118 432H892.614V422.88C893.19 421.888 894.534 419.936 896.198 419.936C896.774 419.936 897.414 420.192 897.414 420.192L898.054 417.504C898.054 417.504 897.606 417.216 896.806 417.216C894.63 417.216 893.158 419.264 892.614 420.224V417.376L890.118 417.824V432ZM899.628 425.12C899.628 428.896 901.996 432.384 906.764 432.384C910.22 432.384 912.3 430.304 912.3 430.304L911.564 428.384C911.564 428.384 909.516 430.208 907.052 430.208C904.236 430.208 902.508 428.192 902.284 425.216L910.764 424.096L912.3 423.648C912.3 419.52 909.868 417.216 906.54 417.216C902.444 417.216 899.628 420.608 899.628 425.12ZM906.38 419.296C909.26 419.296 909.548 422.368 909.548 422.368L902.316 423.296C902.668 421.056 904.076 419.296 906.38 419.296Z" fill="black"/>
</svg>
