<svg width="1078" height="412" viewBox="0 0 1078 412" fill="none" xmlns="http://www.w3.org/2000/svg">
<rect x="1" y="1" width="1076" height="410" fill="#FAFAFA" stroke="#BDBDBD" stroke-width="2"/>
<path d="M40 371.495V148.99H267.14V371.495" stroke="#828282" stroke-width="4"/>
<path d="M549.906 371.495V148.99H777.046V371.495" stroke="#828282" stroke-width="4"/>
<path d="M294.953 371.495V148.99H522.093V371.495" stroke="#828282" stroke-width="4"/>
<path d="M804.859 371.495V148.99H1032V371.495" stroke="#828282" stroke-width="4"/>
<rect x="49" y="161" width="45" height="160" fill="#EDE3E4"/>
<rect x="559" y="161" width="45" height="173" fill="#EFE8DF"/>
<rect x="304" y="161" width="45" height="173" fill="#D9DFE9"/>
<rect x="814" y="161" width="45" height="142" fill="#DFDDE2"/>
<rect x="103.738" y="160.579" width="45.1963" height="202.804" fill="#EDE3E4"/>
<rect x="614" y="161" width="45" height="142" fill="#EFE8DF"/>
<rect x="359" y="161" width="45" height="142" fill="#D9DFE9"/>
<rect x="869" y="161" width="45" height="173" fill="#DFDDE2"/>
<rect x="213" y="161" width="45" height="160" fill="#EDE3E4"/>
<rect x="723" y="161" width="45" height="152" fill="#EFE8DF"/>
<rect x="468" y="161" width="45" height="173" fill="#D9DFE9"/>
<rect x="978" y="161" width="45" height="142" fill="#DFDDE2"/>
<rect x="158" y="161" width="45" height="202" fill="#EDE3E4"/>
<rect x="668" y="161" width="45" height="173" fill="#EFE8DF"/>
<rect x="413" y="161" width="45" height="142" fill="#D9DFE9"/>
<rect x="923" y="161" width="45" height="160" fill="#DFDDE2"/>
<path d="M76 270.09L76 267.138C76 262.8 73.84 259.776 69.808 259.776C65.542 259.776 63.994 263.178 63.994 266.454L63.994 270.09L76 270.09ZM74.758 268.614L65.236 268.614L65.236 266.706C65.236 263.214 67.09 261.36 69.97 261.36C72.634 261.36 74.758 262.944 74.758 267.318L74.758 268.614ZM74.182 258.338C75.37 258.338 76.216 257.456 76.216 256.07C76.216 254.432 75.064 253.55 74.812 253.388C75.478 253.208 76 252.776 76.126 251.642L74.992 251.174C74.992 251.174 74.974 252.074 73.912 252.074L70.258 252.074C68.44 252.074 67.684 252.65 67.684 254.414C67.684 256.43 68.674 257.78 68.674 257.78L69.808 257.348C69.808 257.348 68.908 256.16 68.908 254.81C68.908 253.46 69.808 253.478 70.762 253.478L71.068 253.478C71.464 256.556 72.508 258.338 74.182 258.338ZM74.992 255.782C74.992 256.376 74.722 256.844 74.092 256.844C73.048 256.844 72.472 255.764 72.094 253.478L73.588 253.478C74.254 254.054 74.992 254.792 74.992 255.782ZM73.858 248.891C75.514 248.891 76.216 248.063 76.216 246.785C76.216 245.435 75.388 244.445 75.388 244.445L74.254 244.787C74.254 244.787 74.992 245.651 74.992 246.497C74.992 247.109 74.56 247.487 73.48 247.487L69.034 247.487L69.034 244.859L67.9 244.859L67.9 247.487L65.668 247.487L66.01 248.891L67.81 248.891L68.278 250.043L69.034 250.043L69.034 248.891L73.858 248.891ZM74.182 243.45C75.37 243.45 76.216 242.568 76.216 241.182C76.216 239.544 75.064 238.662 74.812 238.5C75.478 238.32 76 237.888 76.126 236.754L74.992 236.286C74.992 236.286 74.974 237.186 73.912 237.186L70.258 237.186C68.44 237.186 67.684 237.762 67.684 239.526C67.684 241.542 68.674 242.892 68.674 242.892L69.808 242.46C69.808 242.46 68.908 241.272 68.908 239.922C68.908 238.572 69.808 238.59 70.762 238.59L71.068 238.59C71.464 241.668 72.508 243.45 74.182 243.45ZM74.992 240.894C74.992 241.488 74.722 241.956 74.092 241.956C73.048 241.956 72.472 240.876 72.094 238.59L73.588 238.59C74.254 239.166 74.992 239.904 74.992 240.894ZM76 230.004L76 228.6L70.87 228.6C70.312 228.276 69.214 227.52 69.214 226.584C69.214 226.26 69.358 225.9 69.358 225.9L67.846 225.54C67.846 225.54 67.684 225.792 67.684 226.242C67.684 227.466 68.836 228.294 69.376 228.6L67.774 228.6L68.026 230.004L76 230.004ZM72.13 224.655C74.254 224.655 76.216 223.323 76.216 220.641C76.216 218.697 75.046 217.527 75.046 217.527L73.966 217.941C73.966 217.941 74.992 219.093 74.992 220.479C74.992 222.063 73.858 223.035 72.184 223.161L71.554 218.391L71.302 217.527C68.98 217.527 67.684 218.895 67.684 220.767C67.684 223.071 69.592 224.655 72.13 224.655ZM68.854 220.857C68.854 219.237 70.582 219.075 70.582 219.075L71.104 223.143C69.844 222.945 68.854 222.153 68.854 220.857ZM74.182 216.045C75.37 216.045 76.216 215.163 76.216 213.777C76.216 212.139 75.064 211.257 74.812 211.095C75.478 210.915 76 210.483 76.126 209.349L74.992 208.881C74.992 208.881 74.974 209.781 73.912 209.781L70.258 209.781C68.44 209.781 67.684 210.357 67.684 212.121C67.684 214.137 68.674 215.487 68.674 215.487L69.808 215.055C69.808 215.055 68.908 213.867 68.908 212.517C68.908 211.167 69.808 211.185 70.762 211.185L71.068 211.185C71.464 214.263 72.508 216.045 74.182 216.045ZM74.992 213.489C74.992 214.083 74.722 214.551 74.092 214.551C73.048 214.551 72.472 213.471 72.094 211.185L73.588 211.185C74.254 211.761 74.992 212.499 74.992 213.489ZM72.22 207.446C74.452 207.446 76.216 206.078 76.216 203.972C76.216 202.676 75.55 201.794 74.83 201.344C75.388 201.254 76.126 201.092 76.126 201.092L76 199.706C76 199.706 74.488 200.066 73.498 200.066L63.148 200.066L63.4 201.47L67.972 201.47C67.882 201.686 67.684 202.226 67.684 203.036C67.684 205.934 69.88 207.446 72.22 207.446ZM74.992 203.792C74.992 205.016 73.93 205.952 72.13 205.952C70.06 205.952 68.872 204.746 68.872 203.018C68.872 202.244 69.124 201.506 70.024 201.47L73.516 201.47C73.858 201.686 74.992 202.514 74.992 203.792ZM65.848 196.57C65.848 196.03 65.416 195.598 64.876 195.598C64.336 195.598 63.904 196.03 63.904 196.57C63.904 197.11 64.336 197.542 64.876 197.542C65.416 197.542 65.848 197.11 65.848 196.57ZM76 197.29L76 195.886L67.9 195.886L67.9 197.29L76 197.29ZM76 193.178L76 191.774L70.654 191.774C70.15 191.252 68.926 189.866 68.926 188.804C68.926 188.192 69.304 187.706 70.51 187.706L76 187.706L76 186.302L70.114 186.302C68.368 186.302 67.684 187.22 67.684 188.426C67.684 189.992 68.818 191.252 69.358 191.774L67.774 191.774L68.026 193.178L76 193.178ZM74.542 183.74C75.082 183.74 75.406 183.182 75.64 182.39C76.108 183.308 76.864 184.496 78.106 184.496C79.546 184.496 80.266 182.786 80.266 181.04C80.266 178.736 78.934 176.72 77.278 176.72C75.802 176.72 75.37 178.304 75.028 179.852C74.686 181.382 74.506 182.228 74.164 182.228C73.93 182.228 73.678 181.886 73.408 181.508C73.444 181.31 73.462 181.094 73.462 180.86C73.462 179.24 72.544 177.422 70.654 177.422C69.862 177.422 69.304 177.818 69.07 178.034C69.088 177.854 69.106 177.602 69.106 177.368L69.106 176.342L67.846 176.468C67.846 176.468 68.026 177.008 68.026 177.53L68.026 178.394C68.026 179.276 67.684 179.78 67.684 180.716C67.684 182.48 68.728 184.064 70.51 184.064C71.644 184.064 72.598 183.47 73.102 182.498C73.444 183.074 73.966 183.74 74.542 183.74ZM77.908 183.2C77.008 183.2 76.468 182.174 75.946 181.22C76 180.914 76.054 180.626 76.126 180.32C76.396 179.096 76.684 178.16 77.476 178.16C78.376 178.16 79.186 179.402 79.186 180.932C79.186 181.886 78.88 183.2 77.908 183.2ZM72.382 180.734C72.382 182.03 71.5 182.624 70.6 182.624C69.574 182.624 68.764 181.922 68.764 180.77C68.764 179.492 69.808 178.862 70.726 178.862C71.788 178.862 72.382 179.672 72.382 180.734Z" fill="black"/>
<path d="M54.456 62.11H56.634L61.892 47.326H59.582L55.6 58.744L51.618 47.326H49.22L54.456 62.11ZM62.1649 59.712C62.1649 61.186 63.2869 62.264 65.0249 62.264C66.9609 62.264 67.9729 61.032 68.2369 60.614C68.5229 61.406 69.1609 62.044 70.6789 62.154L71.3389 60.438C71.3389 60.438 70.2389 60.416 70.2389 59.184V54.982C70.2389 52.76 69.4909 51.792 67.1369 51.792C64.5189 51.792 62.8249 53.046 62.8249 53.046L63.3969 54.674C63.3969 54.674 64.9149 53.53 66.5429 53.53C68.1489 53.53 68.0609 54.63 68.0609 55.884C64.3429 56.368 62.1649 57.622 62.1649 59.712ZM65.5749 60.548C64.9369 60.548 64.4089 60.262 64.4089 59.558C64.4089 58.392 65.5309 57.666 68.0609 57.292V59.008C67.4009 59.778 66.5869 60.548 65.5749 60.548ZM73.5283 62H75.7063V46.27L73.5283 46.622V62ZM78.7034 59.272C78.7034 61.406 79.8034 62.264 81.4094 62.264C83.2354 62.264 84.6214 61.098 85.2594 60.416C85.3694 61.142 85.5894 62.176 85.5894 62.176L87.7014 61.978C87.7014 61.978 87.2614 60.152 87.2614 58.942V52.056H85.0834V58.744C84.4674 59.316 83.2354 60.372 82.1134 60.372C81.2994 60.372 80.8814 59.822 80.8814 58.436V52.056H78.7034V59.272ZM89.755 57.182C89.755 59.844 91.449 62.264 94.771 62.264C97.257 62.264 98.775 60.834 98.775 60.834L98.159 59.25C98.159 59.25 96.773 60.482 95.101 60.482C93.363 60.482 92.263 59.316 92.021 57.512L97.455 56.786L98.709 56.434C98.709 53.42 96.993 51.792 94.617 51.792C91.713 51.792 89.755 54.146 89.755 57.182ZM94.463 53.486C96.201 53.486 96.333 55.51 96.333 55.51L92.021 56.06C92.219 54.608 93.055 53.486 94.463 53.486ZM106.441 62H108.619V55.532C109.257 54.894 110.621 53.684 111.699 53.684C112.425 53.684 112.821 54.212 112.821 55.62V62H114.999V55.488C115.747 54.762 116.979 53.684 117.991 53.684C118.717 53.684 119.135 54.212 119.135 55.62V62H121.291V54.828C121.291 52.694 120.257 51.792 118.717 51.792C116.979 51.792 115.615 52.958 114.889 53.75C114.581 52.386 113.679 51.792 112.425 51.792C110.665 51.792 109.257 53.002 108.575 53.75V51.88L106.441 52.232V62ZM123.086 65.476L123.768 67.214C126.1 66.95 127.552 64.86 128.41 62.748L132.722 52.056H130.478L127.904 58.876L125.286 52.056H122.976L126.826 61.494L126.298 62.682C125.704 64.068 124.538 65.234 123.086 65.476ZM133.797 61.384C133.797 61.384 135.029 62.264 137.097 62.264C139.539 62.264 140.969 61.054 140.969 59.25C140.969 56.082 136.195 56.236 136.195 54.498C136.195 53.926 136.679 53.508 137.779 53.508C139.055 53.508 140.199 54.124 140.199 54.124L140.705 52.342C140.705 52.342 139.605 51.792 137.867 51.792C135.117 51.792 134.017 53.134 134.017 54.674C134.017 57.798 138.791 57.666 138.791 59.448C138.791 60.086 138.241 60.548 137.075 60.548C135.469 60.548 134.259 59.536 134.259 59.536L133.797 61.384ZM142.693 57.182C142.693 59.844 144.387 62.264 147.709 62.264C150.195 62.264 151.713 60.834 151.713 60.834L151.097 59.25C151.097 59.25 149.711 60.482 148.039 60.482C146.301 60.482 145.201 59.316 144.959 57.512L150.393 56.786L151.647 56.434C151.647 53.42 149.931 51.792 147.555 51.792C144.651 51.792 142.693 54.146 142.693 57.182ZM147.401 53.486C149.139 53.486 149.271 55.51 149.271 55.51L144.959 56.06C145.157 54.608 145.993 53.486 147.401 53.486ZM154.138 62H156.316V46.27L154.138 46.622V62ZM158.433 53.706H159.995V62H162.173V53.706H164.923V52.056H162.173V50.868C162.173 48.536 163.229 47.722 164.395 47.722C165.473 47.722 166.441 48.426 166.441 48.426L167.299 46.754C167.299 46.754 166.155 45.918 164.417 45.918C161.821 45.918 159.995 47.744 159.995 51V51.968L158.433 52.54V53.706ZM171.546 57.182C171.546 59.844 173.24 62.264 176.562 62.264C179.048 62.264 180.566 60.834 180.566 60.834L179.95 59.25C179.95 59.25 178.564 60.482 176.892 60.482C175.154 60.482 174.054 59.316 173.812 57.512L179.246 56.786L180.5 56.434C180.5 53.42 178.784 51.792 176.408 51.792C173.504 51.792 171.546 54.146 171.546 57.182ZM176.254 53.486C177.992 53.486 178.124 55.51 178.124 55.51L173.812 56.06C174.01 54.608 174.846 53.486 176.254 53.486ZM182.947 62H185.125V55.554C185.807 54.894 187.215 53.684 188.315 53.684C189.063 53.684 189.503 54.212 189.503 55.62V62H191.681V54.828C191.681 52.694 190.603 51.792 189.041 51.792C187.215 51.792 185.785 53.002 185.081 53.772V51.88L182.947 52.232V62ZM193.975 57.072C193.975 59.712 195.757 62.264 199.057 62.264C202.643 62.264 204.227 59.25 204.227 56.83C204.227 54.278 202.445 51.792 199.145 51.792C195.581 51.792 193.975 54.586 193.975 57.072ZM196.241 56.874C196.241 54.894 197.407 53.53 199.101 53.53C201.125 53.53 201.961 55.356 201.961 57.116C201.961 59.118 200.795 60.526 199.123 60.526C197.143 60.526 196.241 58.722 196.241 56.874ZM206.514 59.272C206.514 61.406 207.614 62.264 209.22 62.264C211.046 62.264 212.432 61.098 213.07 60.416C213.18 61.142 213.4 62.176 213.4 62.176L215.512 61.978C215.512 61.978 215.072 60.152 215.072 58.942V52.056H212.894V58.744C212.278 59.316 211.046 60.372 209.924 60.372C209.11 60.372 208.692 59.822 208.692 58.436V52.056H206.514V59.272ZM218.16 60.24C218.16 60.922 218.798 61.318 219.788 61.648C218.732 62.198 217.258 63.144 217.258 64.596C217.258 66.334 219.414 67.214 221.614 67.214C224.606 67.214 227.048 65.52 227.048 63.518C227.048 61.692 225.046 61.142 223.286 60.702C221.218 60.196 220.25 59.998 220.25 59.602C220.25 59.36 220.602 59.096 221.064 58.788C221.284 58.832 221.526 58.832 221.79 58.832C223.924 58.832 226.19 57.666 226.19 55.488C226.19 54.608 225.772 54.014 225.464 53.662C225.728 53.706 226.036 53.728 226.278 53.728H227.466L227.312 51.99C227.312 51.99 226.652 52.21 225.992 52.21H224.848C223.748 52.21 223.176 51.792 221.966 51.792C219.744 51.792 217.742 53.046 217.742 55.268C217.742 56.61 218.468 57.776 219.722 58.392C218.908 58.854 218.16 59.514 218.16 60.24ZM222.032 62.22C223.88 62.704 224.914 62.99 224.914 63.848C224.914 64.838 223.506 65.63 221.746 65.63C220.492 65.63 219.216 65.234 219.216 64.244C219.216 63.254 220.426 62.594 221.372 62.066C221.592 62.11 221.812 62.154 222.032 62.22ZM221.944 57.292C220.536 57.292 219.876 56.28 219.876 55.334C219.876 54.3 220.624 53.332 221.944 53.332C223.352 53.332 224.034 54.476 224.034 55.444C224.034 56.566 223.154 57.292 221.944 57.292ZM229.354 62H231.532V55.598C232.192 54.938 233.622 53.684 234.722 53.684C235.47 53.684 235.91 54.212 235.91 55.62V62H238.088V54.828C238.088 52.694 237.01 51.792 235.426 51.792C233.6 51.792 232.192 53.024 231.532 53.728V46.27L229.354 46.622V62ZM246.877 59.294C246.877 61.34 247.999 62.264 249.715 62.264C251.475 62.264 252.773 61.208 252.773 61.208L252.223 59.558C251.959 59.712 251.035 60.438 250.199 60.438C249.473 60.438 249.055 59.954 249.055 58.744V53.706H252.201V52.056H249.055V49.24L246.921 49.702V51.968L245.403 52.518V53.706H246.877V59.294ZM253.981 57.072C253.981 59.712 255.763 62.264 259.063 62.264C262.649 62.264 264.233 59.25 264.233 56.83C264.233 54.278 262.451 51.792 259.151 51.792C255.587 51.792 253.981 54.586 253.981 57.072ZM256.247 56.874C256.247 54.894 257.413 53.53 259.107 53.53C261.131 53.53 261.967 55.356 261.967 57.116C261.967 59.118 260.801 60.526 259.129 60.526C257.149 60.526 256.247 58.722 256.247 56.874ZM51.068 89.294C51.068 91.34 52.19 92.264 53.906 92.264C55.666 92.264 56.964 91.208 56.964 91.208L56.414 89.558C56.15 89.712 55.226 90.438 54.39 90.438C53.664 90.438 53.246 89.954 53.246 88.744V83.706H56.392V82.056H53.246V79.24L51.112 79.702V81.968L49.594 82.518V83.706H51.068V89.294ZM58.0185 89.712C58.0185 91.186 59.1405 92.264 60.8785 92.264C62.8145 92.264 63.8265 91.032 64.0905 90.614C64.3765 91.406 65.0145 92.044 66.5325 92.154L67.1925 90.438C67.1925 90.438 66.0925 90.416 66.0925 89.184V84.982C66.0925 82.76 65.3445 81.792 62.9905 81.792C60.3725 81.792 58.6785 83.046 58.6785 83.046L59.2505 84.674C59.2505 84.674 60.7685 83.53 62.3965 83.53C64.0025 83.53 63.9145 84.63 63.9145 85.884C60.1965 86.368 58.0185 87.622 58.0185 89.712ZM61.4285 90.548C60.7905 90.548 60.2625 90.262 60.2625 89.558C60.2625 88.392 61.3845 87.666 63.9145 87.292V89.008C63.2545 89.778 62.4405 90.548 61.4285 90.548ZM69.3818 92H71.5598V87.292H71.8678L75.8278 92H78.6218L73.7818 86.412L78.3138 82.056H75.4758L71.8678 85.686H71.5598V76.27L69.3818 76.622V92ZM79.1632 87.182C79.1632 89.844 80.8572 92.264 84.1792 92.264C86.6652 92.264 88.1832 90.834 88.1832 90.834L87.5672 89.25C87.5672 89.25 86.1812 90.482 84.5092 90.482C82.7712 90.482 81.6712 89.316 81.4292 87.512L86.8632 86.786L88.1172 86.434C88.1172 83.42 86.4012 81.792 84.0252 81.792C81.1212 81.792 79.1632 84.146 79.1632 87.182ZM83.8712 83.486C85.6092 83.486 85.7412 85.51 85.7412 85.51L81.4292 86.06C81.6272 84.608 82.4632 83.486 83.8712 83.486ZM95.2115 87.16C95.2115 90.042 97.2135 92.264 100.316 92.264C102.692 92.264 103.836 90.988 103.836 90.988L103.132 89.448C103.132 89.448 102.054 90.482 100.47 90.482C98.5995 90.482 97.4775 89.008 97.4775 87.05C97.4775 85.026 98.6875 83.552 100.492 83.552C101.944 83.552 102.978 84.476 102.978 84.476L103.836 82.848C103.836 82.848 102.626 81.792 100.448 81.792C97.1695 81.792 95.2115 84.41 95.2115 87.16ZM105.18 87.072C105.18 89.712 106.962 92.264 110.262 92.264C113.848 92.264 115.432 89.25 115.432 86.83C115.432 84.278 113.65 81.792 110.35 81.792C106.786 81.792 105.18 84.586 105.18 87.072ZM107.446 86.874C107.446 84.894 108.612 83.53 110.306 83.53C112.33 83.53 113.166 85.356 113.166 87.116C113.166 89.118 112 90.526 110.328 90.526C108.348 90.526 107.446 88.722 107.446 86.874ZM117.785 92H119.963V85.554C120.645 84.894 122.053 83.684 123.153 83.684C123.901 83.684 124.341 84.212 124.341 85.62V92H126.519V84.828C126.519 82.694 125.441 81.792 123.879 81.792C122.053 81.792 120.623 83.002 119.919 83.772V81.88L117.785 82.232V92ZM128.791 91.384C128.791 91.384 130.023 92.264 132.091 92.264C134.533 92.264 135.963 91.054 135.963 89.25C135.963 86.082 131.189 86.236 131.189 84.498C131.189 83.926 131.673 83.508 132.773 83.508C134.049 83.508 135.193 84.124 135.193 84.124L135.699 82.342C135.699 82.342 134.599 81.792 132.861 81.792C130.111 81.792 129.011 83.134 129.011 84.674C129.011 87.798 133.785 87.666 133.785 89.448C133.785 90.086 133.235 90.548 132.069 90.548C130.463 90.548 129.253 89.536 129.253 89.536L128.791 91.384ZM139.447 79.68C140.239 79.68 140.833 79.108 140.833 78.338C140.833 77.568 140.239 76.996 139.447 76.996C138.677 76.996 138.083 77.568 138.083 78.338C138.083 79.108 138.677 79.68 139.447 79.68ZM138.347 92H140.525V82.056H138.347V92ZM142.928 91.384C142.928 91.384 144.16 92.264 146.228 92.264C148.67 92.264 150.1 91.054 150.1 89.25C150.1 86.082 145.326 86.236 145.326 84.498C145.326 83.926 145.81 83.508 146.91 83.508C148.186 83.508 149.33 84.124 149.33 84.124L149.836 82.342C149.836 82.342 148.736 81.792 146.998 81.792C144.248 81.792 143.148 83.134 143.148 84.674C143.148 87.798 147.922 87.666 147.922 89.448C147.922 90.086 147.372 90.548 146.206 90.548C144.6 90.548 143.39 89.536 143.39 89.536L142.928 91.384ZM153.011 89.294C153.011 91.34 154.133 92.264 155.849 92.264C157.609 92.264 158.907 91.208 158.907 91.208L158.357 89.558C158.093 89.712 157.169 90.438 156.333 90.438C155.607 90.438 155.189 89.954 155.189 88.744V83.706H158.335V82.056H155.189V79.24L153.055 79.702V81.968L151.537 82.518V83.706H153.011V89.294ZM160.138 87.182C160.138 89.844 161.832 92.264 165.154 92.264C167.64 92.264 169.158 90.834 169.158 90.834L168.542 89.25C168.542 89.25 167.156 90.482 165.484 90.482C163.746 90.482 162.646 89.316 162.404 87.512L167.838 86.786L169.092 86.434C169.092 83.42 167.376 81.792 165 81.792C162.096 81.792 160.138 84.146 160.138 87.182ZM164.846 83.486C166.584 83.486 166.716 85.51 166.716 85.51L162.404 86.06C162.602 84.608 163.438 83.486 164.846 83.486ZM171.539 92H173.717V85.554C174.399 84.894 175.807 83.684 176.907 83.684C177.655 83.684 178.095 84.212 178.095 85.62V92H180.273V84.828C180.273 82.694 179.195 81.792 177.633 81.792C175.807 81.792 174.377 83.002 173.673 83.772V81.88L171.539 82.232V92ZM183.777 89.294C183.777 91.34 184.899 92.264 186.615 92.264C188.375 92.264 189.673 91.208 189.673 91.208L189.123 89.558C188.859 89.712 187.935 90.438 187.099 90.438C186.373 90.438 185.955 89.954 185.955 88.744V83.706H189.101V82.056H185.955V79.24L183.821 79.702V81.968L182.303 82.518V83.706H183.777V89.294ZM196.013 89.712C196.013 91.186 197.135 92.264 198.873 92.264C200.809 92.264 201.821 91.032 202.085 90.614C202.371 91.406 203.009 92.044 204.527 92.154L205.187 90.438C205.187 90.438 204.087 90.416 204.087 89.184V84.982C204.087 82.76 203.339 81.792 200.985 81.792C198.367 81.792 196.673 83.046 196.673 83.046L197.245 84.674C197.245 84.674 198.763 83.53 200.391 83.53C201.997 83.53 201.909 84.63 201.909 85.884C198.191 86.368 196.013 87.622 196.013 89.712ZM199.423 90.548C198.785 90.548 198.257 90.262 198.257 89.558C198.257 88.392 199.379 87.666 201.909 87.292V89.008C201.249 89.778 200.435 90.548 199.423 90.548ZM206.694 87.16C206.694 90.042 208.696 92.264 211.798 92.264C214.174 92.264 215.318 90.988 215.318 90.988L214.614 89.448C214.614 89.448 213.536 90.482 211.952 90.482C210.082 90.482 208.96 89.008 208.96 87.05C208.96 85.026 210.17 83.552 211.974 83.552C213.426 83.552 214.46 84.476 214.46 84.476L215.318 82.848C215.318 82.848 214.108 81.792 211.93 81.792C208.652 81.792 206.694 84.41 206.694 87.16ZM218.045 89.294C218.045 91.34 219.167 92.264 220.883 92.264C222.643 92.264 223.941 91.208 223.941 91.208L223.391 89.558C223.127 89.712 222.203 90.438 221.367 90.438C220.641 90.438 220.223 89.954 220.223 88.744V83.706H223.369V82.056H220.223V79.24L218.089 79.702V81.968L216.571 82.518V83.706H218.045V89.294ZM226.931 79.68C227.723 79.68 228.317 79.108 228.317 78.338C228.317 77.568 227.723 76.996 226.931 76.996C226.161 76.996 225.567 77.568 225.567 78.338C225.567 79.108 226.161 79.68 226.931 79.68ZM225.831 92H228.009V82.056H225.831V92ZM230.434 87.072C230.434 89.712 232.216 92.264 235.516 92.264C239.102 92.264 240.686 89.25 240.686 86.83C240.686 84.278 238.904 81.792 235.604 81.792C232.04 81.792 230.434 84.586 230.434 87.072ZM232.7 86.874C232.7 84.894 233.866 83.53 235.56 83.53C237.584 83.53 238.42 85.356 238.42 87.116C238.42 89.118 237.254 90.526 235.582 90.526C233.602 90.526 232.7 88.722 232.7 86.874ZM243.039 92H245.217V85.554C245.899 84.894 247.307 83.684 248.407 83.684C249.155 83.684 249.595 84.212 249.595 85.62V92H251.773V84.828C251.773 82.694 250.695 81.792 249.133 81.792C247.307 81.792 245.877 83.002 245.173 83.772V81.88L243.039 82.232V92ZM254.045 91.384C254.045 91.384 255.277 92.264 257.345 92.264C259.787 92.264 261.217 91.054 261.217 89.25C261.217 86.082 256.443 86.236 256.443 84.498C256.443 83.926 256.927 83.508 258.027 83.508C259.303 83.508 260.447 84.124 260.447 84.124L260.953 82.342C260.953 82.342 259.853 81.792 258.115 81.792C255.365 81.792 254.265 83.134 254.265 84.674C254.265 87.798 259.039 87.666 259.039 89.448C259.039 90.086 258.489 90.548 257.323 90.548C255.717 90.548 254.507 89.536 254.507 89.536L254.045 91.384ZM51.068 119.294C51.068 121.34 52.19 122.264 53.906 122.264C55.666 122.264 56.964 121.208 56.964 121.208L56.414 119.558C56.15 119.712 55.226 120.438 54.39 120.438C53.664 120.438 53.246 119.954 53.246 118.744V113.706H56.392V112.056H53.246V109.24L51.112 109.702V111.968L49.594 112.518V113.706H51.068V119.294ZM58.1725 117.072C58.1725 119.712 59.9545 122.264 63.2545 122.264C66.8405 122.264 68.4245 119.25 68.4245 116.83C68.4245 114.278 66.6425 111.792 63.3425 111.792C59.7785 111.792 58.1725 114.586 58.1725 117.072ZM60.4385 116.874C60.4385 114.894 61.6045 113.53 63.2985 113.53C65.3225 113.53 66.1585 115.356 66.1585 117.116C66.1585 119.118 64.9925 120.526 63.3205 120.526C61.3405 120.526 60.4385 118.722 60.4385 116.874ZM76.0624 121.78C76.8104 121.956 78.5044 122.264 79.6924 122.264C83.4544 122.264 85.2584 119.58 85.2584 116.676C85.2584 113.948 83.6744 111.792 80.9244 111.792C79.5604 111.792 78.7464 112.342 78.2404 112.914V106.27L76.0624 106.622V121.78ZM80.5724 113.552C82.0244 113.552 83.0144 114.762 83.0144 116.83C83.0144 119.294 81.6284 120.614 79.7364 120.614C78.9224 120.614 78.2404 120.394 78.2404 120.394V114.586C78.7024 114.168 79.5384 113.552 80.5724 113.552ZM87.048 117.182C87.048 119.844 88.742 122.264 92.064 122.264C94.55 122.264 96.068 120.834 96.068 120.834L95.452 119.25C95.452 119.25 94.066 120.482 92.394 120.482C90.656 120.482 89.556 119.316 89.314 117.512L94.748 116.786L96.002 116.434C96.002 113.42 94.286 111.792 91.91 111.792C89.006 111.792 87.048 114.146 87.048 117.182ZM91.756 113.486C93.494 113.486 93.626 115.51 93.626 115.51L89.314 116.06C89.512 114.608 90.348 113.486 91.756 113.486ZM99.0211 119.294C99.0211 121.34 100.143 122.264 101.859 122.264C103.619 122.264 104.917 121.208 104.917 121.208L104.367 119.558C104.103 119.712 103.179 120.438 102.343 120.438C101.617 120.438 101.199 119.954 101.199 118.744V113.706H104.345V112.056H101.199V109.24L99.0651 109.702V111.968L97.5471 112.518V113.706H99.0211V119.294ZM107.336 119.294C107.336 121.34 108.458 122.264 110.174 122.264C111.934 122.264 113.232 121.208 113.232 121.208L112.682 119.558C112.418 119.712 111.494 120.438 110.658 120.438C109.932 120.438 109.514 119.954 109.514 118.744V113.706H112.66V112.056H109.514V109.24L107.38 109.702V111.968L105.862 112.518V113.706H107.336V119.294ZM114.462 117.182C114.462 119.844 116.156 122.264 119.478 122.264C121.964 122.264 123.482 120.834 123.482 120.834L122.866 119.25C122.866 119.25 121.48 120.482 119.808 120.482C118.07 120.482 116.97 119.316 116.728 117.512L122.162 116.786L123.416 116.434C123.416 113.42 121.7 111.792 119.324 111.792C116.42 111.792 114.462 114.146 114.462 117.182ZM119.17 113.486C120.908 113.486 121.04 115.51 121.04 115.51L116.728 116.06C116.926 114.608 117.762 113.486 119.17 113.486ZM125.863 122H128.041V115.84C128.459 115.18 129.361 113.992 130.461 113.992C130.901 113.992 131.341 114.168 131.341 114.168L131.781 111.968C131.781 111.968 131.473 111.792 130.923 111.792C129.405 111.792 128.393 113.2 127.997 113.882V111.88L125.863 112.232V122ZM138.797 122H140.975V115.532C141.613 114.894 142.977 113.684 144.055 113.684C144.781 113.684 145.177 114.212 145.177 115.62V122H147.355V115.488C148.103 114.762 149.335 113.684 150.347 113.684C151.073 113.684 151.491 114.212 151.491 115.62V122H153.647V114.828C153.647 112.694 152.613 111.792 151.073 111.792C149.335 111.792 147.971 112.958 147.245 113.75C146.937 112.386 146.035 111.792 144.781 111.792C143.021 111.792 141.613 113.002 140.931 113.75V111.88L138.797 112.232V122ZM155.442 125.476L156.124 127.214C158.456 126.95 159.908 124.86 160.766 122.748L165.078 112.056H162.834L160.26 118.876L157.642 112.056H155.332L159.182 121.494L158.654 122.682C158.06 124.068 156.894 125.234 155.442 125.476ZM172.142 122H174.32V115.598C174.98 114.938 176.41 113.684 177.51 113.684C178.258 113.684 178.698 114.212 178.698 115.62V122H180.876V114.828C180.876 112.694 179.798 111.792 178.214 111.792C176.388 111.792 174.98 113.024 174.32 113.728V106.27L172.142 106.622V122ZM183.191 117.182C183.191 119.844 184.885 122.264 188.207 122.264C190.693 122.264 192.211 120.834 192.211 120.834L191.595 119.25C191.595 119.25 190.209 120.482 188.537 120.482C186.799 120.482 185.699 119.316 185.457 117.512L190.891 116.786L192.145 116.434C192.145 113.42 190.429 111.792 188.053 111.792C185.149 111.792 183.191 114.146 183.191 117.182ZM187.899 113.486C189.637 113.486 189.769 115.51 189.769 115.51L185.457 116.06C185.655 114.608 186.491 113.486 187.899 113.486ZM193.8 119.712C193.8 121.186 194.922 122.264 196.66 122.264C198.596 122.264 199.608 121.032 199.872 120.614C200.158 121.406 200.796 122.044 202.314 122.154L202.974 120.438C202.974 120.438 201.874 120.416 201.874 119.184V114.982C201.874 112.76 201.126 111.792 198.772 111.792C196.154 111.792 194.46 113.046 194.46 113.046L195.032 114.674C195.032 114.674 196.55 113.53 198.178 113.53C199.784 113.53 199.696 114.63 199.696 115.884C195.978 116.368 193.8 117.622 193.8 119.712ZM197.21 120.548C196.572 120.548 196.044 120.262 196.044 119.558C196.044 118.392 197.166 117.666 199.696 117.292V119.008C199.036 119.778 198.222 120.548 197.21 120.548ZM205.163 122H207.341V106.27L205.163 106.622V122ZM210.976 119.294C210.976 121.34 212.098 122.264 213.814 122.264C215.574 122.264 216.872 121.208 216.872 121.208L216.322 119.558C216.058 119.712 215.134 120.438 214.298 120.438C213.572 120.438 213.154 119.954 213.154 118.744V113.706H216.3V112.056H213.154V109.24L211.02 109.702V111.968L209.502 112.518V113.706H210.976V119.294ZM218.763 122H220.941V115.598C221.601 114.938 223.031 113.684 224.131 113.684C224.879 113.684 225.319 114.212 225.319 115.62V122H227.497V114.828C227.497 112.694 226.419 111.792 224.835 111.792C223.009 111.792 221.601 113.024 220.941 113.728V106.27L218.763 106.622V122ZM230.142 120.79C230.142 121.604 230.802 122.264 231.616 122.264C232.43 122.264 233.112 121.604 233.112 120.79C233.112 119.954 232.43 119.294 231.616 119.294C230.802 119.294 230.142 119.954 230.142 120.79Z" fill="#333333"/>
<path d="M306.002 62H308.268V55.62H313.438V53.662H308.268V49.218H314.802V47.326H306.002V62ZM315.536 57.182C315.536 59.844 317.23 62.264 320.552 62.264C323.038 62.264 324.556 60.834 324.556 60.834L323.94 59.25C323.94 59.25 322.554 60.482 320.882 60.482C319.144 60.482 318.044 59.316 317.802 57.512L323.236 56.786L324.49 56.434C324.49 53.42 322.774 51.792 320.398 51.792C317.494 51.792 315.536 54.146 315.536 57.182ZM320.244 53.486C321.982 53.486 322.114 55.51 322.114 55.51L317.802 56.06C318 54.608 318.836 53.486 320.244 53.486ZM326.321 57.182C326.321 59.844 328.015 62.264 331.337 62.264C333.823 62.264 335.341 60.834 335.341 60.834L334.725 59.25C334.725 59.25 333.339 60.482 331.667 60.482C329.929 60.482 328.829 59.316 328.587 57.512L334.021 56.786L335.275 56.434C335.275 53.42 333.559 51.792 331.183 51.792C328.279 51.792 326.321 54.146 326.321 57.182ZM331.029 53.486C332.767 53.486 332.899 55.51 332.899 55.51L328.587 56.06C328.785 54.608 329.621 53.486 331.029 53.486ZM337.767 62H339.945V46.27L337.767 46.622V62ZM348.337 62H350.515V55.598C351.175 54.938 352.605 53.684 353.705 53.684C354.453 53.684 354.893 54.212 354.893 55.62V62H357.071V54.828C357.071 52.694 355.993 51.792 354.409 51.792C352.583 51.792 351.175 53.024 350.515 53.728V46.27L348.337 46.622V62ZM359.364 57.072C359.364 59.712 361.146 62.264 364.446 62.264C368.032 62.264 369.616 59.25 369.616 56.83C369.616 54.278 367.834 51.792 364.534 51.792C360.97 51.792 359.364 54.586 359.364 57.072ZM361.63 56.874C361.63 54.894 362.796 53.53 364.49 53.53C366.514 53.53 367.35 55.356 367.35 57.116C367.35 59.118 366.184 60.526 364.512 60.526C362.532 60.526 361.63 58.722 361.63 56.874ZM371.969 67.126L374.147 66.774V61.736C374.565 62.044 375.313 62.264 376.237 62.264C379.405 62.264 381.253 59.668 381.253 56.72C381.253 54.014 379.669 51.792 377.051 51.792C375.489 51.792 374.543 52.606 374.081 53.464V51.88L371.969 52.232V67.126ZM376.677 53.596C378.019 53.596 378.965 54.806 378.965 56.874C378.965 59.25 377.711 60.548 375.841 60.548C374.807 60.548 374.147 60.174 374.147 59.426V55.202C374.433 54.784 375.357 53.596 376.677 53.596ZM383.019 57.182C383.019 59.844 384.713 62.264 388.035 62.264C390.521 62.264 392.039 60.834 392.039 60.834L391.423 59.25C391.423 59.25 390.037 60.482 388.365 60.482C386.627 60.482 385.527 59.316 385.285 57.512L390.719 56.786L391.973 56.434C391.973 53.42 390.257 51.792 387.881 51.792C384.977 51.792 383.019 54.146 383.019 57.182ZM387.727 53.486C389.465 53.486 389.597 55.51 389.597 55.51L385.285 56.06C385.483 54.608 386.319 53.486 387.727 53.486ZM393.474 53.706H395.036V62H397.214V53.706H399.964V52.056H397.214V50.868C397.214 48.536 398.27 47.722 399.436 47.722C400.514 47.722 401.482 48.426 401.482 48.426L402.34 46.754C402.34 46.754 401.196 45.918 399.458 45.918C396.862 45.918 395.036 47.744 395.036 51V51.968L393.474 52.54V53.706ZM401.852 59.272C401.852 61.406 402.952 62.264 404.558 62.264C406.384 62.264 407.77 61.098 408.408 60.416C408.518 61.142 408.738 62.176 408.738 62.176L410.85 61.978C410.85 61.978 410.41 60.152 410.41 58.942V52.056H408.232V58.744C407.616 59.316 406.384 60.372 405.262 60.372C404.448 60.372 404.03 59.822 404.03 58.436V52.056H401.852V59.272ZM413.563 62H415.741V46.27L413.563 46.622V62ZM424.662 59.294C424.662 61.34 425.784 62.264 427.5 62.264C429.26 62.264 430.558 61.208 430.558 61.208L430.008 59.558C429.744 59.712 428.82 60.438 427.984 60.438C427.258 60.438 426.84 59.954 426.84 58.744V53.706H429.986V52.056H426.84V49.24L424.706 49.702V51.968L423.188 52.518V53.706H424.662V59.294ZM432.448 62H434.626V55.598C435.286 54.938 436.716 53.684 437.816 53.684C438.564 53.684 439.004 54.212 439.004 55.62V62H441.182V54.828C441.182 52.694 440.104 51.792 438.52 51.792C436.694 51.792 435.286 53.024 434.626 53.728V46.27L432.448 46.622V62ZM443.321 59.712C443.321 61.186 444.443 62.264 446.181 62.264C448.117 62.264 449.129 61.032 449.393 60.614C449.679 61.406 450.317 62.044 451.835 62.154L452.495 60.438C452.495 60.438 451.395 60.416 451.395 59.184V54.982C451.395 52.76 450.647 51.792 448.293 51.792C445.675 51.792 443.981 53.046 443.981 53.046L444.553 54.674C444.553 54.674 446.071 53.53 447.699 53.53C449.305 53.53 449.217 54.63 449.217 55.884C445.499 56.368 443.321 57.622 443.321 59.712ZM446.731 60.548C446.093 60.548 445.565 60.262 445.565 59.558C445.565 58.392 446.687 57.666 449.217 57.292V59.008C448.557 59.778 447.743 60.548 446.731 60.548ZM455.127 59.294C455.127 61.34 456.249 62.264 457.965 62.264C459.725 62.264 461.023 61.208 461.023 61.208L460.473 59.558C460.209 59.712 459.285 60.438 458.449 60.438C457.723 60.438 457.305 59.954 457.305 58.744V53.706H460.451V52.056H457.305V49.24L455.171 49.702V51.968L453.653 52.518V53.706H455.127V59.294ZM468.66 62H470.926V47.326H468.66V62ZM479.096 57.16C479.096 60.042 481.098 62.264 484.2 62.264C486.576 62.264 487.72 60.988 487.72 60.988L487.016 59.448C487.016 59.448 485.938 60.482 484.354 60.482C482.484 60.482 481.362 59.008 481.362 57.05C481.362 55.026 482.572 53.552 484.376 53.552C485.828 53.552 486.862 54.476 486.862 54.476L487.72 52.848C487.72 52.848 486.51 51.792 484.332 51.792C481.054 51.792 479.096 54.41 479.096 57.16ZM489.083 59.712C489.083 61.186 490.205 62.264 491.943 62.264C493.879 62.264 494.891 61.032 495.155 60.614C495.441 61.406 496.079 62.044 497.597 62.154L498.257 60.438C498.257 60.438 497.157 60.416 497.157 59.184V54.982C497.157 52.76 496.409 51.792 494.055 51.792C491.437 51.792 489.743 53.046 489.743 53.046L490.315 54.674C490.315 54.674 491.833 53.53 493.461 53.53C495.067 53.53 494.979 54.63 494.979 55.884C491.261 56.368 489.083 57.622 489.083 59.712ZM492.493 60.548C491.855 60.548 491.327 60.262 491.327 59.558C491.327 58.392 492.449 57.666 494.979 57.292V59.008C494.319 59.778 493.505 60.548 492.493 60.548ZM500.402 62H502.58V55.554C503.262 54.894 504.67 53.684 505.77 53.684C506.518 53.684 506.958 54.212 506.958 55.62V62H509.136V54.828C509.136 52.694 508.058 51.792 506.496 51.792C504.67 51.792 503.24 53.002 502.536 53.772V51.88L500.402 52.232V62ZM305.474 90.24C305.474 90.922 306.112 91.318 307.102 91.648C306.046 92.198 304.572 93.144 304.572 94.596C304.572 96.334 306.728 97.214 308.928 97.214C311.92 97.214 314.362 95.52 314.362 93.518C314.362 91.692 312.36 91.142 310.6 90.702C308.532 90.196 307.564 89.998 307.564 89.602C307.564 89.36 307.916 89.096 308.378 88.788C308.598 88.832 308.84 88.832 309.104 88.832C311.238 88.832 313.504 87.666 313.504 85.488C313.504 84.608 313.086 84.014 312.778 83.662C313.042 83.706 313.35 83.728 313.592 83.728H314.78L314.626 81.99C314.626 81.99 313.966 82.21 313.306 82.21H312.162C311.062 82.21 310.49 81.792 309.28 81.792C307.058 81.792 305.056 83.046 305.056 85.268C305.056 86.61 305.782 87.776 307.036 88.392C306.222 88.854 305.474 89.514 305.474 90.24ZM309.346 92.22C311.194 92.704 312.228 92.99 312.228 93.848C312.228 94.838 310.82 95.63 309.06 95.63C307.806 95.63 306.53 95.234 306.53 94.244C306.53 93.254 307.74 92.594 308.686 92.066C308.906 92.11 309.126 92.154 309.346 92.22ZM309.258 87.292C307.85 87.292 307.19 86.28 307.19 85.334C307.19 84.3 307.938 83.332 309.258 83.332C310.666 83.332 311.348 84.476 311.348 85.444C311.348 86.566 310.468 87.292 309.258 87.292ZM316.009 87.182C316.009 89.844 317.703 92.264 321.025 92.264C323.511 92.264 325.029 90.834 325.029 90.834L324.413 89.25C324.413 89.25 323.027 90.482 321.355 90.482C319.617 90.482 318.517 89.316 318.275 87.512L323.709 86.786L324.963 86.434C324.963 83.42 323.247 81.792 320.871 81.792C317.967 81.792 316.009 84.146 316.009 87.182ZM320.717 83.486C322.455 83.486 322.587 85.51 322.587 85.51L318.275 86.06C318.473 84.608 319.309 83.486 320.717 83.486ZM327.982 89.294C327.982 91.34 329.104 92.264 330.82 92.264C332.58 92.264 333.878 91.208 333.878 91.208L333.328 89.558C333.064 89.712 332.14 90.438 331.304 90.438C330.578 90.438 330.16 89.954 330.16 88.744V83.706H333.306V82.056H330.16V79.24L328.026 79.702V81.968L326.508 82.518V83.706H327.982V89.294ZM341.01 91.78C341.758 91.956 343.452 92.264 344.64 92.264C348.402 92.264 350.206 89.58 350.206 86.676C350.206 83.948 348.622 81.792 345.872 81.792C344.508 81.792 343.694 82.342 343.188 82.914V76.27L341.01 76.622V91.78ZM345.52 83.552C346.972 83.552 347.962 84.762 347.962 86.83C347.962 89.294 346.576 90.614 344.684 90.614C343.87 90.614 343.188 90.394 343.188 90.394V84.586C343.65 84.168 344.486 83.552 345.52 83.552ZM351.819 89.712C351.819 91.186 352.941 92.264 354.679 92.264C356.615 92.264 357.627 91.032 357.891 90.614C358.177 91.406 358.815 92.044 360.333 92.154L360.993 90.438C360.993 90.438 359.893 90.416 359.893 89.184V84.982C359.893 82.76 359.145 81.792 356.791 81.792C354.173 81.792 352.479 83.046 352.479 83.046L353.051 84.674C353.051 84.674 354.569 83.53 356.197 83.53C357.803 83.53 357.715 84.63 357.715 85.884C353.997 86.368 351.819 87.622 351.819 89.712ZM355.229 90.548C354.591 90.548 354.063 90.262 354.063 89.558C354.063 88.392 355.185 87.666 357.715 87.292V89.008C357.055 89.778 356.241 90.548 355.229 90.548ZM362.501 87.16C362.501 90.042 364.503 92.264 367.605 92.264C369.981 92.264 371.125 90.988 371.125 90.988L370.421 89.448C370.421 89.448 369.343 90.482 367.759 90.482C365.889 90.482 364.767 89.008 364.767 87.05C364.767 85.026 365.977 83.552 367.781 83.552C369.233 83.552 370.267 84.476 370.267 84.476L371.125 82.848C371.125 82.848 369.915 81.792 367.737 81.792C364.459 81.792 362.501 84.41 362.501 87.16ZM373.323 92H375.501V87.292H375.809L379.769 92H382.563L377.723 86.412L382.255 82.056H379.417L375.809 85.686H375.501V76.27L373.323 76.622V92ZM388.797 87.072C388.797 89.712 390.579 92.264 393.879 92.264C397.465 92.264 399.049 89.25 399.049 86.83C399.049 84.278 397.267 81.792 393.967 81.792C390.403 81.792 388.797 84.586 388.797 87.072ZM391.063 86.874C391.063 84.894 392.229 83.53 393.923 83.53C395.947 83.53 396.783 85.356 396.783 87.116C396.783 89.118 395.617 90.526 393.945 90.526C391.965 90.526 391.063 88.722 391.063 86.874ZM401.402 92H403.58V85.554C404.262 84.894 405.67 83.684 406.77 83.684C407.518 83.684 407.958 84.212 407.958 85.62V92H410.136V84.828C410.136 82.694 409.058 81.792 407.496 81.792C405.67 81.792 404.24 83.002 403.536 83.772V81.88L401.402 82.232V92ZM418.925 89.294C418.925 91.34 420.047 92.264 421.763 92.264C423.523 92.264 424.821 91.208 424.821 91.208L424.271 89.558C424.007 89.712 423.083 90.438 422.247 90.438C421.521 90.438 421.103 89.954 421.103 88.744V83.706H424.249V82.056H421.103V79.24L418.969 79.702V81.968L417.451 82.518V83.706H418.925V89.294ZM426.668 92H428.846V85.84C429.264 85.18 430.166 83.992 431.266 83.992C431.706 83.992 432.146 84.168 432.146 84.168L432.586 81.968C432.586 81.968 432.278 81.792 431.728 81.792C430.21 81.792 429.198 83.2 428.802 83.882V81.88L426.668 82.232V92ZM433.524 89.712C433.524 91.186 434.646 92.264 436.384 92.264C438.32 92.264 439.332 91.032 439.596 90.614C439.882 91.406 440.52 92.044 442.038 92.154L442.698 90.438C442.698 90.438 441.598 90.416 441.598 89.184V84.982C441.598 82.76 440.85 81.792 438.496 81.792C435.878 81.792 434.184 83.046 434.184 83.046L434.756 84.674C434.756 84.674 436.274 83.53 437.902 83.53C439.508 83.53 439.42 84.63 439.42 85.884C435.702 86.368 433.524 87.622 433.524 89.712ZM436.934 90.548C436.296 90.548 435.768 90.262 435.768 89.558C435.768 88.392 436.89 87.666 439.42 87.292V89.008C438.76 89.778 437.946 90.548 436.934 90.548ZM444.206 87.16C444.206 90.042 446.208 92.264 449.31 92.264C451.686 92.264 452.83 90.988 452.83 90.988L452.126 89.448C452.126 89.448 451.048 90.482 449.464 90.482C447.594 90.482 446.472 89.008 446.472 87.05C446.472 85.026 447.682 83.552 449.486 83.552C450.938 83.552 451.972 84.476 451.972 84.476L452.83 82.848C452.83 82.848 451.62 81.792 449.442 81.792C446.164 81.792 444.206 84.41 444.206 87.16ZM455.028 92H457.206V87.292H457.514L461.474 92H464.268L459.428 86.412L463.96 82.056H461.122L457.514 85.686H457.206V76.27L455.028 76.622V92ZM304.704 119.712C304.704 121.186 305.826 122.264 307.564 122.264C309.5 122.264 310.512 121.032 310.776 120.614C311.062 121.406 311.7 122.044 313.218 122.154L313.878 120.438C313.878 120.438 312.778 120.416 312.778 119.184V114.982C312.778 112.76 312.03 111.792 309.676 111.792C307.058 111.792 305.364 113.046 305.364 113.046L305.936 114.674C305.936 114.674 307.454 113.53 309.082 113.53C310.688 113.53 310.6 114.63 310.6 115.884C306.882 116.368 304.704 117.622 304.704 119.712ZM308.114 120.548C307.476 120.548 306.948 120.262 306.948 119.558C306.948 118.392 308.07 117.666 310.6 117.292V119.008C309.94 119.778 309.126 120.548 308.114 120.548ZM315.077 113.706H316.639V122H318.817V113.706H321.567V112.056H318.817V110.868C318.817 108.536 319.873 107.722 321.039 107.722C322.117 107.722 323.085 108.426 323.085 108.426L323.943 106.754C323.943 106.754 322.799 105.918 321.061 105.918C318.465 105.918 316.639 107.744 316.639 111V111.968L315.077 112.54V113.706ZM324.093 119.294C324.093 121.34 325.215 122.264 326.931 122.264C328.691 122.264 329.989 121.208 329.989 121.208L329.439 119.558C329.175 119.712 328.251 120.438 327.415 120.438C326.689 120.438 326.271 119.954 326.271 118.744V113.706H329.417V112.056H326.271V109.24L324.137 109.702V111.968L322.619 112.518V113.706H324.093V119.294ZM331.22 117.182C331.22 119.844 332.914 122.264 336.236 122.264C338.722 122.264 340.24 120.834 340.24 120.834L339.624 119.25C339.624 119.25 338.238 120.482 336.566 120.482C334.828 120.482 333.728 119.316 333.486 117.512L338.92 116.786L340.174 116.434C340.174 113.42 338.458 111.792 336.082 111.792C333.178 111.792 331.22 114.146 331.22 117.182ZM335.928 113.486C337.666 113.486 337.798 115.51 337.798 115.51L333.486 116.06C333.684 114.608 334.52 113.486 335.928 113.486ZM342.621 122H344.799V115.84C345.217 115.18 346.119 113.992 347.219 113.992C347.659 113.992 348.099 114.168 348.099 114.168L348.539 111.968C348.539 111.968 348.231 111.792 347.681 111.792C346.163 111.792 345.151 113.2 344.755 113.882V111.88L342.621 112.232V122ZM354.763 119.712C354.763 121.186 355.885 122.264 357.623 122.264C359.559 122.264 360.571 121.032 360.835 120.614C361.121 121.406 361.759 122.044 363.277 122.154L363.937 120.438C363.937 120.438 362.837 120.416 362.837 119.184V114.982C362.837 112.76 362.089 111.792 359.735 111.792C357.117 111.792 355.423 113.046 355.423 113.046L355.995 114.674C355.995 114.674 357.513 113.53 359.141 113.53C360.747 113.53 360.659 114.63 360.659 115.884C356.941 116.368 354.763 117.622 354.763 119.712ZM358.173 120.548C357.535 120.548 357.007 120.262 357.007 119.558C357.007 118.392 358.129 117.666 360.659 117.292V119.008C359.999 119.778 359.185 120.548 358.173 120.548ZM371.367 122H373.545V115.84C373.963 115.18 374.865 113.992 375.965 113.992C376.405 113.992 376.845 114.168 376.845 114.168L377.285 111.968C377.285 111.968 376.977 111.792 376.427 111.792C374.909 111.792 373.897 113.2 373.501 113.882V111.88L371.367 112.232V122ZM378.228 117.182C378.228 119.844 379.922 122.264 383.244 122.264C385.73 122.264 387.248 120.834 387.248 120.834L386.632 119.25C386.632 119.25 385.246 120.482 383.574 120.482C381.836 120.482 380.736 119.316 380.494 117.512L385.928 116.786L387.182 116.434C387.182 113.42 385.466 111.792 383.09 111.792C380.186 111.792 378.228 114.146 378.228 117.182ZM382.936 113.486C384.674 113.486 384.806 115.51 384.806 115.51L380.494 116.06C380.692 114.608 381.528 113.486 382.936 113.486ZM389.673 122H391.851V106.27L389.673 106.622V122ZM394.122 119.712C394.122 121.186 395.244 122.264 396.982 122.264C398.918 122.264 399.93 121.032 400.194 120.614C400.48 121.406 401.118 122.044 402.636 122.154L403.296 120.438C403.296 120.438 402.196 120.416 402.196 119.184V114.982C402.196 112.76 401.448 111.792 399.094 111.792C396.476 111.792 394.782 113.046 394.782 113.046L395.354 114.674C395.354 114.674 396.872 113.53 398.5 113.53C400.106 113.53 400.018 114.63 400.018 115.884C396.3 116.368 394.122 117.622 394.122 119.712ZM397.532 120.548C396.894 120.548 396.366 120.262 396.366 119.558C396.366 118.392 397.488 117.666 400.018 117.292V119.008C399.358 119.778 398.544 120.548 397.532 120.548ZM405.441 127.126L407.619 126.774V121.736C408.037 122.044 408.785 122.264 409.709 122.264C412.877 122.264 414.725 119.668 414.725 116.72C414.725 114.014 413.141 111.792 410.523 111.792C408.961 111.792 408.015 112.606 407.553 113.464V111.88L405.441 112.232V127.126ZM410.149 113.596C411.491 113.596 412.437 114.806 412.437 116.874C412.437 119.25 411.183 120.548 409.313 120.548C408.279 120.548 407.619 120.174 407.619 119.426V115.202C407.905 114.784 408.829 113.596 410.149 113.596ZM416.447 121.384C416.447 121.384 417.679 122.264 419.747 122.264C422.189 122.264 423.619 121.054 423.619 119.25C423.619 116.082 418.845 116.236 418.845 114.498C418.845 113.926 419.329 113.508 420.429 113.508C421.705 113.508 422.849 114.124 422.849 114.124L423.355 112.342C423.355 112.342 422.255 111.792 420.517 111.792C417.767 111.792 416.667 113.134 416.667 114.674C416.667 117.798 421.441 117.666 421.441 119.448C421.441 120.086 420.891 120.548 419.725 120.548C418.119 120.548 416.909 119.536 416.909 119.536L416.447 121.384ZM425.343 117.182C425.343 119.844 427.037 122.264 430.359 122.264C432.845 122.264 434.363 120.834 434.363 120.834L433.747 119.25C433.747 119.25 432.361 120.482 430.689 120.482C428.951 120.482 427.851 119.316 427.609 117.512L433.043 116.786L434.297 116.434C434.297 113.42 432.581 111.792 430.205 111.792C427.301 111.792 425.343 114.146 425.343 117.182ZM430.051 113.486C431.789 113.486 431.921 115.51 431.921 115.51L427.609 116.06C427.807 114.608 428.643 113.486 430.051 113.486Z" fill="#333333"/>
<path d="M561.002 62H566.062C569.01 62 571.078 60.328 571.078 57.732C571.078 55.4 569.384 54.432 568.526 54.08C569.296 53.486 570.286 52.408 570.286 50.846C570.286 49.152 569.098 47.326 565.314 47.326H561.002V62ZM563.268 60.108V55.422H565.732C567.778 55.422 568.68 56.412 568.68 57.776C568.68 59.162 567.778 60.108 565.732 60.108H563.268ZM563.268 49.218H564.984C567.272 49.218 567.888 50.12 567.888 51.22C567.888 52.804 566.48 53.552 566.48 53.552H563.268V49.218ZM572.943 57.182C572.943 59.844 574.637 62.264 577.959 62.264C580.445 62.264 581.963 60.834 581.963 60.834L581.347 59.25C581.347 59.25 579.961 60.482 578.289 60.482C576.551 60.482 575.451 59.316 575.209 57.512L580.643 56.786L581.897 56.434C581.897 53.42 580.181 51.792 577.805 51.792C574.901 51.792 572.943 54.146 572.943 57.182ZM577.651 53.486C579.389 53.486 579.521 55.51 579.521 55.51L575.209 56.06C575.407 54.608 576.243 53.486 577.651 53.486ZM584.388 62H586.566V46.27L584.388 46.622V62ZM590.773 49.68C591.565 49.68 592.159 49.108 592.159 48.338C592.159 47.568 591.565 46.996 590.773 46.996C590.003 46.996 589.409 47.568 589.409 48.338C589.409 49.108 590.003 49.68 590.773 49.68ZM589.673 62H591.851V52.056H589.673V62ZM594.298 57.182C594.298 59.844 595.992 62.264 599.314 62.264C601.8 62.264 603.318 60.834 603.318 60.834L602.702 59.25C602.702 59.25 601.316 60.482 599.644 60.482C597.906 60.482 596.806 59.316 596.564 57.512L601.998 56.786L603.252 56.434C603.252 53.42 601.536 51.792 599.16 51.792C596.256 51.792 594.298 54.146 594.298 57.182ZM599.006 53.486C600.744 53.486 600.876 55.51 600.876 55.51L596.564 56.06C596.762 54.608 597.598 53.486 599.006 53.486ZM608.097 62.088H610.121L614.213 52.056H611.991L609.197 59.272L606.777 52.056H604.489L608.097 62.088ZM615.224 57.182C615.224 59.844 616.918 62.264 620.24 62.264C622.726 62.264 624.244 60.834 624.244 60.834L623.628 59.25C623.628 59.25 622.242 60.482 620.57 60.482C618.832 60.482 617.732 59.316 617.49 57.512L622.924 56.786L624.178 56.434C624.178 53.42 622.462 51.792 620.086 51.792C617.182 51.792 615.224 54.146 615.224 57.182ZM619.932 53.486C621.67 53.486 621.802 55.51 621.802 55.51L617.49 56.06C617.688 54.608 618.524 53.486 619.932 53.486ZM632.482 59.294C632.482 61.34 633.604 62.264 635.32 62.264C637.08 62.264 638.378 61.208 638.378 61.208L637.828 59.558C637.564 59.712 636.64 60.438 635.804 60.438C635.078 60.438 634.66 59.954 634.66 58.744V53.706H637.806V52.056H634.66V49.24L632.526 49.702V51.968L631.008 52.518V53.706H632.482V59.294ZM640.269 62H642.447V55.598C643.107 54.938 644.537 53.684 645.637 53.684C646.385 53.684 646.825 54.212 646.825 55.62V62H649.003V54.828C649.003 52.694 647.925 51.792 646.341 51.792C644.515 51.792 643.107 53.024 642.447 53.728V46.27L640.269 46.622V62ZM651.142 59.712C651.142 61.186 652.264 62.264 654.002 62.264C655.938 62.264 656.95 61.032 657.214 60.614C657.5 61.406 658.138 62.044 659.656 62.154L660.316 60.438C660.316 60.438 659.216 60.416 659.216 59.184V54.982C659.216 52.76 658.468 51.792 656.114 51.792C653.496 51.792 651.802 53.046 651.802 53.046L652.374 54.674C652.374 54.674 653.892 53.53 655.52 53.53C657.126 53.53 657.038 54.63 657.038 55.884C653.32 56.368 651.142 57.622 651.142 59.712ZM654.552 60.548C653.914 60.548 653.386 60.262 653.386 59.558C653.386 58.392 654.508 57.666 657.038 57.292V59.008C656.378 59.778 655.564 60.548 654.552 60.548ZM662.947 59.294C662.947 61.34 664.069 62.264 665.785 62.264C667.545 62.264 668.843 61.208 668.843 61.208L668.293 59.558C668.029 59.712 667.105 60.438 666.269 60.438C665.543 60.438 665.125 59.954 665.125 58.744V53.706H668.271V52.056H665.125V49.24L662.991 49.702V51.968L661.473 52.518V53.706H662.947V59.294ZM680.485 52.144L682.399 51.066C681.365 49.966 681.079 49.35 681.079 48.646C681.079 47.876 681.453 47.194 682.289 46.556L681.453 45.676C680.045 46.754 679.319 48.074 679.319 49.394C679.319 50.34 679.649 51.242 680.485 52.144ZM676.635 52.144L678.549 51.066C677.515 49.966 677.229 49.35 677.229 48.646C677.229 47.876 677.603 47.194 678.439 46.556L677.603 45.676C676.195 46.754 675.469 48.074 675.469 49.394C675.469 50.34 675.799 51.242 676.635 52.144ZM685.096 62H687.362V47.326H685.096V62ZM695.532 57.16C695.532 60.042 697.534 62.264 700.636 62.264C703.012 62.264 704.156 60.988 704.156 60.988L703.452 59.448C703.452 59.448 702.374 60.482 700.79 60.482C698.92 60.482 697.798 59.008 697.798 57.05C697.798 55.026 699.008 53.552 700.812 53.552C702.264 53.552 703.298 54.476 703.298 54.476L704.156 52.848C704.156 52.848 702.946 51.792 700.768 51.792C697.49 51.792 695.532 54.41 695.532 57.16ZM705.518 59.712C705.518 61.186 706.64 62.264 708.378 62.264C710.314 62.264 711.326 61.032 711.59 60.614C711.876 61.406 712.514 62.044 714.032 62.154L714.692 60.438C714.692 60.438 713.592 60.416 713.592 59.184V54.982C713.592 52.76 712.844 51.792 710.49 51.792C707.872 51.792 706.178 53.046 706.178 53.046L706.75 54.674C706.75 54.674 708.268 53.53 709.896 53.53C711.502 53.53 711.414 54.63 711.414 55.884C707.696 56.368 705.518 57.622 705.518 59.712ZM708.928 60.548C708.29 60.548 707.762 60.262 707.762 59.558C707.762 58.392 708.884 57.666 711.414 57.292V59.008C710.754 59.778 709.94 60.548 708.928 60.548ZM716.838 62H719.016V55.554C719.698 54.894 721.106 53.684 722.206 53.684C722.954 53.684 723.394 54.212 723.394 55.62V62H725.572V54.828C725.572 52.694 724.494 51.792 722.932 51.792C721.106 51.792 719.676 53.002 718.972 53.772V51.88L716.838 52.232V62ZM733.173 57.336C733.173 60.064 734.845 62.264 737.441 62.264C739.025 62.264 740.037 61.494 740.565 60.636C740.675 61.34 740.873 62.154 740.873 62.154L742.963 62C742.963 62 742.523 60.152 742.523 58.942V46.27L740.345 46.622V52.122C740.059 52.012 739.399 51.792 738.497 51.792C734.977 51.792 733.173 54.498 733.173 57.336ZM737.815 60.526C736.407 60.526 735.461 59.272 735.461 57.204C735.461 54.828 736.715 53.508 738.607 53.508C739.509 53.508 740.301 53.838 740.345 54.828V58.92C740.037 59.382 739.157 60.526 737.815 60.526ZM744.967 57.072C744.967 59.712 746.749 62.264 750.049 62.264C753.635 62.264 755.219 59.25 755.219 56.83C755.219 54.278 753.437 51.792 750.137 51.792C746.573 51.792 744.967 54.586 744.967 57.072ZM747.233 56.874C747.233 54.894 748.399 53.53 750.093 53.53C752.117 53.53 752.953 55.356 752.953 57.116C752.953 59.118 751.787 60.526 750.115 60.526C748.135 60.526 747.233 58.722 747.233 56.874ZM561.068 89.294C561.068 91.34 562.19 92.264 563.906 92.264C565.666 92.264 566.964 91.208 566.964 91.208L566.414 89.558C566.15 89.712 565.226 90.438 564.39 90.438C563.664 90.438 563.246 89.954 563.246 88.744V83.706H566.392V82.056H563.246V79.24L561.112 79.702V81.968L559.594 82.518V83.706H561.068V89.294ZM568.854 92H571.032V85.598C571.692 84.938 573.122 83.684 574.222 83.684C574.97 83.684 575.41 84.212 575.41 85.62V92H577.588V84.828C577.588 82.694 576.51 81.792 574.926 81.792C573.1 81.792 571.692 83.024 571.032 83.728V76.27L568.854 76.622V92ZM581.663 79.68C582.455 79.68 583.049 79.108 583.049 78.338C583.049 77.568 582.455 76.996 581.663 76.996C580.893 76.996 580.299 77.568 580.299 78.338C580.299 79.108 580.893 79.68 581.663 79.68ZM580.563 92H582.741V82.056H580.563V92ZM585.145 91.384C585.145 91.384 586.377 92.264 588.445 92.264C590.887 92.264 592.317 91.054 592.317 89.25C592.317 86.082 587.543 86.236 587.543 84.498C587.543 83.926 588.027 83.508 589.127 83.508C590.403 83.508 591.547 84.124 591.547 84.124L592.053 82.342C592.053 82.342 590.953 81.792 589.215 81.792C586.465 81.792 585.365 83.134 585.365 84.674C585.365 87.798 590.139 87.666 590.139 89.448C590.139 90.086 589.589 90.548 588.423 90.548C586.817 90.548 585.607 89.536 585.607 89.536L585.145 91.384ZM598.66 82.144C600.068 81.044 600.794 79.746 600.794 78.404C600.794 77.458 600.464 76.556 599.628 75.676L597.714 76.732C598.748 77.832 599.034 78.448 599.034 79.152C599.034 79.922 598.66 80.604 597.824 81.242L598.66 82.144ZM594.81 82.144C596.218 81.044 596.944 79.746 596.944 78.404C596.944 77.458 596.614 76.556 595.778 75.676L593.842 76.732C594.898 77.832 595.184 78.448 595.184 79.152C595.184 79.922 594.81 80.604 593.974 81.242L594.81 82.144ZM610.518 92.088H612.63L615.182 85.004L617.47 92.088H619.604L623.168 82.056H620.946L618.548 89.536L616.216 82.056H614.324L611.75 89.58L609.572 82.056H607.328L610.518 92.088ZM626.136 79.68C626.928 79.68 627.522 79.108 627.522 78.338C627.522 77.568 626.928 76.996 626.136 76.996C625.366 76.996 624.772 77.568 624.772 78.338C624.772 79.108 625.366 79.68 626.136 79.68ZM625.036 92H627.214V82.056H625.036V92ZM630.849 89.294C630.849 91.34 631.971 92.264 633.687 92.264C635.447 92.264 636.745 91.208 636.745 91.208L636.195 89.558C635.931 89.712 635.007 90.438 634.171 90.438C633.445 90.438 633.027 89.954 633.027 88.744V83.706H636.173V82.056H633.027V79.24L630.893 79.702V81.968L629.375 82.518V83.706H630.849V89.294ZM638.636 92H640.814V85.598C641.474 84.938 642.904 83.684 644.004 83.684C644.752 83.684 645.192 84.212 645.192 85.62V92H647.37V84.828C647.37 82.694 646.292 81.792 644.708 81.792C642.882 81.792 641.474 83.024 640.814 83.728V76.27L638.636 76.622V92ZM656.158 89.294C656.158 91.34 657.28 92.264 658.996 92.264C660.756 92.264 662.054 91.208 662.054 91.208L661.504 89.558C661.24 89.712 660.316 90.438 659.48 90.438C658.754 90.438 658.336 89.954 658.336 88.744V83.706H661.482V82.056H658.336V79.24L656.202 79.702V81.968L654.684 82.518V83.706H656.158V89.294ZM663.944 92H666.122V85.598C666.782 84.938 668.212 83.684 669.312 83.684C670.06 83.684 670.5 84.212 670.5 85.62V92H672.678V84.828C672.678 82.694 671.6 81.792 670.016 81.792C668.19 81.792 666.782 83.024 666.122 83.728V76.27L663.944 76.622V92ZM674.993 87.182C674.993 89.844 676.687 92.264 680.009 92.264C682.495 92.264 684.013 90.834 684.013 90.834L683.397 89.25C683.397 89.25 682.011 90.482 680.339 90.482C678.601 90.482 677.501 89.316 677.259 87.512L682.693 86.786L683.947 86.434C683.947 83.42 682.231 81.792 679.855 81.792C676.951 81.792 674.993 84.146 674.993 87.182ZM679.701 83.486C681.439 83.486 681.571 85.51 681.571 85.51L677.259 86.06C677.457 84.608 678.293 83.486 679.701 83.486ZM691.68 92H693.858V85.84C694.276 85.18 695.178 83.992 696.278 83.992C696.718 83.992 697.158 84.168 697.158 84.168L697.598 81.968C697.598 81.968 697.29 81.792 696.74 81.792C695.222 81.792 694.21 83.2 693.814 83.882V81.88L691.68 82.232V92ZM700.472 79.68C701.264 79.68 701.858 79.108 701.858 78.338C701.858 77.568 701.264 76.996 700.472 76.996C699.702 76.996 699.108 77.568 699.108 78.338C699.108 79.108 699.702 79.68 700.472 79.68ZM699.372 92H701.55V82.056H699.372V92ZM704.591 90.24C704.591 90.922 705.229 91.318 706.219 91.648C705.163 92.198 703.689 93.144 703.689 94.596C703.689 96.334 705.845 97.214 708.045 97.214C711.037 97.214 713.479 95.52 713.479 93.518C713.479 91.692 711.477 91.142 709.717 90.702C707.649 90.196 706.681 89.998 706.681 89.602C706.681 89.36 707.033 89.096 707.495 88.788C707.715 88.832 707.957 88.832 708.221 88.832C710.355 88.832 712.621 87.666 712.621 85.488C712.621 84.608 712.203 84.014 711.895 83.662C712.159 83.706 712.467 83.728 712.709 83.728H713.897L713.743 81.99C713.743 81.99 713.083 82.21 712.423 82.21H711.279C710.179 82.21 709.607 81.792 708.397 81.792C706.175 81.792 704.173 83.046 704.173 85.268C704.173 86.61 704.899 87.776 706.153 88.392C705.339 88.854 704.591 89.514 704.591 90.24ZM708.463 92.22C710.311 92.704 711.345 92.99 711.345 93.848C711.345 94.838 709.937 95.63 708.177 95.63C706.923 95.63 705.647 95.234 705.647 94.244C705.647 93.254 706.857 92.594 707.803 92.066C708.023 92.11 708.243 92.154 708.463 92.22ZM708.375 87.292C706.967 87.292 706.307 86.28 706.307 85.334C706.307 84.3 707.055 83.332 708.375 83.332C709.783 83.332 710.465 84.476 710.465 85.444C710.465 86.566 709.585 87.292 708.375 87.292ZM715.786 92H717.964V85.598C718.624 84.938 720.054 83.684 721.154 83.684C721.902 83.684 722.342 84.212 722.342 85.62V92H724.52V84.828C724.52 82.694 723.442 81.792 721.858 81.792C720.032 81.792 718.624 83.024 717.964 83.728V76.27L715.786 76.622V92ZM728.023 89.294C728.023 91.34 729.145 92.264 730.861 92.264C732.621 92.264 733.919 91.208 733.919 91.208L733.369 89.558C733.105 89.712 732.181 90.438 731.345 90.438C730.619 90.438 730.201 89.954 730.201 88.744V83.706H733.347V82.056H730.201V79.24L728.067 79.702V81.968L726.549 82.518V83.706H728.023V89.294ZM559.836 121.384C559.836 121.384 561.068 122.264 563.136 122.264C565.578 122.264 567.008 121.054 567.008 119.25C567.008 116.082 562.234 116.236 562.234 114.498C562.234 113.926 562.718 113.508 563.818 113.508C565.094 113.508 566.238 114.124 566.238 114.124L566.744 112.342C566.744 112.342 565.644 111.792 563.906 111.792C561.156 111.792 560.056 113.134 560.056 114.674C560.056 117.798 564.83 117.666 564.83 119.448C564.83 120.086 564.28 120.548 563.114 120.548C561.508 120.548 560.298 119.536 560.298 119.536L559.836 121.384ZM569.282 119.272C569.282 121.406 570.382 122.264 571.988 122.264C573.814 122.264 575.2 121.098 575.838 120.416C575.948 121.142 576.168 122.176 576.168 122.176L578.28 121.978C578.28 121.978 577.84 120.152 577.84 118.942V112.056H575.662V118.744C575.046 119.316 573.814 120.372 572.692 120.372C571.878 120.372 571.46 119.822 571.46 118.436V112.056H569.282V119.272ZM580.949 127.126L583.127 126.774V121.736C583.545 122.044 584.293 122.264 585.217 122.264C588.385 122.264 590.233 119.668 590.233 116.72C590.233 114.014 588.649 111.792 586.031 111.792C584.469 111.792 583.523 112.606 583.061 113.464V111.88L580.949 112.232V127.126ZM585.657 113.596C586.999 113.596 587.945 114.806 587.945 116.874C587.945 119.25 586.691 120.548 584.821 120.548C583.787 120.548 583.127 120.174 583.127 119.426V115.202C583.413 114.784 584.337 113.596 585.657 113.596ZM592.615 127.126L594.793 126.774V121.736C595.211 122.044 595.959 122.264 596.883 122.264C600.051 122.264 601.899 119.668 601.899 116.72C601.899 114.014 600.315 111.792 597.697 111.792C596.135 111.792 595.189 112.606 594.727 113.464V111.88L592.615 112.232V127.126ZM597.323 113.596C598.665 113.596 599.611 114.806 599.611 116.874C599.611 119.25 598.357 120.548 596.487 120.548C595.453 120.548 594.793 120.174 594.793 119.426V115.202C595.079 114.784 596.003 113.596 597.323 113.596ZM603.643 117.072C603.643 119.712 605.425 122.264 608.725 122.264C612.311 122.264 613.895 119.25 613.895 116.83C613.895 114.278 612.113 111.792 608.813 111.792C605.249 111.792 603.643 114.586 603.643 117.072ZM605.909 116.874C605.909 114.894 607.075 113.53 608.769 113.53C610.793 113.53 611.629 115.356 611.629 117.116C611.629 119.118 610.463 120.526 608.791 120.526C606.811 120.526 605.909 118.722 605.909 116.874ZM616.248 122H618.426V115.84C618.844 115.18 619.746 113.992 620.846 113.992C621.286 113.992 621.726 114.168 621.726 114.168L622.166 111.968C622.166 111.968 621.858 111.792 621.308 111.792C619.79 111.792 618.778 113.2 618.382 113.882V111.88L616.248 112.232V122ZM624.468 119.294C624.468 121.34 625.59 122.264 627.306 122.264C629.066 122.264 630.364 121.208 630.364 121.208L629.814 119.558C629.55 119.712 628.626 120.438 627.79 120.438C627.064 120.438 626.646 119.954 626.646 118.744V113.706H629.792V112.056H626.646V109.24L624.512 109.702V111.968L622.994 112.518V113.706H624.468V119.294ZM631.925 120.79C631.925 121.604 632.585 122.264 633.399 122.264C634.213 122.264 634.895 121.604 634.895 120.79C634.895 119.954 634.213 119.294 633.399 119.294C632.585 119.294 631.925 119.954 631.925 120.79Z" fill="#333333"/>
<path d="M813.002 63H815.268V57.104H817.534L821.45 63H824.134L819.822 56.576C821.296 55.894 822.638 54.508 822.638 52.506C822.638 50.284 821.098 48.326 817.314 48.326H813.002V63ZM815.268 55.212V50.218H816.94C819.382 50.218 820.24 51.34 820.24 52.66C820.24 54.288 818.92 55.212 817.27 55.212H815.268ZM824.921 58.182C824.921 60.844 826.615 63.264 829.937 63.264C832.423 63.264 833.941 61.834 833.941 61.834L833.325 60.25C833.325 60.25 831.939 61.482 830.267 61.482C828.529 61.482 827.429 60.316 827.187 58.512L832.621 57.786L833.875 57.434C833.875 54.42 832.159 52.792 829.783 52.792C826.879 52.792 824.921 55.146 824.921 58.182ZM829.629 54.486C831.367 54.486 831.499 56.51 831.499 56.51L827.187 57.06C827.385 55.608 828.221 54.486 829.629 54.486ZM835.53 60.712C835.53 62.186 836.652 63.264 838.39 63.264C840.326 63.264 841.338 62.032 841.602 61.614C841.888 62.406 842.526 63.044 844.044 63.154L844.704 61.438C844.704 61.438 843.604 61.416 843.604 60.184V55.982C843.604 53.76 842.856 52.792 840.502 52.792C837.884 52.792 836.19 54.046 836.19 54.046L836.762 55.674C836.762 55.674 838.28 54.53 839.908 54.53C841.514 54.53 841.426 55.63 841.426 56.884C837.708 57.368 835.53 58.622 835.53 60.712ZM838.94 61.548C838.302 61.548 837.774 61.262 837.774 60.558C837.774 59.392 838.896 58.666 841.426 58.292V60.008C840.766 60.778 839.952 61.548 838.94 61.548ZM846.894 63H849.072V47.27L846.894 47.622V63ZM853.279 50.68C854.071 50.68 854.665 50.108 854.665 49.338C854.665 48.568 854.071 47.996 853.279 47.996C852.509 47.996 851.915 48.568 851.915 49.338C851.915 50.108 852.509 50.68 853.279 50.68ZM852.179 63H854.357V53.056H852.179V63ZM856.782 63H864.768V61.24H859.532L864.592 54.376V53.056H856.958V54.816H861.732L856.782 61.68V63ZM866.407 58.182C866.407 60.844 868.101 63.264 871.423 63.264C873.909 63.264 875.427 61.834 875.427 61.834L874.811 60.25C874.811 60.25 873.425 61.482 871.753 61.482C870.015 61.482 868.915 60.316 868.673 58.512L874.107 57.786L875.361 57.434C875.361 54.42 873.645 52.792 871.269 52.792C868.365 52.792 866.407 55.146 866.407 58.182ZM871.115 54.486C872.853 54.486 872.985 56.51 872.985 56.51L868.673 57.06C868.871 55.608 869.707 54.486 871.115 54.486ZM883.666 60.294C883.666 62.34 884.788 63.264 886.504 63.264C888.264 63.264 889.562 62.208 889.562 62.208L889.012 60.558C888.748 60.712 887.824 61.438 886.988 61.438C886.262 61.438 885.844 60.954 885.844 59.744V54.706H888.99V53.056H885.844V50.24L883.71 50.702V52.968L882.192 53.518V54.706H883.666V60.294ZM891.452 63H893.63V56.598C894.29 55.938 895.72 54.684 896.82 54.684C897.568 54.684 898.008 55.212 898.008 56.62V63H900.186V55.828C900.186 53.694 899.108 52.792 897.524 52.792C895.698 52.792 894.29 54.024 893.63 54.728V47.27L891.452 47.622V63ZM902.325 60.712C902.325 62.186 903.447 63.264 905.185 63.264C907.121 63.264 908.133 62.032 908.397 61.614C908.683 62.406 909.321 63.044 910.839 63.154L911.499 61.438C911.499 61.438 910.399 61.416 910.399 60.184V55.982C910.399 53.76 909.651 52.792 907.297 52.792C904.679 52.792 902.985 54.046 902.985 54.046L903.557 55.674C903.557 55.674 905.075 54.53 906.703 54.53C908.309 54.53 908.221 55.63 908.221 56.884C904.503 57.368 902.325 58.622 902.325 60.712ZM905.735 61.548C905.097 61.548 904.569 61.262 904.569 60.558C904.569 59.392 905.691 58.666 908.221 58.292V60.008C907.561 60.778 906.747 61.548 905.735 61.548ZM914.131 60.294C914.131 62.34 915.253 63.264 916.969 63.264C918.729 63.264 920.027 62.208 920.027 62.208L919.477 60.558C919.213 60.712 918.289 61.438 917.453 61.438C916.727 61.438 916.309 60.954 916.309 59.744V54.706H919.455V53.056H916.309V50.24L914.175 50.702V52.968L912.657 53.518V54.706H914.131V60.294ZM927.664 63H929.93V48.326H927.664V63ZM938.1 58.16C938.1 61.042 940.102 63.264 943.204 63.264C945.58 63.264 946.724 61.988 946.724 61.988L946.02 60.448C946.02 60.448 944.942 61.482 943.358 61.482C941.488 61.482 940.366 60.008 940.366 58.05C940.366 56.026 941.576 54.552 943.38 54.552C944.832 54.552 945.866 55.476 945.866 55.476L946.724 53.848C946.724 53.848 945.514 52.792 943.336 52.792C940.058 52.792 938.1 55.41 938.1 58.16ZM948.087 60.712C948.087 62.186 949.209 63.264 950.947 63.264C952.883 63.264 953.895 62.032 954.159 61.614C954.445 62.406 955.083 63.044 956.601 63.154L957.261 61.438C957.261 61.438 956.161 61.416 956.161 60.184V55.982C956.161 53.76 955.413 52.792 953.059 52.792C950.441 52.792 948.747 54.046 948.747 54.046L949.319 55.674C949.319 55.674 950.837 54.53 952.465 54.53C954.071 54.53 953.983 55.63 953.983 56.884C950.265 57.368 948.087 58.622 948.087 60.712ZM951.497 61.548C950.859 61.548 950.331 61.262 950.331 60.558C950.331 59.392 951.453 58.666 953.983 58.292V60.008C953.323 60.778 952.509 61.548 951.497 61.548ZM959.406 63H961.584V56.554C962.266 55.894 963.674 54.684 964.774 54.684C965.522 54.684 965.962 55.212 965.962 56.62V63H968.14V55.828C968.14 53.694 967.062 52.792 965.5 52.792C963.674 52.792 962.244 54.002 961.54 54.772V52.88L959.406 53.232V63ZM976.401 63H978.579V47.27L976.401 47.622V63ZM982.786 50.68C983.578 50.68 984.172 50.108 984.172 49.338C984.172 48.568 983.578 47.996 982.786 47.996C982.016 47.996 981.422 48.568 981.422 49.338C981.422 50.108 982.016 50.68 982.786 50.68ZM981.686 63H983.864V53.056H981.686V63ZM989.326 63.088H991.35L995.442 53.056H993.22L990.426 60.272L988.006 53.056H985.718L989.326 63.088ZM996.452 58.182C996.452 60.844 998.146 63.264 1001.47 63.264C1003.95 63.264 1005.47 61.834 1005.47 61.834L1004.86 60.25C1004.86 60.25 1003.47 61.482 1001.8 61.482C1000.06 61.482 998.96 60.316 998.718 58.512L1004.15 57.786L1005.41 57.434C1005.41 54.42 1003.69 52.792 1001.31 52.792C998.41 52.792 996.452 55.146 996.452 58.182ZM1001.16 54.486C1002.9 54.486 1003.03 56.51 1003.03 56.51L998.718 57.06C998.916 55.608 999.752 54.486 1001.16 54.486ZM1012.35 60.712C1012.35 62.186 1013.47 63.264 1015.21 63.264C1017.14 63.264 1018.15 62.032 1018.42 61.614C1018.7 62.406 1019.34 63.044 1020.86 63.154L1021.52 61.438C1021.52 61.438 1020.42 61.416 1020.42 60.184V55.982C1020.42 53.76 1019.67 52.792 1017.32 52.792C1014.7 52.792 1013.01 54.046 1013.01 54.046L1013.58 55.674C1013.58 55.674 1015.1 54.53 1016.72 54.53C1018.33 54.53 1018.24 55.63 1018.24 56.884C1014.52 57.368 1012.35 58.622 1012.35 60.712ZM1015.76 61.548C1015.12 61.548 1014.59 61.262 1014.59 60.558C1014.59 59.392 1015.71 58.666 1018.24 58.292V60.008C1017.58 60.778 1016.77 61.548 1015.76 61.548ZM811.55 84.706H813.112V93H815.29V84.706H818.04V83.056H815.29V81.868C815.29 79.536 816.346 78.722 817.512 78.722C818.59 78.722 819.558 79.426 819.558 79.426L820.416 77.754C820.416 77.754 819.272 76.918 817.534 76.918C814.938 76.918 813.112 78.744 813.112 82V82.968L811.55 83.54V84.706ZM819.928 90.272C819.928 92.406 821.028 93.264 822.634 93.264C824.46 93.264 825.846 92.098 826.484 91.416C826.594 92.142 826.814 93.176 826.814 93.176L828.926 92.978C828.926 92.978 828.486 91.152 828.486 89.942V83.056H826.308V89.744C825.692 90.316 824.46 91.372 823.338 91.372C822.524 91.372 822.106 90.822 822.106 89.436V83.056H819.928V90.272ZM831.64 93H833.818V77.27L831.64 77.622V93ZM836.925 93H839.103V77.27L836.925 77.622V93ZM847.495 93H849.673V77.27L847.495 77.622V93ZM853.88 80.68C854.672 80.68 855.266 80.108 855.266 79.338C855.266 78.568 854.672 77.996 853.88 77.996C853.11 77.996 852.516 78.568 852.516 79.338C852.516 80.108 853.11 80.68 853.88 80.68ZM852.78 93H854.958V83.056H852.78V93ZM857.075 84.706H858.637V93H860.815V84.706H863.565V83.056H860.815V81.868C860.815 79.536 861.871 78.722 863.037 78.722C864.115 78.722 865.083 79.426 865.083 79.426L865.941 77.754C865.941 77.754 864.797 76.918 863.059 76.918C860.463 76.918 858.637 78.744 858.637 82V82.968L857.075 83.54V84.706ZM864.753 88.182C864.753 90.844 866.447 93.264 869.769 93.264C872.255 93.264 873.773 91.834 873.773 91.834L873.157 90.25C873.157 90.25 871.771 91.482 870.099 91.482C868.361 91.482 867.261 90.316 867.019 88.512L872.453 87.786L873.707 87.434C873.707 84.42 871.991 82.792 869.615 82.792C866.711 82.792 864.753 85.146 864.753 88.182ZM869.461 84.486C871.199 84.486 871.331 86.51 871.331 86.51L867.019 87.06C867.217 85.608 868.053 84.486 869.461 84.486ZM880.823 88.182C880.823 90.844 882.517 93.264 885.839 93.264C888.325 93.264 889.843 91.834 889.843 91.834L889.227 90.25C889.227 90.25 887.841 91.482 886.169 91.482C884.431 91.482 883.331 90.316 883.089 88.512L888.523 87.786L889.777 87.434C889.777 84.42 888.061 82.792 885.685 82.792C882.781 82.792 880.823 85.146 880.823 88.182ZM885.531 84.486C887.269 84.486 887.401 86.51 887.401 86.51L883.089 87.06C883.287 85.608 884.123 84.486 885.531 84.486ZM894.623 93.088H896.647L900.739 83.056H898.517L895.723 90.272L893.303 83.056H891.015L894.623 93.088ZM901.749 88.182C901.749 90.844 903.443 93.264 906.765 93.264C909.251 93.264 910.769 91.834 910.769 91.834L910.153 90.25C910.153 90.25 908.767 91.482 907.095 91.482C905.357 91.482 904.257 90.316 904.015 88.512L909.449 87.786L910.703 87.434C910.703 84.42 908.987 82.792 906.611 82.792C903.707 82.792 901.749 85.146 901.749 88.182ZM906.457 84.486C908.195 84.486 908.327 86.51 908.327 86.51L904.015 87.06C904.213 85.608 905.049 84.486 906.457 84.486ZM913.15 93H915.328V86.554C916.01 85.894 917.418 84.684 918.518 84.684C919.266 84.684 919.706 85.212 919.706 86.62V93H921.884V85.828C921.884 83.694 920.806 82.792 919.244 82.792C917.418 82.792 915.988 84.002 915.284 84.772V82.88L913.15 83.232V93ZM932.191 93.088H934.303L936.855 86.004L939.143 93.088H941.277L944.841 83.056H942.619L940.221 90.536L937.889 83.056H935.997L933.423 90.58L931.245 83.056H929.001L932.191 93.088ZM947.81 80.68C948.602 80.68 949.196 80.108 949.196 79.338C949.196 78.568 948.602 77.996 947.81 77.996C947.04 77.996 946.446 78.568 946.446 79.338C946.446 80.108 947.04 80.68 947.81 80.68ZM946.71 93H948.888V83.056H946.71V93ZM952.523 90.294C952.523 92.34 953.645 93.264 955.361 93.264C957.121 93.264 958.419 92.208 958.419 92.208L957.869 90.558C957.605 90.712 956.681 91.438 955.845 91.438C955.119 91.438 954.701 90.954 954.701 89.744V84.706H957.847V83.056H954.701V80.24L952.567 80.702V82.968L951.049 83.518V84.706H952.523V90.294ZM960.31 93H962.488V86.598C963.148 85.938 964.578 84.684 965.678 84.684C966.426 84.684 966.866 85.212 966.866 86.62V93H969.044V85.828C969.044 83.694 967.966 82.792 966.382 82.792C964.556 82.792 963.148 84.024 962.488 84.728V77.27L960.31 77.622V93ZM976.468 90.712C976.468 92.186 977.59 93.264 979.328 93.264C981.264 93.264 982.276 92.032 982.54 91.614C982.826 92.406 983.464 93.044 984.982 93.154L985.642 91.438C985.642 91.438 984.542 91.416 984.542 90.184V85.982C984.542 83.76 983.794 82.792 981.44 82.792C978.822 82.792 977.128 84.046 977.128 84.046L977.7 85.674C977.7 85.674 979.218 84.53 980.846 84.53C982.452 84.53 982.364 85.63 982.364 86.884C978.646 87.368 976.468 88.622 976.468 90.712ZM979.878 91.548C979.24 91.548 978.712 91.262 978.712 90.558C978.712 89.392 979.834 88.666 982.364 88.292V90.008C981.704 90.778 980.89 91.548 979.878 91.548ZM811.858 118.16C811.858 121.042 813.86 123.264 816.962 123.264C819.338 123.264 820.482 121.988 820.482 121.988L819.778 120.448C819.778 120.448 818.7 121.482 817.116 121.482C815.246 121.482 814.124 120.008 814.124 118.05C814.124 116.026 815.334 114.552 817.138 114.552C818.59 114.552 819.624 115.476 819.624 115.476L820.482 113.848C820.482 113.848 819.272 112.792 817.094 112.792C813.816 112.792 811.858 115.41 811.858 118.16ZM822.681 123H824.859V116.598C825.519 115.938 826.949 114.684 828.049 114.684C828.797 114.684 829.237 115.212 829.237 116.62V123H831.415V115.828C831.415 113.694 830.337 112.792 828.753 112.792C826.927 112.792 825.519 114.024 824.859 114.728V107.27L822.681 107.622V123ZM834.346 123H836.524V116.84C836.942 116.18 837.844 114.992 838.944 114.992C839.384 114.992 839.824 115.168 839.824 115.168L840.264 112.968C840.264 112.968 839.956 112.792 839.406 112.792C837.888 112.792 836.876 114.2 836.48 114.882V112.88L834.346 113.232V123ZM841.184 118.072C841.184 120.712 842.966 123.264 846.266 123.264C849.852 123.264 851.436 120.25 851.436 117.83C851.436 115.278 849.654 112.792 846.354 112.792C842.79 112.792 841.184 115.586 841.184 118.072ZM843.45 117.874C843.45 115.894 844.616 114.53 846.31 114.53C848.334 114.53 849.17 116.356 849.17 118.116C849.17 120.118 848.004 121.526 846.332 121.526C844.352 121.526 843.45 119.722 843.45 117.874ZM853.789 123H855.967V116.554C856.649 115.894 858.057 114.684 859.157 114.684C859.905 114.684 860.345 115.212 860.345 116.62V123H862.523V115.828C862.523 113.694 861.445 112.792 859.883 112.792C858.057 112.792 856.627 114.002 855.923 114.772V112.88L853.789 113.232V123ZM866.599 110.68C867.391 110.68 867.985 110.108 867.985 109.338C867.985 108.568 867.391 107.996 866.599 107.996C865.829 107.996 865.235 108.568 865.235 109.338C865.235 110.108 865.829 110.68 866.599 110.68ZM865.499 123H867.677V113.056H865.499V123ZM870.102 118.16C870.102 121.042 872.104 123.264 875.206 123.264C877.582 123.264 878.726 121.988 878.726 121.988L878.022 120.448C878.022 120.448 876.944 121.482 875.36 121.482C873.49 121.482 872.368 120.008 872.368 118.05C872.368 116.026 873.578 114.552 875.382 114.552C876.834 114.552 877.868 115.476 877.868 115.476L878.726 113.848C878.726 113.848 877.516 112.792 875.338 112.792C872.06 112.792 870.102 115.41 870.102 118.16ZM887.31 110.68C888.102 110.68 888.696 110.108 888.696 109.338C888.696 108.568 888.102 107.996 887.31 107.996C886.54 107.996 885.946 108.568 885.946 109.338C885.946 110.108 886.54 110.68 887.31 110.68ZM886.21 123H888.388V113.056H886.21V123ZM891.495 123H893.673V107.27L891.495 107.622V123ZM896.78 123H898.958V107.27L896.78 107.622V123ZM902.021 123H904.199V116.554C904.881 115.894 906.289 114.684 907.389 114.684C908.137 114.684 908.577 115.212 908.577 116.62V123H910.755V115.828C910.755 113.694 909.677 112.792 908.115 112.792C906.289 112.792 904.859 114.002 904.155 114.772V112.88L902.021 113.232V123ZM913.071 118.182C913.071 120.844 914.765 123.264 918.087 123.264C920.573 123.264 922.091 121.834 922.091 121.834L921.475 120.25C921.475 120.25 920.089 121.482 918.417 121.482C916.679 121.482 915.579 120.316 915.337 118.512L920.771 117.786L922.025 117.434C922.025 114.42 920.309 112.792 917.933 112.792C915.029 112.792 913.071 115.146 913.071 118.182ZM917.779 114.486C919.517 114.486 919.649 116.51 919.649 116.51L915.337 117.06C915.535 115.608 916.371 114.486 917.779 114.486ZM923.813 122.384C923.813 122.384 925.045 123.264 927.113 123.264C929.555 123.264 930.985 122.054 930.985 120.25C930.985 117.082 926.211 117.236 926.211 115.498C926.211 114.926 926.695 114.508 927.795 114.508C929.071 114.508 930.215 115.124 930.215 115.124L930.721 113.342C930.721 113.342 929.621 112.792 927.883 112.792C925.133 112.792 924.033 114.134 924.033 115.674C924.033 118.798 928.807 118.666 928.807 120.448C928.807 121.086 928.257 121.548 927.091 121.548C925.485 121.548 924.275 120.536 924.275 120.536L923.813 122.384ZM932.664 122.384C932.664 122.384 933.896 123.264 935.964 123.264C938.406 123.264 939.836 122.054 939.836 120.25C939.836 117.082 935.062 117.236 935.062 115.498C935.062 114.926 935.546 114.508 936.646 114.508C937.922 114.508 939.066 115.124 939.066 115.124L939.572 113.342C939.572 113.342 938.472 112.792 936.734 112.792C933.984 112.792 932.884 114.134 932.884 115.674C932.884 118.798 937.658 118.666 937.658 120.448C937.658 121.086 937.108 121.548 935.942 121.548C934.336 121.548 933.126 120.536 933.126 120.536L932.664 122.384ZM941.89 121.79C941.89 122.604 942.55 123.264 943.364 123.264C944.178 123.264 944.86 122.604 944.86 121.79C944.86 120.954 944.178 120.294 943.364 120.294C942.55 120.294 941.89 120.954 941.89 121.79Z" fill="#333333"/>
</svg>
