<svg width="1002" height="332" viewBox="0 0 1002 332" fill="none" xmlns="http://www.w3.org/2000/svg">
<path d="M2 331.495V108.99H229.14V331.495" stroke="#828282" stroke-width="4"/>
<path d="M511.906 331.495V108.99H739.046V331.495" stroke="#828282" stroke-width="4"/>
<path d="M256.953 331.495V108.99H484.093V331.495" stroke="#828282" stroke-width="4"/>
<path d="M766.859 331.495V108.99H994V331.495" stroke="#828282" stroke-width="4"/>
<rect x="11.2695" y="120.579" width="45.1963" height="173.832" fill="#DFDDE2"/>
<rect x="521" y="121" width="45" height="142" fill="#EDE3E4"/>
<rect x="266" y="121" width="45" height="173" fill="#EFE8DF"/>
<rect x="776" y="121" width="45" height="173" fill="#D9DFE9"/>
<rect x="65.7383" y="120.579" width="45.1963" height="202.804" fill="#DFDDE2"/>
<rect x="576" y="121" width="45" height="173" fill="#EDE3E4"/>
<rect x="321" y="121" width="45" height="142" fill="#EFE8DF"/>
<rect x="831" y="121" width="45" height="142" fill="#D9DFE9"/>
<rect x="175" y="121" width="45" height="160" fill="#DFDDE2"/>
<rect x="685" y="121" width="45" height="142" fill="#EDE3E4"/>
<rect x="430" y="121" width="45" height="155" fill="#EFE8DF"/>
<rect x="940" y="121" width="45" height="173" fill="#D9DFE9"/>
<rect x="120.207" y="120.579" width="45.1963" height="180.785" fill="#DFDDE2"/>
<rect x="630" y="121" width="45" height="173" fill="#EDE3E4"/>
<rect x="375" y="121" width="45" height="173" fill="#EFE8DF"/>
<rect x="885" y="121" width="45" height="142" fill="#D9DFE9"/>
<path d="M525.456 22.11H527.634L532.892 7.326H530.582L526.6 18.744L522.618 7.326H520.22L525.456 22.11ZM533.165 19.712C533.165 21.186 534.287 22.264 536.025 22.264C537.961 22.264 538.973 21.032 539.237 20.614C539.523 21.406 540.161 22.044 541.679 22.154L542.339 20.438C542.339 20.438 541.239 20.416 541.239 19.184V14.982C541.239 12.76 540.491 11.792 538.137 11.792C535.519 11.792 533.825 13.046 533.825 13.046L534.397 14.674C534.397 14.674 535.915 13.53 537.543 13.53C539.149 13.53 539.061 14.63 539.061 15.884C535.343 16.368 533.165 17.622 533.165 19.712ZM536.575 20.548C535.937 20.548 535.409 20.262 535.409 19.558C535.409 18.392 536.531 17.666 539.061 17.292V19.008C538.401 19.778 537.587 20.548 536.575 20.548ZM544.528 22H546.706V6.27L544.528 6.622V22ZM549.703 19.272C549.703 21.406 550.803 22.264 552.409 22.264C554.235 22.264 555.621 21.098 556.259 20.416C556.369 21.142 556.589 22.176 556.589 22.176L558.701 21.978C558.701 21.978 558.261 20.152 558.261 18.942V12.056H556.083V18.744C555.467 19.316 554.235 20.372 553.113 20.372C552.299 20.372 551.881 19.822 551.881 18.436V12.056H549.703V19.272ZM560.755 17.182C560.755 19.844 562.449 22.264 565.771 22.264C568.257 22.264 569.775 20.834 569.775 20.834L569.159 19.25C569.159 19.25 567.773 20.482 566.101 20.482C564.363 20.482 563.263 19.316 563.021 17.512L568.455 16.786L569.709 16.434C569.709 13.42 567.993 11.792 565.617 11.792C562.713 11.792 560.755 14.146 560.755 17.182ZM565.463 13.486C567.201 13.486 567.333 15.51 567.333 15.51L563.021 16.06C563.219 14.608 564.055 13.486 565.463 13.486ZM577.441 22H579.619V15.532C580.257 14.894 581.621 13.684 582.699 13.684C583.425 13.684 583.821 14.212 583.821 15.62V22H585.999V15.488C586.747 14.762 587.979 13.684 588.991 13.684C589.717 13.684 590.135 14.212 590.135 15.62V22H592.291V14.828C592.291 12.694 591.257 11.792 589.717 11.792C587.979 11.792 586.615 12.958 585.889 13.75C585.581 12.386 584.679 11.792 583.425 11.792C581.665 11.792 580.257 13.002 579.575 13.75V11.88L577.441 12.232V22ZM594.086 25.476L594.768 27.214C597.1 26.95 598.552 24.86 599.41 22.748L603.722 12.056H601.478L598.904 18.876L596.286 12.056H593.976L597.826 21.494L597.298 22.682C596.704 24.068 595.538 25.234 594.086 25.476ZM604.797 21.384C604.797 21.384 606.029 22.264 608.097 22.264C610.539 22.264 611.969 21.054 611.969 19.25C611.969 16.082 607.195 16.236 607.195 14.498C607.195 13.926 607.679 13.508 608.779 13.508C610.055 13.508 611.199 14.124 611.199 14.124L611.705 12.342C611.705 12.342 610.605 11.792 608.867 11.792C606.117 11.792 605.017 13.134 605.017 14.674C605.017 17.798 609.791 17.666 609.791 19.448C609.791 20.086 609.241 20.548 608.075 20.548C606.469 20.548 605.259 19.536 605.259 19.536L604.797 21.384ZM613.693 17.182C613.693 19.844 615.387 22.264 618.709 22.264C621.195 22.264 622.713 20.834 622.713 20.834L622.097 19.25C622.097 19.25 620.711 20.482 619.039 20.482C617.301 20.482 616.201 19.316 615.959 17.512L621.393 16.786L622.647 16.434C622.647 13.42 620.931 11.792 618.555 11.792C615.651 11.792 613.693 14.146 613.693 17.182ZM618.401 13.486C620.139 13.486 620.271 15.51 620.271 15.51L615.959 16.06C616.157 14.608 616.993 13.486 618.401 13.486ZM625.138 22H627.316V6.27L625.138 6.622V22ZM629.433 13.706H630.995V22H633.173V13.706H635.923V12.056H633.173V10.868C633.173 8.536 634.229 7.722 635.395 7.722C636.473 7.722 637.441 8.426 637.441 8.426L638.299 6.754C638.299 6.754 637.155 5.918 635.417 5.918C632.821 5.918 630.995 7.744 630.995 11V11.968L629.433 12.54V13.706ZM642.546 17.182C642.546 19.844 644.24 22.264 647.562 22.264C650.048 22.264 651.566 20.834 651.566 20.834L650.95 19.25C650.95 19.25 649.564 20.482 647.892 20.482C646.154 20.482 645.054 19.316 644.812 17.512L650.246 16.786L651.5 16.434C651.5 13.42 649.784 11.792 647.408 11.792C644.504 11.792 642.546 14.146 642.546 17.182ZM647.254 13.486C648.992 13.486 649.124 15.51 649.124 15.51L644.812 16.06C645.01 14.608 645.846 13.486 647.254 13.486ZM653.947 22H656.125V15.554C656.807 14.894 658.215 13.684 659.315 13.684C660.063 13.684 660.503 14.212 660.503 15.62V22H662.681V14.828C662.681 12.694 661.603 11.792 660.041 11.792C658.215 11.792 656.785 13.002 656.081 13.772V11.88L653.947 12.232V22ZM664.975 17.072C664.975 19.712 666.757 22.264 670.057 22.264C673.643 22.264 675.227 19.25 675.227 16.83C675.227 14.278 673.445 11.792 670.145 11.792C666.581 11.792 664.975 14.586 664.975 17.072ZM667.241 16.874C667.241 14.894 668.407 13.53 670.101 13.53C672.125 13.53 672.961 15.356 672.961 17.116C672.961 19.118 671.795 20.526 670.123 20.526C668.143 20.526 667.241 18.722 667.241 16.874ZM677.514 19.272C677.514 21.406 678.614 22.264 680.22 22.264C682.046 22.264 683.432 21.098 684.07 20.416C684.18 21.142 684.4 22.176 684.4 22.176L686.512 21.978C686.512 21.978 686.072 20.152 686.072 18.942V12.056H683.894V18.744C683.278 19.316 682.046 20.372 680.924 20.372C680.11 20.372 679.692 19.822 679.692 18.436V12.056H677.514V19.272ZM689.16 20.24C689.16 20.922 689.798 21.318 690.788 21.648C689.732 22.198 688.258 23.144 688.258 24.596C688.258 26.334 690.414 27.214 692.614 27.214C695.606 27.214 698.048 25.52 698.048 23.518C698.048 21.692 696.046 21.142 694.286 20.702C692.218 20.196 691.25 19.998 691.25 19.602C691.25 19.36 691.602 19.096 692.064 18.788C692.284 18.832 692.526 18.832 692.79 18.832C694.924 18.832 697.19 17.666 697.19 15.488C697.19 14.608 696.772 14.014 696.464 13.662C696.728 13.706 697.036 13.728 697.278 13.728H698.466L698.312 11.99C698.312 11.99 697.652 12.21 696.992 12.21H695.848C694.748 12.21 694.176 11.792 692.966 11.792C690.744 11.792 688.742 13.046 688.742 15.268C688.742 16.61 689.468 17.776 690.722 18.392C689.908 18.854 689.16 19.514 689.16 20.24ZM693.032 22.22C694.88 22.704 695.914 22.99 695.914 23.848C695.914 24.838 694.506 25.63 692.746 25.63C691.492 25.63 690.216 25.234 690.216 24.244C690.216 23.254 691.426 22.594 692.372 22.066C692.592 22.11 692.812 22.154 693.032 22.22ZM692.944 17.292C691.536 17.292 690.876 16.28 690.876 15.334C690.876 14.3 691.624 13.332 692.944 13.332C694.352 13.332 695.034 14.476 695.034 15.444C695.034 16.566 694.154 17.292 692.944 17.292ZM700.354 22H702.532V15.598C703.192 14.938 704.622 13.684 705.722 13.684C706.47 13.684 706.91 14.212 706.91 15.62V22H709.088V14.828C709.088 12.694 708.01 11.792 706.426 11.792C704.6 11.792 703.192 13.024 702.532 13.728V6.27L700.354 6.622V22ZM717.877 19.294C717.877 21.34 718.999 22.264 720.715 22.264C722.475 22.264 723.773 21.208 723.773 21.208L723.223 19.558C722.959 19.712 722.035 20.438 721.199 20.438C720.473 20.438 720.055 19.954 720.055 18.744V13.706H723.201V12.056H720.055V9.24L717.921 9.702V11.968L716.403 12.518V13.706H717.877V19.294ZM724.981 17.072C724.981 19.712 726.763 22.264 730.063 22.264C733.649 22.264 735.233 19.25 735.233 16.83C735.233 14.278 733.451 11.792 730.151 11.792C726.587 11.792 724.981 14.586 724.981 17.072ZM727.247 16.874C727.247 14.894 728.413 13.53 730.107 13.53C732.131 13.53 732.967 15.356 732.967 17.116C732.967 19.118 731.801 20.526 730.129 20.526C728.149 20.526 727.247 18.722 727.247 16.874ZM522.068 49.294C522.068 51.34 523.19 52.264 524.906 52.264C526.666 52.264 527.964 51.208 527.964 51.208L527.414 49.558C527.15 49.712 526.226 50.438 525.39 50.438C524.664 50.438 524.246 49.954 524.246 48.744V43.706H527.392V42.056H524.246V39.24L522.112 39.702V41.968L520.594 42.518V43.706H522.068V49.294ZM529.018 49.712C529.018 51.186 530.14 52.264 531.878 52.264C533.814 52.264 534.826 51.032 535.09 50.614C535.376 51.406 536.014 52.044 537.532 52.154L538.192 50.438C538.192 50.438 537.092 50.416 537.092 49.184V44.982C537.092 42.76 536.344 41.792 533.99 41.792C531.372 41.792 529.678 43.046 529.678 43.046L530.25 44.674C530.25 44.674 531.768 43.53 533.396 43.53C535.002 43.53 534.914 44.63 534.914 45.884C531.196 46.368 529.018 47.622 529.018 49.712ZM532.428 50.548C531.79 50.548 531.262 50.262 531.262 49.558C531.262 48.392 532.384 47.666 534.914 47.292V49.008C534.254 49.778 533.44 50.548 532.428 50.548ZM540.382 52H542.56V47.292H542.868L546.828 52H549.622L544.782 46.412L549.314 42.056H546.476L542.868 45.686H542.56V36.27L540.382 36.622V52ZM550.163 47.182C550.163 49.844 551.857 52.264 555.179 52.264C557.665 52.264 559.183 50.834 559.183 50.834L558.567 49.25C558.567 49.25 557.181 50.482 555.509 50.482C553.771 50.482 552.671 49.316 552.429 47.512L557.863 46.786L559.117 46.434C559.117 43.42 557.401 41.792 555.025 41.792C552.121 41.792 550.163 44.146 550.163 47.182ZM554.871 43.486C556.609 43.486 556.741 45.51 556.741 45.51L552.429 46.06C552.627 44.608 553.463 43.486 554.871 43.486ZM566.212 47.16C566.212 50.042 568.214 52.264 571.316 52.264C573.692 52.264 574.836 50.988 574.836 50.988L574.132 49.448C574.132 49.448 573.054 50.482 571.47 50.482C569.6 50.482 568.478 49.008 568.478 47.05C568.478 45.026 569.688 43.552 571.492 43.552C572.944 43.552 573.978 44.476 573.978 44.476L574.836 42.848C574.836 42.848 573.626 41.792 571.448 41.792C568.17 41.792 566.212 44.41 566.212 47.16ZM576.18 47.072C576.18 49.712 577.962 52.264 581.262 52.264C584.848 52.264 586.432 49.25 586.432 46.83C586.432 44.278 584.65 41.792 581.35 41.792C577.786 41.792 576.18 44.586 576.18 47.072ZM578.446 46.874C578.446 44.894 579.612 43.53 581.306 43.53C583.33 43.53 584.166 45.356 584.166 47.116C584.166 49.118 583 50.526 581.328 50.526C579.348 50.526 578.446 48.722 578.446 46.874ZM588.785 52H590.963V45.554C591.645 44.894 593.053 43.684 594.153 43.684C594.901 43.684 595.341 44.212 595.341 45.62V52H597.519V44.828C597.519 42.694 596.441 41.792 594.879 41.792C593.053 41.792 591.623 43.002 590.919 43.772V41.88L588.785 42.232V52ZM599.791 51.384C599.791 51.384 601.023 52.264 603.091 52.264C605.533 52.264 606.963 51.054 606.963 49.25C606.963 46.082 602.189 46.236 602.189 44.498C602.189 43.926 602.673 43.508 603.773 43.508C605.049 43.508 606.193 44.124 606.193 44.124L606.699 42.342C606.699 42.342 605.599 41.792 603.861 41.792C601.111 41.792 600.011 43.134 600.011 44.674C600.011 47.798 604.785 47.666 604.785 49.448C604.785 50.086 604.235 50.548 603.069 50.548C601.463 50.548 600.253 49.536 600.253 49.536L599.791 51.384ZM610.447 39.68C611.239 39.68 611.833 39.108 611.833 38.338C611.833 37.568 611.239 36.996 610.447 36.996C609.677 36.996 609.083 37.568 609.083 38.338C609.083 39.108 609.677 39.68 610.447 39.68ZM609.347 52H611.525V42.056H609.347V52ZM613.928 51.384C613.928 51.384 615.16 52.264 617.228 52.264C619.67 52.264 621.1 51.054 621.1 49.25C621.1 46.082 616.326 46.236 616.326 44.498C616.326 43.926 616.81 43.508 617.91 43.508C619.186 43.508 620.33 44.124 620.33 44.124L620.836 42.342C620.836 42.342 619.736 41.792 617.998 41.792C615.248 41.792 614.148 43.134 614.148 44.674C614.148 47.798 618.922 47.666 618.922 49.448C618.922 50.086 618.372 50.548 617.206 50.548C615.6 50.548 614.39 49.536 614.39 49.536L613.928 51.384ZM624.011 49.294C624.011 51.34 625.133 52.264 626.849 52.264C628.609 52.264 629.907 51.208 629.907 51.208L629.357 49.558C629.093 49.712 628.169 50.438 627.333 50.438C626.607 50.438 626.189 49.954 626.189 48.744V43.706H629.335V42.056H626.189V39.24L624.055 39.702V41.968L622.537 42.518V43.706H624.011V49.294ZM631.138 47.182C631.138 49.844 632.832 52.264 636.154 52.264C638.64 52.264 640.158 50.834 640.158 50.834L639.542 49.25C639.542 49.25 638.156 50.482 636.484 50.482C634.746 50.482 633.646 49.316 633.404 47.512L638.838 46.786L640.092 46.434C640.092 43.42 638.376 41.792 636 41.792C633.096 41.792 631.138 44.146 631.138 47.182ZM635.846 43.486C637.584 43.486 637.716 45.51 637.716 45.51L633.404 46.06C633.602 44.608 634.438 43.486 635.846 43.486ZM642.539 52H644.717V45.554C645.399 44.894 646.807 43.684 647.907 43.684C648.655 43.684 649.095 44.212 649.095 45.62V52H651.273V44.828C651.273 42.694 650.195 41.792 648.633 41.792C646.807 41.792 645.377 43.002 644.673 43.772V41.88L642.539 42.232V52ZM654.777 49.294C654.777 51.34 655.899 52.264 657.615 52.264C659.375 52.264 660.673 51.208 660.673 51.208L660.123 49.558C659.859 49.712 658.935 50.438 658.099 50.438C657.373 50.438 656.955 49.954 656.955 48.744V43.706H660.101V42.056H656.955V39.24L654.821 39.702V41.968L653.303 42.518V43.706H654.777V49.294ZM667.013 49.712C667.013 51.186 668.135 52.264 669.873 52.264C671.809 52.264 672.821 51.032 673.085 50.614C673.371 51.406 674.009 52.044 675.527 52.154L676.187 50.438C676.187 50.438 675.087 50.416 675.087 49.184V44.982C675.087 42.76 674.339 41.792 671.985 41.792C669.367 41.792 667.673 43.046 667.673 43.046L668.245 44.674C668.245 44.674 669.763 43.53 671.391 43.53C672.997 43.53 672.909 44.63 672.909 45.884C669.191 46.368 667.013 47.622 667.013 49.712ZM670.423 50.548C669.785 50.548 669.257 50.262 669.257 49.558C669.257 48.392 670.379 47.666 672.909 47.292V49.008C672.249 49.778 671.435 50.548 670.423 50.548ZM677.694 47.16C677.694 50.042 679.696 52.264 682.798 52.264C685.174 52.264 686.318 50.988 686.318 50.988L685.614 49.448C685.614 49.448 684.536 50.482 682.952 50.482C681.082 50.482 679.96 49.008 679.96 47.05C679.96 45.026 681.17 43.552 682.974 43.552C684.426 43.552 685.46 44.476 685.46 44.476L686.318 42.848C686.318 42.848 685.108 41.792 682.93 41.792C679.652 41.792 677.694 44.41 677.694 47.16ZM689.045 49.294C689.045 51.34 690.167 52.264 691.883 52.264C693.643 52.264 694.941 51.208 694.941 51.208L694.391 49.558C694.127 49.712 693.203 50.438 692.367 50.438C691.641 50.438 691.223 49.954 691.223 48.744V43.706H694.369V42.056H691.223V39.24L689.089 39.702V41.968L687.571 42.518V43.706H689.045V49.294ZM697.931 39.68C698.723 39.68 699.317 39.108 699.317 38.338C699.317 37.568 698.723 36.996 697.931 36.996C697.161 36.996 696.567 37.568 696.567 38.338C696.567 39.108 697.161 39.68 697.931 39.68ZM696.831 52H699.009V42.056H696.831V52ZM701.434 47.072C701.434 49.712 703.216 52.264 706.516 52.264C710.102 52.264 711.686 49.25 711.686 46.83C711.686 44.278 709.904 41.792 706.604 41.792C703.04 41.792 701.434 44.586 701.434 47.072ZM703.7 46.874C703.7 44.894 704.866 43.53 706.56 43.53C708.584 43.53 709.42 45.356 709.42 47.116C709.42 49.118 708.254 50.526 706.582 50.526C704.602 50.526 703.7 48.722 703.7 46.874ZM714.039 52H716.217V45.554C716.899 44.894 718.307 43.684 719.407 43.684C720.155 43.684 720.595 44.212 720.595 45.62V52H722.773V44.828C722.773 42.694 721.695 41.792 720.133 41.792C718.307 41.792 716.877 43.002 716.173 43.772V41.88L714.039 42.232V52ZM725.045 51.384C725.045 51.384 726.277 52.264 728.345 52.264C730.787 52.264 732.217 51.054 732.217 49.25C732.217 46.082 727.443 46.236 727.443 44.498C727.443 43.926 727.927 43.508 729.027 43.508C730.303 43.508 731.447 44.124 731.447 44.124L731.953 42.342C731.953 42.342 730.853 41.792 729.115 41.792C726.365 41.792 725.265 43.134 725.265 44.674C725.265 47.798 730.039 47.666 730.039 49.448C730.039 50.086 729.489 50.548 728.323 50.548C726.717 50.548 725.507 49.536 725.507 49.536L725.045 51.384ZM522.068 79.294C522.068 81.34 523.19 82.264 524.906 82.264C526.666 82.264 527.964 81.208 527.964 81.208L527.414 79.558C527.15 79.712 526.226 80.438 525.39 80.438C524.664 80.438 524.246 79.954 524.246 78.744V73.706H527.392V72.056H524.246V69.24L522.112 69.702V71.968L520.594 72.518V73.706H522.068V79.294ZM529.172 77.072C529.172 79.712 530.954 82.264 534.254 82.264C537.84 82.264 539.424 79.25 539.424 76.83C539.424 74.278 537.642 71.792 534.342 71.792C530.778 71.792 529.172 74.586 529.172 77.072ZM531.438 76.874C531.438 74.894 532.604 73.53 534.298 73.53C536.322 73.53 537.158 75.356 537.158 77.116C537.158 79.118 535.992 80.526 534.32 80.526C532.34 80.526 531.438 78.722 531.438 76.874ZM547.062 81.78C547.81 81.956 549.504 82.264 550.692 82.264C554.454 82.264 556.258 79.58 556.258 76.676C556.258 73.948 554.674 71.792 551.924 71.792C550.56 71.792 549.746 72.342 549.24 72.914V66.27L547.062 66.622V81.78ZM551.572 73.552C553.024 73.552 554.014 74.762 554.014 76.83C554.014 79.294 552.628 80.614 550.736 80.614C549.922 80.614 549.24 80.394 549.24 80.394V74.586C549.702 74.168 550.538 73.552 551.572 73.552ZM558.048 77.182C558.048 79.844 559.742 82.264 563.064 82.264C565.55 82.264 567.068 80.834 567.068 80.834L566.452 79.25C566.452 79.25 565.066 80.482 563.394 80.482C561.656 80.482 560.556 79.316 560.314 77.512L565.748 76.786L567.002 76.434C567.002 73.42 565.286 71.792 562.91 71.792C560.006 71.792 558.048 74.146 558.048 77.182ZM562.756 73.486C564.494 73.486 564.626 75.51 564.626 75.51L560.314 76.06C560.512 74.608 561.348 73.486 562.756 73.486ZM570.021 79.294C570.021 81.34 571.143 82.264 572.859 82.264C574.619 82.264 575.917 81.208 575.917 81.208L575.367 79.558C575.103 79.712 574.179 80.438 573.343 80.438C572.617 80.438 572.199 79.954 572.199 78.744V73.706H575.345V72.056H572.199V69.24L570.065 69.702V71.968L568.547 72.518V73.706H570.021V79.294ZM578.336 79.294C578.336 81.34 579.458 82.264 581.174 82.264C582.934 82.264 584.232 81.208 584.232 81.208L583.682 79.558C583.418 79.712 582.494 80.438 581.658 80.438C580.932 80.438 580.514 79.954 580.514 78.744V73.706H583.66V72.056H580.514V69.24L578.38 69.702V71.968L576.862 72.518V73.706H578.336V79.294ZM585.462 77.182C585.462 79.844 587.156 82.264 590.478 82.264C592.964 82.264 594.482 80.834 594.482 80.834L593.866 79.25C593.866 79.25 592.48 80.482 590.808 80.482C589.07 80.482 587.97 79.316 587.728 77.512L593.162 76.786L594.416 76.434C594.416 73.42 592.7 71.792 590.324 71.792C587.42 71.792 585.462 74.146 585.462 77.182ZM590.17 73.486C591.908 73.486 592.04 75.51 592.04 75.51L587.728 76.06C587.926 74.608 588.762 73.486 590.17 73.486ZM596.863 82H599.041V75.84C599.459 75.18 600.361 73.992 601.461 73.992C601.901 73.992 602.341 74.168 602.341 74.168L602.781 71.968C602.781 71.968 602.473 71.792 601.923 71.792C600.405 71.792 599.393 73.2 598.997 73.882V71.88L596.863 72.232V82ZM609.797 82H611.975V75.532C612.613 74.894 613.977 73.684 615.055 73.684C615.781 73.684 616.177 74.212 616.177 75.62V82H618.355V75.488C619.103 74.762 620.335 73.684 621.347 73.684C622.073 73.684 622.491 74.212 622.491 75.62V82H624.647V74.828C624.647 72.694 623.613 71.792 622.073 71.792C620.335 71.792 618.971 72.958 618.245 73.75C617.937 72.386 617.035 71.792 615.781 71.792C614.021 71.792 612.613 73.002 611.931 73.75V71.88L609.797 72.232V82ZM626.442 85.476L627.124 87.214C629.456 86.95 630.908 84.86 631.766 82.748L636.078 72.056H633.834L631.26 78.876L628.642 72.056H626.332L630.182 81.494L629.654 82.682C629.06 84.068 627.894 85.234 626.442 85.476ZM643.142 82H645.32V75.598C645.98 74.938 647.41 73.684 648.51 73.684C649.258 73.684 649.698 74.212 649.698 75.62V82H651.876V74.828C651.876 72.694 650.798 71.792 649.214 71.792C647.388 71.792 645.98 73.024 645.32 73.728V66.27L643.142 66.622V82ZM654.191 77.182C654.191 79.844 655.885 82.264 659.207 82.264C661.693 82.264 663.211 80.834 663.211 80.834L662.595 79.25C662.595 79.25 661.209 80.482 659.537 80.482C657.799 80.482 656.699 79.316 656.457 77.512L661.891 76.786L663.145 76.434C663.145 73.42 661.429 71.792 659.053 71.792C656.149 71.792 654.191 74.146 654.191 77.182ZM658.899 73.486C660.637 73.486 660.769 75.51 660.769 75.51L656.457 76.06C656.655 74.608 657.491 73.486 658.899 73.486ZM664.8 79.712C664.8 81.186 665.922 82.264 667.66 82.264C669.596 82.264 670.608 81.032 670.872 80.614C671.158 81.406 671.796 82.044 673.314 82.154L673.974 80.438C673.974 80.438 672.874 80.416 672.874 79.184V74.982C672.874 72.76 672.126 71.792 669.772 71.792C667.154 71.792 665.46 73.046 665.46 73.046L666.032 74.674C666.032 74.674 667.55 73.53 669.178 73.53C670.784 73.53 670.696 74.63 670.696 75.884C666.978 76.368 664.8 77.622 664.8 79.712ZM668.21 80.548C667.572 80.548 667.044 80.262 667.044 79.558C667.044 78.392 668.166 77.666 670.696 77.292V79.008C670.036 79.778 669.222 80.548 668.21 80.548ZM676.163 82H678.341V66.27L676.163 66.622V82ZM681.976 79.294C681.976 81.34 683.098 82.264 684.814 82.264C686.574 82.264 687.872 81.208 687.872 81.208L687.322 79.558C687.058 79.712 686.134 80.438 685.298 80.438C684.572 80.438 684.154 79.954 684.154 78.744V73.706H687.3V72.056H684.154V69.24L682.02 69.702V71.968L680.502 72.518V73.706H681.976V79.294ZM689.763 82H691.941V75.598C692.601 74.938 694.031 73.684 695.131 73.684C695.879 73.684 696.319 74.212 696.319 75.62V82H698.497V74.828C698.497 72.694 697.419 71.792 695.835 71.792C694.009 71.792 692.601 73.024 691.941 73.728V66.27L689.763 66.622V82ZM701.142 80.79C701.142 81.604 701.802 82.264 702.616 82.264C703.43 82.264 704.112 81.604 704.112 80.79C704.112 79.954 703.43 79.294 702.616 79.294C701.802 79.294 701.142 79.954 701.142 80.79Z" fill="#333333"/>
<path d="M267.002 22H272.062C275.01 22 277.078 20.328 277.078 17.732C277.078 15.4 275.384 14.432 274.526 14.08C275.296 13.486 276.286 12.408 276.286 10.846C276.286 9.152 275.098 7.326 271.314 7.326H267.002V22ZM269.268 20.108V15.422H271.732C273.778 15.422 274.68 16.412 274.68 17.776C274.68 19.162 273.778 20.108 271.732 20.108H269.268ZM269.268 9.218H270.984C273.272 9.218 273.888 10.12 273.888 11.22C273.888 12.804 272.48 13.552 272.48 13.552H269.268V9.218ZM278.943 17.182C278.943 19.844 280.637 22.264 283.959 22.264C286.445 22.264 287.963 20.834 287.963 20.834L287.347 19.25C287.347 19.25 285.961 20.482 284.289 20.482C282.551 20.482 281.451 19.316 281.209 17.512L286.643 16.786L287.897 16.434C287.897 13.42 286.181 11.792 283.805 11.792C280.901 11.792 278.943 14.146 278.943 17.182ZM283.651 13.486C285.389 13.486 285.521 15.51 285.521 15.51L281.209 16.06C281.407 14.608 282.243 13.486 283.651 13.486ZM290.388 22H292.566V6.27L290.388 6.622V22ZM296.773 9.68C297.565 9.68 298.159 9.108 298.159 8.338C298.159 7.568 297.565 6.996 296.773 6.996C296.003 6.996 295.409 7.568 295.409 8.338C295.409 9.108 296.003 9.68 296.773 9.68ZM295.673 22H297.851V12.056H295.673V22ZM300.298 17.182C300.298 19.844 301.992 22.264 305.314 22.264C307.8 22.264 309.318 20.834 309.318 20.834L308.702 19.25C308.702 19.25 307.316 20.482 305.644 20.482C303.906 20.482 302.806 19.316 302.564 17.512L307.998 16.786L309.252 16.434C309.252 13.42 307.536 11.792 305.16 11.792C302.256 11.792 300.298 14.146 300.298 17.182ZM305.006 13.486C306.744 13.486 306.876 15.51 306.876 15.51L302.564 16.06C302.762 14.608 303.598 13.486 305.006 13.486ZM314.097 22.088H316.121L320.213 12.056H317.991L315.197 19.272L312.777 12.056H310.489L314.097 22.088ZM321.224 17.182C321.224 19.844 322.918 22.264 326.24 22.264C328.726 22.264 330.244 20.834 330.244 20.834L329.628 19.25C329.628 19.25 328.242 20.482 326.57 20.482C324.832 20.482 323.732 19.316 323.49 17.512L328.924 16.786L330.178 16.434C330.178 13.42 328.462 11.792 326.086 11.792C323.182 11.792 321.224 14.146 321.224 17.182ZM325.932 13.486C327.67 13.486 327.802 15.51 327.802 15.51L323.49 16.06C323.688 14.608 324.524 13.486 325.932 13.486ZM338.482 19.294C338.482 21.34 339.604 22.264 341.32 22.264C343.08 22.264 344.378 21.208 344.378 21.208L343.828 19.558C343.564 19.712 342.64 20.438 341.804 20.438C341.078 20.438 340.66 19.954 340.66 18.744V13.706H343.806V12.056H340.66V9.24L338.526 9.702V11.968L337.008 12.518V13.706H338.482V19.294ZM346.269 22H348.447V15.598C349.107 14.938 350.537 13.684 351.637 13.684C352.385 13.684 352.825 14.212 352.825 15.62V22H355.003V14.828C355.003 12.694 353.925 11.792 352.341 11.792C350.515 11.792 349.107 13.024 348.447 13.728V6.27L346.269 6.622V22ZM357.142 19.712C357.142 21.186 358.264 22.264 360.002 22.264C361.938 22.264 362.95 21.032 363.214 20.614C363.5 21.406 364.138 22.044 365.656 22.154L366.316 20.438C366.316 20.438 365.216 20.416 365.216 19.184V14.982C365.216 12.76 364.468 11.792 362.114 11.792C359.496 11.792 357.802 13.046 357.802 13.046L358.374 14.674C358.374 14.674 359.892 13.53 361.52 13.53C363.126 13.53 363.038 14.63 363.038 15.884C359.32 16.368 357.142 17.622 357.142 19.712ZM360.552 20.548C359.914 20.548 359.386 20.262 359.386 19.558C359.386 18.392 360.508 17.666 363.038 17.292V19.008C362.378 19.778 361.564 20.548 360.552 20.548ZM368.947 19.294C368.947 21.34 370.069 22.264 371.785 22.264C373.545 22.264 374.843 21.208 374.843 21.208L374.293 19.558C374.029 19.712 373.105 20.438 372.269 20.438C371.543 20.438 371.125 19.954 371.125 18.744V13.706H374.271V12.056H371.125V9.24L368.991 9.702V11.968L367.473 12.518V13.706H368.947V19.294ZM386.485 12.144L388.399 11.066C387.365 9.966 387.079 9.35 387.079 8.646C387.079 7.876 387.453 7.194 388.289 6.556L387.453 5.676C386.045 6.754 385.319 8.074 385.319 9.394C385.319 10.34 385.649 11.242 386.485 12.144ZM382.635 12.144L384.549 11.066C383.515 9.966 383.229 9.35 383.229 8.646C383.229 7.876 383.603 7.194 384.439 6.556L383.603 5.676C382.195 6.754 381.469 8.074 381.469 9.394C381.469 10.34 381.799 11.242 382.635 12.144ZM391.096 22H393.362V7.326H391.096V22ZM401.532 17.16C401.532 20.042 403.534 22.264 406.636 22.264C409.012 22.264 410.156 20.988 410.156 20.988L409.452 19.448C409.452 19.448 408.374 20.482 406.79 20.482C404.92 20.482 403.798 19.008 403.798 17.05C403.798 15.026 405.008 13.552 406.812 13.552C408.264 13.552 409.298 14.476 409.298 14.476L410.156 12.848C410.156 12.848 408.946 11.792 406.768 11.792C403.49 11.792 401.532 14.41 401.532 17.16ZM411.518 19.712C411.518 21.186 412.64 22.264 414.378 22.264C416.314 22.264 417.326 21.032 417.59 20.614C417.876 21.406 418.514 22.044 420.032 22.154L420.692 20.438C420.692 20.438 419.592 20.416 419.592 19.184V14.982C419.592 12.76 418.844 11.792 416.49 11.792C413.872 11.792 412.178 13.046 412.178 13.046L412.75 14.674C412.75 14.674 414.268 13.53 415.896 13.53C417.502 13.53 417.414 14.63 417.414 15.884C413.696 16.368 411.518 17.622 411.518 19.712ZM414.928 20.548C414.29 20.548 413.762 20.262 413.762 19.558C413.762 18.392 414.884 17.666 417.414 17.292V19.008C416.754 19.778 415.94 20.548 414.928 20.548ZM422.838 22H425.016V15.554C425.698 14.894 427.106 13.684 428.206 13.684C428.954 13.684 429.394 14.212 429.394 15.62V22H431.572V14.828C431.572 12.694 430.494 11.792 428.932 11.792C427.106 11.792 425.676 13.002 424.972 13.772V11.88L422.838 12.232V22ZM439.173 17.336C439.173 20.064 440.845 22.264 443.441 22.264C445.025 22.264 446.037 21.494 446.565 20.636C446.675 21.34 446.873 22.154 446.873 22.154L448.963 22C448.963 22 448.523 20.152 448.523 18.942V6.27L446.345 6.622V12.122C446.059 12.012 445.399 11.792 444.497 11.792C440.977 11.792 439.173 14.498 439.173 17.336ZM443.815 20.526C442.407 20.526 441.461 19.272 441.461 17.204C441.461 14.828 442.715 13.508 444.607 13.508C445.509 13.508 446.301 13.838 446.345 14.828V18.92C446.037 19.382 445.157 20.526 443.815 20.526ZM450.967 17.072C450.967 19.712 452.749 22.264 456.049 22.264C459.635 22.264 461.219 19.25 461.219 16.83C461.219 14.278 459.437 11.792 456.137 11.792C452.573 11.792 450.967 14.586 450.967 17.072ZM453.233 16.874C453.233 14.894 454.399 13.53 456.093 13.53C458.117 13.53 458.953 15.356 458.953 17.116C458.953 19.118 457.787 20.526 456.115 20.526C454.135 20.526 453.233 18.722 453.233 16.874ZM267.068 49.294C267.068 51.34 268.19 52.264 269.906 52.264C271.666 52.264 272.964 51.208 272.964 51.208L272.414 49.558C272.15 49.712 271.226 50.438 270.39 50.438C269.664 50.438 269.246 49.954 269.246 48.744V43.706H272.392V42.056H269.246V39.24L267.112 39.702V41.968L265.594 42.518V43.706H267.068V49.294ZM274.854 52H277.032V45.598C277.692 44.938 279.122 43.684 280.222 43.684C280.97 43.684 281.41 44.212 281.41 45.62V52H283.588V44.828C283.588 42.694 282.51 41.792 280.926 41.792C279.1 41.792 277.692 43.024 277.032 43.728V36.27L274.854 36.622V52ZM287.663 39.68C288.455 39.68 289.049 39.108 289.049 38.338C289.049 37.568 288.455 36.996 287.663 36.996C286.893 36.996 286.299 37.568 286.299 38.338C286.299 39.108 286.893 39.68 287.663 39.68ZM286.563 52H288.741V42.056H286.563V52ZM291.145 51.384C291.145 51.384 292.377 52.264 294.445 52.264C296.887 52.264 298.317 51.054 298.317 49.25C298.317 46.082 293.543 46.236 293.543 44.498C293.543 43.926 294.027 43.508 295.127 43.508C296.403 43.508 297.547 44.124 297.547 44.124L298.053 42.342C298.053 42.342 296.953 41.792 295.215 41.792C292.465 41.792 291.365 43.134 291.365 44.674C291.365 47.798 296.139 47.666 296.139 49.448C296.139 50.086 295.589 50.548 294.423 50.548C292.817 50.548 291.607 49.536 291.607 49.536L291.145 51.384ZM304.66 42.144C306.068 41.044 306.794 39.746 306.794 38.404C306.794 37.458 306.464 36.556 305.628 35.676L303.714 36.732C304.748 37.832 305.034 38.448 305.034 39.152C305.034 39.922 304.66 40.604 303.824 41.242L304.66 42.144ZM300.81 42.144C302.218 41.044 302.944 39.746 302.944 38.404C302.944 37.458 302.614 36.556 301.778 35.676L299.842 36.732C300.898 37.832 301.184 38.448 301.184 39.152C301.184 39.922 300.81 40.604 299.974 41.242L300.81 42.144ZM316.518 52.088H318.63L321.182 45.004L323.47 52.088H325.604L329.168 42.056H326.946L324.548 49.536L322.216 42.056H320.324L317.75 49.58L315.572 42.056H313.328L316.518 52.088ZM332.136 39.68C332.928 39.68 333.522 39.108 333.522 38.338C333.522 37.568 332.928 36.996 332.136 36.996C331.366 36.996 330.772 37.568 330.772 38.338C330.772 39.108 331.366 39.68 332.136 39.68ZM331.036 52H333.214V42.056H331.036V52ZM336.849 49.294C336.849 51.34 337.971 52.264 339.687 52.264C341.447 52.264 342.745 51.208 342.745 51.208L342.195 49.558C341.931 49.712 341.007 50.438 340.171 50.438C339.445 50.438 339.027 49.954 339.027 48.744V43.706H342.173V42.056H339.027V39.24L336.893 39.702V41.968L335.375 42.518V43.706H336.849V49.294ZM344.636 52H346.814V45.598C347.474 44.938 348.904 43.684 350.004 43.684C350.752 43.684 351.192 44.212 351.192 45.62V52H353.37V44.828C353.37 42.694 352.292 41.792 350.708 41.792C348.882 41.792 347.474 43.024 346.814 43.728V36.27L344.636 36.622V52ZM362.158 49.294C362.158 51.34 363.28 52.264 364.996 52.264C366.756 52.264 368.054 51.208 368.054 51.208L367.504 49.558C367.24 49.712 366.316 50.438 365.48 50.438C364.754 50.438 364.336 49.954 364.336 48.744V43.706H367.482V42.056H364.336V39.24L362.202 39.702V41.968L360.684 42.518V43.706H362.158V49.294ZM369.944 52H372.122V45.598C372.782 44.938 374.212 43.684 375.312 43.684C376.06 43.684 376.5 44.212 376.5 45.62V52H378.678V44.828C378.678 42.694 377.6 41.792 376.016 41.792C374.19 41.792 372.782 43.024 372.122 43.728V36.27L369.944 36.622V52ZM380.993 47.182C380.993 49.844 382.687 52.264 386.009 52.264C388.495 52.264 390.013 50.834 390.013 50.834L389.397 49.25C389.397 49.25 388.011 50.482 386.339 50.482C384.601 50.482 383.501 49.316 383.259 47.512L388.693 46.786L389.947 46.434C389.947 43.42 388.231 41.792 385.855 41.792C382.951 41.792 380.993 44.146 380.993 47.182ZM385.701 43.486C387.439 43.486 387.571 45.51 387.571 45.51L383.259 46.06C383.457 44.608 384.293 43.486 385.701 43.486ZM397.68 52H399.858V45.84C400.276 45.18 401.178 43.992 402.278 43.992C402.718 43.992 403.158 44.168 403.158 44.168L403.598 41.968C403.598 41.968 403.29 41.792 402.74 41.792C401.222 41.792 400.21 43.2 399.814 43.882V41.88L397.68 42.232V52ZM406.472 39.68C407.264 39.68 407.858 39.108 407.858 38.338C407.858 37.568 407.264 36.996 406.472 36.996C405.702 36.996 405.108 37.568 405.108 38.338C405.108 39.108 405.702 39.68 406.472 39.68ZM405.372 52H407.55V42.056H405.372V52ZM410.591 50.24C410.591 50.922 411.229 51.318 412.219 51.648C411.163 52.198 409.689 53.144 409.689 54.596C409.689 56.334 411.845 57.214 414.045 57.214C417.037 57.214 419.479 55.52 419.479 53.518C419.479 51.692 417.477 51.142 415.717 50.702C413.649 50.196 412.681 49.998 412.681 49.602C412.681 49.36 413.033 49.096 413.495 48.788C413.715 48.832 413.957 48.832 414.221 48.832C416.355 48.832 418.621 47.666 418.621 45.488C418.621 44.608 418.203 44.014 417.895 43.662C418.159 43.706 418.467 43.728 418.709 43.728H419.897L419.743 41.99C419.743 41.99 419.083 42.21 418.423 42.21H417.279C416.179 42.21 415.607 41.792 414.397 41.792C412.175 41.792 410.173 43.046 410.173 45.268C410.173 46.61 410.899 47.776 412.153 48.392C411.339 48.854 410.591 49.514 410.591 50.24ZM414.463 52.22C416.311 52.704 417.345 52.99 417.345 53.848C417.345 54.838 415.937 55.63 414.177 55.63C412.923 55.63 411.647 55.234 411.647 54.244C411.647 53.254 412.857 52.594 413.803 52.066C414.023 52.11 414.243 52.154 414.463 52.22ZM414.375 47.292C412.967 47.292 412.307 46.28 412.307 45.334C412.307 44.3 413.055 43.332 414.375 43.332C415.783 43.332 416.465 44.476 416.465 45.444C416.465 46.566 415.585 47.292 414.375 47.292ZM421.786 52H423.964V45.598C424.624 44.938 426.054 43.684 427.154 43.684C427.902 43.684 428.342 44.212 428.342 45.62V52H430.52V44.828C430.52 42.694 429.442 41.792 427.858 41.792C426.032 41.792 424.624 43.024 423.964 43.728V36.27L421.786 36.622V52ZM434.023 49.294C434.023 51.34 435.145 52.264 436.861 52.264C438.621 52.264 439.919 51.208 439.919 51.208L439.369 49.558C439.105 49.712 438.181 50.438 437.345 50.438C436.619 50.438 436.201 49.954 436.201 48.744V43.706H439.347V42.056H436.201V39.24L434.067 39.702V41.968L432.549 42.518V43.706H434.023V49.294ZM265.836 81.384C265.836 81.384 267.068 82.264 269.136 82.264C271.578 82.264 273.008 81.054 273.008 79.25C273.008 76.082 268.234 76.236 268.234 74.498C268.234 73.926 268.718 73.508 269.818 73.508C271.094 73.508 272.238 74.124 272.238 74.124L272.744 72.342C272.744 72.342 271.644 71.792 269.906 71.792C267.156 71.792 266.056 73.134 266.056 74.674C266.056 77.798 270.83 77.666 270.83 79.448C270.83 80.086 270.28 80.548 269.114 80.548C267.508 80.548 266.298 79.536 266.298 79.536L265.836 81.384ZM275.282 79.272C275.282 81.406 276.382 82.264 277.988 82.264C279.814 82.264 281.2 81.098 281.838 80.416C281.948 81.142 282.168 82.176 282.168 82.176L284.28 81.978C284.28 81.978 283.84 80.152 283.84 78.942V72.056H281.662V78.744C281.046 79.316 279.814 80.372 278.692 80.372C277.878 80.372 277.46 79.822 277.46 78.436V72.056H275.282V79.272ZM286.949 87.126L289.127 86.774V81.736C289.545 82.044 290.293 82.264 291.217 82.264C294.385 82.264 296.233 79.668 296.233 76.72C296.233 74.014 294.649 71.792 292.031 71.792C290.469 71.792 289.523 72.606 289.061 73.464V71.88L286.949 72.232V87.126ZM291.657 73.596C292.999 73.596 293.945 74.806 293.945 76.874C293.945 79.25 292.691 80.548 290.821 80.548C289.787 80.548 289.127 80.174 289.127 79.426V75.202C289.413 74.784 290.337 73.596 291.657 73.596ZM298.615 87.126L300.793 86.774V81.736C301.211 82.044 301.959 82.264 302.883 82.264C306.051 82.264 307.899 79.668 307.899 76.72C307.899 74.014 306.315 71.792 303.697 71.792C302.135 71.792 301.189 72.606 300.727 73.464V71.88L298.615 72.232V87.126ZM303.323 73.596C304.665 73.596 305.611 74.806 305.611 76.874C305.611 79.25 304.357 80.548 302.487 80.548C301.453 80.548 300.793 80.174 300.793 79.426V75.202C301.079 74.784 302.003 73.596 303.323 73.596ZM309.643 77.072C309.643 79.712 311.425 82.264 314.725 82.264C318.311 82.264 319.895 79.25 319.895 76.83C319.895 74.278 318.113 71.792 314.813 71.792C311.249 71.792 309.643 74.586 309.643 77.072ZM311.909 76.874C311.909 74.894 313.075 73.53 314.769 73.53C316.793 73.53 317.629 75.356 317.629 77.116C317.629 79.118 316.463 80.526 314.791 80.526C312.811 80.526 311.909 78.722 311.909 76.874ZM322.248 82H324.426V75.84C324.844 75.18 325.746 73.992 326.846 73.992C327.286 73.992 327.726 74.168 327.726 74.168L328.166 71.968C328.166 71.968 327.858 71.792 327.308 71.792C325.79 71.792 324.778 73.2 324.382 73.882V71.88L322.248 72.232V82ZM330.468 79.294C330.468 81.34 331.59 82.264 333.306 82.264C335.066 82.264 336.364 81.208 336.364 81.208L335.814 79.558C335.55 79.712 334.626 80.438 333.79 80.438C333.064 80.438 332.646 79.954 332.646 78.744V73.706H335.792V72.056H332.646V69.24L330.512 69.702V71.968L328.994 72.518V73.706H330.468V79.294ZM337.925 80.79C337.925 81.604 338.585 82.264 339.399 82.264C340.213 82.264 340.895 81.604 340.895 80.79C340.895 79.954 340.213 79.294 339.399 79.294C338.585 79.294 337.925 79.954 337.925 80.79Z" fill="#333333"/>
<path d="M12.002 22H14.268V16.104H16.534L20.45 22H23.134L18.822 15.576C20.296 14.894 21.638 13.508 21.638 11.506C21.638 9.284 20.098 7.326 16.314 7.326H12.002V22ZM14.268 14.212V9.218H15.94C18.382 9.218 19.24 10.34 19.24 11.66C19.24 13.288 17.92 14.212 16.27 14.212H14.268ZM23.921 17.182C23.921 19.844 25.615 22.264 28.937 22.264C31.423 22.264 32.941 20.834 32.941 20.834L32.325 19.25C32.325 19.25 30.939 20.482 29.267 20.482C27.529 20.482 26.429 19.316 26.187 17.512L31.621 16.786L32.875 16.434C32.875 13.42 31.159 11.792 28.783 11.792C25.879 11.792 23.921 14.146 23.921 17.182ZM28.629 13.486C30.367 13.486 30.499 15.51 30.499 15.51L26.187 16.06C26.385 14.608 27.221 13.486 28.629 13.486ZM34.5302 19.712C34.5302 21.186 35.6522 22.264 37.3902 22.264C39.3262 22.264 40.3382 21.032 40.6022 20.614C40.8882 21.406 41.5262 22.044 43.0442 22.154L43.7042 20.438C43.7042 20.438 42.6042 20.416 42.6042 19.184V14.982C42.6042 12.76 41.8562 11.792 39.5022 11.792C36.8842 11.792 35.1902 13.046 35.1902 13.046L35.7622 14.674C35.7622 14.674 37.2802 13.53 38.9082 13.53C40.5142 13.53 40.4262 14.63 40.4262 15.884C36.7082 16.368 34.5302 17.622 34.5302 19.712ZM37.9402 20.548C37.3022 20.548 36.7742 20.262 36.7742 19.558C36.7742 18.392 37.8962 17.666 40.4262 17.292V19.008C39.7662 19.778 38.9522 20.548 37.9402 20.548ZM45.8935 22H48.0715V6.27L45.8935 6.622V22ZM52.2787 9.68C53.0707 9.68 53.6647 9.108 53.6647 8.338C53.6647 7.568 53.0707 6.996 52.2787 6.996C51.5087 6.996 50.9147 7.568 50.9147 8.338C50.9147 9.108 51.5087 9.68 52.2787 9.68ZM51.1787 22H53.3567V12.056H51.1787V22ZM55.7818 22H63.7678V20.24H58.5318L63.5918 13.376V12.056H55.9578V13.816H60.7318L55.7818 20.68V22ZM65.4073 17.182C65.4073 19.844 67.1013 22.264 70.4233 22.264C72.9093 22.264 74.4273 20.834 74.4273 20.834L73.8113 19.25C73.8113 19.25 72.4253 20.482 70.7533 20.482C69.0153 20.482 67.9153 19.316 67.6733 17.512L73.1073 16.786L74.3613 16.434C74.3613 13.42 72.6453 11.792 70.2693 11.792C67.3653 11.792 65.4073 14.146 65.4073 17.182ZM70.1153 13.486C71.8533 13.486 71.9853 15.51 71.9853 15.51L67.6733 16.06C67.8713 14.608 68.7073 13.486 70.1153 13.486ZM82.6657 19.294C82.6657 21.34 83.7877 22.264 85.5037 22.264C87.2637 22.264 88.5617 21.208 88.5617 21.208L88.0117 19.558C87.7477 19.712 86.8237 20.438 85.9877 20.438C85.2617 20.438 84.8437 19.954 84.8437 18.744V13.706H87.9897V12.056H84.8437V9.24L82.7097 9.702V11.968L81.1917 12.518V13.706H82.6657V19.294ZM90.4521 22H92.6301V15.598C93.2901 14.938 94.7201 13.684 95.8201 13.684C96.5681 13.684 97.0081 14.212 97.0081 15.62V22H99.1861V14.828C99.1861 12.694 98.1081 11.792 96.5241 11.792C94.6981 11.792 93.2901 13.024 92.6301 13.728V6.27L90.4521 6.622V22ZM101.325 19.712C101.325 21.186 102.447 22.264 104.185 22.264C106.121 22.264 107.133 21.032 107.397 20.614C107.683 21.406 108.321 22.044 109.839 22.154L110.499 20.438C110.499 20.438 109.399 20.416 109.399 19.184V14.982C109.399 12.76 108.651 11.792 106.297 11.792C103.679 11.792 101.985 13.046 101.985 13.046L102.557 14.674C102.557 14.674 104.075 13.53 105.703 13.53C107.309 13.53 107.221 14.63 107.221 15.884C103.503 16.368 101.325 17.622 101.325 19.712ZM104.735 20.548C104.097 20.548 103.569 20.262 103.569 19.558C103.569 18.392 104.691 17.666 107.221 17.292V19.008C106.561 19.778 105.747 20.548 104.735 20.548ZM113.131 19.294C113.131 21.34 114.253 22.264 115.969 22.264C117.729 22.264 119.027 21.208 119.027 21.208L118.477 19.558C118.213 19.712 117.289 20.438 116.453 20.438C115.727 20.438 115.309 19.954 115.309 18.744V13.706H118.455V12.056H115.309V9.24L113.175 9.702V11.968L111.657 12.518V13.706H113.131V19.294ZM126.664 22H128.93V7.326H126.664V22ZM137.1 17.16C137.1 20.042 139.102 22.264 142.204 22.264C144.58 22.264 145.724 20.988 145.724 20.988L145.02 19.448C145.02 19.448 143.942 20.482 142.358 20.482C140.488 20.482 139.366 19.008 139.366 17.05C139.366 15.026 140.576 13.552 142.38 13.552C143.832 13.552 144.866 14.476 144.866 14.476L145.724 12.848C145.724 12.848 144.514 11.792 142.336 11.792C139.058 11.792 137.1 14.41 137.1 17.16ZM147.087 19.712C147.087 21.186 148.209 22.264 149.947 22.264C151.883 22.264 152.895 21.032 153.159 20.614C153.445 21.406 154.083 22.044 155.601 22.154L156.261 20.438C156.261 20.438 155.161 20.416 155.161 19.184V14.982C155.161 12.76 154.413 11.792 152.059 11.792C149.441 11.792 147.747 13.046 147.747 13.046L148.319 14.674C148.319 14.674 149.837 13.53 151.465 13.53C153.071 13.53 152.983 14.63 152.983 15.884C149.265 16.368 147.087 17.622 147.087 19.712ZM150.497 20.548C149.859 20.548 149.331 20.262 149.331 19.558C149.331 18.392 150.453 17.666 152.983 17.292V19.008C152.323 19.778 151.509 20.548 150.497 20.548ZM158.406 22H160.584V15.554C161.266 14.894 162.674 13.684 163.774 13.684C164.522 13.684 164.962 14.212 164.962 15.62V22H167.14V14.828C167.14 12.694 166.062 11.792 164.5 11.792C162.674 11.792 161.244 13.002 160.54 13.772V11.88L158.406 12.232V22ZM175.401 22H177.579V6.27L175.401 6.622V22ZM181.786 9.68C182.578 9.68 183.172 9.108 183.172 8.338C183.172 7.568 182.578 6.996 181.786 6.996C181.016 6.996 180.422 7.568 180.422 8.338C180.422 9.108 181.016 9.68 181.786 9.68ZM180.686 22H182.864V12.056H180.686V22ZM188.326 22.088H190.35L194.442 12.056H192.22L189.426 19.272L187.006 12.056H184.718L188.326 22.088ZM195.452 17.182C195.452 19.844 197.146 22.264 200.468 22.264C202.954 22.264 204.472 20.834 204.472 20.834L203.856 19.25C203.856 19.25 202.47 20.482 200.798 20.482C199.06 20.482 197.96 19.316 197.718 17.512L203.152 16.786L204.406 16.434C204.406 13.42 202.69 11.792 200.314 11.792C197.41 11.792 195.452 14.146 195.452 17.182ZM200.16 13.486C201.898 13.486 202.03 15.51 202.03 15.51L197.718 16.06C197.916 14.608 198.752 13.486 200.16 13.486ZM211.347 19.712C211.347 21.186 212.469 22.264 214.207 22.264C216.143 22.264 217.155 21.032 217.419 20.614C217.705 21.406 218.343 22.044 219.861 22.154L220.521 20.438C220.521 20.438 219.421 20.416 219.421 19.184V14.982C219.421 12.76 218.673 11.792 216.319 11.792C213.701 11.792 212.007 13.046 212.007 13.046L212.579 14.674C212.579 14.674 214.097 13.53 215.725 13.53C217.331 13.53 217.243 14.63 217.243 15.884C213.525 16.368 211.347 17.622 211.347 19.712ZM214.757 20.548C214.119 20.548 213.591 20.262 213.591 19.558C213.591 18.392 214.713 17.666 217.243 17.292V19.008C216.583 19.778 215.769 20.548 214.757 20.548ZM10.55 43.706H12.112V52H14.29V43.706H17.04V42.056H14.29V40.868C14.29 38.536 15.346 37.722 16.512 37.722C17.59 37.722 18.558 38.426 18.558 38.426L19.416 36.754C19.416 36.754 18.272 35.918 16.534 35.918C13.938 35.918 12.112 37.744 12.112 41V41.968L10.55 42.54V43.706ZM18.928 49.272C18.928 51.406 20.028 52.264 21.634 52.264C23.46 52.264 24.846 51.098 25.484 50.416C25.594 51.142 25.814 52.176 25.814 52.176L27.926 51.978C27.926 51.978 27.486 50.152 27.486 48.942V42.056H25.308V48.744C24.692 49.316 23.46 50.372 22.338 50.372C21.524 50.372 21.106 49.822 21.106 48.436V42.056H18.928V49.272ZM30.6396 52H32.8176V36.27L30.6396 36.622V52ZM35.9248 52H38.1028V36.27L35.9248 36.622V52ZM46.4951 52H48.6731V36.27L46.4951 36.622V52ZM52.8802 39.68C53.6722 39.68 54.2662 39.108 54.2662 38.338C54.2662 37.568 53.6722 36.996 52.8802 36.996C52.1102 36.996 51.5162 37.568 51.5162 38.338C51.5162 39.108 52.1102 39.68 52.8802 39.68ZM51.7802 52H53.9582V42.056H51.7802V52ZM56.0754 43.706H57.6374V52H59.8154V43.706H62.5654V42.056H59.8154V40.868C59.8154 38.536 60.8714 37.722 62.0374 37.722C63.1154 37.722 64.0834 38.426 64.0834 38.426L64.9414 36.754C64.9414 36.754 63.7974 35.918 62.0594 35.918C59.4634 35.918 57.6374 37.744 57.6374 41V41.968L56.0754 42.54V43.706ZM63.753 47.182C63.753 49.844 65.447 52.264 68.769 52.264C71.255 52.264 72.773 50.834 72.773 50.834L72.157 49.25C72.157 49.25 70.771 50.482 69.099 50.482C67.361 50.482 66.261 49.316 66.019 47.512L71.453 46.786L72.707 46.434C72.707 43.42 70.991 41.792 68.615 41.792C65.711 41.792 63.753 44.146 63.753 47.182ZM68.461 43.486C70.199 43.486 70.331 45.51 70.331 45.51L66.019 46.06C66.217 44.608 67.053 43.486 68.461 43.486ZM79.8234 47.182C79.8234 49.844 81.5174 52.264 84.8394 52.264C87.3254 52.264 88.8434 50.834 88.8434 50.834L88.2274 49.25C88.2274 49.25 86.8414 50.482 85.1694 50.482C83.4314 50.482 82.3314 49.316 82.0894 47.512L87.5234 46.786L88.7774 46.434C88.7774 43.42 87.0614 41.792 84.6854 41.792C81.7814 41.792 79.8234 44.146 79.8234 47.182ZM84.5314 43.486C86.2694 43.486 86.4014 45.51 86.4014 45.51L82.0894 46.06C82.2874 44.608 83.1234 43.486 84.5314 43.486ZM93.6225 52.088H95.6465L99.7385 42.056H97.5165L94.7225 49.272L92.3025 42.056H90.0145L93.6225 52.088ZM100.749 47.182C100.749 49.844 102.443 52.264 105.765 52.264C108.251 52.264 109.769 50.834 109.769 50.834L109.153 49.25C109.153 49.25 107.767 50.482 106.095 50.482C104.357 50.482 103.257 49.316 103.015 47.512L108.449 46.786L109.703 46.434C109.703 43.42 107.987 41.792 105.611 41.792C102.707 41.792 100.749 44.146 100.749 47.182ZM105.457 43.486C107.195 43.486 107.327 45.51 107.327 45.51L103.015 46.06C103.213 44.608 104.049 43.486 105.457 43.486ZM112.15 52H114.328V45.554C115.01 44.894 116.418 43.684 117.518 43.684C118.266 43.684 118.706 44.212 118.706 45.62V52H120.884V44.828C120.884 42.694 119.806 41.792 118.244 41.792C116.418 41.792 114.988 43.002 114.284 43.772V41.88L112.15 42.232V52ZM131.191 52.088H133.303L135.855 45.004L138.143 52.088H140.277L143.841 42.056H141.619L139.221 49.536L136.889 42.056H134.997L132.423 49.58L130.245 42.056H128.001L131.191 52.088ZM146.81 39.68C147.602 39.68 148.196 39.108 148.196 38.338C148.196 37.568 147.602 36.996 146.81 36.996C146.04 36.996 145.446 37.568 145.446 38.338C145.446 39.108 146.04 39.68 146.81 39.68ZM145.71 52H147.888V42.056H145.71V52ZM151.523 49.294C151.523 51.34 152.645 52.264 154.361 52.264C156.121 52.264 157.419 51.208 157.419 51.208L156.869 49.558C156.605 49.712 155.681 50.438 154.845 50.438C154.119 50.438 153.701 49.954 153.701 48.744V43.706H156.847V42.056H153.701V39.24L151.567 39.702V41.968L150.049 42.518V43.706H151.523V49.294ZM159.31 52H161.488V45.598C162.148 44.938 163.578 43.684 164.678 43.684C165.426 43.684 165.866 44.212 165.866 45.62V52H168.044V44.828C168.044 42.694 166.966 41.792 165.382 41.792C163.556 41.792 162.148 43.024 161.488 43.728V36.27L159.31 36.622V52ZM175.468 49.712C175.468 51.186 176.59 52.264 178.328 52.264C180.264 52.264 181.276 51.032 181.54 50.614C181.826 51.406 182.464 52.044 183.982 52.154L184.642 50.438C184.642 50.438 183.542 50.416 183.542 49.184V44.982C183.542 42.76 182.794 41.792 180.44 41.792C177.822 41.792 176.128 43.046 176.128 43.046L176.7 44.674C176.7 44.674 178.218 43.53 179.846 43.53C181.452 43.53 181.364 44.63 181.364 45.884C177.646 46.368 175.468 47.622 175.468 49.712ZM178.878 50.548C178.24 50.548 177.712 50.262 177.712 49.558C177.712 48.392 178.834 47.666 181.364 47.292V49.008C180.704 49.778 179.89 50.548 178.878 50.548ZM10.858 77.16C10.858 80.042 12.86 82.264 15.962 82.264C18.338 82.264 19.482 80.988 19.482 80.988L18.778 79.448C18.778 79.448 17.7 80.482 16.116 80.482C14.246 80.482 13.124 79.008 13.124 77.05C13.124 75.026 14.334 73.552 16.138 73.552C17.59 73.552 18.624 74.476 18.624 74.476L19.482 72.848C19.482 72.848 18.272 71.792 16.094 71.792C12.816 71.792 10.858 74.41 10.858 77.16ZM21.6806 82H23.8586V75.598C24.5186 74.938 25.9486 73.684 27.0486 73.684C27.7966 73.684 28.2366 74.212 28.2366 75.62V82H30.4146V74.828C30.4146 72.694 29.3366 71.792 27.7526 71.792C25.9266 71.792 24.5186 73.024 23.8586 73.728V66.27L21.6806 66.622V82ZM33.3456 82H35.5236V75.84C35.9416 75.18 36.8436 73.992 37.9436 73.992C38.3836 73.992 38.8236 74.168 38.8236 74.168L39.2636 71.968C39.2636 71.968 38.9556 71.792 38.4056 71.792C36.8876 71.792 35.8756 73.2 35.4796 73.882V71.88L33.3456 72.232V82ZM40.1842 77.072C40.1842 79.712 41.9662 82.264 45.2662 82.264C48.8522 82.264 50.4362 79.25 50.4362 76.83C50.4362 74.278 48.6542 71.792 45.3542 71.792C41.7902 71.792 40.1842 74.586 40.1842 77.072ZM42.4502 76.874C42.4502 74.894 43.6162 73.53 45.3102 73.53C47.3342 73.53 48.1702 75.356 48.1702 77.116C48.1702 79.118 47.0042 80.526 45.3322 80.526C43.3522 80.526 42.4502 78.722 42.4502 76.874ZM52.789 82H54.967V75.554C55.649 74.894 57.057 73.684 58.157 73.684C58.905 73.684 59.345 74.212 59.345 75.62V82H61.523V74.828C61.523 72.694 60.445 71.792 58.883 71.792C57.057 71.792 55.627 73.002 54.923 73.772V71.88L52.789 72.232V82ZM65.599 69.68C66.391 69.68 66.985 69.108 66.985 68.338C66.985 67.568 66.391 66.996 65.599 66.996C64.829 66.996 64.235 67.568 64.235 68.338C64.235 69.108 64.829 69.68 65.599 69.68ZM64.499 82H66.677V72.056H64.499V82ZM69.1021 77.16C69.1021 80.042 71.1041 82.264 74.2061 82.264C76.5821 82.264 77.7261 80.988 77.7261 80.988L77.0221 79.448C77.0221 79.448 75.9441 80.482 74.3601 80.482C72.4901 80.482 71.3681 79.008 71.3681 77.05C71.3681 75.026 72.5781 73.552 74.3821 73.552C75.8341 73.552 76.8681 74.476 76.8681 74.476L77.7261 72.848C77.7261 72.848 76.5161 71.792 74.3381 71.792C71.0601 71.792 69.1021 74.41 69.1021 77.16ZM86.3099 69.68C87.1019 69.68 87.6959 69.108 87.6959 68.338C87.6959 67.568 87.1019 66.996 86.3099 66.996C85.5399 66.996 84.9459 67.568 84.9459 68.338C84.9459 69.108 85.5399 69.68 86.3099 69.68ZM85.2099 82H87.3879V72.056H85.2099V82ZM90.4951 82H92.6731V66.27L90.4951 66.622V82ZM95.7802 82H97.9582V66.27L95.7802 66.622V82ZM101.021 82H103.199V75.554C103.881 74.894 105.289 73.684 106.389 73.684C107.137 73.684 107.577 74.212 107.577 75.62V82H109.755V74.828C109.755 72.694 108.677 71.792 107.115 71.792C105.289 71.792 103.859 73.002 103.155 73.772V71.88L101.021 72.232V82ZM112.071 77.182C112.071 79.844 113.765 82.264 117.087 82.264C119.573 82.264 121.091 80.834 121.091 80.834L120.475 79.25C120.475 79.25 119.089 80.482 117.417 80.482C115.679 80.482 114.579 79.316 114.337 77.512L119.771 76.786L121.025 76.434C121.025 73.42 119.309 71.792 116.933 71.792C114.029 71.792 112.071 74.146 112.071 77.182ZM116.779 73.486C118.517 73.486 118.649 75.51 118.649 75.51L114.337 76.06C114.535 74.608 115.371 73.486 116.779 73.486ZM122.813 81.384C122.813 81.384 124.045 82.264 126.113 82.264C128.555 82.264 129.985 81.054 129.985 79.25C129.985 76.082 125.211 76.236 125.211 74.498C125.211 73.926 125.695 73.508 126.795 73.508C128.071 73.508 129.215 74.124 129.215 74.124L129.721 72.342C129.721 72.342 128.621 71.792 126.883 71.792C124.133 71.792 123.033 73.134 123.033 74.674C123.033 77.798 127.807 77.666 127.807 79.448C127.807 80.086 127.257 80.548 126.091 80.548C124.485 80.548 123.275 79.536 123.275 79.536L122.813 81.384ZM131.664 81.384C131.664 81.384 132.896 82.264 134.964 82.264C137.406 82.264 138.836 81.054 138.836 79.25C138.836 76.082 134.062 76.236 134.062 74.498C134.062 73.926 134.546 73.508 135.646 73.508C136.922 73.508 138.066 74.124 138.066 74.124L138.572 72.342C138.572 72.342 137.472 71.792 135.734 71.792C132.984 71.792 131.884 73.134 131.884 74.674C131.884 77.798 136.658 77.666 136.658 79.448C136.658 80.086 136.108 80.548 134.942 80.548C133.336 80.548 132.126 79.536 132.126 79.536L131.664 81.384ZM140.89 80.79C140.89 81.604 141.55 82.264 142.364 82.264C143.178 82.264 143.86 81.604 143.86 80.79C143.86 79.954 143.178 79.294 142.364 79.294C141.55 79.294 140.89 79.954 140.89 80.79Z" fill="#333333"/>
<path d="M777.002 22H779.268V15.62H784.438V13.662H779.268V9.218H785.802V7.326H777.002V22ZM786.536 17.182C786.536 19.844 788.23 22.264 791.552 22.264C794.038 22.264 795.556 20.834 795.556 20.834L794.94 19.25C794.94 19.25 793.554 20.482 791.882 20.482C790.144 20.482 789.044 19.316 788.802 17.512L794.236 16.786L795.49 16.434C795.49 13.42 793.774 11.792 791.398 11.792C788.494 11.792 786.536 14.146 786.536 17.182ZM791.244 13.486C792.982 13.486 793.114 15.51 793.114 15.51L788.802 16.06C789 14.608 789.836 13.486 791.244 13.486ZM797.321 17.182C797.321 19.844 799.015 22.264 802.337 22.264C804.823 22.264 806.341 20.834 806.341 20.834L805.725 19.25C805.725 19.25 804.339 20.482 802.667 20.482C800.929 20.482 799.829 19.316 799.587 17.512L805.021 16.786L806.275 16.434C806.275 13.42 804.559 11.792 802.183 11.792C799.279 11.792 797.321 14.146 797.321 17.182ZM802.029 13.486C803.767 13.486 803.899 15.51 803.899 15.51L799.587 16.06C799.785 14.608 800.621 13.486 802.029 13.486ZM808.767 22H810.945V6.27L808.767 6.622V22ZM819.337 22H821.515V15.598C822.175 14.938 823.605 13.684 824.705 13.684C825.453 13.684 825.893 14.212 825.893 15.62V22H828.071V14.828C828.071 12.694 826.993 11.792 825.409 11.792C823.583 11.792 822.175 13.024 821.515 13.728V6.27L819.337 6.622V22ZM830.364 17.072C830.364 19.712 832.146 22.264 835.446 22.264C839.032 22.264 840.616 19.25 840.616 16.83C840.616 14.278 838.834 11.792 835.534 11.792C831.97 11.792 830.364 14.586 830.364 17.072ZM832.63 16.874C832.63 14.894 833.796 13.53 835.49 13.53C837.514 13.53 838.35 15.356 838.35 17.116C838.35 19.118 837.184 20.526 835.512 20.526C833.532 20.526 832.63 18.722 832.63 16.874ZM842.969 27.126L845.147 26.774V21.736C845.565 22.044 846.313 22.264 847.237 22.264C850.405 22.264 852.253 19.668 852.253 16.72C852.253 14.014 850.669 11.792 848.051 11.792C846.489 11.792 845.543 12.606 845.081 13.464V11.88L842.969 12.232V27.126ZM847.677 13.596C849.019 13.596 849.965 14.806 849.965 16.874C849.965 19.25 848.711 20.548 846.841 20.548C845.807 20.548 845.147 20.174 845.147 19.426V15.202C845.433 14.784 846.357 13.596 847.677 13.596ZM854.019 17.182C854.019 19.844 855.713 22.264 859.035 22.264C861.521 22.264 863.039 20.834 863.039 20.834L862.423 19.25C862.423 19.25 861.037 20.482 859.365 20.482C857.627 20.482 856.527 19.316 856.285 17.512L861.719 16.786L862.973 16.434C862.973 13.42 861.257 11.792 858.881 11.792C855.977 11.792 854.019 14.146 854.019 17.182ZM858.727 13.486C860.465 13.486 860.597 15.51 860.597 15.51L856.285 16.06C856.483 14.608 857.319 13.486 858.727 13.486ZM864.474 13.706H866.036V22H868.214V13.706H870.964V12.056H868.214V10.868C868.214 8.536 869.27 7.722 870.436 7.722C871.514 7.722 872.482 8.426 872.482 8.426L873.34 6.754C873.34 6.754 872.196 5.918 870.458 5.918C867.862 5.918 866.036 7.744 866.036 11V11.968L864.474 12.54V13.706ZM872.852 19.272C872.852 21.406 873.952 22.264 875.558 22.264C877.384 22.264 878.77 21.098 879.408 20.416C879.518 21.142 879.738 22.176 879.738 22.176L881.85 21.978C881.85 21.978 881.41 20.152 881.41 18.942V12.056H879.232V18.744C878.616 19.316 877.384 20.372 876.262 20.372C875.448 20.372 875.03 19.822 875.03 18.436V12.056H872.852V19.272ZM884.563 22H886.741V6.27L884.563 6.622V22ZM895.662 19.294C895.662 21.34 896.784 22.264 898.5 22.264C900.26 22.264 901.558 21.208 901.558 21.208L901.008 19.558C900.744 19.712 899.82 20.438 898.984 20.438C898.258 20.438 897.84 19.954 897.84 18.744V13.706H900.986V12.056H897.84V9.24L895.706 9.702V11.968L894.188 12.518V13.706H895.662V19.294ZM903.448 22H905.626V15.598C906.286 14.938 907.716 13.684 908.816 13.684C909.564 13.684 910.004 14.212 910.004 15.62V22H912.182V14.828C912.182 12.694 911.104 11.792 909.52 11.792C907.694 11.792 906.286 13.024 905.626 13.728V6.27L903.448 6.622V22ZM914.321 19.712C914.321 21.186 915.443 22.264 917.181 22.264C919.117 22.264 920.129 21.032 920.393 20.614C920.679 21.406 921.317 22.044 922.835 22.154L923.495 20.438C923.495 20.438 922.395 20.416 922.395 19.184V14.982C922.395 12.76 921.647 11.792 919.293 11.792C916.675 11.792 914.981 13.046 914.981 13.046L915.553 14.674C915.553 14.674 917.071 13.53 918.699 13.53C920.305 13.53 920.217 14.63 920.217 15.884C916.499 16.368 914.321 17.622 914.321 19.712ZM917.731 20.548C917.093 20.548 916.565 20.262 916.565 19.558C916.565 18.392 917.687 17.666 920.217 17.292V19.008C919.557 19.778 918.743 20.548 917.731 20.548ZM926.127 19.294C926.127 21.34 927.249 22.264 928.965 22.264C930.725 22.264 932.023 21.208 932.023 21.208L931.473 19.558C931.209 19.712 930.285 20.438 929.449 20.438C928.723 20.438 928.305 19.954 928.305 18.744V13.706H931.451V12.056H928.305V9.24L926.171 9.702V11.968L924.653 12.518V13.706H926.127V19.294ZM939.66 22H941.926V7.326H939.66V22ZM950.096 17.16C950.096 20.042 952.098 22.264 955.2 22.264C957.576 22.264 958.72 20.988 958.72 20.988L958.016 19.448C958.016 19.448 956.938 20.482 955.354 20.482C953.484 20.482 952.362 19.008 952.362 17.05C952.362 15.026 953.572 13.552 955.376 13.552C956.828 13.552 957.862 14.476 957.862 14.476L958.72 12.848C958.72 12.848 957.51 11.792 955.332 11.792C952.054 11.792 950.096 14.41 950.096 17.16ZM960.083 19.712C960.083 21.186 961.205 22.264 962.943 22.264C964.879 22.264 965.891 21.032 966.155 20.614C966.441 21.406 967.079 22.044 968.597 22.154L969.257 20.438C969.257 20.438 968.157 20.416 968.157 19.184V14.982C968.157 12.76 967.409 11.792 965.055 11.792C962.437 11.792 960.743 13.046 960.743 13.046L961.315 14.674C961.315 14.674 962.833 13.53 964.461 13.53C966.067 13.53 965.979 14.63 965.979 15.884C962.261 16.368 960.083 17.622 960.083 19.712ZM963.493 20.548C962.855 20.548 962.327 20.262 962.327 19.558C962.327 18.392 963.449 17.666 965.979 17.292V19.008C965.319 19.778 964.505 20.548 963.493 20.548ZM971.402 22H973.58V15.554C974.262 14.894 975.67 13.684 976.77 13.684C977.518 13.684 977.958 14.212 977.958 15.62V22H980.136V14.828C980.136 12.694 979.058 11.792 977.496 11.792C975.67 11.792 974.24 13.002 973.536 13.772V11.88L971.402 12.232V22ZM776.474 50.24C776.474 50.922 777.112 51.318 778.102 51.648C777.046 52.198 775.572 53.144 775.572 54.596C775.572 56.334 777.728 57.214 779.928 57.214C782.92 57.214 785.362 55.52 785.362 53.518C785.362 51.692 783.36 51.142 781.6 50.702C779.532 50.196 778.564 49.998 778.564 49.602C778.564 49.36 778.916 49.096 779.378 48.788C779.598 48.832 779.84 48.832 780.104 48.832C782.238 48.832 784.504 47.666 784.504 45.488C784.504 44.608 784.086 44.014 783.778 43.662C784.042 43.706 784.35 43.728 784.592 43.728H785.78L785.626 41.99C785.626 41.99 784.966 42.21 784.306 42.21H783.162C782.062 42.21 781.49 41.792 780.28 41.792C778.058 41.792 776.056 43.046 776.056 45.268C776.056 46.61 776.782 47.776 778.036 48.392C777.222 48.854 776.474 49.514 776.474 50.24ZM780.346 52.22C782.194 52.704 783.228 52.99 783.228 53.848C783.228 54.838 781.82 55.63 780.06 55.63C778.806 55.63 777.53 55.234 777.53 54.244C777.53 53.254 778.74 52.594 779.686 52.066C779.906 52.11 780.126 52.154 780.346 52.22ZM780.258 47.292C778.85 47.292 778.19 46.28 778.19 45.334C778.19 44.3 778.938 43.332 780.258 43.332C781.666 43.332 782.348 44.476 782.348 45.444C782.348 46.566 781.468 47.292 780.258 47.292ZM787.009 47.182C787.009 49.844 788.703 52.264 792.025 52.264C794.511 52.264 796.029 50.834 796.029 50.834L795.413 49.25C795.413 49.25 794.027 50.482 792.355 50.482C790.617 50.482 789.517 49.316 789.275 47.512L794.709 46.786L795.963 46.434C795.963 43.42 794.247 41.792 791.871 41.792C788.967 41.792 787.009 44.146 787.009 47.182ZM791.717 43.486C793.455 43.486 793.587 45.51 793.587 45.51L789.275 46.06C789.473 44.608 790.309 43.486 791.717 43.486ZM798.982 49.294C798.982 51.34 800.104 52.264 801.82 52.264C803.58 52.264 804.878 51.208 804.878 51.208L804.328 49.558C804.064 49.712 803.14 50.438 802.304 50.438C801.578 50.438 801.16 49.954 801.16 48.744V43.706H804.306V42.056H801.16V39.24L799.026 39.702V41.968L797.508 42.518V43.706H798.982V49.294ZM812.01 51.78C812.758 51.956 814.452 52.264 815.64 52.264C819.402 52.264 821.206 49.58 821.206 46.676C821.206 43.948 819.622 41.792 816.872 41.792C815.508 41.792 814.694 42.342 814.188 42.914V36.27L812.01 36.622V51.78ZM816.52 43.552C817.972 43.552 818.962 44.762 818.962 46.83C818.962 49.294 817.576 50.614 815.684 50.614C814.87 50.614 814.188 50.394 814.188 50.394V44.586C814.65 44.168 815.486 43.552 816.52 43.552ZM822.819 49.712C822.819 51.186 823.941 52.264 825.679 52.264C827.615 52.264 828.627 51.032 828.891 50.614C829.177 51.406 829.815 52.044 831.333 52.154L831.993 50.438C831.993 50.438 830.893 50.416 830.893 49.184V44.982C830.893 42.76 830.145 41.792 827.791 41.792C825.173 41.792 823.479 43.046 823.479 43.046L824.051 44.674C824.051 44.674 825.569 43.53 827.197 43.53C828.803 43.53 828.715 44.63 828.715 45.884C824.997 46.368 822.819 47.622 822.819 49.712ZM826.229 50.548C825.591 50.548 825.063 50.262 825.063 49.558C825.063 48.392 826.185 47.666 828.715 47.292V49.008C828.055 49.778 827.241 50.548 826.229 50.548ZM833.501 47.16C833.501 50.042 835.503 52.264 838.605 52.264C840.981 52.264 842.125 50.988 842.125 50.988L841.421 49.448C841.421 49.448 840.343 50.482 838.759 50.482C836.889 50.482 835.767 49.008 835.767 47.05C835.767 45.026 836.977 43.552 838.781 43.552C840.233 43.552 841.267 44.476 841.267 44.476L842.125 42.848C842.125 42.848 840.915 41.792 838.737 41.792C835.459 41.792 833.501 44.41 833.501 47.16ZM844.323 52H846.501V47.292H846.809L850.769 52H853.563L848.723 46.412L853.255 42.056H850.417L846.809 45.686H846.501V36.27L844.323 36.622V52ZM859.797 47.072C859.797 49.712 861.579 52.264 864.879 52.264C868.465 52.264 870.049 49.25 870.049 46.83C870.049 44.278 868.267 41.792 864.967 41.792C861.403 41.792 859.797 44.586 859.797 47.072ZM862.063 46.874C862.063 44.894 863.229 43.53 864.923 43.53C866.947 43.53 867.783 45.356 867.783 47.116C867.783 49.118 866.617 50.526 864.945 50.526C862.965 50.526 862.063 48.722 862.063 46.874ZM872.402 52H874.58V45.554C875.262 44.894 876.67 43.684 877.77 43.684C878.518 43.684 878.958 44.212 878.958 45.62V52H881.136V44.828C881.136 42.694 880.058 41.792 878.496 41.792C876.67 41.792 875.24 43.002 874.536 43.772V41.88L872.402 42.232V52ZM889.925 49.294C889.925 51.34 891.047 52.264 892.763 52.264C894.523 52.264 895.821 51.208 895.821 51.208L895.271 49.558C895.007 49.712 894.083 50.438 893.247 50.438C892.521 50.438 892.103 49.954 892.103 48.744V43.706H895.249V42.056H892.103V39.24L889.969 39.702V41.968L888.451 42.518V43.706H889.925V49.294ZM897.668 52H899.846V45.84C900.264 45.18 901.166 43.992 902.266 43.992C902.706 43.992 903.146 44.168 903.146 44.168L903.586 41.968C903.586 41.968 903.278 41.792 902.728 41.792C901.21 41.792 900.198 43.2 899.802 43.882V41.88L897.668 42.232V52ZM904.524 49.712C904.524 51.186 905.646 52.264 907.384 52.264C909.32 52.264 910.332 51.032 910.596 50.614C910.882 51.406 911.52 52.044 913.038 52.154L913.698 50.438C913.698 50.438 912.598 50.416 912.598 49.184V44.982C912.598 42.76 911.85 41.792 909.496 41.792C906.878 41.792 905.184 43.046 905.184 43.046L905.756 44.674C905.756 44.674 907.274 43.53 908.902 43.53C910.508 43.53 910.42 44.63 910.42 45.884C906.702 46.368 904.524 47.622 904.524 49.712ZM907.934 50.548C907.296 50.548 906.768 50.262 906.768 49.558C906.768 48.392 907.89 47.666 910.42 47.292V49.008C909.76 49.778 908.946 50.548 907.934 50.548ZM915.206 47.16C915.206 50.042 917.208 52.264 920.31 52.264C922.686 52.264 923.83 50.988 923.83 50.988L923.126 49.448C923.126 49.448 922.048 50.482 920.464 50.482C918.594 50.482 917.472 49.008 917.472 47.05C917.472 45.026 918.682 43.552 920.486 43.552C921.938 43.552 922.972 44.476 922.972 44.476L923.83 42.848C923.83 42.848 922.62 41.792 920.442 41.792C917.164 41.792 915.206 44.41 915.206 47.16ZM926.028 52H928.206V47.292H928.514L932.474 52H935.268L930.428 46.412L934.96 42.056H932.122L928.514 45.686H928.206V36.27L926.028 36.622V52ZM775.704 79.712C775.704 81.186 776.826 82.264 778.564 82.264C780.5 82.264 781.512 81.032 781.776 80.614C782.062 81.406 782.7 82.044 784.218 82.154L784.878 80.438C784.878 80.438 783.778 80.416 783.778 79.184V74.982C783.778 72.76 783.03 71.792 780.676 71.792C778.058 71.792 776.364 73.046 776.364 73.046L776.936 74.674C776.936 74.674 778.454 73.53 780.082 73.53C781.688 73.53 781.6 74.63 781.6 75.884C777.882 76.368 775.704 77.622 775.704 79.712ZM779.114 80.548C778.476 80.548 777.948 80.262 777.948 79.558C777.948 78.392 779.07 77.666 781.6 77.292V79.008C780.94 79.778 780.126 80.548 779.114 80.548ZM786.077 73.706H787.639V82H789.817V73.706H792.567V72.056H789.817V70.868C789.817 68.536 790.873 67.722 792.039 67.722C793.117 67.722 794.085 68.426 794.085 68.426L794.943 66.754C794.943 66.754 793.799 65.918 792.061 65.918C789.465 65.918 787.639 67.744 787.639 71V71.968L786.077 72.54V73.706ZM795.093 79.294C795.093 81.34 796.215 82.264 797.931 82.264C799.691 82.264 800.989 81.208 800.989 81.208L800.439 79.558C800.175 79.712 799.251 80.438 798.415 80.438C797.689 80.438 797.271 79.954 797.271 78.744V73.706H800.417V72.056H797.271V69.24L795.137 69.702V71.968L793.619 72.518V73.706H795.093V79.294ZM802.22 77.182C802.22 79.844 803.914 82.264 807.236 82.264C809.722 82.264 811.24 80.834 811.24 80.834L810.624 79.25C810.624 79.25 809.238 80.482 807.566 80.482C805.828 80.482 804.728 79.316 804.486 77.512L809.92 76.786L811.174 76.434C811.174 73.42 809.458 71.792 807.082 71.792C804.178 71.792 802.22 74.146 802.22 77.182ZM806.928 73.486C808.666 73.486 808.798 75.51 808.798 75.51L804.486 76.06C804.684 74.608 805.52 73.486 806.928 73.486ZM813.621 82H815.799V75.84C816.217 75.18 817.119 73.992 818.219 73.992C818.659 73.992 819.099 74.168 819.099 74.168L819.539 71.968C819.539 71.968 819.231 71.792 818.681 71.792C817.163 71.792 816.151 73.2 815.755 73.882V71.88L813.621 72.232V82ZM825.763 79.712C825.763 81.186 826.885 82.264 828.623 82.264C830.559 82.264 831.571 81.032 831.835 80.614C832.121 81.406 832.759 82.044 834.277 82.154L834.937 80.438C834.937 80.438 833.837 80.416 833.837 79.184V74.982C833.837 72.76 833.089 71.792 830.735 71.792C828.117 71.792 826.423 73.046 826.423 73.046L826.995 74.674C826.995 74.674 828.513 73.53 830.141 73.53C831.747 73.53 831.659 74.63 831.659 75.884C827.941 76.368 825.763 77.622 825.763 79.712ZM829.173 80.548C828.535 80.548 828.007 80.262 828.007 79.558C828.007 78.392 829.129 77.666 831.659 77.292V79.008C830.999 79.778 830.185 80.548 829.173 80.548ZM842.367 82H844.545V75.84C844.963 75.18 845.865 73.992 846.965 73.992C847.405 73.992 847.845 74.168 847.845 74.168L848.285 71.968C848.285 71.968 847.977 71.792 847.427 71.792C845.909 71.792 844.897 73.2 844.501 73.882V71.88L842.367 72.232V82ZM849.228 77.182C849.228 79.844 850.922 82.264 854.244 82.264C856.73 82.264 858.248 80.834 858.248 80.834L857.632 79.25C857.632 79.25 856.246 80.482 854.574 80.482C852.836 80.482 851.736 79.316 851.494 77.512L856.928 76.786L858.182 76.434C858.182 73.42 856.466 71.792 854.09 71.792C851.186 71.792 849.228 74.146 849.228 77.182ZM853.936 73.486C855.674 73.486 855.806 75.51 855.806 75.51L851.494 76.06C851.692 74.608 852.528 73.486 853.936 73.486ZM860.673 82H862.851V66.27L860.673 66.622V82ZM865.122 79.712C865.122 81.186 866.244 82.264 867.982 82.264C869.918 82.264 870.93 81.032 871.194 80.614C871.48 81.406 872.118 82.044 873.636 82.154L874.296 80.438C874.296 80.438 873.196 80.416 873.196 79.184V74.982C873.196 72.76 872.448 71.792 870.094 71.792C867.476 71.792 865.782 73.046 865.782 73.046L866.354 74.674C866.354 74.674 867.872 73.53 869.5 73.53C871.106 73.53 871.018 74.63 871.018 75.884C867.3 76.368 865.122 77.622 865.122 79.712ZM868.532 80.548C867.894 80.548 867.366 80.262 867.366 79.558C867.366 78.392 868.488 77.666 871.018 77.292V79.008C870.358 79.778 869.544 80.548 868.532 80.548ZM876.441 87.126L878.619 86.774V81.736C879.037 82.044 879.785 82.264 880.709 82.264C883.877 82.264 885.725 79.668 885.725 76.72C885.725 74.014 884.141 71.792 881.523 71.792C879.961 71.792 879.015 72.606 878.553 73.464V71.88L876.441 72.232V87.126ZM881.149 73.596C882.491 73.596 883.437 74.806 883.437 76.874C883.437 79.25 882.183 80.548 880.313 80.548C879.279 80.548 878.619 80.174 878.619 79.426V75.202C878.905 74.784 879.829 73.596 881.149 73.596ZM887.447 81.384C887.447 81.384 888.679 82.264 890.747 82.264C893.189 82.264 894.619 81.054 894.619 79.25C894.619 76.082 889.845 76.236 889.845 74.498C889.845 73.926 890.329 73.508 891.429 73.508C892.705 73.508 893.849 74.124 893.849 74.124L894.355 72.342C894.355 72.342 893.255 71.792 891.517 71.792C888.767 71.792 887.667 73.134 887.667 74.674C887.667 77.798 892.441 77.666 892.441 79.448C892.441 80.086 891.891 80.548 890.725 80.548C889.119 80.548 887.909 79.536 887.909 79.536L887.447 81.384ZM896.343 77.182C896.343 79.844 898.037 82.264 901.359 82.264C903.845 82.264 905.363 80.834 905.363 80.834L904.747 79.25C904.747 79.25 903.361 80.482 901.689 80.482C899.951 80.482 898.851 79.316 898.609 77.512L904.043 76.786L905.297 76.434C905.297 73.42 903.581 71.792 901.205 71.792C898.301 71.792 896.343 74.146 896.343 77.182ZM901.051 73.486C902.789 73.486 902.921 75.51 902.921 75.51L898.609 76.06C898.807 74.608 899.643 73.486 901.051 73.486Z" fill="#333333"/>
<path d="M38 230.09L38 227.138C38 222.8 35.84 219.776 31.808 219.776C27.542 219.776 25.994 223.178 25.994 226.454L25.994 230.09L38 230.09ZM36.758 228.614L27.236 228.614L27.236 226.706C27.236 223.214 29.09 221.36 31.97 221.36C34.634 221.36 36.758 222.944 36.758 227.318L36.758 228.614ZM36.182 218.338C37.37 218.338 38.216 217.456 38.216 216.07C38.216 214.432 37.064 213.55 36.812 213.388C37.478 213.208 38 212.776 38.126 211.642L36.992 211.174C36.992 211.174 36.974 212.074 35.912 212.074L32.258 212.074C30.44 212.074 29.684 212.65 29.684 214.414C29.684 216.43 30.674 217.78 30.674 217.78L31.808 217.348C31.808 217.348 30.908 216.16 30.908 214.81C30.908 213.46 31.808 213.478 32.762 213.478L33.068 213.478C33.464 216.556 34.508 218.338 36.182 218.338ZM36.992 215.782C36.992 216.376 36.722 216.844 36.092 216.844C35.048 216.844 34.472 215.764 34.094 213.478L35.588 213.478C36.254 214.054 36.992 214.792 36.992 215.782ZM35.858 208.891C37.514 208.891 38.216 208.063 38.216 206.785C38.216 205.435 37.388 204.445 37.388 204.445L36.254 204.787C36.254 204.787 36.992 205.651 36.992 206.497C36.992 207.109 36.56 207.487 35.48 207.487L31.034 207.487L31.034 204.859L29.9 204.859L29.9 207.487L27.668 207.487L28.01 208.891L29.81 208.891L30.278 210.043L31.034 210.043L31.034 208.891L35.858 208.891ZM36.182 203.45C37.37 203.45 38.216 202.568 38.216 201.182C38.216 199.544 37.064 198.662 36.812 198.5C37.478 198.32 38 197.888 38.126 196.754L36.992 196.286C36.992 196.286 36.974 197.186 35.912 197.186L32.258 197.186C30.44 197.186 29.684 197.762 29.684 199.526C29.684 201.542 30.674 202.892 30.674 202.892L31.808 202.46C31.808 202.46 30.908 201.272 30.908 199.922C30.908 198.572 31.808 198.59 32.762 198.59L33.068 198.59C33.464 201.668 34.508 203.45 36.182 203.45ZM36.992 200.894C36.992 201.488 36.722 201.956 36.092 201.956C35.048 201.956 34.472 200.876 34.094 198.59L35.588 198.59C36.254 199.166 36.992 199.904 36.992 200.894ZM38 190.004L38 188.6L32.87 188.6C32.312 188.276 31.214 187.52 31.214 186.584C31.214 186.26 31.358 185.9 31.358 185.9L29.846 185.54C29.846 185.54 29.684 185.792 29.684 186.242C29.684 187.466 30.836 188.294 31.376 188.6L29.774 188.6L30.026 190.004L38 190.004ZM34.13 184.655C36.254 184.655 38.216 183.323 38.216 180.641C38.216 178.697 37.046 177.527 37.046 177.527L35.966 177.941C35.966 177.941 36.992 179.093 36.992 180.479C36.992 182.063 35.858 183.035 34.184 183.161L33.554 178.391L33.302 177.527C30.98 177.527 29.684 178.895 29.684 180.767C29.684 183.071 31.592 184.655 34.13 184.655ZM30.854 180.857C30.854 179.237 32.582 179.075 32.582 179.075L33.104 183.143C31.844 182.945 30.854 182.153 30.854 180.857ZM36.182 176.045C37.37 176.045 38.216 175.163 38.216 173.777C38.216 172.139 37.064 171.257 36.812 171.095C37.478 170.915 38 170.483 38.126 169.349L36.992 168.881C36.992 168.881 36.974 169.781 35.912 169.781L32.258 169.781C30.44 169.781 29.684 170.357 29.684 172.121C29.684 174.137 30.674 175.487 30.674 175.487L31.808 175.055C31.808 175.055 30.908 173.867 30.908 172.517C30.908 171.167 31.808 171.185 32.762 171.185L33.068 171.185C33.464 174.263 34.508 176.045 36.182 176.045ZM36.992 173.489C36.992 174.083 36.722 174.551 36.092 174.551C35.048 174.551 34.472 173.471 34.094 171.185L35.588 171.185C36.254 171.761 36.992 172.499 36.992 173.489ZM34.22 167.446C36.452 167.446 38.216 166.078 38.216 163.972C38.216 162.676 37.55 161.794 36.83 161.344C37.388 161.254 38.126 161.092 38.126 161.092L38 159.706C38 159.706 36.488 160.066 35.498 160.066L25.148 160.066L25.4 161.47L29.972 161.47C29.882 161.686 29.684 162.226 29.684 163.036C29.684 165.934 31.88 167.446 34.22 167.446ZM36.992 163.792C36.992 165.016 35.93 165.952 34.13 165.952C32.06 165.952 30.872 164.746 30.872 163.018C30.872 162.244 31.124 161.506 32.024 161.47L35.516 161.47C35.858 161.686 36.992 162.514 36.992 163.792ZM27.848 156.57C27.848 156.03 27.416 155.598 26.876 155.598C26.336 155.598 25.904 156.03 25.904 156.57C25.904 157.11 26.336 157.542 26.876 157.542C27.416 157.542 27.848 157.11 27.848 156.57ZM38 157.29L38 155.886L29.9 155.886L29.9 157.29L38 157.29ZM38 153.178L38 151.774L32.654 151.774C32.15 151.252 30.926 149.866 30.926 148.804C30.926 148.192 31.304 147.706 32.51 147.706L38 147.706L38 146.302L32.114 146.302C30.368 146.302 29.684 147.22 29.684 148.426C29.684 149.992 30.818 151.252 31.358 151.774L29.774 151.774L30.026 153.178L38 153.178ZM36.542 143.74C37.082 143.74 37.406 143.182 37.64 142.39C38.108 143.308 38.864 144.496 40.106 144.496C41.546 144.496 42.266 142.786 42.266 141.04C42.266 138.736 40.934 136.72 39.278 136.72C37.802 136.72 37.37 138.304 37.028 139.852C36.686 141.382 36.506 142.228 36.164 142.228C35.93 142.228 35.678 141.886 35.408 141.508C35.444 141.31 35.462 141.094 35.462 140.86C35.462 139.24 34.544 137.422 32.654 137.422C31.862 137.422 31.304 137.818 31.07 138.034C31.088 137.854 31.106 137.602 31.106 137.368L31.106 136.342L29.846 136.468C29.846 136.468 30.026 137.008 30.026 137.53L30.026 138.394C30.026 139.276 29.684 139.78 29.684 140.716C29.684 142.48 30.728 144.064 32.51 144.064C33.644 144.064 34.598 143.47 35.102 142.498C35.444 143.074 35.966 143.74 36.542 143.74ZM39.908 143.2C39.008 143.2 38.468 142.174 37.946 141.22C38 140.914 38.054 140.626 38.126 140.32C38.396 139.096 38.684 138.16 39.476 138.16C40.376 138.16 41.186 139.402 41.186 140.932C41.186 141.886 40.88 143.2 39.908 143.2ZM34.382 140.734C34.382 142.03 33.5 142.624 32.6 142.624C31.574 142.624 30.764 141.922 30.764 140.77C30.764 139.492 31.808 138.862 32.726 138.862C33.788 138.862 34.382 139.672 34.382 140.734Z" fill="black"/>
</svg>
