<svg width="1158" height="532" viewBox="0 0 1158 532" fill="none" xmlns="http://www.w3.org/2000/svg">
<rect x="1" y="1" width="1156" height="530" fill="#FAFAFA" stroke="#BDBDBD" stroke-width="2"/>
<path d="M80 451.496V228.991H307.14V451.496" stroke="#828282" stroke-width="4"/>
<path d="M589.906 451.496V228.991H817.046V451.496" stroke="#828282" stroke-width="4"/>
<path d="M334.953 451.496V228.991H562.093V451.496" stroke="#828282" stroke-width="4"/>
<path d="M844.859 451.496V228.991H1072V451.496" stroke="#828282" stroke-width="4"/>
<rect x="89" y="241" width="45" height="160" fill="#EDE3E4"/>
<rect x="599" y="241" width="45" height="173" fill="#EFE8DF"/>
<rect x="344" y="241" width="45" height="173" fill="#D9DFE9"/>
<rect x="854" y="241" width="45" height="142" fill="#DFDDE2"/>
<rect x="143.738" y="240.578" width="45.1963" height="202.804" fill="#EDE3E4"/>
<rect x="654" y="241" width="45" height="142" fill="#EFE8DF"/>
<rect x="399" y="241" width="45" height="142" fill="#D9DFE9"/>
<rect x="909" y="241" width="45" height="173" fill="#DFDDE2"/>
<rect x="253" y="241" width="45" height="160" fill="#EDE3E4"/>
<rect x="763" y="241" width="45" height="152" fill="#EFE8DF"/>
<rect x="508" y="241" width="45" height="173" fill="#D9DFE9"/>
<rect x="1018" y="241" width="45" height="142" fill="#DFDDE2"/>
<rect x="198" y="241" width="45" height="202" fill="#EDE3E4"/>
<rect x="708" y="241" width="45" height="173" fill="#EFE8DF"/>
<rect x="453" y="241" width="45" height="142" fill="#D9DFE9"/>
<rect x="963" y="241" width="45" height="160" fill="#DFDDE2"/>
<path d="M89.99 94.894C89.99 99.448 93.554 102.264 97.998 102.264C100.176 102.264 103.08 101.582 103.08 101.582V94.256H97.778V96.148H100.836V99.998C100.836 99.998 99.538 100.306 98.262 100.306C94.742 100.306 92.344 98.04 92.344 94.718C92.344 91.748 94.258 89.02 97.998 89.02C100.396 89.02 102.156 90.12 102.156 90.12L103.036 88.162C103.036 88.162 101.078 87.062 98.108 87.062C92.916 87.062 89.99 90.758 89.99 94.894ZM105.437 94.696C105.437 98.744 108.451 102.264 113.093 102.264C117.889 102.264 121.013 98.502 121.013 94.388C121.013 90.34 118.021 87.062 113.291 87.062C108.253 87.062 105.437 90.824 105.437 94.696ZM107.835 94.586C107.835 91.77 109.749 88.998 113.225 88.998C116.701 88.998 118.615 91.726 118.615 94.564C118.615 97.424 116.613 100.328 113.159 100.328C109.683 100.328 107.835 97.314 107.835 94.586ZM122.048 102H124.314L125.744 98.084H131.596L133.048 102H135.38L129.792 87.216H127.636L122.048 102ZM128.67 90.12L130.914 96.192H126.448L128.67 90.12ZM137.602 102H146.732V100.108H139.868V87.326H137.602V102ZM153.457 102H160.343V100.24H158.077V91.616H153.589V93.354H155.921V100.24H153.457V102ZM94.456 132.11H96.634L101.892 117.326H99.582L95.6 128.744L91.618 117.326H89.22L94.456 132.11ZM102.165 129.712C102.165 131.186 103.287 132.264 105.025 132.264C106.961 132.264 107.973 131.032 108.237 130.614C108.523 131.406 109.161 132.044 110.679 132.154L111.339 130.438C111.339 130.438 110.239 130.416 110.239 129.184V124.982C110.239 122.76 109.491 121.792 107.137 121.792C104.519 121.792 102.825 123.046 102.825 123.046L103.397 124.674C103.397 124.674 104.915 123.53 106.543 123.53C108.149 123.53 108.061 124.63 108.061 125.884C104.343 126.368 102.165 127.622 102.165 129.712ZM105.575 130.548C104.937 130.548 104.409 130.262 104.409 129.558C104.409 128.392 105.531 127.666 108.061 127.292V129.008C107.401 129.778 106.587 130.548 105.575 130.548ZM113.528 132H115.706V116.27L113.528 116.622V132ZM118.703 129.272C118.703 131.406 119.803 132.264 121.409 132.264C123.235 132.264 124.621 131.098 125.259 130.416C125.369 131.142 125.589 132.176 125.589 132.176L127.701 131.978C127.701 131.978 127.261 130.152 127.261 128.942V122.056H125.083V128.744C124.467 129.316 123.235 130.372 122.113 130.372C121.299 130.372 120.881 129.822 120.881 128.436V122.056H118.703V129.272ZM129.755 127.182C129.755 129.844 131.449 132.264 134.771 132.264C137.257 132.264 138.775 130.834 138.775 130.834L138.159 129.25C138.159 129.25 136.773 130.482 135.101 130.482C133.363 130.482 132.263 129.316 132.021 127.512L137.455 126.786L138.709 126.434C138.709 123.42 136.993 121.792 134.617 121.792C131.713 121.792 129.755 124.146 129.755 127.182ZM134.463 123.486C136.201 123.486 136.333 125.51 136.333 125.51L132.021 126.06C132.219 124.608 133.055 123.486 134.463 123.486ZM146.441 132H148.619V125.532C149.257 124.894 150.621 123.684 151.699 123.684C152.425 123.684 152.821 124.212 152.821 125.62V132H154.999V125.488C155.747 124.762 156.979 123.684 157.991 123.684C158.717 123.684 159.135 124.212 159.135 125.62V132H161.291V124.828C161.291 122.694 160.257 121.792 158.717 121.792C156.979 121.792 155.615 122.958 154.889 123.75C154.581 122.386 153.679 121.792 152.425 121.792C150.665 121.792 149.257 123.002 148.575 123.75V121.88L146.441 122.232V132ZM163.086 135.476L163.768 137.214C166.1 136.95 167.552 134.86 168.41 132.748L172.722 122.056H170.478L167.904 128.876L165.286 122.056H162.976L166.826 131.494L166.298 132.682C165.704 134.068 164.538 135.234 163.086 135.476ZM173.797 131.384C173.797 131.384 175.029 132.264 177.097 132.264C179.539 132.264 180.969 131.054 180.969 129.25C180.969 126.082 176.195 126.236 176.195 124.498C176.195 123.926 176.679 123.508 177.779 123.508C179.055 123.508 180.199 124.124 180.199 124.124L180.705 122.342C180.705 122.342 179.605 121.792 177.867 121.792C175.117 121.792 174.017 123.134 174.017 124.674C174.017 127.798 178.791 127.666 178.791 129.448C178.791 130.086 178.241 130.548 177.075 130.548C175.469 130.548 174.259 129.536 174.259 129.536L173.797 131.384ZM182.693 127.182C182.693 129.844 184.387 132.264 187.709 132.264C190.195 132.264 191.713 130.834 191.713 130.834L191.097 129.25C191.097 129.25 189.711 130.482 188.039 130.482C186.301 130.482 185.201 129.316 184.959 127.512L190.393 126.786L191.647 126.434C191.647 123.42 189.931 121.792 187.555 121.792C184.651 121.792 182.693 124.146 182.693 127.182ZM187.401 123.486C189.139 123.486 189.271 125.51 189.271 125.51L184.959 126.06C185.157 124.608 185.993 123.486 187.401 123.486ZM194.138 132H196.316V116.27L194.138 116.622V132ZM198.433 123.706H199.995V132H202.173V123.706H204.923V122.056H202.173V120.868C202.173 118.536 203.229 117.722 204.395 117.722C205.473 117.722 206.441 118.426 206.441 118.426L207.299 116.754C207.299 116.754 206.155 115.918 204.417 115.918C201.821 115.918 199.995 117.744 199.995 121V121.968L198.433 122.54V123.706ZM211.546 127.182C211.546 129.844 213.24 132.264 216.562 132.264C219.048 132.264 220.566 130.834 220.566 130.834L219.95 129.25C219.95 129.25 218.564 130.482 216.892 130.482C215.154 130.482 214.054 129.316 213.812 127.512L219.246 126.786L220.5 126.434C220.5 123.42 218.784 121.792 216.408 121.792C213.504 121.792 211.546 124.146 211.546 127.182ZM216.254 123.486C217.992 123.486 218.124 125.51 218.124 125.51L213.812 126.06C214.01 124.608 214.846 123.486 216.254 123.486ZM222.947 132H225.125V125.554C225.807 124.894 227.215 123.684 228.315 123.684C229.063 123.684 229.503 124.212 229.503 125.62V132H231.681V124.828C231.681 122.694 230.603 121.792 229.041 121.792C227.215 121.792 225.785 123.002 225.081 123.772V121.88L222.947 122.232V132ZM233.975 127.072C233.975 129.712 235.757 132.264 239.057 132.264C242.643 132.264 244.227 129.25 244.227 126.83C244.227 124.278 242.445 121.792 239.145 121.792C235.581 121.792 233.975 124.586 233.975 127.072ZM236.241 126.874C236.241 124.894 237.407 123.53 239.101 123.53C241.125 123.53 241.961 125.356 241.961 127.116C241.961 129.118 240.795 130.526 239.123 130.526C237.143 130.526 236.241 128.722 236.241 126.874ZM246.514 129.272C246.514 131.406 247.614 132.264 249.22 132.264C251.046 132.264 252.432 131.098 253.07 130.416C253.18 131.142 253.4 132.176 253.4 132.176L255.512 131.978C255.512 131.978 255.072 130.152 255.072 128.942V122.056H252.894V128.744C252.278 129.316 251.046 130.372 249.924 130.372C249.11 130.372 248.692 129.822 248.692 128.436V122.056H246.514V129.272ZM258.16 130.24C258.16 130.922 258.798 131.318 259.788 131.648C258.732 132.198 257.258 133.144 257.258 134.596C257.258 136.334 259.414 137.214 261.614 137.214C264.606 137.214 267.048 135.52 267.048 133.518C267.048 131.692 265.046 131.142 263.286 130.702C261.218 130.196 260.25 129.998 260.25 129.602C260.25 129.36 260.602 129.096 261.064 128.788C261.284 128.832 261.526 128.832 261.79 128.832C263.924 128.832 266.19 127.666 266.19 125.488C266.19 124.608 265.772 124.014 265.464 123.662C265.728 123.706 266.036 123.728 266.278 123.728H267.466L267.312 121.99C267.312 121.99 266.652 122.21 265.992 122.21H264.848C263.748 122.21 263.176 121.792 261.966 121.792C259.744 121.792 257.742 123.046 257.742 125.268C257.742 126.61 258.468 127.776 259.722 128.392C258.908 128.854 258.16 129.514 258.16 130.24ZM262.032 132.22C263.88 132.704 264.914 132.99 264.914 133.848C264.914 134.838 263.506 135.63 261.746 135.63C260.492 135.63 259.216 135.234 259.216 134.244C259.216 133.254 260.426 132.594 261.372 132.066C261.592 132.11 261.812 132.154 262.032 132.22ZM261.944 127.292C260.536 127.292 259.876 126.28 259.876 125.334C259.876 124.3 260.624 123.332 261.944 123.332C263.352 123.332 264.034 124.476 264.034 125.444C264.034 126.566 263.154 127.292 261.944 127.292ZM269.354 132H271.532V125.598C272.192 124.938 273.622 123.684 274.722 123.684C275.47 123.684 275.91 124.212 275.91 125.62V132H278.088V124.828C278.088 122.694 277.01 121.792 275.426 121.792C273.6 121.792 272.192 123.024 271.532 123.728V116.27L269.354 116.622V132ZM286.877 129.294C286.877 131.34 287.999 132.264 289.715 132.264C291.475 132.264 292.773 131.208 292.773 131.208L292.223 129.558C291.959 129.712 291.035 130.438 290.199 130.438C289.473 130.438 289.055 129.954 289.055 128.744V123.706H292.201V122.056H289.055V119.24L286.921 119.702V121.968L285.403 122.518V123.706H286.877V129.294ZM293.981 127.072C293.981 129.712 295.763 132.264 299.063 132.264C302.649 132.264 304.233 129.25 304.233 126.83C304.233 124.278 302.451 121.792 299.151 121.792C295.587 121.792 293.981 124.586 293.981 127.072ZM296.247 126.874C296.247 124.894 297.413 123.53 299.107 123.53C301.131 123.53 301.967 125.356 301.967 127.116C301.967 129.118 300.801 130.526 299.129 130.526C297.149 130.526 296.247 128.722 296.247 126.874ZM91.068 159.294C91.068 161.34 92.19 162.264 93.906 162.264C95.666 162.264 96.964 161.208 96.964 161.208L96.414 159.558C96.15 159.712 95.226 160.438 94.39 160.438C93.664 160.438 93.246 159.954 93.246 158.744V153.706H96.392V152.056H93.246V149.24L91.112 149.702V151.968L89.594 152.518V153.706H91.068V159.294ZM98.0185 159.712C98.0185 161.186 99.1405 162.264 100.878 162.264C102.814 162.264 103.826 161.032 104.09 160.614C104.376 161.406 105.014 162.044 106.532 162.154L107.192 160.438C107.192 160.438 106.092 160.416 106.092 159.184V154.982C106.092 152.76 105.344 151.792 102.99 151.792C100.372 151.792 98.6785 153.046 98.6785 153.046L99.2505 154.674C99.2505 154.674 100.768 153.53 102.396 153.53C104.002 153.53 103.914 154.63 103.914 155.884C100.196 156.368 98.0185 157.622 98.0185 159.712ZM101.428 160.548C100.79 160.548 100.262 160.262 100.262 159.558C100.262 158.392 101.384 157.666 103.914 157.292V159.008C103.254 159.778 102.44 160.548 101.428 160.548ZM109.382 162H111.56V157.292H111.868L115.828 162H118.622L113.782 156.412L118.314 152.056H115.476L111.868 155.686H111.56V146.27L109.382 146.622V162ZM119.163 157.182C119.163 159.844 120.857 162.264 124.179 162.264C126.665 162.264 128.183 160.834 128.183 160.834L127.567 159.25C127.567 159.25 126.181 160.482 124.509 160.482C122.771 160.482 121.671 159.316 121.429 157.512L126.863 156.786L128.117 156.434C128.117 153.42 126.401 151.792 124.025 151.792C121.121 151.792 119.163 154.146 119.163 157.182ZM123.871 153.486C125.609 153.486 125.741 155.51 125.741 155.51L121.429 156.06C121.627 154.608 122.463 153.486 123.871 153.486ZM135.212 157.16C135.212 160.042 137.214 162.264 140.316 162.264C142.692 162.264 143.836 160.988 143.836 160.988L143.132 159.448C143.132 159.448 142.054 160.482 140.47 160.482C138.6 160.482 137.478 159.008 137.478 157.05C137.478 155.026 138.688 153.552 140.492 153.552C141.944 153.552 142.978 154.476 142.978 154.476L143.836 152.848C143.836 152.848 142.626 151.792 140.448 151.792C137.17 151.792 135.212 154.41 135.212 157.16ZM145.18 157.072C145.18 159.712 146.962 162.264 150.262 162.264C153.848 162.264 155.432 159.25 155.432 156.83C155.432 154.278 153.65 151.792 150.35 151.792C146.786 151.792 145.18 154.586 145.18 157.072ZM147.446 156.874C147.446 154.894 148.612 153.53 150.306 153.53C152.33 153.53 153.166 155.356 153.166 157.116C153.166 159.118 152 160.526 150.328 160.526C148.348 160.526 147.446 158.722 147.446 156.874ZM157.785 162H159.963V155.554C160.645 154.894 162.053 153.684 163.153 153.684C163.901 153.684 164.341 154.212 164.341 155.62V162H166.519V154.828C166.519 152.694 165.441 151.792 163.879 151.792C162.053 151.792 160.623 153.002 159.919 153.772V151.88L157.785 152.232V162ZM168.791 161.384C168.791 161.384 170.023 162.264 172.091 162.264C174.533 162.264 175.963 161.054 175.963 159.25C175.963 156.082 171.189 156.236 171.189 154.498C171.189 153.926 171.673 153.508 172.773 153.508C174.049 153.508 175.193 154.124 175.193 154.124L175.699 152.342C175.699 152.342 174.599 151.792 172.861 151.792C170.111 151.792 169.011 153.134 169.011 154.674C169.011 157.798 173.785 157.666 173.785 159.448C173.785 160.086 173.235 160.548 172.069 160.548C170.463 160.548 169.253 159.536 169.253 159.536L168.791 161.384ZM179.447 149.68C180.239 149.68 180.833 149.108 180.833 148.338C180.833 147.568 180.239 146.996 179.447 146.996C178.677 146.996 178.083 147.568 178.083 148.338C178.083 149.108 178.677 149.68 179.447 149.68ZM178.347 162H180.525V152.056H178.347V162ZM182.928 161.384C182.928 161.384 184.16 162.264 186.228 162.264C188.67 162.264 190.1 161.054 190.1 159.25C190.1 156.082 185.326 156.236 185.326 154.498C185.326 153.926 185.81 153.508 186.91 153.508C188.186 153.508 189.33 154.124 189.33 154.124L189.836 152.342C189.836 152.342 188.736 151.792 186.998 151.792C184.248 151.792 183.148 153.134 183.148 154.674C183.148 157.798 187.922 157.666 187.922 159.448C187.922 160.086 187.372 160.548 186.206 160.548C184.6 160.548 183.39 159.536 183.39 159.536L182.928 161.384ZM193.011 159.294C193.011 161.34 194.133 162.264 195.849 162.264C197.609 162.264 198.907 161.208 198.907 161.208L198.357 159.558C198.093 159.712 197.169 160.438 196.333 160.438C195.607 160.438 195.189 159.954 195.189 158.744V153.706H198.335V152.056H195.189V149.24L193.055 149.702V151.968L191.537 152.518V153.706H193.011V159.294ZM200.138 157.182C200.138 159.844 201.832 162.264 205.154 162.264C207.64 162.264 209.158 160.834 209.158 160.834L208.542 159.25C208.542 159.25 207.156 160.482 205.484 160.482C203.746 160.482 202.646 159.316 202.404 157.512L207.838 156.786L209.092 156.434C209.092 153.42 207.376 151.792 205 151.792C202.096 151.792 200.138 154.146 200.138 157.182ZM204.846 153.486C206.584 153.486 206.716 155.51 206.716 155.51L202.404 156.06C202.602 154.608 203.438 153.486 204.846 153.486ZM211.539 162H213.717V155.554C214.399 154.894 215.807 153.684 216.907 153.684C217.655 153.684 218.095 154.212 218.095 155.62V162H220.273V154.828C220.273 152.694 219.195 151.792 217.633 151.792C215.807 151.792 214.377 153.002 213.673 153.772V151.88L211.539 152.232V162ZM223.777 159.294C223.777 161.34 224.899 162.264 226.615 162.264C228.375 162.264 229.673 161.208 229.673 161.208L229.123 159.558C228.859 159.712 227.935 160.438 227.099 160.438C226.373 160.438 225.955 159.954 225.955 158.744V153.706H229.101V152.056H225.955V149.24L223.821 149.702V151.968L222.303 152.518V153.706H223.777V159.294ZM236.013 159.712C236.013 161.186 237.135 162.264 238.873 162.264C240.809 162.264 241.821 161.032 242.085 160.614C242.371 161.406 243.009 162.044 244.527 162.154L245.187 160.438C245.187 160.438 244.087 160.416 244.087 159.184V154.982C244.087 152.76 243.339 151.792 240.985 151.792C238.367 151.792 236.673 153.046 236.673 153.046L237.245 154.674C237.245 154.674 238.763 153.53 240.391 153.53C241.997 153.53 241.909 154.63 241.909 155.884C238.191 156.368 236.013 157.622 236.013 159.712ZM239.423 160.548C238.785 160.548 238.257 160.262 238.257 159.558C238.257 158.392 239.379 157.666 241.909 157.292V159.008C241.249 159.778 240.435 160.548 239.423 160.548ZM246.694 157.16C246.694 160.042 248.696 162.264 251.798 162.264C254.174 162.264 255.318 160.988 255.318 160.988L254.614 159.448C254.614 159.448 253.536 160.482 251.952 160.482C250.082 160.482 248.96 159.008 248.96 157.05C248.96 155.026 250.17 153.552 251.974 153.552C253.426 153.552 254.46 154.476 254.46 154.476L255.318 152.848C255.318 152.848 254.108 151.792 251.93 151.792C248.652 151.792 246.694 154.41 246.694 157.16ZM258.045 159.294C258.045 161.34 259.167 162.264 260.883 162.264C262.643 162.264 263.941 161.208 263.941 161.208L263.391 159.558C263.127 159.712 262.203 160.438 261.367 160.438C260.641 160.438 260.223 159.954 260.223 158.744V153.706H263.369V152.056H260.223V149.24L258.089 149.702V151.968L256.571 152.518V153.706H258.045V159.294ZM266.931 149.68C267.723 149.68 268.317 149.108 268.317 148.338C268.317 147.568 267.723 146.996 266.931 146.996C266.161 146.996 265.567 147.568 265.567 148.338C265.567 149.108 266.161 149.68 266.931 149.68ZM265.831 162H268.009V152.056H265.831V162ZM270.434 157.072C270.434 159.712 272.216 162.264 275.516 162.264C279.102 162.264 280.686 159.25 280.686 156.83C280.686 154.278 278.904 151.792 275.604 151.792C272.04 151.792 270.434 154.586 270.434 157.072ZM272.7 156.874C272.7 154.894 273.866 153.53 275.56 153.53C277.584 153.53 278.42 155.356 278.42 157.116C278.42 159.118 277.254 160.526 275.582 160.526C273.602 160.526 272.7 158.722 272.7 156.874ZM283.039 162H285.217V155.554C285.899 154.894 287.307 153.684 288.407 153.684C289.155 153.684 289.595 154.212 289.595 155.62V162H291.773V154.828C291.773 152.694 290.695 151.792 289.133 151.792C287.307 151.792 285.877 153.002 285.173 153.772V151.88L283.039 152.232V162ZM294.045 161.384C294.045 161.384 295.277 162.264 297.345 162.264C299.787 162.264 301.217 161.054 301.217 159.25C301.217 156.082 296.443 156.236 296.443 154.498C296.443 153.926 296.927 153.508 298.027 153.508C299.303 153.508 300.447 154.124 300.447 154.124L300.953 152.342C300.953 152.342 299.853 151.792 298.115 151.792C295.365 151.792 294.265 153.134 294.265 154.674C294.265 157.798 299.039 157.666 299.039 159.448C299.039 160.086 298.489 160.548 297.323 160.548C295.717 160.548 294.507 159.536 294.507 159.536L294.045 161.384ZM91.068 189.294C91.068 191.34 92.19 192.264 93.906 192.264C95.666 192.264 96.964 191.208 96.964 191.208L96.414 189.558C96.15 189.712 95.226 190.438 94.39 190.438C93.664 190.438 93.246 189.954 93.246 188.744V183.706H96.392V182.056H93.246V179.24L91.112 179.702V181.968L89.594 182.518V183.706H91.068V189.294ZM98.1725 187.072C98.1725 189.712 99.9545 192.264 103.254 192.264C106.84 192.264 108.424 189.25 108.424 186.83C108.424 184.278 106.642 181.792 103.342 181.792C99.7785 181.792 98.1725 184.586 98.1725 187.072ZM100.438 186.874C100.438 184.894 101.604 183.53 103.298 183.53C105.322 183.53 106.158 185.356 106.158 187.116C106.158 189.118 104.992 190.526 103.32 190.526C101.34 190.526 100.438 188.722 100.438 186.874ZM116.062 191.78C116.81 191.956 118.504 192.264 119.692 192.264C123.454 192.264 125.258 189.58 125.258 186.676C125.258 183.948 123.674 181.792 120.924 181.792C119.56 181.792 118.746 182.342 118.24 182.914V176.27L116.062 176.622V191.78ZM120.572 183.552C122.024 183.552 123.014 184.762 123.014 186.83C123.014 189.294 121.628 190.614 119.736 190.614C118.922 190.614 118.24 190.394 118.24 190.394V184.586C118.702 184.168 119.538 183.552 120.572 183.552ZM127.048 187.182C127.048 189.844 128.742 192.264 132.064 192.264C134.55 192.264 136.068 190.834 136.068 190.834L135.452 189.25C135.452 189.25 134.066 190.482 132.394 190.482C130.656 190.482 129.556 189.316 129.314 187.512L134.748 186.786L136.002 186.434C136.002 183.42 134.286 181.792 131.91 181.792C129.006 181.792 127.048 184.146 127.048 187.182ZM131.756 183.486C133.494 183.486 133.626 185.51 133.626 185.51L129.314 186.06C129.512 184.608 130.348 183.486 131.756 183.486ZM139.021 189.294C139.021 191.34 140.143 192.264 141.859 192.264C143.619 192.264 144.917 191.208 144.917 191.208L144.367 189.558C144.103 189.712 143.179 190.438 142.343 190.438C141.617 190.438 141.199 189.954 141.199 188.744V183.706H144.345V182.056H141.199V179.24L139.065 179.702V181.968L137.547 182.518V183.706H139.021V189.294ZM147.336 189.294C147.336 191.34 148.458 192.264 150.174 192.264C151.934 192.264 153.232 191.208 153.232 191.208L152.682 189.558C152.418 189.712 151.494 190.438 150.658 190.438C149.932 190.438 149.514 189.954 149.514 188.744V183.706H152.66V182.056H149.514V179.24L147.38 179.702V181.968L145.862 182.518V183.706H147.336V189.294ZM154.462 187.182C154.462 189.844 156.156 192.264 159.478 192.264C161.964 192.264 163.482 190.834 163.482 190.834L162.866 189.25C162.866 189.25 161.48 190.482 159.808 190.482C158.07 190.482 156.97 189.316 156.728 187.512L162.162 186.786L163.416 186.434C163.416 183.42 161.7 181.792 159.324 181.792C156.42 181.792 154.462 184.146 154.462 187.182ZM159.17 183.486C160.908 183.486 161.04 185.51 161.04 185.51L156.728 186.06C156.926 184.608 157.762 183.486 159.17 183.486ZM165.863 192H168.041V185.84C168.459 185.18 169.361 183.992 170.461 183.992C170.901 183.992 171.341 184.168 171.341 184.168L171.781 181.968C171.781 181.968 171.473 181.792 170.923 181.792C169.405 181.792 168.393 183.2 167.997 183.882V181.88L165.863 182.232V192ZM178.797 192H180.975V185.532C181.613 184.894 182.977 183.684 184.055 183.684C184.781 183.684 185.177 184.212 185.177 185.62V192H187.355V185.488C188.103 184.762 189.335 183.684 190.347 183.684C191.073 183.684 191.491 184.212 191.491 185.62V192H193.647V184.828C193.647 182.694 192.613 181.792 191.073 181.792C189.335 181.792 187.971 182.958 187.245 183.75C186.937 182.386 186.035 181.792 184.781 181.792C183.021 181.792 181.613 183.002 180.931 183.75V181.88L178.797 182.232V192ZM195.442 195.476L196.124 197.214C198.456 196.95 199.908 194.86 200.766 192.748L205.078 182.056H202.834L200.26 188.876L197.642 182.056H195.332L199.182 191.494L198.654 192.682C198.06 194.068 196.894 195.234 195.442 195.476ZM212.142 192H214.32V185.598C214.98 184.938 216.41 183.684 217.51 183.684C218.258 183.684 218.698 184.212 218.698 185.62V192H220.876V184.828C220.876 182.694 219.798 181.792 218.214 181.792C216.388 181.792 214.98 183.024 214.32 183.728V176.27L212.142 176.622V192ZM223.191 187.182C223.191 189.844 224.885 192.264 228.207 192.264C230.693 192.264 232.211 190.834 232.211 190.834L231.595 189.25C231.595 189.25 230.209 190.482 228.537 190.482C226.799 190.482 225.699 189.316 225.457 187.512L230.891 186.786L232.145 186.434C232.145 183.42 230.429 181.792 228.053 181.792C225.149 181.792 223.191 184.146 223.191 187.182ZM227.899 183.486C229.637 183.486 229.769 185.51 229.769 185.51L225.457 186.06C225.655 184.608 226.491 183.486 227.899 183.486ZM233.8 189.712C233.8 191.186 234.922 192.264 236.66 192.264C238.596 192.264 239.608 191.032 239.872 190.614C240.158 191.406 240.796 192.044 242.314 192.154L242.974 190.438C242.974 190.438 241.874 190.416 241.874 189.184V184.982C241.874 182.76 241.126 181.792 238.772 181.792C236.154 181.792 234.46 183.046 234.46 183.046L235.032 184.674C235.032 184.674 236.55 183.53 238.178 183.53C239.784 183.53 239.696 184.63 239.696 185.884C235.978 186.368 233.8 187.622 233.8 189.712ZM237.21 190.548C236.572 190.548 236.044 190.262 236.044 189.558C236.044 188.392 237.166 187.666 239.696 187.292V189.008C239.036 189.778 238.222 190.548 237.21 190.548ZM245.163 192H247.341V176.27L245.163 176.622V192ZM250.976 189.294C250.976 191.34 252.098 192.264 253.814 192.264C255.574 192.264 256.872 191.208 256.872 191.208L256.322 189.558C256.058 189.712 255.134 190.438 254.298 190.438C253.572 190.438 253.154 189.954 253.154 188.744V183.706H256.3V182.056H253.154V179.24L251.02 179.702V181.968L249.502 182.518V183.706H250.976V189.294ZM258.763 192H260.941V185.598C261.601 184.938 263.031 183.684 264.131 183.684C264.879 183.684 265.319 184.212 265.319 185.62V192H267.497V184.828C267.497 182.694 266.419 181.792 264.835 181.792C263.009 181.792 261.601 183.024 260.941 183.728V176.27L258.763 176.622V192ZM270.142 190.79C270.142 191.604 270.802 192.264 271.616 192.264C272.43 192.264 273.112 191.604 273.112 190.79C273.112 189.954 272.43 189.294 271.616 189.294C270.802 189.294 270.142 189.954 270.142 190.79Z" fill="#333333"/>
<path d="M344.99 94.894C344.99 99.448 348.554 102.264 352.998 102.264C355.176 102.264 358.08 101.582 358.08 101.582V94.256H352.778V96.148H355.836V99.998C355.836 99.998 354.538 100.306 353.262 100.306C349.742 100.306 347.344 98.04 347.344 94.718C347.344 91.748 349.258 89.02 352.998 89.02C355.396 89.02 357.156 90.12 357.156 90.12L358.036 88.162C358.036 88.162 356.078 87.062 353.108 87.062C347.916 87.062 344.99 90.758 344.99 94.894ZM360.437 94.696C360.437 98.744 363.451 102.264 368.093 102.264C372.889 102.264 376.013 98.502 376.013 94.388C376.013 90.34 373.021 87.062 368.291 87.062C363.253 87.062 360.437 90.824 360.437 94.696ZM362.835 94.586C362.835 91.77 364.749 88.998 368.225 88.998C371.701 88.998 373.615 91.726 373.615 94.564C373.615 97.424 371.613 100.328 368.159 100.328C364.683 100.328 362.835 97.314 362.835 94.586ZM377.048 102H379.314L380.744 98.084H386.596L388.048 102H390.38L384.792 87.216H382.636L377.048 102ZM383.67 90.12L385.914 96.192H381.448L383.67 90.12ZM392.602 102H401.732V100.108H394.868V87.326H392.602V102ZM408.413 102H416.531V100.24H411.515C413.341 98.722 415.607 96.698 415.607 94.476C415.607 92.694 414.133 91.352 412.043 91.352C409.931 91.352 408.325 92.738 408.325 92.738L409.205 94.124C409.205 94.124 410.371 93.178 411.647 93.178C412.659 93.178 413.341 93.838 413.341 94.784C413.341 97.138 408.325 100.68 408.325 100.68L408.413 102ZM346.002 132H348.268V125.62H353.438V123.662H348.268V119.218H354.802V117.326H346.002V132ZM355.536 127.182C355.536 129.844 357.23 132.264 360.552 132.264C363.038 132.264 364.556 130.834 364.556 130.834L363.94 129.25C363.94 129.25 362.554 130.482 360.882 130.482C359.144 130.482 358.044 129.316 357.802 127.512L363.236 126.786L364.49 126.434C364.49 123.42 362.774 121.792 360.398 121.792C357.494 121.792 355.536 124.146 355.536 127.182ZM360.244 123.486C361.982 123.486 362.114 125.51 362.114 125.51L357.802 126.06C358 124.608 358.836 123.486 360.244 123.486ZM366.321 127.182C366.321 129.844 368.015 132.264 371.337 132.264C373.823 132.264 375.341 130.834 375.341 130.834L374.725 129.25C374.725 129.25 373.339 130.482 371.667 130.482C369.929 130.482 368.829 129.316 368.587 127.512L374.021 126.786L375.275 126.434C375.275 123.42 373.559 121.792 371.183 121.792C368.279 121.792 366.321 124.146 366.321 127.182ZM371.029 123.486C372.767 123.486 372.899 125.51 372.899 125.51L368.587 126.06C368.785 124.608 369.621 123.486 371.029 123.486ZM377.767 132H379.945V116.27L377.767 116.622V132ZM388.337 132H390.515V125.598C391.175 124.938 392.605 123.684 393.705 123.684C394.453 123.684 394.893 124.212 394.893 125.62V132H397.071V124.828C397.071 122.694 395.993 121.792 394.409 121.792C392.583 121.792 391.175 123.024 390.515 123.728V116.27L388.337 116.622V132ZM399.364 127.072C399.364 129.712 401.146 132.264 404.446 132.264C408.032 132.264 409.616 129.25 409.616 126.83C409.616 124.278 407.834 121.792 404.534 121.792C400.97 121.792 399.364 124.586 399.364 127.072ZM401.63 126.874C401.63 124.894 402.796 123.53 404.49 123.53C406.514 123.53 407.35 125.356 407.35 127.116C407.35 129.118 406.184 130.526 404.512 130.526C402.532 130.526 401.63 128.722 401.63 126.874ZM411.969 137.126L414.147 136.774V131.736C414.565 132.044 415.313 132.264 416.237 132.264C419.405 132.264 421.253 129.668 421.253 126.72C421.253 124.014 419.669 121.792 417.051 121.792C415.489 121.792 414.543 122.606 414.081 123.464V121.88L411.969 122.232V137.126ZM416.677 123.596C418.019 123.596 418.965 124.806 418.965 126.874C418.965 129.25 417.711 130.548 415.841 130.548C414.807 130.548 414.147 130.174 414.147 129.426V125.202C414.433 124.784 415.357 123.596 416.677 123.596ZM423.019 127.182C423.019 129.844 424.713 132.264 428.035 132.264C430.521 132.264 432.039 130.834 432.039 130.834L431.423 129.25C431.423 129.25 430.037 130.482 428.365 130.482C426.627 130.482 425.527 129.316 425.285 127.512L430.719 126.786L431.973 126.434C431.973 123.42 430.257 121.792 427.881 121.792C424.977 121.792 423.019 124.146 423.019 127.182ZM427.727 123.486C429.465 123.486 429.597 125.51 429.597 125.51L425.285 126.06C425.483 124.608 426.319 123.486 427.727 123.486ZM433.474 123.706H435.036V132H437.214V123.706H439.964V122.056H437.214V120.868C437.214 118.536 438.27 117.722 439.436 117.722C440.514 117.722 441.482 118.426 441.482 118.426L442.34 116.754C442.34 116.754 441.196 115.918 439.458 115.918C436.862 115.918 435.036 117.744 435.036 121V121.968L433.474 122.54V123.706ZM441.852 129.272C441.852 131.406 442.952 132.264 444.558 132.264C446.384 132.264 447.77 131.098 448.408 130.416C448.518 131.142 448.738 132.176 448.738 132.176L450.85 131.978C450.85 131.978 450.41 130.152 450.41 128.942V122.056H448.232V128.744C447.616 129.316 446.384 130.372 445.262 130.372C444.448 130.372 444.03 129.822 444.03 128.436V122.056H441.852V129.272ZM453.563 132H455.741V116.27L453.563 116.622V132ZM464.662 129.294C464.662 131.34 465.784 132.264 467.5 132.264C469.26 132.264 470.558 131.208 470.558 131.208L470.008 129.558C469.744 129.712 468.82 130.438 467.984 130.438C467.258 130.438 466.84 129.954 466.84 128.744V123.706H469.986V122.056H466.84V119.24L464.706 119.702V121.968L463.188 122.518V123.706H464.662V129.294ZM472.448 132H474.626V125.598C475.286 124.938 476.716 123.684 477.816 123.684C478.564 123.684 479.004 124.212 479.004 125.62V132H481.182V124.828C481.182 122.694 480.104 121.792 478.52 121.792C476.694 121.792 475.286 123.024 474.626 123.728V116.27L472.448 116.622V132ZM483.321 129.712C483.321 131.186 484.443 132.264 486.181 132.264C488.117 132.264 489.129 131.032 489.393 130.614C489.679 131.406 490.317 132.044 491.835 132.154L492.495 130.438C492.495 130.438 491.395 130.416 491.395 129.184V124.982C491.395 122.76 490.647 121.792 488.293 121.792C485.675 121.792 483.981 123.046 483.981 123.046L484.553 124.674C484.553 124.674 486.071 123.53 487.699 123.53C489.305 123.53 489.217 124.63 489.217 125.884C485.499 126.368 483.321 127.622 483.321 129.712ZM486.731 130.548C486.093 130.548 485.565 130.262 485.565 129.558C485.565 128.392 486.687 127.666 489.217 127.292V129.008C488.557 129.778 487.743 130.548 486.731 130.548ZM495.127 129.294C495.127 131.34 496.249 132.264 497.965 132.264C499.725 132.264 501.023 131.208 501.023 131.208L500.473 129.558C500.209 129.712 499.285 130.438 498.449 130.438C497.723 130.438 497.305 129.954 497.305 128.744V123.706H500.451V122.056H497.305V119.24L495.171 119.702V121.968L493.653 122.518V123.706H495.127V129.294ZM508.66 132H510.926V117.326H508.66V132ZM519.096 127.16C519.096 130.042 521.098 132.264 524.2 132.264C526.576 132.264 527.72 130.988 527.72 130.988L527.016 129.448C527.016 129.448 525.938 130.482 524.354 130.482C522.484 130.482 521.362 129.008 521.362 127.05C521.362 125.026 522.572 123.552 524.376 123.552C525.828 123.552 526.862 124.476 526.862 124.476L527.72 122.848C527.72 122.848 526.51 121.792 524.332 121.792C521.054 121.792 519.096 124.41 519.096 127.16ZM529.083 129.712C529.083 131.186 530.205 132.264 531.943 132.264C533.879 132.264 534.891 131.032 535.155 130.614C535.441 131.406 536.079 132.044 537.597 132.154L538.257 130.438C538.257 130.438 537.157 130.416 537.157 129.184V124.982C537.157 122.76 536.409 121.792 534.055 121.792C531.437 121.792 529.743 123.046 529.743 123.046L530.315 124.674C530.315 124.674 531.833 123.53 533.461 123.53C535.067 123.53 534.979 124.63 534.979 125.884C531.261 126.368 529.083 127.622 529.083 129.712ZM532.493 130.548C531.855 130.548 531.327 130.262 531.327 129.558C531.327 128.392 532.449 127.666 534.979 127.292V129.008C534.319 129.778 533.505 130.548 532.493 130.548ZM540.402 132H542.58V125.554C543.262 124.894 544.67 123.684 545.77 123.684C546.518 123.684 546.958 124.212 546.958 125.62V132H549.136V124.828C549.136 122.694 548.058 121.792 546.496 121.792C544.67 121.792 543.24 123.002 542.536 123.772V121.88L540.402 122.232V132ZM345.474 160.24C345.474 160.922 346.112 161.318 347.102 161.648C346.046 162.198 344.572 163.144 344.572 164.596C344.572 166.334 346.728 167.214 348.928 167.214C351.92 167.214 354.362 165.52 354.362 163.518C354.362 161.692 352.36 161.142 350.6 160.702C348.532 160.196 347.564 159.998 347.564 159.602C347.564 159.36 347.916 159.096 348.378 158.788C348.598 158.832 348.84 158.832 349.104 158.832C351.238 158.832 353.504 157.666 353.504 155.488C353.504 154.608 353.086 154.014 352.778 153.662C353.042 153.706 353.35 153.728 353.592 153.728H354.78L354.626 151.99C354.626 151.99 353.966 152.21 353.306 152.21H352.162C351.062 152.21 350.49 151.792 349.28 151.792C347.058 151.792 345.056 153.046 345.056 155.268C345.056 156.61 345.782 157.776 347.036 158.392C346.222 158.854 345.474 159.514 345.474 160.24ZM349.346 162.22C351.194 162.704 352.228 162.99 352.228 163.848C352.228 164.838 350.82 165.63 349.06 165.63C347.806 165.63 346.53 165.234 346.53 164.244C346.53 163.254 347.74 162.594 348.686 162.066C348.906 162.11 349.126 162.154 349.346 162.22ZM349.258 157.292C347.85 157.292 347.19 156.28 347.19 155.334C347.19 154.3 347.938 153.332 349.258 153.332C350.666 153.332 351.348 154.476 351.348 155.444C351.348 156.566 350.468 157.292 349.258 157.292ZM356.009 157.182C356.009 159.844 357.703 162.264 361.025 162.264C363.511 162.264 365.029 160.834 365.029 160.834L364.413 159.25C364.413 159.25 363.027 160.482 361.355 160.482C359.617 160.482 358.517 159.316 358.275 157.512L363.709 156.786L364.963 156.434C364.963 153.42 363.247 151.792 360.871 151.792C357.967 151.792 356.009 154.146 356.009 157.182ZM360.717 153.486C362.455 153.486 362.587 155.51 362.587 155.51L358.275 156.06C358.473 154.608 359.309 153.486 360.717 153.486ZM367.982 159.294C367.982 161.34 369.104 162.264 370.82 162.264C372.58 162.264 373.878 161.208 373.878 161.208L373.328 159.558C373.064 159.712 372.14 160.438 371.304 160.438C370.578 160.438 370.16 159.954 370.16 158.744V153.706H373.306V152.056H370.16V149.24L368.026 149.702V151.968L366.508 152.518V153.706H367.982V159.294ZM381.01 161.78C381.758 161.956 383.452 162.264 384.64 162.264C388.402 162.264 390.206 159.58 390.206 156.676C390.206 153.948 388.622 151.792 385.872 151.792C384.508 151.792 383.694 152.342 383.188 152.914V146.27L381.01 146.622V161.78ZM385.52 153.552C386.972 153.552 387.962 154.762 387.962 156.83C387.962 159.294 386.576 160.614 384.684 160.614C383.87 160.614 383.188 160.394 383.188 160.394V154.586C383.65 154.168 384.486 153.552 385.52 153.552ZM391.819 159.712C391.819 161.186 392.941 162.264 394.679 162.264C396.615 162.264 397.627 161.032 397.891 160.614C398.177 161.406 398.815 162.044 400.333 162.154L400.993 160.438C400.993 160.438 399.893 160.416 399.893 159.184V154.982C399.893 152.76 399.145 151.792 396.791 151.792C394.173 151.792 392.479 153.046 392.479 153.046L393.051 154.674C393.051 154.674 394.569 153.53 396.197 153.53C397.803 153.53 397.715 154.63 397.715 155.884C393.997 156.368 391.819 157.622 391.819 159.712ZM395.229 160.548C394.591 160.548 394.063 160.262 394.063 159.558C394.063 158.392 395.185 157.666 397.715 157.292V159.008C397.055 159.778 396.241 160.548 395.229 160.548ZM402.501 157.16C402.501 160.042 404.503 162.264 407.605 162.264C409.981 162.264 411.125 160.988 411.125 160.988L410.421 159.448C410.421 159.448 409.343 160.482 407.759 160.482C405.889 160.482 404.767 159.008 404.767 157.05C404.767 155.026 405.977 153.552 407.781 153.552C409.233 153.552 410.267 154.476 410.267 154.476L411.125 152.848C411.125 152.848 409.915 151.792 407.737 151.792C404.459 151.792 402.501 154.41 402.501 157.16ZM413.323 162H415.501V157.292H415.809L419.769 162H422.563L417.723 156.412L422.255 152.056H419.417L415.809 155.686H415.501V146.27L413.323 146.622V162ZM428.797 157.072C428.797 159.712 430.579 162.264 433.879 162.264C437.465 162.264 439.049 159.25 439.049 156.83C439.049 154.278 437.267 151.792 433.967 151.792C430.403 151.792 428.797 154.586 428.797 157.072ZM431.063 156.874C431.063 154.894 432.229 153.53 433.923 153.53C435.947 153.53 436.783 155.356 436.783 157.116C436.783 159.118 435.617 160.526 433.945 160.526C431.965 160.526 431.063 158.722 431.063 156.874ZM441.402 162H443.58V155.554C444.262 154.894 445.67 153.684 446.77 153.684C447.518 153.684 447.958 154.212 447.958 155.62V162H450.136V154.828C450.136 152.694 449.058 151.792 447.496 151.792C445.67 151.792 444.24 153.002 443.536 153.772V151.88L441.402 152.232V162ZM458.925 159.294C458.925 161.34 460.047 162.264 461.763 162.264C463.523 162.264 464.821 161.208 464.821 161.208L464.271 159.558C464.007 159.712 463.083 160.438 462.247 160.438C461.521 160.438 461.103 159.954 461.103 158.744V153.706H464.249V152.056H461.103V149.24L458.969 149.702V151.968L457.451 152.518V153.706H458.925V159.294ZM466.668 162H468.846V155.84C469.264 155.18 470.166 153.992 471.266 153.992C471.706 153.992 472.146 154.168 472.146 154.168L472.586 151.968C472.586 151.968 472.278 151.792 471.728 151.792C470.21 151.792 469.198 153.2 468.802 153.882V151.88L466.668 152.232V162ZM473.524 159.712C473.524 161.186 474.646 162.264 476.384 162.264C478.32 162.264 479.332 161.032 479.596 160.614C479.882 161.406 480.52 162.044 482.038 162.154L482.698 160.438C482.698 160.438 481.598 160.416 481.598 159.184V154.982C481.598 152.76 480.85 151.792 478.496 151.792C475.878 151.792 474.184 153.046 474.184 153.046L474.756 154.674C474.756 154.674 476.274 153.53 477.902 153.53C479.508 153.53 479.42 154.63 479.42 155.884C475.702 156.368 473.524 157.622 473.524 159.712ZM476.934 160.548C476.296 160.548 475.768 160.262 475.768 159.558C475.768 158.392 476.89 157.666 479.42 157.292V159.008C478.76 159.778 477.946 160.548 476.934 160.548ZM484.206 157.16C484.206 160.042 486.208 162.264 489.31 162.264C491.686 162.264 492.83 160.988 492.83 160.988L492.126 159.448C492.126 159.448 491.048 160.482 489.464 160.482C487.594 160.482 486.472 159.008 486.472 157.05C486.472 155.026 487.682 153.552 489.486 153.552C490.938 153.552 491.972 154.476 491.972 154.476L492.83 152.848C492.83 152.848 491.62 151.792 489.442 151.792C486.164 151.792 484.206 154.41 484.206 157.16ZM495.028 162H497.206V157.292H497.514L501.474 162H504.268L499.428 156.412L503.96 152.056H501.122L497.514 155.686H497.206V146.27L495.028 146.622V162ZM344.704 189.712C344.704 191.186 345.826 192.264 347.564 192.264C349.5 192.264 350.512 191.032 350.776 190.614C351.062 191.406 351.7 192.044 353.218 192.154L353.878 190.438C353.878 190.438 352.778 190.416 352.778 189.184V184.982C352.778 182.76 352.03 181.792 349.676 181.792C347.058 181.792 345.364 183.046 345.364 183.046L345.936 184.674C345.936 184.674 347.454 183.53 349.082 183.53C350.688 183.53 350.6 184.63 350.6 185.884C346.882 186.368 344.704 187.622 344.704 189.712ZM348.114 190.548C347.476 190.548 346.948 190.262 346.948 189.558C346.948 188.392 348.07 187.666 350.6 187.292V189.008C349.94 189.778 349.126 190.548 348.114 190.548ZM355.077 183.706H356.639V192H358.817V183.706H361.567V182.056H358.817V180.868C358.817 178.536 359.873 177.722 361.039 177.722C362.117 177.722 363.085 178.426 363.085 178.426L363.943 176.754C363.943 176.754 362.799 175.918 361.061 175.918C358.465 175.918 356.639 177.744 356.639 181V181.968L355.077 182.54V183.706ZM364.093 189.294C364.093 191.34 365.215 192.264 366.931 192.264C368.691 192.264 369.989 191.208 369.989 191.208L369.439 189.558C369.175 189.712 368.251 190.438 367.415 190.438C366.689 190.438 366.271 189.954 366.271 188.744V183.706H369.417V182.056H366.271V179.24L364.137 179.702V181.968L362.619 182.518V183.706H364.093V189.294ZM371.22 187.182C371.22 189.844 372.914 192.264 376.236 192.264C378.722 192.264 380.24 190.834 380.24 190.834L379.624 189.25C379.624 189.25 378.238 190.482 376.566 190.482C374.828 190.482 373.728 189.316 373.486 187.512L378.92 186.786L380.174 186.434C380.174 183.42 378.458 181.792 376.082 181.792C373.178 181.792 371.22 184.146 371.22 187.182ZM375.928 183.486C377.666 183.486 377.798 185.51 377.798 185.51L373.486 186.06C373.684 184.608 374.52 183.486 375.928 183.486ZM382.621 192H384.799V185.84C385.217 185.18 386.119 183.992 387.219 183.992C387.659 183.992 388.099 184.168 388.099 184.168L388.539 181.968C388.539 181.968 388.231 181.792 387.681 181.792C386.163 181.792 385.151 183.2 384.755 183.882V181.88L382.621 182.232V192ZM394.763 189.712C394.763 191.186 395.885 192.264 397.623 192.264C399.559 192.264 400.571 191.032 400.835 190.614C401.121 191.406 401.759 192.044 403.277 192.154L403.937 190.438C403.937 190.438 402.837 190.416 402.837 189.184V184.982C402.837 182.76 402.089 181.792 399.735 181.792C397.117 181.792 395.423 183.046 395.423 183.046L395.995 184.674C395.995 184.674 397.513 183.53 399.141 183.53C400.747 183.53 400.659 184.63 400.659 185.884C396.941 186.368 394.763 187.622 394.763 189.712ZM398.173 190.548C397.535 190.548 397.007 190.262 397.007 189.558C397.007 188.392 398.129 187.666 400.659 187.292V189.008C399.999 189.778 399.185 190.548 398.173 190.548ZM411.367 192H413.545V185.84C413.963 185.18 414.865 183.992 415.965 183.992C416.405 183.992 416.845 184.168 416.845 184.168L417.285 181.968C417.285 181.968 416.977 181.792 416.427 181.792C414.909 181.792 413.897 183.2 413.501 183.882V181.88L411.367 182.232V192ZM418.228 187.182C418.228 189.844 419.922 192.264 423.244 192.264C425.73 192.264 427.248 190.834 427.248 190.834L426.632 189.25C426.632 189.25 425.246 190.482 423.574 190.482C421.836 190.482 420.736 189.316 420.494 187.512L425.928 186.786L427.182 186.434C427.182 183.42 425.466 181.792 423.09 181.792C420.186 181.792 418.228 184.146 418.228 187.182ZM422.936 183.486C424.674 183.486 424.806 185.51 424.806 185.51L420.494 186.06C420.692 184.608 421.528 183.486 422.936 183.486ZM429.673 192H431.851V176.27L429.673 176.622V192ZM434.122 189.712C434.122 191.186 435.244 192.264 436.982 192.264C438.918 192.264 439.93 191.032 440.194 190.614C440.48 191.406 441.118 192.044 442.636 192.154L443.296 190.438C443.296 190.438 442.196 190.416 442.196 189.184V184.982C442.196 182.76 441.448 181.792 439.094 181.792C436.476 181.792 434.782 183.046 434.782 183.046L435.354 184.674C435.354 184.674 436.872 183.53 438.5 183.53C440.106 183.53 440.018 184.63 440.018 185.884C436.3 186.368 434.122 187.622 434.122 189.712ZM437.532 190.548C436.894 190.548 436.366 190.262 436.366 189.558C436.366 188.392 437.488 187.666 440.018 187.292V189.008C439.358 189.778 438.544 190.548 437.532 190.548ZM445.441 197.126L447.619 196.774V191.736C448.037 192.044 448.785 192.264 449.709 192.264C452.877 192.264 454.725 189.668 454.725 186.72C454.725 184.014 453.141 181.792 450.523 181.792C448.961 181.792 448.015 182.606 447.553 183.464V181.88L445.441 182.232V197.126ZM450.149 183.596C451.491 183.596 452.437 184.806 452.437 186.874C452.437 189.25 451.183 190.548 449.313 190.548C448.279 190.548 447.619 190.174 447.619 189.426V185.202C447.905 184.784 448.829 183.596 450.149 183.596ZM456.447 191.384C456.447 191.384 457.679 192.264 459.747 192.264C462.189 192.264 463.619 191.054 463.619 189.25C463.619 186.082 458.845 186.236 458.845 184.498C458.845 183.926 459.329 183.508 460.429 183.508C461.705 183.508 462.849 184.124 462.849 184.124L463.355 182.342C463.355 182.342 462.255 181.792 460.517 181.792C457.767 181.792 456.667 183.134 456.667 184.674C456.667 187.798 461.441 187.666 461.441 189.448C461.441 190.086 460.891 190.548 459.725 190.548C458.119 190.548 456.909 189.536 456.909 189.536L456.447 191.384ZM465.343 187.182C465.343 189.844 467.037 192.264 470.359 192.264C472.845 192.264 474.363 190.834 474.363 190.834L473.747 189.25C473.747 189.25 472.361 190.482 470.689 190.482C468.951 190.482 467.851 189.316 467.609 187.512L473.043 186.786L474.297 186.434C474.297 183.42 472.581 181.792 470.205 181.792C467.301 181.792 465.343 184.146 465.343 187.182ZM470.051 183.486C471.789 183.486 471.921 185.51 471.921 185.51L467.609 186.06C467.807 184.608 468.643 183.486 470.051 183.486Z" fill="#333333"/>
<path d="M599.99 94.894C599.99 99.448 603.554 102.264 607.998 102.264C610.176 102.264 613.08 101.582 613.08 101.582V94.256H607.778V96.148H610.836V99.998C610.836 99.998 609.538 100.306 608.262 100.306C604.742 100.306 602.344 98.04 602.344 94.718C602.344 91.748 604.258 89.02 607.998 89.02C610.396 89.02 612.156 90.12 612.156 90.12L613.036 88.162C613.036 88.162 611.078 87.062 608.108 87.062C602.916 87.062 599.99 90.758 599.99 94.894ZM615.437 94.696C615.437 98.744 618.451 102.264 623.093 102.264C627.889 102.264 631.013 98.502 631.013 94.388C631.013 90.34 628.021 87.062 623.291 87.062C618.253 87.062 615.437 90.824 615.437 94.696ZM617.835 94.586C617.835 91.77 619.749 88.998 623.225 88.998C626.701 88.998 628.615 91.726 628.615 94.564C628.615 97.424 626.613 100.328 623.159 100.328C619.683 100.328 617.835 97.314 617.835 94.586ZM632.048 102H634.314L635.744 98.084H641.596L643.048 102H645.38L639.792 87.216H637.636L632.048 102ZM638.67 90.12L640.914 96.192H636.448L638.67 90.12ZM647.602 102H656.732V100.108H649.868V87.326H647.602V102ZM662.885 104.552L663.061 106.246C663.281 106.268 663.479 106.268 663.677 106.268C667.461 106.268 670.343 104.398 670.343 101.472C670.343 99.8 669.265 98.458 667.285 97.974C668.583 97.27 669.969 95.994 669.969 94.3C669.969 92.584 668.473 91.352 666.471 91.352C664.337 91.352 662.731 92.738 662.731 92.738L663.677 94.124C663.677 94.124 664.953 93.178 666.141 93.178C667.043 93.178 667.725 93.728 667.725 94.608C667.725 96.104 665.789 97.49 664.249 97.622V99.316H664.777C666.317 99.316 668.077 99.822 668.077 101.538C668.077 103.54 666.031 104.574 663.589 104.574C663.347 104.574 663.127 104.574 662.885 104.552ZM601.002 132H606.062C609.01 132 611.078 130.328 611.078 127.732C611.078 125.4 609.384 124.432 608.526 124.08C609.296 123.486 610.286 122.408 610.286 120.846C610.286 119.152 609.098 117.326 605.314 117.326H601.002V132ZM603.268 130.108V125.422H605.732C607.778 125.422 608.68 126.412 608.68 127.776C608.68 129.162 607.778 130.108 605.732 130.108H603.268ZM603.268 119.218H604.984C607.272 119.218 607.888 120.12 607.888 121.22C607.888 122.804 606.48 123.552 606.48 123.552H603.268V119.218ZM612.943 127.182C612.943 129.844 614.637 132.264 617.959 132.264C620.445 132.264 621.963 130.834 621.963 130.834L621.347 129.25C621.347 129.25 619.961 130.482 618.289 130.482C616.551 130.482 615.451 129.316 615.209 127.512L620.643 126.786L621.897 126.434C621.897 123.42 620.181 121.792 617.805 121.792C614.901 121.792 612.943 124.146 612.943 127.182ZM617.651 123.486C619.389 123.486 619.521 125.51 619.521 125.51L615.209 126.06C615.407 124.608 616.243 123.486 617.651 123.486ZM624.388 132H626.566V116.27L624.388 116.622V132ZM630.773 119.68C631.565 119.68 632.159 119.108 632.159 118.338C632.159 117.568 631.565 116.996 630.773 116.996C630.003 116.996 629.409 117.568 629.409 118.338C629.409 119.108 630.003 119.68 630.773 119.68ZM629.673 132H631.851V122.056H629.673V132ZM634.298 127.182C634.298 129.844 635.992 132.264 639.314 132.264C641.8 132.264 643.318 130.834 643.318 130.834L642.702 129.25C642.702 129.25 641.316 130.482 639.644 130.482C637.906 130.482 636.806 129.316 636.564 127.512L641.998 126.786L643.252 126.434C643.252 123.42 641.536 121.792 639.16 121.792C636.256 121.792 634.298 124.146 634.298 127.182ZM639.006 123.486C640.744 123.486 640.876 125.51 640.876 125.51L636.564 126.06C636.762 124.608 637.598 123.486 639.006 123.486ZM648.097 132.088H650.121L654.213 122.056H651.991L649.197 129.272L646.777 122.056H644.489L648.097 132.088ZM655.224 127.182C655.224 129.844 656.918 132.264 660.24 132.264C662.726 132.264 664.244 130.834 664.244 130.834L663.628 129.25C663.628 129.25 662.242 130.482 660.57 130.482C658.832 130.482 657.732 129.316 657.49 127.512L662.924 126.786L664.178 126.434C664.178 123.42 662.462 121.792 660.086 121.792C657.182 121.792 655.224 124.146 655.224 127.182ZM659.932 123.486C661.67 123.486 661.802 125.51 661.802 125.51L657.49 126.06C657.688 124.608 658.524 123.486 659.932 123.486ZM672.482 129.294C672.482 131.34 673.604 132.264 675.32 132.264C677.08 132.264 678.378 131.208 678.378 131.208L677.828 129.558C677.564 129.712 676.64 130.438 675.804 130.438C675.078 130.438 674.66 129.954 674.66 128.744V123.706H677.806V122.056H674.66V119.24L672.526 119.702V121.968L671.008 122.518V123.706H672.482V129.294ZM680.269 132H682.447V125.598C683.107 124.938 684.537 123.684 685.637 123.684C686.385 123.684 686.825 124.212 686.825 125.62V132H689.003V124.828C689.003 122.694 687.925 121.792 686.341 121.792C684.515 121.792 683.107 123.024 682.447 123.728V116.27L680.269 116.622V132ZM691.142 129.712C691.142 131.186 692.264 132.264 694.002 132.264C695.938 132.264 696.95 131.032 697.214 130.614C697.5 131.406 698.138 132.044 699.656 132.154L700.316 130.438C700.316 130.438 699.216 130.416 699.216 129.184V124.982C699.216 122.76 698.468 121.792 696.114 121.792C693.496 121.792 691.802 123.046 691.802 123.046L692.374 124.674C692.374 124.674 693.892 123.53 695.52 123.53C697.126 123.53 697.038 124.63 697.038 125.884C693.32 126.368 691.142 127.622 691.142 129.712ZM694.552 130.548C693.914 130.548 693.386 130.262 693.386 129.558C693.386 128.392 694.508 127.666 697.038 127.292V129.008C696.378 129.778 695.564 130.548 694.552 130.548ZM702.947 129.294C702.947 131.34 704.069 132.264 705.785 132.264C707.545 132.264 708.843 131.208 708.843 131.208L708.293 129.558C708.029 129.712 707.105 130.438 706.269 130.438C705.543 130.438 705.125 129.954 705.125 128.744V123.706H708.271V122.056H705.125V119.24L702.991 119.702V121.968L701.473 122.518V123.706H702.947V129.294ZM720.485 122.144L722.399 121.066C721.365 119.966 721.079 119.35 721.079 118.646C721.079 117.876 721.453 117.194 722.289 116.556L721.453 115.676C720.045 116.754 719.319 118.074 719.319 119.394C719.319 120.34 719.649 121.242 720.485 122.144ZM716.635 122.144L718.549 121.066C717.515 119.966 717.229 119.35 717.229 118.646C717.229 117.876 717.603 117.194 718.439 116.556L717.603 115.676C716.195 116.754 715.469 118.074 715.469 119.394C715.469 120.34 715.799 121.242 716.635 122.144ZM725.096 132H727.362V117.326H725.096V132ZM735.532 127.16C735.532 130.042 737.534 132.264 740.636 132.264C743.012 132.264 744.156 130.988 744.156 130.988L743.452 129.448C743.452 129.448 742.374 130.482 740.79 130.482C738.92 130.482 737.798 129.008 737.798 127.05C737.798 125.026 739.008 123.552 740.812 123.552C742.264 123.552 743.298 124.476 743.298 124.476L744.156 122.848C744.156 122.848 742.946 121.792 740.768 121.792C737.49 121.792 735.532 124.41 735.532 127.16ZM745.518 129.712C745.518 131.186 746.64 132.264 748.378 132.264C750.314 132.264 751.326 131.032 751.59 130.614C751.876 131.406 752.514 132.044 754.032 132.154L754.692 130.438C754.692 130.438 753.592 130.416 753.592 129.184V124.982C753.592 122.76 752.844 121.792 750.49 121.792C747.872 121.792 746.178 123.046 746.178 123.046L746.75 124.674C746.75 124.674 748.268 123.53 749.896 123.53C751.502 123.53 751.414 124.63 751.414 125.884C747.696 126.368 745.518 127.622 745.518 129.712ZM748.928 130.548C748.29 130.548 747.762 130.262 747.762 129.558C747.762 128.392 748.884 127.666 751.414 127.292V129.008C750.754 129.778 749.94 130.548 748.928 130.548ZM756.838 132H759.016V125.554C759.698 124.894 761.106 123.684 762.206 123.684C762.954 123.684 763.394 124.212 763.394 125.62V132H765.572V124.828C765.572 122.694 764.494 121.792 762.932 121.792C761.106 121.792 759.676 123.002 758.972 123.772V121.88L756.838 122.232V132ZM773.173 127.336C773.173 130.064 774.845 132.264 777.441 132.264C779.025 132.264 780.037 131.494 780.565 130.636C780.675 131.34 780.873 132.154 780.873 132.154L782.963 132C782.963 132 782.523 130.152 782.523 128.942V116.27L780.345 116.622V122.122C780.059 122.012 779.399 121.792 778.497 121.792C774.977 121.792 773.173 124.498 773.173 127.336ZM777.815 130.526C776.407 130.526 775.461 129.272 775.461 127.204C775.461 124.828 776.715 123.508 778.607 123.508C779.509 123.508 780.301 123.838 780.345 124.828V128.92C780.037 129.382 779.157 130.526 777.815 130.526ZM784.967 127.072C784.967 129.712 786.749 132.264 790.049 132.264C793.635 132.264 795.219 129.25 795.219 126.83C795.219 124.278 793.437 121.792 790.137 121.792C786.573 121.792 784.967 124.586 784.967 127.072ZM787.233 126.874C787.233 124.894 788.399 123.53 790.093 123.53C792.117 123.53 792.953 125.356 792.953 127.116C792.953 129.118 791.787 130.526 790.115 130.526C788.135 130.526 787.233 128.722 787.233 126.874ZM601.068 159.294C601.068 161.34 602.19 162.264 603.906 162.264C605.666 162.264 606.964 161.208 606.964 161.208L606.414 159.558C606.15 159.712 605.226 160.438 604.39 160.438C603.664 160.438 603.246 159.954 603.246 158.744V153.706H606.392V152.056H603.246V149.24L601.112 149.702V151.968L599.594 152.518V153.706H601.068V159.294ZM608.854 162H611.032V155.598C611.692 154.938 613.122 153.684 614.222 153.684C614.97 153.684 615.41 154.212 615.41 155.62V162H617.588V154.828C617.588 152.694 616.51 151.792 614.926 151.792C613.1 151.792 611.692 153.024 611.032 153.728V146.27L608.854 146.622V162ZM621.663 149.68C622.455 149.68 623.049 149.108 623.049 148.338C623.049 147.568 622.455 146.996 621.663 146.996C620.893 146.996 620.299 147.568 620.299 148.338C620.299 149.108 620.893 149.68 621.663 149.68ZM620.563 162H622.741V152.056H620.563V162ZM625.145 161.384C625.145 161.384 626.377 162.264 628.445 162.264C630.887 162.264 632.317 161.054 632.317 159.25C632.317 156.082 627.543 156.236 627.543 154.498C627.543 153.926 628.027 153.508 629.127 153.508C630.403 153.508 631.547 154.124 631.547 154.124L632.053 152.342C632.053 152.342 630.953 151.792 629.215 151.792C626.465 151.792 625.365 153.134 625.365 154.674C625.365 157.798 630.139 157.666 630.139 159.448C630.139 160.086 629.589 160.548 628.423 160.548C626.817 160.548 625.607 159.536 625.607 159.536L625.145 161.384ZM638.66 152.144C640.068 151.044 640.794 149.746 640.794 148.404C640.794 147.458 640.464 146.556 639.628 145.676L637.714 146.732C638.748 147.832 639.034 148.448 639.034 149.152C639.034 149.922 638.66 150.604 637.824 151.242L638.66 152.144ZM634.81 152.144C636.218 151.044 636.944 149.746 636.944 148.404C636.944 147.458 636.614 146.556 635.778 145.676L633.842 146.732C634.898 147.832 635.184 148.448 635.184 149.152C635.184 149.922 634.81 150.604 633.974 151.242L634.81 152.144ZM650.518 162.088H652.63L655.182 155.004L657.47 162.088H659.604L663.168 152.056H660.946L658.548 159.536L656.216 152.056H654.324L651.75 159.58L649.572 152.056H647.328L650.518 162.088ZM666.136 149.68C666.928 149.68 667.522 149.108 667.522 148.338C667.522 147.568 666.928 146.996 666.136 146.996C665.366 146.996 664.772 147.568 664.772 148.338C664.772 149.108 665.366 149.68 666.136 149.68ZM665.036 162H667.214V152.056H665.036V162ZM670.849 159.294C670.849 161.34 671.971 162.264 673.687 162.264C675.447 162.264 676.745 161.208 676.745 161.208L676.195 159.558C675.931 159.712 675.007 160.438 674.171 160.438C673.445 160.438 673.027 159.954 673.027 158.744V153.706H676.173V152.056H673.027V149.24L670.893 149.702V151.968L669.375 152.518V153.706H670.849V159.294ZM678.636 162H680.814V155.598C681.474 154.938 682.904 153.684 684.004 153.684C684.752 153.684 685.192 154.212 685.192 155.62V162H687.37V154.828C687.37 152.694 686.292 151.792 684.708 151.792C682.882 151.792 681.474 153.024 680.814 153.728V146.27L678.636 146.622V162ZM696.158 159.294C696.158 161.34 697.28 162.264 698.996 162.264C700.756 162.264 702.054 161.208 702.054 161.208L701.504 159.558C701.24 159.712 700.316 160.438 699.48 160.438C698.754 160.438 698.336 159.954 698.336 158.744V153.706H701.482V152.056H698.336V149.24L696.202 149.702V151.968L694.684 152.518V153.706H696.158V159.294ZM703.944 162H706.122V155.598C706.782 154.938 708.212 153.684 709.312 153.684C710.06 153.684 710.5 154.212 710.5 155.62V162H712.678V154.828C712.678 152.694 711.6 151.792 710.016 151.792C708.19 151.792 706.782 153.024 706.122 153.728V146.27L703.944 146.622V162ZM714.993 157.182C714.993 159.844 716.687 162.264 720.009 162.264C722.495 162.264 724.013 160.834 724.013 160.834L723.397 159.25C723.397 159.25 722.011 160.482 720.339 160.482C718.601 160.482 717.501 159.316 717.259 157.512L722.693 156.786L723.947 156.434C723.947 153.42 722.231 151.792 719.855 151.792C716.951 151.792 714.993 154.146 714.993 157.182ZM719.701 153.486C721.439 153.486 721.571 155.51 721.571 155.51L717.259 156.06C717.457 154.608 718.293 153.486 719.701 153.486ZM731.68 162H733.858V155.84C734.276 155.18 735.178 153.992 736.278 153.992C736.718 153.992 737.158 154.168 737.158 154.168L737.598 151.968C737.598 151.968 737.29 151.792 736.74 151.792C735.222 151.792 734.21 153.2 733.814 153.882V151.88L731.68 152.232V162ZM740.472 149.68C741.264 149.68 741.858 149.108 741.858 148.338C741.858 147.568 741.264 146.996 740.472 146.996C739.702 146.996 739.108 147.568 739.108 148.338C739.108 149.108 739.702 149.68 740.472 149.68ZM739.372 162H741.55V152.056H739.372V162ZM744.591 160.24C744.591 160.922 745.229 161.318 746.219 161.648C745.163 162.198 743.689 163.144 743.689 164.596C743.689 166.334 745.845 167.214 748.045 167.214C751.037 167.214 753.479 165.52 753.479 163.518C753.479 161.692 751.477 161.142 749.717 160.702C747.649 160.196 746.681 159.998 746.681 159.602C746.681 159.36 747.033 159.096 747.495 158.788C747.715 158.832 747.957 158.832 748.221 158.832C750.355 158.832 752.621 157.666 752.621 155.488C752.621 154.608 752.203 154.014 751.895 153.662C752.159 153.706 752.467 153.728 752.709 153.728H753.897L753.743 151.99C753.743 151.99 753.083 152.21 752.423 152.21H751.279C750.179 152.21 749.607 151.792 748.397 151.792C746.175 151.792 744.173 153.046 744.173 155.268C744.173 156.61 744.899 157.776 746.153 158.392C745.339 158.854 744.591 159.514 744.591 160.24ZM748.463 162.22C750.311 162.704 751.345 162.99 751.345 163.848C751.345 164.838 749.937 165.63 748.177 165.63C746.923 165.63 745.647 165.234 745.647 164.244C745.647 163.254 746.857 162.594 747.803 162.066C748.023 162.11 748.243 162.154 748.463 162.22ZM748.375 157.292C746.967 157.292 746.307 156.28 746.307 155.334C746.307 154.3 747.055 153.332 748.375 153.332C749.783 153.332 750.465 154.476 750.465 155.444C750.465 156.566 749.585 157.292 748.375 157.292ZM755.786 162H757.964V155.598C758.624 154.938 760.054 153.684 761.154 153.684C761.902 153.684 762.342 154.212 762.342 155.62V162H764.52V154.828C764.52 152.694 763.442 151.792 761.858 151.792C760.032 151.792 758.624 153.024 757.964 153.728V146.27L755.786 146.622V162ZM768.023 159.294C768.023 161.34 769.145 162.264 770.861 162.264C772.621 162.264 773.919 161.208 773.919 161.208L773.369 159.558C773.105 159.712 772.181 160.438 771.345 160.438C770.619 160.438 770.201 159.954 770.201 158.744V153.706H773.347V152.056H770.201V149.24L768.067 149.702V151.968L766.549 152.518V153.706H768.023V159.294ZM599.836 191.384C599.836 191.384 601.068 192.264 603.136 192.264C605.578 192.264 607.008 191.054 607.008 189.25C607.008 186.082 602.234 186.236 602.234 184.498C602.234 183.926 602.718 183.508 603.818 183.508C605.094 183.508 606.238 184.124 606.238 184.124L606.744 182.342C606.744 182.342 605.644 181.792 603.906 181.792C601.156 181.792 600.056 183.134 600.056 184.674C600.056 187.798 604.83 187.666 604.83 189.448C604.83 190.086 604.28 190.548 603.114 190.548C601.508 190.548 600.298 189.536 600.298 189.536L599.836 191.384ZM609.282 189.272C609.282 191.406 610.382 192.264 611.988 192.264C613.814 192.264 615.2 191.098 615.838 190.416C615.948 191.142 616.168 192.176 616.168 192.176L618.28 191.978C618.28 191.978 617.84 190.152 617.84 188.942V182.056H615.662V188.744C615.046 189.316 613.814 190.372 612.692 190.372C611.878 190.372 611.46 189.822 611.46 188.436V182.056H609.282V189.272ZM620.949 197.126L623.127 196.774V191.736C623.545 192.044 624.293 192.264 625.217 192.264C628.385 192.264 630.233 189.668 630.233 186.72C630.233 184.014 628.649 181.792 626.031 181.792C624.469 181.792 623.523 182.606 623.061 183.464V181.88L620.949 182.232V197.126ZM625.657 183.596C626.999 183.596 627.945 184.806 627.945 186.874C627.945 189.25 626.691 190.548 624.821 190.548C623.787 190.548 623.127 190.174 623.127 189.426V185.202C623.413 184.784 624.337 183.596 625.657 183.596ZM632.615 197.126L634.793 196.774V191.736C635.211 192.044 635.959 192.264 636.883 192.264C640.051 192.264 641.899 189.668 641.899 186.72C641.899 184.014 640.315 181.792 637.697 181.792C636.135 181.792 635.189 182.606 634.727 183.464V181.88L632.615 182.232V197.126ZM637.323 183.596C638.665 183.596 639.611 184.806 639.611 186.874C639.611 189.25 638.357 190.548 636.487 190.548C635.453 190.548 634.793 190.174 634.793 189.426V185.202C635.079 184.784 636.003 183.596 637.323 183.596ZM643.643 187.072C643.643 189.712 645.425 192.264 648.725 192.264C652.311 192.264 653.895 189.25 653.895 186.83C653.895 184.278 652.113 181.792 648.813 181.792C645.249 181.792 643.643 184.586 643.643 187.072ZM645.909 186.874C645.909 184.894 647.075 183.53 648.769 183.53C650.793 183.53 651.629 185.356 651.629 187.116C651.629 189.118 650.463 190.526 648.791 190.526C646.811 190.526 645.909 188.722 645.909 186.874ZM656.248 192H658.426V185.84C658.844 185.18 659.746 183.992 660.846 183.992C661.286 183.992 661.726 184.168 661.726 184.168L662.166 181.968C662.166 181.968 661.858 181.792 661.308 181.792C659.79 181.792 658.778 183.2 658.382 183.882V181.88L656.248 182.232V192ZM664.468 189.294C664.468 191.34 665.59 192.264 667.306 192.264C669.066 192.264 670.364 191.208 670.364 191.208L669.814 189.558C669.55 189.712 668.626 190.438 667.79 190.438C667.064 190.438 666.646 189.954 666.646 188.744V183.706H669.792V182.056H666.646V179.24L664.512 179.702V181.968L662.994 182.518V183.706H664.468V189.294ZM671.925 190.79C671.925 191.604 672.585 192.264 673.399 192.264C674.213 192.264 674.895 191.604 674.895 190.79C674.895 189.954 674.213 189.294 673.399 189.294C672.585 189.294 671.925 189.954 671.925 190.79Z" fill="#333333"/>
<path d="M851.99 95.894C851.99 100.448 855.554 103.264 859.998 103.264C862.176 103.264 865.08 102.582 865.08 102.582V95.256H859.778V97.148H862.836V100.998C862.836 100.998 861.538 101.306 860.262 101.306C856.742 101.306 854.344 99.04 854.344 95.718C854.344 92.748 856.258 90.02 859.998 90.02C862.396 90.02 864.156 91.12 864.156 91.12L865.036 89.162C865.036 89.162 863.078 88.062 860.108 88.062C854.916 88.062 851.99 91.758 851.99 95.894ZM867.437 95.696C867.437 99.744 870.451 103.264 875.093 103.264C879.889 103.264 883.013 99.502 883.013 95.388C883.013 91.34 880.021 88.062 875.291 88.062C870.253 88.062 867.437 91.824 867.437 95.696ZM869.835 95.586C869.835 92.77 871.749 89.998 875.225 89.998C878.701 89.998 880.615 92.726 880.615 95.564C880.615 98.424 878.613 101.328 875.159 101.328C871.683 101.328 869.835 98.314 869.835 95.586ZM884.048 103H886.314L887.744 99.084H893.596L895.048 103H897.38L891.792 88.216H889.636L884.048 103ZM890.67 91.12L892.914 97.192H888.448L890.67 91.12ZM899.602 103H908.732V101.108H901.868V88.326H899.602V103ZM914.929 102.56H921.111V107.246H923.245V102.56H925.291V100.866H923.245V92.44H921.177L914.929 101.108V102.56ZM917.151 100.866L921.111 95.256V100.866H917.151ZM853.002 133H855.268V127.104H857.534L861.45 133H864.134L859.822 126.576C861.296 125.894 862.638 124.508 862.638 122.506C862.638 120.284 861.098 118.326 857.314 118.326H853.002V133ZM855.268 125.212V120.218H856.94C859.382 120.218 860.24 121.34 860.24 122.66C860.24 124.288 858.92 125.212 857.27 125.212H855.268ZM864.921 128.182C864.921 130.844 866.615 133.264 869.937 133.264C872.423 133.264 873.941 131.834 873.941 131.834L873.325 130.25C873.325 130.25 871.939 131.482 870.267 131.482C868.529 131.482 867.429 130.316 867.187 128.512L872.621 127.786L873.875 127.434C873.875 124.42 872.159 122.792 869.783 122.792C866.879 122.792 864.921 125.146 864.921 128.182ZM869.629 124.486C871.367 124.486 871.499 126.51 871.499 126.51L867.187 127.06C867.385 125.608 868.221 124.486 869.629 124.486ZM875.53 130.712C875.53 132.186 876.652 133.264 878.39 133.264C880.326 133.264 881.338 132.032 881.602 131.614C881.888 132.406 882.526 133.044 884.044 133.154L884.704 131.438C884.704 131.438 883.604 131.416 883.604 130.184V125.982C883.604 123.76 882.856 122.792 880.502 122.792C877.884 122.792 876.19 124.046 876.19 124.046L876.762 125.674C876.762 125.674 878.28 124.53 879.908 124.53C881.514 124.53 881.426 125.63 881.426 126.884C877.708 127.368 875.53 128.622 875.53 130.712ZM878.94 131.548C878.302 131.548 877.774 131.262 877.774 130.558C877.774 129.392 878.896 128.666 881.426 128.292V130.008C880.766 130.778 879.952 131.548 878.94 131.548ZM886.894 133H889.072V117.27L886.894 117.622V133ZM893.279 120.68C894.071 120.68 894.665 120.108 894.665 119.338C894.665 118.568 894.071 117.996 893.279 117.996C892.509 117.996 891.915 118.568 891.915 119.338C891.915 120.108 892.509 120.68 893.279 120.68ZM892.179 133H894.357V123.056H892.179V133ZM896.782 133H904.768V131.24H899.532L904.592 124.376V123.056H896.958V124.816H901.732L896.782 131.68V133ZM906.407 128.182C906.407 130.844 908.101 133.264 911.423 133.264C913.909 133.264 915.427 131.834 915.427 131.834L914.811 130.25C914.811 130.25 913.425 131.482 911.753 131.482C910.015 131.482 908.915 130.316 908.673 128.512L914.107 127.786L915.361 127.434C915.361 124.42 913.645 122.792 911.269 122.792C908.365 122.792 906.407 125.146 906.407 128.182ZM911.115 124.486C912.853 124.486 912.985 126.51 912.985 126.51L908.673 127.06C908.871 125.608 909.707 124.486 911.115 124.486ZM923.666 130.294C923.666 132.34 924.788 133.264 926.504 133.264C928.264 133.264 929.562 132.208 929.562 132.208L929.012 130.558C928.748 130.712 927.824 131.438 926.988 131.438C926.262 131.438 925.844 130.954 925.844 129.744V124.706H928.99V123.056H925.844V120.24L923.71 120.702V122.968L922.192 123.518V124.706H923.666V130.294ZM931.452 133H933.63V126.598C934.29 125.938 935.72 124.684 936.82 124.684C937.568 124.684 938.008 125.212 938.008 126.62V133H940.186V125.828C940.186 123.694 939.108 122.792 937.524 122.792C935.698 122.792 934.29 124.024 933.63 124.728V117.27L931.452 117.622V133ZM942.325 130.712C942.325 132.186 943.447 133.264 945.185 133.264C947.121 133.264 948.133 132.032 948.397 131.614C948.683 132.406 949.321 133.044 950.839 133.154L951.499 131.438C951.499 131.438 950.399 131.416 950.399 130.184V125.982C950.399 123.76 949.651 122.792 947.297 122.792C944.679 122.792 942.985 124.046 942.985 124.046L943.557 125.674C943.557 125.674 945.075 124.53 946.703 124.53C948.309 124.53 948.221 125.63 948.221 126.884C944.503 127.368 942.325 128.622 942.325 130.712ZM945.735 131.548C945.097 131.548 944.569 131.262 944.569 130.558C944.569 129.392 945.691 128.666 948.221 128.292V130.008C947.561 130.778 946.747 131.548 945.735 131.548ZM954.131 130.294C954.131 132.34 955.253 133.264 956.969 133.264C958.729 133.264 960.027 132.208 960.027 132.208L959.477 130.558C959.213 130.712 958.289 131.438 957.453 131.438C956.727 131.438 956.309 130.954 956.309 129.744V124.706H959.455V123.056H956.309V120.24L954.175 120.702V122.968L952.657 123.518V124.706H954.131V130.294ZM967.664 133H969.93V118.326H967.664V133ZM978.1 128.16C978.1 131.042 980.102 133.264 983.204 133.264C985.58 133.264 986.724 131.988 986.724 131.988L986.02 130.448C986.02 130.448 984.942 131.482 983.358 131.482C981.488 131.482 980.366 130.008 980.366 128.05C980.366 126.026 981.576 124.552 983.38 124.552C984.832 124.552 985.866 125.476 985.866 125.476L986.724 123.848C986.724 123.848 985.514 122.792 983.336 122.792C980.058 122.792 978.1 125.41 978.1 128.16ZM988.087 130.712C988.087 132.186 989.209 133.264 990.947 133.264C992.883 133.264 993.895 132.032 994.159 131.614C994.445 132.406 995.083 133.044 996.601 133.154L997.261 131.438C997.261 131.438 996.161 131.416 996.161 130.184V125.982C996.161 123.76 995.413 122.792 993.059 122.792C990.441 122.792 988.747 124.046 988.747 124.046L989.319 125.674C989.319 125.674 990.837 124.53 992.465 124.53C994.071 124.53 993.983 125.63 993.983 126.884C990.265 127.368 988.087 128.622 988.087 130.712ZM991.497 131.548C990.859 131.548 990.331 131.262 990.331 130.558C990.331 129.392 991.453 128.666 993.983 128.292V130.008C993.323 130.778 992.509 131.548 991.497 131.548ZM999.406 133H1001.58V126.554C1002.27 125.894 1003.67 124.684 1004.77 124.684C1005.52 124.684 1005.96 125.212 1005.96 126.62V133H1008.14V125.828C1008.14 123.694 1007.06 122.792 1005.5 122.792C1003.67 122.792 1002.24 124.002 1001.54 124.772V122.88L999.406 123.232V133ZM1016.4 133H1018.58V117.27L1016.4 117.622V133ZM1022.79 120.68C1023.58 120.68 1024.17 120.108 1024.17 119.338C1024.17 118.568 1023.58 117.996 1022.79 117.996C1022.02 117.996 1021.42 118.568 1021.42 119.338C1021.42 120.108 1022.02 120.68 1022.79 120.68ZM1021.69 133H1023.86V123.056H1021.69V133ZM1029.33 133.088H1031.35L1035.44 123.056H1033.22L1030.43 130.272L1028.01 123.056H1025.72L1029.33 133.088ZM1036.45 128.182C1036.45 130.844 1038.15 133.264 1041.47 133.264C1043.95 133.264 1045.47 131.834 1045.47 131.834L1044.86 130.25C1044.86 130.25 1043.47 131.482 1041.8 131.482C1040.06 131.482 1038.96 130.316 1038.72 128.512L1044.15 127.786L1045.41 127.434C1045.41 124.42 1043.69 122.792 1041.31 122.792C1038.41 122.792 1036.45 125.146 1036.45 128.182ZM1041.16 124.486C1042.9 124.486 1043.03 126.51 1043.03 126.51L1038.72 127.06C1038.92 125.608 1039.75 124.486 1041.16 124.486ZM1052.35 130.712C1052.35 132.186 1053.47 133.264 1055.21 133.264C1057.14 133.264 1058.15 132.032 1058.42 131.614C1058.7 132.406 1059.34 133.044 1060.86 133.154L1061.52 131.438C1061.52 131.438 1060.42 131.416 1060.42 130.184V125.982C1060.42 123.76 1059.67 122.792 1057.32 122.792C1054.7 122.792 1053.01 124.046 1053.01 124.046L1053.58 125.674C1053.58 125.674 1055.1 124.53 1056.72 124.53C1058.33 124.53 1058.24 125.63 1058.24 126.884C1054.52 127.368 1052.35 128.622 1052.35 130.712ZM1055.76 131.548C1055.12 131.548 1054.59 131.262 1054.59 130.558C1054.59 129.392 1055.71 128.666 1058.24 128.292V130.008C1057.58 130.778 1056.77 131.548 1055.76 131.548ZM851.55 154.706H853.112V163H855.29V154.706H858.04V153.056H855.29V151.868C855.29 149.536 856.346 148.722 857.512 148.722C858.59 148.722 859.558 149.426 859.558 149.426L860.416 147.754C860.416 147.754 859.272 146.918 857.534 146.918C854.938 146.918 853.112 148.744 853.112 152V152.968L851.55 153.54V154.706ZM859.928 160.272C859.928 162.406 861.028 163.264 862.634 163.264C864.46 163.264 865.846 162.098 866.484 161.416C866.594 162.142 866.814 163.176 866.814 163.176L868.926 162.978C868.926 162.978 868.486 161.152 868.486 159.942V153.056H866.308V159.744C865.692 160.316 864.46 161.372 863.338 161.372C862.524 161.372 862.106 160.822 862.106 159.436V153.056H859.928V160.272ZM871.64 163H873.818V147.27L871.64 147.622V163ZM876.925 163H879.103V147.27L876.925 147.622V163ZM887.495 163H889.673V147.27L887.495 147.622V163ZM893.88 150.68C894.672 150.68 895.266 150.108 895.266 149.338C895.266 148.568 894.672 147.996 893.88 147.996C893.11 147.996 892.516 148.568 892.516 149.338C892.516 150.108 893.11 150.68 893.88 150.68ZM892.78 163H894.958V153.056H892.78V163ZM897.075 154.706H898.637V163H900.815V154.706H903.565V153.056H900.815V151.868C900.815 149.536 901.871 148.722 903.037 148.722C904.115 148.722 905.083 149.426 905.083 149.426L905.941 147.754C905.941 147.754 904.797 146.918 903.059 146.918C900.463 146.918 898.637 148.744 898.637 152V152.968L897.075 153.54V154.706ZM904.753 158.182C904.753 160.844 906.447 163.264 909.769 163.264C912.255 163.264 913.773 161.834 913.773 161.834L913.157 160.25C913.157 160.25 911.771 161.482 910.099 161.482C908.361 161.482 907.261 160.316 907.019 158.512L912.453 157.786L913.707 157.434C913.707 154.42 911.991 152.792 909.615 152.792C906.711 152.792 904.753 155.146 904.753 158.182ZM909.461 154.486C911.199 154.486 911.331 156.51 911.331 156.51L907.019 157.06C907.217 155.608 908.053 154.486 909.461 154.486ZM920.823 158.182C920.823 160.844 922.517 163.264 925.839 163.264C928.325 163.264 929.843 161.834 929.843 161.834L929.227 160.25C929.227 160.25 927.841 161.482 926.169 161.482C924.431 161.482 923.331 160.316 923.089 158.512L928.523 157.786L929.777 157.434C929.777 154.42 928.061 152.792 925.685 152.792C922.781 152.792 920.823 155.146 920.823 158.182ZM925.531 154.486C927.269 154.486 927.401 156.51 927.401 156.51L923.089 157.06C923.287 155.608 924.123 154.486 925.531 154.486ZM934.623 163.088H936.647L940.739 153.056H938.517L935.723 160.272L933.303 153.056H931.015L934.623 163.088ZM941.749 158.182C941.749 160.844 943.443 163.264 946.765 163.264C949.251 163.264 950.769 161.834 950.769 161.834L950.153 160.25C950.153 160.25 948.767 161.482 947.095 161.482C945.357 161.482 944.257 160.316 944.015 158.512L949.449 157.786L950.703 157.434C950.703 154.42 948.987 152.792 946.611 152.792C943.707 152.792 941.749 155.146 941.749 158.182ZM946.457 154.486C948.195 154.486 948.327 156.51 948.327 156.51L944.015 157.06C944.213 155.608 945.049 154.486 946.457 154.486ZM953.15 163H955.328V156.554C956.01 155.894 957.418 154.684 958.518 154.684C959.266 154.684 959.706 155.212 959.706 156.62V163H961.884V155.828C961.884 153.694 960.806 152.792 959.244 152.792C957.418 152.792 955.988 154.002 955.284 154.772V152.88L953.15 153.232V163ZM972.191 163.088H974.303L976.855 156.004L979.143 163.088H981.277L984.841 153.056H982.619L980.221 160.536L977.889 153.056H975.997L973.423 160.58L971.245 153.056H969.001L972.191 163.088ZM987.81 150.68C988.602 150.68 989.196 150.108 989.196 149.338C989.196 148.568 988.602 147.996 987.81 147.996C987.04 147.996 986.446 148.568 986.446 149.338C986.446 150.108 987.04 150.68 987.81 150.68ZM986.71 163H988.888V153.056H986.71V163ZM992.523 160.294C992.523 162.34 993.645 163.264 995.361 163.264C997.121 163.264 998.419 162.208 998.419 162.208L997.869 160.558C997.605 160.712 996.681 161.438 995.845 161.438C995.119 161.438 994.701 160.954 994.701 159.744V154.706H997.847V153.056H994.701V150.24L992.567 150.702V152.968L991.049 153.518V154.706H992.523V160.294ZM1000.31 163H1002.49V156.598C1003.15 155.938 1004.58 154.684 1005.68 154.684C1006.43 154.684 1006.87 155.212 1006.87 156.62V163H1009.04V155.828C1009.04 153.694 1007.97 152.792 1006.38 152.792C1004.56 152.792 1003.15 154.024 1002.49 154.728V147.27L1000.31 147.622V163ZM1016.47 160.712C1016.47 162.186 1017.59 163.264 1019.33 163.264C1021.26 163.264 1022.28 162.032 1022.54 161.614C1022.83 162.406 1023.46 163.044 1024.98 163.154L1025.64 161.438C1025.64 161.438 1024.54 161.416 1024.54 160.184V155.982C1024.54 153.76 1023.79 152.792 1021.44 152.792C1018.82 152.792 1017.13 154.046 1017.13 154.046L1017.7 155.674C1017.7 155.674 1019.22 154.53 1020.85 154.53C1022.45 154.53 1022.36 155.63 1022.36 156.884C1018.65 157.368 1016.47 158.622 1016.47 160.712ZM1019.88 161.548C1019.24 161.548 1018.71 161.262 1018.71 160.558C1018.71 159.392 1019.83 158.666 1022.36 158.292V160.008C1021.7 160.778 1020.89 161.548 1019.88 161.548ZM851.858 188.16C851.858 191.042 853.86 193.264 856.962 193.264C859.338 193.264 860.482 191.988 860.482 191.988L859.778 190.448C859.778 190.448 858.7 191.482 857.116 191.482C855.246 191.482 854.124 190.008 854.124 188.05C854.124 186.026 855.334 184.552 857.138 184.552C858.59 184.552 859.624 185.476 859.624 185.476L860.482 183.848C860.482 183.848 859.272 182.792 857.094 182.792C853.816 182.792 851.858 185.41 851.858 188.16ZM862.681 193H864.859V186.598C865.519 185.938 866.949 184.684 868.049 184.684C868.797 184.684 869.237 185.212 869.237 186.62V193H871.415V185.828C871.415 183.694 870.337 182.792 868.753 182.792C866.927 182.792 865.519 184.024 864.859 184.728V177.27L862.681 177.622V193ZM874.346 193H876.524V186.84C876.942 186.18 877.844 184.992 878.944 184.992C879.384 184.992 879.824 185.168 879.824 185.168L880.264 182.968C880.264 182.968 879.956 182.792 879.406 182.792C877.888 182.792 876.876 184.2 876.48 184.882V182.88L874.346 183.232V193ZM881.184 188.072C881.184 190.712 882.966 193.264 886.266 193.264C889.852 193.264 891.436 190.25 891.436 187.83C891.436 185.278 889.654 182.792 886.354 182.792C882.79 182.792 881.184 185.586 881.184 188.072ZM883.45 187.874C883.45 185.894 884.616 184.53 886.31 184.53C888.334 184.53 889.17 186.356 889.17 188.116C889.17 190.118 888.004 191.526 886.332 191.526C884.352 191.526 883.45 189.722 883.45 187.874ZM893.789 193H895.967V186.554C896.649 185.894 898.057 184.684 899.157 184.684C899.905 184.684 900.345 185.212 900.345 186.62V193H902.523V185.828C902.523 183.694 901.445 182.792 899.883 182.792C898.057 182.792 896.627 184.002 895.923 184.772V182.88L893.789 183.232V193ZM906.599 180.68C907.391 180.68 907.985 180.108 907.985 179.338C907.985 178.568 907.391 177.996 906.599 177.996C905.829 177.996 905.235 178.568 905.235 179.338C905.235 180.108 905.829 180.68 906.599 180.68ZM905.499 193H907.677V183.056H905.499V193ZM910.102 188.16C910.102 191.042 912.104 193.264 915.206 193.264C917.582 193.264 918.726 191.988 918.726 191.988L918.022 190.448C918.022 190.448 916.944 191.482 915.36 191.482C913.49 191.482 912.368 190.008 912.368 188.05C912.368 186.026 913.578 184.552 915.382 184.552C916.834 184.552 917.868 185.476 917.868 185.476L918.726 183.848C918.726 183.848 917.516 182.792 915.338 182.792C912.06 182.792 910.102 185.41 910.102 188.16ZM927.31 180.68C928.102 180.68 928.696 180.108 928.696 179.338C928.696 178.568 928.102 177.996 927.31 177.996C926.54 177.996 925.946 178.568 925.946 179.338C925.946 180.108 926.54 180.68 927.31 180.68ZM926.21 193H928.388V183.056H926.21V193ZM931.495 193H933.673V177.27L931.495 177.622V193ZM936.78 193H938.958V177.27L936.78 177.622V193ZM942.021 193H944.199V186.554C944.881 185.894 946.289 184.684 947.389 184.684C948.137 184.684 948.577 185.212 948.577 186.62V193H950.755V185.828C950.755 183.694 949.677 182.792 948.115 182.792C946.289 182.792 944.859 184.002 944.155 184.772V182.88L942.021 183.232V193ZM953.071 188.182C953.071 190.844 954.765 193.264 958.087 193.264C960.573 193.264 962.091 191.834 962.091 191.834L961.475 190.25C961.475 190.25 960.089 191.482 958.417 191.482C956.679 191.482 955.579 190.316 955.337 188.512L960.771 187.786L962.025 187.434C962.025 184.42 960.309 182.792 957.933 182.792C955.029 182.792 953.071 185.146 953.071 188.182ZM957.779 184.486C959.517 184.486 959.649 186.51 959.649 186.51L955.337 187.06C955.535 185.608 956.371 184.486 957.779 184.486ZM963.813 192.384C963.813 192.384 965.045 193.264 967.113 193.264C969.555 193.264 970.985 192.054 970.985 190.25C970.985 187.082 966.211 187.236 966.211 185.498C966.211 184.926 966.695 184.508 967.795 184.508C969.071 184.508 970.215 185.124 970.215 185.124L970.721 183.342C970.721 183.342 969.621 182.792 967.883 182.792C965.133 182.792 964.033 184.134 964.033 185.674C964.033 188.798 968.807 188.666 968.807 190.448C968.807 191.086 968.257 191.548 967.091 191.548C965.485 191.548 964.275 190.536 964.275 190.536L963.813 192.384ZM972.664 192.384C972.664 192.384 973.896 193.264 975.964 193.264C978.406 193.264 979.836 192.054 979.836 190.25C979.836 187.082 975.062 187.236 975.062 185.498C975.062 184.926 975.546 184.508 976.646 184.508C977.922 184.508 979.066 185.124 979.066 185.124L979.572 183.342C979.572 183.342 978.472 182.792 976.734 182.792C973.984 182.792 972.884 184.134 972.884 185.674C972.884 188.798 977.658 188.666 977.658 190.448C977.658 191.086 977.108 191.548 975.942 191.548C974.336 191.548 973.126 190.536 973.126 190.536L972.664 192.384ZM981.89 191.79C981.89 192.604 982.55 193.264 983.364 193.264C984.178 193.264 984.86 192.604 984.86 191.79C984.86 190.954 984.178 190.294 983.364 190.294C982.55 190.294 981.89 190.954 981.89 191.79Z" fill="#333333"/>
</svg>
