<svg width="584" height="383" viewBox="0 0 584 383" fill="none" xmlns="http://www.w3.org/2000/svg">
<rect x="1" y="1" width="582" height="381" fill="#FAFAFA" stroke="#BDBDBD" stroke-width="2"/>
<rect x="56.5" y="147.5" width="471" height="178" stroke="#828282" stroke-opacity="0.25"/>
<path d="M70.6495 84H72.9155V78.104H75.1815L79.0975 84H81.7815L77.4695 77.576C78.9435 76.894 80.2855 75.508 80.2855 73.506C80.2855 71.284 78.7455 69.326 74.9615 69.326H70.6495V84ZM72.9155 76.212V71.218H74.5875C77.0295 71.218 77.8875 72.34 77.8875 73.66C77.8875 75.288 76.5675 76.212 74.9175 76.212H72.9155ZM82.5685 79.182C82.5685 81.844 84.2625 84.264 87.5845 84.264C90.0705 84.264 91.5885 82.834 91.5885 82.834L90.9725 81.25C90.9725 81.25 89.5865 82.482 87.9145 82.482C86.1765 82.482 85.0765 81.316 84.8345 79.512L90.2685 78.786L91.5225 78.434C91.5225 75.42 89.8065 73.792 87.4305 73.792C84.5265 73.792 82.5685 76.146 82.5685 79.182ZM87.2765 75.486C89.0145 75.486 89.1465 77.51 89.1465 77.51L84.8345 78.06C85.0325 76.608 85.8685 75.486 87.2765 75.486ZM93.1776 81.712C93.1776 83.186 94.2996 84.264 96.0376 84.264C97.9736 84.264 98.9856 83.032 99.2496 82.614C99.5356 83.406 100.174 84.044 101.692 84.154L102.352 82.438C102.352 82.438 101.252 82.416 101.252 81.184V76.982C101.252 74.76 100.504 73.792 98.1496 73.792C95.5316 73.792 93.8376 75.046 93.8376 75.046L94.4096 76.674C94.4096 76.674 95.9276 75.53 97.5556 75.53C99.1616 75.53 99.0736 76.63 99.0736 77.884C95.3556 78.368 93.1776 79.622 93.1776 81.712ZM96.5876 82.548C95.9496 82.548 95.4216 82.262 95.4216 81.558C95.4216 80.392 96.5436 79.666 99.0736 79.292V81.008C98.4136 81.778 97.5996 82.548 96.5876 82.548ZM104.541 84H106.719V68.27L104.541 68.622V84ZM110.926 71.68C111.718 71.68 112.312 71.108 112.312 70.338C112.312 69.568 111.718 68.996 110.926 68.996C110.156 68.996 109.562 69.568 109.562 70.338C109.562 71.108 110.156 71.68 110.926 71.68ZM109.826 84H112.004V74.056H109.826V84ZM114.429 84H122.415V82.24H117.179L122.239 75.376V74.056H114.605V75.816H119.379L114.429 82.68V84ZM124.055 79.182C124.055 81.844 125.749 84.264 129.071 84.264C131.557 84.264 133.075 82.834 133.075 82.834L132.459 81.25C132.459 81.25 131.073 82.482 129.401 82.482C127.663 82.482 126.563 81.316 126.321 79.512L131.755 78.786L133.009 78.434C133.009 75.42 131.293 73.792 128.917 73.792C126.013 73.792 124.055 76.146 124.055 79.182ZM128.763 75.486C130.501 75.486 130.633 77.51 130.633 77.51L126.321 78.06C126.519 76.608 127.355 75.486 128.763 75.486ZM141.313 81.294C141.313 83.34 142.435 84.264 144.151 84.264C145.911 84.264 147.209 83.208 147.209 83.208L146.659 81.558C146.395 81.712 145.471 82.438 144.635 82.438C143.909 82.438 143.491 81.954 143.491 80.744V75.706H146.637V74.056H143.491V71.24L141.357 71.702V73.968L139.839 74.518V75.706H141.313V81.294ZM149.1 84H151.278V77.598C151.938 76.938 153.368 75.684 154.468 75.684C155.216 75.684 155.656 76.212 155.656 77.62V84H157.834V76.828C157.834 74.694 156.756 73.792 155.172 73.792C153.346 73.792 151.938 75.024 151.278 75.728V68.27L149.1 68.622V84ZM159.973 81.712C159.973 83.186 161.095 84.264 162.833 84.264C164.769 84.264 165.781 83.032 166.045 82.614C166.331 83.406 166.969 84.044 168.487 84.154L169.147 82.438C169.147 82.438 168.047 82.416 168.047 81.184V76.982C168.047 74.76 167.299 73.792 164.945 73.792C162.327 73.792 160.633 75.046 160.633 75.046L161.205 76.674C161.205 76.674 162.723 75.53 164.351 75.53C165.957 75.53 165.869 76.63 165.869 77.884C162.151 78.368 159.973 79.622 159.973 81.712ZM163.383 82.548C162.745 82.548 162.217 82.262 162.217 81.558C162.217 80.392 163.339 79.666 165.869 79.292V81.008C165.209 81.778 164.395 82.548 163.383 82.548ZM171.778 81.294C171.778 83.34 172.9 84.264 174.616 84.264C176.376 84.264 177.674 83.208 177.674 83.208L177.124 81.558C176.86 81.712 175.936 82.438 175.1 82.438C174.374 82.438 173.956 81.954 173.956 80.744V75.706H177.102V74.056H173.956V71.24L171.822 71.702V73.968L170.304 74.518V75.706H171.778V81.294ZM184.146 83.384C184.146 83.384 185.378 84.264 187.446 84.264C189.888 84.264 191.318 83.054 191.318 81.25C191.318 78.082 186.544 78.236 186.544 76.498C186.544 75.926 187.028 75.508 188.128 75.508C189.404 75.508 190.548 76.124 190.548 76.124L191.054 74.342C191.054 74.342 189.954 73.792 188.216 73.792C185.466 73.792 184.366 75.134 184.366 76.674C184.366 79.798 189.14 79.666 189.14 81.448C189.14 82.086 188.59 82.548 187.424 82.548C185.818 82.548 184.608 81.536 184.608 81.536L184.146 83.384ZM193.701 84H195.879V77.598C196.539 76.938 197.969 75.684 199.069 75.684C199.817 75.684 200.257 76.212 200.257 77.62V84H202.435V76.828C202.435 74.694 201.357 73.792 199.773 73.792C197.947 73.792 196.539 75.024 195.879 75.728V68.27L193.701 68.622V84ZM204.75 79.182C204.75 81.844 206.444 84.264 209.766 84.264C212.252 84.264 213.77 82.834 213.77 82.834L213.154 81.25C213.154 81.25 211.768 82.482 210.096 82.482C208.358 82.482 207.258 81.316 207.016 79.512L212.45 78.786L213.704 78.434C213.704 75.42 211.988 73.792 209.612 73.792C206.708 73.792 204.75 76.146 204.75 79.182ZM209.458 75.486C211.196 75.486 211.328 77.51 211.328 77.51L207.016 78.06C207.214 76.608 208.05 75.486 209.458 75.486ZM220.798 79.16C220.798 82.042 222.8 84.264 225.902 84.264C228.278 84.264 229.422 82.988 229.422 82.988L228.718 81.448C228.718 81.448 227.64 82.482 226.056 82.482C224.186 82.482 223.064 81.008 223.064 79.05C223.064 77.026 224.274 75.552 226.078 75.552C227.53 75.552 228.564 76.476 228.564 76.476L229.422 74.848C229.422 74.848 228.212 73.792 226.034 73.792C222.756 73.792 220.798 76.41 220.798 79.16ZM230.785 81.712C230.785 83.186 231.907 84.264 233.645 84.264C235.581 84.264 236.593 83.032 236.857 82.614C237.143 83.406 237.781 84.044 239.299 84.154L239.959 82.438C239.959 82.438 238.859 82.416 238.859 81.184V76.982C238.859 74.76 238.111 73.792 235.757 73.792C233.139 73.792 231.445 75.046 231.445 75.046L232.017 76.674C232.017 76.674 233.535 75.53 235.163 75.53C236.769 75.53 236.681 76.63 236.681 77.884C232.963 78.368 230.785 79.622 230.785 81.712ZM234.195 82.548C233.557 82.548 233.029 82.262 233.029 81.558C233.029 80.392 234.151 79.666 236.681 79.292V81.008C236.021 81.778 235.207 82.548 234.195 82.548ZM242.104 84H244.282V77.554C244.964 76.894 246.372 75.684 247.472 75.684C248.22 75.684 248.66 76.212 248.66 77.62V84H250.838V76.828C250.838 74.694 249.76 73.792 248.198 73.792C246.372 73.792 244.942 75.002 244.238 75.772V73.88L242.104 74.232V84ZM259.1 84H261.278V68.27L259.1 68.622V84ZM265.485 71.68C266.277 71.68 266.871 71.108 266.871 70.338C266.871 69.568 266.277 68.996 265.485 68.996C264.715 68.996 264.121 69.568 264.121 70.338C264.121 71.108 264.715 71.68 265.485 71.68ZM264.385 84H266.563V74.056H264.385V84ZM272.024 84.088H274.048L278.14 74.056H275.918L273.124 81.272L270.704 74.056H268.416L272.024 84.088ZM279.151 79.182C279.151 81.844 280.845 84.264 284.167 84.264C286.653 84.264 288.171 82.834 288.171 82.834L287.555 81.25C287.555 81.25 286.169 82.482 284.497 82.482C282.759 82.482 281.659 81.316 281.417 79.512L286.851 78.786L288.105 78.434C288.105 75.42 286.389 73.792 284.013 73.792C281.109 73.792 279.151 76.146 279.151 79.182ZM283.859 75.486C285.597 75.486 285.729 77.51 285.729 77.51L281.417 78.06C281.615 76.608 282.451 75.486 283.859 75.486ZM295.045 81.712C295.045 83.186 296.167 84.264 297.905 84.264C299.841 84.264 300.853 83.032 301.117 82.614C301.403 83.406 302.041 84.044 303.559 84.154L304.219 82.438C304.219 82.438 303.119 82.416 303.119 81.184V76.982C303.119 74.76 302.371 73.792 300.017 73.792C297.399 73.792 295.705 75.046 295.705 75.046L296.277 76.674C296.277 76.674 297.795 75.53 299.423 75.53C301.029 75.53 300.941 76.63 300.941 77.884C297.223 78.368 295.045 79.622 295.045 81.712ZM298.455 82.548C297.817 82.548 297.289 82.262 297.289 81.558C297.289 80.392 298.411 79.666 300.941 79.292V81.008C300.281 81.778 299.467 82.548 298.455 82.548ZM310.703 75.706H312.265V84H314.443V75.706H317.193V74.056H314.443V72.868C314.443 70.536 315.499 69.722 316.665 69.722C317.743 69.722 318.711 70.426 318.711 70.426L319.569 68.754C319.569 68.754 318.425 67.918 316.687 67.918C314.091 67.918 312.265 69.744 312.265 73V73.968L310.703 74.54V75.706ZM319.081 81.272C319.081 83.406 320.181 84.264 321.787 84.264C323.613 84.264 324.999 83.098 325.637 82.416C325.747 83.142 325.967 84.176 325.967 84.176L328.079 83.978C328.079 83.978 327.639 82.152 327.639 80.942V74.056H325.461V80.744C324.845 81.316 323.613 82.372 322.491 82.372C321.677 82.372 321.259 81.822 321.259 80.436V74.056H319.081V81.272ZM330.793 84H332.971V68.27L330.793 68.622V84ZM336.078 84H338.256V68.27L336.078 68.622V84ZM346.648 84H348.826V68.27L346.648 68.622V84ZM353.034 71.68C353.826 71.68 354.42 71.108 354.42 70.338C354.42 69.568 353.826 68.996 353.034 68.996C352.264 68.996 351.67 69.568 351.67 70.338C351.67 71.108 352.264 71.68 353.034 71.68ZM351.934 84H354.112V74.056H351.934V84ZM356.229 75.706H357.791V84H359.969V75.706H362.719V74.056H359.969V72.868C359.969 70.536 361.025 69.722 362.191 69.722C363.269 69.722 364.237 70.426 364.237 70.426L365.095 68.754C365.095 68.754 363.951 67.918 362.213 67.918C359.617 67.918 357.791 69.744 357.791 73V73.968L356.229 74.54V75.706ZM363.906 79.182C363.906 81.844 365.6 84.264 368.922 84.264C371.408 84.264 372.926 82.834 372.926 82.834L372.31 81.25C372.31 81.25 370.924 82.482 369.252 82.482C367.514 82.482 366.414 81.316 366.172 79.512L371.606 78.786L372.86 78.434C372.86 75.42 371.144 73.792 368.768 73.792C365.864 73.792 363.906 76.146 363.906 79.182ZM368.614 75.486C370.352 75.486 370.484 77.51 370.484 77.51L366.172 78.06C366.37 76.608 367.206 75.486 368.614 75.486ZM379.977 79.336C379.977 82.064 381.649 84.264 384.245 84.264C385.829 84.264 386.841 83.494 387.369 82.636C387.479 83.34 387.677 84.154 387.677 84.154L389.767 84C389.767 84 389.327 82.152 389.327 80.942V68.27L387.149 68.622V74.122C386.863 74.012 386.203 73.792 385.301 73.792C381.781 73.792 379.977 76.498 379.977 79.336ZM384.619 82.526C383.211 82.526 382.265 81.272 382.265 79.204C382.265 76.828 383.519 75.508 385.411 75.508C386.313 75.508 387.105 75.838 387.149 76.828V80.92C386.841 81.382 385.961 82.526 384.619 82.526ZM391.793 79.182C391.793 81.844 393.487 84.264 396.809 84.264C399.295 84.264 400.813 82.834 400.813 82.834L400.197 81.25C400.197 81.25 398.811 82.482 397.139 82.482C395.401 82.482 394.301 81.316 394.059 79.512L399.493 78.786L400.747 78.434C400.747 75.42 399.031 73.792 396.655 73.792C393.751 73.792 391.793 76.146 391.793 79.182ZM396.501 75.486C398.239 75.486 398.371 77.51 398.371 77.51L394.059 78.06C394.257 76.608 395.093 75.486 396.501 75.486ZM402.534 83.384C402.534 83.384 403.766 84.264 405.834 84.264C408.276 84.264 409.706 83.054 409.706 81.25C409.706 78.082 404.932 78.236 404.932 76.498C404.932 75.926 405.416 75.508 406.516 75.508C407.792 75.508 408.936 76.124 408.936 76.124L409.442 74.342C409.442 74.342 408.342 73.792 406.604 73.792C403.854 73.792 402.754 75.134 402.754 76.674C402.754 79.798 407.528 79.666 407.528 81.448C407.528 82.086 406.978 82.548 405.812 82.548C404.206 82.548 402.996 81.536 402.996 81.536L402.534 83.384ZM412.046 89.126L414.224 88.774V83.736C414.642 84.044 415.39 84.264 416.314 84.264C419.482 84.264 421.33 81.668 421.33 78.72C421.33 76.014 419.746 73.792 417.128 73.792C415.566 73.792 414.62 74.606 414.158 75.464V73.88L412.046 74.232V89.126ZM416.754 75.596C418.096 75.596 419.042 76.806 419.042 78.874C419.042 81.25 417.788 82.548 415.918 82.548C414.884 82.548 414.224 82.174 414.224 81.426V77.202C414.51 76.784 415.434 75.596 416.754 75.596ZM424.856 71.68C425.648 71.68 426.242 71.108 426.242 70.338C426.242 69.568 425.648 68.996 424.856 68.996C424.086 68.996 423.492 69.568 423.492 70.338C423.492 71.108 424.086 71.68 424.856 71.68ZM423.756 84H425.934V74.056H423.756V84ZM429.569 81.294C429.569 83.34 430.691 84.264 432.407 84.264C434.167 84.264 435.465 83.208 435.465 83.208L434.915 81.558C434.651 81.712 433.727 82.438 432.891 82.438C432.165 82.438 431.747 81.954 431.747 80.744V75.706H434.893V74.056H431.747V71.24L429.613 71.702V73.968L428.095 74.518V75.706H429.569V81.294ZM436.695 79.182C436.695 81.844 438.389 84.264 441.711 84.264C444.197 84.264 445.715 82.834 445.715 82.834L445.099 81.25C445.099 81.25 443.713 82.482 442.041 82.482C440.303 82.482 439.203 81.316 438.961 79.512L444.395 78.786L445.649 78.434C445.649 75.42 443.933 73.792 441.557 73.792C438.653 73.792 436.695 76.146 436.695 79.182ZM441.403 75.486C443.141 75.486 443.273 77.51 443.273 77.51L438.961 78.06C439.159 76.608 439.995 75.486 441.403 75.486ZM453.382 83.78C454.13 83.956 455.824 84.264 457.012 84.264C460.774 84.264 462.578 81.58 462.578 78.676C462.578 75.948 460.994 73.792 458.244 73.792C456.88 73.792 456.066 74.342 455.56 74.914V68.27L453.382 68.622V83.78ZM457.892 75.552C459.344 75.552 460.334 76.762 460.334 78.83C460.334 81.294 458.948 82.614 457.056 82.614C456.242 82.614 455.56 82.394 455.56 82.394V76.586C456.022 76.168 456.858 75.552 457.892 75.552ZM464.367 79.182C464.367 81.844 466.061 84.264 469.383 84.264C471.869 84.264 473.387 82.834 473.387 82.834L472.771 81.25C472.771 81.25 471.385 82.482 469.713 82.482C467.975 82.482 466.875 81.316 466.633 79.512L472.067 78.786L473.321 78.434C473.321 75.42 471.605 73.792 469.229 73.792C466.325 73.792 464.367 76.146 464.367 79.182ZM469.075 75.486C470.813 75.486 470.945 77.51 470.945 77.51L466.633 78.06C466.831 76.608 467.667 75.486 469.075 75.486ZM476.912 71.68C477.704 71.68 478.298 71.108 478.298 70.338C478.298 69.568 477.704 68.996 476.912 68.996C476.142 68.996 475.548 69.568 475.548 70.338C475.548 71.108 476.142 71.68 476.912 71.68ZM475.812 84H477.99V74.056H475.812V84ZM481.054 84H483.232V77.554C483.914 76.894 485.322 75.684 486.422 75.684C487.17 75.684 487.61 76.212 487.61 77.62V84H489.788V76.828C489.788 74.694 488.71 73.792 487.148 73.792C485.322 73.792 483.892 75.002 483.188 75.772V73.88L481.054 74.232V84ZM492.698 82.24C492.698 82.922 493.336 83.318 494.326 83.648C493.27 84.198 491.796 85.144 491.796 86.596C491.796 88.334 493.952 89.214 496.152 89.214C499.144 89.214 501.586 87.52 501.586 85.518C501.586 83.692 499.584 83.142 497.824 82.702C495.756 82.196 494.788 81.998 494.788 81.602C494.788 81.36 495.14 81.096 495.602 80.788C495.822 80.832 496.064 80.832 496.328 80.832C498.462 80.832 500.728 79.666 500.728 77.488C500.728 76.608 500.31 76.014 500.002 75.662C500.266 75.706 500.574 75.728 500.816 75.728H502.004L501.85 73.99C501.85 73.99 501.19 74.21 500.53 74.21H499.386C498.286 74.21 497.714 73.792 496.504 73.792C494.282 73.792 492.28 75.046 492.28 77.268C492.28 78.61 493.006 79.776 494.26 80.392C493.446 80.854 492.698 81.514 492.698 82.24ZM496.57 84.22C498.418 84.704 499.452 84.99 499.452 85.848C499.452 86.838 498.044 87.63 496.284 87.63C495.03 87.63 493.754 87.234 493.754 86.244C493.754 85.254 494.964 84.594 495.91 84.066C496.13 84.11 496.35 84.154 496.57 84.22ZM496.482 79.292C495.074 79.292 494.414 78.28 494.414 77.334C494.414 76.3 495.162 75.332 496.482 75.332C497.89 75.332 498.572 76.476 498.572 77.444C498.572 78.566 497.692 79.292 496.482 79.292ZM140.49 108.336C140.49 111.064 142.162 113.264 144.758 113.264C146.342 113.264 147.354 112.494 147.882 111.636C147.992 112.34 148.19 113.154 148.19 113.154L150.28 113C150.28 113 149.84 111.152 149.84 109.942V97.27L147.662 97.622V103.122C147.376 103.012 146.716 102.792 145.814 102.792C142.294 102.792 140.49 105.498 140.49 108.336ZM145.132 111.526C143.724 111.526 142.778 110.272 142.778 108.204C142.778 105.828 144.032 104.508 145.924 104.508C146.826 104.508 147.618 104.838 147.662 105.828V109.92C147.354 110.382 146.474 111.526 145.132 111.526ZM154.067 100.68C154.859 100.68 155.453 100.108 155.453 99.338C155.453 98.568 154.859 97.996 154.067 97.996C153.297 97.996 152.703 98.568 152.703 99.338C152.703 100.108 153.297 100.68 154.067 100.68ZM152.967 113H155.145V103.056H152.967V113ZM157.416 110.712C157.416 112.186 158.538 113.264 160.276 113.264C162.212 113.264 163.224 112.032 163.488 111.614C163.774 112.406 164.412 113.044 165.93 113.154L166.59 111.438C166.59 111.438 165.49 111.416 165.49 110.184V105.982C165.49 103.76 164.742 102.792 162.388 102.792C159.77 102.792 158.076 104.046 158.076 104.046L158.648 105.674C158.648 105.674 160.166 104.53 161.794 104.53C163.4 104.53 163.312 105.63 163.312 106.884C159.594 107.368 157.416 108.622 157.416 110.712ZM160.826 111.548C160.188 111.548 159.66 111.262 159.66 110.558C159.66 109.392 160.782 108.666 163.312 108.292V110.008C162.652 110.778 161.838 111.548 160.826 111.548ZM168.713 111.24C168.713 111.922 169.351 112.318 170.341 112.648C169.285 113.198 167.811 114.144 167.811 115.596C167.811 117.334 169.967 118.214 172.167 118.214C175.159 118.214 177.601 116.52 177.601 114.518C177.601 112.692 175.599 112.142 173.839 111.702C171.771 111.196 170.803 110.998 170.803 110.602C170.803 110.36 171.155 110.096 171.617 109.788C171.837 109.832 172.079 109.832 172.343 109.832C174.477 109.832 176.743 108.666 176.743 106.488C176.743 105.608 176.325 105.014 176.017 104.662C176.281 104.706 176.589 104.728 176.831 104.728H178.019L177.865 102.99C177.865 102.99 177.205 103.21 176.545 103.21H175.401C174.301 103.21 173.729 102.792 172.519 102.792C170.297 102.792 168.295 104.046 168.295 106.268C168.295 107.61 169.021 108.776 170.275 109.392C169.461 109.854 168.713 110.514 168.713 111.24ZM172.585 113.22C174.433 113.704 175.467 113.99 175.467 114.848C175.467 115.838 174.059 116.63 172.299 116.63C171.045 116.63 169.769 116.234 169.769 115.244C169.769 114.254 170.979 113.594 171.925 113.066C172.145 113.11 172.365 113.154 172.585 113.22ZM172.497 108.292C171.089 108.292 170.429 107.28 170.429 106.334C170.429 105.3 171.177 104.332 172.497 104.332C173.905 104.332 174.587 105.476 174.587 106.444C174.587 107.566 173.707 108.292 172.497 108.292ZM179.864 113H182.042V106.554C182.724 105.894 184.132 104.684 185.232 104.684C185.98 104.684 186.42 105.212 186.42 106.62V113H188.598V105.828C188.598 103.694 187.52 102.792 185.958 102.792C184.132 102.792 182.702 104.002 181.998 104.772V102.88L179.864 103.232V113ZM190.892 108.072C190.892 110.712 192.674 113.264 195.974 113.264C199.56 113.264 201.144 110.25 201.144 107.83C201.144 105.278 199.362 102.792 196.062 102.792C192.498 102.792 190.892 105.586 190.892 108.072ZM193.158 107.874C193.158 105.894 194.324 104.53 196.018 104.53C198.042 104.53 198.878 106.356 198.878 108.116C198.878 110.118 197.712 111.526 196.04 111.526C194.06 111.526 193.158 109.722 193.158 107.874ZM202.837 112.384C202.837 112.384 204.069 113.264 206.137 113.264C208.579 113.264 210.009 112.054 210.009 110.25C210.009 107.082 205.235 107.236 205.235 105.498C205.235 104.926 205.719 104.508 206.819 104.508C208.095 104.508 209.239 105.124 209.239 105.124L209.745 103.342C209.745 103.342 208.645 102.792 206.907 102.792C204.157 102.792 203.057 104.134 203.057 105.674C203.057 108.798 207.831 108.666 207.831 110.448C207.831 111.086 207.281 111.548 206.115 111.548C204.509 111.548 203.299 110.536 203.299 110.536L202.837 112.384ZM211.733 108.182C211.733 110.844 213.427 113.264 216.749 113.264C219.235 113.264 220.753 111.834 220.753 111.834L220.137 110.25C220.137 110.25 218.751 111.482 217.079 111.482C215.341 111.482 214.241 110.316 213.999 108.512L219.433 107.786L220.687 107.434C220.687 104.42 218.971 102.792 216.595 102.792C213.691 102.792 211.733 105.146 211.733 108.182ZM216.441 104.486C218.179 104.486 218.311 106.51 218.311 106.51L213.999 107.06C214.197 105.608 215.033 104.486 216.441 104.486ZM222.518 108.336C222.518 111.064 224.19 113.264 226.786 113.264C228.37 113.264 229.382 112.494 229.91 111.636C230.02 112.34 230.218 113.154 230.218 113.154L232.308 113C232.308 113 231.868 111.152 231.868 109.942V97.27L229.69 97.622V103.122C229.404 103.012 228.744 102.792 227.842 102.792C224.322 102.792 222.518 105.498 222.518 108.336ZM227.16 111.526C225.752 111.526 224.806 110.272 224.806 108.204C224.806 105.828 226.06 104.508 227.952 104.508C228.854 104.508 229.646 104.838 229.69 105.828V109.92C229.382 110.382 228.502 111.526 227.16 111.526ZM242.325 113.088H244.437L246.989 106.004L249.277 113.088H251.411L254.975 103.056H252.753L250.355 110.536L248.023 103.056H246.131L243.557 110.58L241.379 103.056H239.135L242.325 113.088ZM257.944 100.68C258.736 100.68 259.33 100.108 259.33 99.338C259.33 98.568 258.736 97.996 257.944 97.996C257.174 97.996 256.58 98.568 256.58 99.338C256.58 100.108 257.174 100.68 257.944 100.68ZM256.844 113H259.022V103.056H256.844V113ZM262.657 110.294C262.657 112.34 263.779 113.264 265.495 113.264C267.255 113.264 268.553 112.208 268.553 112.208L268.003 110.558C267.739 110.712 266.815 111.438 265.979 111.438C265.253 111.438 264.835 110.954 264.835 109.744V104.706H267.981V103.056H264.835V100.24L262.701 100.702V102.968L261.183 103.518V104.706H262.657V110.294ZM270.443 113H272.621V106.598C273.281 105.938 274.711 104.684 275.811 104.684C276.559 104.684 276.999 105.212 276.999 106.62V113H279.177V105.828C279.177 103.694 278.099 102.792 276.515 102.792C274.689 102.792 273.281 104.024 272.621 104.728V97.27L270.443 97.622V113ZM286.601 110.712C286.601 112.186 287.723 113.264 289.461 113.264C291.397 113.264 292.409 112.032 292.673 111.614C292.959 112.406 293.597 113.044 295.115 113.154L295.775 111.438C295.775 111.438 294.675 111.416 294.675 110.184V105.982C294.675 103.76 293.927 102.792 291.573 102.792C288.955 102.792 287.261 104.046 287.261 104.046L287.833 105.674C287.833 105.674 289.351 104.53 290.979 104.53C292.585 104.53 292.497 105.63 292.497 106.884C288.779 107.368 286.601 108.622 286.601 110.712ZM290.011 111.548C289.373 111.548 288.845 111.262 288.845 110.558C288.845 109.392 289.967 108.666 292.497 108.292V110.008C291.837 110.778 291.023 111.548 290.011 111.548ZM302.568 108.16C302.568 111.042 304.57 113.264 307.672 113.264C310.048 113.264 311.192 111.988 311.192 111.988L310.488 110.448C310.488 110.448 309.41 111.482 307.826 111.482C305.956 111.482 304.834 110.008 304.834 108.05C304.834 106.026 306.044 104.552 307.848 104.552C309.3 104.552 310.334 105.476 310.334 105.476L311.192 103.848C311.192 103.848 309.982 102.792 307.804 102.792C304.526 102.792 302.568 105.41 302.568 108.16ZM313.391 113H315.569V106.598C316.229 105.938 317.659 104.684 318.759 104.684C319.507 104.684 319.947 105.212 319.947 106.62V113H322.125V105.828C322.125 103.694 321.047 102.792 319.463 102.792C317.637 102.792 316.229 104.024 315.569 104.728V97.27L313.391 97.622V113ZM325.056 113H327.234V106.84C327.652 106.18 328.554 104.992 329.654 104.992C330.094 104.992 330.534 105.168 330.534 105.168L330.974 102.968C330.974 102.968 330.666 102.792 330.116 102.792C328.598 102.792 327.586 104.2 327.19 104.882V102.88L325.056 103.232V113ZM331.894 108.072C331.894 110.712 333.676 113.264 336.976 113.264C340.562 113.264 342.146 110.25 342.146 107.83C342.146 105.278 340.364 102.792 337.064 102.792C333.5 102.792 331.894 105.586 331.894 108.072ZM334.16 107.874C334.16 105.894 335.326 104.53 337.02 104.53C339.044 104.53 339.88 106.356 339.88 108.116C339.88 110.118 338.714 111.526 337.042 111.526C335.062 111.526 334.16 109.722 334.16 107.874ZM344.499 113H346.677V106.554C347.359 105.894 348.767 104.684 349.867 104.684C350.615 104.684 351.055 105.212 351.055 106.62V113H353.233V105.828C353.233 103.694 352.155 102.792 350.593 102.792C348.767 102.792 347.337 104.002 346.633 104.772V102.88L344.499 103.232V113ZM357.309 100.68C358.101 100.68 358.695 100.108 358.695 99.338C358.695 98.568 358.101 97.996 357.309 97.996C356.539 97.996 355.945 98.568 355.945 99.338C355.945 100.108 356.539 100.68 357.309 100.68ZM356.209 113H358.387V103.056H356.209V113ZM360.812 108.16C360.812 111.042 362.814 113.264 365.916 113.264C368.292 113.264 369.436 111.988 369.436 111.988L368.732 110.448C368.732 110.448 367.654 111.482 366.07 111.482C364.2 111.482 363.078 110.008 363.078 108.05C363.078 106.026 364.288 104.552 366.092 104.552C367.544 104.552 368.578 105.476 368.578 105.476L369.436 103.848C369.436 103.848 368.226 102.792 366.048 102.792C362.77 102.792 360.812 105.41 360.812 108.16ZM378.02 100.68C378.812 100.68 379.406 100.108 379.406 99.338C379.406 98.568 378.812 97.996 378.02 97.996C377.25 97.996 376.656 98.568 376.656 99.338C376.656 100.108 377.25 100.68 378.02 100.68ZM376.92 113H379.098V103.056H376.92V113ZM382.205 113H384.383V97.27L382.205 97.622V113ZM387.49 113H389.668V97.27L387.49 97.622V113ZM392.731 113H394.909V106.554C395.591 105.894 396.999 104.684 398.099 104.684C398.847 104.684 399.287 105.212 399.287 106.62V113H401.465V105.828C401.465 103.694 400.387 102.792 398.825 102.792C396.999 102.792 395.569 104.002 394.865 104.772V102.88L392.731 103.232V113ZM403.781 108.182C403.781 110.844 405.475 113.264 408.797 113.264C411.283 113.264 412.801 111.834 412.801 111.834L412.185 110.25C412.185 110.25 410.799 111.482 409.127 111.482C407.389 111.482 406.289 110.316 406.047 108.512L411.481 107.786L412.735 107.434C412.735 104.42 411.019 102.792 408.643 102.792C405.739 102.792 403.781 105.146 403.781 108.182ZM408.489 104.486C410.227 104.486 410.359 106.51 410.359 106.51L406.047 107.06C406.245 105.608 407.081 104.486 408.489 104.486ZM414.523 112.384C414.523 112.384 415.755 113.264 417.823 113.264C420.265 113.264 421.695 112.054 421.695 110.25C421.695 107.082 416.921 107.236 416.921 105.498C416.921 104.926 417.405 104.508 418.505 104.508C419.781 104.508 420.925 105.124 420.925 105.124L421.431 103.342C421.431 103.342 420.331 102.792 418.593 102.792C415.843 102.792 414.743 104.134 414.743 105.674C414.743 108.798 419.517 108.666 419.517 110.448C419.517 111.086 418.967 111.548 417.801 111.548C416.195 111.548 414.985 110.536 414.985 110.536L414.523 112.384ZM423.374 112.384C423.374 112.384 424.606 113.264 426.674 113.264C429.116 113.264 430.546 112.054 430.546 110.25C430.546 107.082 425.772 107.236 425.772 105.498C425.772 104.926 426.256 104.508 427.356 104.508C428.632 104.508 429.776 105.124 429.776 105.124L430.282 103.342C430.282 103.342 429.182 102.792 427.444 102.792C424.694 102.792 423.594 104.134 423.594 105.674C423.594 108.798 428.368 108.666 428.368 110.448C428.368 111.086 427.818 111.548 426.652 111.548C425.046 111.548 423.836 110.536 423.836 110.536L423.374 112.384Z" fill="#333333"/>
<path d="M246.453 55H247.701L248.693 49.944H248.917L252.245 55H253.749L250.021 49.496L255.685 44.328H254.021L249.109 48.872H248.917L249.813 44.328H248.565L246.453 55ZM254.604 52.456C254.604 53.928 255.372 55.192 257.1 55.192C258.572 55.192 259.692 54.264 259.692 54.264L259.468 53.256C259.468 53.256 258.38 54.152 257.276 54.152C256.108 54.152 255.884 53.128 255.884 52.36V52.152C256.972 51.928 260.348 51.032 260.348 49C260.348 47.928 259.42 47.608 258.62 47.608C256.316 47.608 254.604 50.264 254.604 52.456ZM258.428 48.648C258.892 48.648 259.068 48.936 259.068 49.24C259.068 50.312 256.908 50.984 256.044 51.208C256.444 49.784 257.5 48.648 258.428 48.648ZM258.762 57.8L259.018 58.792C259.898 58.728 260.778 58.168 261.514 57.512C262.506 56.632 263.578 55.336 264.442 54.088C265.994 51.832 267.322 49.24 267.898 47.8H266.602C266.17 49.032 264.938 51.496 263.546 53.576C263.674 52.136 263.386 49.592 263.018 47.8H261.738C262.17 49.656 262.474 52.552 262.522 54.008C262.538 54.584 262.57 54.92 262.234 55.32C261.338 56.424 260.138 57.576 258.762 57.8ZM272.027 55H273.243L275.323 45.848L276.763 55H277.707L282.795 45.832L281.307 55H282.523L284.283 44.328H282.411L277.563 53.144L276.251 44.328H274.523L272.027 55ZM285.043 52.136C285.043 53.736 285.939 55.192 287.795 55.192C290.371 55.192 291.875 52.44 291.875 50.552C291.875 49.064 290.963 47.608 289.107 47.608C286.755 47.608 285.043 49.928 285.043 52.136ZM286.323 52.088C286.323 50.136 287.571 48.648 289.043 48.648C290.131 48.648 290.595 49.496 290.595 50.6C290.595 52.232 289.571 54.152 287.891 54.152C286.787 54.152 286.323 53.288 286.323 52.088ZM292.881 55H294.065L294.769 51.688C295.009 50.568 296.801 48.712 297.777 48.712C298.209 48.712 298.369 49.08 298.369 49.448C298.369 49.672 298.289 50.056 298.129 50.856L297.249 55H298.433L299.121 51.784C299.361 50.632 301.153 48.712 302.161 48.712C302.577 48.712 302.737 49.08 302.737 49.448C302.737 49.672 302.657 50.056 302.497 50.856L301.617 55H302.801L303.681 50.904C303.889 49.912 303.985 49.416 303.985 49.064C303.985 48.296 303.569 47.608 302.609 47.608C301.425 47.608 300.305 48.584 299.569 49.544C299.777 48.456 299.297 47.608 298.225 47.608C297.073 47.608 295.969 48.552 295.233 49.496L295.617 47.688L294.385 47.912L292.881 55ZM305.245 52.456C305.245 53.928 306.013 55.192 307.741 55.192C309.213 55.192 310.333 54.264 310.333 54.264L310.109 53.256C310.109 53.256 309.021 54.152 307.917 54.152C306.749 54.152 306.525 53.128 306.525 52.36V52.152C307.613 51.928 310.989 51.032 310.989 49C310.989 47.928 310.061 47.608 309.261 47.608C306.957 47.608 305.245 50.264 305.245 52.456ZM309.069 48.648C309.533 48.648 309.709 48.936 309.709 49.24C309.709 50.312 307.549 50.984 306.685 51.208C307.085 49.784 308.141 48.648 309.069 48.648ZM311.819 55H313.003L313.691 51.752C313.931 50.632 315.803 48.712 316.875 48.712C317.371 48.712 317.547 49.08 317.547 49.448C317.547 49.672 317.483 50.056 317.307 50.856L316.427 55H317.611L318.491 50.904C318.699 49.912 318.795 49.416 318.795 49.064C318.795 48.296 318.347 47.608 317.323 47.608C316.091 47.608 314.923 48.584 314.155 49.544L314.555 47.688L313.323 47.912L311.819 55ZM320.505 53.672C320.505 54.68 321.081 55.192 322.025 55.192C322.985 55.192 323.721 54.712 324.281 54.328L323.993 53.352C323.561 53.704 322.905 54.152 322.361 54.152C321.993 54.152 321.801 53.912 321.801 53.416C321.801 53.224 321.817 53 321.881 52.728L322.729 48.808H324.873L325.097 47.8H322.937L323.337 45.896L322.041 46.2L321.721 47.736L320.521 48.136V48.808H321.497L320.601 52.936C320.537 53.208 320.505 53.448 320.505 53.672Z" fill="black"/>
<path opacity="0.6" d="M40 343V131H544V343" stroke="#828282" stroke-width="8"/>
</svg>
