<svg width="1158" height="532" viewBox="0 0 1158 532" fill="none" xmlns="http://www.w3.org/2000/svg">
<rect x="1" y="1" width="1156" height="530" fill="#FAFAFA" stroke="#BDBDBD" stroke-width="2"/>
<path d="M83 451.496V228.991H310.14V451.496" stroke="#828282" stroke-width="4"/>
<path d="M592.906 451.496V228.991H820.046V451.496" stroke="#828282" stroke-width="4"/>
<path d="M337.953 451.496V228.991H565.093V451.496" stroke="#828282" stroke-width="4"/>
<path d="M847.859 451.496V228.991H1075V451.496" stroke="#828282" stroke-width="4"/>
<rect x="92.2695" y="240.578" width="45.1963" height="173.832" fill="#DFDDE2"/>
<rect x="602" y="241" width="45" height="142" fill="#EDE3E4"/>
<rect x="347" y="241" width="45" height="173" fill="#EFE8DF"/>
<rect x="857" y="241" width="45" height="173" fill="#D9DFE9"/>
<rect x="146.738" y="240.578" width="45.1963" height="202.804" fill="#DFDDE2"/>
<rect x="657" y="241" width="45" height="173" fill="#EDE3E4"/>
<rect x="402" y="241" width="45" height="142" fill="#EFE8DF"/>
<rect x="912" y="241" width="45" height="142" fill="#D9DFE9"/>
<rect x="256" y="241" width="45" height="160" fill="#DFDDE2"/>
<rect x="766" y="241" width="45" height="142" fill="#EDE3E4"/>
<rect x="511" y="241" width="45" height="155" fill="#EFE8DF"/>
<rect x="1021" y="241" width="45" height="173" fill="#D9DFE9"/>
<rect x="201.207" y="240.578" width="45.1963" height="180.785" fill="#DFDDE2"/>
<rect x="711" y="241" width="45" height="173" fill="#EDE3E4"/>
<rect x="456" y="241" width="45" height="173" fill="#EFE8DF"/>
<rect x="966" y="241" width="45" height="142" fill="#D9DFE9"/>
<path d="M601.99 94.894C601.99 99.448 605.554 102.264 609.998 102.264C612.176 102.264 615.08 101.582 615.08 101.582V94.256H609.778V96.148H612.836V99.998C612.836 99.998 611.538 100.306 610.262 100.306C606.742 100.306 604.344 98.04 604.344 94.718C604.344 91.748 606.258 89.02 609.998 89.02C612.396 89.02 614.156 90.12 614.156 90.12L615.036 88.162C615.036 88.162 613.078 87.062 610.108 87.062C604.916 87.062 601.99 90.758 601.99 94.894ZM617.437 94.696C617.437 98.744 620.451 102.264 625.093 102.264C629.889 102.264 633.013 98.502 633.013 94.388C633.013 90.34 630.021 87.062 625.291 87.062C620.253 87.062 617.437 90.824 617.437 94.696ZM619.835 94.586C619.835 91.77 621.749 88.998 625.225 88.998C628.701 88.998 630.615 91.726 630.615 94.564C630.615 97.424 628.613 100.328 625.159 100.328C621.683 100.328 619.835 97.314 619.835 94.586ZM634.048 102H636.314L637.744 98.084H643.596L645.048 102H647.38L641.792 87.216H639.636L634.048 102ZM640.67 90.12L642.914 96.192H638.448L640.67 90.12ZM649.602 102H658.732V100.108H651.868V87.326H649.602V102ZM664.885 104.552L665.061 106.246C665.281 106.268 665.479 106.268 665.677 106.268C669.461 106.268 672.343 104.398 672.343 101.472C672.343 99.8 671.265 98.458 669.285 97.974C670.583 97.27 671.969 95.994 671.969 94.3C671.969 92.584 670.473 91.352 668.471 91.352C666.337 91.352 664.731 92.738 664.731 92.738L665.677 94.124C665.677 94.124 666.953 93.178 668.141 93.178C669.043 93.178 669.725 93.728 669.725 94.608C669.725 96.104 667.789 97.49 666.249 97.622V99.316H666.777C668.317 99.316 670.077 99.822 670.077 101.538C670.077 103.54 668.031 104.574 665.589 104.574C665.347 104.574 665.127 104.574 664.885 104.552ZM606.456 132.11H608.634L613.892 117.326H611.582L607.6 128.744L603.618 117.326H601.22L606.456 132.11ZM614.165 129.712C614.165 131.186 615.287 132.264 617.025 132.264C618.961 132.264 619.973 131.032 620.237 130.614C620.523 131.406 621.161 132.044 622.679 132.154L623.339 130.438C623.339 130.438 622.239 130.416 622.239 129.184V124.982C622.239 122.76 621.491 121.792 619.137 121.792C616.519 121.792 614.825 123.046 614.825 123.046L615.397 124.674C615.397 124.674 616.915 123.53 618.543 123.53C620.149 123.53 620.061 124.63 620.061 125.884C616.343 126.368 614.165 127.622 614.165 129.712ZM617.575 130.548C616.937 130.548 616.409 130.262 616.409 129.558C616.409 128.392 617.531 127.666 620.061 127.292V129.008C619.401 129.778 618.587 130.548 617.575 130.548ZM625.528 132H627.706V116.27L625.528 116.622V132ZM630.703 129.272C630.703 131.406 631.803 132.264 633.409 132.264C635.235 132.264 636.621 131.098 637.259 130.416C637.369 131.142 637.589 132.176 637.589 132.176L639.701 131.978C639.701 131.978 639.261 130.152 639.261 128.942V122.056H637.083V128.744C636.467 129.316 635.235 130.372 634.113 130.372C633.299 130.372 632.881 129.822 632.881 128.436V122.056H630.703V129.272ZM641.755 127.182C641.755 129.844 643.449 132.264 646.771 132.264C649.257 132.264 650.775 130.834 650.775 130.834L650.159 129.25C650.159 129.25 648.773 130.482 647.101 130.482C645.363 130.482 644.263 129.316 644.021 127.512L649.455 126.786L650.709 126.434C650.709 123.42 648.993 121.792 646.617 121.792C643.713 121.792 641.755 124.146 641.755 127.182ZM646.463 123.486C648.201 123.486 648.333 125.51 648.333 125.51L644.021 126.06C644.219 124.608 645.055 123.486 646.463 123.486ZM658.441 132H660.619V125.532C661.257 124.894 662.621 123.684 663.699 123.684C664.425 123.684 664.821 124.212 664.821 125.62V132H666.999V125.488C667.747 124.762 668.979 123.684 669.991 123.684C670.717 123.684 671.135 124.212 671.135 125.62V132H673.291V124.828C673.291 122.694 672.257 121.792 670.717 121.792C668.979 121.792 667.615 122.958 666.889 123.75C666.581 122.386 665.679 121.792 664.425 121.792C662.665 121.792 661.257 123.002 660.575 123.75V121.88L658.441 122.232V132ZM675.086 135.476L675.768 137.214C678.1 136.95 679.552 134.86 680.41 132.748L684.722 122.056H682.478L679.904 128.876L677.286 122.056H674.976L678.826 131.494L678.298 132.682C677.704 134.068 676.538 135.234 675.086 135.476ZM685.797 131.384C685.797 131.384 687.029 132.264 689.097 132.264C691.539 132.264 692.969 131.054 692.969 129.25C692.969 126.082 688.195 126.236 688.195 124.498C688.195 123.926 688.679 123.508 689.779 123.508C691.055 123.508 692.199 124.124 692.199 124.124L692.705 122.342C692.705 122.342 691.605 121.792 689.867 121.792C687.117 121.792 686.017 123.134 686.017 124.674C686.017 127.798 690.791 127.666 690.791 129.448C690.791 130.086 690.241 130.548 689.075 130.548C687.469 130.548 686.259 129.536 686.259 129.536L685.797 131.384ZM694.693 127.182C694.693 129.844 696.387 132.264 699.709 132.264C702.195 132.264 703.713 130.834 703.713 130.834L703.097 129.25C703.097 129.25 701.711 130.482 700.039 130.482C698.301 130.482 697.201 129.316 696.959 127.512L702.393 126.786L703.647 126.434C703.647 123.42 701.931 121.792 699.555 121.792C696.651 121.792 694.693 124.146 694.693 127.182ZM699.401 123.486C701.139 123.486 701.271 125.51 701.271 125.51L696.959 126.06C697.157 124.608 697.993 123.486 699.401 123.486ZM706.138 132H708.316V116.27L706.138 116.622V132ZM710.433 123.706H711.995V132H714.173V123.706H716.923V122.056H714.173V120.868C714.173 118.536 715.229 117.722 716.395 117.722C717.473 117.722 718.441 118.426 718.441 118.426L719.299 116.754C719.299 116.754 718.155 115.918 716.417 115.918C713.821 115.918 711.995 117.744 711.995 121V121.968L710.433 122.54V123.706ZM723.546 127.182C723.546 129.844 725.24 132.264 728.562 132.264C731.048 132.264 732.566 130.834 732.566 130.834L731.95 129.25C731.95 129.25 730.564 130.482 728.892 130.482C727.154 130.482 726.054 129.316 725.812 127.512L731.246 126.786L732.5 126.434C732.5 123.42 730.784 121.792 728.408 121.792C725.504 121.792 723.546 124.146 723.546 127.182ZM728.254 123.486C729.992 123.486 730.124 125.51 730.124 125.51L725.812 126.06C726.01 124.608 726.846 123.486 728.254 123.486ZM734.947 132H737.125V125.554C737.807 124.894 739.215 123.684 740.315 123.684C741.063 123.684 741.503 124.212 741.503 125.62V132H743.681V124.828C743.681 122.694 742.603 121.792 741.041 121.792C739.215 121.792 737.785 123.002 737.081 123.772V121.88L734.947 122.232V132ZM745.975 127.072C745.975 129.712 747.757 132.264 751.057 132.264C754.643 132.264 756.227 129.25 756.227 126.83C756.227 124.278 754.445 121.792 751.145 121.792C747.581 121.792 745.975 124.586 745.975 127.072ZM748.241 126.874C748.241 124.894 749.407 123.53 751.101 123.53C753.125 123.53 753.961 125.356 753.961 127.116C753.961 129.118 752.795 130.526 751.123 130.526C749.143 130.526 748.241 128.722 748.241 126.874ZM758.514 129.272C758.514 131.406 759.614 132.264 761.22 132.264C763.046 132.264 764.432 131.098 765.07 130.416C765.18 131.142 765.4 132.176 765.4 132.176L767.512 131.978C767.512 131.978 767.072 130.152 767.072 128.942V122.056H764.894V128.744C764.278 129.316 763.046 130.372 761.924 130.372C761.11 130.372 760.692 129.822 760.692 128.436V122.056H758.514V129.272ZM770.16 130.24C770.16 130.922 770.798 131.318 771.788 131.648C770.732 132.198 769.258 133.144 769.258 134.596C769.258 136.334 771.414 137.214 773.614 137.214C776.606 137.214 779.048 135.52 779.048 133.518C779.048 131.692 777.046 131.142 775.286 130.702C773.218 130.196 772.25 129.998 772.25 129.602C772.25 129.36 772.602 129.096 773.064 128.788C773.284 128.832 773.526 128.832 773.79 128.832C775.924 128.832 778.19 127.666 778.19 125.488C778.19 124.608 777.772 124.014 777.464 123.662C777.728 123.706 778.036 123.728 778.278 123.728H779.466L779.312 121.99C779.312 121.99 778.652 122.21 777.992 122.21H776.848C775.748 122.21 775.176 121.792 773.966 121.792C771.744 121.792 769.742 123.046 769.742 125.268C769.742 126.61 770.468 127.776 771.722 128.392C770.908 128.854 770.16 129.514 770.16 130.24ZM774.032 132.22C775.88 132.704 776.914 132.99 776.914 133.848C776.914 134.838 775.506 135.63 773.746 135.63C772.492 135.63 771.216 135.234 771.216 134.244C771.216 133.254 772.426 132.594 773.372 132.066C773.592 132.11 773.812 132.154 774.032 132.22ZM773.944 127.292C772.536 127.292 771.876 126.28 771.876 125.334C771.876 124.3 772.624 123.332 773.944 123.332C775.352 123.332 776.034 124.476 776.034 125.444C776.034 126.566 775.154 127.292 773.944 127.292ZM781.354 132H783.532V125.598C784.192 124.938 785.622 123.684 786.722 123.684C787.47 123.684 787.91 124.212 787.91 125.62V132H790.088V124.828C790.088 122.694 789.01 121.792 787.426 121.792C785.6 121.792 784.192 123.024 783.532 123.728V116.27L781.354 116.622V132ZM798.877 129.294C798.877 131.34 799.999 132.264 801.715 132.264C803.475 132.264 804.773 131.208 804.773 131.208L804.223 129.558C803.959 129.712 803.035 130.438 802.199 130.438C801.473 130.438 801.055 129.954 801.055 128.744V123.706H804.201V122.056H801.055V119.24L798.921 119.702V121.968L797.403 122.518V123.706H798.877V129.294ZM805.981 127.072C805.981 129.712 807.763 132.264 811.063 132.264C814.649 132.264 816.233 129.25 816.233 126.83C816.233 124.278 814.451 121.792 811.151 121.792C807.587 121.792 805.981 124.586 805.981 127.072ZM808.247 126.874C808.247 124.894 809.413 123.53 811.107 123.53C813.131 123.53 813.967 125.356 813.967 127.116C813.967 129.118 812.801 130.526 811.129 130.526C809.149 130.526 808.247 128.722 808.247 126.874ZM603.068 159.294C603.068 161.34 604.19 162.264 605.906 162.264C607.666 162.264 608.964 161.208 608.964 161.208L608.414 159.558C608.15 159.712 607.226 160.438 606.39 160.438C605.664 160.438 605.246 159.954 605.246 158.744V153.706H608.392V152.056H605.246V149.24L603.112 149.702V151.968L601.594 152.518V153.706H603.068V159.294ZM610.018 159.712C610.018 161.186 611.14 162.264 612.878 162.264C614.814 162.264 615.826 161.032 616.09 160.614C616.376 161.406 617.014 162.044 618.532 162.154L619.192 160.438C619.192 160.438 618.092 160.416 618.092 159.184V154.982C618.092 152.76 617.344 151.792 614.99 151.792C612.372 151.792 610.678 153.046 610.678 153.046L611.25 154.674C611.25 154.674 612.768 153.53 614.396 153.53C616.002 153.53 615.914 154.63 615.914 155.884C612.196 156.368 610.018 157.622 610.018 159.712ZM613.428 160.548C612.79 160.548 612.262 160.262 612.262 159.558C612.262 158.392 613.384 157.666 615.914 157.292V159.008C615.254 159.778 614.44 160.548 613.428 160.548ZM621.382 162H623.56V157.292H623.868L627.828 162H630.622L625.782 156.412L630.314 152.056H627.476L623.868 155.686H623.56V146.27L621.382 146.622V162ZM631.163 157.182C631.163 159.844 632.857 162.264 636.179 162.264C638.665 162.264 640.183 160.834 640.183 160.834L639.567 159.25C639.567 159.25 638.181 160.482 636.509 160.482C634.771 160.482 633.671 159.316 633.429 157.512L638.863 156.786L640.117 156.434C640.117 153.42 638.401 151.792 636.025 151.792C633.121 151.792 631.163 154.146 631.163 157.182ZM635.871 153.486C637.609 153.486 637.741 155.51 637.741 155.51L633.429 156.06C633.627 154.608 634.463 153.486 635.871 153.486ZM647.212 157.16C647.212 160.042 649.214 162.264 652.316 162.264C654.692 162.264 655.836 160.988 655.836 160.988L655.132 159.448C655.132 159.448 654.054 160.482 652.47 160.482C650.6 160.482 649.478 159.008 649.478 157.05C649.478 155.026 650.688 153.552 652.492 153.552C653.944 153.552 654.978 154.476 654.978 154.476L655.836 152.848C655.836 152.848 654.626 151.792 652.448 151.792C649.17 151.792 647.212 154.41 647.212 157.16ZM657.18 157.072C657.18 159.712 658.962 162.264 662.262 162.264C665.848 162.264 667.432 159.25 667.432 156.83C667.432 154.278 665.65 151.792 662.35 151.792C658.786 151.792 657.18 154.586 657.18 157.072ZM659.446 156.874C659.446 154.894 660.612 153.53 662.306 153.53C664.33 153.53 665.166 155.356 665.166 157.116C665.166 159.118 664 160.526 662.328 160.526C660.348 160.526 659.446 158.722 659.446 156.874ZM669.785 162H671.963V155.554C672.645 154.894 674.053 153.684 675.153 153.684C675.901 153.684 676.341 154.212 676.341 155.62V162H678.519V154.828C678.519 152.694 677.441 151.792 675.879 151.792C674.053 151.792 672.623 153.002 671.919 153.772V151.88L669.785 152.232V162ZM680.791 161.384C680.791 161.384 682.023 162.264 684.091 162.264C686.533 162.264 687.963 161.054 687.963 159.25C687.963 156.082 683.189 156.236 683.189 154.498C683.189 153.926 683.673 153.508 684.773 153.508C686.049 153.508 687.193 154.124 687.193 154.124L687.699 152.342C687.699 152.342 686.599 151.792 684.861 151.792C682.111 151.792 681.011 153.134 681.011 154.674C681.011 157.798 685.785 157.666 685.785 159.448C685.785 160.086 685.235 160.548 684.069 160.548C682.463 160.548 681.253 159.536 681.253 159.536L680.791 161.384ZM691.447 149.68C692.239 149.68 692.833 149.108 692.833 148.338C692.833 147.568 692.239 146.996 691.447 146.996C690.677 146.996 690.083 147.568 690.083 148.338C690.083 149.108 690.677 149.68 691.447 149.68ZM690.347 162H692.525V152.056H690.347V162ZM694.928 161.384C694.928 161.384 696.16 162.264 698.228 162.264C700.67 162.264 702.1 161.054 702.1 159.25C702.1 156.082 697.326 156.236 697.326 154.498C697.326 153.926 697.81 153.508 698.91 153.508C700.186 153.508 701.33 154.124 701.33 154.124L701.836 152.342C701.836 152.342 700.736 151.792 698.998 151.792C696.248 151.792 695.148 153.134 695.148 154.674C695.148 157.798 699.922 157.666 699.922 159.448C699.922 160.086 699.372 160.548 698.206 160.548C696.6 160.548 695.39 159.536 695.39 159.536L694.928 161.384ZM705.011 159.294C705.011 161.34 706.133 162.264 707.849 162.264C709.609 162.264 710.907 161.208 710.907 161.208L710.357 159.558C710.093 159.712 709.169 160.438 708.333 160.438C707.607 160.438 707.189 159.954 707.189 158.744V153.706H710.335V152.056H707.189V149.24L705.055 149.702V151.968L703.537 152.518V153.706H705.011V159.294ZM712.138 157.182C712.138 159.844 713.832 162.264 717.154 162.264C719.64 162.264 721.158 160.834 721.158 160.834L720.542 159.25C720.542 159.25 719.156 160.482 717.484 160.482C715.746 160.482 714.646 159.316 714.404 157.512L719.838 156.786L721.092 156.434C721.092 153.42 719.376 151.792 717 151.792C714.096 151.792 712.138 154.146 712.138 157.182ZM716.846 153.486C718.584 153.486 718.716 155.51 718.716 155.51L714.404 156.06C714.602 154.608 715.438 153.486 716.846 153.486ZM723.539 162H725.717V155.554C726.399 154.894 727.807 153.684 728.907 153.684C729.655 153.684 730.095 154.212 730.095 155.62V162H732.273V154.828C732.273 152.694 731.195 151.792 729.633 151.792C727.807 151.792 726.377 153.002 725.673 153.772V151.88L723.539 152.232V162ZM735.777 159.294C735.777 161.34 736.899 162.264 738.615 162.264C740.375 162.264 741.673 161.208 741.673 161.208L741.123 159.558C740.859 159.712 739.935 160.438 739.099 160.438C738.373 160.438 737.955 159.954 737.955 158.744V153.706H741.101V152.056H737.955V149.24L735.821 149.702V151.968L734.303 152.518V153.706H735.777V159.294ZM748.013 159.712C748.013 161.186 749.135 162.264 750.873 162.264C752.809 162.264 753.821 161.032 754.085 160.614C754.371 161.406 755.009 162.044 756.527 162.154L757.187 160.438C757.187 160.438 756.087 160.416 756.087 159.184V154.982C756.087 152.76 755.339 151.792 752.985 151.792C750.367 151.792 748.673 153.046 748.673 153.046L749.245 154.674C749.245 154.674 750.763 153.53 752.391 153.53C753.997 153.53 753.909 154.63 753.909 155.884C750.191 156.368 748.013 157.622 748.013 159.712ZM751.423 160.548C750.785 160.548 750.257 160.262 750.257 159.558C750.257 158.392 751.379 157.666 753.909 157.292V159.008C753.249 159.778 752.435 160.548 751.423 160.548ZM758.694 157.16C758.694 160.042 760.696 162.264 763.798 162.264C766.174 162.264 767.318 160.988 767.318 160.988L766.614 159.448C766.614 159.448 765.536 160.482 763.952 160.482C762.082 160.482 760.96 159.008 760.96 157.05C760.96 155.026 762.17 153.552 763.974 153.552C765.426 153.552 766.46 154.476 766.46 154.476L767.318 152.848C767.318 152.848 766.108 151.792 763.93 151.792C760.652 151.792 758.694 154.41 758.694 157.16ZM770.045 159.294C770.045 161.34 771.167 162.264 772.883 162.264C774.643 162.264 775.941 161.208 775.941 161.208L775.391 159.558C775.127 159.712 774.203 160.438 773.367 160.438C772.641 160.438 772.223 159.954 772.223 158.744V153.706H775.369V152.056H772.223V149.24L770.089 149.702V151.968L768.571 152.518V153.706H770.045V159.294ZM778.931 149.68C779.723 149.68 780.317 149.108 780.317 148.338C780.317 147.568 779.723 146.996 778.931 146.996C778.161 146.996 777.567 147.568 777.567 148.338C777.567 149.108 778.161 149.68 778.931 149.68ZM777.831 162H780.009V152.056H777.831V162ZM782.434 157.072C782.434 159.712 784.216 162.264 787.516 162.264C791.102 162.264 792.686 159.25 792.686 156.83C792.686 154.278 790.904 151.792 787.604 151.792C784.04 151.792 782.434 154.586 782.434 157.072ZM784.7 156.874C784.7 154.894 785.866 153.53 787.56 153.53C789.584 153.53 790.42 155.356 790.42 157.116C790.42 159.118 789.254 160.526 787.582 160.526C785.602 160.526 784.7 158.722 784.7 156.874ZM795.039 162H797.217V155.554C797.899 154.894 799.307 153.684 800.407 153.684C801.155 153.684 801.595 154.212 801.595 155.62V162H803.773V154.828C803.773 152.694 802.695 151.792 801.133 151.792C799.307 151.792 797.877 153.002 797.173 153.772V151.88L795.039 152.232V162ZM806.045 161.384C806.045 161.384 807.277 162.264 809.345 162.264C811.787 162.264 813.217 161.054 813.217 159.25C813.217 156.082 808.443 156.236 808.443 154.498C808.443 153.926 808.927 153.508 810.027 153.508C811.303 153.508 812.447 154.124 812.447 154.124L812.953 152.342C812.953 152.342 811.853 151.792 810.115 151.792C807.365 151.792 806.265 153.134 806.265 154.674C806.265 157.798 811.039 157.666 811.039 159.448C811.039 160.086 810.489 160.548 809.323 160.548C807.717 160.548 806.507 159.536 806.507 159.536L806.045 161.384ZM603.068 189.294C603.068 191.34 604.19 192.264 605.906 192.264C607.666 192.264 608.964 191.208 608.964 191.208L608.414 189.558C608.15 189.712 607.226 190.438 606.39 190.438C605.664 190.438 605.246 189.954 605.246 188.744V183.706H608.392V182.056H605.246V179.24L603.112 179.702V181.968L601.594 182.518V183.706H603.068V189.294ZM610.172 187.072C610.172 189.712 611.954 192.264 615.254 192.264C618.84 192.264 620.424 189.25 620.424 186.83C620.424 184.278 618.642 181.792 615.342 181.792C611.778 181.792 610.172 184.586 610.172 187.072ZM612.438 186.874C612.438 184.894 613.604 183.53 615.298 183.53C617.322 183.53 618.158 185.356 618.158 187.116C618.158 189.118 616.992 190.526 615.32 190.526C613.34 190.526 612.438 188.722 612.438 186.874ZM628.062 191.78C628.81 191.956 630.504 192.264 631.692 192.264C635.454 192.264 637.258 189.58 637.258 186.676C637.258 183.948 635.674 181.792 632.924 181.792C631.56 181.792 630.746 182.342 630.24 182.914V176.27L628.062 176.622V191.78ZM632.572 183.552C634.024 183.552 635.014 184.762 635.014 186.83C635.014 189.294 633.628 190.614 631.736 190.614C630.922 190.614 630.24 190.394 630.24 190.394V184.586C630.702 184.168 631.538 183.552 632.572 183.552ZM639.048 187.182C639.048 189.844 640.742 192.264 644.064 192.264C646.55 192.264 648.068 190.834 648.068 190.834L647.452 189.25C647.452 189.25 646.066 190.482 644.394 190.482C642.656 190.482 641.556 189.316 641.314 187.512L646.748 186.786L648.002 186.434C648.002 183.42 646.286 181.792 643.91 181.792C641.006 181.792 639.048 184.146 639.048 187.182ZM643.756 183.486C645.494 183.486 645.626 185.51 645.626 185.51L641.314 186.06C641.512 184.608 642.348 183.486 643.756 183.486ZM651.021 189.294C651.021 191.34 652.143 192.264 653.859 192.264C655.619 192.264 656.917 191.208 656.917 191.208L656.367 189.558C656.103 189.712 655.179 190.438 654.343 190.438C653.617 190.438 653.199 189.954 653.199 188.744V183.706H656.345V182.056H653.199V179.24L651.065 179.702V181.968L649.547 182.518V183.706H651.021V189.294ZM659.336 189.294C659.336 191.34 660.458 192.264 662.174 192.264C663.934 192.264 665.232 191.208 665.232 191.208L664.682 189.558C664.418 189.712 663.494 190.438 662.658 190.438C661.932 190.438 661.514 189.954 661.514 188.744V183.706H664.66V182.056H661.514V179.24L659.38 179.702V181.968L657.862 182.518V183.706H659.336V189.294ZM666.462 187.182C666.462 189.844 668.156 192.264 671.478 192.264C673.964 192.264 675.482 190.834 675.482 190.834L674.866 189.25C674.866 189.25 673.48 190.482 671.808 190.482C670.07 190.482 668.97 189.316 668.728 187.512L674.162 186.786L675.416 186.434C675.416 183.42 673.7 181.792 671.324 181.792C668.42 181.792 666.462 184.146 666.462 187.182ZM671.17 183.486C672.908 183.486 673.04 185.51 673.04 185.51L668.728 186.06C668.926 184.608 669.762 183.486 671.17 183.486ZM677.863 192H680.041V185.84C680.459 185.18 681.361 183.992 682.461 183.992C682.901 183.992 683.341 184.168 683.341 184.168L683.781 181.968C683.781 181.968 683.473 181.792 682.923 181.792C681.405 181.792 680.393 183.2 679.997 183.882V181.88L677.863 182.232V192ZM690.797 192H692.975V185.532C693.613 184.894 694.977 183.684 696.055 183.684C696.781 183.684 697.177 184.212 697.177 185.62V192H699.355V185.488C700.103 184.762 701.335 183.684 702.347 183.684C703.073 183.684 703.491 184.212 703.491 185.62V192H705.647V184.828C705.647 182.694 704.613 181.792 703.073 181.792C701.335 181.792 699.971 182.958 699.245 183.75C698.937 182.386 698.035 181.792 696.781 181.792C695.021 181.792 693.613 183.002 692.931 183.75V181.88L690.797 182.232V192ZM707.442 195.476L708.124 197.214C710.456 196.95 711.908 194.86 712.766 192.748L717.078 182.056H714.834L712.26 188.876L709.642 182.056H707.332L711.182 191.494L710.654 192.682C710.06 194.068 708.894 195.234 707.442 195.476ZM724.142 192H726.32V185.598C726.98 184.938 728.41 183.684 729.51 183.684C730.258 183.684 730.698 184.212 730.698 185.62V192H732.876V184.828C732.876 182.694 731.798 181.792 730.214 181.792C728.388 181.792 726.98 183.024 726.32 183.728V176.27L724.142 176.622V192ZM735.191 187.182C735.191 189.844 736.885 192.264 740.207 192.264C742.693 192.264 744.211 190.834 744.211 190.834L743.595 189.25C743.595 189.25 742.209 190.482 740.537 190.482C738.799 190.482 737.699 189.316 737.457 187.512L742.891 186.786L744.145 186.434C744.145 183.42 742.429 181.792 740.053 181.792C737.149 181.792 735.191 184.146 735.191 187.182ZM739.899 183.486C741.637 183.486 741.769 185.51 741.769 185.51L737.457 186.06C737.655 184.608 738.491 183.486 739.899 183.486ZM745.8 189.712C745.8 191.186 746.922 192.264 748.66 192.264C750.596 192.264 751.608 191.032 751.872 190.614C752.158 191.406 752.796 192.044 754.314 192.154L754.974 190.438C754.974 190.438 753.874 190.416 753.874 189.184V184.982C753.874 182.76 753.126 181.792 750.772 181.792C748.154 181.792 746.46 183.046 746.46 183.046L747.032 184.674C747.032 184.674 748.55 183.53 750.178 183.53C751.784 183.53 751.696 184.63 751.696 185.884C747.978 186.368 745.8 187.622 745.8 189.712ZM749.21 190.548C748.572 190.548 748.044 190.262 748.044 189.558C748.044 188.392 749.166 187.666 751.696 187.292V189.008C751.036 189.778 750.222 190.548 749.21 190.548ZM757.163 192H759.341V176.27L757.163 176.622V192ZM762.976 189.294C762.976 191.34 764.098 192.264 765.814 192.264C767.574 192.264 768.872 191.208 768.872 191.208L768.322 189.558C768.058 189.712 767.134 190.438 766.298 190.438C765.572 190.438 765.154 189.954 765.154 188.744V183.706H768.3V182.056H765.154V179.24L763.02 179.702V181.968L761.502 182.518V183.706H762.976V189.294ZM770.763 192H772.941V185.598C773.601 184.938 775.031 183.684 776.131 183.684C776.879 183.684 777.319 184.212 777.319 185.62V192H779.497V184.828C779.497 182.694 778.419 181.792 776.835 181.792C775.009 181.792 773.601 183.024 772.941 183.728V176.27L770.763 176.622V192ZM782.142 190.79C782.142 191.604 782.802 192.264 783.616 192.264C784.43 192.264 785.112 191.604 785.112 190.79C785.112 189.954 784.43 189.294 783.616 189.294C782.802 189.294 782.142 189.954 782.142 190.79Z" fill="#333333"/>
<path d="M346.99 94.894C346.99 99.448 350.554 102.264 354.998 102.264C357.176 102.264 360.08 101.582 360.08 101.582V94.256H354.778V96.148H357.836V99.998C357.836 99.998 356.538 100.306 355.262 100.306C351.742 100.306 349.344 98.04 349.344 94.718C349.344 91.748 351.258 89.02 354.998 89.02C357.396 89.02 359.156 90.12 359.156 90.12L360.036 88.162C360.036 88.162 358.078 87.062 355.108 87.062C349.916 87.062 346.99 90.758 346.99 94.894ZM362.437 94.696C362.437 98.744 365.451 102.264 370.093 102.264C374.889 102.264 378.013 98.502 378.013 94.388C378.013 90.34 375.021 87.062 370.291 87.062C365.253 87.062 362.437 90.824 362.437 94.696ZM364.835 94.586C364.835 91.77 366.749 88.998 370.225 88.998C373.701 88.998 375.615 91.726 375.615 94.564C375.615 97.424 373.613 100.328 370.159 100.328C366.683 100.328 364.835 97.314 364.835 94.586ZM379.048 102H381.314L382.744 98.084H388.596L390.048 102H392.38L386.792 87.216H384.636L379.048 102ZM385.67 90.12L387.914 96.192H383.448L385.67 90.12ZM394.602 102H403.732V100.108H396.868V87.326H394.602V102ZM410.413 102H418.531V100.24H413.515C415.341 98.722 417.607 96.698 417.607 94.476C417.607 92.694 416.133 91.352 414.043 91.352C411.931 91.352 410.325 92.738 410.325 92.738L411.205 94.124C411.205 94.124 412.371 93.178 413.647 93.178C414.659 93.178 415.341 93.838 415.341 94.784C415.341 97.138 410.325 100.68 410.325 100.68L410.413 102ZM348.002 132H353.062C356.01 132 358.078 130.328 358.078 127.732C358.078 125.4 356.384 124.432 355.526 124.08C356.296 123.486 357.286 122.408 357.286 120.846C357.286 119.152 356.098 117.326 352.314 117.326H348.002V132ZM350.268 130.108V125.422H352.732C354.778 125.422 355.68 126.412 355.68 127.776C355.68 129.162 354.778 130.108 352.732 130.108H350.268ZM350.268 119.218H351.984C354.272 119.218 354.888 120.12 354.888 121.22C354.888 122.804 353.48 123.552 353.48 123.552H350.268V119.218ZM359.943 127.182C359.943 129.844 361.637 132.264 364.959 132.264C367.445 132.264 368.963 130.834 368.963 130.834L368.347 129.25C368.347 129.25 366.961 130.482 365.289 130.482C363.551 130.482 362.451 129.316 362.209 127.512L367.643 126.786L368.897 126.434C368.897 123.42 367.181 121.792 364.805 121.792C361.901 121.792 359.943 124.146 359.943 127.182ZM364.651 123.486C366.389 123.486 366.521 125.51 366.521 125.51L362.209 126.06C362.407 124.608 363.243 123.486 364.651 123.486ZM371.388 132H373.566V116.27L371.388 116.622V132ZM377.773 119.68C378.565 119.68 379.159 119.108 379.159 118.338C379.159 117.568 378.565 116.996 377.773 116.996C377.003 116.996 376.409 117.568 376.409 118.338C376.409 119.108 377.003 119.68 377.773 119.68ZM376.673 132H378.851V122.056H376.673V132ZM381.298 127.182C381.298 129.844 382.992 132.264 386.314 132.264C388.8 132.264 390.318 130.834 390.318 130.834L389.702 129.25C389.702 129.25 388.316 130.482 386.644 130.482C384.906 130.482 383.806 129.316 383.564 127.512L388.998 126.786L390.252 126.434C390.252 123.42 388.536 121.792 386.16 121.792C383.256 121.792 381.298 124.146 381.298 127.182ZM386.006 123.486C387.744 123.486 387.876 125.51 387.876 125.51L383.564 126.06C383.762 124.608 384.598 123.486 386.006 123.486ZM395.097 132.088H397.121L401.213 122.056H398.991L396.197 129.272L393.777 122.056H391.489L395.097 132.088ZM402.224 127.182C402.224 129.844 403.918 132.264 407.24 132.264C409.726 132.264 411.244 130.834 411.244 130.834L410.628 129.25C410.628 129.25 409.242 130.482 407.57 130.482C405.832 130.482 404.732 129.316 404.49 127.512L409.924 126.786L411.178 126.434C411.178 123.42 409.462 121.792 407.086 121.792C404.182 121.792 402.224 124.146 402.224 127.182ZM406.932 123.486C408.67 123.486 408.802 125.51 408.802 125.51L404.49 126.06C404.688 124.608 405.524 123.486 406.932 123.486ZM419.482 129.294C419.482 131.34 420.604 132.264 422.32 132.264C424.08 132.264 425.378 131.208 425.378 131.208L424.828 129.558C424.564 129.712 423.64 130.438 422.804 130.438C422.078 130.438 421.66 129.954 421.66 128.744V123.706H424.806V122.056H421.66V119.24L419.526 119.702V121.968L418.008 122.518V123.706H419.482V129.294ZM427.269 132H429.447V125.598C430.107 124.938 431.537 123.684 432.637 123.684C433.385 123.684 433.825 124.212 433.825 125.62V132H436.003V124.828C436.003 122.694 434.925 121.792 433.341 121.792C431.515 121.792 430.107 123.024 429.447 123.728V116.27L427.269 116.622V132ZM438.142 129.712C438.142 131.186 439.264 132.264 441.002 132.264C442.938 132.264 443.95 131.032 444.214 130.614C444.5 131.406 445.138 132.044 446.656 132.154L447.316 130.438C447.316 130.438 446.216 130.416 446.216 129.184V124.982C446.216 122.76 445.468 121.792 443.114 121.792C440.496 121.792 438.802 123.046 438.802 123.046L439.374 124.674C439.374 124.674 440.892 123.53 442.52 123.53C444.126 123.53 444.038 124.63 444.038 125.884C440.32 126.368 438.142 127.622 438.142 129.712ZM441.552 130.548C440.914 130.548 440.386 130.262 440.386 129.558C440.386 128.392 441.508 127.666 444.038 127.292V129.008C443.378 129.778 442.564 130.548 441.552 130.548ZM449.947 129.294C449.947 131.34 451.069 132.264 452.785 132.264C454.545 132.264 455.843 131.208 455.843 131.208L455.293 129.558C455.029 129.712 454.105 130.438 453.269 130.438C452.543 130.438 452.125 129.954 452.125 128.744V123.706H455.271V122.056H452.125V119.24L449.991 119.702V121.968L448.473 122.518V123.706H449.947V129.294ZM467.485 122.144L469.399 121.066C468.365 119.966 468.079 119.35 468.079 118.646C468.079 117.876 468.453 117.194 469.289 116.556L468.453 115.676C467.045 116.754 466.319 118.074 466.319 119.394C466.319 120.34 466.649 121.242 467.485 122.144ZM463.635 122.144L465.549 121.066C464.515 119.966 464.229 119.35 464.229 118.646C464.229 117.876 464.603 117.194 465.439 116.556L464.603 115.676C463.195 116.754 462.469 118.074 462.469 119.394C462.469 120.34 462.799 121.242 463.635 122.144ZM472.096 132H474.362V117.326H472.096V132ZM482.532 127.16C482.532 130.042 484.534 132.264 487.636 132.264C490.012 132.264 491.156 130.988 491.156 130.988L490.452 129.448C490.452 129.448 489.374 130.482 487.79 130.482C485.92 130.482 484.798 129.008 484.798 127.05C484.798 125.026 486.008 123.552 487.812 123.552C489.264 123.552 490.298 124.476 490.298 124.476L491.156 122.848C491.156 122.848 489.946 121.792 487.768 121.792C484.49 121.792 482.532 124.41 482.532 127.16ZM492.518 129.712C492.518 131.186 493.64 132.264 495.378 132.264C497.314 132.264 498.326 131.032 498.59 130.614C498.876 131.406 499.514 132.044 501.032 132.154L501.692 130.438C501.692 130.438 500.592 130.416 500.592 129.184V124.982C500.592 122.76 499.844 121.792 497.49 121.792C494.872 121.792 493.178 123.046 493.178 123.046L493.75 124.674C493.75 124.674 495.268 123.53 496.896 123.53C498.502 123.53 498.414 124.63 498.414 125.884C494.696 126.368 492.518 127.622 492.518 129.712ZM495.928 130.548C495.29 130.548 494.762 130.262 494.762 129.558C494.762 128.392 495.884 127.666 498.414 127.292V129.008C497.754 129.778 496.94 130.548 495.928 130.548ZM503.838 132H506.016V125.554C506.698 124.894 508.106 123.684 509.206 123.684C509.954 123.684 510.394 124.212 510.394 125.62V132H512.572V124.828C512.572 122.694 511.494 121.792 509.932 121.792C508.106 121.792 506.676 123.002 505.972 123.772V121.88L503.838 122.232V132ZM520.173 127.336C520.173 130.064 521.845 132.264 524.441 132.264C526.025 132.264 527.037 131.494 527.565 130.636C527.675 131.34 527.873 132.154 527.873 132.154L529.963 132C529.963 132 529.523 130.152 529.523 128.942V116.27L527.345 116.622V122.122C527.059 122.012 526.399 121.792 525.497 121.792C521.977 121.792 520.173 124.498 520.173 127.336ZM524.815 130.526C523.407 130.526 522.461 129.272 522.461 127.204C522.461 124.828 523.715 123.508 525.607 123.508C526.509 123.508 527.301 123.838 527.345 124.828V128.92C527.037 129.382 526.157 130.526 524.815 130.526ZM531.967 127.072C531.967 129.712 533.749 132.264 537.049 132.264C540.635 132.264 542.219 129.25 542.219 126.83C542.219 124.278 540.437 121.792 537.137 121.792C533.573 121.792 531.967 124.586 531.967 127.072ZM534.233 126.874C534.233 124.894 535.399 123.53 537.093 123.53C539.117 123.53 539.953 125.356 539.953 127.116C539.953 129.118 538.787 130.526 537.115 130.526C535.135 130.526 534.233 128.722 534.233 126.874ZM348.068 159.294C348.068 161.34 349.19 162.264 350.906 162.264C352.666 162.264 353.964 161.208 353.964 161.208L353.414 159.558C353.15 159.712 352.226 160.438 351.39 160.438C350.664 160.438 350.246 159.954 350.246 158.744V153.706H353.392V152.056H350.246V149.24L348.112 149.702V151.968L346.594 152.518V153.706H348.068V159.294ZM355.854 162H358.032V155.598C358.692 154.938 360.122 153.684 361.222 153.684C361.97 153.684 362.41 154.212 362.41 155.62V162H364.588V154.828C364.588 152.694 363.51 151.792 361.926 151.792C360.1 151.792 358.692 153.024 358.032 153.728V146.27L355.854 146.622V162ZM368.663 149.68C369.455 149.68 370.049 149.108 370.049 148.338C370.049 147.568 369.455 146.996 368.663 146.996C367.893 146.996 367.299 147.568 367.299 148.338C367.299 149.108 367.893 149.68 368.663 149.68ZM367.563 162H369.741V152.056H367.563V162ZM372.145 161.384C372.145 161.384 373.377 162.264 375.445 162.264C377.887 162.264 379.317 161.054 379.317 159.25C379.317 156.082 374.543 156.236 374.543 154.498C374.543 153.926 375.027 153.508 376.127 153.508C377.403 153.508 378.547 154.124 378.547 154.124L379.053 152.342C379.053 152.342 377.953 151.792 376.215 151.792C373.465 151.792 372.365 153.134 372.365 154.674C372.365 157.798 377.139 157.666 377.139 159.448C377.139 160.086 376.589 160.548 375.423 160.548C373.817 160.548 372.607 159.536 372.607 159.536L372.145 161.384ZM385.66 152.144C387.068 151.044 387.794 149.746 387.794 148.404C387.794 147.458 387.464 146.556 386.628 145.676L384.714 146.732C385.748 147.832 386.034 148.448 386.034 149.152C386.034 149.922 385.66 150.604 384.824 151.242L385.66 152.144ZM381.81 152.144C383.218 151.044 383.944 149.746 383.944 148.404C383.944 147.458 383.614 146.556 382.778 145.676L380.842 146.732C381.898 147.832 382.184 148.448 382.184 149.152C382.184 149.922 381.81 150.604 380.974 151.242L381.81 152.144ZM397.518 162.088H399.63L402.182 155.004L404.47 162.088H406.604L410.168 152.056H407.946L405.548 159.536L403.216 152.056H401.324L398.75 159.58L396.572 152.056H394.328L397.518 162.088ZM413.136 149.68C413.928 149.68 414.522 149.108 414.522 148.338C414.522 147.568 413.928 146.996 413.136 146.996C412.366 146.996 411.772 147.568 411.772 148.338C411.772 149.108 412.366 149.68 413.136 149.68ZM412.036 162H414.214V152.056H412.036V162ZM417.849 159.294C417.849 161.34 418.971 162.264 420.687 162.264C422.447 162.264 423.745 161.208 423.745 161.208L423.195 159.558C422.931 159.712 422.007 160.438 421.171 160.438C420.445 160.438 420.027 159.954 420.027 158.744V153.706H423.173V152.056H420.027V149.24L417.893 149.702V151.968L416.375 152.518V153.706H417.849V159.294ZM425.636 162H427.814V155.598C428.474 154.938 429.904 153.684 431.004 153.684C431.752 153.684 432.192 154.212 432.192 155.62V162H434.37V154.828C434.37 152.694 433.292 151.792 431.708 151.792C429.882 151.792 428.474 153.024 427.814 153.728V146.27L425.636 146.622V162ZM443.158 159.294C443.158 161.34 444.28 162.264 445.996 162.264C447.756 162.264 449.054 161.208 449.054 161.208L448.504 159.558C448.24 159.712 447.316 160.438 446.48 160.438C445.754 160.438 445.336 159.954 445.336 158.744V153.706H448.482V152.056H445.336V149.24L443.202 149.702V151.968L441.684 152.518V153.706H443.158V159.294ZM450.944 162H453.122V155.598C453.782 154.938 455.212 153.684 456.312 153.684C457.06 153.684 457.5 154.212 457.5 155.62V162H459.678V154.828C459.678 152.694 458.6 151.792 457.016 151.792C455.19 151.792 453.782 153.024 453.122 153.728V146.27L450.944 146.622V162ZM461.993 157.182C461.993 159.844 463.687 162.264 467.009 162.264C469.495 162.264 471.013 160.834 471.013 160.834L470.397 159.25C470.397 159.25 469.011 160.482 467.339 160.482C465.601 160.482 464.501 159.316 464.259 157.512L469.693 156.786L470.947 156.434C470.947 153.42 469.231 151.792 466.855 151.792C463.951 151.792 461.993 154.146 461.993 157.182ZM466.701 153.486C468.439 153.486 468.571 155.51 468.571 155.51L464.259 156.06C464.457 154.608 465.293 153.486 466.701 153.486ZM478.68 162H480.858V155.84C481.276 155.18 482.178 153.992 483.278 153.992C483.718 153.992 484.158 154.168 484.158 154.168L484.598 151.968C484.598 151.968 484.29 151.792 483.74 151.792C482.222 151.792 481.21 153.2 480.814 153.882V151.88L478.68 152.232V162ZM487.472 149.68C488.264 149.68 488.858 149.108 488.858 148.338C488.858 147.568 488.264 146.996 487.472 146.996C486.702 146.996 486.108 147.568 486.108 148.338C486.108 149.108 486.702 149.68 487.472 149.68ZM486.372 162H488.55V152.056H486.372V162ZM491.591 160.24C491.591 160.922 492.229 161.318 493.219 161.648C492.163 162.198 490.689 163.144 490.689 164.596C490.689 166.334 492.845 167.214 495.045 167.214C498.037 167.214 500.479 165.52 500.479 163.518C500.479 161.692 498.477 161.142 496.717 160.702C494.649 160.196 493.681 159.998 493.681 159.602C493.681 159.36 494.033 159.096 494.495 158.788C494.715 158.832 494.957 158.832 495.221 158.832C497.355 158.832 499.621 157.666 499.621 155.488C499.621 154.608 499.203 154.014 498.895 153.662C499.159 153.706 499.467 153.728 499.709 153.728H500.897L500.743 151.99C500.743 151.99 500.083 152.21 499.423 152.21H498.279C497.179 152.21 496.607 151.792 495.397 151.792C493.175 151.792 491.173 153.046 491.173 155.268C491.173 156.61 491.899 157.776 493.153 158.392C492.339 158.854 491.591 159.514 491.591 160.24ZM495.463 162.22C497.311 162.704 498.345 162.99 498.345 163.848C498.345 164.838 496.937 165.63 495.177 165.63C493.923 165.63 492.647 165.234 492.647 164.244C492.647 163.254 493.857 162.594 494.803 162.066C495.023 162.11 495.243 162.154 495.463 162.22ZM495.375 157.292C493.967 157.292 493.307 156.28 493.307 155.334C493.307 154.3 494.055 153.332 495.375 153.332C496.783 153.332 497.465 154.476 497.465 155.444C497.465 156.566 496.585 157.292 495.375 157.292ZM502.786 162H504.964V155.598C505.624 154.938 507.054 153.684 508.154 153.684C508.902 153.684 509.342 154.212 509.342 155.62V162H511.52V154.828C511.52 152.694 510.442 151.792 508.858 151.792C507.032 151.792 505.624 153.024 504.964 153.728V146.27L502.786 146.622V162ZM515.023 159.294C515.023 161.34 516.145 162.264 517.861 162.264C519.621 162.264 520.919 161.208 520.919 161.208L520.369 159.558C520.105 159.712 519.181 160.438 518.345 160.438C517.619 160.438 517.201 159.954 517.201 158.744V153.706H520.347V152.056H517.201V149.24L515.067 149.702V151.968L513.549 152.518V153.706H515.023V159.294ZM346.836 191.384C346.836 191.384 348.068 192.264 350.136 192.264C352.578 192.264 354.008 191.054 354.008 189.25C354.008 186.082 349.234 186.236 349.234 184.498C349.234 183.926 349.718 183.508 350.818 183.508C352.094 183.508 353.238 184.124 353.238 184.124L353.744 182.342C353.744 182.342 352.644 181.792 350.906 181.792C348.156 181.792 347.056 183.134 347.056 184.674C347.056 187.798 351.83 187.666 351.83 189.448C351.83 190.086 351.28 190.548 350.114 190.548C348.508 190.548 347.298 189.536 347.298 189.536L346.836 191.384ZM356.282 189.272C356.282 191.406 357.382 192.264 358.988 192.264C360.814 192.264 362.2 191.098 362.838 190.416C362.948 191.142 363.168 192.176 363.168 192.176L365.28 191.978C365.28 191.978 364.84 190.152 364.84 188.942V182.056H362.662V188.744C362.046 189.316 360.814 190.372 359.692 190.372C358.878 190.372 358.46 189.822 358.46 188.436V182.056H356.282V189.272ZM367.949 197.126L370.127 196.774V191.736C370.545 192.044 371.293 192.264 372.217 192.264C375.385 192.264 377.233 189.668 377.233 186.72C377.233 184.014 375.649 181.792 373.031 181.792C371.469 181.792 370.523 182.606 370.061 183.464V181.88L367.949 182.232V197.126ZM372.657 183.596C373.999 183.596 374.945 184.806 374.945 186.874C374.945 189.25 373.691 190.548 371.821 190.548C370.787 190.548 370.127 190.174 370.127 189.426V185.202C370.413 184.784 371.337 183.596 372.657 183.596ZM379.615 197.126L381.793 196.774V191.736C382.211 192.044 382.959 192.264 383.883 192.264C387.051 192.264 388.899 189.668 388.899 186.72C388.899 184.014 387.315 181.792 384.697 181.792C383.135 181.792 382.189 182.606 381.727 183.464V181.88L379.615 182.232V197.126ZM384.323 183.596C385.665 183.596 386.611 184.806 386.611 186.874C386.611 189.25 385.357 190.548 383.487 190.548C382.453 190.548 381.793 190.174 381.793 189.426V185.202C382.079 184.784 383.003 183.596 384.323 183.596ZM390.643 187.072C390.643 189.712 392.425 192.264 395.725 192.264C399.311 192.264 400.895 189.25 400.895 186.83C400.895 184.278 399.113 181.792 395.813 181.792C392.249 181.792 390.643 184.586 390.643 187.072ZM392.909 186.874C392.909 184.894 394.075 183.53 395.769 183.53C397.793 183.53 398.629 185.356 398.629 187.116C398.629 189.118 397.463 190.526 395.791 190.526C393.811 190.526 392.909 188.722 392.909 186.874ZM403.248 192H405.426V185.84C405.844 185.18 406.746 183.992 407.846 183.992C408.286 183.992 408.726 184.168 408.726 184.168L409.166 181.968C409.166 181.968 408.858 181.792 408.308 181.792C406.79 181.792 405.778 183.2 405.382 183.882V181.88L403.248 182.232V192ZM411.468 189.294C411.468 191.34 412.59 192.264 414.306 192.264C416.066 192.264 417.364 191.208 417.364 191.208L416.814 189.558C416.55 189.712 415.626 190.438 414.79 190.438C414.064 190.438 413.646 189.954 413.646 188.744V183.706H416.792V182.056H413.646V179.24L411.512 179.702V181.968L409.994 182.518V183.706H411.468V189.294ZM418.925 190.79C418.925 191.604 419.585 192.264 420.399 192.264C421.213 192.264 421.895 191.604 421.895 190.79C421.895 189.954 421.213 189.294 420.399 189.294C419.585 189.294 418.925 189.954 418.925 190.79Z" fill="#333333"/>
<path d="M91.99 94.894C91.99 99.448 95.554 102.264 99.998 102.264C102.176 102.264 105.08 101.582 105.08 101.582V94.256H99.778V96.148H102.836V99.998C102.836 99.998 101.538 100.306 100.262 100.306C96.742 100.306 94.344 98.04 94.344 94.718C94.344 91.748 96.258 89.02 99.998 89.02C102.396 89.02 104.156 90.12 104.156 90.12L105.036 88.162C105.036 88.162 103.078 87.062 100.108 87.062C94.916 87.062 91.99 90.758 91.99 94.894ZM107.437 94.696C107.437 98.744 110.451 102.264 115.093 102.264C119.889 102.264 123.013 98.502 123.013 94.388C123.013 90.34 120.021 87.062 115.291 87.062C110.253 87.062 107.437 90.824 107.437 94.696ZM109.835 94.586C109.835 91.77 111.749 88.998 115.225 88.998C118.701 88.998 120.615 91.726 120.615 94.564C120.615 97.424 118.613 100.328 115.159 100.328C111.683 100.328 109.835 97.314 109.835 94.586ZM124.048 102H126.314L127.744 98.084H133.596L135.048 102H137.38L131.792 87.216H129.636L124.048 102ZM130.67 90.12L132.914 96.192H128.448L130.67 90.12ZM139.602 102H148.732V100.108H141.868V87.326H139.602V102ZM155.457 102H162.343V100.24H160.077V91.616H155.589V93.354H157.921V100.24H155.457V102ZM93.002 132H95.268V126.104H97.534L101.45 132H104.134L99.822 125.576C101.296 124.894 102.638 123.508 102.638 121.506C102.638 119.284 101.098 117.326 97.314 117.326H93.002V132ZM95.268 124.212V119.218H96.94C99.382 119.218 100.24 120.34 100.24 121.66C100.24 123.288 98.92 124.212 97.27 124.212H95.268ZM104.921 127.182C104.921 129.844 106.615 132.264 109.937 132.264C112.423 132.264 113.941 130.834 113.941 130.834L113.325 129.25C113.325 129.25 111.939 130.482 110.267 130.482C108.529 130.482 107.429 129.316 107.187 127.512L112.621 126.786L113.875 126.434C113.875 123.42 112.159 121.792 109.783 121.792C106.879 121.792 104.921 124.146 104.921 127.182ZM109.629 123.486C111.367 123.486 111.499 125.51 111.499 125.51L107.187 126.06C107.385 124.608 108.221 123.486 109.629 123.486ZM115.53 129.712C115.53 131.186 116.652 132.264 118.39 132.264C120.326 132.264 121.338 131.032 121.602 130.614C121.888 131.406 122.526 132.044 124.044 132.154L124.704 130.438C124.704 130.438 123.604 130.416 123.604 129.184V124.982C123.604 122.76 122.856 121.792 120.502 121.792C117.884 121.792 116.19 123.046 116.19 123.046L116.762 124.674C116.762 124.674 118.28 123.53 119.908 123.53C121.514 123.53 121.426 124.63 121.426 125.884C117.708 126.368 115.53 127.622 115.53 129.712ZM118.94 130.548C118.302 130.548 117.774 130.262 117.774 129.558C117.774 128.392 118.896 127.666 121.426 127.292V129.008C120.766 129.778 119.952 130.548 118.94 130.548ZM126.894 132H129.072V116.27L126.894 116.622V132ZM133.279 119.68C134.071 119.68 134.665 119.108 134.665 118.338C134.665 117.568 134.071 116.996 133.279 116.996C132.509 116.996 131.915 117.568 131.915 118.338C131.915 119.108 132.509 119.68 133.279 119.68ZM132.179 132H134.357V122.056H132.179V132ZM136.782 132H144.768V130.24H139.532L144.592 123.376V122.056H136.958V123.816H141.732L136.782 130.68V132ZM146.407 127.182C146.407 129.844 148.101 132.264 151.423 132.264C153.909 132.264 155.427 130.834 155.427 130.834L154.811 129.25C154.811 129.25 153.425 130.482 151.753 130.482C150.015 130.482 148.915 129.316 148.673 127.512L154.107 126.786L155.361 126.434C155.361 123.42 153.645 121.792 151.269 121.792C148.365 121.792 146.407 124.146 146.407 127.182ZM151.115 123.486C152.853 123.486 152.985 125.51 152.985 125.51L148.673 126.06C148.871 124.608 149.707 123.486 151.115 123.486ZM163.666 129.294C163.666 131.34 164.788 132.264 166.504 132.264C168.264 132.264 169.562 131.208 169.562 131.208L169.012 129.558C168.748 129.712 167.824 130.438 166.988 130.438C166.262 130.438 165.844 129.954 165.844 128.744V123.706H168.99V122.056H165.844V119.24L163.71 119.702V121.968L162.192 122.518V123.706H163.666V129.294ZM171.452 132H173.63V125.598C174.29 124.938 175.72 123.684 176.82 123.684C177.568 123.684 178.008 124.212 178.008 125.62V132H180.186V124.828C180.186 122.694 179.108 121.792 177.524 121.792C175.698 121.792 174.29 123.024 173.63 123.728V116.27L171.452 116.622V132ZM182.325 129.712C182.325 131.186 183.447 132.264 185.185 132.264C187.121 132.264 188.133 131.032 188.397 130.614C188.683 131.406 189.321 132.044 190.839 132.154L191.499 130.438C191.499 130.438 190.399 130.416 190.399 129.184V124.982C190.399 122.76 189.651 121.792 187.297 121.792C184.679 121.792 182.985 123.046 182.985 123.046L183.557 124.674C183.557 124.674 185.075 123.53 186.703 123.53C188.309 123.53 188.221 124.63 188.221 125.884C184.503 126.368 182.325 127.622 182.325 129.712ZM185.735 130.548C185.097 130.548 184.569 130.262 184.569 129.558C184.569 128.392 185.691 127.666 188.221 127.292V129.008C187.561 129.778 186.747 130.548 185.735 130.548ZM194.131 129.294C194.131 131.34 195.253 132.264 196.969 132.264C198.729 132.264 200.027 131.208 200.027 131.208L199.477 129.558C199.213 129.712 198.289 130.438 197.453 130.438C196.727 130.438 196.309 129.954 196.309 128.744V123.706H199.455V122.056H196.309V119.24L194.175 119.702V121.968L192.657 122.518V123.706H194.131V129.294ZM207.664 132H209.93V117.326H207.664V132ZM218.1 127.16C218.1 130.042 220.102 132.264 223.204 132.264C225.58 132.264 226.724 130.988 226.724 130.988L226.02 129.448C226.02 129.448 224.942 130.482 223.358 130.482C221.488 130.482 220.366 129.008 220.366 127.05C220.366 125.026 221.576 123.552 223.38 123.552C224.832 123.552 225.866 124.476 225.866 124.476L226.724 122.848C226.724 122.848 225.514 121.792 223.336 121.792C220.058 121.792 218.1 124.41 218.1 127.16ZM228.087 129.712C228.087 131.186 229.209 132.264 230.947 132.264C232.883 132.264 233.895 131.032 234.159 130.614C234.445 131.406 235.083 132.044 236.601 132.154L237.261 130.438C237.261 130.438 236.161 130.416 236.161 129.184V124.982C236.161 122.76 235.413 121.792 233.059 121.792C230.441 121.792 228.747 123.046 228.747 123.046L229.319 124.674C229.319 124.674 230.837 123.53 232.465 123.53C234.071 123.53 233.983 124.63 233.983 125.884C230.265 126.368 228.087 127.622 228.087 129.712ZM231.497 130.548C230.859 130.548 230.331 130.262 230.331 129.558C230.331 128.392 231.453 127.666 233.983 127.292V129.008C233.323 129.778 232.509 130.548 231.497 130.548ZM239.406 132H241.584V125.554C242.266 124.894 243.674 123.684 244.774 123.684C245.522 123.684 245.962 124.212 245.962 125.62V132H248.14V124.828C248.14 122.694 247.062 121.792 245.5 121.792C243.674 121.792 242.244 123.002 241.54 123.772V121.88L239.406 122.232V132ZM256.401 132H258.579V116.27L256.401 116.622V132ZM262.786 119.68C263.578 119.68 264.172 119.108 264.172 118.338C264.172 117.568 263.578 116.996 262.786 116.996C262.016 116.996 261.422 117.568 261.422 118.338C261.422 119.108 262.016 119.68 262.786 119.68ZM261.686 132H263.864V122.056H261.686V132ZM269.326 132.088H271.35L275.442 122.056H273.22L270.426 129.272L268.006 122.056H265.718L269.326 132.088ZM276.452 127.182C276.452 129.844 278.146 132.264 281.468 132.264C283.954 132.264 285.472 130.834 285.472 130.834L284.856 129.25C284.856 129.25 283.47 130.482 281.798 130.482C280.06 130.482 278.96 129.316 278.718 127.512L284.152 126.786L285.406 126.434C285.406 123.42 283.69 121.792 281.314 121.792C278.41 121.792 276.452 124.146 276.452 127.182ZM281.16 123.486C282.898 123.486 283.03 125.51 283.03 125.51L278.718 126.06C278.916 124.608 279.752 123.486 281.16 123.486ZM292.347 129.712C292.347 131.186 293.469 132.264 295.207 132.264C297.143 132.264 298.155 131.032 298.419 130.614C298.705 131.406 299.343 132.044 300.861 132.154L301.521 130.438C301.521 130.438 300.421 130.416 300.421 129.184V124.982C300.421 122.76 299.673 121.792 297.319 121.792C294.701 121.792 293.007 123.046 293.007 123.046L293.579 124.674C293.579 124.674 295.097 123.53 296.725 123.53C298.331 123.53 298.243 124.63 298.243 125.884C294.525 126.368 292.347 127.622 292.347 129.712ZM295.757 130.548C295.119 130.548 294.591 130.262 294.591 129.558C294.591 128.392 295.713 127.666 298.243 127.292V129.008C297.583 129.778 296.769 130.548 295.757 130.548ZM91.55 153.706H93.112V162H95.29V153.706H98.04V152.056H95.29V150.868C95.29 148.536 96.346 147.722 97.512 147.722C98.59 147.722 99.558 148.426 99.558 148.426L100.416 146.754C100.416 146.754 99.272 145.918 97.534 145.918C94.938 145.918 93.112 147.744 93.112 151V151.968L91.55 152.54V153.706ZM99.928 159.272C99.928 161.406 101.028 162.264 102.634 162.264C104.46 162.264 105.846 161.098 106.484 160.416C106.594 161.142 106.814 162.176 106.814 162.176L108.926 161.978C108.926 161.978 108.486 160.152 108.486 158.942V152.056H106.308V158.744C105.692 159.316 104.46 160.372 103.338 160.372C102.524 160.372 102.106 159.822 102.106 158.436V152.056H99.928V159.272ZM111.64 162H113.818V146.27L111.64 146.622V162ZM116.925 162H119.103V146.27L116.925 146.622V162ZM127.495 162H129.673V146.27L127.495 146.622V162ZM133.88 149.68C134.672 149.68 135.266 149.108 135.266 148.338C135.266 147.568 134.672 146.996 133.88 146.996C133.11 146.996 132.516 147.568 132.516 148.338C132.516 149.108 133.11 149.68 133.88 149.68ZM132.78 162H134.958V152.056H132.78V162ZM137.075 153.706H138.637V162H140.815V153.706H143.565V152.056H140.815V150.868C140.815 148.536 141.871 147.722 143.037 147.722C144.115 147.722 145.083 148.426 145.083 148.426L145.941 146.754C145.941 146.754 144.797 145.918 143.059 145.918C140.463 145.918 138.637 147.744 138.637 151V151.968L137.075 152.54V153.706ZM144.753 157.182C144.753 159.844 146.447 162.264 149.769 162.264C152.255 162.264 153.773 160.834 153.773 160.834L153.157 159.25C153.157 159.25 151.771 160.482 150.099 160.482C148.361 160.482 147.261 159.316 147.019 157.512L152.453 156.786L153.707 156.434C153.707 153.42 151.991 151.792 149.615 151.792C146.711 151.792 144.753 154.146 144.753 157.182ZM149.461 153.486C151.199 153.486 151.331 155.51 151.331 155.51L147.019 156.06C147.217 154.608 148.053 153.486 149.461 153.486ZM160.823 157.182C160.823 159.844 162.517 162.264 165.839 162.264C168.325 162.264 169.843 160.834 169.843 160.834L169.227 159.25C169.227 159.25 167.841 160.482 166.169 160.482C164.431 160.482 163.331 159.316 163.089 157.512L168.523 156.786L169.777 156.434C169.777 153.42 168.061 151.792 165.685 151.792C162.781 151.792 160.823 154.146 160.823 157.182ZM165.531 153.486C167.269 153.486 167.401 155.51 167.401 155.51L163.089 156.06C163.287 154.608 164.123 153.486 165.531 153.486ZM174.623 162.088H176.647L180.739 152.056H178.517L175.723 159.272L173.303 152.056H171.015L174.623 162.088ZM181.749 157.182C181.749 159.844 183.443 162.264 186.765 162.264C189.251 162.264 190.769 160.834 190.769 160.834L190.153 159.25C190.153 159.25 188.767 160.482 187.095 160.482C185.357 160.482 184.257 159.316 184.015 157.512L189.449 156.786L190.703 156.434C190.703 153.42 188.987 151.792 186.611 151.792C183.707 151.792 181.749 154.146 181.749 157.182ZM186.457 153.486C188.195 153.486 188.327 155.51 188.327 155.51L184.015 156.06C184.213 154.608 185.049 153.486 186.457 153.486ZM193.15 162H195.328V155.554C196.01 154.894 197.418 153.684 198.518 153.684C199.266 153.684 199.706 154.212 199.706 155.62V162H201.884V154.828C201.884 152.694 200.806 151.792 199.244 151.792C197.418 151.792 195.988 153.002 195.284 153.772V151.88L193.15 152.232V162ZM212.191 162.088H214.303L216.855 155.004L219.143 162.088H221.277L224.841 152.056H222.619L220.221 159.536L217.889 152.056H215.997L213.423 159.58L211.245 152.056H209.001L212.191 162.088ZM227.81 149.68C228.602 149.68 229.196 149.108 229.196 148.338C229.196 147.568 228.602 146.996 227.81 146.996C227.04 146.996 226.446 147.568 226.446 148.338C226.446 149.108 227.04 149.68 227.81 149.68ZM226.71 162H228.888V152.056H226.71V162ZM232.523 159.294C232.523 161.34 233.645 162.264 235.361 162.264C237.121 162.264 238.419 161.208 238.419 161.208L237.869 159.558C237.605 159.712 236.681 160.438 235.845 160.438C235.119 160.438 234.701 159.954 234.701 158.744V153.706H237.847V152.056H234.701V149.24L232.567 149.702V151.968L231.049 152.518V153.706H232.523V159.294ZM240.31 162H242.488V155.598C243.148 154.938 244.578 153.684 245.678 153.684C246.426 153.684 246.866 154.212 246.866 155.62V162H249.044V154.828C249.044 152.694 247.966 151.792 246.382 151.792C244.556 151.792 243.148 153.024 242.488 153.728V146.27L240.31 146.622V162ZM256.468 159.712C256.468 161.186 257.59 162.264 259.328 162.264C261.264 162.264 262.276 161.032 262.54 160.614C262.826 161.406 263.464 162.044 264.982 162.154L265.642 160.438C265.642 160.438 264.542 160.416 264.542 159.184V154.982C264.542 152.76 263.794 151.792 261.44 151.792C258.822 151.792 257.128 153.046 257.128 153.046L257.7 154.674C257.7 154.674 259.218 153.53 260.846 153.53C262.452 153.53 262.364 154.63 262.364 155.884C258.646 156.368 256.468 157.622 256.468 159.712ZM259.878 160.548C259.24 160.548 258.712 160.262 258.712 159.558C258.712 158.392 259.834 157.666 262.364 157.292V159.008C261.704 159.778 260.89 160.548 259.878 160.548ZM91.858 187.16C91.858 190.042 93.86 192.264 96.962 192.264C99.338 192.264 100.482 190.988 100.482 190.988L99.778 189.448C99.778 189.448 98.7 190.482 97.116 190.482C95.246 190.482 94.124 189.008 94.124 187.05C94.124 185.026 95.334 183.552 97.138 183.552C98.59 183.552 99.624 184.476 99.624 184.476L100.482 182.848C100.482 182.848 99.272 181.792 97.094 181.792C93.816 181.792 91.858 184.41 91.858 187.16ZM102.681 192H104.859V185.598C105.519 184.938 106.949 183.684 108.049 183.684C108.797 183.684 109.237 184.212 109.237 185.62V192H111.415V184.828C111.415 182.694 110.337 181.792 108.753 181.792C106.927 181.792 105.519 183.024 104.859 183.728V176.27L102.681 176.622V192ZM114.346 192H116.524V185.84C116.942 185.18 117.844 183.992 118.944 183.992C119.384 183.992 119.824 184.168 119.824 184.168L120.264 181.968C120.264 181.968 119.956 181.792 119.406 181.792C117.888 181.792 116.876 183.2 116.48 183.882V181.88L114.346 182.232V192ZM121.184 187.072C121.184 189.712 122.966 192.264 126.266 192.264C129.852 192.264 131.436 189.25 131.436 186.83C131.436 184.278 129.654 181.792 126.354 181.792C122.79 181.792 121.184 184.586 121.184 187.072ZM123.45 186.874C123.45 184.894 124.616 183.53 126.31 183.53C128.334 183.53 129.17 185.356 129.17 187.116C129.17 189.118 128.004 190.526 126.332 190.526C124.352 190.526 123.45 188.722 123.45 186.874ZM133.789 192H135.967V185.554C136.649 184.894 138.057 183.684 139.157 183.684C139.905 183.684 140.345 184.212 140.345 185.62V192H142.523V184.828C142.523 182.694 141.445 181.792 139.883 181.792C138.057 181.792 136.627 183.002 135.923 183.772V181.88L133.789 182.232V192ZM146.599 179.68C147.391 179.68 147.985 179.108 147.985 178.338C147.985 177.568 147.391 176.996 146.599 176.996C145.829 176.996 145.235 177.568 145.235 178.338C145.235 179.108 145.829 179.68 146.599 179.68ZM145.499 192H147.677V182.056H145.499V192ZM150.102 187.16C150.102 190.042 152.104 192.264 155.206 192.264C157.582 192.264 158.726 190.988 158.726 190.988L158.022 189.448C158.022 189.448 156.944 190.482 155.36 190.482C153.49 190.482 152.368 189.008 152.368 187.05C152.368 185.026 153.578 183.552 155.382 183.552C156.834 183.552 157.868 184.476 157.868 184.476L158.726 182.848C158.726 182.848 157.516 181.792 155.338 181.792C152.06 181.792 150.102 184.41 150.102 187.16ZM167.31 179.68C168.102 179.68 168.696 179.108 168.696 178.338C168.696 177.568 168.102 176.996 167.31 176.996C166.54 176.996 165.946 177.568 165.946 178.338C165.946 179.108 166.54 179.68 167.31 179.68ZM166.21 192H168.388V182.056H166.21V192ZM171.495 192H173.673V176.27L171.495 176.622V192ZM176.78 192H178.958V176.27L176.78 176.622V192ZM182.021 192H184.199V185.554C184.881 184.894 186.289 183.684 187.389 183.684C188.137 183.684 188.577 184.212 188.577 185.62V192H190.755V184.828C190.755 182.694 189.677 181.792 188.115 181.792C186.289 181.792 184.859 183.002 184.155 183.772V181.88L182.021 182.232V192ZM193.071 187.182C193.071 189.844 194.765 192.264 198.087 192.264C200.573 192.264 202.091 190.834 202.091 190.834L201.475 189.25C201.475 189.25 200.089 190.482 198.417 190.482C196.679 190.482 195.579 189.316 195.337 187.512L200.771 186.786L202.025 186.434C202.025 183.42 200.309 181.792 197.933 181.792C195.029 181.792 193.071 184.146 193.071 187.182ZM197.779 183.486C199.517 183.486 199.649 185.51 199.649 185.51L195.337 186.06C195.535 184.608 196.371 183.486 197.779 183.486ZM203.813 191.384C203.813 191.384 205.045 192.264 207.113 192.264C209.555 192.264 210.985 191.054 210.985 189.25C210.985 186.082 206.211 186.236 206.211 184.498C206.211 183.926 206.695 183.508 207.795 183.508C209.071 183.508 210.215 184.124 210.215 184.124L210.721 182.342C210.721 182.342 209.621 181.792 207.883 181.792C205.133 181.792 204.033 183.134 204.033 184.674C204.033 187.798 208.807 187.666 208.807 189.448C208.807 190.086 208.257 190.548 207.091 190.548C205.485 190.548 204.275 189.536 204.275 189.536L203.813 191.384ZM212.664 191.384C212.664 191.384 213.896 192.264 215.964 192.264C218.406 192.264 219.836 191.054 219.836 189.25C219.836 186.082 215.062 186.236 215.062 184.498C215.062 183.926 215.546 183.508 216.646 183.508C217.922 183.508 219.066 184.124 219.066 184.124L219.572 182.342C219.572 182.342 218.472 181.792 216.734 181.792C213.984 181.792 212.884 183.134 212.884 184.674C212.884 187.798 217.658 187.666 217.658 189.448C217.658 190.086 217.108 190.548 215.942 190.548C214.336 190.548 213.126 189.536 213.126 189.536L212.664 191.384ZM221.89 190.79C221.89 191.604 222.55 192.264 223.364 192.264C224.178 192.264 224.86 191.604 224.86 190.79C224.86 189.954 224.178 189.294 223.364 189.294C222.55 189.294 221.89 189.954 221.89 190.79Z" fill="#333333"/>
<path d="M856.99 94.894C856.99 99.448 860.554 102.264 864.998 102.264C867.176 102.264 870.08 101.582 870.08 101.582V94.256H864.778V96.148H867.836V99.998C867.836 99.998 866.538 100.306 865.262 100.306C861.742 100.306 859.344 98.04 859.344 94.718C859.344 91.748 861.258 89.02 864.998 89.02C867.396 89.02 869.156 90.12 869.156 90.12L870.036 88.162C870.036 88.162 868.078 87.062 865.108 87.062C859.916 87.062 856.99 90.758 856.99 94.894ZM872.437 94.696C872.437 98.744 875.451 102.264 880.093 102.264C884.889 102.264 888.013 98.502 888.013 94.388C888.013 90.34 885.021 87.062 880.291 87.062C875.253 87.062 872.437 90.824 872.437 94.696ZM874.835 94.586C874.835 91.77 876.749 88.998 880.225 88.998C883.701 88.998 885.615 91.726 885.615 94.564C885.615 97.424 883.613 100.328 880.159 100.328C876.683 100.328 874.835 97.314 874.835 94.586ZM889.048 102H891.314L892.744 98.084H898.596L900.048 102H902.38L896.792 87.216H894.636L889.048 102ZM895.67 90.12L897.914 96.192H893.448L895.67 90.12ZM904.602 102H913.732V100.108H906.868V87.326H904.602V102ZM919.929 101.56H926.111V106.246H928.245V101.56H930.291V99.866H928.245V91.44H926.177L919.929 100.108V101.56ZM922.151 99.866L926.111 94.256V99.866H922.151ZM858.002 132H860.268V125.62H865.438V123.662H860.268V119.218H866.802V117.326H858.002V132ZM867.536 127.182C867.536 129.844 869.23 132.264 872.552 132.264C875.038 132.264 876.556 130.834 876.556 130.834L875.94 129.25C875.94 129.25 874.554 130.482 872.882 130.482C871.144 130.482 870.044 129.316 869.802 127.512L875.236 126.786L876.49 126.434C876.49 123.42 874.774 121.792 872.398 121.792C869.494 121.792 867.536 124.146 867.536 127.182ZM872.244 123.486C873.982 123.486 874.114 125.51 874.114 125.51L869.802 126.06C870 124.608 870.836 123.486 872.244 123.486ZM878.321 127.182C878.321 129.844 880.015 132.264 883.337 132.264C885.823 132.264 887.341 130.834 887.341 130.834L886.725 129.25C886.725 129.25 885.339 130.482 883.667 130.482C881.929 130.482 880.829 129.316 880.587 127.512L886.021 126.786L887.275 126.434C887.275 123.42 885.559 121.792 883.183 121.792C880.279 121.792 878.321 124.146 878.321 127.182ZM883.029 123.486C884.767 123.486 884.899 125.51 884.899 125.51L880.587 126.06C880.785 124.608 881.621 123.486 883.029 123.486ZM889.767 132H891.945V116.27L889.767 116.622V132ZM900.337 132H902.515V125.598C903.175 124.938 904.605 123.684 905.705 123.684C906.453 123.684 906.893 124.212 906.893 125.62V132H909.071V124.828C909.071 122.694 907.993 121.792 906.409 121.792C904.583 121.792 903.175 123.024 902.515 123.728V116.27L900.337 116.622V132ZM911.364 127.072C911.364 129.712 913.146 132.264 916.446 132.264C920.032 132.264 921.616 129.25 921.616 126.83C921.616 124.278 919.834 121.792 916.534 121.792C912.97 121.792 911.364 124.586 911.364 127.072ZM913.63 126.874C913.63 124.894 914.796 123.53 916.49 123.53C918.514 123.53 919.35 125.356 919.35 127.116C919.35 129.118 918.184 130.526 916.512 130.526C914.532 130.526 913.63 128.722 913.63 126.874ZM923.969 137.126L926.147 136.774V131.736C926.565 132.044 927.313 132.264 928.237 132.264C931.405 132.264 933.253 129.668 933.253 126.72C933.253 124.014 931.669 121.792 929.051 121.792C927.489 121.792 926.543 122.606 926.081 123.464V121.88L923.969 122.232V137.126ZM928.677 123.596C930.019 123.596 930.965 124.806 930.965 126.874C930.965 129.25 929.711 130.548 927.841 130.548C926.807 130.548 926.147 130.174 926.147 129.426V125.202C926.433 124.784 927.357 123.596 928.677 123.596ZM935.019 127.182C935.019 129.844 936.713 132.264 940.035 132.264C942.521 132.264 944.039 130.834 944.039 130.834L943.423 129.25C943.423 129.25 942.037 130.482 940.365 130.482C938.627 130.482 937.527 129.316 937.285 127.512L942.719 126.786L943.973 126.434C943.973 123.42 942.257 121.792 939.881 121.792C936.977 121.792 935.019 124.146 935.019 127.182ZM939.727 123.486C941.465 123.486 941.597 125.51 941.597 125.51L937.285 126.06C937.483 124.608 938.319 123.486 939.727 123.486ZM945.474 123.706H947.036V132H949.214V123.706H951.964V122.056H949.214V120.868C949.214 118.536 950.27 117.722 951.436 117.722C952.514 117.722 953.482 118.426 953.482 118.426L954.34 116.754C954.34 116.754 953.196 115.918 951.458 115.918C948.862 115.918 947.036 117.744 947.036 121V121.968L945.474 122.54V123.706ZM953.852 129.272C953.852 131.406 954.952 132.264 956.558 132.264C958.384 132.264 959.77 131.098 960.408 130.416C960.518 131.142 960.738 132.176 960.738 132.176L962.85 131.978C962.85 131.978 962.41 130.152 962.41 128.942V122.056H960.232V128.744C959.616 129.316 958.384 130.372 957.262 130.372C956.448 130.372 956.03 129.822 956.03 128.436V122.056H953.852V129.272ZM965.563 132H967.741V116.27L965.563 116.622V132ZM976.662 129.294C976.662 131.34 977.784 132.264 979.5 132.264C981.26 132.264 982.558 131.208 982.558 131.208L982.008 129.558C981.744 129.712 980.82 130.438 979.984 130.438C979.258 130.438 978.84 129.954 978.84 128.744V123.706H981.986V122.056H978.84V119.24L976.706 119.702V121.968L975.188 122.518V123.706H976.662V129.294ZM984.448 132H986.626V125.598C987.286 124.938 988.716 123.684 989.816 123.684C990.564 123.684 991.004 124.212 991.004 125.62V132H993.182V124.828C993.182 122.694 992.104 121.792 990.52 121.792C988.694 121.792 987.286 123.024 986.626 123.728V116.27L984.448 116.622V132ZM995.321 129.712C995.321 131.186 996.443 132.264 998.181 132.264C1000.12 132.264 1001.13 131.032 1001.39 130.614C1001.68 131.406 1002.32 132.044 1003.84 132.154L1004.5 130.438C1004.5 130.438 1003.4 130.416 1003.4 129.184V124.982C1003.4 122.76 1002.65 121.792 1000.29 121.792C997.675 121.792 995.981 123.046 995.981 123.046L996.553 124.674C996.553 124.674 998.071 123.53 999.699 123.53C1001.31 123.53 1001.22 124.63 1001.22 125.884C997.499 126.368 995.321 127.622 995.321 129.712ZM998.731 130.548C998.093 130.548 997.565 130.262 997.565 129.558C997.565 128.392 998.687 127.666 1001.22 127.292V129.008C1000.56 129.778 999.743 130.548 998.731 130.548ZM1007.13 129.294C1007.13 131.34 1008.25 132.264 1009.96 132.264C1011.72 132.264 1013.02 131.208 1013.02 131.208L1012.47 129.558C1012.21 129.712 1011.28 130.438 1010.45 130.438C1009.72 130.438 1009.3 129.954 1009.3 128.744V123.706H1012.45V122.056H1009.3V119.24L1007.17 119.702V121.968L1005.65 122.518V123.706H1007.13V129.294ZM1020.66 132H1022.93V117.326H1020.66V132ZM1031.1 127.16C1031.1 130.042 1033.1 132.264 1036.2 132.264C1038.58 132.264 1039.72 130.988 1039.72 130.988L1039.02 129.448C1039.02 129.448 1037.94 130.482 1036.35 130.482C1034.48 130.482 1033.36 129.008 1033.36 127.05C1033.36 125.026 1034.57 123.552 1036.38 123.552C1037.83 123.552 1038.86 124.476 1038.86 124.476L1039.72 122.848C1039.72 122.848 1038.51 121.792 1036.33 121.792C1033.05 121.792 1031.1 124.41 1031.1 127.16ZM1041.08 129.712C1041.08 131.186 1042.2 132.264 1043.94 132.264C1045.88 132.264 1046.89 131.032 1047.15 130.614C1047.44 131.406 1048.08 132.044 1049.6 132.154L1050.26 130.438C1050.26 130.438 1049.16 130.416 1049.16 129.184V124.982C1049.16 122.76 1048.41 121.792 1046.05 121.792C1043.44 121.792 1041.74 123.046 1041.74 123.046L1042.31 124.674C1042.31 124.674 1043.83 123.53 1045.46 123.53C1047.07 123.53 1046.98 124.63 1046.98 125.884C1043.26 126.368 1041.08 127.622 1041.08 129.712ZM1044.49 130.548C1043.85 130.548 1043.33 130.262 1043.33 129.558C1043.33 128.392 1044.45 127.666 1046.98 127.292V129.008C1046.32 129.778 1045.5 130.548 1044.49 130.548ZM1052.4 132H1054.58V125.554C1055.26 124.894 1056.67 123.684 1057.77 123.684C1058.52 123.684 1058.96 124.212 1058.96 125.62V132H1061.14V124.828C1061.14 122.694 1060.06 121.792 1058.5 121.792C1056.67 121.792 1055.24 123.002 1054.54 123.772V121.88L1052.4 122.232V132ZM857.474 160.24C857.474 160.922 858.112 161.318 859.102 161.648C858.046 162.198 856.572 163.144 856.572 164.596C856.572 166.334 858.728 167.214 860.928 167.214C863.92 167.214 866.362 165.52 866.362 163.518C866.362 161.692 864.36 161.142 862.6 160.702C860.532 160.196 859.564 159.998 859.564 159.602C859.564 159.36 859.916 159.096 860.378 158.788C860.598 158.832 860.84 158.832 861.104 158.832C863.238 158.832 865.504 157.666 865.504 155.488C865.504 154.608 865.086 154.014 864.778 153.662C865.042 153.706 865.35 153.728 865.592 153.728H866.78L866.626 151.99C866.626 151.99 865.966 152.21 865.306 152.21H864.162C863.062 152.21 862.49 151.792 861.28 151.792C859.058 151.792 857.056 153.046 857.056 155.268C857.056 156.61 857.782 157.776 859.036 158.392C858.222 158.854 857.474 159.514 857.474 160.24ZM861.346 162.22C863.194 162.704 864.228 162.99 864.228 163.848C864.228 164.838 862.82 165.63 861.06 165.63C859.806 165.63 858.53 165.234 858.53 164.244C858.53 163.254 859.74 162.594 860.686 162.066C860.906 162.11 861.126 162.154 861.346 162.22ZM861.258 157.292C859.85 157.292 859.19 156.28 859.19 155.334C859.19 154.3 859.938 153.332 861.258 153.332C862.666 153.332 863.348 154.476 863.348 155.444C863.348 156.566 862.468 157.292 861.258 157.292ZM868.009 157.182C868.009 159.844 869.703 162.264 873.025 162.264C875.511 162.264 877.029 160.834 877.029 160.834L876.413 159.25C876.413 159.25 875.027 160.482 873.355 160.482C871.617 160.482 870.517 159.316 870.275 157.512L875.709 156.786L876.963 156.434C876.963 153.42 875.247 151.792 872.871 151.792C869.967 151.792 868.009 154.146 868.009 157.182ZM872.717 153.486C874.455 153.486 874.587 155.51 874.587 155.51L870.275 156.06C870.473 154.608 871.309 153.486 872.717 153.486ZM879.982 159.294C879.982 161.34 881.104 162.264 882.82 162.264C884.58 162.264 885.878 161.208 885.878 161.208L885.328 159.558C885.064 159.712 884.14 160.438 883.304 160.438C882.578 160.438 882.16 159.954 882.16 158.744V153.706H885.306V152.056H882.16V149.24L880.026 149.702V151.968L878.508 152.518V153.706H879.982V159.294ZM893.01 161.78C893.758 161.956 895.452 162.264 896.64 162.264C900.402 162.264 902.206 159.58 902.206 156.676C902.206 153.948 900.622 151.792 897.872 151.792C896.508 151.792 895.694 152.342 895.188 152.914V146.27L893.01 146.622V161.78ZM897.52 153.552C898.972 153.552 899.962 154.762 899.962 156.83C899.962 159.294 898.576 160.614 896.684 160.614C895.87 160.614 895.188 160.394 895.188 160.394V154.586C895.65 154.168 896.486 153.552 897.52 153.552ZM903.819 159.712C903.819 161.186 904.941 162.264 906.679 162.264C908.615 162.264 909.627 161.032 909.891 160.614C910.177 161.406 910.815 162.044 912.333 162.154L912.993 160.438C912.993 160.438 911.893 160.416 911.893 159.184V154.982C911.893 152.76 911.145 151.792 908.791 151.792C906.173 151.792 904.479 153.046 904.479 153.046L905.051 154.674C905.051 154.674 906.569 153.53 908.197 153.53C909.803 153.53 909.715 154.63 909.715 155.884C905.997 156.368 903.819 157.622 903.819 159.712ZM907.229 160.548C906.591 160.548 906.063 160.262 906.063 159.558C906.063 158.392 907.185 157.666 909.715 157.292V159.008C909.055 159.778 908.241 160.548 907.229 160.548ZM914.501 157.16C914.501 160.042 916.503 162.264 919.605 162.264C921.981 162.264 923.125 160.988 923.125 160.988L922.421 159.448C922.421 159.448 921.343 160.482 919.759 160.482C917.889 160.482 916.767 159.008 916.767 157.05C916.767 155.026 917.977 153.552 919.781 153.552C921.233 153.552 922.267 154.476 922.267 154.476L923.125 152.848C923.125 152.848 921.915 151.792 919.737 151.792C916.459 151.792 914.501 154.41 914.501 157.16ZM925.323 162H927.501V157.292H927.809L931.769 162H934.563L929.723 156.412L934.255 152.056H931.417L927.809 155.686H927.501V146.27L925.323 146.622V162ZM940.797 157.072C940.797 159.712 942.579 162.264 945.879 162.264C949.465 162.264 951.049 159.25 951.049 156.83C951.049 154.278 949.267 151.792 945.967 151.792C942.403 151.792 940.797 154.586 940.797 157.072ZM943.063 156.874C943.063 154.894 944.229 153.53 945.923 153.53C947.947 153.53 948.783 155.356 948.783 157.116C948.783 159.118 947.617 160.526 945.945 160.526C943.965 160.526 943.063 158.722 943.063 156.874ZM953.402 162H955.58V155.554C956.262 154.894 957.67 153.684 958.77 153.684C959.518 153.684 959.958 154.212 959.958 155.62V162H962.136V154.828C962.136 152.694 961.058 151.792 959.496 151.792C957.67 151.792 956.24 153.002 955.536 153.772V151.88L953.402 152.232V162ZM970.925 159.294C970.925 161.34 972.047 162.264 973.763 162.264C975.523 162.264 976.821 161.208 976.821 161.208L976.271 159.558C976.007 159.712 975.083 160.438 974.247 160.438C973.521 160.438 973.103 159.954 973.103 158.744V153.706H976.249V152.056H973.103V149.24L970.969 149.702V151.968L969.451 152.518V153.706H970.925V159.294ZM978.668 162H980.846V155.84C981.264 155.18 982.166 153.992 983.266 153.992C983.706 153.992 984.146 154.168 984.146 154.168L984.586 151.968C984.586 151.968 984.278 151.792 983.728 151.792C982.21 151.792 981.198 153.2 980.802 153.882V151.88L978.668 152.232V162ZM985.524 159.712C985.524 161.186 986.646 162.264 988.384 162.264C990.32 162.264 991.332 161.032 991.596 160.614C991.882 161.406 992.52 162.044 994.038 162.154L994.698 160.438C994.698 160.438 993.598 160.416 993.598 159.184V154.982C993.598 152.76 992.85 151.792 990.496 151.792C987.878 151.792 986.184 153.046 986.184 153.046L986.756 154.674C986.756 154.674 988.274 153.53 989.902 153.53C991.508 153.53 991.42 154.63 991.42 155.884C987.702 156.368 985.524 157.622 985.524 159.712ZM988.934 160.548C988.296 160.548 987.768 160.262 987.768 159.558C987.768 158.392 988.89 157.666 991.42 157.292V159.008C990.76 159.778 989.946 160.548 988.934 160.548ZM996.206 157.16C996.206 160.042 998.208 162.264 1001.31 162.264C1003.69 162.264 1004.83 160.988 1004.83 160.988L1004.13 159.448C1004.13 159.448 1003.05 160.482 1001.46 160.482C999.594 160.482 998.472 159.008 998.472 157.05C998.472 155.026 999.682 153.552 1001.49 153.552C1002.94 153.552 1003.97 154.476 1003.97 154.476L1004.83 152.848C1004.83 152.848 1003.62 151.792 1001.44 151.792C998.164 151.792 996.206 154.41 996.206 157.16ZM1007.03 162H1009.21V157.292H1009.51L1013.47 162H1016.27L1011.43 156.412L1015.96 152.056H1013.12L1009.51 155.686H1009.21V146.27L1007.03 146.622V162ZM856.704 189.712C856.704 191.186 857.826 192.264 859.564 192.264C861.5 192.264 862.512 191.032 862.776 190.614C863.062 191.406 863.7 192.044 865.218 192.154L865.878 190.438C865.878 190.438 864.778 190.416 864.778 189.184V184.982C864.778 182.76 864.03 181.792 861.676 181.792C859.058 181.792 857.364 183.046 857.364 183.046L857.936 184.674C857.936 184.674 859.454 183.53 861.082 183.53C862.688 183.53 862.6 184.63 862.6 185.884C858.882 186.368 856.704 187.622 856.704 189.712ZM860.114 190.548C859.476 190.548 858.948 190.262 858.948 189.558C858.948 188.392 860.07 187.666 862.6 187.292V189.008C861.94 189.778 861.126 190.548 860.114 190.548ZM867.077 183.706H868.639V192H870.817V183.706H873.567V182.056H870.817V180.868C870.817 178.536 871.873 177.722 873.039 177.722C874.117 177.722 875.085 178.426 875.085 178.426L875.943 176.754C875.943 176.754 874.799 175.918 873.061 175.918C870.465 175.918 868.639 177.744 868.639 181V181.968L867.077 182.54V183.706ZM876.093 189.294C876.093 191.34 877.215 192.264 878.931 192.264C880.691 192.264 881.989 191.208 881.989 191.208L881.439 189.558C881.175 189.712 880.251 190.438 879.415 190.438C878.689 190.438 878.271 189.954 878.271 188.744V183.706H881.417V182.056H878.271V179.24L876.137 179.702V181.968L874.619 182.518V183.706H876.093V189.294ZM883.22 187.182C883.22 189.844 884.914 192.264 888.236 192.264C890.722 192.264 892.24 190.834 892.24 190.834L891.624 189.25C891.624 189.25 890.238 190.482 888.566 190.482C886.828 190.482 885.728 189.316 885.486 187.512L890.92 186.786L892.174 186.434C892.174 183.42 890.458 181.792 888.082 181.792C885.178 181.792 883.22 184.146 883.22 187.182ZM887.928 183.486C889.666 183.486 889.798 185.51 889.798 185.51L885.486 186.06C885.684 184.608 886.52 183.486 887.928 183.486ZM894.621 192H896.799V185.84C897.217 185.18 898.119 183.992 899.219 183.992C899.659 183.992 900.099 184.168 900.099 184.168L900.539 181.968C900.539 181.968 900.231 181.792 899.681 181.792C898.163 181.792 897.151 183.2 896.755 183.882V181.88L894.621 182.232V192ZM906.763 189.712C906.763 191.186 907.885 192.264 909.623 192.264C911.559 192.264 912.571 191.032 912.835 190.614C913.121 191.406 913.759 192.044 915.277 192.154L915.937 190.438C915.937 190.438 914.837 190.416 914.837 189.184V184.982C914.837 182.76 914.089 181.792 911.735 181.792C909.117 181.792 907.423 183.046 907.423 183.046L907.995 184.674C907.995 184.674 909.513 183.53 911.141 183.53C912.747 183.53 912.659 184.63 912.659 185.884C908.941 186.368 906.763 187.622 906.763 189.712ZM910.173 190.548C909.535 190.548 909.007 190.262 909.007 189.558C909.007 188.392 910.129 187.666 912.659 187.292V189.008C911.999 189.778 911.185 190.548 910.173 190.548ZM923.367 192H925.545V185.84C925.963 185.18 926.865 183.992 927.965 183.992C928.405 183.992 928.845 184.168 928.845 184.168L929.285 181.968C929.285 181.968 928.977 181.792 928.427 181.792C926.909 181.792 925.897 183.2 925.501 183.882V181.88L923.367 182.232V192ZM930.228 187.182C930.228 189.844 931.922 192.264 935.244 192.264C937.73 192.264 939.248 190.834 939.248 190.834L938.632 189.25C938.632 189.25 937.246 190.482 935.574 190.482C933.836 190.482 932.736 189.316 932.494 187.512L937.928 186.786L939.182 186.434C939.182 183.42 937.466 181.792 935.09 181.792C932.186 181.792 930.228 184.146 930.228 187.182ZM934.936 183.486C936.674 183.486 936.806 185.51 936.806 185.51L932.494 186.06C932.692 184.608 933.528 183.486 934.936 183.486ZM941.673 192H943.851V176.27L941.673 176.622V192ZM946.122 189.712C946.122 191.186 947.244 192.264 948.982 192.264C950.918 192.264 951.93 191.032 952.194 190.614C952.48 191.406 953.118 192.044 954.636 192.154L955.296 190.438C955.296 190.438 954.196 190.416 954.196 189.184V184.982C954.196 182.76 953.448 181.792 951.094 181.792C948.476 181.792 946.782 183.046 946.782 183.046L947.354 184.674C947.354 184.674 948.872 183.53 950.5 183.53C952.106 183.53 952.018 184.63 952.018 185.884C948.3 186.368 946.122 187.622 946.122 189.712ZM949.532 190.548C948.894 190.548 948.366 190.262 948.366 189.558C948.366 188.392 949.488 187.666 952.018 187.292V189.008C951.358 189.778 950.544 190.548 949.532 190.548ZM957.441 197.126L959.619 196.774V191.736C960.037 192.044 960.785 192.264 961.709 192.264C964.877 192.264 966.725 189.668 966.725 186.72C966.725 184.014 965.141 181.792 962.523 181.792C960.961 181.792 960.015 182.606 959.553 183.464V181.88L957.441 182.232V197.126ZM962.149 183.596C963.491 183.596 964.437 184.806 964.437 186.874C964.437 189.25 963.183 190.548 961.313 190.548C960.279 190.548 959.619 190.174 959.619 189.426V185.202C959.905 184.784 960.829 183.596 962.149 183.596ZM968.447 191.384C968.447 191.384 969.679 192.264 971.747 192.264C974.189 192.264 975.619 191.054 975.619 189.25C975.619 186.082 970.845 186.236 970.845 184.498C970.845 183.926 971.329 183.508 972.429 183.508C973.705 183.508 974.849 184.124 974.849 184.124L975.355 182.342C975.355 182.342 974.255 181.792 972.517 181.792C969.767 181.792 968.667 183.134 968.667 184.674C968.667 187.798 973.441 187.666 973.441 189.448C973.441 190.086 972.891 190.548 971.725 190.548C970.119 190.548 968.909 189.536 968.909 189.536L968.447 191.384ZM977.343 187.182C977.343 189.844 979.037 192.264 982.359 192.264C984.845 192.264 986.363 190.834 986.363 190.834L985.747 189.25C985.747 189.25 984.361 190.482 982.689 190.482C980.951 190.482 979.851 189.316 979.609 187.512L985.043 186.786L986.297 186.434C986.297 183.42 984.581 181.792 982.205 181.792C979.301 181.792 977.343 184.146 977.343 187.182ZM982.051 183.486C983.789 183.486 983.921 185.51 983.921 185.51L979.609 186.06C979.807 184.608 980.643 183.486 982.051 183.486Z" fill="#333333"/>
</svg>
