<svg width="1078" height="452" viewBox="0 0 1078 452" fill="none" xmlns="http://www.w3.org/2000/svg">
<rect x="1" y="1" width="1076" height="450" fill="#FAFAFA" stroke="#BDBDBD" stroke-width="2"/>
<path d="M40 411.496V188.991H267.14V411.496" stroke="#828282" stroke-width="4"/>
<path d="M549.906 411.496V188.991H777.046V411.496" stroke="#828282" stroke-width="4"/>
<path d="M294.953 411.496V188.991H522.093V411.496" stroke="#828282" stroke-width="4"/>
<path d="M804.859 411.496V188.991H1032V411.496" stroke="#828282" stroke-width="4"/>
<rect x="49" y="201" width="45" height="160" fill="#EDE3E4"/>
<rect x="559" y="201" width="45" height="173" fill="#EFE8DF"/>
<rect x="304" y="201" width="45" height="173" fill="#D9DFE9"/>
<rect x="814" y="201" width="45" height="142" fill="#DFDDE2"/>
<rect x="103.738" y="200.578" width="45.1963" height="202.804" fill="#EDE3E4"/>
<rect x="614" y="201" width="45" height="142" fill="#EFE8DF"/>
<rect x="359" y="201" width="45" height="142" fill="#D9DFE9"/>
<rect x="869" y="201" width="45" height="173" fill="#DFDDE2"/>
<rect x="213" y="201" width="45" height="160" fill="#EDE3E4"/>
<rect x="723" y="201" width="45" height="152" fill="#EFE8DF"/>
<rect x="468" y="201" width="45" height="173" fill="#D9DFE9"/>
<rect x="978" y="201" width="45" height="142" fill="#DFDDE2"/>
<rect x="158" y="201" width="45" height="202" fill="#EDE3E4"/>
<rect x="668" y="201" width="45" height="173" fill="#EFE8DF"/>
<rect x="413" y="201" width="45" height="142" fill="#D9DFE9"/>
<rect x="923" y="201" width="45" height="160" fill="#DFDDE2"/>
<path d="M49.99 54.894C49.99 59.448 53.554 62.264 57.998 62.264C60.176 62.264 63.08 61.582 63.08 61.582V54.256H57.778V56.148H60.836V59.998C60.836 59.998 59.538 60.306 58.262 60.306C54.742 60.306 52.344 58.04 52.344 54.718C52.344 51.748 54.258 49.02 57.998 49.02C60.396 49.02 62.156 50.12 62.156 50.12L63.036 48.162C63.036 48.162 61.078 47.062 58.108 47.062C52.916 47.062 49.99 50.758 49.99 54.894ZM65.4373 54.696C65.4373 58.744 68.4513 62.264 73.0933 62.264C77.8893 62.264 81.0133 58.502 81.0133 54.388C81.0133 50.34 78.0213 47.062 73.2913 47.062C68.2533 47.062 65.4373 50.824 65.4373 54.696ZM67.8353 54.586C67.8353 51.77 69.7493 48.998 73.2253 48.998C76.7013 48.998 78.6153 51.726 78.6153 54.564C78.6153 57.424 76.6133 60.328 73.1593 60.328C69.6833 60.328 67.8353 57.314 67.8353 54.586ZM82.0481 62H84.3141L85.7441 58.084H91.5961L93.0481 62H95.3801L89.7921 47.216H87.6361L82.0481 62ZM88.6701 50.12L90.9141 56.192H86.4481L88.6701 50.12ZM97.6016 62H106.732V60.108H99.8676V47.326H97.6016V62ZM113.457 62H120.343V60.24H118.077V51.616H113.589V53.354H115.921V60.24H113.457V62ZM54.456 92.11H56.634L61.892 77.326H59.582L55.6 88.744L51.618 77.326H49.22L54.456 92.11ZM62.1649 89.712C62.1649 91.186 63.2869 92.264 65.0249 92.264C66.9609 92.264 67.9729 91.032 68.2369 90.614C68.5229 91.406 69.1609 92.044 70.6789 92.154L71.3389 90.438C71.3389 90.438 70.2389 90.416 70.2389 89.184V84.982C70.2389 82.76 69.4909 81.792 67.1369 81.792C64.5189 81.792 62.8249 83.046 62.8249 83.046L63.3969 84.674C63.3969 84.674 64.9149 83.53 66.5429 83.53C68.1489 83.53 68.0609 84.63 68.0609 85.884C64.3429 86.368 62.1649 87.622 62.1649 89.712ZM65.5749 90.548C64.9369 90.548 64.4089 90.262 64.4089 89.558C64.4089 88.392 65.5309 87.666 68.0609 87.292V89.008C67.4009 89.778 66.5869 90.548 65.5749 90.548ZM73.5283 92H75.7063V76.27L73.5283 76.622V92ZM78.7034 89.272C78.7034 91.406 79.8034 92.264 81.4094 92.264C83.2354 92.264 84.6214 91.098 85.2594 90.416C85.3694 91.142 85.5894 92.176 85.5894 92.176L87.7014 91.978C87.7014 91.978 87.2614 90.152 87.2614 88.942V82.056H85.0834V88.744C84.4674 89.316 83.2354 90.372 82.1134 90.372C81.2994 90.372 80.8814 89.822 80.8814 88.436V82.056H78.7034V89.272ZM89.755 87.182C89.755 89.844 91.449 92.264 94.771 92.264C97.257 92.264 98.775 90.834 98.775 90.834L98.159 89.25C98.159 89.25 96.773 90.482 95.101 90.482C93.363 90.482 92.263 89.316 92.021 87.512L97.455 86.786L98.709 86.434C98.709 83.42 96.993 81.792 94.617 81.792C91.713 81.792 89.755 84.146 89.755 87.182ZM94.463 83.486C96.201 83.486 96.333 85.51 96.333 85.51L92.021 86.06C92.219 84.608 93.055 83.486 94.463 83.486ZM106.441 92H108.619V85.532C109.257 84.894 110.621 83.684 111.699 83.684C112.425 83.684 112.821 84.212 112.821 85.62V92H114.999V85.488C115.747 84.762 116.979 83.684 117.991 83.684C118.717 83.684 119.135 84.212 119.135 85.62V92H121.291V84.828C121.291 82.694 120.257 81.792 118.717 81.792C116.979 81.792 115.615 82.958 114.889 83.75C114.581 82.386 113.679 81.792 112.425 81.792C110.665 81.792 109.257 83.002 108.575 83.75V81.88L106.441 82.232V92ZM123.086 95.476L123.768 97.214C126.1 96.95 127.552 94.86 128.41 92.748L132.722 82.056H130.478L127.904 88.876L125.286 82.056H122.976L126.826 91.494L126.298 92.682C125.704 94.068 124.538 95.234 123.086 95.476ZM133.797 91.384C133.797 91.384 135.029 92.264 137.097 92.264C139.539 92.264 140.969 91.054 140.969 89.25C140.969 86.082 136.195 86.236 136.195 84.498C136.195 83.926 136.679 83.508 137.779 83.508C139.055 83.508 140.199 84.124 140.199 84.124L140.705 82.342C140.705 82.342 139.605 81.792 137.867 81.792C135.117 81.792 134.017 83.134 134.017 84.674C134.017 87.798 138.791 87.666 138.791 89.448C138.791 90.086 138.241 90.548 137.075 90.548C135.469 90.548 134.259 89.536 134.259 89.536L133.797 91.384ZM142.693 87.182C142.693 89.844 144.387 92.264 147.709 92.264C150.195 92.264 151.713 90.834 151.713 90.834L151.097 89.25C151.097 89.25 149.711 90.482 148.039 90.482C146.301 90.482 145.201 89.316 144.959 87.512L150.393 86.786L151.647 86.434C151.647 83.42 149.931 81.792 147.555 81.792C144.651 81.792 142.693 84.146 142.693 87.182ZM147.401 83.486C149.139 83.486 149.271 85.51 149.271 85.51L144.959 86.06C145.157 84.608 145.993 83.486 147.401 83.486ZM154.138 92H156.316V76.27L154.138 76.622V92ZM158.433 83.706H159.995V92H162.173V83.706H164.923V82.056H162.173V80.868C162.173 78.536 163.229 77.722 164.395 77.722C165.473 77.722 166.441 78.426 166.441 78.426L167.299 76.754C167.299 76.754 166.155 75.918 164.417 75.918C161.821 75.918 159.995 77.744 159.995 81V81.968L158.433 82.54V83.706ZM171.546 87.182C171.546 89.844 173.24 92.264 176.562 92.264C179.048 92.264 180.566 90.834 180.566 90.834L179.95 89.25C179.95 89.25 178.564 90.482 176.892 90.482C175.154 90.482 174.054 89.316 173.812 87.512L179.246 86.786L180.5 86.434C180.5 83.42 178.784 81.792 176.408 81.792C173.504 81.792 171.546 84.146 171.546 87.182ZM176.254 83.486C177.992 83.486 178.124 85.51 178.124 85.51L173.812 86.06C174.01 84.608 174.846 83.486 176.254 83.486ZM182.947 92H185.125V85.554C185.807 84.894 187.215 83.684 188.315 83.684C189.063 83.684 189.503 84.212 189.503 85.62V92H191.681V84.828C191.681 82.694 190.603 81.792 189.041 81.792C187.215 81.792 185.785 83.002 185.081 83.772V81.88L182.947 82.232V92ZM193.975 87.072C193.975 89.712 195.757 92.264 199.057 92.264C202.643 92.264 204.227 89.25 204.227 86.83C204.227 84.278 202.445 81.792 199.145 81.792C195.581 81.792 193.975 84.586 193.975 87.072ZM196.241 86.874C196.241 84.894 197.407 83.53 199.101 83.53C201.125 83.53 201.961 85.356 201.961 87.116C201.961 89.118 200.795 90.526 199.123 90.526C197.143 90.526 196.241 88.722 196.241 86.874ZM206.514 89.272C206.514 91.406 207.614 92.264 209.22 92.264C211.046 92.264 212.432 91.098 213.07 90.416C213.18 91.142 213.4 92.176 213.4 92.176L215.512 91.978C215.512 91.978 215.072 90.152 215.072 88.942V82.056H212.894V88.744C212.278 89.316 211.046 90.372 209.924 90.372C209.11 90.372 208.692 89.822 208.692 88.436V82.056H206.514V89.272ZM218.16 90.24C218.16 90.922 218.798 91.318 219.788 91.648C218.732 92.198 217.258 93.144 217.258 94.596C217.258 96.334 219.414 97.214 221.614 97.214C224.606 97.214 227.048 95.52 227.048 93.518C227.048 91.692 225.046 91.142 223.286 90.702C221.218 90.196 220.25 89.998 220.25 89.602C220.25 89.36 220.602 89.096 221.064 88.788C221.284 88.832 221.526 88.832 221.79 88.832C223.924 88.832 226.19 87.666 226.19 85.488C226.19 84.608 225.772 84.014 225.464 83.662C225.728 83.706 226.036 83.728 226.278 83.728H227.466L227.312 81.99C227.312 81.99 226.652 82.21 225.992 82.21H224.848C223.748 82.21 223.176 81.792 221.966 81.792C219.744 81.792 217.742 83.046 217.742 85.268C217.742 86.61 218.468 87.776 219.722 88.392C218.908 88.854 218.16 89.514 218.16 90.24ZM222.032 92.22C223.88 92.704 224.914 92.99 224.914 93.848C224.914 94.838 223.506 95.63 221.746 95.63C220.492 95.63 219.216 95.234 219.216 94.244C219.216 93.254 220.426 92.594 221.372 92.066C221.592 92.11 221.812 92.154 222.032 92.22ZM221.944 87.292C220.536 87.292 219.876 86.28 219.876 85.334C219.876 84.3 220.624 83.332 221.944 83.332C223.352 83.332 224.034 84.476 224.034 85.444C224.034 86.566 223.154 87.292 221.944 87.292ZM229.354 92H231.532V85.598C232.192 84.938 233.622 83.684 234.722 83.684C235.47 83.684 235.91 84.212 235.91 85.62V92H238.088V84.828C238.088 82.694 237.01 81.792 235.426 81.792C233.6 81.792 232.192 83.024 231.532 83.728V76.27L229.354 76.622V92ZM246.877 89.294C246.877 91.34 247.999 92.264 249.715 92.264C251.475 92.264 252.773 91.208 252.773 91.208L252.223 89.558C251.959 89.712 251.035 90.438 250.199 90.438C249.473 90.438 249.055 89.954 249.055 88.744V83.706H252.201V82.056H249.055V79.24L246.921 79.702V81.968L245.403 82.518V83.706H246.877V89.294ZM253.981 87.072C253.981 89.712 255.763 92.264 259.063 92.264C262.649 92.264 264.233 89.25 264.233 86.83C264.233 84.278 262.451 81.792 259.151 81.792C255.587 81.792 253.981 84.586 253.981 87.072ZM256.247 86.874C256.247 84.894 257.413 83.53 259.107 83.53C261.131 83.53 261.967 85.356 261.967 87.116C261.967 89.118 260.801 90.526 259.129 90.526C257.149 90.526 256.247 88.722 256.247 86.874ZM51.068 119.294C51.068 121.34 52.19 122.264 53.906 122.264C55.666 122.264 56.964 121.208 56.964 121.208L56.414 119.558C56.15 119.712 55.226 120.438 54.39 120.438C53.664 120.438 53.246 119.954 53.246 118.744V113.706H56.392V112.056H53.246V109.24L51.112 109.702V111.968L49.594 112.518V113.706H51.068V119.294ZM58.0185 119.712C58.0185 121.186 59.1405 122.264 60.8785 122.264C62.8145 122.264 63.8265 121.032 64.0905 120.614C64.3765 121.406 65.0145 122.044 66.5325 122.154L67.1925 120.438C67.1925 120.438 66.0925 120.416 66.0925 119.184V114.982C66.0925 112.76 65.3445 111.792 62.9905 111.792C60.3725 111.792 58.6785 113.046 58.6785 113.046L59.2505 114.674C59.2505 114.674 60.7685 113.53 62.3965 113.53C64.0025 113.53 63.9145 114.63 63.9145 115.884C60.1965 116.368 58.0185 117.622 58.0185 119.712ZM61.4285 120.548C60.7905 120.548 60.2625 120.262 60.2625 119.558C60.2625 118.392 61.3845 117.666 63.9145 117.292V119.008C63.2545 119.778 62.4405 120.548 61.4285 120.548ZM69.3818 122H71.5598V117.292H71.8678L75.8278 122H78.6218L73.7818 116.412L78.3138 112.056H75.4758L71.8678 115.686H71.5598V106.27L69.3818 106.622V122ZM79.1632 117.182C79.1632 119.844 80.8572 122.264 84.1792 122.264C86.6652 122.264 88.1832 120.834 88.1832 120.834L87.5672 119.25C87.5672 119.25 86.1812 120.482 84.5092 120.482C82.7712 120.482 81.6712 119.316 81.4292 117.512L86.8632 116.786L88.1172 116.434C88.1172 113.42 86.4012 111.792 84.0252 111.792C81.1212 111.792 79.1632 114.146 79.1632 117.182ZM83.8712 113.486C85.6092 113.486 85.7412 115.51 85.7412 115.51L81.4292 116.06C81.6272 114.608 82.4632 113.486 83.8712 113.486ZM95.2115 117.16C95.2115 120.042 97.2135 122.264 100.316 122.264C102.692 122.264 103.836 120.988 103.836 120.988L103.132 119.448C103.132 119.448 102.054 120.482 100.47 120.482C98.5995 120.482 97.4775 119.008 97.4775 117.05C97.4775 115.026 98.6875 113.552 100.492 113.552C101.944 113.552 102.978 114.476 102.978 114.476L103.836 112.848C103.836 112.848 102.626 111.792 100.448 111.792C97.1695 111.792 95.2115 114.41 95.2115 117.16ZM105.18 117.072C105.18 119.712 106.962 122.264 110.262 122.264C113.848 122.264 115.432 119.25 115.432 116.83C115.432 114.278 113.65 111.792 110.35 111.792C106.786 111.792 105.18 114.586 105.18 117.072ZM107.446 116.874C107.446 114.894 108.612 113.53 110.306 113.53C112.33 113.53 113.166 115.356 113.166 117.116C113.166 119.118 112 120.526 110.328 120.526C108.348 120.526 107.446 118.722 107.446 116.874ZM117.785 122H119.963V115.554C120.645 114.894 122.053 113.684 123.153 113.684C123.901 113.684 124.341 114.212 124.341 115.62V122H126.519V114.828C126.519 112.694 125.441 111.792 123.879 111.792C122.053 111.792 120.623 113.002 119.919 113.772V111.88L117.785 112.232V122ZM128.791 121.384C128.791 121.384 130.023 122.264 132.091 122.264C134.533 122.264 135.963 121.054 135.963 119.25C135.963 116.082 131.189 116.236 131.189 114.498C131.189 113.926 131.673 113.508 132.773 113.508C134.049 113.508 135.193 114.124 135.193 114.124L135.699 112.342C135.699 112.342 134.599 111.792 132.861 111.792C130.111 111.792 129.011 113.134 129.011 114.674C129.011 117.798 133.785 117.666 133.785 119.448C133.785 120.086 133.235 120.548 132.069 120.548C130.463 120.548 129.253 119.536 129.253 119.536L128.791 121.384ZM139.447 109.68C140.239 109.68 140.833 109.108 140.833 108.338C140.833 107.568 140.239 106.996 139.447 106.996C138.677 106.996 138.083 107.568 138.083 108.338C138.083 109.108 138.677 109.68 139.447 109.68ZM138.347 122H140.525V112.056H138.347V122ZM142.928 121.384C142.928 121.384 144.16 122.264 146.228 122.264C148.67 122.264 150.1 121.054 150.1 119.25C150.1 116.082 145.326 116.236 145.326 114.498C145.326 113.926 145.81 113.508 146.91 113.508C148.186 113.508 149.33 114.124 149.33 114.124L149.836 112.342C149.836 112.342 148.736 111.792 146.998 111.792C144.248 111.792 143.148 113.134 143.148 114.674C143.148 117.798 147.922 117.666 147.922 119.448C147.922 120.086 147.372 120.548 146.206 120.548C144.6 120.548 143.39 119.536 143.39 119.536L142.928 121.384ZM153.011 119.294C153.011 121.34 154.133 122.264 155.849 122.264C157.609 122.264 158.907 121.208 158.907 121.208L158.357 119.558C158.093 119.712 157.169 120.438 156.333 120.438C155.607 120.438 155.189 119.954 155.189 118.744V113.706H158.335V112.056H155.189V109.24L153.055 109.702V111.968L151.537 112.518V113.706H153.011V119.294ZM160.138 117.182C160.138 119.844 161.832 122.264 165.154 122.264C167.64 122.264 169.158 120.834 169.158 120.834L168.542 119.25C168.542 119.25 167.156 120.482 165.484 120.482C163.746 120.482 162.646 119.316 162.404 117.512L167.838 116.786L169.092 116.434C169.092 113.42 167.376 111.792 165 111.792C162.096 111.792 160.138 114.146 160.138 117.182ZM164.846 113.486C166.584 113.486 166.716 115.51 166.716 115.51L162.404 116.06C162.602 114.608 163.438 113.486 164.846 113.486ZM171.539 122H173.717V115.554C174.399 114.894 175.807 113.684 176.907 113.684C177.655 113.684 178.095 114.212 178.095 115.62V122H180.273V114.828C180.273 112.694 179.195 111.792 177.633 111.792C175.807 111.792 174.377 113.002 173.673 113.772V111.88L171.539 112.232V122ZM183.777 119.294C183.777 121.34 184.899 122.264 186.615 122.264C188.375 122.264 189.673 121.208 189.673 121.208L189.123 119.558C188.859 119.712 187.935 120.438 187.099 120.438C186.373 120.438 185.955 119.954 185.955 118.744V113.706H189.101V112.056H185.955V109.24L183.821 109.702V111.968L182.303 112.518V113.706H183.777V119.294ZM196.013 119.712C196.013 121.186 197.135 122.264 198.873 122.264C200.809 122.264 201.821 121.032 202.085 120.614C202.371 121.406 203.009 122.044 204.527 122.154L205.187 120.438C205.187 120.438 204.087 120.416 204.087 119.184V114.982C204.087 112.76 203.339 111.792 200.985 111.792C198.367 111.792 196.673 113.046 196.673 113.046L197.245 114.674C197.245 114.674 198.763 113.53 200.391 113.53C201.997 113.53 201.909 114.63 201.909 115.884C198.191 116.368 196.013 117.622 196.013 119.712ZM199.423 120.548C198.785 120.548 198.257 120.262 198.257 119.558C198.257 118.392 199.379 117.666 201.909 117.292V119.008C201.249 119.778 200.435 120.548 199.423 120.548ZM206.694 117.16C206.694 120.042 208.696 122.264 211.798 122.264C214.174 122.264 215.318 120.988 215.318 120.988L214.614 119.448C214.614 119.448 213.536 120.482 211.952 120.482C210.082 120.482 208.96 119.008 208.96 117.05C208.96 115.026 210.17 113.552 211.974 113.552C213.426 113.552 214.46 114.476 214.46 114.476L215.318 112.848C215.318 112.848 214.108 111.792 211.93 111.792C208.652 111.792 206.694 114.41 206.694 117.16ZM218.045 119.294C218.045 121.34 219.167 122.264 220.883 122.264C222.643 122.264 223.941 121.208 223.941 121.208L223.391 119.558C223.127 119.712 222.203 120.438 221.367 120.438C220.641 120.438 220.223 119.954 220.223 118.744V113.706H223.369V112.056H220.223V109.24L218.089 109.702V111.968L216.571 112.518V113.706H218.045V119.294ZM226.931 109.68C227.723 109.68 228.317 109.108 228.317 108.338C228.317 107.568 227.723 106.996 226.931 106.996C226.161 106.996 225.567 107.568 225.567 108.338C225.567 109.108 226.161 109.68 226.931 109.68ZM225.831 122H228.009V112.056H225.831V122ZM230.434 117.072C230.434 119.712 232.216 122.264 235.516 122.264C239.102 122.264 240.686 119.25 240.686 116.83C240.686 114.278 238.904 111.792 235.604 111.792C232.04 111.792 230.434 114.586 230.434 117.072ZM232.7 116.874C232.7 114.894 233.866 113.53 235.56 113.53C237.584 113.53 238.42 115.356 238.42 117.116C238.42 119.118 237.254 120.526 235.582 120.526C233.602 120.526 232.7 118.722 232.7 116.874ZM243.039 122H245.217V115.554C245.899 114.894 247.307 113.684 248.407 113.684C249.155 113.684 249.595 114.212 249.595 115.62V122H251.773V114.828C251.773 112.694 250.695 111.792 249.133 111.792C247.307 111.792 245.877 113.002 245.173 113.772V111.88L243.039 112.232V122ZM254.045 121.384C254.045 121.384 255.277 122.264 257.345 122.264C259.787 122.264 261.217 121.054 261.217 119.25C261.217 116.082 256.443 116.236 256.443 114.498C256.443 113.926 256.927 113.508 258.027 113.508C259.303 113.508 260.447 114.124 260.447 114.124L260.953 112.342C260.953 112.342 259.853 111.792 258.115 111.792C255.365 111.792 254.265 113.134 254.265 114.674C254.265 117.798 259.039 117.666 259.039 119.448C259.039 120.086 258.489 120.548 257.323 120.548C255.717 120.548 254.507 119.536 254.507 119.536L254.045 121.384ZM51.068 149.294C51.068 151.34 52.19 152.264 53.906 152.264C55.666 152.264 56.964 151.208 56.964 151.208L56.414 149.558C56.15 149.712 55.226 150.438 54.39 150.438C53.664 150.438 53.246 149.954 53.246 148.744V143.706H56.392V142.056H53.246V139.24L51.112 139.702V141.968L49.594 142.518V143.706H51.068V149.294ZM58.1725 147.072C58.1725 149.712 59.9545 152.264 63.2545 152.264C66.8405 152.264 68.4245 149.25 68.4245 146.83C68.4245 144.278 66.6425 141.792 63.3425 141.792C59.7785 141.792 58.1725 144.586 58.1725 147.072ZM60.4385 146.874C60.4385 144.894 61.6045 143.53 63.2985 143.53C65.3225 143.53 66.1585 145.356 66.1585 147.116C66.1585 149.118 64.9925 150.526 63.3205 150.526C61.3405 150.526 60.4385 148.722 60.4385 146.874ZM76.0624 151.78C76.8104 151.956 78.5044 152.264 79.6924 152.264C83.4544 152.264 85.2584 149.58 85.2584 146.676C85.2584 143.948 83.6744 141.792 80.9244 141.792C79.5604 141.792 78.7464 142.342 78.2404 142.914V136.27L76.0624 136.622V151.78ZM80.5724 143.552C82.0244 143.552 83.0144 144.762 83.0144 146.83C83.0144 149.294 81.6284 150.614 79.7364 150.614C78.9224 150.614 78.2404 150.394 78.2404 150.394V144.586C78.7024 144.168 79.5384 143.552 80.5724 143.552ZM87.048 147.182C87.048 149.844 88.742 152.264 92.064 152.264C94.55 152.264 96.068 150.834 96.068 150.834L95.452 149.25C95.452 149.25 94.066 150.482 92.394 150.482C90.656 150.482 89.556 149.316 89.314 147.512L94.748 146.786L96.002 146.434C96.002 143.42 94.286 141.792 91.91 141.792C89.006 141.792 87.048 144.146 87.048 147.182ZM91.756 143.486C93.494 143.486 93.626 145.51 93.626 145.51L89.314 146.06C89.512 144.608 90.348 143.486 91.756 143.486ZM99.0211 149.294C99.0211 151.34 100.143 152.264 101.859 152.264C103.619 152.264 104.917 151.208 104.917 151.208L104.367 149.558C104.103 149.712 103.179 150.438 102.343 150.438C101.617 150.438 101.199 149.954 101.199 148.744V143.706H104.345V142.056H101.199V139.24L99.0651 139.702V141.968L97.5471 142.518V143.706H99.0211V149.294ZM107.336 149.294C107.336 151.34 108.458 152.264 110.174 152.264C111.934 152.264 113.232 151.208 113.232 151.208L112.682 149.558C112.418 149.712 111.494 150.438 110.658 150.438C109.932 150.438 109.514 149.954 109.514 148.744V143.706H112.66V142.056H109.514V139.24L107.38 139.702V141.968L105.862 142.518V143.706H107.336V149.294ZM114.462 147.182C114.462 149.844 116.156 152.264 119.478 152.264C121.964 152.264 123.482 150.834 123.482 150.834L122.866 149.25C122.866 149.25 121.48 150.482 119.808 150.482C118.07 150.482 116.97 149.316 116.728 147.512L122.162 146.786L123.416 146.434C123.416 143.42 121.7 141.792 119.324 141.792C116.42 141.792 114.462 144.146 114.462 147.182ZM119.17 143.486C120.908 143.486 121.04 145.51 121.04 145.51L116.728 146.06C116.926 144.608 117.762 143.486 119.17 143.486ZM125.863 152H128.041V145.84C128.459 145.18 129.361 143.992 130.461 143.992C130.901 143.992 131.341 144.168 131.341 144.168L131.781 141.968C131.781 141.968 131.473 141.792 130.923 141.792C129.405 141.792 128.393 143.2 127.997 143.882V141.88L125.863 142.232V152ZM138.797 152H140.975V145.532C141.613 144.894 142.977 143.684 144.055 143.684C144.781 143.684 145.177 144.212 145.177 145.62V152H147.355V145.488C148.103 144.762 149.335 143.684 150.347 143.684C151.073 143.684 151.491 144.212 151.491 145.62V152H153.647V144.828C153.647 142.694 152.613 141.792 151.073 141.792C149.335 141.792 147.971 142.958 147.245 143.75C146.937 142.386 146.035 141.792 144.781 141.792C143.021 141.792 141.613 143.002 140.931 143.75V141.88L138.797 142.232V152ZM155.442 155.476L156.124 157.214C158.456 156.95 159.908 154.86 160.766 152.748L165.078 142.056H162.834L160.26 148.876L157.642 142.056H155.332L159.182 151.494L158.654 152.682C158.06 154.068 156.894 155.234 155.442 155.476ZM172.142 152H174.32V145.598C174.98 144.938 176.41 143.684 177.51 143.684C178.258 143.684 178.698 144.212 178.698 145.62V152H180.876V144.828C180.876 142.694 179.798 141.792 178.214 141.792C176.388 141.792 174.98 143.024 174.32 143.728V136.27L172.142 136.622V152ZM183.191 147.182C183.191 149.844 184.885 152.264 188.207 152.264C190.693 152.264 192.211 150.834 192.211 150.834L191.595 149.25C191.595 149.25 190.209 150.482 188.537 150.482C186.799 150.482 185.699 149.316 185.457 147.512L190.891 146.786L192.145 146.434C192.145 143.42 190.429 141.792 188.053 141.792C185.149 141.792 183.191 144.146 183.191 147.182ZM187.899 143.486C189.637 143.486 189.769 145.51 189.769 145.51L185.457 146.06C185.655 144.608 186.491 143.486 187.899 143.486ZM193.8 149.712C193.8 151.186 194.922 152.264 196.66 152.264C198.596 152.264 199.608 151.032 199.872 150.614C200.158 151.406 200.796 152.044 202.314 152.154L202.974 150.438C202.974 150.438 201.874 150.416 201.874 149.184V144.982C201.874 142.76 201.126 141.792 198.772 141.792C196.154 141.792 194.46 143.046 194.46 143.046L195.032 144.674C195.032 144.674 196.55 143.53 198.178 143.53C199.784 143.53 199.696 144.63 199.696 145.884C195.978 146.368 193.8 147.622 193.8 149.712ZM197.21 150.548C196.572 150.548 196.044 150.262 196.044 149.558C196.044 148.392 197.166 147.666 199.696 147.292V149.008C199.036 149.778 198.222 150.548 197.21 150.548ZM205.163 152H207.341V136.27L205.163 136.622V152ZM210.976 149.294C210.976 151.34 212.098 152.264 213.814 152.264C215.574 152.264 216.872 151.208 216.872 151.208L216.322 149.558C216.058 149.712 215.134 150.438 214.298 150.438C213.572 150.438 213.154 149.954 213.154 148.744V143.706H216.3V142.056H213.154V139.24L211.02 139.702V141.968L209.502 142.518V143.706H210.976V149.294ZM218.763 152H220.941V145.598C221.601 144.938 223.031 143.684 224.131 143.684C224.879 143.684 225.319 144.212 225.319 145.62V152H227.497V144.828C227.497 142.694 226.419 141.792 224.835 141.792C223.009 141.792 221.601 143.024 220.941 143.728V136.27L218.763 136.622V152ZM230.142 150.79C230.142 151.604 230.802 152.264 231.616 152.264C232.43 152.264 233.112 151.604 233.112 150.79C233.112 149.954 232.43 149.294 231.616 149.294C230.802 149.294 230.142 149.954 230.142 150.79Z" fill="#333333"/>
<path d="M304.99 54.894C304.99 59.448 308.554 62.264 312.998 62.264C315.176 62.264 318.08 61.582 318.08 61.582V54.256H312.778V56.148H315.836V59.998C315.836 59.998 314.538 60.306 313.262 60.306C309.742 60.306 307.344 58.04 307.344 54.718C307.344 51.748 309.258 49.02 312.998 49.02C315.396 49.02 317.156 50.12 317.156 50.12L318.036 48.162C318.036 48.162 316.078 47.062 313.108 47.062C307.916 47.062 304.99 50.758 304.99 54.894ZM320.437 54.696C320.437 58.744 323.451 62.264 328.093 62.264C332.889 62.264 336.013 58.502 336.013 54.388C336.013 50.34 333.021 47.062 328.291 47.062C323.253 47.062 320.437 50.824 320.437 54.696ZM322.835 54.586C322.835 51.77 324.749 48.998 328.225 48.998C331.701 48.998 333.615 51.726 333.615 54.564C333.615 57.424 331.613 60.328 328.159 60.328C324.683 60.328 322.835 57.314 322.835 54.586ZM337.048 62H339.314L340.744 58.084H346.596L348.048 62H350.38L344.792 47.216H342.636L337.048 62ZM343.67 50.12L345.914 56.192H341.448L343.67 50.12ZM352.602 62H361.732V60.108H354.868V47.326H352.602V62ZM368.413 62H376.531V60.24H371.515C373.341 58.722 375.607 56.698 375.607 54.476C375.607 52.694 374.133 51.352 372.043 51.352C369.931 51.352 368.325 52.738 368.325 52.738L369.205 54.124C369.205 54.124 370.371 53.178 371.647 53.178C372.659 53.178 373.341 53.838 373.341 54.784C373.341 57.138 368.325 60.68 368.325 60.68L368.413 62ZM306.002 92H308.268V85.62H313.438V83.662H308.268V79.218H314.802V77.326H306.002V92ZM315.536 87.182C315.536 89.844 317.23 92.264 320.552 92.264C323.038 92.264 324.556 90.834 324.556 90.834L323.94 89.25C323.94 89.25 322.554 90.482 320.882 90.482C319.144 90.482 318.044 89.316 317.802 87.512L323.236 86.786L324.49 86.434C324.49 83.42 322.774 81.792 320.398 81.792C317.494 81.792 315.536 84.146 315.536 87.182ZM320.244 83.486C321.982 83.486 322.114 85.51 322.114 85.51L317.802 86.06C318 84.608 318.836 83.486 320.244 83.486ZM326.321 87.182C326.321 89.844 328.015 92.264 331.337 92.264C333.823 92.264 335.341 90.834 335.341 90.834L334.725 89.25C334.725 89.25 333.339 90.482 331.667 90.482C329.929 90.482 328.829 89.316 328.587 87.512L334.021 86.786L335.275 86.434C335.275 83.42 333.559 81.792 331.183 81.792C328.279 81.792 326.321 84.146 326.321 87.182ZM331.029 83.486C332.767 83.486 332.899 85.51 332.899 85.51L328.587 86.06C328.785 84.608 329.621 83.486 331.029 83.486ZM337.767 92H339.945V76.27L337.767 76.622V92ZM348.337 92H350.515V85.598C351.175 84.938 352.605 83.684 353.705 83.684C354.453 83.684 354.893 84.212 354.893 85.62V92H357.071V84.828C357.071 82.694 355.993 81.792 354.409 81.792C352.583 81.792 351.175 83.024 350.515 83.728V76.27L348.337 76.622V92ZM359.364 87.072C359.364 89.712 361.146 92.264 364.446 92.264C368.032 92.264 369.616 89.25 369.616 86.83C369.616 84.278 367.834 81.792 364.534 81.792C360.97 81.792 359.364 84.586 359.364 87.072ZM361.63 86.874C361.63 84.894 362.796 83.53 364.49 83.53C366.514 83.53 367.35 85.356 367.35 87.116C367.35 89.118 366.184 90.526 364.512 90.526C362.532 90.526 361.63 88.722 361.63 86.874ZM371.969 97.126L374.147 96.774V91.736C374.565 92.044 375.313 92.264 376.237 92.264C379.405 92.264 381.253 89.668 381.253 86.72C381.253 84.014 379.669 81.792 377.051 81.792C375.489 81.792 374.543 82.606 374.081 83.464V81.88L371.969 82.232V97.126ZM376.677 83.596C378.019 83.596 378.965 84.806 378.965 86.874C378.965 89.25 377.711 90.548 375.841 90.548C374.807 90.548 374.147 90.174 374.147 89.426V85.202C374.433 84.784 375.357 83.596 376.677 83.596ZM383.019 87.182C383.019 89.844 384.713 92.264 388.035 92.264C390.521 92.264 392.039 90.834 392.039 90.834L391.423 89.25C391.423 89.25 390.037 90.482 388.365 90.482C386.627 90.482 385.527 89.316 385.285 87.512L390.719 86.786L391.973 86.434C391.973 83.42 390.257 81.792 387.881 81.792C384.977 81.792 383.019 84.146 383.019 87.182ZM387.727 83.486C389.465 83.486 389.597 85.51 389.597 85.51L385.285 86.06C385.483 84.608 386.319 83.486 387.727 83.486ZM393.474 83.706H395.036V92H397.214V83.706H399.964V82.056H397.214V80.868C397.214 78.536 398.27 77.722 399.436 77.722C400.514 77.722 401.482 78.426 401.482 78.426L402.34 76.754C402.34 76.754 401.196 75.918 399.458 75.918C396.862 75.918 395.036 77.744 395.036 81V81.968L393.474 82.54V83.706ZM401.852 89.272C401.852 91.406 402.952 92.264 404.558 92.264C406.384 92.264 407.77 91.098 408.408 90.416C408.518 91.142 408.738 92.176 408.738 92.176L410.85 91.978C410.85 91.978 410.41 90.152 410.41 88.942V82.056H408.232V88.744C407.616 89.316 406.384 90.372 405.262 90.372C404.448 90.372 404.03 89.822 404.03 88.436V82.056H401.852V89.272ZM413.563 92H415.741V76.27L413.563 76.622V92ZM424.662 89.294C424.662 91.34 425.784 92.264 427.5 92.264C429.26 92.264 430.558 91.208 430.558 91.208L430.008 89.558C429.744 89.712 428.82 90.438 427.984 90.438C427.258 90.438 426.84 89.954 426.84 88.744V83.706H429.986V82.056H426.84V79.24L424.706 79.702V81.968L423.188 82.518V83.706H424.662V89.294ZM432.448 92H434.626V85.598C435.286 84.938 436.716 83.684 437.816 83.684C438.564 83.684 439.004 84.212 439.004 85.62V92H441.182V84.828C441.182 82.694 440.104 81.792 438.52 81.792C436.694 81.792 435.286 83.024 434.626 83.728V76.27L432.448 76.622V92ZM443.321 89.712C443.321 91.186 444.443 92.264 446.181 92.264C448.117 92.264 449.129 91.032 449.393 90.614C449.679 91.406 450.317 92.044 451.835 92.154L452.495 90.438C452.495 90.438 451.395 90.416 451.395 89.184V84.982C451.395 82.76 450.647 81.792 448.293 81.792C445.675 81.792 443.981 83.046 443.981 83.046L444.553 84.674C444.553 84.674 446.071 83.53 447.699 83.53C449.305 83.53 449.217 84.63 449.217 85.884C445.499 86.368 443.321 87.622 443.321 89.712ZM446.731 90.548C446.093 90.548 445.565 90.262 445.565 89.558C445.565 88.392 446.687 87.666 449.217 87.292V89.008C448.557 89.778 447.743 90.548 446.731 90.548ZM455.127 89.294C455.127 91.34 456.249 92.264 457.965 92.264C459.725 92.264 461.023 91.208 461.023 91.208L460.473 89.558C460.209 89.712 459.285 90.438 458.449 90.438C457.723 90.438 457.305 89.954 457.305 88.744V83.706H460.451V82.056H457.305V79.24L455.171 79.702V81.968L453.653 82.518V83.706H455.127V89.294ZM468.66 92H470.926V77.326H468.66V92ZM479.096 87.16C479.096 90.042 481.098 92.264 484.2 92.264C486.576 92.264 487.72 90.988 487.72 90.988L487.016 89.448C487.016 89.448 485.938 90.482 484.354 90.482C482.484 90.482 481.362 89.008 481.362 87.05C481.362 85.026 482.572 83.552 484.376 83.552C485.828 83.552 486.862 84.476 486.862 84.476L487.72 82.848C487.72 82.848 486.51 81.792 484.332 81.792C481.054 81.792 479.096 84.41 479.096 87.16ZM489.083 89.712C489.083 91.186 490.205 92.264 491.943 92.264C493.879 92.264 494.891 91.032 495.155 90.614C495.441 91.406 496.079 92.044 497.597 92.154L498.257 90.438C498.257 90.438 497.157 90.416 497.157 89.184V84.982C497.157 82.76 496.409 81.792 494.055 81.792C491.437 81.792 489.743 83.046 489.743 83.046L490.315 84.674C490.315 84.674 491.833 83.53 493.461 83.53C495.067 83.53 494.979 84.63 494.979 85.884C491.261 86.368 489.083 87.622 489.083 89.712ZM492.493 90.548C491.855 90.548 491.327 90.262 491.327 89.558C491.327 88.392 492.449 87.666 494.979 87.292V89.008C494.319 89.778 493.505 90.548 492.493 90.548ZM500.402 92H502.58V85.554C503.262 84.894 504.67 83.684 505.77 83.684C506.518 83.684 506.958 84.212 506.958 85.62V92H509.136V84.828C509.136 82.694 508.058 81.792 506.496 81.792C504.67 81.792 503.24 83.002 502.536 83.772V81.88L500.402 82.232V92ZM305.474 120.24C305.474 120.922 306.112 121.318 307.102 121.648C306.046 122.198 304.572 123.144 304.572 124.596C304.572 126.334 306.728 127.214 308.928 127.214C311.92 127.214 314.362 125.52 314.362 123.518C314.362 121.692 312.36 121.142 310.6 120.702C308.532 120.196 307.564 119.998 307.564 119.602C307.564 119.36 307.916 119.096 308.378 118.788C308.598 118.832 308.84 118.832 309.104 118.832C311.238 118.832 313.504 117.666 313.504 115.488C313.504 114.608 313.086 114.014 312.778 113.662C313.042 113.706 313.35 113.728 313.592 113.728H314.78L314.626 111.99C314.626 111.99 313.966 112.21 313.306 112.21H312.162C311.062 112.21 310.49 111.792 309.28 111.792C307.058 111.792 305.056 113.046 305.056 115.268C305.056 116.61 305.782 117.776 307.036 118.392C306.222 118.854 305.474 119.514 305.474 120.24ZM309.346 122.22C311.194 122.704 312.228 122.99 312.228 123.848C312.228 124.838 310.82 125.63 309.06 125.63C307.806 125.63 306.53 125.234 306.53 124.244C306.53 123.254 307.74 122.594 308.686 122.066C308.906 122.11 309.126 122.154 309.346 122.22ZM309.258 117.292C307.85 117.292 307.19 116.28 307.19 115.334C307.19 114.3 307.938 113.332 309.258 113.332C310.666 113.332 311.348 114.476 311.348 115.444C311.348 116.566 310.468 117.292 309.258 117.292ZM316.009 117.182C316.009 119.844 317.703 122.264 321.025 122.264C323.511 122.264 325.029 120.834 325.029 120.834L324.413 119.25C324.413 119.25 323.027 120.482 321.355 120.482C319.617 120.482 318.517 119.316 318.275 117.512L323.709 116.786L324.963 116.434C324.963 113.42 323.247 111.792 320.871 111.792C317.967 111.792 316.009 114.146 316.009 117.182ZM320.717 113.486C322.455 113.486 322.587 115.51 322.587 115.51L318.275 116.06C318.473 114.608 319.309 113.486 320.717 113.486ZM327.982 119.294C327.982 121.34 329.104 122.264 330.82 122.264C332.58 122.264 333.878 121.208 333.878 121.208L333.328 119.558C333.064 119.712 332.14 120.438 331.304 120.438C330.578 120.438 330.16 119.954 330.16 118.744V113.706H333.306V112.056H330.16V109.24L328.026 109.702V111.968L326.508 112.518V113.706H327.982V119.294ZM341.01 121.78C341.758 121.956 343.452 122.264 344.64 122.264C348.402 122.264 350.206 119.58 350.206 116.676C350.206 113.948 348.622 111.792 345.872 111.792C344.508 111.792 343.694 112.342 343.188 112.914V106.27L341.01 106.622V121.78ZM345.52 113.552C346.972 113.552 347.962 114.762 347.962 116.83C347.962 119.294 346.576 120.614 344.684 120.614C343.87 120.614 343.188 120.394 343.188 120.394V114.586C343.65 114.168 344.486 113.552 345.52 113.552ZM351.819 119.712C351.819 121.186 352.941 122.264 354.679 122.264C356.615 122.264 357.627 121.032 357.891 120.614C358.177 121.406 358.815 122.044 360.333 122.154L360.993 120.438C360.993 120.438 359.893 120.416 359.893 119.184V114.982C359.893 112.76 359.145 111.792 356.791 111.792C354.173 111.792 352.479 113.046 352.479 113.046L353.051 114.674C353.051 114.674 354.569 113.53 356.197 113.53C357.803 113.53 357.715 114.63 357.715 115.884C353.997 116.368 351.819 117.622 351.819 119.712ZM355.229 120.548C354.591 120.548 354.063 120.262 354.063 119.558C354.063 118.392 355.185 117.666 357.715 117.292V119.008C357.055 119.778 356.241 120.548 355.229 120.548ZM362.501 117.16C362.501 120.042 364.503 122.264 367.605 122.264C369.981 122.264 371.125 120.988 371.125 120.988L370.421 119.448C370.421 119.448 369.343 120.482 367.759 120.482C365.889 120.482 364.767 119.008 364.767 117.05C364.767 115.026 365.977 113.552 367.781 113.552C369.233 113.552 370.267 114.476 370.267 114.476L371.125 112.848C371.125 112.848 369.915 111.792 367.737 111.792C364.459 111.792 362.501 114.41 362.501 117.16ZM373.323 122H375.501V117.292H375.809L379.769 122H382.563L377.723 116.412L382.255 112.056H379.417L375.809 115.686H375.501V106.27L373.323 106.622V122ZM388.797 117.072C388.797 119.712 390.579 122.264 393.879 122.264C397.465 122.264 399.049 119.25 399.049 116.83C399.049 114.278 397.267 111.792 393.967 111.792C390.403 111.792 388.797 114.586 388.797 117.072ZM391.063 116.874C391.063 114.894 392.229 113.53 393.923 113.53C395.947 113.53 396.783 115.356 396.783 117.116C396.783 119.118 395.617 120.526 393.945 120.526C391.965 120.526 391.063 118.722 391.063 116.874ZM401.402 122H403.58V115.554C404.262 114.894 405.67 113.684 406.77 113.684C407.518 113.684 407.958 114.212 407.958 115.62V122H410.136V114.828C410.136 112.694 409.058 111.792 407.496 111.792C405.67 111.792 404.24 113.002 403.536 113.772V111.88L401.402 112.232V122ZM418.925 119.294C418.925 121.34 420.047 122.264 421.763 122.264C423.523 122.264 424.821 121.208 424.821 121.208L424.271 119.558C424.007 119.712 423.083 120.438 422.247 120.438C421.521 120.438 421.103 119.954 421.103 118.744V113.706H424.249V112.056H421.103V109.24L418.969 109.702V111.968L417.451 112.518V113.706H418.925V119.294ZM426.668 122H428.846V115.84C429.264 115.18 430.166 113.992 431.266 113.992C431.706 113.992 432.146 114.168 432.146 114.168L432.586 111.968C432.586 111.968 432.278 111.792 431.728 111.792C430.21 111.792 429.198 113.2 428.802 113.882V111.88L426.668 112.232V122ZM433.524 119.712C433.524 121.186 434.646 122.264 436.384 122.264C438.32 122.264 439.332 121.032 439.596 120.614C439.882 121.406 440.52 122.044 442.038 122.154L442.698 120.438C442.698 120.438 441.598 120.416 441.598 119.184V114.982C441.598 112.76 440.85 111.792 438.496 111.792C435.878 111.792 434.184 113.046 434.184 113.046L434.756 114.674C434.756 114.674 436.274 113.53 437.902 113.53C439.508 113.53 439.42 114.63 439.42 115.884C435.702 116.368 433.524 117.622 433.524 119.712ZM436.934 120.548C436.296 120.548 435.768 120.262 435.768 119.558C435.768 118.392 436.89 117.666 439.42 117.292V119.008C438.76 119.778 437.946 120.548 436.934 120.548ZM444.206 117.16C444.206 120.042 446.208 122.264 449.31 122.264C451.686 122.264 452.83 120.988 452.83 120.988L452.126 119.448C452.126 119.448 451.048 120.482 449.464 120.482C447.594 120.482 446.472 119.008 446.472 117.05C446.472 115.026 447.682 113.552 449.486 113.552C450.938 113.552 451.972 114.476 451.972 114.476L452.83 112.848C452.83 112.848 451.62 111.792 449.442 111.792C446.164 111.792 444.206 114.41 444.206 117.16ZM455.028 122H457.206V117.292H457.514L461.474 122H464.268L459.428 116.412L463.96 112.056H461.122L457.514 115.686H457.206V106.27L455.028 106.622V122ZM304.704 149.712C304.704 151.186 305.826 152.264 307.564 152.264C309.5 152.264 310.512 151.032 310.776 150.614C311.062 151.406 311.7 152.044 313.218 152.154L313.878 150.438C313.878 150.438 312.778 150.416 312.778 149.184V144.982C312.778 142.76 312.03 141.792 309.676 141.792C307.058 141.792 305.364 143.046 305.364 143.046L305.936 144.674C305.936 144.674 307.454 143.53 309.082 143.53C310.688 143.53 310.6 144.63 310.6 145.884C306.882 146.368 304.704 147.622 304.704 149.712ZM308.114 150.548C307.476 150.548 306.948 150.262 306.948 149.558C306.948 148.392 308.07 147.666 310.6 147.292V149.008C309.94 149.778 309.126 150.548 308.114 150.548ZM315.077 143.706H316.639V152H318.817V143.706H321.567V142.056H318.817V140.868C318.817 138.536 319.873 137.722 321.039 137.722C322.117 137.722 323.085 138.426 323.085 138.426L323.943 136.754C323.943 136.754 322.799 135.918 321.061 135.918C318.465 135.918 316.639 137.744 316.639 141V141.968L315.077 142.54V143.706ZM324.093 149.294C324.093 151.34 325.215 152.264 326.931 152.264C328.691 152.264 329.989 151.208 329.989 151.208L329.439 149.558C329.175 149.712 328.251 150.438 327.415 150.438C326.689 150.438 326.271 149.954 326.271 148.744V143.706H329.417V142.056H326.271V139.24L324.137 139.702V141.968L322.619 142.518V143.706H324.093V149.294ZM331.22 147.182C331.22 149.844 332.914 152.264 336.236 152.264C338.722 152.264 340.24 150.834 340.24 150.834L339.624 149.25C339.624 149.25 338.238 150.482 336.566 150.482C334.828 150.482 333.728 149.316 333.486 147.512L338.92 146.786L340.174 146.434C340.174 143.42 338.458 141.792 336.082 141.792C333.178 141.792 331.22 144.146 331.22 147.182ZM335.928 143.486C337.666 143.486 337.798 145.51 337.798 145.51L333.486 146.06C333.684 144.608 334.52 143.486 335.928 143.486ZM342.621 152H344.799V145.84C345.217 145.18 346.119 143.992 347.219 143.992C347.659 143.992 348.099 144.168 348.099 144.168L348.539 141.968C348.539 141.968 348.231 141.792 347.681 141.792C346.163 141.792 345.151 143.2 344.755 143.882V141.88L342.621 142.232V152ZM354.763 149.712C354.763 151.186 355.885 152.264 357.623 152.264C359.559 152.264 360.571 151.032 360.835 150.614C361.121 151.406 361.759 152.044 363.277 152.154L363.937 150.438C363.937 150.438 362.837 150.416 362.837 149.184V144.982C362.837 142.76 362.089 141.792 359.735 141.792C357.117 141.792 355.423 143.046 355.423 143.046L355.995 144.674C355.995 144.674 357.513 143.53 359.141 143.53C360.747 143.53 360.659 144.63 360.659 145.884C356.941 146.368 354.763 147.622 354.763 149.712ZM358.173 150.548C357.535 150.548 357.007 150.262 357.007 149.558C357.007 148.392 358.129 147.666 360.659 147.292V149.008C359.999 149.778 359.185 150.548 358.173 150.548ZM371.367 152H373.545V145.84C373.963 145.18 374.865 143.992 375.965 143.992C376.405 143.992 376.845 144.168 376.845 144.168L377.285 141.968C377.285 141.968 376.977 141.792 376.427 141.792C374.909 141.792 373.897 143.2 373.501 143.882V141.88L371.367 142.232V152ZM378.228 147.182C378.228 149.844 379.922 152.264 383.244 152.264C385.73 152.264 387.248 150.834 387.248 150.834L386.632 149.25C386.632 149.25 385.246 150.482 383.574 150.482C381.836 150.482 380.736 149.316 380.494 147.512L385.928 146.786L387.182 146.434C387.182 143.42 385.466 141.792 383.09 141.792C380.186 141.792 378.228 144.146 378.228 147.182ZM382.936 143.486C384.674 143.486 384.806 145.51 384.806 145.51L380.494 146.06C380.692 144.608 381.528 143.486 382.936 143.486ZM389.673 152H391.851V136.27L389.673 136.622V152ZM394.122 149.712C394.122 151.186 395.244 152.264 396.982 152.264C398.918 152.264 399.93 151.032 400.194 150.614C400.48 151.406 401.118 152.044 402.636 152.154L403.296 150.438C403.296 150.438 402.196 150.416 402.196 149.184V144.982C402.196 142.76 401.448 141.792 399.094 141.792C396.476 141.792 394.782 143.046 394.782 143.046L395.354 144.674C395.354 144.674 396.872 143.53 398.5 143.53C400.106 143.53 400.018 144.63 400.018 145.884C396.3 146.368 394.122 147.622 394.122 149.712ZM397.532 150.548C396.894 150.548 396.366 150.262 396.366 149.558C396.366 148.392 397.488 147.666 400.018 147.292V149.008C399.358 149.778 398.544 150.548 397.532 150.548ZM405.441 157.126L407.619 156.774V151.736C408.037 152.044 408.785 152.264 409.709 152.264C412.877 152.264 414.725 149.668 414.725 146.72C414.725 144.014 413.141 141.792 410.523 141.792C408.961 141.792 408.015 142.606 407.553 143.464V141.88L405.441 142.232V157.126ZM410.149 143.596C411.491 143.596 412.437 144.806 412.437 146.874C412.437 149.25 411.183 150.548 409.313 150.548C408.279 150.548 407.619 150.174 407.619 149.426V145.202C407.905 144.784 408.829 143.596 410.149 143.596ZM416.447 151.384C416.447 151.384 417.679 152.264 419.747 152.264C422.189 152.264 423.619 151.054 423.619 149.25C423.619 146.082 418.845 146.236 418.845 144.498C418.845 143.926 419.329 143.508 420.429 143.508C421.705 143.508 422.849 144.124 422.849 144.124L423.355 142.342C423.355 142.342 422.255 141.792 420.517 141.792C417.767 141.792 416.667 143.134 416.667 144.674C416.667 147.798 421.441 147.666 421.441 149.448C421.441 150.086 420.891 150.548 419.725 150.548C418.119 150.548 416.909 149.536 416.909 149.536L416.447 151.384ZM425.343 147.182C425.343 149.844 427.037 152.264 430.359 152.264C432.845 152.264 434.363 150.834 434.363 150.834L433.747 149.25C433.747 149.25 432.361 150.482 430.689 150.482C428.951 150.482 427.851 149.316 427.609 147.512L433.043 146.786L434.297 146.434C434.297 143.42 432.581 141.792 430.205 141.792C427.301 141.792 425.343 144.146 425.343 147.182ZM430.051 143.486C431.789 143.486 431.921 145.51 431.921 145.51L427.609 146.06C427.807 144.608 428.643 143.486 430.051 143.486Z" fill="#333333"/>
<path d="M559.99 54.894C559.99 59.448 563.554 62.264 567.998 62.264C570.176 62.264 573.08 61.582 573.08 61.582V54.256H567.778V56.148H570.836V59.998C570.836 59.998 569.538 60.306 568.262 60.306C564.742 60.306 562.344 58.04 562.344 54.718C562.344 51.748 564.258 49.02 567.998 49.02C570.396 49.02 572.156 50.12 572.156 50.12L573.036 48.162C573.036 48.162 571.078 47.062 568.108 47.062C562.916 47.062 559.99 50.758 559.99 54.894ZM575.437 54.696C575.437 58.744 578.451 62.264 583.093 62.264C587.889 62.264 591.013 58.502 591.013 54.388C591.013 50.34 588.021 47.062 583.291 47.062C578.253 47.062 575.437 50.824 575.437 54.696ZM577.835 54.586C577.835 51.77 579.749 48.998 583.225 48.998C586.701 48.998 588.615 51.726 588.615 54.564C588.615 57.424 586.613 60.328 583.159 60.328C579.683 60.328 577.835 57.314 577.835 54.586ZM592.048 62H594.314L595.744 58.084H601.596L603.048 62H605.38L599.792 47.216H597.636L592.048 62ZM598.67 50.12L600.914 56.192H596.448L598.67 50.12ZM607.602 62H616.732V60.108H609.868V47.326H607.602V62ZM622.885 64.552L623.061 66.246C623.281 66.268 623.479 66.268 623.677 66.268C627.461 66.268 630.343 64.398 630.343 61.472C630.343 59.8 629.265 58.458 627.285 57.974C628.583 57.27 629.969 55.994 629.969 54.3C629.969 52.584 628.473 51.352 626.471 51.352C624.337 51.352 622.731 52.738 622.731 52.738L623.677 54.124C623.677 54.124 624.953 53.178 626.141 53.178C627.043 53.178 627.725 53.728 627.725 54.608C627.725 56.104 625.789 57.49 624.249 57.622V59.316H624.777C626.317 59.316 628.077 59.822 628.077 61.538C628.077 63.54 626.031 64.574 623.589 64.574C623.347 64.574 623.127 64.574 622.885 64.552ZM561.002 92H566.062C569.01 92 571.078 90.328 571.078 87.732C571.078 85.4 569.384 84.432 568.526 84.08C569.296 83.486 570.286 82.408 570.286 80.846C570.286 79.152 569.098 77.326 565.314 77.326H561.002V92ZM563.268 90.108V85.422H565.732C567.778 85.422 568.68 86.412 568.68 87.776C568.68 89.162 567.778 90.108 565.732 90.108H563.268ZM563.268 79.218H564.984C567.272 79.218 567.888 80.12 567.888 81.22C567.888 82.804 566.48 83.552 566.48 83.552H563.268V79.218ZM572.943 87.182C572.943 89.844 574.637 92.264 577.959 92.264C580.445 92.264 581.963 90.834 581.963 90.834L581.347 89.25C581.347 89.25 579.961 90.482 578.289 90.482C576.551 90.482 575.451 89.316 575.209 87.512L580.643 86.786L581.897 86.434C581.897 83.42 580.181 81.792 577.805 81.792C574.901 81.792 572.943 84.146 572.943 87.182ZM577.651 83.486C579.389 83.486 579.521 85.51 579.521 85.51L575.209 86.06C575.407 84.608 576.243 83.486 577.651 83.486ZM584.388 92H586.566V76.27L584.388 76.622V92ZM590.773 79.68C591.565 79.68 592.159 79.108 592.159 78.338C592.159 77.568 591.565 76.996 590.773 76.996C590.003 76.996 589.409 77.568 589.409 78.338C589.409 79.108 590.003 79.68 590.773 79.68ZM589.673 92H591.851V82.056H589.673V92ZM594.298 87.182C594.298 89.844 595.992 92.264 599.314 92.264C601.8 92.264 603.318 90.834 603.318 90.834L602.702 89.25C602.702 89.25 601.316 90.482 599.644 90.482C597.906 90.482 596.806 89.316 596.564 87.512L601.998 86.786L603.252 86.434C603.252 83.42 601.536 81.792 599.16 81.792C596.256 81.792 594.298 84.146 594.298 87.182ZM599.006 83.486C600.744 83.486 600.876 85.51 600.876 85.51L596.564 86.06C596.762 84.608 597.598 83.486 599.006 83.486ZM608.097 92.088H610.121L614.213 82.056H611.991L609.197 89.272L606.777 82.056H604.489L608.097 92.088ZM615.224 87.182C615.224 89.844 616.918 92.264 620.24 92.264C622.726 92.264 624.244 90.834 624.244 90.834L623.628 89.25C623.628 89.25 622.242 90.482 620.57 90.482C618.832 90.482 617.732 89.316 617.49 87.512L622.924 86.786L624.178 86.434C624.178 83.42 622.462 81.792 620.086 81.792C617.182 81.792 615.224 84.146 615.224 87.182ZM619.932 83.486C621.67 83.486 621.802 85.51 621.802 85.51L617.49 86.06C617.688 84.608 618.524 83.486 619.932 83.486ZM632.482 89.294C632.482 91.34 633.604 92.264 635.32 92.264C637.08 92.264 638.378 91.208 638.378 91.208L637.828 89.558C637.564 89.712 636.64 90.438 635.804 90.438C635.078 90.438 634.66 89.954 634.66 88.744V83.706H637.806V82.056H634.66V79.24L632.526 79.702V81.968L631.008 82.518V83.706H632.482V89.294ZM640.269 92H642.447V85.598C643.107 84.938 644.537 83.684 645.637 83.684C646.385 83.684 646.825 84.212 646.825 85.62V92H649.003V84.828C649.003 82.694 647.925 81.792 646.341 81.792C644.515 81.792 643.107 83.024 642.447 83.728V76.27L640.269 76.622V92ZM651.142 89.712C651.142 91.186 652.264 92.264 654.002 92.264C655.938 92.264 656.95 91.032 657.214 90.614C657.5 91.406 658.138 92.044 659.656 92.154L660.316 90.438C660.316 90.438 659.216 90.416 659.216 89.184V84.982C659.216 82.76 658.468 81.792 656.114 81.792C653.496 81.792 651.802 83.046 651.802 83.046L652.374 84.674C652.374 84.674 653.892 83.53 655.52 83.53C657.126 83.53 657.038 84.63 657.038 85.884C653.32 86.368 651.142 87.622 651.142 89.712ZM654.552 90.548C653.914 90.548 653.386 90.262 653.386 89.558C653.386 88.392 654.508 87.666 657.038 87.292V89.008C656.378 89.778 655.564 90.548 654.552 90.548ZM662.947 89.294C662.947 91.34 664.069 92.264 665.785 92.264C667.545 92.264 668.843 91.208 668.843 91.208L668.293 89.558C668.029 89.712 667.105 90.438 666.269 90.438C665.543 90.438 665.125 89.954 665.125 88.744V83.706H668.271V82.056H665.125V79.24L662.991 79.702V81.968L661.473 82.518V83.706H662.947V89.294ZM680.485 82.144L682.399 81.066C681.365 79.966 681.079 79.35 681.079 78.646C681.079 77.876 681.453 77.194 682.289 76.556L681.453 75.676C680.045 76.754 679.319 78.074 679.319 79.394C679.319 80.34 679.649 81.242 680.485 82.144ZM676.635 82.144L678.549 81.066C677.515 79.966 677.229 79.35 677.229 78.646C677.229 77.876 677.603 77.194 678.439 76.556L677.603 75.676C676.195 76.754 675.469 78.074 675.469 79.394C675.469 80.34 675.799 81.242 676.635 82.144ZM685.096 92H687.362V77.326H685.096V92ZM695.532 87.16C695.532 90.042 697.534 92.264 700.636 92.264C703.012 92.264 704.156 90.988 704.156 90.988L703.452 89.448C703.452 89.448 702.374 90.482 700.79 90.482C698.92 90.482 697.798 89.008 697.798 87.05C697.798 85.026 699.008 83.552 700.812 83.552C702.264 83.552 703.298 84.476 703.298 84.476L704.156 82.848C704.156 82.848 702.946 81.792 700.768 81.792C697.49 81.792 695.532 84.41 695.532 87.16ZM705.518 89.712C705.518 91.186 706.64 92.264 708.378 92.264C710.314 92.264 711.326 91.032 711.59 90.614C711.876 91.406 712.514 92.044 714.032 92.154L714.692 90.438C714.692 90.438 713.592 90.416 713.592 89.184V84.982C713.592 82.76 712.844 81.792 710.49 81.792C707.872 81.792 706.178 83.046 706.178 83.046L706.75 84.674C706.75 84.674 708.268 83.53 709.896 83.53C711.502 83.53 711.414 84.63 711.414 85.884C707.696 86.368 705.518 87.622 705.518 89.712ZM708.928 90.548C708.29 90.548 707.762 90.262 707.762 89.558C707.762 88.392 708.884 87.666 711.414 87.292V89.008C710.754 89.778 709.94 90.548 708.928 90.548ZM716.838 92H719.016V85.554C719.698 84.894 721.106 83.684 722.206 83.684C722.954 83.684 723.394 84.212 723.394 85.62V92H725.572V84.828C725.572 82.694 724.494 81.792 722.932 81.792C721.106 81.792 719.676 83.002 718.972 83.772V81.88L716.838 82.232V92ZM733.173 87.336C733.173 90.064 734.845 92.264 737.441 92.264C739.025 92.264 740.037 91.494 740.565 90.636C740.675 91.34 740.873 92.154 740.873 92.154L742.963 92C742.963 92 742.523 90.152 742.523 88.942V76.27L740.345 76.622V82.122C740.059 82.012 739.399 81.792 738.497 81.792C734.977 81.792 733.173 84.498 733.173 87.336ZM737.815 90.526C736.407 90.526 735.461 89.272 735.461 87.204C735.461 84.828 736.715 83.508 738.607 83.508C739.509 83.508 740.301 83.838 740.345 84.828V88.92C740.037 89.382 739.157 90.526 737.815 90.526ZM744.967 87.072C744.967 89.712 746.749 92.264 750.049 92.264C753.635 92.264 755.219 89.25 755.219 86.83C755.219 84.278 753.437 81.792 750.137 81.792C746.573 81.792 744.967 84.586 744.967 87.072ZM747.233 86.874C747.233 84.894 748.399 83.53 750.093 83.53C752.117 83.53 752.953 85.356 752.953 87.116C752.953 89.118 751.787 90.526 750.115 90.526C748.135 90.526 747.233 88.722 747.233 86.874ZM561.068 119.294C561.068 121.34 562.19 122.264 563.906 122.264C565.666 122.264 566.964 121.208 566.964 121.208L566.414 119.558C566.15 119.712 565.226 120.438 564.39 120.438C563.664 120.438 563.246 119.954 563.246 118.744V113.706H566.392V112.056H563.246V109.24L561.112 109.702V111.968L559.594 112.518V113.706H561.068V119.294ZM568.854 122H571.032V115.598C571.692 114.938 573.122 113.684 574.222 113.684C574.97 113.684 575.41 114.212 575.41 115.62V122H577.588V114.828C577.588 112.694 576.51 111.792 574.926 111.792C573.1 111.792 571.692 113.024 571.032 113.728V106.27L568.854 106.622V122ZM581.663 109.68C582.455 109.68 583.049 109.108 583.049 108.338C583.049 107.568 582.455 106.996 581.663 106.996C580.893 106.996 580.299 107.568 580.299 108.338C580.299 109.108 580.893 109.68 581.663 109.68ZM580.563 122H582.741V112.056H580.563V122ZM585.145 121.384C585.145 121.384 586.377 122.264 588.445 122.264C590.887 122.264 592.317 121.054 592.317 119.25C592.317 116.082 587.543 116.236 587.543 114.498C587.543 113.926 588.027 113.508 589.127 113.508C590.403 113.508 591.547 114.124 591.547 114.124L592.053 112.342C592.053 112.342 590.953 111.792 589.215 111.792C586.465 111.792 585.365 113.134 585.365 114.674C585.365 117.798 590.139 117.666 590.139 119.448C590.139 120.086 589.589 120.548 588.423 120.548C586.817 120.548 585.607 119.536 585.607 119.536L585.145 121.384ZM598.66 112.144C600.068 111.044 600.794 109.746 600.794 108.404C600.794 107.458 600.464 106.556 599.628 105.676L597.714 106.732C598.748 107.832 599.034 108.448 599.034 109.152C599.034 109.922 598.66 110.604 597.824 111.242L598.66 112.144ZM594.81 112.144C596.218 111.044 596.944 109.746 596.944 108.404C596.944 107.458 596.614 106.556 595.778 105.676L593.842 106.732C594.898 107.832 595.184 108.448 595.184 109.152C595.184 109.922 594.81 110.604 593.974 111.242L594.81 112.144ZM610.518 122.088H612.63L615.182 115.004L617.47 122.088H619.604L623.168 112.056H620.946L618.548 119.536L616.216 112.056H614.324L611.75 119.58L609.572 112.056H607.328L610.518 122.088ZM626.136 109.68C626.928 109.68 627.522 109.108 627.522 108.338C627.522 107.568 626.928 106.996 626.136 106.996C625.366 106.996 624.772 107.568 624.772 108.338C624.772 109.108 625.366 109.68 626.136 109.68ZM625.036 122H627.214V112.056H625.036V122ZM630.849 119.294C630.849 121.34 631.971 122.264 633.687 122.264C635.447 122.264 636.745 121.208 636.745 121.208L636.195 119.558C635.931 119.712 635.007 120.438 634.171 120.438C633.445 120.438 633.027 119.954 633.027 118.744V113.706H636.173V112.056H633.027V109.24L630.893 109.702V111.968L629.375 112.518V113.706H630.849V119.294ZM638.636 122H640.814V115.598C641.474 114.938 642.904 113.684 644.004 113.684C644.752 113.684 645.192 114.212 645.192 115.62V122H647.37V114.828C647.37 112.694 646.292 111.792 644.708 111.792C642.882 111.792 641.474 113.024 640.814 113.728V106.27L638.636 106.622V122ZM656.158 119.294C656.158 121.34 657.28 122.264 658.996 122.264C660.756 122.264 662.054 121.208 662.054 121.208L661.504 119.558C661.24 119.712 660.316 120.438 659.48 120.438C658.754 120.438 658.336 119.954 658.336 118.744V113.706H661.482V112.056H658.336V109.24L656.202 109.702V111.968L654.684 112.518V113.706H656.158V119.294ZM663.944 122H666.122V115.598C666.782 114.938 668.212 113.684 669.312 113.684C670.06 113.684 670.5 114.212 670.5 115.62V122H672.678V114.828C672.678 112.694 671.6 111.792 670.016 111.792C668.19 111.792 666.782 113.024 666.122 113.728V106.27L663.944 106.622V122ZM674.993 117.182C674.993 119.844 676.687 122.264 680.009 122.264C682.495 122.264 684.013 120.834 684.013 120.834L683.397 119.25C683.397 119.25 682.011 120.482 680.339 120.482C678.601 120.482 677.501 119.316 677.259 117.512L682.693 116.786L683.947 116.434C683.947 113.42 682.231 111.792 679.855 111.792C676.951 111.792 674.993 114.146 674.993 117.182ZM679.701 113.486C681.439 113.486 681.571 115.51 681.571 115.51L677.259 116.06C677.457 114.608 678.293 113.486 679.701 113.486ZM691.68 122H693.858V115.84C694.276 115.18 695.178 113.992 696.278 113.992C696.718 113.992 697.158 114.168 697.158 114.168L697.598 111.968C697.598 111.968 697.29 111.792 696.74 111.792C695.222 111.792 694.21 113.2 693.814 113.882V111.88L691.68 112.232V122ZM700.472 109.68C701.264 109.68 701.858 109.108 701.858 108.338C701.858 107.568 701.264 106.996 700.472 106.996C699.702 106.996 699.108 107.568 699.108 108.338C699.108 109.108 699.702 109.68 700.472 109.68ZM699.372 122H701.55V112.056H699.372V122ZM704.591 120.24C704.591 120.922 705.229 121.318 706.219 121.648C705.163 122.198 703.689 123.144 703.689 124.596C703.689 126.334 705.845 127.214 708.045 127.214C711.037 127.214 713.479 125.52 713.479 123.518C713.479 121.692 711.477 121.142 709.717 120.702C707.649 120.196 706.681 119.998 706.681 119.602C706.681 119.36 707.033 119.096 707.495 118.788C707.715 118.832 707.957 118.832 708.221 118.832C710.355 118.832 712.621 117.666 712.621 115.488C712.621 114.608 712.203 114.014 711.895 113.662C712.159 113.706 712.467 113.728 712.709 113.728H713.897L713.743 111.99C713.743 111.99 713.083 112.21 712.423 112.21H711.279C710.179 112.21 709.607 111.792 708.397 111.792C706.175 111.792 704.173 113.046 704.173 115.268C704.173 116.61 704.899 117.776 706.153 118.392C705.339 118.854 704.591 119.514 704.591 120.24ZM708.463 122.22C710.311 122.704 711.345 122.99 711.345 123.848C711.345 124.838 709.937 125.63 708.177 125.63C706.923 125.63 705.647 125.234 705.647 124.244C705.647 123.254 706.857 122.594 707.803 122.066C708.023 122.11 708.243 122.154 708.463 122.22ZM708.375 117.292C706.967 117.292 706.307 116.28 706.307 115.334C706.307 114.3 707.055 113.332 708.375 113.332C709.783 113.332 710.465 114.476 710.465 115.444C710.465 116.566 709.585 117.292 708.375 117.292ZM715.786 122H717.964V115.598C718.624 114.938 720.054 113.684 721.154 113.684C721.902 113.684 722.342 114.212 722.342 115.62V122H724.52V114.828C724.52 112.694 723.442 111.792 721.858 111.792C720.032 111.792 718.624 113.024 717.964 113.728V106.27L715.786 106.622V122ZM728.023 119.294C728.023 121.34 729.145 122.264 730.861 122.264C732.621 122.264 733.919 121.208 733.919 121.208L733.369 119.558C733.105 119.712 732.181 120.438 731.345 120.438C730.619 120.438 730.201 119.954 730.201 118.744V113.706H733.347V112.056H730.201V109.24L728.067 109.702V111.968L726.549 112.518V113.706H728.023V119.294ZM559.836 151.384C559.836 151.384 561.068 152.264 563.136 152.264C565.578 152.264 567.008 151.054 567.008 149.25C567.008 146.082 562.234 146.236 562.234 144.498C562.234 143.926 562.718 143.508 563.818 143.508C565.094 143.508 566.238 144.124 566.238 144.124L566.744 142.342C566.744 142.342 565.644 141.792 563.906 141.792C561.156 141.792 560.056 143.134 560.056 144.674C560.056 147.798 564.83 147.666 564.83 149.448C564.83 150.086 564.28 150.548 563.114 150.548C561.508 150.548 560.298 149.536 560.298 149.536L559.836 151.384ZM569.282 149.272C569.282 151.406 570.382 152.264 571.988 152.264C573.814 152.264 575.2 151.098 575.838 150.416C575.948 151.142 576.168 152.176 576.168 152.176L578.28 151.978C578.28 151.978 577.84 150.152 577.84 148.942V142.056H575.662V148.744C575.046 149.316 573.814 150.372 572.692 150.372C571.878 150.372 571.46 149.822 571.46 148.436V142.056H569.282V149.272ZM580.949 157.126L583.127 156.774V151.736C583.545 152.044 584.293 152.264 585.217 152.264C588.385 152.264 590.233 149.668 590.233 146.72C590.233 144.014 588.649 141.792 586.031 141.792C584.469 141.792 583.523 142.606 583.061 143.464V141.88L580.949 142.232V157.126ZM585.657 143.596C586.999 143.596 587.945 144.806 587.945 146.874C587.945 149.25 586.691 150.548 584.821 150.548C583.787 150.548 583.127 150.174 583.127 149.426V145.202C583.413 144.784 584.337 143.596 585.657 143.596ZM592.615 157.126L594.793 156.774V151.736C595.211 152.044 595.959 152.264 596.883 152.264C600.051 152.264 601.899 149.668 601.899 146.72C601.899 144.014 600.315 141.792 597.697 141.792C596.135 141.792 595.189 142.606 594.727 143.464V141.88L592.615 142.232V157.126ZM597.323 143.596C598.665 143.596 599.611 144.806 599.611 146.874C599.611 149.25 598.357 150.548 596.487 150.548C595.453 150.548 594.793 150.174 594.793 149.426V145.202C595.079 144.784 596.003 143.596 597.323 143.596ZM603.643 147.072C603.643 149.712 605.425 152.264 608.725 152.264C612.311 152.264 613.895 149.25 613.895 146.83C613.895 144.278 612.113 141.792 608.813 141.792C605.249 141.792 603.643 144.586 603.643 147.072ZM605.909 146.874C605.909 144.894 607.075 143.53 608.769 143.53C610.793 143.53 611.629 145.356 611.629 147.116C611.629 149.118 610.463 150.526 608.791 150.526C606.811 150.526 605.909 148.722 605.909 146.874ZM616.248 152H618.426V145.84C618.844 145.18 619.746 143.992 620.846 143.992C621.286 143.992 621.726 144.168 621.726 144.168L622.166 141.968C622.166 141.968 621.858 141.792 621.308 141.792C619.79 141.792 618.778 143.2 618.382 143.882V141.88L616.248 142.232V152ZM624.468 149.294C624.468 151.34 625.59 152.264 627.306 152.264C629.066 152.264 630.364 151.208 630.364 151.208L629.814 149.558C629.55 149.712 628.626 150.438 627.79 150.438C627.064 150.438 626.646 149.954 626.646 148.744V143.706H629.792V142.056H626.646V139.24L624.512 139.702V141.968L622.994 142.518V143.706H624.468V149.294ZM631.925 150.79C631.925 151.604 632.585 152.264 633.399 152.264C634.213 152.264 634.895 151.604 634.895 150.79C634.895 149.954 634.213 149.294 633.399 149.294C632.585 149.294 631.925 149.954 631.925 150.79Z" fill="#333333"/>
<path d="M811.99 55.894C811.99 60.448 815.554 63.264 819.998 63.264C822.176 63.264 825.08 62.582 825.08 62.582V55.256H819.778V57.148H822.836V60.998C822.836 60.998 821.538 61.306 820.262 61.306C816.742 61.306 814.344 59.04 814.344 55.718C814.344 52.748 816.258 50.02 819.998 50.02C822.396 50.02 824.156 51.12 824.156 51.12L825.036 49.162C825.036 49.162 823.078 48.062 820.108 48.062C814.916 48.062 811.99 51.758 811.99 55.894ZM827.437 55.696C827.437 59.744 830.451 63.264 835.093 63.264C839.889 63.264 843.013 59.502 843.013 55.388C843.013 51.34 840.021 48.062 835.291 48.062C830.253 48.062 827.437 51.824 827.437 55.696ZM829.835 55.586C829.835 52.77 831.749 49.998 835.225 49.998C838.701 49.998 840.615 52.726 840.615 55.564C840.615 58.424 838.613 61.328 835.159 61.328C831.683 61.328 829.835 58.314 829.835 55.586ZM844.048 63H846.314L847.744 59.084H853.596L855.048 63H857.38L851.792 48.216H849.636L844.048 63ZM850.67 51.12L852.914 57.192H848.448L850.67 51.12ZM859.602 63H868.732V61.108H861.868V48.326H859.602V63ZM874.929 62.56H881.111V67.246H883.245V62.56H885.291V60.866H883.245V52.44H881.177L874.929 61.108V62.56ZM877.151 60.866L881.111 55.256V60.866H877.151ZM813.002 93H815.268V87.104H817.534L821.45 93H824.134L819.822 86.576C821.296 85.894 822.638 84.508 822.638 82.506C822.638 80.284 821.098 78.326 817.314 78.326H813.002V93ZM815.268 85.212V80.218H816.94C819.382 80.218 820.24 81.34 820.24 82.66C820.24 84.288 818.92 85.212 817.27 85.212H815.268ZM824.921 88.182C824.921 90.844 826.615 93.264 829.937 93.264C832.423 93.264 833.941 91.834 833.941 91.834L833.325 90.25C833.325 90.25 831.939 91.482 830.267 91.482C828.529 91.482 827.429 90.316 827.187 88.512L832.621 87.786L833.875 87.434C833.875 84.42 832.159 82.792 829.783 82.792C826.879 82.792 824.921 85.146 824.921 88.182ZM829.629 84.486C831.367 84.486 831.499 86.51 831.499 86.51L827.187 87.06C827.385 85.608 828.221 84.486 829.629 84.486ZM835.53 90.712C835.53 92.186 836.652 93.264 838.39 93.264C840.326 93.264 841.338 92.032 841.602 91.614C841.888 92.406 842.526 93.044 844.044 93.154L844.704 91.438C844.704 91.438 843.604 91.416 843.604 90.184V85.982C843.604 83.76 842.856 82.792 840.502 82.792C837.884 82.792 836.19 84.046 836.19 84.046L836.762 85.674C836.762 85.674 838.28 84.53 839.908 84.53C841.514 84.53 841.426 85.63 841.426 86.884C837.708 87.368 835.53 88.622 835.53 90.712ZM838.94 91.548C838.302 91.548 837.774 91.262 837.774 90.558C837.774 89.392 838.896 88.666 841.426 88.292V90.008C840.766 90.778 839.952 91.548 838.94 91.548ZM846.894 93H849.072V77.27L846.894 77.622V93ZM853.279 80.68C854.071 80.68 854.665 80.108 854.665 79.338C854.665 78.568 854.071 77.996 853.279 77.996C852.509 77.996 851.915 78.568 851.915 79.338C851.915 80.108 852.509 80.68 853.279 80.68ZM852.179 93H854.357V83.056H852.179V93ZM856.782 93H864.768V91.24H859.532L864.592 84.376V83.056H856.958V84.816H861.732L856.782 91.68V93ZM866.407 88.182C866.407 90.844 868.101 93.264 871.423 93.264C873.909 93.264 875.427 91.834 875.427 91.834L874.811 90.25C874.811 90.25 873.425 91.482 871.753 91.482C870.015 91.482 868.915 90.316 868.673 88.512L874.107 87.786L875.361 87.434C875.361 84.42 873.645 82.792 871.269 82.792C868.365 82.792 866.407 85.146 866.407 88.182ZM871.115 84.486C872.853 84.486 872.985 86.51 872.985 86.51L868.673 87.06C868.871 85.608 869.707 84.486 871.115 84.486ZM883.666 90.294C883.666 92.34 884.788 93.264 886.504 93.264C888.264 93.264 889.562 92.208 889.562 92.208L889.012 90.558C888.748 90.712 887.824 91.438 886.988 91.438C886.262 91.438 885.844 90.954 885.844 89.744V84.706H888.99V83.056H885.844V80.24L883.71 80.702V82.968L882.192 83.518V84.706H883.666V90.294ZM891.452 93H893.63V86.598C894.29 85.938 895.72 84.684 896.82 84.684C897.568 84.684 898.008 85.212 898.008 86.62V93H900.186V85.828C900.186 83.694 899.108 82.792 897.524 82.792C895.698 82.792 894.29 84.024 893.63 84.728V77.27L891.452 77.622V93ZM902.325 90.712C902.325 92.186 903.447 93.264 905.185 93.264C907.121 93.264 908.133 92.032 908.397 91.614C908.683 92.406 909.321 93.044 910.839 93.154L911.499 91.438C911.499 91.438 910.399 91.416 910.399 90.184V85.982C910.399 83.76 909.651 82.792 907.297 82.792C904.679 82.792 902.985 84.046 902.985 84.046L903.557 85.674C903.557 85.674 905.075 84.53 906.703 84.53C908.309 84.53 908.221 85.63 908.221 86.884C904.503 87.368 902.325 88.622 902.325 90.712ZM905.735 91.548C905.097 91.548 904.569 91.262 904.569 90.558C904.569 89.392 905.691 88.666 908.221 88.292V90.008C907.561 90.778 906.747 91.548 905.735 91.548ZM914.131 90.294C914.131 92.34 915.253 93.264 916.969 93.264C918.729 93.264 920.027 92.208 920.027 92.208L919.477 90.558C919.213 90.712 918.289 91.438 917.453 91.438C916.727 91.438 916.309 90.954 916.309 89.744V84.706H919.455V83.056H916.309V80.24L914.175 80.702V82.968L912.657 83.518V84.706H914.131V90.294ZM927.664 93H929.93V78.326H927.664V93ZM938.1 88.16C938.1 91.042 940.102 93.264 943.204 93.264C945.58 93.264 946.724 91.988 946.724 91.988L946.02 90.448C946.02 90.448 944.942 91.482 943.358 91.482C941.488 91.482 940.366 90.008 940.366 88.05C940.366 86.026 941.576 84.552 943.38 84.552C944.832 84.552 945.866 85.476 945.866 85.476L946.724 83.848C946.724 83.848 945.514 82.792 943.336 82.792C940.058 82.792 938.1 85.41 938.1 88.16ZM948.087 90.712C948.087 92.186 949.209 93.264 950.947 93.264C952.883 93.264 953.895 92.032 954.159 91.614C954.445 92.406 955.083 93.044 956.601 93.154L957.261 91.438C957.261 91.438 956.161 91.416 956.161 90.184V85.982C956.161 83.76 955.413 82.792 953.059 82.792C950.441 82.792 948.747 84.046 948.747 84.046L949.319 85.674C949.319 85.674 950.837 84.53 952.465 84.53C954.071 84.53 953.983 85.63 953.983 86.884C950.265 87.368 948.087 88.622 948.087 90.712ZM951.497 91.548C950.859 91.548 950.331 91.262 950.331 90.558C950.331 89.392 951.453 88.666 953.983 88.292V90.008C953.323 90.778 952.509 91.548 951.497 91.548ZM959.406 93H961.584V86.554C962.266 85.894 963.674 84.684 964.774 84.684C965.522 84.684 965.962 85.212 965.962 86.62V93H968.14V85.828C968.14 83.694 967.062 82.792 965.5 82.792C963.674 82.792 962.244 84.002 961.54 84.772V82.88L959.406 83.232V93ZM976.401 93H978.579V77.27L976.401 77.622V93ZM982.786 80.68C983.578 80.68 984.172 80.108 984.172 79.338C984.172 78.568 983.578 77.996 982.786 77.996C982.016 77.996 981.422 78.568 981.422 79.338C981.422 80.108 982.016 80.68 982.786 80.68ZM981.686 93H983.864V83.056H981.686V93ZM989.326 93.088H991.35L995.442 83.056H993.22L990.426 90.272L988.006 83.056H985.718L989.326 93.088ZM996.452 88.182C996.452 90.844 998.146 93.264 1001.47 93.264C1003.95 93.264 1005.47 91.834 1005.47 91.834L1004.86 90.25C1004.86 90.25 1003.47 91.482 1001.8 91.482C1000.06 91.482 998.96 90.316 998.718 88.512L1004.15 87.786L1005.41 87.434C1005.41 84.42 1003.69 82.792 1001.31 82.792C998.41 82.792 996.452 85.146 996.452 88.182ZM1001.16 84.486C1002.9 84.486 1003.03 86.51 1003.03 86.51L998.718 87.06C998.916 85.608 999.752 84.486 1001.16 84.486ZM1012.35 90.712C1012.35 92.186 1013.47 93.264 1015.21 93.264C1017.14 93.264 1018.15 92.032 1018.42 91.614C1018.7 92.406 1019.34 93.044 1020.86 93.154L1021.52 91.438C1021.52 91.438 1020.42 91.416 1020.42 90.184V85.982C1020.42 83.76 1019.67 82.792 1017.32 82.792C1014.7 82.792 1013.01 84.046 1013.01 84.046L1013.58 85.674C1013.58 85.674 1015.1 84.53 1016.72 84.53C1018.33 84.53 1018.24 85.63 1018.24 86.884C1014.52 87.368 1012.35 88.622 1012.35 90.712ZM1015.76 91.548C1015.12 91.548 1014.59 91.262 1014.59 90.558C1014.59 89.392 1015.71 88.666 1018.24 88.292V90.008C1017.58 90.778 1016.77 91.548 1015.76 91.548ZM811.55 114.706H813.112V123H815.29V114.706H818.04V113.056H815.29V111.868C815.29 109.536 816.346 108.722 817.512 108.722C818.59 108.722 819.558 109.426 819.558 109.426L820.416 107.754C820.416 107.754 819.272 106.918 817.534 106.918C814.938 106.918 813.112 108.744 813.112 112V112.968L811.55 113.54V114.706ZM819.928 120.272C819.928 122.406 821.028 123.264 822.634 123.264C824.46 123.264 825.846 122.098 826.484 121.416C826.594 122.142 826.814 123.176 826.814 123.176L828.926 122.978C828.926 122.978 828.486 121.152 828.486 119.942V113.056H826.308V119.744C825.692 120.316 824.46 121.372 823.338 121.372C822.524 121.372 822.106 120.822 822.106 119.436V113.056H819.928V120.272ZM831.64 123H833.818V107.27L831.64 107.622V123ZM836.925 123H839.103V107.27L836.925 107.622V123ZM847.495 123H849.673V107.27L847.495 107.622V123ZM853.88 110.68C854.672 110.68 855.266 110.108 855.266 109.338C855.266 108.568 854.672 107.996 853.88 107.996C853.11 107.996 852.516 108.568 852.516 109.338C852.516 110.108 853.11 110.68 853.88 110.68ZM852.78 123H854.958V113.056H852.78V123ZM857.075 114.706H858.637V123H860.815V114.706H863.565V113.056H860.815V111.868C860.815 109.536 861.871 108.722 863.037 108.722C864.115 108.722 865.083 109.426 865.083 109.426L865.941 107.754C865.941 107.754 864.797 106.918 863.059 106.918C860.463 106.918 858.637 108.744 858.637 112V112.968L857.075 113.54V114.706ZM864.753 118.182C864.753 120.844 866.447 123.264 869.769 123.264C872.255 123.264 873.773 121.834 873.773 121.834L873.157 120.25C873.157 120.25 871.771 121.482 870.099 121.482C868.361 121.482 867.261 120.316 867.019 118.512L872.453 117.786L873.707 117.434C873.707 114.42 871.991 112.792 869.615 112.792C866.711 112.792 864.753 115.146 864.753 118.182ZM869.461 114.486C871.199 114.486 871.331 116.51 871.331 116.51L867.019 117.06C867.217 115.608 868.053 114.486 869.461 114.486ZM880.823 118.182C880.823 120.844 882.517 123.264 885.839 123.264C888.325 123.264 889.843 121.834 889.843 121.834L889.227 120.25C889.227 120.25 887.841 121.482 886.169 121.482C884.431 121.482 883.331 120.316 883.089 118.512L888.523 117.786L889.777 117.434C889.777 114.42 888.061 112.792 885.685 112.792C882.781 112.792 880.823 115.146 880.823 118.182ZM885.531 114.486C887.269 114.486 887.401 116.51 887.401 116.51L883.089 117.06C883.287 115.608 884.123 114.486 885.531 114.486ZM894.623 123.088H896.647L900.739 113.056H898.517L895.723 120.272L893.303 113.056H891.015L894.623 123.088ZM901.749 118.182C901.749 120.844 903.443 123.264 906.765 123.264C909.251 123.264 910.769 121.834 910.769 121.834L910.153 120.25C910.153 120.25 908.767 121.482 907.095 121.482C905.357 121.482 904.257 120.316 904.015 118.512L909.449 117.786L910.703 117.434C910.703 114.42 908.987 112.792 906.611 112.792C903.707 112.792 901.749 115.146 901.749 118.182ZM906.457 114.486C908.195 114.486 908.327 116.51 908.327 116.51L904.015 117.06C904.213 115.608 905.049 114.486 906.457 114.486ZM913.15 123H915.328V116.554C916.01 115.894 917.418 114.684 918.518 114.684C919.266 114.684 919.706 115.212 919.706 116.62V123H921.884V115.828C921.884 113.694 920.806 112.792 919.244 112.792C917.418 112.792 915.988 114.002 915.284 114.772V112.88L913.15 113.232V123ZM932.191 123.088H934.303L936.855 116.004L939.143 123.088H941.277L944.841 113.056H942.619L940.221 120.536L937.889 113.056H935.997L933.423 120.58L931.245 113.056H929.001L932.191 123.088ZM947.81 110.68C948.602 110.68 949.196 110.108 949.196 109.338C949.196 108.568 948.602 107.996 947.81 107.996C947.04 107.996 946.446 108.568 946.446 109.338C946.446 110.108 947.04 110.68 947.81 110.68ZM946.71 123H948.888V113.056H946.71V123ZM952.523 120.294C952.523 122.34 953.645 123.264 955.361 123.264C957.121 123.264 958.419 122.208 958.419 122.208L957.869 120.558C957.605 120.712 956.681 121.438 955.845 121.438C955.119 121.438 954.701 120.954 954.701 119.744V114.706H957.847V113.056H954.701V110.24L952.567 110.702V112.968L951.049 113.518V114.706H952.523V120.294ZM960.31 123H962.488V116.598C963.148 115.938 964.578 114.684 965.678 114.684C966.426 114.684 966.866 115.212 966.866 116.62V123H969.044V115.828C969.044 113.694 967.966 112.792 966.382 112.792C964.556 112.792 963.148 114.024 962.488 114.728V107.27L960.31 107.622V123ZM976.468 120.712C976.468 122.186 977.59 123.264 979.328 123.264C981.264 123.264 982.276 122.032 982.54 121.614C982.826 122.406 983.464 123.044 984.982 123.154L985.642 121.438C985.642 121.438 984.542 121.416 984.542 120.184V115.982C984.542 113.76 983.794 112.792 981.44 112.792C978.822 112.792 977.128 114.046 977.128 114.046L977.7 115.674C977.7 115.674 979.218 114.53 980.846 114.53C982.452 114.53 982.364 115.63 982.364 116.884C978.646 117.368 976.468 118.622 976.468 120.712ZM979.878 121.548C979.24 121.548 978.712 121.262 978.712 120.558C978.712 119.392 979.834 118.666 982.364 118.292V120.008C981.704 120.778 980.89 121.548 979.878 121.548ZM811.858 148.16C811.858 151.042 813.86 153.264 816.962 153.264C819.338 153.264 820.482 151.988 820.482 151.988L819.778 150.448C819.778 150.448 818.7 151.482 817.116 151.482C815.246 151.482 814.124 150.008 814.124 148.05C814.124 146.026 815.334 144.552 817.138 144.552C818.59 144.552 819.624 145.476 819.624 145.476L820.482 143.848C820.482 143.848 819.272 142.792 817.094 142.792C813.816 142.792 811.858 145.41 811.858 148.16ZM822.681 153H824.859V146.598C825.519 145.938 826.949 144.684 828.049 144.684C828.797 144.684 829.237 145.212 829.237 146.62V153H831.415V145.828C831.415 143.694 830.337 142.792 828.753 142.792C826.927 142.792 825.519 144.024 824.859 144.728V137.27L822.681 137.622V153ZM834.346 153H836.524V146.84C836.942 146.18 837.844 144.992 838.944 144.992C839.384 144.992 839.824 145.168 839.824 145.168L840.264 142.968C840.264 142.968 839.956 142.792 839.406 142.792C837.888 142.792 836.876 144.2 836.48 144.882V142.88L834.346 143.232V153ZM841.184 148.072C841.184 150.712 842.966 153.264 846.266 153.264C849.852 153.264 851.436 150.25 851.436 147.83C851.436 145.278 849.654 142.792 846.354 142.792C842.79 142.792 841.184 145.586 841.184 148.072ZM843.45 147.874C843.45 145.894 844.616 144.53 846.31 144.53C848.334 144.53 849.17 146.356 849.17 148.116C849.17 150.118 848.004 151.526 846.332 151.526C844.352 151.526 843.45 149.722 843.45 147.874ZM853.789 153H855.967V146.554C856.649 145.894 858.057 144.684 859.157 144.684C859.905 144.684 860.345 145.212 860.345 146.62V153H862.523V145.828C862.523 143.694 861.445 142.792 859.883 142.792C858.057 142.792 856.627 144.002 855.923 144.772V142.88L853.789 143.232V153ZM866.599 140.68C867.391 140.68 867.985 140.108 867.985 139.338C867.985 138.568 867.391 137.996 866.599 137.996C865.829 137.996 865.235 138.568 865.235 139.338C865.235 140.108 865.829 140.68 866.599 140.68ZM865.499 153H867.677V143.056H865.499V153ZM870.102 148.16C870.102 151.042 872.104 153.264 875.206 153.264C877.582 153.264 878.726 151.988 878.726 151.988L878.022 150.448C878.022 150.448 876.944 151.482 875.36 151.482C873.49 151.482 872.368 150.008 872.368 148.05C872.368 146.026 873.578 144.552 875.382 144.552C876.834 144.552 877.868 145.476 877.868 145.476L878.726 143.848C878.726 143.848 877.516 142.792 875.338 142.792C872.06 142.792 870.102 145.41 870.102 148.16ZM887.31 140.68C888.102 140.68 888.696 140.108 888.696 139.338C888.696 138.568 888.102 137.996 887.31 137.996C886.54 137.996 885.946 138.568 885.946 139.338C885.946 140.108 886.54 140.68 887.31 140.68ZM886.21 153H888.388V143.056H886.21V153ZM891.495 153H893.673V137.27L891.495 137.622V153ZM896.78 153H898.958V137.27L896.78 137.622V153ZM902.021 153H904.199V146.554C904.881 145.894 906.289 144.684 907.389 144.684C908.137 144.684 908.577 145.212 908.577 146.62V153H910.755V145.828C910.755 143.694 909.677 142.792 908.115 142.792C906.289 142.792 904.859 144.002 904.155 144.772V142.88L902.021 143.232V153ZM913.071 148.182C913.071 150.844 914.765 153.264 918.087 153.264C920.573 153.264 922.091 151.834 922.091 151.834L921.475 150.25C921.475 150.25 920.089 151.482 918.417 151.482C916.679 151.482 915.579 150.316 915.337 148.512L920.771 147.786L922.025 147.434C922.025 144.42 920.309 142.792 917.933 142.792C915.029 142.792 913.071 145.146 913.071 148.182ZM917.779 144.486C919.517 144.486 919.649 146.51 919.649 146.51L915.337 147.06C915.535 145.608 916.371 144.486 917.779 144.486ZM923.813 152.384C923.813 152.384 925.045 153.264 927.113 153.264C929.555 153.264 930.985 152.054 930.985 150.25C930.985 147.082 926.211 147.236 926.211 145.498C926.211 144.926 926.695 144.508 927.795 144.508C929.071 144.508 930.215 145.124 930.215 145.124L930.721 143.342C930.721 143.342 929.621 142.792 927.883 142.792C925.133 142.792 924.033 144.134 924.033 145.674C924.033 148.798 928.807 148.666 928.807 150.448C928.807 151.086 928.257 151.548 927.091 151.548C925.485 151.548 924.275 150.536 924.275 150.536L923.813 152.384ZM932.664 152.384C932.664 152.384 933.896 153.264 935.964 153.264C938.406 153.264 939.836 152.054 939.836 150.25C939.836 147.082 935.062 147.236 935.062 145.498C935.062 144.926 935.546 144.508 936.646 144.508C937.922 144.508 939.066 145.124 939.066 145.124L939.572 143.342C939.572 143.342 938.472 142.792 936.734 142.792C933.984 142.792 932.884 144.134 932.884 145.674C932.884 148.798 937.658 148.666 937.658 150.448C937.658 151.086 937.108 151.548 935.942 151.548C934.336 151.548 933.126 150.536 933.126 150.536L932.664 152.384ZM941.89 151.79C941.89 152.604 942.55 153.264 943.364 153.264C944.178 153.264 944.86 152.604 944.86 151.79C944.86 150.954 944.178 150.294 943.364 150.294C942.55 150.294 941.89 150.954 941.89 151.79Z" fill="#333333"/>
</svg>
