<svg width="996" height="353" viewBox="0 0 996 353" fill="none" xmlns="http://www.w3.org/2000/svg">
<path d="M13.1 22H19.986V20.24H17.72V11.616H13.232V13.354H15.564V20.24H13.1V22ZM23.6078 14.916C24.4438 14.916 25.1038 14.234 25.1038 13.42C25.1038 12.606 24.4438 11.946 23.6078 11.946C22.7938 11.946 22.1338 12.606 22.1338 13.42C22.1338 14.234 22.7938 14.916 23.6078 14.916ZM22.1338 20.79C22.1338 21.604 22.7938 22.264 23.6078 22.264C24.4438 22.264 25.1038 21.604 25.1038 20.79C25.1038 19.954 24.4438 19.294 23.6078 19.294C22.7938 19.294 22.1338 19.954 22.1338 20.79ZM37.372 22.11H39.55L44.808 7.326H42.498L38.516 18.744L34.534 7.326H32.136L37.372 22.11ZM45.081 19.712C45.081 21.186 46.203 22.264 47.941 22.264C49.877 22.264 50.889 21.032 51.153 20.614C51.439 21.406 52.077 22.044 53.595 22.154L54.255 20.438C54.255 20.438 53.155 20.416 53.155 19.184V14.982C53.155 12.76 52.407 11.792 50.053 11.792C47.435 11.792 45.741 13.046 45.741 13.046L46.313 14.674C46.313 14.674 47.831 13.53 49.459 13.53C51.065 13.53 50.977 14.63 50.977 15.884C47.259 16.368 45.081 17.622 45.081 19.712ZM48.491 20.548C47.853 20.548 47.325 20.262 47.325 19.558C47.325 18.392 48.447 17.666 50.977 17.292V19.008C50.317 19.778 49.503 20.548 48.491 20.548ZM56.4443 22H58.6223V6.27L56.4443 6.622V22ZM61.6195 19.272C61.6195 21.406 62.7195 22.264 64.3255 22.264C66.1515 22.264 67.5375 21.098 68.1755 20.416C68.2855 21.142 68.5055 22.176 68.5055 22.176L70.6175 21.978C70.6175 21.978 70.1775 20.152 70.1775 18.942V12.056H67.9995V18.744C67.3835 19.316 66.1515 20.372 65.0295 20.372C64.2155 20.372 63.7975 19.822 63.7975 18.436V12.056H61.6195V19.272ZM72.671 17.182C72.671 19.844 74.365 22.264 77.687 22.264C80.173 22.264 81.691 20.834 81.691 20.834L81.075 19.25C81.075 19.25 79.689 20.482 78.017 20.482C76.279 20.482 75.179 19.316 74.937 17.512L80.371 16.786L81.625 16.434C81.625 13.42 79.909 11.792 77.533 11.792C74.629 11.792 72.671 14.146 72.671 17.182ZM77.379 13.486C79.117 13.486 79.249 15.51 79.249 15.51L74.937 16.06C75.135 14.608 75.971 13.486 77.379 13.486ZM89.3573 22H91.5353V15.532C92.1733 14.894 93.5373 13.684 94.6153 13.684C95.3413 13.684 95.7373 14.212 95.7373 15.62V22H97.9153V15.488C98.6633 14.762 99.8953 13.684 100.907 13.684C101.633 13.684 102.051 14.212 102.051 15.62V22H104.207V14.828C104.207 12.694 103.173 11.792 101.633 11.792C99.8953 11.792 98.5313 12.958 97.8053 13.75C97.4973 12.386 96.5953 11.792 95.3413 11.792C93.5813 11.792 92.1733 13.002 91.4913 13.75V11.88L89.3573 12.232V22ZM106.002 25.476L106.684 27.214C109.016 26.95 110.468 24.86 111.326 22.748L115.638 12.056H113.394L110.82 18.876L108.202 12.056H105.892L109.742 21.494L109.214 22.682C108.62 24.068 107.454 25.234 106.002 25.476ZM116.713 21.384C116.713 21.384 117.945 22.264 120.013 22.264C122.455 22.264 123.885 21.054 123.885 19.25C123.885 16.082 119.111 16.236 119.111 14.498C119.111 13.926 119.595 13.508 120.695 13.508C121.971 13.508 123.115 14.124 123.115 14.124L123.621 12.342C123.621 12.342 122.521 11.792 120.783 11.792C118.033 11.792 116.933 13.134 116.933 14.674C116.933 17.798 121.707 17.666 121.707 19.448C121.707 20.086 121.157 20.548 119.991 20.548C118.385 20.548 117.175 19.536 117.175 19.536L116.713 21.384ZM125.609 17.182C125.609 19.844 127.303 22.264 130.625 22.264C133.111 22.264 134.629 20.834 134.629 20.834L134.013 19.25C134.013 19.25 132.627 20.482 130.955 20.482C129.217 20.482 128.117 19.316 127.875 17.512L133.309 16.786L134.563 16.434C134.563 13.42 132.847 11.792 130.471 11.792C127.567 11.792 125.609 14.146 125.609 17.182ZM130.317 13.486C132.055 13.486 132.187 15.51 132.187 15.51L127.875 16.06C128.073 14.608 128.909 13.486 130.317 13.486ZM137.054 22H139.232V6.27L137.054 6.622V22ZM141.349 13.706H142.911V22H145.089V13.706H147.839V12.056H145.089V10.868C145.089 8.536 146.145 7.722 147.311 7.722C148.389 7.722 149.357 8.426 149.357 8.426L150.215 6.754C150.215 6.754 149.071 5.918 147.333 5.918C144.737 5.918 142.911 7.744 142.911 11V11.968L141.349 12.54V13.706ZM154.462 17.182C154.462 19.844 156.156 22.264 159.478 22.264C161.964 22.264 163.482 20.834 163.482 20.834L162.866 19.25C162.866 19.25 161.48 20.482 159.808 20.482C158.07 20.482 156.97 19.316 156.728 17.512L162.162 16.786L163.416 16.434C163.416 13.42 161.7 11.792 159.324 11.792C156.42 11.792 154.462 14.146 154.462 17.182ZM159.17 13.486C160.908 13.486 161.04 15.51 161.04 15.51L156.728 16.06C156.926 14.608 157.762 13.486 159.17 13.486ZM165.863 22H168.041V15.554C168.723 14.894 170.131 13.684 171.231 13.684C171.979 13.684 172.419 14.212 172.419 15.62V22H174.597V14.828C174.597 12.694 173.519 11.792 171.957 11.792C170.131 11.792 168.701 13.002 167.997 13.772V11.88L165.863 12.232V22ZM176.891 17.072C176.891 19.712 178.673 22.264 181.973 22.264C185.559 22.264 187.143 19.25 187.143 16.83C187.143 14.278 185.361 11.792 182.061 11.792C178.497 11.792 176.891 14.586 176.891 17.072ZM179.157 16.874C179.157 14.894 180.323 13.53 182.017 13.53C184.041 13.53 184.877 15.356 184.877 17.116C184.877 19.118 183.711 20.526 182.039 20.526C180.059 20.526 179.157 18.722 179.157 16.874ZM189.43 19.272C189.43 21.406 190.53 22.264 192.136 22.264C193.962 22.264 195.348 21.098 195.986 20.416C196.096 21.142 196.316 22.176 196.316 22.176L198.428 21.978C198.428 21.978 197.988 20.152 197.988 18.942V12.056H195.81V18.744C195.194 19.316 193.962 20.372 192.84 20.372C192.026 20.372 191.608 19.822 191.608 18.436V12.056H189.43V19.272ZM201.076 20.24C201.076 20.922 201.714 21.318 202.704 21.648C201.648 22.198 200.174 23.144 200.174 24.596C200.174 26.334 202.33 27.214 204.53 27.214C207.522 27.214 209.964 25.52 209.964 23.518C209.964 21.692 207.962 21.142 206.202 20.702C204.134 20.196 203.166 19.998 203.166 19.602C203.166 19.36 203.518 19.096 203.98 18.788C204.2 18.832 204.442 18.832 204.706 18.832C206.84 18.832 209.106 17.666 209.106 15.488C209.106 14.608 208.688 14.014 208.38 13.662C208.644 13.706 208.952 13.728 209.194 13.728H210.382L210.228 11.99C210.228 11.99 209.568 12.21 208.908 12.21H207.764C206.664 12.21 206.092 11.792 204.882 11.792C202.66 11.792 200.658 13.046 200.658 15.268C200.658 16.61 201.384 17.776 202.638 18.392C201.824 18.854 201.076 19.514 201.076 20.24ZM204.948 22.22C206.796 22.704 207.83 22.99 207.83 23.848C207.83 24.838 206.422 25.63 204.662 25.63C203.408 25.63 202.132 25.234 202.132 24.244C202.132 23.254 203.342 22.594 204.288 22.066C204.508 22.11 204.728 22.154 204.948 22.22ZM204.86 17.292C203.452 17.292 202.792 16.28 202.792 15.334C202.792 14.3 203.54 13.332 204.86 13.332C206.268 13.332 206.95 14.476 206.95 15.444C206.95 16.566 206.07 17.292 204.86 17.292ZM212.27 22H214.448V15.598C215.108 14.938 216.538 13.684 217.638 13.684C218.386 13.684 218.826 14.212 218.826 15.62V22H221.004V14.828C221.004 12.694 219.926 11.792 218.342 11.792C216.516 11.792 215.108 13.024 214.448 13.728V6.27L212.27 6.622V22ZM14.068 49.294C14.068 51.34 15.19 52.264 16.906 52.264C18.666 52.264 19.964 51.208 19.964 51.208L19.414 49.558C19.15 49.712 18.226 50.438 17.39 50.438C16.664 50.438 16.246 49.954 16.246 48.744V43.706H19.392V42.056H16.246V39.24L14.112 39.702V41.968L12.594 42.518V43.706H14.068V49.294ZM21.1725 47.072C21.1725 49.712 22.9545 52.264 26.2545 52.264C29.8405 52.264 31.4245 49.25 31.4245 46.83C31.4245 44.278 29.6425 41.792 26.3425 41.792C22.7785 41.792 21.1725 44.586 21.1725 47.072ZM23.4385 46.874C23.4385 44.894 24.6045 43.53 26.2985 43.53C28.3225 43.53 29.1585 45.356 29.1585 47.116C29.1585 49.118 27.9925 50.526 26.3205 50.526C24.3405 50.526 23.4385 48.722 23.4385 46.874ZM39.6344 49.294C39.6344 51.34 40.7564 52.264 42.4724 52.264C44.2324 52.264 45.5304 51.208 45.5304 51.208L44.9804 49.558C44.7164 49.712 43.7924 50.438 42.9564 50.438C42.2304 50.438 41.8124 49.954 41.8124 48.744V43.706H44.9584V42.056H41.8124V39.24L39.6784 39.702V41.968L38.1604 42.518V43.706H39.6344V49.294ZM46.5849 49.712C46.5849 51.186 47.7069 52.264 49.4449 52.264C51.3809 52.264 52.3929 51.032 52.6569 50.614C52.9429 51.406 53.5809 52.044 55.0989 52.154L55.7589 50.438C55.7589 50.438 54.6589 50.416 54.6589 49.184V44.982C54.6589 42.76 53.9109 41.792 51.5569 41.792C48.9389 41.792 47.2449 43.046 47.2449 43.046L47.8169 44.674C47.8169 44.674 49.3349 43.53 50.9629 43.53C52.5689 43.53 52.4809 44.63 52.4809 45.884C48.7629 46.368 46.5849 47.622 46.5849 49.712ZM49.9949 50.548C49.3569 50.548 48.8289 50.262 48.8289 49.558C48.8289 48.392 49.9509 47.666 52.4809 47.292V49.008C51.8209 49.778 51.0069 50.548 49.9949 50.548ZM57.9482 52H60.1262V47.292H60.4342L64.3942 52H67.1882L62.3482 46.412L66.8802 42.056H64.0422L60.4342 45.686H60.1262V36.27L57.9482 36.622V52ZM67.7296 47.182C67.7296 49.844 69.4236 52.264 72.7456 52.264C75.2316 52.264 76.7496 50.834 76.7496 50.834L76.1336 49.25C76.1336 49.25 74.7476 50.482 73.0756 50.482C71.3376 50.482 70.2376 49.316 69.9956 47.512L75.4296 46.786L76.6836 46.434C76.6836 43.42 74.9676 41.792 72.5916 41.792C69.6876 41.792 67.7296 44.146 67.7296 47.182ZM72.4376 43.486C74.1756 43.486 74.3076 45.51 74.3076 45.51L69.9956 46.06C70.1936 44.608 71.0296 43.486 72.4376 43.486ZM83.7779 47.16C83.7779 50.042 85.7799 52.264 88.8819 52.264C91.2579 52.264 92.4019 50.988 92.4019 50.988L91.6979 49.448C91.6979 49.448 90.6199 50.482 89.0359 50.482C87.1659 50.482 86.0439 49.008 86.0439 47.05C86.0439 45.026 87.2539 43.552 89.0579 43.552C90.5099 43.552 91.5439 44.476 91.5439 44.476L92.4019 42.848C92.4019 42.848 91.1919 41.792 89.0139 41.792C85.7359 41.792 83.7779 44.41 83.7779 47.16ZM93.7467 47.072C93.7467 49.712 95.5287 52.264 98.8287 52.264C102.415 52.264 103.999 49.25 103.999 46.83C103.999 44.278 102.217 41.792 98.9167 41.792C95.3527 41.792 93.7467 44.586 93.7467 47.072ZM96.0127 46.874C96.0127 44.894 97.1787 43.53 98.8727 43.53C100.897 43.53 101.733 45.356 101.733 47.116C101.733 49.118 100.567 50.526 98.8947 50.526C96.9147 50.526 96.0127 48.722 96.0127 46.874ZM106.351 52H108.529V45.554C109.211 44.894 110.619 43.684 111.719 43.684C112.467 43.684 112.907 44.212 112.907 45.62V52H115.085V44.828C115.085 42.694 114.007 41.792 112.445 41.792C110.619 41.792 109.189 43.002 108.485 43.772V41.88L106.351 42.232V52ZM117.357 51.384C117.357 51.384 118.589 52.264 120.657 52.264C123.099 52.264 124.529 51.054 124.529 49.25C124.529 46.082 119.755 46.236 119.755 44.498C119.755 43.926 120.239 43.508 121.339 43.508C122.615 43.508 123.759 44.124 123.759 44.124L124.265 42.342C124.265 42.342 123.165 41.792 121.427 41.792C118.677 41.792 117.577 43.134 117.577 44.674C117.577 47.798 122.351 47.666 122.351 49.448C122.351 50.086 121.801 50.548 120.635 50.548C119.029 50.548 117.819 49.536 117.819 49.536L117.357 51.384ZM128.013 39.68C128.805 39.68 129.399 39.108 129.399 38.338C129.399 37.568 128.805 36.996 128.013 36.996C127.243 36.996 126.649 37.568 126.649 38.338C126.649 39.108 127.243 39.68 128.013 39.68ZM126.913 52H129.091V42.056H126.913V52ZM131.494 51.384C131.494 51.384 132.726 52.264 134.794 52.264C137.236 52.264 138.666 51.054 138.666 49.25C138.666 46.082 133.892 46.236 133.892 44.498C133.892 43.926 134.376 43.508 135.476 43.508C136.752 43.508 137.896 44.124 137.896 44.124L138.402 42.342C138.402 42.342 137.302 41.792 135.564 41.792C132.814 41.792 131.714 43.134 131.714 44.674C131.714 47.798 136.488 47.666 136.488 49.448C136.488 50.086 135.938 50.548 134.772 50.548C133.166 50.548 131.956 49.536 131.956 49.536L131.494 51.384ZM141.578 49.294C141.578 51.34 142.7 52.264 144.416 52.264C146.176 52.264 147.474 51.208 147.474 51.208L146.924 49.558C146.66 49.712 145.736 50.438 144.9 50.438C144.174 50.438 143.756 49.954 143.756 48.744V43.706H146.902V42.056H143.756V39.24L141.622 39.702V41.968L140.104 42.518V43.706H141.578V49.294ZM148.704 47.182C148.704 49.844 150.398 52.264 153.72 52.264C156.206 52.264 157.724 50.834 157.724 50.834L157.108 49.25C157.108 49.25 155.722 50.482 154.05 50.482C152.312 50.482 151.212 49.316 150.97 47.512L156.404 46.786L157.658 46.434C157.658 43.42 155.942 41.792 153.566 41.792C150.662 41.792 148.704 44.146 148.704 47.182ZM153.412 43.486C155.15 43.486 155.282 45.51 155.282 45.51L150.97 46.06C151.168 44.608 152.004 43.486 153.412 43.486ZM160.105 52H162.283V45.554C162.965 44.894 164.373 43.684 165.473 43.684C166.221 43.684 166.661 44.212 166.661 45.62V52H168.839V44.828C168.839 42.694 167.761 41.792 166.199 41.792C164.373 41.792 162.943 43.002 162.239 43.772V41.88L160.105 42.232V52ZM172.343 49.294C172.343 51.34 173.465 52.264 175.181 52.264C176.941 52.264 178.239 51.208 178.239 51.208L177.689 49.558C177.425 49.712 176.501 50.438 175.665 50.438C174.939 50.438 174.521 49.954 174.521 48.744V43.706H177.667V42.056H174.521V39.24L172.387 39.702V41.968L170.869 42.518V43.706H172.343V49.294ZM12.704 79.712C12.704 81.186 13.826 82.264 15.564 82.264C17.5 82.264 18.512 81.032 18.776 80.614C19.062 81.406 19.7 82.044 21.218 82.154L21.878 80.438C21.878 80.438 20.778 80.416 20.778 79.184V74.982C20.778 72.76 20.03 71.792 17.676 71.792C15.058 71.792 13.364 73.046 13.364 73.046L13.936 74.674C13.936 74.674 15.454 73.53 17.082 73.53C18.688 73.53 18.6 74.63 18.6 75.884C14.882 76.368 12.704 77.622 12.704 79.712ZM16.114 80.548C15.476 80.548 14.948 80.262 14.948 79.558C14.948 78.392 16.07 77.666 18.6 77.292V79.008C17.94 79.778 17.126 80.548 16.114 80.548ZM23.3853 77.16C23.3853 80.042 25.3873 82.264 28.4893 82.264C30.8653 82.264 32.0093 80.988 32.0093 80.988L31.3053 79.448C31.3053 79.448 30.2273 80.482 28.6433 80.482C26.7733 80.482 25.6513 79.008 25.6513 77.05C25.6513 75.026 26.8613 73.552 28.6653 73.552C30.1173 73.552 31.1513 74.476 31.1513 74.476L32.0093 72.848C32.0093 72.848 30.7993 71.792 28.6213 71.792C25.3433 71.792 23.3853 74.41 23.3853 77.16ZM34.736 79.294C34.736 81.34 35.858 82.264 37.574 82.264C39.334 82.264 40.632 81.208 40.632 81.208L40.082 79.558C39.818 79.712 38.894 80.438 38.058 80.438C37.332 80.438 36.914 79.954 36.914 78.744V73.706H40.06V72.056H36.914V69.24L34.78 69.702V71.968L33.262 72.518V73.706H34.736V79.294ZM43.6224 69.68C44.4144 69.68 45.0084 69.108 45.0084 68.338C45.0084 67.568 44.4144 66.996 43.6224 66.996C42.8524 66.996 42.2584 67.568 42.2584 68.338C42.2584 69.108 42.8524 69.68 43.6224 69.68ZM42.5224 82H44.7004V72.056H42.5224V82ZM47.1256 77.072C47.1256 79.712 48.9076 82.264 52.2076 82.264C55.7936 82.264 57.3776 79.25 57.3776 76.83C57.3776 74.278 55.5956 71.792 52.2956 71.792C48.7316 71.792 47.1256 74.586 47.1256 77.072ZM49.3916 76.874C49.3916 74.894 50.5576 73.53 52.2516 73.53C54.2756 73.53 55.1116 75.356 55.1116 77.116C55.1116 79.118 53.9456 80.526 52.2736 80.526C50.2936 80.526 49.3916 78.722 49.3916 76.874ZM59.7304 82H61.9084V75.554C62.5904 74.894 63.9984 73.684 65.0984 73.684C65.8464 73.684 66.2864 74.212 66.2864 75.62V82H68.4644V74.828C68.4644 72.694 67.3864 71.792 65.8244 71.792C63.9984 71.792 62.5684 73.002 61.8644 73.772V71.88L59.7304 72.232V82ZM70.7364 81.384C70.7364 81.384 71.9684 82.264 74.0364 82.264C76.4784 82.264 77.9084 81.054 77.9084 79.25C77.9084 76.082 73.1344 76.236 73.1344 74.498C73.1344 73.926 73.6184 73.508 74.7184 73.508C75.9944 73.508 77.1384 74.124 77.1384 74.124L77.6444 72.342C77.6444 72.342 76.5444 71.792 74.8064 71.792C72.0564 71.792 70.9564 73.134 70.9564 74.674C70.9564 77.798 75.7304 77.666 75.7304 79.448C75.7304 80.086 75.1804 80.548 74.0144 80.548C72.4084 80.548 71.1984 79.536 71.1984 79.536L70.7364 81.384ZM84.5871 73.706H86.1491V82H88.3271V73.706H91.0771V72.056H88.3271V70.868C88.3271 68.536 89.3831 67.722 90.5491 67.722C91.6271 67.722 92.5951 68.426 92.5951 68.426L93.4531 66.754C93.4531 66.754 92.3091 65.918 90.5711 65.918C87.9751 65.918 86.1491 67.744 86.1491 71V71.968L84.5871 72.54V73.706ZM92.2213 77.072C92.2213 79.712 94.0033 82.264 97.3033 82.264C100.889 82.264 102.473 79.25 102.473 76.83C102.473 74.278 100.691 71.792 97.3913 71.792C93.8273 71.792 92.2213 74.586 92.2213 77.072ZM94.4873 76.874C94.4873 74.894 95.6533 73.53 97.3473 73.53C99.3713 73.53 100.207 75.356 100.207 77.116C100.207 79.118 99.0413 80.526 97.3693 80.526C95.3893 80.526 94.4873 78.722 94.4873 76.874ZM104.826 82H107.004V75.84C107.422 75.18 108.324 73.992 109.424 73.992C109.864 73.992 110.304 74.168 110.304 74.168L110.744 71.968C110.744 71.968 110.436 71.792 109.886 71.792C108.368 71.792 107.356 73.2 106.96 73.882V71.88L104.826 72.232V82ZM117.76 82H119.938V75.532C120.576 74.894 121.94 73.684 123.018 73.684C123.744 73.684 124.14 74.212 124.14 75.62V82H126.318V75.488C127.066 74.762 128.298 73.684 129.31 73.684C130.036 73.684 130.454 74.212 130.454 75.62V82H132.61V74.828C132.61 72.694 131.576 71.792 130.036 71.792C128.298 71.792 126.934 72.958 126.208 73.75C125.9 72.386 124.998 71.792 123.744 71.792C121.984 71.792 120.576 73.002 119.894 73.75V71.88L117.76 72.232V82ZM134.405 85.476L135.087 87.214C137.419 86.95 138.871 84.86 139.729 82.748L144.041 72.056H141.797L139.223 78.876L136.605 72.056H134.295L138.145 81.494L137.617 82.682C137.023 84.068 135.857 85.234 134.405 85.476ZM151.104 82H153.282V75.598C153.942 74.938 155.372 73.684 156.472 73.684C157.22 73.684 157.66 74.212 157.66 75.62V82H159.838V74.828C159.838 72.694 158.76 71.792 157.176 71.792C155.35 71.792 153.942 73.024 153.282 73.728V66.27L151.104 66.622V82ZM162.153 77.182C162.153 79.844 163.847 82.264 167.169 82.264C169.655 82.264 171.173 80.834 171.173 80.834L170.557 79.25C170.557 79.25 169.171 80.482 167.499 80.482C165.761 80.482 164.661 79.316 164.419 77.512L169.853 76.786L171.107 76.434C171.107 73.42 169.391 71.792 167.015 71.792C164.111 71.792 162.153 74.146 162.153 77.182ZM166.861 73.486C168.599 73.486 168.731 75.51 168.731 75.51L164.419 76.06C164.617 74.608 165.453 73.486 166.861 73.486ZM172.763 79.712C172.763 81.186 173.885 82.264 175.623 82.264C177.559 82.264 178.571 81.032 178.835 80.614C179.121 81.406 179.759 82.044 181.277 82.154L181.937 80.438C181.937 80.438 180.837 80.416 180.837 79.184V74.982C180.837 72.76 180.089 71.792 177.735 71.792C175.117 71.792 173.423 73.046 173.423 73.046L173.995 74.674C173.995 74.674 175.513 73.53 177.141 73.53C178.747 73.53 178.659 74.63 178.659 75.884C174.941 76.368 172.763 77.622 172.763 79.712ZM176.173 80.548C175.535 80.548 175.007 80.262 175.007 79.558C175.007 78.392 176.129 77.666 178.659 77.292V79.008C177.999 79.778 177.185 80.548 176.173 80.548ZM184.126 82H186.304V66.27L184.126 66.622V82ZM189.939 79.294C189.939 81.34 191.061 82.264 192.777 82.264C194.537 82.264 195.835 81.208 195.835 81.208L195.285 79.558C195.021 79.712 194.097 80.438 193.261 80.438C192.535 80.438 192.117 79.954 192.117 78.744V73.706H195.263V72.056H192.117V69.24L189.983 69.702V71.968L188.465 72.518V73.706H189.939V79.294ZM197.726 82H199.904V75.598C200.564 74.938 201.994 73.684 203.094 73.684C203.842 73.684 204.282 74.212 204.282 75.62V82H206.46V74.828C206.46 72.694 205.382 71.792 203.798 71.792C201.972 71.792 200.564 73.024 199.904 73.728V66.27L197.726 66.622V82ZM209.105 80.79C209.105 81.604 209.765 82.264 210.579 82.264C211.393 82.264 212.075 81.604 212.075 80.79C212.075 79.954 211.393 79.294 210.579 79.294C209.765 79.294 209.105 79.954 209.105 80.79Z" fill="#333333"/>
<path d="M508.528 24.552L508.704 26.246C508.924 26.268 509.122 26.268 509.32 26.268C513.104 26.268 515.986 24.398 515.986 21.472C515.986 19.8 514.908 18.458 512.928 17.974C514.226 17.27 515.612 15.994 515.612 14.3C515.612 12.584 514.116 11.352 512.114 11.352C509.98 11.352 508.374 12.738 508.374 12.738L509.32 14.124C509.32 14.124 510.596 13.178 511.784 13.178C512.686 13.178 513.368 13.728 513.368 14.608C513.368 16.104 511.432 17.49 509.892 17.622V19.316H510.42C511.96 19.316 513.72 19.822 513.72 21.538C513.72 23.54 511.674 24.574 509.232 24.574C508.99 24.574 508.77 24.574 508.528 24.552ZM519.909 14.916C520.745 14.916 521.405 14.234 521.405 13.42C521.405 12.606 520.745 11.946 519.909 11.946C519.095 11.946 518.435 12.606 518.435 13.42C518.435 14.234 519.095 14.916 519.909 14.916ZM518.435 20.79C518.435 21.604 519.095 22.264 519.909 22.264C520.745 22.264 521.405 21.604 521.405 20.79C521.405 19.954 520.745 19.294 519.909 19.294C519.095 19.294 518.435 19.954 518.435 20.79ZM530.219 22H532.485V15.62H537.655V13.662H532.485V9.218H539.019V7.326H530.219V22ZM539.753 17.182C539.753 19.844 541.447 22.264 544.769 22.264C547.255 22.264 548.773 20.834 548.773 20.834L548.157 19.25C548.157 19.25 546.771 20.482 545.099 20.482C543.361 20.482 542.261 19.316 542.019 17.512L547.453 16.786L548.707 16.434C548.707 13.42 546.991 11.792 544.615 11.792C541.711 11.792 539.753 14.146 539.753 17.182ZM544.461 13.486C546.199 13.486 546.331 15.51 546.331 15.51L542.019 16.06C542.217 14.608 543.053 13.486 544.461 13.486ZM550.538 17.182C550.538 19.844 552.232 22.264 555.554 22.264C558.04 22.264 559.558 20.834 559.558 20.834L558.942 19.25C558.942 19.25 557.556 20.482 555.884 20.482C554.146 20.482 553.046 19.316 552.804 17.512L558.238 16.786L559.492 16.434C559.492 13.42 557.776 11.792 555.4 11.792C552.496 11.792 550.538 14.146 550.538 17.182ZM555.246 13.486C556.984 13.486 557.116 15.51 557.116 15.51L552.804 16.06C553.002 14.608 553.838 13.486 555.246 13.486ZM561.983 22H564.161V6.27L561.983 6.622V22ZM572.554 22H574.732V15.598C575.392 14.938 576.822 13.684 577.922 13.684C578.67 13.684 579.11 14.212 579.11 15.62V22H581.288V14.828C581.288 12.694 580.21 11.792 578.626 11.792C576.8 11.792 575.392 13.024 574.732 13.728V6.27L572.554 6.622V22ZM583.581 17.072C583.581 19.712 585.363 22.264 588.663 22.264C592.249 22.264 593.833 19.25 593.833 16.83C593.833 14.278 592.051 11.792 588.751 11.792C585.187 11.792 583.581 14.586 583.581 17.072ZM585.847 16.874C585.847 14.894 587.013 13.53 588.707 13.53C590.731 13.53 591.567 15.356 591.567 17.116C591.567 19.118 590.401 20.526 588.729 20.526C586.749 20.526 585.847 18.722 585.847 16.874ZM596.185 27.126L598.363 26.774V21.736C598.781 22.044 599.529 22.264 600.453 22.264C603.621 22.264 605.469 19.668 605.469 16.72C605.469 14.014 603.885 11.792 601.267 11.792C599.705 11.792 598.759 12.606 598.297 13.464V11.88L596.185 12.232V27.126ZM600.893 13.596C602.235 13.596 603.181 14.806 603.181 16.874C603.181 19.25 601.927 20.548 600.057 20.548C599.023 20.548 598.363 20.174 598.363 19.426V15.202C598.649 14.784 599.573 13.596 600.893 13.596ZM607.235 17.182C607.235 19.844 608.929 22.264 612.251 22.264C614.737 22.264 616.255 20.834 616.255 20.834L615.639 19.25C615.639 19.25 614.253 20.482 612.581 20.482C610.843 20.482 609.743 19.316 609.501 17.512L614.935 16.786L616.189 16.434C616.189 13.42 614.473 11.792 612.097 11.792C609.193 11.792 607.235 14.146 607.235 17.182ZM611.943 13.486C613.681 13.486 613.813 15.51 613.813 15.51L609.501 16.06C609.699 14.608 610.535 13.486 611.943 13.486ZM617.691 13.706H619.253V22H621.431V13.706H624.181V12.056H621.431V10.868C621.431 8.536 622.487 7.722 623.653 7.722C624.731 7.722 625.699 8.426 625.699 8.426L626.557 6.754C626.557 6.754 625.413 5.918 623.675 5.918C621.079 5.918 619.253 7.744 619.253 11V11.968L617.691 12.54V13.706ZM626.069 19.272C626.069 21.406 627.169 22.264 628.775 22.264C630.601 22.264 631.987 21.098 632.625 20.416C632.735 21.142 632.955 22.176 632.955 22.176L635.067 21.978C635.067 21.978 634.627 20.152 634.627 18.942V12.056H632.449V18.744C631.833 19.316 630.601 20.372 629.479 20.372C628.665 20.372 628.247 19.822 628.247 18.436V12.056H626.069V19.272ZM637.78 22H639.958V6.27L637.78 6.622V22ZM648.879 19.294C648.879 21.34 650.001 22.264 651.717 22.264C653.477 22.264 654.775 21.208 654.775 21.208L654.225 19.558C653.961 19.712 653.037 20.438 652.201 20.438C651.475 20.438 651.057 19.954 651.057 18.744V13.706H654.203V12.056H651.057V9.24L648.923 9.702V11.968L647.405 12.518V13.706H648.879V19.294ZM656.665 22H658.843V15.598C659.503 14.938 660.933 13.684 662.033 13.684C662.781 13.684 663.221 14.212 663.221 15.62V22H665.399V14.828C665.399 12.694 664.321 11.792 662.737 11.792C660.911 11.792 659.503 13.024 658.843 13.728V6.27L656.665 6.622V22ZM667.538 19.712C667.538 21.186 668.66 22.264 670.398 22.264C672.334 22.264 673.346 21.032 673.61 20.614C673.896 21.406 674.534 22.044 676.052 22.154L676.712 20.438C676.712 20.438 675.612 20.416 675.612 19.184V14.982C675.612 12.76 674.864 11.792 672.51 11.792C669.892 11.792 668.198 13.046 668.198 13.046L668.77 14.674C668.77 14.674 670.288 13.53 671.916 13.53C673.522 13.53 673.434 14.63 673.434 15.884C669.716 16.368 667.538 17.622 667.538 19.712ZM670.948 20.548C670.31 20.548 669.782 20.262 669.782 19.558C669.782 18.392 670.904 17.666 673.434 17.292V19.008C672.774 19.778 671.96 20.548 670.948 20.548ZM679.343 19.294C679.343 21.34 680.465 22.264 682.181 22.264C683.941 22.264 685.239 21.208 685.239 21.208L684.689 19.558C684.425 19.712 683.501 20.438 682.665 20.438C681.939 20.438 681.521 19.954 681.521 18.744V13.706H684.667V12.056H681.521V9.24L679.387 9.702V11.968L677.869 12.518V13.706H679.343V19.294ZM692.877 22H695.143V7.326H692.877V22ZM508.858 47.16C508.858 50.042 510.86 52.264 513.962 52.264C516.338 52.264 517.482 50.988 517.482 50.988L516.778 49.448C516.778 49.448 515.7 50.482 514.116 50.482C512.246 50.482 511.124 49.008 511.124 47.05C511.124 45.026 512.334 43.552 514.138 43.552C515.59 43.552 516.624 44.476 516.624 44.476L517.482 42.848C517.482 42.848 516.272 41.792 514.094 41.792C510.816 41.792 508.858 44.41 508.858 47.16ZM518.845 49.712C518.845 51.186 519.967 52.264 521.705 52.264C523.641 52.264 524.653 51.032 524.917 50.614C525.203 51.406 525.841 52.044 527.359 52.154L528.019 50.438C528.019 50.438 526.919 50.416 526.919 49.184V44.982C526.919 42.76 526.171 41.792 523.817 41.792C521.199 41.792 519.505 43.046 519.505 43.046L520.077 44.674C520.077 44.674 521.595 43.53 523.223 43.53C524.829 43.53 524.741 44.63 524.741 45.884C521.023 46.368 518.845 47.622 518.845 49.712ZM522.255 50.548C521.617 50.548 521.089 50.262 521.089 49.558C521.089 48.392 522.211 47.666 524.741 47.292V49.008C524.081 49.778 523.267 50.548 522.255 50.548ZM530.164 52H532.342V45.554C533.024 44.894 534.432 43.684 535.532 43.684C536.28 43.684 536.72 44.212 536.72 45.62V52H538.898V44.828C538.898 42.694 537.82 41.792 536.258 41.792C534.432 41.792 533.002 43.002 532.298 43.772V41.88L530.164 42.232V52ZM547.093 50.24C547.093 50.922 547.731 51.318 548.721 51.648C547.665 52.198 546.191 53.144 546.191 54.596C546.191 56.334 548.347 57.214 550.547 57.214C553.539 57.214 555.981 55.52 555.981 53.518C555.981 51.692 553.979 51.142 552.219 50.702C550.151 50.196 549.183 49.998 549.183 49.602C549.183 49.36 549.535 49.096 549.997 48.788C550.217 48.832 550.459 48.832 550.723 48.832C552.857 48.832 555.123 47.666 555.123 45.488C555.123 44.608 554.705 44.014 554.397 43.662C554.661 43.706 554.969 43.728 555.211 43.728H556.399L556.245 41.99C556.245 41.99 555.585 42.21 554.925 42.21H553.781C552.681 42.21 552.109 41.792 550.899 41.792C548.677 41.792 546.675 43.046 546.675 45.268C546.675 46.61 547.401 47.776 548.655 48.392C547.841 48.854 547.093 49.514 547.093 50.24ZM550.965 52.22C552.813 52.704 553.847 52.99 553.847 53.848C553.847 54.838 552.439 55.63 550.679 55.63C549.425 55.63 548.149 55.234 548.149 54.244C548.149 53.254 549.359 52.594 550.305 52.066C550.525 52.11 550.745 52.154 550.965 52.22ZM550.877 47.292C549.469 47.292 548.809 46.28 548.809 45.334C548.809 44.3 549.557 43.332 550.877 43.332C552.285 43.332 552.967 44.476 552.967 45.444C552.967 46.566 552.087 47.292 550.877 47.292ZM557.628 47.182C557.628 49.844 559.322 52.264 562.644 52.264C565.13 52.264 566.648 50.834 566.648 50.834L566.032 49.25C566.032 49.25 564.646 50.482 562.974 50.482C561.236 50.482 560.136 49.316 559.894 47.512L565.328 46.786L566.582 46.434C566.582 43.42 564.866 41.792 562.49 41.792C559.586 41.792 557.628 44.146 557.628 47.182ZM562.336 43.486C564.074 43.486 564.206 45.51 564.206 45.51L559.894 46.06C560.092 44.608 560.928 43.486 562.336 43.486ZM569.601 49.294C569.601 51.34 570.723 52.264 572.439 52.264C574.199 52.264 575.497 51.208 575.497 51.208L574.947 49.558C574.683 49.712 573.759 50.438 572.923 50.438C572.197 50.438 571.779 49.954 571.779 48.744V43.706H574.925V42.056H571.779V39.24L569.645 39.702V41.968L568.127 42.518V43.706H569.601V49.294ZM582.629 51.78C583.377 51.956 585.071 52.264 586.259 52.264C590.021 52.264 591.825 49.58 591.825 46.676C591.825 43.948 590.241 41.792 587.491 41.792C586.127 41.792 585.313 42.342 584.807 42.914V36.27L582.629 36.622V51.78ZM587.139 43.552C588.591 43.552 589.581 44.762 589.581 46.83C589.581 49.294 588.195 50.614 586.303 50.614C585.489 50.614 584.807 50.394 584.807 50.394V44.586C585.269 44.168 586.105 43.552 587.139 43.552ZM593.438 49.712C593.438 51.186 594.56 52.264 596.298 52.264C598.234 52.264 599.246 51.032 599.51 50.614C599.796 51.406 600.434 52.044 601.952 52.154L602.612 50.438C602.612 50.438 601.512 50.416 601.512 49.184V44.982C601.512 42.76 600.764 41.792 598.41 41.792C595.792 41.792 594.098 43.046 594.098 43.046L594.67 44.674C594.67 44.674 596.188 43.53 597.816 43.53C599.422 43.53 599.334 44.63 599.334 45.884C595.616 46.368 593.438 47.622 593.438 49.712ZM596.848 50.548C596.21 50.548 595.682 50.262 595.682 49.558C595.682 48.392 596.804 47.666 599.334 47.292V49.008C598.674 49.778 597.86 50.548 596.848 50.548ZM604.12 47.16C604.12 50.042 606.122 52.264 609.224 52.264C611.6 52.264 612.744 50.988 612.744 50.988L612.04 49.448C612.04 49.448 610.962 50.482 609.378 50.482C607.508 50.482 606.386 49.008 606.386 47.05C606.386 45.026 607.596 43.552 609.4 43.552C610.852 43.552 611.886 44.476 611.886 44.476L612.744 42.848C612.744 42.848 611.534 41.792 609.356 41.792C606.078 41.792 604.12 44.41 604.12 47.16ZM614.942 52H617.12V47.292H617.428L621.388 52H624.182L619.342 46.412L623.874 42.056H621.036L617.428 45.686H617.12V36.27L614.942 36.622V52ZM630.417 47.072C630.417 49.712 632.199 52.264 635.499 52.264C639.085 52.264 640.669 49.25 640.669 46.83C640.669 44.278 638.887 41.792 635.587 41.792C632.023 41.792 630.417 44.586 630.417 47.072ZM632.683 46.874C632.683 44.894 633.849 43.53 635.543 43.53C637.567 43.53 638.403 45.356 638.403 47.116C638.403 49.118 637.237 50.526 635.565 50.526C633.585 50.526 632.683 48.722 632.683 46.874ZM643.021 52H645.199V45.554C645.881 44.894 647.289 43.684 648.389 43.684C649.137 43.684 649.577 44.212 649.577 45.62V52H651.755V44.828C651.755 42.694 650.677 41.792 649.115 41.792C647.289 41.792 645.859 43.002 645.155 43.772V41.88L643.021 42.232V52ZM660.545 49.294C660.545 51.34 661.667 52.264 663.383 52.264C665.143 52.264 666.441 51.208 666.441 51.208L665.891 49.558C665.627 49.712 664.703 50.438 663.867 50.438C663.141 50.438 662.723 49.954 662.723 48.744V43.706H665.869V42.056H662.723V39.24L660.589 39.702V41.968L659.071 42.518V43.706H660.545V49.294ZM668.287 52H670.465V45.84C670.883 45.18 671.785 43.992 672.885 43.992C673.325 43.992 673.765 44.168 673.765 44.168L674.205 41.968C674.205 41.968 673.897 41.792 673.347 41.792C671.829 41.792 670.817 43.2 670.421 43.882V41.88L668.287 42.232V52ZM675.143 49.712C675.143 51.186 676.265 52.264 678.003 52.264C679.939 52.264 680.951 51.032 681.215 50.614C681.501 51.406 682.139 52.044 683.657 52.154L684.317 50.438C684.317 50.438 683.217 50.416 683.217 49.184V44.982C683.217 42.76 682.469 41.792 680.115 41.792C677.497 41.792 675.803 43.046 675.803 43.046L676.375 44.674C676.375 44.674 677.893 43.53 679.521 43.53C681.127 43.53 681.039 44.63 681.039 45.884C677.321 46.368 675.143 47.622 675.143 49.712ZM678.553 50.548C677.915 50.548 677.387 50.262 677.387 49.558C677.387 48.392 678.509 47.666 681.039 47.292V49.008C680.379 49.778 679.565 50.548 678.553 50.548ZM685.825 47.16C685.825 50.042 687.827 52.264 690.929 52.264C693.305 52.264 694.449 50.988 694.449 50.988L693.745 49.448C693.745 49.448 692.667 50.482 691.083 50.482C689.213 50.482 688.091 49.008 688.091 47.05C688.091 45.026 689.301 43.552 691.105 43.552C692.557 43.552 693.591 44.476 693.591 44.476L694.449 42.848C694.449 42.848 693.239 41.792 691.061 41.792C687.783 41.792 685.825 44.41 685.825 47.16ZM696.647 52H698.825V47.292H699.133L703.093 52H705.887L701.047 46.412L705.579 42.056H702.741L699.133 45.686H698.825V36.27L696.647 36.622V52ZM508.704 79.712C508.704 81.186 509.826 82.264 511.564 82.264C513.5 82.264 514.512 81.032 514.776 80.614C515.062 81.406 515.7 82.044 517.218 82.154L517.878 80.438C517.878 80.438 516.778 80.416 516.778 79.184V74.982C516.778 72.76 516.03 71.792 513.676 71.792C511.058 71.792 509.364 73.046 509.364 73.046L509.936 74.674C509.936 74.674 511.454 73.53 513.082 73.53C514.688 73.53 514.6 74.63 514.6 75.884C510.882 76.368 508.704 77.622 508.704 79.712ZM512.114 80.548C511.476 80.548 510.948 80.262 510.948 79.558C510.948 78.392 512.07 77.666 514.6 77.292V79.008C513.94 79.778 513.126 80.548 512.114 80.548ZM519.077 73.706H520.639V82H522.817V73.706H525.567V72.056H522.817V70.868C522.817 68.536 523.873 67.722 525.039 67.722C526.117 67.722 527.085 68.426 527.085 68.426L527.943 66.754C527.943 66.754 526.799 65.918 525.061 65.918C522.465 65.918 520.639 67.744 520.639 71V71.968L519.077 72.54V73.706ZM528.093 79.294C528.093 81.34 529.215 82.264 530.931 82.264C532.691 82.264 533.989 81.208 533.989 81.208L533.439 79.558C533.175 79.712 532.251 80.438 531.415 80.438C530.689 80.438 530.271 79.954 530.271 78.744V73.706H533.417V72.056H530.271V69.24L528.137 69.702V71.968L526.619 72.518V73.706H528.093V79.294ZM535.22 77.182C535.22 79.844 536.914 82.264 540.236 82.264C542.722 82.264 544.24 80.834 544.24 80.834L543.624 79.25C543.624 79.25 542.238 80.482 540.566 80.482C538.828 80.482 537.728 79.316 537.486 77.512L542.92 76.786L544.174 76.434C544.174 73.42 542.458 71.792 540.082 71.792C537.178 71.792 535.22 74.146 535.22 77.182ZM539.928 73.486C541.666 73.486 541.798 75.51 541.798 75.51L537.486 76.06C537.684 74.608 538.52 73.486 539.928 73.486ZM546.621 82H548.799V75.84C549.217 75.18 550.119 73.992 551.219 73.992C551.659 73.992 552.099 74.168 552.099 74.168L552.539 71.968C552.539 71.968 552.231 71.792 551.681 71.792C550.163 71.792 549.151 73.2 548.755 73.882V71.88L546.621 72.232V82ZM558.763 79.712C558.763 81.186 559.885 82.264 561.623 82.264C563.559 82.264 564.571 81.032 564.835 80.614C565.121 81.406 565.759 82.044 567.277 82.154L567.937 80.438C567.937 80.438 566.837 80.416 566.837 79.184V74.982C566.837 72.76 566.089 71.792 563.735 71.792C561.117 71.792 559.423 73.046 559.423 73.046L559.995 74.674C559.995 74.674 561.513 73.53 563.141 73.53C564.747 73.53 564.659 74.63 564.659 75.884C560.941 76.368 558.763 77.622 558.763 79.712ZM562.173 80.548C561.535 80.548 561.007 80.262 561.007 79.558C561.007 78.392 562.129 77.666 564.659 77.292V79.008C563.999 79.778 563.185 80.548 562.173 80.548ZM575.367 82H577.545V75.84C577.963 75.18 578.865 73.992 579.965 73.992C580.405 73.992 580.845 74.168 580.845 74.168L581.285 71.968C581.285 71.968 580.977 71.792 580.427 71.792C578.909 71.792 577.897 73.2 577.501 73.882V71.88L575.367 72.232V82ZM582.228 77.182C582.228 79.844 583.922 82.264 587.244 82.264C589.73 82.264 591.248 80.834 591.248 80.834L590.632 79.25C590.632 79.25 589.246 80.482 587.574 80.482C585.836 80.482 584.736 79.316 584.494 77.512L589.928 76.786L591.182 76.434C591.182 73.42 589.466 71.792 587.09 71.792C584.186 71.792 582.228 74.146 582.228 77.182ZM586.936 73.486C588.674 73.486 588.806 75.51 588.806 75.51L584.494 76.06C584.692 74.608 585.528 73.486 586.936 73.486ZM593.673 82H595.851V66.27L593.673 66.622V82ZM598.122 79.712C598.122 81.186 599.244 82.264 600.982 82.264C602.918 82.264 603.93 81.032 604.194 80.614C604.48 81.406 605.118 82.044 606.636 82.154L607.296 80.438C607.296 80.438 606.196 80.416 606.196 79.184V74.982C606.196 72.76 605.448 71.792 603.094 71.792C600.476 71.792 598.782 73.046 598.782 73.046L599.354 74.674C599.354 74.674 600.872 73.53 602.5 73.53C604.106 73.53 604.018 74.63 604.018 75.884C600.3 76.368 598.122 77.622 598.122 79.712ZM601.532 80.548C600.894 80.548 600.366 80.262 600.366 79.558C600.366 78.392 601.488 77.666 604.018 77.292V79.008C603.358 79.778 602.544 80.548 601.532 80.548ZM609.441 87.126L611.619 86.774V81.736C612.037 82.044 612.785 82.264 613.709 82.264C616.877 82.264 618.725 79.668 618.725 76.72C618.725 74.014 617.141 71.792 614.523 71.792C612.961 71.792 612.015 72.606 611.553 73.464V71.88L609.441 72.232V87.126ZM614.149 73.596C615.491 73.596 616.437 74.806 616.437 76.874C616.437 79.25 615.183 80.548 613.313 80.548C612.279 80.548 611.619 80.174 611.619 79.426V75.202C611.905 74.784 612.829 73.596 614.149 73.596ZM620.447 81.384C620.447 81.384 621.679 82.264 623.747 82.264C626.189 82.264 627.619 81.054 627.619 79.25C627.619 76.082 622.845 76.236 622.845 74.498C622.845 73.926 623.329 73.508 624.429 73.508C625.705 73.508 626.849 74.124 626.849 74.124L627.355 72.342C627.355 72.342 626.255 71.792 624.517 71.792C621.767 71.792 620.667 73.134 620.667 74.674C620.667 77.798 625.441 77.666 625.441 79.448C625.441 80.086 624.891 80.548 623.725 80.548C622.119 80.548 620.909 79.536 620.909 79.536L620.447 81.384ZM629.343 77.182C629.343 79.844 631.037 82.264 634.359 82.264C636.845 82.264 638.363 80.834 638.363 80.834L637.747 79.25C637.747 79.25 636.361 80.482 634.689 80.482C632.951 80.482 631.851 79.316 631.609 77.512L637.043 76.786L638.297 76.434C638.297 73.42 636.581 71.792 634.205 71.792C631.301 71.792 629.343 74.146 629.343 77.182ZM634.051 73.486C635.789 73.486 635.921 75.51 635.921 75.51L631.609 76.06C631.807 74.608 632.643 73.486 634.051 73.486Z" fill="#333333"/>
<path d="M756.572 21.56H762.754V26.246H764.888V21.56H766.934V19.866H764.888V11.44H762.82L756.572 20.108V21.56ZM758.794 19.866L762.754 14.256V19.866H758.794ZM770.637 14.916C771.473 14.916 772.133 14.234 772.133 13.42C772.133 12.606 771.473 11.946 770.637 11.946C769.823 11.946 769.163 12.606 769.163 13.42C769.163 14.234 769.823 14.916 770.637 14.916ZM769.163 20.79C769.163 21.604 769.823 22.264 770.637 22.264C771.473 22.264 772.133 21.604 772.133 20.79C772.133 19.954 771.473 19.294 770.637 19.294C769.823 19.294 769.163 19.954 769.163 20.79ZM780.947 22H783.213V16.104H785.479L789.395 22H792.079L787.767 15.576C789.241 14.894 790.583 13.508 790.583 11.506C790.583 9.284 789.043 7.326 785.259 7.326H780.947V22ZM783.213 14.212V9.218H784.885C787.327 9.218 788.185 10.34 788.185 11.66C788.185 13.288 786.865 14.212 785.215 14.212H783.213ZM792.866 17.182C792.866 19.844 794.56 22.264 797.882 22.264C800.368 22.264 801.886 20.834 801.886 20.834L801.27 19.25C801.27 19.25 799.884 20.482 798.212 20.482C796.474 20.482 795.374 19.316 795.132 17.512L800.566 16.786L801.82 16.434C801.82 13.42 800.104 11.792 797.728 11.792C794.824 11.792 792.866 14.146 792.866 17.182ZM797.574 13.486C799.312 13.486 799.444 15.51 799.444 15.51L795.132 16.06C795.33 14.608 796.166 13.486 797.574 13.486ZM803.475 19.712C803.475 21.186 804.597 22.264 806.335 22.264C808.271 22.264 809.283 21.032 809.547 20.614C809.833 21.406 810.471 22.044 811.989 22.154L812.649 20.438C812.649 20.438 811.549 20.416 811.549 19.184V14.982C811.549 12.76 810.801 11.792 808.447 11.792C805.829 11.792 804.135 13.046 804.135 13.046L804.707 14.674C804.707 14.674 806.225 13.53 807.853 13.53C809.459 13.53 809.371 14.63 809.371 15.884C805.653 16.368 803.475 17.622 803.475 19.712ZM806.885 20.548C806.247 20.548 805.719 20.262 805.719 19.558C805.719 18.392 806.841 17.666 809.371 17.292V19.008C808.711 19.778 807.897 20.548 806.885 20.548ZM814.839 22H817.017V6.27L814.839 6.622V22ZM821.224 9.68C822.016 9.68 822.61 9.108 822.61 8.338C822.61 7.568 822.016 6.996 821.224 6.996C820.454 6.996 819.86 7.568 819.86 8.338C819.86 9.108 820.454 9.68 821.224 9.68ZM820.124 22H822.302V12.056H820.124V22ZM824.727 22H832.713V20.24H827.477L832.537 13.376V12.056H824.903V13.816H829.677L824.727 20.68V22ZM834.353 17.182C834.353 19.844 836.047 22.264 839.369 22.264C841.855 22.264 843.373 20.834 843.373 20.834L842.757 19.25C842.757 19.25 841.371 20.482 839.699 20.482C837.961 20.482 836.861 19.316 836.619 17.512L842.053 16.786L843.307 16.434C843.307 13.42 841.591 11.792 839.215 11.792C836.311 11.792 834.353 14.146 834.353 17.182ZM839.061 13.486C840.799 13.486 840.931 15.51 840.931 15.51L836.619 16.06C836.817 14.608 837.653 13.486 839.061 13.486ZM851.611 19.294C851.611 21.34 852.733 22.264 854.449 22.264C856.209 22.264 857.507 21.208 857.507 21.208L856.957 19.558C856.693 19.712 855.769 20.438 854.933 20.438C854.207 20.438 853.789 19.954 853.789 18.744V13.706H856.935V12.056H853.789V9.24L851.655 9.702V11.968L850.137 12.518V13.706H851.611V19.294ZM859.397 22H861.575V15.598C862.235 14.938 863.665 13.684 864.765 13.684C865.513 13.684 865.953 14.212 865.953 15.62V22H868.131V14.828C868.131 12.694 867.053 11.792 865.469 11.792C863.643 11.792 862.235 13.024 861.575 13.728V6.27L859.397 6.622V22ZM870.27 19.712C870.27 21.186 871.392 22.264 873.13 22.264C875.066 22.264 876.078 21.032 876.342 20.614C876.628 21.406 877.266 22.044 878.784 22.154L879.444 20.438C879.444 20.438 878.344 20.416 878.344 19.184V14.982C878.344 12.76 877.596 11.792 875.242 11.792C872.624 11.792 870.93 13.046 870.93 13.046L871.502 14.674C871.502 14.674 873.02 13.53 874.648 13.53C876.254 13.53 876.166 14.63 876.166 15.884C872.448 16.368 870.27 17.622 870.27 19.712ZM873.68 20.548C873.042 20.548 872.514 20.262 872.514 19.558C872.514 18.392 873.636 17.666 876.166 17.292V19.008C875.506 19.778 874.692 20.548 873.68 20.548ZM882.076 19.294C882.076 21.34 883.198 22.264 884.914 22.264C886.674 22.264 887.972 21.208 887.972 21.208L887.422 19.558C887.158 19.712 886.234 20.438 885.398 20.438C884.672 20.438 884.254 19.954 884.254 18.744V13.706H887.4V12.056H884.254V9.24L882.12 9.702V11.968L880.602 12.518V13.706H882.076V19.294ZM895.609 22H897.875V7.326H895.609V22ZM906.046 17.16C906.046 20.042 908.048 22.264 911.15 22.264C913.526 22.264 914.67 20.988 914.67 20.988L913.966 19.448C913.966 19.448 912.888 20.482 911.304 20.482C909.434 20.482 908.312 19.008 908.312 17.05C908.312 15.026 909.522 13.552 911.326 13.552C912.778 13.552 913.812 14.476 913.812 14.476L914.67 12.848C914.67 12.848 913.46 11.792 911.282 11.792C908.004 11.792 906.046 14.41 906.046 17.16ZM916.032 19.712C916.032 21.186 917.154 22.264 918.892 22.264C920.828 22.264 921.84 21.032 922.104 20.614C922.39 21.406 923.028 22.044 924.546 22.154L925.206 20.438C925.206 20.438 924.106 20.416 924.106 19.184V14.982C924.106 12.76 923.358 11.792 921.004 11.792C918.386 11.792 916.692 13.046 916.692 13.046L917.264 14.674C917.264 14.674 918.782 13.53 920.41 13.53C922.016 13.53 921.928 14.63 921.928 15.884C918.21 16.368 916.032 17.622 916.032 19.712ZM919.442 20.548C918.804 20.548 918.276 20.262 918.276 19.558C918.276 18.392 919.398 17.666 921.928 17.292V19.008C921.268 19.778 920.454 20.548 919.442 20.548ZM927.351 22H929.529V15.554C930.211 14.894 931.619 13.684 932.719 13.684C933.467 13.684 933.907 14.212 933.907 15.62V22H936.085V14.828C936.085 12.694 935.007 11.792 933.445 11.792C931.619 11.792 930.189 13.002 929.485 13.772V11.88L927.351 12.232V22ZM944.347 22H946.525V6.27L944.347 6.622V22ZM950.732 9.68C951.524 9.68 952.118 9.108 952.118 8.338C952.118 7.568 951.524 6.996 950.732 6.996C949.962 6.996 949.368 7.568 949.368 8.338C949.368 9.108 949.962 9.68 950.732 9.68ZM949.632 22H951.81V12.056H949.632V22ZM957.271 22.088H959.295L963.387 12.056H961.165L958.371 19.272L955.951 12.056H953.663L957.271 22.088ZM964.398 17.182C964.398 19.844 966.092 22.264 969.414 22.264C971.9 22.264 973.418 20.834 973.418 20.834L972.802 19.25C972.802 19.25 971.416 20.482 969.744 20.482C968.006 20.482 966.906 19.316 966.664 17.512L972.098 16.786L973.352 16.434C973.352 13.42 971.636 11.792 969.26 11.792C966.356 11.792 964.398 14.146 964.398 17.182ZM969.106 13.486C970.844 13.486 970.976 15.51 970.976 15.51L966.664 16.06C966.862 14.608 967.698 13.486 969.106 13.486ZM756.704 49.712C756.704 51.186 757.826 52.264 759.564 52.264C761.5 52.264 762.512 51.032 762.776 50.614C763.062 51.406 763.7 52.044 765.218 52.154L765.878 50.438C765.878 50.438 764.778 50.416 764.778 49.184V44.982C764.778 42.76 764.03 41.792 761.676 41.792C759.058 41.792 757.364 43.046 757.364 43.046L757.936 44.674C757.936 44.674 759.454 43.53 761.082 43.53C762.688 43.53 762.6 44.63 762.6 45.884C758.882 46.368 756.704 47.622 756.704 49.712ZM760.114 50.548C759.476 50.548 758.948 50.262 758.948 49.558C758.948 48.392 760.07 47.666 762.6 47.292V49.008C761.94 49.778 761.126 50.548 760.114 50.548ZM772.363 43.706H773.925V52H776.103V43.706H778.853V42.056H776.103V40.868C776.103 38.536 777.159 37.722 778.325 37.722C779.403 37.722 780.371 38.426 780.371 38.426L781.229 36.754C781.229 36.754 780.085 35.918 778.347 35.918C775.751 35.918 773.925 37.744 773.925 41V41.968L772.363 42.54V43.706ZM780.741 49.272C780.741 51.406 781.841 52.264 783.447 52.264C785.273 52.264 786.659 51.098 787.297 50.416C787.407 51.142 787.627 52.176 787.627 52.176L789.739 51.978C789.739 51.978 789.299 50.152 789.299 48.942V42.056H787.121V48.744C786.505 49.316 785.273 50.372 784.151 50.372C783.337 50.372 782.919 49.822 782.919 48.436V42.056H780.741V49.272ZM792.452 52H794.63V36.27L792.452 36.622V52ZM797.737 52H799.915V36.27L797.737 36.622V52ZM808.308 52H810.486V36.27L808.308 36.622V52ZM814.693 39.68C815.485 39.68 816.079 39.108 816.079 38.338C816.079 37.568 815.485 36.996 814.693 36.996C813.923 36.996 813.329 37.568 813.329 38.338C813.329 39.108 813.923 39.68 814.693 39.68ZM813.593 52H815.771V42.056H813.593V52ZM817.888 43.706H819.45V52H821.628V43.706H824.378V42.056H821.628V40.868C821.628 38.536 822.684 37.722 823.85 37.722C824.928 37.722 825.896 38.426 825.896 38.426L826.754 36.754C826.754 36.754 825.61 35.918 823.872 35.918C821.276 35.918 819.45 37.744 819.45 41V41.968L817.888 42.54V43.706ZM825.566 47.182C825.566 49.844 827.26 52.264 830.582 52.264C833.068 52.264 834.586 50.834 834.586 50.834L833.97 49.25C833.97 49.25 832.584 50.482 830.912 50.482C829.174 50.482 828.074 49.316 827.832 47.512L833.266 46.786L834.52 46.434C834.52 43.42 832.804 41.792 830.428 41.792C827.524 41.792 825.566 44.146 825.566 47.182ZM830.274 43.486C832.012 43.486 832.144 45.51 832.144 45.51L827.832 46.06C828.03 44.608 828.866 43.486 830.274 43.486ZM841.636 47.182C841.636 49.844 843.33 52.264 846.652 52.264C849.138 52.264 850.656 50.834 850.656 50.834L850.04 49.25C850.04 49.25 848.654 50.482 846.982 50.482C845.244 50.482 844.144 49.316 843.902 47.512L849.336 46.786L850.59 46.434C850.59 43.42 848.874 41.792 846.498 41.792C843.594 41.792 841.636 44.146 841.636 47.182ZM846.344 43.486C848.082 43.486 848.214 45.51 848.214 45.51L843.902 46.06C844.1 44.608 844.936 43.486 846.344 43.486ZM855.435 52.088H857.459L861.551 42.056H859.329L856.535 49.272L854.115 42.056H851.827L855.435 52.088ZM862.562 47.182C862.562 49.844 864.256 52.264 867.578 52.264C870.064 52.264 871.582 50.834 871.582 50.834L870.966 49.25C870.966 49.25 869.58 50.482 867.908 50.482C866.17 50.482 865.07 49.316 864.828 47.512L870.262 46.786L871.516 46.434C871.516 43.42 869.8 41.792 867.424 41.792C864.52 41.792 862.562 44.146 862.562 47.182ZM867.27 43.486C869.008 43.486 869.14 45.51 869.14 45.51L864.828 46.06C865.026 44.608 865.862 43.486 867.27 43.486ZM873.963 52H876.141V45.554C876.823 44.894 878.231 43.684 879.331 43.684C880.079 43.684 880.519 44.212 880.519 45.62V52H882.697V44.828C882.697 42.694 881.619 41.792 880.057 41.792C878.231 41.792 876.801 43.002 876.097 43.772V41.88L873.963 42.232V52ZM893.004 52.088H895.116L897.668 45.004L899.956 52.088H902.09L905.654 42.056H903.432L901.034 49.536L898.702 42.056H896.81L894.236 49.58L892.058 42.056H889.814L893.004 52.088ZM908.622 39.68C909.414 39.68 910.008 39.108 910.008 38.338C910.008 37.568 909.414 36.996 908.622 36.996C907.852 36.996 907.258 37.568 907.258 38.338C907.258 39.108 907.852 39.68 908.622 39.68ZM907.522 52H909.7V42.056H907.522V52ZM913.336 49.294C913.336 51.34 914.458 52.264 916.174 52.264C917.934 52.264 919.232 51.208 919.232 51.208L918.682 49.558C918.418 49.712 917.494 50.438 916.658 50.438C915.932 50.438 915.514 49.954 915.514 48.744V43.706H918.66V42.056H915.514V39.24L913.38 39.702V41.968L911.862 42.518V43.706H913.336V49.294ZM921.122 52H923.3V45.598C923.96 44.938 925.39 43.684 926.49 43.684C927.238 43.684 927.678 44.212 927.678 45.62V52H929.856V44.828C929.856 42.694 928.778 41.792 927.194 41.792C925.368 41.792 923.96 43.024 923.3 43.728V36.27L921.122 36.622V52ZM937.28 49.712C937.28 51.186 938.402 52.264 940.14 52.264C942.076 52.264 943.088 51.032 943.352 50.614C943.638 51.406 944.276 52.044 945.794 52.154L946.454 50.438C946.454 50.438 945.354 50.416 945.354 49.184V44.982C945.354 42.76 944.606 41.792 942.252 41.792C939.634 41.792 937.94 43.046 937.94 43.046L938.512 44.674C938.512 44.674 940.03 43.53 941.658 43.53C943.264 43.53 943.176 44.63 943.176 45.884C939.458 46.368 937.28 47.622 937.28 49.712ZM940.69 50.548C940.052 50.548 939.524 50.262 939.524 49.558C939.524 48.392 940.646 47.666 943.176 47.292V49.008C942.516 49.778 941.702 50.548 940.69 50.548ZM756.858 77.16C756.858 80.042 758.86 82.264 761.962 82.264C764.338 82.264 765.482 80.988 765.482 80.988L764.778 79.448C764.778 79.448 763.7 80.482 762.116 80.482C760.246 80.482 759.124 79.008 759.124 77.05C759.124 75.026 760.334 73.552 762.138 73.552C763.59 73.552 764.624 74.476 764.624 74.476L765.482 72.848C765.482 72.848 764.272 71.792 762.094 71.792C758.816 71.792 756.858 74.41 756.858 77.16ZM767.681 82H769.859V75.598C770.519 74.938 771.949 73.684 773.049 73.684C773.797 73.684 774.237 74.212 774.237 75.62V82H776.415V74.828C776.415 72.694 775.337 71.792 773.753 71.792C771.927 71.792 770.519 73.024 769.859 73.728V66.27L767.681 66.622V82ZM779.346 82H781.524V75.84C781.942 75.18 782.844 73.992 783.944 73.992C784.384 73.992 784.824 74.168 784.824 74.168L785.264 71.968C785.264 71.968 784.956 71.792 784.406 71.792C782.888 71.792 781.876 73.2 781.48 73.882V71.88L779.346 72.232V82ZM786.184 77.072C786.184 79.712 787.966 82.264 791.266 82.264C794.852 82.264 796.436 79.25 796.436 76.83C796.436 74.278 794.654 71.792 791.354 71.792C787.79 71.792 786.184 74.586 786.184 77.072ZM788.45 76.874C788.45 74.894 789.616 73.53 791.31 73.53C793.334 73.53 794.17 75.356 794.17 77.116C794.17 79.118 793.004 80.526 791.332 80.526C789.352 80.526 788.45 78.722 788.45 76.874ZM798.789 82H800.967V75.554C801.649 74.894 803.057 73.684 804.157 73.684C804.905 73.684 805.345 74.212 805.345 75.62V82H807.523V74.828C807.523 72.694 806.445 71.792 804.883 71.792C803.057 71.792 801.627 73.002 800.923 73.772V71.88L798.789 72.232V82ZM811.599 69.68C812.391 69.68 812.985 69.108 812.985 68.338C812.985 67.568 812.391 66.996 811.599 66.996C810.829 66.996 810.235 67.568 810.235 68.338C810.235 69.108 810.829 69.68 811.599 69.68ZM810.499 82H812.677V72.056H810.499V82ZM815.102 77.16C815.102 80.042 817.104 82.264 820.206 82.264C822.582 82.264 823.726 80.988 823.726 80.988L823.022 79.448C823.022 79.448 821.944 80.482 820.36 80.482C818.49 80.482 817.368 79.008 817.368 77.05C817.368 75.026 818.578 73.552 820.382 73.552C821.834 73.552 822.868 74.476 822.868 74.476L823.726 72.848C823.726 72.848 822.516 71.792 820.338 71.792C817.06 71.792 815.102 74.41 815.102 77.16ZM832.31 69.68C833.102 69.68 833.696 69.108 833.696 68.338C833.696 67.568 833.102 66.996 832.31 66.996C831.54 66.996 830.946 67.568 830.946 68.338C830.946 69.108 831.54 69.68 832.31 69.68ZM831.21 82H833.388V72.056H831.21V82ZM836.495 82H838.673V66.27L836.495 66.622V82ZM841.78 82H843.958V66.27L841.78 66.622V82ZM847.021 82H849.199V75.554C849.881 74.894 851.289 73.684 852.389 73.684C853.137 73.684 853.577 74.212 853.577 75.62V82H855.755V74.828C855.755 72.694 854.677 71.792 853.115 71.792C851.289 71.792 849.859 73.002 849.155 73.772V71.88L847.021 72.232V82ZM858.071 77.182C858.071 79.844 859.765 82.264 863.087 82.264C865.573 82.264 867.091 80.834 867.091 80.834L866.475 79.25C866.475 79.25 865.089 80.482 863.417 80.482C861.679 80.482 860.579 79.316 860.337 77.512L865.771 76.786L867.025 76.434C867.025 73.42 865.309 71.792 862.933 71.792C860.029 71.792 858.071 74.146 858.071 77.182ZM862.779 73.486C864.517 73.486 864.649 75.51 864.649 75.51L860.337 76.06C860.535 74.608 861.371 73.486 862.779 73.486ZM868.813 81.384C868.813 81.384 870.045 82.264 872.113 82.264C874.555 82.264 875.985 81.054 875.985 79.25C875.985 76.082 871.211 76.236 871.211 74.498C871.211 73.926 871.695 73.508 872.795 73.508C874.071 73.508 875.215 74.124 875.215 74.124L875.721 72.342C875.721 72.342 874.621 71.792 872.883 71.792C870.133 71.792 869.033 73.134 869.033 74.674C869.033 77.798 873.807 77.666 873.807 79.448C873.807 80.086 873.257 80.548 872.091 80.548C870.485 80.548 869.275 79.536 869.275 79.536L868.813 81.384ZM877.664 81.384C877.664 81.384 878.896 82.264 880.964 82.264C883.406 82.264 884.836 81.054 884.836 79.25C884.836 76.082 880.062 76.236 880.062 74.498C880.062 73.926 880.546 73.508 881.646 73.508C882.922 73.508 884.066 74.124 884.066 74.124L884.572 72.342C884.572 72.342 883.472 71.792 881.734 71.792C878.984 71.792 877.884 73.134 877.884 74.674C877.884 77.798 882.658 77.666 882.658 79.448C882.658 80.086 882.108 80.548 880.942 80.548C879.336 80.548 878.126 79.536 878.126 79.536L877.664 81.384ZM886.89 80.79C886.89 81.604 887.55 82.264 888.364 82.264C889.178 82.264 889.86 81.604 889.86 80.79C889.86 79.954 889.178 79.294 888.364 79.294C887.55 79.294 886.89 79.954 886.89 80.79Z" fill="#333333"/>
<path d="M261.056 22H269.174V20.24H264.158C265.984 18.722 268.25 16.698 268.25 14.476C268.25 12.694 266.776 11.352 264.686 11.352C262.574 11.352 260.968 12.738 260.968 12.738L261.848 14.124C261.848 14.124 263.014 13.178 264.29 13.178C265.302 13.178 265.984 13.838 265.984 14.784C265.984 17.138 260.968 20.68 260.968 20.68L261.056 22ZM272.983 14.916C273.819 14.916 274.479 14.234 274.479 13.42C274.479 12.606 273.819 11.946 272.983 11.946C272.169 11.946 271.509 12.606 271.509 13.42C271.509 14.234 272.169 14.916 272.983 14.916ZM271.509 20.79C271.509 21.604 272.169 22.264 272.983 22.264C273.819 22.264 274.479 21.604 274.479 20.79C274.479 19.954 273.819 19.294 272.983 19.294C272.169 19.294 271.509 19.954 271.509 20.79ZM283.293 22H288.353C291.301 22 293.369 20.328 293.369 17.732C293.369 15.4 291.675 14.432 290.817 14.08C291.587 13.486 292.577 12.408 292.577 10.846C292.577 9.152 291.389 7.326 287.605 7.326H283.293V22ZM285.559 20.108V15.422H288.023C290.069 15.422 290.971 16.412 290.971 17.776C290.971 19.162 290.069 20.108 288.023 20.108H285.559ZM285.559 9.218H287.275C289.563 9.218 290.179 10.12 290.179 11.22C290.179 12.804 288.771 13.552 288.771 13.552H285.559V9.218ZM295.234 17.182C295.234 19.844 296.928 22.264 300.25 22.264C302.736 22.264 304.254 20.834 304.254 20.834L303.638 19.25C303.638 19.25 302.252 20.482 300.58 20.482C298.842 20.482 297.742 19.316 297.5 17.512L302.934 16.786L304.188 16.434C304.188 13.42 302.472 11.792 300.096 11.792C297.192 11.792 295.234 14.146 295.234 17.182ZM299.942 13.486C301.68 13.486 301.812 15.51 301.812 15.51L297.5 16.06C297.698 14.608 298.534 13.486 299.942 13.486ZM306.679 22H308.857V6.27L306.679 6.622V22ZM313.064 9.68C313.856 9.68 314.45 9.108 314.45 8.338C314.45 7.568 313.856 6.996 313.064 6.996C312.294 6.996 311.7 7.568 311.7 8.338C311.7 9.108 312.294 9.68 313.064 9.68ZM311.964 22H314.142V12.056H311.964V22ZM316.589 17.182C316.589 19.844 318.283 22.264 321.605 22.264C324.091 22.264 325.609 20.834 325.609 20.834L324.993 19.25C324.993 19.25 323.607 20.482 321.935 20.482C320.197 20.482 319.097 19.316 318.855 17.512L324.289 16.786L325.543 16.434C325.543 13.42 323.827 11.792 321.451 11.792C318.547 11.792 316.589 14.146 316.589 17.182ZM321.297 13.486C323.035 13.486 323.167 15.51 323.167 15.51L318.855 16.06C319.053 14.608 319.889 13.486 321.297 13.486ZM330.388 22.088H332.412L336.504 12.056H334.282L331.488 19.272L329.068 12.056H326.78L330.388 22.088ZM337.515 17.182C337.515 19.844 339.209 22.264 342.531 22.264C345.017 22.264 346.535 20.834 346.535 20.834L345.919 19.25C345.919 19.25 344.533 20.482 342.861 20.482C341.123 20.482 340.023 19.316 339.781 17.512L345.215 16.786L346.469 16.434C346.469 13.42 344.753 11.792 342.377 11.792C339.473 11.792 337.515 14.146 337.515 17.182ZM342.223 13.486C343.961 13.486 344.093 15.51 344.093 15.51L339.781 16.06C339.979 14.608 340.815 13.486 342.223 13.486ZM354.773 19.294C354.773 21.34 355.895 22.264 357.611 22.264C359.371 22.264 360.669 21.208 360.669 21.208L360.119 19.558C359.855 19.712 358.931 20.438 358.095 20.438C357.369 20.438 356.951 19.954 356.951 18.744V13.706H360.097V12.056H356.951V9.24L354.817 9.702V11.968L353.299 12.518V13.706H354.773V19.294ZM362.56 22H364.738V15.598C365.398 14.938 366.828 13.684 367.928 13.684C368.676 13.684 369.116 14.212 369.116 15.62V22H371.294V14.828C371.294 12.694 370.216 11.792 368.632 11.792C366.806 11.792 365.398 13.024 364.738 13.728V6.27L362.56 6.622V22ZM373.433 19.712C373.433 21.186 374.555 22.264 376.293 22.264C378.229 22.264 379.241 21.032 379.505 20.614C379.791 21.406 380.429 22.044 381.947 22.154L382.607 20.438C382.607 20.438 381.507 20.416 381.507 19.184V14.982C381.507 12.76 380.759 11.792 378.405 11.792C375.787 11.792 374.093 13.046 374.093 13.046L374.665 14.674C374.665 14.674 376.183 13.53 377.811 13.53C379.417 13.53 379.329 14.63 379.329 15.884C375.611 16.368 373.433 17.622 373.433 19.712ZM376.843 20.548C376.205 20.548 375.677 20.262 375.677 19.558C375.677 18.392 376.799 17.666 379.329 17.292V19.008C378.669 19.778 377.855 20.548 376.843 20.548ZM385.238 19.294C385.238 21.34 386.36 22.264 388.076 22.264C389.836 22.264 391.134 21.208 391.134 21.208L390.584 19.558C390.32 19.712 389.396 20.438 388.56 20.438C387.834 20.438 387.416 19.954 387.416 18.744V13.706H390.562V12.056H387.416V9.24L385.282 9.702V11.968L383.764 12.518V13.706H385.238V19.294ZM402.776 12.144L404.69 11.066C403.656 9.966 403.37 9.35 403.37 8.646C403.37 7.876 403.744 7.194 404.58 6.556L403.744 5.676C402.336 6.754 401.61 8.074 401.61 9.394C401.61 10.34 401.94 11.242 402.776 12.144ZM398.926 12.144L400.84 11.066C399.806 9.966 399.52 9.35 399.52 8.646C399.52 7.876 399.894 7.194 400.73 6.556L399.894 5.676C398.486 6.754 397.76 8.074 397.76 9.394C397.76 10.34 398.09 11.242 398.926 12.144ZM407.387 22H409.653V7.326H407.387V22ZM417.823 17.16C417.823 20.042 419.825 22.264 422.927 22.264C425.303 22.264 426.447 20.988 426.447 20.988L425.743 19.448C425.743 19.448 424.665 20.482 423.081 20.482C421.211 20.482 420.089 19.008 420.089 17.05C420.089 15.026 421.299 13.552 423.103 13.552C424.555 13.552 425.589 14.476 425.589 14.476L426.447 12.848C426.447 12.848 425.237 11.792 423.059 11.792C419.781 11.792 417.823 14.41 417.823 17.16ZM427.809 19.712C427.809 21.186 428.931 22.264 430.669 22.264C432.605 22.264 433.617 21.032 433.881 20.614C434.167 21.406 434.805 22.044 436.323 22.154L436.983 20.438C436.983 20.438 435.883 20.416 435.883 19.184V14.982C435.883 12.76 435.135 11.792 432.781 11.792C430.163 11.792 428.469 13.046 428.469 13.046L429.041 14.674C429.041 14.674 430.559 13.53 432.187 13.53C433.793 13.53 433.705 14.63 433.705 15.884C429.987 16.368 427.809 17.622 427.809 19.712ZM431.219 20.548C430.581 20.548 430.053 20.262 430.053 19.558C430.053 18.392 431.175 17.666 433.705 17.292V19.008C433.045 19.778 432.231 20.548 431.219 20.548ZM439.129 22H441.307V15.554C441.989 14.894 443.397 13.684 444.497 13.684C445.245 13.684 445.685 14.212 445.685 15.62V22H447.863V14.828C447.863 12.694 446.785 11.792 445.223 11.792C443.397 11.792 441.967 13.002 441.263 13.772V11.88L439.129 12.232V22ZM455.464 17.336C455.464 20.064 457.136 22.264 459.732 22.264C461.316 22.264 462.328 21.494 462.856 20.636C462.966 21.34 463.164 22.154 463.164 22.154L465.254 22C465.254 22 464.814 20.152 464.814 18.942V6.27L462.636 6.622V12.122C462.35 12.012 461.69 11.792 460.788 11.792C457.268 11.792 455.464 14.498 455.464 17.336ZM460.106 20.526C458.698 20.526 457.752 19.272 457.752 17.204C457.752 14.828 459.006 13.508 460.898 13.508C461.8 13.508 462.592 13.838 462.636 14.828V18.92C462.328 19.382 461.448 20.526 460.106 20.526ZM467.258 17.072C467.258 19.712 469.04 22.264 472.34 22.264C475.926 22.264 477.51 19.25 477.51 16.83C477.51 14.278 475.728 11.792 472.428 11.792C468.864 11.792 467.258 14.586 467.258 17.072ZM469.524 16.874C469.524 14.894 470.69 13.53 472.384 13.53C474.408 13.53 475.244 15.356 475.244 17.116C475.244 19.118 474.078 20.526 472.406 20.526C470.426 20.526 469.524 18.722 469.524 16.874ZM262.068 49.294C262.068 51.34 263.19 52.264 264.906 52.264C266.666 52.264 267.964 51.208 267.964 51.208L267.414 49.558C267.15 49.712 266.226 50.438 265.39 50.438C264.664 50.438 264.246 49.954 264.246 48.744V43.706H267.392V42.056H264.246V39.24L262.112 39.702V41.968L260.594 42.518V43.706H262.068V49.294ZM269.854 52H272.032V45.598C272.692 44.938 274.122 43.684 275.222 43.684C275.97 43.684 276.41 44.212 276.41 45.62V52H278.588V44.828C278.588 42.694 277.51 41.792 275.926 41.792C274.1 41.792 272.692 43.024 272.032 43.728V36.27L269.854 36.622V52ZM282.663 39.68C283.455 39.68 284.049 39.108 284.049 38.338C284.049 37.568 283.455 36.996 282.663 36.996C281.893 36.996 281.299 37.568 281.299 38.338C281.299 39.108 281.893 39.68 282.663 39.68ZM281.563 52H283.741V42.056H281.563V52ZM286.145 51.384C286.145 51.384 287.377 52.264 289.445 52.264C291.887 52.264 293.317 51.054 293.317 49.25C293.317 46.082 288.543 46.236 288.543 44.498C288.543 43.926 289.027 43.508 290.127 43.508C291.403 43.508 292.547 44.124 292.547 44.124L293.053 42.342C293.053 42.342 291.953 41.792 290.215 41.792C287.465 41.792 286.365 43.134 286.365 44.674C286.365 47.798 291.139 47.666 291.139 49.448C291.139 50.086 290.589 50.548 289.423 50.548C287.817 50.548 286.607 49.536 286.607 49.536L286.145 51.384ZM299.66 42.144C301.068 41.044 301.794 39.746 301.794 38.404C301.794 37.458 301.464 36.556 300.628 35.676L298.714 36.732C299.748 37.832 300.034 38.448 300.034 39.152C300.034 39.922 299.66 40.604 298.824 41.242L299.66 42.144ZM295.81 42.144C297.218 41.044 297.944 39.746 297.944 38.404C297.944 37.458 297.614 36.556 296.778 35.676L294.842 36.732C295.898 37.832 296.184 38.448 296.184 39.152C296.184 39.922 295.81 40.604 294.974 41.242L295.81 42.144ZM311.518 52.088H313.63L316.182 45.004L318.47 52.088H320.604L324.168 42.056H321.946L319.548 49.536L317.216 42.056H315.324L312.75 49.58L310.572 42.056H308.328L311.518 52.088ZM327.136 39.68C327.928 39.68 328.522 39.108 328.522 38.338C328.522 37.568 327.928 36.996 327.136 36.996C326.366 36.996 325.772 37.568 325.772 38.338C325.772 39.108 326.366 39.68 327.136 39.68ZM326.036 52H328.214V42.056H326.036V52ZM331.849 49.294C331.849 51.34 332.971 52.264 334.687 52.264C336.447 52.264 337.745 51.208 337.745 51.208L337.195 49.558C336.931 49.712 336.007 50.438 335.171 50.438C334.445 50.438 334.027 49.954 334.027 48.744V43.706H337.173V42.056H334.027V39.24L331.893 39.702V41.968L330.375 42.518V43.706H331.849V49.294ZM339.636 52H341.814V45.598C342.474 44.938 343.904 43.684 345.004 43.684C345.752 43.684 346.192 44.212 346.192 45.62V52H348.37V44.828C348.37 42.694 347.292 41.792 345.708 41.792C343.882 41.792 342.474 43.024 341.814 43.728V36.27L339.636 36.622V52ZM357.158 49.294C357.158 51.34 358.28 52.264 359.996 52.264C361.756 52.264 363.054 51.208 363.054 51.208L362.504 49.558C362.24 49.712 361.316 50.438 360.48 50.438C359.754 50.438 359.336 49.954 359.336 48.744V43.706H362.482V42.056H359.336V39.24L357.202 39.702V41.968L355.684 42.518V43.706H357.158V49.294ZM364.944 52H367.122V45.598C367.782 44.938 369.212 43.684 370.312 43.684C371.06 43.684 371.5 44.212 371.5 45.62V52H373.678V44.828C373.678 42.694 372.6 41.792 371.016 41.792C369.19 41.792 367.782 43.024 367.122 43.728V36.27L364.944 36.622V52ZM375.993 47.182C375.993 49.844 377.687 52.264 381.009 52.264C383.495 52.264 385.013 50.834 385.013 50.834L384.397 49.25C384.397 49.25 383.011 50.482 381.339 50.482C379.601 50.482 378.501 49.316 378.259 47.512L383.693 46.786L384.947 46.434C384.947 43.42 383.231 41.792 380.855 41.792C377.951 41.792 375.993 44.146 375.993 47.182ZM380.701 43.486C382.439 43.486 382.571 45.51 382.571 45.51L378.259 46.06C378.457 44.608 379.293 43.486 380.701 43.486ZM392.68 52H394.858V45.84C395.276 45.18 396.178 43.992 397.278 43.992C397.718 43.992 398.158 44.168 398.158 44.168L398.598 41.968C398.598 41.968 398.29 41.792 397.74 41.792C396.222 41.792 395.21 43.2 394.814 43.882V41.88L392.68 42.232V52ZM401.472 39.68C402.264 39.68 402.858 39.108 402.858 38.338C402.858 37.568 402.264 36.996 401.472 36.996C400.702 36.996 400.108 37.568 400.108 38.338C400.108 39.108 400.702 39.68 401.472 39.68ZM400.372 52H402.55V42.056H400.372V52ZM405.591 50.24C405.591 50.922 406.229 51.318 407.219 51.648C406.163 52.198 404.689 53.144 404.689 54.596C404.689 56.334 406.845 57.214 409.045 57.214C412.037 57.214 414.479 55.52 414.479 53.518C414.479 51.692 412.477 51.142 410.717 50.702C408.649 50.196 407.681 49.998 407.681 49.602C407.681 49.36 408.033 49.096 408.495 48.788C408.715 48.832 408.957 48.832 409.221 48.832C411.355 48.832 413.621 47.666 413.621 45.488C413.621 44.608 413.203 44.014 412.895 43.662C413.159 43.706 413.467 43.728 413.709 43.728H414.897L414.743 41.99C414.743 41.99 414.083 42.21 413.423 42.21H412.279C411.179 42.21 410.607 41.792 409.397 41.792C407.175 41.792 405.173 43.046 405.173 45.268C405.173 46.61 405.899 47.776 407.153 48.392C406.339 48.854 405.591 49.514 405.591 50.24ZM409.463 52.22C411.311 52.704 412.345 52.99 412.345 53.848C412.345 54.838 410.937 55.63 409.177 55.63C407.923 55.63 406.647 55.234 406.647 54.244C406.647 53.254 407.857 52.594 408.803 52.066C409.023 52.11 409.243 52.154 409.463 52.22ZM409.375 47.292C407.967 47.292 407.307 46.28 407.307 45.334C407.307 44.3 408.055 43.332 409.375 43.332C410.783 43.332 411.465 44.476 411.465 45.444C411.465 46.566 410.585 47.292 409.375 47.292ZM416.786 52H418.964V45.598C419.624 44.938 421.054 43.684 422.154 43.684C422.902 43.684 423.342 44.212 423.342 45.62V52H425.52V44.828C425.52 42.694 424.442 41.792 422.858 41.792C421.032 41.792 419.624 43.024 418.964 43.728V36.27L416.786 36.622V52ZM429.023 49.294C429.023 51.34 430.145 52.264 431.861 52.264C433.621 52.264 434.919 51.208 434.919 51.208L434.369 49.558C434.105 49.712 433.181 50.438 432.345 50.438C431.619 50.438 431.201 49.954 431.201 48.744V43.706H434.347V42.056H431.201V39.24L429.067 39.702V41.968L427.549 42.518V43.706H429.023V49.294ZM260.836 81.384C260.836 81.384 262.068 82.264 264.136 82.264C266.578 82.264 268.008 81.054 268.008 79.25C268.008 76.082 263.234 76.236 263.234 74.498C263.234 73.926 263.718 73.508 264.818 73.508C266.094 73.508 267.238 74.124 267.238 74.124L267.744 72.342C267.744 72.342 266.644 71.792 264.906 71.792C262.156 71.792 261.056 73.134 261.056 74.674C261.056 77.798 265.83 77.666 265.83 79.448C265.83 80.086 265.28 80.548 264.114 80.548C262.508 80.548 261.298 79.536 261.298 79.536L260.836 81.384ZM270.282 79.272C270.282 81.406 271.382 82.264 272.988 82.264C274.814 82.264 276.2 81.098 276.838 80.416C276.948 81.142 277.168 82.176 277.168 82.176L279.28 81.978C279.28 81.978 278.84 80.152 278.84 78.942V72.056H276.662V78.744C276.046 79.316 274.814 80.372 273.692 80.372C272.878 80.372 272.46 79.822 272.46 78.436V72.056H270.282V79.272ZM281.949 87.126L284.127 86.774V81.736C284.545 82.044 285.293 82.264 286.217 82.264C289.385 82.264 291.233 79.668 291.233 76.72C291.233 74.014 289.649 71.792 287.031 71.792C285.469 71.792 284.523 72.606 284.061 73.464V71.88L281.949 72.232V87.126ZM286.657 73.596C287.999 73.596 288.945 74.806 288.945 76.874C288.945 79.25 287.691 80.548 285.821 80.548C284.787 80.548 284.127 80.174 284.127 79.426V75.202C284.413 74.784 285.337 73.596 286.657 73.596ZM293.615 87.126L295.793 86.774V81.736C296.211 82.044 296.959 82.264 297.883 82.264C301.051 82.264 302.899 79.668 302.899 76.72C302.899 74.014 301.315 71.792 298.697 71.792C297.135 71.792 296.189 72.606 295.727 73.464V71.88L293.615 72.232V87.126ZM298.323 73.596C299.665 73.596 300.611 74.806 300.611 76.874C300.611 79.25 299.357 80.548 297.487 80.548C296.453 80.548 295.793 80.174 295.793 79.426V75.202C296.079 74.784 297.003 73.596 298.323 73.596ZM304.643 77.072C304.643 79.712 306.425 82.264 309.725 82.264C313.311 82.264 314.895 79.25 314.895 76.83C314.895 74.278 313.113 71.792 309.813 71.792C306.249 71.792 304.643 74.586 304.643 77.072ZM306.909 76.874C306.909 74.894 308.075 73.53 309.769 73.53C311.793 73.53 312.629 75.356 312.629 77.116C312.629 79.118 311.463 80.526 309.791 80.526C307.811 80.526 306.909 78.722 306.909 76.874ZM317.248 82H319.426V75.84C319.844 75.18 320.746 73.992 321.846 73.992C322.286 73.992 322.726 74.168 322.726 74.168L323.166 71.968C323.166 71.968 322.858 71.792 322.308 71.792C320.79 71.792 319.778 73.2 319.382 73.882V71.88L317.248 72.232V82ZM325.468 79.294C325.468 81.34 326.59 82.264 328.306 82.264C330.066 82.264 331.364 81.208 331.364 81.208L330.814 79.558C330.55 79.712 329.626 80.438 328.79 80.438C328.064 80.438 327.646 79.954 327.646 78.744V73.706H330.792V72.056H327.646V69.24L325.512 69.702V71.968L323.994 72.518V73.706H325.468V79.294ZM332.925 80.79C332.925 81.604 333.585 82.264 334.399 82.264C335.213 82.264 335.895 81.604 335.895 80.79C335.895 79.954 335.213 79.294 334.399 79.294C333.585 79.294 332.925 79.954 332.925 80.79Z" fill="#333333"/>
<path d="M2 352.324V109.385H250V352.324" stroke="#828282" stroke-width="4"/>
<path d="M498 352.324V109.385H746V352.324" stroke="#828282" stroke-width="4"/>
<path d="M250 352.324V109.385H498V352.324" stroke="#828282" stroke-width="4"/>
<path d="M746 352.324V109.385H994V352.324" stroke="#828282" stroke-width="4"/>
<rect x="12" y="122" width="49" height="170" fill="#EDE3E4"/>
<rect x="508" y="122" width="49" height="186" fill="#D9DFE9"/>
<rect x="260" y="122" width="49" height="170" fill="#EFE8DF"/>
<rect x="756.121" y="122.038" width="49.3469" height="137.918" fill="#DFDDE2"/>
<rect x="71.5938" y="122.038" width="49.3469" height="221.429" fill="#EDE3E4"/>
<rect x="568" y="122" width="49" height="151" fill="#D9DFE9"/>
<rect x="319.594" y="122.038" width="49.3469" height="137.918" fill="#EFE8DF"/>
<rect x="816" y="122" width="49" height="170" fill="#DFDDE2"/>
<rect x="190.531" y="122.038" width="49.3469" height="169.551" fill="#EDE3E4"/>
<rect x="687" y="122" width="49" height="186" fill="#D9DFE9"/>
<rect x="439" y="122" width="49" height="138" fill="#EFE8DF"/>
<rect x="934.531" y="122.038" width="49.3469" height="137.918" fill="#DFDDE2"/>
<rect x="131" y="122" width="49" height="221" fill="#EDE3E4"/>
<rect x="627" y="122" width="49" height="151" fill="#D9DFE9"/>
<rect x="379" y="122" width="49" height="170" fill="#EFE8DF"/>
<rect x="875" y="122" width="49" height="151" fill="#DFDDE2"/>
<path d="M40 234.413L40 231.461C40 227.123 37.84 224.099 33.808 224.099C29.542 224.099 27.994 227.501 27.994 230.777L27.994 234.413L40 234.413ZM38.758 232.937L29.236 232.937L29.236 231.029C29.236 227.537 31.09 225.683 33.97 225.683C36.634 225.683 38.758 227.267 38.758 231.641L38.758 232.937ZM38.182 222.662C39.37 222.662 40.216 221.78 40.216 220.394C40.216 218.756 39.064 217.874 38.812 217.712C39.478 217.532 40 217.1 40.126 215.966L38.992 215.498C38.992 215.498 38.974 216.398 37.912 216.398L34.258 216.398C32.44 216.398 31.684 216.974 31.684 218.738C31.684 220.754 32.674 222.104 32.674 222.104L33.808 221.672C33.808 221.672 32.908 220.484 32.908 219.134C32.908 217.784 33.808 217.802 34.762 217.802L35.068 217.802C35.464 220.88 36.508 222.662 38.182 222.662ZM38.992 220.106C38.992 220.7 38.722 221.168 38.092 221.168C37.048 221.168 36.472 220.088 36.094 217.802L37.588 217.802C38.254 218.378 38.992 219.116 38.992 220.106ZM37.858 213.214C39.514 213.214 40.216 212.386 40.216 211.108C40.216 209.758 39.388 208.768 39.388 208.768L38.254 209.11C38.254 209.11 38.992 209.974 38.992 210.82C38.992 211.432 38.56 211.81 37.48 211.81L33.034 211.81L33.034 209.182L31.9 209.182L31.9 211.81L29.668 211.81L30.01 213.214L31.81 213.214L32.278 214.366L33.034 214.366L33.034 213.214L37.858 213.214ZM38.182 207.773C39.37 207.773 40.216 206.891 40.216 205.505C40.216 203.867 39.064 202.985 38.812 202.823C39.478 202.643 40 202.211 40.126 201.077L38.992 200.609C38.992 200.609 38.974 201.509 37.912 201.509L34.258 201.509C32.44 201.509 31.684 202.085 31.684 203.849C31.684 205.865 32.674 207.215 32.674 207.215L33.808 206.783C33.808 206.783 32.908 205.595 32.908 204.245C32.908 202.895 33.808 202.913 34.762 202.913L35.068 202.913C35.464 205.991 36.508 207.773 38.182 207.773ZM38.992 205.217C38.992 205.811 38.722 206.279 38.092 206.279C37.048 206.279 36.472 205.199 36.094 202.913L37.588 202.913C38.254 203.489 38.992 204.227 38.992 205.217ZM40 193.895L40 192.419L34.942 192.419L34.942 190.493L40 187.055L40 185.309L34.636 188.945C34.114 187.757 33.016 186.461 31.27 186.461C29.578 186.461 27.994 187.649 27.994 190.745L27.994 193.895L40 193.895ZM33.7 192.419L29.236 192.419L29.236 191.015C29.236 188.819 30.28 188.045 31.414 188.045C32.908 188.045 33.7 189.377 33.7 190.529L33.7 192.419ZM36.13 184.478C38.254 184.478 40.216 183.146 40.216 180.464C40.216 178.52 39.046 177.35 39.046 177.35L37.966 177.764C37.966 177.764 38.992 178.916 38.992 180.302C38.992 181.886 37.858 182.858 36.184 182.984L35.554 178.214L35.302 177.35C32.98 177.35 31.684 178.718 31.684 180.59C31.684 182.894 33.592 184.478 36.13 184.478ZM32.854 180.68C32.854 179.06 34.582 178.898 34.582 178.898L35.104 182.966C33.844 182.768 32.854 181.976 32.854 180.68ZM38.182 175.869C39.37 175.869 40.216 174.987 40.216 173.601C40.216 171.963 39.064 171.081 38.812 170.919C39.478 170.739 40 170.307 40.126 169.173L38.992 168.705C38.992 168.705 38.974 169.605 37.912 169.605L34.258 169.605C32.44 169.605 31.684 170.181 31.684 171.945C31.684 173.961 32.674 175.311 32.674 175.311L33.808 174.879C33.808 174.879 32.908 173.691 32.908 172.341C32.908 170.991 33.808 171.009 34.762 171.009L35.068 171.009C35.464 174.087 36.508 175.869 38.182 175.869ZM38.992 173.313C38.992 173.907 38.722 174.375 38.092 174.375C37.048 174.375 36.472 173.295 36.094 171.009L37.588 171.009C38.254 171.585 38.992 172.323 38.992 173.313ZM36.22 167.269C38.452 167.269 40.216 165.901 40.216 163.795C40.216 162.499 39.55 161.617 38.83 161.167C39.388 161.077 40.126 160.915 40.126 160.915L40 159.529C40 159.529 38.488 159.889 37.498 159.889L27.148 159.889L27.4 161.293L31.972 161.293C31.882 161.509 31.684 162.049 31.684 162.859C31.684 165.757 33.88 167.269 36.22 167.269ZM38.992 163.615C38.992 164.839 37.93 165.775 36.13 165.775C34.06 165.775 32.872 164.569 32.872 162.841C32.872 162.067 33.124 161.329 34.024 161.293L37.516 161.293C37.858 161.509 38.992 162.337 38.992 163.615ZM29.848 156.393C29.848 155.853 29.416 155.421 28.876 155.421C28.336 155.421 27.904 155.853 27.904 156.393C27.904 156.933 28.336 157.365 28.876 157.365C29.416 157.365 29.848 156.933 29.848 156.393ZM40 157.113L40 155.709L31.9 155.709L31.9 157.113L40 157.113ZM40 153.001L40 151.597L34.654 151.597C34.15 151.075 32.926 149.689 32.926 148.627C32.926 148.015 33.304 147.529 34.51 147.529L40 147.529L40 146.125L34.114 146.125C32.368 146.125 31.684 147.043 31.684 148.249C31.684 149.815 32.818 151.075 33.358 151.597L31.774 151.597L32.026 153.001L40 153.001ZM38.542 143.563C39.082 143.563 39.406 143.005 39.64 142.213C40.108 143.131 40.864 144.319 42.106 144.319C43.546 144.319 44.266 142.609 44.266 140.863C44.266 138.559 42.934 136.543 41.278 136.543C39.802 136.543 39.37 138.127 39.028 139.675C38.686 141.205 38.506 142.051 38.164 142.051C37.93 142.051 37.678 141.709 37.408 141.331C37.444 141.133 37.462 140.917 37.462 140.683C37.462 139.063 36.544 137.245 34.654 137.245C33.862 137.245 33.304 137.641 33.07 137.857C33.088 137.677 33.106 137.425 33.106 137.191L33.106 136.165L31.846 136.291C31.846 136.291 32.026 136.831 32.026 137.353L32.026 138.217C32.026 139.099 31.684 139.603 31.684 140.539C31.684 142.303 32.728 143.887 34.51 143.887C35.644 143.887 36.598 143.293 37.102 142.321C37.444 142.897 37.966 143.563 38.542 143.563ZM41.908 143.023C41.008 143.023 40.468 141.997 39.946 141.043C40 140.737 40.054 140.449 40.126 140.143C40.396 138.919 40.684 137.983 41.476 137.983C42.376 137.983 43.186 139.225 43.186 140.755C43.186 141.709 42.88 143.023 41.908 143.023ZM36.382 140.557C36.382 141.853 35.5 142.447 34.6 142.447C33.574 142.447 32.764 141.745 32.764 140.593C32.764 139.315 33.808 138.685 34.726 138.685C35.788 138.685 36.382 139.495 36.382 140.557Z" fill="black"/>
</svg>
