<svg width="1158" height="555" viewBox="0 0 1158 555" fill="none" xmlns="http://www.w3.org/2000/svg">
<rect x="1" y="1" width="1156" height="553" fill="#FAFAFA" stroke="#BDBDBD" stroke-width="2"/>
<path d="M85.99 89.894C85.99 94.448 89.554 97.264 93.998 97.264C96.176 97.264 99.08 96.582 99.08 96.582V89.256H93.778V91.148H96.836V94.998C96.836 94.998 95.538 95.306 94.262 95.306C90.742 95.306 88.344 93.04 88.344 89.718C88.344 86.748 90.258 84.02 93.998 84.02C96.396 84.02 98.156 85.12 98.156 85.12L99.036 83.162C99.036 83.162 97.078 82.062 94.108 82.062C88.916 82.062 85.99 85.758 85.99 89.894ZM101.437 89.696C101.437 93.744 104.451 97.264 109.093 97.264C113.889 97.264 117.013 93.502 117.013 89.388C117.013 85.34 114.021 82.062 109.291 82.062C104.253 82.062 101.437 85.824 101.437 89.696ZM103.835 89.586C103.835 86.77 105.749 83.998 109.225 83.998C112.701 83.998 114.615 86.726 114.615 89.564C114.615 92.424 112.613 95.328 109.159 95.328C105.683 95.328 103.835 92.314 103.835 89.586ZM118.048 97H120.314L121.744 93.084H127.596L129.048 97H131.38L125.792 82.216H123.636L118.048 97ZM124.67 85.12L126.914 91.192H122.448L124.67 85.12ZM133.602 97H142.732V95.108H135.868V82.326H133.602V97ZM149.457 97H156.343V95.24H154.077V86.616H149.589V88.354H151.921V95.24H149.457V97ZM163.424 92.292H168.792V90.62H163.424V92.292ZM90.456 127.11H92.634L97.892 112.326H95.582L91.6 123.744L87.618 112.326H85.22L90.456 127.11ZM98.1649 124.712C98.1649 126.186 99.2869 127.264 101.025 127.264C102.961 127.264 103.973 126.032 104.237 125.614C104.523 126.406 105.161 127.044 106.679 127.154L107.339 125.438C107.339 125.438 106.239 125.416 106.239 124.184V119.982C106.239 117.76 105.491 116.792 103.137 116.792C100.519 116.792 98.8249 118.046 98.8249 118.046L99.3969 119.674C99.3969 119.674 100.915 118.53 102.543 118.53C104.149 118.53 104.061 119.63 104.061 120.884C100.343 121.368 98.1649 122.622 98.1649 124.712ZM101.575 125.548C100.937 125.548 100.409 125.262 100.409 124.558C100.409 123.392 101.531 122.666 104.061 122.292V124.008C103.401 124.778 102.587 125.548 101.575 125.548ZM109.528 127H111.706V111.27L109.528 111.622V127ZM114.703 124.272C114.703 126.406 115.803 127.264 117.409 127.264C119.235 127.264 120.621 126.098 121.259 125.416C121.369 126.142 121.589 127.176 121.589 127.176L123.701 126.978C123.701 126.978 123.261 125.152 123.261 123.942V117.056H121.083V123.744C120.467 124.316 119.235 125.372 118.113 125.372C117.299 125.372 116.881 124.822 116.881 123.436V117.056H114.703V124.272ZM125.755 122.182C125.755 124.844 127.449 127.264 130.771 127.264C133.257 127.264 134.775 125.834 134.775 125.834L134.159 124.25C134.159 124.25 132.773 125.482 131.101 125.482C129.363 125.482 128.263 124.316 128.021 122.512L133.455 121.786L134.709 121.434C134.709 118.42 132.993 116.792 130.617 116.792C127.713 116.792 125.755 119.146 125.755 122.182ZM130.463 118.486C132.201 118.486 132.333 120.51 132.333 120.51L128.021 121.06C128.219 119.608 129.055 118.486 130.463 118.486ZM142.441 127H144.619V120.532C145.257 119.894 146.621 118.684 147.699 118.684C148.425 118.684 148.821 119.212 148.821 120.62V127H150.999V120.488C151.747 119.762 152.979 118.684 153.991 118.684C154.717 118.684 155.135 119.212 155.135 120.62V127H157.291V119.828C157.291 117.694 156.257 116.792 154.717 116.792C152.979 116.792 151.615 117.958 150.889 118.75C150.581 117.386 149.679 116.792 148.425 116.792C146.665 116.792 145.257 118.002 144.575 118.75V116.88L142.441 117.232V127ZM159.086 130.476L159.768 132.214C162.1 131.95 163.552 129.86 164.41 127.748L168.722 117.056H166.478L163.904 123.876L161.286 117.056H158.976L162.826 126.494L162.298 127.682C161.704 129.068 160.538 130.234 159.086 130.476ZM169.797 126.384C169.797 126.384 171.029 127.264 173.097 127.264C175.539 127.264 176.969 126.054 176.969 124.25C176.969 121.082 172.195 121.236 172.195 119.498C172.195 118.926 172.679 118.508 173.779 118.508C175.055 118.508 176.199 119.124 176.199 119.124L176.705 117.342C176.705 117.342 175.605 116.792 173.867 116.792C171.117 116.792 170.017 118.134 170.017 119.674C170.017 122.798 174.791 122.666 174.791 124.448C174.791 125.086 174.241 125.548 173.075 125.548C171.469 125.548 170.259 124.536 170.259 124.536L169.797 126.384ZM178.693 122.182C178.693 124.844 180.387 127.264 183.709 127.264C186.195 127.264 187.713 125.834 187.713 125.834L187.097 124.25C187.097 124.25 185.711 125.482 184.039 125.482C182.301 125.482 181.201 124.316 180.959 122.512L186.393 121.786L187.647 121.434C187.647 118.42 185.931 116.792 183.555 116.792C180.651 116.792 178.693 119.146 178.693 122.182ZM183.401 118.486C185.139 118.486 185.271 120.51 185.271 120.51L180.959 121.06C181.157 119.608 181.993 118.486 183.401 118.486ZM190.138 127H192.316V111.27L190.138 111.622V127ZM194.433 118.706H195.995V127H198.173V118.706H200.923V117.056H198.173V115.868C198.173 113.536 199.229 112.722 200.395 112.722C201.473 112.722 202.441 113.426 202.441 113.426L203.299 111.754C203.299 111.754 202.155 110.918 200.417 110.918C197.821 110.918 195.995 112.744 195.995 116V116.968L194.433 117.54V118.706ZM207.546 122.182C207.546 124.844 209.24 127.264 212.562 127.264C215.048 127.264 216.566 125.834 216.566 125.834L215.95 124.25C215.95 124.25 214.564 125.482 212.892 125.482C211.154 125.482 210.054 124.316 209.812 122.512L215.246 121.786L216.5 121.434C216.5 118.42 214.784 116.792 212.408 116.792C209.504 116.792 207.546 119.146 207.546 122.182ZM212.254 118.486C213.992 118.486 214.124 120.51 214.124 120.51L209.812 121.06C210.01 119.608 210.846 118.486 212.254 118.486ZM218.947 127H221.125V120.554C221.807 119.894 223.215 118.684 224.315 118.684C225.063 118.684 225.503 119.212 225.503 120.62V127H227.681V119.828C227.681 117.694 226.603 116.792 225.041 116.792C223.215 116.792 221.785 118.002 221.081 118.772V116.88L218.947 117.232V127ZM229.975 122.072C229.975 124.712 231.757 127.264 235.057 127.264C238.643 127.264 240.227 124.25 240.227 121.83C240.227 119.278 238.445 116.792 235.145 116.792C231.581 116.792 229.975 119.586 229.975 122.072ZM232.241 121.874C232.241 119.894 233.407 118.53 235.101 118.53C237.125 118.53 237.961 120.356 237.961 122.116C237.961 124.118 236.795 125.526 235.123 125.526C233.143 125.526 232.241 123.722 232.241 121.874ZM242.514 124.272C242.514 126.406 243.614 127.264 245.22 127.264C247.046 127.264 248.432 126.098 249.07 125.416C249.18 126.142 249.4 127.176 249.4 127.176L251.512 126.978C251.512 126.978 251.072 125.152 251.072 123.942V117.056H248.894V123.744C248.278 124.316 247.046 125.372 245.924 125.372C245.11 125.372 244.692 124.822 244.692 123.436V117.056H242.514V124.272ZM254.16 125.24C254.16 125.922 254.798 126.318 255.788 126.648C254.732 127.198 253.258 128.144 253.258 129.596C253.258 131.334 255.414 132.214 257.614 132.214C260.606 132.214 263.048 130.52 263.048 128.518C263.048 126.692 261.046 126.142 259.286 125.702C257.218 125.196 256.25 124.998 256.25 124.602C256.25 124.36 256.602 124.096 257.064 123.788C257.284 123.832 257.526 123.832 257.79 123.832C259.924 123.832 262.19 122.666 262.19 120.488C262.19 119.608 261.772 119.014 261.464 118.662C261.728 118.706 262.036 118.728 262.278 118.728H263.466L263.312 116.99C263.312 116.99 262.652 117.21 261.992 117.21H260.848C259.748 117.21 259.176 116.792 257.966 116.792C255.744 116.792 253.742 118.046 253.742 120.268C253.742 121.61 254.468 122.776 255.722 123.392C254.908 123.854 254.16 124.514 254.16 125.24ZM258.032 127.22C259.88 127.704 260.914 127.99 260.914 128.848C260.914 129.838 259.506 130.63 257.746 130.63C256.492 130.63 255.216 130.234 255.216 129.244C255.216 128.254 256.426 127.594 257.372 127.066C257.592 127.11 257.812 127.154 258.032 127.22ZM257.944 122.292C256.536 122.292 255.876 121.28 255.876 120.334C255.876 119.3 256.624 118.332 257.944 118.332C259.352 118.332 260.034 119.476 260.034 120.444C260.034 121.566 259.154 122.292 257.944 122.292ZM265.354 127H267.532V120.598C268.192 119.938 269.622 118.684 270.722 118.684C271.47 118.684 271.91 119.212 271.91 120.62V127H274.088V119.828C274.088 117.694 273.01 116.792 271.426 116.792C269.6 116.792 268.192 118.024 267.532 118.728V111.27L265.354 111.622V127ZM282.877 124.294C282.877 126.34 283.999 127.264 285.715 127.264C287.475 127.264 288.773 126.208 288.773 126.208L288.223 124.558C287.959 124.712 287.035 125.438 286.199 125.438C285.473 125.438 285.055 124.954 285.055 123.744V118.706H288.201V117.056H285.055V114.24L282.921 114.702V116.968L281.403 117.518V118.706H282.877V124.294ZM289.981 122.072C289.981 124.712 291.763 127.264 295.063 127.264C298.649 127.264 300.233 124.25 300.233 121.83C300.233 119.278 298.451 116.792 295.151 116.792C291.587 116.792 289.981 119.586 289.981 122.072ZM292.247 121.874C292.247 119.894 293.413 118.53 295.107 118.53C297.131 118.53 297.967 120.356 297.967 122.116C297.967 124.118 296.801 125.526 295.129 125.526C293.149 125.526 292.247 123.722 292.247 121.874ZM87.068 154.294C87.068 156.34 88.19 157.264 89.906 157.264C91.666 157.264 92.964 156.208 92.964 156.208L92.414 154.558C92.15 154.712 91.226 155.438 90.39 155.438C89.664 155.438 89.246 154.954 89.246 153.744V148.706H92.392V147.056H89.246V144.24L87.112 144.702V146.968L85.594 147.518V148.706H87.068V154.294ZM94.0185 154.712C94.0185 156.186 95.1405 157.264 96.8785 157.264C98.8145 157.264 99.8265 156.032 100.09 155.614C100.376 156.406 101.014 157.044 102.532 157.154L103.192 155.438C103.192 155.438 102.092 155.416 102.092 154.184V149.982C102.092 147.76 101.344 146.792 98.9905 146.792C96.3725 146.792 94.6785 148.046 94.6785 148.046L95.2505 149.674C95.2505 149.674 96.7685 148.53 98.3965 148.53C100.002 148.53 99.9145 149.63 99.9145 150.884C96.1965 151.368 94.0185 152.622 94.0185 154.712ZM97.4285 155.548C96.7905 155.548 96.2625 155.262 96.2625 154.558C96.2625 153.392 97.3845 152.666 99.9145 152.292V154.008C99.2545 154.778 98.4405 155.548 97.4285 155.548ZM105.382 157H107.56V152.292H107.868L111.828 157H114.622L109.782 151.412L114.314 147.056H111.476L107.868 150.686H107.56V141.27L105.382 141.622V157ZM115.163 152.182C115.163 154.844 116.857 157.264 120.179 157.264C122.665 157.264 124.183 155.834 124.183 155.834L123.567 154.25C123.567 154.25 122.181 155.482 120.509 155.482C118.771 155.482 117.671 154.316 117.429 152.512L122.863 151.786L124.117 151.434C124.117 148.42 122.401 146.792 120.025 146.792C117.121 146.792 115.163 149.146 115.163 152.182ZM119.871 148.486C121.609 148.486 121.741 150.51 121.741 150.51L117.429 151.06C117.627 149.608 118.463 148.486 119.871 148.486ZM131.212 152.16C131.212 155.042 133.214 157.264 136.316 157.264C138.692 157.264 139.836 155.988 139.836 155.988L139.132 154.448C139.132 154.448 138.054 155.482 136.47 155.482C134.6 155.482 133.478 154.008 133.478 152.05C133.478 150.026 134.688 148.552 136.492 148.552C137.944 148.552 138.978 149.476 138.978 149.476L139.836 147.848C139.836 147.848 138.626 146.792 136.448 146.792C133.17 146.792 131.212 149.41 131.212 152.16ZM141.18 152.072C141.18 154.712 142.962 157.264 146.262 157.264C149.848 157.264 151.432 154.25 151.432 151.83C151.432 149.278 149.65 146.792 146.35 146.792C142.786 146.792 141.18 149.586 141.18 152.072ZM143.446 151.874C143.446 149.894 144.612 148.53 146.306 148.53C148.33 148.53 149.166 150.356 149.166 152.116C149.166 154.118 148 155.526 146.328 155.526C144.348 155.526 143.446 153.722 143.446 151.874ZM153.785 157H155.963V150.554C156.645 149.894 158.053 148.684 159.153 148.684C159.901 148.684 160.341 149.212 160.341 150.62V157H162.519V149.828C162.519 147.694 161.441 146.792 159.879 146.792C158.053 146.792 156.623 148.002 155.919 148.772V146.88L153.785 147.232V157ZM164.791 156.384C164.791 156.384 166.023 157.264 168.091 157.264C170.533 157.264 171.963 156.054 171.963 154.25C171.963 151.082 167.189 151.236 167.189 149.498C167.189 148.926 167.673 148.508 168.773 148.508C170.049 148.508 171.193 149.124 171.193 149.124L171.699 147.342C171.699 147.342 170.599 146.792 168.861 146.792C166.111 146.792 165.011 148.134 165.011 149.674C165.011 152.798 169.785 152.666 169.785 154.448C169.785 155.086 169.235 155.548 168.069 155.548C166.463 155.548 165.253 154.536 165.253 154.536L164.791 156.384ZM175.447 144.68C176.239 144.68 176.833 144.108 176.833 143.338C176.833 142.568 176.239 141.996 175.447 141.996C174.677 141.996 174.083 142.568 174.083 143.338C174.083 144.108 174.677 144.68 175.447 144.68ZM174.347 157H176.525V147.056H174.347V157ZM178.928 156.384C178.928 156.384 180.16 157.264 182.228 157.264C184.67 157.264 186.1 156.054 186.1 154.25C186.1 151.082 181.326 151.236 181.326 149.498C181.326 148.926 181.81 148.508 182.91 148.508C184.186 148.508 185.33 149.124 185.33 149.124L185.836 147.342C185.836 147.342 184.736 146.792 182.998 146.792C180.248 146.792 179.148 148.134 179.148 149.674C179.148 152.798 183.922 152.666 183.922 154.448C183.922 155.086 183.372 155.548 182.206 155.548C180.6 155.548 179.39 154.536 179.39 154.536L178.928 156.384ZM189.011 154.294C189.011 156.34 190.133 157.264 191.849 157.264C193.609 157.264 194.907 156.208 194.907 156.208L194.357 154.558C194.093 154.712 193.169 155.438 192.333 155.438C191.607 155.438 191.189 154.954 191.189 153.744V148.706H194.335V147.056H191.189V144.24L189.055 144.702V146.968L187.537 147.518V148.706H189.011V154.294ZM196.138 152.182C196.138 154.844 197.832 157.264 201.154 157.264C203.64 157.264 205.158 155.834 205.158 155.834L204.542 154.25C204.542 154.25 203.156 155.482 201.484 155.482C199.746 155.482 198.646 154.316 198.404 152.512L203.838 151.786L205.092 151.434C205.092 148.42 203.376 146.792 201 146.792C198.096 146.792 196.138 149.146 196.138 152.182ZM200.846 148.486C202.584 148.486 202.716 150.51 202.716 150.51L198.404 151.06C198.602 149.608 199.438 148.486 200.846 148.486ZM207.539 157H209.717V150.554C210.399 149.894 211.807 148.684 212.907 148.684C213.655 148.684 214.095 149.212 214.095 150.62V157H216.273V149.828C216.273 147.694 215.195 146.792 213.633 146.792C211.807 146.792 210.377 148.002 209.673 148.772V146.88L207.539 147.232V157ZM219.777 154.294C219.777 156.34 220.899 157.264 222.615 157.264C224.375 157.264 225.673 156.208 225.673 156.208L225.123 154.558C224.859 154.712 223.935 155.438 223.099 155.438C222.373 155.438 221.955 154.954 221.955 153.744V148.706H225.101V147.056H221.955V144.24L219.821 144.702V146.968L218.303 147.518V148.706H219.777V154.294ZM232.013 154.712C232.013 156.186 233.135 157.264 234.873 157.264C236.809 157.264 237.821 156.032 238.085 155.614C238.371 156.406 239.009 157.044 240.527 157.154L241.187 155.438C241.187 155.438 240.087 155.416 240.087 154.184V149.982C240.087 147.76 239.339 146.792 236.985 146.792C234.367 146.792 232.673 148.046 232.673 148.046L233.245 149.674C233.245 149.674 234.763 148.53 236.391 148.53C237.997 148.53 237.909 149.63 237.909 150.884C234.191 151.368 232.013 152.622 232.013 154.712ZM235.423 155.548C234.785 155.548 234.257 155.262 234.257 154.558C234.257 153.392 235.379 152.666 237.909 152.292V154.008C237.249 154.778 236.435 155.548 235.423 155.548ZM242.694 152.16C242.694 155.042 244.696 157.264 247.798 157.264C250.174 157.264 251.318 155.988 251.318 155.988L250.614 154.448C250.614 154.448 249.536 155.482 247.952 155.482C246.082 155.482 244.96 154.008 244.96 152.05C244.96 150.026 246.17 148.552 247.974 148.552C249.426 148.552 250.46 149.476 250.46 149.476L251.318 147.848C251.318 147.848 250.108 146.792 247.93 146.792C244.652 146.792 242.694 149.41 242.694 152.16ZM254.045 154.294C254.045 156.34 255.167 157.264 256.883 157.264C258.643 157.264 259.941 156.208 259.941 156.208L259.391 154.558C259.127 154.712 258.203 155.438 257.367 155.438C256.641 155.438 256.223 154.954 256.223 153.744V148.706H259.369V147.056H256.223V144.24L254.089 144.702V146.968L252.571 147.518V148.706H254.045V154.294ZM262.931 144.68C263.723 144.68 264.317 144.108 264.317 143.338C264.317 142.568 263.723 141.996 262.931 141.996C262.161 141.996 261.567 142.568 261.567 143.338C261.567 144.108 262.161 144.68 262.931 144.68ZM261.831 157H264.009V147.056H261.831V157ZM266.434 152.072C266.434 154.712 268.216 157.264 271.516 157.264C275.102 157.264 276.686 154.25 276.686 151.83C276.686 149.278 274.904 146.792 271.604 146.792C268.04 146.792 266.434 149.586 266.434 152.072ZM268.7 151.874C268.7 149.894 269.866 148.53 271.56 148.53C273.584 148.53 274.42 150.356 274.42 152.116C274.42 154.118 273.254 155.526 271.582 155.526C269.602 155.526 268.7 153.722 268.7 151.874ZM279.039 157H281.217V150.554C281.899 149.894 283.307 148.684 284.407 148.684C285.155 148.684 285.595 149.212 285.595 150.62V157H287.773V149.828C287.773 147.694 286.695 146.792 285.133 146.792C283.307 146.792 281.877 148.002 281.173 148.772V146.88L279.039 147.232V157ZM290.045 156.384C290.045 156.384 291.277 157.264 293.345 157.264C295.787 157.264 297.217 156.054 297.217 154.25C297.217 151.082 292.443 151.236 292.443 149.498C292.443 148.926 292.927 148.508 294.027 148.508C295.303 148.508 296.447 149.124 296.447 149.124L296.953 147.342C296.953 147.342 295.853 146.792 294.115 146.792C291.365 146.792 290.265 148.134 290.265 149.674C290.265 152.798 295.039 152.666 295.039 154.448C295.039 155.086 294.489 155.548 293.323 155.548C291.717 155.548 290.507 154.536 290.507 154.536L290.045 156.384ZM85.55 178.706H87.112V187H89.29V178.706H92.04V177.056H89.29V175.868C89.29 173.536 90.346 172.722 91.512 172.722C92.59 172.722 93.558 173.426 93.558 173.426L94.416 171.754C94.416 171.754 93.272 170.918 91.534 170.918C88.938 170.918 87.112 172.744 87.112 176V176.968L85.55 177.54V178.706ZM93.1842 182.072C93.1842 184.712 94.9662 187.264 98.2662 187.264C101.852 187.264 103.436 184.25 103.436 181.83C103.436 179.278 101.654 176.792 98.3542 176.792C94.7902 176.792 93.1842 179.586 93.1842 182.072ZM95.4502 181.874C95.4502 179.894 96.6162 178.53 98.3102 178.53C100.334 178.53 101.17 180.356 101.17 182.116C101.17 184.118 100.004 185.526 98.3322 185.526C96.3522 185.526 95.4502 183.722 95.4502 181.874ZM105.789 187H107.967V180.84C108.385 180.18 109.287 178.992 110.387 178.992C110.827 178.992 111.267 179.168 111.267 179.168L111.707 176.968C111.707 176.968 111.399 176.792 110.849 176.792C109.331 176.792 108.319 178.2 107.923 178.882V176.88L105.789 177.232V187ZM118.723 187H120.901V180.532C121.539 179.894 122.903 178.684 123.981 178.684C124.707 178.684 125.103 179.212 125.103 180.62V187H127.281V180.488C128.029 179.762 129.261 178.684 130.273 178.684C130.999 178.684 131.417 179.212 131.417 180.62V187H133.573V179.828C133.573 177.694 132.539 176.792 130.999 176.792C129.261 176.792 127.897 177.958 127.171 178.75C126.863 177.386 125.961 176.792 124.707 176.792C122.947 176.792 121.539 178.002 120.857 178.75V176.88L118.723 177.232V187ZM135.368 190.476L136.05 192.214C138.382 191.95 139.834 189.86 140.692 187.748L145.004 177.056H142.76L140.186 183.876L137.568 177.056H135.258L139.108 186.494L138.58 187.682C137.986 189.068 136.82 190.234 135.368 190.476ZM152.067 187H154.245V180.598C154.905 179.938 156.335 178.684 157.435 178.684C158.183 178.684 158.623 179.212 158.623 180.62V187H160.801V179.828C160.801 177.694 159.723 176.792 158.139 176.792C156.313 176.792 154.905 178.024 154.245 178.728V171.27L152.067 171.622V187ZM163.116 182.182C163.116 184.844 164.81 187.264 168.132 187.264C170.618 187.264 172.136 185.834 172.136 185.834L171.52 184.25C171.52 184.25 170.134 185.482 168.462 185.482C166.724 185.482 165.624 184.316 165.382 182.512L170.816 181.786L172.07 181.434C172.07 178.42 170.354 176.792 167.978 176.792C165.074 176.792 163.116 179.146 163.116 182.182ZM167.824 178.486C169.562 178.486 169.694 180.51 169.694 180.51L165.382 181.06C165.58 179.608 166.416 178.486 167.824 178.486ZM173.725 184.712C173.725 186.186 174.847 187.264 176.585 187.264C178.521 187.264 179.533 186.032 179.797 185.614C180.083 186.406 180.721 187.044 182.239 187.154L182.899 185.438C182.899 185.438 181.799 185.416 181.799 184.184V179.982C181.799 177.76 181.051 176.792 178.697 176.792C176.079 176.792 174.385 178.046 174.385 178.046L174.957 179.674C174.957 179.674 176.475 178.53 178.103 178.53C179.709 178.53 179.621 179.63 179.621 180.884C175.903 181.368 173.725 182.622 173.725 184.712ZM177.135 185.548C176.497 185.548 175.969 185.262 175.969 184.558C175.969 183.392 177.091 182.666 179.621 182.292V184.008C178.961 184.778 178.147 185.548 177.135 185.548ZM185.089 187H187.267V171.27L185.089 171.622V187ZM190.902 184.294C190.902 186.34 192.024 187.264 193.74 187.264C195.5 187.264 196.798 186.208 196.798 186.208L196.248 184.558C195.984 184.712 195.06 185.438 194.224 185.438C193.498 185.438 193.08 184.954 193.08 183.744V178.706H196.226V177.056H193.08V174.24L190.946 174.702V176.968L189.428 177.518V178.706H190.902V184.294ZM198.688 187H200.866V180.598C201.526 179.938 202.956 178.684 204.056 178.684C204.804 178.684 205.244 179.212 205.244 180.62V187H207.422V179.828C207.422 177.694 206.344 176.792 204.76 176.792C202.934 176.792 201.526 178.024 200.866 178.728V171.27L198.688 171.622V187ZM210.067 185.79C210.067 186.604 210.727 187.264 211.541 187.264C212.355 187.264 213.037 186.604 213.037 185.79C213.037 184.954 212.355 184.294 211.541 184.294C210.727 184.294 210.067 184.954 210.067 185.79Z" fill="#333333"/>
<path d="M581.99 89.894C581.99 94.448 585.554 97.264 589.998 97.264C592.176 97.264 595.08 96.582 595.08 96.582V89.256H589.778V91.148H592.836V94.998C592.836 94.998 591.538 95.306 590.262 95.306C586.742 95.306 584.344 93.04 584.344 89.718C584.344 86.748 586.258 84.02 589.998 84.02C592.396 84.02 594.156 85.12 594.156 85.12L595.036 83.162C595.036 83.162 593.078 82.062 590.108 82.062C584.916 82.062 581.99 85.758 581.99 89.894ZM597.437 89.696C597.437 93.744 600.451 97.264 605.093 97.264C609.889 97.264 613.013 93.502 613.013 89.388C613.013 85.34 610.021 82.062 605.291 82.062C600.253 82.062 597.437 85.824 597.437 89.696ZM599.835 89.586C599.835 86.77 601.749 83.998 605.225 83.998C608.701 83.998 610.615 86.726 610.615 89.564C610.615 92.424 608.613 95.328 605.159 95.328C601.683 95.328 599.835 92.314 599.835 89.586ZM614.048 97H616.314L617.744 93.084H623.596L625.048 97H627.38L621.792 82.216H619.636L614.048 97ZM620.67 85.12L622.914 91.192H618.448L620.67 85.12ZM629.602 97H638.732V95.108H631.868V82.326H629.602V97ZM644.885 99.552L645.061 101.246C645.281 101.268 645.479 101.268 645.677 101.268C649.461 101.268 652.343 99.398 652.343 96.472C652.343 94.8 651.265 93.458 649.285 92.974C650.583 92.27 651.969 90.994 651.969 89.3C651.969 87.584 650.473 86.352 648.471 86.352C646.337 86.352 644.731 87.738 644.731 87.738L645.677 89.124C645.677 89.124 646.953 88.178 648.141 88.178C649.043 88.178 649.725 88.728 649.725 89.608C649.725 91.104 647.789 92.49 646.249 92.622V94.316H646.777C648.317 94.316 650.077 94.822 650.077 96.538C650.077 98.54 648.031 99.574 645.589 99.574C645.347 99.574 645.127 99.574 644.885 99.552ZM659.725 92.292H665.093V90.62H659.725V92.292ZM583.002 127H585.268V120.62H590.438V118.662H585.268V114.218H591.802V112.326H583.002V127ZM592.536 122.182C592.536 124.844 594.23 127.264 597.552 127.264C600.038 127.264 601.556 125.834 601.556 125.834L600.94 124.25C600.94 124.25 599.554 125.482 597.882 125.482C596.144 125.482 595.044 124.316 594.802 122.512L600.236 121.786L601.49 121.434C601.49 118.42 599.774 116.792 597.398 116.792C594.494 116.792 592.536 119.146 592.536 122.182ZM597.244 118.486C598.982 118.486 599.114 120.51 599.114 120.51L594.802 121.06C595 119.608 595.836 118.486 597.244 118.486ZM603.321 122.182C603.321 124.844 605.015 127.264 608.337 127.264C610.823 127.264 612.341 125.834 612.341 125.834L611.725 124.25C611.725 124.25 610.339 125.482 608.667 125.482C606.929 125.482 605.829 124.316 605.587 122.512L611.021 121.786L612.275 121.434C612.275 118.42 610.559 116.792 608.183 116.792C605.279 116.792 603.321 119.146 603.321 122.182ZM608.029 118.486C609.767 118.486 609.899 120.51 609.899 120.51L605.587 121.06C605.785 119.608 606.621 118.486 608.029 118.486ZM614.767 127H616.945V111.27L614.767 111.622V127ZM625.337 127H627.515V120.598C628.175 119.938 629.605 118.684 630.705 118.684C631.453 118.684 631.893 119.212 631.893 120.62V127H634.071V119.828C634.071 117.694 632.993 116.792 631.409 116.792C629.583 116.792 628.175 118.024 627.515 118.728V111.27L625.337 111.622V127ZM636.364 122.072C636.364 124.712 638.146 127.264 641.446 127.264C645.032 127.264 646.616 124.25 646.616 121.83C646.616 119.278 644.834 116.792 641.534 116.792C637.97 116.792 636.364 119.586 636.364 122.072ZM638.63 121.874C638.63 119.894 639.796 118.53 641.49 118.53C643.514 118.53 644.35 120.356 644.35 122.116C644.35 124.118 643.184 125.526 641.512 125.526C639.532 125.526 638.63 123.722 638.63 121.874ZM648.969 132.126L651.147 131.774V126.736C651.565 127.044 652.313 127.264 653.237 127.264C656.405 127.264 658.253 124.668 658.253 121.72C658.253 119.014 656.669 116.792 654.051 116.792C652.489 116.792 651.543 117.606 651.081 118.464V116.88L648.969 117.232V132.126ZM653.677 118.596C655.019 118.596 655.965 119.806 655.965 121.874C655.965 124.25 654.711 125.548 652.841 125.548C651.807 125.548 651.147 125.174 651.147 124.426V120.202C651.433 119.784 652.357 118.596 653.677 118.596ZM660.019 122.182C660.019 124.844 661.713 127.264 665.035 127.264C667.521 127.264 669.039 125.834 669.039 125.834L668.423 124.25C668.423 124.25 667.037 125.482 665.365 125.482C663.627 125.482 662.527 124.316 662.285 122.512L667.719 121.786L668.973 121.434C668.973 118.42 667.257 116.792 664.881 116.792C661.977 116.792 660.019 119.146 660.019 122.182ZM664.727 118.486C666.465 118.486 666.597 120.51 666.597 120.51L662.285 121.06C662.483 119.608 663.319 118.486 664.727 118.486ZM670.474 118.706H672.036V127H674.214V118.706H676.964V117.056H674.214V115.868C674.214 113.536 675.27 112.722 676.436 112.722C677.514 112.722 678.482 113.426 678.482 113.426L679.34 111.754C679.34 111.754 678.196 110.918 676.458 110.918C673.862 110.918 672.036 112.744 672.036 116V116.968L670.474 117.54V118.706ZM678.852 124.272C678.852 126.406 679.952 127.264 681.558 127.264C683.384 127.264 684.77 126.098 685.408 125.416C685.518 126.142 685.738 127.176 685.738 127.176L687.85 126.978C687.85 126.978 687.41 125.152 687.41 123.942V117.056H685.232V123.744C684.616 124.316 683.384 125.372 682.262 125.372C681.448 125.372 681.03 124.822 681.03 123.436V117.056H678.852V124.272ZM690.563 127H692.741V111.27L690.563 111.622V127ZM701.662 124.294C701.662 126.34 702.784 127.264 704.5 127.264C706.26 127.264 707.558 126.208 707.558 126.208L707.008 124.558C706.744 124.712 705.82 125.438 704.984 125.438C704.258 125.438 703.84 124.954 703.84 123.744V118.706H706.986V117.056H703.84V114.24L701.706 114.702V116.968L700.188 117.518V118.706H701.662V124.294ZM709.448 127H711.626V120.598C712.286 119.938 713.716 118.684 714.816 118.684C715.564 118.684 716.004 119.212 716.004 120.62V127H718.182V119.828C718.182 117.694 717.104 116.792 715.52 116.792C713.694 116.792 712.286 118.024 711.626 118.728V111.27L709.448 111.622V127ZM720.321 124.712C720.321 126.186 721.443 127.264 723.181 127.264C725.117 127.264 726.129 126.032 726.393 125.614C726.679 126.406 727.317 127.044 728.835 127.154L729.495 125.438C729.495 125.438 728.395 125.416 728.395 124.184V119.982C728.395 117.76 727.647 116.792 725.293 116.792C722.675 116.792 720.981 118.046 720.981 118.046L721.553 119.674C721.553 119.674 723.071 118.53 724.699 118.53C726.305 118.53 726.217 119.63 726.217 120.884C722.499 121.368 720.321 122.622 720.321 124.712ZM723.731 125.548C723.093 125.548 722.565 125.262 722.565 124.558C722.565 123.392 723.687 122.666 726.217 122.292V124.008C725.557 124.778 724.743 125.548 723.731 125.548ZM732.127 124.294C732.127 126.34 733.249 127.264 734.965 127.264C736.725 127.264 738.023 126.208 738.023 126.208L737.473 124.558C737.209 124.712 736.285 125.438 735.449 125.438C734.723 125.438 734.305 124.954 734.305 123.744V118.706H737.451V117.056H734.305V114.24L732.171 114.702V116.968L730.653 117.518V118.706H732.127V124.294ZM745.66 127H747.926V112.326H745.66V127ZM756.096 122.16C756.096 125.042 758.098 127.264 761.2 127.264C763.576 127.264 764.72 125.988 764.72 125.988L764.016 124.448C764.016 124.448 762.938 125.482 761.354 125.482C759.484 125.482 758.362 124.008 758.362 122.05C758.362 120.026 759.572 118.552 761.376 118.552C762.828 118.552 763.862 119.476 763.862 119.476L764.72 117.848C764.72 117.848 763.51 116.792 761.332 116.792C758.054 116.792 756.096 119.41 756.096 122.16ZM766.083 124.712C766.083 126.186 767.205 127.264 768.943 127.264C770.879 127.264 771.891 126.032 772.155 125.614C772.441 126.406 773.079 127.044 774.597 127.154L775.257 125.438C775.257 125.438 774.157 125.416 774.157 124.184V119.982C774.157 117.76 773.409 116.792 771.055 116.792C768.437 116.792 766.743 118.046 766.743 118.046L767.315 119.674C767.315 119.674 768.833 118.53 770.461 118.53C772.067 118.53 771.979 119.63 771.979 120.884C768.261 121.368 766.083 122.622 766.083 124.712ZM769.493 125.548C768.855 125.548 768.327 125.262 768.327 124.558C768.327 123.392 769.449 122.666 771.979 122.292V124.008C771.319 124.778 770.505 125.548 769.493 125.548ZM777.402 127H779.58V120.554C780.262 119.894 781.67 118.684 782.77 118.684C783.518 118.684 783.958 119.212 783.958 120.62V127H786.136V119.828C786.136 117.694 785.058 116.792 783.496 116.792C781.67 116.792 780.24 118.002 779.536 118.772V116.88L777.402 117.232V127ZM582.474 155.24C582.474 155.922 583.112 156.318 584.102 156.648C583.046 157.198 581.572 158.144 581.572 159.596C581.572 161.334 583.728 162.214 585.928 162.214C588.92 162.214 591.362 160.52 591.362 158.518C591.362 156.692 589.36 156.142 587.6 155.702C585.532 155.196 584.564 154.998 584.564 154.602C584.564 154.36 584.916 154.096 585.378 153.788C585.598 153.832 585.84 153.832 586.104 153.832C588.238 153.832 590.504 152.666 590.504 150.488C590.504 149.608 590.086 149.014 589.778 148.662C590.042 148.706 590.35 148.728 590.592 148.728H591.78L591.626 146.99C591.626 146.99 590.966 147.21 590.306 147.21H589.162C588.062 147.21 587.49 146.792 586.28 146.792C584.058 146.792 582.056 148.046 582.056 150.268C582.056 151.61 582.782 152.776 584.036 153.392C583.222 153.854 582.474 154.514 582.474 155.24ZM586.346 157.22C588.194 157.704 589.228 157.99 589.228 158.848C589.228 159.838 587.82 160.63 586.06 160.63C584.806 160.63 583.53 160.234 583.53 159.244C583.53 158.254 584.74 157.594 585.686 157.066C585.906 157.11 586.126 157.154 586.346 157.22ZM586.258 152.292C584.85 152.292 584.19 151.28 584.19 150.334C584.19 149.3 584.938 148.332 586.258 148.332C587.666 148.332 588.348 149.476 588.348 150.444C588.348 151.566 587.468 152.292 586.258 152.292ZM593.009 152.182C593.009 154.844 594.703 157.264 598.025 157.264C600.511 157.264 602.029 155.834 602.029 155.834L601.413 154.25C601.413 154.25 600.027 155.482 598.355 155.482C596.617 155.482 595.517 154.316 595.275 152.512L600.709 151.786L601.963 151.434C601.963 148.42 600.247 146.792 597.871 146.792C594.967 146.792 593.009 149.146 593.009 152.182ZM597.717 148.486C599.455 148.486 599.587 150.51 599.587 150.51L595.275 151.06C595.473 149.608 596.309 148.486 597.717 148.486ZM604.982 154.294C604.982 156.34 606.104 157.264 607.82 157.264C609.58 157.264 610.878 156.208 610.878 156.208L610.328 154.558C610.064 154.712 609.14 155.438 608.304 155.438C607.578 155.438 607.16 154.954 607.16 153.744V148.706H610.306V147.056H607.16V144.24L605.026 144.702V146.968L603.508 147.518V148.706H604.982V154.294ZM618.01 156.78C618.758 156.956 620.452 157.264 621.64 157.264C625.402 157.264 627.206 154.58 627.206 151.676C627.206 148.948 625.622 146.792 622.872 146.792C621.508 146.792 620.694 147.342 620.188 147.914V141.27L618.01 141.622V156.78ZM622.52 148.552C623.972 148.552 624.962 149.762 624.962 151.83C624.962 154.294 623.576 155.614 621.684 155.614C620.87 155.614 620.188 155.394 620.188 155.394V149.586C620.65 149.168 621.486 148.552 622.52 148.552ZM628.819 154.712C628.819 156.186 629.941 157.264 631.679 157.264C633.615 157.264 634.627 156.032 634.891 155.614C635.177 156.406 635.815 157.044 637.333 157.154L637.993 155.438C637.993 155.438 636.893 155.416 636.893 154.184V149.982C636.893 147.76 636.145 146.792 633.791 146.792C631.173 146.792 629.479 148.046 629.479 148.046L630.051 149.674C630.051 149.674 631.569 148.53 633.197 148.53C634.803 148.53 634.715 149.63 634.715 150.884C630.997 151.368 628.819 152.622 628.819 154.712ZM632.229 155.548C631.591 155.548 631.063 155.262 631.063 154.558C631.063 153.392 632.185 152.666 634.715 152.292V154.008C634.055 154.778 633.241 155.548 632.229 155.548ZM639.501 152.16C639.501 155.042 641.503 157.264 644.605 157.264C646.981 157.264 648.125 155.988 648.125 155.988L647.421 154.448C647.421 154.448 646.343 155.482 644.759 155.482C642.889 155.482 641.767 154.008 641.767 152.05C641.767 150.026 642.977 148.552 644.781 148.552C646.233 148.552 647.267 149.476 647.267 149.476L648.125 147.848C648.125 147.848 646.915 146.792 644.737 146.792C641.459 146.792 639.501 149.41 639.501 152.16ZM650.323 157H652.501V152.292H652.809L656.769 157H659.563L654.723 151.412L659.255 147.056H656.417L652.809 150.686H652.501V141.27L650.323 141.622V157ZM665.797 152.072C665.797 154.712 667.579 157.264 670.879 157.264C674.465 157.264 676.049 154.25 676.049 151.83C676.049 149.278 674.267 146.792 670.967 146.792C667.403 146.792 665.797 149.586 665.797 152.072ZM668.063 151.874C668.063 149.894 669.229 148.53 670.923 148.53C672.947 148.53 673.783 150.356 673.783 152.116C673.783 154.118 672.617 155.526 670.945 155.526C668.965 155.526 668.063 153.722 668.063 151.874ZM678.402 157H680.58V150.554C681.262 149.894 682.67 148.684 683.77 148.684C684.518 148.684 684.958 149.212 684.958 150.62V157H687.136V149.828C687.136 147.694 686.058 146.792 684.496 146.792C682.67 146.792 681.24 148.002 680.536 148.772V146.88L678.402 147.232V157ZM695.925 154.294C695.925 156.34 697.047 157.264 698.763 157.264C700.523 157.264 701.821 156.208 701.821 156.208L701.271 154.558C701.007 154.712 700.083 155.438 699.247 155.438C698.521 155.438 698.103 154.954 698.103 153.744V148.706H701.249V147.056H698.103V144.24L695.969 144.702V146.968L694.451 147.518V148.706H695.925V154.294ZM703.668 157H705.846V150.84C706.264 150.18 707.166 148.992 708.266 148.992C708.706 148.992 709.146 149.168 709.146 149.168L709.586 146.968C709.586 146.968 709.278 146.792 708.728 146.792C707.21 146.792 706.198 148.2 705.802 148.882V146.88L703.668 147.232V157ZM710.524 154.712C710.524 156.186 711.646 157.264 713.384 157.264C715.32 157.264 716.332 156.032 716.596 155.614C716.882 156.406 717.52 157.044 719.038 157.154L719.698 155.438C719.698 155.438 718.598 155.416 718.598 154.184V149.982C718.598 147.76 717.85 146.792 715.496 146.792C712.878 146.792 711.184 148.046 711.184 148.046L711.756 149.674C711.756 149.674 713.274 148.53 714.902 148.53C716.508 148.53 716.42 149.63 716.42 150.884C712.702 151.368 710.524 152.622 710.524 154.712ZM713.934 155.548C713.296 155.548 712.768 155.262 712.768 154.558C712.768 153.392 713.89 152.666 716.42 152.292V154.008C715.76 154.778 714.946 155.548 713.934 155.548ZM721.206 152.16C721.206 155.042 723.208 157.264 726.31 157.264C728.686 157.264 729.83 155.988 729.83 155.988L729.126 154.448C729.126 154.448 728.048 155.482 726.464 155.482C724.594 155.482 723.472 154.008 723.472 152.05C723.472 150.026 724.682 148.552 726.486 148.552C727.938 148.552 728.972 149.476 728.972 149.476L729.83 147.848C729.83 147.848 728.62 146.792 726.442 146.792C723.164 146.792 721.206 149.41 721.206 152.16ZM732.028 157H734.206V152.292H734.514L738.474 157H741.268L736.428 151.412L740.96 147.056H738.122L734.514 150.686H734.206V141.27L732.028 141.622V157ZM581.704 184.712C581.704 186.186 582.826 187.264 584.564 187.264C586.5 187.264 587.512 186.032 587.776 185.614C588.062 186.406 588.7 187.044 590.218 187.154L590.878 185.438C590.878 185.438 589.778 185.416 589.778 184.184V179.982C589.778 177.76 589.03 176.792 586.676 176.792C584.058 176.792 582.364 178.046 582.364 178.046L582.936 179.674C582.936 179.674 584.454 178.53 586.082 178.53C587.688 178.53 587.6 179.63 587.6 180.884C583.882 181.368 581.704 182.622 581.704 184.712ZM585.114 185.548C584.476 185.548 583.948 185.262 583.948 184.558C583.948 183.392 585.07 182.666 587.6 182.292V184.008C586.94 184.778 586.126 185.548 585.114 185.548ZM592.077 178.706H593.639V187H595.817V178.706H598.567V177.056H595.817V175.868C595.817 173.536 596.873 172.722 598.039 172.722C599.117 172.722 600.085 173.426 600.085 173.426L600.943 171.754C600.943 171.754 599.799 170.918 598.061 170.918C595.465 170.918 593.639 172.744 593.639 176V176.968L592.077 177.54V178.706ZM601.093 184.294C601.093 186.34 602.215 187.264 603.931 187.264C605.691 187.264 606.989 186.208 606.989 186.208L606.439 184.558C606.175 184.712 605.251 185.438 604.415 185.438C603.689 185.438 603.271 184.954 603.271 183.744V178.706H606.417V177.056H603.271V174.24L601.137 174.702V176.968L599.619 177.518V178.706H601.093V184.294ZM608.22 182.182C608.22 184.844 609.914 187.264 613.236 187.264C615.722 187.264 617.24 185.834 617.24 185.834L616.624 184.25C616.624 184.25 615.238 185.482 613.566 185.482C611.828 185.482 610.728 184.316 610.486 182.512L615.92 181.786L617.174 181.434C617.174 178.42 615.458 176.792 613.082 176.792C610.178 176.792 608.22 179.146 608.22 182.182ZM612.928 178.486C614.666 178.486 614.798 180.51 614.798 180.51L610.486 181.06C610.684 179.608 611.52 178.486 612.928 178.486ZM619.621 187H621.799V180.84C622.217 180.18 623.119 178.992 624.219 178.992C624.659 178.992 625.099 179.168 625.099 179.168L625.539 176.968C625.539 176.968 625.231 176.792 624.681 176.792C623.163 176.792 622.151 178.2 621.755 178.882V176.88L619.621 177.232V187ZM631.763 184.712C631.763 186.186 632.885 187.264 634.623 187.264C636.559 187.264 637.571 186.032 637.835 185.614C638.121 186.406 638.759 187.044 640.277 187.154L640.937 185.438C640.937 185.438 639.837 185.416 639.837 184.184V179.982C639.837 177.76 639.089 176.792 636.735 176.792C634.117 176.792 632.423 178.046 632.423 178.046L632.995 179.674C632.995 179.674 634.513 178.53 636.141 178.53C637.747 178.53 637.659 179.63 637.659 180.884C633.941 181.368 631.763 182.622 631.763 184.712ZM635.173 185.548C634.535 185.548 634.007 185.262 634.007 184.558C634.007 183.392 635.129 182.666 637.659 182.292V184.008C636.999 184.778 636.185 185.548 635.173 185.548ZM648.367 187H650.545V180.84C650.963 180.18 651.865 178.992 652.965 178.992C653.405 178.992 653.845 179.168 653.845 179.168L654.285 176.968C654.285 176.968 653.977 176.792 653.427 176.792C651.909 176.792 650.897 178.2 650.501 178.882V176.88L648.367 177.232V187ZM655.228 182.182C655.228 184.844 656.922 187.264 660.244 187.264C662.73 187.264 664.248 185.834 664.248 185.834L663.632 184.25C663.632 184.25 662.246 185.482 660.574 185.482C658.836 185.482 657.736 184.316 657.494 182.512L662.928 181.786L664.182 181.434C664.182 178.42 662.466 176.792 660.09 176.792C657.186 176.792 655.228 179.146 655.228 182.182ZM659.936 178.486C661.674 178.486 661.806 180.51 661.806 180.51L657.494 181.06C657.692 179.608 658.528 178.486 659.936 178.486ZM666.673 187H668.851V171.27L666.673 171.622V187ZM671.122 184.712C671.122 186.186 672.244 187.264 673.982 187.264C675.918 187.264 676.93 186.032 677.194 185.614C677.48 186.406 678.118 187.044 679.636 187.154L680.296 185.438C680.296 185.438 679.196 185.416 679.196 184.184V179.982C679.196 177.76 678.448 176.792 676.094 176.792C673.476 176.792 671.782 178.046 671.782 178.046L672.354 179.674C672.354 179.674 673.872 178.53 675.5 178.53C677.106 178.53 677.018 179.63 677.018 180.884C673.3 181.368 671.122 182.622 671.122 184.712ZM674.532 185.548C673.894 185.548 673.366 185.262 673.366 184.558C673.366 183.392 674.488 182.666 677.018 182.292V184.008C676.358 184.778 675.544 185.548 674.532 185.548ZM682.441 192.126L684.619 191.774V186.736C685.037 187.044 685.785 187.264 686.709 187.264C689.877 187.264 691.725 184.668 691.725 181.72C691.725 179.014 690.141 176.792 687.523 176.792C685.961 176.792 685.015 177.606 684.553 178.464V176.88L682.441 177.232V192.126ZM687.149 178.596C688.491 178.596 689.437 179.806 689.437 181.874C689.437 184.25 688.183 185.548 686.313 185.548C685.279 185.548 684.619 185.174 684.619 184.426V180.202C684.905 179.784 685.829 178.596 687.149 178.596ZM693.447 186.384C693.447 186.384 694.679 187.264 696.747 187.264C699.189 187.264 700.619 186.054 700.619 184.25C700.619 181.082 695.845 181.236 695.845 179.498C695.845 178.926 696.329 178.508 697.429 178.508C698.705 178.508 699.849 179.124 699.849 179.124L700.355 177.342C700.355 177.342 699.255 176.792 697.517 176.792C694.767 176.792 693.667 178.134 693.667 179.674C693.667 182.798 698.441 182.666 698.441 184.448C698.441 185.086 697.891 185.548 696.725 185.548C695.119 185.548 693.909 184.536 693.909 184.536L693.447 186.384ZM702.343 182.182C702.343 184.844 704.037 187.264 707.359 187.264C709.845 187.264 711.363 185.834 711.363 185.834L710.747 184.25C710.747 184.25 709.361 185.482 707.689 185.482C705.951 185.482 704.851 184.316 704.609 182.512L710.043 181.786L711.297 181.434C711.297 178.42 709.581 176.792 707.205 176.792C704.301 176.792 702.343 179.146 702.343 182.182ZM707.051 178.486C708.789 178.486 708.921 180.51 708.921 180.51L704.609 181.06C704.807 179.608 705.643 178.486 707.051 178.486Z" fill="#333333"/>
<path d="M829.99 89.894C829.99 94.448 833.554 97.264 837.998 97.264C840.176 97.264 843.08 96.582 843.08 96.582V89.256H837.778V91.148H840.836V94.998C840.836 94.998 839.538 95.306 838.262 95.306C834.742 95.306 832.344 93.04 832.344 89.718C832.344 86.748 834.258 84.02 837.998 84.02C840.396 84.02 842.156 85.12 842.156 85.12L843.036 83.162C843.036 83.162 841.078 82.062 838.108 82.062C832.916 82.062 829.99 85.758 829.99 89.894ZM845.437 89.696C845.437 93.744 848.451 97.264 853.093 97.264C857.889 97.264 861.013 93.502 861.013 89.388C861.013 85.34 858.021 82.062 853.291 82.062C848.253 82.062 845.437 85.824 845.437 89.696ZM847.835 89.586C847.835 86.77 849.749 83.998 853.225 83.998C856.701 83.998 858.615 86.726 858.615 89.564C858.615 92.424 856.613 95.328 853.159 95.328C849.683 95.328 847.835 92.314 847.835 89.586ZM862.048 97H864.314L865.744 93.084H871.596L873.048 97H875.38L869.792 82.216H867.636L862.048 97ZM868.67 85.12L870.914 91.192H866.448L868.67 85.12ZM877.602 97H886.732V95.108H879.868V82.326H877.602V97ZM892.929 96.56H899.111V101.246H901.245V96.56H903.291V94.866H901.245V86.44H899.177L892.929 95.108V96.56ZM895.151 94.866L899.111 89.256V94.866H895.151ZM910.454 92.292H915.822V90.62H910.454V92.292ZM831.002 127H833.268V121.104H835.534L839.45 127H842.134L837.822 120.576C839.296 119.894 840.638 118.508 840.638 116.506C840.638 114.284 839.098 112.326 835.314 112.326H831.002V127ZM833.268 119.212V114.218H834.94C837.382 114.218 838.24 115.34 838.24 116.66C838.24 118.288 836.92 119.212 835.27 119.212H833.268ZM842.921 122.182C842.921 124.844 844.615 127.264 847.937 127.264C850.423 127.264 851.941 125.834 851.941 125.834L851.325 124.25C851.325 124.25 849.939 125.482 848.267 125.482C846.529 125.482 845.429 124.316 845.187 122.512L850.621 121.786L851.875 121.434C851.875 118.42 850.159 116.792 847.783 116.792C844.879 116.792 842.921 119.146 842.921 122.182ZM847.629 118.486C849.367 118.486 849.499 120.51 849.499 120.51L845.187 121.06C845.385 119.608 846.221 118.486 847.629 118.486ZM853.53 124.712C853.53 126.186 854.652 127.264 856.39 127.264C858.326 127.264 859.338 126.032 859.602 125.614C859.888 126.406 860.526 127.044 862.044 127.154L862.704 125.438C862.704 125.438 861.604 125.416 861.604 124.184V119.982C861.604 117.76 860.856 116.792 858.502 116.792C855.884 116.792 854.19 118.046 854.19 118.046L854.762 119.674C854.762 119.674 856.28 118.53 857.908 118.53C859.514 118.53 859.426 119.63 859.426 120.884C855.708 121.368 853.53 122.622 853.53 124.712ZM856.94 125.548C856.302 125.548 855.774 125.262 855.774 124.558C855.774 123.392 856.896 122.666 859.426 122.292V124.008C858.766 124.778 857.952 125.548 856.94 125.548ZM864.894 127H867.072V111.27L864.894 111.622V127ZM871.279 114.68C872.071 114.68 872.665 114.108 872.665 113.338C872.665 112.568 872.071 111.996 871.279 111.996C870.509 111.996 869.915 112.568 869.915 113.338C869.915 114.108 870.509 114.68 871.279 114.68ZM870.179 127H872.357V117.056H870.179V127ZM874.782 127H882.768V125.24H877.532L882.592 118.376V117.056H874.958V118.816H879.732L874.782 125.68V127ZM884.407 122.182C884.407 124.844 886.101 127.264 889.423 127.264C891.909 127.264 893.427 125.834 893.427 125.834L892.811 124.25C892.811 124.25 891.425 125.482 889.753 125.482C888.015 125.482 886.915 124.316 886.673 122.512L892.107 121.786L893.361 121.434C893.361 118.42 891.645 116.792 889.269 116.792C886.365 116.792 884.407 119.146 884.407 122.182ZM889.115 118.486C890.853 118.486 890.985 120.51 890.985 120.51L886.673 121.06C886.871 119.608 887.707 118.486 889.115 118.486ZM901.666 124.294C901.666 126.34 902.788 127.264 904.504 127.264C906.264 127.264 907.562 126.208 907.562 126.208L907.012 124.558C906.748 124.712 905.824 125.438 904.988 125.438C904.262 125.438 903.844 124.954 903.844 123.744V118.706H906.99V117.056H903.844V114.24L901.71 114.702V116.968L900.192 117.518V118.706H901.666V124.294ZM909.452 127H911.63V120.598C912.29 119.938 913.72 118.684 914.82 118.684C915.568 118.684 916.008 119.212 916.008 120.62V127H918.186V119.828C918.186 117.694 917.108 116.792 915.524 116.792C913.698 116.792 912.29 118.024 911.63 118.728V111.27L909.452 111.622V127ZM920.325 124.712C920.325 126.186 921.447 127.264 923.185 127.264C925.121 127.264 926.133 126.032 926.397 125.614C926.683 126.406 927.321 127.044 928.839 127.154L929.499 125.438C929.499 125.438 928.399 125.416 928.399 124.184V119.982C928.399 117.76 927.651 116.792 925.297 116.792C922.679 116.792 920.985 118.046 920.985 118.046L921.557 119.674C921.557 119.674 923.075 118.53 924.703 118.53C926.309 118.53 926.221 119.63 926.221 120.884C922.503 121.368 920.325 122.622 920.325 124.712ZM923.735 125.548C923.097 125.548 922.569 125.262 922.569 124.558C922.569 123.392 923.691 122.666 926.221 122.292V124.008C925.561 124.778 924.747 125.548 923.735 125.548ZM932.131 124.294C932.131 126.34 933.253 127.264 934.969 127.264C936.729 127.264 938.027 126.208 938.027 126.208L937.477 124.558C937.213 124.712 936.289 125.438 935.453 125.438C934.727 125.438 934.309 124.954 934.309 123.744V118.706H937.455V117.056H934.309V114.24L932.175 114.702V116.968L930.657 117.518V118.706H932.131V124.294ZM945.664 127H947.93V112.326H945.664V127ZM956.1 122.16C956.1 125.042 958.102 127.264 961.204 127.264C963.58 127.264 964.724 125.988 964.724 125.988L964.02 124.448C964.02 124.448 962.942 125.482 961.358 125.482C959.488 125.482 958.366 124.008 958.366 122.05C958.366 120.026 959.576 118.552 961.38 118.552C962.832 118.552 963.866 119.476 963.866 119.476L964.724 117.848C964.724 117.848 963.514 116.792 961.336 116.792C958.058 116.792 956.1 119.41 956.1 122.16ZM966.087 124.712C966.087 126.186 967.209 127.264 968.947 127.264C970.883 127.264 971.895 126.032 972.159 125.614C972.445 126.406 973.083 127.044 974.601 127.154L975.261 125.438C975.261 125.438 974.161 125.416 974.161 124.184V119.982C974.161 117.76 973.413 116.792 971.059 116.792C968.441 116.792 966.747 118.046 966.747 118.046L967.319 119.674C967.319 119.674 968.837 118.53 970.465 118.53C972.071 118.53 971.983 119.63 971.983 120.884C968.265 121.368 966.087 122.622 966.087 124.712ZM969.497 125.548C968.859 125.548 968.331 125.262 968.331 124.558C968.331 123.392 969.453 122.666 971.983 122.292V124.008C971.323 124.778 970.509 125.548 969.497 125.548ZM977.406 127H979.584V120.554C980.266 119.894 981.674 118.684 982.774 118.684C983.522 118.684 983.962 119.212 983.962 120.62V127H986.14V119.828C986.14 117.694 985.062 116.792 983.5 116.792C981.674 116.792 980.244 118.002 979.54 118.772V116.88L977.406 117.232V127ZM994.401 127H996.579V111.27L994.401 111.622V127ZM1000.79 114.68C1001.58 114.68 1002.17 114.108 1002.17 113.338C1002.17 112.568 1001.58 111.996 1000.79 111.996C1000.02 111.996 999.422 112.568 999.422 113.338C999.422 114.108 1000.02 114.68 1000.79 114.68ZM999.686 127H1001.86V117.056H999.686V127ZM1007.33 127.088H1009.35L1013.44 117.056H1011.22L1008.43 124.272L1006.01 117.056H1003.72L1007.33 127.088ZM1014.45 122.182C1014.45 124.844 1016.15 127.264 1019.47 127.264C1021.95 127.264 1023.47 125.834 1023.47 125.834L1022.86 124.25C1022.86 124.25 1021.47 125.482 1019.8 125.482C1018.06 125.482 1016.96 124.316 1016.72 122.512L1022.15 121.786L1023.41 121.434C1023.41 118.42 1021.69 116.792 1019.31 116.792C1016.41 116.792 1014.45 119.146 1014.45 122.182ZM1019.16 118.486C1020.9 118.486 1021.03 120.51 1021.03 120.51L1016.72 121.06C1016.92 119.608 1017.75 118.486 1019.16 118.486ZM1030.35 124.712C1030.35 126.186 1031.47 127.264 1033.21 127.264C1035.14 127.264 1036.15 126.032 1036.42 125.614C1036.7 126.406 1037.34 127.044 1038.86 127.154L1039.52 125.438C1039.52 125.438 1038.42 125.416 1038.42 124.184V119.982C1038.42 117.76 1037.67 116.792 1035.32 116.792C1032.7 116.792 1031.01 118.046 1031.01 118.046L1031.58 119.674C1031.58 119.674 1033.1 118.53 1034.72 118.53C1036.33 118.53 1036.24 119.63 1036.24 120.884C1032.52 121.368 1030.35 122.622 1030.35 124.712ZM1033.76 125.548C1033.12 125.548 1032.59 125.262 1032.59 124.558C1032.59 123.392 1033.71 122.666 1036.24 122.292V124.008C1035.58 124.778 1034.77 125.548 1033.76 125.548ZM829.55 148.706H831.112V157H833.29V148.706H836.04V147.056H833.29V145.868C833.29 143.536 834.346 142.722 835.512 142.722C836.59 142.722 837.558 143.426 837.558 143.426L838.416 141.754C838.416 141.754 837.272 140.918 835.534 140.918C832.938 140.918 831.112 142.744 831.112 146V146.968L829.55 147.54V148.706ZM837.928 154.272C837.928 156.406 839.028 157.264 840.634 157.264C842.46 157.264 843.846 156.098 844.484 155.416C844.594 156.142 844.814 157.176 844.814 157.176L846.926 156.978C846.926 156.978 846.486 155.152 846.486 153.942V147.056H844.308V153.744C843.692 154.316 842.46 155.372 841.338 155.372C840.524 155.372 840.106 154.822 840.106 153.436V147.056H837.928V154.272ZM849.64 157H851.818V141.27L849.64 141.622V157ZM854.925 157H857.103V141.27L854.925 141.622V157ZM865.495 157H867.673V141.27L865.495 141.622V157ZM871.88 144.68C872.672 144.68 873.266 144.108 873.266 143.338C873.266 142.568 872.672 141.996 871.88 141.996C871.11 141.996 870.516 142.568 870.516 143.338C870.516 144.108 871.11 144.68 871.88 144.68ZM870.78 157H872.958V147.056H870.78V157ZM875.075 148.706H876.637V157H878.815V148.706H881.565V147.056H878.815V145.868C878.815 143.536 879.871 142.722 881.037 142.722C882.115 142.722 883.083 143.426 883.083 143.426L883.941 141.754C883.941 141.754 882.797 140.918 881.059 140.918C878.463 140.918 876.637 142.744 876.637 146V146.968L875.075 147.54V148.706ZM882.753 152.182C882.753 154.844 884.447 157.264 887.769 157.264C890.255 157.264 891.773 155.834 891.773 155.834L891.157 154.25C891.157 154.25 889.771 155.482 888.099 155.482C886.361 155.482 885.261 154.316 885.019 152.512L890.453 151.786L891.707 151.434C891.707 148.42 889.991 146.792 887.615 146.792C884.711 146.792 882.753 149.146 882.753 152.182ZM887.461 148.486C889.199 148.486 889.331 150.51 889.331 150.51L885.019 151.06C885.217 149.608 886.053 148.486 887.461 148.486ZM898.823 152.182C898.823 154.844 900.517 157.264 903.839 157.264C906.325 157.264 907.843 155.834 907.843 155.834L907.227 154.25C907.227 154.25 905.841 155.482 904.169 155.482C902.431 155.482 901.331 154.316 901.089 152.512L906.523 151.786L907.777 151.434C907.777 148.42 906.061 146.792 903.685 146.792C900.781 146.792 898.823 149.146 898.823 152.182ZM903.531 148.486C905.269 148.486 905.401 150.51 905.401 150.51L901.089 151.06C901.287 149.608 902.123 148.486 903.531 148.486ZM912.623 157.088H914.647L918.739 147.056H916.517L913.723 154.272L911.303 147.056H909.015L912.623 157.088ZM919.749 152.182C919.749 154.844 921.443 157.264 924.765 157.264C927.251 157.264 928.769 155.834 928.769 155.834L928.153 154.25C928.153 154.25 926.767 155.482 925.095 155.482C923.357 155.482 922.257 154.316 922.015 152.512L927.449 151.786L928.703 151.434C928.703 148.42 926.987 146.792 924.611 146.792C921.707 146.792 919.749 149.146 919.749 152.182ZM924.457 148.486C926.195 148.486 926.327 150.51 926.327 150.51L922.015 151.06C922.213 149.608 923.049 148.486 924.457 148.486ZM931.15 157H933.328V150.554C934.01 149.894 935.418 148.684 936.518 148.684C937.266 148.684 937.706 149.212 937.706 150.62V157H939.884V149.828C939.884 147.694 938.806 146.792 937.244 146.792C935.418 146.792 933.988 148.002 933.284 148.772V146.88L931.15 147.232V157ZM950.191 157.088H952.303L954.855 150.004L957.143 157.088H959.277L962.841 147.056H960.619L958.221 154.536L955.889 147.056H953.997L951.423 154.58L949.245 147.056H947.001L950.191 157.088ZM965.81 144.68C966.602 144.68 967.196 144.108 967.196 143.338C967.196 142.568 966.602 141.996 965.81 141.996C965.04 141.996 964.446 142.568 964.446 143.338C964.446 144.108 965.04 144.68 965.81 144.68ZM964.71 157H966.888V147.056H964.71V157ZM970.523 154.294C970.523 156.34 971.645 157.264 973.361 157.264C975.121 157.264 976.419 156.208 976.419 156.208L975.869 154.558C975.605 154.712 974.681 155.438 973.845 155.438C973.119 155.438 972.701 154.954 972.701 153.744V148.706H975.847V147.056H972.701V144.24L970.567 144.702V146.968L969.049 147.518V148.706H970.523V154.294ZM978.31 157H980.488V150.598C981.148 149.938 982.578 148.684 983.678 148.684C984.426 148.684 984.866 149.212 984.866 150.62V157H987.044V149.828C987.044 147.694 985.966 146.792 984.382 146.792C982.556 146.792 981.148 148.024 980.488 148.728V141.27L978.31 141.622V157ZM994.468 154.712C994.468 156.186 995.59 157.264 997.328 157.264C999.264 157.264 1000.28 156.032 1000.54 155.614C1000.83 156.406 1001.46 157.044 1002.98 157.154L1003.64 155.438C1003.64 155.438 1002.54 155.416 1002.54 154.184V149.982C1002.54 147.76 1001.79 146.792 999.44 146.792C996.822 146.792 995.128 148.046 995.128 148.046L995.7 149.674C995.7 149.674 997.218 148.53 998.846 148.53C1000.45 148.53 1000.36 149.63 1000.36 150.884C996.646 151.368 994.468 152.622 994.468 154.712ZM997.878 155.548C997.24 155.548 996.712 155.262 996.712 154.558C996.712 153.392 997.834 152.666 1000.36 152.292V154.008C999.704 154.778 998.89 155.548 997.878 155.548ZM829.858 182.16C829.858 185.042 831.86 187.264 834.962 187.264C837.338 187.264 838.482 185.988 838.482 185.988L837.778 184.448C837.778 184.448 836.7 185.482 835.116 185.482C833.246 185.482 832.124 184.008 832.124 182.05C832.124 180.026 833.334 178.552 835.138 178.552C836.59 178.552 837.624 179.476 837.624 179.476L838.482 177.848C838.482 177.848 837.272 176.792 835.094 176.792C831.816 176.792 829.858 179.41 829.858 182.16ZM840.681 187H842.859V180.598C843.519 179.938 844.949 178.684 846.049 178.684C846.797 178.684 847.237 179.212 847.237 180.62V187H849.415V179.828C849.415 177.694 848.337 176.792 846.753 176.792C844.927 176.792 843.519 178.024 842.859 178.728V171.27L840.681 171.622V187ZM852.346 187H854.524V180.84C854.942 180.18 855.844 178.992 856.944 178.992C857.384 178.992 857.824 179.168 857.824 179.168L858.264 176.968C858.264 176.968 857.956 176.792 857.406 176.792C855.888 176.792 854.876 178.2 854.48 178.882V176.88L852.346 177.232V187ZM859.184 182.072C859.184 184.712 860.966 187.264 864.266 187.264C867.852 187.264 869.436 184.25 869.436 181.83C869.436 179.278 867.654 176.792 864.354 176.792C860.79 176.792 859.184 179.586 859.184 182.072ZM861.45 181.874C861.45 179.894 862.616 178.53 864.31 178.53C866.334 178.53 867.17 180.356 867.17 182.116C867.17 184.118 866.004 185.526 864.332 185.526C862.352 185.526 861.45 183.722 861.45 181.874ZM871.789 187H873.967V180.554C874.649 179.894 876.057 178.684 877.157 178.684C877.905 178.684 878.345 179.212 878.345 180.62V187H880.523V179.828C880.523 177.694 879.445 176.792 877.883 176.792C876.057 176.792 874.627 178.002 873.923 178.772V176.88L871.789 177.232V187ZM884.599 174.68C885.391 174.68 885.985 174.108 885.985 173.338C885.985 172.568 885.391 171.996 884.599 171.996C883.829 171.996 883.235 172.568 883.235 173.338C883.235 174.108 883.829 174.68 884.599 174.68ZM883.499 187H885.677V177.056H883.499V187ZM888.102 182.16C888.102 185.042 890.104 187.264 893.206 187.264C895.582 187.264 896.726 185.988 896.726 185.988L896.022 184.448C896.022 184.448 894.944 185.482 893.36 185.482C891.49 185.482 890.368 184.008 890.368 182.05C890.368 180.026 891.578 178.552 893.382 178.552C894.834 178.552 895.868 179.476 895.868 179.476L896.726 177.848C896.726 177.848 895.516 176.792 893.338 176.792C890.06 176.792 888.102 179.41 888.102 182.16ZM905.31 174.68C906.102 174.68 906.696 174.108 906.696 173.338C906.696 172.568 906.102 171.996 905.31 171.996C904.54 171.996 903.946 172.568 903.946 173.338C903.946 174.108 904.54 174.68 905.31 174.68ZM904.21 187H906.388V177.056H904.21V187ZM909.495 187H911.673V171.27L909.495 171.622V187ZM914.78 187H916.958V171.27L914.78 171.622V187ZM920.021 187H922.199V180.554C922.881 179.894 924.289 178.684 925.389 178.684C926.137 178.684 926.577 179.212 926.577 180.62V187H928.755V179.828C928.755 177.694 927.677 176.792 926.115 176.792C924.289 176.792 922.859 178.002 922.155 178.772V176.88L920.021 177.232V187ZM931.071 182.182C931.071 184.844 932.765 187.264 936.087 187.264C938.573 187.264 940.091 185.834 940.091 185.834L939.475 184.25C939.475 184.25 938.089 185.482 936.417 185.482C934.679 185.482 933.579 184.316 933.337 182.512L938.771 181.786L940.025 181.434C940.025 178.42 938.309 176.792 935.933 176.792C933.029 176.792 931.071 179.146 931.071 182.182ZM935.779 178.486C937.517 178.486 937.649 180.51 937.649 180.51L933.337 181.06C933.535 179.608 934.371 178.486 935.779 178.486ZM941.813 186.384C941.813 186.384 943.045 187.264 945.113 187.264C947.555 187.264 948.985 186.054 948.985 184.25C948.985 181.082 944.211 181.236 944.211 179.498C944.211 178.926 944.695 178.508 945.795 178.508C947.071 178.508 948.215 179.124 948.215 179.124L948.721 177.342C948.721 177.342 947.621 176.792 945.883 176.792C943.133 176.792 942.033 178.134 942.033 179.674C942.033 182.798 946.807 182.666 946.807 184.448C946.807 185.086 946.257 185.548 945.091 185.548C943.485 185.548 942.275 184.536 942.275 184.536L941.813 186.384ZM950.664 186.384C950.664 186.384 951.896 187.264 953.964 187.264C956.406 187.264 957.836 186.054 957.836 184.25C957.836 181.082 953.062 181.236 953.062 179.498C953.062 178.926 953.546 178.508 954.646 178.508C955.922 178.508 957.066 179.124 957.066 179.124L957.572 177.342C957.572 177.342 956.472 176.792 954.734 176.792C951.984 176.792 950.884 178.134 950.884 179.674C950.884 182.798 955.658 182.666 955.658 184.448C955.658 185.086 955.108 185.548 953.942 185.548C952.336 185.548 951.126 184.536 951.126 184.536L950.664 186.384ZM959.89 185.79C959.89 186.604 960.55 187.264 961.364 187.264C962.178 187.264 962.86 186.604 962.86 185.79C962.86 184.954 962.178 184.294 961.364 184.294C960.55 184.294 959.89 184.954 959.89 185.79Z" fill="#333333"/>
<path d="M333.99 89.894C333.99 94.448 337.554 97.264 341.998 97.264C344.176 97.264 347.08 96.582 347.08 96.582V89.256H341.778V91.148H344.836V94.998C344.836 94.998 343.538 95.306 342.262 95.306C338.742 95.306 336.344 93.04 336.344 89.718C336.344 86.748 338.258 84.02 341.998 84.02C344.396 84.02 346.156 85.12 346.156 85.12L347.036 83.162C347.036 83.162 345.078 82.062 342.108 82.062C336.916 82.062 333.99 85.758 333.99 89.894ZM349.437 89.696C349.437 93.744 352.451 97.264 357.093 97.264C361.889 97.264 365.013 93.502 365.013 89.388C365.013 85.34 362.021 82.062 357.291 82.062C352.253 82.062 349.437 85.824 349.437 89.696ZM351.835 89.586C351.835 86.77 353.749 83.998 357.225 83.998C360.701 83.998 362.615 86.726 362.615 89.564C362.615 92.424 360.613 95.328 357.159 95.328C353.683 95.328 351.835 92.314 351.835 89.586ZM366.048 97H368.314L369.744 93.084H375.596L377.048 97H379.38L373.792 82.216H371.636L366.048 97ZM372.67 85.12L374.914 91.192H370.448L372.67 85.12ZM381.602 97H390.732V95.108H383.868V82.326H381.602V97ZM397.413 97H405.531V95.24H400.515C402.341 93.722 404.607 91.698 404.607 89.476C404.607 87.694 403.133 86.352 401.043 86.352C398.931 86.352 397.325 87.738 397.325 87.738L398.205 89.124C398.205 89.124 399.371 88.178 400.647 88.178C401.659 88.178 402.341 88.838 402.341 89.784C402.341 92.138 397.325 95.68 397.325 95.68L397.413 97ZM412.799 92.292H418.167V90.62H412.799V92.292ZM335.002 127H340.062C343.01 127 345.078 125.328 345.078 122.732C345.078 120.4 343.384 119.432 342.526 119.08C343.296 118.486 344.286 117.408 344.286 115.846C344.286 114.152 343.098 112.326 339.314 112.326H335.002V127ZM337.268 125.108V120.422H339.732C341.778 120.422 342.68 121.412 342.68 122.776C342.68 124.162 341.778 125.108 339.732 125.108H337.268ZM337.268 114.218H338.984C341.272 114.218 341.888 115.12 341.888 116.22C341.888 117.804 340.48 118.552 340.48 118.552H337.268V114.218ZM346.943 122.182C346.943 124.844 348.637 127.264 351.959 127.264C354.445 127.264 355.963 125.834 355.963 125.834L355.347 124.25C355.347 124.25 353.961 125.482 352.289 125.482C350.551 125.482 349.451 124.316 349.209 122.512L354.643 121.786L355.897 121.434C355.897 118.42 354.181 116.792 351.805 116.792C348.901 116.792 346.943 119.146 346.943 122.182ZM351.651 118.486C353.389 118.486 353.521 120.51 353.521 120.51L349.209 121.06C349.407 119.608 350.243 118.486 351.651 118.486ZM358.388 127H360.566V111.27L358.388 111.622V127ZM364.773 114.68C365.565 114.68 366.159 114.108 366.159 113.338C366.159 112.568 365.565 111.996 364.773 111.996C364.003 111.996 363.409 112.568 363.409 113.338C363.409 114.108 364.003 114.68 364.773 114.68ZM363.673 127H365.851V117.056H363.673V127ZM368.298 122.182C368.298 124.844 369.992 127.264 373.314 127.264C375.8 127.264 377.318 125.834 377.318 125.834L376.702 124.25C376.702 124.25 375.316 125.482 373.644 125.482C371.906 125.482 370.806 124.316 370.564 122.512L375.998 121.786L377.252 121.434C377.252 118.42 375.536 116.792 373.16 116.792C370.256 116.792 368.298 119.146 368.298 122.182ZM373.006 118.486C374.744 118.486 374.876 120.51 374.876 120.51L370.564 121.06C370.762 119.608 371.598 118.486 373.006 118.486ZM382.097 127.088H384.121L388.213 117.056H385.991L383.197 124.272L380.777 117.056H378.489L382.097 127.088ZM389.224 122.182C389.224 124.844 390.918 127.264 394.24 127.264C396.726 127.264 398.244 125.834 398.244 125.834L397.628 124.25C397.628 124.25 396.242 125.482 394.57 125.482C392.832 125.482 391.732 124.316 391.49 122.512L396.924 121.786L398.178 121.434C398.178 118.42 396.462 116.792 394.086 116.792C391.182 116.792 389.224 119.146 389.224 122.182ZM393.932 118.486C395.67 118.486 395.802 120.51 395.802 120.51L391.49 121.06C391.688 119.608 392.524 118.486 393.932 118.486ZM406.482 124.294C406.482 126.34 407.604 127.264 409.32 127.264C411.08 127.264 412.378 126.208 412.378 126.208L411.828 124.558C411.564 124.712 410.64 125.438 409.804 125.438C409.078 125.438 408.66 124.954 408.66 123.744V118.706H411.806V117.056H408.66V114.24L406.526 114.702V116.968L405.008 117.518V118.706H406.482V124.294ZM414.269 127H416.447V120.598C417.107 119.938 418.537 118.684 419.637 118.684C420.385 118.684 420.825 119.212 420.825 120.62V127H423.003V119.828C423.003 117.694 421.925 116.792 420.341 116.792C418.515 116.792 417.107 118.024 416.447 118.728V111.27L414.269 111.622V127ZM425.142 124.712C425.142 126.186 426.264 127.264 428.002 127.264C429.938 127.264 430.95 126.032 431.214 125.614C431.5 126.406 432.138 127.044 433.656 127.154L434.316 125.438C434.316 125.438 433.216 125.416 433.216 124.184V119.982C433.216 117.76 432.468 116.792 430.114 116.792C427.496 116.792 425.802 118.046 425.802 118.046L426.374 119.674C426.374 119.674 427.892 118.53 429.52 118.53C431.126 118.53 431.038 119.63 431.038 120.884C427.32 121.368 425.142 122.622 425.142 124.712ZM428.552 125.548C427.914 125.548 427.386 125.262 427.386 124.558C427.386 123.392 428.508 122.666 431.038 122.292V124.008C430.378 124.778 429.564 125.548 428.552 125.548ZM436.947 124.294C436.947 126.34 438.069 127.264 439.785 127.264C441.545 127.264 442.843 126.208 442.843 126.208L442.293 124.558C442.029 124.712 441.105 125.438 440.269 125.438C439.543 125.438 439.125 124.954 439.125 123.744V118.706H442.271V117.056H439.125V114.24L436.991 114.702V116.968L435.473 117.518V118.706H436.947V124.294ZM454.485 117.144L456.399 116.066C455.365 114.966 455.079 114.35 455.079 113.646C455.079 112.876 455.453 112.194 456.289 111.556L455.453 110.676C454.045 111.754 453.319 113.074 453.319 114.394C453.319 115.34 453.649 116.242 454.485 117.144ZM450.635 117.144L452.549 116.066C451.515 114.966 451.229 114.35 451.229 113.646C451.229 112.876 451.603 112.194 452.439 111.556L451.603 110.676C450.195 111.754 449.469 113.074 449.469 114.394C449.469 115.34 449.799 116.242 450.635 117.144ZM459.096 127H461.362V112.326H459.096V127ZM469.532 122.16C469.532 125.042 471.534 127.264 474.636 127.264C477.012 127.264 478.156 125.988 478.156 125.988L477.452 124.448C477.452 124.448 476.374 125.482 474.79 125.482C472.92 125.482 471.798 124.008 471.798 122.05C471.798 120.026 473.008 118.552 474.812 118.552C476.264 118.552 477.298 119.476 477.298 119.476L478.156 117.848C478.156 117.848 476.946 116.792 474.768 116.792C471.49 116.792 469.532 119.41 469.532 122.16ZM479.518 124.712C479.518 126.186 480.64 127.264 482.378 127.264C484.314 127.264 485.326 126.032 485.59 125.614C485.876 126.406 486.514 127.044 488.032 127.154L488.692 125.438C488.692 125.438 487.592 125.416 487.592 124.184V119.982C487.592 117.76 486.844 116.792 484.49 116.792C481.872 116.792 480.178 118.046 480.178 118.046L480.75 119.674C480.75 119.674 482.268 118.53 483.896 118.53C485.502 118.53 485.414 119.63 485.414 120.884C481.696 121.368 479.518 122.622 479.518 124.712ZM482.928 125.548C482.29 125.548 481.762 125.262 481.762 124.558C481.762 123.392 482.884 122.666 485.414 122.292V124.008C484.754 124.778 483.94 125.548 482.928 125.548ZM490.838 127H493.016V120.554C493.698 119.894 495.106 118.684 496.206 118.684C496.954 118.684 497.394 119.212 497.394 120.62V127H499.572V119.828C499.572 117.694 498.494 116.792 496.932 116.792C495.106 116.792 493.676 118.002 492.972 118.772V116.88L490.838 117.232V127ZM507.173 122.336C507.173 125.064 508.845 127.264 511.441 127.264C513.025 127.264 514.037 126.494 514.565 125.636C514.675 126.34 514.873 127.154 514.873 127.154L516.963 127C516.963 127 516.523 125.152 516.523 123.942V111.27L514.345 111.622V117.122C514.059 117.012 513.399 116.792 512.497 116.792C508.977 116.792 507.173 119.498 507.173 122.336ZM511.815 125.526C510.407 125.526 509.461 124.272 509.461 122.204C509.461 119.828 510.715 118.508 512.607 118.508C513.509 118.508 514.301 118.838 514.345 119.828V123.92C514.037 124.382 513.157 125.526 511.815 125.526ZM518.967 122.072C518.967 124.712 520.749 127.264 524.049 127.264C527.635 127.264 529.219 124.25 529.219 121.83C529.219 119.278 527.437 116.792 524.137 116.792C520.573 116.792 518.967 119.586 518.967 122.072ZM521.233 121.874C521.233 119.894 522.399 118.53 524.093 118.53C526.117 118.53 526.953 120.356 526.953 122.116C526.953 124.118 525.787 125.526 524.115 125.526C522.135 125.526 521.233 123.722 521.233 121.874ZM335.068 154.294C335.068 156.34 336.19 157.264 337.906 157.264C339.666 157.264 340.964 156.208 340.964 156.208L340.414 154.558C340.15 154.712 339.226 155.438 338.39 155.438C337.664 155.438 337.246 154.954 337.246 153.744V148.706H340.392V147.056H337.246V144.24L335.112 144.702V146.968L333.594 147.518V148.706H335.068V154.294ZM342.854 157H345.032V150.598C345.692 149.938 347.122 148.684 348.222 148.684C348.97 148.684 349.41 149.212 349.41 150.62V157H351.588V149.828C351.588 147.694 350.51 146.792 348.926 146.792C347.1 146.792 345.692 148.024 345.032 148.728V141.27L342.854 141.622V157ZM355.663 144.68C356.455 144.68 357.049 144.108 357.049 143.338C357.049 142.568 356.455 141.996 355.663 141.996C354.893 141.996 354.299 142.568 354.299 143.338C354.299 144.108 354.893 144.68 355.663 144.68ZM354.563 157H356.741V147.056H354.563V157ZM359.145 156.384C359.145 156.384 360.377 157.264 362.445 157.264C364.887 157.264 366.317 156.054 366.317 154.25C366.317 151.082 361.543 151.236 361.543 149.498C361.543 148.926 362.027 148.508 363.127 148.508C364.403 148.508 365.547 149.124 365.547 149.124L366.053 147.342C366.053 147.342 364.953 146.792 363.215 146.792C360.465 146.792 359.365 148.134 359.365 149.674C359.365 152.798 364.139 152.666 364.139 154.448C364.139 155.086 363.589 155.548 362.423 155.548C360.817 155.548 359.607 154.536 359.607 154.536L359.145 156.384ZM372.66 147.144C374.068 146.044 374.794 144.746 374.794 143.404C374.794 142.458 374.464 141.556 373.628 140.676L371.714 141.732C372.748 142.832 373.034 143.448 373.034 144.152C373.034 144.922 372.66 145.604 371.824 146.242L372.66 147.144ZM368.81 147.144C370.218 146.044 370.944 144.746 370.944 143.404C370.944 142.458 370.614 141.556 369.778 140.676L367.842 141.732C368.898 142.832 369.184 143.448 369.184 144.152C369.184 144.922 368.81 145.604 367.974 146.242L368.81 147.144ZM384.518 157.088H386.63L389.182 150.004L391.47 157.088H393.604L397.168 147.056H394.946L392.548 154.536L390.216 147.056H388.324L385.75 154.58L383.572 147.056H381.328L384.518 157.088ZM400.136 144.68C400.928 144.68 401.522 144.108 401.522 143.338C401.522 142.568 400.928 141.996 400.136 141.996C399.366 141.996 398.772 142.568 398.772 143.338C398.772 144.108 399.366 144.68 400.136 144.68ZM399.036 157H401.214V147.056H399.036V157ZM404.849 154.294C404.849 156.34 405.971 157.264 407.687 157.264C409.447 157.264 410.745 156.208 410.745 156.208L410.195 154.558C409.931 154.712 409.007 155.438 408.171 155.438C407.445 155.438 407.027 154.954 407.027 153.744V148.706H410.173V147.056H407.027V144.24L404.893 144.702V146.968L403.375 147.518V148.706H404.849V154.294ZM412.636 157H414.814V150.598C415.474 149.938 416.904 148.684 418.004 148.684C418.752 148.684 419.192 149.212 419.192 150.62V157H421.37V149.828C421.37 147.694 420.292 146.792 418.708 146.792C416.882 146.792 415.474 148.024 414.814 148.728V141.27L412.636 141.622V157ZM430.158 154.294C430.158 156.34 431.28 157.264 432.996 157.264C434.756 157.264 436.054 156.208 436.054 156.208L435.504 154.558C435.24 154.712 434.316 155.438 433.48 155.438C432.754 155.438 432.336 154.954 432.336 153.744V148.706H435.482V147.056H432.336V144.24L430.202 144.702V146.968L428.684 147.518V148.706H430.158V154.294ZM437.944 157H440.122V150.598C440.782 149.938 442.212 148.684 443.312 148.684C444.06 148.684 444.5 149.212 444.5 150.62V157H446.678V149.828C446.678 147.694 445.6 146.792 444.016 146.792C442.19 146.792 440.782 148.024 440.122 148.728V141.27L437.944 141.622V157ZM448.993 152.182C448.993 154.844 450.687 157.264 454.009 157.264C456.495 157.264 458.013 155.834 458.013 155.834L457.397 154.25C457.397 154.25 456.011 155.482 454.339 155.482C452.601 155.482 451.501 154.316 451.259 152.512L456.693 151.786L457.947 151.434C457.947 148.42 456.231 146.792 453.855 146.792C450.951 146.792 448.993 149.146 448.993 152.182ZM453.701 148.486C455.439 148.486 455.571 150.51 455.571 150.51L451.259 151.06C451.457 149.608 452.293 148.486 453.701 148.486ZM465.68 157H467.858V150.84C468.276 150.18 469.178 148.992 470.278 148.992C470.718 148.992 471.158 149.168 471.158 149.168L471.598 146.968C471.598 146.968 471.29 146.792 470.74 146.792C469.222 146.792 468.21 148.2 467.814 148.882V146.88L465.68 147.232V157ZM474.472 144.68C475.264 144.68 475.858 144.108 475.858 143.338C475.858 142.568 475.264 141.996 474.472 141.996C473.702 141.996 473.108 142.568 473.108 143.338C473.108 144.108 473.702 144.68 474.472 144.68ZM473.372 157H475.55V147.056H473.372V157ZM478.591 155.24C478.591 155.922 479.229 156.318 480.219 156.648C479.163 157.198 477.689 158.144 477.689 159.596C477.689 161.334 479.845 162.214 482.045 162.214C485.037 162.214 487.479 160.52 487.479 158.518C487.479 156.692 485.477 156.142 483.717 155.702C481.649 155.196 480.681 154.998 480.681 154.602C480.681 154.36 481.033 154.096 481.495 153.788C481.715 153.832 481.957 153.832 482.221 153.832C484.355 153.832 486.621 152.666 486.621 150.488C486.621 149.608 486.203 149.014 485.895 148.662C486.159 148.706 486.467 148.728 486.709 148.728H487.897L487.743 146.99C487.743 146.99 487.083 147.21 486.423 147.21H485.279C484.179 147.21 483.607 146.792 482.397 146.792C480.175 146.792 478.173 148.046 478.173 150.268C478.173 151.61 478.899 152.776 480.153 153.392C479.339 153.854 478.591 154.514 478.591 155.24ZM482.463 157.22C484.311 157.704 485.345 157.99 485.345 158.848C485.345 159.838 483.937 160.63 482.177 160.63C480.923 160.63 479.647 160.234 479.647 159.244C479.647 158.254 480.857 157.594 481.803 157.066C482.023 157.11 482.243 157.154 482.463 157.22ZM482.375 152.292C480.967 152.292 480.307 151.28 480.307 150.334C480.307 149.3 481.055 148.332 482.375 148.332C483.783 148.332 484.465 149.476 484.465 150.444C484.465 151.566 483.585 152.292 482.375 152.292ZM489.786 157H491.964V150.598C492.624 149.938 494.054 148.684 495.154 148.684C495.902 148.684 496.342 149.212 496.342 150.62V157H498.52V149.828C498.52 147.694 497.442 146.792 495.858 146.792C494.032 146.792 492.624 148.024 491.964 148.728V141.27L489.786 141.622V157ZM502.023 154.294C502.023 156.34 503.145 157.264 504.861 157.264C506.621 157.264 507.919 156.208 507.919 156.208L507.369 154.558C507.105 154.712 506.181 155.438 505.345 155.438C504.619 155.438 504.201 154.954 504.201 153.744V148.706H507.347V147.056H504.201V144.24L502.067 144.702V146.968L500.549 147.518V148.706H502.023V154.294ZM333.836 186.384C333.836 186.384 335.068 187.264 337.136 187.264C339.578 187.264 341.008 186.054 341.008 184.25C341.008 181.082 336.234 181.236 336.234 179.498C336.234 178.926 336.718 178.508 337.818 178.508C339.094 178.508 340.238 179.124 340.238 179.124L340.744 177.342C340.744 177.342 339.644 176.792 337.906 176.792C335.156 176.792 334.056 178.134 334.056 179.674C334.056 182.798 338.83 182.666 338.83 184.448C338.83 185.086 338.28 185.548 337.114 185.548C335.508 185.548 334.298 184.536 334.298 184.536L333.836 186.384ZM343.282 184.272C343.282 186.406 344.382 187.264 345.988 187.264C347.814 187.264 349.2 186.098 349.838 185.416C349.948 186.142 350.168 187.176 350.168 187.176L352.28 186.978C352.28 186.978 351.84 185.152 351.84 183.942V177.056H349.662V183.744C349.046 184.316 347.814 185.372 346.692 185.372C345.878 185.372 345.46 184.822 345.46 183.436V177.056H343.282V184.272ZM354.949 192.126L357.127 191.774V186.736C357.545 187.044 358.293 187.264 359.217 187.264C362.385 187.264 364.233 184.668 364.233 181.72C364.233 179.014 362.649 176.792 360.031 176.792C358.469 176.792 357.523 177.606 357.061 178.464V176.88L354.949 177.232V192.126ZM359.657 178.596C360.999 178.596 361.945 179.806 361.945 181.874C361.945 184.25 360.691 185.548 358.821 185.548C357.787 185.548 357.127 185.174 357.127 184.426V180.202C357.413 179.784 358.337 178.596 359.657 178.596ZM366.615 192.126L368.793 191.774V186.736C369.211 187.044 369.959 187.264 370.883 187.264C374.051 187.264 375.899 184.668 375.899 181.72C375.899 179.014 374.315 176.792 371.697 176.792C370.135 176.792 369.189 177.606 368.727 178.464V176.88L366.615 177.232V192.126ZM371.323 178.596C372.665 178.596 373.611 179.806 373.611 181.874C373.611 184.25 372.357 185.548 370.487 185.548C369.453 185.548 368.793 185.174 368.793 184.426V180.202C369.079 179.784 370.003 178.596 371.323 178.596ZM377.643 182.072C377.643 184.712 379.425 187.264 382.725 187.264C386.311 187.264 387.895 184.25 387.895 181.83C387.895 179.278 386.113 176.792 382.813 176.792C379.249 176.792 377.643 179.586 377.643 182.072ZM379.909 181.874C379.909 179.894 381.075 178.53 382.769 178.53C384.793 178.53 385.629 180.356 385.629 182.116C385.629 184.118 384.463 185.526 382.791 185.526C380.811 185.526 379.909 183.722 379.909 181.874ZM390.248 187H392.426V180.84C392.844 180.18 393.746 178.992 394.846 178.992C395.286 178.992 395.726 179.168 395.726 179.168L396.166 176.968C396.166 176.968 395.858 176.792 395.308 176.792C393.79 176.792 392.778 178.2 392.382 178.882V176.88L390.248 177.232V187ZM398.468 184.294C398.468 186.34 399.59 187.264 401.306 187.264C403.066 187.264 404.364 186.208 404.364 186.208L403.814 184.558C403.55 184.712 402.626 185.438 401.79 185.438C401.064 185.438 400.646 184.954 400.646 183.744V178.706H403.792V177.056H400.646V174.24L398.512 174.702V176.968L396.994 177.518V178.706H398.468V184.294ZM405.925 185.79C405.925 186.604 406.585 187.264 407.399 187.264C408.213 187.264 408.895 186.604 408.895 185.79C408.895 184.954 408.213 184.294 407.399 184.294C406.585 184.294 405.925 184.954 405.925 185.79Z" fill="#333333"/>
<path d="M75 462.324V219.385H323V462.324" stroke="#828282" stroke-width="4"/>
<path d="M571 462.324V219.385H819V462.324" stroke="#828282" stroke-width="4"/>
<path d="M323 462.324V219.385H571V462.324" stroke="#828282" stroke-width="4"/>
<path d="M819 462.324V219.385H1067V462.324" stroke="#828282" stroke-width="4"/>
<rect x="85" y="232" width="49" height="170" fill="#EDE3E4"/>
<rect x="581" y="232" width="49" height="186" fill="#D9DFE9"/>
<rect x="333" y="232" width="49" height="170" fill="#EFE8DF"/>
<rect x="829.121" y="232.039" width="49.3469" height="137.918" fill="#DFDDE2"/>
<rect x="144.594" y="232.039" width="49.3469" height="221.429" fill="#EDE3E4"/>
<rect x="641" y="232" width="49" height="151" fill="#D9DFE9"/>
<rect x="392.594" y="232.039" width="49.3469" height="137.918" fill="#EFE8DF"/>
<rect x="889" y="232" width="49" height="170" fill="#DFDDE2"/>
<rect x="263.531" y="232.039" width="49.3469" height="169.551" fill="#EDE3E4"/>
<rect x="760" y="232" width="49" height="186" fill="#D9DFE9"/>
<rect x="512" y="232" width="49" height="138" fill="#EFE8DF"/>
<rect x="1007.53" y="232.039" width="49.3469" height="137.918" fill="#DFDDE2"/>
<rect x="204" y="232" width="49" height="221" fill="#EDE3E4"/>
<rect x="700" y="232" width="49" height="151" fill="#D9DFE9"/>
<rect x="452" y="232" width="49" height="170" fill="#EFE8DF"/>
<rect x="948" y="232" width="49" height="151" fill="#DFDDE2"/>
</svg>
