<svg width="1158" height="599" viewBox="0 0 1158 599" fill="none" xmlns="http://www.w3.org/2000/svg">
<rect x="1" y="1" width="1156" height="597" fill="#FAFAFA" stroke="#BDBDBD" stroke-width="2"/>
<path d="M609 422.256V217.031H818.5V422.256" stroke="#BDBDBD" stroke-width="4"/>
<rect x="618" y="228" width="41" height="128" fill="#EDE3E4"/>
<rect x="668" y="228" width="41" height="160" fill="#EDE3E4"/>
<rect x="768" y="228" width="42" height="128" fill="#EDE3E4"/>
<rect x="718" y="228" width="42" height="160" fill="#EDE3E4"/>
<path d="M834.5 422.256V217.031H1044V422.256" stroke="#BDBDBD" stroke-width="4"/>
<rect x="843.051" y="227.721" width="41.6862" height="116.508" fill="#DFDDE2"/>
<rect x="893" y="228" width="42" height="157" fill="#DFDDE2"/>
<rect x="993.762" y="227.721" width="41.6862" height="116.508" fill="#DFDDE2"/>
<rect x="943.523" y="227.721" width="41.6862" height="143.23" fill="#DFDDE2"/>
<path d="M338.5 422.256V217.031H548V422.256" stroke="#BDBDBD" stroke-width="4"/>
<rect x="347.051" y="227.721" width="41.6862" height="160.332" fill="#D9DFE9"/>
<rect x="397" y="228" width="42" height="128" fill="#D9DFE9"/>
<rect x="498" y="228" width="41" height="160" fill="#D9DFE9"/>
<rect x="448" y="228" width="41" height="128" fill="#D9DFE9"/>
<path d="M348.82 136H350.88V130.2H355.58V128.42H350.88V124.38H356.82V122.66H348.82V136ZM357.488 131.62C357.488 134.04 359.028 136.24 362.048 136.24C364.308 136.24 365.688 134.94 365.688 134.94L365.128 133.5C365.128 133.5 363.868 134.62 362.348 134.62C360.768 134.62 359.768 133.56 359.548 131.92L364.488 131.26L365.628 130.94C365.628 128.2 364.068 126.72 361.908 126.72C359.268 126.72 357.488 128.86 357.488 131.62ZM361.768 128.26C363.348 128.26 363.468 130.1 363.468 130.1L359.548 130.6C359.728 129.28 360.488 128.26 361.768 128.26ZM367.292 131.62C367.292 134.04 368.832 136.24 371.852 136.24C374.112 136.24 375.492 134.94 375.492 134.94L374.932 133.5C374.932 133.5 373.672 134.62 372.152 134.62C370.572 134.62 369.572 133.56 369.352 131.92L374.292 131.26L375.432 130.94C375.432 128.2 373.872 126.72 371.712 126.72C369.072 126.72 367.292 128.86 367.292 131.62ZM371.572 128.26C373.152 128.26 373.272 130.1 373.272 130.1L369.352 130.6C369.532 129.28 370.292 128.26 371.572 128.26ZM377.697 136H379.677V121.7L377.697 122.02V136ZM387.306 136H389.286V130.18C389.886 129.58 391.186 128.44 392.186 128.44C392.866 128.44 393.266 128.92 393.266 130.2V136H395.246V129.48C395.246 127.54 394.266 126.72 392.826 126.72C391.166 126.72 389.886 127.84 389.286 128.48V121.7L387.306 122.02V136ZM397.331 131.52C397.331 133.92 398.951 136.24 401.951 136.24C405.211 136.24 406.651 133.5 406.651 131.3C406.651 128.98 405.031 126.72 402.031 126.72C398.791 126.72 397.331 129.26 397.331 131.52ZM399.391 131.34C399.391 129.54 400.451 128.3 401.991 128.3C403.831 128.3 404.591 129.96 404.591 131.56C404.591 133.38 403.531 134.66 402.011 134.66C400.211 134.66 399.391 133.02 399.391 131.34ZM408.79 140.66L410.77 140.34V135.76C411.15 136.04 411.83 136.24 412.67 136.24C415.55 136.24 417.23 133.88 417.23 131.2C417.23 128.74 415.79 126.72 413.41 126.72C411.99 126.72 411.13 127.46 410.71 128.24V126.8L408.79 127.12V140.66ZM413.07 128.36C414.29 128.36 415.15 129.46 415.15 131.34C415.15 133.5 414.01 134.68 412.31 134.68C411.37 134.68 410.77 134.34 410.77 133.66V129.82C411.03 129.44 411.87 128.36 413.07 128.36ZM418.835 131.62C418.835 134.04 420.375 136.24 423.395 136.24C425.655 136.24 427.035 134.94 427.035 134.94L426.475 133.5C426.475 133.5 425.215 134.62 423.695 134.62C422.115 134.62 421.115 133.56 420.895 131.92L425.835 131.26L426.975 130.94C426.975 128.2 425.415 126.72 423.255 126.72C420.615 126.72 418.835 128.86 418.835 131.62ZM423.115 128.26C424.695 128.26 424.815 130.1 424.815 130.1L420.895 130.6C421.075 129.28 421.835 128.26 423.115 128.26ZM428.34 128.46H429.76V136H431.74V128.46H434.24V126.96H431.74V125.88C431.74 123.76 432.7 123.02 433.76 123.02C434.74 123.02 435.62 123.66 435.62 123.66L436.4 122.14C436.4 122.14 435.36 121.38 433.78 121.38C431.42 121.38 429.76 123.04 429.76 126V126.88L428.34 127.4V128.46ZM435.956 133.52C435.956 135.46 436.956 136.24 438.416 136.24C440.076 136.24 441.336 135.18 441.916 134.56C442.016 135.22 442.216 136.16 442.216 136.16L444.136 135.98C444.136 135.98 443.736 134.32 443.736 133.22V126.96H441.756V133.04C441.196 133.56 440.076 134.52 439.056 134.52C438.316 134.52 437.936 134.02 437.936 132.76V126.96H435.956V133.52ZM446.603 136H448.583V121.7L446.603 122.02V136ZM456.693 133.54C456.693 135.4 457.713 136.24 459.273 136.24C460.873 136.24 462.053 135.28 462.053 135.28L461.553 133.78C461.313 133.92 460.473 134.58 459.713 134.58C459.053 134.58 458.673 134.14 458.673 133.04V128.46H461.533V126.96H458.673V124.4L456.733 124.82V126.88L455.353 127.38V128.46H456.693V133.54ZM463.771 136H465.751V130.18C466.351 129.58 467.651 128.44 468.651 128.44C469.331 128.44 469.731 128.92 469.731 130.2V136H471.711V129.48C471.711 127.54 470.731 126.72 469.291 126.72C467.631 126.72 466.351 127.84 465.751 128.48V121.7L463.771 122.02V136ZM473.656 133.92C473.656 135.26 474.676 136.24 476.256 136.24C478.016 136.24 478.936 135.12 479.176 134.74C479.436 135.46 480.016 136.04 481.396 136.14L481.996 134.58C481.996 134.58 480.996 134.56 480.996 133.44V129.62C480.996 127.6 480.316 126.72 478.176 126.72C475.796 126.72 474.256 127.86 474.256 127.86L474.776 129.34C474.776 129.34 476.156 128.3 477.636 128.3C479.096 128.3 479.016 129.3 479.016 130.44C475.636 130.88 473.656 132.02 473.656 133.92ZM476.756 134.68C476.176 134.68 475.696 134.42 475.696 133.78C475.696 132.72 476.716 132.06 479.016 131.72V133.28C478.416 133.98 477.676 134.68 476.756 134.68ZM484.388 133.54C484.388 135.4 485.408 136.24 486.968 136.24C488.568 136.24 489.748 135.28 489.748 135.28L489.248 133.78C489.008 133.92 488.168 134.58 487.408 134.58C486.748 134.58 486.368 134.14 486.368 133.04V128.46H489.228V126.96H486.368V124.4L484.428 124.82V126.88L483.048 127.38V128.46H484.388V133.54ZM496.691 136H498.751V122.66H496.691V136ZM506.178 131.6C506.178 134.22 507.998 136.24 510.818 136.24C512.978 136.24 514.018 135.08 514.018 135.08L513.378 133.68C513.378 133.68 512.398 134.62 510.958 134.62C509.258 134.62 508.238 133.28 508.238 131.5C508.238 129.66 509.338 128.32 510.978 128.32C512.298 128.32 513.238 129.16 513.238 129.16L514.018 127.68C514.018 127.68 512.918 126.72 510.938 126.72C507.958 126.72 506.178 129.1 506.178 131.6ZM515.257 133.92C515.257 135.26 516.277 136.24 517.857 136.24C519.617 136.24 520.537 135.12 520.777 134.74C521.037 135.46 521.617 136.04 522.997 136.14L523.597 134.58C523.597 134.58 522.597 134.56 522.597 133.44V129.62C522.597 127.6 521.917 126.72 519.777 126.72C517.397 126.72 515.857 127.86 515.857 127.86L516.377 129.34C516.377 129.34 517.757 128.3 519.237 128.3C520.697 128.3 520.617 129.3 520.617 130.44C517.237 130.88 515.257 132.02 515.257 133.92ZM518.357 134.68C517.777 134.68 517.297 134.42 517.297 133.78C517.297 132.72 518.317 132.06 520.617 131.72V133.28C520.017 133.98 519.277 134.68 518.357 134.68ZM525.548 136H527.528V130.14C528.148 129.54 529.428 128.44 530.428 128.44C531.108 128.44 531.508 128.92 531.508 130.2V136H533.488V129.48C533.488 127.54 532.508 126.72 531.088 126.72C529.428 126.72 528.128 127.82 527.488 128.52V126.8L525.548 127.12V136ZM348.34 161.4C348.34 162.02 348.92 162.38 349.82 162.68C348.86 163.18 347.52 164.04 347.52 165.36C347.52 166.94 349.48 167.74 351.48 167.74C354.2 167.74 356.42 166.2 356.42 164.38C356.42 162.72 354.6 162.22 353 161.82C351.12 161.36 350.24 161.18 350.24 160.82C350.24 160.6 350.56 160.36 350.98 160.08C351.18 160.12 351.4 160.12 351.64 160.12C353.58 160.12 355.64 159.06 355.64 157.08C355.64 156.28 355.26 155.74 354.98 155.42C355.22 155.46 355.5 155.48 355.72 155.48H356.8L356.66 153.9C356.66 153.9 356.06 154.1 355.46 154.1H354.42C353.42 154.1 352.9 153.72 351.8 153.72C349.78 153.72 347.96 154.86 347.96 156.88C347.96 158.1 348.62 159.16 349.76 159.72C349.02 160.14 348.34 160.74 348.34 161.4ZM351.86 163.2C353.54 163.64 354.48 163.9 354.48 164.68C354.48 165.58 353.2 166.3 351.6 166.3C350.46 166.3 349.3 165.94 349.3 165.04C349.3 164.14 350.4 163.54 351.26 163.06C351.46 163.1 351.66 163.14 351.86 163.2ZM351.78 158.72C350.5 158.72 349.9 157.8 349.9 156.94C349.9 156 350.58 155.12 351.78 155.12C353.06 155.12 353.68 156.16 353.68 157.04C353.68 158.06 352.88 158.72 351.78 158.72ZM357.917 158.62C357.917 161.04 359.457 163.24 362.477 163.24C364.737 163.24 366.117 161.94 366.117 161.94L365.557 160.5C365.557 160.5 364.297 161.62 362.777 161.62C361.197 161.62 360.197 160.56 359.977 158.92L364.917 158.26L366.057 157.94C366.057 155.2 364.497 153.72 362.337 153.72C359.697 153.72 357.917 155.86 357.917 158.62ZM362.197 155.26C363.777 155.26 363.897 157.1 363.897 157.1L359.977 157.6C360.157 156.28 360.917 155.26 362.197 155.26ZM368.802 160.54C368.802 162.4 369.822 163.24 371.382 163.24C372.982 163.24 374.162 162.28 374.162 162.28L373.662 160.78C373.422 160.92 372.582 161.58 371.822 161.58C371.162 161.58 370.782 161.14 370.782 160.04V155.46H373.642V153.96H370.782V151.4L368.842 151.82V153.88L367.462 154.38V155.46H368.802V160.54ZM380.645 162.8C381.325 162.96 382.865 163.24 383.945 163.24C387.365 163.24 389.005 160.8 389.005 158.16C389.005 155.68 387.565 153.72 385.065 153.72C383.825 153.72 383.085 154.22 382.625 154.74V148.7L380.645 149.02V162.8ZM384.745 155.32C386.065 155.32 386.965 156.42 386.965 158.3C386.965 160.54 385.705 161.74 383.985 161.74C383.245 161.74 382.625 161.54 382.625 161.54V156.26C383.045 155.88 383.805 155.32 384.745 155.32ZM390.472 160.92C390.472 162.26 391.492 163.24 393.072 163.24C394.832 163.24 395.752 162.12 395.992 161.74C396.252 162.46 396.832 163.04 398.212 163.14L398.812 161.58C398.812 161.58 397.812 161.56 397.812 160.44V156.62C397.812 154.6 397.132 153.72 394.992 153.72C392.612 153.72 391.072 154.86 391.072 154.86L391.592 156.34C391.592 156.34 392.972 155.3 394.452 155.3C395.912 155.3 395.832 156.3 395.832 157.44C392.452 157.88 390.472 159.02 390.472 160.92ZM393.572 161.68C392.992 161.68 392.512 161.42 392.512 160.78C392.512 159.72 393.532 159.06 395.832 158.72V160.28C395.232 160.98 394.492 161.68 393.572 161.68ZM400.182 158.6C400.182 161.22 402.002 163.24 404.822 163.24C406.982 163.24 408.022 162.08 408.022 162.08L407.382 160.68C407.382 160.68 406.402 161.62 404.962 161.62C403.262 161.62 402.242 160.28 402.242 158.5C402.242 156.66 403.342 155.32 404.982 155.32C406.302 155.32 407.242 156.16 407.242 156.16L408.022 154.68C408.022 154.68 406.922 153.72 404.942 153.72C401.962 153.72 400.182 156.1 400.182 158.6ZM410.021 163H412.001V158.72H412.281L415.881 163H418.421L414.021 157.92L418.141 153.96H415.561L412.281 157.26H412.001V148.7L410.021 149.02V163ZM424.089 158.52C424.089 160.92 425.709 163.24 428.709 163.24C431.969 163.24 433.409 160.5 433.409 158.3C433.409 155.98 431.789 153.72 428.789 153.72C425.549 153.72 424.089 156.26 424.089 158.52ZM426.149 158.34C426.149 156.54 427.209 155.3 428.749 155.3C430.589 155.3 431.349 156.96 431.349 158.56C431.349 160.38 430.289 161.66 428.769 161.66C426.969 161.66 426.149 160.02 426.149 158.34ZM435.548 163H437.528V157.14C438.148 156.54 439.428 155.44 440.428 155.44C441.108 155.44 441.508 155.92 441.508 157.2V163H443.488V156.48C443.488 154.54 442.508 153.72 441.088 153.72C439.428 153.72 438.128 154.82 437.488 155.52V153.8L435.548 154.12V163ZM451.478 160.54C451.478 162.4 452.498 163.24 454.058 163.24C455.658 163.24 456.838 162.28 456.838 162.28L456.338 160.78C456.098 160.92 455.258 161.58 454.498 161.58C453.838 161.58 453.458 161.14 453.458 160.04V155.46H456.318V153.96H453.458V151.4L451.518 151.82V153.88L450.138 154.38V155.46H451.478V160.54ZM458.516 163H460.496V157.4C460.876 156.8 461.696 155.72 462.696 155.72C463.096 155.72 463.496 155.88 463.496 155.88L463.896 153.88C463.896 153.88 463.616 153.72 463.116 153.72C461.736 153.72 460.816 155 460.456 155.62V153.8L458.516 154.12V163ZM464.749 160.92C464.749 162.26 465.769 163.24 467.349 163.24C469.109 163.24 470.029 162.12 470.269 161.74C470.529 162.46 471.109 163.04 472.489 163.14L473.089 161.58C473.089 161.58 472.089 161.56 472.089 160.44V156.62C472.089 154.6 471.409 153.72 469.269 153.72C466.889 153.72 465.349 154.86 465.349 154.86L465.869 156.34C465.869 156.34 467.249 155.3 468.729 155.3C470.189 155.3 470.109 156.3 470.109 157.44C466.729 157.88 464.749 159.02 464.749 160.92ZM467.849 161.68C467.269 161.68 466.789 161.42 466.789 160.78C466.789 159.72 467.809 159.06 470.109 158.72V160.28C469.509 160.98 468.769 161.68 467.849 161.68ZM474.46 158.6C474.46 161.22 476.28 163.24 479.1 163.24C481.26 163.24 482.3 162.08 482.3 162.08L481.66 160.68C481.66 160.68 480.68 161.62 479.24 161.62C477.54 161.62 476.52 160.28 476.52 158.5C476.52 156.66 477.62 155.32 479.26 155.32C480.58 155.32 481.52 156.16 481.52 156.16L482.3 154.68C482.3 154.68 481.2 153.72 479.22 153.72C476.24 153.72 474.46 156.1 474.46 158.6ZM484.298 163H486.278V158.72H486.558L490.158 163H492.698L488.298 157.92L492.418 153.96H489.838L486.558 157.26H486.278V148.7L484.298 149.02V163ZM498.226 160.92C498.226 162.26 499.246 163.24 500.826 163.24C502.586 163.24 503.506 162.12 503.746 161.74C504.006 162.46 504.586 163.04 505.966 163.14L506.566 161.58C506.566 161.58 505.566 161.56 505.566 160.44V156.62C505.566 154.6 504.886 153.72 502.746 153.72C500.366 153.72 498.826 154.86 498.826 154.86L499.346 156.34C499.346 156.34 500.726 155.3 502.206 155.3C503.666 155.3 503.586 156.3 503.586 157.44C500.206 157.88 498.226 159.02 498.226 160.92ZM501.326 161.68C500.746 161.68 500.266 161.42 500.266 160.78C500.266 159.72 501.286 159.06 503.586 158.72V160.28C502.986 160.98 502.246 161.68 501.326 161.68ZM507.656 155.46H509.076V163H511.056V155.46H513.556V153.96H511.056V152.88C511.056 150.76 512.016 150.02 513.076 150.02C514.056 150.02 514.936 150.66 514.936 150.66L515.716 149.14C515.716 149.14 514.676 148.38 513.096 148.38C510.736 148.38 509.076 150.04 509.076 153V153.88L507.656 154.4V155.46ZM515.853 160.54C515.853 162.4 516.873 163.24 518.433 163.24C520.033 163.24 521.213 162.28 521.213 162.28L520.713 160.78C520.473 160.92 519.633 161.58 518.873 161.58C518.213 161.58 517.833 161.14 517.833 160.04V155.46H520.693V153.96H517.833V151.4L515.893 151.82V153.88L514.513 154.38V155.46H515.853V160.54ZM522.331 158.62C522.331 161.04 523.871 163.24 526.891 163.24C529.151 163.24 530.531 161.94 530.531 161.94L529.971 160.5C529.971 160.5 528.711 161.62 527.191 161.62C525.611 161.62 524.611 160.56 524.391 158.92L529.331 158.26L530.471 157.94C530.471 155.2 528.911 153.72 526.751 153.72C524.111 153.72 522.331 155.86 522.331 158.62ZM526.611 155.26C528.191 155.26 528.311 157.1 528.311 157.1L524.391 157.6C524.571 156.28 525.331 155.26 526.611 155.26ZM532.696 163H534.676V157.4C535.056 156.8 535.876 155.72 536.876 155.72C537.276 155.72 537.676 155.88 537.676 155.88L538.076 153.88C538.076 153.88 537.796 153.72 537.296 153.72C535.916 153.72 534.996 155 534.636 155.62V153.8L532.696 154.12V163ZM347.64 187.92C347.64 189.26 348.66 190.24 350.24 190.24C352 190.24 352.92 189.12 353.16 188.74C353.42 189.46 354 190.04 355.38 190.14L355.98 188.58C355.98 188.58 354.98 188.56 354.98 187.44V183.62C354.98 181.6 354.3 180.72 352.16 180.72C349.78 180.72 348.24 181.86 348.24 181.86L348.76 183.34C348.76 183.34 350.14 182.3 351.62 182.3C353.08 182.3 353 183.3 353 184.44C349.62 184.88 347.64 186.02 347.64 187.92ZM350.74 188.68C350.16 188.68 349.68 188.42 349.68 187.78C349.68 186.72 350.7 186.06 353 185.72V187.28C352.4 187.98 351.66 188.68 350.74 188.68ZM362.735 190H364.715V184.4C365.095 183.8 365.915 182.72 366.915 182.72C367.315 182.72 367.715 182.88 367.715 182.88L368.115 180.88C368.115 180.88 367.835 180.72 367.335 180.72C365.955 180.72 365.035 182 364.675 182.62V180.8L362.735 181.12V190ZM368.972 185.62C368.972 188.04 370.512 190.24 373.532 190.24C375.792 190.24 377.172 188.94 377.172 188.94L376.612 187.5C376.612 187.5 375.352 188.62 373.832 188.62C372.252 188.62 371.252 187.56 371.032 185.92L375.972 185.26L377.112 184.94C377.112 182.2 375.552 180.72 373.392 180.72C370.752 180.72 368.972 182.86 368.972 185.62ZM373.252 182.26C374.832 182.26 374.952 184.1 374.952 184.1L371.032 184.6C371.212 183.28 371.972 182.26 373.252 182.26ZM379.377 190H381.357V175.7L379.377 176.02V190ZM383.421 187.92C383.421 189.26 384.441 190.24 386.021 190.24C387.781 190.24 388.701 189.12 388.941 188.74C389.201 189.46 389.781 190.04 391.161 190.14L391.761 188.58C391.761 188.58 390.761 188.56 390.761 187.44V183.62C390.761 181.6 390.081 180.72 387.941 180.72C385.561 180.72 384.021 181.86 384.021 181.86L384.541 183.34C384.541 183.34 385.921 182.3 387.401 182.3C388.861 182.3 388.781 183.3 388.781 184.44C385.401 184.88 383.421 186.02 383.421 187.92ZM386.521 188.68C385.941 188.68 385.461 188.42 385.461 187.78C385.461 186.72 386.481 186.06 388.781 185.72V187.28C388.181 187.98 387.441 188.68 386.521 188.68ZM393.712 194.66L395.692 194.34V189.76C396.072 190.04 396.752 190.24 397.592 190.24C400.472 190.24 402.152 187.88 402.152 185.2C402.152 182.74 400.712 180.72 398.332 180.72C396.912 180.72 396.052 181.46 395.632 182.24V180.8L393.712 181.12V194.66ZM397.992 182.36C399.212 182.36 400.072 183.46 400.072 185.34C400.072 187.5 398.932 188.68 397.232 188.68C396.292 188.68 395.692 188.34 395.692 187.66V183.82C395.952 183.44 396.792 182.36 397.992 182.36ZM403.717 189.44C403.717 189.44 404.837 190.24 406.717 190.24C408.937 190.24 410.237 189.14 410.237 187.5C410.237 184.62 405.897 184.76 405.897 183.18C405.897 182.66 406.337 182.28 407.337 182.28C408.497 182.28 409.537 182.84 409.537 182.84L409.997 181.22C409.997 181.22 408.997 180.72 407.417 180.72C404.917 180.72 403.917 181.94 403.917 183.34C403.917 186.18 408.257 186.06 408.257 187.68C408.257 188.26 407.757 188.68 406.697 188.68C405.237 188.68 404.137 187.76 404.137 187.76L403.717 189.44ZM411.804 185.62C411.804 188.04 413.344 190.24 416.364 190.24C418.624 190.24 420.004 188.94 420.004 188.94L419.444 187.5C419.444 187.5 418.184 188.62 416.664 188.62C415.084 188.62 414.084 187.56 413.864 185.92L418.804 185.26L419.944 184.94C419.944 182.2 418.384 180.72 416.224 180.72C413.584 180.72 411.804 182.86 411.804 185.62ZM416.084 182.26C417.664 182.26 417.784 184.1 417.784 184.1L413.864 184.6C414.044 183.28 414.804 182.26 416.084 182.26Z" fill="#333333"/>
<path d="M844.82 136H846.88V130.64H848.94L852.5 136H854.94L851.02 130.16C852.36 129.54 853.58 128.28 853.58 126.46C853.58 124.44 852.18 122.66 848.74 122.66H844.82V136ZM846.88 128.92V124.38H848.4C850.62 124.38 851.4 125.4 851.4 126.6C851.4 128.08 850.2 128.92 848.7 128.92H846.88ZM855.655 131.62C855.655 134.04 857.195 136.24 860.215 136.24C862.475 136.24 863.855 134.94 863.855 134.94L863.295 133.5C863.295 133.5 862.035 134.62 860.515 134.62C858.935 134.62 857.935 133.56 857.715 131.92L862.655 131.26L863.795 130.94C863.795 128.2 862.235 126.72 860.075 126.72C857.435 126.72 855.655 128.86 855.655 131.62ZM859.935 128.26C861.515 128.26 861.635 130.1 861.635 130.1L857.715 130.6C857.895 129.28 858.655 128.26 859.935 128.26ZM865.3 133.92C865.3 135.26 866.32 136.24 867.9 136.24C869.66 136.24 870.58 135.12 870.82 134.74C871.08 135.46 871.66 136.04 873.04 136.14L873.64 134.58C873.64 134.58 872.64 134.56 872.64 133.44V129.62C872.64 127.6 871.96 126.72 869.82 126.72C867.44 126.72 865.9 127.86 865.9 127.86L866.42 129.34C866.42 129.34 867.8 128.3 869.28 128.3C870.74 128.3 870.66 129.3 870.66 130.44C867.28 130.88 865.3 132.02 865.3 133.92ZM868.4 134.68C867.82 134.68 867.34 134.42 867.34 133.78C867.34 132.72 868.36 132.06 870.66 131.72V133.28C870.06 133.98 869.32 134.68 868.4 134.68ZM875.63 136H877.61V121.7L875.63 122.02V136ZM881.435 124.8C882.155 124.8 882.695 124.28 882.695 123.58C882.695 122.88 882.155 122.36 881.435 122.36C880.735 122.36 880.195 122.88 880.195 123.58C880.195 124.28 880.735 124.8 881.435 124.8ZM880.435 136H882.415V126.96H880.435V136ZM884.62 136H891.88V134.4H887.12L891.72 128.16V126.96H884.78V128.56H889.12L884.62 134.8V136ZM893.37 131.62C893.37 134.04 894.91 136.24 897.93 136.24C900.19 136.24 901.57 134.94 901.57 134.94L901.01 133.5C901.01 133.5 899.75 134.62 898.23 134.62C896.65 134.62 895.65 133.56 895.43 131.92L900.37 131.26L901.51 130.94C901.51 128.2 899.95 126.72 897.79 126.72C895.15 126.72 893.37 128.86 893.37 131.62ZM897.65 128.26C899.23 128.26 899.35 130.1 899.35 130.1L895.43 130.6C895.61 129.28 896.37 128.26 897.65 128.26ZM909.06 133.54C909.06 135.4 910.08 136.24 911.64 136.24C913.24 136.24 914.42 135.28 914.42 135.28L913.92 133.78C913.68 133.92 912.84 134.58 912.08 134.58C911.42 134.58 911.04 134.14 911.04 133.04V128.46H913.9V126.96H911.04V124.4L909.1 124.82V126.88L907.72 127.38V128.46H909.06V133.54ZM916.138 136H918.118V130.18C918.718 129.58 920.018 128.44 921.018 128.44C921.698 128.44 922.098 128.92 922.098 130.2V136H924.078V129.48C924.078 127.54 923.098 126.72 921.658 126.72C919.998 126.72 918.718 127.84 918.118 128.48V121.7L916.138 122.02V136ZM926.023 133.92C926.023 135.26 927.043 136.24 928.623 136.24C930.383 136.24 931.303 135.12 931.543 134.74C931.803 135.46 932.383 136.04 933.763 136.14L934.363 134.58C934.363 134.58 933.363 134.56 933.363 133.44V129.62C933.363 127.6 932.683 126.72 930.543 126.72C928.163 126.72 926.623 127.86 926.623 127.86L927.143 129.34C927.143 129.34 928.523 128.3 930.003 128.3C931.463 128.3 931.383 129.3 931.383 130.44C928.003 130.88 926.023 132.02 926.023 133.92ZM929.123 134.68C928.543 134.68 928.063 134.42 928.063 133.78C928.063 132.72 929.083 132.06 931.383 131.72V133.28C930.783 133.98 930.043 134.68 929.123 134.68ZM936.755 133.54C936.755 135.4 937.775 136.24 939.335 136.24C940.935 136.24 942.115 135.28 942.115 135.28L941.615 133.78C941.375 133.92 940.535 134.58 939.775 134.58C939.115 134.58 938.735 134.14 938.735 133.04V128.46H941.595V126.96H938.735V124.4L936.795 124.82V126.88L935.415 127.38V128.46H936.755V133.54ZM949.058 136H951.118V122.66H949.058V136ZM958.546 131.6C958.546 134.22 960.366 136.24 963.186 136.24C965.346 136.24 966.386 135.08 966.386 135.08L965.746 133.68C965.746 133.68 964.766 134.62 963.326 134.62C961.626 134.62 960.606 133.28 960.606 131.5C960.606 129.66 961.706 128.32 963.346 128.32C964.666 128.32 965.606 129.16 965.606 129.16L966.386 127.68C966.386 127.68 965.286 126.72 963.306 126.72C960.326 126.72 958.546 129.1 958.546 131.6ZM967.624 133.92C967.624 135.26 968.644 136.24 970.224 136.24C971.984 136.24 972.904 135.12 973.144 134.74C973.404 135.46 973.984 136.04 975.364 136.14L975.964 134.58C975.964 134.58 974.964 134.56 974.964 133.44V129.62C974.964 127.6 974.284 126.72 972.144 126.72C969.764 126.72 968.224 127.86 968.224 127.86L968.744 129.34C968.744 129.34 970.124 128.3 971.604 128.3C973.064 128.3 972.984 129.3 972.984 130.44C969.604 130.88 967.624 132.02 967.624 133.92ZM970.724 134.68C970.144 134.68 969.664 134.42 969.664 133.78C969.664 132.72 970.684 132.06 972.984 131.72V133.28C972.384 133.98 971.644 134.68 970.724 134.68ZM977.915 136H979.895V130.14C980.515 129.54 981.795 128.44 982.795 128.44C983.475 128.44 983.875 128.92 983.875 130.2V136H985.855V129.48C985.855 127.54 984.875 126.72 983.455 126.72C981.795 126.72 980.495 127.82 979.855 128.52V126.8L977.915 127.12V136ZM993.365 136H995.345V121.7L993.365 122.02V136ZM999.17 124.8C999.89 124.8 1000.43 124.28 1000.43 123.58C1000.43 122.88 999.89 122.36 999.17 122.36C998.47 122.36 997.93 122.88 997.93 123.58C997.93 124.28 998.47 124.8 999.17 124.8ZM998.17 136H1000.15V126.96H998.17V136ZM1005.11 136.08H1006.95L1010.67 126.96H1008.65L1006.11 133.52L1003.91 126.96H1001.83L1005.11 136.08ZM1011.59 131.62C1011.59 134.04 1013.13 136.24 1016.15 136.24C1018.41 136.24 1019.79 134.94 1019.79 134.94L1019.23 133.5C1019.23 133.5 1017.97 134.62 1016.45 134.62C1014.87 134.62 1013.87 133.56 1013.65 131.92L1018.59 131.26L1019.73 130.94C1019.73 128.2 1018.17 126.72 1016.01 126.72C1013.37 126.72 1011.59 128.86 1011.59 131.62ZM1015.87 128.26C1017.45 128.26 1017.57 130.1 1017.57 130.1L1013.65 130.6C1013.83 129.28 1014.59 128.26 1015.87 128.26ZM1026.04 133.92C1026.04 135.26 1027.06 136.24 1028.64 136.24C1030.4 136.24 1031.32 135.12 1031.56 134.74C1031.82 135.46 1032.4 136.04 1033.78 136.14L1034.38 134.58C1034.38 134.58 1033.38 134.56 1033.38 133.44V129.62C1033.38 127.6 1032.7 126.72 1030.56 126.72C1028.18 126.72 1026.64 127.86 1026.64 127.86L1027.16 129.34C1027.16 129.34 1028.54 128.3 1030.02 128.3C1031.48 128.3 1031.4 129.3 1031.4 130.44C1028.02 130.88 1026.04 132.02 1026.04 133.92ZM1029.14 134.68C1028.56 134.68 1028.08 134.42 1028.08 133.78C1028.08 132.72 1029.1 132.06 1031.4 131.72V133.28C1030.8 133.98 1030.06 134.68 1029.14 134.68ZM843.5 155.46H844.92V163H846.9V155.46H849.4V153.96H846.9V152.88C846.9 150.76 847.86 150.02 848.92 150.02C849.9 150.02 850.78 150.66 850.78 150.66L851.56 149.14C851.56 149.14 850.52 148.38 848.94 148.38C846.58 148.38 844.92 150.04 844.92 153V153.88L843.5 154.4V155.46ZM851.116 160.52C851.116 162.46 852.116 163.24 853.576 163.24C855.236 163.24 856.496 162.18 857.076 161.56C857.176 162.22 857.376 163.16 857.376 163.16L859.296 162.98C859.296 162.98 858.896 161.32 858.896 160.22V153.96H856.916V160.04C856.356 160.56 855.236 161.52 854.216 161.52C853.476 161.52 853.096 161.02 853.096 159.76V153.96H851.116V160.52ZM861.763 163H863.743V148.7L861.763 149.02V163ZM866.568 163H868.548V148.7L866.568 149.02V163ZM876.177 163H878.157V148.7L876.177 149.02V163ZM881.982 151.8C882.702 151.8 883.242 151.28 883.242 150.58C883.242 149.88 882.702 149.36 881.982 149.36C881.282 149.36 880.742 149.88 880.742 150.58C880.742 151.28 881.282 151.8 881.982 151.8ZM880.982 163H882.962V153.96H880.982V163ZM884.887 155.46H886.307V163H888.287V155.46H890.787V153.96H888.287V152.88C888.287 150.76 889.247 150.02 890.307 150.02C891.287 150.02 892.167 150.66 892.167 150.66L892.947 149.14C892.947 149.14 891.907 148.38 890.327 148.38C887.967 148.38 886.307 150.04 886.307 153V153.88L884.887 154.4V155.46ZM891.866 158.62C891.866 161.04 893.406 163.24 896.426 163.24C898.686 163.24 900.066 161.94 900.066 161.94L899.506 160.5C899.506 160.5 898.246 161.62 896.726 161.62C895.146 161.62 894.146 160.56 893.926 158.92L898.866 158.26L900.006 157.94C900.006 155.2 898.446 153.72 896.286 153.72C893.646 153.72 891.866 155.86 891.866 158.62ZM896.146 155.26C897.726 155.26 897.846 157.1 897.846 157.1L893.926 157.6C894.106 156.28 894.866 155.26 896.146 155.26ZM906.476 158.62C906.476 161.04 908.016 163.24 911.036 163.24C913.296 163.24 914.676 161.94 914.676 161.94L914.116 160.5C914.116 160.5 912.856 161.62 911.336 161.62C909.756 161.62 908.756 160.56 908.536 158.92L913.476 158.26L914.616 157.94C914.616 155.2 913.056 153.72 910.896 153.72C908.256 153.72 906.476 155.86 906.476 158.62ZM910.756 155.26C912.336 155.26 912.456 157.1 912.456 157.1L908.536 157.6C908.716 156.28 909.476 155.26 910.756 155.26ZM919.02 163.08H920.86L924.58 153.96H922.56L920.02 160.52L917.82 153.96H915.74L919.02 163.08ZM925.499 158.62C925.499 161.04 927.039 163.24 930.059 163.24C932.319 163.24 933.699 161.94 933.699 161.94L933.139 160.5C933.139 160.5 931.879 161.62 930.359 161.62C928.779 161.62 927.779 160.56 927.559 158.92L932.499 158.26L933.639 157.94C933.639 155.2 932.079 153.72 929.919 153.72C927.279 153.72 925.499 155.86 925.499 158.62ZM929.779 155.26C931.359 155.26 931.479 157.1 931.479 157.1L927.559 157.6C927.739 156.28 928.499 155.26 929.779 155.26ZM935.864 163H937.844V157.14C938.464 156.54 939.744 155.44 940.744 155.44C941.424 155.44 941.824 155.92 941.824 157.2V163H943.804V156.48C943.804 154.54 942.824 153.72 941.404 153.72C939.744 153.72 938.444 154.82 937.804 155.52V153.8L935.864 154.12V163ZM953.174 163.08H955.094L957.414 156.64L959.494 163.08H961.434L964.674 153.96H962.654L960.474 160.76L958.354 153.96H956.634L954.294 160.8L952.314 153.96H950.274L953.174 163.08ZM967.373 151.8C968.093 151.8 968.633 151.28 968.633 150.58C968.633 149.88 968.093 149.36 967.373 149.36C966.673 149.36 966.133 149.88 966.133 150.58C966.133 151.28 966.673 151.8 967.373 151.8ZM966.373 163H968.353V153.96H966.373V163ZM971.657 160.54C971.657 162.4 972.677 163.24 974.237 163.24C975.837 163.24 977.017 162.28 977.017 162.28L976.517 160.78C976.277 160.92 975.437 161.58 974.677 161.58C974.017 161.58 973.637 161.14 973.637 160.04V155.46H976.497V153.96H973.637V151.4L971.697 151.82V153.88L970.317 154.38V155.46H971.657V160.54ZM978.736 163H980.716V157.18C981.316 156.58 982.616 155.44 983.616 155.44C984.296 155.44 984.696 155.92 984.696 157.2V163H986.676V156.48C986.676 154.54 985.696 153.72 984.256 153.72C982.596 153.72 981.316 154.84 980.716 155.48V148.7L978.736 149.02V163ZM993.425 160.92C993.425 162.26 994.445 163.24 996.025 163.24C997.785 163.24 998.705 162.12 998.945 161.74C999.205 162.46 999.785 163.04 1001.17 163.14L1001.77 161.58C1001.77 161.58 1000.77 161.56 1000.77 160.44V156.62C1000.77 154.6 1000.09 153.72 997.945 153.72C995.565 153.72 994.025 154.86 994.025 154.86L994.545 156.34C994.545 156.34 995.925 155.3 997.405 155.3C998.865 155.3 998.785 156.3 998.785 157.44C995.405 157.88 993.425 159.02 993.425 160.92ZM996.525 161.68C995.945 161.68 995.465 161.42 995.465 160.78C995.465 159.72 996.485 159.06 998.785 158.72V160.28C998.185 160.98 997.445 161.68 996.525 161.68ZM843.78 185.6C843.78 188.22 845.6 190.24 848.42 190.24C850.58 190.24 851.62 189.08 851.62 189.08L850.98 187.68C850.98 187.68 850 188.62 848.56 188.62C846.86 188.62 845.84 187.28 845.84 185.5C845.84 183.66 846.94 182.32 848.58 182.32C849.9 182.32 850.84 183.16 850.84 183.16L851.62 181.68C851.62 181.68 850.52 180.72 848.54 180.72C845.56 180.72 843.78 183.1 843.78 185.6ZM853.619 190H855.599V184.18C856.199 183.58 857.499 182.44 858.499 182.44C859.179 182.44 859.579 182.92 859.579 184.2V190H861.559V183.48C861.559 181.54 860.579 180.72 859.139 180.72C857.479 180.72 856.199 181.84 855.599 182.48V175.7L853.619 176.02V190ZM864.223 190H866.203V184.4C866.583 183.8 867.403 182.72 868.403 182.72C868.803 182.72 869.203 182.88 869.203 182.88L869.603 180.88C869.603 180.88 869.323 180.72 868.823 180.72C867.443 180.72 866.523 182 866.163 182.62V180.8L864.223 181.12V190ZM870.44 185.52C870.44 187.92 872.06 190.24 875.06 190.24C878.32 190.24 879.76 187.5 879.76 185.3C879.76 182.98 878.14 180.72 875.14 180.72C871.9 180.72 870.44 183.26 870.44 185.52ZM872.5 185.34C872.5 183.54 873.56 182.3 875.1 182.3C876.94 182.3 877.7 183.96 877.7 185.56C877.7 187.38 876.64 188.66 875.12 188.66C873.32 188.66 872.5 187.02 872.5 185.34ZM881.899 190H883.879V184.14C884.499 183.54 885.779 182.44 886.779 182.44C887.459 182.44 887.859 182.92 887.859 184.2V190H889.839V183.48C889.839 181.54 888.859 180.72 887.439 180.72C885.779 180.72 884.479 181.82 883.839 182.52V180.8L881.899 181.12V190ZM893.545 178.8C894.265 178.8 894.805 178.28 894.805 177.58C894.805 176.88 894.265 176.36 893.545 176.36C892.845 176.36 892.305 176.88 892.305 177.58C892.305 178.28 892.845 178.8 893.545 178.8ZM892.545 190H894.525V180.96H892.545V190ZM896.729 185.6C896.729 188.22 898.549 190.24 901.369 190.24C903.529 190.24 904.569 189.08 904.569 189.08L903.929 187.68C903.929 187.68 902.949 188.62 901.509 188.62C899.809 188.62 898.789 187.28 898.789 185.5C898.789 183.66 899.889 182.32 901.529 182.32C902.849 182.32 903.789 183.16 903.789 183.16L904.569 181.68C904.569 181.68 903.469 180.72 901.489 180.72C898.509 180.72 896.729 183.1 896.729 185.6ZM912.373 178.8C913.093 178.8 913.633 178.28 913.633 177.58C913.633 176.88 913.093 176.36 912.373 176.36C911.673 176.36 911.133 176.88 911.133 177.58C911.133 178.28 911.673 178.8 912.373 178.8ZM911.373 190H913.353V180.96H911.373V190ZM916.177 190H918.157V175.7L916.177 176.02V190ZM920.982 190H922.962V175.7L920.982 176.02V190ZM925.747 190H927.727V184.14C928.347 183.54 929.627 182.44 930.627 182.44C931.307 182.44 931.707 182.92 931.707 184.2V190H933.687V183.48C933.687 181.54 932.707 180.72 931.287 180.72C929.627 180.72 928.327 181.82 927.687 182.52V180.8L925.747 181.12V190ZM935.792 185.62C935.792 188.04 937.332 190.24 940.352 190.24C942.612 190.24 943.992 188.94 943.992 188.94L943.432 187.5C943.432 187.5 942.172 188.62 940.652 188.62C939.072 188.62 938.072 187.56 937.852 185.92L942.792 185.26L943.932 184.94C943.932 182.2 942.372 180.72 940.212 180.72C937.572 180.72 935.792 182.86 935.792 185.62ZM940.072 182.26C941.652 182.26 941.772 184.1 941.772 184.1L937.852 184.6C938.032 183.28 938.792 182.26 940.072 182.26ZM945.557 189.44C945.557 189.44 946.677 190.24 948.557 190.24C950.777 190.24 952.077 189.14 952.077 187.5C952.077 184.62 947.737 184.76 947.737 183.18C947.737 182.66 948.177 182.28 949.177 182.28C950.337 182.28 951.377 182.84 951.377 182.84L951.837 181.22C951.837 181.22 950.837 180.72 949.257 180.72C946.757 180.72 945.757 181.94 945.757 183.34C945.757 186.18 950.097 186.06 950.097 187.68C950.097 188.26 949.597 188.68 948.537 188.68C947.077 188.68 945.977 187.76 945.977 187.76L945.557 189.44ZM953.604 189.44C953.604 189.44 954.724 190.24 956.604 190.24C958.824 190.24 960.124 189.14 960.124 187.5C960.124 184.62 955.784 184.76 955.784 183.18C955.784 182.66 956.224 182.28 957.224 182.28C958.384 182.28 959.424 182.84 959.424 182.84L959.884 181.22C959.884 181.22 958.884 180.72 957.304 180.72C954.804 180.72 953.804 181.94 953.804 183.34C953.804 186.18 958.144 186.06 958.144 187.68C958.144 188.26 957.644 188.68 956.584 188.68C955.124 188.68 954.024 187.76 954.024 187.76L953.604 189.44ZM961.991 188.9C961.991 189.64 962.591 190.24 963.331 190.24C964.071 190.24 964.691 189.64 964.691 188.9C964.691 188.14 964.071 187.54 963.331 187.54C962.591 187.54 961.991 188.14 961.991 188.9Z" fill="#333333"/>
<path d="M113 422.256V217.031H322.5V422.256" stroke="#BDBDBD" stroke-width="4"/>
<rect x="121.551" y="227.721" width="41.6862" height="160.332" fill="#EFE8DF"/>
<rect x="172" y="228" width="41" height="128" fill="#EFE8DF"/>
<rect x="272.262" y="227.721" width="41.6862" height="143.23" fill="#EFE8DF"/>
<rect x="222.027" y="227.721" width="41.6862" height="166.745" fill="#EFE8DF"/>
<path d="M123.82 136H128.42C131.1 136 132.98 134.48 132.98 132.12C132.98 130 131.44 129.12 130.66 128.8C131.36 128.26 132.26 127.28 132.26 125.86C132.26 124.32 131.18 122.66 127.74 122.66H123.82V136ZM125.88 134.28V130.02H128.12C129.98 130.02 130.8 130.92 130.8 132.16C130.8 133.42 129.98 134.28 128.12 134.28H125.88ZM125.88 124.38H127.44C129.52 124.38 130.08 125.2 130.08 126.2C130.08 127.64 128.8 128.32 128.8 128.32H125.88V124.38ZM134.675 131.62C134.675 134.04 136.215 136.24 139.235 136.24C141.495 136.24 142.875 134.94 142.875 134.94L142.315 133.5C142.315 133.5 141.055 134.62 139.535 134.62C137.955 134.62 136.955 133.56 136.735 131.92L141.675 131.26L142.815 130.94C142.815 128.2 141.255 126.72 139.095 126.72C136.455 126.72 134.675 128.86 134.675 131.62ZM138.955 128.26C140.535 128.26 140.655 130.1 140.655 130.1L136.735 130.6C136.915 129.28 137.675 128.26 138.955 128.26ZM145.08 136H147.06V121.7L145.08 122.02V136ZM150.884 124.8C151.604 124.8 152.144 124.28 152.144 123.58C152.144 122.88 151.604 122.36 150.884 122.36C150.184 122.36 149.644 122.88 149.644 123.58C149.644 124.28 150.184 124.8 150.884 124.8ZM149.884 136H151.864V126.96H149.884V136ZM154.089 131.62C154.089 134.04 155.629 136.24 158.649 136.24C160.909 136.24 162.289 134.94 162.289 134.94L161.729 133.5C161.729 133.5 160.469 134.62 158.949 134.62C157.369 134.62 156.369 133.56 156.149 131.92L161.089 131.26L162.229 130.94C162.229 128.2 160.669 126.72 158.509 126.72C155.869 126.72 154.089 128.86 154.089 131.62ZM158.369 128.26C159.949 128.26 160.069 130.1 160.069 130.1L156.149 130.6C156.329 129.28 157.089 128.26 158.369 128.26ZM166.634 136.08H168.474L172.194 126.96H170.174L167.634 133.52L165.434 126.96H163.354L166.634 136.08ZM173.113 131.62C173.113 134.04 174.653 136.24 177.673 136.24C179.933 136.24 181.313 134.94 181.313 134.94L180.753 133.5C180.753 133.5 179.493 134.62 177.973 134.62C176.393 134.62 175.393 133.56 175.173 131.92L180.113 131.26L181.253 130.94C181.253 128.2 179.693 126.72 177.533 126.72C174.893 126.72 173.113 128.86 173.113 131.62ZM177.393 128.26C178.973 128.26 179.093 130.1 179.093 130.1L175.173 130.6C175.353 129.28 176.113 128.26 177.393 128.26ZM188.802 133.54C188.802 135.4 189.822 136.24 191.382 136.24C192.982 136.24 194.162 135.28 194.162 135.28L193.662 133.78C193.422 133.92 192.582 134.58 191.822 134.58C191.162 134.58 190.782 134.14 190.782 133.04V128.46H193.642V126.96H190.782V124.4L188.842 124.82V126.88L187.462 127.38V128.46H188.802V133.54ZM195.88 136H197.86V130.18C198.46 129.58 199.76 128.44 200.76 128.44C201.44 128.44 201.84 128.92 201.84 130.2V136H203.82V129.48C203.82 127.54 202.84 126.72 201.4 126.72C199.74 126.72 198.46 127.84 197.86 128.48V121.7L195.88 122.02V136ZM205.765 133.92C205.765 135.26 206.785 136.24 208.365 136.24C210.125 136.24 211.045 135.12 211.285 134.74C211.545 135.46 212.125 136.04 213.505 136.14L214.105 134.58C214.105 134.58 213.105 134.56 213.105 133.44V129.62C213.105 127.6 212.425 126.72 210.285 126.72C207.905 126.72 206.365 127.86 206.365 127.86L206.885 129.34C206.885 129.34 208.265 128.3 209.745 128.3C211.205 128.3 211.125 129.3 211.125 130.44C207.745 130.88 205.765 132.02 205.765 133.92ZM208.865 134.68C208.285 134.68 207.805 134.42 207.805 133.78C207.805 132.72 208.825 132.06 211.125 131.72V133.28C210.525 133.98 209.785 134.68 208.865 134.68ZM216.497 133.54C216.497 135.4 217.517 136.24 219.077 136.24C220.677 136.24 221.857 135.28 221.857 135.28L221.357 133.78C221.117 133.92 220.277 134.58 219.517 134.58C218.857 134.58 218.477 134.14 218.477 133.04V128.46H221.337V126.96H218.477V124.4L216.537 124.82V126.88L215.157 127.38V128.46H216.497V133.54ZM232.44 127.04L234.18 126.06C233.24 125.06 232.98 124.5 232.98 123.86C232.98 123.16 233.32 122.54 234.08 121.96L233.32 121.16C232.04 122.14 231.38 123.34 231.38 124.54C231.38 125.4 231.68 126.22 232.44 127.04ZM228.94 127.04L230.68 126.06C229.74 125.06 229.48 124.5 229.48 123.86C229.48 123.16 229.82 122.54 230.58 121.96L229.82 121.16C228.54 122.14 227.88 123.34 227.88 124.54C227.88 125.4 228.18 126.22 228.94 127.04ZM236.633 136H238.693V122.66H236.633V136ZM246.12 131.6C246.12 134.22 247.94 136.24 250.76 136.24C252.92 136.24 253.96 135.08 253.96 135.08L253.32 133.68C253.32 133.68 252.34 134.62 250.9 134.62C249.2 134.62 248.18 133.28 248.18 131.5C248.18 129.66 249.28 128.32 250.92 128.32C252.24 128.32 253.18 129.16 253.18 129.16L253.96 127.68C253.96 127.68 252.86 126.72 250.88 126.72C247.9 126.72 246.12 129.1 246.12 131.6ZM255.199 133.92C255.199 135.26 256.219 136.24 257.799 136.24C259.559 136.24 260.479 135.12 260.719 134.74C260.979 135.46 261.559 136.04 262.939 136.14L263.539 134.58C263.539 134.58 262.539 134.56 262.539 133.44V129.62C262.539 127.6 261.859 126.72 259.719 126.72C257.339 126.72 255.799 127.86 255.799 127.86L256.319 129.34C256.319 129.34 257.699 128.3 259.179 128.3C260.639 128.3 260.559 129.3 260.559 130.44C257.179 130.88 255.199 132.02 255.199 133.92ZM258.299 134.68C257.719 134.68 257.239 134.42 257.239 133.78C257.239 132.72 258.259 132.06 260.559 131.72V133.28C259.959 133.98 259.219 134.68 258.299 134.68ZM265.489 136H267.469V130.14C268.089 129.54 269.369 128.44 270.369 128.44C271.049 128.44 271.449 128.92 271.449 130.2V136H273.429V129.48C273.429 127.54 272.449 126.72 271.029 126.72C269.369 126.72 268.069 127.82 267.429 128.52V126.8L265.489 127.12V136ZM280.339 131.76C280.339 134.24 281.859 136.24 284.219 136.24C285.659 136.24 286.579 135.54 287.059 134.76C287.159 135.4 287.339 136.14 287.339 136.14L289.239 136C289.239 136 288.839 134.32 288.839 133.22V121.7L286.859 122.02V127.02C286.599 126.92 285.999 126.72 285.179 126.72C281.979 126.72 280.339 129.18 280.339 131.76ZM284.559 134.66C283.279 134.66 282.419 133.52 282.419 131.64C282.419 129.48 283.559 128.28 285.279 128.28C286.099 128.28 286.819 128.58 286.859 129.48V133.2C286.579 133.62 285.779 134.66 284.559 134.66ZM291.061 131.52C291.061 133.92 292.681 136.24 295.681 136.24C298.941 136.24 300.381 133.5 300.381 131.3C300.381 128.98 298.761 126.72 295.761 126.72C292.521 126.72 291.061 129.26 291.061 131.52ZM293.121 131.34C293.121 129.54 294.181 128.3 295.721 128.3C297.561 128.3 298.321 129.96 298.321 131.56C298.321 133.38 297.261 134.66 295.741 134.66C293.941 134.66 293.121 133.02 293.121 131.34ZM123.88 160.54C123.88 162.4 124.9 163.24 126.46 163.24C128.06 163.24 129.24 162.28 129.24 162.28L128.74 160.78C128.5 160.92 127.66 161.58 126.9 161.58C126.24 161.58 125.86 161.14 125.86 160.04V155.46H128.72V153.96H125.86V151.4L123.92 151.82V153.88L122.54 154.38V155.46H123.88V160.54ZM130.959 163H132.939V157.18C133.539 156.58 134.839 155.44 135.839 155.44C136.519 155.44 136.919 155.92 136.919 157.2V163H138.899V156.48C138.899 154.54 137.919 153.72 136.479 153.72C134.819 153.72 133.539 154.84 132.939 155.48V148.7L130.959 149.02V163ZM142.603 151.8C143.323 151.8 143.863 151.28 143.863 150.58C143.863 149.88 143.323 149.36 142.603 149.36C141.903 149.36 141.363 149.88 141.363 150.58C141.363 151.28 141.903 151.8 142.603 151.8ZM141.603 163H143.583V153.96H141.603V163ZM145.768 162.44C145.768 162.44 146.888 163.24 148.768 163.24C150.988 163.24 152.288 162.14 152.288 160.5C152.288 157.62 147.948 157.76 147.948 156.18C147.948 155.66 148.388 155.28 149.388 155.28C150.548 155.28 151.588 155.84 151.588 155.84L152.048 154.22C152.048 154.22 151.048 153.72 149.468 153.72C146.968 153.72 145.968 154.94 145.968 156.34C145.968 159.18 150.308 159.06 150.308 160.68C150.308 161.26 149.808 161.68 148.748 161.68C147.288 161.68 146.188 160.76 146.188 160.76L145.768 162.44ZM158.055 154.04C159.335 153.04 159.995 151.86 159.995 150.64C159.995 149.78 159.695 148.96 158.935 148.16L157.195 149.12C158.135 150.12 158.395 150.68 158.395 151.32C158.395 152.02 158.055 152.64 157.295 153.22L158.055 154.04ZM154.555 154.04C155.835 153.04 156.495 151.86 156.495 150.64C156.495 149.78 156.195 148.96 155.435 148.16L153.675 149.12C154.635 150.12 154.895 150.68 154.895 151.32C154.895 152.02 154.555 152.64 153.795 153.22L154.555 154.04ZM168.834 163.08H170.754L173.074 156.64L175.154 163.08H177.094L180.334 153.96H178.314L176.134 160.76L174.014 153.96H172.294L169.954 160.8L167.974 153.96H165.934L168.834 163.08ZM183.033 151.8C183.753 151.8 184.293 151.28 184.293 150.58C184.293 149.88 183.753 149.36 183.033 149.36C182.333 149.36 181.793 149.88 181.793 150.58C181.793 151.28 182.333 151.8 183.033 151.8ZM182.033 163H184.013V153.96H182.033V163ZM187.318 160.54C187.318 162.4 188.338 163.24 189.898 163.24C191.498 163.24 192.678 162.28 192.678 162.28L192.178 160.78C191.938 160.92 191.098 161.58 190.338 161.58C189.678 161.58 189.298 161.14 189.298 160.04V155.46H192.158V153.96H189.298V151.4L187.358 151.82V153.88L185.978 154.38V155.46H187.318V160.54ZM194.396 163H196.376V157.18C196.976 156.58 198.276 155.44 199.276 155.44C199.956 155.44 200.356 155.92 200.356 157.2V163H202.336V156.48C202.336 154.54 201.356 153.72 199.916 153.72C198.256 153.72 196.976 154.84 196.376 155.48V148.7L194.396 149.02V163ZM210.325 160.54C210.325 162.4 211.345 163.24 212.905 163.24C214.505 163.24 215.685 162.28 215.685 162.28L215.185 160.78C214.945 160.92 214.105 161.58 213.345 161.58C212.685 161.58 212.305 161.14 212.305 160.04V155.46H215.165V153.96H212.305V151.4L210.365 151.82V153.88L208.985 154.38V155.46H210.325V160.54ZM217.404 163H219.384V157.18C219.984 156.58 221.284 155.44 222.284 155.44C222.964 155.44 223.364 155.92 223.364 157.2V163H225.344V156.48C225.344 154.54 224.364 153.72 222.924 153.72C221.264 153.72 219.984 154.84 219.384 155.48V148.7L217.404 149.02V163ZM227.448 158.62C227.448 161.04 228.988 163.24 232.008 163.24C234.268 163.24 235.648 161.94 235.648 161.94L235.088 160.5C235.088 160.5 233.828 161.62 232.308 161.62C230.728 161.62 229.728 160.56 229.508 158.92L234.448 158.26L235.588 157.94C235.588 155.2 234.028 153.72 231.868 153.72C229.228 153.72 227.448 155.86 227.448 158.62ZM231.728 155.26C233.308 155.26 233.428 157.1 233.428 157.1L229.508 157.6C229.688 156.28 230.448 155.26 231.728 155.26ZM242.618 163H244.598V157.4C244.978 156.8 245.798 155.72 246.798 155.72C247.198 155.72 247.598 155.88 247.598 155.88L247.998 153.88C247.998 153.88 247.718 153.72 247.218 153.72C245.838 153.72 244.918 155 244.558 155.62V153.8L242.618 154.12V163ZM250.611 151.8C251.331 151.8 251.871 151.28 251.871 150.58C251.871 149.88 251.331 149.36 250.611 149.36C249.911 149.36 249.371 149.88 249.371 150.58C249.371 151.28 249.911 151.8 250.611 151.8ZM249.611 163H251.591V153.96H249.611V163ZM254.356 161.4C254.356 162.02 254.936 162.38 255.836 162.68C254.876 163.18 253.536 164.04 253.536 165.36C253.536 166.94 255.496 167.74 257.496 167.74C260.216 167.74 262.436 166.2 262.436 164.38C262.436 162.72 260.616 162.22 259.016 161.82C257.136 161.36 256.256 161.18 256.256 160.82C256.256 160.6 256.576 160.36 256.996 160.08C257.196 160.12 257.416 160.12 257.656 160.12C259.596 160.12 261.656 159.06 261.656 157.08C261.656 156.28 261.276 155.74 260.996 155.42C261.236 155.46 261.516 155.48 261.736 155.48H262.816L262.676 153.9C262.676 153.9 262.076 154.1 261.476 154.1H260.436C259.436 154.1 258.916 153.72 257.816 153.72C255.796 153.72 253.976 154.86 253.976 156.88C253.976 158.1 254.636 159.16 255.776 159.72C255.036 160.14 254.356 160.74 254.356 161.4ZM257.876 163.2C259.556 163.64 260.496 163.9 260.496 164.68C260.496 165.58 259.216 166.3 257.616 166.3C256.476 166.3 255.316 165.94 255.316 165.04C255.316 164.14 256.416 163.54 257.276 163.06C257.476 163.1 257.676 163.14 257.876 163.2ZM257.796 158.72C256.516 158.72 255.916 157.8 255.916 156.94C255.916 156 256.596 155.12 257.796 155.12C259.076 155.12 259.696 156.16 259.696 157.04C259.696 158.06 258.896 158.72 257.796 158.72ZM264.533 163H266.513V157.18C267.113 156.58 268.413 155.44 269.413 155.44C270.093 155.44 270.493 155.92 270.493 157.2V163H272.473V156.48C272.473 154.54 271.493 153.72 270.053 153.72C268.393 153.72 267.113 154.84 266.513 155.48V148.7L264.533 149.02V163ZM275.657 160.54C275.657 162.4 276.677 163.24 278.237 163.24C279.837 163.24 281.017 162.28 281.017 162.28L280.517 160.78C280.277 160.92 279.437 161.58 278.677 161.58C278.017 161.58 277.637 161.14 277.637 160.04V155.46H280.497V153.96H277.637V151.4L275.697 151.82V153.88L274.317 154.38V155.46H275.657V160.54ZM122.76 189.44C122.76 189.44 123.88 190.24 125.76 190.24C127.98 190.24 129.28 189.14 129.28 187.5C129.28 184.62 124.94 184.76 124.94 183.18C124.94 182.66 125.38 182.28 126.38 182.28C127.54 182.28 128.58 182.84 128.58 182.84L129.04 181.22C129.04 181.22 128.04 180.72 126.46 180.72C123.96 180.72 122.96 181.94 122.96 183.34C122.96 186.18 127.3 186.06 127.3 187.68C127.3 188.26 126.8 188.68 125.74 188.68C124.28 188.68 123.18 187.76 123.18 187.76L122.76 189.44ZM131.347 187.52C131.347 189.46 132.347 190.24 133.807 190.24C135.467 190.24 136.727 189.18 137.307 188.56C137.407 189.22 137.607 190.16 137.607 190.16L139.527 189.98C139.527 189.98 139.127 188.32 139.127 187.22V180.96H137.147V187.04C136.587 187.56 135.467 188.52 134.447 188.52C133.707 188.52 133.327 188.02 133.327 186.76V180.96H131.347V187.52ZM141.954 194.66L143.934 194.34V189.76C144.314 190.04 144.994 190.24 145.834 190.24C148.714 190.24 150.394 187.88 150.394 185.2C150.394 182.74 148.954 180.72 146.574 180.72C145.154 180.72 144.294 181.46 143.874 182.24V180.8L141.954 181.12V194.66ZM146.234 182.36C147.454 182.36 148.314 183.46 148.314 185.34C148.314 187.5 147.174 188.68 145.474 188.68C144.534 188.68 143.934 188.34 143.934 187.66V183.82C144.194 183.44 145.034 182.36 146.234 182.36ZM152.559 194.66L154.539 194.34V189.76C154.919 190.04 155.599 190.24 156.439 190.24C159.319 190.24 160.999 187.88 160.999 185.2C160.999 182.74 159.559 180.72 157.179 180.72C155.759 180.72 154.899 181.46 154.479 182.24V180.8L152.559 181.12V194.66ZM156.839 182.36C158.059 182.36 158.919 183.46 158.919 185.34C158.919 187.5 157.779 188.68 156.079 188.68C155.139 188.68 154.539 188.34 154.539 187.66V183.82C154.799 183.44 155.639 182.36 156.839 182.36ZM162.585 185.52C162.585 187.92 164.205 190.24 167.205 190.24C170.465 190.24 171.905 187.5 171.905 185.3C171.905 182.98 170.285 180.72 167.285 180.72C164.045 180.72 162.585 183.26 162.585 185.52ZM164.645 185.34C164.645 183.54 165.705 182.3 167.245 182.3C169.085 182.3 169.845 183.96 169.845 185.56C169.845 187.38 168.785 188.66 167.265 188.66C165.465 188.66 164.645 187.02 164.645 185.34ZM174.044 190H176.024V184.4C176.404 183.8 177.224 182.72 178.224 182.72C178.624 182.72 179.024 182.88 179.024 182.88L179.424 180.88C179.424 180.88 179.144 180.72 178.644 180.72C177.264 180.72 176.344 182 175.984 182.62V180.8L174.044 181.12V190ZM181.517 187.54C181.517 189.4 182.537 190.24 184.097 190.24C185.697 190.24 186.877 189.28 186.877 189.28L186.377 187.78C186.137 187.92 185.297 188.58 184.537 188.58C183.877 188.58 183.497 188.14 183.497 187.04V182.46H186.357V180.96H183.497V178.4L181.557 178.82V180.88L180.177 181.38V182.46H181.517V187.54ZM188.295 188.9C188.295 189.64 188.895 190.24 189.635 190.24C190.375 190.24 190.995 189.64 190.995 188.9C190.995 188.14 190.375 187.54 189.635 187.54C188.895 187.54 188.295 188.14 188.295 188.9Z" fill="#333333"/>
<path d="M622.96 136.1H624.94L629.72 122.66H627.62L624 133.04L620.38 122.66H618.2L622.96 136.1ZM629.968 133.92C629.968 135.26 630.988 136.24 632.568 136.24C634.328 136.24 635.248 135.12 635.488 134.74C635.748 135.46 636.328 136.04 637.708 136.14L638.308 134.58C638.308 134.58 637.308 134.56 637.308 133.44V129.62C637.308 127.6 636.628 126.72 634.488 126.72C632.108 126.72 630.568 127.86 630.568 127.86L631.088 129.34C631.088 129.34 632.468 128.3 633.948 128.3C635.408 128.3 635.328 129.3 635.328 130.44C631.948 130.88 629.968 132.02 629.968 133.92ZM633.068 134.68C632.488 134.68 632.008 134.42 632.008 133.78C632.008 132.72 633.028 132.06 635.328 131.72V133.28C634.728 133.98 633.988 134.68 633.068 134.68ZM640.298 136H642.278V121.7L640.298 122.02V136ZM645.003 133.52C645.003 135.46 646.003 136.24 647.463 136.24C649.123 136.24 650.383 135.18 650.963 134.56C651.063 135.22 651.263 136.16 651.263 136.16L653.183 135.98C653.183 135.98 652.783 134.32 652.783 133.22V126.96H650.803V133.04C650.243 133.56 649.123 134.52 648.103 134.52C647.363 134.52 646.983 134.02 646.983 132.76V126.96H645.003V133.52ZM655.05 131.62C655.05 134.04 656.59 136.24 659.61 136.24C661.87 136.24 663.25 134.94 663.25 134.94L662.69 133.5C662.69 133.5 661.43 134.62 659.91 134.62C658.33 134.62 657.33 133.56 657.11 131.92L662.05 131.26L663.19 130.94C663.19 128.2 661.63 126.72 659.47 126.72C656.83 126.72 655.05 128.86 655.05 131.62ZM659.33 128.26C660.91 128.26 661.03 130.1 661.03 130.1L657.11 130.6C657.29 129.28 658.05 128.26 659.33 128.26ZM670.219 136H672.199V130.12C672.779 129.54 674.019 128.44 674.999 128.44C675.659 128.44 676.019 128.92 676.019 130.2V136H677.999V130.08C678.679 129.42 679.799 128.44 680.719 128.44C681.379 128.44 681.759 128.92 681.759 130.2V136H683.719V129.48C683.719 127.54 682.779 126.72 681.379 126.72C679.799 126.72 678.559 127.78 677.899 128.5C677.619 127.26 676.799 126.72 675.659 126.72C674.059 126.72 672.779 127.82 672.159 128.5V126.8L670.219 127.12V136ZM685.351 139.16L685.971 140.74C688.091 140.5 689.411 138.6 690.191 136.68L694.111 126.96H692.071L689.731 133.16L687.351 126.96H685.251L688.751 135.54L688.271 136.62C687.731 137.88 686.671 138.94 685.351 139.16ZM695.088 135.44C695.088 135.44 696.208 136.24 698.088 136.24C700.308 136.24 701.608 135.14 701.608 133.5C701.608 130.62 697.268 130.76 697.268 129.18C697.268 128.66 697.708 128.28 698.708 128.28C699.868 128.28 700.908 128.84 700.908 128.84L701.368 127.22C701.368 127.22 700.368 126.72 698.788 126.72C696.288 126.72 695.288 127.94 695.288 129.34C695.288 132.18 699.628 132.06 699.628 133.68C699.628 134.26 699.128 134.68 698.068 134.68C696.608 134.68 695.508 133.76 695.508 133.76L695.088 135.44ZM703.175 131.62C703.175 134.04 704.715 136.24 707.735 136.24C709.995 136.24 711.375 134.94 711.375 134.94L710.815 133.5C710.815 133.5 709.555 134.62 708.035 134.62C706.455 134.62 705.455 133.56 705.235 131.92L710.175 131.26L711.315 130.94C711.315 128.2 709.755 126.72 707.595 126.72C704.955 126.72 703.175 128.86 703.175 131.62ZM707.455 128.26C709.035 128.26 709.155 130.1 709.155 130.1L705.235 130.6C705.415 129.28 706.175 128.26 707.455 128.26ZM713.58 136H715.56V121.7L713.58 122.02V136ZM717.484 128.46H718.904V136H720.884V128.46H723.384V126.96H720.884V125.88C720.884 123.76 721.844 123.02 722.904 123.02C723.884 123.02 724.764 123.66 724.764 123.66L725.544 122.14C725.544 122.14 724.504 121.38 722.924 121.38C720.564 121.38 718.904 123.04 718.904 126V126.88L717.484 127.4V128.46ZM729.405 131.62C729.405 134.04 730.945 136.24 733.965 136.24C736.225 136.24 737.605 134.94 737.605 134.94L737.045 133.5C737.045 133.5 735.785 134.62 734.265 134.62C732.685 134.62 731.685 133.56 731.465 131.92L736.405 131.26L737.545 130.94C737.545 128.2 735.985 126.72 733.825 126.72C731.185 126.72 729.405 128.86 729.405 131.62ZM733.685 128.26C735.265 128.26 735.385 130.1 735.385 130.1L731.465 130.6C731.645 129.28 732.405 128.26 733.685 128.26ZM739.77 136H741.75V130.14C742.37 129.54 743.65 128.44 744.65 128.44C745.33 128.44 745.73 128.92 745.73 130.2V136H747.71V129.48C747.71 127.54 746.73 126.72 745.31 126.72C743.65 126.72 742.35 127.82 741.71 128.52V126.8L739.77 127.12V136ZM749.796 131.52C749.796 133.92 751.416 136.24 754.416 136.24C757.676 136.24 759.116 133.5 759.116 131.3C759.116 128.98 757.496 126.72 754.496 126.72C751.256 126.72 749.796 129.26 749.796 131.52ZM751.856 131.34C751.856 129.54 752.916 128.3 754.456 128.3C756.296 128.3 757.056 129.96 757.056 131.56C757.056 133.38 755.996 134.66 754.476 134.66C752.676 134.66 751.856 133.02 751.856 131.34ZM761.195 133.52C761.195 135.46 762.195 136.24 763.655 136.24C765.315 136.24 766.575 135.18 767.155 134.56C767.255 135.22 767.455 136.16 767.455 136.16L769.375 135.98C769.375 135.98 768.975 134.32 768.975 133.22V126.96H766.995V133.04C766.435 133.56 765.315 134.52 764.295 134.52C763.555 134.52 763.175 134.02 763.175 132.76V126.96H761.195V133.52ZM771.781 134.4C771.781 135.02 772.361 135.38 773.261 135.68C772.301 136.18 770.961 137.04 770.961 138.36C770.961 139.94 772.921 140.74 774.921 140.74C777.641 140.74 779.861 139.2 779.861 137.38C779.861 135.72 778.041 135.22 776.441 134.82C774.561 134.36 773.681 134.18 773.681 133.82C773.681 133.6 774.001 133.36 774.421 133.08C774.621 133.12 774.841 133.12 775.081 133.12C777.021 133.12 779.081 132.06 779.081 130.08C779.081 129.28 778.701 128.74 778.421 128.42C778.661 128.46 778.941 128.48 779.161 128.48H780.241L780.101 126.9C780.101 126.9 779.501 127.1 778.901 127.1H777.861C776.861 127.1 776.341 126.72 775.241 126.72C773.221 126.72 771.401 127.86 771.401 129.88C771.401 131.1 772.061 132.16 773.201 132.72C772.461 133.14 771.781 133.74 771.781 134.4ZM775.301 136.2C776.981 136.64 777.921 136.9 777.921 137.68C777.921 138.58 776.641 139.3 775.041 139.3C773.901 139.3 772.741 138.94 772.741 138.04C772.741 137.14 773.841 136.54 774.701 136.06C774.901 136.1 775.101 136.14 775.301 136.2ZM775.221 131.72C773.941 131.72 773.341 130.8 773.341 129.94C773.341 129 774.021 128.12 775.221 128.12C776.501 128.12 777.121 129.16 777.121 130.04C777.121 131.06 776.321 131.72 775.221 131.72ZM781.959 136H783.939V130.18C784.539 129.58 785.839 128.44 786.839 128.44C787.519 128.44 787.919 128.92 787.919 130.2V136H789.899V129.48C789.899 127.54 788.919 126.72 787.479 126.72C785.819 126.72 784.539 127.84 783.939 128.48V121.7L781.959 122.02V136ZM797.888 133.54C797.888 135.4 798.908 136.24 800.468 136.24C802.068 136.24 803.248 135.28 803.248 135.28L802.748 133.78C802.508 133.92 801.668 134.58 800.908 134.58C800.248 134.58 799.868 134.14 799.868 133.04V128.46H802.728V126.96H799.868V124.4L797.928 124.82V126.88L796.548 127.38V128.46H797.888V133.54ZM804.346 131.52C804.346 133.92 805.966 136.24 808.966 136.24C812.226 136.24 813.666 133.5 813.666 131.3C813.666 128.98 812.046 126.72 809.046 126.72C805.806 126.72 804.346 129.26 804.346 131.52ZM806.406 131.34C806.406 129.54 807.466 128.3 809.006 128.3C810.846 128.3 811.606 129.96 811.606 131.56C811.606 133.38 810.546 134.66 809.026 134.66C807.226 134.66 806.406 133.02 806.406 131.34ZM619.88 160.54C619.88 162.4 620.9 163.24 622.46 163.24C624.06 163.24 625.24 162.28 625.24 162.28L624.74 160.78C624.5 160.92 623.66 161.58 622.9 161.58C622.24 161.58 621.86 161.14 621.86 160.04V155.46H624.72V153.96H621.86V151.4L619.92 151.82V153.88L618.54 154.38V155.46H619.88V160.54ZM626.199 160.92C626.199 162.26 627.219 163.24 628.799 163.24C630.559 163.24 631.479 162.12 631.719 161.74C631.979 162.46 632.559 163.04 633.939 163.14L634.539 161.58C634.539 161.58 633.539 161.56 633.539 160.44V156.62C633.539 154.6 632.859 153.72 630.719 153.72C628.339 153.72 626.799 154.86 626.799 154.86L627.319 156.34C627.319 156.34 628.699 155.3 630.179 155.3C631.639 155.3 631.559 156.3 631.559 157.44C628.179 157.88 626.199 159.02 626.199 160.92ZM629.299 161.68C628.719 161.68 628.239 161.42 628.239 160.78C628.239 159.72 629.259 159.06 631.559 158.72V160.28C630.959 160.98 630.219 161.68 629.299 161.68ZM636.529 163H638.509V158.72H638.789L642.389 163H644.929L640.529 157.92L644.649 153.96H642.069L638.789 157.26H638.509V148.7L636.529 149.02V163ZM645.421 158.62C645.421 161.04 646.961 163.24 649.981 163.24C652.241 163.24 653.621 161.94 653.621 161.94L653.061 160.5C653.061 160.5 651.801 161.62 650.281 161.62C648.701 161.62 647.701 160.56 647.481 158.92L652.421 158.26L653.561 157.94C653.561 155.2 652.001 153.72 649.841 153.72C647.201 153.72 645.421 155.86 645.421 158.62ZM649.701 155.26C651.281 155.26 651.401 157.1 651.401 157.1L647.481 157.6C647.661 156.28 648.421 155.26 649.701 155.26ZM660.01 158.6C660.01 161.22 661.83 163.24 664.65 163.24C666.81 163.24 667.85 162.08 667.85 162.08L667.21 160.68C667.21 160.68 666.23 161.62 664.79 161.62C663.09 161.62 662.07 160.28 662.07 158.5C662.07 156.66 663.17 155.32 664.81 155.32C666.13 155.32 667.07 156.16 667.07 156.16L667.85 154.68C667.85 154.68 666.75 153.72 664.77 153.72C661.79 153.72 660.01 156.1 660.01 158.6ZM669.073 158.52C669.073 160.92 670.693 163.24 673.693 163.24C676.953 163.24 678.393 160.5 678.393 158.3C678.393 155.98 676.773 153.72 673.773 153.72C670.533 153.72 669.073 156.26 669.073 158.52ZM671.133 158.34C671.133 156.54 672.193 155.3 673.733 155.3C675.573 155.3 676.333 156.96 676.333 158.56C676.333 160.38 675.273 161.66 673.753 161.66C671.953 161.66 671.133 160.02 671.133 158.34ZM680.532 163H682.512V157.14C683.132 156.54 684.412 155.44 685.412 155.44C686.092 155.44 686.492 155.92 686.492 157.2V163H688.472V156.48C688.472 154.54 687.492 153.72 686.072 153.72C684.412 153.72 683.112 154.82 682.472 155.52V153.8L680.532 154.12V163ZM690.537 162.44C690.537 162.44 691.657 163.24 693.537 163.24C695.757 163.24 697.057 162.14 697.057 160.5C697.057 157.62 692.717 157.76 692.717 156.18C692.717 155.66 693.157 155.28 694.157 155.28C695.317 155.28 696.357 155.84 696.357 155.84L696.817 154.22C696.817 154.22 695.817 153.72 694.237 153.72C691.737 153.72 690.737 154.94 690.737 156.34C690.737 159.18 695.077 159.06 695.077 160.68C695.077 161.26 694.577 161.68 693.517 161.68C692.057 161.68 690.957 160.76 690.957 160.76L690.537 162.44ZM700.224 151.8C700.944 151.8 701.484 151.28 701.484 150.58C701.484 149.88 700.944 149.36 700.224 149.36C699.524 149.36 698.984 149.88 698.984 150.58C698.984 151.28 699.524 151.8 700.224 151.8ZM699.224 163H701.204V153.96H699.224V163ZM703.389 162.44C703.389 162.44 704.509 163.24 706.389 163.24C708.609 163.24 709.909 162.14 709.909 160.5C709.909 157.62 705.569 157.76 705.569 156.18C705.569 155.66 706.009 155.28 707.009 155.28C708.169 155.28 709.209 155.84 709.209 155.84L709.669 154.22C709.669 154.22 708.669 153.72 707.089 153.72C704.589 153.72 703.589 154.94 703.589 156.34C703.589 159.18 707.929 159.06 707.929 160.68C707.929 161.26 707.429 161.68 706.369 161.68C704.909 161.68 703.809 160.76 703.809 160.76L703.389 162.44ZM712.556 160.54C712.556 162.4 713.576 163.24 715.136 163.24C716.736 163.24 717.916 162.28 717.916 162.28L717.416 160.78C717.176 160.92 716.336 161.58 715.576 161.58C714.916 161.58 714.536 161.14 714.536 160.04V155.46H717.396V153.96H714.536V151.4L712.596 151.82V153.88L711.216 154.38V155.46H712.556V160.54ZM719.034 158.62C719.034 161.04 720.574 163.24 723.594 163.24C725.854 163.24 727.234 161.94 727.234 161.94L726.674 160.5C726.674 160.5 725.414 161.62 723.894 161.62C722.314 161.62 721.314 160.56 721.094 158.92L726.034 158.26L727.174 157.94C727.174 155.2 725.614 153.72 723.454 153.72C720.814 153.72 719.034 155.86 719.034 158.62ZM723.314 155.26C724.894 155.26 725.014 157.1 725.014 157.1L721.094 157.6C721.274 156.28 722.034 155.26 723.314 155.26ZM729.399 163H731.379V157.14C731.999 156.54 733.279 155.44 734.279 155.44C734.959 155.44 735.359 155.92 735.359 157.2V163H737.339V156.48C737.339 154.54 736.359 153.72 734.939 153.72C733.279 153.72 731.979 154.82 731.339 155.52V153.8L729.399 154.12V163ZM740.525 160.54C740.525 162.4 741.545 163.24 743.105 163.24C744.705 163.24 745.885 162.28 745.885 162.28L745.385 160.78C745.145 160.92 744.305 161.58 743.545 161.58C742.885 161.58 742.505 161.14 742.505 160.04V155.46H745.365V153.96H742.505V151.4L740.565 151.82V153.88L739.185 154.38V155.46H740.525V160.54ZM751.648 160.92C751.648 162.26 752.668 163.24 754.248 163.24C756.008 163.24 756.928 162.12 757.168 161.74C757.428 162.46 758.008 163.04 759.388 163.14L759.988 161.58C759.988 161.58 758.988 161.56 758.988 160.44V156.62C758.988 154.6 758.308 153.72 756.168 153.72C753.788 153.72 752.248 154.86 752.248 154.86L752.768 156.34C752.768 156.34 754.148 155.3 755.628 155.3C757.088 155.3 757.008 156.3 757.008 157.44C753.628 157.88 751.648 159.02 751.648 160.92ZM754.748 161.68C754.168 161.68 753.688 161.42 753.688 160.78C753.688 159.72 754.708 159.06 757.008 158.72V160.28C756.408 160.98 755.668 161.68 754.748 161.68ZM761.358 158.6C761.358 161.22 763.178 163.24 765.998 163.24C768.158 163.24 769.198 162.08 769.198 162.08L768.558 160.68C768.558 160.68 767.578 161.62 766.138 161.62C764.438 161.62 763.418 160.28 763.418 158.5C763.418 156.66 764.518 155.32 766.158 155.32C767.478 155.32 768.418 156.16 768.418 156.16L769.198 154.68C769.198 154.68 768.098 153.72 766.118 153.72C763.138 153.72 761.358 156.1 761.358 158.6ZM771.677 160.54C771.677 162.4 772.697 163.24 774.257 163.24C775.857 163.24 777.037 162.28 777.037 162.28L776.537 160.78C776.297 160.92 775.457 161.58 774.697 161.58C774.037 161.58 773.657 161.14 773.657 160.04V155.46H776.517V153.96H773.657V151.4L771.717 151.82V153.88L770.337 154.38V155.46H771.677V160.54ZM779.755 151.8C780.475 151.8 781.015 151.28 781.015 150.58C781.015 149.88 780.475 149.36 779.755 149.36C779.055 149.36 778.515 149.88 778.515 150.58C778.515 151.28 779.055 151.8 779.755 151.8ZM778.755 163H780.735V153.96H778.755V163ZM782.94 158.52C782.94 160.92 784.56 163.24 787.56 163.24C790.82 163.24 792.26 160.5 792.26 158.3C792.26 155.98 790.64 153.72 787.64 153.72C784.4 153.72 782.94 156.26 782.94 158.52ZM785 158.34C785 156.54 786.06 155.3 787.6 155.3C789.44 155.3 790.2 156.96 790.2 158.56C790.2 160.38 789.14 161.66 787.62 161.66C785.82 161.66 785 160.02 785 158.34ZM794.399 163H796.379V157.14C796.999 156.54 798.279 155.44 799.279 155.44C799.959 155.44 800.359 155.92 800.359 157.2V163H802.339V156.48C802.339 154.54 801.359 153.72 799.939 153.72C798.279 153.72 796.979 154.82 796.339 155.52V153.8L794.399 154.12V163ZM804.405 162.44C804.405 162.44 805.525 163.24 807.405 163.24C809.625 163.24 810.925 162.14 810.925 160.5C810.925 157.62 806.585 157.76 806.585 156.18C806.585 155.66 807.025 155.28 808.025 155.28C809.185 155.28 810.225 155.84 810.225 155.84L810.685 154.22C810.685 154.22 809.685 153.72 808.105 153.72C805.605 153.72 804.605 154.94 804.605 156.34C804.605 159.18 808.945 159.06 808.945 160.68C808.945 161.26 808.445 161.68 807.385 161.68C805.925 161.68 804.825 160.76 804.825 160.76L804.405 162.44ZM619.88 187.54C619.88 189.4 620.9 190.24 622.46 190.24C624.06 190.24 625.24 189.28 625.24 189.28L624.74 187.78C624.5 187.92 623.66 188.58 622.9 188.58C622.24 188.58 621.86 188.14 621.86 187.04V182.46H624.72V180.96H621.86V178.4L619.92 178.82V180.88L618.54 181.38V182.46H619.88V187.54ZM626.339 185.52C626.339 187.92 627.959 190.24 630.959 190.24C634.219 190.24 635.659 187.5 635.659 185.3C635.659 182.98 634.039 180.72 631.039 180.72C627.799 180.72 626.339 183.26 626.339 185.52ZM628.399 185.34C628.399 183.54 629.459 182.3 630.999 182.3C632.839 182.3 633.599 183.96 633.599 185.56C633.599 187.38 632.539 188.66 631.019 188.66C629.219 188.66 628.399 187.02 628.399 185.34ZM642.602 189.8C643.282 189.96 644.822 190.24 645.902 190.24C649.322 190.24 650.962 187.8 650.962 185.16C650.962 182.68 649.522 180.72 647.022 180.72C645.782 180.72 645.042 181.22 644.582 181.74V175.7L642.602 176.02V189.8ZM646.702 182.32C648.022 182.32 648.922 183.42 648.922 185.3C648.922 187.54 647.662 188.74 645.942 188.74C645.202 188.74 644.582 188.54 644.582 188.54V183.26C645.002 182.88 645.762 182.32 646.702 182.32ZM652.589 185.62C652.589 188.04 654.129 190.24 657.149 190.24C659.409 190.24 660.789 188.94 660.789 188.94L660.229 187.5C660.229 187.5 658.969 188.62 657.449 188.62C655.869 188.62 654.869 187.56 654.649 185.92L659.589 185.26L660.729 184.94C660.729 182.2 659.169 180.72 657.009 180.72C654.369 180.72 652.589 182.86 652.589 185.62ZM656.869 182.26C658.449 182.26 658.569 184.1 658.569 184.1L654.649 184.6C654.829 183.28 655.589 182.26 656.869 182.26ZM663.474 187.54C663.474 189.4 664.494 190.24 666.054 190.24C667.654 190.24 668.834 189.28 668.834 189.28L668.334 187.78C668.094 187.92 667.254 188.58 666.494 188.58C665.834 188.58 665.454 188.14 665.454 187.04V182.46H668.314V180.96H665.454V178.4L663.514 178.82V180.88L662.134 181.38V182.46H663.474V187.54ZM671.032 187.54C671.032 189.4 672.052 190.24 673.612 190.24C675.212 190.24 676.392 189.28 676.392 189.28L675.892 187.78C675.652 187.92 674.812 188.58 674.052 188.58C673.392 188.58 673.012 188.14 673.012 187.04V182.46H675.872V180.96H673.012V178.4L671.072 178.82V180.88L669.692 181.38V182.46H671.032V187.54ZM677.511 185.62C677.511 188.04 679.051 190.24 682.071 190.24C684.331 190.24 685.711 188.94 685.711 188.94L685.151 187.5C685.151 187.5 683.891 188.62 682.371 188.62C680.791 188.62 679.791 187.56 679.571 185.92L684.511 185.26L685.651 184.94C685.651 182.2 684.091 180.72 681.931 180.72C679.291 180.72 677.511 182.86 677.511 185.62ZM681.791 182.26C683.371 182.26 683.491 184.1 683.491 184.1L679.571 184.6C679.751 183.28 680.511 182.26 681.791 182.26ZM687.876 190H689.856V184.4C690.236 183.8 691.056 182.72 692.056 182.72C692.456 182.72 692.856 182.88 692.856 182.88L693.256 180.88C693.256 180.88 692.976 180.72 692.476 180.72C691.096 180.72 690.176 182 689.816 182.62V180.8L687.876 181.12V190ZM699.633 190H701.613V184.12C702.193 183.54 703.433 182.44 704.413 182.44C705.073 182.44 705.433 182.92 705.433 184.2V190H707.413V184.08C708.093 183.42 709.213 182.44 710.133 182.44C710.793 182.44 711.173 182.92 711.173 184.2V190H713.133V183.48C713.133 181.54 712.193 180.72 710.793 180.72C709.213 180.72 707.973 181.78 707.313 182.5C707.033 181.26 706.213 180.72 705.073 180.72C703.473 180.72 702.193 181.82 701.573 182.5V180.8L699.633 181.12V190ZM714.765 193.16L715.385 194.74C717.505 194.5 718.825 192.6 719.605 190.68L723.525 180.96H721.485L719.145 187.16L716.765 180.96H714.665L718.165 189.54L717.685 190.62C717.145 191.88 716.085 192.94 714.765 193.16ZM729.947 190H731.927V184.18C732.527 183.58 733.827 182.44 734.827 182.44C735.507 182.44 735.907 182.92 735.907 184.2V190H737.887V183.48C737.887 181.54 736.907 180.72 735.467 180.72C733.807 180.72 732.527 181.84 731.927 182.48V175.7L729.947 176.02V190ZM739.991 185.62C739.991 188.04 741.531 190.24 744.551 190.24C746.811 190.24 748.191 188.94 748.191 188.94L747.631 187.5C747.631 187.5 746.371 188.62 744.851 188.62C743.271 188.62 742.271 187.56 742.051 185.92L746.991 185.26L748.131 184.94C748.131 182.2 746.571 180.72 744.411 180.72C741.771 180.72 739.991 182.86 739.991 185.62ZM744.271 182.26C745.851 182.26 745.971 184.1 745.971 184.1L742.051 184.6C742.231 183.28 742.991 182.26 744.271 182.26ZM749.636 187.92C749.636 189.26 750.656 190.24 752.236 190.24C753.996 190.24 754.916 189.12 755.156 188.74C755.416 189.46 755.996 190.04 757.376 190.14L757.976 188.58C757.976 188.58 756.976 188.56 756.976 187.44V183.62C756.976 181.6 756.296 180.72 754.156 180.72C751.776 180.72 750.236 181.86 750.236 181.86L750.756 183.34C750.756 183.34 752.136 182.3 753.616 182.3C755.076 182.3 754.996 183.3 754.996 184.44C751.616 184.88 749.636 186.02 749.636 187.92ZM752.736 188.68C752.156 188.68 751.676 188.42 751.676 187.78C751.676 186.72 752.696 186.06 754.996 185.72V187.28C754.396 187.98 753.656 188.68 752.736 188.68ZM759.966 190H761.946V175.7L759.966 176.02V190ZM765.251 187.54C765.251 189.4 766.271 190.24 767.831 190.24C769.431 190.24 770.611 189.28 770.611 189.28L770.111 187.78C769.871 187.92 769.031 188.58 768.271 188.58C767.611 188.58 767.231 188.14 767.231 187.04V182.46H770.091V180.96H767.231V178.4L765.291 178.82V180.88L763.911 181.38V182.46H765.251V187.54ZM772.33 190H774.31V184.18C774.91 183.58 776.21 182.44 777.21 182.44C777.89 182.44 778.29 182.92 778.29 184.2V190H780.27V183.48C780.27 181.54 779.29 180.72 777.85 180.72C776.19 180.72 774.91 181.84 774.31 182.48V175.7L772.33 176.02V190ZM782.674 188.9C782.674 189.64 783.274 190.24 784.014 190.24C784.754 190.24 785.374 189.64 785.374 188.9C785.374 188.14 784.754 187.54 784.014 187.54C783.274 187.54 782.674 188.14 782.674 188.9Z" fill="#333333"/>
<path d="M83 83V453H579V83" stroke="#BDBDBD" stroke-width="12"/>
<path d="M579 83V453H1075V83" stroke="#BDBDBD" stroke-width="12"/>
<path d="M168.167 515H174.919C179.207 515 182.215 512.568 182.215 508.792C182.215 505.272 179.591 503.96 178.375 503.544C179.495 502.68 180.967 501.08 180.967 498.776C180.967 496.312 179.239 493.656 173.735 493.656H168.167V515ZM170.791 512.792V505.112H174.439C177.895 505.112 179.399 506.712 179.399 508.984C179.399 511.256 177.863 512.792 174.439 512.792H170.791ZM170.791 495.864H173.255C177.095 495.864 178.151 497.272 178.151 499.032C178.151 501.656 175.751 502.904 175.751 502.904H170.791V495.864ZM185.896 511.064C185.896 514.168 187.432 515.384 189.8 515.384C192.52 515.384 194.632 513.528 195.496 512.6C195.624 513.624 195.976 515.224 195.976 515.224L198.44 515C198.44 515 197.8 512.312 197.8 510.552V500.6H195.304V510.488C194.344 511.448 192.296 513.176 190.44 513.176C189.288 513.176 188.392 512.568 188.392 510.36V500.6H185.896V511.064ZM203.993 496.952C204.953 496.952 205.721 496.184 205.721 495.224C205.721 494.264 204.953 493.496 203.993 493.496C203.033 493.496 202.265 494.264 202.265 495.224C202.265 496.184 203.033 496.952 203.993 496.952ZM202.713 515H205.209V500.6H202.713V515ZM210.088 515H212.584V492.152L210.088 492.6V515ZM216.471 508.28C216.471 512.248 218.903 515.384 222.647 515.384C224.951 515.384 226.519 514.2 227.319 512.92C227.479 513.912 227.767 515.224 227.767 515.224L230.231 515C230.231 515 229.591 512.312 229.591 510.552V492.152L227.095 492.6V500.728C226.711 500.568 225.751 500.216 224.311 500.216C219.159 500.216 216.471 504.12 216.471 508.28ZM222.967 513.208C220.791 513.208 219.127 511.32 219.127 508.12C219.127 504.44 221.271 502.328 224.343 502.328C225.719 502.328 227.031 502.776 227.095 504.376V510.584C226.711 511.192 225.239 513.208 222.967 513.208ZM242.213 515H244.709V505.464C245.669 504.568 248.101 502.424 249.957 502.424C251.045 502.424 251.909 503.096 251.909 505.24V515H254.405V504.536C254.405 501.432 252.773 500.216 250.629 500.216C247.877 500.216 245.637 502.168 244.709 503.16V492.152L242.213 492.6V515ZM258.096 507.864C258.096 511.672 260.688 515.384 265.135 515.384C269.968 515.384 272.336 511.032 272.336 507.512C272.336 503.8 269.744 500.216 265.264 500.216C260.496 500.216 258.096 504.28 258.096 507.864ZM260.72 507.576C260.72 504.472 262.48 502.392 265.2 502.392C268.432 502.392 269.712 505.176 269.712 507.928C269.712 511.032 267.952 513.208 265.232 513.208C262.096 513.208 260.72 510.392 260.72 507.576ZM276.118 522.424L278.614 521.976V514.488C279.19 514.936 280.31 515.384 281.846 515.384C286.262 515.384 289.078 511.736 289.078 507.384C289.078 503.416 286.742 500.216 282.966 500.216C280.694 500.216 279.222 501.4 278.55 502.616V500.376L276.118 500.824V522.424ZM282.646 502.456C284.822 502.456 286.422 504.344 286.422 507.576C286.422 511.16 284.438 513.272 281.334 513.272C279.702 513.272 278.614 512.696 278.614 511.384V504.92C278.966 504.408 280.438 502.456 282.646 502.456ZM291.971 508.12C291.971 511.896 294.339 515.384 299.107 515.384C302.563 515.384 304.643 513.304 304.643 513.304L303.907 511.384C303.907 511.384 301.859 513.208 299.395 513.208C296.579 513.208 294.851 511.192 294.627 508.216L303.107 507.096L304.643 506.648C304.643 502.52 302.211 500.216 298.883 500.216C294.787 500.216 291.971 503.608 291.971 508.12ZM298.723 502.296C301.603 502.296 301.891 505.368 301.891 505.368L294.659 506.296C295.011 504.056 296.419 502.296 298.723 502.296ZM317.525 496.952C318.485 496.952 319.253 496.184 319.253 495.224C319.253 494.264 318.485 493.496 317.525 493.496C316.565 493.496 315.797 494.264 315.797 495.224C315.797 496.184 316.565 496.952 317.525 496.952ZM316.245 515H318.741V500.6H316.245V515ZM323.556 515H326.052V505.496C326.98 504.6 329.444 502.424 331.332 502.424C332.42 502.424 333.284 503.096 333.284 505.24V515H335.78V504.536C335.78 501.432 334.148 500.216 332.004 500.216C329.22 500.216 326.98 502.232 326.052 503.192V500.376L323.556 500.824V515ZM348.822 511.192C348.822 514.136 350.294 515.384 352.566 515.384C354.966 515.384 356.726 513.912 356.726 513.912L356.118 511.896C356.118 511.896 354.582 513.208 353.078 513.208C351.99 513.208 351.318 512.44 351.318 510.52V502.616H355.99V500.6H351.318V496.632L348.822 497.24V500.44L346.774 501.272V502.616H348.822V511.192ZM359.776 515H362.272V505.464C363.232 504.568 365.664 502.424 367.52 502.424C368.608 502.424 369.472 503.096 369.472 505.24V515H371.968V504.536C371.968 501.432 370.336 500.216 368.192 500.216C365.44 500.216 363.2 502.168 362.272 503.16V492.152L359.776 492.6V515ZM375.69 508.12C375.69 511.896 378.058 515.384 382.826 515.384C386.282 515.384 388.362 513.304 388.362 513.304L387.626 511.384C387.626 511.384 385.578 513.208 383.114 513.208C380.298 513.208 378.57 511.192 378.346 508.216L386.826 507.096L388.362 506.648C388.362 502.52 385.93 500.216 382.602 500.216C378.506 500.216 375.69 503.608 375.69 508.12ZM382.442 502.296C385.322 502.296 385.61 505.368 385.61 505.368L378.378 506.296C378.73 504.056 380.138 502.296 382.442 502.296ZM399.899 522.424L402.395 521.976V514.488C402.971 514.936 404.091 515.384 405.627 515.384C410.043 515.384 412.859 511.736 412.859 507.384C412.859 503.416 410.523 500.216 406.747 500.216C404.475 500.216 403.003 501.4 402.331 502.616V500.376L399.899 500.824V522.424ZM406.427 502.456C408.603 502.456 410.203 504.344 410.203 507.576C410.203 511.16 408.219 513.272 405.115 513.272C403.483 513.272 402.395 512.696 402.395 511.384V504.92C402.747 504.408 404.219 502.456 406.427 502.456ZM416.681 515H419.177V505.88C419.753 504.888 421.097 502.936 422.76 502.936C423.337 502.936 423.977 503.192 423.977 503.192L424.617 500.504C424.617 500.504 424.169 500.216 423.369 500.216C421.193 500.216 419.721 502.264 419.177 503.224V500.376L416.681 500.824V515ZM426.19 508.12C426.19 511.896 428.558 515.384 433.326 515.384C436.782 515.384 438.862 513.304 438.862 513.304L438.126 511.384C438.126 511.384 436.078 513.208 433.614 513.208C430.798 513.208 429.07 511.192 428.846 508.216L437.326 507.096L438.862 506.648C438.862 502.52 436.43 500.216 433.102 500.216C429.006 500.216 426.19 503.608 426.19 508.12ZM432.942 502.296C435.822 502.296 436.11 505.368 436.11 505.368L428.878 506.296C429.23 504.056 430.638 502.296 432.942 502.296ZM441.688 514.104C441.688 514.104 443.384 515.384 446.296 515.384C449.56 515.384 451.576 513.784 451.576 511.224C451.576 506.456 444.504 506.936 444.504 503.992C444.504 503 445.304 502.296 447.032 502.296C448.824 502.296 450.552 503.128 450.552 503.128L451.224 501.016C451.224 501.016 449.656 500.216 447.224 500.216C443.544 500.216 441.976 502.008 441.976 504.184C441.976 508.792 449.048 508.344 449.048 511.416C449.048 512.536 448.152 513.304 446.36 513.304C444.056 513.304 442.232 511.896 442.232 511.896L441.688 514.104ZM454.346 508.12C454.346 511.896 456.714 515.384 461.482 515.384C464.938 515.384 467.018 513.304 467.018 513.304L466.282 511.384C466.282 511.384 464.234 513.208 461.77 513.208C458.954 513.208 457.226 511.192 457.002 508.216L465.482 507.096L467.018 506.648C467.018 502.52 464.586 500.216 461.258 500.216C457.162 500.216 454.346 503.608 454.346 508.12ZM461.098 502.296C463.978 502.296 464.266 505.368 464.266 505.368L457.034 506.296C457.386 504.056 458.794 502.296 461.098 502.296ZM470.868 515H473.364V505.496C474.292 504.6 476.756 502.424 478.644 502.424C479.732 502.424 480.596 503.096 480.596 505.24V515H483.092V504.536C483.092 501.432 481.46 500.216 479.316 500.216C476.532 500.216 474.292 502.232 473.364 503.192V500.376L470.868 500.824V515ZM488.447 511.192C488.447 514.136 489.919 515.384 492.191 515.384C494.591 515.384 496.351 513.912 496.351 513.912L495.743 511.896C495.743 511.896 494.207 513.208 492.703 513.208C491.615 513.208 490.943 512.44 490.943 510.52V502.616H495.615V500.6H490.943V496.632L488.447 497.24V500.44L486.399 501.272V502.616H488.447V511.192Z" fill="black"/>
<path d="M666.355 515H673.107C677.395 515 680.403 512.568 680.403 508.792C680.403 505.272 677.779 503.96 676.563 503.544C677.683 502.68 679.155 501.08 679.155 498.776C679.155 496.312 677.427 493.656 671.923 493.656H666.355V515ZM668.979 512.792V505.112H672.627C676.083 505.112 677.587 506.712 677.587 508.984C677.587 511.256 676.051 512.792 672.627 512.792H668.979ZM668.979 495.864H671.443C675.283 495.864 676.339 497.272 676.339 499.032C676.339 501.656 673.939 502.904 673.939 502.904H668.979V495.864ZM684.084 511.064C684.084 514.168 685.62 515.384 687.988 515.384C690.708 515.384 692.82 513.528 693.684 512.6C693.812 513.624 694.164 515.224 694.164 515.224L696.628 515C696.628 515 695.988 512.312 695.988 510.552V500.6H693.492V510.488C692.532 511.448 690.484 513.176 688.628 513.176C687.476 513.176 686.58 512.568 686.58 510.36V500.6H684.084V511.064ZM702.181 496.952C703.141 496.952 703.909 496.184 703.909 495.224C703.909 494.264 703.141 493.496 702.181 493.496C701.221 493.496 700.453 494.264 700.453 495.224C700.453 496.184 701.221 496.952 702.181 496.952ZM700.901 515H703.397V500.6H700.901V515ZM708.276 515H710.772V492.152L708.276 492.6V515ZM714.659 508.28C714.659 512.248 717.091 515.384 720.835 515.384C723.139 515.384 724.707 514.2 725.507 512.92C725.667 513.912 725.955 515.224 725.955 515.224L728.419 515C728.419 515 727.779 512.312 727.779 510.552V492.152L725.283 492.6V500.728C724.899 500.568 723.939 500.216 722.499 500.216C717.347 500.216 714.659 504.12 714.659 508.28ZM721.155 513.208C718.979 513.208 717.315 511.32 717.315 508.12C717.315 504.44 719.459 502.328 722.531 502.328C723.907 502.328 725.219 502.776 725.283 504.376V510.584C724.899 511.192 723.427 513.208 721.155 513.208ZM740.401 515H742.897V505.464C743.857 504.568 746.289 502.424 748.145 502.424C749.233 502.424 750.097 503.096 750.097 505.24V515H752.593V504.536C752.593 501.432 750.961 500.216 748.817 500.216C746.065 500.216 743.825 502.168 742.897 503.16V492.152L740.401 492.6V515ZM756.283 507.864C756.283 511.672 758.875 515.384 763.323 515.384C768.155 515.384 770.523 511.032 770.523 507.512C770.523 503.8 767.931 500.216 763.451 500.216C758.683 500.216 756.283 504.28 756.283 507.864ZM758.907 507.576C758.907 504.472 760.667 502.392 763.387 502.392C766.619 502.392 767.899 505.176 767.899 507.928C767.899 511.032 766.139 513.208 763.419 513.208C760.283 513.208 758.907 510.392 758.907 507.576ZM774.306 522.424L776.802 521.976V514.488C777.378 514.936 778.498 515.384 780.034 515.384C784.45 515.384 787.266 511.736 787.266 507.384C787.266 503.416 784.93 500.216 781.154 500.216C778.882 500.216 777.41 501.4 776.738 502.616V500.376L774.306 500.824V522.424ZM780.834 502.456C783.01 502.456 784.61 504.344 784.61 507.576C784.61 511.16 782.626 513.272 779.522 513.272C777.89 513.272 776.802 512.696 776.802 511.384V504.92C777.154 504.408 778.626 502.456 780.834 502.456ZM790.159 508.12C790.159 511.896 792.527 515.384 797.295 515.384C800.751 515.384 802.831 513.304 802.831 513.304L802.095 511.384C802.095 511.384 800.047 513.208 797.583 513.208C794.767 513.208 793.039 511.192 792.815 508.216L801.295 507.096L802.831 506.648C802.831 502.52 800.399 500.216 797.071 500.216C792.975 500.216 790.159 503.608 790.159 508.12ZM796.911 502.296C799.791 502.296 800.079 505.368 800.079 505.368L792.847 506.296C793.199 504.056 794.607 502.296 796.911 502.296ZM812.896 502.616H815.168V515H817.664V502.616H821.728V500.6H817.664V498.776C817.664 495.16 819.296 493.88 821.056 493.88C822.56 493.88 824 494.904 824 494.904L825.152 492.92C825.152 492.92 823.52 491.704 821.12 491.704C817.536 491.704 815.168 494.296 815.168 498.904V500.44L812.896 501.304V502.616ZM823.627 507.864C823.627 511.672 826.219 515.384 830.667 515.384C835.499 515.384 837.867 511.032 837.867 507.512C837.867 503.8 835.275 500.216 830.795 500.216C826.027 500.216 823.627 504.28 823.627 507.864ZM826.251 507.576C826.251 504.472 828.011 502.392 830.731 502.392C833.963 502.392 835.243 505.176 835.243 507.928C835.243 511.032 833.483 513.208 830.763 513.208C827.627 513.208 826.251 510.392 826.251 507.576ZM841.649 515H844.145V505.88C844.721 504.888 846.065 502.936 847.729 502.936C848.305 502.936 848.945 503.192 848.945 503.192L849.585 500.504C849.585 500.504 849.137 500.216 848.337 500.216C846.161 500.216 844.689 502.264 844.145 503.224V500.376L841.649 500.824V515ZM860.728 511.192C860.728 514.136 862.2 515.384 864.472 515.384C866.872 515.384 868.632 513.912 868.632 513.912L868.024 511.896C868.024 511.896 866.488 513.208 864.984 513.208C863.896 513.208 863.224 512.44 863.224 510.52V502.616H867.896V500.6H863.224V496.632L860.728 497.24V500.44L858.68 501.272V502.616H860.728V511.192ZM871.682 515H874.178V505.464C875.138 504.568 877.57 502.424 879.426 502.424C880.514 502.424 881.378 503.096 881.378 505.24V515H883.874V504.536C883.874 501.432 882.242 500.216 880.098 500.216C877.346 500.216 875.106 502.168 874.178 503.16V492.152L871.682 492.6V515ZM887.596 508.12C887.596 511.896 889.964 515.384 894.732 515.384C898.188 515.384 900.268 513.304 900.268 513.304L899.532 511.384C899.532 511.384 897.484 513.208 895.02 513.208C892.204 513.208 890.476 511.192 890.252 508.216L898.732 507.096L900.268 506.648C900.268 502.52 897.836 500.216 894.508 500.216C890.412 500.216 887.596 503.608 887.596 508.12ZM894.348 502.296C897.228 502.296 897.516 505.368 897.516 505.368L890.284 506.296C890.636 504.056 892.044 502.296 894.348 502.296ZM910.334 502.616H912.606V515H915.102V502.616H919.166V500.6H915.102V498.776C915.102 495.16 916.734 493.88 918.494 493.88C919.998 493.88 921.438 494.904 921.438 494.904L922.59 492.92C922.59 492.92 920.958 491.704 918.558 491.704C914.974 491.704 912.606 494.296 912.606 498.904V500.44L910.334 501.304V502.616ZM922.146 511.064C922.146 514.168 923.682 515.384 926.05 515.384C928.77 515.384 930.882 513.528 931.746 512.6C931.874 513.624 932.226 515.224 932.226 515.224L934.69 515C934.69 515 934.05 512.312 934.05 510.552V500.6H931.554V510.488C930.594 511.448 928.546 513.176 926.69 513.176C925.538 513.176 924.642 512.568 924.642 510.36V500.6H922.146V511.064ZM939.603 511.192C939.603 514.136 941.075 515.384 943.347 515.384C945.747 515.384 947.507 513.912 947.507 513.912L946.899 511.896C946.899 511.896 945.363 513.208 943.859 513.208C942.771 513.208 942.099 512.44 942.099 510.52V502.616H946.771V500.6H942.099V496.632L939.603 497.24V500.44L937.555 501.272V502.616H939.603V511.192ZM950.365 511.064C950.365 514.168 951.901 515.384 954.269 515.384C956.989 515.384 959.101 513.528 959.965 512.6C960.093 513.624 960.445 515.224 960.445 515.224L962.909 515C962.909 515 962.269 512.312 962.269 510.552V500.6H959.773V510.488C958.813 511.448 956.765 513.176 954.909 513.176C953.757 513.176 952.861 512.568 952.861 510.36V500.6H950.365V511.064ZM967.118 515H969.614V505.88C970.19 504.888 971.534 502.936 973.198 502.936C973.774 502.936 974.414 503.192 974.414 503.192L975.054 500.504C975.054 500.504 974.606 500.216 973.806 500.216C971.63 500.216 970.158 502.264 969.614 503.224V500.376L967.118 500.824V515ZM976.628 508.12C976.628 511.896 978.996 515.384 983.764 515.384C987.22 515.384 989.3 513.304 989.3 513.304L988.564 511.384C988.564 511.384 986.516 513.208 984.052 513.208C981.236 513.208 979.508 511.192 979.284 508.216L987.764 507.096L989.3 506.648C989.3 502.52 986.868 500.216 983.54 500.216C979.444 500.216 976.628 503.608 976.628 508.12ZM983.38 502.296C986.26 502.296 986.548 505.368 986.548 505.368L979.316 506.296C979.668 504.056 981.076 502.296 983.38 502.296Z" fill="black"/>
</svg>
