<svg width="1078" height="452" viewBox="0 0 1078 452" fill="none" xmlns="http://www.w3.org/2000/svg">
<rect x="1" y="1" width="1076" height="450" fill="#FAFAFA" stroke="#BDBDBD" stroke-width="2"/>
<path d="M43 411.496V188.991H270.14V411.496" stroke="#828282" stroke-width="4"/>
<path d="M552.906 411.496V188.991H780.046V411.496" stroke="#828282" stroke-width="4"/>
<path d="M297.953 411.496V188.991H525.093V411.496" stroke="#828282" stroke-width="4"/>
<path d="M807.859 411.496V188.991H1035V411.496" stroke="#828282" stroke-width="4"/>
<rect x="52.2695" y="200.578" width="45.1963" height="173.832" fill="#DFDDE2"/>
<rect x="562" y="201" width="45" height="142" fill="#EDE3E4"/>
<rect x="307" y="201" width="45" height="173" fill="#EFE8DF"/>
<rect x="817" y="201" width="45" height="173" fill="#D9DFE9"/>
<rect x="106.738" y="200.578" width="45.1963" height="202.804" fill="#DFDDE2"/>
<rect x="617" y="201" width="45" height="173" fill="#EDE3E4"/>
<rect x="362" y="201" width="45" height="142" fill="#EFE8DF"/>
<rect x="872" y="201" width="45" height="142" fill="#D9DFE9"/>
<rect x="216" y="201" width="45" height="160" fill="#DFDDE2"/>
<rect x="726" y="201" width="45" height="142" fill="#EDE3E4"/>
<rect x="471" y="201" width="45" height="155" fill="#EFE8DF"/>
<rect x="981" y="201" width="45" height="173" fill="#D9DFE9"/>
<rect x="161.207" y="200.578" width="45.1963" height="180.785" fill="#DFDDE2"/>
<rect x="671" y="201" width="45" height="173" fill="#EDE3E4"/>
<rect x="416" y="201" width="45" height="173" fill="#EFE8DF"/>
<rect x="926" y="201" width="45" height="142" fill="#D9DFE9"/>
<path d="M561.99 54.894C561.99 59.448 565.554 62.264 569.998 62.264C572.176 62.264 575.08 61.582 575.08 61.582V54.256H569.778V56.148H572.836V59.998C572.836 59.998 571.538 60.306 570.262 60.306C566.742 60.306 564.344 58.04 564.344 54.718C564.344 51.748 566.258 49.02 569.998 49.02C572.396 49.02 574.156 50.12 574.156 50.12L575.036 48.162C575.036 48.162 573.078 47.062 570.108 47.062C564.916 47.062 561.99 50.758 561.99 54.894ZM577.437 54.696C577.437 58.744 580.451 62.264 585.093 62.264C589.889 62.264 593.013 58.502 593.013 54.388C593.013 50.34 590.021 47.062 585.291 47.062C580.253 47.062 577.437 50.824 577.437 54.696ZM579.835 54.586C579.835 51.77 581.749 48.998 585.225 48.998C588.701 48.998 590.615 51.726 590.615 54.564C590.615 57.424 588.613 60.328 585.159 60.328C581.683 60.328 579.835 57.314 579.835 54.586ZM594.048 62H596.314L597.744 58.084H603.596L605.048 62H607.38L601.792 47.216H599.636L594.048 62ZM600.67 50.12L602.914 56.192H598.448L600.67 50.12ZM609.602 62H618.732V60.108H611.868V47.326H609.602V62ZM624.885 64.552L625.061 66.246C625.281 66.268 625.479 66.268 625.677 66.268C629.461 66.268 632.343 64.398 632.343 61.472C632.343 59.8 631.265 58.458 629.285 57.974C630.583 57.27 631.969 55.994 631.969 54.3C631.969 52.584 630.473 51.352 628.471 51.352C626.337 51.352 624.731 52.738 624.731 52.738L625.677 54.124C625.677 54.124 626.953 53.178 628.141 53.178C629.043 53.178 629.725 53.728 629.725 54.608C629.725 56.104 627.789 57.49 626.249 57.622V59.316H626.777C628.317 59.316 630.077 59.822 630.077 61.538C630.077 63.54 628.031 64.574 625.589 64.574C625.347 64.574 625.127 64.574 624.885 64.552ZM566.456 92.11H568.634L573.892 77.326H571.582L567.6 88.744L563.618 77.326H561.22L566.456 92.11ZM574.165 89.712C574.165 91.186 575.287 92.264 577.025 92.264C578.961 92.264 579.973 91.032 580.237 90.614C580.523 91.406 581.161 92.044 582.679 92.154L583.339 90.438C583.339 90.438 582.239 90.416 582.239 89.184V84.982C582.239 82.76 581.491 81.792 579.137 81.792C576.519 81.792 574.825 83.046 574.825 83.046L575.397 84.674C575.397 84.674 576.915 83.53 578.543 83.53C580.149 83.53 580.061 84.63 580.061 85.884C576.343 86.368 574.165 87.622 574.165 89.712ZM577.575 90.548C576.937 90.548 576.409 90.262 576.409 89.558C576.409 88.392 577.531 87.666 580.061 87.292V89.008C579.401 89.778 578.587 90.548 577.575 90.548ZM585.528 92H587.706V76.27L585.528 76.622V92ZM590.703 89.272C590.703 91.406 591.803 92.264 593.409 92.264C595.235 92.264 596.621 91.098 597.259 90.416C597.369 91.142 597.589 92.176 597.589 92.176L599.701 91.978C599.701 91.978 599.261 90.152 599.261 88.942V82.056H597.083V88.744C596.467 89.316 595.235 90.372 594.113 90.372C593.299 90.372 592.881 89.822 592.881 88.436V82.056H590.703V89.272ZM601.755 87.182C601.755 89.844 603.449 92.264 606.771 92.264C609.257 92.264 610.775 90.834 610.775 90.834L610.159 89.25C610.159 89.25 608.773 90.482 607.101 90.482C605.363 90.482 604.263 89.316 604.021 87.512L609.455 86.786L610.709 86.434C610.709 83.42 608.993 81.792 606.617 81.792C603.713 81.792 601.755 84.146 601.755 87.182ZM606.463 83.486C608.201 83.486 608.333 85.51 608.333 85.51L604.021 86.06C604.219 84.608 605.055 83.486 606.463 83.486ZM618.441 92H620.619V85.532C621.257 84.894 622.621 83.684 623.699 83.684C624.425 83.684 624.821 84.212 624.821 85.62V92H626.999V85.488C627.747 84.762 628.979 83.684 629.991 83.684C630.717 83.684 631.135 84.212 631.135 85.62V92H633.291V84.828C633.291 82.694 632.257 81.792 630.717 81.792C628.979 81.792 627.615 82.958 626.889 83.75C626.581 82.386 625.679 81.792 624.425 81.792C622.665 81.792 621.257 83.002 620.575 83.75V81.88L618.441 82.232V92ZM635.086 95.476L635.768 97.214C638.1 96.95 639.552 94.86 640.41 92.748L644.722 82.056H642.478L639.904 88.876L637.286 82.056H634.976L638.826 91.494L638.298 92.682C637.704 94.068 636.538 95.234 635.086 95.476ZM645.797 91.384C645.797 91.384 647.029 92.264 649.097 92.264C651.539 92.264 652.969 91.054 652.969 89.25C652.969 86.082 648.195 86.236 648.195 84.498C648.195 83.926 648.679 83.508 649.779 83.508C651.055 83.508 652.199 84.124 652.199 84.124L652.705 82.342C652.705 82.342 651.605 81.792 649.867 81.792C647.117 81.792 646.017 83.134 646.017 84.674C646.017 87.798 650.791 87.666 650.791 89.448C650.791 90.086 650.241 90.548 649.075 90.548C647.469 90.548 646.259 89.536 646.259 89.536L645.797 91.384ZM654.693 87.182C654.693 89.844 656.387 92.264 659.709 92.264C662.195 92.264 663.713 90.834 663.713 90.834L663.097 89.25C663.097 89.25 661.711 90.482 660.039 90.482C658.301 90.482 657.201 89.316 656.959 87.512L662.393 86.786L663.647 86.434C663.647 83.42 661.931 81.792 659.555 81.792C656.651 81.792 654.693 84.146 654.693 87.182ZM659.401 83.486C661.139 83.486 661.271 85.51 661.271 85.51L656.959 86.06C657.157 84.608 657.993 83.486 659.401 83.486ZM666.138 92H668.316V76.27L666.138 76.622V92ZM670.433 83.706H671.995V92H674.173V83.706H676.923V82.056H674.173V80.868C674.173 78.536 675.229 77.722 676.395 77.722C677.473 77.722 678.441 78.426 678.441 78.426L679.299 76.754C679.299 76.754 678.155 75.918 676.417 75.918C673.821 75.918 671.995 77.744 671.995 81V81.968L670.433 82.54V83.706ZM683.546 87.182C683.546 89.844 685.24 92.264 688.562 92.264C691.048 92.264 692.566 90.834 692.566 90.834L691.95 89.25C691.95 89.25 690.564 90.482 688.892 90.482C687.154 90.482 686.054 89.316 685.812 87.512L691.246 86.786L692.5 86.434C692.5 83.42 690.784 81.792 688.408 81.792C685.504 81.792 683.546 84.146 683.546 87.182ZM688.254 83.486C689.992 83.486 690.124 85.51 690.124 85.51L685.812 86.06C686.01 84.608 686.846 83.486 688.254 83.486ZM694.947 92H697.125V85.554C697.807 84.894 699.215 83.684 700.315 83.684C701.063 83.684 701.503 84.212 701.503 85.62V92H703.681V84.828C703.681 82.694 702.603 81.792 701.041 81.792C699.215 81.792 697.785 83.002 697.081 83.772V81.88L694.947 82.232V92ZM705.975 87.072C705.975 89.712 707.757 92.264 711.057 92.264C714.643 92.264 716.227 89.25 716.227 86.83C716.227 84.278 714.445 81.792 711.145 81.792C707.581 81.792 705.975 84.586 705.975 87.072ZM708.241 86.874C708.241 84.894 709.407 83.53 711.101 83.53C713.125 83.53 713.961 85.356 713.961 87.116C713.961 89.118 712.795 90.526 711.123 90.526C709.143 90.526 708.241 88.722 708.241 86.874ZM718.514 89.272C718.514 91.406 719.614 92.264 721.22 92.264C723.046 92.264 724.432 91.098 725.07 90.416C725.18 91.142 725.4 92.176 725.4 92.176L727.512 91.978C727.512 91.978 727.072 90.152 727.072 88.942V82.056H724.894V88.744C724.278 89.316 723.046 90.372 721.924 90.372C721.11 90.372 720.692 89.822 720.692 88.436V82.056H718.514V89.272ZM730.16 90.24C730.16 90.922 730.798 91.318 731.788 91.648C730.732 92.198 729.258 93.144 729.258 94.596C729.258 96.334 731.414 97.214 733.614 97.214C736.606 97.214 739.048 95.52 739.048 93.518C739.048 91.692 737.046 91.142 735.286 90.702C733.218 90.196 732.25 89.998 732.25 89.602C732.25 89.36 732.602 89.096 733.064 88.788C733.284 88.832 733.526 88.832 733.79 88.832C735.924 88.832 738.19 87.666 738.19 85.488C738.19 84.608 737.772 84.014 737.464 83.662C737.728 83.706 738.036 83.728 738.278 83.728H739.466L739.312 81.99C739.312 81.99 738.652 82.21 737.992 82.21H736.848C735.748 82.21 735.176 81.792 733.966 81.792C731.744 81.792 729.742 83.046 729.742 85.268C729.742 86.61 730.468 87.776 731.722 88.392C730.908 88.854 730.16 89.514 730.16 90.24ZM734.032 92.22C735.88 92.704 736.914 92.99 736.914 93.848C736.914 94.838 735.506 95.63 733.746 95.63C732.492 95.63 731.216 95.234 731.216 94.244C731.216 93.254 732.426 92.594 733.372 92.066C733.592 92.11 733.812 92.154 734.032 92.22ZM733.944 87.292C732.536 87.292 731.876 86.28 731.876 85.334C731.876 84.3 732.624 83.332 733.944 83.332C735.352 83.332 736.034 84.476 736.034 85.444C736.034 86.566 735.154 87.292 733.944 87.292ZM741.354 92H743.532V85.598C744.192 84.938 745.622 83.684 746.722 83.684C747.47 83.684 747.91 84.212 747.91 85.62V92H750.088V84.828C750.088 82.694 749.01 81.792 747.426 81.792C745.6 81.792 744.192 83.024 743.532 83.728V76.27L741.354 76.622V92ZM758.877 89.294C758.877 91.34 759.999 92.264 761.715 92.264C763.475 92.264 764.773 91.208 764.773 91.208L764.223 89.558C763.959 89.712 763.035 90.438 762.199 90.438C761.473 90.438 761.055 89.954 761.055 88.744V83.706H764.201V82.056H761.055V79.24L758.921 79.702V81.968L757.403 82.518V83.706H758.877V89.294ZM765.981 87.072C765.981 89.712 767.763 92.264 771.063 92.264C774.649 92.264 776.233 89.25 776.233 86.83C776.233 84.278 774.451 81.792 771.151 81.792C767.587 81.792 765.981 84.586 765.981 87.072ZM768.247 86.874C768.247 84.894 769.413 83.53 771.107 83.53C773.131 83.53 773.967 85.356 773.967 87.116C773.967 89.118 772.801 90.526 771.129 90.526C769.149 90.526 768.247 88.722 768.247 86.874ZM563.068 119.294C563.068 121.34 564.19 122.264 565.906 122.264C567.666 122.264 568.964 121.208 568.964 121.208L568.414 119.558C568.15 119.712 567.226 120.438 566.39 120.438C565.664 120.438 565.246 119.954 565.246 118.744V113.706H568.392V112.056H565.246V109.24L563.112 109.702V111.968L561.594 112.518V113.706H563.068V119.294ZM570.018 119.712C570.018 121.186 571.14 122.264 572.878 122.264C574.814 122.264 575.826 121.032 576.09 120.614C576.376 121.406 577.014 122.044 578.532 122.154L579.192 120.438C579.192 120.438 578.092 120.416 578.092 119.184V114.982C578.092 112.76 577.344 111.792 574.99 111.792C572.372 111.792 570.678 113.046 570.678 113.046L571.25 114.674C571.25 114.674 572.768 113.53 574.396 113.53C576.002 113.53 575.914 114.63 575.914 115.884C572.196 116.368 570.018 117.622 570.018 119.712ZM573.428 120.548C572.79 120.548 572.262 120.262 572.262 119.558C572.262 118.392 573.384 117.666 575.914 117.292V119.008C575.254 119.778 574.44 120.548 573.428 120.548ZM581.382 122H583.56V117.292H583.868L587.828 122H590.622L585.782 116.412L590.314 112.056H587.476L583.868 115.686H583.56V106.27L581.382 106.622V122ZM591.163 117.182C591.163 119.844 592.857 122.264 596.179 122.264C598.665 122.264 600.183 120.834 600.183 120.834L599.567 119.25C599.567 119.25 598.181 120.482 596.509 120.482C594.771 120.482 593.671 119.316 593.429 117.512L598.863 116.786L600.117 116.434C600.117 113.42 598.401 111.792 596.025 111.792C593.121 111.792 591.163 114.146 591.163 117.182ZM595.871 113.486C597.609 113.486 597.741 115.51 597.741 115.51L593.429 116.06C593.627 114.608 594.463 113.486 595.871 113.486ZM607.212 117.16C607.212 120.042 609.214 122.264 612.316 122.264C614.692 122.264 615.836 120.988 615.836 120.988L615.132 119.448C615.132 119.448 614.054 120.482 612.47 120.482C610.6 120.482 609.478 119.008 609.478 117.05C609.478 115.026 610.688 113.552 612.492 113.552C613.944 113.552 614.978 114.476 614.978 114.476L615.836 112.848C615.836 112.848 614.626 111.792 612.448 111.792C609.17 111.792 607.212 114.41 607.212 117.16ZM617.18 117.072C617.18 119.712 618.962 122.264 622.262 122.264C625.848 122.264 627.432 119.25 627.432 116.83C627.432 114.278 625.65 111.792 622.35 111.792C618.786 111.792 617.18 114.586 617.18 117.072ZM619.446 116.874C619.446 114.894 620.612 113.53 622.306 113.53C624.33 113.53 625.166 115.356 625.166 117.116C625.166 119.118 624 120.526 622.328 120.526C620.348 120.526 619.446 118.722 619.446 116.874ZM629.785 122H631.963V115.554C632.645 114.894 634.053 113.684 635.153 113.684C635.901 113.684 636.341 114.212 636.341 115.62V122H638.519V114.828C638.519 112.694 637.441 111.792 635.879 111.792C634.053 111.792 632.623 113.002 631.919 113.772V111.88L629.785 112.232V122ZM640.791 121.384C640.791 121.384 642.023 122.264 644.091 122.264C646.533 122.264 647.963 121.054 647.963 119.25C647.963 116.082 643.189 116.236 643.189 114.498C643.189 113.926 643.673 113.508 644.773 113.508C646.049 113.508 647.193 114.124 647.193 114.124L647.699 112.342C647.699 112.342 646.599 111.792 644.861 111.792C642.111 111.792 641.011 113.134 641.011 114.674C641.011 117.798 645.785 117.666 645.785 119.448C645.785 120.086 645.235 120.548 644.069 120.548C642.463 120.548 641.253 119.536 641.253 119.536L640.791 121.384ZM651.447 109.68C652.239 109.68 652.833 109.108 652.833 108.338C652.833 107.568 652.239 106.996 651.447 106.996C650.677 106.996 650.083 107.568 650.083 108.338C650.083 109.108 650.677 109.68 651.447 109.68ZM650.347 122H652.525V112.056H650.347V122ZM654.928 121.384C654.928 121.384 656.16 122.264 658.228 122.264C660.67 122.264 662.1 121.054 662.1 119.25C662.1 116.082 657.326 116.236 657.326 114.498C657.326 113.926 657.81 113.508 658.91 113.508C660.186 113.508 661.33 114.124 661.33 114.124L661.836 112.342C661.836 112.342 660.736 111.792 658.998 111.792C656.248 111.792 655.148 113.134 655.148 114.674C655.148 117.798 659.922 117.666 659.922 119.448C659.922 120.086 659.372 120.548 658.206 120.548C656.6 120.548 655.39 119.536 655.39 119.536L654.928 121.384ZM665.011 119.294C665.011 121.34 666.133 122.264 667.849 122.264C669.609 122.264 670.907 121.208 670.907 121.208L670.357 119.558C670.093 119.712 669.169 120.438 668.333 120.438C667.607 120.438 667.189 119.954 667.189 118.744V113.706H670.335V112.056H667.189V109.24L665.055 109.702V111.968L663.537 112.518V113.706H665.011V119.294ZM672.138 117.182C672.138 119.844 673.832 122.264 677.154 122.264C679.64 122.264 681.158 120.834 681.158 120.834L680.542 119.25C680.542 119.25 679.156 120.482 677.484 120.482C675.746 120.482 674.646 119.316 674.404 117.512L679.838 116.786L681.092 116.434C681.092 113.42 679.376 111.792 677 111.792C674.096 111.792 672.138 114.146 672.138 117.182ZM676.846 113.486C678.584 113.486 678.716 115.51 678.716 115.51L674.404 116.06C674.602 114.608 675.438 113.486 676.846 113.486ZM683.539 122H685.717V115.554C686.399 114.894 687.807 113.684 688.907 113.684C689.655 113.684 690.095 114.212 690.095 115.62V122H692.273V114.828C692.273 112.694 691.195 111.792 689.633 111.792C687.807 111.792 686.377 113.002 685.673 113.772V111.88L683.539 112.232V122ZM695.777 119.294C695.777 121.34 696.899 122.264 698.615 122.264C700.375 122.264 701.673 121.208 701.673 121.208L701.123 119.558C700.859 119.712 699.935 120.438 699.099 120.438C698.373 120.438 697.955 119.954 697.955 118.744V113.706H701.101V112.056H697.955V109.24L695.821 109.702V111.968L694.303 112.518V113.706H695.777V119.294ZM708.013 119.712C708.013 121.186 709.135 122.264 710.873 122.264C712.809 122.264 713.821 121.032 714.085 120.614C714.371 121.406 715.009 122.044 716.527 122.154L717.187 120.438C717.187 120.438 716.087 120.416 716.087 119.184V114.982C716.087 112.76 715.339 111.792 712.985 111.792C710.367 111.792 708.673 113.046 708.673 113.046L709.245 114.674C709.245 114.674 710.763 113.53 712.391 113.53C713.997 113.53 713.909 114.63 713.909 115.884C710.191 116.368 708.013 117.622 708.013 119.712ZM711.423 120.548C710.785 120.548 710.257 120.262 710.257 119.558C710.257 118.392 711.379 117.666 713.909 117.292V119.008C713.249 119.778 712.435 120.548 711.423 120.548ZM718.694 117.16C718.694 120.042 720.696 122.264 723.798 122.264C726.174 122.264 727.318 120.988 727.318 120.988L726.614 119.448C726.614 119.448 725.536 120.482 723.952 120.482C722.082 120.482 720.96 119.008 720.96 117.05C720.96 115.026 722.17 113.552 723.974 113.552C725.426 113.552 726.46 114.476 726.46 114.476L727.318 112.848C727.318 112.848 726.108 111.792 723.93 111.792C720.652 111.792 718.694 114.41 718.694 117.16ZM730.045 119.294C730.045 121.34 731.167 122.264 732.883 122.264C734.643 122.264 735.941 121.208 735.941 121.208L735.391 119.558C735.127 119.712 734.203 120.438 733.367 120.438C732.641 120.438 732.223 119.954 732.223 118.744V113.706H735.369V112.056H732.223V109.24L730.089 109.702V111.968L728.571 112.518V113.706H730.045V119.294ZM738.931 109.68C739.723 109.68 740.317 109.108 740.317 108.338C740.317 107.568 739.723 106.996 738.931 106.996C738.161 106.996 737.567 107.568 737.567 108.338C737.567 109.108 738.161 109.68 738.931 109.68ZM737.831 122H740.009V112.056H737.831V122ZM742.434 117.072C742.434 119.712 744.216 122.264 747.516 122.264C751.102 122.264 752.686 119.25 752.686 116.83C752.686 114.278 750.904 111.792 747.604 111.792C744.04 111.792 742.434 114.586 742.434 117.072ZM744.7 116.874C744.7 114.894 745.866 113.53 747.56 113.53C749.584 113.53 750.42 115.356 750.42 117.116C750.42 119.118 749.254 120.526 747.582 120.526C745.602 120.526 744.7 118.722 744.7 116.874ZM755.039 122H757.217V115.554C757.899 114.894 759.307 113.684 760.407 113.684C761.155 113.684 761.595 114.212 761.595 115.62V122H763.773V114.828C763.773 112.694 762.695 111.792 761.133 111.792C759.307 111.792 757.877 113.002 757.173 113.772V111.88L755.039 112.232V122ZM766.045 121.384C766.045 121.384 767.277 122.264 769.345 122.264C771.787 122.264 773.217 121.054 773.217 119.25C773.217 116.082 768.443 116.236 768.443 114.498C768.443 113.926 768.927 113.508 770.027 113.508C771.303 113.508 772.447 114.124 772.447 114.124L772.953 112.342C772.953 112.342 771.853 111.792 770.115 111.792C767.365 111.792 766.265 113.134 766.265 114.674C766.265 117.798 771.039 117.666 771.039 119.448C771.039 120.086 770.489 120.548 769.323 120.548C767.717 120.548 766.507 119.536 766.507 119.536L766.045 121.384ZM563.068 149.294C563.068 151.34 564.19 152.264 565.906 152.264C567.666 152.264 568.964 151.208 568.964 151.208L568.414 149.558C568.15 149.712 567.226 150.438 566.39 150.438C565.664 150.438 565.246 149.954 565.246 148.744V143.706H568.392V142.056H565.246V139.24L563.112 139.702V141.968L561.594 142.518V143.706H563.068V149.294ZM570.172 147.072C570.172 149.712 571.954 152.264 575.254 152.264C578.84 152.264 580.424 149.25 580.424 146.83C580.424 144.278 578.642 141.792 575.342 141.792C571.778 141.792 570.172 144.586 570.172 147.072ZM572.438 146.874C572.438 144.894 573.604 143.53 575.298 143.53C577.322 143.53 578.158 145.356 578.158 147.116C578.158 149.118 576.992 150.526 575.32 150.526C573.34 150.526 572.438 148.722 572.438 146.874ZM588.062 151.78C588.81 151.956 590.504 152.264 591.692 152.264C595.454 152.264 597.258 149.58 597.258 146.676C597.258 143.948 595.674 141.792 592.924 141.792C591.56 141.792 590.746 142.342 590.24 142.914V136.27L588.062 136.622V151.78ZM592.572 143.552C594.024 143.552 595.014 144.762 595.014 146.83C595.014 149.294 593.628 150.614 591.736 150.614C590.922 150.614 590.24 150.394 590.24 150.394V144.586C590.702 144.168 591.538 143.552 592.572 143.552ZM599.048 147.182C599.048 149.844 600.742 152.264 604.064 152.264C606.55 152.264 608.068 150.834 608.068 150.834L607.452 149.25C607.452 149.25 606.066 150.482 604.394 150.482C602.656 150.482 601.556 149.316 601.314 147.512L606.748 146.786L608.002 146.434C608.002 143.42 606.286 141.792 603.91 141.792C601.006 141.792 599.048 144.146 599.048 147.182ZM603.756 143.486C605.494 143.486 605.626 145.51 605.626 145.51L601.314 146.06C601.512 144.608 602.348 143.486 603.756 143.486ZM611.021 149.294C611.021 151.34 612.143 152.264 613.859 152.264C615.619 152.264 616.917 151.208 616.917 151.208L616.367 149.558C616.103 149.712 615.179 150.438 614.343 150.438C613.617 150.438 613.199 149.954 613.199 148.744V143.706H616.345V142.056H613.199V139.24L611.065 139.702V141.968L609.547 142.518V143.706H611.021V149.294ZM619.336 149.294C619.336 151.34 620.458 152.264 622.174 152.264C623.934 152.264 625.232 151.208 625.232 151.208L624.682 149.558C624.418 149.712 623.494 150.438 622.658 150.438C621.932 150.438 621.514 149.954 621.514 148.744V143.706H624.66V142.056H621.514V139.24L619.38 139.702V141.968L617.862 142.518V143.706H619.336V149.294ZM626.462 147.182C626.462 149.844 628.156 152.264 631.478 152.264C633.964 152.264 635.482 150.834 635.482 150.834L634.866 149.25C634.866 149.25 633.48 150.482 631.808 150.482C630.07 150.482 628.97 149.316 628.728 147.512L634.162 146.786L635.416 146.434C635.416 143.42 633.7 141.792 631.324 141.792C628.42 141.792 626.462 144.146 626.462 147.182ZM631.17 143.486C632.908 143.486 633.04 145.51 633.04 145.51L628.728 146.06C628.926 144.608 629.762 143.486 631.17 143.486ZM637.863 152H640.041V145.84C640.459 145.18 641.361 143.992 642.461 143.992C642.901 143.992 643.341 144.168 643.341 144.168L643.781 141.968C643.781 141.968 643.473 141.792 642.923 141.792C641.405 141.792 640.393 143.2 639.997 143.882V141.88L637.863 142.232V152ZM650.797 152H652.975V145.532C653.613 144.894 654.977 143.684 656.055 143.684C656.781 143.684 657.177 144.212 657.177 145.62V152H659.355V145.488C660.103 144.762 661.335 143.684 662.347 143.684C663.073 143.684 663.491 144.212 663.491 145.62V152H665.647V144.828C665.647 142.694 664.613 141.792 663.073 141.792C661.335 141.792 659.971 142.958 659.245 143.75C658.937 142.386 658.035 141.792 656.781 141.792C655.021 141.792 653.613 143.002 652.931 143.75V141.88L650.797 142.232V152ZM667.442 155.476L668.124 157.214C670.456 156.95 671.908 154.86 672.766 152.748L677.078 142.056H674.834L672.26 148.876L669.642 142.056H667.332L671.182 151.494L670.654 152.682C670.06 154.068 668.894 155.234 667.442 155.476ZM684.142 152H686.32V145.598C686.98 144.938 688.41 143.684 689.51 143.684C690.258 143.684 690.698 144.212 690.698 145.62V152H692.876V144.828C692.876 142.694 691.798 141.792 690.214 141.792C688.388 141.792 686.98 143.024 686.32 143.728V136.27L684.142 136.622V152ZM695.191 147.182C695.191 149.844 696.885 152.264 700.207 152.264C702.693 152.264 704.211 150.834 704.211 150.834L703.595 149.25C703.595 149.25 702.209 150.482 700.537 150.482C698.799 150.482 697.699 149.316 697.457 147.512L702.891 146.786L704.145 146.434C704.145 143.42 702.429 141.792 700.053 141.792C697.149 141.792 695.191 144.146 695.191 147.182ZM699.899 143.486C701.637 143.486 701.769 145.51 701.769 145.51L697.457 146.06C697.655 144.608 698.491 143.486 699.899 143.486ZM705.8 149.712C705.8 151.186 706.922 152.264 708.66 152.264C710.596 152.264 711.608 151.032 711.872 150.614C712.158 151.406 712.796 152.044 714.314 152.154L714.974 150.438C714.974 150.438 713.874 150.416 713.874 149.184V144.982C713.874 142.76 713.126 141.792 710.772 141.792C708.154 141.792 706.46 143.046 706.46 143.046L707.032 144.674C707.032 144.674 708.55 143.53 710.178 143.53C711.784 143.53 711.696 144.63 711.696 145.884C707.978 146.368 705.8 147.622 705.8 149.712ZM709.21 150.548C708.572 150.548 708.044 150.262 708.044 149.558C708.044 148.392 709.166 147.666 711.696 147.292V149.008C711.036 149.778 710.222 150.548 709.21 150.548ZM717.163 152H719.341V136.27L717.163 136.622V152ZM722.976 149.294C722.976 151.34 724.098 152.264 725.814 152.264C727.574 152.264 728.872 151.208 728.872 151.208L728.322 149.558C728.058 149.712 727.134 150.438 726.298 150.438C725.572 150.438 725.154 149.954 725.154 148.744V143.706H728.3V142.056H725.154V139.24L723.02 139.702V141.968L721.502 142.518V143.706H722.976V149.294ZM730.763 152H732.941V145.598C733.601 144.938 735.031 143.684 736.131 143.684C736.879 143.684 737.319 144.212 737.319 145.62V152H739.497V144.828C739.497 142.694 738.419 141.792 736.835 141.792C735.009 141.792 733.601 143.024 732.941 143.728V136.27L730.763 136.622V152ZM742.142 150.79C742.142 151.604 742.802 152.264 743.616 152.264C744.43 152.264 745.112 151.604 745.112 150.79C745.112 149.954 744.43 149.294 743.616 149.294C742.802 149.294 742.142 149.954 742.142 150.79Z" fill="#333333"/>
<path d="M306.99 54.894C306.99 59.448 310.554 62.264 314.998 62.264C317.176 62.264 320.08 61.582 320.08 61.582V54.256H314.778V56.148H317.836V59.998C317.836 59.998 316.538 60.306 315.262 60.306C311.742 60.306 309.344 58.04 309.344 54.718C309.344 51.748 311.258 49.02 314.998 49.02C317.396 49.02 319.156 50.12 319.156 50.12L320.036 48.162C320.036 48.162 318.078 47.062 315.108 47.062C309.916 47.062 306.99 50.758 306.99 54.894ZM322.437 54.696C322.437 58.744 325.451 62.264 330.093 62.264C334.889 62.264 338.013 58.502 338.013 54.388C338.013 50.34 335.021 47.062 330.291 47.062C325.253 47.062 322.437 50.824 322.437 54.696ZM324.835 54.586C324.835 51.77 326.749 48.998 330.225 48.998C333.701 48.998 335.615 51.726 335.615 54.564C335.615 57.424 333.613 60.328 330.159 60.328C326.683 60.328 324.835 57.314 324.835 54.586ZM339.048 62H341.314L342.744 58.084H348.596L350.048 62H352.38L346.792 47.216H344.636L339.048 62ZM345.67 50.12L347.914 56.192H343.448L345.67 50.12ZM354.602 62H363.732V60.108H356.868V47.326H354.602V62ZM370.413 62H378.531V60.24H373.515C375.341 58.722 377.607 56.698 377.607 54.476C377.607 52.694 376.133 51.352 374.043 51.352C371.931 51.352 370.325 52.738 370.325 52.738L371.205 54.124C371.205 54.124 372.371 53.178 373.647 53.178C374.659 53.178 375.341 53.838 375.341 54.784C375.341 57.138 370.325 60.68 370.325 60.68L370.413 62ZM308.002 92H313.062C316.01 92 318.078 90.328 318.078 87.732C318.078 85.4 316.384 84.432 315.526 84.08C316.296 83.486 317.286 82.408 317.286 80.846C317.286 79.152 316.098 77.326 312.314 77.326H308.002V92ZM310.268 90.108V85.422H312.732C314.778 85.422 315.68 86.412 315.68 87.776C315.68 89.162 314.778 90.108 312.732 90.108H310.268ZM310.268 79.218H311.984C314.272 79.218 314.888 80.12 314.888 81.22C314.888 82.804 313.48 83.552 313.48 83.552H310.268V79.218ZM319.943 87.182C319.943 89.844 321.637 92.264 324.959 92.264C327.445 92.264 328.963 90.834 328.963 90.834L328.347 89.25C328.347 89.25 326.961 90.482 325.289 90.482C323.551 90.482 322.451 89.316 322.209 87.512L327.643 86.786L328.897 86.434C328.897 83.42 327.181 81.792 324.805 81.792C321.901 81.792 319.943 84.146 319.943 87.182ZM324.651 83.486C326.389 83.486 326.521 85.51 326.521 85.51L322.209 86.06C322.407 84.608 323.243 83.486 324.651 83.486ZM331.388 92H333.566V76.27L331.388 76.622V92ZM337.773 79.68C338.565 79.68 339.159 79.108 339.159 78.338C339.159 77.568 338.565 76.996 337.773 76.996C337.003 76.996 336.409 77.568 336.409 78.338C336.409 79.108 337.003 79.68 337.773 79.68ZM336.673 92H338.851V82.056H336.673V92ZM341.298 87.182C341.298 89.844 342.992 92.264 346.314 92.264C348.8 92.264 350.318 90.834 350.318 90.834L349.702 89.25C349.702 89.25 348.316 90.482 346.644 90.482C344.906 90.482 343.806 89.316 343.564 87.512L348.998 86.786L350.252 86.434C350.252 83.42 348.536 81.792 346.16 81.792C343.256 81.792 341.298 84.146 341.298 87.182ZM346.006 83.486C347.744 83.486 347.876 85.51 347.876 85.51L343.564 86.06C343.762 84.608 344.598 83.486 346.006 83.486ZM355.097 92.088H357.121L361.213 82.056H358.991L356.197 89.272L353.777 82.056H351.489L355.097 92.088ZM362.224 87.182C362.224 89.844 363.918 92.264 367.24 92.264C369.726 92.264 371.244 90.834 371.244 90.834L370.628 89.25C370.628 89.25 369.242 90.482 367.57 90.482C365.832 90.482 364.732 89.316 364.49 87.512L369.924 86.786L371.178 86.434C371.178 83.42 369.462 81.792 367.086 81.792C364.182 81.792 362.224 84.146 362.224 87.182ZM366.932 83.486C368.67 83.486 368.802 85.51 368.802 85.51L364.49 86.06C364.688 84.608 365.524 83.486 366.932 83.486ZM379.482 89.294C379.482 91.34 380.604 92.264 382.32 92.264C384.08 92.264 385.378 91.208 385.378 91.208L384.828 89.558C384.564 89.712 383.64 90.438 382.804 90.438C382.078 90.438 381.66 89.954 381.66 88.744V83.706H384.806V82.056H381.66V79.24L379.526 79.702V81.968L378.008 82.518V83.706H379.482V89.294ZM387.269 92H389.447V85.598C390.107 84.938 391.537 83.684 392.637 83.684C393.385 83.684 393.825 84.212 393.825 85.62V92H396.003V84.828C396.003 82.694 394.925 81.792 393.341 81.792C391.515 81.792 390.107 83.024 389.447 83.728V76.27L387.269 76.622V92ZM398.142 89.712C398.142 91.186 399.264 92.264 401.002 92.264C402.938 92.264 403.95 91.032 404.214 90.614C404.5 91.406 405.138 92.044 406.656 92.154L407.316 90.438C407.316 90.438 406.216 90.416 406.216 89.184V84.982C406.216 82.76 405.468 81.792 403.114 81.792C400.496 81.792 398.802 83.046 398.802 83.046L399.374 84.674C399.374 84.674 400.892 83.53 402.52 83.53C404.126 83.53 404.038 84.63 404.038 85.884C400.32 86.368 398.142 87.622 398.142 89.712ZM401.552 90.548C400.914 90.548 400.386 90.262 400.386 89.558C400.386 88.392 401.508 87.666 404.038 87.292V89.008C403.378 89.778 402.564 90.548 401.552 90.548ZM409.947 89.294C409.947 91.34 411.069 92.264 412.785 92.264C414.545 92.264 415.843 91.208 415.843 91.208L415.293 89.558C415.029 89.712 414.105 90.438 413.269 90.438C412.543 90.438 412.125 89.954 412.125 88.744V83.706H415.271V82.056H412.125V79.24L409.991 79.702V81.968L408.473 82.518V83.706H409.947V89.294ZM427.485 82.144L429.399 81.066C428.365 79.966 428.079 79.35 428.079 78.646C428.079 77.876 428.453 77.194 429.289 76.556L428.453 75.676C427.045 76.754 426.319 78.074 426.319 79.394C426.319 80.34 426.649 81.242 427.485 82.144ZM423.635 82.144L425.549 81.066C424.515 79.966 424.229 79.35 424.229 78.646C424.229 77.876 424.603 77.194 425.439 76.556L424.603 75.676C423.195 76.754 422.469 78.074 422.469 79.394C422.469 80.34 422.799 81.242 423.635 82.144ZM432.096 92H434.362V77.326H432.096V92ZM442.532 87.16C442.532 90.042 444.534 92.264 447.636 92.264C450.012 92.264 451.156 90.988 451.156 90.988L450.452 89.448C450.452 89.448 449.374 90.482 447.79 90.482C445.92 90.482 444.798 89.008 444.798 87.05C444.798 85.026 446.008 83.552 447.812 83.552C449.264 83.552 450.298 84.476 450.298 84.476L451.156 82.848C451.156 82.848 449.946 81.792 447.768 81.792C444.49 81.792 442.532 84.41 442.532 87.16ZM452.518 89.712C452.518 91.186 453.64 92.264 455.378 92.264C457.314 92.264 458.326 91.032 458.59 90.614C458.876 91.406 459.514 92.044 461.032 92.154L461.692 90.438C461.692 90.438 460.592 90.416 460.592 89.184V84.982C460.592 82.76 459.844 81.792 457.49 81.792C454.872 81.792 453.178 83.046 453.178 83.046L453.75 84.674C453.75 84.674 455.268 83.53 456.896 83.53C458.502 83.53 458.414 84.63 458.414 85.884C454.696 86.368 452.518 87.622 452.518 89.712ZM455.928 90.548C455.29 90.548 454.762 90.262 454.762 89.558C454.762 88.392 455.884 87.666 458.414 87.292V89.008C457.754 89.778 456.94 90.548 455.928 90.548ZM463.838 92H466.016V85.554C466.698 84.894 468.106 83.684 469.206 83.684C469.954 83.684 470.394 84.212 470.394 85.62V92H472.572V84.828C472.572 82.694 471.494 81.792 469.932 81.792C468.106 81.792 466.676 83.002 465.972 83.772V81.88L463.838 82.232V92ZM480.173 87.336C480.173 90.064 481.845 92.264 484.441 92.264C486.025 92.264 487.037 91.494 487.565 90.636C487.675 91.34 487.873 92.154 487.873 92.154L489.963 92C489.963 92 489.523 90.152 489.523 88.942V76.27L487.345 76.622V82.122C487.059 82.012 486.399 81.792 485.497 81.792C481.977 81.792 480.173 84.498 480.173 87.336ZM484.815 90.526C483.407 90.526 482.461 89.272 482.461 87.204C482.461 84.828 483.715 83.508 485.607 83.508C486.509 83.508 487.301 83.838 487.345 84.828V88.92C487.037 89.382 486.157 90.526 484.815 90.526ZM491.967 87.072C491.967 89.712 493.749 92.264 497.049 92.264C500.635 92.264 502.219 89.25 502.219 86.83C502.219 84.278 500.437 81.792 497.137 81.792C493.573 81.792 491.967 84.586 491.967 87.072ZM494.233 86.874C494.233 84.894 495.399 83.53 497.093 83.53C499.117 83.53 499.953 85.356 499.953 87.116C499.953 89.118 498.787 90.526 497.115 90.526C495.135 90.526 494.233 88.722 494.233 86.874ZM308.068 119.294C308.068 121.34 309.19 122.264 310.906 122.264C312.666 122.264 313.964 121.208 313.964 121.208L313.414 119.558C313.15 119.712 312.226 120.438 311.39 120.438C310.664 120.438 310.246 119.954 310.246 118.744V113.706H313.392V112.056H310.246V109.24L308.112 109.702V111.968L306.594 112.518V113.706H308.068V119.294ZM315.854 122H318.032V115.598C318.692 114.938 320.122 113.684 321.222 113.684C321.97 113.684 322.41 114.212 322.41 115.62V122H324.588V114.828C324.588 112.694 323.51 111.792 321.926 111.792C320.1 111.792 318.692 113.024 318.032 113.728V106.27L315.854 106.622V122ZM328.663 109.68C329.455 109.68 330.049 109.108 330.049 108.338C330.049 107.568 329.455 106.996 328.663 106.996C327.893 106.996 327.299 107.568 327.299 108.338C327.299 109.108 327.893 109.68 328.663 109.68ZM327.563 122H329.741V112.056H327.563V122ZM332.145 121.384C332.145 121.384 333.377 122.264 335.445 122.264C337.887 122.264 339.317 121.054 339.317 119.25C339.317 116.082 334.543 116.236 334.543 114.498C334.543 113.926 335.027 113.508 336.127 113.508C337.403 113.508 338.547 114.124 338.547 114.124L339.053 112.342C339.053 112.342 337.953 111.792 336.215 111.792C333.465 111.792 332.365 113.134 332.365 114.674C332.365 117.798 337.139 117.666 337.139 119.448C337.139 120.086 336.589 120.548 335.423 120.548C333.817 120.548 332.607 119.536 332.607 119.536L332.145 121.384ZM345.66 112.144C347.068 111.044 347.794 109.746 347.794 108.404C347.794 107.458 347.464 106.556 346.628 105.676L344.714 106.732C345.748 107.832 346.034 108.448 346.034 109.152C346.034 109.922 345.66 110.604 344.824 111.242L345.66 112.144ZM341.81 112.144C343.218 111.044 343.944 109.746 343.944 108.404C343.944 107.458 343.614 106.556 342.778 105.676L340.842 106.732C341.898 107.832 342.184 108.448 342.184 109.152C342.184 109.922 341.81 110.604 340.974 111.242L341.81 112.144ZM357.518 122.088H359.63L362.182 115.004L364.47 122.088H366.604L370.168 112.056H367.946L365.548 119.536L363.216 112.056H361.324L358.75 119.58L356.572 112.056H354.328L357.518 122.088ZM373.136 109.68C373.928 109.68 374.522 109.108 374.522 108.338C374.522 107.568 373.928 106.996 373.136 106.996C372.366 106.996 371.772 107.568 371.772 108.338C371.772 109.108 372.366 109.68 373.136 109.68ZM372.036 122H374.214V112.056H372.036V122ZM377.849 119.294C377.849 121.34 378.971 122.264 380.687 122.264C382.447 122.264 383.745 121.208 383.745 121.208L383.195 119.558C382.931 119.712 382.007 120.438 381.171 120.438C380.445 120.438 380.027 119.954 380.027 118.744V113.706H383.173V112.056H380.027V109.24L377.893 109.702V111.968L376.375 112.518V113.706H377.849V119.294ZM385.636 122H387.814V115.598C388.474 114.938 389.904 113.684 391.004 113.684C391.752 113.684 392.192 114.212 392.192 115.62V122H394.37V114.828C394.37 112.694 393.292 111.792 391.708 111.792C389.882 111.792 388.474 113.024 387.814 113.728V106.27L385.636 106.622V122ZM403.158 119.294C403.158 121.34 404.28 122.264 405.996 122.264C407.756 122.264 409.054 121.208 409.054 121.208L408.504 119.558C408.24 119.712 407.316 120.438 406.48 120.438C405.754 120.438 405.336 119.954 405.336 118.744V113.706H408.482V112.056H405.336V109.24L403.202 109.702V111.968L401.684 112.518V113.706H403.158V119.294ZM410.944 122H413.122V115.598C413.782 114.938 415.212 113.684 416.312 113.684C417.06 113.684 417.5 114.212 417.5 115.62V122H419.678V114.828C419.678 112.694 418.6 111.792 417.016 111.792C415.19 111.792 413.782 113.024 413.122 113.728V106.27L410.944 106.622V122ZM421.993 117.182C421.993 119.844 423.687 122.264 427.009 122.264C429.495 122.264 431.013 120.834 431.013 120.834L430.397 119.25C430.397 119.25 429.011 120.482 427.339 120.482C425.601 120.482 424.501 119.316 424.259 117.512L429.693 116.786L430.947 116.434C430.947 113.42 429.231 111.792 426.855 111.792C423.951 111.792 421.993 114.146 421.993 117.182ZM426.701 113.486C428.439 113.486 428.571 115.51 428.571 115.51L424.259 116.06C424.457 114.608 425.293 113.486 426.701 113.486ZM438.68 122H440.858V115.84C441.276 115.18 442.178 113.992 443.278 113.992C443.718 113.992 444.158 114.168 444.158 114.168L444.598 111.968C444.598 111.968 444.29 111.792 443.74 111.792C442.222 111.792 441.21 113.2 440.814 113.882V111.88L438.68 112.232V122ZM447.472 109.68C448.264 109.68 448.858 109.108 448.858 108.338C448.858 107.568 448.264 106.996 447.472 106.996C446.702 106.996 446.108 107.568 446.108 108.338C446.108 109.108 446.702 109.68 447.472 109.68ZM446.372 122H448.55V112.056H446.372V122ZM451.591 120.24C451.591 120.922 452.229 121.318 453.219 121.648C452.163 122.198 450.689 123.144 450.689 124.596C450.689 126.334 452.845 127.214 455.045 127.214C458.037 127.214 460.479 125.52 460.479 123.518C460.479 121.692 458.477 121.142 456.717 120.702C454.649 120.196 453.681 119.998 453.681 119.602C453.681 119.36 454.033 119.096 454.495 118.788C454.715 118.832 454.957 118.832 455.221 118.832C457.355 118.832 459.621 117.666 459.621 115.488C459.621 114.608 459.203 114.014 458.895 113.662C459.159 113.706 459.467 113.728 459.709 113.728H460.897L460.743 111.99C460.743 111.99 460.083 112.21 459.423 112.21H458.279C457.179 112.21 456.607 111.792 455.397 111.792C453.175 111.792 451.173 113.046 451.173 115.268C451.173 116.61 451.899 117.776 453.153 118.392C452.339 118.854 451.591 119.514 451.591 120.24ZM455.463 122.22C457.311 122.704 458.345 122.99 458.345 123.848C458.345 124.838 456.937 125.63 455.177 125.63C453.923 125.63 452.647 125.234 452.647 124.244C452.647 123.254 453.857 122.594 454.803 122.066C455.023 122.11 455.243 122.154 455.463 122.22ZM455.375 117.292C453.967 117.292 453.307 116.28 453.307 115.334C453.307 114.3 454.055 113.332 455.375 113.332C456.783 113.332 457.465 114.476 457.465 115.444C457.465 116.566 456.585 117.292 455.375 117.292ZM462.786 122H464.964V115.598C465.624 114.938 467.054 113.684 468.154 113.684C468.902 113.684 469.342 114.212 469.342 115.62V122H471.52V114.828C471.52 112.694 470.442 111.792 468.858 111.792C467.032 111.792 465.624 113.024 464.964 113.728V106.27L462.786 106.622V122ZM475.023 119.294C475.023 121.34 476.145 122.264 477.861 122.264C479.621 122.264 480.919 121.208 480.919 121.208L480.369 119.558C480.105 119.712 479.181 120.438 478.345 120.438C477.619 120.438 477.201 119.954 477.201 118.744V113.706H480.347V112.056H477.201V109.24L475.067 109.702V111.968L473.549 112.518V113.706H475.023V119.294ZM306.836 151.384C306.836 151.384 308.068 152.264 310.136 152.264C312.578 152.264 314.008 151.054 314.008 149.25C314.008 146.082 309.234 146.236 309.234 144.498C309.234 143.926 309.718 143.508 310.818 143.508C312.094 143.508 313.238 144.124 313.238 144.124L313.744 142.342C313.744 142.342 312.644 141.792 310.906 141.792C308.156 141.792 307.056 143.134 307.056 144.674C307.056 147.798 311.83 147.666 311.83 149.448C311.83 150.086 311.28 150.548 310.114 150.548C308.508 150.548 307.298 149.536 307.298 149.536L306.836 151.384ZM316.282 149.272C316.282 151.406 317.382 152.264 318.988 152.264C320.814 152.264 322.2 151.098 322.838 150.416C322.948 151.142 323.168 152.176 323.168 152.176L325.28 151.978C325.28 151.978 324.84 150.152 324.84 148.942V142.056H322.662V148.744C322.046 149.316 320.814 150.372 319.692 150.372C318.878 150.372 318.46 149.822 318.46 148.436V142.056H316.282V149.272ZM327.949 157.126L330.127 156.774V151.736C330.545 152.044 331.293 152.264 332.217 152.264C335.385 152.264 337.233 149.668 337.233 146.72C337.233 144.014 335.649 141.792 333.031 141.792C331.469 141.792 330.523 142.606 330.061 143.464V141.88L327.949 142.232V157.126ZM332.657 143.596C333.999 143.596 334.945 144.806 334.945 146.874C334.945 149.25 333.691 150.548 331.821 150.548C330.787 150.548 330.127 150.174 330.127 149.426V145.202C330.413 144.784 331.337 143.596 332.657 143.596ZM339.615 157.126L341.793 156.774V151.736C342.211 152.044 342.959 152.264 343.883 152.264C347.051 152.264 348.899 149.668 348.899 146.72C348.899 144.014 347.315 141.792 344.697 141.792C343.135 141.792 342.189 142.606 341.727 143.464V141.88L339.615 142.232V157.126ZM344.323 143.596C345.665 143.596 346.611 144.806 346.611 146.874C346.611 149.25 345.357 150.548 343.487 150.548C342.453 150.548 341.793 150.174 341.793 149.426V145.202C342.079 144.784 343.003 143.596 344.323 143.596ZM350.643 147.072C350.643 149.712 352.425 152.264 355.725 152.264C359.311 152.264 360.895 149.25 360.895 146.83C360.895 144.278 359.113 141.792 355.813 141.792C352.249 141.792 350.643 144.586 350.643 147.072ZM352.909 146.874C352.909 144.894 354.075 143.53 355.769 143.53C357.793 143.53 358.629 145.356 358.629 147.116C358.629 149.118 357.463 150.526 355.791 150.526C353.811 150.526 352.909 148.722 352.909 146.874ZM363.248 152H365.426V145.84C365.844 145.18 366.746 143.992 367.846 143.992C368.286 143.992 368.726 144.168 368.726 144.168L369.166 141.968C369.166 141.968 368.858 141.792 368.308 141.792C366.79 141.792 365.778 143.2 365.382 143.882V141.88L363.248 142.232V152ZM371.468 149.294C371.468 151.34 372.59 152.264 374.306 152.264C376.066 152.264 377.364 151.208 377.364 151.208L376.814 149.558C376.55 149.712 375.626 150.438 374.79 150.438C374.064 150.438 373.646 149.954 373.646 148.744V143.706H376.792V142.056H373.646V139.24L371.512 139.702V141.968L369.994 142.518V143.706H371.468V149.294ZM378.925 150.79C378.925 151.604 379.585 152.264 380.399 152.264C381.213 152.264 381.895 151.604 381.895 150.79C381.895 149.954 381.213 149.294 380.399 149.294C379.585 149.294 378.925 149.954 378.925 150.79Z" fill="#333333"/>
<path d="M51.99 54.894C51.99 59.448 55.554 62.264 59.998 62.264C62.176 62.264 65.08 61.582 65.08 61.582V54.256H59.778V56.148H62.836V59.998C62.836 59.998 61.538 60.306 60.262 60.306C56.742 60.306 54.344 58.04 54.344 54.718C54.344 51.748 56.258 49.02 59.998 49.02C62.396 49.02 64.156 50.12 64.156 50.12L65.036 48.162C65.036 48.162 63.078 47.062 60.108 47.062C54.916 47.062 51.99 50.758 51.99 54.894ZM67.4373 54.696C67.4373 58.744 70.4513 62.264 75.0933 62.264C79.8893 62.264 83.0133 58.502 83.0133 54.388C83.0133 50.34 80.0213 47.062 75.2913 47.062C70.2533 47.062 67.4373 50.824 67.4373 54.696ZM69.8353 54.586C69.8353 51.77 71.7493 48.998 75.2253 48.998C78.7013 48.998 80.6153 51.726 80.6153 54.564C80.6153 57.424 78.6133 60.328 75.1593 60.328C71.6833 60.328 69.8353 57.314 69.8353 54.586ZM84.0481 62H86.3141L87.7441 58.084H93.5961L95.0481 62H97.3801L91.7921 47.216H89.6361L84.0481 62ZM90.6701 50.12L92.9141 56.192H88.4481L90.6701 50.12ZM99.6016 62H108.732V60.108H101.868V47.326H99.6016V62ZM115.457 62H122.343V60.24H120.077V51.616H115.589V53.354H117.921V60.24H115.457V62ZM53.002 92H55.268V86.104H57.534L61.45 92H64.134L59.822 85.576C61.296 84.894 62.638 83.508 62.638 81.506C62.638 79.284 61.098 77.326 57.314 77.326H53.002V92ZM55.268 84.212V79.218H56.94C59.382 79.218 60.24 80.34 60.24 81.66C60.24 83.288 58.92 84.212 57.27 84.212H55.268ZM64.921 87.182C64.921 89.844 66.615 92.264 69.937 92.264C72.423 92.264 73.941 90.834 73.941 90.834L73.325 89.25C73.325 89.25 71.939 90.482 70.267 90.482C68.529 90.482 67.429 89.316 67.187 87.512L72.621 86.786L73.875 86.434C73.875 83.42 72.159 81.792 69.783 81.792C66.879 81.792 64.921 84.146 64.921 87.182ZM69.629 83.486C71.367 83.486 71.499 85.51 71.499 85.51L67.187 86.06C67.385 84.608 68.221 83.486 69.629 83.486ZM75.5302 89.712C75.5302 91.186 76.6522 92.264 78.3902 92.264C80.3262 92.264 81.3382 91.032 81.6022 90.614C81.8882 91.406 82.5262 92.044 84.0442 92.154L84.7042 90.438C84.7042 90.438 83.6042 90.416 83.6042 89.184V84.982C83.6042 82.76 82.8562 81.792 80.5022 81.792C77.8842 81.792 76.1902 83.046 76.1902 83.046L76.7622 84.674C76.7622 84.674 78.2802 83.53 79.9082 83.53C81.5142 83.53 81.4262 84.63 81.4262 85.884C77.7082 86.368 75.5302 87.622 75.5302 89.712ZM78.9402 90.548C78.3022 90.548 77.7742 90.262 77.7742 89.558C77.7742 88.392 78.8962 87.666 81.4262 87.292V89.008C80.7662 89.778 79.9522 90.548 78.9402 90.548ZM86.8935 92H89.0715V76.27L86.8935 76.622V92ZM93.2787 79.68C94.0707 79.68 94.6647 79.108 94.6647 78.338C94.6647 77.568 94.0707 76.996 93.2787 76.996C92.5087 76.996 91.9147 77.568 91.9147 78.338C91.9147 79.108 92.5087 79.68 93.2787 79.68ZM92.1787 92H94.3567V82.056H92.1787V92ZM96.7818 92H104.768V90.24H99.5318L104.592 83.376V82.056H96.9578V83.816H101.732L96.7818 90.68V92ZM106.407 87.182C106.407 89.844 108.101 92.264 111.423 92.264C113.909 92.264 115.427 90.834 115.427 90.834L114.811 89.25C114.811 89.25 113.425 90.482 111.753 90.482C110.015 90.482 108.915 89.316 108.673 87.512L114.107 86.786L115.361 86.434C115.361 83.42 113.645 81.792 111.269 81.792C108.365 81.792 106.407 84.146 106.407 87.182ZM111.115 83.486C112.853 83.486 112.985 85.51 112.985 85.51L108.673 86.06C108.871 84.608 109.707 83.486 111.115 83.486ZM123.666 89.294C123.666 91.34 124.788 92.264 126.504 92.264C128.264 92.264 129.562 91.208 129.562 91.208L129.012 89.558C128.748 89.712 127.824 90.438 126.988 90.438C126.262 90.438 125.844 89.954 125.844 88.744V83.706H128.99V82.056H125.844V79.24L123.71 79.702V81.968L122.192 82.518V83.706H123.666V89.294ZM131.452 92H133.63V85.598C134.29 84.938 135.72 83.684 136.82 83.684C137.568 83.684 138.008 84.212 138.008 85.62V92H140.186V84.828C140.186 82.694 139.108 81.792 137.524 81.792C135.698 81.792 134.29 83.024 133.63 83.728V76.27L131.452 76.622V92ZM142.325 89.712C142.325 91.186 143.447 92.264 145.185 92.264C147.121 92.264 148.133 91.032 148.397 90.614C148.683 91.406 149.321 92.044 150.839 92.154L151.499 90.438C151.499 90.438 150.399 90.416 150.399 89.184V84.982C150.399 82.76 149.651 81.792 147.297 81.792C144.679 81.792 142.985 83.046 142.985 83.046L143.557 84.674C143.557 84.674 145.075 83.53 146.703 83.53C148.309 83.53 148.221 84.63 148.221 85.884C144.503 86.368 142.325 87.622 142.325 89.712ZM145.735 90.548C145.097 90.548 144.569 90.262 144.569 89.558C144.569 88.392 145.691 87.666 148.221 87.292V89.008C147.561 89.778 146.747 90.548 145.735 90.548ZM154.131 89.294C154.131 91.34 155.253 92.264 156.969 92.264C158.729 92.264 160.027 91.208 160.027 91.208L159.477 89.558C159.213 89.712 158.289 90.438 157.453 90.438C156.727 90.438 156.309 89.954 156.309 88.744V83.706H159.455V82.056H156.309V79.24L154.175 79.702V81.968L152.657 82.518V83.706H154.131V89.294ZM167.664 92H169.93V77.326H167.664V92ZM178.1 87.16C178.1 90.042 180.102 92.264 183.204 92.264C185.58 92.264 186.724 90.988 186.724 90.988L186.02 89.448C186.02 89.448 184.942 90.482 183.358 90.482C181.488 90.482 180.366 89.008 180.366 87.05C180.366 85.026 181.576 83.552 183.38 83.552C184.832 83.552 185.866 84.476 185.866 84.476L186.724 82.848C186.724 82.848 185.514 81.792 183.336 81.792C180.058 81.792 178.1 84.41 178.1 87.16ZM188.087 89.712C188.087 91.186 189.209 92.264 190.947 92.264C192.883 92.264 193.895 91.032 194.159 90.614C194.445 91.406 195.083 92.044 196.601 92.154L197.261 90.438C197.261 90.438 196.161 90.416 196.161 89.184V84.982C196.161 82.76 195.413 81.792 193.059 81.792C190.441 81.792 188.747 83.046 188.747 83.046L189.319 84.674C189.319 84.674 190.837 83.53 192.465 83.53C194.071 83.53 193.983 84.63 193.983 85.884C190.265 86.368 188.087 87.622 188.087 89.712ZM191.497 90.548C190.859 90.548 190.331 90.262 190.331 89.558C190.331 88.392 191.453 87.666 193.983 87.292V89.008C193.323 89.778 192.509 90.548 191.497 90.548ZM199.406 92H201.584V85.554C202.266 84.894 203.674 83.684 204.774 83.684C205.522 83.684 205.962 84.212 205.962 85.62V92H208.14V84.828C208.14 82.694 207.062 81.792 205.5 81.792C203.674 81.792 202.244 83.002 201.54 83.772V81.88L199.406 82.232V92ZM216.401 92H218.579V76.27L216.401 76.622V92ZM222.786 79.68C223.578 79.68 224.172 79.108 224.172 78.338C224.172 77.568 223.578 76.996 222.786 76.996C222.016 76.996 221.422 77.568 221.422 78.338C221.422 79.108 222.016 79.68 222.786 79.68ZM221.686 92H223.864V82.056H221.686V92ZM229.326 92.088H231.35L235.442 82.056H233.22L230.426 89.272L228.006 82.056H225.718L229.326 92.088ZM236.452 87.182C236.452 89.844 238.146 92.264 241.468 92.264C243.954 92.264 245.472 90.834 245.472 90.834L244.856 89.25C244.856 89.25 243.47 90.482 241.798 90.482C240.06 90.482 238.96 89.316 238.718 87.512L244.152 86.786L245.406 86.434C245.406 83.42 243.69 81.792 241.314 81.792C238.41 81.792 236.452 84.146 236.452 87.182ZM241.16 83.486C242.898 83.486 243.03 85.51 243.03 85.51L238.718 86.06C238.916 84.608 239.752 83.486 241.16 83.486ZM252.347 89.712C252.347 91.186 253.469 92.264 255.207 92.264C257.143 92.264 258.155 91.032 258.419 90.614C258.705 91.406 259.343 92.044 260.861 92.154L261.521 90.438C261.521 90.438 260.421 90.416 260.421 89.184V84.982C260.421 82.76 259.673 81.792 257.319 81.792C254.701 81.792 253.007 83.046 253.007 83.046L253.579 84.674C253.579 84.674 255.097 83.53 256.725 83.53C258.331 83.53 258.243 84.63 258.243 85.884C254.525 86.368 252.347 87.622 252.347 89.712ZM255.757 90.548C255.119 90.548 254.591 90.262 254.591 89.558C254.591 88.392 255.713 87.666 258.243 87.292V89.008C257.583 89.778 256.769 90.548 255.757 90.548ZM51.55 113.706H53.112V122H55.29V113.706H58.04V112.056H55.29V110.868C55.29 108.536 56.346 107.722 57.512 107.722C58.59 107.722 59.558 108.426 59.558 108.426L60.416 106.754C60.416 106.754 59.272 105.918 57.534 105.918C54.938 105.918 53.112 107.744 53.112 111V111.968L51.55 112.54V113.706ZM59.928 119.272C59.928 121.406 61.028 122.264 62.634 122.264C64.46 122.264 65.846 121.098 66.484 120.416C66.594 121.142 66.814 122.176 66.814 122.176L68.926 121.978C68.926 121.978 68.486 120.152 68.486 118.942V112.056H66.308V118.744C65.692 119.316 64.46 120.372 63.338 120.372C62.524 120.372 62.106 119.822 62.106 118.436V112.056H59.928V119.272ZM71.6396 122H73.8176V106.27L71.6396 106.622V122ZM76.9248 122H79.1028V106.27L76.9248 106.622V122ZM87.4951 122H89.6731V106.27L87.4951 106.622V122ZM93.8802 109.68C94.6722 109.68 95.2662 109.108 95.2662 108.338C95.2662 107.568 94.6722 106.996 93.8802 106.996C93.1102 106.996 92.5162 107.568 92.5162 108.338C92.5162 109.108 93.1102 109.68 93.8802 109.68ZM92.7802 122H94.9582V112.056H92.7802V122ZM97.0754 113.706H98.6374V122H100.815V113.706H103.565V112.056H100.815V110.868C100.815 108.536 101.871 107.722 103.037 107.722C104.115 107.722 105.083 108.426 105.083 108.426L105.941 106.754C105.941 106.754 104.797 105.918 103.059 105.918C100.463 105.918 98.6374 107.744 98.6374 111V111.968L97.0754 112.54V113.706ZM104.753 117.182C104.753 119.844 106.447 122.264 109.769 122.264C112.255 122.264 113.773 120.834 113.773 120.834L113.157 119.25C113.157 119.25 111.771 120.482 110.099 120.482C108.361 120.482 107.261 119.316 107.019 117.512L112.453 116.786L113.707 116.434C113.707 113.42 111.991 111.792 109.615 111.792C106.711 111.792 104.753 114.146 104.753 117.182ZM109.461 113.486C111.199 113.486 111.331 115.51 111.331 115.51L107.019 116.06C107.217 114.608 108.053 113.486 109.461 113.486ZM120.823 117.182C120.823 119.844 122.517 122.264 125.839 122.264C128.325 122.264 129.843 120.834 129.843 120.834L129.227 119.25C129.227 119.25 127.841 120.482 126.169 120.482C124.431 120.482 123.331 119.316 123.089 117.512L128.523 116.786L129.777 116.434C129.777 113.42 128.061 111.792 125.685 111.792C122.781 111.792 120.823 114.146 120.823 117.182ZM125.531 113.486C127.269 113.486 127.401 115.51 127.401 115.51L123.089 116.06C123.287 114.608 124.123 113.486 125.531 113.486ZM134.623 122.088H136.647L140.739 112.056H138.517L135.723 119.272L133.303 112.056H131.015L134.623 122.088ZM141.749 117.182C141.749 119.844 143.443 122.264 146.765 122.264C149.251 122.264 150.769 120.834 150.769 120.834L150.153 119.25C150.153 119.25 148.767 120.482 147.095 120.482C145.357 120.482 144.257 119.316 144.015 117.512L149.449 116.786L150.703 116.434C150.703 113.42 148.987 111.792 146.611 111.792C143.707 111.792 141.749 114.146 141.749 117.182ZM146.457 113.486C148.195 113.486 148.327 115.51 148.327 115.51L144.015 116.06C144.213 114.608 145.049 113.486 146.457 113.486ZM153.15 122H155.328V115.554C156.01 114.894 157.418 113.684 158.518 113.684C159.266 113.684 159.706 114.212 159.706 115.62V122H161.884V114.828C161.884 112.694 160.806 111.792 159.244 111.792C157.418 111.792 155.988 113.002 155.284 113.772V111.88L153.15 112.232V122ZM172.191 122.088H174.303L176.855 115.004L179.143 122.088H181.277L184.841 112.056H182.619L180.221 119.536L177.889 112.056H175.997L173.423 119.58L171.245 112.056H169.001L172.191 122.088ZM187.81 109.68C188.602 109.68 189.196 109.108 189.196 108.338C189.196 107.568 188.602 106.996 187.81 106.996C187.04 106.996 186.446 107.568 186.446 108.338C186.446 109.108 187.04 109.68 187.81 109.68ZM186.71 122H188.888V112.056H186.71V122ZM192.523 119.294C192.523 121.34 193.645 122.264 195.361 122.264C197.121 122.264 198.419 121.208 198.419 121.208L197.869 119.558C197.605 119.712 196.681 120.438 195.845 120.438C195.119 120.438 194.701 119.954 194.701 118.744V113.706H197.847V112.056H194.701V109.24L192.567 109.702V111.968L191.049 112.518V113.706H192.523V119.294ZM200.31 122H202.488V115.598C203.148 114.938 204.578 113.684 205.678 113.684C206.426 113.684 206.866 114.212 206.866 115.62V122H209.044V114.828C209.044 112.694 207.966 111.792 206.382 111.792C204.556 111.792 203.148 113.024 202.488 113.728V106.27L200.31 106.622V122ZM216.468 119.712C216.468 121.186 217.59 122.264 219.328 122.264C221.264 122.264 222.276 121.032 222.54 120.614C222.826 121.406 223.464 122.044 224.982 122.154L225.642 120.438C225.642 120.438 224.542 120.416 224.542 119.184V114.982C224.542 112.76 223.794 111.792 221.44 111.792C218.822 111.792 217.128 113.046 217.128 113.046L217.7 114.674C217.7 114.674 219.218 113.53 220.846 113.53C222.452 113.53 222.364 114.63 222.364 115.884C218.646 116.368 216.468 117.622 216.468 119.712ZM219.878 120.548C219.24 120.548 218.712 120.262 218.712 119.558C218.712 118.392 219.834 117.666 222.364 117.292V119.008C221.704 119.778 220.89 120.548 219.878 120.548ZM51.858 147.16C51.858 150.042 53.86 152.264 56.962 152.264C59.338 152.264 60.482 150.988 60.482 150.988L59.778 149.448C59.778 149.448 58.7 150.482 57.116 150.482C55.246 150.482 54.124 149.008 54.124 147.05C54.124 145.026 55.334 143.552 57.138 143.552C58.59 143.552 59.624 144.476 59.624 144.476L60.482 142.848C60.482 142.848 59.272 141.792 57.094 141.792C53.816 141.792 51.858 144.41 51.858 147.16ZM62.6806 152H64.8586V145.598C65.5186 144.938 66.9486 143.684 68.0486 143.684C68.7966 143.684 69.2366 144.212 69.2366 145.62V152H71.4146V144.828C71.4146 142.694 70.3366 141.792 68.7526 141.792C66.9266 141.792 65.5186 143.024 64.8586 143.728V136.27L62.6806 136.622V152ZM74.3456 152H76.5236V145.84C76.9416 145.18 77.8436 143.992 78.9436 143.992C79.3836 143.992 79.8236 144.168 79.8236 144.168L80.2636 141.968C80.2636 141.968 79.9556 141.792 79.4056 141.792C77.8876 141.792 76.8756 143.2 76.4796 143.882V141.88L74.3456 142.232V152ZM81.1842 147.072C81.1842 149.712 82.9662 152.264 86.2662 152.264C89.8522 152.264 91.4362 149.25 91.4362 146.83C91.4362 144.278 89.6542 141.792 86.3542 141.792C82.7902 141.792 81.1842 144.586 81.1842 147.072ZM83.4502 146.874C83.4502 144.894 84.6162 143.53 86.3102 143.53C88.3342 143.53 89.1702 145.356 89.1702 147.116C89.1702 149.118 88.0042 150.526 86.3322 150.526C84.3522 150.526 83.4502 148.722 83.4502 146.874ZM93.789 152H95.967V145.554C96.649 144.894 98.057 143.684 99.157 143.684C99.905 143.684 100.345 144.212 100.345 145.62V152H102.523V144.828C102.523 142.694 101.445 141.792 99.883 141.792C98.057 141.792 96.627 143.002 95.923 143.772V141.88L93.789 142.232V152ZM106.599 139.68C107.391 139.68 107.985 139.108 107.985 138.338C107.985 137.568 107.391 136.996 106.599 136.996C105.829 136.996 105.235 137.568 105.235 138.338C105.235 139.108 105.829 139.68 106.599 139.68ZM105.499 152H107.677V142.056H105.499V152ZM110.102 147.16C110.102 150.042 112.104 152.264 115.206 152.264C117.582 152.264 118.726 150.988 118.726 150.988L118.022 149.448C118.022 149.448 116.944 150.482 115.36 150.482C113.49 150.482 112.368 149.008 112.368 147.05C112.368 145.026 113.578 143.552 115.382 143.552C116.834 143.552 117.868 144.476 117.868 144.476L118.726 142.848C118.726 142.848 117.516 141.792 115.338 141.792C112.06 141.792 110.102 144.41 110.102 147.16ZM127.31 139.68C128.102 139.68 128.696 139.108 128.696 138.338C128.696 137.568 128.102 136.996 127.31 136.996C126.54 136.996 125.946 137.568 125.946 138.338C125.946 139.108 126.54 139.68 127.31 139.68ZM126.21 152H128.388V142.056H126.21V152ZM131.495 152H133.673V136.27L131.495 136.622V152ZM136.78 152H138.958V136.27L136.78 136.622V152ZM142.021 152H144.199V145.554C144.881 144.894 146.289 143.684 147.389 143.684C148.137 143.684 148.577 144.212 148.577 145.62V152H150.755V144.828C150.755 142.694 149.677 141.792 148.115 141.792C146.289 141.792 144.859 143.002 144.155 143.772V141.88L142.021 142.232V152ZM153.071 147.182C153.071 149.844 154.765 152.264 158.087 152.264C160.573 152.264 162.091 150.834 162.091 150.834L161.475 149.25C161.475 149.25 160.089 150.482 158.417 150.482C156.679 150.482 155.579 149.316 155.337 147.512L160.771 146.786L162.025 146.434C162.025 143.42 160.309 141.792 157.933 141.792C155.029 141.792 153.071 144.146 153.071 147.182ZM157.779 143.486C159.517 143.486 159.649 145.51 159.649 145.51L155.337 146.06C155.535 144.608 156.371 143.486 157.779 143.486ZM163.813 151.384C163.813 151.384 165.045 152.264 167.113 152.264C169.555 152.264 170.985 151.054 170.985 149.25C170.985 146.082 166.211 146.236 166.211 144.498C166.211 143.926 166.695 143.508 167.795 143.508C169.071 143.508 170.215 144.124 170.215 144.124L170.721 142.342C170.721 142.342 169.621 141.792 167.883 141.792C165.133 141.792 164.033 143.134 164.033 144.674C164.033 147.798 168.807 147.666 168.807 149.448C168.807 150.086 168.257 150.548 167.091 150.548C165.485 150.548 164.275 149.536 164.275 149.536L163.813 151.384ZM172.664 151.384C172.664 151.384 173.896 152.264 175.964 152.264C178.406 152.264 179.836 151.054 179.836 149.25C179.836 146.082 175.062 146.236 175.062 144.498C175.062 143.926 175.546 143.508 176.646 143.508C177.922 143.508 179.066 144.124 179.066 144.124L179.572 142.342C179.572 142.342 178.472 141.792 176.734 141.792C173.984 141.792 172.884 143.134 172.884 144.674C172.884 147.798 177.658 147.666 177.658 149.448C177.658 150.086 177.108 150.548 175.942 150.548C174.336 150.548 173.126 149.536 173.126 149.536L172.664 151.384ZM181.89 150.79C181.89 151.604 182.55 152.264 183.364 152.264C184.178 152.264 184.86 151.604 184.86 150.79C184.86 149.954 184.178 149.294 183.364 149.294C182.55 149.294 181.89 149.954 181.89 150.79Z" fill="#333333"/>
<path d="M816.99 54.894C816.99 59.448 820.554 62.264 824.998 62.264C827.176 62.264 830.08 61.582 830.08 61.582V54.256H824.778V56.148H827.836V59.998C827.836 59.998 826.538 60.306 825.262 60.306C821.742 60.306 819.344 58.04 819.344 54.718C819.344 51.748 821.258 49.02 824.998 49.02C827.396 49.02 829.156 50.12 829.156 50.12L830.036 48.162C830.036 48.162 828.078 47.062 825.108 47.062C819.916 47.062 816.99 50.758 816.99 54.894ZM832.437 54.696C832.437 58.744 835.451 62.264 840.093 62.264C844.889 62.264 848.013 58.502 848.013 54.388C848.013 50.34 845.021 47.062 840.291 47.062C835.253 47.062 832.437 50.824 832.437 54.696ZM834.835 54.586C834.835 51.77 836.749 48.998 840.225 48.998C843.701 48.998 845.615 51.726 845.615 54.564C845.615 57.424 843.613 60.328 840.159 60.328C836.683 60.328 834.835 57.314 834.835 54.586ZM849.048 62H851.314L852.744 58.084H858.596L860.048 62H862.38L856.792 47.216H854.636L849.048 62ZM855.67 50.12L857.914 56.192H853.448L855.67 50.12ZM864.602 62H873.732V60.108H866.868V47.326H864.602V62ZM879.929 61.56H886.111V66.246H888.245V61.56H890.291V59.866H888.245V51.44H886.177L879.929 60.108V61.56ZM882.151 59.866L886.111 54.256V59.866H882.151ZM818.002 92H820.268V85.62H825.438V83.662H820.268V79.218H826.802V77.326H818.002V92ZM827.536 87.182C827.536 89.844 829.23 92.264 832.552 92.264C835.038 92.264 836.556 90.834 836.556 90.834L835.94 89.25C835.94 89.25 834.554 90.482 832.882 90.482C831.144 90.482 830.044 89.316 829.802 87.512L835.236 86.786L836.49 86.434C836.49 83.42 834.774 81.792 832.398 81.792C829.494 81.792 827.536 84.146 827.536 87.182ZM832.244 83.486C833.982 83.486 834.114 85.51 834.114 85.51L829.802 86.06C830 84.608 830.836 83.486 832.244 83.486ZM838.321 87.182C838.321 89.844 840.015 92.264 843.337 92.264C845.823 92.264 847.341 90.834 847.341 90.834L846.725 89.25C846.725 89.25 845.339 90.482 843.667 90.482C841.929 90.482 840.829 89.316 840.587 87.512L846.021 86.786L847.275 86.434C847.275 83.42 845.559 81.792 843.183 81.792C840.279 81.792 838.321 84.146 838.321 87.182ZM843.029 83.486C844.767 83.486 844.899 85.51 844.899 85.51L840.587 86.06C840.785 84.608 841.621 83.486 843.029 83.486ZM849.767 92H851.945V76.27L849.767 76.622V92ZM860.337 92H862.515V85.598C863.175 84.938 864.605 83.684 865.705 83.684C866.453 83.684 866.893 84.212 866.893 85.62V92H869.071V84.828C869.071 82.694 867.993 81.792 866.409 81.792C864.583 81.792 863.175 83.024 862.515 83.728V76.27L860.337 76.622V92ZM871.364 87.072C871.364 89.712 873.146 92.264 876.446 92.264C880.032 92.264 881.616 89.25 881.616 86.83C881.616 84.278 879.834 81.792 876.534 81.792C872.97 81.792 871.364 84.586 871.364 87.072ZM873.63 86.874C873.63 84.894 874.796 83.53 876.49 83.53C878.514 83.53 879.35 85.356 879.35 87.116C879.35 89.118 878.184 90.526 876.512 90.526C874.532 90.526 873.63 88.722 873.63 86.874ZM883.969 97.126L886.147 96.774V91.736C886.565 92.044 887.313 92.264 888.237 92.264C891.405 92.264 893.253 89.668 893.253 86.72C893.253 84.014 891.669 81.792 889.051 81.792C887.489 81.792 886.543 82.606 886.081 83.464V81.88L883.969 82.232V97.126ZM888.677 83.596C890.019 83.596 890.965 84.806 890.965 86.874C890.965 89.25 889.711 90.548 887.841 90.548C886.807 90.548 886.147 90.174 886.147 89.426V85.202C886.433 84.784 887.357 83.596 888.677 83.596ZM895.019 87.182C895.019 89.844 896.713 92.264 900.035 92.264C902.521 92.264 904.039 90.834 904.039 90.834L903.423 89.25C903.423 89.25 902.037 90.482 900.365 90.482C898.627 90.482 897.527 89.316 897.285 87.512L902.719 86.786L903.973 86.434C903.973 83.42 902.257 81.792 899.881 81.792C896.977 81.792 895.019 84.146 895.019 87.182ZM899.727 83.486C901.465 83.486 901.597 85.51 901.597 85.51L897.285 86.06C897.483 84.608 898.319 83.486 899.727 83.486ZM905.474 83.706H907.036V92H909.214V83.706H911.964V82.056H909.214V80.868C909.214 78.536 910.27 77.722 911.436 77.722C912.514 77.722 913.482 78.426 913.482 78.426L914.34 76.754C914.34 76.754 913.196 75.918 911.458 75.918C908.862 75.918 907.036 77.744 907.036 81V81.968L905.474 82.54V83.706ZM913.852 89.272C913.852 91.406 914.952 92.264 916.558 92.264C918.384 92.264 919.77 91.098 920.408 90.416C920.518 91.142 920.738 92.176 920.738 92.176L922.85 91.978C922.85 91.978 922.41 90.152 922.41 88.942V82.056H920.232V88.744C919.616 89.316 918.384 90.372 917.262 90.372C916.448 90.372 916.03 89.822 916.03 88.436V82.056H913.852V89.272ZM925.563 92H927.741V76.27L925.563 76.622V92ZM936.662 89.294C936.662 91.34 937.784 92.264 939.5 92.264C941.26 92.264 942.558 91.208 942.558 91.208L942.008 89.558C941.744 89.712 940.82 90.438 939.984 90.438C939.258 90.438 938.84 89.954 938.84 88.744V83.706H941.986V82.056H938.84V79.24L936.706 79.702V81.968L935.188 82.518V83.706H936.662V89.294ZM944.448 92H946.626V85.598C947.286 84.938 948.716 83.684 949.816 83.684C950.564 83.684 951.004 84.212 951.004 85.62V92H953.182V84.828C953.182 82.694 952.104 81.792 950.52 81.792C948.694 81.792 947.286 83.024 946.626 83.728V76.27L944.448 76.622V92ZM955.321 89.712C955.321 91.186 956.443 92.264 958.181 92.264C960.117 92.264 961.129 91.032 961.393 90.614C961.679 91.406 962.317 92.044 963.835 92.154L964.495 90.438C964.495 90.438 963.395 90.416 963.395 89.184V84.982C963.395 82.76 962.647 81.792 960.293 81.792C957.675 81.792 955.981 83.046 955.981 83.046L956.553 84.674C956.553 84.674 958.071 83.53 959.699 83.53C961.305 83.53 961.217 84.63 961.217 85.884C957.499 86.368 955.321 87.622 955.321 89.712ZM958.731 90.548C958.093 90.548 957.565 90.262 957.565 89.558C957.565 88.392 958.687 87.666 961.217 87.292V89.008C960.557 89.778 959.743 90.548 958.731 90.548ZM967.127 89.294C967.127 91.34 968.249 92.264 969.965 92.264C971.725 92.264 973.023 91.208 973.023 91.208L972.473 89.558C972.209 89.712 971.285 90.438 970.449 90.438C969.723 90.438 969.305 89.954 969.305 88.744V83.706H972.451V82.056H969.305V79.24L967.171 79.702V81.968L965.653 82.518V83.706H967.127V89.294ZM980.66 92H982.926V77.326H980.66V92ZM991.096 87.16C991.096 90.042 993.098 92.264 996.2 92.264C998.576 92.264 999.72 90.988 999.72 90.988L999.016 89.448C999.016 89.448 997.938 90.482 996.354 90.482C994.484 90.482 993.362 89.008 993.362 87.05C993.362 85.026 994.572 83.552 996.376 83.552C997.828 83.552 998.862 84.476 998.862 84.476L999.72 82.848C999.72 82.848 998.51 81.792 996.332 81.792C993.054 81.792 991.096 84.41 991.096 87.16ZM1001.08 89.712C1001.08 91.186 1002.2 92.264 1003.94 92.264C1005.88 92.264 1006.89 91.032 1007.15 90.614C1007.44 91.406 1008.08 92.044 1009.6 92.154L1010.26 90.438C1010.26 90.438 1009.16 90.416 1009.16 89.184V84.982C1009.16 82.76 1008.41 81.792 1006.05 81.792C1003.44 81.792 1001.74 83.046 1001.74 83.046L1002.31 84.674C1002.31 84.674 1003.83 83.53 1005.46 83.53C1007.07 83.53 1006.98 84.63 1006.98 85.884C1003.26 86.368 1001.08 87.622 1001.08 89.712ZM1004.49 90.548C1003.85 90.548 1003.33 90.262 1003.33 89.558C1003.33 88.392 1004.45 87.666 1006.98 87.292V89.008C1006.32 89.778 1005.5 90.548 1004.49 90.548ZM1012.4 92H1014.58V85.554C1015.26 84.894 1016.67 83.684 1017.77 83.684C1018.52 83.684 1018.96 84.212 1018.96 85.62V92H1021.14V84.828C1021.14 82.694 1020.06 81.792 1018.5 81.792C1016.67 81.792 1015.24 83.002 1014.54 83.772V81.88L1012.4 82.232V92ZM817.474 120.24C817.474 120.922 818.112 121.318 819.102 121.648C818.046 122.198 816.572 123.144 816.572 124.596C816.572 126.334 818.728 127.214 820.928 127.214C823.92 127.214 826.362 125.52 826.362 123.518C826.362 121.692 824.36 121.142 822.6 120.702C820.532 120.196 819.564 119.998 819.564 119.602C819.564 119.36 819.916 119.096 820.378 118.788C820.598 118.832 820.84 118.832 821.104 118.832C823.238 118.832 825.504 117.666 825.504 115.488C825.504 114.608 825.086 114.014 824.778 113.662C825.042 113.706 825.35 113.728 825.592 113.728H826.78L826.626 111.99C826.626 111.99 825.966 112.21 825.306 112.21H824.162C823.062 112.21 822.49 111.792 821.28 111.792C819.058 111.792 817.056 113.046 817.056 115.268C817.056 116.61 817.782 117.776 819.036 118.392C818.222 118.854 817.474 119.514 817.474 120.24ZM821.346 122.22C823.194 122.704 824.228 122.99 824.228 123.848C824.228 124.838 822.82 125.63 821.06 125.63C819.806 125.63 818.53 125.234 818.53 124.244C818.53 123.254 819.74 122.594 820.686 122.066C820.906 122.11 821.126 122.154 821.346 122.22ZM821.258 117.292C819.85 117.292 819.19 116.28 819.19 115.334C819.19 114.3 819.938 113.332 821.258 113.332C822.666 113.332 823.348 114.476 823.348 115.444C823.348 116.566 822.468 117.292 821.258 117.292ZM828.009 117.182C828.009 119.844 829.703 122.264 833.025 122.264C835.511 122.264 837.029 120.834 837.029 120.834L836.413 119.25C836.413 119.25 835.027 120.482 833.355 120.482C831.617 120.482 830.517 119.316 830.275 117.512L835.709 116.786L836.963 116.434C836.963 113.42 835.247 111.792 832.871 111.792C829.967 111.792 828.009 114.146 828.009 117.182ZM832.717 113.486C834.455 113.486 834.587 115.51 834.587 115.51L830.275 116.06C830.473 114.608 831.309 113.486 832.717 113.486ZM839.982 119.294C839.982 121.34 841.104 122.264 842.82 122.264C844.58 122.264 845.878 121.208 845.878 121.208L845.328 119.558C845.064 119.712 844.14 120.438 843.304 120.438C842.578 120.438 842.16 119.954 842.16 118.744V113.706H845.306V112.056H842.16V109.24L840.026 109.702V111.968L838.508 112.518V113.706H839.982V119.294ZM853.01 121.78C853.758 121.956 855.452 122.264 856.64 122.264C860.402 122.264 862.206 119.58 862.206 116.676C862.206 113.948 860.622 111.792 857.872 111.792C856.508 111.792 855.694 112.342 855.188 112.914V106.27L853.01 106.622V121.78ZM857.52 113.552C858.972 113.552 859.962 114.762 859.962 116.83C859.962 119.294 858.576 120.614 856.684 120.614C855.87 120.614 855.188 120.394 855.188 120.394V114.586C855.65 114.168 856.486 113.552 857.52 113.552ZM863.819 119.712C863.819 121.186 864.941 122.264 866.679 122.264C868.615 122.264 869.627 121.032 869.891 120.614C870.177 121.406 870.815 122.044 872.333 122.154L872.993 120.438C872.993 120.438 871.893 120.416 871.893 119.184V114.982C871.893 112.76 871.145 111.792 868.791 111.792C866.173 111.792 864.479 113.046 864.479 113.046L865.051 114.674C865.051 114.674 866.569 113.53 868.197 113.53C869.803 113.53 869.715 114.63 869.715 115.884C865.997 116.368 863.819 117.622 863.819 119.712ZM867.229 120.548C866.591 120.548 866.063 120.262 866.063 119.558C866.063 118.392 867.185 117.666 869.715 117.292V119.008C869.055 119.778 868.241 120.548 867.229 120.548ZM874.501 117.16C874.501 120.042 876.503 122.264 879.605 122.264C881.981 122.264 883.125 120.988 883.125 120.988L882.421 119.448C882.421 119.448 881.343 120.482 879.759 120.482C877.889 120.482 876.767 119.008 876.767 117.05C876.767 115.026 877.977 113.552 879.781 113.552C881.233 113.552 882.267 114.476 882.267 114.476L883.125 112.848C883.125 112.848 881.915 111.792 879.737 111.792C876.459 111.792 874.501 114.41 874.501 117.16ZM885.323 122H887.501V117.292H887.809L891.769 122H894.563L889.723 116.412L894.255 112.056H891.417L887.809 115.686H887.501V106.27L885.323 106.622V122ZM900.797 117.072C900.797 119.712 902.579 122.264 905.879 122.264C909.465 122.264 911.049 119.25 911.049 116.83C911.049 114.278 909.267 111.792 905.967 111.792C902.403 111.792 900.797 114.586 900.797 117.072ZM903.063 116.874C903.063 114.894 904.229 113.53 905.923 113.53C907.947 113.53 908.783 115.356 908.783 117.116C908.783 119.118 907.617 120.526 905.945 120.526C903.965 120.526 903.063 118.722 903.063 116.874ZM913.402 122H915.58V115.554C916.262 114.894 917.67 113.684 918.77 113.684C919.518 113.684 919.958 114.212 919.958 115.62V122H922.136V114.828C922.136 112.694 921.058 111.792 919.496 111.792C917.67 111.792 916.24 113.002 915.536 113.772V111.88L913.402 112.232V122ZM930.925 119.294C930.925 121.34 932.047 122.264 933.763 122.264C935.523 122.264 936.821 121.208 936.821 121.208L936.271 119.558C936.007 119.712 935.083 120.438 934.247 120.438C933.521 120.438 933.103 119.954 933.103 118.744V113.706H936.249V112.056H933.103V109.24L930.969 109.702V111.968L929.451 112.518V113.706H930.925V119.294ZM938.668 122H940.846V115.84C941.264 115.18 942.166 113.992 943.266 113.992C943.706 113.992 944.146 114.168 944.146 114.168L944.586 111.968C944.586 111.968 944.278 111.792 943.728 111.792C942.21 111.792 941.198 113.2 940.802 113.882V111.88L938.668 112.232V122ZM945.524 119.712C945.524 121.186 946.646 122.264 948.384 122.264C950.32 122.264 951.332 121.032 951.596 120.614C951.882 121.406 952.52 122.044 954.038 122.154L954.698 120.438C954.698 120.438 953.598 120.416 953.598 119.184V114.982C953.598 112.76 952.85 111.792 950.496 111.792C947.878 111.792 946.184 113.046 946.184 113.046L946.756 114.674C946.756 114.674 948.274 113.53 949.902 113.53C951.508 113.53 951.42 114.63 951.42 115.884C947.702 116.368 945.524 117.622 945.524 119.712ZM948.934 120.548C948.296 120.548 947.768 120.262 947.768 119.558C947.768 118.392 948.89 117.666 951.42 117.292V119.008C950.76 119.778 949.946 120.548 948.934 120.548ZM956.206 117.16C956.206 120.042 958.208 122.264 961.31 122.264C963.686 122.264 964.83 120.988 964.83 120.988L964.126 119.448C964.126 119.448 963.048 120.482 961.464 120.482C959.594 120.482 958.472 119.008 958.472 117.05C958.472 115.026 959.682 113.552 961.486 113.552C962.938 113.552 963.972 114.476 963.972 114.476L964.83 112.848C964.83 112.848 963.62 111.792 961.442 111.792C958.164 111.792 956.206 114.41 956.206 117.16ZM967.028 122H969.206V117.292H969.514L973.474 122H976.268L971.428 116.412L975.96 112.056H973.122L969.514 115.686H969.206V106.27L967.028 106.622V122ZM816.704 149.712C816.704 151.186 817.826 152.264 819.564 152.264C821.5 152.264 822.512 151.032 822.776 150.614C823.062 151.406 823.7 152.044 825.218 152.154L825.878 150.438C825.878 150.438 824.778 150.416 824.778 149.184V144.982C824.778 142.76 824.03 141.792 821.676 141.792C819.058 141.792 817.364 143.046 817.364 143.046L817.936 144.674C817.936 144.674 819.454 143.53 821.082 143.53C822.688 143.53 822.6 144.63 822.6 145.884C818.882 146.368 816.704 147.622 816.704 149.712ZM820.114 150.548C819.476 150.548 818.948 150.262 818.948 149.558C818.948 148.392 820.07 147.666 822.6 147.292V149.008C821.94 149.778 821.126 150.548 820.114 150.548ZM827.077 143.706H828.639V152H830.817V143.706H833.567V142.056H830.817V140.868C830.817 138.536 831.873 137.722 833.039 137.722C834.117 137.722 835.085 138.426 835.085 138.426L835.943 136.754C835.943 136.754 834.799 135.918 833.061 135.918C830.465 135.918 828.639 137.744 828.639 141V141.968L827.077 142.54V143.706ZM836.093 149.294C836.093 151.34 837.215 152.264 838.931 152.264C840.691 152.264 841.989 151.208 841.989 151.208L841.439 149.558C841.175 149.712 840.251 150.438 839.415 150.438C838.689 150.438 838.271 149.954 838.271 148.744V143.706H841.417V142.056H838.271V139.24L836.137 139.702V141.968L834.619 142.518V143.706H836.093V149.294ZM843.22 147.182C843.22 149.844 844.914 152.264 848.236 152.264C850.722 152.264 852.24 150.834 852.24 150.834L851.624 149.25C851.624 149.25 850.238 150.482 848.566 150.482C846.828 150.482 845.728 149.316 845.486 147.512L850.92 146.786L852.174 146.434C852.174 143.42 850.458 141.792 848.082 141.792C845.178 141.792 843.22 144.146 843.22 147.182ZM847.928 143.486C849.666 143.486 849.798 145.51 849.798 145.51L845.486 146.06C845.684 144.608 846.52 143.486 847.928 143.486ZM854.621 152H856.799V145.84C857.217 145.18 858.119 143.992 859.219 143.992C859.659 143.992 860.099 144.168 860.099 144.168L860.539 141.968C860.539 141.968 860.231 141.792 859.681 141.792C858.163 141.792 857.151 143.2 856.755 143.882V141.88L854.621 142.232V152ZM866.763 149.712C866.763 151.186 867.885 152.264 869.623 152.264C871.559 152.264 872.571 151.032 872.835 150.614C873.121 151.406 873.759 152.044 875.277 152.154L875.937 150.438C875.937 150.438 874.837 150.416 874.837 149.184V144.982C874.837 142.76 874.089 141.792 871.735 141.792C869.117 141.792 867.423 143.046 867.423 143.046L867.995 144.674C867.995 144.674 869.513 143.53 871.141 143.53C872.747 143.53 872.659 144.63 872.659 145.884C868.941 146.368 866.763 147.622 866.763 149.712ZM870.173 150.548C869.535 150.548 869.007 150.262 869.007 149.558C869.007 148.392 870.129 147.666 872.659 147.292V149.008C871.999 149.778 871.185 150.548 870.173 150.548ZM883.367 152H885.545V145.84C885.963 145.18 886.865 143.992 887.965 143.992C888.405 143.992 888.845 144.168 888.845 144.168L889.285 141.968C889.285 141.968 888.977 141.792 888.427 141.792C886.909 141.792 885.897 143.2 885.501 143.882V141.88L883.367 142.232V152ZM890.228 147.182C890.228 149.844 891.922 152.264 895.244 152.264C897.73 152.264 899.248 150.834 899.248 150.834L898.632 149.25C898.632 149.25 897.246 150.482 895.574 150.482C893.836 150.482 892.736 149.316 892.494 147.512L897.928 146.786L899.182 146.434C899.182 143.42 897.466 141.792 895.09 141.792C892.186 141.792 890.228 144.146 890.228 147.182ZM894.936 143.486C896.674 143.486 896.806 145.51 896.806 145.51L892.494 146.06C892.692 144.608 893.528 143.486 894.936 143.486ZM901.673 152H903.851V136.27L901.673 136.622V152ZM906.122 149.712C906.122 151.186 907.244 152.264 908.982 152.264C910.918 152.264 911.93 151.032 912.194 150.614C912.48 151.406 913.118 152.044 914.636 152.154L915.296 150.438C915.296 150.438 914.196 150.416 914.196 149.184V144.982C914.196 142.76 913.448 141.792 911.094 141.792C908.476 141.792 906.782 143.046 906.782 143.046L907.354 144.674C907.354 144.674 908.872 143.53 910.5 143.53C912.106 143.53 912.018 144.63 912.018 145.884C908.3 146.368 906.122 147.622 906.122 149.712ZM909.532 150.548C908.894 150.548 908.366 150.262 908.366 149.558C908.366 148.392 909.488 147.666 912.018 147.292V149.008C911.358 149.778 910.544 150.548 909.532 150.548ZM917.441 157.126L919.619 156.774V151.736C920.037 152.044 920.785 152.264 921.709 152.264C924.877 152.264 926.725 149.668 926.725 146.72C926.725 144.014 925.141 141.792 922.523 141.792C920.961 141.792 920.015 142.606 919.553 143.464V141.88L917.441 142.232V157.126ZM922.149 143.596C923.491 143.596 924.437 144.806 924.437 146.874C924.437 149.25 923.183 150.548 921.313 150.548C920.279 150.548 919.619 150.174 919.619 149.426V145.202C919.905 144.784 920.829 143.596 922.149 143.596ZM928.447 151.384C928.447 151.384 929.679 152.264 931.747 152.264C934.189 152.264 935.619 151.054 935.619 149.25C935.619 146.082 930.845 146.236 930.845 144.498C930.845 143.926 931.329 143.508 932.429 143.508C933.705 143.508 934.849 144.124 934.849 144.124L935.355 142.342C935.355 142.342 934.255 141.792 932.517 141.792C929.767 141.792 928.667 143.134 928.667 144.674C928.667 147.798 933.441 147.666 933.441 149.448C933.441 150.086 932.891 150.548 931.725 150.548C930.119 150.548 928.909 149.536 928.909 149.536L928.447 151.384ZM937.343 147.182C937.343 149.844 939.037 152.264 942.359 152.264C944.845 152.264 946.363 150.834 946.363 150.834L945.747 149.25C945.747 149.25 944.361 150.482 942.689 150.482C940.951 150.482 939.851 149.316 939.609 147.512L945.043 146.786L946.297 146.434C946.297 143.42 944.581 141.792 942.205 141.792C939.301 141.792 937.343 144.146 937.343 147.182ZM942.051 143.486C943.789 143.486 943.921 145.51 943.921 145.51L939.609 146.06C939.807 144.608 940.643 143.486 942.051 143.486Z" fill="#333333"/>
</svg>
