<svg width="1000" height="332" viewBox="0 0 1000 332" fill="none" xmlns="http://www.w3.org/2000/svg">
<path d="M2 331.495V108.99H229.14V331.495" stroke="#828282" stroke-width="4"/>
<path d="M511.906 331.495V108.99H739.046V331.495" stroke="#828282" stroke-width="4"/>
<path d="M256.953 331.495V108.99H484.093V331.495" stroke="#828282" stroke-width="4"/>
<path d="M766.859 331.495V108.99H994V331.495" stroke="#828282" stroke-width="4"/>
<rect x="11" y="121" width="45" height="160" fill="#EDE3E4"/>
<rect x="521" y="121" width="45" height="173" fill="#EFE8DF"/>
<rect x="266" y="121" width="45" height="173" fill="#D9DFE9"/>
<rect x="776" y="121" width="45" height="142" fill="#DFDDE2"/>
<rect x="65.7383" y="120.579" width="45.1963" height="202.804" fill="#EDE3E4"/>
<rect x="576" y="121" width="45" height="142" fill="#EFE8DF"/>
<rect x="321" y="121" width="45" height="142" fill="#D9DFE9"/>
<rect x="831" y="121" width="45" height="173" fill="#DFDDE2"/>
<rect x="175" y="121" width="45" height="160" fill="#EDE3E4"/>
<rect x="685" y="121" width="45" height="152" fill="#EFE8DF"/>
<rect x="430" y="121" width="45" height="173" fill="#D9DFE9"/>
<rect x="940" y="121" width="45" height="142" fill="#DFDDE2"/>
<rect x="120" y="121" width="45" height="202" fill="#EDE3E4"/>
<rect x="630" y="121" width="45" height="173" fill="#EFE8DF"/>
<rect x="375" y="121" width="45" height="142" fill="#D9DFE9"/>
<rect x="885" y="121" width="45" height="160" fill="#DFDDE2"/>
<path d="M38 230.09L38 227.138C38 222.8 35.84 219.776 31.808 219.776C27.542 219.776 25.994 223.178 25.994 226.454L25.994 230.09L38 230.09ZM36.758 228.614L27.236 228.614L27.236 226.706C27.236 223.214 29.09 221.36 31.97 221.36C34.634 221.36 36.758 222.944 36.758 227.318L36.758 228.614ZM36.182 218.338C37.37 218.338 38.216 217.456 38.216 216.07C38.216 214.432 37.064 213.55 36.812 213.388C37.478 213.208 38 212.776 38.126 211.642L36.992 211.174C36.992 211.174 36.974 212.074 35.912 212.074L32.258 212.074C30.44 212.074 29.684 212.65 29.684 214.414C29.684 216.43 30.674 217.78 30.674 217.78L31.808 217.348C31.808 217.348 30.908 216.16 30.908 214.81C30.908 213.46 31.808 213.478 32.762 213.478L33.068 213.478C33.464 216.556 34.508 218.338 36.182 218.338ZM36.992 215.782C36.992 216.376 36.722 216.844 36.092 216.844C35.048 216.844 34.472 215.764 34.094 213.478L35.588 213.478C36.254 214.054 36.992 214.792 36.992 215.782ZM35.858 208.891C37.514 208.891 38.216 208.063 38.216 206.785C38.216 205.435 37.388 204.445 37.388 204.445L36.254 204.787C36.254 204.787 36.992 205.651 36.992 206.497C36.992 207.109 36.56 207.487 35.48 207.487L31.034 207.487L31.034 204.859L29.9 204.859L29.9 207.487L27.668 207.487L28.01 208.891L29.81 208.891L30.278 210.043L31.034 210.043L31.034 208.891L35.858 208.891ZM36.182 203.45C37.37 203.45 38.216 202.568 38.216 201.182C38.216 199.544 37.064 198.662 36.812 198.5C37.478 198.32 38 197.888 38.126 196.754L36.992 196.286C36.992 196.286 36.974 197.186 35.912 197.186L32.258 197.186C30.44 197.186 29.684 197.762 29.684 199.526C29.684 201.542 30.674 202.892 30.674 202.892L31.808 202.46C31.808 202.46 30.908 201.272 30.908 199.922C30.908 198.572 31.808 198.59 32.762 198.59L33.068 198.59C33.464 201.668 34.508 203.45 36.182 203.45ZM36.992 200.894C36.992 201.488 36.722 201.956 36.092 201.956C35.048 201.956 34.472 200.876 34.094 198.59L35.588 198.59C36.254 199.166 36.992 199.904 36.992 200.894ZM38 190.004L38 188.6L32.87 188.6C32.312 188.276 31.214 187.52 31.214 186.584C31.214 186.26 31.358 185.9 31.358 185.9L29.846 185.54C29.846 185.54 29.684 185.792 29.684 186.242C29.684 187.466 30.836 188.294 31.376 188.6L29.774 188.6L30.026 190.004L38 190.004ZM34.13 184.655C36.254 184.655 38.216 183.323 38.216 180.641C38.216 178.697 37.046 177.527 37.046 177.527L35.966 177.941C35.966 177.941 36.992 179.093 36.992 180.479C36.992 182.063 35.858 183.035 34.184 183.161L33.554 178.391L33.302 177.527C30.98 177.527 29.684 178.895 29.684 180.767C29.684 183.071 31.592 184.655 34.13 184.655ZM30.854 180.857C30.854 179.237 32.582 179.075 32.582 179.075L33.104 183.143C31.844 182.945 30.854 182.153 30.854 180.857ZM36.182 176.045C37.37 176.045 38.216 175.163 38.216 173.777C38.216 172.139 37.064 171.257 36.812 171.095C37.478 170.915 38 170.483 38.126 169.349L36.992 168.881C36.992 168.881 36.974 169.781 35.912 169.781L32.258 169.781C30.44 169.781 29.684 170.357 29.684 172.121C29.684 174.137 30.674 175.487 30.674 175.487L31.808 175.055C31.808 175.055 30.908 173.867 30.908 172.517C30.908 171.167 31.808 171.185 32.762 171.185L33.068 171.185C33.464 174.263 34.508 176.045 36.182 176.045ZM36.992 173.489C36.992 174.083 36.722 174.551 36.092 174.551C35.048 174.551 34.472 173.471 34.094 171.185L35.588 171.185C36.254 171.761 36.992 172.499 36.992 173.489ZM34.22 167.446C36.452 167.446 38.216 166.078 38.216 163.972C38.216 162.676 37.55 161.794 36.83 161.344C37.388 161.254 38.126 161.092 38.126 161.092L38 159.706C38 159.706 36.488 160.066 35.498 160.066L25.148 160.066L25.4 161.47L29.972 161.47C29.882 161.686 29.684 162.226 29.684 163.036C29.684 165.934 31.88 167.446 34.22 167.446ZM36.992 163.792C36.992 165.016 35.93 165.952 34.13 165.952C32.06 165.952 30.872 164.746 30.872 163.018C30.872 162.244 31.124 161.506 32.024 161.47L35.516 161.47C35.858 161.686 36.992 162.514 36.992 163.792ZM27.848 156.57C27.848 156.03 27.416 155.598 26.876 155.598C26.336 155.598 25.904 156.03 25.904 156.57C25.904 157.11 26.336 157.542 26.876 157.542C27.416 157.542 27.848 157.11 27.848 156.57ZM38 157.29L38 155.886L29.9 155.886L29.9 157.29L38 157.29ZM38 153.178L38 151.774L32.654 151.774C32.15 151.252 30.926 149.866 30.926 148.804C30.926 148.192 31.304 147.706 32.51 147.706L38 147.706L38 146.302L32.114 146.302C30.368 146.302 29.684 147.22 29.684 148.426C29.684 149.992 30.818 151.252 31.358 151.774L29.774 151.774L30.026 153.178L38 153.178ZM36.542 143.74C37.082 143.74 37.406 143.182 37.64 142.39C38.108 143.308 38.864 144.496 40.106 144.496C41.546 144.496 42.266 142.786 42.266 141.04C42.266 138.736 40.934 136.72 39.278 136.72C37.802 136.72 37.37 138.304 37.028 139.852C36.686 141.382 36.506 142.228 36.164 142.228C35.93 142.228 35.678 141.886 35.408 141.508C35.444 141.31 35.462 141.094 35.462 140.86C35.462 139.24 34.544 137.422 32.654 137.422C31.862 137.422 31.304 137.818 31.07 138.034C31.088 137.854 31.106 137.602 31.106 137.368L31.106 136.342L29.846 136.468C29.846 136.468 30.026 137.008 30.026 137.53L30.026 138.394C30.026 139.276 29.684 139.78 29.684 140.716C29.684 142.48 30.728 144.064 32.51 144.064C33.644 144.064 34.598 143.47 35.102 142.498C35.444 143.074 35.966 143.74 36.542 143.74ZM39.908 143.2C39.008 143.2 38.468 142.174 37.946 141.22C38 140.914 38.054 140.626 38.126 140.32C38.396 139.096 38.684 138.16 39.476 138.16C40.376 138.16 41.186 139.402 41.186 140.932C41.186 141.886 40.88 143.2 39.908 143.2ZM34.382 140.734C34.382 142.03 33.5 142.624 32.6 142.624C31.574 142.624 30.764 141.922 30.764 140.77C30.764 139.492 31.808 138.862 32.726 138.862C33.788 138.862 34.382 139.672 34.382 140.734Z" fill="black"/>
<path d="M16.456 22.11H18.634L23.892 7.326H21.582L17.6 18.744L13.618 7.326H11.22L16.456 22.11ZM24.1649 19.712C24.1649 21.186 25.2869 22.264 27.0249 22.264C28.9609 22.264 29.9729 21.032 30.2369 20.614C30.5229 21.406 31.1609 22.044 32.6789 22.154L33.3389 20.438C33.3389 20.438 32.2389 20.416 32.2389 19.184V14.982C32.2389 12.76 31.4909 11.792 29.1369 11.792C26.5189 11.792 24.8249 13.046 24.8249 13.046L25.3969 14.674C25.3969 14.674 26.9149 13.53 28.5429 13.53C30.1489 13.53 30.0609 14.63 30.0609 15.884C26.3429 16.368 24.1649 17.622 24.1649 19.712ZM27.5749 20.548C26.9369 20.548 26.4089 20.262 26.4089 19.558C26.4089 18.392 27.5309 17.666 30.0609 17.292V19.008C29.4009 19.778 28.5869 20.548 27.5749 20.548ZM35.5283 22H37.7063V6.27L35.5283 6.622V22ZM40.7034 19.272C40.7034 21.406 41.8034 22.264 43.4094 22.264C45.2354 22.264 46.6214 21.098 47.2594 20.416C47.3694 21.142 47.5894 22.176 47.5894 22.176L49.7014 21.978C49.7014 21.978 49.2614 20.152 49.2614 18.942V12.056H47.0834V18.744C46.4674 19.316 45.2354 20.372 44.1134 20.372C43.2994 20.372 42.8814 19.822 42.8814 18.436V12.056H40.7034V19.272ZM51.755 17.182C51.755 19.844 53.449 22.264 56.771 22.264C59.257 22.264 60.775 20.834 60.775 20.834L60.159 19.25C60.159 19.25 58.773 20.482 57.101 20.482C55.363 20.482 54.263 19.316 54.021 17.512L59.455 16.786L60.709 16.434C60.709 13.42 58.993 11.792 56.617 11.792C53.713 11.792 51.755 14.146 51.755 17.182ZM56.463 13.486C58.201 13.486 58.333 15.51 58.333 15.51L54.021 16.06C54.219 14.608 55.055 13.486 56.463 13.486ZM68.4413 22H70.6193V15.532C71.2573 14.894 72.6213 13.684 73.6993 13.684C74.4253 13.684 74.8213 14.212 74.8213 15.62V22H76.9993V15.488C77.7473 14.762 78.9793 13.684 79.9913 13.684C80.7173 13.684 81.1353 14.212 81.1353 15.62V22H83.2913V14.828C83.2913 12.694 82.2573 11.792 80.7173 11.792C78.9793 11.792 77.6153 12.958 76.8893 13.75C76.5813 12.386 75.6793 11.792 74.4253 11.792C72.6653 11.792 71.2573 13.002 70.5753 13.75V11.88L68.4413 12.232V22ZM85.0864 25.476L85.7684 27.214C88.1004 26.95 89.5524 24.86 90.4104 22.748L94.7224 12.056H92.4784L89.9044 18.876L87.2864 12.056H84.9764L88.8264 21.494L88.2984 22.682C87.7044 24.068 86.5384 25.234 85.0864 25.476ZM95.7969 21.384C95.7969 21.384 97.0289 22.264 99.0969 22.264C101.539 22.264 102.969 21.054 102.969 19.25C102.969 16.082 98.1949 16.236 98.1949 14.498C98.1949 13.926 98.6789 13.508 99.7789 13.508C101.055 13.508 102.199 14.124 102.199 14.124L102.705 12.342C102.705 12.342 101.605 11.792 99.8669 11.792C97.1169 11.792 96.0169 13.134 96.0169 14.674C96.0169 17.798 100.791 17.666 100.791 19.448C100.791 20.086 100.241 20.548 99.0749 20.548C97.4689 20.548 96.2589 19.536 96.2589 19.536L95.7969 21.384ZM104.693 17.182C104.693 19.844 106.387 22.264 109.709 22.264C112.195 22.264 113.713 20.834 113.713 20.834L113.097 19.25C113.097 19.25 111.711 20.482 110.039 20.482C108.301 20.482 107.201 19.316 106.959 17.512L112.393 16.786L113.647 16.434C113.647 13.42 111.931 11.792 109.555 11.792C106.651 11.792 104.693 14.146 104.693 17.182ZM109.401 13.486C111.139 13.486 111.271 15.51 111.271 15.51L106.959 16.06C107.157 14.608 107.993 13.486 109.401 13.486ZM116.138 22H118.316V6.27L116.138 6.622V22ZM120.433 13.706H121.995V22H124.173V13.706H126.923V12.056H124.173V10.868C124.173 8.536 125.229 7.722 126.395 7.722C127.473 7.722 128.441 8.426 128.441 8.426L129.299 6.754C129.299 6.754 128.155 5.918 126.417 5.918C123.821 5.918 121.995 7.744 121.995 11V11.968L120.433 12.54V13.706ZM133.546 17.182C133.546 19.844 135.24 22.264 138.562 22.264C141.048 22.264 142.566 20.834 142.566 20.834L141.95 19.25C141.95 19.25 140.564 20.482 138.892 20.482C137.154 20.482 136.054 19.316 135.812 17.512L141.246 16.786L142.5 16.434C142.5 13.42 140.784 11.792 138.408 11.792C135.504 11.792 133.546 14.146 133.546 17.182ZM138.254 13.486C139.992 13.486 140.124 15.51 140.124 15.51L135.812 16.06C136.01 14.608 136.846 13.486 138.254 13.486ZM144.947 22H147.125V15.554C147.807 14.894 149.215 13.684 150.315 13.684C151.063 13.684 151.503 14.212 151.503 15.62V22H153.681V14.828C153.681 12.694 152.603 11.792 151.041 11.792C149.215 11.792 147.785 13.002 147.081 13.772V11.88L144.947 12.232V22ZM155.975 17.072C155.975 19.712 157.757 22.264 161.057 22.264C164.643 22.264 166.227 19.25 166.227 16.83C166.227 14.278 164.445 11.792 161.145 11.792C157.581 11.792 155.975 14.586 155.975 17.072ZM158.241 16.874C158.241 14.894 159.407 13.53 161.101 13.53C163.125 13.53 163.961 15.356 163.961 17.116C163.961 19.118 162.795 20.526 161.123 20.526C159.143 20.526 158.241 18.722 158.241 16.874ZM168.514 19.272C168.514 21.406 169.614 22.264 171.22 22.264C173.046 22.264 174.432 21.098 175.07 20.416C175.18 21.142 175.4 22.176 175.4 22.176L177.512 21.978C177.512 21.978 177.072 20.152 177.072 18.942V12.056H174.894V18.744C174.278 19.316 173.046 20.372 171.924 20.372C171.11 20.372 170.692 19.822 170.692 18.436V12.056H168.514V19.272ZM180.16 20.24C180.16 20.922 180.798 21.318 181.788 21.648C180.732 22.198 179.258 23.144 179.258 24.596C179.258 26.334 181.414 27.214 183.614 27.214C186.606 27.214 189.048 25.52 189.048 23.518C189.048 21.692 187.046 21.142 185.286 20.702C183.218 20.196 182.25 19.998 182.25 19.602C182.25 19.36 182.602 19.096 183.064 18.788C183.284 18.832 183.526 18.832 183.79 18.832C185.924 18.832 188.19 17.666 188.19 15.488C188.19 14.608 187.772 14.014 187.464 13.662C187.728 13.706 188.036 13.728 188.278 13.728H189.466L189.312 11.99C189.312 11.99 188.652 12.21 187.992 12.21H186.848C185.748 12.21 185.176 11.792 183.966 11.792C181.744 11.792 179.742 13.046 179.742 15.268C179.742 16.61 180.468 17.776 181.722 18.392C180.908 18.854 180.16 19.514 180.16 20.24ZM184.032 22.22C185.88 22.704 186.914 22.99 186.914 23.848C186.914 24.838 185.506 25.63 183.746 25.63C182.492 25.63 181.216 25.234 181.216 24.244C181.216 23.254 182.426 22.594 183.372 22.066C183.592 22.11 183.812 22.154 184.032 22.22ZM183.944 17.292C182.536 17.292 181.876 16.28 181.876 15.334C181.876 14.3 182.624 13.332 183.944 13.332C185.352 13.332 186.034 14.476 186.034 15.444C186.034 16.566 185.154 17.292 183.944 17.292ZM191.354 22H193.532V15.598C194.192 14.938 195.622 13.684 196.722 13.684C197.47 13.684 197.91 14.212 197.91 15.62V22H200.088V14.828C200.088 12.694 199.01 11.792 197.426 11.792C195.6 11.792 194.192 13.024 193.532 13.728V6.27L191.354 6.622V22ZM208.877 19.294C208.877 21.34 209.999 22.264 211.715 22.264C213.475 22.264 214.773 21.208 214.773 21.208L214.223 19.558C213.959 19.712 213.035 20.438 212.199 20.438C211.473 20.438 211.055 19.954 211.055 18.744V13.706H214.201V12.056H211.055V9.24L208.921 9.702V11.968L207.403 12.518V13.706H208.877V19.294ZM215.981 17.072C215.981 19.712 217.763 22.264 221.063 22.264C224.649 22.264 226.233 19.25 226.233 16.83C226.233 14.278 224.451 11.792 221.151 11.792C217.587 11.792 215.981 14.586 215.981 17.072ZM218.247 16.874C218.247 14.894 219.413 13.53 221.107 13.53C223.131 13.53 223.967 15.356 223.967 17.116C223.967 19.118 222.801 20.526 221.129 20.526C219.149 20.526 218.247 18.722 218.247 16.874ZM13.068 49.294C13.068 51.34 14.19 52.264 15.906 52.264C17.666 52.264 18.964 51.208 18.964 51.208L18.414 49.558C18.15 49.712 17.226 50.438 16.39 50.438C15.664 50.438 15.246 49.954 15.246 48.744V43.706H18.392V42.056H15.246V39.24L13.112 39.702V41.968L11.594 42.518V43.706H13.068V49.294ZM20.0185 49.712C20.0185 51.186 21.1405 52.264 22.8785 52.264C24.8145 52.264 25.8265 51.032 26.0905 50.614C26.3765 51.406 27.0145 52.044 28.5325 52.154L29.1925 50.438C29.1925 50.438 28.0925 50.416 28.0925 49.184V44.982C28.0925 42.76 27.3445 41.792 24.9905 41.792C22.3725 41.792 20.6785 43.046 20.6785 43.046L21.2505 44.674C21.2505 44.674 22.7685 43.53 24.3965 43.53C26.0025 43.53 25.9145 44.63 25.9145 45.884C22.1965 46.368 20.0185 47.622 20.0185 49.712ZM23.4285 50.548C22.7905 50.548 22.2625 50.262 22.2625 49.558C22.2625 48.392 23.3845 47.666 25.9145 47.292V49.008C25.2545 49.778 24.4405 50.548 23.4285 50.548ZM31.3818 52H33.5598V47.292H33.8678L37.8278 52H40.6218L35.7818 46.412L40.3138 42.056H37.4758L33.8678 45.686H33.5598V36.27L31.3818 36.622V52ZM41.1632 47.182C41.1632 49.844 42.8572 52.264 46.1792 52.264C48.6652 52.264 50.1832 50.834 50.1832 50.834L49.5672 49.25C49.5672 49.25 48.1812 50.482 46.5092 50.482C44.7712 50.482 43.6712 49.316 43.4292 47.512L48.8632 46.786L50.1172 46.434C50.1172 43.42 48.4012 41.792 46.0252 41.792C43.1212 41.792 41.1632 44.146 41.1632 47.182ZM45.8712 43.486C47.6092 43.486 47.7412 45.51 47.7412 45.51L43.4292 46.06C43.6272 44.608 44.4632 43.486 45.8712 43.486ZM57.2115 47.16C57.2115 50.042 59.2135 52.264 62.3155 52.264C64.6915 52.264 65.8355 50.988 65.8355 50.988L65.1315 49.448C65.1315 49.448 64.0535 50.482 62.4695 50.482C60.5995 50.482 59.4775 49.008 59.4775 47.05C59.4775 45.026 60.6875 43.552 62.4915 43.552C63.9435 43.552 64.9775 44.476 64.9775 44.476L65.8355 42.848C65.8355 42.848 64.6255 41.792 62.4475 41.792C59.1695 41.792 57.2115 44.41 57.2115 47.16ZM67.1803 47.072C67.1803 49.712 68.9623 52.264 72.2623 52.264C75.8483 52.264 77.4323 49.25 77.4323 46.83C77.4323 44.278 75.6503 41.792 72.3503 41.792C68.7863 41.792 67.1803 44.586 67.1803 47.072ZM69.4463 46.874C69.4463 44.894 70.6123 43.53 72.3063 43.53C74.3303 43.53 75.1663 45.356 75.1663 47.116C75.1663 49.118 74.0003 50.526 72.3283 50.526C70.3483 50.526 69.4463 48.722 69.4463 46.874ZM79.7851 52H81.9631V45.554C82.6451 44.894 84.0531 43.684 85.1531 43.684C85.9011 43.684 86.3411 44.212 86.3411 45.62V52H88.5191V44.828C88.5191 42.694 87.4411 41.792 85.8791 41.792C84.0531 41.792 82.6231 43.002 81.9191 43.772V41.88L79.7851 42.232V52ZM90.7911 51.384C90.7911 51.384 92.0231 52.264 94.0911 52.264C96.5331 52.264 97.9631 51.054 97.9631 49.25C97.9631 46.082 93.1891 46.236 93.1891 44.498C93.1891 43.926 93.6731 43.508 94.7731 43.508C96.0491 43.508 97.1931 44.124 97.1931 44.124L97.6991 42.342C97.6991 42.342 96.5991 41.792 94.8611 41.792C92.1111 41.792 91.0111 43.134 91.0111 44.674C91.0111 47.798 95.7851 47.666 95.7851 49.448C95.7851 50.086 95.2351 50.548 94.0691 50.548C92.4631 50.548 91.2531 49.536 91.2531 49.536L90.7911 51.384ZM101.447 39.68C102.239 39.68 102.833 39.108 102.833 38.338C102.833 37.568 102.239 36.996 101.447 36.996C100.677 36.996 100.083 37.568 100.083 38.338C100.083 39.108 100.677 39.68 101.447 39.68ZM100.347 52H102.525V42.056H100.347V52ZM104.928 51.384C104.928 51.384 106.16 52.264 108.228 52.264C110.67 52.264 112.1 51.054 112.1 49.25C112.1 46.082 107.326 46.236 107.326 44.498C107.326 43.926 107.81 43.508 108.91 43.508C110.186 43.508 111.33 44.124 111.33 44.124L111.836 42.342C111.836 42.342 110.736 41.792 108.998 41.792C106.248 41.792 105.148 43.134 105.148 44.674C105.148 47.798 109.922 47.666 109.922 49.448C109.922 50.086 109.372 50.548 108.206 50.548C106.6 50.548 105.39 49.536 105.39 49.536L104.928 51.384ZM115.011 49.294C115.011 51.34 116.133 52.264 117.849 52.264C119.609 52.264 120.907 51.208 120.907 51.208L120.357 49.558C120.093 49.712 119.169 50.438 118.333 50.438C117.607 50.438 117.189 49.954 117.189 48.744V43.706H120.335V42.056H117.189V39.24L115.055 39.702V41.968L113.537 42.518V43.706H115.011V49.294ZM122.138 47.182C122.138 49.844 123.832 52.264 127.154 52.264C129.64 52.264 131.158 50.834 131.158 50.834L130.542 49.25C130.542 49.25 129.156 50.482 127.484 50.482C125.746 50.482 124.646 49.316 124.404 47.512L129.838 46.786L131.092 46.434C131.092 43.42 129.376 41.792 127 41.792C124.096 41.792 122.138 44.146 122.138 47.182ZM126.846 43.486C128.584 43.486 128.716 45.51 128.716 45.51L124.404 46.06C124.602 44.608 125.438 43.486 126.846 43.486ZM133.539 52H135.717V45.554C136.399 44.894 137.807 43.684 138.907 43.684C139.655 43.684 140.095 44.212 140.095 45.62V52H142.273V44.828C142.273 42.694 141.195 41.792 139.633 41.792C137.807 41.792 136.377 43.002 135.673 43.772V41.88L133.539 42.232V52ZM145.777 49.294C145.777 51.34 146.899 52.264 148.615 52.264C150.375 52.264 151.673 51.208 151.673 51.208L151.123 49.558C150.859 49.712 149.935 50.438 149.099 50.438C148.373 50.438 147.955 49.954 147.955 48.744V43.706H151.101V42.056H147.955V39.24L145.821 39.702V41.968L144.303 42.518V43.706H145.777V49.294ZM158.013 49.712C158.013 51.186 159.135 52.264 160.873 52.264C162.809 52.264 163.821 51.032 164.085 50.614C164.371 51.406 165.009 52.044 166.527 52.154L167.187 50.438C167.187 50.438 166.087 50.416 166.087 49.184V44.982C166.087 42.76 165.339 41.792 162.985 41.792C160.367 41.792 158.673 43.046 158.673 43.046L159.245 44.674C159.245 44.674 160.763 43.53 162.391 43.53C163.997 43.53 163.909 44.63 163.909 45.884C160.191 46.368 158.013 47.622 158.013 49.712ZM161.423 50.548C160.785 50.548 160.257 50.262 160.257 49.558C160.257 48.392 161.379 47.666 163.909 47.292V49.008C163.249 49.778 162.435 50.548 161.423 50.548ZM168.694 47.16C168.694 50.042 170.696 52.264 173.798 52.264C176.174 52.264 177.318 50.988 177.318 50.988L176.614 49.448C176.614 49.448 175.536 50.482 173.952 50.482C172.082 50.482 170.96 49.008 170.96 47.05C170.96 45.026 172.17 43.552 173.974 43.552C175.426 43.552 176.46 44.476 176.46 44.476L177.318 42.848C177.318 42.848 176.108 41.792 173.93 41.792C170.652 41.792 168.694 44.41 168.694 47.16ZM180.045 49.294C180.045 51.34 181.167 52.264 182.883 52.264C184.643 52.264 185.941 51.208 185.941 51.208L185.391 49.558C185.127 49.712 184.203 50.438 183.367 50.438C182.641 50.438 182.223 49.954 182.223 48.744V43.706H185.369V42.056H182.223V39.24L180.089 39.702V41.968L178.571 42.518V43.706H180.045V49.294ZM188.931 39.68C189.723 39.68 190.317 39.108 190.317 38.338C190.317 37.568 189.723 36.996 188.931 36.996C188.161 36.996 187.567 37.568 187.567 38.338C187.567 39.108 188.161 39.68 188.931 39.68ZM187.831 52H190.009V42.056H187.831V52ZM192.434 47.072C192.434 49.712 194.216 52.264 197.516 52.264C201.102 52.264 202.686 49.25 202.686 46.83C202.686 44.278 200.904 41.792 197.604 41.792C194.04 41.792 192.434 44.586 192.434 47.072ZM194.7 46.874C194.7 44.894 195.866 43.53 197.56 43.53C199.584 43.53 200.42 45.356 200.42 47.116C200.42 49.118 199.254 50.526 197.582 50.526C195.602 50.526 194.7 48.722 194.7 46.874ZM205.039 52H207.217V45.554C207.899 44.894 209.307 43.684 210.407 43.684C211.155 43.684 211.595 44.212 211.595 45.62V52H213.773V44.828C213.773 42.694 212.695 41.792 211.133 41.792C209.307 41.792 207.877 43.002 207.173 43.772V41.88L205.039 42.232V52ZM216.045 51.384C216.045 51.384 217.277 52.264 219.345 52.264C221.787 52.264 223.217 51.054 223.217 49.25C223.217 46.082 218.443 46.236 218.443 44.498C218.443 43.926 218.927 43.508 220.027 43.508C221.303 43.508 222.447 44.124 222.447 44.124L222.953 42.342C222.953 42.342 221.853 41.792 220.115 41.792C217.365 41.792 216.265 43.134 216.265 44.674C216.265 47.798 221.039 47.666 221.039 49.448C221.039 50.086 220.489 50.548 219.323 50.548C217.717 50.548 216.507 49.536 216.507 49.536L216.045 51.384ZM13.068 79.294C13.068 81.34 14.19 82.264 15.906 82.264C17.666 82.264 18.964 81.208 18.964 81.208L18.414 79.558C18.15 79.712 17.226 80.438 16.39 80.438C15.664 80.438 15.246 79.954 15.246 78.744V73.706H18.392V72.056H15.246V69.24L13.112 69.702V71.968L11.594 72.518V73.706H13.068V79.294ZM20.1725 77.072C20.1725 79.712 21.9545 82.264 25.2545 82.264C28.8405 82.264 30.4245 79.25 30.4245 76.83C30.4245 74.278 28.6425 71.792 25.3425 71.792C21.7785 71.792 20.1725 74.586 20.1725 77.072ZM22.4385 76.874C22.4385 74.894 23.6045 73.53 25.2985 73.53C27.3225 73.53 28.1585 75.356 28.1585 77.116C28.1585 79.118 26.9925 80.526 25.3205 80.526C23.3405 80.526 22.4385 78.722 22.4385 76.874ZM38.0624 81.78C38.8104 81.956 40.5044 82.264 41.6924 82.264C45.4544 82.264 47.2584 79.58 47.2584 76.676C47.2584 73.948 45.6744 71.792 42.9244 71.792C41.5604 71.792 40.7464 72.342 40.2404 72.914V66.27L38.0624 66.622V81.78ZM42.5724 73.552C44.0244 73.552 45.0144 74.762 45.0144 76.83C45.0144 79.294 43.6284 80.614 41.7364 80.614C40.9224 80.614 40.2404 80.394 40.2404 80.394V74.586C40.7024 74.168 41.5384 73.552 42.5724 73.552ZM49.048 77.182C49.048 79.844 50.742 82.264 54.064 82.264C56.55 82.264 58.068 80.834 58.068 80.834L57.452 79.25C57.452 79.25 56.066 80.482 54.394 80.482C52.656 80.482 51.556 79.316 51.314 77.512L56.748 76.786L58.002 76.434C58.002 73.42 56.286 71.792 53.91 71.792C51.006 71.792 49.048 74.146 49.048 77.182ZM53.756 73.486C55.494 73.486 55.626 75.51 55.626 75.51L51.314 76.06C51.512 74.608 52.348 73.486 53.756 73.486ZM61.0211 79.294C61.0211 81.34 62.1431 82.264 63.8591 82.264C65.6191 82.264 66.9171 81.208 66.9171 81.208L66.3671 79.558C66.1031 79.712 65.1791 80.438 64.3431 80.438C63.6171 80.438 63.1991 79.954 63.1991 78.744V73.706H66.3451V72.056H63.1991V69.24L61.0651 69.702V71.968L59.5471 72.518V73.706H61.0211V79.294ZM69.3356 79.294C69.3356 81.34 70.4576 82.264 72.1736 82.264C73.9336 82.264 75.2316 81.208 75.2316 81.208L74.6816 79.558C74.4176 79.712 73.4936 80.438 72.6576 80.438C71.9316 80.438 71.5136 79.954 71.5136 78.744V73.706H74.6596V72.056H71.5136V69.24L69.3796 69.702V71.968L67.8616 72.518V73.706H69.3356V79.294ZM76.462 77.182C76.462 79.844 78.156 82.264 81.478 82.264C83.964 82.264 85.482 80.834 85.482 80.834L84.866 79.25C84.866 79.25 83.48 80.482 81.808 80.482C80.07 80.482 78.97 79.316 78.728 77.512L84.162 76.786L85.416 76.434C85.416 73.42 83.7 71.792 81.324 71.792C78.42 71.792 76.462 74.146 76.462 77.182ZM81.17 73.486C82.908 73.486 83.04 75.51 83.04 75.51L78.728 76.06C78.926 74.608 79.762 73.486 81.17 73.486ZM87.8632 82H90.0412V75.84C90.4592 75.18 91.3612 73.992 92.4612 73.992C92.9012 73.992 93.3412 74.168 93.3412 74.168L93.7812 71.968C93.7812 71.968 93.4732 71.792 92.9232 71.792C91.4052 71.792 90.3932 73.2 89.9972 73.882V71.88L87.8632 72.232V82ZM100.797 82H102.975V75.532C103.613 74.894 104.977 73.684 106.055 73.684C106.781 73.684 107.177 74.212 107.177 75.62V82H109.355V75.488C110.103 74.762 111.335 73.684 112.347 73.684C113.073 73.684 113.491 74.212 113.491 75.62V82H115.647V74.828C115.647 72.694 114.613 71.792 113.073 71.792C111.335 71.792 109.971 72.958 109.245 73.75C108.937 72.386 108.035 71.792 106.781 71.792C105.021 71.792 103.613 73.002 102.931 73.75V71.88L100.797 72.232V82ZM117.442 85.476L118.124 87.214C120.456 86.95 121.908 84.86 122.766 82.748L127.078 72.056H124.834L122.26 78.876L119.642 72.056H117.332L121.182 81.494L120.654 82.682C120.06 84.068 118.894 85.234 117.442 85.476ZM134.142 82H136.32V75.598C136.98 74.938 138.41 73.684 139.51 73.684C140.258 73.684 140.698 74.212 140.698 75.62V82H142.876V74.828C142.876 72.694 141.798 71.792 140.214 71.792C138.388 71.792 136.98 73.024 136.32 73.728V66.27L134.142 66.622V82ZM145.191 77.182C145.191 79.844 146.885 82.264 150.207 82.264C152.693 82.264 154.211 80.834 154.211 80.834L153.595 79.25C153.595 79.25 152.209 80.482 150.537 80.482C148.799 80.482 147.699 79.316 147.457 77.512L152.891 76.786L154.145 76.434C154.145 73.42 152.429 71.792 150.053 71.792C147.149 71.792 145.191 74.146 145.191 77.182ZM149.899 73.486C151.637 73.486 151.769 75.51 151.769 75.51L147.457 76.06C147.655 74.608 148.491 73.486 149.899 73.486ZM155.8 79.712C155.8 81.186 156.922 82.264 158.66 82.264C160.596 82.264 161.608 81.032 161.872 80.614C162.158 81.406 162.796 82.044 164.314 82.154L164.974 80.438C164.974 80.438 163.874 80.416 163.874 79.184V74.982C163.874 72.76 163.126 71.792 160.772 71.792C158.154 71.792 156.46 73.046 156.46 73.046L157.032 74.674C157.032 74.674 158.55 73.53 160.178 73.53C161.784 73.53 161.696 74.63 161.696 75.884C157.978 76.368 155.8 77.622 155.8 79.712ZM159.21 80.548C158.572 80.548 158.044 80.262 158.044 79.558C158.044 78.392 159.166 77.666 161.696 77.292V79.008C161.036 79.778 160.222 80.548 159.21 80.548ZM167.163 82H169.341V66.27L167.163 66.622V82ZM172.976 79.294C172.976 81.34 174.098 82.264 175.814 82.264C177.574 82.264 178.872 81.208 178.872 81.208L178.322 79.558C178.058 79.712 177.134 80.438 176.298 80.438C175.572 80.438 175.154 79.954 175.154 78.744V73.706H178.3V72.056H175.154V69.24L173.02 69.702V71.968L171.502 72.518V73.706H172.976V79.294ZM180.763 82H182.941V75.598C183.601 74.938 185.031 73.684 186.131 73.684C186.879 73.684 187.319 74.212 187.319 75.62V82H189.497V74.828C189.497 72.694 188.419 71.792 186.835 71.792C185.009 71.792 183.601 73.024 182.941 73.728V66.27L180.763 66.622V82ZM192.142 80.79C192.142 81.604 192.802 82.264 193.616 82.264C194.43 82.264 195.112 81.604 195.112 80.79C195.112 79.954 194.43 79.294 193.616 79.294C192.802 79.294 192.142 79.954 192.142 80.79Z" fill="#333333"/>
<path d="M268.002 22H270.268V15.62H275.438V13.662H270.268V9.218H276.802V7.326H268.002V22ZM277.536 17.182C277.536 19.844 279.23 22.264 282.552 22.264C285.038 22.264 286.556 20.834 286.556 20.834L285.94 19.25C285.94 19.25 284.554 20.482 282.882 20.482C281.144 20.482 280.044 19.316 279.802 17.512L285.236 16.786L286.49 16.434C286.49 13.42 284.774 11.792 282.398 11.792C279.494 11.792 277.536 14.146 277.536 17.182ZM282.244 13.486C283.982 13.486 284.114 15.51 284.114 15.51L279.802 16.06C280 14.608 280.836 13.486 282.244 13.486ZM288.321 17.182C288.321 19.844 290.015 22.264 293.337 22.264C295.823 22.264 297.341 20.834 297.341 20.834L296.725 19.25C296.725 19.25 295.339 20.482 293.667 20.482C291.929 20.482 290.829 19.316 290.587 17.512L296.021 16.786L297.275 16.434C297.275 13.42 295.559 11.792 293.183 11.792C290.279 11.792 288.321 14.146 288.321 17.182ZM293.029 13.486C294.767 13.486 294.899 15.51 294.899 15.51L290.587 16.06C290.785 14.608 291.621 13.486 293.029 13.486ZM299.767 22H301.945V6.27L299.767 6.622V22ZM310.337 22H312.515V15.598C313.175 14.938 314.605 13.684 315.705 13.684C316.453 13.684 316.893 14.212 316.893 15.62V22H319.071V14.828C319.071 12.694 317.993 11.792 316.409 11.792C314.583 11.792 313.175 13.024 312.515 13.728V6.27L310.337 6.622V22ZM321.364 17.072C321.364 19.712 323.146 22.264 326.446 22.264C330.032 22.264 331.616 19.25 331.616 16.83C331.616 14.278 329.834 11.792 326.534 11.792C322.97 11.792 321.364 14.586 321.364 17.072ZM323.63 16.874C323.63 14.894 324.796 13.53 326.49 13.53C328.514 13.53 329.35 15.356 329.35 17.116C329.35 19.118 328.184 20.526 326.512 20.526C324.532 20.526 323.63 18.722 323.63 16.874ZM333.969 27.126L336.147 26.774V21.736C336.565 22.044 337.313 22.264 338.237 22.264C341.405 22.264 343.253 19.668 343.253 16.72C343.253 14.014 341.669 11.792 339.051 11.792C337.489 11.792 336.543 12.606 336.081 13.464V11.88L333.969 12.232V27.126ZM338.677 13.596C340.019 13.596 340.965 14.806 340.965 16.874C340.965 19.25 339.711 20.548 337.841 20.548C336.807 20.548 336.147 20.174 336.147 19.426V15.202C336.433 14.784 337.357 13.596 338.677 13.596ZM345.019 17.182C345.019 19.844 346.713 22.264 350.035 22.264C352.521 22.264 354.039 20.834 354.039 20.834L353.423 19.25C353.423 19.25 352.037 20.482 350.365 20.482C348.627 20.482 347.527 19.316 347.285 17.512L352.719 16.786L353.973 16.434C353.973 13.42 352.257 11.792 349.881 11.792C346.977 11.792 345.019 14.146 345.019 17.182ZM349.727 13.486C351.465 13.486 351.597 15.51 351.597 15.51L347.285 16.06C347.483 14.608 348.319 13.486 349.727 13.486ZM355.474 13.706H357.036V22H359.214V13.706H361.964V12.056H359.214V10.868C359.214 8.536 360.27 7.722 361.436 7.722C362.514 7.722 363.482 8.426 363.482 8.426L364.34 6.754C364.34 6.754 363.196 5.918 361.458 5.918C358.862 5.918 357.036 7.744 357.036 11V11.968L355.474 12.54V13.706ZM363.852 19.272C363.852 21.406 364.952 22.264 366.558 22.264C368.384 22.264 369.77 21.098 370.408 20.416C370.518 21.142 370.738 22.176 370.738 22.176L372.85 21.978C372.85 21.978 372.41 20.152 372.41 18.942V12.056H370.232V18.744C369.616 19.316 368.384 20.372 367.262 20.372C366.448 20.372 366.03 19.822 366.03 18.436V12.056H363.852V19.272ZM375.563 22H377.741V6.27L375.563 6.622V22ZM386.662 19.294C386.662 21.34 387.784 22.264 389.5 22.264C391.26 22.264 392.558 21.208 392.558 21.208L392.008 19.558C391.744 19.712 390.82 20.438 389.984 20.438C389.258 20.438 388.84 19.954 388.84 18.744V13.706H391.986V12.056H388.84V9.24L386.706 9.702V11.968L385.188 12.518V13.706H386.662V19.294ZM394.448 22H396.626V15.598C397.286 14.938 398.716 13.684 399.816 13.684C400.564 13.684 401.004 14.212 401.004 15.62V22H403.182V14.828C403.182 12.694 402.104 11.792 400.52 11.792C398.694 11.792 397.286 13.024 396.626 13.728V6.27L394.448 6.622V22ZM405.321 19.712C405.321 21.186 406.443 22.264 408.181 22.264C410.117 22.264 411.129 21.032 411.393 20.614C411.679 21.406 412.317 22.044 413.835 22.154L414.495 20.438C414.495 20.438 413.395 20.416 413.395 19.184V14.982C413.395 12.76 412.647 11.792 410.293 11.792C407.675 11.792 405.981 13.046 405.981 13.046L406.553 14.674C406.553 14.674 408.071 13.53 409.699 13.53C411.305 13.53 411.217 14.63 411.217 15.884C407.499 16.368 405.321 17.622 405.321 19.712ZM408.731 20.548C408.093 20.548 407.565 20.262 407.565 19.558C407.565 18.392 408.687 17.666 411.217 17.292V19.008C410.557 19.778 409.743 20.548 408.731 20.548ZM417.127 19.294C417.127 21.34 418.249 22.264 419.965 22.264C421.725 22.264 423.023 21.208 423.023 21.208L422.473 19.558C422.209 19.712 421.285 20.438 420.449 20.438C419.723 20.438 419.305 19.954 419.305 18.744V13.706H422.451V12.056H419.305V9.24L417.171 9.702V11.968L415.653 12.518V13.706H417.127V19.294ZM430.66 22H432.926V7.326H430.66V22ZM441.096 17.16C441.096 20.042 443.098 22.264 446.2 22.264C448.576 22.264 449.72 20.988 449.72 20.988L449.016 19.448C449.016 19.448 447.938 20.482 446.354 20.482C444.484 20.482 443.362 19.008 443.362 17.05C443.362 15.026 444.572 13.552 446.376 13.552C447.828 13.552 448.862 14.476 448.862 14.476L449.72 12.848C449.72 12.848 448.51 11.792 446.332 11.792C443.054 11.792 441.096 14.41 441.096 17.16ZM451.083 19.712C451.083 21.186 452.205 22.264 453.943 22.264C455.879 22.264 456.891 21.032 457.155 20.614C457.441 21.406 458.079 22.044 459.597 22.154L460.257 20.438C460.257 20.438 459.157 20.416 459.157 19.184V14.982C459.157 12.76 458.409 11.792 456.055 11.792C453.437 11.792 451.743 13.046 451.743 13.046L452.315 14.674C452.315 14.674 453.833 13.53 455.461 13.53C457.067 13.53 456.979 14.63 456.979 15.884C453.261 16.368 451.083 17.622 451.083 19.712ZM454.493 20.548C453.855 20.548 453.327 20.262 453.327 19.558C453.327 18.392 454.449 17.666 456.979 17.292V19.008C456.319 19.778 455.505 20.548 454.493 20.548ZM462.402 22H464.58V15.554C465.262 14.894 466.67 13.684 467.77 13.684C468.518 13.684 468.958 14.212 468.958 15.62V22H471.136V14.828C471.136 12.694 470.058 11.792 468.496 11.792C466.67 11.792 465.24 13.002 464.536 13.772V11.88L462.402 12.232V22ZM267.474 50.24C267.474 50.922 268.112 51.318 269.102 51.648C268.046 52.198 266.572 53.144 266.572 54.596C266.572 56.334 268.728 57.214 270.928 57.214C273.92 57.214 276.362 55.52 276.362 53.518C276.362 51.692 274.36 51.142 272.6 50.702C270.532 50.196 269.564 49.998 269.564 49.602C269.564 49.36 269.916 49.096 270.378 48.788C270.598 48.832 270.84 48.832 271.104 48.832C273.238 48.832 275.504 47.666 275.504 45.488C275.504 44.608 275.086 44.014 274.778 43.662C275.042 43.706 275.35 43.728 275.592 43.728H276.78L276.626 41.99C276.626 41.99 275.966 42.21 275.306 42.21H274.162C273.062 42.21 272.49 41.792 271.28 41.792C269.058 41.792 267.056 43.046 267.056 45.268C267.056 46.61 267.782 47.776 269.036 48.392C268.222 48.854 267.474 49.514 267.474 50.24ZM271.346 52.22C273.194 52.704 274.228 52.99 274.228 53.848C274.228 54.838 272.82 55.63 271.06 55.63C269.806 55.63 268.53 55.234 268.53 54.244C268.53 53.254 269.74 52.594 270.686 52.066C270.906 52.11 271.126 52.154 271.346 52.22ZM271.258 47.292C269.85 47.292 269.19 46.28 269.19 45.334C269.19 44.3 269.938 43.332 271.258 43.332C272.666 43.332 273.348 44.476 273.348 45.444C273.348 46.566 272.468 47.292 271.258 47.292ZM278.009 47.182C278.009 49.844 279.703 52.264 283.025 52.264C285.511 52.264 287.029 50.834 287.029 50.834L286.413 49.25C286.413 49.25 285.027 50.482 283.355 50.482C281.617 50.482 280.517 49.316 280.275 47.512L285.709 46.786L286.963 46.434C286.963 43.42 285.247 41.792 282.871 41.792C279.967 41.792 278.009 44.146 278.009 47.182ZM282.717 43.486C284.455 43.486 284.587 45.51 284.587 45.51L280.275 46.06C280.473 44.608 281.309 43.486 282.717 43.486ZM289.982 49.294C289.982 51.34 291.104 52.264 292.82 52.264C294.58 52.264 295.878 51.208 295.878 51.208L295.328 49.558C295.064 49.712 294.14 50.438 293.304 50.438C292.578 50.438 292.16 49.954 292.16 48.744V43.706H295.306V42.056H292.16V39.24L290.026 39.702V41.968L288.508 42.518V43.706H289.982V49.294ZM303.01 51.78C303.758 51.956 305.452 52.264 306.64 52.264C310.402 52.264 312.206 49.58 312.206 46.676C312.206 43.948 310.622 41.792 307.872 41.792C306.508 41.792 305.694 42.342 305.188 42.914V36.27L303.01 36.622V51.78ZM307.52 43.552C308.972 43.552 309.962 44.762 309.962 46.83C309.962 49.294 308.576 50.614 306.684 50.614C305.87 50.614 305.188 50.394 305.188 50.394V44.586C305.65 44.168 306.486 43.552 307.52 43.552ZM313.819 49.712C313.819 51.186 314.941 52.264 316.679 52.264C318.615 52.264 319.627 51.032 319.891 50.614C320.177 51.406 320.815 52.044 322.333 52.154L322.993 50.438C322.993 50.438 321.893 50.416 321.893 49.184V44.982C321.893 42.76 321.145 41.792 318.791 41.792C316.173 41.792 314.479 43.046 314.479 43.046L315.051 44.674C315.051 44.674 316.569 43.53 318.197 43.53C319.803 43.53 319.715 44.63 319.715 45.884C315.997 46.368 313.819 47.622 313.819 49.712ZM317.229 50.548C316.591 50.548 316.063 50.262 316.063 49.558C316.063 48.392 317.185 47.666 319.715 47.292V49.008C319.055 49.778 318.241 50.548 317.229 50.548ZM324.501 47.16C324.501 50.042 326.503 52.264 329.605 52.264C331.981 52.264 333.125 50.988 333.125 50.988L332.421 49.448C332.421 49.448 331.343 50.482 329.759 50.482C327.889 50.482 326.767 49.008 326.767 47.05C326.767 45.026 327.977 43.552 329.781 43.552C331.233 43.552 332.267 44.476 332.267 44.476L333.125 42.848C333.125 42.848 331.915 41.792 329.737 41.792C326.459 41.792 324.501 44.41 324.501 47.16ZM335.323 52H337.501V47.292H337.809L341.769 52H344.563L339.723 46.412L344.255 42.056H341.417L337.809 45.686H337.501V36.27L335.323 36.622V52ZM350.797 47.072C350.797 49.712 352.579 52.264 355.879 52.264C359.465 52.264 361.049 49.25 361.049 46.83C361.049 44.278 359.267 41.792 355.967 41.792C352.403 41.792 350.797 44.586 350.797 47.072ZM353.063 46.874C353.063 44.894 354.229 43.53 355.923 43.53C357.947 43.53 358.783 45.356 358.783 47.116C358.783 49.118 357.617 50.526 355.945 50.526C353.965 50.526 353.063 48.722 353.063 46.874ZM363.402 52H365.58V45.554C366.262 44.894 367.67 43.684 368.77 43.684C369.518 43.684 369.958 44.212 369.958 45.62V52H372.136V44.828C372.136 42.694 371.058 41.792 369.496 41.792C367.67 41.792 366.24 43.002 365.536 43.772V41.88L363.402 42.232V52ZM380.925 49.294C380.925 51.34 382.047 52.264 383.763 52.264C385.523 52.264 386.821 51.208 386.821 51.208L386.271 49.558C386.007 49.712 385.083 50.438 384.247 50.438C383.521 50.438 383.103 49.954 383.103 48.744V43.706H386.249V42.056H383.103V39.24L380.969 39.702V41.968L379.451 42.518V43.706H380.925V49.294ZM388.668 52H390.846V45.84C391.264 45.18 392.166 43.992 393.266 43.992C393.706 43.992 394.146 44.168 394.146 44.168L394.586 41.968C394.586 41.968 394.278 41.792 393.728 41.792C392.21 41.792 391.198 43.2 390.802 43.882V41.88L388.668 42.232V52ZM395.524 49.712C395.524 51.186 396.646 52.264 398.384 52.264C400.32 52.264 401.332 51.032 401.596 50.614C401.882 51.406 402.52 52.044 404.038 52.154L404.698 50.438C404.698 50.438 403.598 50.416 403.598 49.184V44.982C403.598 42.76 402.85 41.792 400.496 41.792C397.878 41.792 396.184 43.046 396.184 43.046L396.756 44.674C396.756 44.674 398.274 43.53 399.902 43.53C401.508 43.53 401.42 44.63 401.42 45.884C397.702 46.368 395.524 47.622 395.524 49.712ZM398.934 50.548C398.296 50.548 397.768 50.262 397.768 49.558C397.768 48.392 398.89 47.666 401.42 47.292V49.008C400.76 49.778 399.946 50.548 398.934 50.548ZM406.206 47.16C406.206 50.042 408.208 52.264 411.31 52.264C413.686 52.264 414.83 50.988 414.83 50.988L414.126 49.448C414.126 49.448 413.048 50.482 411.464 50.482C409.594 50.482 408.472 49.008 408.472 47.05C408.472 45.026 409.682 43.552 411.486 43.552C412.938 43.552 413.972 44.476 413.972 44.476L414.83 42.848C414.83 42.848 413.62 41.792 411.442 41.792C408.164 41.792 406.206 44.41 406.206 47.16ZM417.028 52H419.206V47.292H419.514L423.474 52H426.268L421.428 46.412L425.96 42.056H423.122L419.514 45.686H419.206V36.27L417.028 36.622V52ZM266.704 79.712C266.704 81.186 267.826 82.264 269.564 82.264C271.5 82.264 272.512 81.032 272.776 80.614C273.062 81.406 273.7 82.044 275.218 82.154L275.878 80.438C275.878 80.438 274.778 80.416 274.778 79.184V74.982C274.778 72.76 274.03 71.792 271.676 71.792C269.058 71.792 267.364 73.046 267.364 73.046L267.936 74.674C267.936 74.674 269.454 73.53 271.082 73.53C272.688 73.53 272.6 74.63 272.6 75.884C268.882 76.368 266.704 77.622 266.704 79.712ZM270.114 80.548C269.476 80.548 268.948 80.262 268.948 79.558C268.948 78.392 270.07 77.666 272.6 77.292V79.008C271.94 79.778 271.126 80.548 270.114 80.548ZM277.077 73.706H278.639V82H280.817V73.706H283.567V72.056H280.817V70.868C280.817 68.536 281.873 67.722 283.039 67.722C284.117 67.722 285.085 68.426 285.085 68.426L285.943 66.754C285.943 66.754 284.799 65.918 283.061 65.918C280.465 65.918 278.639 67.744 278.639 71V71.968L277.077 72.54V73.706ZM286.093 79.294C286.093 81.34 287.215 82.264 288.931 82.264C290.691 82.264 291.989 81.208 291.989 81.208L291.439 79.558C291.175 79.712 290.251 80.438 289.415 80.438C288.689 80.438 288.271 79.954 288.271 78.744V73.706H291.417V72.056H288.271V69.24L286.137 69.702V71.968L284.619 72.518V73.706H286.093V79.294ZM293.22 77.182C293.22 79.844 294.914 82.264 298.236 82.264C300.722 82.264 302.24 80.834 302.24 80.834L301.624 79.25C301.624 79.25 300.238 80.482 298.566 80.482C296.828 80.482 295.728 79.316 295.486 77.512L300.92 76.786L302.174 76.434C302.174 73.42 300.458 71.792 298.082 71.792C295.178 71.792 293.22 74.146 293.22 77.182ZM297.928 73.486C299.666 73.486 299.798 75.51 299.798 75.51L295.486 76.06C295.684 74.608 296.52 73.486 297.928 73.486ZM304.621 82H306.799V75.84C307.217 75.18 308.119 73.992 309.219 73.992C309.659 73.992 310.099 74.168 310.099 74.168L310.539 71.968C310.539 71.968 310.231 71.792 309.681 71.792C308.163 71.792 307.151 73.2 306.755 73.882V71.88L304.621 72.232V82ZM316.763 79.712C316.763 81.186 317.885 82.264 319.623 82.264C321.559 82.264 322.571 81.032 322.835 80.614C323.121 81.406 323.759 82.044 325.277 82.154L325.937 80.438C325.937 80.438 324.837 80.416 324.837 79.184V74.982C324.837 72.76 324.089 71.792 321.735 71.792C319.117 71.792 317.423 73.046 317.423 73.046L317.995 74.674C317.995 74.674 319.513 73.53 321.141 73.53C322.747 73.53 322.659 74.63 322.659 75.884C318.941 76.368 316.763 77.622 316.763 79.712ZM320.173 80.548C319.535 80.548 319.007 80.262 319.007 79.558C319.007 78.392 320.129 77.666 322.659 77.292V79.008C321.999 79.778 321.185 80.548 320.173 80.548ZM333.367 82H335.545V75.84C335.963 75.18 336.865 73.992 337.965 73.992C338.405 73.992 338.845 74.168 338.845 74.168L339.285 71.968C339.285 71.968 338.977 71.792 338.427 71.792C336.909 71.792 335.897 73.2 335.501 73.882V71.88L333.367 72.232V82ZM340.228 77.182C340.228 79.844 341.922 82.264 345.244 82.264C347.73 82.264 349.248 80.834 349.248 80.834L348.632 79.25C348.632 79.25 347.246 80.482 345.574 80.482C343.836 80.482 342.736 79.316 342.494 77.512L347.928 76.786L349.182 76.434C349.182 73.42 347.466 71.792 345.09 71.792C342.186 71.792 340.228 74.146 340.228 77.182ZM344.936 73.486C346.674 73.486 346.806 75.51 346.806 75.51L342.494 76.06C342.692 74.608 343.528 73.486 344.936 73.486ZM351.673 82H353.851V66.27L351.673 66.622V82ZM356.122 79.712C356.122 81.186 357.244 82.264 358.982 82.264C360.918 82.264 361.93 81.032 362.194 80.614C362.48 81.406 363.118 82.044 364.636 82.154L365.296 80.438C365.296 80.438 364.196 80.416 364.196 79.184V74.982C364.196 72.76 363.448 71.792 361.094 71.792C358.476 71.792 356.782 73.046 356.782 73.046L357.354 74.674C357.354 74.674 358.872 73.53 360.5 73.53C362.106 73.53 362.018 74.63 362.018 75.884C358.3 76.368 356.122 77.622 356.122 79.712ZM359.532 80.548C358.894 80.548 358.366 80.262 358.366 79.558C358.366 78.392 359.488 77.666 362.018 77.292V79.008C361.358 79.778 360.544 80.548 359.532 80.548ZM367.441 87.126L369.619 86.774V81.736C370.037 82.044 370.785 82.264 371.709 82.264C374.877 82.264 376.725 79.668 376.725 76.72C376.725 74.014 375.141 71.792 372.523 71.792C370.961 71.792 370.015 72.606 369.553 73.464V71.88L367.441 72.232V87.126ZM372.149 73.596C373.491 73.596 374.437 74.806 374.437 76.874C374.437 79.25 373.183 80.548 371.313 80.548C370.279 80.548 369.619 80.174 369.619 79.426V75.202C369.905 74.784 370.829 73.596 372.149 73.596ZM378.447 81.384C378.447 81.384 379.679 82.264 381.747 82.264C384.189 82.264 385.619 81.054 385.619 79.25C385.619 76.082 380.845 76.236 380.845 74.498C380.845 73.926 381.329 73.508 382.429 73.508C383.705 73.508 384.849 74.124 384.849 74.124L385.355 72.342C385.355 72.342 384.255 71.792 382.517 71.792C379.767 71.792 378.667 73.134 378.667 74.674C378.667 77.798 383.441 77.666 383.441 79.448C383.441 80.086 382.891 80.548 381.725 80.548C380.119 80.548 378.909 79.536 378.909 79.536L378.447 81.384ZM387.343 77.182C387.343 79.844 389.037 82.264 392.359 82.264C394.845 82.264 396.363 80.834 396.363 80.834L395.747 79.25C395.747 79.25 394.361 80.482 392.689 80.482C390.951 80.482 389.851 79.316 389.609 77.512L395.043 76.786L396.297 76.434C396.297 73.42 394.581 71.792 392.205 71.792C389.301 71.792 387.343 74.146 387.343 77.182ZM392.051 73.486C393.789 73.486 393.921 75.51 393.921 75.51L389.609 76.06C389.807 74.608 390.643 73.486 392.051 73.486Z" fill="#333333"/>
<path d="M523.002 22H528.062C531.01 22 533.078 20.328 533.078 17.732C533.078 15.4 531.384 14.432 530.526 14.08C531.296 13.486 532.286 12.408 532.286 10.846C532.286 9.152 531.098 7.326 527.314 7.326H523.002V22ZM525.268 20.108V15.422H527.732C529.778 15.422 530.68 16.412 530.68 17.776C530.68 19.162 529.778 20.108 527.732 20.108H525.268ZM525.268 9.218H526.984C529.272 9.218 529.888 10.12 529.888 11.22C529.888 12.804 528.48 13.552 528.48 13.552H525.268V9.218ZM534.943 17.182C534.943 19.844 536.637 22.264 539.959 22.264C542.445 22.264 543.963 20.834 543.963 20.834L543.347 19.25C543.347 19.25 541.961 20.482 540.289 20.482C538.551 20.482 537.451 19.316 537.209 17.512L542.643 16.786L543.897 16.434C543.897 13.42 542.181 11.792 539.805 11.792C536.901 11.792 534.943 14.146 534.943 17.182ZM539.651 13.486C541.389 13.486 541.521 15.51 541.521 15.51L537.209 16.06C537.407 14.608 538.243 13.486 539.651 13.486ZM546.388 22H548.566V6.27L546.388 6.622V22ZM552.773 9.68C553.565 9.68 554.159 9.108 554.159 8.338C554.159 7.568 553.565 6.996 552.773 6.996C552.003 6.996 551.409 7.568 551.409 8.338C551.409 9.108 552.003 9.68 552.773 9.68ZM551.673 22H553.851V12.056H551.673V22ZM556.298 17.182C556.298 19.844 557.992 22.264 561.314 22.264C563.8 22.264 565.318 20.834 565.318 20.834L564.702 19.25C564.702 19.25 563.316 20.482 561.644 20.482C559.906 20.482 558.806 19.316 558.564 17.512L563.998 16.786L565.252 16.434C565.252 13.42 563.536 11.792 561.16 11.792C558.256 11.792 556.298 14.146 556.298 17.182ZM561.006 13.486C562.744 13.486 562.876 15.51 562.876 15.51L558.564 16.06C558.762 14.608 559.598 13.486 561.006 13.486ZM570.097 22.088H572.121L576.213 12.056H573.991L571.197 19.272L568.777 12.056H566.489L570.097 22.088ZM577.224 17.182C577.224 19.844 578.918 22.264 582.24 22.264C584.726 22.264 586.244 20.834 586.244 20.834L585.628 19.25C585.628 19.25 584.242 20.482 582.57 20.482C580.832 20.482 579.732 19.316 579.49 17.512L584.924 16.786L586.178 16.434C586.178 13.42 584.462 11.792 582.086 11.792C579.182 11.792 577.224 14.146 577.224 17.182ZM581.932 13.486C583.67 13.486 583.802 15.51 583.802 15.51L579.49 16.06C579.688 14.608 580.524 13.486 581.932 13.486ZM594.482 19.294C594.482 21.34 595.604 22.264 597.32 22.264C599.08 22.264 600.378 21.208 600.378 21.208L599.828 19.558C599.564 19.712 598.64 20.438 597.804 20.438C597.078 20.438 596.66 19.954 596.66 18.744V13.706H599.806V12.056H596.66V9.24L594.526 9.702V11.968L593.008 12.518V13.706H594.482V19.294ZM602.269 22H604.447V15.598C605.107 14.938 606.537 13.684 607.637 13.684C608.385 13.684 608.825 14.212 608.825 15.62V22H611.003V14.828C611.003 12.694 609.925 11.792 608.341 11.792C606.515 11.792 605.107 13.024 604.447 13.728V6.27L602.269 6.622V22ZM613.142 19.712C613.142 21.186 614.264 22.264 616.002 22.264C617.938 22.264 618.95 21.032 619.214 20.614C619.5 21.406 620.138 22.044 621.656 22.154L622.316 20.438C622.316 20.438 621.216 20.416 621.216 19.184V14.982C621.216 12.76 620.468 11.792 618.114 11.792C615.496 11.792 613.802 13.046 613.802 13.046L614.374 14.674C614.374 14.674 615.892 13.53 617.52 13.53C619.126 13.53 619.038 14.63 619.038 15.884C615.32 16.368 613.142 17.622 613.142 19.712ZM616.552 20.548C615.914 20.548 615.386 20.262 615.386 19.558C615.386 18.392 616.508 17.666 619.038 17.292V19.008C618.378 19.778 617.564 20.548 616.552 20.548ZM624.947 19.294C624.947 21.34 626.069 22.264 627.785 22.264C629.545 22.264 630.843 21.208 630.843 21.208L630.293 19.558C630.029 19.712 629.105 20.438 628.269 20.438C627.543 20.438 627.125 19.954 627.125 18.744V13.706H630.271V12.056H627.125V9.24L624.991 9.702V11.968L623.473 12.518V13.706H624.947V19.294ZM642.485 12.144L644.399 11.066C643.365 9.966 643.079 9.35 643.079 8.646C643.079 7.876 643.453 7.194 644.289 6.556L643.453 5.676C642.045 6.754 641.319 8.074 641.319 9.394C641.319 10.34 641.649 11.242 642.485 12.144ZM638.635 12.144L640.549 11.066C639.515 9.966 639.229 9.35 639.229 8.646C639.229 7.876 639.603 7.194 640.439 6.556L639.603 5.676C638.195 6.754 637.469 8.074 637.469 9.394C637.469 10.34 637.799 11.242 638.635 12.144ZM647.096 22H649.362V7.326H647.096V22ZM657.532 17.16C657.532 20.042 659.534 22.264 662.636 22.264C665.012 22.264 666.156 20.988 666.156 20.988L665.452 19.448C665.452 19.448 664.374 20.482 662.79 20.482C660.92 20.482 659.798 19.008 659.798 17.05C659.798 15.026 661.008 13.552 662.812 13.552C664.264 13.552 665.298 14.476 665.298 14.476L666.156 12.848C666.156 12.848 664.946 11.792 662.768 11.792C659.49 11.792 657.532 14.41 657.532 17.16ZM667.518 19.712C667.518 21.186 668.64 22.264 670.378 22.264C672.314 22.264 673.326 21.032 673.59 20.614C673.876 21.406 674.514 22.044 676.032 22.154L676.692 20.438C676.692 20.438 675.592 20.416 675.592 19.184V14.982C675.592 12.76 674.844 11.792 672.49 11.792C669.872 11.792 668.178 13.046 668.178 13.046L668.75 14.674C668.75 14.674 670.268 13.53 671.896 13.53C673.502 13.53 673.414 14.63 673.414 15.884C669.696 16.368 667.518 17.622 667.518 19.712ZM670.928 20.548C670.29 20.548 669.762 20.262 669.762 19.558C669.762 18.392 670.884 17.666 673.414 17.292V19.008C672.754 19.778 671.94 20.548 670.928 20.548ZM678.838 22H681.016V15.554C681.698 14.894 683.106 13.684 684.206 13.684C684.954 13.684 685.394 14.212 685.394 15.62V22H687.572V14.828C687.572 12.694 686.494 11.792 684.932 11.792C683.106 11.792 681.676 13.002 680.972 13.772V11.88L678.838 12.232V22ZM695.173 17.336C695.173 20.064 696.845 22.264 699.441 22.264C701.025 22.264 702.037 21.494 702.565 20.636C702.675 21.34 702.873 22.154 702.873 22.154L704.963 22C704.963 22 704.523 20.152 704.523 18.942V6.27L702.345 6.622V12.122C702.059 12.012 701.399 11.792 700.497 11.792C696.977 11.792 695.173 14.498 695.173 17.336ZM699.815 20.526C698.407 20.526 697.461 19.272 697.461 17.204C697.461 14.828 698.715 13.508 700.607 13.508C701.509 13.508 702.301 13.838 702.345 14.828V18.92C702.037 19.382 701.157 20.526 699.815 20.526ZM706.967 17.072C706.967 19.712 708.749 22.264 712.049 22.264C715.635 22.264 717.219 19.25 717.219 16.83C717.219 14.278 715.437 11.792 712.137 11.792C708.573 11.792 706.967 14.586 706.967 17.072ZM709.233 16.874C709.233 14.894 710.399 13.53 712.093 13.53C714.117 13.53 714.953 15.356 714.953 17.116C714.953 19.118 713.787 20.526 712.115 20.526C710.135 20.526 709.233 18.722 709.233 16.874ZM523.068 49.294C523.068 51.34 524.19 52.264 525.906 52.264C527.666 52.264 528.964 51.208 528.964 51.208L528.414 49.558C528.15 49.712 527.226 50.438 526.39 50.438C525.664 50.438 525.246 49.954 525.246 48.744V43.706H528.392V42.056H525.246V39.24L523.112 39.702V41.968L521.594 42.518V43.706H523.068V49.294ZM530.854 52H533.032V45.598C533.692 44.938 535.122 43.684 536.222 43.684C536.97 43.684 537.41 44.212 537.41 45.62V52H539.588V44.828C539.588 42.694 538.51 41.792 536.926 41.792C535.1 41.792 533.692 43.024 533.032 43.728V36.27L530.854 36.622V52ZM543.663 39.68C544.455 39.68 545.049 39.108 545.049 38.338C545.049 37.568 544.455 36.996 543.663 36.996C542.893 36.996 542.299 37.568 542.299 38.338C542.299 39.108 542.893 39.68 543.663 39.68ZM542.563 52H544.741V42.056H542.563V52ZM547.145 51.384C547.145 51.384 548.377 52.264 550.445 52.264C552.887 52.264 554.317 51.054 554.317 49.25C554.317 46.082 549.543 46.236 549.543 44.498C549.543 43.926 550.027 43.508 551.127 43.508C552.403 43.508 553.547 44.124 553.547 44.124L554.053 42.342C554.053 42.342 552.953 41.792 551.215 41.792C548.465 41.792 547.365 43.134 547.365 44.674C547.365 47.798 552.139 47.666 552.139 49.448C552.139 50.086 551.589 50.548 550.423 50.548C548.817 50.548 547.607 49.536 547.607 49.536L547.145 51.384ZM560.66 42.144C562.068 41.044 562.794 39.746 562.794 38.404C562.794 37.458 562.464 36.556 561.628 35.676L559.714 36.732C560.748 37.832 561.034 38.448 561.034 39.152C561.034 39.922 560.66 40.604 559.824 41.242L560.66 42.144ZM556.81 42.144C558.218 41.044 558.944 39.746 558.944 38.404C558.944 37.458 558.614 36.556 557.778 35.676L555.842 36.732C556.898 37.832 557.184 38.448 557.184 39.152C557.184 39.922 556.81 40.604 555.974 41.242L556.81 42.144ZM572.518 52.088H574.63L577.182 45.004L579.47 52.088H581.604L585.168 42.056H582.946L580.548 49.536L578.216 42.056H576.324L573.75 49.58L571.572 42.056H569.328L572.518 52.088ZM588.136 39.68C588.928 39.68 589.522 39.108 589.522 38.338C589.522 37.568 588.928 36.996 588.136 36.996C587.366 36.996 586.772 37.568 586.772 38.338C586.772 39.108 587.366 39.68 588.136 39.68ZM587.036 52H589.214V42.056H587.036V52ZM592.849 49.294C592.849 51.34 593.971 52.264 595.687 52.264C597.447 52.264 598.745 51.208 598.745 51.208L598.195 49.558C597.931 49.712 597.007 50.438 596.171 50.438C595.445 50.438 595.027 49.954 595.027 48.744V43.706H598.173V42.056H595.027V39.24L592.893 39.702V41.968L591.375 42.518V43.706H592.849V49.294ZM600.636 52H602.814V45.598C603.474 44.938 604.904 43.684 606.004 43.684C606.752 43.684 607.192 44.212 607.192 45.62V52H609.37V44.828C609.37 42.694 608.292 41.792 606.708 41.792C604.882 41.792 603.474 43.024 602.814 43.728V36.27L600.636 36.622V52ZM618.158 49.294C618.158 51.34 619.28 52.264 620.996 52.264C622.756 52.264 624.054 51.208 624.054 51.208L623.504 49.558C623.24 49.712 622.316 50.438 621.48 50.438C620.754 50.438 620.336 49.954 620.336 48.744V43.706H623.482V42.056H620.336V39.24L618.202 39.702V41.968L616.684 42.518V43.706H618.158V49.294ZM625.944 52H628.122V45.598C628.782 44.938 630.212 43.684 631.312 43.684C632.06 43.684 632.5 44.212 632.5 45.62V52H634.678V44.828C634.678 42.694 633.6 41.792 632.016 41.792C630.19 41.792 628.782 43.024 628.122 43.728V36.27L625.944 36.622V52ZM636.993 47.182C636.993 49.844 638.687 52.264 642.009 52.264C644.495 52.264 646.013 50.834 646.013 50.834L645.397 49.25C645.397 49.25 644.011 50.482 642.339 50.482C640.601 50.482 639.501 49.316 639.259 47.512L644.693 46.786L645.947 46.434C645.947 43.42 644.231 41.792 641.855 41.792C638.951 41.792 636.993 44.146 636.993 47.182ZM641.701 43.486C643.439 43.486 643.571 45.51 643.571 45.51L639.259 46.06C639.457 44.608 640.293 43.486 641.701 43.486ZM653.68 52H655.858V45.84C656.276 45.18 657.178 43.992 658.278 43.992C658.718 43.992 659.158 44.168 659.158 44.168L659.598 41.968C659.598 41.968 659.29 41.792 658.74 41.792C657.222 41.792 656.21 43.2 655.814 43.882V41.88L653.68 42.232V52ZM662.472 39.68C663.264 39.68 663.858 39.108 663.858 38.338C663.858 37.568 663.264 36.996 662.472 36.996C661.702 36.996 661.108 37.568 661.108 38.338C661.108 39.108 661.702 39.68 662.472 39.68ZM661.372 52H663.55V42.056H661.372V52ZM666.591 50.24C666.591 50.922 667.229 51.318 668.219 51.648C667.163 52.198 665.689 53.144 665.689 54.596C665.689 56.334 667.845 57.214 670.045 57.214C673.037 57.214 675.479 55.52 675.479 53.518C675.479 51.692 673.477 51.142 671.717 50.702C669.649 50.196 668.681 49.998 668.681 49.602C668.681 49.36 669.033 49.096 669.495 48.788C669.715 48.832 669.957 48.832 670.221 48.832C672.355 48.832 674.621 47.666 674.621 45.488C674.621 44.608 674.203 44.014 673.895 43.662C674.159 43.706 674.467 43.728 674.709 43.728H675.897L675.743 41.99C675.743 41.99 675.083 42.21 674.423 42.21H673.279C672.179 42.21 671.607 41.792 670.397 41.792C668.175 41.792 666.173 43.046 666.173 45.268C666.173 46.61 666.899 47.776 668.153 48.392C667.339 48.854 666.591 49.514 666.591 50.24ZM670.463 52.22C672.311 52.704 673.345 52.99 673.345 53.848C673.345 54.838 671.937 55.63 670.177 55.63C668.923 55.63 667.647 55.234 667.647 54.244C667.647 53.254 668.857 52.594 669.803 52.066C670.023 52.11 670.243 52.154 670.463 52.22ZM670.375 47.292C668.967 47.292 668.307 46.28 668.307 45.334C668.307 44.3 669.055 43.332 670.375 43.332C671.783 43.332 672.465 44.476 672.465 45.444C672.465 46.566 671.585 47.292 670.375 47.292ZM677.786 52H679.964V45.598C680.624 44.938 682.054 43.684 683.154 43.684C683.902 43.684 684.342 44.212 684.342 45.62V52H686.52V44.828C686.52 42.694 685.442 41.792 683.858 41.792C682.032 41.792 680.624 43.024 679.964 43.728V36.27L677.786 36.622V52ZM690.023 49.294C690.023 51.34 691.145 52.264 692.861 52.264C694.621 52.264 695.919 51.208 695.919 51.208L695.369 49.558C695.105 49.712 694.181 50.438 693.345 50.438C692.619 50.438 692.201 49.954 692.201 48.744V43.706H695.347V42.056H692.201V39.24L690.067 39.702V41.968L688.549 42.518V43.706H690.023V49.294ZM521.836 81.384C521.836 81.384 523.068 82.264 525.136 82.264C527.578 82.264 529.008 81.054 529.008 79.25C529.008 76.082 524.234 76.236 524.234 74.498C524.234 73.926 524.718 73.508 525.818 73.508C527.094 73.508 528.238 74.124 528.238 74.124L528.744 72.342C528.744 72.342 527.644 71.792 525.906 71.792C523.156 71.792 522.056 73.134 522.056 74.674C522.056 77.798 526.83 77.666 526.83 79.448C526.83 80.086 526.28 80.548 525.114 80.548C523.508 80.548 522.298 79.536 522.298 79.536L521.836 81.384ZM531.282 79.272C531.282 81.406 532.382 82.264 533.988 82.264C535.814 82.264 537.2 81.098 537.838 80.416C537.948 81.142 538.168 82.176 538.168 82.176L540.28 81.978C540.28 81.978 539.84 80.152 539.84 78.942V72.056H537.662V78.744C537.046 79.316 535.814 80.372 534.692 80.372C533.878 80.372 533.46 79.822 533.46 78.436V72.056H531.282V79.272ZM542.949 87.126L545.127 86.774V81.736C545.545 82.044 546.293 82.264 547.217 82.264C550.385 82.264 552.233 79.668 552.233 76.72C552.233 74.014 550.649 71.792 548.031 71.792C546.469 71.792 545.523 72.606 545.061 73.464V71.88L542.949 72.232V87.126ZM547.657 73.596C548.999 73.596 549.945 74.806 549.945 76.874C549.945 79.25 548.691 80.548 546.821 80.548C545.787 80.548 545.127 80.174 545.127 79.426V75.202C545.413 74.784 546.337 73.596 547.657 73.596ZM554.615 87.126L556.793 86.774V81.736C557.211 82.044 557.959 82.264 558.883 82.264C562.051 82.264 563.899 79.668 563.899 76.72C563.899 74.014 562.315 71.792 559.697 71.792C558.135 71.792 557.189 72.606 556.727 73.464V71.88L554.615 72.232V87.126ZM559.323 73.596C560.665 73.596 561.611 74.806 561.611 76.874C561.611 79.25 560.357 80.548 558.487 80.548C557.453 80.548 556.793 80.174 556.793 79.426V75.202C557.079 74.784 558.003 73.596 559.323 73.596ZM565.643 77.072C565.643 79.712 567.425 82.264 570.725 82.264C574.311 82.264 575.895 79.25 575.895 76.83C575.895 74.278 574.113 71.792 570.813 71.792C567.249 71.792 565.643 74.586 565.643 77.072ZM567.909 76.874C567.909 74.894 569.075 73.53 570.769 73.53C572.793 73.53 573.629 75.356 573.629 77.116C573.629 79.118 572.463 80.526 570.791 80.526C568.811 80.526 567.909 78.722 567.909 76.874ZM578.248 82H580.426V75.84C580.844 75.18 581.746 73.992 582.846 73.992C583.286 73.992 583.726 74.168 583.726 74.168L584.166 71.968C584.166 71.968 583.858 71.792 583.308 71.792C581.79 71.792 580.778 73.2 580.382 73.882V71.88L578.248 72.232V82ZM586.468 79.294C586.468 81.34 587.59 82.264 589.306 82.264C591.066 82.264 592.364 81.208 592.364 81.208L591.814 79.558C591.55 79.712 590.626 80.438 589.79 80.438C589.064 80.438 588.646 79.954 588.646 78.744V73.706H591.792V72.056H588.646V69.24L586.512 69.702V71.968L584.994 72.518V73.706H586.468V79.294ZM593.925 80.79C593.925 81.604 594.585 82.264 595.399 82.264C596.213 82.264 596.895 81.604 596.895 80.79C596.895 79.954 596.213 79.294 595.399 79.294C594.585 79.294 593.925 79.954 593.925 80.79Z" fill="#333333"/>
<path d="M775.002 23H777.268V17.104H779.534L783.45 23H786.134L781.822 16.576C783.296 15.894 784.638 14.508 784.638 12.506C784.638 10.284 783.098 8.326 779.314 8.326H775.002V23ZM777.268 15.212V10.218H778.94C781.382 10.218 782.24 11.34 782.24 12.66C782.24 14.288 780.92 15.212 779.27 15.212H777.268ZM786.921 18.182C786.921 20.844 788.615 23.264 791.937 23.264C794.423 23.264 795.941 21.834 795.941 21.834L795.325 20.25C795.325 20.25 793.939 21.482 792.267 21.482C790.529 21.482 789.429 20.316 789.187 18.512L794.621 17.786L795.875 17.434C795.875 14.42 794.159 12.792 791.783 12.792C788.879 12.792 786.921 15.146 786.921 18.182ZM791.629 14.486C793.367 14.486 793.499 16.51 793.499 16.51L789.187 17.06C789.385 15.608 790.221 14.486 791.629 14.486ZM797.53 20.712C797.53 22.186 798.652 23.264 800.39 23.264C802.326 23.264 803.338 22.032 803.602 21.614C803.888 22.406 804.526 23.044 806.044 23.154L806.704 21.438C806.704 21.438 805.604 21.416 805.604 20.184V15.982C805.604 13.76 804.856 12.792 802.502 12.792C799.884 12.792 798.19 14.046 798.19 14.046L798.762 15.674C798.762 15.674 800.28 14.53 801.908 14.53C803.514 14.53 803.426 15.63 803.426 16.884C799.708 17.368 797.53 18.622 797.53 20.712ZM800.94 21.548C800.302 21.548 799.774 21.262 799.774 20.558C799.774 19.392 800.896 18.666 803.426 18.292V20.008C802.766 20.778 801.952 21.548 800.94 21.548ZM808.894 23H811.072V7.27L808.894 7.622V23ZM815.279 10.68C816.071 10.68 816.665 10.108 816.665 9.338C816.665 8.568 816.071 7.996 815.279 7.996C814.509 7.996 813.915 8.568 813.915 9.338C813.915 10.108 814.509 10.68 815.279 10.68ZM814.179 23H816.357V13.056H814.179V23ZM818.782 23H826.768V21.24H821.532L826.592 14.376V13.056H818.958V14.816H823.732L818.782 21.68V23ZM828.407 18.182C828.407 20.844 830.101 23.264 833.423 23.264C835.909 23.264 837.427 21.834 837.427 21.834L836.811 20.25C836.811 20.25 835.425 21.482 833.753 21.482C832.015 21.482 830.915 20.316 830.673 18.512L836.107 17.786L837.361 17.434C837.361 14.42 835.645 12.792 833.269 12.792C830.365 12.792 828.407 15.146 828.407 18.182ZM833.115 14.486C834.853 14.486 834.985 16.51 834.985 16.51L830.673 17.06C830.871 15.608 831.707 14.486 833.115 14.486ZM845.666 20.294C845.666 22.34 846.788 23.264 848.504 23.264C850.264 23.264 851.562 22.208 851.562 22.208L851.012 20.558C850.748 20.712 849.824 21.438 848.988 21.438C848.262 21.438 847.844 20.954 847.844 19.744V14.706H850.99V13.056H847.844V10.24L845.71 10.702V12.968L844.192 13.518V14.706H845.666V20.294ZM853.452 23H855.63V16.598C856.29 15.938 857.72 14.684 858.82 14.684C859.568 14.684 860.008 15.212 860.008 16.62V23H862.186V15.828C862.186 13.694 861.108 12.792 859.524 12.792C857.698 12.792 856.29 14.024 855.63 14.728V7.27L853.452 7.622V23ZM864.325 20.712C864.325 22.186 865.447 23.264 867.185 23.264C869.121 23.264 870.133 22.032 870.397 21.614C870.683 22.406 871.321 23.044 872.839 23.154L873.499 21.438C873.499 21.438 872.399 21.416 872.399 20.184V15.982C872.399 13.76 871.651 12.792 869.297 12.792C866.679 12.792 864.985 14.046 864.985 14.046L865.557 15.674C865.557 15.674 867.075 14.53 868.703 14.53C870.309 14.53 870.221 15.63 870.221 16.884C866.503 17.368 864.325 18.622 864.325 20.712ZM867.735 21.548C867.097 21.548 866.569 21.262 866.569 20.558C866.569 19.392 867.691 18.666 870.221 18.292V20.008C869.561 20.778 868.747 21.548 867.735 21.548ZM876.131 20.294C876.131 22.34 877.253 23.264 878.969 23.264C880.729 23.264 882.027 22.208 882.027 22.208L881.477 20.558C881.213 20.712 880.289 21.438 879.453 21.438C878.727 21.438 878.309 20.954 878.309 19.744V14.706H881.455V13.056H878.309V10.24L876.175 10.702V12.968L874.657 13.518V14.706H876.131V20.294ZM889.664 23H891.93V8.326H889.664V23ZM900.1 18.16C900.1 21.042 902.102 23.264 905.204 23.264C907.58 23.264 908.724 21.988 908.724 21.988L908.02 20.448C908.02 20.448 906.942 21.482 905.358 21.482C903.488 21.482 902.366 20.008 902.366 18.05C902.366 16.026 903.576 14.552 905.38 14.552C906.832 14.552 907.866 15.476 907.866 15.476L908.724 13.848C908.724 13.848 907.514 12.792 905.336 12.792C902.058 12.792 900.1 15.41 900.1 18.16ZM910.087 20.712C910.087 22.186 911.209 23.264 912.947 23.264C914.883 23.264 915.895 22.032 916.159 21.614C916.445 22.406 917.083 23.044 918.601 23.154L919.261 21.438C919.261 21.438 918.161 21.416 918.161 20.184V15.982C918.161 13.76 917.413 12.792 915.059 12.792C912.441 12.792 910.747 14.046 910.747 14.046L911.319 15.674C911.319 15.674 912.837 14.53 914.465 14.53C916.071 14.53 915.983 15.63 915.983 16.884C912.265 17.368 910.087 18.622 910.087 20.712ZM913.497 21.548C912.859 21.548 912.331 21.262 912.331 20.558C912.331 19.392 913.453 18.666 915.983 18.292V20.008C915.323 20.778 914.509 21.548 913.497 21.548ZM921.406 23H923.584V16.554C924.266 15.894 925.674 14.684 926.774 14.684C927.522 14.684 927.962 15.212 927.962 16.62V23H930.14V15.828C930.14 13.694 929.062 12.792 927.5 12.792C925.674 12.792 924.244 14.002 923.54 14.772V12.88L921.406 13.232V23ZM938.401 23H940.579V7.27L938.401 7.622V23ZM944.786 10.68C945.578 10.68 946.172 10.108 946.172 9.338C946.172 8.568 945.578 7.996 944.786 7.996C944.016 7.996 943.422 8.568 943.422 9.338C943.422 10.108 944.016 10.68 944.786 10.68ZM943.686 23H945.864V13.056H943.686V23ZM951.326 23.088H953.35L957.442 13.056H955.22L952.426 20.272L950.006 13.056H947.718L951.326 23.088ZM958.452 18.182C958.452 20.844 960.146 23.264 963.468 23.264C965.954 23.264 967.472 21.834 967.472 21.834L966.856 20.25C966.856 20.25 965.47 21.482 963.798 21.482C962.06 21.482 960.96 20.316 960.718 18.512L966.152 17.786L967.406 17.434C967.406 14.42 965.69 12.792 963.314 12.792C960.41 12.792 958.452 15.146 958.452 18.182ZM963.16 14.486C964.898 14.486 965.03 16.51 965.03 16.51L960.718 17.06C960.916 15.608 961.752 14.486 963.16 14.486ZM974.347 20.712C974.347 22.186 975.469 23.264 977.207 23.264C979.143 23.264 980.155 22.032 980.419 21.614C980.705 22.406 981.343 23.044 982.861 23.154L983.521 21.438C983.521 21.438 982.421 21.416 982.421 20.184V15.982C982.421 13.76 981.673 12.792 979.319 12.792C976.701 12.792 975.007 14.046 975.007 14.046L975.579 15.674C975.579 15.674 977.097 14.53 978.725 14.53C980.331 14.53 980.243 15.63 980.243 16.884C976.525 17.368 974.347 18.622 974.347 20.712ZM977.757 21.548C977.119 21.548 976.591 21.262 976.591 20.558C976.591 19.392 977.713 18.666 980.243 18.292V20.008C979.583 20.778 978.769 21.548 977.757 21.548ZM773.55 44.706H775.112V53H777.29V44.706H780.04V43.056H777.29V41.868C777.29 39.536 778.346 38.722 779.512 38.722C780.59 38.722 781.558 39.426 781.558 39.426L782.416 37.754C782.416 37.754 781.272 36.918 779.534 36.918C776.938 36.918 775.112 38.744 775.112 42V42.968L773.55 43.54V44.706ZM781.928 50.272C781.928 52.406 783.028 53.264 784.634 53.264C786.46 53.264 787.846 52.098 788.484 51.416C788.594 52.142 788.814 53.176 788.814 53.176L790.926 52.978C790.926 52.978 790.486 51.152 790.486 49.942V43.056H788.308V49.744C787.692 50.316 786.46 51.372 785.338 51.372C784.524 51.372 784.106 50.822 784.106 49.436V43.056H781.928V50.272ZM793.64 53H795.818V37.27L793.64 37.622V53ZM798.925 53H801.103V37.27L798.925 37.622V53ZM809.495 53H811.673V37.27L809.495 37.622V53ZM815.88 40.68C816.672 40.68 817.266 40.108 817.266 39.338C817.266 38.568 816.672 37.996 815.88 37.996C815.11 37.996 814.516 38.568 814.516 39.338C814.516 40.108 815.11 40.68 815.88 40.68ZM814.78 53H816.958V43.056H814.78V53ZM819.075 44.706H820.637V53H822.815V44.706H825.565V43.056H822.815V41.868C822.815 39.536 823.871 38.722 825.037 38.722C826.115 38.722 827.083 39.426 827.083 39.426L827.941 37.754C827.941 37.754 826.797 36.918 825.059 36.918C822.463 36.918 820.637 38.744 820.637 42V42.968L819.075 43.54V44.706ZM826.753 48.182C826.753 50.844 828.447 53.264 831.769 53.264C834.255 53.264 835.773 51.834 835.773 51.834L835.157 50.25C835.157 50.25 833.771 51.482 832.099 51.482C830.361 51.482 829.261 50.316 829.019 48.512L834.453 47.786L835.707 47.434C835.707 44.42 833.991 42.792 831.615 42.792C828.711 42.792 826.753 45.146 826.753 48.182ZM831.461 44.486C833.199 44.486 833.331 46.51 833.331 46.51L829.019 47.06C829.217 45.608 830.053 44.486 831.461 44.486ZM842.823 48.182C842.823 50.844 844.517 53.264 847.839 53.264C850.325 53.264 851.843 51.834 851.843 51.834L851.227 50.25C851.227 50.25 849.841 51.482 848.169 51.482C846.431 51.482 845.331 50.316 845.089 48.512L850.523 47.786L851.777 47.434C851.777 44.42 850.061 42.792 847.685 42.792C844.781 42.792 842.823 45.146 842.823 48.182ZM847.531 44.486C849.269 44.486 849.401 46.51 849.401 46.51L845.089 47.06C845.287 45.608 846.123 44.486 847.531 44.486ZM856.623 53.088H858.647L862.739 43.056H860.517L857.723 50.272L855.303 43.056H853.015L856.623 53.088ZM863.749 48.182C863.749 50.844 865.443 53.264 868.765 53.264C871.251 53.264 872.769 51.834 872.769 51.834L872.153 50.25C872.153 50.25 870.767 51.482 869.095 51.482C867.357 51.482 866.257 50.316 866.015 48.512L871.449 47.786L872.703 47.434C872.703 44.42 870.987 42.792 868.611 42.792C865.707 42.792 863.749 45.146 863.749 48.182ZM868.457 44.486C870.195 44.486 870.327 46.51 870.327 46.51L866.015 47.06C866.213 45.608 867.049 44.486 868.457 44.486ZM875.15 53H877.328V46.554C878.01 45.894 879.418 44.684 880.518 44.684C881.266 44.684 881.706 45.212 881.706 46.62V53H883.884V45.828C883.884 43.694 882.806 42.792 881.244 42.792C879.418 42.792 877.988 44.002 877.284 44.772V42.88L875.15 43.232V53ZM894.191 53.088H896.303L898.855 46.004L901.143 53.088H903.277L906.841 43.056H904.619L902.221 50.536L899.889 43.056H897.997L895.423 50.58L893.245 43.056H891.001L894.191 53.088ZM909.81 40.68C910.602 40.68 911.196 40.108 911.196 39.338C911.196 38.568 910.602 37.996 909.81 37.996C909.04 37.996 908.446 38.568 908.446 39.338C908.446 40.108 909.04 40.68 909.81 40.68ZM908.71 53H910.888V43.056H908.71V53ZM914.523 50.294C914.523 52.34 915.645 53.264 917.361 53.264C919.121 53.264 920.419 52.208 920.419 52.208L919.869 50.558C919.605 50.712 918.681 51.438 917.845 51.438C917.119 51.438 916.701 50.954 916.701 49.744V44.706H919.847V43.056H916.701V40.24L914.567 40.702V42.968L913.049 43.518V44.706H914.523V50.294ZM922.31 53H924.488V46.598C925.148 45.938 926.578 44.684 927.678 44.684C928.426 44.684 928.866 45.212 928.866 46.62V53H931.044V45.828C931.044 43.694 929.966 42.792 928.382 42.792C926.556 42.792 925.148 44.024 924.488 44.728V37.27L922.31 37.622V53ZM938.468 50.712C938.468 52.186 939.59 53.264 941.328 53.264C943.264 53.264 944.276 52.032 944.54 51.614C944.826 52.406 945.464 53.044 946.982 53.154L947.642 51.438C947.642 51.438 946.542 51.416 946.542 50.184V45.982C946.542 43.76 945.794 42.792 943.44 42.792C940.822 42.792 939.128 44.046 939.128 44.046L939.7 45.674C939.7 45.674 941.218 44.53 942.846 44.53C944.452 44.53 944.364 45.63 944.364 46.884C940.646 47.368 938.468 48.622 938.468 50.712ZM941.878 51.548C941.24 51.548 940.712 51.262 940.712 50.558C940.712 49.392 941.834 48.666 944.364 48.292V50.008C943.704 50.778 942.89 51.548 941.878 51.548ZM773.858 78.16C773.858 81.042 775.86 83.264 778.962 83.264C781.338 83.264 782.482 81.988 782.482 81.988L781.778 80.448C781.778 80.448 780.7 81.482 779.116 81.482C777.246 81.482 776.124 80.008 776.124 78.05C776.124 76.026 777.334 74.552 779.138 74.552C780.59 74.552 781.624 75.476 781.624 75.476L782.482 73.848C782.482 73.848 781.272 72.792 779.094 72.792C775.816 72.792 773.858 75.41 773.858 78.16ZM784.681 83H786.859V76.598C787.519 75.938 788.949 74.684 790.049 74.684C790.797 74.684 791.237 75.212 791.237 76.62V83H793.415V75.828C793.415 73.694 792.337 72.792 790.753 72.792C788.927 72.792 787.519 74.024 786.859 74.728V67.27L784.681 67.622V83ZM796.346 83H798.524V76.84C798.942 76.18 799.844 74.992 800.944 74.992C801.384 74.992 801.824 75.168 801.824 75.168L802.264 72.968C802.264 72.968 801.956 72.792 801.406 72.792C799.888 72.792 798.876 74.2 798.48 74.882V72.88L796.346 73.232V83ZM803.184 78.072C803.184 80.712 804.966 83.264 808.266 83.264C811.852 83.264 813.436 80.25 813.436 77.83C813.436 75.278 811.654 72.792 808.354 72.792C804.79 72.792 803.184 75.586 803.184 78.072ZM805.45 77.874C805.45 75.894 806.616 74.53 808.31 74.53C810.334 74.53 811.17 76.356 811.17 78.116C811.17 80.118 810.004 81.526 808.332 81.526C806.352 81.526 805.45 79.722 805.45 77.874ZM815.789 83H817.967V76.554C818.649 75.894 820.057 74.684 821.157 74.684C821.905 74.684 822.345 75.212 822.345 76.62V83H824.523V75.828C824.523 73.694 823.445 72.792 821.883 72.792C820.057 72.792 818.627 74.002 817.923 74.772V72.88L815.789 73.232V83ZM828.599 70.68C829.391 70.68 829.985 70.108 829.985 69.338C829.985 68.568 829.391 67.996 828.599 67.996C827.829 67.996 827.235 68.568 827.235 69.338C827.235 70.108 827.829 70.68 828.599 70.68ZM827.499 83H829.677V73.056H827.499V83ZM832.102 78.16C832.102 81.042 834.104 83.264 837.206 83.264C839.582 83.264 840.726 81.988 840.726 81.988L840.022 80.448C840.022 80.448 838.944 81.482 837.36 81.482C835.49 81.482 834.368 80.008 834.368 78.05C834.368 76.026 835.578 74.552 837.382 74.552C838.834 74.552 839.868 75.476 839.868 75.476L840.726 73.848C840.726 73.848 839.516 72.792 837.338 72.792C834.06 72.792 832.102 75.41 832.102 78.16ZM849.31 70.68C850.102 70.68 850.696 70.108 850.696 69.338C850.696 68.568 850.102 67.996 849.31 67.996C848.54 67.996 847.946 68.568 847.946 69.338C847.946 70.108 848.54 70.68 849.31 70.68ZM848.21 83H850.388V73.056H848.21V83ZM853.495 83H855.673V67.27L853.495 67.622V83ZM858.78 83H860.958V67.27L858.78 67.622V83ZM864.021 83H866.199V76.554C866.881 75.894 868.289 74.684 869.389 74.684C870.137 74.684 870.577 75.212 870.577 76.62V83H872.755V75.828C872.755 73.694 871.677 72.792 870.115 72.792C868.289 72.792 866.859 74.002 866.155 74.772V72.88L864.021 73.232V83ZM875.071 78.182C875.071 80.844 876.765 83.264 880.087 83.264C882.573 83.264 884.091 81.834 884.091 81.834L883.475 80.25C883.475 80.25 882.089 81.482 880.417 81.482C878.679 81.482 877.579 80.316 877.337 78.512L882.771 77.786L884.025 77.434C884.025 74.42 882.309 72.792 879.933 72.792C877.029 72.792 875.071 75.146 875.071 78.182ZM879.779 74.486C881.517 74.486 881.649 76.51 881.649 76.51L877.337 77.06C877.535 75.608 878.371 74.486 879.779 74.486ZM885.813 82.384C885.813 82.384 887.045 83.264 889.113 83.264C891.555 83.264 892.985 82.054 892.985 80.25C892.985 77.082 888.211 77.236 888.211 75.498C888.211 74.926 888.695 74.508 889.795 74.508C891.071 74.508 892.215 75.124 892.215 75.124L892.721 73.342C892.721 73.342 891.621 72.792 889.883 72.792C887.133 72.792 886.033 74.134 886.033 75.674C886.033 78.798 890.807 78.666 890.807 80.448C890.807 81.086 890.257 81.548 889.091 81.548C887.485 81.548 886.275 80.536 886.275 80.536L885.813 82.384ZM894.664 82.384C894.664 82.384 895.896 83.264 897.964 83.264C900.406 83.264 901.836 82.054 901.836 80.25C901.836 77.082 897.062 77.236 897.062 75.498C897.062 74.926 897.546 74.508 898.646 74.508C899.922 74.508 901.066 75.124 901.066 75.124L901.572 73.342C901.572 73.342 900.472 72.792 898.734 72.792C895.984 72.792 894.884 74.134 894.884 75.674C894.884 78.798 899.658 78.666 899.658 80.448C899.658 81.086 899.108 81.548 897.942 81.548C896.336 81.548 895.126 80.536 895.126 80.536L894.664 82.384ZM903.89 81.79C903.89 82.604 904.55 83.264 905.364 83.264C906.178 83.264 906.86 82.604 906.86 81.79C906.86 80.954 906.178 80.294 905.364 80.294C904.55 80.294 903.89 80.954 903.89 81.79Z" fill="#333333"/>
</svg>
