<svg width="472" height="179" viewBox="0 0 472 179" fill="none" xmlns="http://www.w3.org/2000/svg">
<rect width="472" height="179" fill="#DFDDE2"/>
<g opacity="0.9">
<path d="M16 16H456V85.8906V163H16V89.5V16Z" fill="white"/>
<path d="M16 16H456V85.8906V163H16V89.5V16Z" stroke="#FAFAFA"/>
</g>
<path d="M24.896 34.68C24.896 37.384 26.704 39.192 29.344 39.192C31.536 39.192 33.152 37.976 33.152 37.976L32.656 37C32.656 37 31.248 38.104 29.488 38.104C27.456 38.104 26.24 36.648 26.24 34.632C26.24 32.2 28.08 29.224 31.168 29.224C32.816 29.224 33.888 30.088 33.888 30.088L34.592 29.048C34.592 29.048 33.36 28.136 31.328 28.136C27.504 28.136 24.896 31.448 24.896 34.68ZM34.5113 36.136C34.5113 37.736 35.4073 39.192 37.2633 39.192C39.8393 39.192 41.3433 36.44 41.3433 34.552C41.3433 33.064 40.4313 31.608 38.5753 31.608C36.2233 31.608 34.5113 33.928 34.5113 36.136ZM35.7913 36.088C35.7913 34.136 37.0393 32.648 38.5113 32.648C39.5993 32.648 40.0633 33.496 40.0633 34.6C40.0633 36.232 39.0393 38.152 37.3593 38.152C36.2553 38.152 35.7913 37.288 35.7913 36.088ZM42.3498 39H43.5338L44.2218 35.752C44.4618 34.632 46.3338 32.712 47.4058 32.712C47.9018 32.712 48.0778 33.08 48.0778 33.448C48.0778 33.672 48.0138 34.056 47.8378 34.856L46.9578 39H48.1418L49.0218 34.904C49.2298 33.912 49.3258 33.416 49.3258 33.064C49.3258 32.296 48.8778 31.608 47.8538 31.608C46.6218 31.608 45.4538 32.584 44.6858 33.544L45.0858 31.688L43.8538 31.912L42.3498 39ZM50.5403 36.744C50.5403 38.136 51.1483 39.192 52.4603 39.192C53.6763 39.192 54.6363 38.168 55.1963 37.368H55.2283C55.2283 37.368 55.1483 37.832 55.1483 38.136C55.1483 38.568 55.2443 38.888 55.4203 39.192L56.5243 38.824C56.3803 38.552 56.3163 38.248 56.3163 37.832C56.3163 37.544 56.3483 37.16 56.4443 36.744L58.3963 27.576L57.1643 27.8L56.3163 31.752C56.0123 31.672 55.6443 31.608 55.2123 31.608C52.4123 31.608 50.5403 34.344 50.5403 36.744ZM52.7323 38.152C52.0283 38.152 51.8203 37.352 51.8203 36.632C51.8203 34.296 53.4683 32.6 55.1963 32.6C55.6603 32.6 56.1083 32.792 55.9963 33.32L55.6923 34.744C55.3883 36.184 53.7723 38.152 52.7323 38.152ZM60.9894 29.976C61.5014 29.976 61.8854 29.512 61.8854 28.984C61.8854 28.568 61.6774 28.248 61.1974 28.248C60.6374 28.248 60.2854 28.744 60.2854 29.224C60.2854 29.656 60.4934 29.976 60.9894 29.976ZM58.3814 39H59.5654L61.1014 31.8H59.9174L58.3814 39ZM62.5363 37.672C62.5363 38.68 63.1123 39.192 64.0563 39.192C65.0163 39.192 65.7523 38.712 66.3123 38.328L66.0243 37.352C65.5923 37.704 64.9363 38.152 64.3923 38.152C64.0243 38.152 63.8323 37.912 63.8323 37.416C63.8323 37.224 63.8483 37 63.9123 36.728L64.7603 32.808H66.9043L67.1283 31.8H64.9683L65.3683 29.896L64.0723 30.2L63.7523 31.736L62.5523 32.136V32.808H63.5283L62.6323 36.936C62.5683 37.208 62.5363 37.448 62.5363 37.672ZM70.13 29.976C70.642 29.976 71.026 29.512 71.026 28.984C71.026 28.568 70.818 28.248 70.338 28.248C69.778 28.248 69.426 28.744 69.426 29.224C69.426 29.656 69.634 29.976 70.13 29.976ZM67.522 39H68.706L70.242 31.8H69.058L67.522 39ZM71.2769 36.136C71.2769 37.736 72.1729 39.192 74.0289 39.192C76.6049 39.192 78.1089 36.44 78.1089 34.552C78.1089 33.064 77.1969 31.608 75.3409 31.608C72.9889 31.608 71.2769 33.928 71.2769 36.136ZM72.5569 36.088C72.5569 34.136 73.8049 32.648 75.2769 32.648C76.3649 32.648 76.8289 33.496 76.8289 34.6C76.8289 36.232 75.8049 38.152 74.1249 38.152C73.0209 38.152 72.5569 37.288 72.5569 36.088ZM79.1154 39H80.2994L80.9874 35.752C81.2274 34.632 83.0994 32.712 84.1714 32.712C84.6674 32.712 84.8434 33.08 84.8434 33.448C84.8434 33.672 84.7794 34.056 84.6034 34.856L83.7234 39H84.9074L85.7874 34.904C85.9954 33.912 86.0914 33.416 86.0914 33.064C86.0914 32.296 85.6434 31.608 84.6194 31.608C83.3874 31.608 82.2194 32.584 81.4514 33.544L81.8514 31.688L80.6194 31.912L79.1154 39ZM91.5496 32.808H92.5256L92.2216 35.24C91.8376 38.168 91.0856 41.336 89.2936 41.944L89.7896 42.792C92.6856 41.944 93.2136 36.696 93.6936 32.808H95.5496L95.7736 31.8H93.8376C94.1096 30.072 94.4936 28.408 96.0936 28.408C96.7496 28.408 97.3256 28.744 97.3256 28.744L97.8696 27.784C97.8696 27.784 97.2296 27.352 96.0936 27.352C93.7416 27.352 92.9576 29.496 92.7176 31.384L92.6696 31.736L91.5496 32.152V32.808ZM96.0581 36.136C96.0581 37.736 96.9541 39.192 98.8101 39.192C101.386 39.192 102.89 36.44 102.89 34.552C102.89 33.064 101.978 31.608 100.122 31.608C97.7701 31.608 96.0581 33.928 96.0581 36.136ZM97.3381 36.088C97.3381 34.136 98.5861 32.648 100.058 32.648C101.146 32.648 101.61 33.496 101.61 34.6C101.61 36.232 100.586 38.152 98.9061 38.152C97.8021 38.152 97.3381 37.288 97.3381 36.088ZM103.897 39H105.081L105.753 35.864C105.865 35.368 106.505 34.472 106.729 34.168C107.225 33.496 107.737 32.968 108.329 32.968C108.601 32.968 108.921 33.08 108.921 33.08L109.193 31.752C109.193 31.752 108.953 31.656 108.633 31.656C107.817 31.656 107.097 32.248 106.297 33.544H106.233L106.633 31.688L105.401 31.912L103.897 39ZM113.037 38.296C113.037 38.296 114.141 39.192 115.869 39.192C117.773 39.192 119.581 38.088 119.581 36.072C119.581 33.144 115.741 33.24 115.741 31.08C115.741 29.896 116.845 29.272 118.125 29.272C119.261 29.272 120.285 29.784 120.285 29.784L120.605 28.616C120.605 28.616 119.405 28.136 118.077 28.136C115.885 28.136 114.445 29.544 114.445 31.144C114.445 33.976 118.301 34.056 118.301 36.2C118.301 37.4 117.117 38.056 115.837 38.056C114.365 38.056 113.373 37.128 113.373 37.128L113.037 38.296ZM120.993 37.016C120.993 38.504 121.761 39.192 122.705 39.192C123.889 39.192 124.913 38.168 125.473 37.368H125.505C125.441 37.672 125.425 37.928 125.425 38.136C125.425 38.568 125.521 38.888 125.697 39.192L126.801 38.824C126.657 38.552 126.593 38.248 126.593 37.832C126.593 37.528 126.625 37.176 126.721 36.744L127.777 31.8C126.961 31.8 126.353 31.608 125.585 31.608C122.673 31.608 120.993 34.792 120.993 37.016ZM122.273 36.872C122.273 34.744 123.905 32.6 125.409 32.6C125.969 32.6 126.401 32.728 126.401 32.728L125.969 34.744C125.649 36.232 123.969 38.152 123.009 38.152C122.625 38.152 122.273 37.864 122.273 36.872ZM129.255 37.672C129.255 38.68 129.831 39.192 130.775 39.192C131.735 39.192 132.471 38.712 133.031 38.328L132.743 37.352C132.311 37.704 131.655 38.152 131.111 38.152C130.743 38.152 130.551 37.912 130.551 37.416C130.551 37.224 130.567 37 130.631 36.728L131.479 32.808H133.623L133.847 31.8H131.687L132.087 29.896L130.791 30.2L130.471 31.736L129.271 32.136V32.808H130.247L129.351 36.936C129.287 37.208 129.255 37.448 129.255 37.672ZM136.849 29.976C137.361 29.976 137.745 29.512 137.745 28.984C137.745 28.568 137.537 28.248 137.057 28.248C136.497 28.248 136.145 28.744 136.145 29.224C136.145 29.656 136.353 29.976 136.849 29.976ZM134.241 39H135.425L136.961 31.8H135.777L134.241 39ZM137.5 38.6C137.5 38.6 138.316 39.192 139.452 39.192C140.78 39.192 142.044 38.488 142.044 36.984C142.044 35 139.724 35 139.724 33.624C139.724 32.968 140.22 32.648 141.036 32.648C141.82 32.648 142.524 33.064 142.524 33.064L142.812 32.024C142.812 32.024 142.204 31.608 141.116 31.608C139.628 31.608 138.524 32.408 138.524 33.752C138.524 35.672 140.844 35.752 140.844 37.144C140.844 37.832 140.268 38.152 139.5 38.152C138.54 38.152 137.772 37.56 137.772 37.56L137.5 38.6ZM144.003 32.808H144.979L144.675 35.24C144.291 38.168 143.539 41.336 141.747 41.944L142.243 42.792C145.139 41.944 145.667 36.696 146.147 32.808H148.003L148.227 31.8H146.291C146.563 30.072 146.947 28.408 148.547 28.408C149.203 28.408 149.779 28.744 149.779 28.744L150.323 27.784C150.323 27.784 149.683 27.352 148.547 27.352C146.195 27.352 145.411 29.496 145.171 31.384L145.123 31.736L144.003 32.152V32.808ZM148.336 37.016C148.336 38.504 149.104 39.192 150.048 39.192C151.232 39.192 152.256 38.168 152.816 37.368H152.848C152.784 37.672 152.768 37.928 152.768 38.136C152.768 38.568 152.864 38.888 153.04 39.192L154.144 38.824C154 38.552 153.936 38.248 153.936 37.832C153.936 37.528 153.968 37.176 154.064 36.744L155.12 31.8C154.304 31.8 153.696 31.608 152.928 31.608C150.016 31.608 148.336 34.792 148.336 37.016ZM149.616 36.872C149.616 34.744 151.248 32.6 152.752 32.6C153.312 32.6 153.744 32.728 153.744 32.728L153.312 34.744C152.992 36.232 151.312 38.152 150.352 38.152C149.968 38.152 149.616 37.864 149.616 36.872ZM156.199 36.152C156.199 37.912 157.287 39.192 158.983 39.192C160.471 39.192 161.511 38.264 161.511 38.264L161.079 37.336C161.079 37.336 160.231 38.152 159.111 38.152C158.039 38.152 157.479 37.32 157.479 36.104C157.479 34.344 158.647 32.648 160.055 32.648C161.047 32.648 161.767 33.336 161.767 33.336L162.311 32.392C162.311 32.392 161.591 31.608 160.167 31.608C157.863 31.608 156.199 33.96 156.199 36.152ZM163.443 37.672C163.443 38.68 164.019 39.192 164.963 39.192C165.923 39.192 166.659 38.712 167.219 38.328L166.931 37.352C166.499 37.704 165.843 38.152 165.299 38.152C164.931 38.152 164.739 37.912 164.739 37.416C164.739 37.224 164.755 37 164.819 36.728L165.667 32.808H167.811L168.035 31.8H165.875L166.275 29.896L164.979 30.2L164.659 31.736L163.459 32.136V32.808H164.435L163.539 36.936C163.475 37.208 163.443 37.448 163.443 37.672ZM171.036 29.976C171.548 29.976 171.932 29.512 171.932 28.984C171.932 28.568 171.724 28.248 171.244 28.248C170.684 28.248 170.332 28.744 170.332 29.224C170.332 29.656 170.54 29.976 171.036 29.976ZM168.428 39H169.612L171.148 31.8H169.964L168.428 39ZM172.183 36.136C172.183 37.736 173.079 39.192 174.935 39.192C177.511 39.192 179.015 36.44 179.015 34.552C179.015 33.064 178.103 31.608 176.247 31.608C173.895 31.608 172.183 33.928 172.183 36.136ZM173.463 36.088C173.463 34.136 174.711 32.648 176.183 32.648C177.271 32.648 177.735 33.496 177.735 34.6C177.735 36.232 176.711 38.152 175.031 38.152C173.927 38.152 173.463 37.288 173.463 36.088ZM180.022 39H181.206L181.894 35.752C182.134 34.632 184.006 32.712 185.078 32.712C185.574 32.712 185.75 33.08 185.75 33.448C185.75 33.672 185.686 34.056 185.51 34.856L184.63 39H185.814L186.694 34.904C186.902 33.912 186.998 33.416 186.998 33.064C186.998 32.296 186.55 31.608 185.526 31.608C184.294 31.608 183.126 32.584 182.358 33.544L182.758 31.688L181.526 31.912L180.022 39Z" fill="black"/>
<path d="M25.764 68H27.24V62.942H29.166L32.604 68H34.35L30.714 62.636C31.902 62.114 33.198 61.016 33.198 59.27C33.198 57.578 32.01 55.994 28.914 55.994H25.764V68ZM27.24 61.7V57.236H28.644C30.84 57.236 31.614 58.28 31.614 59.414C31.614 60.908 30.282 61.7 29.13 61.7H27.24ZM35.1811 64.13C35.1811 66.254 36.5131 68.216 39.1951 68.216C41.1391 68.216 42.3091 67.046 42.3091 67.046L41.8951 65.966C41.8951 65.966 40.7431 66.992 39.3571 66.992C37.7731 66.992 36.8011 65.858 36.6751 64.184L41.4451 63.554L42.3091 63.302C42.3091 60.98 40.9411 59.684 39.0691 59.684C36.7651 59.684 35.1811 61.592 35.1811 64.13ZM38.9791 60.854C40.5991 60.854 40.7611 62.582 40.7611 62.582L36.6931 63.104C36.8911 61.844 37.6831 60.854 38.9791 60.854ZM43.7906 66.182C43.7906 67.37 44.6726 68.216 46.0586 68.216C47.6966 68.216 48.5786 67.064 48.7406 66.812C48.9206 67.478 49.3526 68 50.4866 68.126L50.9546 66.992C50.9546 66.992 50.0546 66.974 50.0546 65.912V62.258C50.0546 60.44 49.4786 59.684 47.7146 59.684C45.6986 59.684 44.3486 60.674 44.3486 60.674L44.7806 61.808C44.7806 61.808 45.9686 60.908 47.3186 60.908C48.6686 60.908 48.6506 61.808 48.6506 62.762V63.068C45.5726 63.464 43.7906 64.508 43.7906 66.182ZM46.3466 66.992C45.7526 66.992 45.2846 66.722 45.2846 66.092C45.2846 65.048 46.3646 64.472 48.6506 64.094V65.588C48.0746 66.254 47.3366 66.992 46.3466 66.992ZM52.3901 64.22C52.3901 66.452 53.7581 68.216 55.8641 68.216C57.1601 68.216 58.0421 67.55 58.4921 66.83C58.5821 67.388 58.7441 68.126 58.7441 68.126L60.1301 68C60.1301 68 59.7701 66.488 59.7701 65.498V55.148L58.3661 55.4V59.972C58.1501 59.882 57.6101 59.684 56.8001 59.684C53.9021 59.684 52.3901 61.88 52.3901 64.22ZM56.0441 66.992C54.8201 66.992 53.8841 65.93 53.8841 64.13C53.8841 62.06 55.0901 60.872 56.8181 60.872C57.5921 60.872 58.3301 61.124 58.3661 62.024V65.516C58.1501 65.858 57.3221 66.992 56.0441 66.992ZM63.2657 57.848C63.8057 57.848 64.2377 57.416 64.2377 56.876C64.2377 56.336 63.8057 55.904 63.2657 55.904C62.7257 55.904 62.2937 56.336 62.2937 56.876C62.2937 57.416 62.7257 57.848 63.2657 57.848ZM62.5457 68H63.9497V59.9H62.5457V68ZM66.6582 68H68.0622V62.654C68.5842 62.15 69.9702 60.926 71.0322 60.926C71.6442 60.926 72.1302 61.304 72.1302 62.51V68H73.5342V62.114C73.5342 60.368 72.6162 59.684 71.4102 59.684C69.8442 59.684 68.5842 60.818 68.0622 61.358V59.774L66.6582 60.026V68ZM76.0964 66.542C76.0964 67.082 76.6544 67.406 77.4464 67.64C76.5284 68.108 75.3404 68.864 75.3404 70.106C75.3404 71.546 77.0504 72.266 78.7964 72.266C81.1004 72.266 83.1164 70.934 83.1164 69.278C83.1164 67.802 81.5324 67.37 79.9844 67.028C78.4544 66.686 77.6084 66.506 77.6084 66.164C77.6084 65.93 77.9504 65.678 78.3284 65.408C78.5264 65.444 78.7424 65.462 78.9764 65.462C80.5964 65.462 82.4144 64.544 82.4144 62.654C82.4144 61.862 82.0184 61.304 81.8024 61.07C81.9824 61.088 82.2344 61.106 82.4684 61.106H83.4944L83.3684 59.846C83.3684 59.846 82.8284 60.026 82.3064 60.026H81.4424C80.5604 60.026 80.0564 59.684 79.1204 59.684C77.3564 59.684 75.7724 60.728 75.7724 62.51C75.7724 63.644 76.3664 64.598 77.3384 65.102C76.7624 65.444 76.0964 65.966 76.0964 66.542ZM76.6364 69.908C76.6364 69.008 77.6624 68.468 78.6164 67.946C78.9224 68 79.2104 68.054 79.5164 68.126C80.7404 68.396 81.6764 68.684 81.6764 69.476C81.6764 70.376 80.4344 71.186 78.9044 71.186C77.9504 71.186 76.6364 70.88 76.6364 69.908ZM79.1024 64.382C77.8064 64.382 77.2124 63.5 77.2124 62.6C77.2124 61.574 77.9144 60.764 79.0664 60.764C80.3444 60.764 80.9744 61.808 80.9744 62.726C80.9744 63.788 80.1644 64.382 79.1024 64.382ZM88.9522 63.986C88.9522 66.128 90.4102 68.216 92.9122 68.216C95.6302 68.216 96.9622 65.768 96.9622 63.788C96.9622 61.7 95.5042 59.684 92.9842 59.684C90.3022 59.684 88.9522 61.97 88.9522 63.986ZM90.4282 63.824C90.4282 62.078 91.4182 60.908 92.9482 60.908C94.7662 60.908 95.4862 62.474 95.4862 64.022C95.4862 65.768 94.4962 66.992 92.9662 66.992C91.2022 66.992 90.4282 65.408 90.4282 63.824ZM98.2618 61.034H99.5398V68H100.944V61.034H103.23V59.9H100.944V58.874C100.944 56.84 101.862 56.12 102.852 56.12C103.698 56.12 104.508 56.696 104.508 56.696L105.156 55.58C105.156 55.58 104.238 54.896 102.888 54.896C100.872 54.896 99.5398 56.354 99.5398 58.946V59.81L98.2618 60.296V61.034ZM109.051 67.766C109.087 67.784 110.941 68.216 112.327 68.216C115.441 68.216 116.953 66.02 116.953 63.59C116.953 61.412 115.729 59.594 113.335 59.594C112.273 59.594 111.697 59.972 111.301 60.368V55.094L109.051 55.454V67.766ZM112.921 61.304C113.965 61.304 114.649 62.186 114.649 63.752C114.649 65.624 113.695 66.632 112.345 66.632C111.805 66.632 111.301 66.47 111.301 66.47V61.934C111.679 61.646 112.237 61.304 112.921 61.304ZM118.198 63.95C118.198 66.218 119.638 68.216 122.428 68.216C124.57 68.216 125.866 67.064 125.866 67.064L125.29 65.48C125.29 65.48 124.156 66.488 122.806 66.488C121.564 66.488 120.754 65.696 120.502 64.49L124.552 63.968L125.776 63.608C125.758 60.98 124.336 59.594 122.266 59.594C119.818 59.594 118.198 61.556 118.198 63.95ZM122.104 61.268C123.31 61.268 123.346 62.816 123.346 62.816L120.448 63.194C120.574 62.096 121.132 61.268 122.104 61.268ZM127.597 68H129.847V62.906C130.369 62.348 131.287 61.538 132.007 61.538C132.619 61.538 132.835 62.024 132.835 63.122V68H135.067V62.168C135.067 60.404 134.239 59.594 132.835 59.594C131.413 59.594 130.405 60.494 129.847 61.106V55.094L127.597 55.454V68ZM136.599 66.074C136.599 67.298 137.571 68.216 139.065 68.216C140.649 68.216 141.387 67.28 141.621 66.92C141.927 67.55 142.557 68.09 143.907 68.126L144.555 66.38C144.555 66.38 143.637 66.38 143.637 65.426V62.258C143.637 60.458 142.989 59.594 140.883 59.594C138.561 59.594 137.121 60.656 137.121 60.656L137.661 62.24C137.661 62.24 138.939 61.268 140.253 61.268C141.261 61.268 141.387 61.844 141.387 62.618V62.906C138.399 63.302 136.599 64.292 136.599 66.074ZM139.677 66.578C139.245 66.578 138.885 66.398 138.885 65.894C138.885 65.03 139.605 64.454 141.387 64.202V65.516C140.901 66.092 140.325 66.578 139.677 66.578ZM148.053 68.054H150.087L153.363 59.81H151.095L149.115 65.12L147.351 59.81H144.993L148.053 68.054ZM155.696 58.028C156.452 58.028 157.01 57.506 157.01 56.768C157.01 56.03 156.452 55.508 155.696 55.508C154.922 55.508 154.364 56.03 154.364 56.768C154.364 57.506 154.922 58.028 155.696 58.028ZM154.562 68H156.812V59.81H154.562V68ZM158.539 63.932C158.539 66.128 159.997 68.216 162.931 68.216C166.153 68.216 167.395 65.714 167.395 63.734C167.395 61.646 165.937 59.594 163.003 59.594C159.817 59.594 158.539 61.88 158.539 63.932ZM160.861 63.77C160.861 62.312 161.761 61.268 162.967 61.268C164.425 61.268 165.073 62.672 165.073 63.968C165.073 65.498 164.173 66.542 162.985 66.542C161.545 66.542 160.861 65.192 160.861 63.77ZM169.08 68H171.33V63.086C171.672 62.582 172.374 61.736 173.256 61.736C173.652 61.736 174.03 61.898 174.03 61.898L174.39 59.738C174.39 59.738 174.138 59.594 173.688 59.594C172.41 59.594 171.582 60.746 171.24 61.322V59.63L169.08 59.99V68ZM175.025 66.074C175.025 67.298 175.997 68.216 177.491 68.216C179.075 68.216 179.813 67.28 180.047 66.92C180.353 67.55 180.983 68.09 182.333 68.126L182.981 66.38C182.981 66.38 182.063 66.38 182.063 65.426V62.258C182.063 60.458 181.415 59.594 179.309 59.594C176.987 59.594 175.547 60.656 175.547 60.656L176.087 62.24C176.087 62.24 177.365 61.268 178.679 61.268C179.687 61.268 179.813 61.844 179.813 62.618V62.906C176.825 63.302 175.025 64.292 175.025 66.074ZM178.103 66.578C177.671 66.578 177.311 66.398 177.311 65.894C177.311 65.03 178.031 64.454 179.813 64.202V65.516C179.327 66.092 178.751 66.578 178.103 66.578ZM184.55 68H186.8V55.094L184.55 55.454V68ZM197.68 72.23L199.93 71.87V67.874C200.308 68.108 200.902 68.216 201.496 68.216C204.214 68.216 205.636 65.984 205.636 63.644C205.636 61.43 204.358 59.594 202.198 59.594C200.956 59.594 200.218 60.224 199.84 60.962V59.63L197.68 59.99V72.23ZM201.766 61.358C202.684 61.358 203.314 62.258 203.314 63.788C203.314 65.624 202.396 66.542 201.118 66.542C200.38 66.542 199.93 66.254 199.93 65.804V62.582C200.164 62.24 200.83 61.358 201.766 61.358ZM206.736 66.074C206.736 67.298 207.708 68.216 209.202 68.216C210.786 68.216 211.524 67.28 211.758 66.92C212.064 67.55 212.694 68.09 214.044 68.126L214.692 66.38C214.692 66.38 213.774 66.38 213.774 65.426V62.258C213.774 60.458 213.126 59.594 211.02 59.594C208.698 59.594 207.258 60.656 207.258 60.656L207.798 62.24C207.798 62.24 209.076 61.268 210.39 61.268C211.398 61.268 211.524 61.844 211.524 62.618V62.906C208.536 63.302 206.736 64.292 206.736 66.074ZM209.814 66.578C209.382 66.578 209.022 66.398 209.022 65.894C209.022 65.03 209.742 64.454 211.524 64.202V65.516C211.038 66.092 210.462 66.578 209.814 66.578ZM216.713 65.696C216.713 67.37 217.757 68.216 219.269 68.216C220.835 68.216 222.005 67.316 222.005 67.316L221.393 65.678C220.943 65.984 220.295 66.38 219.809 66.38C219.269 66.38 218.963 66.02 218.963 65.156V61.412H221.465V59.81H218.963V57.416L216.785 57.848V59.756L215.435 60.206V61.412H216.713V65.696ZM223.867 65.696C223.867 67.37 224.911 68.216 226.423 68.216C227.989 68.216 229.159 67.316 229.159 67.316L228.547 65.678C228.097 65.984 227.449 66.38 226.963 66.38C226.423 66.38 226.117 66.02 226.117 65.156V61.412H228.619V59.81H226.117V57.416L223.939 57.848V59.756L222.589 60.206V61.412H223.867V65.696ZM229.977 63.95C229.977 66.218 231.417 68.216 234.207 68.216C236.349 68.216 237.645 67.064 237.645 67.064L237.069 65.48C237.069 65.48 235.935 66.488 234.585 66.488C233.343 66.488 232.533 65.696 232.281 64.49L236.331 63.968L237.555 63.608C237.537 60.98 236.115 59.594 234.045 59.594C231.597 59.594 229.977 61.556 229.977 63.95ZM233.883 61.268C235.089 61.268 235.125 62.816 235.125 62.816L232.227 63.194C232.353 62.096 232.911 61.268 233.883 61.268ZM239.34 68H241.59V63.086C241.932 62.582 242.634 61.736 243.516 61.736C243.912 61.736 244.29 61.898 244.29 61.898L244.65 59.738C244.65 59.738 244.398 59.594 243.948 59.594C242.67 59.594 241.842 60.746 241.5 61.322V59.63L239.34 59.99V68ZM245.914 68H248.164V62.834C248.758 62.24 249.622 61.538 250.324 61.538C250.936 61.538 251.152 62.024 251.152 63.122V68H253.384V62.168C253.384 60.404 252.556 59.594 251.17 59.594C249.784 59.594 248.722 60.44 248.074 61.142V59.63L245.914 59.99V68ZM259.385 64.148C259.385 66.38 260.735 68.216 262.877 68.216C264.227 68.216 264.983 67.622 265.379 66.938C265.469 67.514 265.631 68.126 265.631 68.126L267.719 68C267.719 68 267.341 66.488 267.341 65.498V55.094L265.109 55.454V59.846C264.839 59.738 264.335 59.594 263.687 59.594C260.825 59.594 259.385 61.844 259.385 64.148ZM263.363 66.542C262.283 66.542 261.725 65.57 261.725 64.004C261.725 62.24 262.517 61.268 263.849 61.268C264.569 61.268 265.109 61.556 265.109 62.294V65.462C264.857 65.84 264.245 66.542 263.363 66.542ZM268.997 66.074C268.997 67.298 269.969 68.216 271.463 68.216C273.047 68.216 273.785 67.28 274.019 66.92C274.325 67.55 274.955 68.09 276.305 68.126L276.953 66.38C276.953 66.38 276.035 66.38 276.035 65.426V62.258C276.035 60.458 275.387 59.594 273.281 59.594C270.959 59.594 269.519 60.656 269.519 60.656L270.059 62.24C270.059 62.24 271.337 61.268 272.651 61.268C273.659 61.268 273.785 61.844 273.785 62.618V62.906C270.797 63.302 268.997 64.292 268.997 66.074ZM272.075 66.578C271.643 66.578 271.283 66.398 271.283 65.894C271.283 65.03 272.003 64.454 273.785 64.202V65.516C273.299 66.092 272.723 66.578 272.075 66.578ZM278.974 65.696C278.974 67.37 280.018 68.216 281.53 68.216C283.096 68.216 284.266 67.316 284.266 67.316L283.654 65.678C283.204 65.984 282.556 66.38 282.07 66.38C281.53 66.38 281.224 66.02 281.224 65.156V61.412H283.726V59.81H281.224V57.416L279.046 57.848V59.756L277.696 60.206V61.412H278.974V65.696ZM284.941 66.074C284.941 67.298 285.913 68.216 287.407 68.216C288.991 68.216 289.729 67.28 289.963 66.92C290.269 67.55 290.899 68.09 292.249 68.126L292.897 66.38C292.897 66.38 291.979 66.38 291.979 65.426V62.258C291.979 60.458 291.331 59.594 289.225 59.594C286.903 59.594 285.463 60.656 285.463 60.656L286.003 62.24C286.003 62.24 287.281 61.268 288.595 61.268C289.603 61.268 289.729 61.844 289.729 62.618V62.906C286.741 63.302 284.941 64.292 284.941 66.074ZM288.019 66.578C287.587 66.578 287.227 66.398 287.227 65.894C287.227 65.03 287.947 64.454 289.729 64.202V65.516C289.243 66.092 288.667 66.578 288.019 66.578ZM300.626 68.09H301.994L304.28 61.916L306.206 68.09H307.574L310.706 59.9H309.248L306.962 66.416L305.018 59.9H303.758L301.436 66.416L299.51 59.9H298.034L300.626 68.09ZM312.366 68H313.77V62.636C314.31 62.132 315.678 60.926 316.722 60.926C317.334 60.926 317.82 61.304 317.82 62.51V68H319.224V62.114C319.224 60.368 318.306 59.684 317.1 59.684C315.552 59.684 314.292 60.782 313.77 61.34V55.148L312.366 55.4V68ZM321.318 64.13C321.318 66.254 322.65 68.216 325.332 68.216C327.276 68.216 328.446 67.046 328.446 67.046L328.032 65.966C328.032 65.966 326.88 66.992 325.494 66.992C323.91 66.992 322.938 65.858 322.812 64.184L327.582 63.554L328.446 63.302C328.446 60.98 327.078 59.684 325.206 59.684C322.902 59.684 321.318 61.592 321.318 64.13ZM325.116 60.854C326.736 60.854 326.898 62.582 326.898 62.582L322.83 63.104C323.028 61.844 323.82 60.854 325.116 60.854ZM330.611 68H332.015V62.87C332.339 62.312 333.095 61.214 334.031 61.214C334.355 61.214 334.715 61.358 334.715 61.358L335.075 59.846C335.075 59.846 334.823 59.684 334.373 59.684C333.149 59.684 332.321 60.836 332.015 61.376V59.774L330.611 60.026V68ZM335.96 64.13C335.96 66.254 337.292 68.216 339.974 68.216C341.918 68.216 343.088 67.046 343.088 67.046L342.674 65.966C342.674 65.966 341.522 66.992 340.136 66.992C338.552 66.992 337.58 65.858 337.454 64.184L342.224 63.554L343.088 63.302C343.088 60.98 341.72 59.684 339.848 59.684C337.544 59.684 335.96 61.592 335.96 64.13ZM339.758 60.854C341.378 60.854 341.54 62.582 341.54 62.582L337.472 63.104C337.67 61.844 338.462 60.854 339.758 60.854ZM348.894 68H355.698V66.272H351.738L355.554 61.178V59.81H349.038V61.538H352.638L348.894 66.632V68ZM356.874 63.95C356.874 66.218 358.314 68.216 361.104 68.216C363.246 68.216 364.542 67.064 364.542 67.064L363.966 65.48C363.966 65.48 362.832 66.488 361.482 66.488C360.24 66.488 359.43 65.696 359.178 64.49L363.228 63.968L364.452 63.608C364.434 60.98 363.012 59.594 360.942 59.594C358.494 59.594 356.874 61.556 356.874 63.95ZM360.78 61.268C361.986 61.268 362.022 62.816 362.022 62.816L359.124 63.194C359.25 62.096 359.808 61.268 360.78 61.268ZM366.237 68H368.487V63.086C368.829 62.582 369.531 61.736 370.413 61.736C370.809 61.736 371.187 61.898 371.187 61.898L371.547 59.738C371.547 59.738 371.295 59.594 370.845 59.594C369.567 59.594 368.739 60.746 368.397 61.322V59.63L366.237 59.99V68ZM372.166 63.932C372.166 66.128 373.624 68.216 376.558 68.216C379.78 68.216 381.022 65.714 381.022 63.734C381.022 61.646 379.564 59.594 376.63 59.594C373.444 59.594 372.166 61.88 372.166 63.932ZM374.488 63.77C374.488 62.312 375.388 61.268 376.594 61.268C378.052 61.268 378.7 62.672 378.7 63.968C378.7 65.498 377.8 66.542 376.612 66.542C375.172 66.542 374.488 65.192 374.488 63.77ZM388.202 58.028C388.958 58.028 389.516 57.506 389.516 56.768C389.516 56.03 388.958 55.508 388.202 55.508C387.428 55.508 386.87 56.03 386.87 56.768C386.87 57.506 387.428 58.028 388.202 58.028ZM387.068 68H389.318V59.81H387.068V68ZM391.549 68H393.799V62.834C394.393 62.24 395.257 61.538 395.959 61.538C396.571 61.538 396.787 62.024 396.787 63.122V68H399.019V62.168C399.019 60.404 398.191 59.594 396.805 59.594C395.419 59.594 394.357 60.44 393.709 61.142V59.63L391.549 59.99V68ZM400.66 67.496C400.66 67.496 401.74 68.216 403.522 68.216C405.7 68.216 406.924 67.118 406.924 65.606C406.924 63.104 403.09 63.068 403.09 61.952C403.09 61.556 403.432 61.304 404.26 61.304C405.322 61.304 406.222 61.862 406.222 61.862L406.69 60.044C406.69 60.044 405.772 59.594 404.26 59.594C401.812 59.594 400.858 60.818 400.858 62.132C400.858 64.634 404.71 64.688 404.71 65.804C404.71 66.218 404.296 66.506 403.432 66.506C402.1 66.506 401.128 65.66 401.128 65.66L400.66 67.496ZM408.546 65.75C408.546 67.496 409.5 68.216 410.796 68.216C412.236 68.216 413.334 67.352 413.892 66.776C413.964 67.37 414.144 68.162 414.144 68.162L416.304 67.964C416.304 67.964 415.944 66.488 415.944 65.498V59.81H413.712V65.156C413.262 65.552 412.398 66.272 411.642 66.272C410.94 66.272 410.796 65.714 410.796 64.688V59.81H408.546V65.75ZM418.269 68H420.519V55.094L418.269 55.454V68ZM423.92 58.028C424.676 58.028 425.234 57.506 425.234 56.768C425.234 56.03 424.676 55.508 423.92 55.508C423.146 55.508 422.588 56.03 422.588 56.768C422.588 57.506 423.146 58.028 423.92 58.028ZM422.786 68H425.036V59.81H422.786V68ZM427.268 68H429.518V62.834C430.112 62.24 430.976 61.538 431.678 61.538C432.29 61.538 432.506 62.024 432.506 63.122V68H434.738V62.168C434.738 60.404 433.91 59.594 432.524 59.594C431.138 59.594 430.076 60.44 429.428 61.142V59.63L427.268 59.99V68ZM24.576 92.496C24.576 92.496 25.656 93.216 27.438 93.216C29.616 93.216 30.84 92.118 30.84 90.606C30.84 88.104 27.006 88.068 27.006 86.952C27.006 86.556 27.348 86.304 28.176 86.304C29.238 86.304 30.138 86.862 30.138 86.862L30.606 85.044C30.606 85.044 29.688 84.594 28.176 84.594C25.728 84.594 24.774 85.818 24.774 87.132C24.774 89.634 28.626 89.688 28.626 90.804C28.626 91.218 28.212 91.506 27.348 91.506C26.016 91.506 25.044 90.66 25.044 90.66L24.576 92.496ZM32.552 93H34.802V87.906C35.324 87.348 36.242 86.538 36.962 86.538C37.574 86.538 37.79 87.024 37.79 88.122V93H40.022V87.168C40.022 85.404 39.194 84.594 37.79 84.594C36.368 84.594 35.36 85.494 34.802 86.106V80.094L32.552 80.454V93ZM41.6799 88.932C41.6799 91.128 43.1379 93.216 46.0719 93.216C49.2939 93.216 50.5359 90.714 50.5359 88.734C50.5359 86.646 49.0779 84.594 46.1439 84.594C42.9579 84.594 41.6799 86.88 41.6799 88.932ZM44.0019 88.77C44.0019 87.312 44.9019 86.268 46.1079 86.268C47.5659 86.268 48.2139 87.672 48.2139 88.968C48.2139 90.498 47.3139 91.542 46.1259 91.542C44.6859 91.542 44.0019 90.192 44.0019 88.77ZM52.779 90.696C52.779 92.37 53.823 93.216 55.335 93.216C56.901 93.216 58.071 92.316 58.071 92.316L57.459 90.678C57.009 90.984 56.361 91.38 55.875 91.38C55.335 91.38 55.029 91.02 55.029 90.156V86.412H57.531V84.81H55.029V82.416L52.851 82.848V84.756L51.501 85.206V86.412H52.779V90.696ZM58.8533 92.496C58.8533 92.496 59.9333 93.216 61.7153 93.216C63.8933 93.216 65.1173 92.118 65.1173 90.606C65.1173 88.104 61.2833 88.068 61.2833 86.952C61.2833 86.556 61.6253 86.304 62.4533 86.304C63.5153 86.304 64.4153 86.862 64.4153 86.862L64.8833 85.044C64.8833 85.044 63.9653 84.594 62.4533 84.594C60.0053 84.594 59.0513 85.818 59.0513 87.132C59.0513 89.634 62.9033 89.688 62.9033 90.804C62.9033 91.218 62.4893 91.506 61.6253 91.506C60.2933 91.506 59.3213 90.66 59.3213 90.66L58.8533 92.496ZM75.4778 93H77.7278V87.906C78.2498 87.348 79.1678 86.538 79.8878 86.538C80.4998 86.538 80.7158 87.024 80.7158 88.122V93H82.9478V87.168C82.9478 85.404 82.1198 84.594 80.7158 84.594C79.2938 84.594 78.2858 85.494 77.7278 86.106V80.094L75.4778 80.454V93ZM84.4797 91.074C84.4797 92.298 85.4517 93.216 86.9457 93.216C88.5297 93.216 89.2677 92.28 89.5017 91.92C89.8077 92.55 90.4377 93.09 91.7877 93.126L92.4357 91.38C92.4357 91.38 91.5177 91.38 91.5177 90.426V87.258C91.5177 85.458 90.8697 84.594 88.7637 84.594C86.4417 84.594 85.0017 85.656 85.0017 85.656L85.5417 87.24C85.5417 87.24 86.8197 86.268 88.1337 86.268C89.1417 86.268 89.2677 86.844 89.2677 87.618V87.906C86.2797 88.302 84.4797 89.292 84.4797 91.074ZM87.5577 91.578C87.1257 91.578 86.7657 91.398 86.7657 90.894C86.7657 90.03 87.4857 89.454 89.2677 89.202V90.516C88.7817 91.092 88.2057 91.578 87.5577 91.578ZM95.9336 93.054H97.9676L101.244 84.81H98.9756L96.9956 90.12L95.2316 84.81H92.8736L95.9336 93.054ZM101.85 88.95C101.85 91.218 103.29 93.216 106.08 93.216C108.222 93.216 109.518 92.064 109.518 92.064L108.942 90.48C108.942 90.48 107.808 91.488 106.458 91.488C105.216 91.488 104.406 90.696 104.154 89.49L108.204 88.968L109.428 88.608C109.41 85.98 107.988 84.594 105.918 84.594C103.47 84.594 101.85 86.556 101.85 88.95ZM105.756 86.268C106.962 86.268 106.998 87.816 106.998 87.816L104.1 88.194C104.226 87.096 104.784 86.268 105.756 86.268ZM115.519 92.766C115.555 92.784 117.409 93.216 118.795 93.216C121.909 93.216 123.421 91.02 123.421 88.59C123.421 86.412 122.197 84.594 119.803 84.594C118.741 84.594 118.165 84.972 117.769 85.368V80.094L115.519 80.454V92.766ZM119.389 86.304C120.433 86.304 121.117 87.186 121.117 88.752C121.117 90.624 120.163 91.632 118.813 91.632C118.273 91.632 117.769 91.47 117.769 91.47V86.934C118.147 86.646 118.705 86.304 119.389 86.304ZM124.667 88.95C124.667 91.218 126.107 93.216 128.897 93.216C131.039 93.216 132.335 92.064 132.335 92.064L131.759 90.48C131.759 90.48 130.625 91.488 129.275 91.488C128.033 91.488 127.223 90.696 126.971 89.49L131.021 88.968L132.245 88.608C132.227 85.98 130.805 84.594 128.735 84.594C126.287 84.594 124.667 86.556 124.667 88.95ZM128.573 86.268C129.779 86.268 129.815 87.816 129.815 87.816L126.917 88.194C127.043 87.096 127.601 86.268 128.573 86.268ZM133.544 88.95C133.544 91.218 134.984 93.216 137.774 93.216C139.916 93.216 141.212 92.064 141.212 92.064L140.636 90.48C140.636 90.48 139.502 91.488 138.152 91.488C136.91 91.488 136.1 90.696 135.848 89.49L139.898 88.968L141.122 88.608C141.104 85.98 139.682 84.594 137.612 84.594C135.164 84.594 133.544 86.556 133.544 88.95ZM137.45 86.268C138.656 86.268 138.692 87.816 138.692 87.816L135.794 88.194C135.92 87.096 136.478 86.268 137.45 86.268ZM142.907 93H145.157V87.834C145.751 87.24 146.615 86.538 147.317 86.538C147.929 86.538 148.145 87.024 148.145 88.122V93H150.377V87.168C150.377 85.404 149.549 84.594 148.163 84.594C146.777 84.594 145.715 85.44 145.067 86.142V84.63L142.907 84.99V93ZM156.864 93H159.114V87.816C159.69 87.222 160.5 86.538 161.184 86.538C161.796 86.538 162.012 87.024 162.012 88.122V93H164.244V87.798C164.82 87.222 165.63 86.538 166.314 86.538C166.926 86.538 167.142 87.024 167.142 88.122V93H169.374V87.168C169.374 85.404 168.546 84.594 167.16 84.594C165.792 84.594 164.766 85.458 164.118 86.142C163.848 85.098 163.11 84.594 162.03 84.594C160.68 84.594 159.654 85.44 159.024 86.124V84.63L156.864 84.99V93ZM172.711 83.028C173.467 83.028 174.025 82.506 174.025 81.768C174.025 81.03 173.467 80.508 172.711 80.508C171.937 80.508 171.379 81.03 171.379 81.768C171.379 82.506 171.937 83.028 172.711 83.028ZM171.577 93H173.827V84.81H171.577V93ZM175.537 92.496C175.537 92.496 176.617 93.216 178.399 93.216C180.577 93.216 181.801 92.118 181.801 90.606C181.801 88.104 177.967 88.068 177.967 86.952C177.967 86.556 178.309 86.304 179.137 86.304C180.199 86.304 181.099 86.862 181.099 86.862L181.567 85.044C181.567 85.044 180.649 84.594 179.137 84.594C176.689 84.594 175.735 85.818 175.735 87.132C175.735 89.634 179.587 89.688 179.587 90.804C179.587 91.218 179.173 91.506 178.309 91.506C176.977 91.506 176.005 90.66 176.005 90.66L175.537 92.496ZM182.955 92.496C182.955 92.496 184.035 93.216 185.817 93.216C187.995 93.216 189.219 92.118 189.219 90.606C189.219 88.104 185.385 88.068 185.385 86.952C185.385 86.556 185.727 86.304 186.555 86.304C187.617 86.304 188.517 86.862 188.517 86.862L188.985 85.044C188.985 85.044 188.067 84.594 186.555 84.594C184.107 84.594 183.153 85.818 183.153 87.132C183.153 89.634 187.005 89.688 187.005 90.804C187.005 91.218 186.591 91.506 185.727 91.506C184.395 91.506 183.423 90.66 183.423 90.66L182.955 92.496ZM190.409 88.95C190.409 91.218 191.849 93.216 194.639 93.216C196.781 93.216 198.077 92.064 198.077 92.064L197.501 90.48C197.501 90.48 196.367 91.488 195.017 91.488C193.775 91.488 192.965 90.696 192.713 89.49L196.763 88.968L197.987 88.608C197.969 85.98 196.547 84.594 194.477 84.594C192.029 84.594 190.409 86.556 190.409 88.95ZM194.315 86.268C195.521 86.268 195.557 87.816 195.557 87.816L192.659 88.194C192.785 87.096 193.343 86.268 194.315 86.268ZM199.286 89.148C199.286 91.38 200.636 93.216 202.778 93.216C204.128 93.216 204.884 92.622 205.28 91.938C205.37 92.514 205.532 93.126 205.532 93.126L207.62 93C207.62 93 207.242 91.488 207.242 90.498V80.094L205.01 80.454V84.846C204.74 84.738 204.236 84.594 203.588 84.594C200.726 84.594 199.286 86.844 199.286 89.148ZM203.264 91.542C202.184 91.542 201.626 90.57 201.626 89.004C201.626 87.24 202.418 86.268 203.75 86.268C204.47 86.268 205.01 86.556 205.01 87.294V90.462C204.758 90.84 204.146 91.542 203.264 91.542ZM214.842 82.848C215.382 82.848 215.814 82.416 215.814 81.876C215.814 81.336 215.382 80.904 214.842 80.904C214.302 80.904 213.87 81.336 213.87 81.876C213.87 82.416 214.302 82.848 214.842 82.848ZM214.122 93H215.526V84.9H214.122V93ZM218.234 93H219.638V87.654C220.16 87.15 221.546 85.926 222.608 85.926C223.22 85.926 223.706 86.304 223.706 87.51V93H225.11V87.114C225.11 85.368 224.192 84.684 222.986 84.684C221.42 84.684 220.16 85.818 219.638 86.358V84.774L218.234 85.026V93ZM227.205 89.22C227.205 91.452 228.573 93.216 230.679 93.216C231.975 93.216 232.857 92.55 233.307 91.83C233.397 92.388 233.559 93.126 233.559 93.126L234.945 93C234.945 93 234.585 91.488 234.585 90.498V80.148L233.181 80.4V84.972C232.965 84.882 232.425 84.684 231.615 84.684C228.717 84.684 227.205 86.88 227.205 89.22ZM230.859 91.992C229.635 91.992 228.699 90.93 228.699 89.13C228.699 87.06 229.905 85.872 231.633 85.872C232.407 85.872 233.145 86.124 233.181 87.024V90.516C232.965 90.858 232.137 91.992 230.859 91.992ZM238.08 82.848C238.62 82.848 239.052 82.416 239.052 81.876C239.052 81.336 238.62 80.904 238.08 80.904C237.54 80.904 237.108 81.336 237.108 81.876C237.108 82.416 237.54 82.848 238.08 82.848ZM237.36 93H238.764V84.9H237.36V93ZM240.933 89.04C240.933 91.398 242.535 93.216 244.929 93.216C246.765 93.216 247.719 92.172 247.719 92.172L247.233 91.128C247.233 91.128 246.351 91.992 245.037 91.992C243.363 91.992 242.409 90.606 242.409 88.968C242.409 87.294 243.381 85.908 244.983 85.908C246.243 85.908 247.089 86.664 247.089 86.664L247.719 85.566C247.719 85.566 246.801 84.684 245.073 84.684C242.427 84.684 240.933 86.844 240.933 89.04ZM248.998 91.182C248.998 92.37 249.88 93.216 251.266 93.216C252.904 93.216 253.786 92.064 253.948 91.812C254.128 92.478 254.56 93 255.694 93.126L256.162 91.992C256.162 91.992 255.262 91.974 255.262 90.912V87.258C255.262 85.44 254.686 84.684 252.922 84.684C250.906 84.684 249.556 85.674 249.556 85.674L249.988 86.808C249.988 86.808 251.176 85.908 252.526 85.908C253.876 85.908 253.858 86.808 253.858 87.762V88.068C250.78 88.464 248.998 89.508 248.998 91.182ZM251.554 91.992C250.96 91.992 250.492 91.722 250.492 91.092C250.492 90.048 251.572 89.472 253.858 89.094V90.588C253.282 91.254 252.544 91.992 251.554 91.992ZM258.445 90.858C258.445 92.514 259.273 93.216 260.551 93.216C261.901 93.216 262.891 92.388 262.891 92.388L262.549 91.254C262.549 91.254 261.685 91.992 260.839 91.992C260.227 91.992 259.849 91.56 259.849 90.48V86.034H262.477V84.9H259.849V82.668L258.445 83.01V84.81L257.293 85.278V86.034H258.445V90.858ZM264.048 89.13C264.048 91.254 265.38 93.216 268.062 93.216C270.006 93.216 271.176 92.046 271.176 92.046L270.762 90.966C270.762 90.966 269.61 91.992 268.224 91.992C266.64 91.992 265.668 90.858 265.542 89.184L270.312 88.554L271.176 88.302C271.176 85.98 269.808 84.684 267.936 84.684C265.632 84.684 264.048 86.592 264.048 89.13ZM267.846 85.854C269.466 85.854 269.628 87.582 269.628 87.582L265.56 88.104C265.758 86.844 266.55 85.854 267.846 85.854ZM272.766 92.496C272.766 92.496 273.72 93.216 275.358 93.216C277.194 93.216 278.328 92.316 278.328 90.876C278.328 88.194 274.35 88.464 274.35 86.808C274.35 86.25 274.8 85.854 275.772 85.854C276.78 85.854 277.752 86.322 277.752 86.322L278.13 85.134C278.13 85.134 277.248 84.684 275.88 84.684C273.81 84.684 272.928 85.692 272.928 86.916C272.928 89.508 276.906 89.256 276.906 90.984C276.906 91.614 276.402 92.046 275.394 92.046C274.098 92.046 273.072 91.254 273.072 91.254L272.766 92.496ZM285.128 90.858C285.128 92.514 285.956 93.216 287.234 93.216C288.584 93.216 289.574 92.388 289.574 92.388L289.232 91.254C289.232 91.254 288.368 91.992 287.522 91.992C286.91 91.992 286.532 91.56 286.532 90.48V86.034H289.16V84.9H286.532V82.668L285.128 83.01V84.81L283.976 85.278V86.034H285.128V90.858ZM291.29 93H292.694V87.636C293.234 87.132 294.602 85.926 295.646 85.926C296.258 85.926 296.744 86.304 296.744 87.51V93H298.148V87.114C298.148 85.368 297.23 84.684 296.024 84.684C294.476 84.684 293.216 85.782 292.694 86.34V80.148L291.29 80.4V93ZM300.08 91.182C300.08 92.37 300.962 93.216 302.348 93.216C303.986 93.216 304.868 92.064 305.03 91.812C305.21 92.478 305.642 93 306.776 93.126L307.244 91.992C307.244 91.992 306.344 91.974 306.344 90.912V87.258C306.344 85.44 305.768 84.684 304.004 84.684C301.988 84.684 300.638 85.674 300.638 85.674L301.07 86.808C301.07 86.808 302.258 85.908 303.608 85.908C304.958 85.908 304.94 86.808 304.94 87.762V88.068C301.862 88.464 300.08 89.508 300.08 91.182ZM302.636 91.992C302.042 91.992 301.574 91.722 301.574 91.092C301.574 90.048 302.654 89.472 304.94 89.094V90.588C304.364 91.254 303.626 91.992 302.636 91.992ZM309.527 90.858C309.527 92.514 310.355 93.216 311.633 93.216C312.983 93.216 313.973 92.388 313.973 92.388L313.631 91.254C313.631 91.254 312.767 91.992 311.921 91.992C311.309 91.992 310.931 91.56 310.931 90.48V86.034H313.559V84.9H310.931V82.668L309.527 83.01V84.81L308.375 85.278V86.034H309.527V90.858ZM320.301 90.696C320.301 92.37 321.345 93.216 322.857 93.216C324.423 93.216 325.593 92.316 325.593 92.316L324.981 90.678C324.531 90.984 323.883 91.38 323.397 91.38C322.857 91.38 322.551 91.02 322.551 90.156V86.412H325.053V84.81H322.551V82.416L320.373 82.848V84.756L319.023 85.206V86.412H320.301V90.696ZM326.933 93H329.183V87.906C329.705 87.348 330.623 86.538 331.343 86.538C331.955 86.538 332.171 87.024 332.171 88.122V93H334.403V87.168C334.403 85.404 333.575 84.594 332.171 84.594C330.749 84.594 329.741 85.494 329.183 86.106V80.094L326.933 80.454V93ZM336.079 88.95C336.079 91.218 337.519 93.216 340.309 93.216C342.451 93.216 343.747 92.064 343.747 92.064L343.171 90.48C343.171 90.48 342.037 91.488 340.687 91.488C339.445 91.488 338.635 90.696 338.383 89.49L342.433 88.968L343.657 88.608C343.639 85.98 342.217 84.594 340.147 84.594C337.699 84.594 336.079 86.556 336.079 88.95ZM339.985 86.268C341.191 86.268 341.227 87.816 341.227 87.816L338.329 88.194C338.455 87.096 339.013 86.268 339.985 86.268ZM350.162 93H352.484V88.932H354.356C356.876 88.932 358.784 87.384 358.784 84.81C358.784 82.74 357.452 80.994 354.356 80.994H350.162V93ZM352.484 86.988V82.938H353.978C355.76 82.938 356.354 83.802 356.354 84.936C356.354 86.196 355.616 86.988 353.978 86.988H352.484ZM359.507 91.074C359.507 92.298 360.479 93.216 361.973 93.216C363.557 93.216 364.295 92.28 364.529 91.92C364.835 92.55 365.465 93.09 366.815 93.126L367.463 91.38C367.463 91.38 366.545 91.38 366.545 90.426V87.258C366.545 85.458 365.897 84.594 363.791 84.594C361.469 84.594 360.029 85.656 360.029 85.656L360.569 87.24C360.569 87.24 361.847 86.268 363.161 86.268C364.169 86.268 364.295 86.844 364.295 87.618V87.906C361.307 88.302 359.507 89.292 359.507 91.074ZM362.585 91.578C362.153 91.578 361.793 91.398 361.793 90.894C361.793 90.03 362.513 89.454 364.295 89.202V90.516C363.809 91.092 363.233 91.578 362.585 91.578ZM369.484 90.696C369.484 92.37 370.528 93.216 372.04 93.216C373.606 93.216 374.776 92.316 374.776 92.316L374.164 90.678C373.714 90.984 373.066 91.38 372.58 91.38C372.04 91.38 371.734 91.02 371.734 90.156V86.412H374.236V84.81H371.734V82.416L369.556 82.848V84.756L368.206 85.206V86.412H369.484V90.696ZM377.25 83.028C378.006 83.028 378.564 82.506 378.564 81.768C378.564 81.03 378.006 80.508 377.25 80.508C376.476 80.508 375.918 81.03 375.918 81.768C375.918 82.506 376.476 83.028 377.25 83.028ZM376.116 93H378.366V84.81H376.116V93ZM380.112 88.95C380.112 91.218 381.552 93.216 384.342 93.216C386.484 93.216 387.78 92.064 387.78 92.064L387.204 90.48C387.204 90.48 386.07 91.488 384.72 91.488C383.478 91.488 382.668 90.696 382.416 89.49L386.466 88.968L387.69 88.608C387.672 85.98 386.25 84.594 384.18 84.594C381.732 84.594 380.112 86.556 380.112 88.95ZM384.018 86.268C385.224 86.268 385.26 87.816 385.26 87.816L382.362 88.194C382.488 87.096 383.046 86.268 384.018 86.268ZM389.475 93H391.725V87.834C392.319 87.24 393.183 86.538 393.885 86.538C394.497 86.538 394.713 87.024 394.713 88.122V93H396.945V87.168C396.945 85.404 396.117 84.594 394.731 84.594C393.345 84.594 392.283 85.44 391.635 86.142V84.63L389.475 84.99V93ZM399.666 90.696C399.666 92.37 400.71 93.216 402.222 93.216C403.788 93.216 404.958 92.316 404.958 92.316L404.346 90.678C403.896 90.984 403.248 91.38 402.762 91.38C402.222 91.38 401.916 91.02 401.916 90.156V86.412H404.418V84.81H401.916V82.416L399.738 82.848V84.756L398.388 85.206V86.412H399.666V90.696ZM406.496 85.35C407.828 84.288 408.422 83.172 408.422 82.02C408.422 81.192 408.116 80.4 407.432 79.554L405.578 80.526C406.568 81.552 406.856 82.056 406.856 82.65C406.856 83.352 406.496 83.928 405.74 84.522L406.496 85.35ZM409.133 92.496C409.133 92.496 410.213 93.216 411.995 93.216C414.173 93.216 415.397 92.118 415.397 90.606C415.397 88.104 411.563 88.068 411.563 86.952C411.563 86.556 411.905 86.304 412.733 86.304C413.795 86.304 414.695 86.862 414.695 86.862L415.163 85.044C415.163 85.044 414.245 84.594 412.733 84.594C410.285 84.594 409.331 85.818 409.331 87.132C409.331 89.634 413.183 89.688 413.183 90.804C413.183 91.218 412.769 91.506 411.905 91.506C410.573 91.506 409.601 90.66 409.601 90.66L409.133 92.496ZM24.576 118.496C24.576 118.496 25.656 119.216 27.438 119.216C29.616 119.216 30.84 118.118 30.84 116.606C30.84 114.104 27.006 114.068 27.006 112.952C27.006 112.556 27.348 112.304 28.176 112.304C29.238 112.304 30.138 112.862 30.138 112.862L30.606 111.044C30.606 111.044 29.688 110.594 28.176 110.594C25.728 110.594 24.774 111.818 24.774 113.132C24.774 115.634 28.626 115.688 28.626 116.804C28.626 117.218 28.212 117.506 27.348 117.506C26.016 117.506 25.044 116.66 25.044 116.66L24.576 118.496ZM33.074 116.696C33.074 118.37 34.118 119.216 35.63 119.216C37.196 119.216 38.366 118.316 38.366 118.316L37.754 116.678C37.304 116.984 36.656 117.38 36.17 117.38C35.63 117.38 35.324 117.02 35.324 116.156V112.412H37.826V110.81H35.324V108.416L33.146 108.848V110.756L31.796 111.206V112.412H33.074V116.696ZM39.6703 119H41.9203V114.086C42.2623 113.582 42.9643 112.736 43.8463 112.736C44.2423 112.736 44.6203 112.898 44.6203 112.898L44.9803 110.738C44.9803 110.738 44.7283 110.594 44.2783 110.594C43.0003 110.594 42.1723 111.746 41.8303 112.322V110.63L39.6703 110.99V119ZM47.4145 109.028C48.1705 109.028 48.7285 108.506 48.7285 107.768C48.7285 107.03 48.1705 106.508 47.4145 106.508C46.6405 106.508 46.0825 107.03 46.0825 107.768C46.0825 108.506 46.6405 109.028 47.4145 109.028ZM46.2805 119H48.5305V110.81H46.2805V119ZM50.2401 115.058C50.2401 117.38 51.9501 119.216 54.6501 119.216C56.7201 119.216 57.6381 118.172 57.6381 118.172L56.9541 116.66C56.9541 116.66 56.0721 117.488 54.8121 117.488C53.4621 117.488 52.5621 116.48 52.5621 114.932C52.5621 113.276 53.5881 112.322 54.8841 112.322C56.0001 112.322 56.8461 113.06 56.8461 113.06L57.6381 111.422C57.6381 111.422 56.5581 110.594 54.7221 110.594C52.0041 110.594 50.2401 112.736 50.2401 115.058ZM59.7224 116.696C59.7224 118.37 60.7664 119.216 62.2784 119.216C63.8444 119.216 65.0144 118.316 65.0144 118.316L64.4024 116.678C63.9524 116.984 63.3044 117.38 62.8184 117.38C62.2784 117.38 61.9724 117.02 61.9724 116.156V112.412H64.4744V110.81H61.9724V108.416L59.7944 108.848V110.756L58.4444 111.206V112.412H59.7224V116.696ZM70.0129 117.074C70.0129 118.298 70.9849 119.216 72.4789 119.216C74.0629 119.216 74.8009 118.28 75.0349 117.92C75.3409 118.55 75.9709 119.09 77.3209 119.126L77.9689 117.38C77.9689 117.38 77.0509 117.38 77.0509 116.426V113.258C77.0509 111.458 76.4029 110.594 74.2969 110.594C71.9749 110.594 70.5349 111.656 70.5349 111.656L71.0749 113.24C71.0749 113.24 72.3529 112.268 73.6669 112.268C74.6749 112.268 74.8009 112.844 74.8009 113.618V113.906C71.8129 114.302 70.0129 115.292 70.0129 117.074ZM73.0909 117.578C72.6589 117.578 72.2989 117.398 72.2989 116.894C72.2989 116.03 73.0189 115.454 74.8009 115.202V116.516C74.3149 117.092 73.7389 117.578 73.0909 117.578ZM79.0163 115.148C79.0163 117.38 80.3663 119.216 82.5083 119.216C83.8583 119.216 84.6143 118.622 85.0103 117.938C85.1003 118.514 85.2623 119.126 85.2623 119.126L87.3503 119C87.3503 119 86.9723 117.488 86.9723 116.498V106.094L84.7403 106.454V110.846C84.4703 110.738 83.9663 110.594 83.3183 110.594C80.4563 110.594 79.0163 112.844 79.0163 115.148ZM82.9943 117.542C81.9143 117.542 81.3563 116.57 81.3563 115.004C81.3563 113.24 82.1483 112.268 83.4803 112.268C84.2003 112.268 84.7403 112.556 84.7403 113.294V116.462C84.4883 116.84 83.8763 117.542 82.9943 117.542ZM89.2942 119H91.5442V113.906C92.0662 113.348 92.9842 112.538 93.7042 112.538C94.3162 112.538 94.5322 113.024 94.5322 114.122V119H96.7642V113.168C96.7642 111.404 95.9362 110.594 94.5322 110.594C93.1102 110.594 92.1022 111.494 91.5442 112.106V106.094L89.2942 106.454V119ZM98.4401 114.95C98.4401 117.218 99.8801 119.216 102.67 119.216C104.812 119.216 106.108 118.064 106.108 118.064L105.532 116.48C105.532 116.48 104.398 117.488 103.048 117.488C101.806 117.488 100.996 116.696 100.744 115.49L104.794 114.968L106.018 114.608C106 111.98 104.578 110.594 102.508 110.594C100.06 110.594 98.4401 112.556 98.4401 114.95ZM102.346 112.268C103.552 112.268 103.588 113.816 103.588 113.816L100.69 114.194C100.816 113.096 101.374 112.268 102.346 112.268ZM107.803 119H110.053V114.086C110.395 113.582 111.097 112.736 111.979 112.736C112.375 112.736 112.753 112.898 112.753 112.898L113.113 110.738C113.113 110.738 112.861 110.594 112.411 110.594C111.133 110.594 110.305 111.746 109.963 112.322V110.63L107.803 110.99V119ZM113.751 114.95C113.751 117.218 115.191 119.216 117.981 119.216C120.123 119.216 121.419 118.064 121.419 118.064L120.843 116.48C120.843 116.48 119.709 117.488 118.359 117.488C117.117 117.488 116.307 116.696 116.055 115.49L120.105 114.968L121.329 114.608C121.311 111.98 119.889 110.594 117.819 110.594C115.371 110.594 113.751 112.556 113.751 114.95ZM117.657 112.268C118.863 112.268 118.899 113.816 118.899 113.816L116.001 114.194C116.127 113.096 116.685 112.268 117.657 112.268ZM123.114 119H125.364V113.834C125.958 113.24 126.822 112.538 127.524 112.538C128.136 112.538 128.352 113.024 128.352 114.122V119H130.584V113.168C130.584 111.404 129.756 110.594 128.37 110.594C126.984 110.594 125.922 111.44 125.274 112.142V110.63L123.114 110.99V119ZM132.224 115.058C132.224 117.38 133.934 119.216 136.634 119.216C138.704 119.216 139.622 118.172 139.622 118.172L138.938 116.66C138.938 116.66 138.056 117.488 136.796 117.488C135.446 117.488 134.546 116.48 134.546 114.932C134.546 113.276 135.572 112.322 136.868 112.322C137.984 112.322 138.83 113.06 138.83 113.06L139.622 111.422C139.622 111.422 138.542 110.594 136.706 110.594C133.988 110.594 132.224 112.736 132.224 115.058ZM140.54 114.95C140.54 117.218 141.98 119.216 144.77 119.216C146.912 119.216 148.208 118.064 148.208 118.064L147.632 116.48C147.632 116.48 146.498 117.488 145.148 117.488C143.906 117.488 143.096 116.696 142.844 115.49L146.894 114.968L148.118 114.608C148.1 111.98 146.678 110.594 144.608 110.594C142.16 110.594 140.54 112.556 140.54 114.95ZM144.446 112.268C145.652 112.268 145.688 113.816 145.688 113.816L142.79 114.194C142.916 113.096 143.474 112.268 144.446 112.268ZM159.109 116.696C159.109 118.37 160.153 119.216 161.665 119.216C163.231 119.216 164.401 118.316 164.401 118.316L163.789 116.678C163.339 116.984 162.691 117.38 162.205 117.38C161.665 117.38 161.359 117.02 161.359 116.156V112.412H163.861V110.81H161.359V108.416L159.181 108.848V110.756L157.831 111.206V112.412H159.109V116.696ZM165.201 114.932C165.201 117.128 166.659 119.216 169.593 119.216C172.815 119.216 174.057 116.714 174.057 114.734C174.057 112.646 172.599 110.594 169.665 110.594C166.479 110.594 165.201 112.88 165.201 114.932ZM167.523 114.77C167.523 113.312 168.423 112.268 169.629 112.268C171.087 112.268 171.735 113.672 171.735 114.968C171.735 116.498 170.835 117.542 169.647 117.542C168.207 117.542 167.523 116.192 167.523 114.77ZM180.625 116.696C180.625 118.37 181.669 119.216 183.181 119.216C184.747 119.216 185.917 118.316 185.917 118.316L185.305 116.678C184.855 116.984 184.207 117.38 183.721 117.38C183.181 117.38 182.875 117.02 182.875 116.156V112.412H185.377V110.81H182.875V108.416L180.697 108.848V110.756L179.347 111.206V112.412H180.625V116.696ZM187.257 119H189.507V113.906C190.029 113.348 190.947 112.538 191.667 112.538C192.279 112.538 192.495 113.024 192.495 114.122V119H194.727V113.168C194.727 111.404 193.899 110.594 192.495 110.594C191.073 110.594 190.065 111.494 189.507 112.106V106.094L187.257 106.454V119ZM196.403 114.95C196.403 117.218 197.843 119.216 200.633 119.216C202.775 119.216 204.071 118.064 204.071 118.064L203.495 116.48C203.495 116.48 202.361 117.488 201.011 117.488C199.769 117.488 198.959 116.696 198.707 115.49L202.757 114.968L203.981 114.608C203.963 111.98 202.541 110.594 200.471 110.594C198.023 110.594 196.403 112.556 196.403 114.95ZM200.309 112.268C201.515 112.268 201.551 113.816 201.551 113.816L198.653 114.194C198.779 113.096 199.337 112.268 200.309 112.268ZM209.604 115.148C209.604 117.38 210.954 119.216 213.096 119.216C214.446 119.216 215.202 118.622 215.598 117.938C215.688 118.514 215.85 119.126 215.85 119.126L217.938 119C217.938 119 217.56 117.488 217.56 116.498V106.094L215.328 106.454V110.846C215.058 110.738 214.554 110.594 213.906 110.594C211.044 110.594 209.604 112.844 209.604 115.148ZM213.582 117.542C212.502 117.542 211.944 116.57 211.944 115.004C211.944 113.24 212.736 112.268 214.068 112.268C214.788 112.268 215.328 112.556 215.328 113.294V116.462C215.076 116.84 214.464 117.542 213.582 117.542ZM219.342 114.932C219.342 117.128 220.8 119.216 223.734 119.216C226.956 119.216 228.198 116.714 228.198 114.734C228.198 112.646 226.74 110.594 223.806 110.594C220.62 110.594 219.342 112.88 219.342 114.932ZM221.664 114.77C221.664 113.312 222.564 112.268 223.77 112.268C225.228 112.268 225.876 113.672 225.876 114.968C225.876 116.498 224.976 117.542 223.788 117.542C222.348 117.542 221.664 116.192 221.664 114.77ZM229.361 115.058C229.361 117.38 231.071 119.216 233.771 119.216C235.841 119.216 236.759 118.172 236.759 118.172L236.075 116.66C236.075 116.66 235.193 117.488 233.933 117.488C232.583 117.488 231.683 116.48 231.683 114.932C231.683 113.276 232.709 112.322 234.005 112.322C235.121 112.322 235.967 113.06 235.967 113.06L236.759 111.422C236.759 111.422 235.679 110.594 233.843 110.594C231.125 110.594 229.361 112.736 229.361 115.058ZM238.844 116.696C238.844 118.37 239.888 119.216 241.4 119.216C242.966 119.216 244.136 118.316 244.136 118.316L243.524 116.678C243.074 116.984 242.426 117.38 241.939 117.38C241.4 117.38 241.094 117.02 241.094 116.156V112.412H243.596V110.81H241.094V108.416L238.916 108.848V110.756L237.566 111.206V112.412H238.844V116.696ZM244.936 114.932C244.936 117.128 246.394 119.216 249.328 119.216C252.55 119.216 253.792 116.714 253.792 114.734C253.792 112.646 252.334 110.594 249.4 110.594C246.214 110.594 244.936 112.88 244.936 114.932ZM247.258 114.77C247.258 113.312 248.158 112.268 249.364 112.268C250.822 112.268 251.47 113.672 251.47 114.968C251.47 116.498 250.57 117.542 249.382 117.542C247.942 117.542 247.258 116.192 247.258 114.77ZM255.477 119H257.727V114.086C258.069 113.582 258.771 112.736 259.653 112.736C260.049 112.736 260.427 112.898 260.427 112.898L260.787 110.738C260.787 110.738 260.535 110.594 260.085 110.594C258.807 110.594 257.979 111.746 257.637 112.322V110.63L255.477 110.99V119ZM262.285 111.35C263.617 110.288 264.211 109.172 264.211 108.02C264.211 107.192 263.905 106.4 263.221 105.554L261.367 106.526C262.357 107.552 262.645 108.056 262.645 108.65C262.645 109.352 262.285 109.928 261.529 110.522L262.285 111.35ZM264.922 118.496C264.922 118.496 266.002 119.216 267.784 119.216C269.962 119.216 271.186 118.118 271.186 116.606C271.186 114.104 267.352 114.068 267.352 112.952C267.352 112.556 267.694 112.304 268.522 112.304C269.584 112.304 270.484 112.862 270.484 112.862L270.952 111.044C270.952 111.044 270.034 110.594 268.522 110.594C266.074 110.594 265.12 111.818 265.12 113.132C265.12 115.634 268.972 115.688 268.972 116.804C268.972 117.218 268.558 117.506 267.694 117.506C266.362 117.506 265.39 116.66 265.39 116.66L264.922 118.496ZM277.186 123.23L279.436 122.87V118.874C279.814 119.108 280.408 119.216 281.002 119.216C283.72 119.216 285.142 116.984 285.142 114.644C285.142 112.43 283.864 110.594 281.704 110.594C280.462 110.594 279.724 111.224 279.346 111.962V110.63L277.186 110.99V123.23ZM281.272 112.358C282.19 112.358 282.82 113.258 282.82 114.788C282.82 116.624 281.902 117.542 280.624 117.542C279.886 117.542 279.436 117.254 279.436 116.804V113.582C279.67 113.24 280.336 112.358 281.272 112.358ZM286.871 119H289.121V114.086C289.463 113.582 290.165 112.736 291.047 112.736C291.443 112.736 291.821 112.898 291.821 112.898L292.181 110.738C292.181 110.738 291.929 110.594 291.479 110.594C290.201 110.594 289.373 111.746 289.031 112.322V110.63L286.871 110.99V119ZM292.819 114.95C292.819 117.218 294.259 119.216 297.049 119.216C299.191 119.216 300.487 118.064 300.487 118.064L299.911 116.48C299.911 116.48 298.777 117.488 297.427 117.488C296.185 117.488 295.375 116.696 295.123 115.49L299.173 114.968L300.397 114.608C300.379 111.98 298.957 110.594 296.887 110.594C294.439 110.594 292.819 112.556 292.819 114.95ZM296.725 112.268C297.931 112.268 297.967 113.816 297.967 113.816L295.069 114.194C295.195 113.096 295.753 112.268 296.725 112.268ZM301.66 118.496C301.66 118.496 302.74 119.216 304.522 119.216C306.7 119.216 307.924 118.118 307.924 116.606C307.924 114.104 304.09 114.068 304.09 112.952C304.09 112.556 304.432 112.304 305.26 112.304C306.322 112.304 307.222 112.862 307.222 112.862L307.69 111.044C307.69 111.044 306.772 110.594 305.26 110.594C302.812 110.594 301.858 111.818 301.858 113.132C301.858 115.634 305.71 115.688 305.71 116.804C305.71 117.218 305.296 117.506 304.432 117.506C303.1 117.506 302.128 116.66 302.128 116.66L301.66 118.496ZM309.078 115.058C309.078 117.38 310.788 119.216 313.488 119.216C315.558 119.216 316.476 118.172 316.476 118.172L315.792 116.66C315.792 116.66 314.91 117.488 313.65 117.488C312.3 117.488 311.4 116.48 311.4 114.932C311.4 113.276 312.426 112.322 313.722 112.322C314.838 112.322 315.684 113.06 315.684 113.06L316.476 111.422C316.476 111.422 315.396 110.594 313.56 110.594C310.842 110.594 309.078 112.736 309.078 115.058ZM318.002 119H320.252V114.086C320.594 113.582 321.296 112.736 322.178 112.736C322.574 112.736 322.952 112.898 322.952 112.898L323.312 110.738C323.312 110.738 323.06 110.594 322.61 110.594C321.332 110.594 320.504 111.746 320.162 112.322V110.63L318.002 110.99V119ZM325.747 109.028C326.503 109.028 327.061 108.506 327.061 107.768C327.061 107.03 326.503 106.508 325.747 106.508C324.973 106.508 324.415 107.03 324.415 107.768C324.415 108.506 324.973 109.028 325.747 109.028ZM324.613 119H326.863V110.81H324.613V119ZM329.076 118.766C329.112 118.784 330.966 119.216 332.352 119.216C335.466 119.216 336.978 117.02 336.978 114.59C336.978 112.412 335.754 110.594 333.36 110.594C332.298 110.594 331.722 110.972 331.326 111.368V106.094L329.076 106.454V118.766ZM332.946 112.304C333.99 112.304 334.674 113.186 334.674 114.752C334.674 116.624 333.72 117.632 332.37 117.632C331.83 117.632 331.326 117.47 331.326 117.47V112.934C331.704 112.646 332.262 112.304 332.946 112.304ZM338.223 114.95C338.223 117.218 339.663 119.216 342.453 119.216C344.595 119.216 345.891 118.064 345.891 118.064L345.315 116.48C345.315 116.48 344.181 117.488 342.831 117.488C341.589 117.488 340.779 116.696 340.527 115.49L344.577 114.968L345.801 114.608C345.783 111.98 344.361 110.594 342.291 110.594C339.843 110.594 338.223 112.556 338.223 114.95ZM342.129 112.268C343.335 112.268 343.371 113.816 343.371 113.816L340.473 114.194C340.599 113.096 341.157 112.268 342.129 112.268ZM347.1 115.148C347.1 117.38 348.45 119.216 350.592 119.216C351.942 119.216 352.698 118.622 353.094 117.938C353.184 118.514 353.346 119.126 353.346 119.126L355.434 119C355.434 119 355.056 117.488 355.056 116.498V106.094L352.824 106.454V110.846C352.554 110.738 352.05 110.594 351.402 110.594C348.54 110.594 347.1 112.844 347.1 115.148ZM351.078 117.542C349.998 117.542 349.44 116.57 349.44 115.004C349.44 113.24 350.232 112.268 351.564 112.268C352.284 112.268 352.824 112.556 352.824 113.294V116.462C352.572 116.84 351.96 117.542 351.078 117.542ZM361.666 119H363.916V113.816C364.492 113.222 365.302 112.538 365.986 112.538C366.598 112.538 366.814 113.024 366.814 114.122V119H369.046V113.798C369.622 113.222 370.432 112.538 371.116 112.538C371.728 112.538 371.944 113.024 371.944 114.122V119H374.176V113.168C374.176 111.404 373.348 110.594 371.962 110.594C370.594 110.594 369.568 111.458 368.92 112.142C368.65 111.098 367.912 110.594 366.832 110.594C365.482 110.594 364.456 111.44 363.826 112.124V110.63L361.666 110.99V119ZM375.858 114.95C375.858 117.218 377.298 119.216 380.088 119.216C382.23 119.216 383.526 118.064 383.526 118.064L382.95 116.48C382.95 116.48 381.816 117.488 380.466 117.488C379.224 117.488 378.414 116.696 378.162 115.49L382.212 114.968L383.436 114.608C383.418 111.98 381.996 110.594 379.926 110.594C377.478 110.594 375.858 112.556 375.858 114.95ZM379.764 112.268C380.97 112.268 381.006 113.816 381.006 113.816L378.108 114.194C378.234 113.096 378.792 112.268 379.764 112.268ZM384.735 115.148C384.735 117.38 386.085 119.216 388.227 119.216C389.577 119.216 390.333 118.622 390.729 117.938C390.819 118.514 390.981 119.126 390.981 119.126L393.069 119C393.069 119 392.691 117.488 392.691 116.498V106.094L390.459 106.454V110.846C390.189 110.738 389.685 110.594 389.037 110.594C386.175 110.594 384.735 112.844 384.735 115.148ZM388.713 117.542C387.633 117.542 387.075 116.57 387.075 115.004C387.075 113.24 387.867 112.268 389.199 112.268C389.919 112.268 390.459 112.556 390.459 113.294V116.462C390.207 116.84 389.595 117.542 388.713 117.542ZM396.147 109.028C396.903 109.028 397.461 108.506 397.461 107.768C397.461 107.03 396.903 106.508 396.147 106.508C395.373 106.508 394.815 107.03 394.815 107.768C394.815 108.506 395.373 109.028 396.147 109.028ZM395.013 119H397.263V110.81H395.013V119ZM398.972 115.058C398.972 117.38 400.682 119.216 403.382 119.216C405.452 119.216 406.37 118.172 406.37 118.172L405.686 116.66C405.686 116.66 404.804 117.488 403.544 117.488C402.194 117.488 401.294 116.48 401.294 114.932C401.294 113.276 402.32 112.322 403.616 112.322C404.732 112.322 405.578 113.06 405.578 113.06L406.37 111.422C406.37 111.422 405.29 110.594 403.454 110.594C400.736 110.594 398.972 112.736 398.972 115.058ZM407.267 117.074C407.267 118.298 408.239 119.216 409.733 119.216C411.317 119.216 412.055 118.28 412.289 117.92C412.595 118.55 413.225 119.09 414.575 119.126L415.223 117.38C415.223 117.38 414.305 117.38 414.305 116.426V113.258C414.305 111.458 413.657 110.594 411.551 110.594C409.229 110.594 407.789 111.656 407.789 111.656L408.329 113.24C408.329 113.24 409.607 112.268 410.921 112.268C411.929 112.268 412.055 112.844 412.055 113.618V113.906C409.067 114.302 407.267 115.292 407.267 117.074ZM410.345 117.578C409.913 117.578 409.553 117.398 409.553 116.894C409.553 116.03 410.273 115.454 412.055 115.202V116.516C411.569 117.092 410.993 117.578 410.345 117.578ZM417.244 116.696C417.244 118.37 418.288 119.216 419.8 119.216C421.366 119.216 422.536 118.316 422.536 118.316L421.924 116.678C421.474 116.984 420.826 117.38 420.34 117.38C419.8 117.38 419.494 117.02 419.494 116.156V112.412H421.996V110.81H419.494V108.416L417.316 108.848V110.756L415.966 111.206V112.412H417.244V116.696ZM425.01 109.028C425.766 109.028 426.324 108.506 426.324 107.768C426.324 107.03 425.766 106.508 425.01 106.508C424.236 106.508 423.678 107.03 423.678 107.768C423.678 108.506 424.236 109.028 425.01 109.028ZM423.876 119H426.126V110.81H423.876V119ZM427.854 114.932C427.854 117.128 429.312 119.216 432.246 119.216C435.468 119.216 436.71 116.714 436.71 114.734C436.71 112.646 435.252 110.594 432.318 110.594C429.132 110.594 427.854 112.88 427.854 114.932ZM430.176 114.77C430.176 113.312 431.076 112.268 432.282 112.268C433.74 112.268 434.388 113.672 434.388 114.968C434.388 116.498 433.488 117.542 432.3 117.542C430.86 117.542 430.176 116.192 430.176 114.77ZM438.395 119H440.645V113.834C441.239 113.24 442.103 112.538 442.805 112.538C443.417 112.538 443.633 113.024 443.633 114.122V119H445.865V113.168C445.865 111.404 445.037 110.594 443.651 110.594C442.265 110.594 441.203 111.44 440.555 112.142V110.63L438.395 110.99V119ZM25.332 144H26.736V138.87C27.06 138.312 27.816 137.214 28.752 137.214C29.076 137.214 29.436 137.358 29.436 137.358L29.796 135.846C29.796 135.846 29.544 135.684 29.094 135.684C27.87 135.684 27.042 136.836 26.736 137.376V135.774L25.332 136.026V144ZM30.6811 140.13C30.6811 142.254 32.0131 144.216 34.6951 144.216C36.6391 144.216 37.8091 143.046 37.8091 143.046L37.3951 141.966C37.3951 141.966 36.2431 142.992 34.8571 142.992C33.2731 142.992 32.3011 141.858 32.1751 140.184L36.9451 139.554L37.8091 139.302C37.8091 136.98 36.4411 135.684 34.5691 135.684C32.2651 135.684 30.6811 137.592 30.6811 140.13ZM34.4791 136.854C36.0991 136.854 36.2611 138.582 36.2611 138.582L32.1931 139.104C32.3911 137.844 33.1831 136.854 34.4791 136.854ZM39.9206 142.542C39.9206 143.082 40.4786 143.406 41.2706 143.64C40.3526 144.108 39.1646 144.864 39.1646 146.106C39.1646 147.546 40.8746 148.266 42.6206 148.266C44.9246 148.266 46.9406 146.934 46.9406 145.278C46.9406 143.802 45.3566 143.37 43.8086 143.028C42.2786 142.686 41.4326 142.506 41.4326 142.164C41.4326 141.93 41.7746 141.678 42.1526 141.408C42.3506 141.444 42.5666 141.462 42.8006 141.462C44.4206 141.462 46.2386 140.544 46.2386 138.654C46.2386 137.862 45.8426 137.304 45.6266 137.07C45.8066 137.088 46.0586 137.106 46.2926 137.106H47.3186L47.1926 135.846C47.1926 135.846 46.6526 136.026 46.1306 136.026H45.2666C44.3846 136.026 43.8806 135.684 42.9446 135.684C41.1806 135.684 39.5966 136.728 39.5966 138.51C39.5966 139.644 40.1906 140.598 41.1626 141.102C40.5866 141.444 39.9206 141.966 39.9206 142.542ZM40.4606 145.908C40.4606 145.008 41.4866 144.468 42.4406 143.946C42.7466 144 43.0346 144.054 43.3406 144.126C44.5646 144.396 45.5006 144.684 45.5006 145.476C45.5006 146.376 44.2586 147.186 42.7286 147.186C41.7746 147.186 40.4606 146.88 40.4606 145.908ZM42.9266 140.382C41.6306 140.382 41.0366 139.5 41.0366 138.6C41.0366 137.574 41.7386 136.764 42.8906 136.764C44.1686 136.764 44.7986 137.808 44.7986 138.726C44.7986 139.788 43.9886 140.382 42.9266 140.382ZM49.7482 133.848C50.2882 133.848 50.7202 133.416 50.7202 132.876C50.7202 132.336 50.2882 131.904 49.7482 131.904C49.2082 131.904 48.7762 132.336 48.7762 132.876C48.7762 133.416 49.2082 133.848 49.7482 133.848ZM49.0282 144H50.4322V135.9H49.0282V144ZM53.1406 144H54.5446V138.636C55.0126 138.168 56.3806 136.926 57.4246 136.926C57.9826 136.926 58.4326 137.304 58.4326 138.51V144H59.8366V138.51C60.4126 137.97 61.6366 136.926 62.5906 136.926C63.1486 136.926 63.5986 137.304 63.5986 138.51V144H65.0026V138.114C65.0026 136.368 64.1206 135.684 62.9686 135.684C61.5106 135.684 60.3046 136.746 59.7466 137.304C59.5126 136.152 58.7566 135.684 57.8026 135.684C56.2906 135.684 55.0486 136.8 54.5446 137.34V135.774L53.1406 136.026V144ZM67.0854 140.13C67.0854 142.254 68.4174 144.216 71.0994 144.216C73.0434 144.216 74.2134 143.046 74.2134 143.046L73.7994 141.966C73.7994 141.966 72.6474 142.992 71.2614 142.992C69.6774 142.992 68.7054 141.858 68.5794 140.184L73.3494 139.554L74.2134 139.302C74.2134 136.98 72.8454 135.684 70.9734 135.684C68.6694 135.684 67.0854 137.592 67.0854 140.13ZM70.8834 136.854C72.5034 136.854 72.6654 138.582 72.6654 138.582L68.5974 139.104C68.7954 137.844 69.5874 136.854 70.8834 136.854ZM76.3789 144H77.7829V138.654C78.3049 138.15 79.6909 136.926 80.7529 136.926C81.3649 136.926 81.8509 137.304 81.8509 138.51V144H83.2549V138.114C83.2549 136.368 82.3369 135.684 81.1309 135.684C79.5649 135.684 78.3049 136.818 77.7829 137.358V135.774L76.3789 136.026V144ZM90.9513 133.848C91.4913 133.848 91.9233 133.416 91.9233 132.876C91.9233 132.336 91.4913 131.904 90.9513 131.904C90.4113 131.904 89.9793 132.336 89.9793 132.876C89.9793 133.416 90.4113 133.848 90.9513 133.848ZM90.2313 144H91.6353V135.9H90.2313V144ZM93.7677 143.496C93.7677 143.496 94.7217 144.216 96.3597 144.216C98.1957 144.216 99.3297 143.316 99.3297 141.876C99.3297 139.194 95.3517 139.464 95.3517 137.808C95.3517 137.25 95.8017 136.854 96.7737 136.854C97.7817 136.854 98.7537 137.322 98.7537 137.322L99.1317 136.134C99.1317 136.134 98.2497 135.684 96.8817 135.684C94.8117 135.684 93.9297 136.692 93.9297 137.916C93.9297 140.508 97.9077 140.256 97.9077 141.984C97.9077 142.614 97.4037 143.046 96.3957 143.046C95.0997 143.046 94.0737 142.254 94.0737 142.254L93.7677 143.496ZM105.194 139.986C105.194 142.128 106.652 144.216 109.154 144.216C111.872 144.216 113.204 141.768 113.204 139.788C113.204 137.7 111.746 135.684 109.226 135.684C106.544 135.684 105.194 137.97 105.194 139.986ZM106.67 139.824C106.67 138.078 107.66 136.908 109.19 136.908C111.008 136.908 111.728 138.474 111.728 140.022C111.728 141.768 110.738 142.992 109.208 142.992C107.444 142.992 106.67 141.408 106.67 139.824ZM114.792 140.04C114.792 142.398 116.394 144.216 118.788 144.216C120.624 144.216 121.578 143.172 121.578 143.172L121.092 142.128C121.092 142.128 120.21 142.992 118.896 142.992C117.222 142.992 116.268 141.606 116.268 139.968C116.268 138.294 117.24 136.908 118.842 136.908C120.102 136.908 120.948 137.664 120.948 137.664L121.578 136.566C121.578 136.566 120.66 135.684 118.932 135.684C116.286 135.684 114.792 137.844 114.792 140.04ZM122.878 140.04C122.878 142.398 124.48 144.216 126.874 144.216C128.71 144.216 129.664 143.172 129.664 143.172L129.178 142.128C129.178 142.128 128.296 142.992 126.982 142.992C125.308 142.992 124.354 141.606 124.354 139.968C124.354 138.294 125.326 136.908 126.928 136.908C128.188 136.908 129.034 137.664 129.034 137.664L129.664 136.566C129.664 136.566 128.746 135.684 127.018 135.684C124.372 135.684 122.878 137.844 122.878 140.04ZM131.555 141.786C131.555 143.532 132.419 144.216 133.751 144.216C135.281 144.216 136.469 143.172 136.955 142.65C137.027 143.226 137.225 144.126 137.225 144.126L138.611 144C138.611 144 138.251 142.488 138.251 141.498V135.9H136.847V141.462C136.307 142.002 135.155 142.974 134.111 142.974C133.463 142.974 132.959 142.632 132.959 141.39V135.9H131.555V141.786ZM140.978 144H142.382V138.87C142.706 138.312 143.462 137.214 144.398 137.214C144.722 137.214 145.082 137.358 145.082 137.358L145.442 135.846C145.442 135.846 145.19 135.684 144.74 135.684C143.516 135.684 142.688 136.836 142.382 137.376V135.774L140.978 136.026V144ZM147.746 133.848C148.286 133.848 148.718 133.416 148.718 132.876C148.718 132.336 148.286 131.904 147.746 131.904C147.206 131.904 146.774 132.336 146.774 132.876C146.774 133.416 147.206 133.848 147.746 133.848ZM147.026 144H148.43V135.9H147.026V144ZM151.139 144H152.543V138.654C153.065 138.15 154.451 136.926 155.513 136.926C156.125 136.926 156.611 137.304 156.611 138.51V144H158.015V138.114C158.015 136.368 157.097 135.684 155.891 135.684C154.325 135.684 153.065 136.818 152.543 137.358V135.774L151.139 136.026V144ZM160.577 142.542C160.577 143.082 161.135 143.406 161.927 143.64C161.009 144.108 159.821 144.864 159.821 146.106C159.821 147.546 161.531 148.266 163.277 148.266C165.581 148.266 167.597 146.934 167.597 145.278C167.597 143.802 166.013 143.37 164.465 143.028C162.935 142.686 162.089 142.506 162.089 142.164C162.089 141.93 162.431 141.678 162.809 141.408C163.007 141.444 163.223 141.462 163.457 141.462C165.077 141.462 166.895 140.544 166.895 138.654C166.895 137.862 166.499 137.304 166.283 137.07C166.463 137.088 166.715 137.106 166.949 137.106H167.975L167.849 135.846C167.849 135.846 167.309 136.026 166.787 136.026H165.923C165.041 136.026 164.537 135.684 163.601 135.684C161.837 135.684 160.253 136.728 160.253 138.51C160.253 139.644 160.847 140.598 161.819 141.102C161.243 141.444 160.577 141.966 160.577 142.542ZM161.117 145.908C161.117 145.008 162.143 144.468 163.097 143.946C163.403 144 163.691 144.054 163.997 144.126C165.221 144.396 166.157 144.684 166.157 145.476C166.157 146.376 164.915 147.186 163.385 147.186C162.431 147.186 161.117 146.88 161.117 145.908ZM163.583 140.382C162.287 140.382 161.693 139.5 161.693 138.6C161.693 137.574 162.395 136.764 163.547 136.764C164.825 136.764 165.455 137.808 165.455 138.726C165.455 139.788 164.645 140.382 163.583 140.382Z" fill="#333333"/>
</svg>
