<svg width="1078" height="519" viewBox="0 0 1078 519" fill="none" xmlns="http://www.w3.org/2000/svg">
<rect x="1" y="1" width="1076" height="517" fill="#FAFAFA" stroke="#BDBDBD" stroke-width="2"/>
<path d="M569 382.256V177.031H778.5V382.256" stroke="#BDBDBD" stroke-width="4"/>
<rect x="578" y="188" width="41" height="128" fill="#EDE3E4"/>
<rect x="628" y="188" width="41" height="160" fill="#EDE3E4"/>
<rect x="728" y="188" width="42" height="128" fill="#EDE3E4"/>
<rect x="678" y="188" width="42" height="160" fill="#EDE3E4"/>
<path d="M794.5 382.256V177.031H1004V382.256" stroke="#BDBDBD" stroke-width="4"/>
<rect x="803.051" y="187.721" width="41.6862" height="116.508" fill="#DFDDE2"/>
<rect x="853" y="188" width="42" height="157" fill="#DFDDE2"/>
<rect x="953.762" y="187.721" width="41.6862" height="116.508" fill="#DFDDE2"/>
<rect x="903.523" y="187.721" width="41.6862" height="143.23" fill="#DFDDE2"/>
<path d="M298.5 382.256V177.031H508V382.256" stroke="#BDBDBD" stroke-width="4"/>
<rect x="307.051" y="187.721" width="41.6862" height="160.332" fill="#D9DFE9"/>
<rect x="357" y="188" width="42" height="128" fill="#D9DFE9"/>
<rect x="458" y="188" width="41" height="160" fill="#D9DFE9"/>
<rect x="408" y="188" width="41" height="128" fill="#D9DFE9"/>
<path d="M308.82 96H310.88V90.2H315.58V88.42H310.88V84.38H316.82V82.66H308.82V96ZM317.488 91.62C317.488 94.04 319.028 96.24 322.048 96.24C324.308 96.24 325.688 94.94 325.688 94.94L325.128 93.5C325.128 93.5 323.868 94.62 322.348 94.62C320.768 94.62 319.768 93.56 319.548 91.92L324.488 91.26L325.628 90.94C325.628 88.2 324.068 86.72 321.908 86.72C319.268 86.72 317.488 88.86 317.488 91.62ZM321.768 88.26C323.348 88.26 323.468 90.1 323.468 90.1L319.548 90.6C319.728 89.28 320.488 88.26 321.768 88.26ZM327.292 91.62C327.292 94.04 328.832 96.24 331.852 96.24C334.112 96.24 335.492 94.94 335.492 94.94L334.932 93.5C334.932 93.5 333.672 94.62 332.152 94.62C330.572 94.62 329.572 93.56 329.352 91.92L334.292 91.26L335.432 90.94C335.432 88.2 333.872 86.72 331.712 86.72C329.072 86.72 327.292 88.86 327.292 91.62ZM331.572 88.26C333.152 88.26 333.272 90.1 333.272 90.1L329.352 90.6C329.532 89.28 330.292 88.26 331.572 88.26ZM337.697 96H339.677V81.7L337.697 82.02V96ZM347.306 96H349.286V90.18C349.886 89.58 351.186 88.44 352.186 88.44C352.866 88.44 353.266 88.92 353.266 90.2V96H355.246V89.48C355.246 87.54 354.266 86.72 352.826 86.72C351.166 86.72 349.886 87.84 349.286 88.48V81.7L347.306 82.02V96ZM357.331 91.52C357.331 93.92 358.951 96.24 361.951 96.24C365.211 96.24 366.651 93.5 366.651 91.3C366.651 88.98 365.031 86.72 362.031 86.72C358.791 86.72 357.331 89.26 357.331 91.52ZM359.391 91.34C359.391 89.54 360.451 88.3 361.991 88.3C363.831 88.3 364.591 89.96 364.591 91.56C364.591 93.38 363.531 94.66 362.011 94.66C360.211 94.66 359.391 93.02 359.391 91.34ZM368.79 100.66L370.77 100.34V95.76C371.15 96.04 371.83 96.24 372.67 96.24C375.55 96.24 377.23 93.88 377.23 91.2C377.23 88.74 375.79 86.72 373.41 86.72C371.99 86.72 371.13 87.46 370.71 88.24V86.8L368.79 87.12V100.66ZM373.07 88.36C374.29 88.36 375.15 89.46 375.15 91.34C375.15 93.5 374.01 94.68 372.31 94.68C371.37 94.68 370.77 94.34 370.77 93.66V89.82C371.03 89.44 371.87 88.36 373.07 88.36ZM378.835 91.62C378.835 94.04 380.375 96.24 383.395 96.24C385.655 96.24 387.035 94.94 387.035 94.94L386.475 93.5C386.475 93.5 385.215 94.62 383.695 94.62C382.115 94.62 381.115 93.56 380.895 91.92L385.835 91.26L386.975 90.94C386.975 88.2 385.415 86.72 383.255 86.72C380.615 86.72 378.835 88.86 378.835 91.62ZM383.115 88.26C384.695 88.26 384.815 90.1 384.815 90.1L380.895 90.6C381.075 89.28 381.835 88.26 383.115 88.26ZM388.34 88.46H389.76V96H391.74V88.46H394.24V86.96H391.74V85.88C391.74 83.76 392.7 83.02 393.76 83.02C394.74 83.02 395.62 83.66 395.62 83.66L396.4 82.14C396.4 82.14 395.36 81.38 393.78 81.38C391.42 81.38 389.76 83.04 389.76 86V86.88L388.34 87.4V88.46ZM395.956 93.52C395.956 95.46 396.956 96.24 398.416 96.24C400.076 96.24 401.336 95.18 401.916 94.56C402.016 95.22 402.216 96.16 402.216 96.16L404.136 95.98C404.136 95.98 403.736 94.32 403.736 93.22V86.96H401.756V93.04C401.196 93.56 400.076 94.52 399.056 94.52C398.316 94.52 397.936 94.02 397.936 92.76V86.96H395.956V93.52ZM406.603 96H408.583V81.7L406.603 82.02V96ZM416.693 93.54C416.693 95.4 417.713 96.24 419.273 96.24C420.873 96.24 422.053 95.28 422.053 95.28L421.553 93.78C421.313 93.92 420.473 94.58 419.713 94.58C419.053 94.58 418.673 94.14 418.673 93.04V88.46H421.533V86.96H418.673V84.4L416.733 84.82V86.88L415.353 87.38V88.46H416.693V93.54ZM423.771 96H425.751V90.18C426.351 89.58 427.651 88.44 428.651 88.44C429.331 88.44 429.731 88.92 429.731 90.2V96H431.711V89.48C431.711 87.54 430.731 86.72 429.291 86.72C427.631 86.72 426.351 87.84 425.751 88.48V81.7L423.771 82.02V96ZM433.656 93.92C433.656 95.26 434.676 96.24 436.256 96.24C438.016 96.24 438.936 95.12 439.176 94.74C439.436 95.46 440.016 96.04 441.396 96.14L441.996 94.58C441.996 94.58 440.996 94.56 440.996 93.44V89.62C440.996 87.6 440.316 86.72 438.176 86.72C435.796 86.72 434.256 87.86 434.256 87.86L434.776 89.34C434.776 89.34 436.156 88.3 437.636 88.3C439.096 88.3 439.016 89.3 439.016 90.44C435.636 90.88 433.656 92.02 433.656 93.92ZM436.756 94.68C436.176 94.68 435.696 94.42 435.696 93.78C435.696 92.72 436.716 92.06 439.016 91.72V93.28C438.416 93.98 437.676 94.68 436.756 94.68ZM444.388 93.54C444.388 95.4 445.408 96.24 446.968 96.24C448.568 96.24 449.748 95.28 449.748 95.28L449.248 93.78C449.008 93.92 448.168 94.58 447.408 94.58C446.748 94.58 446.368 94.14 446.368 93.04V88.46H449.228V86.96H446.368V84.4L444.428 84.82V86.88L443.048 87.38V88.46H444.388V93.54ZM456.691 96H458.751V82.66H456.691V96ZM466.178 91.6C466.178 94.22 467.998 96.24 470.818 96.24C472.978 96.24 474.018 95.08 474.018 95.08L473.378 93.68C473.378 93.68 472.398 94.62 470.958 94.62C469.258 94.62 468.238 93.28 468.238 91.5C468.238 89.66 469.338 88.32 470.978 88.32C472.298 88.32 473.238 89.16 473.238 89.16L474.018 87.68C474.018 87.68 472.918 86.72 470.938 86.72C467.958 86.72 466.178 89.1 466.178 91.6ZM475.257 93.92C475.257 95.26 476.277 96.24 477.857 96.24C479.617 96.24 480.537 95.12 480.777 94.74C481.037 95.46 481.617 96.04 482.997 96.14L483.597 94.58C483.597 94.58 482.597 94.56 482.597 93.44V89.62C482.597 87.6 481.917 86.72 479.777 86.72C477.397 86.72 475.857 87.86 475.857 87.86L476.377 89.34C476.377 89.34 477.757 88.3 479.237 88.3C480.697 88.3 480.617 89.3 480.617 90.44C477.237 90.88 475.257 92.02 475.257 93.92ZM478.357 94.68C477.777 94.68 477.297 94.42 477.297 93.78C477.297 92.72 478.317 92.06 480.617 91.72V93.28C480.017 93.98 479.277 94.68 478.357 94.68ZM485.548 96H487.528V90.14C488.148 89.54 489.428 88.44 490.428 88.44C491.108 88.44 491.508 88.92 491.508 90.2V96H493.488V89.48C493.488 87.54 492.508 86.72 491.088 86.72C489.428 86.72 488.128 87.82 487.488 88.52V86.8L485.548 87.12V96ZM308.34 121.4C308.34 122.02 308.92 122.38 309.82 122.68C308.86 123.18 307.52 124.04 307.52 125.36C307.52 126.94 309.48 127.74 311.48 127.74C314.2 127.74 316.42 126.2 316.42 124.38C316.42 122.72 314.6 122.22 313 121.82C311.12 121.36 310.24 121.18 310.24 120.82C310.24 120.6 310.56 120.36 310.98 120.08C311.18 120.12 311.4 120.12 311.64 120.12C313.58 120.12 315.64 119.06 315.64 117.08C315.64 116.28 315.26 115.74 314.98 115.42C315.22 115.46 315.5 115.48 315.72 115.48H316.8L316.66 113.9C316.66 113.9 316.06 114.1 315.46 114.1H314.42C313.42 114.1 312.9 113.72 311.8 113.72C309.78 113.72 307.96 114.86 307.96 116.88C307.96 118.1 308.62 119.16 309.76 119.72C309.02 120.14 308.34 120.74 308.34 121.4ZM311.86 123.2C313.54 123.64 314.48 123.9 314.48 124.68C314.48 125.58 313.2 126.3 311.6 126.3C310.46 126.3 309.3 125.94 309.3 125.04C309.3 124.14 310.4 123.54 311.26 123.06C311.46 123.1 311.66 123.14 311.86 123.2ZM311.78 118.72C310.5 118.72 309.9 117.8 309.9 116.94C309.9 116 310.58 115.12 311.78 115.12C313.06 115.12 313.68 116.16 313.68 117.04C313.68 118.06 312.88 118.72 311.78 118.72ZM317.917 118.62C317.917 121.04 319.457 123.24 322.477 123.24C324.737 123.24 326.117 121.94 326.117 121.94L325.557 120.5C325.557 120.5 324.297 121.62 322.777 121.62C321.197 121.62 320.197 120.56 319.977 118.92L324.917 118.26L326.057 117.94C326.057 115.2 324.497 113.72 322.337 113.72C319.697 113.72 317.917 115.86 317.917 118.62ZM322.197 115.26C323.777 115.26 323.897 117.1 323.897 117.1L319.977 117.6C320.157 116.28 320.917 115.26 322.197 115.26ZM328.802 120.54C328.802 122.4 329.822 123.24 331.382 123.24C332.982 123.24 334.162 122.28 334.162 122.28L333.662 120.78C333.422 120.92 332.582 121.58 331.822 121.58C331.162 121.58 330.782 121.14 330.782 120.04V115.46H333.642V113.96H330.782V111.4L328.842 111.82V113.88L327.462 114.38V115.46H328.802V120.54ZM340.645 122.8C341.325 122.96 342.865 123.24 343.945 123.24C347.365 123.24 349.005 120.8 349.005 118.16C349.005 115.68 347.565 113.72 345.065 113.72C343.825 113.72 343.085 114.22 342.625 114.74V108.7L340.645 109.02V122.8ZM344.745 115.32C346.065 115.32 346.965 116.42 346.965 118.3C346.965 120.54 345.705 121.74 343.985 121.74C343.245 121.74 342.625 121.54 342.625 121.54V116.26C343.045 115.88 343.805 115.32 344.745 115.32ZM350.472 120.92C350.472 122.26 351.492 123.24 353.072 123.24C354.832 123.24 355.752 122.12 355.992 121.74C356.252 122.46 356.832 123.04 358.212 123.14L358.812 121.58C358.812 121.58 357.812 121.56 357.812 120.44V116.62C357.812 114.6 357.132 113.72 354.992 113.72C352.612 113.72 351.072 114.86 351.072 114.86L351.592 116.34C351.592 116.34 352.972 115.3 354.452 115.3C355.912 115.3 355.832 116.3 355.832 117.44C352.452 117.88 350.472 119.02 350.472 120.92ZM353.572 121.68C352.992 121.68 352.512 121.42 352.512 120.78C352.512 119.72 353.532 119.06 355.832 118.72V120.28C355.232 120.98 354.492 121.68 353.572 121.68ZM360.182 118.6C360.182 121.22 362.002 123.24 364.822 123.24C366.982 123.24 368.022 122.08 368.022 122.08L367.382 120.68C367.382 120.68 366.402 121.62 364.962 121.62C363.262 121.62 362.242 120.28 362.242 118.5C362.242 116.66 363.342 115.32 364.982 115.32C366.302 115.32 367.242 116.16 367.242 116.16L368.022 114.68C368.022 114.68 366.922 113.72 364.942 113.72C361.962 113.72 360.182 116.1 360.182 118.6ZM370.021 123H372.001V118.72H372.281L375.881 123H378.421L374.021 117.92L378.141 113.96H375.561L372.281 117.26H372.001V108.7L370.021 109.02V123ZM384.089 118.52C384.089 120.92 385.709 123.24 388.709 123.24C391.969 123.24 393.409 120.5 393.409 118.3C393.409 115.98 391.789 113.72 388.789 113.72C385.549 113.72 384.089 116.26 384.089 118.52ZM386.149 118.34C386.149 116.54 387.209 115.3 388.749 115.3C390.589 115.3 391.349 116.96 391.349 118.56C391.349 120.38 390.289 121.66 388.769 121.66C386.969 121.66 386.149 120.02 386.149 118.34ZM395.548 123H397.528V117.14C398.148 116.54 399.428 115.44 400.428 115.44C401.108 115.44 401.508 115.92 401.508 117.2V123H403.488V116.48C403.488 114.54 402.508 113.72 401.088 113.72C399.428 113.72 398.128 114.82 397.488 115.52V113.8L395.548 114.12V123ZM411.478 120.54C411.478 122.4 412.498 123.24 414.058 123.24C415.658 123.24 416.838 122.28 416.838 122.28L416.338 120.78C416.098 120.92 415.258 121.58 414.498 121.58C413.838 121.58 413.458 121.14 413.458 120.04V115.46H416.318V113.96H413.458V111.4L411.518 111.82V113.88L410.138 114.38V115.46H411.478V120.54ZM418.516 123H420.496V117.4C420.876 116.8 421.696 115.72 422.696 115.72C423.096 115.72 423.496 115.88 423.496 115.88L423.896 113.88C423.896 113.88 423.616 113.72 423.116 113.72C421.736 113.72 420.816 115 420.456 115.62V113.8L418.516 114.12V123ZM424.749 120.92C424.749 122.26 425.769 123.24 427.349 123.24C429.109 123.24 430.029 122.12 430.269 121.74C430.529 122.46 431.109 123.04 432.489 123.14L433.089 121.58C433.089 121.58 432.089 121.56 432.089 120.44V116.62C432.089 114.6 431.409 113.72 429.269 113.72C426.889 113.72 425.349 114.86 425.349 114.86L425.869 116.34C425.869 116.34 427.249 115.3 428.729 115.3C430.189 115.3 430.109 116.3 430.109 117.44C426.729 117.88 424.749 119.02 424.749 120.92ZM427.849 121.68C427.269 121.68 426.789 121.42 426.789 120.78C426.789 119.72 427.809 119.06 430.109 118.72V120.28C429.509 120.98 428.769 121.68 427.849 121.68ZM434.46 118.6C434.46 121.22 436.28 123.24 439.1 123.24C441.26 123.24 442.3 122.08 442.3 122.08L441.66 120.68C441.66 120.68 440.68 121.62 439.24 121.62C437.54 121.62 436.52 120.28 436.52 118.5C436.52 116.66 437.62 115.32 439.26 115.32C440.58 115.32 441.52 116.16 441.52 116.16L442.3 114.68C442.3 114.68 441.2 113.72 439.22 113.72C436.24 113.72 434.46 116.1 434.46 118.6ZM444.298 123H446.278V118.72H446.558L450.158 123H452.698L448.298 117.92L452.418 113.96H449.838L446.558 117.26H446.278V108.7L444.298 109.02V123ZM458.226 120.92C458.226 122.26 459.246 123.24 460.826 123.24C462.586 123.24 463.506 122.12 463.746 121.74C464.006 122.46 464.586 123.04 465.966 123.14L466.566 121.58C466.566 121.58 465.566 121.56 465.566 120.44V116.62C465.566 114.6 464.886 113.72 462.746 113.72C460.366 113.72 458.826 114.86 458.826 114.86L459.346 116.34C459.346 116.34 460.726 115.3 462.206 115.3C463.666 115.3 463.586 116.3 463.586 117.44C460.206 117.88 458.226 119.02 458.226 120.92ZM461.326 121.68C460.746 121.68 460.266 121.42 460.266 120.78C460.266 119.72 461.286 119.06 463.586 118.72V120.28C462.986 120.98 462.246 121.68 461.326 121.68ZM467.656 115.46H469.076V123H471.056V115.46H473.556V113.96H471.056V112.88C471.056 110.76 472.016 110.02 473.076 110.02C474.056 110.02 474.936 110.66 474.936 110.66L475.716 109.14C475.716 109.14 474.676 108.38 473.096 108.38C470.736 108.38 469.076 110.04 469.076 113V113.88L467.656 114.4V115.46ZM475.853 120.54C475.853 122.4 476.873 123.24 478.433 123.24C480.033 123.24 481.213 122.28 481.213 122.28L480.713 120.78C480.473 120.92 479.633 121.58 478.873 121.58C478.213 121.58 477.833 121.14 477.833 120.04V115.46H480.693V113.96H477.833V111.4L475.893 111.82V113.88L474.513 114.38V115.46H475.853V120.54ZM482.331 118.62C482.331 121.04 483.871 123.24 486.891 123.24C489.151 123.24 490.531 121.94 490.531 121.94L489.971 120.5C489.971 120.5 488.711 121.62 487.191 121.62C485.611 121.62 484.611 120.56 484.391 118.92L489.331 118.26L490.471 117.94C490.471 115.2 488.911 113.72 486.751 113.72C484.111 113.72 482.331 115.86 482.331 118.62ZM486.611 115.26C488.191 115.26 488.311 117.1 488.311 117.1L484.391 117.6C484.571 116.28 485.331 115.26 486.611 115.26ZM492.696 123H494.676V117.4C495.056 116.8 495.876 115.72 496.876 115.72C497.276 115.72 497.676 115.88 497.676 115.88L498.076 113.88C498.076 113.88 497.796 113.72 497.296 113.72C495.916 113.72 494.996 115 494.636 115.62V113.8L492.696 114.12V123ZM307.64 147.92C307.64 149.26 308.66 150.24 310.24 150.24C312 150.24 312.92 149.12 313.16 148.74C313.42 149.46 314 150.04 315.38 150.14L315.98 148.58C315.98 148.58 314.98 148.56 314.98 147.44V143.62C314.98 141.6 314.3 140.72 312.16 140.72C309.78 140.72 308.24 141.86 308.24 141.86L308.76 143.34C308.76 143.34 310.14 142.3 311.62 142.3C313.08 142.3 313 143.3 313 144.44C309.62 144.88 307.64 146.02 307.64 147.92ZM310.74 148.68C310.16 148.68 309.68 148.42 309.68 147.78C309.68 146.72 310.7 146.06 313 145.72V147.28C312.4 147.98 311.66 148.68 310.74 148.68ZM322.735 150H324.715V144.4C325.095 143.8 325.915 142.72 326.915 142.72C327.315 142.72 327.715 142.88 327.715 142.88L328.115 140.88C328.115 140.88 327.835 140.72 327.335 140.72C325.955 140.72 325.035 142 324.675 142.62V140.8L322.735 141.12V150ZM328.972 145.62C328.972 148.04 330.512 150.24 333.532 150.24C335.792 150.24 337.172 148.94 337.172 148.94L336.612 147.5C336.612 147.5 335.352 148.62 333.832 148.62C332.252 148.62 331.252 147.56 331.032 145.92L335.972 145.26L337.112 144.94C337.112 142.2 335.552 140.72 333.392 140.72C330.752 140.72 328.972 142.86 328.972 145.62ZM333.252 142.26C334.832 142.26 334.952 144.1 334.952 144.1L331.032 144.6C331.212 143.28 331.972 142.26 333.252 142.26ZM339.377 150H341.357V135.7L339.377 136.02V150ZM343.421 147.92C343.421 149.26 344.441 150.24 346.021 150.24C347.781 150.24 348.701 149.12 348.941 148.74C349.201 149.46 349.781 150.04 351.161 150.14L351.761 148.58C351.761 148.58 350.761 148.56 350.761 147.44V143.62C350.761 141.6 350.081 140.72 347.941 140.72C345.561 140.72 344.021 141.86 344.021 141.86L344.541 143.34C344.541 143.34 345.921 142.3 347.401 142.3C348.861 142.3 348.781 143.3 348.781 144.44C345.401 144.88 343.421 146.02 343.421 147.92ZM346.521 148.68C345.941 148.68 345.461 148.42 345.461 147.78C345.461 146.72 346.481 146.06 348.781 145.72V147.28C348.181 147.98 347.441 148.68 346.521 148.68ZM353.712 154.66L355.692 154.34V149.76C356.072 150.04 356.752 150.24 357.592 150.24C360.472 150.24 362.152 147.88 362.152 145.2C362.152 142.74 360.712 140.72 358.332 140.72C356.912 140.72 356.052 141.46 355.632 142.24V140.8L353.712 141.12V154.66ZM357.992 142.36C359.212 142.36 360.072 143.46 360.072 145.34C360.072 147.5 358.932 148.68 357.232 148.68C356.292 148.68 355.692 148.34 355.692 147.66V143.82C355.952 143.44 356.792 142.36 357.992 142.36ZM363.717 149.44C363.717 149.44 364.837 150.24 366.717 150.24C368.937 150.24 370.237 149.14 370.237 147.5C370.237 144.62 365.897 144.76 365.897 143.18C365.897 142.66 366.337 142.28 367.337 142.28C368.497 142.28 369.537 142.84 369.537 142.84L369.997 141.22C369.997 141.22 368.997 140.72 367.417 140.72C364.917 140.72 363.917 141.94 363.917 143.34C363.917 146.18 368.257 146.06 368.257 147.68C368.257 148.26 367.757 148.68 366.697 148.68C365.237 148.68 364.137 147.76 364.137 147.76L363.717 149.44ZM371.804 145.62C371.804 148.04 373.344 150.24 376.364 150.24C378.624 150.24 380.004 148.94 380.004 148.94L379.444 147.5C379.444 147.5 378.184 148.62 376.664 148.62C375.084 148.62 374.084 147.56 373.864 145.92L378.804 145.26L379.944 144.94C379.944 142.2 378.384 140.72 376.224 140.72C373.584 140.72 371.804 142.86 371.804 145.62ZM376.084 142.26C377.664 142.26 377.784 144.1 377.784 144.1L373.864 144.6C374.044 143.28 374.804 142.26 376.084 142.26Z" fill="#333333"/>
<path d="M804.82 96H806.88V90.64H808.94L812.5 96H814.94L811.02 90.16C812.36 89.54 813.58 88.28 813.58 86.46C813.58 84.44 812.18 82.66 808.74 82.66H804.82V96ZM806.88 88.92V84.38H808.4C810.62 84.38 811.4 85.4 811.4 86.6C811.4 88.08 810.2 88.92 808.7 88.92H806.88ZM815.655 91.62C815.655 94.04 817.195 96.24 820.215 96.24C822.475 96.24 823.855 94.94 823.855 94.94L823.295 93.5C823.295 93.5 822.035 94.62 820.515 94.62C818.935 94.62 817.935 93.56 817.715 91.92L822.655 91.26L823.795 90.94C823.795 88.2 822.235 86.72 820.075 86.72C817.435 86.72 815.655 88.86 815.655 91.62ZM819.935 88.26C821.515 88.26 821.635 90.1 821.635 90.1L817.715 90.6C817.895 89.28 818.655 88.26 819.935 88.26ZM825.3 93.92C825.3 95.26 826.32 96.24 827.9 96.24C829.66 96.24 830.58 95.12 830.82 94.74C831.08 95.46 831.66 96.04 833.04 96.14L833.64 94.58C833.64 94.58 832.64 94.56 832.64 93.44V89.62C832.64 87.6 831.96 86.72 829.82 86.72C827.44 86.72 825.9 87.86 825.9 87.86L826.42 89.34C826.42 89.34 827.8 88.3 829.28 88.3C830.74 88.3 830.66 89.3 830.66 90.44C827.28 90.88 825.3 92.02 825.3 93.92ZM828.4 94.68C827.82 94.68 827.34 94.42 827.34 93.78C827.34 92.72 828.36 92.06 830.66 91.72V93.28C830.06 93.98 829.32 94.68 828.4 94.68ZM835.63 96H837.61V81.7L835.63 82.02V96ZM841.435 84.8C842.155 84.8 842.695 84.28 842.695 83.58C842.695 82.88 842.155 82.36 841.435 82.36C840.735 82.36 840.195 82.88 840.195 83.58C840.195 84.28 840.735 84.8 841.435 84.8ZM840.435 96H842.415V86.96H840.435V96ZM844.62 96H851.88V94.4H847.12L851.72 88.16V86.96H844.78V88.56H849.12L844.62 94.8V96ZM853.37 91.62C853.37 94.04 854.91 96.24 857.93 96.24C860.19 96.24 861.57 94.94 861.57 94.94L861.01 93.5C861.01 93.5 859.75 94.62 858.23 94.62C856.65 94.62 855.65 93.56 855.43 91.92L860.37 91.26L861.51 90.94C861.51 88.2 859.95 86.72 857.79 86.72C855.15 86.72 853.37 88.86 853.37 91.62ZM857.65 88.26C859.23 88.26 859.35 90.1 859.35 90.1L855.43 90.6C855.61 89.28 856.37 88.26 857.65 88.26ZM869.06 93.54C869.06 95.4 870.08 96.24 871.64 96.24C873.24 96.24 874.42 95.28 874.42 95.28L873.92 93.78C873.68 93.92 872.84 94.58 872.08 94.58C871.42 94.58 871.04 94.14 871.04 93.04V88.46H873.9V86.96H871.04V84.4L869.1 84.82V86.88L867.72 87.38V88.46H869.06V93.54ZM876.138 96H878.118V90.18C878.718 89.58 880.018 88.44 881.018 88.44C881.698 88.44 882.098 88.92 882.098 90.2V96H884.078V89.48C884.078 87.54 883.098 86.72 881.658 86.72C879.998 86.72 878.718 87.84 878.118 88.48V81.7L876.138 82.02V96ZM886.023 93.92C886.023 95.26 887.043 96.24 888.623 96.24C890.383 96.24 891.303 95.12 891.543 94.74C891.803 95.46 892.383 96.04 893.763 96.14L894.363 94.58C894.363 94.58 893.363 94.56 893.363 93.44V89.62C893.363 87.6 892.683 86.72 890.543 86.72C888.163 86.72 886.623 87.86 886.623 87.86L887.143 89.34C887.143 89.34 888.523 88.3 890.003 88.3C891.463 88.3 891.383 89.3 891.383 90.44C888.003 90.88 886.023 92.02 886.023 93.92ZM889.123 94.68C888.543 94.68 888.063 94.42 888.063 93.78C888.063 92.72 889.083 92.06 891.383 91.72V93.28C890.783 93.98 890.043 94.68 889.123 94.68ZM896.755 93.54C896.755 95.4 897.775 96.24 899.335 96.24C900.935 96.24 902.115 95.28 902.115 95.28L901.615 93.78C901.375 93.92 900.535 94.58 899.775 94.58C899.115 94.58 898.735 94.14 898.735 93.04V88.46H901.595V86.96H898.735V84.4L896.795 84.82V86.88L895.415 87.38V88.46H896.755V93.54ZM909.058 96H911.118V82.66H909.058V96ZM918.546 91.6C918.546 94.22 920.366 96.24 923.186 96.24C925.346 96.24 926.386 95.08 926.386 95.08L925.746 93.68C925.746 93.68 924.766 94.62 923.326 94.62C921.626 94.62 920.606 93.28 920.606 91.5C920.606 89.66 921.706 88.32 923.346 88.32C924.666 88.32 925.606 89.16 925.606 89.16L926.386 87.68C926.386 87.68 925.286 86.72 923.306 86.72C920.326 86.72 918.546 89.1 918.546 91.6ZM927.624 93.92C927.624 95.26 928.644 96.24 930.224 96.24C931.984 96.24 932.904 95.12 933.144 94.74C933.404 95.46 933.984 96.04 935.364 96.14L935.964 94.58C935.964 94.58 934.964 94.56 934.964 93.44V89.62C934.964 87.6 934.284 86.72 932.144 86.72C929.764 86.72 928.224 87.86 928.224 87.86L928.744 89.34C928.744 89.34 930.124 88.3 931.604 88.3C933.064 88.3 932.984 89.3 932.984 90.44C929.604 90.88 927.624 92.02 927.624 93.92ZM930.724 94.68C930.144 94.68 929.664 94.42 929.664 93.78C929.664 92.72 930.684 92.06 932.984 91.72V93.28C932.384 93.98 931.644 94.68 930.724 94.68ZM937.915 96H939.895V90.14C940.515 89.54 941.795 88.44 942.795 88.44C943.475 88.44 943.875 88.92 943.875 90.2V96H945.855V89.48C945.855 87.54 944.875 86.72 943.455 86.72C941.795 86.72 940.495 87.82 939.855 88.52V86.8L937.915 87.12V96ZM953.365 96H955.345V81.7L953.365 82.02V96ZM959.17 84.8C959.89 84.8 960.43 84.28 960.43 83.58C960.43 82.88 959.89 82.36 959.17 82.36C958.47 82.36 957.93 82.88 957.93 83.58C957.93 84.28 958.47 84.8 959.17 84.8ZM958.17 96H960.15V86.96H958.17V96ZM965.114 96.08H966.954L970.674 86.96H968.654L966.114 93.52L963.914 86.96H961.834L965.114 96.08ZM971.593 91.62C971.593 94.04 973.133 96.24 976.153 96.24C978.413 96.24 979.793 94.94 979.793 94.94L979.233 93.5C979.233 93.5 977.973 94.62 976.453 94.62C974.873 94.62 973.873 93.56 973.653 91.92L978.593 91.26L979.733 90.94C979.733 88.2 978.173 86.72 976.013 86.72C973.373 86.72 971.593 88.86 971.593 91.62ZM975.873 88.26C977.453 88.26 977.573 90.1 977.573 90.1L973.653 90.6C973.833 89.28 974.593 88.26 975.873 88.26ZM986.042 93.92C986.042 95.26 987.062 96.24 988.642 96.24C990.402 96.24 991.322 95.12 991.562 94.74C991.822 95.46 992.402 96.04 993.782 96.14L994.382 94.58C994.382 94.58 993.382 94.56 993.382 93.44V89.62C993.382 87.6 992.702 86.72 990.562 86.72C988.182 86.72 986.642 87.86 986.642 87.86L987.162 89.34C987.162 89.34 988.542 88.3 990.022 88.3C991.482 88.3 991.402 89.3 991.402 90.44C988.022 90.88 986.042 92.02 986.042 93.92ZM989.142 94.68C988.562 94.68 988.082 94.42 988.082 93.78C988.082 92.72 989.102 92.06 991.402 91.72V93.28C990.802 93.98 990.062 94.68 989.142 94.68ZM803.5 115.46H804.92V123H806.9V115.46H809.4V113.96H806.9V112.88C806.9 110.76 807.86 110.02 808.92 110.02C809.9 110.02 810.78 110.66 810.78 110.66L811.56 109.14C811.56 109.14 810.52 108.38 808.94 108.38C806.58 108.38 804.92 110.04 804.92 113V113.88L803.5 114.4V115.46ZM811.116 120.52C811.116 122.46 812.116 123.24 813.576 123.24C815.236 123.24 816.496 122.18 817.076 121.56C817.176 122.22 817.376 123.16 817.376 123.16L819.296 122.98C819.296 122.98 818.896 121.32 818.896 120.22V113.96H816.916V120.04C816.356 120.56 815.236 121.52 814.216 121.52C813.476 121.52 813.096 121.02 813.096 119.76V113.96H811.116V120.52ZM821.763 123H823.743V108.7L821.763 109.02V123ZM826.568 123H828.548V108.7L826.568 109.02V123ZM836.177 123H838.157V108.7L836.177 109.02V123ZM841.982 111.8C842.702 111.8 843.242 111.28 843.242 110.58C843.242 109.88 842.702 109.36 841.982 109.36C841.282 109.36 840.742 109.88 840.742 110.58C840.742 111.28 841.282 111.8 841.982 111.8ZM840.982 123H842.962V113.96H840.982V123ZM844.887 115.46H846.307V123H848.287V115.46H850.787V113.96H848.287V112.88C848.287 110.76 849.247 110.02 850.307 110.02C851.287 110.02 852.167 110.66 852.167 110.66L852.947 109.14C852.947 109.14 851.907 108.38 850.327 108.38C847.967 108.38 846.307 110.04 846.307 113V113.88L844.887 114.4V115.46ZM851.866 118.62C851.866 121.04 853.406 123.24 856.426 123.24C858.686 123.24 860.066 121.94 860.066 121.94L859.506 120.5C859.506 120.5 858.246 121.62 856.726 121.62C855.146 121.62 854.146 120.56 853.926 118.92L858.866 118.26L860.006 117.94C860.006 115.2 858.446 113.72 856.286 113.72C853.646 113.72 851.866 115.86 851.866 118.62ZM856.146 115.26C857.726 115.26 857.846 117.1 857.846 117.1L853.926 117.6C854.106 116.28 854.866 115.26 856.146 115.26ZM866.476 118.62C866.476 121.04 868.016 123.24 871.036 123.24C873.296 123.24 874.676 121.94 874.676 121.94L874.116 120.5C874.116 120.5 872.856 121.62 871.336 121.62C869.756 121.62 868.756 120.56 868.536 118.92L873.476 118.26L874.616 117.94C874.616 115.2 873.056 113.72 870.896 113.72C868.256 113.72 866.476 115.86 866.476 118.62ZM870.756 115.26C872.336 115.26 872.456 117.1 872.456 117.1L868.536 117.6C868.716 116.28 869.476 115.26 870.756 115.26ZM879.02 123.08H880.86L884.58 113.96H882.56L880.02 120.52L877.82 113.96H875.74L879.02 123.08ZM885.499 118.62C885.499 121.04 887.039 123.24 890.059 123.24C892.319 123.24 893.699 121.94 893.699 121.94L893.139 120.5C893.139 120.5 891.879 121.62 890.359 121.62C888.779 121.62 887.779 120.56 887.559 118.92L892.499 118.26L893.639 117.94C893.639 115.2 892.079 113.72 889.919 113.72C887.279 113.72 885.499 115.86 885.499 118.62ZM889.779 115.26C891.359 115.26 891.479 117.1 891.479 117.1L887.559 117.6C887.739 116.28 888.499 115.26 889.779 115.26ZM895.864 123H897.844V117.14C898.464 116.54 899.744 115.44 900.744 115.44C901.424 115.44 901.824 115.92 901.824 117.2V123H903.804V116.48C903.804 114.54 902.824 113.72 901.404 113.72C899.744 113.72 898.444 114.82 897.804 115.52V113.8L895.864 114.12V123ZM913.174 123.08H915.094L917.414 116.64L919.494 123.08H921.434L924.674 113.96H922.654L920.474 120.76L918.354 113.96H916.634L914.294 120.8L912.314 113.96H910.274L913.174 123.08ZM927.373 111.8C928.093 111.8 928.633 111.28 928.633 110.58C928.633 109.88 928.093 109.36 927.373 109.36C926.673 109.36 926.133 109.88 926.133 110.58C926.133 111.28 926.673 111.8 927.373 111.8ZM926.373 123H928.353V113.96H926.373V123ZM931.657 120.54C931.657 122.4 932.677 123.24 934.237 123.24C935.837 123.24 937.017 122.28 937.017 122.28L936.517 120.78C936.277 120.92 935.437 121.58 934.677 121.58C934.017 121.58 933.637 121.14 933.637 120.04V115.46H936.497V113.96H933.637V111.4L931.697 111.82V113.88L930.317 114.38V115.46H931.657V120.54ZM938.736 123H940.716V117.18C941.316 116.58 942.616 115.44 943.616 115.44C944.296 115.44 944.696 115.92 944.696 117.2V123H946.676V116.48C946.676 114.54 945.696 113.72 944.256 113.72C942.596 113.72 941.316 114.84 940.716 115.48V108.7L938.736 109.02V123ZM953.425 120.92C953.425 122.26 954.445 123.24 956.025 123.24C957.785 123.24 958.705 122.12 958.945 121.74C959.205 122.46 959.785 123.04 961.165 123.14L961.765 121.58C961.765 121.58 960.765 121.56 960.765 120.44V116.62C960.765 114.6 960.085 113.72 957.945 113.72C955.565 113.72 954.025 114.86 954.025 114.86L954.545 116.34C954.545 116.34 955.925 115.3 957.405 115.3C958.865 115.3 958.785 116.3 958.785 117.44C955.405 117.88 953.425 119.02 953.425 120.92ZM956.525 121.68C955.945 121.68 955.465 121.42 955.465 120.78C955.465 119.72 956.485 119.06 958.785 118.72V120.28C958.185 120.98 957.445 121.68 956.525 121.68ZM803.78 145.6C803.78 148.22 805.6 150.24 808.42 150.24C810.58 150.24 811.62 149.08 811.62 149.08L810.98 147.68C810.98 147.68 810 148.62 808.56 148.62C806.86 148.62 805.84 147.28 805.84 145.5C805.84 143.66 806.94 142.32 808.58 142.32C809.9 142.32 810.84 143.16 810.84 143.16L811.62 141.68C811.62 141.68 810.52 140.72 808.54 140.72C805.56 140.72 803.78 143.1 803.78 145.6ZM813.619 150H815.599V144.18C816.199 143.58 817.499 142.44 818.499 142.44C819.179 142.44 819.579 142.92 819.579 144.2V150H821.559V143.48C821.559 141.54 820.579 140.72 819.139 140.72C817.479 140.72 816.199 141.84 815.599 142.48V135.7L813.619 136.02V150ZM824.223 150H826.203V144.4C826.583 143.8 827.403 142.72 828.403 142.72C828.803 142.72 829.203 142.88 829.203 142.88L829.603 140.88C829.603 140.88 829.323 140.72 828.823 140.72C827.443 140.72 826.523 142 826.163 142.62V140.8L824.223 141.12V150ZM830.44 145.52C830.44 147.92 832.06 150.24 835.06 150.24C838.32 150.24 839.76 147.5 839.76 145.3C839.76 142.98 838.14 140.72 835.14 140.72C831.9 140.72 830.44 143.26 830.44 145.52ZM832.5 145.34C832.5 143.54 833.56 142.3 835.1 142.3C836.94 142.3 837.7 143.96 837.7 145.56C837.7 147.38 836.64 148.66 835.12 148.66C833.32 148.66 832.5 147.02 832.5 145.34ZM841.899 150H843.879V144.14C844.499 143.54 845.779 142.44 846.779 142.44C847.459 142.44 847.859 142.92 847.859 144.2V150H849.839V143.48C849.839 141.54 848.859 140.72 847.439 140.72C845.779 140.72 844.479 141.82 843.839 142.52V140.8L841.899 141.12V150ZM853.545 138.8C854.265 138.8 854.805 138.28 854.805 137.58C854.805 136.88 854.265 136.36 853.545 136.36C852.845 136.36 852.305 136.88 852.305 137.58C852.305 138.28 852.845 138.8 853.545 138.8ZM852.545 150H854.525V140.96H852.545V150ZM856.729 145.6C856.729 148.22 858.549 150.24 861.369 150.24C863.529 150.24 864.569 149.08 864.569 149.08L863.929 147.68C863.929 147.68 862.949 148.62 861.509 148.62C859.809 148.62 858.789 147.28 858.789 145.5C858.789 143.66 859.889 142.32 861.529 142.32C862.849 142.32 863.789 143.16 863.789 143.16L864.569 141.68C864.569 141.68 863.469 140.72 861.489 140.72C858.509 140.72 856.729 143.1 856.729 145.6ZM872.373 138.8C873.093 138.8 873.633 138.28 873.633 137.58C873.633 136.88 873.093 136.36 872.373 136.36C871.673 136.36 871.133 136.88 871.133 137.58C871.133 138.28 871.673 138.8 872.373 138.8ZM871.373 150H873.353V140.96H871.373V150ZM876.177 150H878.157V135.7L876.177 136.02V150ZM880.982 150H882.962V135.7L880.982 136.02V150ZM885.747 150H887.727V144.14C888.347 143.54 889.627 142.44 890.627 142.44C891.307 142.44 891.707 142.92 891.707 144.2V150H893.687V143.48C893.687 141.54 892.707 140.72 891.287 140.72C889.627 140.72 888.327 141.82 887.687 142.52V140.8L885.747 141.12V150ZM895.792 145.62C895.792 148.04 897.332 150.24 900.352 150.24C902.612 150.24 903.992 148.94 903.992 148.94L903.432 147.5C903.432 147.5 902.172 148.62 900.652 148.62C899.072 148.62 898.072 147.56 897.852 145.92L902.792 145.26L903.932 144.94C903.932 142.2 902.372 140.72 900.212 140.72C897.572 140.72 895.792 142.86 895.792 145.62ZM900.072 142.26C901.652 142.26 901.772 144.1 901.772 144.1L897.852 144.6C898.032 143.28 898.792 142.26 900.072 142.26ZM905.557 149.44C905.557 149.44 906.677 150.24 908.557 150.24C910.777 150.24 912.077 149.14 912.077 147.5C912.077 144.62 907.737 144.76 907.737 143.18C907.737 142.66 908.177 142.28 909.177 142.28C910.337 142.28 911.377 142.84 911.377 142.84L911.837 141.22C911.837 141.22 910.837 140.72 909.257 140.72C906.757 140.72 905.757 141.94 905.757 143.34C905.757 146.18 910.097 146.06 910.097 147.68C910.097 148.26 909.597 148.68 908.537 148.68C907.077 148.68 905.977 147.76 905.977 147.76L905.557 149.44ZM913.604 149.44C913.604 149.44 914.724 150.24 916.604 150.24C918.824 150.24 920.124 149.14 920.124 147.5C920.124 144.62 915.784 144.76 915.784 143.18C915.784 142.66 916.224 142.28 917.224 142.28C918.384 142.28 919.424 142.84 919.424 142.84L919.884 141.22C919.884 141.22 918.884 140.72 917.304 140.72C914.804 140.72 913.804 141.94 913.804 143.34C913.804 146.18 918.144 146.06 918.144 147.68C918.144 148.26 917.644 148.68 916.584 148.68C915.124 148.68 914.024 147.76 914.024 147.76L913.604 149.44ZM921.991 148.9C921.991 149.64 922.591 150.24 923.331 150.24C924.071 150.24 924.691 149.64 924.691 148.9C924.691 148.14 924.071 147.54 923.331 147.54C922.591 147.54 921.991 148.14 921.991 148.9Z" fill="#333333"/>
<path d="M73 382.256V177.031H282.5V382.256" stroke="#BDBDBD" stroke-width="4"/>
<rect x="81.5508" y="187.721" width="41.6862" height="160.332" fill="#EFE8DF"/>
<rect x="132" y="188" width="41" height="128" fill="#EFE8DF"/>
<rect x="232.262" y="187.721" width="41.6862" height="143.23" fill="#EFE8DF"/>
<rect x="182.027" y="187.721" width="41.6862" height="166.745" fill="#EFE8DF"/>
<path d="M83.82 96H88.42C91.1 96 92.98 94.48 92.98 92.12C92.98 90 91.44 89.12 90.66 88.8C91.36 88.26 92.26 87.28 92.26 85.86C92.26 84.32 91.18 82.66 87.74 82.66H83.82V96ZM85.88 94.28V90.02H88.12C89.98 90.02 90.8 90.92 90.8 92.16C90.8 93.42 89.98 94.28 88.12 94.28H85.88ZM85.88 84.38H87.44C89.52 84.38 90.08 85.2 90.08 86.2C90.08 87.64 88.8 88.32 88.8 88.32H85.88V84.38ZM94.675 91.62C94.675 94.04 96.215 96.24 99.235 96.24C101.495 96.24 102.875 94.94 102.875 94.94L102.315 93.5C102.315 93.5 101.055 94.62 99.535 94.62C97.955 94.62 96.955 93.56 96.735 91.92L101.675 91.26L102.815 90.94C102.815 88.2 101.255 86.72 99.095 86.72C96.455 86.72 94.675 88.86 94.675 91.62ZM98.955 88.26C100.535 88.26 100.655 90.1 100.655 90.1L96.735 90.6C96.915 89.28 97.675 88.26 98.955 88.26ZM105.08 96H107.06V81.7L105.08 82.02V96ZM110.884 84.8C111.604 84.8 112.144 84.28 112.144 83.58C112.144 82.88 111.604 82.36 110.884 82.36C110.184 82.36 109.644 82.88 109.644 83.58C109.644 84.28 110.184 84.8 110.884 84.8ZM109.884 96H111.864V86.96H109.884V96ZM114.089 91.62C114.089 94.04 115.629 96.24 118.649 96.24C120.909 96.24 122.289 94.94 122.289 94.94L121.729 93.5C121.729 93.5 120.469 94.62 118.949 94.62C117.369 94.62 116.369 93.56 116.149 91.92L121.089 91.26L122.229 90.94C122.229 88.2 120.669 86.72 118.509 86.72C115.869 86.72 114.089 88.86 114.089 91.62ZM118.369 88.26C119.949 88.26 120.069 90.1 120.069 90.1L116.149 90.6C116.329 89.28 117.089 88.26 118.369 88.26ZM126.634 96.08H128.474L132.194 86.96H130.174L127.634 93.52L125.434 86.96H123.354L126.634 96.08ZM133.113 91.62C133.113 94.04 134.653 96.24 137.673 96.24C139.933 96.24 141.313 94.94 141.313 94.94L140.753 93.5C140.753 93.5 139.493 94.62 137.973 94.62C136.393 94.62 135.393 93.56 135.173 91.92L140.113 91.26L141.253 90.94C141.253 88.2 139.693 86.72 137.533 86.72C134.893 86.72 133.113 88.86 133.113 91.62ZM137.393 88.26C138.973 88.26 139.093 90.1 139.093 90.1L135.173 90.6C135.353 89.28 136.113 88.26 137.393 88.26ZM148.802 93.54C148.802 95.4 149.822 96.24 151.382 96.24C152.982 96.24 154.162 95.28 154.162 95.28L153.662 93.78C153.422 93.92 152.582 94.58 151.822 94.58C151.162 94.58 150.782 94.14 150.782 93.04V88.46H153.642V86.96H150.782V84.4L148.842 84.82V86.88L147.462 87.38V88.46H148.802V93.54ZM155.88 96H157.86V90.18C158.46 89.58 159.76 88.44 160.76 88.44C161.44 88.44 161.84 88.92 161.84 90.2V96H163.82V89.48C163.82 87.54 162.84 86.72 161.4 86.72C159.74 86.72 158.46 87.84 157.86 88.48V81.7L155.88 82.02V96ZM165.765 93.92C165.765 95.26 166.785 96.24 168.365 96.24C170.125 96.24 171.045 95.12 171.285 94.74C171.545 95.46 172.125 96.04 173.505 96.14L174.105 94.58C174.105 94.58 173.105 94.56 173.105 93.44V89.62C173.105 87.6 172.425 86.72 170.285 86.72C167.905 86.72 166.365 87.86 166.365 87.86L166.885 89.34C166.885 89.34 168.265 88.3 169.745 88.3C171.205 88.3 171.125 89.3 171.125 90.44C167.745 90.88 165.765 92.02 165.765 93.92ZM168.865 94.68C168.285 94.68 167.805 94.42 167.805 93.78C167.805 92.72 168.825 92.06 171.125 91.72V93.28C170.525 93.98 169.785 94.68 168.865 94.68ZM176.497 93.54C176.497 95.4 177.517 96.24 179.077 96.24C180.677 96.24 181.857 95.28 181.857 95.28L181.357 93.78C181.117 93.92 180.277 94.58 179.517 94.58C178.857 94.58 178.477 94.14 178.477 93.04V88.46H181.337V86.96H178.477V84.4L176.537 84.82V86.88L175.157 87.38V88.46H176.497V93.54ZM192.44 87.04L194.18 86.06C193.24 85.06 192.98 84.5 192.98 83.86C192.98 83.16 193.32 82.54 194.08 81.96L193.32 81.16C192.04 82.14 191.38 83.34 191.38 84.54C191.38 85.4 191.68 86.22 192.44 87.04ZM188.94 87.04L190.68 86.06C189.74 85.06 189.48 84.5 189.48 83.86C189.48 83.16 189.82 82.54 190.58 81.96L189.82 81.16C188.54 82.14 187.88 83.34 187.88 84.54C187.88 85.4 188.18 86.22 188.94 87.04ZM196.633 96H198.693V82.66H196.633V96ZM206.12 91.6C206.12 94.22 207.94 96.24 210.76 96.24C212.92 96.24 213.96 95.08 213.96 95.08L213.32 93.68C213.32 93.68 212.34 94.62 210.9 94.62C209.2 94.62 208.18 93.28 208.18 91.5C208.18 89.66 209.28 88.32 210.92 88.32C212.24 88.32 213.18 89.16 213.18 89.16L213.96 87.68C213.96 87.68 212.86 86.72 210.88 86.72C207.9 86.72 206.12 89.1 206.12 91.6ZM215.199 93.92C215.199 95.26 216.219 96.24 217.799 96.24C219.559 96.24 220.479 95.12 220.719 94.74C220.979 95.46 221.559 96.04 222.939 96.14L223.539 94.58C223.539 94.58 222.539 94.56 222.539 93.44V89.62C222.539 87.6 221.859 86.72 219.719 86.72C217.339 86.72 215.799 87.86 215.799 87.86L216.319 89.34C216.319 89.34 217.699 88.3 219.179 88.3C220.639 88.3 220.559 89.3 220.559 90.44C217.179 90.88 215.199 92.02 215.199 93.92ZM218.299 94.68C217.719 94.68 217.239 94.42 217.239 93.78C217.239 92.72 218.259 92.06 220.559 91.72V93.28C219.959 93.98 219.219 94.68 218.299 94.68ZM225.489 96H227.469V90.14C228.089 89.54 229.369 88.44 230.369 88.44C231.049 88.44 231.449 88.92 231.449 90.2V96H233.429V89.48C233.429 87.54 232.449 86.72 231.029 86.72C229.369 86.72 228.069 87.82 227.429 88.52V86.8L225.489 87.12V96ZM240.339 91.76C240.339 94.24 241.859 96.24 244.219 96.24C245.659 96.24 246.579 95.54 247.059 94.76C247.159 95.4 247.339 96.14 247.339 96.14L249.239 96C249.239 96 248.839 94.32 248.839 93.22V81.7L246.859 82.02V87.02C246.599 86.92 245.999 86.72 245.179 86.72C241.979 86.72 240.339 89.18 240.339 91.76ZM244.559 94.66C243.279 94.66 242.419 93.52 242.419 91.64C242.419 89.48 243.559 88.28 245.279 88.28C246.099 88.28 246.819 88.58 246.859 89.48V93.2C246.579 93.62 245.779 94.66 244.559 94.66ZM251.061 91.52C251.061 93.92 252.681 96.24 255.681 96.24C258.941 96.24 260.381 93.5 260.381 91.3C260.381 88.98 258.761 86.72 255.761 86.72C252.521 86.72 251.061 89.26 251.061 91.52ZM253.121 91.34C253.121 89.54 254.181 88.3 255.721 88.3C257.561 88.3 258.321 89.96 258.321 91.56C258.321 93.38 257.261 94.66 255.741 94.66C253.941 94.66 253.121 93.02 253.121 91.34ZM83.88 120.54C83.88 122.4 84.9 123.24 86.46 123.24C88.06 123.24 89.24 122.28 89.24 122.28L88.74 120.78C88.5 120.92 87.66 121.58 86.9 121.58C86.24 121.58 85.86 121.14 85.86 120.04V115.46H88.72V113.96H85.86V111.4L83.92 111.82V113.88L82.54 114.38V115.46H83.88V120.54ZM90.9586 123H92.9386V117.18C93.5386 116.58 94.8386 115.44 95.8386 115.44C96.5186 115.44 96.9186 115.92 96.9186 117.2V123H98.8986V116.48C98.8986 114.54 97.9186 113.72 96.4786 113.72C94.8186 113.72 93.5386 114.84 92.9386 115.48V108.7L90.9586 109.02V123ZM102.603 111.8C103.323 111.8 103.863 111.28 103.863 110.58C103.863 109.88 103.323 109.36 102.603 109.36C101.903 109.36 101.363 109.88 101.363 110.58C101.363 111.28 101.903 111.8 102.603 111.8ZM101.603 123H103.583V113.96H101.603V123ZM105.768 122.44C105.768 122.44 106.888 123.24 108.768 123.24C110.988 123.24 112.288 122.14 112.288 120.5C112.288 117.62 107.948 117.76 107.948 116.18C107.948 115.66 108.388 115.28 109.388 115.28C110.548 115.28 111.588 115.84 111.588 115.84L112.048 114.22C112.048 114.22 111.048 113.72 109.468 113.72C106.968 113.72 105.968 114.94 105.968 116.34C105.968 119.18 110.308 119.06 110.308 120.68C110.308 121.26 109.808 121.68 108.748 121.68C107.288 121.68 106.188 120.76 106.188 120.76L105.768 122.44ZM118.055 114.04C119.335 113.04 119.995 111.86 119.995 110.64C119.995 109.78 119.695 108.96 118.935 108.16L117.195 109.12C118.135 110.12 118.395 110.68 118.395 111.32C118.395 112.02 118.055 112.64 117.295 113.22L118.055 114.04ZM114.555 114.04C115.835 113.04 116.495 111.86 116.495 110.64C116.495 109.78 116.195 108.96 115.435 108.16L113.675 109.12C114.635 110.12 114.895 110.68 114.895 111.32C114.895 112.02 114.555 112.64 113.795 113.22L114.555 114.04ZM128.834 123.08H130.754L133.074 116.64L135.154 123.08H137.094L140.334 113.96H138.314L136.134 120.76L134.014 113.96H132.294L129.954 120.8L127.974 113.96H125.934L128.834 123.08ZM143.033 111.8C143.753 111.8 144.293 111.28 144.293 110.58C144.293 109.88 143.753 109.36 143.033 109.36C142.333 109.36 141.793 109.88 141.793 110.58C141.793 111.28 142.333 111.8 143.033 111.8ZM142.033 123H144.013V113.96H142.033V123ZM147.318 120.54C147.318 122.4 148.338 123.24 149.898 123.24C151.498 123.24 152.678 122.28 152.678 122.28L152.178 120.78C151.938 120.92 151.098 121.58 150.338 121.58C149.678 121.58 149.298 121.14 149.298 120.04V115.46H152.158V113.96H149.298V111.4L147.358 111.82V113.88L145.978 114.38V115.46H147.318V120.54ZM154.396 123H156.376V117.18C156.976 116.58 158.276 115.44 159.276 115.44C159.956 115.44 160.356 115.92 160.356 117.2V123H162.336V116.48C162.336 114.54 161.356 113.72 159.916 113.72C158.256 113.72 156.976 114.84 156.376 115.48V108.7L154.396 109.02V123ZM170.325 120.54C170.325 122.4 171.345 123.24 172.905 123.24C174.505 123.24 175.685 122.28 175.685 122.28L175.185 120.78C174.945 120.92 174.105 121.58 173.345 121.58C172.685 121.58 172.305 121.14 172.305 120.04V115.46H175.165V113.96H172.305V111.4L170.365 111.82V113.88L168.985 114.38V115.46H170.325V120.54ZM177.404 123H179.384V117.18C179.984 116.58 181.284 115.44 182.284 115.44C182.964 115.44 183.364 115.92 183.364 117.2V123H185.344V116.48C185.344 114.54 184.364 113.72 182.924 113.72C181.264 113.72 179.984 114.84 179.384 115.48V108.7L177.404 109.02V123ZM187.448 118.62C187.448 121.04 188.988 123.24 192.008 123.24C194.268 123.24 195.648 121.94 195.648 121.94L195.088 120.5C195.088 120.5 193.828 121.62 192.308 121.62C190.728 121.62 189.728 120.56 189.508 118.92L194.448 118.26L195.588 117.94C195.588 115.2 194.028 113.72 191.868 113.72C189.228 113.72 187.448 115.86 187.448 118.62ZM191.728 115.26C193.308 115.26 193.428 117.1 193.428 117.1L189.508 117.6C189.688 116.28 190.448 115.26 191.728 115.26ZM202.618 123H204.598V117.4C204.978 116.8 205.798 115.72 206.798 115.72C207.198 115.72 207.598 115.88 207.598 115.88L207.998 113.88C207.998 113.88 207.718 113.72 207.218 113.72C205.838 113.72 204.918 115 204.558 115.62V113.8L202.618 114.12V123ZM210.611 111.8C211.331 111.8 211.871 111.28 211.871 110.58C211.871 109.88 211.331 109.36 210.611 109.36C209.911 109.36 209.371 109.88 209.371 110.58C209.371 111.28 209.911 111.8 210.611 111.8ZM209.611 123H211.591V113.96H209.611V123ZM214.356 121.4C214.356 122.02 214.936 122.38 215.836 122.68C214.876 123.18 213.536 124.04 213.536 125.36C213.536 126.94 215.496 127.74 217.496 127.74C220.216 127.74 222.436 126.2 222.436 124.38C222.436 122.72 220.616 122.22 219.016 121.82C217.136 121.36 216.256 121.18 216.256 120.82C216.256 120.6 216.576 120.36 216.996 120.08C217.196 120.12 217.416 120.12 217.656 120.12C219.596 120.12 221.656 119.06 221.656 117.08C221.656 116.28 221.276 115.74 220.996 115.42C221.236 115.46 221.516 115.48 221.736 115.48H222.816L222.676 113.9C222.676 113.9 222.076 114.1 221.476 114.1H220.436C219.436 114.1 218.916 113.72 217.816 113.72C215.796 113.72 213.976 114.86 213.976 116.88C213.976 118.1 214.636 119.16 215.776 119.72C215.036 120.14 214.356 120.74 214.356 121.4ZM217.876 123.2C219.556 123.64 220.496 123.9 220.496 124.68C220.496 125.58 219.216 126.3 217.616 126.3C216.476 126.3 215.316 125.94 215.316 125.04C215.316 124.14 216.416 123.54 217.276 123.06C217.476 123.1 217.676 123.14 217.876 123.2ZM217.796 118.72C216.516 118.72 215.916 117.8 215.916 116.94C215.916 116 216.596 115.12 217.796 115.12C219.076 115.12 219.696 116.16 219.696 117.04C219.696 118.06 218.896 118.72 217.796 118.72ZM224.533 123H226.513V117.18C227.113 116.58 228.413 115.44 229.413 115.44C230.093 115.44 230.493 115.92 230.493 117.2V123H232.473V116.48C232.473 114.54 231.493 113.72 230.053 113.72C228.393 113.72 227.113 114.84 226.513 115.48V108.7L224.533 109.02V123ZM235.657 120.54C235.657 122.4 236.677 123.24 238.237 123.24C239.837 123.24 241.017 122.28 241.017 122.28L240.517 120.78C240.277 120.92 239.437 121.58 238.677 121.58C238.017 121.58 237.637 121.14 237.637 120.04V115.46H240.497V113.96H237.637V111.4L235.697 111.82V113.88L234.317 114.38V115.46H235.657V120.54ZM82.76 149.44C82.76 149.44 83.88 150.24 85.76 150.24C87.98 150.24 89.28 149.14 89.28 147.5C89.28 144.62 84.94 144.76 84.94 143.18C84.94 142.66 85.38 142.28 86.38 142.28C87.54 142.28 88.58 142.84 88.58 142.84L89.04 141.22C89.04 141.22 88.04 140.72 86.46 140.72C83.96 140.72 82.96 141.94 82.96 143.34C82.96 146.18 87.3 146.06 87.3 147.68C87.3 148.26 86.8 148.68 85.74 148.68C84.28 148.68 83.18 147.76 83.18 147.76L82.76 149.44ZM91.3469 147.52C91.3469 149.46 92.3469 150.24 93.8069 150.24C95.4669 150.24 96.7269 149.18 97.3069 148.56C97.4069 149.22 97.6069 150.16 97.6069 150.16L99.5269 149.98C99.5269 149.98 99.1269 148.32 99.1269 147.22V140.96H97.1469V147.04C96.5869 147.56 95.4669 148.52 94.4469 148.52C93.7069 148.52 93.3269 148.02 93.3269 146.76V140.96H91.3469V147.52ZM101.954 154.66L103.934 154.34V149.76C104.314 150.04 104.994 150.24 105.834 150.24C108.714 150.24 110.394 147.88 110.394 145.2C110.394 142.74 108.954 140.72 106.574 140.72C105.154 140.72 104.294 141.46 103.874 142.24V140.8L101.954 141.12V154.66ZM106.234 142.36C107.454 142.36 108.314 143.46 108.314 145.34C108.314 147.5 107.174 148.68 105.474 148.68C104.534 148.68 103.934 148.34 103.934 147.66V143.82C104.194 143.44 105.034 142.36 106.234 142.36ZM112.559 154.66L114.539 154.34V149.76C114.919 150.04 115.599 150.24 116.439 150.24C119.319 150.24 120.999 147.88 120.999 145.2C120.999 142.74 119.559 140.72 117.179 140.72C115.759 140.72 114.899 141.46 114.479 142.24V140.8L112.559 141.12V154.66ZM116.839 142.36C118.059 142.36 118.919 143.46 118.919 145.34C118.919 147.5 117.779 148.68 116.079 148.68C115.139 148.68 114.539 148.34 114.539 147.66V143.82C114.799 143.44 115.639 142.36 116.839 142.36ZM122.585 145.52C122.585 147.92 124.205 150.24 127.205 150.24C130.465 150.24 131.905 147.5 131.905 145.3C131.905 142.98 130.285 140.72 127.285 140.72C124.045 140.72 122.585 143.26 122.585 145.52ZM124.645 145.34C124.645 143.54 125.705 142.3 127.245 142.3C129.085 142.3 129.845 143.96 129.845 145.56C129.845 147.38 128.785 148.66 127.265 148.66C125.465 148.66 124.645 147.02 124.645 145.34ZM134.044 150H136.024V144.4C136.404 143.8 137.224 142.72 138.224 142.72C138.624 142.72 139.024 142.88 139.024 142.88L139.424 140.88C139.424 140.88 139.144 140.72 138.644 140.72C137.264 140.72 136.344 142 135.984 142.62V140.8L134.044 141.12V150ZM141.517 147.54C141.517 149.4 142.537 150.24 144.097 150.24C145.697 150.24 146.877 149.28 146.877 149.28L146.377 147.78C146.137 147.92 145.297 148.58 144.537 148.58C143.877 148.58 143.497 148.14 143.497 147.04V142.46H146.357V140.96H143.497V138.4L141.557 138.82V140.88L140.177 141.38V142.46H141.517V147.54ZM148.295 148.9C148.295 149.64 148.895 150.24 149.635 150.24C150.375 150.24 150.995 149.64 150.995 148.9C150.995 148.14 150.375 147.54 149.635 147.54C148.895 147.54 148.295 148.14 148.295 148.9Z" fill="#333333"/>
<path d="M582.96 96.1H584.94L589.72 82.66H587.62L584 93.04L580.38 82.66H578.2L582.96 96.1ZM589.968 93.92C589.968 95.26 590.988 96.24 592.568 96.24C594.328 96.24 595.248 95.12 595.488 94.74C595.748 95.46 596.328 96.04 597.708 96.14L598.308 94.58C598.308 94.58 597.308 94.56 597.308 93.44V89.62C597.308 87.6 596.628 86.72 594.488 86.72C592.108 86.72 590.568 87.86 590.568 87.86L591.088 89.34C591.088 89.34 592.468 88.3 593.948 88.3C595.408 88.3 595.328 89.3 595.328 90.44C591.948 90.88 589.968 92.02 589.968 93.92ZM593.068 94.68C592.488 94.68 592.008 94.42 592.008 93.78C592.008 92.72 593.028 92.06 595.328 91.72V93.28C594.728 93.98 593.988 94.68 593.068 94.68ZM600.298 96H602.278V81.7L600.298 82.02V96ZM605.003 93.52C605.003 95.46 606.003 96.24 607.463 96.24C609.123 96.24 610.383 95.18 610.963 94.56C611.063 95.22 611.263 96.16 611.263 96.16L613.183 95.98C613.183 95.98 612.783 94.32 612.783 93.22V86.96H610.803V93.04C610.243 93.56 609.123 94.52 608.103 94.52C607.363 94.52 606.983 94.02 606.983 92.76V86.96H605.003V93.52ZM615.05 91.62C615.05 94.04 616.59 96.24 619.61 96.24C621.87 96.24 623.25 94.94 623.25 94.94L622.69 93.5C622.69 93.5 621.43 94.62 619.91 94.62C618.33 94.62 617.33 93.56 617.11 91.92L622.05 91.26L623.19 90.94C623.19 88.2 621.63 86.72 619.47 86.72C616.83 86.72 615.05 88.86 615.05 91.62ZM619.33 88.26C620.91 88.26 621.03 90.1 621.03 90.1L617.11 90.6C617.29 89.28 618.05 88.26 619.33 88.26ZM630.219 96H632.199V90.12C632.779 89.54 634.019 88.44 634.999 88.44C635.659 88.44 636.019 88.92 636.019 90.2V96H637.999V90.08C638.679 89.42 639.799 88.44 640.719 88.44C641.379 88.44 641.759 88.92 641.759 90.2V96H643.719V89.48C643.719 87.54 642.779 86.72 641.379 86.72C639.799 86.72 638.559 87.78 637.899 88.5C637.619 87.26 636.799 86.72 635.659 86.72C634.059 86.72 632.779 87.82 632.159 88.5V86.8L630.219 87.12V96ZM645.351 99.16L645.971 100.74C648.091 100.5 649.411 98.6 650.191 96.68L654.111 86.96H652.071L649.731 93.16L647.351 86.96H645.251L648.751 95.54L648.271 96.62C647.731 97.88 646.671 98.94 645.351 99.16ZM655.088 95.44C655.088 95.44 656.208 96.24 658.088 96.24C660.308 96.24 661.608 95.14 661.608 93.5C661.608 90.62 657.268 90.76 657.268 89.18C657.268 88.66 657.708 88.28 658.708 88.28C659.868 88.28 660.908 88.84 660.908 88.84L661.368 87.22C661.368 87.22 660.368 86.72 658.788 86.72C656.288 86.72 655.288 87.94 655.288 89.34C655.288 92.18 659.628 92.06 659.628 93.68C659.628 94.26 659.128 94.68 658.068 94.68C656.608 94.68 655.508 93.76 655.508 93.76L655.088 95.44ZM663.175 91.62C663.175 94.04 664.715 96.24 667.735 96.24C669.995 96.24 671.375 94.94 671.375 94.94L670.815 93.5C670.815 93.5 669.555 94.62 668.035 94.62C666.455 94.62 665.455 93.56 665.235 91.92L670.175 91.26L671.315 90.94C671.315 88.2 669.755 86.72 667.595 86.72C664.955 86.72 663.175 88.86 663.175 91.62ZM667.455 88.26C669.035 88.26 669.155 90.1 669.155 90.1L665.235 90.6C665.415 89.28 666.175 88.26 667.455 88.26ZM673.58 96H675.56V81.7L673.58 82.02V96ZM677.484 88.46H678.904V96H680.884V88.46H683.384V86.96H680.884V85.88C680.884 83.76 681.844 83.02 682.904 83.02C683.884 83.02 684.764 83.66 684.764 83.66L685.544 82.14C685.544 82.14 684.504 81.38 682.924 81.38C680.564 81.38 678.904 83.04 678.904 86V86.88L677.484 87.4V88.46ZM689.405 91.62C689.405 94.04 690.945 96.24 693.965 96.24C696.225 96.24 697.605 94.94 697.605 94.94L697.045 93.5C697.045 93.5 695.785 94.62 694.265 94.62C692.685 94.62 691.685 93.56 691.465 91.92L696.405 91.26L697.545 90.94C697.545 88.2 695.985 86.72 693.825 86.72C691.185 86.72 689.405 88.86 689.405 91.62ZM693.685 88.26C695.265 88.26 695.385 90.1 695.385 90.1L691.465 90.6C691.645 89.28 692.405 88.26 693.685 88.26ZM699.77 96H701.75V90.14C702.37 89.54 703.65 88.44 704.65 88.44C705.33 88.44 705.73 88.92 705.73 90.2V96H707.71V89.48C707.71 87.54 706.73 86.72 705.31 86.72C703.65 86.72 702.35 87.82 701.71 88.52V86.8L699.77 87.12V96ZM709.796 91.52C709.796 93.92 711.416 96.24 714.416 96.24C717.676 96.24 719.116 93.5 719.116 91.3C719.116 88.98 717.496 86.72 714.496 86.72C711.256 86.72 709.796 89.26 709.796 91.52ZM711.856 91.34C711.856 89.54 712.916 88.3 714.456 88.3C716.296 88.3 717.056 89.96 717.056 91.56C717.056 93.38 715.996 94.66 714.476 94.66C712.676 94.66 711.856 93.02 711.856 91.34ZM721.195 93.52C721.195 95.46 722.195 96.24 723.655 96.24C725.315 96.24 726.575 95.18 727.155 94.56C727.255 95.22 727.455 96.16 727.455 96.16L729.375 95.98C729.375 95.98 728.975 94.32 728.975 93.22V86.96H726.995V93.04C726.435 93.56 725.315 94.52 724.295 94.52C723.555 94.52 723.175 94.02 723.175 92.76V86.96H721.195V93.52ZM731.781 94.4C731.781 95.02 732.361 95.38 733.261 95.68C732.301 96.18 730.961 97.04 730.961 98.36C730.961 99.94 732.921 100.74 734.921 100.74C737.641 100.74 739.861 99.2 739.861 97.38C739.861 95.72 738.041 95.22 736.441 94.82C734.561 94.36 733.681 94.18 733.681 93.82C733.681 93.6 734.001 93.36 734.421 93.08C734.621 93.12 734.841 93.12 735.081 93.12C737.021 93.12 739.081 92.06 739.081 90.08C739.081 89.28 738.701 88.74 738.421 88.42C738.661 88.46 738.941 88.48 739.161 88.48H740.241L740.101 86.9C740.101 86.9 739.501 87.1 738.901 87.1H737.861C736.861 87.1 736.341 86.72 735.241 86.72C733.221 86.72 731.401 87.86 731.401 89.88C731.401 91.1 732.061 92.16 733.201 92.72C732.461 93.14 731.781 93.74 731.781 94.4ZM735.301 96.2C736.981 96.64 737.921 96.9 737.921 97.68C737.921 98.58 736.641 99.3 735.041 99.3C733.901 99.3 732.741 98.94 732.741 98.04C732.741 97.14 733.841 96.54 734.701 96.06C734.901 96.1 735.101 96.14 735.301 96.2ZM735.221 91.72C733.941 91.72 733.341 90.8 733.341 89.94C733.341 89 734.021 88.12 735.221 88.12C736.501 88.12 737.121 89.16 737.121 90.04C737.121 91.06 736.321 91.72 735.221 91.72ZM741.959 96H743.939V90.18C744.539 89.58 745.839 88.44 746.839 88.44C747.519 88.44 747.919 88.92 747.919 90.2V96H749.899V89.48C749.899 87.54 748.919 86.72 747.479 86.72C745.819 86.72 744.539 87.84 743.939 88.48V81.7L741.959 82.02V96ZM757.888 93.54C757.888 95.4 758.908 96.24 760.468 96.24C762.068 96.24 763.248 95.28 763.248 95.28L762.748 93.78C762.508 93.92 761.668 94.58 760.908 94.58C760.248 94.58 759.868 94.14 759.868 93.04V88.46H762.728V86.96H759.868V84.4L757.928 84.82V86.88L756.548 87.38V88.46H757.888V93.54ZM764.346 91.52C764.346 93.92 765.966 96.24 768.966 96.24C772.226 96.24 773.666 93.5 773.666 91.3C773.666 88.98 772.046 86.72 769.046 86.72C765.806 86.72 764.346 89.26 764.346 91.52ZM766.406 91.34C766.406 89.54 767.466 88.3 769.006 88.3C770.846 88.3 771.606 89.96 771.606 91.56C771.606 93.38 770.546 94.66 769.026 94.66C767.226 94.66 766.406 93.02 766.406 91.34ZM579.88 120.54C579.88 122.4 580.9 123.24 582.46 123.24C584.06 123.24 585.24 122.28 585.24 122.28L584.74 120.78C584.5 120.92 583.66 121.58 582.9 121.58C582.24 121.58 581.86 121.14 581.86 120.04V115.46H584.72V113.96H581.86V111.4L579.92 111.82V113.88L578.54 114.38V115.46H579.88V120.54ZM586.199 120.92C586.199 122.26 587.219 123.24 588.799 123.24C590.559 123.24 591.479 122.12 591.719 121.74C591.979 122.46 592.559 123.04 593.939 123.14L594.539 121.58C594.539 121.58 593.539 121.56 593.539 120.44V116.62C593.539 114.6 592.859 113.72 590.719 113.72C588.339 113.72 586.799 114.86 586.799 114.86L587.319 116.34C587.319 116.34 588.699 115.3 590.179 115.3C591.639 115.3 591.559 116.3 591.559 117.44C588.179 117.88 586.199 119.02 586.199 120.92ZM589.299 121.68C588.719 121.68 588.239 121.42 588.239 120.78C588.239 119.72 589.259 119.06 591.559 118.72V120.28C590.959 120.98 590.219 121.68 589.299 121.68ZM596.529 123H598.509V118.72H598.789L602.389 123H604.929L600.529 117.92L604.649 113.96H602.069L598.789 117.26H598.509V108.7L596.529 109.02V123ZM605.421 118.62C605.421 121.04 606.961 123.24 609.981 123.24C612.241 123.24 613.621 121.94 613.621 121.94L613.061 120.5C613.061 120.5 611.801 121.62 610.281 121.62C608.701 121.62 607.701 120.56 607.481 118.92L612.421 118.26L613.561 117.94C613.561 115.2 612.001 113.72 609.841 113.72C607.201 113.72 605.421 115.86 605.421 118.62ZM609.701 115.26C611.281 115.26 611.401 117.1 611.401 117.1L607.481 117.6C607.661 116.28 608.421 115.26 609.701 115.26ZM620.01 118.6C620.01 121.22 621.83 123.24 624.65 123.24C626.81 123.24 627.85 122.08 627.85 122.08L627.21 120.68C627.21 120.68 626.23 121.62 624.79 121.62C623.09 121.62 622.07 120.28 622.07 118.5C622.07 116.66 623.17 115.32 624.81 115.32C626.13 115.32 627.07 116.16 627.07 116.16L627.85 114.68C627.85 114.68 626.75 113.72 624.77 113.72C621.79 113.72 620.01 116.1 620.01 118.6ZM629.073 118.52C629.073 120.92 630.693 123.24 633.693 123.24C636.953 123.24 638.393 120.5 638.393 118.3C638.393 115.98 636.773 113.72 633.773 113.72C630.533 113.72 629.073 116.26 629.073 118.52ZM631.133 118.34C631.133 116.54 632.193 115.3 633.733 115.3C635.573 115.3 636.333 116.96 636.333 118.56C636.333 120.38 635.273 121.66 633.753 121.66C631.953 121.66 631.133 120.02 631.133 118.34ZM640.532 123H642.512V117.14C643.132 116.54 644.412 115.44 645.412 115.44C646.092 115.44 646.492 115.92 646.492 117.2V123H648.472V116.48C648.472 114.54 647.492 113.72 646.072 113.72C644.412 113.72 643.112 114.82 642.472 115.52V113.8L640.532 114.12V123ZM650.537 122.44C650.537 122.44 651.657 123.24 653.537 123.24C655.757 123.24 657.057 122.14 657.057 120.5C657.057 117.62 652.717 117.76 652.717 116.18C652.717 115.66 653.157 115.28 654.157 115.28C655.317 115.28 656.357 115.84 656.357 115.84L656.817 114.22C656.817 114.22 655.817 113.72 654.237 113.72C651.737 113.72 650.737 114.94 650.737 116.34C650.737 119.18 655.077 119.06 655.077 120.68C655.077 121.26 654.577 121.68 653.517 121.68C652.057 121.68 650.957 120.76 650.957 120.76L650.537 122.44ZM660.224 111.8C660.944 111.8 661.484 111.28 661.484 110.58C661.484 109.88 660.944 109.36 660.224 109.36C659.524 109.36 658.984 109.88 658.984 110.58C658.984 111.28 659.524 111.8 660.224 111.8ZM659.224 123H661.204V113.96H659.224V123ZM663.389 122.44C663.389 122.44 664.509 123.24 666.389 123.24C668.609 123.24 669.909 122.14 669.909 120.5C669.909 117.62 665.569 117.76 665.569 116.18C665.569 115.66 666.009 115.28 667.009 115.28C668.169 115.28 669.209 115.84 669.209 115.84L669.669 114.22C669.669 114.22 668.669 113.72 667.089 113.72C664.589 113.72 663.589 114.94 663.589 116.34C663.589 119.18 667.929 119.06 667.929 120.68C667.929 121.26 667.429 121.68 666.369 121.68C664.909 121.68 663.809 120.76 663.809 120.76L663.389 122.44ZM672.556 120.54C672.556 122.4 673.576 123.24 675.136 123.24C676.736 123.24 677.916 122.28 677.916 122.28L677.416 120.78C677.176 120.92 676.336 121.58 675.576 121.58C674.916 121.58 674.536 121.14 674.536 120.04V115.46H677.396V113.96H674.536V111.4L672.596 111.82V113.88L671.216 114.38V115.46H672.556V120.54ZM679.034 118.62C679.034 121.04 680.574 123.24 683.594 123.24C685.854 123.24 687.234 121.94 687.234 121.94L686.674 120.5C686.674 120.5 685.414 121.62 683.894 121.62C682.314 121.62 681.314 120.56 681.094 118.92L686.034 118.26L687.174 117.94C687.174 115.2 685.614 113.72 683.454 113.72C680.814 113.72 679.034 115.86 679.034 118.62ZM683.314 115.26C684.894 115.26 685.014 117.1 685.014 117.1L681.094 117.6C681.274 116.28 682.034 115.26 683.314 115.26ZM689.399 123H691.379V117.14C691.999 116.54 693.279 115.44 694.279 115.44C694.959 115.44 695.359 115.92 695.359 117.2V123H697.339V116.48C697.339 114.54 696.359 113.72 694.939 113.72C693.279 113.72 691.979 114.82 691.339 115.52V113.8L689.399 114.12V123ZM700.525 120.54C700.525 122.4 701.545 123.24 703.105 123.24C704.705 123.24 705.885 122.28 705.885 122.28L705.385 120.78C705.145 120.92 704.305 121.58 703.545 121.58C702.885 121.58 702.505 121.14 702.505 120.04V115.46H705.365V113.96H702.505V111.4L700.565 111.82V113.88L699.185 114.38V115.46H700.525V120.54ZM711.648 120.92C711.648 122.26 712.668 123.24 714.248 123.24C716.008 123.24 716.928 122.12 717.168 121.74C717.428 122.46 718.008 123.04 719.388 123.14L719.988 121.58C719.988 121.58 718.988 121.56 718.988 120.44V116.62C718.988 114.6 718.308 113.72 716.168 113.72C713.788 113.72 712.248 114.86 712.248 114.86L712.768 116.34C712.768 116.34 714.148 115.3 715.628 115.3C717.088 115.3 717.008 116.3 717.008 117.44C713.628 117.88 711.648 119.02 711.648 120.92ZM714.748 121.68C714.168 121.68 713.688 121.42 713.688 120.78C713.688 119.72 714.708 119.06 717.008 118.72V120.28C716.408 120.98 715.668 121.68 714.748 121.68ZM721.358 118.6C721.358 121.22 723.178 123.24 725.998 123.24C728.158 123.24 729.198 122.08 729.198 122.08L728.558 120.68C728.558 120.68 727.578 121.62 726.138 121.62C724.438 121.62 723.418 120.28 723.418 118.5C723.418 116.66 724.518 115.32 726.158 115.32C727.478 115.32 728.418 116.16 728.418 116.16L729.198 114.68C729.198 114.68 728.098 113.72 726.118 113.72C723.138 113.72 721.358 116.1 721.358 118.6ZM731.677 120.54C731.677 122.4 732.697 123.24 734.257 123.24C735.857 123.24 737.037 122.28 737.037 122.28L736.537 120.78C736.297 120.92 735.457 121.58 734.697 121.58C734.037 121.58 733.657 121.14 733.657 120.04V115.46H736.517V113.96H733.657V111.4L731.717 111.82V113.88L730.337 114.38V115.46H731.677V120.54ZM739.755 111.8C740.475 111.8 741.015 111.28 741.015 110.58C741.015 109.88 740.475 109.36 739.755 109.36C739.055 109.36 738.515 109.88 738.515 110.58C738.515 111.28 739.055 111.8 739.755 111.8ZM738.755 123H740.735V113.96H738.755V123ZM742.94 118.52C742.94 120.92 744.56 123.24 747.56 123.24C750.82 123.24 752.26 120.5 752.26 118.3C752.26 115.98 750.64 113.72 747.64 113.72C744.4 113.72 742.94 116.26 742.94 118.52ZM745 118.34C745 116.54 746.06 115.3 747.6 115.3C749.44 115.3 750.2 116.96 750.2 118.56C750.2 120.38 749.14 121.66 747.62 121.66C745.82 121.66 745 120.02 745 118.34ZM754.399 123H756.379V117.14C756.999 116.54 758.279 115.44 759.279 115.44C759.959 115.44 760.359 115.92 760.359 117.2V123H762.339V116.48C762.339 114.54 761.359 113.72 759.939 113.72C758.279 113.72 756.979 114.82 756.339 115.52V113.8L754.399 114.12V123ZM764.405 122.44C764.405 122.44 765.525 123.24 767.405 123.24C769.625 123.24 770.925 122.14 770.925 120.5C770.925 117.62 766.585 117.76 766.585 116.18C766.585 115.66 767.025 115.28 768.025 115.28C769.185 115.28 770.225 115.84 770.225 115.84L770.685 114.22C770.685 114.22 769.685 113.72 768.105 113.72C765.605 113.72 764.605 114.94 764.605 116.34C764.605 119.18 768.945 119.06 768.945 120.68C768.945 121.26 768.445 121.68 767.385 121.68C765.925 121.68 764.825 120.76 764.825 120.76L764.405 122.44ZM579.88 147.54C579.88 149.4 580.9 150.24 582.46 150.24C584.06 150.24 585.24 149.28 585.24 149.28L584.74 147.78C584.5 147.92 583.66 148.58 582.9 148.58C582.24 148.58 581.86 148.14 581.86 147.04V142.46H584.72V140.96H581.86V138.4L579.92 138.82V140.88L578.54 141.38V142.46H579.88V147.54ZM586.339 145.52C586.339 147.92 587.959 150.24 590.959 150.24C594.219 150.24 595.659 147.5 595.659 145.3C595.659 142.98 594.039 140.72 591.039 140.72C587.799 140.72 586.339 143.26 586.339 145.52ZM588.399 145.34C588.399 143.54 589.459 142.3 590.999 142.3C592.839 142.3 593.599 143.96 593.599 145.56C593.599 147.38 592.539 148.66 591.019 148.66C589.219 148.66 588.399 147.02 588.399 145.34ZM602.602 149.8C603.282 149.96 604.822 150.24 605.902 150.24C609.322 150.24 610.962 147.8 610.962 145.16C610.962 142.68 609.522 140.72 607.022 140.72C605.782 140.72 605.042 141.22 604.582 141.74V135.7L602.602 136.02V149.8ZM606.702 142.32C608.022 142.32 608.922 143.42 608.922 145.3C608.922 147.54 607.662 148.74 605.942 148.74C605.202 148.74 604.582 148.54 604.582 148.54V143.26C605.002 142.88 605.762 142.32 606.702 142.32ZM612.589 145.62C612.589 148.04 614.129 150.24 617.149 150.24C619.409 150.24 620.789 148.94 620.789 148.94L620.229 147.5C620.229 147.5 618.969 148.62 617.449 148.62C615.869 148.62 614.869 147.56 614.649 145.92L619.589 145.26L620.729 144.94C620.729 142.2 619.169 140.72 617.009 140.72C614.369 140.72 612.589 142.86 612.589 145.62ZM616.869 142.26C618.449 142.26 618.569 144.1 618.569 144.1L614.649 144.6C614.829 143.28 615.589 142.26 616.869 142.26ZM623.474 147.54C623.474 149.4 624.494 150.24 626.054 150.24C627.654 150.24 628.834 149.28 628.834 149.28L628.334 147.78C628.094 147.92 627.254 148.58 626.494 148.58C625.834 148.58 625.454 148.14 625.454 147.04V142.46H628.314V140.96H625.454V138.4L623.514 138.82V140.88L622.134 141.38V142.46H623.474V147.54ZM631.032 147.54C631.032 149.4 632.052 150.24 633.612 150.24C635.212 150.24 636.392 149.28 636.392 149.28L635.892 147.78C635.652 147.92 634.812 148.58 634.052 148.58C633.392 148.58 633.012 148.14 633.012 147.04V142.46H635.872V140.96H633.012V138.4L631.072 138.82V140.88L629.692 141.38V142.46H631.032V147.54ZM637.511 145.62C637.511 148.04 639.051 150.24 642.071 150.24C644.331 150.24 645.711 148.94 645.711 148.94L645.151 147.5C645.151 147.5 643.891 148.62 642.371 148.62C640.791 148.62 639.791 147.56 639.571 145.92L644.511 145.26L645.651 144.94C645.651 142.2 644.091 140.72 641.931 140.72C639.291 140.72 637.511 142.86 637.511 145.62ZM641.791 142.26C643.371 142.26 643.491 144.1 643.491 144.1L639.571 144.6C639.751 143.28 640.511 142.26 641.791 142.26ZM647.876 150H649.856V144.4C650.236 143.8 651.056 142.72 652.056 142.72C652.456 142.72 652.856 142.88 652.856 142.88L653.256 140.88C653.256 140.88 652.976 140.72 652.476 140.72C651.096 140.72 650.176 142 649.816 142.62V140.8L647.876 141.12V150ZM659.633 150H661.613V144.12C662.193 143.54 663.433 142.44 664.413 142.44C665.073 142.44 665.433 142.92 665.433 144.2V150H667.413V144.08C668.093 143.42 669.213 142.44 670.133 142.44C670.793 142.44 671.173 142.92 671.173 144.2V150H673.133V143.48C673.133 141.54 672.193 140.72 670.793 140.72C669.213 140.72 667.973 141.78 667.313 142.5C667.033 141.26 666.213 140.72 665.073 140.72C663.473 140.72 662.193 141.82 661.573 142.5V140.8L659.633 141.12V150ZM674.765 153.16L675.385 154.74C677.505 154.5 678.825 152.6 679.605 150.68L683.525 140.96H681.485L679.145 147.16L676.765 140.96H674.665L678.165 149.54L677.685 150.62C677.145 151.88 676.085 152.94 674.765 153.16ZM689.947 150H691.927V144.18C692.527 143.58 693.827 142.44 694.827 142.44C695.507 142.44 695.907 142.92 695.907 144.2V150H697.887V143.48C697.887 141.54 696.907 140.72 695.467 140.72C693.807 140.72 692.527 141.84 691.927 142.48V135.7L689.947 136.02V150ZM699.991 145.62C699.991 148.04 701.531 150.24 704.551 150.24C706.811 150.24 708.191 148.94 708.191 148.94L707.631 147.5C707.631 147.5 706.371 148.62 704.851 148.62C703.271 148.62 702.271 147.56 702.051 145.92L706.991 145.26L708.131 144.94C708.131 142.2 706.571 140.72 704.411 140.72C701.771 140.72 699.991 142.86 699.991 145.62ZM704.271 142.26C705.851 142.26 705.971 144.1 705.971 144.1L702.051 144.6C702.231 143.28 702.991 142.26 704.271 142.26ZM709.636 147.92C709.636 149.26 710.656 150.24 712.236 150.24C713.996 150.24 714.916 149.12 715.156 148.74C715.416 149.46 715.996 150.04 717.376 150.14L717.976 148.58C717.976 148.58 716.976 148.56 716.976 147.44V143.62C716.976 141.6 716.296 140.72 714.156 140.72C711.776 140.72 710.236 141.86 710.236 141.86L710.756 143.34C710.756 143.34 712.136 142.3 713.616 142.3C715.076 142.3 714.996 143.3 714.996 144.44C711.616 144.88 709.636 146.02 709.636 147.92ZM712.736 148.68C712.156 148.68 711.676 148.42 711.676 147.78C711.676 146.72 712.696 146.06 714.996 145.72V147.28C714.396 147.98 713.656 148.68 712.736 148.68ZM719.966 150H721.946V135.7L719.966 136.02V150ZM725.251 147.54C725.251 149.4 726.271 150.24 727.831 150.24C729.431 150.24 730.611 149.28 730.611 149.28L730.111 147.78C729.871 147.92 729.031 148.58 728.271 148.58C727.611 148.58 727.231 148.14 727.231 147.04V142.46H730.091V140.96H727.231V138.4L725.291 138.82V140.88L723.911 141.38V142.46H725.251V147.54ZM732.33 150H734.31V144.18C734.91 143.58 736.21 142.44 737.21 142.44C737.89 142.44 738.29 142.92 738.29 144.2V150H740.27V143.48C740.27 141.54 739.29 140.72 737.85 140.72C736.19 140.72 734.91 141.84 734.31 142.48V135.7L732.33 136.02V150ZM742.674 148.9C742.674 149.64 743.274 150.24 744.014 150.24C744.754 150.24 745.374 149.64 745.374 148.9C745.374 148.14 744.754 147.54 744.014 147.54C743.274 147.54 742.674 148.14 742.674 148.9Z" fill="#333333"/>
<path d="M106.961 314.696L106.961 311.744C106.961 307.406 104.801 304.382 100.769 304.382C96.5029 304.382 94.9549 307.784 94.9549 311.06L94.9549 314.696L106.961 314.696ZM105.719 313.22L96.1969 313.22L96.1969 311.312C96.1969 307.82 98.0509 305.966 100.931 305.966C103.595 305.966 105.719 307.55 105.719 311.924L105.719 313.22ZM105.143 302.945C106.331 302.945 107.177 302.063 107.177 300.677C107.177 299.039 106.025 298.157 105.773 297.995C106.439 297.815 106.961 297.383 107.087 296.249L105.953 295.781C105.953 295.781 105.935 296.681 104.873 296.681L101.219 296.681C99.4009 296.681 98.6449 297.257 98.6449 299.021C98.6449 301.037 99.6349 302.387 99.6349 302.387L100.769 301.955C100.769 301.955 99.8689 300.767 99.8689 299.417C99.8689 298.067 100.769 298.085 101.723 298.085L102.029 298.085C102.425 301.163 103.469 302.945 105.143 302.945ZM105.953 300.389C105.953 300.983 105.683 301.451 105.053 301.451C104.009 301.451 103.433 300.371 103.055 298.085L104.549 298.085C105.215 298.661 105.953 299.399 105.953 300.389ZM104.819 293.498C106.475 293.498 107.177 292.67 107.177 291.392C107.177 290.042 106.349 289.052 106.349 289.052L105.215 289.394C105.215 289.394 105.953 290.258 105.953 291.104C105.953 291.716 105.521 292.094 104.441 292.094L99.9949 292.094L99.9949 289.466L98.8609 289.466L98.8609 292.094L96.6289 292.094L96.9709 293.498L98.7709 293.498L99.2389 294.65L99.9949 294.65L99.9949 293.498L104.819 293.498ZM105.143 288.056C106.331 288.056 107.177 287.174 107.177 285.788C107.177 284.15 106.025 283.268 105.773 283.106C106.439 282.926 106.961 282.494 107.087 281.36L105.953 280.892C105.953 280.892 105.935 281.792 104.873 281.792L101.219 281.792C99.4009 281.792 98.6449 282.368 98.6449 284.132C98.6449 286.148 99.6349 287.498 99.6349 287.498L100.769 287.066C100.769 287.066 99.8689 285.878 99.8689 284.528C99.8689 283.178 100.769 283.196 101.723 283.196L102.029 283.196C102.425 286.274 103.469 288.056 105.143 288.056ZM105.953 285.5C105.953 286.094 105.683 286.562 105.053 286.562C104.009 286.562 103.433 285.482 103.055 283.196L104.549 283.196C105.215 283.772 105.953 284.51 105.953 285.5ZM106.961 274.178L106.961 272.702L101.903 272.702L101.903 270.776L106.961 267.338L106.961 265.592L101.597 269.228C101.075 268.04 99.9769 266.744 98.2309 266.744C96.5389 266.744 94.9549 267.932 94.9549 271.028L94.9549 274.178L106.961 274.178ZM100.661 272.702L96.1969 272.702L96.1969 271.298C96.1969 269.102 97.2409 268.328 98.3749 268.328C99.8689 268.328 100.661 269.66 100.661 270.812L100.661 272.702ZM103.091 264.761C105.215 264.761 107.177 263.429 107.177 260.747C107.177 258.803 106.007 257.633 106.007 257.633L104.927 258.047C104.927 258.047 105.953 259.199 105.953 260.585C105.953 262.169 104.819 263.141 103.145 263.267L102.515 258.497L102.263 257.633C99.9409 257.633 98.6449 259.001 98.6449 260.873C98.6449 263.177 100.553 264.761 103.091 264.761ZM99.8149 260.963C99.8149 259.343 101.543 259.181 101.543 259.181L102.065 263.249C100.805 263.051 99.8149 262.259 99.8149 260.963ZM105.143 256.152C106.331 256.152 107.177 255.27 107.177 253.884C107.177 252.246 106.025 251.364 105.773 251.202C106.439 251.022 106.961 250.59 107.087 249.456L105.953 248.988C105.953 248.988 105.935 249.888 104.873 249.888L101.219 249.888C99.4009 249.888 98.6449 250.464 98.6449 252.228C98.6449 254.244 99.6349 255.594 99.6349 255.594L100.769 255.162C100.769 255.162 99.8689 253.974 99.8689 252.624C99.8689 251.274 100.769 251.292 101.723 251.292L102.029 251.292C102.425 254.37 103.469 256.152 105.143 256.152ZM105.953 253.596C105.953 254.19 105.683 254.658 105.053 254.658C104.009 254.658 103.433 253.578 103.055 251.292L104.549 251.292C105.215 251.868 105.953 252.606 105.953 253.596ZM103.181 247.552C105.413 247.552 107.177 246.184 107.177 244.078C107.177 242.782 106.511 241.9 105.791 241.45C106.349 241.36 107.087 241.198 107.087 241.198L106.961 239.812C106.961 239.812 105.449 240.172 104.459 240.172L94.1089 240.172L94.3609 241.576L98.9329 241.576C98.8429 241.792 98.6449 242.332 98.6449 243.142C98.6449 246.04 100.841 247.552 103.181 247.552ZM105.953 243.898C105.953 245.122 104.891 246.058 103.091 246.058C101.021 246.058 99.8329 244.852 99.8329 243.124C99.8329 242.35 100.085 241.612 100.985 241.576L104.477 241.576C104.819 241.792 105.953 242.62 105.953 243.898ZM96.8089 236.677C96.8089 236.137 96.3769 235.705 95.8369 235.705C95.2969 235.705 94.8649 236.137 94.8649 236.677C94.8649 237.217 95.2969 237.649 95.8369 237.649C96.3769 237.649 96.8089 237.217 96.8089 236.677ZM106.961 237.397L106.961 235.993L98.8609 235.993L98.8609 237.397L106.961 237.397ZM106.961 233.284L106.961 231.88L101.615 231.88C101.111 231.358 99.8869 229.972 99.8869 228.91C99.8869 228.298 100.265 227.812 101.471 227.812L106.961 227.812L106.961 226.408L101.075 226.408C99.3289 226.408 98.6449 227.326 98.6449 228.532C98.6449 230.098 99.7789 231.358 100.319 231.88L98.7349 231.88L98.9869 233.284L106.961 233.284ZM105.503 223.846C106.043 223.846 106.367 223.288 106.601 222.496C107.069 223.414 107.825 224.602 109.067 224.602C110.507 224.602 111.227 222.892 111.227 221.146C111.227 218.842 109.895 216.826 108.239 216.826C106.763 216.826 106.331 218.41 105.989 219.958C105.647 221.488 105.467 222.334 105.125 222.334C104.891 222.334 104.639 221.992 104.369 221.614C104.405 221.416 104.423 221.2 104.423 220.966C104.423 219.346 103.505 217.528 101.615 217.528C100.823 217.528 100.265 217.924 100.031 218.14C100.049 217.96 100.067 217.708 100.067 217.474L100.067 216.448L98.8069 216.574C98.8069 216.574 98.9869 217.114 98.9869 217.636L98.9869 218.5C98.9869 219.382 98.6449 219.886 98.6449 220.822C98.6449 222.586 99.6889 224.17 101.471 224.17C102.605 224.17 103.559 223.576 104.063 222.604C104.405 223.18 104.927 223.846 105.503 223.846ZM108.869 223.306C107.969 223.306 107.429 222.28 106.907 221.326C106.961 221.02 107.015 220.732 107.087 220.426C107.357 219.202 107.645 218.266 108.437 218.266C109.337 218.266 110.147 219.508 110.147 221.038C110.147 221.992 109.841 223.306 108.869 223.306ZM103.343 220.84C103.343 222.136 102.461 222.73 101.561 222.73C100.535 222.73 99.7249 222.028 99.7249 220.876C99.7249 219.598 100.769 218.968 101.687 218.968C102.749 218.968 103.343 219.778 103.343 220.84Z" fill="black"/>
<path d="M43 43V413H539V43" stroke="#BDBDBD" stroke-width="12"/>
<path d="M539 43V413H1035V43" stroke="#BDBDBD" stroke-width="12"/>
<path d="M128.167 475H134.919C139.207 475 142.215 472.568 142.215 468.792C142.215 465.272 139.591 463.96 138.375 463.544C139.495 462.68 140.967 461.08 140.967 458.776C140.967 456.312 139.239 453.656 133.735 453.656H128.167V475ZM130.791 472.792V465.112H134.439C137.895 465.112 139.399 466.712 139.399 468.984C139.399 471.256 137.863 472.792 134.439 472.792H130.791ZM130.791 455.864H133.255C137.095 455.864 138.151 457.272 138.151 459.032C138.151 461.656 135.751 462.904 135.751 462.904H130.791V455.864ZM145.896 471.064C145.896 474.168 147.432 475.384 149.8 475.384C152.52 475.384 154.632 473.528 155.496 472.6C155.624 473.624 155.976 475.224 155.976 475.224L158.44 475C158.44 475 157.8 472.312 157.8 470.552V460.6H155.304V470.488C154.344 471.448 152.296 473.176 150.44 473.176C149.288 473.176 148.392 472.568 148.392 470.36V460.6H145.896V471.064ZM163.993 456.952C164.953 456.952 165.721 456.184 165.721 455.224C165.721 454.264 164.953 453.496 163.993 453.496C163.033 453.496 162.265 454.264 162.265 455.224C162.265 456.184 163.033 456.952 163.993 456.952ZM162.713 475H165.209V460.6H162.713V475ZM170.088 475H172.584V452.152L170.088 452.6V475ZM176.471 468.28C176.471 472.248 178.903 475.384 182.647 475.384C184.951 475.384 186.519 474.2 187.319 472.92C187.479 473.912 187.767 475.224 187.767 475.224L190.231 475C190.231 475 189.591 472.312 189.591 470.552V452.152L187.095 452.6V460.728C186.711 460.568 185.751 460.216 184.311 460.216C179.159 460.216 176.471 464.12 176.471 468.28ZM182.967 473.208C180.791 473.208 179.127 471.32 179.127 468.12C179.127 464.44 181.271 462.328 184.343 462.328C185.719 462.328 187.031 462.776 187.095 464.376V470.584C186.711 471.192 185.239 473.208 182.967 473.208ZM202.213 475H204.709V465.464C205.669 464.568 208.101 462.424 209.957 462.424C211.045 462.424 211.909 463.096 211.909 465.24V475H214.405V464.536C214.405 461.432 212.773 460.216 210.629 460.216C207.877 460.216 205.637 462.168 204.709 463.16V452.152L202.213 452.6V475ZM218.096 467.864C218.096 471.672 220.688 475.384 225.135 475.384C229.968 475.384 232.336 471.032 232.336 467.512C232.336 463.8 229.744 460.216 225.264 460.216C220.496 460.216 218.096 464.28 218.096 467.864ZM220.72 467.576C220.72 464.472 222.48 462.392 225.2 462.392C228.432 462.392 229.712 465.176 229.712 467.928C229.712 471.032 227.952 473.208 225.232 473.208C222.096 473.208 220.72 470.392 220.72 467.576ZM236.118 482.424L238.614 481.976V474.488C239.19 474.936 240.31 475.384 241.846 475.384C246.262 475.384 249.078 471.736 249.078 467.384C249.078 463.416 246.742 460.216 242.966 460.216C240.694 460.216 239.222 461.4 238.55 462.616V460.376L236.118 460.824V482.424ZM242.646 462.456C244.822 462.456 246.422 464.344 246.422 467.576C246.422 471.16 244.438 473.272 241.334 473.272C239.702 473.272 238.614 472.696 238.614 471.384V464.92C238.966 464.408 240.438 462.456 242.646 462.456ZM251.971 468.12C251.971 471.896 254.339 475.384 259.107 475.384C262.563 475.384 264.643 473.304 264.643 473.304L263.907 471.384C263.907 471.384 261.859 473.208 259.395 473.208C256.579 473.208 254.851 471.192 254.627 468.216L263.107 467.096L264.643 466.648C264.643 462.52 262.211 460.216 258.883 460.216C254.787 460.216 251.971 463.608 251.971 468.12ZM258.723 462.296C261.603 462.296 261.891 465.368 261.891 465.368L254.659 466.296C255.011 464.056 256.419 462.296 258.723 462.296ZM277.525 456.952C278.485 456.952 279.253 456.184 279.253 455.224C279.253 454.264 278.485 453.496 277.525 453.496C276.565 453.496 275.797 454.264 275.797 455.224C275.797 456.184 276.565 456.952 277.525 456.952ZM276.245 475H278.741V460.6H276.245V475ZM283.556 475H286.052V465.496C286.98 464.6 289.444 462.424 291.332 462.424C292.42 462.424 293.284 463.096 293.284 465.24V475H295.78V464.536C295.78 461.432 294.148 460.216 292.004 460.216C289.22 460.216 286.98 462.232 286.052 463.192V460.376L283.556 460.824V475ZM308.822 471.192C308.822 474.136 310.294 475.384 312.566 475.384C314.966 475.384 316.726 473.912 316.726 473.912L316.118 471.896C316.118 471.896 314.582 473.208 313.078 473.208C311.99 473.208 311.318 472.44 311.318 470.52V462.616H315.99V460.6H311.318V456.632L308.822 457.24V460.44L306.774 461.272V462.616H308.822V471.192ZM319.776 475H322.272V465.464C323.232 464.568 325.664 462.424 327.52 462.424C328.608 462.424 329.472 463.096 329.472 465.24V475H331.968V464.536C331.968 461.432 330.336 460.216 328.192 460.216C325.44 460.216 323.2 462.168 322.272 463.16V452.152L319.776 452.6V475ZM335.69 468.12C335.69 471.896 338.058 475.384 342.826 475.384C346.282 475.384 348.362 473.304 348.362 473.304L347.626 471.384C347.626 471.384 345.578 473.208 343.114 473.208C340.298 473.208 338.57 471.192 338.346 468.216L346.826 467.096L348.362 466.648C348.362 462.52 345.93 460.216 342.602 460.216C338.506 460.216 335.69 463.608 335.69 468.12ZM342.442 462.296C345.322 462.296 345.61 465.368 345.61 465.368L338.378 466.296C338.73 464.056 340.138 462.296 342.442 462.296ZM359.899 482.424L362.395 481.976V474.488C362.971 474.936 364.091 475.384 365.627 475.384C370.043 475.384 372.859 471.736 372.859 467.384C372.859 463.416 370.523 460.216 366.747 460.216C364.475 460.216 363.003 461.4 362.331 462.616V460.376L359.899 460.824V482.424ZM366.427 462.456C368.603 462.456 370.203 464.344 370.203 467.576C370.203 471.16 368.219 473.272 365.115 473.272C363.483 473.272 362.395 472.696 362.395 471.384V464.92C362.747 464.408 364.219 462.456 366.427 462.456ZM376.681 475H379.177V465.88C379.753 464.888 381.097 462.936 382.76 462.936C383.337 462.936 383.977 463.192 383.977 463.192L384.617 460.504C384.617 460.504 384.169 460.216 383.369 460.216C381.193 460.216 379.721 462.264 379.177 463.224V460.376L376.681 460.824V475ZM386.19 468.12C386.19 471.896 388.558 475.384 393.326 475.384C396.782 475.384 398.862 473.304 398.862 473.304L398.126 471.384C398.126 471.384 396.078 473.208 393.614 473.208C390.798 473.208 389.07 471.192 388.846 468.216L397.326 467.096L398.862 466.648C398.862 462.52 396.43 460.216 393.102 460.216C389.006 460.216 386.19 463.608 386.19 468.12ZM392.942 462.296C395.822 462.296 396.11 465.368 396.11 465.368L388.878 466.296C389.23 464.056 390.638 462.296 392.942 462.296ZM401.688 474.104C401.688 474.104 403.384 475.384 406.296 475.384C409.56 475.384 411.576 473.784 411.576 471.224C411.576 466.456 404.504 466.936 404.504 463.992C404.504 463 405.304 462.296 407.032 462.296C408.824 462.296 410.552 463.128 410.552 463.128L411.224 461.016C411.224 461.016 409.656 460.216 407.224 460.216C403.544 460.216 401.976 462.008 401.976 464.184C401.976 468.792 409.048 468.344 409.048 471.416C409.048 472.536 408.152 473.304 406.36 473.304C404.056 473.304 402.232 471.896 402.232 471.896L401.688 474.104ZM414.346 468.12C414.346 471.896 416.714 475.384 421.482 475.384C424.938 475.384 427.018 473.304 427.018 473.304L426.282 471.384C426.282 471.384 424.234 473.208 421.77 473.208C418.954 473.208 417.226 471.192 417.002 468.216L425.482 467.096L427.018 466.648C427.018 462.52 424.586 460.216 421.258 460.216C417.162 460.216 414.346 463.608 414.346 468.12ZM421.098 462.296C423.978 462.296 424.266 465.368 424.266 465.368L417.034 466.296C417.386 464.056 418.794 462.296 421.098 462.296ZM430.868 475H433.364V465.496C434.292 464.6 436.756 462.424 438.644 462.424C439.732 462.424 440.596 463.096 440.596 465.24V475H443.092V464.536C443.092 461.432 441.46 460.216 439.316 460.216C436.532 460.216 434.292 462.232 433.364 463.192V460.376L430.868 460.824V475ZM448.447 471.192C448.447 474.136 449.919 475.384 452.191 475.384C454.591 475.384 456.351 473.912 456.351 473.912L455.743 471.896C455.743 471.896 454.207 473.208 452.703 473.208C451.615 473.208 450.943 472.44 450.943 470.52V462.616H455.615V460.6H450.943V456.632L448.447 457.24V460.44L446.399 461.272V462.616H448.447V471.192Z" fill="black"/>
<path d="M626.355 475H633.107C637.395 475 640.403 472.568 640.403 468.792C640.403 465.272 637.779 463.96 636.563 463.544C637.683 462.68 639.155 461.08 639.155 458.776C639.155 456.312 637.427 453.656 631.923 453.656H626.355V475ZM628.979 472.792V465.112H632.627C636.083 465.112 637.587 466.712 637.587 468.984C637.587 471.256 636.051 472.792 632.627 472.792H628.979ZM628.979 455.864H631.443C635.283 455.864 636.339 457.272 636.339 459.032C636.339 461.656 633.939 462.904 633.939 462.904H628.979V455.864ZM644.084 471.064C644.084 474.168 645.62 475.384 647.988 475.384C650.708 475.384 652.82 473.528 653.684 472.6C653.812 473.624 654.164 475.224 654.164 475.224L656.628 475C656.628 475 655.988 472.312 655.988 470.552V460.6H653.492V470.488C652.532 471.448 650.484 473.176 648.628 473.176C647.476 473.176 646.58 472.568 646.58 470.36V460.6H644.084V471.064ZM662.181 456.952C663.141 456.952 663.909 456.184 663.909 455.224C663.909 454.264 663.141 453.496 662.181 453.496C661.221 453.496 660.453 454.264 660.453 455.224C660.453 456.184 661.221 456.952 662.181 456.952ZM660.901 475H663.397V460.6H660.901V475ZM668.276 475H670.772V452.152L668.276 452.6V475ZM674.659 468.28C674.659 472.248 677.091 475.384 680.835 475.384C683.139 475.384 684.707 474.2 685.507 472.92C685.667 473.912 685.955 475.224 685.955 475.224L688.419 475C688.419 475 687.779 472.312 687.779 470.552V452.152L685.283 452.6V460.728C684.899 460.568 683.939 460.216 682.499 460.216C677.347 460.216 674.659 464.12 674.659 468.28ZM681.155 473.208C678.979 473.208 677.315 471.32 677.315 468.12C677.315 464.44 679.459 462.328 682.531 462.328C683.907 462.328 685.219 462.776 685.283 464.376V470.584C684.899 471.192 683.427 473.208 681.155 473.208ZM700.401 475H702.897V465.464C703.857 464.568 706.289 462.424 708.145 462.424C709.233 462.424 710.097 463.096 710.097 465.24V475H712.593V464.536C712.593 461.432 710.961 460.216 708.817 460.216C706.065 460.216 703.825 462.168 702.897 463.16V452.152L700.401 452.6V475ZM716.283 467.864C716.283 471.672 718.875 475.384 723.323 475.384C728.155 475.384 730.523 471.032 730.523 467.512C730.523 463.8 727.931 460.216 723.451 460.216C718.683 460.216 716.283 464.28 716.283 467.864ZM718.907 467.576C718.907 464.472 720.667 462.392 723.387 462.392C726.619 462.392 727.899 465.176 727.899 467.928C727.899 471.032 726.139 473.208 723.419 473.208C720.283 473.208 718.907 470.392 718.907 467.576ZM734.306 482.424L736.802 481.976V474.488C737.378 474.936 738.498 475.384 740.034 475.384C744.45 475.384 747.266 471.736 747.266 467.384C747.266 463.416 744.93 460.216 741.154 460.216C738.882 460.216 737.41 461.4 736.738 462.616V460.376L734.306 460.824V482.424ZM740.834 462.456C743.01 462.456 744.61 464.344 744.61 467.576C744.61 471.16 742.626 473.272 739.522 473.272C737.89 473.272 736.802 472.696 736.802 471.384V464.92C737.154 464.408 738.626 462.456 740.834 462.456ZM750.159 468.12C750.159 471.896 752.527 475.384 757.295 475.384C760.751 475.384 762.831 473.304 762.831 473.304L762.095 471.384C762.095 471.384 760.047 473.208 757.583 473.208C754.767 473.208 753.039 471.192 752.815 468.216L761.295 467.096L762.831 466.648C762.831 462.52 760.399 460.216 757.071 460.216C752.975 460.216 750.159 463.608 750.159 468.12ZM756.911 462.296C759.791 462.296 760.079 465.368 760.079 465.368L752.847 466.296C753.199 464.056 754.607 462.296 756.911 462.296ZM772.896 462.616H775.168V475H777.664V462.616H781.728V460.6H777.664V458.776C777.664 455.16 779.296 453.88 781.056 453.88C782.56 453.88 784 454.904 784 454.904L785.152 452.92C785.152 452.92 783.52 451.704 781.12 451.704C777.536 451.704 775.168 454.296 775.168 458.904V460.44L772.896 461.304V462.616ZM783.627 467.864C783.627 471.672 786.219 475.384 790.667 475.384C795.499 475.384 797.867 471.032 797.867 467.512C797.867 463.8 795.275 460.216 790.795 460.216C786.027 460.216 783.627 464.28 783.627 467.864ZM786.251 467.576C786.251 464.472 788.011 462.392 790.731 462.392C793.963 462.392 795.243 465.176 795.243 467.928C795.243 471.032 793.483 473.208 790.763 473.208C787.627 473.208 786.251 470.392 786.251 467.576ZM801.649 475H804.145V465.88C804.721 464.888 806.065 462.936 807.729 462.936C808.305 462.936 808.945 463.192 808.945 463.192L809.585 460.504C809.585 460.504 809.137 460.216 808.337 460.216C806.161 460.216 804.689 462.264 804.145 463.224V460.376L801.649 460.824V475ZM820.728 471.192C820.728 474.136 822.2 475.384 824.472 475.384C826.872 475.384 828.632 473.912 828.632 473.912L828.024 471.896C828.024 471.896 826.488 473.208 824.984 473.208C823.896 473.208 823.224 472.44 823.224 470.52V462.616H827.896V460.6H823.224V456.632L820.728 457.24V460.44L818.68 461.272V462.616H820.728V471.192ZM831.682 475H834.178V465.464C835.138 464.568 837.57 462.424 839.426 462.424C840.514 462.424 841.378 463.096 841.378 465.24V475H843.874V464.536C843.874 461.432 842.242 460.216 840.098 460.216C837.346 460.216 835.106 462.168 834.178 463.16V452.152L831.682 452.6V475ZM847.596 468.12C847.596 471.896 849.964 475.384 854.732 475.384C858.188 475.384 860.268 473.304 860.268 473.304L859.532 471.384C859.532 471.384 857.484 473.208 855.02 473.208C852.204 473.208 850.476 471.192 850.252 468.216L858.732 467.096L860.268 466.648C860.268 462.52 857.836 460.216 854.508 460.216C850.412 460.216 847.596 463.608 847.596 468.12ZM854.348 462.296C857.228 462.296 857.516 465.368 857.516 465.368L850.284 466.296C850.636 464.056 852.044 462.296 854.348 462.296ZM870.334 462.616H872.606V475H875.102V462.616H879.166V460.6H875.102V458.776C875.102 455.16 876.734 453.88 878.494 453.88C879.998 453.88 881.438 454.904 881.438 454.904L882.59 452.92C882.59 452.92 880.958 451.704 878.558 451.704C874.974 451.704 872.606 454.296 872.606 458.904V460.44L870.334 461.304V462.616ZM882.146 471.064C882.146 474.168 883.682 475.384 886.05 475.384C888.77 475.384 890.882 473.528 891.746 472.6C891.874 473.624 892.226 475.224 892.226 475.224L894.69 475C894.69 475 894.05 472.312 894.05 470.552V460.6H891.554V470.488C890.594 471.448 888.546 473.176 886.69 473.176C885.538 473.176 884.642 472.568 884.642 470.36V460.6H882.146V471.064ZM899.603 471.192C899.603 474.136 901.075 475.384 903.347 475.384C905.747 475.384 907.507 473.912 907.507 473.912L906.899 471.896C906.899 471.896 905.363 473.208 903.859 473.208C902.771 473.208 902.099 472.44 902.099 470.52V462.616H906.771V460.6H902.099V456.632L899.603 457.24V460.44L897.555 461.272V462.616H899.603V471.192ZM910.365 471.064C910.365 474.168 911.901 475.384 914.269 475.384C916.989 475.384 919.101 473.528 919.965 472.6C920.093 473.624 920.445 475.224 920.445 475.224L922.909 475C922.909 475 922.269 472.312 922.269 470.552V460.6H919.773V470.488C918.813 471.448 916.765 473.176 914.909 473.176C913.757 473.176 912.861 472.568 912.861 470.36V460.6H910.365V471.064ZM927.118 475H929.614V465.88C930.19 464.888 931.534 462.936 933.198 462.936C933.774 462.936 934.414 463.192 934.414 463.192L935.054 460.504C935.054 460.504 934.606 460.216 933.806 460.216C931.63 460.216 930.158 462.264 929.614 463.224V460.376L927.118 460.824V475ZM936.628 468.12C936.628 471.896 938.996 475.384 943.764 475.384C947.22 475.384 949.3 473.304 949.3 473.304L948.564 471.384C948.564 471.384 946.516 473.208 944.052 473.208C941.236 473.208 939.508 471.192 939.284 468.216L947.764 467.096L949.3 466.648C949.3 462.52 946.868 460.216 943.54 460.216C939.444 460.216 936.628 463.608 936.628 468.12ZM943.38 462.296C946.26 462.296 946.548 465.368 946.548 465.368L939.316 466.296C939.668 464.056 941.076 462.296 943.38 462.296Z" fill="black"/>
</svg>
