<svg width="1078" height="412" viewBox="0 0 1078 412" fill="none" xmlns="http://www.w3.org/2000/svg">
<rect x="1" y="1" width="1076" height="410" fill="#FAFAFA" stroke="#BDBDBD" stroke-width="2"/>
<path d="M43 371.496V148.991H270.14V371.496" stroke="#828282" stroke-width="4"/>
<path d="M552.906 371.496V148.991H780.046V371.496" stroke="#828282" stroke-width="4"/>
<path d="M297.953 371.496V148.991H525.093V371.496" stroke="#828282" stroke-width="4"/>
<path d="M807.859 371.496V148.991H1035V371.496" stroke="#828282" stroke-width="4"/>
<rect x="52.2695" y="160.578" width="45.1963" height="173.832" fill="#DFDDE2"/>
<rect x="562" y="161" width="45" height="142" fill="#EDE3E4"/>
<rect x="307" y="161" width="45" height="173" fill="#EFE8DF"/>
<rect x="817" y="161" width="45" height="173" fill="#D9DFE9"/>
<rect x="106.738" y="160.578" width="45.1963" height="202.804" fill="#DFDDE2"/>
<rect x="617" y="161" width="45" height="173" fill="#EDE3E4"/>
<rect x="362" y="161" width="45" height="142" fill="#EFE8DF"/>
<rect x="872" y="161" width="45" height="142" fill="#D9DFE9"/>
<rect x="216" y="161" width="45" height="160" fill="#DFDDE2"/>
<rect x="726" y="161" width="45" height="142" fill="#EDE3E4"/>
<rect x="471" y="161" width="45" height="155" fill="#EFE8DF"/>
<rect x="981" y="161" width="45" height="173" fill="#D9DFE9"/>
<rect x="161.207" y="160.578" width="45.1963" height="180.785" fill="#DFDDE2"/>
<rect x="671" y="161" width="45" height="173" fill="#EDE3E4"/>
<rect x="416" y="161" width="45" height="173" fill="#EFE8DF"/>
<rect x="926" y="161" width="45" height="142" fill="#D9DFE9"/>
<path d="M566.456 62.11H568.634L573.892 47.326H571.582L567.6 58.744L563.618 47.326H561.22L566.456 62.11ZM574.165 59.712C574.165 61.186 575.287 62.264 577.025 62.264C578.961 62.264 579.973 61.032 580.237 60.614C580.523 61.406 581.161 62.044 582.679 62.154L583.339 60.438C583.339 60.438 582.239 60.416 582.239 59.184V54.982C582.239 52.76 581.491 51.792 579.137 51.792C576.519 51.792 574.825 53.046 574.825 53.046L575.397 54.674C575.397 54.674 576.915 53.53 578.543 53.53C580.149 53.53 580.061 54.63 580.061 55.884C576.343 56.368 574.165 57.622 574.165 59.712ZM577.575 60.548C576.937 60.548 576.409 60.262 576.409 59.558C576.409 58.392 577.531 57.666 580.061 57.292V59.008C579.401 59.778 578.587 60.548 577.575 60.548ZM585.528 62H587.706V46.27L585.528 46.622V62ZM590.703 59.272C590.703 61.406 591.803 62.264 593.409 62.264C595.235 62.264 596.621 61.098 597.259 60.416C597.369 61.142 597.589 62.176 597.589 62.176L599.701 61.978C599.701 61.978 599.261 60.152 599.261 58.942V52.056H597.083V58.744C596.467 59.316 595.235 60.372 594.113 60.372C593.299 60.372 592.881 59.822 592.881 58.436V52.056H590.703V59.272ZM601.755 57.182C601.755 59.844 603.449 62.264 606.771 62.264C609.257 62.264 610.775 60.834 610.775 60.834L610.159 59.25C610.159 59.25 608.773 60.482 607.101 60.482C605.363 60.482 604.263 59.316 604.021 57.512L609.455 56.786L610.709 56.434C610.709 53.42 608.993 51.792 606.617 51.792C603.713 51.792 601.755 54.146 601.755 57.182ZM606.463 53.486C608.201 53.486 608.333 55.51 608.333 55.51L604.021 56.06C604.219 54.608 605.055 53.486 606.463 53.486ZM618.441 62H620.619V55.532C621.257 54.894 622.621 53.684 623.699 53.684C624.425 53.684 624.821 54.212 624.821 55.62V62H626.999V55.488C627.747 54.762 628.979 53.684 629.991 53.684C630.717 53.684 631.135 54.212 631.135 55.62V62H633.291V54.828C633.291 52.694 632.257 51.792 630.717 51.792C628.979 51.792 627.615 52.958 626.889 53.75C626.581 52.386 625.679 51.792 624.425 51.792C622.665 51.792 621.257 53.002 620.575 53.75V51.88L618.441 52.232V62ZM635.086 65.476L635.768 67.214C638.1 66.95 639.552 64.86 640.41 62.748L644.722 52.056H642.478L639.904 58.876L637.286 52.056H634.976L638.826 61.494L638.298 62.682C637.704 64.068 636.538 65.234 635.086 65.476ZM645.797 61.384C645.797 61.384 647.029 62.264 649.097 62.264C651.539 62.264 652.969 61.054 652.969 59.25C652.969 56.082 648.195 56.236 648.195 54.498C648.195 53.926 648.679 53.508 649.779 53.508C651.055 53.508 652.199 54.124 652.199 54.124L652.705 52.342C652.705 52.342 651.605 51.792 649.867 51.792C647.117 51.792 646.017 53.134 646.017 54.674C646.017 57.798 650.791 57.666 650.791 59.448C650.791 60.086 650.241 60.548 649.075 60.548C647.469 60.548 646.259 59.536 646.259 59.536L645.797 61.384ZM654.693 57.182C654.693 59.844 656.387 62.264 659.709 62.264C662.195 62.264 663.713 60.834 663.713 60.834L663.097 59.25C663.097 59.25 661.711 60.482 660.039 60.482C658.301 60.482 657.201 59.316 656.959 57.512L662.393 56.786L663.647 56.434C663.647 53.42 661.931 51.792 659.555 51.792C656.651 51.792 654.693 54.146 654.693 57.182ZM659.401 53.486C661.139 53.486 661.271 55.51 661.271 55.51L656.959 56.06C657.157 54.608 657.993 53.486 659.401 53.486ZM666.138 62H668.316V46.27L666.138 46.622V62ZM670.433 53.706H671.995V62H674.173V53.706H676.923V52.056H674.173V50.868C674.173 48.536 675.229 47.722 676.395 47.722C677.473 47.722 678.441 48.426 678.441 48.426L679.299 46.754C679.299 46.754 678.155 45.918 676.417 45.918C673.821 45.918 671.995 47.744 671.995 51V51.968L670.433 52.54V53.706ZM683.546 57.182C683.546 59.844 685.24 62.264 688.562 62.264C691.048 62.264 692.566 60.834 692.566 60.834L691.95 59.25C691.95 59.25 690.564 60.482 688.892 60.482C687.154 60.482 686.054 59.316 685.812 57.512L691.246 56.786L692.5 56.434C692.5 53.42 690.784 51.792 688.408 51.792C685.504 51.792 683.546 54.146 683.546 57.182ZM688.254 53.486C689.992 53.486 690.124 55.51 690.124 55.51L685.812 56.06C686.01 54.608 686.846 53.486 688.254 53.486ZM694.947 62H697.125V55.554C697.807 54.894 699.215 53.684 700.315 53.684C701.063 53.684 701.503 54.212 701.503 55.62V62H703.681V54.828C703.681 52.694 702.603 51.792 701.041 51.792C699.215 51.792 697.785 53.002 697.081 53.772V51.88L694.947 52.232V62ZM705.975 57.072C705.975 59.712 707.757 62.264 711.057 62.264C714.643 62.264 716.227 59.25 716.227 56.83C716.227 54.278 714.445 51.792 711.145 51.792C707.581 51.792 705.975 54.586 705.975 57.072ZM708.241 56.874C708.241 54.894 709.407 53.53 711.101 53.53C713.125 53.53 713.961 55.356 713.961 57.116C713.961 59.118 712.795 60.526 711.123 60.526C709.143 60.526 708.241 58.722 708.241 56.874ZM718.514 59.272C718.514 61.406 719.614 62.264 721.22 62.264C723.046 62.264 724.432 61.098 725.07 60.416C725.18 61.142 725.4 62.176 725.4 62.176L727.512 61.978C727.512 61.978 727.072 60.152 727.072 58.942V52.056H724.894V58.744C724.278 59.316 723.046 60.372 721.924 60.372C721.11 60.372 720.692 59.822 720.692 58.436V52.056H718.514V59.272ZM730.16 60.24C730.16 60.922 730.798 61.318 731.788 61.648C730.732 62.198 729.258 63.144 729.258 64.596C729.258 66.334 731.414 67.214 733.614 67.214C736.606 67.214 739.048 65.52 739.048 63.518C739.048 61.692 737.046 61.142 735.286 60.702C733.218 60.196 732.25 59.998 732.25 59.602C732.25 59.36 732.602 59.096 733.064 58.788C733.284 58.832 733.526 58.832 733.79 58.832C735.924 58.832 738.19 57.666 738.19 55.488C738.19 54.608 737.772 54.014 737.464 53.662C737.728 53.706 738.036 53.728 738.278 53.728H739.466L739.312 51.99C739.312 51.99 738.652 52.21 737.992 52.21H736.848C735.748 52.21 735.176 51.792 733.966 51.792C731.744 51.792 729.742 53.046 729.742 55.268C729.742 56.61 730.468 57.776 731.722 58.392C730.908 58.854 730.16 59.514 730.16 60.24ZM734.032 62.22C735.88 62.704 736.914 62.99 736.914 63.848C736.914 64.838 735.506 65.63 733.746 65.63C732.492 65.63 731.216 65.234 731.216 64.244C731.216 63.254 732.426 62.594 733.372 62.066C733.592 62.11 733.812 62.154 734.032 62.22ZM733.944 57.292C732.536 57.292 731.876 56.28 731.876 55.334C731.876 54.3 732.624 53.332 733.944 53.332C735.352 53.332 736.034 54.476 736.034 55.444C736.034 56.566 735.154 57.292 733.944 57.292ZM741.354 62H743.532V55.598C744.192 54.938 745.622 53.684 746.722 53.684C747.47 53.684 747.91 54.212 747.91 55.62V62H750.088V54.828C750.088 52.694 749.01 51.792 747.426 51.792C745.6 51.792 744.192 53.024 743.532 53.728V46.27L741.354 46.622V62ZM758.877 59.294C758.877 61.34 759.999 62.264 761.715 62.264C763.475 62.264 764.773 61.208 764.773 61.208L764.223 59.558C763.959 59.712 763.035 60.438 762.199 60.438C761.473 60.438 761.055 59.954 761.055 58.744V53.706H764.201V52.056H761.055V49.24L758.921 49.702V51.968L757.403 52.518V53.706H758.877V59.294ZM765.981 57.072C765.981 59.712 767.763 62.264 771.063 62.264C774.649 62.264 776.233 59.25 776.233 56.83C776.233 54.278 774.451 51.792 771.151 51.792C767.587 51.792 765.981 54.586 765.981 57.072ZM768.247 56.874C768.247 54.894 769.413 53.53 771.107 53.53C773.131 53.53 773.967 55.356 773.967 57.116C773.967 59.118 772.801 60.526 771.129 60.526C769.149 60.526 768.247 58.722 768.247 56.874ZM563.068 89.294C563.068 91.34 564.19 92.264 565.906 92.264C567.666 92.264 568.964 91.208 568.964 91.208L568.414 89.558C568.15 89.712 567.226 90.438 566.39 90.438C565.664 90.438 565.246 89.954 565.246 88.744V83.706H568.392V82.056H565.246V79.24L563.112 79.702V81.968L561.594 82.518V83.706H563.068V89.294ZM570.018 89.712C570.018 91.186 571.14 92.264 572.878 92.264C574.814 92.264 575.826 91.032 576.09 90.614C576.376 91.406 577.014 92.044 578.532 92.154L579.192 90.438C579.192 90.438 578.092 90.416 578.092 89.184V84.982C578.092 82.76 577.344 81.792 574.99 81.792C572.372 81.792 570.678 83.046 570.678 83.046L571.25 84.674C571.25 84.674 572.768 83.53 574.396 83.53C576.002 83.53 575.914 84.63 575.914 85.884C572.196 86.368 570.018 87.622 570.018 89.712ZM573.428 90.548C572.79 90.548 572.262 90.262 572.262 89.558C572.262 88.392 573.384 87.666 575.914 87.292V89.008C575.254 89.778 574.44 90.548 573.428 90.548ZM581.382 92H583.56V87.292H583.868L587.828 92H590.622L585.782 86.412L590.314 82.056H587.476L583.868 85.686H583.56V76.27L581.382 76.622V92ZM591.163 87.182C591.163 89.844 592.857 92.264 596.179 92.264C598.665 92.264 600.183 90.834 600.183 90.834L599.567 89.25C599.567 89.25 598.181 90.482 596.509 90.482C594.771 90.482 593.671 89.316 593.429 87.512L598.863 86.786L600.117 86.434C600.117 83.42 598.401 81.792 596.025 81.792C593.121 81.792 591.163 84.146 591.163 87.182ZM595.871 83.486C597.609 83.486 597.741 85.51 597.741 85.51L593.429 86.06C593.627 84.608 594.463 83.486 595.871 83.486ZM607.212 87.16C607.212 90.042 609.214 92.264 612.316 92.264C614.692 92.264 615.836 90.988 615.836 90.988L615.132 89.448C615.132 89.448 614.054 90.482 612.47 90.482C610.6 90.482 609.478 89.008 609.478 87.05C609.478 85.026 610.688 83.552 612.492 83.552C613.944 83.552 614.978 84.476 614.978 84.476L615.836 82.848C615.836 82.848 614.626 81.792 612.448 81.792C609.17 81.792 607.212 84.41 607.212 87.16ZM617.18 87.072C617.18 89.712 618.962 92.264 622.262 92.264C625.848 92.264 627.432 89.25 627.432 86.83C627.432 84.278 625.65 81.792 622.35 81.792C618.786 81.792 617.18 84.586 617.18 87.072ZM619.446 86.874C619.446 84.894 620.612 83.53 622.306 83.53C624.33 83.53 625.166 85.356 625.166 87.116C625.166 89.118 624 90.526 622.328 90.526C620.348 90.526 619.446 88.722 619.446 86.874ZM629.785 92H631.963V85.554C632.645 84.894 634.053 83.684 635.153 83.684C635.901 83.684 636.341 84.212 636.341 85.62V92H638.519V84.828C638.519 82.694 637.441 81.792 635.879 81.792C634.053 81.792 632.623 83.002 631.919 83.772V81.88L629.785 82.232V92ZM640.791 91.384C640.791 91.384 642.023 92.264 644.091 92.264C646.533 92.264 647.963 91.054 647.963 89.25C647.963 86.082 643.189 86.236 643.189 84.498C643.189 83.926 643.673 83.508 644.773 83.508C646.049 83.508 647.193 84.124 647.193 84.124L647.699 82.342C647.699 82.342 646.599 81.792 644.861 81.792C642.111 81.792 641.011 83.134 641.011 84.674C641.011 87.798 645.785 87.666 645.785 89.448C645.785 90.086 645.235 90.548 644.069 90.548C642.463 90.548 641.253 89.536 641.253 89.536L640.791 91.384ZM651.447 79.68C652.239 79.68 652.833 79.108 652.833 78.338C652.833 77.568 652.239 76.996 651.447 76.996C650.677 76.996 650.083 77.568 650.083 78.338C650.083 79.108 650.677 79.68 651.447 79.68ZM650.347 92H652.525V82.056H650.347V92ZM654.928 91.384C654.928 91.384 656.16 92.264 658.228 92.264C660.67 92.264 662.1 91.054 662.1 89.25C662.1 86.082 657.326 86.236 657.326 84.498C657.326 83.926 657.81 83.508 658.91 83.508C660.186 83.508 661.33 84.124 661.33 84.124L661.836 82.342C661.836 82.342 660.736 81.792 658.998 81.792C656.248 81.792 655.148 83.134 655.148 84.674C655.148 87.798 659.922 87.666 659.922 89.448C659.922 90.086 659.372 90.548 658.206 90.548C656.6 90.548 655.39 89.536 655.39 89.536L654.928 91.384ZM665.011 89.294C665.011 91.34 666.133 92.264 667.849 92.264C669.609 92.264 670.907 91.208 670.907 91.208L670.357 89.558C670.093 89.712 669.169 90.438 668.333 90.438C667.607 90.438 667.189 89.954 667.189 88.744V83.706H670.335V82.056H667.189V79.24L665.055 79.702V81.968L663.537 82.518V83.706H665.011V89.294ZM672.138 87.182C672.138 89.844 673.832 92.264 677.154 92.264C679.64 92.264 681.158 90.834 681.158 90.834L680.542 89.25C680.542 89.25 679.156 90.482 677.484 90.482C675.746 90.482 674.646 89.316 674.404 87.512L679.838 86.786L681.092 86.434C681.092 83.42 679.376 81.792 677 81.792C674.096 81.792 672.138 84.146 672.138 87.182ZM676.846 83.486C678.584 83.486 678.716 85.51 678.716 85.51L674.404 86.06C674.602 84.608 675.438 83.486 676.846 83.486ZM683.539 92H685.717V85.554C686.399 84.894 687.807 83.684 688.907 83.684C689.655 83.684 690.095 84.212 690.095 85.62V92H692.273V84.828C692.273 82.694 691.195 81.792 689.633 81.792C687.807 81.792 686.377 83.002 685.673 83.772V81.88L683.539 82.232V92ZM695.777 89.294C695.777 91.34 696.899 92.264 698.615 92.264C700.375 92.264 701.673 91.208 701.673 91.208L701.123 89.558C700.859 89.712 699.935 90.438 699.099 90.438C698.373 90.438 697.955 89.954 697.955 88.744V83.706H701.101V82.056H697.955V79.24L695.821 79.702V81.968L694.303 82.518V83.706H695.777V89.294ZM708.013 89.712C708.013 91.186 709.135 92.264 710.873 92.264C712.809 92.264 713.821 91.032 714.085 90.614C714.371 91.406 715.009 92.044 716.527 92.154L717.187 90.438C717.187 90.438 716.087 90.416 716.087 89.184V84.982C716.087 82.76 715.339 81.792 712.985 81.792C710.367 81.792 708.673 83.046 708.673 83.046L709.245 84.674C709.245 84.674 710.763 83.53 712.391 83.53C713.997 83.53 713.909 84.63 713.909 85.884C710.191 86.368 708.013 87.622 708.013 89.712ZM711.423 90.548C710.785 90.548 710.257 90.262 710.257 89.558C710.257 88.392 711.379 87.666 713.909 87.292V89.008C713.249 89.778 712.435 90.548 711.423 90.548ZM718.694 87.16C718.694 90.042 720.696 92.264 723.798 92.264C726.174 92.264 727.318 90.988 727.318 90.988L726.614 89.448C726.614 89.448 725.536 90.482 723.952 90.482C722.082 90.482 720.96 89.008 720.96 87.05C720.96 85.026 722.17 83.552 723.974 83.552C725.426 83.552 726.46 84.476 726.46 84.476L727.318 82.848C727.318 82.848 726.108 81.792 723.93 81.792C720.652 81.792 718.694 84.41 718.694 87.16ZM730.045 89.294C730.045 91.34 731.167 92.264 732.883 92.264C734.643 92.264 735.941 91.208 735.941 91.208L735.391 89.558C735.127 89.712 734.203 90.438 733.367 90.438C732.641 90.438 732.223 89.954 732.223 88.744V83.706H735.369V82.056H732.223V79.24L730.089 79.702V81.968L728.571 82.518V83.706H730.045V89.294ZM738.931 79.68C739.723 79.68 740.317 79.108 740.317 78.338C740.317 77.568 739.723 76.996 738.931 76.996C738.161 76.996 737.567 77.568 737.567 78.338C737.567 79.108 738.161 79.68 738.931 79.68ZM737.831 92H740.009V82.056H737.831V92ZM742.434 87.072C742.434 89.712 744.216 92.264 747.516 92.264C751.102 92.264 752.686 89.25 752.686 86.83C752.686 84.278 750.904 81.792 747.604 81.792C744.04 81.792 742.434 84.586 742.434 87.072ZM744.7 86.874C744.7 84.894 745.866 83.53 747.56 83.53C749.584 83.53 750.42 85.356 750.42 87.116C750.42 89.118 749.254 90.526 747.582 90.526C745.602 90.526 744.7 88.722 744.7 86.874ZM755.039 92H757.217V85.554C757.899 84.894 759.307 83.684 760.407 83.684C761.155 83.684 761.595 84.212 761.595 85.62V92H763.773V84.828C763.773 82.694 762.695 81.792 761.133 81.792C759.307 81.792 757.877 83.002 757.173 83.772V81.88L755.039 82.232V92ZM766.045 91.384C766.045 91.384 767.277 92.264 769.345 92.264C771.787 92.264 773.217 91.054 773.217 89.25C773.217 86.082 768.443 86.236 768.443 84.498C768.443 83.926 768.927 83.508 770.027 83.508C771.303 83.508 772.447 84.124 772.447 84.124L772.953 82.342C772.953 82.342 771.853 81.792 770.115 81.792C767.365 81.792 766.265 83.134 766.265 84.674C766.265 87.798 771.039 87.666 771.039 89.448C771.039 90.086 770.489 90.548 769.323 90.548C767.717 90.548 766.507 89.536 766.507 89.536L766.045 91.384ZM563.068 119.294C563.068 121.34 564.19 122.264 565.906 122.264C567.666 122.264 568.964 121.208 568.964 121.208L568.414 119.558C568.15 119.712 567.226 120.438 566.39 120.438C565.664 120.438 565.246 119.954 565.246 118.744V113.706H568.392V112.056H565.246V109.24L563.112 109.702V111.968L561.594 112.518V113.706H563.068V119.294ZM570.172 117.072C570.172 119.712 571.954 122.264 575.254 122.264C578.84 122.264 580.424 119.25 580.424 116.83C580.424 114.278 578.642 111.792 575.342 111.792C571.778 111.792 570.172 114.586 570.172 117.072ZM572.438 116.874C572.438 114.894 573.604 113.53 575.298 113.53C577.322 113.53 578.158 115.356 578.158 117.116C578.158 119.118 576.992 120.526 575.32 120.526C573.34 120.526 572.438 118.722 572.438 116.874ZM588.062 121.78C588.81 121.956 590.504 122.264 591.692 122.264C595.454 122.264 597.258 119.58 597.258 116.676C597.258 113.948 595.674 111.792 592.924 111.792C591.56 111.792 590.746 112.342 590.24 112.914V106.27L588.062 106.622V121.78ZM592.572 113.552C594.024 113.552 595.014 114.762 595.014 116.83C595.014 119.294 593.628 120.614 591.736 120.614C590.922 120.614 590.24 120.394 590.24 120.394V114.586C590.702 114.168 591.538 113.552 592.572 113.552ZM599.048 117.182C599.048 119.844 600.742 122.264 604.064 122.264C606.55 122.264 608.068 120.834 608.068 120.834L607.452 119.25C607.452 119.25 606.066 120.482 604.394 120.482C602.656 120.482 601.556 119.316 601.314 117.512L606.748 116.786L608.002 116.434C608.002 113.42 606.286 111.792 603.91 111.792C601.006 111.792 599.048 114.146 599.048 117.182ZM603.756 113.486C605.494 113.486 605.626 115.51 605.626 115.51L601.314 116.06C601.512 114.608 602.348 113.486 603.756 113.486ZM611.021 119.294C611.021 121.34 612.143 122.264 613.859 122.264C615.619 122.264 616.917 121.208 616.917 121.208L616.367 119.558C616.103 119.712 615.179 120.438 614.343 120.438C613.617 120.438 613.199 119.954 613.199 118.744V113.706H616.345V112.056H613.199V109.24L611.065 109.702V111.968L609.547 112.518V113.706H611.021V119.294ZM619.336 119.294C619.336 121.34 620.458 122.264 622.174 122.264C623.934 122.264 625.232 121.208 625.232 121.208L624.682 119.558C624.418 119.712 623.494 120.438 622.658 120.438C621.932 120.438 621.514 119.954 621.514 118.744V113.706H624.66V112.056H621.514V109.24L619.38 109.702V111.968L617.862 112.518V113.706H619.336V119.294ZM626.462 117.182C626.462 119.844 628.156 122.264 631.478 122.264C633.964 122.264 635.482 120.834 635.482 120.834L634.866 119.25C634.866 119.25 633.48 120.482 631.808 120.482C630.07 120.482 628.97 119.316 628.728 117.512L634.162 116.786L635.416 116.434C635.416 113.42 633.7 111.792 631.324 111.792C628.42 111.792 626.462 114.146 626.462 117.182ZM631.17 113.486C632.908 113.486 633.04 115.51 633.04 115.51L628.728 116.06C628.926 114.608 629.762 113.486 631.17 113.486ZM637.863 122H640.041V115.84C640.459 115.18 641.361 113.992 642.461 113.992C642.901 113.992 643.341 114.168 643.341 114.168L643.781 111.968C643.781 111.968 643.473 111.792 642.923 111.792C641.405 111.792 640.393 113.2 639.997 113.882V111.88L637.863 112.232V122ZM650.797 122H652.975V115.532C653.613 114.894 654.977 113.684 656.055 113.684C656.781 113.684 657.177 114.212 657.177 115.62V122H659.355V115.488C660.103 114.762 661.335 113.684 662.347 113.684C663.073 113.684 663.491 114.212 663.491 115.62V122H665.647V114.828C665.647 112.694 664.613 111.792 663.073 111.792C661.335 111.792 659.971 112.958 659.245 113.75C658.937 112.386 658.035 111.792 656.781 111.792C655.021 111.792 653.613 113.002 652.931 113.75V111.88L650.797 112.232V122ZM667.442 125.476L668.124 127.214C670.456 126.95 671.908 124.86 672.766 122.748L677.078 112.056H674.834L672.26 118.876L669.642 112.056H667.332L671.182 121.494L670.654 122.682C670.06 124.068 668.894 125.234 667.442 125.476ZM684.142 122H686.32V115.598C686.98 114.938 688.41 113.684 689.51 113.684C690.258 113.684 690.698 114.212 690.698 115.62V122H692.876V114.828C692.876 112.694 691.798 111.792 690.214 111.792C688.388 111.792 686.98 113.024 686.32 113.728V106.27L684.142 106.622V122ZM695.191 117.182C695.191 119.844 696.885 122.264 700.207 122.264C702.693 122.264 704.211 120.834 704.211 120.834L703.595 119.25C703.595 119.25 702.209 120.482 700.537 120.482C698.799 120.482 697.699 119.316 697.457 117.512L702.891 116.786L704.145 116.434C704.145 113.42 702.429 111.792 700.053 111.792C697.149 111.792 695.191 114.146 695.191 117.182ZM699.899 113.486C701.637 113.486 701.769 115.51 701.769 115.51L697.457 116.06C697.655 114.608 698.491 113.486 699.899 113.486ZM705.8 119.712C705.8 121.186 706.922 122.264 708.66 122.264C710.596 122.264 711.608 121.032 711.872 120.614C712.158 121.406 712.796 122.044 714.314 122.154L714.974 120.438C714.974 120.438 713.874 120.416 713.874 119.184V114.982C713.874 112.76 713.126 111.792 710.772 111.792C708.154 111.792 706.46 113.046 706.46 113.046L707.032 114.674C707.032 114.674 708.55 113.53 710.178 113.53C711.784 113.53 711.696 114.63 711.696 115.884C707.978 116.368 705.8 117.622 705.8 119.712ZM709.21 120.548C708.572 120.548 708.044 120.262 708.044 119.558C708.044 118.392 709.166 117.666 711.696 117.292V119.008C711.036 119.778 710.222 120.548 709.21 120.548ZM717.163 122H719.341V106.27L717.163 106.622V122ZM722.976 119.294C722.976 121.34 724.098 122.264 725.814 122.264C727.574 122.264 728.872 121.208 728.872 121.208L728.322 119.558C728.058 119.712 727.134 120.438 726.298 120.438C725.572 120.438 725.154 119.954 725.154 118.744V113.706H728.3V112.056H725.154V109.24L723.02 109.702V111.968L721.502 112.518V113.706H722.976V119.294ZM730.763 122H732.941V115.598C733.601 114.938 735.031 113.684 736.131 113.684C736.879 113.684 737.319 114.212 737.319 115.62V122H739.497V114.828C739.497 112.694 738.419 111.792 736.835 111.792C735.009 111.792 733.601 113.024 732.941 113.728V106.27L730.763 106.622V122ZM742.142 120.79C742.142 121.604 742.802 122.264 743.616 122.264C744.43 122.264 745.112 121.604 745.112 120.79C745.112 119.954 744.43 119.294 743.616 119.294C742.802 119.294 742.142 119.954 742.142 120.79Z" fill="#333333"/>
<path d="M308.002 62H313.062C316.01 62 318.078 60.328 318.078 57.732C318.078 55.4 316.384 54.432 315.526 54.08C316.296 53.486 317.286 52.408 317.286 50.846C317.286 49.152 316.098 47.326 312.314 47.326H308.002V62ZM310.268 60.108V55.422H312.732C314.778 55.422 315.68 56.412 315.68 57.776C315.68 59.162 314.778 60.108 312.732 60.108H310.268ZM310.268 49.218H311.984C314.272 49.218 314.888 50.12 314.888 51.22C314.888 52.804 313.48 53.552 313.48 53.552H310.268V49.218ZM319.943 57.182C319.943 59.844 321.637 62.264 324.959 62.264C327.445 62.264 328.963 60.834 328.963 60.834L328.347 59.25C328.347 59.25 326.961 60.482 325.289 60.482C323.551 60.482 322.451 59.316 322.209 57.512L327.643 56.786L328.897 56.434C328.897 53.42 327.181 51.792 324.805 51.792C321.901 51.792 319.943 54.146 319.943 57.182ZM324.651 53.486C326.389 53.486 326.521 55.51 326.521 55.51L322.209 56.06C322.407 54.608 323.243 53.486 324.651 53.486ZM331.388 62H333.566V46.27L331.388 46.622V62ZM337.773 49.68C338.565 49.68 339.159 49.108 339.159 48.338C339.159 47.568 338.565 46.996 337.773 46.996C337.003 46.996 336.409 47.568 336.409 48.338C336.409 49.108 337.003 49.68 337.773 49.68ZM336.673 62H338.851V52.056H336.673V62ZM341.298 57.182C341.298 59.844 342.992 62.264 346.314 62.264C348.8 62.264 350.318 60.834 350.318 60.834L349.702 59.25C349.702 59.25 348.316 60.482 346.644 60.482C344.906 60.482 343.806 59.316 343.564 57.512L348.998 56.786L350.252 56.434C350.252 53.42 348.536 51.792 346.16 51.792C343.256 51.792 341.298 54.146 341.298 57.182ZM346.006 53.486C347.744 53.486 347.876 55.51 347.876 55.51L343.564 56.06C343.762 54.608 344.598 53.486 346.006 53.486ZM355.097 62.088H357.121L361.213 52.056H358.991L356.197 59.272L353.777 52.056H351.489L355.097 62.088ZM362.224 57.182C362.224 59.844 363.918 62.264 367.24 62.264C369.726 62.264 371.244 60.834 371.244 60.834L370.628 59.25C370.628 59.25 369.242 60.482 367.57 60.482C365.832 60.482 364.732 59.316 364.49 57.512L369.924 56.786L371.178 56.434C371.178 53.42 369.462 51.792 367.086 51.792C364.182 51.792 362.224 54.146 362.224 57.182ZM366.932 53.486C368.67 53.486 368.802 55.51 368.802 55.51L364.49 56.06C364.688 54.608 365.524 53.486 366.932 53.486ZM379.482 59.294C379.482 61.34 380.604 62.264 382.32 62.264C384.08 62.264 385.378 61.208 385.378 61.208L384.828 59.558C384.564 59.712 383.64 60.438 382.804 60.438C382.078 60.438 381.66 59.954 381.66 58.744V53.706H384.806V52.056H381.66V49.24L379.526 49.702V51.968L378.008 52.518V53.706H379.482V59.294ZM387.269 62H389.447V55.598C390.107 54.938 391.537 53.684 392.637 53.684C393.385 53.684 393.825 54.212 393.825 55.62V62H396.003V54.828C396.003 52.694 394.925 51.792 393.341 51.792C391.515 51.792 390.107 53.024 389.447 53.728V46.27L387.269 46.622V62ZM398.142 59.712C398.142 61.186 399.264 62.264 401.002 62.264C402.938 62.264 403.95 61.032 404.214 60.614C404.5 61.406 405.138 62.044 406.656 62.154L407.316 60.438C407.316 60.438 406.216 60.416 406.216 59.184V54.982C406.216 52.76 405.468 51.792 403.114 51.792C400.496 51.792 398.802 53.046 398.802 53.046L399.374 54.674C399.374 54.674 400.892 53.53 402.52 53.53C404.126 53.53 404.038 54.63 404.038 55.884C400.32 56.368 398.142 57.622 398.142 59.712ZM401.552 60.548C400.914 60.548 400.386 60.262 400.386 59.558C400.386 58.392 401.508 57.666 404.038 57.292V59.008C403.378 59.778 402.564 60.548 401.552 60.548ZM409.947 59.294C409.947 61.34 411.069 62.264 412.785 62.264C414.545 62.264 415.843 61.208 415.843 61.208L415.293 59.558C415.029 59.712 414.105 60.438 413.269 60.438C412.543 60.438 412.125 59.954 412.125 58.744V53.706H415.271V52.056H412.125V49.24L409.991 49.702V51.968L408.473 52.518V53.706H409.947V59.294ZM427.485 52.144L429.399 51.066C428.365 49.966 428.079 49.35 428.079 48.646C428.079 47.876 428.453 47.194 429.289 46.556L428.453 45.676C427.045 46.754 426.319 48.074 426.319 49.394C426.319 50.34 426.649 51.242 427.485 52.144ZM423.635 52.144L425.549 51.066C424.515 49.966 424.229 49.35 424.229 48.646C424.229 47.876 424.603 47.194 425.439 46.556L424.603 45.676C423.195 46.754 422.469 48.074 422.469 49.394C422.469 50.34 422.799 51.242 423.635 52.144ZM432.096 62H434.362V47.326H432.096V62ZM442.532 57.16C442.532 60.042 444.534 62.264 447.636 62.264C450.012 62.264 451.156 60.988 451.156 60.988L450.452 59.448C450.452 59.448 449.374 60.482 447.79 60.482C445.92 60.482 444.798 59.008 444.798 57.05C444.798 55.026 446.008 53.552 447.812 53.552C449.264 53.552 450.298 54.476 450.298 54.476L451.156 52.848C451.156 52.848 449.946 51.792 447.768 51.792C444.49 51.792 442.532 54.41 442.532 57.16ZM452.518 59.712C452.518 61.186 453.64 62.264 455.378 62.264C457.314 62.264 458.326 61.032 458.59 60.614C458.876 61.406 459.514 62.044 461.032 62.154L461.692 60.438C461.692 60.438 460.592 60.416 460.592 59.184V54.982C460.592 52.76 459.844 51.792 457.49 51.792C454.872 51.792 453.178 53.046 453.178 53.046L453.75 54.674C453.75 54.674 455.268 53.53 456.896 53.53C458.502 53.53 458.414 54.63 458.414 55.884C454.696 56.368 452.518 57.622 452.518 59.712ZM455.928 60.548C455.29 60.548 454.762 60.262 454.762 59.558C454.762 58.392 455.884 57.666 458.414 57.292V59.008C457.754 59.778 456.94 60.548 455.928 60.548ZM463.838 62H466.016V55.554C466.698 54.894 468.106 53.684 469.206 53.684C469.954 53.684 470.394 54.212 470.394 55.62V62H472.572V54.828C472.572 52.694 471.494 51.792 469.932 51.792C468.106 51.792 466.676 53.002 465.972 53.772V51.88L463.838 52.232V62ZM480.173 57.336C480.173 60.064 481.845 62.264 484.441 62.264C486.025 62.264 487.037 61.494 487.565 60.636C487.675 61.34 487.873 62.154 487.873 62.154L489.963 62C489.963 62 489.523 60.152 489.523 58.942V46.27L487.345 46.622V52.122C487.059 52.012 486.399 51.792 485.497 51.792C481.977 51.792 480.173 54.498 480.173 57.336ZM484.815 60.526C483.407 60.526 482.461 59.272 482.461 57.204C482.461 54.828 483.715 53.508 485.607 53.508C486.509 53.508 487.301 53.838 487.345 54.828V58.92C487.037 59.382 486.157 60.526 484.815 60.526ZM491.967 57.072C491.967 59.712 493.749 62.264 497.049 62.264C500.635 62.264 502.219 59.25 502.219 56.83C502.219 54.278 500.437 51.792 497.137 51.792C493.573 51.792 491.967 54.586 491.967 57.072ZM494.233 56.874C494.233 54.894 495.399 53.53 497.093 53.53C499.117 53.53 499.953 55.356 499.953 57.116C499.953 59.118 498.787 60.526 497.115 60.526C495.135 60.526 494.233 58.722 494.233 56.874ZM308.068 89.294C308.068 91.34 309.19 92.264 310.906 92.264C312.666 92.264 313.964 91.208 313.964 91.208L313.414 89.558C313.15 89.712 312.226 90.438 311.39 90.438C310.664 90.438 310.246 89.954 310.246 88.744V83.706H313.392V82.056H310.246V79.24L308.112 79.702V81.968L306.594 82.518V83.706H308.068V89.294ZM315.854 92H318.032V85.598C318.692 84.938 320.122 83.684 321.222 83.684C321.97 83.684 322.41 84.212 322.41 85.62V92H324.588V84.828C324.588 82.694 323.51 81.792 321.926 81.792C320.1 81.792 318.692 83.024 318.032 83.728V76.27L315.854 76.622V92ZM328.663 79.68C329.455 79.68 330.049 79.108 330.049 78.338C330.049 77.568 329.455 76.996 328.663 76.996C327.893 76.996 327.299 77.568 327.299 78.338C327.299 79.108 327.893 79.68 328.663 79.68ZM327.563 92H329.741V82.056H327.563V92ZM332.145 91.384C332.145 91.384 333.377 92.264 335.445 92.264C337.887 92.264 339.317 91.054 339.317 89.25C339.317 86.082 334.543 86.236 334.543 84.498C334.543 83.926 335.027 83.508 336.127 83.508C337.403 83.508 338.547 84.124 338.547 84.124L339.053 82.342C339.053 82.342 337.953 81.792 336.215 81.792C333.465 81.792 332.365 83.134 332.365 84.674C332.365 87.798 337.139 87.666 337.139 89.448C337.139 90.086 336.589 90.548 335.423 90.548C333.817 90.548 332.607 89.536 332.607 89.536L332.145 91.384ZM345.66 82.144C347.068 81.044 347.794 79.746 347.794 78.404C347.794 77.458 347.464 76.556 346.628 75.676L344.714 76.732C345.748 77.832 346.034 78.448 346.034 79.152C346.034 79.922 345.66 80.604 344.824 81.242L345.66 82.144ZM341.81 82.144C343.218 81.044 343.944 79.746 343.944 78.404C343.944 77.458 343.614 76.556 342.778 75.676L340.842 76.732C341.898 77.832 342.184 78.448 342.184 79.152C342.184 79.922 341.81 80.604 340.974 81.242L341.81 82.144ZM357.518 92.088H359.63L362.182 85.004L364.47 92.088H366.604L370.168 82.056H367.946L365.548 89.536L363.216 82.056H361.324L358.75 89.58L356.572 82.056H354.328L357.518 92.088ZM373.136 79.68C373.928 79.68 374.522 79.108 374.522 78.338C374.522 77.568 373.928 76.996 373.136 76.996C372.366 76.996 371.772 77.568 371.772 78.338C371.772 79.108 372.366 79.68 373.136 79.68ZM372.036 92H374.214V82.056H372.036V92ZM377.849 89.294C377.849 91.34 378.971 92.264 380.687 92.264C382.447 92.264 383.745 91.208 383.745 91.208L383.195 89.558C382.931 89.712 382.007 90.438 381.171 90.438C380.445 90.438 380.027 89.954 380.027 88.744V83.706H383.173V82.056H380.027V79.24L377.893 79.702V81.968L376.375 82.518V83.706H377.849V89.294ZM385.636 92H387.814V85.598C388.474 84.938 389.904 83.684 391.004 83.684C391.752 83.684 392.192 84.212 392.192 85.62V92H394.37V84.828C394.37 82.694 393.292 81.792 391.708 81.792C389.882 81.792 388.474 83.024 387.814 83.728V76.27L385.636 76.622V92ZM403.158 89.294C403.158 91.34 404.28 92.264 405.996 92.264C407.756 92.264 409.054 91.208 409.054 91.208L408.504 89.558C408.24 89.712 407.316 90.438 406.48 90.438C405.754 90.438 405.336 89.954 405.336 88.744V83.706H408.482V82.056H405.336V79.24L403.202 79.702V81.968L401.684 82.518V83.706H403.158V89.294ZM410.944 92H413.122V85.598C413.782 84.938 415.212 83.684 416.312 83.684C417.06 83.684 417.5 84.212 417.5 85.62V92H419.678V84.828C419.678 82.694 418.6 81.792 417.016 81.792C415.19 81.792 413.782 83.024 413.122 83.728V76.27L410.944 76.622V92ZM421.993 87.182C421.993 89.844 423.687 92.264 427.009 92.264C429.495 92.264 431.013 90.834 431.013 90.834L430.397 89.25C430.397 89.25 429.011 90.482 427.339 90.482C425.601 90.482 424.501 89.316 424.259 87.512L429.693 86.786L430.947 86.434C430.947 83.42 429.231 81.792 426.855 81.792C423.951 81.792 421.993 84.146 421.993 87.182ZM426.701 83.486C428.439 83.486 428.571 85.51 428.571 85.51L424.259 86.06C424.457 84.608 425.293 83.486 426.701 83.486ZM438.68 92H440.858V85.84C441.276 85.18 442.178 83.992 443.278 83.992C443.718 83.992 444.158 84.168 444.158 84.168L444.598 81.968C444.598 81.968 444.29 81.792 443.74 81.792C442.222 81.792 441.21 83.2 440.814 83.882V81.88L438.68 82.232V92ZM447.472 79.68C448.264 79.68 448.858 79.108 448.858 78.338C448.858 77.568 448.264 76.996 447.472 76.996C446.702 76.996 446.108 77.568 446.108 78.338C446.108 79.108 446.702 79.68 447.472 79.68ZM446.372 92H448.55V82.056H446.372V92ZM451.591 90.24C451.591 90.922 452.229 91.318 453.219 91.648C452.163 92.198 450.689 93.144 450.689 94.596C450.689 96.334 452.845 97.214 455.045 97.214C458.037 97.214 460.479 95.52 460.479 93.518C460.479 91.692 458.477 91.142 456.717 90.702C454.649 90.196 453.681 89.998 453.681 89.602C453.681 89.36 454.033 89.096 454.495 88.788C454.715 88.832 454.957 88.832 455.221 88.832C457.355 88.832 459.621 87.666 459.621 85.488C459.621 84.608 459.203 84.014 458.895 83.662C459.159 83.706 459.467 83.728 459.709 83.728H460.897L460.743 81.99C460.743 81.99 460.083 82.21 459.423 82.21H458.279C457.179 82.21 456.607 81.792 455.397 81.792C453.175 81.792 451.173 83.046 451.173 85.268C451.173 86.61 451.899 87.776 453.153 88.392C452.339 88.854 451.591 89.514 451.591 90.24ZM455.463 92.22C457.311 92.704 458.345 92.99 458.345 93.848C458.345 94.838 456.937 95.63 455.177 95.63C453.923 95.63 452.647 95.234 452.647 94.244C452.647 93.254 453.857 92.594 454.803 92.066C455.023 92.11 455.243 92.154 455.463 92.22ZM455.375 87.292C453.967 87.292 453.307 86.28 453.307 85.334C453.307 84.3 454.055 83.332 455.375 83.332C456.783 83.332 457.465 84.476 457.465 85.444C457.465 86.566 456.585 87.292 455.375 87.292ZM462.786 92H464.964V85.598C465.624 84.938 467.054 83.684 468.154 83.684C468.902 83.684 469.342 84.212 469.342 85.62V92H471.52V84.828C471.52 82.694 470.442 81.792 468.858 81.792C467.032 81.792 465.624 83.024 464.964 83.728V76.27L462.786 76.622V92ZM475.023 89.294C475.023 91.34 476.145 92.264 477.861 92.264C479.621 92.264 480.919 91.208 480.919 91.208L480.369 89.558C480.105 89.712 479.181 90.438 478.345 90.438C477.619 90.438 477.201 89.954 477.201 88.744V83.706H480.347V82.056H477.201V79.24L475.067 79.702V81.968L473.549 82.518V83.706H475.023V89.294ZM306.836 121.384C306.836 121.384 308.068 122.264 310.136 122.264C312.578 122.264 314.008 121.054 314.008 119.25C314.008 116.082 309.234 116.236 309.234 114.498C309.234 113.926 309.718 113.508 310.818 113.508C312.094 113.508 313.238 114.124 313.238 114.124L313.744 112.342C313.744 112.342 312.644 111.792 310.906 111.792C308.156 111.792 307.056 113.134 307.056 114.674C307.056 117.798 311.83 117.666 311.83 119.448C311.83 120.086 311.28 120.548 310.114 120.548C308.508 120.548 307.298 119.536 307.298 119.536L306.836 121.384ZM316.282 119.272C316.282 121.406 317.382 122.264 318.988 122.264C320.814 122.264 322.2 121.098 322.838 120.416C322.948 121.142 323.168 122.176 323.168 122.176L325.28 121.978C325.28 121.978 324.84 120.152 324.84 118.942V112.056H322.662V118.744C322.046 119.316 320.814 120.372 319.692 120.372C318.878 120.372 318.46 119.822 318.46 118.436V112.056H316.282V119.272ZM327.949 127.126L330.127 126.774V121.736C330.545 122.044 331.293 122.264 332.217 122.264C335.385 122.264 337.233 119.668 337.233 116.72C337.233 114.014 335.649 111.792 333.031 111.792C331.469 111.792 330.523 112.606 330.061 113.464V111.88L327.949 112.232V127.126ZM332.657 113.596C333.999 113.596 334.945 114.806 334.945 116.874C334.945 119.25 333.691 120.548 331.821 120.548C330.787 120.548 330.127 120.174 330.127 119.426V115.202C330.413 114.784 331.337 113.596 332.657 113.596ZM339.615 127.126L341.793 126.774V121.736C342.211 122.044 342.959 122.264 343.883 122.264C347.051 122.264 348.899 119.668 348.899 116.72C348.899 114.014 347.315 111.792 344.697 111.792C343.135 111.792 342.189 112.606 341.727 113.464V111.88L339.615 112.232V127.126ZM344.323 113.596C345.665 113.596 346.611 114.806 346.611 116.874C346.611 119.25 345.357 120.548 343.487 120.548C342.453 120.548 341.793 120.174 341.793 119.426V115.202C342.079 114.784 343.003 113.596 344.323 113.596ZM350.643 117.072C350.643 119.712 352.425 122.264 355.725 122.264C359.311 122.264 360.895 119.25 360.895 116.83C360.895 114.278 359.113 111.792 355.813 111.792C352.249 111.792 350.643 114.586 350.643 117.072ZM352.909 116.874C352.909 114.894 354.075 113.53 355.769 113.53C357.793 113.53 358.629 115.356 358.629 117.116C358.629 119.118 357.463 120.526 355.791 120.526C353.811 120.526 352.909 118.722 352.909 116.874ZM363.248 122H365.426V115.84C365.844 115.18 366.746 113.992 367.846 113.992C368.286 113.992 368.726 114.168 368.726 114.168L369.166 111.968C369.166 111.968 368.858 111.792 368.308 111.792C366.79 111.792 365.778 113.2 365.382 113.882V111.88L363.248 112.232V122ZM371.468 119.294C371.468 121.34 372.59 122.264 374.306 122.264C376.066 122.264 377.364 121.208 377.364 121.208L376.814 119.558C376.55 119.712 375.626 120.438 374.79 120.438C374.064 120.438 373.646 119.954 373.646 118.744V113.706H376.792V112.056H373.646V109.24L371.512 109.702V111.968L369.994 112.518V113.706H371.468V119.294ZM378.925 120.79C378.925 121.604 379.585 122.264 380.399 122.264C381.213 122.264 381.895 121.604 381.895 120.79C381.895 119.954 381.213 119.294 380.399 119.294C379.585 119.294 378.925 119.954 378.925 120.79Z" fill="#333333"/>
<path d="M53.002 62H55.268V56.104H57.534L61.45 62H64.134L59.822 55.576C61.296 54.894 62.638 53.508 62.638 51.506C62.638 49.284 61.098 47.326 57.314 47.326H53.002V62ZM55.268 54.212V49.218H56.94C59.382 49.218 60.24 50.34 60.24 51.66C60.24 53.288 58.92 54.212 57.27 54.212H55.268ZM64.921 57.182C64.921 59.844 66.615 62.264 69.937 62.264C72.423 62.264 73.941 60.834 73.941 60.834L73.325 59.25C73.325 59.25 71.939 60.482 70.267 60.482C68.529 60.482 67.429 59.316 67.187 57.512L72.621 56.786L73.875 56.434C73.875 53.42 72.159 51.792 69.783 51.792C66.879 51.792 64.921 54.146 64.921 57.182ZM69.629 53.486C71.367 53.486 71.499 55.51 71.499 55.51L67.187 56.06C67.385 54.608 68.221 53.486 69.629 53.486ZM75.5302 59.712C75.5302 61.186 76.6522 62.264 78.3902 62.264C80.3262 62.264 81.3382 61.032 81.6022 60.614C81.8882 61.406 82.5262 62.044 84.0442 62.154L84.7042 60.438C84.7042 60.438 83.6042 60.416 83.6042 59.184V54.982C83.6042 52.76 82.8562 51.792 80.5022 51.792C77.8842 51.792 76.1902 53.046 76.1902 53.046L76.7622 54.674C76.7622 54.674 78.2802 53.53 79.9082 53.53C81.5142 53.53 81.4262 54.63 81.4262 55.884C77.7082 56.368 75.5302 57.622 75.5302 59.712ZM78.9402 60.548C78.3022 60.548 77.7742 60.262 77.7742 59.558C77.7742 58.392 78.8962 57.666 81.4262 57.292V59.008C80.7662 59.778 79.9522 60.548 78.9402 60.548ZM86.8935 62H89.0715V46.27L86.8935 46.622V62ZM93.2787 49.68C94.0707 49.68 94.6647 49.108 94.6647 48.338C94.6647 47.568 94.0707 46.996 93.2787 46.996C92.5087 46.996 91.9147 47.568 91.9147 48.338C91.9147 49.108 92.5087 49.68 93.2787 49.68ZM92.1787 62H94.3567V52.056H92.1787V62ZM96.7818 62H104.768V60.24H99.5318L104.592 53.376V52.056H96.9578V53.816H101.732L96.7818 60.68V62ZM106.407 57.182C106.407 59.844 108.101 62.264 111.423 62.264C113.909 62.264 115.427 60.834 115.427 60.834L114.811 59.25C114.811 59.25 113.425 60.482 111.753 60.482C110.015 60.482 108.915 59.316 108.673 57.512L114.107 56.786L115.361 56.434C115.361 53.42 113.645 51.792 111.269 51.792C108.365 51.792 106.407 54.146 106.407 57.182ZM111.115 53.486C112.853 53.486 112.985 55.51 112.985 55.51L108.673 56.06C108.871 54.608 109.707 53.486 111.115 53.486ZM123.666 59.294C123.666 61.34 124.788 62.264 126.504 62.264C128.264 62.264 129.562 61.208 129.562 61.208L129.012 59.558C128.748 59.712 127.824 60.438 126.988 60.438C126.262 60.438 125.844 59.954 125.844 58.744V53.706H128.99V52.056H125.844V49.24L123.71 49.702V51.968L122.192 52.518V53.706H123.666V59.294ZM131.452 62H133.63V55.598C134.29 54.938 135.72 53.684 136.82 53.684C137.568 53.684 138.008 54.212 138.008 55.62V62H140.186V54.828C140.186 52.694 139.108 51.792 137.524 51.792C135.698 51.792 134.29 53.024 133.63 53.728V46.27L131.452 46.622V62ZM142.325 59.712C142.325 61.186 143.447 62.264 145.185 62.264C147.121 62.264 148.133 61.032 148.397 60.614C148.683 61.406 149.321 62.044 150.839 62.154L151.499 60.438C151.499 60.438 150.399 60.416 150.399 59.184V54.982C150.399 52.76 149.651 51.792 147.297 51.792C144.679 51.792 142.985 53.046 142.985 53.046L143.557 54.674C143.557 54.674 145.075 53.53 146.703 53.53C148.309 53.53 148.221 54.63 148.221 55.884C144.503 56.368 142.325 57.622 142.325 59.712ZM145.735 60.548C145.097 60.548 144.569 60.262 144.569 59.558C144.569 58.392 145.691 57.666 148.221 57.292V59.008C147.561 59.778 146.747 60.548 145.735 60.548ZM154.131 59.294C154.131 61.34 155.253 62.264 156.969 62.264C158.729 62.264 160.027 61.208 160.027 61.208L159.477 59.558C159.213 59.712 158.289 60.438 157.453 60.438C156.727 60.438 156.309 59.954 156.309 58.744V53.706H159.455V52.056H156.309V49.24L154.175 49.702V51.968L152.657 52.518V53.706H154.131V59.294ZM167.664 62H169.93V47.326H167.664V62ZM178.1 57.16C178.1 60.042 180.102 62.264 183.204 62.264C185.58 62.264 186.724 60.988 186.724 60.988L186.02 59.448C186.02 59.448 184.942 60.482 183.358 60.482C181.488 60.482 180.366 59.008 180.366 57.05C180.366 55.026 181.576 53.552 183.38 53.552C184.832 53.552 185.866 54.476 185.866 54.476L186.724 52.848C186.724 52.848 185.514 51.792 183.336 51.792C180.058 51.792 178.1 54.41 178.1 57.16ZM188.087 59.712C188.087 61.186 189.209 62.264 190.947 62.264C192.883 62.264 193.895 61.032 194.159 60.614C194.445 61.406 195.083 62.044 196.601 62.154L197.261 60.438C197.261 60.438 196.161 60.416 196.161 59.184V54.982C196.161 52.76 195.413 51.792 193.059 51.792C190.441 51.792 188.747 53.046 188.747 53.046L189.319 54.674C189.319 54.674 190.837 53.53 192.465 53.53C194.071 53.53 193.983 54.63 193.983 55.884C190.265 56.368 188.087 57.622 188.087 59.712ZM191.497 60.548C190.859 60.548 190.331 60.262 190.331 59.558C190.331 58.392 191.453 57.666 193.983 57.292V59.008C193.323 59.778 192.509 60.548 191.497 60.548ZM199.406 62H201.584V55.554C202.266 54.894 203.674 53.684 204.774 53.684C205.522 53.684 205.962 54.212 205.962 55.62V62H208.14V54.828C208.14 52.694 207.062 51.792 205.5 51.792C203.674 51.792 202.244 53.002 201.54 53.772V51.88L199.406 52.232V62ZM216.401 62H218.579V46.27L216.401 46.622V62ZM222.786 49.68C223.578 49.68 224.172 49.108 224.172 48.338C224.172 47.568 223.578 46.996 222.786 46.996C222.016 46.996 221.422 47.568 221.422 48.338C221.422 49.108 222.016 49.68 222.786 49.68ZM221.686 62H223.864V52.056H221.686V62ZM229.326 62.088H231.35L235.442 52.056H233.22L230.426 59.272L228.006 52.056H225.718L229.326 62.088ZM236.452 57.182C236.452 59.844 238.146 62.264 241.468 62.264C243.954 62.264 245.472 60.834 245.472 60.834L244.856 59.25C244.856 59.25 243.47 60.482 241.798 60.482C240.06 60.482 238.96 59.316 238.718 57.512L244.152 56.786L245.406 56.434C245.406 53.42 243.69 51.792 241.314 51.792C238.41 51.792 236.452 54.146 236.452 57.182ZM241.16 53.486C242.898 53.486 243.03 55.51 243.03 55.51L238.718 56.06C238.916 54.608 239.752 53.486 241.16 53.486ZM252.347 59.712C252.347 61.186 253.469 62.264 255.207 62.264C257.143 62.264 258.155 61.032 258.419 60.614C258.705 61.406 259.343 62.044 260.861 62.154L261.521 60.438C261.521 60.438 260.421 60.416 260.421 59.184V54.982C260.421 52.76 259.673 51.792 257.319 51.792C254.701 51.792 253.007 53.046 253.007 53.046L253.579 54.674C253.579 54.674 255.097 53.53 256.725 53.53C258.331 53.53 258.243 54.63 258.243 55.884C254.525 56.368 252.347 57.622 252.347 59.712ZM255.757 60.548C255.119 60.548 254.591 60.262 254.591 59.558C254.591 58.392 255.713 57.666 258.243 57.292V59.008C257.583 59.778 256.769 60.548 255.757 60.548ZM51.55 83.706H53.112V92H55.29V83.706H58.04V82.056H55.29V80.868C55.29 78.536 56.346 77.722 57.512 77.722C58.59 77.722 59.558 78.426 59.558 78.426L60.416 76.754C60.416 76.754 59.272 75.918 57.534 75.918C54.938 75.918 53.112 77.744 53.112 81V81.968L51.55 82.54V83.706ZM59.928 89.272C59.928 91.406 61.028 92.264 62.634 92.264C64.46 92.264 65.846 91.098 66.484 90.416C66.594 91.142 66.814 92.176 66.814 92.176L68.926 91.978C68.926 91.978 68.486 90.152 68.486 88.942V82.056H66.308V88.744C65.692 89.316 64.46 90.372 63.338 90.372C62.524 90.372 62.106 89.822 62.106 88.436V82.056H59.928V89.272ZM71.6396 92H73.8176V76.27L71.6396 76.622V92ZM76.9248 92H79.1028V76.27L76.9248 76.622V92ZM87.4951 92H89.6731V76.27L87.4951 76.622V92ZM93.8802 79.68C94.6722 79.68 95.2662 79.108 95.2662 78.338C95.2662 77.568 94.6722 76.996 93.8802 76.996C93.1102 76.996 92.5162 77.568 92.5162 78.338C92.5162 79.108 93.1102 79.68 93.8802 79.68ZM92.7802 92H94.9582V82.056H92.7802V92ZM97.0754 83.706H98.6374V92H100.815V83.706H103.565V82.056H100.815V80.868C100.815 78.536 101.871 77.722 103.037 77.722C104.115 77.722 105.083 78.426 105.083 78.426L105.941 76.754C105.941 76.754 104.797 75.918 103.059 75.918C100.463 75.918 98.6374 77.744 98.6374 81V81.968L97.0754 82.54V83.706ZM104.753 87.182C104.753 89.844 106.447 92.264 109.769 92.264C112.255 92.264 113.773 90.834 113.773 90.834L113.157 89.25C113.157 89.25 111.771 90.482 110.099 90.482C108.361 90.482 107.261 89.316 107.019 87.512L112.453 86.786L113.707 86.434C113.707 83.42 111.991 81.792 109.615 81.792C106.711 81.792 104.753 84.146 104.753 87.182ZM109.461 83.486C111.199 83.486 111.331 85.51 111.331 85.51L107.019 86.06C107.217 84.608 108.053 83.486 109.461 83.486ZM120.823 87.182C120.823 89.844 122.517 92.264 125.839 92.264C128.325 92.264 129.843 90.834 129.843 90.834L129.227 89.25C129.227 89.25 127.841 90.482 126.169 90.482C124.431 90.482 123.331 89.316 123.089 87.512L128.523 86.786L129.777 86.434C129.777 83.42 128.061 81.792 125.685 81.792C122.781 81.792 120.823 84.146 120.823 87.182ZM125.531 83.486C127.269 83.486 127.401 85.51 127.401 85.51L123.089 86.06C123.287 84.608 124.123 83.486 125.531 83.486ZM134.623 92.088H136.647L140.739 82.056H138.517L135.723 89.272L133.303 82.056H131.015L134.623 92.088ZM141.749 87.182C141.749 89.844 143.443 92.264 146.765 92.264C149.251 92.264 150.769 90.834 150.769 90.834L150.153 89.25C150.153 89.25 148.767 90.482 147.095 90.482C145.357 90.482 144.257 89.316 144.015 87.512L149.449 86.786L150.703 86.434C150.703 83.42 148.987 81.792 146.611 81.792C143.707 81.792 141.749 84.146 141.749 87.182ZM146.457 83.486C148.195 83.486 148.327 85.51 148.327 85.51L144.015 86.06C144.213 84.608 145.049 83.486 146.457 83.486ZM153.15 92H155.328V85.554C156.01 84.894 157.418 83.684 158.518 83.684C159.266 83.684 159.706 84.212 159.706 85.62V92H161.884V84.828C161.884 82.694 160.806 81.792 159.244 81.792C157.418 81.792 155.988 83.002 155.284 83.772V81.88L153.15 82.232V92ZM172.191 92.088H174.303L176.855 85.004L179.143 92.088H181.277L184.841 82.056H182.619L180.221 89.536L177.889 82.056H175.997L173.423 89.58L171.245 82.056H169.001L172.191 92.088ZM187.81 79.68C188.602 79.68 189.196 79.108 189.196 78.338C189.196 77.568 188.602 76.996 187.81 76.996C187.04 76.996 186.446 77.568 186.446 78.338C186.446 79.108 187.04 79.68 187.81 79.68ZM186.71 92H188.888V82.056H186.71V92ZM192.523 89.294C192.523 91.34 193.645 92.264 195.361 92.264C197.121 92.264 198.419 91.208 198.419 91.208L197.869 89.558C197.605 89.712 196.681 90.438 195.845 90.438C195.119 90.438 194.701 89.954 194.701 88.744V83.706H197.847V82.056H194.701V79.24L192.567 79.702V81.968L191.049 82.518V83.706H192.523V89.294ZM200.31 92H202.488V85.598C203.148 84.938 204.578 83.684 205.678 83.684C206.426 83.684 206.866 84.212 206.866 85.62V92H209.044V84.828C209.044 82.694 207.966 81.792 206.382 81.792C204.556 81.792 203.148 83.024 202.488 83.728V76.27L200.31 76.622V92ZM216.468 89.712C216.468 91.186 217.59 92.264 219.328 92.264C221.264 92.264 222.276 91.032 222.54 90.614C222.826 91.406 223.464 92.044 224.982 92.154L225.642 90.438C225.642 90.438 224.542 90.416 224.542 89.184V84.982C224.542 82.76 223.794 81.792 221.44 81.792C218.822 81.792 217.128 83.046 217.128 83.046L217.7 84.674C217.7 84.674 219.218 83.53 220.846 83.53C222.452 83.53 222.364 84.63 222.364 85.884C218.646 86.368 216.468 87.622 216.468 89.712ZM219.878 90.548C219.24 90.548 218.712 90.262 218.712 89.558C218.712 88.392 219.834 87.666 222.364 87.292V89.008C221.704 89.778 220.89 90.548 219.878 90.548ZM51.858 117.16C51.858 120.042 53.86 122.264 56.962 122.264C59.338 122.264 60.482 120.988 60.482 120.988L59.778 119.448C59.778 119.448 58.7 120.482 57.116 120.482C55.246 120.482 54.124 119.008 54.124 117.05C54.124 115.026 55.334 113.552 57.138 113.552C58.59 113.552 59.624 114.476 59.624 114.476L60.482 112.848C60.482 112.848 59.272 111.792 57.094 111.792C53.816 111.792 51.858 114.41 51.858 117.16ZM62.6806 122H64.8586V115.598C65.5186 114.938 66.9486 113.684 68.0486 113.684C68.7966 113.684 69.2366 114.212 69.2366 115.62V122H71.4146V114.828C71.4146 112.694 70.3366 111.792 68.7526 111.792C66.9266 111.792 65.5186 113.024 64.8586 113.728V106.27L62.6806 106.622V122ZM74.3456 122H76.5236V115.84C76.9416 115.18 77.8436 113.992 78.9436 113.992C79.3836 113.992 79.8236 114.168 79.8236 114.168L80.2636 111.968C80.2636 111.968 79.9556 111.792 79.4056 111.792C77.8876 111.792 76.8756 113.2 76.4796 113.882V111.88L74.3456 112.232V122ZM81.1842 117.072C81.1842 119.712 82.9662 122.264 86.2662 122.264C89.8522 122.264 91.4362 119.25 91.4362 116.83C91.4362 114.278 89.6542 111.792 86.3542 111.792C82.7902 111.792 81.1842 114.586 81.1842 117.072ZM83.4502 116.874C83.4502 114.894 84.6162 113.53 86.3102 113.53C88.3342 113.53 89.1702 115.356 89.1702 117.116C89.1702 119.118 88.0042 120.526 86.3322 120.526C84.3522 120.526 83.4502 118.722 83.4502 116.874ZM93.789 122H95.967V115.554C96.649 114.894 98.057 113.684 99.157 113.684C99.905 113.684 100.345 114.212 100.345 115.62V122H102.523V114.828C102.523 112.694 101.445 111.792 99.883 111.792C98.057 111.792 96.627 113.002 95.923 113.772V111.88L93.789 112.232V122ZM106.599 109.68C107.391 109.68 107.985 109.108 107.985 108.338C107.985 107.568 107.391 106.996 106.599 106.996C105.829 106.996 105.235 107.568 105.235 108.338C105.235 109.108 105.829 109.68 106.599 109.68ZM105.499 122H107.677V112.056H105.499V122ZM110.102 117.16C110.102 120.042 112.104 122.264 115.206 122.264C117.582 122.264 118.726 120.988 118.726 120.988L118.022 119.448C118.022 119.448 116.944 120.482 115.36 120.482C113.49 120.482 112.368 119.008 112.368 117.05C112.368 115.026 113.578 113.552 115.382 113.552C116.834 113.552 117.868 114.476 117.868 114.476L118.726 112.848C118.726 112.848 117.516 111.792 115.338 111.792C112.06 111.792 110.102 114.41 110.102 117.16ZM127.31 109.68C128.102 109.68 128.696 109.108 128.696 108.338C128.696 107.568 128.102 106.996 127.31 106.996C126.54 106.996 125.946 107.568 125.946 108.338C125.946 109.108 126.54 109.68 127.31 109.68ZM126.21 122H128.388V112.056H126.21V122ZM131.495 122H133.673V106.27L131.495 106.622V122ZM136.78 122H138.958V106.27L136.78 106.622V122ZM142.021 122H144.199V115.554C144.881 114.894 146.289 113.684 147.389 113.684C148.137 113.684 148.577 114.212 148.577 115.62V122H150.755V114.828C150.755 112.694 149.677 111.792 148.115 111.792C146.289 111.792 144.859 113.002 144.155 113.772V111.88L142.021 112.232V122ZM153.071 117.182C153.071 119.844 154.765 122.264 158.087 122.264C160.573 122.264 162.091 120.834 162.091 120.834L161.475 119.25C161.475 119.25 160.089 120.482 158.417 120.482C156.679 120.482 155.579 119.316 155.337 117.512L160.771 116.786L162.025 116.434C162.025 113.42 160.309 111.792 157.933 111.792C155.029 111.792 153.071 114.146 153.071 117.182ZM157.779 113.486C159.517 113.486 159.649 115.51 159.649 115.51L155.337 116.06C155.535 114.608 156.371 113.486 157.779 113.486ZM163.813 121.384C163.813 121.384 165.045 122.264 167.113 122.264C169.555 122.264 170.985 121.054 170.985 119.25C170.985 116.082 166.211 116.236 166.211 114.498C166.211 113.926 166.695 113.508 167.795 113.508C169.071 113.508 170.215 114.124 170.215 114.124L170.721 112.342C170.721 112.342 169.621 111.792 167.883 111.792C165.133 111.792 164.033 113.134 164.033 114.674C164.033 117.798 168.807 117.666 168.807 119.448C168.807 120.086 168.257 120.548 167.091 120.548C165.485 120.548 164.275 119.536 164.275 119.536L163.813 121.384ZM172.664 121.384C172.664 121.384 173.896 122.264 175.964 122.264C178.406 122.264 179.836 121.054 179.836 119.25C179.836 116.082 175.062 116.236 175.062 114.498C175.062 113.926 175.546 113.508 176.646 113.508C177.922 113.508 179.066 114.124 179.066 114.124L179.572 112.342C179.572 112.342 178.472 111.792 176.734 111.792C173.984 111.792 172.884 113.134 172.884 114.674C172.884 117.798 177.658 117.666 177.658 119.448C177.658 120.086 177.108 120.548 175.942 120.548C174.336 120.548 173.126 119.536 173.126 119.536L172.664 121.384ZM181.89 120.79C181.89 121.604 182.55 122.264 183.364 122.264C184.178 122.264 184.86 121.604 184.86 120.79C184.86 119.954 184.178 119.294 183.364 119.294C182.55 119.294 181.89 119.954 181.89 120.79Z" fill="#333333"/>
<path d="M818.002 62H820.268V55.62H825.438V53.662H820.268V49.218H826.802V47.326H818.002V62ZM827.536 57.182C827.536 59.844 829.23 62.264 832.552 62.264C835.038 62.264 836.556 60.834 836.556 60.834L835.94 59.25C835.94 59.25 834.554 60.482 832.882 60.482C831.144 60.482 830.044 59.316 829.802 57.512L835.236 56.786L836.49 56.434C836.49 53.42 834.774 51.792 832.398 51.792C829.494 51.792 827.536 54.146 827.536 57.182ZM832.244 53.486C833.982 53.486 834.114 55.51 834.114 55.51L829.802 56.06C830 54.608 830.836 53.486 832.244 53.486ZM838.321 57.182C838.321 59.844 840.015 62.264 843.337 62.264C845.823 62.264 847.341 60.834 847.341 60.834L846.725 59.25C846.725 59.25 845.339 60.482 843.667 60.482C841.929 60.482 840.829 59.316 840.587 57.512L846.021 56.786L847.275 56.434C847.275 53.42 845.559 51.792 843.183 51.792C840.279 51.792 838.321 54.146 838.321 57.182ZM843.029 53.486C844.767 53.486 844.899 55.51 844.899 55.51L840.587 56.06C840.785 54.608 841.621 53.486 843.029 53.486ZM849.767 62H851.945V46.27L849.767 46.622V62ZM860.337 62H862.515V55.598C863.175 54.938 864.605 53.684 865.705 53.684C866.453 53.684 866.893 54.212 866.893 55.62V62H869.071V54.828C869.071 52.694 867.993 51.792 866.409 51.792C864.583 51.792 863.175 53.024 862.515 53.728V46.27L860.337 46.622V62ZM871.364 57.072C871.364 59.712 873.146 62.264 876.446 62.264C880.032 62.264 881.616 59.25 881.616 56.83C881.616 54.278 879.834 51.792 876.534 51.792C872.97 51.792 871.364 54.586 871.364 57.072ZM873.63 56.874C873.63 54.894 874.796 53.53 876.49 53.53C878.514 53.53 879.35 55.356 879.35 57.116C879.35 59.118 878.184 60.526 876.512 60.526C874.532 60.526 873.63 58.722 873.63 56.874ZM883.969 67.126L886.147 66.774V61.736C886.565 62.044 887.313 62.264 888.237 62.264C891.405 62.264 893.253 59.668 893.253 56.72C893.253 54.014 891.669 51.792 889.051 51.792C887.489 51.792 886.543 52.606 886.081 53.464V51.88L883.969 52.232V67.126ZM888.677 53.596C890.019 53.596 890.965 54.806 890.965 56.874C890.965 59.25 889.711 60.548 887.841 60.548C886.807 60.548 886.147 60.174 886.147 59.426V55.202C886.433 54.784 887.357 53.596 888.677 53.596ZM895.019 57.182C895.019 59.844 896.713 62.264 900.035 62.264C902.521 62.264 904.039 60.834 904.039 60.834L903.423 59.25C903.423 59.25 902.037 60.482 900.365 60.482C898.627 60.482 897.527 59.316 897.285 57.512L902.719 56.786L903.973 56.434C903.973 53.42 902.257 51.792 899.881 51.792C896.977 51.792 895.019 54.146 895.019 57.182ZM899.727 53.486C901.465 53.486 901.597 55.51 901.597 55.51L897.285 56.06C897.483 54.608 898.319 53.486 899.727 53.486ZM905.474 53.706H907.036V62H909.214V53.706H911.964V52.056H909.214V50.868C909.214 48.536 910.27 47.722 911.436 47.722C912.514 47.722 913.482 48.426 913.482 48.426L914.34 46.754C914.34 46.754 913.196 45.918 911.458 45.918C908.862 45.918 907.036 47.744 907.036 51V51.968L905.474 52.54V53.706ZM913.852 59.272C913.852 61.406 914.952 62.264 916.558 62.264C918.384 62.264 919.77 61.098 920.408 60.416C920.518 61.142 920.738 62.176 920.738 62.176L922.85 61.978C922.85 61.978 922.41 60.152 922.41 58.942V52.056H920.232V58.744C919.616 59.316 918.384 60.372 917.262 60.372C916.448 60.372 916.03 59.822 916.03 58.436V52.056H913.852V59.272ZM925.563 62H927.741V46.27L925.563 46.622V62ZM936.662 59.294C936.662 61.34 937.784 62.264 939.5 62.264C941.26 62.264 942.558 61.208 942.558 61.208L942.008 59.558C941.744 59.712 940.82 60.438 939.984 60.438C939.258 60.438 938.84 59.954 938.84 58.744V53.706H941.986V52.056H938.84V49.24L936.706 49.702V51.968L935.188 52.518V53.706H936.662V59.294ZM944.448 62H946.626V55.598C947.286 54.938 948.716 53.684 949.816 53.684C950.564 53.684 951.004 54.212 951.004 55.62V62H953.182V54.828C953.182 52.694 952.104 51.792 950.52 51.792C948.694 51.792 947.286 53.024 946.626 53.728V46.27L944.448 46.622V62ZM955.321 59.712C955.321 61.186 956.443 62.264 958.181 62.264C960.117 62.264 961.129 61.032 961.393 60.614C961.679 61.406 962.317 62.044 963.835 62.154L964.495 60.438C964.495 60.438 963.395 60.416 963.395 59.184V54.982C963.395 52.76 962.647 51.792 960.293 51.792C957.675 51.792 955.981 53.046 955.981 53.046L956.553 54.674C956.553 54.674 958.071 53.53 959.699 53.53C961.305 53.53 961.217 54.63 961.217 55.884C957.499 56.368 955.321 57.622 955.321 59.712ZM958.731 60.548C958.093 60.548 957.565 60.262 957.565 59.558C957.565 58.392 958.687 57.666 961.217 57.292V59.008C960.557 59.778 959.743 60.548 958.731 60.548ZM967.127 59.294C967.127 61.34 968.249 62.264 969.965 62.264C971.725 62.264 973.023 61.208 973.023 61.208L972.473 59.558C972.209 59.712 971.285 60.438 970.449 60.438C969.723 60.438 969.305 59.954 969.305 58.744V53.706H972.451V52.056H969.305V49.24L967.171 49.702V51.968L965.653 52.518V53.706H967.127V59.294ZM980.66 62H982.926V47.326H980.66V62ZM991.096 57.16C991.096 60.042 993.098 62.264 996.2 62.264C998.576 62.264 999.72 60.988 999.72 60.988L999.016 59.448C999.016 59.448 997.938 60.482 996.354 60.482C994.484 60.482 993.362 59.008 993.362 57.05C993.362 55.026 994.572 53.552 996.376 53.552C997.828 53.552 998.862 54.476 998.862 54.476L999.72 52.848C999.72 52.848 998.51 51.792 996.332 51.792C993.054 51.792 991.096 54.41 991.096 57.16ZM1001.08 59.712C1001.08 61.186 1002.2 62.264 1003.94 62.264C1005.88 62.264 1006.89 61.032 1007.15 60.614C1007.44 61.406 1008.08 62.044 1009.6 62.154L1010.26 60.438C1010.26 60.438 1009.16 60.416 1009.16 59.184V54.982C1009.16 52.76 1008.41 51.792 1006.05 51.792C1003.44 51.792 1001.74 53.046 1001.74 53.046L1002.31 54.674C1002.31 54.674 1003.83 53.53 1005.46 53.53C1007.07 53.53 1006.98 54.63 1006.98 55.884C1003.26 56.368 1001.08 57.622 1001.08 59.712ZM1004.49 60.548C1003.85 60.548 1003.33 60.262 1003.33 59.558C1003.33 58.392 1004.45 57.666 1006.98 57.292V59.008C1006.32 59.778 1005.5 60.548 1004.49 60.548ZM1012.4 62H1014.58V55.554C1015.26 54.894 1016.67 53.684 1017.77 53.684C1018.52 53.684 1018.96 54.212 1018.96 55.62V62H1021.14V54.828C1021.14 52.694 1020.06 51.792 1018.5 51.792C1016.67 51.792 1015.24 53.002 1014.54 53.772V51.88L1012.4 52.232V62ZM817.474 90.24C817.474 90.922 818.112 91.318 819.102 91.648C818.046 92.198 816.572 93.144 816.572 94.596C816.572 96.334 818.728 97.214 820.928 97.214C823.92 97.214 826.362 95.52 826.362 93.518C826.362 91.692 824.36 91.142 822.6 90.702C820.532 90.196 819.564 89.998 819.564 89.602C819.564 89.36 819.916 89.096 820.378 88.788C820.598 88.832 820.84 88.832 821.104 88.832C823.238 88.832 825.504 87.666 825.504 85.488C825.504 84.608 825.086 84.014 824.778 83.662C825.042 83.706 825.35 83.728 825.592 83.728H826.78L826.626 81.99C826.626 81.99 825.966 82.21 825.306 82.21H824.162C823.062 82.21 822.49 81.792 821.28 81.792C819.058 81.792 817.056 83.046 817.056 85.268C817.056 86.61 817.782 87.776 819.036 88.392C818.222 88.854 817.474 89.514 817.474 90.24ZM821.346 92.22C823.194 92.704 824.228 92.99 824.228 93.848C824.228 94.838 822.82 95.63 821.06 95.63C819.806 95.63 818.53 95.234 818.53 94.244C818.53 93.254 819.74 92.594 820.686 92.066C820.906 92.11 821.126 92.154 821.346 92.22ZM821.258 87.292C819.85 87.292 819.19 86.28 819.19 85.334C819.19 84.3 819.938 83.332 821.258 83.332C822.666 83.332 823.348 84.476 823.348 85.444C823.348 86.566 822.468 87.292 821.258 87.292ZM828.009 87.182C828.009 89.844 829.703 92.264 833.025 92.264C835.511 92.264 837.029 90.834 837.029 90.834L836.413 89.25C836.413 89.25 835.027 90.482 833.355 90.482C831.617 90.482 830.517 89.316 830.275 87.512L835.709 86.786L836.963 86.434C836.963 83.42 835.247 81.792 832.871 81.792C829.967 81.792 828.009 84.146 828.009 87.182ZM832.717 83.486C834.455 83.486 834.587 85.51 834.587 85.51L830.275 86.06C830.473 84.608 831.309 83.486 832.717 83.486ZM839.982 89.294C839.982 91.34 841.104 92.264 842.82 92.264C844.58 92.264 845.878 91.208 845.878 91.208L845.328 89.558C845.064 89.712 844.14 90.438 843.304 90.438C842.578 90.438 842.16 89.954 842.16 88.744V83.706H845.306V82.056H842.16V79.24L840.026 79.702V81.968L838.508 82.518V83.706H839.982V89.294ZM853.01 91.78C853.758 91.956 855.452 92.264 856.64 92.264C860.402 92.264 862.206 89.58 862.206 86.676C862.206 83.948 860.622 81.792 857.872 81.792C856.508 81.792 855.694 82.342 855.188 82.914V76.27L853.01 76.622V91.78ZM857.52 83.552C858.972 83.552 859.962 84.762 859.962 86.83C859.962 89.294 858.576 90.614 856.684 90.614C855.87 90.614 855.188 90.394 855.188 90.394V84.586C855.65 84.168 856.486 83.552 857.52 83.552ZM863.819 89.712C863.819 91.186 864.941 92.264 866.679 92.264C868.615 92.264 869.627 91.032 869.891 90.614C870.177 91.406 870.815 92.044 872.333 92.154L872.993 90.438C872.993 90.438 871.893 90.416 871.893 89.184V84.982C871.893 82.76 871.145 81.792 868.791 81.792C866.173 81.792 864.479 83.046 864.479 83.046L865.051 84.674C865.051 84.674 866.569 83.53 868.197 83.53C869.803 83.53 869.715 84.63 869.715 85.884C865.997 86.368 863.819 87.622 863.819 89.712ZM867.229 90.548C866.591 90.548 866.063 90.262 866.063 89.558C866.063 88.392 867.185 87.666 869.715 87.292V89.008C869.055 89.778 868.241 90.548 867.229 90.548ZM874.501 87.16C874.501 90.042 876.503 92.264 879.605 92.264C881.981 92.264 883.125 90.988 883.125 90.988L882.421 89.448C882.421 89.448 881.343 90.482 879.759 90.482C877.889 90.482 876.767 89.008 876.767 87.05C876.767 85.026 877.977 83.552 879.781 83.552C881.233 83.552 882.267 84.476 882.267 84.476L883.125 82.848C883.125 82.848 881.915 81.792 879.737 81.792C876.459 81.792 874.501 84.41 874.501 87.16ZM885.323 92H887.501V87.292H887.809L891.769 92H894.563L889.723 86.412L894.255 82.056H891.417L887.809 85.686H887.501V76.27L885.323 76.622V92ZM900.797 87.072C900.797 89.712 902.579 92.264 905.879 92.264C909.465 92.264 911.049 89.25 911.049 86.83C911.049 84.278 909.267 81.792 905.967 81.792C902.403 81.792 900.797 84.586 900.797 87.072ZM903.063 86.874C903.063 84.894 904.229 83.53 905.923 83.53C907.947 83.53 908.783 85.356 908.783 87.116C908.783 89.118 907.617 90.526 905.945 90.526C903.965 90.526 903.063 88.722 903.063 86.874ZM913.402 92H915.58V85.554C916.262 84.894 917.67 83.684 918.77 83.684C919.518 83.684 919.958 84.212 919.958 85.62V92H922.136V84.828C922.136 82.694 921.058 81.792 919.496 81.792C917.67 81.792 916.24 83.002 915.536 83.772V81.88L913.402 82.232V92ZM930.925 89.294C930.925 91.34 932.047 92.264 933.763 92.264C935.523 92.264 936.821 91.208 936.821 91.208L936.271 89.558C936.007 89.712 935.083 90.438 934.247 90.438C933.521 90.438 933.103 89.954 933.103 88.744V83.706H936.249V82.056H933.103V79.24L930.969 79.702V81.968L929.451 82.518V83.706H930.925V89.294ZM938.668 92H940.846V85.84C941.264 85.18 942.166 83.992 943.266 83.992C943.706 83.992 944.146 84.168 944.146 84.168L944.586 81.968C944.586 81.968 944.278 81.792 943.728 81.792C942.21 81.792 941.198 83.2 940.802 83.882V81.88L938.668 82.232V92ZM945.524 89.712C945.524 91.186 946.646 92.264 948.384 92.264C950.32 92.264 951.332 91.032 951.596 90.614C951.882 91.406 952.52 92.044 954.038 92.154L954.698 90.438C954.698 90.438 953.598 90.416 953.598 89.184V84.982C953.598 82.76 952.85 81.792 950.496 81.792C947.878 81.792 946.184 83.046 946.184 83.046L946.756 84.674C946.756 84.674 948.274 83.53 949.902 83.53C951.508 83.53 951.42 84.63 951.42 85.884C947.702 86.368 945.524 87.622 945.524 89.712ZM948.934 90.548C948.296 90.548 947.768 90.262 947.768 89.558C947.768 88.392 948.89 87.666 951.42 87.292V89.008C950.76 89.778 949.946 90.548 948.934 90.548ZM956.206 87.16C956.206 90.042 958.208 92.264 961.31 92.264C963.686 92.264 964.83 90.988 964.83 90.988L964.126 89.448C964.126 89.448 963.048 90.482 961.464 90.482C959.594 90.482 958.472 89.008 958.472 87.05C958.472 85.026 959.682 83.552 961.486 83.552C962.938 83.552 963.972 84.476 963.972 84.476L964.83 82.848C964.83 82.848 963.62 81.792 961.442 81.792C958.164 81.792 956.206 84.41 956.206 87.16ZM967.028 92H969.206V87.292H969.514L973.474 92H976.268L971.428 86.412L975.96 82.056H973.122L969.514 85.686H969.206V76.27L967.028 76.622V92ZM816.704 119.712C816.704 121.186 817.826 122.264 819.564 122.264C821.5 122.264 822.512 121.032 822.776 120.614C823.062 121.406 823.7 122.044 825.218 122.154L825.878 120.438C825.878 120.438 824.778 120.416 824.778 119.184V114.982C824.778 112.76 824.03 111.792 821.676 111.792C819.058 111.792 817.364 113.046 817.364 113.046L817.936 114.674C817.936 114.674 819.454 113.53 821.082 113.53C822.688 113.53 822.6 114.63 822.6 115.884C818.882 116.368 816.704 117.622 816.704 119.712ZM820.114 120.548C819.476 120.548 818.948 120.262 818.948 119.558C818.948 118.392 820.07 117.666 822.6 117.292V119.008C821.94 119.778 821.126 120.548 820.114 120.548ZM827.077 113.706H828.639V122H830.817V113.706H833.567V112.056H830.817V110.868C830.817 108.536 831.873 107.722 833.039 107.722C834.117 107.722 835.085 108.426 835.085 108.426L835.943 106.754C835.943 106.754 834.799 105.918 833.061 105.918C830.465 105.918 828.639 107.744 828.639 111V111.968L827.077 112.54V113.706ZM836.093 119.294C836.093 121.34 837.215 122.264 838.931 122.264C840.691 122.264 841.989 121.208 841.989 121.208L841.439 119.558C841.175 119.712 840.251 120.438 839.415 120.438C838.689 120.438 838.271 119.954 838.271 118.744V113.706H841.417V112.056H838.271V109.24L836.137 109.702V111.968L834.619 112.518V113.706H836.093V119.294ZM843.22 117.182C843.22 119.844 844.914 122.264 848.236 122.264C850.722 122.264 852.24 120.834 852.24 120.834L851.624 119.25C851.624 119.25 850.238 120.482 848.566 120.482C846.828 120.482 845.728 119.316 845.486 117.512L850.92 116.786L852.174 116.434C852.174 113.42 850.458 111.792 848.082 111.792C845.178 111.792 843.22 114.146 843.22 117.182ZM847.928 113.486C849.666 113.486 849.798 115.51 849.798 115.51L845.486 116.06C845.684 114.608 846.52 113.486 847.928 113.486ZM854.621 122H856.799V115.84C857.217 115.18 858.119 113.992 859.219 113.992C859.659 113.992 860.099 114.168 860.099 114.168L860.539 111.968C860.539 111.968 860.231 111.792 859.681 111.792C858.163 111.792 857.151 113.2 856.755 113.882V111.88L854.621 112.232V122ZM866.763 119.712C866.763 121.186 867.885 122.264 869.623 122.264C871.559 122.264 872.571 121.032 872.835 120.614C873.121 121.406 873.759 122.044 875.277 122.154L875.937 120.438C875.937 120.438 874.837 120.416 874.837 119.184V114.982C874.837 112.76 874.089 111.792 871.735 111.792C869.117 111.792 867.423 113.046 867.423 113.046L867.995 114.674C867.995 114.674 869.513 113.53 871.141 113.53C872.747 113.53 872.659 114.63 872.659 115.884C868.941 116.368 866.763 117.622 866.763 119.712ZM870.173 120.548C869.535 120.548 869.007 120.262 869.007 119.558C869.007 118.392 870.129 117.666 872.659 117.292V119.008C871.999 119.778 871.185 120.548 870.173 120.548ZM883.367 122H885.545V115.84C885.963 115.18 886.865 113.992 887.965 113.992C888.405 113.992 888.845 114.168 888.845 114.168L889.285 111.968C889.285 111.968 888.977 111.792 888.427 111.792C886.909 111.792 885.897 113.2 885.501 113.882V111.88L883.367 112.232V122ZM890.228 117.182C890.228 119.844 891.922 122.264 895.244 122.264C897.73 122.264 899.248 120.834 899.248 120.834L898.632 119.25C898.632 119.25 897.246 120.482 895.574 120.482C893.836 120.482 892.736 119.316 892.494 117.512L897.928 116.786L899.182 116.434C899.182 113.42 897.466 111.792 895.09 111.792C892.186 111.792 890.228 114.146 890.228 117.182ZM894.936 113.486C896.674 113.486 896.806 115.51 896.806 115.51L892.494 116.06C892.692 114.608 893.528 113.486 894.936 113.486ZM901.673 122H903.851V106.27L901.673 106.622V122ZM906.122 119.712C906.122 121.186 907.244 122.264 908.982 122.264C910.918 122.264 911.93 121.032 912.194 120.614C912.48 121.406 913.118 122.044 914.636 122.154L915.296 120.438C915.296 120.438 914.196 120.416 914.196 119.184V114.982C914.196 112.76 913.448 111.792 911.094 111.792C908.476 111.792 906.782 113.046 906.782 113.046L907.354 114.674C907.354 114.674 908.872 113.53 910.5 113.53C912.106 113.53 912.018 114.63 912.018 115.884C908.3 116.368 906.122 117.622 906.122 119.712ZM909.532 120.548C908.894 120.548 908.366 120.262 908.366 119.558C908.366 118.392 909.488 117.666 912.018 117.292V119.008C911.358 119.778 910.544 120.548 909.532 120.548ZM917.441 127.126L919.619 126.774V121.736C920.037 122.044 920.785 122.264 921.709 122.264C924.877 122.264 926.725 119.668 926.725 116.72C926.725 114.014 925.141 111.792 922.523 111.792C920.961 111.792 920.015 112.606 919.553 113.464V111.88L917.441 112.232V127.126ZM922.149 113.596C923.491 113.596 924.437 114.806 924.437 116.874C924.437 119.25 923.183 120.548 921.313 120.548C920.279 120.548 919.619 120.174 919.619 119.426V115.202C919.905 114.784 920.829 113.596 922.149 113.596ZM928.447 121.384C928.447 121.384 929.679 122.264 931.747 122.264C934.189 122.264 935.619 121.054 935.619 119.25C935.619 116.082 930.845 116.236 930.845 114.498C930.845 113.926 931.329 113.508 932.429 113.508C933.705 113.508 934.849 114.124 934.849 114.124L935.355 112.342C935.355 112.342 934.255 111.792 932.517 111.792C929.767 111.792 928.667 113.134 928.667 114.674C928.667 117.798 933.441 117.666 933.441 119.448C933.441 120.086 932.891 120.548 931.725 120.548C930.119 120.548 928.909 119.536 928.909 119.536L928.447 121.384ZM937.343 117.182C937.343 119.844 939.037 122.264 942.359 122.264C944.845 122.264 946.363 120.834 946.363 120.834L945.747 119.25C945.747 119.25 944.361 120.482 942.689 120.482C940.951 120.482 939.851 119.316 939.609 117.512L945.043 116.786L946.297 116.434C946.297 113.42 944.581 111.792 942.205 111.792C939.301 111.792 937.343 114.146 937.343 117.182ZM942.051 113.486C943.789 113.486 943.921 115.51 943.921 115.51L939.609 116.06C939.807 114.608 940.643 113.486 942.051 113.486Z" fill="#333333"/>
<path d="M79 270.09L79 267.138C79 262.8 76.84 259.776 72.808 259.776C68.542 259.776 66.994 263.178 66.994 266.454L66.994 270.09L79 270.09ZM77.758 268.614L68.236 268.614L68.236 266.706C68.236 263.214 70.09 261.36 72.97 261.36C75.634 261.36 77.758 262.944 77.758 267.318L77.758 268.614ZM77.182 258.338C78.37 258.338 79.216 257.456 79.216 256.07C79.216 254.432 78.064 253.55 77.812 253.388C78.478 253.208 79 252.776 79.126 251.642L77.992 251.174C77.992 251.174 77.974 252.074 76.912 252.074L73.258 252.074C71.44 252.074 70.684 252.65 70.684 254.414C70.684 256.43 71.674 257.78 71.674 257.78L72.808 257.348C72.808 257.348 71.908 256.16 71.908 254.81C71.908 253.46 72.808 253.478 73.762 253.478L74.068 253.478C74.464 256.556 75.508 258.338 77.182 258.338ZM77.992 255.782C77.992 256.376 77.722 256.844 77.092 256.844C76.048 256.844 75.472 255.764 75.094 253.478L76.588 253.478C77.254 254.054 77.992 254.792 77.992 255.782ZM76.858 248.891C78.514 248.891 79.216 248.063 79.216 246.785C79.216 245.435 78.388 244.445 78.388 244.445L77.254 244.787C77.254 244.787 77.992 245.651 77.992 246.497C77.992 247.109 77.56 247.487 76.48 247.487L72.034 247.487L72.034 244.859L70.9 244.859L70.9 247.487L68.668 247.487L69.01 248.891L70.81 248.891L71.278 250.043L72.034 250.043L72.034 248.891L76.858 248.891ZM77.182 243.45C78.37 243.45 79.216 242.568 79.216 241.182C79.216 239.544 78.064 238.662 77.812 238.5C78.478 238.32 79 237.888 79.126 236.754L77.992 236.286C77.992 236.286 77.974 237.186 76.912 237.186L73.258 237.186C71.44 237.186 70.684 237.762 70.684 239.526C70.684 241.542 71.674 242.892 71.674 242.892L72.808 242.46C72.808 242.46 71.908 241.272 71.908 239.922C71.908 238.572 72.808 238.59 73.762 238.59L74.068 238.59C74.464 241.668 75.508 243.45 77.182 243.45ZM77.992 240.894C77.992 241.488 77.722 241.956 77.092 241.956C76.048 241.956 75.472 240.876 75.094 238.59L76.588 238.59C77.254 239.166 77.992 239.904 77.992 240.894ZM79 230.004L79 228.6L73.87 228.6C73.312 228.276 72.214 227.52 72.214 226.584C72.214 226.26 72.358 225.9 72.358 225.9L70.846 225.54C70.846 225.54 70.684 225.792 70.684 226.242C70.684 227.466 71.836 228.294 72.376 228.6L70.774 228.6L71.026 230.004L79 230.004ZM75.13 224.655C77.254 224.655 79.216 223.323 79.216 220.641C79.216 218.697 78.046 217.527 78.046 217.527L76.966 217.941C76.966 217.941 77.992 219.093 77.992 220.479C77.992 222.063 76.858 223.035 75.184 223.161L74.554 218.391L74.302 217.527C71.98 217.527 70.684 218.895 70.684 220.767C70.684 223.071 72.592 224.655 75.13 224.655ZM71.854 220.857C71.854 219.237 73.582 219.075 73.582 219.075L74.104 223.143C72.844 222.945 71.854 222.153 71.854 220.857ZM77.182 216.045C78.37 216.045 79.216 215.163 79.216 213.777C79.216 212.139 78.064 211.257 77.812 211.095C78.478 210.915 79 210.483 79.126 209.349L77.992 208.881C77.992 208.881 77.974 209.781 76.912 209.781L73.258 209.781C71.44 209.781 70.684 210.357 70.684 212.121C70.684 214.137 71.674 215.487 71.674 215.487L72.808 215.055C72.808 215.055 71.908 213.867 71.908 212.517C71.908 211.167 72.808 211.185 73.762 211.185L74.068 211.185C74.464 214.263 75.508 216.045 77.182 216.045ZM77.992 213.489C77.992 214.083 77.722 214.551 77.092 214.551C76.048 214.551 75.472 213.471 75.094 211.185L76.588 211.185C77.254 211.761 77.992 212.499 77.992 213.489ZM75.22 207.446C77.452 207.446 79.216 206.078 79.216 203.972C79.216 202.676 78.55 201.794 77.83 201.344C78.388 201.254 79.126 201.092 79.126 201.092L79 199.706C79 199.706 77.488 200.066 76.498 200.066L66.148 200.066L66.4 201.47L70.972 201.47C70.882 201.686 70.684 202.226 70.684 203.036C70.684 205.934 72.88 207.446 75.22 207.446ZM77.992 203.792C77.992 205.016 76.93 205.952 75.13 205.952C73.06 205.952 71.872 204.746 71.872 203.018C71.872 202.244 72.124 201.506 73.024 201.47L76.516 201.47C76.858 201.686 77.992 202.514 77.992 203.792ZM68.848 196.57C68.848 196.03 68.416 195.598 67.876 195.598C67.336 195.598 66.904 196.03 66.904 196.57C66.904 197.11 67.336 197.542 67.876 197.542C68.416 197.542 68.848 197.11 68.848 196.57ZM79 197.29L79 195.886L70.9 195.886L70.9 197.29L79 197.29ZM79 193.178L79 191.774L73.654 191.774C73.15 191.252 71.926 189.866 71.926 188.804C71.926 188.192 72.304 187.706 73.51 187.706L79 187.706L79 186.302L73.114 186.302C71.368 186.302 70.684 187.22 70.684 188.426C70.684 189.992 71.818 191.252 72.358 191.774L70.774 191.774L71.026 193.178L79 193.178ZM77.542 183.74C78.082 183.74 78.406 183.182 78.64 182.39C79.108 183.308 79.864 184.496 81.106 184.496C82.546 184.496 83.266 182.786 83.266 181.04C83.266 178.736 81.934 176.72 80.278 176.72C78.802 176.72 78.37 178.304 78.028 179.852C77.686 181.382 77.506 182.228 77.164 182.228C76.93 182.228 76.678 181.886 76.408 181.508C76.444 181.31 76.462 181.094 76.462 180.86C76.462 179.24 75.544 177.422 73.654 177.422C72.862 177.422 72.304 177.818 72.07 178.034C72.088 177.854 72.106 177.602 72.106 177.368L72.106 176.342L70.846 176.468C70.846 176.468 71.026 177.008 71.026 177.53L71.026 178.394C71.026 179.276 70.684 179.78 70.684 180.716C70.684 182.48 71.728 184.064 73.51 184.064C74.644 184.064 75.598 183.47 76.102 182.498C76.444 183.074 76.966 183.74 77.542 183.74ZM80.908 183.2C80.008 183.2 79.468 182.174 78.946 181.22C79 180.914 79.054 180.626 79.126 180.32C79.396 179.096 79.684 178.16 80.476 178.16C81.376 178.16 82.186 179.402 82.186 180.932C82.186 181.886 81.88 183.2 80.908 183.2ZM75.382 180.734C75.382 182.03 74.5 182.624 73.6 182.624C72.574 182.624 71.764 181.922 71.764 180.77C71.764 179.492 72.808 178.862 73.726 178.862C74.788 178.862 75.382 179.672 75.382 180.734Z" fill="black"/>
</svg>
