<svg width="1078" height="475" viewBox="0 0 1078 475" fill="none" xmlns="http://www.w3.org/2000/svg">
<rect x="1" y="1" width="1076" height="473" fill="#FAFAFA" stroke="#BDBDBD" stroke-width="2"/>
<path d="M53.99 57.894C53.99 62.448 57.554 65.264 61.998 65.264C64.176 65.264 67.08 64.582 67.08 64.582V57.256H61.778V59.148H64.836V62.998C64.836 62.998 63.538 63.306 62.262 63.306C58.742 63.306 56.344 61.04 56.344 57.718C56.344 54.748 58.258 52.02 61.998 52.02C64.396 52.02 66.156 53.12 66.156 53.12L67.036 51.162C67.036 51.162 65.078 50.062 62.108 50.062C56.916 50.062 53.99 53.758 53.99 57.894ZM69.4373 57.696C69.4373 61.744 72.4513 65.264 77.0933 65.264C81.8893 65.264 85.0133 61.502 85.0133 57.388C85.0133 53.34 82.0213 50.062 77.2913 50.062C72.2533 50.062 69.4373 53.824 69.4373 57.696ZM71.8353 57.586C71.8353 54.77 73.7493 51.998 77.2253 51.998C80.7013 51.998 82.6153 54.726 82.6153 57.564C82.6153 60.424 80.6133 63.328 77.1593 63.328C73.6833 63.328 71.8353 60.314 71.8353 57.586ZM86.0481 65H88.3141L89.7441 61.084H95.5961L97.0481 65H99.3801L93.7921 50.216H91.6361L86.0481 65ZM92.6701 53.12L94.9141 59.192H90.4481L92.6701 53.12ZM101.602 65H110.732V63.108H103.868V50.326H101.602V65ZM117.457 65H124.343V63.24H122.077V54.616H117.589V56.354H119.921V63.24H117.457V65ZM131.424 60.292H136.792V58.62H131.424V60.292ZM58.456 95.11H60.634L65.892 80.326H63.582L59.6 91.744L55.618 80.326H53.22L58.456 95.11ZM66.1649 92.712C66.1649 94.186 67.2869 95.264 69.0249 95.264C70.9609 95.264 71.9729 94.032 72.2369 93.614C72.5229 94.406 73.1609 95.044 74.6789 95.154L75.3389 93.438C75.3389 93.438 74.2389 93.416 74.2389 92.184V87.982C74.2389 85.76 73.4909 84.792 71.1369 84.792C68.5189 84.792 66.8249 86.046 66.8249 86.046L67.3969 87.674C67.3969 87.674 68.9149 86.53 70.5429 86.53C72.1489 86.53 72.0609 87.63 72.0609 88.884C68.3429 89.368 66.1649 90.622 66.1649 92.712ZM69.5749 93.548C68.9369 93.548 68.4089 93.262 68.4089 92.558C68.4089 91.392 69.5309 90.666 72.0609 90.292V92.008C71.4009 92.778 70.5869 93.548 69.5749 93.548ZM77.5283 95H79.7063V79.27L77.5283 79.622V95ZM82.7034 92.272C82.7034 94.406 83.8034 95.264 85.4094 95.264C87.2354 95.264 88.6214 94.098 89.2594 93.416C89.3694 94.142 89.5894 95.176 89.5894 95.176L91.7014 94.978C91.7014 94.978 91.2614 93.152 91.2614 91.942V85.056H89.0834V91.744C88.4674 92.316 87.2354 93.372 86.1134 93.372C85.2994 93.372 84.8814 92.822 84.8814 91.436V85.056H82.7034V92.272ZM93.755 90.182C93.755 92.844 95.449 95.264 98.771 95.264C101.257 95.264 102.775 93.834 102.775 93.834L102.159 92.25C102.159 92.25 100.773 93.482 99.101 93.482C97.363 93.482 96.263 92.316 96.021 90.512L101.455 89.786L102.709 89.434C102.709 86.42 100.993 84.792 98.617 84.792C95.713 84.792 93.755 87.146 93.755 90.182ZM98.463 86.486C100.201 86.486 100.333 88.51 100.333 88.51L96.021 89.06C96.219 87.608 97.055 86.486 98.463 86.486ZM110.441 95H112.619V88.532C113.257 87.894 114.621 86.684 115.699 86.684C116.425 86.684 116.821 87.212 116.821 88.62V95H118.999V88.488C119.747 87.762 120.979 86.684 121.991 86.684C122.717 86.684 123.135 87.212 123.135 88.62V95H125.291V87.828C125.291 85.694 124.257 84.792 122.717 84.792C120.979 84.792 119.615 85.958 118.889 86.75C118.581 85.386 117.679 84.792 116.425 84.792C114.665 84.792 113.257 86.002 112.575 86.75V84.88L110.441 85.232V95ZM127.086 98.476L127.768 100.214C130.1 99.95 131.552 97.86 132.41 95.748L136.722 85.056H134.478L131.904 91.876L129.286 85.056H126.976L130.826 94.494L130.298 95.682C129.704 97.068 128.538 98.234 127.086 98.476ZM137.797 94.384C137.797 94.384 139.029 95.264 141.097 95.264C143.539 95.264 144.969 94.054 144.969 92.25C144.969 89.082 140.195 89.236 140.195 87.498C140.195 86.926 140.679 86.508 141.779 86.508C143.055 86.508 144.199 87.124 144.199 87.124L144.705 85.342C144.705 85.342 143.605 84.792 141.867 84.792C139.117 84.792 138.017 86.134 138.017 87.674C138.017 90.798 142.791 90.666 142.791 92.448C142.791 93.086 142.241 93.548 141.075 93.548C139.469 93.548 138.259 92.536 138.259 92.536L137.797 94.384ZM146.693 90.182C146.693 92.844 148.387 95.264 151.709 95.264C154.195 95.264 155.713 93.834 155.713 93.834L155.097 92.25C155.097 92.25 153.711 93.482 152.039 93.482C150.301 93.482 149.201 92.316 148.959 90.512L154.393 89.786L155.647 89.434C155.647 86.42 153.931 84.792 151.555 84.792C148.651 84.792 146.693 87.146 146.693 90.182ZM151.401 86.486C153.139 86.486 153.271 88.51 153.271 88.51L148.959 89.06C149.157 87.608 149.993 86.486 151.401 86.486ZM158.138 95H160.316V79.27L158.138 79.622V95ZM162.433 86.706H163.995V95H166.173V86.706H168.923V85.056H166.173V83.868C166.173 81.536 167.229 80.722 168.395 80.722C169.473 80.722 170.441 81.426 170.441 81.426L171.299 79.754C171.299 79.754 170.155 78.918 168.417 78.918C165.821 78.918 163.995 80.744 163.995 84V84.968L162.433 85.54V86.706ZM175.546 90.182C175.546 92.844 177.24 95.264 180.562 95.264C183.048 95.264 184.566 93.834 184.566 93.834L183.95 92.25C183.95 92.25 182.564 93.482 180.892 93.482C179.154 93.482 178.054 92.316 177.812 90.512L183.246 89.786L184.5 89.434C184.5 86.42 182.784 84.792 180.408 84.792C177.504 84.792 175.546 87.146 175.546 90.182ZM180.254 86.486C181.992 86.486 182.124 88.51 182.124 88.51L177.812 89.06C178.01 87.608 178.846 86.486 180.254 86.486ZM186.947 95H189.125V88.554C189.807 87.894 191.215 86.684 192.315 86.684C193.063 86.684 193.503 87.212 193.503 88.62V95H195.681V87.828C195.681 85.694 194.603 84.792 193.041 84.792C191.215 84.792 189.785 86.002 189.081 86.772V84.88L186.947 85.232V95ZM197.975 90.072C197.975 92.712 199.757 95.264 203.057 95.264C206.643 95.264 208.227 92.25 208.227 89.83C208.227 87.278 206.445 84.792 203.145 84.792C199.581 84.792 197.975 87.586 197.975 90.072ZM200.241 89.874C200.241 87.894 201.407 86.53 203.101 86.53C205.125 86.53 205.961 88.356 205.961 90.116C205.961 92.118 204.795 93.526 203.123 93.526C201.143 93.526 200.241 91.722 200.241 89.874ZM210.514 92.272C210.514 94.406 211.614 95.264 213.22 95.264C215.046 95.264 216.432 94.098 217.07 93.416C217.18 94.142 217.4 95.176 217.4 95.176L219.512 94.978C219.512 94.978 219.072 93.152 219.072 91.942V85.056H216.894V91.744C216.278 92.316 215.046 93.372 213.924 93.372C213.11 93.372 212.692 92.822 212.692 91.436V85.056H210.514V92.272ZM222.16 93.24C222.16 93.922 222.798 94.318 223.788 94.648C222.732 95.198 221.258 96.144 221.258 97.596C221.258 99.334 223.414 100.214 225.614 100.214C228.606 100.214 231.048 98.52 231.048 96.518C231.048 94.692 229.046 94.142 227.286 93.702C225.218 93.196 224.25 92.998 224.25 92.602C224.25 92.36 224.602 92.096 225.064 91.788C225.284 91.832 225.526 91.832 225.79 91.832C227.924 91.832 230.19 90.666 230.19 88.488C230.19 87.608 229.772 87.014 229.464 86.662C229.728 86.706 230.036 86.728 230.278 86.728H231.466L231.312 84.99C231.312 84.99 230.652 85.21 229.992 85.21H228.848C227.748 85.21 227.176 84.792 225.966 84.792C223.744 84.792 221.742 86.046 221.742 88.268C221.742 89.61 222.468 90.776 223.722 91.392C222.908 91.854 222.16 92.514 222.16 93.24ZM226.032 95.22C227.88 95.704 228.914 95.99 228.914 96.848C228.914 97.838 227.506 98.63 225.746 98.63C224.492 98.63 223.216 98.234 223.216 97.244C223.216 96.254 224.426 95.594 225.372 95.066C225.592 95.11 225.812 95.154 226.032 95.22ZM225.944 90.292C224.536 90.292 223.876 89.28 223.876 88.334C223.876 87.3 224.624 86.332 225.944 86.332C227.352 86.332 228.034 87.476 228.034 88.444C228.034 89.566 227.154 90.292 225.944 90.292ZM233.354 95H235.532V88.598C236.192 87.938 237.622 86.684 238.722 86.684C239.47 86.684 239.91 87.212 239.91 88.62V95H242.088V87.828C242.088 85.694 241.01 84.792 239.426 84.792C237.6 84.792 236.192 86.024 235.532 86.728V79.27L233.354 79.622V95ZM250.877 92.294C250.877 94.34 251.999 95.264 253.715 95.264C255.475 95.264 256.773 94.208 256.773 94.208L256.223 92.558C255.959 92.712 255.035 93.438 254.199 93.438C253.473 93.438 253.055 92.954 253.055 91.744V86.706H256.201V85.056H253.055V82.24L250.921 82.702V84.968L249.403 85.518V86.706H250.877V92.294ZM257.981 90.072C257.981 92.712 259.763 95.264 263.063 95.264C266.649 95.264 268.233 92.25 268.233 89.83C268.233 87.278 266.451 84.792 263.151 84.792C259.587 84.792 257.981 87.586 257.981 90.072ZM260.247 89.874C260.247 87.894 261.413 86.53 263.107 86.53C265.131 86.53 265.967 88.356 265.967 90.116C265.967 92.118 264.801 93.526 263.129 93.526C261.149 93.526 260.247 91.722 260.247 89.874ZM55.068 122.294C55.068 124.34 56.19 125.264 57.906 125.264C59.666 125.264 60.964 124.208 60.964 124.208L60.414 122.558C60.15 122.712 59.226 123.438 58.39 123.438C57.664 123.438 57.246 122.954 57.246 121.744V116.706H60.392V115.056H57.246V112.24L55.112 112.702V114.968L53.594 115.518V116.706H55.068V122.294ZM62.0185 122.712C62.0185 124.186 63.1405 125.264 64.8785 125.264C66.8145 125.264 67.8265 124.032 68.0905 123.614C68.3765 124.406 69.0145 125.044 70.5325 125.154L71.1925 123.438C71.1925 123.438 70.0925 123.416 70.0925 122.184V117.982C70.0925 115.76 69.3445 114.792 66.9905 114.792C64.3725 114.792 62.6785 116.046 62.6785 116.046L63.2505 117.674C63.2505 117.674 64.7685 116.53 66.3965 116.53C68.0025 116.53 67.9145 117.63 67.9145 118.884C64.1965 119.368 62.0185 120.622 62.0185 122.712ZM65.4285 123.548C64.7905 123.548 64.2625 123.262 64.2625 122.558C64.2625 121.392 65.3845 120.666 67.9145 120.292V122.008C67.2545 122.778 66.4405 123.548 65.4285 123.548ZM73.3818 125H75.5598V120.292H75.8678L79.8278 125H82.6218L77.7818 119.412L82.3138 115.056H79.4758L75.8678 118.686H75.5598V109.27L73.3818 109.622V125ZM83.1632 120.182C83.1632 122.844 84.8572 125.264 88.1792 125.264C90.6652 125.264 92.1832 123.834 92.1832 123.834L91.5672 122.25C91.5672 122.25 90.1812 123.482 88.5092 123.482C86.7712 123.482 85.6712 122.316 85.4292 120.512L90.8632 119.786L92.1172 119.434C92.1172 116.42 90.4012 114.792 88.0252 114.792C85.1212 114.792 83.1632 117.146 83.1632 120.182ZM87.8712 116.486C89.6092 116.486 89.7412 118.51 89.7412 118.51L85.4292 119.06C85.6272 117.608 86.4632 116.486 87.8712 116.486ZM99.2115 120.16C99.2115 123.042 101.214 125.264 104.316 125.264C106.692 125.264 107.836 123.988 107.836 123.988L107.132 122.448C107.132 122.448 106.054 123.482 104.47 123.482C102.6 123.482 101.478 122.008 101.478 120.05C101.478 118.026 102.688 116.552 104.492 116.552C105.944 116.552 106.978 117.476 106.978 117.476L107.836 115.848C107.836 115.848 106.626 114.792 104.448 114.792C101.17 114.792 99.2115 117.41 99.2115 120.16ZM109.18 120.072C109.18 122.712 110.962 125.264 114.262 125.264C117.848 125.264 119.432 122.25 119.432 119.83C119.432 117.278 117.65 114.792 114.35 114.792C110.786 114.792 109.18 117.586 109.18 120.072ZM111.446 119.874C111.446 117.894 112.612 116.53 114.306 116.53C116.33 116.53 117.166 118.356 117.166 120.116C117.166 122.118 116 123.526 114.328 123.526C112.348 123.526 111.446 121.722 111.446 119.874ZM121.785 125H123.963V118.554C124.645 117.894 126.053 116.684 127.153 116.684C127.901 116.684 128.341 117.212 128.341 118.62V125H130.519V117.828C130.519 115.694 129.441 114.792 127.879 114.792C126.053 114.792 124.623 116.002 123.919 116.772V114.88L121.785 115.232V125ZM132.791 124.384C132.791 124.384 134.023 125.264 136.091 125.264C138.533 125.264 139.963 124.054 139.963 122.25C139.963 119.082 135.189 119.236 135.189 117.498C135.189 116.926 135.673 116.508 136.773 116.508C138.049 116.508 139.193 117.124 139.193 117.124L139.699 115.342C139.699 115.342 138.599 114.792 136.861 114.792C134.111 114.792 133.011 116.134 133.011 117.674C133.011 120.798 137.785 120.666 137.785 122.448C137.785 123.086 137.235 123.548 136.069 123.548C134.463 123.548 133.253 122.536 133.253 122.536L132.791 124.384ZM143.447 112.68C144.239 112.68 144.833 112.108 144.833 111.338C144.833 110.568 144.239 109.996 143.447 109.996C142.677 109.996 142.083 110.568 142.083 111.338C142.083 112.108 142.677 112.68 143.447 112.68ZM142.347 125H144.525V115.056H142.347V125ZM146.928 124.384C146.928 124.384 148.16 125.264 150.228 125.264C152.67 125.264 154.1 124.054 154.1 122.25C154.1 119.082 149.326 119.236 149.326 117.498C149.326 116.926 149.81 116.508 150.91 116.508C152.186 116.508 153.33 117.124 153.33 117.124L153.836 115.342C153.836 115.342 152.736 114.792 150.998 114.792C148.248 114.792 147.148 116.134 147.148 117.674C147.148 120.798 151.922 120.666 151.922 122.448C151.922 123.086 151.372 123.548 150.206 123.548C148.6 123.548 147.39 122.536 147.39 122.536L146.928 124.384ZM157.011 122.294C157.011 124.34 158.133 125.264 159.849 125.264C161.609 125.264 162.907 124.208 162.907 124.208L162.357 122.558C162.093 122.712 161.169 123.438 160.333 123.438C159.607 123.438 159.189 122.954 159.189 121.744V116.706H162.335V115.056H159.189V112.24L157.055 112.702V114.968L155.537 115.518V116.706H157.011V122.294ZM164.138 120.182C164.138 122.844 165.832 125.264 169.154 125.264C171.64 125.264 173.158 123.834 173.158 123.834L172.542 122.25C172.542 122.25 171.156 123.482 169.484 123.482C167.746 123.482 166.646 122.316 166.404 120.512L171.838 119.786L173.092 119.434C173.092 116.42 171.376 114.792 169 114.792C166.096 114.792 164.138 117.146 164.138 120.182ZM168.846 116.486C170.584 116.486 170.716 118.51 170.716 118.51L166.404 119.06C166.602 117.608 167.438 116.486 168.846 116.486ZM175.539 125H177.717V118.554C178.399 117.894 179.807 116.684 180.907 116.684C181.655 116.684 182.095 117.212 182.095 118.62V125H184.273V117.828C184.273 115.694 183.195 114.792 181.633 114.792C179.807 114.792 178.377 116.002 177.673 116.772V114.88L175.539 115.232V125ZM187.777 122.294C187.777 124.34 188.899 125.264 190.615 125.264C192.375 125.264 193.673 124.208 193.673 124.208L193.123 122.558C192.859 122.712 191.935 123.438 191.099 123.438C190.373 123.438 189.955 122.954 189.955 121.744V116.706H193.101V115.056H189.955V112.24L187.821 112.702V114.968L186.303 115.518V116.706H187.777V122.294ZM200.013 122.712C200.013 124.186 201.135 125.264 202.873 125.264C204.809 125.264 205.821 124.032 206.085 123.614C206.371 124.406 207.009 125.044 208.527 125.154L209.187 123.438C209.187 123.438 208.087 123.416 208.087 122.184V117.982C208.087 115.76 207.339 114.792 204.985 114.792C202.367 114.792 200.673 116.046 200.673 116.046L201.245 117.674C201.245 117.674 202.763 116.53 204.391 116.53C205.997 116.53 205.909 117.63 205.909 118.884C202.191 119.368 200.013 120.622 200.013 122.712ZM203.423 123.548C202.785 123.548 202.257 123.262 202.257 122.558C202.257 121.392 203.379 120.666 205.909 120.292V122.008C205.249 122.778 204.435 123.548 203.423 123.548ZM210.694 120.16C210.694 123.042 212.696 125.264 215.798 125.264C218.174 125.264 219.318 123.988 219.318 123.988L218.614 122.448C218.614 122.448 217.536 123.482 215.952 123.482C214.082 123.482 212.96 122.008 212.96 120.05C212.96 118.026 214.17 116.552 215.974 116.552C217.426 116.552 218.46 117.476 218.46 117.476L219.318 115.848C219.318 115.848 218.108 114.792 215.93 114.792C212.652 114.792 210.694 117.41 210.694 120.16ZM222.045 122.294C222.045 124.34 223.167 125.264 224.883 125.264C226.643 125.264 227.941 124.208 227.941 124.208L227.391 122.558C227.127 122.712 226.203 123.438 225.367 123.438C224.641 123.438 224.223 122.954 224.223 121.744V116.706H227.369V115.056H224.223V112.24L222.089 112.702V114.968L220.571 115.518V116.706H222.045V122.294ZM230.931 112.68C231.723 112.68 232.317 112.108 232.317 111.338C232.317 110.568 231.723 109.996 230.931 109.996C230.161 109.996 229.567 110.568 229.567 111.338C229.567 112.108 230.161 112.68 230.931 112.68ZM229.831 125H232.009V115.056H229.831V125ZM234.434 120.072C234.434 122.712 236.216 125.264 239.516 125.264C243.102 125.264 244.686 122.25 244.686 119.83C244.686 117.278 242.904 114.792 239.604 114.792C236.04 114.792 234.434 117.586 234.434 120.072ZM236.7 119.874C236.7 117.894 237.866 116.53 239.56 116.53C241.584 116.53 242.42 118.356 242.42 120.116C242.42 122.118 241.254 123.526 239.582 123.526C237.602 123.526 236.7 121.722 236.7 119.874ZM247.039 125H249.217V118.554C249.899 117.894 251.307 116.684 252.407 116.684C253.155 116.684 253.595 117.212 253.595 118.62V125H255.773V117.828C255.773 115.694 254.695 114.792 253.133 114.792C251.307 114.792 249.877 116.002 249.173 116.772V114.88L247.039 115.232V125ZM258.045 124.384C258.045 124.384 259.277 125.264 261.345 125.264C263.787 125.264 265.217 124.054 265.217 122.25C265.217 119.082 260.443 119.236 260.443 117.498C260.443 116.926 260.927 116.508 262.027 116.508C263.303 116.508 264.447 117.124 264.447 117.124L264.953 115.342C264.953 115.342 263.853 114.792 262.115 114.792C259.365 114.792 258.265 116.134 258.265 117.674C258.265 120.798 263.039 120.666 263.039 122.448C263.039 123.086 262.489 123.548 261.323 123.548C259.717 123.548 258.507 122.536 258.507 122.536L258.045 124.384ZM53.55 146.706H55.112V155H57.29V146.706H60.04V145.056H57.29V143.868C57.29 141.536 58.346 140.722 59.512 140.722C60.59 140.722 61.558 141.426 61.558 141.426L62.416 139.754C62.416 139.754 61.272 138.918 59.534 138.918C56.938 138.918 55.112 140.744 55.112 144V144.968L53.55 145.54V146.706ZM61.1842 150.072C61.1842 152.712 62.9662 155.264 66.2662 155.264C69.8522 155.264 71.4362 152.25 71.4362 149.83C71.4362 147.278 69.6542 144.792 66.3542 144.792C62.7902 144.792 61.1842 147.586 61.1842 150.072ZM63.4502 149.874C63.4502 147.894 64.6162 146.53 66.3102 146.53C68.3342 146.53 69.1702 148.356 69.1702 150.116C69.1702 152.118 68.0042 153.526 66.3322 153.526C64.3522 153.526 63.4502 151.722 63.4502 149.874ZM73.789 155H75.967V148.84C76.385 148.18 77.287 146.992 78.387 146.992C78.827 146.992 79.267 147.168 79.267 147.168L79.707 144.968C79.707 144.968 79.399 144.792 78.849 144.792C77.331 144.792 76.319 146.2 75.923 146.882V144.88L73.789 145.232V155ZM86.7226 155H88.9006V148.532C89.5386 147.894 90.9026 146.684 91.9806 146.684C92.7066 146.684 93.1026 147.212 93.1026 148.62V155H95.2806V148.488C96.0286 147.762 97.2606 146.684 98.2726 146.684C98.9986 146.684 99.4166 147.212 99.4166 148.62V155H101.573V147.828C101.573 145.694 100.539 144.792 98.9986 144.792C97.2606 144.792 95.8966 145.958 95.1706 146.75C94.8626 145.386 93.9606 144.792 92.7066 144.792C90.9466 144.792 89.5386 146.002 88.8566 146.75V144.88L86.7226 145.232V155ZM103.368 158.476L104.05 160.214C106.382 159.95 107.834 157.86 108.692 155.748L113.004 145.056H110.76L108.186 151.876L105.568 145.056H103.258L107.108 154.494L106.58 155.682C105.986 157.068 104.82 158.234 103.368 158.476ZM120.067 155H122.245V148.598C122.905 147.938 124.335 146.684 125.435 146.684C126.183 146.684 126.623 147.212 126.623 148.62V155H128.801V147.828C128.801 145.694 127.723 144.792 126.139 144.792C124.313 144.792 122.905 146.024 122.245 146.728V139.27L120.067 139.622V155ZM131.116 150.182C131.116 152.844 132.81 155.264 136.132 155.264C138.618 155.264 140.136 153.834 140.136 153.834L139.52 152.25C139.52 152.25 138.134 153.482 136.462 153.482C134.724 153.482 133.624 152.316 133.382 150.512L138.816 149.786L140.07 149.434C140.07 146.42 138.354 144.792 135.978 144.792C133.074 144.792 131.116 147.146 131.116 150.182ZM135.824 146.486C137.562 146.486 137.694 148.51 137.694 148.51L133.382 149.06C133.58 147.608 134.416 146.486 135.824 146.486ZM141.725 152.712C141.725 154.186 142.847 155.264 144.585 155.264C146.521 155.264 147.533 154.032 147.797 153.614C148.083 154.406 148.721 155.044 150.239 155.154L150.899 153.438C150.899 153.438 149.799 153.416 149.799 152.184V147.982C149.799 145.76 149.051 144.792 146.697 144.792C144.079 144.792 142.385 146.046 142.385 146.046L142.957 147.674C142.957 147.674 144.475 146.53 146.103 146.53C147.709 146.53 147.621 147.63 147.621 148.884C143.903 149.368 141.725 150.622 141.725 152.712ZM145.135 153.548C144.497 153.548 143.969 153.262 143.969 152.558C143.969 151.392 145.091 150.666 147.621 150.292V152.008C146.961 152.778 146.147 153.548 145.135 153.548ZM153.089 155H155.267V139.27L153.089 139.622V155ZM158.902 152.294C158.902 154.34 160.024 155.264 161.74 155.264C163.5 155.264 164.798 154.208 164.798 154.208L164.248 152.558C163.984 152.712 163.06 153.438 162.224 153.438C161.498 153.438 161.08 152.954 161.08 151.744V146.706H164.226V145.056H161.08V142.24L158.946 142.702V144.968L157.428 145.518V146.706H158.902V152.294ZM166.688 155H168.866V148.598C169.526 147.938 170.956 146.684 172.056 146.684C172.804 146.684 173.244 147.212 173.244 148.62V155H175.422V147.828C175.422 145.694 174.344 144.792 172.76 144.792C170.934 144.792 169.526 146.024 168.866 146.728V139.27L166.688 139.622V155ZM178.067 153.79C178.067 154.604 178.727 155.264 179.541 155.264C180.355 155.264 181.037 154.604 181.037 153.79C181.037 152.954 180.355 152.294 179.541 152.294C178.727 152.294 178.067 152.954 178.067 153.79Z" fill="#333333"/>
<path d="M549.99 57.894C549.99 62.448 553.554 65.264 557.998 65.264C560.176 65.264 563.08 64.582 563.08 64.582V57.256H557.778V59.148H560.836V62.998C560.836 62.998 559.538 63.306 558.262 63.306C554.742 63.306 552.344 61.04 552.344 57.718C552.344 54.748 554.258 52.02 557.998 52.02C560.396 52.02 562.156 53.12 562.156 53.12L563.036 51.162C563.036 51.162 561.078 50.062 558.108 50.062C552.916 50.062 549.99 53.758 549.99 57.894ZM565.437 57.696C565.437 61.744 568.451 65.264 573.093 65.264C577.889 65.264 581.013 61.502 581.013 57.388C581.013 53.34 578.021 50.062 573.291 50.062C568.253 50.062 565.437 53.824 565.437 57.696ZM567.835 57.586C567.835 54.77 569.749 51.998 573.225 51.998C576.701 51.998 578.615 54.726 578.615 57.564C578.615 60.424 576.613 63.328 573.159 63.328C569.683 63.328 567.835 60.314 567.835 57.586ZM582.048 65H584.314L585.744 61.084H591.596L593.048 65H595.38L589.792 50.216H587.636L582.048 65ZM588.67 53.12L590.914 59.192H586.448L588.67 53.12ZM597.602 65H606.732V63.108H599.868V50.326H597.602V65ZM612.885 67.552L613.061 69.246C613.281 69.268 613.479 69.268 613.677 69.268C617.461 69.268 620.343 67.398 620.343 64.472C620.343 62.8 619.265 61.458 617.285 60.974C618.583 60.27 619.969 58.994 619.969 57.3C619.969 55.584 618.473 54.352 616.471 54.352C614.337 54.352 612.731 55.738 612.731 55.738L613.677 57.124C613.677 57.124 614.953 56.178 616.141 56.178C617.043 56.178 617.725 56.728 617.725 57.608C617.725 59.104 615.789 60.49 614.249 60.622V62.316H614.777C616.317 62.316 618.077 62.822 618.077 64.538C618.077 66.54 616.031 67.574 613.589 67.574C613.347 67.574 613.127 67.574 612.885 67.552ZM627.725 60.292H633.093V58.62H627.725V60.292ZM551.002 95H553.268V88.62H558.438V86.662H553.268V82.218H559.802V80.326H551.002V95ZM560.536 90.182C560.536 92.844 562.23 95.264 565.552 95.264C568.038 95.264 569.556 93.834 569.556 93.834L568.94 92.25C568.94 92.25 567.554 93.482 565.882 93.482C564.144 93.482 563.044 92.316 562.802 90.512L568.236 89.786L569.49 89.434C569.49 86.42 567.774 84.792 565.398 84.792C562.494 84.792 560.536 87.146 560.536 90.182ZM565.244 86.486C566.982 86.486 567.114 88.51 567.114 88.51L562.802 89.06C563 87.608 563.836 86.486 565.244 86.486ZM571.321 90.182C571.321 92.844 573.015 95.264 576.337 95.264C578.823 95.264 580.341 93.834 580.341 93.834L579.725 92.25C579.725 92.25 578.339 93.482 576.667 93.482C574.929 93.482 573.829 92.316 573.587 90.512L579.021 89.786L580.275 89.434C580.275 86.42 578.559 84.792 576.183 84.792C573.279 84.792 571.321 87.146 571.321 90.182ZM576.029 86.486C577.767 86.486 577.899 88.51 577.899 88.51L573.587 89.06C573.785 87.608 574.621 86.486 576.029 86.486ZM582.767 95H584.945V79.27L582.767 79.622V95ZM593.337 95H595.515V88.598C596.175 87.938 597.605 86.684 598.705 86.684C599.453 86.684 599.893 87.212 599.893 88.62V95H602.071V87.828C602.071 85.694 600.993 84.792 599.409 84.792C597.583 84.792 596.175 86.024 595.515 86.728V79.27L593.337 79.622V95ZM604.364 90.072C604.364 92.712 606.146 95.264 609.446 95.264C613.032 95.264 614.616 92.25 614.616 89.83C614.616 87.278 612.834 84.792 609.534 84.792C605.97 84.792 604.364 87.586 604.364 90.072ZM606.63 89.874C606.63 87.894 607.796 86.53 609.49 86.53C611.514 86.53 612.35 88.356 612.35 90.116C612.35 92.118 611.184 93.526 609.512 93.526C607.532 93.526 606.63 91.722 606.63 89.874ZM616.969 100.126L619.147 99.774V94.736C619.565 95.044 620.313 95.264 621.237 95.264C624.405 95.264 626.253 92.668 626.253 89.72C626.253 87.014 624.669 84.792 622.051 84.792C620.489 84.792 619.543 85.606 619.081 86.464V84.88L616.969 85.232V100.126ZM621.677 86.596C623.019 86.596 623.965 87.806 623.965 89.874C623.965 92.25 622.711 93.548 620.841 93.548C619.807 93.548 619.147 93.174 619.147 92.426V88.202C619.433 87.784 620.357 86.596 621.677 86.596ZM628.019 90.182C628.019 92.844 629.713 95.264 633.035 95.264C635.521 95.264 637.039 93.834 637.039 93.834L636.423 92.25C636.423 92.25 635.037 93.482 633.365 93.482C631.627 93.482 630.527 92.316 630.285 90.512L635.719 89.786L636.973 89.434C636.973 86.42 635.257 84.792 632.881 84.792C629.977 84.792 628.019 87.146 628.019 90.182ZM632.727 86.486C634.465 86.486 634.597 88.51 634.597 88.51L630.285 89.06C630.483 87.608 631.319 86.486 632.727 86.486ZM638.474 86.706H640.036V95H642.214V86.706H644.964V85.056H642.214V83.868C642.214 81.536 643.27 80.722 644.436 80.722C645.514 80.722 646.482 81.426 646.482 81.426L647.34 79.754C647.34 79.754 646.196 78.918 644.458 78.918C641.862 78.918 640.036 80.744 640.036 84V84.968L638.474 85.54V86.706ZM646.852 92.272C646.852 94.406 647.952 95.264 649.558 95.264C651.384 95.264 652.77 94.098 653.408 93.416C653.518 94.142 653.738 95.176 653.738 95.176L655.85 94.978C655.85 94.978 655.41 93.152 655.41 91.942V85.056H653.232V91.744C652.616 92.316 651.384 93.372 650.262 93.372C649.448 93.372 649.03 92.822 649.03 91.436V85.056H646.852V92.272ZM658.563 95H660.741V79.27L658.563 79.622V95ZM669.662 92.294C669.662 94.34 670.784 95.264 672.5 95.264C674.26 95.264 675.558 94.208 675.558 94.208L675.008 92.558C674.744 92.712 673.82 93.438 672.984 93.438C672.258 93.438 671.84 92.954 671.84 91.744V86.706H674.986V85.056H671.84V82.24L669.706 82.702V84.968L668.188 85.518V86.706H669.662V92.294ZM677.448 95H679.626V88.598C680.286 87.938 681.716 86.684 682.816 86.684C683.564 86.684 684.004 87.212 684.004 88.62V95H686.182V87.828C686.182 85.694 685.104 84.792 683.52 84.792C681.694 84.792 680.286 86.024 679.626 86.728V79.27L677.448 79.622V95ZM688.321 92.712C688.321 94.186 689.443 95.264 691.181 95.264C693.117 95.264 694.129 94.032 694.393 93.614C694.679 94.406 695.317 95.044 696.835 95.154L697.495 93.438C697.495 93.438 696.395 93.416 696.395 92.184V87.982C696.395 85.76 695.647 84.792 693.293 84.792C690.675 84.792 688.981 86.046 688.981 86.046L689.553 87.674C689.553 87.674 691.071 86.53 692.699 86.53C694.305 86.53 694.217 87.63 694.217 88.884C690.499 89.368 688.321 90.622 688.321 92.712ZM691.731 93.548C691.093 93.548 690.565 93.262 690.565 92.558C690.565 91.392 691.687 90.666 694.217 90.292V92.008C693.557 92.778 692.743 93.548 691.731 93.548ZM700.127 92.294C700.127 94.34 701.249 95.264 702.965 95.264C704.725 95.264 706.023 94.208 706.023 94.208L705.473 92.558C705.209 92.712 704.285 93.438 703.449 93.438C702.723 93.438 702.305 92.954 702.305 91.744V86.706H705.451V85.056H702.305V82.24L700.171 82.702V84.968L698.653 85.518V86.706H700.127V92.294ZM713.66 95H715.926V80.326H713.66V95ZM724.096 90.16C724.096 93.042 726.098 95.264 729.2 95.264C731.576 95.264 732.72 93.988 732.72 93.988L732.016 92.448C732.016 92.448 730.938 93.482 729.354 93.482C727.484 93.482 726.362 92.008 726.362 90.05C726.362 88.026 727.572 86.552 729.376 86.552C730.828 86.552 731.862 87.476 731.862 87.476L732.72 85.848C732.72 85.848 731.51 84.792 729.332 84.792C726.054 84.792 724.096 87.41 724.096 90.16ZM734.083 92.712C734.083 94.186 735.205 95.264 736.943 95.264C738.879 95.264 739.891 94.032 740.155 93.614C740.441 94.406 741.079 95.044 742.597 95.154L743.257 93.438C743.257 93.438 742.157 93.416 742.157 92.184V87.982C742.157 85.76 741.409 84.792 739.055 84.792C736.437 84.792 734.743 86.046 734.743 86.046L735.315 87.674C735.315 87.674 736.833 86.53 738.461 86.53C740.067 86.53 739.979 87.63 739.979 88.884C736.261 89.368 734.083 90.622 734.083 92.712ZM737.493 93.548C736.855 93.548 736.327 93.262 736.327 92.558C736.327 91.392 737.449 90.666 739.979 90.292V92.008C739.319 92.778 738.505 93.548 737.493 93.548ZM745.402 95H747.58V88.554C748.262 87.894 749.67 86.684 750.77 86.684C751.518 86.684 751.958 87.212 751.958 88.62V95H754.136V87.828C754.136 85.694 753.058 84.792 751.496 84.792C749.67 84.792 748.24 86.002 747.536 86.772V84.88L745.402 85.232V95ZM550.474 123.24C550.474 123.922 551.112 124.318 552.102 124.648C551.046 125.198 549.572 126.144 549.572 127.596C549.572 129.334 551.728 130.214 553.928 130.214C556.92 130.214 559.362 128.52 559.362 126.518C559.362 124.692 557.36 124.142 555.6 123.702C553.532 123.196 552.564 122.998 552.564 122.602C552.564 122.36 552.916 122.096 553.378 121.788C553.598 121.832 553.84 121.832 554.104 121.832C556.238 121.832 558.504 120.666 558.504 118.488C558.504 117.608 558.086 117.014 557.778 116.662C558.042 116.706 558.35 116.728 558.592 116.728H559.78L559.626 114.99C559.626 114.99 558.966 115.21 558.306 115.21H557.162C556.062 115.21 555.49 114.792 554.28 114.792C552.058 114.792 550.056 116.046 550.056 118.268C550.056 119.61 550.782 120.776 552.036 121.392C551.222 121.854 550.474 122.514 550.474 123.24ZM554.346 125.22C556.194 125.704 557.228 125.99 557.228 126.848C557.228 127.838 555.82 128.63 554.06 128.63C552.806 128.63 551.53 128.234 551.53 127.244C551.53 126.254 552.74 125.594 553.686 125.066C553.906 125.11 554.126 125.154 554.346 125.22ZM554.258 120.292C552.85 120.292 552.19 119.28 552.19 118.334C552.19 117.3 552.938 116.332 554.258 116.332C555.666 116.332 556.348 117.476 556.348 118.444C556.348 119.566 555.468 120.292 554.258 120.292ZM561.009 120.182C561.009 122.844 562.703 125.264 566.025 125.264C568.511 125.264 570.029 123.834 570.029 123.834L569.413 122.25C569.413 122.25 568.027 123.482 566.355 123.482C564.617 123.482 563.517 122.316 563.275 120.512L568.709 119.786L569.963 119.434C569.963 116.42 568.247 114.792 565.871 114.792C562.967 114.792 561.009 117.146 561.009 120.182ZM565.717 116.486C567.455 116.486 567.587 118.51 567.587 118.51L563.275 119.06C563.473 117.608 564.309 116.486 565.717 116.486ZM572.982 122.294C572.982 124.34 574.104 125.264 575.82 125.264C577.58 125.264 578.878 124.208 578.878 124.208L578.328 122.558C578.064 122.712 577.14 123.438 576.304 123.438C575.578 123.438 575.16 122.954 575.16 121.744V116.706H578.306V115.056H575.16V112.24L573.026 112.702V114.968L571.508 115.518V116.706H572.982V122.294ZM586.01 124.78C586.758 124.956 588.452 125.264 589.64 125.264C593.402 125.264 595.206 122.58 595.206 119.676C595.206 116.948 593.622 114.792 590.872 114.792C589.508 114.792 588.694 115.342 588.188 115.914V109.27L586.01 109.622V124.78ZM590.52 116.552C591.972 116.552 592.962 117.762 592.962 119.83C592.962 122.294 591.576 123.614 589.684 123.614C588.87 123.614 588.188 123.394 588.188 123.394V117.586C588.65 117.168 589.486 116.552 590.52 116.552ZM596.819 122.712C596.819 124.186 597.941 125.264 599.679 125.264C601.615 125.264 602.627 124.032 602.891 123.614C603.177 124.406 603.815 125.044 605.333 125.154L605.993 123.438C605.993 123.438 604.893 123.416 604.893 122.184V117.982C604.893 115.76 604.145 114.792 601.791 114.792C599.173 114.792 597.479 116.046 597.479 116.046L598.051 117.674C598.051 117.674 599.569 116.53 601.197 116.53C602.803 116.53 602.715 117.63 602.715 118.884C598.997 119.368 596.819 120.622 596.819 122.712ZM600.229 123.548C599.591 123.548 599.063 123.262 599.063 122.558C599.063 121.392 600.185 120.666 602.715 120.292V122.008C602.055 122.778 601.241 123.548 600.229 123.548ZM607.501 120.16C607.501 123.042 609.503 125.264 612.605 125.264C614.981 125.264 616.125 123.988 616.125 123.988L615.421 122.448C615.421 122.448 614.343 123.482 612.759 123.482C610.889 123.482 609.767 122.008 609.767 120.05C609.767 118.026 610.977 116.552 612.781 116.552C614.233 116.552 615.267 117.476 615.267 117.476L616.125 115.848C616.125 115.848 614.915 114.792 612.737 114.792C609.459 114.792 607.501 117.41 607.501 120.16ZM618.323 125H620.501V120.292H620.809L624.769 125H627.563L622.723 119.412L627.255 115.056H624.417L620.809 118.686H620.501V109.27L618.323 109.622V125ZM633.797 120.072C633.797 122.712 635.579 125.264 638.879 125.264C642.465 125.264 644.049 122.25 644.049 119.83C644.049 117.278 642.267 114.792 638.967 114.792C635.403 114.792 633.797 117.586 633.797 120.072ZM636.063 119.874C636.063 117.894 637.229 116.53 638.923 116.53C640.947 116.53 641.783 118.356 641.783 120.116C641.783 122.118 640.617 123.526 638.945 123.526C636.965 123.526 636.063 121.722 636.063 119.874ZM646.402 125H648.58V118.554C649.262 117.894 650.67 116.684 651.77 116.684C652.518 116.684 652.958 117.212 652.958 118.62V125H655.136V117.828C655.136 115.694 654.058 114.792 652.496 114.792C650.67 114.792 649.24 116.002 648.536 116.772V114.88L646.402 115.232V125ZM663.925 122.294C663.925 124.34 665.047 125.264 666.763 125.264C668.523 125.264 669.821 124.208 669.821 124.208L669.271 122.558C669.007 122.712 668.083 123.438 667.247 123.438C666.521 123.438 666.103 122.954 666.103 121.744V116.706H669.249V115.056H666.103V112.24L663.969 112.702V114.968L662.451 115.518V116.706H663.925V122.294ZM671.668 125H673.846V118.84C674.264 118.18 675.166 116.992 676.266 116.992C676.706 116.992 677.146 117.168 677.146 117.168L677.586 114.968C677.586 114.968 677.278 114.792 676.728 114.792C675.21 114.792 674.198 116.2 673.802 116.882V114.88L671.668 115.232V125ZM678.524 122.712C678.524 124.186 679.646 125.264 681.384 125.264C683.32 125.264 684.332 124.032 684.596 123.614C684.882 124.406 685.52 125.044 687.038 125.154L687.698 123.438C687.698 123.438 686.598 123.416 686.598 122.184V117.982C686.598 115.76 685.85 114.792 683.496 114.792C680.878 114.792 679.184 116.046 679.184 116.046L679.756 117.674C679.756 117.674 681.274 116.53 682.902 116.53C684.508 116.53 684.42 117.63 684.42 118.884C680.702 119.368 678.524 120.622 678.524 122.712ZM681.934 123.548C681.296 123.548 680.768 123.262 680.768 122.558C680.768 121.392 681.89 120.666 684.42 120.292V122.008C683.76 122.778 682.946 123.548 681.934 123.548ZM689.206 120.16C689.206 123.042 691.208 125.264 694.31 125.264C696.686 125.264 697.83 123.988 697.83 123.988L697.126 122.448C697.126 122.448 696.048 123.482 694.464 123.482C692.594 123.482 691.472 122.008 691.472 120.05C691.472 118.026 692.682 116.552 694.486 116.552C695.938 116.552 696.972 117.476 696.972 117.476L697.83 115.848C697.83 115.848 696.62 114.792 694.442 114.792C691.164 114.792 689.206 117.41 689.206 120.16ZM700.028 125H702.206V120.292H702.514L706.474 125H709.268L704.428 119.412L708.96 115.056H706.122L702.514 118.686H702.206V109.27L700.028 109.622V125ZM549.704 152.712C549.704 154.186 550.826 155.264 552.564 155.264C554.5 155.264 555.512 154.032 555.776 153.614C556.062 154.406 556.7 155.044 558.218 155.154L558.878 153.438C558.878 153.438 557.778 153.416 557.778 152.184V147.982C557.778 145.76 557.03 144.792 554.676 144.792C552.058 144.792 550.364 146.046 550.364 146.046L550.936 147.674C550.936 147.674 552.454 146.53 554.082 146.53C555.688 146.53 555.6 147.63 555.6 148.884C551.882 149.368 549.704 150.622 549.704 152.712ZM553.114 153.548C552.476 153.548 551.948 153.262 551.948 152.558C551.948 151.392 553.07 150.666 555.6 150.292V152.008C554.94 152.778 554.126 153.548 553.114 153.548ZM560.077 146.706H561.639V155H563.817V146.706H566.567V145.056H563.817V143.868C563.817 141.536 564.873 140.722 566.039 140.722C567.117 140.722 568.085 141.426 568.085 141.426L568.943 139.754C568.943 139.754 567.799 138.918 566.061 138.918C563.465 138.918 561.639 140.744 561.639 144V144.968L560.077 145.54V146.706ZM569.093 152.294C569.093 154.34 570.215 155.264 571.931 155.264C573.691 155.264 574.989 154.208 574.989 154.208L574.439 152.558C574.175 152.712 573.251 153.438 572.415 153.438C571.689 153.438 571.271 152.954 571.271 151.744V146.706H574.417V145.056H571.271V142.24L569.137 142.702V144.968L567.619 145.518V146.706H569.093V152.294ZM576.22 150.182C576.22 152.844 577.914 155.264 581.236 155.264C583.722 155.264 585.24 153.834 585.24 153.834L584.624 152.25C584.624 152.25 583.238 153.482 581.566 153.482C579.828 153.482 578.728 152.316 578.486 150.512L583.92 149.786L585.174 149.434C585.174 146.42 583.458 144.792 581.082 144.792C578.178 144.792 576.22 147.146 576.22 150.182ZM580.928 146.486C582.666 146.486 582.798 148.51 582.798 148.51L578.486 149.06C578.684 147.608 579.52 146.486 580.928 146.486ZM587.621 155H589.799V148.84C590.217 148.18 591.119 146.992 592.219 146.992C592.659 146.992 593.099 147.168 593.099 147.168L593.539 144.968C593.539 144.968 593.231 144.792 592.681 144.792C591.163 144.792 590.151 146.2 589.755 146.882V144.88L587.621 145.232V155ZM599.763 152.712C599.763 154.186 600.885 155.264 602.623 155.264C604.559 155.264 605.571 154.032 605.835 153.614C606.121 154.406 606.759 155.044 608.277 155.154L608.937 153.438C608.937 153.438 607.837 153.416 607.837 152.184V147.982C607.837 145.76 607.089 144.792 604.735 144.792C602.117 144.792 600.423 146.046 600.423 146.046L600.995 147.674C600.995 147.674 602.513 146.53 604.141 146.53C605.747 146.53 605.659 147.63 605.659 148.884C601.941 149.368 599.763 150.622 599.763 152.712ZM603.173 153.548C602.535 153.548 602.007 153.262 602.007 152.558C602.007 151.392 603.129 150.666 605.659 150.292V152.008C604.999 152.778 604.185 153.548 603.173 153.548ZM616.367 155H618.545V148.84C618.963 148.18 619.865 146.992 620.965 146.992C621.405 146.992 621.845 147.168 621.845 147.168L622.285 144.968C622.285 144.968 621.977 144.792 621.427 144.792C619.909 144.792 618.897 146.2 618.501 146.882V144.88L616.367 145.232V155ZM623.228 150.182C623.228 152.844 624.922 155.264 628.244 155.264C630.73 155.264 632.248 153.834 632.248 153.834L631.632 152.25C631.632 152.25 630.246 153.482 628.574 153.482C626.836 153.482 625.736 152.316 625.494 150.512L630.928 149.786L632.182 149.434C632.182 146.42 630.466 144.792 628.09 144.792C625.186 144.792 623.228 147.146 623.228 150.182ZM627.936 146.486C629.674 146.486 629.806 148.51 629.806 148.51L625.494 149.06C625.692 147.608 626.528 146.486 627.936 146.486ZM634.673 155H636.851V139.27L634.673 139.622V155ZM639.122 152.712C639.122 154.186 640.244 155.264 641.982 155.264C643.918 155.264 644.93 154.032 645.194 153.614C645.48 154.406 646.118 155.044 647.636 155.154L648.296 153.438C648.296 153.438 647.196 153.416 647.196 152.184V147.982C647.196 145.76 646.448 144.792 644.094 144.792C641.476 144.792 639.782 146.046 639.782 146.046L640.354 147.674C640.354 147.674 641.872 146.53 643.5 146.53C645.106 146.53 645.018 147.63 645.018 148.884C641.3 149.368 639.122 150.622 639.122 152.712ZM642.532 153.548C641.894 153.548 641.366 153.262 641.366 152.558C641.366 151.392 642.488 150.666 645.018 150.292V152.008C644.358 152.778 643.544 153.548 642.532 153.548ZM650.441 160.126L652.619 159.774V154.736C653.037 155.044 653.785 155.264 654.709 155.264C657.877 155.264 659.725 152.668 659.725 149.72C659.725 147.014 658.141 144.792 655.523 144.792C653.961 144.792 653.015 145.606 652.553 146.464V144.88L650.441 145.232V160.126ZM655.149 146.596C656.491 146.596 657.437 147.806 657.437 149.874C657.437 152.25 656.183 153.548 654.313 153.548C653.279 153.548 652.619 153.174 652.619 152.426V148.202C652.905 147.784 653.829 146.596 655.149 146.596ZM661.447 154.384C661.447 154.384 662.679 155.264 664.747 155.264C667.189 155.264 668.619 154.054 668.619 152.25C668.619 149.082 663.845 149.236 663.845 147.498C663.845 146.926 664.329 146.508 665.429 146.508C666.705 146.508 667.849 147.124 667.849 147.124L668.355 145.342C668.355 145.342 667.255 144.792 665.517 144.792C662.767 144.792 661.667 146.134 661.667 147.674C661.667 150.798 666.441 150.666 666.441 152.448C666.441 153.086 665.891 153.548 664.725 153.548C663.119 153.548 661.909 152.536 661.909 152.536L661.447 154.384ZM670.343 150.182C670.343 152.844 672.037 155.264 675.359 155.264C677.845 155.264 679.363 153.834 679.363 153.834L678.747 152.25C678.747 152.25 677.361 153.482 675.689 153.482C673.951 153.482 672.851 152.316 672.609 150.512L678.043 149.786L679.297 149.434C679.297 146.42 677.581 144.792 675.205 144.792C672.301 144.792 670.343 147.146 670.343 150.182ZM675.051 146.486C676.789 146.486 676.921 148.51 676.921 148.51L672.609 149.06C672.807 147.608 673.643 146.486 675.051 146.486Z" fill="#333333"/>
<path d="M797.99 57.894C797.99 62.448 801.554 65.264 805.998 65.264C808.176 65.264 811.08 64.582 811.08 64.582V57.256H805.778V59.148H808.836V62.998C808.836 62.998 807.538 63.306 806.262 63.306C802.742 63.306 800.344 61.04 800.344 57.718C800.344 54.748 802.258 52.02 805.998 52.02C808.396 52.02 810.156 53.12 810.156 53.12L811.036 51.162C811.036 51.162 809.078 50.062 806.108 50.062C800.916 50.062 797.99 53.758 797.99 57.894ZM813.437 57.696C813.437 61.744 816.451 65.264 821.093 65.264C825.889 65.264 829.013 61.502 829.013 57.388C829.013 53.34 826.021 50.062 821.291 50.062C816.253 50.062 813.437 53.824 813.437 57.696ZM815.835 57.586C815.835 54.77 817.749 51.998 821.225 51.998C824.701 51.998 826.615 54.726 826.615 57.564C826.615 60.424 824.613 63.328 821.159 63.328C817.683 63.328 815.835 60.314 815.835 57.586ZM830.048 65H832.314L833.744 61.084H839.596L841.048 65H843.38L837.792 50.216H835.636L830.048 65ZM836.67 53.12L838.914 59.192H834.448L836.67 53.12ZM845.602 65H854.732V63.108H847.868V50.326H845.602V65ZM860.929 64.56H867.111V69.246H869.245V64.56H871.291V62.866H869.245V54.44H867.177L860.929 63.108V64.56ZM863.151 62.866L867.111 57.256V62.866H863.151ZM878.454 60.292H883.822V58.62H878.454V60.292ZM799.002 95H801.268V89.104H803.534L807.45 95H810.134L805.822 88.576C807.296 87.894 808.638 86.508 808.638 84.506C808.638 82.284 807.098 80.326 803.314 80.326H799.002V95ZM801.268 87.212V82.218H802.94C805.382 82.218 806.24 83.34 806.24 84.66C806.24 86.288 804.92 87.212 803.27 87.212H801.268ZM810.921 90.182C810.921 92.844 812.615 95.264 815.937 95.264C818.423 95.264 819.941 93.834 819.941 93.834L819.325 92.25C819.325 92.25 817.939 93.482 816.267 93.482C814.529 93.482 813.429 92.316 813.187 90.512L818.621 89.786L819.875 89.434C819.875 86.42 818.159 84.792 815.783 84.792C812.879 84.792 810.921 87.146 810.921 90.182ZM815.629 86.486C817.367 86.486 817.499 88.51 817.499 88.51L813.187 89.06C813.385 87.608 814.221 86.486 815.629 86.486ZM821.53 92.712C821.53 94.186 822.652 95.264 824.39 95.264C826.326 95.264 827.338 94.032 827.602 93.614C827.888 94.406 828.526 95.044 830.044 95.154L830.704 93.438C830.704 93.438 829.604 93.416 829.604 92.184V87.982C829.604 85.76 828.856 84.792 826.502 84.792C823.884 84.792 822.19 86.046 822.19 86.046L822.762 87.674C822.762 87.674 824.28 86.53 825.908 86.53C827.514 86.53 827.426 87.63 827.426 88.884C823.708 89.368 821.53 90.622 821.53 92.712ZM824.94 93.548C824.302 93.548 823.774 93.262 823.774 92.558C823.774 91.392 824.896 90.666 827.426 90.292V92.008C826.766 92.778 825.952 93.548 824.94 93.548ZM832.894 95H835.072V79.27L832.894 79.622V95ZM839.279 82.68C840.071 82.68 840.665 82.108 840.665 81.338C840.665 80.568 840.071 79.996 839.279 79.996C838.509 79.996 837.915 80.568 837.915 81.338C837.915 82.108 838.509 82.68 839.279 82.68ZM838.179 95H840.357V85.056H838.179V95ZM842.782 95H850.768V93.24H845.532L850.592 86.376V85.056H842.958V86.816H847.732L842.782 93.68V95ZM852.407 90.182C852.407 92.844 854.101 95.264 857.423 95.264C859.909 95.264 861.427 93.834 861.427 93.834L860.811 92.25C860.811 92.25 859.425 93.482 857.753 93.482C856.015 93.482 854.915 92.316 854.673 90.512L860.107 89.786L861.361 89.434C861.361 86.42 859.645 84.792 857.269 84.792C854.365 84.792 852.407 87.146 852.407 90.182ZM857.115 86.486C858.853 86.486 858.985 88.51 858.985 88.51L854.673 89.06C854.871 87.608 855.707 86.486 857.115 86.486ZM869.666 92.294C869.666 94.34 870.788 95.264 872.504 95.264C874.264 95.264 875.562 94.208 875.562 94.208L875.012 92.558C874.748 92.712 873.824 93.438 872.988 93.438C872.262 93.438 871.844 92.954 871.844 91.744V86.706H874.99V85.056H871.844V82.24L869.71 82.702V84.968L868.192 85.518V86.706H869.666V92.294ZM877.452 95H879.63V88.598C880.29 87.938 881.72 86.684 882.82 86.684C883.568 86.684 884.008 87.212 884.008 88.62V95H886.186V87.828C886.186 85.694 885.108 84.792 883.524 84.792C881.698 84.792 880.29 86.024 879.63 86.728V79.27L877.452 79.622V95ZM888.325 92.712C888.325 94.186 889.447 95.264 891.185 95.264C893.121 95.264 894.133 94.032 894.397 93.614C894.683 94.406 895.321 95.044 896.839 95.154L897.499 93.438C897.499 93.438 896.399 93.416 896.399 92.184V87.982C896.399 85.76 895.651 84.792 893.297 84.792C890.679 84.792 888.985 86.046 888.985 86.046L889.557 87.674C889.557 87.674 891.075 86.53 892.703 86.53C894.309 86.53 894.221 87.63 894.221 88.884C890.503 89.368 888.325 90.622 888.325 92.712ZM891.735 93.548C891.097 93.548 890.569 93.262 890.569 92.558C890.569 91.392 891.691 90.666 894.221 90.292V92.008C893.561 92.778 892.747 93.548 891.735 93.548ZM900.131 92.294C900.131 94.34 901.253 95.264 902.969 95.264C904.729 95.264 906.027 94.208 906.027 94.208L905.477 92.558C905.213 92.712 904.289 93.438 903.453 93.438C902.727 93.438 902.309 92.954 902.309 91.744V86.706H905.455V85.056H902.309V82.24L900.175 82.702V84.968L898.657 85.518V86.706H900.131V92.294ZM913.664 95H915.93V80.326H913.664V95ZM924.1 90.16C924.1 93.042 926.102 95.264 929.204 95.264C931.58 95.264 932.724 93.988 932.724 93.988L932.02 92.448C932.02 92.448 930.942 93.482 929.358 93.482C927.488 93.482 926.366 92.008 926.366 90.05C926.366 88.026 927.576 86.552 929.38 86.552C930.832 86.552 931.866 87.476 931.866 87.476L932.724 85.848C932.724 85.848 931.514 84.792 929.336 84.792C926.058 84.792 924.1 87.41 924.1 90.16ZM934.087 92.712C934.087 94.186 935.209 95.264 936.947 95.264C938.883 95.264 939.895 94.032 940.159 93.614C940.445 94.406 941.083 95.044 942.601 95.154L943.261 93.438C943.261 93.438 942.161 93.416 942.161 92.184V87.982C942.161 85.76 941.413 84.792 939.059 84.792C936.441 84.792 934.747 86.046 934.747 86.046L935.319 87.674C935.319 87.674 936.837 86.53 938.465 86.53C940.071 86.53 939.983 87.63 939.983 88.884C936.265 89.368 934.087 90.622 934.087 92.712ZM937.497 93.548C936.859 93.548 936.331 93.262 936.331 92.558C936.331 91.392 937.453 90.666 939.983 90.292V92.008C939.323 92.778 938.509 93.548 937.497 93.548ZM945.406 95H947.584V88.554C948.266 87.894 949.674 86.684 950.774 86.684C951.522 86.684 951.962 87.212 951.962 88.62V95H954.14V87.828C954.14 85.694 953.062 84.792 951.5 84.792C949.674 84.792 948.244 86.002 947.54 86.772V84.88L945.406 85.232V95ZM962.401 95H964.579V79.27L962.401 79.622V95ZM968.786 82.68C969.578 82.68 970.172 82.108 970.172 81.338C970.172 80.568 969.578 79.996 968.786 79.996C968.016 79.996 967.422 80.568 967.422 81.338C967.422 82.108 968.016 82.68 968.786 82.68ZM967.686 95H969.864V85.056H967.686V95ZM975.326 95.088H977.35L981.442 85.056H979.22L976.426 92.272L974.006 85.056H971.718L975.326 95.088ZM982.452 90.182C982.452 92.844 984.146 95.264 987.468 95.264C989.954 95.264 991.472 93.834 991.472 93.834L990.856 92.25C990.856 92.25 989.47 93.482 987.798 93.482C986.06 93.482 984.96 92.316 984.718 90.512L990.152 89.786L991.406 89.434C991.406 86.42 989.69 84.792 987.314 84.792C984.41 84.792 982.452 87.146 982.452 90.182ZM987.16 86.486C988.898 86.486 989.03 88.51 989.03 88.51L984.718 89.06C984.916 87.608 985.752 86.486 987.16 86.486ZM998.347 92.712C998.347 94.186 999.469 95.264 1001.21 95.264C1003.14 95.264 1004.15 94.032 1004.42 93.614C1004.7 94.406 1005.34 95.044 1006.86 95.154L1007.52 93.438C1007.52 93.438 1006.42 93.416 1006.42 92.184V87.982C1006.42 85.76 1005.67 84.792 1003.32 84.792C1000.7 84.792 999.007 86.046 999.007 86.046L999.579 87.674C999.579 87.674 1001.1 86.53 1002.72 86.53C1004.33 86.53 1004.24 87.63 1004.24 88.884C1000.52 89.368 998.347 90.622 998.347 92.712ZM1001.76 93.548C1001.12 93.548 1000.59 93.262 1000.59 92.558C1000.59 91.392 1001.71 90.666 1004.24 90.292V92.008C1003.58 92.778 1002.77 93.548 1001.76 93.548ZM797.55 116.706H799.112V125H801.29V116.706H804.04V115.056H801.29V113.868C801.29 111.536 802.346 110.722 803.512 110.722C804.59 110.722 805.558 111.426 805.558 111.426L806.416 109.754C806.416 109.754 805.272 108.918 803.534 108.918C800.938 108.918 799.112 110.744 799.112 114V114.968L797.55 115.54V116.706ZM805.928 122.272C805.928 124.406 807.028 125.264 808.634 125.264C810.46 125.264 811.846 124.098 812.484 123.416C812.594 124.142 812.814 125.176 812.814 125.176L814.926 124.978C814.926 124.978 814.486 123.152 814.486 121.942V115.056H812.308V121.744C811.692 122.316 810.46 123.372 809.338 123.372C808.524 123.372 808.106 122.822 808.106 121.436V115.056H805.928V122.272ZM817.64 125H819.818V109.27L817.64 109.622V125ZM822.925 125H825.103V109.27L822.925 109.622V125ZM833.495 125H835.673V109.27L833.495 109.622V125ZM839.88 112.68C840.672 112.68 841.266 112.108 841.266 111.338C841.266 110.568 840.672 109.996 839.88 109.996C839.11 109.996 838.516 110.568 838.516 111.338C838.516 112.108 839.11 112.68 839.88 112.68ZM838.78 125H840.958V115.056H838.78V125ZM843.075 116.706H844.637V125H846.815V116.706H849.565V115.056H846.815V113.868C846.815 111.536 847.871 110.722 849.037 110.722C850.115 110.722 851.083 111.426 851.083 111.426L851.941 109.754C851.941 109.754 850.797 108.918 849.059 108.918C846.463 108.918 844.637 110.744 844.637 114V114.968L843.075 115.54V116.706ZM850.753 120.182C850.753 122.844 852.447 125.264 855.769 125.264C858.255 125.264 859.773 123.834 859.773 123.834L859.157 122.25C859.157 122.25 857.771 123.482 856.099 123.482C854.361 123.482 853.261 122.316 853.019 120.512L858.453 119.786L859.707 119.434C859.707 116.42 857.991 114.792 855.615 114.792C852.711 114.792 850.753 117.146 850.753 120.182ZM855.461 116.486C857.199 116.486 857.331 118.51 857.331 118.51L853.019 119.06C853.217 117.608 854.053 116.486 855.461 116.486ZM866.823 120.182C866.823 122.844 868.517 125.264 871.839 125.264C874.325 125.264 875.843 123.834 875.843 123.834L875.227 122.25C875.227 122.25 873.841 123.482 872.169 123.482C870.431 123.482 869.331 122.316 869.089 120.512L874.523 119.786L875.777 119.434C875.777 116.42 874.061 114.792 871.685 114.792C868.781 114.792 866.823 117.146 866.823 120.182ZM871.531 116.486C873.269 116.486 873.401 118.51 873.401 118.51L869.089 119.06C869.287 117.608 870.123 116.486 871.531 116.486ZM880.623 125.088H882.647L886.739 115.056H884.517L881.723 122.272L879.303 115.056H877.015L880.623 125.088ZM887.749 120.182C887.749 122.844 889.443 125.264 892.765 125.264C895.251 125.264 896.769 123.834 896.769 123.834L896.153 122.25C896.153 122.25 894.767 123.482 893.095 123.482C891.357 123.482 890.257 122.316 890.015 120.512L895.449 119.786L896.703 119.434C896.703 116.42 894.987 114.792 892.611 114.792C889.707 114.792 887.749 117.146 887.749 120.182ZM892.457 116.486C894.195 116.486 894.327 118.51 894.327 118.51L890.015 119.06C890.213 117.608 891.049 116.486 892.457 116.486ZM899.15 125H901.328V118.554C902.01 117.894 903.418 116.684 904.518 116.684C905.266 116.684 905.706 117.212 905.706 118.62V125H907.884V117.828C907.884 115.694 906.806 114.792 905.244 114.792C903.418 114.792 901.988 116.002 901.284 116.772V114.88L899.15 115.232V125ZM918.191 125.088H920.303L922.855 118.004L925.143 125.088H927.277L930.841 115.056H928.619L926.221 122.536L923.889 115.056H921.997L919.423 122.58L917.245 115.056H915.001L918.191 125.088ZM933.81 112.68C934.602 112.68 935.196 112.108 935.196 111.338C935.196 110.568 934.602 109.996 933.81 109.996C933.04 109.996 932.446 110.568 932.446 111.338C932.446 112.108 933.04 112.68 933.81 112.68ZM932.71 125H934.888V115.056H932.71V125ZM938.523 122.294C938.523 124.34 939.645 125.264 941.361 125.264C943.121 125.264 944.419 124.208 944.419 124.208L943.869 122.558C943.605 122.712 942.681 123.438 941.845 123.438C941.119 123.438 940.701 122.954 940.701 121.744V116.706H943.847V115.056H940.701V112.24L938.567 112.702V114.968L937.049 115.518V116.706H938.523V122.294ZM946.31 125H948.488V118.598C949.148 117.938 950.578 116.684 951.678 116.684C952.426 116.684 952.866 117.212 952.866 118.62V125H955.044V117.828C955.044 115.694 953.966 114.792 952.382 114.792C950.556 114.792 949.148 116.024 948.488 116.728V109.27L946.31 109.622V125ZM962.468 122.712C962.468 124.186 963.59 125.264 965.328 125.264C967.264 125.264 968.276 124.032 968.54 123.614C968.826 124.406 969.464 125.044 970.982 125.154L971.642 123.438C971.642 123.438 970.542 123.416 970.542 122.184V117.982C970.542 115.76 969.794 114.792 967.44 114.792C964.822 114.792 963.128 116.046 963.128 116.046L963.7 117.674C963.7 117.674 965.218 116.53 966.846 116.53C968.452 116.53 968.364 117.63 968.364 118.884C964.646 119.368 962.468 120.622 962.468 122.712ZM965.878 123.548C965.24 123.548 964.712 123.262 964.712 122.558C964.712 121.392 965.834 120.666 968.364 120.292V122.008C967.704 122.778 966.89 123.548 965.878 123.548ZM797.858 150.16C797.858 153.042 799.86 155.264 802.962 155.264C805.338 155.264 806.482 153.988 806.482 153.988L805.778 152.448C805.778 152.448 804.7 153.482 803.116 153.482C801.246 153.482 800.124 152.008 800.124 150.05C800.124 148.026 801.334 146.552 803.138 146.552C804.59 146.552 805.624 147.476 805.624 147.476L806.482 145.848C806.482 145.848 805.272 144.792 803.094 144.792C799.816 144.792 797.858 147.41 797.858 150.16ZM808.681 155H810.859V148.598C811.519 147.938 812.949 146.684 814.049 146.684C814.797 146.684 815.237 147.212 815.237 148.62V155H817.415V147.828C817.415 145.694 816.337 144.792 814.753 144.792C812.927 144.792 811.519 146.024 810.859 146.728V139.27L808.681 139.622V155ZM820.346 155H822.524V148.84C822.942 148.18 823.844 146.992 824.944 146.992C825.384 146.992 825.824 147.168 825.824 147.168L826.264 144.968C826.264 144.968 825.956 144.792 825.406 144.792C823.888 144.792 822.876 146.2 822.48 146.882V144.88L820.346 145.232V155ZM827.184 150.072C827.184 152.712 828.966 155.264 832.266 155.264C835.852 155.264 837.436 152.25 837.436 149.83C837.436 147.278 835.654 144.792 832.354 144.792C828.79 144.792 827.184 147.586 827.184 150.072ZM829.45 149.874C829.45 147.894 830.616 146.53 832.31 146.53C834.334 146.53 835.17 148.356 835.17 150.116C835.17 152.118 834.004 153.526 832.332 153.526C830.352 153.526 829.45 151.722 829.45 149.874ZM839.789 155H841.967V148.554C842.649 147.894 844.057 146.684 845.157 146.684C845.905 146.684 846.345 147.212 846.345 148.62V155H848.523V147.828C848.523 145.694 847.445 144.792 845.883 144.792C844.057 144.792 842.627 146.002 841.923 146.772V144.88L839.789 145.232V155ZM852.599 142.68C853.391 142.68 853.985 142.108 853.985 141.338C853.985 140.568 853.391 139.996 852.599 139.996C851.829 139.996 851.235 140.568 851.235 141.338C851.235 142.108 851.829 142.68 852.599 142.68ZM851.499 155H853.677V145.056H851.499V155ZM856.102 150.16C856.102 153.042 858.104 155.264 861.206 155.264C863.582 155.264 864.726 153.988 864.726 153.988L864.022 152.448C864.022 152.448 862.944 153.482 861.36 153.482C859.49 153.482 858.368 152.008 858.368 150.05C858.368 148.026 859.578 146.552 861.382 146.552C862.834 146.552 863.868 147.476 863.868 147.476L864.726 145.848C864.726 145.848 863.516 144.792 861.338 144.792C858.06 144.792 856.102 147.41 856.102 150.16ZM873.31 142.68C874.102 142.68 874.696 142.108 874.696 141.338C874.696 140.568 874.102 139.996 873.31 139.996C872.54 139.996 871.946 140.568 871.946 141.338C871.946 142.108 872.54 142.68 873.31 142.68ZM872.21 155H874.388V145.056H872.21V155ZM877.495 155H879.673V139.27L877.495 139.622V155ZM882.78 155H884.958V139.27L882.78 139.622V155ZM888.021 155H890.199V148.554C890.881 147.894 892.289 146.684 893.389 146.684C894.137 146.684 894.577 147.212 894.577 148.62V155H896.755V147.828C896.755 145.694 895.677 144.792 894.115 144.792C892.289 144.792 890.859 146.002 890.155 146.772V144.88L888.021 145.232V155ZM899.071 150.182C899.071 152.844 900.765 155.264 904.087 155.264C906.573 155.264 908.091 153.834 908.091 153.834L907.475 152.25C907.475 152.25 906.089 153.482 904.417 153.482C902.679 153.482 901.579 152.316 901.337 150.512L906.771 149.786L908.025 149.434C908.025 146.42 906.309 144.792 903.933 144.792C901.029 144.792 899.071 147.146 899.071 150.182ZM903.779 146.486C905.517 146.486 905.649 148.51 905.649 148.51L901.337 149.06C901.535 147.608 902.371 146.486 903.779 146.486ZM909.813 154.384C909.813 154.384 911.045 155.264 913.113 155.264C915.555 155.264 916.985 154.054 916.985 152.25C916.985 149.082 912.211 149.236 912.211 147.498C912.211 146.926 912.695 146.508 913.795 146.508C915.071 146.508 916.215 147.124 916.215 147.124L916.721 145.342C916.721 145.342 915.621 144.792 913.883 144.792C911.133 144.792 910.033 146.134 910.033 147.674C910.033 150.798 914.807 150.666 914.807 152.448C914.807 153.086 914.257 153.548 913.091 153.548C911.485 153.548 910.275 152.536 910.275 152.536L909.813 154.384ZM918.664 154.384C918.664 154.384 919.896 155.264 921.964 155.264C924.406 155.264 925.836 154.054 925.836 152.25C925.836 149.082 921.062 149.236 921.062 147.498C921.062 146.926 921.546 146.508 922.646 146.508C923.922 146.508 925.066 147.124 925.066 147.124L925.572 145.342C925.572 145.342 924.472 144.792 922.734 144.792C919.984 144.792 918.884 146.134 918.884 147.674C918.884 150.798 923.658 150.666 923.658 152.448C923.658 153.086 923.108 153.548 921.942 153.548C920.336 153.548 919.126 152.536 919.126 152.536L918.664 154.384ZM927.89 153.79C927.89 154.604 928.55 155.264 929.364 155.264C930.178 155.264 930.86 154.604 930.86 153.79C930.86 152.954 930.178 152.294 929.364 152.294C928.55 152.294 927.89 152.954 927.89 153.79Z" fill="#333333"/>
<path d="M301.99 57.894C301.99 62.448 305.554 65.264 309.998 65.264C312.176 65.264 315.08 64.582 315.08 64.582V57.256H309.778V59.148H312.836V62.998C312.836 62.998 311.538 63.306 310.262 63.306C306.742 63.306 304.344 61.04 304.344 57.718C304.344 54.748 306.258 52.02 309.998 52.02C312.396 52.02 314.156 53.12 314.156 53.12L315.036 51.162C315.036 51.162 313.078 50.062 310.108 50.062C304.916 50.062 301.99 53.758 301.99 57.894ZM317.437 57.696C317.437 61.744 320.451 65.264 325.093 65.264C329.889 65.264 333.013 61.502 333.013 57.388C333.013 53.34 330.021 50.062 325.291 50.062C320.253 50.062 317.437 53.824 317.437 57.696ZM319.835 57.586C319.835 54.77 321.749 51.998 325.225 51.998C328.701 51.998 330.615 54.726 330.615 57.564C330.615 60.424 328.613 63.328 325.159 63.328C321.683 63.328 319.835 60.314 319.835 57.586ZM334.048 65H336.314L337.744 61.084H343.596L345.048 65H347.38L341.792 50.216H339.636L334.048 65ZM340.67 53.12L342.914 59.192H338.448L340.67 53.12ZM349.602 65H358.732V63.108H351.868V50.326H349.602V65ZM365.413 65H373.531V63.24H368.515C370.341 61.722 372.607 59.698 372.607 57.476C372.607 55.694 371.133 54.352 369.043 54.352C366.931 54.352 365.325 55.738 365.325 55.738L366.205 57.124C366.205 57.124 367.371 56.178 368.647 56.178C369.659 56.178 370.341 56.838 370.341 57.784C370.341 60.138 365.325 63.68 365.325 63.68L365.413 65ZM380.799 60.292H386.167V58.62H380.799V60.292ZM303.002 95H308.062C311.01 95 313.078 93.328 313.078 90.732C313.078 88.4 311.384 87.432 310.526 87.08C311.296 86.486 312.286 85.408 312.286 83.846C312.286 82.152 311.098 80.326 307.314 80.326H303.002V95ZM305.268 93.108V88.422H307.732C309.778 88.422 310.68 89.412 310.68 90.776C310.68 92.162 309.778 93.108 307.732 93.108H305.268ZM305.268 82.218H306.984C309.272 82.218 309.888 83.12 309.888 84.22C309.888 85.804 308.48 86.552 308.48 86.552H305.268V82.218ZM314.943 90.182C314.943 92.844 316.637 95.264 319.959 95.264C322.445 95.264 323.963 93.834 323.963 93.834L323.347 92.25C323.347 92.25 321.961 93.482 320.289 93.482C318.551 93.482 317.451 92.316 317.209 90.512L322.643 89.786L323.897 89.434C323.897 86.42 322.181 84.792 319.805 84.792C316.901 84.792 314.943 87.146 314.943 90.182ZM319.651 86.486C321.389 86.486 321.521 88.51 321.521 88.51L317.209 89.06C317.407 87.608 318.243 86.486 319.651 86.486ZM326.388 95H328.566V79.27L326.388 79.622V95ZM332.773 82.68C333.565 82.68 334.159 82.108 334.159 81.338C334.159 80.568 333.565 79.996 332.773 79.996C332.003 79.996 331.409 80.568 331.409 81.338C331.409 82.108 332.003 82.68 332.773 82.68ZM331.673 95H333.851V85.056H331.673V95ZM336.298 90.182C336.298 92.844 337.992 95.264 341.314 95.264C343.8 95.264 345.318 93.834 345.318 93.834L344.702 92.25C344.702 92.25 343.316 93.482 341.644 93.482C339.906 93.482 338.806 92.316 338.564 90.512L343.998 89.786L345.252 89.434C345.252 86.42 343.536 84.792 341.16 84.792C338.256 84.792 336.298 87.146 336.298 90.182ZM341.006 86.486C342.744 86.486 342.876 88.51 342.876 88.51L338.564 89.06C338.762 87.608 339.598 86.486 341.006 86.486ZM350.097 95.088H352.121L356.213 85.056H353.991L351.197 92.272L348.777 85.056H346.489L350.097 95.088ZM357.224 90.182C357.224 92.844 358.918 95.264 362.24 95.264C364.726 95.264 366.244 93.834 366.244 93.834L365.628 92.25C365.628 92.25 364.242 93.482 362.57 93.482C360.832 93.482 359.732 92.316 359.49 90.512L364.924 89.786L366.178 89.434C366.178 86.42 364.462 84.792 362.086 84.792C359.182 84.792 357.224 87.146 357.224 90.182ZM361.932 86.486C363.67 86.486 363.802 88.51 363.802 88.51L359.49 89.06C359.688 87.608 360.524 86.486 361.932 86.486ZM374.482 92.294C374.482 94.34 375.604 95.264 377.32 95.264C379.08 95.264 380.378 94.208 380.378 94.208L379.828 92.558C379.564 92.712 378.64 93.438 377.804 93.438C377.078 93.438 376.66 92.954 376.66 91.744V86.706H379.806V85.056H376.66V82.24L374.526 82.702V84.968L373.008 85.518V86.706H374.482V92.294ZM382.269 95H384.447V88.598C385.107 87.938 386.537 86.684 387.637 86.684C388.385 86.684 388.825 87.212 388.825 88.62V95H391.003V87.828C391.003 85.694 389.925 84.792 388.341 84.792C386.515 84.792 385.107 86.024 384.447 86.728V79.27L382.269 79.622V95ZM393.142 92.712C393.142 94.186 394.264 95.264 396.002 95.264C397.938 95.264 398.95 94.032 399.214 93.614C399.5 94.406 400.138 95.044 401.656 95.154L402.316 93.438C402.316 93.438 401.216 93.416 401.216 92.184V87.982C401.216 85.76 400.468 84.792 398.114 84.792C395.496 84.792 393.802 86.046 393.802 86.046L394.374 87.674C394.374 87.674 395.892 86.53 397.52 86.53C399.126 86.53 399.038 87.63 399.038 88.884C395.32 89.368 393.142 90.622 393.142 92.712ZM396.552 93.548C395.914 93.548 395.386 93.262 395.386 92.558C395.386 91.392 396.508 90.666 399.038 90.292V92.008C398.378 92.778 397.564 93.548 396.552 93.548ZM404.947 92.294C404.947 94.34 406.069 95.264 407.785 95.264C409.545 95.264 410.843 94.208 410.843 94.208L410.293 92.558C410.029 92.712 409.105 93.438 408.269 93.438C407.543 93.438 407.125 92.954 407.125 91.744V86.706H410.271V85.056H407.125V82.24L404.991 82.702V84.968L403.473 85.518V86.706H404.947V92.294ZM422.485 85.144L424.399 84.066C423.365 82.966 423.079 82.35 423.079 81.646C423.079 80.876 423.453 80.194 424.289 79.556L423.453 78.676C422.045 79.754 421.319 81.074 421.319 82.394C421.319 83.34 421.649 84.242 422.485 85.144ZM418.635 85.144L420.549 84.066C419.515 82.966 419.229 82.35 419.229 81.646C419.229 80.876 419.603 80.194 420.439 79.556L419.603 78.676C418.195 79.754 417.469 81.074 417.469 82.394C417.469 83.34 417.799 84.242 418.635 85.144ZM427.096 95H429.362V80.326H427.096V95ZM437.532 90.16C437.532 93.042 439.534 95.264 442.636 95.264C445.012 95.264 446.156 93.988 446.156 93.988L445.452 92.448C445.452 92.448 444.374 93.482 442.79 93.482C440.92 93.482 439.798 92.008 439.798 90.05C439.798 88.026 441.008 86.552 442.812 86.552C444.264 86.552 445.298 87.476 445.298 87.476L446.156 85.848C446.156 85.848 444.946 84.792 442.768 84.792C439.49 84.792 437.532 87.41 437.532 90.16ZM447.518 92.712C447.518 94.186 448.64 95.264 450.378 95.264C452.314 95.264 453.326 94.032 453.59 93.614C453.876 94.406 454.514 95.044 456.032 95.154L456.692 93.438C456.692 93.438 455.592 93.416 455.592 92.184V87.982C455.592 85.76 454.844 84.792 452.49 84.792C449.872 84.792 448.178 86.046 448.178 86.046L448.75 87.674C448.75 87.674 450.268 86.53 451.896 86.53C453.502 86.53 453.414 87.63 453.414 88.884C449.696 89.368 447.518 90.622 447.518 92.712ZM450.928 93.548C450.29 93.548 449.762 93.262 449.762 92.558C449.762 91.392 450.884 90.666 453.414 90.292V92.008C452.754 92.778 451.94 93.548 450.928 93.548ZM458.838 95H461.016V88.554C461.698 87.894 463.106 86.684 464.206 86.684C464.954 86.684 465.394 87.212 465.394 88.62V95H467.572V87.828C467.572 85.694 466.494 84.792 464.932 84.792C463.106 84.792 461.676 86.002 460.972 86.772V84.88L458.838 85.232V95ZM475.173 90.336C475.173 93.064 476.845 95.264 479.441 95.264C481.025 95.264 482.037 94.494 482.565 93.636C482.675 94.34 482.873 95.154 482.873 95.154L484.963 95C484.963 95 484.523 93.152 484.523 91.942V79.27L482.345 79.622V85.122C482.059 85.012 481.399 84.792 480.497 84.792C476.977 84.792 475.173 87.498 475.173 90.336ZM479.815 93.526C478.407 93.526 477.461 92.272 477.461 90.204C477.461 87.828 478.715 86.508 480.607 86.508C481.509 86.508 482.301 86.838 482.345 87.828V91.92C482.037 92.382 481.157 93.526 479.815 93.526ZM486.967 90.072C486.967 92.712 488.749 95.264 492.049 95.264C495.635 95.264 497.219 92.25 497.219 89.83C497.219 87.278 495.437 84.792 492.137 84.792C488.573 84.792 486.967 87.586 486.967 90.072ZM489.233 89.874C489.233 87.894 490.399 86.53 492.093 86.53C494.117 86.53 494.953 88.356 494.953 90.116C494.953 92.118 493.787 93.526 492.115 93.526C490.135 93.526 489.233 91.722 489.233 89.874ZM303.068 122.294C303.068 124.34 304.19 125.264 305.906 125.264C307.666 125.264 308.964 124.208 308.964 124.208L308.414 122.558C308.15 122.712 307.226 123.438 306.39 123.438C305.664 123.438 305.246 122.954 305.246 121.744V116.706H308.392V115.056H305.246V112.24L303.112 112.702V114.968L301.594 115.518V116.706H303.068V122.294ZM310.854 125H313.032V118.598C313.692 117.938 315.122 116.684 316.222 116.684C316.97 116.684 317.41 117.212 317.41 118.62V125H319.588V117.828C319.588 115.694 318.51 114.792 316.926 114.792C315.1 114.792 313.692 116.024 313.032 116.728V109.27L310.854 109.622V125ZM323.663 112.68C324.455 112.68 325.049 112.108 325.049 111.338C325.049 110.568 324.455 109.996 323.663 109.996C322.893 109.996 322.299 110.568 322.299 111.338C322.299 112.108 322.893 112.68 323.663 112.68ZM322.563 125H324.741V115.056H322.563V125ZM327.145 124.384C327.145 124.384 328.377 125.264 330.445 125.264C332.887 125.264 334.317 124.054 334.317 122.25C334.317 119.082 329.543 119.236 329.543 117.498C329.543 116.926 330.027 116.508 331.127 116.508C332.403 116.508 333.547 117.124 333.547 117.124L334.053 115.342C334.053 115.342 332.953 114.792 331.215 114.792C328.465 114.792 327.365 116.134 327.365 117.674C327.365 120.798 332.139 120.666 332.139 122.448C332.139 123.086 331.589 123.548 330.423 123.548C328.817 123.548 327.607 122.536 327.607 122.536L327.145 124.384ZM340.66 115.144C342.068 114.044 342.794 112.746 342.794 111.404C342.794 110.458 342.464 109.556 341.628 108.676L339.714 109.732C340.748 110.832 341.034 111.448 341.034 112.152C341.034 112.922 340.66 113.604 339.824 114.242L340.66 115.144ZM336.81 115.144C338.218 114.044 338.944 112.746 338.944 111.404C338.944 110.458 338.614 109.556 337.778 108.676L335.842 109.732C336.898 110.832 337.184 111.448 337.184 112.152C337.184 112.922 336.81 113.604 335.974 114.242L336.81 115.144ZM352.518 125.088H354.63L357.182 118.004L359.47 125.088H361.604L365.168 115.056H362.946L360.548 122.536L358.216 115.056H356.324L353.75 122.58L351.572 115.056H349.328L352.518 125.088ZM368.136 112.68C368.928 112.68 369.522 112.108 369.522 111.338C369.522 110.568 368.928 109.996 368.136 109.996C367.366 109.996 366.772 110.568 366.772 111.338C366.772 112.108 367.366 112.68 368.136 112.68ZM367.036 125H369.214V115.056H367.036V125ZM372.849 122.294C372.849 124.34 373.971 125.264 375.687 125.264C377.447 125.264 378.745 124.208 378.745 124.208L378.195 122.558C377.931 122.712 377.007 123.438 376.171 123.438C375.445 123.438 375.027 122.954 375.027 121.744V116.706H378.173V115.056H375.027V112.24L372.893 112.702V114.968L371.375 115.518V116.706H372.849V122.294ZM380.636 125H382.814V118.598C383.474 117.938 384.904 116.684 386.004 116.684C386.752 116.684 387.192 117.212 387.192 118.62V125H389.37V117.828C389.37 115.694 388.292 114.792 386.708 114.792C384.882 114.792 383.474 116.024 382.814 116.728V109.27L380.636 109.622V125ZM398.158 122.294C398.158 124.34 399.28 125.264 400.996 125.264C402.756 125.264 404.054 124.208 404.054 124.208L403.504 122.558C403.24 122.712 402.316 123.438 401.48 123.438C400.754 123.438 400.336 122.954 400.336 121.744V116.706H403.482V115.056H400.336V112.24L398.202 112.702V114.968L396.684 115.518V116.706H398.158V122.294ZM405.944 125H408.122V118.598C408.782 117.938 410.212 116.684 411.312 116.684C412.06 116.684 412.5 117.212 412.5 118.62V125H414.678V117.828C414.678 115.694 413.6 114.792 412.016 114.792C410.19 114.792 408.782 116.024 408.122 116.728V109.27L405.944 109.622V125ZM416.993 120.182C416.993 122.844 418.687 125.264 422.009 125.264C424.495 125.264 426.013 123.834 426.013 123.834L425.397 122.25C425.397 122.25 424.011 123.482 422.339 123.482C420.601 123.482 419.501 122.316 419.259 120.512L424.693 119.786L425.947 119.434C425.947 116.42 424.231 114.792 421.855 114.792C418.951 114.792 416.993 117.146 416.993 120.182ZM421.701 116.486C423.439 116.486 423.571 118.51 423.571 118.51L419.259 119.06C419.457 117.608 420.293 116.486 421.701 116.486ZM433.68 125H435.858V118.84C436.276 118.18 437.178 116.992 438.278 116.992C438.718 116.992 439.158 117.168 439.158 117.168L439.598 114.968C439.598 114.968 439.29 114.792 438.74 114.792C437.222 114.792 436.21 116.2 435.814 116.882V114.88L433.68 115.232V125ZM442.472 112.68C443.264 112.68 443.858 112.108 443.858 111.338C443.858 110.568 443.264 109.996 442.472 109.996C441.702 109.996 441.108 110.568 441.108 111.338C441.108 112.108 441.702 112.68 442.472 112.68ZM441.372 125H443.55V115.056H441.372V125ZM446.591 123.24C446.591 123.922 447.229 124.318 448.219 124.648C447.163 125.198 445.689 126.144 445.689 127.596C445.689 129.334 447.845 130.214 450.045 130.214C453.037 130.214 455.479 128.52 455.479 126.518C455.479 124.692 453.477 124.142 451.717 123.702C449.649 123.196 448.681 122.998 448.681 122.602C448.681 122.36 449.033 122.096 449.495 121.788C449.715 121.832 449.957 121.832 450.221 121.832C452.355 121.832 454.621 120.666 454.621 118.488C454.621 117.608 454.203 117.014 453.895 116.662C454.159 116.706 454.467 116.728 454.709 116.728H455.897L455.743 114.99C455.743 114.99 455.083 115.21 454.423 115.21H453.279C452.179 115.21 451.607 114.792 450.397 114.792C448.175 114.792 446.173 116.046 446.173 118.268C446.173 119.61 446.899 120.776 448.153 121.392C447.339 121.854 446.591 122.514 446.591 123.24ZM450.463 125.22C452.311 125.704 453.345 125.99 453.345 126.848C453.345 127.838 451.937 128.63 450.177 128.63C448.923 128.63 447.647 128.234 447.647 127.244C447.647 126.254 448.857 125.594 449.803 125.066C450.023 125.11 450.243 125.154 450.463 125.22ZM450.375 120.292C448.967 120.292 448.307 119.28 448.307 118.334C448.307 117.3 449.055 116.332 450.375 116.332C451.783 116.332 452.465 117.476 452.465 118.444C452.465 119.566 451.585 120.292 450.375 120.292ZM457.786 125H459.964V118.598C460.624 117.938 462.054 116.684 463.154 116.684C463.902 116.684 464.342 117.212 464.342 118.62V125H466.52V117.828C466.52 115.694 465.442 114.792 463.858 114.792C462.032 114.792 460.624 116.024 459.964 116.728V109.27L457.786 109.622V125ZM470.023 122.294C470.023 124.34 471.145 125.264 472.861 125.264C474.621 125.264 475.919 124.208 475.919 124.208L475.369 122.558C475.105 122.712 474.181 123.438 473.345 123.438C472.619 123.438 472.201 122.954 472.201 121.744V116.706H475.347V115.056H472.201V112.24L470.067 112.702V114.968L468.549 115.518V116.706H470.023V122.294ZM301.836 154.384C301.836 154.384 303.068 155.264 305.136 155.264C307.578 155.264 309.008 154.054 309.008 152.25C309.008 149.082 304.234 149.236 304.234 147.498C304.234 146.926 304.718 146.508 305.818 146.508C307.094 146.508 308.238 147.124 308.238 147.124L308.744 145.342C308.744 145.342 307.644 144.792 305.906 144.792C303.156 144.792 302.056 146.134 302.056 147.674C302.056 150.798 306.83 150.666 306.83 152.448C306.83 153.086 306.28 153.548 305.114 153.548C303.508 153.548 302.298 152.536 302.298 152.536L301.836 154.384ZM311.282 152.272C311.282 154.406 312.382 155.264 313.988 155.264C315.814 155.264 317.2 154.098 317.838 153.416C317.948 154.142 318.168 155.176 318.168 155.176L320.28 154.978C320.28 154.978 319.84 153.152 319.84 151.942V145.056H317.662V151.744C317.046 152.316 315.814 153.372 314.692 153.372C313.878 153.372 313.46 152.822 313.46 151.436V145.056H311.282V152.272ZM322.949 160.126L325.127 159.774V154.736C325.545 155.044 326.293 155.264 327.217 155.264C330.385 155.264 332.233 152.668 332.233 149.72C332.233 147.014 330.649 144.792 328.031 144.792C326.469 144.792 325.523 145.606 325.061 146.464V144.88L322.949 145.232V160.126ZM327.657 146.596C328.999 146.596 329.945 147.806 329.945 149.874C329.945 152.25 328.691 153.548 326.821 153.548C325.787 153.548 325.127 153.174 325.127 152.426V148.202C325.413 147.784 326.337 146.596 327.657 146.596ZM334.615 160.126L336.793 159.774V154.736C337.211 155.044 337.959 155.264 338.883 155.264C342.051 155.264 343.899 152.668 343.899 149.72C343.899 147.014 342.315 144.792 339.697 144.792C338.135 144.792 337.189 145.606 336.727 146.464V144.88L334.615 145.232V160.126ZM339.323 146.596C340.665 146.596 341.611 147.806 341.611 149.874C341.611 152.25 340.357 153.548 338.487 153.548C337.453 153.548 336.793 153.174 336.793 152.426V148.202C337.079 147.784 338.003 146.596 339.323 146.596ZM345.643 150.072C345.643 152.712 347.425 155.264 350.725 155.264C354.311 155.264 355.895 152.25 355.895 149.83C355.895 147.278 354.113 144.792 350.813 144.792C347.249 144.792 345.643 147.586 345.643 150.072ZM347.909 149.874C347.909 147.894 349.075 146.53 350.769 146.53C352.793 146.53 353.629 148.356 353.629 150.116C353.629 152.118 352.463 153.526 350.791 153.526C348.811 153.526 347.909 151.722 347.909 149.874ZM358.248 155H360.426V148.84C360.844 148.18 361.746 146.992 362.846 146.992C363.286 146.992 363.726 147.168 363.726 147.168L364.166 144.968C364.166 144.968 363.858 144.792 363.308 144.792C361.79 144.792 360.778 146.2 360.382 146.882V144.88L358.248 145.232V155ZM366.468 152.294C366.468 154.34 367.59 155.264 369.306 155.264C371.066 155.264 372.364 154.208 372.364 154.208L371.814 152.558C371.55 152.712 370.626 153.438 369.79 153.438C369.064 153.438 368.646 152.954 368.646 151.744V146.706H371.792V145.056H368.646V142.24L366.512 142.702V144.968L364.994 145.518V146.706H366.468V152.294ZM373.925 153.79C373.925 154.604 374.585 155.264 375.399 155.264C376.213 155.264 376.895 154.604 376.895 153.79C376.895 152.954 376.213 152.294 375.399 152.294C374.585 152.294 373.925 152.954 373.925 153.79Z" fill="#333333"/>
<path d="M43 430.324V187.385H291V430.324" stroke="#828282" stroke-width="4"/>
<path d="M539 430.324V187.385H787V430.324" stroke="#828282" stroke-width="4"/>
<path d="M291 430.324V187.385H539V430.324" stroke="#828282" stroke-width="4"/>
<path d="M787 430.324V187.385H1035V430.324" stroke="#828282" stroke-width="4"/>
<rect x="53" y="200" width="49" height="170" fill="#EDE3E4"/>
<rect x="549" y="200" width="49" height="186" fill="#D9DFE9"/>
<rect x="301" y="200" width="49" height="170" fill="#EFE8DF"/>
<rect x="797.121" y="200.039" width="49.3469" height="137.918" fill="#DFDDE2"/>
<rect x="112.594" y="200.039" width="49.3469" height="221.429" fill="#EDE3E4"/>
<rect x="609" y="200" width="49" height="151" fill="#D9DFE9"/>
<rect x="360.594" y="200.039" width="49.3469" height="137.918" fill="#EFE8DF"/>
<rect x="857" y="200" width="49" height="170" fill="#DFDDE2"/>
<rect x="231.531" y="200.039" width="49.3469" height="169.551" fill="#EDE3E4"/>
<rect x="728" y="200" width="49" height="186" fill="#D9DFE9"/>
<rect x="480" y="200" width="49" height="138" fill="#EFE8DF"/>
<rect x="975.531" y="200.039" width="49.3469" height="137.918" fill="#DFDDE2"/>
<rect x="172" y="200" width="49" height="221" fill="#EDE3E4"/>
<rect x="668" y="200" width="49" height="151" fill="#D9DFE9"/>
<rect x="420" y="200" width="49" height="170" fill="#EFE8DF"/>
<rect x="916" y="200" width="49" height="151" fill="#DFDDE2"/>
</svg>
