<svg width="1158" height="451" viewBox="0 0 1158 451" fill="none" xmlns="http://www.w3.org/2000/svg">
<rect x="1" y="1" width="1156" height="449" fill="#FAFAFA" stroke="#BDBDBD" stroke-width="2"/>
<path d="M21.491 424.36C21.491 423.475 21.6403 422.685 21.939 421.992C22.2377 421.288 22.643 420.696 23.155 420.216C23.667 419.736 24.2643 419.368 24.947 419.112C25.6297 418.856 26.355 418.728 27.123 418.728C27.891 418.728 28.6163 418.856 29.299 419.112C29.9817 419.368 30.579 419.736 31.091 420.216C31.603 420.696 32.0083 421.288 32.307 421.992C32.6057 422.685 32.755 423.475 32.755 424.36C32.755 425.245 32.6057 426.04 32.307 426.744C32.0083 427.437 31.603 428.024 31.091 428.504C30.579 428.984 29.9817 429.352 29.299 429.608C28.6163 429.864 27.891 429.992 27.123 429.992C26.2697 429.992 25.4963 429.864 24.803 429.608C24.1097 429.352 23.5177 428.984 23.027 428.504C22.5363 428.024 22.1577 427.437 21.891 426.744C21.6243 426.04 21.491 425.245 21.491 424.36ZM22.611 424.36C22.611 425.096 22.7283 425.752 22.963 426.328C23.1977 426.893 23.5177 427.368 23.923 427.752C24.3283 428.136 24.803 428.429 25.347 428.632C25.9017 428.835 26.4937 428.936 27.123 428.936C27.7523 428.936 28.339 428.835 28.883 428.632C29.4377 428.429 29.9177 428.136 30.323 427.752C30.7283 427.368 31.0483 426.893 31.283 426.328C31.5177 425.752 31.635 425.096 31.635 424.36C31.635 423.624 31.5177 422.973 31.283 422.408C31.0483 421.832 30.7283 421.352 30.323 420.968C29.9177 420.584 29.4377 420.291 28.883 420.088C28.339 419.885 27.7523 419.784 27.123 419.784C26.4937 419.784 25.9017 419.885 25.347 420.088C24.803 420.291 24.3283 420.584 23.923 420.968C23.5177 421.352 23.1977 421.832 22.963 422.408C22.7283 422.973 22.611 423.624 22.611 424.36ZM28.979 426.968C28.7337 427.107 28.4563 427.213 28.147 427.288C27.8483 427.363 27.4963 427.4 27.091 427.4C26.227 427.4 25.5657 427.128 25.107 426.584C24.659 426.04 24.435 425.299 24.435 424.36C24.435 423.389 24.675 422.643 25.155 422.12C25.6457 421.587 26.291 421.32 27.091 421.32C27.283 421.32 27.4537 421.331 27.603 421.352C27.763 421.373 27.907 421.405 28.035 421.448C28.1737 421.48 28.307 421.523 28.435 421.576C28.563 421.629 28.707 421.688 28.867 421.752L28.451 422.728C28.2163 422.611 27.9923 422.531 27.779 422.488C27.5657 422.445 27.3843 422.424 27.235 422.424C26.787 422.424 26.419 422.563 26.131 422.84C25.8537 423.117 25.715 423.624 25.715 424.36C25.715 424.979 25.8537 425.459 26.131 425.8C26.4083 426.131 26.819 426.301 27.363 426.312C27.8643 426.312 28.291 426.216 28.643 426.024L28.979 426.968ZM40.8616 420.344C40.8616 420.909 40.755 421.491 40.5416 422.088C40.339 422.675 40.067 423.267 39.7256 423.864C39.395 424.461 39.0216 425.048 38.6056 425.624C38.1896 426.189 37.7736 426.728 37.3576 427.24L36.5736 427.928V427.992L37.5976 427.816H41.0856V429H34.7176V428.536C34.9523 428.291 35.235 427.987 35.5656 427.624C35.8963 427.261 36.2376 426.861 36.5896 426.424C36.9523 425.976 37.3043 425.507 37.6456 425.016C37.9976 424.515 38.3123 424.008 38.5896 423.496C38.8776 422.984 39.107 422.477 39.2776 421.976C39.4483 421.475 39.5336 421 39.5336 420.552C39.5336 420.029 39.3843 419.597 39.0856 419.256C38.787 418.904 38.3336 418.728 37.7256 418.728C37.3203 418.728 36.9256 418.813 36.5416 418.984C36.1576 419.144 35.827 419.331 35.5496 419.544L35.0216 418.632C35.395 418.312 35.8376 418.061 36.3496 417.88C36.8616 417.699 37.411 417.608 37.9976 417.608C38.4563 417.608 38.8616 417.677 39.2136 417.816C39.5656 417.944 39.8643 418.131 40.1096 418.376C40.355 418.621 40.5416 418.915 40.6696 419.256C40.7976 419.587 40.8616 419.949 40.8616 420.344ZM43.2924 423.4C43.2924 421.48 43.6017 420.035 44.2204 419.064C44.8497 418.093 45.7617 417.608 46.9564 417.608C48.247 417.608 49.1804 418.088 49.7564 419.048C50.343 419.997 50.6364 421.448 50.6364 423.4C50.6364 425.32 50.3217 426.765 49.6924 427.736C49.0737 428.707 48.1617 429.192 46.9564 429.192C45.687 429.192 44.759 428.685 44.1724 427.672C43.5857 426.659 43.2924 425.235 43.2924 423.4ZM44.6204 423.4C44.6204 424.093 44.663 424.728 44.7484 425.304C44.8444 425.869 44.9884 426.36 45.1804 426.776C45.3724 427.181 45.6124 427.501 45.9004 427.736C46.199 427.96 46.551 428.072 46.9564 428.072C47.767 428.072 48.359 427.699 48.7324 426.952C49.1164 426.195 49.3084 425.011 49.3084 423.4C49.3084 422.717 49.2657 422.088 49.1804 421.512C49.1057 420.936 48.9724 420.44 48.7804 420.024C48.599 419.608 48.359 419.288 48.0604 419.064C47.7617 418.84 47.3937 418.728 46.9564 418.728C46.1564 418.728 45.5644 419.107 45.1804 419.864C44.807 420.621 44.6204 421.8 44.6204 423.4ZM58.6191 420.344C58.6191 420.909 58.5125 421.491 58.2991 422.088C58.0965 422.675 57.8245 423.267 57.4831 423.864C57.1525 424.461 56.7791 425.048 56.3631 425.624C55.9471 426.189 55.5311 426.728 55.1151 427.24L54.3311 427.928V427.992L55.3551 427.816H58.8431V429H52.4751V428.536C52.7098 428.291 52.9925 427.987 53.3231 427.624C53.6538 427.261 53.9951 426.861 54.3471 426.424C54.7098 425.976 55.0618 425.507 55.4031 425.016C55.7551 424.515 56.0698 424.008 56.3471 423.496C56.6351 422.984 56.8645 422.477 57.0351 421.976C57.2058 421.475 57.2911 421 57.2911 420.552C57.2911 420.029 57.1418 419.597 56.8431 419.256C56.5445 418.904 56.0911 418.728 55.4831 418.728C55.0778 418.728 54.6831 418.813 54.2991 418.984C53.9151 419.144 53.5845 419.331 53.3071 419.544L52.7791 418.632C53.1525 418.312 53.5951 418.061 54.1071 417.88C54.6191 417.699 55.1685 417.608 55.7551 417.608C56.2138 417.608 56.6191 417.677 56.9711 417.816C57.3231 417.944 57.6218 418.131 57.8671 418.376C58.1125 418.621 58.2991 418.915 58.4271 419.256C58.5551 419.587 58.6191 419.949 58.6191 420.344ZM61.0499 423.4C61.0499 421.48 61.3592 420.035 61.9779 419.064C62.6072 418.093 63.5192 417.608 64.7139 417.608C66.0045 417.608 66.9379 418.088 67.5139 419.048C68.1005 419.997 68.3939 421.448 68.3939 423.4C68.3939 425.32 68.0792 426.765 67.4499 427.736C66.8312 428.707 65.9192 429.192 64.7139 429.192C63.4445 429.192 62.5165 428.685 61.9299 427.672C61.3432 426.659 61.0499 425.235 61.0499 423.4ZM62.3779 423.4C62.3779 424.093 62.4205 424.728 62.5059 425.304C62.6019 425.869 62.7459 426.36 62.9379 426.776C63.1299 427.181 63.3699 427.501 63.6579 427.736C63.9565 427.96 64.3085 428.072 64.7139 428.072C65.5245 428.072 66.1165 427.699 66.4899 426.952C66.8739 426.195 67.0659 425.011 67.0659 423.4C67.0659 422.717 67.0232 422.088 66.9379 421.512C66.8632 420.936 66.7299 420.44 66.5379 420.024C66.3565 419.608 66.1165 419.288 65.8179 419.064C65.5192 418.84 65.1512 418.728 64.7139 418.728C63.9139 418.728 63.3219 419.107 62.9379 419.864C62.5645 420.621 62.3779 421.8 62.3779 423.4ZM75.0263 417.912C75.4316 417.837 75.8956 417.779 76.4183 417.736C76.9516 417.693 77.4369 417.672 77.8743 417.672C78.3649 417.672 78.8289 417.725 79.2663 417.832C79.7143 417.939 80.1036 418.115 80.4343 418.36C80.7756 418.605 81.0476 418.925 81.2503 419.32C81.4529 419.715 81.5543 420.195 81.5543 420.76C81.5543 421.635 81.3143 422.344 80.8343 422.888C80.3543 423.432 79.7463 423.795 79.0103 423.976L79.7783 424.568L82.5623 429H81.0103L77.9223 424.168L76.3543 423.928V429H75.0263V417.912ZM77.9063 418.824C77.7676 418.824 77.6236 418.824 77.4743 418.824C77.3249 418.824 77.1809 418.829 77.0423 418.84C76.9036 418.851 76.7703 418.861 76.6423 418.872C76.5249 418.883 76.4289 418.899 76.3543 418.92V423.048H77.6023C78.3383 423.048 78.9463 422.867 79.4263 422.504C79.9063 422.141 80.1463 421.576 80.1463 420.808C80.1463 420.232 79.9489 419.757 79.5543 419.384C79.1596 419.011 78.6103 418.824 77.9063 418.824ZM84.2896 421.592C84.695 421.347 85.1643 421.165 85.6976 421.048C86.2416 420.931 86.807 420.872 87.3936 420.872C87.9483 420.872 88.391 420.947 88.7216 421.096C89.063 421.245 89.319 421.443 89.4896 421.688C89.671 421.923 89.7883 422.184 89.8416 422.472C89.9056 422.76 89.9376 423.048 89.9376 423.336C89.9376 423.976 89.9216 424.6 89.8896 425.208C89.8576 425.816 89.8416 426.392 89.8416 426.936C89.8416 427.331 89.8576 427.704 89.8896 428.056C89.9216 428.408 89.9803 428.733 90.0656 429.032H89.1216L88.7856 427.912H88.7056C88.6096 428.061 88.487 428.211 88.3376 428.36C88.199 428.499 88.0283 428.627 87.8256 428.744C87.623 428.851 87.3883 428.941 87.1216 429.016C86.855 429.091 86.551 429.128 86.2096 429.128C85.8683 429.128 85.5483 429.075 85.2496 428.968C84.9616 428.861 84.711 428.712 84.4976 428.52C84.2843 428.317 84.1136 428.077 83.9856 427.8C83.8683 427.523 83.8096 427.208 83.8096 426.856C83.8096 426.387 83.9056 425.997 84.0976 425.688C84.2896 425.368 84.5563 425.117 84.8976 424.936C85.2496 424.744 85.6656 424.611 86.1456 424.536C86.6363 424.451 87.175 424.408 87.7616 424.408C87.911 424.408 88.055 424.408 88.1936 424.408C88.343 424.408 88.4923 424.419 88.6416 424.44C88.6736 424.12 88.6896 423.832 88.6896 423.576C88.6896 422.989 88.5723 422.579 88.3376 422.344C88.103 422.109 87.6763 421.992 87.0576 421.992C86.8763 421.992 86.679 422.008 86.4656 422.04C86.263 422.061 86.0496 422.099 85.8256 422.152C85.6123 422.195 85.4043 422.253 85.2016 422.328C85.0096 422.392 84.839 422.467 84.6896 422.552L84.2896 421.592ZM86.5616 428.008C86.8603 428.008 87.127 427.971 87.3616 427.896C87.5963 427.811 87.799 427.709 87.9696 427.592C88.1403 427.464 88.279 427.325 88.3856 427.176C88.503 427.027 88.5883 426.883 88.6416 426.744V425.416C88.4923 425.405 88.3376 425.4 88.1776 425.4C88.0283 425.389 87.879 425.384 87.7296 425.384C87.399 425.384 87.0736 425.405 86.7536 425.448C86.4443 425.48 86.167 425.549 85.9216 425.656C85.687 425.752 85.495 425.891 85.3456 426.072C85.207 426.243 85.1376 426.461 85.1376 426.728C85.1376 427.101 85.271 427.411 85.5376 427.656C85.8043 427.891 86.1456 428.008 86.5616 428.008ZM97.9711 428.472C97.6511 428.707 97.2725 428.883 96.8351 429C96.3978 429.128 95.9391 429.192 95.4591 429.192C94.8405 429.192 94.3178 429.096 93.8911 428.904C93.4645 428.701 93.1125 428.419 92.8351 428.056C92.5685 427.683 92.3711 427.24 92.2431 426.728C92.1258 426.205 92.0671 425.629 92.0671 425C92.0671 423.645 92.3658 422.611 92.9631 421.896C93.5605 421.171 94.4191 420.808 95.5391 420.808C96.0511 420.808 96.4831 420.851 96.8351 420.936C97.1978 421.011 97.5231 421.123 97.8111 421.272L97.4431 422.376C97.1978 422.237 96.9258 422.131 96.6271 422.056C96.3285 421.971 96.0085 421.928 95.6671 421.928C94.1525 421.928 93.3951 422.952 93.3951 425C93.3951 425.405 93.4325 425.795 93.5071 426.168C93.5925 426.531 93.7258 426.856 93.9071 427.144C94.0991 427.421 94.3445 427.645 94.6431 427.816C94.9525 427.987 95.3311 428.072 95.7791 428.072C96.1631 428.072 96.5045 428.013 96.8031 427.896C97.1125 427.779 97.3631 427.645 97.5551 427.496L97.9711 428.472ZM105.03 429V424.44C105.03 424.024 105.003 423.661 104.95 423.352C104.907 423.032 104.822 422.771 104.694 422.568C104.566 422.355 104.39 422.195 104.166 422.088C103.953 421.981 103.67 421.928 103.318 421.928C102.817 421.928 102.363 422.093 101.958 422.424C101.553 422.744 101.291 423.16 101.174 423.672V429H99.8939V417.8H101.174V421.896H101.238C101.515 421.565 101.846 421.304 102.23 421.112C102.625 420.909 103.11 420.808 103.686 420.808C104.134 420.808 104.523 420.861 104.854 420.968C105.185 421.064 105.457 421.24 105.67 421.496C105.894 421.752 106.054 422.099 106.15 422.536C106.257 422.963 106.31 423.507 106.31 424.168V429H105.03ZM114.644 428.36C114.324 428.616 113.919 428.819 113.428 428.968C112.948 429.117 112.436 429.192 111.892 429.192C111.284 429.192 110.756 429.096 110.308 428.904C109.86 428.701 109.492 428.419 109.204 428.056C108.916 427.683 108.703 427.24 108.564 426.728C108.425 426.216 108.356 425.64 108.356 425C108.356 423.635 108.66 422.595 109.268 421.88C109.876 421.165 110.745 420.808 111.876 420.808C112.239 420.808 112.601 420.851 112.964 420.936C113.327 421.011 113.652 421.16 113.94 421.384C114.228 421.608 114.463 421.928 114.644 422.344C114.825 422.749 114.916 423.288 114.916 423.96C114.916 424.312 114.884 424.701 114.82 425.128H109.684C109.684 425.597 109.732 426.013 109.828 426.376C109.924 426.739 110.073 427.048 110.276 427.304C110.479 427.549 110.74 427.741 111.06 427.88C111.391 428.008 111.791 428.072 112.26 428.072C112.623 428.072 112.985 428.008 113.348 427.88C113.711 427.752 113.983 427.603 114.164 427.432L114.644 428.36ZM111.892 421.928C111.263 421.928 110.756 422.093 110.372 422.424C109.999 422.755 109.775 423.32 109.7 424.12H113.668C113.668 423.309 113.513 422.744 113.204 422.424C112.895 422.093 112.457 421.928 111.892 421.928ZM118.513 427.032C118.513 427.405 118.577 427.672 118.705 427.832C118.833 427.992 119.014 428.072 119.249 428.072C119.388 428.072 119.537 428.061 119.697 428.04C119.857 428.019 120.038 427.971 120.241 427.896L120.385 428.904C120.214 428.989 119.974 429.059 119.665 429.112C119.366 429.165 119.105 429.192 118.881 429.192C118.401 429.192 118.006 429.059 117.697 428.792C117.388 428.515 117.233 428.051 117.233 427.4V417.8H118.513V427.032ZM131.287 425.896H127.159L126.039 429H124.727L128.967 417.624H129.575L133.831 429H132.439L131.287 425.896ZM127.591 424.744H130.887L129.639 421.336L129.239 419.64H129.223L128.823 421.368L127.591 424.744ZM134.06 421H135.308V419.416L136.588 419.048V421H138.764V422.12H136.588V426.552C136.588 427.107 136.657 427.501 136.796 427.736C136.934 427.96 137.169 428.072 137.5 428.072C137.777 428.072 138.012 428.045 138.204 427.992C138.396 427.928 138.609 427.848 138.844 427.752L139.132 428.728C138.844 428.867 138.529 428.979 138.188 429.064C137.846 429.149 137.478 429.192 137.084 429.192C136.433 429.192 135.974 429.011 135.708 428.648C135.441 428.275 135.308 427.656 135.308 426.792V422.12H134.06V421ZM145.386 429V424.472C145.386 424.045 145.364 423.677 145.322 423.368C145.29 423.048 145.22 422.781 145.114 422.568C145.007 422.355 144.852 422.195 144.65 422.088C144.458 421.981 144.202 421.928 143.882 421.928C143.391 421.928 142.98 422.077 142.65 422.376C142.33 422.675 142.106 423.048 141.978 423.496V429H140.698V421H141.594L141.834 421.976H141.898C142.186 421.635 142.516 421.357 142.89 421.144C143.274 420.92 143.77 420.808 144.378 420.808C144.89 420.808 145.306 420.909 145.626 421.112C145.956 421.304 146.212 421.645 146.394 422.136C146.639 421.72 146.975 421.395 147.402 421.16C147.839 420.925 148.33 420.808 148.874 420.808C149.322 420.808 149.7 420.861 150.01 420.968C150.319 421.064 150.575 421.24 150.778 421.496C150.98 421.752 151.124 422.099 151.21 422.536C151.306 422.973 151.354 423.528 151.354 424.2V429H150.074V424.184C150.074 423.8 150.052 423.469 150.01 423.192C149.978 422.904 149.903 422.669 149.786 422.488C149.679 422.296 149.524 422.157 149.322 422.072C149.13 421.976 148.874 421.928 148.554 421.928C148.02 421.928 147.604 422.077 147.306 422.376C147.007 422.675 146.794 423.101 146.666 423.656V429H145.386ZM153.714 421.592C154.119 421.347 154.589 421.165 155.122 421.048C155.666 420.931 156.231 420.872 156.818 420.872C157.373 420.872 157.815 420.947 158.146 421.096C158.487 421.245 158.743 421.443 158.914 421.688C159.095 421.923 159.213 422.184 159.266 422.472C159.33 422.76 159.362 423.048 159.362 423.336C159.362 423.976 159.346 424.6 159.314 425.208C159.282 425.816 159.266 426.392 159.266 426.936C159.266 427.331 159.282 427.704 159.314 428.056C159.346 428.408 159.405 428.733 159.49 429.032H158.546L158.21 427.912H158.13C158.034 428.061 157.911 428.211 157.762 428.36C157.623 428.499 157.453 428.627 157.25 428.744C157.047 428.851 156.813 428.941 156.546 429.016C156.279 429.091 155.975 429.128 155.634 429.128C155.293 429.128 154.973 429.075 154.674 428.968C154.386 428.861 154.135 428.712 153.922 428.52C153.709 428.317 153.538 428.077 153.41 427.8C153.293 427.523 153.234 427.208 153.234 426.856C153.234 426.387 153.33 425.997 153.522 425.688C153.714 425.368 153.981 425.117 154.322 424.936C154.674 424.744 155.09 424.611 155.57 424.536C156.061 424.451 156.599 424.408 157.186 424.408C157.335 424.408 157.479 424.408 157.618 424.408C157.767 424.408 157.917 424.419 158.066 424.44C158.098 424.12 158.114 423.832 158.114 423.576C158.114 422.989 157.997 422.579 157.762 422.344C157.527 422.109 157.101 421.992 156.482 421.992C156.301 421.992 156.103 422.008 155.89 422.04C155.687 422.061 155.474 422.099 155.25 422.152C155.037 422.195 154.829 422.253 154.626 422.328C154.434 422.392 154.263 422.467 154.114 422.552L153.714 421.592ZM155.986 428.008C156.285 428.008 156.551 427.971 156.786 427.896C157.021 427.811 157.223 427.709 157.394 427.592C157.565 427.464 157.703 427.325 157.81 427.176C157.927 427.027 158.013 426.883 158.066 426.744V425.416C157.917 425.405 157.762 425.4 157.602 425.4C157.453 425.389 157.303 425.384 157.154 425.384C156.823 425.384 156.498 425.405 156.178 425.448C155.869 425.48 155.591 425.549 155.346 425.656C155.111 425.752 154.919 425.891 154.77 426.072C154.631 426.243 154.562 426.461 154.562 426.728C154.562 427.101 154.695 427.411 154.962 427.656C155.229 427.891 155.57 428.008 155.986 428.008ZM168.084 426.248C168.084 426.792 168.089 427.288 168.1 427.736C168.11 428.173 168.158 428.605 168.244 429.032H167.38L167.06 427.896H166.996C166.782 428.269 166.473 428.579 166.068 428.824C165.662 429.069 165.188 429.192 164.644 429.192C163.577 429.192 162.782 428.856 162.26 428.184C161.748 427.512 161.492 426.461 161.492 425.032C161.492 423.667 161.812 422.632 162.452 421.928C163.102 421.213 163.993 420.856 165.124 420.856C165.518 420.856 165.828 420.877 166.052 420.92C166.286 420.963 166.537 421.032 166.804 421.128V417.8H168.084V426.248ZM164.852 428.072C165.396 428.072 165.828 427.933 166.148 427.656C166.468 427.368 166.686 426.936 166.804 426.36V422.392C166.612 422.243 166.393 422.136 166.148 422.072C165.902 422.008 165.577 421.976 165.172 421.976C164.436 421.976 163.86 422.221 163.444 422.712C163.028 423.192 162.82 423.965 162.82 425.032C162.82 425.469 162.852 425.875 162.916 426.248C162.99 426.621 163.108 426.941 163.268 427.208C163.428 427.475 163.636 427.688 163.892 427.848C164.158 427.997 164.478 428.072 164.852 428.072ZM170.965 421H172.245V429.432C172.245 430.424 172.074 431.165 171.733 431.656C171.392 432.147 170.848 432.392 170.101 432.392C170.016 432.392 169.936 432.387 169.861 432.376C169.786 432.376 169.706 432.371 169.621 432.36V431.272C169.92 431.272 170.154 431.224 170.325 431.128C170.506 431.043 170.645 430.904 170.741 430.712C170.837 430.52 170.896 430.275 170.917 429.976C170.949 429.688 170.965 429.347 170.965 428.952V421ZM170.693 418.568C170.693 418.323 170.773 418.115 170.933 417.944C171.104 417.763 171.317 417.672 171.573 417.672C171.829 417.672 172.048 417.763 172.229 417.944C172.41 418.115 172.501 418.323 172.501 418.568C172.501 418.813 172.41 419.016 172.229 419.176C172.048 419.336 171.829 419.416 171.573 419.416C171.317 419.416 171.104 419.336 170.933 419.176C170.773 419.016 170.693 418.813 170.693 418.568ZM175.006 421.592C175.412 421.347 175.881 421.165 176.414 421.048C176.958 420.931 177.524 420.872 178.11 420.872C178.665 420.872 179.108 420.947 179.438 421.096C179.78 421.245 180.036 421.443 180.206 421.688C180.388 421.923 180.505 422.184 180.558 422.472C180.622 422.76 180.654 423.048 180.654 423.336C180.654 423.976 180.638 424.6 180.606 425.208C180.574 425.816 180.558 426.392 180.558 426.936C180.558 427.331 180.574 427.704 180.606 428.056C180.638 428.408 180.697 428.733 180.782 429.032H179.838L179.502 427.912H179.422C179.326 428.061 179.204 428.211 179.054 428.36C178.916 428.499 178.745 428.627 178.542 428.744C178.34 428.851 178.105 428.941 177.838 429.016C177.572 429.091 177.268 429.128 176.926 429.128C176.585 429.128 176.265 429.075 175.966 428.968C175.678 428.861 175.428 428.712 175.214 428.52C175.001 428.317 174.83 428.077 174.702 427.8C174.585 427.523 174.526 427.208 174.526 426.856C174.526 426.387 174.622 425.997 174.814 425.688C175.006 425.368 175.273 425.117 175.614 424.936C175.966 424.744 176.382 424.611 176.862 424.536C177.353 424.451 177.892 424.408 178.478 424.408C178.628 424.408 178.772 424.408 178.91 424.408C179.06 424.408 179.209 424.419 179.358 424.44C179.39 424.12 179.406 423.832 179.406 423.576C179.406 422.989 179.289 422.579 179.054 422.344C178.82 422.109 178.393 421.992 177.774 421.992C177.593 421.992 177.396 422.008 177.182 422.04C176.98 422.061 176.766 422.099 176.542 422.152C176.329 422.195 176.121 422.253 175.918 422.328C175.726 422.392 175.556 422.467 175.406 422.552L175.006 421.592ZM177.278 428.008C177.577 428.008 177.844 427.971 178.078 427.896C178.313 427.811 178.516 427.709 178.686 427.592C178.857 427.464 178.996 427.325 179.102 427.176C179.22 427.027 179.305 426.883 179.358 426.744V425.416C179.209 425.405 179.054 425.4 178.894 425.4C178.745 425.389 178.596 425.384 178.446 425.384C178.116 425.384 177.79 425.405 177.47 425.448C177.161 425.48 176.884 425.549 176.638 425.656C176.404 425.752 176.212 425.891 176.062 426.072C175.924 426.243 175.854 426.461 175.854 426.728C175.854 427.101 175.988 427.411 176.254 427.656C176.521 427.891 176.862 428.008 177.278 428.008Z" fill="#4F4F4F"/>
<path d="M83 370.613V127.674H331V370.613" stroke="#828282" stroke-width="4"/>
<path d="M579 370.613V127.674H827V370.613" stroke="#828282" stroke-width="4"/>
<path d="M331 370.613V127.674H579V370.613" stroke="#828282" stroke-width="4"/>
<path d="M827 370.613V127.674H1075V370.613" stroke="#828282" stroke-width="4"/>
<rect x="93.1211" y="140.328" width="49.3469" height="189.796" fill="#DFDDE2"/>
<rect x="589.121" y="140.328" width="49.3469" height="137.918" fill="#DFDDE2"/>
<rect x="341.121" y="140.328" width="49.3469" height="189.796" fill="#DFDDE2"/>
<rect x="837.121" y="140.328" width="49.3469" height="137.918" fill="#DFDDE2"/>
<rect x="152.594" y="140.328" width="49.3469" height="221.429" fill="#EFE8DF"/>
<rect x="648.594" y="140.328" width="49.3469" height="169.551" fill="#EFE8DF"/>
<rect x="400.594" y="140.328" width="49.3469" height="137.918" fill="#EFE8DF"/>
<rect x="896.594" y="140.328" width="49.3469" height="137.918" fill="#EFE8DF"/>
<rect x="271.531" y="140.328" width="49.3469" height="169.551" fill="#D9DFE9"/>
<rect x="767.531" y="140.328" width="49.3469" height="169.551" fill="#D9DFE9"/>
<rect x="519.531" y="140.328" width="49.3469" height="137.918" fill="#D9DFE9"/>
<rect x="1015.53" y="140.328" width="49.3469" height="137.918" fill="#D9DFE9"/>
<rect x="212.062" y="140.328" width="49.3469" height="197.388" fill="#EDE3E4"/>
<rect x="708.059" y="140.328" width="49.3469" height="197.388" fill="#EDE3E4"/>
<rect x="460.062" y="140.328" width="49.3469" height="221.429" fill="#EDE3E4"/>
<rect x="956.059" y="140.328" width="49.3469" height="169.551" fill="#EDE3E4"/>
<path d="M145.9 99.2L145.972 104H144.076L144.148 99.368L144.076 88.616H145.996L145.9 99.2ZM148.276 95.84C150.404 98.592 152.628 101.176 154.948 103.592L154.924 103.832C154.444 103.976 153.844 104.104 153.124 104.216L152.884 104.096C150.356 101.232 148.148 98.512 146.26 95.936V95.792L151.396 89.96L152.356 88.616H154.516L148.276 95.84ZM157.167 98.432V98.48C157.167 99.824 157.471 100.856 158.079 101.576C158.687 102.296 159.551 102.656 160.671 102.656C161.231 102.656 161.791 102.568 162.351 102.392C162.911 102.2 163.423 101.936 163.887 101.6L164.079 101.744L163.791 103.376C162.671 103.92 161.551 104.192 160.431 104.192C158.863 104.192 157.631 103.696 156.735 102.704C155.839 101.696 155.391 100.32 155.391 98.576C155.391 96.816 155.839 95.416 156.735 94.376C157.631 93.336 158.839 92.816 160.359 92.816C161.639 92.816 162.631 93.184 163.335 93.92C164.039 94.64 164.391 95.648 164.391 96.944C164.391 97.376 164.359 97.784 164.295 98.168L164.055 98.408L157.167 98.432ZM160.359 94.16C159.559 94.16 158.887 94.424 158.343 94.952C157.815 95.464 157.463 96.192 157.287 97.136L162.591 97.04L162.639 96.704C162.639 95.888 162.439 95.264 162.039 94.832C161.655 94.384 161.095 94.16 160.359 94.16ZM167.821 94.352L170.461 101.936H170.629L173.365 94.52L173.725 93.008H175.429L171.493 103.616C171.093 104.704 170.661 105.56 170.197 106.184C169.749 106.808 169.197 107.296 168.541 107.648C167.901 108.016 167.053 108.328 165.997 108.584H165.829C165.493 108.248 165.229 107.872 165.037 107.456L165.085 107.24C166.301 107 167.229 106.656 167.869 106.208C168.525 105.776 169.133 105.04 169.693 104L165.661 93.056L167.461 92.936L167.821 94.352ZM197.12 104H195.392L195.032 99.32L194.216 91.664H194.048L189.776 102.224H188.192L184.136 91.664H183.944L183.128 99.176L182.72 104H181.088L182.696 88.616H184.88L185.672 90.968L189.008 99.728H189.152L192.656 90.824L193.448 88.616H195.608L197.12 104ZM204.141 92.816C205.629 92.816 206.781 93.304 207.597 94.28C208.429 95.24 208.845 96.6 208.845 98.36C208.845 100.216 208.413 101.656 207.549 102.68C206.685 103.688 205.453 104.192 203.853 104.192C202.349 104.192 201.181 103.712 200.349 102.752C199.533 101.776 199.125 100.408 199.125 98.648C199.125 96.792 199.557 95.36 200.421 94.352C201.301 93.328 202.541 92.816 204.141 92.816ZM204.021 94.16C203.013 94.16 202.245 94.504 201.717 95.192C201.189 95.88 200.925 96.888 200.925 98.216C200.925 99.752 201.181 100.904 201.693 101.672C202.221 102.44 202.981 102.824 203.973 102.824C204.981 102.824 205.749 102.488 206.277 101.816C206.805 101.144 207.069 100.136 207.069 98.792C207.069 97.272 206.805 96.12 206.277 95.336C205.765 94.552 205.013 94.16 204.021 94.16ZM225.344 96.536C225.36 95.88 225.208 95.368 224.888 95C224.568 94.632 224.096 94.448 223.472 94.448C222.448 94.448 221.384 95 220.28 96.104L220.232 99.224L220.328 104H218.384L218.528 96.536C218.544 95.88 218.392 95.368 218.072 95C217.752 94.632 217.28 94.448 216.656 94.448C215.648 94.448 214.56 95.016 213.392 96.152V99.176L213.488 104H211.592L211.712 99.344L211.616 93.128L213.416 92.96V94.568H213.56C214.552 93.688 215.568 93.12 216.608 92.864C217.504 92.864 218.24 93.024 218.816 93.344C219.392 93.648 219.8 94.096 220.04 94.688H220.184C221.192 93.776 222.272 93.168 223.424 92.864C224.64 92.864 225.56 93.144 226.184 93.704C226.808 94.264 227.112 95.064 227.096 96.104L227.048 99.224L227.144 104H225.224L225.344 96.536ZM231.651 98.432V98.48C231.651 99.824 231.955 100.856 232.563 101.576C233.171 102.296 234.035 102.656 235.155 102.656C235.715 102.656 236.275 102.568 236.835 102.392C237.395 102.2 237.907 101.936 238.371 101.6L238.563 101.744L238.275 103.376C237.155 103.92 236.035 104.192 234.915 104.192C233.347 104.192 232.115 103.696 231.219 102.704C230.323 101.696 229.875 100.32 229.875 98.576C229.875 96.816 230.323 95.416 231.219 94.376C232.115 93.336 233.323 92.816 234.843 92.816C236.123 92.816 237.115 93.184 237.819 93.92C238.523 94.64 238.875 95.648 238.875 96.944C238.875 97.376 238.843 97.784 238.779 98.168L238.539 98.408L231.651 98.432ZM234.843 94.16C234.043 94.16 233.371 94.424 232.827 94.952C232.299 95.464 231.947 96.192 231.771 97.136L237.075 97.04L237.123 96.704C237.123 95.888 236.923 95.264 236.523 94.832C236.139 94.384 235.579 94.16 234.843 94.16ZM248.786 96.536C248.802 95.88 248.65 95.368 248.33 95C248.01 94.632 247.538 94.448 246.914 94.448C245.906 94.448 244.818 95.016 243.65 96.152V99.176L243.746 104H241.85L241.97 99.344L241.874 93.128L243.674 92.96V94.568H243.818C244.81 93.688 245.826 93.12 246.866 92.864C248.066 92.864 248.978 93.144 249.602 93.704C250.242 94.264 250.554 95.064 250.538 96.104L250.49 99.224L250.586 104H248.666L248.786 96.536ZM257.681 102.536C258.209 102.536 258.785 102.376 259.409 102.056L259.625 102.2L259.433 103.448C258.569 103.848 257.769 104.08 257.033 104.144C256.121 103.968 255.465 103.632 255.065 103.136C254.665 102.64 254.465 101.92 254.465 100.976L254.537 99.272L254.513 94.304H253.001L252.905 94.16L253.025 93.032H254.489V91.256L256.145 90.536L256.337 90.704L256.289 93.032H259.553L259.649 93.176L259.529 94.304H256.289L256.169 100.808C256.153 101.448 256.265 101.896 256.505 102.152C256.745 102.408 257.137 102.536 257.681 102.536ZM269.33 92.144L269.21 99.032L269.306 104H267.386L267.506 99.272L267.482 94.136L264.386 95L264.194 94.904V93.392L269.042 91.952L269.33 92.144Z" fill="black"/>
<path d="M641.08 99.2L641.152 104H639.256L639.328 99.368L639.256 88.616H641.176L641.08 99.2ZM643.456 95.84C645.584 98.592 647.808 101.176 650.128 103.592L650.104 103.832C649.624 103.976 649.024 104.104 648.304 104.216L648.064 104.096C645.536 101.232 643.328 98.512 641.44 95.936V95.792L646.576 89.96L647.536 88.616H649.696L643.456 95.84ZM652.347 98.432V98.48C652.347 99.824 652.651 100.856 653.259 101.576C653.867 102.296 654.731 102.656 655.851 102.656C656.411 102.656 656.971 102.568 657.531 102.392C658.091 102.2 658.603 101.936 659.067 101.6L659.259 101.744L658.971 103.376C657.851 103.92 656.731 104.192 655.611 104.192C654.043 104.192 652.811 103.696 651.915 102.704C651.019 101.696 650.571 100.32 650.571 98.576C650.571 96.816 651.019 95.416 651.915 94.376C652.811 93.336 654.019 92.816 655.539 92.816C656.819 92.816 657.811 93.184 658.515 93.92C659.219 94.64 659.571 95.648 659.571 96.944C659.571 97.376 659.539 97.784 659.475 98.168L659.235 98.408L652.347 98.432ZM655.539 94.16C654.739 94.16 654.067 94.424 653.523 94.952C652.995 95.464 652.643 96.192 652.467 97.136L657.771 97.04L657.819 96.704C657.819 95.888 657.619 95.264 657.219 94.832C656.835 94.384 656.275 94.16 655.539 94.16ZM663.001 94.352L665.641 101.936H665.809L668.545 94.52L668.905 93.008H670.609L666.673 103.616C666.273 104.704 665.841 105.56 665.377 106.184C664.929 106.808 664.377 107.296 663.721 107.648C663.081 108.016 662.233 108.328 661.177 108.584H661.009C660.673 108.248 660.409 107.872 660.217 107.456L660.265 107.24C661.481 107 662.409 106.656 663.049 106.208C663.705 105.776 664.313 105.04 664.873 104L660.841 93.056L662.641 92.936L663.001 94.352ZM692.3 104H690.572L690.212 99.32L689.396 91.664H689.228L684.956 102.224H683.372L679.316 91.664H679.124L678.308 99.176L677.9 104H676.268L677.876 88.616H680.06L680.852 90.968L684.188 99.728H684.332L687.836 90.824L688.628 88.616H690.788L692.3 104ZM699.321 92.816C700.809 92.816 701.961 93.304 702.777 94.28C703.609 95.24 704.025 96.6 704.025 98.36C704.025 100.216 703.593 101.656 702.729 102.68C701.865 103.688 700.633 104.192 699.033 104.192C697.529 104.192 696.361 103.712 695.529 102.752C694.713 101.776 694.305 100.408 694.305 98.648C694.305 96.792 694.737 95.36 695.601 94.352C696.481 93.328 697.721 92.816 699.321 92.816ZM699.201 94.16C698.193 94.16 697.425 94.504 696.897 95.192C696.369 95.88 696.105 96.888 696.105 98.216C696.105 99.752 696.361 100.904 696.873 101.672C697.401 102.44 698.161 102.824 699.153 102.824C700.161 102.824 700.929 102.488 701.457 101.816C701.985 101.144 702.249 100.136 702.249 98.792C702.249 97.272 701.985 96.12 701.457 95.336C700.945 94.552 700.193 94.16 699.201 94.16ZM720.524 96.536C720.54 95.88 720.388 95.368 720.068 95C719.748 94.632 719.276 94.448 718.652 94.448C717.628 94.448 716.564 95 715.46 96.104L715.412 99.224L715.508 104H713.564L713.708 96.536C713.724 95.88 713.572 95.368 713.252 95C712.932 94.632 712.46 94.448 711.836 94.448C710.828 94.448 709.74 95.016 708.572 96.152V99.176L708.668 104H706.772L706.892 99.344L706.796 93.128L708.596 92.96V94.568H708.74C709.732 93.688 710.748 93.12 711.788 92.864C712.684 92.864 713.42 93.024 713.996 93.344C714.572 93.648 714.98 94.096 715.22 94.688H715.364C716.372 93.776 717.452 93.168 718.604 92.864C719.82 92.864 720.74 93.144 721.364 93.704C721.988 94.264 722.292 95.064 722.276 96.104L722.228 99.224L722.324 104H720.404L720.524 96.536ZM726.831 98.432V98.48C726.831 99.824 727.135 100.856 727.743 101.576C728.351 102.296 729.215 102.656 730.335 102.656C730.895 102.656 731.455 102.568 732.015 102.392C732.575 102.2 733.087 101.936 733.551 101.6L733.743 101.744L733.455 103.376C732.335 103.92 731.215 104.192 730.095 104.192C728.527 104.192 727.295 103.696 726.399 102.704C725.503 101.696 725.055 100.32 725.055 98.576C725.055 96.816 725.503 95.416 726.399 94.376C727.295 93.336 728.503 92.816 730.023 92.816C731.303 92.816 732.295 93.184 732.999 93.92C733.703 94.64 734.055 95.648 734.055 96.944C734.055 97.376 734.023 97.784 733.959 98.168L733.719 98.408L726.831 98.432ZM730.023 94.16C729.223 94.16 728.551 94.424 728.007 94.952C727.479 95.464 727.127 96.192 726.951 97.136L732.255 97.04L732.303 96.704C732.303 95.888 732.103 95.264 731.703 94.832C731.319 94.384 730.759 94.16 730.023 94.16ZM743.965 96.536C743.981 95.88 743.829 95.368 743.509 95C743.189 94.632 742.717 94.448 742.093 94.448C741.085 94.448 739.997 95.016 738.829 96.152V99.176L738.925 104H737.029L737.149 99.344L737.053 93.128L738.853 92.96V94.568H738.997C739.989 93.688 741.005 93.12 742.045 92.864C743.245 92.864 744.157 93.144 744.781 93.704C745.421 94.264 745.733 95.064 745.717 96.104L745.669 99.224L745.765 104H743.845L743.965 96.536ZM752.86 102.536C753.388 102.536 753.964 102.376 754.588 102.056L754.804 102.2L754.612 103.448C753.748 103.848 752.948 104.08 752.212 104.144C751.3 103.968 750.644 103.632 750.244 103.136C749.844 102.64 749.644 101.92 749.644 100.976L749.716 99.272L749.692 94.304H748.18L748.084 94.16L748.204 93.032H749.668V91.256L751.324 90.536L751.516 90.704L751.468 93.032H754.732L754.828 93.176L754.708 94.304H751.468L751.348 100.808C751.332 101.448 751.444 101.896 751.684 102.152C751.924 102.408 752.316 102.536 752.86 102.536ZM763.693 91.928C764.781 91.928 765.661 92.216 766.333 92.792C767.005 93.352 767.341 94.08 767.341 94.976C767.341 95.664 767.133 96.328 766.717 96.968C766.317 97.608 765.725 98.128 764.941 98.528V98.624C765.901 98.848 766.629 99.232 767.125 99.776C767.621 100.32 767.869 101 767.869 101.816C767.869 102.696 767.637 103.48 767.173 104.168C766.725 104.856 766.085 105.384 765.253 105.752C764.421 106.136 763.469 106.328 762.397 106.328C761.661 106.328 760.877 106.256 760.045 106.112L759.925 104.48L760.069 104.36C760.821 104.68 761.637 104.84 762.517 104.84C763.573 104.84 764.429 104.584 765.085 104.072C765.741 103.576 766.069 102.904 766.069 102.056C766.069 101.304 765.797 100.712 765.253 100.28C764.725 99.848 763.965 99.616 762.973 99.584H761.557L761.437 99.44L761.485 98.12L762.541 98.096C762.973 98.096 763.413 97.976 763.861 97.736C764.309 97.496 764.677 97.168 764.965 96.752C765.269 96.336 765.421 95.88 765.421 95.384C765.421 94.808 765.229 94.352 764.845 94.016C764.461 93.68 763.957 93.512 763.333 93.512C762.837 93.512 762.349 93.632 761.869 93.872C761.405 94.096 760.901 94.448 760.357 94.928H760.141L759.853 93.416C761.053 92.424 762.333 91.928 763.693 91.928Z" fill="black"/>
<path d="M392.564 99.2L392.636 104H390.74L390.812 99.368L390.74 88.616H392.66L392.564 99.2ZM394.94 95.84C397.068 98.592 399.292 101.176 401.612 103.592L401.588 103.832C401.108 103.976 400.508 104.104 399.788 104.216L399.548 104.096C397.02 101.232 394.812 98.512 392.924 95.936V95.792L398.06 89.96L399.02 88.616H401.18L394.94 95.84ZM403.831 98.432V98.48C403.831 99.824 404.135 100.856 404.743 101.576C405.351 102.296 406.215 102.656 407.335 102.656C407.895 102.656 408.455 102.568 409.015 102.392C409.575 102.2 410.087 101.936 410.551 101.6L410.743 101.744L410.455 103.376C409.335 103.92 408.215 104.192 407.095 104.192C405.527 104.192 404.295 103.696 403.399 102.704C402.503 101.696 402.055 100.32 402.055 98.576C402.055 96.816 402.503 95.416 403.399 94.376C404.295 93.336 405.503 92.816 407.023 92.816C408.303 92.816 409.295 93.184 409.999 93.92C410.703 94.64 411.055 95.648 411.055 96.944C411.055 97.376 411.023 97.784 410.959 98.168L410.719 98.408L403.831 98.432ZM407.023 94.16C406.223 94.16 405.551 94.424 405.007 94.952C404.479 95.464 404.127 96.192 403.951 97.136L409.255 97.04L409.303 96.704C409.303 95.888 409.103 95.264 408.703 94.832C408.319 94.384 407.759 94.16 407.023 94.16ZM414.485 94.352L417.125 101.936H417.293L420.029 94.52L420.389 93.008H422.093L418.157 103.616C417.757 104.704 417.325 105.56 416.861 106.184C416.413 106.808 415.861 107.296 415.205 107.648C414.565 108.016 413.717 108.328 412.661 108.584H412.493C412.157 108.248 411.893 107.872 411.701 107.456L411.749 107.24C412.965 107 413.893 106.656 414.533 106.208C415.189 105.776 415.797 105.04 416.357 104L412.325 93.056L414.125 92.936L414.485 94.352ZM443.785 104H442.057L441.697 99.32L440.881 91.664H440.713L436.441 102.224H434.857L430.801 91.664H430.609L429.793 99.176L429.385 104H427.753L429.361 88.616H431.545L432.337 90.968L435.673 99.728H435.817L439.321 90.824L440.113 88.616H442.273L443.785 104ZM450.805 92.816C452.293 92.816 453.445 93.304 454.261 94.28C455.093 95.24 455.509 96.6 455.509 98.36C455.509 100.216 455.077 101.656 454.213 102.68C453.349 103.688 452.117 104.192 450.517 104.192C449.013 104.192 447.845 103.712 447.013 102.752C446.197 101.776 445.789 100.408 445.789 98.648C445.789 96.792 446.221 95.36 447.085 94.352C447.965 93.328 449.205 92.816 450.805 92.816ZM450.685 94.16C449.677 94.16 448.909 94.504 448.381 95.192C447.853 95.88 447.589 96.888 447.589 98.216C447.589 99.752 447.845 100.904 448.357 101.672C448.885 102.44 449.645 102.824 450.637 102.824C451.645 102.824 452.413 102.488 452.941 101.816C453.469 101.144 453.733 100.136 453.733 98.792C453.733 97.272 453.469 96.12 452.941 95.336C452.429 94.552 451.677 94.16 450.685 94.16ZM472.008 96.536C472.024 95.88 471.872 95.368 471.552 95C471.232 94.632 470.76 94.448 470.136 94.448C469.112 94.448 468.048 95 466.944 96.104L466.896 99.224L466.992 104H465.048L465.192 96.536C465.208 95.88 465.056 95.368 464.736 95C464.416 94.632 463.944 94.448 463.32 94.448C462.312 94.448 461.224 95.016 460.056 96.152V99.176L460.152 104H458.256L458.376 99.344L458.28 93.128L460.08 92.96V94.568H460.224C461.216 93.688 462.232 93.12 463.272 92.864C464.168 92.864 464.904 93.024 465.48 93.344C466.056 93.648 466.464 94.096 466.704 94.688H466.848C467.856 93.776 468.936 93.168 470.088 92.864C471.304 92.864 472.224 93.144 472.848 93.704C473.472 94.264 473.776 95.064 473.76 96.104L473.712 99.224L473.808 104H471.888L472.008 96.536ZM478.315 98.432V98.48C478.315 99.824 478.619 100.856 479.227 101.576C479.835 102.296 480.699 102.656 481.819 102.656C482.379 102.656 482.939 102.568 483.499 102.392C484.059 102.2 484.571 101.936 485.035 101.6L485.227 101.744L484.939 103.376C483.819 103.92 482.699 104.192 481.579 104.192C480.011 104.192 478.779 103.696 477.883 102.704C476.987 101.696 476.539 100.32 476.539 98.576C476.539 96.816 476.987 95.416 477.883 94.376C478.779 93.336 479.987 92.816 481.507 92.816C482.787 92.816 483.779 93.184 484.483 93.92C485.187 94.64 485.539 95.648 485.539 96.944C485.539 97.376 485.507 97.784 485.443 98.168L485.203 98.408L478.315 98.432ZM481.507 94.16C480.707 94.16 480.035 94.424 479.491 94.952C478.963 95.464 478.611 96.192 478.435 97.136L483.739 97.04L483.787 96.704C483.787 95.888 483.587 95.264 483.187 94.832C482.803 94.384 482.243 94.16 481.507 94.16ZM495.45 96.536C495.466 95.88 495.314 95.368 494.994 95C494.674 94.632 494.202 94.448 493.578 94.448C492.57 94.448 491.482 95.016 490.314 96.152V99.176L490.41 104H488.514L488.634 99.344L488.538 93.128L490.338 92.96V94.568H490.482C491.474 93.688 492.49 93.12 493.53 92.864C494.73 92.864 495.642 93.144 496.266 93.704C496.906 94.264 497.218 95.064 497.202 96.104L497.154 99.224L497.25 104H495.33L495.45 96.536ZM504.345 102.536C504.873 102.536 505.449 102.376 506.073 102.056L506.289 102.2L506.097 103.448C505.233 103.848 504.433 104.08 503.697 104.144C502.785 103.968 502.129 103.632 501.729 103.136C501.329 102.64 501.129 101.92 501.129 100.976L501.201 99.272L501.177 94.304H499.665L499.569 94.16L499.689 93.032H501.153V91.256L502.809 90.536L503.001 90.704L502.953 93.032H506.217L506.313 93.176L506.193 94.304H502.953L502.833 100.808C502.817 101.448 502.929 101.896 503.169 102.152C503.409 102.408 503.801 102.536 504.345 102.536ZM516.114 91.952C517.074 91.952 517.858 92.2 518.466 92.696C519.09 93.176 519.402 93.816 519.402 94.616C519.402 95.256 519.178 95.976 518.73 96.776C518.282 97.56 517.57 98.52 516.594 99.656L514.17 102.416L514.218 102.512H518.658L520.674 102.368L520.818 102.488L520.554 104.096L518.106 104H512.73L511.842 104.048L511.722 103.952V102.752L515.058 99.128C515.922 98.168 516.554 97.376 516.954 96.752C517.354 96.112 517.554 95.552 517.554 95.072C517.554 94.64 517.394 94.288 517.074 94.016C516.754 93.728 516.306 93.584 515.73 93.584C515.154 93.584 514.578 93.728 514.002 94.016C513.442 94.304 512.93 94.704 512.466 95.216H512.226L511.914 93.752C512.538 93.176 513.21 92.736 513.93 92.432C514.65 92.112 515.378 91.952 516.114 91.952Z" fill="black"/>
<path d="M888.248 99.2L888.32 104H886.424L886.496 99.368L886.424 88.616H888.344L888.248 99.2ZM890.624 95.84C892.752 98.592 894.976 101.176 897.296 103.592L897.272 103.832C896.792 103.976 896.192 104.104 895.472 104.216L895.232 104.096C892.704 101.232 890.496 98.512 888.608 95.936V95.792L893.744 89.96L894.704 88.616H896.864L890.624 95.84ZM899.514 98.432V98.48C899.514 99.824 899.818 100.856 900.426 101.576C901.034 102.296 901.898 102.656 903.018 102.656C903.578 102.656 904.138 102.568 904.698 102.392C905.258 102.2 905.77 101.936 906.234 101.6L906.426 101.744L906.138 103.376C905.018 103.92 903.898 104.192 902.778 104.192C901.21 104.192 899.978 103.696 899.082 102.704C898.186 101.696 897.738 100.32 897.738 98.576C897.738 96.816 898.186 95.416 899.082 94.376C899.978 93.336 901.186 92.816 902.706 92.816C903.986 92.816 904.978 93.184 905.682 93.92C906.386 94.64 906.738 95.648 906.738 96.944C906.738 97.376 906.706 97.784 906.642 98.168L906.402 98.408L899.514 98.432ZM902.706 94.16C901.906 94.16 901.234 94.424 900.69 94.952C900.162 95.464 899.81 96.192 899.634 97.136L904.938 97.04L904.986 96.704C904.986 95.888 904.786 95.264 904.386 94.832C904.002 94.384 903.442 94.16 902.706 94.16ZM910.169 94.352L912.809 101.936H912.977L915.713 94.52L916.073 93.008H917.777L913.841 103.616C913.441 104.704 913.009 105.56 912.545 106.184C912.097 106.808 911.545 107.296 910.889 107.648C910.249 108.016 909.401 108.328 908.345 108.584H908.177C907.841 108.248 907.577 107.872 907.385 107.456L907.433 107.24C908.649 107 909.577 106.656 910.217 106.208C910.873 105.776 911.481 105.04 912.041 104L908.009 93.056L909.809 92.936L910.169 94.352ZM939.468 104H937.74L937.38 99.32L936.564 91.664H936.396L932.124 102.224H930.54L926.484 91.664H926.292L925.476 99.176L925.068 104H923.436L925.044 88.616H927.228L928.02 90.968L931.356 99.728H931.5L935.004 90.824L935.796 88.616H937.956L939.468 104ZM946.489 92.816C947.977 92.816 949.129 93.304 949.945 94.28C950.777 95.24 951.193 96.6 951.193 98.36C951.193 100.216 950.761 101.656 949.897 102.68C949.033 103.688 947.801 104.192 946.201 104.192C944.697 104.192 943.529 103.712 942.697 102.752C941.881 101.776 941.473 100.408 941.473 98.648C941.473 96.792 941.905 95.36 942.769 94.352C943.649 93.328 944.889 92.816 946.489 92.816ZM946.369 94.16C945.361 94.16 944.593 94.504 944.065 95.192C943.537 95.88 943.273 96.888 943.273 98.216C943.273 99.752 943.529 100.904 944.041 101.672C944.569 102.44 945.329 102.824 946.321 102.824C947.329 102.824 948.097 102.488 948.625 101.816C949.153 101.144 949.417 100.136 949.417 98.792C949.417 97.272 949.153 96.12 948.625 95.336C948.113 94.552 947.361 94.16 946.369 94.16ZM967.692 96.536C967.708 95.88 967.556 95.368 967.236 95C966.916 94.632 966.444 94.448 965.82 94.448C964.796 94.448 963.732 95 962.628 96.104L962.58 99.224L962.676 104H960.732L960.876 96.536C960.892 95.88 960.74 95.368 960.42 95C960.1 94.632 959.628 94.448 959.004 94.448C957.996 94.448 956.908 95.016 955.74 96.152V99.176L955.836 104H953.94L954.06 99.344L953.964 93.128L955.764 92.96V94.568H955.908C956.9 93.688 957.916 93.12 958.956 92.864C959.852 92.864 960.588 93.024 961.164 93.344C961.74 93.648 962.148 94.096 962.388 94.688H962.532C963.54 93.776 964.62 93.168 965.772 92.864C966.988 92.864 967.908 93.144 968.532 93.704C969.156 94.264 969.46 95.064 969.444 96.104L969.396 99.224L969.492 104H967.572L967.692 96.536ZM973.999 98.432V98.48C973.999 99.824 974.303 100.856 974.911 101.576C975.519 102.296 976.383 102.656 977.503 102.656C978.063 102.656 978.623 102.568 979.183 102.392C979.743 102.2 980.255 101.936 980.719 101.6L980.911 101.744L980.623 103.376C979.503 103.92 978.383 104.192 977.263 104.192C975.695 104.192 974.463 103.696 973.567 102.704C972.671 101.696 972.223 100.32 972.223 98.576C972.223 96.816 972.671 95.416 973.567 94.376C974.463 93.336 975.671 92.816 977.191 92.816C978.471 92.816 979.463 93.184 980.167 93.92C980.871 94.64 981.223 95.648 981.223 96.944C981.223 97.376 981.191 97.784 981.127 98.168L980.887 98.408L973.999 98.432ZM977.191 94.16C976.391 94.16 975.719 94.424 975.175 94.952C974.647 95.464 974.295 96.192 974.119 97.136L979.423 97.04L979.471 96.704C979.471 95.888 979.271 95.264 978.871 94.832C978.487 94.384 977.927 94.16 977.191 94.16ZM991.133 96.536C991.149 95.88 990.997 95.368 990.677 95C990.357 94.632 989.885 94.448 989.261 94.448C988.253 94.448 987.165 95.016 985.997 96.152V99.176L986.093 104H984.197L984.317 99.344L984.221 93.128L986.021 92.96V94.568H986.165C987.157 93.688 988.173 93.12 989.213 92.864C990.413 92.864 991.325 93.144 991.949 93.704C992.589 94.264 992.901 95.064 992.885 96.104L992.837 99.224L992.933 104H991.013L991.133 96.536ZM1000.03 102.536C1000.56 102.536 1001.13 102.376 1001.76 102.056L1001.97 102.2L1001.78 103.448C1000.92 103.848 1000.12 104.08 999.38 104.144C998.468 103.968 997.812 103.632 997.412 103.136C997.012 102.64 996.812 101.92 996.812 100.976L996.884 99.272L996.86 94.304H995.348L995.252 94.16L995.372 93.032H996.836V91.256L998.492 90.536L998.684 90.704L998.636 93.032H1001.9L1002 93.176L1001.88 94.304H998.636L998.516 100.808C998.5 101.448 998.612 101.896 998.852 102.152C999.092 102.408 999.484 102.536 1000.03 102.536ZM1014.73 102.152H1014.68L1014.75 106.064L1014.63 106.208L1013.19 106.328L1013.07 106.184L1013.12 102.152H1008.63L1007.05 102.2L1006.93 102.008V100.784L1012.95 92.048H1014.7L1014.65 100.664H1016.91L1017.05 100.856L1016.93 102.2L1014.73 102.152ZM1013.14 100.664V94.352H1012.97L1008.61 100.664H1013.14Z" fill="black"/>
<path d="M107.101 274.798C107.101 273.154 107.569 271.894 108.505 271.018C109.441 270.142 110.785 269.704 112.537 269.704C114.565 269.704 116.119 270.178 117.199 271.126C118.279 272.074 118.819 273.436 118.819 275.212C118.819 275.704 118.807 276.304 118.783 277.012C118.771 277.708 118.747 278.356 118.711 278.956L118.711 278.974L115.237 278.884L107.173 278.974L107.173 278.956L107.101 274.798ZM117.613 274.978C117.613 273.754 117.217 272.818 116.425 272.17C115.621 271.51 114.427 271.18 112.843 271.18C109.819 271.18 108.307 272.422 108.307 274.906C108.307 275.662 108.331 276.532 108.379 277.516L115.111 277.588L117.505 277.534C117.541 277.162 117.571 276.718 117.595 276.202C117.607 275.674 117.613 275.266 117.613 274.978ZM110.323 264.854C110.323 264.074 110.515 263.462 110.899 263.018C111.283 262.562 111.811 262.334 112.483 262.334C112.687 262.334 113.425 262.37 114.697 262.442C115.969 262.514 116.713 262.55 116.929 262.55C117.193 262.55 117.379 262.508 117.487 262.424C117.583 262.34 117.631 262.196 117.631 261.992C117.631 261.812 117.595 261.608 117.523 261.38L117.649 261.236L118.459 261.38C118.663 261.728 118.783 262.07 118.819 262.406C118.783 262.778 118.651 263.078 118.423 263.306C118.195 263.522 117.883 263.636 117.487 263.648L117.487 263.774C118.147 264.422 118.597 265.064 118.837 265.7C118.837 266.504 118.639 267.134 118.243 267.59C117.835 268.034 117.283 268.256 116.587 268.256C116.059 268.256 115.639 268.118 115.327 267.842C115.015 267.554 114.793 267.134 114.661 266.582L113.977 263.666L112.807 263.648C112.339 263.648 111.979 263.774 111.727 264.026C111.475 264.266 111.349 264.614 111.349 265.07C111.349 265.478 111.445 265.886 111.637 266.294C111.829 266.702 112.129 267.14 112.537 267.608L112.465 267.752L111.439 267.932C110.695 266.936 110.323 265.91 110.323 264.854ZM115.525 266.294C115.597 266.534 115.699 266.708 115.831 266.816C115.951 266.924 116.137 266.978 116.389 266.978C116.785 266.978 117.097 266.87 117.325 266.654C117.541 266.426 117.649 266.126 117.649 265.754C117.649 265.094 117.223 264.422 116.371 263.738L114.895 263.684L115.525 266.294ZM117.613 256.665C117.613 256.269 117.493 255.837 117.253 255.369L117.361 255.207L118.297 255.351C118.597 255.999 118.771 256.599 118.819 257.151C118.687 257.835 118.435 258.327 118.063 258.627C117.691 258.927 117.151 259.077 116.443 259.077L115.165 259.023L111.439 259.041L111.439 260.175L111.331 260.247L110.485 260.157L110.485 259.059L109.153 259.059L108.613 257.817L108.739 257.673L110.485 257.709L110.485 255.261L110.593 255.189L111.439 255.279L111.439 257.709L116.317 257.799C116.797 257.811 117.133 257.727 117.325 257.547C117.517 257.367 117.613 257.073 117.613 256.665ZM110.323 250.791C110.323 250.011 110.515 249.399 110.899 248.955C111.283 248.499 111.811 248.271 112.483 248.271C112.687 248.271 113.425 248.307 114.697 248.379C115.969 248.451 116.713 248.487 116.929 248.487C117.193 248.487 117.379 248.445 117.487 248.361C117.583 248.277 117.631 248.133 117.631 247.929C117.631 247.749 117.595 247.545 117.523 247.317L117.649 247.173L118.459 247.317C118.663 247.665 118.783 248.007 118.819 248.343C118.783 248.715 118.651 249.015 118.423 249.243C118.195 249.459 117.883 249.573 117.487 249.585L117.487 249.711C118.147 250.359 118.597 251.001 118.837 251.637C118.837 252.441 118.639 253.071 118.243 253.527C117.835 253.971 117.283 254.193 116.587 254.193C116.059 254.193 115.639 254.055 115.327 253.779C115.015 253.491 114.793 253.071 114.661 252.519L113.977 249.603L112.807 249.585C112.339 249.585 111.979 249.711 111.727 249.963C111.475 250.203 111.349 250.551 111.349 251.007C111.349 251.415 111.445 251.823 111.637 252.231C111.829 252.639 112.129 253.077 112.537 253.545L112.465 253.689L111.439 253.869C110.695 252.873 110.323 251.847 110.323 250.791ZM115.525 252.231C115.597 252.471 115.699 252.645 115.831 252.753C115.951 252.861 116.137 252.915 116.389 252.915C116.785 252.915 117.097 252.807 117.325 252.591C117.541 252.363 117.649 252.063 117.649 251.691C117.649 251.031 117.223 250.359 116.371 249.675L114.895 249.621L115.525 252.231ZM114.049 237.292C115.357 236.5 116.797 235.504 118.369 234.304L118.549 234.322C118.717 234.754 118.825 235.198 118.873 235.654L118.747 235.852C117.271 236.836 115.831 237.718 114.427 238.498L114.427 240.604L115.111 240.604L118.711 240.532L118.711 241.99L115.237 241.9L107.173 241.99L107.155 238.462C107.155 237.334 107.443 236.464 108.019 235.852C108.583 235.228 109.393 234.916 110.449 234.916C111.241 234.916 111.955 235.126 112.591 235.546C113.215 235.954 113.701 236.536 114.049 237.292ZM113.203 240.586L113.257 238.426C112.873 237.082 111.979 236.41 110.575 236.41C109.843 236.41 109.297 236.608 108.937 237.004C108.565 237.4 108.367 237.994 108.343 238.786L108.397 240.532L113.203 240.586ZM114.535 232.242L114.571 232.242C115.579 232.242 116.353 232.014 116.893 231.558C117.433 231.102 117.703 230.454 117.703 229.614C117.703 229.194 117.637 228.774 117.505 228.354C117.361 227.934 117.163 227.55 116.911 227.202L117.019 227.058L118.243 227.274C118.651 228.114 118.855 228.954 118.855 229.794C118.855 230.97 118.483 231.894 117.739 232.566C116.983 233.238 115.951 233.574 114.643 233.574C113.323 233.574 112.273 233.238 111.493 232.566C110.713 231.894 110.323 230.988 110.323 229.848C110.323 228.888 110.599 228.144 111.151 227.616C111.691 227.088 112.447 226.824 113.419 226.824C113.743 226.824 114.049 226.848 114.337 226.896L114.517 227.076L114.535 232.242ZM111.331 229.848C111.331 230.448 111.529 230.952 111.925 231.36C112.309 231.756 112.855 232.02 113.563 232.152L113.491 228.174L113.239 228.138C112.627 228.138 112.159 228.288 111.835 228.588C111.499 228.876 111.331 229.296 111.331 229.848ZM110.323 221.875C110.323 221.095 110.515 220.483 110.899 220.039C111.283 219.583 111.811 219.355 112.483 219.355C112.687 219.355 113.425 219.391 114.697 219.463C115.969 219.535 116.713 219.571 116.929 219.571C117.193 219.571 117.379 219.529 117.487 219.445C117.583 219.361 117.631 219.217 117.631 219.013C117.631 218.833 117.595 218.629 117.523 218.401L117.649 218.257L118.459 218.401C118.663 218.749 118.783 219.091 118.819 219.427C118.783 219.799 118.651 220.099 118.423 220.327C118.195 220.543 117.883 220.657 117.487 220.669L117.487 220.795C118.147 221.443 118.597 222.085 118.837 222.721C118.837 223.525 118.639 224.155 118.243 224.611C117.835 225.055 117.283 225.277 116.587 225.277C116.059 225.277 115.639 225.139 115.327 224.863C115.015 224.575 114.793 224.155 114.661 223.603L113.977 220.687L112.807 220.669C112.339 220.669 111.979 220.795 111.727 221.047C111.475 221.287 111.349 221.635 111.349 222.091C111.349 222.499 111.445 222.907 111.637 223.315C111.829 223.723 112.129 224.161 112.537 224.629L112.465 224.773L111.439 224.953C110.695 223.957 110.323 222.931 110.323 221.875ZM115.525 223.315C115.597 223.555 115.699 223.729 115.831 223.837C115.951 223.945 116.137 223.999 116.389 223.999C116.785 223.999 117.097 223.891 117.325 223.675C117.541 223.447 117.649 223.147 117.649 222.775C117.649 222.115 117.223 221.443 116.371 220.759L114.895 220.705L115.525 223.315ZM115.093 210.122L116.947 210.068C117.199 210.056 117.379 210.014 117.487 209.942C117.583 209.87 117.631 209.738 117.631 209.546C117.631 209.354 117.595 209.15 117.523 208.934L117.649 208.79L118.459 208.934C118.663 209.258 118.783 209.594 118.819 209.942C118.783 210.314 118.657 210.608 118.441 210.824C118.225 211.028 117.931 211.154 117.559 211.202L117.559 211.328C117.871 211.688 118.123 212.012 118.315 212.3C118.495 212.588 118.657 212.918 118.801 213.29C118.801 214.478 118.441 215.39 117.721 216.026C116.989 216.662 115.951 216.98 114.607 216.98C113.251 216.98 112.201 216.626 111.457 215.918C110.701 215.21 110.323 214.232 110.323 212.984C110.323 212.42 110.383 211.892 110.503 211.4L106.201 211.418L106.075 209.996L115.093 210.122ZM111.331 213.146C111.331 213.914 111.595 214.52 112.123 214.964C112.639 215.408 113.389 215.63 114.373 215.63C115.393 215.63 116.185 215.432 116.749 215.036C117.313 214.628 117.595 214.07 117.595 213.362C117.595 213.026 117.511 212.702 117.343 212.39C117.175 212.066 116.893 211.73 116.497 211.382L115.201 211.346L111.781 211.4C111.481 212.036 111.331 212.618 111.331 213.146ZM115.219 206.89L110.557 206.944L110.431 205.558L115.093 205.594L118.711 205.558L118.711 206.962L115.219 206.89ZM106.777 206.224C106.777 205.984 106.849 205.792 106.993 205.648C107.137 205.504 107.335 205.432 107.587 205.432C107.851 205.432 108.061 205.51 108.217 205.666C108.373 205.81 108.451 206.014 108.451 206.278C108.451 206.53 108.379 206.728 108.235 206.872C108.091 207.004 107.887 207.07 107.623 207.07C107.371 207.07 107.167 206.998 107.011 206.854C106.855 206.698 106.777 206.488 106.777 206.224ZM113.113 197.419C112.621 197.407 112.237 197.521 111.961 197.761C111.685 198.001 111.547 198.355 111.547 198.823C111.547 199.579 111.973 200.395 112.825 201.271L115.093 201.271L118.711 201.199L118.711 202.621L115.219 202.531L110.557 202.603L110.431 201.253L111.637 201.253L111.637 201.145C110.977 200.401 110.551 199.639 110.359 198.859C110.359 197.959 110.569 197.275 110.989 196.807C111.409 196.327 112.009 196.093 112.789 196.105L115.129 196.141L118.711 196.069L118.711 197.509L113.113 197.419ZM111.169 186.049C111.277 186.421 111.403 186.973 111.547 187.705L111.619 187.741C112.039 187.477 112.549 187.345 113.149 187.345C114.025 187.345 114.721 187.639 115.237 188.227C115.753 188.803 116.011 189.589 116.011 190.585C116.011 190.981 115.963 191.353 115.867 191.701C116.023 191.905 116.149 192.043 116.245 192.115C116.341 192.187 116.449 192.223 116.569 192.223C116.821 192.223 117.001 192.067 117.109 191.755C117.205 191.443 117.307 190.933 117.415 190.225C117.511 189.529 117.619 188.959 117.739 188.515C117.859 188.071 118.057 187.687 118.333 187.363C118.597 187.039 118.969 186.877 119.449 186.877C119.953 186.877 120.415 187.051 120.835 187.399C121.255 187.735 121.585 188.203 121.825 188.803C122.065 189.391 122.185 190.039 122.185 190.747C122.185 191.707 121.963 192.457 121.519 192.997C121.087 193.525 120.523 193.789 119.827 193.789C119.251 193.501 118.729 192.973 118.261 192.205L118.171 192.205C118.039 192.637 117.865 192.973 117.649 193.213C117.421 193.441 117.115 193.555 116.731 193.555C116.311 193.303 115.945 192.937 115.633 192.457L115.561 192.457C115.321 192.841 115.009 193.135 114.625 193.339C114.229 193.531 113.773 193.627 113.257 193.627C112.357 193.627 111.655 193.339 111.151 192.763C110.635 192.175 110.377 191.395 110.377 190.423C110.377 189.787 110.485 189.247 110.701 188.803C110.545 187.975 110.341 187.105 110.089 186.193L110.197 186.049L111.169 186.049ZM115.039 190.513C115.039 189.913 114.871 189.451 114.535 189.127C114.199 188.791 113.731 188.623 113.131 188.623C112.555 188.623 112.111 188.779 111.799 189.091C111.487 189.403 111.331 189.853 111.331 190.441C111.331 191.041 111.493 191.509 111.817 191.845C112.141 192.181 112.603 192.349 113.203 192.349C113.779 192.349 114.229 192.193 114.553 191.881C114.877 191.557 115.039 191.101 115.039 190.513ZM119.719 188.137C119.323 188.137 119.047 188.341 118.891 188.749C118.735 189.145 118.597 189.751 118.477 190.567L118.387 191.143C118.663 191.599 118.927 191.947 119.179 192.187C119.431 192.415 119.695 192.529 119.971 192.529C120.319 192.529 120.607 192.361 120.835 192.025C121.063 191.677 121.177 191.197 121.177 190.585C121.177 189.889 121.033 189.307 120.745 188.839C120.469 188.371 120.127 188.137 119.719 188.137Z" fill="black"/>
</svg>
