<svg width="996" height="292" viewBox="0 0 996 292" fill="none" xmlns="http://www.w3.org/2000/svg">
<path d="M2 291.324V48.3854H250V291.324" stroke="#828282" stroke-width="4"/>
<path d="M498 291.324V48.3854H746V291.324" stroke="#828282" stroke-width="4"/>
<path d="M250 291.324V48.3854H498V291.324" stroke="#828282" stroke-width="4"/>
<path d="M746 291.324V48.3854H994V291.324" stroke="#828282" stroke-width="4"/>
<rect x="12.1211" y="61.0391" width="49.3469" height="189.796" fill="#DFDDE2"/>
<rect x="508.121" y="61.0391" width="49.3469" height="137.918" fill="#DFDDE2"/>
<rect x="260.121" y="61.0391" width="49.3469" height="189.796" fill="#DFDDE2"/>
<rect x="756.121" y="61.0391" width="49.3469" height="137.918" fill="#DFDDE2"/>
<rect x="71.5938" y="61.0391" width="49.3469" height="221.429" fill="#EFE8DF"/>
<rect x="567.594" y="61.0391" width="49.3469" height="169.551" fill="#EFE8DF"/>
<rect x="319.594" y="61.0391" width="49.3469" height="137.918" fill="#EFE8DF"/>
<rect x="815.594" y="61.0391" width="49.3469" height="137.918" fill="#EFE8DF"/>
<rect x="190.531" y="61.0391" width="49.3469" height="169.551" fill="#D9DFE9"/>
<rect x="686.531" y="61.0391" width="49.3469" height="169.551" fill="#D9DFE9"/>
<rect x="438.531" y="61.0391" width="49.3469" height="137.918" fill="#D9DFE9"/>
<rect x="934.531" y="61.0391" width="49.3469" height="137.918" fill="#D9DFE9"/>
<rect x="131.062" y="61.0391" width="49.3469" height="197.388" fill="#EDE3E4"/>
<rect x="627.059" y="61.0391" width="49.3469" height="197.388" fill="#EDE3E4"/>
<rect x="379.062" y="61.0391" width="49.3469" height="221.429" fill="#EDE3E4"/>
<rect x="875.059" y="61.0391" width="49.3469" height="169.551" fill="#EDE3E4"/>
<path d="M57.477 25.7109H59.445V18.1509H59.781L66.381 25.7109H68.973L61.485 17.2149L68.685 9.70294H66.189L59.781 16.4949H59.445V9.70294H57.477V25.7109ZM69.5175 20.5509C69.5175 23.3829 71.2935 25.9989 74.8695 25.9989C77.4615 25.9989 79.0215 24.4389 79.0215 24.4389L78.4695 22.9989C78.4695 22.9989 76.9335 24.3669 75.0855 24.3669C72.9735 24.3669 71.6775 22.8549 71.5095 20.6229L77.8695 19.7829L79.0215 19.4469C79.0215 16.3509 77.1975 14.6229 74.7015 14.6229C71.6295 14.6229 69.5175 17.1669 69.5175 20.5509ZM74.5815 16.1829C76.7415 16.1829 76.9575 18.4869 76.9575 18.4869L71.5335 19.1829C71.7975 17.5029 72.8535 16.1829 74.5815 16.1829ZM80.6368 29.8389L81.2368 31.3989C83.5888 31.1109 84.9088 28.8789 85.8928 26.5269L90.7168 14.9109H88.7488L85.7008 22.5429L82.5568 14.9109H80.5168L84.7168 24.9189L84.0208 26.5269C83.2768 28.2309 82.1968 29.5269 80.6368 29.8389ZM98.9552 25.7109H100.875L101.307 11.9349L106.443 25.7109H107.931L113.067 12.1029L113.571 25.7109H115.491L114.915 9.70294H112.083L107.187 22.9269L102.363 9.70294H99.5312L98.9552 25.7109ZM118.337 20.3589C118.337 23.2149 120.281 25.9989 123.617 25.9989C127.241 25.9989 129.017 22.7349 129.017 20.0949C129.017 17.3109 127.073 14.6229 123.713 14.6229C120.137 14.6229 118.337 17.6709 118.337 20.3589ZM120.305 20.1429C120.305 17.8149 121.625 16.2549 123.665 16.2549C126.089 16.2549 127.049 18.3429 127.049 20.4069C127.049 22.7349 125.729 24.3669 123.689 24.3669C121.337 24.3669 120.305 22.2549 120.305 20.1429ZM131.854 25.7109H133.726V18.5589C134.35 17.9349 136.174 16.2789 137.566 16.2789C138.31 16.2789 138.91 16.7829 138.91 18.3909V25.7109H140.782V18.3909C141.55 17.6709 143.182 16.2789 144.454 16.2789C145.198 16.2789 145.798 16.7829 145.798 18.3909V25.7109H147.67V17.8629C147.67 15.5349 146.494 14.6229 144.958 14.6229C143.014 14.6229 141.406 16.0389 140.662 16.7829C140.35 15.2469 139.342 14.6229 138.07 14.6229C136.054 14.6229 134.398 16.1109 133.726 16.8309V14.7429L131.854 15.0789V25.7109ZM150.447 20.5509C150.447 23.3829 152.223 25.9989 155.799 25.9989C158.391 25.9989 159.951 24.4389 159.951 24.4389L159.399 22.9989C159.399 22.9989 157.863 24.3669 156.015 24.3669C153.903 24.3669 152.607 22.8549 152.439 20.6229L158.799 19.7829L159.951 19.4469C159.951 16.3509 158.127 14.6229 155.631 14.6229C152.559 14.6229 150.447 17.1669 150.447 20.5509ZM155.511 16.1829C157.671 16.1829 157.887 18.4869 157.887 18.4869L152.463 19.1829C152.727 17.5029 153.783 16.1829 155.511 16.1829ZM162.839 25.7109H164.711V18.5829C165.407 17.9109 167.255 16.2789 168.671 16.2789C169.487 16.2789 170.135 16.7829 170.135 18.3909V25.7109H172.007V17.8629C172.007 15.5349 170.783 14.6229 169.175 14.6229C167.087 14.6229 165.407 16.1349 164.711 16.8549V14.7429L162.839 15.0789V25.7109ZM176.023 22.8549C176.023 25.0629 177.127 25.9989 178.831 25.9989C180.631 25.9989 181.951 24.8949 181.951 24.8949L181.495 23.3829C181.495 23.3829 180.343 24.3669 179.215 24.3669C178.399 24.3669 177.895 23.7909 177.895 22.3509V16.4229H181.399V14.9109H177.895V11.9349L176.023 12.3909V14.7909L174.487 15.4149V16.4229H176.023V22.8549ZM189.404 25.7109H196.148V24.1029H193.796V14.4309H189.572V15.9189H191.924V24.1029H189.404V25.7109Z" fill="black"/>
<path d="M553.043 25.7109H555.011V18.1509H555.347L561.947 25.7109H564.539L557.051 17.2149L564.251 9.70294H561.755L555.347 16.4949H555.011V9.70294H553.043V25.7109ZM565.084 20.5509C565.084 23.3829 566.86 25.9989 570.436 25.9989C573.028 25.9989 574.588 24.4389 574.588 24.4389L574.036 22.9989C574.036 22.9989 572.5 24.3669 570.652 24.3669C568.54 24.3669 567.244 22.8549 567.076 20.6229L573.436 19.7829L574.588 19.4469C574.588 16.3509 572.764 14.6229 570.268 14.6229C567.196 14.6229 565.084 17.1669 565.084 20.5509ZM570.148 16.1829C572.308 16.1829 572.524 18.4869 572.524 18.4869L567.1 19.1829C567.364 17.5029 568.42 16.1829 570.148 16.1829ZM576.203 29.8389L576.803 31.3989C579.155 31.1109 580.475 28.8789 581.459 26.5269L586.283 14.9109H584.315L581.267 22.5429L578.123 14.9109H576.083L580.283 24.9189L579.587 26.5269C578.843 28.2309 577.763 29.5269 576.203 29.8389ZM594.522 25.7109H596.442L596.874 11.9349L602.01 25.7109H603.498L608.634 12.1029L609.138 25.7109H611.058L610.482 9.70294H607.65L602.754 22.9269L597.93 9.70294H595.098L594.522 25.7109ZM613.904 20.3589C613.904 23.2149 615.848 25.9989 619.184 25.9989C622.808 25.9989 624.584 22.7349 624.584 20.0949C624.584 17.3109 622.64 14.6229 619.28 14.6229C615.704 14.6229 613.904 17.6709 613.904 20.3589ZM615.872 20.1429C615.872 17.8149 617.192 16.2549 619.232 16.2549C621.656 16.2549 622.616 18.3429 622.616 20.4069C622.616 22.7349 621.296 24.3669 619.256 24.3669C616.904 24.3669 615.872 22.2549 615.872 20.1429ZM627.421 25.7109H629.293V18.5589C629.917 17.9349 631.741 16.2789 633.133 16.2789C633.877 16.2789 634.477 16.7829 634.477 18.3909V25.7109H636.349V18.3909C637.117 17.6709 638.749 16.2789 640.021 16.2789C640.765 16.2789 641.365 16.7829 641.365 18.3909V25.7109H643.237V17.8629C643.237 15.5349 642.061 14.6229 640.525 14.6229C638.581 14.6229 636.973 16.0389 636.229 16.7829C635.917 15.2469 634.909 14.6229 633.637 14.6229C631.621 14.6229 629.965 16.1109 629.293 16.8309V14.7429L627.421 15.0789V25.7109ZM646.014 20.5509C646.014 23.3829 647.79 25.9989 651.366 25.9989C653.958 25.9989 655.518 24.4389 655.518 24.4389L654.966 22.9989C654.966 22.9989 653.43 24.3669 651.582 24.3669C649.47 24.3669 648.174 22.8549 648.006 20.6229L654.366 19.7829L655.518 19.4469C655.518 16.3509 653.694 14.6229 651.198 14.6229C648.126 14.6229 646.014 17.1669 646.014 20.5509ZM651.078 16.1829C653.238 16.1829 653.454 18.4869 653.454 18.4869L648.03 19.1829C648.294 17.5029 649.35 16.1829 651.078 16.1829ZM658.405 25.7109H660.277V18.5829C660.973 17.9109 662.821 16.2789 664.237 16.2789C665.053 16.2789 665.701 16.7829 665.701 18.3909V25.7109H667.573V17.8629C667.573 15.5349 666.349 14.6229 664.741 14.6229C662.653 14.6229 660.973 16.1349 660.277 16.8549V14.7429L658.405 15.0789V25.7109ZM671.589 22.8549C671.589 25.0629 672.693 25.9989 674.397 25.9989C676.197 25.9989 677.517 24.8949 677.517 24.8949L677.061 23.3829C677.061 23.3829 675.909 24.3669 674.781 24.3669C673.965 24.3669 673.461 23.7909 673.461 22.3509V16.4229H676.965V14.9109H673.461V11.9349L671.589 12.3909V14.7909L670.053 15.4149V16.4229H671.589V22.8549ZM684.418 28.7829L684.586 30.2709C684.802 30.2949 685.018 30.2949 685.234 30.2949C689.314 30.2949 692.218 28.1829 692.218 25.1109C692.218 23.2149 691.042 21.7989 688.906 21.3429C690.274 20.5509 691.81 19.1109 691.81 17.3109C691.81 15.4389 690.25 14.1429 688.186 14.1429C685.978 14.1429 684.226 15.6549 684.226 15.6549L685.042 16.8789C685.042 16.8789 686.41 15.7749 687.946 15.7749C689.074 15.7749 689.842 16.4469 689.842 17.5029C689.842 19.1829 687.634 20.8389 685.882 21.0309V22.5669H686.554C688.354 22.5669 690.25 23.1909 690.25 25.2549C690.25 27.5589 687.898 28.8069 685.138 28.8069C684.898 28.8069 684.658 28.8069 684.418 28.7829Z" fill="black"/>
<path d="M304.493 25.7109H306.461V18.1509H306.797L313.397 25.7109H315.989L308.501 17.2149L315.701 9.70294H313.205L306.797 16.4949H306.461V9.70294H304.493V25.7109ZM316.533 20.5509C316.533 23.3829 318.309 25.9989 321.885 25.9989C324.477 25.9989 326.037 24.4389 326.037 24.4389L325.485 22.9989C325.485 22.9989 323.949 24.3669 322.101 24.3669C319.989 24.3669 318.693 22.8549 318.525 20.6229L324.885 19.7829L326.037 19.4469C326.037 16.3509 324.213 14.6229 321.717 14.6229C318.645 14.6229 316.533 17.1669 316.533 20.5509ZM321.597 16.1829C323.757 16.1829 323.973 18.4869 323.973 18.4869L318.549 19.1829C318.813 17.5029 319.869 16.1829 321.597 16.1829ZM327.652 29.8389L328.252 31.3989C330.604 31.1109 331.924 28.8789 332.908 26.5269L337.732 14.9109H335.764L332.716 22.5429L329.572 14.9109H327.532L331.732 24.9189L331.036 26.5269C330.292 28.2309 329.212 29.5269 327.652 29.8389ZM345.971 25.7109H347.891L348.323 11.9349L353.459 25.7109H354.947L360.083 12.1029L360.587 25.7109H362.507L361.931 9.70294H359.099L354.203 22.9269L349.379 9.70294H346.547L345.971 25.7109ZM365.353 20.3589C365.353 23.2149 367.297 25.9989 370.633 25.9989C374.257 25.9989 376.033 22.7349 376.033 20.0949C376.033 17.3109 374.089 14.6229 370.729 14.6229C367.153 14.6229 365.353 17.6709 365.353 20.3589ZM367.321 20.1429C367.321 17.8149 368.641 16.2549 370.681 16.2549C373.105 16.2549 374.065 18.3429 374.065 20.4069C374.065 22.7349 372.745 24.3669 370.705 24.3669C368.353 24.3669 367.321 22.2549 367.321 20.1429ZM378.87 25.7109H380.742V18.5589C381.366 17.9349 383.19 16.2789 384.582 16.2789C385.326 16.2789 385.926 16.7829 385.926 18.3909V25.7109H387.798V18.3909C388.566 17.6709 390.198 16.2789 391.47 16.2789C392.214 16.2789 392.814 16.7829 392.814 18.3909V25.7109H394.686V17.8629C394.686 15.5349 393.51 14.6229 391.974 14.6229C390.03 14.6229 388.422 16.0389 387.678 16.7829C387.366 15.2469 386.358 14.6229 385.086 14.6229C383.07 14.6229 381.414 16.1109 380.742 16.8309V14.7429L378.87 15.0789V25.7109ZM397.463 20.5509C397.463 23.3829 399.239 25.9989 402.815 25.9989C405.407 25.9989 406.967 24.4389 406.967 24.4389L406.415 22.9989C406.415 22.9989 404.879 24.3669 403.031 24.3669C400.919 24.3669 399.623 22.8549 399.455 20.6229L405.815 19.7829L406.967 19.4469C406.967 16.3509 405.143 14.6229 402.647 14.6229C399.575 14.6229 397.463 17.1669 397.463 20.5509ZM402.527 16.1829C404.687 16.1829 404.903 18.4869 404.903 18.4869L399.479 19.1829C399.743 17.5029 400.799 16.1829 402.527 16.1829ZM409.854 25.7109H411.726V18.5829C412.422 17.9109 414.27 16.2789 415.686 16.2789C416.502 16.2789 417.15 16.7829 417.15 18.3909V25.7109H419.022V17.8629C419.022 15.5349 417.798 14.6229 416.19 14.6229C414.102 14.6229 412.422 16.1349 411.726 16.8549V14.7429L409.854 15.0789V25.7109ZM423.038 22.8549C423.038 25.0629 424.142 25.9989 425.846 25.9989C427.646 25.9989 428.966 24.8949 428.966 24.8949L428.51 23.3829C428.51 23.3829 427.358 24.3669 426.23 24.3669C425.414 24.3669 424.91 23.7909 424.91 22.3509V16.4229H428.414V14.9109H424.91V11.9349L423.038 12.3909V14.7909L421.502 15.4149V16.4229H423.038V22.8549ZM436.467 25.7109H444.939V24.1029H439.083C441.171 22.3509 443.931 19.9269 443.931 17.3589C443.931 15.5349 442.371 14.1429 440.259 14.1429C438.099 14.1429 436.323 15.6549 436.323 15.6549L437.139 16.8789C437.139 16.8789 438.483 15.7749 439.947 15.7749C441.147 15.7749 441.963 16.5189 441.963 17.5989C441.963 20.4309 436.275 24.4869 436.275 24.4869L436.467 25.7109Z" fill="black"/>
<path d="M799.59 25.7109H801.558V18.1509H801.894L808.494 25.7109H811.086L803.598 17.2149L810.798 9.70294H808.302L801.894 16.4949H801.558V9.70294H799.59V25.7109ZM811.631 20.5509C811.631 23.3829 813.407 25.9989 816.983 25.9989C819.575 25.9989 821.135 24.4389 821.135 24.4389L820.583 22.9989C820.583 22.9989 819.047 24.3669 817.199 24.3669C815.087 24.3669 813.791 22.8549 813.623 20.6229L819.983 19.7829L821.135 19.4469C821.135 16.3509 819.311 14.6229 816.815 14.6229C813.743 14.6229 811.631 17.1669 811.631 20.5509ZM816.695 16.1829C818.855 16.1829 819.071 18.4869 819.071 18.4869L813.647 19.1829C813.911 17.5029 814.967 16.1829 816.695 16.1829ZM822.75 29.8389L823.35 31.3989C825.702 31.1109 827.022 28.8789 828.006 26.5269L832.83 14.9109H830.862L827.814 22.5429L824.67 14.9109H822.63L826.83 24.9189L826.134 26.5269C825.39 28.2309 824.31 29.5269 822.75 29.8389ZM841.068 25.7109H842.988L843.42 11.9349L848.556 25.7109H850.044L855.18 12.1029L855.684 25.7109H857.604L857.028 9.70294H854.196L849.3 22.9269L844.476 9.70294H841.644L841.068 25.7109ZM860.451 20.3589C860.451 23.2149 862.395 25.9989 865.731 25.9989C869.355 25.9989 871.131 22.7349 871.131 20.0949C871.131 17.3109 869.187 14.6229 865.827 14.6229C862.251 14.6229 860.451 17.6709 860.451 20.3589ZM862.419 20.1429C862.419 17.8149 863.739 16.2549 865.779 16.2549C868.203 16.2549 869.163 18.3429 869.163 20.4069C869.163 22.7349 867.843 24.3669 865.803 24.3669C863.451 24.3669 862.419 22.2549 862.419 20.1429ZM873.967 25.7109H875.839V18.5589C876.463 17.9349 878.287 16.2789 879.679 16.2789C880.423 16.2789 881.023 16.7829 881.023 18.3909V25.7109H882.895V18.3909C883.663 17.6709 885.295 16.2789 886.567 16.2789C887.311 16.2789 887.911 16.7829 887.911 18.3909V25.7109H889.783V17.8629C889.783 15.5349 888.607 14.6229 887.071 14.6229C885.127 14.6229 883.519 16.0389 882.775 16.7829C882.463 15.2469 881.455 14.6229 880.183 14.6229C878.167 14.6229 876.511 16.1109 875.839 16.8309V14.7429L873.967 15.0789V25.7109ZM892.56 20.5509C892.56 23.3829 894.336 25.9989 897.912 25.9989C900.504 25.9989 902.064 24.4389 902.064 24.4389L901.512 22.9989C901.512 22.9989 899.976 24.3669 898.128 24.3669C896.016 24.3669 894.72 22.8549 894.552 20.6229L900.912 19.7829L902.064 19.4469C902.064 16.3509 900.24 14.6229 897.744 14.6229C894.672 14.6229 892.56 17.1669 892.56 20.5509ZM897.624 16.1829C899.784 16.1829 900 18.4869 900 18.4869L894.576 19.1829C894.84 17.5029 895.896 16.1829 897.624 16.1829ZM904.952 25.7109H906.824V18.5829C907.52 17.9109 909.368 16.2789 910.784 16.2789C911.6 16.2789 912.248 16.7829 912.248 18.3909V25.7109H914.12V17.8629C914.12 15.5349 912.896 14.6229 911.288 14.6229C909.2 14.6229 907.52 16.1349 906.824 16.8549V14.7429L904.952 15.0789V25.7109ZM918.136 22.8549C918.136 25.0629 919.24 25.9989 920.944 25.9989C922.744 25.9989 924.064 24.8949 924.064 24.8949L923.608 23.3829C923.608 23.3829 922.456 24.3669 921.328 24.3669C920.512 24.3669 920.008 23.7909 920.008 22.3509V16.4229H923.512V14.9109H920.008V11.9349L918.136 12.3909V14.7909L916.6 15.4149V16.4229H918.136V22.8549ZM930.965 25.0869H937.805V30.3429H939.677V25.0869H941.957V23.5509H939.677V14.1429H938.093L930.965 23.8149V25.0869ZM933.005 23.5509L937.805 17.0469V23.5509H933.005Z" fill="black"/>
<path d="M38.7109 202.452L38.7109 199.5C38.7109 195.162 36.5509 192.138 32.5189 192.138C28.2529 192.138 26.7049 195.54 26.7049 198.816L26.7049 202.452L38.7109 202.452ZM37.4689 200.976L27.9469 200.976L27.9469 199.068C27.9469 195.576 29.8009 193.722 32.6809 193.722C35.3449 193.722 37.4689 195.306 37.4689 199.68L37.4689 200.976ZM36.8929 190.701C38.0809 190.701 38.9269 189.819 38.9269 188.433C38.9269 186.795 37.7749 185.913 37.5229 185.751C38.1889 185.571 38.7109 185.139 38.8369 184.005L37.7029 183.537C37.7029 183.537 37.6849 184.437 36.6229 184.437L32.9689 184.437C31.1509 184.437 30.3949 185.013 30.3949 186.777C30.3949 188.793 31.3849 190.143 31.3849 190.143L32.5189 189.711C32.5189 189.711 31.6189 188.523 31.6189 187.173C31.6189 185.823 32.5189 185.841 33.4729 185.841L33.7789 185.841C34.1749 188.919 35.2189 190.701 36.8929 190.701ZM37.7029 188.145C37.7029 188.739 37.4329 189.207 36.8029 189.207C35.7589 189.207 35.1829 188.127 34.8049 185.841L36.2989 185.841C36.9649 186.417 37.7029 187.155 37.7029 188.145ZM36.5689 181.253C38.2249 181.253 38.9269 180.425 38.9269 179.147C38.9269 177.797 38.0989 176.807 38.0989 176.807L36.9649 177.149C36.9649 177.149 37.7029 178.013 37.7029 178.859C37.7029 179.471 37.2709 179.849 36.1909 179.849L31.7449 179.849L31.7449 177.221L30.6109 177.221L30.6109 179.849L28.3789 179.849L28.7209 181.253L30.5209 181.253L30.9889 182.405L31.7449 182.405L31.7449 181.253L36.5689 181.253ZM36.8929 175.812C38.0809 175.812 38.9269 174.93 38.9269 173.544C38.9269 171.906 37.7749 171.024 37.5229 170.862C38.1889 170.682 38.7109 170.25 38.8369 169.116L37.7029 168.648C37.7029 168.648 37.6849 169.548 36.6229 169.548L32.9689 169.548C31.1509 169.548 30.3949 170.124 30.3949 171.888C30.3949 173.904 31.3849 175.254 31.3849 175.254L32.5189 174.822C32.5189 174.822 31.6189 173.634 31.6189 172.284C31.6189 170.934 32.5189 170.952 33.4729 170.952L33.7789 170.952C34.1749 174.03 35.2189 175.812 36.8929 175.812ZM37.7029 173.256C37.7029 173.85 37.4329 174.318 36.8029 174.318C35.7589 174.318 35.1829 173.238 34.8049 170.952L36.2989 170.952C36.9649 171.528 37.7029 172.266 37.7029 173.256ZM38.7109 161.934L38.7109 160.458L33.6529 160.458L33.6529 158.532L38.7109 155.094L38.7109 153.348L33.3469 156.984C32.8249 155.796 31.7269 154.5 29.9809 154.5C28.2889 154.5 26.7049 155.688 26.7049 158.784L26.7049 161.934L38.7109 161.934ZM32.4109 160.458L27.9469 160.458L27.9469 159.054C27.9469 156.858 28.9909 156.084 30.1249 156.084C31.6189 156.084 32.4109 157.416 32.4109 158.568L32.4109 160.458ZM34.8409 152.517C36.9649 152.517 38.9269 151.185 38.9269 148.503C38.9269 146.559 37.7569 145.389 37.7569 145.389L36.6769 145.803C36.6769 145.803 37.7029 146.955 37.7029 148.341C37.7029 149.925 36.5689 150.897 34.8949 151.023L34.2649 146.253L34.0129 145.389C31.6909 145.389 30.3949 146.757 30.3949 148.629C30.3949 150.933 32.3029 152.517 34.8409 152.517ZM31.5649 148.719C31.5649 147.099 33.2929 146.937 33.2929 146.937L33.8149 151.005C32.5549 150.807 31.5649 150.015 31.5649 148.719ZM36.8929 143.908C38.0809 143.908 38.9269 143.026 38.9269 141.64C38.9269 140.002 37.7749 139.12 37.5229 138.958C38.1889 138.778 38.7109 138.346 38.8369 137.212L37.7029 136.744C37.7029 136.744 37.6849 137.644 36.6229 137.644L32.9689 137.644C31.1509 137.644 30.3949 138.22 30.3949 139.984C30.3949 142 31.3849 143.35 31.3849 143.35L32.5189 142.918C32.5189 142.918 31.6189 141.73 31.6189 140.38C31.6189 139.03 32.5189 139.048 33.4729 139.048L33.7789 139.048C34.1749 142.126 35.2189 143.908 36.8929 143.908ZM37.7029 141.352C37.7029 141.946 37.4329 142.414 36.8029 142.414C35.7589 142.414 35.1829 141.334 34.8049 139.048L36.2989 139.048C36.9649 139.624 37.7029 140.362 37.7029 141.352ZM34.9309 135.308C37.1629 135.308 38.9269 133.94 38.9269 131.834C38.9269 130.538 38.2609 129.656 37.5409 129.206C38.0989 129.116 38.8369 128.954 38.8369 128.954L38.7109 127.568C38.7109 127.568 37.1989 127.928 36.2089 127.928L25.8589 127.928L26.1109 129.332L30.6829 129.332C30.5929 129.548 30.3949 130.088 30.3949 130.898C30.3949 133.796 32.5909 135.308 34.9309 135.308ZM37.7029 131.654C37.7029 132.878 36.6409 133.814 34.8409 133.814C32.7709 133.814 31.5829 132.608 31.5829 130.88C31.5829 130.106 31.8349 129.368 32.7349 129.332L36.2269 129.332C36.5689 129.548 37.7029 130.376 37.7029 131.654ZM28.5589 124.433C28.5589 123.893 28.1269 123.461 27.5869 123.461C27.0469 123.461 26.6149 123.893 26.6149 124.433C26.6149 124.973 27.0469 125.405 27.5869 125.405C28.1269 125.405 28.5589 124.973 28.5589 124.433ZM38.7109 125.153L38.7109 123.749L30.6109 123.749L30.6109 125.153L38.7109 125.153ZM38.7109 121.04L38.7109 119.636L33.3649 119.636C32.8609 119.114 31.6369 117.728 31.6369 116.666C31.6369 116.054 32.0149 115.568 33.2209 115.568L38.7109 115.568L38.7109 114.164L32.8249 114.164C31.0789 114.164 30.3949 115.082 30.3949 116.288C30.3949 117.854 31.5289 119.114 32.0689 119.636L30.4849 119.636L30.7369 121.04L38.7109 121.04ZM37.2529 111.602C37.7929 111.602 38.1169 111.044 38.3509 110.252C38.8189 111.17 39.5749 112.358 40.8169 112.358C42.2569 112.358 42.9769 110.648 42.9769 108.902C42.9769 106.598 41.6449 104.582 39.9889 104.582C38.5129 104.582 38.0809 106.166 37.7389 107.714C37.3969 109.244 37.2169 110.09 36.8749 110.09C36.6409 110.09 36.3889 109.748 36.1189 109.37C36.1549 109.172 36.1729 108.956 36.1729 108.722C36.1729 107.102 35.2549 105.284 33.3649 105.284C32.5729 105.284 32.0149 105.68 31.7809 105.896C31.7989 105.716 31.8169 105.464 31.8169 105.23L31.8169 104.204L30.5569 104.33C30.5569 104.33 30.7369 104.87 30.7369 105.392L30.7369 106.256C30.7369 107.138 30.3949 107.642 30.3949 108.578C30.3949 110.342 31.4389 111.926 33.2209 111.926C34.3549 111.926 35.3089 111.332 35.8129 110.36C36.1549 110.936 36.6769 111.602 37.2529 111.602ZM40.6189 111.062C39.7189 111.062 39.1789 110.036 38.6569 109.082C38.7109 108.776 38.7649 108.488 38.8369 108.182C39.1069 106.958 39.3949 106.022 40.1869 106.022C41.0869 106.022 41.8969 107.264 41.8969 108.794C41.8969 109.748 41.5909 111.062 40.6189 111.062ZM35.0929 108.596C35.0929 109.892 34.2109 110.486 33.3109 110.486C32.2849 110.486 31.4749 109.784 31.4749 108.632C31.4749 107.354 32.5189 106.724 33.4369 106.724C34.4989 106.724 35.0929 107.534 35.0929 108.596Z" fill="black"/>
</svg>
