<svg width="1158" height="485" viewBox="0 0 1158 485" fill="none" xmlns="http://www.w3.org/2000/svg">
<rect x="1" y="1" width="1156" height="483" fill="#FAFAFA" stroke="#BDBDBD" stroke-width="2"/>
<path d="M609 343.258V138.033H818.5V343.258" stroke="#BDBDBD" stroke-width="4"/>
<rect x="617.551" y="148.719" width="41.6862" height="116.508" fill="#DFDDE2"/>
<rect x="667.789" y="148.719" width="41.6862" height="143.23" fill="#EFE8DF"/>
<rect x="768.262" y="148.719" width="41.6862" height="143.23" fill="#D9DFE9"/>
<rect x="718.023" y="148.719" width="41.6862" height="166.745" fill="#EDE3E4"/>
<path d="M644.793 116H646.761V108.44H647.097L653.697 116H656.289L648.801 107.504L656.001 99.992H653.505L647.097 106.784H646.761V99.992H644.793V116ZM656.834 110.84C656.834 113.672 658.61 116.288 662.186 116.288C664.778 116.288 666.338 114.728 666.338 114.728L665.786 113.288C665.786 113.288 664.25 114.656 662.402 114.656C660.29 114.656 658.994 113.144 658.826 110.912L665.186 110.072L666.338 109.736C666.338 106.64 664.514 104.912 662.018 104.912C658.946 104.912 656.834 107.456 656.834 110.84ZM661.898 106.472C664.058 106.472 664.274 108.776 664.274 108.776L658.85 109.472C659.114 107.792 660.17 106.472 661.898 106.472ZM667.953 120.128L668.553 121.688C670.905 121.4 672.225 119.168 673.209 116.816L678.033 105.2H676.065L673.017 112.832L669.873 105.2H667.833L672.033 115.208L671.337 116.816C670.593 118.52 669.513 119.816 667.953 120.128ZM686.272 116H688.192L688.624 102.224L693.76 116H695.248L700.384 102.392L700.888 116H702.808L702.232 99.992H699.4L694.504 113.216L689.68 99.992H686.848L686.272 116ZM705.654 110.648C705.654 113.504 707.598 116.288 710.934 116.288C714.558 116.288 716.334 113.024 716.334 110.384C716.334 107.6 714.39 104.912 711.03 104.912C707.454 104.912 705.654 107.96 705.654 110.648ZM707.622 110.432C707.622 108.104 708.942 106.544 710.982 106.544C713.406 106.544 714.366 108.632 714.366 110.696C714.366 113.024 713.046 114.656 711.006 114.656C708.654 114.656 707.622 112.544 707.622 110.432ZM719.171 116H721.043V108.848C721.667 108.224 723.491 106.568 724.883 106.568C725.627 106.568 726.227 107.072 726.227 108.68V116H728.099V108.68C728.867 107.96 730.499 106.568 731.771 106.568C732.515 106.568 733.115 107.072 733.115 108.68V116H734.987V108.152C734.987 105.824 733.811 104.912 732.275 104.912C730.331 104.912 728.723 106.328 727.979 107.072C727.667 105.536 726.659 104.912 725.387 104.912C723.371 104.912 721.715 106.4 721.043 107.12V105.032L719.171 105.368V116ZM737.764 110.84C737.764 113.672 739.54 116.288 743.116 116.288C745.708 116.288 747.268 114.728 747.268 114.728L746.716 113.288C746.716 113.288 745.18 114.656 743.332 114.656C741.22 114.656 739.924 113.144 739.756 110.912L746.116 110.072L747.268 109.736C747.268 106.64 745.444 104.912 742.948 104.912C739.876 104.912 737.764 107.456 737.764 110.84ZM742.828 106.472C744.988 106.472 745.204 108.776 745.204 108.776L739.78 109.472C740.044 107.792 741.1 106.472 742.828 106.472ZM750.155 116H752.027V108.872C752.723 108.2 754.571 106.568 755.987 106.568C756.803 106.568 757.451 107.072 757.451 108.68V116H759.323V108.152C759.323 105.824 758.099 104.912 756.491 104.912C754.403 104.912 752.723 106.424 752.027 107.144V105.032L750.155 105.368V116ZM763.339 113.144C763.339 115.352 764.443 116.288 766.147 116.288C767.947 116.288 769.267 115.184 769.267 115.184L768.811 113.672C768.811 113.672 767.659 114.656 766.531 114.656C765.715 114.656 765.211 114.08 765.211 112.64V106.712H768.715V105.2H765.211V102.224L763.339 102.68V105.08L761.803 105.704V106.712H763.339V113.144ZM776.168 119.072L776.336 120.56C776.552 120.584 776.768 120.584 776.984 120.584C781.064 120.584 783.968 118.472 783.968 115.4C783.968 113.504 782.792 112.088 780.656 111.632C782.024 110.84 783.56 109.4 783.56 107.6C783.56 105.728 782 104.432 779.936 104.432C777.728 104.432 775.976 105.944 775.976 105.944L776.792 107.168C776.792 107.168 778.16 106.064 779.696 106.064C780.824 106.064 781.592 106.736 781.592 107.792C781.592 109.472 779.384 111.128 777.632 111.32V112.856H778.304C780.104 112.856 782 113.48 782 115.544C782 117.848 779.648 119.096 776.888 119.096C776.648 119.096 776.408 119.096 776.168 119.072Z" fill="black"/>
<path d="M834.5 343.258V138.033H1044V343.258" stroke="#BDBDBD" stroke-width="4"/>
<rect x="843.051" y="148.719" width="41.6862" height="116.508" fill="#DFDDE2"/>
<rect x="893.289" y="148.719" width="41.6862" height="116.508" fill="#EFE8DF"/>
<rect x="993.762" y="148.719" width="41.6862" height="116.508" fill="#D9DFE9"/>
<rect x="943.523" y="148.719" width="41.6862" height="143.23" fill="#EDE3E4"/>
<path d="M868.84 116H870.808V108.44H871.144L877.744 116H880.336L872.848 107.504L880.048 99.992H877.552L871.144 106.784H870.808V99.992H868.84V116ZM880.881 110.84C880.881 113.672 882.657 116.288 886.233 116.288C888.825 116.288 890.385 114.728 890.385 114.728L889.833 113.288C889.833 113.288 888.297 114.656 886.449 114.656C884.337 114.656 883.041 113.144 882.873 110.912L889.233 110.072L890.385 109.736C890.385 106.64 888.561 104.912 886.065 104.912C882.993 104.912 880.881 107.456 880.881 110.84ZM885.945 106.472C888.105 106.472 888.321 108.776 888.321 108.776L882.897 109.472C883.161 107.792 884.217 106.472 885.945 106.472ZM892 120.128L892.6 121.688C894.952 121.4 896.272 119.168 897.256 116.816L902.08 105.2H900.112L897.064 112.832L893.92 105.2H891.88L896.08 115.208L895.384 116.816C894.64 118.52 893.56 119.816 892 120.128ZM910.318 116H912.238L912.67 102.224L917.806 116H919.294L924.43 102.392L924.934 116H926.854L926.278 99.992H923.446L918.55 113.216L913.726 99.992H910.894L910.318 116ZM929.701 110.648C929.701 113.504 931.645 116.288 934.981 116.288C938.605 116.288 940.381 113.024 940.381 110.384C940.381 107.6 938.437 104.912 935.077 104.912C931.501 104.912 929.701 107.96 929.701 110.648ZM931.669 110.432C931.669 108.104 932.989 106.544 935.029 106.544C937.453 106.544 938.413 108.632 938.413 110.696C938.413 113.024 937.093 114.656 935.053 114.656C932.701 114.656 931.669 112.544 931.669 110.432ZM943.217 116H945.089V108.848C945.713 108.224 947.537 106.568 948.929 106.568C949.673 106.568 950.273 107.072 950.273 108.68V116H952.145V108.68C952.913 107.96 954.545 106.568 955.817 106.568C956.561 106.568 957.161 107.072 957.161 108.68V116H959.033V108.152C959.033 105.824 957.857 104.912 956.321 104.912C954.377 104.912 952.769 106.328 952.025 107.072C951.713 105.536 950.705 104.912 949.433 104.912C947.417 104.912 945.761 106.4 945.089 107.12V105.032L943.217 105.368V116ZM961.81 110.84C961.81 113.672 963.586 116.288 967.162 116.288C969.754 116.288 971.314 114.728 971.314 114.728L970.762 113.288C970.762 113.288 969.226 114.656 967.378 114.656C965.266 114.656 963.97 113.144 963.802 110.912L970.162 110.072L971.314 109.736C971.314 106.64 969.49 104.912 966.994 104.912C963.922 104.912 961.81 107.456 961.81 110.84ZM966.874 106.472C969.034 106.472 969.25 108.776 969.25 108.776L963.826 109.472C964.09 107.792 965.146 106.472 966.874 106.472ZM974.202 116H976.074V108.872C976.77 108.2 978.618 106.568 980.034 106.568C980.85 106.568 981.498 107.072 981.498 108.68V116H983.37V108.152C983.37 105.824 982.146 104.912 980.538 104.912C978.45 104.912 976.77 106.424 976.074 107.144V105.032L974.202 105.368V116ZM987.386 113.144C987.386 115.352 988.49 116.288 990.194 116.288C991.994 116.288 993.314 115.184 993.314 115.184L992.858 113.672C992.858 113.672 991.706 114.656 990.578 114.656C989.762 114.656 989.258 114.08 989.258 112.64V106.712H992.762V105.2H989.258V102.224L987.386 102.68V105.08L985.85 105.704V106.712H987.386V113.144ZM1000.21 115.376H1007.05V120.632H1008.93V115.376H1011.21V113.84H1008.93V104.432H1007.34L1000.21 114.104V115.376ZM1002.25 113.84L1007.05 107.336V113.84H1002.25Z" fill="black"/>
<path d="M338.5 343.258V138.033H548V343.258" stroke="#BDBDBD" stroke-width="4"/>
<rect x="347.051" y="148.719" width="41.6862" height="160.332" fill="#DFDDE2"/>
<rect x="397.289" y="148.719" width="41.6862" height="116.508" fill="#EFE8DF"/>
<rect x="497.762" y="148.719" width="41.6862" height="116.508" fill="#D9DFE9"/>
<rect x="447.527" y="148.719" width="41.6862" height="187.054" fill="#EDE3E4"/>
<path d="M373.743 116H375.711V108.44H376.047L382.647 116H385.239L377.751 107.504L384.951 99.992H382.455L376.047 106.784H375.711V99.992H373.743V116ZM385.783 110.84C385.783 113.672 387.559 116.288 391.135 116.288C393.727 116.288 395.287 114.728 395.287 114.728L394.735 113.288C394.735 113.288 393.199 114.656 391.351 114.656C389.239 114.656 387.943 113.144 387.775 110.912L394.135 110.072L395.287 109.736C395.287 106.64 393.463 104.912 390.967 104.912C387.895 104.912 385.783 107.456 385.783 110.84ZM390.847 106.472C393.007 106.472 393.223 108.776 393.223 108.776L387.799 109.472C388.063 107.792 389.119 106.472 390.847 106.472ZM396.902 120.128L397.502 121.688C399.854 121.4 401.174 119.168 402.158 116.816L406.982 105.2H405.014L401.966 112.832L398.822 105.2H396.782L400.982 115.208L400.286 116.816C399.542 118.52 398.462 119.816 396.902 120.128ZM415.221 116H417.141L417.573 102.224L422.709 116H424.197L429.333 102.392L429.837 116H431.757L431.181 99.992H428.349L423.453 113.216L418.629 99.992H415.797L415.221 116ZM434.603 110.648C434.603 113.504 436.547 116.288 439.883 116.288C443.507 116.288 445.283 113.024 445.283 110.384C445.283 107.6 443.339 104.912 439.979 104.912C436.403 104.912 434.603 107.96 434.603 110.648ZM436.571 110.432C436.571 108.104 437.891 106.544 439.931 106.544C442.355 106.544 443.315 108.632 443.315 110.696C443.315 113.024 441.995 114.656 439.955 114.656C437.603 114.656 436.571 112.544 436.571 110.432ZM448.12 116H449.992V108.848C450.616 108.224 452.44 106.568 453.832 106.568C454.576 106.568 455.176 107.072 455.176 108.68V116H457.048V108.68C457.816 107.96 459.448 106.568 460.72 106.568C461.464 106.568 462.064 107.072 462.064 108.68V116H463.936V108.152C463.936 105.824 462.76 104.912 461.224 104.912C459.28 104.912 457.672 106.328 456.928 107.072C456.616 105.536 455.608 104.912 454.336 104.912C452.32 104.912 450.664 106.4 449.992 107.12V105.032L448.12 105.368V116ZM466.713 110.84C466.713 113.672 468.489 116.288 472.065 116.288C474.657 116.288 476.217 114.728 476.217 114.728L475.665 113.288C475.665 113.288 474.129 114.656 472.281 114.656C470.169 114.656 468.873 113.144 468.705 110.912L475.065 110.072L476.217 109.736C476.217 106.64 474.393 104.912 471.897 104.912C468.825 104.912 466.713 107.456 466.713 110.84ZM471.777 106.472C473.937 106.472 474.153 108.776 474.153 108.776L468.729 109.472C468.993 107.792 470.049 106.472 471.777 106.472ZM479.104 116H480.976V108.872C481.672 108.2 483.52 106.568 484.936 106.568C485.752 106.568 486.4 107.072 486.4 108.68V116H488.272V108.152C488.272 105.824 487.048 104.912 485.44 104.912C483.352 104.912 481.672 106.424 480.976 107.144V105.032L479.104 105.368V116ZM492.288 113.144C492.288 115.352 493.392 116.288 495.096 116.288C496.896 116.288 498.216 115.184 498.216 115.184L497.76 113.672C497.76 113.672 496.608 114.656 495.48 114.656C494.664 114.656 494.16 114.08 494.16 112.64V106.712H497.664V105.2H494.16V102.224L492.288 102.68V105.08L490.752 105.704V106.712H492.288V113.144ZM505.717 116H514.189V114.392H508.333C510.421 112.64 513.181 110.216 513.181 107.648C513.181 105.824 511.621 104.432 509.509 104.432C507.349 104.432 505.573 105.944 505.573 105.944L506.389 107.168C506.389 107.168 507.733 106.064 509.197 106.064C510.397 106.064 511.213 106.808 511.213 107.888C511.213 110.72 505.525 114.776 505.525 114.776L505.717 116Z" fill="black"/>
<path d="M113 343.258V138.033H322.5V343.258" stroke="#BDBDBD" stroke-width="4"/>
<rect x="121.551" y="148.719" width="41.6862" height="160.332" fill="#DFDDE2"/>
<rect x="171.789" y="148.719" width="41.6862" height="187.054" fill="#EFE8DF"/>
<rect x="272.262" y="148.719" width="41.6862" height="143.23" fill="#D9DFE9"/>
<rect x="222.027" y="148.719" width="41.6862" height="166.745" fill="#EDE3E4"/>
<path d="M149.227 116H151.195V108.44H151.531L158.131 116H160.723L153.235 107.504L160.435 99.992H157.939L151.531 106.784H151.195V99.992H149.227V116ZM161.268 110.84C161.268 113.672 163.044 116.288 166.62 116.288C169.212 116.288 170.772 114.728 170.772 114.728L170.22 113.288C170.22 113.288 168.684 114.656 166.836 114.656C164.724 114.656 163.428 113.144 163.26 110.912L169.62 110.072L170.772 109.736C170.772 106.64 168.948 104.912 166.452 104.912C163.38 104.912 161.268 107.456 161.268 110.84ZM166.332 106.472C168.492 106.472 168.708 108.776 168.708 108.776L163.284 109.472C163.548 107.792 164.604 106.472 166.332 106.472ZM172.387 120.128L172.987 121.688C175.339 121.4 176.659 119.168 177.643 116.816L182.467 105.2H180.499L177.451 112.832L174.307 105.2H172.267L176.467 115.208L175.771 116.816C175.027 118.52 173.947 119.816 172.387 120.128ZM190.705 116H192.625L193.057 102.224L198.193 116H199.681L204.817 102.392L205.321 116H207.241L206.665 99.992H203.833L198.937 113.216L194.113 99.992H191.281L190.705 116ZM210.087 110.648C210.087 113.504 212.031 116.288 215.367 116.288C218.991 116.288 220.767 113.024 220.767 110.384C220.767 107.6 218.823 104.912 215.463 104.912C211.887 104.912 210.087 107.96 210.087 110.648ZM212.055 110.432C212.055 108.104 213.375 106.544 215.415 106.544C217.839 106.544 218.799 108.632 218.799 110.696C218.799 113.024 217.479 114.656 215.439 114.656C213.087 114.656 212.055 112.544 212.055 110.432ZM223.604 116H225.476V108.848C226.1 108.224 227.924 106.568 229.316 106.568C230.06 106.568 230.66 107.072 230.66 108.68V116H232.532V108.68C233.3 107.96 234.932 106.568 236.204 106.568C236.948 106.568 237.548 107.072 237.548 108.68V116H239.42V108.152C239.42 105.824 238.244 104.912 236.708 104.912C234.764 104.912 233.156 106.328 232.412 107.072C232.1 105.536 231.092 104.912 229.82 104.912C227.804 104.912 226.148 106.4 225.476 107.12V105.032L223.604 105.368V116ZM242.197 110.84C242.197 113.672 243.973 116.288 247.549 116.288C250.141 116.288 251.701 114.728 251.701 114.728L251.149 113.288C251.149 113.288 249.613 114.656 247.765 114.656C245.653 114.656 244.357 113.144 244.189 110.912L250.549 110.072L251.701 109.736C251.701 106.64 249.877 104.912 247.381 104.912C244.309 104.912 242.197 107.456 242.197 110.84ZM247.261 106.472C249.421 106.472 249.637 108.776 249.637 108.776L244.213 109.472C244.477 107.792 245.533 106.472 247.261 106.472ZM254.589 116H256.461V108.872C257.157 108.2 259.005 106.568 260.421 106.568C261.237 106.568 261.885 107.072 261.885 108.68V116H263.757V108.152C263.757 105.824 262.533 104.912 260.925 104.912C258.837 104.912 257.157 106.424 256.461 107.144V105.032L254.589 105.368V116ZM267.773 113.144C267.773 115.352 268.877 116.288 270.581 116.288C272.381 116.288 273.701 115.184 273.701 115.184L273.245 113.672C273.245 113.672 272.093 114.656 270.965 114.656C270.149 114.656 269.645 114.08 269.645 112.64V106.712H273.149V105.2H269.645V102.224L267.773 102.68V105.08L266.237 105.704V106.712H267.773V113.144ZM281.154 116H287.898V114.392H285.546V104.72H281.322V106.208H283.674V114.392H281.154V116Z" fill="black"/>
<path d="M146.961 275.694L146.961 272.742C146.961 268.404 144.801 265.38 140.769 265.38C136.503 265.38 134.955 268.782 134.955 272.058L134.955 275.694L146.961 275.694ZM145.719 274.218L136.197 274.218L136.197 272.31C136.197 268.818 138.051 266.964 140.931 266.964C143.595 266.964 145.719 268.548 145.719 272.922L145.719 274.218ZM145.143 263.943C146.331 263.943 147.177 263.061 147.177 261.675C147.177 260.037 146.025 259.155 145.773 258.993C146.439 258.813 146.961 258.381 147.087 257.247L145.953 256.779C145.953 256.779 145.935 257.679 144.873 257.679L141.219 257.679C139.401 257.679 138.645 258.255 138.645 260.019C138.645 262.035 139.635 263.385 139.635 263.385L140.769 262.953C140.769 262.953 139.869 261.765 139.869 260.415C139.869 259.065 140.769 259.083 141.723 259.083L142.029 259.083C142.425 262.161 143.469 263.943 145.143 263.943ZM145.953 261.387C145.953 261.981 145.683 262.449 145.053 262.449C144.009 262.449 143.433 261.369 143.055 259.083L144.549 259.083C145.215 259.659 145.953 260.397 145.953 261.387ZM144.819 254.496C146.475 254.496 147.177 253.668 147.177 252.39C147.177 251.04 146.349 250.05 146.349 250.05L145.215 250.392C145.215 250.392 145.953 251.256 145.953 252.102C145.953 252.714 145.521 253.092 144.441 253.092L139.995 253.092L139.995 250.464L138.861 250.464L138.861 253.092L136.629 253.092L136.971 254.496L138.771 254.496L139.239 255.648L139.995 255.648L139.995 254.496L144.819 254.496ZM145.143 249.054C146.331 249.054 147.177 248.172 147.177 246.786C147.177 245.148 146.025 244.266 145.773 244.104C146.439 243.924 146.961 243.492 147.087 242.358L145.953 241.89C145.953 241.89 145.935 242.79 144.873 242.79L141.219 242.79C139.401 242.79 138.645 243.366 138.645 245.13C138.645 247.146 139.635 248.496 139.635 248.496L140.769 248.064C140.769 248.064 139.869 246.876 139.869 245.526C139.869 244.176 140.769 244.194 141.723 244.194L142.029 244.194C142.425 247.272 143.469 249.054 145.143 249.054ZM145.953 246.498C145.953 247.092 145.683 247.56 145.053 247.56C144.009 247.56 143.433 246.48 143.055 244.194L144.549 244.194C145.215 244.77 145.953 245.508 145.953 246.498ZM146.961 235.176L146.961 233.7L141.903 233.7L141.903 231.774L146.961 228.336L146.961 226.59L141.597 230.226C141.075 229.038 139.977 227.742 138.231 227.742C136.539 227.742 134.955 228.93 134.955 232.026L134.955 235.176L146.961 235.176ZM140.661 233.7L136.197 233.7L136.197 232.296C136.197 230.1 137.241 229.326 138.375 229.326C139.869 229.326 140.661 230.658 140.661 231.81L140.661 233.7ZM143.091 225.759C145.215 225.759 147.177 224.427 147.177 221.745C147.177 219.801 146.007 218.631 146.007 218.631L144.927 219.045C144.927 219.045 145.953 220.197 145.953 221.583C145.953 223.167 144.819 224.139 143.145 224.265L142.515 219.495L142.263 218.631C139.941 218.631 138.645 219.999 138.645 221.871C138.645 224.175 140.553 225.759 143.091 225.759ZM139.815 221.961C139.815 220.341 141.543 220.179 141.543 220.179L142.065 224.247C140.805 224.049 139.815 223.257 139.815 221.961ZM145.143 217.15C146.331 217.15 147.177 216.268 147.177 214.882C147.177 213.244 146.025 212.362 145.773 212.2C146.439 212.02 146.961 211.588 147.087 210.454L145.953 209.986C145.953 209.986 145.935 210.886 144.873 210.886L141.219 210.886C139.401 210.886 138.645 211.462 138.645 213.226C138.645 215.242 139.635 216.592 139.635 216.592L140.769 216.16C140.769 216.16 139.869 214.972 139.869 213.622C139.869 212.272 140.769 212.29 141.723 212.29L142.029 212.29C142.425 215.368 143.469 217.15 145.143 217.15ZM145.953 214.594C145.953 215.188 145.683 215.656 145.053 215.656C144.009 215.656 143.433 214.576 143.055 212.29L144.549 212.29C145.215 212.866 145.953 213.604 145.953 214.594ZM143.181 208.55C145.413 208.55 147.177 207.182 147.177 205.076C147.177 203.78 146.511 202.898 145.791 202.448C146.349 202.358 147.087 202.196 147.087 202.196L146.961 200.81C146.961 200.81 145.449 201.17 144.459 201.17L134.109 201.17L134.361 202.574L138.933 202.574C138.843 202.79 138.645 203.33 138.645 204.14C138.645 207.038 140.841 208.55 143.181 208.55ZM145.953 204.896C145.953 206.12 144.891 207.056 143.091 207.056C141.021 207.056 139.833 205.85 139.833 204.122C139.833 203.348 140.085 202.61 140.985 202.574L144.477 202.574C144.819 202.79 145.953 203.618 145.953 204.896ZM136.809 197.675C136.809 197.135 136.377 196.703 135.837 196.703C135.297 196.703 134.865 197.135 134.865 197.675C134.865 198.215 135.297 198.647 135.837 198.647C136.377 198.647 136.809 198.215 136.809 197.675ZM146.961 198.395L146.961 196.991L138.861 196.991L138.861 198.395L146.961 198.395ZM146.961 194.282L146.961 192.878L141.615 192.878C141.111 192.356 139.887 190.97 139.887 189.908C139.887 189.296 140.265 188.81 141.471 188.81L146.961 188.81L146.961 187.406L141.075 187.406C139.329 187.406 138.645 188.324 138.645 189.53C138.645 191.096 139.779 192.356 140.319 192.878L138.735 192.878L138.987 194.282L146.961 194.282ZM145.503 184.844C146.043 184.844 146.367 184.286 146.601 183.494C147.069 184.412 147.825 185.6 149.067 185.6C150.507 185.6 151.227 183.89 151.227 182.144C151.227 179.84 149.895 177.824 148.239 177.824C146.763 177.824 146.331 179.408 145.989 180.956C145.647 182.486 145.467 183.332 145.125 183.332C144.891 183.332 144.639 182.99 144.369 182.612C144.405 182.414 144.423 182.198 144.423 181.964C144.423 180.344 143.505 178.526 141.615 178.526C140.823 178.526 140.265 178.922 140.031 179.138C140.049 178.958 140.067 178.706 140.067 178.472L140.067 177.446L138.807 177.572C138.807 177.572 138.987 178.112 138.987 178.634L138.987 179.498C138.987 180.38 138.645 180.884 138.645 181.82C138.645 183.584 139.689 185.168 141.471 185.168C142.605 185.168 143.559 184.574 144.063 183.602C144.405 184.178 144.927 184.844 145.503 184.844ZM148.869 184.304C147.969 184.304 147.429 183.278 146.907 182.324C146.961 182.018 147.015 181.73 147.087 181.424C147.357 180.2 147.645 179.264 148.437 179.264C149.337 179.264 150.147 180.506 150.147 182.036C150.147 182.99 149.841 184.304 148.869 184.304ZM143.343 181.838C143.343 183.134 142.461 183.728 141.561 183.728C140.535 183.728 139.725 183.026 139.725 181.874C139.725 180.596 140.769 179.966 141.687 179.966C142.749 179.966 143.343 180.776 143.343 181.838Z" fill="black"/>
<path d="M83 80V360H579V80" stroke="#BDBDBD" stroke-width="12"/>
<path d="M579 80V360H1075V80" stroke="#BDBDBD" stroke-width="12"/>
<path d="M234.55 422H237.11L237.686 403.632L244.534 422H246.518L253.366 403.856L254.038 422H256.598L255.83 400.656H252.054L245.526 418.288L239.094 400.656H235.318L234.55 422ZM260.456 415.12C260.456 418.896 262.824 422.384 267.592 422.384C271.048 422.384 273.128 420.304 273.128 420.304L272.392 418.384C272.392 418.384 270.344 420.208 267.88 420.208C265.064 420.208 263.336 418.192 263.112 415.216L271.592 414.096L273.128 413.648C273.128 409.52 270.696 407.216 267.368 407.216C263.272 407.216 260.456 410.608 260.456 415.12ZM267.208 409.296C270.088 409.296 270.376 412.368 270.376 412.368L263.144 413.296C263.496 411.056 264.904 409.296 267.208 409.296ZM276.977 422H279.473V412.496C280.401 411.6 282.865 409.424 284.753 409.424C285.841 409.424 286.705 410.096 286.705 412.24V422H289.201V411.536C289.201 408.432 287.569 407.216 285.425 407.216C282.641 407.216 280.401 409.232 279.473 410.192V407.376L276.977 407.824V422ZM294.556 418.192C294.556 421.136 296.028 422.384 298.3 422.384C300.7 422.384 302.46 420.912 302.46 420.912L301.852 418.896C301.852 418.896 300.316 420.208 298.812 420.208C297.724 420.208 297.052 419.44 297.052 417.52V409.616H301.724V407.6H297.052V403.632L294.556 404.24V407.44L292.508 408.272V409.616H294.556V418.192ZM304.23 418.768C304.23 420.88 305.798 422.384 308.262 422.384C311.174 422.384 312.742 420.336 313.03 419.888C313.35 421.072 314.118 422 316.134 422.224L316.966 420.208C316.966 420.208 315.366 420.176 315.366 418.288V411.792C315.366 408.56 314.342 407.216 311.206 407.216C307.622 407.216 305.222 408.976 305.222 408.976L305.99 410.992C305.99 410.992 308.102 409.392 310.502 409.392C312.902 409.392 312.87 410.992 312.87 412.688V413.232C307.398 413.936 304.23 415.792 304.23 418.768ZM308.774 420.208C307.718 420.208 306.886 419.728 306.886 418.608C306.886 416.752 308.806 415.728 312.87 415.056V417.712C311.846 418.896 310.534 420.208 308.774 420.208ZM320.51 422H323.006V399.152L320.51 399.6V422ZM334.677 420.592C334.677 420.592 337.141 422.384 340.853 422.384C344.693 422.384 347.861 420.464 347.861 416.752C347.861 409.968 337.717 410.512 337.717 405.552C337.717 403.6 339.541 402.608 341.909 402.608C344.405 402.608 346.773 403.696 346.773 403.696L347.445 401.232C347.445 401.232 344.821 400.272 342.005 400.272C337.557 400.272 335.061 402.736 335.061 405.84C335.061 412.368 345.205 412.08 345.205 416.944C345.205 418.992 343.253 420.048 340.949 420.048C337.845 420.048 335.381 418.128 335.381 418.128L334.677 420.592ZM351.571 429.424L354.067 428.976V421.488C354.643 421.936 355.763 422.384 357.299 422.384C361.715 422.384 364.531 418.736 364.531 414.384C364.531 410.416 362.195 407.216 358.419 407.216C356.147 407.216 354.675 408.4 354.003 409.616V407.376L351.571 407.824V429.424ZM358.099 409.456C360.275 409.456 361.875 411.344 361.875 414.576C361.875 418.16 359.891 420.272 356.787 420.272C355.155 420.272 354.067 419.696 354.067 418.384V411.92C354.419 411.408 355.891 409.456 358.099 409.456ZM367.136 418.768C367.136 420.88 368.704 422.384 371.168 422.384C374.08 422.384 375.648 420.336 375.936 419.888C376.256 421.072 377.024 422 379.04 422.224L379.872 420.208C379.872 420.208 378.272 420.176 378.272 418.288V411.792C378.272 408.56 377.248 407.216 374.112 407.216C370.528 407.216 368.128 408.976 368.128 408.976L368.896 410.992C368.896 410.992 371.008 409.392 373.408 409.392C375.808 409.392 375.776 410.992 375.776 412.688V413.232C370.304 413.936 367.136 415.792 367.136 418.768ZM371.68 420.208C370.624 420.208 369.792 419.728 369.792 418.608C369.792 416.752 371.712 415.728 375.776 415.056V417.712C374.752 418.896 373.44 420.208 371.68 420.208ZM382.392 414.96C382.392 419.152 385.24 422.384 389.496 422.384C392.76 422.384 394.456 420.528 394.456 420.528L393.592 418.672C393.592 418.672 392.024 420.208 389.688 420.208C386.712 420.208 385.016 417.744 385.016 414.832C385.016 411.856 386.744 409.392 389.592 409.392C391.832 409.392 393.336 410.736 393.336 410.736L394.456 408.784C394.456 408.784 392.824 407.216 389.752 407.216C385.048 407.216 382.392 411.056 382.392 414.96ZM396.799 415.12C396.799 418.896 399.167 422.384 403.935 422.384C407.391 422.384 409.471 420.304 409.471 420.304L408.735 418.384C408.735 418.384 406.687 420.208 404.223 420.208C401.407 420.208 399.679 418.192 399.455 415.216L407.935 414.096L409.471 413.648C409.471 409.52 407.039 407.216 403.711 407.216C399.615 407.216 396.799 410.608 396.799 415.12ZM403.551 409.296C406.431 409.296 406.719 412.368 406.719 412.368L399.487 413.296C399.839 411.056 401.247 409.296 403.551 409.296ZM420.273 422H429.265V419.856H426.129V406.96H420.497V408.944H423.633V419.856H420.273V422Z" fill="black"/>
<path d="M729.237 422H731.797L732.373 403.632L739.221 422H741.205L748.053 403.856L748.725 422H751.285L750.517 400.656H746.741L740.213 418.288L733.781 400.656H730.005L729.237 422ZM755.143 415.12C755.143 418.896 757.511 422.384 762.279 422.384C765.735 422.384 767.815 420.304 767.815 420.304L767.079 418.384C767.079 418.384 765.031 420.208 762.567 420.208C759.751 420.208 758.023 418.192 757.799 415.216L766.279 414.096L767.815 413.648C767.815 409.52 765.383 407.216 762.055 407.216C757.959 407.216 755.143 410.608 755.143 415.12ZM761.895 409.296C764.775 409.296 765.063 412.368 765.063 412.368L757.831 413.296C758.183 411.056 759.591 409.296 761.895 409.296ZM771.665 422H774.161V412.496C775.089 411.6 777.553 409.424 779.441 409.424C780.529 409.424 781.393 410.096 781.393 412.24V422H783.889V411.536C783.889 408.432 782.257 407.216 780.113 407.216C777.329 407.216 775.089 409.232 774.161 410.192V407.376L771.665 407.824V422ZM789.244 418.192C789.244 421.136 790.716 422.384 792.988 422.384C795.388 422.384 797.148 420.912 797.148 420.912L796.54 418.896C796.54 418.896 795.004 420.208 793.5 420.208C792.412 420.208 791.74 419.44 791.74 417.52V409.616H796.412V407.6H791.74V403.632L789.244 404.24V407.44L787.196 408.272V409.616H789.244V418.192ZM798.918 418.768C798.918 420.88 800.486 422.384 802.95 422.384C805.862 422.384 807.43 420.336 807.718 419.888C808.038 421.072 808.806 422 810.822 422.224L811.654 420.208C811.654 420.208 810.054 420.176 810.054 418.288V411.792C810.054 408.56 809.03 407.216 805.894 407.216C802.31 407.216 799.91 408.976 799.91 408.976L800.678 410.992C800.678 410.992 802.79 409.392 805.19 409.392C807.59 409.392 807.558 410.992 807.558 412.688V413.232C802.086 413.936 798.918 415.792 798.918 418.768ZM803.462 420.208C802.406 420.208 801.574 419.728 801.574 418.608C801.574 416.752 803.494 415.728 807.558 415.056V417.712C806.534 418.896 805.222 420.208 803.462 420.208ZM815.198 422H817.694V399.152L815.198 399.6V422ZM829.364 420.592C829.364 420.592 831.828 422.384 835.54 422.384C839.38 422.384 842.548 420.464 842.548 416.752C842.548 409.968 832.404 410.512 832.404 405.552C832.404 403.6 834.228 402.608 836.596 402.608C839.092 402.608 841.46 403.696 841.46 403.696L842.132 401.232C842.132 401.232 839.508 400.272 836.692 400.272C832.244 400.272 829.748 402.736 829.748 405.84C829.748 412.368 839.892 412.08 839.892 416.944C839.892 418.992 837.94 420.048 835.636 420.048C832.532 420.048 830.068 418.128 830.068 418.128L829.364 420.592ZM846.259 429.424L848.755 428.976V421.488C849.331 421.936 850.451 422.384 851.987 422.384C856.403 422.384 859.219 418.736 859.219 414.384C859.219 410.416 856.883 407.216 853.107 407.216C850.835 407.216 849.363 408.4 848.691 409.616V407.376L846.259 407.824V429.424ZM852.787 409.456C854.963 409.456 856.563 411.344 856.563 414.576C856.563 418.16 854.579 420.272 851.475 420.272C849.843 420.272 848.755 419.696 848.755 418.384V411.92C849.107 411.408 850.579 409.456 852.787 409.456ZM861.824 418.768C861.824 420.88 863.392 422.384 865.856 422.384C868.768 422.384 870.336 420.336 870.624 419.888C870.944 421.072 871.712 422 873.728 422.224L874.56 420.208C874.56 420.208 872.96 420.176 872.96 418.288V411.792C872.96 408.56 871.936 407.216 868.8 407.216C865.216 407.216 862.816 408.976 862.816 408.976L863.584 410.992C863.584 410.992 865.696 409.392 868.096 409.392C870.496 409.392 870.464 410.992 870.464 412.688V413.232C864.992 413.936 861.824 415.792 861.824 418.768ZM866.368 420.208C865.312 420.208 864.48 419.728 864.48 418.608C864.48 416.752 866.4 415.728 870.464 415.056V417.712C869.44 418.896 868.128 420.208 866.368 420.208ZM877.08 414.96C877.08 419.152 879.928 422.384 884.184 422.384C887.448 422.384 889.144 420.528 889.144 420.528L888.28 418.672C888.28 418.672 886.712 420.208 884.376 420.208C881.4 420.208 879.704 417.744 879.704 414.832C879.704 411.856 881.432 409.392 884.28 409.392C886.52 409.392 888.024 410.736 888.024 410.736L889.144 408.784C889.144 408.784 887.512 407.216 884.44 407.216C879.736 407.216 877.08 411.056 877.08 414.96ZM891.487 415.12C891.487 418.896 893.855 422.384 898.623 422.384C902.079 422.384 904.159 420.304 904.159 420.304L903.423 418.384C903.423 418.384 901.375 420.208 898.911 420.208C896.095 420.208 894.367 418.192 894.143 415.216L902.623 414.096L904.159 413.648C904.159 409.52 901.727 407.216 898.399 407.216C894.303 407.216 891.487 410.608 891.487 415.12ZM898.239 409.296C901.119 409.296 901.407 412.368 901.407 412.368L894.175 413.296C894.527 411.056 895.935 409.296 898.239 409.296ZM915.024 422H926.32V419.856H918.512C921.296 417.52 924.976 414.288 924.976 410.864C924.976 408.432 922.896 406.576 920.08 406.576C917.2 406.576 914.832 408.592 914.832 408.592L915.92 410.224C915.92 410.224 917.712 408.752 919.664 408.752C921.264 408.752 922.352 409.744 922.352 411.184C922.352 414.96 914.768 420.368 914.768 420.368L915.024 422Z" fill="black"/>
</svg>
