<svg width="996" height="266" viewBox="0 0 996 266" fill="none" xmlns="http://www.w3.org/2000/svg">
<path d="M2 265.496V42.9914H229.14V265.496" stroke="#828282" stroke-width="4"/>
<path d="M511.906 265.496V42.9914H739.046V265.496" stroke="#828282" stroke-width="4"/>
<path d="M256.953 265.496V42.9914H484.093V265.496" stroke="#828282" stroke-width="4"/>
<path d="M766.859 265.496V42.9914H994V265.496" stroke="#828282" stroke-width="4"/>
<rect x="11.2695" y="54.5801" width="45.1963" height="173.832" fill="#DFDDE2"/>
<rect x="521.176" y="54.5801" width="45.1963" height="126.318" fill="#DFDDE2"/>
<rect x="266.223" y="54.5801" width="45.1963" height="173.832" fill="#DFDDE2"/>
<rect x="776.133" y="54.5801" width="45.1963" height="126.318" fill="#DFDDE2"/>
<rect x="65.7383" y="54.5801" width="45.1963" height="202.804" fill="#EFE8DF"/>
<rect x="575.645" y="54.5801" width="45.1963" height="155.29" fill="#EFE8DF"/>
<rect x="320.691" y="54.5801" width="45.1963" height="126.318" fill="#EFE8DF"/>
<rect x="830.598" y="54.5801" width="45.1963" height="126.318" fill="#EFE8DF"/>
<rect x="174.672" y="54.5801" width="45.1963" height="155.29" fill="#D9DFE9"/>
<rect x="684.578" y="54.5801" width="45.1963" height="155.29" fill="#D9DFE9"/>
<rect x="429.625" y="54.5801" width="45.1963" height="126.318" fill="#D9DFE9"/>
<rect x="939.531" y="54.5801" width="45.1963" height="126.318" fill="#D9DFE9"/>
<rect x="120.207" y="54.5801" width="45.1963" height="180.785" fill="#EDE3E4"/>
<rect x="630.113" y="54.5801" width="45.1963" height="180.785" fill="#EDE3E4"/>
<rect x="375.16" y="54.5801" width="45.1963" height="202.804" fill="#EDE3E4"/>
<rect x="885.066" y="54.5801" width="45.1963" height="155.29" fill="#EDE3E4"/>
<path d="M47.0471 25H49.0151V17.44H49.3511L55.9511 25H58.5431L51.0551 16.504L58.2551 8.992H55.7591L49.3511 15.784H49.0151V8.992H47.0471V25ZM59.0876 19.84C59.0876 22.672 60.8636 25.288 64.4396 25.288C67.0316 25.288 68.5916 23.728 68.5916 23.728L68.0396 22.288C68.0396 22.288 66.5036 23.656 64.6556 23.656C62.5436 23.656 61.2476 22.144 61.0796 19.912L67.4396 19.072L68.5916 18.736C68.5916 15.64 66.7676 13.912 64.2716 13.912C61.1996 13.912 59.0876 16.456 59.0876 19.84ZM64.1516 15.472C66.3116 15.472 66.5276 17.776 66.5276 17.776L61.1036 18.472C61.3676 16.792 62.4236 15.472 64.1516 15.472ZM70.2069 29.128L70.8069 30.688C73.1589 30.4 74.4789 28.168 75.4629 25.816L80.2869 14.2H78.3189L75.2709 21.832L72.1269 14.2H70.0869L74.2869 24.208L73.5909 25.816C72.8469 27.52 71.7669 28.816 70.2069 29.128ZM88.5253 25H90.4453L90.8773 11.224L96.0133 25H97.5013L102.637 11.392L103.141 25H105.061L104.485 8.992H101.653L96.7573 22.216L91.9333 8.992H89.1013L88.5253 25ZM107.907 19.648C107.907 22.504 109.851 25.288 113.187 25.288C116.811 25.288 118.587 22.024 118.587 19.384C118.587 16.6 116.643 13.912 113.283 13.912C109.707 13.912 107.907 16.96 107.907 19.648ZM109.875 19.432C109.875 17.104 111.195 15.544 113.235 15.544C115.659 15.544 116.619 17.632 116.619 19.696C116.619 22.024 115.299 23.656 113.259 23.656C110.907 23.656 109.875 21.544 109.875 19.432ZM121.424 25H123.296V17.848C123.92 17.224 125.744 15.568 127.136 15.568C127.88 15.568 128.48 16.072 128.48 17.68V25H130.352V17.68C131.12 16.96 132.752 15.568 134.024 15.568C134.768 15.568 135.368 16.072 135.368 17.68V25H137.24V17.152C137.24 14.824 136.064 13.912 134.528 13.912C132.584 13.912 130.976 15.328 130.232 16.072C129.92 14.536 128.912 13.912 127.64 13.912C125.624 13.912 123.968 15.4 123.296 16.12V14.032L121.424 14.368V25ZM140.017 19.84C140.017 22.672 141.793 25.288 145.369 25.288C147.961 25.288 149.521 23.728 149.521 23.728L148.969 22.288C148.969 22.288 147.433 23.656 145.585 23.656C143.473 23.656 142.177 22.144 142.009 19.912L148.369 19.072L149.521 18.736C149.521 15.64 147.697 13.912 145.201 13.912C142.129 13.912 140.017 16.456 140.017 19.84ZM145.081 15.472C147.241 15.472 147.457 17.776 147.457 17.776L142.033 18.472C142.297 16.792 143.353 15.472 145.081 15.472ZM152.409 25H154.281V17.872C154.977 17.2 156.825 15.568 158.241 15.568C159.057 15.568 159.705 16.072 159.705 17.68V25H161.577V17.152C161.577 14.824 160.353 13.912 158.745 13.912C156.657 13.912 154.977 15.424 154.281 16.144V14.032L152.409 14.368V25ZM165.593 22.144C165.593 24.352 166.697 25.288 168.401 25.288C170.201 25.288 171.521 24.184 171.521 24.184L171.065 22.672C171.065 22.672 169.913 23.656 168.785 23.656C167.969 23.656 167.465 23.08 167.465 21.64V15.712H170.969V14.2H167.465V11.224L165.593 11.68V14.08L164.057 14.704V15.712H165.593V22.144ZM178.974 25H185.718V23.392H183.366V13.72H179.142V15.208H181.494V23.392H178.974V25Z" fill="black"/>
<path d="M556.52 25H558.488V17.44H558.824L565.424 25H568.016L560.528 16.504L567.728 8.992H565.232L558.824 15.784H558.488V8.992H556.52V25ZM568.56 19.84C568.56 22.672 570.336 25.288 573.912 25.288C576.504 25.288 578.064 23.728 578.064 23.728L577.512 22.288C577.512 22.288 575.976 23.656 574.128 23.656C572.016 23.656 570.72 22.144 570.552 19.912L576.912 19.072L578.064 18.736C578.064 15.64 576.24 13.912 573.744 13.912C570.672 13.912 568.56 16.456 568.56 19.84ZM573.624 15.472C575.784 15.472 576 17.776 576 17.776L570.576 18.472C570.84 16.792 571.896 15.472 573.624 15.472ZM579.68 29.128L580.28 30.688C582.632 30.4 583.952 28.168 584.936 25.816L589.76 14.2H587.792L584.744 21.832L581.6 14.2H579.56L583.76 24.208L583.064 25.816C582.32 27.52 581.24 28.816 579.68 29.128ZM597.998 25H599.918L600.35 11.224L605.486 25H606.974L612.11 11.392L612.614 25H614.534L613.958 8.992H611.126L606.23 22.216L601.406 8.992H598.574L597.998 25ZM617.38 19.648C617.38 22.504 619.324 25.288 622.66 25.288C626.284 25.288 628.06 22.024 628.06 19.384C628.06 16.6 626.116 13.912 622.756 13.912C619.18 13.912 617.38 16.96 617.38 19.648ZM619.348 19.432C619.348 17.104 620.668 15.544 622.708 15.544C625.132 15.544 626.092 17.632 626.092 19.696C626.092 22.024 624.772 23.656 622.732 23.656C620.38 23.656 619.348 21.544 619.348 19.432ZM630.897 25H632.769V17.848C633.393 17.224 635.217 15.568 636.609 15.568C637.353 15.568 637.953 16.072 637.953 17.68V25H639.825V17.68C640.593 16.96 642.225 15.568 643.497 15.568C644.241 15.568 644.841 16.072 644.841 17.68V25H646.713V17.152C646.713 14.824 645.537 13.912 644.001 13.912C642.057 13.912 640.449 15.328 639.705 16.072C639.393 14.536 638.385 13.912 637.113 13.912C635.097 13.912 633.441 15.4 632.769 16.12V14.032L630.897 14.368V25ZM649.49 19.84C649.49 22.672 651.266 25.288 654.842 25.288C657.434 25.288 658.994 23.728 658.994 23.728L658.442 22.288C658.442 22.288 656.906 23.656 655.058 23.656C652.946 23.656 651.65 22.144 651.482 19.912L657.842 19.072L658.994 18.736C658.994 15.64 657.17 13.912 654.674 13.912C651.602 13.912 649.49 16.456 649.49 19.84ZM654.554 15.472C656.714 15.472 656.93 17.776 656.93 17.776L651.506 18.472C651.77 16.792 652.826 15.472 654.554 15.472ZM661.881 25H663.753V17.872C664.449 17.2 666.297 15.568 667.713 15.568C668.529 15.568 669.177 16.072 669.177 17.68V25H671.049V17.152C671.049 14.824 669.825 13.912 668.217 13.912C666.129 13.912 664.449 15.424 663.753 16.144V14.032L661.881 14.368V25ZM675.066 22.144C675.066 24.352 676.17 25.288 677.874 25.288C679.674 25.288 680.994 24.184 680.994 24.184L680.538 22.672C680.538 22.672 679.386 23.656 678.258 23.656C677.442 23.656 676.938 23.08 676.938 21.64V15.712H680.442V14.2H676.938V11.224L675.066 11.68V14.08L673.53 14.704V15.712H675.066V22.144ZM687.894 28.072L688.062 29.56C688.278 29.584 688.494 29.584 688.71 29.584C692.79 29.584 695.694 27.472 695.694 24.4C695.694 22.504 694.518 21.088 692.382 20.632C693.75 19.84 695.286 18.4 695.286 16.6C695.286 14.728 693.726 13.432 691.662 13.432C689.454 13.432 687.702 14.944 687.702 14.944L688.518 16.168C688.518 16.168 689.886 15.064 691.422 15.064C692.55 15.064 693.318 15.736 693.318 16.792C693.318 18.472 691.11 20.128 689.358 20.32V21.856H690.03C691.83 21.856 693.726 22.48 693.726 24.544C693.726 26.848 691.374 28.096 688.614 28.096C688.374 28.096 688.134 28.096 687.894 28.072Z" fill="black"/>
<path d="M301.016 25H302.984V17.44H303.32L309.92 25H312.512L305.024 16.504L312.224 8.992H309.728L303.32 15.784H302.984V8.992H301.016V25ZM313.056 19.84C313.056 22.672 314.832 25.288 318.408 25.288C321 25.288 322.56 23.728 322.56 23.728L322.008 22.288C322.008 22.288 320.472 23.656 318.624 23.656C316.512 23.656 315.216 22.144 315.048 19.912L321.408 19.072L322.56 18.736C322.56 15.64 320.736 13.912 318.24 13.912C315.168 13.912 313.056 16.456 313.056 19.84ZM318.12 15.472C320.28 15.472 320.496 17.776 320.496 17.776L315.072 18.472C315.336 16.792 316.392 15.472 318.12 15.472ZM324.176 29.128L324.776 30.688C327.128 30.4 328.448 28.168 329.432 25.816L334.256 14.2H332.288L329.24 21.832L326.096 14.2H324.056L328.256 24.208L327.56 25.816C326.816 27.52 325.736 28.816 324.176 29.128ZM342.494 25H344.414L344.846 11.224L349.982 25H351.47L356.606 11.392L357.11 25H359.03L358.454 8.992H355.622L350.726 22.216L345.902 8.992H343.07L342.494 25ZM361.876 19.648C361.876 22.504 363.82 25.288 367.156 25.288C370.78 25.288 372.556 22.024 372.556 19.384C372.556 16.6 370.612 13.912 367.252 13.912C363.676 13.912 361.876 16.96 361.876 19.648ZM363.844 19.432C363.844 17.104 365.164 15.544 367.204 15.544C369.628 15.544 370.588 17.632 370.588 19.696C370.588 22.024 369.268 23.656 367.228 23.656C364.876 23.656 363.844 21.544 363.844 19.432ZM375.393 25H377.265V17.848C377.889 17.224 379.713 15.568 381.105 15.568C381.849 15.568 382.449 16.072 382.449 17.68V25H384.321V17.68C385.089 16.96 386.721 15.568 387.993 15.568C388.737 15.568 389.337 16.072 389.337 17.68V25H391.209V17.152C391.209 14.824 390.033 13.912 388.497 13.912C386.553 13.912 384.945 15.328 384.201 16.072C383.889 14.536 382.881 13.912 381.609 13.912C379.593 13.912 377.937 15.4 377.265 16.12V14.032L375.393 14.368V25ZM393.986 19.84C393.986 22.672 395.762 25.288 399.338 25.288C401.93 25.288 403.49 23.728 403.49 23.728L402.938 22.288C402.938 22.288 401.402 23.656 399.554 23.656C397.442 23.656 396.146 22.144 395.978 19.912L402.338 19.072L403.49 18.736C403.49 15.64 401.666 13.912 399.17 13.912C396.098 13.912 393.986 16.456 393.986 19.84ZM399.05 15.472C401.21 15.472 401.426 17.776 401.426 17.776L396.002 18.472C396.266 16.792 397.322 15.472 399.05 15.472ZM406.377 25H408.249V17.872C408.945 17.2 410.793 15.568 412.209 15.568C413.025 15.568 413.673 16.072 413.673 17.68V25H415.545V17.152C415.545 14.824 414.321 13.912 412.713 13.912C410.625 13.912 408.945 15.424 408.249 16.144V14.032L406.377 14.368V25ZM419.562 22.144C419.562 24.352 420.666 25.288 422.37 25.288C424.17 25.288 425.49 24.184 425.49 24.184L425.034 22.672C425.034 22.672 423.882 23.656 422.754 23.656C421.938 23.656 421.434 23.08 421.434 21.64V15.712H424.938V14.2H421.434V11.224L419.562 11.68V14.08L418.026 14.704V15.712H419.562V22.144ZM432.991 25H441.463V23.392H435.607C437.695 21.64 440.455 19.216 440.455 16.648C440.455 14.824 438.895 13.432 436.783 13.432C434.623 13.432 432.847 14.944 432.847 14.944L433.663 16.168C433.663 16.168 435.007 15.064 436.471 15.064C437.671 15.064 438.487 15.808 438.487 16.888C438.487 19.72 432.799 23.776 432.799 23.776L432.991 25Z" fill="black"/>
<path d="M810.02 25H811.988V17.44H812.324L818.924 25H821.516L814.028 16.504L821.228 8.992H818.732L812.324 15.784H811.988V8.992H810.02V25ZM822.06 19.84C822.06 22.672 823.836 25.288 827.412 25.288C830.004 25.288 831.564 23.728 831.564 23.728L831.012 22.288C831.012 22.288 829.476 23.656 827.628 23.656C825.516 23.656 824.22 22.144 824.052 19.912L830.412 19.072L831.564 18.736C831.564 15.64 829.74 13.912 827.244 13.912C824.172 13.912 822.06 16.456 822.06 19.84ZM827.124 15.472C829.284 15.472 829.5 17.776 829.5 17.776L824.076 18.472C824.34 16.792 825.396 15.472 827.124 15.472ZM833.18 29.128L833.78 30.688C836.132 30.4 837.452 28.168 838.436 25.816L843.26 14.2H841.292L838.244 21.832L835.1 14.2H833.06L837.26 24.208L836.564 25.816C835.82 27.52 834.74 28.816 833.18 29.128ZM851.498 25H853.418L853.85 11.224L858.986 25H860.474L865.61 11.392L866.114 25H868.034L867.458 8.992H864.626L859.73 22.216L854.906 8.992H852.074L851.498 25ZM870.88 19.648C870.88 22.504 872.824 25.288 876.16 25.288C879.784 25.288 881.56 22.024 881.56 19.384C881.56 16.6 879.616 13.912 876.256 13.912C872.68 13.912 870.88 16.96 870.88 19.648ZM872.848 19.432C872.848 17.104 874.168 15.544 876.208 15.544C878.632 15.544 879.592 17.632 879.592 19.696C879.592 22.024 878.272 23.656 876.232 23.656C873.88 23.656 872.848 21.544 872.848 19.432ZM884.397 25H886.269V17.848C886.893 17.224 888.717 15.568 890.109 15.568C890.853 15.568 891.453 16.072 891.453 17.68V25H893.325V17.68C894.093 16.96 895.725 15.568 896.997 15.568C897.741 15.568 898.341 16.072 898.341 17.68V25H900.213V17.152C900.213 14.824 899.037 13.912 897.501 13.912C895.557 13.912 893.949 15.328 893.205 16.072C892.893 14.536 891.885 13.912 890.613 13.912C888.597 13.912 886.941 15.4 886.269 16.12V14.032L884.397 14.368V25ZM902.99 19.84C902.99 22.672 904.766 25.288 908.342 25.288C910.934 25.288 912.494 23.728 912.494 23.728L911.942 22.288C911.942 22.288 910.406 23.656 908.558 23.656C906.446 23.656 905.15 22.144 904.982 19.912L911.342 19.072L912.494 18.736C912.494 15.64 910.67 13.912 908.174 13.912C905.102 13.912 902.99 16.456 902.99 19.84ZM908.054 15.472C910.214 15.472 910.43 17.776 910.43 17.776L905.006 18.472C905.27 16.792 906.326 15.472 908.054 15.472ZM915.381 25H917.253V17.872C917.949 17.2 919.797 15.568 921.213 15.568C922.029 15.568 922.677 16.072 922.677 17.68V25H924.549V17.152C924.549 14.824 923.325 13.912 921.717 13.912C919.629 13.912 917.949 15.424 917.253 16.144V14.032L915.381 14.368V25ZM928.566 22.144C928.566 24.352 929.67 25.288 931.374 25.288C933.174 25.288 934.494 24.184 934.494 24.184L934.038 22.672C934.038 22.672 932.886 23.656 931.758 23.656C930.942 23.656 930.438 23.08 930.438 21.64V15.712H933.942V14.2H930.438V11.224L928.566 11.68V14.08L927.03 14.704V15.712H928.566V22.144ZM941.394 24.376H948.234V29.632H950.106V24.376H952.386V22.84H950.106V13.432H948.522L941.394 23.104V24.376ZM943.434 22.84L948.234 16.336V22.84H943.434Z" fill="black"/>
<path d="M37.2227 188.171L37.2227 185.219C37.2227 180.881 35.0627 177.857 31.0307 177.857C26.7647 177.857 25.2167 181.259 25.2167 184.535L25.2167 188.171L37.2227 188.171ZM35.9807 186.695L26.4587 186.695L26.4587 184.787C26.4587 181.295 28.3127 179.441 31.1927 179.441C33.8567 179.441 35.9807 181.025 35.9807 185.399L35.9807 186.695ZM35.4047 176.42C36.5927 176.42 37.4387 175.538 37.4387 174.152C37.4387 172.514 36.2867 171.632 36.0347 171.47C36.7007 171.29 37.2227 170.858 37.3487 169.724L36.2147 169.256C36.2147 169.256 36.1967 170.156 35.1347 170.156L31.4807 170.156C29.6627 170.156 28.9067 170.732 28.9067 172.496C28.9067 174.512 29.8967 175.862 29.8967 175.862L31.0307 175.43C31.0307 175.43 30.1307 174.242 30.1307 172.892C30.1307 171.542 31.0307 171.56 31.9847 171.56L32.2907 171.56C32.6867 174.638 33.7307 176.42 35.4047 176.42ZM36.2147 173.864C36.2147 174.458 35.9447 174.926 35.3147 174.926C34.2707 174.926 33.6947 173.846 33.3167 171.56L34.8107 171.56C35.4767 172.136 36.2147 172.874 36.2147 173.864ZM35.0807 166.972C36.7367 166.972 37.4387 166.144 37.4387 164.866C37.4387 163.516 36.6107 162.526 36.6107 162.526L35.4767 162.868C35.4767 162.868 36.2147 163.732 36.2147 164.578C36.2147 165.19 35.7827 165.568 34.7027 165.568L30.2567 165.568L30.2567 162.94L29.1227 162.94L29.1227 165.568L26.8907 165.568L27.2327 166.972L29.0327 166.972L29.5007 168.124L30.2567 168.124L30.2567 166.972L35.0807 166.972ZM35.4047 161.531C36.5927 161.531 37.4387 160.649 37.4387 159.263C37.4387 157.625 36.2867 156.743 36.0347 156.581C36.7007 156.401 37.2227 155.969 37.3487 154.835L36.2147 154.367C36.2147 154.367 36.1967 155.267 35.1347 155.267L31.4807 155.267C29.6627 155.267 28.9067 155.843 28.9067 157.607C28.9067 159.623 29.8967 160.973 29.8967 160.973L31.0307 160.541C31.0307 160.541 30.1307 159.353 30.1307 158.003C30.1307 156.653 31.0307 156.671 31.9847 156.671L32.2907 156.671C32.6867 159.749 33.7307 161.531 35.4047 161.531ZM36.2147 158.975C36.2147 159.569 35.9447 160.037 35.3147 160.037C34.2707 160.037 33.6947 158.957 33.3167 156.671L34.8107 156.671C35.4767 157.247 36.2147 157.985 36.2147 158.975ZM37.2227 147.653L37.2227 146.177L32.1647 146.177L32.1647 144.251L37.2227 140.813L37.2227 139.067L31.8587 142.703C31.3367 141.515 30.2387 140.219 28.4927 140.219C26.8007 140.219 25.2167 141.407 25.2167 144.503L25.2167 147.653L37.2227 147.653ZM30.9227 146.177L26.4587 146.177L26.4587 144.773C26.4587 142.577 27.5027 141.803 28.6367 141.803C30.1307 141.803 30.9227 143.135 30.9227 144.287L30.9227 146.177ZM33.3527 138.236C35.4767 138.236 37.4387 136.904 37.4387 134.222C37.4387 132.278 36.2687 131.108 36.2687 131.108L35.1887 131.522C35.1887 131.522 36.2147 132.674 36.2147 134.06C36.2147 135.644 35.0807 136.616 33.4067 136.742L32.7767 131.972L32.5247 131.108C30.2027 131.108 28.9067 132.476 28.9067 134.348C28.9067 136.652 30.8147 138.236 33.3527 138.236ZM30.0767 134.438C30.0767 132.818 31.8047 132.656 31.8047 132.656L32.3267 136.724C31.0667 136.526 30.0767 135.734 30.0767 134.438ZM35.4047 129.627C36.5927 129.627 37.4387 128.745 37.4387 127.359C37.4387 125.721 36.2867 124.839 36.0347 124.677C36.7007 124.497 37.2227 124.065 37.3487 122.931L36.2147 122.463C36.2147 122.463 36.1967 123.363 35.1347 123.363L31.4807 123.363C29.6627 123.363 28.9067 123.939 28.9067 125.703C28.9067 127.719 29.8967 129.069 29.8967 129.069L31.0307 128.637C31.0307 128.637 30.1307 127.449 30.1307 126.099C30.1307 124.749 31.0307 124.767 31.9847 124.767L32.2907 124.767C32.6867 127.845 33.7307 129.627 35.4047 129.627ZM36.2147 127.071C36.2147 127.665 35.9447 128.133 35.3147 128.133C34.2707 128.133 33.6947 127.053 33.3167 124.767L34.8107 124.767C35.4767 125.343 36.2147 126.081 36.2147 127.071ZM33.4427 121.027C35.6747 121.027 37.4387 119.659 37.4387 117.553C37.4387 116.257 36.7727 115.375 36.0527 114.925C36.6107 114.835 37.3487 114.673 37.3487 114.673L37.2227 113.287C37.2227 113.287 35.7107 113.647 34.7207 113.647L24.3707 113.647L24.6227 115.051L29.1947 115.051C29.1047 115.267 28.9067 115.807 28.9067 116.617C28.9067 119.515 31.1027 121.027 33.4427 121.027ZM36.2147 117.373C36.2147 118.597 35.1527 119.533 33.3527 119.533C31.2827 119.533 30.0947 118.327 30.0947 116.599C30.0947 115.825 30.3467 115.087 31.2467 115.051L34.7387 115.051C35.0807 115.267 36.2147 116.095 36.2147 117.373ZM27.0707 110.151C27.0707 109.611 26.6387 109.179 26.0987 109.179C25.5587 109.179 25.1267 109.611 25.1267 110.151C25.1267 110.691 25.5587 111.123 26.0987 111.123C26.6387 111.123 27.0707 110.691 27.0707 110.151ZM37.2227 110.871L37.2227 109.467L29.1227 109.467L29.1227 110.871L37.2227 110.871ZM37.2227 106.759L37.2227 105.355L31.8767 105.355C31.3727 104.833 30.1487 103.447 30.1487 102.385C30.1487 101.773 30.5267 101.287 31.7327 101.287L37.2227 101.287L37.2227 99.883L31.3367 99.883C29.5907 99.883 28.9067 100.801 28.9067 102.007C28.9067 103.573 30.0407 104.833 30.5807 105.355L28.9967 105.355L29.2487 106.759L37.2227 106.759ZM35.7647 97.3208C36.3047 97.3208 36.6287 96.7628 36.8627 95.9708C37.3307 96.8888 38.0867 98.0768 39.3287 98.0768C40.7687 98.0768 41.4887 96.3668 41.4887 94.6208C41.4887 92.3168 40.1567 90.3008 38.5007 90.3008C37.0247 90.3008 36.5927 91.8848 36.2507 93.4328C35.9087 94.9628 35.7287 95.8088 35.3867 95.8088C35.1527 95.8088 34.9007 95.4668 34.6307 95.0888C34.6667 94.8908 34.6847 94.6748 34.6847 94.4408C34.6847 92.8208 33.7667 91.0028 31.8767 91.0028C31.0847 91.0028 30.5267 91.3988 30.2927 91.6148C30.3107 91.4348 30.3287 91.1828 30.3287 90.9488L30.3287 89.9228L29.0687 90.0488C29.0687 90.0488 29.2487 90.5888 29.2487 91.1108L29.2487 91.9748C29.2487 92.8568 28.9067 93.3608 28.9067 94.2968C28.9067 96.0608 29.9507 97.6448 31.7327 97.6448C32.8667 97.6448 33.8207 97.0508 34.3247 96.0788C34.6667 96.6548 35.1887 97.3208 35.7647 97.3208ZM39.1307 96.7808C38.2307 96.7808 37.6907 95.7548 37.1687 94.8008C37.2227 94.4948 37.2767 94.2068 37.3487 93.9008C37.6187 92.6768 37.9067 91.7408 38.6987 91.7408C39.5987 91.7408 40.4087 92.9828 40.4087 94.5128C40.4087 95.4668 40.1027 96.7808 39.1307 96.7808ZM33.6047 94.3148C33.6047 95.6108 32.7227 96.2048 31.8227 96.2048C30.7967 96.2048 29.9867 95.5028 29.9867 94.3508C29.9867 93.0728 31.0307 92.4428 31.9487 92.4428C33.0107 92.4428 33.6047 93.2528 33.6047 94.3148Z" fill="black"/>
</svg>
