<svg width="1158" height="426" viewBox="0 0 1158 426" fill="none" xmlns="http://www.w3.org/2000/svg">
<rect x="1" y="1" width="1156" height="424" fill="#FAFAFA" stroke="#BDBDBD" stroke-width="2"/>
<path d="M83 345.496V122.991H310.14V345.496" stroke="#828282" stroke-width="4"/>
<path d="M592.906 345.496V122.991H820.046V345.496" stroke="#828282" stroke-width="4"/>
<path d="M337.953 345.496V122.991H565.093V345.496" stroke="#828282" stroke-width="4"/>
<path d="M847.859 345.496V122.991H1075V345.496" stroke="#828282" stroke-width="4"/>
<rect x="92.2695" y="134.578" width="45.1963" height="173.832" fill="#DFDDE2"/>
<rect x="602.176" y="134.578" width="45.1963" height="126.318" fill="#DFDDE2"/>
<rect x="347.223" y="134.578" width="45.1963" height="173.832" fill="#DFDDE2"/>
<rect x="857.133" y="134.578" width="45.1963" height="126.318" fill="#DFDDE2"/>
<rect x="146.738" y="134.578" width="45.1963" height="202.804" fill="#EFE8DF"/>
<rect x="656.645" y="134.578" width="45.1963" height="155.29" fill="#EFE8DF"/>
<rect x="401.691" y="134.578" width="45.1963" height="126.318" fill="#EFE8DF"/>
<rect x="911.598" y="134.578" width="45.1963" height="126.318" fill="#EFE8DF"/>
<rect x="255.672" y="134.578" width="45.1963" height="155.29" fill="#D9DFE9"/>
<rect x="765.578" y="134.578" width="45.1963" height="155.29" fill="#D9DFE9"/>
<rect x="510.625" y="134.578" width="45.1963" height="126.318" fill="#D9DFE9"/>
<rect x="1020.53" y="134.578" width="45.1963" height="126.318" fill="#D9DFE9"/>
<rect x="201.207" y="134.578" width="45.1963" height="180.785" fill="#EDE3E4"/>
<rect x="711.113" y="134.578" width="45.1963" height="180.785" fill="#EDE3E4"/>
<rect x="456.16" y="134.578" width="45.1963" height="202.804" fill="#EDE3E4"/>
<rect x="966.066" y="134.578" width="45.1963" height="155.29" fill="#EDE3E4"/>
<path d="M128.047 105H130.015V97.44H130.351L136.951 105H139.543L132.055 96.504L139.255 88.992H136.759L130.351 95.784H130.015V88.992H128.047V105ZM140.088 99.84C140.088 102.672 141.864 105.288 145.44 105.288C148.032 105.288 149.592 103.728 149.592 103.728L149.04 102.288C149.04 102.288 147.504 103.656 145.656 103.656C143.544 103.656 142.248 102.144 142.08 99.912L148.44 99.072L149.592 98.736C149.592 95.64 147.768 93.912 145.272 93.912C142.2 93.912 140.088 96.456 140.088 99.84ZM145.152 95.472C147.312 95.472 147.528 97.776 147.528 97.776L142.104 98.472C142.368 96.792 143.424 95.472 145.152 95.472ZM151.207 109.128L151.807 110.688C154.159 110.4 155.479 108.168 156.463 105.816L161.287 94.2H159.319L156.271 101.832L153.127 94.2H151.087L155.287 104.208L154.591 105.816C153.847 107.52 152.767 108.816 151.207 109.128ZM169.525 105H171.445L171.877 91.224L177.013 105H178.501L183.637 91.392L184.141 105H186.061L185.485 88.992H182.653L177.757 102.216L172.933 88.992H170.101L169.525 105ZM188.907 99.648C188.907 102.504 190.851 105.288 194.187 105.288C197.811 105.288 199.587 102.024 199.587 99.384C199.587 96.6 197.643 93.912 194.283 93.912C190.707 93.912 188.907 96.96 188.907 99.648ZM190.875 99.432C190.875 97.104 192.195 95.544 194.235 95.544C196.659 95.544 197.619 97.632 197.619 99.696C197.619 102.024 196.299 103.656 194.259 103.656C191.907 103.656 190.875 101.544 190.875 99.432ZM202.424 105H204.296V97.848C204.92 97.224 206.744 95.568 208.136 95.568C208.88 95.568 209.48 96.072 209.48 97.68V105H211.352V97.68C212.12 96.96 213.752 95.568 215.024 95.568C215.768 95.568 216.368 96.072 216.368 97.68V105H218.24V97.152C218.24 94.824 217.064 93.912 215.528 93.912C213.584 93.912 211.976 95.328 211.232 96.072C210.92 94.536 209.912 93.912 208.64 93.912C206.624 93.912 204.968 95.4 204.296 96.12V94.032L202.424 94.368V105ZM221.017 99.84C221.017 102.672 222.793 105.288 226.369 105.288C228.961 105.288 230.521 103.728 230.521 103.728L229.969 102.288C229.969 102.288 228.433 103.656 226.585 103.656C224.473 103.656 223.177 102.144 223.009 99.912L229.369 99.072L230.521 98.736C230.521 95.64 228.697 93.912 226.201 93.912C223.129 93.912 221.017 96.456 221.017 99.84ZM226.081 95.472C228.241 95.472 228.457 97.776 228.457 97.776L223.033 98.472C223.297 96.792 224.353 95.472 226.081 95.472ZM233.409 105H235.281V97.872C235.977 97.2 237.825 95.568 239.241 95.568C240.057 95.568 240.705 96.072 240.705 97.68V105H242.577V97.152C242.577 94.824 241.353 93.912 239.745 93.912C237.657 93.912 235.977 95.424 235.281 96.144V94.032L233.409 94.368V105ZM246.593 102.144C246.593 104.352 247.697 105.288 249.401 105.288C251.201 105.288 252.521 104.184 252.521 104.184L252.065 102.672C252.065 102.672 250.913 103.656 249.785 103.656C248.969 103.656 248.465 103.08 248.465 101.64V95.712H251.969V94.2H248.465V91.224L246.593 91.68V94.08L245.057 94.704V95.712H246.593V102.144ZM259.974 105H266.718V103.392H264.366V93.72H260.142V95.208H262.494V103.392H259.974V105Z" fill="black"/>
<path d="M637.52 105H639.488V97.44H639.824L646.424 105H649.016L641.528 96.504L648.728 88.992H646.232L639.824 95.784H639.488V88.992H637.52V105ZM649.56 99.84C649.56 102.672 651.336 105.288 654.912 105.288C657.504 105.288 659.064 103.728 659.064 103.728L658.512 102.288C658.512 102.288 656.976 103.656 655.128 103.656C653.016 103.656 651.72 102.144 651.552 99.912L657.912 99.072L659.064 98.736C659.064 95.64 657.24 93.912 654.744 93.912C651.672 93.912 649.56 96.456 649.56 99.84ZM654.624 95.472C656.784 95.472 657 97.776 657 97.776L651.576 98.472C651.84 96.792 652.896 95.472 654.624 95.472ZM660.68 109.128L661.28 110.688C663.632 110.4 664.952 108.168 665.936 105.816L670.76 94.2H668.792L665.744 101.832L662.6 94.2H660.56L664.76 104.208L664.064 105.816C663.32 107.52 662.24 108.816 660.68 109.128ZM678.998 105H680.918L681.35 91.224L686.486 105H687.974L693.11 91.392L693.614 105H695.534L694.958 88.992H692.126L687.23 102.216L682.406 88.992H679.574L678.998 105ZM698.38 99.648C698.38 102.504 700.324 105.288 703.66 105.288C707.284 105.288 709.06 102.024 709.06 99.384C709.06 96.6 707.116 93.912 703.756 93.912C700.18 93.912 698.38 96.96 698.38 99.648ZM700.348 99.432C700.348 97.104 701.668 95.544 703.708 95.544C706.132 95.544 707.092 97.632 707.092 99.696C707.092 102.024 705.772 103.656 703.732 103.656C701.38 103.656 700.348 101.544 700.348 99.432ZM711.897 105H713.769V97.848C714.393 97.224 716.217 95.568 717.609 95.568C718.353 95.568 718.953 96.072 718.953 97.68V105H720.825V97.68C721.593 96.96 723.225 95.568 724.497 95.568C725.241 95.568 725.841 96.072 725.841 97.68V105H727.713V97.152C727.713 94.824 726.537 93.912 725.001 93.912C723.057 93.912 721.449 95.328 720.705 96.072C720.393 94.536 719.385 93.912 718.113 93.912C716.097 93.912 714.441 95.4 713.769 96.12V94.032L711.897 94.368V105ZM730.49 99.84C730.49 102.672 732.266 105.288 735.842 105.288C738.434 105.288 739.994 103.728 739.994 103.728L739.442 102.288C739.442 102.288 737.906 103.656 736.058 103.656C733.946 103.656 732.65 102.144 732.482 99.912L738.842 99.072L739.994 98.736C739.994 95.64 738.17 93.912 735.674 93.912C732.602 93.912 730.49 96.456 730.49 99.84ZM735.554 95.472C737.714 95.472 737.93 97.776 737.93 97.776L732.506 98.472C732.77 96.792 733.826 95.472 735.554 95.472ZM742.881 105H744.753V97.872C745.449 97.2 747.297 95.568 748.713 95.568C749.529 95.568 750.177 96.072 750.177 97.68V105H752.049V97.152C752.049 94.824 750.825 93.912 749.217 93.912C747.129 93.912 745.449 95.424 744.753 96.144V94.032L742.881 94.368V105ZM756.066 102.144C756.066 104.352 757.17 105.288 758.874 105.288C760.674 105.288 761.994 104.184 761.994 104.184L761.538 102.672C761.538 102.672 760.386 103.656 759.258 103.656C758.442 103.656 757.938 103.08 757.938 101.64V95.712H761.442V94.2H757.938V91.224L756.066 91.68V94.08L754.53 94.704V95.712H756.066V102.144ZM768.894 108.072L769.062 109.56C769.278 109.584 769.494 109.584 769.71 109.584C773.79 109.584 776.694 107.472 776.694 104.4C776.694 102.504 775.518 101.088 773.382 100.632C774.75 99.84 776.286 98.4 776.286 96.6C776.286 94.728 774.726 93.432 772.662 93.432C770.454 93.432 768.702 94.944 768.702 94.944L769.518 96.168C769.518 96.168 770.886 95.064 772.422 95.064C773.55 95.064 774.318 95.736 774.318 96.792C774.318 98.472 772.11 100.128 770.358 100.32V101.856H771.03C772.83 101.856 774.726 102.48 774.726 104.544C774.726 106.848 772.374 108.096 769.614 108.096C769.374 108.096 769.134 108.096 768.894 108.072Z" fill="black"/>
<path d="M382.016 105H383.984V97.44H384.32L390.92 105H393.512L386.024 96.504L393.224 88.992H390.728L384.32 95.784H383.984V88.992H382.016V105ZM394.056 99.84C394.056 102.672 395.832 105.288 399.408 105.288C402 105.288 403.56 103.728 403.56 103.728L403.008 102.288C403.008 102.288 401.472 103.656 399.624 103.656C397.512 103.656 396.216 102.144 396.048 99.912L402.408 99.072L403.56 98.736C403.56 95.64 401.736 93.912 399.24 93.912C396.168 93.912 394.056 96.456 394.056 99.84ZM399.12 95.472C401.28 95.472 401.496 97.776 401.496 97.776L396.072 98.472C396.336 96.792 397.392 95.472 399.12 95.472ZM405.176 109.128L405.776 110.688C408.128 110.4 409.448 108.168 410.432 105.816L415.256 94.2H413.288L410.24 101.832L407.096 94.2H405.056L409.256 104.208L408.56 105.816C407.816 107.52 406.736 108.816 405.176 109.128ZM423.494 105H425.414L425.846 91.224L430.982 105H432.47L437.606 91.392L438.11 105H440.03L439.454 88.992H436.622L431.726 102.216L426.902 88.992H424.07L423.494 105ZM442.876 99.648C442.876 102.504 444.82 105.288 448.156 105.288C451.78 105.288 453.556 102.024 453.556 99.384C453.556 96.6 451.612 93.912 448.252 93.912C444.676 93.912 442.876 96.96 442.876 99.648ZM444.844 99.432C444.844 97.104 446.164 95.544 448.204 95.544C450.628 95.544 451.588 97.632 451.588 99.696C451.588 102.024 450.268 103.656 448.228 103.656C445.876 103.656 444.844 101.544 444.844 99.432ZM456.393 105H458.265V97.848C458.889 97.224 460.713 95.568 462.105 95.568C462.849 95.568 463.449 96.072 463.449 97.68V105H465.321V97.68C466.089 96.96 467.721 95.568 468.993 95.568C469.737 95.568 470.337 96.072 470.337 97.68V105H472.209V97.152C472.209 94.824 471.033 93.912 469.497 93.912C467.553 93.912 465.945 95.328 465.201 96.072C464.889 94.536 463.881 93.912 462.609 93.912C460.593 93.912 458.937 95.4 458.265 96.12V94.032L456.393 94.368V105ZM474.986 99.84C474.986 102.672 476.762 105.288 480.338 105.288C482.93 105.288 484.49 103.728 484.49 103.728L483.938 102.288C483.938 102.288 482.402 103.656 480.554 103.656C478.442 103.656 477.146 102.144 476.978 99.912L483.338 99.072L484.49 98.736C484.49 95.64 482.666 93.912 480.17 93.912C477.098 93.912 474.986 96.456 474.986 99.84ZM480.05 95.472C482.21 95.472 482.426 97.776 482.426 97.776L477.002 98.472C477.266 96.792 478.322 95.472 480.05 95.472ZM487.377 105H489.249V97.872C489.945 97.2 491.793 95.568 493.209 95.568C494.025 95.568 494.673 96.072 494.673 97.68V105H496.545V97.152C496.545 94.824 495.321 93.912 493.713 93.912C491.625 93.912 489.945 95.424 489.249 96.144V94.032L487.377 94.368V105ZM500.562 102.144C500.562 104.352 501.666 105.288 503.37 105.288C505.17 105.288 506.49 104.184 506.49 104.184L506.034 102.672C506.034 102.672 504.882 103.656 503.754 103.656C502.938 103.656 502.434 103.08 502.434 101.64V95.712H505.938V94.2H502.434V91.224L500.562 91.68V94.08L499.026 94.704V95.712H500.562V102.144ZM513.991 105H522.463V103.392H516.607C518.695 101.64 521.455 99.216 521.455 96.648C521.455 94.824 519.895 93.432 517.783 93.432C515.623 93.432 513.847 94.944 513.847 94.944L514.663 96.168C514.663 96.168 516.007 95.064 517.471 95.064C518.671 95.064 519.487 95.808 519.487 96.888C519.487 99.72 513.799 103.776 513.799 103.776L513.991 105Z" fill="black"/>
<path d="M891.02 105H892.988V97.44H893.324L899.924 105H902.516L895.028 96.504L902.228 88.992H899.732L893.324 95.784H892.988V88.992H891.02V105ZM903.06 99.84C903.06 102.672 904.836 105.288 908.412 105.288C911.004 105.288 912.564 103.728 912.564 103.728L912.012 102.288C912.012 102.288 910.476 103.656 908.628 103.656C906.516 103.656 905.22 102.144 905.052 99.912L911.412 99.072L912.564 98.736C912.564 95.64 910.74 93.912 908.244 93.912C905.172 93.912 903.06 96.456 903.06 99.84ZM908.124 95.472C910.284 95.472 910.5 97.776 910.5 97.776L905.076 98.472C905.34 96.792 906.396 95.472 908.124 95.472ZM914.18 109.128L914.78 110.688C917.132 110.4 918.452 108.168 919.436 105.816L924.26 94.2H922.292L919.244 101.832L916.1 94.2H914.06L918.26 104.208L917.564 105.816C916.82 107.52 915.74 108.816 914.18 109.128ZM932.498 105H934.418L934.85 91.224L939.986 105H941.474L946.61 91.392L947.114 105H949.034L948.458 88.992H945.626L940.73 102.216L935.906 88.992H933.074L932.498 105ZM951.88 99.648C951.88 102.504 953.824 105.288 957.16 105.288C960.784 105.288 962.56 102.024 962.56 99.384C962.56 96.6 960.616 93.912 957.256 93.912C953.68 93.912 951.88 96.96 951.88 99.648ZM953.848 99.432C953.848 97.104 955.168 95.544 957.208 95.544C959.632 95.544 960.592 97.632 960.592 99.696C960.592 102.024 959.272 103.656 957.232 103.656C954.88 103.656 953.848 101.544 953.848 99.432ZM965.397 105H967.269V97.848C967.893 97.224 969.717 95.568 971.109 95.568C971.853 95.568 972.453 96.072 972.453 97.68V105H974.325V97.68C975.093 96.96 976.725 95.568 977.997 95.568C978.741 95.568 979.341 96.072 979.341 97.68V105H981.213V97.152C981.213 94.824 980.037 93.912 978.501 93.912C976.557 93.912 974.949 95.328 974.205 96.072C973.893 94.536 972.885 93.912 971.613 93.912C969.597 93.912 967.941 95.4 967.269 96.12V94.032L965.397 94.368V105ZM983.99 99.84C983.99 102.672 985.766 105.288 989.342 105.288C991.934 105.288 993.494 103.728 993.494 103.728L992.942 102.288C992.942 102.288 991.406 103.656 989.558 103.656C987.446 103.656 986.15 102.144 985.982 99.912L992.342 99.072L993.494 98.736C993.494 95.64 991.67 93.912 989.174 93.912C986.102 93.912 983.99 96.456 983.99 99.84ZM989.054 95.472C991.214 95.472 991.43 97.776 991.43 97.776L986.006 98.472C986.27 96.792 987.326 95.472 989.054 95.472ZM996.381 105H998.253V97.872C998.949 97.2 1000.8 95.568 1002.21 95.568C1003.03 95.568 1003.68 96.072 1003.68 97.68V105H1005.55V97.152C1005.55 94.824 1004.33 93.912 1002.72 93.912C1000.63 93.912 998.949 95.424 998.253 96.144V94.032L996.381 94.368V105ZM1009.57 102.144C1009.57 104.352 1010.67 105.288 1012.37 105.288C1014.17 105.288 1015.49 104.184 1015.49 104.184L1015.04 102.672C1015.04 102.672 1013.89 103.656 1012.76 103.656C1011.94 103.656 1011.44 103.08 1011.44 101.64V95.712H1014.94V94.2H1011.44V91.224L1009.57 91.68V94.08L1008.03 94.704V95.712H1009.57V102.144ZM1022.39 104.376H1029.23V109.632H1031.11V104.376H1033.39V102.84H1031.11V93.432H1029.52L1022.39 103.104V104.376ZM1024.43 102.84L1029.23 96.336V102.84H1024.43Z" fill="black"/>
<path d="M118.223 268.169L118.223 265.217C118.223 260.879 116.063 257.855 112.031 257.855C107.765 257.855 106.217 261.257 106.217 264.533L106.217 268.169L118.223 268.169ZM116.981 266.693L107.459 266.693L107.459 264.785C107.459 261.293 109.313 259.439 112.193 259.439C114.857 259.439 116.981 261.023 116.981 265.397L116.981 266.693ZM116.405 256.418C117.593 256.418 118.439 255.536 118.439 254.15C118.439 252.512 117.287 251.63 117.035 251.468C117.701 251.288 118.223 250.856 118.349 249.722L117.215 249.254C117.215 249.254 117.197 250.154 116.135 250.154L112.481 250.154C110.663 250.154 109.907 250.73 109.907 252.494C109.907 254.51 110.897 255.86 110.897 255.86L112.031 255.428C112.031 255.428 111.131 254.24 111.131 252.89C111.131 251.54 112.031 251.558 112.985 251.558L113.291 251.558C113.687 254.636 114.731 256.418 116.405 256.418ZM117.215 253.862C117.215 254.456 116.945 254.924 116.315 254.924C115.271 254.924 114.695 253.844 114.317 251.558L115.811 251.558C116.477 252.134 117.215 252.872 117.215 253.862ZM116.081 246.97C117.737 246.97 118.439 246.142 118.439 244.864C118.439 243.514 117.611 242.524 117.611 242.524L116.477 242.866C116.477 242.866 117.215 243.73 117.215 244.576C117.215 245.188 116.783 245.566 115.703 245.566L111.257 245.566L111.257 242.938L110.123 242.938L110.123 245.566L107.891 245.566L108.233 246.97L110.033 246.97L110.501 248.122L111.257 248.122L111.257 246.97L116.081 246.97ZM116.405 241.529C117.593 241.529 118.439 240.647 118.439 239.261C118.439 237.623 117.287 236.741 117.035 236.579C117.701 236.399 118.223 235.967 118.349 234.833L117.215 234.365C117.215 234.365 117.197 235.265 116.135 235.265L112.481 235.265C110.663 235.265 109.907 235.841 109.907 237.605C109.907 239.621 110.897 240.971 110.897 240.971L112.031 240.539C112.031 240.539 111.131 239.351 111.131 238.001C111.131 236.651 112.031 236.669 112.985 236.669L113.291 236.669C113.687 239.747 114.731 241.529 116.405 241.529ZM117.215 238.973C117.215 239.567 116.945 240.035 116.315 240.035C115.271 240.035 114.695 238.955 114.317 236.669L115.811 236.669C116.477 237.245 117.215 237.983 117.215 238.973ZM118.223 227.651L118.223 226.175L113.165 226.175L113.165 224.249L118.223 220.811L118.223 219.065L112.859 222.701C112.337 221.513 111.239 220.217 109.493 220.217C107.801 220.217 106.217 221.405 106.217 224.501L106.217 227.651L118.223 227.651ZM111.923 226.175L107.459 226.175L107.459 224.771C107.459 222.575 108.503 221.801 109.637 221.801C111.131 221.801 111.923 223.133 111.923 224.285L111.923 226.175ZM114.353 218.234C116.477 218.234 118.439 216.902 118.439 214.22C118.439 212.276 117.269 211.106 117.269 211.106L116.189 211.52C116.189 211.52 117.215 212.672 117.215 214.058C117.215 215.642 116.081 216.614 114.407 216.74L113.777 211.97L113.525 211.106C111.203 211.106 109.907 212.474 109.907 214.346C109.907 216.65 111.815 218.234 114.353 218.234ZM111.077 214.436C111.077 212.816 112.805 212.654 112.805 212.654L113.327 216.722C112.067 216.524 111.077 215.732 111.077 214.436ZM116.405 209.625C117.593 209.625 118.439 208.743 118.439 207.357C118.439 205.719 117.287 204.837 117.035 204.675C117.701 204.495 118.223 204.063 118.349 202.929L117.215 202.461C117.215 202.461 117.197 203.361 116.135 203.361L112.481 203.361C110.663 203.361 109.907 203.937 109.907 205.701C109.907 207.717 110.897 209.067 110.897 209.067L112.031 208.635C112.031 208.635 111.131 207.447 111.131 206.097C111.131 204.747 112.031 204.765 112.985 204.765L113.291 204.765C113.687 207.843 114.731 209.625 116.405 209.625ZM117.215 207.069C117.215 207.663 116.945 208.131 116.315 208.131C115.271 208.131 114.695 207.051 114.317 204.765L115.811 204.765C116.477 205.341 117.215 206.079 117.215 207.069ZM114.443 201.025C116.675 201.025 118.439 199.657 118.439 197.551C118.439 196.255 117.773 195.373 117.053 194.923C117.611 194.833 118.349 194.671 118.349 194.671L118.223 193.285C118.223 193.285 116.711 193.645 115.721 193.645L105.371 193.645L105.623 195.049L110.195 195.049C110.105 195.265 109.907 195.805 109.907 196.615C109.907 199.513 112.103 201.025 114.443 201.025ZM117.215 197.371C117.215 198.595 116.153 199.531 114.353 199.531C112.283 199.531 111.095 198.325 111.095 196.597C111.095 195.823 111.347 195.085 112.247 195.049L115.739 195.049C116.081 195.265 117.215 196.093 117.215 197.371ZM108.071 190.149C108.071 189.609 107.639 189.177 107.099 189.177C106.559 189.177 106.127 189.609 106.127 190.149C106.127 190.689 106.559 191.121 107.099 191.121C107.639 191.121 108.071 190.689 108.071 190.149ZM118.223 190.869L118.223 189.465L110.123 189.465L110.123 190.869L118.223 190.869ZM118.223 186.757L118.223 185.353L112.877 185.353C112.373 184.831 111.149 183.445 111.149 182.383C111.149 181.771 111.527 181.285 112.733 181.285L118.223 181.285L118.223 179.881L112.337 179.881C110.591 179.881 109.907 180.799 109.907 182.005C109.907 183.571 111.041 184.831 111.581 185.353L109.997 185.353L110.249 186.757L118.223 186.757ZM116.765 177.319C117.305 177.319 117.629 176.761 117.863 175.969C118.331 176.887 119.087 178.075 120.329 178.075C121.769 178.075 122.489 176.365 122.489 174.619C122.489 172.315 121.157 170.299 119.501 170.299C118.025 170.299 117.593 171.883 117.251 173.431C116.909 174.961 116.729 175.807 116.387 175.807C116.153 175.807 115.901 175.465 115.631 175.087C115.667 174.889 115.685 174.673 115.685 174.439C115.685 172.819 114.767 171.001 112.877 171.001C112.085 171.001 111.527 171.397 111.293 171.613C111.311 171.433 111.329 171.181 111.329 170.947L111.329 169.921L110.069 170.047C110.069 170.047 110.249 170.587 110.249 171.109L110.249 171.973C110.249 172.855 109.907 173.359 109.907 174.295C109.907 176.059 110.951 177.643 112.733 177.643C113.867 177.643 114.821 177.049 115.325 176.077C115.667 176.653 116.189 177.319 116.765 177.319ZM120.131 176.779C119.231 176.779 118.691 175.753 118.169 174.799C118.223 174.493 118.277 174.205 118.349 173.899C118.619 172.675 118.907 171.739 119.699 171.739C120.599 171.739 121.409 172.981 121.409 174.511C121.409 175.465 121.103 176.779 120.131 176.779ZM114.605 174.313C114.605 175.609 113.723 176.203 112.823 176.203C111.797 176.203 110.987 175.501 110.987 174.349C110.987 173.071 112.031 172.441 112.949 172.441C114.011 172.441 114.605 173.251 114.605 174.313Z" fill="black"/>
</svg>
