<svg width="1158" height="451" viewBox="0 0 1158 451" fill="none" xmlns="http://www.w3.org/2000/svg">
<rect x="1" y="1" width="1156" height="449" fill="#FAFAFA" stroke="#BDBDBD" stroke-width="2"/>
<path d="M83 370.613V127.674H331V370.613" stroke="#828282" stroke-width="4"/>
<path d="M579 370.613V127.674H827V370.613" stroke="#828282" stroke-width="4"/>
<path d="M331 370.613V127.674H579V370.613" stroke="#828282" stroke-width="4"/>
<path d="M827 370.613V127.674H1075V370.613" stroke="#828282" stroke-width="4"/>
<rect x="93.1211" y="140.328" width="49.3469" height="189.796" fill="#DFDDE2"/>
<rect x="589.121" y="140.328" width="49.3469" height="137.918" fill="#DFDDE2"/>
<rect x="341.121" y="140.328" width="49.3469" height="189.796" fill="#DFDDE2"/>
<rect x="837.121" y="140.328" width="49.3469" height="137.918" fill="#DFDDE2"/>
<rect x="152.594" y="140.328" width="49.3469" height="221.429" fill="#EFE8DF"/>
<rect x="648.594" y="140.328" width="49.3469" height="169.551" fill="#EFE8DF"/>
<rect x="400.594" y="140.328" width="49.3469" height="137.918" fill="#EFE8DF"/>
<rect x="896.594" y="140.328" width="49.3469" height="137.918" fill="#EFE8DF"/>
<rect x="271.531" y="140.328" width="49.3469" height="169.551" fill="#D9DFE9"/>
<rect x="767.531" y="140.328" width="49.3469" height="169.551" fill="#D9DFE9"/>
<rect x="519.531" y="140.328" width="49.3469" height="137.918" fill="#D9DFE9"/>
<rect x="1015.53" y="140.328" width="49.3469" height="137.918" fill="#D9DFE9"/>
<rect x="212.062" y="140.328" width="49.3469" height="197.388" fill="#EDE3E4"/>
<rect x="708.059" y="140.328" width="49.3469" height="197.388" fill="#EDE3E4"/>
<rect x="460.062" y="140.328" width="49.3469" height="221.429" fill="#EDE3E4"/>
<rect x="956.059" y="140.328" width="49.3469" height="169.551" fill="#EDE3E4"/>
<path d="M138.477 105H140.445V97.44H140.781L147.381 105H149.973L142.485 96.504L149.685 88.992H147.189L140.781 95.784H140.445V88.992H138.477V105ZM150.518 99.84C150.518 102.672 152.294 105.288 155.87 105.288C158.462 105.288 160.022 103.728 160.022 103.728L159.47 102.288C159.47 102.288 157.934 103.656 156.086 103.656C153.974 103.656 152.678 102.144 152.51 99.912L158.87 99.072L160.022 98.736C160.022 95.64 158.198 93.912 155.702 93.912C152.63 93.912 150.518 96.456 150.518 99.84ZM155.582 95.472C157.742 95.472 157.958 97.776 157.958 97.776L152.534 98.472C152.798 96.792 153.854 95.472 155.582 95.472ZM161.637 109.128L162.237 110.688C164.589 110.4 165.909 108.168 166.893 105.816L171.717 94.2H169.749L166.701 101.832L163.557 94.2H161.517L165.717 104.208L165.021 105.816C164.277 107.52 163.197 108.816 161.637 109.128ZM179.955 105H181.875L182.307 91.224L187.443 105H188.931L194.067 91.392L194.571 105H196.491L195.915 88.992H193.083L188.187 102.216L183.363 88.992H180.531L179.955 105ZM199.337 99.648C199.337 102.504 201.281 105.288 204.617 105.288C208.241 105.288 210.017 102.024 210.017 99.384C210.017 96.6 208.073 93.912 204.713 93.912C201.137 93.912 199.337 96.96 199.337 99.648ZM201.305 99.432C201.305 97.104 202.625 95.544 204.665 95.544C207.089 95.544 208.049 97.632 208.049 99.696C208.049 102.024 206.729 103.656 204.689 103.656C202.337 103.656 201.305 101.544 201.305 99.432ZM212.854 105H214.726V97.848C215.35 97.224 217.174 95.568 218.566 95.568C219.31 95.568 219.91 96.072 219.91 97.68V105H221.782V97.68C222.55 96.96 224.182 95.568 225.454 95.568C226.198 95.568 226.798 96.072 226.798 97.68V105H228.67V97.152C228.67 94.824 227.494 93.912 225.958 93.912C224.014 93.912 222.406 95.328 221.662 96.072C221.35 94.536 220.342 93.912 219.07 93.912C217.054 93.912 215.398 95.4 214.726 96.12V94.032L212.854 94.368V105ZM231.447 99.84C231.447 102.672 233.223 105.288 236.799 105.288C239.391 105.288 240.951 103.728 240.951 103.728L240.399 102.288C240.399 102.288 238.863 103.656 237.015 103.656C234.903 103.656 233.607 102.144 233.439 99.912L239.799 99.072L240.951 98.736C240.951 95.64 239.127 93.912 236.631 93.912C233.559 93.912 231.447 96.456 231.447 99.84ZM236.511 95.472C238.671 95.472 238.887 97.776 238.887 97.776L233.463 98.472C233.727 96.792 234.783 95.472 236.511 95.472ZM243.839 105H245.711V97.872C246.407 97.2 248.255 95.568 249.671 95.568C250.487 95.568 251.135 96.072 251.135 97.68V105H253.007V97.152C253.007 94.824 251.783 93.912 250.175 93.912C248.087 93.912 246.407 95.424 245.711 96.144V94.032L243.839 94.368V105ZM257.023 102.144C257.023 104.352 258.127 105.288 259.831 105.288C261.631 105.288 262.951 104.184 262.951 104.184L262.495 102.672C262.495 102.672 261.343 103.656 260.215 103.656C259.399 103.656 258.895 103.08 258.895 101.64V95.712H262.399V94.2H258.895V91.224L257.023 91.68V94.08L255.487 94.704V95.712H257.023V102.144ZM270.404 105H277.148V103.392H274.796V93.72H270.572V95.208H272.924V103.392H270.404V105Z" fill="black"/>
<path d="M634.043 105H636.011V97.44H636.347L642.947 105H645.539L638.051 96.504L645.251 88.992H642.755L636.347 95.784H636.011V88.992H634.043V105ZM646.084 99.84C646.084 102.672 647.86 105.288 651.436 105.288C654.028 105.288 655.588 103.728 655.588 103.728L655.036 102.288C655.036 102.288 653.5 103.656 651.652 103.656C649.54 103.656 648.244 102.144 648.076 99.912L654.436 99.072L655.588 98.736C655.588 95.64 653.764 93.912 651.268 93.912C648.196 93.912 646.084 96.456 646.084 99.84ZM651.148 95.472C653.308 95.472 653.524 97.776 653.524 97.776L648.1 98.472C648.364 96.792 649.42 95.472 651.148 95.472ZM657.203 109.128L657.803 110.688C660.155 110.4 661.475 108.168 662.459 105.816L667.283 94.2H665.315L662.267 101.832L659.123 94.2H657.083L661.283 104.208L660.587 105.816C659.843 107.52 658.763 108.816 657.203 109.128ZM675.522 105H677.442L677.874 91.224L683.01 105H684.498L689.634 91.392L690.138 105H692.058L691.482 88.992H688.65L683.754 102.216L678.93 88.992H676.098L675.522 105ZM694.904 99.648C694.904 102.504 696.848 105.288 700.184 105.288C703.808 105.288 705.584 102.024 705.584 99.384C705.584 96.6 703.64 93.912 700.28 93.912C696.704 93.912 694.904 96.96 694.904 99.648ZM696.872 99.432C696.872 97.104 698.192 95.544 700.232 95.544C702.656 95.544 703.616 97.632 703.616 99.696C703.616 102.024 702.296 103.656 700.256 103.656C697.904 103.656 696.872 101.544 696.872 99.432ZM708.421 105H710.293V97.848C710.917 97.224 712.741 95.568 714.133 95.568C714.877 95.568 715.477 96.072 715.477 97.68V105H717.349V97.68C718.117 96.96 719.749 95.568 721.021 95.568C721.765 95.568 722.365 96.072 722.365 97.68V105H724.237V97.152C724.237 94.824 723.061 93.912 721.525 93.912C719.581 93.912 717.973 95.328 717.229 96.072C716.917 94.536 715.909 93.912 714.637 93.912C712.621 93.912 710.965 95.4 710.293 96.12V94.032L708.421 94.368V105ZM727.014 99.84C727.014 102.672 728.79 105.288 732.366 105.288C734.958 105.288 736.518 103.728 736.518 103.728L735.966 102.288C735.966 102.288 734.43 103.656 732.582 103.656C730.47 103.656 729.174 102.144 729.006 99.912L735.366 99.072L736.518 98.736C736.518 95.64 734.694 93.912 732.198 93.912C729.126 93.912 727.014 96.456 727.014 99.84ZM732.078 95.472C734.238 95.472 734.454 97.776 734.454 97.776L729.03 98.472C729.294 96.792 730.35 95.472 732.078 95.472ZM739.405 105H741.277V97.872C741.973 97.2 743.821 95.568 745.237 95.568C746.053 95.568 746.701 96.072 746.701 97.68V105H748.573V97.152C748.573 94.824 747.349 93.912 745.741 93.912C743.653 93.912 741.973 95.424 741.277 96.144V94.032L739.405 94.368V105ZM752.589 102.144C752.589 104.352 753.693 105.288 755.397 105.288C757.197 105.288 758.517 104.184 758.517 104.184L758.061 102.672C758.061 102.672 756.909 103.656 755.781 103.656C754.965 103.656 754.461 103.08 754.461 101.64V95.712H757.965V94.2H754.461V91.224L752.589 91.68V94.08L751.053 94.704V95.712H752.589V102.144ZM765.418 108.072L765.586 109.56C765.802 109.584 766.018 109.584 766.234 109.584C770.314 109.584 773.218 107.472 773.218 104.4C773.218 102.504 772.042 101.088 769.906 100.632C771.274 99.84 772.81 98.4 772.81 96.6C772.81 94.728 771.25 93.432 769.186 93.432C766.978 93.432 765.226 94.944 765.226 94.944L766.042 96.168C766.042 96.168 767.41 95.064 768.946 95.064C770.074 95.064 770.842 95.736 770.842 96.792C770.842 98.472 768.634 100.128 766.882 100.32V101.856H767.554C769.354 101.856 771.25 102.48 771.25 104.544C771.25 106.848 768.898 108.096 766.138 108.096C765.898 108.096 765.658 108.096 765.418 108.072Z" fill="black"/>
<path d="M385.493 105H387.461V97.44H387.797L394.397 105H396.989L389.501 96.504L396.701 88.992H394.205L387.797 95.784H387.461V88.992H385.493V105ZM397.533 99.84C397.533 102.672 399.309 105.288 402.885 105.288C405.477 105.288 407.037 103.728 407.037 103.728L406.485 102.288C406.485 102.288 404.949 103.656 403.101 103.656C400.989 103.656 399.693 102.144 399.525 99.912L405.885 99.072L407.037 98.736C407.037 95.64 405.213 93.912 402.717 93.912C399.645 93.912 397.533 96.456 397.533 99.84ZM402.597 95.472C404.757 95.472 404.973 97.776 404.973 97.776L399.549 98.472C399.813 96.792 400.869 95.472 402.597 95.472ZM408.652 109.128L409.252 110.688C411.604 110.4 412.924 108.168 413.908 105.816L418.732 94.2H416.764L413.716 101.832L410.572 94.2H408.532L412.732 104.208L412.036 105.816C411.292 107.52 410.212 108.816 408.652 109.128ZM426.971 105H428.891L429.323 91.224L434.459 105H435.947L441.083 91.392L441.587 105H443.507L442.931 88.992H440.099L435.203 102.216L430.379 88.992H427.547L426.971 105ZM446.353 99.648C446.353 102.504 448.297 105.288 451.633 105.288C455.257 105.288 457.033 102.024 457.033 99.384C457.033 96.6 455.089 93.912 451.729 93.912C448.153 93.912 446.353 96.96 446.353 99.648ZM448.321 99.432C448.321 97.104 449.641 95.544 451.681 95.544C454.105 95.544 455.065 97.632 455.065 99.696C455.065 102.024 453.745 103.656 451.705 103.656C449.353 103.656 448.321 101.544 448.321 99.432ZM459.87 105H461.742V97.848C462.366 97.224 464.19 95.568 465.582 95.568C466.326 95.568 466.926 96.072 466.926 97.68V105H468.798V97.68C469.566 96.96 471.198 95.568 472.47 95.568C473.214 95.568 473.814 96.072 473.814 97.68V105H475.686V97.152C475.686 94.824 474.51 93.912 472.974 93.912C471.03 93.912 469.422 95.328 468.678 96.072C468.366 94.536 467.358 93.912 466.086 93.912C464.07 93.912 462.414 95.4 461.742 96.12V94.032L459.87 94.368V105ZM478.463 99.84C478.463 102.672 480.239 105.288 483.815 105.288C486.407 105.288 487.967 103.728 487.967 103.728L487.415 102.288C487.415 102.288 485.879 103.656 484.031 103.656C481.919 103.656 480.623 102.144 480.455 99.912L486.815 99.072L487.967 98.736C487.967 95.64 486.143 93.912 483.647 93.912C480.575 93.912 478.463 96.456 478.463 99.84ZM483.527 95.472C485.687 95.472 485.903 97.776 485.903 97.776L480.479 98.472C480.743 96.792 481.799 95.472 483.527 95.472ZM490.854 105H492.726V97.872C493.422 97.2 495.27 95.568 496.686 95.568C497.502 95.568 498.15 96.072 498.15 97.68V105H500.022V97.152C500.022 94.824 498.798 93.912 497.19 93.912C495.102 93.912 493.422 95.424 492.726 96.144V94.032L490.854 94.368V105ZM504.038 102.144C504.038 104.352 505.142 105.288 506.846 105.288C508.646 105.288 509.966 104.184 509.966 104.184L509.51 102.672C509.51 102.672 508.358 103.656 507.23 103.656C506.414 103.656 505.91 103.08 505.91 101.64V95.712H509.414V94.2H505.91V91.224L504.038 91.68V94.08L502.502 94.704V95.712H504.038V102.144ZM517.467 105H525.939V103.392H520.083C522.171 101.64 524.931 99.216 524.931 96.648C524.931 94.824 523.371 93.432 521.259 93.432C519.099 93.432 517.323 94.944 517.323 94.944L518.139 96.168C518.139 96.168 519.483 95.064 520.947 95.064C522.147 95.064 522.963 95.808 522.963 96.888C522.963 99.72 517.275 103.776 517.275 103.776L517.467 105Z" fill="black"/>
<path d="M880.59 105H882.558V97.44H882.894L889.494 105H892.086L884.598 96.504L891.798 88.992H889.302L882.894 95.784H882.558V88.992H880.59V105ZM892.631 99.84C892.631 102.672 894.407 105.288 897.983 105.288C900.575 105.288 902.135 103.728 902.135 103.728L901.583 102.288C901.583 102.288 900.047 103.656 898.199 103.656C896.087 103.656 894.791 102.144 894.623 99.912L900.983 99.072L902.135 98.736C902.135 95.64 900.311 93.912 897.815 93.912C894.743 93.912 892.631 96.456 892.631 99.84ZM897.695 95.472C899.855 95.472 900.071 97.776 900.071 97.776L894.647 98.472C894.911 96.792 895.967 95.472 897.695 95.472ZM903.75 109.128L904.35 110.688C906.702 110.4 908.022 108.168 909.006 105.816L913.83 94.2H911.862L908.814 101.832L905.67 94.2H903.63L907.83 104.208L907.134 105.816C906.39 107.52 905.31 108.816 903.75 109.128ZM922.068 105H923.988L924.42 91.224L929.556 105H931.044L936.18 91.392L936.684 105H938.604L938.028 88.992H935.196L930.3 102.216L925.476 88.992H922.644L922.068 105ZM941.451 99.648C941.451 102.504 943.395 105.288 946.731 105.288C950.355 105.288 952.131 102.024 952.131 99.384C952.131 96.6 950.187 93.912 946.827 93.912C943.251 93.912 941.451 96.96 941.451 99.648ZM943.419 99.432C943.419 97.104 944.739 95.544 946.779 95.544C949.203 95.544 950.163 97.632 950.163 99.696C950.163 102.024 948.843 103.656 946.803 103.656C944.451 103.656 943.419 101.544 943.419 99.432ZM954.967 105H956.839V97.848C957.463 97.224 959.287 95.568 960.679 95.568C961.423 95.568 962.023 96.072 962.023 97.68V105H963.895V97.68C964.663 96.96 966.295 95.568 967.567 95.568C968.311 95.568 968.911 96.072 968.911 97.68V105H970.783V97.152C970.783 94.824 969.607 93.912 968.071 93.912C966.127 93.912 964.519 95.328 963.775 96.072C963.463 94.536 962.455 93.912 961.183 93.912C959.167 93.912 957.511 95.4 956.839 96.12V94.032L954.967 94.368V105ZM973.56 99.84C973.56 102.672 975.336 105.288 978.912 105.288C981.504 105.288 983.064 103.728 983.064 103.728L982.512 102.288C982.512 102.288 980.976 103.656 979.128 103.656C977.016 103.656 975.72 102.144 975.552 99.912L981.912 99.072L983.064 98.736C983.064 95.64 981.24 93.912 978.744 93.912C975.672 93.912 973.56 96.456 973.56 99.84ZM978.624 95.472C980.784 95.472 981 97.776 981 97.776L975.576 98.472C975.84 96.792 976.896 95.472 978.624 95.472ZM985.952 105H987.824V97.872C988.52 97.2 990.368 95.568 991.784 95.568C992.6 95.568 993.248 96.072 993.248 97.68V105H995.12V97.152C995.12 94.824 993.896 93.912 992.288 93.912C990.2 93.912 988.52 95.424 987.824 96.144V94.032L985.952 94.368V105ZM999.136 102.144C999.136 104.352 1000.24 105.288 1001.94 105.288C1003.74 105.288 1005.06 104.184 1005.06 104.184L1004.61 102.672C1004.61 102.672 1003.46 103.656 1002.33 103.656C1001.51 103.656 1001.01 103.08 1001.01 101.64V95.712H1004.51V94.2H1001.01V91.224L999.136 91.68V94.08L997.6 94.704V95.712H999.136V102.144ZM1011.96 104.376H1018.8V109.632H1020.68V104.376H1022.96V102.84H1020.68V93.432H1019.09L1011.96 103.104V104.376ZM1014 102.84L1018.8 96.336V102.84H1014Z" fill="black"/>
<path d="M119.711 281.741L119.711 278.789C119.711 274.451 117.551 271.427 113.519 271.427C109.253 271.427 107.705 274.829 107.705 278.105L107.705 281.741L119.711 281.741ZM118.469 280.265L108.947 280.265L108.947 278.357C108.947 274.865 110.801 273.011 113.681 273.011C116.345 273.011 118.469 274.595 118.469 278.969L118.469 280.265ZM117.893 269.99C119.081 269.99 119.927 269.108 119.927 267.722C119.927 266.084 118.775 265.202 118.523 265.04C119.189 264.86 119.711 264.428 119.837 263.294L118.703 262.826C118.703 262.826 118.685 263.726 117.623 263.726L113.969 263.726C112.151 263.726 111.395 264.302 111.395 266.066C111.395 268.082 112.385 269.432 112.385 269.432L113.519 269C113.519 269 112.619 267.812 112.619 266.462C112.619 265.112 113.519 265.13 114.473 265.13L114.779 265.13C115.175 268.208 116.219 269.99 117.893 269.99ZM118.703 267.434C118.703 268.028 118.433 268.496 117.803 268.496C116.759 268.496 116.183 267.416 115.805 265.13L117.299 265.13C117.965 265.706 118.703 266.444 118.703 267.434ZM117.569 260.543C119.225 260.543 119.927 259.715 119.927 258.437C119.927 257.087 119.099 256.097 119.099 256.097L117.965 256.439C117.965 256.439 118.703 257.303 118.703 258.149C118.703 258.761 118.271 259.139 117.191 259.139L112.745 259.139L112.745 256.511L111.611 256.511L111.611 259.139L109.379 259.139L109.721 260.543L111.521 260.543L111.989 261.695L112.745 261.695L112.745 260.543L117.569 260.543ZM117.893 255.101C119.081 255.101 119.927 254.219 119.927 252.833C119.927 251.195 118.775 250.313 118.523 250.151C119.189 249.971 119.711 249.539 119.837 248.405L118.703 247.937C118.703 247.937 118.685 248.837 117.623 248.837L113.969 248.837C112.151 248.837 111.395 249.413 111.395 251.177C111.395 253.193 112.385 254.543 112.385 254.543L113.519 254.111C113.519 254.111 112.619 252.923 112.619 251.573C112.619 250.223 113.519 250.241 114.473 250.241L114.779 250.241C115.175 253.319 116.219 255.101 117.893 255.101ZM118.703 252.545C118.703 253.139 118.433 253.607 117.803 253.607C116.759 253.607 116.183 252.527 115.805 250.241L117.299 250.241C117.965 250.817 118.703 251.555 118.703 252.545ZM119.711 241.223L119.711 239.747L114.653 239.747L114.653 237.821L119.711 234.383L119.711 232.637L114.347 236.273C113.825 235.085 112.727 233.789 110.981 233.789C109.289 233.789 107.705 234.977 107.705 238.073L107.705 241.223L119.711 241.223ZM113.411 239.747L108.947 239.747L108.947 238.343C108.947 236.147 109.991 235.373 111.125 235.373C112.619 235.373 113.411 236.705 113.411 237.857L113.411 239.747ZM115.841 231.806C117.965 231.806 119.927 230.474 119.927 227.792C119.927 225.848 118.757 224.678 118.757 224.678L117.677 225.092C117.677 225.092 118.703 226.244 118.703 227.63C118.703 229.214 117.569 230.186 115.895 230.312L115.265 225.542L115.013 224.678C112.691 224.678 111.395 226.046 111.395 227.918C111.395 230.222 113.303 231.806 115.841 231.806ZM112.565 228.008C112.565 226.388 114.293 226.226 114.293 226.226L114.815 230.294C113.555 230.096 112.565 229.304 112.565 228.008ZM117.893 223.197C119.081 223.197 119.927 222.315 119.927 220.929C119.927 219.291 118.775 218.409 118.523 218.247C119.189 218.067 119.711 217.635 119.837 216.501L118.703 216.033C118.703 216.033 118.685 216.933 117.623 216.933L113.969 216.933C112.151 216.933 111.395 217.509 111.395 219.273C111.395 221.289 112.385 222.639 112.385 222.639L113.519 222.207C113.519 222.207 112.619 221.019 112.619 219.669C112.619 218.319 113.519 218.337 114.473 218.337L114.779 218.337C115.175 221.415 116.219 223.197 117.893 223.197ZM118.703 220.641C118.703 221.235 118.433 221.703 117.803 221.703C116.759 221.703 116.183 220.623 115.805 218.337L117.299 218.337C117.965 218.913 118.703 219.651 118.703 220.641ZM115.931 214.597C118.163 214.597 119.927 213.229 119.927 211.123C119.927 209.827 119.261 208.945 118.541 208.495C119.099 208.405 119.837 208.243 119.837 208.243L119.711 206.857C119.711 206.857 118.199 207.217 117.209 207.217L106.859 207.217L107.111 208.621L111.683 208.621C111.593 208.837 111.395 209.377 111.395 210.187C111.395 213.085 113.591 214.597 115.931 214.597ZM118.703 210.943C118.703 212.167 117.641 213.103 115.841 213.103C113.771 213.103 112.583 211.897 112.583 210.169C112.583 209.395 112.835 208.657 113.735 208.621L117.227 208.621C117.569 208.837 118.703 209.665 118.703 210.943ZM109.559 203.722C109.559 203.182 109.127 202.75 108.587 202.75C108.047 202.75 107.615 203.182 107.615 203.722C107.615 204.262 108.047 204.694 108.587 204.694C109.127 204.694 109.559 204.262 109.559 203.722ZM119.711 204.442L119.711 203.038L111.611 203.038L111.611 204.442L119.711 204.442ZM119.711 200.329L119.711 198.925L114.365 198.925C113.861 198.403 112.637 197.017 112.637 195.955C112.637 195.343 113.015 194.857 114.221 194.857L119.711 194.857L119.711 193.453L113.825 193.453C112.079 193.453 111.395 194.371 111.395 195.577C111.395 197.143 112.529 198.403 113.069 198.925L111.485 198.925L111.737 200.329L119.711 200.329ZM118.253 190.891C118.793 190.891 119.117 190.333 119.351 189.541C119.819 190.459 120.575 191.647 121.817 191.647C123.257 191.647 123.977 189.937 123.977 188.191C123.977 185.887 122.645 183.871 120.989 183.871C119.513 183.871 119.081 185.455 118.739 187.003C118.397 188.533 118.217 189.379 117.875 189.379C117.641 189.379 117.389 189.037 117.119 188.659C117.155 188.461 117.173 188.245 117.173 188.011C117.173 186.391 116.255 184.573 114.365 184.573C113.573 184.573 113.015 184.969 112.781 185.185C112.799 185.005 112.817 184.753 112.817 184.519L112.817 183.493L111.557 183.619C111.557 183.619 111.737 184.159 111.737 184.681L111.737 185.545C111.737 186.427 111.395 186.931 111.395 187.867C111.395 189.631 112.439 191.215 114.221 191.215C115.355 191.215 116.309 190.621 116.813 189.649C117.155 190.225 117.677 190.891 118.253 190.891ZM121.619 190.351C120.719 190.351 120.179 189.325 119.657 188.371C119.711 188.065 119.765 187.777 119.837 187.471C120.107 186.247 120.395 185.311 121.187 185.311C122.087 185.311 122.897 186.553 122.897 188.083C122.897 189.037 122.591 190.351 121.619 190.351ZM116.093 187.885C116.093 189.181 115.211 189.775 114.311 189.775C113.285 189.775 112.475 189.073 112.475 187.921C112.475 186.643 113.519 186.013 114.437 186.013C115.499 186.013 116.093 186.823 116.093 187.885Z" fill="black"/>
</svg>
