<svg width="1158" height="426" viewBox="0 0 1158 426" fill="none" xmlns="http://www.w3.org/2000/svg">
<rect x="1" y="1" width="1156" height="424" fill="#FAFAFA" stroke="#BDBDBD" stroke-width="2"/>
<path d="M21.491 399.36C21.491 398.475 21.6403 397.685 21.939 396.992C22.2377 396.288 22.643 395.696 23.155 395.216C23.667 394.736 24.2643 394.368 24.947 394.112C25.6297 393.856 26.355 393.728 27.123 393.728C27.891 393.728 28.6163 393.856 29.299 394.112C29.9817 394.368 30.579 394.736 31.091 395.216C31.603 395.696 32.0083 396.288 32.307 396.992C32.6057 397.685 32.755 398.475 32.755 399.36C32.755 400.245 32.6057 401.04 32.307 401.744C32.0083 402.437 31.603 403.024 31.091 403.504C30.579 403.984 29.9817 404.352 29.299 404.608C28.6163 404.864 27.891 404.992 27.123 404.992C26.2697 404.992 25.4963 404.864 24.803 404.608C24.1097 404.352 23.5177 403.984 23.027 403.504C22.5363 403.024 22.1577 402.437 21.891 401.744C21.6243 401.04 21.491 400.245 21.491 399.36ZM22.611 399.36C22.611 400.096 22.7283 400.752 22.963 401.328C23.1977 401.893 23.5177 402.368 23.923 402.752C24.3283 403.136 24.803 403.429 25.347 403.632C25.9017 403.835 26.4937 403.936 27.123 403.936C27.7523 403.936 28.339 403.835 28.883 403.632C29.4377 403.429 29.9177 403.136 30.323 402.752C30.7283 402.368 31.0483 401.893 31.283 401.328C31.5177 400.752 31.635 400.096 31.635 399.36C31.635 398.624 31.5177 397.973 31.283 397.408C31.0483 396.832 30.7283 396.352 30.323 395.968C29.9177 395.584 29.4377 395.291 28.883 395.088C28.339 394.885 27.7523 394.784 27.123 394.784C26.4937 394.784 25.9017 394.885 25.347 395.088C24.803 395.291 24.3283 395.584 23.923 395.968C23.5177 396.352 23.1977 396.832 22.963 397.408C22.7283 397.973 22.611 398.624 22.611 399.36ZM28.979 401.968C28.7337 402.107 28.4563 402.213 28.147 402.288C27.8483 402.363 27.4963 402.4 27.091 402.4C26.227 402.4 25.5657 402.128 25.107 401.584C24.659 401.04 24.435 400.299 24.435 399.36C24.435 398.389 24.675 397.643 25.155 397.12C25.6457 396.587 26.291 396.32 27.091 396.32C27.283 396.32 27.4537 396.331 27.603 396.352C27.763 396.373 27.907 396.405 28.035 396.448C28.1737 396.48 28.307 396.523 28.435 396.576C28.563 396.629 28.707 396.688 28.867 396.752L28.451 397.728C28.2163 397.611 27.9923 397.531 27.779 397.488C27.5657 397.445 27.3843 397.424 27.235 397.424C26.787 397.424 26.419 397.563 26.131 397.84C25.8537 398.117 25.715 398.624 25.715 399.36C25.715 399.979 25.8537 400.459 26.131 400.8C26.4083 401.131 26.819 401.301 27.363 401.312C27.8643 401.312 28.291 401.216 28.643 401.024L28.979 401.968ZM40.8616 395.344C40.8616 395.909 40.755 396.491 40.5416 397.088C40.339 397.675 40.067 398.267 39.7256 398.864C39.395 399.461 39.0216 400.048 38.6056 400.624C38.1896 401.189 37.7736 401.728 37.3576 402.24L36.5736 402.928V402.992L37.5976 402.816H41.0856V404H34.7176V403.536C34.9523 403.291 35.235 402.987 35.5656 402.624C35.8963 402.261 36.2376 401.861 36.5896 401.424C36.9523 400.976 37.3043 400.507 37.6456 400.016C37.9976 399.515 38.3123 399.008 38.5896 398.496C38.8776 397.984 39.107 397.477 39.2776 396.976C39.4483 396.475 39.5336 396 39.5336 395.552C39.5336 395.029 39.3843 394.597 39.0856 394.256C38.787 393.904 38.3336 393.728 37.7256 393.728C37.3203 393.728 36.9256 393.813 36.5416 393.984C36.1576 394.144 35.827 394.331 35.5496 394.544L35.0216 393.632C35.395 393.312 35.8376 393.061 36.3496 392.88C36.8616 392.699 37.411 392.608 37.9976 392.608C38.4563 392.608 38.8616 392.677 39.2136 392.816C39.5656 392.944 39.8643 393.131 40.1096 393.376C40.355 393.621 40.5416 393.915 40.6696 394.256C40.7976 394.587 40.8616 394.949 40.8616 395.344ZM43.2924 398.4C43.2924 396.48 43.6017 395.035 44.2204 394.064C44.8497 393.093 45.7617 392.608 46.9564 392.608C48.247 392.608 49.1804 393.088 49.7564 394.048C50.343 394.997 50.6364 396.448 50.6364 398.4C50.6364 400.32 50.3217 401.765 49.6924 402.736C49.0737 403.707 48.1617 404.192 46.9564 404.192C45.687 404.192 44.759 403.685 44.1724 402.672C43.5857 401.659 43.2924 400.235 43.2924 398.4ZM44.6204 398.4C44.6204 399.093 44.663 399.728 44.7484 400.304C44.8444 400.869 44.9884 401.36 45.1804 401.776C45.3724 402.181 45.6124 402.501 45.9004 402.736C46.199 402.96 46.551 403.072 46.9564 403.072C47.767 403.072 48.359 402.699 48.7324 401.952C49.1164 401.195 49.3084 400.011 49.3084 398.4C49.3084 397.717 49.2657 397.088 49.1804 396.512C49.1057 395.936 48.9724 395.44 48.7804 395.024C48.599 394.608 48.359 394.288 48.0604 394.064C47.7617 393.84 47.3937 393.728 46.9564 393.728C46.1564 393.728 45.5644 394.107 45.1804 394.864C44.807 395.621 44.6204 396.8 44.6204 398.4ZM58.6191 395.344C58.6191 395.909 58.5125 396.491 58.2991 397.088C58.0965 397.675 57.8245 398.267 57.4831 398.864C57.1525 399.461 56.7791 400.048 56.3631 400.624C55.9471 401.189 55.5311 401.728 55.1151 402.24L54.3311 402.928V402.992L55.3551 402.816H58.8431V404H52.4751V403.536C52.7098 403.291 52.9925 402.987 53.3231 402.624C53.6538 402.261 53.9951 401.861 54.3471 401.424C54.7098 400.976 55.0618 400.507 55.4031 400.016C55.7551 399.515 56.0698 399.008 56.3471 398.496C56.6351 397.984 56.8645 397.477 57.0351 396.976C57.2058 396.475 57.2911 396 57.2911 395.552C57.2911 395.029 57.1418 394.597 56.8431 394.256C56.5445 393.904 56.0911 393.728 55.4831 393.728C55.0778 393.728 54.6831 393.813 54.2991 393.984C53.9151 394.144 53.5845 394.331 53.3071 394.544L52.7791 393.632C53.1525 393.312 53.5951 393.061 54.1071 392.88C54.6191 392.699 55.1685 392.608 55.7551 392.608C56.2138 392.608 56.6191 392.677 56.9711 392.816C57.3231 392.944 57.6218 393.131 57.8671 393.376C58.1125 393.621 58.2991 393.915 58.4271 394.256C58.5551 394.587 58.6191 394.949 58.6191 395.344ZM61.0499 398.4C61.0499 396.48 61.3592 395.035 61.9779 394.064C62.6072 393.093 63.5192 392.608 64.7139 392.608C66.0045 392.608 66.9379 393.088 67.5139 394.048C68.1005 394.997 68.3939 396.448 68.3939 398.4C68.3939 400.32 68.0792 401.765 67.4499 402.736C66.8312 403.707 65.9192 404.192 64.7139 404.192C63.4445 404.192 62.5165 403.685 61.9299 402.672C61.3432 401.659 61.0499 400.235 61.0499 398.4ZM62.3779 398.4C62.3779 399.093 62.4205 399.728 62.5059 400.304C62.6019 400.869 62.7459 401.36 62.9379 401.776C63.1299 402.181 63.3699 402.501 63.6579 402.736C63.9565 402.96 64.3085 403.072 64.7139 403.072C65.5245 403.072 66.1165 402.699 66.4899 401.952C66.8739 401.195 67.0659 400.011 67.0659 398.4C67.0659 397.717 67.0232 397.088 66.9379 396.512C66.8632 395.936 66.7299 395.44 66.5379 395.024C66.3565 394.608 66.1165 394.288 65.8179 394.064C65.5192 393.84 65.1512 393.728 64.7139 393.728C63.9139 393.728 63.3219 394.107 62.9379 394.864C62.5645 395.621 62.3779 396.8 62.3779 398.4ZM75.0263 392.912C75.4316 392.837 75.8956 392.779 76.4183 392.736C76.9516 392.693 77.4369 392.672 77.8743 392.672C78.3649 392.672 78.8289 392.725 79.2663 392.832C79.7143 392.939 80.1036 393.115 80.4343 393.36C80.7756 393.605 81.0476 393.925 81.2503 394.32C81.4529 394.715 81.5543 395.195 81.5543 395.76C81.5543 396.635 81.3143 397.344 80.8343 397.888C80.3543 398.432 79.7463 398.795 79.0103 398.976L79.7783 399.568L82.5623 404H81.0103L77.9223 399.168L76.3543 398.928V404H75.0263V392.912ZM77.9063 393.824C77.7676 393.824 77.6236 393.824 77.4743 393.824C77.3249 393.824 77.1809 393.829 77.0423 393.84C76.9036 393.851 76.7703 393.861 76.6423 393.872C76.5249 393.883 76.4289 393.899 76.3543 393.92V398.048H77.6023C78.3383 398.048 78.9463 397.867 79.4263 397.504C79.9063 397.141 80.1463 396.576 80.1463 395.808C80.1463 395.232 79.9489 394.757 79.5543 394.384C79.1596 394.011 78.6103 393.824 77.9063 393.824ZM84.2896 396.592C84.695 396.347 85.1643 396.165 85.6976 396.048C86.2416 395.931 86.807 395.872 87.3936 395.872C87.9483 395.872 88.391 395.947 88.7216 396.096C89.063 396.245 89.319 396.443 89.4896 396.688C89.671 396.923 89.7883 397.184 89.8416 397.472C89.9056 397.76 89.9376 398.048 89.9376 398.336C89.9376 398.976 89.9216 399.6 89.8896 400.208C89.8576 400.816 89.8416 401.392 89.8416 401.936C89.8416 402.331 89.8576 402.704 89.8896 403.056C89.9216 403.408 89.9803 403.733 90.0656 404.032H89.1216L88.7856 402.912H88.7056C88.6096 403.061 88.487 403.211 88.3376 403.36C88.199 403.499 88.0283 403.627 87.8256 403.744C87.623 403.851 87.3883 403.941 87.1216 404.016C86.855 404.091 86.551 404.128 86.2096 404.128C85.8683 404.128 85.5483 404.075 85.2496 403.968C84.9616 403.861 84.711 403.712 84.4976 403.52C84.2843 403.317 84.1136 403.077 83.9856 402.8C83.8683 402.523 83.8096 402.208 83.8096 401.856C83.8096 401.387 83.9056 400.997 84.0976 400.688C84.2896 400.368 84.5563 400.117 84.8976 399.936C85.2496 399.744 85.6656 399.611 86.1456 399.536C86.6363 399.451 87.175 399.408 87.7616 399.408C87.911 399.408 88.055 399.408 88.1936 399.408C88.343 399.408 88.4923 399.419 88.6416 399.44C88.6736 399.12 88.6896 398.832 88.6896 398.576C88.6896 397.989 88.5723 397.579 88.3376 397.344C88.103 397.109 87.6763 396.992 87.0576 396.992C86.8763 396.992 86.679 397.008 86.4656 397.04C86.263 397.061 86.0496 397.099 85.8256 397.152C85.6123 397.195 85.4043 397.253 85.2016 397.328C85.0096 397.392 84.839 397.467 84.6896 397.552L84.2896 396.592ZM86.5616 403.008C86.8603 403.008 87.127 402.971 87.3616 402.896C87.5963 402.811 87.799 402.709 87.9696 402.592C88.1403 402.464 88.279 402.325 88.3856 402.176C88.503 402.027 88.5883 401.883 88.6416 401.744V400.416C88.4923 400.405 88.3376 400.4 88.1776 400.4C88.0283 400.389 87.879 400.384 87.7296 400.384C87.399 400.384 87.0736 400.405 86.7536 400.448C86.4443 400.48 86.167 400.549 85.9216 400.656C85.687 400.752 85.495 400.891 85.3456 401.072C85.207 401.243 85.1376 401.461 85.1376 401.728C85.1376 402.101 85.271 402.411 85.5376 402.656C85.8043 402.891 86.1456 403.008 86.5616 403.008ZM97.9711 403.472C97.6511 403.707 97.2725 403.883 96.8351 404C96.3978 404.128 95.9391 404.192 95.4591 404.192C94.8405 404.192 94.3178 404.096 93.8911 403.904C93.4645 403.701 93.1125 403.419 92.8351 403.056C92.5685 402.683 92.3711 402.24 92.2431 401.728C92.1258 401.205 92.0671 400.629 92.0671 400C92.0671 398.645 92.3658 397.611 92.9631 396.896C93.5605 396.171 94.4191 395.808 95.5391 395.808C96.0511 395.808 96.4831 395.851 96.8351 395.936C97.1978 396.011 97.5231 396.123 97.8111 396.272L97.4431 397.376C97.1978 397.237 96.9258 397.131 96.6271 397.056C96.3285 396.971 96.0085 396.928 95.6671 396.928C94.1525 396.928 93.3951 397.952 93.3951 400C93.3951 400.405 93.4325 400.795 93.5071 401.168C93.5925 401.531 93.7258 401.856 93.9071 402.144C94.0991 402.421 94.3445 402.645 94.6431 402.816C94.9525 402.987 95.3311 403.072 95.7791 403.072C96.1631 403.072 96.5045 403.013 96.8031 402.896C97.1125 402.779 97.3631 402.645 97.5551 402.496L97.9711 403.472ZM105.03 404V399.44C105.03 399.024 105.003 398.661 104.95 398.352C104.907 398.032 104.822 397.771 104.694 397.568C104.566 397.355 104.39 397.195 104.166 397.088C103.953 396.981 103.67 396.928 103.318 396.928C102.817 396.928 102.363 397.093 101.958 397.424C101.553 397.744 101.291 398.16 101.174 398.672V404H99.8939V392.8H101.174V396.896H101.238C101.515 396.565 101.846 396.304 102.23 396.112C102.625 395.909 103.11 395.808 103.686 395.808C104.134 395.808 104.523 395.861 104.854 395.968C105.185 396.064 105.457 396.24 105.67 396.496C105.894 396.752 106.054 397.099 106.15 397.536C106.257 397.963 106.31 398.507 106.31 399.168V404H105.03ZM114.644 403.36C114.324 403.616 113.919 403.819 113.428 403.968C112.948 404.117 112.436 404.192 111.892 404.192C111.284 404.192 110.756 404.096 110.308 403.904C109.86 403.701 109.492 403.419 109.204 403.056C108.916 402.683 108.703 402.24 108.564 401.728C108.425 401.216 108.356 400.64 108.356 400C108.356 398.635 108.66 397.595 109.268 396.88C109.876 396.165 110.745 395.808 111.876 395.808C112.239 395.808 112.601 395.851 112.964 395.936C113.327 396.011 113.652 396.16 113.94 396.384C114.228 396.608 114.463 396.928 114.644 397.344C114.825 397.749 114.916 398.288 114.916 398.96C114.916 399.312 114.884 399.701 114.82 400.128H109.684C109.684 400.597 109.732 401.013 109.828 401.376C109.924 401.739 110.073 402.048 110.276 402.304C110.479 402.549 110.74 402.741 111.06 402.88C111.391 403.008 111.791 403.072 112.26 403.072C112.623 403.072 112.985 403.008 113.348 402.88C113.711 402.752 113.983 402.603 114.164 402.432L114.644 403.36ZM111.892 396.928C111.263 396.928 110.756 397.093 110.372 397.424C109.999 397.755 109.775 398.32 109.7 399.12H113.668C113.668 398.309 113.513 397.744 113.204 397.424C112.895 397.093 112.457 396.928 111.892 396.928ZM118.513 402.032C118.513 402.405 118.577 402.672 118.705 402.832C118.833 402.992 119.014 403.072 119.249 403.072C119.388 403.072 119.537 403.061 119.697 403.04C119.857 403.019 120.038 402.971 120.241 402.896L120.385 403.904C120.214 403.989 119.974 404.059 119.665 404.112C119.366 404.165 119.105 404.192 118.881 404.192C118.401 404.192 118.006 404.059 117.697 403.792C117.388 403.515 117.233 403.051 117.233 402.4V392.8H118.513V402.032ZM131.287 400.896H127.159L126.039 404H124.727L128.967 392.624H129.575L133.831 404H132.439L131.287 400.896ZM127.591 399.744H130.887L129.639 396.336L129.239 394.64H129.223L128.823 396.368L127.591 399.744ZM134.06 396H135.308V394.416L136.588 394.048V396H138.764V397.12H136.588V401.552C136.588 402.107 136.657 402.501 136.796 402.736C136.934 402.96 137.169 403.072 137.5 403.072C137.777 403.072 138.012 403.045 138.204 402.992C138.396 402.928 138.609 402.848 138.844 402.752L139.132 403.728C138.844 403.867 138.529 403.979 138.188 404.064C137.846 404.149 137.478 404.192 137.084 404.192C136.433 404.192 135.974 404.011 135.708 403.648C135.441 403.275 135.308 402.656 135.308 401.792V397.12H134.06V396ZM145.386 404V399.472C145.386 399.045 145.364 398.677 145.322 398.368C145.29 398.048 145.22 397.781 145.114 397.568C145.007 397.355 144.852 397.195 144.65 397.088C144.458 396.981 144.202 396.928 143.882 396.928C143.391 396.928 142.98 397.077 142.65 397.376C142.33 397.675 142.106 398.048 141.978 398.496V404H140.698V396H141.594L141.834 396.976H141.898C142.186 396.635 142.516 396.357 142.89 396.144C143.274 395.92 143.77 395.808 144.378 395.808C144.89 395.808 145.306 395.909 145.626 396.112C145.956 396.304 146.212 396.645 146.394 397.136C146.639 396.72 146.975 396.395 147.402 396.16C147.839 395.925 148.33 395.808 148.874 395.808C149.322 395.808 149.7 395.861 150.01 395.968C150.319 396.064 150.575 396.24 150.778 396.496C150.98 396.752 151.124 397.099 151.21 397.536C151.306 397.973 151.354 398.528 151.354 399.2V404H150.074V399.184C150.074 398.8 150.052 398.469 150.01 398.192C149.978 397.904 149.903 397.669 149.786 397.488C149.679 397.296 149.524 397.157 149.322 397.072C149.13 396.976 148.874 396.928 148.554 396.928C148.02 396.928 147.604 397.077 147.306 397.376C147.007 397.675 146.794 398.101 146.666 398.656V404H145.386ZM153.714 396.592C154.119 396.347 154.589 396.165 155.122 396.048C155.666 395.931 156.231 395.872 156.818 395.872C157.373 395.872 157.815 395.947 158.146 396.096C158.487 396.245 158.743 396.443 158.914 396.688C159.095 396.923 159.213 397.184 159.266 397.472C159.33 397.76 159.362 398.048 159.362 398.336C159.362 398.976 159.346 399.6 159.314 400.208C159.282 400.816 159.266 401.392 159.266 401.936C159.266 402.331 159.282 402.704 159.314 403.056C159.346 403.408 159.405 403.733 159.49 404.032H158.546L158.21 402.912H158.13C158.034 403.061 157.911 403.211 157.762 403.36C157.623 403.499 157.453 403.627 157.25 403.744C157.047 403.851 156.813 403.941 156.546 404.016C156.279 404.091 155.975 404.128 155.634 404.128C155.293 404.128 154.973 404.075 154.674 403.968C154.386 403.861 154.135 403.712 153.922 403.52C153.709 403.317 153.538 403.077 153.41 402.8C153.293 402.523 153.234 402.208 153.234 401.856C153.234 401.387 153.33 400.997 153.522 400.688C153.714 400.368 153.981 400.117 154.322 399.936C154.674 399.744 155.09 399.611 155.57 399.536C156.061 399.451 156.599 399.408 157.186 399.408C157.335 399.408 157.479 399.408 157.618 399.408C157.767 399.408 157.917 399.419 158.066 399.44C158.098 399.12 158.114 398.832 158.114 398.576C158.114 397.989 157.997 397.579 157.762 397.344C157.527 397.109 157.101 396.992 156.482 396.992C156.301 396.992 156.103 397.008 155.89 397.04C155.687 397.061 155.474 397.099 155.25 397.152C155.037 397.195 154.829 397.253 154.626 397.328C154.434 397.392 154.263 397.467 154.114 397.552L153.714 396.592ZM155.986 403.008C156.285 403.008 156.551 402.971 156.786 402.896C157.021 402.811 157.223 402.709 157.394 402.592C157.565 402.464 157.703 402.325 157.81 402.176C157.927 402.027 158.013 401.883 158.066 401.744V400.416C157.917 400.405 157.762 400.4 157.602 400.4C157.453 400.389 157.303 400.384 157.154 400.384C156.823 400.384 156.498 400.405 156.178 400.448C155.869 400.48 155.591 400.549 155.346 400.656C155.111 400.752 154.919 400.891 154.77 401.072C154.631 401.243 154.562 401.461 154.562 401.728C154.562 402.101 154.695 402.411 154.962 402.656C155.229 402.891 155.57 403.008 155.986 403.008ZM168.084 401.248C168.084 401.792 168.089 402.288 168.1 402.736C168.11 403.173 168.158 403.605 168.244 404.032H167.38L167.06 402.896H166.996C166.782 403.269 166.473 403.579 166.068 403.824C165.662 404.069 165.188 404.192 164.644 404.192C163.577 404.192 162.782 403.856 162.26 403.184C161.748 402.512 161.492 401.461 161.492 400.032C161.492 398.667 161.812 397.632 162.452 396.928C163.102 396.213 163.993 395.856 165.124 395.856C165.518 395.856 165.828 395.877 166.052 395.92C166.286 395.963 166.537 396.032 166.804 396.128V392.8H168.084V401.248ZM164.852 403.072C165.396 403.072 165.828 402.933 166.148 402.656C166.468 402.368 166.686 401.936 166.804 401.36V397.392C166.612 397.243 166.393 397.136 166.148 397.072C165.902 397.008 165.577 396.976 165.172 396.976C164.436 396.976 163.86 397.221 163.444 397.712C163.028 398.192 162.82 398.965 162.82 400.032C162.82 400.469 162.852 400.875 162.916 401.248C162.99 401.621 163.108 401.941 163.268 402.208C163.428 402.475 163.636 402.688 163.892 402.848C164.158 402.997 164.478 403.072 164.852 403.072ZM170.965 396H172.245V404.432C172.245 405.424 172.074 406.165 171.733 406.656C171.392 407.147 170.848 407.392 170.101 407.392C170.016 407.392 169.936 407.387 169.861 407.376C169.786 407.376 169.706 407.371 169.621 407.36V406.272C169.92 406.272 170.154 406.224 170.325 406.128C170.506 406.043 170.645 405.904 170.741 405.712C170.837 405.52 170.896 405.275 170.917 404.976C170.949 404.688 170.965 404.347 170.965 403.952V396ZM170.693 393.568C170.693 393.323 170.773 393.115 170.933 392.944C171.104 392.763 171.317 392.672 171.573 392.672C171.829 392.672 172.048 392.763 172.229 392.944C172.41 393.115 172.501 393.323 172.501 393.568C172.501 393.813 172.41 394.016 172.229 394.176C172.048 394.336 171.829 394.416 171.573 394.416C171.317 394.416 171.104 394.336 170.933 394.176C170.773 394.016 170.693 393.813 170.693 393.568ZM175.006 396.592C175.412 396.347 175.881 396.165 176.414 396.048C176.958 395.931 177.524 395.872 178.11 395.872C178.665 395.872 179.108 395.947 179.438 396.096C179.78 396.245 180.036 396.443 180.206 396.688C180.388 396.923 180.505 397.184 180.558 397.472C180.622 397.76 180.654 398.048 180.654 398.336C180.654 398.976 180.638 399.6 180.606 400.208C180.574 400.816 180.558 401.392 180.558 401.936C180.558 402.331 180.574 402.704 180.606 403.056C180.638 403.408 180.697 403.733 180.782 404.032H179.838L179.502 402.912H179.422C179.326 403.061 179.204 403.211 179.054 403.36C178.916 403.499 178.745 403.627 178.542 403.744C178.34 403.851 178.105 403.941 177.838 404.016C177.572 404.091 177.268 404.128 176.926 404.128C176.585 404.128 176.265 404.075 175.966 403.968C175.678 403.861 175.428 403.712 175.214 403.52C175.001 403.317 174.83 403.077 174.702 402.8C174.585 402.523 174.526 402.208 174.526 401.856C174.526 401.387 174.622 400.997 174.814 400.688C175.006 400.368 175.273 400.117 175.614 399.936C175.966 399.744 176.382 399.611 176.862 399.536C177.353 399.451 177.892 399.408 178.478 399.408C178.628 399.408 178.772 399.408 178.91 399.408C179.06 399.408 179.209 399.419 179.358 399.44C179.39 399.12 179.406 398.832 179.406 398.576C179.406 397.989 179.289 397.579 179.054 397.344C178.82 397.109 178.393 396.992 177.774 396.992C177.593 396.992 177.396 397.008 177.182 397.04C176.98 397.061 176.766 397.099 176.542 397.152C176.329 397.195 176.121 397.253 175.918 397.328C175.726 397.392 175.556 397.467 175.406 397.552L175.006 396.592ZM177.278 403.008C177.577 403.008 177.844 402.971 178.078 402.896C178.313 402.811 178.516 402.709 178.686 402.592C178.857 402.464 178.996 402.325 179.102 402.176C179.22 402.027 179.305 401.883 179.358 401.744V400.416C179.209 400.405 179.054 400.4 178.894 400.4C178.745 400.389 178.596 400.384 178.446 400.384C178.116 400.384 177.79 400.405 177.47 400.448C177.161 400.48 176.884 400.549 176.638 400.656C176.404 400.752 176.212 400.891 176.062 401.072C175.924 401.243 175.854 401.461 175.854 401.728C175.854 402.101 175.988 402.411 176.254 402.656C176.521 402.891 176.862 403.008 177.278 403.008Z" fill="#4F4F4F"/>
<path d="M83 345.496V122.991H310.14V345.496" stroke="#828282" stroke-width="4"/>
<path d="M592.906 345.496V122.991H820.046V345.496" stroke="#828282" stroke-width="4"/>
<path d="M337.953 345.496V122.991H565.093V345.496" stroke="#828282" stroke-width="4"/>
<path d="M847.859 345.496V122.991H1075V345.496" stroke="#828282" stroke-width="4"/>
<rect x="92.2695" y="134.578" width="45.1963" height="173.832" fill="#DFDDE2"/>
<rect x="602.176" y="134.578" width="45.1963" height="126.318" fill="#DFDDE2"/>
<rect x="347.223" y="134.578" width="45.1963" height="173.832" fill="#DFDDE2"/>
<rect x="857.133" y="134.578" width="45.1963" height="126.318" fill="#DFDDE2"/>
<rect x="146.738" y="134.578" width="45.1963" height="202.804" fill="#EFE8DF"/>
<rect x="656.645" y="134.578" width="45.1963" height="155.29" fill="#EFE8DF"/>
<rect x="401.691" y="134.578" width="45.1963" height="126.318" fill="#EFE8DF"/>
<rect x="911.598" y="134.578" width="45.1963" height="126.318" fill="#EFE8DF"/>
<rect x="255.672" y="134.578" width="45.1963" height="155.29" fill="#D9DFE9"/>
<rect x="765.578" y="134.578" width="45.1963" height="155.29" fill="#D9DFE9"/>
<rect x="510.625" y="134.578" width="45.1963" height="126.318" fill="#D9DFE9"/>
<rect x="1020.53" y="134.578" width="45.1963" height="126.318" fill="#D9DFE9"/>
<rect x="201.207" y="134.578" width="45.1963" height="180.785" fill="#EDE3E4"/>
<rect x="711.113" y="134.578" width="45.1963" height="180.785" fill="#EDE3E4"/>
<rect x="456.16" y="134.578" width="45.1963" height="202.804" fill="#EDE3E4"/>
<rect x="966.066" y="134.578" width="45.1963" height="155.29" fill="#EDE3E4"/>
<path d="M135.47 99.2L135.542 104H133.646L133.718 99.368L133.646 88.616H135.566L135.47 99.2ZM137.846 95.84C139.974 98.592 142.198 101.176 144.518 103.592L144.494 103.832C144.014 103.976 143.414 104.104 142.694 104.216L142.454 104.096C139.926 101.232 137.718 98.512 135.83 95.936V95.792L140.966 89.96L141.926 88.616H144.086L137.846 95.84ZM146.737 98.432V98.48C146.737 99.824 147.041 100.856 147.649 101.576C148.257 102.296 149.121 102.656 150.241 102.656C150.801 102.656 151.361 102.568 151.921 102.392C152.481 102.2 152.993 101.936 153.457 101.6L153.649 101.744L153.361 103.376C152.241 103.92 151.121 104.192 150.001 104.192C148.433 104.192 147.201 103.696 146.305 102.704C145.409 101.696 144.961 100.32 144.961 98.576C144.961 96.816 145.409 95.416 146.305 94.376C147.201 93.336 148.409 92.816 149.929 92.816C151.209 92.816 152.201 93.184 152.905 93.92C153.609 94.64 153.961 95.648 153.961 96.944C153.961 97.376 153.929 97.784 153.865 98.168L153.625 98.408L146.737 98.432ZM149.929 94.16C149.129 94.16 148.457 94.424 147.913 94.952C147.385 95.464 147.033 96.192 146.857 97.136L152.161 97.04L152.209 96.704C152.209 95.888 152.009 95.264 151.609 94.832C151.225 94.384 150.665 94.16 149.929 94.16ZM157.391 94.352L160.031 101.936H160.199L162.935 94.52L163.295 93.008H164.999L161.063 103.616C160.663 104.704 160.231 105.56 159.767 106.184C159.319 106.808 158.767 107.296 158.111 107.648C157.471 108.016 156.623 108.328 155.567 108.584H155.399C155.063 108.248 154.799 107.872 154.607 107.456L154.655 107.24C155.871 107 156.799 106.656 157.439 106.208C158.095 105.776 158.703 105.04 159.263 104L155.231 93.056L157.031 92.936L157.391 94.352ZM186.691 104H184.963L184.603 99.32L183.787 91.664H183.619L179.347 102.224H177.763L173.707 91.664H173.515L172.699 99.176L172.291 104H170.659L172.267 88.616H174.451L175.243 90.968L178.579 99.728H178.723L182.227 90.824L183.019 88.616H185.179L186.691 104ZM193.711 92.816C195.199 92.816 196.351 93.304 197.167 94.28C197.999 95.24 198.415 96.6 198.415 98.36C198.415 100.216 197.983 101.656 197.119 102.68C196.255 103.688 195.023 104.192 193.423 104.192C191.919 104.192 190.751 103.712 189.919 102.752C189.103 101.776 188.695 100.408 188.695 98.648C188.695 96.792 189.127 95.36 189.991 94.352C190.871 93.328 192.111 92.816 193.711 92.816ZM193.591 94.16C192.583 94.16 191.815 94.504 191.287 95.192C190.759 95.88 190.495 96.888 190.495 98.216C190.495 99.752 190.751 100.904 191.263 101.672C191.791 102.44 192.551 102.824 193.543 102.824C194.551 102.824 195.319 102.488 195.847 101.816C196.375 101.144 196.639 100.136 196.639 98.792C196.639 97.272 196.375 96.12 195.847 95.336C195.335 94.552 194.583 94.16 193.591 94.16ZM214.914 96.536C214.93 95.88 214.778 95.368 214.458 95C214.138 94.632 213.666 94.448 213.042 94.448C212.018 94.448 210.954 95 209.85 96.104L209.802 99.224L209.898 104H207.954L208.098 96.536C208.114 95.88 207.962 95.368 207.642 95C207.322 94.632 206.85 94.448 206.226 94.448C205.218 94.448 204.13 95.016 202.962 96.152V99.176L203.058 104H201.162L201.282 99.344L201.186 93.128L202.986 92.96V94.568H203.13C204.122 93.688 205.138 93.12 206.178 92.864C207.074 92.864 207.81 93.024 208.386 93.344C208.962 93.648 209.37 94.096 209.61 94.688H209.754C210.762 93.776 211.842 93.168 212.994 92.864C214.21 92.864 215.13 93.144 215.754 93.704C216.378 94.264 216.682 95.064 216.666 96.104L216.618 99.224L216.714 104H214.794L214.914 96.536ZM221.221 98.432V98.48C221.221 99.824 221.525 100.856 222.133 101.576C222.741 102.296 223.605 102.656 224.725 102.656C225.285 102.656 225.845 102.568 226.405 102.392C226.965 102.2 227.477 101.936 227.941 101.6L228.133 101.744L227.845 103.376C226.725 103.92 225.605 104.192 224.485 104.192C222.917 104.192 221.685 103.696 220.789 102.704C219.893 101.696 219.445 100.32 219.445 98.576C219.445 96.816 219.893 95.416 220.789 94.376C221.685 93.336 222.893 92.816 224.413 92.816C225.693 92.816 226.685 93.184 227.389 93.92C228.093 94.64 228.445 95.648 228.445 96.944C228.445 97.376 228.413 97.784 228.349 98.168L228.109 98.408L221.221 98.432ZM224.413 94.16C223.613 94.16 222.941 94.424 222.397 94.952C221.869 95.464 221.517 96.192 221.341 97.136L226.645 97.04L226.693 96.704C226.693 95.888 226.493 95.264 226.093 94.832C225.709 94.384 225.149 94.16 224.413 94.16ZM238.356 96.536C238.372 95.88 238.22 95.368 237.9 95C237.58 94.632 237.108 94.448 236.484 94.448C235.476 94.448 234.388 95.016 233.22 96.152V99.176L233.316 104H231.42L231.54 99.344L231.444 93.128L233.244 92.96V94.568H233.388C234.38 93.688 235.396 93.12 236.436 92.864C237.636 92.864 238.548 93.144 239.172 93.704C239.812 94.264 240.124 95.064 240.108 96.104L240.06 99.224L240.156 104H238.236L238.356 96.536ZM247.251 102.536C247.779 102.536 248.355 102.376 248.979 102.056L249.195 102.2L249.003 103.448C248.139 103.848 247.339 104.08 246.603 104.144C245.691 103.968 245.035 103.632 244.635 103.136C244.235 102.64 244.035 101.92 244.035 100.976L244.107 99.272L244.083 94.304H242.571L242.475 94.16L242.595 93.032H244.059V91.256L245.715 90.536L245.907 90.704L245.859 93.032H249.123L249.219 93.176L249.099 94.304H245.859L245.739 100.808C245.723 101.448 245.835 101.896 246.075 102.152C246.315 102.408 246.707 102.536 247.251 102.536ZM258.9 92.144L258.78 99.032L258.876 104H256.956L257.076 99.272L257.052 94.136L253.956 95L253.764 94.904V93.392L258.612 91.952L258.9 92.144Z" fill="black"/>
<path d="M644.556 99.2L644.628 104H642.732L642.804 99.368L642.732 88.616H644.652L644.556 99.2ZM646.932 95.84C649.06 98.592 651.284 101.176 653.604 103.592L653.58 103.832C653.1 103.976 652.5 104.104 651.78 104.216L651.54 104.096C649.012 101.232 646.804 98.512 644.916 95.936V95.792L650.052 89.96L651.012 88.616H653.172L646.932 95.84ZM655.823 98.432V98.48C655.823 99.824 656.127 100.856 656.735 101.576C657.343 102.296 658.207 102.656 659.327 102.656C659.887 102.656 660.447 102.568 661.007 102.392C661.567 102.2 662.079 101.936 662.543 101.6L662.735 101.744L662.447 103.376C661.327 103.92 660.207 104.192 659.087 104.192C657.519 104.192 656.287 103.696 655.391 102.704C654.495 101.696 654.047 100.32 654.047 98.576C654.047 96.816 654.495 95.416 655.391 94.376C656.287 93.336 657.495 92.816 659.015 92.816C660.295 92.816 661.287 93.184 661.991 93.92C662.695 94.64 663.047 95.648 663.047 96.944C663.047 97.376 663.015 97.784 662.951 98.168L662.711 98.408L655.823 98.432ZM659.015 94.16C658.215 94.16 657.543 94.424 656.999 94.952C656.471 95.464 656.119 96.192 655.943 97.136L661.247 97.04L661.295 96.704C661.295 95.888 661.095 95.264 660.695 94.832C660.311 94.384 659.751 94.16 659.015 94.16ZM666.477 94.352L669.117 101.936H669.285L672.021 94.52L672.381 93.008H674.085L670.149 103.616C669.749 104.704 669.317 105.56 668.853 106.184C668.405 106.808 667.853 107.296 667.197 107.648C666.557 108.016 665.709 108.328 664.653 108.584H664.485C664.149 108.248 663.885 107.872 663.693 107.456L663.741 107.24C664.957 107 665.885 106.656 666.525 106.208C667.181 105.776 667.789 105.04 668.349 104L664.317 93.056L666.117 92.936L666.477 94.352ZM695.776 104H694.048L693.688 99.32L692.872 91.664H692.704L688.432 102.224H686.848L682.792 91.664H682.6L681.784 99.176L681.376 104H679.744L681.352 88.616H683.536L684.328 90.968L687.664 99.728H687.808L691.312 90.824L692.104 88.616H694.264L695.776 104ZM702.797 92.816C704.285 92.816 705.437 93.304 706.253 94.28C707.085 95.24 707.501 96.6 707.501 98.36C707.501 100.216 707.069 101.656 706.205 102.68C705.341 103.688 704.109 104.192 702.509 104.192C701.005 104.192 699.837 103.712 699.005 102.752C698.189 101.776 697.781 100.408 697.781 98.648C697.781 96.792 698.213 95.36 699.077 94.352C699.957 93.328 701.197 92.816 702.797 92.816ZM702.677 94.16C701.669 94.16 700.901 94.504 700.373 95.192C699.845 95.88 699.581 96.888 699.581 98.216C699.581 99.752 699.837 100.904 700.349 101.672C700.877 102.44 701.637 102.824 702.629 102.824C703.637 102.824 704.405 102.488 704.933 101.816C705.461 101.144 705.725 100.136 705.725 98.792C705.725 97.272 705.461 96.12 704.933 95.336C704.421 94.552 703.669 94.16 702.677 94.16ZM724 96.536C724.016 95.88 723.864 95.368 723.544 95C723.224 94.632 722.752 94.448 722.128 94.448C721.104 94.448 720.04 95 718.936 96.104L718.888 99.224L718.984 104H717.04L717.184 96.536C717.2 95.88 717.048 95.368 716.728 95C716.408 94.632 715.936 94.448 715.312 94.448C714.304 94.448 713.216 95.016 712.048 96.152V99.176L712.144 104H710.248L710.368 99.344L710.272 93.128L712.072 92.96V94.568H712.216C713.208 93.688 714.224 93.12 715.264 92.864C716.16 92.864 716.896 93.024 717.472 93.344C718.048 93.648 718.456 94.096 718.696 94.688H718.84C719.848 93.776 720.928 93.168 722.08 92.864C723.296 92.864 724.216 93.144 724.84 93.704C725.464 94.264 725.768 95.064 725.752 96.104L725.704 99.224L725.8 104H723.88L724 96.536ZM730.307 98.432V98.48C730.307 99.824 730.611 100.856 731.219 101.576C731.827 102.296 732.691 102.656 733.811 102.656C734.371 102.656 734.931 102.568 735.491 102.392C736.051 102.2 736.563 101.936 737.027 101.6L737.219 101.744L736.931 103.376C735.811 103.92 734.691 104.192 733.571 104.192C732.003 104.192 730.771 103.696 729.875 102.704C728.979 101.696 728.531 100.32 728.531 98.576C728.531 96.816 728.979 95.416 729.875 94.376C730.771 93.336 731.979 92.816 733.499 92.816C734.779 92.816 735.771 93.184 736.475 93.92C737.179 94.64 737.531 95.648 737.531 96.944C737.531 97.376 737.499 97.784 737.435 98.168L737.195 98.408L730.307 98.432ZM733.499 94.16C732.699 94.16 732.027 94.424 731.483 94.952C730.955 95.464 730.603 96.192 730.427 97.136L735.731 97.04L735.779 96.704C735.779 95.888 735.579 95.264 735.179 94.832C734.795 94.384 734.235 94.16 733.499 94.16ZM747.442 96.536C747.458 95.88 747.306 95.368 746.986 95C746.666 94.632 746.194 94.448 745.57 94.448C744.562 94.448 743.474 95.016 742.306 96.152V99.176L742.402 104H740.506L740.626 99.344L740.53 93.128L742.33 92.96V94.568H742.474C743.466 93.688 744.482 93.12 745.522 92.864C746.722 92.864 747.634 93.144 748.258 93.704C748.898 94.264 749.21 95.064 749.194 96.104L749.146 99.224L749.242 104H747.322L747.442 96.536ZM756.337 102.536C756.865 102.536 757.441 102.376 758.065 102.056L758.281 102.2L758.089 103.448C757.225 103.848 756.425 104.08 755.689 104.144C754.777 103.968 754.121 103.632 753.721 103.136C753.321 102.64 753.121 101.92 753.121 100.976L753.193 99.272L753.169 94.304H751.657L751.561 94.16L751.681 93.032H753.145V91.256L754.801 90.536L754.993 90.704L754.945 93.032H758.209L758.305 93.176L758.185 94.304H754.945L754.825 100.808C754.809 101.448 754.921 101.896 755.161 102.152C755.401 102.408 755.793 102.536 756.337 102.536ZM767.17 91.928C768.258 91.928 769.138 92.216 769.81 92.792C770.482 93.352 770.818 94.08 770.818 94.976C770.818 95.664 770.61 96.328 770.194 96.968C769.794 97.608 769.202 98.128 768.418 98.528V98.624C769.378 98.848 770.106 99.232 770.602 99.776C771.098 100.32 771.346 101 771.346 101.816C771.346 102.696 771.114 103.48 770.65 104.168C770.202 104.856 769.562 105.384 768.73 105.752C767.898 106.136 766.946 106.328 765.874 106.328C765.138 106.328 764.354 106.256 763.522 106.112L763.402 104.48L763.546 104.36C764.298 104.68 765.114 104.84 765.994 104.84C767.05 104.84 767.906 104.584 768.562 104.072C769.218 103.576 769.546 102.904 769.546 102.056C769.546 101.304 769.274 100.712 768.73 100.28C768.202 99.848 767.442 99.616 766.45 99.584H765.034L764.914 99.44L764.962 98.12L766.018 98.096C766.45 98.096 766.89 97.976 767.338 97.736C767.786 97.496 768.154 97.168 768.442 96.752C768.746 96.336 768.898 95.88 768.898 95.384C768.898 94.808 768.706 94.352 768.322 94.016C767.938 93.68 767.434 93.512 766.81 93.512C766.314 93.512 765.826 93.632 765.346 93.872C764.882 94.096 764.378 94.448 763.834 94.928H763.618L763.33 93.416C764.53 92.424 765.81 91.928 767.17 91.928Z" fill="black"/>
<path d="M389.088 99.2L389.16 104H387.264L387.336 99.368L387.264 88.616H389.184L389.088 99.2ZM391.464 95.84C393.592 98.592 395.816 101.176 398.136 103.592L398.112 103.832C397.632 103.976 397.032 104.104 396.312 104.216L396.072 104.096C393.544 101.232 391.336 98.512 389.448 95.936V95.792L394.584 89.96L395.544 88.616H397.704L391.464 95.84ZM400.354 98.432V98.48C400.354 99.824 400.658 100.856 401.266 101.576C401.874 102.296 402.738 102.656 403.858 102.656C404.418 102.656 404.978 102.568 405.538 102.392C406.098 102.2 406.61 101.936 407.074 101.6L407.266 101.744L406.978 103.376C405.858 103.92 404.738 104.192 403.618 104.192C402.05 104.192 400.818 103.696 399.922 102.704C399.026 101.696 398.578 100.32 398.578 98.576C398.578 96.816 399.026 95.416 399.922 94.376C400.818 93.336 402.026 92.816 403.546 92.816C404.826 92.816 405.818 93.184 406.522 93.92C407.226 94.64 407.578 95.648 407.578 96.944C407.578 97.376 407.546 97.784 407.482 98.168L407.242 98.408L400.354 98.432ZM403.546 94.16C402.746 94.16 402.074 94.424 401.53 94.952C401.002 95.464 400.65 96.192 400.474 97.136L405.778 97.04L405.826 96.704C405.826 95.888 405.626 95.264 405.226 94.832C404.842 94.384 404.282 94.16 403.546 94.16ZM411.009 94.352L413.649 101.936H413.817L416.553 94.52L416.913 93.008H418.617L414.681 103.616C414.281 104.704 413.849 105.56 413.385 106.184C412.937 106.808 412.385 107.296 411.729 107.648C411.089 108.016 410.241 108.328 409.185 108.584H409.017C408.681 108.248 408.417 107.872 408.225 107.456L408.273 107.24C409.489 107 410.417 106.656 411.057 106.208C411.713 105.776 412.321 105.04 412.881 104L408.849 93.056L410.649 92.936L411.009 94.352ZM440.308 104H438.58L438.22 99.32L437.404 91.664H437.236L432.964 102.224H431.38L427.324 91.664H427.132L426.316 99.176L425.908 104H424.276L425.884 88.616H428.068L428.86 90.968L432.196 99.728H432.34L435.844 90.824L436.636 88.616H438.796L440.308 104ZM447.328 92.816C448.816 92.816 449.968 93.304 450.784 94.28C451.616 95.24 452.032 96.6 452.032 98.36C452.032 100.216 451.6 101.656 450.736 102.68C449.872 103.688 448.64 104.192 447.04 104.192C445.536 104.192 444.368 103.712 443.536 102.752C442.72 101.776 442.312 100.408 442.312 98.648C442.312 96.792 442.744 95.36 443.608 94.352C444.488 93.328 445.728 92.816 447.328 92.816ZM447.208 94.16C446.2 94.16 445.432 94.504 444.904 95.192C444.376 95.88 444.112 96.888 444.112 98.216C444.112 99.752 444.368 100.904 444.88 101.672C445.408 102.44 446.168 102.824 447.16 102.824C448.168 102.824 448.936 102.488 449.464 101.816C449.992 101.144 450.256 100.136 450.256 98.792C450.256 97.272 449.992 96.12 449.464 95.336C448.952 94.552 448.2 94.16 447.208 94.16ZM468.531 96.536C468.547 95.88 468.395 95.368 468.075 95C467.755 94.632 467.283 94.448 466.659 94.448C465.635 94.448 464.571 95 463.467 96.104L463.419 99.224L463.515 104H461.571L461.715 96.536C461.731 95.88 461.579 95.368 461.259 95C460.939 94.632 460.467 94.448 459.843 94.448C458.835 94.448 457.747 95.016 456.579 96.152V99.176L456.675 104H454.779L454.899 99.344L454.803 93.128L456.603 92.96V94.568H456.747C457.739 93.688 458.755 93.12 459.795 92.864C460.691 92.864 461.427 93.024 462.003 93.344C462.579 93.648 462.987 94.096 463.227 94.688H463.371C464.379 93.776 465.459 93.168 466.611 92.864C467.827 92.864 468.747 93.144 469.371 93.704C469.995 94.264 470.299 95.064 470.283 96.104L470.235 99.224L470.331 104H468.411L468.531 96.536ZM474.838 98.432V98.48C474.838 99.824 475.142 100.856 475.75 101.576C476.358 102.296 477.222 102.656 478.342 102.656C478.902 102.656 479.462 102.568 480.022 102.392C480.582 102.2 481.094 101.936 481.558 101.6L481.75 101.744L481.462 103.376C480.342 103.92 479.222 104.192 478.102 104.192C476.534 104.192 475.302 103.696 474.406 102.704C473.51 101.696 473.062 100.32 473.062 98.576C473.062 96.816 473.51 95.416 474.406 94.376C475.302 93.336 476.51 92.816 478.03 92.816C479.31 92.816 480.302 93.184 481.006 93.92C481.71 94.64 482.062 95.648 482.062 96.944C482.062 97.376 482.03 97.784 481.966 98.168L481.726 98.408L474.838 98.432ZM478.03 94.16C477.23 94.16 476.558 94.424 476.014 94.952C475.486 95.464 475.134 96.192 474.958 97.136L480.262 97.04L480.31 96.704C480.31 95.888 480.11 95.264 479.71 94.832C479.326 94.384 478.766 94.16 478.03 94.16ZM491.973 96.536C491.989 95.88 491.837 95.368 491.517 95C491.197 94.632 490.725 94.448 490.101 94.448C489.093 94.448 488.005 95.016 486.837 96.152V99.176L486.933 104H485.037L485.157 99.344L485.061 93.128L486.861 92.96V94.568H487.005C487.997 93.688 489.013 93.12 490.053 92.864C491.253 92.864 492.165 93.144 492.789 93.704C493.429 94.264 493.741 95.064 493.725 96.104L493.677 99.224L493.773 104H491.853L491.973 96.536ZM500.868 102.536C501.396 102.536 501.972 102.376 502.596 102.056L502.812 102.2L502.62 103.448C501.756 103.848 500.956 104.08 500.22 104.144C499.308 103.968 498.652 103.632 498.252 103.136C497.852 102.64 497.652 101.92 497.652 100.976L497.724 99.272L497.7 94.304H496.188L496.092 94.16L496.212 93.032H497.676V91.256L499.332 90.536L499.524 90.704L499.476 93.032H502.74L502.836 93.176L502.716 94.304H499.476L499.356 100.808C499.34 101.448 499.452 101.896 499.692 102.152C499.932 102.408 500.324 102.536 500.868 102.536ZM512.637 91.952C513.597 91.952 514.381 92.2 514.989 92.696C515.613 93.176 515.925 93.816 515.925 94.616C515.925 95.256 515.701 95.976 515.253 96.776C514.805 97.56 514.093 98.52 513.117 99.656L510.693 102.416L510.741 102.512H515.181L517.197 102.368L517.341 102.488L517.077 104.096L514.629 104H509.253L508.365 104.048L508.245 103.952V102.752L511.581 99.128C512.445 98.168 513.077 97.376 513.477 96.752C513.877 96.112 514.077 95.552 514.077 95.072C514.077 94.64 513.917 94.288 513.597 94.016C513.277 93.728 512.829 93.584 512.253 93.584C511.677 93.584 511.101 93.728 510.525 94.016C509.965 94.304 509.453 94.704 508.989 95.216H508.749L508.437 93.752C509.061 93.176 509.733 92.736 510.453 92.432C511.173 92.112 511.901 91.952 512.637 91.952Z" fill="black"/>
<path d="M898.677 99.2L898.749 104H896.853L896.925 99.368L896.853 88.616H898.773L898.677 99.2ZM901.053 95.84C903.181 98.592 905.405 101.176 907.725 103.592L907.701 103.832C907.221 103.976 906.621 104.104 905.901 104.216L905.661 104.096C903.133 101.232 900.925 98.512 899.037 95.936V95.792L904.173 89.96L905.133 88.616H907.293L901.053 95.84ZM909.944 98.432V98.48C909.944 99.824 910.248 100.856 910.856 101.576C911.464 102.296 912.328 102.656 913.448 102.656C914.008 102.656 914.568 102.568 915.128 102.392C915.688 102.2 916.2 101.936 916.664 101.6L916.856 101.744L916.568 103.376C915.448 103.92 914.328 104.192 913.208 104.192C911.64 104.192 910.408 103.696 909.512 102.704C908.616 101.696 908.168 100.32 908.168 98.576C908.168 96.816 908.616 95.416 909.512 94.376C910.408 93.336 911.616 92.816 913.136 92.816C914.416 92.816 915.408 93.184 916.112 93.92C916.816 94.64 917.168 95.648 917.168 96.944C917.168 97.376 917.136 97.784 917.072 98.168L916.832 98.408L909.944 98.432ZM913.136 94.16C912.336 94.16 911.664 94.424 911.12 94.952C910.592 95.464 910.24 96.192 910.064 97.136L915.368 97.04L915.416 96.704C915.416 95.888 915.216 95.264 914.816 94.832C914.432 94.384 913.872 94.16 913.136 94.16ZM920.598 94.352L923.238 101.936H923.406L926.142 94.52L926.502 93.008H928.206L924.27 103.616C923.87 104.704 923.438 105.56 922.974 106.184C922.526 106.808 921.974 107.296 921.318 107.648C920.678 108.016 919.83 108.328 918.774 108.584H918.606C918.27 108.248 918.006 107.872 917.814 107.456L917.862 107.24C919.078 107 920.006 106.656 920.646 106.208C921.302 105.776 921.91 105.04 922.47 104L918.438 93.056L920.238 92.936L920.598 94.352ZM949.898 104H948.17L947.81 99.32L946.994 91.664H946.826L942.554 102.224H940.97L936.914 91.664H936.722L935.906 99.176L935.498 104H933.866L935.474 88.616H937.658L938.45 90.968L941.786 99.728H941.93L945.434 90.824L946.226 88.616H948.386L949.898 104ZM956.918 92.816C958.406 92.816 959.558 93.304 960.374 94.28C961.206 95.24 961.622 96.6 961.622 98.36C961.622 100.216 961.19 101.656 960.326 102.68C959.462 103.688 958.23 104.192 956.63 104.192C955.126 104.192 953.958 103.712 953.126 102.752C952.31 101.776 951.902 100.408 951.902 98.648C951.902 96.792 952.334 95.36 953.198 94.352C954.078 93.328 955.318 92.816 956.918 92.816ZM956.798 94.16C955.79 94.16 955.022 94.504 954.494 95.192C953.966 95.88 953.702 96.888 953.702 98.216C953.702 99.752 953.958 100.904 954.47 101.672C954.998 102.44 955.758 102.824 956.75 102.824C957.758 102.824 958.526 102.488 959.054 101.816C959.582 101.144 959.846 100.136 959.846 98.792C959.846 97.272 959.582 96.12 959.054 95.336C958.542 94.552 957.79 94.16 956.798 94.16ZM978.121 96.536C978.137 95.88 977.985 95.368 977.665 95C977.345 94.632 976.873 94.448 976.249 94.448C975.225 94.448 974.161 95 973.057 96.104L973.009 99.224L973.105 104H971.161L971.305 96.536C971.321 95.88 971.169 95.368 970.849 95C970.529 94.632 970.057 94.448 969.433 94.448C968.425 94.448 967.337 95.016 966.169 96.152V99.176L966.265 104H964.369L964.489 99.344L964.393 93.128L966.193 92.96V94.568H966.337C967.329 93.688 968.345 93.12 969.385 92.864C970.281 92.864 971.017 93.024 971.593 93.344C972.169 93.648 972.577 94.096 972.817 94.688H972.961C973.969 93.776 975.049 93.168 976.201 92.864C977.417 92.864 978.337 93.144 978.961 93.704C979.585 94.264 979.889 95.064 979.873 96.104L979.825 99.224L979.921 104H978.001L978.121 96.536ZM984.428 98.432V98.48C984.428 99.824 984.732 100.856 985.34 101.576C985.948 102.296 986.812 102.656 987.932 102.656C988.492 102.656 989.052 102.568 989.612 102.392C990.172 102.2 990.684 101.936 991.148 101.6L991.34 101.744L991.052 103.376C989.932 103.92 988.812 104.192 987.692 104.192C986.124 104.192 984.892 103.696 983.996 102.704C983.1 101.696 982.652 100.32 982.652 98.576C982.652 96.816 983.1 95.416 983.996 94.376C984.892 93.336 986.1 92.816 987.62 92.816C988.9 92.816 989.892 93.184 990.596 93.92C991.3 94.64 991.652 95.648 991.652 96.944C991.652 97.376 991.62 97.784 991.556 98.168L991.316 98.408L984.428 98.432ZM987.62 94.16C986.82 94.16 986.148 94.424 985.604 94.952C985.076 95.464 984.724 96.192 984.548 97.136L989.852 97.04L989.9 96.704C989.9 95.888 989.7 95.264 989.3 94.832C988.916 94.384 988.356 94.16 987.62 94.16ZM1001.56 96.536C1001.58 95.88 1001.43 95.368 1001.11 95C1000.79 94.632 1000.31 94.448 999.691 94.448C998.683 94.448 997.595 95.016 996.427 96.152V99.176L996.523 104H994.627L994.747 99.344L994.651 93.128L996.451 92.96V94.568H996.595C997.587 93.688 998.603 93.12 999.643 92.864C1000.84 92.864 1001.75 93.144 1002.38 93.704C1003.02 94.264 1003.33 95.064 1003.31 96.104L1003.27 99.224L1003.36 104H1001.44L1001.56 96.536ZM1010.46 102.536C1010.99 102.536 1011.56 102.376 1012.19 102.056L1012.4 102.2L1012.21 103.448C1011.35 103.848 1010.55 104.08 1009.81 104.144C1008.9 103.968 1008.24 103.632 1007.84 103.136C1007.44 102.64 1007.24 101.92 1007.24 100.976L1007.31 99.272L1007.29 94.304H1005.78L1005.68 94.16L1005.8 93.032H1007.27V91.256L1008.92 90.536L1009.11 90.704L1009.07 93.032H1012.33L1012.43 93.176L1012.31 94.304H1009.07L1008.95 100.808C1008.93 101.448 1009.04 101.896 1009.28 102.152C1009.52 102.408 1009.91 102.536 1010.46 102.536ZM1025.15 102.152H1025.11L1025.18 106.064L1025.06 106.208L1023.62 106.328L1023.5 106.184L1023.55 102.152H1019.06L1017.47 102.2L1017.35 102.008V100.784L1023.38 92.048H1025.13L1025.08 100.664H1027.34L1027.48 100.856L1027.36 102.2L1025.15 102.152ZM1023.57 100.664V94.352H1023.4L1019.03 100.664H1023.57Z" fill="black"/>
<path d="M105.613 261.226C105.613 259.582 106.081 258.322 107.017 257.446C107.953 256.57 109.297 256.132 111.049 256.132C113.077 256.132 114.631 256.606 115.711 257.554C116.791 258.502 117.331 259.864 117.331 261.64C117.331 262.132 117.319 262.732 117.295 263.44C117.283 264.136 117.259 264.784 117.223 265.384L117.223 265.402L113.749 265.312L105.685 265.402L105.685 265.384L105.613 261.226ZM116.125 261.406C116.125 260.182 115.729 259.246 114.937 258.598C114.133 257.938 112.939 257.608 111.355 257.608C108.331 257.608 106.819 258.85 106.819 261.334C106.819 262.09 106.843 262.96 106.891 263.944L113.623 264.016L116.017 263.962C116.053 263.59 116.083 263.146 116.107 262.63C116.119 262.102 116.125 261.694 116.125 261.406ZM108.835 251.282C108.835 250.502 109.027 249.89 109.411 249.446C109.795 248.99 110.323 248.762 110.995 248.762C111.199 248.762 111.937 248.798 113.209 248.87C114.481 248.942 115.225 248.978 115.441 248.978C115.705 248.978 115.891 248.936 115.999 248.852C116.095 248.768 116.143 248.624 116.143 248.42C116.143 248.24 116.107 248.036 116.035 247.808L116.161 247.664L116.971 247.808C117.175 248.156 117.295 248.498 117.331 248.834C117.295 249.206 117.163 249.506 116.935 249.734C116.707 249.95 116.395 250.064 115.999 250.076L115.999 250.202C116.659 250.85 117.109 251.492 117.349 252.128C117.349 252.932 117.151 253.562 116.755 254.018C116.347 254.462 115.795 254.684 115.099 254.684C114.571 254.684 114.151 254.546 113.839 254.27C113.527 253.982 113.305 253.562 113.173 253.01L112.489 250.094L111.319 250.076C110.851 250.076 110.491 250.202 110.239 250.454C109.987 250.694 109.861 251.042 109.861 251.498C109.861 251.906 109.957 252.314 110.149 252.722C110.341 253.13 110.641 253.568 111.049 254.036L110.977 254.18L109.951 254.36C109.207 253.364 108.835 252.338 108.835 251.282ZM114.037 252.722C114.109 252.962 114.211 253.136 114.343 253.244C114.463 253.352 114.649 253.406 114.901 253.406C115.297 253.406 115.609 253.298 115.837 253.082C116.053 252.854 116.161 252.554 116.161 252.182C116.161 251.522 115.735 250.85 114.883 250.166L113.407 250.112L114.037 252.722ZM116.125 243.093C116.125 242.697 116.005 242.265 115.765 241.797L115.873 241.635L116.809 241.779C117.109 242.427 117.283 243.027 117.331 243.579C117.199 244.263 116.947 244.755 116.575 245.055C116.203 245.355 115.663 245.505 114.955 245.505L113.677 245.451L109.951 245.469L109.951 246.603L109.843 246.675L108.997 246.585L108.997 245.487L107.665 245.487L107.125 244.245L107.251 244.101L108.997 244.137L108.997 241.689L109.105 241.617L109.951 241.707L109.951 244.137L114.829 244.227C115.309 244.239 115.645 244.155 115.837 243.975C116.029 243.795 116.125 243.501 116.125 243.093ZM108.835 237.219C108.835 236.439 109.027 235.827 109.411 235.383C109.795 234.927 110.323 234.699 110.995 234.699C111.199 234.699 111.937 234.735 113.209 234.807C114.481 234.879 115.225 234.915 115.441 234.915C115.705 234.915 115.891 234.873 115.999 234.789C116.095 234.705 116.143 234.561 116.143 234.357C116.143 234.177 116.107 233.973 116.035 233.745L116.161 233.601L116.971 233.745C117.175 234.093 117.295 234.435 117.331 234.771C117.295 235.143 117.163 235.443 116.935 235.671C116.707 235.887 116.395 236.001 115.999 236.013L115.999 236.139C116.659 236.787 117.109 237.429 117.349 238.065C117.349 238.869 117.151 239.499 116.755 239.955C116.347 240.399 115.795 240.621 115.099 240.621C114.571 240.621 114.151 240.483 113.839 240.207C113.527 239.919 113.305 239.499 113.173 238.947L112.489 236.031L111.319 236.013C110.851 236.013 110.491 236.139 110.239 236.391C109.987 236.631 109.861 236.979 109.861 237.435C109.861 237.843 109.957 238.251 110.149 238.659C110.341 239.067 110.641 239.505 111.049 239.973L110.977 240.117L109.951 240.297C109.207 239.301 108.835 238.275 108.835 237.219ZM114.037 238.659C114.109 238.899 114.211 239.073 114.343 239.181C114.463 239.289 114.649 239.343 114.901 239.343C115.297 239.343 115.609 239.235 115.837 239.019C116.053 238.791 116.161 238.491 116.161 238.119C116.161 237.459 115.735 236.787 114.883 236.103L113.407 236.049L114.037 238.659ZM112.561 223.72C113.869 222.928 115.309 221.932 116.881 220.732L117.061 220.75C117.229 221.182 117.337 221.626 117.385 222.082L117.259 222.28C115.783 223.264 114.343 224.146 112.939 224.926L112.939 227.032L113.623 227.032L117.223 226.96L117.223 228.418L113.749 228.328L105.685 228.418L105.667 224.89C105.667 223.762 105.955 222.892 106.531 222.28C107.095 221.656 107.905 221.344 108.961 221.344C109.753 221.344 110.467 221.554 111.103 221.974C111.727 222.382 112.213 222.964 112.561 223.72ZM111.715 227.014L111.769 224.854C111.385 223.51 110.491 222.838 109.087 222.838C108.355 222.838 107.809 223.036 107.449 223.432C107.077 223.828 106.879 224.422 106.855 225.214L106.909 226.96L111.715 227.014ZM113.047 218.67L113.083 218.67C114.091 218.67 114.865 218.442 115.405 217.986C115.945 217.53 116.215 216.882 116.215 216.042C116.215 215.622 116.149 215.202 116.017 214.782C115.873 214.362 115.675 213.978 115.423 213.63L115.531 213.486L116.755 213.702C117.163 214.542 117.367 215.382 117.367 216.222C117.367 217.398 116.995 218.322 116.251 218.994C115.495 219.666 114.463 220.002 113.155 220.002C111.835 220.002 110.785 219.666 110.005 218.994C109.225 218.322 108.835 217.416 108.835 216.276C108.835 215.316 109.111 214.572 109.663 214.044C110.203 213.516 110.959 213.252 111.931 213.252C112.255 213.252 112.561 213.276 112.849 213.324L113.029 213.504L113.047 218.67ZM109.843 216.276C109.843 216.876 110.041 217.38 110.437 217.788C110.821 218.184 111.367 218.448 112.075 218.58L112.003 214.602L111.751 214.566C111.139 214.566 110.671 214.716 110.347 215.016C110.011 215.304 109.843 215.724 109.843 216.276ZM108.835 208.303C108.835 207.523 109.027 206.911 109.411 206.467C109.795 206.011 110.323 205.783 110.995 205.783C111.199 205.783 111.937 205.819 113.209 205.891C114.481 205.963 115.225 205.999 115.441 205.999C115.705 205.999 115.891 205.957 115.999 205.873C116.095 205.789 116.143 205.645 116.143 205.441C116.143 205.261 116.107 205.057 116.035 204.829L116.161 204.685L116.971 204.829C117.175 205.177 117.295 205.519 117.331 205.855C117.295 206.227 117.163 206.527 116.935 206.755C116.707 206.971 116.395 207.085 115.999 207.097L115.999 207.223C116.659 207.871 117.109 208.513 117.349 209.149C117.349 209.953 117.151 210.583 116.755 211.039C116.347 211.483 115.795 211.705 115.099 211.705C114.571 211.705 114.151 211.567 113.839 211.291C113.527 211.003 113.305 210.583 113.173 210.031L112.489 207.115L111.319 207.097C110.851 207.097 110.491 207.223 110.239 207.475C109.987 207.715 109.861 208.063 109.861 208.519C109.861 208.927 109.957 209.335 110.149 209.743C110.341 210.151 110.641 210.589 111.049 211.057L110.977 211.201L109.951 211.381C109.207 210.385 108.835 209.359 108.835 208.303ZM114.037 209.743C114.109 209.983 114.211 210.157 114.343 210.265C114.463 210.373 114.649 210.427 114.901 210.427C115.297 210.427 115.609 210.319 115.837 210.103C116.053 209.875 116.161 209.575 116.161 209.203C116.161 208.543 115.735 207.871 114.883 207.187L113.407 207.133L114.037 209.743ZM113.605 196.55L115.459 196.496C115.711 196.484 115.891 196.442 115.999 196.37C116.095 196.298 116.143 196.166 116.143 195.974C116.143 195.782 116.107 195.578 116.035 195.362L116.161 195.218L116.971 195.362C117.175 195.686 117.295 196.022 117.331 196.37C117.295 196.742 117.169 197.036 116.953 197.252C116.737 197.456 116.443 197.582 116.071 197.63L116.071 197.756C116.383 198.116 116.635 198.44 116.827 198.728C117.007 199.016 117.169 199.346 117.313 199.718C117.313 200.906 116.953 201.818 116.233 202.454C115.501 203.09 114.463 203.408 113.119 203.408C111.763 203.408 110.713 203.054 109.969 202.346C109.213 201.638 108.835 200.66 108.835 199.412C108.835 198.848 108.895 198.32 109.015 197.828L104.713 197.846L104.587 196.424L113.605 196.55ZM109.843 199.574C109.843 200.342 110.107 200.948 110.635 201.392C111.151 201.836 111.901 202.058 112.885 202.058C113.905 202.058 114.697 201.86 115.261 201.464C115.825 201.056 116.107 200.498 116.107 199.79C116.107 199.454 116.023 199.13 115.855 198.818C115.687 198.494 115.405 198.158 115.009 197.81L113.713 197.774L110.293 197.828C109.993 198.464 109.843 199.046 109.843 199.574ZM113.731 193.318L109.069 193.372L108.943 191.986L113.605 192.022L117.223 191.986L117.223 193.39L113.731 193.318ZM105.289 192.652C105.289 192.412 105.361 192.22 105.505 192.076C105.649 191.932 105.847 191.86 106.099 191.86C106.363 191.86 106.573 191.938 106.729 192.094C106.885 192.238 106.963 192.442 106.963 192.706C106.963 192.958 106.891 193.156 106.747 193.3C106.603 193.432 106.399 193.498 106.135 193.498C105.883 193.498 105.679 193.426 105.523 193.282C105.367 193.126 105.289 192.916 105.289 192.652ZM111.625 183.846C111.133 183.834 110.749 183.948 110.473 184.188C110.197 184.428 110.059 184.782 110.059 185.25C110.059 186.006 110.485 186.822 111.337 187.698L113.605 187.698L117.223 187.626L117.223 189.048L113.731 188.958L109.069 189.03L108.943 187.68L110.149 187.68L110.149 187.572C109.489 186.828 109.063 186.066 108.871 185.286C108.871 184.386 109.081 183.702 109.501 183.234C109.921 182.754 110.521 182.52 111.301 182.532L113.641 182.568L117.223 182.496L117.223 183.936L111.625 183.846ZM109.681 172.477C109.789 172.849 109.915 173.401 110.059 174.133L110.131 174.169C110.551 173.905 111.061 173.773 111.661 173.773C112.537 173.773 113.233 174.067 113.749 174.655C114.265 175.231 114.523 176.017 114.523 177.013C114.523 177.409 114.475 177.781 114.379 178.129C114.535 178.333 114.661 178.471 114.757 178.543C114.853 178.615 114.961 178.651 115.081 178.651C115.333 178.651 115.513 178.495 115.621 178.183C115.717 177.871 115.819 177.361 115.927 176.653C116.023 175.957 116.131 175.387 116.251 174.943C116.371 174.499 116.569 174.115 116.845 173.791C117.109 173.467 117.481 173.305 117.961 173.305C118.465 173.305 118.927 173.479 119.347 173.827C119.767 174.163 120.097 174.631 120.337 175.231C120.577 175.819 120.697 176.467 120.697 177.175C120.697 178.135 120.475 178.885 120.031 179.425C119.599 179.953 119.035 180.217 118.339 180.217C117.763 179.929 117.241 179.401 116.773 178.633L116.683 178.633C116.551 179.065 116.377 179.401 116.161 179.641C115.933 179.869 115.627 179.983 115.243 179.983C114.823 179.731 114.457 179.365 114.145 178.885L114.073 178.885C113.833 179.269 113.521 179.563 113.137 179.767C112.741 179.959 112.285 180.055 111.769 180.055C110.869 180.055 110.167 179.767 109.663 179.191C109.147 178.603 108.889 177.823 108.889 176.851C108.889 176.215 108.997 175.675 109.213 175.231C109.057 174.403 108.853 173.533 108.601 172.621L108.709 172.477L109.681 172.477ZM113.551 176.941C113.551 176.341 113.383 175.879 113.047 175.555C112.711 175.219 112.243 175.051 111.643 175.051C111.067 175.051 110.623 175.207 110.311 175.519C109.999 175.831 109.843 176.281 109.843 176.869C109.843 177.469 110.005 177.937 110.329 178.273C110.653 178.609 111.115 178.777 111.715 178.777C112.291 178.777 112.741 178.621 113.065 178.309C113.389 177.985 113.551 177.529 113.551 176.941ZM118.231 174.565C117.835 174.565 117.559 174.769 117.403 175.177C117.247 175.573 117.109 176.179 116.989 176.995L116.899 177.571C117.175 178.027 117.439 178.375 117.691 178.615C117.943 178.843 118.207 178.957 118.483 178.957C118.831 178.957 119.119 178.789 119.347 178.453C119.575 178.105 119.689 177.625 119.689 177.013C119.689 176.317 119.545 175.735 119.257 175.267C118.981 174.799 118.639 174.565 118.231 174.565Z" fill="black"/>
</svg>
