<svg width="24" height="24" viewBox="0 0 24 24" fill="none" xmlns="http://www.w3.org/2000/svg">
<circle cx="12" cy="12" r="11.5" fill="white" stroke="#BDBDBD"/>
<path d="M8.49426 15.684C9.62359 14.928 10.5196 14.2653 11.1823 13.696C11.8449 13.1267 12.3256 12.5993 12.6243 12.114C12.9229 11.6287 13.0723 11.148 13.0723 10.672C13.0723 10.2333 12.9369 9.87867 12.6663 9.608C12.4049 9.33733 12.0409 9.202 11.5743 9.202C11.0609 9.202 10.6549 9.37933 10.3563 9.734C10.0576 10.0887 9.89426 10.5927 9.86626 11.246L8.20026 10.616C8.26559 9.68267 8.61092 8.95 9.23626 8.418C9.86159 7.886 10.6783 7.62 11.6863 7.62C12.4049 7.62 13.0116 7.75533 13.5063 8.026C14.0103 8.29667 14.3883 8.656 14.6403 9.104C14.8923 9.54267 15.0183 10.028 15.0183 10.56C15.0183 11.428 14.6916 12.2493 14.0383 13.024C13.3849 13.7893 12.3443 14.6107 10.9163 15.488V15.502C11.4576 15.4647 12.0223 15.446 12.6103 15.446H15.1583V17H8.49426V15.684Z" fill="#4F4F4F"/>
</svg>
