<svg width="24" height="24" viewBox="0 0 24 24" fill="none" xmlns="http://www.w3.org/2000/svg">
<circle cx="12" cy="12" r="11.5" fill="white" stroke="#BDBDBD"/>
<path d="M11.7419 7.62C12.7313 7.62 13.5013 7.85333 14.0519 8.32C14.6119 8.78667 14.8919 9.39333 14.8919 10.14C14.8919 10.5973 14.7986 10.994 14.6119 11.33C14.4253 11.6567 14.1966 11.904 13.9259 12.072C13.6553 12.24 13.3986 12.324 13.1559 12.324V12.366C13.4639 12.366 13.7626 12.4453 14.0519 12.604C14.3506 12.7627 14.5933 13.0053 14.7799 13.332C14.9759 13.6493 15.0739 14.0367 15.0739 14.494C15.0739 15.0073 14.9246 15.4647 14.6259 15.866C14.3366 16.2673 13.9306 16.58 13.4079 16.804C12.8853 17.028 12.2879 17.14 11.6159 17.14C10.7106 17.14 9.9686 16.958 9.38993 16.594C8.8206 16.2207 8.40526 15.6467 8.14393 14.872L9.89393 14.088C9.9966 14.6013 10.1833 14.9793 10.4539 15.222C10.7339 15.4647 11.1259 15.586 11.6299 15.586C12.1059 15.586 12.4839 15.4693 12.7639 15.236C13.0439 14.9933 13.1839 14.6713 13.1839 14.27C13.1839 13.8407 13.0486 13.5327 12.7779 13.346C12.5166 13.15 12.1013 13.052 11.5319 13.052H11.0699V11.708H11.4619C12.4699 11.708 12.9739 11.2833 12.9739 10.434C12.9739 10.0233 12.8573 9.71067 12.6239 9.496C12.3999 9.28133 12.0779 9.174 11.6579 9.174C11.2286 9.174 10.8833 9.286 10.6219 9.51C10.3606 9.734 10.1973 10.0607 10.1319 10.49L8.40993 9.86C8.58726 9.12267 8.96993 8.56733 9.55793 8.194C10.1553 7.81133 10.8833 7.62 11.7419 7.62Z" fill="#4F4F4F"/>
</svg>
