<svg width="24" height="24" viewBox="0 0 24 24" fill="none" xmlns="http://www.w3.org/2000/svg">
<circle cx="12" cy="12" r="11.5" fill="white" stroke="#BDBDBD"/>
<path d="M12.2378 11.05C13.1338 11.05 13.8384 11.316 14.3518 11.848C14.8744 12.3707 15.1358 13.0613 15.1358 13.92C15.1358 14.956 14.8184 15.754 14.1838 16.314C13.5584 16.8647 12.7324 17.14 11.7058 17.14C10.8751 17.14 10.1751 16.986 9.60578 16.678C9.04578 16.3607 8.58845 15.866 8.23378 15.194L9.96978 14.228C10.0911 14.6853 10.2778 15.0307 10.5298 15.264C10.7911 15.488 11.1784 15.6 11.6918 15.6C12.2051 15.6 12.6064 15.4647 12.8958 15.194C13.1944 14.9233 13.3438 14.5407 13.3438 14.046C13.3344 13.542 13.1944 13.1593 12.9238 12.898C12.6531 12.6273 12.2564 12.492 11.7338 12.492C10.9591 12.492 10.3944 12.716 10.0398 13.164L8.52778 12.996L9.10178 7.76H14.6598V9.314H10.5578L10.2918 11.484L10.2498 11.75H10.2638C10.4691 11.526 10.7398 11.3533 11.0758 11.232C11.4211 11.1107 11.8084 11.05 12.2378 11.05Z" fill="#4F4F4F"/>
</svg>
