<svg width="472" height="264" viewBox="0 0 472 264" fill="none" xmlns="http://www.w3.org/2000/svg">
<path d="M3 3H469V261H3V3Z" fill="white" stroke="#828282" stroke-width="6"/>
<path d="M29.44 33.994V46H31.276V41.122H32.104C32.986 41.122 34.084 40.996 35.038 40.186C36.028 39.34 36.208 38.26 36.208 37.558C36.208 36.46 35.722 35.308 34.714 34.642C33.85 34.066 32.824 33.994 32.086 33.994H29.44ZM31.276 35.686H32.086C34.174 35.686 34.444 36.874 34.444 37.54C34.444 38.656 33.688 39.43 32.104 39.43H31.276V35.686ZM46.5795 46H48.5595L42.8715 33.292L36.8955 46H38.8755L40.1895 43.102H45.3195L46.5795 46ZM40.9455 41.374L42.7995 37.306L44.5815 41.374H40.9455ZM50.796 33.994V46H52.632V33.994H50.796ZM58.063 46V37.612L66.775 46.738V33.994H64.939V42.31L56.227 33.184V46H58.063ZM75.2978 33.994V46H77.1338V41.122H77.9618C78.8438 41.122 79.9418 40.996 80.8958 40.186C81.8858 39.34 82.0658 38.26 82.0658 37.558C82.0658 36.46 81.5798 35.308 80.5718 34.642C79.7078 34.066 78.6818 33.994 77.9438 33.994H75.2978ZM77.1338 35.686H77.9438C80.0318 35.686 80.3018 36.874 80.3018 37.54C80.3018 38.656 79.5458 39.43 77.9618 39.43H77.1338V35.686ZM90.3362 33.778C86.7362 33.778 84.0902 36.478 84.0902 40.006C84.0902 43.534 86.7362 46.234 90.3362 46.234C93.9363 46.234 96.5823 43.534 96.5823 40.006C96.5823 36.478 93.9363 33.778 90.3362 33.778ZM90.3362 44.542C87.7622 44.542 85.9262 42.67 85.9262 40.006C85.9262 37.342 87.7622 35.47 90.3362 35.47C92.9103 35.47 94.7463 37.342 94.7463 40.006C94.7463 42.67 92.9103 44.542 90.3362 44.542ZM99.607 33.994V46H101.443V33.994H99.607ZM106.874 46V37.612L115.586 46.738V33.994H113.75V42.31L105.038 33.184V46H106.874ZM125.272 35.722V33.994H117.928V35.722H120.682V46H122.518V35.722H125.272ZM135.588 46H137.424V33.994H134.508L133.5 35.686H135.588V46ZM34.12 106.09L41.65 105.91L41.77 105.07L38.77 104.8C38.77 104.8 38.92 104.08 38.92 103.18V87.46L39.22 87.16H42.19C44.53 87.16 45.52 87.79 45.37 90.88H46.39L47.32 85.81C47.32 85.81 46.39 85.99 45.16 85.99H31.12C29.89 85.99 29.11 85.81 29.11 85.81L28.18 90.88H29.2C30.34 87.79 31.24 87.16 33.31 87.16H36.28V103.18C36.28 104.26 35.47 104.98 34.12 105.13V106.09ZM48.1759 106.09L54.6259 105.91L54.7459 105.16L52.3459 104.89C52.3459 104.89 52.4959 104.17 52.4959 103.27V96.01C53.7559 94.81 55.5859 93.97 56.9659 93.97C58.1659 93.97 59.0359 94.57 59.0359 96.85V103.27C59.0359 104.35 58.5559 105.07 57.3259 105.22V106.09L63.7759 105.91L63.8959 105.16L61.3459 104.89C61.3459 104.89 61.4959 104.17 61.4959 103.27V96.19C61.4959 93.28 60.1459 92.14 58.0759 92.14C55.5559 92.14 53.4559 93.82 52.3759 95.38C52.3759 95.14 52.4959 94.54 52.4959 93.16V87.34C52.4959 85.03 52.7959 83.92 52.7959 83.92L52.7059 83.83C52.7059 83.83 51.3259 84.43 47.8759 85.18V85.99H49.1359C50.0059 85.99 50.0359 86.74 50.0359 88.03V103.27C50.0359 104.35 49.5259 105.07 48.1759 105.22V106.09ZM65.3216 99.52C65.3216 103.03 67.4216 106.36 71.6816 106.36C75.2516 106.36 76.8116 103.54 76.8116 103.54L76.4816 102.91C76.4816 102.91 75.0416 104.35 72.5816 104.35C69.2216 104.35 67.8416 101.68 67.7216 98.95L68.0216 98.59L75.4916 97.51C76.0916 97.42 76.8716 97.12 76.8716 97.12C76.7816 93.82 74.2316 92.14 71.6516 92.14C68.0216 92.14 65.3216 95.44 65.3216 99.52ZM71.2016 93.28C73.8416 93.28 74.0816 96.7 74.0816 96.7L67.7816 97.51C68.0516 95.26 69.1916 93.28 71.2016 93.28ZM85.8588 106.09L92.4588 105.91L92.5788 105.16L90.0288 104.89C90.0288 104.89 90.1788 104.17 90.1788 103.27V95.23C90.1788 92.8 90.5088 91.81 90.5088 91.81L90.4788 91.72C90.4788 91.72 89.8488 92.11 85.4688 93.13V93.94H86.8188C87.6888 93.94 87.7188 94.69 87.7188 95.98V103.27C87.7188 104.35 87.2088 105.07 85.8588 105.22V106.09ZM88.6787 89.08C89.5488 89.08 90.2988 88.33 90.2988 87.46C90.2988 86.59 89.5488 85.84 88.6787 85.84C87.8088 85.84 87.0588 86.59 87.0588 87.46C87.0588 88.33 87.8088 89.08 88.6787 89.08ZM94.1791 106.09L100.629 105.91L100.749 105.16L98.3491 104.86C98.3491 104.86 98.4991 104.17 98.4991 103.27V96.07C99.7591 94.78 101.589 93.97 102.969 93.97C104.169 93.97 105.039 94.57 105.039 96.85V103.27C105.039 104.35 104.679 105.07 103.329 105.22V106.09L109.779 105.91L109.899 105.16L107.349 104.86C107.349 104.86 107.499 104.17 107.499 103.27V96.19C107.499 93.28 106.149 92.14 104.079 92.14C101.559 92.14 99.4591 93.85 98.3791 95.47C98.4091 92.8 98.6791 91.81 98.6791 91.81L98.5891 91.72C98.5891 91.72 96.7291 92.53 93.7891 93.13V93.94H95.1391C96.0091 93.94 96.0391 94.69 96.0391 95.98V103.27C96.0391 104.35 95.5291 105.07 94.1791 105.22V106.09ZM111.047 103.33C111.047 104.95 112.187 106.36 114.167 106.36C117.257 106.36 118.847 103.51 118.847 103.51V104.23C118.847 105.7 119.747 106.36 120.887 106.36C122.657 106.36 124.067 104.77 124.067 104.77L123.677 104.14C123.677 104.14 122.837 104.74 122.027 104.74C121.337 104.74 121.217 104.29 121.217 103.33V96.43C121.217 93.28 120.467 92.14 117.647 92.14C114.287 92.14 112.097 93.82 112.097 93.82L112.607 96.07H113.567C113.567 96.07 114.707 93.19 116.747 93.19C117.857 93.19 118.427 94 118.637 95.11C118.787 95.95 118.787 97.69 118.757 98.32L117.737 98.47C114.617 98.95 111.047 100.45 111.047 103.33ZM115.367 104.65C114.467 104.65 113.687 103.99 113.687 102.79C113.687 100.63 116.117 99.73 117.827 99.46L118.757 99.31V102.85C117.977 103.51 116.537 104.65 115.367 104.65ZM128.746 104.8V94.99C129.196 94.57 130.426 93.88 131.746 93.88C134.446 93.88 135.826 96.67 135.826 99.55C135.826 102.97 133.846 105.22 130.936 105.22C129.676 105.22 128.746 104.8 128.746 104.8ZM126.016 105.91L126.106 106C127.156 106 129.076 106.36 130.696 106.36C135.946 106.36 138.436 102.46 138.436 98.68C138.436 95.38 136.546 92.14 132.886 92.14C130.636 92.14 129.436 93.37 128.626 94.36C128.626 94.12 128.746 93.52 128.746 92.14V87.34C128.746 85.03 129.046 83.92 129.046 83.92L128.956 83.83C128.956 83.83 127.576 84.43 124.126 85.18V85.99H125.386C126.256 85.99 126.286 86.74 126.286 88.03V102.91C126.286 104.59 126.016 105.91 126.016 105.91ZM140.703 106.09L147.303 105.91L147.423 105.16L144.873 104.89C144.873 104.89 145.023 104.17 145.023 103.27V95.23C145.023 92.8 145.353 91.81 145.353 91.81L145.323 91.72C145.323 91.72 144.693 92.11 140.313 93.13V93.94H141.663C142.533 93.94 142.563 94.69 142.563 95.98V103.27C142.563 104.35 142.053 105.07 140.703 105.22V106.09ZM143.522 89.08C144.393 89.08 145.143 88.33 145.143 87.46C145.143 86.59 144.393 85.84 143.522 85.84C142.653 85.84 141.903 86.59 141.903 87.46C141.903 88.33 142.653 89.08 143.522 89.08ZM148.723 106.09L155.323 105.91L155.443 105.16L152.893 104.89C152.893 104.89 153.043 104.17 153.043 103.27V87.34C153.043 85.03 153.343 83.92 153.343 83.92L153.253 83.83C153.253 83.83 151.873 84.43 148.423 85.18V85.99H149.683C150.553 85.99 150.583 86.74 150.583 88.03V103.27C150.583 104.35 150.073 105.07 148.723 105.22V106.09ZM157.021 106.09L163.621 105.91L163.741 105.16L161.191 104.89C161.191 104.89 161.341 104.17 161.341 103.27V95.23C161.341 92.8 161.671 91.81 161.671 91.81L161.641 91.72C161.641 91.72 161.011 92.11 156.631 93.13V93.94H157.981C158.851 93.94 158.881 94.69 158.881 95.98V103.27C158.881 104.35 158.371 105.07 157.021 105.22V106.09ZM159.841 89.08C160.711 89.08 161.461 88.33 161.461 87.46C161.461 86.59 160.711 85.84 159.841 85.84C158.971 85.84 158.221 86.59 158.221 87.46C158.221 88.33 158.971 89.08 159.841 89.08ZM166.811 102.43C166.811 105.16 168.011 106.36 170.141 106.36C172.751 106.36 174.461 104.5 174.461 104.5L174.071 103.93C174.071 103.93 172.721 104.56 171.371 104.56C169.781 104.56 169.271 103.6 169.271 101.86V94.24L169.571 93.94H173.711L173.921 92.5H169.241V92.05C169.241 89.92 169.511 89.05 169.511 89.05L169.421 88.96L168.071 88.93L166.961 92.2C166.241 92.86 164.921 93.13 164.921 93.13V94.03H166.901C166.901 94.03 166.811 95.11 166.811 95.98V102.43ZM176.732 110.62C175.652 110.62 175.262 111.25 175.262 111.85C175.262 112.51 175.712 113.11 176.582 113.11C179.462 113.11 181.172 108.16 181.982 106.36L187.172 94.57C187.712 93.28 188.252 92.98 188.252 92.98L188.102 92.5H183.932V93.25C185.042 93.55 186.092 94.21 185.582 95.41L182.192 103.15C182.042 102.61 181.802 101.86 181.622 101.35L179.192 95.26C178.862 94.45 178.862 93.22 179.222 92.5L179.102 92.38C179.102 92.38 177.932 92.5 176.042 92.5H174.632V93.25C174.632 93.25 175.682 93.49 176.312 94.99L180.152 104.17C180.482 105.01 180.722 105.7 180.872 106.12L179.912 108.37C179.372 109.6 178.322 110.62 176.732 110.62ZM197.778 102.43C197.778 105.16 198.978 106.36 201.108 106.36C203.718 106.36 205.428 104.5 205.428 104.5L205.038 103.93C205.038 103.93 203.688 104.56 202.338 104.56C200.748 104.56 200.238 103.6 200.238 101.86V94.24L200.538 93.94H204.678L204.888 92.5H200.208V92.05C200.208 89.92 200.478 89.05 200.478 89.05L200.388 88.96L199.038 88.93L197.928 92.2C197.208 92.86 195.888 93.13 195.888 93.13V94.03H197.868C197.868 94.03 197.778 95.11 197.778 95.98V102.43ZM206.708 99.55C206.708 103.39 209.048 106.36 213.278 106.36C218.078 106.36 220.388 102.43 220.388 98.71C220.388 95.02 218.138 92.14 213.758 92.14C208.658 92.14 206.708 96.04 206.708 99.55ZM209.468 98.86C209.468 95.98 210.638 93.16 213.398 93.16C216.428 93.16 217.628 96.58 217.628 99.55C217.628 102.76 216.248 105.34 213.698 105.34C210.698 105.34 209.468 101.86 209.468 98.86ZM229.413 113.35C231.573 112.63 236.313 112.06 236.313 112.06L236.433 111.34H233.283C233.283 111.34 233.433 110.53 233.433 109.63V106.18C234.003 106.27 234.633 106.36 235.443 106.36C240.723 106.36 243.153 102.49 243.153 98.68C243.153 95.38 241.353 92.14 237.693 92.14C235.323 92.14 234.183 93.46 233.373 94.48C233.493 92.56 233.673 91.81 233.673 91.81L233.583 91.72C233.583 91.72 231.813 92.53 228.873 93.13V93.94H230.073C230.943 93.94 230.973 94.69 230.973 95.98V109.66C230.973 111.04 230.763 111.73 229.413 112.48V113.35ZM235.593 105.22C234.603 105.22 233.433 105.01 233.433 103.6V95.14C234.363 94.42 235.443 93.88 236.613 93.88C239.283 93.88 240.543 96.67 240.543 99.55C240.543 102.97 238.713 105.22 235.593 105.22ZM245.439 106.09L252.339 105.91L252.459 105.16L249.609 104.89C249.609 104.89 249.759 104.17 249.759 103.27V96.22C250.419 95.47 251.409 94.48 252.429 94.48C253.119 94.48 253.209 94.99 253.899 94.99C254.679 94.99 255.309 94.42 255.309 93.52C255.309 92.5 254.409 92.14 253.689 92.14C252.129 92.14 250.539 93.94 249.639 95.62C249.729 92.8 249.999 91.81 249.999 91.81L249.909 91.72C249.909 91.72 247.989 92.53 245.049 93.13V93.94H246.399C247.269 93.94 247.299 94.69 247.299 95.98V103.27C247.299 104.35 246.789 105.07 245.439 105.22V106.09ZM256.572 99.52C256.572 103.03 258.672 106.36 262.932 106.36C266.502 106.36 268.062 103.54 268.062 103.54L267.732 102.91C267.732 102.91 266.292 104.35 263.832 104.35C260.472 104.35 259.092 101.68 258.972 98.95L259.272 98.59L266.742 97.51C267.342 97.42 268.122 97.12 268.122 97.12C268.032 93.82 265.482 92.14 262.902 92.14C259.272 92.14 256.572 95.44 256.572 99.52ZM262.452 93.28C265.092 93.28 265.332 96.7 265.332 96.7L259.032 97.51C259.302 95.26 260.442 93.28 262.452 93.28ZM270.34 99.85C270.34 103.12 272.29 106.36 275.98 106.36C278.23 106.36 279.46 105.13 280.27 103.93V104.56C280.27 105.31 280.15 106.15 280.15 106.15L280.24 106.24C280.24 106.24 281.77 106 285.04 105.67L285.13 104.86H284.29C283.3 104.86 282.61 104.86 282.61 103.15V87.34C282.61 85.03 282.91 83.92 282.91 83.92L282.82 83.83C282.82 83.83 281.44 84.43 277.99 85.18V85.99H279.25C280.12 85.99 280.15 86.74 280.15 88.03V92.32C280.15 92.32 279.1 92.14 278.02 92.14C272.89 92.14 270.34 96.07 270.34 99.85ZM277.03 104.62C274.33 104.62 272.95 101.83 272.95 98.95C272.95 95.47 274.93 93.28 277.99 93.28C278.95 93.28 280.15 93.49 280.15 94.87V103.3C279.67 103.78 278.5 104.62 277.03 104.62ZM286.542 106.09L293.142 105.91L293.262 105.16L290.712 104.89C290.712 104.89 290.862 104.17 290.862 103.27V95.23C290.862 92.8 291.192 91.81 291.192 91.81L291.162 91.72C291.162 91.72 290.532 92.11 286.152 93.13V93.94H287.502C288.372 93.94 288.402 94.69 288.402 95.98V103.27C288.402 104.35 287.892 105.07 286.542 105.22V106.09ZM289.362 89.08C290.232 89.08 290.982 88.33 290.982 87.46C290.982 86.59 290.232 85.84 289.362 85.84C288.492 85.84 287.742 86.59 287.742 87.46C287.742 88.33 288.492 89.08 289.362 89.08ZM294.775 99.52C294.775 102.97 296.935 106.36 301.135 106.36C304.615 106.36 305.995 103.75 305.995 103.75L305.665 103.12C305.665 103.12 304.435 104.35 302.185 104.35C298.645 104.35 297.235 101.53 297.235 98.65C297.235 95.74 298.585 93.16 300.985 93.16C303.085 93.16 303.265 95.5 304.795 95.5C305.515 95.5 305.935 94.99 305.935 94.42C305.935 92.86 303.025 92.14 301.195 92.14C297.055 92.14 294.775 95.89 294.775 99.52ZM309.487 102.43C309.487 105.16 310.687 106.36 312.817 106.36C315.427 106.36 317.137 104.5 317.137 104.5L316.747 103.93C316.747 103.93 315.397 104.56 314.047 104.56C312.457 104.56 311.947 103.6 311.947 101.86V94.24L312.247 93.94H316.387L316.597 92.5H311.917V92.05C311.917 89.92 312.187 89.05 312.187 89.05L312.097 88.96L310.747 88.93L309.637 92.2C308.917 92.86 307.597 93.13 307.597 93.13V94.03H309.577C309.577 94.03 309.487 95.11 309.487 95.98V102.43ZM326.626 102.43C326.626 105.16 327.826 106.36 329.956 106.36C332.566 106.36 334.276 104.5 334.276 104.5L333.886 103.93C333.886 103.93 332.536 104.56 331.186 104.56C329.596 104.56 329.086 103.6 329.086 101.86V94.24L329.386 93.94H333.526L333.736 92.5H329.056V92.05C329.056 89.92 329.326 89.05 329.326 89.05L329.236 88.96L327.886 88.93L326.776 92.2C326.056 92.86 324.736 93.13 324.736 93.13V94.03H326.716C326.716 94.03 326.626 95.11 326.626 95.98V102.43ZM335.256 106.09L341.706 105.91L341.826 105.16L339.426 104.89C339.426 104.89 339.576 104.17 339.576 103.27V96.01C340.836 94.81 342.666 93.97 344.046 93.97C345.246 93.97 346.116 94.57 346.116 96.85V103.27C346.116 104.35 345.636 105.07 344.406 105.22V106.09L350.856 105.91L350.976 105.16L348.426 104.89C348.426 104.89 348.576 104.17 348.576 103.27V96.19C348.576 93.28 347.226 92.14 345.156 92.14C342.636 92.14 340.536 93.82 339.456 95.38C339.456 95.14 339.576 94.54 339.576 93.16V87.34C339.576 85.03 339.876 83.92 339.876 83.92L339.786 83.83C339.786 83.83 338.406 84.43 334.956 85.18V85.99H336.216C337.086 85.99 337.116 86.74 337.116 88.03V103.27C337.116 104.35 336.606 105.07 335.256 105.22V106.09ZM352.402 99.52C352.402 103.03 354.502 106.36 358.762 106.36C362.332 106.36 363.892 103.54 363.892 103.54L363.562 102.91C363.562 102.91 362.122 104.35 359.662 104.35C356.302 104.35 354.922 101.68 354.802 98.95L355.102 98.59L362.572 97.51C363.172 97.42 363.952 97.12 363.952 97.12C363.862 93.82 361.312 92.14 358.732 92.14C355.102 92.14 352.402 95.44 352.402 99.52ZM358.282 93.28C360.922 93.28 361.162 96.7 361.162 96.7L354.862 97.51C355.132 95.26 356.272 93.28 358.282 93.28ZM29.14 146.09L35.74 145.91L35.86 145.16L33.31 144.89C33.31 144.89 33.46 144.17 33.46 143.27V135.23C33.46 132.8 33.79 131.81 33.79 131.81L33.76 131.72C33.76 131.72 33.13 132.11 28.75 133.13V133.94H30.1C30.97 133.94 31 134.69 31 135.98V143.27C31 144.35 30.49 145.07 29.14 145.22V146.09ZM31.96 129.08C32.83 129.08 33.58 128.33 33.58 127.46C33.58 126.59 32.83 125.84 31.96 125.84C31.09 125.84 30.34 126.59 30.34 127.46C30.34 128.33 31.09 129.08 31.96 129.08ZM37.4303 146.09L43.8803 145.91L44.0003 145.16L41.6003 144.89C41.6003 144.89 41.7503 144.17 41.7503 143.27V136.07C43.0403 134.78 44.7203 133.97 46.0703 133.97C47.2103 133.97 47.8403 134.57 47.8403 136.85V143.27C47.8403 144.35 47.4803 145.07 46.1303 145.22V146.09L52.4303 145.91L52.5503 145.16L50.1503 144.89C50.1503 144.89 50.3003 144.17 50.3003 143.27V136.94C50.3003 135.2 53.3603 133.97 54.7103 133.97C55.8203 133.97 56.4503 134.57 56.4503 136.85V143.27C56.4503 144.35 56.0903 145.07 54.7403 145.22V146.09L61.1903 145.91L61.3103 145.16L58.7603 144.89C58.7603 144.89 58.9103 144.17 58.9103 143.27V136.19C58.9103 133.19 57.6503 132.14 55.7003 132.14C53.3303 132.14 51.3503 133.79 50.2103 135.59C50.2103 133.22 48.9803 132.14 47.0603 132.14C44.6303 132.14 42.7103 133.88 41.6303 135.44C41.7203 132.77 41.9903 131.81 41.9903 131.81L41.9003 131.72C41.9003 131.72 40.0403 132.53 37.1003 133.13V133.94H38.3903C39.2603 133.94 39.2903 134.69 39.2903 135.98V143.27C39.2903 144.35 38.7803 145.07 37.4303 145.22V146.09ZM62.7728 153.35C64.9328 152.63 69.6728 152.06 69.6728 152.06L69.7928 151.34H66.6428C66.6428 151.34 66.7928 150.53 66.7928 149.63V146.18C67.3628 146.27 67.9928 146.36 68.8028 146.36C74.0828 146.36 76.5128 142.49 76.5128 138.68C76.5128 135.38 74.7128 132.14 71.0528 132.14C68.6828 132.14 67.5428 133.46 66.7328 134.48C66.8528 132.56 67.0328 131.81 67.0328 131.81L66.9428 131.72C66.9428 131.72 65.1728 132.53 62.2328 133.13V133.94H63.4328C64.3028 133.94 64.3328 134.69 64.3328 135.98V149.66C64.3328 151.04 64.1228 151.73 62.7728 152.48V153.35ZM68.9528 145.22C67.9628 145.22 66.7928 145.01 66.7928 143.6V135.14C67.7228 134.42 68.8028 133.88 69.9728 133.88C72.6428 133.88 73.9028 136.67 73.9028 139.55C73.9028 142.97 72.0728 145.22 68.9528 145.22ZM78.4982 143.33C78.4982 144.95 79.6382 146.36 81.6182 146.36C84.7082 146.36 86.2982 143.51 86.2982 143.51V144.23C86.2982 145.7 87.1982 146.36 88.3382 146.36C90.1082 146.36 91.5182 144.77 91.5182 144.77L91.1282 144.14C91.1282 144.14 90.2882 144.74 89.4782 144.74C88.7882 144.74 88.6682 144.29 88.6682 143.33V136.43C88.6682 133.28 87.9182 132.14 85.0982 132.14C81.7382 132.14 79.5482 133.82 79.5482 133.82L80.0582 136.07H81.0182C81.0182 136.07 82.1582 133.19 84.1982 133.19C85.3082 133.19 85.8782 134 86.0882 135.11C86.2382 135.95 86.2382 137.69 86.2082 138.32L85.1882 138.47C82.0682 138.95 78.4982 140.45 78.4982 143.33ZM82.8182 144.65C81.9182 144.65 81.1382 143.99 81.1382 142.79C81.1382 140.63 83.5682 139.73 85.2782 139.46L86.2082 139.31V142.85C85.4282 143.51 83.9882 144.65 82.8182 144.65ZM92.597 139.52C92.597 142.97 94.757 146.36 98.957 146.36C102.437 146.36 103.817 143.75 103.817 143.75L103.487 143.12C103.487 143.12 102.257 144.35 100.007 144.35C96.467 144.35 95.057 141.53 95.057 138.65C95.057 135.74 96.407 133.16 98.807 133.16C100.907 133.16 101.087 135.5 102.617 135.5C103.337 135.5 103.757 134.99 103.757 134.42C103.757 132.86 100.847 132.14 99.017 132.14C94.877 132.14 92.597 135.89 92.597 139.52ZM107.309 142.43C107.309 145.16 108.509 146.36 110.639 146.36C113.249 146.36 114.959 144.5 114.959 144.5L114.569 143.93C114.569 143.93 113.219 144.56 111.869 144.56C110.279 144.56 109.769 143.6 109.769 141.86V134.24L110.069 133.94H114.209L114.419 132.5H109.739V132.05C109.739 129.92 110.009 129.05 110.009 129.05L109.919 128.96L108.569 128.93L107.459 132.2C106.739 132.86 105.419 133.13 105.419 133.13V134.03H107.399C107.399 134.03 107.309 135.11 107.309 135.98V142.43ZM122.978 139.55C122.978 143.39 125.318 146.36 129.548 146.36C134.348 146.36 136.658 142.43 136.658 138.71C136.658 135.02 134.408 132.14 130.028 132.14C124.928 132.14 122.978 136.04 122.978 139.55ZM125.738 138.86C125.738 135.98 126.908 133.16 129.668 133.16C132.698 133.16 133.898 136.58 133.898 139.55C133.898 142.76 132.518 145.34 129.968 145.34C126.968 145.34 125.738 141.86 125.738 138.86ZM138.915 146.09L146.115 145.91L146.235 145.16L143.085 144.89C143.085 144.89 143.235 144.17 143.235 143.27V134.24L143.535 133.94H147.225L147.465 132.5H143.235V130.85C143.235 126.98 143.955 125.54 145.485 125.54C147.105 125.54 147.765 127.07 148.845 127.07C149.655 127.07 150.105 126.5 150.105 125.93C150.105 124.67 148.335 124.16 146.895 124.16C142.995 124.16 140.775 127.19 140.775 131.66V132.47L138.885 133.13V134.03H140.775V143.27C140.775 144.35 140.265 145.07 138.915 145.22V146.09ZM156.967 142.43C156.967 145.16 158.167 146.36 160.297 146.36C162.907 146.36 164.617 144.5 164.617 144.5L164.227 143.93C164.227 143.93 162.877 144.56 161.527 144.56C159.937 144.56 159.427 143.6 159.427 141.86V134.24L159.727 133.94H163.867L164.077 132.5H159.397V132.05C159.397 129.92 159.667 129.05 159.667 129.05L159.577 128.96L158.227 128.93L157.117 132.2C156.397 132.86 155.077 133.13 155.077 133.13V134.03H157.057C157.057 134.03 156.967 135.11 156.967 135.98V142.43ZM165.598 146.09L172.048 145.91L172.168 145.16L169.768 144.89C169.768 144.89 169.918 144.17 169.918 143.27V136.01C171.178 134.81 173.008 133.97 174.388 133.97C175.588 133.97 176.458 134.57 176.458 136.85V143.27C176.458 144.35 175.978 145.07 174.748 145.22V146.09L181.198 145.91L181.318 145.16L178.768 144.89C178.768 144.89 178.918 144.17 178.918 143.27V136.19C178.918 133.28 177.568 132.14 175.498 132.14C172.978 132.14 170.878 133.82 169.798 135.38C169.798 135.14 169.918 134.54 169.918 133.16V127.34C169.918 125.03 170.218 123.92 170.218 123.92L170.128 123.83C170.128 123.83 168.748 124.43 165.298 125.18V125.99H166.558C167.428 125.99 167.458 126.74 167.458 128.03V143.27C167.458 144.35 166.948 145.07 165.598 145.22V146.09ZM184.096 142.34C184.096 145.22 185.386 146.36 187.486 146.36C190.006 146.36 191.986 144.59 193.066 143V144.56C193.066 145.31 192.796 146.18 192.796 146.18L192.916 146.27C192.916 146.27 194.566 146 197.836 145.67L197.926 144.86H197.086C196.096 144.86 195.406 144.86 195.406 143.15V135.23C195.406 132.92 195.676 132.08 195.676 132.08L195.556 131.99C195.556 131.99 193.936 132.59 191.056 133.1V133.94H192.046C192.916 133.94 192.946 134.69 192.946 135.98V142.4C191.656 143.72 189.976 144.53 188.596 144.53C187.366 144.53 186.556 143.93 186.556 141.65V135.23C186.556 132.92 186.826 132.08 186.826 132.08L186.706 131.99C186.706 131.99 185.056 132.59 182.146 133.1V133.94H183.196C184.066 133.94 184.096 134.69 184.096 135.98V142.34ZM199.383 146.09L205.833 145.91L205.953 145.16L203.553 144.89C203.553 144.89 203.703 144.17 203.703 143.27V136.07C204.993 134.78 206.673 133.97 208.023 133.97C209.163 133.97 209.793 134.57 209.793 136.85V143.27C209.793 144.35 209.433 145.07 208.083 145.22V146.09L214.383 145.91L214.503 145.16L212.103 144.89C212.103 144.89 212.253 144.17 212.253 143.27V136.94C212.253 135.2 215.313 133.97 216.663 133.97C217.773 133.97 218.403 134.57 218.403 136.85V143.27C218.403 144.35 218.043 145.07 216.693 145.22V146.09L223.143 145.91L223.263 145.16L220.713 144.89C220.713 144.89 220.863 144.17 220.863 143.27V136.19C220.863 133.19 219.603 132.14 217.653 132.14C215.283 132.14 213.303 133.79 212.163 135.59C212.163 133.22 210.933 132.14 209.013 132.14C206.583 132.14 204.663 133.88 203.583 135.44C203.673 132.77 203.943 131.81 203.943 131.81L203.853 131.72C203.853 131.72 201.993 132.53 199.053 133.13V133.94H200.343C201.213 133.94 201.243 134.69 201.243 135.98V143.27C201.243 144.35 200.733 145.07 199.383 145.22V146.09ZM228.326 144.8V134.99C228.776 134.57 230.006 133.88 231.326 133.88C234.026 133.88 235.406 136.67 235.406 139.55C235.406 142.97 233.426 145.22 230.516 145.22C229.256 145.22 228.326 144.8 228.326 144.8ZM225.596 145.91L225.686 146C226.736 146 228.656 146.36 230.276 146.36C235.526 146.36 238.016 142.46 238.016 138.68C238.016 135.38 236.126 132.14 232.466 132.14C230.216 132.14 229.016 133.37 228.206 134.36C228.206 134.12 228.326 133.52 228.326 132.14V127.34C228.326 125.03 228.626 123.92 228.626 123.92L228.536 123.83C228.536 123.83 227.156 124.43 223.706 125.18V125.99H224.966C225.836 125.99 225.866 126.74 225.866 128.03V142.91C225.866 144.59 225.596 145.91 225.596 145.91ZM240.283 146.09L246.883 145.91L247.003 145.16L244.453 144.89C244.453 144.89 244.603 144.17 244.603 143.27V135.23C244.603 132.8 244.933 131.81 244.933 131.81L244.903 131.72C244.903 131.72 244.273 132.11 239.893 133.13V133.94H241.243C242.113 133.94 242.143 134.69 242.143 135.98V143.27C242.143 144.35 241.633 145.07 240.283 145.22V146.09ZM243.103 129.08C243.973 129.08 244.723 128.33 244.723 127.46C244.723 126.59 243.973 125.84 243.103 125.84C242.233 125.84 241.483 126.59 241.483 127.46C241.483 128.33 242.233 129.08 243.103 129.08ZM248.603 146.09L255.053 145.91L255.173 145.16L252.773 144.86C252.773 144.86 252.923 144.17 252.923 143.27V136.07C254.183 134.78 256.013 133.97 257.393 133.97C258.593 133.97 259.463 134.57 259.463 136.85V143.27C259.463 144.35 259.103 145.07 257.753 145.22V146.09L264.203 145.91L264.323 145.16L261.773 144.86C261.773 144.86 261.923 144.17 261.923 143.27V136.19C261.923 133.28 260.573 132.14 258.503 132.14C255.983 132.14 253.883 133.85 252.803 135.47C252.833 132.8 253.103 131.81 253.103 131.81L253.013 131.72C253.013 131.72 251.153 132.53 248.213 133.13V133.94H249.563C250.433 133.94 250.463 134.69 250.463 135.98V143.27C250.463 144.35 249.953 145.07 248.603 145.22V146.09ZM266.641 143.81C266.641 144.83 267.721 145.37 269.131 145.73C267.751 146.27 265.351 147.17 265.351 149.48C265.351 152 268.291 153.11 270.991 153.11C274.681 153.11 278.611 151.01 278.611 148.07C278.611 145.64 275.911 144.8 273.391 144.29C271.051 143.81 269.251 143.6 269.251 142.79C269.251 142.37 269.791 141.77 270.001 141.53C270.481 141.62 270.961 141.65 271.471 141.65C274.471 141.65 277.171 139.97 277.171 137.15C277.171 135.26 275.941 134.21 275.941 134.21C275.941 134.21 276.331 134.3 276.991 134.3H278.581L278.851 132.35C278.851 132.35 277.831 132.74 276.871 132.74H275.431C273.931 132.74 273.211 132.14 271.471 132.14C268.501 132.14 265.861 133.85 265.861 136.97C265.861 139.37 267.451 140.81 269.461 141.38C268.381 141.95 266.641 142.55 266.641 143.81ZM272.371 146.39C274.351 146.81 276.121 147.41 276.121 148.94C276.121 150.77 273.691 151.97 271.501 151.97C269.521 151.97 267.721 150.98 267.721 149.12C267.721 147.47 269.131 146.36 269.851 145.88C270.661 146.06 271.531 146.21 272.371 146.39ZM271.561 140.6C269.341 140.6 268.471 138.77 268.471 136.91C268.471 135.02 269.311 133.19 271.411 133.19C273.571 133.19 274.561 135.23 274.561 137.15C274.561 138.92 273.721 140.6 271.561 140.6ZM286.981 139.85C286.981 143.12 288.931 146.36 292.621 146.36C294.871 146.36 296.101 145.13 296.911 143.93V144.56C296.911 145.31 296.791 146.15 296.791 146.15L296.881 146.24C296.881 146.24 298.411 146 301.681 145.67L301.771 144.86H300.931C299.941 144.86 299.251 144.86 299.251 143.15V127.34C299.251 125.03 299.551 123.92 299.551 123.92L299.461 123.83C299.461 123.83 298.081 124.43 294.631 125.18V125.99H295.891C296.761 125.99 296.791 126.74 296.791 128.03V132.32C296.791 132.32 295.741 132.14 294.661 132.14C289.531 132.14 286.981 136.07 286.981 139.85ZM293.671 144.62C290.971 144.62 289.591 141.83 289.591 138.95C289.591 135.47 291.571 133.28 294.631 133.28C295.591 133.28 296.791 133.49 296.791 134.87V143.3C296.311 143.78 295.141 144.62 293.671 144.62ZM303.183 139.55C303.183 143.39 305.523 146.36 309.753 146.36C314.553 146.36 316.863 142.43 316.863 138.71C316.863 135.02 314.613 132.14 310.233 132.14C305.133 132.14 303.183 136.04 303.183 139.55ZM305.943 138.86C305.943 135.98 307.113 133.16 309.873 133.16C312.903 133.16 314.103 136.58 314.103 139.55C314.103 142.76 312.723 145.34 310.173 145.34C307.173 145.34 305.943 141.86 305.943 138.86ZM324.01 146L325.12 146.39L329.05 137.18L332.5 146L333.61 146.39L338.65 134.57C339.22 133.22 339.73 132.98 339.73 132.98L339.58 132.5H335.56V133.25C336.7 133.52 337.57 134.21 337.06 135.41L333.79 143.18C333.64 142.64 333.46 141.98 333.28 141.47L330.97 135.26C330.43 133.79 331 132.5 331 132.5L330.88 132.38C330.88 132.38 329.83 132.5 327.94 132.5H326.56V133.25C326.56 133.25 327.64 133.46 328.21 134.99L328.27 135.2C328.39 135.68 328.24 136.19 328.09 136.58L325.3 143.21L324.82 141.59L322.48 135.26C321.94 133.79 322.51 132.5 322.51 132.5L322.39 132.38C322.39 132.38 321.34 132.5 319.45 132.5H318.07V133.25C318.07 133.25 319.12 133.46 319.72 134.99L324.01 146ZM341.064 146.09L347.514 145.91L347.634 145.16L345.234 144.86C345.234 144.86 345.384 144.17 345.384 143.27V136.07C346.644 134.78 348.474 133.97 349.854 133.97C351.054 133.97 351.924 134.57 351.924 136.85V143.27C351.924 144.35 351.564 145.07 350.214 145.22V146.09L356.664 145.91L356.784 145.16L354.234 144.86C354.234 144.86 354.384 144.17 354.384 143.27V136.19C354.384 133.28 353.034 132.14 350.964 132.14C348.444 132.14 346.344 133.85 345.264 135.47C345.294 132.8 345.564 131.81 345.564 131.81L345.474 131.72C345.474 131.72 343.614 132.53 340.674 133.13V133.94H342.024C342.894 133.94 342.924 134.69 342.924 135.98V143.27C342.924 144.35 342.414 145.07 341.064 145.22V146.09ZM364.67 143.33C364.67 144.95 365.81 146.36 367.79 146.36C370.88 146.36 372.47 143.51 372.47 143.51V144.23C372.47 145.7 373.37 146.36 374.51 146.36C376.28 146.36 377.69 144.77 377.69 144.77L377.3 144.14C377.3 144.14 376.46 144.74 375.65 144.74C374.96 144.74 374.84 144.29 374.84 143.33V136.43C374.84 133.28 374.09 132.14 371.27 132.14C367.91 132.14 365.72 133.82 365.72 133.82L366.23 136.07H367.19C367.19 136.07 368.33 133.19 370.37 133.19C371.48 133.19 372.05 134 372.26 135.11C372.41 135.95 372.41 137.69 372.38 138.32L371.36 138.47C368.24 138.95 364.67 140.45 364.67 143.33ZM368.99 144.65C368.09 144.65 367.31 143.99 367.31 142.79C367.31 140.63 369.74 139.73 371.45 139.46L372.38 139.31V142.85C371.6 143.51 370.16 144.65 368.99 144.65ZM385.537 144.32C385.537 146.03 388.657 146.36 390.037 146.36C392.887 146.36 394.837 144.92 394.837 142.43C394.837 137.69 387.997 138.26 387.997 135.08C387.997 134.15 388.627 133.16 390.247 133.16C390.877 133.16 392.947 133.31 392.947 135.77H393.877L394.477 132.68C394.477 132.68 392.527 132.14 390.727 132.14C387.547 132.14 385.837 133.73 385.837 135.95C385.837 140.3 392.707 140.09 392.707 143.3C392.707 144.56 391.687 145.34 390.217 145.34C388.777 145.34 387.007 144.59 386.827 142.04H385.927C385.927 142.04 385.537 143.72 385.537 144.32ZM397.079 139.55C397.079 143.39 399.419 146.36 403.649 146.36C408.449 146.36 410.759 142.43 410.759 138.71C410.759 135.02 408.509 132.14 404.129 132.14C399.029 132.14 397.079 136.04 397.079 139.55ZM399.839 138.86C399.839 135.98 401.009 133.16 403.769 133.16C406.799 133.16 407.999 136.58 407.999 139.55C407.999 142.76 406.619 145.34 404.069 145.34C401.069 145.34 399.839 141.86 399.839 138.86ZM413.046 146.09L419.496 145.91L419.616 145.16L417.216 144.86C417.216 144.86 417.366 144.17 417.366 143.27V136.07C418.626 134.78 420.456 133.97 421.836 133.97C423.036 133.97 423.906 134.57 423.906 136.85V143.27C423.906 144.35 423.546 145.07 422.196 145.22V146.09L428.646 145.91L428.766 145.16L426.216 144.86C426.216 144.86 426.366 144.17 426.366 143.27V136.19C426.366 133.28 425.016 132.14 422.946 132.14C420.426 132.14 418.326 133.85 417.246 135.47C417.276 132.8 417.546 131.81 417.546 131.81L417.456 131.72C417.456 131.72 415.596 132.53 412.656 133.13V133.94H414.006C414.876 133.94 414.906 134.69 414.906 135.98V143.27C414.906 144.35 414.396 145.07 413.046 145.22V146.09ZM431.084 143.81C431.084 144.83 432.164 145.37 433.574 145.73C432.194 146.27 429.794 147.17 429.794 149.48C429.794 152 432.734 153.11 435.434 153.11C439.124 153.11 443.054 151.01 443.054 148.07C443.054 145.64 440.354 144.8 437.834 144.29C435.494 143.81 433.694 143.6 433.694 142.79C433.694 142.37 434.234 141.77 434.444 141.53C434.924 141.62 435.404 141.65 435.914 141.65C438.914 141.65 441.614 139.97 441.614 137.15C441.614 135.26 440.384 134.21 440.384 134.21C440.384 134.21 440.774 134.3 441.434 134.3H443.024L443.294 132.35C443.294 132.35 442.274 132.74 441.314 132.74H439.874C438.374 132.74 437.654 132.14 435.914 132.14C432.944 132.14 430.304 133.85 430.304 136.97C430.304 139.37 431.894 140.81 433.904 141.38C432.824 141.95 431.084 142.55 431.084 143.81ZM436.814 146.39C438.794 146.81 440.564 147.41 440.564 148.94C440.564 150.77 438.134 151.97 435.944 151.97C433.964 151.97 432.164 150.98 432.164 149.12C432.164 147.47 433.574 146.36 434.294 145.88C435.104 146.06 435.974 146.21 436.814 146.39ZM436.004 140.6C433.784 140.6 432.914 138.77 432.914 136.91C432.914 135.02 433.754 133.19 435.854 133.19C438.014 133.19 439.004 135.23 439.004 137.15C439.004 138.92 438.164 140.6 436.004 140.6ZM29.14 180.55C29.14 184.39 31.48 187.36 35.71 187.36C40.51 187.36 42.82 183.43 42.82 179.71C42.82 176.02 40.57 173.14 36.19 173.14C31.09 173.14 29.14 177.04 29.14 180.55ZM31.9 179.86C31.9 176.98 33.07 174.16 35.83 174.16C38.86 174.16 40.06 177.58 40.06 180.55C40.06 183.76 38.68 186.34 36.13 186.34C33.13 186.34 31.9 182.86 31.9 179.86ZM45.1068 187.09L51.5568 186.91L51.6768 186.16L49.2768 185.86C49.2768 185.86 49.4268 185.17 49.4268 184.27V177.07C50.6868 175.78 52.5168 174.97 53.8968 174.97C55.0968 174.97 55.9668 175.57 55.9668 177.85V184.27C55.9668 185.35 55.6068 186.07 54.2568 186.22V187.09L60.7068 186.91L60.8268 186.16L58.2768 185.86C58.2768 185.86 58.4268 185.17 58.4268 184.27V177.19C58.4268 174.28 57.0768 173.14 55.0068 173.14C52.4868 173.14 50.3868 174.85 49.3068 176.47C49.3368 173.8 49.6068 172.81 49.6068 172.81L49.5168 172.72C49.5168 172.72 47.6568 173.53 44.7168 174.13V174.94H46.0668C46.9368 174.94 46.9668 175.69 46.9668 176.98V184.27C46.9668 185.35 46.4568 186.07 45.1068 186.22V187.09ZM68.713 184.33C68.713 185.95 69.853 187.36 71.833 187.36C74.923 187.36 76.513 184.51 76.513 184.51V185.23C76.513 186.7 77.413 187.36 78.553 187.36C80.323 187.36 81.733 185.77 81.733 185.77L81.343 185.14C81.343 185.14 80.503 185.74 79.693 185.74C79.003 185.74 78.883 185.29 78.883 184.33V177.43C78.883 174.28 78.133 173.14 75.313 173.14C71.953 173.14 69.763 174.82 69.763 174.82L70.273 177.07H71.233C71.233 177.07 72.373 174.19 74.413 174.19C75.523 174.19 76.093 175 76.303 176.11C76.453 176.95 76.453 178.69 76.423 179.32L75.403 179.47C72.283 179.95 68.713 181.45 68.713 184.33ZM73.033 185.65C72.133 185.65 71.353 184.99 71.353 183.79C71.353 181.63 73.783 180.73 75.493 180.46L76.423 180.31V183.85C75.643 184.51 74.203 185.65 73.033 185.65ZM89.5202 187.09L95.9702 186.91L96.0902 186.16L93.6902 185.89C93.6902 185.89 93.8402 185.17 93.8402 184.27V177.07C95.1302 175.78 96.8102 174.97 98.1602 174.97C99.3002 174.97 99.9302 175.57 99.9302 177.85V184.27C99.9302 185.35 99.5702 186.07 98.2202 186.22V187.09L104.52 186.91L104.64 186.16L102.24 185.89C102.24 185.89 102.39 185.17 102.39 184.27V177.94C102.39 176.2 105.45 174.97 106.8 174.97C107.91 174.97 108.54 175.57 108.54 177.85V184.27C108.54 185.35 108.18 186.07 106.83 186.22V187.09L113.28 186.91L113.4 186.16L110.85 185.89C110.85 185.89 111 185.17 111 184.27V177.19C111 174.19 109.74 173.14 107.79 173.14C105.42 173.14 103.44 174.79 102.3 176.59C102.3 174.22 101.07 173.14 99.1502 173.14C96.7202 173.14 94.8002 174.88 93.7202 176.44C93.8102 173.77 94.0802 172.81 94.0802 172.81L93.9902 172.72C93.9902 172.72 92.1302 173.53 89.1902 174.13V174.94H90.4802C91.3502 174.94 91.3802 175.69 91.3802 176.98V184.27C91.3802 185.35 90.8702 186.07 89.5202 186.22V187.09ZM116.215 183.34C116.215 186.22 117.505 187.36 119.605 187.36C122.125 187.36 124.105 185.59 125.185 184V185.56C125.185 186.31 124.915 187.18 124.915 187.18L125.035 187.27C125.035 187.27 126.685 187 129.955 186.67L130.045 185.86H129.205C128.215 185.86 127.525 185.86 127.525 184.15V176.23C127.525 173.92 127.795 173.08 127.795 173.08L127.675 172.99C127.675 172.99 126.055 173.59 123.175 174.1V174.94H124.165C125.035 174.94 125.065 175.69 125.065 176.98V183.4C123.775 184.72 122.095 185.53 120.715 185.53C119.485 185.53 118.675 184.93 118.675 182.65V176.23C118.675 173.92 118.945 173.08 118.945 173.08L118.825 172.99C118.825 172.99 117.175 173.59 114.265 174.1V174.94H115.315C116.185 174.94 116.215 175.69 116.215 176.98V183.34ZM131.563 185.32C131.563 187.03 134.683 187.36 136.063 187.36C138.913 187.36 140.863 185.92 140.863 183.43C140.863 178.69 134.023 179.26 134.023 176.08C134.023 175.15 134.653 174.16 136.273 174.16C136.903 174.16 138.973 174.31 138.973 176.77H139.903L140.503 173.68C140.503 173.68 138.553 173.14 136.753 173.14C133.573 173.14 131.863 174.73 131.863 176.95C131.863 181.3 138.733 181.09 138.733 184.3C138.733 185.56 137.713 186.34 136.243 186.34C134.803 186.34 133.033 185.59 132.853 183.04H131.953C131.953 183.04 131.563 184.72 131.563 185.32ZM143.105 187.09L149.705 186.91L149.825 186.16L147.275 185.89C147.275 185.89 147.425 185.17 147.425 184.27V176.23C147.425 173.8 147.755 172.81 147.755 172.81L147.725 172.72C147.725 172.72 147.095 173.11 142.715 174.13V174.94H144.065C144.935 174.94 144.965 175.69 144.965 176.98V184.27C144.965 185.35 144.455 186.07 143.105 186.22V187.09ZM145.925 170.08C146.795 170.08 147.545 169.33 147.545 168.46C147.545 167.59 146.795 166.84 145.925 166.84C145.055 166.84 144.305 167.59 144.305 168.46C144.305 169.33 145.055 170.08 145.925 170.08ZM151.337 180.52C151.337 183.97 153.497 187.36 157.697 187.36C161.177 187.36 162.557 184.75 162.557 184.75L162.227 184.12C162.227 184.12 160.997 185.35 158.747 185.35C155.207 185.35 153.797 182.53 153.797 179.65C153.797 176.74 155.147 174.16 157.547 174.16C159.647 174.16 159.827 176.5 161.357 176.5C162.077 176.5 162.497 175.99 162.497 175.42C162.497 173.86 159.587 173.14 157.757 173.14C153.617 173.14 151.337 176.89 151.337 180.52ZM171.348 185.32C171.348 187.03 174.468 187.36 175.848 187.36C178.698 187.36 180.648 185.92 180.648 183.43C180.648 178.69 173.808 179.26 173.808 176.08C173.808 175.15 174.438 174.16 176.058 174.16C176.688 174.16 178.758 174.31 178.758 176.77H179.688L180.288 173.68C180.288 173.68 178.338 173.14 176.538 173.14C173.358 173.14 171.648 174.73 171.648 176.95C171.648 181.3 178.518 181.09 178.518 184.3C178.518 185.56 177.498 186.34 176.028 186.34C174.588 186.34 172.818 185.59 172.638 183.04H171.738C171.738 183.04 171.348 184.72 171.348 185.32ZM184.36 183.43C184.36 186.16 185.56 187.36 187.69 187.36C190.3 187.36 192.01 185.5 192.01 185.5L191.62 184.93C191.62 184.93 190.27 185.56 188.92 185.56C187.33 185.56 186.82 184.6 186.82 182.86V175.24L187.12 174.94H191.26L191.47 173.5H186.79V173.05C186.79 170.92 187.06 170.05 187.06 170.05L186.97 169.96L185.62 169.93L184.51 173.2C183.79 173.86 182.47 174.13 182.47 174.13V175.03H184.45C184.45 175.03 184.36 176.11 184.36 176.98V183.43ZM192.99 184.33C192.99 185.95 194.13 187.36 196.11 187.36C199.2 187.36 200.79 184.51 200.79 184.51V185.23C200.79 186.7 201.69 187.36 202.83 187.36C204.6 187.36 206.01 185.77 206.01 185.77L205.62 185.14C205.62 185.14 204.78 185.74 203.97 185.74C203.28 185.74 203.16 185.29 203.16 184.33V177.43C203.16 174.28 202.41 173.14 199.59 173.14C196.23 173.14 194.04 174.82 194.04 174.82L194.55 177.07H195.51C195.51 177.07 196.65 174.19 198.69 174.19C199.8 174.19 200.37 175 200.58 176.11C200.73 176.95 200.73 178.69 200.7 179.32L199.68 179.47C196.56 179.95 192.99 181.45 192.99 184.33ZM197.31 185.65C196.41 185.65 195.63 184.99 195.63 183.79C195.63 181.63 198.06 180.73 199.77 180.46L200.7 180.31V183.85C199.92 184.51 198.48 185.65 197.31 185.65ZM208.559 183.43C208.559 186.16 209.759 187.36 211.889 187.36C214.499 187.36 216.209 185.5 216.209 185.5L215.819 184.93C215.819 184.93 214.469 185.56 213.119 185.56C211.529 185.56 211.019 184.6 211.019 182.86V175.24L211.319 174.94H215.459L215.669 173.5H210.989V173.05C210.989 170.92 211.259 170.05 211.259 170.05L211.169 169.96L209.819 169.93L208.709 173.2C207.989 173.86 206.669 174.13 206.669 174.13V175.03H208.649C208.649 175.03 208.559 176.11 208.559 176.98V183.43ZM217.49 187.09L224.09 186.91L224.21 186.16L221.66 185.89C221.66 185.89 221.81 185.17 221.81 184.27V176.23C221.81 173.8 222.14 172.81 222.14 172.81L222.11 172.72C222.11 172.72 221.48 173.11 217.1 174.13V174.94H218.45C219.32 174.94 219.35 175.69 219.35 176.98V184.27C219.35 185.35 218.84 186.07 217.49 186.22V187.09ZM220.31 170.08C221.18 170.08 221.93 169.33 221.93 168.46C221.93 167.59 221.18 166.84 220.31 166.84C219.44 166.84 218.69 167.59 218.69 168.46C218.69 169.33 219.44 170.08 220.31 170.08ZM225.722 180.55C225.722 184.39 228.062 187.36 232.292 187.36C237.092 187.36 239.402 183.43 239.402 179.71C239.402 176.02 237.152 173.14 232.772 173.14C227.672 173.14 225.722 177.04 225.722 180.55ZM228.482 179.86C228.482 176.98 229.652 174.16 232.412 174.16C235.442 174.16 236.642 177.58 236.642 180.55C236.642 183.76 235.262 186.34 232.712 186.34C229.712 186.34 228.482 182.86 228.482 179.86ZM241.689 187.09L248.139 186.91L248.259 186.16L245.859 185.86C245.859 185.86 246.009 185.17 246.009 184.27V177.07C247.269 175.78 249.099 174.97 250.479 174.97C251.679 174.97 252.549 175.57 252.549 177.85V184.27C252.549 185.35 252.189 186.07 250.839 186.22V187.09L257.289 186.91L257.409 186.16L254.859 185.86C254.859 185.86 255.009 185.17 255.009 184.27V177.19C255.009 174.28 253.659 173.14 251.589 173.14C249.069 173.14 246.969 174.85 245.889 176.47C245.919 173.8 246.189 172.81 246.189 172.81L246.099 172.72C246.099 172.72 244.239 173.53 241.299 174.13V174.94H242.649C243.519 174.94 243.549 175.69 243.549 176.98V184.27C243.549 185.35 243.039 186.07 241.689 186.22V187.09Z" fill="#333333"/>
</svg>
