<svg width="472" height="264" viewBox="0 0 472 264" fill="none" xmlns="http://www.w3.org/2000/svg">
<path d="M3 3H469V261H3V3Z" fill="white" stroke="#1342E7" stroke-width="6"/>
<path d="M35.11 33.778C31.51 33.778 28.864 36.478 28.864 40.006C28.864 43.534 31.51 46.234 35.11 46.234C38.71 46.234 41.356 43.534 41.356 40.006C41.356 36.478 38.71 33.778 35.11 33.778ZM35.11 44.542C32.536 44.542 30.7 42.67 30.7 40.006C30.7 37.342 32.536 35.47 35.11 35.47C37.684 35.47 39.52 37.342 39.52 40.006C39.52 42.67 37.684 44.542 35.11 44.542ZM44.3807 33.994V46H46.2167V41.086H46.5407L49.9787 46H52.1927L48.4487 40.87C50.0507 40.51 51.1127 39.25 51.1127 37.522C51.1127 37 51.0047 35.578 49.6907 34.696C48.9167 34.174 47.9807 33.994 46.5227 33.994H44.3807ZM46.2167 35.686H46.8467C47.7467 35.686 49.3487 35.848 49.3487 37.54C49.3487 39.448 47.2967 39.502 46.7927 39.502H46.2167V35.686ZM54.7159 33.994V46H56.5519V33.994H54.7159ZM66.3569 41.446H69.3449C69.2729 42.13 69.0029 42.832 68.3369 43.48C67.5629 44.236 66.6989 44.542 65.6549 44.542C64.5029 44.542 63.4769 44.218 62.6489 43.336C61.8569 42.49 61.4069 41.284 61.4069 40.078C61.4069 38.782 61.8929 37.504 62.6849 36.712C63.2789 36.118 64.2869 35.47 65.8529 35.47C66.5909 35.47 67.3109 35.596 67.9769 35.992C68.5529 36.316 69.0929 36.856 69.4529 37.36L70.9109 36.334C70.5689 35.794 69.9569 35.092 68.9669 34.534C68.0309 34.012 66.9149 33.778 65.8349 33.778C63.9809 33.778 62.3429 34.534 61.3169 35.578C60.3269 36.568 59.5709 38.188 59.5709 40.06C59.5709 41.788 60.1829 43.39 61.3529 44.596C62.4509 45.73 63.6929 46.234 65.4389 46.234C66.8069 46.234 68.2829 45.91 69.5249 44.704C70.6949 43.57 71.3069 41.896 71.3069 39.844V39.754H66.3569V41.446ZM74.3317 33.994V46H76.1677V33.994H74.3317ZM81.5987 46V37.612L90.3107 46.738V33.994H88.4747V42.31L79.7627 33.184V46H81.5987ZM104.504 33.778C100.904 33.778 98.2575 36.478 98.2575 40.006C98.2575 43.534 100.904 46.234 104.504 46.234C108.104 46.234 110.75 43.534 110.75 40.006C110.75 36.478 108.104 33.778 104.504 33.778ZM104.504 44.542C101.93 44.542 100.094 42.67 100.094 40.006C100.094 37.342 101.93 35.47 104.504 35.47C107.078 35.47 108.914 37.342 108.914 40.006C108.914 42.67 107.078 44.542 104.504 44.542ZM119.523 33.994H113.511V46H115.347V40.492H119.379V38.764H115.347V35.722H119.523V33.994ZM127.255 33.994V46H129.091V41.122H129.919C130.801 41.122 131.899 40.996 132.853 40.186C133.843 39.34 134.023 38.26 134.023 37.558C134.023 36.46 133.537 35.308 132.529 34.642C131.665 34.066 130.639 33.994 129.901 33.994H127.255ZM129.091 35.686H129.901C131.989 35.686 132.259 36.874 132.259 37.54C132.259 38.656 131.503 39.43 129.919 39.43H129.091V35.686ZM144.395 46H146.375L140.687 33.292L134.711 46H136.691L138.005 43.102H143.135L144.395 46ZM138.761 41.374L140.615 37.306L142.397 41.374H138.761ZM148.611 33.994V46H150.447V33.994H148.611ZM155.878 46V37.612L164.59 46.738V33.994H162.754V42.31L154.042 33.184V46H155.878ZM173.113 33.994V46H174.949V41.122H175.777C176.659 41.122 177.757 40.996 178.711 40.186C179.701 39.34 179.881 38.26 179.881 37.558C179.881 36.46 179.395 35.308 178.387 34.642C177.523 34.066 176.497 33.994 175.759 33.994H173.113ZM174.949 35.686H175.759C177.847 35.686 178.117 36.874 178.117 37.54C178.117 38.656 177.361 39.43 175.777 39.43H174.949V35.686ZM188.151 33.778C184.551 33.778 181.905 36.478 181.905 40.006C181.905 43.534 184.551 46.234 188.151 46.234C191.751 46.234 194.397 43.534 194.397 40.006C194.397 36.478 191.751 33.778 188.151 33.778ZM188.151 44.542C185.577 44.542 183.741 42.67 183.741 40.006C183.741 37.342 185.577 35.47 188.151 35.47C190.725 35.47 192.561 37.342 192.561 40.006C192.561 42.67 190.725 44.542 188.151 44.542ZM197.422 33.994V46H199.258V33.994H197.422ZM204.689 46V37.612L213.401 46.738V33.994H211.565V42.31L202.853 33.184V46H204.689ZM223.087 35.722V33.994H215.743V35.722H218.497V46H220.333V35.722H223.087ZM237.579 44.308H233.097L234.969 42.094C235.689 41.248 236.247 40.582 236.679 39.934C237.165 39.214 237.543 38.404 237.543 37.414C237.543 35.542 236.229 33.796 233.673 33.796C232.161 33.796 231.297 34.48 230.865 34.966C230.397 35.488 229.911 36.424 229.857 37.594H231.621C231.693 36.46 232.395 35.416 233.745 35.416C235.077 35.416 235.743 36.352 235.743 37.36C235.743 38.062 235.455 38.584 235.113 39.088C234.717 39.664 234.087 40.456 233.673 40.96L229.515 46H237.579V44.308ZM29.32 103.27C29.32 105.46 32.5 106.36 35.11 106.36C38.71 106.36 41.8 104.68 41.8 101.08C41.8 94.63 32.41 95.14 32.41 89.89C32.41 87.7 34.12 86.77 36.13 86.77C38.65 86.77 39.79 88.63 39.49 90.88H40.51L41.44 86.2C40.78 86.11 38.62 85.63 36.49 85.63C32.05 85.63 29.8 87.88 29.8 90.85C29.8 96.94 39.19 96.85 39.19 102.07C39.19 104.38 37.33 105.22 35.38 105.22C33.34 105.22 31.03 104.26 31.03 100.6H30.01C29.44 102.4 29.32 102.82 29.32 103.27ZM44.0521 106.09L50.6521 105.91L50.7721 105.16L48.2221 104.89C48.2221 104.89 48.3721 104.17 48.3721 103.27V95.23C48.3721 92.8 48.7021 91.81 48.7021 91.81L48.6721 91.72C48.6721 91.72 48.0421 92.11 43.6621 93.13V93.94H45.0121C45.8821 93.94 45.9121 94.69 45.9121 95.98V103.27C45.9121 104.35 45.4021 105.07 44.0521 105.22V106.09ZM46.8721 89.08C47.7421 89.08 48.4921 88.33 48.4921 87.46C48.4921 86.59 47.7421 85.84 46.8721 85.84C46.0021 85.84 45.2521 86.59 45.2521 87.46C45.2521 88.33 46.0021 89.08 46.8721 89.08ZM52.3424 106.09L58.7924 105.91L58.9124 105.16L56.5124 104.89C56.5124 104.89 56.6624 104.17 56.6624 103.27V96.07C57.9524 94.78 59.6324 93.97 60.9824 93.97C62.1224 93.97 62.7524 94.57 62.7524 96.85V103.27C62.7524 104.35 62.3924 105.07 61.0424 105.22V106.09L67.3424 105.91L67.4624 105.16L65.0624 104.89C65.0624 104.89 65.2124 104.17 65.2124 103.27V96.94C65.2124 95.2 68.2724 93.97 69.6224 93.97C70.7324 93.97 71.3624 94.57 71.3624 96.85V103.27C71.3624 104.35 71.0024 105.07 69.6524 105.22V106.09L76.1024 105.91L76.2224 105.16L73.6724 104.89C73.6724 104.89 73.8224 104.17 73.8224 103.27V96.19C73.8224 93.19 72.5624 92.14 70.6124 92.14C68.2424 92.14 66.2624 93.79 65.1224 95.59C65.1224 93.22 63.8924 92.14 61.9724 92.14C59.5424 92.14 57.6224 93.88 56.5424 95.44C56.6324 92.77 56.9024 91.81 56.9024 91.81L56.8124 91.72C56.8124 91.72 54.9524 92.53 52.0124 93.13V93.94H53.3024C54.1724 93.94 54.2024 94.69 54.2024 95.98V103.27C54.2024 104.35 53.6924 105.07 52.3424 105.22V106.09ZM77.6849 113.35C79.8449 112.63 84.5849 112.06 84.5849 112.06L84.7049 111.34H81.5549C81.5549 111.34 81.7049 110.53 81.7049 109.63V106.18C82.2749 106.27 82.9049 106.36 83.7149 106.36C88.9949 106.36 91.4249 102.49 91.4249 98.68C91.4249 95.38 89.6249 92.14 85.9649 92.14C83.5949 92.14 82.4549 93.46 81.6449 94.48C81.7649 92.56 81.9449 91.81 81.9449 91.81L81.8549 91.72C81.8549 91.72 80.0849 92.53 77.1449 93.13V93.94H78.3449C79.2149 93.94 79.2449 94.69 79.2449 95.98V109.66C79.2449 111.04 79.0349 111.73 77.6849 112.48V113.35ZM83.8649 105.22C82.8749 105.22 81.7049 105.01 81.7049 103.6V95.14C82.6349 94.42 83.7149 93.88 84.8849 93.88C87.5549 93.88 88.8149 96.67 88.8149 99.55C88.8149 102.97 86.9849 105.22 83.8649 105.22ZM93.3224 106.09L99.9224 105.91L100.042 105.16L97.4924 104.89C97.4924 104.89 97.6424 104.17 97.6424 103.27V87.34C97.6424 85.03 97.9424 83.92 97.9424 83.92L97.8524 83.83C97.8524 83.83 96.4724 84.43 93.0224 85.18V85.99H94.2824C95.1524 85.99 95.1824 86.74 95.1824 88.03V103.27C95.1824 104.35 94.6724 105.07 93.3224 105.22V106.09ZM101.62 106.09L108.22 105.91L108.34 105.16L105.79 104.89C105.79 104.89 105.94 104.17 105.94 103.27V95.23C105.94 92.8 106.27 91.81 106.27 91.81L106.24 91.72C106.24 91.72 105.61 92.11 101.23 93.13V93.94H102.58C103.45 93.94 103.48 94.69 103.48 95.98V103.27C103.48 104.35 102.97 105.07 101.62 105.22V106.09ZM104.44 89.08C105.31 89.08 106.06 88.33 106.06 87.46C106.06 86.59 105.31 85.84 104.44 85.84C103.57 85.84 102.82 86.59 102.82 87.46C102.82 88.33 103.57 89.08 104.44 89.08ZM109.853 99.52C109.853 102.97 112.013 106.36 116.213 106.36C119.693 106.36 121.073 103.75 121.073 103.75L120.743 103.12C120.743 103.12 119.513 104.35 117.263 104.35C113.723 104.35 112.313 101.53 112.313 98.65C112.313 95.74 113.663 93.16 116.063 93.16C118.163 93.16 118.343 95.5 119.873 95.5C120.593 95.5 121.013 94.99 121.013 94.42C121.013 92.86 118.103 92.14 116.273 92.14C112.133 92.14 109.853 95.89 109.853 99.52ZM123.095 106.09L129.695 105.91L129.815 105.16L127.265 104.89C127.265 104.89 127.415 104.17 127.415 103.27V95.23C127.415 92.8 127.745 91.81 127.745 91.81L127.715 91.72C127.715 91.72 127.085 92.11 122.705 93.13V93.94H124.055C124.925 93.94 124.955 94.69 124.955 95.98V103.27C124.955 104.35 124.445 105.07 123.095 105.22V106.09ZM125.915 89.08C126.785 89.08 127.535 88.33 127.535 87.46C127.535 86.59 126.785 85.84 125.915 85.84C125.045 85.84 124.295 86.59 124.295 87.46C124.295 88.33 125.045 89.08 125.915 89.08ZM132.885 102.43C132.885 105.16 134.085 106.36 136.215 106.36C138.825 106.36 140.535 104.5 140.535 104.5L140.145 103.93C140.145 103.93 138.795 104.56 137.445 104.56C135.855 104.56 135.345 103.6 135.345 101.86V94.24L135.645 93.94H139.785L139.995 92.5H135.315V92.05C135.315 89.92 135.585 89.05 135.585 89.05L135.495 88.96L134.145 88.93L133.035 92.2C132.315 92.86 130.995 93.13 130.995 93.13V94.03H132.975C132.975 94.03 132.885 95.11 132.885 95.98V102.43ZM142.806 110.62C141.726 110.62 141.336 111.25 141.336 111.85C141.336 112.51 141.786 113.11 142.656 113.11C145.536 113.11 147.246 108.16 148.056 106.36L153.246 94.57C153.786 93.28 154.326 92.98 154.326 92.98L154.176 92.5H150.006V93.25C151.116 93.55 152.166 94.21 151.656 95.41L148.266 103.15C148.116 102.61 147.876 101.86 147.696 101.35L145.266 95.26C144.936 94.45 144.936 93.22 145.296 92.5L145.176 92.38C145.176 92.38 144.006 92.5 142.116 92.5H140.706V93.25C140.706 93.25 141.756 93.49 142.386 94.99L146.226 104.17C146.556 105.01 146.796 105.7 146.946 106.12L145.986 108.37C145.446 109.6 144.396 110.62 142.806 110.62ZM162.382 106.09L168.982 105.91L169.102 105.16L166.552 104.89C166.552 104.89 166.702 104.17 166.702 103.27V95.23C166.702 92.8 167.032 91.81 167.032 91.81L167.002 91.72C167.002 91.72 166.372 92.11 161.992 93.13V93.94H163.342C164.212 93.94 164.242 94.69 164.242 95.98V103.27C164.242 104.35 163.732 105.07 162.382 105.22V106.09ZM165.202 89.08C166.072 89.08 166.822 88.33 166.822 87.46C166.822 86.59 166.072 85.84 165.202 85.84C164.332 85.84 163.582 86.59 163.582 87.46C163.582 88.33 164.332 89.08 165.202 89.08ZM170.703 106.09L177.153 105.91L177.272 105.16L174.873 104.86C174.873 104.86 175.023 104.17 175.023 103.27V96.07C176.283 94.78 178.113 93.97 179.493 93.97C180.693 93.97 181.563 94.57 181.563 96.85V103.27C181.563 104.35 181.203 105.07 179.853 105.22V106.09L186.303 105.91L186.423 105.16L183.873 104.86C183.873 104.86 184.023 104.17 184.023 103.27V96.19C184.023 93.28 182.673 92.14 180.603 92.14C178.083 92.14 175.983 93.85 174.903 95.47C174.933 92.8 175.203 91.81 175.203 91.81L175.113 91.72C175.113 91.72 173.253 92.53 170.313 93.13V93.94H171.663C172.533 93.94 172.563 94.69 172.563 95.98V103.27C172.563 104.35 172.053 105.07 170.703 105.22V106.09ZM196.079 102.43C196.079 105.16 197.279 106.36 199.409 106.36C202.019 106.36 203.729 104.5 203.729 104.5L203.339 103.93C203.339 103.93 201.989 104.56 200.639 104.56C199.049 104.56 198.539 103.6 198.539 101.86V94.24L198.839 93.94H202.979L203.189 92.5H198.509V92.05C198.509 89.92 198.779 89.05 198.779 89.05L198.689 88.96L197.339 88.93L196.229 92.2C195.509 92.86 194.189 93.13 194.189 93.13V94.03H196.169C196.169 94.03 196.079 95.11 196.079 95.98V102.43ZM204.709 106.09L211.159 105.91L211.279 105.16L208.879 104.89C208.879 104.89 209.029 104.17 209.029 103.27V96.01C210.289 94.81 212.119 93.97 213.499 93.97C214.699 93.97 215.569 94.57 215.569 96.85V103.27C215.569 104.35 215.089 105.07 213.859 105.22V106.09L220.309 105.91L220.429 105.16L217.879 104.89C217.879 104.89 218.029 104.17 218.029 103.27V96.19C218.029 93.28 216.679 92.14 214.609 92.14C212.089 92.14 209.989 93.82 208.909 95.38C208.909 95.14 209.029 94.54 209.029 93.16V87.34C209.029 85.03 209.329 83.92 209.329 83.92L209.239 83.83C209.239 83.83 207.859 84.43 204.409 85.18V85.99H205.669C206.539 85.99 206.569 86.74 206.569 88.03V103.27C206.569 104.35 206.059 105.07 204.709 105.22V106.09ZM221.855 99.52C221.855 103.03 223.955 106.36 228.215 106.36C231.785 106.36 233.345 103.54 233.345 103.54L233.015 102.91C233.015 102.91 231.575 104.35 229.115 104.35C225.755 104.35 224.375 101.68 224.255 98.95L224.555 98.59L232.025 97.51C232.625 97.42 233.405 97.12 233.405 97.12C233.315 93.82 230.765 92.14 228.185 92.14C224.555 92.14 221.855 95.44 221.855 99.52ZM227.735 93.28C230.375 93.28 230.615 96.7 230.615 96.7L224.315 97.51C224.585 95.26 225.725 93.28 227.735 93.28ZM243.832 102.34C243.832 105.22 245.122 106.36 247.222 106.36C249.742 106.36 251.722 104.59 252.802 103V104.56C252.802 105.31 252.532 106.18 252.532 106.18L252.652 106.27C252.652 106.27 254.302 106 257.572 105.67L257.662 104.86H256.822C255.832 104.86 255.142 104.86 255.142 103.15V95.23C255.142 92.92 255.412 92.08 255.412 92.08L255.292 91.99C255.292 91.99 253.672 92.59 250.792 93.1V93.94H251.782C252.652 93.94 252.682 94.69 252.682 95.98V102.4C251.392 103.72 249.712 104.53 248.332 104.53C247.102 104.53 246.292 103.93 246.292 101.65V95.23C246.292 92.92 246.562 92.08 246.562 92.08L246.442 91.99C246.442 91.99 244.792 92.59 241.882 93.1V93.94H242.932C243.802 93.94 243.832 94.69 243.832 95.98V102.34ZM259.18 104.32C259.18 106.03 262.3 106.36 263.68 106.36C266.53 106.36 268.48 104.92 268.48 102.43C268.48 97.69 261.64 98.26 261.64 95.08C261.64 94.15 262.27 93.16 263.89 93.16C264.52 93.16 266.59 93.31 266.59 95.77H267.52L268.12 92.68C268.12 92.68 266.17 92.14 264.37 92.14C261.19 92.14 259.48 93.73 259.48 95.95C259.48 100.3 266.35 100.09 266.35 103.3C266.35 104.56 265.33 105.34 263.86 105.34C262.42 105.34 260.65 104.59 260.47 102.04H259.57C259.57 102.04 259.18 103.72 259.18 104.32ZM270.722 99.52C270.722 103.03 272.822 106.36 277.082 106.36C280.652 106.36 282.212 103.54 282.212 103.54L281.882 102.91C281.882 102.91 280.442 104.35 277.982 104.35C274.622 104.35 273.242 101.68 273.122 98.95L273.422 98.59L280.892 97.51C281.492 97.42 282.272 97.12 282.272 97.12C282.182 93.82 279.632 92.14 277.052 92.14C273.422 92.14 270.722 95.44 270.722 99.52ZM276.602 93.28C279.242 93.28 279.482 96.7 279.482 96.7L273.182 97.51C273.452 95.26 274.592 93.28 276.602 93.28ZM284.521 106.09L291.421 105.91L291.541 105.16L288.691 104.89C288.691 104.89 288.841 104.17 288.841 103.27V96.22C289.501 95.47 290.491 94.48 291.511 94.48C292.201 94.48 292.291 94.99 292.981 94.99C293.761 94.99 294.391 94.42 294.391 93.52C294.391 92.5 293.491 92.14 292.771 92.14C291.211 92.14 289.621 93.94 288.721 95.62C288.811 92.8 289.081 91.81 289.081 91.81L288.991 91.72C288.991 91.72 287.071 92.53 284.131 93.13V93.94H285.481C286.351 93.94 286.381 94.69 286.381 95.98V103.27C286.381 104.35 285.871 105.07 284.521 105.22V106.09ZM302.509 106.09L309.109 105.91L309.229 105.16L306.679 104.89C306.679 104.89 306.829 104.17 306.829 103.27V95.23C306.829 92.8 307.159 91.81 307.159 91.81L307.129 91.72C307.129 91.72 306.499 92.11 302.119 93.13V93.94H303.469C304.339 93.94 304.369 94.69 304.369 95.98V103.27C304.369 104.35 303.859 105.07 302.509 105.22V106.09ZM305.329 89.08C306.199 89.08 306.949 88.33 306.949 87.46C306.949 86.59 306.199 85.84 305.329 85.84C304.459 85.84 303.709 86.59 303.709 87.46C303.709 88.33 304.459 89.08 305.329 89.08ZM310.829 106.09L317.279 105.91L317.399 105.16L314.999 104.86C314.999 104.86 315.149 104.17 315.149 103.27V96.07C316.409 94.78 318.239 93.97 319.619 93.97C320.819 93.97 321.689 94.57 321.689 96.85V103.27C321.689 104.35 321.329 105.07 319.979 105.22V106.09L326.429 105.91L326.549 105.16L323.999 104.86C323.999 104.86 324.149 104.17 324.149 103.27V96.19C324.149 93.28 322.799 92.14 320.729 92.14C318.209 92.14 316.109 93.85 315.029 95.47C315.059 92.8 315.329 91.81 315.329 91.81L315.239 91.72C315.239 91.72 313.379 92.53 310.439 93.13V93.94H311.789C312.659 93.94 312.689 94.69 312.689 95.98V103.27C312.689 104.35 312.179 105.07 310.829 105.22V106.09ZM329.38 102.43C329.38 105.16 330.58 106.36 332.71 106.36C335.32 106.36 337.03 104.5 337.03 104.5L336.64 103.93C336.64 103.93 335.29 104.56 333.94 104.56C332.35 104.56 331.84 103.6 331.84 101.86V94.24L332.14 93.94H336.28L336.49 92.5H331.81V92.05C331.81 89.92 332.08 89.05 332.08 89.05L331.99 88.96L330.64 88.93L329.53 92.2C328.81 92.86 327.49 93.13 327.49 93.13V94.03H329.47C329.47 94.03 329.38 95.11 329.38 95.98V102.43ZM338.31 99.52C338.31 103.03 340.41 106.36 344.67 106.36C348.24 106.36 349.8 103.54 349.8 103.54L349.47 102.91C349.47 102.91 348.03 104.35 345.57 104.35C342.21 104.35 340.83 101.68 340.71 98.95L341.01 98.59L348.48 97.51C349.08 97.42 349.86 97.12 349.86 97.12C349.77 93.82 347.22 92.14 344.64 92.14C341.01 92.14 338.31 95.44 338.31 99.52ZM344.19 93.28C346.83 93.28 347.07 96.7 347.07 96.7L340.77 97.51C341.04 95.26 342.18 93.28 344.19 93.28ZM352.109 106.09L359.009 105.91L359.129 105.16L356.279 104.89C356.279 104.89 356.429 104.17 356.429 103.27V96.22C357.089 95.47 358.079 94.48 359.099 94.48C359.789 94.48 359.879 94.99 360.569 94.99C361.349 94.99 361.979 94.42 361.979 93.52C361.979 92.5 361.079 92.14 360.359 92.14C358.799 92.14 357.209 93.94 356.309 95.62C356.399 92.8 356.669 91.81 356.669 91.81L356.579 91.72C356.579 91.72 354.659 92.53 351.719 93.13V93.94H353.069C353.939 93.94 353.969 94.69 353.969 95.98V103.27C353.969 104.35 353.459 105.07 352.109 105.22V106.09ZM363.329 106.09L370.529 105.91L370.649 105.16L367.499 104.89C367.499 104.89 367.649 104.17 367.649 103.27V94.24L367.949 93.94H371.639L371.879 92.5H367.649V90.85C367.649 86.98 368.369 85.54 369.899 85.54C371.519 85.54 372.179 87.07 373.259 87.07C374.069 87.07 374.519 86.5 374.519 85.93C374.519 84.67 372.749 84.16 371.309 84.16C367.409 84.16 365.189 87.19 365.189 91.66V92.47L363.299 93.13V94.03H365.189V103.27C365.189 104.35 364.679 105.07 363.329 105.22V106.09ZM372.873 103.33C372.873 104.95 374.013 106.36 375.993 106.36C379.083 106.36 380.673 103.51 380.673 103.51V104.23C380.673 105.7 381.573 106.36 382.713 106.36C384.483 106.36 385.893 104.77 385.893 104.77L385.503 104.14C385.503 104.14 384.663 104.74 383.853 104.74C383.163 104.74 383.043 104.29 383.043 103.33V96.43C383.043 93.28 382.293 92.14 379.473 92.14C376.113 92.14 373.923 93.82 373.923 93.82L374.433 96.07H375.393C375.393 96.07 376.533 93.19 378.573 93.19C379.683 93.19 380.253 94 380.463 95.11C380.613 95.95 380.613 97.69 380.583 98.32L379.563 98.47C376.443 98.95 372.873 100.45 372.873 103.33ZM377.193 104.65C376.293 104.65 375.513 103.99 375.513 102.79C375.513 100.63 377.943 99.73 379.653 99.46L380.583 99.31V102.85C379.803 103.51 378.363 104.65 377.193 104.65ZM386.972 99.52C386.972 102.97 389.132 106.36 393.332 106.36C396.812 106.36 398.192 103.75 398.192 103.75L397.862 103.12C397.862 103.12 396.632 104.35 394.382 104.35C390.842 104.35 389.432 101.53 389.432 98.65C389.432 95.74 390.782 93.16 393.182 93.16C395.282 93.16 395.462 95.5 396.992 95.5C397.712 95.5 398.132 94.99 398.132 94.42C398.132 92.86 395.222 92.14 393.392 92.14C389.252 92.14 386.972 95.89 386.972 99.52ZM400.214 99.52C400.214 103.03 402.314 106.36 406.574 106.36C410.144 106.36 411.704 103.54 411.704 103.54L411.374 102.91C411.374 102.91 409.934 104.35 407.474 104.35C404.114 104.35 402.734 101.68 402.614 98.95L402.914 98.59L410.384 97.51C410.984 97.42 411.764 97.12 411.764 97.12C411.674 93.82 409.124 92.14 406.544 92.14C402.914 92.14 400.214 95.44 400.214 99.52ZM406.094 93.28C408.734 93.28 408.974 96.7 408.974 96.7L402.674 97.51C402.944 95.26 404.084 93.28 406.094 93.28ZM420.751 106.09L427.351 105.91L427.471 105.16L424.921 104.89C424.921 104.89 425.071 104.17 425.071 103.27V95.23C425.071 92.8 425.401 91.81 425.401 91.81L425.371 91.72C425.371 91.72 424.741 92.11 420.361 93.13V93.94H421.711C422.581 93.94 422.611 94.69 422.611 95.98V103.27C422.611 104.35 422.101 105.07 420.751 105.22V106.09ZM423.571 89.08C424.441 89.08 425.191 88.33 425.191 87.46C425.191 86.59 424.441 85.84 423.571 85.84C422.701 85.84 421.951 86.59 421.951 87.46C421.951 88.33 422.701 89.08 423.571 89.08ZM429.102 104.32C429.102 106.03 432.222 106.36 433.602 106.36C436.452 106.36 438.402 104.92 438.402 102.43C438.402 97.69 431.562 98.26 431.562 95.08C431.562 94.15 432.192 93.16 433.812 93.16C434.442 93.16 436.512 93.31 436.512 95.77H437.442L438.042 92.68C438.042 92.68 436.092 92.14 434.292 92.14C431.112 92.14 429.402 93.73 429.402 95.95C429.402 100.3 436.272 100.09 436.272 103.3C436.272 104.56 435.252 105.34 433.782 105.34C432.342 105.34 430.572 104.59 430.392 102.04H429.492C429.492 102.04 429.102 103.72 429.102 104.32ZM28.84 143.33C28.84 144.95 29.98 146.36 31.96 146.36C35.05 146.36 36.64 143.51 36.64 143.51V144.23C36.64 145.7 37.54 146.36 38.68 146.36C40.45 146.36 41.86 144.77 41.86 144.77L41.47 144.14C41.47 144.14 40.63 144.74 39.82 144.74C39.13 144.74 39.01 144.29 39.01 143.33V136.43C39.01 133.28 38.26 132.14 35.44 132.14C32.08 132.14 29.89 133.82 29.89 133.82L30.4 136.07H31.36C31.36 136.07 32.5 133.19 34.54 133.19C35.65 133.19 36.22 134 36.43 135.11C36.58 135.95 36.58 137.69 36.55 138.32L35.53 138.47C32.41 138.95 28.84 140.45 28.84 143.33ZM33.16 144.65C32.26 144.65 31.48 143.99 31.48 142.79C31.48 140.63 33.91 139.73 35.62 139.46L36.55 139.31V142.85C35.77 143.51 34.33 144.65 33.16 144.65ZM42.9388 139.52C42.9388 142.97 45.0988 146.36 49.2988 146.36C52.7788 146.36 54.1588 143.75 54.1588 143.75L53.8288 143.12C53.8288 143.12 52.5988 144.35 50.3488 144.35C46.8088 144.35 45.3988 141.53 45.3988 138.65C45.3988 135.74 46.7488 133.16 49.1488 133.16C51.2488 133.16 51.4288 135.5 52.9588 135.5C53.6788 135.5 54.0988 134.99 54.0988 134.42C54.0988 132.86 51.1888 132.14 49.3588 132.14C45.2188 132.14 42.9388 135.89 42.9388 139.52ZM55.881 146.09L62.331 145.91L62.451 145.16L60.051 144.89C60.051 144.89 60.201 144.17 60.201 143.27V136.01C61.461 134.81 63.291 133.97 64.671 133.97C65.871 133.97 66.741 134.57 66.741 136.85V143.27C66.741 144.35 66.261 145.07 65.031 145.22V146.09L71.481 145.91L71.601 145.16L69.051 144.89C69.051 144.89 69.201 144.17 69.201 143.27V136.19C69.201 133.28 67.851 132.14 65.781 132.14C63.261 132.14 61.161 133.82 60.081 135.38C60.081 135.14 60.201 134.54 60.201 133.16V127.34C60.201 125.03 60.501 123.92 60.501 123.92L60.411 123.83C60.411 123.83 59.031 124.43 55.581 125.18V125.99H56.841C57.711 125.99 57.741 126.74 57.741 128.03V143.27C57.741 144.35 57.231 145.07 55.881 145.22V146.09ZM73.0267 146.09L79.6267 145.91L79.7467 145.16L77.1967 144.89C77.1967 144.89 77.3467 144.17 77.3467 143.27V135.23C77.3467 132.8 77.6767 131.81 77.6767 131.81L77.6467 131.72C77.6467 131.72 77.0167 132.11 72.6367 133.13V133.94H73.9867C74.8567 133.94 74.8867 134.69 74.8867 135.98V143.27C74.8867 144.35 74.3767 145.07 73.0267 145.22V146.09ZM75.8467 129.08C76.7167 129.08 77.4667 128.33 77.4667 127.46C77.4667 126.59 76.7167 125.84 75.8467 125.84C74.9767 125.84 74.2267 126.59 74.2267 127.46C74.2267 128.33 74.9767 129.08 75.8467 129.08ZM81.2591 139.52C81.2591 143.03 83.3591 146.36 87.6191 146.36C91.1891 146.36 92.7491 143.54 92.7491 143.54L92.4191 142.91C92.4191 142.91 90.9791 144.35 88.5191 144.35C85.1591 144.35 83.7791 141.68 83.6591 138.95L83.9591 138.59L91.4291 137.51C92.0291 137.42 92.8091 137.12 92.8091 137.12C92.7191 133.82 90.1691 132.14 87.5891 132.14C83.9591 132.14 81.2591 135.44 81.2591 139.52ZM87.1391 133.28C89.7791 133.28 90.0191 136.7 90.0191 136.7L83.7191 137.51C83.9891 135.26 85.1291 133.28 87.1391 133.28ZM99.918 146L101.178 146.39L106.428 134.54C107.058 133.16 107.508 132.98 107.508 132.98L107.358 132.5H103.308V133.25C104.448 133.52 105.378 134.12 104.808 135.44L101.268 143.45C101.118 142.88 100.908 142.13 100.728 141.59L98.448 135.26C98.118 134.36 98.118 133.31 98.478 132.5L98.358 132.38C98.358 132.38 97.248 132.5 95.358 132.5H93.978V133.25C93.978 133.25 95.028 133.46 95.628 134.99L99.918 146ZM108.769 139.52C108.769 143.03 110.869 146.36 115.129 146.36C118.699 146.36 120.259 143.54 120.259 143.54L119.929 142.91C119.929 142.91 118.489 144.35 116.029 144.35C112.669 144.35 111.289 141.68 111.169 138.95L111.469 138.59L118.939 137.51C119.539 137.42 120.319 137.12 120.319 137.12C120.229 133.82 117.679 132.14 115.099 132.14C111.469 132.14 108.769 135.44 108.769 139.52ZM114.649 133.28C117.289 133.28 117.529 136.7 117.529 136.7L111.229 137.51C111.499 135.26 112.639 133.28 114.649 133.28ZM122.538 139.85C122.538 143.12 124.488 146.36 128.178 146.36C130.428 146.36 131.658 145.13 132.468 143.93V144.56C132.468 145.31 132.348 146.15 132.348 146.15L132.438 146.24C132.438 146.24 133.968 146 137.238 145.67L137.328 144.86H136.488C135.498 144.86 134.808 144.86 134.808 143.15V127.34C134.808 125.03 135.108 123.92 135.108 123.92L135.018 123.83C135.018 123.83 133.638 124.43 130.188 125.18V125.99H131.448C132.318 125.99 132.348 126.74 132.348 128.03V132.32C132.348 132.32 131.298 132.14 130.218 132.14C125.088 132.14 122.538 136.07 122.538 139.85ZM129.228 144.62C126.528 144.62 125.148 141.83 125.148 138.95C125.148 135.47 127.128 133.28 130.188 133.28C131.148 133.28 132.348 133.49 132.348 134.87V143.3C131.868 143.78 130.698 144.62 129.228 144.62ZM145.178 143.33C145.178 144.95 146.318 146.36 148.298 146.36C151.388 146.36 152.978 143.51 152.978 143.51V144.23C152.978 145.7 153.878 146.36 155.018 146.36C156.788 146.36 158.198 144.77 158.198 144.77L157.808 144.14C157.808 144.14 156.968 144.74 156.158 144.74C155.468 144.74 155.348 144.29 155.348 143.33V136.43C155.348 133.28 154.598 132.14 151.778 132.14C148.418 132.14 146.228 133.82 146.228 133.82L146.738 136.07H147.698C147.698 136.07 148.838 133.19 150.878 133.19C151.988 133.19 152.558 134 152.768 135.11C152.918 135.95 152.918 137.69 152.888 138.32L151.868 138.47C148.748 138.95 145.178 140.45 145.178 143.33ZM149.498 144.65C148.598 144.65 147.818 143.99 147.818 142.79C147.818 140.63 150.248 139.73 151.958 139.46L152.888 139.31V142.85C152.108 143.51 150.668 144.65 149.498 144.65ZM160.747 142.43C160.747 145.16 161.947 146.36 164.077 146.36C166.687 146.36 168.397 144.5 168.397 144.5L168.007 143.93C168.007 143.93 166.657 144.56 165.307 144.56C163.717 144.56 163.207 143.6 163.207 141.86V134.24L163.507 133.94H167.647L167.857 132.5H163.177V132.05C163.177 129.92 163.447 129.05 163.447 129.05L163.357 128.96L162.007 128.93L160.897 132.2C160.177 132.86 158.857 133.13 158.857 133.13V134.03H160.837C160.837 134.03 160.747 135.11 160.747 135.98V142.43ZM177.885 142.43C177.885 145.16 179.085 146.36 181.215 146.36C183.825 146.36 185.535 144.5 185.535 144.5L185.145 143.93C185.145 143.93 183.795 144.56 182.445 144.56C180.855 144.56 180.345 143.6 180.345 141.86V134.24L180.645 133.94H184.785L184.995 132.5H180.315V132.05C180.315 129.92 180.585 129.05 180.585 129.05L180.495 128.96L179.145 128.93L178.035 132.2C177.315 132.86 175.995 133.13 175.995 133.13V134.03H177.975C177.975 134.03 177.885 135.11 177.885 135.98V142.43ZM186.516 146.09L192.966 145.91L193.086 145.16L190.686 144.89C190.686 144.89 190.836 144.17 190.836 143.27V136.01C192.096 134.81 193.926 133.97 195.306 133.97C196.506 133.97 197.376 134.57 197.376 136.85V143.27C197.376 144.35 196.896 145.07 195.666 145.22V146.09L202.116 145.91L202.236 145.16L199.686 144.89C199.686 144.89 199.836 144.17 199.836 143.27V136.19C199.836 133.28 198.486 132.14 196.416 132.14C193.896 132.14 191.796 133.82 190.716 135.38C190.716 135.14 190.836 134.54 190.836 133.16V127.34C190.836 125.03 191.136 123.92 191.136 123.92L191.046 123.83C191.046 123.83 189.666 124.43 186.216 125.18V125.99H187.476C188.346 125.99 188.376 126.74 188.376 128.03V143.27C188.376 144.35 187.866 145.07 186.516 145.22V146.09ZM203.661 139.52C203.661 143.03 205.761 146.36 210.021 146.36C213.591 146.36 215.151 143.54 215.151 143.54L214.821 142.91C214.821 142.91 213.381 144.35 210.921 144.35C207.561 144.35 206.181 141.68 206.061 138.95L206.361 138.59L213.831 137.51C214.431 137.42 215.211 137.12 215.211 137.12C215.121 133.82 212.571 132.14 209.991 132.14C206.361 132.14 203.661 135.44 203.661 139.52ZM209.541 133.28C212.181 133.28 212.421 136.7 212.421 136.7L206.121 137.51C206.391 135.26 207.531 133.28 209.541 133.28ZM224.199 139.52C224.199 143.03 226.299 146.36 230.559 146.36C234.129 146.36 235.689 143.54 235.689 143.54L235.359 142.91C235.359 142.91 233.919 144.35 231.459 144.35C228.099 144.35 226.719 141.68 226.599 138.95L226.899 138.59L234.369 137.51C234.969 137.42 235.749 137.12 235.749 137.12C235.659 133.82 233.109 132.14 230.529 132.14C226.899 132.14 224.199 135.44 224.199 139.52ZM230.079 133.28C232.719 133.28 232.959 136.7 232.959 136.7L226.659 137.51C226.929 135.26 228.069 133.28 230.079 133.28ZM245.347 146.09L251.137 145.91L251.257 145.19L249.907 145.07L245.347 138.59L248.617 134.48C249.667 133.16 250.687 132.98 250.687 132.98L250.537 132.5H245.827V133.25C247.267 133.46 247.537 134 247.057 134.66L244.717 137.63L242.707 134.66C241.927 133.52 242.287 132.5 242.287 132.5L242.167 132.38C242.167 132.38 241.087 132.5 239.077 132.5H237.637V133.25C237.637 133.25 238.867 133.37 239.887 134.84L243.097 139.4L239.407 144.02C239.077 144.41 238.507 145.1 237.337 145.22V146.09L242.317 145.91L242.437 145.16L240.157 144.89L243.727 140.36L246.277 144.05C246.787 144.8 246.667 145.16 245.347 145.16V146.09ZM252.675 153.35C254.835 152.63 259.575 152.06 259.575 152.06L259.695 151.34H256.545C256.545 151.34 256.695 150.53 256.695 149.63V146.18C257.265 146.27 257.895 146.36 258.705 146.36C263.985 146.36 266.415 142.49 266.415 138.68C266.415 135.38 264.615 132.14 260.955 132.14C258.585 132.14 257.445 133.46 256.635 134.48C256.755 132.56 256.935 131.81 256.935 131.81L256.845 131.72C256.845 131.72 255.075 132.53 252.135 133.13V133.94H253.335C254.205 133.94 254.235 134.69 254.235 135.98V149.66C254.235 151.04 254.025 151.73 252.675 152.48V153.35ZM258.855 145.22C257.865 145.22 256.695 145.01 256.695 143.6V135.14C257.625 134.42 258.705 133.88 259.875 133.88C262.545 133.88 263.805 136.67 263.805 139.55C263.805 142.97 261.975 145.22 258.855 145.22ZM268.701 139.52C268.701 143.03 270.801 146.36 275.061 146.36C278.631 146.36 280.191 143.54 280.191 143.54L279.861 142.91C279.861 142.91 278.421 144.35 275.961 144.35C272.601 144.35 271.221 141.68 271.101 138.95L271.401 138.59L278.871 137.51C279.471 137.42 280.251 137.12 280.251 137.12C280.161 133.82 277.611 132.14 275.031 132.14C271.401 132.14 268.701 135.44 268.701 139.52ZM274.581 133.28C277.221 133.28 277.461 136.7 277.461 136.7L271.161 137.51C271.431 135.26 272.571 133.28 274.581 133.28ZM282.499 146.09L288.949 145.91L289.069 145.16L286.669 144.86C286.669 144.86 286.819 144.17 286.819 143.27V136.07C288.079 134.78 289.909 133.97 291.289 133.97C292.489 133.97 293.359 134.57 293.359 136.85V143.27C293.359 144.35 292.999 145.07 291.649 145.22V146.09L298.099 145.91L298.219 145.16L295.669 144.86C295.669 144.86 295.819 144.17 295.819 143.27V136.19C295.819 133.28 294.469 132.14 292.399 132.14C289.879 132.14 287.779 133.85 286.699 135.47C286.729 132.8 286.999 131.81 286.999 131.81L286.909 131.72C286.909 131.72 285.049 132.53 282.109 133.13V133.94H283.459C284.329 133.94 284.359 134.69 284.359 135.98V143.27C284.359 144.35 283.849 145.07 282.499 145.22V146.09ZM299.697 144.32C299.697 146.03 302.817 146.36 304.197 146.36C307.047 146.36 308.997 144.92 308.997 142.43C308.997 137.69 302.157 138.26 302.157 135.08C302.157 134.15 302.787 133.16 304.407 133.16C305.037 133.16 307.107 133.31 307.107 135.77H308.037L308.637 132.68C308.637 132.68 306.687 132.14 304.887 132.14C301.707 132.14 299.997 133.73 299.997 135.95C299.997 140.3 306.867 140.09 306.867 143.3C306.867 144.56 305.847 145.34 304.377 145.34C302.937 145.34 301.167 144.59 300.987 142.04H300.087C300.087 142.04 299.697 143.72 299.697 144.32ZM311.24 139.52C311.24 143.03 313.34 146.36 317.6 146.36C321.17 146.36 322.73 143.54 322.73 143.54L322.4 142.91C322.4 142.91 320.96 144.35 318.5 144.35C315.14 144.35 313.76 141.68 313.64 138.95L313.94 138.59L321.41 137.51C322.01 137.42 322.79 137.12 322.79 137.12C322.7 133.82 320.15 132.14 317.57 132.14C313.94 132.14 311.24 135.44 311.24 139.52ZM317.12 133.28C319.76 133.28 320 136.7 320 136.7L313.7 137.51C313.97 135.26 315.11 133.28 317.12 133.28ZM331.777 139.55C331.777 143.39 334.117 146.36 338.347 146.36C343.147 146.36 345.457 142.43 345.457 138.71C345.457 135.02 343.207 132.14 338.827 132.14C333.727 132.14 331.777 136.04 331.777 139.55ZM334.537 138.86C334.537 135.98 335.707 133.16 338.467 133.16C341.497 133.16 342.697 136.58 342.697 139.55C342.697 142.76 341.317 145.34 338.767 145.34C335.767 145.34 334.537 141.86 334.537 138.86ZM347.714 146.09L354.914 145.91L355.034 145.16L351.884 144.89C351.884 144.89 352.034 144.17 352.034 143.27V134.24L352.334 133.94H356.024L356.264 132.5H352.034V130.85C352.034 126.98 352.754 125.54 354.284 125.54C355.904 125.54 356.564 127.07 357.644 127.07C358.454 127.07 358.904 126.5 358.904 125.93C358.904 124.67 357.134 124.16 355.694 124.16C351.794 124.16 349.574 127.19 349.574 131.66V132.47L347.684 133.13V134.03H349.574V143.27C349.574 144.35 349.064 145.07 347.714 145.22V146.09ZM365.766 142.43C365.766 145.16 366.966 146.36 369.096 146.36C371.706 146.36 373.416 144.5 373.416 144.5L373.026 143.93C373.026 143.93 371.676 144.56 370.326 144.56C368.736 144.56 368.226 143.6 368.226 141.86V134.24L368.526 133.94H372.666L372.876 132.5H368.196V132.05C368.196 129.92 368.466 129.05 368.466 129.05L368.376 128.96L367.026 128.93L365.916 132.2C365.196 132.86 363.876 133.13 363.876 133.13V134.03H365.856C365.856 134.03 365.766 135.11 365.766 135.98V142.43ZM374.397 146.09L380.847 145.91L380.967 145.16L378.567 144.89C378.567 144.89 378.717 144.17 378.717 143.27V136.01C379.977 134.81 381.807 133.97 383.187 133.97C384.387 133.97 385.257 134.57 385.257 136.85V143.27C385.257 144.35 384.777 145.07 383.547 145.22V146.09L389.997 145.91L390.117 145.16L387.567 144.89C387.567 144.89 387.717 144.17 387.717 143.27V136.19C387.717 133.28 386.367 132.14 384.297 132.14C381.777 132.14 379.677 133.82 378.597 135.38C378.597 135.14 378.717 134.54 378.717 133.16V127.34C378.717 125.03 379.017 123.92 379.017 123.92L378.927 123.83C378.927 123.83 377.547 124.43 374.097 125.18V125.99H375.357C376.227 125.99 376.257 126.74 376.257 128.03V143.27C376.257 144.35 375.747 145.07 374.397 145.22V146.09ZM391.542 139.52C391.542 143.03 393.642 146.36 397.902 146.36C401.472 146.36 403.032 143.54 403.032 143.54L402.702 142.91C402.702 142.91 401.262 144.35 398.802 144.35C395.442 144.35 394.062 141.68 393.942 138.95L394.242 138.59L401.712 137.51C402.312 137.42 403.092 137.12 403.092 137.12C403.002 133.82 400.452 132.14 397.872 132.14C394.242 132.14 391.542 135.44 391.542 139.52ZM397.422 133.28C400.062 133.28 400.302 136.7 400.302 136.7L394.002 137.51C394.272 135.26 395.412 133.28 397.422 133.28ZM29.11 180.85C29.11 184.12 31.06 187.36 34.75 187.36C37 187.36 38.23 186.13 39.04 184.93V185.56C39.04 186.31 38.92 187.15 38.92 187.15L39.01 187.24C39.01 187.24 40.54 187 43.81 186.67L43.9 185.86H43.06C42.07 185.86 41.38 185.86 41.38 184.15V168.34C41.38 166.03 41.68 164.92 41.68 164.92L41.59 164.83C41.59 164.83 40.21 165.43 36.76 166.18V166.99H38.02C38.89 166.99 38.92 167.74 38.92 169.03V173.32C38.92 173.32 37.87 173.14 36.79 173.14C31.66 173.14 29.11 177.07 29.11 180.85ZM35.8 185.62C33.1 185.62 31.72 182.83 31.72 179.95C31.72 176.47 33.7 174.28 36.76 174.28C37.72 174.28 38.92 174.49 38.92 175.87V184.3C38.44 184.78 37.27 185.62 35.8 185.62ZM45.3119 187.09L51.9119 186.91L52.0319 186.16L49.4819 185.89C49.4819 185.89 49.6319 185.17 49.6319 184.27V176.23C49.6319 173.8 49.9619 172.81 49.9619 172.81L49.9319 172.72C49.9319 172.72 49.3019 173.11 44.9219 174.13V174.94H46.2719C47.1419 174.94 47.1719 175.69 47.1719 176.98V184.27C47.1719 185.35 46.6619 186.07 45.3119 186.22V187.09ZM48.1319 170.08C49.0019 170.08 49.7519 169.33 49.7519 168.46C49.7519 167.59 49.0019 166.84 48.1319 166.84C47.2619 166.84 46.5119 167.59 46.5119 168.46C46.5119 169.33 47.2619 170.08 48.1319 170.08ZM53.6622 185.32C53.6622 187.03 56.7822 187.36 58.1622 187.36C61.0122 187.36 62.9622 185.92 62.9622 183.43C62.9622 178.69 56.1222 179.26 56.1222 176.08C56.1222 175.15 56.7522 174.16 58.3722 174.16C59.0022 174.16 61.0722 174.31 61.0722 176.77H62.0022L62.6022 173.68C62.6022 173.68 60.6522 173.14 58.8522 173.14C55.6722 173.14 53.9622 174.73 53.9622 176.95C53.9622 181.3 60.8322 181.09 60.8322 184.3C60.8322 185.56 59.8122 186.34 58.3422 186.34C56.9022 186.34 55.1322 185.59 54.9522 183.04H54.0522C54.0522 183.04 53.6622 184.72 53.6622 185.32ZM65.2045 180.52C65.2045 183.97 67.3645 187.36 71.5645 187.36C75.0445 187.36 76.4245 184.75 76.4245 184.75L76.0945 184.12C76.0945 184.12 74.8645 185.35 72.6145 185.35C69.0745 185.35 67.6645 182.53 67.6645 179.65C67.6645 176.74 69.0145 174.16 71.4145 174.16C73.5145 174.16 73.6945 176.5 75.2245 176.5C75.9445 176.5 76.3645 175.99 76.3645 175.42C76.3645 173.86 73.4545 173.14 71.6245 173.14C67.4845 173.14 65.2045 176.89 65.2045 180.52ZM78.4466 180.55C78.4466 184.39 80.7866 187.36 85.0166 187.36C89.8166 187.36 92.1266 183.43 92.1266 179.71C92.1266 176.02 89.8766 173.14 85.4966 173.14C80.3966 173.14 78.4466 177.04 78.4466 180.55ZM81.2066 179.86C81.2066 176.98 82.3766 174.16 85.1366 174.16C88.1666 174.16 89.3666 177.58 89.3666 180.55C89.3666 183.76 87.9866 186.34 85.4366 186.34C82.4366 186.34 81.2066 182.86 81.2066 179.86ZM99.2734 187L100.533 187.39L105.783 175.54C106.413 174.16 106.863 173.98 106.863 173.98L106.713 173.5H102.663V174.25C103.803 174.52 104.733 175.12 104.163 176.44L100.623 184.45C100.473 183.88 100.263 183.13 100.083 182.59L97.8034 176.26C97.4734 175.36 97.4734 174.31 97.8334 173.5L97.7134 173.38C97.7134 173.38 96.6034 173.5 94.7134 173.5H93.3334V174.25C93.3334 174.25 94.3834 174.46 94.9834 175.99L99.2734 187ZM108.124 180.52C108.124 184.03 110.224 187.36 114.484 187.36C118.054 187.36 119.614 184.54 119.614 184.54L119.284 183.91C119.284 183.91 117.844 185.35 115.384 185.35C112.024 185.35 110.644 182.68 110.524 179.95L110.824 179.59L118.294 178.51C118.894 178.42 119.674 178.12 119.674 178.12C119.584 174.82 117.034 173.14 114.454 173.14C110.824 173.14 108.124 176.44 108.124 180.52ZM114.004 174.28C116.644 174.28 116.884 177.7 116.884 177.7L110.584 178.51C110.854 176.26 111.994 174.28 114.004 174.28ZM121.923 187.09L128.823 186.91L128.943 186.16L126.093 185.89C126.093 185.89 126.243 185.17 126.243 184.27V177.22C126.903 176.47 127.893 175.48 128.913 175.48C129.603 175.48 129.693 175.99 130.383 175.99C131.163 175.99 131.793 175.42 131.793 174.52C131.793 173.5 130.893 173.14 130.173 173.14C128.613 173.14 127.023 174.94 126.123 176.62C126.213 173.8 126.483 172.81 126.483 172.81L126.393 172.72C126.393 172.72 124.473 173.53 121.533 174.13V174.94H122.883C123.753 174.94 123.783 175.69 123.783 176.98V184.27C123.783 185.35 123.273 186.07 121.923 186.22V187.09ZM132.873 184.33C132.873 185.95 134.013 187.36 135.993 187.36C139.083 187.36 140.673 184.51 140.673 184.51V185.23C140.673 186.7 141.573 187.36 142.713 187.36C144.483 187.36 145.893 185.77 145.893 185.77L145.503 185.14C145.503 185.14 144.663 185.74 143.853 185.74C143.163 185.74 143.043 185.29 143.043 184.33V177.43C143.043 174.28 142.293 173.14 139.473 173.14C136.113 173.14 133.923 174.82 133.923 174.82L134.433 177.07H135.393C135.393 177.07 136.533 174.19 138.573 174.19C139.683 174.19 140.253 175 140.463 176.11C140.613 176.95 140.613 178.69 140.583 179.32L139.563 179.47C136.443 179.95 132.873 181.45 132.873 184.33ZM137.193 185.65C136.293 185.65 135.513 184.99 135.513 183.79C135.513 181.63 137.943 180.73 139.653 180.46L140.583 180.31V183.85C139.803 184.51 138.363 185.65 137.193 185.65ZM150.572 185.8V175.99C151.022 175.57 152.252 174.88 153.572 174.88C156.272 174.88 157.652 177.67 157.652 180.55C157.652 183.97 155.672 186.22 152.762 186.22C151.502 186.22 150.572 185.8 150.572 185.8ZM147.842 186.91L147.932 187C148.982 187 150.902 187.36 152.522 187.36C157.772 187.36 160.262 183.46 160.262 179.68C160.262 176.38 158.372 173.14 154.712 173.14C152.462 173.14 151.262 174.37 150.452 175.36C150.452 175.12 150.572 174.52 150.572 173.14V168.34C150.572 166.03 150.872 164.92 150.872 164.92L150.782 164.83C150.782 164.83 149.402 165.43 145.952 166.18V166.99H147.212C148.082 166.99 148.112 167.74 148.112 169.03V183.91C148.112 185.59 147.842 186.91 147.842 186.91ZM162.529 187.09L169.129 186.91L169.249 186.16L166.699 185.89C166.699 185.89 166.849 185.17 166.849 184.27V176.23C166.849 173.8 167.179 172.81 167.179 172.81L167.149 172.72C167.149 172.72 166.519 173.11 162.139 174.13V174.94H163.489C164.359 174.94 164.389 175.69 164.389 176.98V184.27C164.389 185.35 163.879 186.07 162.529 186.22V187.09ZM165.349 170.08C166.219 170.08 166.969 169.33 166.969 168.46C166.969 167.59 166.219 166.84 165.349 166.84C164.479 166.84 163.729 167.59 163.729 168.46C163.729 169.33 164.479 170.08 165.349 170.08ZM170.549 187.09L177.149 186.91L177.269 186.16L174.719 185.89C174.719 185.89 174.869 185.17 174.869 184.27V168.34C174.869 166.03 175.169 164.92 175.169 164.92L175.079 164.83C175.079 164.83 173.699 165.43 170.249 166.18V166.99H171.509C172.379 166.99 172.409 167.74 172.409 169.03V184.27C172.409 185.35 171.899 186.07 170.549 186.22V187.09ZM178.847 187.09L185.447 186.91L185.567 186.16L183.017 185.89C183.017 185.89 183.167 185.17 183.167 184.27V176.23C183.167 173.8 183.497 172.81 183.497 172.81L183.467 172.72C183.467 172.72 182.837 173.11 178.457 174.13V174.94H179.807C180.677 174.94 180.707 175.69 180.707 176.98V184.27C180.707 185.35 180.197 186.07 178.847 186.22V187.09ZM181.667 170.08C182.537 170.08 183.287 169.33 183.287 168.46C183.287 167.59 182.537 166.84 181.667 166.84C180.797 166.84 180.047 167.59 180.047 168.46C180.047 169.33 180.797 170.08 181.667 170.08ZM188.637 183.43C188.637 186.16 189.837 187.36 191.967 187.36C194.577 187.36 196.287 185.5 196.287 185.5L195.897 184.93C195.897 184.93 194.547 185.56 193.197 185.56C191.607 185.56 191.097 184.6 191.097 182.86V175.24L191.397 174.94H195.537L195.747 173.5H191.067V173.05C191.067 170.92 191.337 170.05 191.337 170.05L191.247 169.96L189.897 169.93L188.787 173.2C188.067 173.86 186.747 174.13 186.747 174.13V175.03H188.727C188.727 175.03 188.637 176.11 188.637 176.98V183.43ZM198.558 191.62C197.478 191.62 197.088 192.25 197.088 192.85C197.088 193.51 197.538 194.11 198.408 194.11C201.288 194.11 202.998 189.16 203.808 187.36L208.998 175.57C209.538 174.28 210.078 173.98 210.078 173.98L209.928 173.5H205.758V174.25C206.868 174.55 207.918 175.21 207.408 176.41L204.018 184.15C203.868 183.61 203.628 182.86 203.448 182.35L201.018 176.26C200.688 175.45 200.688 174.22 201.048 173.5L200.928 173.38C200.928 173.38 199.758 173.5 197.868 173.5H196.458V174.25C196.458 174.25 197.508 174.49 198.138 175.99L201.978 185.17C202.308 186.01 202.548 186.7 202.698 187.12L201.738 189.37C201.198 190.6 200.148 191.62 198.558 191.62ZM218.134 180.55C218.134 184.39 220.474 187.36 224.704 187.36C229.504 187.36 231.814 183.43 231.814 179.71C231.814 176.02 229.564 173.14 225.184 173.14C220.084 173.14 218.134 177.04 218.134 180.55ZM220.894 179.86C220.894 176.98 222.064 174.16 224.824 174.16C227.854 174.16 229.054 177.58 229.054 180.55C229.054 183.76 227.674 186.34 225.124 186.34C222.124 186.34 220.894 182.86 220.894 179.86ZM234.071 187.09L241.271 186.91L241.391 186.16L238.241 185.89C238.241 185.89 238.391 185.17 238.391 184.27V175.24L238.691 174.94H242.381L242.621 173.5H238.391V171.85C238.391 167.98 239.111 166.54 240.641 166.54C242.261 166.54 242.921 168.07 244.001 168.07C244.811 168.07 245.261 167.5 245.261 166.93C245.261 165.67 243.491 165.16 242.051 165.16C238.151 165.16 235.931 168.19 235.931 172.66V173.47L234.041 174.13V175.03H235.931V184.27C235.931 185.35 235.421 186.07 234.071 186.22V187.09ZM250.654 180.52C250.654 183.97 252.814 187.36 257.014 187.36C260.494 187.36 261.874 184.75 261.874 184.75L261.544 184.12C261.544 184.12 260.314 185.35 258.064 185.35C254.524 185.35 253.114 182.53 253.114 179.65C253.114 176.74 254.464 174.16 256.864 174.16C258.964 174.16 259.144 176.5 260.674 176.5C261.394 176.5 261.814 175.99 261.814 175.42C261.814 173.86 258.904 173.14 257.074 173.14C252.934 173.14 250.654 176.89 250.654 180.52ZM263.896 187.09L270.796 186.91L270.916 186.16L268.066 185.89C268.066 185.89 268.216 185.17 268.216 184.27V177.22C268.876 176.47 269.866 175.48 270.886 175.48C271.576 175.48 271.666 175.99 272.356 175.99C273.136 175.99 273.766 175.42 273.766 174.52C273.766 173.5 272.866 173.14 272.146 173.14C270.586 173.14 268.996 174.94 268.096 176.62C268.186 173.8 268.456 172.81 268.456 172.81L268.366 172.72C268.366 172.72 266.446 173.53 263.506 174.13V174.94H264.856C265.726 174.94 265.756 175.69 265.756 176.98V184.27C265.756 185.35 265.246 186.07 263.896 186.22V187.09ZM275.146 187.09L281.746 186.91L281.866 186.16L279.316 185.89C279.316 185.89 279.466 185.17 279.466 184.27V176.23C279.466 173.8 279.796 172.81 279.796 172.81L279.766 172.72C279.766 172.72 279.136 173.11 274.756 174.13V174.94H276.106C276.976 174.94 277.006 175.69 277.006 176.98V184.27C277.006 185.35 276.496 186.07 275.146 186.22V187.09ZM277.966 170.08C278.836 170.08 279.586 169.33 279.586 168.46C279.586 167.59 278.836 166.84 277.966 166.84C277.096 166.84 276.346 167.59 276.346 168.46C276.346 169.33 277.096 170.08 277.966 170.08ZM284.936 183.43C284.936 186.16 286.136 187.36 288.266 187.36C290.876 187.36 292.586 185.5 292.586 185.5L292.196 184.93C292.196 184.93 290.846 185.56 289.496 185.56C287.906 185.56 287.396 184.6 287.396 182.86V175.24L287.696 174.94H291.836L292.046 173.5H287.366V173.05C287.366 170.92 287.636 170.05 287.636 170.05L287.546 169.96L286.196 169.93L285.086 173.2C284.366 173.86 283.046 174.13 283.046 174.13V175.03H285.026C285.026 175.03 284.936 176.11 284.936 176.98V183.43ZM293.867 187.09L300.467 186.91L300.587 186.16L298.037 185.89C298.037 185.89 298.187 185.17 298.187 184.27V176.23C298.187 173.8 298.517 172.81 298.517 172.81L298.487 172.72C298.487 172.72 297.857 173.11 293.477 174.13V174.94H294.827C295.697 174.94 295.727 175.69 295.727 176.98V184.27C295.727 185.35 295.217 186.07 293.867 186.22V187.09ZM296.687 170.08C297.557 170.08 298.307 169.33 298.307 168.46C298.307 167.59 297.557 166.84 296.687 166.84C295.817 166.84 295.067 167.59 295.067 168.46C295.067 169.33 295.817 170.08 296.687 170.08ZM302.099 180.52C302.099 183.97 304.259 187.36 308.459 187.36C311.939 187.36 313.319 184.75 313.319 184.75L312.989 184.12C312.989 184.12 311.759 185.35 309.509 185.35C305.969 185.35 304.559 182.53 304.559 179.65C304.559 176.74 305.909 174.16 308.309 174.16C310.409 174.16 310.589 176.5 312.119 176.5C312.839 176.5 313.259 175.99 313.259 175.42C313.259 173.86 310.349 173.14 308.519 173.14C304.379 173.14 302.099 176.89 302.099 180.52ZM315.041 184.33C315.041 185.95 316.181 187.36 318.161 187.36C321.251 187.36 322.841 184.51 322.841 184.51V185.23C322.841 186.7 323.741 187.36 324.881 187.36C326.651 187.36 328.061 185.77 328.061 185.77L327.671 185.14C327.671 185.14 326.831 185.74 326.021 185.74C325.331 185.74 325.211 185.29 325.211 184.33V177.43C325.211 174.28 324.461 173.14 321.641 173.14C318.281 173.14 316.091 174.82 316.091 174.82L316.601 177.07H317.561C317.561 177.07 318.701 174.19 320.741 174.19C321.851 174.19 322.421 175 322.631 176.11C322.781 176.95 322.781 178.69 322.751 179.32L321.731 179.47C318.611 179.95 315.041 181.45 315.041 184.33ZM319.361 185.65C318.461 185.65 317.681 184.99 317.681 183.79C317.681 181.63 320.111 180.73 321.821 180.46L322.751 180.31V183.85C321.971 184.51 320.531 185.65 319.361 185.65ZM328.84 187.09L335.44 186.91L335.56 186.16L333.01 185.89C333.01 185.89 333.16 185.17 333.16 184.27V168.34C333.16 166.03 333.46 164.92 333.46 164.92L333.37 164.83C333.37 164.83 331.99 165.43 328.54 166.18V166.99H329.8C330.67 166.99 330.7 167.74 330.7 169.03V184.27C330.7 185.35 330.19 186.07 328.84 186.22V187.09ZM343.846 187.09L351.046 186.91L351.166 186.16L348.016 185.89C348.016 185.89 348.166 185.17 348.166 184.27V175.24L348.466 174.94H352.156L352.396 173.5H348.166V171.85C348.166 167.98 348.886 166.54 350.416 166.54C352.036 166.54 352.696 168.07 353.776 168.07C354.586 168.07 355.036 167.5 355.036 166.93C355.036 165.67 353.266 165.16 351.826 165.16C347.926 165.16 345.706 168.19 345.706 172.66V173.47L343.816 174.13V175.03H345.706V184.27C345.706 185.35 345.196 186.07 343.846 186.22V187.09ZM352.988 180.52C352.988 184.03 355.088 187.36 359.348 187.36C362.918 187.36 364.478 184.54 364.478 184.54L364.148 183.91C364.148 183.91 362.708 185.35 360.248 185.35C356.888 185.35 355.508 182.68 355.388 179.95L355.688 179.59L363.158 178.51C363.758 178.42 364.538 178.12 364.538 178.12C364.448 174.82 361.898 173.14 359.318 173.14C355.688 173.14 352.988 176.44 352.988 180.52ZM358.868 174.28C361.508 174.28 361.748 177.7 361.748 177.7L355.448 178.51C355.718 176.26 356.858 174.28 358.868 174.28ZM366.486 184.33C366.486 185.95 367.626 187.36 369.606 187.36C372.696 187.36 374.286 184.51 374.286 184.51V185.23C374.286 186.7 375.186 187.36 376.326 187.36C378.096 187.36 379.506 185.77 379.506 185.77L379.116 185.14C379.116 185.14 378.276 185.74 377.466 185.74C376.776 185.74 376.656 185.29 376.656 184.33V177.43C376.656 174.28 375.906 173.14 373.086 173.14C369.726 173.14 367.536 174.82 367.536 174.82L368.046 177.07H369.006C369.006 177.07 370.146 174.19 372.186 174.19C373.296 174.19 373.866 175 374.076 176.11C374.226 176.95 374.226 178.69 374.196 179.32L373.176 179.47C370.056 179.95 366.486 181.45 366.486 184.33ZM370.806 185.65C369.906 185.65 369.126 184.99 369.126 183.79C369.126 181.63 371.556 180.73 373.266 180.46L374.196 180.31V183.85C373.416 184.51 371.976 185.65 370.806 185.65ZM382.055 183.43C382.055 186.16 383.255 187.36 385.385 187.36C387.995 187.36 389.705 185.5 389.705 185.5L389.315 184.93C389.315 184.93 387.965 185.56 386.615 185.56C385.025 185.56 384.515 184.6 384.515 182.86V175.24L384.815 174.94H388.955L389.165 173.5H384.485V173.05C384.485 170.92 384.755 170.05 384.755 170.05L384.665 169.96L383.315 169.93L382.205 173.2C381.485 173.86 380.165 174.13 380.165 174.13V175.03H382.145C382.145 175.03 382.055 176.11 382.055 176.98V183.43ZM392.426 183.34C392.426 186.22 393.716 187.36 395.816 187.36C398.336 187.36 400.316 185.59 401.396 184V185.56C401.396 186.31 401.126 187.18 401.126 187.18L401.246 187.27C401.246 187.27 402.896 187 406.166 186.67L406.256 185.86H405.416C404.426 185.86 403.736 185.86 403.736 184.15V176.23C403.736 173.92 404.006 173.08 404.006 173.08L403.886 172.99C403.886 172.99 402.266 173.59 399.386 174.1V174.94H400.376C401.246 174.94 401.276 175.69 401.276 176.98V183.4C399.986 184.72 398.306 185.53 396.926 185.53C395.696 185.53 394.886 184.93 394.886 182.65V176.23C394.886 173.92 395.156 173.08 395.156 173.08L395.036 172.99C395.036 172.99 393.386 173.59 390.476 174.1V174.94H391.526C392.396 174.94 392.426 175.69 392.426 176.98V183.34ZM407.744 187.09L414.644 186.91L414.764 186.16L411.914 185.89C411.914 185.89 412.064 185.17 412.064 184.27V177.22C412.724 176.47 413.714 175.48 414.734 175.48C415.424 175.48 415.514 175.99 416.204 175.99C416.984 175.99 417.614 175.42 417.614 174.52C417.614 173.5 416.714 173.14 415.994 173.14C414.434 173.14 412.844 174.94 411.944 176.62C412.034 173.8 412.304 172.81 412.304 172.81L412.214 172.72C412.214 172.72 410.294 173.53 407.354 174.13V174.94H408.704C409.574 174.94 409.604 175.69 409.604 176.98V184.27C409.604 185.35 409.094 186.07 407.744 186.22V187.09ZM418.876 180.52C418.876 184.03 420.976 187.36 425.236 187.36C428.806 187.36 430.366 184.54 430.366 184.54L430.036 183.91C430.036 183.91 428.596 185.35 426.136 185.35C422.776 185.35 421.396 182.68 421.276 179.95L421.576 179.59L429.046 178.51C429.646 178.42 430.426 178.12 430.426 178.12C430.336 174.82 427.786 173.14 425.206 173.14C421.576 173.14 418.876 176.44 418.876 180.52ZM424.756 174.28C427.396 174.28 427.636 177.7 427.636 177.7L421.336 178.51C421.606 176.26 422.746 174.28 424.756 174.28ZM432.705 185.32C432.705 187.03 435.825 187.36 437.205 187.36C440.055 187.36 442.005 185.92 442.005 183.43C442.005 178.69 435.165 179.26 435.165 176.08C435.165 175.15 435.795 174.16 437.415 174.16C438.045 174.16 440.115 174.31 440.115 176.77H441.045L441.645 173.68C441.645 173.68 439.695 173.14 437.895 173.14C434.715 173.14 433.005 174.73 433.005 176.95C433.005 181.3 439.875 181.09 439.875 184.3C439.875 185.56 438.855 186.34 437.385 186.34C435.945 186.34 434.175 185.59 433.995 183.04H433.095C433.095 183.04 432.705 184.72 432.705 185.32Z" fill="#333333"/>
</svg>
