<svg width="472" height="264" viewBox="0 0 472 264" fill="none" xmlns="http://www.w3.org/2000/svg">
<path d="M3 3H469V261H3V3Z" fill="white" stroke="#1342E7" stroke-width="6"/>
<path d="M35.11 33.778C31.51 33.778 28.864 36.478 28.864 40.006C28.864 43.534 31.51 46.234 35.11 46.234C38.71 46.234 41.356 43.534 41.356 40.006C41.356 36.478 38.71 33.778 35.11 33.778ZM35.11 44.542C32.536 44.542 30.7 42.67 30.7 40.006C30.7 37.342 32.536 35.47 35.11 35.47C37.684 35.47 39.52 37.342 39.52 40.006C39.52 42.67 37.684 44.542 35.11 44.542ZM44.3807 33.994V46H46.2167V41.086H46.5407L49.9787 46H52.1927L48.4487 40.87C50.0507 40.51 51.1127 39.25 51.1127 37.522C51.1127 37 51.0047 35.578 49.6907 34.696C48.9167 34.174 47.9807 33.994 46.5227 33.994H44.3807ZM46.2167 35.686H46.8467C47.7467 35.686 49.3487 35.848 49.3487 37.54C49.3487 39.448 47.2967 39.502 46.7927 39.502H46.2167V35.686ZM54.7159 33.994V46H56.5519V33.994H54.7159ZM66.3569 41.446H69.3449C69.2729 42.13 69.0029 42.832 68.3369 43.48C67.5629 44.236 66.6989 44.542 65.6549 44.542C64.5029 44.542 63.4769 44.218 62.6489 43.336C61.8569 42.49 61.4069 41.284 61.4069 40.078C61.4069 38.782 61.8929 37.504 62.6849 36.712C63.2789 36.118 64.2869 35.47 65.8529 35.47C66.5909 35.47 67.3109 35.596 67.9769 35.992C68.5529 36.316 69.0929 36.856 69.4529 37.36L70.9109 36.334C70.5689 35.794 69.9569 35.092 68.9669 34.534C68.0309 34.012 66.9149 33.778 65.8349 33.778C63.9809 33.778 62.3429 34.534 61.3169 35.578C60.3269 36.568 59.5709 38.188 59.5709 40.06C59.5709 41.788 60.1829 43.39 61.3529 44.596C62.4509 45.73 63.6929 46.234 65.4389 46.234C66.8069 46.234 68.2829 45.91 69.5249 44.704C70.6949 43.57 71.3069 41.896 71.3069 39.844V39.754H66.3569V41.446ZM74.3317 33.994V46H76.1677V33.994H74.3317ZM81.5987 46V37.612L90.3107 46.738V33.994H88.4747V42.31L79.7627 33.184V46H81.5987ZM104.504 33.778C100.904 33.778 98.2575 36.478 98.2575 40.006C98.2575 43.534 100.904 46.234 104.504 46.234C108.104 46.234 110.75 43.534 110.75 40.006C110.75 36.478 108.104 33.778 104.504 33.778ZM104.504 44.542C101.93 44.542 100.094 42.67 100.094 40.006C100.094 37.342 101.93 35.47 104.504 35.47C107.078 35.47 108.914 37.342 108.914 40.006C108.914 42.67 107.078 44.542 104.504 44.542ZM119.523 33.994H113.511V46H115.347V40.492H119.379V38.764H115.347V35.722H119.523V33.994ZM127.255 33.994V46H129.091V41.122H129.919C130.801 41.122 131.899 40.996 132.853 40.186C133.843 39.34 134.023 38.26 134.023 37.558C134.023 36.46 133.537 35.308 132.529 34.642C131.665 34.066 130.639 33.994 129.901 33.994H127.255ZM129.091 35.686H129.901C131.989 35.686 132.259 36.874 132.259 37.54C132.259 38.656 131.503 39.43 129.919 39.43H129.091V35.686ZM144.395 46H146.375L140.687 33.292L134.711 46H136.691L138.005 43.102H143.135L144.395 46ZM138.761 41.374L140.615 37.306L142.397 41.374H138.761ZM148.611 33.994V46H150.447V33.994H148.611ZM155.878 46V37.612L164.59 46.738V33.994H162.754V42.31L154.042 33.184V46H155.878ZM173.113 33.994V46H174.949V41.122H175.777C176.659 41.122 177.757 40.996 178.711 40.186C179.701 39.34 179.881 38.26 179.881 37.558C179.881 36.46 179.395 35.308 178.387 34.642C177.523 34.066 176.497 33.994 175.759 33.994H173.113ZM174.949 35.686H175.759C177.847 35.686 178.117 36.874 178.117 37.54C178.117 38.656 177.361 39.43 175.777 39.43H174.949V35.686ZM188.151 33.778C184.551 33.778 181.905 36.478 181.905 40.006C181.905 43.534 184.551 46.234 188.151 46.234C191.751 46.234 194.397 43.534 194.397 40.006C194.397 36.478 191.751 33.778 188.151 33.778ZM188.151 44.542C185.577 44.542 183.741 42.67 183.741 40.006C183.741 37.342 185.577 35.47 188.151 35.47C190.725 35.47 192.561 37.342 192.561 40.006C192.561 42.67 190.725 44.542 188.151 44.542ZM197.422 33.994V46H199.258V33.994H197.422ZM204.689 46V37.612L213.401 46.738V33.994H211.565V42.31L202.853 33.184V46H204.689ZM223.087 35.722V33.994H215.743V35.722H218.497V46H220.333V35.722H223.087ZM233.403 46H235.239V33.994H232.323L231.315 35.686H233.403V46ZM27.61 106H33.16L33.28 105.16L30.73 104.8L32.8 99.4L33.19 99.1H40.36L42.19 103.9C42.52 104.8 41.77 105.04 40.93 105.07V106.09C40.93 106.09 44.38 106 45.49 106H46.78L46.9 105.19C45.97 105.04 45.43 104.89 44.62 102.85L37.96 85.81L36.73 86.08L29.62 103.78C29.38 104.38 28.87 105.01 27.61 105.13V106ZM37.3 91L39.88 97.84H33.37L36.7 89.17C36.82 89.62 37.06 90.4 37.3 91ZM54.5997 104.32C54.5997 106.03 57.7197 106.36 59.0997 106.36C61.9497 106.36 63.8997 104.92 63.8997 102.43C63.8997 97.69 57.0597 98.26 57.0597 95.08C57.0597 94.15 57.6897 93.16 59.3097 93.16C59.9397 93.16 62.0097 93.31 62.0097 95.77H62.9397L63.5397 92.68C63.5397 92.68 61.5897 92.14 59.7897 92.14C56.6097 92.14 54.8997 93.73 54.8997 95.95C54.8997 100.3 61.7697 100.09 61.7697 103.3C61.7697 104.56 60.7497 105.34 59.2797 105.34C57.8397 105.34 56.0697 104.59 55.8897 102.04H54.9897C54.9897 102.04 54.5997 103.72 54.5997 104.32ZM67.132 110.62C66.052 110.62 65.662 111.25 65.662 111.85C65.662 112.51 66.112 113.11 66.982 113.11C69.862 113.11 71.572 108.16 72.382 106.36L77.572 94.57C78.112 93.28 78.652 92.98 78.652 92.98L78.502 92.5H74.332V93.25C75.442 93.55 76.492 94.21 75.982 95.41L72.592 103.15C72.442 102.61 72.202 101.86 72.022 101.35L69.592 95.26C69.262 94.45 69.262 93.22 69.622 92.5L69.502 92.38C69.502 92.38 68.332 92.5 66.442 92.5H65.032V93.25C65.032 93.25 66.082 93.49 66.712 94.99L70.552 104.17C70.882 105.01 71.122 105.7 71.272 106.12L70.312 108.37C69.772 109.6 68.722 110.62 67.132 110.62ZM80.0001 104.32C80.0001 106.03 83.1201 106.36 84.5001 106.36C87.3501 106.36 89.3001 104.92 89.3001 102.43C89.3001 97.69 82.4601 98.26 82.4601 95.08C82.4601 94.15 83.0901 93.16 84.7101 93.16C85.3401 93.16 87.4101 93.31 87.4101 95.77H88.3401L88.9401 92.68C88.9401 92.68 86.9901 92.14 85.1901 92.14C82.0101 92.14 80.3001 93.73 80.3001 95.95C80.3001 100.3 87.1701 100.09 87.1701 103.3C87.1701 104.56 86.1501 105.34 84.6801 105.34C83.2401 105.34 81.4701 104.59 81.2901 102.04H80.3901C80.3901 102.04 80.0001 103.72 80.0001 104.32ZM93.0123 102.43C93.0123 105.16 94.2123 106.36 96.3423 106.36C98.9523 106.36 100.662 104.5 100.662 104.5L100.272 103.93C100.272 103.93 98.9223 104.56 97.5723 104.56C95.9823 104.56 95.4723 103.6 95.4723 101.86V94.24L95.7723 93.94H99.9123L100.122 92.5H95.4423V92.05C95.4423 89.92 95.7123 89.05 95.7123 89.05L95.6223 88.96L94.2723 88.93L93.1623 92.2C92.4423 92.86 91.1223 93.13 91.1223 93.13V94.03H93.1023C93.1023 94.03 93.0123 95.11 93.0123 95.98V102.43ZM101.943 99.52C101.943 103.03 104.043 106.36 108.303 106.36C111.873 106.36 113.433 103.54 113.433 103.54L113.103 102.91C113.103 102.91 111.663 104.35 109.203 104.35C105.843 104.35 104.463 101.68 104.343 98.95L104.643 98.59L112.113 97.51C112.713 97.42 113.493 97.12 113.493 97.12C113.403 93.82 110.853 92.14 108.273 92.14C104.643 92.14 101.943 95.44 101.943 99.52ZM107.823 93.28C110.463 93.28 110.703 96.7 110.703 96.7L104.403 97.51C104.673 95.26 105.813 93.28 107.823 93.28ZM115.712 106.09L122.162 105.91L122.282 105.16L119.882 104.89C119.882 104.89 120.032 104.17 120.032 103.27V96.07C121.322 94.78 123.002 93.97 124.352 93.97C125.492 93.97 126.122 94.57 126.122 96.85V103.27C126.122 104.35 125.762 105.07 124.412 105.22V106.09L130.712 105.91L130.832 105.16L128.432 104.89C128.432 104.89 128.582 104.17 128.582 103.27V96.94C128.582 95.2 131.642 93.97 132.992 93.97C134.102 93.97 134.732 94.57 134.732 96.85V103.27C134.732 104.35 134.372 105.07 133.022 105.22V106.09L139.472 105.91L139.592 105.16L137.042 104.89C137.042 104.89 137.192 104.17 137.192 103.27V96.19C137.192 93.19 135.932 92.14 133.982 92.14C131.612 92.14 129.632 93.79 128.492 95.59C128.492 93.22 127.262 92.14 125.342 92.14C122.912 92.14 120.992 93.88 119.912 95.44C120.002 92.77 120.272 91.81 120.272 91.81L120.182 91.72C120.182 91.72 118.322 92.53 115.382 93.13V93.94H116.672C117.542 93.94 117.572 94.69 117.572 95.98V103.27C117.572 104.35 117.062 105.07 115.712 105.22V106.09ZM149.262 102.43C149.262 105.16 150.462 106.36 152.592 106.36C155.202 106.36 156.912 104.5 156.912 104.5L156.522 103.93C156.522 103.93 155.172 104.56 153.822 104.56C152.232 104.56 151.722 103.6 151.722 101.86V94.24L152.022 93.94H156.162L156.372 92.5H151.692V92.05C151.692 89.92 151.962 89.05 151.962 89.05L151.872 88.96L150.522 88.93L149.412 92.2C148.692 92.86 147.372 93.13 147.372 93.13V94.03H149.352C149.352 94.03 149.262 95.11 149.262 95.98V102.43ZM157.893 106.09L164.343 105.91L164.463 105.16L162.063 104.89C162.063 104.89 162.213 104.17 162.213 103.27V96.01C163.473 94.81 165.303 93.97 166.683 93.97C167.883 93.97 168.753 94.57 168.753 96.85V103.27C168.753 104.35 168.273 105.07 167.043 105.22V106.09L173.493 105.91L173.613 105.16L171.063 104.89C171.063 104.89 171.213 104.17 171.213 103.27V96.19C171.213 93.28 169.863 92.14 167.793 92.14C165.273 92.14 163.173 93.82 162.093 95.38C162.093 95.14 162.213 94.54 162.213 93.16V87.34C162.213 85.03 162.513 83.92 162.513 83.92L162.423 83.83C162.423 83.83 161.043 84.43 157.593 85.18V85.99H158.853C159.723 85.99 159.753 86.74 159.753 88.03V103.27C159.753 104.35 159.243 105.07 157.893 105.22V106.09ZM174.738 103.33C174.738 104.95 175.878 106.36 177.858 106.36C180.948 106.36 182.538 103.51 182.538 103.51V104.23C182.538 105.7 183.438 106.36 184.578 106.36C186.348 106.36 187.758 104.77 187.758 104.77L187.368 104.14C187.368 104.14 186.528 104.74 185.718 104.74C185.028 104.74 184.908 104.29 184.908 103.33V96.43C184.908 93.28 184.158 92.14 181.338 92.14C177.978 92.14 175.788 93.82 175.788 93.82L176.298 96.07H177.258C177.258 96.07 178.398 93.19 180.438 93.19C181.548 93.19 182.118 94 182.328 95.11C182.478 95.95 182.478 97.69 182.448 98.32L181.428 98.47C178.308 98.95 174.738 100.45 174.738 103.33ZM179.058 104.65C178.158 104.65 177.378 103.99 177.378 102.79C177.378 100.63 179.808 99.73 181.518 99.46L182.448 99.31V102.85C181.668 103.51 180.228 104.65 179.058 104.65ZM190.307 102.43C190.307 105.16 191.507 106.36 193.637 106.36C196.247 106.36 197.957 104.5 197.957 104.5L197.567 103.93C197.567 103.93 196.217 104.56 194.867 104.56C193.277 104.56 192.767 103.6 192.767 101.86V94.24L193.067 93.94H197.207L197.417 92.5H192.737V92.05C192.737 89.92 193.007 89.05 193.007 89.05L192.917 88.96L191.567 88.93L190.457 92.2C189.737 92.86 188.417 93.13 188.417 93.13V94.03H190.397C190.397 94.03 190.307 95.11 190.307 95.98V102.43ZM209.576 104.8V94.99C210.026 94.57 211.256 93.88 212.576 93.88C215.276 93.88 216.656 96.67 216.656 99.55C216.656 102.97 214.676 105.22 211.766 105.22C210.506 105.22 209.576 104.8 209.576 104.8ZM206.846 105.91L206.936 106C207.986 106 209.906 106.36 211.526 106.36C216.776 106.36 219.266 102.46 219.266 98.68C219.266 95.38 217.376 92.14 213.716 92.14C211.466 92.14 210.266 93.37 209.456 94.36C209.456 94.12 209.576 93.52 209.576 92.14V87.34C209.576 85.03 209.876 83.92 209.876 83.92L209.786 83.83C209.786 83.83 208.406 84.43 204.956 85.18V85.99H206.216C207.086 85.99 207.116 86.74 207.116 88.03V102.91C207.116 104.59 206.846 105.91 206.846 105.91ZM221.533 99.52C221.533 103.03 223.633 106.36 227.893 106.36C231.463 106.36 233.023 103.54 233.023 103.54L232.693 102.91C232.693 102.91 231.253 104.35 228.793 104.35C225.433 104.35 224.053 101.68 223.933 98.95L224.233 98.59L231.703 97.51C232.303 97.42 233.083 97.12 233.083 97.12C232.993 93.82 230.443 92.14 227.863 92.14C224.233 92.14 221.533 95.44 221.533 99.52ZM227.413 93.28C230.053 93.28 230.293 96.7 230.293 96.7L223.993 97.51C224.263 95.26 225.403 93.28 227.413 93.28ZM235.031 106.09L241.481 105.91L241.601 105.16L239.201 104.89C239.201 104.89 239.351 104.17 239.351 103.27V96.01C240.611 94.81 242.441 93.97 243.821 93.97C245.021 93.97 245.891 94.57 245.891 96.85V103.27C245.891 104.35 245.411 105.07 244.181 105.22V106.09L250.631 105.91L250.751 105.16L248.201 104.89C248.201 104.89 248.351 104.17 248.351 103.27V96.19C248.351 93.28 247.001 92.14 244.931 92.14C242.411 92.14 240.311 93.82 239.231 95.38C239.231 95.14 239.351 94.54 239.351 93.16V87.34C239.351 85.03 239.651 83.92 239.651 83.92L239.561 83.83C239.561 83.83 238.181 84.43 234.731 85.18V85.99H235.991C236.861 85.99 236.891 86.74 236.891 88.03V103.27C236.891 104.35 236.381 105.07 235.031 105.22V106.09ZM251.877 103.33C251.877 104.95 253.017 106.36 254.997 106.36C258.087 106.36 259.677 103.51 259.677 103.51V104.23C259.677 105.7 260.577 106.36 261.717 106.36C263.487 106.36 264.897 104.77 264.897 104.77L264.507 104.14C264.507 104.14 263.667 104.74 262.857 104.74C262.167 104.74 262.047 104.29 262.047 103.33V96.43C262.047 93.28 261.297 92.14 258.477 92.14C255.117 92.14 252.927 93.82 252.927 93.82L253.437 96.07H254.397C254.397 96.07 255.537 93.19 257.577 93.19C258.687 93.19 259.257 94 259.467 95.11C259.617 95.95 259.617 97.69 259.587 98.32L258.567 98.47C255.447 98.95 251.877 100.45 251.877 103.33ZM256.197 104.65C255.297 104.65 254.517 103.99 254.517 102.79C254.517 100.63 256.947 99.73 258.657 99.46L259.587 99.31V102.85C258.807 103.51 257.367 104.65 256.197 104.65ZM270.689 106L271.949 106.39L277.199 94.54C277.829 93.16 278.279 92.98 278.279 92.98L278.129 92.5H274.079V93.25C275.219 93.52 276.149 94.12 275.579 95.44L272.039 103.45C271.889 102.88 271.679 102.13 271.499 101.59L269.219 95.26C268.889 94.36 268.889 93.31 269.249 92.5L269.129 92.38C269.129 92.38 268.019 92.5 266.129 92.5H264.749V93.25C264.749 93.25 265.799 93.46 266.399 94.99L270.689 106ZM279.54 99.52C279.54 103.03 281.64 106.36 285.9 106.36C289.47 106.36 291.03 103.54 291.03 103.54L290.7 102.91C290.7 102.91 289.26 104.35 286.8 104.35C283.44 104.35 282.06 101.68 281.94 98.95L282.24 98.59L289.71 97.51C290.31 97.42 291.09 97.12 291.09 97.12C291 93.82 288.45 92.14 285.87 92.14C282.24 92.14 279.54 95.44 279.54 99.52ZM285.42 93.28C288.06 93.28 288.3 96.7 288.3 96.7L282 97.51C282.27 95.26 283.41 93.28 285.42 93.28ZM293.369 104.32C293.369 106.03 296.489 106.36 297.869 106.36C300.719 106.36 302.669 104.92 302.669 102.43C302.669 97.69 295.829 98.26 295.829 95.08C295.829 94.15 296.459 93.16 298.079 93.16C298.709 93.16 300.779 93.31 300.779 95.77H301.709L302.309 92.68C302.309 92.68 300.359 92.14 298.559 92.14C295.379 92.14 293.669 93.73 293.669 95.95C293.669 100.3 300.539 100.09 300.539 103.3C300.539 104.56 299.519 105.34 298.049 105.34C296.609 105.34 294.839 104.59 294.659 102.04H293.759C293.759 102.04 293.369 103.72 293.369 104.32ZM29.14 146.09L35.74 145.91L35.86 145.16L33.31 144.89C33.31 144.89 33.46 144.17 33.46 143.27V135.23C33.46 132.8 33.79 131.81 33.79 131.81L33.76 131.72C33.76 131.72 33.13 132.11 28.75 133.13V133.94H30.1C30.97 133.94 31 134.69 31 135.98V143.27C31 144.35 30.49 145.07 29.14 145.22V146.09ZM31.96 129.08C32.83 129.08 33.58 128.33 33.58 127.46C33.58 126.59 32.83 125.84 31.96 125.84C31.09 125.84 30.34 126.59 30.34 127.46C30.34 128.33 31.09 129.08 31.96 129.08ZM37.4603 146.09L43.9103 145.91L44.0303 145.16L41.6303 144.86C41.6303 144.86 41.7803 144.17 41.7803 143.27V136.07C43.0403 134.78 44.8703 133.97 46.2503 133.97C47.4503 133.97 48.3203 134.57 48.3203 136.85V143.27C48.3203 144.35 47.9603 145.07 46.6103 145.22V146.09L53.0603 145.91L53.1803 145.16L50.6303 144.86C50.6303 144.86 50.7803 144.17 50.7803 143.27V136.19C50.7803 133.28 49.4303 132.14 47.3603 132.14C44.8403 132.14 42.7403 133.85 41.6603 135.47C41.6903 132.8 41.9603 131.81 41.9603 131.81L41.8703 131.72C41.8703 131.72 40.0103 132.53 37.0703 133.13V133.94H38.4203C39.2903 133.94 39.3203 134.69 39.3203 135.98V143.27C39.3203 144.35 38.8103 145.07 37.4603 145.22V146.09ZM54.6283 139.52C54.6283 142.97 56.7883 146.36 60.9883 146.36C64.4683 146.36 65.8483 143.75 65.8483 143.75L65.5183 143.12C65.5183 143.12 64.2883 144.35 62.0383 144.35C58.4983 144.35 57.0883 141.53 57.0883 138.65C57.0883 135.74 58.4383 133.16 60.8383 133.16C62.9383 133.16 63.1183 135.5 64.6483 135.5C65.3683 135.5 65.7883 134.99 65.7883 134.42C65.7883 132.86 62.8783 132.14 61.0483 132.14C56.9083 132.14 54.6283 135.89 54.6283 139.52ZM67.8705 139.55C67.8705 143.39 70.2105 146.36 74.4405 146.36C79.2405 146.36 81.5505 142.43 81.5505 138.71C81.5505 135.02 79.3005 132.14 74.9205 132.14C69.8205 132.14 67.8705 136.04 67.8705 139.55ZM70.6305 138.86C70.6305 135.98 71.8005 133.16 74.5605 133.16C77.5905 133.16 78.7905 136.58 78.7905 139.55C78.7905 142.76 77.4105 145.34 74.8605 145.34C71.8605 145.34 70.6305 141.86 70.6305 138.86ZM83.8373 146.09L90.2873 145.91L90.4073 145.16L88.0073 144.86C88.0073 144.86 88.1573 144.17 88.1573 143.27V136.07C89.4173 134.78 91.2473 133.97 92.6273 133.97C93.8273 133.97 94.6973 134.57 94.6973 136.85V143.27C94.6973 144.35 94.3373 145.07 92.9873 145.22V146.09L99.4373 145.91L99.5573 145.16L97.0073 144.86C97.0073 144.86 97.1573 144.17 97.1573 143.27V136.19C97.1573 133.28 95.8073 132.14 93.7373 132.14C91.2173 132.14 89.1173 133.85 88.0373 135.47C88.0673 132.8 88.3373 131.81 88.3373 131.81L88.2473 131.72C88.2473 131.72 86.3873 132.53 83.4473 133.13V133.94H84.7973C85.6673 133.94 85.6973 134.69 85.6973 135.98V143.27C85.6973 144.35 85.1873 145.07 83.8373 145.22V146.09ZM101.035 144.32C101.035 146.03 104.155 146.36 105.535 146.36C108.385 146.36 110.335 144.92 110.335 142.43C110.335 137.69 103.495 138.26 103.495 135.08C103.495 134.15 104.125 133.16 105.745 133.16C106.375 133.16 108.445 133.31 108.445 135.77H109.375L109.975 132.68C109.975 132.68 108.025 132.14 106.225 132.14C103.045 132.14 101.335 133.73 101.335 135.95C101.335 140.3 108.205 140.09 108.205 143.3C108.205 144.56 107.185 145.34 105.715 145.34C104.275 145.34 102.505 144.59 102.325 142.04H101.425C101.425 142.04 101.035 143.72 101.035 144.32ZM112.578 146.09L119.178 145.91L119.298 145.16L116.748 144.89C116.748 144.89 116.898 144.17 116.898 143.27V135.23C116.898 132.8 117.228 131.81 117.228 131.81L117.198 131.72C117.198 131.72 116.568 132.11 112.188 133.13V133.94H113.538C114.408 133.94 114.438 134.69 114.438 135.98V143.27C114.438 144.35 113.928 145.07 112.578 145.22V146.09ZM115.397 129.08C116.268 129.08 117.018 128.33 117.018 127.46C117.018 126.59 116.268 125.84 115.397 125.84C114.528 125.84 113.778 126.59 113.778 127.46C113.778 128.33 114.528 129.08 115.397 129.08ZM120.928 144.32C120.928 146.03 124.048 146.36 125.428 146.36C128.278 146.36 130.228 144.92 130.228 142.43C130.228 137.69 123.388 138.26 123.388 135.08C123.388 134.15 124.018 133.16 125.638 133.16C126.268 133.16 128.338 133.31 128.338 135.77H129.268L129.868 132.68C129.868 132.68 127.918 132.14 126.118 132.14C122.938 132.14 121.228 133.73 121.228 135.95C121.228 140.3 128.098 140.09 128.098 143.3C128.098 144.56 127.078 145.34 125.608 145.34C124.168 145.34 122.398 144.59 122.218 142.04H121.318C121.318 142.04 120.928 143.72 120.928 144.32ZM133.94 142.43C133.94 145.16 135.14 146.36 137.27 146.36C139.88 146.36 141.59 144.5 141.59 144.5L141.2 143.93C141.2 143.93 139.85 144.56 138.5 144.56C136.91 144.56 136.4 143.6 136.4 141.86V134.24L136.7 133.94H140.84L141.05 132.5H136.37V132.05C136.37 129.92 136.64 129.05 136.64 129.05L136.55 128.96L135.2 128.93L134.09 132.2C133.37 132.86 132.05 133.13 132.05 133.13V134.03H134.03C134.03 134.03 133.94 135.11 133.94 135.98V142.43ZM142.87 139.52C142.87 143.03 144.97 146.36 149.23 146.36C152.8 146.36 154.36 143.54 154.36 143.54L154.03 142.91C154.03 142.91 152.59 144.35 150.13 144.35C146.77 144.35 145.39 141.68 145.27 138.95L145.57 138.59L153.04 137.51C153.64 137.42 154.42 137.12 154.42 137.12C154.33 133.82 151.78 132.14 149.2 132.14C145.57 132.14 142.87 135.44 142.87 139.52ZM148.75 133.28C151.39 133.28 151.63 136.7 151.63 136.7L145.33 137.51C145.6 135.26 146.74 133.28 148.75 133.28ZM156.669 146.09L163.119 145.91L163.239 145.16L160.839 144.86C160.839 144.86 160.989 144.17 160.989 143.27V136.07C162.249 134.78 164.079 133.97 165.459 133.97C166.659 133.97 167.529 134.57 167.529 136.85V143.27C167.529 144.35 167.169 145.07 165.819 145.22V146.09L172.269 145.91L172.389 145.16L169.839 144.86C169.839 144.86 169.989 144.17 169.989 143.27V136.19C169.989 133.28 168.639 132.14 166.569 132.14C164.049 132.14 161.949 133.85 160.869 135.47C160.899 132.8 161.169 131.81 161.169 131.81L161.079 131.72C161.079 131.72 159.219 132.53 156.279 133.13V133.94H157.629C158.499 133.94 158.529 134.69 158.529 135.98V143.27C158.529 144.35 158.019 145.07 156.669 145.22V146.09ZM175.219 142.43C175.219 145.16 176.419 146.36 178.549 146.36C181.159 146.36 182.869 144.5 182.869 144.5L182.479 143.93C182.479 143.93 181.129 144.56 179.779 144.56C178.189 144.56 177.679 143.6 177.679 141.86V134.24L177.979 133.94H182.119L182.329 132.5H177.649V132.05C177.649 129.92 177.919 129.05 177.919 129.05L177.829 128.96L176.479 128.93L175.369 132.2C174.649 132.86 173.329 133.13 173.329 133.13V134.03H175.309C175.309 134.03 175.219 135.11 175.219 135.98V142.43ZM183.85 146.09L190.45 145.91L190.57 145.16L188.02 144.89C188.02 144.89 188.17 144.17 188.17 143.27V127.34C188.17 125.03 188.47 123.92 188.47 123.92L188.38 123.83C188.38 123.83 187 124.43 183.55 125.18V125.99H184.81C185.68 125.99 185.71 126.74 185.71 128.03V143.27C185.71 144.35 185.2 145.07 183.85 145.22V146.09ZM193.05 150.62C191.97 150.62 191.58 151.25 191.58 151.85C191.58 152.51 192.03 153.11 192.9 153.11C195.78 153.11 197.49 148.16 198.3 146.36L203.49 134.57C204.03 133.28 204.57 132.98 204.57 132.98L204.42 132.5H200.25V133.25C201.36 133.55 202.41 134.21 201.9 135.41L198.51 143.15C198.36 142.61 198.12 141.86 197.94 141.35L195.51 135.26C195.18 134.45 195.18 133.22 195.54 132.5L195.42 132.38C195.42 132.38 194.25 132.5 192.36 132.5H190.95V133.25C190.95 133.25 192 133.49 192.63 134.99L196.47 144.17C196.8 145.01 197.04 145.7 197.19 146.12L196.23 148.37C195.69 149.6 194.64 150.62 193.05 150.62ZM217.486 146L218.596 146.39L222.526 137.18L225.976 146L227.086 146.39L232.126 134.57C232.696 133.22 233.206 132.98 233.206 132.98L233.056 132.5H229.036V133.25C230.176 133.52 231.046 134.21 230.536 135.41L227.266 143.18C227.116 142.64 226.936 141.98 226.756 141.47L224.446 135.26C223.906 133.79 224.476 132.5 224.476 132.5L224.356 132.38C224.356 132.38 223.306 132.5 221.416 132.5H220.036V133.25C220.036 133.25 221.116 133.46 221.686 134.99L221.746 135.2C221.866 135.68 221.716 136.19 221.566 136.58L218.776 143.21L218.296 141.59L215.956 135.26C215.416 133.79 215.986 132.5 215.986 132.5L215.866 132.38C215.866 132.38 214.816 132.5 212.926 132.5H211.546V133.25C211.546 133.25 212.596 133.46 213.196 134.99L217.486 146ZM234.54 146.09L241.14 145.91L241.26 145.16L238.71 144.89C238.71 144.89 238.86 144.17 238.86 143.27V135.23C238.86 132.8 239.19 131.81 239.19 131.81L239.16 131.72C239.16 131.72 238.53 132.11 234.15 133.13V133.94H235.5C236.37 133.94 236.4 134.69 236.4 135.98V143.27C236.4 144.35 235.89 145.07 234.54 145.22V146.09ZM237.36 129.08C238.23 129.08 238.98 128.33 238.98 127.46C238.98 126.59 238.23 125.84 237.36 125.84C236.49 125.84 235.74 126.59 235.74 127.46C235.74 128.33 236.49 129.08 237.36 129.08ZM244.331 142.43C244.331 145.16 245.531 146.36 247.661 146.36C250.271 146.36 251.981 144.5 251.981 144.5L251.591 143.93C251.591 143.93 250.241 144.56 248.891 144.56C247.301 144.56 246.791 143.6 246.791 141.86V134.24L247.091 133.94H251.231L251.441 132.5H246.761V132.05C246.761 129.92 247.031 129.05 247.031 129.05L246.941 128.96L245.591 128.93L244.481 132.2C243.761 132.86 242.441 133.13 242.441 133.13V134.03H244.421C244.421 134.03 244.331 135.11 244.331 135.98V142.43ZM252.961 146.09L259.411 145.91L259.531 145.16L257.131 144.89C257.131 144.89 257.281 144.17 257.281 143.27V136.01C258.541 134.81 260.371 133.97 261.751 133.97C262.951 133.97 263.821 134.57 263.821 136.85V143.27C263.821 144.35 263.341 145.07 262.111 145.22V146.09L268.561 145.91L268.681 145.16L266.131 144.89C266.131 144.89 266.281 144.17 266.281 143.27V136.19C266.281 133.28 264.931 132.14 262.861 132.14C260.341 132.14 258.241 133.82 257.161 135.38C257.161 135.14 257.281 134.54 257.281 133.16V127.34C257.281 125.03 257.581 123.92 257.581 123.92L257.491 123.83C257.491 123.83 256.111 124.43 252.661 125.18V125.99H253.921C254.791 125.99 254.821 126.74 254.821 128.03V143.27C254.821 144.35 254.311 145.07 252.961 145.22V146.09ZM278.285 142.34C278.285 145.22 279.575 146.36 281.675 146.36C284.195 146.36 286.175 144.59 287.255 143V144.56C287.255 145.31 286.985 146.18 286.985 146.18L287.105 146.27C287.105 146.27 288.755 146 292.025 145.67L292.115 144.86H291.275C290.285 144.86 289.595 144.86 289.595 143.15V135.23C289.595 132.92 289.865 132.08 289.865 132.08L289.745 131.99C289.745 131.99 288.125 132.59 285.245 133.1V133.94H286.235C287.105 133.94 287.135 134.69 287.135 135.98V142.4C285.845 143.72 284.165 144.53 282.785 144.53C281.555 144.53 280.745 143.93 280.745 141.65V135.23C280.745 132.92 281.015 132.08 281.015 132.08L280.895 131.99C280.895 131.99 279.245 132.59 276.335 133.1V133.94H277.385C278.255 133.94 278.285 134.69 278.285 135.98V142.34ZM293.633 144.32C293.633 146.03 296.753 146.36 298.133 146.36C300.983 146.36 302.933 144.92 302.933 142.43C302.933 137.69 296.093 138.26 296.093 135.08C296.093 134.15 296.723 133.16 298.343 133.16C298.973 133.16 301.043 133.31 301.043 135.77H301.973L302.573 132.68C302.573 132.68 300.623 132.14 298.823 132.14C295.643 132.14 293.933 133.73 293.933 135.95C293.933 140.3 300.803 140.09 300.803 143.3C300.803 144.56 299.783 145.34 298.313 145.34C296.873 145.34 295.103 144.59 294.923 142.04H294.023C294.023 142.04 293.633 143.72 293.633 144.32ZM305.175 139.52C305.175 143.03 307.275 146.36 311.535 146.36C315.105 146.36 316.665 143.54 316.665 143.54L316.335 142.91C316.335 142.91 314.895 144.35 312.435 144.35C309.075 144.35 307.695 141.68 307.575 138.95L307.875 138.59L315.345 137.51C315.945 137.42 316.725 137.12 316.725 137.12C316.635 133.82 314.085 132.14 311.505 132.14C307.875 132.14 305.175 135.44 305.175 139.52ZM311.055 133.28C313.695 133.28 313.935 136.7 313.935 136.7L307.635 137.51C307.905 135.26 309.045 133.28 311.055 133.28ZM318.974 146.09L325.874 145.91L325.994 145.16L323.144 144.89C323.144 144.89 323.294 144.17 323.294 143.27V136.22C323.954 135.47 324.944 134.48 325.964 134.48C326.654 134.48 326.744 134.99 327.434 134.99C328.214 134.99 328.844 134.42 328.844 133.52C328.844 132.5 327.944 132.14 327.224 132.14C325.664 132.14 324.074 133.94 323.174 135.62C323.264 132.8 323.534 131.81 323.534 131.81L323.444 131.72C323.444 131.72 321.524 132.53 318.584 133.13V133.94H319.934C320.804 133.94 320.834 134.69 320.834 135.98V143.27C320.834 144.35 320.324 145.07 318.974 145.22V146.09ZM330.254 144.32C330.254 146.03 333.374 146.36 334.754 146.36C337.604 146.36 339.554 144.92 339.554 142.43C339.554 137.69 332.714 138.26 332.714 135.08C332.714 134.15 333.344 133.16 334.964 133.16C335.594 133.16 337.664 133.31 337.664 135.77H338.594L339.194 132.68C339.194 132.68 337.244 132.14 335.444 132.14C332.264 132.14 330.554 133.73 330.554 135.95C330.554 140.3 337.424 140.09 337.424 143.3C337.424 144.56 336.404 145.34 334.934 145.34C333.494 145.34 331.724 144.59 331.544 142.04H330.644C330.644 142.04 330.254 143.72 330.254 144.32ZM341.595 126.32C342.945 126.98 343.605 127.61 343.605 128.36C343.605 129.11 342.915 129.98 341.655 130.97L342.315 131.69C344.295 130.37 345.285 128.66 345.285 127.07C345.285 125.96 344.835 124.91 343.905 124.04L341.595 125.27V126.32ZM29.14 180.52C29.14 184.03 31.24 187.36 35.5 187.36C39.07 187.36 40.63 184.54 40.63 184.54L40.3 183.91C40.3 183.91 38.86 185.35 36.4 185.35C33.04 185.35 31.66 182.68 31.54 179.95L31.84 179.59L39.31 178.51C39.91 178.42 40.69 178.12 40.69 178.12C40.6 174.82 38.05 173.14 35.47 173.14C31.84 173.14 29.14 176.44 29.14 180.52ZM35.02 174.28C37.66 174.28 37.9 177.7 37.9 177.7L31.6 178.51C31.87 176.26 33.01 174.28 35.02 174.28ZM50.2888 187.09L56.0788 186.91L56.1988 186.19L54.8488 186.07L50.2888 179.59L53.5588 175.48C54.6088 174.16 55.6288 173.98 55.6288 173.98L55.4788 173.5H50.7688V174.25C52.2088 174.46 52.4788 175 51.9988 175.66L49.6588 178.63L47.6488 175.66C46.8688 174.52 47.2288 173.5 47.2288 173.5L47.1088 173.38C47.1088 173.38 46.0288 173.5 44.0188 173.5H42.5788V174.25C42.5788 174.25 43.8088 174.37 44.8288 175.84L48.0388 180.4L44.3488 185.02C44.0188 185.41 43.4488 186.1 42.2788 186.22V187.09L47.2588 186.91L47.3788 186.16L45.0988 185.89L48.6688 181.36L51.2188 185.05C51.7288 185.8 51.6088 186.16 50.2888 186.16V187.09ZM57.6166 194.35C59.7766 193.63 64.5166 193.06 64.5166 193.06L64.6366 192.34H61.4866C61.4866 192.34 61.6366 191.53 61.6366 190.63V187.18C62.2066 187.27 62.8366 187.36 63.6466 187.36C68.9266 187.36 71.3566 183.49 71.3566 179.68C71.3566 176.38 69.5566 173.14 65.8966 173.14C63.5266 173.14 62.3866 174.46 61.5766 175.48C61.6966 173.56 61.8766 172.81 61.8766 172.81L61.7866 172.72C61.7866 172.72 60.0166 173.53 57.0766 174.13V174.94H58.2766C59.1466 174.94 59.1766 175.69 59.1766 176.98V190.66C59.1766 192.04 58.9666 192.73 57.6166 193.48V194.35ZM63.7966 186.22C62.8066 186.22 61.6366 186.01 61.6366 184.6V176.14C62.5666 175.42 63.6466 174.88 64.8166 174.88C67.4866 174.88 68.7466 177.67 68.7466 180.55C68.7466 183.97 66.9166 186.22 63.7966 186.22ZM73.642 180.52C73.642 184.03 75.742 187.36 80.002 187.36C83.572 187.36 85.132 184.54 85.132 184.54L84.802 183.91C84.802 183.91 83.362 185.35 80.902 185.35C77.542 185.35 76.162 182.68 76.042 179.95L76.342 179.59L83.812 178.51C84.412 178.42 85.192 178.12 85.192 178.12C85.102 174.82 82.552 173.14 79.972 173.14C76.342 173.14 73.642 176.44 73.642 180.52ZM79.522 174.28C82.162 174.28 82.402 177.7 82.402 177.7L76.102 178.51C76.372 176.26 77.512 174.28 79.522 174.28ZM87.4408 180.52C87.4408 183.97 89.6008 187.36 93.8008 187.36C97.2808 187.36 98.6608 184.75 98.6608 184.75L98.3308 184.12C98.3308 184.12 97.1008 185.35 94.8508 185.35C91.3108 185.35 89.9008 182.53 89.9008 179.65C89.9008 176.74 91.2508 174.16 93.6508 174.16C95.7508 174.16 95.9308 176.5 97.4608 176.5C98.1808 176.5 98.6008 175.99 98.6008 175.42C98.6008 173.86 95.6908 173.14 93.8608 173.14C89.7208 173.14 87.4408 176.89 87.4408 180.52ZM102.153 183.43C102.153 186.16 103.353 187.36 105.483 187.36C108.093 187.36 109.803 185.5 109.803 185.5L109.413 184.93C109.413 184.93 108.063 185.56 106.713 185.56C105.123 185.56 104.613 184.6 104.613 182.86V175.24L104.913 174.94H109.053L109.263 173.5H104.583V173.05C104.583 170.92 104.853 170.05 104.853 170.05L104.763 169.96L103.413 169.93L102.303 173.2C101.583 173.86 100.263 174.13 100.263 174.13V175.03H102.243C102.243 175.03 102.153 176.11 102.153 176.98V183.43ZM110.783 184.33C110.783 185.95 111.923 187.36 113.903 187.36C116.993 187.36 118.583 184.51 118.583 184.51V185.23C118.583 186.7 119.483 187.36 120.623 187.36C122.393 187.36 123.803 185.77 123.803 185.77L123.413 185.14C123.413 185.14 122.573 185.74 121.763 185.74C121.073 185.74 120.953 185.29 120.953 184.33V177.43C120.953 174.28 120.203 173.14 117.383 173.14C114.023 173.14 111.833 174.82 111.833 174.82L112.343 177.07H113.303C113.303 177.07 114.443 174.19 116.483 174.19C117.593 174.19 118.163 175 118.373 176.11C118.523 176.95 118.523 178.69 118.493 179.32L117.473 179.47C114.353 179.95 110.783 181.45 110.783 184.33ZM115.103 185.65C114.203 185.65 113.423 184.99 113.423 183.79C113.423 181.63 115.853 180.73 117.563 180.46L118.493 180.31V183.85C117.713 184.51 116.273 185.65 115.103 185.65ZM126.352 183.43C126.352 186.16 127.552 187.36 129.682 187.36C132.292 187.36 134.002 185.5 134.002 185.5L133.612 184.93C133.612 184.93 132.262 185.56 130.912 185.56C129.322 185.56 128.812 184.6 128.812 182.86V175.24L129.112 174.94H133.252L133.462 173.5H128.782V173.05C128.782 170.92 129.052 170.05 129.052 170.05L128.962 169.96L127.612 169.93L126.502 173.2C125.782 173.86 124.462 174.13 124.462 174.13V175.03H126.442C126.442 175.03 126.352 176.11 126.352 176.98V183.43ZM135.283 187.09L141.883 186.91L142.003 186.16L139.453 185.89C139.453 185.89 139.603 185.17 139.603 184.27V176.23C139.603 173.8 139.933 172.81 139.933 172.81L139.903 172.72C139.903 172.72 139.273 173.11 134.893 174.13V174.94H136.243C137.113 174.94 137.143 175.69 137.143 176.98V184.27C137.143 185.35 136.633 186.07 135.283 186.22V187.09ZM138.103 170.08C138.973 170.08 139.723 169.33 139.723 168.46C139.723 167.59 138.973 166.84 138.103 166.84C137.233 166.84 136.483 167.59 136.483 168.46C136.483 169.33 137.233 170.08 138.103 170.08ZM143.515 180.55C143.515 184.39 145.855 187.36 150.085 187.36C154.885 187.36 157.195 183.43 157.195 179.71C157.195 176.02 154.945 173.14 150.565 173.14C145.465 173.14 143.515 177.04 143.515 180.55ZM146.275 179.86C146.275 176.98 147.445 174.16 150.205 174.16C153.235 174.16 154.435 177.58 154.435 180.55C154.435 183.76 153.055 186.34 150.505 186.34C147.505 186.34 146.275 182.86 146.275 179.86ZM159.482 187.09L165.932 186.91L166.052 186.16L163.652 185.86C163.652 185.86 163.802 185.17 163.802 184.27V177.07C165.062 175.78 166.892 174.97 168.272 174.97C169.472 174.97 170.342 175.57 170.342 177.85V184.27C170.342 185.35 169.982 186.07 168.632 186.22V187.09L175.082 186.91L175.202 186.16L172.652 185.86C172.652 185.86 172.802 185.17 172.802 184.27V177.19C172.802 174.28 171.452 173.14 169.382 173.14C166.862 173.14 164.762 174.85 163.682 176.47C163.712 173.8 163.982 172.81 163.982 172.81L163.892 172.72C163.892 172.72 162.032 173.53 159.092 174.13V174.94H160.442C161.312 174.94 161.342 175.69 161.342 176.98V184.27C161.342 185.35 160.832 186.07 159.482 186.22V187.09ZM176.68 185.32C176.68 187.03 179.8 187.36 181.18 187.36C184.03 187.36 185.98 185.92 185.98 183.43C185.98 178.69 179.14 179.26 179.14 176.08C179.14 175.15 179.77 174.16 181.39 174.16C182.02 174.16 184.09 174.31 184.09 176.77H185.02L185.62 173.68C185.62 173.68 183.67 173.14 181.87 173.14C178.69 173.14 176.98 174.73 176.98 176.95C176.98 181.3 183.85 181.09 183.85 184.3C183.85 185.56 182.83 186.34 181.36 186.34C179.92 186.34 178.15 185.59 177.97 183.04H177.07C177.07 183.04 176.68 184.72 176.68 185.32ZM194.66 184.33C194.66 185.95 195.8 187.36 197.78 187.36C200.87 187.36 202.46 184.51 202.46 184.51V185.23C202.46 186.7 203.36 187.36 204.5 187.36C206.27 187.36 207.68 185.77 207.68 185.77L207.29 185.14C207.29 185.14 206.45 185.74 205.64 185.74C204.95 185.74 204.83 185.29 204.83 184.33V177.43C204.83 174.28 204.08 173.14 201.26 173.14C197.9 173.14 195.71 174.82 195.71 174.82L196.22 177.07H197.18C197.18 177.07 198.32 174.19 200.36 174.19C201.47 174.19 202.04 175 202.25 176.11C202.4 176.95 202.4 178.69 202.37 179.32L201.35 179.47C198.23 179.95 194.66 181.45 194.66 184.33ZM198.98 185.65C198.08 185.65 197.3 184.99 197.3 183.79C197.3 181.63 199.73 180.73 201.44 180.46L202.37 180.31V183.85C201.59 184.51 200.15 185.65 198.98 185.65ZM208.759 187.09L215.209 186.91L215.329 186.16L212.929 185.86C212.929 185.86 213.079 185.17 213.079 184.27V177.07C214.339 175.78 216.169 174.97 217.549 174.97C218.749 174.97 219.619 175.57 219.619 177.85V184.27C219.619 185.35 219.259 186.07 217.909 186.22V187.09L224.359 186.91L224.479 186.16L221.929 185.86C221.929 185.86 222.079 185.17 222.079 184.27V177.19C222.079 174.28 220.729 173.14 218.659 173.14C216.139 173.14 214.039 174.85 212.959 176.47C212.989 173.8 213.259 172.81 213.259 172.81L213.169 172.72C213.169 172.72 211.309 173.53 208.369 174.13V174.94H209.719C210.589 174.94 210.619 175.69 210.619 176.98V184.27C210.619 185.35 210.109 186.07 208.759 186.22V187.09ZM225.897 180.85C225.897 184.12 227.847 187.36 231.537 187.36C233.787 187.36 235.017 186.13 235.827 184.93V185.56C235.827 186.31 235.707 187.15 235.707 187.15L235.797 187.24C235.797 187.24 237.327 187 240.597 186.67L240.687 185.86H239.847C238.857 185.86 238.167 185.86 238.167 184.15V168.34C238.167 166.03 238.467 164.92 238.467 164.92L238.377 164.83C238.377 164.83 236.997 165.43 233.547 166.18V166.99H234.807C235.677 166.99 235.707 167.74 235.707 169.03V173.32C235.707 173.32 234.657 173.14 233.577 173.14C228.447 173.14 225.897 177.07 225.897 180.85ZM232.587 185.62C229.887 185.62 228.507 182.83 228.507 179.95C228.507 176.47 230.487 174.28 233.547 174.28C234.507 174.28 235.707 174.49 235.707 175.87V184.3C235.227 184.78 234.057 185.62 232.587 185.62ZM248.537 187.09L254.987 186.91L255.107 186.16L252.707 185.89C252.707 185.89 252.857 185.17 252.857 184.27V177.01C254.117 175.81 255.947 174.97 257.327 174.97C258.527 174.97 259.397 175.57 259.397 177.85V184.27C259.397 185.35 258.917 186.07 257.687 186.22V187.09L264.137 186.91L264.257 186.16L261.707 185.89C261.707 185.89 261.857 185.17 261.857 184.27V177.19C261.857 174.28 260.507 173.14 258.437 173.14C255.917 173.14 253.817 174.82 252.737 176.38C252.737 176.14 252.857 175.54 252.857 174.16V168.34C252.857 166.03 253.157 164.92 253.157 164.92L253.067 164.83C253.067 164.83 251.687 165.43 248.237 166.18V166.99H249.497C250.367 166.99 250.397 167.74 250.397 169.03V184.27C250.397 185.35 249.887 186.07 248.537 186.22V187.09ZM265.683 187.09L272.283 186.91L272.403 186.16L269.853 185.89C269.853 185.89 270.003 185.17 270.003 184.27V176.23C270.003 173.8 270.333 172.81 270.333 172.81L270.303 172.72C270.303 172.72 269.673 173.11 265.293 174.13V174.94H266.643C267.513 174.94 267.543 175.69 267.543 176.98V184.27C267.543 185.35 267.033 186.07 265.683 186.22V187.09ZM268.503 170.08C269.373 170.08 270.123 169.33 270.123 168.46C270.123 167.59 269.373 166.84 268.503 166.84C267.633 166.84 266.883 167.59 266.883 168.46C266.883 169.33 267.633 170.08 268.503 170.08ZM273.973 180.85C273.973 184.12 275.923 187.36 279.613 187.36C281.863 187.36 283.093 186.13 283.903 184.93V185.56C283.903 186.31 283.783 187.15 283.783 187.15L283.873 187.24C283.873 187.24 285.403 187 288.673 186.67L288.763 185.86H287.923C286.933 185.86 286.243 185.86 286.243 184.15V168.34C286.243 166.03 286.543 164.92 286.543 164.92L286.453 164.83C286.453 164.83 285.073 165.43 281.623 166.18V166.99H282.883C283.753 166.99 283.783 167.74 283.783 169.03V173.32C283.783 173.32 282.733 173.14 281.653 173.14C276.523 173.14 273.973 177.07 273.973 180.85ZM280.663 185.62C277.963 185.62 276.583 182.83 276.583 179.95C276.583 176.47 278.563 174.28 281.623 174.28C282.583 174.28 283.783 174.49 283.783 175.87V184.3C283.303 184.78 282.133 185.62 280.663 185.62ZM290.175 180.52C290.175 184.03 292.275 187.36 296.535 187.36C300.105 187.36 301.665 184.54 301.665 184.54L301.335 183.91C301.335 183.91 299.895 185.35 297.435 185.35C294.075 185.35 292.695 182.68 292.575 179.95L292.875 179.59L300.345 178.51C300.945 178.42 301.725 178.12 301.725 178.12C301.635 174.82 299.085 173.14 296.505 173.14C292.875 173.14 290.175 176.44 290.175 180.52ZM296.055 174.28C298.695 174.28 298.935 177.7 298.935 177.7L292.635 178.51C292.905 176.26 294.045 174.28 296.055 174.28ZM304.004 185.32C304.004 187.03 307.124 187.36 308.504 187.36C311.354 187.36 313.304 185.92 313.304 183.43C313.304 178.69 306.464 179.26 306.464 176.08C306.464 175.15 307.094 174.16 308.714 174.16C309.344 174.16 311.414 174.31 311.414 176.77H312.344L312.944 173.68C312.944 173.68 310.994 173.14 309.194 173.14C306.014 173.14 304.304 174.73 304.304 176.95C304.304 181.3 311.174 181.09 311.174 184.3C311.174 185.56 310.154 186.34 308.684 186.34C307.244 186.34 305.474 185.59 305.294 183.04H304.394C304.394 183.04 304.004 184.72 304.004 185.32ZM323.755 183.43C323.755 186.16 324.955 187.36 327.085 187.36C329.695 187.36 331.405 185.5 331.405 185.5L331.015 184.93C331.015 184.93 329.665 185.56 328.315 185.56C326.725 185.56 326.215 184.6 326.215 182.86V175.24L326.515 174.94H330.655L330.865 173.5H326.185V173.05C326.185 170.92 326.455 170.05 326.455 170.05L326.365 169.96L325.015 169.93L323.905 173.2C323.185 173.86 321.865 174.13 321.865 174.13V175.03H323.845C323.845 175.03 323.755 176.11 323.755 176.98V183.43ZM332.385 187.09L338.835 186.91L338.955 186.16L336.555 185.89C336.555 185.89 336.705 185.17 336.705 184.27V177.01C337.965 175.81 339.795 174.97 341.175 174.97C342.375 174.97 343.245 175.57 343.245 177.85V184.27C343.245 185.35 342.765 186.07 341.535 186.22V187.09L347.985 186.91L348.105 186.16L345.555 185.89C345.555 185.89 345.705 185.17 345.705 184.27V177.19C345.705 174.28 344.355 173.14 342.285 173.14C339.765 173.14 337.665 174.82 336.585 176.38C336.585 176.14 336.705 175.54 336.705 174.16V168.34C336.705 166.03 337.005 164.92 337.005 164.92L336.915 164.83C336.915 164.83 335.535 165.43 332.085 166.18V166.99H333.345C334.215 166.99 334.245 167.74 334.245 169.03V184.27C334.245 185.35 333.735 186.07 332.385 186.22V187.09ZM349.531 180.52C349.531 184.03 351.631 187.36 355.891 187.36C359.461 187.36 361.021 184.54 361.021 184.54L360.691 183.91C360.691 183.91 359.251 185.35 356.791 185.35C353.431 185.35 352.051 182.68 351.931 179.95L352.231 179.59L359.701 178.51C360.301 178.42 361.081 178.12 361.081 178.12C360.991 174.82 358.441 173.14 355.861 173.14C352.231 173.14 349.531 176.44 349.531 180.52ZM355.411 174.28C358.051 174.28 358.291 177.7 358.291 177.7L351.991 178.51C352.261 176.26 353.401 174.28 355.411 174.28ZM29.14 220.55C29.14 224.39 31.48 227.36 35.71 227.36C40.51 227.36 42.82 223.43 42.82 219.71C42.82 216.02 40.57 213.14 36.19 213.14C31.09 213.14 29.14 217.04 29.14 220.55ZM31.9 219.86C31.9 216.98 33.07 214.16 35.83 214.16C38.86 214.16 40.06 217.58 40.06 220.55C40.06 223.76 38.68 226.34 36.13 226.34C33.13 226.34 31.9 222.86 31.9 219.86ZM46.5468 223.34C46.5468 226.22 47.8368 227.36 49.9368 227.36C52.4568 227.36 54.4368 225.59 55.5168 224V225.56C55.5168 226.31 55.2468 227.18 55.2468 227.18L55.3668 227.27C55.3668 227.27 57.0168 227 60.2868 226.67L60.3768 225.86H59.5368C58.5468 225.86 57.8568 225.86 57.8568 224.15V216.23C57.8568 213.92 58.1268 213.08 58.1268 213.08L58.0068 212.99C58.0068 212.99 56.3868 213.59 53.5068 214.1V214.94H54.4968C55.3668 214.94 55.3968 215.69 55.3968 216.98V223.4C54.1068 224.72 52.4268 225.53 51.0468 225.53C49.8168 225.53 49.0068 224.93 49.0068 222.65V216.23C49.0068 213.92 49.2768 213.08 49.2768 213.08L49.1568 212.99C49.1568 212.99 47.5068 213.59 44.5968 214.1V214.94H45.6468C46.5168 214.94 46.5468 215.69 46.5468 216.98V223.34ZM63.3346 223.43C63.3346 226.16 64.5346 227.36 66.6646 227.36C69.2746 227.36 70.9846 225.5 70.9846 225.5L70.5946 224.93C70.5946 224.93 69.2446 225.56 67.8946 225.56C66.3046 225.56 65.7946 224.6 65.7946 222.86V215.24L66.0946 214.94H70.2346L70.4446 213.5H65.7646V213.05C65.7646 210.92 66.0346 210.05 66.0346 210.05L65.9446 209.96L64.5946 209.93L63.4846 213.2C62.7646 213.86 61.4446 214.13 61.4446 214.13V215.03H63.4246C63.4246 215.03 63.3346 216.11 63.3346 216.98V223.43ZM72.265 220.52C72.265 223.97 74.425 227.36 78.625 227.36C82.105 227.36 83.485 224.75 83.485 224.75L83.155 224.12C83.155 224.12 81.925 225.35 79.675 225.35C76.135 225.35 74.725 222.53 74.725 219.65C74.725 216.74 76.075 214.16 78.475 214.16C80.575 214.16 80.755 216.5 82.285 216.5C83.005 216.5 83.425 215.99 83.425 215.42C83.425 213.86 80.515 213.14 78.685 213.14C74.545 213.14 72.265 216.89 72.265 220.52ZM85.5072 220.55C85.5072 224.39 87.8472 227.36 92.0772 227.36C96.8772 227.36 99.1872 223.43 99.1872 219.71C99.1872 216.02 96.9372 213.14 92.5572 213.14C87.4572 213.14 85.5072 217.04 85.5072 220.55ZM88.2672 219.86C88.2672 216.98 89.4372 214.16 92.1972 214.16C95.2272 214.16 96.4272 217.58 96.4272 220.55C96.4272 223.76 95.0472 226.34 92.4972 226.34C89.4972 226.34 88.2672 222.86 88.2672 219.86ZM101.444 227.09L107.894 226.91L108.014 226.16L105.614 225.89C105.614 225.89 105.764 225.17 105.764 224.27V217.07C107.054 215.78 108.734 214.97 110.084 214.97C111.224 214.97 111.854 215.57 111.854 217.85V224.27C111.854 225.35 111.494 226.07 110.144 226.22V227.09L116.444 226.91L116.564 226.16L114.164 225.89C114.164 225.89 114.314 225.17 114.314 224.27V217.94C114.314 216.2 117.374 214.97 118.724 214.97C119.834 214.97 120.464 215.57 120.464 217.85V224.27C120.464 225.35 120.104 226.07 118.754 226.22V227.09L125.204 226.91L125.324 226.16L122.774 225.89C122.774 225.89 122.924 225.17 122.924 224.27V217.19C122.924 214.19 121.664 213.14 119.714 213.14C117.344 213.14 115.364 214.79 114.224 216.59C114.224 214.22 112.994 213.14 111.074 213.14C108.644 213.14 106.724 214.88 105.644 216.44C105.734 213.77 106.004 212.81 106.004 212.81L105.914 212.72C105.914 212.72 104.054 213.53 101.114 214.13V214.94H102.404C103.274 214.94 103.304 215.69 103.304 216.98V224.27C103.304 225.35 102.794 226.07 101.444 226.22V227.09ZM126.786 220.52C126.786 224.03 128.886 227.36 133.146 227.36C136.716 227.36 138.276 224.54 138.276 224.54L137.946 223.91C137.946 223.91 136.506 225.35 134.046 225.35C130.686 225.35 129.306 222.68 129.186 219.95L129.486 219.59L136.956 218.51C137.556 218.42 138.336 218.12 138.336 218.12C138.246 214.82 135.696 213.14 133.116 213.14C129.486 213.14 126.786 216.44 126.786 220.52ZM132.666 214.28C135.306 214.28 135.546 217.7 135.546 217.7L129.246 218.51C129.516 216.26 130.656 214.28 132.666 214.28ZM147.324 220.55C147.324 224.39 149.664 227.36 153.894 227.36C158.694 227.36 161.004 223.43 161.004 219.71C161.004 216.02 158.754 213.14 154.374 213.14C149.274 213.14 147.324 217.04 147.324 220.55ZM150.084 219.86C150.084 216.98 151.254 214.16 154.014 214.16C157.044 214.16 158.244 217.58 158.244 220.55C158.244 223.76 156.864 226.34 154.314 226.34C151.314 226.34 150.084 222.86 150.084 219.86ZM163.26 227.09L170.46 226.91L170.58 226.16L167.43 225.89C167.43 225.89 167.58 225.17 167.58 224.27V215.24L167.88 214.94H171.57L171.81 213.5H167.58V211.85C167.58 207.98 168.3 206.54 169.83 206.54C171.45 206.54 172.11 208.07 173.19 208.07C174 208.07 174.45 207.5 174.45 206.93C174.45 205.67 172.68 205.16 171.24 205.16C167.34 205.16 165.12 208.19 165.12 212.66V213.47L163.23 214.13V215.03H165.12V224.27C165.12 225.35 164.61 226.07 163.26 226.22V227.09ZM181.283 223.34C181.283 226.22 182.573 227.36 184.673 227.36C187.193 227.36 189.173 225.59 190.253 224V225.56C190.253 226.31 189.983 227.18 189.983 227.18L190.103 227.27C190.103 227.27 191.753 227 195.023 226.67L195.113 225.86H194.273C193.283 225.86 192.593 225.86 192.593 224.15V216.23C192.593 213.92 192.863 213.08 192.863 213.08L192.743 212.99C192.743 212.99 191.123 213.59 188.243 214.1V214.94H189.233C190.103 214.94 190.133 215.69 190.133 216.98V223.4C188.843 224.72 187.163 225.53 185.783 225.53C184.553 225.53 183.743 224.93 183.743 222.65V216.23C183.743 213.92 184.013 213.08 184.013 213.08L183.893 212.99C183.893 212.99 182.243 213.59 179.333 214.1V214.94H180.383C181.253 214.94 181.283 215.69 181.283 216.98V223.34ZM196.631 225.32C196.631 227.03 199.751 227.36 201.131 227.36C203.981 227.36 205.931 225.92 205.931 223.43C205.931 218.69 199.091 219.26 199.091 216.08C199.091 215.15 199.721 214.16 201.341 214.16C201.971 214.16 204.041 214.31 204.041 216.77H204.971L205.571 213.68C205.571 213.68 203.621 213.14 201.821 213.14C198.641 213.14 196.931 214.73 196.931 216.95C196.931 221.3 203.801 221.09 203.801 224.3C203.801 225.56 202.781 226.34 201.311 226.34C199.871 226.34 198.101 225.59 197.921 223.04H197.021C197.021 223.04 196.631 224.72 196.631 225.32ZM208.173 220.52C208.173 224.03 210.273 227.36 214.533 227.36C218.103 227.36 219.663 224.54 219.663 224.54L219.333 223.91C219.333 223.91 217.893 225.35 215.433 225.35C212.073 225.35 210.693 222.68 210.573 219.95L210.873 219.59L218.343 218.51C218.943 218.42 219.723 218.12 219.723 218.12C219.633 214.82 217.083 213.14 214.503 213.14C210.873 213.14 208.173 216.44 208.173 220.52ZM214.053 214.28C216.693 214.28 216.933 217.7 216.933 217.7L210.633 218.51C210.903 216.26 212.043 214.28 214.053 214.28ZM221.972 227.09L228.872 226.91L228.992 226.16L226.142 225.89C226.142 225.89 226.292 225.17 226.292 224.27V217.22C226.952 216.47 227.942 215.48 228.962 215.48C229.652 215.48 229.742 215.99 230.432 215.99C231.212 215.99 231.842 215.42 231.842 214.52C231.842 213.5 230.942 213.14 230.222 213.14C228.662 213.14 227.072 214.94 226.172 216.62C226.262 213.8 226.532 212.81 226.532 212.81L226.442 212.72C226.442 212.72 224.522 213.53 221.582 214.13V214.94H222.932C223.802 214.94 223.832 215.69 223.832 216.98V224.27C223.832 225.35 223.322 226.07 221.972 226.22V227.09ZM233.252 225.32C233.252 227.03 236.372 227.36 237.752 227.36C240.602 227.36 242.552 225.92 242.552 223.43C242.552 218.69 235.712 219.26 235.712 216.08C235.712 215.15 236.342 214.16 237.962 214.16C238.592 214.16 240.662 214.31 240.662 216.77H241.592L242.192 213.68C242.192 213.68 240.242 213.14 238.442 213.14C235.262 213.14 233.552 214.73 233.552 216.95C233.552 221.3 240.422 221.09 240.422 224.3C240.422 225.56 239.402 226.34 237.932 226.34C236.492 226.34 234.722 225.59 234.542 223.04H233.642C233.642 223.04 233.252 224.72 233.252 225.32ZM244.593 207.32C245.943 207.98 246.603 208.61 246.603 209.36C246.603 210.11 245.913 210.98 244.653 211.97L245.313 212.69C247.293 211.37 248.283 209.66 248.283 208.07C248.283 206.96 247.833 205.91 246.903 205.04L244.593 206.27V207.32ZM256.887 224.33C256.887 225.95 258.027 227.36 260.007 227.36C263.097 227.36 264.687 224.51 264.687 224.51V225.23C264.687 226.7 265.587 227.36 266.727 227.36C268.497 227.36 269.907 225.77 269.907 225.77L269.517 225.14C269.517 225.14 268.677 225.74 267.867 225.74C267.177 225.74 267.057 225.29 267.057 224.33V217.43C267.057 214.28 266.307 213.14 263.487 213.14C260.127 213.14 257.937 214.82 257.937 214.82L258.447 217.07H259.407C259.407 217.07 260.547 214.19 262.587 214.19C263.697 214.19 264.267 215 264.477 216.11C264.627 216.95 264.627 218.69 264.597 219.32L263.577 219.47C260.457 219.95 256.887 221.45 256.887 224.33ZM261.207 225.65C260.307 225.65 259.527 224.99 259.527 223.79C259.527 221.63 261.957 220.73 263.667 220.46L264.597 220.31V223.85C263.817 224.51 262.377 225.65 261.207 225.65ZM270.986 220.52C270.986 223.97 273.146 227.36 277.346 227.36C280.826 227.36 282.206 224.75 282.206 224.75L281.876 224.12C281.876 224.12 280.646 225.35 278.396 225.35C274.856 225.35 273.446 222.53 273.446 219.65C273.446 216.74 274.796 214.16 277.196 214.16C279.296 214.16 279.476 216.5 281.006 216.5C281.726 216.5 282.146 215.99 282.146 215.42C282.146 213.86 279.236 213.14 277.406 213.14C273.266 213.14 270.986 216.89 270.986 220.52ZM285.698 223.43C285.698 226.16 286.898 227.36 289.028 227.36C291.638 227.36 293.348 225.5 293.348 225.5L292.958 224.93C292.958 224.93 291.608 225.56 290.258 225.56C288.668 225.56 288.158 224.6 288.158 222.86V215.24L288.458 214.94H292.598L292.808 213.5H288.128V213.05C288.128 210.92 288.398 210.05 288.398 210.05L288.308 209.96L286.958 209.93L285.848 213.2C285.128 213.86 283.808 214.13 283.808 214.13V215.03H285.788C285.788 215.03 285.698 216.11 285.698 216.98V223.43ZM294.628 227.09L301.228 226.91L301.348 226.16L298.798 225.89C298.798 225.89 298.948 225.17 298.948 224.27V216.23C298.948 213.8 299.278 212.81 299.278 212.81L299.248 212.72C299.248 212.72 298.618 213.11 294.238 214.13V214.94H295.588C296.458 214.94 296.488 215.69 296.488 216.98V224.27C296.488 225.35 295.978 226.07 294.628 226.22V227.09ZM297.448 210.08C298.318 210.08 299.068 209.33 299.068 208.46C299.068 207.59 298.318 206.84 297.448 206.84C296.578 206.84 295.828 207.59 295.828 208.46C295.828 209.33 296.578 210.08 297.448 210.08ZM302.861 220.55C302.861 224.39 305.201 227.36 309.431 227.36C314.231 227.36 316.541 223.43 316.541 219.71C316.541 216.02 314.291 213.14 309.911 213.14C304.811 213.14 302.861 217.04 302.861 220.55ZM305.621 219.86C305.621 216.98 306.791 214.16 309.551 214.16C312.581 214.16 313.781 217.58 313.781 220.55C313.781 223.76 312.401 226.34 309.851 226.34C306.851 226.34 305.621 222.86 305.621 219.86ZM318.828 227.09L325.278 226.91L325.397 226.16L322.998 225.86C322.998 225.86 323.148 225.17 323.148 224.27V217.07C324.408 215.78 326.238 214.97 327.618 214.97C328.818 214.97 329.688 215.57 329.688 217.85V224.27C329.688 225.35 329.328 226.07 327.978 226.22V227.09L334.428 226.91L334.548 226.16L331.998 225.86C331.998 225.86 332.148 225.17 332.148 224.27V217.19C332.148 214.28 330.798 213.14 328.728 213.14C326.208 213.14 324.108 214.85 323.028 216.47C323.058 213.8 323.328 212.81 323.328 212.81L323.238 212.72C323.238 212.72 321.378 213.53 318.438 214.13V214.94H319.788C320.658 214.94 320.688 215.69 320.688 216.98V224.27C320.688 225.35 320.178 226.07 318.828 226.22V227.09ZM336.025 225.32C336.025 227.03 339.145 227.36 340.525 227.36C343.375 227.36 345.325 225.92 345.325 223.43C345.325 218.69 338.485 219.26 338.485 216.08C338.485 215.15 339.115 214.16 340.735 214.16C341.365 214.16 343.435 214.31 343.435 216.77H344.365L344.965 213.68C344.965 213.68 343.015 213.14 341.215 213.14C338.035 213.14 336.325 214.73 336.325 216.95C336.325 221.3 343.195 221.09 343.195 224.3C343.195 225.56 342.175 226.34 340.705 226.34C339.265 226.34 337.495 225.59 337.315 223.04H336.415C336.415 223.04 336.025 224.72 336.025 225.32Z" fill="#333333"/>
</svg>
