<svg width="472" height="264" viewBox="0 0 472 264" fill="none" xmlns="http://www.w3.org/2000/svg">
<path d="M3 3H469V261H3V3Z" fill="white" stroke="#1342E7" stroke-width="6"/>
<path d="M35.11 33.778C31.51 33.778 28.864 36.478 28.864 40.006C28.864 43.534 31.51 46.234 35.11 46.234C38.71 46.234 41.356 43.534 41.356 40.006C41.356 36.478 38.71 33.778 35.11 33.778ZM35.11 44.542C32.536 44.542 30.7 42.67 30.7 40.006C30.7 37.342 32.536 35.47 35.11 35.47C37.684 35.47 39.52 37.342 39.52 40.006C39.52 42.67 37.684 44.542 35.11 44.542ZM44.3807 33.994V46H46.2167V41.086H46.5407L49.9787 46H52.1927L48.4487 40.87C50.0507 40.51 51.1127 39.25 51.1127 37.522C51.1127 37 51.0047 35.578 49.6907 34.696C48.9167 34.174 47.9807 33.994 46.5227 33.994H44.3807ZM46.2167 35.686H46.8467C47.7467 35.686 49.3487 35.848 49.3487 37.54C49.3487 39.448 47.2967 39.502 46.7927 39.502H46.2167V35.686ZM54.7159 33.994V46H56.5519V33.994H54.7159ZM66.3569 41.446H69.3449C69.2729 42.13 69.0029 42.832 68.3369 43.48C67.5629 44.236 66.6989 44.542 65.6549 44.542C64.5029 44.542 63.4769 44.218 62.6489 43.336C61.8569 42.49 61.4069 41.284 61.4069 40.078C61.4069 38.782 61.8929 37.504 62.6849 36.712C63.2789 36.118 64.2869 35.47 65.8529 35.47C66.5909 35.47 67.3109 35.596 67.9769 35.992C68.5529 36.316 69.0929 36.856 69.4529 37.36L70.9109 36.334C70.5689 35.794 69.9569 35.092 68.9669 34.534C68.0309 34.012 66.9149 33.778 65.8349 33.778C63.9809 33.778 62.3429 34.534 61.3169 35.578C60.3269 36.568 59.5709 38.188 59.5709 40.06C59.5709 41.788 60.1829 43.39 61.3529 44.596C62.4509 45.73 63.6929 46.234 65.4389 46.234C66.8069 46.234 68.2829 45.91 69.5249 44.704C70.6949 43.57 71.3069 41.896 71.3069 39.844V39.754H66.3569V41.446ZM74.3317 33.994V46H76.1677V33.994H74.3317ZM81.5987 46V37.612L90.3107 46.738V33.994H88.4747V42.31L79.7627 33.184V46H81.5987ZM104.504 33.778C100.904 33.778 98.2575 36.478 98.2575 40.006C98.2575 43.534 100.904 46.234 104.504 46.234C108.104 46.234 110.75 43.534 110.75 40.006C110.75 36.478 108.104 33.778 104.504 33.778ZM104.504 44.542C101.93 44.542 100.094 42.67 100.094 40.006C100.094 37.342 101.93 35.47 104.504 35.47C107.078 35.47 108.914 37.342 108.914 40.006C108.914 42.67 107.078 44.542 104.504 44.542ZM119.523 33.994H113.511V46H115.347V40.492H119.379V38.764H115.347V35.722H119.523V33.994ZM127.255 33.994V46H129.091V41.122H129.919C130.801 41.122 131.899 40.996 132.853 40.186C133.843 39.34 134.023 38.26 134.023 37.558C134.023 36.46 133.537 35.308 132.529 34.642C131.665 34.066 130.639 33.994 129.901 33.994H127.255ZM129.091 35.686H129.901C131.989 35.686 132.259 36.874 132.259 37.54C132.259 38.656 131.503 39.43 129.919 39.43H129.091V35.686ZM144.395 46H146.375L140.687 33.292L134.711 46H136.691L138.005 43.102H143.135L144.395 46ZM138.761 41.374L140.615 37.306L142.397 41.374H138.761ZM148.611 33.994V46H150.447V33.994H148.611ZM155.878 46V37.612L164.59 46.738V33.994H162.754V42.31L154.042 33.184V46H155.878ZM173.113 33.994V46H174.949V41.122H175.777C176.659 41.122 177.757 40.996 178.711 40.186C179.701 39.34 179.881 38.26 179.881 37.558C179.881 36.46 179.395 35.308 178.387 34.642C177.523 34.066 176.497 33.994 175.759 33.994H173.113ZM174.949 35.686H175.759C177.847 35.686 178.117 36.874 178.117 37.54C178.117 38.656 177.361 39.43 175.777 39.43H174.949V35.686ZM188.151 33.778C184.551 33.778 181.905 36.478 181.905 40.006C181.905 43.534 184.551 46.234 188.151 46.234C191.751 46.234 194.397 43.534 194.397 40.006C194.397 36.478 191.751 33.778 188.151 33.778ZM188.151 44.542C185.577 44.542 183.741 42.67 183.741 40.006C183.741 37.342 185.577 35.47 188.151 35.47C190.725 35.47 192.561 37.342 192.561 40.006C192.561 42.67 190.725 44.542 188.151 44.542ZM197.422 33.994V46H199.258V33.994H197.422ZM204.689 46V37.612L213.401 46.738V33.994H211.565V42.31L202.853 33.184V46H204.689ZM223.087 35.722V33.994H215.743V35.722H218.497V46H220.333V35.722H223.087ZM231.891 37.054C231.891 36.982 231.981 36.334 232.395 35.902C232.791 35.488 233.295 35.416 233.727 35.416C234.087 35.416 234.591 35.47 235.005 35.866C235.203 36.064 235.473 36.442 235.473 37.072C235.473 37.612 235.293 38.062 235.005 38.35C234.735 38.62 234.249 38.872 233.475 38.872H233.223V40.42H233.583C233.961 40.42 234.609 40.456 235.131 40.96C235.599 41.41 235.671 41.986 235.671 42.382C235.671 43.192 235.383 43.75 235.041 44.074C234.717 44.362 234.195 44.578 233.637 44.578C232.881 44.578 232.431 44.272 232.179 44.038C231.873 43.75 231.621 43.282 231.531 42.742H229.767C229.857 43.66 230.253 44.614 230.793 45.19C231.567 46.018 232.557 46.198 233.475 46.198C234.411 46.198 235.545 46.018 236.409 45.154C236.985 44.578 237.435 43.66 237.435 42.472C237.435 41.788 237.273 41.122 236.931 40.618C236.733 40.312 236.355 39.898 235.743 39.664C236.085 39.484 236.499 39.178 236.823 38.656C237.129 38.152 237.237 37.648 237.237 37.072C237.237 36.208 237.003 35.434 236.373 34.786C235.599 33.976 234.699 33.796 233.781 33.796C232.989 33.796 231.981 33.922 231.153 34.714C230.595 35.254 230.181 36.082 230.127 37.054H231.891ZM27.61 106H33.16L33.28 105.16L30.73 104.8L32.8 99.4L33.19 99.1H40.36L42.19 103.9C42.52 104.8 41.77 105.04 40.93 105.07V106.09C40.93 106.09 44.38 106 45.49 106H46.78L46.9 105.19C45.97 105.04 45.43 104.89 44.62 102.85L37.96 85.81L36.73 86.08L29.62 103.78C29.38 104.38 28.87 105.01 27.61 105.13V106ZM37.3 91L39.88 97.84H33.37L36.7 89.17C36.82 89.62 37.06 90.4 37.3 91ZM54.5697 113.35C56.7297 112.63 61.4697 112.06 61.4697 112.06L61.5897 111.34H58.4397C58.4397 111.34 58.5897 110.53 58.5897 109.63V106.18C59.1597 106.27 59.7897 106.36 60.5997 106.36C65.8797 106.36 68.3097 102.49 68.3097 98.68C68.3097 95.38 66.5097 92.14 62.8497 92.14C60.4797 92.14 59.3397 93.46 58.5297 94.48C58.6497 92.56 58.8297 91.81 58.8297 91.81L58.7397 91.72C58.7397 91.72 56.9697 92.53 54.0297 93.13V93.94H55.2297C56.0997 93.94 56.1297 94.69 56.1297 95.98V109.66C56.1297 111.04 55.9197 111.73 54.5697 112.48V113.35ZM60.7497 105.22C59.7597 105.22 58.5897 105.01 58.5897 103.6V95.14C59.5197 94.42 60.5997 93.88 61.7697 93.88C64.4397 93.88 65.6997 96.67 65.6997 99.55C65.6997 102.97 63.8697 105.22 60.7497 105.22ZM70.5951 99.52C70.5951 103.03 72.6951 106.36 76.9551 106.36C80.5251 106.36 82.0851 103.54 82.0851 103.54L81.7551 102.91C81.7551 102.91 80.3151 104.35 77.8551 104.35C74.4951 104.35 73.1151 101.68 72.9951 98.95L73.2951 98.59L80.7651 97.51C81.3651 97.42 82.1451 97.12 82.1451 97.12C82.0551 93.82 79.5051 92.14 76.9251 92.14C73.2951 92.14 70.5951 95.44 70.5951 99.52ZM76.4751 93.28C79.1151 93.28 79.3551 96.7 79.3551 96.7L73.0551 97.51C73.3251 95.26 74.4651 93.28 76.4751 93.28ZM84.3939 106.09L91.2939 105.91L91.4139 105.16L88.5639 104.89C88.5639 104.89 88.7139 104.17 88.7139 103.27V96.22C89.3739 95.47 90.3639 94.48 91.3839 94.48C92.0739 94.48 92.1639 94.99 92.8539 94.99C93.6339 94.99 94.2639 94.42 94.2639 93.52C94.2639 92.5 93.3639 92.14 92.6439 92.14C91.0839 92.14 89.4939 93.94 88.5939 95.62C88.6839 92.8 88.9539 91.81 88.9539 91.81L88.8639 91.72C88.8639 91.72 86.9439 92.53 84.0039 93.13V93.94H85.3539C86.2239 93.94 86.2539 94.69 86.2539 95.98V103.27C86.2539 104.35 85.7439 105.07 84.3939 105.22V106.09ZM95.6739 104.32C95.6739 106.03 98.7939 106.36 100.174 106.36C103.024 106.36 104.974 104.92 104.974 102.43C104.974 97.69 98.1339 98.26 98.1339 95.08C98.1339 94.15 98.7639 93.16 100.384 93.16C101.014 93.16 103.084 93.31 103.084 95.77H104.014L104.614 92.68C104.614 92.68 102.664 92.14 100.864 92.14C97.6839 92.14 95.9739 93.73 95.9739 95.95C95.9739 100.3 102.844 100.09 102.844 103.3C102.844 104.56 101.824 105.34 100.354 105.34C98.9139 105.34 97.1439 104.59 96.9639 102.04H96.0639C96.0639 102.04 95.6739 103.72 95.6739 104.32ZM107.216 99.55C107.216 103.39 109.556 106.36 113.786 106.36C118.586 106.36 120.896 102.43 120.896 98.71C120.896 95.02 118.646 92.14 114.266 92.14C109.166 92.14 107.216 96.04 107.216 99.55ZM109.976 98.86C109.976 95.98 111.146 93.16 113.906 93.16C116.936 93.16 118.136 96.58 118.136 99.55C118.136 102.76 116.756 105.34 114.206 105.34C111.206 105.34 109.976 101.86 109.976 98.86ZM123.183 106.09L129.633 105.91L129.753 105.16L127.353 104.86C127.353 104.86 127.503 104.17 127.503 103.27V96.07C128.763 94.78 130.593 93.97 131.973 93.97C133.173 93.97 134.043 94.57 134.043 96.85V103.27C134.043 104.35 133.683 105.07 132.333 105.22V106.09L138.783 105.91L138.903 105.16L136.353 104.86C136.353 104.86 136.503 104.17 136.503 103.27V96.19C136.503 93.28 135.153 92.14 133.083 92.14C130.563 92.14 128.463 93.85 127.383 95.47C127.413 92.8 127.683 91.81 127.683 91.81L127.593 91.72C127.593 91.72 125.733 92.53 122.793 93.13V93.94H124.143C125.013 93.94 125.043 94.69 125.043 95.98V103.27C125.043 104.35 124.533 105.07 123.183 105.22V106.09ZM140.051 103.33C140.051 104.95 141.191 106.36 143.171 106.36C146.261 106.36 147.851 103.51 147.851 103.51V104.23C147.851 105.7 148.751 106.36 149.891 106.36C151.661 106.36 153.071 104.77 153.071 104.77L152.681 104.14C152.681 104.14 151.841 104.74 151.031 104.74C150.341 104.74 150.221 104.29 150.221 103.33V96.43C150.221 93.28 149.471 92.14 146.651 92.14C143.291 92.14 141.101 93.82 141.101 93.82L141.611 96.07H142.571C142.571 96.07 143.711 93.19 145.751 93.19C146.861 93.19 147.431 94 147.641 95.11C147.791 95.95 147.791 97.69 147.761 98.32L146.741 98.47C143.621 98.95 140.051 100.45 140.051 103.33ZM144.371 104.65C143.471 104.65 142.691 103.99 142.691 102.79C142.691 100.63 145.121 99.73 146.831 99.46L147.761 99.31V102.85C146.981 103.51 145.541 104.65 144.371 104.65ZM153.85 106.09L160.45 105.91L160.57 105.16L158.02 104.89C158.02 104.89 158.17 104.17 158.17 103.27V87.34C158.17 85.03 158.47 83.92 158.47 83.92L158.38 83.83C158.38 83.83 157 84.43 153.55 85.18V85.99H154.81C155.68 85.99 155.71 86.74 155.71 88.03V103.27C155.71 104.35 155.2 105.07 153.85 105.22V106.09ZM162.148 106.09L168.748 105.91L168.868 105.16L166.318 104.89C166.318 104.89 166.468 104.17 166.468 103.27V95.23C166.468 92.8 166.798 91.81 166.798 91.81L166.768 91.72C166.768 91.72 166.138 92.11 161.758 93.13V93.94H163.108C163.978 93.94 164.008 94.69 164.008 95.98V103.27C164.008 104.35 163.498 105.07 162.148 105.22V106.09ZM164.968 89.08C165.838 89.08 166.588 88.33 166.588 87.46C166.588 86.59 165.838 85.84 164.968 85.84C164.098 85.84 163.348 86.59 163.348 87.46C163.348 88.33 164.098 89.08 164.968 89.08ZM170.528 106.12C170.528 106.12 171.278 106 172.568 106H180.728L181.538 101.98H180.668C180.668 101.98 180.008 104.98 177.098 104.98H173.438C173.798 104.53 174.248 103.96 174.548 103.48L180.218 94.6C181.118 93.22 181.238 93.16 181.238 93.16L180.998 92.38C180.998 92.38 180.248 92.5 178.958 92.5H171.068L170.528 96.04H171.398C171.638 95.2 172.448 93.49 174.278 93.49H178.268C177.908 93.94 177.458 94.51 177.188 94.93L171.368 103.9C170.618 105.04 170.288 105.34 170.288 105.34L170.528 106.12ZM183.652 99.52C183.652 103.03 185.752 106.36 190.012 106.36C193.582 106.36 195.142 103.54 195.142 103.54L194.812 102.91C194.812 102.91 193.372 104.35 190.912 104.35C187.552 104.35 186.172 101.68 186.052 98.95L186.352 98.59L193.822 97.51C194.422 97.42 195.202 97.12 195.202 97.12C195.112 93.82 192.562 92.14 189.982 92.14C186.352 92.14 183.652 95.44 183.652 99.52ZM189.532 93.28C192.172 93.28 192.412 96.7 192.412 96.7L186.112 97.51C186.382 95.26 187.522 93.28 189.532 93.28ZM197.421 99.85C197.421 103.12 199.371 106.36 203.061 106.36C205.311 106.36 206.541 105.13 207.351 103.93V104.56C207.351 105.31 207.231 106.15 207.231 106.15L207.321 106.24C207.321 106.24 208.851 106 212.121 105.67L212.211 104.86H211.371C210.381 104.86 209.691 104.86 209.691 103.15V87.34C209.691 85.03 209.991 83.92 209.991 83.92L209.901 83.83C209.901 83.83 208.521 84.43 205.071 85.18V85.99H206.331C207.201 85.99 207.231 86.74 207.231 88.03V92.32C207.231 92.32 206.181 92.14 205.101 92.14C199.971 92.14 197.421 96.07 197.421 99.85ZM204.111 104.62C201.411 104.62 200.031 101.83 200.031 98.95C200.031 95.47 202.011 93.28 205.071 93.28C206.031 93.28 207.231 93.49 207.231 94.87V103.3C206.751 103.78 205.581 104.62 204.111 104.62ZM220.331 106.09L226.781 105.91L226.901 105.16L224.501 104.89C224.501 104.89 224.651 104.17 224.651 103.27V96.07C225.941 94.78 227.621 93.97 228.971 93.97C230.111 93.97 230.741 94.57 230.741 96.85V103.27C230.741 104.35 230.381 105.07 229.031 105.22V106.09L235.331 105.91L235.451 105.16L233.051 104.89C233.051 104.89 233.201 104.17 233.201 103.27V96.94C233.201 95.2 236.261 93.97 237.611 93.97C238.721 93.97 239.351 94.57 239.351 96.85V103.27C239.351 104.35 238.991 105.07 237.641 105.22V106.09L244.091 105.91L244.211 105.16L241.661 104.89C241.661 104.89 241.811 104.17 241.811 103.27V96.19C241.811 93.19 240.551 92.14 238.601 92.14C236.231 92.14 234.251 93.79 233.111 95.59C233.111 93.22 231.881 92.14 229.961 92.14C227.531 92.14 225.611 93.88 224.531 95.44C224.621 92.77 224.891 91.81 224.891 91.81L224.801 91.72C224.801 91.72 222.941 92.53 220.001 93.13V93.94H221.291C222.161 93.94 222.191 94.69 222.191 95.98V103.27C222.191 104.35 221.681 105.07 220.331 105.22V106.09ZM247.025 102.34C247.025 105.22 248.315 106.36 250.415 106.36C252.935 106.36 254.915 104.59 255.995 103V104.56C255.995 105.31 255.725 106.18 255.725 106.18L255.845 106.27C255.845 106.27 257.495 106 260.765 105.67L260.855 104.86H260.015C259.025 104.86 258.335 104.86 258.335 103.15V95.23C258.335 92.92 258.605 92.08 258.605 92.08L258.485 91.99C258.485 91.99 256.865 92.59 253.985 93.1V93.94H254.975C255.845 93.94 255.875 94.69 255.875 95.98V102.4C254.585 103.72 252.905 104.53 251.525 104.53C250.295 104.53 249.485 103.93 249.485 101.65V95.23C249.485 92.92 249.755 92.08 249.755 92.08L249.635 91.99C249.635 91.99 247.985 92.59 245.075 93.1V93.94H246.125C246.995 93.94 247.025 94.69 247.025 95.98V102.34ZM262.373 104.32C262.373 106.03 265.493 106.36 266.873 106.36C269.723 106.36 271.673 104.92 271.673 102.43C271.673 97.69 264.833 98.26 264.833 95.08C264.833 94.15 265.463 93.16 267.083 93.16C267.713 93.16 269.783 93.31 269.783 95.77H270.713L271.313 92.68C271.313 92.68 269.363 92.14 267.563 92.14C264.383 92.14 262.673 93.73 262.673 95.95C262.673 100.3 269.543 100.09 269.543 103.3C269.543 104.56 268.523 105.34 267.053 105.34C265.613 105.34 263.843 104.59 263.663 102.04H262.763C262.763 102.04 262.373 103.72 262.373 104.32ZM273.915 106.09L280.515 105.91L280.635 105.16L278.085 104.89C278.085 104.89 278.235 104.17 278.235 103.27V95.23C278.235 92.8 278.565 91.81 278.565 91.81L278.535 91.72C278.535 91.72 277.905 92.11 273.525 93.13V93.94H274.875C275.745 93.94 275.775 94.69 275.775 95.98V103.27C275.775 104.35 275.265 105.07 273.915 105.22V106.09ZM276.735 89.08C277.605 89.08 278.355 88.33 278.355 87.46C278.355 86.59 277.605 85.84 276.735 85.84C275.865 85.84 275.115 86.59 275.115 87.46C275.115 88.33 275.865 89.08 276.735 89.08ZM282.148 99.52C282.148 102.97 284.308 106.36 288.508 106.36C291.988 106.36 293.368 103.75 293.368 103.75L293.038 103.12C293.038 103.12 291.808 104.35 289.558 104.35C286.018 104.35 284.608 101.53 284.608 98.65C284.608 95.74 285.958 93.16 288.358 93.16C290.458 93.16 290.638 95.5 292.168 95.5C292.888 95.5 293.308 94.99 293.308 94.42C293.308 92.86 290.398 92.14 288.568 92.14C284.428 92.14 282.148 95.89 282.148 99.52ZM302.098 99.85C302.098 103.12 304.048 106.36 307.738 106.36C309.988 106.36 311.218 105.13 312.028 103.93V104.56C312.028 105.31 311.908 106.15 311.908 106.15L311.998 106.24C311.998 106.24 313.528 106 316.798 105.67L316.888 104.86H316.048C315.058 104.86 314.368 104.86 314.368 103.15V87.34C314.368 85.03 314.668 83.92 314.668 83.92L314.578 83.83C314.578 83.83 313.198 84.43 309.748 85.18V85.99H311.008C311.878 85.99 311.908 86.74 311.908 88.03V92.32C311.908 92.32 310.858 92.14 309.778 92.14C304.648 92.14 302.098 96.07 302.098 99.85ZM308.788 104.62C306.088 104.62 304.708 101.83 304.708 98.95C304.708 95.47 306.688 93.28 309.748 93.28C310.708 93.28 311.908 93.49 311.908 94.87V103.3C311.428 103.78 310.258 104.62 308.788 104.62ZM318.3 106.09L324.9 105.91L325.02 105.16L322.47 104.89C322.47 104.89 322.62 104.17 322.62 103.27V95.23C322.62 92.8 322.95 91.81 322.95 91.81L322.92 91.72C322.92 91.72 322.29 92.11 317.91 93.13V93.94H319.26C320.13 93.94 320.16 94.69 320.16 95.98V103.27C320.16 104.35 319.65 105.07 318.3 105.22V106.09ZM321.12 89.08C321.99 89.08 322.74 88.33 322.74 87.46C322.74 86.59 321.99 85.84 321.12 85.84C320.25 85.84 319.5 86.59 319.5 87.46C319.5 88.33 320.25 89.08 321.12 89.08ZM326.65 104.32C326.65 106.03 329.77 106.36 331.15 106.36C334 106.36 335.95 104.92 335.95 102.43C335.95 97.69 329.11 98.26 329.11 95.08C329.11 94.15 329.74 93.16 331.36 93.16C331.99 93.16 334.06 93.31 334.06 95.77H334.99L335.59 92.68C335.59 92.68 333.64 92.14 331.84 92.14C328.66 92.14 326.95 93.73 326.95 95.95C326.95 100.3 333.82 100.09 333.82 103.3C333.82 104.56 332.8 105.34 331.33 105.34C329.89 105.34 328.12 104.59 327.94 102.04H327.04C327.04 102.04 326.65 103.72 326.65 104.32ZM338.193 99.52C338.193 102.97 340.353 106.36 344.553 106.36C348.033 106.36 349.413 103.75 349.413 103.75L349.083 103.12C349.083 103.12 347.853 104.35 345.603 104.35C342.063 104.35 340.653 101.53 340.653 98.65C340.653 95.74 342.003 93.16 344.403 93.16C346.503 93.16 346.683 95.5 348.213 95.5C348.933 95.5 349.353 94.99 349.353 94.42C349.353 92.86 346.443 92.14 344.613 92.14C340.473 92.14 338.193 95.89 338.193 99.52ZM351.435 99.55C351.435 103.39 353.775 106.36 358.005 106.36C362.805 106.36 365.115 102.43 365.115 98.71C365.115 95.02 362.865 92.14 358.485 92.14C353.385 92.14 351.435 96.04 351.435 99.55ZM354.195 98.86C354.195 95.98 355.365 93.16 358.125 93.16C361.155 93.16 362.355 96.58 362.355 99.55C362.355 102.76 360.975 105.34 358.425 105.34C355.425 105.34 354.195 101.86 354.195 98.86ZM372.262 106L373.522 106.39L378.772 94.54C379.402 93.16 379.852 92.98 379.852 92.98L379.702 92.5H375.652V93.25C376.792 93.52 377.722 94.12 377.152 95.44L373.612 103.45C373.462 102.88 373.252 102.13 373.072 101.59L370.792 95.26C370.462 94.36 370.462 93.31 370.822 92.5L370.702 92.38C370.702 92.38 369.592 92.5 367.702 92.5H366.322V93.25C366.322 93.25 367.372 93.46 367.972 94.99L372.262 106ZM381.113 99.52C381.113 103.03 383.213 106.36 387.473 106.36C391.043 106.36 392.603 103.54 392.603 103.54L392.273 102.91C392.273 102.91 390.833 104.35 388.373 104.35C385.013 104.35 383.633 101.68 383.513 98.95L383.813 98.59L391.283 97.51C391.883 97.42 392.663 97.12 392.663 97.12C392.573 93.82 390.023 92.14 387.443 92.14C383.813 92.14 381.113 95.44 381.113 99.52ZM386.993 93.28C389.633 93.28 389.873 96.7 389.873 96.7L383.573 97.51C383.843 95.26 384.983 93.28 386.993 93.28ZM394.911 106.09L401.811 105.91L401.931 105.16L399.081 104.89C399.081 104.89 399.231 104.17 399.231 103.27V96.22C399.891 95.47 400.881 94.48 401.901 94.48C402.591 94.48 402.681 94.99 403.371 94.99C404.151 94.99 404.781 94.42 404.781 93.52C404.781 92.5 403.881 92.14 403.161 92.14C401.601 92.14 400.011 93.94 399.111 95.62C399.201 92.8 399.471 91.81 399.471 91.81L399.381 91.72C399.381 91.72 397.461 92.53 394.521 93.13V93.94H395.871C396.741 93.94 396.771 94.69 396.771 95.98V103.27C396.771 104.35 396.261 105.07 394.911 105.22V106.09ZM407.65 110.62C406.57 110.62 406.18 111.25 406.18 111.85C406.18 112.51 406.63 113.11 407.5 113.11C410.38 113.11 412.09 108.16 412.9 106.36L418.09 94.57C418.63 93.28 419.17 92.98 419.17 92.98L419.02 92.5H414.85V93.25C415.96 93.55 417.01 94.21 416.5 95.41L413.11 103.15C412.96 102.61 412.72 101.86 412.54 101.35L410.11 95.26C409.78 94.45 409.78 93.22 410.14 92.5L410.02 92.38C410.02 92.38 408.85 92.5 406.96 92.5H405.55V93.25C405.55 93.25 406.6 93.49 407.23 94.99L411.07 104.17C411.4 105.01 411.64 105.7 411.79 106.12L410.83 108.37C410.29 109.6 409.24 110.62 407.65 110.62ZM29.14 139.52C29.14 143.03 31.24 146.36 35.5 146.36C39.07 146.36 40.63 143.54 40.63 143.54L40.3 142.91C40.3 142.91 38.86 144.35 36.4 144.35C33.04 144.35 31.66 141.68 31.54 138.95L31.84 138.59L39.31 137.51C39.91 137.42 40.69 137.12 40.69 137.12C40.6 133.82 38.05 132.14 35.47 132.14C31.84 132.14 29.14 135.44 29.14 139.52ZM35.02 133.28C37.66 133.28 37.9 136.7 37.9 136.7L31.6 137.51C31.87 135.26 33.01 133.28 35.02 133.28ZM50.2888 146.09L56.0788 145.91L56.1988 145.19L54.8488 145.07L50.2888 138.59L53.5588 134.48C54.6088 133.16 55.6288 132.98 55.6288 132.98L55.4788 132.5H50.7688V133.25C52.2088 133.46 52.4788 134 51.9988 134.66L49.6588 137.63L47.6488 134.66C46.8688 133.52 47.2288 132.5 47.2288 132.5L47.1088 132.38C47.1088 132.38 46.0288 132.5 44.0188 132.5H42.5788V133.25C42.5788 133.25 43.8088 133.37 44.8288 134.84L48.0388 139.4L44.3488 144.02C44.0188 144.41 43.4488 145.1 42.2788 145.22V146.09L47.2588 145.91L47.3788 145.16L45.0988 144.89L48.6688 140.36L51.2188 144.05C51.7288 144.8 51.6088 145.16 50.2888 145.16V146.09ZM57.6166 153.35C59.7766 152.63 64.5166 152.06 64.5166 152.06L64.6366 151.34H61.4866C61.4866 151.34 61.6366 150.53 61.6366 149.63V146.18C62.2066 146.27 62.8366 146.36 63.6466 146.36C68.9266 146.36 71.3566 142.49 71.3566 138.68C71.3566 135.38 69.5566 132.14 65.8966 132.14C63.5266 132.14 62.3866 133.46 61.5766 134.48C61.6966 132.56 61.8766 131.81 61.8766 131.81L61.7866 131.72C61.7866 131.72 60.0166 132.53 57.0766 133.13V133.94H58.2766C59.1466 133.94 59.1766 134.69 59.1766 135.98V149.66C59.1766 151.04 58.9666 151.73 57.6166 152.48V153.35ZM63.7966 145.22C62.8066 145.22 61.6366 145.01 61.6366 143.6V135.14C62.5666 134.42 63.6466 133.88 64.8166 133.88C67.4866 133.88 68.7466 136.67 68.7466 139.55C68.7466 142.97 66.9166 145.22 63.7966 145.22ZM73.642 139.52C73.642 143.03 75.742 146.36 80.002 146.36C83.572 146.36 85.132 143.54 85.132 143.54L84.802 142.91C84.802 142.91 83.362 144.35 80.902 144.35C77.542 144.35 76.162 141.68 76.042 138.95L76.342 138.59L83.812 137.51C84.412 137.42 85.192 137.12 85.192 137.12C85.102 133.82 82.552 132.14 79.972 132.14C76.342 132.14 73.642 135.44 73.642 139.52ZM79.522 133.28C82.162 133.28 82.402 136.7 82.402 136.7L76.102 137.51C76.372 135.26 77.512 133.28 79.522 133.28ZM87.4408 146.09L94.3408 145.91L94.4608 145.16L91.6108 144.89C91.6108 144.89 91.7608 144.17 91.7608 143.27V136.22C92.4208 135.47 93.4108 134.48 94.4308 134.48C95.1208 134.48 95.2108 134.99 95.9008 134.99C96.6808 134.99 97.3108 134.42 97.3108 133.52C97.3108 132.5 96.4108 132.14 95.6908 132.14C94.1308 132.14 92.5408 133.94 91.6408 135.62C91.7308 132.8 92.0008 131.81 92.0008 131.81L91.9108 131.72C91.9108 131.72 89.9908 132.53 87.0508 133.13V133.94H88.4008C89.2708 133.94 89.3008 134.69 89.3008 135.98V143.27C89.3008 144.35 88.7908 145.07 87.4408 145.22V146.09ZM98.6908 146.09L105.291 145.91L105.411 145.16L102.861 144.89C102.861 144.89 103.011 144.17 103.011 143.27V135.23C103.011 132.8 103.341 131.81 103.341 131.81L103.311 131.72C103.311 131.72 102.681 132.11 98.3008 133.13V133.94H99.6508C100.521 133.94 100.551 134.69 100.551 135.98V143.27C100.551 144.35 100.041 145.07 98.6908 145.22V146.09ZM101.511 129.08C102.381 129.08 103.131 128.33 103.131 127.46C103.131 126.59 102.381 125.84 101.511 125.84C100.641 125.84 99.8908 126.59 99.8908 127.46C99.8908 128.33 100.641 129.08 101.511 129.08ZM106.923 139.52C106.923 143.03 109.023 146.36 113.283 146.36C116.853 146.36 118.413 143.54 118.413 143.54L118.083 142.91C118.083 142.91 116.643 144.35 114.183 144.35C110.823 144.35 109.443 141.68 109.323 138.95L109.623 138.59L117.093 137.51C117.693 137.42 118.473 137.12 118.473 137.12C118.383 133.82 115.833 132.14 113.253 132.14C109.623 132.14 106.923 135.44 106.923 139.52ZM112.803 133.28C115.443 133.28 115.683 136.7 115.683 136.7L109.383 137.51C109.653 135.26 110.793 133.28 112.803 133.28ZM120.722 146.09L127.172 145.91L127.292 145.16L124.892 144.86C124.892 144.86 125.042 144.17 125.042 143.27V136.07C126.302 134.78 128.132 133.97 129.512 133.97C130.712 133.97 131.582 134.57 131.582 136.85V143.27C131.582 144.35 131.222 145.07 129.872 145.22V146.09L136.322 145.91L136.442 145.16L133.892 144.86C133.892 144.86 134.042 144.17 134.042 143.27V136.19C134.042 133.28 132.692 132.14 130.622 132.14C128.102 132.14 126.002 133.85 124.922 135.47C124.952 132.8 125.222 131.81 125.222 131.81L125.132 131.72C125.132 131.72 123.272 132.53 120.332 133.13V133.94H121.682C122.552 133.94 122.582 134.69 122.582 135.98V143.27C122.582 144.35 122.072 145.07 120.722 145.22V146.09ZM137.89 139.52C137.89 142.97 140.05 146.36 144.25 146.36C147.73 146.36 149.11 143.75 149.11 143.75L148.78 143.12C148.78 143.12 147.55 144.35 145.3 144.35C141.76 144.35 140.35 141.53 140.35 138.65C140.35 135.74 141.7 133.16 144.1 133.16C146.2 133.16 146.38 135.5 147.91 135.5C148.63 135.5 149.05 134.99 149.05 134.42C149.05 132.86 146.14 132.14 144.31 132.14C140.17 132.14 137.89 135.89 137.89 139.52ZM151.132 139.52C151.132 143.03 153.232 146.36 157.492 146.36C161.062 146.36 162.622 143.54 162.622 143.54L162.292 142.91C162.292 142.91 160.852 144.35 158.392 144.35C155.032 144.35 153.652 141.68 153.532 138.95L153.832 138.59L161.302 137.51C161.902 137.42 162.682 137.12 162.682 137.12C162.592 133.82 160.042 132.14 157.462 132.14C153.832 132.14 151.132 135.44 151.132 139.52ZM157.012 133.28C159.652 133.28 159.892 136.7 159.892 136.7L153.592 137.51C153.862 135.26 155.002 133.28 157.012 133.28ZM173.139 142.43C173.139 145.16 174.339 146.36 176.469 146.36C179.079 146.36 180.789 144.5 180.789 144.5L180.399 143.93C180.399 143.93 179.049 144.56 177.699 144.56C176.109 144.56 175.599 143.6 175.599 141.86V134.24L175.899 133.94H180.039L180.249 132.5H175.569V132.05C175.569 129.92 175.839 129.05 175.839 129.05L175.749 128.96L174.399 128.93L173.289 132.2C172.569 132.86 171.249 133.13 171.249 133.13V134.03H173.229C173.229 134.03 173.139 135.11 173.139 135.98V142.43ZM181.77 146.09L188.22 145.91L188.34 145.16L185.94 144.89C185.94 144.89 186.09 144.17 186.09 143.27V136.01C187.35 134.81 189.18 133.97 190.56 133.97C191.76 133.97 192.63 134.57 192.63 136.85V143.27C192.63 144.35 192.15 145.07 190.92 145.22V146.09L197.37 145.91L197.49 145.16L194.94 144.89C194.94 144.89 195.09 144.17 195.09 143.27V136.19C195.09 133.28 193.74 132.14 191.67 132.14C189.15 132.14 187.05 133.82 185.97 135.38C185.97 135.14 186.09 134.54 186.09 133.16V127.34C186.09 125.03 186.39 123.92 186.39 123.92L186.3 123.83C186.3 123.83 184.92 124.43 181.47 125.18V125.99H182.73C183.6 125.99 183.63 126.74 183.63 128.03V143.27C183.63 144.35 183.12 145.07 181.77 145.22V146.09ZM198.615 143.33C198.615 144.95 199.755 146.36 201.735 146.36C204.825 146.36 206.415 143.51 206.415 143.51V144.23C206.415 145.7 207.315 146.36 208.455 146.36C210.225 146.36 211.635 144.77 211.635 144.77L211.245 144.14C211.245 144.14 210.405 144.74 209.595 144.74C208.905 144.74 208.785 144.29 208.785 143.33V136.43C208.785 133.28 208.035 132.14 205.215 132.14C201.855 132.14 199.665 133.82 199.665 133.82L200.175 136.07H201.135C201.135 136.07 202.275 133.19 204.315 133.19C205.425 133.19 205.995 134 206.205 135.11C206.355 135.95 206.355 137.69 206.325 138.32L205.305 138.47C202.185 138.95 198.615 140.45 198.615 143.33ZM202.935 144.65C202.035 144.65 201.255 143.99 201.255 142.79C201.255 140.63 203.685 139.73 205.395 139.46L206.325 139.31V142.85C205.545 143.51 204.105 144.65 202.935 144.65ZM214.184 142.43C214.184 145.16 215.384 146.36 217.514 146.36C220.124 146.36 221.834 144.5 221.834 144.5L221.444 143.93C221.444 143.93 220.094 144.56 218.744 144.56C217.154 144.56 216.644 143.6 216.644 141.86V134.24L216.944 133.94H221.084L221.294 132.5H216.614V132.05C216.614 129.92 216.884 129.05 216.884 129.05L216.794 128.96L215.444 128.93L214.334 132.2C213.614 132.86 212.294 133.13 212.294 133.13V134.03H214.274C214.274 134.03 214.184 135.11 214.184 135.98V142.43ZM229.853 146.09L236.453 145.91L236.573 145.16L234.023 144.89C234.023 144.89 234.173 144.17 234.173 143.27V135.23C234.173 132.8 234.503 131.81 234.503 131.81L234.473 131.72C234.473 131.72 233.843 132.11 229.463 133.13V133.94H230.813C231.683 133.94 231.713 134.69 231.713 135.98V143.27C231.713 144.35 231.203 145.07 229.853 145.22V146.09ZM232.673 129.08C233.543 129.08 234.293 128.33 234.293 127.46C234.293 126.59 233.543 125.84 232.673 125.84C231.803 125.84 231.053 126.59 231.053 127.46C231.053 128.33 231.803 129.08 232.673 129.08ZM238.203 144.32C238.203 146.03 241.323 146.36 242.703 146.36C245.553 146.36 247.503 144.92 247.503 142.43C247.503 137.69 240.663 138.26 240.663 135.08C240.663 134.15 241.293 133.16 242.913 133.16C243.543 133.16 245.613 133.31 245.613 135.77H246.543L247.143 132.68C247.143 132.68 245.193 132.14 243.393 132.14C240.213 132.14 238.503 133.73 238.503 135.95C238.503 140.3 245.373 140.09 245.373 143.3C245.373 144.56 244.353 145.34 242.883 145.34C241.443 145.34 239.673 144.59 239.493 142.04H238.593C238.593 142.04 238.203 143.72 238.203 144.32ZM256.484 146.09L263.084 145.91L263.204 145.16L260.654 144.89C260.654 144.89 260.804 144.17 260.804 143.27V135.23C260.804 132.8 261.134 131.81 261.134 131.81L261.104 131.72C261.104 131.72 260.474 132.11 256.094 133.13V133.94H257.444C258.314 133.94 258.344 134.69 258.344 135.98V143.27C258.344 144.35 257.834 145.07 256.484 145.22V146.09ZM259.304 129.08C260.174 129.08 260.924 128.33 260.924 127.46C260.924 126.59 260.174 125.84 259.304 125.84C258.434 125.84 257.684 126.59 257.684 127.46C257.684 128.33 258.434 129.08 259.304 129.08ZM264.774 146.09L271.224 145.91L271.344 145.16L268.944 144.89C268.944 144.89 269.094 144.17 269.094 143.27V136.07C270.384 134.78 272.064 133.97 273.414 133.97C274.554 133.97 275.184 134.57 275.184 136.85V143.27C275.184 144.35 274.824 145.07 273.474 145.22V146.09L279.774 145.91L279.894 145.16L277.494 144.89C277.494 144.89 277.644 144.17 277.644 143.27V136.94C277.644 135.2 280.704 133.97 282.054 133.97C283.164 133.97 283.794 134.57 283.794 136.85V143.27C283.794 144.35 283.434 145.07 282.084 145.22V146.09L288.534 145.91L288.654 145.16L286.104 144.89C286.104 144.89 286.254 144.17 286.254 143.27V136.19C286.254 133.19 284.994 132.14 283.044 132.14C280.674 132.14 278.694 133.79 277.554 135.59C277.554 133.22 276.324 132.14 274.404 132.14C271.974 132.14 270.054 133.88 268.974 135.44C269.064 132.77 269.334 131.81 269.334 131.81L269.244 131.72C269.244 131.72 267.384 132.53 264.444 133.13V133.94H265.734C266.604 133.94 266.634 134.69 266.634 135.98V143.27C266.634 144.35 266.124 145.07 264.774 145.22V146.09ZM290.117 153.35C292.277 152.63 297.017 152.06 297.017 152.06L297.137 151.34H293.987C293.987 151.34 294.137 150.53 294.137 149.63V146.18C294.707 146.27 295.337 146.36 296.147 146.36C301.427 146.36 303.857 142.49 303.857 138.68C303.857 135.38 302.057 132.14 298.397 132.14C296.027 132.14 294.887 133.46 294.077 134.48C294.197 132.56 294.377 131.81 294.377 131.81L294.287 131.72C294.287 131.72 292.517 132.53 289.577 133.13V133.94H290.777C291.647 133.94 291.677 134.69 291.677 135.98V149.66C291.677 151.04 291.467 151.73 290.117 152.48V153.35ZM296.297 145.22C295.307 145.22 294.137 145.01 294.137 143.6V135.14C295.067 134.42 296.147 133.88 297.317 133.88C299.987 133.88 301.247 136.67 301.247 139.55C301.247 142.97 299.417 145.22 296.297 145.22ZM306.142 139.52C306.142 143.03 308.242 146.36 312.502 146.36C316.072 146.36 317.632 143.54 317.632 143.54L317.302 142.91C317.302 142.91 315.862 144.35 313.402 144.35C310.042 144.35 308.662 141.68 308.542 138.95L308.842 138.59L316.312 137.51C316.912 137.42 317.692 137.12 317.692 137.12C317.602 133.82 315.052 132.14 312.472 132.14C308.842 132.14 306.142 135.44 306.142 139.52ZM312.022 133.28C314.662 133.28 314.902 136.7 314.902 136.7L308.602 137.51C308.872 135.26 310.012 133.28 312.022 133.28ZM319.941 146.09L326.841 145.91L326.961 145.16L324.111 144.89C324.111 144.89 324.261 144.17 324.261 143.27V136.22C324.921 135.47 325.911 134.48 326.931 134.48C327.621 134.48 327.711 134.99 328.401 134.99C329.181 134.99 329.811 134.42 329.811 133.52C329.811 132.5 328.911 132.14 328.191 132.14C326.631 132.14 325.041 133.94 324.141 135.62C324.231 132.8 324.501 131.81 324.501 131.81L324.411 131.72C324.411 131.72 322.491 132.53 319.551 133.13V133.94H320.901C321.771 133.94 321.801 134.69 321.801 135.98V143.27C321.801 144.35 321.291 145.07 319.941 145.22V146.09ZM331.221 144.32C331.221 146.03 334.341 146.36 335.721 146.36C338.571 146.36 340.521 144.92 340.521 142.43C340.521 137.69 333.681 138.26 333.681 135.08C333.681 134.15 334.311 133.16 335.931 133.16C336.561 133.16 338.631 133.31 338.631 135.77H339.561L340.161 132.68C340.161 132.68 338.211 132.14 336.411 132.14C333.231 132.14 331.521 133.73 331.521 135.95C331.521 140.3 338.391 140.09 338.391 143.3C338.391 144.56 337.371 145.34 335.901 145.34C334.461 145.34 332.691 144.59 332.511 142.04H331.611C331.611 142.04 331.221 143.72 331.221 144.32ZM342.763 139.55C342.763 143.39 345.103 146.36 349.333 146.36C354.133 146.36 356.443 142.43 356.443 138.71C356.443 135.02 354.193 132.14 349.813 132.14C344.713 132.14 342.763 136.04 342.763 139.55ZM345.523 138.86C345.523 135.98 346.693 133.16 349.453 133.16C352.483 133.16 353.683 136.58 353.683 139.55C353.683 142.76 352.303 145.34 349.753 145.34C346.753 145.34 345.523 141.86 345.523 138.86ZM358.73 146.09L365.18 145.91L365.3 145.16L362.9 144.86C362.9 144.86 363.05 144.17 363.05 143.27V136.07C364.31 134.78 366.14 133.97 367.52 133.97C368.72 133.97 369.59 134.57 369.59 136.85V143.27C369.59 144.35 369.23 145.07 367.88 145.22V146.09L374.33 145.91L374.45 145.16L371.9 144.86C371.9 144.86 372.05 144.17 372.05 143.27V136.19C372.05 133.28 370.7 132.14 368.63 132.14C366.11 132.14 364.01 133.85 362.93 135.47C362.96 132.8 363.23 131.81 363.23 131.81L363.14 131.72C363.14 131.72 361.28 132.53 358.34 133.13V133.94H359.69C360.56 133.94 360.59 134.69 360.59 135.98V143.27C360.59 144.35 360.08 145.07 358.73 145.22V146.09ZM375.598 143.33C375.598 144.95 376.738 146.36 378.718 146.36C381.808 146.36 383.398 143.51 383.398 143.51V144.23C383.398 145.7 384.298 146.36 385.438 146.36C387.208 146.36 388.618 144.77 388.618 144.77L388.228 144.14C388.228 144.14 387.388 144.74 386.578 144.74C385.888 144.74 385.768 144.29 385.768 143.33V136.43C385.768 133.28 385.018 132.14 382.198 132.14C378.838 132.14 376.648 133.82 376.648 133.82L377.158 136.07H378.118C378.118 136.07 379.258 133.19 381.298 133.19C382.408 133.19 382.978 134 383.188 135.11C383.338 135.95 383.338 137.69 383.308 138.32L382.288 138.47C379.168 138.95 375.598 140.45 375.598 143.33ZM379.918 144.65C379.018 144.65 378.238 143.99 378.238 142.79C378.238 140.63 380.668 139.73 382.378 139.46L383.308 139.31V142.85C382.528 143.51 381.088 144.65 379.918 144.65ZM389.397 146.09L395.997 145.91L396.117 145.16L393.567 144.89C393.567 144.89 393.717 144.17 393.717 143.27V127.34C393.717 125.03 394.017 123.92 394.017 123.92L393.927 123.83C393.927 123.83 392.547 124.43 389.097 125.18V125.99H390.357C391.227 125.99 391.257 126.74 391.257 128.03V143.27C391.257 144.35 390.747 145.07 389.397 145.22V146.09ZM28.84 184.33C28.84 185.95 29.98 187.36 31.96 187.36C35.05 187.36 36.64 184.51 36.64 184.51V185.23C36.64 186.7 37.54 187.36 38.68 187.36C40.45 187.36 41.86 185.77 41.86 185.77L41.47 185.14C41.47 185.14 40.63 185.74 39.82 185.74C39.13 185.74 39.01 185.29 39.01 184.33V177.43C39.01 174.28 38.26 173.14 35.44 173.14C32.08 173.14 29.89 174.82 29.89 174.82L30.4 177.07H31.36C31.36 177.07 32.5 174.19 34.54 174.19C35.65 174.19 36.22 175 36.43 176.11C36.58 176.95 36.58 178.69 36.55 179.32L35.53 179.47C32.41 179.95 28.84 181.45 28.84 184.33ZM33.16 185.65C32.26 185.65 31.48 184.99 31.48 183.79C31.48 181.63 33.91 180.73 35.62 180.46L36.55 180.31V183.85C35.77 184.51 34.33 185.65 33.16 185.65ZM42.9388 187.09L49.3888 186.91L49.5088 186.16L47.1088 185.86C47.1088 185.86 47.2588 185.17 47.2588 184.27V177.07C48.5188 175.78 50.3488 174.97 51.7288 174.97C52.9288 174.97 53.7988 175.57 53.7988 177.85V184.27C53.7988 185.35 53.4388 186.07 52.0888 186.22V187.09L58.5388 186.91L58.6588 186.16L56.1088 185.86C56.1088 185.86 56.2588 185.17 56.2588 184.27V177.19C56.2588 174.28 54.9088 173.14 52.8388 173.14C50.3188 173.14 48.2188 174.85 47.1388 176.47C47.1688 173.8 47.4388 172.81 47.4388 172.81L47.3488 172.72C47.3488 172.72 45.4888 173.53 42.5488 174.13V174.94H43.8988C44.7688 174.94 44.7988 175.69 44.7988 176.98V184.27C44.7988 185.35 44.2888 186.07 42.9388 186.22V187.09ZM60.0768 180.85C60.0768 184.12 62.0268 187.36 65.7168 187.36C67.9668 187.36 69.1968 186.13 70.0068 184.93V185.56C70.0068 186.31 69.8868 187.15 69.8868 187.15L69.9768 187.24C69.9768 187.24 71.5068 187 74.7768 186.67L74.8668 185.86H74.0268C73.0368 185.86 72.3468 185.86 72.3468 184.15V168.34C72.3468 166.03 72.6468 164.92 72.6468 164.92L72.5568 164.83C72.5568 164.83 71.1768 165.43 67.7268 166.18V166.99H68.9868C69.8568 166.99 69.8868 167.74 69.8868 169.03V173.32C69.8868 173.32 68.8368 173.14 67.7568 173.14C62.6268 173.14 60.0768 177.07 60.0768 180.85ZM66.7668 185.62C64.0668 185.62 62.6868 182.83 62.6868 179.95C62.6868 176.47 64.6668 174.28 67.7268 174.28C68.6868 174.28 69.8868 174.49 69.8868 175.87V184.3C69.4068 184.78 68.2368 185.62 66.7668 185.62ZM82.717 187.09L89.317 186.91L89.437 186.16L86.887 185.89C86.887 185.89 87.037 185.17 87.037 184.27V168.34C87.037 166.03 87.337 164.92 87.337 164.92L87.247 164.83C87.247 164.83 85.867 165.43 82.417 166.18V166.99H83.677C84.547 166.99 84.577 167.74 84.577 169.03V184.27C84.577 185.35 84.067 186.07 82.717 186.22V187.09ZM90.9271 180.52C90.9271 184.03 93.0271 187.36 97.2871 187.36C100.857 187.36 102.417 184.54 102.417 184.54L102.087 183.91C102.087 183.91 100.647 185.35 98.1871 185.35C94.8271 185.35 93.4471 182.68 93.3271 179.95L93.6271 179.59L101.097 178.51C101.697 178.42 102.477 178.12 102.477 178.12C102.387 174.82 99.8371 173.14 97.2571 173.14C93.6271 173.14 90.9271 176.44 90.9271 180.52ZM96.8071 174.28C99.4471 174.28 99.6871 177.7 99.6871 177.7L93.3871 178.51C93.6571 176.26 94.7971 174.28 96.8071 174.28ZM104.426 184.33C104.426 185.95 105.566 187.36 107.546 187.36C110.636 187.36 112.226 184.51 112.226 184.51V185.23C112.226 186.7 113.126 187.36 114.266 187.36C116.036 187.36 117.446 185.77 117.446 185.77L117.056 185.14C117.056 185.14 116.216 185.74 115.406 185.74C114.716 185.74 114.596 185.29 114.596 184.33V177.43C114.596 174.28 113.846 173.14 111.026 173.14C107.666 173.14 105.476 174.82 105.476 174.82L105.986 177.07H106.946C106.946 177.07 108.086 174.19 110.126 174.19C111.236 174.19 111.806 175 112.016 176.11C112.166 176.95 112.166 178.69 112.136 179.32L111.116 179.47C107.996 179.95 104.426 181.45 104.426 184.33ZM108.746 185.65C107.846 185.65 107.066 184.99 107.066 183.79C107.066 181.63 109.496 180.73 111.206 180.46L112.136 180.31V183.85C111.356 184.51 109.916 185.65 108.746 185.65ZM123.238 187L124.498 187.39L129.748 175.54C130.378 174.16 130.828 173.98 130.828 173.98L130.678 173.5H126.628V174.25C127.768 174.52 128.698 175.12 128.128 176.44L124.588 184.45C124.438 183.88 124.228 183.13 124.048 182.59L121.768 176.26C121.438 175.36 121.438 174.31 121.798 173.5L121.678 173.38C121.678 173.38 120.568 173.5 118.678 173.5H117.298V174.25C117.298 174.25 118.348 174.46 118.948 175.99L123.238 187ZM132.089 180.52C132.089 184.03 134.189 187.36 138.449 187.36C142.019 187.36 143.579 184.54 143.579 184.54L143.249 183.91C143.249 183.91 141.809 185.35 139.349 185.35C135.989 185.35 134.609 182.68 134.489 179.95L134.789 179.59L142.259 178.51C142.859 178.42 143.639 178.12 143.639 178.12C143.549 174.82 140.999 173.14 138.419 173.14C134.789 173.14 132.089 176.44 132.089 180.52ZM137.969 174.28C140.609 174.28 140.849 177.7 140.849 177.7L134.549 178.51C134.819 176.26 135.959 174.28 137.969 174.28ZM145.918 185.32C145.918 187.03 149.038 187.36 150.418 187.36C153.268 187.36 155.218 185.92 155.218 183.43C155.218 178.69 148.378 179.26 148.378 176.08C148.378 175.15 149.008 174.16 150.628 174.16C151.258 174.16 153.328 174.31 153.328 176.77H154.258L154.858 173.68C154.858 173.68 152.908 173.14 151.108 173.14C147.928 173.14 146.218 174.73 146.218 176.95C146.218 181.3 153.088 181.09 153.088 184.3C153.088 185.56 152.068 186.34 150.598 186.34C149.158 186.34 147.388 185.59 147.208 183.04H146.308C146.308 183.04 145.918 184.72 145.918 185.32ZM163.899 187.09L170.499 186.91L170.619 186.16L168.069 185.89C168.069 185.89 168.219 185.17 168.219 184.27V168.34C168.219 166.03 168.519 164.92 168.519 164.92L168.429 164.83C168.429 164.83 167.049 165.43 163.599 166.18V166.99H164.859C165.729 166.99 165.759 167.74 165.759 169.03V184.27C165.759 185.35 165.249 186.07 163.899 186.22V187.09ZM172.197 187.09L178.797 186.91L178.917 186.16L176.367 185.89C176.367 185.89 176.517 185.17 176.517 184.27V176.23C176.517 173.8 176.847 172.81 176.847 172.81L176.817 172.72C176.817 172.72 176.187 173.11 171.807 174.13V174.94H173.157C174.027 174.94 174.057 175.69 174.057 176.98V184.27C174.057 185.35 173.547 186.07 172.197 186.22V187.09ZM175.017 170.08C175.887 170.08 176.637 169.33 176.637 168.46C176.637 167.59 175.887 166.84 175.017 166.84C174.147 166.84 173.397 167.59 173.397 168.46C173.397 169.33 174.147 170.08 175.017 170.08ZM181.987 183.43C181.987 186.16 183.187 187.36 185.317 187.36C187.927 187.36 189.637 185.5 189.637 185.5L189.247 184.93C189.247 184.93 187.897 185.56 186.547 185.56C184.957 185.56 184.447 184.6 184.447 182.86V175.24L184.747 174.94H188.887L189.097 173.5H184.417V173.05C184.417 170.92 184.687 170.05 184.687 170.05L184.597 169.96L183.247 169.93L182.137 173.2C181.417 173.86 180.097 174.13 180.097 174.13V175.03H182.077C182.077 175.03 181.987 176.11 181.987 176.98V183.43ZM192.387 183.43C192.387 186.16 193.587 187.36 195.717 187.36C198.327 187.36 200.037 185.5 200.037 185.5L199.647 184.93C199.647 184.93 198.297 185.56 196.947 185.56C195.357 185.56 194.847 184.6 194.847 182.86V175.24L195.147 174.94H199.287L199.497 173.5H194.817V173.05C194.817 170.92 195.087 170.05 195.087 170.05L194.997 169.96L193.647 169.93L192.537 173.2C191.817 173.86 190.497 174.13 190.497 174.13V175.03H192.477C192.477 175.03 192.387 176.11 192.387 176.98V183.43ZM201.018 187.09L207.618 186.91L207.738 186.16L205.188 185.89C205.188 185.89 205.338 185.17 205.338 184.27V168.34C205.338 166.03 205.638 164.92 205.638 164.92L205.548 164.83C205.548 164.83 204.168 165.43 200.718 166.18V166.99H201.978C202.848 166.99 202.878 167.74 202.878 169.03V184.27C202.878 185.35 202.368 186.07 201.018 186.22V187.09ZM209.228 180.52C209.228 184.03 211.328 187.36 215.588 187.36C219.158 187.36 220.718 184.54 220.718 184.54L220.388 183.91C220.388 183.91 218.948 185.35 216.488 185.35C213.128 185.35 211.748 182.68 211.628 179.95L211.928 179.59L219.398 178.51C219.998 178.42 220.778 178.12 220.778 178.12C220.688 174.82 218.138 173.14 215.558 173.14C211.928 173.14 209.228 176.44 209.228 180.52ZM215.108 174.28C217.748 174.28 217.988 177.7 217.988 177.7L211.688 178.51C211.958 176.26 213.098 174.28 215.108 174.28ZM229.765 187.09L236.665 186.91L236.785 186.16L233.935 185.89C233.935 185.89 234.085 185.17 234.085 184.27V177.22C234.745 176.47 235.735 175.48 236.755 175.48C237.445 175.48 237.535 175.99 238.225 175.99C239.005 175.99 239.635 175.42 239.635 174.52C239.635 173.5 238.735 173.14 238.015 173.14C236.455 173.14 234.865 174.94 233.965 176.62C234.055 173.8 234.325 172.81 234.325 172.81L234.235 172.72C234.235 172.72 232.315 173.53 229.375 174.13V174.94H230.725C231.595 174.94 231.625 175.69 231.625 176.98V184.27C231.625 185.35 231.115 186.07 229.765 186.22V187.09ZM240.898 180.55C240.898 184.39 243.238 187.36 247.468 187.36C252.268 187.36 254.578 183.43 254.578 179.71C254.578 176.02 252.328 173.14 247.948 173.14C242.848 173.14 240.898 177.04 240.898 180.55ZM243.658 179.86C243.658 176.98 244.828 174.16 247.588 174.16C250.618 174.16 251.818 177.58 251.818 180.55C251.818 183.76 250.438 186.34 247.888 186.34C244.888 186.34 243.658 182.86 243.658 179.86ZM256.865 180.55C256.865 184.39 259.205 187.36 263.435 187.36C268.235 187.36 270.545 183.43 270.545 179.71C270.545 176.02 268.295 173.14 263.915 173.14C258.815 173.14 256.865 177.04 256.865 180.55ZM259.625 179.86C259.625 176.98 260.795 174.16 263.555 174.16C266.585 174.16 267.785 177.58 267.785 180.55C267.785 183.76 266.405 186.34 263.855 186.34C260.855 186.34 259.625 182.86 259.625 179.86ZM272.801 187.09L279.251 186.91L279.371 186.16L276.971 185.89C276.971 185.89 277.121 185.17 277.121 184.27V177.07C278.411 175.78 280.091 174.97 281.441 174.97C282.581 174.97 283.211 175.57 283.211 177.85V184.27C283.211 185.35 282.851 186.07 281.501 186.22V187.09L287.801 186.91L287.921 186.16L285.521 185.89C285.521 185.89 285.671 185.17 285.671 184.27V177.94C285.671 176.2 288.731 174.97 290.081 174.97C291.191 174.97 291.821 175.57 291.821 177.85V184.27C291.821 185.35 291.461 186.07 290.111 186.22V187.09L296.561 186.91L296.681 186.16L294.131 185.89C294.131 185.89 294.281 185.17 294.281 184.27V177.19C294.281 174.19 293.021 173.14 291.071 173.14C288.701 173.14 286.721 174.79 285.581 176.59C285.581 174.22 284.351 173.14 282.431 173.14C280.001 173.14 278.081 174.88 277.001 176.44C277.091 173.77 277.361 172.81 277.361 172.81L277.271 172.72C277.271 172.72 275.411 173.53 272.471 174.13V174.94H273.761C274.631 174.94 274.661 175.69 274.661 176.98V184.27C274.661 185.35 274.151 186.07 272.801 186.22V187.09ZM304.852 187.09L312.052 186.91L312.172 186.16L309.022 185.89C309.022 185.89 309.172 185.17 309.172 184.27V175.24L309.472 174.94H313.162L313.402 173.5H309.172V171.85C309.172 167.98 309.892 166.54 311.422 166.54C313.042 166.54 313.702 168.07 314.782 168.07C315.592 168.07 316.042 167.5 316.042 166.93C316.042 165.67 314.272 165.16 312.832 165.16C308.932 165.16 306.712 168.19 306.712 172.66V173.47L304.822 174.13V175.03H306.712V184.27C306.712 185.35 306.202 186.07 304.852 186.22V187.09ZM313.964 180.55C313.964 184.39 316.304 187.36 320.534 187.36C325.334 187.36 327.644 183.43 327.644 179.71C327.644 176.02 325.394 173.14 321.014 173.14C315.914 173.14 313.964 177.04 313.964 180.55ZM316.724 179.86C316.724 176.98 317.894 174.16 320.654 174.16C323.684 174.16 324.884 177.58 324.884 180.55C324.884 183.76 323.504 186.34 320.954 186.34C317.954 186.34 316.724 182.86 316.724 179.86ZM329.931 187.09L336.831 186.91L336.951 186.16L334.101 185.89C334.101 185.89 334.251 185.17 334.251 184.27V177.22C334.911 176.47 335.901 175.48 336.921 175.48C337.611 175.48 337.701 175.99 338.391 175.99C339.171 175.99 339.801 175.42 339.801 174.52C339.801 173.5 338.901 173.14 338.181 173.14C336.621 173.14 335.031 174.94 334.131 176.62C334.221 173.8 334.491 172.81 334.491 172.81L334.401 172.72C334.401 172.72 332.481 173.53 329.541 174.13V174.94H330.891C331.761 174.94 331.791 175.69 331.791 176.98V184.27C331.791 185.35 331.281 186.07 329.931 186.22V187.09ZM347.949 185.32C347.949 187.03 351.069 187.36 352.449 187.36C355.299 187.36 357.249 185.92 357.249 183.43C357.249 178.69 350.409 179.26 350.409 176.08C350.409 175.15 351.039 174.16 352.659 174.16C353.289 174.16 355.359 174.31 355.359 176.77H356.289L356.889 173.68C356.889 173.68 354.939 173.14 353.139 173.14C349.959 173.14 348.249 174.73 348.249 176.95C348.249 181.3 355.119 181.09 355.119 184.3C355.119 185.56 354.099 186.34 352.629 186.34C351.189 186.34 349.419 185.59 349.239 183.04H348.339C348.339 183.04 347.949 184.72 347.949 185.32ZM359.192 187.09L365.642 186.91L365.762 186.16L363.362 185.89C363.362 185.89 363.512 185.17 363.512 184.27V177.01C364.772 175.81 366.602 174.97 367.982 174.97C369.182 174.97 370.052 175.57 370.052 177.85V184.27C370.052 185.35 369.572 186.07 368.342 186.22V187.09L374.792 186.91L374.912 186.16L372.362 185.89C372.362 185.89 372.512 185.17 372.512 184.27V177.19C372.512 174.28 371.162 173.14 369.092 173.14C366.572 173.14 364.472 174.82 363.392 176.38C363.392 176.14 363.512 175.54 363.512 174.16V168.34C363.512 166.03 363.812 164.92 363.812 164.92L363.722 164.83C363.722 164.83 362.342 165.43 358.892 166.18V166.99H360.152C361.022 166.99 361.052 167.74 361.052 169.03V184.27C361.052 185.35 360.542 186.07 359.192 186.22V187.09ZM376.037 184.33C376.037 185.95 377.177 187.36 379.157 187.36C382.247 187.36 383.837 184.51 383.837 184.51V185.23C383.837 186.7 384.737 187.36 385.877 187.36C387.647 187.36 389.057 185.77 389.057 185.77L388.667 185.14C388.667 185.14 387.827 185.74 387.017 185.74C386.327 185.74 386.207 185.29 386.207 184.33V177.43C386.207 174.28 385.457 173.14 382.637 173.14C379.277 173.14 377.087 174.82 377.087 174.82L377.597 177.07H378.557C378.557 177.07 379.697 174.19 381.737 174.19C382.847 174.19 383.417 175 383.627 176.11C383.777 176.95 383.777 178.69 383.747 179.32L382.727 179.47C379.607 179.95 376.037 181.45 376.037 184.33ZM380.357 185.65C379.457 185.65 378.677 184.99 378.677 183.79C378.677 181.63 381.107 180.73 382.817 180.46L383.747 180.31V183.85C382.967 184.51 381.527 185.65 380.357 185.65ZM390.136 187.09L397.036 186.91L397.156 186.16L394.306 185.89C394.306 185.89 394.456 185.17 394.456 184.27V177.22C395.116 176.47 396.106 175.48 397.126 175.48C397.816 175.48 397.906 175.99 398.596 175.99C399.376 175.99 400.006 175.42 400.006 174.52C400.006 173.5 399.106 173.14 398.386 173.14C396.826 173.14 395.236 174.94 394.336 176.62C394.426 173.8 394.696 172.81 394.696 172.81L394.606 172.72C394.606 172.72 392.686 173.53 389.746 174.13V174.94H391.096C391.966 174.94 391.996 175.69 391.996 176.98V184.27C391.996 185.35 391.486 186.07 390.136 186.22V187.09ZM401.386 187.09L407.986 186.91L408.106 186.16L405.556 185.89C405.556 185.89 405.706 185.17 405.706 184.27V176.23C405.706 173.8 406.036 172.81 406.036 172.81L406.006 172.72C406.006 172.72 405.376 173.11 400.996 174.13V174.94H402.346C403.216 174.94 403.246 175.69 403.246 176.98V184.27C403.246 185.35 402.736 186.07 401.386 186.22V187.09ZM404.206 170.08C405.076 170.08 405.826 169.33 405.826 168.46C405.826 167.59 405.076 166.84 404.206 166.84C403.336 166.84 402.586 167.59 402.586 168.46C402.586 169.33 403.336 170.08 404.206 170.08ZM409.706 187.09L416.156 186.91L416.276 186.16L413.876 185.86C413.876 185.86 414.026 185.17 414.026 184.27V177.07C415.286 175.78 417.116 174.97 418.496 174.97C419.696 174.97 420.566 175.57 420.566 177.85V184.27C420.566 185.35 420.206 186.07 418.856 186.22V187.09L425.306 186.91L425.426 186.16L422.876 185.86C422.876 185.86 423.026 185.17 423.026 184.27V177.19C423.026 174.28 421.676 173.14 419.606 173.14C417.086 173.14 414.986 174.85 413.906 176.47C413.936 173.8 414.206 172.81 414.206 172.81L414.116 172.72C414.116 172.72 412.256 173.53 409.316 174.13V174.94H410.666C411.536 174.94 411.566 175.69 411.566 176.98V184.27C411.566 185.35 411.056 186.07 409.706 186.22V187.09ZM427.744 184.81C427.744 185.83 428.824 186.37 430.234 186.73C428.854 187.27 426.454 188.17 426.454 190.48C426.454 193 429.394 194.11 432.094 194.11C435.784 194.11 439.714 192.01 439.714 189.07C439.714 186.64 437.014 185.8 434.494 185.29C432.154 184.81 430.354 184.6 430.354 183.79C430.354 183.37 430.894 182.77 431.104 182.53C431.584 182.62 432.064 182.65 432.574 182.65C435.574 182.65 438.274 180.97 438.274 178.15C438.274 176.26 437.044 175.21 437.044 175.21C437.044 175.21 437.434 175.3 438.094 175.3H439.684L439.954 173.35C439.954 173.35 438.934 173.74 437.974 173.74H436.534C435.034 173.74 434.314 173.14 432.574 173.14C429.604 173.14 426.964 174.85 426.964 177.97C426.964 180.37 428.554 181.81 430.564 182.38C429.484 182.95 427.744 183.55 427.744 184.81ZM433.474 187.39C435.454 187.81 437.224 188.41 437.224 189.94C437.224 191.77 434.794 192.97 432.604 192.97C430.624 192.97 428.824 191.98 428.824 190.12C428.824 188.47 430.234 187.36 430.954 186.88C431.764 187.06 432.634 187.21 433.474 187.39ZM432.664 181.6C430.444 181.6 429.574 179.77 429.574 177.91C429.574 176.02 430.414 174.19 432.514 174.19C434.674 174.19 435.664 176.23 435.664 178.15C435.664 179.92 434.824 181.6 432.664 181.6Z" fill="#333333"/>
</svg>
