<svg width="472" height="264" viewBox="0 0 472 264" fill="none" xmlns="http://www.w3.org/2000/svg">
<path d="M3 3H469V261H3V3Z" fill="white" stroke="#828282" stroke-width="6"/>
<path d="M29.44 33.994V46H31.276V41.122H32.104C32.986 41.122 34.084 40.996 35.038 40.186C36.028 39.34 36.208 38.26 36.208 37.558C36.208 36.46 35.722 35.308 34.714 34.642C33.85 34.066 32.824 33.994 32.086 33.994H29.44ZM31.276 35.686H32.086C34.174 35.686 34.444 36.874 34.444 37.54C34.444 38.656 33.688 39.43 32.104 39.43H31.276V35.686ZM46.5795 46H48.5595L42.8715 33.292L36.8955 46H38.8755L40.1895 43.102H45.3195L46.5795 46ZM40.9455 41.374L42.7995 37.306L44.5815 41.374H40.9455ZM50.796 33.994V46H52.632V33.994H50.796ZM58.063 46V37.612L66.775 46.738V33.994H64.939V42.31L56.227 33.184V46H58.063ZM75.2978 33.994V46H77.1338V41.122H77.9618C78.8438 41.122 79.9418 40.996 80.8958 40.186C81.8858 39.34 82.0658 38.26 82.0658 37.558C82.0658 36.46 81.5798 35.308 80.5718 34.642C79.7078 34.066 78.6818 33.994 77.9438 33.994H75.2978ZM77.1338 35.686H77.9438C80.0318 35.686 80.3018 36.874 80.3018 37.54C80.3018 38.656 79.5458 39.43 77.9618 39.43H77.1338V35.686ZM90.3362 33.778C86.7362 33.778 84.0902 36.478 84.0902 40.006C84.0902 43.534 86.7362 46.234 90.3362 46.234C93.9363 46.234 96.5823 43.534 96.5823 40.006C96.5823 36.478 93.9363 33.778 90.3362 33.778ZM90.3362 44.542C87.7622 44.542 85.9262 42.67 85.9262 40.006C85.9262 37.342 87.7622 35.47 90.3362 35.47C92.9103 35.47 94.7463 37.342 94.7463 40.006C94.7463 42.67 92.9103 44.542 90.3362 44.542ZM99.607 33.994V46H101.443V33.994H99.607ZM106.874 46V37.612L115.586 46.738V33.994H113.75V42.31L105.038 33.184V46H106.874ZM125.272 35.722V33.994H117.928V35.722H120.682V46H122.518V35.722H125.272ZM134.076 37.054C134.076 36.982 134.166 36.334 134.58 35.902C134.976 35.488 135.48 35.416 135.912 35.416C136.272 35.416 136.776 35.47 137.19 35.866C137.388 36.064 137.658 36.442 137.658 37.072C137.658 37.612 137.478 38.062 137.19 38.35C136.92 38.62 136.434 38.872 135.66 38.872H135.408V40.42H135.768C136.146 40.42 136.794 40.456 137.316 40.96C137.784 41.41 137.856 41.986 137.856 42.382C137.856 43.192 137.568 43.75 137.226 44.074C136.902 44.362 136.38 44.578 135.822 44.578C135.066 44.578 134.616 44.272 134.364 44.038C134.058 43.75 133.806 43.282 133.716 42.742H131.952C132.042 43.66 132.438 44.614 132.978 45.19C133.752 46.018 134.742 46.198 135.66 46.198C136.596 46.198 137.73 46.018 138.594 45.154C139.17 44.578 139.62 43.66 139.62 42.472C139.62 41.788 139.458 41.122 139.116 40.618C138.918 40.312 138.54 39.898 137.928 39.664C138.27 39.484 138.684 39.178 139.008 38.656C139.314 38.152 139.422 37.648 139.422 37.072C139.422 36.208 139.188 35.434 138.558 34.786C137.784 33.976 136.884 33.796 135.966 33.796C135.174 33.796 134.166 33.922 133.338 34.714C132.78 35.254 132.366 36.082 132.312 37.054H134.076ZM27.61 106H33.16L33.28 105.16L30.73 104.8L32.8 99.4L33.19 99.1H40.36L42.19 103.9C42.52 104.8 41.77 105.04 40.93 105.07V106.09C40.93 106.09 44.38 106 45.49 106H46.78L46.9 105.19C45.97 105.04 45.43 104.89 44.62 102.85L37.96 85.81L36.73 86.08L29.62 103.78C29.38 104.38 28.87 105.01 27.61 105.13V106ZM37.3 91L39.88 97.84H33.37L36.7 89.17C36.82 89.62 37.06 90.4 37.3 91ZM47.8314 106.09L54.2814 105.91L54.4014 105.16L52.0014 104.86C52.0014 104.86 52.1514 104.17 52.1514 103.27V96.07C53.4114 94.78 55.2414 93.97 56.6214 93.97C57.8214 93.97 58.6914 94.57 58.6914 96.85V103.27C58.6914 104.35 58.3314 105.07 56.9814 105.22V106.09L63.4314 105.91L63.5514 105.16L61.0014 104.86C61.0014 104.86 61.1514 104.17 61.1514 103.27V96.19C61.1514 93.28 59.8014 92.14 57.7314 92.14C55.2114 92.14 53.1114 93.85 52.0314 95.47C52.0614 92.8 52.3314 91.81 52.3314 91.81L52.2414 91.72C52.2414 91.72 50.3814 92.53 47.4414 93.13V93.94H48.7914C49.6614 93.94 49.6914 94.69 49.6914 95.98V103.27C49.6914 104.35 49.1814 105.07 47.8314 105.22V106.09ZM71.7377 106.09L78.3377 105.91L78.4577 105.16L75.9077 104.89C75.9077 104.89 76.0577 104.17 76.0577 103.27V95.23C76.0577 92.8 76.3877 91.81 76.3877 91.81L76.3577 91.72C76.3577 91.72 75.7277 92.11 71.3477 93.13V93.94H72.6977C73.5677 93.94 73.5977 94.69 73.5977 95.98V103.27C73.5977 104.35 73.0877 105.07 71.7377 105.22V106.09ZM74.5577 89.08C75.4277 89.08 76.1777 88.33 76.1777 87.46C76.1777 86.59 75.4277 85.84 74.5577 85.84C73.6877 85.84 72.9377 86.59 72.9377 87.46C72.9377 88.33 73.6877 89.08 74.5577 89.08ZM80.058 106.09L86.508 105.91L86.628 105.16L84.228 104.86C84.228 104.86 84.378 104.17 84.378 103.27V96.07C85.638 94.78 87.468 93.97 88.848 93.97C90.048 93.97 90.918 94.57 90.918 96.85V103.27C90.918 104.35 90.558 105.07 89.208 105.22V106.09L95.658 105.91L95.778 105.16L93.228 104.86C93.228 104.86 93.378 104.17 93.378 103.27V96.19C93.378 93.28 92.028 92.14 89.958 92.14C87.438 92.14 85.338 93.85 84.258 95.47C84.288 92.8 84.558 91.81 84.558 91.81L84.468 91.72C84.468 91.72 82.608 92.53 79.668 93.13V93.94H81.018C81.888 93.94 81.918 94.69 81.918 95.98V103.27C81.918 104.35 81.408 105.07 80.058 105.22V106.09ZM98.608 102.43C98.608 105.16 99.808 106.36 101.938 106.36C104.548 106.36 106.258 104.5 106.258 104.5L105.868 103.93C105.868 103.93 104.518 104.56 103.168 104.56C101.578 104.56 101.068 103.6 101.068 101.86V94.24L101.368 93.94H105.508L105.718 92.5H101.038V92.05C101.038 89.92 101.308 89.05 101.308 89.05L101.218 88.96L99.868 88.93L98.758 92.2C98.038 92.86 96.718 93.13 96.718 93.13V94.03H98.698C98.698 94.03 98.608 95.11 98.608 95.98V102.43ZM107.538 99.52C107.538 103.03 109.638 106.36 113.898 106.36C117.468 106.36 119.028 103.54 119.028 103.54L118.698 102.91C118.698 102.91 117.258 104.35 114.798 104.35C111.438 104.35 110.058 101.68 109.938 98.95L110.238 98.59L117.708 97.51C118.308 97.42 119.088 97.12 119.088 97.12C118.998 93.82 116.448 92.14 113.868 92.14C110.238 92.14 107.538 95.44 107.538 99.52ZM113.418 93.28C116.058 93.28 116.298 96.7 116.298 96.7L109.998 97.51C110.268 95.26 111.408 93.28 113.418 93.28ZM121.337 106.09L128.237 105.91L128.357 105.16L125.507 104.89C125.507 104.89 125.657 104.17 125.657 103.27V96.22C126.317 95.47 127.307 94.48 128.327 94.48C129.017 94.48 129.107 94.99 129.797 94.99C130.577 94.99 131.207 94.42 131.207 93.52C131.207 92.5 130.307 92.14 129.587 92.14C128.027 92.14 126.437 93.94 125.537 95.62C125.627 92.8 125.897 91.81 125.897 91.81L125.807 91.72C125.807 91.72 123.887 92.53 120.947 93.13V93.94H122.297C123.167 93.94 123.197 94.69 123.197 95.98V103.27C123.197 104.35 122.687 105.07 121.337 105.22V106.09ZM132.557 106.09L139.757 105.91L139.877 105.16L136.727 104.89C136.727 104.89 136.877 104.17 136.877 103.27V94.24L137.177 93.94H140.867L141.107 92.5H136.877V90.85C136.877 86.98 137.597 85.54 139.127 85.54C140.747 85.54 141.407 87.07 142.487 87.07C143.297 87.07 143.747 86.5 143.747 85.93C143.747 84.67 141.977 84.16 140.537 84.16C136.637 84.16 134.417 87.19 134.417 91.66V92.47L132.527 93.13V94.03H134.417V103.27C134.417 104.35 133.907 105.07 132.557 105.22V106.09ZM142.102 103.33C142.102 104.95 143.242 106.36 145.222 106.36C148.312 106.36 149.902 103.51 149.902 103.51V104.23C149.902 105.7 150.802 106.36 151.942 106.36C153.712 106.36 155.122 104.77 155.122 104.77L154.732 104.14C154.732 104.14 153.892 104.74 153.082 104.74C152.392 104.74 152.272 104.29 152.272 103.33V96.43C152.272 93.28 151.522 92.14 148.702 92.14C145.342 92.14 143.152 93.82 143.152 93.82L143.662 96.07H144.622C144.622 96.07 145.762 93.19 147.802 93.19C148.912 93.19 149.482 94 149.692 95.11C149.842 95.95 149.842 97.69 149.812 98.32L148.792 98.47C145.672 98.95 142.102 100.45 142.102 103.33ZM146.422 104.65C145.522 104.65 144.742 103.99 144.742 102.79C144.742 100.63 147.172 99.73 148.882 99.46L149.812 99.31V102.85C149.032 103.51 147.592 104.65 146.422 104.65ZM156.201 99.52C156.201 102.97 158.361 106.36 162.561 106.36C166.041 106.36 167.421 103.75 167.421 103.75L167.091 103.12C167.091 103.12 165.861 104.35 163.611 104.35C160.071 104.35 158.661 101.53 158.661 98.65C158.661 95.74 160.011 93.16 162.411 93.16C164.511 93.16 164.691 95.5 166.221 95.5C166.941 95.5 167.361 94.99 167.361 94.42C167.361 92.86 164.451 92.14 162.621 92.14C158.481 92.14 156.201 95.89 156.201 99.52ZM169.443 99.52C169.443 103.03 171.543 106.36 175.803 106.36C179.373 106.36 180.933 103.54 180.933 103.54L180.603 102.91C180.603 102.91 179.163 104.35 176.703 104.35C173.343 104.35 171.963 101.68 171.843 98.95L172.143 98.59L179.613 97.51C180.213 97.42 180.993 97.12 180.993 97.12C180.903 93.82 178.353 92.14 175.773 92.14C172.143 92.14 169.443 95.44 169.443 99.52ZM175.323 93.28C177.963 93.28 178.203 96.7 178.203 96.7L171.903 97.51C172.173 95.26 173.313 93.28 175.323 93.28ZM191.45 102.43C191.45 105.16 192.65 106.36 194.78 106.36C197.39 106.36 199.1 104.5 199.1 104.5L198.71 103.93C198.71 103.93 197.36 104.56 196.01 104.56C194.42 104.56 193.91 103.6 193.91 101.86V94.24L194.21 93.94H198.35L198.56 92.5H193.88V92.05C193.88 89.92 194.15 89.05 194.15 89.05L194.06 88.96L192.71 88.93L191.6 92.2C190.88 92.86 189.56 93.13 189.56 93.13V94.03H191.54C191.54 94.03 191.45 95.11 191.45 95.98V102.43ZM200.08 106.09L206.53 105.91L206.65 105.16L204.25 104.89C204.25 104.89 204.4 104.17 204.4 103.27V96.01C205.66 94.81 207.49 93.97 208.87 93.97C210.07 93.97 210.94 94.57 210.94 96.85V103.27C210.94 104.35 210.46 105.07 209.23 105.22V106.09L215.68 105.91L215.8 105.16L213.25 104.89C213.25 104.89 213.4 104.17 213.4 103.27V96.19C213.4 93.28 212.05 92.14 209.98 92.14C207.46 92.14 205.36 93.82 204.28 95.38C204.28 95.14 204.4 94.54 204.4 93.16V87.34C204.4 85.03 204.7 83.92 204.7 83.92L204.61 83.83C204.61 83.83 203.23 84.43 199.78 85.18V85.99H201.04C201.91 85.99 201.94 86.74 201.94 88.03V103.27C201.94 104.35 201.43 105.07 200.08 105.22V106.09ZM216.926 103.33C216.926 104.95 218.066 106.36 220.046 106.36C223.136 106.36 224.726 103.51 224.726 103.51V104.23C224.726 105.7 225.626 106.36 226.766 106.36C228.536 106.36 229.946 104.77 229.946 104.77L229.556 104.14C229.556 104.14 228.716 104.74 227.906 104.74C227.216 104.74 227.096 104.29 227.096 103.33V96.43C227.096 93.28 226.346 92.14 223.526 92.14C220.166 92.14 217.976 93.82 217.976 93.82L218.486 96.07H219.446C219.446 96.07 220.586 93.19 222.626 93.19C223.736 93.19 224.306 94 224.516 95.11C224.666 95.95 224.666 97.69 224.636 98.32L223.616 98.47C220.496 98.95 216.926 100.45 216.926 103.33ZM221.246 104.65C220.346 104.65 219.566 103.99 219.566 102.79C219.566 100.63 221.996 99.73 223.706 99.46L224.636 99.31V102.85C223.856 103.51 222.416 104.65 221.246 104.65ZM232.495 102.43C232.495 105.16 233.695 106.36 235.825 106.36C238.435 106.36 240.145 104.5 240.145 104.5L239.755 103.93C239.755 103.93 238.405 104.56 237.055 104.56C235.465 104.56 234.955 103.6 234.955 101.86V94.24L235.255 93.94H239.395L239.605 92.5H234.925V92.05C234.925 89.92 235.195 89.05 235.195 89.05L235.105 88.96L233.755 88.93L232.645 92.2C231.925 92.86 230.605 93.13 230.605 93.13V94.03H232.585C232.585 94.03 232.495 95.11 232.495 95.98V102.43ZM248.133 106.09L254.583 105.91L254.703 105.16L252.303 104.89C252.303 104.89 252.453 104.17 252.453 103.27V96.07C253.743 94.78 255.423 93.97 256.773 93.97C257.913 93.97 258.543 94.57 258.543 96.85V103.27C258.543 104.35 258.183 105.07 256.833 105.22V106.09L263.133 105.91L263.253 105.16L260.853 104.89C260.853 104.89 261.003 104.17 261.003 103.27V96.94C261.003 95.2 264.063 93.97 265.413 93.97C266.523 93.97 267.153 94.57 267.153 96.85V103.27C267.153 104.35 266.793 105.07 265.443 105.22V106.09L271.893 105.91L272.013 105.16L269.463 104.89C269.463 104.89 269.613 104.17 269.613 103.27V96.19C269.613 93.19 268.353 92.14 266.403 92.14C264.033 92.14 262.053 93.79 260.913 95.59C260.913 93.22 259.683 92.14 257.763 92.14C255.333 92.14 253.413 93.88 252.333 95.44C252.423 92.77 252.693 91.81 252.693 91.81L252.603 91.72C252.603 91.72 250.743 92.53 247.803 93.13V93.94H249.093C249.963 93.94 249.993 94.69 249.993 95.98V103.27C249.993 104.35 249.483 105.07 248.133 105.22V106.09ZM273.176 103.33C273.176 104.95 274.316 106.36 276.296 106.36C279.386 106.36 280.976 103.51 280.976 103.51V104.23C280.976 105.7 281.876 106.36 283.016 106.36C284.786 106.36 286.196 104.77 286.196 104.77L285.806 104.14C285.806 104.14 284.966 104.74 284.156 104.74C283.466 104.74 283.346 104.29 283.346 103.33V96.43C283.346 93.28 282.596 92.14 279.776 92.14C276.416 92.14 274.226 93.82 274.226 93.82L274.736 96.07H275.696C275.696 96.07 276.836 93.19 278.876 93.19C279.986 93.19 280.556 94 280.766 95.11C280.916 95.95 280.916 97.69 280.886 98.32L279.866 98.47C276.746 98.95 273.176 100.45 273.176 103.33ZM277.496 104.65C276.596 104.65 275.816 103.99 275.816 102.79C275.816 100.63 278.246 99.73 279.956 99.46L280.886 99.31V102.85C280.106 103.51 278.666 104.65 277.496 104.65ZM286.975 106.09L293.425 105.91L293.545 105.16L291.145 104.89C291.145 104.89 291.295 104.17 291.295 103.27V98.98H291.655L296.125 104.02C296.965 105.01 297.355 106.09 297.355 106.09L301.675 106L301.795 105.1L301.465 105.07C300.355 104.98 300.085 104.74 298.765 103.3L294.325 98.5C294.115 98.29 293.845 97.9 293.845 97.9V97.6L297.325 94.63C298.735 93.43 300.475 92.98 300.475 92.98L300.325 92.5H294.835V93.25C295.495 93.43 295.825 93.64 295.825 94C295.825 94.54 295.165 95.02 294.685 95.44L291.655 97.99H291.295V87.34C291.295 85.03 291.595 83.92 291.595 83.92L291.505 83.83C291.505 83.83 290.125 84.43 286.675 85.18V85.99H287.935C288.805 85.99 288.835 86.74 288.835 88.03V103.27C288.835 104.35 288.325 105.07 286.975 105.22V106.09ZM301.718 99.52C301.718 103.03 303.818 106.36 308.078 106.36C311.648 106.36 313.208 103.54 313.208 103.54L312.878 102.91C312.878 102.91 311.438 104.35 308.978 104.35C305.618 104.35 304.238 101.68 304.118 98.95L304.418 98.59L311.888 97.51C312.488 97.42 313.268 97.12 313.268 97.12C313.178 93.82 310.628 92.14 308.048 92.14C304.418 92.14 301.718 95.44 301.718 99.52ZM307.598 93.28C310.238 93.28 310.478 96.7 310.478 96.7L304.178 97.51C304.448 95.26 305.588 93.28 307.598 93.28ZM315.547 104.32C315.547 106.03 318.667 106.36 320.047 106.36C322.897 106.36 324.847 104.92 324.847 102.43C324.847 97.69 318.007 98.26 318.007 95.08C318.007 94.15 318.637 93.16 320.257 93.16C320.887 93.16 322.957 93.31 322.957 95.77H323.887L324.487 92.68C324.487 92.68 322.537 92.14 320.737 92.14C317.557 92.14 315.847 93.73 315.847 95.95C315.847 100.3 322.717 100.09 322.717 103.3C322.717 104.56 321.697 105.34 320.227 105.34C318.787 105.34 317.017 104.59 316.837 102.04H315.937C315.937 102.04 315.547 103.72 315.547 104.32ZM333.828 106.09L340.428 105.91L340.548 105.16L337.998 104.89C337.998 104.89 338.148 104.17 338.148 103.27V95.23C338.148 92.8 338.478 91.81 338.478 91.81L338.448 91.72C338.448 91.72 337.818 92.11 333.438 93.13V93.94H334.788C335.658 93.94 335.688 94.69 335.688 95.98V103.27C335.688 104.35 335.178 105.07 333.828 105.22V106.09ZM336.647 89.08C337.518 89.08 338.268 88.33 338.268 87.46C338.268 86.59 337.518 85.84 336.647 85.84C335.778 85.84 335.028 86.59 335.028 87.46C335.028 88.33 335.778 89.08 336.647 89.08ZM343.618 102.43C343.618 105.16 344.818 106.36 346.948 106.36C349.558 106.36 351.268 104.5 351.268 104.5L350.878 103.93C350.878 103.93 349.528 104.56 348.178 104.56C346.588 104.56 346.078 103.6 346.078 101.86V94.24L346.378 93.94H350.518L350.728 92.5H346.048V92.05C346.048 89.92 346.318 89.05 346.318 89.05L346.228 88.96L344.878 88.93L343.768 92.2C343.048 92.86 341.728 93.13 341.728 93.13V94.03H343.708C343.708 94.03 343.618 95.11 343.618 95.98V102.43ZM29.11 139.85C29.11 143.12 31.06 146.36 34.75 146.36C37 146.36 38.23 145.13 39.04 143.93V144.56C39.04 145.31 38.92 146.15 38.92 146.15L39.01 146.24C39.01 146.24 40.54 146 43.81 145.67L43.9 144.86H43.06C42.07 144.86 41.38 144.86 41.38 143.15V127.34C41.38 125.03 41.68 123.92 41.68 123.92L41.59 123.83C41.59 123.83 40.21 124.43 36.76 125.18V125.99H38.02C38.89 125.99 38.92 126.74 38.92 128.03V132.32C38.92 132.32 37.87 132.14 36.79 132.14C31.66 132.14 29.11 136.07 29.11 139.85ZM35.8 144.62C33.1 144.62 31.72 141.83 31.72 138.95C31.72 135.47 33.7 133.28 36.76 133.28C37.72 133.28 38.92 133.49 38.92 134.87V143.3C38.44 143.78 37.27 144.62 35.8 144.62ZM45.3119 146.09L51.9119 145.91L52.0319 145.16L49.4819 144.89C49.4819 144.89 49.6319 144.17 49.6319 143.27V135.23C49.6319 132.8 49.9619 131.81 49.9619 131.81L49.9319 131.72C49.9319 131.72 49.3019 132.11 44.9219 133.13V133.94H46.2719C47.1419 133.94 47.1719 134.69 47.1719 135.98V143.27C47.1719 144.35 46.6619 145.07 45.3119 145.22V146.09ZM48.1319 129.08C49.0019 129.08 49.7519 128.33 49.7519 127.46C49.7519 126.59 49.0019 125.84 48.1319 125.84C47.2619 125.84 46.5119 126.59 46.5119 127.46C46.5119 128.33 47.2619 129.08 48.1319 129.08ZM62.2122 146.09L68.6622 145.91L68.7822 145.16L66.3822 144.89C66.3822 144.89 66.5322 144.17 66.5322 143.27V134.24L66.8322 133.94H71.9022C72.6522 133.94 72.6822 134.75 72.6822 135.98V143.27C72.6822 144.35 72.1722 145.07 70.8222 145.22V146.09L77.4222 145.91L77.5422 145.16L74.9922 144.89C74.9922 144.89 75.1422 144.17 75.1422 143.27V135.23C75.1422 132.8 75.4722 131.81 75.4722 131.81L75.4422 131.72C74.0922 132.38 72.4722 132.56 71.0022 132.56H66.5322V130.85C66.5322 126.98 67.4322 125.54 69.2322 125.54C70.9722 125.54 71.6922 127.07 72.8922 127.07C73.7022 127.07 74.1222 126.47 74.1222 125.9C74.1222 124.64 72.2022 124.16 70.6422 124.16C68.6322 124.16 67.0122 124.88 65.9022 126.11C65.2722 125.24 63.5622 124.94 62.2422 124.94C58.0422 124.94 55.4622 127.97 55.4622 132.41V132.47L53.5722 133.13V134.03H55.4622V143.27C55.4622 144.35 54.9522 145.07 53.6022 145.22V146.09L60.0522 145.91L60.1722 145.16L57.7722 144.89C57.7722 144.89 57.9222 144.17 57.9222 143.27V134.24L58.2222 133.94H64.0722V143.27C64.0722 144.35 63.5622 145.07 62.2122 145.22V146.09ZM57.9222 131.6C57.9222 127.76 58.9422 126.32 60.9222 126.32C62.9622 126.32 63.6822 127.76 64.7322 127.97C64.2822 129.05 64.0722 130.28 64.0722 131.66V132.56H57.9222V131.6ZM79.0033 139.52C79.0033 142.97 81.1633 146.36 85.3633 146.36C88.8433 146.36 90.2233 143.75 90.2233 143.75L89.8933 143.12C89.8933 143.12 88.6633 144.35 86.4133 144.35C82.8733 144.35 81.4633 141.53 81.4633 138.65C81.4633 135.74 82.8133 133.16 85.2133 133.16C87.3133 133.16 87.4933 135.5 89.0233 135.5C89.7433 135.5 90.1633 134.99 90.1633 134.42C90.1633 132.86 87.2533 132.14 85.4233 132.14C81.2833 132.14 79.0033 135.89 79.0033 139.52ZM93.6855 142.34C93.6855 145.22 94.9755 146.36 97.0755 146.36C99.5955 146.36 101.575 144.59 102.655 143V144.56C102.655 145.31 102.385 146.18 102.385 146.18L102.505 146.27C102.505 146.27 104.155 146 107.425 145.67L107.515 144.86H106.675C105.685 144.86 104.995 144.86 104.995 143.15V135.23C104.995 132.92 105.265 132.08 105.265 132.08L105.145 131.99C105.145 131.99 103.525 132.59 100.645 133.1V133.94H101.635C102.505 133.94 102.535 134.69 102.535 135.98V142.4C101.245 143.72 99.5655 144.53 98.1855 144.53C96.9555 144.53 96.1455 143.93 96.1455 141.65V135.23C96.1455 132.92 96.4155 132.08 96.4155 132.08L96.2955 131.99C96.2955 131.99 94.6455 132.59 91.7355 133.1V133.94H92.7855C93.6555 133.94 93.6855 134.69 93.6855 135.98V142.34ZM108.703 146.09L115.303 145.91L115.423 145.16L112.873 144.89C112.873 144.89 113.023 144.17 113.023 143.27V127.34C113.023 125.03 113.323 123.92 113.323 123.92L113.233 123.83C113.233 123.83 111.853 124.43 108.403 125.18V125.99H109.663C110.533 125.99 110.563 126.74 110.563 128.03V143.27C110.563 144.35 110.053 145.07 108.703 145.22V146.09ZM118.383 142.43C118.383 145.16 119.583 146.36 121.713 146.36C124.323 146.36 126.033 144.5 126.033 144.5L125.643 143.93C125.643 143.93 124.293 144.56 122.943 144.56C121.353 144.56 120.843 143.6 120.843 141.86V134.24L121.143 133.94H125.283L125.493 132.5H120.813V132.05C120.813 129.92 121.083 129.05 121.083 129.05L120.993 128.96L119.643 128.93L118.533 132.2C117.813 132.86 116.493 133.13 116.493 133.13V134.03H118.473C118.473 134.03 118.383 135.11 118.383 135.98V142.43ZM134.022 146.09L141.222 145.91L141.342 145.16L138.192 144.89C138.192 144.89 138.342 144.17 138.342 143.27V134.24L138.642 133.94H142.332L142.572 132.5H138.342V130.85C138.342 126.98 139.062 125.54 140.592 125.54C142.212 125.54 142.872 127.07 143.952 127.07C144.762 127.07 145.212 126.5 145.212 125.93C145.212 124.67 143.442 124.16 142.002 124.16C138.102 124.16 135.882 127.19 135.882 131.66V132.47L133.992 133.13V134.03H135.882V143.27C135.882 144.35 135.372 145.07 134.022 145.22V146.09ZM143.134 139.55C143.134 143.39 145.474 146.36 149.704 146.36C154.504 146.36 156.814 142.43 156.814 138.71C156.814 135.02 154.564 132.14 150.184 132.14C145.084 132.14 143.134 136.04 143.134 139.55ZM145.894 138.86C145.894 135.98 147.064 133.16 149.824 133.16C152.854 133.16 154.054 136.58 154.054 139.55C154.054 142.76 152.674 145.34 150.124 145.34C147.124 145.34 145.894 141.86 145.894 138.86ZM159.101 146.09L166.001 145.91L166.121 145.16L163.271 144.89C163.271 144.89 163.421 144.17 163.421 143.27V136.22C164.081 135.47 165.071 134.48 166.091 134.48C166.781 134.48 166.871 134.99 167.561 134.99C168.341 134.99 168.971 134.42 168.971 133.52C168.971 132.5 168.071 132.14 167.351 132.14C165.791 132.14 164.201 133.94 163.301 135.62C163.391 132.8 163.661 131.81 163.661 131.81L163.571 131.72C163.571 131.72 161.651 132.53 158.711 133.13V133.94H160.061C160.931 133.94 160.961 134.69 160.961 135.98V143.27C160.961 144.35 160.451 145.07 159.101 145.22V146.09ZM178.529 142.34C178.529 145.22 179.819 146.36 181.919 146.36C184.439 146.36 186.419 144.59 187.499 143V144.56C187.499 145.31 187.229 146.18 187.229 146.18L187.349 146.27C187.349 146.27 188.999 146 192.269 145.67L192.359 144.86H191.519C190.529 144.86 189.839 144.86 189.839 143.15V135.23C189.839 132.92 190.109 132.08 190.109 132.08L189.989 131.99C189.989 131.99 188.369 132.59 185.489 133.1V133.94H186.479C187.349 133.94 187.379 134.69 187.379 135.98V142.4C186.089 143.72 184.409 144.53 183.029 144.53C181.799 144.53 180.989 143.93 180.989 141.65V135.23C180.989 132.92 181.259 132.08 181.259 132.08L181.139 131.99C181.139 131.99 179.489 132.59 176.579 133.1V133.94H177.629C178.499 133.94 178.529 134.69 178.529 135.98V142.34ZM193.877 144.32C193.877 146.03 196.997 146.36 198.377 146.36C201.227 146.36 203.177 144.92 203.177 142.43C203.177 137.69 196.337 138.26 196.337 135.08C196.337 134.15 196.967 133.16 198.587 133.16C199.217 133.16 201.287 133.31 201.287 135.77H202.217L202.817 132.68C202.817 132.68 200.867 132.14 199.067 132.14C195.887 132.14 194.177 133.73 194.177 135.95C194.177 140.3 201.047 140.09 201.047 143.3C201.047 144.56 200.027 145.34 198.557 145.34C197.117 145.34 195.347 144.59 195.167 142.04H194.267C194.267 142.04 193.877 143.72 193.877 144.32ZM205.419 139.52C205.419 143.03 207.519 146.36 211.779 146.36C215.349 146.36 216.909 143.54 216.909 143.54L216.579 142.91C216.579 142.91 215.139 144.35 212.679 144.35C209.319 144.35 207.939 141.68 207.819 138.95L208.119 138.59L215.589 137.51C216.189 137.42 216.969 137.12 216.969 137.12C216.879 133.82 214.329 132.14 211.749 132.14C208.119 132.14 205.419 135.44 205.419 139.52ZM211.299 133.28C213.939 133.28 214.179 136.7 214.179 136.7L207.879 137.51C208.149 135.26 209.289 133.28 211.299 133.28ZM219.218 146.09L226.118 145.91L226.238 145.16L223.388 144.89C223.388 144.89 223.538 144.17 223.538 143.27V136.22C224.198 135.47 225.188 134.48 226.208 134.48C226.898 134.48 226.988 134.99 227.678 134.99C228.458 134.99 229.088 134.42 229.088 133.52C229.088 132.5 228.188 132.14 227.468 132.14C225.908 132.14 224.318 133.94 223.418 135.62C223.508 132.8 223.778 131.81 223.778 131.81L223.688 131.72C223.688 131.72 221.768 132.53 218.828 133.13V133.94H220.178C221.048 133.94 221.078 134.69 221.078 135.98V143.27C221.078 144.35 220.568 145.07 219.218 145.22V146.09ZM230.498 144.32C230.498 146.03 233.618 146.36 234.998 146.36C237.848 146.36 239.798 144.92 239.798 142.43C239.798 137.69 232.958 138.26 232.958 135.08C232.958 134.15 233.588 133.16 235.208 133.16C235.838 133.16 237.908 133.31 237.908 135.77H238.838L239.438 132.68C239.438 132.68 237.488 132.14 235.688 132.14C232.508 132.14 230.798 133.73 230.798 135.95C230.798 140.3 237.668 140.09 237.668 143.3C237.668 144.56 236.648 145.34 235.178 145.34C233.738 145.34 231.968 144.59 231.788 142.04H230.888C230.888 142.04 230.498 143.72 230.498 144.32ZM250.249 142.43C250.249 145.16 251.449 146.36 253.579 146.36C256.189 146.36 257.899 144.5 257.899 144.5L257.509 143.93C257.509 143.93 256.159 144.56 254.809 144.56C253.219 144.56 252.709 143.6 252.709 141.86V134.24L253.009 133.94H257.149L257.359 132.5H252.679V132.05C252.679 129.92 252.949 129.05 252.949 129.05L252.859 128.96L251.509 128.93L250.399 132.2C249.679 132.86 248.359 133.13 248.359 133.13V134.03H250.339C250.339 134.03 250.249 135.11 250.249 135.98V142.43ZM259.179 139.55C259.179 143.39 261.519 146.36 265.749 146.36C270.549 146.36 272.859 142.43 272.859 138.71C272.859 135.02 270.609 132.14 266.229 132.14C261.129 132.14 259.179 136.04 259.179 139.55ZM261.939 138.86C261.939 135.98 263.109 133.16 265.869 133.16C268.899 133.16 270.099 136.58 270.099 139.55C270.099 142.76 268.719 145.34 266.169 145.34C263.169 145.34 261.939 141.86 261.939 138.86ZM281.854 146.09L288.304 145.91L288.424 145.16L286.024 144.89C286.024 144.89 286.174 144.17 286.174 143.27V136.07C287.464 134.78 289.144 133.97 290.494 133.97C291.634 133.97 292.264 134.57 292.264 136.85V143.27C292.264 144.35 291.904 145.07 290.554 145.22V146.09L296.854 145.91L296.974 145.16L294.574 144.89C294.574 144.89 294.724 144.17 294.724 143.27V136.94C294.724 135.2 297.784 133.97 299.134 133.97C300.244 133.97 300.874 134.57 300.874 136.85V143.27C300.874 144.35 300.514 145.07 299.164 145.22V146.09L305.614 145.91L305.734 145.16L303.184 144.89C303.184 144.89 303.334 144.17 303.334 143.27V136.19C303.334 133.19 302.074 132.14 300.124 132.14C297.754 132.14 295.774 133.79 294.634 135.59C294.634 133.22 293.404 132.14 291.484 132.14C289.054 132.14 287.134 133.88 286.054 135.44C286.144 132.77 286.414 131.81 286.414 131.81L286.324 131.72C286.324 131.72 284.464 132.53 281.524 133.13V133.94H282.814C283.684 133.94 283.714 134.69 283.714 135.98V143.27C283.714 144.35 283.204 145.07 281.854 145.22V146.09ZM306.897 143.33C306.897 144.95 308.037 146.36 310.017 146.36C313.107 146.36 314.697 143.51 314.697 143.51V144.23C314.697 145.7 315.597 146.36 316.737 146.36C318.507 146.36 319.917 144.77 319.917 144.77L319.527 144.14C319.527 144.14 318.687 144.74 317.877 144.74C317.187 144.74 317.067 144.29 317.067 143.33V136.43C317.067 133.28 316.317 132.14 313.497 132.14C310.137 132.14 307.947 133.82 307.947 133.82L308.457 136.07H309.417C309.417 136.07 310.557 133.19 312.597 133.19C313.707 133.19 314.277 134 314.487 135.11C314.637 135.95 314.637 137.69 314.607 138.32L313.587 138.47C310.467 138.95 306.897 140.45 306.897 143.33ZM311.217 144.65C310.317 144.65 309.537 143.99 309.537 142.79C309.537 140.63 311.967 139.73 313.677 139.46L314.607 139.31V142.85C313.827 143.51 312.387 144.65 311.217 144.65ZM320.695 146.09L327.145 145.91L327.265 145.16L324.865 144.89C324.865 144.89 325.015 144.17 325.015 143.27V138.98H325.375L329.845 144.02C330.685 145.01 331.075 146.09 331.075 146.09L335.395 146L335.515 145.1L335.185 145.07C334.075 144.98 333.805 144.74 332.485 143.3L328.045 138.5C327.835 138.29 327.565 137.9 327.565 137.9V137.6L331.045 134.63C332.455 133.43 334.195 132.98 334.195 132.98L334.045 132.5H328.555V133.25C329.215 133.43 329.545 133.64 329.545 134C329.545 134.54 328.885 135.02 328.405 135.44L325.375 137.99H325.015V127.34C325.015 125.03 325.315 123.92 325.315 123.92L325.225 123.83C325.225 123.83 323.845 124.43 320.395 125.18V125.99H321.655C322.525 125.99 322.555 126.74 322.555 128.03V143.27C322.555 144.35 322.045 145.07 320.695 145.22V146.09ZM335.439 139.52C335.439 143.03 337.539 146.36 341.799 146.36C345.369 146.36 346.929 143.54 346.929 143.54L346.599 142.91C346.599 142.91 345.159 144.35 342.699 144.35C339.339 144.35 337.959 141.68 337.839 138.95L338.139 138.59L345.609 137.51C346.209 137.42 346.989 137.12 346.989 137.12C346.899 133.82 344.349 132.14 341.769 132.14C338.139 132.14 335.439 135.44 335.439 139.52ZM341.319 133.28C343.959 133.28 344.199 136.7 344.199 136.7L337.899 137.51C338.169 135.26 339.309 133.28 341.319 133.28ZM355.676 143.33C355.676 144.95 356.816 146.36 358.796 146.36C361.886 146.36 363.476 143.51 363.476 143.51V144.23C363.476 145.7 364.376 146.36 365.516 146.36C367.286 146.36 368.696 144.77 368.696 144.77L368.306 144.14C368.306 144.14 367.466 144.74 366.656 144.74C365.966 144.74 365.846 144.29 365.846 143.33V136.43C365.846 133.28 365.096 132.14 362.276 132.14C358.916 132.14 356.726 133.82 356.726 133.82L357.236 136.07H358.196C358.196 136.07 359.336 133.19 361.376 133.19C362.486 133.19 363.056 134 363.266 135.11C363.416 135.95 363.416 137.69 363.386 138.32L362.366 138.47C359.246 138.95 355.676 140.45 355.676 143.33ZM359.996 144.65C359.096 144.65 358.316 143.99 358.316 142.79C358.316 140.63 360.746 139.73 362.456 139.46L363.386 139.31V142.85C362.606 143.51 361.166 144.65 359.996 144.65ZM28.84 187.09L35.29 186.91L35.41 186.16L33.01 185.89C33.01 185.89 33.16 185.17 33.16 184.27V177.01C34.42 175.81 36.25 174.97 37.63 174.97C38.83 174.97 39.7 175.57 39.7 177.85V184.27C39.7 185.35 39.22 186.07 37.99 186.22V187.09L44.44 186.91L44.56 186.16L42.01 185.89C42.01 185.89 42.16 185.17 42.16 184.27V177.19C42.16 174.28 40.81 173.14 38.74 173.14C36.22 173.14 34.12 174.82 33.04 176.38C33.04 176.14 33.16 175.54 33.16 174.16V168.34C33.16 166.03 33.46 164.92 33.46 164.92L33.37 164.83C33.37 164.83 31.99 165.43 28.54 166.18V166.99H29.8C30.67 166.99 30.7 167.74 30.7 169.03V184.27C30.7 185.35 30.19 186.07 28.84 186.22V187.09ZM47.3378 183.34C47.3378 186.22 48.6278 187.36 50.7278 187.36C53.2478 187.36 55.2278 185.59 56.3078 184V185.56C56.3078 186.31 56.0378 187.18 56.0378 187.18L56.1578 187.27C56.1578 187.27 57.8078 187 61.0778 186.67L61.1678 185.86H60.3278C59.3378 185.86 58.6478 185.86 58.6478 184.15V176.23C58.6478 173.92 58.9178 173.08 58.9178 173.08L58.7978 172.99C58.7978 172.99 57.1778 173.59 54.2978 174.1V174.94H55.2878C56.1578 174.94 56.1878 175.69 56.1878 176.98V183.4C54.8978 184.72 53.2178 185.53 51.8378 185.53C50.6078 185.53 49.7978 184.93 49.7978 182.65V176.23C49.7978 173.92 50.0678 173.08 50.0678 173.08L49.9478 172.99C49.9478 172.99 48.2978 173.59 45.3878 174.1V174.94H46.4378C47.3078 174.94 47.3378 175.69 47.3378 176.98V183.34ZM62.6256 187.09L69.0756 186.91L69.1956 186.16L66.7956 185.89C66.7956 185.89 66.9456 185.17 66.9456 184.27V177.07C68.2356 175.78 69.9156 174.97 71.2656 174.97C72.4056 174.97 73.0356 175.57 73.0356 177.85V184.27C73.0356 185.35 72.6756 186.07 71.3256 186.22V187.09L77.6256 186.91L77.7456 186.16L75.3456 185.89C75.3456 185.89 75.4956 185.17 75.4956 184.27V177.94C75.4956 176.2 78.5556 174.97 79.9056 174.97C81.0156 174.97 81.6456 175.57 81.6456 177.85V184.27C81.6456 185.35 81.2856 186.07 79.9356 186.22V187.09L86.3856 186.91L86.5056 186.16L83.9556 185.89C83.9556 185.89 84.1056 185.17 84.1056 184.27V177.19C84.1056 174.19 82.8456 173.14 80.8956 173.14C78.5256 173.14 76.5456 174.79 75.4056 176.59C75.4056 174.22 74.1756 173.14 72.2556 173.14C69.8256 173.14 67.9056 174.88 66.8256 176.44C66.9156 173.77 67.1856 172.81 67.1856 172.81L67.0956 172.72C67.0956 172.72 65.2356 173.53 62.2956 174.13V174.94H63.5856C64.4556 174.94 64.4856 175.69 64.4856 176.98V184.27C64.4856 185.35 63.9756 186.07 62.6256 186.22V187.09ZM87.6681 184.33C87.6681 185.95 88.8081 187.36 90.7881 187.36C93.8781 187.36 95.4681 184.51 95.4681 184.51V185.23C95.4681 186.7 96.3681 187.36 97.5081 187.36C99.2781 187.36 100.688 185.77 100.688 185.77L100.298 185.14C100.298 185.14 99.4581 185.74 98.6481 185.74C97.9581 185.74 97.8381 185.29 97.8381 184.33V177.43C97.8381 174.28 97.0881 173.14 94.2681 173.14C90.9081 173.14 88.7181 174.82 88.7181 174.82L89.2281 177.07H90.1881C90.1881 177.07 91.3281 174.19 93.3681 174.19C94.4781 174.19 95.0481 175 95.2581 176.11C95.4081 176.95 95.4081 178.69 95.3781 179.32L94.3581 179.47C91.2381 179.95 87.6681 181.45 87.6681 184.33ZM91.9881 185.65C91.0881 185.65 90.3081 184.99 90.3081 183.79C90.3081 181.63 92.7381 180.73 94.4481 180.46L95.3781 180.31V183.85C94.5981 184.51 93.1581 185.65 91.9881 185.65ZM101.767 187.09L108.217 186.91L108.337 186.16L105.937 185.86C105.937 185.86 106.087 185.17 106.087 184.27V177.07C107.347 175.78 109.177 174.97 110.557 174.97C111.757 174.97 112.627 175.57 112.627 177.85V184.27C112.627 185.35 112.267 186.07 110.917 186.22V187.09L117.367 186.91L117.487 186.16L114.937 185.86C114.937 185.86 115.087 185.17 115.087 184.27V177.19C115.087 174.28 113.737 173.14 111.667 173.14C109.147 173.14 107.047 174.85 105.967 176.47C105.997 173.8 106.267 172.81 106.267 172.81L106.177 172.72C106.177 172.72 104.317 173.53 101.377 174.13V174.94H102.727C103.597 174.94 103.627 175.69 103.627 176.98V184.27C103.627 185.35 103.117 186.07 101.767 186.22V187.09ZM125.673 180.52C125.673 183.97 127.833 187.36 132.033 187.36C135.513 187.36 136.893 184.75 136.893 184.75L136.563 184.12C136.563 184.12 135.333 185.35 133.083 185.35C129.543 185.35 128.133 182.53 128.133 179.65C128.133 176.74 129.483 174.16 131.883 174.16C133.983 174.16 134.163 176.5 135.693 176.5C136.413 176.5 136.833 175.99 136.833 175.42C136.833 173.86 133.923 173.14 132.093 173.14C127.953 173.14 125.673 176.89 125.673 180.52ZM138.915 180.55C138.915 184.39 141.255 187.36 145.485 187.36C150.285 187.36 152.595 183.43 152.595 179.71C152.595 176.02 150.345 173.14 145.965 173.14C140.865 173.14 138.915 177.04 138.915 180.55ZM141.675 179.86C141.675 176.98 142.845 174.16 145.605 174.16C148.635 174.16 149.835 177.58 149.835 180.55C149.835 183.76 148.455 186.34 145.905 186.34C142.905 186.34 141.675 182.86 141.675 179.86ZM154.882 187.09L161.332 186.91L161.452 186.16L159.052 185.86C159.052 185.86 159.202 185.17 159.202 184.27V177.07C160.462 175.78 162.292 174.97 163.672 174.97C164.872 174.97 165.742 175.57 165.742 177.85V184.27C165.742 185.35 165.382 186.07 164.032 186.22V187.09L170.482 186.91L170.602 186.16L168.052 185.86C168.052 185.86 168.202 185.17 168.202 184.27V177.19C168.202 174.28 166.852 173.14 164.782 173.14C162.262 173.14 160.162 174.85 159.082 176.47C159.112 173.8 159.382 172.81 159.382 172.81L159.292 172.72C159.292 172.72 157.432 173.53 154.492 174.13V174.94H155.842C156.712 174.94 156.742 175.69 156.742 176.98V184.27C156.742 185.35 156.232 186.07 154.882 186.22V187.09ZM172.05 187.09L178.5 186.91L178.62 186.16L176.22 185.86C176.22 185.86 176.37 185.17 176.37 184.27V177.07C177.63 175.78 179.46 174.97 180.84 174.97C182.04 174.97 182.91 175.57 182.91 177.85V184.27C182.91 185.35 182.55 186.07 181.2 186.22V187.09L187.65 186.91L187.77 186.16L185.22 185.86C185.22 185.86 185.37 185.17 185.37 184.27V177.19C185.37 174.28 184.02 173.14 181.95 173.14C179.43 173.14 177.33 174.85 176.25 176.47C176.28 173.8 176.55 172.81 176.55 172.81L176.46 172.72C176.46 172.72 174.6 173.53 171.66 174.13V174.94H173.01C173.88 174.94 173.91 175.69 173.91 176.98V184.27C173.91 185.35 173.4 186.07 172.05 186.22V187.09ZM189.218 180.52C189.218 184.03 191.318 187.36 195.578 187.36C199.148 187.36 200.708 184.54 200.708 184.54L200.378 183.91C200.378 183.91 198.938 185.35 196.478 185.35C193.118 185.35 191.738 182.68 191.618 179.95L191.918 179.59L199.388 178.51C199.988 178.42 200.768 178.12 200.768 178.12C200.678 174.82 198.128 173.14 195.548 173.14C191.918 173.14 189.218 176.44 189.218 180.52ZM195.098 174.28C197.738 174.28 197.978 177.7 197.978 177.7L191.678 178.51C191.948 176.26 193.088 174.28 195.098 174.28ZM203.017 180.52C203.017 183.97 205.177 187.36 209.377 187.36C212.857 187.36 214.237 184.75 214.237 184.75L213.907 184.12C213.907 184.12 212.677 185.35 210.427 185.35C206.887 185.35 205.477 182.53 205.477 179.65C205.477 176.74 206.827 174.16 209.227 174.16C211.327 174.16 211.507 176.5 213.037 176.5C213.757 176.5 214.177 175.99 214.177 175.42C214.177 173.86 211.267 173.14 209.437 173.14C205.297 173.14 203.017 176.89 203.017 180.52ZM217.729 183.43C217.729 186.16 218.929 187.36 221.059 187.36C223.669 187.36 225.379 185.5 225.379 185.5L224.989 184.93C224.989 184.93 223.639 185.56 222.289 185.56C220.699 185.56 220.189 184.6 220.189 182.86V175.24L220.489 174.94H224.629L224.839 173.5H220.159V173.05C220.159 170.92 220.429 170.05 220.429 170.05L220.339 169.96L218.989 169.93L217.879 173.2C217.159 173.86 215.839 174.13 215.839 174.13V175.03H217.819C217.819 175.03 217.729 176.11 217.729 176.98V183.43ZM226.66 187.09L233.26 186.91L233.38 186.16L230.83 185.89C230.83 185.89 230.98 185.17 230.98 184.27V176.23C230.98 173.8 231.31 172.81 231.31 172.81L231.28 172.72C231.28 172.72 230.65 173.11 226.27 174.13V174.94H227.62C228.49 174.94 228.52 175.69 228.52 176.98V184.27C228.52 185.35 228.01 186.07 226.66 186.22V187.09ZM229.48 170.08C230.35 170.08 231.1 169.33 231.1 168.46C231.1 167.59 230.35 166.84 229.48 166.84C228.61 166.84 227.86 167.59 227.86 168.46C227.86 169.33 228.61 170.08 229.48 170.08ZM234.892 180.55C234.892 184.39 237.232 187.36 241.462 187.36C246.262 187.36 248.572 183.43 248.572 179.71C248.572 176.02 246.322 173.14 241.942 173.14C236.842 173.14 234.892 177.04 234.892 180.55ZM237.652 179.86C237.652 176.98 238.822 174.16 241.582 174.16C244.612 174.16 245.812 177.58 245.812 180.55C245.812 183.76 244.432 186.34 241.882 186.34C238.882 186.34 237.652 182.86 237.652 179.86ZM250.859 187.09L257.309 186.91L257.429 186.16L255.029 185.86C255.029 185.86 255.179 185.17 255.179 184.27V177.07C256.439 175.78 258.269 174.97 259.649 174.97C260.849 174.97 261.719 175.57 261.719 177.85V184.27C261.719 185.35 261.359 186.07 260.009 186.22V187.09L266.459 186.91L266.579 186.16L264.029 185.86C264.029 185.86 264.179 185.17 264.179 184.27V177.19C264.179 174.28 262.829 173.14 260.759 173.14C258.239 173.14 256.139 174.85 255.059 176.47C255.089 173.8 255.359 172.81 255.359 172.81L255.269 172.72C255.269 172.72 253.409 173.53 250.469 174.13V174.94H251.819C252.689 174.94 252.719 175.69 252.719 176.98V184.27C252.719 185.35 252.209 186.07 250.859 186.22V187.09ZM279.625 187L280.735 187.39L284.665 178.18L288.115 187L289.225 187.39L294.265 175.57C294.835 174.22 295.345 173.98 295.345 173.98L295.195 173.5H291.175V174.25C292.315 174.52 293.185 175.21 292.675 176.41L289.405 184.18C289.255 183.64 289.075 182.98 288.895 182.47L286.585 176.26C286.045 174.79 286.615 173.5 286.615 173.5L286.495 173.38C286.495 173.38 285.445 173.5 283.555 173.5H282.175V174.25C282.175 174.25 283.255 174.46 283.825 175.99L283.885 176.2C284.005 176.68 283.855 177.19 283.705 177.58L280.915 184.21L280.435 182.59L278.095 176.26C277.555 174.79 278.125 173.5 278.125 173.5L278.005 173.38C278.005 173.38 276.955 173.5 275.065 173.5H273.685V174.25C273.685 174.25 274.735 174.46 275.335 175.99L279.625 187ZM296.679 187.09L303.279 186.91L303.399 186.16L300.849 185.89C300.849 185.89 300.999 185.17 300.999 184.27V176.23C300.999 173.8 301.329 172.81 301.329 172.81L301.299 172.72C301.299 172.72 300.669 173.11 296.289 174.13V174.94H297.639C298.509 174.94 298.539 175.69 298.539 176.98V184.27C298.539 185.35 298.029 186.07 296.679 186.22V187.09ZM299.499 170.08C300.369 170.08 301.119 169.33 301.119 168.46C301.119 167.59 300.369 166.84 299.499 166.84C298.629 166.84 297.879 167.59 297.879 168.46C297.879 169.33 298.629 170.08 299.499 170.08ZM306.469 183.43C306.469 186.16 307.669 187.36 309.799 187.36C312.409 187.36 314.119 185.5 314.119 185.5L313.729 184.93C313.729 184.93 312.379 185.56 311.029 185.56C309.439 185.56 308.929 184.6 308.929 182.86V175.24L309.229 174.94H313.369L313.579 173.5H308.899V173.05C308.899 170.92 309.169 170.05 309.169 170.05L309.079 169.96L307.729 169.93L306.619 173.2C305.899 173.86 304.579 174.13 304.579 174.13V175.03H306.559C306.559 175.03 306.469 176.11 306.469 176.98V183.43ZM315.1 187.09L321.55 186.91L321.67 186.16L319.27 185.89C319.27 185.89 319.42 185.17 319.42 184.27V177.01C320.68 175.81 322.51 174.97 323.89 174.97C325.09 174.97 325.96 175.57 325.96 177.85V184.27C325.96 185.35 325.48 186.07 324.25 186.22V187.09L330.7 186.91L330.82 186.16L328.27 185.89C328.27 185.89 328.42 185.17 328.42 184.27V177.19C328.42 174.28 327.07 173.14 325 173.14C322.48 173.14 320.38 174.82 319.3 176.38C319.3 176.14 319.42 175.54 319.42 174.16V168.34C319.42 166.03 319.72 164.92 319.72 164.92L319.63 164.83C319.63 164.83 318.25 165.43 314.8 166.18V166.99H316.06C316.93 166.99 316.96 167.74 316.96 169.03V184.27C316.96 185.35 316.45 186.07 315.1 186.22V187.09ZM338.684 184.33C338.684 185.95 339.824 187.36 341.804 187.36C344.894 187.36 346.484 184.51 346.484 184.51V185.23C346.484 186.7 347.384 187.36 348.524 187.36C350.294 187.36 351.704 185.77 351.704 185.77L351.314 185.14C351.314 185.14 350.474 185.74 349.664 185.74C348.974 185.74 348.854 185.29 348.854 184.33V177.43C348.854 174.28 348.104 173.14 345.284 173.14C341.924 173.14 339.734 174.82 339.734 174.82L340.244 177.07H341.204C341.204 177.07 342.344 174.19 344.384 174.19C345.494 174.19 346.064 175 346.274 176.11C346.424 176.95 346.424 178.69 346.394 179.32L345.374 179.47C342.254 179.95 338.684 181.45 338.684 184.33ZM343.004 185.65C342.104 185.65 341.324 184.99 341.324 183.79C341.324 181.63 343.754 180.73 345.464 180.46L346.394 180.31V183.85C345.614 184.51 344.174 185.65 343.004 185.65ZM352.783 187.09L359.683 186.91L359.803 186.16L356.953 185.89C356.953 185.89 357.103 185.17 357.103 184.27V177.22C357.763 176.47 358.753 175.48 359.773 175.48C360.463 175.48 360.553 175.99 361.243 175.99C362.023 175.99 362.653 175.42 362.653 174.52C362.653 173.5 361.753 173.14 361.033 173.14C359.473 173.14 357.883 174.94 356.983 176.62C357.073 173.8 357.343 172.81 357.343 172.81L357.253 172.72C357.253 172.72 355.333 173.53 352.393 174.13V174.94H353.743C354.613 174.94 354.643 175.69 354.643 176.98V184.27C354.643 185.35 354.133 186.07 352.783 186.22V187.09ZM365.503 183.43C365.503 186.16 366.703 187.36 368.833 187.36C371.443 187.36 373.153 185.5 373.153 185.5L372.763 184.93C372.763 184.93 371.413 185.56 370.063 185.56C368.473 185.56 367.963 184.6 367.963 182.86V175.24L368.263 174.94H372.403L372.613 173.5H367.933V173.05C367.933 170.92 368.203 170.05 368.203 170.05L368.113 169.96L366.763 169.93L365.653 173.2C364.933 173.86 363.613 174.13 363.613 174.13V175.03H365.593C365.593 175.03 365.503 176.11 365.503 176.98V183.43ZM374.433 187.09L381.033 186.91L381.153 186.16L378.603 185.89C378.603 185.89 378.753 185.17 378.753 184.27V176.23C378.753 173.8 379.083 172.81 379.083 172.81L379.053 172.72C379.053 172.72 378.423 173.11 374.043 174.13V174.94H375.393C376.263 174.94 376.293 175.69 376.293 176.98V184.27C376.293 185.35 375.783 186.07 374.433 186.22V187.09ZM377.253 170.08C378.123 170.08 378.873 169.33 378.873 168.46C378.873 167.59 378.123 166.84 377.253 166.84C376.383 166.84 375.633 167.59 375.633 168.46C375.633 169.33 376.383 170.08 377.253 170.08ZM382.783 185.32C382.783 187.03 385.903 187.36 387.283 187.36C390.133 187.36 392.083 185.92 392.083 183.43C392.083 178.69 385.243 179.26 385.243 176.08C385.243 175.15 385.873 174.16 387.493 174.16C388.123 174.16 390.193 174.31 390.193 176.77H391.123L391.723 173.68C391.723 173.68 389.773 173.14 387.973 173.14C384.793 173.14 383.083 174.73 383.083 176.95C383.083 181.3 389.953 181.09 389.953 184.3C389.953 185.56 388.933 186.34 387.463 186.34C386.023 186.34 384.253 185.59 384.073 183.04H383.173C383.173 183.04 382.783 184.72 382.783 185.32ZM395.796 183.43C395.796 186.16 396.996 187.36 399.126 187.36C401.736 187.36 403.446 185.5 403.446 185.5L403.056 184.93C403.056 184.93 401.706 185.56 400.356 185.56C398.766 185.56 398.256 184.6 398.256 182.86V175.24L398.556 174.94H402.696L402.906 173.5H398.226V173.05C398.226 170.92 398.496 170.05 398.496 170.05L398.406 169.96L397.056 169.93L395.946 173.2C395.226 173.86 393.906 174.13 393.906 174.13V175.03H395.886C395.886 175.03 395.796 176.11 395.796 176.98V183.43ZM404.756 185.32C404.756 187.03 407.876 187.36 409.256 187.36C412.106 187.36 414.056 185.92 414.056 183.43C414.056 178.69 407.216 179.26 407.216 176.08C407.216 175.15 407.846 174.16 409.466 174.16C410.096 174.16 412.166 174.31 412.166 176.77H413.096L413.696 173.68C413.696 173.68 411.746 173.14 409.946 173.14C406.766 173.14 405.056 174.73 405.056 176.95C405.056 181.3 411.926 181.09 411.926 184.3C411.926 185.56 410.906 186.34 409.436 186.34C407.996 186.34 406.226 185.59 406.046 183.04H405.146C405.146 183.04 404.756 184.72 404.756 185.32ZM28.84 224.33C28.84 225.95 29.98 227.36 31.96 227.36C35.05 227.36 36.64 224.51 36.64 224.51V225.23C36.64 226.7 37.54 227.36 38.68 227.36C40.45 227.36 41.86 225.77 41.86 225.77L41.47 225.14C41.47 225.14 40.63 225.74 39.82 225.74C39.13 225.74 39.01 225.29 39.01 224.33V217.43C39.01 214.28 38.26 213.14 35.44 213.14C32.08 213.14 29.89 214.82 29.89 214.82L30.4 217.07H31.36C31.36 217.07 32.5 214.19 34.54 214.19C35.65 214.19 36.22 215 36.43 216.11C36.58 216.95 36.58 218.69 36.55 219.32L35.53 219.47C32.41 219.95 28.84 221.45 28.84 224.33ZM33.16 225.65C32.26 225.65 31.48 224.99 31.48 223.79C31.48 221.63 33.91 220.73 35.62 220.46L36.55 220.31V223.85C35.77 224.51 34.33 225.65 33.16 225.65ZM42.9388 227.09L49.3888 226.91L49.5088 226.16L47.1088 225.86C47.1088 225.86 47.2588 225.17 47.2588 224.27V217.07C48.5188 215.78 50.3488 214.97 51.7288 214.97C52.9288 214.97 53.7988 215.57 53.7988 217.85V224.27C53.7988 225.35 53.4388 226.07 52.0888 226.22V227.09L58.5388 226.91L58.6588 226.16L56.1088 225.86C56.1088 225.86 56.2588 225.17 56.2588 224.27V217.19C56.2588 214.28 54.9088 213.14 52.8388 213.14C50.3188 213.14 48.2188 214.85 47.1388 216.47C47.1688 213.8 47.4388 212.81 47.4388 212.81L47.3488 212.72C47.3488 212.72 45.4888 213.53 42.5488 214.13V214.94H43.8988C44.7688 214.94 44.7988 215.69 44.7988 216.98V224.27C44.7988 225.35 44.2888 226.07 42.9388 226.22V227.09ZM60.0768 220.85C60.0768 224.12 62.0268 227.36 65.7168 227.36C67.9668 227.36 69.1968 226.13 70.0068 224.93V225.56C70.0068 226.31 69.8868 227.15 69.8868 227.15L69.9768 227.24C69.9768 227.24 71.5068 227 74.7768 226.67L74.8668 225.86H74.0268C73.0368 225.86 72.3468 225.86 72.3468 224.15V208.34C72.3468 206.03 72.6468 204.92 72.6468 204.92L72.5568 204.83C72.5568 204.83 71.1768 205.43 67.7268 206.18V206.99H68.9868C69.8568 206.99 69.8868 207.74 69.8868 209.03V213.32C69.8868 213.32 68.8368 213.14 67.7568 213.14C62.6268 213.14 60.0768 217.07 60.0768 220.85ZM66.7668 225.62C64.0668 225.62 62.6868 222.83 62.6868 219.95C62.6868 216.47 64.6668 214.28 67.7268 214.28C68.6868 214.28 69.8868 214.49 69.8868 215.87V224.3C69.4068 224.78 68.2368 225.62 66.7668 225.62ZM83.017 220.55C83.017 224.39 85.357 227.36 89.587 227.36C94.387 227.36 96.697 223.43 96.697 219.71C96.697 216.02 94.447 213.14 90.067 213.14C84.967 213.14 83.017 217.04 83.017 220.55ZM85.777 219.86C85.777 216.98 86.947 214.16 89.707 214.16C92.737 214.16 93.937 217.58 93.937 220.55C93.937 223.76 92.557 226.34 90.007 226.34C87.007 226.34 85.777 222.86 85.777 219.86ZM100.454 223.43C100.454 226.16 101.654 227.36 103.784 227.36C106.394 227.36 108.104 225.5 108.104 225.5L107.714 224.93C107.714 224.93 106.364 225.56 105.014 225.56C103.424 225.56 102.914 224.6 102.914 222.86V215.24L103.214 214.94H107.354L107.564 213.5H102.884V213.05C102.884 210.92 103.154 210.05 103.154 210.05L103.064 209.96L101.714 209.93L100.604 213.2C99.8838 213.86 98.5638 214.13 98.5638 214.13V215.03H100.544C100.544 215.03 100.454 216.11 100.454 216.98V223.43ZM109.084 227.09L115.534 226.91L115.654 226.16L113.254 225.89C113.254 225.89 113.404 225.17 113.404 224.27V217.01C114.664 215.81 116.494 214.97 117.874 214.97C119.074 214.97 119.944 215.57 119.944 217.85V224.27C119.944 225.35 119.464 226.07 118.234 226.22V227.09L124.684 226.91L124.804 226.16L122.254 225.89C122.254 225.89 122.404 225.17 122.404 224.27V217.19C122.404 214.28 121.054 213.14 118.984 213.14C116.464 213.14 114.364 214.82 113.284 216.38C113.284 216.14 113.404 215.54 113.404 214.16V208.34C113.404 206.03 113.704 204.92 113.704 204.92L113.614 204.83C113.614 204.83 112.234 205.43 108.784 206.18V206.99H110.044C110.914 206.99 110.944 207.74 110.944 209.03V224.27C110.944 225.35 110.434 226.07 109.084 226.22V227.09ZM126.23 220.52C126.23 224.03 128.33 227.36 132.59 227.36C136.16 227.36 137.72 224.54 137.72 224.54L137.39 223.91C137.39 223.91 135.95 225.35 133.49 225.35C130.13 225.35 128.75 222.68 128.63 219.95L128.93 219.59L136.4 218.51C137 218.42 137.78 218.12 137.78 218.12C137.69 214.82 135.14 213.14 132.56 213.14C128.93 213.14 126.23 216.44 126.23 220.52ZM132.11 214.28C134.75 214.28 134.99 217.7 134.99 217.7L128.69 218.51C128.96 216.26 130.1 214.28 132.11 214.28ZM140.029 227.09L146.929 226.91L147.049 226.16L144.199 225.89C144.199 225.89 144.349 225.17 144.349 224.27V217.22C145.009 216.47 145.999 215.48 147.019 215.48C147.709 215.48 147.799 215.99 148.489 215.99C149.269 215.99 149.899 215.42 149.899 214.52C149.899 213.5 148.999 213.14 148.279 213.14C146.719 213.14 145.129 214.94 144.229 216.62C144.319 213.8 144.589 212.81 144.589 212.81L144.499 212.72C144.499 212.72 142.579 213.53 139.639 214.13V214.94H140.989C141.859 214.94 141.889 215.69 141.889 216.98V224.27C141.889 225.35 141.379 226.07 140.029 226.22V227.09ZM159.457 223.34C159.457 226.22 160.747 227.36 162.847 227.36C165.367 227.36 167.347 225.59 168.427 224V225.56C168.427 226.31 168.157 227.18 168.157 227.18L168.277 227.27C168.277 227.27 169.927 227 173.197 226.67L173.287 225.86H172.447C171.457 225.86 170.767 225.86 170.767 224.15V216.23C170.767 213.92 171.037 213.08 171.037 213.08L170.917 212.99C170.917 212.99 169.297 213.59 166.417 214.1V214.94H167.407C168.277 214.94 168.307 215.69 168.307 216.98V223.4C167.017 224.72 165.337 225.53 163.957 225.53C162.727 225.53 161.917 224.93 161.917 222.65V216.23C161.917 213.92 162.187 213.08 162.187 213.08L162.067 212.99C162.067 212.99 160.417 213.59 157.507 214.1V214.94H158.557C159.427 214.94 159.457 215.69 159.457 216.98V223.34ZM174.805 225.32C174.805 227.03 177.925 227.36 179.305 227.36C182.155 227.36 184.105 225.92 184.105 223.43C184.105 218.69 177.265 219.26 177.265 216.08C177.265 215.15 177.895 214.16 179.515 214.16C180.145 214.16 182.215 214.31 182.215 216.77H183.145L183.745 213.68C183.745 213.68 181.795 213.14 179.995 213.14C176.815 213.14 175.105 214.73 175.105 216.95C175.105 221.3 181.975 221.09 181.975 224.3C181.975 225.56 180.955 226.34 179.485 226.34C178.045 226.34 176.275 225.59 176.095 223.04H175.195C175.195 223.04 174.805 224.72 174.805 225.32ZM186.347 220.52C186.347 224.03 188.447 227.36 192.707 227.36C196.277 227.36 197.837 224.54 197.837 224.54L197.507 223.91C197.507 223.91 196.067 225.35 193.607 225.35C190.247 225.35 188.867 222.68 188.747 219.95L189.047 219.59L196.517 218.51C197.117 218.42 197.897 218.12 197.897 218.12C197.807 214.82 195.257 213.14 192.677 213.14C189.047 213.14 186.347 216.44 186.347 220.52ZM192.227 214.28C194.867 214.28 195.107 217.7 195.107 217.7L188.807 218.51C189.077 216.26 190.217 214.28 192.227 214.28ZM200.146 227.09L207.046 226.91L207.166 226.16L204.316 225.89C204.316 225.89 204.466 225.17 204.466 224.27V217.22C205.126 216.47 206.116 215.48 207.136 215.48C207.826 215.48 207.916 215.99 208.606 215.99C209.386 215.99 210.016 215.42 210.016 214.52C210.016 213.5 209.116 213.14 208.396 213.14C206.836 213.14 205.246 214.94 204.346 216.62C204.436 213.8 204.706 212.81 204.706 212.81L204.616 212.72C204.616 212.72 202.696 213.53 199.756 214.13V214.94H201.106C201.976 214.94 202.006 215.69 202.006 216.98V224.27C202.006 225.35 201.496 226.07 200.146 226.22V227.09ZM211.426 225.32C211.426 227.03 214.546 227.36 215.926 227.36C218.776 227.36 220.726 225.92 220.726 223.43C220.726 218.69 213.886 219.26 213.886 216.08C213.886 215.15 214.516 214.16 216.136 214.16C216.766 214.16 218.836 214.31 218.836 216.77H219.766L220.366 213.68C220.366 213.68 218.416 213.14 216.616 213.14C213.436 213.14 211.726 214.73 211.726 216.95C211.726 221.3 218.596 221.09 218.596 224.3C218.596 225.56 217.576 226.34 216.106 226.34C214.666 226.34 212.896 225.59 212.716 223.04H211.816C211.816 223.04 211.426 224.72 211.426 225.32Z" fill="#333333"/>
</svg>
