<svg width="472" height="264" viewBox="0 0 472 264" fill="none" xmlns="http://www.w3.org/2000/svg">
<path d="M3 3H469V261H3V3Z" fill="white" stroke="#828282" stroke-width="6"/>
<path d="M29.44 33.994V46H31.276V41.122H32.104C32.986 41.122 34.084 40.996 35.038 40.186C36.028 39.34 36.208 38.26 36.208 37.558C36.208 36.46 35.722 35.308 34.714 34.642C33.85 34.066 32.824 33.994 32.086 33.994H29.44ZM31.276 35.686H32.086C34.174 35.686 34.444 36.874 34.444 37.54C34.444 38.656 33.688 39.43 32.104 39.43H31.276V35.686ZM46.5795 46H48.5595L42.8715 33.292L36.8955 46H38.8755L40.1895 43.102H45.3195L46.5795 46ZM40.9455 41.374L42.7995 37.306L44.5815 41.374H40.9455ZM50.796 33.994V46H52.632V33.994H50.796ZM58.063 46V37.612L66.775 46.738V33.994H64.939V42.31L56.227 33.184V46H58.063ZM75.2978 33.994V46H77.1338V41.122H77.9618C78.8438 41.122 79.9418 40.996 80.8958 40.186C81.8858 39.34 82.0658 38.26 82.0658 37.558C82.0658 36.46 81.5798 35.308 80.5718 34.642C79.7078 34.066 78.6818 33.994 77.9438 33.994H75.2978ZM77.1338 35.686H77.9438C80.0318 35.686 80.3018 36.874 80.3018 37.54C80.3018 38.656 79.5458 39.43 77.9618 39.43H77.1338V35.686ZM90.3362 33.778C86.7362 33.778 84.0902 36.478 84.0902 40.006C84.0902 43.534 86.7362 46.234 90.3362 46.234C93.9363 46.234 96.5823 43.534 96.5823 40.006C96.5823 36.478 93.9363 33.778 90.3362 33.778ZM90.3362 44.542C87.7622 44.542 85.9262 42.67 85.9262 40.006C85.9262 37.342 87.7622 35.47 90.3362 35.47C92.9103 35.47 94.7463 37.342 94.7463 40.006C94.7463 42.67 92.9103 44.542 90.3362 44.542ZM99.607 33.994V46H101.443V33.994H99.607ZM106.874 46V37.612L115.586 46.738V33.994H113.75V42.31L105.038 33.184V46H106.874ZM125.272 35.722V33.994H117.928V35.722H120.682V46H122.518V35.722H125.272ZM139.764 44.308H135.282L137.154 42.094C137.874 41.248 138.432 40.582 138.864 39.934C139.35 39.214 139.728 38.404 139.728 37.414C139.728 35.542 138.414 33.796 135.858 33.796C134.346 33.796 133.482 34.48 133.05 34.966C132.582 35.488 132.096 36.424 132.042 37.594H133.806C133.878 36.46 134.58 35.416 135.93 35.416C137.262 35.416 137.928 36.352 137.928 37.36C137.928 38.062 137.64 38.584 137.298 39.088C136.902 39.664 136.272 40.456 135.858 40.96L131.7 46H139.764V44.308ZM29.68 106.09C29.68 106.09 32.38 106 33.88 106H43.54L44.77 100.51H43.75C42.25 103.9 41.77 104.83 39.19 104.83H34.18C34.18 104.83 34.33 104.08 34.33 103.18V89.62C34.33 87.13 35.32 85.99 35.32 85.99L35.17 85.87C35.17 85.87 34.51 85.99 31.81 85.99H29.47V86.74C31.69 87.19 31.69 87.49 31.69 88.93V103.27C31.69 104.35 31.03 104.98 29.68 105.13V106.09ZM46.0736 99.55C46.0736 103.39 48.4136 106.36 52.6436 106.36C57.4436 106.36 59.7536 102.43 59.7536 98.71C59.7536 95.02 57.5036 92.14 53.1236 92.14C48.0236 92.14 46.0736 96.04 46.0736 99.55ZM48.8336 98.86C48.8336 95.98 50.0036 93.16 52.7636 93.16C55.7936 93.16 56.9936 96.58 56.9936 99.55C56.9936 102.76 55.6136 105.34 53.0636 105.34C50.0636 105.34 48.8336 101.86 48.8336 98.86ZM66.9004 106L68.0104 106.39L71.9404 97.18L75.3904 106L76.5004 106.39L81.5404 94.57C82.1104 93.22 82.6204 92.98 82.6204 92.98L82.4704 92.5H78.4504V93.25C79.5904 93.52 80.4604 94.21 79.9504 95.41L76.6804 103.18C76.5304 102.64 76.3504 101.98 76.1704 101.47L73.8604 95.26C73.3204 93.79 73.8904 92.5 73.8904 92.5L73.7704 92.38C73.7704 92.38 72.7204 92.5 70.8304 92.5H69.4504V93.25C69.4504 93.25 70.5304 93.46 71.1004 94.99L71.1604 95.2C71.2804 95.68 71.1304 96.19 70.9804 96.58L68.1904 103.21L67.7104 101.59L65.3704 95.26C64.8304 93.79 65.4004 92.5 65.4004 92.5L65.2804 92.38C65.2804 92.38 64.2304 92.5 62.3404 92.5H60.9604V93.25C60.9604 93.25 62.0104 93.46 62.6104 94.99L66.9004 106ZM90.6627 99.85C90.6627 103.12 92.6127 106.36 96.3027 106.36C98.5527 106.36 99.7827 105.13 100.593 103.93V104.56C100.593 105.31 100.473 106.15 100.473 106.15L100.563 106.24C100.563 106.24 102.093 106 105.363 105.67L105.453 104.86H104.613C103.623 104.86 102.933 104.86 102.933 103.15V87.34C102.933 85.03 103.233 83.92 103.233 83.92L103.143 83.83C103.143 83.83 101.763 84.43 98.3127 85.18V85.99H99.5727C100.443 85.99 100.473 86.74 100.473 88.03V92.32C100.473 92.32 99.4227 92.14 98.3427 92.14C93.2127 92.14 90.6627 96.07 90.6627 99.85ZM97.3527 104.62C94.6527 104.62 93.2727 101.83 93.2727 98.95C93.2727 95.47 95.2527 93.28 98.3127 93.28C99.2727 93.28 100.473 93.49 100.473 94.87V103.3C99.9927 103.78 98.8227 104.62 97.3527 104.62ZM106.865 106.09L113.465 105.91L113.585 105.16L111.035 104.89C111.035 104.89 111.185 104.17 111.185 103.27V95.23C111.185 92.8 111.515 91.81 111.515 91.81L111.485 91.72C111.485 91.72 110.855 92.11 106.475 93.13V93.94H107.825C108.695 93.94 108.725 94.69 108.725 95.98V103.27C108.725 104.35 108.215 105.07 106.865 105.22V106.09ZM109.685 89.08C110.555 89.08 111.305 88.33 111.305 87.46C111.305 86.59 110.555 85.84 109.685 85.84C108.815 85.84 108.065 86.59 108.065 87.46C108.065 88.33 108.815 89.08 109.685 89.08ZM115.215 104.32C115.215 106.03 118.335 106.36 119.715 106.36C122.565 106.36 124.515 104.92 124.515 102.43C124.515 97.69 117.675 98.26 117.675 95.08C117.675 94.15 118.305 93.16 119.925 93.16C120.555 93.16 122.625 93.31 122.625 95.77H123.555L124.155 92.68C124.155 92.68 122.205 92.14 120.405 92.14C117.225 92.14 115.515 93.73 115.515 95.95C115.515 100.3 122.385 100.09 122.385 103.3C122.385 104.56 121.365 105.34 119.895 105.34C118.455 105.34 116.685 104.59 116.505 102.04H115.605C115.605 102.04 115.215 103.72 115.215 104.32ZM126.757 99.52C126.757 102.97 128.917 106.36 133.117 106.36C136.597 106.36 137.977 103.75 137.977 103.75L137.647 103.12C137.647 103.12 136.417 104.35 134.167 104.35C130.627 104.35 129.217 101.53 129.217 98.65C129.217 95.74 130.567 93.16 132.967 93.16C135.067 93.16 135.247 95.5 136.777 95.5C137.497 95.5 137.917 94.99 137.917 94.42C137.917 92.86 135.007 92.14 133.177 92.14C129.037 92.14 126.757 95.89 126.757 99.52ZM139.999 99.55C139.999 103.39 142.339 106.36 146.569 106.36C151.369 106.36 153.679 102.43 153.679 98.71C153.679 95.02 151.429 92.14 147.049 92.14C141.949 92.14 139.999 96.04 139.999 99.55ZM142.759 98.86C142.759 95.98 143.929 93.16 146.689 93.16C149.719 93.16 150.919 96.58 150.919 99.55C150.919 102.76 149.539 105.34 146.989 105.34C143.989 105.34 142.759 101.86 142.759 98.86ZM160.826 106L162.086 106.39L167.336 94.54C167.966 93.16 168.416 92.98 168.416 92.98L168.266 92.5H164.216V93.25C165.356 93.52 166.286 94.12 165.716 95.44L162.176 103.45C162.026 102.88 161.816 102.13 161.636 101.59L159.356 95.26C159.026 94.36 159.026 93.31 159.386 92.5L159.266 92.38C159.266 92.38 158.156 92.5 156.266 92.5H154.886V93.25C154.886 93.25 155.936 93.46 156.536 94.99L160.826 106ZM169.677 99.52C169.677 103.03 171.777 106.36 176.037 106.36C179.607 106.36 181.167 103.54 181.167 103.54L180.837 102.91C180.837 102.91 179.397 104.35 176.937 104.35C173.577 104.35 172.197 101.68 172.077 98.95L172.377 98.59L179.847 97.51C180.447 97.42 181.227 97.12 181.227 97.12C181.137 93.82 178.587 92.14 176.007 92.14C172.377 92.14 169.677 95.44 169.677 99.52ZM175.557 93.28C178.197 93.28 178.437 96.7 178.437 96.7L172.137 97.51C172.407 95.26 173.547 93.28 175.557 93.28ZM183.476 106.09L190.376 105.91L190.496 105.16L187.646 104.89C187.646 104.89 187.796 104.17 187.796 103.27V96.22C188.456 95.47 189.446 94.48 190.466 94.48C191.156 94.48 191.246 94.99 191.936 94.99C192.716 94.99 193.346 94.42 193.346 93.52C193.346 92.5 192.446 92.14 191.726 92.14C190.166 92.14 188.576 93.94 187.676 95.62C187.766 92.8 188.036 91.81 188.036 91.81L187.946 91.72C187.946 91.72 186.026 92.53 183.086 93.13V93.94H184.436C185.306 93.94 185.336 94.69 185.336 95.98V103.27C185.336 104.35 184.826 105.07 183.476 105.22V106.09ZM194.426 103.33C194.426 104.95 195.566 106.36 197.546 106.36C200.636 106.36 202.226 103.51 202.226 103.51V104.23C202.226 105.7 203.126 106.36 204.266 106.36C206.036 106.36 207.446 104.77 207.446 104.77L207.056 104.14C207.056 104.14 206.216 104.74 205.406 104.74C204.716 104.74 204.596 104.29 204.596 103.33V96.43C204.596 93.28 203.846 92.14 201.026 92.14C197.666 92.14 195.476 93.82 195.476 93.82L195.986 96.07H196.946C196.946 96.07 198.086 93.19 200.126 93.19C201.236 93.19 201.806 94 202.016 95.11C202.166 95.95 202.166 97.69 202.136 98.32L201.116 98.47C197.996 98.95 194.426 100.45 194.426 103.33ZM198.746 104.65C197.846 104.65 197.066 103.99 197.066 102.79C197.066 100.63 199.496 99.73 201.206 99.46L202.136 99.31V102.85C201.356 103.51 199.916 104.65 198.746 104.65ZM212.125 104.8V94.99C212.575 94.57 213.805 93.88 215.125 93.88C217.825 93.88 219.205 96.67 219.205 99.55C219.205 102.97 217.225 105.22 214.315 105.22C213.055 105.22 212.125 104.8 212.125 104.8ZM209.395 105.91L209.485 106C210.535 106 212.455 106.36 214.075 106.36C219.325 106.36 221.815 102.46 221.815 98.68C221.815 95.38 219.925 92.14 216.265 92.14C214.015 92.14 212.815 93.37 212.005 94.36C212.005 94.12 212.125 93.52 212.125 92.14V87.34C212.125 85.03 212.425 83.92 212.425 83.92L212.335 83.83C212.335 83.83 210.955 84.43 207.505 85.18V85.99H208.765C209.635 85.99 209.665 86.74 209.665 88.03V102.91C209.665 104.59 209.395 105.91 209.395 105.91ZM224.081 106.09L230.681 105.91L230.801 105.16L228.251 104.89C228.251 104.89 228.401 104.17 228.401 103.27V95.23C228.401 92.8 228.731 91.81 228.731 91.81L228.701 91.72C228.701 91.72 228.071 92.11 223.691 93.13V93.94H225.041C225.911 93.94 225.941 94.69 225.941 95.98V103.27C225.941 104.35 225.431 105.07 224.081 105.22V106.09ZM226.901 89.08C227.771 89.08 228.521 88.33 228.521 87.46C228.521 86.59 227.771 85.84 226.901 85.84C226.031 85.84 225.281 86.59 225.281 87.46C225.281 88.33 226.031 89.08 226.901 89.08ZM232.102 106.09L238.702 105.91L238.822 105.16L236.272 104.89C236.272 104.89 236.422 104.17 236.422 103.27V87.34C236.422 85.03 236.722 83.92 236.722 83.92L236.632 83.83C236.632 83.83 235.252 84.43 231.802 85.18V85.99H233.062C233.932 85.99 233.962 86.74 233.962 88.03V103.27C233.962 104.35 233.452 105.07 232.102 105.22V106.09ZM240.4 106.09L247 105.91L247.12 105.16L244.57 104.89C244.57 104.89 244.72 104.17 244.72 103.27V95.23C244.72 92.8 245.05 91.81 245.05 91.81L245.02 91.72C245.02 91.72 244.39 92.11 240.01 93.13V93.94H241.36C242.23 93.94 242.26 94.69 242.26 95.98V103.27C242.26 104.35 241.75 105.07 240.4 105.22V106.09ZM243.22 89.08C244.09 89.08 244.84 88.33 244.84 87.46C244.84 86.59 244.09 85.84 243.22 85.84C242.35 85.84 241.6 86.59 241.6 87.46C241.6 88.33 242.35 89.08 243.22 89.08ZM250.19 102.43C250.19 105.16 251.39 106.36 253.52 106.36C256.13 106.36 257.84 104.5 257.84 104.5L257.45 103.93C257.45 103.93 256.1 104.56 254.75 104.56C253.16 104.56 252.65 103.6 252.65 101.86V94.24L252.95 93.94H257.09L257.3 92.5H252.62V92.05C252.62 89.92 252.89 89.05 252.89 89.05L252.8 88.96L251.45 88.93L250.34 92.2C249.62 92.86 248.3 93.13 248.3 93.13V94.03H250.28C250.28 94.03 250.19 95.11 250.19 95.98V102.43ZM260.11 110.62C259.03 110.62 258.64 111.25 258.64 111.85C258.64 112.51 259.09 113.11 259.96 113.11C262.84 113.11 264.55 108.16 265.36 106.36L270.55 94.57C271.09 93.28 271.63 92.98 271.63 92.98L271.48 92.5H267.31V93.25C268.42 93.55 269.47 94.21 268.96 95.41L265.57 103.15C265.42 102.61 265.18 101.86 265 101.35L262.57 95.26C262.24 94.45 262.24 93.22 262.6 92.5L262.48 92.38C262.48 92.38 261.31 92.5 259.42 92.5H258.01V93.25C258.01 93.25 259.06 93.49 259.69 94.99L263.53 104.17C263.86 105.01 264.1 105.7 264.25 106.12L263.29 108.37C262.75 109.6 261.7 110.62 260.11 110.62ZM279.687 99.55C279.687 103.39 282.027 106.36 286.257 106.36C291.057 106.36 293.367 102.43 293.367 98.71C293.367 95.02 291.117 92.14 286.737 92.14C281.637 92.14 279.687 96.04 279.687 99.55ZM282.447 98.86C282.447 95.98 283.617 93.16 286.377 93.16C289.407 93.16 290.607 96.58 290.607 99.55C290.607 102.76 289.227 105.34 286.677 105.34C283.677 105.34 282.447 101.86 282.447 98.86ZM295.624 106.09L302.824 105.91L302.944 105.16L299.794 104.89C299.794 104.89 299.944 104.17 299.944 103.27V94.24L300.244 93.94H303.934L304.174 92.5H299.944V90.85C299.944 86.98 300.664 85.54 302.194 85.54C303.814 85.54 304.474 87.07 305.554 87.07C306.364 87.07 306.814 86.5 306.814 85.93C306.814 84.67 305.044 84.16 303.604 84.16C299.704 84.16 297.484 87.19 297.484 91.66V92.47L295.594 93.13V94.03H297.484V103.27C297.484 104.35 296.974 105.07 295.624 105.22V106.09ZM313.676 102.43C313.676 105.16 314.876 106.36 317.006 106.36C319.616 106.36 321.326 104.5 321.326 104.5L320.936 103.93C320.936 103.93 319.586 104.56 318.236 104.56C316.646 104.56 316.136 103.6 316.136 101.86V94.24L316.436 93.94H320.576L320.786 92.5H316.106V92.05C316.106 89.92 316.376 89.05 316.376 89.05L316.286 88.96L314.936 88.93L313.826 92.2C313.106 92.86 311.786 93.13 311.786 93.13V94.03H313.766C313.766 94.03 313.676 95.11 313.676 95.98V102.43ZM322.607 99.55C322.607 103.39 324.947 106.36 329.177 106.36C333.977 106.36 336.287 102.43 336.287 98.71C336.287 95.02 334.037 92.14 329.657 92.14C324.557 92.14 322.607 96.04 322.607 99.55ZM325.367 98.86C325.367 95.98 326.537 93.16 329.297 93.16C332.327 93.16 333.527 96.58 333.527 99.55C333.527 102.76 332.147 105.34 329.597 105.34C326.597 105.34 325.367 101.86 325.367 98.86ZM338.574 113.35C340.734 112.63 345.474 112.06 345.474 112.06L345.594 111.34H342.444C342.444 111.34 342.594 110.53 342.594 109.63V106.18C343.164 106.27 343.794 106.36 344.604 106.36C349.884 106.36 352.314 102.49 352.314 98.68C352.314 95.38 350.514 92.14 346.854 92.14C344.484 92.14 343.344 93.46 342.534 94.48C342.654 92.56 342.834 91.81 342.834 91.81L342.744 91.72C342.744 91.72 340.974 92.53 338.034 93.13V93.94H339.234C340.104 93.94 340.134 94.69 340.134 95.98V109.66C340.134 111.04 339.924 111.73 338.574 112.48V113.35ZM344.754 105.22C343.764 105.22 342.594 105.01 342.594 103.6V95.14C343.524 94.42 344.604 93.88 345.774 93.88C348.444 93.88 349.704 96.67 349.704 99.55C349.704 102.97 347.874 105.22 344.754 105.22ZM355.319 99.49H362.399V97.51H355.319V99.49ZM364.934 106.09L371.534 105.91L371.654 105.16L369.104 104.89C369.104 104.89 369.254 104.17 369.254 103.27V87.34C369.254 85.03 369.554 83.92 369.554 83.92L369.464 83.83C369.464 83.83 368.084 84.43 364.634 85.18V85.99H365.894C366.764 85.99 366.794 86.74 366.794 88.03V103.27C366.794 104.35 366.284 105.07 364.934 105.22V106.09ZM373.144 99.52C373.144 103.03 375.244 106.36 379.504 106.36C383.074 106.36 384.634 103.54 384.634 103.54L384.304 102.91C384.304 102.91 382.864 104.35 380.404 104.35C377.044 104.35 375.664 101.68 375.544 98.95L375.844 98.59L383.314 97.51C383.914 97.42 384.694 97.12 384.694 97.12C384.604 93.82 382.054 92.14 379.474 92.14C375.844 92.14 373.144 95.44 373.144 99.52ZM379.024 93.28C381.664 93.28 381.904 96.7 381.904 96.7L375.604 97.51C375.874 95.26 377.014 93.28 379.024 93.28ZM391.803 106L393.063 106.39L398.313 94.54C398.943 93.16 399.393 92.98 399.393 92.98L399.243 92.5H395.193V93.25C396.333 93.52 397.263 94.12 396.693 95.44L393.153 103.45C393.003 102.88 392.793 102.13 392.613 101.59L390.333 95.26C390.003 94.36 390.003 93.31 390.363 92.5L390.243 92.38C390.243 92.38 389.133 92.5 387.243 92.5H385.863V93.25C385.863 93.25 386.913 93.46 387.513 94.99L391.803 106ZM400.654 99.52C400.654 103.03 402.754 106.36 407.014 106.36C410.584 106.36 412.144 103.54 412.144 103.54L411.814 102.91C411.814 102.91 410.374 104.35 407.914 104.35C404.554 104.35 403.174 101.68 403.054 98.95L403.354 98.59L410.824 97.51C411.424 97.42 412.204 97.12 412.204 97.12C412.114 93.82 409.564 92.14 406.984 92.14C403.354 92.14 400.654 95.44 400.654 99.52ZM406.534 93.28C409.174 93.28 409.414 96.7 409.414 96.7L403.114 97.51C403.384 95.26 404.524 93.28 406.534 93.28ZM414.153 106.09L420.753 105.91L420.873 105.16L418.323 104.89C418.323 104.89 418.473 104.17 418.473 103.27V87.34C418.473 85.03 418.773 83.92 418.773 83.92L418.683 83.83C418.683 83.83 417.303 84.43 413.853 85.18V85.99H415.113C415.983 85.99 416.013 86.74 416.013 88.03V103.27C416.013 104.35 415.503 105.07 414.153 105.22V106.09ZM28.84 146.09L35.29 145.91L35.41 145.16L33.01 144.89C33.01 144.89 33.16 144.17 33.16 143.27V136.01C34.42 134.81 36.25 133.97 37.63 133.97C38.83 133.97 39.7 134.57 39.7 136.85V143.27C39.7 144.35 39.22 145.07 37.99 145.22V146.09L44.44 145.91L44.56 145.16L42.01 144.89C42.01 144.89 42.16 144.17 42.16 143.27V136.19C42.16 133.28 40.81 132.14 38.74 132.14C36.22 132.14 34.12 133.82 33.04 135.38C33.04 135.14 33.16 134.54 33.16 133.16V127.34C33.16 125.03 33.46 123.92 33.46 123.92L33.37 123.83C33.37 123.83 31.99 124.43 28.54 125.18V125.99H29.8C30.67 125.99 30.7 126.74 30.7 128.03V143.27C30.7 144.35 30.19 145.07 28.84 145.22V146.09ZM45.9857 146.09L52.5857 145.91L52.7057 145.16L50.1557 144.89C50.1557 144.89 50.3057 144.17 50.3057 143.27V135.23C50.3057 132.8 50.6357 131.81 50.6357 131.81L50.6057 131.72C50.6057 131.72 49.9757 132.11 45.5957 133.13V133.94H46.9457C47.8157 133.94 47.8457 134.69 47.8457 135.98V143.27C47.8457 144.35 47.3357 145.07 45.9857 145.22V146.09ZM48.8057 129.08C49.6757 129.08 50.4257 128.33 50.4257 127.46C50.4257 126.59 49.6757 125.84 48.8057 125.84C47.9357 125.84 47.1857 126.59 47.1857 127.46C47.1857 128.33 47.9357 129.08 48.8057 129.08ZM54.2181 139.52C54.2181 143.03 56.3181 146.36 60.5781 146.36C64.1481 146.36 65.7081 143.54 65.7081 143.54L65.3781 142.91C65.3781 142.91 63.9381 144.35 61.4781 144.35C58.1181 144.35 56.7381 141.68 56.6181 138.95L56.9181 138.59L64.3881 137.51C64.9881 137.42 65.7681 137.12 65.7681 137.12C65.6781 133.82 63.1281 132.14 60.5481 132.14C56.9181 132.14 54.2181 135.44 54.2181 139.52ZM60.0981 133.28C62.7381 133.28 62.9781 136.7 62.9781 136.7L56.6781 137.51C56.9481 135.26 58.0881 133.28 60.0981 133.28ZM68.017 146.09L74.917 145.91L75.037 145.16L72.187 144.89C72.187 144.89 72.337 144.17 72.337 143.27V136.22C72.997 135.47 73.987 134.48 75.007 134.48C75.697 134.48 75.787 134.99 76.477 134.99C77.257 134.99 77.887 134.42 77.887 133.52C77.887 132.5 76.987 132.14 76.267 132.14C74.707 132.14 73.117 133.94 72.217 135.62C72.307 132.8 72.577 131.81 72.577 131.81L72.487 131.72C72.487 131.72 70.567 132.53 67.627 133.13V133.94H68.977C69.847 133.94 69.877 134.69 69.877 135.98V143.27C69.877 144.35 69.367 145.07 68.017 145.22V146.09ZM78.967 143.33C78.967 144.95 80.107 146.36 82.087 146.36C85.177 146.36 86.767 143.51 86.767 143.51V144.23C86.767 145.7 87.667 146.36 88.807 146.36C90.577 146.36 91.987 144.77 91.987 144.77L91.597 144.14C91.597 144.14 90.757 144.74 89.947 144.74C89.257 144.74 89.137 144.29 89.137 143.33V136.43C89.137 133.28 88.387 132.14 85.567 132.14C82.207 132.14 80.017 133.82 80.017 133.82L80.527 136.07H81.487C81.487 136.07 82.627 133.19 84.667 133.19C85.777 133.19 86.347 134 86.557 135.11C86.707 135.95 86.707 137.69 86.677 138.32L85.657 138.47C82.537 138.95 78.967 140.45 78.967 143.33ZM83.287 144.65C82.387 144.65 81.607 143.99 81.607 142.79C81.607 140.63 84.037 139.73 85.747 139.46L86.677 139.31V142.85C85.897 143.51 84.457 144.65 83.287 144.65ZM93.0658 146.09L99.9658 145.91L100.086 145.16L97.2358 144.89C97.2358 144.89 97.3858 144.17 97.3858 143.27V136.22C98.0458 135.47 99.0358 134.48 100.056 134.48C100.746 134.48 100.836 134.99 101.526 134.99C102.306 134.99 102.936 134.42 102.936 133.52C102.936 132.5 102.036 132.14 101.316 132.14C99.7558 132.14 98.1658 133.94 97.2658 135.62C97.3558 132.8 97.6258 131.81 97.6258 131.81L97.5358 131.72C97.5358 131.72 95.6158 132.53 92.6758 133.13V133.94H94.0258C94.8958 133.94 94.9258 134.69 94.9258 135.98V143.27C94.9258 144.35 94.4158 145.07 93.0658 145.22V146.09ZM104.199 139.52C104.199 142.97 106.359 146.36 110.559 146.36C114.039 146.36 115.419 143.75 115.419 143.75L115.089 143.12C115.089 143.12 113.859 144.35 111.609 144.35C108.069 144.35 106.659 141.53 106.659 138.65C106.659 135.74 108.009 133.16 110.409 133.16C112.509 133.16 112.689 135.5 114.219 135.5C114.939 135.5 115.359 134.99 115.359 134.42C115.359 132.86 112.449 132.14 110.619 132.14C106.479 132.14 104.199 135.89 104.199 139.52ZM117.141 146.09L123.591 145.91L123.711 145.16L121.311 144.89C121.311 144.89 121.461 144.17 121.461 143.27V136.01C122.721 134.81 124.551 133.97 125.931 133.97C127.131 133.97 128.001 134.57 128.001 136.85V143.27C128.001 144.35 127.521 145.07 126.291 145.22V146.09L132.741 145.91L132.861 145.16L130.311 144.89C130.311 144.89 130.461 144.17 130.461 143.27V136.19C130.461 133.28 129.111 132.14 127.041 132.14C124.521 132.14 122.421 133.82 121.341 135.38C121.341 135.14 121.461 134.54 121.461 133.16V127.34C121.461 125.03 121.761 123.92 121.761 123.92L121.671 123.83C121.671 123.83 120.291 124.43 116.841 125.18V125.99H118.101C118.971 125.99 119.001 126.74 119.001 128.03V143.27C119.001 144.35 118.491 145.07 117.141 145.22V146.09ZM134.286 146.09L140.886 145.91L141.006 145.16L138.456 144.89C138.456 144.89 138.606 144.17 138.606 143.27V135.23C138.606 132.8 138.936 131.81 138.936 131.81L138.906 131.72C138.906 131.72 138.276 132.11 133.896 133.13V133.94H135.246C136.116 133.94 136.146 134.69 136.146 135.98V143.27C136.146 144.35 135.636 145.07 134.286 145.22V146.09ZM137.106 129.08C137.976 129.08 138.726 128.33 138.726 127.46C138.726 126.59 137.976 125.84 137.106 125.84C136.236 125.84 135.486 126.59 135.486 127.46C135.486 128.33 136.236 129.08 137.106 129.08ZM142.519 139.52C142.519 143.03 144.619 146.36 148.879 146.36C152.449 146.36 154.009 143.54 154.009 143.54L153.679 142.91C153.679 142.91 152.239 144.35 149.779 144.35C146.419 144.35 145.039 141.68 144.919 138.95L145.219 138.59L152.689 137.51C153.289 137.42 154.069 137.12 154.069 137.12C153.979 133.82 151.429 132.14 148.849 132.14C145.219 132.14 142.519 135.44 142.519 139.52ZM148.399 133.28C151.039 133.28 151.279 136.7 151.279 136.7L144.979 137.51C145.249 135.26 146.389 133.28 148.399 133.28ZM156.348 144.32C156.348 146.03 159.468 146.36 160.848 146.36C163.698 146.36 165.648 144.92 165.648 142.43C165.648 137.69 158.808 138.26 158.808 135.08C158.808 134.15 159.438 133.16 161.058 133.16C161.688 133.16 163.758 133.31 163.758 135.77H164.688L165.288 132.68C165.288 132.68 163.338 132.14 161.538 132.14C158.358 132.14 156.648 133.73 156.648 135.95C156.648 140.3 163.518 140.09 163.518 143.3C163.518 144.56 162.498 145.34 161.028 145.34C159.588 145.34 157.818 144.59 157.638 142.04H156.738C156.738 142.04 156.348 143.72 156.348 144.32ZM174.328 143.33C174.328 144.95 175.468 146.36 177.448 146.36C180.538 146.36 182.128 143.51 182.128 143.51V144.23C182.128 145.7 183.028 146.36 184.168 146.36C185.938 146.36 187.348 144.77 187.348 144.77L186.958 144.14C186.958 144.14 186.118 144.74 185.308 144.74C184.618 144.74 184.498 144.29 184.498 143.33V136.43C184.498 133.28 183.748 132.14 180.928 132.14C177.568 132.14 175.378 133.82 175.378 133.82L175.888 136.07H176.848C176.848 136.07 177.988 133.19 180.028 133.19C181.138 133.19 181.708 134 181.918 135.11C182.068 135.95 182.068 137.69 182.038 138.32L181.018 138.47C177.898 138.95 174.328 140.45 174.328 143.33ZM178.648 144.65C177.748 144.65 176.968 143.99 176.968 142.79C176.968 140.63 179.398 139.73 181.108 139.46L182.038 139.31V142.85C181.258 143.51 179.818 144.65 178.648 144.65ZM188.427 146.09L194.877 145.91L194.997 145.16L192.597 144.86C192.597 144.86 192.747 144.17 192.747 143.27V136.07C194.007 134.78 195.837 133.97 197.217 133.97C198.417 133.97 199.287 134.57 199.287 136.85V143.27C199.287 144.35 198.927 145.07 197.577 145.22V146.09L204.027 145.91L204.147 145.16L201.597 144.86C201.597 144.86 201.747 144.17 201.747 143.27V136.19C201.747 133.28 200.397 132.14 198.327 132.14C195.807 132.14 193.707 133.85 192.627 135.47C192.657 132.8 192.927 131.81 192.927 131.81L192.837 131.72C192.837 131.72 190.977 132.53 188.037 133.13V133.94H189.387C190.257 133.94 190.287 134.69 190.287 135.98V143.27C190.287 144.35 189.777 145.07 188.427 145.22V146.09ZM205.565 139.85C205.565 143.12 207.515 146.36 211.205 146.36C213.455 146.36 214.685 145.13 215.495 143.93V144.56C215.495 145.31 215.375 146.15 215.375 146.15L215.465 146.24C215.465 146.24 216.995 146 220.265 145.67L220.355 144.86H219.515C218.525 144.86 217.835 144.86 217.835 143.15V127.34C217.835 125.03 218.135 123.92 218.135 123.92L218.045 123.83C218.045 123.83 216.665 124.43 213.215 125.18V125.99H214.475C215.345 125.99 215.375 126.74 215.375 128.03V132.32C215.375 132.32 214.325 132.14 213.245 132.14C208.115 132.14 205.565 136.07 205.565 139.85ZM212.255 144.62C209.555 144.62 208.175 141.83 208.175 138.95C208.175 135.47 210.155 133.28 213.215 133.28C214.175 133.28 215.375 133.49 215.375 134.87V143.3C214.895 143.78 213.725 144.62 212.255 144.62ZM228.505 139.52C228.505 142.97 230.665 146.36 234.865 146.36C238.345 146.36 239.725 143.75 239.725 143.75L239.395 143.12C239.395 143.12 238.165 144.35 235.915 144.35C232.375 144.35 230.965 141.53 230.965 138.65C230.965 135.74 232.315 133.16 234.715 133.16C236.815 133.16 236.995 135.5 238.525 135.5C239.245 135.5 239.665 134.99 239.665 134.42C239.665 132.86 236.755 132.14 234.925 132.14C230.785 132.14 228.505 135.89 228.505 139.52ZM241.747 146.09L248.647 145.91L248.767 145.16L245.917 144.89C245.917 144.89 246.067 144.17 246.067 143.27V136.22C246.727 135.47 247.717 134.48 248.737 134.48C249.427 134.48 249.517 134.99 250.207 134.99C250.987 134.99 251.617 134.42 251.617 133.52C251.617 132.5 250.717 132.14 249.997 132.14C248.437 132.14 246.847 133.94 245.947 135.62C246.037 132.8 246.307 131.81 246.307 131.81L246.217 131.72C246.217 131.72 244.297 132.53 241.357 133.13V133.94H242.707C243.577 133.94 243.607 134.69 243.607 135.98V143.27C243.607 144.35 243.097 145.07 241.747 145.22V146.09ZM252.997 146.09L259.597 145.91L259.717 145.16L257.167 144.89C257.167 144.89 257.317 144.17 257.317 143.27V135.23C257.317 132.8 257.647 131.81 257.647 131.81L257.617 131.72C257.617 131.72 256.987 132.11 252.607 133.13V133.94H253.957C254.827 133.94 254.857 134.69 254.857 135.98V143.27C254.857 144.35 254.347 145.07 252.997 145.22V146.09ZM255.817 129.08C256.687 129.08 257.437 128.33 257.437 127.46C257.437 126.59 256.687 125.84 255.817 125.84C254.947 125.84 254.197 126.59 254.197 127.46C254.197 128.33 254.947 129.08 255.817 129.08ZM262.788 142.43C262.788 145.16 263.988 146.36 266.118 146.36C268.728 146.36 270.438 144.5 270.438 144.5L270.048 143.93C270.048 143.93 268.698 144.56 267.348 144.56C265.758 144.56 265.248 143.6 265.248 141.86V134.24L265.548 133.94H269.688L269.898 132.5H265.218V132.05C265.218 129.92 265.488 129.05 265.488 129.05L265.398 128.96L264.048 128.93L262.938 132.2C262.218 132.86 260.898 133.13 260.898 133.13V134.03H262.878C262.878 134.03 262.788 135.11 262.788 135.98V142.43ZM271.718 146.09L278.318 145.91L278.438 145.16L275.888 144.89C275.888 144.89 276.038 144.17 276.038 143.27V135.23C276.038 132.8 276.368 131.81 276.368 131.81L276.338 131.72C276.338 131.72 275.708 132.11 271.328 133.13V133.94H272.678C273.548 133.94 273.578 134.69 273.578 135.98V143.27C273.578 144.35 273.068 145.07 271.718 145.22V146.09ZM274.538 129.08C275.408 129.08 276.158 128.33 276.158 127.46C276.158 126.59 275.408 125.84 274.538 125.84C273.668 125.84 272.918 126.59 272.918 127.46C272.918 128.33 273.668 129.08 274.538 129.08ZM279.951 139.52C279.951 142.97 282.111 146.36 286.311 146.36C289.791 146.36 291.171 143.75 291.171 143.75L290.841 143.12C290.841 143.12 289.611 144.35 287.361 144.35C283.821 144.35 282.411 141.53 282.411 138.65C282.411 135.74 283.761 133.16 286.161 133.16C288.261 133.16 288.441 135.5 289.971 135.5C290.691 135.5 291.111 134.99 291.111 134.42C291.111 132.86 288.201 132.14 286.371 132.14C282.231 132.14 279.951 135.89 279.951 139.52ZM292.893 143.33C292.893 144.95 294.033 146.36 296.013 146.36C299.103 146.36 300.693 143.51 300.693 143.51V144.23C300.693 145.7 301.593 146.36 302.733 146.36C304.503 146.36 305.913 144.77 305.913 144.77L305.523 144.14C305.523 144.14 304.683 144.74 303.873 144.74C303.183 144.74 303.063 144.29 303.063 143.33V136.43C303.063 133.28 302.313 132.14 299.493 132.14C296.133 132.14 293.943 133.82 293.943 133.82L294.453 136.07H295.413C295.413 136.07 296.553 133.19 298.593 133.19C299.703 133.19 300.273 134 300.483 135.11C300.633 135.95 300.633 137.69 300.603 138.32L299.583 138.47C296.463 138.95 292.893 140.45 292.893 143.33ZM297.213 144.65C296.313 144.65 295.533 143.99 295.533 142.79C295.533 140.63 297.963 139.73 299.673 139.46L300.603 139.31V142.85C299.823 143.51 298.383 144.65 297.213 144.65ZM306.692 146.09L313.292 145.91L313.412 145.16L310.862 144.89C310.862 144.89 311.012 144.17 311.012 143.27V127.34C311.012 125.03 311.312 123.92 311.312 123.92L311.222 123.83C311.222 123.83 309.842 124.43 306.392 125.18V125.99H307.652C308.522 125.99 308.552 126.74 308.552 128.03V143.27C308.552 144.35 308.042 145.07 306.692 145.22V146.09ZM321.698 146.09L328.898 145.91L329.018 145.16L325.868 144.89C325.868 144.89 326.018 144.17 326.018 143.27V134.24L326.318 133.94H330.008L330.248 132.5H326.018V130.85C326.018 126.98 326.738 125.54 328.268 125.54C329.888 125.54 330.548 127.07 331.628 127.07C332.438 127.07 332.888 126.5 332.888 125.93C332.888 124.67 331.118 124.16 329.678 124.16C325.778 124.16 323.558 127.19 323.558 131.66V132.47L321.668 133.13V134.03H323.558V143.27C323.558 144.35 323.048 145.07 321.698 145.22V146.09ZM330.839 139.52C330.839 143.03 332.939 146.36 337.199 146.36C340.769 146.36 342.329 143.54 342.329 143.54L341.999 142.91C341.999 142.91 340.559 144.35 338.099 144.35C334.739 144.35 333.359 141.68 333.239 138.95L333.539 138.59L341.009 137.51C341.609 137.42 342.389 137.12 342.389 137.12C342.299 133.82 339.749 132.14 337.169 132.14C333.539 132.14 330.839 135.44 330.839 139.52ZM336.719 133.28C339.359 133.28 339.599 136.7 339.599 136.7L333.299 137.51C333.569 135.26 334.709 133.28 336.719 133.28ZM344.338 143.33C344.338 144.95 345.478 146.36 347.458 146.36C350.548 146.36 352.138 143.51 352.138 143.51V144.23C352.138 145.7 353.038 146.36 354.178 146.36C355.948 146.36 357.358 144.77 357.358 144.77L356.968 144.14C356.968 144.14 356.128 144.74 355.318 144.74C354.628 144.74 354.508 144.29 354.508 143.33V136.43C354.508 133.28 353.758 132.14 350.938 132.14C347.578 132.14 345.388 133.82 345.388 133.82L345.898 136.07H346.858C346.858 136.07 347.998 133.19 350.038 133.19C351.148 133.19 351.718 134 351.928 135.11C352.078 135.95 352.078 137.69 352.048 138.32L351.028 138.47C347.908 138.95 344.338 140.45 344.338 143.33ZM348.658 144.65C347.758 144.65 346.978 143.99 346.978 142.79C346.978 140.63 349.408 139.73 351.118 139.46L352.048 139.31V142.85C351.268 143.51 349.828 144.65 348.658 144.65ZM359.907 142.43C359.907 145.16 361.107 146.36 363.237 146.36C365.847 146.36 367.557 144.5 367.557 144.5L367.167 143.93C367.167 143.93 365.817 144.56 364.467 144.56C362.877 144.56 362.367 143.6 362.367 141.86V134.24L362.667 133.94H366.807L367.017 132.5H362.337V132.05C362.337 129.92 362.607 129.05 362.607 129.05L362.517 128.96L361.167 128.93L360.057 132.2C359.337 132.86 358.017 133.13 358.017 133.13V134.03H359.997C359.997 134.03 359.907 135.11 359.907 135.98V142.43ZM370.277 142.34C370.277 145.22 371.567 146.36 373.667 146.36C376.187 146.36 378.167 144.59 379.247 143V144.56C379.247 145.31 378.977 146.18 378.977 146.18L379.097 146.27C379.097 146.27 380.747 146 384.017 145.67L384.107 144.86H383.267C382.277 144.86 381.587 144.86 381.587 143.15V135.23C381.587 132.92 381.857 132.08 381.857 132.08L381.737 131.99C381.737 131.99 380.117 132.59 377.237 133.1V133.94H378.227C379.097 133.94 379.127 134.69 379.127 135.98V142.4C377.837 143.72 376.157 144.53 374.777 144.53C373.547 144.53 372.737 143.93 372.737 141.65V135.23C372.737 132.92 373.007 132.08 373.007 132.08L372.887 131.99C372.887 131.99 371.237 132.59 368.327 133.1V133.94H369.377C370.247 133.94 370.277 134.69 370.277 135.98V142.34ZM385.595 146.09L392.495 145.91L392.615 145.16L389.765 144.89C389.765 144.89 389.915 144.17 389.915 143.27V136.22C390.575 135.47 391.565 134.48 392.585 134.48C393.275 134.48 393.365 134.99 394.055 134.99C394.835 134.99 395.465 134.42 395.465 133.52C395.465 132.5 394.565 132.14 393.845 132.14C392.285 132.14 390.695 133.94 389.795 135.62C389.885 132.8 390.155 131.81 390.155 131.81L390.065 131.72C390.065 131.72 388.145 132.53 385.205 133.13V133.94H386.555C387.425 133.94 387.455 134.69 387.455 135.98V143.27C387.455 144.35 386.945 145.07 385.595 145.22V146.09ZM396.728 139.52C396.728 143.03 398.828 146.36 403.088 146.36C406.658 146.36 408.218 143.54 408.218 143.54L407.888 142.91C407.888 142.91 406.448 144.35 403.988 144.35C400.628 144.35 399.248 141.68 399.128 138.95L399.428 138.59L406.898 137.51C407.498 137.42 408.278 137.12 408.278 137.12C408.188 133.82 405.638 132.14 403.058 132.14C399.428 132.14 396.728 135.44 396.728 139.52ZM402.608 133.28C405.248 133.28 405.488 136.7 405.488 136.7L399.188 137.51C399.458 135.26 400.598 133.28 402.608 133.28ZM410.557 144.32C410.557 146.03 413.677 146.36 415.057 146.36C417.907 146.36 419.857 144.92 419.857 142.43C419.857 137.69 413.017 138.26 413.017 135.08C413.017 134.15 413.647 133.16 415.267 133.16C415.897 133.16 417.967 133.31 417.967 135.77H418.897L419.497 132.68C419.497 132.68 417.547 132.14 415.747 132.14C412.567 132.14 410.857 133.73 410.857 135.95C410.857 140.3 417.727 140.09 417.727 143.3C417.727 144.56 416.707 145.34 415.237 145.34C413.797 145.34 412.027 144.59 411.847 142.04H410.947C410.947 142.04 410.557 143.72 410.557 144.32ZM30.61 183.43C30.61 186.16 31.81 187.36 33.94 187.36C36.55 187.36 38.26 185.5 38.26 185.5L37.87 184.93C37.87 184.93 36.52 185.56 35.17 185.56C33.58 185.56 33.07 184.6 33.07 182.86V175.24L33.37 174.94H37.51L37.72 173.5H33.04V173.05C33.04 170.92 33.31 170.05 33.31 170.05L33.22 169.96L31.87 169.93L30.76 173.2C30.04 173.86 28.72 174.13 28.72 174.13V175.03H30.7C30.7 175.03 30.61 176.11 30.61 176.98V183.43ZM39.2404 187.09L45.6904 186.91L45.8104 186.16L43.4104 185.89C43.4104 185.89 43.5604 185.17 43.5604 184.27V177.01C44.8204 175.81 46.6504 174.97 48.0304 174.97C49.2304 174.97 50.1004 175.57 50.1004 177.85V184.27C50.1004 185.35 49.6204 186.07 48.3904 186.22V187.09L54.8404 186.91L54.9604 186.16L52.4104 185.89C52.4104 185.89 52.5604 185.17 52.5604 184.27V177.19C52.5604 174.28 51.2104 173.14 49.1404 173.14C46.6204 173.14 44.5204 174.82 43.4404 176.38C43.4404 176.14 43.5604 175.54 43.5604 174.16V168.34C43.5604 166.03 43.8604 164.92 43.8604 164.92L43.7704 164.83C43.7704 164.83 42.3904 165.43 38.9404 166.18V166.99H40.2004C41.0704 166.99 41.1004 167.74 41.1004 169.03V184.27C41.1004 185.35 40.5904 186.07 39.2404 186.22V187.09ZM56.0861 184.33C56.0861 185.95 57.2261 187.36 59.2061 187.36C62.2961 187.36 63.8861 184.51 63.8861 184.51V185.23C63.8861 186.7 64.7861 187.36 65.9261 187.36C67.6961 187.36 69.1061 185.77 69.1061 185.77L68.7161 185.14C68.7161 185.14 67.8761 185.74 67.0661 185.74C66.3761 185.74 66.2561 185.29 66.2561 184.33V177.43C66.2561 174.28 65.5061 173.14 62.6861 173.14C59.3261 173.14 57.1361 174.82 57.1361 174.82L57.6461 177.07H58.6061C58.6061 177.07 59.7461 174.19 61.7861 174.19C62.8961 174.19 63.4661 175 63.6761 176.11C63.8261 176.95 63.8261 178.69 63.7961 179.32L62.7761 179.47C59.6561 179.95 56.0861 181.45 56.0861 184.33ZM60.4061 185.65C59.5061 185.65 58.7261 184.99 58.7261 183.79C58.7261 181.63 61.1561 180.73 62.8661 180.46L63.7961 180.31V183.85C63.0161 184.51 61.5761 185.65 60.4061 185.65ZM71.6549 183.43C71.6549 186.16 72.8549 187.36 74.9849 187.36C77.5949 187.36 79.3049 185.5 79.3049 185.5L78.9149 184.93C78.9149 184.93 77.5649 185.56 76.2149 185.56C74.6249 185.56 74.1149 184.6 74.1149 182.86V175.24L74.4149 174.94H78.5549L78.7649 173.5H74.0849V173.05C74.0849 170.92 74.3549 170.05 74.3549 170.05L74.2649 169.96L72.9149 169.93L71.8049 173.2C71.0849 173.86 69.7649 174.13 69.7649 174.13V175.03H71.7449C71.7449 175.03 71.6549 176.11 71.6549 176.98V183.43ZM87.3536 185.32C87.3536 187.03 90.4736 187.36 91.8536 187.36C94.7036 187.36 96.6536 185.92 96.6536 183.43C96.6536 178.69 89.8136 179.26 89.8136 176.08C89.8136 175.15 90.4436 174.16 92.0636 174.16C92.6936 174.16 94.7636 174.31 94.7636 176.77H95.6936L96.2936 173.68C96.2936 173.68 94.3436 173.14 92.5436 173.14C89.3636 173.14 87.6536 174.73 87.6536 176.95C87.6536 181.3 94.5236 181.09 94.5236 184.3C94.5236 185.56 93.5036 186.34 92.0336 186.34C90.5936 186.34 88.8236 185.59 88.6436 183.04H87.7436C87.7436 183.04 87.3536 184.72 87.3536 185.32ZM100.336 183.34C100.336 186.22 101.626 187.36 103.726 187.36C106.246 187.36 108.226 185.59 109.306 184V185.56C109.306 186.31 109.036 187.18 109.036 187.18L109.156 187.27C109.156 187.27 110.806 187 114.076 186.67L114.166 185.86H113.326C112.336 185.86 111.646 185.86 111.646 184.15V176.23C111.646 173.92 111.916 173.08 111.916 173.08L111.796 172.99C111.796 172.99 110.176 173.59 107.296 174.1V174.94H108.286C109.156 174.94 109.186 175.69 109.186 176.98V183.4C107.896 184.72 106.216 185.53 104.836 185.53C103.606 185.53 102.796 184.93 102.796 182.65V176.23C102.796 173.92 103.066 173.08 103.066 173.08L102.946 172.99C102.946 172.99 101.296 173.59 98.3859 174.1V174.94H99.4359C100.306 174.94 100.336 175.69 100.336 176.98V183.34ZM115.654 194.35C117.814 193.63 122.554 193.06 122.554 193.06L122.674 192.34H119.524C119.524 192.34 119.674 191.53 119.674 190.63V187.18C120.244 187.27 120.874 187.36 121.684 187.36C126.964 187.36 129.394 183.49 129.394 179.68C129.394 176.38 127.594 173.14 123.934 173.14C121.564 173.14 120.424 174.46 119.614 175.48C119.734 173.56 119.914 172.81 119.914 172.81L119.824 172.72C119.824 172.72 118.054 173.53 115.114 174.13V174.94H116.314C117.184 174.94 117.214 175.69 117.214 176.98V190.66C117.214 192.04 117.004 192.73 115.654 193.48V194.35ZM121.834 186.22C120.844 186.22 119.674 186.01 119.674 184.6V176.14C120.604 175.42 121.684 174.88 122.854 174.88C125.524 174.88 126.784 177.67 126.784 180.55C126.784 183.97 124.954 186.22 121.834 186.22ZM131.679 194.35C133.839 193.63 138.579 193.06 138.579 193.06L138.699 192.34H135.549C135.549 192.34 135.699 191.53 135.699 190.63V187.18C136.269 187.27 136.899 187.36 137.709 187.36C142.989 187.36 145.419 183.49 145.419 179.68C145.419 176.38 143.619 173.14 139.959 173.14C137.589 173.14 136.449 174.46 135.639 175.48C135.759 173.56 135.939 172.81 135.939 172.81L135.849 172.72C135.849 172.72 134.079 173.53 131.139 174.13V174.94H132.339C133.209 174.94 133.239 175.69 133.239 176.98V190.66C133.239 192.04 133.029 192.73 131.679 193.48V194.35ZM137.859 186.22C136.869 186.22 135.699 186.01 135.699 184.6V176.14C136.629 175.42 137.709 174.88 138.879 174.88C141.549 174.88 142.809 177.67 142.809 180.55C142.809 183.97 140.979 186.22 137.859 186.22ZM147.704 180.55C147.704 184.39 150.044 187.36 154.274 187.36C159.074 187.36 161.384 183.43 161.384 179.71C161.384 176.02 159.134 173.14 154.754 173.14C149.654 173.14 147.704 177.04 147.704 180.55ZM150.464 179.86C150.464 176.98 151.634 174.16 154.394 174.16C157.424 174.16 158.624 177.58 158.624 180.55C158.624 183.76 157.244 186.34 154.694 186.34C151.694 186.34 150.464 182.86 150.464 179.86ZM163.671 187.09L170.571 186.91L170.691 186.16L167.841 185.89C167.841 185.89 167.991 185.17 167.991 184.27V177.22C168.651 176.47 169.641 175.48 170.661 175.48C171.351 175.48 171.441 175.99 172.131 175.99C172.911 175.99 173.541 175.42 173.541 174.52C173.541 173.5 172.641 173.14 171.921 173.14C170.361 173.14 168.771 174.94 167.871 176.62C167.961 173.8 168.231 172.81 168.231 172.81L168.141 172.72C168.141 172.72 166.221 173.53 163.281 174.13V174.94H164.631C165.501 174.94 165.531 175.69 165.531 176.98V184.27C165.531 185.35 165.021 186.07 163.671 186.22V187.09ZM176.391 183.43C176.391 186.16 177.591 187.36 179.721 187.36C182.331 187.36 184.041 185.5 184.041 185.5L183.651 184.93C183.651 184.93 182.301 185.56 180.951 185.56C179.361 185.56 178.851 184.6 178.851 182.86V175.24L179.151 174.94H183.291L183.501 173.5H178.821V173.05C178.821 170.92 179.091 170.05 179.091 170.05L179.001 169.96L177.651 169.93L176.541 173.2C175.821 173.86 174.501 174.13 174.501 174.13V175.03H176.481C176.481 175.03 176.391 176.11 176.391 176.98V183.43ZM193.53 183.43C193.53 186.16 194.73 187.36 196.86 187.36C199.47 187.36 201.18 185.5 201.18 185.5L200.79 184.93C200.79 184.93 199.44 185.56 198.09 185.56C196.5 185.56 195.99 184.6 195.99 182.86V175.24L196.29 174.94H200.43L200.64 173.5H195.96V173.05C195.96 170.92 196.23 170.05 196.23 170.05L196.14 169.96L194.79 169.93L193.68 173.2C192.96 173.86 191.64 174.13 191.64 174.13V175.03H193.62C193.62 175.03 193.53 176.11 193.53 176.98V183.43ZM202.16 187.09L208.61 186.91L208.73 186.16L206.33 185.89C206.33 185.89 206.48 185.17 206.48 184.27V177.01C207.74 175.81 209.57 174.97 210.95 174.97C212.15 174.97 213.02 175.57 213.02 177.85V184.27C213.02 185.35 212.54 186.07 211.31 186.22V187.09L217.76 186.91L217.88 186.16L215.33 185.89C215.33 185.89 215.48 185.17 215.48 184.27V177.19C215.48 174.28 214.13 173.14 212.06 173.14C209.54 173.14 207.44 174.82 206.36 176.38C206.36 176.14 206.48 175.54 206.48 174.16V168.34C206.48 166.03 206.78 164.92 206.78 164.92L206.69 164.83C206.69 164.83 205.31 165.43 201.86 166.18V166.99H203.12C203.99 166.99 204.02 167.74 204.02 169.03V184.27C204.02 185.35 203.51 186.07 202.16 186.22V187.09ZM219.306 180.52C219.306 184.03 221.406 187.36 225.666 187.36C229.236 187.36 230.796 184.54 230.796 184.54L230.466 183.91C230.466 183.91 229.026 185.35 226.566 185.35C223.206 185.35 221.826 182.68 221.706 179.95L222.006 179.59L229.476 178.51C230.076 178.42 230.856 178.12 230.856 178.12C230.766 174.82 228.216 173.14 225.636 173.14C222.006 173.14 219.306 176.44 219.306 180.52ZM225.186 174.28C227.826 174.28 228.066 177.7 228.066 177.7L221.766 178.51C222.036 176.26 223.176 174.28 225.186 174.28ZM239.813 187.09L246.263 186.91L246.383 186.16L243.983 185.89C243.983 185.89 244.133 185.17 244.133 184.27V177.07C245.423 175.78 247.103 174.97 248.453 174.97C249.593 174.97 250.223 175.57 250.223 177.85V184.27C250.223 185.35 249.863 186.07 248.513 186.22V187.09L254.813 186.91L254.933 186.16L252.533 185.89C252.533 185.89 252.683 185.17 252.683 184.27V177.94C252.683 176.2 255.743 174.97 257.093 174.97C258.203 174.97 258.833 175.57 258.833 177.85V184.27C258.833 185.35 258.473 186.07 257.123 186.22V187.09L263.573 186.91L263.693 186.16L261.143 185.89C261.143 185.89 261.293 185.17 261.293 184.27V177.19C261.293 174.19 260.033 173.14 258.083 173.14C255.713 173.14 253.733 174.79 252.593 176.59C252.593 174.22 251.363 173.14 249.443 173.14C247.013 173.14 245.093 174.88 244.013 176.44C244.103 173.77 244.373 172.81 244.373 172.81L244.283 172.72C244.283 172.72 242.423 173.53 239.483 174.13V174.94H240.773C241.643 174.94 241.673 175.69 241.673 176.98V184.27C241.673 185.35 241.163 186.07 239.813 186.22V187.09ZM266.508 183.34C266.508 186.22 267.798 187.36 269.898 187.36C272.418 187.36 274.398 185.59 275.478 184V185.56C275.478 186.31 275.208 187.18 275.208 187.18L275.328 187.27C275.328 187.27 276.978 187 280.248 186.67L280.338 185.86H279.498C278.508 185.86 277.818 185.86 277.818 184.15V176.23C277.818 173.92 278.088 173.08 278.088 173.08L277.968 172.99C277.968 172.99 276.348 173.59 273.468 174.1V174.94H274.458C275.328 174.94 275.358 175.69 275.358 176.98V183.4C274.068 184.72 272.388 185.53 271.008 185.53C269.778 185.53 268.968 184.93 268.968 182.65V176.23C268.968 173.92 269.238 173.08 269.238 173.08L269.118 172.99C269.118 172.99 267.468 173.59 264.558 174.1V174.94H265.608C266.478 174.94 266.508 175.69 266.508 176.98V183.34ZM281.856 185.32C281.856 187.03 284.976 187.36 286.356 187.36C289.206 187.36 291.156 185.92 291.156 183.43C291.156 178.69 284.316 179.26 284.316 176.08C284.316 175.15 284.946 174.16 286.566 174.16C287.196 174.16 289.266 174.31 289.266 176.77H290.196L290.796 173.68C290.796 173.68 288.846 173.14 287.046 173.14C283.866 173.14 282.156 174.73 282.156 176.95C282.156 181.3 289.026 181.09 289.026 184.3C289.026 185.56 288.006 186.34 286.536 186.34C285.096 186.34 283.326 185.59 283.146 183.04H282.246C282.246 183.04 281.856 184.72 281.856 185.32ZM293.398 187.09L299.998 186.91L300.118 186.16L297.568 185.89C297.568 185.89 297.718 185.17 297.718 184.27V176.23C297.718 173.8 298.048 172.81 298.048 172.81L298.018 172.72C298.018 172.72 297.388 173.11 293.008 174.13V174.94H294.358C295.228 174.94 295.258 175.69 295.258 176.98V184.27C295.258 185.35 294.748 186.07 293.398 186.22V187.09ZM296.218 170.08C297.088 170.08 297.838 169.33 297.838 168.46C297.838 167.59 297.088 166.84 296.218 166.84C295.348 166.84 294.598 167.59 294.598 168.46C294.598 169.33 295.348 170.08 296.218 170.08ZM301.63 180.52C301.63 183.97 303.79 187.36 307.99 187.36C311.47 187.36 312.85 184.75 312.85 184.75L312.52 184.12C312.52 184.12 311.29 185.35 309.04 185.35C305.5 185.35 304.09 182.53 304.09 179.65C304.09 176.74 305.44 174.16 307.84 174.16C309.94 174.16 310.12 176.5 311.65 176.5C312.37 176.5 312.79 175.99 312.79 175.42C312.79 173.86 309.88 173.14 308.05 173.14C303.91 173.14 301.63 176.89 301.63 180.52ZM321.581 180.85C321.581 184.12 323.531 187.36 327.221 187.36C329.471 187.36 330.701 186.13 331.511 184.93V185.56C331.511 186.31 331.391 187.15 331.391 187.15L331.481 187.24C331.481 187.24 333.011 187 336.281 186.67L336.371 185.86H335.531C334.541 185.86 333.851 185.86 333.851 184.15V168.34C333.851 166.03 334.151 164.92 334.151 164.92L334.061 164.83C334.061 164.83 332.681 165.43 329.231 166.18V166.99H330.491C331.361 166.99 331.391 167.74 331.391 169.03V173.32C331.391 173.32 330.341 173.14 329.261 173.14C324.131 173.14 321.581 177.07 321.581 180.85ZM328.271 185.62C325.571 185.62 324.191 182.83 324.191 179.95C324.191 176.47 326.171 174.28 329.231 174.28C330.191 174.28 331.391 174.49 331.391 175.87V184.3C330.911 184.78 329.741 185.62 328.271 185.62ZM337.783 187.09L344.383 186.91L344.503 186.16L341.953 185.89C341.953 185.89 342.103 185.17 342.103 184.27V176.23C342.103 173.8 342.433 172.81 342.433 172.81L342.403 172.72C342.403 172.72 341.773 173.11 337.393 174.13V174.94H338.743C339.613 174.94 339.643 175.69 339.643 176.98V184.27C339.643 185.35 339.133 186.07 337.783 186.22V187.09ZM340.603 170.08C341.473 170.08 342.223 169.33 342.223 168.46C342.223 167.59 341.473 166.84 340.603 166.84C339.733 166.84 338.983 167.59 338.983 168.46C338.983 169.33 339.733 170.08 340.603 170.08ZM346.133 185.32C346.133 187.03 349.253 187.36 350.633 187.36C353.483 187.36 355.433 185.92 355.433 183.43C355.433 178.69 348.593 179.26 348.593 176.08C348.593 175.15 349.223 174.16 350.843 174.16C351.473 174.16 353.543 174.31 353.543 176.77H354.473L355.073 173.68C355.073 173.68 353.123 173.14 351.323 173.14C348.143 173.14 346.433 174.73 346.433 176.95C346.433 181.3 353.303 181.09 353.303 184.3C353.303 185.56 352.283 186.34 350.813 186.34C349.373 186.34 347.603 185.59 347.423 183.04H346.523C346.523 183.04 346.133 184.72 346.133 185.32ZM357.675 180.52C357.675 183.97 359.835 187.36 364.035 187.36C367.515 187.36 368.895 184.75 368.895 184.75L368.565 184.12C368.565 184.12 367.335 185.35 365.085 185.35C361.545 185.35 360.135 182.53 360.135 179.65C360.135 176.74 361.485 174.16 363.885 174.16C365.985 174.16 366.165 176.5 367.695 176.5C368.415 176.5 368.835 175.99 368.835 175.42C368.835 173.86 365.925 173.14 364.095 173.14C359.955 173.14 357.675 176.89 357.675 180.52ZM370.917 180.55C370.917 184.39 373.257 187.36 377.487 187.36C382.287 187.36 384.597 183.43 384.597 179.71C384.597 176.02 382.347 173.14 377.967 173.14C372.867 173.14 370.917 177.04 370.917 180.55ZM373.677 179.86C373.677 176.98 374.847 174.16 377.607 174.16C380.637 174.16 381.837 177.58 381.837 180.55C381.837 183.76 380.457 186.34 377.907 186.34C374.907 186.34 373.677 182.86 373.677 179.86ZM391.744 187L393.004 187.39L398.254 175.54C398.884 174.16 399.334 173.98 399.334 173.98L399.184 173.5H395.134V174.25C396.274 174.52 397.204 175.12 396.634 176.44L393.094 184.45C392.944 183.88 392.734 183.13 392.554 182.59L390.274 176.26C389.944 175.36 389.944 174.31 390.304 173.5L390.184 173.38C390.184 173.38 389.074 173.5 387.184 173.5H385.804V174.25C385.804 174.25 386.854 174.46 387.454 175.99L391.744 187ZM400.595 180.52C400.595 184.03 402.695 187.36 406.955 187.36C410.525 187.36 412.085 184.54 412.085 184.54L411.755 183.91C411.755 183.91 410.315 185.35 407.855 185.35C404.495 185.35 403.115 182.68 402.995 179.95L403.295 179.59L410.765 178.51C411.365 178.42 412.145 178.12 412.145 178.12C412.055 174.82 409.505 173.14 406.925 173.14C403.295 173.14 400.595 176.44 400.595 180.52ZM406.475 174.28C409.115 174.28 409.355 177.7 409.355 177.7L403.055 178.51C403.325 176.26 404.465 174.28 406.475 174.28ZM414.394 187.09L421.294 186.91L421.414 186.16L418.564 185.89C418.564 185.89 418.714 185.17 418.714 184.27V177.22C419.374 176.47 420.364 175.48 421.384 175.48C422.074 175.48 422.164 175.99 422.854 175.99C423.634 175.99 424.264 175.42 424.264 174.52C424.264 173.5 423.364 173.14 422.644 173.14C421.084 173.14 419.494 174.94 418.594 176.62C418.684 173.8 418.954 172.81 418.954 172.81L418.864 172.72C418.864 172.72 416.944 173.53 414.004 174.13V174.94H415.354C416.224 174.94 416.254 175.69 416.254 176.98V184.27C416.254 185.35 415.744 186.07 414.394 186.22V187.09ZM427.132 191.62C426.052 191.62 425.662 192.25 425.662 192.85C425.662 193.51 426.112 194.11 426.982 194.11C429.862 194.11 431.572 189.16 432.382 187.36L437.572 175.57C438.112 174.28 438.652 173.98 438.652 173.98L438.502 173.5H434.332V174.25C435.442 174.55 436.492 175.21 435.982 176.41L432.592 184.15C432.442 183.61 432.202 182.86 432.022 182.35L429.592 176.26C429.262 175.45 429.262 174.22 429.622 173.5L429.502 173.38C429.502 173.38 428.332 173.5 426.442 173.5H425.032V174.25C425.032 174.25 426.082 174.49 426.712 175.99L430.552 185.17C430.882 186.01 431.122 186.7 431.272 187.12L430.312 189.37C429.772 190.6 428.722 191.62 427.132 191.62ZM29.14 220.52C29.14 224.03 31.24 227.36 35.5 227.36C39.07 227.36 40.63 224.54 40.63 224.54L40.3 223.91C40.3 223.91 38.86 225.35 36.4 225.35C33.04 225.35 31.66 222.68 31.54 219.95L31.84 219.59L39.31 218.51C39.91 218.42 40.69 218.12 40.69 218.12C40.6 214.82 38.05 213.14 35.47 213.14C31.84 213.14 29.14 216.44 29.14 220.52ZM35.02 214.28C37.66 214.28 37.9 217.7 37.9 217.7L31.6 218.51C31.87 216.26 33.01 214.28 35.02 214.28ZM50.2888 227.09L56.0788 226.91L56.1988 226.19L54.8488 226.07L50.2888 219.59L53.5588 215.48C54.6088 214.16 55.6288 213.98 55.6288 213.98L55.4788 213.5H50.7688V214.25C52.2088 214.46 52.4788 215 51.9988 215.66L49.6588 218.63L47.6488 215.66C46.8688 214.52 47.2288 213.5 47.2288 213.5L47.1088 213.38C47.1088 213.38 46.0288 213.5 44.0188 213.5H42.5788V214.25C42.5788 214.25 43.8088 214.37 44.8288 215.84L48.0388 220.4L44.3488 225.02C44.0188 225.41 43.4488 226.1 42.2788 226.22V227.09L47.2588 226.91L47.3788 226.16L45.0988 225.89L48.6688 221.36L51.2188 225.05C51.7288 225.8 51.6088 226.16 50.2888 226.16V227.09ZM57.6166 234.35C59.7766 233.63 64.5166 233.06 64.5166 233.06L64.6366 232.34H61.4866C61.4866 232.34 61.6366 231.53 61.6366 230.63V227.18C62.2066 227.27 62.8366 227.36 63.6466 227.36C68.9266 227.36 71.3566 223.49 71.3566 219.68C71.3566 216.38 69.5566 213.14 65.8966 213.14C63.5266 213.14 62.3866 214.46 61.5766 215.48C61.6966 213.56 61.8766 212.81 61.8766 212.81L61.7866 212.72C61.7866 212.72 60.0166 213.53 57.0766 214.13V214.94H58.2766C59.1466 214.94 59.1766 215.69 59.1766 216.98V230.66C59.1766 232.04 58.9666 232.73 57.6166 233.48V234.35ZM63.7966 226.22C62.8066 226.22 61.6366 226.01 61.6366 224.6V216.14C62.5666 215.42 63.6466 214.88 64.8166 214.88C67.4866 214.88 68.7466 217.67 68.7466 220.55C68.7466 223.97 66.9166 226.22 63.7966 226.22ZM73.642 220.52C73.642 224.03 75.742 227.36 80.002 227.36C83.572 227.36 85.132 224.54 85.132 224.54L84.802 223.91C84.802 223.91 83.362 225.35 80.902 225.35C77.542 225.35 76.162 222.68 76.042 219.95L76.342 219.59L83.812 218.51C84.412 218.42 85.192 218.12 85.192 218.12C85.102 214.82 82.552 213.14 79.972 213.14C76.342 213.14 73.642 216.44 73.642 220.52ZM79.522 214.28C82.162 214.28 82.402 217.7 82.402 217.7L76.102 218.51C76.372 216.26 77.512 214.28 79.522 214.28ZM87.4408 227.09L94.3408 226.91L94.4608 226.16L91.6108 225.89C91.6108 225.89 91.7608 225.17 91.7608 224.27V217.22C92.4208 216.47 93.4108 215.48 94.4308 215.48C95.1208 215.48 95.2108 215.99 95.9008 215.99C96.6808 215.99 97.3108 215.42 97.3108 214.52C97.3108 213.5 96.4108 213.14 95.6908 213.14C94.1308 213.14 92.5408 214.94 91.6408 216.62C91.7308 213.8 92.0008 212.81 92.0008 212.81L91.9108 212.72C91.9108 212.72 89.9908 213.53 87.0508 214.13V214.94H88.4008C89.2708 214.94 89.3008 215.69 89.3008 216.98V224.27C89.3008 225.35 88.7908 226.07 87.4408 226.22V227.09ZM98.6908 227.09L105.291 226.91L105.411 226.16L102.861 225.89C102.861 225.89 103.011 225.17 103.011 224.27V216.23C103.011 213.8 103.341 212.81 103.341 212.81L103.311 212.72C103.311 212.72 102.681 213.11 98.3008 214.13V214.94H99.6508C100.521 214.94 100.551 215.69 100.551 216.98V224.27C100.551 225.35 100.041 226.07 98.6908 226.22V227.09ZM101.511 210.08C102.381 210.08 103.131 209.33 103.131 208.46C103.131 207.59 102.381 206.84 101.511 206.84C100.641 206.84 99.8908 207.59 99.8908 208.46C99.8908 209.33 100.641 210.08 101.511 210.08ZM106.923 220.52C106.923 224.03 109.023 227.36 113.283 227.36C116.853 227.36 118.413 224.54 118.413 224.54L118.083 223.91C118.083 223.91 116.643 225.35 114.183 225.35C110.823 225.35 109.443 222.68 109.323 219.95L109.623 219.59L117.093 218.51C117.693 218.42 118.473 218.12 118.473 218.12C118.383 214.82 115.833 213.14 113.253 213.14C109.623 213.14 106.923 216.44 106.923 220.52ZM112.803 214.28C115.443 214.28 115.683 217.7 115.683 217.7L109.383 218.51C109.653 216.26 110.793 214.28 112.803 214.28ZM120.722 227.09L127.172 226.91L127.292 226.16L124.892 225.86C124.892 225.86 125.042 225.17 125.042 224.27V217.07C126.302 215.78 128.132 214.97 129.512 214.97C130.712 214.97 131.582 215.57 131.582 217.85V224.27C131.582 225.35 131.222 226.07 129.872 226.22V227.09L136.322 226.91L136.442 226.16L133.892 225.86C133.892 225.86 134.042 225.17 134.042 224.27V217.19C134.042 214.28 132.692 213.14 130.622 213.14C128.102 213.14 126.002 214.85 124.922 216.47C124.952 213.8 125.222 212.81 125.222 212.81L125.132 212.72C125.132 212.72 123.272 213.53 120.332 214.13V214.94H121.682C122.552 214.94 122.582 215.69 122.582 216.98V224.27C122.582 225.35 122.072 226.07 120.722 226.22V227.09ZM137.89 220.52C137.89 223.97 140.05 227.36 144.25 227.36C147.73 227.36 149.11 224.75 149.11 224.75L148.78 224.12C148.78 224.12 147.55 225.35 145.3 225.35C141.76 225.35 140.35 222.53 140.35 219.65C140.35 216.74 141.7 214.16 144.1 214.16C146.2 214.16 146.38 216.5 147.91 216.5C148.63 216.5 149.05 215.99 149.05 215.42C149.05 213.86 146.14 213.14 144.31 213.14C140.17 213.14 137.89 216.89 137.89 220.52ZM151.132 220.52C151.132 224.03 153.232 227.36 157.492 227.36C161.062 227.36 162.622 224.54 162.622 224.54L162.292 223.91C162.292 223.91 160.852 225.35 158.392 225.35C155.032 225.35 153.652 222.68 153.532 219.95L153.832 219.59L161.302 218.51C161.902 218.42 162.682 218.12 162.682 218.12C162.592 214.82 160.042 213.14 157.462 213.14C153.832 213.14 151.132 216.44 151.132 220.52ZM157.012 214.28C159.652 214.28 159.892 217.7 159.892 217.7L153.592 218.51C153.862 216.26 155.002 214.28 157.012 214.28Z" fill="#333333"/>
</svg>
