<svg width="472" height="248" viewBox="0 0 472 248" fill="none" xmlns="http://www.w3.org/2000/svg">
<path d="M3 3H469V245H3V3Z" fill="white" stroke="#828282" stroke-width="6"/>
<path d="M29.44 33.994V41.716C29.44 42.67 29.638 43.822 30.556 44.83C31.186 45.514 32.248 46.234 33.886 46.234C35.524 46.234 36.586 45.514 37.216 44.83C38.134 43.822 38.332 42.67 38.332 41.716V33.994H36.496V41.23C36.496 41.878 36.478 42.67 36.118 43.3C35.758 43.912 34.948 44.542 33.886 44.542C32.824 44.542 32.014 43.912 31.654 43.3C31.294 42.67 31.276 41.878 31.276 41.23V33.994H29.44ZM48.5973 35.794C48.3453 35.29 48.0033 34.876 47.6793 34.588C47.3013 34.264 46.5633 33.778 45.2673 33.778C43.0173 33.778 41.7573 35.326 41.7573 36.946C41.7573 38.746 43.2153 39.574 44.2053 39.988L45.3573 40.474C46.1493 40.798 47.0853 41.302 47.0853 42.526C47.0853 43.732 46.2213 44.542 45.1053 44.542C44.3853 44.542 43.8813 44.254 43.5393 43.822C43.2513 43.444 43.0353 42.886 43.0353 42.292L41.2173 42.688C41.2893 43.516 41.5773 44.308 42.2253 45.028C42.8373 45.712 43.6653 46.234 45.0513 46.234C47.3013 46.234 48.9213 44.668 48.9213 42.382C48.9213 41.014 48.3093 39.754 46.0953 38.854L44.8893 38.368C43.7193 37.9 43.5933 37.27 43.5933 36.91C43.5933 36.136 44.1693 35.47 45.2853 35.47C45.8073 35.47 46.2033 35.596 46.5813 35.902C46.8513 36.136 47.0133 36.388 47.1213 36.658L48.5973 35.794ZM58.5626 33.994H51.9386V46H58.5626V44.272H53.7746V40.492H58.4186V38.764H53.7746V35.722H58.5626V33.994ZM75.4718 34.642C74.4278 33.976 73.3658 33.778 72.2678 33.778C70.6118 33.778 69.1718 34.174 67.9298 35.344C66.9218 36.298 66.0038 37.828 66.0038 40.042C66.0038 41.734 66.5258 43.264 67.9298 44.578C68.6318 45.244 69.9998 46.234 72.1778 46.234C73.0058 46.234 74.2658 46.054 75.4718 45.334V43.156C74.7878 43.804 73.6718 44.542 72.2318 44.542C69.6758 44.542 67.8398 42.58 67.8398 40.042C67.8398 37.396 69.6038 35.47 72.2138 35.47C72.8978 35.47 74.1398 35.596 75.4718 36.802V34.642ZM86.6021 46H88.5821L82.8941 33.292L76.9181 46H78.8981L80.2121 43.102H85.3421L86.6021 46ZM80.9681 41.374L82.8221 37.306L84.6041 41.374H80.9681ZM97.127 35.794C96.875 35.29 96.533 34.876 96.209 34.588C95.831 34.264 95.093 33.778 93.797 33.778C91.547 33.778 90.287 35.326 90.287 36.946C90.287 38.746 91.745 39.574 92.735 39.988L93.887 40.474C94.679 40.798 95.615 41.302 95.615 42.526C95.615 43.732 94.751 44.542 93.635 44.542C92.915 44.542 92.411 44.254 92.069 43.822C91.781 43.444 91.565 42.886 91.565 42.292L89.747 42.688C89.819 43.516 90.107 44.308 90.755 45.028C91.367 45.712 92.195 46.234 93.581 46.234C95.831 46.234 97.451 44.668 97.451 42.382C97.451 41.014 96.839 39.754 94.625 38.854L93.419 38.368C92.249 37.9 92.123 37.27 92.123 36.91C92.123 36.136 92.699 35.47 93.815 35.47C94.337 35.47 94.733 35.596 95.111 35.902C95.381 36.136 95.543 36.388 95.651 36.658L97.127 35.794ZM107.092 33.994H100.468V46H107.092V44.272H102.304V40.492H106.948V38.764H102.304V35.722H107.092V33.994ZM116.848 35.794C116.596 35.29 116.254 34.876 115.93 34.588C115.552 34.264 114.814 33.778 113.518 33.778C111.268 33.778 110.008 35.326 110.008 36.946C110.008 38.746 111.466 39.574 112.456 39.988L113.608 40.474C114.4 40.798 115.336 41.302 115.336 42.526C115.336 43.732 114.472 44.542 113.356 44.542C112.636 44.542 112.132 44.254 111.79 43.822C111.502 43.444 111.286 42.886 111.286 42.292L109.468 42.688C109.54 43.516 109.828 44.308 110.476 45.028C111.088 45.712 111.916 46.234 113.302 46.234C115.552 46.234 117.172 44.668 117.172 42.382C117.172 41.014 116.56 39.754 114.346 38.854L113.14 38.368C111.97 37.9 111.844 37.27 111.844 36.91C111.844 36.136 112.42 35.47 113.536 35.47C114.058 35.47 114.454 35.596 114.832 35.902C115.102 36.136 115.264 36.388 115.372 36.658L116.848 35.794ZM29.08 97.72H33.96V96.2H29.08V97.72ZM41.6559 102H49.9559V100.28H43.7159V88.66H41.6559V102ZM52.6656 90.8C53.3856 90.8 53.9256 90.28 53.9256 89.58C53.9256 88.88 53.3856 88.36 52.6656 88.36C51.9656 88.36 51.4256 88.88 51.4256 89.58C51.4256 90.28 51.9656 90.8 52.6656 90.8ZM51.6656 102H53.6456V92.96H51.6656V102ZM55.8303 101.44C55.8303 101.44 56.9503 102.24 58.8303 102.24C61.0503 102.24 62.3503 101.14 62.3503 99.5C62.3503 96.62 58.0103 96.76 58.0103 95.18C58.0103 94.66 58.4503 94.28 59.4503 94.28C60.6103 94.28 61.6503 94.84 61.6503 94.84L62.1103 93.22C62.1103 93.22 61.1103 92.72 59.5303 92.72C57.0303 92.72 56.0303 93.94 56.0303 95.34C56.0303 98.18 60.3703 98.06 60.3703 99.68C60.3703 100.26 59.8703 100.68 58.8103 100.68C57.3503 100.68 56.2503 99.76 56.2503 99.76L55.8303 101.44ZM64.9972 99.54C64.9972 101.4 66.0172 102.24 67.5772 102.24C69.1772 102.24 70.3572 101.28 70.3572 101.28L69.8572 99.78C69.6172 99.92 68.7772 100.58 68.0172 100.58C67.3572 100.58 66.9772 100.14 66.9772 99.04V94.46H69.8372V92.96H66.9772V90.4L65.0372 90.82V92.88L63.6572 93.38V94.46H64.9972V99.54ZM71.4758 97.62C71.4758 100.04 73.0158 102.24 76.0358 102.24C78.2958 102.24 79.6758 100.94 79.6758 100.94L79.1158 99.5C79.1158 99.5 77.8558 100.62 76.3358 100.62C74.7558 100.62 73.7558 99.56 73.5358 97.92L78.4758 97.26L79.6158 96.94C79.6158 94.2 78.0558 92.72 75.8958 92.72C73.2558 92.72 71.4758 94.86 71.4758 97.62ZM75.7558 94.26C77.3358 94.26 77.4558 96.1 77.4558 96.1L73.5358 96.6C73.7158 95.28 74.4758 94.26 75.7558 94.26ZM81.8405 102H83.8205V96.14C84.4405 95.54 85.7205 94.44 86.7205 94.44C87.4005 94.44 87.8005 94.92 87.8005 96.2V102H89.7805V95.48C89.7805 93.54 88.8005 92.72 87.3805 92.72C85.7205 92.72 84.4205 93.82 83.7805 94.52V92.8L81.8405 93.12V102ZM93.4859 90.8C94.2059 90.8 94.7459 90.28 94.7459 89.58C94.7459 88.88 94.2059 88.36 93.4859 88.36C92.7859 88.36 92.2459 88.88 92.2459 89.58C92.2459 90.28 92.7859 90.8 93.4859 90.8ZM92.4859 102H94.4659V92.96H92.4859V102ZM97.2506 102H99.2306V96.14C99.8506 95.54 101.131 94.44 102.131 94.44C102.811 94.44 103.211 94.92 103.211 96.2V102H105.191V95.48C105.191 93.54 104.211 92.72 102.791 92.72C101.131 92.72 99.8306 93.82 99.1906 94.52V92.8L97.2506 93.12V102ZM107.836 100.4C107.836 101.02 108.416 101.38 109.316 101.68C108.356 102.18 107.016 103.04 107.016 104.36C107.016 105.94 108.976 106.74 110.976 106.74C113.696 106.74 115.916 105.2 115.916 103.38C115.916 101.72 114.096 101.22 112.496 100.82C110.616 100.36 109.736 100.18 109.736 99.82C109.736 99.6 110.056 99.36 110.476 99.08C110.676 99.12 110.896 99.12 111.136 99.12C113.076 99.12 115.136 98.06 115.136 96.08C115.136 95.28 114.756 94.74 114.476 94.42C114.716 94.46 114.996 94.48 115.216 94.48H116.296L116.156 92.9C116.156 92.9 115.556 93.1 114.956 93.1H113.916C112.916 93.1 112.396 92.72 111.296 92.72C109.276 92.72 107.456 93.86 107.456 95.88C107.456 97.1 108.116 98.16 109.256 98.72C108.516 99.14 107.836 99.74 107.836 100.4ZM111.356 102.2C113.036 102.64 113.976 102.9 113.976 103.68C113.976 104.58 112.696 105.3 111.096 105.3C109.956 105.3 108.796 104.94 108.796 104.04C108.796 103.14 109.896 102.54 110.756 102.06C110.956 102.1 111.156 102.14 111.356 102.2ZM111.276 97.72C109.996 97.72 109.396 96.8 109.396 95.94C109.396 95 110.076 94.12 111.276 94.12C112.556 94.12 113.176 95.16 113.176 96.04C113.176 97.06 112.376 97.72 111.276 97.72ZM124.678 102.08H126.598L128.918 95.64L130.998 102.08H132.938L136.178 92.96H134.158L131.978 99.76L129.858 92.96H128.138L125.798 99.8L123.818 92.96H121.778L124.678 102.08ZM137.877 102H139.857V96.18C140.457 95.58 141.757 94.44 142.757 94.44C143.437 94.44 143.837 94.92 143.837 96.2V102H145.817V95.48C145.817 93.54 144.837 92.72 143.397 92.72C141.737 92.72 140.457 93.84 139.857 94.48V87.7L137.877 88.02V102ZM149.521 90.8C150.241 90.8 150.781 90.28 150.781 89.58C150.781 88.88 150.241 88.36 149.521 88.36C148.821 88.36 148.281 88.88 148.281 89.58C148.281 90.28 148.821 90.8 149.521 90.8ZM148.521 102H150.501V92.96H148.521V102ZM153.326 102H155.306V87.7L153.326 88.02V102ZM157.53 97.62C157.53 100.04 159.07 102.24 162.09 102.24C164.35 102.24 165.73 100.94 165.73 100.94L165.17 99.5C165.17 99.5 163.91 100.62 162.39 100.62C160.81 100.62 159.81 99.56 159.59 97.92L164.53 97.26L165.67 96.94C165.67 94.2 164.11 92.72 161.95 92.72C159.31 92.72 157.53 94.86 157.53 97.62ZM161.81 94.26C163.39 94.26 163.51 96.1 163.51 96.1L159.59 96.6C159.77 95.28 160.53 94.26 161.81 94.26ZM172.12 97.6C172.12 100.22 173.94 102.24 176.76 102.24C178.92 102.24 179.96 101.08 179.96 101.08L179.32 99.68C179.32 99.68 178.34 100.62 176.9 100.62C175.2 100.62 174.18 99.28 174.18 97.5C174.18 95.66 175.28 94.32 176.92 94.32C178.24 94.32 179.18 95.16 179.18 95.16L179.96 93.68C179.96 93.68 178.86 92.72 176.88 92.72C173.9 92.72 172.12 95.1 172.12 97.6ZM181.182 97.52C181.182 99.92 182.802 102.24 185.802 102.24C189.062 102.24 190.502 99.5 190.502 97.3C190.502 94.98 188.882 92.72 185.882 92.72C182.642 92.72 181.182 95.26 181.182 97.52ZM183.242 97.34C183.242 95.54 184.302 94.3 185.842 94.3C187.682 94.3 188.442 95.96 188.442 97.56C188.442 99.38 187.382 100.66 185.862 100.66C184.062 100.66 183.242 99.02 183.242 97.34ZM192.641 102H194.621V96.14C195.241 95.54 196.521 94.44 197.521 94.44C198.201 94.44 198.601 94.92 198.601 96.2V102H200.581V95.48C200.581 93.54 199.601 92.72 198.181 92.72C196.521 92.72 195.221 93.82 194.581 94.52V92.8L192.641 93.12V102ZM202.667 97.6C202.667 100.22 204.487 102.24 207.307 102.24C209.467 102.24 210.507 101.08 210.507 101.08L209.867 99.68C209.867 99.68 208.887 100.62 207.447 100.62C205.747 100.62 204.727 99.28 204.727 97.5C204.727 95.66 205.827 94.32 207.467 94.32C208.787 94.32 209.727 95.16 209.727 95.16L210.507 93.68C210.507 93.68 209.407 92.72 207.427 92.72C204.447 92.72 202.667 95.1 202.667 97.6ZM211.769 97.62C211.769 100.04 213.309 102.24 216.329 102.24C218.589 102.24 219.969 100.94 219.969 100.94L219.409 99.5C219.409 99.5 218.149 100.62 216.629 100.62C215.049 100.62 214.049 99.56 213.829 97.92L218.769 97.26L219.909 96.94C219.909 94.2 218.349 92.72 216.189 92.72C213.549 92.72 211.769 94.86 211.769 97.62ZM216.049 94.26C217.629 94.26 217.749 96.1 217.749 96.1L213.829 96.6C214.009 95.28 214.769 94.26 216.049 94.26ZM222.133 102H224.113V96.14C224.733 95.54 226.013 94.44 227.013 94.44C227.693 94.44 228.093 94.92 228.093 96.2V102H230.073V95.48C230.073 93.54 229.093 92.72 227.673 92.72C226.013 92.72 224.713 93.82 224.073 94.52V92.8L222.133 93.12V102ZM233.259 99.54C233.259 101.4 234.279 102.24 235.839 102.24C237.439 102.24 238.619 101.28 238.619 101.28L238.119 99.78C237.879 99.92 237.039 100.58 236.279 100.58C235.619 100.58 235.239 100.14 235.239 99.04V94.46H238.099V92.96H235.239V90.4L233.299 90.82V92.88L231.919 93.38V94.46H233.259V99.54ZM240.298 102H242.278V96.4C242.658 95.8 243.478 94.72 244.478 94.72C244.878 94.72 245.278 94.88 245.278 94.88L245.678 92.88C245.678 92.88 245.398 92.72 244.898 92.72C243.518 92.72 242.598 94 242.238 94.62V92.8L240.298 93.12V102ZM246.531 99.92C246.531 101.26 247.551 102.24 249.131 102.24C250.891 102.24 251.811 101.12 252.051 100.74C252.311 101.46 252.891 102.04 254.271 102.14L254.871 100.58C254.871 100.58 253.871 100.56 253.871 99.44V95.62C253.871 93.6 253.191 92.72 251.051 92.72C248.671 92.72 247.131 93.86 247.131 93.86L247.651 95.34C247.651 95.34 249.031 94.3 250.511 94.3C251.971 94.3 251.891 95.3 251.891 96.44C248.511 96.88 246.531 98.02 246.531 99.92ZM249.631 100.68C249.051 100.68 248.571 100.42 248.571 99.78C248.571 98.72 249.591 98.06 251.891 97.72V99.28C251.291 99.98 250.551 100.68 249.631 100.68ZM257.263 99.54C257.263 101.4 258.283 102.24 259.843 102.24C261.443 102.24 262.623 101.28 262.623 101.28L262.123 99.78C261.883 99.92 261.043 100.58 260.283 100.58C259.623 100.58 259.243 100.14 259.243 99.04V94.46H262.103V92.96H259.243V90.4L257.303 90.82V92.88L255.923 93.38V94.46H257.263V99.54ZM265.341 90.8C266.061 90.8 266.601 90.28 266.601 89.58C266.601 88.88 266.061 88.36 265.341 88.36C264.641 88.36 264.101 88.88 264.101 89.58C264.101 90.28 264.641 90.8 265.341 90.8ZM264.341 102H266.321V92.96H264.341V102ZM269.106 102H271.086V96.14C271.706 95.54 272.986 94.44 273.986 94.44C274.666 94.44 275.066 94.92 275.066 96.2V102H277.046V95.48C277.046 93.54 276.066 92.72 274.646 92.72C272.986 92.72 271.686 93.82 271.046 94.52V92.8L269.106 93.12V102ZM279.692 100.4C279.692 101.02 280.272 101.38 281.172 101.68C280.212 102.18 278.872 103.04 278.872 104.36C278.872 105.94 280.832 106.74 282.832 106.74C285.552 106.74 287.772 105.2 287.772 103.38C287.772 101.72 285.952 101.22 284.352 100.82C282.472 100.36 281.592 100.18 281.592 99.82C281.592 99.6 281.912 99.36 282.332 99.08C282.532 99.12 282.752 99.12 282.992 99.12C284.932 99.12 286.992 98.06 286.992 96.08C286.992 95.28 286.612 94.74 286.332 94.42C286.572 94.46 286.852 94.48 287.072 94.48H288.152L288.012 92.9C288.012 92.9 287.412 93.1 286.812 93.1H285.772C284.772 93.1 284.252 92.72 283.152 92.72C281.132 92.72 279.312 93.86 279.312 95.88C279.312 97.1 279.972 98.16 281.112 98.72C280.372 99.14 279.692 99.74 279.692 100.4ZM283.212 102.2C284.892 102.64 285.832 102.9 285.832 103.68C285.832 104.58 284.552 105.3 282.952 105.3C281.812 105.3 280.652 104.94 280.652 104.04C280.652 103.14 281.752 102.54 282.612 102.06C282.812 102.1 283.012 102.14 283.212 102.2ZM283.132 97.72C281.852 97.72 281.252 96.8 281.252 95.94C281.252 95 281.932 94.12 283.132 94.12C284.412 94.12 285.032 95.16 285.032 96.04C285.032 97.06 284.232 97.72 283.132 97.72ZM293.913 99.92C293.913 101.26 294.933 102.24 296.513 102.24C298.273 102.24 299.193 101.12 299.433 100.74C299.693 101.46 300.273 102.04 301.653 102.14L302.253 100.58C302.253 100.58 301.253 100.56 301.253 99.44V95.62C301.253 93.6 300.573 92.72 298.433 92.72C296.053 92.72 294.513 93.86 294.513 93.86L295.033 95.34C295.033 95.34 296.413 94.3 297.893 94.3C299.353 94.3 299.273 95.3 299.273 96.44C295.893 96.88 293.913 98.02 293.913 99.92ZM297.013 100.68C296.433 100.68 295.953 100.42 295.953 99.78C295.953 98.72 296.973 98.06 299.273 97.72V99.28C298.673 99.98 297.933 100.68 297.013 100.68ZM304.646 99.54C304.646 101.4 305.666 102.24 307.226 102.24C308.826 102.24 310.006 101.28 310.006 101.28L309.506 99.78C309.266 99.92 308.426 100.58 307.666 100.58C307.006 100.58 306.626 100.14 306.626 99.04V94.46H309.486V92.96H306.626V90.4L304.686 90.82V92.88L303.306 93.38V94.46H304.646V99.54ZM318.389 102.08H320.309L322.629 95.64L324.709 102.08H326.649L329.889 92.96H327.869L325.689 99.76L323.569 92.96H321.849L319.509 99.8L317.529 92.96H315.489L318.389 102.08ZM330.889 97.52C330.889 99.92 332.509 102.24 335.509 102.24C338.769 102.24 340.209 99.5 340.209 97.3C340.209 94.98 338.589 92.72 335.589 92.72C332.349 92.72 330.889 95.26 330.889 97.52ZM332.949 97.34C332.949 95.54 334.009 94.3 335.549 94.3C337.389 94.3 338.149 95.96 338.149 97.56C338.149 99.38 337.089 100.66 335.569 100.66C333.769 100.66 332.949 99.02 332.949 97.34ZM342.348 102H344.328V96.4C344.708 95.8 345.528 94.72 346.528 94.72C346.928 94.72 347.328 94.88 347.328 94.88L347.728 92.88C347.728 92.88 347.448 92.72 346.948 92.72C345.568 92.72 344.648 94 344.288 94.62V92.8L342.348 93.12V102ZM349.341 102H351.321V97.72H351.601L355.201 102H357.741L353.341 96.92L357.461 92.96H354.881L351.601 96.26H351.321V87.7L349.341 88.02V102ZM29.08 126.72H33.96V125.2H29.08V126.72ZM41.6559 131H49.9559V129.28H43.7159V117.66H41.6559V131ZM52.6656 119.8C53.3856 119.8 53.9256 119.28 53.9256 118.58C53.9256 117.88 53.3856 117.36 52.6656 117.36C51.9656 117.36 51.4256 117.88 51.4256 118.58C51.4256 119.28 51.9656 119.8 52.6656 119.8ZM51.6656 131H53.6456V121.96H51.6656V131ZM55.8303 130.44C55.8303 130.44 56.9503 131.24 58.8303 131.24C61.0503 131.24 62.3503 130.14 62.3503 128.5C62.3503 125.62 58.0103 125.76 58.0103 124.18C58.0103 123.66 58.4503 123.28 59.4503 123.28C60.6103 123.28 61.6503 123.84 61.6503 123.84L62.1103 122.22C62.1103 122.22 61.1103 121.72 59.5303 121.72C57.0303 121.72 56.0303 122.94 56.0303 124.34C56.0303 127.18 60.3703 127.06 60.3703 128.68C60.3703 129.26 59.8703 129.68 58.8103 129.68C57.3503 129.68 56.2503 128.76 56.2503 128.76L55.8303 130.44ZM64.9972 128.54C64.9972 130.4 66.0172 131.24 67.5772 131.24C69.1772 131.24 70.3572 130.28 70.3572 130.28L69.8572 128.78C69.6172 128.92 68.7772 129.58 68.0172 129.58C67.3572 129.58 66.9772 129.14 66.9772 128.04V123.46H69.8372V121.96H66.9772V119.4L65.0372 119.82V121.88L63.6572 122.38V123.46H64.9972V128.54ZM71.4758 126.62C71.4758 129.04 73.0158 131.24 76.0358 131.24C78.2958 131.24 79.6758 129.94 79.6758 129.94L79.1158 128.5C79.1158 128.5 77.8558 129.62 76.3358 129.62C74.7558 129.62 73.7558 128.56 73.5358 126.92L78.4758 126.26L79.6158 125.94C79.6158 123.2 78.0558 121.72 75.8958 121.72C73.2558 121.72 71.4758 123.86 71.4758 126.62ZM75.7558 123.26C77.3358 123.26 77.4558 125.1 77.4558 125.1L73.5358 125.6C73.7158 124.28 74.4758 123.26 75.7558 123.26ZM81.8405 131H83.8205V125.14C84.4405 124.54 85.7205 123.44 86.7205 123.44C87.4005 123.44 87.8005 123.92 87.8005 125.2V131H89.7805V124.48C89.7805 122.54 88.8005 121.72 87.3805 121.72C85.7205 121.72 84.4205 122.82 83.7805 123.52V121.8L81.8405 122.12V131ZM93.4859 119.8C94.2059 119.8 94.7459 119.28 94.7459 118.58C94.7459 117.88 94.2059 117.36 93.4859 117.36C92.7859 117.36 92.2459 117.88 92.2459 118.58C92.2459 119.28 92.7859 119.8 93.4859 119.8ZM92.4859 131H94.4659V121.96H92.4859V131ZM97.2506 131H99.2306V125.14C99.8506 124.54 101.131 123.44 102.131 123.44C102.811 123.44 103.211 123.92 103.211 125.2V131H105.191V124.48C105.191 122.54 104.211 121.72 102.791 121.72C101.131 121.72 99.8306 122.82 99.1906 123.52V121.8L97.2506 122.12V131ZM107.836 129.4C107.836 130.02 108.416 130.38 109.316 130.68C108.356 131.18 107.016 132.04 107.016 133.36C107.016 134.94 108.976 135.74 110.976 135.74C113.696 135.74 115.916 134.2 115.916 132.38C115.916 130.72 114.096 130.22 112.496 129.82C110.616 129.36 109.736 129.18 109.736 128.82C109.736 128.6 110.056 128.36 110.476 128.08C110.676 128.12 110.896 128.12 111.136 128.12C113.076 128.12 115.136 127.06 115.136 125.08C115.136 124.28 114.756 123.74 114.476 123.42C114.716 123.46 114.996 123.48 115.216 123.48H116.296L116.156 121.9C116.156 121.9 115.556 122.1 114.956 122.1H113.916C112.916 122.1 112.396 121.72 111.296 121.72C109.276 121.72 107.456 122.86 107.456 124.88C107.456 126.1 108.116 127.16 109.256 127.72C108.516 128.14 107.836 128.74 107.836 129.4ZM111.356 131.2C113.036 131.64 113.976 131.9 113.976 132.68C113.976 133.58 112.696 134.3 111.096 134.3C109.956 134.3 108.796 133.94 108.796 133.04C108.796 132.14 109.896 131.54 110.756 131.06C110.956 131.1 111.156 131.14 111.356 131.2ZM111.276 126.72C109.996 126.72 109.396 125.8 109.396 124.94C109.396 124 110.076 123.12 111.276 123.12C112.556 123.12 113.176 124.16 113.176 125.04C113.176 126.06 112.376 126.72 111.276 126.72ZM122.218 126.76C122.218 129.24 123.738 131.24 126.098 131.24C127.538 131.24 128.458 130.54 128.938 129.76C129.038 130.4 129.218 131.14 129.218 131.14L131.118 131C131.118 131 130.718 129.32 130.718 128.22V116.7L128.738 117.02V122.02C128.478 121.92 127.878 121.72 127.058 121.72C123.858 121.72 122.218 124.18 122.218 126.76ZM126.438 129.66C125.158 129.66 124.298 128.52 124.298 126.64C124.298 124.48 125.438 123.28 127.158 123.28C127.978 123.28 128.698 123.58 128.738 124.48V128.2C128.458 128.62 127.658 129.66 126.438 129.66ZM133.46 128.52C133.46 130.46 134.46 131.24 135.92 131.24C137.58 131.24 138.84 130.18 139.42 129.56C139.52 130.22 139.72 131.16 139.72 131.16L141.64 130.98C141.64 130.98 141.24 129.32 141.24 128.22V121.96H139.26V128.04C138.7 128.56 137.58 129.52 136.56 129.52C135.82 129.52 135.44 129.02 135.44 127.76V121.96H133.46V128.52ZM144.067 131H146.047V125.4C146.427 124.8 147.247 123.72 148.247 123.72C148.647 123.72 149.047 123.88 149.047 123.88L149.447 121.88C149.447 121.88 149.167 121.72 148.667 121.72C147.287 121.72 146.367 123 146.007 123.62V121.8L144.067 122.12V131ZM152.06 119.8C152.78 119.8 153.32 119.28 153.32 118.58C153.32 117.88 152.78 117.36 152.06 117.36C151.36 117.36 150.82 117.88 150.82 118.58C150.82 119.28 151.36 119.8 152.06 119.8ZM151.06 131H153.04V121.96H151.06V131ZM155.825 131H157.805V125.14C158.425 124.54 159.705 123.44 160.705 123.44C161.385 123.44 161.785 123.92 161.785 125.2V131H163.765V124.48C163.765 122.54 162.785 121.72 161.365 121.72C159.705 121.72 158.405 122.82 157.765 123.52V121.8L155.825 122.12V131ZM166.41 129.4C166.41 130.02 166.99 130.38 167.89 130.68C166.93 131.18 165.59 132.04 165.59 133.36C165.59 134.94 167.55 135.74 169.55 135.74C172.27 135.74 174.49 134.2 174.49 132.38C174.49 130.72 172.67 130.22 171.07 129.82C169.19 129.36 168.31 129.18 168.31 128.82C168.31 128.6 168.63 128.36 169.05 128.08C169.25 128.12 169.47 128.12 169.71 128.12C171.65 128.12 173.71 127.06 173.71 125.08C173.71 124.28 173.33 123.74 173.05 123.42C173.29 123.46 173.57 123.48 173.79 123.48H174.87L174.73 121.9C174.73 121.9 174.13 122.1 173.53 122.1H172.49C171.49 122.1 170.97 121.72 169.87 121.72C167.85 121.72 166.03 122.86 166.03 124.88C166.03 126.1 166.69 127.16 167.83 127.72C167.09 128.14 166.41 128.74 166.41 129.4ZM169.93 131.2C171.61 131.64 172.55 131.9 172.55 132.68C172.55 133.58 171.27 134.3 169.67 134.3C168.53 134.3 167.37 133.94 167.37 133.04C167.37 132.14 168.47 131.54 169.33 131.06C169.53 131.1 169.73 131.14 169.93 131.2ZM169.85 126.72C168.57 126.72 167.97 125.8 167.97 124.94C167.97 124 168.65 123.12 169.85 123.12C171.13 123.12 171.75 124.16 171.75 125.04C171.75 126.06 170.95 126.72 169.85 126.72ZM181.392 131H183.372V116.7L181.392 117.02V131ZM185.577 126.52C185.577 128.92 187.197 131.24 190.197 131.24C193.457 131.24 194.897 128.5 194.897 126.3C194.897 123.98 193.277 121.72 190.277 121.72C187.037 121.72 185.577 124.26 185.577 126.52ZM187.637 126.34C187.637 124.54 188.697 123.3 190.237 123.3C192.077 123.3 192.837 124.96 192.837 126.56C192.837 128.38 191.777 129.66 190.257 129.66C188.457 129.66 187.637 128.02 187.637 126.34ZM197.036 131H199.016V125.14C199.636 124.54 200.916 123.44 201.916 123.44C202.596 123.44 202.996 123.92 202.996 125.2V131H204.976V124.48C204.976 122.54 203.996 121.72 202.576 121.72C200.916 121.72 199.616 122.82 198.976 123.52V121.8L197.036 122.12V131ZM207.621 129.4C207.621 130.02 208.201 130.38 209.101 130.68C208.141 131.18 206.801 132.04 206.801 133.36C206.801 134.94 208.761 135.74 210.761 135.74C213.481 135.74 215.701 134.2 215.701 132.38C215.701 130.72 213.881 130.22 212.281 129.82C210.401 129.36 209.521 129.18 209.521 128.82C209.521 128.6 209.841 128.36 210.261 128.08C210.461 128.12 210.681 128.12 210.921 128.12C212.861 128.12 214.921 127.06 214.921 125.08C214.921 124.28 214.541 123.74 214.261 123.42C214.501 123.46 214.781 123.48 215.001 123.48H216.081L215.941 121.9C215.941 121.9 215.341 122.1 214.741 122.1H213.701C212.701 122.1 212.181 121.72 211.081 121.72C209.061 121.72 207.241 122.86 207.241 124.88C207.241 126.1 207.901 127.16 209.041 127.72C208.301 128.14 207.621 128.74 207.621 129.4ZM211.141 131.2C212.821 131.64 213.761 131.9 213.761 132.68C213.761 133.58 212.481 134.3 210.881 134.3C209.741 134.3 208.581 133.94 208.581 133.04C208.581 132.14 209.681 131.54 210.541 131.06C210.741 131.1 210.941 131.14 211.141 131.2ZM211.061 126.72C209.781 126.72 209.181 125.8 209.181 124.94C209.181 124 209.861 123.12 211.061 123.12C212.341 123.12 212.961 124.16 212.961 125.04C212.961 126.06 212.161 126.72 211.061 126.72ZM223.083 128.54C223.083 130.4 224.103 131.24 225.663 131.24C227.263 131.24 228.443 130.28 228.443 130.28L227.943 128.78C227.703 128.92 226.863 129.58 226.103 129.58C225.443 129.58 225.063 129.14 225.063 128.04V123.46H227.923V121.96H225.063V119.4L223.123 119.82V121.88L221.743 122.38V123.46H223.083V128.54ZM230.122 131H232.102V125.4C232.482 124.8 233.302 123.72 234.302 123.72C234.702 123.72 235.102 123.88 235.102 123.88L235.502 121.88C235.502 121.88 235.222 121.72 234.722 121.72C233.342 121.72 232.422 123 232.062 123.62V121.8L230.122 122.12V131ZM236.355 128.92C236.355 130.26 237.375 131.24 238.955 131.24C240.715 131.24 241.635 130.12 241.875 129.74C242.135 130.46 242.715 131.04 244.095 131.14L244.695 129.58C244.695 129.58 243.695 129.56 243.695 128.44V124.62C243.695 122.6 243.015 121.72 240.875 121.72C238.495 121.72 236.955 122.86 236.955 122.86L237.475 124.34C237.475 124.34 238.855 123.3 240.335 123.3C241.795 123.3 241.715 124.3 241.715 125.44C238.335 125.88 236.355 127.02 236.355 128.92ZM239.455 129.68C238.875 129.68 238.395 129.42 238.395 128.78C238.395 127.72 239.415 127.06 241.715 126.72V128.28C241.115 128.98 240.375 129.68 239.455 129.68ZM246.645 131H248.625V125.14C249.245 124.54 250.525 123.44 251.525 123.44C252.205 123.44 252.605 123.92 252.605 125.2V131H254.585V124.48C254.585 122.54 253.605 121.72 252.185 121.72C250.525 121.72 249.225 122.82 248.585 123.52V121.8L246.645 122.12V131ZM256.651 130.44C256.651 130.44 257.771 131.24 259.651 131.24C261.871 131.24 263.171 130.14 263.171 128.5C263.171 125.62 258.831 125.76 258.831 124.18C258.831 123.66 259.271 123.28 260.271 123.28C261.431 123.28 262.471 123.84 262.471 123.84L262.931 122.22C262.931 122.22 261.931 121.72 260.351 121.72C257.851 121.72 256.851 122.94 256.851 124.34C256.851 127.18 261.191 127.06 261.191 128.68C261.191 129.26 260.691 129.68 259.631 129.68C258.171 129.68 257.071 128.76 257.071 128.76L256.651 130.44ZM266.338 119.8C267.058 119.8 267.598 119.28 267.598 118.58C267.598 117.88 267.058 117.36 266.338 117.36C265.638 117.36 265.098 117.88 265.098 118.58C265.098 119.28 265.638 119.8 266.338 119.8ZM265.338 131H267.318V121.96H265.338V131ZM270.622 128.54C270.622 130.4 271.642 131.24 273.202 131.24C274.802 131.24 275.982 130.28 275.982 130.28L275.482 128.78C275.242 128.92 274.402 129.58 273.642 129.58C272.982 129.58 272.602 129.14 272.602 128.04V123.46H275.462V121.96H272.602V119.4L270.662 119.82V121.88L269.282 122.38V123.46H270.622V128.54ZM282.985 128.54C282.985 130.4 284.005 131.24 285.565 131.24C287.165 131.24 288.345 130.28 288.345 130.28L287.845 128.78C287.605 128.92 286.765 129.58 286.005 129.58C285.345 129.58 284.965 129.14 284.965 128.04V123.46H287.825V121.96H284.965V119.4L283.025 119.82V121.88L281.645 122.38V123.46H282.985V128.54ZM291.064 119.8C291.784 119.8 292.324 119.28 292.324 118.58C292.324 117.88 291.784 117.36 291.064 117.36C290.364 117.36 289.824 117.88 289.824 118.58C289.824 119.28 290.364 119.8 291.064 119.8ZM290.064 131H292.044V121.96H290.064V131ZM294.829 131H296.809V125.12C297.389 124.54 298.629 123.44 299.609 123.44C300.269 123.44 300.629 123.92 300.629 125.2V131H302.609V125.08C303.289 124.42 304.409 123.44 305.329 123.44C305.989 123.44 306.369 123.92 306.369 125.2V131H308.329V124.48C308.329 122.54 307.389 121.72 305.989 121.72C304.409 121.72 303.169 122.78 302.509 123.5C302.229 122.26 301.409 121.72 300.269 121.72C298.669 121.72 297.389 122.82 296.769 123.5V121.8L294.829 122.12V131ZM310.441 126.62C310.441 129.04 311.981 131.24 315.001 131.24C317.261 131.24 318.641 129.94 318.641 129.94L318.081 128.5C318.081 128.5 316.821 129.62 315.301 129.62C313.721 129.62 312.721 128.56 312.501 126.92L317.441 126.26L318.581 125.94C318.581 123.2 317.021 121.72 314.861 121.72C312.221 121.72 310.441 123.86 310.441 126.62ZM314.721 123.26C316.301 123.26 316.421 125.1 316.421 125.1L312.501 125.6C312.681 124.28 313.441 123.26 314.721 123.26ZM320.205 130.44C320.205 130.44 321.325 131.24 323.205 131.24C325.425 131.24 326.725 130.14 326.725 128.5C326.725 125.62 322.385 125.76 322.385 124.18C322.385 123.66 322.825 123.28 323.825 123.28C324.985 123.28 326.025 123.84 326.025 123.84L326.485 122.22C326.485 122.22 325.485 121.72 323.905 121.72C321.405 121.72 320.405 122.94 320.405 124.34C320.405 127.18 324.745 127.06 324.745 128.68C324.745 129.26 324.245 129.68 323.185 129.68C321.725 129.68 320.625 128.76 320.625 128.76L320.205 130.44ZM29.08 154.72H33.96V153.2H29.08V154.72ZM40.7359 152.54C40.7359 156.68 43.9759 159.24 48.0159 159.24C49.9959 159.24 52.6359 158.62 52.6359 158.62V151.96H47.8159V153.68H50.5959V157.18C50.5959 157.18 49.4159 157.46 48.2559 157.46C45.0559 157.46 42.8759 155.4 42.8759 152.38C42.8759 149.68 44.6159 147.2 48.0159 147.2C50.1959 147.2 51.7959 148.2 51.7959 148.2L52.5959 146.42C52.5959 146.42 50.8159 145.42 48.1159 145.42C43.3959 145.42 40.7359 148.78 40.7359 152.54ZM55.1217 159H57.1017V153.4C57.4817 152.8 58.3017 151.72 59.3017 151.72C59.7017 151.72 60.1017 151.88 60.1017 151.88L60.5017 149.88C60.5017 149.88 60.2217 149.72 59.7217 149.72C58.3417 149.72 57.4217 151 57.0617 151.62V149.8L55.1217 150.12V159ZM61.3386 154.52C61.3386 156.92 62.9586 159.24 65.9586 159.24C69.2186 159.24 70.6586 156.5 70.6586 154.3C70.6586 151.98 69.0386 149.72 66.0386 149.72C62.7986 149.72 61.3386 152.26 61.3386 154.52ZM63.3986 154.34C63.3986 152.54 64.4586 151.3 65.9986 151.3C67.8386 151.3 68.5986 152.96 68.5986 154.56C68.5986 156.38 67.5386 157.66 66.0186 157.66C64.2186 157.66 63.3986 156.02 63.3986 154.34ZM72.7375 156.52C72.7375 158.46 73.7375 159.24 75.1975 159.24C76.8575 159.24 78.1175 158.18 78.6975 157.56C78.7975 158.22 78.9975 159.16 78.9975 159.16L80.9175 158.98C80.9175 158.98 80.5175 157.32 80.5175 156.22V149.96H78.5375V156.04C77.9775 156.56 76.8575 157.52 75.8375 157.52C75.0975 157.52 74.7175 157.02 74.7175 155.76V149.96H72.7375V156.52ZM83.3444 163.66L85.3244 163.34V158.76C85.7044 159.04 86.3844 159.24 87.2244 159.24C90.1044 159.24 91.7844 156.88 91.7844 154.2C91.7844 151.74 90.3444 149.72 87.9644 149.72C86.5444 149.72 85.6844 150.46 85.2644 151.24V149.8L83.3444 150.12V163.66ZM87.6244 151.36C88.8444 151.36 89.7044 152.46 89.7044 154.34C89.7044 156.5 88.5644 157.68 86.8644 157.68C85.9244 157.68 85.3244 157.34 85.3244 156.66V152.82C85.5844 152.44 86.4244 151.36 87.6244 151.36ZM93.6698 154.72H98.5498V153.2H93.6698V154.72ZM101.021 159H103.001V144.7L101.021 145.02V159ZM106.826 147.8C107.546 147.8 108.086 147.28 108.086 146.58C108.086 145.88 107.546 145.36 106.826 145.36C106.126 145.36 105.586 145.88 105.586 146.58C105.586 147.28 106.126 147.8 106.826 147.8ZM105.826 159H107.806V149.96H105.826V159ZM109.99 158.44C109.99 158.44 111.11 159.24 112.99 159.24C115.21 159.24 116.51 158.14 116.51 156.5C116.51 153.62 112.17 153.76 112.17 152.18C112.17 151.66 112.61 151.28 113.61 151.28C114.77 151.28 115.81 151.84 115.81 151.84L116.27 150.22C116.27 150.22 115.27 149.72 113.69 149.72C111.19 149.72 110.19 150.94 110.19 152.34C110.19 155.18 114.53 155.06 114.53 156.68C114.53 157.26 114.03 157.68 112.97 157.68C111.51 157.68 110.41 156.76 110.41 156.76L109.99 158.44ZM119.157 156.54C119.157 158.4 120.177 159.24 121.737 159.24C123.337 159.24 124.517 158.28 124.517 158.28L124.017 156.78C123.777 156.92 122.937 157.58 122.177 157.58C121.517 157.58 121.137 157.14 121.137 156.04V151.46H123.997V149.96H121.137V147.4L119.197 147.82V149.88L117.817 150.38V151.46H119.157V156.54ZM125.636 154.62C125.636 157.04 127.176 159.24 130.196 159.24C132.456 159.24 133.836 157.94 133.836 157.94L133.276 156.5C133.276 156.5 132.016 157.62 130.496 157.62C128.916 157.62 127.916 156.56 127.696 154.92L132.636 154.26L133.776 153.94C133.776 151.2 132.216 149.72 130.056 149.72C127.416 149.72 125.636 151.86 125.636 154.62ZM129.916 151.26C131.496 151.26 131.616 153.1 131.616 153.1L127.696 153.6C127.876 152.28 128.636 151.26 129.916 151.26ZM136.001 159H137.981V153.14C138.601 152.54 139.881 151.44 140.881 151.44C141.561 151.44 141.961 151.92 141.961 153.2V159H143.941V152.48C143.941 150.54 142.961 149.72 141.541 149.72C139.881 149.72 138.581 150.82 137.941 151.52V149.8L136.001 150.12V159ZM147.646 147.8C148.366 147.8 148.906 147.28 148.906 146.58C148.906 145.88 148.366 145.36 147.646 145.36C146.946 145.36 146.406 145.88 146.406 146.58C146.406 147.28 146.946 147.8 147.646 147.8ZM146.646 159H148.626V149.96H146.646V159ZM151.411 159H153.391V153.14C154.011 152.54 155.291 151.44 156.291 151.44C156.971 151.44 157.371 151.92 157.371 153.2V159H159.351V152.48C159.351 150.54 158.371 149.72 156.951 149.72C155.291 149.72 153.991 150.82 153.351 151.52V149.8L151.411 150.12V159ZM161.996 157.4C161.996 158.02 162.576 158.38 163.476 158.68C162.516 159.18 161.176 160.04 161.176 161.36C161.176 162.94 163.136 163.74 165.136 163.74C167.856 163.74 170.076 162.2 170.076 160.38C170.076 158.72 168.256 158.22 166.656 157.82C164.776 157.36 163.896 157.18 163.896 156.82C163.896 156.6 164.216 156.36 164.636 156.08C164.836 156.12 165.056 156.12 165.296 156.12C167.236 156.12 169.296 155.06 169.296 153.08C169.296 152.28 168.916 151.74 168.636 151.42C168.876 151.46 169.156 151.48 169.376 151.48H170.456L170.316 149.9C170.316 149.9 169.716 150.1 169.116 150.1H168.076C167.076 150.1 166.556 149.72 165.456 149.72C163.436 149.72 161.616 150.86 161.616 152.88C161.616 154.1 162.276 155.16 163.416 155.72C162.676 156.14 161.996 156.74 161.996 157.4ZM165.516 159.2C167.196 159.64 168.136 159.9 168.136 160.68C168.136 161.58 166.856 162.3 165.256 162.3C164.116 162.3 162.956 161.94 162.956 161.04C162.956 160.14 164.056 159.54 164.916 159.06C165.116 159.1 165.316 159.14 165.516 159.2ZM165.436 154.72C164.156 154.72 163.556 153.8 163.556 152.94C163.556 152 164.236 151.12 165.436 151.12C166.716 151.12 167.336 152.16 167.336 153.04C167.336 154.06 166.536 154.72 165.436 154.72ZM177.978 147.8C178.698 147.8 179.238 147.28 179.238 146.58C179.238 145.88 178.698 145.36 177.978 145.36C177.278 145.36 176.738 145.88 176.738 146.58C176.738 147.28 177.278 147.8 177.978 147.8ZM176.978 159H178.958V149.96H176.978V159ZM181.743 159H183.723V153.14C184.343 152.54 185.623 151.44 186.623 151.44C187.303 151.44 187.703 151.92 187.703 153.2V159H189.683V152.48C189.683 150.54 188.703 149.72 187.283 149.72C185.623 149.72 184.323 150.82 183.683 151.52V149.8L181.743 150.12V159ZM196.433 156.92C196.433 158.26 197.453 159.24 199.033 159.24C200.793 159.24 201.713 158.12 201.953 157.74C202.213 158.46 202.793 159.04 204.173 159.14L204.773 157.58C204.773 157.58 203.773 157.56 203.773 156.44V152.62C203.773 150.6 203.093 149.72 200.953 149.72C198.573 149.72 197.033 150.86 197.033 150.86L197.553 152.34C197.553 152.34 198.933 151.3 200.413 151.3C201.873 151.3 201.793 152.3 201.793 153.44C198.413 153.88 196.433 155.02 196.433 156.92ZM199.533 157.68C198.953 157.68 198.473 157.42 198.473 156.78C198.473 155.72 199.493 155.06 201.793 154.72V156.28C201.193 156.98 200.453 157.68 199.533 157.68ZM206.723 159H208.703V153.14C209.323 152.54 210.603 151.44 211.603 151.44C212.283 151.44 212.683 151.92 212.683 153.2V159H214.663V152.48C214.663 150.54 213.683 149.72 212.263 149.72C210.603 149.72 209.303 150.82 208.663 151.52V149.8L206.723 150.12V159ZM221.553 154.52C221.553 156.92 223.173 159.24 226.173 159.24C229.433 159.24 230.873 156.5 230.873 154.3C230.873 151.98 229.253 149.72 226.253 149.72C223.013 149.72 221.553 152.26 221.553 154.52ZM223.613 154.34C223.613 152.54 224.673 151.3 226.213 151.3C228.053 151.3 228.813 152.96 228.813 154.56C228.813 156.38 227.753 157.66 226.233 157.66C224.433 157.66 223.613 156.02 223.613 154.34ZM233.012 163.66L234.992 163.34V158.76C235.372 159.04 236.052 159.24 236.892 159.24C239.772 159.24 241.452 156.88 241.452 154.2C241.452 151.74 240.012 149.72 237.632 149.72C236.212 149.72 235.352 150.46 234.932 151.24V149.8L233.012 150.12V163.66ZM237.292 151.36C238.512 151.36 239.372 152.46 239.372 154.34C239.372 156.5 238.232 157.68 236.532 157.68C235.592 157.68 234.992 157.34 234.992 156.66V152.82C235.252 152.44 236.092 151.36 237.292 151.36ZM243.058 154.62C243.058 157.04 244.598 159.24 247.618 159.24C249.878 159.24 251.258 157.94 251.258 157.94L250.698 156.5C250.698 156.5 249.438 157.62 247.918 157.62C246.338 157.62 245.338 156.56 245.118 154.92L250.058 154.26L251.198 153.94C251.198 151.2 249.638 149.72 247.478 149.72C244.838 149.72 243.058 151.86 243.058 154.62ZM247.338 151.26C248.918 151.26 249.038 153.1 249.038 153.1L245.118 153.6C245.298 152.28 246.058 151.26 247.338 151.26ZM253.423 159H255.403V153.14C256.023 152.54 257.303 151.44 258.303 151.44C258.983 151.44 259.383 151.92 259.383 153.2V159H261.363V152.48C261.363 150.54 260.383 149.72 258.963 149.72C257.303 149.72 256.003 150.82 255.363 151.52V149.8L253.423 150.12V159ZM270.733 159.08H272.653L274.973 152.64L277.053 159.08H278.993L282.233 149.96H280.213L278.033 156.76L275.913 149.96H274.193L271.853 156.8L269.873 149.96H267.833L270.733 159.08ZM283.233 154.52C283.233 156.92 284.853 159.24 287.853 159.24C291.113 159.24 292.553 156.5 292.553 154.3C292.553 151.98 290.933 149.72 287.933 149.72C284.693 149.72 283.233 152.26 283.233 154.52ZM285.293 154.34C285.293 152.54 286.353 151.3 287.893 151.3C289.733 151.3 290.493 152.96 290.493 154.56C290.493 156.38 289.433 157.66 287.913 157.66C286.113 157.66 285.293 156.02 285.293 154.34ZM294.692 159H296.672V153.4C297.052 152.8 297.872 151.72 298.872 151.72C299.272 151.72 299.672 151.88 299.672 151.88L300.072 149.88C300.072 149.88 299.792 149.72 299.292 149.72C297.912 149.72 296.992 151 296.632 151.62V149.8L294.692 150.12V159ZM301.685 159H303.665V154.72H303.945L307.545 159H310.085L305.685 153.92L309.805 149.96H307.225L303.945 153.26H303.665V144.7L301.685 145.02V159ZM315.773 154.62C315.773 157.04 317.313 159.24 320.333 159.24C322.593 159.24 323.973 157.94 323.973 157.94L323.413 156.5C323.413 156.5 322.153 157.62 320.633 157.62C319.053 157.62 318.053 156.56 317.833 154.92L322.773 154.26L323.913 153.94C323.913 151.2 322.353 149.72 320.193 149.72C317.553 149.72 315.773 151.86 315.773 154.62ZM320.053 151.26C321.633 151.26 321.753 153.1 321.753 153.1L317.833 153.6C318.013 152.28 318.773 151.26 320.053 151.26ZM326.137 159H328.117V153.14C328.737 152.54 330.017 151.44 331.017 151.44C331.697 151.44 332.097 151.92 332.097 153.2V159H334.077V152.48C334.077 150.54 333.097 149.72 331.677 149.72C330.017 149.72 328.717 150.82 328.077 151.52V149.8L326.137 150.12V159ZM338.923 159.08H340.763L344.483 149.96H342.463L339.923 156.52L337.723 149.96H335.643L338.923 159.08ZM347.08 147.8C347.8 147.8 348.34 147.28 348.34 146.58C348.34 145.88 347.8 145.36 347.08 145.36C346.38 145.36 345.84 145.88 345.84 146.58C345.84 147.28 346.38 147.8 347.08 147.8ZM346.08 159H348.06V149.96H346.08V159ZM350.844 159H352.824V153.4C353.204 152.8 354.024 151.72 355.024 151.72C355.424 151.72 355.824 151.88 355.824 151.88L356.224 149.88C356.224 149.88 355.944 149.72 355.444 149.72C354.064 149.72 353.144 151 352.784 151.62V149.8L350.844 150.12V159ZM357.061 154.52C357.061 156.92 358.681 159.24 361.681 159.24C364.941 159.24 366.381 156.5 366.381 154.3C366.381 151.98 364.761 149.72 361.761 149.72C358.521 149.72 357.061 152.26 357.061 154.52ZM359.121 154.34C359.121 152.54 360.181 151.3 361.721 151.3C363.561 151.3 364.321 152.96 364.321 154.56C364.321 156.38 363.261 157.66 361.741 157.66C359.941 157.66 359.121 156.02 359.121 154.34ZM368.52 159H370.5V153.14C371.12 152.54 372.4 151.44 373.4 151.44C374.08 151.44 374.48 151.92 374.48 153.2V159H376.46V152.48C376.46 150.54 375.48 149.72 374.06 149.72C372.4 149.72 371.1 150.82 370.46 151.52V149.8L368.52 150.12V159ZM379.126 159H381.106V153.12C381.686 152.54 382.926 151.44 383.906 151.44C384.566 151.44 384.926 151.92 384.926 153.2V159H386.906V153.08C387.586 152.42 388.706 151.44 389.626 151.44C390.286 151.44 390.666 151.92 390.666 153.2V159H392.626V152.48C392.626 150.54 391.686 149.72 390.286 149.72C388.706 149.72 387.466 150.78 386.806 151.5C386.526 150.26 385.706 149.72 384.566 149.72C382.966 149.72 381.686 150.82 381.066 151.5V149.8L379.126 150.12V159ZM394.738 154.62C394.738 157.04 396.278 159.24 399.298 159.24C401.558 159.24 402.938 157.94 402.938 157.94L402.378 156.5C402.378 156.5 401.118 157.62 399.598 157.62C398.018 157.62 397.018 156.56 396.798 154.92L401.738 154.26L402.878 153.94C402.878 151.2 401.318 149.72 399.158 149.72C396.518 149.72 394.738 151.86 394.738 154.62ZM399.018 151.26C400.598 151.26 400.718 153.1 400.718 153.1L396.798 153.6C396.978 152.28 397.738 151.26 399.018 151.26ZM405.102 159H407.082V153.14C407.702 152.54 408.982 151.44 409.982 151.44C410.662 151.44 411.062 151.92 411.062 153.2V159H413.042V152.48C413.042 150.54 412.062 149.72 410.642 149.72C408.982 149.72 407.682 150.82 407.042 151.52V149.8L405.102 150.12V159ZM416.228 156.54C416.228 158.4 417.248 159.24 418.808 159.24C420.408 159.24 421.588 158.28 421.588 158.28L421.088 156.78C420.848 156.92 420.008 157.58 419.248 157.58C418.588 157.58 418.208 157.14 418.208 156.04V151.46H421.068V149.96H418.208V147.4L416.268 147.82V149.88L414.888 150.38V151.46H416.228V156.54ZM29.08 182.72H33.96V181.2H29.08V182.72ZM41.6559 187H43.7159V182.14H45.8759C48.6759 182.14 50.7159 180.5 50.7159 177.74C50.7159 175.54 49.3159 173.66 45.8759 173.66H41.6559V187ZM43.7159 180.42V175.38H45.5359C47.7559 175.38 48.5359 176.48 48.5359 177.88C48.5359 179.46 47.5959 180.42 45.5359 180.42H43.7159ZM52.5045 187H54.4845V181.4C54.8645 180.8 55.6845 179.72 56.6845 179.72C57.0845 179.72 57.4845 179.88 57.4845 179.88L57.8845 177.88C57.8845 177.88 57.6045 177.72 57.1045 177.72C55.7245 177.72 54.8045 179 54.4445 179.62V177.8L52.5045 178.12V187ZM60.4977 175.8C61.2177 175.8 61.7577 175.28 61.7577 174.58C61.7577 173.88 61.2177 173.36 60.4977 173.36C59.7977 173.36 59.2577 173.88 59.2577 174.58C59.2577 175.28 59.7977 175.8 60.4977 175.8ZM59.4977 187H61.4777V177.96H59.4977V187ZM66.4423 187.08H68.2823L72.0023 177.96H69.9823L67.4423 184.52L65.2423 177.96H63.1623L66.4423 187.08ZM72.8392 184.92C72.8392 186.26 73.8592 187.24 75.4392 187.24C77.1992 187.24 78.1192 186.12 78.3592 185.74C78.6192 186.46 79.1992 187.04 80.5792 187.14L81.1792 185.58C81.1792 185.58 80.1792 185.56 80.1792 184.44V180.62C80.1792 178.6 79.4992 177.72 77.3592 177.72C74.9792 177.72 73.4392 178.86 73.4392 178.86L73.9592 180.34C73.9592 180.34 75.3392 179.3 76.8192 179.3C78.2792 179.3 78.1992 180.3 78.1992 181.44C74.8192 181.88 72.8392 183.02 72.8392 184.92ZM75.9392 185.68C75.3592 185.68 74.8792 185.42 74.8792 184.78C74.8792 183.72 75.8992 183.06 78.1992 182.72V184.28C77.5992 184.98 76.8592 185.68 75.9392 185.68ZM83.5714 184.54C83.5714 186.4 84.5914 187.24 86.1514 187.24C87.7514 187.24 88.9314 186.28 88.9314 186.28L88.4314 184.78C88.1914 184.92 87.3514 185.58 86.5914 185.58C85.9314 185.58 85.5514 185.14 85.5514 184.04V179.46H88.4114V177.96H85.5514V175.4L83.6114 175.82V177.88L82.2314 178.38V179.46H83.5714V184.54ZM90.05 182.62C90.05 185.04 91.59 187.24 94.61 187.24C96.87 187.24 98.25 185.94 98.25 185.94L97.69 184.5C97.69 184.5 96.43 185.62 94.91 185.62C93.33 185.62 92.33 184.56 92.11 182.92L97.05 182.26L98.19 181.94C98.19 179.2 96.63 177.72 94.47 177.72C91.83 177.72 90.05 179.86 90.05 182.62ZM94.33 179.26C95.91 179.26 96.03 181.1 96.03 181.1L92.11 181.6C92.29 180.28 93.05 179.26 94.33 179.26ZM100.135 182.72H105.015V181.2H100.135V182.72ZM107.486 187H109.466V172.7L107.486 173.02V187ZM113.291 175.8C114.011 175.8 114.551 175.28 114.551 174.58C114.551 173.88 114.011 173.36 113.291 173.36C112.591 173.36 112.051 173.88 112.051 174.58C112.051 175.28 112.591 175.8 113.291 175.8ZM112.291 187H114.271V177.96H112.291V187ZM116.455 186.44C116.455 186.44 117.575 187.24 119.455 187.24C121.675 187.24 122.975 186.14 122.975 184.5C122.975 181.62 118.635 181.76 118.635 180.18C118.635 179.66 119.075 179.28 120.075 179.28C121.235 179.28 122.275 179.84 122.275 179.84L122.735 178.22C122.735 178.22 121.735 177.72 120.155 177.72C117.655 177.72 116.655 178.94 116.655 180.34C116.655 183.18 120.995 183.06 120.995 184.68C120.995 185.26 120.495 185.68 119.435 185.68C117.975 185.68 116.875 184.76 116.875 184.76L116.455 186.44ZM125.622 184.54C125.622 186.4 126.642 187.24 128.202 187.24C129.802 187.24 130.982 186.28 130.982 186.28L130.482 184.78C130.242 184.92 129.402 185.58 128.642 185.58C127.982 185.58 127.602 185.14 127.602 184.04V179.46H130.462V177.96H127.602V175.4L125.662 175.82V177.88L124.282 178.38V179.46H125.622V184.54ZM132.101 182.62C132.101 185.04 133.641 187.24 136.661 187.24C138.921 187.24 140.301 185.94 140.301 185.94L139.741 184.5C139.741 184.5 138.481 185.62 136.961 185.62C135.381 185.62 134.381 184.56 134.161 182.92L139.101 182.26L140.241 181.94C140.241 179.2 138.681 177.72 136.521 177.72C133.881 177.72 132.101 179.86 132.101 182.62ZM136.381 179.26C137.961 179.26 138.081 181.1 138.081 181.1L134.161 181.6C134.341 180.28 135.101 179.26 136.381 179.26ZM142.465 187H144.445V181.14C145.065 180.54 146.345 179.44 147.345 179.44C148.025 179.44 148.425 179.92 148.425 181.2V187H150.405V180.48C150.405 178.54 149.425 177.72 148.005 177.72C146.345 177.72 145.045 178.82 144.405 179.52V177.8L142.465 178.12V187ZM154.111 175.8C154.831 175.8 155.371 175.28 155.371 174.58C155.371 173.88 154.831 173.36 154.111 173.36C153.411 173.36 152.871 173.88 152.871 174.58C152.871 175.28 153.411 175.8 154.111 175.8ZM153.111 187H155.091V177.96H153.111V187ZM157.876 187H159.856V181.14C160.476 180.54 161.756 179.44 162.756 179.44C163.436 179.44 163.836 179.92 163.836 181.2V187H165.816V180.48C165.816 178.54 164.836 177.72 163.416 177.72C161.756 177.72 160.456 178.82 159.816 179.52V177.8L157.876 178.12V187ZM168.461 185.4C168.461 186.02 169.041 186.38 169.941 186.68C168.981 187.18 167.641 188.04 167.641 189.36C167.641 190.94 169.601 191.74 171.601 191.74C174.321 191.74 176.541 190.2 176.541 188.38C176.541 186.72 174.721 186.22 173.121 185.82C171.241 185.36 170.361 185.18 170.361 184.82C170.361 184.6 170.681 184.36 171.101 184.08C171.301 184.12 171.521 184.12 171.761 184.12C173.701 184.12 175.761 183.06 175.761 181.08C175.761 180.28 175.381 179.74 175.101 179.42C175.341 179.46 175.621 179.48 175.841 179.48H176.921L176.781 177.9C176.781 177.9 176.181 178.1 175.581 178.1H174.541C173.541 178.1 173.021 177.72 171.921 177.72C169.901 177.72 168.081 178.86 168.081 180.88C168.081 182.1 168.741 183.16 169.881 183.72C169.141 184.14 168.461 184.74 168.461 185.4ZM171.981 187.2C173.661 187.64 174.601 187.9 174.601 188.68C174.601 189.58 173.321 190.3 171.721 190.3C170.581 190.3 169.421 189.94 169.421 189.04C169.421 188.14 170.521 187.54 171.381 187.06C171.581 187.1 171.781 187.14 171.981 187.2ZM171.901 182.72C170.621 182.72 170.021 181.8 170.021 180.94C170.021 180 170.701 179.12 171.901 179.12C173.181 179.12 173.801 180.16 173.801 181.04C173.801 182.06 173.001 182.72 171.901 182.72ZM182.683 184.92C182.683 186.26 183.703 187.24 185.283 187.24C187.043 187.24 187.963 186.12 188.203 185.74C188.463 186.46 189.043 187.04 190.423 187.14L191.023 185.58C191.023 185.58 190.023 185.56 190.023 184.44V180.62C190.023 178.6 189.343 177.72 187.203 177.72C184.823 177.72 183.283 178.86 183.283 178.86L183.803 180.34C183.803 180.34 185.183 179.3 186.663 179.3C188.123 179.3 188.043 180.3 188.043 181.44C184.663 181.88 182.683 183.02 182.683 184.92ZM185.783 185.68C185.203 185.68 184.723 185.42 184.723 184.78C184.723 183.72 185.743 183.06 188.043 182.72V184.28C187.443 184.98 186.703 185.68 185.783 185.68ZM193.415 184.54C193.415 186.4 194.435 187.24 195.995 187.24C197.595 187.24 198.775 186.28 198.775 186.28L198.275 184.78C198.035 184.92 197.195 185.58 196.435 185.58C195.775 185.58 195.395 185.14 195.395 184.04V179.46H198.255V177.96H195.395V175.4L193.455 175.82V177.88L192.075 178.38V179.46H193.415V184.54ZM204.678 182.6C204.678 185.22 206.498 187.24 209.318 187.24C211.478 187.24 212.518 186.08 212.518 186.08L211.878 184.68C211.878 184.68 210.898 185.62 209.458 185.62C207.758 185.62 206.738 184.28 206.738 182.5C206.738 180.66 207.838 179.32 209.478 179.32C210.798 179.32 211.738 180.16 211.738 180.16L212.518 178.68C212.518 178.68 211.418 177.72 209.438 177.72C206.458 177.72 204.678 180.1 204.678 182.6ZM213.757 184.92C213.757 186.26 214.777 187.24 216.357 187.24C218.117 187.24 219.037 186.12 219.277 185.74C219.537 186.46 220.117 187.04 221.497 187.14L222.097 185.58C222.097 185.58 221.097 185.56 221.097 184.44V180.62C221.097 178.6 220.417 177.72 218.277 177.72C215.897 177.72 214.357 178.86 214.357 178.86L214.877 180.34C214.877 180.34 216.257 179.3 217.737 179.3C219.197 179.3 219.117 180.3 219.117 181.44C215.737 181.88 213.757 183.02 213.757 184.92ZM216.857 185.68C216.277 185.68 215.797 185.42 215.797 184.78C215.797 183.72 216.817 183.06 219.117 182.72V184.28C218.517 184.98 217.777 185.68 216.857 185.68ZM223.188 179.46H224.608V187H226.588V179.46H229.088V177.96H226.588V176.88C226.588 174.76 227.548 174.02 228.608 174.02C229.588 174.02 230.468 174.66 230.468 174.66L231.248 173.14C231.248 173.14 230.208 172.38 228.628 172.38C226.268 172.38 224.608 174.04 224.608 177V177.88L223.188 178.4V179.46ZM230.167 182.62C230.167 185.04 231.707 187.24 234.727 187.24C236.987 187.24 238.367 185.94 238.367 185.94L237.807 184.5C237.807 184.5 236.547 185.62 235.027 185.62C233.447 185.62 232.447 184.56 232.227 182.92L237.167 182.26L238.307 181.94C238.307 179.2 236.747 177.72 234.587 177.72C231.947 177.72 230.167 179.86 230.167 182.62ZM234.447 179.26C236.027 179.26 236.147 181.1 236.147 181.1L232.227 181.6C232.407 180.28 233.167 179.26 234.447 179.26ZM239.932 186.44C239.932 186.44 241.052 187.24 242.932 187.24C245.152 187.24 246.452 186.14 246.452 184.5C246.452 181.62 242.112 181.76 242.112 180.18C242.112 179.66 242.552 179.28 243.552 179.28C244.712 179.28 245.752 179.84 245.752 179.84L246.212 178.22C246.212 178.22 245.212 177.72 243.632 177.72C241.132 177.72 240.132 178.94 240.132 180.34C240.132 183.18 244.472 183.06 244.472 184.68C244.472 185.26 243.972 185.68 242.912 185.68C241.452 185.68 240.352 184.76 240.352 184.76L239.932 186.44ZM29.08 211.72H33.96V210.2H29.08V211.72ZM44.7559 216H46.7959V204.38H51.4159V202.66H40.1759V204.38H44.7559V216ZM50.4992 211.62C50.4992 214.04 52.0392 216.24 55.0592 216.24C57.3192 216.24 58.6992 214.94 58.6992 214.94L58.1392 213.5C58.1392 213.5 56.8792 214.62 55.3592 214.62C53.7792 214.62 52.7792 213.56 52.5592 211.92L57.4992 211.26L58.6392 210.94C58.6392 208.2 57.0792 206.72 54.9192 206.72C52.2792 206.72 50.4992 208.86 50.4992 211.62ZM54.7792 208.26C56.3592 208.26 56.4792 210.1 56.4792 210.1L52.5592 210.6C52.7392 209.28 53.4992 208.26 54.7792 208.26ZM60.8639 216H62.8439V210.14C63.4639 209.54 64.7439 208.44 65.7439 208.44C66.4239 208.44 66.8239 208.92 66.8239 210.2V216H68.8039V209.48C68.8039 207.54 67.8239 206.72 66.4039 206.72C64.7439 206.72 63.4439 207.82 62.8039 208.52V206.8L60.8639 207.12V216ZM70.9094 211.76C70.9094 214.24 72.4294 216.24 74.7894 216.24C76.2294 216.24 77.1494 215.54 77.6294 214.76C77.7294 215.4 77.9094 216.14 77.9094 216.14L79.8094 216C79.8094 216 79.4094 214.32 79.4094 213.22V201.7L77.4294 202.02V207.02C77.1694 206.92 76.5694 206.72 75.7494 206.72C72.5494 206.72 70.9094 209.18 70.9094 211.76ZM75.1294 214.66C73.8494 214.66 72.9894 213.52 72.9894 211.64C72.9894 209.48 74.1294 208.28 75.8494 208.28C76.6694 208.28 77.3894 208.58 77.4294 209.48V213.2C77.1494 213.62 76.3494 214.66 75.1294 214.66ZM87.5363 213.54C87.5363 215.4 88.5563 216.24 90.1163 216.24C91.7163 216.24 92.8963 215.28 92.8963 215.28L92.3963 213.78C92.1563 213.92 91.3163 214.58 90.5563 214.58C89.8963 214.58 89.5163 214.14 89.5163 213.04V208.46H92.3763V206.96H89.5163V204.4L87.5763 204.82V206.88L86.1963 207.38V208.46H87.5363V213.54ZM93.9948 211.52C93.9948 213.92 95.6148 216.24 98.6148 216.24C101.875 216.24 103.315 213.5 103.315 211.3C103.315 208.98 101.695 206.72 98.6948 206.72C95.4548 206.72 93.9948 209.26 93.9948 211.52ZM96.0548 211.34C96.0548 209.54 97.1148 208.3 98.6548 208.3C100.495 208.3 101.255 209.96 101.255 211.56C101.255 213.38 100.195 214.66 98.6748 214.66C96.8748 214.66 96.0548 213.02 96.0548 211.34ZM109.658 215.44C109.658 215.44 110.778 216.24 112.658 216.24C114.878 216.24 116.178 215.14 116.178 213.5C116.178 210.62 111.838 210.76 111.838 209.18C111.838 208.66 112.278 208.28 113.278 208.28C114.438 208.28 115.478 208.84 115.478 208.84L115.938 207.22C115.938 207.22 114.938 206.72 113.358 206.72C110.858 206.72 109.858 207.94 109.858 209.34C109.858 212.18 114.198 212.06 114.198 213.68C114.198 214.26 113.698 214.68 112.638 214.68C111.178 214.68 110.078 213.76 110.078 213.76L109.658 215.44ZM118.825 213.54C118.825 215.4 119.845 216.24 121.405 216.24C123.005 216.24 124.185 215.28 124.185 215.28L123.685 213.78C123.445 213.92 122.605 214.58 121.845 214.58C121.185 214.58 120.805 214.14 120.805 213.04V208.46H123.665V206.96H120.805V204.4L118.865 204.82V206.88L117.485 207.38V208.46H118.825V213.54ZM125.864 216H127.844V210.4C128.224 209.8 129.044 208.72 130.044 208.72C130.444 208.72 130.844 208.88 130.844 208.88L131.244 206.88C131.244 206.88 130.964 206.72 130.464 206.72C129.084 206.72 128.164 208 127.804 208.62V206.8L125.864 207.12V216ZM132.101 211.62C132.101 214.04 133.641 216.24 136.661 216.24C138.921 216.24 140.301 214.94 140.301 214.94L139.741 213.5C139.741 213.5 138.481 214.62 136.961 214.62C135.381 214.62 134.381 213.56 134.161 211.92L139.101 211.26L140.241 210.94C140.241 208.2 138.681 206.72 136.521 206.72C133.881 206.72 132.101 208.86 132.101 211.62ZM136.381 208.26C137.961 208.26 138.081 210.1 138.081 210.1L134.161 210.6C134.341 209.28 135.101 208.26 136.381 208.26ZM141.745 213.92C141.745 215.26 142.765 216.24 144.345 216.24C146.105 216.24 147.025 215.12 147.265 214.74C147.525 215.46 148.105 216.04 149.485 216.14L150.085 214.58C150.085 214.58 149.085 214.56 149.085 213.44V209.62C149.085 207.6 148.405 206.72 146.265 206.72C143.885 206.72 142.345 207.86 142.345 207.86L142.865 209.34C142.865 209.34 144.245 208.3 145.725 208.3C147.185 208.3 147.105 209.3 147.105 210.44C143.725 210.88 141.745 212.02 141.745 213.92ZM144.845 214.68C144.265 214.68 143.785 214.42 143.785 213.78C143.785 212.72 144.805 212.06 147.105 211.72V213.28C146.505 213.98 145.765 214.68 144.845 214.68ZM152.036 216H154.016V210.12C154.596 209.54 155.836 208.44 156.816 208.44C157.476 208.44 157.836 208.92 157.836 210.2V216H159.816V210.08C160.496 209.42 161.616 208.44 162.536 208.44C163.196 208.44 163.576 208.92 163.576 210.2V216H165.536V209.48C165.536 207.54 164.596 206.72 163.196 206.72C161.616 206.72 160.376 207.78 159.716 208.5C159.436 207.26 158.616 206.72 157.476 206.72C155.876 206.72 154.596 207.82 153.976 208.5V206.8L152.036 207.12V216ZM173.472 216H175.532V211.14H177.692C180.492 211.14 182.532 209.5 182.532 206.74C182.532 204.54 181.132 202.66 177.692 202.66H173.472V216ZM175.532 209.42V204.38H177.352C179.572 204.38 180.352 205.48 180.352 206.88C180.352 208.46 179.412 209.42 177.352 209.42H175.532ZM183.581 213.92C183.581 215.26 184.601 216.24 186.181 216.24C187.941 216.24 188.861 215.12 189.101 214.74C189.361 215.46 189.941 216.04 191.321 216.14L191.921 214.58C191.921 214.58 190.921 214.56 190.921 213.44V209.62C190.921 207.6 190.241 206.72 188.101 206.72C185.721 206.72 184.181 207.86 184.181 207.86L184.701 209.34C184.701 209.34 186.081 208.3 187.561 208.3C189.021 208.3 188.941 209.3 188.941 210.44C185.561 210.88 183.581 212.02 183.581 213.92ZM186.681 214.68C186.101 214.68 185.621 214.42 185.621 213.78C185.621 212.72 186.641 212.06 188.941 211.72V213.28C188.341 213.98 187.601 214.68 186.681 214.68ZM193.872 216H195.852V210.14C196.472 209.54 197.752 208.44 198.752 208.44C199.432 208.44 199.832 208.92 199.832 210.2V216H201.812V209.48C201.812 207.54 200.832 206.72 199.412 206.72C197.752 206.72 196.452 207.82 195.812 208.52V206.8L193.872 207.12V216ZM203.917 211.76C203.917 214.24 205.437 216.24 207.797 216.24C209.237 216.24 210.157 215.54 210.637 214.76C210.737 215.4 210.917 216.14 210.917 216.14L212.817 216C212.817 216 212.417 214.32 212.417 213.22V201.7L210.437 202.02V207.02C210.177 206.92 209.577 206.72 208.757 206.72C205.557 206.72 203.917 209.18 203.917 211.76ZM208.137 214.66C206.857 214.66 205.997 213.52 205.997 211.64C205.997 209.48 207.137 208.28 208.857 208.28C209.677 208.28 210.397 208.58 210.437 209.48V213.2C210.157 213.62 209.357 214.66 208.137 214.66ZM214.639 211.52C214.639 213.92 216.259 216.24 219.259 216.24C222.519 216.24 223.959 213.5 223.959 211.3C223.959 208.98 222.339 206.72 219.339 206.72C216.099 206.72 214.639 209.26 214.639 211.52ZM216.699 211.34C216.699 209.54 217.759 208.3 219.299 208.3C221.139 208.3 221.899 209.96 221.899 211.56C221.899 213.38 220.839 214.66 219.319 214.66C217.519 214.66 216.699 213.02 216.699 211.34ZM226.098 216H228.078V210.4C228.458 209.8 229.278 208.72 230.278 208.72C230.678 208.72 231.078 208.88 231.078 208.88L231.478 206.88C231.478 206.88 231.198 206.72 230.698 206.72C229.318 206.72 228.398 208 228.038 208.62V206.8L226.098 207.12V216ZM232.331 213.92C232.331 215.26 233.351 216.24 234.931 216.24C236.691 216.24 237.611 215.12 237.851 214.74C238.111 215.46 238.691 216.04 240.071 216.14L240.671 214.58C240.671 214.58 239.671 214.56 239.671 213.44V209.62C239.671 207.6 238.991 206.72 236.851 206.72C234.471 206.72 232.931 207.86 232.931 207.86L233.451 209.34C233.451 209.34 234.831 208.3 236.311 208.3C237.771 208.3 237.691 209.3 237.691 210.44C234.311 210.88 232.331 212.02 232.331 213.92ZM235.431 214.68C234.851 214.68 234.371 214.42 234.371 213.78C234.371 212.72 235.391 212.06 237.691 211.72V213.28C237.091 213.98 236.351 214.68 235.431 214.68ZM246.706 213.92C246.706 215.26 247.726 216.24 249.306 216.24C251.066 216.24 251.986 215.12 252.226 214.74C252.486 215.46 253.066 216.04 254.446 216.14L255.046 214.58C255.046 214.58 254.046 214.56 254.046 213.44V209.62C254.046 207.6 253.366 206.72 251.226 206.72C248.846 206.72 247.306 207.86 247.306 207.86L247.826 209.34C247.826 209.34 249.206 208.3 250.686 208.3C252.146 208.3 252.066 209.3 252.066 210.44C248.686 210.88 246.706 212.02 246.706 213.92ZM249.806 214.68C249.226 214.68 248.746 214.42 248.746 213.78C248.746 212.72 249.766 212.06 252.066 211.72V213.28C251.466 213.98 250.726 214.68 249.806 214.68ZM257.037 216H259.017V201.7L257.037 202.02V216ZM261.841 216H263.821V201.7L261.841 202.02V216ZM270.851 211.76C270.851 214.24 272.371 216.24 274.731 216.24C276.171 216.24 277.091 215.54 277.571 214.76C277.671 215.4 277.851 216.14 277.851 216.14L279.751 216C279.751 216 279.351 214.32 279.351 213.22V201.7L277.371 202.02V207.02C277.111 206.92 276.511 206.72 275.691 206.72C272.491 206.72 270.851 209.18 270.851 211.76ZM275.071 214.66C273.791 214.66 272.931 213.52 272.931 211.64C272.931 209.48 274.071 208.28 275.791 208.28C276.611 208.28 277.331 208.58 277.371 209.48V213.2C277.091 213.62 276.291 214.66 275.071 214.66ZM281.433 213.92C281.433 215.26 282.453 216.24 284.033 216.24C285.793 216.24 286.713 215.12 286.953 214.74C287.213 215.46 287.793 216.04 289.173 216.14L289.773 214.58C289.773 214.58 288.773 214.56 288.773 213.44V209.62C288.773 207.6 288.093 206.72 285.953 206.72C283.573 206.72 282.033 207.86 282.033 207.86L282.553 209.34C282.553 209.34 283.933 208.3 285.413 208.3C286.873 208.3 286.793 209.3 286.793 210.44C283.413 210.88 281.433 212.02 281.433 213.92ZM284.533 214.68C283.953 214.68 283.473 214.42 283.473 213.78C283.473 212.72 284.493 212.06 286.793 211.72V213.28C286.193 213.98 285.453 214.68 284.533 214.68ZM290.527 219.16L291.147 220.74C293.267 220.5 294.587 218.6 295.367 216.68L299.287 206.96H297.247L294.907 213.16L292.527 206.96H290.427L293.927 215.54L293.447 216.62C292.907 217.88 291.847 218.94 290.527 219.16ZM305.709 216H307.689V201.7L305.709 202.02V216ZM309.893 211.52C309.893 213.92 311.513 216.24 314.513 216.24C317.773 216.24 319.213 213.5 319.213 211.3C319.213 208.98 317.593 206.72 314.593 206.72C311.353 206.72 309.893 209.26 309.893 211.52ZM311.953 211.34C311.953 209.54 313.013 208.3 314.553 208.3C316.393 208.3 317.153 209.96 317.153 211.56C317.153 213.38 316.093 214.66 314.573 214.66C312.773 214.66 311.953 213.02 311.953 211.34ZM321.352 216H323.332V210.14C323.952 209.54 325.232 208.44 326.232 208.44C326.912 208.44 327.312 208.92 327.312 210.2V216H329.292V209.48C329.292 207.54 328.312 206.72 326.892 206.72C325.232 206.72 323.932 207.82 323.292 208.52V206.8L321.352 207.12V216ZM331.938 214.4C331.938 215.02 332.518 215.38 333.418 215.68C332.458 216.18 331.118 217.04 331.118 218.36C331.118 219.94 333.078 220.74 335.078 220.74C337.798 220.74 340.018 219.2 340.018 217.38C340.018 215.72 338.198 215.22 336.598 214.82C334.718 214.36 333.838 214.18 333.838 213.82C333.838 213.6 334.158 213.36 334.578 213.08C334.778 213.12 334.998 213.12 335.238 213.12C337.178 213.12 339.238 212.06 339.238 210.08C339.238 209.28 338.858 208.74 338.578 208.42C338.818 208.46 339.098 208.48 339.318 208.48H340.398L340.258 206.9C340.258 206.9 339.658 207.1 339.058 207.1H338.018C337.018 207.1 336.498 206.72 335.398 206.72C333.378 206.72 331.558 207.86 331.558 209.88C331.558 211.1 332.218 212.16 333.358 212.72C332.618 213.14 331.938 213.74 331.938 214.4ZM335.458 216.2C337.138 216.64 338.078 216.9 338.078 217.68C338.078 218.58 336.798 219.3 335.198 219.3C334.058 219.3 332.898 218.94 332.898 218.04C332.898 217.14 333.998 216.54 334.858 216.06C335.058 216.1 335.258 216.14 335.458 216.2ZM335.378 211.72C334.098 211.72 333.498 210.8 333.498 209.94C333.498 209 334.178 208.12 335.378 208.12C336.658 208.12 337.278 209.16 337.278 210.04C337.278 211.06 336.478 211.72 335.378 211.72Z" fill="#333333"/>
</svg>
