<svg width="472" height="248" viewBox="0 0 472 248" fill="none" xmlns="http://www.w3.org/2000/svg">
<path d="M3 3H469V245H3V3Z" fill="white" stroke="#828282" stroke-width="6"/>
<path d="M29.44 33.994V46H32.446C33.364 46 34.858 45.838 35.812 44.83C36.388 44.218 36.604 43.534 36.604 42.67C36.604 41.932 36.46 41.104 35.812 40.42C35.218 39.808 34.48 39.61 34.264 39.556C34.534 39.43 34.894 39.196 35.164 38.728C35.452 38.26 35.524 37.774 35.524 37.306C35.524 36.316 35.218 35.542 34.57 34.93C33.778 34.192 32.806 33.994 31.258 33.994H29.44ZM31.276 35.722H31.906C32.428 35.722 32.95 35.776 33.364 36.172C33.742 36.532 33.796 36.964 33.796 37.324C33.796 37.738 33.742 38.296 33.328 38.692C32.896 39.106 32.284 39.16 31.834 39.16H31.276V35.722ZM31.276 40.672H32.428C33.076 40.672 33.814 40.726 34.318 41.212C34.624 41.518 34.804 41.986 34.804 42.472C34.804 43.012 34.57 43.516 34.21 43.804C33.742 44.182 32.914 44.272 32.392 44.272H31.276V40.672ZM46.2586 33.994H39.6346V46H46.2586V44.272H41.4706V40.492H46.1146V38.764H41.4706V35.722H46.2586V33.994ZM51.1906 33.994H49.3546V46H51.1906V40.474H56.3386V46H58.1746V33.994H56.3386V38.746H51.1906V33.994ZM70.0976 46H72.0776L66.3896 33.292L60.4136 46H62.3936L63.7076 43.102H68.8376L70.0976 46ZM64.4636 41.374L66.3176 37.306L68.0996 41.374H64.4636ZM72.12 33.994L77.448 46.774L82.776 33.994H80.796L77.448 42.364L74.1 33.994H72.12ZM85.0009 33.994V46H86.8369V33.994H85.0009ZM96.1019 33.778C92.5019 33.778 89.8559 36.478 89.8559 40.006C89.8559 43.534 92.5019 46.234 96.1019 46.234C99.7019 46.234 102.348 43.534 102.348 40.006C102.348 36.478 99.7019 33.778 96.1019 33.778ZM96.1019 44.542C93.5279 44.542 91.6919 42.67 91.6919 40.006C91.6919 37.342 93.5279 35.47 96.1019 35.47C98.6759 35.47 100.512 37.342 100.512 40.006C100.512 42.67 98.6759 44.542 96.1019 44.542ZM105.373 33.994V46H107.209V41.086H107.533L110.971 46H113.185L109.441 40.87C111.043 40.51 112.105 39.25 112.105 37.522C112.105 37 111.997 35.578 110.683 34.696C109.909 34.174 108.973 33.994 107.515 33.994H105.373ZM107.209 35.686H107.839C108.739 35.686 110.341 35.848 110.341 37.54C110.341 39.448 108.289 39.502 107.785 39.502H107.209V35.686ZM28.972 96.148H33.364V94.78H28.972V96.148ZM40.2903 100H43.5303C47.8503 100 50.8563 97.84 50.8563 93.808C50.8563 89.542 47.4723 87.994 44.2143 87.994H40.2903V100ZM42.1443 98.452V89.542H43.9623C47.2203 89.542 48.8943 91.288 48.8943 93.952C48.8943 96.454 47.4003 98.452 43.3503 98.452H42.1443ZM53.7147 89.92C54.3627 89.92 54.8487 89.452 54.8487 88.822C54.8487 88.192 54.3627 87.724 53.7147 87.724C53.0847 87.724 52.5987 88.192 52.5987 88.822C52.5987 89.452 53.0847 89.92 53.7147 89.92ZM52.8147 100H54.5967V91.864H52.8147V100ZM57.0849 98.56C57.0849 99.118 57.6069 99.442 58.4169 99.712C57.5529 100.162 56.3469 100.936 56.3469 102.124C56.3469 103.546 58.1109 104.266 59.9109 104.266C62.3589 104.266 64.3569 102.88 64.3569 101.242C64.3569 99.748 62.7189 99.298 61.2789 98.938C59.5869 98.524 58.7949 98.362 58.7949 98.038C58.7949 97.84 59.0829 97.624 59.4609 97.372C59.6409 97.408 59.8389 97.408 60.0549 97.408C61.8009 97.408 63.6549 96.454 63.6549 94.672C63.6549 93.952 63.3129 93.466 63.0609 93.178C63.2769 93.214 63.5289 93.232 63.7269 93.232H64.6989L64.5729 91.81C64.5729 91.81 64.0329 91.99 63.4929 91.99H62.5569C61.6569 91.99 61.1889 91.648 60.1989 91.648C58.3809 91.648 56.7429 92.674 56.7429 94.492C56.7429 95.59 57.3369 96.544 58.3629 97.048C57.6969 97.426 57.0849 97.966 57.0849 98.56ZM60.2529 100.18C61.7649 100.576 62.6109 100.81 62.6109 101.512C62.6109 102.322 61.4589 102.97 60.0189 102.97C58.9929 102.97 57.9489 102.646 57.9489 101.836C57.9489 101.026 58.9389 100.486 59.7129 100.054C59.8929 100.09 60.0729 100.126 60.2529 100.18ZM60.1809 96.148C59.0289 96.148 58.4889 95.32 58.4889 94.546C58.4889 93.7 59.1009 92.908 60.1809 92.908C61.3329 92.908 61.8909 93.844 61.8909 94.636C61.8909 95.554 61.1709 96.148 60.1809 96.148ZM67.1444 89.92C67.7924 89.92 68.2784 89.452 68.2784 88.822C68.2784 88.192 67.7924 87.724 67.1444 87.724C66.5144 87.724 66.0284 88.192 66.0284 88.822C66.0284 89.452 66.5144 89.92 67.1444 89.92ZM66.2444 100H68.0264V91.864H66.2444V100ZM71.0006 97.786C71.0006 99.46 71.9186 100.216 73.3226 100.216C74.7626 100.216 75.8246 99.352 75.8246 99.352L75.3746 98.002C75.1586 98.128 74.4026 98.722 73.7186 98.722C73.1246 98.722 72.7826 98.326 72.7826 97.336V93.214H75.3566V91.864H72.7826V89.56L71.0366 89.938V91.792L69.7946 92.242V93.214H71.0006V97.786ZM76.6873 98.128C76.6873 99.334 77.6053 100.216 79.0273 100.216C80.6113 100.216 81.4393 99.208 81.6553 98.866C81.8893 99.514 82.4113 100.036 83.6533 100.126L84.1933 98.722C84.1933 98.722 83.2933 98.704 83.2933 97.696V94.258C83.2933 92.44 82.6813 91.648 80.7553 91.648C78.6133 91.648 77.2273 92.674 77.2273 92.674L77.6953 94.006C77.6953 94.006 78.9373 93.07 80.2693 93.07C81.5833 93.07 81.5113 93.97 81.5113 94.996C78.4693 95.392 76.6873 96.418 76.6873 98.128ZM79.4773 98.812C78.9553 98.812 78.5233 98.578 78.5233 98.002C78.5233 97.048 79.4413 96.454 81.5113 96.148V97.552C80.9713 98.182 80.3053 98.812 79.4773 98.812ZM85.9846 100H87.7666V87.13L85.9846 87.418V100ZM90.3088 100H92.0908V87.13L90.3088 87.418V100ZM93.661 102.844L94.219 104.266C96.127 104.05 97.315 102.34 98.017 100.612L101.545 91.864H99.709L97.603 97.444L95.461 91.864H93.571L96.721 99.586L96.289 100.558C95.803 101.692 94.849 102.646 93.661 102.844ZM106.748 99.496C106.748 99.496 107.756 100.216 109.448 100.216C111.446 100.216 112.616 99.226 112.616 97.75C112.616 95.158 108.71 95.284 108.71 93.862C108.71 93.394 109.106 93.052 110.006 93.052C111.05 93.052 111.986 93.556 111.986 93.556L112.4 92.098C112.4 92.098 111.5 91.648 110.078 91.648C107.828 91.648 106.928 92.746 106.928 94.006C106.928 96.562 110.834 96.454 110.834 97.912C110.834 98.434 110.384 98.812 109.43 98.812C108.116 98.812 107.126 97.984 107.126 97.984L106.748 99.496ZM113.883 98.128C113.883 99.334 114.801 100.216 116.223 100.216C117.807 100.216 118.635 99.208 118.851 98.866C119.085 99.514 119.607 100.036 120.849 100.126L121.389 98.722C121.389 98.722 120.489 98.704 120.489 97.696V94.258C120.489 92.44 119.877 91.648 117.951 91.648C115.809 91.648 114.423 92.674 114.423 92.674L114.891 94.006C114.891 94.006 116.133 93.07 117.465 93.07C118.779 93.07 118.707 93.97 118.707 94.996C115.665 95.392 113.883 96.418 113.883 98.128ZM116.673 98.812C116.151 98.812 115.719 98.578 115.719 98.002C115.719 97.048 116.637 96.454 118.707 96.148V97.552C118.167 98.182 117.501 98.812 116.673 98.812ZM125 100.072H126.656L130.004 91.864H128.186L125.9 97.768L123.92 91.864H122.048L125 100.072ZM133.368 100.072H135.024L138.372 91.864H136.554L134.268 97.768L132.288 91.864H130.416L133.368 100.072ZM138.837 102.844L139.395 104.266C141.303 104.05 142.491 102.34 143.193 100.612L146.721 91.864H144.885L142.779 97.444L140.637 91.864H138.747L141.897 99.586L141.465 100.558C140.979 101.692 140.025 102.646 138.837 102.844ZM147.341 98.29C148.007 99.244 148.277 99.82 148.277 100.522C148.277 101.494 147.773 101.89 147.071 102.538L147.773 103.276C148.961 102.322 149.807 101.188 149.807 99.82C149.807 99.064 149.591 98.416 149.069 97.732L147.341 98.29ZM155.792 95.968C155.792 98.128 157.25 100.216 159.95 100.216C162.884 100.216 164.18 97.75 164.18 95.77C164.18 93.682 162.722 91.648 160.022 91.648C157.106 91.648 155.792 93.934 155.792 95.968ZM157.646 95.806C157.646 94.186 158.6 93.07 159.986 93.07C161.642 93.07 162.326 94.564 162.326 96.004C162.326 97.642 161.372 98.794 160.004 98.794C158.384 98.794 157.646 97.318 157.646 95.806ZM167.815 100.072H169.543L171.631 94.276L173.503 100.072H175.249L178.165 91.864H176.347L174.385 97.984L172.477 91.864H170.929L168.823 98.02L167.041 91.864H165.205L167.815 100.072ZM179.658 100H181.44V94.726C181.998 94.186 183.15 93.196 184.05 93.196C184.662 93.196 185.022 93.628 185.022 94.78V100H186.804V94.132C186.804 92.386 185.922 91.648 184.644 91.648C183.15 91.648 181.98 92.638 181.404 93.268V91.72L179.658 92.008V100ZM188.663 99.496C188.663 99.496 189.671 100.216 191.363 100.216C193.361 100.216 194.531 99.226 194.531 97.75C194.531 95.158 190.625 95.284 190.625 93.862C190.625 93.394 191.021 93.052 191.921 93.052C192.965 93.052 193.901 93.556 193.901 93.556L194.315 92.098C194.315 92.098 193.415 91.648 191.993 91.648C189.743 91.648 188.843 92.746 188.843 94.006C188.843 96.562 192.749 96.454 192.749 97.912C192.749 98.434 192.299 98.812 191.345 98.812C190.031 98.812 189.041 97.984 189.041 97.984L188.663 99.496ZM200.769 100H202.551V94.708C203.073 94.186 204.189 93.196 205.071 93.196C205.665 93.196 205.989 93.628 205.989 94.78V100H207.771V94.672C208.383 94.078 209.391 93.196 210.219 93.196C210.813 93.196 211.155 93.628 211.155 94.78V100H212.919V94.132C212.919 92.386 212.073 91.648 210.813 91.648C209.391 91.648 208.275 92.602 207.681 93.25C207.429 92.134 206.691 91.648 205.665 91.648C204.225 91.648 203.073 92.638 202.515 93.25V91.72L200.769 92.008V100ZM215.27 97.768C215.27 99.514 216.17 100.216 217.484 100.216C218.978 100.216 220.112 99.262 220.634 98.704C220.724 99.298 220.904 100.144 220.904 100.144L222.632 99.982C222.632 99.982 222.272 98.488 222.272 97.498V91.864H220.49V97.336C219.986 97.804 218.978 98.668 218.06 98.668C217.394 98.668 217.052 98.218 217.052 97.084V91.864H215.27V97.768ZM224.852 100H226.634V87.13L224.852 87.418V100ZM229.608 97.786C229.608 99.46 230.526 100.216 231.93 100.216C233.37 100.216 234.432 99.352 234.432 99.352L233.982 98.002C233.766 98.128 233.01 98.722 232.326 98.722C231.732 98.722 231.39 98.326 231.39 97.336V93.214H233.964V91.864H231.39V89.56L229.644 89.938V91.792L228.402 92.242V93.214H229.608V97.786ZM236.879 89.92C237.527 89.92 238.013 89.452 238.013 88.822C238.013 88.192 237.527 87.724 236.879 87.724C236.249 87.724 235.763 88.192 235.763 88.822C235.763 89.452 236.249 89.92 236.879 89.92ZM235.979 100H237.761V91.864H235.979V100ZM240.267 104.194L242.049 103.906V99.784C242.391 100.036 243.003 100.216 243.759 100.216C246.351 100.216 247.863 98.092 247.863 95.68C247.863 93.466 246.567 91.648 244.425 91.648C243.147 91.648 242.373 92.314 241.995 93.016V91.72L240.267 92.008V104.194ZM244.119 93.124C245.217 93.124 245.991 94.114 245.991 95.806C245.991 97.75 244.965 98.812 243.435 98.812C242.589 98.812 242.049 98.506 242.049 97.894V94.438C242.283 94.096 243.039 93.124 244.119 93.124ZM249.848 100H251.63V87.13L249.848 87.418V100ZM253.632 96.058C253.632 98.236 255.018 100.216 257.736 100.216C259.77 100.216 261.012 99.046 261.012 99.046L260.508 97.75C260.508 97.75 259.374 98.758 258.006 98.758C256.584 98.758 255.684 97.804 255.486 96.328L259.932 95.734L260.958 95.446C260.958 92.98 259.554 91.648 257.61 91.648C255.234 91.648 253.632 93.574 253.632 96.058ZM257.484 93.034C258.906 93.034 259.014 94.69 259.014 94.69L255.486 95.14C255.648 93.952 256.332 93.034 257.484 93.034ZM266.781 96.184C266.781 98.416 268.149 100.216 270.273 100.216C271.569 100.216 272.397 99.586 272.829 98.884C272.919 99.46 273.081 100.126 273.081 100.126L274.791 100C274.791 100 274.431 98.488 274.431 97.498V87.13L272.649 87.418V91.918C272.415 91.828 271.875 91.648 271.137 91.648C268.257 91.648 266.781 93.862 266.781 96.184ZM270.579 98.794C269.427 98.794 268.653 97.768 268.653 96.076C268.653 94.132 269.679 93.052 271.227 93.052C271.965 93.052 272.613 93.322 272.649 94.132V97.48C272.397 97.858 271.677 98.794 270.579 98.794ZM276.449 96.058C276.449 98.236 277.835 100.216 280.553 100.216C282.587 100.216 283.829 99.046 283.829 99.046L283.325 97.75C283.325 97.75 282.191 98.758 280.823 98.758C279.401 98.758 278.501 97.804 278.303 96.328L282.749 95.734L283.775 95.446C283.775 92.98 282.371 91.648 280.427 91.648C278.051 91.648 276.449 93.574 276.449 96.058ZM280.301 93.034C281.723 93.034 281.831 94.69 281.831 94.69L278.303 95.14C278.465 93.952 279.149 93.034 280.301 93.034ZM287.739 100.072H289.395L292.743 91.864H290.925L288.639 97.768L286.659 91.864H284.787L287.739 100.072ZM295.08 89.92C295.728 89.92 296.214 89.452 296.214 88.822C296.214 88.192 295.728 87.724 295.08 87.724C294.45 87.724 293.964 88.192 293.964 88.822C293.964 89.452 294.45 89.92 295.08 89.92ZM294.18 100H295.962V91.864H294.18V100ZM297.946 96.04C297.946 98.398 299.584 100.216 302.122 100.216C304.066 100.216 305.002 99.172 305.002 99.172L304.426 97.912C304.426 97.912 303.544 98.758 302.248 98.758C300.718 98.758 299.8 97.552 299.8 95.95C299.8 94.294 300.79 93.088 302.266 93.088C303.454 93.088 304.3 93.844 304.3 93.844L305.002 92.512C305.002 92.512 304.012 91.648 302.23 91.648C299.548 91.648 297.946 93.79 297.946 96.04ZM306.138 96.058C306.138 98.236 307.524 100.216 310.242 100.216C312.276 100.216 313.518 99.046 313.518 99.046L313.014 97.75C313.014 97.75 311.88 98.758 310.512 98.758C309.09 98.758 308.19 97.804 307.992 96.328L312.438 95.734L313.464 95.446C313.464 92.98 312.06 91.648 310.116 91.648C307.74 91.648 306.138 93.574 306.138 96.058ZM309.99 93.034C311.412 93.034 311.52 94.69 311.52 94.69L307.992 95.14C308.154 93.952 308.838 93.034 309.99 93.034ZM314.926 99.496C314.926 99.496 315.934 100.216 317.626 100.216C319.624 100.216 320.794 99.226 320.794 97.75C320.794 95.158 316.888 95.284 316.888 93.862C316.888 93.394 317.284 93.052 318.184 93.052C319.228 93.052 320.164 93.556 320.164 93.556L320.578 92.098C320.578 92.098 319.678 91.648 318.256 91.648C316.006 91.648 315.106 92.746 315.106 94.006C315.106 96.562 319.012 96.454 319.012 97.912C319.012 98.434 318.562 98.812 317.608 98.812C316.294 98.812 315.304 97.984 315.304 97.984L314.926 99.496ZM28.972 122.148H33.364V120.78H28.972V122.148ZM39.4623 120.024C39.4623 123.336 41.9283 126.216 45.7263 126.216C49.6503 126.216 52.2063 123.138 52.2063 119.772C52.2063 116.46 49.7583 113.778 45.8883 113.778C41.7663 113.778 39.4623 116.856 39.4623 120.024ZM41.4243 119.934C41.4243 117.63 42.9903 115.362 45.8343 115.362C48.6783 115.362 50.2443 117.594 50.2443 119.916C50.2443 122.256 48.6063 124.632 45.7803 124.632C42.9363 124.632 41.4243 122.166 41.4243 119.934ZM54.0782 123.768C54.0782 125.514 54.9782 126.216 56.2922 126.216C57.7862 126.216 58.9202 125.262 59.4422 124.704C59.5322 125.298 59.7122 126.144 59.7122 126.144L61.4402 125.982C61.4402 125.982 61.0802 124.488 61.0802 123.498V117.864H59.2982V123.336C58.7942 123.804 57.7862 124.668 56.8682 124.668C56.2022 124.668 55.8602 124.218 55.8602 123.084V117.864H54.0782V123.768ZM64.0924 123.786C64.0924 125.46 65.0104 126.216 66.4144 126.216C67.8544 126.216 68.9164 125.352 68.9164 125.352L68.4664 124.002C68.2504 124.128 67.4944 124.722 66.8104 124.722C66.2164 124.722 65.8744 124.326 65.8744 123.336V119.214H68.4484V117.864H65.8744V115.56L64.1284 115.938V117.792L62.8864 118.242V119.214H64.0924V123.786ZM69.8871 125.496C69.8871 125.496 70.8951 126.216 72.5871 126.216C74.5851 126.216 75.7551 125.226 75.7551 123.75C75.7551 121.158 71.8491 121.284 71.8491 119.862C71.8491 119.394 72.2451 119.052 73.1451 119.052C74.1891 119.052 75.1251 119.556 75.1251 119.556L75.5391 118.098C75.5391 118.098 74.6391 117.648 73.2171 117.648C70.9671 117.648 70.0671 118.746 70.0671 120.006C70.0671 122.562 73.9731 122.454 73.9731 123.912C73.9731 124.434 73.5231 124.812 72.5691 124.812C71.2551 124.812 70.2651 123.984 70.2651 123.984L69.8871 125.496ZM77.1473 121.968C77.1473 124.128 78.6053 126.216 81.3053 126.216C84.2393 126.216 85.5353 123.75 85.5353 121.77C85.5353 119.682 84.0773 117.648 81.3773 117.648C78.4613 117.648 77.1473 119.934 77.1473 121.968ZM79.0013 121.806C79.0013 120.186 79.9553 119.07 81.3413 119.07C82.9973 119.07 83.6813 120.564 83.6813 122.004C83.6813 123.642 82.7273 124.794 81.3593 124.794C79.7393 124.794 79.0013 123.318 79.0013 121.806ZM87.4063 123.768C87.4063 125.514 88.3063 126.216 89.6203 126.216C91.1143 126.216 92.2483 125.262 92.7703 124.704C92.8603 125.298 93.0403 126.144 93.0403 126.144L94.7683 125.982C94.7683 125.982 94.4083 124.488 94.4083 123.498V117.864H92.6263V123.336C92.1223 123.804 91.1143 124.668 90.1963 124.668C89.5303 124.668 89.1883 124.218 89.1883 123.084V117.864H87.4063V123.768ZM96.9525 126H98.7345V120.96C99.0765 120.42 99.8145 119.448 100.715 119.448C101.075 119.448 101.435 119.592 101.435 119.592L101.795 117.792C101.795 117.792 101.543 117.648 101.093 117.648C99.8505 117.648 99.0225 118.8 98.6985 119.358V117.72L96.9525 118.008V126ZM102.53 122.04C102.53 124.398 104.168 126.216 106.706 126.216C108.65 126.216 109.586 125.172 109.586 125.172L109.01 123.912C109.01 123.912 108.128 124.758 106.832 124.758C105.302 124.758 104.384 123.552 104.384 121.95C104.384 120.294 105.374 119.088 106.85 119.088C108.038 119.088 108.884 119.844 108.884 119.844L109.586 118.512C109.586 118.512 108.596 117.648 106.814 117.648C104.132 117.648 102.53 119.79 102.53 122.04ZM110.722 122.058C110.722 124.236 112.108 126.216 114.826 126.216C116.86 126.216 118.102 125.046 118.102 125.046L117.598 123.75C117.598 123.75 116.464 124.758 115.096 124.758C113.674 124.758 112.774 123.804 112.576 122.328L117.022 121.734L118.048 121.446C118.048 118.98 116.644 117.648 114.7 117.648C112.324 117.648 110.722 119.574 110.722 122.058ZM114.574 119.034C115.996 119.034 116.104 120.69 116.104 120.69L112.576 121.14C112.738 119.952 113.422 119.034 114.574 119.034ZM119.51 125.496C119.51 125.496 120.518 126.216 122.21 126.216C124.208 126.216 125.378 125.226 125.378 123.75C125.378 121.158 121.472 121.284 121.472 119.862C121.472 119.394 121.868 119.052 122.768 119.052C123.812 119.052 124.748 119.556 124.748 119.556L125.162 118.098C125.162 118.098 124.262 117.648 122.84 117.648C120.59 117.648 119.69 118.746 119.69 120.006C119.69 122.562 123.596 122.454 123.596 123.912C123.596 124.434 123.146 124.812 122.192 124.812C120.878 124.812 119.888 123.984 119.888 123.984L119.51 125.496ZM131.617 126H133.399V120.708C133.921 120.186 135.037 119.196 135.919 119.196C136.513 119.196 136.837 119.628 136.837 120.78V126H138.619V120.672C139.231 120.078 140.239 119.196 141.067 119.196C141.661 119.196 142.003 119.628 142.003 120.78V126H143.767V120.132C143.767 118.386 142.921 117.648 141.661 117.648C140.239 117.648 139.123 118.602 138.529 119.25C138.277 118.134 137.539 117.648 136.513 117.648C135.073 117.648 133.921 118.638 133.363 119.25V117.72L131.617 118.008V126ZM146.117 123.768C146.117 125.514 147.017 126.216 148.331 126.216C149.825 126.216 150.959 125.262 151.481 124.704C151.571 125.298 151.751 126.144 151.751 126.144L153.479 125.982C153.479 125.982 153.119 124.488 153.119 123.498V117.864H151.337V123.336C150.833 123.804 149.825 124.668 148.907 124.668C148.241 124.668 147.899 124.218 147.899 123.084V117.864H146.117V123.768ZM155.123 125.496C155.123 125.496 156.131 126.216 157.823 126.216C159.821 126.216 160.991 125.226 160.991 123.75C160.991 121.158 157.085 121.284 157.085 119.862C157.085 119.394 157.481 119.052 158.381 119.052C159.425 119.052 160.361 119.556 160.361 119.556L160.775 118.098C160.775 118.098 159.875 117.648 158.453 117.648C156.203 117.648 155.303 118.746 155.303 120.006C155.303 122.562 159.209 122.454 159.209 123.912C159.209 124.434 158.759 124.812 157.805 124.812C156.491 124.812 155.501 123.984 155.501 123.984L155.123 125.496ZM163.842 115.92C164.49 115.92 164.976 115.452 164.976 114.822C164.976 114.192 164.49 113.724 163.842 113.724C163.212 113.724 162.726 114.192 162.726 114.822C162.726 115.452 163.212 115.92 163.842 115.92ZM162.942 126H164.724V117.864H162.942V126ZM166.708 122.04C166.708 124.398 168.346 126.216 170.884 126.216C172.828 126.216 173.764 125.172 173.764 125.172L173.188 123.912C173.188 123.912 172.306 124.758 171.01 124.758C169.48 124.758 168.562 123.552 168.562 121.95C168.562 120.294 169.552 119.088 171.028 119.088C172.216 119.088 173.062 119.844 173.062 119.844L173.764 118.512C173.764 118.512 172.774 117.648 170.992 117.648C168.31 117.648 166.708 119.79 166.708 122.04ZM179.347 122.184C179.347 124.416 180.715 126.216 182.839 126.216C184.135 126.216 184.963 125.586 185.395 124.884C185.485 125.46 185.647 126.126 185.647 126.126L187.357 126C187.357 126 186.997 124.488 186.997 123.498V113.13L185.215 113.418V117.918C184.981 117.828 184.441 117.648 183.703 117.648C180.823 117.648 179.347 119.862 179.347 122.184ZM183.145 124.794C181.993 124.794 181.219 123.768 181.219 122.076C181.219 120.132 182.245 119.052 183.793 119.052C184.531 119.052 185.179 119.322 185.215 120.132V123.48C184.963 123.858 184.243 124.794 183.145 124.794ZM190.455 115.92C191.103 115.92 191.589 115.452 191.589 114.822C191.589 114.192 191.103 113.724 190.455 113.724C189.825 113.724 189.339 114.192 189.339 114.822C189.339 115.452 189.825 115.92 190.455 115.92ZM189.555 126H191.337V117.864H189.555V126ZM193.303 125.496C193.303 125.496 194.311 126.216 196.003 126.216C198.001 126.216 199.171 125.226 199.171 123.75C199.171 121.158 195.265 121.284 195.265 119.862C195.265 119.394 195.661 119.052 196.561 119.052C197.605 119.052 198.541 119.556 198.541 119.556L198.955 118.098C198.955 118.098 198.055 117.648 196.633 117.648C194.383 117.648 193.483 118.746 193.483 120.006C193.483 122.562 197.389 122.454 197.389 123.912C197.389 124.434 196.939 124.812 195.985 124.812C194.671 124.812 193.681 123.984 193.681 123.984L193.303 125.496ZM200.563 122.04C200.563 124.398 202.201 126.216 204.739 126.216C206.683 126.216 207.619 125.172 207.619 125.172L207.043 123.912C207.043 123.912 206.161 124.758 204.865 124.758C203.335 124.758 202.417 123.552 202.417 121.95C202.417 120.294 203.407 119.088 204.883 119.088C206.071 119.088 206.917 119.844 206.917 119.844L207.619 118.512C207.619 118.512 206.629 117.648 204.847 117.648C202.165 117.648 200.563 119.79 200.563 122.04ZM208.72 121.968C208.72 124.128 210.178 126.216 212.878 126.216C215.812 126.216 217.108 123.75 217.108 121.77C217.108 119.682 215.65 117.648 212.95 117.648C210.034 117.648 208.72 119.934 208.72 121.968ZM210.574 121.806C210.574 120.186 211.528 119.07 212.914 119.07C214.57 119.07 215.254 120.564 215.254 122.004C215.254 123.642 214.3 124.794 212.932 124.794C211.312 124.794 210.574 123.318 210.574 121.806ZM220.995 126.072H222.651L225.999 117.864H224.181L221.895 123.768L219.915 117.864H218.043L220.995 126.072ZM226.825 122.058C226.825 124.236 228.211 126.216 230.929 126.216C232.963 126.216 234.205 125.046 234.205 125.046L233.701 123.75C233.701 123.75 232.567 124.758 231.199 124.758C229.777 124.758 228.877 123.804 228.679 122.328L233.125 121.734L234.151 121.446C234.151 118.98 232.747 117.648 230.803 117.648C228.427 117.648 226.825 119.574 226.825 122.058ZM230.677 119.034C232.099 119.034 232.207 120.69 232.207 120.69L228.679 121.14C228.841 119.952 229.525 119.034 230.677 119.034ZM236.154 126H237.936V120.96C238.278 120.42 239.016 119.448 239.916 119.448C240.276 119.448 240.636 119.592 240.636 119.592L240.996 117.792C240.996 117.792 240.744 117.648 240.294 117.648C239.052 117.648 238.224 118.8 237.9 119.358V117.72L236.154 118.008V126ZM241.476 128.844L242.034 130.266C243.942 130.05 245.13 128.34 245.832 126.612L249.36 117.864H247.524L245.418 123.444L243.276 117.864H241.386L244.536 125.586L244.104 126.558C243.618 127.692 242.664 128.646 241.476 128.844ZM255.571 123.786C255.571 125.46 256.489 126.216 257.893 126.216C259.333 126.216 260.395 125.352 260.395 125.352L259.945 124.002C259.729 124.128 258.973 124.722 258.289 124.722C257.695 124.722 257.353 124.326 257.353 123.336V119.214H259.927V117.864H257.353V115.56L255.607 115.938V117.792L254.365 118.242V119.214H255.571V123.786ZM261.384 121.968C261.384 124.128 262.842 126.216 265.542 126.216C268.476 126.216 269.772 123.75 269.772 121.77C269.772 119.682 268.314 117.648 265.614 117.648C262.698 117.648 261.384 119.934 261.384 121.968ZM263.238 121.806C263.238 120.186 264.192 119.07 265.578 119.07C267.234 119.07 267.918 120.564 267.918 122.004C267.918 123.642 266.964 124.794 265.596 124.794C263.976 124.794 263.238 123.318 263.238 121.806ZM275.373 124.128C275.373 125.334 276.291 126.216 277.713 126.216C279.297 126.216 280.125 125.208 280.341 124.866C280.575 125.514 281.097 126.036 282.339 126.126L282.879 124.722C282.879 124.722 281.979 124.704 281.979 123.696V120.258C281.979 118.44 281.367 117.648 279.441 117.648C277.299 117.648 275.913 118.674 275.913 118.674L276.381 120.006C276.381 120.006 277.623 119.07 278.955 119.07C280.269 119.07 280.197 119.97 280.197 120.996C277.155 121.392 275.373 122.418 275.373 124.128ZM278.163 124.812C277.641 124.812 277.209 124.578 277.209 124.002C277.209 123.048 278.127 122.454 280.197 122.148V123.552C279.657 124.182 278.991 124.812 278.163 124.812ZM284.634 126H286.416V120.726C286.974 120.186 288.126 119.196 289.026 119.196C289.638 119.196 289.998 119.628 289.998 120.78V126H291.78V120.132C291.78 118.386 290.898 117.648 289.62 117.648C288.126 117.648 286.956 118.638 286.38 119.268V117.72L284.634 118.008V126ZM297.855 124.128C297.855 125.334 298.773 126.216 300.195 126.216C301.779 126.216 302.607 125.208 302.823 124.866C303.057 125.514 303.579 126.036 304.821 126.126L305.361 124.722C305.361 124.722 304.461 124.704 304.461 123.696V120.258C304.461 118.44 303.849 117.648 301.923 117.648C299.781 117.648 298.395 118.674 298.395 118.674L298.863 120.006C298.863 120.006 300.105 119.07 301.437 119.07C302.751 119.07 302.679 119.97 302.679 120.996C299.637 121.392 297.855 122.418 297.855 124.128ZM300.645 124.812C300.123 124.812 299.691 124.578 299.691 124.002C299.691 123.048 300.609 122.454 302.679 122.148V123.552C302.139 124.182 301.473 124.812 300.645 124.812ZM307.153 126H308.935V113.13L307.153 113.418V126ZM311.423 124.56C311.423 125.118 311.945 125.442 312.755 125.712C311.891 126.162 310.685 126.936 310.685 128.124C310.685 129.546 312.449 130.266 314.249 130.266C316.697 130.266 318.695 128.88 318.695 127.242C318.695 125.748 317.057 125.298 315.617 124.938C313.925 124.524 313.133 124.362 313.133 124.038C313.133 123.84 313.421 123.624 313.799 123.372C313.979 123.408 314.177 123.408 314.393 123.408C316.139 123.408 317.993 122.454 317.993 120.672C317.993 119.952 317.651 119.466 317.399 119.178C317.615 119.214 317.867 119.232 318.065 119.232H319.037L318.911 117.81C318.911 117.81 318.371 117.99 317.831 117.99H316.895C315.995 117.99 315.527 117.648 314.537 117.648C312.719 117.648 311.081 118.674 311.081 120.492C311.081 121.59 311.675 122.544 312.701 123.048C312.035 123.426 311.423 123.966 311.423 124.56ZM314.591 126.18C316.103 126.576 316.949 126.81 316.949 127.512C316.949 128.322 315.797 128.97 314.357 128.97C313.331 128.97 312.287 128.646 312.287 127.836C312.287 127.026 313.277 126.486 314.051 126.054C314.231 126.09 314.411 126.126 314.591 126.18ZM314.519 122.148C313.367 122.148 312.827 121.32 312.827 120.546C312.827 119.7 313.439 118.908 314.519 118.908C315.671 118.908 316.229 119.844 316.229 120.636C316.229 121.554 315.509 122.148 314.519 122.148ZM320.024 121.968C320.024 124.128 321.482 126.216 324.182 126.216C327.116 126.216 328.412 123.75 328.412 121.77C328.412 119.682 326.954 117.648 324.254 117.648C321.338 117.648 320.024 119.934 320.024 121.968ZM321.878 121.806C321.878 120.186 322.832 119.07 324.218 119.07C325.874 119.07 326.558 120.564 326.558 122.004C326.558 123.642 325.604 124.794 324.236 124.794C322.616 124.794 321.878 123.318 321.878 121.806ZM330.337 126H332.119V120.96C332.461 120.42 333.199 119.448 334.099 119.448C334.459 119.448 334.819 119.592 334.819 119.592L335.179 117.792C335.179 117.792 334.927 117.648 334.477 117.648C333.235 117.648 332.407 118.8 332.083 119.358V117.72L330.337 118.008V126ZM337.531 115.92C338.179 115.92 338.665 115.452 338.665 114.822C338.665 114.192 338.179 113.724 337.531 113.724C336.901 113.724 336.415 114.192 336.415 114.822C336.415 115.452 336.901 115.92 337.531 115.92ZM336.631 126H338.413V117.864H336.631V126ZM341.387 123.786C341.387 125.46 342.305 126.216 343.709 126.216C345.149 126.216 346.211 125.352 346.211 125.352L345.761 124.002C345.545 124.128 344.789 124.722 344.105 124.722C343.511 124.722 343.169 124.326 343.169 123.336V119.214H345.743V117.864H343.169V115.56L341.423 115.938V117.792L340.181 118.242V119.214H341.387V123.786ZM347.758 126H349.54V120.762C350.08 120.222 351.25 119.196 352.15 119.196C352.762 119.196 353.122 119.628 353.122 120.78V126H354.904V120.132C354.904 118.386 354.022 117.648 352.726 117.648C351.232 117.648 350.08 118.656 349.54 119.232V113.13L347.758 113.418V126ZM357.302 126H359.084V120.708C359.606 120.186 360.722 119.196 361.604 119.196C362.198 119.196 362.522 119.628 362.522 120.78V126H364.304V120.672C364.916 120.078 365.924 119.196 366.752 119.196C367.346 119.196 367.688 119.628 367.688 120.78V126H369.452V120.132C369.452 118.386 368.606 117.648 367.346 117.648C365.924 117.648 364.808 118.602 364.214 119.25C363.962 118.134 363.224 117.648 362.198 117.648C360.758 117.648 359.606 118.638 359.048 119.25V117.72L357.302 118.008V126ZM28.972 147.148H33.364V145.78H28.972V147.148ZM39.4443 150.208C39.4443 150.208 40.8843 151.216 43.0083 151.216C45.2223 151.216 47.0583 150.046 47.0583 147.904C47.0583 144.106 41.5143 144.358 41.5143 141.856C41.5143 140.902 42.4503 140.398 43.6383 140.398C45.0603 140.398 46.4283 141.01 46.4283 141.01L46.8063 139.318C46.8063 139.318 45.2763 138.778 43.6563 138.778C41.1003 138.778 39.6423 140.254 39.6423 142.054C39.6423 145.69 45.1863 145.582 45.1863 148.048C45.1863 149.056 44.1783 149.596 43.0263 149.596C41.2983 149.596 39.9663 148.516 39.9663 148.516L39.4443 150.208ZM48.9642 155.194L50.7462 154.906V150.784C51.0882 151.036 51.7002 151.216 52.4562 151.216C55.0482 151.216 56.5602 149.092 56.5602 146.68C56.5602 144.466 55.2642 142.648 53.1222 142.648C51.8442 142.648 51.0702 143.314 50.6922 144.016V142.72L48.9642 143.008V155.194ZM52.8162 144.124C53.9142 144.124 54.6882 145.114 54.6882 146.806C54.6882 148.75 53.6622 149.812 52.1322 149.812C51.2862 149.812 50.7462 149.506 50.7462 148.894V145.438C50.9802 145.096 51.7362 144.124 52.8162 144.124ZM58.0052 147.058C58.0052 149.236 59.3912 151.216 62.1092 151.216C64.1432 151.216 65.3852 150.046 65.3852 150.046L64.8812 148.75C64.8812 148.75 63.7472 149.758 62.3792 149.758C60.9572 149.758 60.0572 148.804 59.8592 147.328L64.3052 146.734L65.3312 146.446C65.3312 143.98 63.9272 142.648 61.9832 142.648C59.6072 142.648 58.0052 144.574 58.0052 147.058ZM61.8572 144.034C63.2792 144.034 63.3872 145.69 63.3872 145.69L59.8592 146.14C60.0212 144.952 60.7052 144.034 61.8572 144.034ZM67.3334 151H69.1154V145.726C69.6734 145.186 70.8254 144.196 71.7254 144.196C72.3374 144.196 72.6974 144.628 72.6974 145.78V151H74.4794V145.132C74.4794 143.386 73.5974 142.648 72.3194 142.648C70.8254 142.648 69.6554 143.638 69.0794 144.268V142.72L67.3334 143.008V151ZM76.3743 147.184C76.3743 149.416 77.7423 151.216 79.8663 151.216C81.1623 151.216 81.9903 150.586 82.4223 149.884C82.5123 150.46 82.6743 151.126 82.6743 151.126L84.3843 151C84.3843 151 84.0243 149.488 84.0243 148.498V138.13L82.2423 138.418V142.918C82.0083 142.828 81.4683 142.648 80.7303 142.648C77.8503 142.648 76.3743 144.862 76.3743 147.184ZM80.1723 149.794C79.0203 149.794 78.2463 148.768 78.2463 147.076C78.2463 145.132 79.2723 144.052 80.8203 144.052C81.5583 144.052 82.2063 144.322 82.2423 145.132V148.48C81.9903 148.858 81.2703 149.794 80.1723 149.794ZM86.0063 150.496C86.0063 150.496 87.0143 151.216 88.7063 151.216C90.7043 151.216 91.8743 150.226 91.8743 148.75C91.8743 146.158 87.9683 146.284 87.9683 144.862C87.9683 144.394 88.3643 144.052 89.2643 144.052C90.3083 144.052 91.2443 144.556 91.2443 144.556L91.6583 143.098C91.6583 143.098 90.7583 142.648 89.3363 142.648C87.0863 142.648 86.1863 143.746 86.1863 145.006C86.1863 147.562 90.0923 147.454 90.0923 148.912C90.0923 149.434 89.6423 149.812 88.6883 149.812C87.3743 149.812 86.3843 148.984 86.3843 148.984L86.0063 150.496ZM98.1487 151H99.9307V138.13L98.1487 138.418V151ZM101.789 149.128C101.789 150.334 102.707 151.216 104.129 151.216C105.713 151.216 106.541 150.208 106.757 149.866C106.991 150.514 107.513 151.036 108.755 151.126L109.295 149.722C109.295 149.722 108.395 149.704 108.395 148.696V145.258C108.395 143.44 107.783 142.648 105.857 142.648C103.715 142.648 102.329 143.674 102.329 143.674L102.797 145.006C102.797 145.006 104.039 144.07 105.371 144.07C106.685 144.07 106.613 144.97 106.613 145.996C103.571 146.392 101.789 147.418 101.789 149.128ZM104.579 149.812C104.057 149.812 103.625 149.578 103.625 149.002C103.625 148.048 104.543 147.454 106.613 147.148V148.552C106.073 149.182 105.407 149.812 104.579 149.812ZM111.05 151H112.832V145.96C113.174 145.42 113.912 144.448 114.812 144.448C115.172 144.448 115.532 144.592 115.532 144.592L115.892 142.792C115.892 142.792 115.64 142.648 115.19 142.648C113.948 142.648 113.12 143.8 112.796 144.358V142.72L111.05 143.008V151ZM117.29 149.56C117.29 150.118 117.812 150.442 118.622 150.712C117.758 151.162 116.552 151.936 116.552 153.124C116.552 154.546 118.316 155.266 120.116 155.266C122.564 155.266 124.562 153.88 124.562 152.242C124.562 150.748 122.924 150.298 121.484 149.938C119.792 149.524 119 149.362 119 149.038C119 148.84 119.288 148.624 119.666 148.372C119.846 148.408 120.044 148.408 120.26 148.408C122.006 148.408 123.86 147.454 123.86 145.672C123.86 144.952 123.518 144.466 123.266 144.178C123.482 144.214 123.734 144.232 123.932 144.232H124.904L124.778 142.81C124.778 142.81 124.238 142.99 123.698 142.99H122.762C121.862 142.99 121.394 142.648 120.404 142.648C118.586 142.648 116.948 143.674 116.948 145.492C116.948 146.59 117.542 147.544 118.568 148.048C117.902 148.426 117.29 148.966 117.29 149.56ZM120.458 151.18C121.97 151.576 122.816 151.81 122.816 152.512C122.816 153.322 121.664 153.97 120.224 153.97C119.198 153.97 118.154 153.646 118.154 152.836C118.154 152.026 119.144 151.486 119.918 151.054C120.098 151.09 120.278 151.126 120.458 151.18ZM120.386 147.148C119.234 147.148 118.694 146.32 118.694 145.546C118.694 144.7 119.306 143.908 120.386 143.908C121.538 143.908 122.096 144.844 122.096 145.636C122.096 146.554 121.376 147.148 120.386 147.148ZM125.909 147.058C125.909 149.236 127.295 151.216 130.013 151.216C132.047 151.216 133.289 150.046 133.289 150.046L132.785 148.75C132.785 148.75 131.651 149.758 130.283 149.758C128.861 149.758 127.961 148.804 127.763 147.328L132.209 146.734L133.235 146.446C133.235 143.98 131.831 142.648 129.887 142.648C127.511 142.648 125.909 144.574 125.909 147.058ZM129.761 144.034C131.183 144.034 131.291 145.69 131.291 145.69L127.763 146.14C127.925 144.952 128.609 144.034 129.761 144.034ZM138.914 149.128C138.914 150.334 139.832 151.216 141.254 151.216C142.838 151.216 143.666 150.208 143.882 149.866C144.116 150.514 144.638 151.036 145.88 151.126L146.42 149.722C146.42 149.722 145.52 149.704 145.52 148.696V145.258C145.52 143.44 144.908 142.648 142.982 142.648C140.84 142.648 139.454 143.674 139.454 143.674L139.922 145.006C139.922 145.006 141.164 144.07 142.496 144.07C143.81 144.07 143.738 144.97 143.738 145.996C140.696 146.392 138.914 147.418 138.914 149.128ZM141.704 149.812C141.182 149.812 140.75 149.578 140.75 149.002C140.75 148.048 141.668 147.454 143.738 147.148V148.552C143.198 149.182 142.532 149.812 141.704 149.812ZM148.175 151H149.957V145.708C150.479 145.186 151.595 144.196 152.477 144.196C153.071 144.196 153.395 144.628 153.395 145.78V151H155.177V145.672C155.789 145.078 156.797 144.196 157.625 144.196C158.219 144.196 158.561 144.628 158.561 145.78V151H160.325V145.132C160.325 143.386 159.479 142.648 158.219 142.648C156.797 142.648 155.681 143.602 155.087 144.25C154.835 143.134 154.097 142.648 153.071 142.648C151.631 142.648 150.479 143.638 149.921 144.25V142.72L148.175 143.008V151ZM162.208 146.968C162.208 149.128 163.666 151.216 166.366 151.216C169.3 151.216 170.596 148.75 170.596 146.77C170.596 144.682 169.138 142.648 166.438 142.648C163.522 142.648 162.208 144.934 162.208 146.968ZM164.062 146.806C164.062 145.186 165.016 144.07 166.402 144.07C168.058 144.07 168.742 145.564 168.742 147.004C168.742 148.642 167.788 149.794 166.42 149.794C164.8 149.794 164.062 148.318 164.062 146.806ZM172.467 148.768C172.467 150.514 173.367 151.216 174.681 151.216C176.175 151.216 177.309 150.262 177.831 149.704C177.921 150.298 178.101 151.144 178.101 151.144L179.829 150.982C179.829 150.982 179.469 149.488 179.469 148.498V142.864H177.687V148.336C177.183 148.804 176.175 149.668 175.257 149.668C174.591 149.668 174.249 149.218 174.249 148.084V142.864H172.467V148.768ZM182.013 151H183.795V145.726C184.353 145.186 185.505 144.196 186.405 144.196C187.017 144.196 187.377 144.628 187.377 145.78V151H189.159V145.132C189.159 143.386 188.277 142.648 186.999 142.648C185.505 142.648 184.335 143.638 183.759 144.268V142.72L182.013 143.008V151ZM192.026 148.786C192.026 150.46 192.944 151.216 194.348 151.216C195.788 151.216 196.85 150.352 196.85 150.352L196.4 149.002C196.184 149.128 195.428 149.722 194.744 149.722C194.15 149.722 193.808 149.326 193.808 148.336V144.214H196.382V142.864H193.808V140.56L192.062 140.938V142.792L190.82 143.242V144.214H192.026V148.786ZM197.821 150.496C197.821 150.496 198.829 151.216 200.521 151.216C202.519 151.216 203.689 150.226 203.689 148.75C203.689 146.158 199.783 146.284 199.783 144.862C199.783 144.394 200.179 144.052 201.079 144.052C202.123 144.052 203.059 144.556 203.059 144.556L203.473 143.098C203.473 143.098 202.573 142.648 201.151 142.648C198.901 142.648 198.001 143.746 198.001 145.006C198.001 147.562 201.907 147.454 201.907 148.912C201.907 149.434 201.457 149.812 200.503 149.812C199.189 149.812 198.199 148.984 198.199 148.984L197.821 150.496ZM209.405 146.968C209.405 149.128 210.863 151.216 213.563 151.216C216.497 151.216 217.793 148.75 217.793 146.77C217.793 144.682 216.335 142.648 213.635 142.648C210.719 142.648 209.405 144.934 209.405 146.968ZM211.259 146.806C211.259 145.186 212.213 144.07 213.599 144.07C215.255 144.07 215.939 145.564 215.939 147.004C215.939 148.642 214.985 149.794 213.617 149.794C211.997 149.794 211.259 148.318 211.259 146.806ZM218.944 144.214H220.222V151H222.004V144.214H224.254V142.864H222.004V141.892C222.004 139.984 222.868 139.318 223.822 139.318C224.704 139.318 225.496 139.894 225.496 139.894L226.198 138.526C226.198 138.526 225.262 137.842 223.84 137.842C221.716 137.842 220.222 139.336 220.222 142V142.792L218.944 143.26V144.214ZM230.645 148.786C230.645 150.46 231.563 151.216 232.967 151.216C234.407 151.216 235.469 150.352 235.469 150.352L235.019 149.002C234.803 149.128 234.047 149.722 233.363 149.722C232.769 149.722 232.427 149.326 232.427 148.336V144.214H235.001V142.864H232.427V140.56L230.681 140.938V142.792L229.439 143.242V144.214H230.645V148.786ZM237.916 140.92C238.564 140.92 239.05 140.452 239.05 139.822C239.05 139.192 238.564 138.724 237.916 138.724C237.286 138.724 236.8 139.192 236.8 139.822C236.8 140.452 237.286 140.92 237.916 140.92ZM237.016 151H238.798V142.864H237.016V151ZM241.304 151H243.086V145.708C243.608 145.186 244.724 144.196 245.606 144.196C246.2 144.196 246.524 144.628 246.524 145.78V151H248.306V145.672C248.918 145.078 249.926 144.196 250.754 144.196C251.348 144.196 251.69 144.628 251.69 145.78V151H253.454V145.132C253.454 143.386 252.608 142.648 251.348 142.648C249.926 142.648 248.81 143.602 248.216 144.25C247.964 143.134 247.226 142.648 246.2 142.648C244.76 142.648 243.608 143.638 243.05 144.25V142.72L241.304 143.008V151ZM255.355 147.058C255.355 149.236 256.741 151.216 259.459 151.216C261.493 151.216 262.735 150.046 262.735 150.046L262.231 148.75C262.231 148.75 261.097 149.758 259.729 149.758C258.307 149.758 257.407 148.804 257.209 147.328L261.655 146.734L262.681 146.446C262.681 143.98 261.277 142.648 259.333 142.648C256.957 142.648 255.355 144.574 255.355 147.058ZM259.207 144.034C260.629 144.034 260.737 145.69 260.737 145.69L257.209 146.14C257.371 144.952 258.055 144.034 259.207 144.034ZM269.943 140.92C270.591 140.92 271.077 140.452 271.077 139.822C271.077 139.192 270.591 138.724 269.943 138.724C269.313 138.724 268.827 139.192 268.827 139.822C268.827 140.452 269.313 140.92 269.943 140.92ZM269.043 151H270.825V142.864H269.043V151ZM273.331 151H275.113V145.726C275.671 145.186 276.823 144.196 277.723 144.196C278.335 144.196 278.695 144.628 278.695 145.78V151H280.477V145.132C280.477 143.386 279.595 142.648 278.317 142.648C276.823 142.648 275.653 143.638 275.077 144.268V142.72L273.331 143.008V151ZM282.624 147.148H287.016V145.78H282.624V147.148ZM289.514 148.786C289.514 150.46 290.432 151.216 291.836 151.216C293.276 151.216 294.338 150.352 294.338 150.352L293.888 149.002C293.672 149.128 292.916 149.722 292.232 149.722C291.638 149.722 291.296 149.326 291.296 148.336V144.214H293.87V142.864H291.296V140.56L289.55 140.938V142.792L288.308 143.242V144.214H289.514V148.786ZM295.849 151H297.631V145.96C297.973 145.42 298.711 144.448 299.611 144.448C299.971 144.448 300.331 144.592 300.331 144.592L300.691 142.792C300.691 142.792 300.439 142.648 299.989 142.648C298.747 142.648 297.919 143.8 297.595 144.358V142.72L295.849 143.008V151ZM301.459 149.128C301.459 150.334 302.377 151.216 303.799 151.216C305.383 151.216 306.211 150.208 306.427 149.866C306.661 150.514 307.183 151.036 308.425 151.126L308.965 149.722C308.965 149.722 308.065 149.704 308.065 148.696V145.258C308.065 143.44 307.453 142.648 305.527 142.648C303.385 142.648 301.999 143.674 301.999 143.674L302.467 145.006C302.467 145.006 303.709 144.07 305.041 144.07C306.355 144.07 306.283 144.97 306.283 145.996C303.241 146.392 301.459 147.418 301.459 149.128ZM304.249 149.812C303.727 149.812 303.295 149.578 303.295 149.002C303.295 148.048 304.213 147.454 306.283 147.148V148.552C305.743 149.182 305.077 149.812 304.249 149.812ZM310.72 151H312.502V145.726C313.06 145.186 314.212 144.196 315.112 144.196C315.724 144.196 316.084 144.628 316.084 145.78V151H317.866V145.132C317.866 143.386 316.984 142.648 315.706 142.648C314.212 142.648 313.042 143.638 312.466 144.268V142.72L310.72 143.008V151ZM319.725 150.496C319.725 150.496 320.733 151.216 322.425 151.216C324.423 151.216 325.593 150.226 325.593 148.75C325.593 146.158 321.687 146.284 321.687 144.862C321.687 144.394 322.083 144.052 322.983 144.052C324.027 144.052 324.963 144.556 324.963 144.556L325.377 143.098C325.377 143.098 324.477 142.648 323.055 142.648C320.805 142.648 319.905 143.746 319.905 145.006C319.905 147.562 323.811 147.454 323.811 148.912C323.811 149.434 323.361 149.812 322.407 149.812C321.093 149.812 320.103 148.984 320.103 148.984L319.725 150.496ZM328.443 140.92C329.091 140.92 329.577 140.452 329.577 139.822C329.577 139.192 329.091 138.724 328.443 138.724C327.813 138.724 327.327 139.192 327.327 139.822C327.327 140.452 327.813 140.92 328.443 140.92ZM327.543 151H329.325V142.864H327.543V151ZM332.299 148.786C332.299 150.46 333.217 151.216 334.621 151.216C336.061 151.216 337.123 150.352 337.123 150.352L336.673 149.002C336.457 149.128 335.701 149.722 335.017 149.722C334.423 149.722 334.081 149.326 334.081 148.336V144.214H336.655V142.864H334.081V140.56L332.335 140.938V142.792L331.093 143.242V144.214H332.299V148.786ZM28.972 173.148H33.364V171.78H28.972V173.148ZM40.2903 177H47.7603V175.452H42.1443V164.994H40.2903V177ZM50.1991 166.92C50.8471 166.92 51.3331 166.452 51.3331 165.822C51.3331 165.192 50.8471 164.724 50.1991 164.724C49.5691 164.724 49.0831 165.192 49.0831 165.822C49.0831 166.452 49.5691 166.92 50.1991 166.92ZM49.2991 177H51.0811V168.864H49.2991V177ZM53.0473 176.496C53.0473 176.496 54.0553 177.216 55.7473 177.216C57.7453 177.216 58.9153 176.226 58.9153 174.75C58.9153 172.158 55.0093 172.284 55.0093 170.862C55.0093 170.394 55.4053 170.052 56.3053 170.052C57.3493 170.052 58.2853 170.556 58.2853 170.556L58.6993 169.098C58.6993 169.098 57.7993 168.648 56.3773 168.648C54.1273 168.648 53.2273 169.746 53.2273 171.006C53.2273 173.562 57.1333 173.454 57.1333 174.912C57.1333 175.434 56.6833 175.812 55.7293 175.812C54.4153 175.812 53.4253 174.984 53.4253 174.984L53.0473 176.496ZM61.2975 174.786C61.2975 176.46 62.2155 177.216 63.6195 177.216C65.0595 177.216 66.1215 176.352 66.1215 176.352L65.6715 175.002C65.4555 175.128 64.6995 175.722 64.0155 175.722C63.4215 175.722 63.0795 175.326 63.0795 174.336V170.214H65.6535V168.864H63.0795V166.56L61.3335 166.938V168.792L60.0915 169.242V170.214H61.2975V174.786ZM67.1282 173.058C67.1282 175.236 68.5142 177.216 71.2322 177.216C73.2662 177.216 74.5082 176.046 74.5082 176.046L74.0042 174.75C74.0042 174.75 72.8702 175.758 71.5022 175.758C70.0802 175.758 69.1802 174.804 68.9822 173.328L73.4282 172.734L74.4542 172.446C74.4542 169.98 73.0502 168.648 71.1062 168.648C68.7302 168.648 67.1282 170.574 67.1282 173.058ZM70.9802 170.034C72.4022 170.034 72.5102 171.69 72.5102 171.69L68.9822 172.14C69.1442 170.952 69.8282 170.034 70.9802 170.034ZM76.4564 177H78.2384V171.726C78.7964 171.186 79.9484 170.196 80.8484 170.196C81.4604 170.196 81.8204 170.628 81.8204 171.78V177H83.6024V171.132C83.6024 169.386 82.7204 168.648 81.4424 168.648C79.9484 168.648 78.7784 169.638 78.2024 170.268V168.72L76.4564 169.008V177ZM85.4613 176.496C85.4613 176.496 86.4693 177.216 88.1613 177.216C90.1593 177.216 91.3293 176.226 91.3293 174.75C91.3293 172.158 87.4233 172.284 87.4233 170.862C87.4233 170.394 87.8193 170.052 88.7193 170.052C89.7633 170.052 90.6993 170.556 90.6993 170.556L91.1133 169.098C91.1133 169.098 90.2133 168.648 88.7913 168.648C86.5413 168.648 85.6413 169.746 85.6413 171.006C85.6413 173.562 89.5473 173.454 89.5473 174.912C89.5473 175.434 89.0973 175.812 88.1433 175.812C86.8293 175.812 85.8393 174.984 85.8393 174.984L85.4613 176.496ZM98.0358 174.786C98.0358 176.46 98.9538 177.216 100.358 177.216C101.798 177.216 102.86 176.352 102.86 176.352L102.41 175.002C102.194 175.128 101.438 175.722 100.754 175.722C100.16 175.722 99.8178 175.326 99.8178 174.336V170.214H102.392V168.864H99.8178V166.56L98.0718 166.938V168.792L96.8298 169.242V170.214H98.0358V174.786ZM103.848 172.968C103.848 175.128 105.306 177.216 108.006 177.216C110.94 177.216 112.236 174.75 112.236 172.77C112.236 170.682 110.778 168.648 108.078 168.648C105.162 168.648 103.848 170.934 103.848 172.968ZM105.702 172.806C105.702 171.186 106.656 170.07 108.042 170.07C109.698 170.07 110.382 171.564 110.382 173.004C110.382 174.642 109.428 175.794 108.06 175.794C106.44 175.794 105.702 174.318 105.702 172.806ZM118.486 177H120.268V171.708C120.79 171.186 121.906 170.196 122.788 170.196C123.382 170.196 123.706 170.628 123.706 171.78V177H125.488V171.672C126.1 171.078 127.108 170.196 127.936 170.196C128.53 170.196 128.872 170.628 128.872 171.78V177H130.636V171.132C130.636 169.386 129.79 168.648 128.53 168.648C127.108 168.648 125.992 169.602 125.398 170.25C125.146 169.134 124.408 168.648 123.382 168.648C121.942 168.648 120.79 169.638 120.232 170.25V168.72L118.486 169.008V177ZM132.986 174.768C132.986 176.514 133.886 177.216 135.2 177.216C136.694 177.216 137.828 176.262 138.35 175.704C138.44 176.298 138.62 177.144 138.62 177.144L140.348 176.982C140.348 176.982 139.988 175.488 139.988 174.498V168.864H138.206V174.336C137.702 174.804 136.694 175.668 135.776 175.668C135.11 175.668 134.768 175.218 134.768 174.084V168.864H132.986V174.768ZM141.993 176.496C141.993 176.496 143.001 177.216 144.693 177.216C146.691 177.216 147.861 176.226 147.861 174.75C147.861 172.158 143.955 172.284 143.955 170.862C143.955 170.394 144.351 170.052 145.251 170.052C146.295 170.052 147.231 170.556 147.231 170.556L147.645 169.098C147.645 169.098 146.745 168.648 145.323 168.648C143.073 168.648 142.173 169.746 142.173 171.006C142.173 173.562 146.079 173.454 146.079 174.912C146.079 175.434 145.629 175.812 144.675 175.812C143.361 175.812 142.371 174.984 142.371 174.984L141.993 176.496ZM150.711 166.92C151.359 166.92 151.845 166.452 151.845 165.822C151.845 165.192 151.359 164.724 150.711 164.724C150.081 164.724 149.595 165.192 149.595 165.822C149.595 166.452 150.081 166.92 150.711 166.92ZM149.811 177H151.593V168.864H149.811V177ZM153.577 173.04C153.577 175.398 155.215 177.216 157.753 177.216C159.697 177.216 160.633 176.172 160.633 176.172L160.057 174.912C160.057 174.912 159.175 175.758 157.879 175.758C156.349 175.758 155.431 174.552 155.431 172.95C155.431 171.294 156.421 170.088 157.897 170.088C159.085 170.088 159.931 170.844 159.931 170.844L160.633 169.512C160.633 169.512 159.643 168.648 157.861 168.648C155.179 168.648 153.577 170.79 153.577 173.04ZM168.43 177.072H170.158L172.246 171.276L174.118 177.072H175.864L178.78 168.864H176.962L175 174.984L173.092 168.864H171.544L169.438 175.02L167.656 168.864H165.82L168.43 177.072ZM180.309 177H182.091V171.762C182.631 171.222 183.801 170.196 184.701 170.196C185.313 170.196 185.673 170.628 185.673 171.78V177H187.455V171.132C187.455 169.386 186.573 168.648 185.277 168.648C183.783 168.648 182.631 169.656 182.091 170.232V164.13L180.309 164.418V177ZM190.789 166.92C191.437 166.92 191.923 166.452 191.923 165.822C191.923 165.192 191.437 164.724 190.789 164.724C190.159 164.724 189.673 165.192 189.673 165.822C189.673 166.452 190.159 166.92 190.789 166.92ZM189.889 177H191.671V168.864H189.889V177ZM194.213 177H195.995V164.13L194.213 164.418V177ZM197.997 173.058C197.997 175.236 199.383 177.216 202.101 177.216C204.135 177.216 205.377 176.046 205.377 176.046L204.873 174.75C204.873 174.75 203.739 175.758 202.371 175.758C200.949 175.758 200.049 174.804 199.851 173.328L204.297 172.734L205.323 172.446C205.323 169.98 203.919 168.648 201.975 168.648C199.599 168.648 197.997 170.574 197.997 173.058ZM201.849 170.034C203.271 170.034 203.379 171.69 203.379 171.69L199.851 172.14C200.013 170.952 200.697 170.034 201.849 170.034ZM211.65 177H213.432V171.708C213.954 171.186 215.07 170.196 215.952 170.196C216.546 170.196 216.87 170.628 216.87 171.78V177H218.652V171.672C219.264 171.078 220.272 170.196 221.1 170.196C221.694 170.196 222.036 170.628 222.036 171.78V177H223.8V171.132C223.8 169.386 222.954 168.648 221.694 168.648C220.272 168.648 219.156 169.602 218.562 170.25C218.31 169.134 217.572 168.648 216.546 168.648C215.106 168.648 213.954 169.638 213.396 170.25V168.72L211.65 169.008V177ZM226.15 174.768C226.15 176.514 227.05 177.216 228.364 177.216C229.858 177.216 230.992 176.262 231.514 175.704C231.604 176.298 231.784 177.144 231.784 177.144L233.512 176.982C233.512 176.982 233.152 175.488 233.152 174.498V168.864H231.37V174.336C230.866 174.804 229.858 175.668 228.94 175.668C228.274 175.668 227.932 175.218 227.932 174.084V168.864H226.15V174.768ZM235.733 177H237.515V164.13L235.733 164.418V177ZM240.489 174.786C240.489 176.46 241.407 177.216 242.811 177.216C244.251 177.216 245.313 176.352 245.313 176.352L244.863 175.002C244.647 175.128 243.891 175.722 243.207 175.722C242.613 175.722 242.271 175.326 242.271 174.336V170.214H244.845V168.864H242.271V166.56L240.525 166.938V168.792L239.283 169.242V170.214H240.489V174.786ZM247.76 166.92C248.408 166.92 248.894 166.452 248.894 165.822C248.894 165.192 248.408 164.724 247.76 164.724C247.13 164.724 246.644 165.192 246.644 165.822C246.644 166.452 247.13 166.92 247.76 166.92ZM246.86 177H248.642V168.864H246.86V177ZM250.896 173.148H255.288V171.78H250.896V173.148ZM257.786 174.786C257.786 176.46 258.704 177.216 260.108 177.216C261.548 177.216 262.61 176.352 262.61 176.352L262.16 175.002C261.944 175.128 261.188 175.722 260.504 175.722C259.91 175.722 259.568 175.326 259.568 174.336V170.214H262.142V168.864H259.568V166.56L257.822 166.938V168.792L256.58 169.242V170.214H257.786V174.786ZM263.472 175.128C263.472 176.334 264.39 177.216 265.812 177.216C267.396 177.216 268.224 176.208 268.44 175.866C268.674 176.514 269.196 177.036 270.438 177.126L270.978 175.722C270.978 175.722 270.078 175.704 270.078 174.696V171.258C270.078 169.44 269.466 168.648 267.54 168.648C265.398 168.648 264.012 169.674 264.012 169.674L264.48 171.006C264.48 171.006 265.722 170.07 267.054 170.07C268.368 170.07 268.296 170.97 268.296 171.996C265.254 172.392 263.472 173.418 263.472 175.128ZM266.262 175.812C265.74 175.812 265.308 175.578 265.308 175.002C265.308 174.048 266.226 173.454 268.296 173.148V174.552C267.756 175.182 267.09 175.812 266.262 175.812ZM272.194 176.496C272.194 176.496 273.202 177.216 274.894 177.216C276.892 177.216 278.062 176.226 278.062 174.75C278.062 172.158 274.156 172.284 274.156 170.862C274.156 170.394 274.552 170.052 275.452 170.052C276.496 170.052 277.432 170.556 277.432 170.556L277.846 169.098C277.846 169.098 276.946 168.648 275.524 168.648C273.274 168.648 272.374 169.746 272.374 171.006C272.374 173.562 276.28 173.454 276.28 174.912C276.28 175.434 275.83 175.812 274.876 175.812C273.562 175.812 272.572 174.984 272.572 174.984L272.194 176.496ZM280.012 177H281.794V173.148H282.046L285.286 177H287.572L283.612 172.428L287.32 168.864H284.998L282.046 171.834H281.794V164.13L280.012 164.418V177ZM289.806 166.92C290.454 166.92 290.94 166.452 290.94 165.822C290.94 165.192 290.454 164.724 289.806 164.724C289.176 164.724 288.69 165.192 288.69 165.822C288.69 166.452 289.176 166.92 289.806 166.92ZM288.906 177H290.688V168.864H288.906V177ZM293.195 177H294.977V171.726C295.535 171.186 296.687 170.196 297.587 170.196C298.199 170.196 298.559 170.628 298.559 171.78V177H300.341V171.132C300.341 169.386 299.459 168.648 298.181 168.648C296.687 168.648 295.517 169.638 294.941 170.268V168.72L293.195 169.008V177ZM302.722 175.56C302.722 176.118 303.244 176.442 304.054 176.712C303.19 177.162 301.984 177.936 301.984 179.124C301.984 180.546 303.748 181.266 305.548 181.266C307.996 181.266 309.994 179.88 309.994 178.242C309.994 176.748 308.356 176.298 306.916 175.938C305.224 175.524 304.432 175.362 304.432 175.038C304.432 174.84 304.72 174.624 305.098 174.372C305.278 174.408 305.476 174.408 305.692 174.408C307.438 174.408 309.292 173.454 309.292 171.672C309.292 170.952 308.95 170.466 308.698 170.178C308.914 170.214 309.166 170.232 309.364 170.232H310.336L310.21 168.81C310.21 168.81 309.67 168.99 309.13 168.99H308.194C307.294 168.99 306.826 168.648 305.836 168.648C304.018 168.648 302.38 169.674 302.38 171.492C302.38 172.59 302.974 173.544 304 174.048C303.334 174.426 302.722 174.966 302.722 175.56ZM305.89 177.18C307.402 177.576 308.248 177.81 308.248 178.512C308.248 179.322 307.096 179.97 305.656 179.97C304.63 179.97 303.586 179.646 303.586 178.836C303.586 178.026 304.576 177.486 305.35 177.054C305.53 177.09 305.71 177.126 305.89 177.18ZM305.818 173.148C304.666 173.148 304.126 172.32 304.126 171.546C304.126 170.7 304.738 169.908 305.818 169.908C306.97 169.908 307.528 170.844 307.528 171.636C307.528 172.554 306.808 173.148 305.818 173.148ZM28.972 198.148H33.364V196.78H28.972V198.148ZM39.4623 196.186C39.4623 199.912 42.3783 202.216 46.0143 202.216C47.7963 202.216 50.1723 201.658 50.1723 201.658V195.664H45.8343V197.212H48.3363V200.362C48.3363 200.362 47.2743 200.614 46.2303 200.614C43.3503 200.614 41.3883 198.76 41.3883 196.042C41.3883 193.612 42.9543 191.38 46.0143 191.38C47.9763 191.38 49.4163 192.28 49.4163 192.28L50.1363 190.678C50.1363 190.678 48.5343 189.778 46.1043 189.778C41.8563 189.778 39.4623 192.802 39.4623 196.186ZM52.011 198.058C52.011 200.236 53.397 202.216 56.115 202.216C58.149 202.216 59.391 201.046 59.391 201.046L58.887 199.75C58.887 199.75 57.753 200.758 56.385 200.758C54.963 200.758 54.063 199.804 53.865 198.328L58.311 197.734L59.337 197.446C59.337 194.98 57.933 193.648 55.989 193.648C53.613 193.648 52.011 195.574 52.011 198.058ZM55.863 195.034C57.285 195.034 57.393 196.69 57.393 196.69L53.865 197.14C54.027 195.952 54.711 195.034 55.863 195.034ZM60.8172 197.968C60.8172 200.128 62.2752 202.216 64.9752 202.216C67.9092 202.216 69.2052 199.75 69.2052 197.77C69.2052 195.682 67.7472 193.648 65.0472 193.648C62.1312 193.648 60.8172 195.934 60.8172 197.968ZM62.6712 197.806C62.6712 196.186 63.6252 195.07 65.0112 195.07C66.6672 195.07 67.3512 196.564 67.3512 198.004C67.3512 199.642 66.3972 200.794 65.0292 200.794C63.4092 200.794 62.6712 199.318 62.6712 197.806ZM71.1123 200.56C71.1123 201.118 71.6343 201.442 72.4443 201.712C71.5803 202.162 70.3743 202.936 70.3743 204.124C70.3743 205.546 72.1383 206.266 73.9383 206.266C76.3863 206.266 78.3843 204.88 78.3843 203.242C78.3843 201.748 76.7463 201.298 75.3063 200.938C73.6143 200.524 72.8223 200.362 72.8223 200.038C72.8223 199.84 73.1103 199.624 73.4883 199.372C73.6683 199.408 73.8663 199.408 74.0823 199.408C75.8283 199.408 77.6823 198.454 77.6823 196.672C77.6823 195.952 77.3403 195.466 77.0883 195.178C77.3043 195.214 77.5563 195.232 77.7543 195.232H78.7263L78.6003 193.81C78.6003 193.81 78.0603 193.99 77.5203 193.99H76.5843C75.6843 193.99 75.2163 193.648 74.2263 193.648C72.4083 193.648 70.7703 194.674 70.7703 196.492C70.7703 197.59 71.3643 198.544 72.3903 199.048C71.7243 199.426 71.1123 199.966 71.1123 200.56ZM74.2803 202.18C75.7923 202.576 76.6383 202.81 76.6383 203.512C76.6383 204.322 75.4863 204.97 74.0463 204.97C73.0203 204.97 71.9763 204.646 71.9763 203.836C71.9763 203.026 72.9663 202.486 73.7403 202.054C73.9203 202.09 74.1003 202.126 74.2803 202.18ZM74.2083 198.148C73.0563 198.148 72.5163 197.32 72.5163 196.546C72.5163 195.7 73.1283 194.908 74.2083 194.908C75.3603 194.908 75.9183 195.844 75.9183 196.636C75.9183 197.554 75.1982 198.148 74.2083 198.148ZM80.2357 202H82.0177V196.96C82.3597 196.42 83.0977 195.448 83.9977 195.448C84.3577 195.448 84.7177 195.592 84.7177 195.592L85.0777 193.792C85.0777 193.792 84.8257 193.648 84.3757 193.648C83.1337 193.648 82.3057 194.8 81.9817 195.358V193.72L80.2357 194.008V202ZM85.8455 200.128C85.8455 201.334 86.7635 202.216 88.1855 202.216C89.7695 202.216 90.5975 201.208 90.8135 200.866C91.0475 201.514 91.5695 202.036 92.8115 202.126L93.3515 200.722C93.3515 200.722 92.4515 200.704 92.4515 199.696V196.258C92.4515 194.44 91.8395 193.648 89.9135 193.648C87.7715 193.648 86.3855 194.674 86.3855 194.674L86.8535 196.006C86.8535 196.006 88.0955 195.07 89.4275 195.07C90.7415 195.07 90.6695 195.97 90.6695 196.996C87.6275 197.392 85.8455 198.418 85.8455 200.128ZM88.6355 200.812C88.1135 200.812 87.6815 200.578 87.6815 200.002C87.6815 199.048 88.5995 198.454 90.6695 198.148V199.552C90.1295 200.182 89.4635 200.812 88.6355 200.812ZM95.1068 206.194L96.8888 205.906V201.784C97.2308 202.036 97.8428 202.216 98.5988 202.216C101.191 202.216 102.703 200.092 102.703 197.68C102.703 195.466 101.407 193.648 99.2648 193.648C97.9868 193.648 97.2128 194.314 96.8348 195.016V193.72L95.1068 194.008V206.194ZM98.9588 195.124C100.057 195.124 100.831 196.114 100.831 197.806C100.831 199.75 99.8048 200.812 98.2748 200.812C97.4288 200.812 96.8888 200.506 96.8888 199.894V196.438C97.1228 196.096 97.8788 195.124 98.9588 195.124ZM104.688 202H106.47V196.762C107.01 196.222 108.18 195.196 109.08 195.196C109.692 195.196 110.052 195.628 110.052 196.78V202H111.834V196.132C111.834 194.386 110.952 193.648 109.656 193.648C108.162 193.648 107.01 194.656 106.47 195.232V189.13L104.688 189.418V202ZM115.168 191.92C115.816 191.92 116.302 191.452 116.302 190.822C116.302 190.192 115.816 189.724 115.168 189.724C114.538 189.724 114.052 190.192 114.052 190.822C114.052 191.452 114.538 191.92 115.168 191.92ZM114.268 202H116.05V193.864H114.268V202ZM118.034 198.04C118.034 200.398 119.672 202.216 122.21 202.216C124.154 202.216 125.09 201.172 125.09 201.172L124.514 199.912C124.514 199.912 123.632 200.758 122.336 200.758C120.806 200.758 119.888 199.552 119.888 197.95C119.888 196.294 120.878 195.088 122.354 195.088C123.542 195.088 124.388 195.844 124.388 195.844L125.09 194.512C125.09 194.512 124.1 193.648 122.318 193.648C119.636 193.648 118.034 195.79 118.034 198.04ZM126.205 200.128C126.205 201.334 127.123 202.216 128.545 202.216C130.129 202.216 130.957 201.208 131.173 200.866C131.407 201.514 131.929 202.036 133.171 202.126L133.711 200.722C133.711 200.722 132.811 200.704 132.811 199.696V196.258C132.811 194.44 132.199 193.648 130.273 193.648C128.131 193.648 126.745 194.674 126.745 194.674L127.213 196.006C127.213 196.006 128.455 195.07 129.787 195.07C131.101 195.07 131.029 195.97 131.029 196.996C127.987 197.392 126.205 198.418 126.205 200.128ZM128.995 200.812C128.473 200.812 128.041 200.578 128.041 200.002C128.041 199.048 128.959 198.454 131.029 198.148V199.552C130.489 200.182 129.823 200.812 128.995 200.812ZM135.502 202H137.284V189.13L135.502 189.418V202ZM139.826 202H141.608V189.13L139.826 189.418V202ZM143.179 204.844L143.737 206.266C145.645 206.05 146.833 204.34 147.535 202.612L151.063 193.864H149.227L147.121 199.444L144.979 193.864H143.089L146.239 201.586L145.807 202.558C145.321 203.692 144.367 204.646 143.179 204.844ZM156.158 200.128C156.158 201.334 157.076 202.216 158.498 202.216C160.082 202.216 160.91 201.208 161.126 200.866C161.36 201.514 161.882 202.036 163.124 202.126L163.664 200.722C163.664 200.722 162.764 200.704 162.764 199.696V196.258C162.764 194.44 162.152 193.648 160.226 193.648C158.084 193.648 156.698 194.674 156.698 194.674L157.166 196.006C157.166 196.006 158.408 195.07 159.74 195.07C161.054 195.07 160.982 195.97 160.982 196.996C157.94 197.392 156.158 198.418 156.158 200.128ZM158.948 200.812C158.426 200.812 157.994 200.578 157.994 200.002C157.994 199.048 158.912 198.454 160.982 198.148V199.552C160.442 200.182 159.776 200.812 158.948 200.812ZM165.419 202H167.201V196.726C167.759 196.186 168.911 195.196 169.811 195.196C170.423 195.196 170.783 195.628 170.783 196.78V202H172.565V196.132C172.565 194.386 171.683 193.648 170.405 193.648C168.911 193.648 167.741 194.638 167.165 195.268V193.72L165.419 194.008V202ZM174.46 198.184C174.46 200.416 175.828 202.216 177.952 202.216C179.248 202.216 180.076 201.586 180.508 200.884C180.598 201.46 180.76 202.126 180.76 202.126L182.47 202C182.47 202 182.11 200.488 182.11 199.498V189.13L180.328 189.418V193.918C180.094 193.828 179.554 193.648 178.816 193.648C175.936 193.648 174.46 195.862 174.46 198.184ZM178.258 200.794C177.106 200.794 176.332 199.768 176.332 198.076C176.332 196.132 177.358 195.052 178.906 195.052C179.644 195.052 180.292 195.322 180.328 196.132V199.48C180.076 199.858 179.356 200.794 178.258 200.794ZM188.452 198.058C188.452 200.236 189.838 202.216 192.556 202.216C194.59 202.216 195.832 201.046 195.832 201.046L195.328 199.75C195.328 199.75 194.194 200.758 192.826 200.758C191.404 200.758 190.504 199.804 190.306 198.328L194.752 197.734L195.778 197.446C195.778 194.98 194.374 193.648 192.43 193.648C190.054 193.648 188.452 195.574 188.452 198.058ZM192.304 195.034C193.726 195.034 193.834 196.69 193.834 196.69L190.306 197.14C190.468 195.952 191.152 195.034 192.304 195.034ZM198.249 199.786C198.249 201.46 199.167 202.216 200.571 202.216C202.011 202.216 203.073 201.352 203.073 201.352L202.623 200.002C202.407 200.128 201.651 200.722 200.967 200.722C200.373 200.722 200.031 200.326 200.031 199.336V195.214H202.605V193.864H200.031V191.56L198.285 191.938V193.792L197.043 194.242V195.214H198.249V199.786ZM204.619 202H206.401V196.762C206.941 196.222 208.111 195.196 209.011 195.196C209.623 195.196 209.983 195.628 209.983 196.78V202H211.765V196.132C211.765 194.386 210.883 193.648 209.587 193.648C208.093 193.648 206.941 194.656 206.401 195.232V189.13L204.619 189.418V202ZM214.163 202H215.945V196.726C216.503 196.186 217.655 195.196 218.555 195.196C219.167 195.196 219.527 195.628 219.527 196.78V202H221.309V196.132C221.309 194.386 220.427 193.648 219.149 193.648C217.655 193.648 216.485 194.638 215.909 195.268V193.72L214.163 194.008V202ZM224.644 191.92C225.292 191.92 225.778 191.452 225.778 190.822C225.778 190.192 225.292 189.724 224.644 189.724C224.014 189.724 223.528 190.192 223.528 190.822C223.528 191.452 224.014 191.92 224.644 191.92ZM223.744 202H225.526V193.864H223.744V202ZM227.511 198.04C227.511 200.398 229.149 202.216 231.687 202.216C233.631 202.216 234.567 201.172 234.567 201.172L233.991 199.912C233.991 199.912 233.109 200.758 231.813 200.758C230.283 200.758 229.365 199.552 229.365 197.95C229.365 196.294 230.355 195.088 231.831 195.088C233.019 195.088 233.865 195.844 233.865 195.844L234.567 194.512C234.567 194.512 233.577 193.648 231.795 193.648C229.113 193.648 227.511 195.79 227.511 198.04ZM235.681 200.128C235.681 201.334 236.599 202.216 238.021 202.216C239.605 202.216 240.433 201.208 240.649 200.866C240.883 201.514 241.405 202.036 242.647 202.126L243.187 200.722C243.187 200.722 242.287 200.704 242.287 199.696V196.258C242.287 194.44 241.675 193.648 239.749 193.648C237.607 193.648 236.221 194.674 236.221 194.674L236.689 196.006C236.689 196.006 237.931 195.07 239.263 195.07C240.577 195.07 240.505 195.97 240.505 196.996C237.463 197.392 235.681 198.418 235.681 200.128ZM238.471 200.812C237.949 200.812 237.517 200.578 237.517 200.002C237.517 199.048 238.435 198.454 240.505 198.148V199.552C239.965 200.182 239.299 200.812 238.471 200.812ZM244.979 202H246.761V189.13L244.979 189.418V202ZM249.303 202H251.085V189.13L249.303 189.418V202ZM252.655 204.844L253.213 206.266C255.121 206.05 256.309 204.34 257.011 202.612L260.539 193.864H258.703L256.597 199.444L254.455 193.864H252.565L255.715 201.586L255.283 202.558C254.797 203.692 253.843 204.646 252.655 204.844ZM265.779 198.184C265.779 200.416 267.147 202.216 269.271 202.216C270.567 202.216 271.395 201.586 271.827 200.884C271.917 201.46 272.079 202.126 272.079 202.126L273.789 202C273.789 202 273.429 200.488 273.429 199.498V189.13L271.647 189.418V193.918C271.413 193.828 270.873 193.648 270.135 193.648C267.255 193.648 265.779 195.862 265.779 198.184ZM269.577 200.794C268.425 200.794 267.651 199.768 267.651 198.076C267.651 196.132 268.677 195.052 270.225 195.052C270.963 195.052 271.611 195.322 271.647 196.132V199.48C271.395 199.858 270.675 200.794 269.577 200.794ZM276.887 191.92C277.535 191.92 278.021 191.452 278.021 190.822C278.021 190.192 277.535 189.724 276.887 189.724C276.257 189.724 275.771 190.192 275.771 190.822C275.771 191.452 276.257 191.92 276.887 191.92ZM275.987 202H277.769V193.864H275.987V202ZM282.237 202.072H283.893L287.241 193.864H285.423L283.137 199.768L281.157 193.864H279.285L282.237 202.072ZM288.068 198.058C288.068 200.236 289.454 202.216 292.172 202.216C294.206 202.216 295.448 201.046 295.448 201.046L294.944 199.75C294.944 199.75 293.81 200.758 292.442 200.758C291.02 200.758 290.12 199.804 289.922 198.328L294.368 197.734L295.394 197.446C295.394 194.98 293.99 193.648 292.046 193.648C289.67 193.648 288.068 195.574 288.068 198.058ZM291.92 195.034C293.342 195.034 293.45 196.69 293.45 196.69L289.922 197.14C290.084 195.952 290.768 195.034 291.92 195.034ZM297.396 202H299.178V196.96C299.52 196.42 300.258 195.448 301.158 195.448C301.518 195.448 301.878 195.592 301.878 195.592L302.238 193.792C302.238 193.792 301.986 193.648 301.536 193.648C300.294 193.648 299.466 194.8 299.142 195.358V193.72L297.396 194.008V202ZM303.114 201.496C303.114 201.496 304.122 202.216 305.814 202.216C307.812 202.216 308.982 201.226 308.982 199.75C308.982 197.158 305.076 197.284 305.076 195.862C305.076 195.394 305.472 195.052 306.372 195.052C307.416 195.052 308.352 195.556 308.352 195.556L308.766 194.098C308.766 194.098 307.866 193.648 306.444 193.648C304.194 193.648 303.294 194.746 303.294 196.006C303.294 198.562 307.2 198.454 307.2 199.912C307.2 200.434 306.75 200.812 305.796 200.812C304.482 200.812 303.492 199.984 303.492 199.984L303.114 201.496ZM310.392 198.058C310.392 200.236 311.778 202.216 314.496 202.216C316.53 202.216 317.772 201.046 317.772 201.046L317.268 199.75C317.268 199.75 316.134 200.758 314.766 200.758C313.344 200.758 312.444 199.804 312.246 198.328L316.692 197.734L317.718 197.446C317.718 194.98 316.314 193.648 314.37 193.648C311.994 193.648 310.392 195.574 310.392 198.058ZM314.244 195.034C315.666 195.034 315.774 196.69 315.774 196.69L312.246 197.14C312.408 195.952 313.092 195.034 314.244 195.034Z" fill="#333333"/>
</svg>
