<svg width="472" height="248" viewBox="0 0 472 248" fill="none" xmlns="http://www.w3.org/2000/svg">
<path d="M3 3H469V245H3V3Z" fill="white" stroke="#828282" stroke-width="6"/>
<path d="M29.44 31.994V44H32.446C33.364 44 34.858 43.838 35.812 42.83C36.388 42.218 36.604 41.534 36.604 40.67C36.604 39.932 36.46 39.104 35.812 38.42C35.218 37.808 34.48 37.61 34.264 37.556C34.534 37.43 34.894 37.196 35.164 36.728C35.452 36.26 35.524 35.774 35.524 35.306C35.524 34.316 35.218 33.542 34.57 32.93C33.778 32.192 32.806 31.994 31.258 31.994H29.44ZM31.276 33.722H31.906C32.428 33.722 32.95 33.776 33.364 34.172C33.742 34.532 33.796 34.964 33.796 35.324C33.796 35.738 33.742 36.296 33.328 36.692C32.896 37.106 32.284 37.16 31.834 37.16H31.276V33.722ZM31.276 38.672H32.428C33.076 38.672 33.814 38.726 34.318 39.212C34.624 39.518 34.804 39.986 34.804 40.472C34.804 41.012 34.57 41.516 34.21 41.804C33.742 42.182 32.914 42.272 32.392 42.272H31.276V38.672ZM46.2586 31.994H39.6346V44H46.2586V42.272H41.4706V38.492H46.1146V36.764H41.4706V33.722H46.2586V31.994ZM51.1906 31.994H49.3546V44H51.1906V38.474H56.3386V44H58.1746V31.994H56.3386V36.746H51.1906V31.994ZM70.0976 44H72.0776L66.3896 31.292L60.4136 44H62.3936L63.7076 41.102H68.8376L70.0976 44ZM64.4636 39.374L66.3176 35.306L68.0996 39.374H64.4636ZM72.12 31.994L77.448 44.774L82.776 31.994H80.796L77.448 40.364L74.1 31.994H72.12ZM85.0009 31.994V44H86.8369V31.994H85.0009ZM96.1019 31.778C92.5019 31.778 89.8559 34.478 89.8559 38.006C89.8559 41.534 92.5019 44.234 96.1019 44.234C99.7019 44.234 102.348 41.534 102.348 38.006C102.348 34.478 99.7019 31.778 96.1019 31.778ZM96.1019 42.542C93.5279 42.542 91.6919 40.67 91.6919 38.006C91.6919 35.342 93.5279 33.47 96.1019 33.47C98.6759 33.47 100.512 35.342 100.512 38.006C100.512 40.67 98.6759 42.542 96.1019 42.542ZM105.373 31.994V44H107.209V39.086H107.533L110.971 44H113.185L109.441 38.87C111.043 38.51 112.105 37.25 112.105 35.522C112.105 35 111.997 33.578 110.683 32.696C109.909 32.174 108.973 31.994 107.515 31.994H105.373ZM107.209 33.686H107.839C108.739 33.686 110.341 33.848 110.341 35.54C110.341 37.448 108.289 37.502 107.785 37.502H107.209V33.686ZM29.08 95.72H33.96V94.2H29.08V95.72ZM41.6559 100H45.2559C50.0559 100 53.3959 97.6 53.3959 93.12C53.3959 88.38 49.6359 86.66 46.0159 86.66H41.6559V100ZM43.7159 98.28V88.38H45.7359C49.3559 88.38 51.2159 90.32 51.2159 93.28C51.2159 96.06 49.5559 98.28 45.0559 98.28H43.7159ZM56.5719 88.8C57.2919 88.8 57.8319 88.28 57.8319 87.58C57.8319 86.88 57.2919 86.36 56.5719 86.36C55.8719 86.36 55.3319 86.88 55.3319 87.58C55.3319 88.28 55.8719 88.8 56.5719 88.8ZM55.5719 100H57.5519V90.96H55.5719V100ZM60.3166 98.4C60.3166 99.02 60.8966 99.38 61.7966 99.68C60.8366 100.18 59.4966 101.04 59.4966 102.36C59.4966 103.94 61.4566 104.74 63.4566 104.74C66.1766 104.74 68.3966 103.2 68.3966 101.38C68.3966 99.72 66.5766 99.22 64.9766 98.82C63.0966 98.36 62.2166 98.18 62.2166 97.82C62.2166 97.6 62.5366 97.36 62.9566 97.08C63.1566 97.12 63.3766 97.12 63.6166 97.12C65.5566 97.12 67.6166 96.06 67.6166 94.08C67.6166 93.28 67.2366 92.74 66.9566 92.42C67.1966 92.46 67.4766 92.48 67.6966 92.48H68.7766L68.6366 90.9C68.6366 90.9 68.0366 91.1 67.4366 91.1H66.3966C65.3966 91.1 64.8766 90.72 63.7766 90.72C61.7566 90.72 59.9366 91.86 59.9366 93.88C59.9366 95.1 60.5966 96.16 61.7366 96.72C60.9966 97.14 60.3166 97.74 60.3166 98.4ZM63.8366 100.2C65.5166 100.64 66.4566 100.9 66.4566 101.68C66.4566 102.58 65.1766 103.3 63.5766 103.3C62.4366 103.3 61.2766 102.94 61.2766 102.04C61.2766 101.14 62.3766 100.54 63.2366 100.06C63.4366 100.1 63.6366 100.14 63.8366 100.2ZM63.7566 95.72C62.4766 95.72 61.8766 94.8 61.8766 93.94C61.8766 93 62.5566 92.12 63.7566 92.12C65.0366 92.12 65.6566 93.16 65.6566 94.04C65.6566 95.06 64.8566 95.72 63.7566 95.72ZM71.4938 88.8C72.2138 88.8 72.7538 88.28 72.7538 87.58C72.7538 86.88 72.2138 86.36 71.4938 86.36C70.7938 86.36 70.2538 86.88 70.2538 87.58C70.2538 88.28 70.7938 88.8 71.4938 88.8ZM70.4938 100H72.4738V90.96H70.4938V100ZM75.7784 97.54C75.7784 99.4 76.7984 100.24 78.3584 100.24C79.9584 100.24 81.1384 99.28 81.1384 99.28L80.6384 97.78C80.3984 97.92 79.5584 98.58 78.7984 98.58C78.1384 98.58 77.7584 98.14 77.7584 97.04V92.46H80.6184V90.96H77.7584V88.4L75.8184 88.82V90.88L74.4384 91.38V92.46H75.7784V97.54ZM82.097 97.92C82.097 99.26 83.117 100.24 84.697 100.24C86.457 100.24 87.377 99.12 87.617 98.74C87.877 99.46 88.457 100.04 89.837 100.14L90.437 98.58C90.437 98.58 89.437 98.56 89.437 97.44V93.62C89.437 91.6 88.757 90.72 86.617 90.72C84.237 90.72 82.697 91.86 82.697 91.86L83.217 93.34C83.217 93.34 84.597 92.3 86.077 92.3C87.537 92.3 87.457 93.3 87.457 94.44C84.077 94.88 82.097 96.02 82.097 97.92ZM85.197 98.68C84.617 98.68 84.137 98.42 84.137 97.78C84.137 96.72 85.157 96.06 87.457 95.72V97.28C86.857 97.98 86.117 98.68 85.197 98.68ZM92.4273 100H94.4073V85.7L92.4273 86.02V100ZM97.232 100H99.212V85.7L97.232 86.02V100ZM100.957 103.16L101.577 104.74C103.697 104.5 105.017 102.6 105.797 100.68L109.717 90.96H107.677L105.337 97.16L102.957 90.96H100.857L104.357 99.54L103.877 100.62C103.337 101.88 102.277 102.94 100.957 103.16ZM115.498 99.44C115.498 99.44 116.618 100.24 118.498 100.24C120.718 100.24 122.018 99.14 122.018 97.5C122.018 94.62 117.678 94.76 117.678 93.18C117.678 92.66 118.118 92.28 119.118 92.28C120.278 92.28 121.318 92.84 121.318 92.84L121.778 91.22C121.778 91.22 120.778 90.72 119.198 90.72C116.698 90.72 115.698 91.94 115.698 93.34C115.698 96.18 120.038 96.06 120.038 97.68C120.038 98.26 119.538 98.68 118.478 98.68C117.018 98.68 115.918 97.76 115.918 97.76L115.498 99.44ZM123.425 97.92C123.425 99.26 124.445 100.24 126.025 100.24C127.785 100.24 128.705 99.12 128.945 98.74C129.205 99.46 129.785 100.04 131.165 100.14L131.765 98.58C131.765 98.58 130.765 98.56 130.765 97.44V93.62C130.765 91.6 130.085 90.72 127.945 90.72C125.565 90.72 124.025 91.86 124.025 91.86L124.545 93.34C124.545 93.34 125.925 92.3 127.405 92.3C128.865 92.3 128.785 93.3 128.785 94.44C125.405 94.88 123.425 96.02 123.425 97.92ZM126.525 98.68C125.945 98.68 125.465 98.42 125.465 97.78C125.465 96.72 126.485 96.06 128.785 95.72V97.28C128.185 97.98 127.445 98.68 126.525 98.68ZM135.778 100.08H137.618L141.338 90.96H139.318L136.778 97.52L134.578 90.96H132.498L135.778 100.08ZM145.075 100.08H146.915L150.635 90.96H148.615L146.075 97.52L143.875 90.96H141.795L145.075 100.08ZM151.152 103.16L151.772 104.74C153.892 104.5 155.212 102.6 155.992 100.68L159.912 90.96H157.872L155.532 97.16L153.152 90.96H151.052L154.552 99.54L154.072 100.62C153.532 101.88 152.472 102.94 151.152 103.16ZM160.601 98.1C161.341 99.16 161.641 99.8 161.641 100.58C161.641 101.66 161.081 102.1 160.301 102.82L161.081 103.64C162.401 102.58 163.341 101.32 163.341 99.8C163.341 98.96 163.101 98.24 162.521 97.48L160.601 98.1ZM169.991 95.52C169.991 97.92 171.611 100.24 174.611 100.24C177.871 100.24 179.311 97.5 179.311 95.3C179.311 92.98 177.691 90.72 174.691 90.72C171.451 90.72 169.991 93.26 169.991 95.52ZM172.051 95.34C172.051 93.54 173.111 92.3 174.651 92.3C176.491 92.3 177.251 93.96 177.251 95.56C177.251 97.38 176.191 98.66 174.671 98.66C172.871 98.66 172.051 97.02 172.051 95.34ZM183.35 100.08H185.27L187.59 93.64L189.67 100.08H191.61L194.85 90.96H192.83L190.65 97.76L188.53 90.96H186.81L184.47 97.8L182.49 90.96H180.45L183.35 100.08ZM196.508 100H198.488V94.14C199.108 93.54 200.388 92.44 201.388 92.44C202.068 92.44 202.468 92.92 202.468 94.2V100H204.448V93.48C204.448 91.54 203.468 90.72 202.048 90.72C200.388 90.72 199.088 91.82 198.448 92.52V90.8L196.508 91.12V100ZM206.514 99.44C206.514 99.44 207.634 100.24 209.514 100.24C211.734 100.24 213.034 99.14 213.034 97.5C213.034 94.62 208.694 94.76 208.694 93.18C208.694 92.66 209.134 92.28 210.134 92.28C211.294 92.28 212.334 92.84 212.334 92.84L212.794 91.22C212.794 91.22 211.794 90.72 210.214 90.72C207.714 90.72 206.714 91.94 206.714 93.34C206.714 96.18 211.054 96.06 211.054 97.68C211.054 98.26 210.554 98.68 209.494 98.68C208.034 98.68 206.934 97.76 206.934 97.76L206.514 99.44ZM219.965 100H221.945V94.12C222.525 93.54 223.765 92.44 224.745 92.44C225.405 92.44 225.765 92.92 225.765 94.2V100H227.745V94.08C228.425 93.42 229.545 92.44 230.465 92.44C231.125 92.44 231.505 92.92 231.505 94.2V100H233.465V93.48C233.465 91.54 232.525 90.72 231.125 90.72C229.545 90.72 228.305 91.78 227.645 92.5C227.365 91.26 226.545 90.72 225.405 90.72C223.805 90.72 222.525 91.82 221.905 92.5V90.8L219.965 91.12V100ZM236.077 97.52C236.077 99.46 237.077 100.24 238.537 100.24C240.197 100.24 241.457 99.18 242.037 98.56C242.137 99.22 242.337 100.16 242.337 100.16L244.257 99.98C244.257 99.98 243.857 98.32 243.857 97.22V90.96H241.877V97.04C241.317 97.56 240.197 98.52 239.177 98.52C238.437 98.52 238.057 98.02 238.057 96.76V90.96H236.077V97.52ZM246.724 100H248.704V85.7L246.724 86.02V100ZM252.009 97.54C252.009 99.4 253.029 100.24 254.589 100.24C256.189 100.24 257.369 99.28 257.369 99.28L256.869 97.78C256.629 97.92 255.789 98.58 255.029 98.58C254.369 98.58 253.989 98.14 253.989 97.04V92.46H256.849V90.96H253.989V88.4L252.049 88.82V90.88L250.669 91.38V92.46H252.009V97.54ZM260.088 88.8C260.808 88.8 261.348 88.28 261.348 87.58C261.348 86.88 260.808 86.36 260.088 86.36C259.388 86.36 258.848 86.88 258.848 87.58C258.848 88.28 259.388 88.8 260.088 88.8ZM259.088 100H261.068V90.96H259.088V100ZM263.852 104.66L265.832 104.34V99.76C266.212 100.04 266.892 100.24 267.732 100.24C270.612 100.24 272.292 97.88 272.292 95.2C272.292 92.74 270.852 90.72 268.472 90.72C267.052 90.72 266.192 91.46 265.772 92.24V90.8L263.852 91.12V104.66ZM268.132 92.36C269.352 92.36 270.212 93.46 270.212 95.34C270.212 97.5 269.072 98.68 267.372 98.68C266.432 98.68 265.832 98.34 265.832 97.66V93.82C266.092 93.44 266.932 92.36 268.132 92.36ZM274.498 100H276.478V85.7L274.498 86.02V100ZM278.702 95.62C278.702 98.04 280.242 100.24 283.262 100.24C285.522 100.24 286.902 98.94 286.902 98.94L286.342 97.5C286.342 97.5 285.082 98.62 283.562 98.62C281.982 98.62 280.982 97.56 280.762 95.92L285.702 95.26L286.842 94.94C286.842 92.2 285.282 90.72 283.122 90.72C280.482 90.72 278.702 92.86 278.702 95.62ZM282.982 92.26C284.562 92.26 284.682 94.1 284.682 94.1L280.762 94.6C280.942 93.28 281.702 92.26 282.982 92.26ZM293.312 95.76C293.312 98.24 294.832 100.24 297.192 100.24C298.632 100.24 299.552 99.54 300.032 98.76C300.132 99.4 300.312 100.14 300.312 100.14L302.212 100C302.212 100 301.812 98.32 301.812 97.22V85.7L299.832 86.02V91.02C299.572 90.92 298.972 90.72 298.152 90.72C294.952 90.72 293.312 93.18 293.312 95.76ZM297.532 98.66C296.252 98.66 295.392 97.52 295.392 95.64C295.392 93.48 296.532 92.28 298.252 92.28C299.072 92.28 299.792 92.58 299.832 93.48V97.2C299.552 97.62 298.752 98.66 297.532 98.66ZM304.054 95.62C304.054 98.04 305.594 100.24 308.614 100.24C310.874 100.24 312.254 98.94 312.254 98.94L311.694 97.5C311.694 97.5 310.434 98.62 308.914 98.62C307.334 98.62 306.334 97.56 306.114 95.92L311.054 95.26L312.194 94.94C312.194 92.2 310.634 90.72 308.474 90.72C305.834 90.72 304.054 92.86 304.054 95.62ZM308.334 92.26C309.914 92.26 310.034 94.1 310.034 94.1L306.114 94.6C306.294 93.28 307.054 92.26 308.334 92.26ZM316.599 100.08H318.439L322.159 90.96H320.139L317.599 97.52L315.399 90.96H313.319L316.599 100.08ZM324.755 88.8C325.475 88.8 326.015 88.28 326.015 87.58C326.015 86.88 325.475 86.36 324.755 86.36C324.055 86.36 323.515 86.88 323.515 87.58C323.515 88.28 324.055 88.8 324.755 88.8ZM323.755 100H325.735V90.96H323.755V100ZM327.94 95.6C327.94 98.22 329.76 100.24 332.58 100.24C334.74 100.24 335.78 99.08 335.78 99.08L335.14 97.68C335.14 97.68 334.16 98.62 332.72 98.62C331.02 98.62 330 97.28 330 95.5C330 93.66 331.1 92.32 332.74 92.32C334.06 92.32 335 93.16 335 93.16L335.78 91.68C335.78 91.68 334.68 90.72 332.7 90.72C329.72 90.72 327.94 93.1 327.94 95.6ZM337.042 95.62C337.042 98.04 338.582 100.24 341.602 100.24C343.862 100.24 345.242 98.94 345.242 98.94L344.682 97.5C344.682 97.5 343.422 98.62 341.902 98.62C340.322 98.62 339.322 97.56 339.102 95.92L344.042 95.26L345.182 94.94C345.182 92.2 343.622 90.72 341.462 90.72C338.822 90.72 337.042 92.86 337.042 95.62ZM341.322 92.26C342.902 92.26 343.022 94.1 343.022 94.1L339.102 94.6C339.282 93.28 340.042 92.26 341.322 92.26ZM346.807 99.44C346.807 99.44 347.927 100.24 349.807 100.24C352.027 100.24 353.327 99.14 353.327 97.5C353.327 94.62 348.987 94.76 348.987 93.18C348.987 92.66 349.427 92.28 350.427 92.28C351.587 92.28 352.627 92.84 352.627 92.84L353.087 91.22C353.087 91.22 352.087 90.72 350.507 90.72C348.007 90.72 347.007 91.94 347.007 93.34C347.007 96.18 351.347 96.06 351.347 97.68C351.347 98.26 350.847 98.68 349.787 98.68C348.327 98.68 347.227 97.76 347.227 97.76L346.807 99.44ZM29.08 124.72H33.96V123.2H29.08V124.72ZM40.7359 122.36C40.7359 126.04 43.4759 129.24 47.6959 129.24C52.0559 129.24 54.8959 125.82 54.8959 122.08C54.8959 118.4 52.1759 115.42 47.8759 115.42C43.2959 115.42 40.7359 118.84 40.7359 122.36ZM42.9159 122.26C42.9159 119.7 44.6559 117.18 47.8159 117.18C50.9759 117.18 52.7159 119.66 52.7159 122.24C52.7159 124.84 50.8959 127.48 47.7559 127.48C44.5959 127.48 42.9159 124.74 42.9159 122.26ZM56.9758 126.52C56.9758 128.46 57.9758 129.24 59.4358 129.24C61.0958 129.24 62.3558 128.18 62.9358 127.56C63.0358 128.22 63.2358 129.16 63.2358 129.16L65.1558 128.98C65.1558 128.98 64.7558 127.32 64.7558 126.22V119.96H62.7758V126.04C62.2158 126.56 61.0958 127.52 60.0758 127.52C59.3358 127.52 58.9558 127.02 58.9558 125.76V119.96H56.9758V126.52ZM68.1027 126.54C68.1027 128.4 69.1227 129.24 70.6827 129.24C72.2827 129.24 73.4627 128.28 73.4627 128.28L72.9627 126.78C72.7227 126.92 71.8827 127.58 71.1227 127.58C70.4627 127.58 70.0827 127.14 70.0827 126.04V121.46H72.9427V119.96H70.0827V117.4L68.1427 117.82V119.88L66.7627 120.38V121.46H68.1027V126.54ZM74.5413 128.44C74.5413 128.44 75.6613 129.24 77.5413 129.24C79.7613 129.24 81.0613 128.14 81.0613 126.5C81.0613 123.62 76.7212 123.76 76.7212 122.18C76.7212 121.66 77.1613 121.28 78.1613 121.28C79.3213 121.28 80.3613 121.84 80.3613 121.84L80.8213 120.22C80.8213 120.22 79.8213 119.72 78.2413 119.72C75.7413 119.72 74.7413 120.94 74.7413 122.34C74.7413 125.18 79.0813 125.06 79.0813 126.68C79.0813 127.26 78.5813 127.68 77.5213 127.68C76.0613 127.68 74.9613 126.76 74.9613 126.76L74.5413 128.44ZM82.6081 124.52C82.6081 126.92 84.2281 129.24 87.2281 129.24C90.4881 129.24 91.9281 126.5 91.9281 124.3C91.9281 121.98 90.3081 119.72 87.3081 119.72C84.0681 119.72 82.6081 122.26 82.6081 124.52ZM84.6681 124.34C84.6681 122.54 85.7281 121.3 87.2681 121.3C89.1081 121.3 89.8681 122.96 89.8681 124.56C89.8681 126.38 88.8081 127.66 87.2881 127.66C85.4881 127.66 84.6681 126.02 84.6681 124.34ZM94.007 126.52C94.007 128.46 95.007 129.24 96.467 129.24C98.127 129.24 99.387 128.18 99.967 127.56C100.067 128.22 100.267 129.16 100.267 129.16L102.187 128.98C102.187 128.98 101.787 127.32 101.787 126.22V119.96H99.807V126.04C99.247 126.56 98.127 127.52 97.107 127.52C96.367 127.52 95.987 127.02 95.987 125.76V119.96H94.007V126.52ZM104.614 129H106.594V123.4C106.974 122.8 107.794 121.72 108.794 121.72C109.194 121.72 109.594 121.88 109.594 121.88L109.994 119.88C109.994 119.88 109.714 119.72 109.214 119.72C107.834 119.72 106.914 121 106.554 121.62V119.8L104.614 120.12V129ZM110.811 124.6C110.811 127.22 112.631 129.24 115.451 129.24C117.611 129.24 118.651 128.08 118.651 128.08L118.011 126.68C118.011 126.68 117.031 127.62 115.591 127.62C113.891 127.62 112.871 126.28 112.871 124.5C112.871 122.66 113.971 121.32 115.611 121.32C116.931 121.32 117.871 122.16 117.871 122.16L118.651 120.68C118.651 120.68 117.551 119.72 115.571 119.72C112.591 119.72 110.811 122.1 110.811 124.6ZM119.913 124.62C119.913 127.04 121.453 129.24 124.473 129.24C126.733 129.24 128.113 127.94 128.113 127.94L127.553 126.5C127.553 126.5 126.293 127.62 124.773 127.62C123.193 127.62 122.193 126.56 121.973 124.92L126.913 124.26L128.053 123.94C128.053 121.2 126.493 119.72 124.333 119.72C121.693 119.72 119.913 121.86 119.913 124.62ZM124.193 121.26C125.773 121.26 125.893 123.1 125.893 123.1L121.973 123.6C122.153 122.28 122.913 121.26 124.193 121.26ZM129.678 128.44C129.678 128.44 130.798 129.24 132.678 129.24C134.898 129.24 136.198 128.14 136.198 126.5C136.198 123.62 131.858 123.76 131.858 122.18C131.858 121.66 132.298 121.28 133.298 121.28C134.458 121.28 135.498 121.84 135.498 121.84L135.958 120.22C135.958 120.22 134.958 119.72 133.378 119.72C130.878 119.72 129.878 120.94 129.878 122.34C129.878 125.18 134.218 125.06 134.218 126.68C134.218 127.26 133.718 127.68 132.658 127.68C131.198 127.68 130.098 126.76 130.098 126.76L129.678 128.44ZM143.13 129H145.11V123.12C145.69 122.54 146.93 121.44 147.91 121.44C148.57 121.44 148.93 121.92 148.93 123.2V129H150.91V123.08C151.59 122.42 152.71 121.44 153.63 121.44C154.29 121.44 154.67 121.92 154.67 123.2V129H156.63V122.48C156.63 120.54 155.69 119.72 154.29 119.72C152.71 119.72 151.47 120.78 150.81 121.5C150.53 120.26 149.71 119.72 148.57 119.72C146.97 119.72 145.69 120.82 145.07 121.5V119.8L143.13 120.12V129ZM159.241 126.52C159.241 128.46 160.241 129.24 161.701 129.24C163.361 129.24 164.621 128.18 165.201 127.56C165.301 128.22 165.501 129.16 165.501 129.16L167.421 128.98C167.421 128.98 167.021 127.32 167.021 126.22V119.96H165.041V126.04C164.481 126.56 163.361 127.52 162.341 127.52C161.601 127.52 161.221 127.02 161.221 125.76V119.96H159.241V126.52ZM169.248 128.44C169.248 128.44 170.368 129.24 172.248 129.24C174.468 129.24 175.768 128.14 175.768 126.5C175.768 123.62 171.428 123.76 171.428 122.18C171.428 121.66 171.868 121.28 172.868 121.28C174.028 121.28 175.068 121.84 175.068 121.84L175.528 120.22C175.528 120.22 174.528 119.72 172.948 119.72C170.448 119.72 169.448 120.94 169.448 122.34C169.448 125.18 173.788 125.06 173.788 126.68C173.788 127.26 173.288 127.68 172.228 127.68C170.768 127.68 169.668 126.76 169.668 126.76L169.248 128.44ZM178.935 117.8C179.655 117.8 180.195 117.28 180.195 116.58C180.195 115.88 179.655 115.36 178.935 115.36C178.235 115.36 177.695 115.88 177.695 116.58C177.695 117.28 178.235 117.8 178.935 117.8ZM177.935 129H179.915V119.96H177.935V129ZM182.12 124.6C182.12 127.22 183.94 129.24 186.76 129.24C188.92 129.24 189.96 128.08 189.96 128.08L189.32 126.68C189.32 126.68 188.34 127.62 186.9 127.62C185.2 127.62 184.18 126.28 184.18 124.5C184.18 122.66 185.28 121.32 186.92 121.32C188.24 121.32 189.18 122.16 189.18 122.16L189.96 120.68C189.96 120.68 188.86 119.72 186.88 119.72C183.9 119.72 182.12 122.1 182.12 124.6ZM196.163 124.76C196.163 127.24 197.683 129.24 200.043 129.24C201.483 129.24 202.403 128.54 202.883 127.76C202.983 128.4 203.163 129.14 203.163 129.14L205.063 129C205.063 129 204.663 127.32 204.663 126.22V114.7L202.683 115.02V120.02C202.423 119.92 201.823 119.72 201.003 119.72C197.803 119.72 196.163 122.18 196.163 124.76ZM200.383 127.66C199.103 127.66 198.243 126.52 198.243 124.64C198.243 122.48 199.383 121.28 201.103 121.28C201.923 121.28 202.643 121.58 202.683 122.48V126.2C202.403 126.62 201.603 127.66 200.383 127.66ZM208.505 117.8C209.225 117.8 209.765 117.28 209.765 116.58C209.765 115.88 209.225 115.36 208.505 115.36C207.805 115.36 207.265 115.88 207.265 116.58C207.265 117.28 207.805 117.8 208.505 117.8ZM207.505 129H209.485V119.96H207.505V129ZM211.67 128.44C211.67 128.44 212.79 129.24 214.67 129.24C216.89 129.24 218.19 128.14 218.19 126.5C218.19 123.62 213.85 123.76 213.85 122.18C213.85 121.66 214.29 121.28 215.29 121.28C216.45 121.28 217.49 121.84 217.49 121.84L217.95 120.22C217.95 120.22 216.95 119.72 215.37 119.72C212.87 119.72 211.87 120.94 211.87 122.34C211.87 125.18 216.21 125.06 216.21 126.68C216.21 127.26 215.71 127.68 214.65 127.68C213.19 127.68 212.09 126.76 212.09 126.76L211.67 128.44ZM219.737 124.6C219.737 127.22 221.557 129.24 224.377 129.24C226.537 129.24 227.577 128.08 227.577 128.08L226.937 126.68C226.937 126.68 225.957 127.62 224.517 127.62C222.817 127.62 221.797 126.28 221.797 124.5C221.797 122.66 222.897 121.32 224.537 121.32C225.857 121.32 226.797 122.16 226.797 122.16L227.577 120.68C227.577 120.68 226.477 119.72 224.497 119.72C221.517 119.72 219.737 122.1 219.737 124.6ZM228.8 124.52C228.8 126.92 230.42 129.24 233.42 129.24C236.68 129.24 238.12 126.5 238.12 124.3C238.12 121.98 236.5 119.72 233.5 119.72C230.26 119.72 228.8 122.26 228.8 124.52ZM230.86 124.34C230.86 122.54 231.92 121.3 233.46 121.3C235.3 121.3 236.06 122.96 236.06 124.56C236.06 126.38 235 127.66 233.48 127.66C231.68 127.66 230.86 126.02 230.86 124.34ZM242.438 129.08H244.278L247.998 119.96H245.978L243.438 126.52L241.238 119.96H239.158L242.438 129.08ZM248.917 124.62C248.917 127.04 250.457 129.24 253.477 129.24C255.737 129.24 257.117 127.94 257.117 127.94L256.557 126.5C256.557 126.5 255.297 127.62 253.777 127.62C252.197 127.62 251.197 126.56 250.977 124.92L255.917 124.26L257.057 123.94C257.057 121.2 255.497 119.72 253.337 119.72C250.697 119.72 248.917 121.86 248.917 124.62ZM253.197 121.26C254.777 121.26 254.897 123.1 254.897 123.1L250.977 123.6C251.157 122.28 251.917 121.26 253.197 121.26ZM259.282 129H261.262V123.4C261.642 122.8 262.462 121.72 263.462 121.72C263.862 121.72 264.262 121.88 264.262 121.88L264.662 119.88C264.662 119.88 264.382 119.72 263.882 119.72C262.502 119.72 261.582 121 261.222 121.62V119.8L259.282 120.12V129ZM265.195 132.16L265.815 133.74C267.935 133.5 269.255 131.6 270.035 129.68L273.955 119.96H271.915L269.575 126.16L267.195 119.96H265.095L268.595 128.54L268.115 129.62C267.575 130.88 266.515 131.94 265.195 132.16ZM280.857 126.54C280.857 128.4 281.877 129.24 283.437 129.24C285.037 129.24 286.217 128.28 286.217 128.28L285.717 126.78C285.477 126.92 284.637 127.58 283.877 127.58C283.217 127.58 282.837 127.14 282.837 126.04V121.46H285.697V119.96H282.837V117.4L280.897 117.82V119.88L279.517 120.38V121.46H280.857V126.54ZM287.315 124.52C287.315 126.92 288.935 129.24 291.935 129.24C295.195 129.24 296.635 126.5 296.635 124.3C296.635 121.98 295.015 119.72 292.015 119.72C288.775 119.72 287.315 122.26 287.315 124.52ZM289.375 124.34C289.375 122.54 290.435 121.3 291.975 121.3C293.815 121.3 294.575 122.96 294.575 124.56C294.575 126.38 293.515 127.66 291.995 127.66C290.195 127.66 289.375 126.02 289.375 124.34ZM302.859 126.92C302.859 128.26 303.879 129.24 305.459 129.24C307.219 129.24 308.139 128.12 308.379 127.74C308.639 128.46 309.219 129.04 310.599 129.14L311.199 127.58C311.199 127.58 310.199 127.56 310.199 126.44V122.62C310.199 120.6 309.519 119.72 307.379 119.72C304.999 119.72 303.459 120.86 303.459 120.86L303.979 122.34C303.979 122.34 305.359 121.3 306.839 121.3C308.299 121.3 308.219 122.3 308.219 123.44C304.839 123.88 302.859 125.02 302.859 126.92ZM305.959 127.68C305.379 127.68 304.899 127.42 304.899 126.78C304.899 125.72 305.919 125.06 308.219 124.72V126.28C307.619 126.98 306.879 127.68 305.959 127.68ZM313.149 129H315.129V123.14C315.749 122.54 317.029 121.44 318.029 121.44C318.709 121.44 319.109 121.92 319.109 123.2V129H321.089V122.48C321.089 120.54 320.109 119.72 318.689 119.72C317.029 119.72 315.729 120.82 315.089 121.52V119.8L313.149 120.12V129ZM327.839 126.92C327.839 128.26 328.859 129.24 330.439 129.24C332.199 129.24 333.119 128.12 333.359 127.74C333.619 128.46 334.199 129.04 335.579 129.14L336.179 127.58C336.179 127.58 335.179 127.56 335.179 126.44V122.62C335.179 120.6 334.499 119.72 332.359 119.72C329.979 119.72 328.439 120.86 328.439 120.86L328.959 122.34C328.959 122.34 330.339 121.3 331.819 121.3C333.279 121.3 333.199 122.3 333.199 123.44C329.819 123.88 327.839 125.02 327.839 126.92ZM330.939 127.68C330.359 127.68 329.879 127.42 329.879 126.78C329.879 125.72 330.899 125.06 333.199 124.72V126.28C332.599 126.98 331.859 127.68 330.939 127.68ZM338.17 129H340.15V114.7L338.17 115.02V129ZM342.914 127.4C342.914 128.02 343.494 128.38 344.394 128.68C343.434 129.18 342.094 130.04 342.094 131.36C342.094 132.94 344.054 133.74 346.054 133.74C348.774 133.74 350.994 132.2 350.994 130.38C350.994 128.72 349.174 128.22 347.574 127.82C345.694 127.36 344.814 127.18 344.814 126.82C344.814 126.6 345.134 126.36 345.554 126.08C345.754 126.12 345.974 126.12 346.214 126.12C348.154 126.12 350.214 125.06 350.214 123.08C350.214 122.28 349.834 121.74 349.554 121.42C349.794 121.46 350.074 121.48 350.294 121.48H351.374L351.234 119.9C351.234 119.9 350.634 120.1 350.034 120.1H348.994C347.994 120.1 347.474 119.72 346.374 119.72C344.354 119.72 342.534 120.86 342.534 122.88C342.534 124.1 343.194 125.16 344.334 125.72C343.594 126.14 342.914 126.74 342.914 127.4ZM346.434 129.2C348.114 129.64 349.054 129.9 349.054 130.68C349.054 131.58 347.774 132.3 346.174 132.3C345.034 132.3 343.874 131.94 343.874 131.04C343.874 130.14 344.974 129.54 345.834 129.06C346.034 129.1 346.234 129.14 346.434 129.2ZM346.354 124.72C345.074 124.72 344.474 123.8 344.474 122.94C344.474 122 345.154 121.12 346.354 121.12C347.634 121.12 348.254 122.16 348.254 123.04C348.254 124.06 347.454 124.72 346.354 124.72ZM352.471 124.52C352.471 126.92 354.091 129.24 357.091 129.24C360.351 129.24 361.791 126.5 361.791 124.3C361.791 121.98 360.171 119.72 357.171 119.72C353.931 119.72 352.471 122.26 352.471 124.52ZM354.531 124.34C354.531 122.54 355.591 121.3 357.131 121.3C358.971 121.3 359.731 122.96 359.731 124.56C359.731 126.38 358.671 127.66 357.151 127.66C355.351 127.66 354.531 126.02 354.531 124.34ZM363.93 129H365.91V123.4C366.29 122.8 367.11 121.72 368.11 121.72C368.51 121.72 368.91 121.88 368.91 121.88L369.31 119.88C369.31 119.88 369.03 119.72 368.53 119.72C367.15 119.72 366.23 121 365.87 121.62V119.8L363.93 120.12V129ZM371.923 117.8C372.643 117.8 373.183 117.28 373.183 116.58C373.183 115.88 372.643 115.36 371.923 115.36C371.223 115.36 370.683 115.88 370.683 116.58C370.683 117.28 371.223 117.8 371.923 117.8ZM370.923 129H372.903V119.96H370.923V129ZM376.208 126.54C376.208 128.4 377.228 129.24 378.788 129.24C380.388 129.24 381.568 128.28 381.568 128.28L381.068 126.78C380.828 126.92 379.988 127.58 379.228 127.58C378.568 127.58 378.188 127.14 378.188 126.04V121.46H381.048V119.96H378.188V117.4L376.248 117.82V119.88L374.868 120.38V121.46H376.208V126.54ZM383.287 129H385.267V123.18C385.867 122.58 387.167 121.44 388.167 121.44C388.847 121.44 389.247 121.92 389.247 123.2V129H391.227V122.48C391.227 120.54 390.247 119.72 388.807 119.72C387.147 119.72 385.867 120.84 385.267 121.48V114.7L383.287 115.02V129ZM393.891 129H395.871V123.12C396.451 122.54 397.691 121.44 398.671 121.44C399.331 121.44 399.691 121.92 399.691 123.2V129H401.671V123.08C402.351 122.42 403.471 121.44 404.391 121.44C405.051 121.44 405.431 121.92 405.431 123.2V129H407.391V122.48C407.391 120.54 406.451 119.72 405.051 119.72C403.471 119.72 402.231 120.78 401.571 121.5C401.291 120.26 400.471 119.72 399.331 119.72C397.731 119.72 396.451 120.82 395.831 121.5V119.8L393.891 120.12V129ZM29.08 152.72H33.96V151.2H29.08V152.72ZM40.7159 156.12C40.7159 156.12 42.3159 157.24 44.6759 157.24C47.1359 157.24 49.1759 155.94 49.1759 153.56C49.1759 149.34 43.0159 149.62 43.0159 146.84C43.0159 145.78 44.0559 145.22 45.3759 145.22C46.9559 145.22 48.4759 145.9 48.4759 145.9L48.8959 144.02C48.8959 144.02 47.1959 143.42 45.3959 143.42C42.5559 143.42 40.9359 145.06 40.9359 147.06C40.9359 151.1 47.0959 150.98 47.0959 153.72C47.0959 154.84 45.9759 155.44 44.6959 155.44C42.7759 155.44 41.2959 154.24 41.2959 154.24L40.7159 156.12ZM51.2936 161.66L53.2736 161.34V156.76C53.6536 157.04 54.3336 157.24 55.1736 157.24C58.0536 157.24 59.7336 154.88 59.7336 152.2C59.7336 149.74 58.2936 147.72 55.9136 147.72C54.4936 147.72 53.6336 148.46 53.2136 149.24V147.8L51.2936 148.12V161.66ZM55.5736 149.36C56.7936 149.36 57.6536 150.46 57.6536 152.34C57.6536 154.5 56.5136 155.68 54.8136 155.68C53.8736 155.68 53.2736 155.34 53.2736 154.66V150.82C53.5336 150.44 54.3736 149.36 55.5736 149.36ZM61.3391 152.62C61.3391 155.04 62.8791 157.24 65.8991 157.24C68.1591 157.24 69.5391 155.94 69.5391 155.94L68.9791 154.5C68.9791 154.5 67.7191 155.62 66.1991 155.62C64.6191 155.62 63.6191 154.56 63.3991 152.92L68.3391 152.26L69.4791 151.94C69.4791 149.2 67.9191 147.72 65.7591 147.72C63.1191 147.72 61.3391 149.86 61.3391 152.62ZM65.6191 149.26C67.1991 149.26 67.3191 151.1 67.3191 151.1L63.3991 151.6C63.5791 150.28 64.3391 149.26 65.6191 149.26ZM71.7038 157H73.6838V151.14C74.3038 150.54 75.5838 149.44 76.5838 149.44C77.2638 149.44 77.6638 149.92 77.6638 151.2V157H79.6438V150.48C79.6438 148.54 78.6638 147.72 77.2438 147.72C75.5838 147.72 74.2838 148.82 73.6438 149.52V147.8L71.7038 148.12V157ZM81.7492 152.76C81.7492 155.24 83.2692 157.24 85.6292 157.24C87.0692 157.24 87.9892 156.54 88.4692 155.76C88.5692 156.4 88.7492 157.14 88.7492 157.14L90.6492 157C90.6492 157 90.2492 155.32 90.2492 154.22V142.7L88.2692 143.02V148.02C88.0092 147.92 87.4092 147.72 86.5892 147.72C83.3892 147.72 81.7492 150.18 81.7492 152.76ZM85.9692 155.66C84.6892 155.66 83.8292 154.52 83.8292 152.64C83.8292 150.48 84.9692 149.28 86.6892 149.28C87.5092 149.28 88.2292 149.58 88.2692 150.48V154.2C87.9892 154.62 87.1892 155.66 85.9692 155.66ZM92.4514 156.44C92.4514 156.44 93.5714 157.24 95.4514 157.24C97.6714 157.24 98.9714 156.14 98.9714 154.5C98.9714 151.62 94.6314 151.76 94.6314 150.18C94.6314 149.66 95.0714 149.28 96.0714 149.28C97.2314 149.28 98.2714 149.84 98.2714 149.84L98.7314 148.22C98.7314 148.22 97.7314 147.72 96.1514 147.72C93.6514 147.72 92.6514 148.94 92.6514 150.34C92.6514 153.18 96.9914 153.06 96.9914 154.68C96.9914 155.26 96.4914 155.68 95.4314 155.68C93.9714 155.68 92.8714 154.76 92.8714 154.76L92.4514 156.44ZM105.943 157H107.923V142.7L105.943 143.02V157ZM109.988 154.92C109.988 156.26 111.008 157.24 112.588 157.24C114.348 157.24 115.268 156.12 115.508 155.74C115.768 156.46 116.348 157.04 117.728 157.14L118.328 155.58C118.328 155.58 117.328 155.56 117.328 154.44V150.62C117.328 148.6 116.648 147.72 114.508 147.72C112.128 147.72 110.588 148.86 110.588 148.86L111.108 150.34C111.108 150.34 112.488 149.3 113.968 149.3C115.428 149.3 115.348 150.3 115.348 151.44C111.968 151.88 109.988 153.02 109.988 154.92ZM113.088 155.68C112.508 155.68 112.028 155.42 112.028 154.78C112.028 153.72 113.048 153.06 115.348 152.72V154.28C114.748 154.98 114.008 155.68 113.088 155.68ZM120.278 157H122.258V151.4C122.638 150.8 123.458 149.72 124.458 149.72C124.858 149.72 125.258 149.88 125.258 149.88L125.658 147.88C125.658 147.88 125.378 147.72 124.878 147.72C123.498 147.72 122.578 149 122.218 149.62V147.8L120.278 148.12V157ZM127.211 155.4C127.211 156.02 127.791 156.38 128.691 156.68C127.731 157.18 126.391 158.04 126.391 159.36C126.391 160.94 128.351 161.74 130.351 161.74C133.071 161.74 135.291 160.2 135.291 158.38C135.291 156.72 133.471 156.22 131.871 155.82C129.991 155.36 129.111 155.18 129.111 154.82C129.111 154.6 129.431 154.36 129.851 154.08C130.051 154.12 130.271 154.12 130.511 154.12C132.451 154.12 134.511 153.06 134.511 151.08C134.511 150.28 134.131 149.74 133.851 149.42C134.091 149.46 134.371 149.48 134.591 149.48H135.671L135.531 147.9C135.531 147.9 134.931 148.1 134.331 148.1H133.291C132.291 148.1 131.771 147.72 130.671 147.72C128.651 147.72 126.831 148.86 126.831 150.88C126.831 152.1 127.491 153.16 128.631 153.72C127.891 154.14 127.211 154.74 127.211 155.4ZM130.731 157.2C132.411 157.64 133.351 157.9 133.351 158.68C133.351 159.58 132.071 160.3 130.471 160.3C129.331 160.3 128.171 159.94 128.171 159.04C128.171 158.14 129.271 157.54 130.131 157.06C130.331 157.1 130.531 157.14 130.731 157.2ZM130.651 152.72C129.371 152.72 128.771 151.8 128.771 150.94C128.771 150 129.451 149.12 130.651 149.12C131.931 149.12 132.551 150.16 132.551 151.04C132.551 152.06 131.751 152.72 130.651 152.72ZM136.788 152.62C136.788 155.04 138.328 157.24 141.348 157.24C143.608 157.24 144.988 155.94 144.988 155.94L144.428 154.5C144.428 154.5 143.168 155.62 141.648 155.62C140.068 155.62 139.068 154.56 138.848 152.92L143.788 152.26L144.928 151.94C144.928 149.2 143.368 147.72 141.208 147.72C138.568 147.72 136.788 149.86 136.788 152.62ZM141.068 149.26C142.648 149.26 142.768 151.1 142.768 151.1L138.848 151.6C139.028 150.28 139.788 149.26 141.068 149.26ZM151.238 154.92C151.238 156.26 152.258 157.24 153.838 157.24C155.598 157.24 156.518 156.12 156.758 155.74C157.018 156.46 157.598 157.04 158.978 157.14L159.578 155.58C159.578 155.58 158.578 155.56 158.578 154.44V150.62C158.578 148.6 157.898 147.72 155.758 147.72C153.378 147.72 151.838 148.86 151.838 148.86L152.358 150.34C152.358 150.34 153.738 149.3 155.218 149.3C156.678 149.3 156.598 150.3 156.598 151.44C153.218 151.88 151.238 153.02 151.238 154.92ZM154.338 155.68C153.758 155.68 153.278 155.42 153.278 154.78C153.278 153.72 154.298 153.06 156.598 152.72V154.28C155.998 154.98 155.258 155.68 154.338 155.68ZM161.528 157H163.508V151.12C164.088 150.54 165.328 149.44 166.308 149.44C166.968 149.44 167.328 149.92 167.328 151.2V157H169.308V151.08C169.988 150.42 171.108 149.44 172.028 149.44C172.688 149.44 173.068 149.92 173.068 151.2V157H175.028V150.48C175.028 148.54 174.088 147.72 172.688 147.72C171.108 147.72 169.868 148.78 169.208 149.5C168.928 148.26 168.108 147.72 166.968 147.72C165.368 147.72 164.088 148.82 163.468 149.5V147.8L161.528 148.12V157ZM177.12 152.52C177.12 154.92 178.74 157.24 181.74 157.24C185 157.24 186.44 154.5 186.44 152.3C186.44 149.98 184.82 147.72 181.82 147.72C178.58 147.72 177.12 150.26 177.12 152.52ZM179.18 152.34C179.18 150.54 180.24 149.3 181.78 149.3C183.62 149.3 184.38 150.96 184.38 152.56C184.38 154.38 183.32 155.66 181.8 155.66C180 155.66 179.18 154.02 179.18 152.34ZM188.519 154.52C188.519 156.46 189.519 157.24 190.979 157.24C192.639 157.24 193.899 156.18 194.479 155.56C194.579 156.22 194.779 157.16 194.779 157.16L196.699 156.98C196.699 156.98 196.299 155.32 196.299 154.22V147.96H194.319V154.04C193.759 154.56 192.639 155.52 191.619 155.52C190.879 155.52 190.499 155.02 190.499 153.76V147.96H188.519V154.52ZM199.126 157H201.106V151.14C201.726 150.54 203.006 149.44 204.006 149.44C204.686 149.44 205.086 149.92 205.086 151.2V157H207.066V150.48C207.066 148.54 206.086 147.72 204.666 147.72C203.006 147.72 201.706 148.82 201.066 149.52V147.8L199.126 148.12V157ZM210.251 154.54C210.251 156.4 211.271 157.24 212.831 157.24C214.431 157.24 215.611 156.28 215.611 156.28L215.111 154.78C214.871 154.92 214.031 155.58 213.271 155.58C212.611 155.58 212.231 155.14 212.231 154.04V149.46H215.091V147.96H212.231V145.4L210.291 145.82V147.88L208.911 148.38V149.46H210.251V154.54ZM216.69 156.44C216.69 156.44 217.81 157.24 219.69 157.24C221.91 157.24 223.21 156.14 223.21 154.5C223.21 151.62 218.87 151.76 218.87 150.18C218.87 149.66 219.31 149.28 220.31 149.28C221.47 149.28 222.51 149.84 222.51 149.84L222.97 148.22C222.97 148.22 221.97 147.72 220.39 147.72C217.89 147.72 216.89 148.94 216.89 150.34C216.89 153.18 221.23 153.06 221.23 154.68C221.23 155.26 220.73 155.68 219.67 155.68C218.21 155.68 217.11 154.76 217.11 154.76L216.69 156.44ZM229.561 152.52C229.561 154.92 231.181 157.24 234.181 157.24C237.441 157.24 238.881 154.5 238.881 152.3C238.881 149.98 237.261 147.72 234.261 147.72C231.021 147.72 229.561 150.26 229.561 152.52ZM231.621 152.34C231.621 150.54 232.681 149.3 234.221 149.3C236.061 149.3 236.821 150.96 236.821 152.56C236.821 154.38 235.761 155.66 234.241 155.66C232.441 155.66 231.621 154.02 231.621 152.34ZM240.16 149.46H241.58V157H243.56V149.46H246.06V147.96H243.56V146.88C243.56 144.76 244.52 144.02 245.58 144.02C246.56 144.02 247.44 144.66 247.44 144.66L248.22 143.14C248.22 143.14 247.18 142.38 245.6 142.38C243.24 142.38 241.58 144.04 241.58 147V147.88L240.16 148.4V149.46ZM253.161 154.54C253.161 156.4 254.181 157.24 255.741 157.24C257.341 157.24 258.521 156.28 258.521 156.28L258.021 154.78C257.781 154.92 256.941 155.58 256.181 155.58C255.521 155.58 255.141 155.14 255.141 154.04V149.46H258.001V147.96H255.141V145.4L253.201 145.82V147.88L251.821 148.38V149.46H253.161V154.54ZM261.24 145.8C261.96 145.8 262.5 145.28 262.5 144.58C262.5 143.88 261.96 143.36 261.24 143.36C260.54 143.36 260 143.88 260 144.58C260 145.28 260.54 145.8 261.24 145.8ZM260.24 157H262.22V147.96H260.24V157ZM265.005 157H266.985V151.12C267.565 150.54 268.805 149.44 269.785 149.44C270.445 149.44 270.805 149.92 270.805 151.2V157H272.785V151.08C273.465 150.42 274.585 149.44 275.505 149.44C276.165 149.44 276.545 149.92 276.545 151.2V157H278.505V150.48C278.505 148.54 277.565 147.72 276.165 147.72C274.585 147.72 273.345 148.78 272.685 149.5C272.405 148.26 271.585 147.72 270.445 147.72C268.845 147.72 267.565 148.82 266.945 149.5V147.8L265.005 148.12V157ZM280.616 152.62C280.616 155.04 282.156 157.24 285.176 157.24C287.436 157.24 288.816 155.94 288.816 155.94L288.256 154.5C288.256 154.5 286.996 155.62 285.476 155.62C283.896 155.62 282.896 154.56 282.676 152.92L287.616 152.26L288.756 151.94C288.756 149.2 287.196 147.72 285.036 147.72C282.396 147.72 280.616 149.86 280.616 152.62ZM284.896 149.26C286.476 149.26 286.596 151.1 286.596 151.1L282.676 151.6C282.856 150.28 283.616 149.26 284.896 149.26ZM296.826 145.8C297.546 145.8 298.086 145.28 298.086 144.58C298.086 143.88 297.546 143.36 296.826 143.36C296.126 143.36 295.586 143.88 295.586 144.58C295.586 145.28 296.126 145.8 296.826 145.8ZM295.826 157H297.806V147.96H295.826V157ZM300.59 157H302.57V151.14C303.19 150.54 304.47 149.44 305.47 149.44C306.15 149.44 306.55 149.92 306.55 151.2V157H308.53V150.48C308.53 148.54 307.55 147.72 306.13 147.72C304.47 147.72 303.17 148.82 302.53 149.52V147.8L300.59 148.12V157ZM310.916 152.72H315.796V151.2H310.916V152.72ZM318.571 154.54C318.571 156.4 319.591 157.24 321.151 157.24C322.751 157.24 323.931 156.28 323.931 156.28L323.431 154.78C323.191 154.92 322.351 155.58 321.591 155.58C320.931 155.58 320.551 155.14 320.551 154.04V149.46H323.411V147.96H320.551V145.4L318.611 145.82V147.88L317.231 148.38V149.46H318.571V154.54ZM325.61 157H327.59V151.4C327.97 150.8 328.79 149.72 329.79 149.72C330.19 149.72 330.59 149.88 330.59 149.88L330.99 147.88C330.99 147.88 330.71 147.72 330.21 147.72C328.83 147.72 327.91 149 327.55 149.62V147.8L325.61 148.12V157ZM331.843 154.92C331.843 156.26 332.863 157.24 334.443 157.24C336.203 157.24 337.123 156.12 337.363 155.74C337.623 156.46 338.203 157.04 339.583 157.14L340.183 155.58C340.183 155.58 339.183 155.56 339.183 154.44V150.62C339.183 148.6 338.503 147.72 336.363 147.72C333.983 147.72 332.443 148.86 332.443 148.86L332.963 150.34C332.963 150.34 334.343 149.3 335.823 149.3C337.283 149.3 337.203 150.3 337.203 151.44C333.823 151.88 331.843 153.02 331.843 154.92ZM334.943 155.68C334.363 155.68 333.883 155.42 333.883 154.78C333.883 153.72 334.903 153.06 337.203 152.72V154.28C336.603 154.98 335.863 155.68 334.943 155.68ZM342.133 157H344.113V151.14C344.733 150.54 346.013 149.44 347.013 149.44C347.693 149.44 348.093 149.92 348.093 151.2V157H350.073V150.48C350.073 148.54 349.093 147.72 347.673 147.72C346.013 147.72 344.713 148.82 344.073 149.52V147.8L342.133 148.12V157ZM352.139 156.44C352.139 156.44 353.259 157.24 355.139 157.24C357.359 157.24 358.659 156.14 358.659 154.5C358.659 151.62 354.319 151.76 354.319 150.18C354.319 149.66 354.759 149.28 355.759 149.28C356.919 149.28 357.959 149.84 357.959 149.84L358.419 148.22C358.419 148.22 357.419 147.72 355.839 147.72C353.339 147.72 352.339 148.94 352.339 150.34C352.339 153.18 356.679 153.06 356.679 154.68C356.679 155.26 356.179 155.68 355.119 155.68C353.659 155.68 352.559 154.76 352.559 154.76L352.139 156.44ZM361.826 145.8C362.546 145.8 363.086 145.28 363.086 144.58C363.086 143.88 362.546 143.36 361.826 143.36C361.126 143.36 360.586 143.88 360.586 144.58C360.586 145.28 361.126 145.8 361.826 145.8ZM360.826 157H362.806V147.96H360.826V157ZM366.11 154.54C366.11 156.4 367.13 157.24 368.69 157.24C370.29 157.24 371.47 156.28 371.47 156.28L370.97 154.78C370.73 154.92 369.89 155.58 369.13 155.58C368.47 155.58 368.09 155.14 368.09 154.04V149.46H370.95V147.96H368.09V145.4L366.15 145.82V147.88L364.77 148.38V149.46H366.11V154.54ZM29.08 180.72H33.96V179.2H29.08V180.72ZM41.6559 185H49.9559V183.28H43.7159V171.66H41.6559V185ZM52.6656 173.8C53.3856 173.8 53.9256 173.28 53.9256 172.58C53.9256 171.88 53.3856 171.36 52.6656 171.36C51.9656 171.36 51.4256 171.88 51.4256 172.58C51.4256 173.28 51.9656 173.8 52.6656 173.8ZM51.6656 185H53.6456V175.96H51.6656V185ZM55.8303 184.44C55.8303 184.44 56.9503 185.24 58.8303 185.24C61.0503 185.24 62.3503 184.14 62.3503 182.5C62.3503 179.62 58.0103 179.76 58.0103 178.18C58.0103 177.66 58.4503 177.28 59.4503 177.28C60.6103 177.28 61.6503 177.84 61.6503 177.84L62.1103 176.22C62.1103 176.22 61.1103 175.72 59.5303 175.72C57.0303 175.72 56.0303 176.94 56.0303 178.34C56.0303 181.18 60.3703 181.06 60.3703 182.68C60.3703 183.26 59.8703 183.68 58.8103 183.68C57.3503 183.68 56.2503 182.76 56.2503 182.76L55.8303 184.44ZM64.9972 182.54C64.9972 184.4 66.0172 185.24 67.5772 185.24C69.1772 185.24 70.3572 184.28 70.3572 184.28L69.8572 182.78C69.6172 182.92 68.7772 183.58 68.0172 183.58C67.3572 183.58 66.9772 183.14 66.9772 182.04V177.46H69.8372V175.96H66.9772V173.4L65.0372 173.82V175.88L63.6572 176.38V177.46H64.9972V182.54ZM71.4758 180.62C71.4758 183.04 73.0158 185.24 76.0358 185.24C78.2958 185.24 79.6758 183.94 79.6758 183.94L79.1158 182.5C79.1158 182.5 77.8558 183.62 76.3358 183.62C74.7558 183.62 73.7558 182.56 73.5358 180.92L78.4758 180.26L79.6158 179.94C79.6158 177.2 78.0558 175.72 75.8958 175.72C73.2558 175.72 71.4758 177.86 71.4758 180.62ZM75.7558 177.26C77.3358 177.26 77.4558 179.1 77.4558 179.1L73.5358 179.6C73.7158 178.28 74.4758 177.26 75.7558 177.26ZM81.8405 185H83.8205V179.14C84.4405 178.54 85.7205 177.44 86.7205 177.44C87.4005 177.44 87.8005 177.92 87.8005 179.2V185H89.7805V178.48C89.7805 176.54 88.8005 175.72 87.3805 175.72C85.7205 175.72 84.4205 176.82 83.7805 177.52V175.8L81.8405 176.12V185ZM91.8459 184.44C91.8459 184.44 92.9659 185.24 94.8459 185.24C97.0659 185.24 98.3659 184.14 98.3659 182.5C98.3659 179.62 94.0259 179.76 94.0259 178.18C94.0259 177.66 94.4659 177.28 95.4659 177.28C96.6259 177.28 97.6659 177.84 97.6659 177.84L98.1259 176.22C98.1259 176.22 97.1259 175.72 95.5459 175.72C93.0459 175.72 92.0459 176.94 92.0459 178.34C92.0459 181.18 96.3859 181.06 96.3859 182.68C96.3859 183.26 95.8859 183.68 94.8259 183.68C93.3659 183.68 92.2659 182.76 92.2659 182.76L91.8459 184.44ZM105.818 182.54C105.818 184.4 106.838 185.24 108.398 185.24C109.998 185.24 111.178 184.28 111.178 184.28L110.678 182.78C110.438 182.92 109.598 183.58 108.838 183.58C108.178 183.58 107.798 183.14 107.798 182.04V177.46H110.658V175.96H107.798V173.4L105.858 173.82V175.88L104.478 176.38V177.46H105.818V182.54ZM112.276 180.52C112.276 182.92 113.896 185.24 116.896 185.24C120.156 185.24 121.596 182.5 121.596 180.3C121.596 177.98 119.976 175.72 116.976 175.72C113.736 175.72 112.276 178.26 112.276 180.52ZM114.336 180.34C114.336 178.54 115.396 177.3 116.936 177.3C118.776 177.3 119.536 178.96 119.536 180.56C119.536 182.38 118.476 183.66 116.956 183.66C115.156 183.66 114.336 182.02 114.336 180.34ZM128.54 185H130.52V179.12C131.1 178.54 132.34 177.44 133.32 177.44C133.98 177.44 134.34 177.92 134.34 179.2V185H136.32V179.08C137 178.42 138.12 177.44 139.04 177.44C139.7 177.44 140.08 177.92 140.08 179.2V185H142.04V178.48C142.04 176.54 141.1 175.72 139.7 175.72C138.12 175.72 136.88 176.78 136.22 177.5C135.94 176.26 135.12 175.72 133.98 175.72C132.38 175.72 131.1 176.82 130.48 177.5V175.8L128.54 176.12V185ZM144.652 182.52C144.652 184.46 145.652 185.24 147.112 185.24C148.772 185.24 150.032 184.18 150.612 183.56C150.712 184.22 150.912 185.16 150.912 185.16L152.832 184.98C152.832 184.98 152.432 183.32 152.432 182.22V175.96H150.452V182.04C149.892 182.56 148.772 183.52 147.752 183.52C147.012 183.52 146.632 183.02 146.632 181.76V175.96H144.652V182.52ZM154.658 184.44C154.658 184.44 155.778 185.24 157.658 185.24C159.878 185.24 161.178 184.14 161.178 182.5C161.178 179.62 156.838 179.76 156.838 178.18C156.838 177.66 157.278 177.28 158.278 177.28C159.438 177.28 160.478 177.84 160.478 177.84L160.938 176.22C160.938 176.22 159.938 175.72 158.358 175.72C155.858 175.72 154.858 176.94 154.858 178.34C154.858 181.18 159.198 181.06 159.198 182.68C159.198 183.26 158.698 183.68 157.638 183.68C156.178 183.68 155.078 182.76 155.078 182.76L154.658 184.44ZM164.345 173.8C165.065 173.8 165.605 173.28 165.605 172.58C165.605 171.88 165.065 171.36 164.345 171.36C163.645 171.36 163.105 171.88 163.105 172.58C163.105 173.28 163.645 173.8 164.345 173.8ZM163.345 185H165.325V175.96H163.345V185ZM167.53 180.6C167.53 183.22 169.35 185.24 172.17 185.24C174.33 185.24 175.37 184.08 175.37 184.08L174.73 182.68C174.73 182.68 173.75 183.62 172.31 183.62C170.61 183.62 169.59 182.28 169.59 180.5C169.59 178.66 170.69 177.32 172.33 177.32C173.65 177.32 174.59 178.16 174.59 178.16L175.37 176.68C175.37 176.68 174.27 175.72 172.29 175.72C169.31 175.72 167.53 178.1 167.53 180.6ZM184.033 185.08H185.953L188.273 178.64L190.353 185.08H192.293L195.533 175.96H193.513L191.333 182.76L189.213 175.96H187.493L185.153 182.8L183.173 175.96H181.133L184.033 185.08ZM197.232 185H199.212V179.18C199.812 178.58 201.112 177.44 202.112 177.44C202.792 177.44 203.192 177.92 203.192 179.2V185H205.172V178.48C205.172 176.54 204.192 175.72 202.752 175.72C201.092 175.72 199.812 176.84 199.212 177.48V170.7L197.232 171.02V185ZM208.877 173.8C209.597 173.8 210.137 173.28 210.137 172.58C210.137 171.88 209.597 171.36 208.877 171.36C208.177 171.36 207.637 171.88 207.637 172.58C207.637 173.28 208.177 173.8 208.877 173.8ZM207.877 185H209.857V175.96H207.877V185ZM212.681 185H214.661V170.7L212.681 171.02V185ZM216.886 180.62C216.886 183.04 218.426 185.24 221.446 185.24C223.706 185.24 225.086 183.94 225.086 183.94L224.526 182.5C224.526 182.5 223.266 183.62 221.746 183.62C220.166 183.62 219.166 182.56 218.946 180.92L223.886 180.26L225.026 179.94C225.026 177.2 223.466 175.72 221.306 175.72C218.666 175.72 216.886 177.86 216.886 180.62ZM221.166 177.26C222.746 177.26 222.866 179.1 222.866 179.1L218.946 179.6C219.126 178.28 219.886 177.26 221.166 177.26ZM232.055 185H234.035V179.12C234.615 178.54 235.855 177.44 236.835 177.44C237.495 177.44 237.855 177.92 237.855 179.2V185H239.835V179.08C240.515 178.42 241.635 177.44 242.555 177.44C243.215 177.44 243.595 177.92 243.595 179.2V185H245.555V178.48C245.555 176.54 244.615 175.72 243.215 175.72C241.635 175.72 240.395 176.78 239.735 177.5C239.455 176.26 238.635 175.72 237.495 175.72C235.895 175.72 234.615 176.82 233.995 177.5V175.8L232.055 176.12V185ZM248.167 182.52C248.167 184.46 249.167 185.24 250.627 185.24C252.287 185.24 253.547 184.18 254.127 183.56C254.227 184.22 254.427 185.16 254.427 185.16L256.347 184.98C256.347 184.98 255.947 183.32 255.947 182.22V175.96H253.967V182.04C253.407 182.56 252.287 183.52 251.267 183.52C250.527 183.52 250.147 183.02 250.147 181.76V175.96H248.167V182.52ZM258.814 185H260.794V170.7L258.814 171.02V185ZM264.099 182.54C264.099 184.4 265.119 185.24 266.679 185.24C268.279 185.24 269.459 184.28 269.459 184.28L268.959 182.78C268.719 182.92 267.879 183.58 267.119 183.58C266.459 183.58 266.079 183.14 266.079 182.04V177.46H268.939V175.96H266.079V173.4L264.139 173.82V175.88L262.759 176.38V177.46H264.099V182.54ZM272.177 173.8C272.897 173.8 273.437 173.28 273.437 172.58C273.437 171.88 272.897 171.36 272.177 171.36C271.477 171.36 270.937 171.88 270.937 172.58C270.937 173.28 271.477 173.8 272.177 173.8ZM271.177 185H273.157V175.96H271.177V185ZM275.662 180.72H280.542V179.2H275.662V180.72ZM283.318 182.54C283.318 184.4 284.338 185.24 285.898 185.24C287.498 185.24 288.678 184.28 288.678 184.28L288.178 182.78C287.938 182.92 287.098 183.58 286.338 183.58C285.678 183.58 285.298 183.14 285.298 182.04V177.46H288.158V175.96H285.298V173.4L283.358 173.82V175.88L281.978 176.38V177.46H283.318V182.54ZM289.636 182.92C289.636 184.26 290.656 185.24 292.236 185.24C293.996 185.24 294.916 184.12 295.156 183.74C295.416 184.46 295.996 185.04 297.376 185.14L297.976 183.58C297.976 183.58 296.976 183.56 296.976 182.44V178.62C296.976 176.6 296.296 175.72 294.156 175.72C291.776 175.72 290.236 176.86 290.236 176.86L290.756 178.34C290.756 178.34 292.136 177.3 293.616 177.3C295.076 177.3 294.996 178.3 294.996 179.44C291.616 179.88 289.636 181.02 289.636 182.92ZM292.736 183.68C292.156 183.68 291.676 183.42 291.676 182.78C291.676 181.72 292.696 181.06 294.996 180.72V182.28C294.396 182.98 293.656 183.68 292.736 183.68ZM299.326 184.44C299.326 184.44 300.446 185.24 302.326 185.24C304.546 185.24 305.846 184.14 305.846 182.5C305.846 179.62 301.506 179.76 301.506 178.18C301.506 177.66 301.946 177.28 302.946 177.28C304.106 177.28 305.146 177.84 305.146 177.84L305.606 176.22C305.606 176.22 304.606 175.72 303.026 175.72C300.526 175.72 299.526 176.94 299.526 178.34C299.526 181.18 303.866 181.06 303.866 182.68C303.866 183.26 303.366 183.68 302.306 183.68C300.846 183.68 299.746 182.76 299.746 182.76L299.326 184.44ZM308.013 185H309.993V180.72H310.273L313.873 185H316.413L312.013 179.92L316.133 175.96H313.553L310.273 179.26H309.993V170.7L308.013 171.02V185ZM318.896 173.8C319.616 173.8 320.156 173.28 320.156 172.58C320.156 171.88 319.616 171.36 318.896 171.36C318.196 171.36 317.656 171.88 317.656 172.58C317.656 173.28 318.196 173.8 318.896 173.8ZM317.896 185H319.876V175.96H317.896V185ZM322.661 185H324.641V179.14C325.261 178.54 326.541 177.44 327.541 177.44C328.221 177.44 328.621 177.92 328.621 179.2V185H330.601V178.48C330.601 176.54 329.621 175.72 328.201 175.72C326.541 175.72 325.241 176.82 324.601 177.52V175.8L322.661 176.12V185ZM333.246 183.4C333.246 184.02 333.826 184.38 334.726 184.68C333.766 185.18 332.426 186.04 332.426 187.36C332.426 188.94 334.386 189.74 336.386 189.74C339.106 189.74 341.326 188.2 341.326 186.38C341.326 184.72 339.506 184.22 337.906 183.82C336.026 183.36 335.146 183.18 335.146 182.82C335.146 182.6 335.466 182.36 335.886 182.08C336.086 182.12 336.306 182.12 336.546 182.12C338.486 182.12 340.546 181.06 340.546 179.08C340.546 178.28 340.166 177.74 339.886 177.42C340.126 177.46 340.406 177.48 340.626 177.48H341.706L341.566 175.9C341.566 175.9 340.966 176.1 340.366 176.1H339.326C338.326 176.1 337.806 175.72 336.706 175.72C334.686 175.72 332.866 176.86 332.866 178.88C332.866 180.1 333.526 181.16 334.666 181.72C333.926 182.14 333.246 182.74 333.246 183.4ZM336.766 185.2C338.446 185.64 339.386 185.9 339.386 186.68C339.386 187.58 338.106 188.3 336.506 188.3C335.366 188.3 334.206 187.94 334.206 187.04C334.206 186.14 335.306 185.54 336.166 185.06C336.366 185.1 336.566 185.14 336.766 185.2ZM336.686 180.72C335.406 180.72 334.806 179.8 334.806 178.94C334.806 178 335.486 177.12 336.686 177.12C337.966 177.12 338.586 178.16 338.586 179.04C338.586 180.06 337.786 180.72 336.686 180.72ZM29.08 209.72H33.96V208.2H29.08V209.72ZM40.7359 207.54C40.7359 211.68 43.9759 214.24 48.0159 214.24C49.9959 214.24 52.6359 213.62 52.6359 213.62V206.96H47.8159V208.68H50.5959V212.18C50.5959 212.18 49.4159 212.46 48.2559 212.46C45.0559 212.46 42.8759 210.4 42.8759 207.38C42.8759 204.68 44.6159 202.2 48.0159 202.2C50.1959 202.2 51.7959 203.2 51.7959 203.2L52.5959 201.42C52.5959 201.42 50.8159 200.42 48.1159 200.42C43.3959 200.42 40.7359 203.78 40.7359 207.54ZM54.6789 209.62C54.6789 212.04 56.2189 214.24 59.2389 214.24C61.4989 214.24 62.8789 212.94 62.8789 212.94L62.3189 211.5C62.3189 211.5 61.0589 212.62 59.5389 212.62C57.9589 212.62 56.9589 211.56 56.7389 209.92L61.6789 209.26L62.8189 208.94C62.8189 206.2 61.2589 204.72 59.0989 204.72C56.4589 204.72 54.6789 206.86 54.6789 209.62ZM58.9589 206.26C60.5389 206.26 60.6589 208.1 60.6589 208.1L56.7389 208.6C56.9189 207.28 57.6789 206.26 58.9589 206.26ZM64.4636 209.52C64.4636 211.92 66.0836 214.24 69.0836 214.24C72.3436 214.24 73.7836 211.5 73.7836 209.3C73.7836 206.98 72.1636 204.72 69.1636 204.72C65.9236 204.72 64.4636 207.26 64.4636 209.52ZM66.5236 209.34C66.5236 207.54 67.5836 206.3 69.1236 206.3C70.9636 206.3 71.7236 207.96 71.7236 209.56C71.7236 211.38 70.6636 212.66 69.1436 212.66C67.3436 212.66 66.5236 211.02 66.5236 209.34ZM75.9025 212.4C75.9025 213.02 76.4825 213.38 77.3825 213.68C76.4225 214.18 75.0825 215.04 75.0825 216.36C75.0825 217.94 77.0425 218.74 79.0425 218.74C81.7625 218.74 83.9825 217.2 83.9825 215.38C83.9825 213.72 82.1625 213.22 80.5625 212.82C78.6825 212.36 77.8025 212.18 77.8025 211.82C77.8025 211.6 78.1225 211.36 78.5425 211.08C78.7425 211.12 78.9625 211.12 79.2025 211.12C81.1425 211.12 83.2025 210.06 83.2025 208.08C83.2025 207.28 82.8225 206.74 82.5425 206.42C82.7825 206.46 83.0625 206.48 83.2825 206.48H84.3625L84.2225 204.9C84.2225 204.9 83.6225 205.1 83.0225 205.1H81.9825C80.9825 205.1 80.4625 204.72 79.3625 204.72C77.3425 204.72 75.5225 205.86 75.5225 207.88C75.5225 209.1 76.1825 210.16 77.3225 210.72C76.5825 211.14 75.9025 211.74 75.9025 212.4ZM79.4225 214.2C81.1025 214.64 82.0425 214.9 82.0425 215.68C82.0425 216.58 80.7625 217.3 79.1625 217.3C78.0225 217.3 76.8625 216.94 76.8625 216.04C76.8625 215.14 77.9625 214.54 78.8225 214.06C79.0225 214.1 79.2225 214.14 79.4225 214.2ZM79.3425 209.72C78.0625 209.72 77.4625 208.8 77.4625 207.94C77.4625 207 78.1425 206.12 79.3425 206.12C80.6225 206.12 81.2425 207.16 81.2425 208.04C81.2425 209.06 80.4425 209.72 79.3425 209.72ZM86.0397 214H88.0197V208.4C88.3997 207.8 89.2197 206.72 90.2197 206.72C90.6197 206.72 91.0197 206.88 91.0197 206.88L91.4197 204.88C91.4197 204.88 91.1397 204.72 90.6397 204.72C89.2597 204.72 88.3397 206 87.9797 206.62V204.8L86.0397 205.12V214ZM92.2728 211.92C92.2728 213.26 93.2928 214.24 94.8728 214.24C96.6328 214.24 97.5528 213.12 97.7928 212.74C98.0528 213.46 98.6328 214.04 100.013 214.14L100.613 212.58C100.613 212.58 99.6128 212.56 99.6128 211.44V207.62C99.6128 205.6 98.9328 204.72 96.7928 204.72C94.4128 204.72 92.8728 205.86 92.8728 205.86L93.3928 207.34C93.3928 207.34 94.7728 206.3 96.2528 206.3C97.7128 206.3 97.6328 207.3 97.6328 208.44C94.2528 208.88 92.2728 210.02 92.2728 211.92ZM95.3728 212.68C94.7928 212.68 94.3128 212.42 94.3128 211.78C94.3128 210.72 95.3328 210.06 97.6328 209.72V211.28C97.0328 211.98 96.2928 212.68 95.3728 212.68ZM102.563 218.66L104.543 218.34V213.76C104.923 214.04 105.603 214.24 106.443 214.24C109.323 214.24 111.003 211.88 111.003 209.2C111.003 206.74 109.563 204.72 107.183 204.72C105.763 204.72 104.903 205.46 104.483 206.24V204.8L102.563 205.12V218.66ZM106.843 206.36C108.063 206.36 108.923 207.46 108.923 209.34C108.923 211.5 107.783 212.68 106.083 212.68C105.143 212.68 104.543 212.34 104.543 211.66V207.82C104.803 207.44 105.643 206.36 106.843 206.36ZM113.209 214H115.189V208.18C115.789 207.58 117.089 206.44 118.089 206.44C118.769 206.44 119.169 206.92 119.169 208.2V214H121.149V207.48C121.149 205.54 120.169 204.72 118.729 204.72C117.069 204.72 115.789 205.84 115.189 206.48V199.7L113.209 200.02V214ZM124.853 202.8C125.573 202.8 126.113 202.28 126.113 201.58C126.113 200.88 125.573 200.36 124.853 200.36C124.153 200.36 123.613 200.88 123.613 201.58C123.613 202.28 124.153 202.8 124.853 202.8ZM123.853 214H125.833V204.96H123.853V214ZM128.038 209.6C128.038 212.22 129.858 214.24 132.678 214.24C134.838 214.24 135.878 213.08 135.878 213.08L135.238 211.68C135.238 211.68 134.258 212.62 132.818 212.62C131.118 212.62 130.098 211.28 130.098 209.5C130.098 207.66 131.198 206.32 132.838 206.32C134.158 206.32 135.098 207.16 135.098 207.16L135.878 205.68C135.878 205.68 134.778 204.72 132.798 204.72C129.818 204.72 128.038 207.1 128.038 209.6ZM137.117 211.92C137.117 213.26 138.137 214.24 139.717 214.24C141.477 214.24 142.397 213.12 142.637 212.74C142.897 213.46 143.477 214.04 144.857 214.14L145.457 212.58C145.457 212.58 144.457 212.56 144.457 211.44V207.62C144.457 205.6 143.777 204.72 141.637 204.72C139.257 204.72 137.717 205.86 137.717 205.86L138.237 207.34C138.237 207.34 139.617 206.3 141.097 206.3C142.557 206.3 142.477 207.3 142.477 208.44C139.097 208.88 137.117 210.02 137.117 211.92ZM140.217 212.68C139.637 212.68 139.157 212.42 139.157 211.78C139.157 210.72 140.177 210.06 142.477 209.72V211.28C141.877 211.98 141.137 212.68 140.217 212.68ZM147.447 214H149.427V199.7L147.447 200.02V214ZM152.252 214H154.232V199.7L152.252 200.02V214ZM155.976 217.16L156.596 218.74C158.716 218.5 160.036 216.6 160.816 214.68L164.736 204.96H162.696L160.356 211.16L157.976 204.96H155.876L159.376 213.54L158.896 214.62C158.356 215.88 157.296 216.94 155.976 217.16ZM170.398 211.92C170.398 213.26 171.418 214.24 172.998 214.24C174.758 214.24 175.678 213.12 175.918 212.74C176.178 213.46 176.758 214.04 178.138 214.14L178.738 212.58C178.738 212.58 177.738 212.56 177.738 211.44V207.62C177.738 205.6 177.058 204.72 174.918 204.72C172.538 204.72 170.998 205.86 170.998 205.86L171.518 207.34C171.518 207.34 172.898 206.3 174.378 206.3C175.838 206.3 175.758 207.3 175.758 208.44C172.378 208.88 170.398 210.02 170.398 211.92ZM173.498 212.68C172.918 212.68 172.438 212.42 172.438 211.78C172.438 210.72 173.458 210.06 175.758 209.72V211.28C175.158 211.98 174.418 212.68 173.498 212.68ZM180.688 214H182.668V208.14C183.288 207.54 184.568 206.44 185.568 206.44C186.248 206.44 186.648 206.92 186.648 208.2V214H188.628V207.48C188.628 205.54 187.648 204.72 186.228 204.72C184.568 204.72 183.268 205.82 182.628 206.52V204.8L180.688 205.12V214ZM190.734 209.76C190.734 212.24 192.254 214.24 194.614 214.24C196.054 214.24 196.974 213.54 197.454 212.76C197.554 213.4 197.734 214.14 197.734 214.14L199.634 214C199.634 214 199.234 212.32 199.234 211.22V199.7L197.254 200.02V205.02C196.994 204.92 196.394 204.72 195.574 204.72C192.374 204.72 190.734 207.18 190.734 209.76ZM194.954 212.66C193.674 212.66 192.814 211.52 192.814 209.64C192.814 207.48 193.954 206.28 195.674 206.28C196.494 206.28 197.214 206.58 197.254 207.48V211.2C196.974 211.62 196.174 212.66 194.954 212.66ZM206.28 209.62C206.28 212.04 207.82 214.24 210.84 214.24C213.1 214.24 214.48 212.94 214.48 212.94L213.92 211.5C213.92 211.5 212.66 212.62 211.14 212.62C209.56 212.62 208.56 211.56 208.34 209.92L213.28 209.26L214.42 208.94C214.42 206.2 212.86 204.72 210.7 204.72C208.06 204.72 206.28 206.86 206.28 209.62ZM210.56 206.26C212.14 206.26 212.26 208.1 212.26 208.1L208.34 208.6C208.52 207.28 209.28 206.26 210.56 206.26ZM217.165 211.54C217.165 213.4 218.185 214.24 219.745 214.24C221.345 214.24 222.525 213.28 222.525 213.28L222.025 211.78C221.785 211.92 220.945 212.58 220.185 212.58C219.525 212.58 219.145 212.14 219.145 211.04V206.46H222.005V204.96H219.145V202.4L217.205 202.82V204.88L215.825 205.38V206.46H217.165V211.54ZM224.244 214H226.224V208.18C226.824 207.58 228.124 206.44 229.124 206.44C229.804 206.44 230.204 206.92 230.204 208.2V214H232.184V207.48C232.184 205.54 231.204 204.72 229.764 204.72C228.104 204.72 226.824 205.84 226.224 206.48V199.7L224.244 200.02V214ZM234.848 214H236.828V208.14C237.448 207.54 238.728 206.44 239.728 206.44C240.408 206.44 240.808 206.92 240.808 208.2V214H242.788V207.48C242.788 205.54 241.808 204.72 240.388 204.72C238.728 204.72 237.428 205.82 236.788 206.52V204.8L234.848 205.12V214ZM246.494 202.8C247.214 202.8 247.754 202.28 247.754 201.58C247.754 200.88 247.214 200.36 246.494 200.36C245.794 200.36 245.254 200.88 245.254 201.58C245.254 202.28 245.794 202.8 246.494 202.8ZM245.494 214H247.474V204.96H245.494V214ZM249.678 209.6C249.678 212.22 251.498 214.24 254.318 214.24C256.478 214.24 257.518 213.08 257.518 213.08L256.878 211.68C256.878 211.68 255.898 212.62 254.458 212.62C252.758 212.62 251.738 211.28 251.738 209.5C251.738 207.66 252.838 206.32 254.478 206.32C255.798 206.32 256.738 207.16 256.738 207.16L257.518 205.68C257.518 205.68 256.418 204.72 254.438 204.72C251.458 204.72 249.678 207.1 249.678 209.6ZM258.757 211.92C258.757 213.26 259.777 214.24 261.357 214.24C263.117 214.24 264.037 213.12 264.277 212.74C264.537 213.46 265.117 214.04 266.497 214.14L267.097 212.58C267.097 212.58 266.097 212.56 266.097 211.44V207.62C266.097 205.6 265.417 204.72 263.277 204.72C260.897 204.72 259.357 205.86 259.357 205.86L259.877 207.34C259.877 207.34 261.257 206.3 262.737 206.3C264.197 206.3 264.117 207.3 264.117 208.44C260.737 208.88 258.757 210.02 258.757 211.92ZM261.857 212.68C261.277 212.68 260.797 212.42 260.797 211.78C260.797 210.72 261.817 210.06 264.117 209.72V211.28C263.517 211.98 262.777 212.68 261.857 212.68ZM269.088 214H271.068V199.7L269.088 200.02V214ZM273.892 214H275.872V199.7L273.892 200.02V214ZM277.617 217.16L278.237 218.74C280.357 218.5 281.677 216.6 282.457 214.68L286.377 204.96H284.337L281.997 211.16L279.617 204.96H277.517L281.017 213.54L280.537 214.62C279.997 215.88 278.937 216.94 277.617 217.16ZM292.198 209.76C292.198 212.24 293.718 214.24 296.078 214.24C297.518 214.24 298.438 213.54 298.918 212.76C299.018 213.4 299.198 214.14 299.198 214.14L301.098 214C301.098 214 300.698 212.32 300.698 211.22V199.7L298.718 200.02V205.02C298.458 204.92 297.858 204.72 297.038 204.72C293.838 204.72 292.198 207.18 292.198 209.76ZM296.418 212.66C295.138 212.66 294.278 211.52 294.278 209.64C294.278 207.48 295.418 206.28 297.138 206.28C297.958 206.28 298.678 206.58 298.718 207.48V211.2C298.438 211.62 297.638 212.66 296.418 212.66ZM304.541 202.8C305.261 202.8 305.801 202.28 305.801 201.58C305.801 200.88 305.261 200.36 304.541 200.36C303.841 200.36 303.301 200.88 303.301 201.58C303.301 202.28 303.841 202.8 304.541 202.8ZM303.541 214H305.521V204.96H303.541V214ZM310.485 214.08H312.325L316.045 204.96H314.025L311.485 211.52L309.285 204.96H307.205L310.485 214.08ZM316.964 209.62C316.964 212.04 318.504 214.24 321.524 214.24C323.784 214.24 325.164 212.94 325.164 212.94L324.604 211.5C324.604 211.5 323.344 212.62 321.824 212.62C320.244 212.62 319.244 211.56 319.024 209.92L323.964 209.26L325.104 208.94C325.104 206.2 323.544 204.72 321.384 204.72C318.744 204.72 316.964 206.86 316.964 209.62ZM321.244 206.26C322.824 206.26 322.944 208.1 322.944 208.1L319.024 208.6C319.204 207.28 319.964 206.26 321.244 206.26ZM327.329 214H329.309V208.4C329.689 207.8 330.509 206.72 331.509 206.72C331.909 206.72 332.309 206.88 332.309 206.88L332.709 204.88C332.709 204.88 332.429 204.72 331.929 204.72C330.549 204.72 329.629 206 329.269 206.62V204.8L327.329 205.12V214ZM333.682 213.44C333.682 213.44 334.802 214.24 336.682 214.24C338.902 214.24 340.202 213.14 340.202 211.5C340.202 208.62 335.862 208.76 335.862 207.18C335.862 206.66 336.302 206.28 337.302 206.28C338.462 206.28 339.502 206.84 339.502 206.84L339.962 205.22C339.962 205.22 338.962 204.72 337.382 204.72C334.882 204.72 333.882 205.94 333.882 207.34C333.882 210.18 338.222 210.06 338.222 211.68C338.222 212.26 337.722 212.68 336.662 212.68C335.202 212.68 334.102 211.76 334.102 211.76L333.682 213.44ZM341.769 209.62C341.769 212.04 343.309 214.24 346.329 214.24C348.589 214.24 349.969 212.94 349.969 212.94L349.409 211.5C349.409 211.5 348.149 212.62 346.629 212.62C345.049 212.62 344.049 211.56 343.829 209.92L348.769 209.26L349.909 208.94C349.909 206.2 348.349 204.72 346.189 204.72C343.549 204.72 341.769 206.86 341.769 209.62ZM346.049 206.26C347.629 206.26 347.749 208.1 347.749 208.1L343.829 208.6C344.009 207.28 344.769 206.26 346.049 206.26Z" fill="#333333"/>
</svg>
