<svg width="472" height="248" viewBox="0 0 472 248" fill="none" xmlns="http://www.w3.org/2000/svg">
<path d="M3 3H469V245H3V3Z" fill="white" stroke="#828282" stroke-width="6"/>
<path d="M35.11 31.778C31.51 31.778 28.864 34.478 28.864 38.006C28.864 41.534 31.51 44.234 35.11 44.234C38.71 44.234 41.356 41.534 41.356 38.006C41.356 34.478 38.71 31.778 35.11 31.778ZM35.11 42.542C32.536 42.542 30.7 40.67 30.7 38.006C30.7 35.342 32.536 33.47 35.11 33.47C37.684 33.47 39.52 35.342 39.52 38.006C39.52 40.67 37.684 42.542 35.11 42.542ZM44.3807 31.994V44H46.2167V39.122H47.0447C47.9267 39.122 49.0247 38.996 49.9787 38.186C50.9687 37.34 51.1487 36.26 51.1487 35.558C51.1487 34.46 50.6627 33.308 49.6547 32.642C48.7907 32.066 47.7647 31.994 47.0267 31.994H44.3807ZM46.2167 33.686H47.0267C49.1147 33.686 49.3847 34.874 49.3847 35.54C49.3847 36.656 48.6287 37.43 47.0447 37.43H46.2167V33.686ZM53.7491 31.994V44H55.5851V39.122H56.4131C57.2951 39.122 58.3931 38.996 59.3471 38.186C60.3371 37.34 60.5171 36.26 60.5171 35.558C60.5171 34.46 60.0311 33.308 59.0231 32.642C58.1591 32.066 57.1331 31.994 56.3951 31.994H53.7491ZM55.5851 33.686H56.3951C58.4831 33.686 58.7531 34.874 58.7531 35.54C58.7531 36.656 57.9971 37.43 56.4131 37.43H55.5851V33.686ZM68.7876 31.778C65.1876 31.778 62.5416 34.478 62.5416 38.006C62.5416 41.534 65.1876 44.234 68.7876 44.234C72.3876 44.234 75.0336 41.534 75.0336 38.006C75.0336 34.478 72.3876 31.778 68.7876 31.778ZM68.7876 42.542C66.2136 42.542 64.3776 40.67 64.3776 38.006C64.3776 35.342 66.2136 33.47 68.7876 33.47C71.3616 33.47 73.1976 35.342 73.1976 38.006C73.1976 40.67 71.3616 42.542 68.7876 42.542ZM78.0583 31.994V44H79.8943V39.086H80.2183L83.6563 44H85.8703L82.1263 38.87C83.7283 38.51 84.7903 37.25 84.7903 35.522C84.7903 35 84.6823 33.578 83.3683 32.696C82.5943 32.174 81.6583 31.994 80.2003 31.994H78.0583ZM79.8943 33.686H80.5243C81.4243 33.686 83.0263 33.848 83.0263 35.54C83.0263 37.448 80.9743 37.502 80.4703 37.502H79.8943V33.686ZM94.4775 33.722V31.994H87.1335V33.722H89.8875V44H91.7235V33.722H94.4775ZM96.8127 31.994V39.716C96.8127 40.67 97.0107 41.822 97.9287 42.83C98.5587 43.514 99.6207 44.234 101.259 44.234C102.897 44.234 103.959 43.514 104.589 42.83C105.507 41.822 105.705 40.67 105.705 39.716V31.994H103.869V39.23C103.869 39.878 103.851 40.67 103.491 41.3C103.131 41.912 102.321 42.542 101.259 42.542C100.197 42.542 99.3867 41.912 99.0267 41.3C98.6667 40.67 98.6487 39.878 98.6487 39.23V31.994H96.8127ZM111.146 44V35.612L119.858 44.738V31.994H118.022V40.31L109.31 31.184V44H111.146ZM123.46 31.994V44H125.296V31.994H123.46ZM134.975 33.722V31.994H127.631V33.722H130.385V44H132.221V33.722H134.975ZM137.31 31.994V44H139.146V31.994H137.31ZM149.365 31.994H142.741V44H149.365V42.272H144.577V38.492H149.221V36.764H144.577V33.722H149.365V31.994ZM159.121 33.794C158.869 33.29 158.527 32.876 158.203 32.588C157.825 32.264 157.087 31.778 155.791 31.778C153.541 31.778 152.281 33.326 152.281 34.946C152.281 36.746 153.739 37.574 154.729 37.988L155.881 38.474C156.673 38.798 157.609 39.302 157.609 40.526C157.609 41.732 156.745 42.542 155.629 42.542C154.909 42.542 154.405 42.254 154.063 41.822C153.775 41.444 153.559 40.886 153.559 40.292L151.741 40.688C151.813 41.516 152.101 42.308 152.749 43.028C153.361 43.712 154.189 44.234 155.575 44.234C157.825 44.234 159.445 42.668 159.445 40.382C159.445 39.014 158.833 37.754 156.619 36.854L155.413 36.368C154.243 35.9 154.117 35.27 154.117 34.91C154.117 34.136 154.693 33.47 155.809 33.47C156.331 33.47 156.727 33.596 157.105 33.902C157.375 34.136 157.537 34.388 157.645 34.658L159.121 33.794ZM29.08 98.72H33.96V97.2H29.08V98.72ZM40.0359 103H42.0959L43.3959 99.44H48.7159L50.0359 103H52.1559L47.0759 89.56H45.1159L40.0359 103ZM46.0559 92.2L48.0959 97.72H44.0359L46.0559 92.2ZM53.7555 103H55.7355V88.7L53.7555 89.02V103ZM58.5602 103H60.5402V88.7L58.5602 89.02V103ZM62.7448 98.52C62.7448 100.92 64.3648 103.24 67.3648 103.24C70.6248 103.24 72.0648 100.5 72.0648 98.3C72.0648 95.98 70.4448 93.72 67.4448 93.72C64.2048 93.72 62.7448 96.26 62.7448 98.52ZM64.8048 98.34C64.8048 96.54 65.8648 95.3 67.4048 95.3C69.2448 95.3 70.0048 96.96 70.0048 98.56C70.0048 100.38 68.9448 101.66 67.4248 101.66C65.6248 101.66 64.8048 100.02 64.8048 98.34ZM76.1038 103.08H78.0238L80.3438 96.64L82.4238 103.08H84.3638L87.6038 93.96H85.5838L83.4037 100.76L81.2838 93.96H79.5638L77.2238 100.8L75.2438 93.96H73.2038L76.1038 103.08ZM94.007 100.52C94.007 102.46 95.007 103.24 96.467 103.24C98.127 103.24 99.387 102.18 99.967 101.56C100.067 102.22 100.267 103.16 100.267 103.16L102.187 102.98C102.187 102.98 101.787 101.32 101.787 100.22V93.96H99.807V100.04C99.247 100.56 98.127 101.52 97.107 101.52C96.367 101.52 95.987 101.02 95.987 99.76V93.96H94.007V100.52ZM104.014 102.44C104.014 102.44 105.134 103.24 107.014 103.24C109.234 103.24 110.534 102.14 110.534 100.5C110.534 97.62 106.194 97.76 106.194 96.18C106.194 95.66 106.634 95.28 107.634 95.28C108.794 95.28 109.834 95.84 109.834 95.84L110.294 94.22C110.294 94.22 109.294 93.72 107.714 93.72C105.214 93.72 104.214 94.94 104.214 96.34C104.214 99.18 108.554 99.06 108.554 100.68C108.554 101.26 108.054 101.68 106.994 101.68C105.534 101.68 104.434 100.76 104.434 100.76L104.014 102.44ZM112.101 98.62C112.101 101.04 113.641 103.24 116.661 103.24C118.921 103.24 120.301 101.94 120.301 101.94L119.741 100.5C119.741 100.5 118.481 101.62 116.961 101.62C115.381 101.62 114.381 100.56 114.161 98.92L119.101 98.26L120.241 97.94C120.241 95.2 118.681 93.72 116.521 93.72C113.881 93.72 112.101 95.86 112.101 98.62ZM116.381 95.26C117.961 95.26 118.081 97.1 118.081 97.1L114.161 97.6C114.341 96.28 115.101 95.26 116.381 95.26ZM122.465 103H124.445V97.4C124.825 96.8 125.645 95.72 126.645 95.72C127.045 95.72 127.445 95.88 127.445 95.88L127.845 93.88C127.845 93.88 127.565 93.72 127.065 93.72C125.685 93.72 124.765 95 124.405 95.62V93.8L122.465 94.12V103ZM128.819 102.44C128.819 102.44 129.939 103.24 131.819 103.24C134.039 103.24 135.339 102.14 135.339 100.5C135.339 97.62 130.999 97.76 130.999 96.18C130.999 95.66 131.439 95.28 132.439 95.28C133.599 95.28 134.639 95.84 134.639 95.84L135.099 94.22C135.099 94.22 134.099 93.72 132.519 93.72C130.019 93.72 129.019 94.94 129.019 96.34C129.019 99.18 133.359 99.06 133.359 100.68C133.359 101.26 132.859 101.68 131.799 101.68C130.339 101.68 129.239 100.76 129.239 100.76L128.819 102.44ZM142.79 100.54C142.79 102.4 143.81 103.24 145.37 103.24C146.97 103.24 148.15 102.28 148.15 102.28L147.65 100.78C147.41 100.92 146.57 101.58 145.81 101.58C145.15 101.58 144.77 101.14 144.77 100.04V95.46H147.63V93.96H144.77V91.4L142.83 91.82V93.88L141.45 94.38V95.46H142.79V100.54ZM149.249 98.52C149.249 100.92 150.869 103.24 153.869 103.24C157.129 103.24 158.569 100.5 158.569 98.3C158.569 95.98 156.949 93.72 153.949 93.72C150.709 93.72 149.249 96.26 149.249 98.52ZM151.309 98.34C151.309 96.54 152.369 95.3 153.909 95.3C155.749 95.3 156.509 96.96 156.509 98.56C156.509 100.38 155.449 101.66 153.929 101.66C152.129 101.66 151.309 100.02 151.309 98.34ZM165.492 101.4C165.492 102.02 166.072 102.38 166.972 102.68C166.012 103.18 164.672 104.04 164.672 105.36C164.672 106.94 166.632 107.74 168.632 107.74C171.352 107.74 173.572 106.2 173.572 104.38C173.572 102.72 171.752 102.22 170.152 101.82C168.272 101.36 167.392 101.18 167.392 100.82C167.392 100.6 167.712 100.36 168.132 100.08C168.332 100.12 168.552 100.12 168.792 100.12C170.732 100.12 172.792 99.06 172.792 97.08C172.792 96.28 172.412 95.74 172.132 95.42C172.372 95.46 172.652 95.48 172.872 95.48H173.952L173.812 93.9C173.812 93.9 173.212 94.1 172.612 94.1H171.572C170.572 94.1 170.052 93.72 168.952 93.72C166.932 93.72 165.112 94.86 165.112 96.88C165.112 98.1 165.772 99.16 166.912 99.72C166.172 100.14 165.492 100.74 165.492 101.4ZM169.012 103.2C170.692 103.64 171.632 103.9 171.632 104.68C171.632 105.58 170.352 106.3 168.752 106.3C167.612 106.3 166.452 105.94 166.452 105.04C166.452 104.14 167.552 103.54 168.412 103.06C168.612 103.1 168.812 103.14 169.012 103.2ZM168.932 98.72C167.652 98.72 167.052 97.8 167.052 96.94C167.052 96 167.732 95.12 168.932 95.12C170.212 95.12 170.832 96.16 170.832 97.04C170.832 98.06 170.032 98.72 168.932 98.72ZM176.67 91.8C177.39 91.8 177.93 91.28 177.93 90.58C177.93 89.88 177.39 89.36 176.67 89.36C175.97 89.36 175.43 89.88 175.43 90.58C175.43 91.28 175.97 91.8 176.67 91.8ZM175.67 103H177.65V93.96H175.67V103ZM182.614 103.08H184.454L188.174 93.96H186.154L183.614 100.52L181.414 93.96H179.334L182.614 103.08ZM189.093 98.62C189.093 101.04 190.633 103.24 193.653 103.24C195.913 103.24 197.293 101.94 197.293 101.94L196.733 100.5C196.733 100.5 195.473 101.62 193.953 101.62C192.373 101.62 191.373 100.56 191.153 98.92L196.093 98.26L197.233 97.94C197.233 95.2 195.673 93.72 193.513 93.72C190.873 93.72 189.093 95.86 189.093 98.62ZM193.373 95.26C194.953 95.26 195.073 97.1 195.073 97.1L191.153 97.6C191.333 96.28 192.093 95.26 193.373 95.26ZM204.262 103H206.242V97.12C206.822 96.54 208.062 95.44 209.042 95.44C209.702 95.44 210.062 95.92 210.062 97.2V103H212.042V97.08C212.722 96.42 213.842 95.44 214.762 95.44C215.422 95.44 215.802 95.92 215.802 97.2V103H217.762V96.48C217.762 94.54 216.822 93.72 215.422 93.72C213.842 93.72 212.602 94.78 211.942 95.5C211.662 94.26 210.842 93.72 209.702 93.72C208.102 93.72 206.822 94.82 206.202 95.5V93.8L204.262 94.12V103ZM219.854 98.52C219.854 100.92 221.474 103.24 224.474 103.24C227.734 103.24 229.174 100.5 229.174 98.3C229.174 95.98 227.554 93.72 224.554 93.72C221.314 93.72 219.854 96.26 219.854 98.52ZM221.914 98.34C221.914 96.54 222.974 95.3 224.514 95.3C226.354 95.3 227.114 96.96 227.114 98.56C227.114 100.38 226.054 101.66 224.534 101.66C222.734 101.66 221.914 100.02 221.914 98.34ZM231.313 103H233.293V97.4C233.673 96.8 234.493 95.72 235.493 95.72C235.893 95.72 236.293 95.88 236.293 95.88L236.693 93.88C236.693 93.88 236.413 93.72 235.913 93.72C234.533 93.72 233.613 95 233.253 95.62V93.8L231.313 94.12V103ZM237.55 98.62C237.55 101.04 239.09 103.24 242.11 103.24C244.37 103.24 245.75 101.94 245.75 101.94L245.19 100.5C245.19 100.5 243.93 101.62 242.41 101.62C240.83 101.62 239.83 100.56 239.61 98.92L244.55 98.26L245.69 97.94C245.69 95.2 244.13 93.72 241.97 93.72C239.33 93.72 237.55 95.86 237.55 98.62ZM241.83 95.26C243.41 95.26 243.53 97.1 243.53 97.1L239.61 97.6C239.79 96.28 240.55 95.26 241.83 95.26ZM252.159 98.76C252.159 101.24 253.679 103.24 256.039 103.24C257.479 103.24 258.399 102.54 258.879 101.76C258.979 102.4 259.159 103.14 259.159 103.14L261.059 103C261.059 103 260.659 101.32 260.659 100.22V88.7L258.679 89.02V94.02C258.419 93.92 257.819 93.72 256.999 93.72C253.799 93.72 252.159 96.18 252.159 98.76ZM256.379 101.66C255.099 101.66 254.239 100.52 254.239 98.64C254.239 96.48 255.379 95.28 257.099 95.28C257.919 95.28 258.639 95.58 258.679 96.48V100.2C258.399 100.62 257.599 101.66 256.379 101.66ZM262.902 98.62C262.902 101.04 264.442 103.24 267.462 103.24C269.722 103.24 271.102 101.94 271.102 101.94L270.542 100.5C270.542 100.5 269.282 101.62 267.762 101.62C266.182 101.62 265.182 100.56 264.962 98.92L269.902 98.26L271.042 97.94C271.042 95.2 269.482 93.72 267.322 93.72C264.682 93.72 262.902 95.86 262.902 98.62ZM267.182 95.26C268.762 95.26 268.882 97.1 268.882 97.1L264.962 97.6C265.142 96.28 265.902 95.26 267.182 95.26ZM273.786 100.54C273.786 102.4 274.806 103.24 276.366 103.24C277.966 103.24 279.146 102.28 279.146 102.28L278.646 100.78C278.406 100.92 277.566 101.58 276.806 101.58C276.146 101.58 275.766 101.14 275.766 100.04V95.46H278.626V93.96H275.766V91.4L273.826 91.82V93.88L272.446 94.38V95.46H273.786V100.54ZM280.105 100.92C280.105 102.26 281.125 103.24 282.705 103.24C284.465 103.24 285.385 102.12 285.625 101.74C285.885 102.46 286.465 103.04 287.845 103.14L288.445 101.58C288.445 101.58 287.445 101.56 287.445 100.44V96.62C287.445 94.6 286.765 93.72 284.625 93.72C282.245 93.72 280.705 94.86 280.705 94.86L281.225 96.34C281.225 96.34 282.605 95.3 284.085 95.3C285.545 95.3 285.465 96.3 285.465 97.44C282.085 97.88 280.105 99.02 280.105 100.92ZM283.205 101.68C282.625 101.68 282.145 101.42 282.145 100.78C282.145 99.72 283.165 99.06 285.465 98.72V100.28C284.865 100.98 284.125 101.68 283.205 101.68ZM291.435 91.8C292.155 91.8 292.695 91.28 292.695 90.58C292.695 89.88 292.155 89.36 291.435 89.36C290.735 89.36 290.195 89.88 290.195 90.58C290.195 91.28 290.735 91.8 291.435 91.8ZM290.435 103H292.415V93.96H290.435V103ZM295.24 103H297.22V88.7L295.24 89.02V103ZM299.445 98.62C299.445 101.04 300.985 103.24 304.005 103.24C306.265 103.24 307.645 101.94 307.645 101.94L307.085 100.5C307.085 100.5 305.825 101.62 304.305 101.62C302.725 101.62 301.725 100.56 301.505 98.92L306.445 98.26L307.585 97.94C307.585 95.2 306.025 93.72 303.865 93.72C301.225 93.72 299.445 95.86 299.445 98.62ZM303.725 95.26C305.305 95.26 305.425 97.1 305.425 97.1L301.505 97.6C301.685 96.28 302.445 95.26 303.725 95.26ZM309.249 98.76C309.249 101.24 310.769 103.24 313.129 103.24C314.569 103.24 315.489 102.54 315.969 101.76C316.069 102.4 316.249 103.14 316.249 103.14L318.149 103C318.149 103 317.749 101.32 317.749 100.22V88.7L315.769 89.02V94.02C315.509 93.92 314.909 93.72 314.089 93.72C310.889 93.72 309.249 96.18 309.249 98.76ZM313.469 101.66C312.189 101.66 311.329 100.52 311.329 98.64C311.329 96.48 312.469 95.28 314.189 95.28C315.009 95.28 315.729 95.58 315.769 96.48V100.2C315.489 100.62 314.689 101.66 313.469 101.66ZM324.496 95.46H325.916V103H327.896V95.46H330.396V93.96H327.896V92.88C327.896 90.76 328.856 90.02 329.916 90.02C330.896 90.02 331.776 90.66 331.776 90.66L332.556 89.14C332.556 89.14 331.516 88.38 329.936 88.38C327.576 88.38 325.916 90.04 325.916 93V93.88L324.496 94.4V95.46ZM331.476 98.62C331.476 101.04 333.016 103.24 336.036 103.24C338.296 103.24 339.676 101.94 339.676 101.94L339.116 100.5C339.116 100.5 337.856 101.62 336.336 101.62C334.756 101.62 333.756 100.56 333.536 98.92L338.476 98.26L339.616 97.94C339.616 95.2 338.056 93.72 335.896 93.72C333.256 93.72 331.476 95.86 331.476 98.62ZM335.756 95.26C337.336 95.26 337.456 97.1 337.456 97.1L333.536 97.6C333.716 96.28 334.476 95.26 335.756 95.26ZM341.28 98.62C341.28 101.04 342.82 103.24 345.84 103.24C348.1 103.24 349.48 101.94 349.48 101.94L348.92 100.5C348.92 100.5 347.66 101.62 346.14 101.62C344.56 101.62 343.56 100.56 343.34 98.92L348.28 98.26L349.42 97.94C349.42 95.2 347.86 93.72 345.7 93.72C343.06 93.72 341.28 95.86 341.28 98.62ZM345.56 95.26C347.14 95.26 347.26 97.1 347.26 97.1L343.34 97.6C343.52 96.28 344.28 95.26 345.56 95.26ZM351.085 98.76C351.085 101.24 352.605 103.24 354.965 103.24C356.405 103.24 357.325 102.54 357.805 101.76C357.905 102.4 358.085 103.14 358.085 103.14L359.985 103C359.985 103 359.585 101.32 359.585 100.22V88.7L357.605 89.02V94.02C357.345 93.92 356.745 93.72 355.925 93.72C352.725 93.72 351.085 96.18 351.085 98.76ZM355.305 101.66C354.025 101.66 353.165 100.52 353.165 98.64C353.165 96.48 354.305 95.28 356.025 95.28C356.845 95.28 357.565 95.58 357.605 96.48V100.2C357.325 100.62 356.525 101.66 355.305 101.66ZM362.387 102.8C363.067 102.96 364.607 103.24 365.687 103.24C369.107 103.24 370.747 100.8 370.747 98.16C370.747 95.68 369.307 93.72 366.807 93.72C365.567 93.72 364.827 94.22 364.367 94.74V88.7L362.387 89.02V102.8ZM366.487 95.32C367.807 95.32 368.707 96.42 368.707 98.3C368.707 100.54 367.447 101.74 365.727 101.74C364.987 101.74 364.367 101.54 364.367 101.54V96.26C364.787 95.88 365.547 95.32 366.487 95.32ZM372.214 100.92C372.214 102.26 373.234 103.24 374.814 103.24C376.574 103.24 377.494 102.12 377.734 101.74C377.994 102.46 378.574 103.04 379.954 103.14L380.554 101.58C380.554 101.58 379.554 101.56 379.554 100.44V96.62C379.554 94.6 378.874 93.72 376.734 93.72C374.354 93.72 372.814 94.86 372.814 94.86L373.334 96.34C373.334 96.34 374.714 95.3 376.194 95.3C377.654 95.3 377.574 96.3 377.574 97.44C374.194 97.88 372.214 99.02 372.214 100.92ZM375.314 101.68C374.734 101.68 374.254 101.42 374.254 100.78C374.254 99.72 375.274 99.06 377.574 98.72V100.28C376.974 100.98 376.234 101.68 375.314 101.68ZM381.925 98.6C381.925 101.22 383.745 103.24 386.565 103.24C388.725 103.24 389.765 102.08 389.765 102.08L389.125 100.68C389.125 100.68 388.145 101.62 386.705 101.62C385.005 101.62 383.985 100.28 383.985 98.5C383.985 96.66 385.085 95.32 386.725 95.32C388.045 95.32 388.985 96.16 388.985 96.16L389.765 94.68C389.765 94.68 388.665 93.72 386.685 93.72C383.705 93.72 381.925 96.1 381.925 98.6ZM391.763 103H393.743V98.72H394.023L397.623 103H400.163L395.763 97.92L399.883 93.96H397.303L394.023 97.26H393.743V88.7L391.763 89.02V103ZM29.08 126.72H33.96V125.2H29.08V126.72ZM41.6559 131H49.8359V129.28H43.7159V125.08H48.4959V123.34H43.7159V119.38H49.7759V117.66H41.6559V131ZM51.8991 131H53.8791V125.12C54.4591 124.54 55.6991 123.44 56.6791 123.44C57.3391 123.44 57.6991 123.92 57.6991 125.2V131H59.6791V125.08C60.3591 124.42 61.4791 123.44 62.3991 123.44C63.0591 123.44 63.4391 123.92 63.4391 125.2V131H65.3991V124.48C65.3991 122.54 64.4591 121.72 63.0591 121.72C61.4791 121.72 60.2391 122.78 59.5791 123.5C59.2991 122.26 58.4791 121.72 57.3391 121.72C55.7391 121.72 54.4591 122.82 53.8391 123.5V121.8L51.8991 122.12V131ZM68.0709 135.66L70.0509 135.34V130.76C70.4309 131.04 71.1109 131.24 71.9509 131.24C74.8309 131.24 76.5109 128.88 76.5109 126.2C76.5109 123.74 75.0709 121.72 72.6909 121.72C71.2709 121.72 70.4109 122.46 69.9909 123.24V121.8L68.0709 122.12V135.66ZM72.3509 123.36C73.5709 123.36 74.4309 124.46 74.4309 126.34C74.4309 128.5 73.2909 129.68 71.5909 129.68C70.6509 129.68 70.0509 129.34 70.0509 128.66V124.82C70.3109 124.44 71.1509 123.36 72.3509 123.36ZM78.7164 131H80.6964V116.7L78.7164 117.02V131ZM82.9011 126.52C82.9011 128.92 84.5211 131.24 87.5211 131.24C90.7811 131.24 92.2211 128.5 92.2211 126.3C92.2211 123.98 90.6011 121.72 87.6011 121.72C84.3611 121.72 82.9011 124.26 82.9011 126.52ZM84.9611 126.34C84.9611 124.54 86.0211 123.3 87.5611 123.3C89.4011 123.3 90.1611 124.96 90.1611 126.56C90.1611 128.38 89.1011 129.66 87.5811 129.66C85.7811 129.66 84.9611 128.02 84.9611 126.34ZM93.2419 134.16L93.8619 135.74C95.9819 135.5 97.3019 133.6 98.0819 131.68L102.002 121.96H99.9619L97.6219 128.16L95.2419 121.96H93.1419L96.6419 130.54L96.1619 131.62C95.6219 132.88 94.5619 133.94 93.2419 134.16ZM107.803 126.6C107.803 129.22 109.623 131.24 112.443 131.24C114.603 131.24 115.643 130.08 115.643 130.08L115.003 128.68C115.003 128.68 114.023 129.62 112.583 129.62C110.883 129.62 109.863 128.28 109.863 126.5C109.863 124.66 110.963 123.32 112.603 123.32C113.923 123.32 114.863 124.16 114.863 124.16L115.643 122.68C115.643 122.68 114.543 121.72 112.563 121.72C109.583 121.72 107.803 124.1 107.803 126.6ZM116.866 126.52C116.866 128.92 118.486 131.24 121.486 131.24C124.746 131.24 126.186 128.5 126.186 126.3C126.186 123.98 124.566 121.72 121.566 121.72C118.326 121.72 116.866 124.26 116.866 126.52ZM118.926 126.34C118.926 124.54 119.986 123.3 121.526 123.3C123.366 123.3 124.126 124.96 124.126 126.56C124.126 128.38 123.066 129.66 121.546 129.66C119.746 129.66 118.926 128.02 118.926 126.34ZM128.325 131H130.305V125.14C130.925 124.54 132.205 123.44 133.205 123.44C133.885 123.44 134.285 123.92 134.285 125.2V131H136.265V124.48C136.265 122.54 135.285 121.72 133.865 121.72C132.205 121.72 130.905 122.82 130.265 123.52V121.8L128.325 122.12V131ZM139.45 128.54C139.45 130.4 140.47 131.24 142.03 131.24C143.63 131.24 144.81 130.28 144.81 130.28L144.31 128.78C144.07 128.92 143.23 129.58 142.47 129.58C141.81 129.58 141.43 129.14 141.43 128.04V123.46H144.29V121.96H141.43V119.4L139.49 119.82V121.88L138.11 122.38V123.46H139.45V128.54ZM145.929 126.62C145.929 129.04 147.469 131.24 150.489 131.24C152.749 131.24 154.129 129.94 154.129 129.94L153.569 128.5C153.569 128.5 152.309 129.62 150.789 129.62C149.209 129.62 148.209 128.56 147.989 126.92L152.929 126.26L154.069 125.94C154.069 123.2 152.509 121.72 150.349 121.72C147.709 121.72 145.929 123.86 145.929 126.62ZM150.209 123.26C151.789 123.26 151.909 125.1 151.909 125.1L147.989 125.6C148.169 124.28 148.929 123.26 150.209 123.26ZM155.354 131H157.514L159.594 127.92L161.634 131H163.854L160.754 126.44L163.854 121.96H161.634L159.634 124.96L157.654 121.96H155.354L158.474 126.48L155.354 131ZM166.169 128.54C166.169 130.4 167.189 131.24 168.749 131.24C170.349 131.24 171.529 130.28 171.529 130.28L171.029 128.78C170.789 128.92 169.949 129.58 169.189 129.58C168.529 129.58 168.149 129.14 168.149 128.04V123.46H171.009V121.96H168.149V119.4L166.209 119.82V121.88L164.829 122.38V123.46H166.169V128.54ZM173.148 128.52C173.148 130.46 174.148 131.24 175.608 131.24C177.268 131.24 178.528 130.18 179.108 129.56C179.208 130.22 179.408 131.16 179.408 131.16L181.328 130.98C181.328 130.98 180.928 129.32 180.928 128.22V121.96H178.948V128.04C178.388 128.56 177.268 129.52 176.248 129.52C175.508 129.52 175.128 129.02 175.128 127.76V121.96H173.148V128.52ZM183.035 128.92C183.035 130.26 184.055 131.24 185.635 131.24C187.395 131.24 188.315 130.12 188.555 129.74C188.815 130.46 189.395 131.04 190.775 131.14L191.375 129.58C191.375 129.58 190.375 129.56 190.375 128.44V124.62C190.375 122.6 189.695 121.72 187.555 121.72C185.175 121.72 183.635 122.86 183.635 122.86L184.155 124.34C184.155 124.34 185.535 123.3 187.015 123.3C188.475 123.3 188.395 124.3 188.395 125.44C185.015 125.88 183.035 127.02 183.035 128.92ZM186.135 129.68C185.555 129.68 185.075 129.42 185.075 128.78C185.075 127.72 186.095 127.06 188.395 126.72V128.28C187.795 128.98 187.055 129.68 186.135 129.68ZM193.365 131H195.345V116.7L193.365 117.02V131ZM202.934 135.66L204.914 135.34V130.76C205.294 131.04 205.974 131.24 206.814 131.24C209.694 131.24 211.374 128.88 211.374 126.2C211.374 123.74 209.934 121.72 207.554 121.72C206.134 121.72 205.274 122.46 204.854 123.24V121.8L202.934 122.12V135.66ZM207.214 123.36C208.434 123.36 209.294 124.46 209.294 126.34C209.294 128.5 208.154 129.68 206.454 129.68C205.514 129.68 204.914 129.34 204.914 128.66V124.82C205.174 124.44 206.014 123.36 207.214 123.36ZM213.54 131H215.52V125.4C215.9 124.8 216.72 123.72 217.72 123.72C218.12 123.72 218.52 123.88 218.52 123.88L218.92 121.88C218.92 121.88 218.64 121.72 218.14 121.72C216.76 121.72 215.84 123 215.48 123.62V121.8L213.54 122.12V131ZM219.757 126.52C219.757 128.92 221.377 131.24 224.377 131.24C227.637 131.24 229.077 128.5 229.077 126.3C229.077 123.98 227.457 121.72 224.457 121.72C221.217 121.72 219.757 124.26 219.757 126.52ZM221.817 126.34C221.817 124.54 222.877 123.3 224.417 123.3C226.257 123.3 227.017 124.96 227.017 126.56C227.017 128.38 225.957 129.66 224.437 129.66C222.637 129.66 221.817 128.02 221.817 126.34ZM231.215 131H233.195V125.12C233.775 124.54 235.015 123.44 235.995 123.44C236.655 123.44 237.015 123.92 237.015 125.2V131H238.995V125.08C239.675 124.42 240.795 123.44 241.715 123.44C242.375 123.44 242.755 123.92 242.755 125.2V131H244.715V124.48C244.715 122.54 243.775 121.72 242.375 121.72C240.795 121.72 239.555 122.78 238.895 123.5C238.615 122.26 237.795 121.72 236.655 121.72C235.055 121.72 233.775 122.82 233.155 123.5V121.8L231.215 122.12V131ZM247.387 135.66L249.367 135.34V130.76C249.747 131.04 250.427 131.24 251.267 131.24C254.147 131.24 255.827 128.88 255.827 126.2C255.827 123.74 254.387 121.72 252.007 121.72C250.587 121.72 249.727 122.46 249.307 123.24V121.8L247.387 122.12V135.66ZM251.667 123.36C252.887 123.36 253.747 124.46 253.747 126.34C253.747 128.5 252.607 129.68 250.907 129.68C249.967 129.68 249.367 129.34 249.367 128.66V124.82C249.627 124.44 250.467 123.36 251.667 123.36ZM258.513 128.54C258.513 130.4 259.533 131.24 261.093 131.24C262.693 131.24 263.873 130.28 263.873 130.28L263.373 128.78C263.133 128.92 262.293 129.58 261.533 129.58C260.873 129.58 260.493 129.14 260.493 128.04V123.46H263.353V121.96H260.493V119.4L258.553 119.82V121.88L257.173 122.38V123.46H258.513V128.54ZM264.951 130.44C264.951 130.44 266.071 131.24 267.951 131.24C270.171 131.24 271.471 130.14 271.471 128.5C271.471 125.62 267.131 125.76 267.131 124.18C267.131 123.66 267.571 123.28 268.571 123.28C269.731 123.28 270.771 123.84 270.771 123.84L271.231 122.22C271.231 122.22 270.231 121.72 268.651 121.72C266.151 121.72 265.151 122.94 265.151 124.34C265.151 127.18 269.491 127.06 269.491 128.68C269.491 129.26 268.991 129.68 267.931 129.68C266.471 129.68 265.371 128.76 265.371 128.76L264.951 130.44ZM278.923 128.54C278.923 130.4 279.943 131.24 281.503 131.24C283.103 131.24 284.283 130.28 284.283 130.28L283.783 128.78C283.543 128.92 282.703 129.58 281.943 129.58C281.283 129.58 280.903 129.14 280.903 128.04V123.46H283.763V121.96H280.903V119.4L278.963 119.82V121.88L277.583 122.38V123.46H278.923V128.54ZM285.382 126.52C285.382 128.92 287.002 131.24 290.002 131.24C293.262 131.24 294.702 128.5 294.702 126.3C294.702 123.98 293.082 121.72 290.082 121.72C286.842 121.72 285.382 124.26 285.382 126.52ZM287.442 126.34C287.442 124.54 288.502 123.3 290.042 123.3C291.882 123.3 292.642 124.96 292.642 126.56C292.642 128.38 291.582 129.66 290.062 129.66C288.262 129.66 287.442 128.02 287.442 126.34ZM301.645 130.8C302.325 130.96 303.865 131.24 304.945 131.24C308.365 131.24 310.005 128.8 310.005 126.16C310.005 123.68 308.565 121.72 306.065 121.72C304.825 121.72 304.085 122.22 303.625 122.74V116.7L301.645 117.02V130.8ZM305.745 123.32C307.065 123.32 307.965 124.42 307.965 126.3C307.965 128.54 306.705 129.74 304.985 129.74C304.245 129.74 303.625 129.54 303.625 129.54V124.26C304.045 123.88 304.805 123.32 305.745 123.32ZM311.632 126.62C311.632 129.04 313.172 131.24 316.192 131.24C318.452 131.24 319.832 129.94 319.832 129.94L319.272 128.5C319.272 128.5 318.012 129.62 316.492 129.62C314.912 129.62 313.912 128.56 313.692 126.92L318.632 126.26L319.772 125.94C319.772 123.2 318.212 121.72 316.052 121.72C313.412 121.72 311.632 123.86 311.632 126.62ZM315.912 123.26C317.492 123.26 317.612 125.1 317.612 125.1L313.692 125.6C313.872 124.28 314.632 123.26 315.912 123.26ZM322.517 128.54C322.517 130.4 323.537 131.24 325.097 131.24C326.697 131.24 327.877 130.28 327.877 130.28L327.377 128.78C327.137 128.92 326.297 129.58 325.537 129.58C324.877 129.58 324.497 129.14 324.497 128.04V123.46H327.357V121.96H324.497V119.4L322.557 119.82V121.88L321.177 122.38V123.46H322.517V128.54ZM330.075 128.54C330.075 130.4 331.095 131.24 332.655 131.24C334.255 131.24 335.435 130.28 335.435 130.28L334.935 128.78C334.695 128.92 333.855 129.58 333.095 129.58C332.435 129.58 332.055 129.14 332.055 128.04V123.46H334.915V121.96H332.055V119.4L330.115 119.82V121.88L328.735 122.38V123.46H330.075V128.54ZM336.554 126.62C336.554 129.04 338.094 131.24 341.114 131.24C343.374 131.24 344.754 129.94 344.754 129.94L344.194 128.5C344.194 128.5 342.934 129.62 341.414 129.62C339.834 129.62 338.834 128.56 338.614 126.92L343.554 126.26L344.694 125.94C344.694 123.2 343.134 121.72 340.974 121.72C338.334 121.72 336.554 123.86 336.554 126.62ZM340.834 123.26C342.414 123.26 342.534 125.1 342.534 125.1L338.614 125.6C338.794 124.28 339.554 123.26 340.834 123.26ZM346.919 131H348.899V125.4C349.279 124.8 350.099 123.72 351.099 123.72C351.499 123.72 351.899 123.88 351.899 123.88L352.299 121.88C352.299 121.88 352.019 121.72 351.519 121.72C350.139 121.72 349.219 123 348.859 123.62V121.8L346.919 122.12V131ZM357.956 128.92C357.956 130.26 358.976 131.24 360.556 131.24C362.316 131.24 363.236 130.12 363.476 129.74C363.736 130.46 364.316 131.04 365.696 131.14L366.296 129.58C366.296 129.58 365.296 129.56 365.296 128.44V124.62C365.296 122.6 364.616 121.72 362.476 121.72C360.096 121.72 358.556 122.86 358.556 122.86L359.076 124.34C359.076 124.34 360.456 123.3 361.936 123.3C363.396 123.3 363.316 124.3 363.316 125.44C359.936 125.88 357.956 127.02 357.956 128.92ZM361.056 129.68C360.476 129.68 359.996 129.42 359.996 128.78C359.996 127.72 361.016 127.06 363.316 126.72V128.28C362.716 128.98 361.976 129.68 361.056 129.68ZM368.287 131H370.267V116.7L368.287 117.02V131ZM373.091 131H375.071V116.7L373.091 117.02V131ZM378.896 119.8C379.616 119.8 380.156 119.28 380.156 118.58C380.156 117.88 379.616 117.36 378.896 117.36C378.196 117.36 377.656 117.88 377.656 118.58C377.656 119.28 378.196 119.8 378.896 119.8ZM377.896 131H379.876V121.96H377.896V131ZM382.641 129.4C382.641 130.02 383.221 130.38 384.121 130.68C383.161 131.18 381.821 132.04 381.821 133.36C381.821 134.94 383.781 135.74 385.781 135.74C388.501 135.74 390.721 134.2 390.721 132.38C390.721 130.72 388.901 130.22 387.301 129.82C385.421 129.36 384.541 129.18 384.541 128.82C384.541 128.6 384.861 128.36 385.281 128.08C385.481 128.12 385.701 128.12 385.941 128.12C387.881 128.12 389.941 127.06 389.941 125.08C389.941 124.28 389.561 123.74 389.281 123.42C389.521 123.46 389.801 123.48 390.021 123.48H391.101L390.961 121.9C390.961 121.9 390.361 122.1 389.761 122.1H388.721C387.721 122.1 387.201 121.72 386.101 121.72C384.081 121.72 382.261 122.86 382.261 124.88C382.261 126.1 382.921 127.16 384.061 127.72C383.321 128.14 382.641 128.74 382.641 129.4ZM386.161 131.2C387.841 131.64 388.781 131.9 388.781 132.68C388.781 133.58 387.501 134.3 385.901 134.3C384.761 134.3 383.601 133.94 383.601 133.04C383.601 132.14 384.701 131.54 385.561 131.06C385.761 131.1 385.961 131.14 386.161 131.2ZM386.081 126.72C384.801 126.72 384.201 125.8 384.201 124.94C384.201 124 384.881 123.12 386.081 123.12C387.361 123.12 387.981 124.16 387.981 125.04C387.981 126.06 387.181 126.72 386.081 126.72ZM392.778 131H394.758V125.14C395.378 124.54 396.658 123.44 397.658 123.44C398.338 123.44 398.738 123.92 398.738 125.2V131H400.718V124.48C400.718 122.54 399.738 121.72 398.318 121.72C396.658 121.72 395.358 122.82 394.718 123.52V121.8L392.778 122.12V131ZM43.1741 159.44C43.1741 159.44 44.2941 160.24 46.1741 160.24C48.3941 160.24 49.6941 159.14 49.6941 157.5C49.6941 154.62 45.3541 154.76 45.3541 153.18C45.3541 152.66 45.7941 152.28 46.7941 152.28C47.9541 152.28 48.9941 152.84 48.9941 152.84L49.4541 151.22C49.4541 151.22 48.4541 150.72 46.8741 150.72C44.3741 150.72 43.3741 151.94 43.3741 153.34C43.3741 156.18 47.7141 156.06 47.7141 157.68C47.7141 158.26 47.2141 158.68 46.1541 158.68C44.6941 158.68 43.5941 157.76 43.5941 157.76L43.1741 159.44ZM50.7809 163.16L51.4009 164.74C53.5209 164.5 54.8409 162.6 55.6209 160.68L59.5409 150.96H57.5009L55.1609 157.16L52.7809 150.96H50.6809L54.1809 159.54L53.7009 160.62C53.1609 161.88 52.1009 162.94 50.7809 163.16ZM60.5178 159.44C60.5178 159.44 61.6378 160.24 63.5178 160.24C65.7378 160.24 67.0378 159.14 67.0378 157.5C67.0378 154.62 62.6978 154.76 62.6978 153.18C62.6978 152.66 63.1378 152.28 64.1378 152.28C65.2978 152.28 66.3378 152.84 66.3378 152.84L66.7978 151.22C66.7978 151.22 65.7978 150.72 64.2178 150.72C61.7178 150.72 60.7178 151.94 60.7178 153.34C60.7178 156.18 65.0578 156.06 65.0578 157.68C65.0578 158.26 64.5578 158.68 63.4978 158.68C62.0378 158.68 60.9378 157.76 60.9378 157.76L60.5178 159.44ZM69.6847 157.54C69.6847 159.4 70.7047 160.24 72.2647 160.24C73.8647 160.24 75.0447 159.28 75.0447 159.28L74.5447 157.78C74.3047 157.92 73.4647 158.58 72.7047 158.58C72.0447 158.58 71.6647 158.14 71.6647 157.04V152.46H74.5247V150.96H71.6647V148.4L69.7247 148.82V150.88L68.3447 151.38V152.46H69.6847V157.54ZM76.1633 155.62C76.1633 158.04 77.7033 160.24 80.7233 160.24C82.9833 160.24 84.3633 158.94 84.3633 158.94L83.8033 157.5C83.8033 157.5 82.5433 158.62 81.0233 158.62C79.4433 158.62 78.4433 157.56 78.2233 155.92L83.1633 155.26L84.3033 154.94C84.3033 152.2 82.7433 150.72 80.5833 150.72C77.9433 150.72 76.1633 152.86 76.1633 155.62ZM80.4433 152.26C82.0233 152.26 82.1433 154.1 82.1433 154.1L78.2233 154.6C78.4033 153.28 79.1633 152.26 80.4433 152.26ZM86.528 160H88.508V154.12C89.088 153.54 90.328 152.44 91.308 152.44C91.968 152.44 92.328 152.92 92.328 154.2V160H94.308V154.08C94.988 153.42 96.108 152.44 97.028 152.44C97.688 152.44 98.068 152.92 98.068 154.2V160H100.028V153.48C100.028 151.54 99.088 150.72 97.688 150.72C96.108 150.72 94.868 151.78 94.208 152.5C93.928 151.26 93.108 150.72 91.968 150.72C90.368 150.72 89.088 151.82 88.468 152.5V150.8L86.528 151.12V160ZM107.505 160H109.485V154.4C109.865 153.8 110.685 152.72 111.685 152.72C112.085 152.72 112.485 152.88 112.485 152.88L112.885 150.88C112.885 150.88 112.605 150.72 112.105 150.72C110.725 150.72 109.805 152 109.445 152.62V150.8L107.505 151.12V160ZM113.741 155.62C113.741 158.04 115.281 160.24 118.301 160.24C120.561 160.24 121.941 158.94 121.941 158.94L121.381 157.5C121.381 157.5 120.121 158.62 118.601 158.62C117.021 158.62 116.021 157.56 115.801 155.92L120.741 155.26L121.881 154.94C121.881 152.2 120.321 150.72 118.161 150.72C115.521 150.72 113.741 152.86 113.741 155.62ZM118.021 152.26C119.601 152.26 119.721 154.1 119.721 154.1L115.801 154.6C115.981 153.28 116.741 152.26 118.021 152.26ZM123.506 159.44C123.506 159.44 124.626 160.24 126.506 160.24C128.726 160.24 130.026 159.14 130.026 157.5C130.026 154.62 125.686 154.76 125.686 153.18C125.686 152.66 126.126 152.28 127.126 152.28C128.286 152.28 129.326 152.84 129.326 152.84L129.786 151.22C129.786 151.22 128.786 150.72 127.206 150.72C124.706 150.72 123.706 151.94 123.706 153.34C123.706 156.18 128.046 156.06 128.046 157.68C128.046 158.26 127.546 158.68 126.486 158.68C125.026 158.68 123.926 157.76 123.926 157.76L123.506 159.44ZM132.153 164.66L134.133 164.34V159.76C134.513 160.04 135.193 160.24 136.033 160.24C138.913 160.24 140.593 157.88 140.593 155.2C140.593 152.74 139.153 150.72 136.773 150.72C135.353 150.72 134.493 151.46 134.073 152.24V150.8L132.153 151.12V164.66ZM136.433 152.36C137.653 152.36 138.513 153.46 138.513 155.34C138.513 157.5 137.373 158.68 135.673 158.68C134.733 158.68 134.133 158.34 134.133 157.66V153.82C134.393 153.44 135.233 152.36 136.433 152.36ZM142.178 155.52C142.178 157.92 143.798 160.24 146.798 160.24C150.058 160.24 151.498 157.5 151.498 155.3C151.498 152.98 149.878 150.72 146.878 150.72C143.638 150.72 142.178 153.26 142.178 155.52ZM144.238 155.34C144.238 153.54 145.298 152.3 146.838 152.3C148.678 152.3 149.438 153.96 149.438 155.56C149.438 157.38 148.378 158.66 146.858 158.66C145.058 158.66 144.238 157.02 144.238 155.34ZM153.637 160H155.617V154.14C156.237 153.54 157.517 152.44 158.517 152.44C159.197 152.44 159.597 152.92 159.597 154.2V160H161.577V153.48C161.577 151.54 160.597 150.72 159.177 150.72C157.517 150.72 156.217 151.82 155.577 152.52V150.8L153.637 151.12V160ZM163.643 159.44C163.643 159.44 164.763 160.24 166.643 160.24C168.863 160.24 170.163 159.14 170.163 157.5C170.163 154.62 165.823 154.76 165.823 153.18C165.823 152.66 166.263 152.28 167.263 152.28C168.423 152.28 169.463 152.84 169.463 152.84L169.923 151.22C169.923 151.22 168.923 150.72 167.343 150.72C164.843 150.72 163.843 151.94 163.843 153.34C163.843 156.18 168.183 156.06 168.183 157.68C168.183 158.26 167.683 158.68 166.623 158.68C165.163 158.68 164.063 157.76 164.063 157.76L163.643 159.44ZM171.73 155.62C171.73 158.04 173.27 160.24 176.29 160.24C178.55 160.24 179.93 158.94 179.93 158.94L179.37 157.5C179.37 157.5 178.11 158.62 176.59 158.62C175.01 158.62 174.01 157.56 173.79 155.92L178.73 155.26L179.87 154.94C179.87 152.2 178.31 150.72 176.15 150.72C173.51 150.72 171.73 152.86 171.73 155.62ZM176.01 152.26C177.59 152.26 177.71 154.1 177.71 154.1L173.79 154.6C173.97 153.28 174.73 152.26 176.01 152.26ZM187.419 157.54C187.419 159.4 188.439 160.24 189.999 160.24C191.599 160.24 192.779 159.28 192.779 159.28L192.279 157.78C192.039 157.92 191.199 158.58 190.439 158.58C189.779 158.58 189.399 158.14 189.399 157.04V152.46H192.259V150.96H189.399V148.4L187.459 148.82V150.88L186.079 151.38V152.46H187.419V157.54ZM193.878 155.52C193.878 157.92 195.498 160.24 198.498 160.24C201.758 160.24 203.198 157.5 203.198 155.3C203.198 152.98 201.578 150.72 198.578 150.72C195.338 150.72 193.878 153.26 193.878 155.52ZM195.938 155.34C195.938 153.54 196.998 152.3 198.538 152.3C200.378 152.3 201.138 153.96 201.138 155.56C201.138 157.38 200.078 158.66 198.558 158.66C196.758 158.66 195.938 157.02 195.938 155.34ZM210.081 157.52C210.081 159.46 211.081 160.24 212.541 160.24C214.201 160.24 215.461 159.18 216.041 158.56C216.141 159.22 216.341 160.16 216.341 160.16L218.261 159.98C218.261 159.98 217.861 158.32 217.861 157.22V150.96H215.881V157.04C215.321 157.56 214.201 158.52 213.181 158.52C212.441 158.52 212.061 158.02 212.061 156.76V150.96H210.081V157.52ZM220.088 159.44C220.088 159.44 221.208 160.24 223.088 160.24C225.308 160.24 226.608 159.14 226.608 157.5C226.608 154.62 222.268 154.76 222.268 153.18C222.268 152.66 222.708 152.28 223.708 152.28C224.868 152.28 225.908 152.84 225.908 152.84L226.368 151.22C226.368 151.22 225.368 150.72 223.788 150.72C221.288 150.72 220.288 151.94 220.288 153.34C220.288 156.18 224.628 156.06 224.628 157.68C224.628 158.26 224.128 158.68 223.068 158.68C221.608 158.68 220.508 157.76 220.508 157.76L220.088 159.44ZM228.175 155.62C228.175 158.04 229.715 160.24 232.735 160.24C234.995 160.24 236.375 158.94 236.375 158.94L235.815 157.5C235.815 157.5 234.555 158.62 233.035 158.62C231.455 158.62 230.455 157.56 230.235 155.92L235.175 155.26L236.315 154.94C236.315 152.2 234.755 150.72 232.595 150.72C229.955 150.72 228.175 152.86 228.175 155.62ZM232.455 152.26C234.035 152.26 234.155 154.1 234.155 154.1L230.235 154.6C230.415 153.28 231.175 152.26 232.455 152.26ZM238.54 160H240.52V154.4C240.9 153.8 241.72 152.72 242.72 152.72C243.12 152.72 243.52 152.88 243.52 152.88L243.92 150.88C243.92 150.88 243.64 150.72 243.14 150.72C241.76 150.72 240.84 152 240.48 152.62V150.8L238.54 151.12V160ZM249.738 155.62C249.738 158.04 251.278 160.24 254.298 160.24C256.558 160.24 257.938 158.94 257.938 158.94L257.378 157.5C257.378 157.5 256.118 158.62 254.598 158.62C253.018 158.62 252.018 157.56 251.798 155.92L256.738 155.26L257.878 154.94C257.878 152.2 256.318 150.72 254.158 150.72C251.518 150.72 249.738 152.86 249.738 155.62ZM254.018 152.26C255.598 152.26 255.718 154.1 255.718 154.1L251.798 154.6C251.978 153.28 252.738 152.26 254.018 152.26ZM259.162 160H261.322L263.402 156.92L265.442 160H267.662L264.562 155.44L267.662 150.96H265.442L263.442 153.96L261.462 150.96H259.162L262.282 155.48L259.162 160ZM269.458 164.66L271.438 164.34V159.76C271.818 160.04 272.498 160.24 273.338 160.24C276.218 160.24 277.898 157.88 277.898 155.2C277.898 152.74 276.458 150.72 274.078 150.72C272.658 150.72 271.798 151.46 271.378 152.24V150.8L269.458 151.12V164.66ZM273.738 152.36C274.958 152.36 275.818 153.46 275.818 155.34C275.818 157.5 274.678 158.68 272.978 158.68C272.038 158.68 271.438 158.34 271.438 157.66V153.82C271.698 153.44 272.538 152.36 273.738 152.36ZM279.503 155.62C279.503 158.04 281.043 160.24 284.063 160.24C286.323 160.24 287.703 158.94 287.703 158.94L287.143 157.5C287.143 157.5 285.883 158.62 284.363 158.62C282.783 158.62 281.783 157.56 281.563 155.92L286.503 155.26L287.643 154.94C287.643 152.2 286.083 150.72 283.923 150.72C281.283 150.72 279.503 152.86 279.503 155.62ZM283.783 152.26C285.363 152.26 285.483 154.1 285.483 154.1L281.563 154.6C281.743 153.28 282.503 152.26 283.783 152.26ZM289.288 155.6C289.288 158.22 291.108 160.24 293.928 160.24C296.088 160.24 297.128 159.08 297.128 159.08L296.488 157.68C296.488 157.68 295.508 158.62 294.068 158.62C292.368 158.62 291.348 157.28 291.348 155.5C291.348 153.66 292.448 152.32 294.088 152.32C295.408 152.32 296.348 153.16 296.348 153.16L297.128 151.68C297.128 151.68 296.028 150.72 294.048 150.72C291.068 150.72 289.288 153.1 289.288 155.6ZM299.607 157.54C299.607 159.4 300.627 160.24 302.187 160.24C303.787 160.24 304.967 159.28 304.967 159.28L304.467 157.78C304.227 157.92 303.387 158.58 302.627 158.58C301.967 158.58 301.587 158.14 301.587 157.04V152.46H304.447V150.96H301.587V148.4L299.647 148.82V150.88L298.267 151.38V152.46H299.607V157.54ZM305.925 157.92C305.925 159.26 306.945 160.24 308.525 160.24C310.285 160.24 311.205 159.12 311.445 158.74C311.705 159.46 312.285 160.04 313.665 160.14L314.265 158.58C314.265 158.58 313.265 158.56 313.265 157.44V153.62C313.265 151.6 312.585 150.72 310.445 150.72C308.065 150.72 306.525 151.86 306.525 151.86L307.045 153.34C307.045 153.34 308.425 152.3 309.905 152.3C311.365 152.3 311.285 153.3 311.285 154.44C307.905 154.88 305.925 156.02 305.925 157.92ZM309.025 158.68C308.445 158.68 307.965 158.42 307.965 157.78C307.965 156.72 308.985 156.06 311.285 155.72V157.28C310.685 157.98 309.945 158.68 309.025 158.68ZM316.657 157.54C316.657 159.4 317.677 160.24 319.237 160.24C320.837 160.24 322.017 159.28 322.017 159.28L321.517 157.78C321.277 157.92 320.437 158.58 319.677 158.58C319.017 158.58 318.637 158.14 318.637 157.04V152.46H321.497V150.96H318.637V148.4L316.697 148.82V150.88L315.317 151.38V152.46H316.657V157.54ZM324.736 148.8C325.456 148.8 325.996 148.28 325.996 147.58C325.996 146.88 325.456 146.36 324.736 146.36C324.036 146.36 323.496 146.88 323.496 147.58C323.496 148.28 324.036 148.8 324.736 148.8ZM323.736 160H325.716V150.96H323.736V160ZM327.921 155.52C327.921 157.92 329.541 160.24 332.541 160.24C335.801 160.24 337.241 157.5 337.241 155.3C337.241 152.98 335.621 150.72 332.621 150.72C329.381 150.72 327.921 153.26 327.921 155.52ZM329.981 155.34C329.981 153.54 331.041 152.3 332.581 152.3C334.421 152.3 335.181 153.96 335.181 155.56C335.181 157.38 334.121 158.66 332.601 158.66C330.801 158.66 329.981 157.02 329.981 155.34ZM339.38 160H341.36V154.14C341.98 153.54 343.26 152.44 344.26 152.44C344.94 152.44 345.34 152.92 345.34 154.2V160H347.32V153.48C347.32 151.54 346.34 150.72 344.92 150.72C343.26 150.72 341.96 151.82 341.32 152.52V150.8L339.38 151.12V160ZM349.385 159.44C349.385 159.44 350.505 160.24 352.385 160.24C354.605 160.24 355.905 159.14 355.905 157.5C355.905 154.62 351.565 154.76 351.565 153.18C351.565 152.66 352.005 152.28 353.005 152.28C354.165 152.28 355.205 152.84 355.205 152.84L355.665 151.22C355.665 151.22 354.665 150.72 353.085 150.72C350.585 150.72 349.585 151.94 349.585 153.34C349.585 156.18 353.925 156.06 353.925 157.68C353.925 158.26 353.425 158.68 352.365 158.68C350.905 158.68 349.805 157.76 349.805 157.76L349.385 159.44ZM29.08 183.72H33.96V182.2H29.08V183.72ZM41.6559 188H46.2559C48.9359 188 50.8159 186.48 50.8159 184.12C50.8159 182 49.2759 181.12 48.4959 180.8C49.1959 180.26 50.0959 179.28 50.0959 177.86C50.0959 176.32 49.0159 174.66 45.5759 174.66H41.6559V188ZM43.7159 186.28V182.02H45.9559C47.8159 182.02 48.6359 182.92 48.6359 184.16C48.6359 185.42 47.8159 186.28 45.9559 186.28H43.7159ZM43.7159 176.38H45.2759C47.3559 176.38 47.9159 177.2 47.9159 178.2C47.9159 179.64 46.6359 180.32 46.6359 180.32H43.7159V176.38ZM52.9133 185.52C52.9133 187.46 53.9133 188.24 55.3733 188.24C57.0333 188.24 58.2933 187.18 58.8733 186.56C58.9733 187.22 59.1733 188.16 59.1733 188.16L61.0933 187.98C61.0933 187.98 60.6933 186.32 60.6933 185.22V178.96H58.7133V185.04C58.1533 185.56 57.0333 186.52 56.0133 186.52C55.2733 186.52 54.8933 186.02 54.8933 184.76V178.96H52.9133V185.52ZM64.5602 176.8C65.2802 176.8 65.8202 176.28 65.8202 175.58C65.8202 174.88 65.2802 174.36 64.5602 174.36C63.8602 174.36 63.3202 174.88 63.3202 175.58C63.3202 176.28 63.8602 176.8 64.5602 176.8ZM63.5602 188H65.5402V178.96H63.5602V188ZM68.3648 188H70.3448V173.7L68.3648 174.02V188ZM72.5695 183.76C72.5695 186.24 74.0895 188.24 76.4495 188.24C77.8895 188.24 78.8095 187.54 79.2895 186.76C79.3895 187.4 79.5695 188.14 79.5695 188.14L81.4695 188C81.4695 188 81.0695 186.32 81.0695 185.22V173.7L79.0895 174.02V179.02C78.8295 178.92 78.2295 178.72 77.4095 178.72C74.2095 178.72 72.5695 181.18 72.5695 183.76ZM76.7895 186.66C75.5095 186.66 74.6495 185.52 74.6495 183.64C74.6495 181.48 75.7895 180.28 77.5095 180.28C78.3295 180.28 79.0495 180.58 79.0895 181.48V185.2C78.8095 185.62 78.0095 186.66 76.7895 186.66ZM87.9564 185.92C87.9564 187.26 88.9764 188.24 90.5564 188.24C92.3164 188.24 93.2364 187.12 93.4764 186.74C93.7364 187.46 94.3164 188.04 95.6964 188.14L96.2964 186.58C96.2964 186.58 95.2964 186.56 95.2964 185.44V181.62C95.2964 179.6 94.6164 178.72 92.4764 178.72C90.0964 178.72 88.5564 179.86 88.5564 179.86L89.0764 181.34C89.0764 181.34 90.4564 180.3 91.9364 180.3C93.3964 180.3 93.3164 181.3 93.3164 182.44C89.9364 182.88 87.9564 184.02 87.9564 185.92ZM91.0564 186.68C90.4764 186.68 89.9964 186.42 89.9964 185.78C89.9964 184.72 91.0164 184.06 93.3164 183.72V185.28C92.7164 185.98 91.9764 186.68 91.0564 186.68ZM102.451 187.44C102.451 187.44 103.571 188.24 105.451 188.24C107.671 188.24 108.971 187.14 108.971 185.5C108.971 182.62 104.631 182.76 104.631 181.18C104.631 180.66 105.071 180.28 106.071 180.28C107.231 180.28 108.271 180.84 108.271 180.84L108.731 179.22C108.731 179.22 107.731 178.72 106.151 178.72C103.651 178.72 102.651 179.94 102.651 181.34C102.651 184.18 106.991 184.06 106.991 185.68C106.991 186.26 106.491 186.68 105.431 186.68C103.971 186.68 102.871 185.76 102.871 185.76L102.451 187.44ZM110.058 191.16L110.678 192.74C112.798 192.5 114.118 190.6 114.898 188.68L118.818 178.96H116.778L114.438 185.16L112.058 178.96H109.958L113.458 187.54L112.978 188.62C112.438 189.88 111.378 190.94 110.058 191.16ZM119.795 187.44C119.795 187.44 120.915 188.24 122.795 188.24C125.015 188.24 126.315 187.14 126.315 185.5C126.315 182.62 121.975 182.76 121.975 181.18C121.975 180.66 122.415 180.28 123.415 180.28C124.575 180.28 125.615 180.84 125.615 180.84L126.075 179.22C126.075 179.22 125.075 178.72 123.495 178.72C120.995 178.72 119.995 179.94 119.995 181.34C119.995 184.18 124.335 184.06 124.335 185.68C124.335 186.26 123.835 186.68 122.775 186.68C121.315 186.68 120.215 185.76 120.215 185.76L119.795 187.44ZM128.962 185.54C128.962 187.4 129.982 188.24 131.542 188.24C133.142 188.24 134.322 187.28 134.322 187.28L133.822 185.78C133.582 185.92 132.742 186.58 131.982 186.58C131.322 186.58 130.942 186.14 130.942 185.04V180.46H133.802V178.96H130.942V176.4L129.002 176.82V178.88L127.622 179.38V180.46H128.962V185.54ZM135.441 183.62C135.441 186.04 136.981 188.24 140.001 188.24C142.261 188.24 143.641 186.94 143.641 186.94L143.081 185.5C143.081 185.5 141.821 186.62 140.301 186.62C138.721 186.62 137.721 185.56 137.501 183.92L142.441 183.26L143.581 182.94C143.581 180.2 142.021 178.72 139.861 178.72C137.221 178.72 135.441 180.86 135.441 183.62ZM139.721 180.26C141.301 180.26 141.421 182.1 141.421 182.1L137.501 182.6C137.681 181.28 138.441 180.26 139.721 180.26ZM145.805 188H147.785V182.12C148.365 181.54 149.605 180.44 150.585 180.44C151.245 180.44 151.605 180.92 151.605 182.2V188H153.585V182.08C154.265 181.42 155.385 180.44 156.305 180.44C156.965 180.44 157.345 180.92 157.345 182.2V188H159.305V181.48C159.305 179.54 158.365 178.72 156.965 178.72C155.385 178.72 154.145 179.78 153.485 180.5C153.205 179.26 152.385 178.72 151.245 178.72C149.645 178.72 148.365 179.82 147.745 180.5V178.8L145.805 179.12V188ZM168.682 188.08H170.602L172.922 181.64L175.002 188.08H176.942L180.182 178.96H178.162L175.982 185.76L173.862 178.96H172.142L169.802 185.8L167.822 178.96H165.782L168.682 188.08ZM182.88 176.8C183.6 176.8 184.14 176.28 184.14 175.58C184.14 174.88 183.6 174.36 182.88 174.36C182.18 174.36 181.64 174.88 181.64 175.58C181.64 176.28 182.18 176.8 182.88 176.8ZM181.88 188H183.86V178.96H181.88V188ZM187.165 185.54C187.165 187.4 188.185 188.24 189.745 188.24C191.345 188.24 192.525 187.28 192.525 187.28L192.025 185.78C191.785 185.92 190.945 186.58 190.185 186.58C189.525 186.58 189.145 186.14 189.145 185.04V180.46H192.005V178.96H189.145V176.4L187.205 176.82V178.88L185.825 179.38V180.46H187.165V185.54ZM194.244 188H196.224V182.18C196.824 181.58 198.124 180.44 199.124 180.44C199.804 180.44 200.204 180.92 200.204 182.2V188H202.184V181.48C202.184 179.54 201.204 178.72 199.764 178.72C198.104 178.72 196.824 179.84 196.224 180.48V173.7L194.244 174.02V188ZM208.933 185.92C208.933 187.26 209.953 188.24 211.533 188.24C213.293 188.24 214.213 187.12 214.453 186.74C214.713 187.46 215.293 188.04 216.673 188.14L217.273 186.58C217.273 186.58 216.273 186.56 216.273 185.44V181.62C216.273 179.6 215.593 178.72 213.453 178.72C211.073 178.72 209.533 179.86 209.533 179.86L210.053 181.34C210.053 181.34 211.433 180.3 212.913 180.3C214.373 180.3 214.293 181.3 214.293 182.44C210.913 182.88 208.933 184.02 208.933 185.92ZM212.033 186.68C211.453 186.68 210.973 186.42 210.973 185.78C210.973 184.72 211.993 184.06 214.293 183.72V185.28C213.693 185.98 212.953 186.68 212.033 186.68ZM224.068 188H226.048V182.18C226.648 181.58 227.948 180.44 228.948 180.44C229.628 180.44 230.028 180.92 230.028 182.2V188H232.008V181.48C232.008 179.54 231.028 178.72 229.588 178.72C227.928 178.72 226.648 179.84 226.048 180.48V173.7L224.068 174.02V188ZM235.713 176.8C236.433 176.8 236.973 176.28 236.973 175.58C236.973 174.88 236.433 174.36 235.713 174.36C235.013 174.36 234.473 174.88 234.473 175.58C234.473 176.28 235.013 176.8 235.713 176.8ZM234.713 188H236.693V178.96H234.713V188ZM239.457 186.4C239.457 187.02 240.037 187.38 240.937 187.68C239.977 188.18 238.637 189.04 238.637 190.36C238.637 191.94 240.597 192.74 242.597 192.74C245.317 192.74 247.537 191.2 247.537 189.38C247.537 187.72 245.717 187.22 244.117 186.82C242.237 186.36 241.357 186.18 241.357 185.82C241.357 185.6 241.677 185.36 242.097 185.08C242.297 185.12 242.517 185.12 242.757 185.12C244.697 185.12 246.757 184.06 246.757 182.08C246.757 181.28 246.377 180.74 246.097 180.42C246.337 180.46 246.617 180.48 246.837 180.48H247.917L247.777 178.9C247.777 178.9 247.177 179.1 246.577 179.1H245.537C244.537 179.1 244.017 178.72 242.917 178.72C240.897 178.72 239.077 179.86 239.077 181.88C239.077 183.1 239.737 184.16 240.877 184.72C240.137 185.14 239.457 185.74 239.457 186.4ZM242.977 188.2C244.657 188.64 245.597 188.9 245.597 189.68C245.597 190.58 244.317 191.3 242.717 191.3C241.577 191.3 240.417 190.94 240.417 190.04C240.417 189.14 241.517 188.54 242.377 188.06C242.577 188.1 242.777 188.14 242.977 188.2ZM242.897 183.72C241.617 183.72 241.017 182.8 241.017 181.94C241.017 181 241.697 180.12 242.897 180.12C244.177 180.12 244.797 181.16 244.797 182.04C244.797 183.06 243.997 183.72 242.897 183.72ZM249.634 188H251.614V182.18C252.214 181.58 253.514 180.44 254.514 180.44C255.194 180.44 255.594 180.92 255.594 182.2V188H257.574V181.48C257.574 179.54 256.594 178.72 255.154 178.72C253.494 178.72 252.214 179.84 251.614 180.48V173.7L249.634 174.02V188ZM259.679 183.62C259.679 186.04 261.219 188.24 264.239 188.24C266.499 188.24 267.879 186.94 267.879 186.94L267.319 185.5C267.319 185.5 266.059 186.62 264.539 186.62C262.959 186.62 261.959 185.56 261.739 183.92L266.679 183.26L267.819 182.94C267.819 180.2 266.259 178.72 264.099 178.72C261.459 178.72 259.679 180.86 259.679 183.62ZM263.959 180.26C265.539 180.26 265.659 182.1 265.659 182.1L261.739 182.6C261.919 181.28 262.679 180.26 263.959 180.26ZM270.044 188H272.024V182.4C272.404 181.8 273.224 180.72 274.224 180.72C274.624 180.72 275.024 180.88 275.024 180.88L275.424 178.88C275.424 178.88 275.144 178.72 274.644 178.72C273.264 178.72 272.344 180 271.984 180.62V178.8L270.044 179.12V188ZM282.321 185.54C282.321 187.4 283.341 188.24 284.901 188.24C286.501 188.24 287.681 187.28 287.681 187.28L287.181 185.78C286.941 185.92 286.101 186.58 285.341 186.58C284.681 186.58 284.301 186.14 284.301 185.04V180.46H287.161V178.96H284.301V176.4L282.361 176.82V178.88L280.981 179.38V180.46H282.321V185.54ZM288.78 183.52C288.78 185.92 290.4 188.24 293.4 188.24C296.66 188.24 298.1 185.5 298.1 183.3C298.1 180.98 296.48 178.72 293.48 178.72C290.24 178.72 288.78 181.26 288.78 183.52ZM290.84 183.34C290.84 181.54 291.9 180.3 293.44 180.3C295.28 180.3 296.04 181.96 296.04 183.56C296.04 185.38 294.98 186.66 293.46 186.66C291.66 186.66 290.84 185.02 290.84 183.34ZM300.279 188H302.259V173.7L300.279 174.02V188ZM304.484 183.62C304.484 186.04 306.024 188.24 309.044 188.24C311.304 188.24 312.684 186.94 312.684 186.94L312.124 185.5C312.124 185.5 310.864 186.62 309.344 186.62C307.764 186.62 306.764 185.56 306.544 183.92L311.484 183.26L312.624 182.94C312.624 180.2 311.064 178.72 308.904 178.72C306.264 178.72 304.484 180.86 304.484 183.62ZM308.764 180.26C310.344 180.26 310.464 182.1 310.464 182.1L306.544 182.6C306.724 181.28 307.484 180.26 308.764 180.26ZM314.848 188H316.828V182.4C317.208 181.8 318.028 180.72 319.028 180.72C319.428 180.72 319.828 180.88 319.828 180.88L320.228 178.88C320.228 178.88 319.948 178.72 319.448 178.72C318.068 178.72 317.148 180 316.788 180.62V178.8L314.848 179.12V188ZM321.081 185.92C321.081 187.26 322.101 188.24 323.681 188.24C325.441 188.24 326.361 187.12 326.601 186.74C326.861 187.46 327.441 188.04 328.821 188.14L329.421 186.58C329.421 186.58 328.421 186.56 328.421 185.44V181.62C328.421 179.6 327.741 178.72 325.601 178.72C323.221 178.72 321.681 179.86 321.681 179.86L322.201 181.34C322.201 181.34 323.581 180.3 325.061 180.3C326.521 180.3 326.441 181.3 326.441 182.44C323.061 182.88 321.081 184.02 321.081 185.92ZM324.181 186.68C323.601 186.68 323.121 186.42 323.121 185.78C323.121 184.72 324.141 184.06 326.441 183.72V185.28C325.841 185.98 325.101 186.68 324.181 186.68ZM331.372 188H333.352V182.14C333.972 181.54 335.252 180.44 336.252 180.44C336.932 180.44 337.332 180.92 337.332 182.2V188H339.312V181.48C339.312 179.54 338.332 178.72 336.912 178.72C335.252 178.72 333.952 179.82 333.312 180.52V178.8L331.372 179.12V188ZM341.397 183.6C341.397 186.22 343.217 188.24 346.037 188.24C348.197 188.24 349.237 187.08 349.237 187.08L348.597 185.68C348.597 185.68 347.617 186.62 346.177 186.62C344.477 186.62 343.457 185.28 343.457 183.5C343.457 181.66 344.557 180.32 346.197 180.32C347.517 180.32 348.457 181.16 348.457 181.16L349.237 179.68C349.237 179.68 348.137 178.72 346.157 178.72C343.177 178.72 341.397 181.1 341.397 183.6ZM350.499 183.62C350.499 186.04 352.039 188.24 355.059 188.24C357.319 188.24 358.699 186.94 358.699 186.94L358.139 185.5C358.139 185.5 356.879 186.62 355.359 186.62C353.779 186.62 352.779 185.56 352.559 183.92L357.499 183.26L358.639 182.94C358.639 180.2 357.079 178.72 354.919 178.72C352.279 178.72 350.499 180.86 350.499 183.62ZM354.779 180.26C356.359 180.26 356.479 182.1 356.479 182.1L352.559 182.6C352.739 181.28 353.499 180.26 354.779 180.26ZM364.809 180.46H366.229V188H368.209V180.46H370.709V178.96H368.209V177.88C368.209 175.76 369.169 175.02 370.229 175.02C371.209 175.02 372.089 175.66 372.089 175.66L372.869 174.14C372.869 174.14 371.829 173.38 370.249 173.38C367.889 173.38 366.229 175.04 366.229 178V178.88L364.809 179.4V180.46ZM371.749 183.52C371.749 185.92 373.369 188.24 376.369 188.24C379.629 188.24 381.069 185.5 381.069 183.3C381.069 180.98 379.449 178.72 376.449 178.72C373.209 178.72 371.749 181.26 371.749 183.52ZM373.809 183.34C373.809 181.54 374.869 180.3 376.409 180.3C378.249 180.3 379.009 181.96 379.009 183.56C379.009 185.38 377.949 186.66 376.429 186.66C374.629 186.66 373.809 185.02 373.809 183.34ZM383.208 188H385.188V182.4C385.568 181.8 386.388 180.72 387.388 180.72C387.788 180.72 388.188 180.88 388.188 180.88L388.588 178.88C388.588 178.88 388.308 178.72 387.808 178.72C386.428 178.72 385.508 180 385.148 180.62V178.8L383.208 179.12V188ZM45.9541 216.08H47.7941L51.5141 206.96H49.4941L46.9541 213.52L44.7541 206.96H42.6741L45.9541 216.08ZM52.3509 213.92C52.3509 215.26 53.3709 216.24 54.9509 216.24C56.7109 216.24 57.6309 215.12 57.8709 214.74C58.1309 215.46 58.7109 216.04 60.0909 216.14L60.6909 214.58C60.6909 214.58 59.6909 214.56 59.6909 213.44V209.62C59.6909 207.6 59.0109 206.72 56.8709 206.72C54.4909 206.72 52.9509 207.86 52.9509 207.86L53.4709 209.34C53.4709 209.34 54.8509 208.3 56.3309 208.3C57.7909 208.3 57.7109 209.3 57.7109 210.44C54.3309 210.88 52.3509 212.02 52.3509 213.92ZM55.4509 214.68C54.8709 214.68 54.3909 214.42 54.3909 213.78C54.3909 212.72 55.4109 212.06 57.7109 211.72V213.28C57.1109 213.98 56.3709 214.68 55.4509 214.68ZM62.6413 216H64.6213V210.4C65.0013 209.8 65.8213 208.72 66.8213 208.72C67.2213 208.72 67.6213 208.88 67.6213 208.88L68.0213 206.88C68.0213 206.88 67.7413 206.72 67.2413 206.72C65.8613 206.72 64.9413 208 64.5813 208.62V206.8L62.6413 207.12V216ZM70.6344 204.8C71.3544 204.8 71.8944 204.28 71.8944 203.58C71.8944 202.88 71.3544 202.36 70.6344 202.36C69.9344 202.36 69.3944 202.88 69.3944 203.58C69.3944 204.28 69.9344 204.8 70.6344 204.8ZM69.6344 216H71.6144V206.96H69.6344V216ZM73.8391 211.62C73.8391 214.04 75.3791 216.24 78.3991 216.24C80.6591 216.24 82.0391 214.94 82.0391 214.94L81.4791 213.5C81.4791 213.5 80.2191 214.62 78.6991 214.62C77.1191 214.62 76.1191 213.56 75.8991 211.92L80.8391 211.26L81.9791 210.94C81.9791 208.2 80.4191 206.72 78.2591 206.72C75.6191 206.72 73.8391 208.86 73.8391 211.62ZM78.1191 208.26C79.6991 208.26 79.8191 210.1 79.8191 210.1L75.8991 210.6C76.0791 209.28 76.8391 208.26 78.1191 208.26ZM84.7238 213.54C84.7238 215.4 85.7438 216.24 87.3038 216.24C88.9038 216.24 90.0838 215.28 90.0838 215.28L89.5838 213.78C89.3438 213.92 88.5038 214.58 87.7438 214.58C87.0838 214.58 86.7038 214.14 86.7038 213.04V208.46H89.5638V206.96H86.7038V204.4L84.7638 204.82V206.88L83.3838 207.38V208.46H84.7238V213.54ZM90.7223 219.16L91.3423 220.74C93.4623 220.5 94.7823 218.6 95.5623 216.68L99.4823 206.96H97.4423L95.1023 213.16L92.7223 206.96H90.6223L94.1223 215.54L93.6423 216.62C93.1023 217.88 92.0423 218.94 90.7223 219.16ZM106.904 204.8C107.624 204.8 108.164 204.28 108.164 203.58C108.164 202.88 107.624 202.36 106.904 202.36C106.204 202.36 105.664 202.88 105.664 203.58C105.664 204.28 106.204 204.8 106.904 204.8ZM105.904 216H107.884V206.96H105.904V216ZM110.669 216H112.649V210.14C113.269 209.54 114.549 208.44 115.549 208.44C116.229 208.44 116.629 208.92 116.629 210.2V216H118.609V209.48C118.609 207.54 117.629 206.72 116.209 206.72C114.549 206.72 113.249 207.82 112.609 208.52V206.8L110.669 207.12V216ZM130.883 216H132.863V210.12C133.443 209.54 134.683 208.44 135.663 208.44C136.323 208.44 136.683 208.92 136.683 210.2V216H138.663V210.08C139.343 209.42 140.463 208.44 141.383 208.44C142.043 208.44 142.423 208.92 142.423 210.2V216H144.383V209.48C144.383 207.54 143.443 206.72 142.043 206.72C140.463 206.72 139.223 207.78 138.563 208.5C138.283 207.26 137.463 206.72 136.323 206.72C134.723 206.72 133.443 207.82 132.823 208.5V206.8L130.883 207.12V216ZM146.995 213.52C146.995 215.46 147.995 216.24 149.455 216.24C151.115 216.24 152.375 215.18 152.955 214.56C153.055 215.22 153.255 216.16 153.255 216.16L155.175 215.98C155.175 215.98 154.775 214.32 154.775 213.22V206.96H152.795V213.04C152.235 213.56 151.115 214.52 150.095 214.52C149.355 214.52 148.975 214.02 148.975 212.76V206.96H146.995V213.52ZM157.002 215.44C157.002 215.44 158.122 216.24 160.002 216.24C162.222 216.24 163.522 215.14 163.522 213.5C163.522 210.62 159.182 210.76 159.182 209.18C159.182 208.66 159.622 208.28 160.622 208.28C161.782 208.28 162.822 208.84 162.822 208.84L163.282 207.22C163.282 207.22 162.282 206.72 160.702 206.72C158.202 206.72 157.202 207.94 157.202 209.34C157.202 212.18 161.542 212.06 161.542 213.68C161.542 214.26 161.042 214.68 159.982 214.68C158.522 214.68 157.422 213.76 157.422 213.76L157.002 215.44ZM166.689 204.8C167.409 204.8 167.949 204.28 167.949 203.58C167.949 202.88 167.409 202.36 166.689 202.36C165.989 202.36 165.449 202.88 165.449 203.58C165.449 204.28 165.989 204.8 166.689 204.8ZM165.689 216H167.669V206.96H165.689V216ZM169.874 211.6C169.874 214.22 171.694 216.24 174.514 216.24C176.674 216.24 177.714 215.08 177.714 215.08L177.074 213.68C177.074 213.68 176.094 214.62 174.654 214.62C172.954 214.62 171.934 213.28 171.934 211.5C171.934 209.66 173.034 208.32 174.674 208.32C175.994 208.32 176.934 209.16 176.934 209.16L177.714 207.68C177.714 207.68 176.614 206.72 174.634 206.72C171.654 206.72 169.874 209.1 169.874 211.6ZM183.877 215.44C183.877 215.44 184.997 216.24 186.877 216.24C189.097 216.24 190.397 215.14 190.397 213.5C190.397 210.62 186.057 210.76 186.057 209.18C186.057 208.66 186.497 208.28 187.497 208.28C188.657 208.28 189.697 208.84 189.697 208.84L190.157 207.22C190.157 207.22 189.157 206.72 187.577 206.72C185.077 206.72 184.077 207.94 184.077 209.34C184.077 212.18 188.417 212.06 188.417 213.68C188.417 214.26 187.917 214.68 186.857 214.68C185.397 214.68 184.297 213.76 184.297 213.76L183.877 215.44ZM191.964 211.62C191.964 214.04 193.504 216.24 196.524 216.24C198.784 216.24 200.164 214.94 200.164 214.94L199.604 213.5C199.604 213.5 198.344 214.62 196.824 214.62C195.244 214.62 194.244 213.56 194.024 211.92L198.964 211.26L200.104 210.94C200.104 208.2 198.544 206.72 196.384 206.72C193.744 206.72 191.964 208.86 191.964 211.62ZM196.244 208.26C197.824 208.26 197.944 210.1 197.944 210.1L194.024 210.6C194.204 209.28 194.964 208.26 196.244 208.26ZM202.369 216H204.349V201.7L202.369 202.02V216ZM206.573 211.62C206.573 214.04 208.113 216.24 211.133 216.24C213.393 216.24 214.773 214.94 214.773 214.94L214.213 213.5C214.213 213.5 212.953 214.62 211.433 214.62C209.853 214.62 208.853 213.56 208.633 211.92L213.573 211.26L214.713 210.94C214.713 208.2 213.153 206.72 210.993 206.72C208.353 206.72 206.573 208.86 206.573 211.62ZM210.853 208.26C212.433 208.26 212.553 210.1 212.553 210.1L208.633 210.6C208.813 209.28 209.573 208.26 210.853 208.26ZM216.358 211.6C216.358 214.22 218.178 216.24 220.998 216.24C223.158 216.24 224.198 215.08 224.198 215.08L223.558 213.68C223.558 213.68 222.578 214.62 221.138 214.62C219.438 214.62 218.418 213.28 218.418 211.5C218.418 209.66 219.518 208.32 221.158 208.32C222.478 208.32 223.418 209.16 223.418 209.16L224.198 207.68C224.198 207.68 223.098 206.72 221.118 206.72C218.138 206.72 216.358 209.1 216.358 211.6ZM226.677 213.54C226.677 215.4 227.697 216.24 229.257 216.24C230.857 216.24 232.037 215.28 232.037 215.28L231.537 213.78C231.297 213.92 230.457 214.58 229.697 214.58C229.037 214.58 228.657 214.14 228.657 213.04V208.46H231.517V206.96H228.657V204.4L226.717 204.82V206.88L225.337 207.38V208.46H226.677V213.54ZM234.755 204.8C235.475 204.8 236.015 204.28 236.015 203.58C236.015 202.88 235.475 202.36 234.755 202.36C234.055 202.36 233.515 202.88 233.515 203.58C233.515 204.28 234.055 204.8 234.755 204.8ZM233.755 216H235.735V206.96H233.755V216ZM237.94 211.52C237.94 213.92 239.56 216.24 242.56 216.24C245.82 216.24 247.26 213.5 247.26 211.3C247.26 208.98 245.64 206.72 242.64 206.72C239.4 206.72 237.94 209.26 237.94 211.52ZM240 211.34C240 209.54 241.06 208.3 242.6 208.3C244.44 208.3 245.2 209.96 245.2 211.56C245.2 213.38 244.14 214.66 242.62 214.66C240.82 214.66 240 213.02 240 211.34ZM249.399 216H251.379V210.14C251.999 209.54 253.279 208.44 254.279 208.44C254.959 208.44 255.359 208.92 255.359 210.2V216H257.339V209.48C257.339 207.54 256.359 206.72 254.939 206.72C253.279 206.72 251.979 207.82 251.339 208.52V206.8L249.399 207.12V216Z" fill="#333333"/>
</svg>
