<svg width="472" height="248" viewBox="0 0 472 248" fill="none" xmlns="http://www.w3.org/2000/svg">
<path d="M3 3H469V245H3V3Z" fill="white" stroke="#828282" stroke-width="6"/>
<path d="M35.11 33.778C31.51 33.778 28.864 36.478 28.864 40.006C28.864 43.534 31.51 46.234 35.11 46.234C38.71 46.234 41.356 43.534 41.356 40.006C41.356 36.478 38.71 33.778 35.11 33.778ZM35.11 44.542C32.536 44.542 30.7 42.67 30.7 40.006C30.7 37.342 32.536 35.47 35.11 35.47C37.684 35.47 39.52 37.342 39.52 40.006C39.52 42.67 37.684 44.542 35.11 44.542ZM44.3807 33.994V46H46.2167V41.122H47.0447C47.9267 41.122 49.0247 40.996 49.9787 40.186C50.9687 39.34 51.1487 38.26 51.1487 37.558C51.1487 36.46 50.6627 35.308 49.6547 34.642C48.7907 34.066 47.7647 33.994 47.0267 33.994H44.3807ZM46.2167 35.686H47.0267C49.1147 35.686 49.3847 36.874 49.3847 37.54C49.3847 38.656 48.6287 39.43 47.0447 39.43H46.2167V35.686ZM53.7491 33.994V46H55.5851V41.122H56.4131C57.2951 41.122 58.3931 40.996 59.3471 40.186C60.3371 39.34 60.5171 38.26 60.5171 37.558C60.5171 36.46 60.0311 35.308 59.0231 34.642C58.1591 34.066 57.1331 33.994 56.3951 33.994H53.7491ZM55.5851 35.686H56.3951C58.4831 35.686 58.7531 36.874 58.7531 37.54C58.7531 38.656 57.9971 39.43 56.4131 39.43H55.5851V35.686ZM68.7876 33.778C65.1876 33.778 62.5416 36.478 62.5416 40.006C62.5416 43.534 65.1876 46.234 68.7876 46.234C72.3876 46.234 75.0336 43.534 75.0336 40.006C75.0336 36.478 72.3876 33.778 68.7876 33.778ZM68.7876 44.542C66.2136 44.542 64.3776 42.67 64.3776 40.006C64.3776 37.342 66.2136 35.47 68.7876 35.47C71.3616 35.47 73.1976 37.342 73.1976 40.006C73.1976 42.67 71.3616 44.542 68.7876 44.542ZM78.0583 33.994V46H79.8943V41.086H80.2183L83.6563 46H85.8703L82.1263 40.87C83.7283 40.51 84.7903 39.25 84.7903 37.522C84.7903 37 84.6823 35.578 83.3683 34.696C82.5943 34.174 81.6583 33.994 80.2003 33.994H78.0583ZM79.8943 35.686H80.5243C81.4243 35.686 83.0263 35.848 83.0263 37.54C83.0263 39.448 80.9743 39.502 80.4703 39.502H79.8943V35.686ZM94.4775 35.722V33.994H87.1335V35.722H89.8875V46H91.7235V35.722H94.4775ZM96.8127 33.994V41.716C96.8127 42.67 97.0107 43.822 97.9287 44.83C98.5587 45.514 99.6207 46.234 101.259 46.234C102.897 46.234 103.959 45.514 104.589 44.83C105.507 43.822 105.705 42.67 105.705 41.716V33.994H103.869V41.23C103.869 41.878 103.851 42.67 103.491 43.3C103.131 43.912 102.321 44.542 101.259 44.542C100.197 44.542 99.3867 43.912 99.0267 43.3C98.6667 42.67 98.6487 41.878 98.6487 41.23V33.994H96.8127ZM111.146 46V37.612L119.858 46.738V33.994H118.022V42.31L109.31 33.184V46H111.146ZM123.46 33.994V46H125.296V33.994H123.46ZM134.975 35.722V33.994H127.631V35.722H130.385V46H132.221V35.722H134.975ZM137.31 33.994V46H139.146V33.994H137.31ZM149.365 33.994H142.741V46H149.365V44.272H144.577V40.492H149.221V38.764H144.577V35.722H149.365V33.994ZM159.121 35.794C158.869 35.29 158.527 34.876 158.203 34.588C157.825 34.264 157.087 33.778 155.791 33.778C153.541 33.778 152.281 35.326 152.281 36.946C152.281 38.746 153.739 39.574 154.729 39.988L155.881 40.474C156.673 40.798 157.609 41.302 157.609 42.526C157.609 43.732 156.745 44.542 155.629 44.542C154.909 44.542 154.405 44.254 154.063 43.822C153.775 43.444 153.559 42.886 153.559 42.292L151.741 42.688C151.813 43.516 152.101 44.308 152.749 45.028C153.361 45.712 154.189 46.234 155.575 46.234C157.825 46.234 159.445 44.668 159.445 42.382C159.445 41.014 158.833 39.754 156.619 38.854L155.413 38.368C154.243 37.9 154.117 37.27 154.117 36.91C154.117 36.136 154.693 35.47 155.809 35.47C156.331 35.47 156.727 35.596 157.105 35.902C157.375 36.136 157.537 36.388 157.645 36.658L159.121 35.794ZM29.08 100.72H33.96V99.2H29.08V100.72ZM40.0359 105H42.0959L43.3959 101.44H48.7159L50.0359 105H52.1559L47.0759 91.56H45.1159L40.0359 105ZM46.0559 94.2L48.0959 99.72H44.0359L46.0559 94.2ZM53.7555 105H55.7355V90.7L53.7555 91.02V105ZM58.5602 105H60.5402V90.7L58.5602 91.02V105ZM62.7448 100.52C62.7448 102.92 64.3648 105.24 67.3648 105.24C70.6248 105.24 72.0648 102.5 72.0648 100.3C72.0648 97.98 70.4448 95.72 67.4448 95.72C64.2048 95.72 62.7448 98.26 62.7448 100.52ZM64.8048 100.34C64.8048 98.54 65.8648 97.3 67.4048 97.3C69.2448 97.3 70.0048 98.96 70.0048 100.56C70.0048 102.38 68.9448 103.66 67.4248 103.66C65.6248 103.66 64.8048 102.02 64.8048 100.34ZM76.1038 105.08H78.0238L80.3438 98.64L82.4238 105.08H84.3638L87.6038 95.96H85.5838L83.4037 102.76L81.2838 95.96H79.5638L77.2238 102.8L75.2438 95.96H73.2038L76.1038 105.08ZM94.007 102.52C94.007 104.46 95.007 105.24 96.467 105.24C98.127 105.24 99.387 104.18 99.967 103.56C100.067 104.22 100.267 105.16 100.267 105.16L102.187 104.98C102.187 104.98 101.787 103.32 101.787 102.22V95.96H99.807V102.04C99.247 102.56 98.127 103.52 97.107 103.52C96.367 103.52 95.987 103.02 95.987 101.76V95.96H94.007V102.52ZM104.014 104.44C104.014 104.44 105.134 105.24 107.014 105.24C109.234 105.24 110.534 104.14 110.534 102.5C110.534 99.62 106.194 99.76 106.194 98.18C106.194 97.66 106.634 97.28 107.634 97.28C108.794 97.28 109.834 97.84 109.834 97.84L110.294 96.22C110.294 96.22 109.294 95.72 107.714 95.72C105.214 95.72 104.214 96.94 104.214 98.34C104.214 101.18 108.554 101.06 108.554 102.68C108.554 103.26 108.054 103.68 106.994 103.68C105.534 103.68 104.434 102.76 104.434 102.76L104.014 104.44ZM112.101 100.62C112.101 103.04 113.641 105.24 116.661 105.24C118.921 105.24 120.301 103.94 120.301 103.94L119.741 102.5C119.741 102.5 118.481 103.62 116.961 103.62C115.381 103.62 114.381 102.56 114.161 100.92L119.101 100.26L120.241 99.94C120.241 97.2 118.681 95.72 116.521 95.72C113.881 95.72 112.101 97.86 112.101 100.62ZM116.381 97.26C117.961 97.26 118.081 99.1 118.081 99.1L114.161 99.6C114.341 98.28 115.101 97.26 116.381 97.26ZM122.465 105H124.445V99.4C124.825 98.8 125.645 97.72 126.645 97.72C127.045 97.72 127.445 97.88 127.445 97.88L127.845 95.88C127.845 95.88 127.565 95.72 127.065 95.72C125.685 95.72 124.765 97 124.405 97.62V95.8L122.465 96.12V105ZM128.819 104.44C128.819 104.44 129.939 105.24 131.819 105.24C134.039 105.24 135.339 104.14 135.339 102.5C135.339 99.62 130.999 99.76 130.999 98.18C130.999 97.66 131.439 97.28 132.439 97.28C133.599 97.28 134.639 97.84 134.639 97.84L135.099 96.22C135.099 96.22 134.099 95.72 132.519 95.72C130.019 95.72 129.019 96.94 129.019 98.34C129.019 101.18 133.359 101.06 133.359 102.68C133.359 103.26 132.859 103.68 131.799 103.68C130.339 103.68 129.239 102.76 129.239 102.76L128.819 104.44ZM142.79 102.54C142.79 104.4 143.81 105.24 145.37 105.24C146.97 105.24 148.15 104.28 148.15 104.28L147.65 102.78C147.41 102.92 146.57 103.58 145.81 103.58C145.15 103.58 144.77 103.14 144.77 102.04V97.46H147.63V95.96H144.77V93.4L142.83 93.82V95.88L141.45 96.38V97.46H142.79V102.54ZM149.249 100.52C149.249 102.92 150.869 105.24 153.869 105.24C157.129 105.24 158.569 102.5 158.569 100.3C158.569 97.98 156.949 95.72 153.949 95.72C150.709 95.72 149.249 98.26 149.249 100.52ZM151.309 100.34C151.309 98.54 152.369 97.3 153.909 97.3C155.749 97.3 156.509 98.96 156.509 100.56C156.509 102.38 155.449 103.66 153.929 103.66C152.129 103.66 151.309 102.02 151.309 100.34ZM165.492 103.4C165.492 104.02 166.072 104.38 166.972 104.68C166.012 105.18 164.672 106.04 164.672 107.36C164.672 108.94 166.632 109.74 168.632 109.74C171.352 109.74 173.572 108.2 173.572 106.38C173.572 104.72 171.752 104.22 170.152 103.82C168.272 103.36 167.392 103.18 167.392 102.82C167.392 102.6 167.712 102.36 168.132 102.08C168.332 102.12 168.552 102.12 168.792 102.12C170.732 102.12 172.792 101.06 172.792 99.08C172.792 98.28 172.412 97.74 172.132 97.42C172.372 97.46 172.652 97.48 172.872 97.48H173.952L173.812 95.9C173.812 95.9 173.212 96.1 172.612 96.1H171.572C170.572 96.1 170.052 95.72 168.952 95.72C166.932 95.72 165.112 96.86 165.112 98.88C165.112 100.1 165.772 101.16 166.912 101.72C166.172 102.14 165.492 102.74 165.492 103.4ZM169.012 105.2C170.692 105.64 171.632 105.9 171.632 106.68C171.632 107.58 170.352 108.3 168.752 108.3C167.612 108.3 166.452 107.94 166.452 107.04C166.452 106.14 167.552 105.54 168.412 105.06C168.612 105.1 168.812 105.14 169.012 105.2ZM168.932 100.72C167.652 100.72 167.052 99.8 167.052 98.94C167.052 98 167.732 97.12 168.932 97.12C170.212 97.12 170.832 98.16 170.832 99.04C170.832 100.06 170.032 100.72 168.932 100.72ZM176.67 93.8C177.39 93.8 177.93 93.28 177.93 92.58C177.93 91.88 177.39 91.36 176.67 91.36C175.97 91.36 175.43 91.88 175.43 92.58C175.43 93.28 175.97 93.8 176.67 93.8ZM175.67 105H177.65V95.96H175.67V105ZM182.614 105.08H184.454L188.174 95.96H186.154L183.614 102.52L181.414 95.96H179.334L182.614 105.08ZM189.093 100.62C189.093 103.04 190.633 105.24 193.653 105.24C195.913 105.24 197.293 103.94 197.293 103.94L196.733 102.5C196.733 102.5 195.473 103.62 193.953 103.62C192.373 103.62 191.373 102.56 191.153 100.92L196.093 100.26L197.233 99.94C197.233 97.2 195.673 95.72 193.513 95.72C190.873 95.72 189.093 97.86 189.093 100.62ZM193.373 97.26C194.953 97.26 195.073 99.1 195.073 99.1L191.153 99.6C191.333 98.28 192.093 97.26 193.373 97.26ZM204.262 105H206.242V99.12C206.822 98.54 208.062 97.44 209.042 97.44C209.702 97.44 210.062 97.92 210.062 99.2V105H212.042V99.08C212.722 98.42 213.842 97.44 214.762 97.44C215.422 97.44 215.802 97.92 215.802 99.2V105H217.762V98.48C217.762 96.54 216.822 95.72 215.422 95.72C213.842 95.72 212.602 96.78 211.942 97.5C211.662 96.26 210.842 95.72 209.702 95.72C208.102 95.72 206.822 96.82 206.202 97.5V95.8L204.262 96.12V105ZM219.854 100.52C219.854 102.92 221.474 105.24 224.474 105.24C227.734 105.24 229.174 102.5 229.174 100.3C229.174 97.98 227.554 95.72 224.554 95.72C221.314 95.72 219.854 98.26 219.854 100.52ZM221.914 100.34C221.914 98.54 222.974 97.3 224.514 97.3C226.354 97.3 227.114 98.96 227.114 100.56C227.114 102.38 226.054 103.66 224.534 103.66C222.734 103.66 221.914 102.02 221.914 100.34ZM231.313 105H233.293V99.4C233.673 98.8 234.493 97.72 235.493 97.72C235.893 97.72 236.293 97.88 236.293 97.88L236.693 95.88C236.693 95.88 236.413 95.72 235.913 95.72C234.533 95.72 233.613 97 233.253 97.62V95.8L231.313 96.12V105ZM237.55 100.62C237.55 103.04 239.09 105.24 242.11 105.24C244.37 105.24 245.75 103.94 245.75 103.94L245.19 102.5C245.19 102.5 243.93 103.62 242.41 103.62C240.83 103.62 239.83 102.56 239.61 100.92L244.55 100.26L245.69 99.94C245.69 97.2 244.13 95.72 241.97 95.72C239.33 95.72 237.55 97.86 237.55 100.62ZM241.83 97.26C243.41 97.26 243.53 99.1 243.53 99.1L239.61 99.6C239.79 98.28 240.55 97.26 241.83 97.26ZM252.159 100.76C252.159 103.24 253.679 105.24 256.039 105.24C257.479 105.24 258.399 104.54 258.879 103.76C258.979 104.4 259.159 105.14 259.159 105.14L261.059 105C261.059 105 260.659 103.32 260.659 102.22V90.7L258.679 91.02V96.02C258.419 95.92 257.819 95.72 256.999 95.72C253.799 95.72 252.159 98.18 252.159 100.76ZM256.379 103.66C255.099 103.66 254.239 102.52 254.239 100.64C254.239 98.48 255.379 97.28 257.099 97.28C257.919 97.28 258.639 97.58 258.679 98.48V102.2C258.399 102.62 257.599 103.66 256.379 103.66ZM262.902 100.62C262.902 103.04 264.442 105.24 267.462 105.24C269.722 105.24 271.102 103.94 271.102 103.94L270.542 102.5C270.542 102.5 269.282 103.62 267.762 103.62C266.182 103.62 265.182 102.56 264.962 100.92L269.902 100.26L271.042 99.94C271.042 97.2 269.482 95.72 267.322 95.72C264.682 95.72 262.902 97.86 262.902 100.62ZM267.182 97.26C268.762 97.26 268.882 99.1 268.882 99.1L264.962 99.6C265.142 98.28 265.902 97.26 267.182 97.26ZM273.786 102.54C273.786 104.4 274.806 105.24 276.366 105.24C277.966 105.24 279.146 104.28 279.146 104.28L278.646 102.78C278.406 102.92 277.566 103.58 276.806 103.58C276.146 103.58 275.766 103.14 275.766 102.04V97.46H278.626V95.96H275.766V93.4L273.826 93.82V95.88L272.446 96.38V97.46H273.786V102.54ZM280.105 102.92C280.105 104.26 281.125 105.24 282.705 105.24C284.465 105.24 285.385 104.12 285.625 103.74C285.885 104.46 286.465 105.04 287.845 105.14L288.445 103.58C288.445 103.58 287.445 103.56 287.445 102.44V98.62C287.445 96.6 286.765 95.72 284.625 95.72C282.245 95.72 280.705 96.86 280.705 96.86L281.225 98.34C281.225 98.34 282.605 97.3 284.085 97.3C285.545 97.3 285.465 98.3 285.465 99.44C282.085 99.88 280.105 101.02 280.105 102.92ZM283.205 103.68C282.625 103.68 282.145 103.42 282.145 102.78C282.145 101.72 283.165 101.06 285.465 100.72V102.28C284.865 102.98 284.125 103.68 283.205 103.68ZM291.435 93.8C292.155 93.8 292.695 93.28 292.695 92.58C292.695 91.88 292.155 91.36 291.435 91.36C290.735 91.36 290.195 91.88 290.195 92.58C290.195 93.28 290.735 93.8 291.435 93.8ZM290.435 105H292.415V95.96H290.435V105ZM295.24 105H297.22V90.7L295.24 91.02V105ZM299.445 100.62C299.445 103.04 300.985 105.24 304.005 105.24C306.265 105.24 307.645 103.94 307.645 103.94L307.085 102.5C307.085 102.5 305.825 103.62 304.305 103.62C302.725 103.62 301.725 102.56 301.505 100.92L306.445 100.26L307.585 99.94C307.585 97.2 306.025 95.72 303.865 95.72C301.225 95.72 299.445 97.86 299.445 100.62ZM303.725 97.26C305.305 97.26 305.425 99.1 305.425 99.1L301.505 99.6C301.685 98.28 302.445 97.26 303.725 97.26ZM309.249 100.76C309.249 103.24 310.769 105.24 313.129 105.24C314.569 105.24 315.489 104.54 315.969 103.76C316.069 104.4 316.249 105.14 316.249 105.14L318.149 105C318.149 105 317.749 103.32 317.749 102.22V90.7L315.769 91.02V96.02C315.509 95.92 314.909 95.72 314.089 95.72C310.889 95.72 309.249 98.18 309.249 100.76ZM313.469 103.66C312.189 103.66 311.329 102.52 311.329 100.64C311.329 98.48 312.469 97.28 314.189 97.28C315.009 97.28 315.729 97.58 315.769 98.48V102.2C315.489 102.62 314.689 103.66 313.469 103.66ZM324.496 97.46H325.916V105H327.896V97.46H330.396V95.96H327.896V94.88C327.896 92.76 328.856 92.02 329.916 92.02C330.896 92.02 331.776 92.66 331.776 92.66L332.556 91.14C332.556 91.14 331.516 90.38 329.936 90.38C327.576 90.38 325.916 92.04 325.916 95V95.88L324.496 96.4V97.46ZM331.476 100.62C331.476 103.04 333.016 105.24 336.036 105.24C338.296 105.24 339.676 103.94 339.676 103.94L339.116 102.5C339.116 102.5 337.856 103.62 336.336 103.62C334.756 103.62 333.756 102.56 333.536 100.92L338.476 100.26L339.616 99.94C339.616 97.2 338.056 95.72 335.896 95.72C333.256 95.72 331.476 97.86 331.476 100.62ZM335.756 97.26C337.336 97.26 337.456 99.1 337.456 99.1L333.536 99.6C333.716 98.28 334.476 97.26 335.756 97.26ZM341.28 100.62C341.28 103.04 342.82 105.24 345.84 105.24C348.1 105.24 349.48 103.94 349.48 103.94L348.92 102.5C348.92 102.5 347.66 103.62 346.14 103.62C344.56 103.62 343.56 102.56 343.34 100.92L348.28 100.26L349.42 99.94C349.42 97.2 347.86 95.72 345.7 95.72C343.06 95.72 341.28 97.86 341.28 100.62ZM345.56 97.26C347.14 97.26 347.26 99.1 347.26 99.1L343.34 99.6C343.52 98.28 344.28 97.26 345.56 97.26ZM351.085 100.76C351.085 103.24 352.605 105.24 354.965 105.24C356.405 105.24 357.325 104.54 357.805 103.76C357.905 104.4 358.085 105.14 358.085 105.14L359.985 105C359.985 105 359.585 103.32 359.585 102.22V90.7L357.605 91.02V96.02C357.345 95.92 356.745 95.72 355.925 95.72C352.725 95.72 351.085 98.18 351.085 100.76ZM355.305 103.66C354.025 103.66 353.165 102.52 353.165 100.64C353.165 98.48 354.305 97.28 356.025 97.28C356.845 97.28 357.565 97.58 357.605 98.48V102.2C357.325 102.62 356.525 103.66 355.305 103.66ZM362.387 104.8C363.067 104.96 364.607 105.24 365.687 105.24C369.107 105.24 370.747 102.8 370.747 100.16C370.747 97.68 369.307 95.72 366.807 95.72C365.567 95.72 364.827 96.22 364.367 96.74V90.7L362.387 91.02V104.8ZM366.487 97.32C367.807 97.32 368.707 98.42 368.707 100.3C368.707 102.54 367.447 103.74 365.727 103.74C364.987 103.74 364.367 103.54 364.367 103.54V98.26C364.787 97.88 365.547 97.32 366.487 97.32ZM372.214 102.92C372.214 104.26 373.234 105.24 374.814 105.24C376.574 105.24 377.494 104.12 377.734 103.74C377.994 104.46 378.574 105.04 379.954 105.14L380.554 103.58C380.554 103.58 379.554 103.56 379.554 102.44V98.62C379.554 96.6 378.874 95.72 376.734 95.72C374.354 95.72 372.814 96.86 372.814 96.86L373.334 98.34C373.334 98.34 374.714 97.3 376.194 97.3C377.654 97.3 377.574 98.3 377.574 99.44C374.194 99.88 372.214 101.02 372.214 102.92ZM375.314 103.68C374.734 103.68 374.254 103.42 374.254 102.78C374.254 101.72 375.274 101.06 377.574 100.72V102.28C376.974 102.98 376.234 103.68 375.314 103.68ZM381.925 100.6C381.925 103.22 383.745 105.24 386.565 105.24C388.725 105.24 389.765 104.08 389.765 104.08L389.125 102.68C389.125 102.68 388.145 103.62 386.705 103.62C385.005 103.62 383.985 102.28 383.985 100.5C383.985 98.66 385.085 97.32 386.725 97.32C388.045 97.32 388.985 98.16 388.985 98.16L389.765 96.68C389.765 96.68 388.665 95.72 386.685 95.72C383.705 95.72 381.925 98.1 381.925 100.6ZM391.763 105H393.743V100.72H394.023L397.623 105H400.163L395.763 99.92L399.883 95.96H397.303L394.023 99.26H393.743V90.7L391.763 91.02V105ZM29.08 128.72H33.96V127.2H29.08V128.72ZM41.6559 133H49.8359V131.28H43.7159V127.08H48.4959V125.34H43.7159V121.38H49.7759V119.66H41.6559V133ZM51.8991 133H53.8791V127.12C54.4591 126.54 55.6991 125.44 56.6791 125.44C57.3391 125.44 57.6991 125.92 57.6991 127.2V133H59.6791V127.08C60.3591 126.42 61.4791 125.44 62.3991 125.44C63.0591 125.44 63.4391 125.92 63.4391 127.2V133H65.3991V126.48C65.3991 124.54 64.4591 123.72 63.0591 123.72C61.4791 123.72 60.2391 124.78 59.5791 125.5C59.2991 124.26 58.4791 123.72 57.3391 123.72C55.7391 123.72 54.4591 124.82 53.8391 125.5V123.8L51.8991 124.12V133ZM68.0709 137.66L70.0509 137.34V132.76C70.4309 133.04 71.1109 133.24 71.9509 133.24C74.8309 133.24 76.5109 130.88 76.5109 128.2C76.5109 125.74 75.0709 123.72 72.6909 123.72C71.2709 123.72 70.4109 124.46 69.9909 125.24V123.8L68.0709 124.12V137.66ZM72.3509 125.36C73.5709 125.36 74.4309 126.46 74.4309 128.34C74.4309 130.5 73.2909 131.68 71.5909 131.68C70.6509 131.68 70.0509 131.34 70.0509 130.66V126.82C70.3109 126.44 71.1509 125.36 72.3509 125.36ZM78.7164 133H80.6964V118.7L78.7164 119.02V133ZM82.9011 128.52C82.9011 130.92 84.5211 133.24 87.5211 133.24C90.7811 133.24 92.2211 130.5 92.2211 128.3C92.2211 125.98 90.6011 123.72 87.6011 123.72C84.3611 123.72 82.9011 126.26 82.9011 128.52ZM84.9611 128.34C84.9611 126.54 86.0211 125.3 87.5611 125.3C89.4011 125.3 90.1611 126.96 90.1611 128.56C90.1611 130.38 89.1011 131.66 87.5811 131.66C85.7811 131.66 84.9611 130.02 84.9611 128.34ZM93.2419 136.16L93.8619 137.74C95.9819 137.5 97.3019 135.6 98.0819 133.68L102.002 123.96H99.9619L97.6219 130.16L95.2419 123.96H93.1419L96.6419 132.54L96.1619 133.62C95.6219 134.88 94.5619 135.94 93.2419 136.16ZM107.803 128.6C107.803 131.22 109.623 133.24 112.443 133.24C114.603 133.24 115.643 132.08 115.643 132.08L115.003 130.68C115.003 130.68 114.023 131.62 112.583 131.62C110.883 131.62 109.863 130.28 109.863 128.5C109.863 126.66 110.963 125.32 112.603 125.32C113.923 125.32 114.863 126.16 114.863 126.16L115.643 124.68C115.643 124.68 114.543 123.72 112.563 123.72C109.583 123.72 107.803 126.1 107.803 128.6ZM116.866 128.52C116.866 130.92 118.486 133.24 121.486 133.24C124.746 133.24 126.186 130.5 126.186 128.3C126.186 125.98 124.566 123.72 121.566 123.72C118.326 123.72 116.866 126.26 116.866 128.52ZM118.926 128.34C118.926 126.54 119.986 125.3 121.526 125.3C123.366 125.3 124.126 126.96 124.126 128.56C124.126 130.38 123.066 131.66 121.546 131.66C119.746 131.66 118.926 130.02 118.926 128.34ZM128.325 133H130.305V127.14C130.925 126.54 132.205 125.44 133.205 125.44C133.885 125.44 134.285 125.92 134.285 127.2V133H136.265V126.48C136.265 124.54 135.285 123.72 133.865 123.72C132.205 123.72 130.905 124.82 130.265 125.52V123.8L128.325 124.12V133ZM139.45 130.54C139.45 132.4 140.47 133.24 142.03 133.24C143.63 133.24 144.81 132.28 144.81 132.28L144.31 130.78C144.07 130.92 143.23 131.58 142.47 131.58C141.81 131.58 141.43 131.14 141.43 130.04V125.46H144.29V123.96H141.43V121.4L139.49 121.82V123.88L138.11 124.38V125.46H139.45V130.54ZM145.929 128.62C145.929 131.04 147.469 133.24 150.489 133.24C152.749 133.24 154.129 131.94 154.129 131.94L153.569 130.5C153.569 130.5 152.309 131.62 150.789 131.62C149.209 131.62 148.209 130.56 147.989 128.92L152.929 128.26L154.069 127.94C154.069 125.2 152.509 123.72 150.349 123.72C147.709 123.72 145.929 125.86 145.929 128.62ZM150.209 125.26C151.789 125.26 151.909 127.1 151.909 127.1L147.989 127.6C148.169 126.28 148.929 125.26 150.209 125.26ZM155.354 133H157.514L159.594 129.92L161.634 133H163.854L160.754 128.44L163.854 123.96H161.634L159.634 126.96L157.654 123.96H155.354L158.474 128.48L155.354 133ZM166.169 130.54C166.169 132.4 167.189 133.24 168.749 133.24C170.349 133.24 171.529 132.28 171.529 132.28L171.029 130.78C170.789 130.92 169.949 131.58 169.189 131.58C168.529 131.58 168.149 131.14 168.149 130.04V125.46H171.009V123.96H168.149V121.4L166.209 121.82V123.88L164.829 124.38V125.46H166.169V130.54ZM173.148 130.52C173.148 132.46 174.148 133.24 175.608 133.24C177.268 133.24 178.528 132.18 179.108 131.56C179.208 132.22 179.408 133.16 179.408 133.16L181.328 132.98C181.328 132.98 180.928 131.32 180.928 130.22V123.96H178.948V130.04C178.388 130.56 177.268 131.52 176.248 131.52C175.508 131.52 175.128 131.02 175.128 129.76V123.96H173.148V130.52ZM183.035 130.92C183.035 132.26 184.055 133.24 185.635 133.24C187.395 133.24 188.315 132.12 188.555 131.74C188.815 132.46 189.395 133.04 190.775 133.14L191.375 131.58C191.375 131.58 190.375 131.56 190.375 130.44V126.62C190.375 124.6 189.695 123.72 187.555 123.72C185.175 123.72 183.635 124.86 183.635 124.86L184.155 126.34C184.155 126.34 185.535 125.3 187.015 125.3C188.475 125.3 188.395 126.3 188.395 127.44C185.015 127.88 183.035 129.02 183.035 130.92ZM186.135 131.68C185.555 131.68 185.075 131.42 185.075 130.78C185.075 129.72 186.095 129.06 188.395 128.72V130.28C187.795 130.98 187.055 131.68 186.135 131.68ZM193.365 133H195.345V118.7L193.365 119.02V133ZM202.934 137.66L204.914 137.34V132.76C205.294 133.04 205.974 133.24 206.814 133.24C209.694 133.24 211.374 130.88 211.374 128.2C211.374 125.74 209.934 123.72 207.554 123.72C206.134 123.72 205.274 124.46 204.854 125.24V123.8L202.934 124.12V137.66ZM207.214 125.36C208.434 125.36 209.294 126.46 209.294 128.34C209.294 130.5 208.154 131.68 206.454 131.68C205.514 131.68 204.914 131.34 204.914 130.66V126.82C205.174 126.44 206.014 125.36 207.214 125.36ZM213.54 133H215.52V127.4C215.9 126.8 216.72 125.72 217.72 125.72C218.12 125.72 218.52 125.88 218.52 125.88L218.92 123.88C218.92 123.88 218.64 123.72 218.14 123.72C216.76 123.72 215.84 125 215.48 125.62V123.8L213.54 124.12V133ZM219.757 128.52C219.757 130.92 221.377 133.24 224.377 133.24C227.637 133.24 229.077 130.5 229.077 128.3C229.077 125.98 227.457 123.72 224.457 123.72C221.217 123.72 219.757 126.26 219.757 128.52ZM221.817 128.34C221.817 126.54 222.877 125.3 224.417 125.3C226.257 125.3 227.017 126.96 227.017 128.56C227.017 130.38 225.957 131.66 224.437 131.66C222.637 131.66 221.817 130.02 221.817 128.34ZM231.215 133H233.195V127.12C233.775 126.54 235.015 125.44 235.995 125.44C236.655 125.44 237.015 125.92 237.015 127.2V133H238.995V127.08C239.675 126.42 240.795 125.44 241.715 125.44C242.375 125.44 242.755 125.92 242.755 127.2V133H244.715V126.48C244.715 124.54 243.775 123.72 242.375 123.72C240.795 123.72 239.555 124.78 238.895 125.5C238.615 124.26 237.795 123.72 236.655 123.72C235.055 123.72 233.775 124.82 233.155 125.5V123.8L231.215 124.12V133ZM247.387 137.66L249.367 137.34V132.76C249.747 133.04 250.427 133.24 251.267 133.24C254.147 133.24 255.827 130.88 255.827 128.2C255.827 125.74 254.387 123.72 252.007 123.72C250.587 123.72 249.727 124.46 249.307 125.24V123.8L247.387 124.12V137.66ZM251.667 125.36C252.887 125.36 253.747 126.46 253.747 128.34C253.747 130.5 252.607 131.68 250.907 131.68C249.967 131.68 249.367 131.34 249.367 130.66V126.82C249.627 126.44 250.467 125.36 251.667 125.36ZM258.513 130.54C258.513 132.4 259.533 133.24 261.093 133.24C262.693 133.24 263.873 132.28 263.873 132.28L263.373 130.78C263.133 130.92 262.293 131.58 261.533 131.58C260.873 131.58 260.493 131.14 260.493 130.04V125.46H263.353V123.96H260.493V121.4L258.553 121.82V123.88L257.173 124.38V125.46H258.513V130.54ZM264.951 132.44C264.951 132.44 266.071 133.24 267.951 133.24C270.171 133.24 271.471 132.14 271.471 130.5C271.471 127.62 267.131 127.76 267.131 126.18C267.131 125.66 267.571 125.28 268.571 125.28C269.731 125.28 270.771 125.84 270.771 125.84L271.231 124.22C271.231 124.22 270.231 123.72 268.651 123.72C266.151 123.72 265.151 124.94 265.151 126.34C265.151 129.18 269.491 129.06 269.491 130.68C269.491 131.26 268.991 131.68 267.931 131.68C266.471 131.68 265.371 130.76 265.371 130.76L264.951 132.44ZM278.923 130.54C278.923 132.4 279.943 133.24 281.503 133.24C283.103 133.24 284.283 132.28 284.283 132.28L283.783 130.78C283.543 130.92 282.703 131.58 281.943 131.58C281.283 131.58 280.903 131.14 280.903 130.04V125.46H283.763V123.96H280.903V121.4L278.963 121.82V123.88L277.583 124.38V125.46H278.923V130.54ZM285.382 128.52C285.382 130.92 287.002 133.24 290.002 133.24C293.262 133.24 294.702 130.5 294.702 128.3C294.702 125.98 293.082 123.72 290.082 123.72C286.842 123.72 285.382 126.26 285.382 128.52ZM287.442 128.34C287.442 126.54 288.502 125.3 290.042 125.3C291.882 125.3 292.642 126.96 292.642 128.56C292.642 130.38 291.582 131.66 290.062 131.66C288.262 131.66 287.442 130.02 287.442 128.34ZM301.645 132.8C302.325 132.96 303.865 133.24 304.945 133.24C308.365 133.24 310.005 130.8 310.005 128.16C310.005 125.68 308.565 123.72 306.065 123.72C304.825 123.72 304.085 124.22 303.625 124.74V118.7L301.645 119.02V132.8ZM305.745 125.32C307.065 125.32 307.965 126.42 307.965 128.3C307.965 130.54 306.705 131.74 304.985 131.74C304.245 131.74 303.625 131.54 303.625 131.54V126.26C304.045 125.88 304.805 125.32 305.745 125.32ZM311.632 128.62C311.632 131.04 313.172 133.24 316.192 133.24C318.452 133.24 319.832 131.94 319.832 131.94L319.272 130.5C319.272 130.5 318.012 131.62 316.492 131.62C314.912 131.62 313.912 130.56 313.692 128.92L318.632 128.26L319.772 127.94C319.772 125.2 318.212 123.72 316.052 123.72C313.412 123.72 311.632 125.86 311.632 128.62ZM315.912 125.26C317.492 125.26 317.612 127.1 317.612 127.1L313.692 127.6C313.872 126.28 314.632 125.26 315.912 125.26ZM322.517 130.54C322.517 132.4 323.537 133.24 325.097 133.24C326.697 133.24 327.877 132.28 327.877 132.28L327.377 130.78C327.137 130.92 326.297 131.58 325.537 131.58C324.877 131.58 324.497 131.14 324.497 130.04V125.46H327.357V123.96H324.497V121.4L322.557 121.82V123.88L321.177 124.38V125.46H322.517V130.54ZM330.075 130.54C330.075 132.4 331.095 133.24 332.655 133.24C334.255 133.24 335.435 132.28 335.435 132.28L334.935 130.78C334.695 130.92 333.855 131.58 333.095 131.58C332.435 131.58 332.055 131.14 332.055 130.04V125.46H334.915V123.96H332.055V121.4L330.115 121.82V123.88L328.735 124.38V125.46H330.075V130.54ZM336.554 128.62C336.554 131.04 338.094 133.24 341.114 133.24C343.374 133.24 344.754 131.94 344.754 131.94L344.194 130.5C344.194 130.5 342.934 131.62 341.414 131.62C339.834 131.62 338.834 130.56 338.614 128.92L343.554 128.26L344.694 127.94C344.694 125.2 343.134 123.72 340.974 123.72C338.334 123.72 336.554 125.86 336.554 128.62ZM340.834 125.26C342.414 125.26 342.534 127.1 342.534 127.1L338.614 127.6C338.794 126.28 339.554 125.26 340.834 125.26ZM346.919 133H348.899V127.4C349.279 126.8 350.099 125.72 351.099 125.72C351.499 125.72 351.899 125.88 351.899 125.88L352.299 123.88C352.299 123.88 352.019 123.72 351.519 123.72C350.139 123.72 349.219 125 348.859 125.62V123.8L346.919 124.12V133ZM357.956 130.92C357.956 132.26 358.976 133.24 360.556 133.24C362.316 133.24 363.236 132.12 363.476 131.74C363.736 132.46 364.316 133.04 365.696 133.14L366.296 131.58C366.296 131.58 365.296 131.56 365.296 130.44V126.62C365.296 124.6 364.616 123.72 362.476 123.72C360.096 123.72 358.556 124.86 358.556 124.86L359.076 126.34C359.076 126.34 360.456 125.3 361.936 125.3C363.396 125.3 363.316 126.3 363.316 127.44C359.936 127.88 357.956 129.02 357.956 130.92ZM361.056 131.68C360.476 131.68 359.996 131.42 359.996 130.78C359.996 129.72 361.016 129.06 363.316 128.72V130.28C362.716 130.98 361.976 131.68 361.056 131.68ZM368.287 133H370.267V118.7L368.287 119.02V133ZM373.091 133H375.071V118.7L373.091 119.02V133ZM378.896 121.8C379.616 121.8 380.156 121.28 380.156 120.58C380.156 119.88 379.616 119.36 378.896 119.36C378.196 119.36 377.656 119.88 377.656 120.58C377.656 121.28 378.196 121.8 378.896 121.8ZM377.896 133H379.876V123.96H377.896V133ZM382.641 131.4C382.641 132.02 383.221 132.38 384.121 132.68C383.161 133.18 381.821 134.04 381.821 135.36C381.821 136.94 383.781 137.74 385.781 137.74C388.501 137.74 390.721 136.2 390.721 134.38C390.721 132.72 388.901 132.22 387.301 131.82C385.421 131.36 384.541 131.18 384.541 130.82C384.541 130.6 384.861 130.36 385.281 130.08C385.481 130.12 385.701 130.12 385.941 130.12C387.881 130.12 389.941 129.06 389.941 127.08C389.941 126.28 389.561 125.74 389.281 125.42C389.521 125.46 389.801 125.48 390.021 125.48H391.101L390.961 123.9C390.961 123.9 390.361 124.1 389.761 124.1H388.721C387.721 124.1 387.201 123.72 386.101 123.72C384.081 123.72 382.261 124.86 382.261 126.88C382.261 128.1 382.921 129.16 384.061 129.72C383.321 130.14 382.641 130.74 382.641 131.4ZM386.161 133.2C387.841 133.64 388.781 133.9 388.781 134.68C388.781 135.58 387.501 136.3 385.901 136.3C384.761 136.3 383.601 135.94 383.601 135.04C383.601 134.14 384.701 133.54 385.561 133.06C385.761 133.1 385.961 133.14 386.161 133.2ZM386.081 128.72C384.801 128.72 384.201 127.8 384.201 126.94C384.201 126 384.881 125.12 386.081 125.12C387.361 125.12 387.981 126.16 387.981 127.04C387.981 128.06 387.181 128.72 386.081 128.72ZM392.778 133H394.758V127.14C395.378 126.54 396.658 125.44 397.658 125.44C398.338 125.44 398.738 125.92 398.738 127.2V133H400.718V126.48C400.718 124.54 399.738 123.72 398.318 123.72C396.658 123.72 395.358 124.82 394.718 125.52V123.8L392.778 124.12V133ZM43.1741 161.44C43.1741 161.44 44.2941 162.24 46.1741 162.24C48.3941 162.24 49.6941 161.14 49.6941 159.5C49.6941 156.62 45.3541 156.76 45.3541 155.18C45.3541 154.66 45.7941 154.28 46.7941 154.28C47.9541 154.28 48.9941 154.84 48.9941 154.84L49.4541 153.22C49.4541 153.22 48.4541 152.72 46.8741 152.72C44.3741 152.72 43.3741 153.94 43.3741 155.34C43.3741 158.18 47.7141 158.06 47.7141 159.68C47.7141 160.26 47.2141 160.68 46.1541 160.68C44.6941 160.68 43.5941 159.76 43.5941 159.76L43.1741 161.44ZM50.7809 165.16L51.4009 166.74C53.5209 166.5 54.8409 164.6 55.6209 162.68L59.5409 152.96H57.5009L55.1609 159.16L52.7809 152.96H50.6809L54.1809 161.54L53.7009 162.62C53.1609 163.88 52.1009 164.94 50.7809 165.16ZM60.5178 161.44C60.5178 161.44 61.6378 162.24 63.5178 162.24C65.7378 162.24 67.0378 161.14 67.0378 159.5C67.0378 156.62 62.6978 156.76 62.6978 155.18C62.6978 154.66 63.1378 154.28 64.1378 154.28C65.2978 154.28 66.3378 154.84 66.3378 154.84L66.7978 153.22C66.7978 153.22 65.7978 152.72 64.2178 152.72C61.7178 152.72 60.7178 153.94 60.7178 155.34C60.7178 158.18 65.0578 158.06 65.0578 159.68C65.0578 160.26 64.5578 160.68 63.4978 160.68C62.0378 160.68 60.9378 159.76 60.9378 159.76L60.5178 161.44ZM69.6847 159.54C69.6847 161.4 70.7047 162.24 72.2647 162.24C73.8647 162.24 75.0447 161.28 75.0447 161.28L74.5447 159.78C74.3047 159.92 73.4647 160.58 72.7047 160.58C72.0447 160.58 71.6647 160.14 71.6647 159.04V154.46H74.5247V152.96H71.6647V150.4L69.7247 150.82V152.88L68.3447 153.38V154.46H69.6847V159.54ZM76.1633 157.62C76.1633 160.04 77.7033 162.24 80.7233 162.24C82.9833 162.24 84.3633 160.94 84.3633 160.94L83.8033 159.5C83.8033 159.5 82.5433 160.62 81.0233 160.62C79.4433 160.62 78.4433 159.56 78.2233 157.92L83.1633 157.26L84.3033 156.94C84.3033 154.2 82.7433 152.72 80.5833 152.72C77.9433 152.72 76.1633 154.86 76.1633 157.62ZM80.4433 154.26C82.0233 154.26 82.1433 156.1 82.1433 156.1L78.2233 156.6C78.4033 155.28 79.1633 154.26 80.4433 154.26ZM86.528 162H88.508V156.12C89.088 155.54 90.328 154.44 91.308 154.44C91.968 154.44 92.328 154.92 92.328 156.2V162H94.308V156.08C94.988 155.42 96.108 154.44 97.028 154.44C97.688 154.44 98.068 154.92 98.068 156.2V162H100.028V155.48C100.028 153.54 99.088 152.72 97.688 152.72C96.108 152.72 94.868 153.78 94.208 154.5C93.928 153.26 93.108 152.72 91.968 152.72C90.368 152.72 89.088 153.82 88.468 154.5V152.8L86.528 153.12V162ZM107.505 162H109.485V156.4C109.865 155.8 110.685 154.72 111.685 154.72C112.085 154.72 112.485 154.88 112.485 154.88L112.885 152.88C112.885 152.88 112.605 152.72 112.105 152.72C110.725 152.72 109.805 154 109.445 154.62V152.8L107.505 153.12V162ZM113.741 157.62C113.741 160.04 115.281 162.24 118.301 162.24C120.561 162.24 121.941 160.94 121.941 160.94L121.381 159.5C121.381 159.5 120.121 160.62 118.601 160.62C117.021 160.62 116.021 159.56 115.801 157.92L120.741 157.26L121.881 156.94C121.881 154.2 120.321 152.72 118.161 152.72C115.521 152.72 113.741 154.86 113.741 157.62ZM118.021 154.26C119.601 154.26 119.721 156.1 119.721 156.1L115.801 156.6C115.981 155.28 116.741 154.26 118.021 154.26ZM123.506 161.44C123.506 161.44 124.626 162.24 126.506 162.24C128.726 162.24 130.026 161.14 130.026 159.5C130.026 156.62 125.686 156.76 125.686 155.18C125.686 154.66 126.126 154.28 127.126 154.28C128.286 154.28 129.326 154.84 129.326 154.84L129.786 153.22C129.786 153.22 128.786 152.72 127.206 152.72C124.706 152.72 123.706 153.94 123.706 155.34C123.706 158.18 128.046 158.06 128.046 159.68C128.046 160.26 127.546 160.68 126.486 160.68C125.026 160.68 123.926 159.76 123.926 159.76L123.506 161.44ZM132.153 166.66L134.133 166.34V161.76C134.513 162.04 135.193 162.24 136.033 162.24C138.913 162.24 140.593 159.88 140.593 157.2C140.593 154.74 139.153 152.72 136.773 152.72C135.353 152.72 134.493 153.46 134.073 154.24V152.8L132.153 153.12V166.66ZM136.433 154.36C137.653 154.36 138.513 155.46 138.513 157.34C138.513 159.5 137.373 160.68 135.673 160.68C134.733 160.68 134.133 160.34 134.133 159.66V155.82C134.393 155.44 135.233 154.36 136.433 154.36ZM142.178 157.52C142.178 159.92 143.798 162.24 146.798 162.24C150.058 162.24 151.498 159.5 151.498 157.3C151.498 154.98 149.878 152.72 146.878 152.72C143.638 152.72 142.178 155.26 142.178 157.52ZM144.238 157.34C144.238 155.54 145.298 154.3 146.838 154.3C148.678 154.3 149.438 155.96 149.438 157.56C149.438 159.38 148.378 160.66 146.858 160.66C145.058 160.66 144.238 159.02 144.238 157.34ZM153.637 162H155.617V156.14C156.237 155.54 157.517 154.44 158.517 154.44C159.197 154.44 159.597 154.92 159.597 156.2V162H161.577V155.48C161.577 153.54 160.597 152.72 159.177 152.72C157.517 152.72 156.217 153.82 155.577 154.52V152.8L153.637 153.12V162ZM163.643 161.44C163.643 161.44 164.763 162.24 166.643 162.24C168.863 162.24 170.163 161.14 170.163 159.5C170.163 156.62 165.823 156.76 165.823 155.18C165.823 154.66 166.263 154.28 167.263 154.28C168.423 154.28 169.463 154.84 169.463 154.84L169.923 153.22C169.923 153.22 168.923 152.72 167.343 152.72C164.843 152.72 163.843 153.94 163.843 155.34C163.843 158.18 168.183 158.06 168.183 159.68C168.183 160.26 167.683 160.68 166.623 160.68C165.163 160.68 164.063 159.76 164.063 159.76L163.643 161.44ZM171.73 157.62C171.73 160.04 173.27 162.24 176.29 162.24C178.55 162.24 179.93 160.94 179.93 160.94L179.37 159.5C179.37 159.5 178.11 160.62 176.59 160.62C175.01 160.62 174.01 159.56 173.79 157.92L178.73 157.26L179.87 156.94C179.87 154.2 178.31 152.72 176.15 152.72C173.51 152.72 171.73 154.86 171.73 157.62ZM176.01 154.26C177.59 154.26 177.71 156.1 177.71 156.1L173.79 156.6C173.97 155.28 174.73 154.26 176.01 154.26ZM187.419 159.54C187.419 161.4 188.439 162.24 189.999 162.24C191.599 162.24 192.779 161.28 192.779 161.28L192.279 159.78C192.039 159.92 191.199 160.58 190.439 160.58C189.779 160.58 189.399 160.14 189.399 159.04V154.46H192.259V152.96H189.399V150.4L187.459 150.82V152.88L186.079 153.38V154.46H187.419V159.54ZM193.878 157.52C193.878 159.92 195.498 162.24 198.498 162.24C201.758 162.24 203.198 159.5 203.198 157.3C203.198 154.98 201.578 152.72 198.578 152.72C195.338 152.72 193.878 155.26 193.878 157.52ZM195.938 157.34C195.938 155.54 196.998 154.3 198.538 154.3C200.378 154.3 201.138 155.96 201.138 157.56C201.138 159.38 200.078 160.66 198.558 160.66C196.758 160.66 195.938 159.02 195.938 157.34ZM210.081 159.52C210.081 161.46 211.081 162.24 212.541 162.24C214.201 162.24 215.461 161.18 216.041 160.56C216.141 161.22 216.341 162.16 216.341 162.16L218.261 161.98C218.261 161.98 217.861 160.32 217.861 159.22V152.96H215.881V159.04C215.321 159.56 214.201 160.52 213.181 160.52C212.441 160.52 212.061 160.02 212.061 158.76V152.96H210.081V159.52ZM220.088 161.44C220.088 161.44 221.208 162.24 223.088 162.24C225.308 162.24 226.608 161.14 226.608 159.5C226.608 156.62 222.268 156.76 222.268 155.18C222.268 154.66 222.708 154.28 223.708 154.28C224.868 154.28 225.908 154.84 225.908 154.84L226.368 153.22C226.368 153.22 225.368 152.72 223.788 152.72C221.288 152.72 220.288 153.94 220.288 155.34C220.288 158.18 224.628 158.06 224.628 159.68C224.628 160.26 224.128 160.68 223.068 160.68C221.608 160.68 220.508 159.76 220.508 159.76L220.088 161.44ZM228.175 157.62C228.175 160.04 229.715 162.24 232.735 162.24C234.995 162.24 236.375 160.94 236.375 160.94L235.815 159.5C235.815 159.5 234.555 160.62 233.035 160.62C231.455 160.62 230.455 159.56 230.235 157.92L235.175 157.26L236.315 156.94C236.315 154.2 234.755 152.72 232.595 152.72C229.955 152.72 228.175 154.86 228.175 157.62ZM232.455 154.26C234.035 154.26 234.155 156.1 234.155 156.1L230.235 156.6C230.415 155.28 231.175 154.26 232.455 154.26ZM238.54 162H240.52V156.4C240.9 155.8 241.72 154.72 242.72 154.72C243.12 154.72 243.52 154.88 243.52 154.88L243.92 152.88C243.92 152.88 243.64 152.72 243.14 152.72C241.76 152.72 240.84 154 240.48 154.62V152.8L238.54 153.12V162ZM249.738 157.62C249.738 160.04 251.278 162.24 254.298 162.24C256.558 162.24 257.938 160.94 257.938 160.94L257.378 159.5C257.378 159.5 256.118 160.62 254.598 160.62C253.018 160.62 252.018 159.56 251.798 157.92L256.738 157.26L257.878 156.94C257.878 154.2 256.318 152.72 254.158 152.72C251.518 152.72 249.738 154.86 249.738 157.62ZM254.018 154.26C255.598 154.26 255.718 156.1 255.718 156.1L251.798 156.6C251.978 155.28 252.738 154.26 254.018 154.26ZM259.162 162H261.322L263.402 158.92L265.442 162H267.662L264.562 157.44L267.662 152.96H265.442L263.442 155.96L261.462 152.96H259.162L262.282 157.48L259.162 162ZM269.458 166.66L271.438 166.34V161.76C271.818 162.04 272.498 162.24 273.338 162.24C276.218 162.24 277.898 159.88 277.898 157.2C277.898 154.74 276.458 152.72 274.078 152.72C272.658 152.72 271.798 153.46 271.378 154.24V152.8L269.458 153.12V166.66ZM273.738 154.36C274.958 154.36 275.818 155.46 275.818 157.34C275.818 159.5 274.678 160.68 272.978 160.68C272.038 160.68 271.438 160.34 271.438 159.66V155.82C271.698 155.44 272.538 154.36 273.738 154.36ZM279.503 157.62C279.503 160.04 281.043 162.24 284.063 162.24C286.323 162.24 287.703 160.94 287.703 160.94L287.143 159.5C287.143 159.5 285.883 160.62 284.363 160.62C282.783 160.62 281.783 159.56 281.563 157.92L286.503 157.26L287.643 156.94C287.643 154.2 286.083 152.72 283.923 152.72C281.283 152.72 279.503 154.86 279.503 157.62ZM283.783 154.26C285.363 154.26 285.483 156.1 285.483 156.1L281.563 156.6C281.743 155.28 282.503 154.26 283.783 154.26ZM289.288 157.6C289.288 160.22 291.108 162.24 293.928 162.24C296.088 162.24 297.128 161.08 297.128 161.08L296.488 159.68C296.488 159.68 295.508 160.62 294.068 160.62C292.368 160.62 291.348 159.28 291.348 157.5C291.348 155.66 292.448 154.32 294.088 154.32C295.408 154.32 296.348 155.16 296.348 155.16L297.128 153.68C297.128 153.68 296.028 152.72 294.048 152.72C291.068 152.72 289.288 155.1 289.288 157.6ZM299.607 159.54C299.607 161.4 300.627 162.24 302.187 162.24C303.787 162.24 304.967 161.28 304.967 161.28L304.467 159.78C304.227 159.92 303.387 160.58 302.627 160.58C301.967 160.58 301.587 160.14 301.587 159.04V154.46H304.447V152.96H301.587V150.4L299.647 150.82V152.88L298.267 153.38V154.46H299.607V159.54ZM305.925 159.92C305.925 161.26 306.945 162.24 308.525 162.24C310.285 162.24 311.205 161.12 311.445 160.74C311.705 161.46 312.285 162.04 313.665 162.14L314.265 160.58C314.265 160.58 313.265 160.56 313.265 159.44V155.62C313.265 153.6 312.585 152.72 310.445 152.72C308.065 152.72 306.525 153.86 306.525 153.86L307.045 155.34C307.045 155.34 308.425 154.3 309.905 154.3C311.365 154.3 311.285 155.3 311.285 156.44C307.905 156.88 305.925 158.02 305.925 159.92ZM309.025 160.68C308.445 160.68 307.965 160.42 307.965 159.78C307.965 158.72 308.985 158.06 311.285 157.72V159.28C310.685 159.98 309.945 160.68 309.025 160.68ZM316.657 159.54C316.657 161.4 317.677 162.24 319.237 162.24C320.837 162.24 322.017 161.28 322.017 161.28L321.517 159.78C321.277 159.92 320.437 160.58 319.677 160.58C319.017 160.58 318.637 160.14 318.637 159.04V154.46H321.497V152.96H318.637V150.4L316.697 150.82V152.88L315.317 153.38V154.46H316.657V159.54ZM324.736 150.8C325.456 150.8 325.996 150.28 325.996 149.58C325.996 148.88 325.456 148.36 324.736 148.36C324.036 148.36 323.496 148.88 323.496 149.58C323.496 150.28 324.036 150.8 324.736 150.8ZM323.736 162H325.716V152.96H323.736V162ZM327.921 157.52C327.921 159.92 329.541 162.24 332.541 162.24C335.801 162.24 337.241 159.5 337.241 157.3C337.241 154.98 335.621 152.72 332.621 152.72C329.381 152.72 327.921 155.26 327.921 157.52ZM329.981 157.34C329.981 155.54 331.041 154.3 332.581 154.3C334.421 154.3 335.181 155.96 335.181 157.56C335.181 159.38 334.121 160.66 332.601 160.66C330.801 160.66 329.981 159.02 329.981 157.34ZM339.38 162H341.36V156.14C341.98 155.54 343.26 154.44 344.26 154.44C344.94 154.44 345.34 154.92 345.34 156.2V162H347.32V155.48C347.32 153.54 346.34 152.72 344.92 152.72C343.26 152.72 341.96 153.82 341.32 154.52V152.8L339.38 153.12V162ZM349.385 161.44C349.385 161.44 350.505 162.24 352.385 162.24C354.605 162.24 355.905 161.14 355.905 159.5C355.905 156.62 351.565 156.76 351.565 155.18C351.565 154.66 352.005 154.28 353.005 154.28C354.165 154.28 355.205 154.84 355.205 154.84L355.665 153.22C355.665 153.22 354.665 152.72 353.085 152.72C350.585 152.72 349.585 153.94 349.585 155.34C349.585 158.18 353.925 158.06 353.925 159.68C353.925 160.26 353.425 160.68 352.365 160.68C350.905 160.68 349.805 159.76 349.805 159.76L349.385 161.44ZM29.08 185.72H33.96V184.2H29.08V185.72ZM41.6559 190H46.2559C48.9359 190 50.8159 188.48 50.8159 186.12C50.8159 184 49.2759 183.12 48.4959 182.8C49.1959 182.26 50.0959 181.28 50.0959 179.86C50.0959 178.32 49.0159 176.66 45.5759 176.66H41.6559V190ZM43.7159 188.28V184.02H45.9559C47.8159 184.02 48.6359 184.92 48.6359 186.16C48.6359 187.42 47.8159 188.28 45.9559 188.28H43.7159ZM43.7159 178.38H45.2759C47.3559 178.38 47.9159 179.2 47.9159 180.2C47.9159 181.64 46.6359 182.32 46.6359 182.32H43.7159V178.38ZM52.9133 187.52C52.9133 189.46 53.9133 190.24 55.3733 190.24C57.0333 190.24 58.2933 189.18 58.8733 188.56C58.9733 189.22 59.1733 190.16 59.1733 190.16L61.0933 189.98C61.0933 189.98 60.6933 188.32 60.6933 187.22V180.96H58.7133V187.04C58.1533 187.56 57.0333 188.52 56.0133 188.52C55.2733 188.52 54.8933 188.02 54.8933 186.76V180.96H52.9133V187.52ZM64.5602 178.8C65.2802 178.8 65.8202 178.28 65.8202 177.58C65.8202 176.88 65.2802 176.36 64.5602 176.36C63.8602 176.36 63.3202 176.88 63.3202 177.58C63.3202 178.28 63.8602 178.8 64.5602 178.8ZM63.5602 190H65.5402V180.96H63.5602V190ZM68.3648 190H70.3448V175.7L68.3648 176.02V190ZM72.5695 185.76C72.5695 188.24 74.0895 190.24 76.4495 190.24C77.8895 190.24 78.8095 189.54 79.2895 188.76C79.3895 189.4 79.5695 190.14 79.5695 190.14L81.4695 190C81.4695 190 81.0695 188.32 81.0695 187.22V175.7L79.0895 176.02V181.02C78.8295 180.92 78.2295 180.72 77.4095 180.72C74.2095 180.72 72.5695 183.18 72.5695 185.76ZM76.7895 188.66C75.5095 188.66 74.6495 187.52 74.6495 185.64C74.6495 183.48 75.7895 182.28 77.5095 182.28C78.3295 182.28 79.0495 182.58 79.0895 183.48V187.2C78.8095 187.62 78.0095 188.66 76.7895 188.66ZM87.9564 187.92C87.9564 189.26 88.9764 190.24 90.5564 190.24C92.3164 190.24 93.2364 189.12 93.4764 188.74C93.7364 189.46 94.3164 190.04 95.6964 190.14L96.2964 188.58C96.2964 188.58 95.2964 188.56 95.2964 187.44V183.62C95.2964 181.6 94.6164 180.72 92.4764 180.72C90.0964 180.72 88.5564 181.86 88.5564 181.86L89.0764 183.34C89.0764 183.34 90.4564 182.3 91.9364 182.3C93.3964 182.3 93.3164 183.3 93.3164 184.44C89.9364 184.88 87.9564 186.02 87.9564 187.92ZM91.0564 188.68C90.4764 188.68 89.9964 188.42 89.9964 187.78C89.9964 186.72 91.0164 186.06 93.3164 185.72V187.28C92.7164 187.98 91.9764 188.68 91.0564 188.68ZM102.451 189.44C102.451 189.44 103.571 190.24 105.451 190.24C107.671 190.24 108.971 189.14 108.971 187.5C108.971 184.62 104.631 184.76 104.631 183.18C104.631 182.66 105.071 182.28 106.071 182.28C107.231 182.28 108.271 182.84 108.271 182.84L108.731 181.22C108.731 181.22 107.731 180.72 106.151 180.72C103.651 180.72 102.651 181.94 102.651 183.34C102.651 186.18 106.991 186.06 106.991 187.68C106.991 188.26 106.491 188.68 105.431 188.68C103.971 188.68 102.871 187.76 102.871 187.76L102.451 189.44ZM110.058 193.16L110.678 194.74C112.798 194.5 114.118 192.6 114.898 190.68L118.818 180.96H116.778L114.438 187.16L112.058 180.96H109.958L113.458 189.54L112.978 190.62C112.438 191.88 111.378 192.94 110.058 193.16ZM119.795 189.44C119.795 189.44 120.915 190.24 122.795 190.24C125.015 190.24 126.315 189.14 126.315 187.5C126.315 184.62 121.975 184.76 121.975 183.18C121.975 182.66 122.415 182.28 123.415 182.28C124.575 182.28 125.615 182.84 125.615 182.84L126.075 181.22C126.075 181.22 125.075 180.72 123.495 180.72C120.995 180.72 119.995 181.94 119.995 183.34C119.995 186.18 124.335 186.06 124.335 187.68C124.335 188.26 123.835 188.68 122.775 188.68C121.315 188.68 120.215 187.76 120.215 187.76L119.795 189.44ZM128.962 187.54C128.962 189.4 129.982 190.24 131.542 190.24C133.142 190.24 134.322 189.28 134.322 189.28L133.822 187.78C133.582 187.92 132.742 188.58 131.982 188.58C131.322 188.58 130.942 188.14 130.942 187.04V182.46H133.802V180.96H130.942V178.4L129.002 178.82V180.88L127.622 181.38V182.46H128.962V187.54ZM135.441 185.62C135.441 188.04 136.981 190.24 140.001 190.24C142.261 190.24 143.641 188.94 143.641 188.94L143.081 187.5C143.081 187.5 141.821 188.62 140.301 188.62C138.721 188.62 137.721 187.56 137.501 185.92L142.441 185.26L143.581 184.94C143.581 182.2 142.021 180.72 139.861 180.72C137.221 180.72 135.441 182.86 135.441 185.62ZM139.721 182.26C141.301 182.26 141.421 184.1 141.421 184.1L137.501 184.6C137.681 183.28 138.441 182.26 139.721 182.26ZM145.805 190H147.785V184.12C148.365 183.54 149.605 182.44 150.585 182.44C151.245 182.44 151.605 182.92 151.605 184.2V190H153.585V184.08C154.265 183.42 155.385 182.44 156.305 182.44C156.965 182.44 157.345 182.92 157.345 184.2V190H159.305V183.48C159.305 181.54 158.365 180.72 156.965 180.72C155.385 180.72 154.145 181.78 153.485 182.5C153.205 181.26 152.385 180.72 151.245 180.72C149.645 180.72 148.365 181.82 147.745 182.5V180.8L145.805 181.12V190ZM168.682 190.08H170.602L172.922 183.64L175.002 190.08H176.942L180.182 180.96H178.162L175.982 187.76L173.862 180.96H172.142L169.802 187.8L167.822 180.96H165.782L168.682 190.08ZM182.88 178.8C183.6 178.8 184.14 178.28 184.14 177.58C184.14 176.88 183.6 176.36 182.88 176.36C182.18 176.36 181.64 176.88 181.64 177.58C181.64 178.28 182.18 178.8 182.88 178.8ZM181.88 190H183.86V180.96H181.88V190ZM187.165 187.54C187.165 189.4 188.185 190.24 189.745 190.24C191.345 190.24 192.525 189.28 192.525 189.28L192.025 187.78C191.785 187.92 190.945 188.58 190.185 188.58C189.525 188.58 189.145 188.14 189.145 187.04V182.46H192.005V180.96H189.145V178.4L187.205 178.82V180.88L185.825 181.38V182.46H187.165V187.54ZM194.244 190H196.224V184.18C196.824 183.58 198.124 182.44 199.124 182.44C199.804 182.44 200.204 182.92 200.204 184.2V190H202.184V183.48C202.184 181.54 201.204 180.72 199.764 180.72C198.104 180.72 196.824 181.84 196.224 182.48V175.7L194.244 176.02V190ZM208.933 187.92C208.933 189.26 209.953 190.24 211.533 190.24C213.293 190.24 214.213 189.12 214.453 188.74C214.713 189.46 215.293 190.04 216.673 190.14L217.273 188.58C217.273 188.58 216.273 188.56 216.273 187.44V183.62C216.273 181.6 215.593 180.72 213.453 180.72C211.073 180.72 209.533 181.86 209.533 181.86L210.053 183.34C210.053 183.34 211.433 182.3 212.913 182.3C214.373 182.3 214.293 183.3 214.293 184.44C210.913 184.88 208.933 186.02 208.933 187.92ZM212.033 188.68C211.453 188.68 210.973 188.42 210.973 187.78C210.973 186.72 211.993 186.06 214.293 185.72V187.28C213.693 187.98 212.953 188.68 212.033 188.68ZM224.068 190H226.048V184.18C226.648 183.58 227.948 182.44 228.948 182.44C229.628 182.44 230.028 182.92 230.028 184.2V190H232.008V183.48C232.008 181.54 231.028 180.72 229.588 180.72C227.928 180.72 226.648 181.84 226.048 182.48V175.7L224.068 176.02V190ZM235.713 178.8C236.433 178.8 236.973 178.28 236.973 177.58C236.973 176.88 236.433 176.36 235.713 176.36C235.013 176.36 234.473 176.88 234.473 177.58C234.473 178.28 235.013 178.8 235.713 178.8ZM234.713 190H236.693V180.96H234.713V190ZM239.457 188.4C239.457 189.02 240.037 189.38 240.937 189.68C239.977 190.18 238.637 191.04 238.637 192.36C238.637 193.94 240.597 194.74 242.597 194.74C245.317 194.74 247.537 193.2 247.537 191.38C247.537 189.72 245.717 189.22 244.117 188.82C242.237 188.36 241.357 188.18 241.357 187.82C241.357 187.6 241.677 187.36 242.097 187.08C242.297 187.12 242.517 187.12 242.757 187.12C244.697 187.12 246.757 186.06 246.757 184.08C246.757 183.28 246.377 182.74 246.097 182.42C246.337 182.46 246.617 182.48 246.837 182.48H247.917L247.777 180.9C247.777 180.9 247.177 181.1 246.577 181.1H245.537C244.537 181.1 244.017 180.72 242.917 180.72C240.897 180.72 239.077 181.86 239.077 183.88C239.077 185.1 239.737 186.16 240.877 186.72C240.137 187.14 239.457 187.74 239.457 188.4ZM242.977 190.2C244.657 190.64 245.597 190.9 245.597 191.68C245.597 192.58 244.317 193.3 242.717 193.3C241.577 193.3 240.417 192.94 240.417 192.04C240.417 191.14 241.517 190.54 242.377 190.06C242.577 190.1 242.777 190.14 242.977 190.2ZM242.897 185.72C241.617 185.72 241.017 184.8 241.017 183.94C241.017 183 241.697 182.12 242.897 182.12C244.177 182.12 244.797 183.16 244.797 184.04C244.797 185.06 243.997 185.72 242.897 185.72ZM249.634 190H251.614V184.18C252.214 183.58 253.514 182.44 254.514 182.44C255.194 182.44 255.594 182.92 255.594 184.2V190H257.574V183.48C257.574 181.54 256.594 180.72 255.154 180.72C253.494 180.72 252.214 181.84 251.614 182.48V175.7L249.634 176.02V190ZM259.679 185.62C259.679 188.04 261.219 190.24 264.239 190.24C266.499 190.24 267.879 188.94 267.879 188.94L267.319 187.5C267.319 187.5 266.059 188.62 264.539 188.62C262.959 188.62 261.959 187.56 261.739 185.92L266.679 185.26L267.819 184.94C267.819 182.2 266.259 180.72 264.099 180.72C261.459 180.72 259.679 182.86 259.679 185.62ZM263.959 182.26C265.539 182.26 265.659 184.1 265.659 184.1L261.739 184.6C261.919 183.28 262.679 182.26 263.959 182.26ZM270.044 190H272.024V184.4C272.404 183.8 273.224 182.72 274.224 182.72C274.624 182.72 275.024 182.88 275.024 182.88L275.424 180.88C275.424 180.88 275.144 180.72 274.644 180.72C273.264 180.72 272.344 182 271.984 182.62V180.8L270.044 181.12V190ZM282.321 187.54C282.321 189.4 283.341 190.24 284.901 190.24C286.501 190.24 287.681 189.28 287.681 189.28L287.181 187.78C286.941 187.92 286.101 188.58 285.341 188.58C284.681 188.58 284.301 188.14 284.301 187.04V182.46H287.161V180.96H284.301V178.4L282.361 178.82V180.88L280.981 181.38V182.46H282.321V187.54ZM288.78 185.52C288.78 187.92 290.4 190.24 293.4 190.24C296.66 190.24 298.1 187.5 298.1 185.3C298.1 182.98 296.48 180.72 293.48 180.72C290.24 180.72 288.78 183.26 288.78 185.52ZM290.84 185.34C290.84 183.54 291.9 182.3 293.44 182.3C295.28 182.3 296.04 183.96 296.04 185.56C296.04 187.38 294.98 188.66 293.46 188.66C291.66 188.66 290.84 187.02 290.84 185.34ZM300.279 190H302.259V175.7L300.279 176.02V190ZM304.484 185.62C304.484 188.04 306.024 190.24 309.044 190.24C311.304 190.24 312.684 188.94 312.684 188.94L312.124 187.5C312.124 187.5 310.864 188.62 309.344 188.62C307.764 188.62 306.764 187.56 306.544 185.92L311.484 185.26L312.624 184.94C312.624 182.2 311.064 180.72 308.904 180.72C306.264 180.72 304.484 182.86 304.484 185.62ZM308.764 182.26C310.344 182.26 310.464 184.1 310.464 184.1L306.544 184.6C306.724 183.28 307.484 182.26 308.764 182.26ZM314.848 190H316.828V184.4C317.208 183.8 318.028 182.72 319.028 182.72C319.428 182.72 319.828 182.88 319.828 182.88L320.228 180.88C320.228 180.88 319.948 180.72 319.448 180.72C318.068 180.72 317.148 182 316.788 182.62V180.8L314.848 181.12V190ZM321.081 187.92C321.081 189.26 322.101 190.24 323.681 190.24C325.441 190.24 326.361 189.12 326.601 188.74C326.861 189.46 327.441 190.04 328.821 190.14L329.421 188.58C329.421 188.58 328.421 188.56 328.421 187.44V183.62C328.421 181.6 327.741 180.72 325.601 180.72C323.221 180.72 321.681 181.86 321.681 181.86L322.201 183.34C322.201 183.34 323.581 182.3 325.061 182.3C326.521 182.3 326.441 183.3 326.441 184.44C323.061 184.88 321.081 186.02 321.081 187.92ZM324.181 188.68C323.601 188.68 323.121 188.42 323.121 187.78C323.121 186.72 324.141 186.06 326.441 185.72V187.28C325.841 187.98 325.101 188.68 324.181 188.68ZM331.372 190H333.352V184.14C333.972 183.54 335.252 182.44 336.252 182.44C336.932 182.44 337.332 182.92 337.332 184.2V190H339.312V183.48C339.312 181.54 338.332 180.72 336.912 180.72C335.252 180.72 333.952 181.82 333.312 182.52V180.8L331.372 181.12V190ZM341.397 185.6C341.397 188.22 343.217 190.24 346.037 190.24C348.197 190.24 349.237 189.08 349.237 189.08L348.597 187.68C348.597 187.68 347.617 188.62 346.177 188.62C344.477 188.62 343.457 187.28 343.457 185.5C343.457 183.66 344.557 182.32 346.197 182.32C347.517 182.32 348.457 183.16 348.457 183.16L349.237 181.68C349.237 181.68 348.137 180.72 346.157 180.72C343.177 180.72 341.397 183.1 341.397 185.6ZM350.499 185.62C350.499 188.04 352.039 190.24 355.059 190.24C357.319 190.24 358.699 188.94 358.699 188.94L358.139 187.5C358.139 187.5 356.879 188.62 355.359 188.62C353.779 188.62 352.779 187.56 352.559 185.92L357.499 185.26L358.639 184.94C358.639 182.2 357.079 180.72 354.919 180.72C352.279 180.72 350.499 182.86 350.499 185.62ZM354.779 182.26C356.359 182.26 356.479 184.1 356.479 184.1L352.559 184.6C352.739 183.28 353.499 182.26 354.779 182.26ZM364.809 182.46H366.229V190H368.209V182.46H370.709V180.96H368.209V179.88C368.209 177.76 369.169 177.02 370.229 177.02C371.209 177.02 372.089 177.66 372.089 177.66L372.869 176.14C372.869 176.14 371.829 175.38 370.249 175.38C367.889 175.38 366.229 177.04 366.229 180V180.88L364.809 181.4V182.46ZM371.749 185.52C371.749 187.92 373.369 190.24 376.369 190.24C379.629 190.24 381.069 187.5 381.069 185.3C381.069 182.98 379.449 180.72 376.449 180.72C373.209 180.72 371.749 183.26 371.749 185.52ZM373.809 185.34C373.809 183.54 374.869 182.3 376.409 182.3C378.249 182.3 379.009 183.96 379.009 185.56C379.009 187.38 377.949 188.66 376.429 188.66C374.629 188.66 373.809 187.02 373.809 185.34ZM383.208 190H385.188V184.4C385.568 183.8 386.388 182.72 387.388 182.72C387.788 182.72 388.188 182.88 388.188 182.88L388.588 180.88C388.588 180.88 388.308 180.72 387.808 180.72C386.428 180.72 385.508 182 385.148 182.62V180.8L383.208 181.12V190ZM45.9541 218.08H47.7941L51.5141 208.96H49.4941L46.9541 215.52L44.7541 208.96H42.6741L45.9541 218.08ZM52.3509 215.92C52.3509 217.26 53.3709 218.24 54.9509 218.24C56.7109 218.24 57.6309 217.12 57.8709 216.74C58.1309 217.46 58.7109 218.04 60.0909 218.14L60.6909 216.58C60.6909 216.58 59.6909 216.56 59.6909 215.44V211.62C59.6909 209.6 59.0109 208.72 56.8709 208.72C54.4909 208.72 52.9509 209.86 52.9509 209.86L53.4709 211.34C53.4709 211.34 54.8509 210.3 56.3309 210.3C57.7909 210.3 57.7109 211.3 57.7109 212.44C54.3309 212.88 52.3509 214.02 52.3509 215.92ZM55.4509 216.68C54.8709 216.68 54.3909 216.42 54.3909 215.78C54.3909 214.72 55.4109 214.06 57.7109 213.72V215.28C57.1109 215.98 56.3709 216.68 55.4509 216.68ZM62.6413 218H64.6213V212.4C65.0013 211.8 65.8213 210.72 66.8213 210.72C67.2213 210.72 67.6213 210.88 67.6213 210.88L68.0213 208.88C68.0213 208.88 67.7413 208.72 67.2413 208.72C65.8613 208.72 64.9413 210 64.5813 210.62V208.8L62.6413 209.12V218ZM70.6344 206.8C71.3544 206.8 71.8944 206.28 71.8944 205.58C71.8944 204.88 71.3544 204.36 70.6344 204.36C69.9344 204.36 69.3944 204.88 69.3944 205.58C69.3944 206.28 69.9344 206.8 70.6344 206.8ZM69.6344 218H71.6144V208.96H69.6344V218ZM73.8391 213.62C73.8391 216.04 75.3791 218.24 78.3991 218.24C80.6591 218.24 82.0391 216.94 82.0391 216.94L81.4791 215.5C81.4791 215.5 80.2191 216.62 78.6991 216.62C77.1191 216.62 76.1191 215.56 75.8991 213.92L80.8391 213.26L81.9791 212.94C81.9791 210.2 80.4191 208.72 78.2591 208.72C75.6191 208.72 73.8391 210.86 73.8391 213.62ZM78.1191 210.26C79.6991 210.26 79.8191 212.1 79.8191 212.1L75.8991 212.6C76.0791 211.28 76.8391 210.26 78.1191 210.26ZM84.7238 215.54C84.7238 217.4 85.7438 218.24 87.3038 218.24C88.9038 218.24 90.0838 217.28 90.0838 217.28L89.5838 215.78C89.3438 215.92 88.5038 216.58 87.7438 216.58C87.0838 216.58 86.7038 216.14 86.7038 215.04V210.46H89.5638V208.96H86.7038V206.4L84.7638 206.82V208.88L83.3838 209.38V210.46H84.7238V215.54ZM90.7223 221.16L91.3423 222.74C93.4623 222.5 94.7823 220.6 95.5623 218.68L99.4823 208.96H97.4423L95.1023 215.16L92.7223 208.96H90.6223L94.1223 217.54L93.6423 218.62C93.1023 219.88 92.0423 220.94 90.7223 221.16ZM106.904 206.8C107.624 206.8 108.164 206.28 108.164 205.58C108.164 204.88 107.624 204.36 106.904 204.36C106.204 204.36 105.664 204.88 105.664 205.58C105.664 206.28 106.204 206.8 106.904 206.8ZM105.904 218H107.884V208.96H105.904V218ZM110.669 218H112.649V212.14C113.269 211.54 114.549 210.44 115.549 210.44C116.229 210.44 116.629 210.92 116.629 212.2V218H118.609V211.48C118.609 209.54 117.629 208.72 116.209 208.72C114.549 208.72 113.249 209.82 112.609 210.52V208.8L110.669 209.12V218ZM130.883 218H132.863V212.12C133.443 211.54 134.683 210.44 135.663 210.44C136.323 210.44 136.683 210.92 136.683 212.2V218H138.663V212.08C139.343 211.42 140.463 210.44 141.383 210.44C142.043 210.44 142.423 210.92 142.423 212.2V218H144.383V211.48C144.383 209.54 143.443 208.72 142.043 208.72C140.463 208.72 139.223 209.78 138.563 210.5C138.283 209.26 137.463 208.72 136.323 208.72C134.723 208.72 133.443 209.82 132.823 210.5V208.8L130.883 209.12V218ZM146.995 215.52C146.995 217.46 147.995 218.24 149.455 218.24C151.115 218.24 152.375 217.18 152.955 216.56C153.055 217.22 153.255 218.16 153.255 218.16L155.175 217.98C155.175 217.98 154.775 216.32 154.775 215.22V208.96H152.795V215.04C152.235 215.56 151.115 216.52 150.095 216.52C149.355 216.52 148.975 216.02 148.975 214.76V208.96H146.995V215.52ZM157.002 217.44C157.002 217.44 158.122 218.24 160.002 218.24C162.222 218.24 163.522 217.14 163.522 215.5C163.522 212.62 159.182 212.76 159.182 211.18C159.182 210.66 159.622 210.28 160.622 210.28C161.782 210.28 162.822 210.84 162.822 210.84L163.282 209.22C163.282 209.22 162.282 208.72 160.702 208.72C158.202 208.72 157.202 209.94 157.202 211.34C157.202 214.18 161.542 214.06 161.542 215.68C161.542 216.26 161.042 216.68 159.982 216.68C158.522 216.68 157.422 215.76 157.422 215.76L157.002 217.44ZM166.689 206.8C167.409 206.8 167.949 206.28 167.949 205.58C167.949 204.88 167.409 204.36 166.689 204.36C165.989 204.36 165.449 204.88 165.449 205.58C165.449 206.28 165.989 206.8 166.689 206.8ZM165.689 218H167.669V208.96H165.689V218ZM169.874 213.6C169.874 216.22 171.694 218.24 174.514 218.24C176.674 218.24 177.714 217.08 177.714 217.08L177.074 215.68C177.074 215.68 176.094 216.62 174.654 216.62C172.954 216.62 171.934 215.28 171.934 213.5C171.934 211.66 173.034 210.32 174.674 210.32C175.994 210.32 176.934 211.16 176.934 211.16L177.714 209.68C177.714 209.68 176.614 208.72 174.634 208.72C171.654 208.72 169.874 211.1 169.874 213.6ZM183.877 217.44C183.877 217.44 184.997 218.24 186.877 218.24C189.097 218.24 190.397 217.14 190.397 215.5C190.397 212.62 186.057 212.76 186.057 211.18C186.057 210.66 186.497 210.28 187.497 210.28C188.657 210.28 189.697 210.84 189.697 210.84L190.157 209.22C190.157 209.22 189.157 208.72 187.577 208.72C185.077 208.72 184.077 209.94 184.077 211.34C184.077 214.18 188.417 214.06 188.417 215.68C188.417 216.26 187.917 216.68 186.857 216.68C185.397 216.68 184.297 215.76 184.297 215.76L183.877 217.44ZM191.964 213.62C191.964 216.04 193.504 218.24 196.524 218.24C198.784 218.24 200.164 216.94 200.164 216.94L199.604 215.5C199.604 215.5 198.344 216.62 196.824 216.62C195.244 216.62 194.244 215.56 194.024 213.92L198.964 213.26L200.104 212.94C200.104 210.2 198.544 208.72 196.384 208.72C193.744 208.72 191.964 210.86 191.964 213.62ZM196.244 210.26C197.824 210.26 197.944 212.1 197.944 212.1L194.024 212.6C194.204 211.28 194.964 210.26 196.244 210.26ZM202.369 218H204.349V203.7L202.369 204.02V218ZM206.573 213.62C206.573 216.04 208.113 218.24 211.133 218.24C213.393 218.24 214.773 216.94 214.773 216.94L214.213 215.5C214.213 215.5 212.953 216.62 211.433 216.62C209.853 216.62 208.853 215.56 208.633 213.92L213.573 213.26L214.713 212.94C214.713 210.2 213.153 208.72 210.993 208.72C208.353 208.72 206.573 210.86 206.573 213.62ZM210.853 210.26C212.433 210.26 212.553 212.1 212.553 212.1L208.633 212.6C208.813 211.28 209.573 210.26 210.853 210.26ZM216.358 213.6C216.358 216.22 218.178 218.24 220.998 218.24C223.158 218.24 224.198 217.08 224.198 217.08L223.558 215.68C223.558 215.68 222.578 216.62 221.138 216.62C219.438 216.62 218.418 215.28 218.418 213.5C218.418 211.66 219.518 210.32 221.158 210.32C222.478 210.32 223.418 211.16 223.418 211.16L224.198 209.68C224.198 209.68 223.098 208.72 221.118 208.72C218.138 208.72 216.358 211.1 216.358 213.6ZM226.677 215.54C226.677 217.4 227.697 218.24 229.257 218.24C230.857 218.24 232.037 217.28 232.037 217.28L231.537 215.78C231.297 215.92 230.457 216.58 229.697 216.58C229.037 216.58 228.657 216.14 228.657 215.04V210.46H231.517V208.96H228.657V206.4L226.717 206.82V208.88L225.337 209.38V210.46H226.677V215.54ZM234.755 206.8C235.475 206.8 236.015 206.28 236.015 205.58C236.015 204.88 235.475 204.36 234.755 204.36C234.055 204.36 233.515 204.88 233.515 205.58C233.515 206.28 234.055 206.8 234.755 206.8ZM233.755 218H235.735V208.96H233.755V218ZM237.94 213.52C237.94 215.92 239.56 218.24 242.56 218.24C245.82 218.24 247.26 215.5 247.26 213.3C247.26 210.98 245.64 208.72 242.64 208.72C239.4 208.72 237.94 211.26 237.94 213.52ZM240 213.34C240 211.54 241.06 210.3 242.6 210.3C244.44 210.3 245.2 211.96 245.2 213.56C245.2 215.38 244.14 216.66 242.62 216.66C240.82 216.66 240 215.02 240 213.34ZM249.399 218H251.379V212.14C251.999 211.54 253.279 210.44 254.279 210.44C254.959 210.44 255.359 210.92 255.359 212.2V218H257.339V211.48C257.339 209.54 256.359 208.72 254.939 208.72C253.279 208.72 251.979 209.82 251.339 210.52V208.8L249.399 209.12V218Z" fill="#333333"/>
</svg>
