<svg width="472" height="248" viewBox="0 0 472 248" fill="none" xmlns="http://www.w3.org/2000/svg">
<path d="M3 3H469V245H3V3Z" fill="white" stroke="#828282" stroke-width="6"/>
<path d="M36.1 33.794C35.848 33.29 35.506 32.876 35.182 32.588C34.804 32.264 34.066 31.778 32.77 31.778C30.52 31.778 29.26 33.326 29.26 34.946C29.26 36.746 30.718 37.574 31.708 37.988L32.86 38.474C33.652 38.798 34.588 39.302 34.588 40.526C34.588 41.732 33.724 42.542 32.608 42.542C31.888 42.542 31.384 42.254 31.042 41.822C30.754 41.444 30.538 40.886 30.538 40.292L28.72 40.688C28.792 41.516 29.08 42.308 29.728 43.028C30.34 43.712 31.168 44.234 32.554 44.234C34.804 44.234 36.424 42.668 36.424 40.382C36.424 39.014 35.812 37.754 33.598 36.854L32.392 36.368C31.222 35.9 31.096 35.27 31.096 34.91C31.096 34.136 31.672 33.47 32.788 33.47C33.31 33.47 33.706 33.596 34.084 33.902C34.354 34.136 34.516 34.388 34.624 34.658L36.1 33.794ZM45.1737 33.722V31.994H37.8297V33.722H40.5837V44H42.4197V33.722H45.1737ZM47.5089 31.994V44H49.3449V39.086H49.6689L53.1069 44H55.3209L51.5769 38.87C53.1789 38.51 54.2409 37.25 54.2409 35.522C54.2409 35 54.1329 33.578 52.8189 32.696C52.0449 32.174 51.1089 31.994 49.6509 31.994H47.5089ZM49.3449 33.686H49.9749C50.8749 33.686 52.4769 33.848 52.4769 35.54C52.4769 37.448 50.4249 37.502 49.9209 37.502H49.3449V33.686ZM57.8441 31.994V39.716C57.8441 40.67 58.0421 41.822 58.9601 42.83C59.5901 43.514 60.6521 44.234 62.2901 44.234C63.9281 44.234 64.9901 43.514 65.6201 42.83C66.5381 41.822 66.7361 40.67 66.7361 39.716V31.994H64.9001V39.23C64.9001 39.878 64.8821 40.67 64.5221 41.3C64.1621 41.912 63.3521 42.542 62.2901 42.542C61.2281 42.542 60.4181 41.912 60.0581 41.3C59.6981 40.67 59.6801 39.878 59.6801 39.23V31.994H57.8441ZM76.5515 39.446H79.5395C79.4675 40.13 79.1975 40.832 78.5315 41.48C77.7575 42.236 76.8935 42.542 75.8495 42.542C74.6975 42.542 73.6715 42.218 72.8435 41.336C72.0515 40.49 71.6015 39.284 71.6015 38.078C71.6015 36.782 72.0875 35.504 72.8795 34.712C73.4735 34.118 74.4815 33.47 76.0475 33.47C76.7855 33.47 77.5055 33.596 78.1715 33.992C78.7475 34.316 79.2875 34.856 79.6475 35.36L81.1055 34.334C80.7635 33.794 80.1515 33.092 79.1615 32.534C78.2255 32.012 77.1095 31.778 76.0295 31.778C74.1755 31.778 72.5375 32.534 71.5115 33.578C70.5215 34.568 69.7655 36.188 69.7655 38.06C69.7655 39.788 70.3775 41.39 71.5475 42.596C72.6455 43.73 73.8875 44.234 75.6335 44.234C77.0015 44.234 78.4775 43.91 79.7195 42.704C80.8895 41.57 81.5015 39.896 81.5015 37.844V37.754H76.5515V39.446ZM90.7363 39.446H93.7243C93.6523 40.13 93.3823 40.832 92.7163 41.48C91.9423 42.236 91.0783 42.542 90.0343 42.542C88.8823 42.542 87.8563 42.218 87.0283 41.336C86.2363 40.49 85.7863 39.284 85.7863 38.078C85.7863 36.782 86.2723 35.504 87.0643 34.712C87.6583 34.118 88.6663 33.47 90.2323 33.47C90.9703 33.47 91.6903 33.596 92.3563 33.992C92.9323 34.316 93.4723 34.856 93.8323 35.36L95.2903 34.334C94.9483 33.794 94.3363 33.092 93.3463 32.534C92.4103 32.012 91.2943 31.778 90.2143 31.778C88.3603 31.778 86.7223 32.534 85.6963 33.578C84.7063 34.568 83.9503 36.188 83.9503 38.06C83.9503 39.788 84.5623 41.39 85.7323 42.596C86.8303 43.73 88.0723 44.234 89.8183 44.234C91.1863 44.234 92.6623 43.91 93.9043 42.704C95.0743 41.57 95.6863 39.896 95.6863 37.844V37.754H90.7363V39.446ZM98.7112 31.994V44H104.075V42.272H100.547V31.994H98.7112ZM113.139 31.994H106.515V44H113.139V42.272H108.351V38.492H112.995V36.764H108.351V33.722H113.139V31.994ZM122.895 33.794C122.643 33.29 122.301 32.876 121.977 32.588C121.599 32.264 120.861 31.778 119.565 31.778C117.315 31.778 116.055 33.326 116.055 34.946C116.055 36.746 117.513 37.574 118.503 37.988L119.655 38.474C120.447 38.798 121.383 39.302 121.383 40.526C121.383 41.732 120.519 42.542 119.403 42.542C118.683 42.542 118.179 42.254 117.837 41.822C117.549 41.444 117.333 40.886 117.333 40.292L115.515 40.688C115.587 41.516 115.875 42.308 116.523 43.028C117.135 43.712 117.963 44.234 119.349 44.234C121.599 44.234 123.219 42.668 123.219 40.382C123.219 39.014 122.607 37.754 120.393 36.854L119.187 36.368C118.017 35.9 117.891 35.27 117.891 34.91C117.891 34.136 118.467 33.47 119.583 33.47C120.105 33.47 120.501 33.596 120.879 33.902C121.149 34.136 121.311 34.388 121.419 34.658L122.895 33.794ZM29.08 95.72H33.96V94.2H29.08V95.72ZM41.6559 100H43.7159V94.2H48.4159V92.42H43.7159V88.38H49.6559V86.66H41.6559V100ZM50.8639 100H52.8439V94.4C53.2239 93.8 54.0439 92.72 55.0439 92.72C55.4439 92.72 55.8439 92.88 55.8439 92.88L56.2439 90.88C56.2439 90.88 55.9639 90.72 55.4639 90.72C54.0839 90.72 53.1639 92 52.8039 92.62V90.8L50.8639 91.12V100ZM57.757 97.52C57.757 99.46 58.757 100.24 60.217 100.24C61.877 100.24 63.137 99.18 63.717 98.56C63.817 99.22 64.017 100.16 64.017 100.16L65.937 99.98C65.937 99.98 65.537 98.32 65.537 97.22V90.96H63.557V97.04C62.997 97.56 61.877 98.52 60.857 98.52C60.117 98.52 59.737 98.02 59.737 96.76V90.96H57.757V97.52ZM67.7639 99.44C67.7639 99.44 68.8839 100.24 70.7639 100.24C72.9839 100.24 74.2839 99.14 74.2839 97.5C74.2839 94.62 69.9439 94.76 69.9439 93.18C69.9439 92.66 70.3839 92.28 71.3839 92.28C72.5439 92.28 73.5839 92.84 73.5839 92.84L74.0439 91.22C74.0439 91.22 73.0439 90.72 71.4639 90.72C68.9639 90.72 67.9639 91.94 67.9639 93.34C67.9639 96.18 72.3039 96.06 72.3039 97.68C72.3039 98.26 71.8039 98.68 70.7439 98.68C69.2839 98.68 68.1839 97.76 68.1839 97.76L67.7639 99.44ZM76.9308 97.54C76.9308 99.4 77.9508 100.24 79.5108 100.24C81.1108 100.24 82.2908 99.28 82.2908 99.28L81.7908 97.78C81.5508 97.92 80.7108 98.58 79.9508 98.58C79.2908 98.58 78.9108 98.14 78.9108 97.04V92.46H81.7708V90.96H78.9108V88.4L76.9708 88.82V90.88L75.5908 91.38V92.46H76.9308V97.54ZM83.9694 100H85.9494V94.4C86.3294 93.8 87.1494 92.72 88.1494 92.72C88.5494 92.72 88.9494 92.88 88.9494 92.88L89.3494 90.88C89.3494 90.88 89.0694 90.72 88.5694 90.72C87.1894 90.72 86.2694 92 85.9094 92.62V90.8L83.9694 91.12V100ZM90.2025 97.92C90.2025 99.26 91.2225 100.24 92.8025 100.24C94.5625 100.24 95.4825 99.12 95.7225 98.74C95.9825 99.46 96.5625 100.04 97.9425 100.14L98.5425 98.58C98.5425 98.58 97.5425 98.56 97.5425 97.44V93.62C97.5425 91.6 96.8625 90.72 94.7225 90.72C92.3425 90.72 90.8025 91.86 90.8025 91.86L91.3225 93.34C91.3225 93.34 92.7025 92.3 94.1825 92.3C95.6425 92.3 95.5625 93.3 95.5625 94.44C92.1825 94.88 90.2025 96.02 90.2025 97.92ZM93.3025 98.68C92.7225 98.68 92.2425 98.42 92.2425 97.78C92.2425 96.72 93.2625 96.06 95.5625 95.72V97.28C94.9625 97.98 94.2225 98.68 93.3025 98.68ZM100.935 97.54C100.935 99.4 101.955 100.24 103.515 100.24C105.115 100.24 106.295 99.28 106.295 99.28L105.795 97.78C105.555 97.92 104.715 98.58 103.955 98.58C103.295 98.58 102.915 98.14 102.915 97.04V92.46H105.775V90.96H102.915V88.4L100.975 88.82V90.88L99.5947 91.38V92.46H100.935V97.54ZM107.413 95.62C107.413 98.04 108.953 100.24 111.973 100.24C114.233 100.24 115.613 98.94 115.613 98.94L115.053 97.5C115.053 97.5 113.793 98.62 112.273 98.62C110.693 98.62 109.693 97.56 109.473 95.92L114.413 95.26L115.553 94.94C115.553 92.2 113.993 90.72 111.833 90.72C109.193 90.72 107.413 92.86 107.413 95.62ZM111.693 92.26C113.273 92.26 113.393 94.1 113.393 94.1L109.473 94.6C109.653 93.28 110.413 92.26 111.693 92.26ZM117.218 95.76C117.218 98.24 118.738 100.24 121.098 100.24C122.538 100.24 123.458 99.54 123.938 98.76C124.038 99.4 124.218 100.14 124.218 100.14L126.118 100C126.118 100 125.718 98.32 125.718 97.22V85.7L123.738 86.02V91.02C123.478 90.92 122.878 90.72 122.058 90.72C118.858 90.72 117.218 93.18 117.218 95.76ZM121.438 98.66C120.158 98.66 119.298 97.52 119.298 95.64C119.298 93.48 120.438 92.28 122.158 92.28C122.978 92.28 123.698 92.58 123.738 93.48V97.2C123.458 97.62 122.658 98.66 121.438 98.66ZM135.225 100.08H137.145L139.465 93.64L141.545 100.08H143.485L146.725 90.96H144.705L142.525 97.76L140.405 90.96H138.685L136.345 97.8L134.365 90.96H132.325L135.225 100.08ZM149.423 88.8C150.143 88.8 150.683 88.28 150.683 87.58C150.683 86.88 150.143 86.36 149.423 86.36C148.723 86.36 148.183 86.88 148.183 87.58C148.183 88.28 148.723 88.8 149.423 88.8ZM148.423 100H150.403V90.96H148.423V100ZM153.708 97.54C153.708 99.4 154.728 100.24 156.288 100.24C157.888 100.24 159.068 99.28 159.068 99.28L158.568 97.78C158.328 97.92 157.488 98.58 156.728 98.58C156.068 98.58 155.688 98.14 155.688 97.04V92.46H158.548V90.96H155.688V88.4L153.748 88.82V90.88L152.368 91.38V92.46H153.708V97.54ZM160.787 100H162.767V94.18C163.367 93.58 164.667 92.44 165.667 92.44C166.347 92.44 166.747 92.92 166.747 94.2V100H168.727V93.48C168.727 91.54 167.747 90.72 166.307 90.72C164.647 90.72 163.367 91.84 162.767 92.48V85.7L160.787 86.02V100ZM176.136 97.52C176.136 99.46 177.136 100.24 178.596 100.24C180.256 100.24 181.516 99.18 182.096 98.56C182.196 99.22 182.396 100.16 182.396 100.16L184.316 99.98C184.316 99.98 183.916 98.32 183.916 97.22V90.96H181.936V97.04C181.376 97.56 180.256 98.52 179.236 98.52C178.496 98.52 178.116 98.02 178.116 96.76V90.96H176.136V97.52ZM186.743 100H188.723V94.14C189.343 93.54 190.623 92.44 191.623 92.44C192.303 92.44 192.703 92.92 192.703 94.2V100H194.683V93.48C194.683 91.54 193.703 90.72 192.283 90.72C190.623 90.72 189.323 91.82 188.683 92.52V90.8L186.743 91.12V100ZM197.348 104.66L199.328 104.34V99.76C199.708 100.04 200.388 100.24 201.228 100.24C204.108 100.24 205.788 97.88 205.788 95.2C205.788 92.74 204.348 90.72 201.968 90.72C200.548 90.72 199.688 91.46 199.268 92.24V90.8L197.348 91.12V104.66ZM201.628 92.36C202.848 92.36 203.708 93.46 203.708 95.34C203.708 97.5 202.568 98.68 200.868 98.68C199.928 98.68 199.328 98.34 199.328 97.66V93.82C199.588 93.44 200.428 92.36 201.628 92.36ZM207.954 100H209.934V94.4C210.314 93.8 211.134 92.72 212.134 92.72C212.534 92.72 212.934 92.88 212.934 92.88L213.334 90.88C213.334 90.88 213.054 90.72 212.554 90.72C211.174 90.72 210.254 92 209.894 92.62V90.8L207.954 91.12V100ZM214.191 95.62C214.191 98.04 215.731 100.24 218.751 100.24C221.011 100.24 222.391 98.94 222.391 98.94L221.831 97.5C221.831 97.5 220.571 98.62 219.051 98.62C217.471 98.62 216.471 97.56 216.251 95.92L221.191 95.26L222.331 94.94C222.331 92.2 220.771 90.72 218.611 90.72C215.971 90.72 214.191 92.86 214.191 95.62ZM218.471 92.26C220.051 92.26 220.171 94.1 220.171 94.1L216.251 94.6C216.431 93.28 217.191 92.26 218.471 92.26ZM223.995 95.76C223.995 98.24 225.515 100.24 227.875 100.24C229.315 100.24 230.235 99.54 230.715 98.76C230.815 99.4 230.995 100.14 230.995 100.14L232.895 100C232.895 100 232.495 98.32 232.495 97.22V85.7L230.515 86.02V91.02C230.255 90.92 229.655 90.72 228.835 90.72C225.635 90.72 223.995 93.18 223.995 95.76ZM228.215 98.66C226.935 98.66 226.075 97.52 226.075 95.64C226.075 93.48 227.215 92.28 228.935 92.28C229.755 92.28 230.475 92.58 230.515 93.48V97.2C230.235 97.62 229.435 98.66 228.215 98.66ZM236.338 88.8C237.058 88.8 237.598 88.28 237.598 87.58C237.598 86.88 237.058 86.36 236.338 86.36C235.638 86.36 235.098 86.88 235.098 87.58C235.098 88.28 235.638 88.8 236.338 88.8ZM235.338 100H237.318V90.96H235.338V100ZM239.522 95.6C239.522 98.22 241.342 100.24 244.162 100.24C246.322 100.24 247.362 99.08 247.362 99.08L246.722 97.68C246.722 97.68 245.742 98.62 244.302 98.62C242.602 98.62 241.582 97.28 241.582 95.5C241.582 93.66 242.682 92.32 244.322 92.32C245.642 92.32 246.582 93.16 246.582 93.16L247.362 91.68C247.362 91.68 246.262 90.72 244.282 90.72C241.302 90.72 239.522 93.1 239.522 95.6ZM249.841 97.54C249.841 99.4 250.861 100.24 252.421 100.24C254.021 100.24 255.201 99.28 255.201 99.28L254.701 97.78C254.461 97.92 253.621 98.58 252.861 98.58C252.201 98.58 251.821 98.14 251.821 97.04V92.46H254.681V90.96H251.821V88.4L249.881 88.82V90.88L248.501 91.38V92.46H249.841V97.54ZM256.16 97.92C256.16 99.26 257.18 100.24 258.76 100.24C260.52 100.24 261.44 99.12 261.68 98.74C261.94 99.46 262.52 100.04 263.9 100.14L264.5 98.58C264.5 98.58 263.5 98.56 263.5 97.44V93.62C263.5 91.6 262.82 90.72 260.68 90.72C258.3 90.72 256.76 91.86 256.76 91.86L257.28 93.34C257.28 93.34 258.66 92.3 260.14 92.3C261.6 92.3 261.52 93.3 261.52 94.44C258.14 94.88 256.16 96.02 256.16 97.92ZM259.26 98.68C258.68 98.68 258.2 98.42 258.2 97.78C258.2 96.72 259.22 96.06 261.52 95.72V97.28C260.92 97.98 260.18 98.68 259.26 98.68ZM266.45 99.8C267.13 99.96 268.67 100.24 269.75 100.24C273.17 100.24 274.81 97.8 274.81 95.16C274.81 92.68 273.37 90.72 270.87 90.72C269.63 90.72 268.89 91.22 268.43 91.74V85.7L266.45 86.02V99.8ZM270.55 92.32C271.87 92.32 272.77 93.42 272.77 95.3C272.77 97.54 271.51 98.74 269.79 98.74C269.05 98.74 268.43 98.54 268.43 98.54V93.26C268.85 92.88 269.61 92.32 270.55 92.32ZM277.037 100H279.017V85.7L277.037 86.02V100ZM281.241 95.62C281.241 98.04 282.781 100.24 285.801 100.24C288.061 100.24 289.441 98.94 289.441 98.94L288.881 97.5C288.881 97.5 287.621 98.62 286.101 98.62C284.521 98.62 283.521 97.56 283.301 95.92L288.241 95.26L289.381 94.94C289.381 92.2 287.821 90.72 285.661 90.72C283.021 90.72 281.241 92.86 281.241 95.62ZM285.521 92.26C287.101 92.26 287.221 94.1 287.221 94.1L283.301 94.6C283.481 93.28 284.241 92.26 285.521 92.26ZM295.811 99.44C295.811 99.44 296.931 100.24 298.811 100.24C301.031 100.24 302.331 99.14 302.331 97.5C302.331 94.62 297.991 94.76 297.991 93.18C297.991 92.66 298.431 92.28 299.431 92.28C300.591 92.28 301.631 92.84 301.631 92.84L302.091 91.22C302.091 91.22 301.091 90.72 299.511 90.72C297.011 90.72 296.011 91.94 296.011 93.34C296.011 96.18 300.351 96.06 300.351 97.68C300.351 98.26 299.851 98.68 298.791 98.68C297.331 98.68 296.231 97.76 296.231 97.76L295.811 99.44ZM303.418 103.16L304.038 104.74C306.158 104.5 307.478 102.6 308.258 100.68L312.178 90.96H310.138L307.798 97.16L305.418 90.96H303.318L306.818 99.54L306.338 100.62C305.798 101.88 304.738 102.94 303.418 103.16ZM313.155 99.44C313.155 99.44 314.275 100.24 316.155 100.24C318.375 100.24 319.675 99.14 319.675 97.5C319.675 94.62 315.335 94.76 315.335 93.18C315.335 92.66 315.775 92.28 316.775 92.28C317.935 92.28 318.975 92.84 318.975 92.84L319.435 91.22C319.435 91.22 318.435 90.72 316.855 90.72C314.355 90.72 313.355 91.94 313.355 93.34C313.355 96.18 317.695 96.06 317.695 97.68C317.695 98.26 317.195 98.68 316.135 98.68C314.675 98.68 313.575 97.76 313.575 97.76L313.155 99.44ZM322.321 97.54C322.321 99.4 323.341 100.24 324.901 100.24C326.501 100.24 327.681 99.28 327.681 99.28L327.181 97.78C326.941 97.92 326.101 98.58 325.341 98.58C324.681 98.58 324.301 98.14 324.301 97.04V92.46H327.161V90.96H324.301V88.4L322.361 88.82V90.88L320.981 91.38V92.46H322.321V97.54ZM328.8 95.62C328.8 98.04 330.34 100.24 333.36 100.24C335.62 100.24 337 98.94 337 98.94L336.44 97.5C336.44 97.5 335.18 98.62 333.66 98.62C332.08 98.62 331.08 97.56 330.86 95.92L335.8 95.26L336.94 94.94C336.94 92.2 335.38 90.72 333.22 90.72C330.58 90.72 328.8 92.86 328.8 95.62ZM333.08 92.26C334.66 92.26 334.78 94.1 334.78 94.1L330.86 94.6C331.04 93.28 331.8 92.26 333.08 92.26ZM339.165 100H341.145V94.12C341.725 93.54 342.965 92.44 343.945 92.44C344.605 92.44 344.965 92.92 344.965 94.2V100H346.945V94.08C347.625 93.42 348.745 92.44 349.665 92.44C350.325 92.44 350.705 92.92 350.705 94.2V100H352.665V93.48C352.665 91.54 351.725 90.72 350.325 90.72C348.745 90.72 347.505 91.78 346.845 92.5C346.565 91.26 345.745 90.72 344.605 90.72C343.005 90.72 341.725 91.82 341.105 92.5V90.8L339.165 91.12V100ZM360.141 100H362.121V94.4C362.501 93.8 363.321 92.72 364.321 92.72C364.721 92.72 365.121 92.88 365.121 92.88L365.521 90.88C365.521 90.88 365.241 90.72 364.741 90.72C363.361 90.72 362.441 92 362.081 92.62V90.8L360.141 91.12V100ZM366.378 95.62C366.378 98.04 367.918 100.24 370.938 100.24C373.198 100.24 374.578 98.94 374.578 98.94L374.018 97.5C374.018 97.5 372.758 98.62 371.238 98.62C369.658 98.62 368.658 97.56 368.438 95.92L373.378 95.26L374.518 94.94C374.518 92.2 372.958 90.72 370.798 90.72C368.158 90.72 366.378 92.86 366.378 95.62ZM370.658 92.26C372.238 92.26 372.358 94.1 372.358 94.1L368.438 94.6C368.618 93.28 369.378 92.26 370.658 92.26ZM376.143 99.44C376.143 99.44 377.263 100.24 379.143 100.24C381.363 100.24 382.663 99.14 382.663 97.5C382.663 94.62 378.323 94.76 378.323 93.18C378.323 92.66 378.763 92.28 379.763 92.28C380.923 92.28 381.963 92.84 381.963 92.84L382.423 91.22C382.423 91.22 381.423 90.72 379.843 90.72C377.343 90.72 376.343 91.94 376.343 93.34C376.343 96.18 380.683 96.06 380.683 97.68C380.683 98.26 380.183 98.68 379.123 98.68C377.663 98.68 376.563 97.76 376.563 97.76L376.143 99.44ZM384.79 104.66L386.77 104.34V99.76C387.15 100.04 387.83 100.24 388.67 100.24C391.55 100.24 393.23 97.88 393.23 95.2C393.23 92.74 391.79 90.72 389.41 90.72C387.99 90.72 387.13 91.46 386.71 92.24V90.8L384.79 91.12V104.66ZM389.07 92.36C390.29 92.36 391.15 93.46 391.15 95.34C391.15 97.5 390.01 98.68 388.31 98.68C387.37 98.68 386.77 98.34 386.77 97.66V93.82C387.03 93.44 387.87 92.36 389.07 92.36ZM394.815 95.52C394.815 97.92 396.435 100.24 399.435 100.24C402.695 100.24 404.135 97.5 404.135 95.3C404.135 92.98 402.515 90.72 399.515 90.72C396.275 90.72 394.815 93.26 394.815 95.52ZM396.875 95.34C396.875 93.54 397.935 92.3 399.475 92.3C401.315 92.3 402.075 93.96 402.075 95.56C402.075 97.38 401.015 98.66 399.495 98.66C397.695 98.66 396.875 97.02 396.875 95.34ZM406.274 100H408.254V94.14C408.874 93.54 410.154 92.44 411.154 92.44C411.834 92.44 412.234 92.92 412.234 94.2V100H414.214V93.48C414.214 91.54 413.234 90.72 411.814 90.72C410.154 90.72 408.854 91.82 408.214 92.52V90.8L406.274 91.12V100ZM416.28 99.44C416.28 99.44 417.4 100.24 419.28 100.24C421.5 100.24 422.8 99.14 422.8 97.5C422.8 94.62 418.46 94.76 418.46 93.18C418.46 92.66 418.9 92.28 419.9 92.28C421.06 92.28 422.1 92.84 422.1 92.84L422.56 91.22C422.56 91.22 421.56 90.72 419.98 90.72C417.48 90.72 416.48 91.94 416.48 93.34C416.48 96.18 420.82 96.06 420.82 97.68C420.82 98.26 420.32 98.68 419.26 98.68C417.8 98.68 416.7 97.76 416.7 97.76L416.28 99.44ZM424.366 95.62C424.366 98.04 425.906 100.24 428.926 100.24C431.186 100.24 432.566 98.94 432.566 98.94L432.006 97.5C432.006 97.5 430.746 98.62 429.226 98.62C427.646 98.62 426.646 97.56 426.426 95.92L431.366 95.26L432.506 94.94C432.506 92.2 430.946 90.72 428.786 90.72C426.146 90.72 424.366 92.86 424.366 95.62ZM428.646 92.26C430.226 92.26 430.346 94.1 430.346 94.1L426.426 94.6C426.606 93.28 427.366 92.26 428.646 92.26ZM29.08 124.72H33.96V123.2H29.08V124.72ZM41.6559 129H45.2559C50.0559 129 53.3959 126.6 53.3959 122.12C53.3959 117.38 49.6359 115.66 46.0159 115.66H41.6559V129ZM43.7159 127.28V117.38H45.7359C49.3559 117.38 51.2159 119.32 51.2159 122.28C51.2159 125.06 49.5559 127.28 45.0559 127.28H43.7159ZM55.0305 124.62C55.0305 127.04 56.5705 129.24 59.5905 129.24C61.8505 129.24 63.2305 127.94 63.2305 127.94L62.6705 126.5C62.6705 126.5 61.4105 127.62 59.8905 127.62C58.3105 127.62 57.3105 126.56 57.0905 124.92L62.0305 124.26L63.1705 123.94C63.1705 121.2 61.6105 119.72 59.4505 119.72C56.8105 119.72 55.0305 121.86 55.0305 124.62ZM59.3105 121.26C60.8905 121.26 61.0105 123.1 61.0105 123.1L57.0905 123.6C57.2705 122.28 58.0305 121.26 59.3105 121.26ZM65.4352 129H67.4152V114.7L65.4352 115.02V129ZM69.6398 124.62C69.6398 127.04 71.1798 129.24 74.1998 129.24C76.4598 129.24 77.8398 127.94 77.8398 127.94L77.2798 126.5C77.2798 126.5 76.0198 127.62 74.4998 127.62C72.9198 127.62 71.9198 126.56 71.6998 124.92L76.6398 124.26L77.7798 123.94C77.7798 121.2 76.2198 119.72 74.0598 119.72C71.4198 119.72 69.6398 121.86 69.6398 124.62ZM73.9198 121.26C75.4998 121.26 75.6198 123.1 75.6198 123.1L71.6998 123.6C71.8798 122.28 72.6398 121.26 73.9198 121.26ZM80.5245 126.54C80.5245 128.4 81.5445 129.24 83.1045 129.24C84.7045 129.24 85.8845 128.28 85.8845 128.28L85.3845 126.78C85.1445 126.92 84.3045 127.58 83.5445 127.58C82.8845 127.58 82.5045 127.14 82.5045 126.04V121.46H85.3645V119.96H82.5045V117.4L80.5645 117.82V119.88L79.1845 120.38V121.46H80.5245V126.54ZM88.6031 117.8C89.3231 117.8 89.8631 117.28 89.8631 116.58C89.8631 115.88 89.3231 115.36 88.6031 115.36C87.9031 115.36 87.3631 115.88 87.3631 116.58C87.3631 117.28 87.9031 117.8 88.6031 117.8ZM87.6031 129H89.5831V119.96H87.6031V129ZM92.3678 129H94.3478V123.14C94.9678 122.54 96.2478 121.44 97.2478 121.44C97.9278 121.44 98.3278 121.92 98.3278 123.2V129H100.308V122.48C100.308 120.54 99.3278 119.72 97.9078 119.72C96.2478 119.72 94.9478 120.82 94.3078 121.52V119.8L92.3678 120.12V129ZM102.953 127.4C102.953 128.02 103.533 128.38 104.433 128.68C103.473 129.18 102.133 130.04 102.133 131.36C102.133 132.94 104.093 133.74 106.093 133.74C108.813 133.74 111.033 132.2 111.033 130.38C111.033 128.72 109.213 128.22 107.613 127.82C105.733 127.36 104.853 127.18 104.853 126.82C104.853 126.6 105.173 126.36 105.593 126.08C105.793 126.12 106.013 126.12 106.253 126.12C108.193 126.12 110.253 125.06 110.253 123.08C110.253 122.28 109.873 121.74 109.593 121.42C109.833 121.46 110.113 121.48 110.333 121.48H111.413L111.273 119.9C111.273 119.9 110.673 120.1 110.073 120.1H109.033C108.033 120.1 107.513 119.72 106.413 119.72C104.393 119.72 102.573 120.86 102.573 122.88C102.573 124.1 103.233 125.16 104.373 125.72C103.633 126.14 102.953 126.74 102.953 127.4ZM106.473 129.2C108.153 129.64 109.093 129.9 109.093 130.68C109.093 131.58 107.813 132.3 106.213 132.3C105.073 132.3 103.913 131.94 103.913 131.04C103.913 130.14 105.013 129.54 105.873 129.06C106.073 129.1 106.273 129.14 106.473 129.2ZM106.393 124.72C105.113 124.72 104.513 123.8 104.513 122.94C104.513 122 105.193 121.12 106.393 121.12C107.673 121.12 108.293 122.16 108.293 123.04C108.293 124.06 107.493 124.72 106.393 124.72ZM117.895 129H119.875V123.4C120.255 122.8 121.075 121.72 122.075 121.72C122.475 121.72 122.875 121.88 122.875 121.88L123.275 119.88C123.275 119.88 122.995 119.72 122.495 119.72C121.115 119.72 120.195 121 119.835 121.62V119.8L117.895 120.12V129ZM124.128 126.92C124.128 128.26 125.148 129.24 126.728 129.24C128.488 129.24 129.408 128.12 129.648 127.74C129.908 128.46 130.488 129.04 131.868 129.14L132.468 127.58C132.468 127.58 131.468 127.56 131.468 126.44V122.62C131.468 120.6 130.788 119.72 128.648 119.72C126.268 119.72 124.728 120.86 124.728 120.86L125.248 122.34C125.248 122.34 126.628 121.3 128.108 121.3C129.568 121.3 129.488 122.3 129.488 123.44C126.108 123.88 124.128 125.02 124.128 126.92ZM127.228 127.68C126.648 127.68 126.168 127.42 126.168 126.78C126.168 125.72 127.188 125.06 129.488 124.72V126.28C128.888 126.98 128.148 127.68 127.228 127.68ZM133.859 124.76C133.859 127.24 135.379 129.24 137.739 129.24C139.179 129.24 140.099 128.54 140.579 127.76C140.679 128.4 140.859 129.14 140.859 129.14L142.759 129C142.759 129 142.359 127.32 142.359 126.22V114.7L140.379 115.02V120.02C140.119 119.92 139.519 119.72 138.699 119.72C135.499 119.72 133.859 122.18 133.859 124.76ZM138.079 127.66C136.799 127.66 135.939 126.52 135.939 124.64C135.939 122.48 137.079 121.28 138.799 121.28C139.619 121.28 140.339 121.58 140.379 122.48V126.2C140.099 126.62 139.299 127.66 138.079 127.66ZM146.201 117.8C146.921 117.8 147.461 117.28 147.461 116.58C147.461 115.88 146.921 115.36 146.201 115.36C145.501 115.36 144.961 115.88 144.961 116.58C144.961 117.28 145.501 117.8 146.201 117.8ZM145.201 129H147.181V119.96H145.201V129ZM149.385 124.52C149.385 126.92 151.005 129.24 154.005 129.24C157.265 129.24 158.705 126.5 158.705 124.3C158.705 121.98 157.085 119.72 154.085 119.72C150.845 119.72 149.385 122.26 149.385 124.52ZM151.445 124.34C151.445 122.54 152.505 121.3 154.045 121.3C155.885 121.3 156.645 122.96 156.645 124.56C156.645 126.38 155.585 127.66 154.065 127.66C152.265 127.66 151.445 126.02 151.445 124.34ZM165.049 128.44C165.049 128.44 166.169 129.24 168.049 129.24C170.269 129.24 171.569 128.14 171.569 126.5C171.569 123.62 167.229 123.76 167.229 122.18C167.229 121.66 167.669 121.28 168.669 121.28C169.829 121.28 170.869 121.84 170.869 121.84L171.329 120.22C171.329 120.22 170.329 119.72 168.749 119.72C166.249 119.72 165.249 120.94 165.249 122.34C165.249 125.18 169.589 125.06 169.589 126.68C169.589 127.26 169.089 127.68 168.029 127.68C166.569 127.68 165.469 126.76 165.469 126.76L165.049 128.44ZM174.216 126.54C174.216 128.4 175.236 129.24 176.796 129.24C178.396 129.24 179.576 128.28 179.576 128.28L179.076 126.78C178.836 126.92 177.996 127.58 177.236 127.58C176.576 127.58 176.196 127.14 176.196 126.04V121.46H179.056V119.96H176.196V117.4L174.256 117.82V119.88L172.876 120.38V121.46H174.216V126.54ZM180.535 126.92C180.535 128.26 181.555 129.24 183.135 129.24C184.895 129.24 185.815 128.12 186.055 127.74C186.315 128.46 186.895 129.04 188.275 129.14L188.875 127.58C188.875 127.58 187.875 127.56 187.875 126.44V122.62C187.875 120.6 187.195 119.72 185.055 119.72C182.675 119.72 181.135 120.86 181.135 120.86L181.655 122.34C181.655 122.34 183.035 121.3 184.515 121.3C185.975 121.3 185.895 122.3 185.895 123.44C182.515 123.88 180.535 125.02 180.535 126.92ZM183.635 127.68C183.055 127.68 182.575 127.42 182.575 126.78C182.575 125.72 183.595 125.06 185.895 124.72V126.28C185.295 126.98 184.555 127.68 183.635 127.68ZM191.267 126.54C191.267 128.4 192.287 129.24 193.847 129.24C195.447 129.24 196.627 128.28 196.627 128.28L196.127 126.78C195.887 126.92 195.047 127.58 194.287 127.58C193.627 127.58 193.247 127.14 193.247 126.04V121.46H196.107V119.96H193.247V117.4L191.307 117.82V119.88L189.927 120.38V121.46H191.267V126.54ZM199.345 117.8C200.065 117.8 200.605 117.28 200.605 116.58C200.605 115.88 200.065 115.36 199.345 115.36C198.645 115.36 198.105 115.88 198.105 116.58C198.105 117.28 198.645 117.8 199.345 117.8ZM198.345 129H200.325V119.96H198.345V129ZM202.53 124.52C202.53 126.92 204.15 129.24 207.15 129.24C210.41 129.24 211.85 126.5 211.85 124.3C211.85 121.98 210.23 119.72 207.23 119.72C203.99 119.72 202.53 122.26 202.53 124.52ZM204.59 124.34C204.59 122.54 205.65 121.3 207.19 121.3C209.03 121.3 209.79 122.96 209.79 124.56C209.79 126.38 208.73 127.66 207.21 127.66C205.41 127.66 204.59 126.02 204.59 124.34ZM213.989 129H215.969V123.14C216.589 122.54 217.869 121.44 218.869 121.44C219.549 121.44 219.949 121.92 219.949 123.2V129H221.929V122.48C221.929 120.54 220.949 119.72 219.529 119.72C217.869 119.72 216.569 120.82 215.929 121.52V119.8L213.989 120.12V129ZM223.994 128.44C223.994 128.44 225.114 129.24 226.994 129.24C229.214 129.24 230.514 128.14 230.514 126.5C230.514 123.62 226.174 123.76 226.174 122.18C226.174 121.66 226.614 121.28 227.614 121.28C228.774 121.28 229.814 121.84 229.814 121.84L230.274 120.22C230.274 120.22 229.274 119.72 227.694 119.72C225.194 119.72 224.194 120.94 224.194 122.34C224.194 125.18 228.534 125.06 228.534 126.68C228.534 127.26 228.034 127.68 226.974 127.68C225.514 127.68 224.414 126.76 224.414 126.76L223.994 128.44ZM237.966 126.54C237.966 128.4 238.986 129.24 240.546 129.24C242.146 129.24 243.326 128.28 243.326 128.28L242.826 126.78C242.586 126.92 241.746 127.58 240.986 127.58C240.326 127.58 239.946 127.14 239.946 126.04V121.46H242.806V119.96H239.946V117.4L238.006 117.82V119.88L236.626 120.38V121.46H237.966V126.54ZM245.045 129H247.025V123.18C247.625 122.58 248.925 121.44 249.925 121.44C250.605 121.44 251.005 121.92 251.005 123.2V129H252.985V122.48C252.985 120.54 252.005 119.72 250.565 119.72C248.905 119.72 247.625 120.84 247.025 121.48V114.7L245.045 115.02V129ZM254.929 126.92C254.929 128.26 255.949 129.24 257.529 129.24C259.289 129.24 260.209 128.12 260.449 127.74C260.709 128.46 261.289 129.04 262.669 129.14L263.269 127.58C263.269 127.58 262.269 127.56 262.269 126.44V122.62C262.269 120.6 261.589 119.72 259.449 119.72C257.069 119.72 255.529 120.86 255.529 120.86L256.049 122.34C256.049 122.34 257.429 121.3 258.909 121.3C260.369 121.3 260.289 122.3 260.289 123.44C256.909 123.88 254.929 125.02 254.929 126.92ZM258.029 127.68C257.449 127.68 256.969 127.42 256.969 126.78C256.969 125.72 257.989 125.06 260.289 124.72V126.28C259.689 126.98 258.949 127.68 258.029 127.68ZM265.661 126.54C265.661 128.4 266.681 129.24 268.241 129.24C269.841 129.24 271.021 128.28 271.021 128.28L270.521 126.78C270.281 126.92 269.441 127.58 268.681 127.58C268.021 127.58 267.641 127.14 267.641 126.04V121.46H270.501V119.96H267.641V117.4L265.701 117.82V119.88L264.321 120.38V121.46H265.661V126.54ZM278.025 126.54C278.025 128.4 279.045 129.24 280.605 129.24C282.205 129.24 283.385 128.28 283.385 128.28L282.885 126.78C282.645 126.92 281.805 127.58 281.045 127.58C280.385 127.58 280.005 127.14 280.005 126.04V121.46H282.865V119.96H280.005V117.4L278.065 117.82V119.88L276.685 120.38V121.46H278.025V126.54ZM285.103 129H287.083V123.18C287.683 122.58 288.983 121.44 289.983 121.44C290.663 121.44 291.063 121.92 291.063 123.2V129H293.043V122.48C293.043 120.54 292.063 119.72 290.623 119.72C288.963 119.72 287.683 120.84 287.083 121.48V114.7L285.103 115.02V129ZM295.148 124.62C295.148 127.04 296.688 129.24 299.708 129.24C301.968 129.24 303.348 127.94 303.348 127.94L302.788 126.5C302.788 126.5 301.528 127.62 300.008 127.62C298.428 127.62 297.428 126.56 297.208 124.92L302.148 124.26L303.288 123.94C303.288 121.2 301.728 119.72 299.568 119.72C296.928 119.72 295.148 121.86 295.148 124.62ZM299.428 121.26C301.008 121.26 301.128 123.1 301.128 123.1L297.208 123.6C297.388 122.28 298.148 121.26 299.428 121.26ZM304.472 132.16L305.092 133.74C307.212 133.5 308.532 131.6 309.312 129.68L313.232 119.96H311.192L308.852 126.16L306.472 119.96H304.372L307.872 128.54L307.392 129.62C306.852 130.88 305.792 131.94 304.472 132.16ZM319.654 129H321.634V123.18C322.234 122.58 323.534 121.44 324.534 121.44C325.214 121.44 325.614 121.92 325.614 123.2V129H327.594V122.48C327.594 120.54 326.614 119.72 325.174 119.72C323.514 119.72 322.234 120.84 321.634 121.48V114.7L319.654 115.02V129ZM329.538 126.92C329.538 128.26 330.558 129.24 332.138 129.24C333.898 129.24 334.818 128.12 335.058 127.74C335.318 128.46 335.898 129.04 337.278 129.14L337.878 127.58C337.878 127.58 336.878 127.56 336.878 126.44V122.62C336.878 120.6 336.198 119.72 334.058 119.72C331.678 119.72 330.138 120.86 330.138 120.86L330.658 122.34C330.658 122.34 332.038 121.3 333.518 121.3C334.978 121.3 334.898 122.3 334.898 123.44C331.518 123.88 329.538 125.02 329.538 126.92ZM332.638 127.68C332.058 127.68 331.578 127.42 331.578 126.78C331.578 125.72 332.598 125.06 334.898 124.72V126.28C334.298 126.98 333.558 127.68 332.638 127.68ZM341.892 129.08H343.732L347.452 119.96H345.432L342.892 126.52L340.692 119.96H338.612L341.892 129.08ZM348.37 124.62C348.37 127.04 349.91 129.24 352.93 129.24C355.19 129.24 356.57 127.94 356.57 127.94L356.01 126.5C356.01 126.5 354.75 127.62 353.23 127.62C351.65 127.62 350.65 126.56 350.43 124.92L355.37 124.26L356.51 123.94C356.51 121.2 354.95 119.72 352.79 119.72C350.15 119.72 348.37 121.86 348.37 124.62ZM352.65 121.26C354.23 121.26 354.35 123.1 354.35 123.1L350.43 123.6C350.61 122.28 351.37 121.26 352.65 121.26ZM363.54 133.66L365.52 133.34V128.76C365.9 129.04 366.58 129.24 367.42 129.24C370.3 129.24 371.98 126.88 371.98 124.2C371.98 121.74 370.54 119.72 368.16 119.72C366.74 119.72 365.88 120.46 365.46 121.24V119.8L363.54 120.12V133.66ZM367.82 121.36C369.04 121.36 369.9 122.46 369.9 124.34C369.9 126.5 368.76 127.68 367.06 127.68C366.12 127.68 365.52 127.34 365.52 126.66V122.82C365.78 122.44 366.62 121.36 367.82 121.36ZM373.585 124.62C373.585 127.04 375.125 129.24 378.145 129.24C380.405 129.24 381.785 127.94 381.785 127.94L381.225 126.5C381.225 126.5 379.965 127.62 378.445 127.62C376.865 127.62 375.865 126.56 375.645 124.92L380.585 124.26L381.725 123.94C381.725 121.2 380.165 119.72 378.005 119.72C375.365 119.72 373.585 121.86 373.585 124.62ZM377.865 121.26C379.445 121.26 379.565 123.1 379.565 123.1L375.645 123.6C375.825 122.28 376.585 121.26 377.865 121.26ZM383.95 129H385.93V123.4C386.31 122.8 387.13 121.72 388.13 121.72C388.53 121.72 388.93 121.88 388.93 121.88L389.33 119.88C389.33 119.88 389.05 119.72 388.55 119.72C387.17 119.72 386.25 121 385.89 121.62V119.8L383.95 120.12V129ZM390.043 121.46H391.463V129H393.443V121.46H395.943V119.96H393.443V118.88C393.443 116.76 394.403 116.02 395.463 116.02C396.443 116.02 397.323 116.66 397.323 116.66L398.103 115.14C398.103 115.14 397.063 114.38 395.483 114.38C393.123 114.38 391.463 116.04 391.463 119V119.88L390.043 120.4V121.46ZM397.023 124.62C397.023 127.04 398.563 129.24 401.583 129.24C403.843 129.24 405.223 127.94 405.223 127.94L404.663 126.5C404.663 126.5 403.403 127.62 401.883 127.62C400.303 127.62 399.303 126.56 399.083 124.92L404.023 124.26L405.163 123.94C405.163 121.2 403.603 119.72 401.443 119.72C398.803 119.72 397.023 121.86 397.023 124.62ZM401.303 121.26C402.883 121.26 403.003 123.1 403.003 123.1L399.083 123.6C399.263 122.28 400.023 121.26 401.303 121.26ZM406.807 124.6C406.807 127.22 408.627 129.24 411.447 129.24C413.607 129.24 414.647 128.08 414.647 128.08L414.007 126.68C414.007 126.68 413.027 127.62 411.587 127.62C409.887 127.62 408.867 126.28 408.867 124.5C408.867 122.66 409.967 121.32 411.607 121.32C412.927 121.32 413.867 122.16 413.867 122.16L414.647 120.68C414.647 120.68 413.547 119.72 411.567 119.72C408.587 119.72 406.807 122.1 406.807 124.6ZM417.126 126.54C417.126 128.4 418.146 129.24 419.706 129.24C421.306 129.24 422.486 128.28 422.486 128.28L421.986 126.78C421.746 126.92 420.906 127.58 420.146 127.58C419.486 127.58 419.106 127.14 419.106 126.04V121.46H421.966V119.96H419.106V117.4L417.166 117.82V119.88L415.786 120.38V121.46H417.126V126.54ZM423.605 124.62C423.605 127.04 425.145 129.24 428.165 129.24C430.425 129.24 431.805 127.94 431.805 127.94L431.245 126.5C431.245 126.5 429.985 127.62 428.465 127.62C426.885 127.62 425.885 126.56 425.665 124.92L430.605 124.26L431.745 123.94C431.745 121.2 430.185 119.72 428.025 119.72C425.385 119.72 423.605 121.86 423.605 124.62ZM427.885 121.26C429.465 121.26 429.585 123.1 429.585 123.1L425.665 123.6C425.845 122.28 426.605 121.26 427.885 121.26ZM433.409 124.76C433.409 127.24 434.929 129.24 437.289 129.24C438.729 129.24 439.649 128.54 440.129 127.76C440.229 128.4 440.409 129.14 440.409 129.14L442.309 129C442.309 129 441.909 127.32 441.909 126.22V114.7L439.929 115.02V120.02C439.669 119.92 439.069 119.72 438.249 119.72C435.049 119.72 433.409 122.18 433.409 124.76ZM437.629 127.66C436.349 127.66 435.489 126.52 435.489 124.64C435.489 122.48 436.629 121.28 438.349 121.28C439.169 121.28 439.889 121.58 439.929 122.48V126.2C439.649 126.62 438.849 127.66 437.629 127.66ZM29.08 152.72H33.96V151.2H29.08V152.72ZM41.4959 152.12C41.4959 155.82 43.9559 157.24 46.9959 157.24C50.0159 157.24 52.4959 155.36 52.4959 151.84V143.66H50.4559V151.92C50.4559 154.34 49.0159 155.48 47.0159 155.48C45.0359 155.48 43.5559 154.44 43.5559 151.82V143.66H41.4959V152.12ZM55.2389 161.66L57.2189 161.34V156.76C57.5989 157.04 58.2789 157.24 59.1189 157.24C61.9989 157.24 63.6789 154.88 63.6789 152.2C63.6789 149.74 62.2389 147.72 59.8589 147.72C58.4389 147.72 57.5789 148.46 57.1589 149.24V147.8L55.2389 148.12V161.66ZM59.5189 149.36C60.7389 149.36 61.5989 150.46 61.5989 152.34C61.5989 154.5 60.4589 155.68 58.7589 155.68C57.8189 155.68 57.2189 155.34 57.2189 154.66V150.82C57.4789 150.44 58.3189 149.36 59.5189 149.36ZM65.2444 156.44C65.2444 156.44 66.3644 157.24 68.2444 157.24C70.4644 157.24 71.7644 156.14 71.7644 154.5C71.7644 151.62 67.4244 151.76 67.4244 150.18C67.4244 149.66 67.8644 149.28 68.8644 149.28C70.0244 149.28 71.0644 149.84 71.0644 149.84L71.5244 148.22C71.5244 148.22 70.5244 147.72 68.9444 147.72C66.4444 147.72 65.4444 148.94 65.4444 150.34C65.4444 153.18 69.7844 153.06 69.7844 154.68C69.7844 155.26 69.2844 155.68 68.2244 155.68C66.7644 155.68 65.6644 154.76 65.6644 154.76L65.2444 156.44ZM73.3313 152.62C73.3313 155.04 74.8713 157.24 77.8913 157.24C80.1513 157.24 81.5313 155.94 81.5313 155.94L80.9713 154.5C80.9713 154.5 79.7113 155.62 78.1913 155.62C76.6113 155.62 75.6113 154.56 75.3913 152.92L80.3313 152.26L81.4713 151.94C81.4713 149.2 79.9113 147.72 77.7513 147.72C75.1113 147.72 73.3313 149.86 73.3313 152.62ZM77.6113 149.26C79.1913 149.26 79.3113 151.1 79.3113 151.1L75.3913 151.6C75.5713 150.28 76.3313 149.26 77.6113 149.26ZM84.2159 154.54C84.2159 156.4 85.2359 157.24 86.7959 157.24C88.3959 157.24 89.5759 156.28 89.5759 156.28L89.0759 154.78C88.8359 154.92 87.9959 155.58 87.2359 155.58C86.5759 155.58 86.1959 155.14 86.1959 154.04V149.46H89.0559V147.96H86.1959V145.4L84.2559 145.82V147.88L82.8759 148.38V149.46H84.2159V154.54ZM97.9592 157.08H99.8792L102.199 150.64L104.279 157.08H106.219L109.459 147.96H107.439L105.259 154.76L103.139 147.96H101.419L99.0792 154.8L97.0992 147.96H95.0592L97.9592 157.08ZM112.158 145.8C112.878 145.8 113.418 145.28 113.418 144.58C113.418 143.88 112.878 143.36 112.158 143.36C111.458 143.36 110.918 143.88 110.918 144.58C110.918 145.28 111.458 145.8 112.158 145.8ZM111.158 157H113.138V147.96H111.158V157ZM116.443 154.54C116.443 156.4 117.463 157.24 119.023 157.24C120.623 157.24 121.803 156.28 121.803 156.28L121.303 154.78C121.063 154.92 120.223 155.58 119.463 155.58C118.803 155.58 118.423 155.14 118.423 154.04V149.46H121.283V147.96H118.423V145.4L116.483 145.82V147.88L115.103 148.38V149.46H116.443V154.54ZM123.521 157H125.501V151.18C126.101 150.58 127.401 149.44 128.401 149.44C129.081 149.44 129.481 149.92 129.481 151.2V157H131.461V150.48C131.461 148.54 130.481 147.72 129.041 147.72C127.381 147.72 126.101 148.84 125.501 149.48V142.7L123.521 143.02V157ZM138.21 154.92C138.21 156.26 139.23 157.24 140.81 157.24C142.57 157.24 143.49 156.12 143.73 155.74C143.99 156.46 144.57 157.04 145.95 157.14L146.55 155.58C146.55 155.58 145.55 155.56 145.55 154.44V150.62C145.55 148.6 144.87 147.72 142.73 147.72C140.35 147.72 138.81 148.86 138.81 148.86L139.33 150.34C139.33 150.34 140.71 149.3 142.19 149.3C143.65 149.3 143.57 150.3 143.57 151.44C140.19 151.88 138.21 153.02 138.21 154.92ZM141.31 155.68C140.73 155.68 140.25 155.42 140.25 154.78C140.25 153.72 141.27 153.06 143.57 152.72V154.28C142.97 154.98 142.23 155.68 141.31 155.68ZM153.605 152.12C153.605 155.82 156.065 157.24 159.105 157.24C162.125 157.24 164.605 155.36 164.605 151.84V143.66H162.565V151.92C162.565 154.34 161.125 155.48 159.125 155.48C157.145 155.48 155.665 154.44 155.665 151.82V143.66H153.605V152.12ZM168.082 157H170.142V143.66H168.082V157ZM178.669 154.54C178.669 156.4 179.689 157.24 181.249 157.24C182.849 157.24 184.029 156.28 184.029 156.28L183.529 154.78C183.289 154.92 182.449 155.58 181.689 155.58C181.029 155.58 180.649 155.14 180.649 154.04V149.46H183.509V147.96H180.649V145.4L178.709 145.82V147.88L177.329 148.38V149.46H178.669V154.54ZM185.748 157H187.728V151.18C188.328 150.58 189.628 149.44 190.628 149.44C191.308 149.44 191.708 149.92 191.708 151.2V157H193.688V150.48C193.688 148.54 192.708 147.72 191.268 147.72C189.608 147.72 188.328 148.84 187.728 149.48V142.7L185.748 143.02V157ZM195.632 154.92C195.632 156.26 196.652 157.24 198.232 157.24C199.992 157.24 200.912 156.12 201.152 155.74C201.412 156.46 201.992 157.04 203.372 157.14L203.972 155.58C203.972 155.58 202.972 155.56 202.972 154.44V150.62C202.972 148.6 202.292 147.72 200.152 147.72C197.772 147.72 196.232 148.86 196.232 148.86L196.752 150.34C196.752 150.34 198.132 149.3 199.612 149.3C201.072 149.3 200.992 150.3 200.992 151.44C197.612 151.88 195.632 153.02 195.632 154.92ZM198.732 155.68C198.152 155.68 197.672 155.42 197.672 154.78C197.672 153.72 198.692 153.06 200.992 152.72V154.28C200.392 154.98 199.652 155.68 198.732 155.68ZM206.364 154.54C206.364 156.4 207.384 157.24 208.944 157.24C210.544 157.24 211.724 156.28 211.724 156.28L211.224 154.78C210.984 154.92 210.144 155.58 209.384 155.58C208.724 155.58 208.344 155.14 208.344 154.04V149.46H211.204V147.96H208.344V145.4L206.404 145.82V147.88L205.024 148.38V149.46H206.364V154.54ZM217.628 152.6C217.628 155.22 219.448 157.24 222.268 157.24C224.428 157.24 225.468 156.08 225.468 156.08L224.828 154.68C224.828 154.68 223.848 155.62 222.408 155.62C220.708 155.62 219.688 154.28 219.688 152.5C219.688 150.66 220.788 149.32 222.428 149.32C223.748 149.32 224.688 150.16 224.688 150.16L225.468 148.68C225.468 148.68 224.368 147.72 222.388 147.72C219.408 147.72 217.628 150.1 217.628 152.6ZM226.706 154.92C226.706 156.26 227.726 157.24 229.306 157.24C231.066 157.24 231.986 156.12 232.226 155.74C232.486 156.46 233.066 157.04 234.446 157.14L235.046 155.58C235.046 155.58 234.046 155.56 234.046 154.44V150.62C234.046 148.6 233.366 147.72 231.226 147.72C228.846 147.72 227.306 148.86 227.306 148.86L227.826 150.34C227.826 150.34 229.206 149.3 230.686 149.3C232.146 149.3 232.066 150.3 232.066 151.44C228.686 151.88 226.706 153.02 226.706 154.92ZM229.806 155.68C229.226 155.68 228.746 155.42 228.746 154.78C228.746 153.72 229.766 153.06 232.066 152.72V154.28C231.466 154.98 230.726 155.68 229.806 155.68ZM236.937 154.52C236.937 156.46 237.937 157.24 239.397 157.24C241.057 157.24 242.317 156.18 242.897 155.56C242.997 156.22 243.197 157.16 243.197 157.16L245.117 156.98C245.117 156.98 244.717 155.32 244.717 154.22V147.96H242.737V154.04C242.177 154.56 241.057 155.52 240.037 155.52C239.297 155.52 238.917 155.02 238.917 153.76V147.96H236.937V154.52ZM246.944 156.44C246.944 156.44 248.064 157.24 249.944 157.24C252.164 157.24 253.464 156.14 253.464 154.5C253.464 151.62 249.124 151.76 249.124 150.18C249.124 149.66 249.564 149.28 250.564 149.28C251.724 149.28 252.764 149.84 252.764 149.84L253.224 148.22C253.224 148.22 252.224 147.72 250.644 147.72C248.144 147.72 247.144 148.94 247.144 150.34C247.144 153.18 251.484 153.06 251.484 154.68C251.484 155.26 250.984 155.68 249.924 155.68C248.464 155.68 247.364 154.76 247.364 154.76L246.944 156.44ZM255.03 152.62C255.03 155.04 256.57 157.24 259.59 157.24C261.85 157.24 263.23 155.94 263.23 155.94L262.67 154.5C262.67 154.5 261.41 155.62 259.89 155.62C258.31 155.62 257.31 154.56 257.09 152.92L262.03 152.26L263.17 151.94C263.17 149.2 261.61 147.72 259.45 147.72C256.81 147.72 255.03 149.86 255.03 152.62ZM259.31 149.26C260.89 149.26 261.01 151.1 261.01 151.1L257.09 151.6C257.27 150.28 258.03 149.26 259.31 149.26ZM264.795 156.44C264.795 156.44 265.915 157.24 267.795 157.24C270.015 157.24 271.315 156.14 271.315 154.5C271.315 151.62 266.975 151.76 266.975 150.18C266.975 149.66 267.415 149.28 268.415 149.28C269.575 149.28 270.615 149.84 270.615 149.84L271.075 148.22C271.075 148.22 270.075 147.72 268.495 147.72C265.995 147.72 264.995 148.94 264.995 150.34C264.995 153.18 269.335 153.06 269.335 154.68C269.335 155.26 268.835 155.68 267.775 155.68C266.315 155.68 265.215 154.76 265.215 154.76L264.795 156.44ZM277.527 154.92C277.527 156.26 278.547 157.24 280.127 157.24C281.887 157.24 282.807 156.12 283.047 155.74C283.307 156.46 283.887 157.04 285.267 157.14L285.867 155.58C285.867 155.58 284.867 155.56 284.867 154.44V150.62C284.867 148.6 284.187 147.72 282.047 147.72C279.667 147.72 278.127 148.86 278.127 148.86L278.647 150.34C278.647 150.34 280.027 149.3 281.507 149.3C282.967 149.3 282.887 150.3 282.887 151.44C279.507 151.88 277.527 153.02 277.527 154.92ZM280.627 155.68C280.047 155.68 279.567 155.42 279.567 154.78C279.567 153.72 280.587 153.06 282.887 152.72V154.28C282.287 154.98 281.547 155.68 280.627 155.68ZM287.237 152.6C287.237 155.22 289.057 157.24 291.877 157.24C294.037 157.24 295.077 156.08 295.077 156.08L294.437 154.68C294.437 154.68 293.457 155.62 292.017 155.62C290.317 155.62 289.297 154.28 289.297 152.5C289.297 150.66 290.397 149.32 292.037 149.32C293.357 149.32 294.297 150.16 294.297 150.16L295.077 148.68C295.077 148.68 293.977 147.72 291.997 147.72C289.017 147.72 287.237 150.1 287.237 152.6ZM296.319 152.6C296.319 155.22 298.139 157.24 300.959 157.24C303.119 157.24 304.159 156.08 304.159 156.08L303.519 154.68C303.519 154.68 302.539 155.62 301.099 155.62C299.399 155.62 298.379 154.28 298.379 152.5C298.379 150.66 299.479 149.32 301.119 149.32C302.439 149.32 303.379 150.16 303.379 150.16L304.159 148.68C304.159 148.68 303.059 147.72 301.079 147.72C298.099 147.72 296.319 150.1 296.319 152.6ZM307.158 145.8C307.878 145.8 308.418 145.28 308.418 144.58C308.418 143.88 307.878 143.36 307.158 143.36C306.458 143.36 305.918 143.88 305.918 144.58C305.918 145.28 306.458 145.8 307.158 145.8ZM306.158 157H308.138V147.96H306.158V157ZM310.363 152.76C310.363 155.24 311.883 157.24 314.243 157.24C315.683 157.24 316.603 156.54 317.083 155.76C317.183 156.4 317.363 157.14 317.363 157.14L319.263 157C319.263 157 318.863 155.32 318.863 154.22V142.7L316.883 143.02V148.02C316.623 147.92 316.023 147.72 315.203 147.72C312.003 147.72 310.363 150.18 310.363 152.76ZM314.583 155.66C313.303 155.66 312.443 154.52 312.443 152.64C312.443 150.48 313.583 149.28 315.303 149.28C316.123 149.28 316.843 149.58 316.883 150.48V154.2C316.603 154.62 315.803 155.66 314.583 155.66ZM321.105 152.62C321.105 155.04 322.645 157.24 325.665 157.24C327.925 157.24 329.305 155.94 329.305 155.94L328.745 154.5C328.745 154.5 327.485 155.62 325.965 155.62C324.385 155.62 323.385 154.56 323.165 152.92L328.105 152.26L329.245 151.94C329.245 149.2 327.685 147.72 325.525 147.72C322.885 147.72 321.105 149.86 321.105 152.62ZM325.385 149.26C326.965 149.26 327.085 151.1 327.085 151.1L323.165 151.6C323.345 150.28 324.105 149.26 325.385 149.26ZM331.469 157H333.449V151.14C334.069 150.54 335.349 149.44 336.349 149.44C337.029 149.44 337.429 149.92 337.429 151.2V157H339.409V150.48C339.409 148.54 338.429 147.72 337.009 147.72C335.349 147.72 334.049 148.82 333.409 149.52V147.8L331.469 148.12V157ZM342.595 154.54C342.595 156.4 343.615 157.24 345.175 157.24C346.775 157.24 347.955 156.28 347.955 156.28L347.455 154.78C347.215 154.92 346.375 155.58 345.615 155.58C344.955 155.58 344.575 155.14 344.575 154.04V149.46H347.435V147.96H344.575V145.4L342.635 145.82V147.88L341.255 148.38V149.46H342.595V154.54ZM348.913 154.92C348.913 156.26 349.933 157.24 351.513 157.24C353.273 157.24 354.193 156.12 354.433 155.74C354.693 156.46 355.273 157.04 356.653 157.14L357.253 155.58C357.253 155.58 356.253 155.56 356.253 154.44V150.62C356.253 148.6 355.573 147.72 353.433 147.72C351.053 147.72 349.513 148.86 349.513 148.86L350.033 150.34C350.033 150.34 351.413 149.3 352.893 149.3C354.353 149.3 354.273 150.3 354.273 151.44C350.893 151.88 348.913 153.02 348.913 154.92ZM352.013 155.68C351.433 155.68 350.953 155.42 350.953 154.78C350.953 153.72 351.973 153.06 354.273 152.72V154.28C353.673 154.98 352.933 155.68 352.013 155.68ZM359.244 157H361.224V142.7L359.244 143.02V157ZM368.753 154.52C368.753 156.46 369.753 157.24 371.213 157.24C372.873 157.24 374.133 156.18 374.713 155.56C374.813 156.22 375.013 157.16 375.013 157.16L376.933 156.98C376.933 156.98 376.533 155.32 376.533 154.22V147.96H374.553V154.04C373.993 154.56 372.873 155.52 371.853 155.52C371.113 155.52 370.733 155.02 370.733 153.76V147.96H368.753V154.52ZM379.36 161.66L381.34 161.34V156.76C381.72 157.04 382.4 157.24 383.24 157.24C386.12 157.24 387.8 154.88 387.8 152.2C387.8 149.74 386.36 147.72 383.98 147.72C382.56 147.72 381.7 148.46 381.28 149.24V147.8L379.36 148.12V161.66ZM383.64 149.36C384.86 149.36 385.72 150.46 385.72 152.34C385.72 154.5 384.58 155.68 382.88 155.68C381.94 155.68 381.34 155.34 381.34 154.66V150.82C381.6 150.44 382.44 149.36 383.64 149.36ZM389.945 155.4C389.945 156.02 390.525 156.38 391.425 156.68C390.465 157.18 389.125 158.04 389.125 159.36C389.125 160.94 391.085 161.74 393.085 161.74C395.805 161.74 398.025 160.2 398.025 158.38C398.025 156.72 396.205 156.22 394.605 155.82C392.725 155.36 391.845 155.18 391.845 154.82C391.845 154.6 392.165 154.36 392.585 154.08C392.785 154.12 393.005 154.12 393.245 154.12C395.185 154.12 397.245 153.06 397.245 151.08C397.245 150.28 396.865 149.74 396.585 149.42C396.825 149.46 397.105 149.48 397.325 149.48H398.405L398.265 147.9C398.265 147.9 397.665 148.1 397.065 148.1H396.025C395.025 148.1 394.505 147.72 393.405 147.72C391.385 147.72 389.565 148.86 389.565 150.88C389.565 152.1 390.225 153.16 391.365 153.72C390.625 154.14 389.945 154.74 389.945 155.4ZM393.465 157.2C395.145 157.64 396.085 157.9 396.085 158.68C396.085 159.58 394.805 160.3 393.205 160.3C392.065 160.3 390.905 159.94 390.905 159.04C390.905 158.14 392.005 157.54 392.865 157.06C393.065 157.1 393.265 157.14 393.465 157.2ZM393.385 152.72C392.105 152.72 391.505 151.8 391.505 150.94C391.505 150 392.185 149.12 393.385 149.12C394.665 149.12 395.285 150.16 395.285 151.04C395.285 152.06 394.485 152.72 393.385 152.72ZM400.083 157H402.063V151.4C402.443 150.8 403.263 149.72 404.263 149.72C404.663 149.72 405.063 149.88 405.063 149.88L405.463 147.88C405.463 147.88 405.183 147.72 404.683 147.72C403.303 147.72 402.383 149 402.023 149.62V147.8L400.083 148.12V157ZM406.316 154.92C406.316 156.26 407.336 157.24 408.916 157.24C410.676 157.24 411.596 156.12 411.836 155.74C412.096 156.46 412.676 157.04 414.056 157.14L414.656 155.58C414.656 155.58 413.656 155.56 413.656 154.44V150.62C413.656 148.6 412.976 147.72 410.836 147.72C408.456 147.72 406.916 148.86 406.916 148.86L407.436 150.34C407.436 150.34 408.816 149.3 410.296 149.3C411.756 149.3 411.676 150.3 411.676 151.44C408.296 151.88 406.316 153.02 406.316 154.92ZM409.416 155.68C408.836 155.68 408.356 155.42 408.356 154.78C408.356 153.72 409.376 153.06 411.676 152.72V154.28C411.076 154.98 410.336 155.68 409.416 155.68ZM416.046 152.76C416.046 155.24 417.566 157.24 419.926 157.24C421.366 157.24 422.286 156.54 422.766 155.76C422.866 156.4 423.046 157.14 423.046 157.14L424.946 157C424.946 157 424.546 155.32 424.546 154.22V142.7L422.566 143.02V148.02C422.306 147.92 421.706 147.72 420.886 147.72C417.686 147.72 416.046 150.18 416.046 152.76ZM420.266 155.66C418.986 155.66 418.126 154.52 418.126 152.64C418.126 150.48 419.266 149.28 420.986 149.28C421.806 149.28 422.526 149.58 422.566 150.48V154.2C422.286 154.62 421.486 155.66 420.266 155.66ZM426.788 152.62C426.788 155.04 428.328 157.24 431.348 157.24C433.608 157.24 434.988 155.94 434.988 155.94L434.428 154.5C434.428 154.5 433.168 155.62 431.648 155.62C430.068 155.62 429.068 154.56 428.848 152.92L433.788 152.26L434.928 151.94C434.928 149.2 433.368 147.72 431.208 147.72C428.568 147.72 426.788 149.86 426.788 152.62ZM431.068 149.26C432.648 149.26 432.768 151.1 432.768 151.1L428.848 151.6C429.028 150.28 429.788 149.26 431.068 149.26ZM436.553 156.44C436.553 156.44 437.673 157.24 439.553 157.24C441.773 157.24 443.073 156.14 443.073 154.5C443.073 151.62 438.733 151.76 438.733 150.18C438.733 149.66 439.173 149.28 440.173 149.28C441.333 149.28 442.373 149.84 442.373 149.84L442.833 148.22C442.833 148.22 441.833 147.72 440.253 147.72C437.753 147.72 436.753 148.94 436.753 150.34C436.753 153.18 441.093 153.06 441.093 154.68C441.093 155.26 440.593 155.68 439.533 155.68C438.073 155.68 436.973 154.76 436.973 154.76L436.553 156.44ZM29.08 180.72H33.96V179.2H29.08V180.72ZM41.6559 185H45.2559C50.0559 185 53.3959 182.6 53.3959 178.12C53.3959 173.38 49.6359 171.66 46.0159 171.66H41.6559V185ZM43.7159 183.28V173.38H45.7359C49.3559 173.38 51.2159 175.32 51.2159 178.28C51.2159 181.06 49.5559 183.28 45.0559 183.28H43.7159ZM55.0105 180.52C55.0105 182.92 56.6305 185.24 59.6305 185.24C62.8905 185.24 64.3305 182.5 64.3305 180.3C64.3305 177.98 62.7105 175.72 59.7105 175.72C56.4705 175.72 55.0105 178.26 55.0105 180.52ZM57.0705 180.34C57.0705 178.54 58.1305 177.3 59.6705 177.3C61.5105 177.3 62.2705 178.96 62.2705 180.56C62.2705 182.38 61.2105 183.66 59.6905 183.66C57.8905 183.66 57.0705 182.02 57.0705 180.34ZM65.9094 180.62C65.9094 183.04 67.4494 185.24 70.4694 185.24C72.7294 185.24 74.1094 183.94 74.1094 183.94L73.5494 182.5C73.5494 182.5 72.2894 183.62 70.7694 183.62C69.1894 183.62 68.1894 182.56 67.9694 180.92L72.9094 180.26L74.0494 179.94C74.0494 177.2 72.4894 175.72 70.3294 175.72C67.6894 175.72 65.9094 177.86 65.9094 180.62ZM70.1894 177.26C71.7694 177.26 71.8894 179.1 71.8894 179.1L67.9694 179.6C68.1494 178.28 68.9094 177.26 70.1894 177.26ZM75.6741 184.44C75.6741 184.44 76.7941 185.24 78.6741 185.24C80.8941 185.24 82.1941 184.14 82.1941 182.5C82.1941 179.62 77.8541 179.76 77.8541 178.18C77.8541 177.66 78.2941 177.28 79.2941 177.28C80.4541 177.28 81.4941 177.84 81.4941 177.84L81.9541 176.22C81.9541 176.22 80.9541 175.72 79.3741 175.72C76.8741 175.72 75.8741 176.94 75.8741 178.34C75.8741 181.18 80.2141 181.06 80.2141 182.68C80.2141 183.26 79.7141 183.68 78.6541 183.68C77.1941 183.68 76.0941 182.76 76.0941 182.76L75.6741 184.44ZM89.1256 185H91.1056V179.14C91.7256 178.54 93.0056 177.44 94.0056 177.44C94.6856 177.44 95.0856 177.92 95.0856 179.2V185H97.0656V178.48C97.0656 176.54 96.0856 175.72 94.6656 175.72C93.0056 175.72 91.7056 176.82 91.0656 177.52V175.8L89.1256 176.12V185ZM99.1511 180.52C99.1511 182.92 100.771 185.24 103.771 185.24C107.031 185.24 108.471 182.5 108.471 180.3C108.471 177.98 106.851 175.72 103.851 175.72C100.611 175.72 99.1511 178.26 99.1511 180.52ZM101.211 180.34C101.211 178.54 102.271 177.3 103.811 177.3C105.651 177.3 106.411 178.96 106.411 180.56C106.411 182.38 105.351 183.66 103.831 183.66C102.031 183.66 101.211 182.02 101.211 180.34ZM111.13 182.54C111.13 184.4 112.15 185.24 113.71 185.24C115.31 185.24 116.49 184.28 116.49 184.28L115.99 182.78C115.75 182.92 114.91 183.58 114.15 183.58C113.49 183.58 113.11 183.14 113.11 182.04V177.46H115.97V175.96H113.11V173.4L111.17 173.82V175.88L109.79 176.38V177.46H111.13V182.54ZM122.393 180.6C122.393 183.22 124.213 185.24 127.033 185.24C129.193 185.24 130.233 184.08 130.233 184.08L129.593 182.68C129.593 182.68 128.613 183.62 127.173 183.62C125.473 183.62 124.453 182.28 124.453 180.5C124.453 178.66 125.553 177.32 127.193 177.32C128.513 177.32 129.453 178.16 129.453 178.16L130.233 176.68C130.233 176.68 129.133 175.72 127.153 175.72C124.173 175.72 122.393 178.1 122.393 180.6ZM131.456 180.52C131.456 182.92 133.076 185.24 136.076 185.24C139.336 185.24 140.776 182.5 140.776 180.3C140.776 177.98 139.156 175.72 136.156 175.72C132.916 175.72 131.456 178.26 131.456 180.52ZM133.516 180.34C133.516 178.54 134.576 177.3 136.116 177.3C137.956 177.3 138.716 178.96 138.716 180.56C138.716 182.38 137.656 183.66 136.136 183.66C134.336 183.66 133.516 182.02 133.516 180.34ZM142.915 185H144.895V179.14C145.515 178.54 146.795 177.44 147.795 177.44C148.475 177.44 148.875 177.92 148.875 179.2V185H150.855V178.48C150.855 176.54 149.875 175.72 148.455 175.72C146.795 175.72 145.495 176.82 144.855 177.52V175.8L142.915 176.12V185ZM152.92 184.44C152.92 184.44 154.04 185.24 155.92 185.24C158.14 185.24 159.44 184.14 159.44 182.5C159.44 179.62 155.1 179.76 155.1 178.18C155.1 177.66 155.54 177.28 156.54 177.28C157.7 177.28 158.74 177.84 158.74 177.84L159.2 176.22C159.2 176.22 158.2 175.72 156.62 175.72C154.12 175.72 153.12 176.94 153.12 178.34C153.12 181.18 157.46 181.06 157.46 182.68C157.46 183.26 156.96 183.68 155.9 183.68C154.44 183.68 153.34 182.76 153.34 182.76L152.92 184.44ZM162.607 173.8C163.327 173.8 163.867 173.28 163.867 172.58C163.867 171.88 163.327 171.36 162.607 171.36C161.907 171.36 161.367 171.88 161.367 172.58C161.367 173.28 161.907 173.8 162.607 173.8ZM161.607 185H163.587V175.96H161.607V185ZM165.812 180.76C165.812 183.24 167.332 185.24 169.692 185.24C171.132 185.24 172.052 184.54 172.532 183.76C172.632 184.4 172.812 185.14 172.812 185.14L174.712 185C174.712 185 174.312 183.32 174.312 182.22V170.7L172.332 171.02V176.02C172.072 175.92 171.472 175.72 170.652 175.72C167.452 175.72 165.812 178.18 165.812 180.76ZM170.032 183.66C168.752 183.66 167.892 182.52 167.892 180.64C167.892 178.48 169.032 177.28 170.752 177.28C171.572 177.28 172.292 177.58 172.332 178.48V182.2C172.052 182.62 171.252 183.66 170.032 183.66ZM176.554 180.62C176.554 183.04 178.094 185.24 181.114 185.24C183.374 185.24 184.754 183.94 184.754 183.94L184.194 182.5C184.194 182.5 182.934 183.62 181.414 183.62C179.834 183.62 178.834 182.56 178.614 180.92L183.554 180.26L184.694 179.94C184.694 177.2 183.134 175.72 180.974 175.72C178.334 175.72 176.554 177.86 176.554 180.62ZM180.834 177.26C182.414 177.26 182.534 179.1 182.534 179.1L178.614 179.6C178.794 178.28 179.554 177.26 180.834 177.26ZM186.919 185H188.899V179.4C189.279 178.8 190.099 177.72 191.099 177.72C191.499 177.72 191.899 177.88 191.899 177.88L192.299 175.88C192.299 175.88 192.019 175.72 191.519 175.72C190.139 175.72 189.219 177 188.859 177.62V175.8L186.919 176.12V185ZM198.676 189.66L200.656 189.34V184.76C201.036 185.04 201.716 185.24 202.556 185.24C205.436 185.24 207.116 182.88 207.116 180.2C207.116 177.74 205.676 175.72 203.296 175.72C201.876 175.72 201.016 176.46 200.596 177.24V175.8L198.676 176.12V189.66ZM202.956 177.36C204.176 177.36 205.036 178.46 205.036 180.34C205.036 182.5 203.896 183.68 202.196 183.68C201.256 183.68 200.656 183.34 200.656 182.66V178.82C200.916 178.44 201.756 177.36 202.956 177.36ZM208.562 182.92C208.562 184.26 209.582 185.24 211.162 185.24C212.922 185.24 213.842 184.12 214.082 183.74C214.342 184.46 214.922 185.04 216.302 185.14L216.902 183.58C216.902 183.58 215.902 183.56 215.902 182.44V178.62C215.902 176.6 215.222 175.72 213.082 175.72C210.702 175.72 209.162 176.86 209.162 176.86L209.682 178.34C209.682 178.34 211.062 177.3 212.542 177.3C214.002 177.3 213.922 178.3 213.922 179.44C210.542 179.88 208.562 181.02 208.562 182.92ZM211.662 183.68C211.082 183.68 210.602 183.42 210.602 182.78C210.602 181.72 211.622 181.06 213.922 180.72V182.28C213.322 182.98 212.582 183.68 211.662 183.68ZM219.892 173.8C220.612 173.8 221.152 173.28 221.152 172.58C221.152 171.88 220.612 171.36 219.892 171.36C219.192 171.36 218.652 171.88 218.652 172.58C218.652 173.28 219.192 173.8 219.892 173.8ZM218.892 185H220.872V175.96H218.892V185ZM223.097 180.76C223.097 183.24 224.617 185.24 226.977 185.24C228.417 185.24 229.337 184.54 229.817 183.76C229.917 184.4 230.097 185.14 230.097 185.14L231.997 185C231.997 185 231.597 183.32 231.597 182.22V170.7L229.617 171.02V176.02C229.357 175.92 228.757 175.72 227.937 175.72C224.737 175.72 223.097 178.18 223.097 180.76ZM227.317 183.66C226.037 183.66 225.177 182.52 225.177 180.64C225.177 178.48 226.317 177.28 228.037 177.28C228.857 177.28 229.577 177.58 229.617 178.48V182.2C229.337 182.62 228.537 183.66 227.317 183.66ZM241.384 185.08H243.224L246.944 175.96H244.924L242.384 182.52L240.184 175.96H238.104L241.384 185.08ZM247.863 180.62C247.863 183.04 249.403 185.24 252.423 185.24C254.683 185.24 256.063 183.94 256.063 183.94L255.503 182.5C255.503 182.5 254.243 183.62 252.723 183.62C251.143 183.62 250.143 182.56 249.923 180.92L254.863 180.26L256.003 179.94C256.003 177.2 254.443 175.72 252.283 175.72C249.643 175.72 247.863 177.86 247.863 180.62ZM252.143 177.26C253.723 177.26 253.843 179.1 253.843 179.1L249.923 179.6C250.103 178.28 250.863 177.26 252.143 177.26ZM258.227 185H260.207V179.4C260.587 178.8 261.407 177.72 262.407 177.72C262.807 177.72 263.207 177.88 263.207 177.88L263.607 175.88C263.607 175.88 263.327 175.72 262.827 175.72C261.447 175.72 260.527 177 260.167 177.62V175.8L258.227 176.12V185ZM264.58 184.44C264.58 184.44 265.7 185.24 267.58 185.24C269.8 185.24 271.1 184.14 271.1 182.5C271.1 179.62 266.76 179.76 266.76 178.18C266.76 177.66 267.2 177.28 268.2 177.28C269.36 177.28 270.4 177.84 270.4 177.84L270.86 176.22C270.86 176.22 269.86 175.72 268.28 175.72C265.78 175.72 264.78 176.94 264.78 178.34C264.78 181.18 269.12 181.06 269.12 182.68C269.12 183.26 268.62 183.68 267.56 183.68C266.1 183.68 265 182.76 265 182.76L264.58 184.44ZM274.267 173.8C274.987 173.8 275.527 173.28 275.527 172.58C275.527 171.88 274.987 171.36 274.267 171.36C273.567 171.36 273.027 171.88 273.027 172.58C273.027 173.28 273.567 173.8 274.267 173.8ZM273.267 185H275.247V175.96H273.267V185ZM277.452 180.52C277.452 182.92 279.072 185.24 282.072 185.24C285.332 185.24 286.772 182.5 286.772 180.3C286.772 177.98 285.152 175.72 282.152 175.72C278.912 175.72 277.452 178.26 277.452 180.52ZM279.512 180.34C279.512 178.54 280.572 177.3 282.112 177.3C283.952 177.3 284.712 178.96 284.712 180.56C284.712 182.38 283.652 183.66 282.132 183.66C280.332 183.66 279.512 182.02 279.512 180.34ZM288.911 185H290.891V179.14C291.511 178.54 292.791 177.44 293.791 177.44C294.471 177.44 294.871 177.92 294.871 179.2V185H296.851V178.48C296.851 176.54 295.871 175.72 294.451 175.72C292.791 175.72 291.491 176.82 290.851 177.52V175.8L288.911 176.12V185ZM303.741 180.52C303.741 182.92 305.361 185.24 308.361 185.24C311.621 185.24 313.061 182.5 313.061 180.3C313.061 177.98 311.441 175.72 308.441 175.72C305.201 175.72 303.741 178.26 303.741 180.52ZM305.801 180.34C305.801 178.54 306.861 177.3 308.401 177.3C310.241 177.3 311.001 178.96 311.001 180.56C311.001 182.38 309.941 183.66 308.421 183.66C306.621 183.66 305.801 182.02 305.801 180.34ZM314.34 177.46H315.76V185H317.74V177.46H320.24V175.96H317.74V174.88C317.74 172.76 318.7 172.02 319.76 172.02C320.74 172.02 321.62 172.66 321.62 172.66L322.4 171.14C322.4 171.14 321.36 170.38 319.78 170.38C317.42 170.38 315.76 172.04 315.76 175V175.88L314.34 176.4V177.46ZM327.281 185H329.341V180.14H331.501C334.301 180.14 336.341 178.5 336.341 175.74C336.341 173.54 334.941 171.66 331.501 171.66H327.281V185ZM329.341 178.42V173.38H331.161C333.381 173.38 334.161 174.48 334.161 175.88C334.161 177.46 333.221 178.42 331.161 178.42H329.341ZM337.39 182.92C337.39 184.26 338.41 185.24 339.99 185.24C341.75 185.24 342.67 184.12 342.91 183.74C343.17 184.46 343.75 185.04 345.13 185.14L345.73 183.58C345.73 183.58 344.73 183.56 344.73 182.44V178.62C344.73 176.6 344.05 175.72 341.91 175.72C339.53 175.72 337.99 176.86 337.99 176.86L338.51 178.34C338.51 178.34 339.89 177.3 341.37 177.3C342.83 177.3 342.75 178.3 342.75 179.44C339.37 179.88 337.39 181.02 337.39 182.92ZM340.49 183.68C339.91 183.68 339.43 183.42 339.43 182.78C339.43 181.72 340.45 181.06 342.75 180.72V182.28C342.15 182.98 341.41 183.68 340.49 183.68ZM347.68 185H349.66V179.14C350.28 178.54 351.56 177.44 352.56 177.44C353.24 177.44 353.64 177.92 353.64 179.2V185H355.62V178.48C355.62 176.54 354.64 175.72 353.22 175.72C351.56 175.72 350.26 176.82 349.62 177.52V175.8L347.68 176.12V185ZM357.726 180.76C357.726 183.24 359.246 185.24 361.606 185.24C363.046 185.24 363.966 184.54 364.446 183.76C364.546 184.4 364.726 185.14 364.726 185.14L366.626 185C366.626 185 366.226 183.32 366.226 182.22V170.7L364.246 171.02V176.02C363.986 175.92 363.386 175.72 362.566 175.72C359.366 175.72 357.726 178.18 357.726 180.76ZM361.946 183.66C360.666 183.66 359.806 182.52 359.806 180.64C359.806 178.48 360.946 177.28 362.666 177.28C363.486 177.28 364.206 177.58 364.246 178.48V182.2C363.966 182.62 363.166 183.66 361.946 183.66ZM368.448 180.52C368.448 182.92 370.068 185.24 373.068 185.24C376.328 185.24 377.768 182.5 377.768 180.3C377.768 177.98 376.148 175.72 373.148 175.72C369.908 175.72 368.448 178.26 368.448 180.52ZM370.508 180.34C370.508 178.54 371.568 177.3 373.108 177.3C374.948 177.3 375.708 178.96 375.708 180.56C375.708 182.38 374.648 183.66 373.128 183.66C371.328 183.66 370.508 182.02 370.508 180.34ZM379.907 185H381.887V179.4C382.267 178.8 383.087 177.72 384.087 177.72C384.487 177.72 384.887 177.88 384.887 177.88L385.287 175.88C385.287 175.88 385.007 175.72 384.507 175.72C383.127 175.72 382.207 177 381.847 177.62V175.8L379.907 176.12V185ZM386.14 182.92C386.14 184.26 387.16 185.24 388.74 185.24C390.5 185.24 391.42 184.12 391.66 183.74C391.92 184.46 392.5 185.04 393.88 185.14L394.48 183.58C394.48 183.58 393.48 183.56 393.48 182.44V178.62C393.48 176.6 392.8 175.72 390.66 175.72C388.28 175.72 386.74 176.86 386.74 176.86L387.26 178.34C387.26 178.34 388.64 177.3 390.12 177.3C391.58 177.3 391.5 178.3 391.5 179.44C388.12 179.88 386.14 181.02 386.14 182.92ZM389.24 183.68C388.66 183.68 388.18 183.42 388.18 182.78C388.18 181.72 389.2 181.06 391.5 180.72V182.28C390.9 182.98 390.16 183.68 389.24 183.68ZM401.755 182.54C401.755 184.4 402.775 185.24 404.335 185.24C405.935 185.24 407.115 184.28 407.115 184.28L406.615 182.78C406.375 182.92 405.535 183.58 404.775 183.58C404.115 183.58 403.735 183.14 403.735 182.04V177.46H406.595V175.96H403.735V173.4L401.795 173.82V175.88L400.415 176.38V177.46H401.755V182.54ZM408.214 180.52C408.214 182.92 409.834 185.24 412.834 185.24C416.094 185.24 417.534 182.5 417.534 180.3C417.534 177.98 415.914 175.72 412.914 175.72C409.674 175.72 408.214 178.26 408.214 180.52ZM410.274 180.34C410.274 178.54 411.334 177.3 412.874 177.3C414.714 177.3 415.474 178.96 415.474 180.56C415.474 182.38 414.414 183.66 412.894 183.66C411.094 183.66 410.274 182.02 410.274 180.34ZM44.8141 202.8C45.5341 202.8 46.0741 202.28 46.0741 201.58C46.0741 200.88 45.5341 200.36 44.8141 200.36C44.1141 200.36 43.5741 200.88 43.5741 201.58C43.5741 202.28 44.1141 202.8 44.8141 202.8ZM43.8141 214H45.7941V204.96H43.8141V214ZM48.5788 214H50.5588V208.12C51.1388 207.54 52.3788 206.44 53.3588 206.44C54.0188 206.44 54.3788 206.92 54.3788 208.2V214H56.3588V208.08C57.0388 207.42 58.1588 206.44 59.0788 206.44C59.7388 206.44 60.1188 206.92 60.1188 208.2V214H62.0788V207.48C62.0788 205.54 61.1388 204.72 59.7388 204.72C58.1588 204.72 56.9188 205.78 56.2588 206.5C55.9788 205.26 55.1588 204.72 54.0188 204.72C52.4188 204.72 51.1388 205.82 50.5188 206.5V204.8L48.5788 205.12V214ZM64.7506 218.66L66.7306 218.34V213.76C67.1106 214.04 67.7906 214.24 68.6306 214.24C71.5106 214.24 73.1906 211.88 73.1906 209.2C73.1906 206.74 71.7506 204.72 69.3706 204.72C67.9506 204.72 67.0906 205.46 66.6706 206.24V204.8L64.7506 205.12V218.66ZM69.0306 206.36C70.2506 206.36 71.1106 207.46 71.1106 209.34C71.1106 211.5 69.9706 212.68 68.2706 212.68C67.3306 212.68 66.7306 212.34 66.7306 211.66V207.82C66.9906 207.44 67.8306 206.36 69.0306 206.36ZM74.6361 211.92C74.6361 213.26 75.6561 214.24 77.2361 214.24C78.9961 214.24 79.9161 213.12 80.1561 212.74C80.4161 213.46 80.9961 214.04 82.3761 214.14L82.9761 212.58C82.9761 212.58 81.9761 212.56 81.9761 211.44V207.62C81.9761 205.6 81.2961 204.72 79.1561 204.72C76.7761 204.72 75.2361 205.86 75.2361 205.86L75.7561 207.34C75.7561 207.34 77.1361 206.3 78.6161 206.3C80.0761 206.3 79.9961 207.3 79.9961 208.44C76.6161 208.88 74.6361 210.02 74.6361 211.92ZM77.7361 212.68C77.1561 212.68 76.6761 212.42 76.6761 211.78C76.6761 210.72 77.6961 210.06 79.9961 209.72V211.28C79.3961 211.98 78.6561 212.68 77.7361 212.68ZM84.9264 214H86.9064V208.4C87.2864 207.8 88.1064 206.72 89.1064 206.72C89.5064 206.72 89.9064 206.88 89.9064 206.88L90.3064 204.88C90.3064 204.88 90.0264 204.72 89.5264 204.72C88.1464 204.72 87.2264 206 86.8664 206.62V204.8L84.9264 205.12V214ZM92.3995 211.54C92.3995 213.4 93.4195 214.24 94.9795 214.24C96.5795 214.24 97.7595 213.28 97.7595 213.28L97.2595 211.78C97.0195 211.92 96.1795 212.58 95.4195 212.58C94.7595 212.58 94.3795 212.14 94.3795 211.04V206.46H97.2395V204.96H94.3795V202.4L92.4395 202.82V204.88L91.0595 205.38V206.46H92.3995V211.54ZM106.423 214.08H108.263L111.983 204.96H109.963L107.423 211.52L105.223 204.96H103.143L106.423 214.08ZM112.82 211.92C112.82 213.26 113.84 214.24 115.42 214.24C117.18 214.24 118.1 213.12 118.34 212.74C118.6 213.46 119.18 214.04 120.56 214.14L121.16 212.58C121.16 212.58 120.16 212.56 120.16 211.44V207.62C120.16 205.6 119.48 204.72 117.34 204.72C114.96 204.72 113.42 205.86 113.42 205.86L113.94 207.34C113.94 207.34 115.32 206.3 116.8 206.3C118.26 206.3 118.18 207.3 118.18 208.44C114.8 208.88 112.82 210.02 112.82 211.92ZM115.92 212.68C115.34 212.68 114.86 212.42 114.86 211.78C114.86 210.72 115.88 210.06 118.18 209.72V211.28C117.58 211.98 116.84 212.68 115.92 212.68ZM123.15 214H125.13V199.7L123.15 200.02V214ZM127.855 211.52C127.855 213.46 128.855 214.24 130.315 214.24C131.975 214.24 133.235 213.18 133.815 212.56C133.915 213.22 134.115 214.16 134.115 214.16L136.035 213.98C136.035 213.98 135.635 212.32 135.635 211.22V204.96H133.655V211.04C133.095 211.56 131.975 212.52 130.955 212.52C130.215 212.52 129.835 212.02 129.835 210.76V204.96H127.855V211.52ZM137.902 209.62C137.902 212.04 139.442 214.24 142.462 214.24C144.722 214.24 146.102 212.94 146.102 212.94L145.542 211.5C145.542 211.5 144.282 212.62 142.762 212.62C141.182 212.62 140.182 211.56 139.962 209.92L144.902 209.26L146.042 208.94C146.042 206.2 144.482 204.72 142.322 204.72C139.682 204.72 137.902 206.86 137.902 209.62ZM142.182 206.26C143.762 206.26 143.882 208.1 143.882 208.1L139.962 208.6C140.142 207.28 140.902 206.26 142.182 206.26ZM154.111 202.8C154.831 202.8 155.371 202.28 155.371 201.58C155.371 200.88 154.831 200.36 154.111 200.36C153.411 200.36 152.871 200.88 152.871 201.58C152.871 202.28 153.411 202.8 154.111 202.8ZM153.111 214H155.091V204.96H153.111V214ZM157.876 214H159.856V208.14C160.476 207.54 161.756 206.44 162.756 206.44C163.436 206.44 163.836 206.92 163.836 208.2V214H165.816V207.48C165.816 205.54 164.836 204.72 163.416 204.72C161.756 204.72 160.456 205.82 159.816 206.52V204.8L157.876 205.12V214ZM173.286 214H175.266V208.4C175.646 207.8 176.466 206.72 177.466 206.72C177.866 206.72 178.266 206.88 178.266 206.88L178.666 204.88C178.666 204.88 178.386 204.72 177.886 204.72C176.506 204.72 175.586 206 175.226 206.62V204.8L173.286 205.12V214ZM179.523 209.62C179.523 212.04 181.063 214.24 184.083 214.24C186.343 214.24 187.723 212.94 187.723 212.94L187.163 211.5C187.163 211.5 185.903 212.62 184.383 212.62C182.803 212.62 181.803 211.56 181.583 209.92L186.523 209.26L187.663 208.94C187.663 206.2 186.103 204.72 183.943 204.72C181.303 204.72 179.523 206.86 179.523 209.62ZM183.803 206.26C185.383 206.26 185.503 208.1 185.503 208.1L181.583 208.6C181.763 207.28 182.523 206.26 183.803 206.26ZM190.407 211.54C190.407 213.4 191.427 214.24 192.987 214.24C194.587 214.24 195.767 213.28 195.767 213.28L195.267 211.78C195.027 211.92 194.187 212.58 193.427 212.58C192.767 212.58 192.387 212.14 192.387 211.04V206.46H195.247V204.96H192.387V202.4L190.447 202.82V204.88L189.067 205.38V206.46H190.407V211.54ZM197.386 211.52C197.386 213.46 198.386 214.24 199.846 214.24C201.506 214.24 202.766 213.18 203.346 212.56C203.446 213.22 203.646 214.16 203.646 214.16L205.566 213.98C205.566 213.98 205.166 212.32 205.166 211.22V204.96H203.186V211.04C202.626 211.56 201.506 212.52 200.486 212.52C199.746 212.52 199.366 212.02 199.366 210.76V204.96H197.386V211.52ZM207.993 214H209.973V208.4C210.353 207.8 211.173 206.72 212.173 206.72C212.573 206.72 212.973 206.88 212.973 206.88L213.373 204.88C213.373 204.88 213.093 204.72 212.593 204.72C211.213 204.72 210.293 206 209.933 206.62V204.8L207.993 205.12V214ZM214.946 214H216.926V208.14C217.546 207.54 218.826 206.44 219.826 206.44C220.506 206.44 220.906 206.92 220.906 208.2V214H222.886V207.48C222.886 205.54 221.906 204.72 220.486 204.72C218.826 204.72 217.526 205.82 216.886 206.52V204.8L214.946 205.12V214ZM229.776 209.52C229.776 211.92 231.396 214.24 234.396 214.24C237.656 214.24 239.096 211.5 239.096 209.3C239.096 206.98 237.476 204.72 234.476 204.72C231.236 204.72 229.776 207.26 229.776 209.52ZM231.836 209.34C231.836 207.54 232.896 206.3 234.436 206.3C236.276 206.3 237.036 207.96 237.036 209.56C237.036 211.38 235.976 212.66 234.456 212.66C232.656 212.66 231.836 211.02 231.836 209.34ZM240.375 206.46H241.795V214H243.775V206.46H246.275V204.96H243.775V203.88C243.775 201.76 244.735 201.02 245.795 201.02C246.775 201.02 247.655 201.66 247.655 201.66L248.435 200.14C248.435 200.14 247.395 199.38 245.815 199.38C243.455 199.38 241.795 201.04 241.795 204V204.88L240.375 205.4V206.46ZM253.896 202.8C254.616 202.8 255.156 202.28 255.156 201.58C255.156 200.88 254.616 200.36 253.896 200.36C253.196 200.36 252.656 200.88 252.656 201.58C252.656 202.28 253.196 202.8 253.896 202.8ZM252.896 214H254.876V204.96H252.896V214ZM257.661 214H259.641V208.14C260.261 207.54 261.541 206.44 262.541 206.44C263.221 206.44 263.621 206.92 263.621 208.2V214H265.601V207.48C265.601 205.54 264.621 204.72 263.201 204.72C261.541 204.72 260.241 205.82 259.601 206.52V204.8L257.661 205.12V214ZM270.446 214.08H272.286L276.006 204.96H273.986L271.446 211.52L269.246 204.96H267.166L270.446 214.08ZM276.925 209.62C276.925 212.04 278.465 214.24 281.485 214.24C283.745 214.24 285.125 212.94 285.125 212.94L284.565 211.5C284.565 211.5 283.305 212.62 281.785 212.62C280.205 212.62 279.205 211.56 278.985 209.92L283.925 209.26L285.065 208.94C285.065 206.2 283.505 204.72 281.345 204.72C278.705 204.72 276.925 206.86 276.925 209.62ZM281.205 206.26C282.785 206.26 282.905 208.1 282.905 208.1L278.985 208.6C279.165 207.28 279.925 206.26 281.205 206.26ZM286.69 213.44C286.69 213.44 287.81 214.24 289.69 214.24C291.91 214.24 293.21 213.14 293.21 211.5C293.21 208.62 288.87 208.76 288.87 207.18C288.87 206.66 289.31 206.28 290.31 206.28C291.47 206.28 292.51 206.84 292.51 206.84L292.97 205.22C292.97 205.22 291.97 204.72 290.39 204.72C287.89 204.72 286.89 205.94 286.89 207.34C286.89 210.18 291.23 210.06 291.23 211.68C291.23 212.26 290.73 212.68 289.67 212.68C288.21 212.68 287.11 211.76 287.11 211.76L286.69 213.44ZM295.857 211.54C295.857 213.4 296.877 214.24 298.437 214.24C300.037 214.24 301.217 213.28 301.217 213.28L300.717 211.78C300.477 211.92 299.637 212.58 298.877 212.58C298.217 212.58 297.837 212.14 297.837 211.04V206.46H300.697V204.96H297.837V202.4L295.897 202.82V204.88L294.517 205.38V206.46H295.857V211.54ZM302.895 214H304.875V208.12C305.455 207.54 306.695 206.44 307.675 206.44C308.335 206.44 308.695 206.92 308.695 208.2V214H310.675V208.08C311.355 207.42 312.475 206.44 313.395 206.44C314.055 206.44 314.435 206.92 314.435 208.2V214H316.395V207.48C316.395 205.54 315.455 204.72 314.055 204.72C312.475 204.72 311.235 205.78 310.575 206.5C310.295 205.26 309.475 204.72 308.335 204.72C306.735 204.72 305.455 205.82 304.835 206.5V204.8L302.895 205.12V214ZM318.507 209.62C318.507 212.04 320.047 214.24 323.067 214.24C325.327 214.24 326.707 212.94 326.707 212.94L326.147 211.5C326.147 211.5 324.887 212.62 323.367 212.62C321.787 212.62 320.787 211.56 320.567 209.92L325.507 209.26L326.647 208.94C326.647 206.2 325.087 204.72 322.927 204.72C320.287 204.72 318.507 206.86 318.507 209.62ZM322.787 206.26C324.367 206.26 324.487 208.1 324.487 208.1L320.567 208.6C320.747 207.28 321.507 206.26 322.787 206.26ZM328.872 214H330.852V208.14C331.472 207.54 332.752 206.44 333.752 206.44C334.432 206.44 334.832 206.92 334.832 208.2V214H336.812V207.48C336.812 205.54 335.832 204.72 334.412 204.72C332.752 204.72 331.452 205.82 330.812 206.52V204.8L328.872 205.12V214ZM339.997 211.54C339.997 213.4 341.017 214.24 342.577 214.24C344.177 214.24 345.357 213.28 345.357 213.28L344.857 211.78C344.617 211.92 343.777 212.58 343.017 212.58C342.357 212.58 341.977 212.14 341.977 211.04V206.46H344.837V204.96H341.977V202.4L340.037 202.82V204.88L338.657 205.38V206.46H339.997V211.54Z" fill="#333333"/>
</svg>
