<?xml version="1.0" encoding="UTF-8"?>
<svg width="640px" height="552px" viewBox="0 0 640 552" version="1.1" xmlns="http://www.w3.org/2000/svg" xmlns:xlink="http://www.w3.org/1999/xlink">
    <!-- Generator: Sketch 51.3 (57544) - http://www.bohemiancoding.com/sketch -->
    <title>styletile1</title>
    <desc>Created with Sketch.</desc>
    <defs></defs>
    <g id="styletile1" stroke="none" stroke-width="1" fill="none" fill-rule="evenodd">
        <g id="Group" transform="translate(53.000000, 320.000000)" fill="#62474F">
            <path d="M14.0226745,40 C5.87511054,37.2857512 0,29.5911177 0,20.5227553 C0,9.18835053 9.17816263,0 20.5,0 C31.8218374,0 41,9.18835053 41,20.5227553 C41,29.5911177 35.1248895,37.2857513 26.9773254,40 C26.7722801,38.7168602 26.1959541,37.5578122 25.3621102,36.636745 C32.275348,34.5490062 37.31,28.1244864 37.31,20.5227553 L3.69,20.5227553 C3.69,28.1244864 8.72465205,34.5490062 15.6378904,36.6367443 C14.804046,37.5578121 14.2277199,38.7168602 14.0226745,40 Z M21.8408664,19.5992313 L30.7793351,19.5992313 L33.0003934,16.485813 C33.8401141,15.3087155 33.6340086,13.6830042 32.5271821,12.7532356 L32.3088371,12.569819 C31.2020106,11.6400504 29.5669829,11.7191526 28.5548695,12.7514349 L21.8408664,19.5992313 Z" id="Combined-Shape"></path>
            <g id="logotype" transform="translate(58.000000, 8.000000)">
                <path d="M0.539701493,0.513 C0.899504287,0.17099829 1.37623584,0 1.96991045,0 C2.56358506,0 3.04481408,0.17099829 3.41361194,0.513 C3.7824098,0.85500171 3.96680597,1.28699739 3.96680597,1.809 C3.96680597,2.33100261 3.7824098,2.75399838 3.41361194,3.078 C3.04481408,3.40200162 2.56358506,3.564 1.96991045,3.564 C1.37623584,3.564 0.899504287,3.40200162 0.539701493,3.078 C0.179898699,2.75399838 0,2.33100261 0,1.809 C0,1.28699739 0.179898699,0.85500171 0.539701493,0.513 Z M3.5080597,6.129 L3.5080597,21.006 L0.431761194,21.006 L0.431761194,6.129 L3.5080597,6.129 Z M21.712444,7.56 C22.7558721,8.67600558 23.2775784,10.2689897 23.2775784,12.339 L23.2775784,21.006 L20.2012799,21.006 L20.2012799,12.663 C20.2012799,11.3309933 19.8594723,10.3005036 19.175847,9.5715 C18.4922217,8.84249635 17.5567485,8.478 16.3693993,8.478 C15.1460698,8.478 14.1656218,8.86949608 13.4280261,9.6525 C12.6904304,10.4355039 12.3216381,11.5829924 12.3216381,13.095 L12.3216381,21.006 L9.24533955,21.006 L9.24533955,6.129 L12.3216381,6.129 L12.3216381,9.396 C12.7174211,8.27999442 13.3830463,7.41600306 14.3185336,6.804 C15.2540208,6.19199694 16.333413,5.886 17.5567425,5.886 C19.2837959,5.886 20.6690159,6.44399442 21.712444,7.56 Z M38.2977239,6.939 C39.2512013,7.60500333 39.9258214,8.48699451 40.3216045,9.585 L40.3216045,6.129 L43.397903,6.129 L43.397903,21.168 C43.397903,22.5540069 43.1145625,23.7824946 42.5478731,24.8535 C41.9811837,25.9245054 41.1671421,26.7659969 40.1057239,27.378 C39.0443056,27.9900031 37.7850147,28.296 36.3278134,28.296 C34.2409572,28.296 32.5544069,27.801005 31.2681119,26.811 C29.981817,25.8209951 29.1767703,24.4800085 28.8529478,22.788 L31.9022612,22.788 C32.1541231,23.6700044 32.6398496,24.3584975 33.3594552,24.8535 C34.0790608,25.3485025 34.9965442,25.596 36.1119328,25.596 C37.3352623,25.596 38.342695,25.2180038 39.1342612,24.462 C39.9258273,23.7059962 40.3216045,22.6080072 40.3216045,21.168 L40.3216045,17.55 C39.9258214,18.6480055 39.2512013,19.5299967 38.2977239,20.196 C37.3442465,20.8620033 36.1928948,21.195 34.8436343,21.195 C33.5483443,21.195 32.3924951,20.8890031 31.3760522,20.277 C30.3596093,19.6649969 29.5635576,18.7830058 28.9878731,17.631 C28.4121887,16.4789942 28.1243507,15.1200078 28.1243507,13.554 C28.1243507,12.0059923 28.4121887,10.6560058 28.9878731,9.504 C29.5635576,8.35199424 30.3596093,7.47000306 31.3760522,6.858 C32.3924951,6.24599694 33.5483443,5.94 34.8436343,5.94 C36.1928948,5.94 37.3442465,6.27299667 38.2977239,6.939 Z M32.5094254,9.9495 C31.690874,10.8225044 31.2816045,12.0239923 31.2816045,13.554 C31.2816045,15.0840077 31.690874,16.2854956 32.5094254,17.1585 C33.3279767,18.0315044 34.4208613,18.468 35.7881119,18.468 C36.6516386,18.468 37.425203,18.265502 38.1088284,17.8605 C38.7924537,17.455498 39.3321498,16.8840037 39.7279328,16.146 C40.1237159,15.4079963 40.3216045,14.5440049 40.3216045,13.554 C40.3216045,12.5819951 40.1237159,11.7225037 39.7279328,10.9755 C39.3321498,10.2284963 38.7924537,9.65250202 38.1088284,9.2475 C37.425203,8.84249798 36.6516386,8.64 35.7881119,8.64 C34.4208613,8.64 33.3279767,9.07649563 32.5094254,9.9495 Z M54.3433022,6.7365 C55.2787895,6.16949717 56.3581817,5.886 57.5815112,5.886 L57.5815112,9.234 L56.6640187,9.234 C55.3147582,9.234 54.2308685,9.56249671 53.4123172,10.2195 C52.5937658,10.8765033 52.1844963,11.9609924 52.1844963,13.473 L52.1844963,21.006 L49.1081978,21.006 L49.1081978,6.129 L52.1844963,6.129 L52.1844963,9.045 C52.6882202,8.07299514 53.407815,7.30350284 54.3433022,6.7365 Z M71.3063731,6.939 C72.2598505,7.60500333 72.9344707,8.48699451 73.3302537,9.585 L73.3302537,6.129 L76.4065522,6.129 L76.4065522,21.006 L73.3302537,21.006 L73.3302537,17.55 C72.9344707,18.6480055 72.2598505,19.5299967 71.3063731,20.196 C70.3528957,20.8620033 69.2015441,21.195 67.8522836,21.195 C66.5569935,21.195 65.4011444,20.8890031 64.3847015,20.277 C63.3682586,19.6649969 62.5722069,18.7830058 61.9965224,17.631 C61.4208379,16.4789942 61.133,15.1200078 61.133,13.554 C61.133,12.0059923 61.4208379,10.6560058 61.9965224,9.504 C62.5722069,8.35199424 63.3682586,7.47000306 64.3847015,6.858 C65.4011444,6.24599694 66.5569935,5.94 67.8522836,5.94 C69.2015441,5.94 70.3528957,6.27299667 71.3063731,6.939 Z M65.5180746,9.9495 C64.6995233,10.8225044 64.2902537,12.0239923 64.2902537,13.554 C64.2902537,15.0840077 64.6995233,16.2854956 65.5180746,17.1585 C66.336626,18.0315044 67.4295106,18.468 68.7967612,18.468 C69.6602879,18.468 70.4338523,18.265502 71.1174776,17.8605 C71.8011029,17.455498 72.340799,16.8840037 72.7365821,16.146 C73.1323652,15.4079963 73.3302537,14.5440049 73.3302537,13.554 C73.3302537,12.5819951 73.1323652,11.7225037 72.7365821,10.9755 C72.340799,10.2284963 71.8011029,9.65250202 71.1174776,9.2475 C70.4338523,8.84249798 69.6602879,8.64 68.7967612,8.64 C67.4295106,8.64 66.336626,9.07649563 65.5180746,9.9495 Z M82.2247873,0.513 C82.5845901,0.17099829 83.0613217,0 83.6549963,0 C84.2486709,0 84.7298999,0.17099829 85.0986978,0.513 C85.4674956,0.85500171 85.6518918,1.28699739 85.6518918,1.809 C85.6518918,2.33100261 85.4674956,2.75399838 85.0986978,3.078 C84.7298999,3.40200162 84.2486709,3.564 83.6549963,3.564 C83.0613217,3.564 82.5845901,3.40200162 82.2247873,3.078 C81.8649845,2.75399838 81.6850858,2.33100261 81.6850858,1.809 C81.6850858,1.28699739 81.8649845,0.85500171 82.2247873,0.513 Z M85.1931455,6.129 L85.1931455,21.006 L82.116847,21.006 L82.116847,6.129 L85.1931455,6.129 Z M103.39753,7.56 C104.440958,8.67600558 104.962664,10.2689897 104.962664,12.339 L104.962664,21.006 L101.886366,21.006 L101.886366,12.663 C101.886366,11.3309933 101.544558,10.3005036 100.860933,9.5715 C100.177308,8.84249635 99.2418343,8.478 98.0544851,8.478 C96.8311556,8.478 95.8507077,8.86949608 95.1131119,9.6525 C94.3755162,10.4355039 94.0067239,11.5829924 94.0067239,13.095 L94.0067239,21.006 L90.9304254,21.006 L90.9304254,6.129 L94.0067239,6.129 L94.0067239,9.396 C94.402507,8.27999442 95.0681321,7.41600306 96.0036194,6.804 C96.9391067,6.19199694 98.0184989,5.886 99.2418284,5.886 C100.968882,5.886 102.354102,6.44399442 103.39753,7.56 Z" id="ingrain"></path>
                <ellipse id="Oval-5" cx="110.686567" cy="19.6875" rx="1.68656716" ry="1.6875"></ellipse>
            </g>
        </g>
        <text id="menu1" font-family="Avenir-Heavy, Avenir" font-size="18" font-weight="600" line-spacing="24" letter-spacing="0.342" fill="#62474F">
            <tspan x="64" y="394">Try our free app</tspan>
        </text>
        <g id="Group-2" transform="translate(88.000000, 432.000000)" fill="#62474F">
            <path d="M8.41360472,28 C3.52506632,26.3714507 0,21.7546706 0,16.3136532 C0,9.51301032 5.50689758,4 12.3,4 C19.0931024,4 24.6,9.51301032 24.6,16.3136532 C24.6,21.7546706 21.0749337,26.3714508 16.1863953,28 C16.0633681,27.2301161 15.7175725,26.5346873 15.2172661,25.982047 C19.3652088,24.7294037 22.386,20.8746918 22.386,16.3136532 L2.214,16.3136532 C2.214,20.8746918 5.23479123,24.7294037 9.38273426,25.9820466 C8.88242762,26.5346873 8.53663196,27.2301161 8.41360472,28 Z M13.1045198,15.7595388 L18.467601,15.7595388 L19.800236,13.8914878 C20.3040685,13.1852293 20.1804052,12.2098025 19.5163093,11.6519414 L19.3853023,11.5418914 C18.7212064,10.9840303 17.7401897,11.0314916 17.1329217,11.6508609 L13.1045198,15.7595388 Z" id="Combined-Shape"></path>
            <g id="logotype" transform="translate(33.000000, 0.000000)">
                <path d="M1.16735434,9.356 C1.38057081,9.15333232 1.6630784,9.052 2.01488557,9.052 C2.36669275,9.052 2.6518655,9.15333232 2.87041238,9.356 C3.08895926,9.55866768 3.19823107,9.81466512 3.19823107,10.124 C3.19823107,10.4333349 3.08895926,10.683999 2.87041238,10.876 C2.6518655,11.068001 2.36669275,11.164 2.01488557,11.164 C1.6630784,11.164 1.38057081,11.068001 1.16735434,10.876 C0.954137869,10.683999 0.847531233,10.4333349 0.847531233,10.124 C0.847531233,9.81466512 0.954137869,9.55866768 1.16735434,9.356 Z M2.92638143,12.684 L2.92638143,21.5 L1.10338972,21.5 L1.10338972,12.684 L2.92638143,12.684 Z M13.7141647,13.532 C14.3324925,14.1933366 14.6416517,15.1373272 14.6416517,16.364 L14.6416517,21.5 L12.81866,21.5 L12.81866,16.556 C12.81866,15.7666627 12.6161074,15.1560022 12.2109961,14.724 C11.8058848,14.2919978 11.2515303,14.076 10.547916,14.076 C9.82297998,14.076 9.24197381,14.3079977 8.80488004,14.772 C8.36778628,15.2360023 8.14924268,15.9159955 8.14924268,16.812 L8.14924268,21.5 L6.32625097,21.5 L6.32625097,12.684 L8.14924268,12.684 L8.14924268,14.62 C8.38378079,13.9586634 8.77822535,13.4466685 9.33258817,13.084 C9.88695099,12.7213315 10.5265908,12.54 11.2515268,12.54 C12.2749659,12.54 13.095837,12.8706634 13.7141647,13.532 Z M23.5424787,13.164 C24.1075024,13.5586686 24.5072773,14.0813301 24.7418154,14.732 L24.7418154,12.684 L26.5648071,12.684 L26.5648071,21.596 C26.5648071,22.4173374 26.3969016,23.1453302 26.0610857,23.78 C25.7252697,24.4146698 25.2428747,24.9133315 24.6138861,25.276 C23.9848975,25.6386685 23.2386511,25.82 22.3751244,25.82 C21.1384688,25.82 20.1390316,25.5266696 19.3767828,24.94 C18.6145339,24.3533304 18.1374692,23.5586717 17.9455744,22.556 L19.7525749,22.556 C19.9018264,23.0786693 20.1896644,23.4866652 20.6160973,23.78 C21.0425302,24.0733348 21.5862241,24.22 22.2471951,24.22 C22.9721311,24.22 23.5691283,23.9960022 24.0382045,23.548 C24.5072808,23.0999978 24.7418154,22.4493376 24.7418154,21.596 L24.7418154,19.452 C24.5072773,20.1026699 24.1075024,20.6253314 23.5424787,21.02 C22.9774551,21.4146686 22.2951726,21.612 21.4956108,21.612 C20.7280315,21.612 20.0430839,21.4306685 19.4407474,21.068 C18.8384108,20.7053315 18.3666765,20.1826701 18.0255301,19.5 C17.6843838,18.8173299 17.5138132,18.0120046 17.5138132,17.084 C17.5138132,16.1666621 17.6843838,15.3666701 18.0255301,14.684 C18.3666765,14.0013299 18.8384108,13.4786685 19.4407474,13.116 C20.0430839,12.7533315 20.7280315,12.572 21.4956108,12.572 C22.2951726,12.572 22.9774551,12.7693314 23.5424787,13.164 Z M20.1123759,14.948 C19.6273084,15.4653359 19.3847783,16.1773288 19.3847783,17.084 C19.3847783,17.9906712 19.6273084,18.7026641 20.1123759,19.22 C20.5974434,19.7373359 21.2450787,19.996 22.0553013,19.996 C22.5670208,19.996 23.0254293,19.8760012 23.4305406,19.636 C23.8356519,19.3959988 24.1554718,19.0573355 24.39001,18.62 C24.6245481,18.1826645 24.7418154,17.6706696 24.7418154,17.084 C24.7418154,16.5079971 24.6245481,15.9986689 24.39001,15.556 C24.1554718,15.1133311 23.8356519,14.7720012 23.4305406,14.532 C23.0254293,14.2919988 22.5670208,14.172 22.0553013,14.172 C21.2450787,14.172 20.5974434,14.4306641 20.1123759,14.948 Z M33.0509696,13.044 C33.6053324,12.7079983 34.2449722,12.54 34.9699082,12.54 L34.9699082,14.524 L34.426209,14.524 C33.6266472,14.524 32.9843422,14.7186647 32.4992747,15.108 C32.0142073,15.4973353 31.7716772,16.1399955 31.7716772,17.036 L31.7716772,21.5 L29.9486855,21.5 L29.9486855,12.684 L31.7716772,12.684 L31.7716772,14.412 C32.0701802,13.8359971 32.4966068,13.3800017 33.0509696,13.044 Z M43.1031598,13.164 C43.6681834,13.5586686 44.0679583,14.0813301 44.3024964,14.732 L44.3024964,12.684 L46.1254881,12.684 L46.1254881,21.5 L44.3024964,21.5 L44.3024964,19.452 C44.0679583,20.1026699 43.6681834,20.6253314 43.1031598,21.02 C42.5381361,21.4146686 41.8558536,21.612 41.0562919,21.612 C40.2887126,21.612 39.6037649,21.4306685 39.0014284,21.068 C38.3990919,20.7053315 37.9273575,20.1826701 37.5862112,19.5 C37.2450648,18.8173299 37.0744942,18.0120046 37.0744942,17.084 C37.0744942,16.1666621 37.2450648,15.3666701 37.5862112,14.684 C37.9273575,14.0013299 38.3990919,13.4786685 39.0014284,13.116 C39.6037649,12.7533315 40.2887126,12.572 41.0562919,12.572 C41.8558536,12.572 42.5381361,12.7693314 43.1031598,13.164 Z M39.6730569,14.948 C39.1879895,15.4653359 38.9454594,16.1773288 38.9454594,17.084 C38.9454594,17.9906712 39.1879895,18.7026641 39.6730569,19.22 C40.1581244,19.7373359 40.8057597,19.996 41.6159823,19.996 C42.1277018,19.996 42.5861104,19.8760012 42.9912217,19.636 C43.396333,19.3959988 43.7161529,19.0573355 43.950691,18.62 C44.1852291,18.1826645 44.3024964,17.6706696 44.3024964,17.084 C44.3024964,16.5079971 44.1852291,15.9986689 43.950691,15.556 C43.7161529,15.1133311 43.396333,14.7720012 42.9912217,14.532 C42.5861104,14.2919988 42.1277018,14.172 41.6159823,14.172 C40.8057597,14.172 40.1581244,14.4306641 39.6730569,14.948 Z M49.5733311,9.356 C49.7865476,9.15333232 50.0690552,9.052 50.4208624,9.052 C50.7726695,9.052 51.0578423,9.15333232 51.2763892,9.356 C51.494936,9.55866768 51.6042078,9.81466512 51.6042078,10.124 C51.6042078,10.4333349 51.494936,10.683999 51.2763892,10.876 C51.0578423,11.068001 50.7726695,11.164 50.4208624,11.164 C50.0690552,11.164 49.7865476,11.068001 49.5733311,10.876 C49.3601147,10.683999 49.253508,10.4333349 49.253508,10.124 C49.253508,9.81466512 49.3601147,9.55866768 49.5733311,9.356 Z M51.3323582,12.684 L51.3323582,21.5 L49.5093665,21.5 L49.5093665,12.684 L51.3323582,12.684 Z M62.1201415,13.532 C62.7384693,14.1933366 63.0476285,15.1373272 63.0476285,16.364 L63.0476285,21.5 L61.2246368,21.5 L61.2246368,16.556 C61.2246368,15.7666627 61.0220842,15.1560022 60.6169729,14.724 C60.2118616,14.2919978 59.6575071,14.076 58.9538928,14.076 C58.2289568,14.076 57.6479506,14.3079977 57.2108568,14.772 C56.7737631,15.2360023 56.5552195,15.9159955 56.5552195,16.812 L56.5552195,21.5 L54.7322278,21.5 L54.7322278,12.684 L56.5552195,12.684 L56.5552195,14.62 C56.7897576,13.9586634 57.1842021,13.4466685 57.738565,13.084 C58.2929278,12.7213315 58.9325676,12.54 59.6575036,12.54 C60.6809427,12.54 61.5018138,12.8706634 62.1201415,13.532 Z" id="ingrain"></path>
                <ellipse id="Oval-5" cx="65.9635158" cy="20.5" rx="1" ry="1"></ellipse>
            </g>
        </g>
        <text id="cta-text-/on-dark" font-family="Avenir-Heavy, Avenir" font-size="12" font-weight="600" letter-spacing="0.579999983" fill="#62474F">
            <tspan x="76" y="492">Try our free app</tspan>
        </text>
        <g id="Group-2" transform="translate(48.000000, 48.000000)">
            <path d="M61.5629613,175.5 C25.7931682,163.591234 0,129.831029 0,90.0435889 C0,40.3138879 40.2943725,0 90,0 C139.705627,0 180,40.3138879 180,90.0435889 C180,129.831029 154.206832,163.591234 118.437039,175.5 C117.536839,169.870224 115.006628,164.784901 111.34585,160.743719 C141.69665,151.583765 163.8,123.396184 163.8,90.0435889 L16.2,90.0435889 C16.2,123.396184 38.3033505,151.583765 68.6541531,160.743716 C64.9933728,164.784901 62.4631607,169.870224 61.5629613,175.5 Z M95.8867304,85.9916274 L135.128788,85.9916274 L144.879776,72.3315043 C148.566355,67.1669892 147.661501,60.0341811 142.802263,55.9548213 L141.843675,55.150081 C136.984437,51.0707213 129.806266,51.417782 125.362842,55.9469206 L95.8867304,85.9916274 Z" id="Combined-Shape" fill="#62474F"></path>
            <g id="Group-4" transform="translate(27.750000, 191.250000)" fill="#605256">
                <path d="M2.19,12.48 C2.590002,12.0999981 3.1199967,11.91 3.78,11.91 C4.4400033,11.91 4.97499795,12.0999981 5.385,12.48 C5.79500205,12.8600019 6,13.3399971 6,13.92 C6,14.5000029 5.79500205,14.9699982 5.385,15.33 C4.97499795,15.6900018 4.4400033,15.87 3.78,15.87 C3.1199967,15.87 2.590002,15.6900018 2.19,15.33 C1.789998,14.9699982 1.59,14.5000029 1.59,13.92 C1.59,13.3399971 1.789998,12.8600019 2.19,12.48 Z M5.49,18.72 L5.49,35.25 L2.07,35.25 L2.07,18.72 L5.49,18.72 Z M25.280625,20.31 C26.4406308,21.5500062 27.020625,23.3199885 27.020625,25.62 L27.020625,35.25 L23.600625,35.25 L23.600625,25.98 C23.600625,24.4999926 23.2206288,23.3550041 22.460625,22.545 C21.7006212,21.7349959 20.6606316,21.33 19.340625,21.33 C17.9806182,21.33 16.8906291,21.7649956 16.070625,22.635 C15.2506209,23.5050044 14.840625,24.7799916 14.840625,26.46 L14.840625,35.25 L11.420625,35.25 L11.420625,18.72 L14.840625,18.72 L14.840625,22.35 C15.2806272,21.1099938 16.0206198,20.1500034 17.060625,19.47 C18.1006302,18.7899966 19.3006182,18.45 20.660625,18.45 C22.5806346,18.45 24.1206192,19.0699938 25.280625,20.31 Z M43.27125,19.62 C44.3312553,20.3600037 45.0812478,21.3399939 45.52125,22.56 L45.52125,18.72 L48.94125,18.72 L48.94125,35.43 C48.94125,36.9700077 48.6262532,38.3349941 47.99625,39.525 C47.3662469,40.715006 46.4612559,41.6499966 45.28125,42.33 C44.1012441,43.0100034 42.7012581,43.35 41.08125,43.35 C38.7612384,43.35 36.8862572,42.8000055 35.45625,41.7 C34.0262428,40.5999945 33.1312518,39.1100094 32.77125,37.23 L36.16125,37.23 C36.4412514,38.2100049 36.981246,38.9749973 37.78125,39.525 C38.581254,40.0750028 39.6012438,40.35 40.84125,40.35 C42.2012568,40.35 43.3212456,39.9300042 44.20125,39.09 C45.0812544,38.2499958 45.52125,37.030008 45.52125,35.43 L45.52125,31.41 C45.0812478,32.6300061 44.3312553,33.6099963 43.27125,34.35 C42.2112447,35.0900037 40.9312575,35.46 39.43125,35.46 C37.9912428,35.46 36.7062557,35.1200034 35.57625,34.44 C34.4462444,33.7599966 33.5612532,32.7800064 32.92125,31.5 C32.2812468,30.2199936 31.96125,28.7100087 31.96125,26.97 C31.96125,25.2499914 32.2812468,23.7500064 32.92125,22.47 C33.5612532,21.1899936 34.4462444,20.2100034 35.57625,19.53 C36.7062557,18.8499966 37.9912428,18.51 39.43125,18.51 C40.9312575,18.51 42.2112447,18.8799963 43.27125,19.62 Z M36.83625,22.965 C35.9262454,23.9350049 35.47125,25.2699915 35.47125,26.97 C35.47125,28.6700085 35.9262454,30.0049951 36.83625,30.975 C37.7462545,31.9450048 38.9612424,32.43 40.48125,32.43 C41.4412548,32.43 42.3012462,32.2050023 43.06125,31.755 C43.8212538,31.3049978 44.4212478,30.6700041 44.86125,29.85 C45.3012522,29.0299959 45.52125,28.0700055 45.52125,26.97 C45.52125,25.8899946 45.3012522,24.9350042 44.86125,24.105 C44.4212478,23.2749959 43.8212538,22.6350022 43.06125,22.185 C42.3012462,21.7349977 41.4412548,21.51 40.48125,21.51 C38.9612424,21.51 37.7462545,21.9949952 36.83625,22.965 Z M60.661875,19.395 C61.7018802,18.7649968 62.9018682,18.45 64.261875,18.45 L64.261875,22.17 L63.241875,22.17 C61.7418675,22.17 60.5368795,22.5349964 59.626875,23.265 C58.7168705,23.9950037 58.261875,25.1999916 58.261875,26.88 L58.261875,35.25 L54.841875,35.25 L54.841875,18.72 L58.261875,18.72 L58.261875,21.96 C58.8218778,20.8799946 59.6218698,20.0250032 60.661875,19.395 Z M79.0725,19.62 C80.1325053,20.3600037 80.8824978,21.3399939 81.3225,22.56 L81.3225,18.72 L84.7425,18.72 L84.7425,35.25 L81.3225,35.25 L81.3225,31.41 C80.8824978,32.6300061 80.1325053,33.6099963 79.0725,34.35 C78.0124947,35.0900037 76.7325075,35.46 75.2325,35.46 C73.7924928,35.46 72.5075056,35.1200034 71.3775,34.44 C70.2474943,33.7599966 69.3625032,32.7800064 68.7225,31.5 C68.0824968,30.2199936 67.7625,28.7100087 67.7625,26.97 C67.7625,25.2499914 68.0824968,23.7500064 68.7225,22.47 C69.3625032,21.1899936 70.2474943,20.2100034 71.3775,19.53 C72.5075056,18.8499966 73.7924928,18.51 75.2325,18.51 C76.7325075,18.51 78.0124947,18.8799963 79.0725,19.62 Z M72.6375,22.965 C71.7274955,23.9350049 71.2725,25.2699915 71.2725,26.97 C71.2725,28.6700085 71.7274955,30.0049951 72.6375,30.975 C73.5475045,31.9450048 74.7624924,32.43 76.2825,32.43 C77.2425048,32.43 78.1024962,32.2050023 78.8625,31.755 C79.6225038,31.3049978 80.2224978,30.6700041 80.6625,29.85 C81.1025022,29.0299959 81.3225,28.0700055 81.3225,26.97 C81.3225,25.8899946 81.1025022,24.9350042 80.6625,24.105 C80.2224978,23.2749959 79.6225038,22.6350022 78.8625,22.185 C78.1024962,21.7349977 77.2425048,21.51 76.2825,21.51 C74.7624924,21.51 73.5475045,21.9949952 72.6375,22.965 Z M90.763125,12.48 C91.163127,12.0999981 91.6931217,11.91 92.353125,11.91 C93.0131283,11.91 93.5481229,12.0999981 93.958125,12.48 C94.368127,12.8600019 94.573125,13.3399971 94.573125,13.92 C94.573125,14.5000029 94.368127,14.9699982 93.958125,15.33 C93.5481229,15.6900018 93.0131283,15.87 92.353125,15.87 C91.6931217,15.87 91.163127,15.6900018 90.763125,15.33 C90.363123,14.9699982 90.163125,14.5000029 90.163125,13.92 C90.163125,13.3399971 90.363123,12.8600019 90.763125,12.48 Z M94.063125,18.72 L94.063125,35.25 L90.643125,35.25 L90.643125,18.72 L94.063125,18.72 Z M113.85375,20.31 C115.013756,21.5500062 115.59375,23.3199885 115.59375,25.62 L115.59375,35.25 L112.17375,35.25 L112.17375,25.98 C112.17375,24.4999926 111.793754,23.3550041 111.03375,22.545 C110.273746,21.7349959 109.233757,21.33 107.91375,21.33 C106.553743,21.33 105.463754,21.7649956 104.64375,22.635 C103.823746,23.5050044 103.41375,24.7799916 103.41375,26.46 L103.41375,35.25 L99.99375,35.25 L99.99375,18.72 L103.41375,18.72 L103.41375,22.35 C103.853752,21.1099938 104.593745,20.1500034 105.63375,19.47 C106.673755,18.7899966 107.873743,18.45 109.23375,18.45 C111.15376,18.45 112.693744,19.0699938 113.85375,20.31 Z" id="ingrain"></path>
                <circle id="Oval-5" cx="121.5" cy="33" r="2.25"></circle>
            </g>
        </g>
        <g id="Group-3" transform="translate(284.000000, 48.000000)">
            <text id="head" font-family="Avenir-Heavy, Avenir" font-size="34" font-weight="600" line-spacing="48" letter-spacing="0.409999996" fill="#333333">
                <tspan x="0" y="34">This is header 1</tspan>
            </text>
            <text id="This-is-large-body-t" font-family="Avenir-Medium, Avenir" font-size="20" font-weight="400" line-spacing="30" letter-spacing="0.379999995" fill="#333333">
                <tspan x="0" y="156">This is large body text take a </tspan>
                <tspan x="0" y="186">few minutes to answer some </tspan>
                <tspan x="0" y="216">questions about your food </tspan>
                <tspan x="0" y="246">preferences </tspan>
            </text>
            <text id="This-is-header-2" font-family="Avenir-Heavy, Avenir" font-size="28" font-weight="600" line-spacing="34" letter-spacing="0.560000002" fill="#333333">
                <tspan x="0" y="100">This is header 2</tspan>
            </text>
            <g id="Group-5" transform="translate(0.000000, 376.000000)" fill="#333333">
                <text id="This-is-link-style-1" font-family="HindMadurai-Regular, Hind Madurai" font-size="15" font-weight="normal" line-spacing="22" letter-spacing="-0.3617647">
                    <tspan x="0" y="15">This is link style 1</tspan>
                </text>
                <rect id="Rectangle" x="0" y="21" width="100" height="1"></rect>
            </g>
            <text id="person-2" font-family="HindMadurai-Regular, Hind Madurai" font-size="17" font-weight="normal" letter-spacing="-0.409999996" fill="#333333">
                <tspan x="0" y="297">This is medium body text </tspan>
                <tspan x="176.07" y="297" font-family="HindMadurai-SemiBold, Hind Madurai" font-weight="500"></tspan>
            </text>
            <g id="Group-5" transform="translate(0.000000, 424.000000)" fill="#62474F">
                <text id="This-is-a-link-Learn" font-family="HindMadurai-Regular, Hind Madurai" font-size="17" font-weight="normal" line-spacing="22" letter-spacing="-0.409999996">
                    <tspan x="0" y="17">This is a link Learn More</tspan>
                </text>
                <rect id="Rectangle" x="0" y="22" width="164" height="1"></rect>
            </g>
            <text id="head" font-family="Avenir-Light, Avenir" font-size="15" font-weight="300" line-spacing="24" letter-spacing="0.285" fill="#000000">
                <tspan x="0" y="343">This is small body text</tspan>
            </text>
        </g>
    </g>
</svg>