<svg width="51" height="24" viewBox="0 0 51 24" fill="none" xmlns="http://www.w3.org/2000/svg">
<path d="M25.7861 0.511353C31.6154 0.776559 36.3223 5.65617 36.5626 11.7643L36.5718 11.9982V23.5H25.7861V12.2553V0.511353Z" stroke="#BDBDBD"/>
<path d="M13 12C13 5.90626 17.7611 0.91615 23.7857 0.522134V23.5H13V12Z" stroke="#BDBDBD"/>
<path d="M49.5626 11.7643L49.5718 11.9982V23.4886C43.7426 23.2234 39.0357 18.3438 38.7953 12.2357L38.7861 12.0018V0.511353C44.6154 0.776559 49.3223 5.65617 49.5626 11.7643Z" stroke="#DA9218"/>
<path d="M26 12C26 5.90626 30.7611 0.91615 36.7857 0.522134V23.4779C30.7611 23.0838 26 18.0937 26 12Z" stroke="#DA9218"/>
<path d="M13.0068 0.51126C18.862 0.775463 23.5873 5.65716 23.8286 11.7644L23.8378 11.9983V23.4887C17.9826 23.2245 13.2573 18.3428 13.0161 12.2356L13.0068 12.0017V0.51126Z" stroke="#828282"/>
<path d="M0.509698 11.7443L0.510108 12.2447H0.500069V23.5H11.3311V12.2553V0.5H0.500479L0.509698 11.7443Z" stroke="#828282"/>
</svg>
