<svg width="51" height="24" viewBox="0 0 51 24" fill="none" xmlns="http://www.w3.org/2000/svg">
<path d="M36.5626 11.7643L36.5718 11.9982V23.5H25.7861V12.2553V0.511353C31.6154 0.776559 36.3223 5.65617 36.5626 11.7643Z" stroke="#BDBDBD"/>
<path d="M13 12C13 5.90626 17.7611 0.91615 23.7857 0.522134V23.5H13V12Z" stroke="#BDBDBD"/>
<path d="M38.2861 0C44.6307 0 49.8052 5.21307 50.0623 11.7447H50.0718V24C43.7272 24 38.5528 18.7869 38.2957 12.2553H38.2861V0Z" fill="#DA9218"/>
<path d="M37.2857 0C30.7523 0.14251 25.5 5.46053 25.5 12C25.5 18.5395 30.7523 23.8575 37.2857 24V0Z" fill="#DA9218"/>
<path d="M23.8286 11.7644L23.8378 11.9983V23.4887C17.9826 23.2245 13.2573 18.3428 13.0161 12.2356L13.0068 12.0017V0.51126C18.862 0.775463 23.5873 5.65716 23.8286 11.7644Z" stroke="#828282"/>
<path d="M0.500069 12.2447V23.5H11.3311V12.2553V0.5H0.500479L0.509698 11.7443L0.510108 12.2447H0.500069Z" stroke="#828282"/>
</svg>
