<svg width="1920" height="1080" viewBox="0 0 1920 1080" fill="none" xmlns="http://www.w3.org/2000/svg">
<g clip-path="url(#clip0_15105_9)">
<rect width="1920" height="1080" fill="#3D2B2F"/>
<path d="M293.984 447.688C293.984 456.328 292.436 463.564 289.34 469.396C286.316 475.228 281.816 479.62 275.84 482.572C269.936 485.524 262.592 487 253.808 487H234.8V409.888H256.184C264.32 409.888 271.196 411.328 276.812 414.208C282.428 417.088 286.676 421.336 289.556 426.952C292.508 432.568 293.984 439.48 293.984 447.688ZM287.504 447.904C287.504 440.632 286.316 434.62 283.94 429.868C281.564 425.044 277.964 421.444 273.14 419.068C268.316 416.62 262.268 415.396 254.996 415.396H241.064V481.492H253.376C264.824 481.492 273.356 478.72 278.972 473.176C284.66 467.56 287.504 459.136 287.504 447.904ZM331.993 428.464C336.961 428.464 341.065 429.616 344.305 431.92C347.617 434.152 350.101 437.248 351.757 441.208C353.485 445.168 354.349 449.74 354.349 454.924V459.028H313.309C313.309 466.732 315.073 472.6 318.601 476.632C322.201 480.664 327.277 482.68 333.829 482.68C337.429 482.68 340.561 482.392 343.225 481.816C345.889 481.24 348.805 480.232 351.973 478.792V484.408C349.093 485.704 346.249 486.64 343.441 487.216C340.633 487.792 337.357 488.08 333.613 488.08C327.925 488.08 323.065 486.892 319.033 484.516C315.073 482.14 312.049 478.756 309.961 474.364C307.945 469.9 306.937 464.716 306.937 458.812C306.937 452.908 307.909 447.688 309.853 443.152C311.797 438.616 314.641 435.052 318.385 432.46C322.129 429.796 326.665 428.464 331.993 428.464ZM331.993 433.648C326.665 433.648 322.381 435.412 319.141 438.94C315.901 442.396 313.993 447.4 313.417 453.952H347.977C347.977 449.92 347.401 446.392 346.249 443.368C345.097 440.344 343.333 437.968 340.957 436.24C338.653 434.512 335.665 433.648 331.993 433.648ZM405.947 471.772C405.947 475.228 405.083 478.18 403.355 480.628C401.627 483.076 399.107 484.948 395.795 486.244C392.483 487.468 388.451 488.08 383.699 488.08C379.739 488.08 376.211 487.72 373.115 487C370.019 486.28 367.391 485.416 365.231 484.408V478.468C367.823 479.764 370.739 480.844 373.979 481.708C377.219 482.5 380.495 482.896 383.807 482.896C389.567 482.896 393.707 481.96 396.227 480.088C398.747 478.144 400.007 475.516 400.007 472.204C400.007 470.044 399.395 468.28 398.171 466.912C397.019 465.472 395.255 464.212 392.879 463.132C390.575 461.98 387.695 460.828 384.239 459.676C380.711 458.452 377.579 457.228 374.843 456.004C372.107 454.708 369.983 453.088 368.471 451.144C366.959 449.2 366.203 446.536 366.203 443.152C366.203 438.544 368.075 434.944 371.819 432.352C375.563 429.76 380.567 428.464 386.831 428.464C390.287 428.464 393.491 428.788 396.443 429.436C399.467 430.084 402.203 430.948 404.651 432.028L402.491 437.104C401.051 436.456 399.431 435.88 397.631 435.376C395.831 434.8 393.995 434.368 392.123 434.08C390.251 433.792 388.379 433.648 386.507 433.648C381.971 433.648 378.443 434.44 375.923 436.024C373.403 437.608 372.143 439.912 372.143 442.936C372.143 445.24 372.719 447.076 373.871 448.444C375.095 449.74 376.859 450.856 379.163 451.792C381.539 452.728 384.383 453.808 387.695 455.032C391.079 456.184 394.139 457.408 396.875 458.704C399.683 460 401.879 461.656 403.463 463.672C405.119 465.688 405.947 468.388 405.947 471.772ZM426.443 429.544V487H420.395V429.544H426.443ZM423.419 408.268C424.787 408.268 425.831 408.7 426.551 409.564C427.271 410.356 427.631 411.472 427.631 412.912C427.631 414.424 427.271 415.612 426.551 416.476C425.831 417.268 424.787 417.664 423.419 417.664C422.123 417.664 421.115 417.268 420.395 416.476C419.675 415.612 419.315 414.424 419.315 412.912C419.315 411.472 419.675 410.356 420.395 409.564C421.115 408.7 422.123 408.268 423.419 408.268ZM466.556 428.464C471.092 428.464 474.836 429.364 477.788 431.164C480.74 432.892 483.116 435.268 484.916 438.292H485.348L486.212 429.544H491.18V488.836C491.18 493.876 490.316 498.16 488.588 501.688C486.86 505.288 484.16 508.06 480.488 510.004C476.888 511.948 472.172 512.92 466.34 512.92C462.092 512.92 458.276 512.56 454.892 511.84C451.58 511.12 448.592 510.184 445.928 509.032V503.092C447.728 503.956 449.708 504.748 451.868 505.468C454.028 506.188 456.332 506.728 458.78 507.088C461.3 507.448 463.928 507.628 466.664 507.628C473 507.628 477.644 505.972 480.596 502.66C483.62 499.348 485.132 494.884 485.132 489.268V485.812C485.132 484.3 485.132 482.788 485.132 481.276C485.204 479.692 485.276 478.216 485.348 476.848H485.024C483.368 480.52 480.92 483.328 477.68 485.272C474.44 487.144 470.48 488.08 465.8 488.08C458.384 488.08 452.588 485.56 448.412 480.52C444.236 475.48 442.148 468.244 442.148 458.812C442.148 452.548 443.084 447.148 444.956 442.612C446.828 438.076 449.564 434.584 453.164 432.136C456.836 429.688 461.3 428.464 466.556 428.464ZM467.204 433.756C463.028 433.756 459.536 434.764 456.728 436.78C453.992 438.724 451.94 441.568 450.572 445.312C449.204 448.984 448.52 453.484 448.52 458.812C448.52 466.66 450.068 472.636 453.164 476.74C456.26 480.844 460.688 482.896 466.448 482.896C470.12 482.896 473.144 482.356 475.52 481.276C477.896 480.124 479.768 478.54 481.136 476.524C482.576 474.508 483.584 472.132 484.16 469.396C484.808 466.588 485.132 463.6 485.132 460.432V456.652C485.132 451.756 484.556 447.616 483.404 444.232C482.252 440.848 480.344 438.256 477.68 436.456C475.088 434.656 471.596 433.756 467.204 433.756ZM535.853 428.464C542.405 428.464 547.409 430.156 550.865 433.54C554.321 436.924 556.049 442.252 556.049 449.524V487H550.001V449.848C550.001 444.304 548.741 440.236 546.221 437.644C543.701 435.052 539.993 433.756 535.097 433.756C528.833 433.756 524.117 435.592 520.949 439.264C517.781 442.936 516.197 448.408 516.197 455.68V487H510.149V429.544H515.009L515.981 439.48H516.305C517.385 437.392 518.825 435.52 520.625 433.864C522.425 432.208 524.585 430.912 527.105 429.976C529.697 428.968 532.613 428.464 535.853 428.464ZM580.427 429.544V487H574.379V429.544H580.427ZM577.403 408.268C578.771 408.268 579.815 408.7 580.535 409.564C581.255 410.356 581.615 411.472 581.615 412.912C581.615 414.424 581.255 415.612 580.535 416.476C579.815 417.268 578.771 417.664 577.403 417.664C576.107 417.664 575.099 417.268 574.379 416.476C573.659 415.612 573.299 414.424 573.299 412.912C573.299 411.472 573.659 410.356 574.379 409.564C575.099 408.7 576.107 408.268 577.403 408.268ZM625.185 428.464C631.737 428.464 636.741 430.156 640.197 433.54C643.653 436.924 645.381 442.252 645.381 449.524V487H639.333V449.848C639.333 444.304 638.073 440.236 635.553 437.644C633.033 435.052 629.325 433.756 624.429 433.756C618.165 433.756 613.449 435.592 610.281 439.264C607.113 442.936 605.529 448.408 605.529 455.68V487H599.481V429.544H604.341L605.313 439.48H605.637C606.717 437.392 608.157 435.52 609.957 433.864C611.757 432.208 613.917 430.912 616.437 429.976C619.029 428.968 621.945 428.464 625.185 428.464ZM684.771 428.464C689.307 428.464 693.051 429.364 696.003 431.164C698.955 432.892 701.331 435.268 703.131 438.292H703.563L704.427 429.544H709.395V488.836C709.395 493.876 708.531 498.16 706.803 501.688C705.075 505.288 702.375 508.06 698.703 510.004C695.103 511.948 690.387 512.92 684.555 512.92C680.307 512.92 676.491 512.56 673.107 511.84C669.795 511.12 666.807 510.184 664.143 509.032V503.092C665.943 503.956 667.923 504.748 670.083 505.468C672.243 506.188 674.547 506.728 676.995 507.088C679.515 507.448 682.143 507.628 684.879 507.628C691.215 507.628 695.859 505.972 698.811 502.66C701.835 499.348 703.347 494.884 703.347 489.268V485.812C703.347 484.3 703.347 482.788 703.347 481.276C703.419 479.692 703.491 478.216 703.563 476.848H703.239C701.583 480.52 699.135 483.328 695.895 485.272C692.655 487.144 688.695 488.08 684.015 488.08C676.599 488.08 670.803 485.56 666.627 480.52C662.451 475.48 660.363 468.244 660.363 458.812C660.363 452.548 661.299 447.148 663.171 442.612C665.043 438.076 667.779 434.584 671.379 432.136C675.051 429.688 679.515 428.464 684.771 428.464ZM685.419 433.756C681.243 433.756 677.751 434.764 674.943 436.78C672.207 438.724 670.155 441.568 668.787 445.312C667.419 448.984 666.735 453.484 666.735 458.812C666.735 466.66 668.283 472.636 671.379 476.74C674.475 480.844 678.903 482.896 684.663 482.896C688.335 482.896 691.359 482.356 693.735 481.276C696.111 480.124 697.983 478.54 699.351 476.524C700.791 474.508 701.799 472.132 702.375 469.396C703.023 466.588 703.347 463.6 703.347 460.432V456.652C703.347 451.756 702.771 447.616 701.619 444.232C700.467 440.848 698.559 438.256 695.895 436.456C693.303 434.656 689.811 433.756 685.419 433.756ZM776.938 409.888C783.13 409.888 788.278 410.608 792.382 412.048C796.486 413.416 799.546 415.648 801.562 418.744C803.65 421.84 804.694 425.944 804.694 431.056C804.694 435.016 803.974 438.4 802.534 441.208C801.094 443.944 799.114 446.212 796.594 448.012C794.146 449.74 791.374 451.072 788.278 452.008L809.446 487H801.994L782.338 453.736H763.978V487H757.714V409.888H776.938ZM776.398 415.396H763.978V448.336H778.558C782.734 448.336 786.298 447.688 789.25 446.392C792.202 445.096 794.434 443.188 795.946 440.668C797.458 438.076 798.214 434.944 798.214 431.272C798.214 427.312 797.422 424.18 795.838 421.876C794.254 419.572 791.842 417.916 788.602 416.908C785.362 415.9 781.294 415.396 776.398 415.396ZM842.778 428.464C847.746 428.464 851.85 429.616 855.09 431.92C858.402 434.152 860.886 437.248 862.542 441.208C864.27 445.168 865.134 449.74 865.134 454.924V459.028H824.094C824.094 466.732 825.858 472.6 829.386 476.632C832.986 480.664 838.062 482.68 844.614 482.68C848.214 482.68 851.346 482.392 854.01 481.816C856.674 481.24 859.59 480.232 862.758 478.792V484.408C859.878 485.704 857.034 486.64 854.226 487.216C851.418 487.792 848.142 488.08 844.398 488.08C838.71 488.08 833.85 486.892 829.818 484.516C825.858 482.14 822.834 478.756 820.746 474.364C818.73 469.9 817.722 464.716 817.722 458.812C817.722 452.908 818.694 447.688 820.638 443.152C822.582 438.616 825.426 435.052 829.17 432.46C832.914 429.796 837.45 428.464 842.778 428.464ZM842.778 433.648C837.45 433.648 833.166 435.412 829.926 438.94C826.686 442.396 824.778 447.4 824.202 453.952H858.762C858.762 449.92 858.186 446.392 857.034 443.368C855.882 440.344 854.118 437.968 851.742 436.24C849.438 434.512 846.45 433.648 842.778 433.648ZM916.732 471.772C916.732 475.228 915.868 478.18 914.14 480.628C912.412 483.076 909.892 484.948 906.58 486.244C903.268 487.468 899.236 488.08 894.484 488.08C890.524 488.08 886.996 487.72 883.9 487C880.804 486.28 878.176 485.416 876.016 484.408V478.468C878.608 479.764 881.524 480.844 884.764 481.708C888.004 482.5 891.28 482.896 894.592 482.896C900.352 482.896 904.492 481.96 907.012 480.088C909.532 478.144 910.792 475.516 910.792 472.204C910.792 470.044 910.18 468.28 908.956 466.912C907.804 465.472 906.04 464.212 903.664 463.132C901.36 461.98 898.48 460.828 895.024 459.676C891.496 458.452 888.364 457.228 885.628 456.004C882.892 454.708 880.768 453.088 879.256 451.144C877.744 449.2 876.988 446.536 876.988 443.152C876.988 438.544 878.86 434.944 882.604 432.352C886.348 429.76 891.352 428.464 897.616 428.464C901.072 428.464 904.276 428.788 907.228 429.436C910.252 430.084 912.988 430.948 915.436 432.028L913.276 437.104C911.836 436.456 910.216 435.88 908.416 435.376C906.616 434.8 904.78 434.368 902.908 434.08C901.036 433.792 899.164 433.648 897.292 433.648C892.756 433.648 889.228 434.44 886.708 436.024C884.188 437.608 882.928 439.912 882.928 442.936C882.928 445.24 883.504 447.076 884.656 448.444C885.88 449.74 887.644 450.856 889.948 451.792C892.324 452.728 895.168 453.808 898.48 455.032C901.864 456.184 904.924 457.408 907.66 458.704C910.468 460 912.664 461.656 914.248 463.672C915.904 465.688 916.732 468.388 916.732 471.772ZM956.884 428.464C964.228 428.464 969.952 430.948 974.056 435.916C978.232 440.884 980.32 448.228 980.32 457.948C980.32 464.428 979.348 469.936 977.404 474.472C975.46 478.936 972.688 482.32 969.088 484.624C965.56 486.928 961.312 488.08 956.344 488.08C952.96 488.08 950.008 487.576 947.488 486.568C944.968 485.56 942.88 484.228 941.224 482.572C939.568 480.916 938.272 479.08 937.336 477.064H936.904C937.048 478.864 937.156 480.844 937.228 483.004C937.3 485.092 937.336 487.036 937.336 488.836V512.488H931.18V429.544H936.256L937.012 440.344H937.336C938.272 438.256 939.604 436.312 941.332 434.512C943.06 432.712 945.184 431.272 947.704 430.192C950.296 429.04 953.356 428.464 956.884 428.464ZM956.02 433.756C951.772 433.756 948.28 434.656 945.544 436.456C942.808 438.256 940.756 440.92 939.388 444.448C938.02 447.904 937.336 452.188 937.336 457.3V458.38C937.336 463.78 937.984 468.316 939.28 471.988C940.648 475.588 942.664 478.288 945.328 480.088C948.064 481.888 951.484 482.788 955.588 482.788C959.62 482.788 962.968 481.816 965.632 479.872C968.368 477.856 970.42 475.012 971.788 471.34C973.228 467.596 973.948 463.132 973.948 457.948C973.948 450.1 972.472 444.124 969.52 440.02C966.568 435.844 962.068 433.756 956.02 433.756ZM1043.89 458.272C1043.89 462.736 1043.32 466.804 1042.16 470.476C1041.08 474.076 1039.43 477.208 1037.2 479.872C1035.04 482.464 1032.34 484.48 1029.1 485.92C1025.86 487.36 1022.15 488.08 1017.97 488.08C1014.01 488.08 1010.45 487.396 1007.28 486.028C1004.18 484.588 1001.52 482.572 999.288 479.98C997.056 477.316 995.364 474.148 994.212 470.476C993.06 466.804 992.484 462.736 992.484 458.272C992.484 452.008 993.492 446.68 995.508 442.288C997.596 437.824 1000.58 434.404 1004.47 432.028C1008.43 429.652 1013.11 428.464 1018.51 428.464C1023.98 428.464 1028.59 429.724 1032.34 432.244C1036.15 434.692 1039.03 438.148 1040.98 442.612C1042.92 447.076 1043.89 452.296 1043.89 458.272ZM998.856 458.272C998.856 463.168 999.54 467.488 1000.91 471.232C1002.28 474.904 1004.4 477.748 1007.28 479.764C1010.16 481.78 1013.76 482.788 1018.08 482.788C1022.54 482.788 1026.22 481.78 1029.1 479.764C1031.98 477.676 1034.1 474.796 1035.47 471.124C1036.84 467.38 1037.52 463.096 1037.52 458.272C1037.52 453.448 1036.87 449.2 1035.58 445.528C1034.28 441.856 1032.23 438.976 1029.42 436.888C1026.61 434.8 1022.94 433.756 1018.4 433.756C1011.85 433.756 1006.96 435.916 1003.72 440.236C1000.48 444.556 998.856 450.568 998.856 458.272ZM1085.24 428.464C1091.79 428.464 1096.8 430.156 1100.25 433.54C1103.71 436.924 1105.44 442.252 1105.44 449.524V487H1099.39V449.848C1099.39 444.304 1098.13 440.236 1095.61 437.644C1093.09 435.052 1089.38 433.756 1084.48 433.756C1078.22 433.756 1073.5 435.592 1070.34 439.264C1067.17 442.936 1065.58 448.408 1065.58 455.68V487H1059.54V429.544H1064.4L1065.37 439.48H1065.69C1066.77 437.392 1068.21 435.52 1070.01 433.864C1071.81 432.208 1073.97 430.912 1076.49 429.976C1079.08 428.968 1082 428.464 1085.24 428.464ZM1159.84 471.772C1159.84 475.228 1158.97 478.18 1157.25 480.628C1155.52 483.076 1153 484.948 1149.69 486.244C1146.37 487.468 1142.34 488.08 1137.59 488.08C1133.63 488.08 1130.1 487.72 1127.01 487C1123.91 486.28 1121.28 485.416 1119.12 484.408V478.468C1121.71 479.764 1124.63 480.844 1127.87 481.708C1131.11 482.5 1134.39 482.896 1137.7 482.896C1143.46 482.896 1147.6 481.96 1150.12 480.088C1152.64 478.144 1153.9 475.516 1153.9 472.204C1153.9 470.044 1153.29 468.28 1152.06 466.912C1150.91 465.472 1149.15 464.212 1146.77 463.132C1144.47 461.98 1141.59 460.828 1138.13 459.676C1134.6 458.452 1131.47 457.228 1128.73 456.004C1126 454.708 1123.87 453.088 1122.36 451.144C1120.85 449.2 1120.09 446.536 1120.09 443.152C1120.09 438.544 1121.97 434.944 1125.71 432.352C1129.45 429.76 1134.46 428.464 1140.72 428.464C1144.18 428.464 1147.38 428.788 1150.33 429.436C1153.36 430.084 1156.09 430.948 1158.54 432.028L1156.38 437.104C1154.94 436.456 1153.32 435.88 1151.52 435.376C1149.72 434.8 1147.89 434.368 1146.01 434.08C1144.14 433.792 1142.27 433.648 1140.4 433.648C1135.86 433.648 1132.33 434.44 1129.81 436.024C1127.29 437.608 1126.03 439.912 1126.03 442.936C1126.03 445.24 1126.61 447.076 1127.76 448.444C1128.99 449.74 1130.75 450.856 1133.05 451.792C1135.43 452.728 1138.27 453.808 1141.59 455.032C1144.97 456.184 1148.03 457.408 1150.77 458.704C1153.57 460 1155.77 461.656 1157.35 463.672C1159.01 465.688 1159.84 468.388 1159.84 471.772ZM1180.33 429.544V487H1174.29V429.544H1180.33ZM1177.31 408.268C1178.68 408.268 1179.72 408.7 1180.44 409.564C1181.16 410.356 1181.52 411.472 1181.52 412.912C1181.52 414.424 1181.16 415.612 1180.44 416.476C1179.72 417.268 1178.68 417.664 1177.31 417.664C1176.01 417.664 1175.01 417.268 1174.29 416.476C1173.57 415.612 1173.21 414.424 1173.21 412.912C1173.21 411.472 1173.57 410.356 1174.29 409.564C1175.01 408.7 1176.01 408.268 1177.31 408.268ZM1205.43 427.6C1205.43 429.688 1205.4 431.92 1205.33 434.296C1205.25 436.6 1205.15 438.508 1205 440.02H1205.43C1206.87 436.708 1209.21 433.972 1212.45 431.812C1215.77 429.58 1219.94 428.464 1224.98 428.464C1232.33 428.464 1238.05 430.984 1242.15 436.024C1246.33 440.992 1248.42 448.372 1248.42 458.164C1248.42 464.212 1247.48 469.468 1245.61 473.932C1243.81 478.396 1241.07 481.888 1237.4 484.408C1233.8 486.856 1229.37 488.08 1224.12 488.08C1219.29 488.08 1215.33 487.072 1212.24 485.056C1209.21 483.04 1206.98 480.592 1205.54 477.712H1205L1203.81 487H1199.28V404.92H1205.43V427.6ZM1224.12 433.756C1219.73 433.756 1216.13 434.692 1213.32 436.564C1210.58 438.436 1208.57 441.172 1207.27 444.772C1206.05 448.372 1205.43 452.836 1205.43 458.164V458.92C1205.43 466.696 1206.8 472.636 1209.54 476.74C1212.35 480.772 1216.95 482.788 1223.36 482.788C1229.55 482.788 1234.2 480.664 1237.29 476.416C1240.46 472.168 1242.05 466.084 1242.05 458.164C1242.05 450.028 1240.57 443.944 1237.62 439.912C1234.67 435.808 1230.17 433.756 1224.12 433.756ZM1270.2 487H1264.04V404.92H1270.2V487ZM1310.85 428.464C1315.82 428.464 1319.92 429.616 1323.16 431.92C1326.47 434.152 1328.96 437.248 1330.61 441.208C1332.34 445.168 1333.2 449.74 1333.2 454.924V459.028H1292.16C1292.16 466.732 1293.93 472.6 1297.46 476.632C1301.06 480.664 1306.13 482.68 1312.68 482.68C1316.28 482.68 1319.42 482.392 1322.08 481.816C1324.74 481.24 1327.66 480.232 1330.83 478.792V484.408C1327.95 485.704 1325.1 486.64 1322.3 487.216C1319.49 487.792 1316.21 488.08 1312.47 488.08C1306.78 488.08 1301.92 486.892 1297.89 484.516C1293.93 482.14 1290.9 478.756 1288.82 474.364C1286.8 469.9 1285.79 464.716 1285.79 458.812C1285.79 452.908 1286.76 447.688 1288.71 443.152C1290.65 438.616 1293.5 435.052 1297.24 432.46C1300.98 429.796 1305.52 428.464 1310.85 428.464ZM1310.85 433.648C1305.52 433.648 1301.24 435.412 1298 438.94C1294.76 442.396 1292.85 447.4 1292.27 453.952H1326.83C1326.83 449.92 1326.26 446.392 1325.1 443.368C1323.95 440.344 1322.19 437.968 1319.81 436.24C1317.51 434.512 1314.52 433.648 1310.85 433.648ZM1426.36 487L1416.1 460.432H1384.02L1373.65 487H1367.28L1397.63 409.672H1403.25L1432.84 487H1426.36ZM1403.79 426.952C1403.57 426.232 1403.25 425.26 1402.81 424.036C1402.38 422.812 1401.95 421.516 1401.52 420.148C1401.09 418.78 1400.65 417.556 1400.22 416.476C1399.86 417.7 1399.47 418.96 1399.03 420.256C1398.67 421.552 1398.28 422.776 1397.85 423.928C1397.49 425.08 1397.13 426.124 1396.77 427.06L1386.18 454.816H1414.15L1403.79 426.952ZM1461.07 487H1438.5V483.112L1446.7 481.924V415.072L1438.5 413.776V409.888H1461.07V413.776L1452.86 415.072V481.924L1461.07 483.112V487Z" fill="#F2F2F2"/>
<path d="M252.26 612L249.852 605.812H241.928L239.548 612H237L244.812 591.924H247.08L254.864 612H252.26ZM246.856 597.524C246.8 597.375 246.707 597.104 246.576 596.712C246.445 596.32 246.315 595.919 246.184 595.508C246.072 595.079 245.979 594.752 245.904 594.528C245.811 594.901 245.708 595.284 245.596 595.676C245.503 596.049 245.4 596.395 245.288 596.712C245.195 597.029 245.111 597.3 245.036 597.524L242.768 603.572H249.096L246.856 597.524ZM271.676 596.712C273.524 596.712 275.008 597.356 276.128 598.644C277.267 599.932 277.836 601.873 277.836 604.468C277.836 606.167 277.575 607.604 277.052 608.78C276.548 609.937 275.83 610.815 274.896 611.412C273.982 611.991 272.899 612.28 271.648 612.28C270.883 612.28 270.202 612.177 269.604 611.972C269.007 611.767 268.494 611.505 268.064 611.188C267.654 610.852 267.299 610.488 267 610.096H266.832C266.87 610.413 266.907 610.815 266.944 611.3C266.982 611.785 267 612.205 267 612.56V618.72H264.536V596.992H266.552L266.888 599.036H267C267.299 598.607 267.654 598.215 268.064 597.86C268.494 597.505 268.998 597.225 269.576 597.02C270.174 596.815 270.874 596.712 271.676 596.712ZM271.228 598.784C270.22 598.784 269.408 598.98 268.792 599.372C268.176 599.745 267.728 600.315 267.448 601.08C267.168 601.845 267.019 602.816 267 603.992V604.468C267 605.7 267.131 606.745 267.392 607.604C267.654 608.463 268.092 609.116 268.708 609.564C269.343 610.012 270.202 610.236 271.284 610.236C272.199 610.236 272.946 609.984 273.524 609.48C274.122 608.976 274.56 608.295 274.84 607.436C275.139 606.559 275.288 605.56 275.288 604.44C275.288 602.723 274.952 601.351 274.28 600.324C273.627 599.297 272.61 598.784 271.228 598.784ZM288.763 596.712C289.043 596.712 289.341 596.731 289.659 596.768C289.995 596.787 290.284 596.824 290.527 596.88L290.219 599.148C289.976 599.092 289.705 599.045 289.407 599.008C289.127 598.971 288.856 598.952 288.595 598.952C288.016 598.952 287.465 599.073 286.943 599.316C286.42 599.559 285.953 599.904 285.543 600.352C285.132 600.781 284.805 601.304 284.563 601.92C284.339 602.536 284.227 603.227 284.227 603.992V612H281.763V596.992H283.779L284.059 599.736H284.171C284.488 599.176 284.871 598.672 285.319 598.224C285.767 597.757 286.28 597.393 286.859 597.132C287.437 596.852 288.072 596.712 288.763 596.712ZM298.578 596.712C299.866 596.712 300.968 596.992 301.882 597.552C302.816 598.112 303.525 598.905 304.01 599.932C304.514 600.94 304.766 602.125 304.766 603.488V604.972H294.49C294.528 606.671 294.957 607.968 295.778 608.864C296.618 609.741 297.785 610.18 299.278 610.18C300.23 610.18 301.07 610.096 301.798 609.928C302.545 609.741 303.31 609.48 304.094 609.144V611.3C303.329 611.636 302.573 611.879 301.826 612.028C301.08 612.196 300.193 612.28 299.166 612.28C297.748 612.28 296.488 611.991 295.386 611.412C294.304 610.833 293.454 609.975 292.838 608.836C292.241 607.679 291.942 606.269 291.942 604.608C291.942 602.965 292.213 601.556 292.754 600.38C293.314 599.204 294.089 598.299 295.078 597.664C296.086 597.029 297.253 596.712 298.578 596.712ZM298.55 598.728C297.374 598.728 296.441 599.111 295.75 599.876C295.078 600.623 294.677 601.668 294.546 603.012H302.19C302.19 602.153 302.06 601.407 301.798 600.772C301.537 600.137 301.136 599.643 300.594 599.288C300.072 598.915 299.39 598.728 298.55 598.728ZM318.359 607.856C318.359 608.827 318.116 609.639 317.631 610.292C317.146 610.945 316.455 611.44 315.559 611.776C314.663 612.112 313.599 612.28 312.367 612.28C311.322 612.28 310.416 612.196 309.651 612.028C308.904 611.86 308.242 611.627 307.663 611.328V609.088C308.26 609.387 308.979 609.667 309.819 609.928C310.678 610.171 311.546 610.292 312.423 610.292C313.674 610.292 314.579 610.096 315.139 609.704C315.699 609.293 315.979 608.752 315.979 608.08C315.979 607.707 315.876 607.371 315.671 607.072C315.466 606.773 315.092 606.475 314.551 606.176C314.028 605.877 313.272 605.541 312.283 605.168C311.312 604.795 310.482 604.421 309.791 604.048C309.1 603.675 308.568 603.227 308.195 602.704C307.822 602.181 307.635 601.509 307.635 600.688C307.635 599.419 308.148 598.439 309.175 597.748C310.22 597.057 311.583 596.712 313.263 596.712C314.178 596.712 315.027 596.805 315.811 596.992C316.614 597.16 317.36 597.403 318.051 597.72L317.211 599.68C316.8 599.493 316.362 599.335 315.895 599.204C315.447 599.055 314.99 598.943 314.523 598.868C314.056 598.775 313.58 598.728 313.095 598.728C312.087 598.728 311.312 598.896 310.771 599.232C310.248 599.549 309.987 599.988 309.987 600.548C309.987 600.959 310.108 601.313 310.351 601.612C310.594 601.892 310.995 602.172 311.555 602.452C312.134 602.713 312.899 603.031 313.851 603.404C314.803 603.759 315.615 604.123 316.287 604.496C316.959 604.869 317.472 605.327 317.827 605.868C318.182 606.391 318.359 607.053 318.359 607.856ZM327.781 596.712C329.069 596.712 330.171 596.992 331.085 597.552C332.019 598.112 332.728 598.905 333.213 599.932C333.717 600.94 333.969 602.125 333.969 603.488V604.972H323.693C323.731 606.671 324.16 607.968 324.981 608.864C325.821 609.741 326.988 610.18 328.481 610.18C329.433 610.18 330.273 610.096 331.001 609.928C331.748 609.741 332.513 609.48 333.297 609.144V611.3C332.532 611.636 331.776 611.879 331.029 612.028C330.283 612.196 329.396 612.28 328.369 612.28C326.951 612.28 325.691 611.991 324.589 611.412C323.507 610.833 322.657 609.975 322.041 608.836C321.444 607.679 321.145 606.269 321.145 604.608C321.145 602.965 321.416 601.556 321.957 600.38C322.517 599.204 323.292 598.299 324.281 597.664C325.289 597.029 326.456 596.712 327.781 596.712ZM327.753 598.728C326.577 598.728 325.644 599.111 324.953 599.876C324.281 600.623 323.88 601.668 323.749 603.012H331.393C331.393 602.153 331.263 601.407 331.001 600.772C330.74 600.137 330.339 599.643 329.797 599.288C329.275 598.915 328.593 598.728 327.753 598.728ZM345.014 596.712C346.806 596.712 348.159 597.151 349.074 598.028C349.989 598.887 350.446 600.287 350.446 602.228V612H348.01V602.396C348.01 601.183 347.739 600.277 347.198 599.68C346.657 599.083 345.807 598.784 344.65 598.784C342.989 598.784 341.841 599.251 341.206 600.184C340.571 601.117 340.254 602.461 340.254 604.216V612H337.79V596.992H339.778L340.142 599.036H340.282C340.618 598.513 341.029 598.084 341.514 597.748C342.018 597.393 342.569 597.132 343.166 596.964C343.763 596.796 344.379 596.712 345.014 596.712ZM360.111 610.264C360.484 610.264 360.867 610.236 361.259 610.18C361.651 610.105 361.968 610.031 362.211 609.956V611.832C361.949 611.963 361.576 612.065 361.091 612.14C360.605 612.233 360.139 612.28 359.691 612.28C358.907 612.28 358.179 612.149 357.507 611.888C356.853 611.608 356.321 611.132 355.911 610.46C355.5 609.788 355.295 608.845 355.295 607.632V598.896H353.167V597.72L355.323 596.74L356.303 593.548H357.759V596.992H362.099V598.896H357.759V607.576C357.759 608.491 357.973 609.172 358.403 609.62C358.851 610.049 359.42 610.264 360.111 610.264ZM370.9 596.74C372.729 596.74 374.083 597.141 374.96 597.944C375.837 598.747 376.276 600.025 376.276 601.78V612H374.484L374.008 609.872H373.896C373.467 610.413 373.019 610.871 372.552 611.244C372.104 611.599 371.581 611.86 370.984 612.028C370.405 612.196 369.696 612.28 368.856 612.28C367.96 612.28 367.148 612.121 366.42 611.804C365.711 611.487 365.151 611.001 364.74 610.348C364.329 609.676 364.124 608.836 364.124 607.828C364.124 606.335 364.712 605.187 365.888 604.384C367.064 603.563 368.875 603.115 371.32 603.04L373.868 602.956V602.06C373.868 600.809 373.597 599.941 373.056 599.456C372.515 598.971 371.749 598.728 370.76 598.728C369.976 598.728 369.229 598.849 368.52 599.092C367.811 599.316 367.148 599.577 366.532 599.876L365.776 598.028C366.429 597.673 367.204 597.375 368.1 597.132C368.996 596.871 369.929 596.74 370.9 596.74ZM371.628 604.748C369.761 604.823 368.464 605.121 367.736 605.644C367.027 606.167 366.672 606.904 366.672 607.856C366.672 608.696 366.924 609.312 367.428 609.704C367.951 610.096 368.613 610.292 369.416 610.292C370.685 610.292 371.74 609.947 372.58 609.256C373.42 608.547 373.84 607.464 373.84 606.008V604.664L371.628 604.748ZM385.923 610.264C386.297 610.264 386.679 610.236 387.071 610.18C387.463 610.105 387.781 610.031 388.023 609.956V611.832C387.762 611.963 387.389 612.065 386.903 612.14C386.418 612.233 385.951 612.28 385.503 612.28C384.719 612.28 383.991 612.149 383.319 611.888C382.666 611.608 382.134 611.132 381.723 610.46C381.313 609.788 381.107 608.845 381.107 607.632V598.896H378.979V597.72L381.135 596.74L382.115 593.548H383.571V596.992H387.911V598.896H383.571V607.576C383.571 608.491 383.786 609.172 384.215 609.62C384.663 610.049 385.233 610.264 385.923 610.264ZM393.492 596.992V612H391.028V596.992H393.492ZM392.288 591.364C392.662 591.364 392.988 591.495 393.268 591.756C393.567 591.999 393.716 592.391 393.716 592.932C393.716 593.455 393.567 593.847 393.268 594.108C392.988 594.369 392.662 594.5 392.288 594.5C391.878 594.5 391.532 594.369 391.252 594.108C390.972 593.847 390.832 593.455 390.832 592.932C390.832 592.391 390.972 591.999 391.252 591.756C391.532 591.495 391.878 591.364 392.288 591.364ZM411.295 604.468C411.295 605.719 411.127 606.829 410.791 607.8C410.474 608.752 410.007 609.564 409.391 610.236C408.794 610.908 408.057 611.421 407.179 611.776C406.321 612.112 405.359 612.28 404.295 612.28C403.306 612.28 402.391 612.112 401.551 611.776C400.711 611.421 399.983 610.908 399.367 610.236C398.751 609.564 398.266 608.752 397.911 607.8C397.575 606.829 397.407 605.719 397.407 604.468C397.407 602.807 397.687 601.407 398.247 600.268C398.807 599.111 399.61 598.233 400.655 597.636C401.701 597.02 402.942 596.712 404.379 596.712C405.742 596.712 406.937 597.02 407.963 597.636C409.009 598.233 409.821 599.111 410.399 600.268C410.997 601.407 411.295 602.807 411.295 604.468ZM399.955 604.468C399.955 605.644 400.105 606.671 400.403 607.548C400.721 608.407 401.206 609.069 401.859 609.536C402.513 610.003 403.343 610.236 404.351 610.236C405.359 610.236 406.19 610.003 406.843 609.536C407.497 609.069 407.973 608.407 408.271 607.548C408.589 606.671 408.747 605.644 408.747 604.468C408.747 603.273 408.589 602.256 408.271 601.416C407.954 600.576 407.469 599.932 406.815 599.484C406.181 599.017 405.35 598.784 404.323 598.784C402.793 598.784 401.682 599.288 400.991 600.296C400.301 601.304 399.955 602.695 399.955 604.468ZM422.424 596.712C424.216 596.712 425.57 597.151 426.484 598.028C427.399 598.887 427.856 600.287 427.856 602.228V612H425.42V602.396C425.42 601.183 425.15 600.277 424.608 599.68C424.067 599.083 423.218 598.784 422.06 598.784C420.399 598.784 419.251 599.251 418.616 600.184C417.982 601.117 417.664 602.461 417.664 604.216V612H415.2V596.992H417.188L417.552 599.036H417.692C418.028 598.513 418.439 598.084 418.924 597.748C419.428 597.393 419.979 597.132 420.576 596.964C421.174 596.796 421.79 596.712 422.424 596.712ZM442.246 595.9C442.246 596.535 442.228 597.132 442.19 597.692C442.172 598.233 442.144 598.663 442.106 598.98H442.246C442.676 598.345 443.264 597.813 444.01 597.384C444.757 596.955 445.718 596.74 446.894 596.74C448.761 596.74 450.254 597.393 451.374 598.7C452.513 599.988 453.082 601.92 453.082 604.496C453.082 606.213 452.821 607.651 452.298 608.808C451.794 609.965 451.076 610.833 450.142 611.412C449.209 611.991 448.126 612.28 446.894 612.28C445.718 612.28 444.757 612.065 444.01 611.636C443.264 611.207 442.676 610.693 442.246 610.096H442.05L441.546 612H439.782V590.72H442.246V595.9ZM446.474 598.784C445.41 598.784 444.57 598.989 443.954 599.4C443.338 599.792 442.9 600.408 442.638 601.248C442.377 602.069 442.246 603.124 442.246 604.412V604.524C442.246 606.372 442.545 607.791 443.142 608.78C443.758 609.751 444.888 610.236 446.53 610.236C447.874 610.236 448.873 609.741 449.526 608.752C450.198 607.763 450.534 606.335 450.534 604.468C450.534 602.583 450.198 601.164 449.526 600.212C448.873 599.26 447.856 598.784 446.474 598.784ZM454.11 596.992H456.742L459.99 605.532C460.177 606.036 460.345 606.521 460.494 606.988C460.662 607.455 460.811 607.912 460.942 608.36C461.073 608.789 461.175 609.209 461.25 609.62H461.362C461.474 609.153 461.651 608.547 461.894 607.8C462.137 607.035 462.389 606.269 462.65 605.504L465.702 596.992H468.362L461.894 614.072C461.539 615.005 461.119 615.817 460.634 616.508C460.167 617.217 459.589 617.759 458.898 618.132C458.226 618.524 457.405 618.72 456.434 618.72C455.986 618.72 455.594 618.692 455.258 618.636C454.922 618.599 454.633 618.552 454.39 618.496V616.536C454.595 616.573 454.838 616.611 455.118 616.648C455.417 616.685 455.725 616.704 456.042 616.704C456.621 616.704 457.115 616.592 457.526 616.368C457.955 616.163 458.319 615.855 458.618 615.444C458.917 615.052 459.169 614.585 459.374 614.044L460.158 612.056L454.11 596.992ZM483.861 592.008C485.522 592.008 486.885 592.223 487.949 592.652C489.032 593.063 489.834 593.688 490.357 594.528C490.88 595.368 491.141 596.423 491.141 597.692C491.141 598.756 490.945 599.643 490.553 600.352C490.161 601.061 489.657 601.631 489.041 602.06C488.444 602.471 487.809 602.797 487.137 603.04L492.625 612H489.685L484.841 603.74H480.865V612H478.345V592.008H483.861ZM483.721 594.192H480.865V601.612H483.861C484.944 601.612 485.83 601.472 486.521 601.192C487.212 600.893 487.716 600.464 488.033 599.904C488.369 599.344 488.537 598.644 488.537 597.804C488.537 596.927 488.36 596.227 488.005 595.704C487.669 595.181 487.146 594.799 486.437 594.556C485.728 594.313 484.822 594.192 483.721 594.192ZM501.111 596.74C502.94 596.74 504.294 597.141 505.171 597.944C506.048 598.747 506.487 600.025 506.487 601.78V612H504.695L504.219 609.872H504.107C503.678 610.413 503.23 610.871 502.763 611.244C502.315 611.599 501.792 611.86 501.195 612.028C500.616 612.196 499.907 612.28 499.067 612.28C498.171 612.28 497.359 612.121 496.631 611.804C495.922 611.487 495.362 611.001 494.951 610.348C494.54 609.676 494.335 608.836 494.335 607.828C494.335 606.335 494.923 605.187 496.099 604.384C497.275 603.563 499.086 603.115 501.531 603.04L504.079 602.956V602.06C504.079 600.809 503.808 599.941 503.267 599.456C502.726 598.971 501.96 598.728 500.971 598.728C500.187 598.728 499.44 598.849 498.731 599.092C498.022 599.316 497.359 599.577 496.743 599.876L495.987 598.028C496.64 597.673 497.415 597.375 498.311 597.132C499.207 596.871 500.14 596.74 501.111 596.74ZM501.839 604.748C499.972 604.823 498.675 605.121 497.947 605.644C497.238 606.167 496.883 606.904 496.883 607.856C496.883 608.696 497.135 609.312 497.639 609.704C498.162 610.096 498.824 610.292 499.627 610.292C500.896 610.292 501.951 609.947 502.791 609.256C503.631 608.547 504.051 607.464 504.051 606.008V604.664L501.839 604.748ZM517.142 612.28C515.817 612.28 514.632 612.009 513.586 611.468C512.56 610.927 511.748 610.087 511.15 608.948C510.572 607.809 510.282 606.353 510.282 604.58C510.282 602.732 510.59 601.229 511.206 600.072C511.822 598.915 512.653 598.065 513.698 597.524C514.762 596.983 515.966 596.712 517.31 596.712C518.076 596.712 518.813 596.796 519.522 596.964C520.232 597.113 520.81 597.3 521.258 597.524L520.502 599.568C520.054 599.4 519.532 599.241 518.934 599.092C518.337 598.943 517.777 598.868 517.254 598.868C516.246 598.868 515.416 599.083 514.762 599.512C514.109 599.941 513.624 600.576 513.306 601.416C512.989 602.256 512.83 603.301 512.83 604.552C512.83 605.747 512.989 606.764 513.306 607.604C513.624 608.444 514.1 609.079 514.734 609.508C515.369 609.937 516.162 610.152 517.114 610.152C517.936 610.152 518.654 610.068 519.27 609.9C519.905 609.732 520.484 609.527 521.006 609.284V611.468C520.502 611.729 519.942 611.925 519.326 612.056C518.729 612.205 518.001 612.28 517.142 612.28ZM527.039 596.964C527.039 597.319 527.021 597.683 526.983 598.056C526.965 598.429 526.937 598.765 526.899 599.064H527.067C527.385 598.541 527.786 598.112 528.271 597.776C528.757 597.44 529.298 597.188 529.895 597.02C530.493 596.833 531.109 596.74 531.743 596.74C532.957 596.74 533.965 596.936 534.767 597.328C535.589 597.701 536.205 598.289 536.615 599.092C537.026 599.895 537.231 600.94 537.231 602.228V612H534.795V602.396C534.795 601.183 534.525 600.277 533.983 599.68C533.442 599.083 532.593 598.784 531.435 598.784C530.315 598.784 529.438 598.999 528.803 599.428C528.169 599.839 527.711 600.455 527.431 601.276C527.17 602.079 527.039 603.068 527.039 604.244V612H524.575V590.72H527.039V596.964ZM547.68 596.712C548.968 596.712 550.069 596.992 550.984 597.552C551.917 598.112 552.627 598.905 553.112 599.932C553.616 600.94 553.868 602.125 553.868 603.488V604.972H543.592C543.629 606.671 544.059 607.968 544.88 608.864C545.72 609.741 546.887 610.18 548.38 610.18C549.332 610.18 550.172 610.096 550.9 609.928C551.647 609.741 552.412 609.48 553.196 609.144V611.3C552.431 611.636 551.675 611.879 550.928 612.028C550.181 612.196 549.295 612.28 548.268 612.28C546.849 612.28 545.589 611.991 544.488 611.412C543.405 610.833 542.556 609.975 541.94 608.836C541.343 607.679 541.044 606.269 541.044 604.608C541.044 602.965 541.315 601.556 541.856 600.38C542.416 599.204 543.191 598.299 544.18 597.664C545.188 597.029 546.355 596.712 547.68 596.712ZM547.652 598.728C546.476 598.728 545.543 599.111 544.852 599.876C544.18 600.623 543.779 601.668 543.648 603.012H551.292C551.292 602.153 551.161 601.407 550.9 600.772C550.639 600.137 550.237 599.643 549.696 599.288C549.173 598.915 548.492 598.728 547.652 598.728ZM560.153 612H557.689V590.72H560.153V612ZM585.061 612L582.653 605.812H574.729L572.349 612H569.801L577.613 591.924H579.881L587.665 612H585.061ZM579.657 597.524C579.601 597.375 579.507 597.104 579.377 596.712C579.246 596.32 579.115 595.919 578.985 595.508C578.873 595.079 578.779 594.752 578.705 594.528C578.611 594.901 578.509 595.284 578.397 595.676C578.303 596.049 578.201 596.395 578.089 596.712C577.995 597.029 577.911 597.3 577.837 597.524L575.569 603.572H581.897L579.657 597.524ZM595.076 610.264C595.449 610.264 595.832 610.236 596.224 610.18C596.616 610.105 596.933 610.031 597.176 609.956V611.832C596.914 611.963 596.541 612.065 596.056 612.14C595.57 612.233 595.104 612.28 594.656 612.28C593.872 612.28 593.144 612.149 592.472 611.888C591.818 611.608 591.286 611.132 590.876 610.46C590.465 609.788 590.26 608.845 590.26 607.632V598.896H588.132V597.72L590.288 596.74L591.268 593.548H592.724V596.992H597.064V598.896H592.724V607.576C592.724 608.491 592.938 609.172 593.368 609.62C593.816 610.049 594.385 610.264 595.076 610.264ZM616.645 596.712C618.343 596.712 619.613 597.151 620.453 598.028C621.293 598.887 621.713 600.287 621.713 602.228V612H619.277V602.34C619.277 601.164 619.025 600.277 618.521 599.68C618.035 599.083 617.27 598.784 616.225 598.784C614.769 598.784 613.723 599.204 613.089 600.044C612.473 600.884 612.165 602.107 612.165 603.712V612H609.729V602.34C609.729 601.556 609.617 600.903 609.393 600.38C609.169 599.839 608.833 599.437 608.385 599.176C607.937 598.915 607.358 598.784 606.649 598.784C605.641 598.784 604.847 598.999 604.269 599.428C603.69 599.839 603.27 600.445 603.009 601.248C602.766 602.051 602.645 603.04 602.645 604.216V612H600.181V596.992H602.169L602.533 599.036H602.673C602.99 598.513 603.373 598.084 603.821 597.748C604.287 597.393 604.801 597.132 605.361 596.964C605.921 596.796 606.499 596.712 607.097 596.712C608.254 596.712 609.215 596.917 609.981 597.328C610.765 597.739 611.334 598.373 611.689 599.232H611.829C612.333 598.373 613.014 597.739 613.873 597.328C614.75 596.917 615.674 596.712 616.645 596.712ZM632.033 596.74C633.862 596.74 635.215 597.141 636.093 597.944C636.97 598.747 637.409 600.025 637.409 601.78V612H635.617L635.141 609.872H635.029C634.599 610.413 634.151 610.871 633.685 611.244C633.237 611.599 632.714 611.86 632.117 612.028C631.538 612.196 630.829 612.28 629.989 612.28C629.093 612.28 628.281 612.121 627.553 611.804C626.843 611.487 626.283 611.001 625.873 610.348C625.462 609.676 625.257 608.836 625.257 607.828C625.257 606.335 625.845 605.187 627.021 604.384C628.197 603.563 630.007 603.115 632.453 603.04L635.001 602.956V602.06C635.001 600.809 634.73 599.941 634.189 599.456C633.647 598.971 632.882 598.728 631.893 598.728C631.109 598.728 630.362 598.849 629.653 599.092C628.943 599.316 628.281 599.577 627.665 599.876L626.909 598.028C627.562 597.673 628.337 597.375 629.233 597.132C630.129 596.871 631.062 596.74 632.033 596.74ZM632.761 604.748C630.894 604.823 629.597 605.121 628.869 605.644C628.159 606.167 627.805 606.904 627.805 607.856C627.805 608.696 628.057 609.312 628.561 609.704C629.083 610.096 629.746 610.292 630.549 610.292C631.818 610.292 632.873 609.947 633.713 609.256C634.553 608.547 634.973 607.464 634.973 606.008V604.664L632.761 604.748ZM647.364 612.28C645.497 612.28 644.004 611.636 642.884 610.348C641.764 609.041 641.204 607.1 641.204 604.524C641.204 601.948 641.764 600.007 642.884 598.7C644.023 597.375 645.525 596.712 647.392 596.712C648.176 596.712 648.857 596.815 649.436 597.02C650.015 597.207 650.519 597.468 650.948 597.804C651.377 598.14 651.741 598.513 652.04 598.924H652.208C652.189 598.681 652.152 598.327 652.096 597.86C652.059 597.375 652.04 596.992 652.04 596.712V590.72H654.504V612H652.516L652.152 609.984H652.04C651.741 610.413 651.377 610.805 650.948 611.16C650.519 611.496 650.005 611.767 649.408 611.972C648.829 612.177 648.148 612.28 647.364 612.28ZM647.756 610.236C649.343 610.236 650.453 609.807 651.088 608.948C651.741 608.071 652.068 606.755 652.068 605V604.552C652.068 602.685 651.76 601.257 651.144 600.268C650.528 599.26 649.389 598.756 647.728 598.756C646.403 598.756 645.404 599.288 644.732 600.352C644.079 601.397 643.752 602.807 643.752 604.58C643.752 606.372 644.079 607.763 644.732 608.752C645.404 609.741 646.412 610.236 647.756 610.236ZM657.507 618.72C657.04 618.72 656.629 618.683 656.275 618.608C655.92 618.552 655.612 618.477 655.351 618.384V616.396C655.631 616.471 655.92 616.536 656.219 616.592C656.517 616.648 656.844 616.676 657.199 616.676C657.796 616.676 658.291 616.508 658.683 616.172C659.075 615.855 659.271 615.239 659.271 614.324V596.992H661.735V614.24C661.735 615.173 661.585 615.976 661.287 616.648C660.988 617.32 660.531 617.833 659.915 618.188C659.299 618.543 658.496 618.72 657.507 618.72ZM659.075 592.932C659.075 592.391 659.215 591.999 659.495 591.756C659.775 591.495 660.12 591.364 660.531 591.364C660.904 591.364 661.231 591.495 661.511 591.756C661.809 591.999 661.959 592.391 661.959 592.932C661.959 593.455 661.809 593.847 661.511 594.108C661.231 594.369 660.904 594.5 660.531 594.5C660.12 594.5 659.775 594.369 659.495 594.108C659.215 593.847 659.075 593.455 659.075 592.932ZM672.173 596.74C674.003 596.74 675.356 597.141 676.233 597.944C677.111 598.747 677.549 600.025 677.549 601.78V612H675.757L675.281 609.872H675.169C674.74 610.413 674.292 610.871 673.825 611.244C673.377 611.599 672.855 611.86 672.257 612.028C671.679 612.196 670.969 612.28 670.129 612.28C669.233 612.28 668.421 612.121 667.693 611.804C666.984 611.487 666.424 611.001 666.013 610.348C665.603 609.676 665.397 608.836 665.397 607.828C665.397 606.335 665.985 605.187 667.161 604.384C668.337 603.563 670.148 603.115 672.593 603.04L675.141 602.956V602.06C675.141 600.809 674.871 599.941 674.329 599.456C673.788 598.971 673.023 598.728 672.033 598.728C671.249 598.728 670.503 598.849 669.793 599.092C669.084 599.316 668.421 599.577 667.805 599.876L667.049 598.028C667.703 597.673 668.477 597.375 669.373 597.132C670.269 596.871 671.203 596.74 672.173 596.74ZM672.901 604.748C671.035 604.823 669.737 605.121 669.009 605.644C668.3 606.167 667.945 606.904 667.945 607.856C667.945 608.696 668.197 609.312 668.701 609.704C669.224 610.096 669.887 610.292 670.689 610.292C671.959 610.292 673.013 609.947 673.853 609.256C674.693 608.547 675.113 607.464 675.113 606.008V604.664L672.901 604.748Z" fill="#DA9218"/>
<path d="M1201.39 594.528C1201.69 594.528 1202.01 594.549 1202.35 594.592C1202.7 594.613 1202.99 594.656 1203.25 594.72L1202.93 597.312C1202.67 597.248 1202.39 597.195 1202.07 597.152C1201.77 597.109 1201.48 597.088 1201.2 597.088C1200.58 597.088 1200 597.227 1199.44 597.504C1198.89 597.781 1198.39 598.176 1197.94 598.688C1197.51 599.179 1197.17 599.776 1196.91 600.48C1196.66 601.184 1196.53 601.973 1196.53 602.848V612H1193.75V594.848H1196.02L1196.34 597.984H1196.47C1196.81 597.344 1197.21 596.768 1197.68 596.256C1198.17 595.723 1198.73 595.307 1199.35 595.008C1199.97 594.688 1200.65 594.528 1201.39 594.528ZM1211.83 594.56C1213.79 594.56 1215.25 595.019 1216.21 595.936C1217.19 596.853 1217.69 598.315 1217.69 600.32V612H1215.67L1215.13 609.568H1215C1214.53 610.187 1214.05 610.709 1213.56 611.136C1213.09 611.541 1212.53 611.84 1211.89 612.032C1211.27 612.224 1210.51 612.32 1209.59 612.32C1208.63 612.32 1207.77 612.139 1207 611.776C1206.23 611.413 1205.62 610.859 1205.17 610.112C1204.73 609.344 1204.5 608.384 1204.5 607.232C1204.5 605.525 1205.13 604.213 1206.39 603.296C1207.65 602.357 1209.59 601.845 1212.21 601.76L1214.93 601.664V600.64C1214.93 599.211 1214.65 598.219 1214.07 597.664C1213.51 597.109 1212.71 596.832 1211.67 596.832C1210.84 596.832 1210.04 596.971 1209.27 597.248C1208.52 597.504 1207.81 597.803 1207.12 598.144L1206.26 596.032C1206.99 595.627 1207.83 595.285 1208.79 595.008C1209.75 594.709 1210.76 594.56 1211.83 594.56ZM1212.6 603.712C1210.63 603.797 1209.27 604.139 1208.5 604.736C1207.75 605.333 1207.38 606.176 1207.38 607.264C1207.38 608.224 1207.65 608.928 1208.18 609.376C1208.71 609.824 1209.41 610.048 1210.26 610.048C1211.58 610.048 1212.69 609.653 1213.59 608.864C1214.49 608.053 1214.93 606.816 1214.93 605.152V603.616L1212.6 603.712ZM1229.15 612.32C1227.7 612.32 1226.42 612.011 1225.31 611.392C1224.2 610.773 1223.33 609.813 1222.69 608.512C1222.07 607.211 1221.76 605.547 1221.76 603.52C1221.76 601.408 1222.09 599.691 1222.75 598.368C1223.41 597.045 1224.31 596.075 1225.44 595.456C1226.59 594.837 1227.89 594.528 1229.34 594.528C1230.17 594.528 1230.97 594.624 1231.74 594.816C1232.53 594.987 1233.17 595.2 1233.66 595.456L1232.8 597.792C1232.31 597.6 1231.73 597.419 1231.07 597.248C1230.43 597.077 1229.83 596.992 1229.28 596.992C1228.23 596.992 1227.37 597.237 1226.69 597.728C1226 598.219 1225.49 598.944 1225.15 599.904C1224.81 600.864 1224.64 602.059 1224.64 603.488C1224.64 604.853 1224.81 606.016 1225.15 606.976C1225.49 607.936 1225.99 608.661 1226.65 609.152C1227.34 609.643 1228.17 609.888 1229.15 609.888C1230.02 609.888 1230.8 609.792 1231.49 609.6C1232.17 609.408 1232.8 609.173 1233.37 608.896V611.392C1232.82 611.691 1232.21 611.915 1231.55 612.064C1230.89 612.235 1230.09 612.32 1229.15 612.32ZM1239.97 594.816C1239.97 595.221 1239.95 595.637 1239.9 596.064C1239.88 596.491 1239.85 596.875 1239.81 597.216H1240C1240.34 596.619 1240.77 596.128 1241.28 595.744C1241.81 595.36 1242.39 595.072 1243.01 594.88C1243.65 594.667 1244.31 594.56 1244.99 594.56C1246.29 594.56 1247.38 594.784 1248.26 595.232C1249.13 595.659 1249.79 596.331 1250.24 597.248C1250.69 598.165 1250.91 599.36 1250.91 600.832V612H1248.13V601.024C1248.13 599.637 1247.84 598.603 1247.26 597.92C1246.69 597.237 1245.8 596.896 1244.61 596.896C1243.43 596.896 1242.51 597.141 1241.82 597.632C1241.14 598.101 1240.66 598.805 1240.38 599.744C1240.11 600.661 1239.97 601.792 1239.97 603.136V612H1237.18V587.68H1239.97V594.816ZM1262.14 594.528C1263.53 594.528 1264.73 594.848 1265.73 595.488C1266.73 596.128 1267.5 597.035 1268.03 598.208C1268.59 599.36 1268.86 600.715 1268.86 602.272V603.968H1257.86C1257.9 605.909 1258.36 607.392 1259.23 608.416C1260.11 609.419 1261.33 609.92 1262.91 609.92C1263.94 609.92 1264.84 609.824 1265.63 609.632C1266.44 609.419 1267.27 609.12 1268.13 608.736V611.2C1267.3 611.584 1266.47 611.861 1265.66 612.032C1264.87 612.224 1263.91 612.32 1262.78 612.32C1261.25 612.32 1259.89 611.989 1258.72 611.328C1257.55 610.667 1256.63 609.685 1255.97 608.384C1255.31 607.061 1254.98 605.451 1254.98 603.552C1254.98 601.675 1255.27 600.064 1255.87 598.72C1256.47 597.376 1257.3 596.341 1258.37 595.616C1259.46 594.891 1260.71 594.528 1262.14 594.528ZM1262.14 596.832C1260.91 596.832 1259.93 597.269 1259.2 598.144C1258.47 598.997 1258.05 600.192 1257.92 601.728H1265.98C1265.98 600.747 1265.85 599.893 1265.57 599.168C1265.29 598.443 1264.86 597.877 1264.29 597.472C1263.73 597.045 1263.02 596.832 1262.14 596.832ZM1275.69 612H1272.9V587.68H1275.69V612ZM1286.92 594.56C1288.89 594.56 1290.35 595.019 1291.31 595.936C1292.29 596.853 1292.78 598.315 1292.78 600.32V612H1290.76L1290.22 609.568H1290.09C1289.62 610.187 1289.14 610.709 1288.65 611.136C1288.18 611.541 1287.63 611.84 1286.99 612.032C1286.37 612.224 1285.6 612.32 1284.68 612.32C1283.72 612.32 1282.86 612.139 1282.09 611.776C1281.32 611.413 1280.71 610.859 1280.27 610.112C1279.82 609.344 1279.59 608.384 1279.59 607.232C1279.59 605.525 1280.22 604.213 1281.48 603.296C1282.74 602.357 1284.68 601.845 1287.31 601.76L1290.03 601.664V600.64C1290.03 599.211 1289.74 598.219 1289.16 597.664C1288.61 597.109 1287.81 596.832 1286.76 596.832C1285.93 596.832 1285.13 596.971 1284.36 597.248C1283.62 597.504 1282.9 597.803 1282.22 598.144L1281.35 596.032C1282.08 595.627 1282.92 595.285 1283.88 595.008C1284.84 594.709 1285.86 594.56 1286.92 594.56ZM1287.69 603.712C1285.73 603.797 1284.36 604.139 1283.59 604.736C1282.85 605.333 1282.47 606.176 1282.47 607.264C1282.47 608.224 1282.74 608.928 1283.27 609.376C1283.81 609.824 1284.5 610.048 1285.35 610.048C1286.68 610.048 1287.79 609.653 1288.68 608.864C1289.58 608.053 1290.03 606.816 1290.03 605.152V603.616L1287.69 603.712ZM1303.28 610.016C1303.69 610.016 1304.1 609.984 1304.53 609.92C1304.96 609.835 1305.31 609.749 1305.59 609.664V611.808C1305.29 611.957 1304.86 612.075 1304.31 612.16C1303.77 612.267 1303.26 612.32 1302.77 612.32C1301.92 612.32 1301.13 612.171 1300.4 611.872C1299.68 611.552 1299.09 611.008 1298.64 610.24C1298.22 609.472 1298 608.395 1298 607.008V597.024H1295.73V595.68L1298.07 594.56L1299.12 590.912H1300.79V594.848H1305.46V597.024H1300.79V606.944C1300.79 607.989 1301.02 608.768 1301.49 609.28C1301.96 609.771 1302.56 610.016 1303.28 610.016ZM1326.6 594.528C1328.44 594.528 1329.8 595.029 1330.7 596.032C1331.59 597.013 1332.04 598.613 1332.04 600.832V612H1329.29V600.96C1329.29 599.616 1329.02 598.603 1328.49 597.92C1327.98 597.237 1327.17 596.896 1326.06 596.896C1324.52 596.896 1323.42 597.376 1322.76 598.336C1322.12 599.296 1321.8 600.693 1321.8 602.528V612H1319.02V600.96C1319.02 600.064 1318.9 599.317 1318.67 598.72C1318.43 598.101 1318.08 597.643 1317.61 597.344C1317.14 597.045 1316.53 596.896 1315.79 596.896C1314.72 596.896 1313.88 597.141 1313.26 597.632C1312.64 598.101 1312.2 598.795 1311.95 599.712C1311.69 600.629 1311.56 601.76 1311.56 603.104V612H1308.78V594.848H1311.02L1311.43 597.184H1311.59C1311.94 596.587 1312.35 596.096 1312.84 595.712C1313.33 595.307 1313.88 595.008 1314.47 594.816C1315.07 594.624 1315.69 594.528 1316.33 594.528C1317.57 594.528 1318.6 594.763 1319.43 595.232C1320.27 595.701 1320.87 596.427 1321.26 597.408H1321.45C1321.98 596.427 1322.71 595.701 1323.63 595.232C1324.56 594.763 1325.56 594.528 1326.6 594.528ZM1343.17 594.56C1345.14 594.56 1346.6 595.019 1347.56 595.936C1348.54 596.853 1349.03 598.315 1349.03 600.32V612H1347.01L1346.47 609.568H1346.34C1345.87 610.187 1345.39 610.709 1344.9 611.136C1344.43 611.541 1343.88 611.84 1343.24 612.032C1342.62 612.224 1341.85 612.32 1340.93 612.32C1339.97 612.32 1339.11 612.139 1338.34 611.776C1337.57 611.413 1336.96 610.859 1336.52 610.112C1336.07 609.344 1335.84 608.384 1335.84 607.232C1335.84 605.525 1336.47 604.213 1337.73 603.296C1338.99 602.357 1340.93 601.845 1343.56 601.76L1346.28 601.664V600.64C1346.28 599.211 1345.99 598.219 1345.41 597.664C1344.86 597.109 1344.06 596.832 1343.01 596.832C1342.18 596.832 1341.38 596.971 1340.61 597.248C1339.87 597.504 1339.15 597.803 1338.47 598.144L1337.6 596.032C1338.33 595.627 1339.17 595.285 1340.13 595.008C1341.09 594.709 1342.11 594.56 1343.17 594.56ZM1343.94 603.712C1341.98 603.797 1340.61 604.139 1339.84 604.736C1339.1 605.333 1338.72 606.176 1338.72 607.264C1338.72 608.224 1338.99 608.928 1339.52 609.376C1340.06 609.824 1340.75 610.048 1341.6 610.048C1342.93 610.048 1344.04 609.653 1344.93 608.864C1345.83 608.053 1346.28 606.816 1346.28 605.152V603.616L1343.94 603.712ZM1359.69 612.32C1357.71 612.32 1356.11 611.584 1354.89 610.112C1353.7 608.619 1353.1 606.4 1353.1 603.456C1353.1 600.512 1353.71 598.293 1354.92 596.8C1356.14 595.285 1357.74 594.528 1359.72 594.528C1360.56 594.528 1361.28 594.645 1361.9 594.88C1362.52 595.093 1363.05 595.392 1363.5 595.776C1363.97 596.16 1364.36 596.587 1364.68 597.056H1364.88C1364.86 596.779 1364.81 596.373 1364.75 595.84C1364.71 595.285 1364.68 594.848 1364.68 594.528V587.68H1367.47V612H1365.23L1364.81 609.696H1364.68C1364.36 610.187 1363.97 610.635 1363.5 611.04C1363.05 611.424 1362.51 611.733 1361.87 611.968C1361.25 612.203 1360.52 612.32 1359.69 612.32ZM1360.2 609.984C1361.87 609.984 1363.03 609.493 1363.69 608.512C1364.38 607.509 1364.72 606.005 1364.72 604V603.488C1364.72 601.355 1364.4 599.723 1363.76 598.592C1363.12 597.44 1361.92 596.864 1360.17 596.864C1358.76 596.864 1357.71 597.472 1357 598.688C1356.32 599.883 1355.98 601.493 1355.98 603.52C1355.98 605.568 1356.32 607.157 1357 608.288C1357.71 609.419 1358.78 609.984 1360.2 609.984ZM1370.7 619.68C1370.19 619.68 1369.74 619.637 1369.36 619.552C1368.95 619.488 1368.61 619.403 1368.34 619.296V617.024C1368.63 617.109 1368.94 617.184 1369.26 617.248C1369.58 617.312 1369.94 617.344 1370.32 617.344C1370.98 617.344 1371.51 617.152 1371.92 616.768C1372.35 616.405 1372.56 615.701 1372.56 614.656V594.848H1375.34V614.56C1375.34 615.627 1375.18 616.544 1374.86 617.312C1374.54 618.08 1374.04 618.667 1373.36 619.072C1372.68 619.477 1371.79 619.68 1370.7 619.68ZM1372.34 590.208C1372.34 589.589 1372.5 589.141 1372.82 588.864C1373.14 588.565 1373.52 588.416 1373.97 588.416C1374.39 588.416 1374.77 588.565 1375.09 588.864C1375.41 589.141 1375.57 589.589 1375.57 590.208C1375.57 590.805 1375.41 591.253 1375.09 591.552C1374.77 591.851 1374.39 592 1373.97 592C1373.52 592 1373.14 591.851 1372.82 591.552C1372.5 591.253 1372.34 590.805 1372.34 590.208ZM1386.58 594.56C1388.54 594.56 1390 595.019 1390.96 595.936C1391.94 596.853 1392.44 598.315 1392.44 600.32V612H1390.42L1389.88 609.568H1389.75C1389.28 610.187 1388.8 610.709 1388.31 611.136C1387.84 611.541 1387.28 611.84 1386.64 612.032C1386.02 612.224 1385.26 612.32 1384.34 612.32C1383.38 612.32 1382.52 612.139 1381.75 611.776C1380.98 611.413 1380.37 610.859 1379.92 610.112C1379.48 609.344 1379.25 608.384 1379.25 607.232C1379.25 605.525 1379.88 604.213 1381.14 603.296C1382.4 602.357 1384.34 601.845 1386.96 601.76L1389.68 601.664V600.64C1389.68 599.211 1389.4 598.219 1388.82 597.664C1388.26 597.109 1387.46 596.832 1386.42 596.832C1385.59 596.832 1384.79 596.971 1384.02 597.248C1383.27 597.504 1382.56 597.803 1381.88 598.144L1381.01 596.032C1381.74 595.627 1382.58 595.285 1383.54 595.008C1384.5 594.709 1385.51 594.56 1386.58 594.56ZM1387.35 603.712C1385.38 603.797 1384.02 604.139 1383.25 604.736C1382.5 605.333 1382.13 606.176 1382.13 607.264C1382.13 608.224 1382.4 608.928 1382.93 609.376C1383.46 609.824 1384.16 610.048 1385.01 610.048C1386.33 610.048 1387.44 609.653 1388.34 608.864C1389.24 608.053 1389.68 606.816 1389.68 605.152V603.616L1387.35 603.712ZM1397.02 610.272C1397.02 609.483 1397.2 608.928 1397.56 608.608C1397.93 608.288 1398.37 608.128 1398.91 608.128C1399.44 608.128 1399.9 608.288 1400.28 608.608C1400.67 608.928 1400.86 609.483 1400.86 610.272C1400.86 611.04 1400.67 611.595 1400.28 611.936C1399.9 612.277 1399.44 612.448 1398.91 612.448C1398.37 612.448 1397.93 612.277 1397.56 611.936C1397.2 611.595 1397.02 611.04 1397.02 610.272ZM1412.02 612.32C1410.57 612.32 1409.29 612.011 1408.18 611.392C1407.07 610.773 1406.2 609.813 1405.56 608.512C1404.94 607.211 1404.63 605.547 1404.63 603.52C1404.63 601.408 1404.96 599.691 1405.62 598.368C1406.29 597.045 1407.18 596.075 1408.31 595.456C1409.46 594.837 1410.77 594.528 1412.22 594.528C1413.05 594.528 1413.85 594.624 1414.62 594.816C1415.41 594.987 1416.05 595.2 1416.54 595.456L1415.67 597.792C1415.18 597.6 1414.61 597.419 1413.94 597.248C1413.3 597.077 1412.71 596.992 1412.15 596.992C1411.11 596.992 1410.24 597.237 1409.56 597.728C1408.88 598.219 1408.37 598.944 1408.02 599.904C1407.68 600.864 1407.51 602.059 1407.51 603.488C1407.51 604.853 1407.68 606.016 1408.02 606.976C1408.37 607.936 1408.87 608.661 1409.53 609.152C1410.21 609.643 1411.04 609.888 1412.02 609.888C1412.9 609.888 1413.68 609.792 1414.36 609.6C1415.04 609.408 1415.67 609.173 1416.25 608.896V611.392C1415.69 611.691 1415.09 611.915 1414.42 612.064C1413.76 612.235 1412.96 612.32 1412.02 612.32ZM1434.17 603.392C1434.17 604.821 1433.99 606.091 1433.63 607.2C1433.29 608.288 1432.78 609.216 1432.12 609.984C1431.46 610.752 1430.66 611.339 1429.72 611.744C1428.78 612.128 1427.74 612.32 1426.59 612.32C1425.52 612.32 1424.53 612.128 1423.61 611.744C1422.72 611.339 1421.93 610.752 1421.24 609.984C1420.58 609.216 1420.07 608.288 1419.71 607.2C1419.34 606.091 1419.16 604.821 1419.16 603.392C1419.16 601.493 1419.46 599.893 1420.06 598.592C1420.68 597.269 1421.55 596.267 1422.68 595.584C1423.81 594.88 1425.15 594.528 1426.68 594.528C1428.16 594.528 1429.45 594.88 1430.56 595.584C1431.69 596.267 1432.57 597.269 1433.21 598.592C1433.85 599.893 1434.17 601.493 1434.17 603.392ZM1422.04 603.392C1422.04 604.736 1422.2 605.909 1422.52 606.912C1422.84 607.893 1423.34 608.651 1424.03 609.184C1424.71 609.717 1425.58 609.984 1426.65 609.984C1427.72 609.984 1428.59 609.717 1429.28 609.184C1429.96 608.651 1430.46 607.893 1430.78 606.912C1431.12 605.909 1431.29 604.736 1431.29 603.392C1431.29 602.027 1431.12 600.864 1430.78 599.904C1430.46 598.944 1429.96 598.208 1429.28 597.696C1428.59 597.163 1427.71 596.896 1426.62 596.896C1425.02 596.896 1423.86 597.472 1423.13 598.624C1422.41 599.776 1422.04 601.365 1422.04 603.392ZM1456.13 594.528C1457.97 594.528 1459.33 595.029 1460.23 596.032C1461.13 597.013 1461.57 598.613 1461.57 600.832V612H1458.82V600.96C1458.82 599.616 1458.55 598.603 1458.02 597.92C1457.51 597.237 1456.7 596.896 1455.59 596.896C1454.05 596.896 1452.95 597.376 1452.29 598.336C1451.65 599.296 1451.33 600.693 1451.33 602.528V612H1448.55V600.96C1448.55 600.064 1448.43 599.317 1448.2 598.72C1447.96 598.101 1447.61 597.643 1447.14 597.344C1446.67 597.045 1446.06 596.896 1445.32 596.896C1444.25 596.896 1443.41 597.141 1442.79 597.632C1442.17 598.101 1441.73 598.795 1441.48 599.712C1441.22 600.629 1441.09 601.76 1441.09 603.104V612H1438.31V594.848H1440.55L1440.97 597.184H1441.13C1441.47 596.587 1441.88 596.096 1442.37 595.712C1442.86 595.307 1443.41 595.008 1444.01 594.816C1444.6 594.624 1445.22 594.528 1445.86 594.528C1447.1 594.528 1448.13 594.763 1448.97 595.232C1449.8 595.701 1450.41 596.427 1450.79 597.408H1450.98C1451.51 596.427 1452.24 595.701 1453.16 595.232C1454.1 594.763 1455.09 594.528 1456.13 594.528Z" fill="#DA9218"/>
<path d="M1191.22 616H1464.01V617.6H1191.22V616Z" fill="#DA9218"/>
<a href="https://rachelatmadja.com/">
<rect fill="black" fill-opacity="0" x="79.2188" y="0.208" width="272.786" height="43.584"/>
</a>
<g filter="url(#filter0_d_15105_9)">
<path fill-rule="evenodd" clip-rule="evenodd" d="M120.018 251.188C183.982 248.558 235.035 195.605 235.035 130.677L115.017 130.677L115.017 130.775C51.0522 133.405 8.34067e-05 186.359 8.05687e-05 251.286L120.018 251.286L120.018 251.188ZM235.035 0L235.035 120.61L5.57631e-05 120.61L6.10352e-05 -1.02737e-05L235.035 0Z" fill="#62474E"/>
</g>
<mask id="path-5-inside-1_15105_9" fill="white">
<path fill-rule="evenodd" clip-rule="evenodd" d="M120.018 382.247C183.982 379.611 235.035 326.562 235.035 261.517L115.017 261.517L115.017 261.616C51.0522 264.251 8.33988e-05 317.3 8.05555e-05 382.345L120.018 382.345L120.018 382.247ZM120.395 130.857L120.395 130.759L114.64 130.759L114.64 130.857C50.8848 133.492 5.85968e-05 186.541 5.57536e-05 251.586L235.035 251.586C235.035 186.541 184.15 133.492 120.395 130.857Z"/>
</mask>
<path d="M235.035 261.517L237.535 261.517L237.535 259.017L235.035 259.017L235.035 261.517ZM120.018 382.247L119.915 379.749L117.518 379.847L117.518 382.247L120.018 382.247ZM115.017 261.517L115.017 259.017L112.517 259.017L112.517 261.517L115.017 261.517ZM115.017 261.616L115.12 264.114L117.517 264.015L117.517 261.616L115.017 261.616ZM5.0038e-05 382.345L-2.49995 382.345L-2.49995 384.845L4.99287e-05 384.845L5.0038e-05 382.345ZM120.018 382.345L120.018 384.845L122.518 384.845L122.518 382.345L120.018 382.345ZM120.395 130.759L122.895 130.759L122.895 128.259L120.395 128.259L120.395 130.759ZM120.395 130.857L117.895 130.857L117.895 133.256L120.292 133.355L120.395 130.857ZM114.64 130.759L114.64 128.259L112.14 128.259L112.14 130.759L114.64 130.759ZM114.64 130.857L114.743 133.355L117.14 133.256L117.14 130.857L114.64 130.857ZM2.5236e-05 251.586L-2.49997 251.586L-2.49997 254.086L2.51268e-05 254.086L2.5236e-05 251.586ZM235.035 251.586L235.035 254.086L237.535 254.086L237.535 251.586L235.035 251.586ZM232.535 261.517C232.535 325.231 182.53 377.169 119.915 379.749L120.121 384.744C185.435 382.054 237.535 327.893 237.535 261.517L232.535 261.517ZM115.017 264.017L235.035 264.017L235.035 259.017L115.017 259.017L115.017 264.017ZM117.517 261.616L117.517 261.517L112.517 261.517L112.517 261.616L117.517 261.616ZM2.50005 382.345C2.50005 318.631 52.5043 266.693 115.12 264.114L114.914 259.118C49.6001 261.809 -2.49995 315.969 -2.49995 382.345L2.50005 382.345ZM120.018 379.845L5.01472e-05 379.845L4.99287e-05 384.845L120.018 384.845L120.018 379.845ZM117.518 382.247L117.518 382.345L122.518 382.345L122.518 382.247L117.518 382.247ZM117.895 130.759L117.895 130.857L122.895 130.857L122.895 130.759L117.895 130.759ZM114.64 133.259L120.395 133.259L120.395 128.259L114.64 128.259L114.64 133.259ZM117.14 130.857L117.14 130.759L112.14 130.759L112.14 130.857L117.14 130.857ZM2.50003 251.586C2.50003 187.864 52.3443 135.934 114.743 133.355L114.537 128.359C49.4252 131.05 -2.49997 185.217 -2.49997 251.586L2.50003 251.586ZM235.035 249.086L2.53453e-05 249.086L2.51268e-05 254.086L235.035 254.086L235.035 249.086ZM120.292 133.355C182.69 135.934 232.535 187.864 232.535 251.586L237.535 251.586C237.535 185.217 185.609 131.05 120.498 128.359L120.292 133.355Z" fill="#DA9218" mask="url(#path-5-inside-1_15105_9)"/>
<path d="M1636 550C1636 474.634 1697.69 413.167 1774.98 410.114L1774.98 410L1920 410C1920 485.366 1858.31 546.833 1781.02 549.886L1781.02 550L1636 550Z" fill="#784853"/>
<path d="M1774.98 697.886L1774.98 698L1920 698L1920 558L1781.02 558L1636 558L1636 698L1774.98 697.886Z" fill="#784853"/>
<path d="M1920 854C1920 929.366 1858.31 990.833 1781.02 993.886L1781.02 994L1636 994L1636 854L1774.98 854L1920 854Z" fill="#62474E"/>
<path d="M1920 1142C1920 1066.63 1858.31 1005.17 1781.02 1002.11L1781.02 1002L1636 1002L1636 1142L1774.98 1142L1920 1142Z" fill="#62474E"/>
<path d="M1776.48 548.5L1918.5 548.5L1918.5 411.5L1781.02 411.5L1637.5 411.5L1637.5 548.499L1774.98 548.386L1776.48 548.385L1776.48 548.5Z" stroke="#DA9218" stroke-width="3"/>
<path d="M1778 401.5C1701.95 401.5 1640 340.593 1637.54 264.5L1918.46 264.5C1916 340.593 1854.05 401.5 1778 401.5Z" stroke="#DA9218" stroke-width="3"/>
<path d="M1778 992.5C1701.95 992.5 1640 931.593 1637.54 855.5L1918.46 855.5C1916 931.593 1854.05 992.5 1778 992.5Z" stroke="#DA9218" stroke-width="3"/>
<path d="M1778 709.67C1701.95 709.67 1640 770.577 1637.54 846.67L1918.46 846.67C1916 770.577 1854.05 709.67 1778 709.67Z" stroke="#DA9218" stroke-width="3"/>
<rect x="241" y="547" width="1223" height="3" fill="#DA9218"/>
</g>
<defs>
<filter id="filter0_d_15105_9" x="-3.99994" y="0" width="243.034" height="259.286" filterUnits="userSpaceOnUse" color-interpolation-filters="sRGB">
<feFlood flood-opacity="0" result="BackgroundImageFix"/>
<feColorMatrix in="SourceAlpha" type="matrix" values="0 0 0 0 0 0 0 0 0 0 0 0 0 0 0 0 0 0 127 0" result="hardAlpha"/>
<feOffset dy="4"/>
<feGaussianBlur stdDeviation="2"/>
<feColorMatrix type="matrix" values="0 0 0 0 0 0 0 0 0 0 0 0 0 0 0 0 0 0 0.04 0"/>
<feBlend mode="normal" in2="BackgroundImageFix" result="effect1_dropShadow_15105_9"/>
<feBlend mode="normal" in="SourceGraphic" in2="effect1_dropShadow_15105_9" result="shape"/>
</filter>
<clipPath id="clip0_15105_9">
<rect width="1920" height="1080" fill="white"/>
</clipPath>
</defs>
</svg>
