<svg width="1920" height="1080" viewBox="0 0 1920 1080" fill="none" xmlns="http://www.w3.org/2000/svg">
<g clip-path="url(#clip0_15105_9)">
<rect width="1920" height="1080" fill="#3D2B2F"/>
<path d="M293.984 447.688C293.984 456.328 292.436 463.564 289.34 469.396C286.316 475.228 281.816 479.62 275.84 482.572C269.936 485.524 262.592 487 253.808 487H234.8V409.888H256.184C264.32 409.888 271.196 411.328 276.812 414.208C282.428 417.088 286.676 421.336 289.556 426.952C292.508 432.568 293.984 439.48 293.984 447.688ZM287.504 447.904C287.504 440.632 286.316 434.62 283.94 429.868C281.564 425.044 277.964 421.444 273.14 419.068C268.316 416.62 262.268 415.396 254.996 415.396H241.064V481.492H253.376C264.824 481.492 273.356 478.72 278.972 473.176C284.66 467.56 287.504 459.136 287.504 447.904ZM331.993 428.464C336.961 428.464 341.065 429.616 344.305 431.92C347.617 434.152 350.101 437.248 351.757 441.208C353.485 445.168 354.349 449.74 354.349 454.924V459.028H313.309C313.309 466.732 315.073 472.6 318.601 476.632C322.201 480.664 327.277 482.68 333.829 482.68C337.429 482.68 340.561 482.392 343.225 481.816C345.889 481.24 348.805 480.232 351.973 478.792V484.408C349.093 485.704 346.249 486.64 343.441 487.216C340.633 487.792 337.357 488.08 333.613 488.08C327.925 488.08 323.065 486.892 319.033 484.516C315.073 482.14 312.049 478.756 309.961 474.364C307.945 469.9 306.937 464.716 306.937 458.812C306.937 452.908 307.909 447.688 309.853 443.152C311.797 438.616 314.641 435.052 318.385 432.46C322.129 429.796 326.665 428.464 331.993 428.464ZM331.993 433.648C326.665 433.648 322.381 435.412 319.141 438.94C315.901 442.396 313.993 447.4 313.417 453.952H347.977C347.977 449.92 347.401 446.392 346.249 443.368C345.097 440.344 343.333 437.968 340.957 436.24C338.653 434.512 335.665 433.648 331.993 433.648ZM405.947 471.772C405.947 475.228 405.083 478.18 403.355 480.628C401.627 483.076 399.107 484.948 395.795 486.244C392.483 487.468 388.451 488.08 383.699 488.08C379.739 488.08 376.211 487.72 373.115 487C370.019 486.28 367.391 485.416 365.231 484.408V478.468C367.823 479.764 370.739 480.844 373.979 481.708C377.219 482.5 380.495 482.896 383.807 482.896C389.567 482.896 393.707 481.96 396.227 480.088C398.747 478.144 400.007 475.516 400.007 472.204C400.007 470.044 399.395 468.28 398.171 466.912C397.019 465.472 395.255 464.212 392.879 463.132C390.575 461.98 387.695 460.828 384.239 459.676C380.711 458.452 377.579 457.228 374.843 456.004C372.107 454.708 369.983 453.088 368.471 451.144C366.959 449.2 366.203 446.536 366.203 443.152C366.203 438.544 368.075 434.944 371.819 432.352C375.563 429.76 380.567 428.464 386.831 428.464C390.287 428.464 393.491 428.788 396.443 429.436C399.467 430.084 402.203 430.948 404.651 432.028L402.491 437.104C401.051 436.456 399.431 435.88 397.631 435.376C395.831 434.8 393.995 434.368 392.123 434.08C390.251 433.792 388.379 433.648 386.507 433.648C381.971 433.648 378.443 434.44 375.923 436.024C373.403 437.608 372.143 439.912 372.143 442.936C372.143 445.24 372.719 447.076 373.871 448.444C375.095 449.74 376.859 450.856 379.163 451.792C381.539 452.728 384.383 453.808 387.695 455.032C391.079 456.184 394.139 457.408 396.875 458.704C399.683 460 401.879 461.656 403.463 463.672C405.119 465.688 405.947 468.388 405.947 471.772ZM426.443 429.544V487H420.395V429.544H426.443ZM423.419 408.268C424.787 408.268 425.831 408.7 426.551 409.564C427.271 410.356 427.631 411.472 427.631 412.912C427.631 414.424 427.271 415.612 426.551 416.476C425.831 417.268 424.787 417.664 423.419 417.664C422.123 417.664 421.115 417.268 420.395 416.476C419.675 415.612 419.315 414.424 419.315 412.912C419.315 411.472 419.675 410.356 420.395 409.564C421.115 408.7 422.123 408.268 423.419 408.268ZM466.556 428.464C471.092 428.464 474.836 429.364 477.788 431.164C480.74 432.892 483.116 435.268 484.916 438.292H485.348L486.212 429.544H491.18V488.836C491.18 493.876 490.316 498.16 488.588 501.688C486.86 505.288 484.16 508.06 480.488 510.004C476.888 511.948 472.172 512.92 466.34 512.92C462.092 512.92 458.276 512.56 454.892 511.84C451.58 511.12 448.592 510.184 445.928 509.032V503.092C447.728 503.956 449.708 504.748 451.868 505.468C454.028 506.188 456.332 506.728 458.78 507.088C461.3 507.448 463.928 507.628 466.664 507.628C473 507.628 477.644 505.972 480.596 502.66C483.62 499.348 485.132 494.884 485.132 489.268V485.812C485.132 484.3 485.132 482.788 485.132 481.276C485.204 479.692 485.276 478.216 485.348 476.848H485.024C483.368 480.52 480.92 483.328 477.68 485.272C474.44 487.144 470.48 488.08 465.8 488.08C458.384 488.08 452.588 485.56 448.412 480.52C444.236 475.48 442.148 468.244 442.148 458.812C442.148 452.548 443.084 447.148 444.956 442.612C446.828 438.076 449.564 434.584 453.164 432.136C456.836 429.688 461.3 428.464 466.556 428.464ZM467.204 433.756C463.028 433.756 459.536 434.764 456.728 436.78C453.992 438.724 451.94 441.568 450.572 445.312C449.204 448.984 448.52 453.484 448.52 458.812C448.52 466.66 450.068 472.636 453.164 476.74C456.26 480.844 460.688 482.896 466.448 482.896C470.12 482.896 473.144 482.356 475.52 481.276C477.896 480.124 479.768 478.54 481.136 476.524C482.576 474.508 483.584 472.132 484.16 469.396C484.808 466.588 485.132 463.6 485.132 460.432V456.652C485.132 451.756 484.556 447.616 483.404 444.232C482.252 440.848 480.344 438.256 477.68 436.456C475.088 434.656 471.596 433.756 467.204 433.756ZM535.853 428.464C542.405 428.464 547.409 430.156 550.865 433.54C554.321 436.924 556.049 442.252 556.049 449.524V487H550.001V449.848C550.001 444.304 548.741 440.236 546.221 437.644C543.701 435.052 539.993 433.756 535.097 433.756C528.833 433.756 524.117 435.592 520.949 439.264C517.781 442.936 516.197 448.408 516.197 455.68V487H510.149V429.544H515.009L515.981 439.48H516.305C517.385 437.392 518.825 435.52 520.625 433.864C522.425 432.208 524.585 430.912 527.105 429.976C529.697 428.968 532.613 428.464 535.853 428.464ZM580.427 429.544V487H574.379V429.544H580.427ZM577.403 408.268C578.771 408.268 579.815 408.7 580.535 409.564C581.255 410.356 581.615 411.472 581.615 412.912C581.615 414.424 581.255 415.612 580.535 416.476C579.815 417.268 578.771 417.664 577.403 417.664C576.107 417.664 575.099 417.268 574.379 416.476C573.659 415.612 573.299 414.424 573.299 412.912C573.299 411.472 573.659 410.356 574.379 409.564C575.099 408.7 576.107 408.268 577.403 408.268ZM625.185 428.464C631.737 428.464 636.741 430.156 640.197 433.54C643.653 436.924 645.381 442.252 645.381 449.524V487H639.333V449.848C639.333 444.304 638.073 440.236 635.553 437.644C633.033 435.052 629.325 433.756 624.429 433.756C618.165 433.756 613.449 435.592 610.281 439.264C607.113 442.936 605.529 448.408 605.529 455.68V487H599.481V429.544H604.341L605.313 439.48H605.637C606.717 437.392 608.157 435.52 609.957 433.864C611.757 432.208 613.917 430.912 616.437 429.976C619.029 428.968 621.945 428.464 625.185 428.464ZM684.771 428.464C689.307 428.464 693.051 429.364 696.003 431.164C698.955 432.892 701.331 435.268 703.131 438.292H703.563L704.427 429.544H709.395V488.836C709.395 493.876 708.531 498.16 706.803 501.688C705.075 505.288 702.375 508.06 698.703 510.004C695.103 511.948 690.387 512.92 684.555 512.92C680.307 512.92 676.491 512.56 673.107 511.84C669.795 511.12 666.807 510.184 664.143 509.032V503.092C665.943 503.956 667.923 504.748 670.083 505.468C672.243 506.188 674.547 506.728 676.995 507.088C679.515 507.448 682.143 507.628 684.879 507.628C691.215 507.628 695.859 505.972 698.811 502.66C701.835 499.348 703.347 494.884 703.347 489.268V485.812C703.347 484.3 703.347 482.788 703.347 481.276C703.419 479.692 703.491 478.216 703.563 476.848H703.239C701.583 480.52 699.135 483.328 695.895 485.272C692.655 487.144 688.695 488.08 684.015 488.08C676.599 488.08 670.803 485.56 666.627 480.52C662.451 475.48 660.363 468.244 660.363 458.812C660.363 452.548 661.299 447.148 663.171 442.612C665.043 438.076 667.779 434.584 671.379 432.136C675.051 429.688 679.515 428.464 684.771 428.464ZM685.419 433.756C681.243 433.756 677.751 434.764 674.943 436.78C672.207 438.724 670.155 441.568 668.787 445.312C667.419 448.984 666.735 453.484 666.735 458.812C666.735 466.66 668.283 472.636 671.379 476.74C674.475 480.844 678.903 482.896 684.663 482.896C688.335 482.896 691.359 482.356 693.735 481.276C696.111 480.124 697.983 478.54 699.351 476.524C700.791 474.508 701.799 472.132 702.375 469.396C703.023 466.588 703.347 463.6 703.347 460.432V456.652C703.347 451.756 702.771 447.616 701.619 444.232C700.467 440.848 698.559 438.256 695.895 436.456C693.303 434.656 689.811 433.756 685.419 433.756ZM776.938 409.888C783.13 409.888 788.278 410.608 792.382 412.048C796.486 413.416 799.546 415.648 801.562 418.744C803.65 421.84 804.694 425.944 804.694 431.056C804.694 435.016 803.974 438.4 802.534 441.208C801.094 443.944 799.114 446.212 796.594 448.012C794.146 449.74 791.374 451.072 788.278 452.008L809.446 487H801.994L782.338 453.736H763.978V487H757.714V409.888H776.938ZM776.398 415.396H763.978V448.336H778.558C782.734 448.336 786.298 447.688 789.25 446.392C792.202 445.096 794.434 443.188 795.946 440.668C797.458 438.076 798.214 434.944 798.214 431.272C798.214 427.312 797.422 424.18 795.838 421.876C794.254 419.572 791.842 417.916 788.602 416.908C785.362 415.9 781.294 415.396 776.398 415.396ZM842.778 428.464C847.746 428.464 851.85 429.616 855.09 431.92C858.402 434.152 860.886 437.248 862.542 441.208C864.27 445.168 865.134 449.74 865.134 454.924V459.028H824.094C824.094 466.732 825.858 472.6 829.386 476.632C832.986 480.664 838.062 482.68 844.614 482.68C848.214 482.68 851.346 482.392 854.01 481.816C856.674 481.24 859.59 480.232 862.758 478.792V484.408C859.878 485.704 857.034 486.64 854.226 487.216C851.418 487.792 848.142 488.08 844.398 488.08C838.71 488.08 833.85 486.892 829.818 484.516C825.858 482.14 822.834 478.756 820.746 474.364C818.73 469.9 817.722 464.716 817.722 458.812C817.722 452.908 818.694 447.688 820.638 443.152C822.582 438.616 825.426 435.052 829.17 432.46C832.914 429.796 837.45 428.464 842.778 428.464ZM842.778 433.648C837.45 433.648 833.166 435.412 829.926 438.94C826.686 442.396 824.778 447.4 824.202 453.952H858.762C858.762 449.92 858.186 446.392 857.034 443.368C855.882 440.344 854.118 437.968 851.742 436.24C849.438 434.512 846.45 433.648 842.778 433.648ZM916.732 471.772C916.732 475.228 915.868 478.18 914.14 480.628C912.412 483.076 909.892 484.948 906.58 486.244C903.268 487.468 899.236 488.08 894.484 488.08C890.524 488.08 886.996 487.72 883.9 487C880.804 486.28 878.176 485.416 876.016 484.408V478.468C878.608 479.764 881.524 480.844 884.764 481.708C888.004 482.5 891.28 482.896 894.592 482.896C900.352 482.896 904.492 481.96 907.012 480.088C909.532 478.144 910.792 475.516 910.792 472.204C910.792 470.044 910.18 468.28 908.956 466.912C907.804 465.472 906.04 464.212 903.664 463.132C901.36 461.98 898.48 460.828 895.024 459.676C891.496 458.452 888.364 457.228 885.628 456.004C882.892 454.708 880.768 453.088 879.256 451.144C877.744 449.2 876.988 446.536 876.988 443.152C876.988 438.544 878.86 434.944 882.604 432.352C886.348 429.76 891.352 428.464 897.616 428.464C901.072 428.464 904.276 428.788 907.228 429.436C910.252 430.084 912.988 430.948 915.436 432.028L913.276 437.104C911.836 436.456 910.216 435.88 908.416 435.376C906.616 434.8 904.78 434.368 902.908 434.08C901.036 433.792 899.164 433.648 897.292 433.648C892.756 433.648 889.228 434.44 886.708 436.024C884.188 437.608 882.928 439.912 882.928 442.936C882.928 445.24 883.504 447.076 884.656 448.444C885.88 449.74 887.644 450.856 889.948 451.792C892.324 452.728 895.168 453.808 898.48 455.032C901.864 456.184 904.924 457.408 907.66 458.704C910.468 460 912.664 461.656 914.248 463.672C915.904 465.688 916.732 468.388 916.732 471.772ZM956.884 428.464C964.228 428.464 969.952 430.948 974.056 435.916C978.232 440.884 980.32 448.228 980.32 457.948C980.32 464.428 979.348 469.936 977.404 474.472C975.46 478.936 972.688 482.32 969.088 484.624C965.56 486.928 961.312 488.08 956.344 488.08C952.96 488.08 950.008 487.576 947.488 486.568C944.968 485.56 942.88 484.228 941.224 482.572C939.568 480.916 938.272 479.08 937.336 477.064H936.904C937.048 478.864 937.156 480.844 937.228 483.004C937.3 485.092 937.336 487.036 937.336 488.836V512.488H931.18V429.544H936.256L937.012 440.344H937.336C938.272 438.256 939.604 436.312 941.332 434.512C943.06 432.712 945.184 431.272 947.704 430.192C950.296 429.04 953.356 428.464 956.884 428.464ZM956.02 433.756C951.772 433.756 948.28 434.656 945.544 436.456C942.808 438.256 940.756 440.92 939.388 444.448C938.02 447.904 937.336 452.188 937.336 457.3V458.38C937.336 463.78 937.984 468.316 939.28 471.988C940.648 475.588 942.664 478.288 945.328 480.088C948.064 481.888 951.484 482.788 955.588 482.788C959.62 482.788 962.968 481.816 965.632 479.872C968.368 477.856 970.42 475.012 971.788 471.34C973.228 467.596 973.948 463.132 973.948 457.948C973.948 450.1 972.472 444.124 969.52 440.02C966.568 435.844 962.068 433.756 956.02 433.756ZM1043.89 458.272C1043.89 462.736 1043.32 466.804 1042.16 470.476C1041.08 474.076 1039.43 477.208 1037.2 479.872C1035.04 482.464 1032.34 484.48 1029.1 485.92C1025.86 487.36 1022.15 488.08 1017.97 488.08C1014.01 488.08 1010.45 487.396 1007.28 486.028C1004.18 484.588 1001.52 482.572 999.288 479.98C997.056 477.316 995.364 474.148 994.212 470.476C993.06 466.804 992.484 462.736 992.484 458.272C992.484 452.008 993.492 446.68 995.508 442.288C997.596 437.824 1000.58 434.404 1004.47 432.028C1008.43 429.652 1013.11 428.464 1018.51 428.464C1023.98 428.464 1028.59 429.724 1032.34 432.244C1036.15 434.692 1039.03 438.148 1040.98 442.612C1042.92 447.076 1043.89 452.296 1043.89 458.272ZM998.856 458.272C998.856 463.168 999.54 467.488 1000.91 471.232C1002.28 474.904 1004.4 477.748 1007.28 479.764C1010.16 481.78 1013.76 482.788 1018.08 482.788C1022.54 482.788 1026.22 481.78 1029.1 479.764C1031.98 477.676 1034.1 474.796 1035.47 471.124C1036.84 467.38 1037.52 463.096 1037.52 458.272C1037.52 453.448 1036.87 449.2 1035.58 445.528C1034.28 441.856 1032.23 438.976 1029.42 436.888C1026.61 434.8 1022.94 433.756 1018.4 433.756C1011.85 433.756 1006.96 435.916 1003.72 440.236C1000.48 444.556 998.856 450.568 998.856 458.272ZM1085.24 428.464C1091.79 428.464 1096.8 430.156 1100.25 433.54C1103.71 436.924 1105.44 442.252 1105.44 449.524V487H1099.39V449.848C1099.39 444.304 1098.13 440.236 1095.61 437.644C1093.09 435.052 1089.38 433.756 1084.48 433.756C1078.22 433.756 1073.5 435.592 1070.34 439.264C1067.17 442.936 1065.58 448.408 1065.58 455.68V487H1059.54V429.544H1064.4L1065.37 439.48H1065.69C1066.77 437.392 1068.21 435.52 1070.01 433.864C1071.81 432.208 1073.97 430.912 1076.49 429.976C1079.08 428.968 1082 428.464 1085.24 428.464ZM1159.84 471.772C1159.84 475.228 1158.97 478.18 1157.25 480.628C1155.52 483.076 1153 484.948 1149.69 486.244C1146.37 487.468 1142.34 488.08 1137.59 488.08C1133.63 488.08 1130.1 487.72 1127.01 487C1123.91 486.28 1121.28 485.416 1119.12 484.408V478.468C1121.71 479.764 1124.63 480.844 1127.87 481.708C1131.11 482.5 1134.39 482.896 1137.7 482.896C1143.46 482.896 1147.6 481.96 1150.12 480.088C1152.64 478.144 1153.9 475.516 1153.9 472.204C1153.9 470.044 1153.29 468.28 1152.06 466.912C1150.91 465.472 1149.15 464.212 1146.77 463.132C1144.47 461.98 1141.59 460.828 1138.13 459.676C1134.6 458.452 1131.47 457.228 1128.73 456.004C1126 454.708 1123.87 453.088 1122.36 451.144C1120.85 449.2 1120.09 446.536 1120.09 443.152C1120.09 438.544 1121.97 434.944 1125.71 432.352C1129.45 429.76 1134.46 428.464 1140.72 428.464C1144.18 428.464 1147.38 428.788 1150.33 429.436C1153.36 430.084 1156.09 430.948 1158.54 432.028L1156.38 437.104C1154.94 436.456 1153.32 435.88 1151.52 435.376C1149.72 434.8 1147.89 434.368 1146.01 434.08C1144.14 433.792 1142.27 433.648 1140.4 433.648C1135.86 433.648 1132.33 434.44 1129.81 436.024C1127.29 437.608 1126.03 439.912 1126.03 442.936C1126.03 445.24 1126.61 447.076 1127.76 448.444C1128.99 449.74 1130.75 450.856 1133.05 451.792C1135.43 452.728 1138.27 453.808 1141.59 455.032C1144.97 456.184 1148.03 457.408 1150.77 458.704C1153.57 460 1155.77 461.656 1157.35 463.672C1159.01 465.688 1159.84 468.388 1159.84 471.772ZM1180.33 429.544V487H1174.29V429.544H1180.33ZM1177.31 408.268C1178.68 408.268 1179.72 408.7 1180.44 409.564C1181.16 410.356 1181.52 411.472 1181.52 412.912C1181.52 414.424 1181.16 415.612 1180.44 416.476C1179.72 417.268 1178.68 417.664 1177.31 417.664C1176.01 417.664 1175.01 417.268 1174.29 416.476C1173.57 415.612 1173.21 414.424 1173.21 412.912C1173.21 411.472 1173.57 410.356 1174.29 409.564C1175.01 408.7 1176.01 408.268 1177.31 408.268ZM1205.43 427.6C1205.43 429.688 1205.4 431.92 1205.33 434.296C1205.25 436.6 1205.15 438.508 1205 440.02H1205.43C1206.87 436.708 1209.21 433.972 1212.45 431.812C1215.77 429.58 1219.94 428.464 1224.98 428.464C1232.33 428.464 1238.05 430.984 1242.15 436.024C1246.33 440.992 1248.42 448.372 1248.42 458.164C1248.42 464.212 1247.48 469.468 1245.61 473.932C1243.81 478.396 1241.07 481.888 1237.4 484.408C1233.8 486.856 1229.37 488.08 1224.12 488.08C1219.29 488.08 1215.33 487.072 1212.24 485.056C1209.21 483.04 1206.98 480.592 1205.54 477.712H1205L1203.81 487H1199.28V404.92H1205.43V427.6ZM1224.12 433.756C1219.73 433.756 1216.13 434.692 1213.32 436.564C1210.58 438.436 1208.57 441.172 1207.27 444.772C1206.05 448.372 1205.43 452.836 1205.43 458.164V458.92C1205.43 466.696 1206.8 472.636 1209.54 476.74C1212.35 480.772 1216.95 482.788 1223.36 482.788C1229.55 482.788 1234.2 480.664 1237.29 476.416C1240.46 472.168 1242.05 466.084 1242.05 458.164C1242.05 450.028 1240.57 443.944 1237.62 439.912C1234.67 435.808 1230.17 433.756 1224.12 433.756ZM1270.2 487H1264.04V404.92H1270.2V487ZM1310.85 428.464C1315.82 428.464 1319.92 429.616 1323.16 431.92C1326.47 434.152 1328.96 437.248 1330.61 441.208C1332.34 445.168 1333.2 449.74 1333.2 454.924V459.028H1292.16C1292.16 466.732 1293.93 472.6 1297.46 476.632C1301.06 480.664 1306.13 482.68 1312.68 482.68C1316.28 482.68 1319.42 482.392 1322.08 481.816C1324.74 481.24 1327.66 480.232 1330.83 478.792V484.408C1327.95 485.704 1325.1 486.64 1322.3 487.216C1319.49 487.792 1316.21 488.08 1312.47 488.08C1306.78 488.08 1301.92 486.892 1297.89 484.516C1293.93 482.14 1290.9 478.756 1288.82 474.364C1286.8 469.9 1285.79 464.716 1285.79 458.812C1285.79 452.908 1286.76 447.688 1288.71 443.152C1290.65 438.616 1293.5 435.052 1297.24 432.46C1300.98 429.796 1305.52 428.464 1310.85 428.464ZM1310.85 433.648C1305.52 433.648 1301.24 435.412 1298 438.94C1294.76 442.396 1292.85 447.4 1292.27 453.952H1326.83C1326.83 449.92 1326.26 446.392 1325.1 443.368C1323.95 440.344 1322.19 437.968 1319.81 436.24C1317.51 434.512 1314.52 433.648 1310.85 433.648ZM1426.36 487L1416.1 460.432H1384.02L1373.65 487H1367.28L1397.63 409.672H1403.25L1432.84 487H1426.36ZM1403.79 426.952C1403.57 426.232 1403.25 425.26 1402.81 424.036C1402.38 422.812 1401.95 421.516 1401.52 420.148C1401.09 418.78 1400.65 417.556 1400.22 416.476C1399.86 417.7 1399.47 418.96 1399.03 420.256C1398.67 421.552 1398.28 422.776 1397.85 423.928C1397.49 425.08 1397.13 426.124 1396.77 427.06L1386.18 454.816H1414.15L1403.79 426.952ZM1461.07 487H1438.5V483.112L1446.7 481.924V415.072L1438.5 413.776V409.888H1461.07V413.776L1452.86 415.072V481.924L1461.07 483.112V487Z" fill="#F2F2F2"/>
<path d="M244.784 561.008C247.192 561.008 248.993 561.475 250.188 562.408C251.383 563.341 251.98 564.76 251.98 566.664C251.98 567.616 251.821 568.475 251.504 569.24C251.205 570.005 250.739 570.659 250.104 571.2C249.488 571.723 248.695 572.124 247.724 572.404C246.772 572.684 245.643 572.824 244.336 572.824H241.424V581H239.8V561.008H244.784ZM244.616 562.436H241.424V571.424H244.168C245.456 571.424 246.557 571.284 247.472 571.004C248.405 570.705 249.105 570.22 249.572 569.548C250.057 568.857 250.3 567.924 250.3 566.748C250.3 565.255 249.843 564.163 248.928 563.472C248.013 562.781 246.576 562.436 244.616 562.436ZM262.056 565.852C262.43 565.852 262.784 565.88 263.12 565.936C263.475 565.973 263.792 566.029 264.072 566.104L263.848 567.56C263.55 567.485 263.251 567.429 262.952 567.392C262.654 567.336 262.327 567.308 261.972 567.308C261.3 567.308 260.694 567.439 260.152 567.7C259.611 567.961 259.144 568.335 258.752 568.82C258.36 569.305 258.062 569.884 257.856 570.556C257.651 571.228 257.548 571.984 257.548 572.824V581H255.952V566.104H257.296L257.464 568.904H257.548C257.791 568.325 258.118 567.812 258.528 567.364C258.958 566.897 259.471 566.533 260.068 566.272C260.666 565.992 261.328 565.852 262.056 565.852ZM272.053 565.824C273.341 565.824 274.405 566.123 275.245 566.72C276.104 567.299 276.748 568.101 277.177 569.128C277.625 570.155 277.849 571.34 277.849 572.684V573.748H267.209C267.209 575.745 267.666 577.267 268.581 578.312C269.514 579.357 270.83 579.88 272.529 579.88C273.462 579.88 274.274 579.805 274.965 579.656C275.656 579.507 276.412 579.245 277.233 578.872V580.328C276.486 580.664 275.749 580.907 275.021 581.056C274.293 581.205 273.444 581.28 272.473 581.28C270.998 581.28 269.738 580.972 268.693 580.356C267.666 579.74 266.882 578.863 266.341 577.724C265.818 576.567 265.557 575.223 265.557 573.692C265.557 572.161 265.809 570.808 266.313 569.632C266.817 568.456 267.554 567.532 268.525 566.86C269.496 566.169 270.672 565.824 272.053 565.824ZM272.053 567.168C270.672 567.168 269.561 567.625 268.721 568.54C267.881 569.436 267.386 570.733 267.237 572.432H276.197C276.197 571.387 276.048 570.472 275.749 569.688C275.45 568.904 274.993 568.288 274.377 567.84C273.78 567.392 273.005 567.168 272.053 567.168ZM291.226 577.052C291.226 577.948 291.002 578.713 290.554 579.348C290.106 579.983 289.453 580.468 288.594 580.804C287.735 581.121 286.69 581.28 285.458 581.28C284.431 581.28 283.517 581.187 282.714 581C281.911 580.813 281.23 580.589 280.67 580.328V578.788C281.342 579.124 282.098 579.404 282.938 579.628C283.778 579.833 284.627 579.936 285.486 579.936C286.979 579.936 288.053 579.693 288.706 579.208C289.359 578.704 289.686 578.023 289.686 577.164C289.686 576.604 289.527 576.147 289.21 575.792C288.911 575.419 288.454 575.092 287.838 574.812C287.241 574.513 286.494 574.215 285.598 573.916C284.683 573.599 283.871 573.281 283.162 572.964C282.453 572.628 281.902 572.208 281.51 571.704C281.118 571.2 280.922 570.509 280.922 569.632C280.922 568.437 281.407 567.504 282.378 566.832C283.349 566.16 284.646 565.824 286.27 565.824C287.166 565.824 287.997 565.908 288.762 566.076C289.546 566.244 290.255 566.468 290.89 566.748L290.33 568.064C289.957 567.896 289.537 567.747 289.07 567.616C288.603 567.467 288.127 567.355 287.642 567.28C287.157 567.205 286.671 567.168 286.186 567.168C285.01 567.168 284.095 567.373 283.442 567.784C282.789 568.195 282.462 568.792 282.462 569.576C282.462 570.173 282.611 570.649 282.91 571.004C283.227 571.34 283.685 571.629 284.282 571.872C284.898 572.115 285.635 572.395 286.494 572.712C287.371 573.011 288.165 573.328 288.874 573.664C289.602 574 290.171 574.429 290.582 574.952C291.011 575.475 291.226 576.175 291.226 577.052ZM300.6 565.824C301.888 565.824 302.952 566.123 303.792 566.72C304.65 567.299 305.294 568.101 305.724 569.128C306.172 570.155 306.396 571.34 306.396 572.684V573.748H295.756C295.756 575.745 296.213 577.267 297.128 578.312C298.061 579.357 299.377 579.88 301.076 579.88C302.009 579.88 302.821 579.805 303.512 579.656C304.202 579.507 304.958 579.245 305.78 578.872V580.328C305.033 580.664 304.296 580.907 303.568 581.056C302.84 581.205 301.99 581.28 301.02 581.28C299.545 581.28 298.285 580.972 297.24 580.356C296.213 579.74 295.429 578.863 294.888 577.724C294.365 576.567 294.104 575.223 294.104 573.692C294.104 572.161 294.356 570.808 294.86 569.632C295.364 568.456 296.101 567.532 297.072 566.86C298.042 566.169 299.218 565.824 300.6 565.824ZM300.6 567.168C299.218 567.168 298.108 567.625 297.268 568.54C296.428 569.436 295.933 570.733 295.784 572.432H304.744C304.744 571.387 304.594 570.472 304.296 569.688C303.997 568.904 303.54 568.288 302.924 567.84C302.326 567.392 301.552 567.168 300.6 567.168ZM317.085 565.824C318.784 565.824 320.081 566.263 320.977 567.14C321.873 568.017 322.321 569.399 322.321 571.284V581H320.753V571.368C320.753 569.931 320.426 568.876 319.773 568.204C319.12 567.532 318.158 567.196 316.889 567.196C315.265 567.196 314.042 567.672 313.221 568.624C312.4 569.576 311.989 570.995 311.989 572.88V581H310.421V566.104H311.681L311.933 568.68H312.017C312.297 568.139 312.67 567.653 313.137 567.224C313.604 566.795 314.164 566.459 314.817 566.216C315.489 565.955 316.245 565.824 317.085 565.824ZM331.273 579.936C331.684 579.936 332.076 579.908 332.449 579.852C332.823 579.777 333.149 579.693 333.429 579.6V580.888C333.149 581 332.795 581.093 332.365 581.168C331.955 581.243 331.516 581.28 331.049 581.28C330.228 581.28 329.528 581.131 328.949 580.832C328.371 580.515 327.923 580.029 327.605 579.376C327.307 578.723 327.157 577.883 327.157 576.856V567.392H324.973V566.496L327.157 565.992L327.745 562.548H328.753V566.104H333.345V567.392H328.753V576.8C328.753 577.827 328.959 578.611 329.369 579.152C329.78 579.675 330.415 579.936 331.273 579.936ZM342.217 565.824C343.505 565.824 344.569 566.123 345.409 566.72C346.268 567.299 346.912 568.101 347.341 569.128C347.789 570.155 348.013 571.34 348.013 572.684V573.748H337.373C337.373 575.745 337.83 577.267 338.745 578.312C339.678 579.357 340.994 579.88 342.693 579.88C343.626 579.88 344.438 579.805 345.129 579.656C345.82 579.507 346.576 579.245 347.397 578.872V580.328C346.65 580.664 345.913 580.907 345.185 581.056C344.457 581.205 343.608 581.28 342.637 581.28C341.162 581.28 339.902 580.972 338.857 580.356C337.83 579.74 337.046 578.863 336.505 577.724C335.982 576.567 335.721 575.223 335.721 573.692C335.721 572.161 335.973 570.808 336.477 569.632C336.981 568.456 337.718 567.532 338.689 566.86C339.66 566.169 340.836 565.824 342.217 565.824ZM342.217 567.168C340.836 567.168 339.725 567.625 338.885 568.54C338.045 569.436 337.55 570.733 337.401 572.432H346.361C346.361 571.387 346.212 570.472 345.913 569.688C345.614 568.904 345.157 568.288 344.541 567.84C343.944 567.392 343.169 567.168 342.217 567.168ZM357.386 581.28C355.389 581.28 353.849 580.645 352.766 579.376C351.702 578.088 351.17 576.203 351.17 573.72C351.17 571.144 351.73 569.184 352.85 567.84C353.989 566.496 355.548 565.824 357.526 565.824C358.366 565.824 359.094 565.955 359.71 566.216C360.326 566.459 360.849 566.795 361.278 567.224C361.726 567.653 362.072 568.139 362.314 568.68H362.426C362.408 568.232 362.38 567.747 362.342 567.224C362.324 566.683 362.314 566.197 362.314 565.768V559.72H363.91V581H362.622L362.398 578.396H362.314C362.053 578.919 361.708 579.404 361.278 579.852C360.849 580.281 360.317 580.627 359.682 580.888C359.048 581.149 358.282 581.28 357.386 581.28ZM357.582 579.908C359.318 579.908 360.541 579.385 361.25 578.34C361.978 577.295 362.342 575.783 362.342 573.804V573.552C362.342 571.499 361.978 569.931 361.25 568.848C360.541 567.747 359.356 567.196 357.694 567.196C356.089 567.196 354.876 567.765 354.054 568.904C353.233 570.024 352.822 571.639 352.822 573.748C352.822 575.764 353.214 577.295 353.998 578.34C354.782 579.385 355.977 579.908 357.582 579.908ZM377.641 565.6C377.641 566.141 377.632 566.72 377.613 567.336C377.595 567.933 377.567 568.428 377.529 568.82H377.641C378.015 567.961 378.621 567.252 379.461 566.692C380.32 566.113 381.403 565.824 382.709 565.824C384.613 565.824 386.097 566.477 387.161 567.784C388.244 569.072 388.785 570.985 388.785 573.524C388.785 575.092 388.543 576.455 388.057 577.612C387.591 578.769 386.881 579.675 385.929 580.328C384.996 580.963 383.848 581.28 382.485 581.28C381.235 581.28 380.208 581.019 379.405 580.496C378.621 579.973 378.043 579.339 377.669 578.592H377.529L377.221 581H376.045V559.72H377.641V565.6ZM382.485 567.196C381.347 567.196 380.413 567.439 379.685 567.924C378.976 568.409 378.453 569.119 378.117 570.052C377.8 570.985 377.641 572.143 377.641 573.524V573.72C377.641 575.736 377.996 577.276 378.705 578.34C379.433 579.385 380.628 579.908 382.289 579.908C383.895 579.908 385.099 579.357 385.901 578.256C386.723 577.155 387.133 575.577 387.133 573.524C387.133 571.415 386.751 569.837 385.985 568.792C385.22 567.728 384.053 567.196 382.485 567.196ZM389.824 566.104H391.532L395.06 575.372C395.266 575.913 395.452 576.417 395.62 576.884C395.788 577.351 395.938 577.789 396.068 578.2C396.199 578.592 396.311 578.956 396.404 579.292H396.488C396.619 578.863 396.796 578.312 397.02 577.64C397.244 576.949 397.506 576.203 397.804 575.4L401.276 566.104H402.984L396.264 583.66C395.928 584.519 395.555 585.256 395.144 585.872C394.734 586.488 394.248 586.955 393.688 587.272C393.128 587.608 392.456 587.776 391.672 587.776C391.318 587.776 390.991 587.748 390.692 587.692C390.412 587.655 390.142 587.599 389.88 587.524V586.18C390.123 586.236 390.366 586.283 390.608 586.32C390.87 586.376 391.159 586.404 391.476 586.404C391.999 586.404 392.456 586.292 392.848 586.068C393.24 585.863 393.586 585.536 393.884 585.088C394.183 584.659 394.454 584.117 394.696 583.464L395.676 580.944L389.824 566.104ZM418.007 561.008C419.612 561.008 420.947 561.195 422.011 561.568C423.075 561.923 423.868 562.501 424.391 563.304C424.932 564.107 425.203 565.171 425.203 566.496C425.203 567.523 425.016 568.4 424.643 569.128C424.269 569.837 423.756 570.425 423.103 570.892C422.468 571.34 421.749 571.685 420.947 571.928L426.435 581H424.503L419.407 572.376H414.647V581H413.023V561.008H418.007ZM417.867 562.436H414.647V570.976H418.427C419.509 570.976 420.433 570.808 421.199 570.472C421.964 570.136 422.543 569.641 422.935 568.988C423.327 568.316 423.523 567.504 423.523 566.552C423.523 565.525 423.317 564.713 422.907 564.116C422.496 563.519 421.871 563.089 421.031 562.828C420.191 562.567 419.136 562.436 417.867 562.436ZM434.712 565.852C436.392 565.852 437.643 566.263 438.464 567.084C439.286 567.905 439.696 569.212 439.696 571.004V581H438.492L438.212 578.48H438.128C437.774 579.04 437.363 579.535 436.896 579.964C436.448 580.375 435.898 580.701 435.244 580.944C434.61 581.168 433.826 581.28 432.892 581.28C431.959 581.28 431.147 581.121 430.456 580.804C429.766 580.468 429.234 579.992 428.86 579.376C428.487 578.76 428.3 578.004 428.3 577.108C428.3 575.633 428.907 574.513 430.12 573.748C431.334 572.964 433.098 572.516 435.412 572.404L438.128 572.292V571.228C438.128 569.753 437.83 568.717 437.232 568.12C436.654 567.504 435.786 567.196 434.628 567.196C433.863 567.196 433.126 567.299 432.416 567.504C431.726 567.691 431.026 567.961 430.316 568.316L429.812 567.056C430.503 566.701 431.268 566.412 432.108 566.188C432.948 565.964 433.816 565.852 434.712 565.852ZM435.58 573.58C433.695 573.673 432.286 574.009 431.352 574.588C430.419 575.148 429.952 575.997 429.952 577.136C429.952 578.051 430.242 578.751 430.82 579.236C431.399 579.703 432.183 579.936 433.172 579.936C434.759 579.936 435.972 579.497 436.812 578.62C437.671 577.743 438.11 576.511 438.128 574.924V573.468L435.58 573.58ZM450.424 581.28C448.968 581.28 447.727 580.981 446.7 580.384C445.692 579.768 444.917 578.891 444.376 577.752C443.853 576.613 443.592 575.241 443.592 573.636C443.592 571.956 443.891 570.537 444.488 569.38C445.104 568.223 445.944 567.345 447.008 566.748C448.072 566.132 449.323 565.824 450.76 565.824C451.469 565.824 452.132 565.899 452.748 566.048C453.383 566.179 453.943 566.356 454.428 566.58L454.008 567.924C453.504 567.719 452.963 567.56 452.384 567.448C451.805 567.317 451.255 567.252 450.732 567.252C449.537 567.252 448.529 567.513 447.708 568.036C446.905 568.54 446.289 569.268 445.86 570.22C445.449 571.172 445.244 572.311 445.244 573.636C445.244 574.868 445.421 575.96 445.776 576.912C446.149 577.845 446.719 578.573 447.484 579.096C448.249 579.619 449.229 579.88 450.424 579.88C451.152 579.88 451.833 579.805 452.468 579.656C453.121 579.507 453.719 579.311 454.26 579.068V580.524C453.775 580.729 453.215 580.907 452.58 581.056C451.945 581.205 451.227 581.28 450.424 581.28ZM459.345 566.552C459.345 566.925 459.335 567.289 459.317 567.644C459.298 567.999 459.279 568.353 459.261 568.708H459.373C459.634 568.148 459.998 567.653 460.465 567.224C460.931 566.795 461.491 566.459 462.145 566.216C462.817 565.973 463.573 565.852 464.413 565.852C465.551 565.852 466.513 566.048 467.297 566.44C468.081 566.813 468.669 567.401 469.061 568.204C469.471 568.988 469.677 570.015 469.677 571.284V581H468.109V571.368C468.109 569.931 467.782 568.876 467.129 568.204C466.475 567.532 465.514 567.196 464.245 567.196C463.162 567.196 462.257 567.411 461.529 567.84C460.801 568.251 460.25 568.885 459.877 569.744C459.522 570.584 459.345 571.629 459.345 572.88V581H457.777V559.72H459.345V566.552ZM480.057 565.824C481.345 565.824 482.409 566.123 483.249 566.72C484.108 567.299 484.752 568.101 485.181 569.128C485.629 570.155 485.853 571.34 485.853 572.684V573.748H475.213C475.213 575.745 475.67 577.267 476.585 578.312C477.518 579.357 478.834 579.88 480.533 579.88C481.466 579.88 482.278 579.805 482.969 579.656C483.66 579.507 484.416 579.245 485.237 578.872V580.328C484.49 580.664 483.753 580.907 483.025 581.056C482.297 581.205 481.448 581.28 480.477 581.28C479.002 581.28 477.742 580.972 476.697 580.356C475.67 579.74 474.886 578.863 474.345 577.724C473.822 576.567 473.561 575.223 473.561 573.692C473.561 572.161 473.813 570.808 474.317 569.632C474.821 568.456 475.558 567.532 476.529 566.86C477.5 566.169 478.676 565.824 480.057 565.824ZM480.057 567.168C478.676 567.168 477.565 567.625 476.725 568.54C475.885 569.436 475.39 570.733 475.241 572.432H484.201C484.201 571.387 484.052 570.472 483.753 569.688C483.454 568.904 482.997 568.288 482.381 567.84C481.784 567.392 481.009 567.168 480.057 567.168ZM491.474 581H489.878V559.72H491.474V581ZM516.511 581L513.851 574.112H505.535L502.847 581H501.195L509.063 560.952H510.519L518.191 581H516.511ZM510.659 565.432C510.603 565.245 510.519 564.993 510.407 564.676C510.295 564.359 510.183 564.023 510.071 563.668C509.959 563.313 509.847 562.996 509.735 562.716C509.642 563.033 509.539 563.36 509.427 563.696C509.334 564.032 509.231 564.349 509.119 564.648C509.026 564.947 508.933 565.217 508.839 565.46L506.095 572.656H513.347L510.659 565.432ZM524.894 579.936C525.305 579.936 525.697 579.908 526.07 579.852C526.444 579.777 526.77 579.693 527.05 579.6V580.888C526.77 581 526.416 581.093 525.986 581.168C525.576 581.243 525.137 581.28 524.67 581.28C523.849 581.28 523.149 581.131 522.57 580.832C521.992 580.515 521.544 580.029 521.226 579.376C520.928 578.723 520.778 577.883 520.778 576.856V567.392H518.594V566.496L520.778 565.992L521.366 562.548H522.374V566.104H526.966V567.392H522.374V576.8C522.374 577.827 522.58 578.611 522.99 579.152C523.401 579.675 524.036 579.936 524.894 579.936ZM545.75 565.824C547.243 565.824 548.401 566.244 549.222 567.084C550.062 567.924 550.482 569.249 550.482 571.06V581H548.886V571.116C548.886 569.791 548.587 568.811 547.99 568.176C547.393 567.523 546.581 567.196 545.554 567.196C544.117 567.196 543.015 567.616 542.25 568.456C541.503 569.277 541.13 570.556 541.13 572.292V581H539.534V571.116C539.534 570.22 539.394 569.483 539.114 568.904C538.853 568.325 538.47 567.896 537.966 567.616C537.481 567.336 536.883 567.196 536.174 567.196C535.241 567.196 534.447 567.392 533.794 567.784C533.141 568.176 532.637 568.764 532.282 569.548C531.946 570.332 531.778 571.331 531.778 572.544V581H530.21V566.104H531.47L531.722 568.484H531.806C532.067 567.98 532.403 567.532 532.814 567.14C533.243 566.748 533.757 566.431 534.354 566.188C534.951 565.945 535.633 565.824 536.398 565.824C537.499 565.824 538.423 566.057 539.17 566.524C539.917 566.991 540.439 567.691 540.738 568.624H540.85C541.279 567.728 541.914 567.037 542.754 566.552C543.613 566.067 544.611 565.824 545.75 565.824ZM560.466 565.852C562.146 565.852 563.397 566.263 564.218 567.084C565.04 567.905 565.45 569.212 565.45 571.004V581H564.246L563.966 578.48H563.882C563.528 579.04 563.117 579.535 562.65 579.964C562.202 580.375 561.652 580.701 560.998 580.944C560.364 581.168 559.58 581.28 558.646 581.28C557.713 581.28 556.901 581.121 556.21 580.804C555.52 580.468 554.988 579.992 554.614 579.376C554.241 578.76 554.054 578.004 554.054 577.108C554.054 575.633 554.661 574.513 555.874 573.748C557.088 572.964 558.852 572.516 561.166 572.404L563.882 572.292V571.228C563.882 569.753 563.584 568.717 562.986 568.12C562.408 567.504 561.54 567.196 560.382 567.196C559.617 567.196 558.88 567.299 558.17 567.504C557.48 567.691 556.78 567.961 556.07 568.316L555.566 567.056C556.257 566.701 557.022 566.412 557.862 566.188C558.702 565.964 559.57 565.852 560.466 565.852ZM561.334 573.58C559.449 573.673 558.04 574.009 557.106 574.588C556.173 575.148 555.706 575.997 555.706 577.136C555.706 578.051 555.996 578.751 556.574 579.236C557.153 579.703 557.937 579.936 558.926 579.936C560.513 579.936 561.726 579.497 562.566 578.62C563.425 577.743 563.864 576.511 563.882 574.924V573.468L561.334 573.58ZM575.562 581.28C573.565 581.28 572.025 580.645 570.942 579.376C569.878 578.088 569.346 576.203 569.346 573.72C569.346 571.144 569.906 569.184 571.026 567.84C572.165 566.496 573.723 565.824 575.702 565.824C576.542 565.824 577.27 565.955 577.886 566.216C578.502 566.459 579.025 566.795 579.454 567.224C579.902 567.653 580.247 568.139 580.49 568.68H580.602C580.583 568.232 580.555 567.747 580.518 567.224C580.499 566.683 580.49 566.197 580.49 565.768V559.72H582.086V581H580.798L580.574 578.396H580.49C580.229 578.919 579.883 579.404 579.454 579.852C579.025 580.281 578.493 580.627 577.858 580.888C577.223 581.149 576.458 581.28 575.562 581.28ZM575.758 579.908C577.494 579.908 578.717 579.385 579.426 578.34C580.154 577.295 580.518 575.783 580.518 573.804V573.552C580.518 571.499 580.154 569.931 579.426 568.848C578.717 567.747 577.531 567.196 575.87 567.196C574.265 567.196 573.051 567.765 572.23 568.904C571.409 570.024 570.998 571.639 570.998 573.748C570.998 575.764 571.39 577.295 572.174 578.34C572.958 579.385 574.153 579.908 575.758 579.908ZM584.96 587.72C584.549 587.72 584.194 587.692 583.896 587.636C583.578 587.58 583.298 587.505 583.056 587.412V586.068C583.336 586.161 583.625 586.227 583.924 586.264C584.204 586.32 584.502 586.348 584.82 586.348C585.492 586.348 586.014 586.143 586.388 585.732C586.78 585.321 586.976 584.677 586.976 583.8V566.104H588.544V583.8C588.544 584.64 588.404 585.349 588.124 585.928C587.844 586.525 587.433 586.973 586.892 587.272C586.369 587.571 585.725 587.72 584.96 587.72ZM586.696 561.792C586.696 561.419 586.789 561.129 586.976 560.924C587.162 560.7 587.424 560.588 587.76 560.588C588.114 560.588 588.385 560.7 588.572 560.924C588.758 561.129 588.852 561.419 588.852 561.792C588.852 562.184 588.758 562.492 588.572 562.716C588.385 562.921 588.114 563.024 587.76 563.024C587.424 563.024 587.162 562.921 586.976 562.716C586.789 562.492 586.696 562.184 586.696 561.792ZM598.748 565.852C600.428 565.852 601.678 566.263 602.5 567.084C603.321 567.905 603.732 569.212 603.732 571.004V581H602.528L602.248 578.48H602.164C601.809 579.04 601.398 579.535 600.932 579.964C600.484 580.375 599.933 580.701 599.28 580.944C598.645 581.168 597.861 581.28 596.928 581.28C595.994 581.28 595.182 581.121 594.492 580.804C593.801 580.468 593.269 579.992 592.896 579.376C592.522 578.76 592.336 578.004 592.336 577.108C592.336 575.633 592.942 574.513 594.156 573.748C595.369 572.964 597.133 572.516 599.448 572.404L602.164 572.292V571.228C602.164 569.753 601.865 568.717 601.268 568.12C600.689 567.504 599.821 567.196 598.664 567.196C597.898 567.196 597.161 567.299 596.452 567.504C595.761 567.691 595.061 567.961 594.352 568.316L593.848 567.056C594.538 566.701 595.304 566.412 596.144 566.188C596.984 565.964 597.852 565.852 598.748 565.852ZM599.616 573.58C597.73 573.673 596.321 574.009 595.388 574.588C594.454 575.148 593.988 575.997 593.988 577.136C593.988 578.051 594.277 578.751 594.856 579.236C595.434 579.703 596.218 579.936 597.208 579.936C598.794 579.936 600.008 579.497 600.848 578.62C601.706 577.743 602.145 576.511 602.164 574.924V573.468L599.616 573.58ZM620.193 559.664H621.565V587.888H620.193V559.664ZM647.261 581L640.065 562.716H639.981C640.019 563.052 640.037 563.435 640.037 563.864C640.056 564.275 640.065 564.713 640.065 565.18C640.084 565.628 640.093 566.095 640.093 566.58V581H638.581V561.008H641.017L647.905 578.536H648.017L654.989 561.008H657.369V581H655.773V566.412C655.773 566.001 655.773 565.581 655.773 565.152C655.792 564.723 655.811 564.303 655.829 563.892C655.848 563.481 655.867 563.099 655.885 562.744H655.801L648.577 581H647.261ZM667.927 565.852C669.607 565.852 670.858 566.263 671.679 567.084C672.501 567.905 672.911 569.212 672.911 571.004V581H671.707L671.427 578.48H671.343C670.989 579.04 670.578 579.535 670.111 579.964C669.663 580.375 669.113 580.701 668.459 580.944C667.825 581.168 667.041 581.28 666.107 581.28C665.174 581.28 664.362 581.121 663.671 580.804C662.981 580.468 662.449 579.992 662.075 579.376C661.702 578.76 661.515 578.004 661.515 577.108C661.515 575.633 662.122 574.513 663.335 573.748C664.549 572.964 666.313 572.516 668.627 572.404L671.343 572.292V571.228C671.343 569.753 671.045 568.717 670.447 568.12C669.869 567.504 669.001 567.196 667.843 567.196C667.078 567.196 666.341 567.299 665.631 567.504C664.941 567.691 664.241 567.961 663.531 568.316L663.027 567.056C663.718 566.701 664.483 566.412 665.323 566.188C666.163 565.964 667.031 565.852 667.927 565.852ZM668.795 573.58C666.91 573.673 665.501 574.009 664.567 574.588C663.634 575.148 663.167 575.997 663.167 577.136C663.167 578.051 663.457 578.751 664.035 579.236C664.614 579.703 665.398 579.936 666.387 579.936C667.974 579.936 669.187 579.497 670.027 578.62C670.886 577.743 671.325 576.511 671.343 574.924V573.468L668.795 573.58ZM683.779 565.852C684.152 565.852 684.507 565.88 684.843 565.936C685.198 565.973 685.515 566.029 685.795 566.104L685.571 567.56C685.272 567.485 684.974 567.429 684.675 567.392C684.376 567.336 684.05 567.308 683.695 567.308C683.023 567.308 682.416 567.439 681.875 567.7C681.334 567.961 680.867 568.335 680.475 568.82C680.083 569.305 679.784 569.884 679.579 570.556C679.374 571.228 679.271 571.984 679.271 572.824V581H677.675V566.104H679.019L679.187 568.904H679.271C679.514 568.325 679.84 567.812 680.251 567.364C680.68 566.897 681.194 566.533 681.791 566.272C682.388 565.992 683.051 565.852 683.779 565.852ZM694.112 581.28C692.656 581.28 691.414 580.981 690.388 580.384C689.38 579.768 688.605 578.891 688.064 577.752C687.541 576.613 687.28 575.241 687.28 573.636C687.28 571.956 687.578 570.537 688.176 569.38C688.792 568.223 689.632 567.345 690.696 566.748C691.76 566.132 693.01 565.824 694.448 565.824C695.157 565.824 695.82 565.899 696.436 566.048C697.07 566.179 697.63 566.356 698.116 566.58L697.696 567.924C697.192 567.719 696.65 567.56 696.072 567.448C695.493 567.317 694.942 567.252 694.42 567.252C693.225 567.252 692.217 567.513 691.396 568.036C690.593 568.54 689.977 569.268 689.548 570.22C689.137 571.172 688.932 572.311 688.932 573.636C688.932 574.868 689.109 575.96 689.464 576.912C689.837 577.845 690.406 578.573 691.172 579.096C691.937 579.619 692.917 579.88 694.112 579.88C694.84 579.88 695.521 579.805 696.156 579.656C696.809 579.507 697.406 579.311 697.948 579.068V580.524C697.462 580.729 696.902 580.907 696.268 581.056C695.633 581.205 694.914 581.28 694.112 581.28ZM703.032 566.552C703.032 566.925 703.023 567.289 703.004 567.644C702.985 567.999 702.967 568.353 702.948 568.708H703.06C703.321 568.148 703.685 567.653 704.152 567.224C704.619 566.795 705.179 566.459 705.832 566.216C706.504 565.973 707.26 565.852 708.1 565.852C709.239 565.852 710.2 566.048 710.984 566.44C711.768 566.813 712.356 567.401 712.748 568.204C713.159 568.988 713.364 570.015 713.364 571.284V581H711.796V571.368C711.796 569.931 711.469 568.876 710.816 568.204C710.163 567.532 709.201 567.196 707.932 567.196C706.849 567.196 705.944 567.411 705.216 567.84C704.488 568.251 703.937 568.885 703.564 569.744C703.209 570.584 703.032 571.629 703.032 572.88V581H701.464V559.72H703.032V566.552ZM737.066 581H724.438V579.656L730.178 573.692C731.148 572.721 731.951 571.844 732.586 571.06C733.239 570.257 733.734 569.464 734.07 568.68C734.406 567.877 734.574 567 734.574 566.048C734.574 564.797 734.21 563.836 733.482 563.164C732.754 562.473 731.764 562.128 730.514 562.128C729.636 562.128 728.796 562.287 727.994 562.604C727.21 562.921 726.444 563.379 725.698 563.976L724.83 562.856C725.39 562.408 725.978 562.025 726.594 561.708C727.21 561.391 727.844 561.148 728.498 560.98C729.17 560.812 729.842 560.728 730.514 560.728C731.671 560.728 732.67 560.952 733.51 561.4C734.368 561.829 735.031 562.436 735.498 563.22C735.964 563.985 736.198 564.9 736.198 565.964C736.198 566.785 736.086 567.551 735.862 568.26C735.656 568.951 735.348 569.623 734.938 570.276C734.527 570.911 734.023 571.564 733.426 572.236C732.847 572.889 732.194 573.58 731.466 574.308L726.482 579.46V579.544H737.066V581ZM753.342 570.948C753.342 572.628 753.211 574.112 752.95 575.4C752.707 576.669 752.325 577.743 751.802 578.62C751.279 579.497 750.607 580.16 749.786 580.608C748.983 581.056 748.022 581.28 746.902 581.28C745.502 581.28 744.326 580.888 743.374 580.104C742.422 579.32 741.703 578.163 741.218 576.632C740.733 575.101 740.49 573.207 740.49 570.948C740.49 568.895 740.695 567.103 741.106 565.572C741.535 564.041 742.217 562.847 743.15 561.988C744.102 561.129 745.362 560.7 746.93 560.7C748.461 560.7 749.693 561.12 750.626 561.96C751.578 562.8 752.269 563.995 752.698 565.544C753.127 567.075 753.342 568.876 753.342 570.948ZM742.086 570.948C742.086 572.964 742.254 574.635 742.59 575.96C742.926 577.267 743.449 578.247 744.158 578.9C744.867 579.553 745.782 579.88 746.902 579.88C748.059 579.88 748.983 579.563 749.674 578.928C750.383 578.275 750.897 577.285 751.214 575.96C751.55 574.635 751.718 572.964 751.718 570.948C751.718 569.081 751.569 567.495 751.27 566.188C750.99 564.863 750.495 563.855 749.786 563.164C749.095 562.455 748.143 562.1 746.93 562.1C745.717 562.1 744.755 562.455 744.046 563.164C743.337 563.873 742.833 564.891 742.534 566.216C742.235 567.523 742.086 569.1 742.086 570.948ZM769.058 581H756.43V579.656L762.17 573.692C763.141 572.721 763.943 571.844 764.578 571.06C765.231 570.257 765.726 569.464 766.062 568.68C766.398 567.877 766.566 567 766.566 566.048C766.566 564.797 766.202 563.836 765.474 563.164C764.746 562.473 763.757 562.128 762.506 562.128C761.629 562.128 760.789 562.287 759.986 562.604C759.202 562.921 758.437 563.379 757.69 563.976L756.822 562.856C757.382 562.408 757.97 562.025 758.586 561.708C759.202 561.391 759.837 561.148 760.49 560.98C761.162 560.812 761.834 560.728 762.506 560.728C763.663 560.728 764.662 560.952 765.502 561.4C766.361 561.829 767.023 562.436 767.49 563.22C767.957 563.985 768.19 564.9 768.19 565.964C768.19 566.785 768.078 567.551 767.854 568.26C767.649 568.951 767.341 569.623 766.93 570.276C766.519 570.911 766.015 571.564 765.418 572.236C764.839 572.889 764.186 573.58 763.458 574.308L758.474 579.46V579.544H769.058V581ZM785.054 581H772.426V579.656L778.166 573.692C779.137 572.721 779.939 571.844 780.574 571.06C781.227 570.257 781.722 569.464 782.058 568.68C782.394 567.877 782.562 567 782.562 566.048C782.562 564.797 782.198 563.836 781.47 563.164C780.742 562.473 779.753 562.128 778.502 562.128C777.625 562.128 776.785 562.287 775.982 562.604C775.198 562.921 774.433 563.379 773.686 563.976L772.818 562.856C773.378 562.408 773.966 562.025 774.582 561.708C775.198 561.391 775.833 561.148 776.486 560.98C777.158 560.812 777.83 560.728 778.502 560.728C779.659 560.728 780.658 560.952 781.498 561.4C782.357 561.829 783.019 562.436 783.486 563.22C783.953 563.985 784.186 564.9 784.186 565.964C784.186 566.785 784.074 567.551 783.85 568.26C783.645 568.951 783.337 569.623 782.926 570.276C782.515 570.911 782.011 571.564 781.414 572.236C780.835 572.889 780.182 573.58 779.454 574.308L774.47 579.46V579.544H785.054V581Z" fill="#F2F2F2"/>
<g filter="url(#filter0_d_15105_9)">
<path fill-rule="evenodd" clip-rule="evenodd" d="M120.018 251.188C183.982 248.558 235.035 195.605 235.035 130.677L115.017 130.677L115.017 130.775C51.0522 133.405 8.34067e-05 186.359 8.05687e-05 251.286L120.018 251.286L120.018 251.188ZM235.035 0L235.035 120.61L5.57631e-05 120.61L6.10352e-05 -1.02737e-05L235.035 0Z" fill="#62474E"/>
</g>
<mask id="path-4-inside-1_15105_9" fill="white">
<path fill-rule="evenodd" clip-rule="evenodd" d="M120.018 382.247C183.982 379.611 235.035 326.562 235.035 261.517L115.017 261.517L115.017 261.616C51.0522 264.251 5.28812e-05 317.3 5.0038e-05 382.345L120.018 382.345L120.018 382.247ZM120.395 130.857L120.395 130.759L114.64 130.759L114.64 130.857C50.8847 133.492 2.80793e-05 186.541 2.5236e-05 251.586L235.035 251.586C235.035 186.541 184.15 133.492 120.395 130.857Z"/>
</mask>
<path d="M235.035 261.517L237.535 261.517L237.535 259.017L235.035 259.017L235.035 261.517ZM120.018 382.247L119.915 379.749L117.518 379.847L117.518 382.247L120.018 382.247ZM115.017 261.517L115.017 259.017L112.517 259.017L112.517 261.517L115.017 261.517ZM115.017 261.616L115.12 264.114L117.517 264.015L117.517 261.616L115.017 261.616ZM5.0038e-05 382.345L-2.49995 382.345L-2.49995 384.845L4.99287e-05 384.845L5.0038e-05 382.345ZM120.018 382.345L120.018 384.845L122.518 384.845L122.518 382.345L120.018 382.345ZM120.395 130.759L122.895 130.759L122.895 128.259L120.395 128.259L120.395 130.759ZM120.395 130.857L117.895 130.857L117.895 133.256L120.292 133.355L120.395 130.857ZM114.64 130.759L114.64 128.259L112.14 128.259L112.14 130.759L114.64 130.759ZM114.64 130.857L114.743 133.355L117.14 133.256L117.14 130.857L114.64 130.857ZM2.5236e-05 251.586L-2.49997 251.586L-2.49997 254.086L2.51268e-05 254.086L2.5236e-05 251.586ZM235.035 251.586L235.035 254.086L237.535 254.086L237.535 251.586L235.035 251.586ZM232.535 261.517C232.535 325.231 182.53 377.169 119.915 379.749L120.121 384.744C185.435 382.054 237.535 327.893 237.535 261.517L232.535 261.517ZM115.017 264.017L235.035 264.017L235.035 259.017L115.017 259.017L115.017 264.017ZM117.517 261.616L117.517 261.517L112.517 261.517L112.517 261.616L117.517 261.616ZM2.50005 382.345C2.50005 318.631 52.5043 266.693 115.12 264.114L114.914 259.118C49.6001 261.809 -2.49995 315.969 -2.49995 382.345L2.50005 382.345ZM120.018 379.845L5.01472e-05 379.845L4.99287e-05 384.845L120.018 384.845L120.018 379.845ZM117.518 382.247L117.518 382.345L122.518 382.345L122.518 382.247L117.518 382.247ZM117.895 130.759L117.895 130.857L122.895 130.857L122.895 130.759L117.895 130.759ZM114.64 133.259L120.395 133.259L120.395 128.259L114.64 128.259L114.64 133.259ZM117.14 130.857L117.14 130.759L112.14 130.759L112.14 130.857L117.14 130.857ZM2.50003 251.586C2.50003 187.864 52.3443 135.934 114.743 133.355L114.537 128.359C49.4252 131.05 -2.49997 185.217 -2.49997 251.586L2.50003 251.586ZM235.035 249.086L2.53453e-05 249.086L2.51268e-05 254.086L235.035 254.086L235.035 249.086ZM120.292 133.355C182.69 135.934 232.535 187.864 232.535 251.586L237.535 251.586C237.535 185.217 185.609 131.05 120.498 128.359L120.292 133.355Z" fill="#DA9218" mask="url(#path-4-inside-1_15105_9)"/>
<path d="M1636 550C1636 474.634 1697.69 413.167 1774.98 410.114L1774.98 410L1920 410C1920 485.366 1858.31 546.833 1781.02 549.886L1781.02 550L1636 550Z" fill="#784853"/>
<path d="M1774.98 697.886L1774.98 698L1920 698L1920 558L1781.02 558L1636 558L1636 698L1774.98 697.886Z" fill="#784853"/>
<path d="M1920 854C1920 929.366 1858.31 990.833 1781.02 993.886L1781.02 994L1636 994L1636 854L1774.98 854L1920 854Z" fill="#62474E"/>
<path d="M1920 1142C1920 1066.63 1858.31 1005.17 1781.02 1002.11L1781.02 1002L1636 1002L1636 1142L1774.98 1142L1920 1142Z" fill="#62474E"/>
<path d="M1774.98 548.386L1776.48 548.385L1776.48 548.5L1918.5 548.5L1918.5 411.5L1781.02 411.5L1637.5 411.5L1637.5 548.499L1774.98 548.386Z" stroke="#DA9218" stroke-width="3"/>
<path d="M1778 401.5C1701.95 401.5 1640 340.593 1637.54 264.5L1918.46 264.5C1916 340.593 1854.05 401.5 1778 401.5Z" stroke="#DA9218" stroke-width="3"/>
<path d="M1778 992.5C1701.95 992.5 1640 931.593 1637.54 855.5L1918.46 855.5C1916 931.593 1854.05 992.5 1778 992.5Z" stroke="#DA9218" stroke-width="3"/>
<path d="M1778 709.67C1701.95 709.67 1640 770.577 1637.54 846.67L1918.46 846.67C1916 770.577 1854.05 709.67 1778 709.67Z" stroke="#DA9218" stroke-width="3"/>
</g>
<defs>
<filter id="filter0_d_15105_9" x="-3.99994" y="0" width="243.034" height="259.286" filterUnits="userSpaceOnUse" color-interpolation-filters="sRGB">
<feFlood flood-opacity="0" result="BackgroundImageFix"/>
<feColorMatrix in="SourceAlpha" type="matrix" values="0 0 0 0 0 0 0 0 0 0 0 0 0 0 0 0 0 0 127 0" result="hardAlpha"/>
<feOffset dy="4"/>
<feGaussianBlur stdDeviation="2"/>
<feColorMatrix type="matrix" values="0 0 0 0 0 0 0 0 0 0 0 0 0 0 0 0 0 0 0.04 0"/>
<feBlend mode="normal" in2="BackgroundImageFix" result="effect1_dropShadow_15105_9"/>
<feBlend mode="normal" in="SourceGraphic" in2="effect1_dropShadow_15105_9" result="shape"/>
</filter>
<clipPath id="clip0_15105_9">
<rect width="1920" height="1080" fill="white"/>
</clipPath>
</defs>
</svg>
