<svg width="1920" height="1080" viewBox="0 0 1920 1080" fill="none" xmlns="http://www.w3.org/2000/svg">
<rect width="1920" height="1080" fill="#463237"/>
<path d="M252.08 500H229.508V496.112L237.716 494.924V428.072L229.508 426.776V422.888H252.08V426.776L243.872 428.072V494.924L252.08 496.112V500ZM283.243 495.896C284.827 495.896 286.339 495.788 287.779 495.572C289.219 495.284 290.479 494.96 291.559 494.6V499.568C290.479 500 289.111 500.36 287.455 500.648C285.871 500.936 284.179 501.08 282.379 501.08C279.211 501.08 276.511 500.504 274.279 499.352C272.047 498.128 270.319 496.256 269.095 493.736C267.943 491.216 267.367 487.976 267.367 484.016V447.512H258.943V444.056L267.367 442.112L269.635 428.828H273.523V442.544H291.235V447.512H273.523V483.8C273.523 487.76 274.315 490.784 275.899 492.872C277.483 494.888 279.931 495.896 283.243 495.896ZM354.049 500H347.785V428.504H322.945V422.888H378.889V428.504H354.049V500ZM400.726 441.572C407.206 441.572 412.03 443.156 415.198 446.324C418.366 449.492 419.95 454.532 419.95 461.444V500H415.306L414.226 490.28H413.902C412.534 492.44 410.95 494.348 409.15 496.004C407.422 497.588 405.298 498.848 402.778 499.784C400.33 500.648 397.306 501.08 393.706 501.08C390.106 501.08 386.974 500.468 384.31 499.244C381.646 497.948 379.594 496.112 378.154 493.736C376.714 491.36 375.994 488.444 375.994 484.988C375.994 479.3 378.334 474.98 383.014 472.028C387.694 469.004 394.498 467.276 403.426 466.844L413.902 466.412V462.308C413.902 456.62 412.75 452.624 410.446 450.32C408.214 447.944 404.866 446.756 400.402 446.756C397.45 446.756 394.606 447.152 391.87 447.944C389.206 448.664 386.506 449.708 383.77 451.076L381.826 446.216C384.49 444.848 387.442 443.732 390.682 442.868C393.922 442.004 397.27 441.572 400.726 441.572ZM404.074 471.38C396.802 471.74 391.366 473.036 387.766 475.268C384.166 477.428 382.366 480.704 382.366 485.096C382.366 488.624 383.482 491.324 385.714 493.196C387.946 494.996 390.97 495.896 394.786 495.896C400.906 495.896 405.586 494.204 408.826 490.82C412.138 487.436 413.83 482.684 413.902 476.564V470.948L404.074 471.38ZM444.372 459.608C444.372 461.912 444.336 464.324 444.264 466.844C444.192 469.292 444.12 471.74 444.048 474.188H444.264C444.912 473.396 445.596 472.568 446.316 471.704C447.036 470.768 447.792 469.868 448.584 469.004C449.376 468.068 450.132 467.204 450.852 466.412L472.668 442.544H480.012L457.224 467.168L481.956 500H474.612L453.012 471.164L444.372 480.128V500H438.324V417.92H444.372V459.608ZM513.4 441.464C518.368 441.464 522.472 442.616 525.712 444.92C529.024 447.152 531.508 450.248 533.164 454.208C534.892 458.168 535.756 462.74 535.756 467.924V472.028H494.716C494.716 479.732 496.48 485.6 500.008 489.632C503.608 493.664 508.684 495.68 515.236 495.68C518.836 495.68 521.968 495.392 524.632 494.816C527.296 494.24 530.212 493.232 533.38 491.792V497.408C530.5 498.704 527.656 499.64 524.848 500.216C522.04 500.792 518.764 501.08 515.02 501.08C509.332 501.08 504.472 499.892 500.44 497.516C496.48 495.14 493.456 491.756 491.368 487.364C489.352 482.9 488.344 477.716 488.344 471.812C488.344 465.908 489.316 460.688 491.26 456.152C493.204 451.616 496.048 448.052 499.792 445.46C503.536 442.796 508.072 441.464 513.4 441.464ZM513.4 446.648C508.072 446.648 503.788 448.412 500.548 451.94C497.308 455.396 495.4 460.4 494.824 466.952H529.384C529.384 462.92 528.808 459.392 527.656 456.368C526.504 453.344 524.74 450.968 522.364 449.24C520.06 447.512 517.072 446.648 513.4 446.648ZM587.353 484.772C587.353 488.228 586.489 491.18 584.761 493.628C583.033 496.076 580.513 497.948 577.201 499.244C573.889 500.468 569.857 501.08 565.105 501.08C561.145 501.08 557.617 500.72 554.521 500C551.425 499.28 548.797 498.416 546.637 497.408V491.468C549.229 492.764 552.145 493.844 555.385 494.708C558.625 495.5 561.901 495.896 565.213 495.896C570.973 495.896 575.113 494.96 577.633 493.088C580.153 491.144 581.413 488.516 581.413 485.204C581.413 483.044 580.801 481.28 579.577 479.912C578.425 478.472 576.661 477.212 574.285 476.132C571.981 474.98 569.101 473.828 565.645 472.676C562.117 471.452 558.985 470.228 556.249 469.004C553.513 467.708 551.389 466.088 549.877 464.144C548.365 462.2 547.609 459.536 547.609 456.152C547.609 451.544 549.481 447.944 553.225 445.352C556.969 442.76 561.973 441.464 568.237 441.464C571.693 441.464 574.897 441.788 577.849 442.436C580.873 443.084 583.609 443.948 586.057 445.028L583.897 450.104C582.457 449.456 580.837 448.88 579.037 448.376C577.237 447.8 575.401 447.368 573.529 447.08C571.657 446.792 569.785 446.648 567.913 446.648C563.377 446.648 559.849 447.44 557.329 449.024C554.809 450.608 553.549 452.912 553.549 455.936C553.549 458.24 554.125 460.076 555.277 461.444C556.501 462.74 558.265 463.856 560.569 464.792C562.945 465.728 565.789 466.808 569.101 468.032C572.485 469.184 575.545 470.408 578.281 471.704C581.089 473 583.285 474.656 584.869 476.672C586.525 478.688 587.353 481.388 587.353 484.772ZM663.984 427.424C659.232 427.424 654.948 428.252 651.132 429.908C647.388 431.492 644.22 433.796 641.628 436.82C639.036 439.772 637.056 443.336 635.688 447.512C634.32 451.616 633.636 456.188 633.636 461.228C633.636 468.14 634.716 474.188 636.876 479.372C639.036 484.484 642.276 488.444 646.596 491.252C650.988 494.06 656.424 495.464 662.904 495.464C666.648 495.464 670.104 495.176 673.272 494.6C676.44 494.024 679.356 493.304 682.02 492.44V497.84C679.428 498.848 676.512 499.64 673.272 500.216C670.104 500.792 666.396 501.08 662.148 501.08C654.444 501.08 647.964 499.424 642.708 496.112C637.524 492.8 633.6 488.156 630.936 482.18C628.344 476.204 627.048 469.22 627.048 461.228C627.048 455.54 627.876 450.284 629.532 445.46C631.188 440.636 633.6 436.46 636.768 432.932C639.936 429.404 643.788 426.668 648.324 424.724C652.932 422.78 658.188 421.808 664.092 421.808C667.764 421.808 671.292 422.168 674.676 422.888C678.132 423.608 681.336 424.652 684.288 426.02L681.804 431.528C679.068 430.16 676.188 429.152 673.164 428.504C670.212 427.784 667.152 427.424 663.984 427.424ZM745.205 471.272C745.205 475.736 744.629 479.804 743.477 483.476C742.397 487.076 740.741 490.208 738.509 492.872C736.349 495.464 733.649 497.48 730.409 498.92C727.169 500.36 723.461 501.08 719.285 501.08C715.325 501.08 711.761 500.396 708.593 499.028C705.497 497.588 702.833 495.572 700.601 492.98C698.369 490.316 696.677 487.148 695.525 483.476C694.373 479.804 693.797 475.736 693.797 471.272C693.797 465.008 694.805 459.68 696.821 455.288C698.909 450.824 701.897 447.404 705.785 445.028C709.745 442.652 714.425 441.464 719.825 441.464C725.297 441.464 729.905 442.724 733.649 445.244C737.465 447.692 740.345 451.148 742.289 455.612C744.233 460.076 745.205 465.296 745.205 471.272ZM700.169 471.272C700.169 476.168 700.853 480.488 702.221 484.232C703.589 487.904 705.713 490.748 708.593 492.764C711.473 494.78 715.073 495.788 719.393 495.788C723.857 495.788 727.529 494.78 730.409 492.764C733.289 490.676 735.413 487.796 736.781 484.124C738.149 480.38 738.833 476.096 738.833 471.272C738.833 466.448 738.185 462.2 736.889 458.528C735.593 454.856 733.541 451.976 730.733 449.888C727.925 447.8 724.253 446.756 719.717 446.756C713.165 446.756 708.269 448.916 705.029 453.236C701.789 457.556 700.169 463.568 700.169 471.272ZM806.1 442.544V500H801.024L800.16 490.172H799.836C798.828 492.26 797.388 494.132 795.516 495.788C793.716 497.444 791.556 498.74 789.036 499.676C786.516 500.612 783.6 501.08 780.288 501.08C775.824 501.08 772.08 500.324 769.056 498.812C766.104 497.228 763.872 494.888 762.36 491.792C760.848 488.696 760.092 484.844 760.092 480.236V442.544H766.248V479.696C766.248 485.168 767.472 489.236 769.92 491.9C772.44 494.492 776.112 495.788 780.936 495.788C785.184 495.788 788.712 494.996 791.52 493.412C794.328 491.756 796.416 489.308 797.784 486.068C799.224 482.828 799.944 478.796 799.944 473.972V442.544H806.1ZM848.622 441.572C850.062 441.572 851.43 441.68 852.726 441.896C854.094 442.04 855.318 442.256 856.398 442.544L855.534 448.16C854.382 447.872 853.23 447.656 852.078 447.512C850.926 447.296 849.666 447.188 848.298 447.188C845.706 447.188 843.366 447.692 841.278 448.7C839.19 449.708 837.39 451.148 835.878 453.02C834.366 454.892 833.214 457.124 832.422 459.716C831.63 462.308 831.234 465.224 831.234 468.464V500H825.078V442.544H830.262L830.91 453.344H831.234C832.17 451.112 833.43 449.132 835.014 447.404C836.67 445.604 838.65 444.2 840.954 443.192C843.258 442.112 845.814 441.572 848.622 441.572ZM885.777 441.572C892.257 441.572 897.081 443.156 900.249 446.324C903.417 449.492 905.001 454.532 905.001 461.444V500H900.357L899.277 490.28H898.953C897.585 492.44 896.001 494.348 894.201 496.004C892.473 497.588 890.349 498.848 887.829 499.784C885.381 500.648 882.357 501.08 878.757 501.08C875.157 501.08 872.025 500.468 869.361 499.244C866.697 497.948 864.645 496.112 863.205 493.736C861.765 491.36 861.045 488.444 861.045 484.988C861.045 479.3 863.385 474.98 868.065 472.028C872.745 469.004 879.549 467.276 888.477 466.844L898.953 466.412V462.308C898.953 456.62 897.801 452.624 895.497 450.32C893.265 447.944 889.917 446.756 885.453 446.756C882.501 446.756 879.657 447.152 876.921 447.944C874.257 448.664 871.557 449.708 868.821 451.076L866.877 446.216C869.541 444.848 872.493 443.732 875.733 442.868C878.973 442.004 882.321 441.572 885.777 441.572ZM889.125 471.38C881.853 471.74 876.417 473.036 872.817 475.268C869.217 477.428 867.417 480.704 867.417 485.096C867.417 488.624 868.533 491.324 870.765 493.196C872.997 494.996 876.021 495.896 879.837 495.896C885.957 495.896 890.637 494.204 893.877 490.82C897.189 487.436 898.881 482.684 898.953 476.564V470.948L889.125 471.38ZM944.435 441.464C948.971 441.464 952.715 442.364 955.667 444.164C958.619 445.892 960.995 448.268 962.795 451.292H963.227L964.091 442.544H969.059V501.836C969.059 506.876 968.195 511.16 966.467 514.688C964.739 518.288 962.039 521.06 958.367 523.004C954.767 524.948 950.051 525.92 944.219 525.92C939.971 525.92 936.155 525.56 932.771 524.84C929.459 524.12 926.471 523.184 923.807 522.032V516.092C925.607 516.956 927.587 517.748 929.747 518.468C931.907 519.188 934.211 519.728 936.659 520.088C939.179 520.448 941.807 520.628 944.543 520.628C950.879 520.628 955.523 518.972 958.475 515.66C961.499 512.348 963.011 507.884 963.011 502.268V498.812C963.011 497.3 963.011 495.788 963.011 494.276C963.083 492.692 963.155 491.216 963.227 489.848H962.903C961.247 493.52 958.799 496.328 955.559 498.272C952.319 500.144 948.359 501.08 943.679 501.08C936.263 501.08 930.467 498.56 926.291 493.52C922.115 488.48 920.027 481.244 920.027 471.812C920.027 465.548 920.963 460.148 922.835 455.612C924.707 451.076 927.443 447.584 931.043 445.136C934.715 442.688 939.179 441.464 944.435 441.464ZM945.083 446.756C940.907 446.756 937.415 447.764 934.607 449.78C931.871 451.724 929.819 454.568 928.451 458.312C927.083 461.984 926.399 466.484 926.399 471.812C926.399 479.66 927.947 485.636 931.043 489.74C934.139 493.844 938.567 495.896 944.327 495.896C947.999 495.896 951.023 495.356 953.399 494.276C955.775 493.124 957.647 491.54 959.015 489.524C960.455 487.508 961.463 485.132 962.039 482.396C962.687 479.588 963.011 476.6 963.011 473.432V469.652C963.011 464.756 962.435 460.616 961.283 457.232C960.131 453.848 958.223 451.256 955.559 449.456C952.967 447.656 949.475 446.756 945.083 446.756ZM1009.74 441.464C1014.7 441.464 1018.81 442.616 1022.05 444.92C1025.36 447.152 1027.84 450.248 1029.5 454.208C1031.23 458.168 1032.09 462.74 1032.09 467.924V472.028H991.051C991.051 479.732 992.815 485.6 996.343 489.632C999.943 493.664 1005.02 495.68 1011.57 495.68C1015.17 495.68 1018.3 495.392 1020.97 494.816C1023.63 494.24 1026.55 493.232 1029.72 491.792V497.408C1026.84 498.704 1023.99 499.64 1021.18 500.216C1018.38 500.792 1015.1 501.08 1011.36 501.08C1005.67 501.08 1000.81 499.892 996.775 497.516C992.815 495.14 989.791 491.756 987.703 487.364C985.687 482.9 984.679 477.716 984.679 471.812C984.679 465.908 985.651 460.688 987.595 456.152C989.539 451.616 992.383 448.052 996.127 445.46C999.871 442.796 1004.41 441.464 1009.74 441.464ZM1009.74 446.648C1004.41 446.648 1000.12 448.412 996.883 451.94C993.643 455.396 991.735 460.4 991.159 466.952H1025.72C1025.72 462.92 1025.14 459.392 1023.99 456.368C1022.84 453.344 1021.08 450.968 1018.7 449.24C1016.4 447.512 1013.41 446.648 1009.74 446.648Z" fill="#F2F2F2"/>
<path d="M252.316 580L249.656 573.112H241.34L238.652 580H237L244.868 559.952H246.324L253.996 580H252.316ZM246.464 564.432C246.408 564.245 246.324 563.993 246.212 563.676C246.1 563.359 245.988 563.023 245.876 562.668C245.764 562.313 245.652 561.996 245.54 561.716C245.447 562.033 245.344 562.36 245.232 562.696C245.139 563.032 245.036 563.349 244.924 563.648C244.831 563.947 244.737 564.217 244.644 564.46L241.9 571.656H249.152L246.464 564.432ZM270.437 564.824C272.341 564.824 273.825 565.468 274.889 566.756C275.971 568.044 276.513 569.948 276.513 572.468C276.513 574.148 276.261 575.576 275.757 576.752C275.253 577.909 274.534 578.787 273.601 579.384C272.686 579.981 271.585 580.28 270.297 580.28C269.419 580.28 268.654 580.149 268.001 579.888C267.347 579.627 266.806 579.281 266.377 578.852C265.947 578.423 265.611 577.947 265.369 577.424H265.257C265.294 577.891 265.322 578.404 265.341 578.964C265.359 579.505 265.369 580.009 265.369 580.476V586.608H263.773V565.104H265.089L265.285 567.904H265.369C265.611 567.363 265.957 566.859 266.405 566.392C266.853 565.925 267.403 565.552 268.057 565.272C268.729 564.973 269.522 564.824 270.437 564.824ZM270.213 566.196C269.111 566.196 268.206 566.429 267.497 566.896C266.787 567.363 266.255 568.053 265.901 568.968C265.546 569.864 265.369 570.975 265.369 572.3V572.58C265.369 573.98 265.537 575.156 265.873 576.108C266.227 577.041 266.75 577.741 267.441 578.208C268.15 578.675 269.037 578.908 270.101 578.908C271.146 578.908 272.014 578.656 272.705 578.152C273.414 577.629 273.946 576.892 274.301 575.94C274.674 574.969 274.861 573.812 274.861 572.468C274.861 570.433 274.478 568.884 273.713 567.82C272.947 566.737 271.781 566.196 270.213 566.196ZM286.162 564.824C287.45 564.824 288.514 565.123 289.354 565.72C290.213 566.299 290.857 567.101 291.286 568.128C291.734 569.155 291.958 570.34 291.958 571.684V572.748H281.318C281.318 574.745 281.776 576.267 282.69 577.312C283.624 578.357 284.94 578.88 286.638 578.88C287.572 578.88 288.384 578.805 289.074 578.656C289.765 578.507 290.521 578.245 291.342 577.872V579.328C290.596 579.664 289.858 579.907 289.13 580.056C288.402 580.205 287.553 580.28 286.582 580.28C285.108 580.28 283.848 579.972 282.802 579.356C281.776 578.74 280.992 577.863 280.45 576.724C279.928 575.567 279.666 574.223 279.666 572.692C279.666 571.161 279.918 569.808 280.422 568.632C280.926 567.456 281.664 566.532 282.634 565.86C283.605 565.169 284.781 564.824 286.162 564.824ZM286.162 566.168C284.781 566.168 283.67 566.625 282.83 567.54C281.99 568.436 281.496 569.733 281.346 571.432H290.306C290.306 570.387 290.157 569.472 289.858 568.688C289.56 567.904 289.102 567.288 288.486 566.84C287.889 566.392 287.114 566.168 286.162 566.168ZM302.088 564.852C302.461 564.852 302.816 564.88 303.152 564.936C303.506 564.973 303.824 565.029 304.104 565.104L303.88 566.56C303.581 566.485 303.282 566.429 302.984 566.392C302.685 566.336 302.358 566.308 302.004 566.308C301.332 566.308 300.725 566.439 300.184 566.7C299.642 566.961 299.176 567.335 298.784 567.82C298.392 568.305 298.093 568.884 297.888 569.556C297.682 570.228 297.58 570.984 297.58 571.824V580H295.984V565.104H297.328L297.496 567.904H297.58C297.822 567.325 298.149 566.812 298.56 566.364C298.989 565.897 299.502 565.533 300.1 565.272C300.697 564.992 301.36 564.852 302.088 564.852ZM316.355 576.052C316.355 576.948 316.131 577.713 315.683 578.348C315.235 578.983 314.582 579.468 313.723 579.804C312.864 580.121 311.819 580.28 310.587 580.28C309.56 580.28 308.646 580.187 307.843 580C307.04 579.813 306.359 579.589 305.799 579.328V577.788C306.471 578.124 307.227 578.404 308.067 578.628C308.907 578.833 309.756 578.936 310.615 578.936C312.108 578.936 313.182 578.693 313.835 578.208C314.488 577.704 314.815 577.023 314.815 576.164C314.815 575.604 314.656 575.147 314.339 574.792C314.04 574.419 313.583 574.092 312.967 573.812C312.37 573.513 311.623 573.215 310.727 572.916C309.812 572.599 309 572.281 308.291 571.964C307.582 571.628 307.031 571.208 306.639 570.704C306.247 570.2 306.051 569.509 306.051 568.632C306.051 567.437 306.536 566.504 307.507 565.832C308.478 565.16 309.775 564.824 311.399 564.824C312.295 564.824 313.126 564.908 313.891 565.076C314.675 565.244 315.384 565.468 316.019 565.748L315.459 567.064C315.086 566.896 314.666 566.747 314.199 566.616C313.732 566.467 313.256 566.355 312.771 566.28C312.286 566.205 311.8 566.168 311.315 566.168C310.139 566.168 309.224 566.373 308.571 566.784C307.918 567.195 307.591 567.792 307.591 568.576C307.591 569.173 307.74 569.649 308.039 570.004C308.356 570.34 308.814 570.629 309.411 570.872C310.027 571.115 310.764 571.395 311.623 571.712C312.5 572.011 313.294 572.328 314.003 572.664C314.731 573 315.3 573.429 315.711 573.952C316.14 574.475 316.355 575.175 316.355 576.052ZM332.561 572.552C332.561 573.709 332.411 574.764 332.113 575.716C331.833 576.649 331.403 577.461 330.825 578.152C330.265 578.824 329.565 579.347 328.725 579.72C327.885 580.093 326.923 580.28 325.841 580.28C324.814 580.28 323.89 580.103 323.069 579.748C322.266 579.375 321.575 578.852 320.997 578.18C320.418 577.489 319.979 576.668 319.681 575.716C319.382 574.764 319.233 573.709 319.233 572.552C319.233 570.928 319.494 569.547 320.017 568.408C320.558 567.251 321.333 566.364 322.341 565.748C323.367 565.132 324.581 564.824 325.981 564.824C327.399 564.824 328.594 565.151 329.565 565.804C330.554 566.439 331.301 567.335 331.805 568.492C332.309 569.649 332.561 571.003 332.561 572.552ZM320.885 572.552C320.885 573.821 321.062 574.941 321.417 575.912C321.771 576.864 322.322 577.601 323.069 578.124C323.815 578.647 324.749 578.908 325.869 578.908C327.026 578.908 327.978 578.647 328.725 578.124C329.471 577.583 330.022 576.836 330.377 575.884C330.731 574.913 330.909 573.803 330.909 572.552C330.909 571.301 330.741 570.2 330.405 569.248C330.069 568.296 329.537 567.549 328.809 567.008C328.081 566.467 327.129 566.196 325.953 566.196C324.254 566.196 322.985 566.756 322.145 567.876C321.305 568.996 320.885 570.555 320.885 572.552ZM343.28 564.824C344.979 564.824 346.276 565.263 347.172 566.14C348.068 567.017 348.516 568.399 348.516 570.284V580H346.948V570.368C346.948 568.931 346.622 567.876 345.968 567.204C345.315 566.532 344.354 566.196 343.084 566.196C341.46 566.196 340.238 566.672 339.416 567.624C338.595 568.576 338.184 569.995 338.184 571.88V580H336.616V565.104H337.876L338.128 567.68H338.212C338.492 567.139 338.866 566.653 339.332 566.224C339.799 565.795 340.359 565.459 341.012 565.216C341.684 564.955 342.44 564.824 343.28 564.824ZM358.533 564.852C360.213 564.852 361.463 565.263 362.285 566.084C363.106 566.905 363.517 568.212 363.517 570.004V580H362.313L362.033 577.48H361.949C361.594 578.04 361.183 578.535 360.717 578.964C360.269 579.375 359.718 579.701 359.065 579.944C358.43 580.168 357.646 580.28 356.713 580.28C355.779 580.28 354.967 580.121 354.277 579.804C353.586 579.468 353.054 578.992 352.681 578.376C352.307 577.76 352.121 577.004 352.121 576.108C352.121 574.633 352.727 573.513 353.941 572.748C355.154 571.964 356.918 571.516 359.233 571.404L361.949 571.292V570.228C361.949 568.753 361.65 567.717 361.053 567.12C360.474 566.504 359.606 566.196 358.449 566.196C357.683 566.196 356.946 566.299 356.237 566.504C355.546 566.691 354.846 566.961 354.137 567.316L353.633 566.056C354.323 565.701 355.089 565.412 355.929 565.188C356.769 564.964 357.637 564.852 358.533 564.852ZM359.401 572.58C357.515 572.673 356.106 573.009 355.173 573.588C354.239 574.148 353.773 574.997 353.773 576.136C353.773 577.051 354.062 577.751 354.641 578.236C355.219 578.703 356.003 578.936 356.993 578.936C358.579 578.936 359.793 578.497 360.633 577.62C361.491 576.743 361.93 575.511 361.949 573.924V572.468L359.401 572.58ZM369.876 580H368.28V558.72H369.876V580ZM391.414 576.052C391.414 576.948 391.19 577.713 390.742 578.348C390.294 578.983 389.64 579.468 388.782 579.804C387.923 580.121 386.878 580.28 385.646 580.28C384.619 580.28 383.704 580.187 382.902 580C382.099 579.813 381.418 579.589 380.858 579.328V577.788C381.53 578.124 382.286 578.404 383.126 578.628C383.966 578.833 384.815 578.936 385.674 578.936C387.167 578.936 388.24 578.693 388.894 578.208C389.547 577.704 389.874 577.023 389.874 576.164C389.874 575.604 389.715 575.147 389.398 574.792C389.099 574.419 388.642 574.092 388.026 573.812C387.428 573.513 386.682 573.215 385.786 572.916C384.871 572.599 384.059 572.281 383.35 571.964C382.64 571.628 382.09 571.208 381.698 570.704C381.306 570.2 381.11 569.509 381.11 568.632C381.11 567.437 381.595 566.504 382.566 565.832C383.536 565.16 384.834 564.824 386.458 564.824C387.354 564.824 388.184 564.908 388.95 565.076C389.734 565.244 390.443 565.468 391.078 565.748L390.518 567.064C390.144 566.896 389.724 566.747 389.258 566.616C388.791 566.467 388.315 566.355 387.83 566.28C387.344 566.205 386.859 566.168 386.374 566.168C385.198 566.168 384.283 566.373 383.63 566.784C382.976 567.195 382.65 567.792 382.65 568.576C382.65 569.173 382.799 569.649 383.098 570.004C383.415 570.34 383.872 570.629 384.47 570.872C385.086 571.115 385.823 571.395 386.682 571.712C387.559 572.011 388.352 572.328 389.062 572.664C389.79 573 390.359 573.429 390.77 573.952C391.199 574.475 391.414 575.175 391.414 576.052ZM399.359 578.936C399.77 578.936 400.162 578.908 400.535 578.852C400.909 578.777 401.235 578.693 401.515 578.6V579.888C401.235 580 400.881 580.093 400.451 580.168C400.041 580.243 399.602 580.28 399.135 580.28C398.314 580.28 397.614 580.131 397.035 579.832C396.457 579.515 396.009 579.029 395.691 578.376C395.393 577.723 395.243 576.883 395.243 575.856V566.392H393.059V565.496L395.243 564.992L395.831 561.548H396.839V565.104H401.431V566.392H396.839V575.8C396.839 576.827 397.045 577.611 397.455 578.152C397.866 578.675 398.501 578.936 399.359 578.936ZM417.135 572.552C417.135 573.709 416.986 574.764 416.687 575.716C416.407 576.649 415.978 577.461 415.399 578.152C414.839 578.824 414.139 579.347 413.299 579.72C412.459 580.093 411.498 580.28 410.415 580.28C409.388 580.28 408.464 580.103 407.643 579.748C406.84 579.375 406.15 578.852 405.571 578.18C404.992 577.489 404.554 576.668 404.255 575.716C403.956 574.764 403.807 573.709 403.807 572.552C403.807 570.928 404.068 569.547 404.591 568.408C405.132 567.251 405.907 566.364 406.915 565.748C407.942 565.132 409.155 564.824 410.555 564.824C411.974 564.824 413.168 565.151 414.139 565.804C415.128 566.439 415.875 567.335 416.379 568.492C416.883 569.649 417.135 571.003 417.135 572.552ZM405.459 572.552C405.459 573.821 405.636 574.941 405.991 575.912C406.346 576.864 406.896 577.601 407.643 578.124C408.39 578.647 409.323 578.908 410.443 578.908C411.6 578.908 412.552 578.647 413.299 578.124C414.046 577.583 414.596 576.836 414.951 575.884C415.306 574.913 415.483 573.803 415.483 572.552C415.483 571.301 415.315 570.2 414.979 569.248C414.643 568.296 414.111 567.549 413.383 567.008C412.655 566.467 411.703 566.196 410.527 566.196C408.828 566.196 407.559 566.756 406.719 567.876C405.879 568.996 405.459 570.555 405.459 572.552ZM427.295 564.852C427.668 564.852 428.023 564.88 428.359 564.936C428.713 564.973 429.031 565.029 429.311 565.104L429.087 566.56C428.788 566.485 428.489 566.429 428.191 566.392C427.892 566.336 427.565 566.308 427.211 566.308C426.539 566.308 425.932 566.439 425.391 566.7C424.849 566.961 424.383 567.335 423.991 567.82C423.599 568.305 423.3 568.884 423.095 569.556C422.889 570.228 422.787 570.984 422.787 571.824V580H421.191V565.104H422.535L422.703 567.904H422.787C423.029 567.325 423.356 566.812 423.767 566.364C424.196 565.897 424.709 565.533 425.307 565.272C425.904 564.992 426.567 564.852 427.295 564.852ZM429.746 565.104H431.454L434.982 574.372C435.187 574.913 435.374 575.417 435.542 575.884C435.71 576.351 435.859 576.789 435.99 577.2C436.121 577.592 436.233 577.956 436.326 578.292H436.41C436.541 577.863 436.718 577.312 436.942 576.64C437.166 575.949 437.427 575.203 437.726 574.4L441.198 565.104H442.906L436.186 582.66C435.85 583.519 435.477 584.256 435.066 584.872C434.655 585.488 434.17 585.955 433.61 586.272C433.05 586.608 432.378 586.776 431.594 586.776C431.239 586.776 430.913 586.748 430.614 586.692C430.334 586.655 430.063 586.599 429.802 586.524V585.18C430.045 585.236 430.287 585.283 430.53 585.32C430.791 585.376 431.081 585.404 431.398 585.404C431.921 585.404 432.378 585.292 432.77 585.068C433.162 584.863 433.507 584.536 433.806 584.088C434.105 583.659 434.375 583.117 434.618 582.464L435.598 579.944L429.746 565.104ZM465.069 572.552C465.069 573.709 464.919 574.764 464.621 575.716C464.341 576.649 463.911 577.461 463.333 578.152C462.773 578.824 462.073 579.347 461.233 579.72C460.393 580.093 459.431 580.28 458.349 580.28C457.322 580.28 456.398 580.103 455.577 579.748C454.774 579.375 454.083 578.852 453.505 578.18C452.926 577.489 452.487 576.668 452.189 575.716C451.89 574.764 451.741 573.709 451.741 572.552C451.741 570.928 452.002 569.547 452.525 568.408C453.066 567.251 453.841 566.364 454.849 565.748C455.875 565.132 457.089 564.824 458.489 564.824C459.907 564.824 461.102 565.151 462.073 565.804C463.062 566.439 463.809 567.335 464.313 568.492C464.817 569.649 465.069 571.003 465.069 572.552ZM453.393 572.552C453.393 573.821 453.57 574.941 453.925 575.912C454.279 576.864 454.83 577.601 455.577 578.124C456.323 578.647 457.257 578.908 458.377 578.908C459.534 578.908 460.486 578.647 461.233 578.124C461.979 577.583 462.53 576.836 462.885 575.884C463.239 574.913 463.417 573.803 463.417 572.552C463.417 571.301 463.249 570.2 462.913 569.248C462.577 568.296 462.045 567.549 461.317 567.008C460.589 566.467 459.637 566.196 458.461 566.196C456.762 566.196 455.493 566.756 454.653 567.876C453.813 568.996 453.393 570.555 453.393 572.552ZM474.92 566.392H471.364V580H469.768V566.392H467.024V565.524L469.768 565.076V563.564C469.768 562.444 469.927 561.52 470.244 560.792C470.58 560.045 471.075 559.495 471.728 559.14C472.4 558.767 473.231 558.58 474.22 558.58C474.743 558.58 475.219 558.627 475.648 558.72C476.077 558.795 476.469 558.888 476.824 559L476.432 560.316C476.115 560.204 475.76 560.111 475.368 560.036C474.995 559.961 474.612 559.924 474.22 559.924C473.212 559.924 472.484 560.213 472.036 560.792C471.588 561.352 471.364 562.276 471.364 563.564V565.104H474.92V566.392ZM493.914 570.312C493.821 569.995 493.728 569.687 493.634 569.388C493.56 569.089 493.485 568.809 493.41 568.548C493.336 568.268 493.261 567.997 493.186 567.736C493.112 567.475 493.046 567.232 492.99 567.008H492.906C492.85 567.232 492.785 567.475 492.71 567.736C492.654 567.997 492.589 568.277 492.514 568.576C492.44 568.856 492.356 569.145 492.262 569.444C492.188 569.724 492.104 570.023 492.01 570.34L488.846 580H487.166L482.966 565.104H484.618L487.138 574.316C487.288 574.876 487.418 575.389 487.53 575.856C487.642 576.304 487.745 576.724 487.838 577.116C487.932 577.489 487.997 577.835 488.034 578.152H488.118C488.174 577.928 488.23 577.685 488.286 577.424C488.361 577.144 488.436 576.855 488.51 576.556C488.585 576.257 488.669 575.94 488.762 575.604C488.874 575.249 488.986 574.895 489.098 574.54L492.178 565.104H493.83L496.77 574.512C496.92 574.96 497.05 575.408 497.162 575.856C497.293 576.285 497.405 576.696 497.498 577.088C497.61 577.461 497.694 577.816 497.75 578.152H497.834C497.872 577.835 497.928 577.489 498.002 577.116C498.096 576.724 498.198 576.295 498.31 575.828C498.441 575.361 498.581 574.857 498.73 574.316L501.166 565.104H502.79L498.73 580H496.966L493.914 570.312ZM507.196 565.552C507.196 565.925 507.187 566.289 507.168 566.644C507.149 566.999 507.131 567.353 507.112 567.708H507.224C507.485 567.148 507.849 566.653 508.316 566.224C508.783 565.795 509.343 565.459 509.996 565.216C510.668 564.973 511.424 564.852 512.264 564.852C513.403 564.852 514.364 565.048 515.148 565.44C515.932 565.813 516.52 566.401 516.912 567.204C517.323 567.988 517.528 569.015 517.528 570.284V580H515.96V570.368C515.96 568.931 515.633 567.876 514.98 567.204C514.327 566.532 513.365 566.196 512.096 566.196C511.013 566.196 510.108 566.411 509.38 566.84C508.652 567.251 508.101 567.885 507.728 568.744C507.373 569.584 507.196 570.629 507.196 571.88V580H505.628V558.72H507.196V565.552ZM527.908 564.824C529.196 564.824 530.26 565.123 531.1 565.72C531.959 566.299 532.603 567.101 533.032 568.128C533.48 569.155 533.704 570.34 533.704 571.684V572.748H523.064C523.064 574.745 523.522 576.267 524.436 577.312C525.37 578.357 526.686 578.88 528.384 578.88C529.318 578.88 530.13 578.805 530.82 578.656C531.511 578.507 532.267 578.245 533.088 577.872V579.328C532.342 579.664 531.604 579.907 530.876 580.056C530.148 580.205 529.299 580.28 528.328 580.28C526.854 580.28 525.594 579.972 524.548 579.356C523.522 578.74 522.738 577.863 522.196 576.724C521.674 575.567 521.412 574.223 521.412 572.692C521.412 571.161 521.664 569.808 522.168 568.632C522.672 567.456 523.41 566.532 524.38 565.86C525.351 565.169 526.527 564.824 527.908 564.824ZM527.908 566.168C526.527 566.168 525.416 566.625 524.576 567.54C523.736 568.436 523.242 569.733 523.092 571.432H532.052C532.052 570.387 531.903 569.472 531.604 568.688C531.306 567.904 530.848 567.288 530.232 566.84C529.635 566.392 528.86 566.168 527.908 566.168ZM544.394 564.824C546.092 564.824 547.39 565.263 548.286 566.14C549.182 567.017 549.63 568.399 549.63 570.284V580H548.062V570.368C548.062 568.931 547.735 567.876 547.082 567.204C546.428 566.532 545.467 566.196 544.198 566.196C542.574 566.196 541.351 566.672 540.53 567.624C539.708 568.576 539.298 569.995 539.298 571.88V580H537.73V565.104H538.99L539.242 567.68H539.326C539.606 567.139 539.979 566.653 540.446 566.224C540.912 565.795 541.472 565.459 542.126 565.216C542.798 564.955 543.554 564.824 544.394 564.824ZM566.471 580H560.619V578.992L562.747 578.684V561.352L560.619 561.016V560.008H566.471V561.016L564.343 561.352V578.684L566.471 578.992V580ZM579.192 565.104V580H577.624V565.104H579.192ZM578.408 559.588C578.763 559.588 579.033 559.7 579.22 559.924C579.407 560.129 579.5 560.419 579.5 560.792C579.5 561.184 579.407 561.492 579.22 561.716C579.033 561.921 578.763 562.024 578.408 562.024C578.072 562.024 577.811 561.921 577.624 561.716C577.437 561.492 577.344 561.184 577.344 560.792C577.344 560.419 577.437 560.129 577.624 559.924C577.811 559.7 578.072 559.588 578.408 559.588ZM589.48 580.28C587.483 580.28 585.943 579.645 584.86 578.376C583.796 577.088 583.264 575.203 583.264 572.72C583.264 570.144 583.824 568.184 584.944 566.84C586.083 565.496 587.641 564.824 589.62 564.824C590.46 564.824 591.188 564.955 591.804 565.216C592.42 565.459 592.943 565.795 593.372 566.224C593.82 566.653 594.165 567.139 594.408 567.68H594.52C594.501 567.232 594.473 566.747 594.436 566.224C594.417 565.683 594.408 565.197 594.408 564.768V558.72H596.004V580H594.716L594.492 577.396H594.408C594.147 577.919 593.801 578.404 593.372 578.852C592.943 579.281 592.411 579.627 591.776 579.888C591.141 580.149 590.376 580.28 589.48 580.28ZM589.676 578.908C591.412 578.908 592.635 578.385 593.344 577.34C594.072 576.295 594.436 574.783 594.436 572.804V572.552C594.436 570.499 594.072 568.931 593.344 567.848C592.635 566.747 591.449 566.196 589.788 566.196C588.183 566.196 586.969 566.765 586.148 567.904C585.327 569.024 584.916 570.639 584.916 572.748C584.916 574.764 585.308 576.295 586.092 577.34C586.876 578.385 588.071 578.908 589.676 578.908ZM606.522 564.824C607.81 564.824 608.874 565.123 609.714 565.72C610.572 566.299 611.216 567.101 611.646 568.128C612.094 569.155 612.318 570.34 612.318 571.684V572.748H601.678C601.678 574.745 602.135 576.267 603.05 577.312C603.983 578.357 605.299 578.88 606.998 578.88C607.931 578.88 608.743 578.805 609.434 578.656C610.124 578.507 610.88 578.245 611.702 577.872V579.328C610.955 579.664 610.218 579.907 609.49 580.056C608.762 580.205 607.912 580.28 606.942 580.28C605.467 580.28 604.207 579.972 603.162 579.356C602.135 578.74 601.351 577.863 600.81 576.724C600.287 575.567 600.026 574.223 600.026 572.692C600.026 571.161 600.278 569.808 600.782 568.632C601.286 567.456 602.023 566.532 602.994 565.86C603.964 565.169 605.14 564.824 606.522 564.824ZM606.522 566.168C605.14 566.168 604.03 566.625 603.19 567.54C602.35 568.436 601.855 569.733 601.706 571.432H610.666C610.666 570.387 610.516 569.472 610.218 568.688C609.919 567.904 609.462 567.288 608.846 566.84C608.248 566.392 607.474 566.168 606.522 566.168ZM623.007 564.824C624.706 564.824 626.003 565.263 626.899 566.14C627.795 567.017 628.243 568.399 628.243 570.284V580H626.675V570.368C626.675 568.931 626.348 567.876 625.695 567.204C625.042 566.532 624.08 566.196 622.811 566.196C621.187 566.196 619.964 566.672 619.143 567.624C618.322 568.576 617.911 569.995 617.911 571.88V580H616.343V565.104H617.603L617.855 567.68H617.939C618.219 567.139 618.592 566.653 619.059 566.224C619.526 565.795 620.086 565.459 620.739 565.216C621.411 564.955 622.167 564.824 623.007 564.824ZM637.195 578.936C637.606 578.936 637.998 578.908 638.371 578.852C638.745 578.777 639.071 578.693 639.351 578.6V579.888C639.071 580 638.717 580.093 638.287 580.168C637.877 580.243 637.438 580.28 636.971 580.28C636.15 580.28 635.45 580.131 634.871 579.832C634.293 579.515 633.845 579.029 633.527 578.376C633.229 577.723 633.079 576.883 633.079 575.856V566.392H630.895V565.496L633.079 564.992L633.667 561.548H634.675V565.104H639.267V566.392H634.675V575.8C634.675 576.827 634.881 577.611 635.291 578.152C635.702 578.675 636.337 578.936 637.195 578.936ZM644.079 565.104V580H642.511V565.104H644.079ZM643.295 559.588C643.65 559.588 643.92 559.7 644.107 559.924C644.294 560.129 644.387 560.419 644.387 560.792C644.387 561.184 644.294 561.492 644.107 561.716C643.92 561.921 643.65 562.024 643.295 562.024C642.959 562.024 642.698 561.921 642.511 561.716C642.324 561.492 642.231 561.184 642.231 560.792C642.231 560.419 642.324 560.129 642.511 559.924C642.698 559.7 642.959 559.588 643.295 559.588ZM654.815 566.392H651.259V580H649.663V566.392H646.919V565.524L649.663 565.076V563.564C649.663 562.444 649.821 561.52 650.139 560.792C650.475 560.045 650.969 559.495 651.623 559.14C652.295 558.767 653.125 558.58 654.115 558.58C654.637 558.58 655.113 558.627 655.543 558.72C655.972 558.795 656.364 558.888 656.719 559L656.327 560.316C656.009 560.204 655.655 560.111 655.263 560.036C654.889 559.961 654.507 559.924 654.115 559.924C653.107 559.924 652.379 560.213 651.931 560.792C651.483 561.352 651.259 562.276 651.259 563.564V565.104H654.815V566.392ZM659.239 565.104V580H657.671V565.104H659.239ZM658.455 559.588C658.809 559.588 659.08 559.7 659.267 559.924C659.453 560.129 659.547 560.419 659.547 560.792C659.547 561.184 659.453 561.492 659.267 561.716C659.08 561.921 658.809 562.024 658.455 562.024C658.119 562.024 657.857 561.921 657.671 561.716C657.484 561.492 657.391 561.184 657.391 560.792C657.391 560.419 657.484 560.129 657.671 559.924C657.857 559.7 658.119 559.588 658.455 559.588ZM669.795 564.824C671.083 564.824 672.147 565.123 672.987 565.72C673.846 566.299 674.49 567.101 674.919 568.128C675.367 569.155 675.591 570.34 675.591 571.684V572.748H664.951C664.951 574.745 665.408 576.267 666.323 577.312C667.256 578.357 668.572 578.88 670.271 578.88C671.204 578.88 672.016 578.805 672.707 578.656C673.398 578.507 674.154 578.245 674.975 577.872V579.328C674.228 579.664 673.491 579.907 672.763 580.056C672.035 580.205 671.186 580.28 670.215 580.28C668.74 580.28 667.48 579.972 666.435 579.356C665.408 578.74 664.624 577.863 664.083 576.724C663.56 575.567 663.299 574.223 663.299 572.692C663.299 571.161 663.551 569.808 664.055 568.632C664.559 567.456 665.296 566.532 666.267 565.86C667.238 565.169 668.414 564.824 669.795 564.824ZM669.795 566.168C668.414 566.168 667.303 566.625 666.463 567.54C665.623 568.436 665.128 569.733 664.979 571.432H673.939C673.939 570.387 673.79 569.472 673.491 568.688C673.192 567.904 672.735 567.288 672.119 566.84C671.522 566.392 670.747 566.168 669.795 566.168ZM684.964 580.28C682.967 580.28 681.427 579.645 680.344 578.376C679.28 577.088 678.748 575.203 678.748 572.72C678.748 570.144 679.308 568.184 680.428 566.84C681.567 565.496 683.126 564.824 685.104 564.824C685.944 564.824 686.672 564.955 687.288 565.216C687.904 565.459 688.427 565.795 688.856 566.224C689.304 566.653 689.65 567.139 689.892 567.68H690.004C689.986 567.232 689.958 566.747 689.92 566.224C689.902 565.683 689.892 565.197 689.892 564.768V558.72H691.488V580H690.2L689.976 577.396H689.892C689.631 577.919 689.286 578.404 688.856 578.852C688.427 579.281 687.895 579.627 687.26 579.888C686.626 580.149 685.86 580.28 684.964 580.28ZM685.16 578.908C686.896 578.908 688.119 578.385 688.828 577.34C689.556 576.295 689.92 574.783 689.92 572.804V572.552C689.92 570.499 689.556 568.931 688.828 567.848C688.119 566.747 686.934 566.196 685.272 566.196C683.667 566.196 682.454 566.765 681.632 567.904C680.811 569.024 680.4 570.639 680.4 572.748C680.4 574.764 680.792 576.295 681.576 577.34C682.36 578.385 683.555 578.908 685.16 578.908ZM708.916 564.852C710.596 564.852 711.846 565.263 712.668 566.084C713.489 566.905 713.9 568.212 713.9 570.004V580H712.696L712.416 577.48H712.332C711.977 578.04 711.566 578.535 711.1 578.964C710.652 579.375 710.101 579.701 709.448 579.944C708.813 580.168 708.029 580.28 707.096 580.28C706.162 580.28 705.35 580.121 704.66 579.804C703.969 579.468 703.437 578.992 703.064 578.376C702.69 577.76 702.504 577.004 702.504 576.108C702.504 574.633 703.11 573.513 704.324 572.748C705.537 571.964 707.301 571.516 709.616 571.404L712.332 571.292V570.228C712.332 568.753 712.033 567.717 711.436 567.12C710.857 566.504 709.989 566.196 708.832 566.196C708.066 566.196 707.329 566.299 706.62 566.504C705.929 566.691 705.229 566.961 704.52 567.316L704.016 566.056C704.706 565.701 705.472 565.412 706.312 565.188C707.152 564.964 708.02 564.852 708.916 564.852ZM709.784 572.58C707.898 572.673 706.489 573.009 705.556 573.588C704.622 574.148 704.156 574.997 704.156 576.136C704.156 577.051 704.445 577.751 705.024 578.236C705.602 578.703 706.386 578.936 707.376 578.936C708.962 578.936 710.176 578.497 711.016 577.62C711.874 576.743 712.313 575.511 712.332 573.924V572.468L709.784 572.58ZM725.327 564.824C727.026 564.824 728.323 565.263 729.219 566.14C730.115 567.017 730.563 568.399 730.563 570.284V580H728.995V570.368C728.995 568.931 728.669 567.876 728.015 567.204C727.362 566.532 726.401 566.196 725.131 566.196C723.507 566.196 722.285 566.672 721.463 567.624C720.642 568.576 720.231 569.995 720.231 571.88V580H718.663V565.104H719.923L720.175 567.68H720.259C720.539 567.139 720.913 566.653 721.379 566.224C721.846 565.795 722.406 565.459 723.059 565.216C723.731 564.955 724.487 564.824 725.327 564.824ZM748.217 564.824C749.505 564.824 750.569 565.123 751.409 565.72C752.268 566.299 752.912 567.101 753.341 568.128C753.789 569.155 754.013 570.34 754.013 571.684V572.748H743.373C743.373 574.745 743.83 576.267 744.745 577.312C745.678 578.357 746.994 578.88 748.693 578.88C749.626 578.88 750.438 578.805 751.129 578.656C751.82 578.507 752.576 578.245 753.397 577.872V579.328C752.65 579.664 751.913 579.907 751.185 580.056C750.457 580.205 749.608 580.28 748.637 580.28C747.162 580.28 745.902 579.972 744.857 579.356C743.83 578.74 743.046 577.863 742.505 576.724C741.982 575.567 741.721 574.223 741.721 572.692C741.721 571.161 741.973 569.808 742.477 568.632C742.981 567.456 743.718 566.532 744.689 565.86C745.66 565.169 746.836 564.824 748.217 564.824ZM748.217 566.168C746.836 566.168 745.725 566.625 744.885 567.54C744.045 568.436 743.55 569.733 743.401 571.432H752.361C752.361 570.387 752.212 569.472 751.913 568.688C751.614 567.904 751.157 567.288 750.541 566.84C749.944 566.392 749.169 566.168 748.217 566.168ZM762.238 578.936C762.649 578.936 763.041 578.908 763.414 578.852C763.788 578.777 764.114 578.693 764.394 578.6V579.888C764.114 580 763.76 580.093 763.33 580.168C762.92 580.243 762.481 580.28 762.014 580.28C761.193 580.28 760.493 580.131 759.914 579.832C759.336 579.515 758.888 579.029 758.57 578.376C758.272 577.723 758.122 576.883 758.122 575.856V566.392H755.938V565.496L758.122 564.992L758.71 561.548H759.718V565.104H764.31V566.392H759.718V575.8C759.718 576.827 759.924 577.611 760.334 578.152C760.745 578.675 761.38 578.936 762.238 578.936ZM769.122 565.552C769.122 565.925 769.113 566.289 769.094 566.644C769.075 566.999 769.057 567.353 769.038 567.708H769.15C769.411 567.148 769.775 566.653 770.242 566.224C770.709 565.795 771.269 565.459 771.922 565.216C772.594 564.973 773.35 564.852 774.19 564.852C775.329 564.852 776.29 565.048 777.074 565.44C777.858 565.813 778.446 566.401 778.838 567.204C779.249 567.988 779.454 569.015 779.454 570.284V580H777.886V570.368C777.886 568.931 777.559 567.876 776.906 567.204C776.253 566.532 775.291 566.196 774.022 566.196C772.939 566.196 772.034 566.411 771.306 566.84C770.578 567.251 770.027 567.885 769.654 568.744C769.299 569.584 769.122 570.629 769.122 571.88V580H767.554V558.72H769.122V565.552ZM785.774 565.104V580H784.206V565.104H785.774ZM784.99 559.588C785.345 559.588 785.616 559.7 785.802 559.924C785.989 560.129 786.082 560.419 786.082 560.792C786.082 561.184 785.989 561.492 785.802 561.716C785.616 561.921 785.345 562.024 784.99 562.024C784.654 562.024 784.393 561.921 784.206 561.716C784.02 561.492 783.926 561.184 783.926 560.792C783.926 560.419 784.02 560.129 784.206 559.924C784.393 559.7 784.654 559.588 784.99 559.588ZM796.678 580.28C795.222 580.28 793.981 579.981 792.954 579.384C791.946 578.768 791.171 577.891 790.63 576.752C790.107 575.613 789.846 574.241 789.846 572.636C789.846 570.956 790.145 569.537 790.742 568.38C791.358 567.223 792.198 566.345 793.262 565.748C794.326 565.132 795.577 564.824 797.014 564.824C797.723 564.824 798.386 564.899 799.002 565.048C799.637 565.179 800.197 565.356 800.682 565.58L800.262 566.924C799.758 566.719 799.217 566.56 798.638 566.448C798.059 566.317 797.509 566.252 796.986 566.252C795.791 566.252 794.783 566.513 793.962 567.036C793.159 567.54 792.543 568.268 792.114 569.22C791.703 570.172 791.498 571.311 791.498 572.636C791.498 573.868 791.675 574.96 792.03 575.912C792.403 576.845 792.973 577.573 793.738 578.096C794.503 578.619 795.483 578.88 796.678 578.88C797.406 578.88 798.087 578.805 798.722 578.656C799.375 578.507 799.973 578.311 800.514 578.068V579.524C800.029 579.729 799.469 579.907 798.834 580.056C798.199 580.205 797.481 580.28 796.678 580.28ZM809.294 564.852C810.974 564.852 812.225 565.263 813.046 566.084C813.868 566.905 814.278 568.212 814.278 570.004V580H813.074L812.794 577.48H812.71C812.356 578.04 811.945 578.535 811.478 578.964C811.03 579.375 810.48 579.701 809.826 579.944C809.192 580.168 808.408 580.28 807.474 580.28C806.541 580.28 805.729 580.121 805.038 579.804C804.348 579.468 803.816 578.992 803.442 578.376C803.069 577.76 802.882 577.004 802.882 576.108C802.882 574.633 803.489 573.513 804.702 572.748C805.916 571.964 807.68 571.516 809.994 571.404L812.71 571.292V570.228C812.71 568.753 812.412 567.717 811.814 567.12C811.236 566.504 810.368 566.196 809.21 566.196C808.445 566.196 807.708 566.299 806.998 566.504C806.308 566.691 805.608 566.961 804.898 567.316L804.394 566.056C805.085 565.701 805.85 565.412 806.69 565.188C807.53 564.964 808.398 564.852 809.294 564.852ZM810.162 572.58C808.277 572.673 806.868 573.009 805.934 573.588C805.001 574.148 804.534 574.997 804.534 576.136C804.534 577.051 804.824 577.751 805.402 578.236C805.981 578.703 806.765 578.936 807.754 578.936C809.341 578.936 810.554 578.497 811.394 577.62C812.253 576.743 812.692 575.511 812.71 573.924V572.468L810.162 572.58ZM820.638 580H819.042V558.72H820.638V580ZM838.927 564.852C839.301 564.852 839.655 564.88 839.991 564.936C840.346 564.973 840.663 565.029 840.943 565.104L840.719 566.56C840.421 566.485 840.122 566.429 839.823 566.392C839.525 566.336 839.198 566.308 838.843 566.308C838.171 566.308 837.565 566.439 837.023 566.7C836.482 566.961 836.015 567.335 835.623 567.82C835.231 568.305 834.933 568.884 834.727 569.556C834.522 570.228 834.419 570.984 834.419 571.824V580H832.823V565.104H834.167L834.335 567.904H834.419C834.662 567.325 834.989 566.812 835.399 566.364C835.829 565.897 836.342 565.533 836.939 565.272C837.537 564.992 838.199 564.852 838.927 564.852ZM845.411 565.104V580H843.843V565.104H845.411ZM844.627 559.588C844.982 559.588 845.252 559.7 845.439 559.924C845.626 560.129 845.719 560.419 845.719 560.792C845.719 561.184 845.626 561.492 845.439 561.716C845.252 561.921 844.982 562.024 844.627 562.024C844.291 562.024 844.03 561.921 843.843 561.716C843.656 561.492 843.563 561.184 843.563 560.792C843.563 560.419 843.656 560.129 843.843 559.924C844.03 559.7 844.291 559.588 844.627 559.588ZM859.703 576.052C859.703 576.948 859.479 577.713 859.031 578.348C858.583 578.983 857.929 579.468 857.071 579.804C856.212 580.121 855.167 580.28 853.935 580.28C852.908 580.28 851.993 580.187 851.191 580C850.388 579.813 849.707 579.589 849.147 579.328V577.788C849.819 578.124 850.575 578.404 851.415 578.628C852.255 578.833 853.104 578.936 853.963 578.936C855.456 578.936 856.529 578.693 857.183 578.208C857.836 577.704 858.163 577.023 858.163 576.164C858.163 575.604 858.004 575.147 857.687 574.792C857.388 574.419 856.931 574.092 856.315 573.812C855.717 573.513 854.971 573.215 854.075 572.916C853.16 572.599 852.348 572.281 851.639 571.964C850.929 571.628 850.379 571.208 849.987 570.704C849.595 570.2 849.399 569.509 849.399 568.632C849.399 567.437 849.884 566.504 850.855 565.832C851.825 565.16 853.123 564.824 854.747 564.824C855.643 564.824 856.473 564.908 857.239 565.076C858.023 565.244 858.732 565.468 859.367 565.748L858.807 567.064C858.433 566.896 858.013 566.747 857.547 566.616C857.08 566.467 856.604 566.355 856.119 566.28C855.633 566.205 855.148 566.168 854.663 566.168C853.487 566.168 852.572 566.373 851.919 566.784C851.265 567.195 850.939 567.792 850.939 568.576C850.939 569.173 851.088 569.649 851.387 570.004C851.704 570.34 852.161 570.629 852.759 570.872C853.375 571.115 854.112 571.395 854.971 571.712C855.848 572.011 856.641 572.328 857.351 572.664C858.079 573 858.648 573.429 859.059 573.952C859.488 574.475 859.703 575.175 859.703 576.052ZM865.016 569.528C865.016 570.125 865.007 570.751 864.988 571.404C864.97 572.039 864.951 572.673 864.932 573.308H864.988C865.156 573.103 865.334 572.888 865.52 572.664C865.707 572.421 865.903 572.188 866.108 571.964C866.314 571.721 866.51 571.497 866.696 571.292L872.352 565.104H874.256L868.348 571.488L874.76 580H872.856L867.256 572.524L865.016 574.848V580H863.448V558.72H865.016V569.528ZM879.244 577.088C879.095 577.76 878.908 578.479 878.684 579.244C878.46 580.009 878.218 580.765 877.956 581.512C877.695 582.259 877.424 582.959 877.144 583.612H875.912C876.155 582.791 876.37 581.988 876.556 581.204C876.743 580.42 876.911 579.655 877.06 578.908C877.21 578.161 877.331 577.443 877.424 576.752H879.104L879.244 577.088ZM896.111 564.852C897.791 564.852 899.041 565.263 899.863 566.084C900.684 566.905 901.095 568.212 901.095 570.004V580H899.891L899.611 577.48H899.527C899.172 578.04 898.761 578.535 898.295 578.964C897.847 579.375 897.296 579.701 896.643 579.944C896.008 580.168 895.224 580.28 894.291 580.28C893.357 580.28 892.545 580.121 891.855 579.804C891.164 579.468 890.632 578.992 890.259 578.376C889.885 577.76 889.699 577.004 889.699 576.108C889.699 574.633 890.305 573.513 891.519 572.748C892.732 571.964 894.496 571.516 896.811 571.404L899.527 571.292V570.228C899.527 568.753 899.228 567.717 898.631 567.12C898.052 566.504 897.184 566.196 896.027 566.196C895.261 566.196 894.524 566.299 893.815 566.504C893.124 566.691 892.424 566.961 891.715 567.316L891.211 566.056C891.901 565.701 892.667 565.412 893.507 565.188C894.347 564.964 895.215 564.852 896.111 564.852ZM896.979 572.58C895.093 572.673 893.684 573.009 892.751 573.588C891.817 574.148 891.351 574.997 891.351 576.136C891.351 577.051 891.64 577.751 892.219 578.236C892.797 578.703 893.581 578.936 894.571 578.936C896.157 578.936 897.371 578.497 898.211 577.62C899.069 576.743 899.508 575.511 899.527 573.924V572.468L896.979 572.58ZM912.523 564.824C914.221 564.824 915.519 565.263 916.415 566.14C917.311 567.017 917.759 568.399 917.759 570.284V580H916.191V570.368C916.191 568.931 915.864 567.876 915.211 567.204C914.557 566.532 913.596 566.196 912.327 566.196C910.703 566.196 909.48 566.672 908.659 567.624C907.837 568.576 907.427 569.995 907.427 571.88V580H905.859V565.104H907.119L907.371 567.68H907.455C907.735 567.139 908.108 566.653 908.575 566.224C909.041 565.795 909.601 565.459 910.255 565.216C910.927 564.955 911.683 564.824 912.523 564.824ZM927.859 580.28C925.862 580.28 924.322 579.645 923.239 578.376C922.175 577.088 921.643 575.203 921.643 572.72C921.643 570.144 922.203 568.184 923.323 566.84C924.462 565.496 926.02 564.824 927.999 564.824C928.839 564.824 929.567 564.955 930.183 565.216C930.799 565.459 931.322 565.795 931.751 566.224C932.199 566.653 932.544 567.139 932.787 567.68H932.899C932.88 567.232 932.852 566.747 932.815 566.224C932.796 565.683 932.787 565.197 932.787 564.768V558.72H934.383V580H933.095L932.871 577.396H932.787C932.526 577.919 932.18 578.404 931.751 578.852C931.322 579.281 930.79 579.627 930.155 579.888C929.52 580.149 928.755 580.28 927.859 580.28ZM928.055 578.908C929.791 578.908 931.014 578.385 931.723 577.34C932.451 576.295 932.815 574.783 932.815 572.804V572.552C932.815 570.499 932.451 568.931 931.723 567.848C931.014 566.747 929.828 566.196 928.167 566.196C926.562 566.196 925.348 566.765 924.527 567.904C923.706 569.024 923.295 570.639 923.295 572.748C923.295 574.764 923.687 576.295 924.471 577.34C925.255 578.385 926.45 578.908 928.055 578.908ZM948.114 565.552C948.114 565.925 948.105 566.289 948.086 566.644C948.067 566.999 948.049 567.353 948.03 567.708H948.142C948.403 567.148 948.767 566.653 949.234 566.224C949.701 565.795 950.261 565.459 950.914 565.216C951.586 564.973 952.342 564.852 953.182 564.852C954.321 564.852 955.282 565.048 956.066 565.44C956.85 565.813 957.438 566.401 957.83 567.204C958.241 567.988 958.446 569.015 958.446 570.284V580H956.878V570.368C956.878 568.931 956.551 567.876 955.898 567.204C955.245 566.532 954.283 566.196 953.014 566.196C951.931 566.196 951.026 566.411 950.298 566.84C949.57 567.251 949.019 567.885 948.646 568.744C948.291 569.584 948.114 570.629 948.114 571.88V580H946.546V558.72H948.114V565.552ZM968.462 564.852C970.142 564.852 971.393 565.263 972.214 566.084C973.036 566.905 973.446 568.212 973.446 570.004V580H972.242L971.962 577.48H971.878C971.524 578.04 971.113 578.535 970.646 578.964C970.198 579.375 969.648 579.701 968.994 579.944C968.36 580.168 967.576 580.28 966.642 580.28C965.709 580.28 964.897 580.121 964.206 579.804C963.516 579.468 962.984 578.992 962.61 578.376C962.237 577.76 962.05 577.004 962.05 576.108C962.05 574.633 962.657 573.513 963.87 572.748C965.084 571.964 966.848 571.516 969.162 571.404L971.878 571.292V570.228C971.878 568.753 971.58 567.717 970.982 567.12C970.404 566.504 969.536 566.196 968.378 566.196C967.613 566.196 966.876 566.299 966.166 566.504C965.476 566.691 964.776 566.961 964.066 567.316L963.562 566.056C964.253 565.701 965.018 565.412 965.858 565.188C966.698 564.964 967.566 564.852 968.462 564.852ZM969.33 572.58C967.445 572.673 966.036 573.009 965.102 573.588C964.169 574.148 963.702 574.997 963.702 576.136C963.702 577.051 963.992 577.751 964.57 578.236C965.149 578.703 965.933 578.936 966.922 578.936C968.509 578.936 969.722 578.497 970.562 577.62C971.421 576.743 971.86 575.511 971.878 573.924V572.468L969.33 572.58ZM983.558 580.28C981.561 580.28 980.021 579.645 978.938 578.376C977.874 577.088 977.342 575.203 977.342 572.72C977.342 570.144 977.902 568.184 979.022 566.84C980.161 565.496 981.719 564.824 983.698 564.824C984.538 564.824 985.266 564.955 985.882 565.216C986.498 565.459 987.021 565.795 987.45 566.224C987.898 566.653 988.243 567.139 988.486 567.68H988.598C988.579 567.232 988.551 566.747 988.514 566.224C988.495 565.683 988.486 565.197 988.486 564.768V558.72H990.082V580H988.794L988.57 577.396H988.486C988.225 577.919 987.879 578.404 987.45 578.852C987.021 579.281 986.489 579.627 985.854 579.888C985.219 580.149 984.454 580.28 983.558 580.28ZM983.754 578.908C985.49 578.908 986.713 578.385 987.422 577.34C988.15 576.295 988.514 574.783 988.514 572.804V572.552C988.514 570.499 988.15 568.931 987.422 567.848C986.713 566.747 985.527 566.196 983.866 566.196C982.261 566.196 981.047 566.765 980.226 567.904C979.405 569.024 978.994 570.639 978.994 572.748C978.994 574.764 979.386 576.295 980.17 577.34C980.954 578.385 982.149 578.908 983.754 578.908ZM1006.45 578.936C1006.86 578.936 1007.25 578.908 1007.62 578.852C1007.99 578.777 1008.32 578.693 1008.6 578.6V579.888C1008.32 580 1007.97 580.093 1007.54 580.168C1007.13 580.243 1006.69 580.28 1006.22 580.28C1005.4 580.28 1004.7 580.131 1004.12 579.832C1003.54 579.515 1003.09 579.029 1002.78 578.376C1002.48 577.723 1002.33 576.883 1002.33 575.856V566.392H1000.15V565.496L1002.33 564.992L1002.92 561.548H1003.93V565.104H1008.52V566.392H1003.93V575.8C1003.93 576.827 1004.13 577.611 1004.54 578.152C1004.95 578.675 1005.59 578.936 1006.45 578.936ZM1013.33 565.552C1013.33 565.925 1013.32 566.289 1013.3 566.644C1013.28 566.999 1013.26 567.353 1013.24 567.708H1013.36C1013.62 567.148 1013.98 566.653 1014.45 566.224C1014.92 565.795 1015.48 565.459 1016.13 565.216C1016.8 564.973 1017.56 564.852 1018.4 564.852C1019.54 564.852 1020.5 565.048 1021.28 565.44C1022.06 565.813 1022.65 566.401 1023.04 567.204C1023.46 567.988 1023.66 569.015 1023.66 570.284V580H1022.09V570.368C1022.09 568.931 1021.77 567.876 1021.11 567.204C1020.46 566.532 1019.5 566.196 1018.23 566.196C1017.15 566.196 1016.24 566.411 1015.51 566.84C1014.78 567.251 1014.23 567.885 1013.86 568.744C1013.51 569.584 1013.33 570.629 1013.33 571.88V580H1011.76V558.72H1013.33V565.552ZM1034.04 564.824C1035.33 564.824 1036.39 565.123 1037.23 565.72C1038.09 566.299 1038.74 567.101 1039.17 568.128C1039.61 569.155 1039.84 570.34 1039.84 571.684V572.748H1029.2C1029.2 574.745 1029.65 576.267 1030.57 577.312C1031.5 578.357 1032.82 578.88 1034.52 578.88C1035.45 578.88 1036.26 578.805 1036.95 578.656C1037.64 578.507 1038.4 578.245 1039.22 577.872V579.328C1038.47 579.664 1037.74 579.907 1037.01 580.056C1036.28 580.205 1035.43 580.28 1034.46 580.28C1032.99 580.28 1031.73 579.972 1030.68 579.356C1029.65 578.74 1028.87 577.863 1028.33 576.724C1027.81 575.567 1027.55 574.223 1027.55 572.692C1027.55 571.161 1027.8 569.808 1028.3 568.632C1028.81 567.456 1029.54 566.532 1030.51 565.86C1031.48 565.169 1032.66 564.824 1034.04 564.824ZM1034.04 566.168C1032.66 566.168 1031.55 566.625 1030.71 567.54C1029.87 568.436 1029.37 569.733 1029.23 571.432H1038.19C1038.19 570.387 1038.04 569.472 1037.74 568.688C1037.44 567.904 1036.98 567.288 1036.37 566.84C1035.77 566.392 1034.99 566.168 1034.04 566.168ZM1057.1 580.28C1055.64 580.28 1054.4 579.981 1053.38 579.384C1052.37 578.768 1051.59 577.891 1051.05 576.752C1050.53 575.613 1050.27 574.241 1050.27 572.636C1050.27 570.956 1050.57 569.537 1051.16 568.38C1051.78 567.223 1052.62 566.345 1053.68 565.748C1054.75 565.132 1056 564.824 1057.44 564.824C1058.15 564.824 1058.81 564.899 1059.42 565.048C1060.06 565.179 1060.62 565.356 1061.1 565.58L1060.68 566.924C1060.18 566.719 1059.64 566.56 1059.06 566.448C1058.48 566.317 1057.93 566.252 1057.41 566.252C1056.21 566.252 1055.21 566.513 1054.38 567.036C1053.58 567.54 1052.97 568.268 1052.54 569.22C1052.13 570.172 1051.92 571.311 1051.92 572.636C1051.92 573.868 1052.1 574.96 1052.45 575.912C1052.83 576.845 1053.39 577.573 1054.16 578.096C1054.93 578.619 1055.91 578.88 1057.1 578.88C1057.83 578.88 1058.51 578.805 1059.14 578.656C1059.8 578.507 1060.39 578.311 1060.94 578.068V579.524C1060.45 579.729 1059.89 579.907 1059.26 580.056C1058.62 580.205 1057.9 580.28 1057.1 580.28ZM1076.91 572.552C1076.91 573.709 1076.76 574.764 1076.46 575.716C1076.18 576.649 1075.75 577.461 1075.18 578.152C1074.62 578.824 1073.92 579.347 1073.08 579.72C1072.24 580.093 1071.27 580.28 1070.19 580.28C1069.17 580.28 1068.24 580.103 1067.42 579.748C1066.62 579.375 1065.93 578.852 1065.35 578.18C1064.77 577.489 1064.33 576.668 1064.03 575.716C1063.73 574.764 1063.58 573.709 1063.58 572.552C1063.58 570.928 1063.85 569.547 1064.37 568.408C1064.91 567.251 1065.68 566.364 1066.69 565.748C1067.72 565.132 1068.93 564.824 1070.33 564.824C1071.75 564.824 1072.95 565.151 1073.92 565.804C1074.91 566.439 1075.65 567.335 1076.16 568.492C1076.66 569.649 1076.91 571.003 1076.91 572.552ZM1065.24 572.552C1065.24 573.821 1065.41 574.941 1065.77 575.912C1066.12 576.864 1066.67 577.601 1067.42 578.124C1068.17 578.647 1069.1 578.908 1070.22 578.908C1071.38 578.908 1072.33 578.647 1073.08 578.124C1073.82 577.583 1074.37 576.836 1074.73 575.884C1075.08 574.913 1075.26 573.803 1075.26 572.552C1075.26 571.301 1075.09 570.2 1074.76 569.248C1074.42 568.296 1073.89 567.549 1073.16 567.008C1072.43 566.467 1071.48 566.196 1070.3 566.196C1068.61 566.196 1067.34 566.756 1066.5 567.876C1065.66 568.996 1065.24 570.555 1065.24 572.552ZM1092.7 565.104V580H1091.38L1091.16 577.452H1091.08C1090.81 577.993 1090.44 578.479 1089.96 578.908C1089.49 579.337 1088.93 579.673 1088.28 579.916C1087.62 580.159 1086.87 580.28 1086.01 580.28C1084.85 580.28 1083.88 580.084 1083.1 579.692C1082.33 579.281 1081.75 578.675 1081.36 577.872C1080.97 577.069 1080.77 576.071 1080.77 574.876V565.104H1082.37V574.736C1082.37 576.155 1082.69 577.209 1083.32 577.9C1083.97 578.572 1084.93 578.908 1086.18 578.908C1087.28 578.908 1088.19 578.703 1088.92 578.292C1089.65 577.863 1090.19 577.228 1090.54 576.388C1090.92 575.548 1091.1 574.503 1091.1 573.252V565.104H1092.7ZM1103.72 564.852C1104.1 564.852 1104.45 564.88 1104.79 564.936C1105.14 564.973 1105.46 565.029 1105.74 565.104L1105.52 566.56C1105.22 566.485 1104.92 566.429 1104.62 566.392C1104.32 566.336 1103.99 566.308 1103.64 566.308C1102.97 566.308 1102.36 566.439 1101.82 566.7C1101.28 566.961 1100.81 567.335 1100.42 567.82C1100.03 568.305 1099.73 568.884 1099.52 569.556C1099.32 570.228 1099.22 570.984 1099.22 571.824V580H1097.62V565.104H1098.96L1099.13 567.904H1099.22C1099.46 567.325 1099.79 566.812 1100.2 566.364C1100.63 565.897 1101.14 565.533 1101.74 565.272C1102.33 564.992 1103 564.852 1103.72 564.852ZM1113.36 564.852C1115.04 564.852 1116.29 565.263 1117.11 566.084C1117.93 566.905 1118.34 568.212 1118.34 570.004V580H1117.14L1116.86 577.48H1116.77C1116.42 578.04 1116.01 578.535 1115.54 578.964C1115.09 579.375 1114.54 579.701 1113.89 579.944C1113.25 580.168 1112.47 580.28 1111.54 580.28C1110.6 580.28 1109.79 580.121 1109.1 579.804C1108.41 579.468 1107.88 578.992 1107.5 578.376C1107.13 577.76 1106.94 577.004 1106.94 576.108C1106.94 574.633 1107.55 573.513 1108.76 572.748C1109.98 571.964 1111.74 571.516 1114.06 571.404L1116.77 571.292V570.228C1116.77 568.753 1116.47 567.717 1115.88 567.12C1115.3 566.504 1114.43 566.196 1113.27 566.196C1112.51 566.196 1111.77 566.299 1111.06 566.504C1110.37 566.691 1109.67 566.961 1108.96 567.316L1108.46 566.056C1109.15 565.701 1109.91 565.412 1110.75 565.188C1111.59 564.964 1112.46 564.852 1113.36 564.852ZM1114.22 572.58C1112.34 572.673 1110.93 573.009 1110 573.588C1109.06 574.148 1108.6 574.997 1108.6 576.136C1108.6 577.051 1108.89 577.751 1109.46 578.236C1110.04 578.703 1110.83 578.936 1111.82 578.936C1113.4 578.936 1114.62 578.497 1115.46 577.62C1116.32 576.743 1116.75 575.511 1116.77 573.924V572.468L1114.22 572.58ZM1128.56 564.824C1129.74 564.824 1130.71 565.057 1131.48 565.524C1132.24 565.972 1132.86 566.588 1133.32 567.372H1133.44L1133.66 565.104H1134.95V580.476C1134.95 581.783 1134.72 582.893 1134.28 583.808C1133.83 584.741 1133.13 585.46 1132.18 585.964C1131.24 586.468 1130.02 586.72 1128.51 586.72C1127.41 586.72 1126.42 586.627 1125.54 586.44C1124.68 586.253 1123.91 586.011 1123.22 585.712V584.172C1123.68 584.396 1124.2 584.601 1124.76 584.788C1125.32 584.975 1125.91 585.115 1126.55 585.208C1127.2 585.301 1127.88 585.348 1128.59 585.348C1130.24 585.348 1131.44 584.919 1132.2 584.06C1132.99 583.201 1133.38 582.044 1133.38 580.588V579.692C1133.38 579.3 1133.38 578.908 1133.38 578.516C1133.4 578.105 1133.42 577.723 1133.44 577.368H1133.35C1132.92 578.32 1132.29 579.048 1131.45 579.552C1130.61 580.037 1129.58 580.28 1128.37 580.28C1126.45 580.28 1124.94 579.627 1123.86 578.32C1122.78 577.013 1122.24 575.137 1122.24 572.692C1122.24 571.068 1122.48 569.668 1122.96 568.492C1123.45 567.316 1124.16 566.411 1125.09 565.776C1126.04 565.141 1127.2 564.824 1128.56 564.824ZM1128.73 566.196C1127.65 566.196 1126.74 566.457 1126.02 566.98C1125.31 567.484 1124.78 568.221 1124.42 569.192C1124.07 570.144 1123.89 571.311 1123.89 572.692C1123.89 574.727 1124.29 576.276 1125.09 577.34C1125.9 578.404 1127.04 578.936 1128.54 578.936C1129.49 578.936 1130.27 578.796 1130.89 578.516C1131.5 578.217 1131.99 577.807 1132.34 577.284C1132.72 576.761 1132.98 576.145 1133.13 575.436C1133.3 574.708 1133.38 573.933 1133.38 573.112V572.132C1133.38 570.863 1133.23 569.789 1132.93 568.912C1132.63 568.035 1132.14 567.363 1131.45 566.896C1130.78 566.429 1129.87 566.196 1128.73 566.196ZM1145.49 564.824C1146.78 564.824 1147.85 565.123 1148.69 565.72C1149.55 566.299 1150.19 567.101 1150.62 568.128C1151.07 569.155 1151.29 570.34 1151.29 571.684V572.748H1140.65C1140.65 574.745 1141.11 576.267 1142.02 577.312C1142.96 578.357 1144.27 578.88 1145.97 578.88C1146.9 578.88 1147.72 578.805 1148.41 578.656C1149.1 578.507 1149.85 578.245 1150.67 577.872V579.328C1149.93 579.664 1149.19 579.907 1148.46 580.056C1147.73 580.205 1146.89 580.28 1145.91 580.28C1144.44 580.28 1143.18 579.972 1142.13 579.356C1141.11 578.74 1140.32 577.863 1139.78 576.724C1139.26 575.567 1139 574.223 1139 572.692C1139 571.161 1139.25 569.808 1139.75 568.632C1140.26 567.456 1141 566.532 1141.97 565.86C1142.94 565.169 1144.11 564.824 1145.49 564.824ZM1145.49 566.168C1144.11 566.168 1143 566.625 1142.16 567.54C1141.32 568.436 1140.83 569.733 1140.68 571.432H1149.64C1149.64 570.387 1149.49 569.472 1149.19 568.688C1148.89 567.904 1148.43 567.288 1147.82 566.84C1147.22 566.392 1146.45 566.168 1145.49 566.168ZM1166.79 578.936C1167.2 578.936 1167.59 578.908 1167.97 578.852C1168.34 578.777 1168.67 578.693 1168.95 578.6V579.888C1168.67 580 1168.31 580.093 1167.88 580.168C1167.47 580.243 1167.03 580.28 1166.57 580.28C1165.74 580.28 1165.04 580.131 1164.47 579.832C1163.89 579.515 1163.44 579.029 1163.12 578.376C1162.82 577.723 1162.67 576.883 1162.67 575.856V566.392H1160.49V565.496L1162.67 564.992L1163.26 561.548H1164.27V565.104H1168.86V566.392H1164.27V575.8C1164.27 576.827 1164.47 577.611 1164.89 578.152C1165.3 578.675 1165.93 578.936 1166.79 578.936ZM1184.56 572.552C1184.56 573.709 1184.42 574.764 1184.12 575.716C1183.84 576.649 1183.41 577.461 1182.83 578.152C1182.27 578.824 1181.57 579.347 1180.73 579.72C1179.89 580.093 1178.93 580.28 1177.84 580.28C1176.82 580.28 1175.89 580.103 1175.07 579.748C1174.27 579.375 1173.58 578.852 1173 578.18C1172.42 577.489 1171.98 576.668 1171.68 575.716C1171.39 574.764 1171.24 573.709 1171.24 572.552C1171.24 570.928 1171.5 569.547 1172.02 568.408C1172.56 567.251 1173.34 566.364 1174.34 565.748C1175.37 565.132 1176.58 564.824 1177.98 564.824C1179.4 564.824 1180.6 565.151 1181.57 565.804C1182.56 566.439 1183.3 567.335 1183.81 568.492C1184.31 569.649 1184.56 571.003 1184.56 572.552ZM1172.89 572.552C1172.89 573.821 1173.07 574.941 1173.42 575.912C1173.78 576.864 1174.33 577.601 1175.07 578.124C1175.82 578.647 1176.75 578.908 1177.87 578.908C1179.03 578.908 1179.98 578.647 1180.73 578.124C1181.48 577.583 1182.03 576.836 1182.38 575.884C1182.74 574.913 1182.91 573.803 1182.91 572.552C1182.91 571.301 1182.74 570.2 1182.41 569.248C1182.07 568.296 1181.54 567.549 1180.81 567.008C1180.08 566.467 1179.13 566.196 1177.96 566.196C1176.26 566.196 1174.99 566.756 1174.15 567.876C1173.31 568.996 1172.89 570.555 1172.89 572.552ZM1205.25 576.052C1205.25 576.948 1205.02 577.713 1204.57 578.348C1204.13 578.983 1203.47 579.468 1202.61 579.804C1201.76 580.121 1200.71 580.28 1199.48 580.28C1198.45 580.28 1197.54 580.187 1196.73 580C1195.93 579.813 1195.25 579.589 1194.69 579.328V577.788C1195.36 578.124 1196.12 578.404 1196.96 578.628C1197.8 578.833 1198.65 578.936 1199.51 578.936C1201 578.936 1202.07 578.693 1202.73 578.208C1203.38 577.704 1203.71 577.023 1203.71 576.164C1203.71 575.604 1203.55 575.147 1203.23 574.792C1202.93 574.419 1202.47 574.092 1201.86 573.812C1201.26 573.513 1200.51 573.215 1199.62 572.916C1198.7 572.599 1197.89 572.281 1197.18 571.964C1196.47 571.628 1195.92 571.208 1195.53 570.704C1195.14 570.2 1194.94 569.509 1194.94 568.632C1194.94 567.437 1195.43 566.504 1196.4 565.832C1197.37 565.16 1198.67 564.824 1200.29 564.824C1201.19 564.824 1202.02 564.908 1202.78 565.076C1203.57 565.244 1204.28 565.468 1204.91 565.748L1204.35 567.064C1203.98 566.896 1203.56 566.747 1203.09 566.616C1202.62 566.467 1202.15 566.355 1201.66 566.28C1201.18 566.205 1200.69 566.168 1200.21 566.168C1199.03 566.168 1198.12 566.373 1197.46 566.784C1196.81 567.195 1196.48 567.792 1196.48 568.576C1196.48 569.173 1196.63 569.649 1196.93 570.004C1197.25 570.34 1197.7 570.629 1198.3 570.872C1198.92 571.115 1199.66 571.395 1200.51 571.712C1201.39 572.011 1202.18 572.328 1202.89 572.664C1203.62 573 1204.19 573.429 1204.6 573.952C1205.03 574.475 1205.25 575.175 1205.25 576.052ZM1215.66 564.824C1217.56 564.824 1219.04 565.468 1220.11 566.756C1221.19 568.044 1221.73 569.948 1221.73 572.468C1221.73 574.148 1221.48 575.576 1220.98 576.752C1220.47 577.909 1219.75 578.787 1218.82 579.384C1217.9 579.981 1216.8 580.28 1215.52 580.28C1214.64 580.28 1213.87 580.149 1213.22 579.888C1212.57 579.627 1212.02 579.281 1211.6 578.852C1211.17 578.423 1210.83 577.947 1210.59 577.424H1210.48C1210.51 577.891 1210.54 578.404 1210.56 578.964C1210.58 579.505 1210.59 580.009 1210.59 580.476V586.608H1208.99V565.104H1210.31L1210.5 567.904H1210.59C1210.83 567.363 1211.18 566.859 1211.62 566.392C1212.07 565.925 1212.62 565.552 1213.28 565.272C1213.95 564.973 1214.74 564.824 1215.66 564.824ZM1215.43 566.196C1214.33 566.196 1213.42 566.429 1212.72 566.896C1212.01 567.363 1211.47 568.053 1211.12 568.968C1210.76 569.864 1210.59 570.975 1210.59 572.3V572.58C1210.59 573.98 1210.76 575.156 1211.09 576.108C1211.45 577.041 1211.97 577.741 1212.66 578.208C1213.37 578.675 1214.26 578.908 1215.32 578.908C1216.36 578.908 1217.23 578.656 1217.92 578.152C1218.63 577.629 1219.16 576.892 1219.52 575.94C1219.89 574.969 1220.08 573.812 1220.08 572.468C1220.08 570.433 1219.7 568.884 1218.93 567.82C1218.17 566.737 1217 566.196 1215.43 566.196ZM1231.38 564.824C1232.67 564.824 1233.73 565.123 1234.57 565.72C1235.43 566.299 1236.08 567.101 1236.51 568.128C1236.95 569.155 1237.18 570.34 1237.18 571.684V572.748H1226.54C1226.54 574.745 1226.99 576.267 1227.91 577.312C1228.84 578.357 1230.16 578.88 1231.86 578.88C1232.79 578.88 1233.6 578.805 1234.29 578.656C1234.98 578.507 1235.74 578.245 1236.56 577.872V579.328C1235.81 579.664 1235.08 579.907 1234.35 580.056C1233.62 580.205 1232.77 580.28 1231.8 580.28C1230.33 580.28 1229.07 579.972 1228.02 579.356C1226.99 578.74 1226.21 577.863 1225.67 576.724C1225.15 575.567 1224.89 574.223 1224.89 572.692C1224.89 571.161 1225.14 569.808 1225.64 568.632C1226.15 567.456 1226.88 566.532 1227.85 565.86C1228.82 565.169 1230 564.824 1231.38 564.824ZM1231.38 566.168C1230 566.168 1228.89 566.625 1228.05 567.54C1227.21 568.436 1226.71 569.733 1226.57 571.432H1235.53C1235.53 570.387 1235.38 569.472 1235.08 568.688C1234.78 567.904 1234.32 567.288 1233.71 566.84C1233.11 566.392 1232.33 566.168 1231.38 566.168ZM1246.47 564.852C1248.15 564.852 1249.4 565.263 1250.22 566.084C1251.04 566.905 1251.45 568.212 1251.45 570.004V580H1250.25L1249.97 577.48H1249.88C1249.53 578.04 1249.12 578.535 1248.65 578.964C1248.2 579.375 1247.65 579.701 1247 579.944C1246.36 580.168 1245.58 580.28 1244.65 580.28C1243.71 580.28 1242.9 580.121 1242.21 579.804C1241.52 579.468 1240.99 578.992 1240.61 578.376C1240.24 577.76 1240.05 577.004 1240.05 576.108C1240.05 574.633 1240.66 573.513 1241.87 572.748C1243.09 571.964 1244.85 571.516 1247.17 571.404L1249.88 571.292V570.228C1249.88 568.753 1249.58 567.717 1248.99 567.12C1248.41 566.504 1247.54 566.196 1246.38 566.196C1245.62 566.196 1244.88 566.299 1244.17 566.504C1243.48 566.691 1242.78 566.961 1242.07 567.316L1241.57 566.056C1242.26 565.701 1243.02 565.412 1243.86 565.188C1244.7 564.964 1245.57 564.852 1246.47 564.852ZM1247.33 572.58C1245.45 572.673 1244.04 573.009 1243.11 573.588C1242.17 574.148 1241.71 574.997 1241.71 576.136C1241.71 577.051 1242 577.751 1242.57 578.236C1243.15 578.703 1243.94 578.936 1244.93 578.936C1246.51 578.936 1247.73 578.497 1248.57 577.62C1249.42 576.743 1249.86 575.511 1249.88 573.924V572.468L1247.33 572.58ZM1257.78 569.528C1257.78 570.125 1257.77 570.751 1257.75 571.404C1257.74 572.039 1257.72 572.673 1257.7 573.308H1257.75C1257.92 573.103 1258.1 572.888 1258.29 572.664C1258.47 572.421 1258.67 572.188 1258.87 571.964C1259.08 571.721 1259.28 571.497 1259.46 571.292L1265.12 565.104H1267.02L1261.11 571.488L1267.53 580H1265.62L1260.02 572.524L1257.78 574.848V580H1256.21V558.72H1257.78V569.528ZM1289.06 565.104V580H1287.74L1287.52 577.452H1287.43C1287.17 577.993 1286.8 578.479 1286.31 578.908C1285.84 579.337 1285.28 579.673 1284.63 579.916C1283.98 580.159 1283.22 580.28 1282.36 580.28C1281.21 580.28 1280.24 580.084 1279.45 579.692C1278.69 579.281 1278.11 578.675 1277.72 577.872C1277.32 577.069 1277.13 576.071 1277.13 574.876V565.104H1278.72V574.736C1278.72 576.155 1279.04 577.209 1279.68 577.9C1280.33 578.572 1281.28 578.908 1282.53 578.908C1283.63 578.908 1284.55 578.703 1285.28 578.292C1286 577.863 1286.54 577.228 1286.9 576.388C1287.27 575.548 1287.46 574.503 1287.46 573.252V565.104H1289.06ZM1300.64 564.824C1302.54 564.824 1304.03 565.468 1305.09 566.756C1306.17 568.044 1306.72 569.948 1306.72 572.468C1306.72 574.148 1306.46 575.576 1305.96 576.752C1305.46 577.909 1304.74 578.787 1303.8 579.384C1302.89 579.981 1301.79 580.28 1300.5 580.28C1299.62 580.28 1298.86 580.149 1298.2 579.888C1297.55 579.627 1297.01 579.281 1296.58 578.852C1296.15 578.423 1295.81 577.947 1295.57 577.424H1295.46C1295.5 577.891 1295.53 578.404 1295.54 578.964C1295.56 579.505 1295.57 580.009 1295.57 580.476V586.608H1293.98V565.104H1295.29L1295.49 567.904H1295.57C1295.81 567.363 1296.16 566.859 1296.61 566.392C1297.06 565.925 1297.61 565.552 1298.26 565.272C1298.93 564.973 1299.73 564.824 1300.64 564.824ZM1300.42 566.196C1299.31 566.196 1298.41 566.429 1297.7 566.896C1296.99 567.363 1296.46 568.053 1296.1 568.968C1295.75 569.864 1295.57 570.975 1295.57 572.3V572.58C1295.57 573.98 1295.74 575.156 1296.08 576.108C1296.43 577.041 1296.95 577.741 1297.64 578.208C1298.35 578.675 1299.24 578.908 1300.3 578.908C1301.35 578.908 1302.22 578.656 1302.91 578.152C1303.62 577.629 1304.15 576.892 1304.5 575.94C1304.88 574.969 1305.06 573.812 1305.06 572.468C1305.06 570.433 1304.68 568.884 1303.92 567.82C1303.15 566.737 1301.98 566.196 1300.42 566.196ZM1323.27 564.852C1324.95 564.852 1326.21 565.263 1327.03 566.084C1327.85 566.905 1328.26 568.212 1328.26 570.004V580H1327.05L1326.77 577.48H1326.69C1326.34 578.04 1325.93 578.535 1325.46 578.964C1325.01 579.375 1324.46 579.701 1323.81 579.944C1323.17 580.168 1322.39 580.28 1321.45 580.28C1320.52 580.28 1319.71 580.121 1319.02 579.804C1318.33 579.468 1317.8 578.992 1317.42 578.376C1317.05 577.76 1316.86 577.004 1316.86 576.108C1316.86 574.633 1317.47 573.513 1318.68 572.748C1319.9 571.964 1321.66 571.516 1323.97 571.404L1326.69 571.292V570.228C1326.69 568.753 1326.39 567.717 1325.79 567.12C1325.22 566.504 1324.35 566.196 1323.19 566.196C1322.43 566.196 1321.69 566.299 1320.98 566.504C1320.29 566.691 1319.59 566.961 1318.88 567.316L1318.37 566.056C1319.07 565.701 1319.83 565.412 1320.67 565.188C1321.51 564.964 1322.38 564.852 1323.27 564.852ZM1324.14 572.58C1322.26 572.673 1320.85 573.009 1319.91 573.588C1318.98 574.148 1318.51 574.997 1318.51 576.136C1318.51 577.051 1318.8 577.751 1319.38 578.236C1319.96 578.703 1320.75 578.936 1321.73 578.936C1323.32 578.936 1324.53 578.497 1325.37 577.62C1326.23 576.743 1326.67 575.511 1326.69 573.924V572.468L1324.14 572.58ZM1334.59 564.6C1334.59 565.141 1334.58 565.72 1334.56 566.336C1334.54 566.933 1334.52 567.428 1334.48 567.82H1334.59C1334.96 566.961 1335.57 566.252 1336.41 565.692C1337.27 565.113 1338.35 564.824 1339.66 564.824C1341.56 564.824 1343.05 565.477 1344.11 566.784C1345.19 568.072 1345.73 569.985 1345.73 572.524C1345.73 574.092 1345.49 575.455 1345.01 576.612C1344.54 577.769 1343.83 578.675 1342.88 579.328C1341.95 579.963 1340.8 580.28 1339.43 580.28C1338.18 580.28 1337.16 580.019 1336.35 579.496C1335.57 578.973 1334.99 578.339 1334.62 577.592H1334.48L1334.17 580H1332.99V558.72H1334.59V564.6ZM1339.43 566.196C1338.3 566.196 1337.36 566.439 1336.63 566.924C1335.93 567.409 1335.4 568.119 1335.07 569.052C1334.75 569.985 1334.59 571.143 1334.59 572.524V572.72C1334.59 574.736 1334.95 576.276 1335.65 577.34C1336.38 578.385 1337.58 578.908 1339.24 578.908C1340.84 578.908 1342.05 578.357 1342.85 577.256C1343.67 576.155 1344.08 574.577 1344.08 572.524C1344.08 570.415 1343.7 568.837 1342.93 567.792C1342.17 566.728 1341 566.196 1339.43 566.196ZM1362.24 572.552C1362.24 573.709 1362.09 574.764 1361.8 575.716C1361.52 576.649 1361.09 577.461 1360.51 578.152C1359.95 578.824 1359.25 579.347 1358.41 579.72C1357.57 580.093 1356.61 580.28 1355.52 580.28C1354.5 580.28 1353.57 580.103 1352.75 579.748C1351.95 579.375 1351.26 578.852 1350.68 578.18C1350.1 577.489 1349.66 576.668 1349.36 575.716C1349.07 574.764 1348.92 573.709 1348.92 572.552C1348.92 570.928 1349.18 569.547 1349.7 568.408C1350.24 567.251 1351.02 566.364 1352.02 565.748C1353.05 565.132 1354.26 564.824 1355.66 564.824C1357.08 564.824 1358.28 565.151 1359.25 565.804C1360.24 566.439 1360.98 567.335 1361.49 568.492C1361.99 569.649 1362.24 571.003 1362.24 572.552ZM1350.57 572.552C1350.57 573.821 1350.75 574.941 1351.1 575.912C1351.45 576.864 1352.01 577.601 1352.75 578.124C1353.5 578.647 1354.43 578.908 1355.55 578.908C1356.71 578.908 1357.66 578.647 1358.41 578.124C1359.15 577.583 1359.71 576.836 1360.06 575.884C1360.41 574.913 1360.59 573.803 1360.59 572.552C1360.59 571.301 1360.42 570.2 1360.09 569.248C1359.75 568.296 1359.22 567.549 1358.49 567.008C1357.76 566.467 1356.81 566.196 1355.64 566.196C1353.94 566.196 1352.67 566.756 1351.83 567.876C1350.99 568.996 1350.57 570.555 1350.57 572.552ZM1378.03 565.104V580H1376.72L1376.49 577.452H1376.41C1376.15 577.993 1375.77 578.479 1375.29 578.908C1374.82 579.337 1374.26 579.673 1373.61 579.916C1372.95 580.159 1372.2 580.28 1371.34 580.28C1370.18 580.28 1369.21 580.084 1368.43 579.692C1367.66 579.281 1367.08 578.675 1366.69 577.872C1366.3 577.069 1366.1 576.071 1366.1 574.876V565.104H1367.7V574.736C1367.7 576.155 1368.02 577.209 1368.65 577.9C1369.31 578.572 1370.26 578.908 1371.51 578.908C1372.61 578.908 1373.52 578.703 1374.25 578.292C1374.98 577.863 1375.52 577.228 1375.88 576.388C1376.25 575.548 1376.44 574.503 1376.44 573.252V565.104H1378.03ZM1387.15 578.936C1387.56 578.936 1387.95 578.908 1388.33 578.852C1388.7 578.777 1389.03 578.693 1389.31 578.6V579.888C1389.03 580 1388.67 580.093 1388.24 580.168C1387.83 580.243 1387.39 580.28 1386.93 580.28C1386.11 580.28 1385.41 580.131 1384.83 579.832C1384.25 579.515 1383.8 579.029 1383.48 578.376C1383.19 577.723 1383.04 576.883 1383.04 575.856V566.392H1380.85V565.496L1383.04 564.992L1383.62 561.548H1384.63V565.104H1389.22V566.392H1384.63V575.8C1384.63 576.827 1384.84 577.611 1385.25 578.152C1385.66 578.675 1386.29 578.936 1387.15 578.936ZM1401.31 565.104V580H1399.74V565.104H1401.31ZM1400.53 559.588C1400.88 559.588 1401.15 559.7 1401.34 559.924C1401.52 560.129 1401.62 560.419 1401.62 560.792C1401.62 561.184 1401.52 561.492 1401.34 561.716C1401.15 561.921 1400.88 562.024 1400.53 562.024C1400.19 562.024 1399.93 561.921 1399.74 561.716C1399.55 561.492 1399.46 561.184 1399.46 560.792C1399.46 560.419 1399.55 560.129 1399.74 559.924C1399.93 559.7 1400.19 559.588 1400.53 559.588ZM1410.45 578.936C1410.86 578.936 1411.25 578.908 1411.63 578.852C1412 578.777 1412.33 578.693 1412.61 578.6V579.888C1412.33 580 1411.97 580.093 1411.54 580.168C1411.13 580.243 1410.69 580.28 1410.23 580.28C1409.4 580.28 1408.7 580.131 1408.13 579.832C1407.55 579.515 1407.1 579.029 1406.78 578.376C1406.48 577.723 1406.33 576.883 1406.33 575.856V566.392H1404.15V565.496L1406.33 564.992L1406.92 561.548H1407.93V565.104H1412.52V566.392H1407.93V575.8C1407.93 576.827 1408.13 577.611 1408.55 578.152C1408.96 578.675 1409.59 578.936 1410.45 578.936ZM1415.51 578.936C1415.51 578.469 1415.62 578.124 1415.82 577.9C1416.03 577.676 1416.32 577.564 1416.69 577.564C1417.1 577.564 1417.41 577.676 1417.61 577.9C1417.84 578.124 1417.95 578.469 1417.95 578.936C1417.95 579.384 1417.84 579.729 1417.61 579.972C1417.41 580.196 1417.1 580.308 1416.69 580.308C1416.32 580.308 1416.03 580.196 1415.82 579.972C1415.62 579.729 1415.51 579.384 1415.51 578.936Z" fill="#F2F2F2"/>
<path d="M113.128 1042.92C113.128 1044.49 112.832 1045.8 112.24 1046.86C111.648 1047.9 110.8 1048.68 109.696 1049.21C108.592 1049.74 107.264 1050 105.712 1050H101.752V1036.2H106.096C108.336 1036.2 110.064 1036.78 111.28 1037.93C112.512 1039.08 113.128 1040.74 113.128 1042.92ZM110.536 1042.99C110.536 1041.41 110.152 1040.22 109.384 1039.44C108.632 1038.64 107.52 1038.24 106.048 1038.24H104.248V1047.96H105.784C107.384 1047.96 108.576 1047.55 109.36 1046.74C110.144 1045.9 110.536 1044.66 110.536 1042.99ZM115.979 1036.2H124.019V1038.19H118.475V1041.84H123.659V1043.83H118.475V1048.01H124.019V1050H115.979V1036.2ZM135.302 1046.14C135.302 1046.92 135.102 1047.62 134.702 1048.25C134.302 1048.86 133.718 1049.34 132.95 1049.69C132.182 1050.02 131.254 1050.19 130.166 1050.19C129.59 1050.19 129.054 1050.16 128.558 1050.1C128.078 1050.05 127.638 1049.98 127.238 1049.88C126.838 1049.77 126.446 1049.63 126.062 1049.47V1047.22C126.686 1047.5 127.358 1047.74 128.078 1047.91C128.798 1048.09 129.51 1048.18 130.214 1048.18C131.014 1048.18 131.646 1048.02 132.11 1047.7C132.574 1047.36 132.806 1046.9 132.806 1046.33C132.806 1045.91 132.686 1045.57 132.446 1045.3C132.222 1045.02 131.878 1044.78 131.414 1044.55C130.966 1044.33 130.414 1044.1 129.758 1043.86C129.054 1043.57 128.43 1043.26 127.886 1042.94C127.358 1042.61 126.942 1042.19 126.638 1041.7C126.35 1041.2 126.206 1040.58 126.206 1039.82C126.206 1038.99 126.414 1038.3 126.83 1037.74C127.246 1037.18 127.814 1036.75 128.534 1036.46C129.27 1036.16 130.11 1036.01 131.054 1036.01C131.822 1036.01 132.542 1036.1 133.214 1036.27C133.902 1036.43 134.542 1036.64 135.134 1036.9L134.342 1038.82C133.75 1038.56 133.174 1038.36 132.614 1038.22C132.054 1038.07 131.51 1038 130.982 1038C130.262 1038 129.694 1038.15 129.278 1038.46C128.878 1038.76 128.678 1039.18 128.678 1039.73C128.678 1040.13 128.79 1040.46 129.014 1040.74C129.238 1041.01 129.574 1041.25 130.022 1041.46C130.486 1041.66 131.046 1041.9 131.702 1042.15C132.422 1042.44 133.054 1042.75 133.598 1043.09C134.142 1043.42 134.558 1043.83 134.846 1044.31C135.15 1044.78 135.302 1045.38 135.302 1046.14ZM136.933 1050V1048.58L138.565 1048.1V1038.1L136.933 1037.64V1036.2H142.693V1037.64L141.061 1038.1V1048.1L142.693 1048.58V1050H136.933ZM156.412 1049.35C155.708 1049.61 154.932 1049.82 154.084 1049.98C153.252 1050.12 152.356 1050.19 151.396 1050.19C149.988 1050.19 148.772 1049.93 147.748 1049.4C146.74 1048.86 145.964 1048.06 145.42 1047C144.892 1045.94 144.628 1044.65 144.628 1043.11C144.628 1041.7 144.9 1040.47 145.444 1039.42C146.004 1038.36 146.828 1037.53 147.916 1036.92C149.004 1036.31 150.332 1036.01 151.9 1036.01C152.716 1036.01 153.492 1036.09 154.228 1036.25C154.964 1036.39 155.628 1036.6 156.22 1036.87L155.38 1038.84C154.852 1038.58 154.292 1038.39 153.7 1038.26C153.124 1038.14 152.524 1038.07 151.9 1038.07C150.876 1038.07 150.012 1038.29 149.308 1038.72C148.62 1039.14 148.1 1039.73 147.748 1040.5C147.396 1041.25 147.22 1042.12 147.22 1043.11C147.22 1044.74 147.596 1045.99 148.348 1046.86C149.1 1047.72 150.22 1048.15 151.708 1048.15C152.14 1048.15 152.556 1048.12 152.956 1048.06C153.372 1047.99 153.724 1047.91 154.012 1047.82V1044.46H150.796V1042.46H156.412V1049.35ZM171.5 1036.2V1050H168.404L161.78 1039.13H161.684C161.7 1039.32 161.716 1039.56 161.732 1039.85C161.748 1040.14 161.764 1040.44 161.78 1040.76C161.796 1041.08 161.804 1041.4 161.804 1041.72C161.82 1042.04 161.828 1042.34 161.828 1042.61V1050H159.596V1036.2H162.716L169.316 1047H169.388C169.372 1046.82 169.356 1046.61 169.34 1046.35C169.324 1046.1 169.308 1045.82 169.292 1045.51C169.292 1045.21 169.284 1044.9 169.268 1044.6C169.268 1044.28 169.268 1043.97 169.268 1043.66V1036.2H171.5ZM174.082 1050V1048.58L175.714 1048.1V1038.1L174.082 1037.64V1036.2H179.842V1037.64L178.21 1038.1V1048.1L179.842 1048.58V1050H174.082ZM194.304 1036.2V1050H191.208L184.584 1039.13H184.488C184.504 1039.32 184.52 1039.56 184.536 1039.85C184.552 1040.14 184.568 1040.44 184.584 1040.76C184.6 1041.08 184.608 1041.4 184.608 1041.72C184.624 1042.04 184.632 1042.34 184.632 1042.61V1050H182.4V1036.2H185.52L192.12 1047H192.192C192.176 1046.82 192.16 1046.61 192.144 1046.35C192.128 1046.1 192.112 1045.82 192.096 1045.51C192.096 1045.21 192.088 1044.9 192.072 1044.6C192.072 1044.28 192.072 1043.97 192.072 1043.66V1036.2H194.304ZM208.982 1049.35C208.278 1049.61 207.502 1049.82 206.654 1049.98C205.822 1050.12 204.926 1050.19 203.966 1050.19C202.558 1050.19 201.342 1049.93 200.318 1049.4C199.31 1048.86 198.534 1048.06 197.99 1047C197.462 1045.94 197.198 1044.65 197.198 1043.11C197.198 1041.7 197.47 1040.47 198.014 1039.42C198.574 1038.36 199.398 1037.53 200.486 1036.92C201.574 1036.31 202.902 1036.01 204.47 1036.01C205.286 1036.01 206.062 1036.09 206.798 1036.25C207.534 1036.39 208.198 1036.6 208.79 1036.87L207.95 1038.84C207.422 1038.58 206.862 1038.39 206.27 1038.26C205.694 1038.14 205.094 1038.07 204.47 1038.07C203.446 1038.07 202.582 1038.29 201.878 1038.72C201.19 1039.14 200.67 1039.73 200.318 1040.5C199.966 1041.25 199.79 1042.12 199.79 1043.11C199.79 1044.74 200.166 1045.99 200.918 1046.86C201.67 1047.72 202.79 1048.15 204.278 1048.15C204.71 1048.15 205.126 1048.12 205.526 1048.06C205.942 1047.99 206.294 1047.91 206.582 1047.82V1044.46H203.366V1042.46H208.982V1049.35ZM222.384 1036.2C224.224 1036.2 225.592 1036.54 226.488 1037.21C227.4 1037.88 227.856 1038.87 227.856 1040.18C227.856 1041.08 227.632 1041.84 227.184 1042.46C226.736 1043.09 226.064 1043.57 225.168 1043.9L229.104 1050H226.296L223.008 1044.53H220.896V1050H218.4V1036.2H222.384ZM222.48 1042.58C223.392 1042.58 224.088 1042.41 224.568 1042.06C225.064 1041.69 225.312 1041.11 225.312 1040.33C225.312 1039.54 225.064 1038.99 224.568 1038.67C224.072 1038.34 223.328 1038.17 222.336 1038.17H220.896V1042.58H222.48ZM231.01 1036.2H239.05V1038.19H233.506V1041.84H238.69V1043.83H233.506V1048.01H239.05V1050H231.01V1036.2ZM250.333 1046.14C250.333 1046.92 250.133 1047.62 249.733 1048.25C249.333 1048.86 248.749 1049.34 247.981 1049.69C247.213 1050.02 246.285 1050.19 245.197 1050.19C244.621 1050.19 244.085 1050.16 243.589 1050.1C243.109 1050.05 242.669 1049.98 242.269 1049.88C241.869 1049.77 241.477 1049.63 241.093 1049.47V1047.22C241.717 1047.5 242.389 1047.74 243.109 1047.91C243.829 1048.09 244.541 1048.18 245.245 1048.18C246.045 1048.18 246.677 1048.02 247.141 1047.7C247.605 1047.36 247.837 1046.9 247.837 1046.33C247.837 1045.91 247.717 1045.57 247.477 1045.3C247.253 1045.02 246.909 1044.78 246.445 1044.55C245.997 1044.33 245.445 1044.1 244.789 1043.86C244.085 1043.57 243.461 1043.26 242.917 1042.94C242.389 1042.61 241.973 1042.19 241.669 1041.7C241.381 1041.2 241.237 1040.58 241.237 1039.82C241.237 1038.99 241.445 1038.3 241.861 1037.74C242.277 1037.18 242.845 1036.75 243.565 1036.46C244.301 1036.16 245.141 1036.01 246.085 1036.01C246.853 1036.01 247.573 1036.1 248.245 1036.27C248.933 1036.43 249.573 1036.64 250.165 1036.9L249.373 1038.82C248.781 1038.56 248.205 1038.36 247.645 1038.22C247.085 1038.07 246.541 1038 246.013 1038C245.293 1038 244.725 1038.15 244.309 1038.46C243.909 1038.76 243.709 1039.18 243.709 1039.73C243.709 1040.13 243.821 1040.46 244.045 1040.74C244.269 1041.01 244.605 1041.25 245.053 1041.46C245.517 1041.66 246.077 1041.9 246.733 1042.15C247.453 1042.44 248.085 1042.75 248.629 1043.09C249.173 1043.42 249.589 1043.83 249.877 1044.31C250.181 1044.78 250.333 1045.38 250.333 1046.14ZM257.1 1036.2C258.86 1036.2 260.164 1036.56 261.012 1037.28C261.876 1038 262.308 1039.04 262.308 1040.4C262.308 1041.06 262.196 1041.66 261.972 1042.22C261.764 1042.77 261.436 1043.25 260.988 1043.66C260.556 1044.06 260.004 1044.38 259.332 1044.6C258.66 1044.81 257.86 1044.91 256.932 1044.91H255.396V1050H252.9V1036.2H257.1ZM256.692 1042.9C257.636 1042.9 258.38 1042.72 258.924 1042.37C259.484 1042.02 259.764 1041.39 259.764 1040.5C259.764 1039.73 259.54 1039.15 259.092 1038.77C258.644 1038.38 257.956 1038.19 257.028 1038.19H255.396V1042.9H256.692ZM277.523 1043.09C277.523 1044.5 277.283 1045.74 276.803 1046.81C276.339 1047.88 275.619 1048.71 274.643 1049.3C273.683 1049.9 272.451 1050.19 270.947 1050.19C269.475 1050.19 268.243 1049.9 267.251 1049.3C266.275 1048.71 265.547 1047.88 265.067 1046.81C264.603 1045.72 264.371 1044.47 264.371 1043.06C264.371 1041.66 264.611 1040.42 265.091 1039.37C265.571 1038.3 266.299 1037.46 267.275 1036.87C268.251 1036.28 269.483 1035.98 270.971 1035.98C272.459 1035.98 273.683 1036.28 274.643 1036.87C275.619 1037.46 276.339 1038.3 276.803 1039.37C277.283 1040.42 277.523 1041.66 277.523 1043.09ZM266.987 1043.09C266.987 1044.1 267.123 1044.98 267.395 1045.73C267.667 1046.48 268.091 1047.06 268.667 1047.48C269.259 1047.9 270.019 1048.1 270.947 1048.1C271.875 1048.1 272.627 1047.9 273.203 1047.5C273.779 1047.09 274.203 1046.5 274.475 1045.75C274.747 1045 274.883 1044.11 274.883 1043.09C274.883 1041.5 274.563 1040.27 273.923 1039.39C273.283 1038.51 272.291 1038.07 270.947 1038.07C270.035 1038.07 269.283 1038.28 268.691 1038.7C268.115 1039.1 267.683 1039.67 267.395 1040.42C267.123 1041.16 266.987 1042.05 266.987 1043.09ZM292.297 1036.2V1050H289.201L282.577 1039.13H282.481C282.497 1039.32 282.513 1039.56 282.529 1039.85C282.545 1040.14 282.561 1040.44 282.577 1040.76C282.593 1041.08 282.601 1041.4 282.601 1041.72C282.617 1042.04 282.625 1042.34 282.625 1042.61V1050H280.393V1036.2H283.513L290.113 1047H290.185C290.169 1046.82 290.153 1046.61 290.137 1046.35C290.121 1046.1 290.105 1045.82 290.089 1045.51C290.089 1045.21 290.081 1044.9 290.065 1044.6C290.065 1044.28 290.065 1043.97 290.065 1043.66V1036.2H292.297ZM304.263 1046.14C304.263 1046.92 304.063 1047.62 303.663 1048.25C303.263 1048.86 302.679 1049.34 301.911 1049.69C301.143 1050.02 300.215 1050.19 299.127 1050.19C298.551 1050.19 298.015 1050.16 297.519 1050.1C297.039 1050.05 296.599 1049.98 296.199 1049.88C295.799 1049.77 295.407 1049.63 295.023 1049.47V1047.22C295.647 1047.5 296.319 1047.74 297.039 1047.91C297.759 1048.09 298.471 1048.18 299.175 1048.18C299.975 1048.18 300.607 1048.02 301.071 1047.7C301.535 1047.36 301.767 1046.9 301.767 1046.33C301.767 1045.91 301.647 1045.57 301.407 1045.3C301.183 1045.02 300.839 1044.78 300.375 1044.55C299.927 1044.33 299.375 1044.1 298.719 1043.86C298.015 1043.57 297.391 1043.26 296.847 1042.94C296.319 1042.61 295.903 1042.19 295.599 1041.7C295.311 1041.2 295.167 1040.58 295.167 1039.82C295.167 1038.99 295.375 1038.3 295.791 1037.74C296.207 1037.18 296.775 1036.75 297.495 1036.46C298.231 1036.16 299.071 1036.01 300.015 1036.01C300.783 1036.01 301.503 1036.1 302.175 1036.27C302.863 1036.43 303.503 1036.64 304.095 1036.9L303.303 1038.82C302.711 1038.56 302.135 1038.36 301.575 1038.22C301.015 1038.07 300.471 1038 299.943 1038C299.223 1038 298.655 1038.15 298.239 1038.46C297.839 1038.76 297.639 1039.18 297.639 1039.73C297.639 1040.13 297.751 1040.46 297.975 1040.74C298.199 1041.01 298.535 1041.25 298.983 1041.46C299.447 1041.66 300.007 1041.9 300.663 1042.15C301.383 1042.44 302.015 1042.75 302.559 1043.09C303.103 1043.42 303.519 1043.83 303.807 1044.31C304.111 1044.78 304.263 1045.38 304.263 1046.14ZM305.894 1050V1048.58L307.526 1048.1V1038.1L305.894 1037.64V1036.2H311.654V1037.64L310.022 1038.1V1048.1L311.654 1048.58V1050H305.894ZM318.581 1036.2C319.845 1036.2 320.869 1036.33 321.653 1036.58C322.453 1036.84 323.045 1037.22 323.429 1037.74C323.813 1038.25 324.005 1038.9 324.005 1039.68C324.005 1040.24 323.901 1040.73 323.693 1041.14C323.485 1041.56 323.189 1041.9 322.805 1042.18C322.437 1042.43 322.005 1042.61 321.509 1042.7V1042.78C322.053 1042.87 322.533 1043.04 322.949 1043.28C323.365 1043.52 323.693 1043.86 323.933 1044.31C324.173 1044.74 324.293 1045.31 324.293 1046.02C324.293 1047.31 323.829 1048.3 322.901 1048.99C321.973 1049.66 320.733 1050 319.181 1050H314.213V1036.2H318.581ZM318.797 1041.94C319.757 1041.94 320.437 1041.78 320.837 1041.46C321.237 1041.12 321.437 1040.63 321.437 1039.99C321.437 1039.35 321.205 1038.89 320.741 1038.6C320.277 1038.3 319.565 1038.14 318.605 1038.14H316.709V1041.94H318.797ZM318.989 1048.06C319.949 1048.06 320.645 1047.86 321.077 1047.48C321.525 1047.08 321.749 1046.53 321.749 1045.82C321.749 1045.2 321.517 1044.7 321.053 1044.34C320.605 1043.95 319.869 1043.76 318.845 1043.76H316.709V1048.06H318.989ZM329.6 1036.2V1047.96H335.576V1050H327.104V1036.2H329.6ZM337.932 1036.2H345.972V1038.19H340.428V1041.84H345.612V1043.83H340.428V1048.01H345.972V1050H337.932V1036.2ZM353.289 1050L358.401 1036.15H361.353L366.417 1050H363.705L362.481 1046.35H357.297L356.001 1050H353.289ZM360.633 1040.76C360.553 1040.54 360.465 1040.28 360.369 1039.99C360.273 1039.7 360.177 1039.41 360.081 1039.1C360.001 1038.8 359.929 1038.51 359.865 1038.24C359.801 1038.51 359.729 1038.8 359.649 1039.1C359.569 1039.39 359.481 1039.69 359.385 1039.99C359.305 1040.28 359.217 1040.54 359.121 1040.78L357.921 1044.31H361.809L360.633 1040.76ZM367.23 1050V1048.58L368.862 1048.1V1038.1L367.23 1037.64V1036.2H372.99V1037.64L371.358 1038.1V1048.1L372.99 1048.58V1050H367.23Z" fill="#F2F2F2"/>
<path d="M1634.27 1046.83C1632.67 1046.83 1631.47 1046.34 1630.67 1045.37C1629.89 1044.38 1629.5 1043.06 1629.5 1041.43C1629.5 1040.38 1629.68 1039.45 1630.05 1038.65C1630.43 1037.83 1630.99 1037.19 1631.71 1036.73C1632.43 1036.26 1633.31 1036.03 1634.37 1036.03C1634.87 1036.03 1635.37 1036.1 1635.88 1036.22C1636.39 1036.35 1636.87 1036.53 1637.32 1036.75L1636.63 1038.26C1636.23 1038.06 1635.83 1037.9 1635.45 1037.81C1635.08 1037.7 1634.73 1037.64 1634.39 1037.64C1633.45 1037.64 1632.71 1037.98 1632.19 1038.65C1631.67 1039.32 1631.42 1040.25 1631.42 1041.43C1631.42 1042.25 1631.51 1042.94 1631.71 1043.52C1631.91 1044.08 1632.23 1044.51 1632.67 1044.82C1633.1 1045.1 1633.67 1045.25 1634.37 1045.25C1634.74 1045.25 1635.15 1045.2 1635.59 1045.1C1636.06 1044.99 1636.49 1044.86 1636.89 1044.7V1046.26C1636.51 1046.42 1636.11 1046.55 1635.71 1046.66C1635.31 1046.78 1634.83 1046.83 1634.27 1046.83ZM1633.91 1050.24C1632.63 1050.24 1631.46 1050.02 1630.39 1049.59C1629.31 1049.16 1628.38 1048.55 1627.58 1047.77C1626.79 1046.97 1626.19 1046.03 1625.75 1044.96C1625.32 1043.89 1625.11 1042.71 1625.11 1041.43C1625.11 1040.17 1625.32 1039 1625.75 1037.93C1626.19 1036.86 1626.8 1035.93 1627.6 1035.14C1628.4 1034.34 1629.34 1033.73 1630.41 1033.3C1631.48 1032.85 1632.65 1032.62 1633.91 1032.62C1635.13 1032.62 1636.27 1032.84 1637.32 1033.27C1638.39 1033.7 1639.33 1034.32 1640.13 1035.12C1640.95 1035.9 1641.58 1036.83 1642.03 1037.9C1642.49 1038.98 1642.72 1040.15 1642.72 1041.43C1642.72 1042.71 1642.51 1043.89 1642.07 1044.96C1641.64 1046.03 1641.03 1046.97 1640.23 1047.77C1639.44 1048.55 1638.51 1049.16 1637.44 1049.59C1636.37 1050.02 1635.19 1050.24 1633.91 1050.24ZM1633.91 1048.9C1634.92 1048.9 1635.87 1048.71 1636.75 1048.34C1637.64 1047.98 1638.43 1047.46 1639.1 1046.78C1639.79 1046.11 1640.31 1045.33 1640.68 1044.43C1641.07 1043.52 1641.26 1042.52 1641.26 1041.43C1641.26 1040.41 1641.07 1039.45 1640.71 1038.55C1640.34 1037.64 1639.83 1036.84 1639.17 1036.15C1638.51 1035.46 1637.74 1034.93 1636.84 1034.54C1635.96 1034.16 1634.99 1033.97 1633.91 1033.97C1632.84 1033.97 1631.86 1034.15 1630.96 1034.52C1630.07 1034.89 1629.28 1035.41 1628.61 1036.08C1627.95 1036.74 1627.44 1037.52 1627.07 1038.43C1626.72 1039.34 1626.55 1040.34 1626.55 1041.43C1626.55 1042.47 1626.72 1043.45 1627.07 1044.36C1627.44 1045.26 1627.95 1046.05 1628.61 1046.74C1629.27 1047.41 1630.04 1047.94 1630.94 1048.32C1631.85 1048.7 1632.84 1048.9 1633.91 1048.9ZM1655.87 1036.2C1657.71 1036.2 1659.08 1036.54 1659.97 1037.21C1660.88 1037.88 1661.34 1038.87 1661.34 1040.18C1661.34 1041.08 1661.12 1041.84 1660.67 1042.46C1660.22 1043.09 1659.55 1043.57 1658.65 1043.9L1662.59 1050H1659.78L1656.49 1044.53H1654.38V1050H1651.88V1036.2H1655.87ZM1655.96 1042.58C1656.88 1042.58 1657.57 1042.41 1658.05 1042.06C1658.55 1041.69 1658.8 1041.11 1658.8 1040.33C1658.8 1039.54 1658.55 1038.99 1658.05 1038.67C1657.56 1038.34 1656.81 1038.17 1655.82 1038.17H1654.38V1042.58H1655.96ZM1662.74 1050L1667.85 1036.15H1670.81L1675.87 1050H1673.16L1671.93 1046.35H1666.75L1665.45 1050H1662.74ZM1670.09 1040.76C1670.01 1040.54 1669.92 1040.28 1669.82 1039.99C1669.73 1039.7 1669.63 1039.41 1669.53 1039.1C1669.45 1038.8 1669.38 1038.51 1669.32 1038.24C1669.25 1038.51 1669.18 1038.8 1669.1 1039.1C1669.02 1039.39 1668.93 1039.69 1668.84 1039.99C1668.76 1040.28 1668.67 1040.54 1668.57 1040.78L1667.37 1044.31H1671.26L1670.09 1040.76ZM1683.5 1038.07C1682.61 1038.07 1681.85 1038.28 1681.22 1038.7C1680.62 1039.1 1680.15 1039.67 1679.83 1040.42C1679.51 1041.18 1679.35 1042.07 1679.35 1043.11C1679.35 1044.7 1679.69 1045.93 1680.36 1046.81C1681.05 1047.69 1682.1 1048.13 1683.5 1048.13C1684.11 1048.13 1684.7 1048.06 1685.26 1047.94C1685.82 1047.81 1686.38 1047.63 1686.94 1047.41V1049.57C1686.39 1049.78 1685.81 1049.93 1685.18 1050.02C1684.58 1050.14 1683.91 1050.19 1683.19 1050.19C1681.74 1050.19 1680.53 1049.9 1679.57 1049.3C1678.62 1048.71 1677.91 1047.88 1677.43 1046.81C1676.97 1045.74 1676.74 1044.5 1676.74 1043.09C1676.74 1041.7 1677 1040.47 1677.53 1039.42C1678.07 1038.34 1678.85 1037.51 1679.86 1036.92C1680.86 1036.31 1682.07 1036.01 1683.48 1036.01C1684.17 1036.01 1684.86 1036.09 1685.54 1036.25C1686.23 1036.39 1686.88 1036.61 1687.49 1036.9L1686.7 1038.89C1686.18 1038.65 1685.66 1038.46 1685.14 1038.31C1684.61 1038.15 1684.06 1038.07 1683.5 1038.07ZM1701.08 1036.2V1050H1698.61V1043.86H1692.42V1050H1689.92V1036.2H1692.42V1041.79H1698.61V1036.2H1701.08ZM1704.62 1036.2H1712.66V1038.19H1707.12V1041.84H1712.3V1043.83H1707.12V1048.01H1712.66V1050H1704.62V1036.2ZM1717.99 1036.2V1047.96H1723.97V1050H1715.49V1036.2H1717.99ZM1730.8 1050L1735.92 1036.15H1738.87L1743.93 1050H1741.22L1740 1046.35H1734.81L1733.52 1050H1730.8ZM1738.15 1040.76C1738.07 1040.54 1737.98 1040.28 1737.88 1039.99C1737.79 1039.7 1737.69 1039.41 1737.6 1039.1C1737.52 1038.8 1737.44 1038.51 1737.38 1038.24C1737.32 1038.51 1737.24 1038.8 1737.16 1039.1C1737.08 1039.39 1737 1039.69 1736.9 1039.99C1736.82 1040.28 1736.73 1040.54 1736.64 1040.78L1735.44 1044.31H1739.32L1738.15 1040.76ZM1754.07 1036.2V1038.29H1750.09V1050H1747.62V1038.29H1743.63V1036.2H1754.07ZM1770.75 1036.2V1050H1768.42V1042.03C1768.42 1041.68 1768.42 1041.29 1768.42 1040.86C1768.44 1040.41 1768.45 1039.99 1768.47 1039.61C1768.49 1039.22 1768.5 1038.94 1768.52 1038.77H1768.45L1764.49 1050H1762.25L1758.32 1038.74H1758.25C1758.25 1038.92 1758.25 1039.21 1758.27 1039.61C1758.3 1039.99 1758.33 1040.41 1758.34 1040.86C1758.36 1041.3 1758.37 1041.73 1758.37 1042.13V1050H1756.13V1036.2H1759.54L1763.41 1047.1H1763.45L1767.34 1036.2H1770.75ZM1772.52 1050L1777.64 1036.15H1780.59L1785.65 1050H1782.94L1781.72 1046.35H1776.53L1775.24 1050H1772.52ZM1779.87 1040.76C1779.79 1040.54 1779.7 1040.28 1779.6 1039.99C1779.51 1039.7 1779.41 1039.41 1779.32 1039.1C1779.24 1038.8 1779.16 1038.51 1779.1 1038.24C1779.04 1038.51 1778.96 1038.8 1778.88 1039.1C1778.8 1039.39 1778.72 1039.69 1778.62 1039.99C1778.54 1040.28 1778.45 1040.54 1778.36 1040.78L1777.16 1044.31H1781.04L1779.87 1040.76ZM1798.78 1042.92C1798.78 1044.49 1798.48 1045.8 1797.89 1046.86C1797.3 1047.9 1796.45 1048.68 1795.34 1049.21C1794.24 1049.74 1792.91 1050 1791.36 1050H1787.4V1036.2H1791.74C1793.98 1036.2 1795.71 1036.78 1796.93 1037.93C1798.16 1039.08 1798.78 1040.74 1798.78 1042.92ZM1796.18 1042.99C1796.18 1041.41 1795.8 1040.22 1795.03 1039.44C1794.28 1038.64 1793.17 1038.24 1791.7 1038.24H1789.9V1047.96H1791.43C1793.03 1047.96 1794.22 1047.55 1795.01 1046.74C1795.79 1045.9 1796.18 1044.66 1796.18 1042.99ZM1799.95 1053.91C1799.59 1053.91 1799.28 1053.89 1799.01 1053.84C1798.72 1053.81 1798.47 1053.76 1798.24 1053.7V1051.75C1798.48 1051.8 1798.72 1051.84 1798.96 1051.87C1799.19 1051.92 1799.42 1051.94 1799.66 1051.94C1800.36 1051.94 1800.88 1051.74 1801.2 1051.34C1801.52 1050.96 1801.68 1050.34 1801.68 1049.47V1036.2H1804.15V1049.28C1804.15 1050.37 1803.98 1051.26 1803.64 1051.94C1803.31 1052.63 1802.83 1053.13 1802.2 1053.43C1801.58 1053.75 1800.83 1053.91 1799.95 1053.91ZM1805.88 1050L1810.99 1036.15H1813.94L1819 1050H1816.29L1815.07 1046.35H1809.88L1808.59 1050H1805.88ZM1813.22 1040.76C1813.14 1040.54 1813.05 1040.28 1812.96 1039.99C1812.86 1039.7 1812.76 1039.41 1812.67 1039.1C1812.59 1038.8 1812.52 1038.51 1812.45 1038.24C1812.39 1038.51 1812.32 1038.8 1812.24 1039.1C1812.16 1039.39 1812.07 1039.69 1811.97 1039.99C1811.89 1040.28 1811.8 1040.54 1811.71 1040.78L1810.51 1044.31H1814.4L1813.22 1040.76Z" fill="#F2F2F2"/>
</svg>
