<svg width="1920" height="1080" viewBox="0 0 1920 1080" fill="none" xmlns="http://www.w3.org/2000/svg">
<rect width="1920" height="1080" fill="#463237"/>
<path d="M252.08 500H229.508V496.112L237.716 494.924V428.072L229.508 426.776V422.888H252.08V426.776L243.872 428.072V494.924L252.08 496.112V500ZM283.243 495.896C284.827 495.896 286.339 495.788 287.779 495.572C289.219 495.284 290.479 494.96 291.559 494.6V499.568C290.479 500 289.111 500.36 287.455 500.648C285.871 500.936 284.179 501.08 282.379 501.08C279.211 501.08 276.511 500.504 274.279 499.352C272.047 498.128 270.319 496.256 269.095 493.736C267.943 491.216 267.367 487.976 267.367 484.016V447.512H258.943V444.056L267.367 442.112L269.635 428.828H273.523V442.544H291.235V447.512H273.523V483.8C273.523 487.76 274.315 490.784 275.899 492.872C277.483 494.888 279.931 495.896 283.243 495.896ZM354.049 500H347.785V428.504H322.945V422.888H378.889V428.504H354.049V500ZM400.726 441.572C407.206 441.572 412.03 443.156 415.198 446.324C418.366 449.492 419.95 454.532 419.95 461.444V500H415.306L414.226 490.28H413.902C412.534 492.44 410.95 494.348 409.15 496.004C407.422 497.588 405.298 498.848 402.778 499.784C400.33 500.648 397.306 501.08 393.706 501.08C390.106 501.08 386.974 500.468 384.31 499.244C381.646 497.948 379.594 496.112 378.154 493.736C376.714 491.36 375.994 488.444 375.994 484.988C375.994 479.3 378.334 474.98 383.014 472.028C387.694 469.004 394.498 467.276 403.426 466.844L413.902 466.412V462.308C413.902 456.62 412.75 452.624 410.446 450.32C408.214 447.944 404.866 446.756 400.402 446.756C397.45 446.756 394.606 447.152 391.87 447.944C389.206 448.664 386.506 449.708 383.77 451.076L381.826 446.216C384.49 444.848 387.442 443.732 390.682 442.868C393.922 442.004 397.27 441.572 400.726 441.572ZM404.074 471.38C396.802 471.74 391.366 473.036 387.766 475.268C384.166 477.428 382.366 480.704 382.366 485.096C382.366 488.624 383.482 491.324 385.714 493.196C387.946 494.996 390.97 495.896 394.786 495.896C400.906 495.896 405.586 494.204 408.826 490.82C412.138 487.436 413.83 482.684 413.902 476.564V470.948L404.074 471.38ZM444.372 459.608C444.372 461.912 444.336 464.324 444.264 466.844C444.192 469.292 444.12 471.74 444.048 474.188H444.264C444.912 473.396 445.596 472.568 446.316 471.704C447.036 470.768 447.792 469.868 448.584 469.004C449.376 468.068 450.132 467.204 450.852 466.412L472.668 442.544H480.012L457.224 467.168L481.956 500H474.612L453.012 471.164L444.372 480.128V500H438.324V417.92H444.372V459.608ZM513.4 441.464C518.368 441.464 522.472 442.616 525.712 444.92C529.024 447.152 531.508 450.248 533.164 454.208C534.892 458.168 535.756 462.74 535.756 467.924V472.028H494.716C494.716 479.732 496.48 485.6 500.008 489.632C503.608 493.664 508.684 495.68 515.236 495.68C518.836 495.68 521.968 495.392 524.632 494.816C527.296 494.24 530.212 493.232 533.38 491.792V497.408C530.5 498.704 527.656 499.64 524.848 500.216C522.04 500.792 518.764 501.08 515.02 501.08C509.332 501.08 504.472 499.892 500.44 497.516C496.48 495.14 493.456 491.756 491.368 487.364C489.352 482.9 488.344 477.716 488.344 471.812C488.344 465.908 489.316 460.688 491.26 456.152C493.204 451.616 496.048 448.052 499.792 445.46C503.536 442.796 508.072 441.464 513.4 441.464ZM513.4 446.648C508.072 446.648 503.788 448.412 500.548 451.94C497.308 455.396 495.4 460.4 494.824 466.952H529.384C529.384 462.92 528.808 459.392 527.656 456.368C526.504 453.344 524.74 450.968 522.364 449.24C520.06 447.512 517.072 446.648 513.4 446.648ZM587.353 484.772C587.353 488.228 586.489 491.18 584.761 493.628C583.033 496.076 580.513 497.948 577.201 499.244C573.889 500.468 569.857 501.08 565.105 501.08C561.145 501.08 557.617 500.72 554.521 500C551.425 499.28 548.797 498.416 546.637 497.408V491.468C549.229 492.764 552.145 493.844 555.385 494.708C558.625 495.5 561.901 495.896 565.213 495.896C570.973 495.896 575.113 494.96 577.633 493.088C580.153 491.144 581.413 488.516 581.413 485.204C581.413 483.044 580.801 481.28 579.577 479.912C578.425 478.472 576.661 477.212 574.285 476.132C571.981 474.98 569.101 473.828 565.645 472.676C562.117 471.452 558.985 470.228 556.249 469.004C553.513 467.708 551.389 466.088 549.877 464.144C548.365 462.2 547.609 459.536 547.609 456.152C547.609 451.544 549.481 447.944 553.225 445.352C556.969 442.76 561.973 441.464 568.237 441.464C571.693 441.464 574.897 441.788 577.849 442.436C580.873 443.084 583.609 443.948 586.057 445.028L583.897 450.104C582.457 449.456 580.837 448.88 579.037 448.376C577.237 447.8 575.401 447.368 573.529 447.08C571.657 446.792 569.785 446.648 567.913 446.648C563.377 446.648 559.849 447.44 557.329 449.024C554.809 450.608 553.549 452.912 553.549 455.936C553.549 458.24 554.125 460.076 555.277 461.444C556.501 462.74 558.265 463.856 560.569 464.792C562.945 465.728 565.789 466.808 569.101 468.032C572.485 469.184 575.545 470.408 578.281 471.704C581.089 473 583.285 474.656 584.869 476.672C586.525 478.688 587.353 481.388 587.353 484.772ZM663.984 427.424C659.232 427.424 654.948 428.252 651.132 429.908C647.388 431.492 644.22 433.796 641.628 436.82C639.036 439.772 637.056 443.336 635.688 447.512C634.32 451.616 633.636 456.188 633.636 461.228C633.636 468.14 634.716 474.188 636.876 479.372C639.036 484.484 642.276 488.444 646.596 491.252C650.988 494.06 656.424 495.464 662.904 495.464C666.648 495.464 670.104 495.176 673.272 494.6C676.44 494.024 679.356 493.304 682.02 492.44V497.84C679.428 498.848 676.512 499.64 673.272 500.216C670.104 500.792 666.396 501.08 662.148 501.08C654.444 501.08 647.964 499.424 642.708 496.112C637.524 492.8 633.6 488.156 630.936 482.18C628.344 476.204 627.048 469.22 627.048 461.228C627.048 455.54 627.876 450.284 629.532 445.46C631.188 440.636 633.6 436.46 636.768 432.932C639.936 429.404 643.788 426.668 648.324 424.724C652.932 422.78 658.188 421.808 664.092 421.808C667.764 421.808 671.292 422.168 674.676 422.888C678.132 423.608 681.336 424.652 684.288 426.02L681.804 431.528C679.068 430.16 676.188 429.152 673.164 428.504C670.212 427.784 667.152 427.424 663.984 427.424ZM745.205 471.272C745.205 475.736 744.629 479.804 743.477 483.476C742.397 487.076 740.741 490.208 738.509 492.872C736.349 495.464 733.649 497.48 730.409 498.92C727.169 500.36 723.461 501.08 719.285 501.08C715.325 501.08 711.761 500.396 708.593 499.028C705.497 497.588 702.833 495.572 700.601 492.98C698.369 490.316 696.677 487.148 695.525 483.476C694.373 479.804 693.797 475.736 693.797 471.272C693.797 465.008 694.805 459.68 696.821 455.288C698.909 450.824 701.897 447.404 705.785 445.028C709.745 442.652 714.425 441.464 719.825 441.464C725.297 441.464 729.905 442.724 733.649 445.244C737.465 447.692 740.345 451.148 742.289 455.612C744.233 460.076 745.205 465.296 745.205 471.272ZM700.169 471.272C700.169 476.168 700.853 480.488 702.221 484.232C703.589 487.904 705.713 490.748 708.593 492.764C711.473 494.78 715.073 495.788 719.393 495.788C723.857 495.788 727.529 494.78 730.409 492.764C733.289 490.676 735.413 487.796 736.781 484.124C738.149 480.38 738.833 476.096 738.833 471.272C738.833 466.448 738.185 462.2 736.889 458.528C735.593 454.856 733.541 451.976 730.733 449.888C727.925 447.8 724.253 446.756 719.717 446.756C713.165 446.756 708.269 448.916 705.029 453.236C701.789 457.556 700.169 463.568 700.169 471.272ZM806.1 442.544V500H801.024L800.16 490.172H799.836C798.828 492.26 797.388 494.132 795.516 495.788C793.716 497.444 791.556 498.74 789.036 499.676C786.516 500.612 783.6 501.08 780.288 501.08C775.824 501.08 772.08 500.324 769.056 498.812C766.104 497.228 763.872 494.888 762.36 491.792C760.848 488.696 760.092 484.844 760.092 480.236V442.544H766.248V479.696C766.248 485.168 767.472 489.236 769.92 491.9C772.44 494.492 776.112 495.788 780.936 495.788C785.184 495.788 788.712 494.996 791.52 493.412C794.328 491.756 796.416 489.308 797.784 486.068C799.224 482.828 799.944 478.796 799.944 473.972V442.544H806.1ZM848.622 441.572C850.062 441.572 851.43 441.68 852.726 441.896C854.094 442.04 855.318 442.256 856.398 442.544L855.534 448.16C854.382 447.872 853.23 447.656 852.078 447.512C850.926 447.296 849.666 447.188 848.298 447.188C845.706 447.188 843.366 447.692 841.278 448.7C839.19 449.708 837.39 451.148 835.878 453.02C834.366 454.892 833.214 457.124 832.422 459.716C831.63 462.308 831.234 465.224 831.234 468.464V500H825.078V442.544H830.262L830.91 453.344H831.234C832.17 451.112 833.43 449.132 835.014 447.404C836.67 445.604 838.65 444.2 840.954 443.192C843.258 442.112 845.814 441.572 848.622 441.572ZM885.777 441.572C892.257 441.572 897.081 443.156 900.249 446.324C903.417 449.492 905.001 454.532 905.001 461.444V500H900.357L899.277 490.28H898.953C897.585 492.44 896.001 494.348 894.201 496.004C892.473 497.588 890.349 498.848 887.829 499.784C885.381 500.648 882.357 501.08 878.757 501.08C875.157 501.08 872.025 500.468 869.361 499.244C866.697 497.948 864.645 496.112 863.205 493.736C861.765 491.36 861.045 488.444 861.045 484.988C861.045 479.3 863.385 474.98 868.065 472.028C872.745 469.004 879.549 467.276 888.477 466.844L898.953 466.412V462.308C898.953 456.62 897.801 452.624 895.497 450.32C893.265 447.944 889.917 446.756 885.453 446.756C882.501 446.756 879.657 447.152 876.921 447.944C874.257 448.664 871.557 449.708 868.821 451.076L866.877 446.216C869.541 444.848 872.493 443.732 875.733 442.868C878.973 442.004 882.321 441.572 885.777 441.572ZM889.125 471.38C881.853 471.74 876.417 473.036 872.817 475.268C869.217 477.428 867.417 480.704 867.417 485.096C867.417 488.624 868.533 491.324 870.765 493.196C872.997 494.996 876.021 495.896 879.837 495.896C885.957 495.896 890.637 494.204 893.877 490.82C897.189 487.436 898.881 482.684 898.953 476.564V470.948L889.125 471.38ZM944.435 441.464C948.971 441.464 952.715 442.364 955.667 444.164C958.619 445.892 960.995 448.268 962.795 451.292H963.227L964.091 442.544H969.059V501.836C969.059 506.876 968.195 511.16 966.467 514.688C964.739 518.288 962.039 521.06 958.367 523.004C954.767 524.948 950.051 525.92 944.219 525.92C939.971 525.92 936.155 525.56 932.771 524.84C929.459 524.12 926.471 523.184 923.807 522.032V516.092C925.607 516.956 927.587 517.748 929.747 518.468C931.907 519.188 934.211 519.728 936.659 520.088C939.179 520.448 941.807 520.628 944.543 520.628C950.879 520.628 955.523 518.972 958.475 515.66C961.499 512.348 963.011 507.884 963.011 502.268V498.812C963.011 497.3 963.011 495.788 963.011 494.276C963.083 492.692 963.155 491.216 963.227 489.848H962.903C961.247 493.52 958.799 496.328 955.559 498.272C952.319 500.144 948.359 501.08 943.679 501.08C936.263 501.08 930.467 498.56 926.291 493.52C922.115 488.48 920.027 481.244 920.027 471.812C920.027 465.548 920.963 460.148 922.835 455.612C924.707 451.076 927.443 447.584 931.043 445.136C934.715 442.688 939.179 441.464 944.435 441.464ZM945.083 446.756C940.907 446.756 937.415 447.764 934.607 449.78C931.871 451.724 929.819 454.568 928.451 458.312C927.083 461.984 926.399 466.484 926.399 471.812C926.399 479.66 927.947 485.636 931.043 489.74C934.139 493.844 938.567 495.896 944.327 495.896C947.999 495.896 951.023 495.356 953.399 494.276C955.775 493.124 957.647 491.54 959.015 489.524C960.455 487.508 961.463 485.132 962.039 482.396C962.687 479.588 963.011 476.6 963.011 473.432V469.652C963.011 464.756 962.435 460.616 961.283 457.232C960.131 453.848 958.223 451.256 955.559 449.456C952.967 447.656 949.475 446.756 945.083 446.756ZM1009.74 441.464C1014.7 441.464 1018.81 442.616 1022.05 444.92C1025.36 447.152 1027.84 450.248 1029.5 454.208C1031.23 458.168 1032.09 462.74 1032.09 467.924V472.028H991.051C991.051 479.732 992.815 485.6 996.343 489.632C999.943 493.664 1005.02 495.68 1011.57 495.68C1015.17 495.68 1018.3 495.392 1020.97 494.816C1023.63 494.24 1026.55 493.232 1029.72 491.792V497.408C1026.84 498.704 1023.99 499.64 1021.18 500.216C1018.38 500.792 1015.1 501.08 1011.36 501.08C1005.67 501.08 1000.81 499.892 996.775 497.516C992.815 495.14 989.791 491.756 987.703 487.364C985.687 482.9 984.679 477.716 984.679 471.812C984.679 465.908 985.651 460.688 987.595 456.152C989.539 451.616 992.383 448.052 996.127 445.46C999.871 442.796 1004.41 441.464 1009.74 441.464ZM1009.74 446.648C1004.41 446.648 1000.12 448.412 996.883 451.94C993.643 455.396 991.735 460.4 991.159 466.952H1025.72C1025.72 462.92 1025.14 459.392 1023.99 456.368C1022.84 453.344 1021.08 450.968 1018.7 449.24C1016.4 447.512 1013.41 446.648 1009.74 446.648Z" fill="#F2F2F2"/>
<path d="M239.26 580L236.852 573.812H228.928L226.548 580H224L231.812 559.924H234.08L241.864 580H239.26ZM233.856 565.524C233.8 565.375 233.707 565.104 233.576 564.712C233.445 564.32 233.315 563.919 233.184 563.508C233.072 563.079 232.979 562.752 232.904 562.528C232.811 562.901 232.708 563.284 232.596 563.676C232.503 564.049 232.4 564.395 232.288 564.712C232.195 565.029 232.111 565.3 232.036 565.524L229.768 571.572H236.096L233.856 565.524ZM258.676 564.712C260.524 564.712 262.008 565.356 263.128 566.644C264.267 567.932 264.836 569.873 264.836 572.468C264.836 574.167 264.575 575.604 264.052 576.78C263.548 577.937 262.83 578.815 261.896 579.412C260.982 579.991 259.899 580.28 258.648 580.28C257.883 580.28 257.202 580.177 256.604 579.972C256.007 579.767 255.494 579.505 255.064 579.188C254.654 578.852 254.299 578.488 254 578.096H253.832C253.87 578.413 253.907 578.815 253.944 579.3C253.982 579.785 254 580.205 254 580.56V586.72H251.536V564.992H253.552L253.888 567.036H254C254.299 566.607 254.654 566.215 255.064 565.86C255.494 565.505 255.998 565.225 256.576 565.02C257.174 564.815 257.874 564.712 258.676 564.712ZM258.228 566.784C257.22 566.784 256.408 566.98 255.792 567.372C255.176 567.745 254.728 568.315 254.448 569.08C254.168 569.845 254.019 570.816 254 571.992V572.468C254 573.7 254.131 574.745 254.392 575.604C254.654 576.463 255.092 577.116 255.708 577.564C256.343 578.012 257.202 578.236 258.284 578.236C259.199 578.236 259.946 577.984 260.524 577.48C261.122 576.976 261.56 576.295 261.84 575.436C262.139 574.559 262.288 573.56 262.288 572.44C262.288 570.723 261.952 569.351 261.28 568.324C260.627 567.297 259.61 566.784 258.228 566.784ZM274.559 564.712C275.847 564.712 276.948 564.992 277.863 565.552C278.796 566.112 279.505 566.905 279.991 567.932C280.495 568.94 280.747 570.125 280.747 571.488V572.972H270.471C270.508 574.671 270.937 575.968 271.759 576.864C272.599 577.741 273.765 578.18 275.259 578.18C276.211 578.18 277.051 578.096 277.779 577.928C278.525 577.741 279.291 577.48 280.075 577.144V579.3C279.309 579.636 278.553 579.879 277.807 580.028C277.06 580.196 276.173 580.28 275.147 580.28C273.728 580.28 272.468 579.991 271.367 579.412C270.284 578.833 269.435 577.975 268.819 576.836C268.221 575.679 267.923 574.269 267.923 572.608C267.923 570.965 268.193 569.556 268.735 568.38C269.295 567.204 270.069 566.299 271.059 565.664C272.067 565.029 273.233 564.712 274.559 564.712ZM274.531 566.728C273.355 566.728 272.421 567.111 271.731 567.876C271.059 568.623 270.657 569.668 270.527 571.012H278.171C278.171 570.153 278.04 569.407 277.779 568.772C277.517 568.137 277.116 567.643 276.575 567.288C276.052 566.915 275.371 566.728 274.531 566.728ZM291.568 564.712C291.848 564.712 292.146 564.731 292.464 564.768C292.8 564.787 293.089 564.824 293.332 564.88L293.024 567.148C292.781 567.092 292.51 567.045 292.212 567.008C291.932 566.971 291.661 566.952 291.4 566.952C290.821 566.952 290.27 567.073 289.748 567.316C289.225 567.559 288.758 567.904 288.348 568.352C287.937 568.781 287.61 569.304 287.368 569.92C287.144 570.536 287.032 571.227 287.032 571.992V580H284.568V564.992H286.584L286.864 567.736H286.976C287.293 567.176 287.676 566.672 288.124 566.224C288.572 565.757 289.085 565.393 289.664 565.132C290.242 564.852 290.877 564.712 291.568 564.712ZM305.906 575.856C305.906 576.827 305.663 577.639 305.178 578.292C304.693 578.945 304.002 579.44 303.106 579.776C302.21 580.112 301.146 580.28 299.914 580.28C298.869 580.28 297.963 580.196 297.198 580.028C296.451 579.86 295.789 579.627 295.21 579.328V577.088C295.807 577.387 296.526 577.667 297.366 577.928C298.225 578.171 299.093 578.292 299.97 578.292C301.221 578.292 302.126 578.096 302.686 577.704C303.246 577.293 303.526 576.752 303.526 576.08C303.526 575.707 303.423 575.371 303.218 575.072C303.013 574.773 302.639 574.475 302.098 574.176C301.575 573.877 300.819 573.541 299.83 573.168C298.859 572.795 298.029 572.421 297.338 572.048C296.647 571.675 296.115 571.227 295.742 570.704C295.369 570.181 295.182 569.509 295.182 568.688C295.182 567.419 295.695 566.439 296.722 565.748C297.767 565.057 299.13 564.712 300.81 564.712C301.725 564.712 302.574 564.805 303.358 564.992C304.161 565.16 304.907 565.403 305.598 565.72L304.758 567.68C304.347 567.493 303.909 567.335 303.442 567.204C302.994 567.055 302.537 566.943 302.07 566.868C301.603 566.775 301.127 566.728 300.642 566.728C299.634 566.728 298.859 566.896 298.318 567.232C297.795 567.549 297.534 567.988 297.534 568.548C297.534 568.959 297.655 569.313 297.898 569.612C298.141 569.892 298.542 570.172 299.102 570.452C299.681 570.713 300.446 571.031 301.398 571.404C302.35 571.759 303.162 572.123 303.834 572.496C304.506 572.869 305.019 573.327 305.374 573.868C305.729 574.391 305.906 575.053 305.906 575.856ZM322.58 572.468C322.58 573.719 322.412 574.829 322.076 575.8C321.759 576.752 321.292 577.564 320.676 578.236C320.079 578.908 319.342 579.421 318.464 579.776C317.606 580.112 316.644 580.28 315.58 580.28C314.591 580.28 313.676 580.112 312.836 579.776C311.996 579.421 311.268 578.908 310.652 578.236C310.036 577.564 309.551 576.752 309.196 575.8C308.86 574.829 308.692 573.719 308.692 572.468C308.692 570.807 308.972 569.407 309.532 568.268C310.092 567.111 310.895 566.233 311.94 565.636C312.986 565.02 314.227 564.712 315.664 564.712C317.027 564.712 318.222 565.02 319.248 565.636C320.294 566.233 321.106 567.111 321.684 568.268C322.282 569.407 322.58 570.807 322.58 572.468ZM311.24 572.468C311.24 573.644 311.39 574.671 311.688 575.548C312.006 576.407 312.491 577.069 313.144 577.536C313.798 578.003 314.628 578.236 315.636 578.236C316.644 578.236 317.475 578.003 318.128 577.536C318.782 577.069 319.258 576.407 319.556 575.548C319.874 574.671 320.032 573.644 320.032 572.468C320.032 571.273 319.874 570.256 319.556 569.416C319.239 568.576 318.754 567.932 318.1 567.484C317.466 567.017 316.635 566.784 315.608 566.784C314.078 566.784 312.967 567.288 312.276 568.296C311.586 569.304 311.24 570.695 311.24 572.468ZM333.709 564.712C335.501 564.712 336.855 565.151 337.769 566.028C338.684 566.887 339.141 568.287 339.141 570.228V580H336.705V570.396C336.705 569.183 336.435 568.277 335.893 567.68C335.352 567.083 334.503 566.784 333.345 566.784C331.684 566.784 330.536 567.251 329.901 568.184C329.267 569.117 328.949 570.461 328.949 572.216V580H326.485V564.992H328.473L328.837 567.036H328.977C329.313 566.513 329.724 566.084 330.209 565.748C330.713 565.393 331.264 565.132 331.861 564.964C332.459 564.796 333.075 564.712 333.709 564.712ZM349.478 564.74C351.307 564.74 352.661 565.141 353.538 565.944C354.415 566.747 354.854 568.025 354.854 569.78V580H353.062L352.586 577.872H352.474C352.045 578.413 351.597 578.871 351.13 579.244C350.682 579.599 350.159 579.86 349.562 580.028C348.983 580.196 348.274 580.28 347.434 580.28C346.538 580.28 345.726 580.121 344.998 579.804C344.289 579.487 343.729 579.001 343.318 578.348C342.907 577.676 342.702 576.836 342.702 575.828C342.702 574.335 343.29 573.187 344.466 572.384C345.642 571.563 347.453 571.115 349.898 571.04L352.446 570.956V570.06C352.446 568.809 352.175 567.941 351.634 567.456C351.093 566.971 350.327 566.728 349.338 566.728C348.554 566.728 347.807 566.849 347.098 567.092C346.389 567.316 345.726 567.577 345.11 567.876L344.354 566.028C345.007 565.673 345.782 565.375 346.678 565.132C347.574 564.871 348.507 564.74 349.478 564.74ZM350.206 572.748C348.339 572.823 347.042 573.121 346.314 573.644C345.605 574.167 345.25 574.904 345.25 575.856C345.25 576.696 345.502 577.312 346.006 577.704C346.529 578.096 347.191 578.292 347.994 578.292C349.263 578.292 350.318 577.947 351.158 577.256C351.998 576.547 352.418 575.464 352.418 574.008V572.664L350.206 572.748ZM361.953 580H359.489V558.72H361.953V580ZM383.754 575.856C383.754 576.827 383.511 577.639 383.026 578.292C382.54 578.945 381.85 579.44 380.954 579.776C380.058 580.112 378.994 580.28 377.762 580.28C376.716 580.28 375.811 580.196 375.046 580.028C374.299 579.86 373.636 579.627 373.058 579.328V577.088C373.655 577.387 374.374 577.667 375.214 577.928C376.072 578.171 376.94 578.292 377.818 578.292C379.068 578.292 379.974 578.096 380.534 577.704C381.094 577.293 381.374 576.752 381.374 576.08C381.374 575.707 381.271 575.371 381.066 575.072C380.86 574.773 380.487 574.475 379.946 574.176C379.423 573.877 378.667 573.541 377.678 573.168C376.707 572.795 375.876 572.421 375.186 572.048C374.495 571.675 373.963 571.227 373.59 570.704C373.216 570.181 373.03 569.509 373.03 568.688C373.03 567.419 373.543 566.439 374.57 565.748C375.615 565.057 376.978 564.712 378.658 564.712C379.572 564.712 380.422 564.805 381.206 564.992C382.008 565.16 382.755 565.403 383.446 565.72L382.606 567.68C382.195 567.493 381.756 567.335 381.29 567.204C380.842 567.055 380.384 566.943 379.918 566.868C379.451 566.775 378.975 566.728 378.49 566.728C377.482 566.728 376.707 566.896 376.166 567.232C375.643 567.549 375.382 567.988 375.382 568.548C375.382 568.959 375.503 569.313 375.746 569.612C375.988 569.892 376.39 570.172 376.95 570.452C377.528 570.713 378.294 571.031 379.246 571.404C380.198 571.759 381.01 572.123 381.682 572.496C382.354 572.869 382.867 573.327 383.222 573.868C383.576 574.391 383.754 575.053 383.754 575.856ZM392.392 578.264C392.765 578.264 393.148 578.236 393.54 578.18C393.932 578.105 394.249 578.031 394.492 577.956V579.832C394.231 579.963 393.857 580.065 393.372 580.14C392.887 580.233 392.42 580.28 391.972 580.28C391.188 580.28 390.46 580.149 389.788 579.888C389.135 579.608 388.603 579.132 388.192 578.46C387.781 577.788 387.576 576.845 387.576 575.632V566.896H385.448V565.72L387.604 564.74L388.584 561.548H390.04V564.992H394.38V566.896H390.04V575.576C390.04 576.491 390.255 577.172 390.684 577.62C391.132 578.049 391.701 578.264 392.392 578.264ZM410.545 572.468C410.545 573.719 410.377 574.829 410.041 575.8C409.724 576.752 409.257 577.564 408.641 578.236C408.044 578.908 407.307 579.421 406.429 579.776C405.571 580.112 404.609 580.28 403.545 580.28C402.556 580.28 401.641 580.112 400.801 579.776C399.961 579.421 399.233 578.908 398.617 578.236C398.001 577.564 397.516 576.752 397.161 575.8C396.825 574.829 396.657 573.719 396.657 572.468C396.657 570.807 396.937 569.407 397.497 568.268C398.057 567.111 398.86 566.233 399.905 565.636C400.951 565.02 402.192 564.712 403.629 564.712C404.992 564.712 406.187 565.02 407.213 565.636C408.259 566.233 409.071 567.111 409.649 568.268C410.247 569.407 410.545 570.807 410.545 572.468ZM399.205 572.468C399.205 573.644 399.355 574.671 399.653 575.548C399.971 576.407 400.456 577.069 401.109 577.536C401.763 578.003 402.593 578.236 403.601 578.236C404.609 578.236 405.44 578.003 406.093 577.536C406.747 577.069 407.223 576.407 407.521 575.548C407.839 574.671 407.997 573.644 407.997 572.468C407.997 571.273 407.839 570.256 407.521 569.416C407.204 568.576 406.719 567.932 406.065 567.484C405.431 567.017 404.6 566.784 403.573 566.784C402.043 566.784 400.932 567.288 400.241 568.296C399.551 569.304 399.205 570.695 399.205 572.468ZM421.45 564.712C421.73 564.712 422.029 564.731 422.346 564.768C422.682 564.787 422.972 564.824 423.214 564.88L422.906 567.148C422.664 567.092 422.393 567.045 422.094 567.008C421.814 566.971 421.544 566.952 421.282 566.952C420.704 566.952 420.153 567.073 419.63 567.316C419.108 567.559 418.641 567.904 418.23 568.352C417.82 568.781 417.493 569.304 417.25 569.92C417.026 570.536 416.914 571.227 416.914 571.992V580H414.45V564.992H416.466L416.746 567.736H416.858C417.176 567.176 417.558 566.672 418.006 566.224C418.454 565.757 418.968 565.393 419.546 565.132C420.125 564.852 420.76 564.712 421.45 564.712ZM423.665 564.992H426.297L429.545 573.532C429.731 574.036 429.899 574.521 430.049 574.988C430.217 575.455 430.366 575.912 430.497 576.36C430.627 576.789 430.73 577.209 430.805 577.62H430.917C431.029 577.153 431.206 576.547 431.449 575.8C431.691 575.035 431.943 574.269 432.205 573.504L435.257 564.992H437.917L431.449 582.072C431.094 583.005 430.674 583.817 430.189 584.508C429.722 585.217 429.143 585.759 428.453 586.132C427.781 586.524 426.959 586.72 425.989 586.72C425.541 586.72 425.149 586.692 424.813 586.636C424.477 586.599 424.187 586.552 423.945 586.496V584.536C424.15 584.573 424.393 584.611 424.673 584.648C424.971 584.685 425.279 584.704 425.597 584.704C426.175 584.704 426.67 584.592 427.081 584.368C427.51 584.163 427.874 583.855 428.173 583.444C428.471 583.052 428.723 582.585 428.929 582.044L429.713 580.056L423.665 564.992ZM460.612 572.468C460.612 573.719 460.444 574.829 460.108 575.8C459.79 576.752 459.324 577.564 458.708 578.236C458.11 578.908 457.373 579.421 456.496 579.776C455.637 580.112 454.676 580.28 453.612 580.28C452.622 580.28 451.708 580.112 450.868 579.776C450.028 579.421 449.3 578.908 448.684 578.236C448.068 577.564 447.582 576.752 447.228 575.8C446.892 574.829 446.724 573.719 446.724 572.468C446.724 570.807 447.004 569.407 447.564 568.268C448.124 567.111 448.926 566.233 449.972 565.636C451.017 565.02 452.258 564.712 453.696 564.712C455.058 564.712 456.253 565.02 457.28 565.636C458.325 566.233 459.137 567.111 459.716 568.268C460.313 569.407 460.612 570.807 460.612 572.468ZM449.272 572.468C449.272 573.644 449.421 574.671 449.72 575.548C450.037 576.407 450.522 577.069 451.176 577.536C451.829 578.003 452.66 578.236 453.668 578.236C454.676 578.236 455.506 578.003 456.16 577.536C456.813 577.069 457.289 576.407 457.588 575.548C457.905 574.671 458.064 573.644 458.064 572.468C458.064 571.273 457.905 570.256 457.588 569.416C457.27 568.576 456.785 567.932 456.132 567.484C455.497 567.017 454.666 566.784 453.64 566.784C452.109 566.784 450.998 567.288 450.308 568.296C449.617 569.304 449.272 570.695 449.272 572.468ZM471.433 566.896H467.653V580H465.189V566.896H462.557V565.748L465.189 564.908V564.04C465.189 562.752 465.375 561.707 465.749 560.904C466.141 560.101 466.701 559.513 467.429 559.14C468.157 558.767 469.034 558.58 470.061 558.58C470.658 558.58 471.199 558.636 471.685 558.748C472.189 558.841 472.618 558.953 472.973 559.084L472.329 561.016C472.03 560.923 471.685 560.829 471.293 560.736C470.901 560.643 470.499 560.596 470.089 560.596C469.267 560.596 468.651 560.876 468.241 561.436C467.849 561.977 467.653 562.836 467.653 564.012V564.992H471.433V566.896ZM491.103 571.516C490.991 571.124 490.879 570.741 490.767 570.368C490.655 569.976 490.552 569.612 490.459 569.276C490.384 568.921 490.31 568.595 490.235 568.296C490.16 567.997 490.104 567.745 490.067 567.54H489.955C489.918 567.745 489.862 567.997 489.787 568.296C489.731 568.595 489.656 568.921 489.563 569.276C489.488 569.631 489.395 570.004 489.283 570.396C489.19 570.769 489.078 571.152 488.947 571.544L486.259 579.972H483.459L479.343 564.964H481.891L483.963 572.972C484.112 573.513 484.252 574.064 484.383 574.624C484.514 575.165 484.626 575.688 484.719 576.192C484.831 576.677 484.906 577.097 484.943 577.452H485.055C485.111 577.228 485.176 576.948 485.251 576.612C485.326 576.276 485.4 575.921 485.475 575.548C485.568 575.175 485.662 574.801 485.755 574.428C485.867 574.055 485.97 573.719 486.063 573.42L488.723 564.964H491.411L493.987 573.42C494.118 573.849 494.248 574.307 494.379 574.792C494.528 575.277 494.659 575.753 494.771 576.22C494.883 576.668 494.958 577.069 494.995 577.424H495.107C495.144 577.107 495.21 576.715 495.303 576.248C495.415 575.763 495.536 575.24 495.667 574.68C495.816 574.101 495.966 573.532 496.115 572.972L498.215 564.964H500.735L496.563 579.972H493.679L491.103 571.516ZM505.891 564.964C505.891 565.319 505.872 565.683 505.835 566.056C505.816 566.429 505.788 566.765 505.751 567.064H505.919C506.236 566.541 506.638 566.112 507.123 565.776C507.608 565.44 508.15 565.188 508.747 565.02C509.344 564.833 509.96 564.74 510.595 564.74C511.808 564.74 512.816 564.936 513.619 565.328C514.44 565.701 515.056 566.289 515.467 567.092C515.878 567.895 516.083 568.94 516.083 570.228V580H513.647V570.396C513.647 569.183 513.376 568.277 512.835 567.68C512.294 567.083 511.444 566.784 510.287 566.784C509.167 566.784 508.29 566.999 507.655 567.428C507.02 567.839 506.563 568.455 506.283 569.276C506.022 570.079 505.891 571.068 505.891 572.244V580H503.427V558.72H505.891V564.964ZM526.531 564.712C527.819 564.712 528.921 564.992 529.835 565.552C530.769 566.112 531.478 566.905 531.963 567.932C532.467 568.94 532.719 570.125 532.719 571.488V572.972H522.443C522.481 574.671 522.91 575.968 523.731 576.864C524.571 577.741 525.738 578.18 527.231 578.18C528.183 578.18 529.023 578.096 529.751 577.928C530.498 577.741 531.263 577.48 532.047 577.144V579.3C531.282 579.636 530.526 579.879 529.779 580.028C529.033 580.196 528.146 580.28 527.119 580.28C525.701 580.28 524.441 579.991 523.339 579.412C522.257 578.833 521.407 577.975 520.791 576.836C520.194 575.679 519.895 574.269 519.895 572.608C519.895 570.965 520.166 569.556 520.707 568.38C521.267 567.204 522.042 566.299 523.031 565.664C524.039 565.029 525.206 564.712 526.531 564.712ZM526.503 566.728C525.327 566.728 524.394 567.111 523.703 567.876C523.031 568.623 522.63 569.668 522.499 571.012H530.143C530.143 570.153 530.013 569.407 529.751 568.772C529.49 568.137 529.089 567.643 528.547 567.288C528.025 566.915 527.343 566.728 526.503 566.728ZM543.764 564.712C545.556 564.712 546.909 565.151 547.824 566.028C548.739 566.887 549.196 568.287 549.196 570.228V580H546.76V570.396C546.76 569.183 546.489 568.277 545.948 567.68C545.407 567.083 544.557 566.784 543.4 566.784C541.739 566.784 540.591 567.251 539.956 568.184C539.321 569.117 539.004 570.461 539.004 572.216V580H536.54V564.992H538.528L538.892 567.036H539.032C539.368 566.513 539.779 566.084 540.264 565.748C540.768 565.393 541.319 565.132 541.916 564.964C542.513 564.796 543.129 564.712 543.764 564.712ZM567.086 580H559.862V578.544L562.214 578.012V562.024L559.862 561.464V560.008H567.086V561.464L564.734 562.024V578.012L567.086 578.544V580ZM580.348 564.992V580H577.884V564.992H580.348ZM579.144 559.364C579.517 559.364 579.844 559.495 580.124 559.756C580.423 559.999 580.572 560.391 580.572 560.932C580.572 561.455 580.423 561.847 580.124 562.108C579.844 562.369 579.517 562.5 579.144 562.5C578.733 562.5 578.388 562.369 578.108 562.108C577.828 561.847 577.688 561.455 577.688 560.932C577.688 560.391 577.828 559.999 578.108 559.756C578.388 559.495 578.733 559.364 579.144 559.364ZM590.423 580.28C588.556 580.28 587.063 579.636 585.943 578.348C584.823 577.041 584.263 575.1 584.263 572.524C584.263 569.948 584.823 568.007 585.943 566.7C587.081 565.375 588.584 564.712 590.451 564.712C591.235 564.712 591.916 564.815 592.495 565.02C593.073 565.207 593.577 565.468 594.007 565.804C594.436 566.14 594.8 566.513 595.099 566.924H595.267C595.248 566.681 595.211 566.327 595.155 565.86C595.117 565.375 595.099 564.992 595.099 564.712V558.72H597.563V580H595.575L595.211 577.984H595.099C594.8 578.413 594.436 578.805 594.007 579.16C593.577 579.496 593.064 579.767 592.467 579.972C591.888 580.177 591.207 580.28 590.423 580.28ZM590.815 578.236C592.401 578.236 593.512 577.807 594.147 576.948C594.8 576.071 595.127 574.755 595.127 573V572.552C595.127 570.685 594.819 569.257 594.203 568.268C593.587 567.26 592.448 566.756 590.787 566.756C589.461 566.756 588.463 567.288 587.791 568.352C587.137 569.397 586.811 570.807 586.811 572.58C586.811 574.372 587.137 575.763 587.791 576.752C588.463 577.741 589.471 578.236 590.815 578.236ZM608.125 564.712C609.413 564.712 610.515 564.992 611.429 565.552C612.363 566.112 613.072 566.905 613.557 567.932C614.061 568.94 614.313 570.125 614.313 571.488V572.972H604.037C604.075 574.671 604.504 575.968 605.325 576.864C606.165 577.741 607.332 578.18 608.825 578.18C609.777 578.18 610.617 578.096 611.345 577.928C612.092 577.741 612.857 577.48 613.641 577.144V579.3C612.876 579.636 612.12 579.879 611.373 580.028C610.627 580.196 609.74 580.28 608.713 580.28C607.295 580.28 606.035 579.991 604.933 579.412C603.851 578.833 603.001 577.975 602.385 576.836C601.788 575.679 601.489 574.269 601.489 572.608C601.489 570.965 601.76 569.556 602.301 568.38C602.861 567.204 603.636 566.299 604.625 565.664C605.633 565.029 606.8 564.712 608.125 564.712ZM608.097 566.728C606.921 566.728 605.988 567.111 605.297 567.876C604.625 568.623 604.224 569.668 604.093 571.012H611.737C611.737 570.153 611.607 569.407 611.345 568.772C611.084 568.137 610.683 567.643 610.141 567.288C609.619 566.915 608.937 566.728 608.097 566.728ZM625.358 564.712C627.15 564.712 628.503 565.151 629.418 566.028C630.333 566.887 630.79 568.287 630.79 570.228V580H628.354V570.396C628.354 569.183 628.083 568.277 627.542 567.68C627.001 567.083 626.151 566.784 624.994 566.784C623.333 566.784 622.185 567.251 621.55 568.184C620.915 569.117 620.598 570.461 620.598 572.216V580H618.134V564.992H620.122L620.486 567.036H620.626C620.962 566.513 621.373 566.084 621.858 565.748C622.362 565.393 622.913 565.132 623.51 564.964C624.107 564.796 624.723 564.712 625.358 564.712ZM640.454 578.264C640.828 578.264 641.211 578.236 641.603 578.18C641.995 578.105 642.312 578.031 642.555 577.956V579.832C642.293 579.963 641.92 580.065 641.435 580.14C640.949 580.233 640.483 580.28 640.035 580.28C639.251 580.28 638.523 580.149 637.851 579.888C637.197 579.608 636.665 579.132 636.255 578.46C635.844 577.788 635.639 576.845 635.639 575.632V566.896H633.511V565.72L635.667 564.74L636.647 561.548H638.103V564.992H642.443V566.896H638.103V575.576C638.103 576.491 638.317 577.172 638.747 577.62C639.195 578.049 639.764 578.264 640.454 578.264ZM648.024 564.992V580H645.56V564.992H648.024ZM646.82 559.364C647.193 559.364 647.52 559.495 647.8 559.756C648.098 559.999 648.248 560.391 648.248 560.932C648.248 561.455 648.098 561.847 647.8 562.108C647.52 562.369 647.193 562.5 646.82 562.5C646.409 562.5 646.064 562.369 645.784 562.108C645.504 561.847 645.364 561.455 645.364 560.932C645.364 560.391 645.504 559.999 645.784 559.756C646.064 559.495 646.409 559.364 646.82 559.364ZM659.694 566.896H655.914V580H653.45V566.896H650.818V565.748L653.45 564.908V564.04C653.45 562.752 653.637 561.707 654.01 560.904C654.402 560.101 654.962 559.513 655.69 559.14C656.418 558.767 657.296 558.58 658.322 558.58C658.92 558.58 659.461 558.636 659.946 558.748C660.45 558.841 660.88 558.953 661.234 559.084L660.59 561.016C660.292 560.923 659.946 560.829 659.554 560.736C659.162 560.643 658.761 560.596 658.35 560.596C657.529 560.596 656.913 560.876 656.502 561.436C656.11 561.977 655.914 562.836 655.914 564.012V564.992H659.694V566.896ZM664.874 564.992V580H662.41V564.992H664.874ZM663.67 559.364C664.044 559.364 664.37 559.495 664.65 559.756C664.949 559.999 665.098 560.391 665.098 560.932C665.098 561.455 664.949 561.847 664.65 562.108C664.37 562.369 664.044 562.5 663.67 562.5C663.26 562.5 662.914 562.369 662.634 562.108C662.354 561.847 662.214 561.455 662.214 560.932C662.214 560.391 662.354 559.999 662.634 559.756C662.914 559.495 663.26 559.364 663.67 559.364ZM675.418 564.712C676.706 564.712 677.808 564.992 678.722 565.552C679.656 566.112 680.365 566.905 680.85 567.932C681.354 568.94 681.606 570.125 681.606 571.488V572.972H671.33C671.368 574.671 671.797 575.968 672.618 576.864C673.458 577.741 674.625 578.18 676.118 578.18C677.07 578.18 677.91 578.096 678.638 577.928C679.385 577.741 680.15 577.48 680.934 577.144V579.3C680.169 579.636 679.413 579.879 678.666 580.028C677.92 580.196 677.033 580.28 676.006 580.28C674.588 580.28 673.328 579.991 672.226 579.412C671.144 578.833 670.294 577.975 669.678 576.836C669.081 575.679 668.782 574.269 668.782 572.608C668.782 570.965 669.053 569.556 669.594 568.38C670.154 567.204 670.929 566.299 671.918 565.664C672.926 565.029 674.093 564.712 675.418 564.712ZM675.39 566.728C674.214 566.728 673.281 567.111 672.59 567.876C671.918 568.623 671.517 569.668 671.386 571.012H679.03C679.03 570.153 678.9 569.407 678.638 568.772C678.377 568.137 677.976 567.643 677.434 567.288C676.912 566.915 676.23 566.728 675.39 566.728ZM690.747 580.28C688.88 580.28 687.387 579.636 686.267 578.348C685.147 577.041 684.587 575.1 684.587 572.524C684.587 569.948 685.147 568.007 686.267 566.7C687.406 565.375 688.908 564.712 690.775 564.712C691.559 564.712 692.24 564.815 692.819 565.02C693.398 565.207 693.902 565.468 694.331 565.804C694.76 566.14 695.124 566.513 695.423 566.924H695.591C695.572 566.681 695.535 566.327 695.479 565.86C695.442 565.375 695.423 564.992 695.423 564.712V558.72H697.887V580H695.899L695.535 577.984H695.423C695.124 578.413 694.76 578.805 694.331 579.16C693.902 579.496 693.388 579.767 692.791 579.972C692.212 580.177 691.531 580.28 690.747 580.28ZM691.139 578.236C692.726 578.236 693.836 577.807 694.471 576.948C695.124 576.071 695.451 574.755 695.451 573V572.552C695.451 570.685 695.143 569.257 694.527 568.268C693.911 567.26 692.772 566.756 691.111 566.756C689.786 566.756 688.787 567.288 688.115 568.352C687.462 569.397 687.135 570.807 687.135 572.58C687.135 574.372 687.462 575.763 688.115 576.752C688.787 577.741 689.795 578.236 691.139 578.236ZM715.611 564.74C717.44 564.74 718.794 565.141 719.671 565.944C720.548 566.747 720.987 568.025 720.987 569.78V580H719.195L718.719 577.872H718.607C718.178 578.413 717.73 578.871 717.263 579.244C716.815 579.599 716.292 579.86 715.695 580.028C715.116 580.196 714.407 580.28 713.567 580.28C712.671 580.28 711.859 580.121 711.131 579.804C710.422 579.487 709.862 579.001 709.451 578.348C709.04 577.676 708.835 576.836 708.835 575.828C708.835 574.335 709.423 573.187 710.599 572.384C711.775 571.563 713.586 571.115 716.031 571.04L718.579 570.956V570.06C718.579 568.809 718.308 567.941 717.767 567.456C717.226 566.971 716.46 566.728 715.471 566.728C714.687 566.728 713.94 566.849 713.231 567.092C712.522 567.316 711.859 567.577 711.243 567.876L710.487 566.028C711.14 565.673 711.915 565.375 712.811 565.132C713.707 564.871 714.64 564.74 715.611 564.74ZM716.339 572.748C714.472 572.823 713.175 573.121 712.447 573.644C711.738 574.167 711.383 574.904 711.383 575.856C711.383 576.696 711.635 577.312 712.139 577.704C712.662 578.096 713.324 578.292 714.127 578.292C715.396 578.292 716.451 577.947 717.291 577.256C718.131 576.547 718.551 575.464 718.551 574.008V572.664L716.339 572.748ZM732.846 564.712C734.638 564.712 735.992 565.151 736.906 566.028C737.821 566.887 738.278 568.287 738.278 570.228V580H735.842V570.396C735.842 569.183 735.572 568.277 735.03 567.68C734.489 567.083 733.64 566.784 732.482 566.784C730.821 566.784 729.673 567.251 729.038 568.184C728.404 569.117 728.086 570.461 728.086 572.216V580H725.622V564.992H727.61L727.974 567.036H728.114C728.45 566.513 728.861 566.084 729.346 565.748C729.85 565.393 730.401 565.132 730.998 564.964C731.596 564.796 732.212 564.712 732.846 564.712ZM756 564.712C757.288 564.712 758.39 564.992 759.304 565.552C760.238 566.112 760.947 566.905 761.432 567.932C761.936 568.94 762.188 570.125 762.188 571.488V572.972H751.912C751.95 574.671 752.379 575.968 753.2 576.864C754.04 577.741 755.207 578.18 756.7 578.18C757.652 578.18 758.492 578.096 759.22 577.928C759.967 577.741 760.732 577.48 761.516 577.144V579.3C760.751 579.636 759.995 579.879 759.248 580.028C758.502 580.196 757.615 580.28 756.588 580.28C755.17 580.28 753.91 579.991 752.808 579.412C751.726 578.833 750.876 577.975 750.26 576.836C749.663 575.679 749.364 574.269 749.364 572.608C749.364 570.965 749.635 569.556 750.176 568.38C750.736 567.204 751.511 566.299 752.5 565.664C753.508 565.029 754.675 564.712 756 564.712ZM755.972 566.728C754.796 566.728 753.863 567.111 753.172 567.876C752.5 568.623 752.099 569.668 751.968 571.012H759.612C759.612 570.153 759.482 569.407 759.22 568.772C758.959 568.137 758.558 567.643 758.016 567.288C757.494 566.915 756.812 566.728 755.972 566.728ZM771.021 578.264C771.394 578.264 771.777 578.236 772.169 578.18C772.561 578.105 772.878 578.031 773.121 577.956V579.832C772.86 579.963 772.486 580.065 772.001 580.14C771.516 580.233 771.049 580.28 770.601 580.28C769.817 580.28 769.089 580.149 768.417 579.888C767.764 579.608 767.232 579.132 766.821 578.46C766.41 577.788 766.205 576.845 766.205 575.632V566.896H764.077V565.72L766.233 564.74L767.213 561.548H768.669V564.992H773.009V566.896H768.669V575.576C768.669 576.491 768.884 577.172 769.313 577.62C769.761 578.049 770.33 578.264 771.021 578.264ZM778.59 564.964C778.59 565.319 778.571 565.683 778.534 566.056C778.515 566.429 778.487 566.765 778.45 567.064H778.618C778.935 566.541 779.337 566.112 779.822 565.776C780.307 565.44 780.849 565.188 781.446 565.02C782.043 564.833 782.659 564.74 783.294 564.74C784.507 564.74 785.515 564.936 786.318 565.328C787.139 565.701 787.755 566.289 788.166 567.092C788.577 567.895 788.782 568.94 788.782 570.228V580H786.346V570.396C786.346 569.183 786.075 568.277 785.534 567.68C784.993 567.083 784.143 566.784 782.986 566.784C781.866 566.784 780.989 566.999 780.354 567.428C779.719 567.839 779.262 568.455 778.982 569.276C778.721 570.079 778.59 571.068 778.59 572.244V580H776.126V558.72H778.59V564.964ZM795.899 564.992V580H793.435V564.992H795.899ZM794.695 559.364C795.068 559.364 795.395 559.495 795.675 559.756C795.973 559.999 796.123 560.391 796.123 560.932C796.123 561.455 795.973 561.847 795.675 562.108C795.395 562.369 795.068 562.5 794.695 562.5C794.284 562.5 793.939 562.369 793.659 562.108C793.379 561.847 793.239 561.455 793.239 560.932C793.239 560.391 793.379 559.999 793.659 559.756C793.939 559.495 794.284 559.364 794.695 559.364ZM806.673 580.28C805.348 580.28 804.163 580.009 803.117 579.468C802.091 578.927 801.279 578.087 800.681 576.948C800.103 575.809 799.813 574.353 799.813 572.58C799.813 570.732 800.121 569.229 800.737 568.072C801.353 566.915 802.184 566.065 803.229 565.524C804.293 564.983 805.497 564.712 806.841 564.712C807.607 564.712 808.344 564.796 809.053 564.964C809.763 565.113 810.341 565.3 810.789 565.524L810.033 567.568C809.585 567.4 809.063 567.241 808.465 567.092C807.868 566.943 807.308 566.868 806.785 566.868C805.777 566.868 804.947 567.083 804.293 567.512C803.64 567.941 803.155 568.576 802.837 569.416C802.52 570.256 802.361 571.301 802.361 572.552C802.361 573.747 802.52 574.764 802.837 575.604C803.155 576.444 803.631 577.079 804.265 577.508C804.9 577.937 805.693 578.152 806.645 578.152C807.467 578.152 808.185 578.068 808.801 577.9C809.436 577.732 810.015 577.527 810.537 577.284V579.468C810.033 579.729 809.473 579.925 808.857 580.056C808.26 580.205 807.532 580.28 806.673 580.28ZM819.791 564.74C821.62 564.74 822.973 565.141 823.851 565.944C824.728 566.747 825.167 568.025 825.167 569.78V580H823.375L822.899 577.872H822.787C822.357 578.413 821.909 578.871 821.443 579.244C820.995 579.599 820.472 579.86 819.875 580.028C819.296 580.196 818.587 580.28 817.747 580.28C816.851 580.28 816.039 580.121 815.311 579.804C814.601 579.487 814.041 579.001 813.631 578.348C813.22 577.676 813.015 576.836 813.015 575.828C813.015 574.335 813.603 573.187 814.779 572.384C815.955 571.563 817.765 571.115 820.211 571.04L822.759 570.956V570.06C822.759 568.809 822.488 567.941 821.947 567.456C821.405 566.971 820.64 566.728 819.651 566.728C818.867 566.728 818.12 566.849 817.411 567.092C816.701 567.316 816.039 567.577 815.423 567.876L814.667 566.028C815.32 565.673 816.095 565.375 816.991 565.132C817.887 564.871 818.82 564.74 819.791 564.74ZM820.519 572.748C818.652 572.823 817.355 573.121 816.627 573.644C815.917 574.167 815.563 574.904 815.563 575.856C815.563 576.696 815.815 577.312 816.319 577.704C816.841 578.096 817.504 578.292 818.307 578.292C819.576 578.292 820.631 577.947 821.471 577.256C822.311 576.547 822.731 575.464 822.731 574.008V572.664L820.519 572.748ZM832.266 580H829.802V558.72H832.266V580ZM851.294 564.712C851.574 564.712 851.873 564.731 852.19 564.768C852.526 564.787 852.815 564.824 853.058 564.88L852.75 567.148C852.507 567.092 852.237 567.045 851.938 567.008C851.658 566.971 851.387 566.952 851.126 566.952C850.547 566.952 849.997 567.073 849.474 567.316C848.951 567.559 848.485 567.904 848.074 568.352C847.663 568.781 847.337 569.304 847.094 569.92C846.87 570.536 846.758 571.227 846.758 571.992V580H844.294V564.992H846.31L846.59 567.736H846.702C847.019 567.176 847.402 566.672 847.85 566.224C848.298 565.757 848.811 565.393 849.39 565.132C849.969 564.852 850.603 564.712 851.294 564.712ZM858.324 564.992V580H855.86V564.992H858.324ZM857.12 559.364C857.494 559.364 857.82 559.495 858.1 559.756C858.399 559.999 858.548 560.391 858.548 560.932C858.548 561.455 858.399 561.847 858.1 562.108C857.82 562.369 857.494 562.5 857.12 562.5C856.71 562.5 856.364 562.369 856.084 562.108C855.804 561.847 855.664 561.455 855.664 560.932C855.664 560.391 855.804 559.999 856.084 559.756C856.364 559.495 856.71 559.364 857.12 559.364ZM872.851 575.856C872.851 576.827 872.609 577.639 872.123 578.292C871.638 578.945 870.947 579.44 870.051 579.776C869.155 580.112 868.091 580.28 866.859 580.28C865.814 580.28 864.909 580.196 864.143 580.028C863.397 579.86 862.734 579.627 862.155 579.328V577.088C862.753 577.387 863.471 577.667 864.311 577.928C865.17 578.171 866.038 578.292 866.915 578.292C868.166 578.292 869.071 578.096 869.631 577.704C870.191 577.293 870.471 576.752 870.471 576.08C870.471 575.707 870.369 575.371 870.163 575.072C869.958 574.773 869.585 574.475 869.043 574.176C868.521 573.877 867.765 573.541 866.775 573.168C865.805 572.795 864.974 572.421 864.283 572.048C863.593 571.675 863.061 571.227 862.687 570.704C862.314 570.181 862.127 569.509 862.127 568.688C862.127 567.419 862.641 566.439 863.667 565.748C864.713 565.057 866.075 564.712 867.755 564.712C868.67 564.712 869.519 564.805 870.303 564.992C871.106 565.16 871.853 565.403 872.543 565.72L871.703 567.68C871.293 567.493 870.854 567.335 870.387 567.204C869.939 567.055 869.482 566.943 869.015 566.868C868.549 566.775 868.073 566.728 867.587 566.728C866.579 566.728 865.805 566.896 865.263 567.232C864.741 567.549 864.479 567.988 864.479 568.548C864.479 568.959 864.601 569.313 864.843 569.612C865.086 569.892 865.487 570.172 866.047 570.452C866.626 570.713 867.391 571.031 868.343 571.404C869.295 571.759 870.107 572.123 870.779 572.496C871.451 572.869 871.965 573.327 872.319 573.868C872.674 574.391 872.851 575.053 872.851 575.856ZM878.914 569.836C878.914 570.135 878.895 570.527 878.858 571.012C878.839 571.497 878.82 571.917 878.802 572.272H878.914C879.026 572.123 879.194 571.908 879.418 571.628C879.642 571.348 879.866 571.068 880.09 570.788C880.332 570.489 880.538 570.247 880.706 570.06L885.494 564.992H888.378L882.302 571.404L888.798 580H885.83L880.622 573L878.914 574.484V580H876.478V558.72H878.914V569.836ZM894.431 577.06C894.263 577.713 894.048 578.423 893.787 579.188C893.525 579.953 893.236 580.709 892.919 581.456C892.62 582.221 892.321 582.94 892.023 583.612H890.203C890.389 582.903 890.567 582.137 890.735 581.316C890.921 580.513 891.089 579.72 891.239 578.936C891.388 578.133 891.509 577.405 891.603 576.752H894.235L894.431 577.06ZM911.884 564.74C913.714 564.74 915.067 565.141 915.944 565.944C916.822 566.747 917.26 568.025 917.26 569.78V580H915.468L914.992 577.872H914.88C914.451 578.413 914.003 578.871 913.536 579.244C913.088 579.599 912.566 579.86 911.968 580.028C911.39 580.196 910.68 580.28 909.84 580.28C908.944 580.28 908.132 580.121 907.404 579.804C906.695 579.487 906.135 579.001 905.724 578.348C905.314 577.676 905.108 576.836 905.108 575.828C905.108 574.335 905.696 573.187 906.872 572.384C908.048 571.563 909.859 571.115 912.304 571.04L914.852 570.956V570.06C914.852 568.809 914.582 567.941 914.04 567.456C913.499 566.971 912.734 566.728 911.744 566.728C910.96 566.728 910.214 566.849 909.504 567.092C908.795 567.316 908.132 567.577 907.516 567.876L906.76 566.028C907.414 565.673 908.188 565.375 909.084 565.132C909.98 564.871 910.914 564.74 911.884 564.74ZM912.612 572.748C910.746 572.823 909.448 573.121 908.72 573.644C908.011 574.167 907.656 574.904 907.656 575.856C907.656 576.696 907.908 577.312 908.412 577.704C908.935 578.096 909.598 578.292 910.4 578.292C911.67 578.292 912.724 577.947 913.564 577.256C914.404 576.547 914.824 575.464 914.824 574.008V572.664L912.612 572.748ZM929.12 564.712C930.912 564.712 932.265 565.151 933.18 566.028C934.094 566.887 934.552 568.287 934.552 570.228V580H932.116V570.396C932.116 569.183 931.845 568.277 931.304 567.68C930.762 567.083 929.913 566.784 928.756 566.784C927.094 566.784 925.946 567.251 925.312 568.184C924.677 569.117 924.36 570.461 924.36 572.216V580H921.896V564.992H923.884L924.248 567.036H924.388C924.724 566.513 925.134 566.084 925.62 565.748C926.124 565.393 926.674 565.132 927.272 564.964C927.869 564.796 928.485 564.712 929.12 564.712ZM944.524 580.28C942.658 580.28 941.164 579.636 940.044 578.348C938.924 577.041 938.364 575.1 938.364 572.524C938.364 569.948 938.924 568.007 940.044 566.7C941.183 565.375 942.686 564.712 944.552 564.712C945.336 564.712 946.018 564.815 946.596 565.02C947.175 565.207 947.679 565.468 948.108 565.804C948.538 566.14 948.902 566.513 949.2 566.924H949.368C949.35 566.681 949.312 566.327 949.256 565.86C949.219 565.375 949.2 564.992 949.2 564.712V558.72H951.664V580H949.676L949.312 577.984H949.2C948.902 578.413 948.538 578.805 948.108 579.16C947.679 579.496 947.166 579.767 946.568 579.972C945.99 580.177 945.308 580.28 944.524 580.28ZM944.916 578.236C946.503 578.236 947.614 577.807 948.248 576.948C948.902 576.071 949.228 574.755 949.228 573V572.552C949.228 570.685 948.92 569.257 948.304 568.268C947.688 567.26 946.55 566.756 944.888 566.756C943.563 566.756 942.564 567.288 941.892 568.352C941.239 569.397 940.912 570.807 940.912 572.58C940.912 574.372 941.239 575.763 941.892 576.752C942.564 577.741 943.572 578.236 944.916 578.236ZM969.024 564.712C970.014 564.712 970.9 564.899 971.684 565.272C972.487 565.645 973.168 566.215 973.728 566.98H973.868L974.204 564.992H976.164V580.252C976.164 581.671 975.922 582.856 975.436 583.808C974.951 584.779 974.214 585.507 973.224 585.992C972.235 586.477 970.975 586.72 969.444 586.72C968.362 586.72 967.363 586.636 966.448 586.468C965.552 586.319 964.75 586.085 964.04 585.768V583.5C964.526 583.743 965.058 583.948 965.636 584.116C966.215 584.303 966.84 584.443 967.512 584.536C968.184 584.629 968.875 584.676 969.584 584.676C970.872 584.676 971.88 584.293 972.608 583.528C973.355 582.781 973.728 581.755 973.728 580.448V579.86C973.728 579.636 973.738 579.319 973.756 578.908C973.775 578.479 973.794 578.18 973.812 578.012H973.7C973.178 578.777 972.524 579.347 971.74 579.72C970.975 580.093 970.079 580.28 969.052 580.28C967.111 580.28 965.59 579.599 964.488 578.236C963.406 576.873 962.864 574.969 962.864 572.524C962.864 570.919 963.107 569.537 963.592 568.38C964.096 567.204 964.806 566.299 965.72 565.664C966.635 565.029 967.736 564.712 969.024 564.712ZM969.36 566.784C968.52 566.784 967.802 567.008 967.204 567.456C966.626 567.904 966.178 568.557 965.86 569.416C965.562 570.275 965.412 571.32 965.412 572.552C965.412 574.4 965.748 575.819 966.42 576.808C967.111 577.779 968.11 578.264 969.416 578.264C970.182 578.264 970.835 578.171 971.376 577.984C971.918 577.779 972.366 577.471 972.72 577.06C973.075 576.631 973.336 576.089 973.504 575.436C973.672 574.783 973.756 574.008 973.756 573.112V572.524C973.756 571.161 973.598 570.06 973.28 569.22C972.982 568.38 972.506 567.764 971.852 567.372C971.199 566.98 970.368 566.784 969.36 566.784ZM986.615 564.74C988.444 564.74 989.797 565.141 990.675 565.944C991.552 566.747 991.991 568.025 991.991 569.78V580H990.199L989.723 577.872H989.611C989.181 578.413 988.733 578.871 988.267 579.244C987.819 579.599 987.296 579.86 986.699 580.028C986.12 580.196 985.411 580.28 984.571 580.28C983.675 580.28 982.863 580.121 982.135 579.804C981.425 579.487 980.865 579.001 980.455 578.348C980.044 577.676 979.839 576.836 979.839 575.828C979.839 574.335 980.427 573.187 981.603 572.384C982.779 571.563 984.589 571.115 987.035 571.04L989.583 570.956V570.06C989.583 568.809 989.312 567.941 988.771 567.456C988.229 566.971 987.464 566.728 986.475 566.728C985.691 566.728 984.944 566.849 984.235 567.092C983.525 567.316 982.863 567.577 982.247 567.876L981.491 566.028C982.144 565.673 982.919 565.375 983.815 565.132C984.711 564.871 985.644 564.74 986.615 564.74ZM987.343 572.748C985.476 572.823 984.179 573.121 983.451 573.644C982.741 574.167 982.387 574.904 982.387 575.856C982.387 576.696 982.639 577.312 983.143 577.704C983.665 578.096 984.328 578.292 985.131 578.292C986.4 578.292 987.455 577.947 988.295 577.256C989.135 576.547 989.555 575.464 989.555 574.008V572.664L987.343 572.748ZM1001.64 578.264C1002.01 578.264 1002.39 578.236 1002.79 578.18C1003.18 578.105 1003.5 578.031 1003.74 577.956V579.832C1003.48 579.963 1003.1 580.065 1002.62 580.14C1002.13 580.233 1001.67 580.28 1001.22 580.28C1000.43 580.28 999.706 580.149 999.034 579.888C998.381 579.608 997.849 579.132 997.438 578.46C997.027 577.788 996.822 576.845 996.822 575.632V566.896H994.694V565.72L996.85 564.74L997.83 561.548H999.286V564.992H1003.63V566.896H999.286V575.576C999.286 576.491 999.501 577.172 999.93 577.62C1000.38 578.049 1000.95 578.264 1001.64 578.264ZM1009.21 564.964C1009.21 565.319 1009.19 565.683 1009.15 566.056C1009.13 566.429 1009.1 566.765 1009.07 567.064H1009.24C1009.55 566.541 1009.95 566.112 1010.44 565.776C1010.92 565.44 1011.47 565.188 1012.06 565.02C1012.66 564.833 1013.28 564.74 1013.91 564.74C1015.12 564.74 1016.13 564.936 1016.94 565.328C1017.76 565.701 1018.37 566.289 1018.78 567.092C1019.19 567.895 1019.4 568.94 1019.4 570.228V580H1016.96V570.396C1016.96 569.183 1016.69 568.277 1016.15 567.68C1015.61 567.083 1014.76 566.784 1013.6 566.784C1012.48 566.784 1011.61 566.999 1010.97 567.428C1010.34 567.839 1009.88 568.455 1009.6 569.276C1009.34 570.079 1009.21 571.068 1009.21 572.244V580H1006.74V558.72H1009.21V564.964ZM1029.85 564.712C1031.14 564.712 1032.24 564.992 1033.15 565.552C1034.09 566.112 1034.79 566.905 1035.28 567.932C1035.78 568.94 1036.04 570.125 1036.04 571.488V572.972H1025.76C1025.8 574.671 1026.23 575.968 1027.05 576.864C1027.89 577.741 1029.05 578.18 1030.55 578.18C1031.5 578.18 1032.34 578.096 1033.07 577.928C1033.81 577.741 1034.58 577.48 1035.36 577.144V579.3C1034.6 579.636 1033.84 579.879 1033.1 580.028C1032.35 580.196 1031.46 580.28 1030.44 580.28C1029.02 580.28 1027.76 579.991 1026.66 579.412C1025.57 578.833 1024.72 577.975 1024.11 576.836C1023.51 575.679 1023.21 574.269 1023.21 572.608C1023.21 570.965 1023.48 569.556 1024.02 568.38C1024.58 567.204 1025.36 566.299 1026.35 565.664C1027.36 565.029 1028.52 564.712 1029.85 564.712ZM1029.82 566.728C1028.64 566.728 1027.71 567.111 1027.02 567.876C1026.35 568.623 1025.95 569.668 1025.82 571.012H1033.46C1033.46 570.153 1033.33 569.407 1033.07 568.772C1032.81 568.137 1032.41 567.643 1031.86 567.288C1031.34 566.915 1030.66 566.728 1029.82 566.728ZM1046.86 564.712C1047.14 564.712 1047.44 564.731 1047.75 564.768C1048.09 564.787 1048.38 564.824 1048.62 564.88L1048.31 567.148C1048.07 567.092 1047.8 567.045 1047.5 567.008C1047.22 566.971 1046.95 566.952 1046.69 566.952C1046.11 566.952 1045.56 567.073 1045.04 567.316C1044.51 567.559 1044.05 567.904 1043.64 568.352C1043.23 568.781 1042.9 569.304 1042.66 569.92C1042.43 570.536 1042.32 571.227 1042.32 571.992V580H1039.86V564.992H1041.87L1042.15 567.736H1042.26C1042.58 567.176 1042.96 566.672 1043.41 566.224C1043.86 565.757 1044.37 565.393 1044.95 565.132C1045.53 564.852 1046.17 564.712 1046.86 564.712ZM1056.67 564.712C1057.96 564.712 1059.06 564.992 1059.98 565.552C1060.91 566.112 1061.62 566.905 1062.1 567.932C1062.61 568.94 1062.86 570.125 1062.86 571.488V572.972H1052.58C1052.62 574.671 1053.05 575.968 1053.87 576.864C1054.71 577.741 1055.88 578.18 1057.37 578.18C1058.32 578.18 1059.16 578.096 1059.89 577.928C1060.64 577.741 1061.4 577.48 1062.19 577.144V579.3C1061.42 579.636 1060.67 579.879 1059.92 580.028C1059.17 580.196 1058.29 580.28 1057.26 580.28C1055.84 580.28 1054.58 579.991 1053.48 579.412C1052.4 578.833 1051.55 577.975 1050.93 576.836C1050.33 575.679 1050.04 574.269 1050.04 572.608C1050.04 570.965 1050.31 569.556 1050.85 568.38C1051.41 567.204 1052.18 566.299 1053.17 565.664C1054.18 565.029 1055.35 564.712 1056.67 564.712ZM1056.64 566.728C1055.47 566.728 1054.53 567.111 1053.84 567.876C1053.17 568.623 1052.77 569.668 1052.64 571.012H1060.28C1060.28 570.153 1060.15 569.407 1059.89 568.772C1059.63 568.137 1059.23 567.643 1058.69 567.288C1058.17 566.915 1057.48 566.728 1056.64 566.728ZM1072 580.28C1070.13 580.28 1068.64 579.636 1067.52 578.348C1066.4 577.041 1065.84 575.1 1065.84 572.524C1065.84 569.948 1066.4 568.007 1067.52 566.7C1068.66 565.375 1070.16 564.712 1072.03 564.712C1072.81 564.712 1073.49 564.815 1074.07 565.02C1074.65 565.207 1075.16 565.468 1075.58 565.804C1076.01 566.14 1076.38 566.513 1076.68 566.924H1076.84C1076.83 566.681 1076.79 566.327 1076.73 565.86C1076.7 565.375 1076.68 564.992 1076.68 564.712V558.72H1079.14V580H1077.15L1076.79 577.984H1076.68C1076.38 578.413 1076.01 578.805 1075.58 579.16C1075.16 579.496 1074.64 579.767 1074.04 579.972C1073.47 580.177 1072.78 580.28 1072 580.28ZM1072.39 578.236C1073.98 578.236 1075.09 577.807 1075.72 576.948C1076.38 576.071 1076.7 574.755 1076.7 573V572.552C1076.7 570.685 1076.4 569.257 1075.78 568.268C1075.16 567.26 1074.03 566.756 1072.36 566.756C1071.04 566.756 1070.04 567.288 1069.37 568.352C1068.72 569.397 1068.39 570.807 1068.39 572.58C1068.39 574.372 1068.72 575.763 1069.37 576.752C1070.04 577.741 1071.05 578.236 1072.39 578.236ZM1096.19 578.264C1096.57 578.264 1096.95 578.236 1097.34 578.18C1097.73 578.105 1098.05 578.031 1098.29 577.956V579.832C1098.03 579.963 1097.66 580.065 1097.17 580.14C1096.69 580.233 1096.22 580.28 1095.77 580.28C1094.99 580.28 1094.26 580.149 1093.59 579.888C1092.94 579.608 1092.4 579.132 1091.99 578.46C1091.58 577.788 1091.38 576.845 1091.38 575.632V566.896H1089.25V565.72L1091.4 564.74L1092.38 561.548H1093.84V564.992H1098.18V566.896H1093.84V575.576C1093.84 576.491 1094.06 577.172 1094.48 577.62C1094.93 578.049 1095.5 578.264 1096.19 578.264ZM1103.76 564.964C1103.76 565.319 1103.74 565.683 1103.71 566.056C1103.69 566.429 1103.66 566.765 1103.62 567.064H1103.79C1104.11 566.541 1104.51 566.112 1104.99 565.776C1105.48 565.44 1106.02 565.188 1106.62 565.02C1107.22 564.833 1107.83 564.74 1108.47 564.74C1109.68 564.74 1110.69 564.936 1111.49 565.328C1112.31 565.701 1112.93 566.289 1113.34 567.092C1113.75 567.895 1113.95 568.94 1113.95 570.228V580H1111.52V570.396C1111.52 569.183 1111.25 568.277 1110.71 567.68C1110.16 567.083 1109.32 566.784 1108.16 566.784C1107.04 566.784 1106.16 566.999 1105.53 567.428C1104.89 567.839 1104.43 568.455 1104.15 569.276C1103.89 570.079 1103.76 571.068 1103.76 572.244V580H1101.3V558.72H1103.76V564.964ZM1124.4 564.712C1125.69 564.712 1126.79 564.992 1127.71 565.552C1128.64 566.112 1129.35 566.905 1129.83 567.932C1130.34 568.94 1130.59 570.125 1130.59 571.488V572.972H1120.31C1120.35 574.671 1120.78 575.968 1121.6 576.864C1122.44 577.741 1123.61 578.18 1125.1 578.18C1126.05 578.18 1126.89 578.096 1127.62 577.928C1128.37 577.741 1129.13 577.48 1129.92 577.144V579.3C1129.15 579.636 1128.4 579.879 1127.65 580.028C1126.9 580.196 1126.02 580.28 1124.99 580.28C1123.57 580.28 1122.31 579.991 1121.21 579.412C1120.13 578.833 1119.28 577.975 1118.66 576.836C1118.07 575.679 1117.77 574.269 1117.77 572.608C1117.77 570.965 1118.04 569.556 1118.58 568.38C1119.14 567.204 1119.91 566.299 1120.9 565.664C1121.91 565.029 1123.08 564.712 1124.4 564.712ZM1124.37 566.728C1123.2 566.728 1122.27 567.111 1121.57 567.876C1120.9 568.623 1120.5 569.668 1120.37 571.012H1128.01C1128.01 570.153 1127.88 569.407 1127.62 568.772C1127.36 568.137 1126.96 567.643 1126.42 567.288C1125.9 566.915 1125.21 566.728 1124.37 566.728ZM1147.7 580.28C1146.38 580.28 1145.19 580.009 1144.15 579.468C1143.12 578.927 1142.31 578.087 1141.71 576.948C1141.13 575.809 1140.84 574.353 1140.84 572.58C1140.84 570.732 1141.15 569.229 1141.77 568.072C1142.38 566.915 1143.22 566.065 1144.26 565.524C1145.32 564.983 1146.53 564.712 1147.87 564.712C1148.64 564.712 1149.38 564.796 1150.08 564.964C1150.79 565.113 1151.37 565.3 1151.82 565.524L1151.06 567.568C1150.62 567.4 1150.09 567.241 1149.5 567.092C1148.9 566.943 1148.34 566.868 1147.82 566.868C1146.81 566.868 1145.98 567.083 1145.32 567.512C1144.67 567.941 1144.19 568.576 1143.87 569.416C1143.55 570.256 1143.39 571.301 1143.39 572.552C1143.39 573.747 1143.55 574.764 1143.87 575.604C1144.19 576.444 1144.66 577.079 1145.3 577.508C1145.93 577.937 1146.72 578.152 1147.68 578.152C1148.5 578.152 1149.22 578.068 1149.83 577.9C1150.47 577.732 1151.05 577.527 1151.57 577.284V579.468C1151.06 579.729 1150.5 579.925 1149.89 580.056C1149.29 580.205 1148.56 580.28 1147.7 580.28ZM1168.19 572.468C1168.19 573.719 1168.02 574.829 1167.68 575.8C1167.36 576.752 1166.9 577.564 1166.28 578.236C1165.68 578.908 1164.95 579.421 1164.07 579.776C1163.21 580.112 1162.25 580.28 1161.19 580.28C1160.2 580.28 1159.28 580.112 1158.44 579.776C1157.6 579.421 1156.87 578.908 1156.26 578.236C1155.64 577.564 1155.16 576.752 1154.8 575.8C1154.47 574.829 1154.3 573.719 1154.3 572.468C1154.3 570.807 1154.58 569.407 1155.14 568.268C1155.7 567.111 1156.5 566.233 1157.55 565.636C1158.59 565.02 1159.83 564.712 1161.27 564.712C1162.63 564.712 1163.83 565.02 1164.85 565.636C1165.9 566.233 1166.71 567.111 1167.29 568.268C1167.89 569.407 1168.19 570.807 1168.19 572.468ZM1156.85 572.468C1156.85 573.644 1157 574.671 1157.29 575.548C1157.61 576.407 1158.1 577.069 1158.75 577.536C1159.4 578.003 1160.23 578.236 1161.24 578.236C1162.25 578.236 1163.08 578.003 1163.73 577.536C1164.39 577.069 1164.86 576.407 1165.16 575.548C1165.48 574.671 1165.64 573.644 1165.64 572.468C1165.64 571.273 1165.48 570.256 1165.16 569.416C1164.84 568.576 1164.36 567.932 1163.71 567.484C1163.07 567.017 1162.24 566.784 1161.21 566.784C1159.68 566.784 1158.57 567.288 1157.88 568.296C1157.19 569.304 1156.85 570.695 1156.85 572.468ZM1184.63 564.992V580H1182.62L1182.25 578.012H1182.14C1181.83 578.535 1181.41 578.964 1180.91 579.3C1180.41 579.636 1179.86 579.879 1179.26 580.028C1178.66 580.196 1178.04 580.28 1177.38 580.28C1176.19 580.28 1175.18 580.093 1174.36 579.72C1173.56 579.328 1172.95 578.731 1172.54 577.928C1172.13 577.125 1171.92 576.089 1171.92 574.82V564.992H1174.41V574.652C1174.41 575.847 1174.69 576.743 1175.23 577.34C1175.77 577.937 1176.61 578.236 1177.75 578.236C1178.87 578.236 1179.74 578.031 1180.38 577.62C1181.03 577.191 1181.49 576.575 1181.75 575.772C1182.03 574.951 1182.17 573.961 1182.17 572.804V564.992H1184.63ZM1196.4 564.712C1196.68 564.712 1196.98 564.731 1197.3 564.768C1197.63 564.787 1197.92 564.824 1198.16 564.88L1197.86 567.148C1197.61 567.092 1197.34 567.045 1197.04 567.008C1196.76 566.971 1196.49 566.952 1196.23 566.952C1195.65 566.952 1195.1 567.073 1194.58 567.316C1194.06 567.559 1193.59 567.904 1193.18 568.352C1192.77 568.781 1192.44 569.304 1192.2 569.92C1191.98 570.536 1191.86 571.227 1191.86 571.992V580H1189.4V564.992H1191.42L1191.7 567.736H1191.81C1192.12 567.176 1192.51 566.672 1192.96 566.224C1193.4 565.757 1193.92 565.393 1194.5 565.132C1195.07 564.852 1195.71 564.712 1196.4 564.712ZM1206.1 564.74C1207.93 564.74 1209.29 565.141 1210.16 565.944C1211.04 566.747 1211.48 568.025 1211.48 569.78V580H1209.69L1209.21 577.872H1209.1C1208.67 578.413 1208.22 578.871 1207.76 579.244C1207.31 579.599 1206.78 579.86 1206.19 580.028C1205.61 580.196 1204.9 580.28 1204.06 580.28C1203.16 580.28 1202.35 580.121 1201.62 579.804C1200.91 579.487 1200.35 579.001 1199.94 578.348C1199.53 577.676 1199.33 576.836 1199.33 575.828C1199.33 574.335 1199.92 573.187 1201.09 572.384C1202.27 571.563 1204.08 571.115 1206.52 571.04L1209.07 570.956V570.06C1209.07 568.809 1208.8 567.941 1208.26 567.456C1207.72 566.971 1206.95 566.728 1205.96 566.728C1205.18 566.728 1204.43 566.849 1203.72 567.092C1203.01 567.316 1202.35 567.577 1201.74 567.876L1200.98 566.028C1201.63 565.673 1202.41 565.375 1203.3 565.132C1204.2 564.871 1205.13 564.74 1206.1 564.74ZM1206.83 572.748C1204.96 572.823 1203.67 573.121 1202.94 573.644C1202.23 574.167 1201.88 574.904 1201.88 575.856C1201.88 576.696 1202.13 577.312 1202.63 577.704C1203.15 578.096 1203.82 578.292 1204.62 578.292C1205.89 578.292 1206.94 577.947 1207.78 577.256C1208.62 576.547 1209.04 575.464 1209.04 574.008V572.664L1206.83 572.748ZM1221.43 564.712C1222.42 564.712 1223.31 564.899 1224.09 565.272C1224.9 565.645 1225.58 566.215 1226.14 566.98H1226.28L1226.61 564.992H1228.57V580.252C1228.57 581.671 1228.33 582.856 1227.85 583.808C1227.36 584.779 1226.62 585.507 1225.63 585.992C1224.65 586.477 1223.39 586.72 1221.85 586.72C1220.77 586.72 1219.77 586.636 1218.86 586.468C1217.96 586.319 1217.16 586.085 1216.45 585.768V583.5C1216.94 583.743 1217.47 583.948 1218.05 584.116C1218.63 584.303 1219.25 584.443 1219.92 584.536C1220.59 584.629 1221.29 584.676 1221.99 584.676C1223.28 584.676 1224.29 584.293 1225.02 583.528C1225.77 582.781 1226.14 581.755 1226.14 580.448V579.86C1226.14 579.636 1226.15 579.319 1226.17 578.908C1226.19 578.479 1226.2 578.18 1226.22 578.012H1226.11C1225.59 578.777 1224.93 579.347 1224.15 579.72C1223.39 580.093 1222.49 580.28 1221.46 580.28C1219.52 580.28 1218 579.599 1216.9 578.236C1215.82 576.873 1215.27 574.969 1215.27 572.524C1215.27 570.919 1215.52 569.537 1216 568.38C1216.51 567.204 1217.22 566.299 1218.13 565.664C1219.05 565.029 1220.15 564.712 1221.43 564.712ZM1221.77 566.784C1220.93 566.784 1220.21 567.008 1219.61 567.456C1219.04 567.904 1218.59 568.557 1218.27 569.416C1217.97 570.275 1217.82 571.32 1217.82 572.552C1217.82 574.4 1218.16 575.819 1218.83 576.808C1219.52 577.779 1220.52 578.264 1221.83 578.264C1222.59 578.264 1223.25 578.171 1223.79 577.984C1224.33 577.779 1224.78 577.471 1225.13 577.06C1225.49 576.631 1225.75 576.089 1225.91 575.436C1226.08 574.783 1226.17 574.008 1226.17 573.112V572.524C1226.17 571.161 1226.01 570.06 1225.69 569.22C1225.39 568.38 1224.92 567.764 1224.26 567.372C1223.61 566.98 1222.78 566.784 1221.77 566.784ZM1239.14 564.712C1240.42 564.712 1241.53 564.992 1242.44 565.552C1243.37 566.112 1244.08 566.905 1244.57 567.932C1245.07 568.94 1245.32 570.125 1245.32 571.488V572.972H1235.05C1235.09 574.671 1235.52 575.968 1236.34 576.864C1237.18 577.741 1238.34 578.18 1239.84 578.18C1240.79 578.18 1241.63 578.096 1242.36 577.928C1243.1 577.741 1243.87 577.48 1244.65 577.144V579.3C1243.89 579.636 1243.13 579.879 1242.38 580.028C1241.64 580.196 1240.75 580.28 1239.72 580.28C1238.31 580.28 1237.05 579.991 1235.94 579.412C1234.86 578.833 1234.01 577.975 1233.4 576.836C1232.8 575.679 1232.5 574.269 1232.5 572.608C1232.5 570.965 1232.77 569.556 1233.31 568.38C1233.87 567.204 1234.65 566.299 1235.64 565.664C1236.64 565.029 1237.81 564.712 1239.14 564.712ZM1239.11 566.728C1237.93 566.728 1237 567.111 1236.31 567.876C1235.64 568.623 1235.24 569.668 1235.1 571.012H1242.75C1242.75 570.153 1242.62 569.407 1242.36 568.772C1242.1 568.137 1241.69 567.643 1241.15 567.288C1240.63 566.915 1239.95 566.728 1239.11 566.728ZM1261.43 578.264C1261.8 578.264 1262.19 578.236 1262.58 578.18C1262.97 578.105 1263.29 578.031 1263.53 577.956V579.832C1263.27 579.963 1262.9 580.065 1262.41 580.14C1261.93 580.233 1261.46 580.28 1261.01 580.28C1260.23 580.28 1259.5 580.149 1258.83 579.888C1258.17 579.608 1257.64 579.132 1257.23 578.46C1256.82 577.788 1256.62 576.845 1256.62 575.632V566.896H1254.49V565.72L1256.64 564.74L1257.62 561.548H1259.08V564.992H1263.42V566.896H1259.08V575.576C1259.08 576.491 1259.29 577.172 1259.72 577.62C1260.17 578.049 1260.74 578.264 1261.43 578.264ZM1279.58 572.468C1279.58 573.719 1279.42 574.829 1279.08 575.8C1278.76 576.752 1278.3 577.564 1277.68 578.236C1277.08 578.908 1276.35 579.421 1275.47 579.776C1274.61 580.112 1273.65 580.28 1272.58 580.28C1271.59 580.28 1270.68 580.112 1269.84 579.776C1269 579.421 1268.27 578.908 1267.66 578.236C1267.04 577.564 1266.55 576.752 1266.2 575.8C1265.86 574.829 1265.7 573.719 1265.7 572.468C1265.7 570.807 1265.98 569.407 1266.54 568.268C1267.1 567.111 1267.9 566.233 1268.94 565.636C1269.99 565.02 1271.23 564.712 1272.67 564.712C1274.03 564.712 1275.23 565.02 1276.25 565.636C1277.3 566.233 1278.11 567.111 1278.69 568.268C1279.29 569.407 1279.58 570.807 1279.58 572.468ZM1268.24 572.468C1268.24 573.644 1268.39 574.671 1268.69 575.548C1269.01 576.407 1269.49 577.069 1270.15 577.536C1270.8 578.003 1271.63 578.236 1272.64 578.236C1273.65 578.236 1274.48 578.003 1275.13 577.536C1275.79 577.069 1276.26 576.407 1276.56 575.548C1276.88 574.671 1277.04 573.644 1277.04 572.468C1277.04 571.273 1276.88 570.256 1276.56 569.416C1276.24 568.576 1275.76 567.932 1275.1 567.484C1274.47 567.017 1273.64 566.784 1272.61 566.784C1271.08 566.784 1269.97 567.288 1269.28 568.296C1268.59 569.304 1268.24 570.695 1268.24 572.468ZM1300.53 575.856C1300.53 576.827 1300.29 577.639 1299.81 578.292C1299.32 578.945 1298.63 579.44 1297.73 579.776C1296.84 580.112 1295.77 580.28 1294.54 580.28C1293.5 580.28 1292.59 580.196 1291.83 580.028C1291.08 579.86 1290.42 579.627 1289.84 579.328V577.088C1290.44 577.387 1291.15 577.667 1291.99 577.928C1292.85 578.171 1293.72 578.292 1294.6 578.292C1295.85 578.292 1296.75 578.096 1297.31 577.704C1297.87 577.293 1298.15 576.752 1298.15 576.08C1298.15 575.707 1298.05 575.371 1297.85 575.072C1297.64 574.773 1297.27 574.475 1296.73 574.176C1296.2 573.877 1295.45 573.541 1294.46 573.168C1293.49 572.795 1292.66 572.421 1291.97 572.048C1291.28 571.675 1290.74 571.227 1290.37 570.704C1290 570.181 1289.81 569.509 1289.81 568.688C1289.81 567.419 1290.32 566.439 1291.35 565.748C1292.4 565.057 1293.76 564.712 1295.44 564.712C1296.35 564.712 1297.2 564.805 1297.99 564.992C1298.79 565.16 1299.54 565.403 1300.23 565.72L1299.39 567.68C1298.98 567.493 1298.54 567.335 1298.07 567.204C1297.62 567.055 1297.17 566.943 1296.7 566.868C1296.23 566.775 1295.76 566.728 1295.27 566.728C1294.26 566.728 1293.49 566.896 1292.95 567.232C1292.42 567.549 1292.16 567.988 1292.16 568.548C1292.16 568.959 1292.28 569.313 1292.53 569.612C1292.77 569.892 1293.17 570.172 1293.73 570.452C1294.31 570.713 1295.07 571.031 1296.03 571.404C1296.98 571.759 1297.79 572.123 1298.46 572.496C1299.13 572.869 1299.65 573.327 1300 573.868C1300.36 574.391 1300.53 575.053 1300.53 575.856ZM1311.3 564.712C1313.15 564.712 1314.63 565.356 1315.75 566.644C1316.89 567.932 1317.46 569.873 1317.46 572.468C1317.46 574.167 1317.2 575.604 1316.68 576.78C1316.17 577.937 1315.45 578.815 1314.52 579.412C1313.61 579.991 1312.52 580.28 1311.27 580.28C1310.51 580.28 1309.83 580.177 1309.23 579.972C1308.63 579.767 1308.12 579.505 1307.69 579.188C1307.28 578.852 1306.92 578.488 1306.63 578.096H1306.46C1306.49 578.413 1306.53 578.815 1306.57 579.3C1306.61 579.785 1306.63 580.205 1306.63 580.56V586.72H1304.16V564.992H1306.18L1306.51 567.036H1306.63C1306.92 566.607 1307.28 566.215 1307.69 565.86C1308.12 565.505 1308.62 565.225 1309.2 565.02C1309.8 564.815 1310.5 564.712 1311.3 564.712ZM1310.85 566.784C1309.85 566.784 1309.03 566.98 1308.42 567.372C1307.8 567.745 1307.35 568.315 1307.07 569.08C1306.79 569.845 1306.64 570.816 1306.63 571.992V572.468C1306.63 573.7 1306.76 574.745 1307.02 575.604C1307.28 576.463 1307.72 577.116 1308.33 577.564C1308.97 578.012 1309.83 578.236 1310.91 578.236C1311.82 578.236 1312.57 577.984 1313.15 577.48C1313.75 576.976 1314.19 576.295 1314.47 575.436C1314.76 574.559 1314.91 573.56 1314.91 572.44C1314.91 570.723 1314.58 569.351 1313.91 568.324C1313.25 567.297 1312.23 566.784 1310.85 566.784ZM1327.18 564.712C1328.47 564.712 1329.57 564.992 1330.49 565.552C1331.42 566.112 1332.13 566.905 1332.62 567.932C1333.12 568.94 1333.37 570.125 1333.37 571.488V572.972H1323.1C1323.13 574.671 1323.56 575.968 1324.38 576.864C1325.22 577.741 1326.39 578.18 1327.88 578.18C1328.84 578.18 1329.68 578.096 1330.4 577.928C1331.15 577.741 1331.92 577.48 1332.7 577.144V579.3C1331.93 579.636 1331.18 579.879 1330.43 580.028C1329.69 580.196 1328.8 580.28 1327.77 580.28C1326.35 580.28 1325.09 579.991 1323.99 579.412C1322.91 578.833 1322.06 577.975 1321.44 576.836C1320.85 575.679 1320.55 574.269 1320.55 572.608C1320.55 570.965 1320.82 569.556 1321.36 568.38C1321.92 567.204 1322.69 566.299 1323.68 565.664C1324.69 565.029 1325.86 564.712 1327.18 564.712ZM1327.16 566.728C1325.98 566.728 1325.05 567.111 1324.36 567.876C1323.68 568.623 1323.28 569.668 1323.15 571.012H1330.8C1330.8 570.153 1330.67 569.407 1330.4 568.772C1330.14 568.137 1329.74 567.643 1329.2 567.288C1328.68 566.915 1328 566.728 1327.16 566.728ZM1342.88 564.74C1344.71 564.74 1346.06 565.141 1346.94 565.944C1347.81 566.747 1348.25 568.025 1348.25 569.78V580H1346.46L1345.98 577.872H1345.87C1345.44 578.413 1345 578.871 1344.53 579.244C1344.08 579.599 1343.56 579.86 1342.96 580.028C1342.38 580.196 1341.67 580.28 1340.83 580.28C1339.94 580.28 1339.12 580.121 1338.4 579.804C1337.69 579.487 1337.13 579.001 1336.72 578.348C1336.31 577.676 1336.1 576.836 1336.1 575.828C1336.1 574.335 1336.69 573.187 1337.86 572.384C1339.04 571.563 1340.85 571.115 1343.3 571.04L1345.84 570.956V570.06C1345.84 568.809 1345.57 567.941 1345.03 567.456C1344.49 566.971 1343.73 566.728 1342.74 566.728C1341.95 566.728 1341.21 566.849 1340.5 567.092C1339.79 567.316 1339.12 567.577 1338.51 567.876L1337.75 566.028C1338.41 565.673 1339.18 565.375 1340.08 565.132C1340.97 564.871 1341.91 564.74 1342.88 564.74ZM1343.6 572.748C1341.74 572.823 1340.44 573.121 1339.71 573.644C1339 574.167 1338.65 574.904 1338.65 575.856C1338.65 576.696 1338.9 577.312 1339.4 577.704C1339.93 578.096 1340.59 578.292 1341.39 578.292C1342.66 578.292 1343.72 577.947 1344.56 577.256C1345.4 576.547 1345.82 575.464 1345.82 574.008V572.664L1343.6 572.748ZM1355.32 569.836C1355.32 570.135 1355.31 570.527 1355.27 571.012C1355.25 571.497 1355.23 571.917 1355.21 572.272H1355.32C1355.44 572.123 1355.6 571.908 1355.83 571.628C1356.05 571.348 1356.28 571.068 1356.5 570.788C1356.74 570.489 1356.95 570.247 1357.12 570.06L1361.9 564.992H1364.79L1358.71 571.404L1365.21 580H1362.24L1357.03 573L1355.32 574.484V580H1352.89V558.72H1355.32V569.836ZM1387.66 564.992V580H1385.65L1385.28 578.012H1385.17C1384.85 578.535 1384.44 578.964 1383.94 579.3C1383.43 579.636 1382.88 579.879 1382.29 580.028C1381.69 580.196 1381.06 580.28 1380.41 580.28C1379.22 580.28 1378.21 580.093 1377.39 579.72C1376.58 579.328 1375.98 578.731 1375.57 577.928C1375.16 577.125 1374.95 576.089 1374.95 574.82V564.992H1377.44V574.652C1377.44 575.847 1377.71 576.743 1378.25 577.34C1378.8 577.937 1379.64 578.236 1380.77 578.236C1381.89 578.236 1382.77 578.031 1383.41 577.62C1384.06 577.191 1384.52 576.575 1384.78 575.772C1385.06 574.951 1385.2 573.961 1385.2 572.804V564.992H1387.66ZM1399.57 564.712C1401.41 564.712 1402.9 565.356 1404.02 566.644C1405.16 567.932 1405.73 569.873 1405.73 572.468C1405.73 574.167 1405.47 575.604 1404.94 576.78C1404.44 577.937 1403.72 578.815 1402.79 579.412C1401.87 579.991 1400.79 580.28 1399.54 580.28C1398.77 580.28 1398.09 580.177 1397.49 579.972C1396.9 579.767 1396.38 579.505 1395.95 579.188C1395.54 578.852 1395.19 578.488 1394.89 578.096H1394.72C1394.76 578.413 1394.8 578.815 1394.83 579.3C1394.87 579.785 1394.89 580.205 1394.89 580.56V586.72H1392.43V564.992H1394.44L1394.78 567.036H1394.89C1395.19 566.607 1395.54 566.215 1395.95 565.86C1396.38 565.505 1396.89 565.225 1397.47 565.02C1398.06 564.815 1398.76 564.712 1399.57 564.712ZM1399.12 566.784C1398.11 566.784 1397.3 566.98 1396.68 567.372C1396.07 567.745 1395.62 568.315 1395.34 569.08C1395.06 569.845 1394.91 570.816 1394.89 571.992V572.468C1394.89 573.7 1395.02 574.745 1395.28 575.604C1395.54 576.463 1395.98 577.116 1396.6 577.564C1397.23 578.012 1398.09 578.236 1399.17 578.236C1400.09 578.236 1400.84 577.984 1401.41 577.48C1402.01 576.976 1402.45 576.295 1402.73 575.436C1403.03 574.559 1403.18 573.56 1403.18 572.44C1403.18 570.723 1402.84 569.351 1402.17 568.324C1401.52 567.297 1400.5 566.784 1399.12 566.784ZM1422.61 564.74C1424.44 564.74 1425.79 565.141 1426.67 565.944C1427.55 566.747 1427.99 568.025 1427.99 569.78V580H1426.19L1425.72 577.872H1425.61C1425.18 578.413 1424.73 578.871 1424.26 579.244C1423.81 579.599 1423.29 579.86 1422.69 580.028C1422.12 580.196 1421.41 580.28 1420.57 580.28C1419.67 580.28 1418.86 580.121 1418.13 579.804C1417.42 579.487 1416.86 579.001 1416.45 578.348C1416.04 577.676 1415.83 576.836 1415.83 575.828C1415.83 574.335 1416.42 573.187 1417.6 572.384C1418.77 571.563 1420.59 571.115 1423.03 571.04L1425.58 570.956V570.06C1425.58 568.809 1425.31 567.941 1424.77 567.456C1424.23 566.971 1423.46 566.728 1422.47 566.728C1421.69 566.728 1420.94 566.849 1420.23 567.092C1419.52 567.316 1418.86 567.577 1418.24 567.876L1417.49 566.028C1418.14 565.673 1418.91 565.375 1419.81 565.132C1420.71 564.871 1421.64 564.74 1422.61 564.74ZM1423.34 572.748C1421.47 572.823 1420.17 573.121 1419.45 573.644C1418.74 574.167 1418.38 574.904 1418.38 575.856C1418.38 576.696 1418.63 577.312 1419.14 577.704C1419.66 578.096 1420.32 578.292 1421.13 578.292C1422.4 578.292 1423.45 577.947 1424.29 577.256C1425.13 576.547 1425.55 575.464 1425.55 574.008V572.664L1423.34 572.748ZM1435.09 563.9C1435.09 564.535 1435.07 565.132 1435.03 565.692C1435.01 566.233 1434.98 566.663 1434.95 566.98H1435.09C1435.52 566.345 1436.1 565.813 1436.85 565.384C1437.6 564.955 1438.56 564.74 1439.73 564.74C1441.6 564.74 1443.09 565.393 1444.21 566.7C1445.35 567.988 1445.92 569.92 1445.92 572.496C1445.92 574.213 1445.66 575.651 1445.14 576.808C1444.63 577.965 1443.92 578.833 1442.98 579.412C1442.05 579.991 1440.97 580.28 1439.73 580.28C1438.56 580.28 1437.6 580.065 1436.85 579.636C1436.1 579.207 1435.52 578.693 1435.09 578.096H1434.89L1434.39 580H1432.62V558.72H1435.09V563.9ZM1439.31 566.784C1438.25 566.784 1437.41 566.989 1436.79 567.4C1436.18 567.792 1435.74 568.408 1435.48 569.248C1435.22 570.069 1435.09 571.124 1435.09 572.412V572.524C1435.09 574.372 1435.38 575.791 1435.98 576.78C1436.6 577.751 1437.73 578.236 1439.37 578.236C1440.71 578.236 1441.71 577.741 1442.37 576.752C1443.04 575.763 1443.37 574.335 1443.37 572.468C1443.37 570.583 1443.04 569.164 1442.37 568.212C1441.71 567.26 1440.7 566.784 1439.31 566.784ZM1462.9 572.468C1462.9 573.719 1462.73 574.829 1462.39 575.8C1462.08 576.752 1461.61 577.564 1460.99 578.236C1460.4 578.908 1459.66 579.421 1458.78 579.776C1457.92 580.112 1456.96 580.28 1455.9 580.28C1454.91 580.28 1453.99 580.112 1453.15 579.776C1452.31 579.421 1451.58 578.908 1450.97 578.236C1450.35 577.564 1449.87 576.752 1449.51 575.8C1449.18 574.829 1449.01 573.719 1449.01 572.468C1449.01 570.807 1449.29 569.407 1449.85 568.268C1450.41 567.111 1451.21 566.233 1452.26 565.636C1453.3 565.02 1454.54 564.712 1455.98 564.712C1457.34 564.712 1458.54 565.02 1459.56 565.636C1460.61 566.233 1461.42 567.111 1462 568.268C1462.6 569.407 1462.9 570.807 1462.9 572.468ZM1451.56 572.468C1451.56 573.644 1451.71 574.671 1452 575.548C1452.32 576.407 1452.81 577.069 1453.46 577.536C1454.11 578.003 1454.94 578.236 1455.95 578.236C1456.96 578.236 1457.79 578.003 1458.44 577.536C1459.1 577.069 1459.57 576.407 1459.87 575.548C1460.19 574.671 1460.35 573.644 1460.35 572.468C1460.35 571.273 1460.19 570.256 1459.87 569.416C1459.56 568.576 1459.07 567.932 1458.42 567.484C1457.78 567.017 1456.95 566.784 1455.92 566.784C1454.39 566.784 1453.28 567.288 1452.59 568.296C1451.9 569.304 1451.56 570.695 1451.56 572.468ZM1479.35 564.992V580H1477.33L1476.97 578.012H1476.85C1476.54 578.535 1476.13 578.964 1475.62 579.3C1475.12 579.636 1474.57 579.879 1473.97 580.028C1473.37 580.196 1472.75 580.28 1472.09 580.28C1470.9 580.28 1469.89 580.093 1469.07 579.72C1468.27 579.328 1467.66 578.731 1467.25 577.928C1466.84 577.125 1466.63 576.089 1466.63 574.82V564.992H1469.13V574.652C1469.13 575.847 1469.4 576.743 1469.94 577.34C1470.48 577.937 1471.32 578.236 1472.46 578.236C1473.58 578.236 1474.46 578.031 1475.09 577.62C1475.74 577.191 1476.2 576.575 1476.46 575.772C1476.74 574.951 1476.88 573.961 1476.88 572.804V564.992H1479.35ZM1489.12 578.264C1489.5 578.264 1489.88 578.236 1490.27 578.18C1490.66 578.105 1490.98 578.031 1491.22 577.956V579.832C1490.96 579.963 1490.59 580.065 1490.1 580.14C1489.62 580.233 1489.15 580.28 1488.7 580.28C1487.92 580.28 1487.19 580.149 1486.52 579.888C1485.87 579.608 1485.33 579.132 1484.92 578.46C1484.51 577.788 1484.31 576.845 1484.31 575.632V566.896H1482.18V565.72L1484.33 564.74L1485.31 561.548H1486.77V564.992H1491.11V566.896H1486.77V575.576C1486.77 576.491 1486.99 577.172 1487.41 577.62C1487.86 578.049 1488.43 578.264 1489.12 578.264ZM1503.97 564.992V580H1501.5V564.992H1503.97ZM1502.76 559.364C1503.13 559.364 1503.46 559.495 1503.74 559.756C1504.04 559.999 1504.19 560.391 1504.19 560.932C1504.19 561.455 1504.04 561.847 1503.74 562.108C1503.46 562.369 1503.13 562.5 1502.76 562.5C1502.35 562.5 1502.01 562.369 1501.73 562.108C1501.45 561.847 1501.31 561.455 1501.31 560.932C1501.31 560.391 1501.45 559.999 1501.73 559.756C1502.01 559.495 1502.35 559.364 1502.76 559.364ZM1513.73 578.264C1514.11 578.264 1514.49 578.236 1514.88 578.18C1515.27 578.105 1515.59 578.031 1515.83 577.956V579.832C1515.57 579.963 1515.2 580.065 1514.71 580.14C1514.23 580.233 1513.76 580.28 1513.31 580.28C1512.53 580.28 1511.8 580.149 1511.13 579.888C1510.47 579.608 1509.94 579.132 1509.53 578.46C1509.12 577.788 1508.92 576.845 1508.92 575.632V566.896H1506.79V565.72L1508.94 564.74L1509.92 561.548H1511.38V564.992H1515.72V566.896H1511.38V575.576C1511.38 576.491 1511.59 577.172 1512.02 577.62C1512.47 578.049 1513.04 578.264 1513.73 578.264ZM1518.47 578.488C1518.47 577.797 1518.64 577.312 1518.98 577.032C1519.31 576.752 1519.71 576.612 1520.18 576.612C1520.67 576.612 1521.08 576.752 1521.41 577.032C1521.77 577.312 1521.95 577.797 1521.95 578.488C1521.95 579.16 1521.77 579.645 1521.41 579.944C1521.08 580.243 1520.67 580.392 1520.18 580.392C1519.71 580.392 1519.31 580.243 1518.98 579.944C1518.64 579.645 1518.47 579.16 1518.47 578.488Z" fill="#F2F2F2"/>
<path d="M1364.78 1026.92C1364.78 1028.49 1364.48 1029.8 1363.89 1030.86C1363.3 1031.9 1362.45 1032.68 1361.34 1033.21C1360.24 1033.74 1358.91 1034 1357.36 1034H1353.4V1020.2H1357.74C1359.98 1020.2 1361.71 1020.78 1362.93 1021.93C1364.16 1023.08 1364.78 1024.74 1364.78 1026.92ZM1362.18 1026.99C1362.18 1025.41 1361.8 1024.22 1361.03 1023.44C1360.28 1022.64 1359.17 1022.24 1357.7 1022.24H1355.9V1031.96H1357.43C1359.03 1031.96 1360.22 1031.55 1361.01 1030.74C1361.79 1029.9 1362.18 1028.66 1362.18 1026.99ZM1367.63 1020.2H1375.67V1022.19H1370.12V1025.84H1375.31V1027.83H1370.12V1032.01H1375.67V1034H1367.63V1020.2ZM1386.95 1030.14C1386.95 1030.92 1386.75 1031.62 1386.35 1032.25C1385.95 1032.86 1385.37 1033.34 1384.6 1033.69C1383.83 1034.02 1382.9 1034.19 1381.81 1034.19C1381.24 1034.19 1380.7 1034.16 1380.21 1034.1C1379.73 1034.05 1379.29 1033.98 1378.89 1033.88C1378.49 1033.77 1378.09 1033.63 1377.71 1033.47V1031.22C1378.33 1031.5 1379.01 1031.74 1379.73 1031.91C1380.45 1032.09 1381.16 1032.18 1381.86 1032.18C1382.66 1032.18 1383.29 1032.02 1383.76 1031.7C1384.22 1031.36 1384.45 1030.9 1384.45 1030.33C1384.45 1029.91 1384.33 1029.57 1384.09 1029.3C1383.87 1029.02 1383.53 1028.78 1383.06 1028.55C1382.61 1028.33 1382.06 1028.1 1381.41 1027.86C1380.7 1027.57 1380.08 1027.26 1379.53 1026.94C1379.01 1026.61 1378.59 1026.19 1378.29 1025.7C1378 1025.2 1377.85 1024.58 1377.85 1023.82C1377.85 1022.99 1378.06 1022.3 1378.48 1021.74C1378.89 1021.18 1379.46 1020.75 1380.18 1020.46C1380.92 1020.16 1381.76 1020.01 1382.7 1020.01C1383.47 1020.01 1384.19 1020.1 1384.86 1020.27C1385.55 1020.43 1386.19 1020.64 1386.78 1020.9L1385.99 1022.82C1385.4 1022.56 1384.82 1022.36 1384.26 1022.22C1383.7 1022.07 1383.16 1022 1382.63 1022C1381.91 1022 1381.34 1022.15 1380.93 1022.46C1380.53 1022.76 1380.33 1023.18 1380.33 1023.73C1380.33 1024.13 1380.44 1024.46 1380.66 1024.74C1380.89 1025.01 1381.22 1025.25 1381.67 1025.46C1382.13 1025.66 1382.69 1025.9 1383.35 1026.15C1384.07 1026.44 1384.7 1026.75 1385.25 1027.09C1385.79 1027.42 1386.21 1027.83 1386.49 1028.31C1386.8 1028.78 1386.95 1029.38 1386.95 1030.14ZM1388.58 1034V1032.58L1390.21 1032.1V1022.1L1388.58 1021.64V1020.2H1394.34V1021.64L1392.71 1022.1V1032.1L1394.34 1032.58V1034H1388.58ZM1408.06 1033.35C1407.36 1033.61 1406.58 1033.82 1405.73 1033.98C1404.9 1034.12 1404 1034.19 1403.04 1034.19C1401.64 1034.19 1400.42 1033.93 1399.4 1033.4C1398.39 1032.86 1397.61 1032.06 1397.07 1031C1396.54 1029.94 1396.28 1028.65 1396.28 1027.11C1396.28 1025.7 1396.55 1024.47 1397.09 1023.42C1397.65 1022.36 1398.48 1021.53 1399.56 1020.92C1400.65 1020.31 1401.98 1020.01 1403.55 1020.01C1404.36 1020.01 1405.14 1020.09 1405.88 1020.25C1406.61 1020.39 1407.28 1020.6 1407.87 1020.87L1407.03 1022.84C1406.5 1022.58 1405.94 1022.39 1405.35 1022.26C1404.77 1022.14 1404.17 1022.07 1403.55 1022.07C1402.52 1022.07 1401.66 1022.29 1400.96 1022.72C1400.27 1023.14 1399.75 1023.73 1399.4 1024.5C1399.04 1025.25 1398.87 1026.12 1398.87 1027.11C1398.87 1028.74 1399.24 1029.99 1400 1030.86C1400.75 1031.72 1401.87 1032.15 1403.36 1032.15C1403.79 1032.15 1404.2 1032.12 1404.6 1032.06C1405.02 1031.99 1405.37 1031.91 1405.66 1031.82V1028.46H1402.44V1026.46H1408.06V1033.35ZM1423.15 1020.2V1034H1420.05L1413.43 1023.13H1413.33C1413.35 1023.32 1413.36 1023.56 1413.38 1023.85C1413.4 1024.14 1413.41 1024.44 1413.43 1024.76C1413.44 1025.08 1413.45 1025.4 1413.45 1025.72C1413.47 1026.04 1413.48 1026.34 1413.48 1026.61V1034H1411.24V1020.2H1414.36L1420.96 1031H1421.04C1421.02 1030.82 1421 1030.61 1420.99 1030.35C1420.97 1030.1 1420.96 1029.82 1420.94 1029.51C1420.94 1029.21 1420.93 1028.9 1420.92 1028.6C1420.92 1028.28 1420.92 1027.97 1420.92 1027.66V1020.2H1423.15ZM1425.73 1034V1032.58L1427.36 1032.1V1022.1L1425.73 1021.64V1020.2H1431.49V1021.64L1429.86 1022.1V1032.1L1431.49 1032.58V1034H1425.73ZM1445.95 1020.2V1034H1442.86L1436.23 1023.13H1436.14C1436.15 1023.32 1436.17 1023.56 1436.18 1023.85C1436.2 1024.14 1436.22 1024.44 1436.23 1024.76C1436.25 1025.08 1436.26 1025.4 1436.26 1025.72C1436.27 1026.04 1436.28 1026.34 1436.28 1026.61V1034H1434.05V1020.2H1437.17L1443.77 1031H1443.84C1443.82 1030.82 1443.81 1030.61 1443.79 1030.35C1443.78 1030.1 1443.76 1029.82 1443.74 1029.51C1443.74 1029.21 1443.74 1028.9 1443.72 1028.6C1443.72 1028.28 1443.72 1027.97 1443.72 1027.66V1020.2H1445.95ZM1460.63 1033.35C1459.93 1033.61 1459.15 1033.82 1458.3 1033.98C1457.47 1034.12 1456.57 1034.19 1455.61 1034.19C1454.21 1034.19 1452.99 1033.93 1451.97 1033.4C1450.96 1032.86 1450.18 1032.06 1449.64 1031C1449.11 1029.94 1448.85 1028.65 1448.85 1027.11C1448.85 1025.7 1449.12 1024.47 1449.66 1023.42C1450.22 1022.36 1451.05 1021.53 1452.13 1020.92C1453.22 1020.31 1454.55 1020.01 1456.12 1020.01C1456.93 1020.01 1457.71 1020.09 1458.45 1020.25C1459.18 1020.39 1459.85 1020.6 1460.44 1020.87L1459.6 1022.84C1459.07 1022.58 1458.51 1022.39 1457.92 1022.26C1457.34 1022.14 1456.74 1022.07 1456.12 1022.07C1455.09 1022.07 1454.23 1022.29 1453.53 1022.72C1452.84 1023.14 1452.32 1023.73 1451.97 1024.5C1451.61 1025.25 1451.44 1026.12 1451.44 1027.11C1451.44 1028.74 1451.81 1029.99 1452.57 1030.86C1453.32 1031.72 1454.44 1032.15 1455.93 1032.15C1456.36 1032.15 1456.77 1032.12 1457.17 1032.06C1457.59 1031.99 1457.94 1031.91 1458.23 1031.82V1028.46H1455.01V1026.46H1460.63V1033.35ZM1474.03 1020.2C1475.87 1020.2 1477.24 1020.54 1478.14 1021.21C1479.05 1021.88 1479.5 1022.87 1479.5 1024.18C1479.5 1025.08 1479.28 1025.84 1478.83 1026.46C1478.38 1027.09 1477.71 1027.57 1476.82 1027.9L1480.75 1034H1477.94L1474.66 1028.53H1472.54V1034H1470.05V1020.2H1474.03ZM1474.13 1026.58C1475.04 1026.58 1475.74 1026.41 1476.22 1026.06C1476.71 1025.69 1476.96 1025.11 1476.96 1024.33C1476.96 1023.54 1476.71 1022.99 1476.22 1022.67C1475.72 1022.34 1474.98 1022.17 1473.98 1022.17H1472.54V1026.58H1474.13ZM1482.66 1020.2H1490.7V1022.19H1485.15V1025.84H1490.34V1027.83H1485.15V1032.01H1490.7V1034H1482.66V1020.2ZM1501.98 1030.14C1501.98 1030.92 1501.78 1031.62 1501.38 1032.25C1500.98 1032.86 1500.4 1033.34 1499.63 1033.69C1498.86 1034.02 1497.93 1034.19 1496.85 1034.19C1496.27 1034.19 1495.73 1034.16 1495.24 1034.1C1494.76 1034.05 1494.32 1033.98 1493.92 1033.88C1493.52 1033.77 1493.13 1033.63 1492.74 1033.47V1031.22C1493.37 1031.5 1494.04 1031.74 1494.76 1031.91C1495.48 1032.09 1496.19 1032.18 1496.89 1032.18C1497.69 1032.18 1498.33 1032.02 1498.79 1031.7C1499.25 1031.36 1499.49 1030.9 1499.49 1030.33C1499.49 1029.91 1499.37 1029.57 1499.13 1029.3C1498.9 1029.02 1498.56 1028.78 1498.09 1028.55C1497.65 1028.33 1497.09 1028.1 1496.44 1027.86C1495.73 1027.57 1495.11 1027.26 1494.57 1026.94C1494.04 1026.61 1493.62 1026.19 1493.32 1025.7C1493.03 1025.2 1492.89 1024.58 1492.89 1023.82C1492.89 1022.99 1493.09 1022.3 1493.51 1021.74C1493.93 1021.18 1494.49 1020.75 1495.21 1020.46C1495.95 1020.16 1496.79 1020.01 1497.73 1020.01C1498.5 1020.01 1499.22 1020.1 1499.89 1020.27C1500.58 1020.43 1501.22 1020.64 1501.81 1020.9L1501.02 1022.82C1500.43 1022.56 1499.85 1022.36 1499.29 1022.22C1498.73 1022.07 1498.19 1022 1497.66 1022C1496.94 1022 1496.37 1022.15 1495.96 1022.46C1495.56 1022.76 1495.36 1023.18 1495.36 1023.73C1495.36 1024.13 1495.47 1024.46 1495.69 1024.74C1495.92 1025.01 1496.25 1025.25 1496.7 1025.46C1497.17 1025.66 1497.73 1025.9 1498.38 1026.15C1499.1 1026.44 1499.73 1026.75 1500.28 1027.09C1500.82 1027.42 1501.24 1027.83 1501.53 1028.31C1501.83 1028.78 1501.98 1029.38 1501.98 1030.14ZM1508.75 1020.2C1510.51 1020.2 1511.81 1020.56 1512.66 1021.28C1513.52 1022 1513.96 1023.04 1513.96 1024.4C1513.96 1025.06 1513.84 1025.66 1513.62 1026.22C1513.41 1026.77 1513.08 1027.25 1512.64 1027.66C1512.2 1028.06 1511.65 1028.38 1510.98 1028.6C1510.31 1028.81 1509.51 1028.91 1508.58 1028.91H1507.04V1034H1504.55V1020.2H1508.75ZM1508.34 1026.9C1509.28 1026.9 1510.03 1026.72 1510.57 1026.37C1511.13 1026.02 1511.41 1025.39 1511.41 1024.5C1511.41 1023.73 1511.19 1023.15 1510.74 1022.77C1510.29 1022.38 1509.6 1022.19 1508.68 1022.19H1507.04V1026.9H1508.34ZM1529.17 1027.09C1529.17 1028.5 1528.93 1029.74 1528.45 1030.81C1527.99 1031.88 1527.27 1032.71 1526.29 1033.3C1525.33 1033.9 1524.1 1034.19 1522.6 1034.19C1521.12 1034.19 1519.89 1033.9 1518.9 1033.3C1517.92 1032.71 1517.2 1031.88 1516.72 1030.81C1516.25 1029.72 1516.02 1028.47 1516.02 1027.06C1516.02 1025.66 1516.26 1024.42 1516.74 1023.37C1517.22 1022.3 1517.95 1021.46 1518.92 1020.87C1519.9 1020.28 1521.13 1019.98 1522.62 1019.98C1524.11 1019.98 1525.33 1020.28 1526.29 1020.87C1527.27 1021.46 1527.99 1022.3 1528.45 1023.37C1528.93 1024.42 1529.17 1025.66 1529.17 1027.09ZM1518.64 1027.09C1518.64 1028.1 1518.77 1028.98 1519.04 1029.73C1519.32 1030.48 1519.74 1031.06 1520.32 1031.48C1520.91 1031.9 1521.67 1032.1 1522.6 1032.1C1523.52 1032.1 1524.28 1031.9 1524.85 1031.5C1525.43 1031.09 1525.85 1030.5 1526.12 1029.75C1526.4 1029 1526.53 1028.11 1526.53 1027.09C1526.53 1025.5 1526.21 1024.27 1525.57 1023.39C1524.93 1022.51 1523.94 1022.07 1522.6 1022.07C1521.68 1022.07 1520.93 1022.28 1520.34 1022.7C1519.76 1023.1 1519.33 1023.67 1519.04 1024.42C1518.77 1025.16 1518.64 1026.05 1518.64 1027.09ZM1543.95 1020.2V1034H1540.85L1534.23 1023.13H1534.13C1534.15 1023.32 1534.16 1023.56 1534.18 1023.85C1534.19 1024.14 1534.21 1024.44 1534.23 1024.76C1534.24 1025.08 1534.25 1025.4 1534.25 1025.72C1534.27 1026.04 1534.27 1026.34 1534.27 1026.61V1034H1532.04V1020.2H1535.16L1541.76 1031H1541.83C1541.82 1030.82 1541.8 1030.61 1541.79 1030.35C1541.77 1030.1 1541.75 1029.82 1541.74 1029.51C1541.74 1029.21 1541.73 1028.9 1541.71 1028.6C1541.71 1028.28 1541.71 1027.97 1541.71 1027.66V1020.2H1543.95ZM1555.91 1030.14C1555.91 1030.92 1555.71 1031.62 1555.31 1032.25C1554.91 1032.86 1554.33 1033.34 1553.56 1033.69C1552.79 1034.02 1551.86 1034.19 1550.77 1034.19C1550.2 1034.19 1549.66 1034.16 1549.17 1034.1C1548.69 1034.05 1548.25 1033.98 1547.85 1033.88C1547.45 1033.77 1547.05 1033.63 1546.67 1033.47V1031.22C1547.29 1031.5 1547.97 1031.74 1548.69 1031.91C1549.41 1032.09 1550.12 1032.18 1550.82 1032.18C1551.62 1032.18 1552.25 1032.02 1552.72 1031.7C1553.18 1031.36 1553.41 1030.9 1553.41 1030.33C1553.41 1029.91 1553.29 1029.57 1553.05 1029.3C1552.83 1029.02 1552.49 1028.78 1552.02 1028.55C1551.57 1028.33 1551.02 1028.1 1550.37 1027.86C1549.66 1027.57 1549.04 1027.26 1548.49 1026.94C1547.97 1026.61 1547.55 1026.19 1547.25 1025.7C1546.96 1025.2 1546.81 1024.58 1546.81 1023.82C1546.81 1022.99 1547.02 1022.3 1547.44 1021.74C1547.85 1021.18 1548.42 1020.75 1549.14 1020.46C1549.88 1020.16 1550.72 1020.01 1551.66 1020.01C1552.43 1020.01 1553.15 1020.1 1553.82 1020.27C1554.51 1020.43 1555.15 1020.64 1555.74 1020.9L1554.95 1022.82C1554.36 1022.56 1553.78 1022.36 1553.22 1022.22C1552.66 1022.07 1552.12 1022 1551.59 1022C1550.87 1022 1550.3 1022.15 1549.89 1022.46C1549.49 1022.76 1549.29 1023.18 1549.29 1023.73C1549.29 1024.13 1549.4 1024.46 1549.62 1024.74C1549.85 1025.01 1550.18 1025.25 1550.63 1025.46C1551.09 1025.66 1551.65 1025.9 1552.31 1026.15C1553.03 1026.44 1553.66 1026.75 1554.21 1027.09C1554.75 1027.42 1555.17 1027.83 1555.45 1028.31C1555.76 1028.78 1555.91 1029.38 1555.91 1030.14ZM1557.54 1034V1032.58L1559.17 1032.1V1022.1L1557.54 1021.64V1020.2H1563.3V1021.64L1561.67 1022.1V1032.1L1563.3 1032.58V1034H1557.54ZM1570.23 1020.2C1571.49 1020.2 1572.52 1020.33 1573.3 1020.58C1574.1 1020.84 1574.69 1021.22 1575.08 1021.74C1575.46 1022.25 1575.65 1022.9 1575.65 1023.68C1575.65 1024.24 1575.55 1024.73 1575.34 1025.14C1575.13 1025.56 1574.84 1025.9 1574.45 1026.18C1574.09 1026.43 1573.65 1026.61 1573.16 1026.7V1026.78C1573.7 1026.87 1574.18 1027.04 1574.6 1027.28C1575.01 1027.52 1575.34 1027.86 1575.58 1028.31C1575.82 1028.74 1575.94 1029.31 1575.94 1030.02C1575.94 1031.31 1575.48 1032.3 1574.55 1032.99C1573.62 1033.66 1572.38 1034 1570.83 1034H1565.86V1020.2H1570.23ZM1570.45 1025.94C1571.41 1025.94 1572.09 1025.78 1572.49 1025.46C1572.89 1025.12 1573.09 1024.63 1573.09 1023.99C1573.09 1023.35 1572.85 1022.89 1572.39 1022.6C1571.93 1022.3 1571.21 1022.14 1570.25 1022.14H1568.36V1025.94H1570.45ZM1570.64 1032.06C1571.6 1032.06 1572.29 1031.86 1572.73 1031.48C1573.17 1031.08 1573.4 1030.53 1573.4 1029.82C1573.4 1029.2 1573.17 1028.7 1572.7 1028.34C1572.25 1027.95 1571.52 1027.76 1570.49 1027.76H1568.36V1032.06H1570.64ZM1581.25 1020.2V1031.96H1587.22V1034H1578.75V1020.2H1581.25ZM1589.58 1020.2H1597.62V1022.19H1592.08V1025.84H1597.26V1027.83H1592.08V1032.01H1597.62V1034H1589.58V1020.2ZM1604.94 1034L1610.05 1020.15H1613L1618.07 1034H1615.35L1614.13 1030.35H1608.95L1607.65 1034H1604.94ZM1612.28 1024.76C1612.2 1024.54 1612.11 1024.28 1612.02 1023.99C1611.92 1023.7 1611.83 1023.41 1611.73 1023.1C1611.65 1022.8 1611.58 1022.51 1611.51 1022.24C1611.45 1022.51 1611.38 1022.8 1611.3 1023.1C1611.22 1023.39 1611.13 1023.69 1611.03 1023.99C1610.95 1024.28 1610.87 1024.54 1610.77 1024.78L1609.57 1028.31H1613.46L1612.28 1024.76ZM1618.88 1034V1032.58L1620.51 1032.1V1022.1L1618.88 1021.64V1020.2H1624.64V1021.64L1623.01 1022.1V1032.1L1624.64 1032.58V1034H1618.88ZM1637.3 1015.78H1639.29V1039.69H1637.3V1015.78ZM1656.87 1020.2C1658.71 1020.2 1660.08 1020.54 1660.97 1021.21C1661.88 1021.88 1662.34 1022.87 1662.34 1024.18C1662.34 1025.08 1662.12 1025.84 1661.67 1026.46C1661.22 1027.09 1660.55 1027.57 1659.65 1027.9L1663.59 1034H1660.78L1657.49 1028.53H1655.38V1034H1652.88V1020.2H1656.87ZM1656.96 1026.58C1657.88 1026.58 1658.57 1026.41 1659.05 1026.06C1659.55 1025.69 1659.8 1025.11 1659.8 1024.33C1659.8 1023.54 1659.55 1022.99 1659.05 1022.67C1658.56 1022.34 1657.81 1022.17 1656.82 1022.17H1655.38V1026.58H1656.96ZM1663.74 1034L1668.85 1020.15H1671.81L1676.87 1034H1674.16L1672.93 1030.35H1667.75L1666.45 1034H1663.74ZM1671.09 1024.76C1671.01 1024.54 1670.92 1024.28 1670.82 1023.99C1670.73 1023.7 1670.63 1023.41 1670.53 1023.1C1670.45 1022.8 1670.38 1022.51 1670.32 1022.24C1670.25 1022.51 1670.18 1022.8 1670.1 1023.1C1670.02 1023.39 1669.93 1023.69 1669.84 1023.99C1669.76 1024.28 1669.67 1024.54 1669.57 1024.78L1668.37 1028.31H1672.26L1671.09 1024.76ZM1684.5 1022.07C1683.61 1022.07 1682.85 1022.28 1682.22 1022.7C1681.62 1023.1 1681.15 1023.67 1680.83 1024.42C1680.51 1025.18 1680.35 1026.07 1680.35 1027.11C1680.35 1028.7 1680.69 1029.93 1681.36 1030.81C1682.05 1031.69 1683.1 1032.13 1684.5 1032.13C1685.11 1032.13 1685.7 1032.06 1686.26 1031.94C1686.82 1031.81 1687.38 1031.63 1687.94 1031.41V1033.57C1687.39 1033.78 1686.81 1033.93 1686.18 1034.02C1685.58 1034.14 1684.91 1034.19 1684.19 1034.19C1682.74 1034.19 1681.53 1033.9 1680.57 1033.3C1679.62 1032.71 1678.91 1031.88 1678.43 1030.81C1677.97 1029.74 1677.74 1028.5 1677.74 1027.09C1677.74 1025.7 1678 1024.47 1678.53 1023.42C1679.07 1022.34 1679.85 1021.51 1680.86 1020.92C1681.86 1020.31 1683.07 1020.01 1684.48 1020.01C1685.17 1020.01 1685.86 1020.09 1686.54 1020.25C1687.23 1020.39 1687.88 1020.61 1688.49 1020.9L1687.7 1022.89C1687.18 1022.65 1686.66 1022.46 1686.14 1022.31C1685.61 1022.15 1685.06 1022.07 1684.5 1022.07ZM1702.08 1020.2V1034H1699.61V1027.86H1693.42V1034H1690.92V1020.2H1693.42V1025.79H1699.61V1020.2H1702.08ZM1705.62 1020.2H1713.66V1022.19H1708.12V1025.84H1713.3V1027.83H1708.12V1032.01H1713.66V1034H1705.62V1020.2ZM1718.99 1020.2V1031.96H1724.97V1034H1716.49V1020.2H1718.99ZM1731.8 1034L1736.92 1020.15H1739.87L1744.93 1034H1742.22L1741 1030.35H1735.81L1734.52 1034H1731.8ZM1739.15 1024.76C1739.07 1024.54 1738.98 1024.28 1738.88 1023.99C1738.79 1023.7 1738.69 1023.41 1738.6 1023.1C1738.52 1022.8 1738.44 1022.51 1738.38 1022.24C1738.32 1022.51 1738.24 1022.8 1738.16 1023.1C1738.08 1023.39 1738 1023.69 1737.9 1023.99C1737.82 1024.28 1737.73 1024.54 1737.64 1024.78L1736.44 1028.31H1740.32L1739.15 1024.76ZM1755.07 1020.2V1022.29H1751.09V1034H1748.62V1022.29H1744.63V1020.2H1755.07ZM1771.75 1020.2V1034H1769.42V1026.03C1769.42 1025.68 1769.42 1025.29 1769.42 1024.86C1769.44 1024.41 1769.45 1023.99 1769.47 1023.61C1769.49 1023.22 1769.5 1022.94 1769.52 1022.77H1769.45L1765.49 1034H1763.25L1759.32 1022.74H1759.25C1759.25 1022.92 1759.25 1023.21 1759.27 1023.61C1759.3 1023.99 1759.33 1024.41 1759.34 1024.86C1759.36 1025.3 1759.37 1025.73 1759.37 1026.13V1034H1757.13V1020.2H1760.54L1764.41 1031.1H1764.45L1768.34 1020.2H1771.75ZM1773.52 1034L1778.64 1020.15H1781.59L1786.65 1034H1783.94L1782.72 1030.35H1777.53L1776.24 1034H1773.52ZM1780.87 1024.76C1780.79 1024.54 1780.7 1024.28 1780.6 1023.99C1780.51 1023.7 1780.41 1023.41 1780.32 1023.1C1780.24 1022.8 1780.16 1022.51 1780.1 1022.24C1780.04 1022.51 1779.96 1022.8 1779.88 1023.1C1779.8 1023.39 1779.72 1023.69 1779.62 1023.99C1779.54 1024.28 1779.45 1024.54 1779.36 1024.78L1778.16 1028.31H1782.04L1780.87 1024.76ZM1799.78 1026.92C1799.78 1028.49 1799.48 1029.8 1798.89 1030.86C1798.3 1031.9 1797.45 1032.68 1796.34 1033.21C1795.24 1033.74 1793.91 1034 1792.36 1034H1788.4V1020.2H1792.74C1794.98 1020.2 1796.71 1020.78 1797.93 1021.93C1799.16 1023.08 1799.78 1024.74 1799.78 1026.92ZM1797.18 1026.99C1797.18 1025.41 1796.8 1024.22 1796.03 1023.44C1795.28 1022.64 1794.17 1022.24 1792.7 1022.24H1790.9V1031.96H1792.43C1794.03 1031.96 1795.22 1031.55 1796.01 1030.74C1796.79 1029.9 1797.18 1028.66 1797.18 1026.99ZM1800.95 1037.91C1800.59 1037.91 1800.28 1037.89 1800.01 1037.84C1799.72 1037.81 1799.47 1037.76 1799.24 1037.7V1035.75C1799.48 1035.8 1799.72 1035.84 1799.96 1035.87C1800.19 1035.92 1800.42 1035.94 1800.66 1035.94C1801.36 1035.94 1801.88 1035.74 1802.2 1035.34C1802.52 1034.96 1802.68 1034.34 1802.68 1033.47V1020.2H1805.15V1033.28C1805.15 1034.37 1804.98 1035.26 1804.64 1035.94C1804.31 1036.63 1803.83 1037.13 1803.2 1037.43C1802.58 1037.75 1801.83 1037.91 1800.95 1037.91ZM1806.88 1034L1811.99 1020.15H1814.94L1820 1034H1817.29L1816.07 1030.35H1810.88L1809.59 1034H1806.88ZM1814.22 1024.76C1814.14 1024.54 1814.05 1024.28 1813.96 1023.99C1813.86 1023.7 1813.76 1023.41 1813.67 1023.1C1813.59 1022.8 1813.52 1022.51 1813.45 1022.24C1813.39 1022.51 1813.32 1022.8 1813.24 1023.1C1813.16 1023.39 1813.07 1023.69 1812.97 1023.99C1812.89 1024.28 1812.8 1024.54 1812.71 1024.78L1811.51 1028.31H1815.4L1814.22 1024.76Z" fill="#F2F2F2"/>
</svg>
