<svg width="1920" height="1080" viewBox="0 0 1920 1080" fill="none" xmlns="http://www.w3.org/2000/svg">
<rect width="1920" height="1080" fill="#463237"/>
<path d="M252.08 376H229.508V372.112L237.716 370.924V304.072L229.508 302.776V298.888H252.08V302.776L243.872 304.072V370.924L252.08 372.112V376ZM289.399 323.512H275.683V376H269.527V323.512H258.943V320.164L269.527 318.436V312.604C269.527 308.284 270.139 304.72 271.363 301.912C272.659 299.032 274.567 296.908 277.087 295.54C279.679 294.1 282.883 293.38 286.699 293.38C288.715 293.38 290.551 293.56 292.207 293.92C293.863 294.208 295.375 294.568 296.743 295L295.231 300.076C294.007 299.644 292.639 299.284 291.127 298.996C289.687 298.708 288.211 298.564 286.699 298.564C282.811 298.564 280.003 299.68 278.275 301.912C276.547 304.072 275.683 307.636 275.683 312.604V318.544H289.399V323.512ZM318.922 318.544H325.51L339.118 354.292C339.91 356.38 340.63 358.324 341.278 360.124C341.926 361.924 342.502 363.616 343.006 365.2C343.51 366.712 343.942 368.116 344.302 369.412H344.626C345.13 367.756 345.814 365.632 346.678 363.04C347.542 360.376 348.55 357.496 349.702 354.4L363.094 318.544H369.682L343.762 386.26C342.466 389.572 341.026 392.416 339.442 394.792C337.858 397.168 335.986 398.968 333.826 400.192C331.666 401.488 329.074 402.136 326.05 402.136C324.682 402.136 323.422 402.028 322.27 401.812C321.19 401.668 320.146 401.452 319.138 401.164V395.98C320.074 396.196 321.01 396.376 321.946 396.52C322.954 396.736 324.07 396.844 325.294 396.844C327.31 396.844 329.074 396.412 330.586 395.548C332.098 394.756 333.43 393.496 334.582 391.768C335.734 390.112 336.778 388.024 337.714 385.504L341.494 375.784L318.922 318.544ZM427.111 347.272C427.111 351.736 426.535 355.804 425.383 359.476C424.303 363.076 422.647 366.208 420.415 368.872C418.255 371.464 415.555 373.48 412.315 374.92C409.075 376.36 405.367 377.08 401.191 377.08C397.231 377.08 393.667 376.396 390.499 375.028C387.403 373.588 384.739 371.572 382.507 368.98C380.275 366.316 378.583 363.148 377.431 359.476C376.279 355.804 375.703 351.736 375.703 347.272C375.703 341.008 376.711 335.68 378.727 331.288C380.815 326.824 383.803 323.404 387.691 321.028C391.651 318.652 396.331 317.464 401.731 317.464C407.203 317.464 411.811 318.724 415.555 321.244C419.371 323.692 422.251 327.148 424.195 331.612C426.139 336.076 427.111 341.296 427.111 347.272ZM382.075 347.272C382.075 352.168 382.759 356.488 384.127 360.232C385.495 363.904 387.619 366.748 390.499 368.764C393.379 370.78 396.979 371.788 401.299 371.788C405.763 371.788 409.435 370.78 412.315 368.764C415.195 366.676 417.319 363.796 418.687 360.124C420.055 356.38 420.739 352.096 420.739 347.272C420.739 342.448 420.091 338.2 418.795 334.528C417.499 330.856 415.447 327.976 412.639 325.888C409.831 323.8 406.159 322.756 401.623 322.756C395.071 322.756 390.175 324.916 386.935 329.236C383.695 333.556 382.075 339.568 382.075 347.272ZM488.006 318.544V376H482.93L482.066 366.172H481.742C480.734 368.26 479.294 370.132 477.422 371.788C475.622 373.444 473.462 374.74 470.942 375.676C468.422 376.612 465.506 377.08 462.194 377.08C457.73 377.08 453.986 376.324 450.962 374.812C448.01 373.228 445.778 370.888 444.266 367.792C442.754 364.696 441.998 360.844 441.998 356.236V318.544H448.154V355.696C448.154 361.168 449.378 365.236 451.826 367.9C454.346 370.492 458.018 371.788 462.842 371.788C467.09 371.788 470.618 370.996 473.426 369.412C476.234 367.756 478.322 365.308 479.69 362.068C481.13 358.828 481.85 354.796 481.85 349.972V318.544H488.006ZM558.043 377.08C552.427 377.08 547.639 375.928 543.679 373.624C539.791 371.248 536.803 367.864 534.715 363.472C532.699 359.08 531.691 353.788 531.691 347.596C531.691 341.116 532.843 335.644 535.147 331.18C537.523 326.716 540.763 323.332 544.867 321.028C548.971 318.652 553.795 317.464 559.339 317.464C562.075 317.464 564.631 317.752 567.007 318.328C569.455 318.832 571.615 319.516 573.487 320.38L571.867 325.564C569.923 324.772 567.835 324.16 565.603 323.728C563.371 323.224 561.247 322.972 559.231 322.972C554.623 322.972 550.735 323.98 547.567 325.996C544.471 327.94 542.095 330.748 540.439 334.42C538.855 338.092 538.063 342.484 538.063 347.596C538.063 352.348 538.747 356.56 540.115 360.232C541.555 363.832 543.751 366.64 546.703 368.656C549.655 370.672 553.435 371.68 558.043 371.68C560.851 371.68 563.479 371.392 565.927 370.816C568.447 370.24 570.751 369.484 572.839 368.548V374.164C570.967 374.956 568.807 375.64 566.359 376.216C563.911 376.792 561.139 377.08 558.043 377.08ZM606.706 317.572C613.186 317.572 618.01 319.156 621.178 322.324C624.346 325.492 625.93 330.532 625.93 337.444V376H621.286L620.206 366.28H619.882C618.514 368.44 616.93 370.348 615.13 372.004C613.402 373.588 611.278 374.848 608.758 375.784C606.31 376.648 603.286 377.08 599.686 377.08C596.086 377.08 592.954 376.468 590.29 375.244C587.626 373.948 585.574 372.112 584.134 369.736C582.694 367.36 581.974 364.444 581.974 360.988C581.974 355.3 584.314 350.98 588.994 348.028C593.674 345.004 600.478 343.276 609.406 342.844L619.882 342.412V338.308C619.882 332.62 618.73 328.624 616.426 326.32C614.194 323.944 610.846 322.756 606.382 322.756C603.43 322.756 600.586 323.152 597.85 323.944C595.186 324.664 592.486 325.708 589.75 327.076L587.806 322.216C590.47 320.848 593.422 319.732 596.662 318.868C599.902 318.004 603.25 317.572 606.706 317.572ZM610.054 347.38C602.782 347.74 597.346 349.036 593.746 351.268C590.146 353.428 588.346 356.704 588.346 361.096C588.346 364.624 589.462 367.324 591.694 369.196C593.926 370.996 596.95 371.896 600.766 371.896C606.886 371.896 611.566 370.204 614.806 366.82C618.118 363.436 619.81 358.684 619.882 352.564V346.948L610.054 347.38ZM670.009 317.464C676.561 317.464 681.565 319.156 685.021 322.54C688.477 325.924 690.205 331.252 690.205 338.524V376H684.157V338.848C684.157 333.304 682.897 329.236 680.377 326.644C677.857 324.052 674.149 322.756 669.253 322.756C662.989 322.756 658.273 324.592 655.105 328.264C651.937 331.936 650.353 337.408 650.353 344.68V376H644.305V318.544H649.165L650.137 328.48H650.461C651.541 326.392 652.981 324.52 654.781 322.864C656.581 321.208 658.741 319.912 661.261 318.976C663.853 317.968 666.769 317.464 670.009 317.464ZM759.594 377.08C753.978 377.08 749.19 375.928 745.23 373.624C741.342 371.248 738.354 367.864 736.266 363.472C734.25 359.08 733.242 353.788 733.242 347.596C733.242 341.116 734.394 335.644 736.698 331.18C739.074 326.716 742.314 323.332 746.418 321.028C750.522 318.652 755.346 317.464 760.89 317.464C763.626 317.464 766.182 317.752 768.558 318.328C771.006 318.832 773.166 319.516 775.038 320.38L773.418 325.564C771.474 324.772 769.386 324.16 767.154 323.728C764.922 323.224 762.798 322.972 760.782 322.972C756.174 322.972 752.286 323.98 749.118 325.996C746.022 327.94 743.646 330.748 741.99 334.42C740.406 338.092 739.614 342.484 739.614 347.596C739.614 352.348 740.298 356.56 741.666 360.232C743.106 363.832 745.302 366.64 748.254 368.656C751.206 370.672 754.986 371.68 759.594 371.68C762.402 371.68 765.03 371.392 767.478 370.816C769.998 370.24 772.302 369.484 774.39 368.548V374.164C772.518 374.956 770.358 375.64 767.91 376.216C765.462 376.792 762.69 377.08 759.594 377.08ZM836.013 347.272C836.013 351.736 835.437 355.804 834.285 359.476C833.205 363.076 831.549 366.208 829.317 368.872C827.157 371.464 824.457 373.48 821.217 374.92C817.977 376.36 814.269 377.08 810.093 377.08C806.133 377.08 802.569 376.396 799.401 375.028C796.305 373.588 793.641 371.572 791.409 368.98C789.177 366.316 787.485 363.148 786.333 359.476C785.181 355.804 784.605 351.736 784.605 347.272C784.605 341.008 785.613 335.68 787.629 331.288C789.717 326.824 792.705 323.404 796.593 321.028C800.553 318.652 805.233 317.464 810.633 317.464C816.105 317.464 820.713 318.724 824.457 321.244C828.273 323.692 831.153 327.148 833.097 331.612C835.041 336.076 836.013 341.296 836.013 347.272ZM790.977 347.272C790.977 352.168 791.661 356.488 793.029 360.232C794.397 363.904 796.521 366.748 799.401 368.764C802.281 370.78 805.881 371.788 810.201 371.788C814.665 371.788 818.337 370.78 821.217 368.764C824.097 366.676 826.221 363.796 827.589 360.124C828.957 356.38 829.641 352.096 829.641 347.272C829.641 342.448 828.993 338.2 827.697 334.528C826.401 330.856 824.349 327.976 821.541 325.888C818.733 323.8 815.061 322.756 810.525 322.756C803.973 322.756 799.077 324.916 795.837 329.236C792.597 333.556 790.977 339.568 790.977 347.272ZM877.36 317.464C883.912 317.464 888.916 319.156 892.372 322.54C895.828 325.924 897.556 331.252 897.556 338.524V376H891.508V338.848C891.508 333.304 890.248 329.236 887.728 326.644C885.208 324.052 881.5 322.756 876.604 322.756C870.34 322.756 865.624 324.592 862.456 328.264C859.288 331.936 857.704 337.408 857.704 344.68V376H851.656V318.544H856.516L857.488 328.48H857.812C858.892 326.392 860.332 324.52 862.132 322.864C863.932 321.208 866.092 319.912 868.612 318.976C871.204 317.968 874.12 317.464 877.36 317.464ZM932.087 371.896C933.671 371.896 935.183 371.788 936.623 371.572C938.063 371.284 939.323 370.96 940.403 370.6V375.568C939.323 376 937.955 376.36 936.299 376.648C934.715 376.936 933.023 377.08 931.223 377.08C928.055 377.08 925.355 376.504 923.123 375.352C920.891 374.128 919.163 372.256 917.939 369.736C916.787 367.216 916.211 363.976 916.211 360.016V323.512H907.787V320.056L916.211 318.112L918.479 304.828H922.367V318.544H940.079V323.512H922.367V359.8C922.367 363.76 923.159 366.784 924.743 368.872C926.327 370.888 928.775 371.896 932.087 371.896ZM976.134 317.572C977.574 317.572 978.942 317.68 980.238 317.896C981.606 318.04 982.83 318.256 983.91 318.544L983.046 324.16C981.894 323.872 980.742 323.656 979.59 323.512C978.438 323.296 977.178 323.188 975.81 323.188C973.218 323.188 970.878 323.692 968.79 324.7C966.702 325.708 964.902 327.148 963.39 329.02C961.878 330.892 960.726 333.124 959.934 335.716C959.142 338.308 958.746 341.224 958.746 344.464V376H952.59V318.544H957.774L958.422 329.344H958.746C959.682 327.112 960.942 325.132 962.526 323.404C964.182 321.604 966.162 320.2 968.466 319.192C970.77 318.112 973.326 317.572 976.134 317.572ZM1001.14 318.544V376H995.094V318.544H1001.14ZM998.118 297.268C999.486 297.268 1000.53 297.7 1001.25 298.564C1001.97 299.356 1002.33 300.472 1002.33 301.912C1002.33 303.424 1001.97 304.612 1001.25 305.476C1000.53 306.268 999.486 306.664 998.118 306.664C996.822 306.664 995.814 306.268 995.094 305.476C994.374 304.612 994.014 303.424 994.014 301.912C994.014 300.472 994.374 299.356 995.094 298.564C995.814 297.7 996.822 297.268 998.118 297.268ZM1026.24 316.6C1026.24 318.688 1026.21 320.92 1026.14 323.296C1026.06 325.6 1025.96 327.508 1025.81 329.02H1026.24C1027.68 325.708 1030.02 322.972 1033.26 320.812C1036.58 318.58 1040.75 317.464 1045.79 317.464C1053.14 317.464 1058.86 319.984 1062.96 325.024C1067.14 329.992 1069.23 337.372 1069.23 347.164C1069.23 353.212 1068.29 358.468 1066.42 362.932C1064.62 367.396 1061.88 370.888 1058.21 373.408C1054.61 375.856 1050.18 377.08 1044.93 377.08C1040.1 377.08 1036.14 376.072 1033.05 374.056C1030.02 372.04 1027.79 369.592 1026.35 366.712H1025.81L1024.62 376H1020.09V293.92H1026.24V316.6ZM1044.93 322.756C1040.54 322.756 1036.94 323.692 1034.13 325.564C1031.39 327.436 1029.38 330.172 1028.08 333.772C1026.86 337.372 1026.24 341.836 1026.24 347.164V347.92C1026.24 355.696 1027.61 361.636 1030.35 365.74C1033.16 369.772 1037.76 371.788 1044.17 371.788C1050.36 371.788 1055.01 369.664 1058.1 365.416C1061.27 361.168 1062.86 355.084 1062.86 347.164C1062.86 339.028 1061.38 332.944 1058.43 328.912C1055.48 324.808 1050.98 322.756 1044.93 322.756ZM1130.1 318.544V376H1125.02L1124.16 366.172H1123.84C1122.83 368.26 1121.39 370.132 1119.52 371.788C1117.72 373.444 1115.56 374.74 1113.04 375.676C1110.52 376.612 1107.6 377.08 1104.29 377.08C1099.82 377.08 1096.08 376.324 1093.06 374.812C1090.1 373.228 1087.87 370.888 1086.36 367.792C1084.85 364.696 1084.09 360.844 1084.09 356.236V318.544H1090.25V355.696C1090.25 361.168 1091.47 365.236 1093.92 367.9C1096.44 370.492 1100.11 371.788 1104.94 371.788C1109.18 371.788 1112.71 370.996 1115.52 369.412C1118.33 367.756 1120.42 365.308 1121.78 362.068C1123.22 358.828 1123.94 354.796 1123.94 349.972V318.544H1130.1ZM1165.28 371.896C1166.86 371.896 1168.37 371.788 1169.81 371.572C1171.25 371.284 1172.51 370.96 1173.59 370.6V375.568C1172.51 376 1171.15 376.36 1169.49 376.648C1167.91 376.936 1166.21 377.08 1164.41 377.08C1161.25 377.08 1158.55 376.504 1156.31 375.352C1154.08 374.128 1152.35 372.256 1151.13 369.736C1149.98 367.216 1149.4 363.976 1149.4 360.016V323.512H1140.98V320.056L1149.4 318.112L1151.67 304.828H1155.56V318.544H1173.27V323.512H1155.56V359.8C1155.56 363.76 1156.35 366.784 1157.93 368.872C1159.52 370.888 1161.97 371.896 1165.28 371.896ZM1207.49 317.464C1212.46 317.464 1216.56 318.616 1219.8 320.92C1223.11 323.152 1225.6 326.248 1227.25 330.208C1228.98 334.168 1229.85 338.74 1229.85 343.924V348.028H1188.81C1188.81 355.732 1190.57 361.6 1194.1 365.632C1197.7 369.664 1202.77 371.68 1209.33 371.68C1212.93 371.68 1216.06 371.392 1218.72 370.816C1221.39 370.24 1224.3 369.232 1227.47 367.792V373.408C1224.59 374.704 1221.75 375.64 1218.94 376.216C1216.13 376.792 1212.85 377.08 1209.11 377.08C1203.42 377.08 1198.56 375.892 1194.53 373.516C1190.57 371.14 1187.55 367.756 1185.46 363.364C1183.44 358.9 1182.43 353.716 1182.43 347.812C1182.43 341.908 1183.41 336.688 1185.35 332.152C1187.29 327.616 1190.14 324.052 1193.88 321.46C1197.63 318.796 1202.16 317.464 1207.49 317.464ZM1207.49 322.648C1202.16 322.648 1197.88 324.412 1194.64 327.94C1191.4 331.396 1189.49 336.4 1188.91 342.952H1223.47C1223.47 338.92 1222.9 335.392 1221.75 332.368C1220.59 329.344 1218.83 326.968 1216.45 325.24C1214.15 323.512 1211.16 322.648 1207.49 322.648ZM1321.49 347.272C1321.49 351.736 1320.91 355.804 1319.76 359.476C1318.68 363.076 1317.02 366.208 1314.79 368.872C1312.63 371.464 1309.93 373.48 1306.69 374.92C1303.45 376.36 1299.74 377.08 1295.57 377.08C1291.61 377.08 1288.04 376.396 1284.87 375.028C1281.78 373.588 1279.11 371.572 1276.88 368.98C1274.65 366.316 1272.96 363.148 1271.81 359.476C1270.65 355.804 1270.08 351.736 1270.08 347.272C1270.08 341.008 1271.09 335.68 1273.1 331.288C1275.19 326.824 1278.18 323.404 1282.07 321.028C1286.03 318.652 1290.71 317.464 1296.11 317.464C1301.58 317.464 1306.19 318.724 1309.93 321.244C1313.75 323.692 1316.63 327.148 1318.57 331.612C1320.51 336.076 1321.49 341.296 1321.49 347.272ZM1276.45 347.272C1276.45 352.168 1277.13 356.488 1278.5 360.232C1279.87 363.904 1281.99 366.748 1284.87 368.764C1287.75 370.78 1291.35 371.788 1295.67 371.788C1300.14 371.788 1303.81 370.78 1306.69 368.764C1309.57 366.676 1311.69 363.796 1313.06 360.124C1314.43 356.38 1315.11 352.096 1315.11 347.272C1315.11 342.448 1314.47 338.2 1313.17 334.528C1311.87 330.856 1309.82 327.976 1307.01 325.888C1304.21 323.8 1300.53 322.756 1296 322.756C1289.45 322.756 1284.55 324.916 1281.31 329.236C1278.07 333.556 1276.45 339.568 1276.45 347.272ZM1362.83 317.464C1369.39 317.464 1374.39 319.156 1377.85 322.54C1381.3 325.924 1383.03 331.252 1383.03 338.524V376H1376.98V338.848C1376.98 333.304 1375.72 329.236 1373.2 326.644C1370.68 324.052 1366.97 322.756 1362.08 322.756C1355.81 322.756 1351.1 324.592 1347.93 328.264C1344.76 331.936 1343.18 337.408 1343.18 344.68V376H1337.13V318.544H1341.99L1342.96 328.48H1343.29C1344.37 326.392 1345.81 324.52 1347.61 322.864C1349.41 321.208 1351.57 319.912 1354.09 318.976C1356.68 317.968 1359.59 317.464 1362.83 317.464ZM1423.07 317.464C1428.04 317.464 1432.14 318.616 1435.38 320.92C1438.69 323.152 1441.18 326.248 1442.83 330.208C1444.56 334.168 1445.42 338.74 1445.42 343.924V348.028H1404.38C1404.38 355.732 1406.15 361.6 1409.68 365.632C1413.28 369.664 1418.35 371.68 1424.9 371.68C1428.5 371.68 1431.64 371.392 1434.3 370.816C1436.96 370.24 1439.88 369.232 1443.05 367.792V373.408C1440.17 374.704 1437.32 375.64 1434.52 376.216C1431.71 376.792 1428.43 377.08 1424.69 377.08C1419 377.08 1414.14 375.892 1410.11 373.516C1406.15 371.14 1403.12 367.756 1401.04 363.364C1399.02 358.9 1398.01 353.716 1398.01 347.812C1398.01 341.908 1398.98 336.688 1400.93 332.152C1402.87 327.616 1405.72 324.052 1409.46 321.46C1413.2 318.796 1417.74 317.464 1423.07 317.464ZM1423.07 322.648C1417.74 322.648 1413.46 324.412 1410.22 327.94C1406.98 331.396 1405.07 336.4 1404.49 342.952H1439.05C1439.05 338.92 1438.48 335.392 1437.32 332.368C1436.17 329.344 1434.41 326.968 1432.03 325.24C1429.73 323.512 1426.74 322.648 1423.07 322.648ZM1505.2 371.896C1506.79 371.896 1508.3 371.788 1509.74 371.572C1511.18 371.284 1512.44 370.96 1513.52 370.6V375.568C1512.44 376 1511.07 376.36 1509.42 376.648C1507.83 376.936 1506.14 377.08 1504.34 377.08C1501.17 377.08 1498.47 376.504 1496.24 375.352C1494.01 374.128 1492.28 372.256 1491.06 369.736C1489.9 367.216 1489.33 363.976 1489.33 360.016V323.512H1480.9V320.056L1489.33 318.112L1491.6 304.828H1495.48V318.544H1513.2V323.512H1495.48V359.8C1495.48 363.76 1496.28 366.784 1497.86 368.872C1499.44 370.888 1501.89 371.896 1505.2 371.896ZM1531.76 320.272C1531.76 321.712 1531.72 323.116 1531.65 324.484C1531.58 325.852 1531.5 327.22 1531.43 328.588H1531.86C1532.87 326.428 1534.28 324.52 1536.08 322.864C1537.88 321.208 1540.04 319.912 1542.56 318.976C1545.15 318.04 1548.06 317.572 1551.3 317.572C1555.7 317.572 1559.4 318.328 1562.43 319.84C1565.45 321.28 1567.72 323.548 1569.23 326.644C1570.82 329.668 1571.61 333.628 1571.61 338.524V376H1565.56V338.848C1565.56 333.304 1564.3 329.236 1561.78 326.644C1559.26 324.052 1555.55 322.756 1550.66 322.756C1546.48 322.756 1542.99 323.584 1540.18 325.24C1537.37 326.824 1535.25 329.272 1533.81 332.584C1532.44 335.824 1531.76 339.856 1531.76 344.68V376H1525.71V293.92H1531.76V320.272ZM1595.99 318.544V376H1589.94V318.544H1595.99ZM1592.96 297.268C1594.33 297.268 1595.37 297.7 1596.09 298.564C1596.81 299.356 1597.17 300.472 1597.17 301.912C1597.17 303.424 1596.81 304.612 1596.09 305.476C1595.37 306.268 1594.33 306.664 1592.96 306.664C1591.67 306.664 1590.66 306.268 1589.94 305.476C1589.22 304.612 1588.86 303.424 1588.86 301.912C1588.86 300.472 1589.22 299.356 1589.94 298.564C1590.66 297.7 1591.67 297.268 1592.96 297.268ZM1640.74 317.464C1647.3 317.464 1652.3 319.156 1655.76 322.54C1659.21 325.924 1660.94 331.252 1660.94 338.524V376H1654.89V338.848C1654.89 333.304 1653.63 329.236 1651.11 326.644C1648.59 324.052 1644.88 322.756 1639.99 322.756C1633.72 322.756 1629.01 324.592 1625.84 328.264C1622.67 331.936 1621.09 337.408 1621.09 344.68V376H1615.04V318.544H1619.9L1620.87 328.48H1621.2C1622.28 326.392 1623.72 324.52 1625.52 322.864C1627.32 321.208 1629.48 319.912 1632 318.976C1634.59 317.968 1637.5 317.464 1640.74 317.464ZM1700.33 317.464C1704.87 317.464 1708.61 318.364 1711.56 320.164C1714.51 321.892 1716.89 324.268 1718.69 327.292H1719.12L1719.99 318.544H1724.95V377.836C1724.95 382.876 1724.09 387.16 1722.36 390.688C1720.63 394.288 1717.93 397.06 1714.26 399.004C1710.66 400.948 1705.95 401.92 1700.11 401.92C1695.87 401.92 1692.05 401.56 1688.67 400.84C1685.35 400.12 1682.37 399.184 1679.7 398.032V392.092C1681.5 392.956 1683.48 393.748 1685.64 394.468C1687.8 395.188 1690.11 395.728 1692.55 396.088C1695.07 396.448 1697.7 396.628 1700.44 396.628C1706.77 396.628 1711.42 394.972 1714.37 391.66C1717.39 388.348 1718.91 383.884 1718.91 378.268V374.812C1718.91 373.3 1718.91 371.788 1718.91 370.276C1718.98 368.692 1719.05 367.216 1719.12 365.848H1718.8C1717.14 369.52 1714.69 372.328 1711.45 374.272C1708.21 376.144 1704.25 377.08 1699.57 377.08C1692.16 377.08 1686.36 374.56 1682.19 369.52C1678.01 364.48 1675.92 357.244 1675.92 347.812C1675.92 341.548 1676.86 336.148 1678.73 331.612C1680.6 327.076 1683.34 323.584 1686.94 321.136C1690.61 318.688 1695.07 317.464 1700.33 317.464ZM1700.98 322.756C1696.8 322.756 1693.31 323.764 1690.5 325.78C1687.77 327.724 1685.71 330.568 1684.35 334.312C1682.98 337.984 1682.29 342.484 1682.29 347.812C1682.29 355.66 1683.84 361.636 1686.94 365.74C1690.03 369.844 1694.46 371.896 1700.22 371.896C1703.89 371.896 1706.92 371.356 1709.29 370.276C1711.67 369.124 1713.54 367.54 1714.91 365.524C1716.35 363.508 1717.36 361.132 1717.93 358.396C1718.58 355.588 1718.91 352.6 1718.91 349.432V345.652C1718.91 340.756 1718.33 336.616 1717.18 333.232C1716.03 329.848 1714.12 327.256 1711.45 325.456C1708.86 323.656 1705.37 322.756 1700.98 322.756ZM249.704 495.896C251.288 495.896 252.8 495.788 254.24 495.572C255.68 495.284 256.94 494.96 258.02 494.6V499.568C256.94 500 255.572 500.36 253.916 500.648C252.332 500.936 250.64 501.08 248.84 501.08C245.672 501.08 242.972 500.504 240.74 499.352C238.508 498.128 236.78 496.256 235.556 493.736C234.404 491.216 233.828 487.976 233.828 484.016V447.512H225.404V444.056L233.828 442.112L236.096 428.828H239.984V442.544H257.696V447.512H239.984V483.8C239.984 487.76 240.776 490.784 242.36 492.872C243.944 494.888 246.392 495.896 249.704 495.896ZM318.267 471.272C318.267 475.736 317.691 479.804 316.539 483.476C315.459 487.076 313.803 490.208 311.571 492.872C309.411 495.464 306.711 497.48 303.471 498.92C300.231 500.36 296.523 501.08 292.347 501.08C288.387 501.08 284.823 500.396 281.655 499.028C278.559 497.588 275.895 495.572 273.663 492.98C271.431 490.316 269.739 487.148 268.587 483.476C267.435 479.804 266.859 475.736 266.859 471.272C266.859 465.008 267.867 459.68 269.883 455.288C271.971 450.824 274.959 447.404 278.847 445.028C282.807 442.652 287.487 441.464 292.887 441.464C298.359 441.464 302.967 442.724 306.711 445.244C310.527 447.692 313.407 451.148 315.351 455.612C317.295 460.076 318.267 465.296 318.267 471.272ZM273.231 471.272C273.231 476.168 273.915 480.488 275.283 484.232C276.651 487.904 278.775 490.748 281.655 492.764C284.535 494.78 288.135 495.788 292.455 495.788C296.919 495.788 300.591 494.78 303.471 492.764C306.351 490.676 308.475 487.796 309.843 484.124C311.211 480.38 311.895 476.096 311.895 471.272C311.895 466.448 311.247 462.2 309.951 458.528C308.655 454.856 306.603 451.976 303.795 449.888C300.987 447.8 297.315 446.756 292.779 446.756C286.227 446.756 281.331 448.916 278.091 453.236C274.851 457.556 273.231 463.568 273.231 471.272ZM368.013 440.6C368.013 442.688 367.977 444.92 367.905 447.296C367.833 449.6 367.725 451.508 367.581 453.02H368.013C369.453 449.708 371.793 446.972 375.033 444.812C378.345 442.58 382.521 441.464 387.561 441.464C394.905 441.464 400.629 443.984 404.733 449.024C408.909 453.992 410.997 461.372 410.997 471.164C410.997 477.212 410.061 482.468 408.189 486.932C406.389 491.396 403.653 494.888 399.981 497.408C396.381 499.856 391.953 501.08 386.697 501.08C381.873 501.08 377.913 500.072 374.817 498.056C371.793 496.04 369.561 493.592 368.121 490.712H367.581L366.393 500H361.857V417.92H368.013V440.6ZM386.697 446.756C382.305 446.756 378.705 447.692 375.897 449.564C373.161 451.436 371.145 454.172 369.849 457.772C368.625 461.372 368.013 465.836 368.013 471.164V471.92C368.013 479.696 369.381 485.636 372.117 489.74C374.925 493.772 379.533 495.788 385.941 495.788C392.133 495.788 396.777 493.664 399.873 489.416C403.041 485.168 404.625 479.084 404.625 471.164C404.625 463.028 403.149 456.944 400.197 452.912C397.245 448.808 392.745 446.756 386.697 446.756ZM450.161 441.572C451.601 441.572 452.969 441.68 454.265 441.896C455.633 442.04 456.857 442.256 457.937 442.544L457.073 448.16C455.921 447.872 454.769 447.656 453.617 447.512C452.465 447.296 451.205 447.188 449.837 447.188C447.245 447.188 444.905 447.692 442.817 448.7C440.729 449.708 438.929 451.148 437.417 453.02C435.905 454.892 434.753 457.124 433.961 459.716C433.169 462.308 432.773 465.224 432.773 468.464V500H426.617V442.544H431.801L432.449 453.344H432.773C433.709 451.112 434.969 449.132 436.553 447.404C438.209 445.604 440.189 444.2 442.493 443.192C444.797 442.112 447.353 441.572 450.161 441.572ZM475.169 442.544V500H469.121V442.544H475.169ZM472.145 421.268C473.513 421.268 474.557 421.7 475.277 422.564C475.997 423.356 476.357 424.472 476.357 425.912C476.357 427.424 475.997 428.612 475.277 429.476C474.557 430.268 473.513 430.664 472.145 430.664C470.849 430.664 469.841 430.268 469.121 429.476C468.401 428.612 468.041 427.424 468.041 425.912C468.041 424.472 468.401 423.356 469.121 422.564C469.841 421.7 470.849 421.268 472.145 421.268ZM519.927 441.464C526.479 441.464 531.483 443.156 534.939 446.54C538.395 449.924 540.123 455.252 540.123 462.524V500H534.075V462.848C534.075 457.304 532.815 453.236 530.295 450.644C527.775 448.052 524.067 446.756 519.171 446.756C512.907 446.756 508.191 448.592 505.023 452.264C501.855 455.936 500.271 461.408 500.271 468.68V500H494.223V442.544H499.083L500.055 452.48H500.379C501.459 450.392 502.899 448.52 504.699 446.864C506.499 445.208 508.659 443.912 511.179 442.976C513.771 441.968 516.687 441.464 519.927 441.464ZM579.513 441.464C584.049 441.464 587.793 442.364 590.745 444.164C593.697 445.892 596.073 448.268 597.873 451.292H598.305L599.169 442.544H604.137V501.836C604.137 506.876 603.273 511.16 601.545 514.688C599.817 518.288 597.117 521.06 593.445 523.004C589.845 524.948 585.129 525.92 579.297 525.92C575.049 525.92 571.233 525.56 567.849 524.84C564.537 524.12 561.549 523.184 558.885 522.032V516.092C560.685 516.956 562.665 517.748 564.825 518.468C566.985 519.188 569.289 519.728 571.737 520.088C574.257 520.448 576.885 520.628 579.621 520.628C585.957 520.628 590.601 518.972 593.553 515.66C596.577 512.348 598.089 507.884 598.089 502.268V498.812C598.089 497.3 598.089 495.788 598.089 494.276C598.161 492.692 598.233 491.216 598.305 489.848H597.981C596.325 493.52 593.877 496.328 590.637 498.272C587.397 500.144 583.437 501.08 578.757 501.08C571.341 501.08 565.545 498.56 561.369 493.52C557.193 488.48 555.105 481.244 555.105 471.812C555.105 465.548 556.041 460.148 557.913 455.612C559.785 451.076 562.521 447.584 566.121 445.136C569.793 442.688 574.257 441.464 579.513 441.464ZM580.161 446.756C575.985 446.756 572.493 447.764 569.685 449.78C566.949 451.724 564.897 454.568 563.529 458.312C562.161 461.984 561.477 466.484 561.477 471.812C561.477 479.66 563.025 485.636 566.121 489.74C569.217 493.844 573.645 495.896 579.405 495.896C583.077 495.896 586.101 495.356 588.477 494.276C590.853 493.124 592.725 491.54 594.093 489.524C595.533 487.508 596.541 485.132 597.117 482.396C597.765 479.588 598.089 476.6 598.089 473.432V469.652C598.089 464.756 597.513 460.616 596.361 457.232C595.209 453.848 593.301 451.256 590.637 449.456C588.045 447.656 584.553 446.756 580.161 446.756ZM629.154 442.544V500H623.106V442.544H629.154ZM626.13 421.268C627.498 421.268 628.542 421.7 629.262 422.564C629.982 423.356 630.342 424.472 630.342 425.912C630.342 427.424 629.982 428.612 629.262 429.476C628.542 430.268 627.498 430.664 626.13 430.664C624.834 430.664 623.826 430.268 623.106 429.476C622.386 428.612 622.026 427.424 622.026 425.912C622.026 424.472 622.386 423.356 623.106 422.564C623.826 421.7 624.834 421.268 626.13 421.268ZM673.911 441.464C680.463 441.464 685.467 443.156 688.923 446.54C692.379 449.924 694.107 455.252 694.107 462.524V500H688.059V462.848C688.059 457.304 686.799 453.236 684.279 450.644C681.759 448.052 678.051 446.756 673.155 446.756C666.891 446.756 662.175 448.592 659.007 452.264C655.839 455.936 654.255 461.408 654.255 468.68V500H648.207V442.544H653.067L654.039 452.48H654.363C655.443 450.392 656.883 448.52 658.683 446.864C660.483 445.208 662.643 443.912 665.163 442.976C667.755 441.968 670.671 441.464 673.911 441.464ZM733.498 441.464C738.034 441.464 741.778 442.364 744.73 444.164C747.682 445.892 750.058 448.268 751.858 451.292H752.29L753.154 442.544H758.122V501.836C758.122 506.876 757.258 511.16 755.53 514.688C753.802 518.288 751.102 521.06 747.43 523.004C743.83 524.948 739.114 525.92 733.282 525.92C729.034 525.92 725.218 525.56 721.834 524.84C718.522 524.12 715.534 523.184 712.87 522.032V516.092C714.67 516.956 716.65 517.748 718.81 518.468C720.97 519.188 723.274 519.728 725.722 520.088C728.242 520.448 730.87 520.628 733.606 520.628C739.942 520.628 744.586 518.972 747.538 515.66C750.562 512.348 752.074 507.884 752.074 502.268V498.812C752.074 497.3 752.074 495.788 752.074 494.276C752.146 492.692 752.218 491.216 752.29 489.848H751.966C750.31 493.52 747.862 496.328 744.622 498.272C741.382 500.144 737.422 501.08 732.742 501.08C725.326 501.08 719.53 498.56 715.354 493.52C711.178 488.48 709.09 481.244 709.09 471.812C709.09 465.548 710.026 460.148 711.898 455.612C713.77 451.076 716.506 447.584 720.106 445.136C723.778 442.688 728.242 441.464 733.498 441.464ZM734.146 446.756C729.97 446.756 726.478 447.764 723.67 449.78C720.934 451.724 718.882 454.568 717.514 458.312C716.146 461.984 715.462 466.484 715.462 471.812C715.462 479.66 717.01 485.636 720.106 489.74C723.202 493.844 727.63 495.896 733.39 495.896C737.062 495.896 740.086 495.356 742.462 494.276C744.838 493.124 746.71 491.54 748.078 489.524C749.518 487.508 750.526 485.132 751.102 482.396C751.75 479.588 752.074 476.6 752.074 473.432V469.652C752.074 464.756 751.498 460.616 750.346 457.232C749.194 453.848 747.286 451.256 744.622 449.456C742.03 447.656 738.538 446.756 734.146 446.756ZM828.689 441.572C830.129 441.572 831.497 441.68 832.793 441.896C834.161 442.04 835.385 442.256 836.465 442.544L835.601 448.16C834.449 447.872 833.297 447.656 832.145 447.512C830.993 447.296 829.733 447.188 828.365 447.188C825.773 447.188 823.433 447.692 821.345 448.7C819.257 449.708 817.457 451.148 815.945 453.02C814.433 454.892 813.281 457.124 812.489 459.716C811.697 462.308 811.301 465.224 811.301 468.464V500H805.145V442.544H810.329L810.977 453.344H811.301C812.237 451.112 813.497 449.132 815.081 447.404C816.737 445.604 818.717 444.2 821.021 443.192C823.325 442.112 825.881 441.572 828.689 441.572ZM867.247 441.464C872.215 441.464 876.319 442.616 879.559 444.92C882.871 447.152 885.355 450.248 887.011 454.208C888.739 458.168 889.603 462.74 889.603 467.924V472.028H848.563C848.563 479.732 850.327 485.6 853.855 489.632C857.455 493.664 862.531 495.68 869.083 495.68C872.683 495.68 875.815 495.392 878.479 494.816C881.143 494.24 884.059 493.232 887.227 491.792V497.408C884.347 498.704 881.503 499.64 878.695 500.216C875.887 500.792 872.611 501.08 868.867 501.08C863.179 501.08 858.319 499.892 854.287 497.516C850.327 495.14 847.303 491.756 845.215 487.364C843.199 482.9 842.191 477.716 842.191 471.812C842.191 465.908 843.163 460.688 845.107 456.152C847.051 451.616 849.895 448.052 853.639 445.46C857.383 442.796 861.919 441.464 867.247 441.464ZM867.247 446.648C861.919 446.648 857.635 448.412 854.395 451.94C851.155 455.396 849.247 460.4 848.671 466.952H883.231C883.231 462.92 882.655 459.392 881.503 456.368C880.351 453.344 878.587 450.968 876.211 449.24C873.907 447.512 870.919 446.648 867.247 446.648ZM941.201 484.772C941.201 488.228 940.337 491.18 938.609 493.628C936.881 496.076 934.361 497.948 931.049 499.244C927.737 500.468 923.705 501.08 918.953 501.08C914.993 501.08 911.465 500.72 908.369 500C905.273 499.28 902.645 498.416 900.485 497.408V491.468C903.077 492.764 905.993 493.844 909.233 494.708C912.473 495.5 915.749 495.896 919.061 495.896C924.821 495.896 928.961 494.96 931.481 493.088C934.001 491.144 935.261 488.516 935.261 485.204C935.261 483.044 934.649 481.28 933.425 479.912C932.273 478.472 930.509 477.212 928.133 476.132C925.829 474.98 922.949 473.828 919.493 472.676C915.965 471.452 912.833 470.228 910.097 469.004C907.361 467.708 905.237 466.088 903.725 464.144C902.213 462.2 901.457 459.536 901.457 456.152C901.457 451.544 903.329 447.944 907.073 445.352C910.817 442.76 915.821 441.464 922.085 441.464C925.541 441.464 928.745 441.788 931.697 442.436C934.721 443.084 937.457 443.948 939.905 445.028L937.745 450.104C936.305 449.456 934.685 448.88 932.885 448.376C931.085 447.8 929.249 447.368 927.377 447.08C925.505 446.792 923.633 446.648 921.761 446.648C917.225 446.648 913.697 447.44 911.177 449.024C908.657 450.608 907.397 452.912 907.397 455.936C907.397 458.24 907.973 460.076 909.125 461.444C910.349 462.74 912.113 463.856 914.417 464.792C916.793 465.728 919.637 466.808 922.949 468.032C926.333 469.184 929.393 470.408 932.129 471.704C934.937 473 937.133 474.656 938.717 476.672C940.373 478.688 941.201 481.388 941.201 484.772ZM981.353 441.464C988.697 441.464 994.421 443.948 998.525 448.916C1002.7 453.884 1004.79 461.228 1004.79 470.948C1004.79 477.428 1003.82 482.936 1001.87 487.472C999.929 491.936 997.157 495.32 993.557 497.624C990.029 499.928 985.781 501.08 980.813 501.08C977.429 501.08 974.477 500.576 971.957 499.568C969.437 498.56 967.349 497.228 965.693 495.572C964.037 493.916 962.741 492.08 961.805 490.064H961.373C961.517 491.864 961.625 493.844 961.697 496.004C961.769 498.092 961.805 500.036 961.805 501.836V525.488H955.649V442.544H960.725L961.481 453.344H961.805C962.741 451.256 964.073 449.312 965.801 447.512C967.529 445.712 969.653 444.272 972.173 443.192C974.765 442.04 977.825 441.464 981.353 441.464ZM980.489 446.756C976.241 446.756 972.749 447.656 970.013 449.456C967.277 451.256 965.225 453.92 963.857 457.448C962.489 460.904 961.805 465.188 961.805 470.3V471.38C961.805 476.78 962.453 481.316 963.749 484.988C965.117 488.588 967.133 491.288 969.797 493.088C972.533 494.888 975.953 495.788 980.057 495.788C984.089 495.788 987.437 494.816 990.101 492.872C992.837 490.856 994.889 488.012 996.257 484.34C997.697 480.596 998.417 476.132 998.417 470.948C998.417 463.1 996.941 457.124 993.989 453.02C991.037 448.844 986.537 446.756 980.489 446.756ZM1068.36 471.272C1068.36 475.736 1067.78 479.804 1066.63 483.476C1065.55 487.076 1063.9 490.208 1061.66 492.872C1059.5 495.464 1056.8 497.48 1053.56 498.92C1050.32 500.36 1046.62 501.08 1042.44 501.08C1038.48 501.08 1034.92 500.396 1031.75 499.028C1028.65 497.588 1025.99 495.572 1023.76 492.98C1021.52 490.316 1019.83 487.148 1018.68 483.476C1017.53 479.804 1016.95 475.736 1016.95 471.272C1016.95 465.008 1017.96 459.68 1019.98 455.288C1022.06 450.824 1025.05 447.404 1028.94 445.028C1032.9 442.652 1037.58 441.464 1042.98 441.464C1048.45 441.464 1053.06 442.724 1056.8 445.244C1060.62 447.692 1063.5 451.148 1065.44 455.612C1067.39 460.076 1068.36 465.296 1068.36 471.272ZM1023.32 471.272C1023.32 476.168 1024.01 480.488 1025.38 484.232C1026.74 487.904 1028.87 490.748 1031.75 492.764C1034.63 494.78 1038.23 495.788 1042.55 495.788C1047.01 495.788 1050.68 494.78 1053.56 492.764C1056.44 490.676 1058.57 487.796 1059.94 484.124C1061.3 480.38 1061.99 476.096 1061.99 471.272C1061.99 466.448 1061.34 462.2 1060.04 458.528C1058.75 454.856 1056.7 451.976 1053.89 449.888C1051.08 447.8 1047.41 446.756 1042.87 446.756C1036.32 446.756 1031.42 448.916 1028.18 453.236C1024.94 457.556 1023.32 463.568 1023.32 471.272ZM1109.71 441.464C1116.26 441.464 1121.26 443.156 1124.72 446.54C1128.18 449.924 1129.9 455.252 1129.9 462.524V500H1123.86V462.848C1123.86 457.304 1122.6 453.236 1120.08 450.644C1117.56 448.052 1113.85 446.756 1108.95 446.756C1102.69 446.756 1097.97 448.592 1094.8 452.264C1091.64 455.936 1090.05 461.408 1090.05 468.68V500H1084V442.544H1088.86L1089.84 452.48H1090.16C1091.24 450.392 1092.68 448.52 1094.48 446.864C1096.28 445.208 1098.44 443.912 1100.96 442.976C1103.55 441.968 1106.47 441.464 1109.71 441.464ZM1184.31 484.772C1184.31 488.228 1183.44 491.18 1181.71 493.628C1179.99 496.076 1177.47 497.948 1174.15 499.244C1170.84 500.468 1166.81 501.08 1162.06 501.08C1158.1 501.08 1154.57 500.72 1151.47 500C1148.38 499.28 1145.75 498.416 1143.59 497.408V491.468C1146.18 492.764 1149.1 493.844 1152.34 494.708C1155.58 495.5 1158.85 495.896 1162.17 495.896C1167.93 495.896 1172.07 494.96 1174.59 493.088C1177.11 491.144 1178.37 488.516 1178.37 485.204C1178.37 483.044 1177.75 481.28 1176.53 479.912C1175.38 478.472 1173.61 477.212 1171.24 476.132C1168.93 474.98 1166.05 473.828 1162.6 472.676C1159.07 471.452 1155.94 470.228 1153.2 469.004C1150.47 467.708 1148.34 466.088 1146.83 464.144C1145.32 462.2 1144.56 459.536 1144.56 456.152C1144.56 451.544 1146.43 447.944 1150.18 445.352C1153.92 442.76 1158.93 441.464 1165.19 441.464C1168.65 441.464 1171.85 441.788 1174.8 442.436C1177.83 443.084 1180.56 443.948 1183.01 445.028L1180.85 450.104C1179.41 449.456 1177.79 448.88 1175.99 448.376C1174.19 447.8 1172.35 447.368 1170.48 447.08C1168.61 446.792 1166.74 446.648 1164.87 446.648C1160.33 446.648 1156.8 447.44 1154.28 449.024C1151.76 450.608 1150.5 452.912 1150.5 455.936C1150.5 458.24 1151.08 460.076 1152.23 461.444C1153.45 462.74 1155.22 463.856 1157.52 464.792C1159.9 465.728 1162.74 466.808 1166.05 468.032C1169.44 469.184 1172.5 470.408 1175.23 471.704C1178.04 473 1180.24 474.656 1181.82 476.672C1183.48 478.688 1184.31 481.388 1184.31 484.772ZM1204.8 442.544V500H1198.75V442.544H1204.8ZM1201.78 421.268C1203.15 421.268 1204.19 421.7 1204.91 422.564C1205.63 423.356 1205.99 424.472 1205.99 425.912C1205.99 427.424 1205.63 428.612 1204.91 429.476C1204.19 430.268 1203.15 430.664 1201.78 430.664C1200.48 430.664 1199.47 430.268 1198.75 429.476C1198.03 428.612 1197.67 427.424 1197.67 425.912C1197.67 424.472 1198.03 423.356 1198.75 422.564C1199.47 421.7 1200.48 421.268 1201.78 421.268ZM1229.9 440.6C1229.9 442.688 1229.87 444.92 1229.8 447.296C1229.72 449.6 1229.62 451.508 1229.47 453.02H1229.9C1231.34 449.708 1233.68 446.972 1236.92 444.812C1240.24 442.58 1244.41 441.464 1249.45 441.464C1256.8 441.464 1262.52 443.984 1266.62 449.024C1270.8 453.992 1272.89 461.372 1272.89 471.164C1272.89 477.212 1271.95 482.468 1270.08 486.932C1268.28 491.396 1265.54 494.888 1261.87 497.408C1258.27 499.856 1253.84 501.08 1248.59 501.08C1243.76 501.08 1239.8 500.072 1236.71 498.056C1233.68 496.04 1231.45 493.592 1230.01 490.712H1229.47L1228.28 500H1223.75V417.92H1229.9V440.6ZM1248.59 446.756C1244.2 446.756 1240.6 447.692 1237.79 449.564C1235.05 451.436 1233.04 454.172 1231.74 457.772C1230.52 461.372 1229.9 465.836 1229.9 471.164V471.92C1229.9 479.696 1231.27 485.636 1234.01 489.74C1236.82 493.772 1241.42 495.788 1247.83 495.788C1254.02 495.788 1258.67 493.664 1261.76 489.416C1264.93 485.168 1266.52 479.084 1266.52 471.164C1266.52 463.028 1265.04 456.944 1262.09 452.912C1259.14 448.808 1254.64 446.756 1248.59 446.756ZM1294.66 500H1288.51V417.92H1294.66V500ZM1335.32 441.464C1340.29 441.464 1344.39 442.616 1347.63 444.92C1350.94 447.152 1353.43 450.248 1355.08 454.208C1356.81 458.168 1357.67 462.74 1357.67 467.924V472.028H1316.63C1316.63 479.732 1318.4 485.6 1321.93 489.632C1325.53 493.664 1330.6 495.68 1337.15 495.68C1340.75 495.68 1343.89 495.392 1346.55 494.816C1349.21 494.24 1352.13 493.232 1355.3 491.792V497.408C1352.42 498.704 1349.57 499.64 1346.77 500.216C1343.96 500.792 1340.68 501.08 1336.94 501.08C1331.25 501.08 1326.39 499.892 1322.36 497.516C1318.4 495.14 1315.37 491.756 1313.29 487.364C1311.27 482.9 1310.26 477.716 1310.26 471.812C1310.26 465.908 1311.23 460.688 1313.18 456.152C1315.12 451.616 1317.97 448.052 1321.71 445.46C1325.45 442.796 1329.99 441.464 1335.32 441.464ZM1335.32 446.648C1329.99 446.648 1325.71 448.412 1322.47 451.94C1319.23 455.396 1317.32 460.4 1316.74 466.952H1351.3C1351.3 462.92 1350.73 459.392 1349.57 456.368C1348.42 453.344 1346.66 450.968 1344.28 449.24C1341.98 447.512 1338.99 446.648 1335.32 446.648ZM1450.83 500L1440.57 473.432H1408.49L1398.12 500H1391.75L1422.1 422.672H1427.71L1457.31 500H1450.83ZM1428.25 439.952C1428.04 439.232 1427.71 438.26 1427.28 437.036C1426.85 435.812 1426.42 434.516 1425.99 433.148C1425.55 431.78 1425.12 430.556 1424.69 429.476C1424.33 430.7 1423.93 431.96 1423.5 433.256C1423.14 434.552 1422.75 435.776 1422.31 436.928C1421.95 438.08 1421.59 439.124 1421.23 440.06L1410.65 467.816H1438.62L1428.25 439.952ZM1485.54 500H1462.97V496.112L1471.17 494.924V428.072L1462.97 426.776V422.888H1485.54V426.776L1477.33 428.072V494.924L1485.54 496.112V500ZM1544.75 495.896C1546.34 495.896 1547.85 495.788 1549.29 495.572C1550.73 495.284 1551.99 494.96 1553.07 494.6V499.568C1551.99 500 1550.62 500.36 1548.97 500.648C1547.38 500.936 1545.69 501.08 1543.89 501.08C1540.72 501.08 1538.02 500.504 1535.79 499.352C1533.56 498.128 1531.83 496.256 1530.61 493.736C1529.45 491.216 1528.88 487.976 1528.88 484.016V447.512H1520.45V444.056L1528.88 442.112L1531.15 428.828H1535.03V442.544H1552.75V447.512H1535.03V483.8C1535.03 487.76 1535.83 490.784 1537.41 492.872C1538.99 494.888 1541.44 495.896 1544.75 495.896ZM1613.32 471.272C1613.32 475.736 1612.74 479.804 1611.59 483.476C1610.51 487.076 1608.85 490.208 1606.62 492.872C1604.46 495.464 1601.76 497.48 1598.52 498.92C1595.28 500.36 1591.57 501.08 1587.4 501.08C1583.44 501.08 1579.87 500.396 1576.71 499.028C1573.61 497.588 1570.95 495.572 1568.71 492.98C1566.48 490.316 1564.79 487.148 1563.64 483.476C1562.49 479.804 1561.91 475.736 1561.91 471.272C1561.91 465.008 1562.92 459.68 1564.93 455.288C1567.02 450.824 1570.01 447.404 1573.9 445.028C1577.86 442.652 1582.54 441.464 1587.94 441.464C1593.41 441.464 1598.02 442.724 1601.76 445.244C1605.58 447.692 1608.46 451.148 1610.4 455.612C1612.35 460.076 1613.32 465.296 1613.32 471.272ZM1568.28 471.272C1568.28 476.168 1568.97 480.488 1570.33 484.232C1571.7 487.904 1573.83 490.748 1576.71 492.764C1579.59 494.78 1583.19 495.788 1587.51 495.788C1591.97 495.788 1595.64 494.78 1598.52 492.764C1601.4 490.676 1603.53 487.796 1604.89 484.124C1606.26 480.38 1606.95 476.096 1606.95 471.272C1606.95 466.448 1606.3 462.2 1605 458.528C1603.71 454.856 1601.65 451.976 1598.85 449.888C1596.04 447.8 1592.37 446.756 1587.83 446.756C1581.28 446.756 1576.38 448.916 1573.14 453.236C1569.9 457.556 1568.28 463.568 1568.28 471.272ZM249.704 619.896C251.288 619.896 252.8 619.788 254.24 619.572C255.68 619.284 256.94 618.96 258.02 618.6V623.568C256.94 624 255.572 624.36 253.916 624.648C252.332 624.936 250.64 625.08 248.84 625.08C245.672 625.08 242.972 624.504 240.74 623.352C238.508 622.128 236.78 620.256 235.556 617.736C234.404 615.216 233.828 611.976 233.828 608.016V571.512H225.404V568.056L233.828 566.112L236.096 552.828H239.984V566.544H257.696V571.512H239.984V607.8C239.984 611.76 240.776 614.784 242.36 616.872C243.944 618.888 246.392 619.896 249.704 619.896ZM276.255 568.272C276.255 569.712 276.219 571.116 276.147 572.484C276.075 573.852 276.003 575.22 275.931 576.588H276.363C277.371 574.428 278.775 572.52 280.575 570.864C282.375 569.208 284.535 567.912 287.055 566.976C289.647 566.04 292.563 565.572 295.803 565.572C300.195 565.572 303.903 566.328 306.927 567.84C309.951 569.28 312.219 571.548 313.731 574.644C315.315 577.668 316.107 581.628 316.107 586.524V624H310.059V586.848C310.059 581.304 308.799 577.236 306.279 574.644C303.759 572.052 300.051 570.756 295.155 570.756C290.979 570.756 287.487 571.584 284.679 573.24C281.871 574.824 279.747 577.272 278.307 580.584C276.939 583.824 276.255 587.856 276.255 592.68V624H270.207V541.92H276.255V568.272ZM356.146 565.464C361.114 565.464 365.218 566.616 368.458 568.92C371.77 571.152 374.254 574.248 375.91 578.208C377.638 582.168 378.502 586.74 378.502 591.924V596.028H337.462C337.462 603.732 339.226 609.6 342.754 613.632C346.354 617.664 351.43 619.68 357.982 619.68C361.582 619.68 364.714 619.392 367.378 618.816C370.042 618.24 372.958 617.232 376.126 615.792V621.408C373.246 622.704 370.402 623.64 367.594 624.216C364.786 624.792 361.51 625.08 357.766 625.08C352.078 625.08 347.218 623.892 343.186 621.516C339.226 619.14 336.202 615.756 334.114 611.364C332.098 606.9 331.09 601.716 331.09 595.812C331.09 589.908 332.062 584.688 334.006 580.152C335.95 575.616 338.794 572.052 342.538 569.46C346.282 566.796 350.818 565.464 356.146 565.464ZM356.146 570.648C350.818 570.648 346.534 572.412 343.294 575.94C340.054 579.396 338.146 584.4 337.57 590.952H372.13C372.13 586.92 371.554 583.392 370.402 580.368C369.25 577.344 367.486 574.968 365.11 573.24C362.806 571.512 359.818 570.648 356.146 570.648ZM456.318 586.632C455.958 585.408 455.598 584.22 455.238 583.068C454.95 581.916 454.662 580.836 454.374 579.828C454.086 578.748 453.798 577.704 453.51 576.696C453.222 575.688 452.97 574.752 452.754 573.888H452.43C452.214 574.752 451.962 575.688 451.674 576.696C451.458 577.704 451.206 578.784 450.918 579.936C450.63 581.016 450.306 582.132 449.946 583.284C449.658 584.364 449.334 585.516 448.974 586.74L436.77 624H430.29L414.09 566.544H420.462L430.182 602.076C430.758 604.236 431.262 606.216 431.694 608.016C432.126 609.744 432.522 611.364 432.882 612.876C433.242 614.316 433.494 615.648 433.638 616.872H433.962C434.178 616.008 434.394 615.072 434.61 614.064C434.898 612.984 435.186 611.868 435.474 610.716C435.762 609.564 436.086 608.34 436.446 607.044C436.878 605.676 437.31 604.308 437.742 602.94L449.622 566.544H455.994L467.334 602.832C467.91 604.56 468.414 606.288 468.846 608.016C469.35 609.672 469.782 611.256 470.142 612.768C470.574 614.208 470.898 615.576 471.114 616.872H471.438C471.582 615.648 471.798 614.316 472.086 612.876C472.446 611.364 472.842 609.708 473.274 607.908C473.778 606.108 474.318 604.164 474.894 602.076L484.29 566.544H490.554L474.894 624H468.09L456.318 586.632ZM549.56 595.272C549.56 599.736 548.984 603.804 547.832 607.476C546.752 611.076 545.096 614.208 542.864 616.872C540.704 619.464 538.004 621.48 534.764 622.92C531.524 624.36 527.816 625.08 523.64 625.08C519.68 625.08 516.116 624.396 512.948 623.028C509.852 621.588 507.188 619.572 504.956 616.98C502.724 614.316 501.032 611.148 499.88 607.476C498.728 603.804 498.152 599.736 498.152 595.272C498.152 589.008 499.16 583.68 501.176 579.288C503.264 574.824 506.252 571.404 510.14 569.028C514.1 566.652 518.78 565.464 524.18 565.464C529.652 565.464 534.26 566.724 538.004 569.244C541.82 571.692 544.7 575.148 546.644 579.612C548.588 584.076 549.56 589.296 549.56 595.272ZM504.524 595.272C504.524 600.168 505.208 604.488 506.576 608.232C507.944 611.904 510.068 614.748 512.948 616.764C515.828 618.78 519.428 619.788 523.748 619.788C528.212 619.788 531.884 618.78 534.764 616.764C537.644 614.676 539.768 611.796 541.136 608.124C542.504 604.38 543.188 600.096 543.188 595.272C543.188 590.448 542.54 586.2 541.244 582.528C539.948 578.856 537.896 575.976 535.088 573.888C532.28 571.8 528.608 570.756 524.072 570.756C517.52 570.756 512.624 572.916 509.384 577.236C506.144 581.556 504.524 587.568 504.524 595.272ZM588.747 565.572C590.187 565.572 591.555 565.68 592.851 565.896C594.219 566.04 595.443 566.256 596.523 566.544L595.659 572.16C594.507 571.872 593.355 571.656 592.203 571.512C591.051 571.296 589.791 571.188 588.423 571.188C585.831 571.188 583.491 571.692 581.403 572.7C579.315 573.708 577.515 575.148 576.003 577.02C574.491 578.892 573.339 581.124 572.547 583.716C571.755 586.308 571.359 589.224 571.359 592.464V624H565.203V566.544H570.387L571.035 577.344H571.359C572.295 575.112 573.555 573.132 575.139 571.404C576.795 569.604 578.775 568.2 581.079 567.192C583.383 566.112 585.939 565.572 588.747 565.572ZM613.863 624H607.707V541.92H613.863V624ZM653.437 625.08C645.733 625.08 639.793 622.632 635.617 617.736C631.513 612.768 629.461 605.496 629.461 595.92C629.461 585.984 631.621 578.424 635.941 573.24C640.333 568.056 646.345 565.464 653.977 565.464C657.217 565.464 660.025 565.968 662.401 566.976C664.777 567.912 666.793 569.208 668.449 570.864C670.177 572.52 671.509 574.392 672.445 576.48H672.877C672.805 574.752 672.697 572.88 672.553 570.864C672.481 568.776 672.445 566.904 672.445 565.248V541.92H678.601V624H673.633L672.769 613.956H672.445C671.437 615.972 670.105 617.844 668.449 619.572C666.793 621.228 664.741 622.56 662.293 623.568C659.845 624.576 656.893 625.08 653.437 625.08ZM654.193 619.788C660.889 619.788 665.605 617.772 668.341 613.74C671.149 609.708 672.553 603.876 672.553 596.244V595.272C672.553 587.352 671.149 581.304 668.341 577.128C665.605 572.88 661.033 570.756 654.625 570.756C648.433 570.756 643.753 572.952 640.585 577.344C637.417 581.664 635.833 587.892 635.833 596.028C635.833 603.804 637.345 609.708 640.369 613.74C643.393 617.772 648.001 619.788 654.193 619.788ZM705.021 612.768C704.445 615.36 703.725 618.132 702.861 621.084C701.997 624.036 701.061 626.952 700.053 629.832C699.045 632.712 698.001 635.412 696.921 637.932H692.169C693.105 634.764 693.933 631.668 694.653 628.644C695.373 625.62 696.021 622.668 696.597 619.788C697.173 616.908 697.641 614.136 698.001 611.472H704.481L705.021 612.768ZM784.01 586.632C783.65 585.408 783.29 584.22 782.93 583.068C782.642 581.916 782.354 580.836 782.066 579.828C781.778 578.748 781.49 577.704 781.202 576.696C780.914 575.688 780.662 574.752 780.446 573.888H780.122C779.906 574.752 779.654 575.688 779.366 576.696C779.15 577.704 778.898 578.784 778.61 579.936C778.322 581.016 777.998 582.132 777.638 583.284C777.35 584.364 777.026 585.516 776.666 586.74L764.462 624H757.982L741.782 566.544H748.154L757.874 602.076C758.45 604.236 758.954 606.216 759.386 608.016C759.818 609.744 760.214 611.364 760.574 612.876C760.934 614.316 761.186 615.648 761.33 616.872H761.654C761.87 616.008 762.086 615.072 762.302 614.064C762.59 612.984 762.878 611.868 763.166 610.716C763.454 609.564 763.778 608.34 764.138 607.044C764.57 605.676 765.002 604.308 765.434 602.94L777.314 566.544H783.686L795.026 602.832C795.602 604.56 796.106 606.288 796.538 608.016C797.042 609.672 797.474 611.256 797.834 612.768C798.266 614.208 798.59 615.576 798.806 616.872H799.13C799.274 615.648 799.49 614.316 799.778 612.876C800.138 611.364 800.534 609.708 800.966 607.908C801.47 606.108 802.01 604.164 802.586 602.076L811.982 566.544H818.246L802.586 624H795.782L784.01 586.632ZM835.24 568.272C835.24 569.712 835.204 571.116 835.132 572.484C835.06 573.852 834.988 575.22 834.916 576.588H835.348C836.356 574.428 837.76 572.52 839.56 570.864C841.36 569.208 843.52 567.912 846.04 566.976C848.632 566.04 851.548 565.572 854.788 565.572C859.18 565.572 862.888 566.328 865.912 567.84C868.936 569.28 871.204 571.548 872.716 574.644C874.3 577.668 875.092 581.628 875.092 586.524V624H869.044V586.848C869.044 581.304 867.784 577.236 865.264 574.644C862.744 572.052 859.036 570.756 854.14 570.756C849.964 570.756 846.472 571.584 843.664 573.24C840.856 574.824 838.732 577.272 837.292 580.584C835.924 583.824 835.24 587.856 835.24 592.68V624H829.192V541.92H835.24V568.272ZM913.726 565.572C920.206 565.572 925.03 567.156 928.198 570.324C931.366 573.492 932.95 578.532 932.95 585.444V624H928.306L927.226 614.28H926.902C925.534 616.44 923.95 618.348 922.15 620.004C920.422 621.588 918.298 622.848 915.778 623.784C913.33 624.648 910.306 625.08 906.706 625.08C903.106 625.08 899.974 624.468 897.31 623.244C894.646 621.948 892.594 620.112 891.154 617.736C889.714 615.36 888.994 612.444 888.994 608.988C888.994 603.3 891.334 598.98 896.014 596.028C900.694 593.004 907.498 591.276 916.426 590.844L926.902 590.412V586.308C926.902 580.62 925.75 576.624 923.446 574.32C921.214 571.944 917.866 570.756 913.402 570.756C910.45 570.756 907.606 571.152 904.87 571.944C902.206 572.664 899.506 573.708 896.77 575.076L894.826 570.216C897.49 568.848 900.442 567.732 903.682 566.868C906.922 566.004 910.27 565.572 913.726 565.572ZM917.074 595.38C909.802 595.74 904.366 597.036 900.766 599.268C897.166 601.428 895.366 604.704 895.366 609.096C895.366 612.624 896.482 615.324 898.714 617.196C900.946 618.996 903.97 619.896 907.786 619.896C913.906 619.896 918.586 618.204 921.826 614.82C925.138 611.436 926.83 606.684 926.902 600.564V594.948L917.074 595.38ZM967.524 619.896C969.108 619.896 970.62 619.788 972.06 619.572C973.5 619.284 974.76 618.96 975.84 618.6V623.568C974.76 624 973.392 624.36 971.736 624.648C970.152 624.936 968.46 625.08 966.66 625.08C963.492 625.08 960.792 624.504 958.56 623.352C956.328 622.128 954.6 620.256 953.376 617.736C952.224 615.216 951.648 611.976 951.648 608.016V571.512H943.224V568.056L951.648 566.112L953.916 552.828H957.804V566.544H975.516V571.512H957.804V607.8C957.804 611.76 958.596 614.784 960.18 616.872C961.764 618.888 964.212 619.896 967.524 619.896ZM1050.32 586.632C1049.96 585.408 1049.6 584.22 1049.24 583.068C1048.95 581.916 1048.66 580.836 1048.37 579.828C1048.09 578.748 1047.8 577.704 1047.51 576.696C1047.22 575.688 1046.97 574.752 1046.75 573.888H1046.43C1046.21 574.752 1045.96 575.688 1045.67 576.696C1045.46 577.704 1045.21 578.784 1044.92 579.936C1044.63 581.016 1044.31 582.132 1043.95 583.284C1043.66 584.364 1043.33 585.516 1042.97 586.74L1030.77 624H1024.29L1008.09 566.544H1014.46L1024.18 602.076C1024.76 604.236 1025.26 606.216 1025.69 608.016C1026.13 609.744 1026.52 611.364 1026.88 612.876C1027.24 614.316 1027.49 615.648 1027.64 616.872H1027.96C1028.18 616.008 1028.39 615.072 1028.61 614.064C1028.9 612.984 1029.19 611.868 1029.47 610.716C1029.76 609.564 1030.09 608.34 1030.45 607.044C1030.88 605.676 1031.31 604.308 1031.74 602.94L1043.62 566.544H1049.99L1061.33 602.832C1061.91 604.56 1062.41 606.288 1062.85 608.016C1063.35 609.672 1063.78 611.256 1064.14 612.768C1064.57 614.208 1064.9 615.576 1065.11 616.872H1065.44C1065.58 615.648 1065.8 614.316 1066.09 612.876C1066.45 611.364 1066.84 609.708 1067.27 607.908C1067.78 606.108 1068.32 604.164 1068.89 602.076L1078.29 566.544H1084.55L1068.89 624H1062.09L1050.32 586.632ZM1143.56 595.272C1143.56 599.736 1142.98 603.804 1141.83 607.476C1140.75 611.076 1139.1 614.208 1136.86 616.872C1134.7 619.464 1132 621.48 1128.76 622.92C1125.52 624.36 1121.82 625.08 1117.64 625.08C1113.68 625.08 1110.12 624.396 1106.95 623.028C1103.85 621.588 1101.19 619.572 1098.96 616.98C1096.72 614.316 1095.03 611.148 1093.88 607.476C1092.73 603.804 1092.15 599.736 1092.15 595.272C1092.15 589.008 1093.16 583.68 1095.18 579.288C1097.26 574.824 1100.25 571.404 1104.14 569.028C1108.1 566.652 1112.78 565.464 1118.18 565.464C1123.65 565.464 1128.26 566.724 1132 569.244C1135.82 571.692 1138.7 575.148 1140.64 579.612C1142.59 584.076 1143.56 589.296 1143.56 595.272ZM1098.52 595.272C1098.52 600.168 1099.21 604.488 1100.58 608.232C1101.94 611.904 1104.07 614.748 1106.95 616.764C1109.83 618.78 1113.43 619.788 1117.75 619.788C1122.21 619.788 1125.88 618.78 1128.76 616.764C1131.64 614.676 1133.77 611.796 1135.14 608.124C1136.5 604.38 1137.19 600.096 1137.19 595.272C1137.19 590.448 1136.54 586.2 1135.24 582.528C1133.95 578.856 1131.9 575.976 1129.09 573.888C1126.28 571.8 1122.61 570.756 1118.07 570.756C1111.52 570.756 1106.62 572.916 1103.38 577.236C1100.14 581.556 1098.52 587.568 1098.52 595.272ZM1204.46 566.544V624H1199.38L1198.52 614.172H1198.19C1197.18 616.26 1195.74 618.132 1193.87 619.788C1192.07 621.444 1189.91 622.74 1187.39 623.676C1184.87 624.612 1181.96 625.08 1178.64 625.08C1174.18 625.08 1170.44 624.324 1167.41 622.812C1164.46 621.228 1162.23 618.888 1160.72 615.792C1159.2 612.696 1158.45 608.844 1158.45 604.236V566.544H1164.6V603.696C1164.6 609.168 1165.83 613.236 1168.28 615.9C1170.8 618.492 1174.47 619.788 1179.29 619.788C1183.54 619.788 1187.07 618.996 1189.88 617.412C1192.68 615.756 1194.77 613.308 1196.14 610.068C1197.58 606.828 1198.3 602.796 1198.3 597.972V566.544H1204.46ZM1229.59 624H1223.43V541.92H1229.59V624ZM1269.16 625.08C1261.46 625.08 1255.52 622.632 1251.34 617.736C1247.24 612.768 1245.19 605.496 1245.19 595.92C1245.19 585.984 1247.35 578.424 1251.67 573.24C1256.06 568.056 1262.07 565.464 1269.7 565.464C1272.94 565.464 1275.75 565.968 1278.13 566.976C1280.5 567.912 1282.52 569.208 1284.18 570.864C1285.9 572.52 1287.24 574.392 1288.17 576.48H1288.6C1288.53 574.752 1288.42 572.88 1288.28 570.864C1288.21 568.776 1288.17 566.904 1288.17 565.248V541.92H1294.33V624H1289.36L1288.5 613.956H1288.17C1287.16 615.972 1285.83 617.844 1284.18 619.572C1282.52 621.228 1280.47 622.56 1278.02 623.568C1275.57 624.576 1272.62 625.08 1269.16 625.08ZM1269.92 619.788C1276.62 619.788 1281.33 617.772 1284.07 613.74C1286.88 609.708 1288.28 603.876 1288.28 596.244V595.272C1288.28 587.352 1286.88 581.304 1284.07 577.128C1281.33 572.88 1276.76 570.756 1270.35 570.756C1264.16 570.756 1259.48 572.952 1256.31 577.344C1253.14 581.664 1251.56 587.892 1251.56 596.028C1251.56 603.804 1253.07 609.708 1256.1 613.74C1259.12 617.772 1263.73 619.788 1269.92 619.788ZM1347.29 566.544V624H1341.24V566.544H1347.29ZM1344.27 545.268C1345.63 545.268 1346.68 545.7 1347.4 546.564C1348.12 547.356 1348.48 548.472 1348.48 549.912C1348.48 551.424 1348.12 552.612 1347.4 553.476C1346.68 554.268 1345.63 554.664 1344.27 554.664C1342.97 554.664 1341.96 554.268 1341.24 553.476C1340.52 552.612 1340.16 551.424 1340.16 549.912C1340.16 548.472 1340.52 547.356 1341.24 546.564C1341.96 545.7 1342.97 545.268 1344.27 545.268ZM1382.54 619.896C1384.13 619.896 1385.64 619.788 1387.08 619.572C1388.52 619.284 1389.78 618.96 1390.86 618.6V623.568C1389.78 624 1388.41 624.36 1386.76 624.648C1385.17 624.936 1383.48 625.08 1381.68 625.08C1378.51 625.08 1375.81 624.504 1373.58 623.352C1371.35 622.128 1369.62 620.256 1368.4 617.736C1367.24 615.216 1366.67 611.976 1366.67 608.016V571.512H1358.24V568.056L1366.67 566.112L1368.94 552.828H1372.82V566.544H1390.54V571.512H1372.82V607.8C1372.82 611.76 1373.62 614.784 1375.2 616.872C1376.78 618.888 1379.23 619.896 1382.54 619.896ZM1437.15 564.6C1437.15 566.688 1437.11 568.92 1437.04 571.296C1436.97 573.6 1436.86 575.508 1436.72 577.02H1437.15C1438.59 573.708 1440.93 570.972 1444.17 568.812C1447.48 566.58 1451.66 565.464 1456.7 565.464C1464.04 565.464 1469.77 567.984 1473.87 573.024C1478.05 577.992 1480.13 585.372 1480.13 595.164C1480.13 601.212 1479.2 606.468 1477.33 610.932C1475.53 615.396 1472.79 618.888 1469.12 621.408C1465.52 623.856 1461.09 625.08 1455.83 625.08C1451.01 625.08 1447.05 624.072 1443.95 622.056C1440.93 620.04 1438.7 617.592 1437.26 614.712H1436.72L1435.53 624H1430.99V541.92H1437.15V564.6ZM1455.83 570.756C1451.44 570.756 1447.84 571.692 1445.03 573.564C1442.3 575.436 1440.28 578.172 1438.99 581.772C1437.76 585.372 1437.15 589.836 1437.15 595.164V595.92C1437.15 603.696 1438.52 609.636 1441.25 613.74C1444.06 617.772 1448.67 619.788 1455.08 619.788C1461.27 619.788 1465.91 617.664 1469.01 613.416C1472.18 609.168 1473.76 603.084 1473.76 595.164C1473.76 587.028 1472.29 580.944 1469.33 576.912C1466.38 572.808 1461.88 570.756 1455.83 570.756ZM1517.46 565.464C1522.43 565.464 1526.53 566.616 1529.77 568.92C1533.09 571.152 1535.57 574.248 1537.23 578.208C1538.95 582.168 1539.82 586.74 1539.82 591.924V596.028H1498.78C1498.78 603.732 1500.54 609.6 1504.07 613.632C1507.67 617.664 1512.75 619.68 1519.3 619.68C1522.9 619.68 1526.03 619.392 1528.69 618.816C1531.36 618.24 1534.27 617.232 1537.44 615.792V621.408C1534.56 622.704 1531.72 623.64 1528.91 624.216C1526.1 624.792 1522.83 625.08 1519.08 625.08C1513.39 625.08 1508.53 623.892 1504.5 621.516C1500.54 619.14 1497.52 615.756 1495.43 611.364C1493.41 606.9 1492.41 601.716 1492.41 595.812C1492.41 589.908 1493.38 584.688 1495.32 580.152C1497.27 575.616 1500.11 572.052 1503.85 569.46C1507.6 566.796 1512.13 565.464 1517.46 565.464ZM1517.46 570.648C1512.13 570.648 1507.85 572.412 1504.61 575.94C1501.37 579.396 1499.46 584.4 1498.89 590.952H1533.45C1533.45 586.92 1532.87 583.392 1531.72 580.368C1530.57 577.344 1528.8 574.968 1526.43 573.24C1524.12 571.512 1521.13 570.648 1517.46 570.648ZM1561.18 601.644C1561.18 598.476 1561.43 595.848 1561.93 593.76C1562.51 591.6 1563.44 589.656 1564.74 587.928C1566.11 586.128 1567.98 584.328 1570.36 582.528C1573.02 580.368 1575.22 578.46 1576.94 576.804C1578.67 575.148 1579.97 573.384 1580.83 571.512C1581.7 569.64 1582.13 567.3 1582.13 564.492C1582.13 560.1 1580.76 556.824 1578.02 554.664C1575.29 552.432 1571.58 551.316 1566.9 551.316C1563.8 551.316 1560.96 551.676 1558.37 552.396C1555.85 553.116 1553.33 554.124 1550.81 555.42L1548.54 550.236C1551.56 548.796 1554.52 547.716 1557.4 546.996C1560.35 546.204 1563.62 545.808 1567.22 545.808C1573.7 545.808 1578.78 547.428 1582.45 550.668C1586.2 553.836 1588.07 558.408 1588.07 564.384C1588.07 567.84 1587.49 570.792 1586.34 573.24C1585.26 575.616 1583.71 577.776 1581.7 579.72C1579.68 581.664 1577.3 583.68 1574.57 585.768C1572.41 587.424 1570.72 589.008 1569.49 590.52C1568.34 591.96 1567.51 593.616 1567.01 595.488C1566.5 597.288 1566.25 599.52 1566.25 602.184V603.804H1561.18V601.644ZM1559.34 619.896C1559.34 618.096 1559.74 616.764 1560.53 615.9C1561.32 615.036 1562.47 614.604 1563.98 614.604C1565.57 614.604 1566.76 615.036 1567.55 615.9C1568.34 616.764 1568.74 618.096 1568.74 619.896C1568.74 621.624 1568.34 622.956 1567.55 623.892C1566.76 624.756 1565.57 625.188 1563.98 625.188C1562.47 625.188 1561.32 624.756 1560.53 623.892C1559.74 622.956 1559.34 621.624 1559.34 619.896Z" fill="#F2F2F2"/>
<path d="M113.128 1042.92C113.128 1044.49 112.832 1045.8 112.24 1046.86C111.648 1047.9 110.8 1048.68 109.696 1049.21C108.592 1049.74 107.264 1050 105.712 1050H101.752V1036.2H106.096C108.336 1036.2 110.064 1036.78 111.28 1037.93C112.512 1039.08 113.128 1040.74 113.128 1042.92ZM110.536 1042.99C110.536 1041.41 110.152 1040.22 109.384 1039.44C108.632 1038.64 107.52 1038.24 106.048 1038.24H104.248V1047.96H105.784C107.384 1047.96 108.576 1047.55 109.36 1046.74C110.144 1045.9 110.536 1044.66 110.536 1042.99ZM115.979 1036.2H124.019V1038.19H118.475V1041.84H123.659V1043.83H118.475V1048.01H124.019V1050H115.979V1036.2ZM135.302 1046.14C135.302 1046.92 135.102 1047.62 134.702 1048.25C134.302 1048.86 133.718 1049.34 132.95 1049.69C132.182 1050.02 131.254 1050.19 130.166 1050.19C129.59 1050.19 129.054 1050.16 128.558 1050.1C128.078 1050.05 127.638 1049.98 127.238 1049.88C126.838 1049.77 126.446 1049.63 126.062 1049.47V1047.22C126.686 1047.5 127.358 1047.74 128.078 1047.91C128.798 1048.09 129.51 1048.18 130.214 1048.18C131.014 1048.18 131.646 1048.02 132.11 1047.7C132.574 1047.36 132.806 1046.9 132.806 1046.33C132.806 1045.91 132.686 1045.57 132.446 1045.3C132.222 1045.02 131.878 1044.78 131.414 1044.55C130.966 1044.33 130.414 1044.1 129.758 1043.86C129.054 1043.57 128.43 1043.26 127.886 1042.94C127.358 1042.61 126.942 1042.19 126.638 1041.7C126.35 1041.2 126.206 1040.58 126.206 1039.82C126.206 1038.99 126.414 1038.3 126.83 1037.74C127.246 1037.18 127.814 1036.75 128.534 1036.46C129.27 1036.16 130.11 1036.01 131.054 1036.01C131.822 1036.01 132.542 1036.1 133.214 1036.27C133.902 1036.43 134.542 1036.64 135.134 1036.9L134.342 1038.82C133.75 1038.56 133.174 1038.36 132.614 1038.22C132.054 1038.07 131.51 1038 130.982 1038C130.262 1038 129.694 1038.15 129.278 1038.46C128.878 1038.76 128.678 1039.18 128.678 1039.73C128.678 1040.13 128.79 1040.46 129.014 1040.74C129.238 1041.01 129.574 1041.25 130.022 1041.46C130.486 1041.66 131.046 1041.9 131.702 1042.15C132.422 1042.44 133.054 1042.75 133.598 1043.09C134.142 1043.42 134.558 1043.83 134.846 1044.31C135.15 1044.78 135.302 1045.38 135.302 1046.14ZM136.933 1050V1048.58L138.565 1048.1V1038.1L136.933 1037.64V1036.2H142.693V1037.64L141.061 1038.1V1048.1L142.693 1048.58V1050H136.933ZM156.412 1049.35C155.708 1049.61 154.932 1049.82 154.084 1049.98C153.252 1050.12 152.356 1050.19 151.396 1050.19C149.988 1050.19 148.772 1049.93 147.748 1049.4C146.74 1048.86 145.964 1048.06 145.42 1047C144.892 1045.94 144.628 1044.65 144.628 1043.11C144.628 1041.7 144.9 1040.47 145.444 1039.42C146.004 1038.36 146.828 1037.53 147.916 1036.92C149.004 1036.31 150.332 1036.01 151.9 1036.01C152.716 1036.01 153.492 1036.09 154.228 1036.25C154.964 1036.39 155.628 1036.6 156.22 1036.87L155.38 1038.84C154.852 1038.58 154.292 1038.39 153.7 1038.26C153.124 1038.14 152.524 1038.07 151.9 1038.07C150.876 1038.07 150.012 1038.29 149.308 1038.72C148.62 1039.14 148.1 1039.73 147.748 1040.5C147.396 1041.25 147.22 1042.12 147.22 1043.11C147.22 1044.74 147.596 1045.99 148.348 1046.86C149.1 1047.72 150.22 1048.15 151.708 1048.15C152.14 1048.15 152.556 1048.12 152.956 1048.06C153.372 1047.99 153.724 1047.91 154.012 1047.82V1044.46H150.796V1042.46H156.412V1049.35ZM171.5 1036.2V1050H168.404L161.78 1039.13H161.684C161.7 1039.32 161.716 1039.56 161.732 1039.85C161.748 1040.14 161.764 1040.44 161.78 1040.76C161.796 1041.08 161.804 1041.4 161.804 1041.72C161.82 1042.04 161.828 1042.34 161.828 1042.61V1050H159.596V1036.2H162.716L169.316 1047H169.388C169.372 1046.82 169.356 1046.61 169.34 1046.35C169.324 1046.1 169.308 1045.82 169.292 1045.51C169.292 1045.21 169.284 1044.9 169.268 1044.6C169.268 1044.28 169.268 1043.97 169.268 1043.66V1036.2H171.5ZM174.082 1050V1048.58L175.714 1048.1V1038.1L174.082 1037.64V1036.2H179.842V1037.64L178.21 1038.1V1048.1L179.842 1048.58V1050H174.082ZM194.304 1036.2V1050H191.208L184.584 1039.13H184.488C184.504 1039.32 184.52 1039.56 184.536 1039.85C184.552 1040.14 184.568 1040.44 184.584 1040.76C184.6 1041.08 184.608 1041.4 184.608 1041.72C184.624 1042.04 184.632 1042.34 184.632 1042.61V1050H182.4V1036.2H185.52L192.12 1047H192.192C192.176 1046.82 192.16 1046.61 192.144 1046.35C192.128 1046.1 192.112 1045.82 192.096 1045.51C192.096 1045.21 192.088 1044.9 192.072 1044.6C192.072 1044.28 192.072 1043.97 192.072 1043.66V1036.2H194.304ZM208.982 1049.35C208.278 1049.61 207.502 1049.82 206.654 1049.98C205.822 1050.12 204.926 1050.19 203.966 1050.19C202.558 1050.19 201.342 1049.93 200.318 1049.4C199.31 1048.86 198.534 1048.06 197.99 1047C197.462 1045.94 197.198 1044.65 197.198 1043.11C197.198 1041.7 197.47 1040.47 198.014 1039.42C198.574 1038.36 199.398 1037.53 200.486 1036.92C201.574 1036.31 202.902 1036.01 204.47 1036.01C205.286 1036.01 206.062 1036.09 206.798 1036.25C207.534 1036.39 208.198 1036.6 208.79 1036.87L207.95 1038.84C207.422 1038.58 206.862 1038.39 206.27 1038.26C205.694 1038.14 205.094 1038.07 204.47 1038.07C203.446 1038.07 202.582 1038.29 201.878 1038.72C201.19 1039.14 200.67 1039.73 200.318 1040.5C199.966 1041.25 199.79 1042.12 199.79 1043.11C199.79 1044.74 200.166 1045.99 200.918 1046.86C201.67 1047.72 202.79 1048.15 204.278 1048.15C204.71 1048.15 205.126 1048.12 205.526 1048.06C205.942 1047.99 206.294 1047.91 206.582 1047.82V1044.46H203.366V1042.46H208.982V1049.35ZM222.384 1036.2C224.224 1036.2 225.592 1036.54 226.488 1037.21C227.4 1037.88 227.856 1038.87 227.856 1040.18C227.856 1041.08 227.632 1041.84 227.184 1042.46C226.736 1043.09 226.064 1043.57 225.168 1043.9L229.104 1050H226.296L223.008 1044.53H220.896V1050H218.4V1036.2H222.384ZM222.48 1042.58C223.392 1042.58 224.088 1042.41 224.568 1042.06C225.064 1041.69 225.312 1041.11 225.312 1040.33C225.312 1039.54 225.064 1038.99 224.568 1038.67C224.072 1038.34 223.328 1038.17 222.336 1038.17H220.896V1042.58H222.48ZM231.01 1036.2H239.05V1038.19H233.506V1041.84H238.69V1043.83H233.506V1048.01H239.05V1050H231.01V1036.2ZM250.333 1046.14C250.333 1046.92 250.133 1047.62 249.733 1048.25C249.333 1048.86 248.749 1049.34 247.981 1049.69C247.213 1050.02 246.285 1050.19 245.197 1050.19C244.621 1050.19 244.085 1050.16 243.589 1050.1C243.109 1050.05 242.669 1049.98 242.269 1049.88C241.869 1049.77 241.477 1049.63 241.093 1049.47V1047.22C241.717 1047.5 242.389 1047.74 243.109 1047.91C243.829 1048.09 244.541 1048.18 245.245 1048.18C246.045 1048.18 246.677 1048.02 247.141 1047.7C247.605 1047.36 247.837 1046.9 247.837 1046.33C247.837 1045.91 247.717 1045.57 247.477 1045.3C247.253 1045.02 246.909 1044.78 246.445 1044.55C245.997 1044.33 245.445 1044.1 244.789 1043.86C244.085 1043.57 243.461 1043.26 242.917 1042.94C242.389 1042.61 241.973 1042.19 241.669 1041.7C241.381 1041.2 241.237 1040.58 241.237 1039.82C241.237 1038.99 241.445 1038.3 241.861 1037.74C242.277 1037.18 242.845 1036.75 243.565 1036.46C244.301 1036.16 245.141 1036.01 246.085 1036.01C246.853 1036.01 247.573 1036.1 248.245 1036.27C248.933 1036.43 249.573 1036.64 250.165 1036.9L249.373 1038.82C248.781 1038.56 248.205 1038.36 247.645 1038.22C247.085 1038.07 246.541 1038 246.013 1038C245.293 1038 244.725 1038.15 244.309 1038.46C243.909 1038.76 243.709 1039.18 243.709 1039.73C243.709 1040.13 243.821 1040.46 244.045 1040.74C244.269 1041.01 244.605 1041.25 245.053 1041.46C245.517 1041.66 246.077 1041.9 246.733 1042.15C247.453 1042.44 248.085 1042.75 248.629 1043.09C249.173 1043.42 249.589 1043.83 249.877 1044.31C250.181 1044.78 250.333 1045.38 250.333 1046.14ZM257.1 1036.2C258.86 1036.2 260.164 1036.56 261.012 1037.28C261.876 1038 262.308 1039.04 262.308 1040.4C262.308 1041.06 262.196 1041.66 261.972 1042.22C261.764 1042.77 261.436 1043.25 260.988 1043.66C260.556 1044.06 260.004 1044.38 259.332 1044.6C258.66 1044.81 257.86 1044.91 256.932 1044.91H255.396V1050H252.9V1036.2H257.1ZM256.692 1042.9C257.636 1042.9 258.38 1042.72 258.924 1042.37C259.484 1042.02 259.764 1041.39 259.764 1040.5C259.764 1039.73 259.54 1039.15 259.092 1038.77C258.644 1038.38 257.956 1038.19 257.028 1038.19H255.396V1042.9H256.692ZM277.523 1043.09C277.523 1044.5 277.283 1045.74 276.803 1046.81C276.339 1047.88 275.619 1048.71 274.643 1049.3C273.683 1049.9 272.451 1050.19 270.947 1050.19C269.475 1050.19 268.243 1049.9 267.251 1049.3C266.275 1048.71 265.547 1047.88 265.067 1046.81C264.603 1045.72 264.371 1044.47 264.371 1043.06C264.371 1041.66 264.611 1040.42 265.091 1039.37C265.571 1038.3 266.299 1037.46 267.275 1036.87C268.251 1036.28 269.483 1035.98 270.971 1035.98C272.459 1035.98 273.683 1036.28 274.643 1036.87C275.619 1037.46 276.339 1038.3 276.803 1039.37C277.283 1040.42 277.523 1041.66 277.523 1043.09ZM266.987 1043.09C266.987 1044.1 267.123 1044.98 267.395 1045.73C267.667 1046.48 268.091 1047.06 268.667 1047.48C269.259 1047.9 270.019 1048.1 270.947 1048.1C271.875 1048.1 272.627 1047.9 273.203 1047.5C273.779 1047.09 274.203 1046.5 274.475 1045.75C274.747 1045 274.883 1044.11 274.883 1043.09C274.883 1041.5 274.563 1040.27 273.923 1039.39C273.283 1038.51 272.291 1038.07 270.947 1038.07C270.035 1038.07 269.283 1038.28 268.691 1038.7C268.115 1039.1 267.683 1039.67 267.395 1040.42C267.123 1041.16 266.987 1042.05 266.987 1043.09ZM292.297 1036.2V1050H289.201L282.577 1039.13H282.481C282.497 1039.32 282.513 1039.56 282.529 1039.85C282.545 1040.14 282.561 1040.44 282.577 1040.76C282.593 1041.08 282.601 1041.4 282.601 1041.72C282.617 1042.04 282.625 1042.34 282.625 1042.61V1050H280.393V1036.2H283.513L290.113 1047H290.185C290.169 1046.82 290.153 1046.61 290.137 1046.35C290.121 1046.1 290.105 1045.82 290.089 1045.51C290.089 1045.21 290.081 1044.9 290.065 1044.6C290.065 1044.28 290.065 1043.97 290.065 1043.66V1036.2H292.297ZM304.263 1046.14C304.263 1046.92 304.063 1047.62 303.663 1048.25C303.263 1048.86 302.679 1049.34 301.911 1049.69C301.143 1050.02 300.215 1050.19 299.127 1050.19C298.551 1050.19 298.015 1050.16 297.519 1050.1C297.039 1050.05 296.599 1049.98 296.199 1049.88C295.799 1049.77 295.407 1049.63 295.023 1049.47V1047.22C295.647 1047.5 296.319 1047.74 297.039 1047.91C297.759 1048.09 298.471 1048.18 299.175 1048.18C299.975 1048.18 300.607 1048.02 301.071 1047.7C301.535 1047.36 301.767 1046.9 301.767 1046.33C301.767 1045.91 301.647 1045.57 301.407 1045.3C301.183 1045.02 300.839 1044.78 300.375 1044.55C299.927 1044.33 299.375 1044.1 298.719 1043.86C298.015 1043.57 297.391 1043.26 296.847 1042.94C296.319 1042.61 295.903 1042.19 295.599 1041.7C295.311 1041.2 295.167 1040.58 295.167 1039.82C295.167 1038.99 295.375 1038.3 295.791 1037.74C296.207 1037.18 296.775 1036.75 297.495 1036.46C298.231 1036.16 299.071 1036.01 300.015 1036.01C300.783 1036.01 301.503 1036.1 302.175 1036.27C302.863 1036.43 303.503 1036.64 304.095 1036.9L303.303 1038.82C302.711 1038.56 302.135 1038.36 301.575 1038.22C301.015 1038.07 300.471 1038 299.943 1038C299.223 1038 298.655 1038.15 298.239 1038.46C297.839 1038.76 297.639 1039.18 297.639 1039.73C297.639 1040.13 297.751 1040.46 297.975 1040.74C298.199 1041.01 298.535 1041.25 298.983 1041.46C299.447 1041.66 300.007 1041.9 300.663 1042.15C301.383 1042.44 302.015 1042.75 302.559 1043.09C303.103 1043.42 303.519 1043.83 303.807 1044.31C304.111 1044.78 304.263 1045.38 304.263 1046.14ZM305.894 1050V1048.58L307.526 1048.1V1038.1L305.894 1037.64V1036.2H311.654V1037.64L310.022 1038.1V1048.1L311.654 1048.58V1050H305.894ZM318.581 1036.2C319.845 1036.2 320.869 1036.33 321.653 1036.58C322.453 1036.84 323.045 1037.22 323.429 1037.74C323.813 1038.25 324.005 1038.9 324.005 1039.68C324.005 1040.24 323.901 1040.73 323.693 1041.14C323.485 1041.56 323.189 1041.9 322.805 1042.18C322.437 1042.43 322.005 1042.61 321.509 1042.7V1042.78C322.053 1042.87 322.533 1043.04 322.949 1043.28C323.365 1043.52 323.693 1043.86 323.933 1044.31C324.173 1044.74 324.293 1045.31 324.293 1046.02C324.293 1047.31 323.829 1048.3 322.901 1048.99C321.973 1049.66 320.733 1050 319.181 1050H314.213V1036.2H318.581ZM318.797 1041.94C319.757 1041.94 320.437 1041.78 320.837 1041.46C321.237 1041.12 321.437 1040.63 321.437 1039.99C321.437 1039.35 321.205 1038.89 320.741 1038.6C320.277 1038.3 319.565 1038.14 318.605 1038.14H316.709V1041.94H318.797ZM318.989 1048.06C319.949 1048.06 320.645 1047.86 321.077 1047.48C321.525 1047.08 321.749 1046.53 321.749 1045.82C321.749 1045.2 321.517 1044.7 321.053 1044.34C320.605 1043.95 319.869 1043.76 318.845 1043.76H316.709V1048.06H318.989ZM329.6 1036.2V1047.96H335.576V1050H327.104V1036.2H329.6ZM337.932 1036.2H345.972V1038.19H340.428V1041.84H345.612V1043.83H340.428V1048.01H345.972V1050H337.932V1036.2ZM353.289 1050L358.401 1036.15H361.353L366.417 1050H363.705L362.481 1046.35H357.297L356.001 1050H353.289ZM360.633 1040.76C360.553 1040.54 360.465 1040.28 360.369 1039.99C360.273 1039.7 360.177 1039.41 360.081 1039.1C360.001 1038.8 359.929 1038.51 359.865 1038.24C359.801 1038.51 359.729 1038.8 359.649 1039.1C359.569 1039.39 359.481 1039.69 359.385 1039.99C359.305 1040.28 359.217 1040.54 359.121 1040.78L357.921 1044.31H361.809L360.633 1040.76ZM367.23 1050V1048.58L368.862 1048.1V1038.1L367.23 1037.64V1036.2H372.99V1037.64L371.358 1038.1V1048.1L372.99 1048.58V1050H367.23Z" fill="#F2F2F2"/>
<path d="M1634.27 1046.83C1632.67 1046.83 1631.47 1046.34 1630.67 1045.37C1629.89 1044.38 1629.5 1043.06 1629.5 1041.43C1629.5 1040.38 1629.68 1039.45 1630.05 1038.65C1630.43 1037.83 1630.99 1037.19 1631.71 1036.73C1632.43 1036.26 1633.31 1036.03 1634.37 1036.03C1634.87 1036.03 1635.37 1036.1 1635.88 1036.22C1636.39 1036.35 1636.87 1036.53 1637.32 1036.75L1636.63 1038.26C1636.23 1038.06 1635.83 1037.9 1635.45 1037.81C1635.08 1037.7 1634.73 1037.64 1634.39 1037.64C1633.45 1037.64 1632.71 1037.98 1632.19 1038.65C1631.67 1039.32 1631.42 1040.25 1631.42 1041.43C1631.42 1042.25 1631.51 1042.94 1631.71 1043.52C1631.91 1044.08 1632.23 1044.51 1632.67 1044.82C1633.1 1045.1 1633.67 1045.25 1634.37 1045.25C1634.74 1045.25 1635.15 1045.2 1635.59 1045.1C1636.06 1044.99 1636.49 1044.86 1636.89 1044.7V1046.26C1636.51 1046.42 1636.11 1046.55 1635.71 1046.66C1635.31 1046.78 1634.83 1046.83 1634.27 1046.83ZM1633.91 1050.24C1632.63 1050.24 1631.46 1050.02 1630.39 1049.59C1629.31 1049.16 1628.38 1048.55 1627.58 1047.77C1626.79 1046.97 1626.19 1046.03 1625.75 1044.96C1625.32 1043.89 1625.11 1042.71 1625.11 1041.43C1625.11 1040.17 1625.32 1039 1625.75 1037.93C1626.19 1036.86 1626.8 1035.93 1627.6 1035.14C1628.4 1034.34 1629.34 1033.73 1630.41 1033.3C1631.48 1032.85 1632.65 1032.62 1633.91 1032.62C1635.13 1032.62 1636.27 1032.84 1637.32 1033.27C1638.39 1033.7 1639.33 1034.32 1640.13 1035.12C1640.95 1035.9 1641.58 1036.83 1642.03 1037.9C1642.49 1038.98 1642.72 1040.15 1642.72 1041.43C1642.72 1042.71 1642.51 1043.89 1642.07 1044.96C1641.64 1046.03 1641.03 1046.97 1640.23 1047.77C1639.44 1048.55 1638.51 1049.16 1637.44 1049.59C1636.37 1050.02 1635.19 1050.24 1633.91 1050.24ZM1633.91 1048.9C1634.92 1048.9 1635.87 1048.71 1636.75 1048.34C1637.64 1047.98 1638.43 1047.46 1639.1 1046.78C1639.79 1046.11 1640.31 1045.33 1640.68 1044.43C1641.07 1043.52 1641.26 1042.52 1641.26 1041.43C1641.26 1040.41 1641.07 1039.45 1640.71 1038.55C1640.34 1037.64 1639.83 1036.84 1639.17 1036.15C1638.51 1035.46 1637.74 1034.93 1636.84 1034.54C1635.96 1034.16 1634.99 1033.97 1633.91 1033.97C1632.84 1033.97 1631.86 1034.15 1630.96 1034.52C1630.07 1034.89 1629.28 1035.41 1628.61 1036.08C1627.95 1036.74 1627.44 1037.52 1627.07 1038.43C1626.72 1039.34 1626.55 1040.34 1626.55 1041.43C1626.55 1042.47 1626.72 1043.45 1627.07 1044.36C1627.44 1045.26 1627.95 1046.05 1628.61 1046.74C1629.27 1047.41 1630.04 1047.94 1630.94 1048.32C1631.85 1048.7 1632.84 1048.9 1633.91 1048.9ZM1655.87 1036.2C1657.71 1036.2 1659.08 1036.54 1659.97 1037.21C1660.88 1037.88 1661.34 1038.87 1661.34 1040.18C1661.34 1041.08 1661.12 1041.84 1660.67 1042.46C1660.22 1043.09 1659.55 1043.57 1658.65 1043.9L1662.59 1050H1659.78L1656.49 1044.53H1654.38V1050H1651.88V1036.2H1655.87ZM1655.96 1042.58C1656.88 1042.58 1657.57 1042.41 1658.05 1042.06C1658.55 1041.69 1658.8 1041.11 1658.8 1040.33C1658.8 1039.54 1658.55 1038.99 1658.05 1038.67C1657.56 1038.34 1656.81 1038.17 1655.82 1038.17H1654.38V1042.58H1655.96ZM1662.74 1050L1667.85 1036.15H1670.81L1675.87 1050H1673.16L1671.93 1046.35H1666.75L1665.45 1050H1662.74ZM1670.09 1040.76C1670.01 1040.54 1669.92 1040.28 1669.82 1039.99C1669.73 1039.7 1669.63 1039.41 1669.53 1039.1C1669.45 1038.8 1669.38 1038.51 1669.32 1038.24C1669.25 1038.51 1669.18 1038.8 1669.1 1039.1C1669.02 1039.39 1668.93 1039.69 1668.84 1039.99C1668.76 1040.28 1668.67 1040.54 1668.57 1040.78L1667.37 1044.31H1671.26L1670.09 1040.76ZM1683.5 1038.07C1682.61 1038.07 1681.85 1038.28 1681.22 1038.7C1680.62 1039.1 1680.15 1039.67 1679.83 1040.42C1679.51 1041.18 1679.35 1042.07 1679.35 1043.11C1679.35 1044.7 1679.69 1045.93 1680.36 1046.81C1681.05 1047.69 1682.1 1048.13 1683.5 1048.13C1684.11 1048.13 1684.7 1048.06 1685.26 1047.94C1685.82 1047.81 1686.38 1047.63 1686.94 1047.41V1049.57C1686.39 1049.78 1685.81 1049.93 1685.18 1050.02C1684.58 1050.14 1683.91 1050.19 1683.19 1050.19C1681.74 1050.19 1680.53 1049.9 1679.57 1049.3C1678.62 1048.71 1677.91 1047.88 1677.43 1046.81C1676.97 1045.74 1676.74 1044.5 1676.74 1043.09C1676.74 1041.7 1677 1040.47 1677.53 1039.42C1678.07 1038.34 1678.85 1037.51 1679.86 1036.92C1680.86 1036.31 1682.07 1036.01 1683.48 1036.01C1684.17 1036.01 1684.86 1036.09 1685.54 1036.25C1686.23 1036.39 1686.88 1036.61 1687.49 1036.9L1686.7 1038.89C1686.18 1038.65 1685.66 1038.46 1685.14 1038.31C1684.61 1038.15 1684.06 1038.07 1683.5 1038.07ZM1701.08 1036.2V1050H1698.61V1043.86H1692.42V1050H1689.92V1036.2H1692.42V1041.79H1698.61V1036.2H1701.08ZM1704.62 1036.2H1712.66V1038.19H1707.12V1041.84H1712.3V1043.83H1707.12V1048.01H1712.66V1050H1704.62V1036.2ZM1717.99 1036.2V1047.96H1723.97V1050H1715.49V1036.2H1717.99ZM1730.8 1050L1735.92 1036.15H1738.87L1743.93 1050H1741.22L1740 1046.35H1734.81L1733.52 1050H1730.8ZM1738.15 1040.76C1738.07 1040.54 1737.98 1040.28 1737.88 1039.99C1737.79 1039.7 1737.69 1039.41 1737.6 1039.1C1737.52 1038.8 1737.44 1038.51 1737.38 1038.24C1737.32 1038.51 1737.24 1038.8 1737.16 1039.1C1737.08 1039.39 1737 1039.69 1736.9 1039.99C1736.82 1040.28 1736.73 1040.54 1736.64 1040.78L1735.44 1044.31H1739.32L1738.15 1040.76ZM1754.07 1036.2V1038.29H1750.09V1050H1747.62V1038.29H1743.63V1036.2H1754.07ZM1770.75 1036.2V1050H1768.42V1042.03C1768.42 1041.68 1768.42 1041.29 1768.42 1040.86C1768.44 1040.41 1768.45 1039.99 1768.47 1039.61C1768.49 1039.22 1768.5 1038.94 1768.52 1038.77H1768.45L1764.49 1050H1762.25L1758.32 1038.74H1758.25C1758.25 1038.92 1758.25 1039.21 1758.27 1039.61C1758.3 1039.99 1758.33 1040.41 1758.34 1040.86C1758.36 1041.3 1758.37 1041.73 1758.37 1042.13V1050H1756.13V1036.2H1759.54L1763.41 1047.1H1763.45L1767.34 1036.2H1770.75ZM1772.52 1050L1777.64 1036.15H1780.59L1785.65 1050H1782.94L1781.72 1046.35H1776.53L1775.24 1050H1772.52ZM1779.87 1040.76C1779.79 1040.54 1779.7 1040.28 1779.6 1039.99C1779.51 1039.7 1779.41 1039.41 1779.32 1039.1C1779.24 1038.8 1779.16 1038.51 1779.1 1038.24C1779.04 1038.51 1778.96 1038.8 1778.88 1039.1C1778.8 1039.39 1778.72 1039.69 1778.62 1039.99C1778.54 1040.28 1778.45 1040.54 1778.36 1040.78L1777.16 1044.31H1781.04L1779.87 1040.76ZM1798.78 1042.92C1798.78 1044.49 1798.48 1045.8 1797.89 1046.86C1797.3 1047.9 1796.45 1048.68 1795.34 1049.21C1794.24 1049.74 1792.91 1050 1791.36 1050H1787.4V1036.2H1791.74C1793.98 1036.2 1795.71 1036.78 1796.93 1037.93C1798.16 1039.08 1798.78 1040.74 1798.78 1042.92ZM1796.18 1042.99C1796.18 1041.41 1795.8 1040.22 1795.03 1039.44C1794.28 1038.64 1793.17 1038.24 1791.7 1038.24H1789.9V1047.96H1791.43C1793.03 1047.96 1794.22 1047.55 1795.01 1046.74C1795.79 1045.9 1796.18 1044.66 1796.18 1042.99ZM1799.95 1053.91C1799.59 1053.91 1799.28 1053.89 1799.01 1053.84C1798.72 1053.81 1798.47 1053.76 1798.24 1053.7V1051.75C1798.48 1051.8 1798.72 1051.84 1798.96 1051.87C1799.19 1051.92 1799.42 1051.94 1799.66 1051.94C1800.36 1051.94 1800.88 1051.74 1801.2 1051.34C1801.52 1050.96 1801.68 1050.34 1801.68 1049.47V1036.2H1804.15V1049.28C1804.15 1050.37 1803.98 1051.26 1803.64 1051.94C1803.31 1052.63 1802.83 1053.13 1802.2 1053.43C1801.58 1053.75 1800.83 1053.91 1799.95 1053.91ZM1805.88 1050L1810.99 1036.15H1813.94L1819 1050H1816.29L1815.07 1046.35H1809.88L1808.59 1050H1805.88ZM1813.22 1040.76C1813.14 1040.54 1813.05 1040.28 1812.96 1039.99C1812.86 1039.7 1812.76 1039.41 1812.67 1039.1C1812.59 1038.8 1812.52 1038.51 1812.45 1038.24C1812.39 1038.51 1812.32 1038.8 1812.24 1039.1C1812.16 1039.39 1812.07 1039.69 1811.97 1039.99C1811.89 1040.28 1811.8 1040.54 1811.71 1040.78L1810.51 1044.31H1814.4L1813.22 1040.76Z" fill="#F2F2F2"/>
</svg>
