<svg width="1920" height="1080" viewBox="0 0 1920 1080" fill="none" xmlns="http://www.w3.org/2000/svg">
<rect width="1920" height="1080" fill="#463237"/>
<path d="M252.08 435H229.508V431.112L237.716 429.924V363.072L229.508 361.776V357.888H252.08V361.776L243.872 363.072V429.924L252.08 431.112V435ZM289.399 382.512H275.683V435H269.527V382.512H258.943V379.164L269.527 377.436V371.604C269.527 367.284 270.139 363.72 271.363 360.912C272.659 358.032 274.567 355.908 277.087 354.54C279.679 353.1 282.883 352.38 286.699 352.38C288.715 352.38 290.551 352.56 292.207 352.92C293.863 353.208 295.375 353.568 296.743 354L295.231 359.076C294.007 358.644 292.639 358.284 291.127 357.996C289.687 357.708 288.211 357.564 286.699 357.564C282.811 357.564 280.003 358.68 278.275 360.912C276.547 363.072 275.683 366.636 275.683 371.604V377.544H289.399V382.512ZM318.922 377.544H325.51L339.118 413.292C339.91 415.38 340.63 417.324 341.278 419.124C341.926 420.924 342.502 422.616 343.006 424.2C343.51 425.712 343.942 427.116 344.302 428.412H344.626C345.13 426.756 345.814 424.632 346.678 422.04C347.542 419.376 348.55 416.496 349.702 413.4L363.094 377.544H369.682L343.762 445.26C342.466 448.572 341.026 451.416 339.442 453.792C337.858 456.168 335.986 457.968 333.826 459.192C331.666 460.488 329.074 461.136 326.05 461.136C324.682 461.136 323.422 461.028 322.27 460.812C321.19 460.668 320.146 460.452 319.138 460.164V454.98C320.074 455.196 321.01 455.376 321.946 455.52C322.954 455.736 324.07 455.844 325.294 455.844C327.31 455.844 329.074 455.412 330.586 454.548C332.098 453.756 333.43 452.496 334.582 450.768C335.734 449.112 336.778 447.024 337.714 444.504L341.494 434.784L318.922 377.544ZM427.111 406.272C427.111 410.736 426.535 414.804 425.383 418.476C424.303 422.076 422.647 425.208 420.415 427.872C418.255 430.464 415.555 432.48 412.315 433.92C409.075 435.36 405.367 436.08 401.191 436.08C397.231 436.08 393.667 435.396 390.499 434.028C387.403 432.588 384.739 430.572 382.507 427.98C380.275 425.316 378.583 422.148 377.431 418.476C376.279 414.804 375.703 410.736 375.703 406.272C375.703 400.008 376.711 394.68 378.727 390.288C380.815 385.824 383.803 382.404 387.691 380.028C391.651 377.652 396.331 376.464 401.731 376.464C407.203 376.464 411.811 377.724 415.555 380.244C419.371 382.692 422.251 386.148 424.195 390.612C426.139 395.076 427.111 400.296 427.111 406.272ZM382.075 406.272C382.075 411.168 382.759 415.488 384.127 419.232C385.495 422.904 387.619 425.748 390.499 427.764C393.379 429.78 396.979 430.788 401.299 430.788C405.763 430.788 409.435 429.78 412.315 427.764C415.195 425.676 417.319 422.796 418.687 419.124C420.055 415.38 420.739 411.096 420.739 406.272C420.739 401.448 420.091 397.2 418.795 393.528C417.499 389.856 415.447 386.976 412.639 384.888C409.831 382.8 406.159 381.756 401.623 381.756C395.071 381.756 390.175 383.916 386.935 388.236C383.695 392.556 382.075 398.568 382.075 406.272ZM488.006 377.544V435H482.93L482.066 425.172H481.742C480.734 427.26 479.294 429.132 477.422 430.788C475.622 432.444 473.462 433.74 470.942 434.676C468.422 435.612 465.506 436.08 462.194 436.08C457.73 436.08 453.986 435.324 450.962 433.812C448.01 432.228 445.778 429.888 444.266 426.792C442.754 423.696 441.998 419.844 441.998 415.236V377.544H448.154V414.696C448.154 420.168 449.378 424.236 451.826 426.9C454.346 429.492 458.018 430.788 462.842 430.788C467.09 430.788 470.618 429.996 473.426 428.412C476.234 426.756 478.322 424.308 479.69 421.068C481.13 417.828 481.85 413.796 481.85 408.972V377.544H488.006ZM558.043 436.08C552.427 436.08 547.639 434.928 543.679 432.624C539.791 430.248 536.803 426.864 534.715 422.472C532.699 418.08 531.691 412.788 531.691 406.596C531.691 400.116 532.843 394.644 535.147 390.18C537.523 385.716 540.763 382.332 544.867 380.028C548.971 377.652 553.795 376.464 559.339 376.464C562.075 376.464 564.631 376.752 567.007 377.328C569.455 377.832 571.615 378.516 573.487 379.38L571.867 384.564C569.923 383.772 567.835 383.16 565.603 382.728C563.371 382.224 561.247 381.972 559.231 381.972C554.623 381.972 550.735 382.98 547.567 384.996C544.471 386.94 542.095 389.748 540.439 393.42C538.855 397.092 538.063 401.484 538.063 406.596C538.063 411.348 538.747 415.56 540.115 419.232C541.555 422.832 543.751 425.64 546.703 427.656C549.655 429.672 553.435 430.68 558.043 430.68C560.851 430.68 563.479 430.392 565.927 429.816C568.447 429.24 570.751 428.484 572.839 427.548V433.164C570.967 433.956 568.807 434.64 566.359 435.216C563.911 435.792 561.139 436.08 558.043 436.08ZM606.706 376.572C613.186 376.572 618.01 378.156 621.178 381.324C624.346 384.492 625.93 389.532 625.93 396.444V435H621.286L620.206 425.28H619.882C618.514 427.44 616.93 429.348 615.13 431.004C613.402 432.588 611.278 433.848 608.758 434.784C606.31 435.648 603.286 436.08 599.686 436.08C596.086 436.08 592.954 435.468 590.29 434.244C587.626 432.948 585.574 431.112 584.134 428.736C582.694 426.36 581.974 423.444 581.974 419.988C581.974 414.3 584.314 409.98 588.994 407.028C593.674 404.004 600.478 402.276 609.406 401.844L619.882 401.412V397.308C619.882 391.62 618.73 387.624 616.426 385.32C614.194 382.944 610.846 381.756 606.382 381.756C603.43 381.756 600.586 382.152 597.85 382.944C595.186 383.664 592.486 384.708 589.75 386.076L587.806 381.216C590.47 379.848 593.422 378.732 596.662 377.868C599.902 377.004 603.25 376.572 606.706 376.572ZM610.054 406.38C602.782 406.74 597.346 408.036 593.746 410.268C590.146 412.428 588.346 415.704 588.346 420.096C588.346 423.624 589.462 426.324 591.694 428.196C593.926 429.996 596.95 430.896 600.766 430.896C606.886 430.896 611.566 429.204 614.806 425.82C618.118 422.436 619.81 417.684 619.882 411.564V405.948L610.054 406.38ZM670.009 376.464C676.561 376.464 681.565 378.156 685.021 381.54C688.477 384.924 690.205 390.252 690.205 397.524V435H684.157V397.848C684.157 392.304 682.897 388.236 680.377 385.644C677.857 383.052 674.149 381.756 669.253 381.756C662.989 381.756 658.273 383.592 655.105 387.264C651.937 390.936 650.353 396.408 650.353 403.68V435H644.305V377.544H649.165L650.137 387.48H650.461C651.541 385.392 652.981 383.52 654.781 381.864C656.581 380.208 658.741 378.912 661.261 377.976C663.853 376.968 666.769 376.464 670.009 376.464ZM759.594 436.08C753.978 436.08 749.19 434.928 745.23 432.624C741.342 430.248 738.354 426.864 736.266 422.472C734.25 418.08 733.242 412.788 733.242 406.596C733.242 400.116 734.394 394.644 736.698 390.18C739.074 385.716 742.314 382.332 746.418 380.028C750.522 377.652 755.346 376.464 760.89 376.464C763.626 376.464 766.182 376.752 768.558 377.328C771.006 377.832 773.166 378.516 775.038 379.38L773.418 384.564C771.474 383.772 769.386 383.16 767.154 382.728C764.922 382.224 762.798 381.972 760.782 381.972C756.174 381.972 752.286 382.98 749.118 384.996C746.022 386.94 743.646 389.748 741.99 393.42C740.406 397.092 739.614 401.484 739.614 406.596C739.614 411.348 740.298 415.56 741.666 419.232C743.106 422.832 745.302 425.64 748.254 427.656C751.206 429.672 754.986 430.68 759.594 430.68C762.402 430.68 765.03 430.392 767.478 429.816C769.998 429.24 772.302 428.484 774.39 427.548V433.164C772.518 433.956 770.358 434.64 767.91 435.216C765.462 435.792 762.69 436.08 759.594 436.08ZM836.013 406.272C836.013 410.736 835.437 414.804 834.285 418.476C833.205 422.076 831.549 425.208 829.317 427.872C827.157 430.464 824.457 432.48 821.217 433.92C817.977 435.36 814.269 436.08 810.093 436.08C806.133 436.08 802.569 435.396 799.401 434.028C796.305 432.588 793.641 430.572 791.409 427.98C789.177 425.316 787.485 422.148 786.333 418.476C785.181 414.804 784.605 410.736 784.605 406.272C784.605 400.008 785.613 394.68 787.629 390.288C789.717 385.824 792.705 382.404 796.593 380.028C800.553 377.652 805.233 376.464 810.633 376.464C816.105 376.464 820.713 377.724 824.457 380.244C828.273 382.692 831.153 386.148 833.097 390.612C835.041 395.076 836.013 400.296 836.013 406.272ZM790.977 406.272C790.977 411.168 791.661 415.488 793.029 419.232C794.397 422.904 796.521 425.748 799.401 427.764C802.281 429.78 805.881 430.788 810.201 430.788C814.665 430.788 818.337 429.78 821.217 427.764C824.097 425.676 826.221 422.796 827.589 419.124C828.957 415.38 829.641 411.096 829.641 406.272C829.641 401.448 828.993 397.2 827.697 393.528C826.401 389.856 824.349 386.976 821.541 384.888C818.733 382.8 815.061 381.756 810.525 381.756C803.973 381.756 799.077 383.916 795.837 388.236C792.597 392.556 790.977 398.568 790.977 406.272ZM877.36 376.464C883.912 376.464 888.916 378.156 892.372 381.54C895.828 384.924 897.556 390.252 897.556 397.524V435H891.508V397.848C891.508 392.304 890.248 388.236 887.728 385.644C885.208 383.052 881.5 381.756 876.604 381.756C870.34 381.756 865.624 383.592 862.456 387.264C859.288 390.936 857.704 396.408 857.704 403.68V435H851.656V377.544H856.516L857.488 387.48H857.812C858.892 385.392 860.332 383.52 862.132 381.864C863.932 380.208 866.092 378.912 868.612 377.976C871.204 376.968 874.12 376.464 877.36 376.464ZM932.087 430.896C933.671 430.896 935.183 430.788 936.623 430.572C938.063 430.284 939.323 429.96 940.403 429.6V434.568C939.323 435 937.955 435.36 936.299 435.648C934.715 435.936 933.023 436.08 931.223 436.08C928.055 436.08 925.355 435.504 923.123 434.352C920.891 433.128 919.163 431.256 917.939 428.736C916.787 426.216 916.211 422.976 916.211 419.016V382.512H907.787V379.056L916.211 377.112L918.479 363.828H922.367V377.544H940.079V382.512H922.367V418.8C922.367 422.76 923.159 425.784 924.743 427.872C926.327 429.888 928.775 430.896 932.087 430.896ZM976.134 376.572C977.574 376.572 978.942 376.68 980.238 376.896C981.606 377.04 982.83 377.256 983.91 377.544L983.046 383.16C981.894 382.872 980.742 382.656 979.59 382.512C978.438 382.296 977.178 382.188 975.81 382.188C973.218 382.188 970.878 382.692 968.79 383.7C966.702 384.708 964.902 386.148 963.39 388.02C961.878 389.892 960.726 392.124 959.934 394.716C959.142 397.308 958.746 400.224 958.746 403.464V435H952.59V377.544H957.774L958.422 388.344H958.746C959.682 386.112 960.942 384.132 962.526 382.404C964.182 380.604 966.162 379.2 968.466 378.192C970.77 377.112 973.326 376.572 976.134 376.572ZM1001.14 377.544V435H995.094V377.544H1001.14ZM998.118 356.268C999.486 356.268 1000.53 356.7 1001.25 357.564C1001.97 358.356 1002.33 359.472 1002.33 360.912C1002.33 362.424 1001.97 363.612 1001.25 364.476C1000.53 365.268 999.486 365.664 998.118 365.664C996.822 365.664 995.814 365.268 995.094 364.476C994.374 363.612 994.014 362.424 994.014 360.912C994.014 359.472 994.374 358.356 995.094 357.564C995.814 356.7 996.822 356.268 998.118 356.268ZM1026.24 375.6C1026.24 377.688 1026.21 379.92 1026.14 382.296C1026.06 384.6 1025.96 386.508 1025.81 388.02H1026.24C1027.68 384.708 1030.02 381.972 1033.26 379.812C1036.58 377.58 1040.75 376.464 1045.79 376.464C1053.14 376.464 1058.86 378.984 1062.96 384.024C1067.14 388.992 1069.23 396.372 1069.23 406.164C1069.23 412.212 1068.29 417.468 1066.42 421.932C1064.62 426.396 1061.88 429.888 1058.21 432.408C1054.61 434.856 1050.18 436.08 1044.93 436.08C1040.1 436.08 1036.14 435.072 1033.05 433.056C1030.02 431.04 1027.79 428.592 1026.35 425.712H1025.81L1024.62 435H1020.09V352.92H1026.24V375.6ZM1044.93 381.756C1040.54 381.756 1036.94 382.692 1034.13 384.564C1031.39 386.436 1029.38 389.172 1028.08 392.772C1026.86 396.372 1026.24 400.836 1026.24 406.164V406.92C1026.24 414.696 1027.61 420.636 1030.35 424.74C1033.16 428.772 1037.76 430.788 1044.17 430.788C1050.36 430.788 1055.01 428.664 1058.1 424.416C1061.27 420.168 1062.86 414.084 1062.86 406.164C1062.86 398.028 1061.38 391.944 1058.43 387.912C1055.48 383.808 1050.98 381.756 1044.93 381.756ZM1130.1 377.544V435H1125.02L1124.16 425.172H1123.84C1122.83 427.26 1121.39 429.132 1119.52 430.788C1117.72 432.444 1115.56 433.74 1113.04 434.676C1110.52 435.612 1107.6 436.08 1104.29 436.08C1099.82 436.08 1096.08 435.324 1093.06 433.812C1090.1 432.228 1087.87 429.888 1086.36 426.792C1084.85 423.696 1084.09 419.844 1084.09 415.236V377.544H1090.25V414.696C1090.25 420.168 1091.47 424.236 1093.92 426.9C1096.44 429.492 1100.11 430.788 1104.94 430.788C1109.18 430.788 1112.71 429.996 1115.52 428.412C1118.33 426.756 1120.42 424.308 1121.78 421.068C1123.22 417.828 1123.94 413.796 1123.94 408.972V377.544H1130.1ZM1165.28 430.896C1166.86 430.896 1168.37 430.788 1169.81 430.572C1171.25 430.284 1172.51 429.96 1173.59 429.6V434.568C1172.51 435 1171.15 435.36 1169.49 435.648C1167.91 435.936 1166.21 436.08 1164.41 436.08C1161.25 436.08 1158.55 435.504 1156.31 434.352C1154.08 433.128 1152.35 431.256 1151.13 428.736C1149.98 426.216 1149.4 422.976 1149.4 419.016V382.512H1140.98V379.056L1149.4 377.112L1151.67 363.828H1155.56V377.544H1173.27V382.512H1155.56V418.8C1155.56 422.76 1156.35 425.784 1157.93 427.872C1159.52 429.888 1161.97 430.896 1165.28 430.896ZM1207.49 376.464C1212.46 376.464 1216.56 377.616 1219.8 379.92C1223.11 382.152 1225.6 385.248 1227.25 389.208C1228.98 393.168 1229.85 397.74 1229.85 402.924V407.028H1188.81C1188.81 414.732 1190.57 420.6 1194.1 424.632C1197.7 428.664 1202.77 430.68 1209.33 430.68C1212.93 430.68 1216.06 430.392 1218.72 429.816C1221.39 429.24 1224.3 428.232 1227.47 426.792V432.408C1224.59 433.704 1221.75 434.64 1218.94 435.216C1216.13 435.792 1212.85 436.08 1209.11 436.08C1203.42 436.08 1198.56 434.892 1194.53 432.516C1190.57 430.14 1187.55 426.756 1185.46 422.364C1183.44 417.9 1182.43 412.716 1182.43 406.812C1182.43 400.908 1183.41 395.688 1185.35 391.152C1187.29 386.616 1190.14 383.052 1193.88 380.46C1197.63 377.796 1202.16 376.464 1207.49 376.464ZM1207.49 381.648C1202.16 381.648 1197.88 383.412 1194.64 386.94C1191.4 390.396 1189.49 395.4 1188.91 401.952H1223.47C1223.47 397.92 1222.9 394.392 1221.75 391.368C1220.59 388.344 1218.83 385.968 1216.45 384.24C1214.15 382.512 1211.16 381.648 1207.49 381.648ZM1321.49 406.272C1321.49 410.736 1320.91 414.804 1319.76 418.476C1318.68 422.076 1317.02 425.208 1314.79 427.872C1312.63 430.464 1309.93 432.48 1306.69 433.92C1303.45 435.36 1299.74 436.08 1295.57 436.08C1291.61 436.08 1288.04 435.396 1284.87 434.028C1281.78 432.588 1279.11 430.572 1276.88 427.98C1274.65 425.316 1272.96 422.148 1271.81 418.476C1270.65 414.804 1270.08 410.736 1270.08 406.272C1270.08 400.008 1271.09 394.68 1273.1 390.288C1275.19 385.824 1278.18 382.404 1282.07 380.028C1286.03 377.652 1290.71 376.464 1296.11 376.464C1301.58 376.464 1306.19 377.724 1309.93 380.244C1313.75 382.692 1316.63 386.148 1318.57 390.612C1320.51 395.076 1321.49 400.296 1321.49 406.272ZM1276.45 406.272C1276.45 411.168 1277.13 415.488 1278.5 419.232C1279.87 422.904 1281.99 425.748 1284.87 427.764C1287.75 429.78 1291.35 430.788 1295.67 430.788C1300.14 430.788 1303.81 429.78 1306.69 427.764C1309.57 425.676 1311.69 422.796 1313.06 419.124C1314.43 415.38 1315.11 411.096 1315.11 406.272C1315.11 401.448 1314.47 397.2 1313.17 393.528C1311.87 389.856 1309.82 386.976 1307.01 384.888C1304.21 382.8 1300.53 381.756 1296 381.756C1289.45 381.756 1284.55 383.916 1281.31 388.236C1278.07 392.556 1276.45 398.568 1276.45 406.272ZM1362.83 376.464C1369.39 376.464 1374.39 378.156 1377.85 381.54C1381.3 384.924 1383.03 390.252 1383.03 397.524V435H1376.98V397.848C1376.98 392.304 1375.72 388.236 1373.2 385.644C1370.68 383.052 1366.97 381.756 1362.08 381.756C1355.81 381.756 1351.1 383.592 1347.93 387.264C1344.76 390.936 1343.18 396.408 1343.18 403.68V435H1337.13V377.544H1341.99L1342.96 387.48H1343.29C1344.37 385.392 1345.81 383.52 1347.61 381.864C1349.41 380.208 1351.57 378.912 1354.09 377.976C1356.68 376.968 1359.59 376.464 1362.83 376.464ZM1423.07 376.464C1428.04 376.464 1432.14 377.616 1435.38 379.92C1438.69 382.152 1441.18 385.248 1442.83 389.208C1444.56 393.168 1445.42 397.74 1445.42 402.924V407.028H1404.38C1404.38 414.732 1406.15 420.6 1409.68 424.632C1413.28 428.664 1418.35 430.68 1424.9 430.68C1428.5 430.68 1431.64 430.392 1434.3 429.816C1436.96 429.24 1439.88 428.232 1443.05 426.792V432.408C1440.17 433.704 1437.32 434.64 1434.52 435.216C1431.71 435.792 1428.43 436.08 1424.69 436.08C1419 436.08 1414.14 434.892 1410.11 432.516C1406.15 430.14 1403.12 426.756 1401.04 422.364C1399.02 417.9 1398.01 412.716 1398.01 406.812C1398.01 400.908 1398.98 395.688 1400.93 391.152C1402.87 386.616 1405.72 383.052 1409.46 380.46C1413.2 377.796 1417.74 376.464 1423.07 376.464ZM1423.07 381.648C1417.74 381.648 1413.46 383.412 1410.22 386.94C1406.98 390.396 1405.07 395.4 1404.49 401.952H1439.05C1439.05 397.92 1438.48 394.392 1437.32 391.368C1436.17 388.344 1434.41 385.968 1432.03 384.24C1429.73 382.512 1426.74 381.648 1423.07 381.648ZM1505.2 430.896C1506.79 430.896 1508.3 430.788 1509.74 430.572C1511.18 430.284 1512.44 429.96 1513.52 429.6V434.568C1512.44 435 1511.07 435.36 1509.42 435.648C1507.83 435.936 1506.14 436.08 1504.34 436.08C1501.17 436.08 1498.47 435.504 1496.24 434.352C1494.01 433.128 1492.28 431.256 1491.06 428.736C1489.9 426.216 1489.33 422.976 1489.33 419.016V382.512H1480.9V379.056L1489.33 377.112L1491.6 363.828H1495.48V377.544H1513.2V382.512H1495.48V418.8C1495.48 422.76 1496.28 425.784 1497.86 427.872C1499.44 429.888 1501.89 430.896 1505.2 430.896ZM1531.76 379.272C1531.76 380.712 1531.72 382.116 1531.65 383.484C1531.58 384.852 1531.5 386.22 1531.43 387.588H1531.86C1532.87 385.428 1534.28 383.52 1536.08 381.864C1537.88 380.208 1540.04 378.912 1542.56 377.976C1545.15 377.04 1548.06 376.572 1551.3 376.572C1555.7 376.572 1559.4 377.328 1562.43 378.84C1565.45 380.28 1567.72 382.548 1569.23 385.644C1570.82 388.668 1571.61 392.628 1571.61 397.524V435H1565.56V397.848C1565.56 392.304 1564.3 388.236 1561.78 385.644C1559.26 383.052 1555.55 381.756 1550.66 381.756C1546.48 381.756 1542.99 382.584 1540.18 384.24C1537.37 385.824 1535.25 388.272 1533.81 391.584C1532.44 394.824 1531.76 398.856 1531.76 403.68V435H1525.71V352.92H1531.76V379.272ZM1595.99 377.544V435H1589.94V377.544H1595.99ZM1592.96 356.268C1594.33 356.268 1595.37 356.7 1596.09 357.564C1596.81 358.356 1597.17 359.472 1597.17 360.912C1597.17 362.424 1596.81 363.612 1596.09 364.476C1595.37 365.268 1594.33 365.664 1592.96 365.664C1591.67 365.664 1590.66 365.268 1589.94 364.476C1589.22 363.612 1588.86 362.424 1588.86 360.912C1588.86 359.472 1589.22 358.356 1589.94 357.564C1590.66 356.7 1591.67 356.268 1592.96 356.268ZM1640.74 376.464C1647.3 376.464 1652.3 378.156 1655.76 381.54C1659.21 384.924 1660.94 390.252 1660.94 397.524V435H1654.89V397.848C1654.89 392.304 1653.63 388.236 1651.11 385.644C1648.59 383.052 1644.88 381.756 1639.99 381.756C1633.72 381.756 1629.01 383.592 1625.84 387.264C1622.67 390.936 1621.09 396.408 1621.09 403.68V435H1615.04V377.544H1619.9L1620.87 387.48H1621.2C1622.28 385.392 1623.72 383.52 1625.52 381.864C1627.32 380.208 1629.48 378.912 1632 377.976C1634.59 376.968 1637.5 376.464 1640.74 376.464ZM1700.33 376.464C1704.87 376.464 1708.61 377.364 1711.56 379.164C1714.51 380.892 1716.89 383.268 1718.69 386.292H1719.12L1719.99 377.544H1724.95V436.836C1724.95 441.876 1724.09 446.16 1722.36 449.688C1720.63 453.288 1717.93 456.06 1714.26 458.004C1710.66 459.948 1705.95 460.92 1700.11 460.92C1695.87 460.92 1692.05 460.56 1688.67 459.84C1685.35 459.12 1682.37 458.184 1679.7 457.032V451.092C1681.5 451.956 1683.48 452.748 1685.64 453.468C1687.8 454.188 1690.11 454.728 1692.55 455.088C1695.07 455.448 1697.7 455.628 1700.44 455.628C1706.77 455.628 1711.42 453.972 1714.37 450.66C1717.39 447.348 1718.91 442.884 1718.91 437.268V433.812C1718.91 432.3 1718.91 430.788 1718.91 429.276C1718.98 427.692 1719.05 426.216 1719.12 424.848H1718.8C1717.14 428.52 1714.69 431.328 1711.45 433.272C1708.21 435.144 1704.25 436.08 1699.57 436.08C1692.16 436.08 1686.36 433.56 1682.19 428.52C1678.01 423.48 1675.92 416.244 1675.92 406.812C1675.92 400.548 1676.86 395.148 1678.73 390.612C1680.6 386.076 1683.34 382.584 1686.94 380.136C1690.61 377.688 1695.07 376.464 1700.33 376.464ZM1700.98 381.756C1696.8 381.756 1693.31 382.764 1690.5 384.78C1687.77 386.724 1685.71 389.568 1684.35 393.312C1682.98 396.984 1682.29 401.484 1682.29 406.812C1682.29 414.66 1683.84 420.636 1686.94 424.74C1690.03 428.844 1694.46 430.896 1700.22 430.896C1703.89 430.896 1706.92 430.356 1709.29 429.276C1711.67 428.124 1713.54 426.54 1714.91 424.524C1716.35 422.508 1717.36 420.132 1717.93 417.396C1718.58 414.588 1718.91 411.6 1718.91 408.432V404.652C1718.91 399.756 1718.33 395.616 1717.18 392.232C1716.03 388.848 1714.12 386.256 1711.45 384.456C1708.86 382.656 1705.37 381.756 1700.98 381.756ZM249.704 554.896C251.288 554.896 252.8 554.788 254.24 554.572C255.68 554.284 256.94 553.96 258.02 553.6V558.568C256.94 559 255.572 559.36 253.916 559.648C252.332 559.936 250.64 560.08 248.84 560.08C245.672 560.08 242.972 559.504 240.74 558.352C238.508 557.128 236.78 555.256 235.556 552.736C234.404 550.216 233.828 546.976 233.828 543.016V506.512H225.404V503.056L233.828 501.112L236.096 487.828H239.984V501.544H257.696V506.512H239.984V542.8C239.984 546.76 240.776 549.784 242.36 551.872C243.944 553.888 246.392 554.896 249.704 554.896ZM318.267 530.272C318.267 534.736 317.691 538.804 316.539 542.476C315.459 546.076 313.803 549.208 311.571 551.872C309.411 554.464 306.711 556.48 303.471 557.92C300.231 559.36 296.523 560.08 292.347 560.08C288.387 560.08 284.823 559.396 281.655 558.028C278.559 556.588 275.895 554.572 273.663 551.98C271.431 549.316 269.739 546.148 268.587 542.476C267.435 538.804 266.859 534.736 266.859 530.272C266.859 524.008 267.867 518.68 269.883 514.288C271.971 509.824 274.959 506.404 278.847 504.028C282.807 501.652 287.487 500.464 292.887 500.464C298.359 500.464 302.967 501.724 306.711 504.244C310.527 506.692 313.407 510.148 315.351 514.612C317.295 519.076 318.267 524.296 318.267 530.272ZM273.231 530.272C273.231 535.168 273.915 539.488 275.283 543.232C276.651 546.904 278.775 549.748 281.655 551.764C284.535 553.78 288.135 554.788 292.455 554.788C296.919 554.788 300.591 553.78 303.471 551.764C306.351 549.676 308.475 546.796 309.843 543.124C311.211 539.38 311.895 535.096 311.895 530.272C311.895 525.448 311.247 521.2 309.951 517.528C308.655 513.856 306.603 510.976 303.795 508.888C300.987 506.8 297.315 505.756 292.779 505.756C286.227 505.756 281.331 507.916 278.091 512.236C274.851 516.556 273.231 522.568 273.231 530.272ZM368.013 499.6C368.013 501.688 367.977 503.92 367.905 506.296C367.833 508.6 367.725 510.508 367.581 512.02H368.013C369.453 508.708 371.793 505.972 375.033 503.812C378.345 501.58 382.521 500.464 387.561 500.464C394.905 500.464 400.629 502.984 404.733 508.024C408.909 512.992 410.997 520.372 410.997 530.164C410.997 536.212 410.061 541.468 408.189 545.932C406.389 550.396 403.653 553.888 399.981 556.408C396.381 558.856 391.953 560.08 386.697 560.08C381.873 560.08 377.913 559.072 374.817 557.056C371.793 555.04 369.561 552.592 368.121 549.712H367.581L366.393 559H361.857V476.92H368.013V499.6ZM386.697 505.756C382.305 505.756 378.705 506.692 375.897 508.564C373.161 510.436 371.145 513.172 369.849 516.772C368.625 520.372 368.013 524.836 368.013 530.164V530.92C368.013 538.696 369.381 544.636 372.117 548.74C374.925 552.772 379.533 554.788 385.941 554.788C392.133 554.788 396.777 552.664 399.873 548.416C403.041 544.168 404.625 538.084 404.625 530.164C404.625 522.028 403.149 515.944 400.197 511.912C397.245 507.808 392.745 505.756 386.697 505.756ZM450.161 500.572C451.601 500.572 452.969 500.68 454.265 500.896C455.633 501.04 456.857 501.256 457.937 501.544L457.073 507.16C455.921 506.872 454.769 506.656 453.617 506.512C452.465 506.296 451.205 506.188 449.837 506.188C447.245 506.188 444.905 506.692 442.817 507.7C440.729 508.708 438.929 510.148 437.417 512.02C435.905 513.892 434.753 516.124 433.961 518.716C433.169 521.308 432.773 524.224 432.773 527.464V559H426.617V501.544H431.801L432.449 512.344H432.773C433.709 510.112 434.969 508.132 436.553 506.404C438.209 504.604 440.189 503.2 442.493 502.192C444.797 501.112 447.353 500.572 450.161 500.572ZM475.169 501.544V559H469.121V501.544H475.169ZM472.145 480.268C473.513 480.268 474.557 480.7 475.277 481.564C475.997 482.356 476.357 483.472 476.357 484.912C476.357 486.424 475.997 487.612 475.277 488.476C474.557 489.268 473.513 489.664 472.145 489.664C470.849 489.664 469.841 489.268 469.121 488.476C468.401 487.612 468.041 486.424 468.041 484.912C468.041 483.472 468.401 482.356 469.121 481.564C469.841 480.7 470.849 480.268 472.145 480.268ZM519.927 500.464C526.479 500.464 531.483 502.156 534.939 505.54C538.395 508.924 540.123 514.252 540.123 521.524V559H534.075V521.848C534.075 516.304 532.815 512.236 530.295 509.644C527.775 507.052 524.067 505.756 519.171 505.756C512.907 505.756 508.191 507.592 505.023 511.264C501.855 514.936 500.271 520.408 500.271 527.68V559H494.223V501.544H499.083L500.055 511.48H500.379C501.459 509.392 502.899 507.52 504.699 505.864C506.499 504.208 508.659 502.912 511.179 501.976C513.771 500.968 516.687 500.464 519.927 500.464ZM579.513 500.464C584.049 500.464 587.793 501.364 590.745 503.164C593.697 504.892 596.073 507.268 597.873 510.292H598.305L599.169 501.544H604.137V560.836C604.137 565.876 603.273 570.16 601.545 573.688C599.817 577.288 597.117 580.06 593.445 582.004C589.845 583.948 585.129 584.92 579.297 584.92C575.049 584.92 571.233 584.56 567.849 583.84C564.537 583.12 561.549 582.184 558.885 581.032V575.092C560.685 575.956 562.665 576.748 564.825 577.468C566.985 578.188 569.289 578.728 571.737 579.088C574.257 579.448 576.885 579.628 579.621 579.628C585.957 579.628 590.601 577.972 593.553 574.66C596.577 571.348 598.089 566.884 598.089 561.268V557.812C598.089 556.3 598.089 554.788 598.089 553.276C598.161 551.692 598.233 550.216 598.305 548.848H597.981C596.325 552.52 593.877 555.328 590.637 557.272C587.397 559.144 583.437 560.08 578.757 560.08C571.341 560.08 565.545 557.56 561.369 552.52C557.193 547.48 555.105 540.244 555.105 530.812C555.105 524.548 556.041 519.148 557.913 514.612C559.785 510.076 562.521 506.584 566.121 504.136C569.793 501.688 574.257 500.464 579.513 500.464ZM580.161 505.756C575.985 505.756 572.493 506.764 569.685 508.78C566.949 510.724 564.897 513.568 563.529 517.312C562.161 520.984 561.477 525.484 561.477 530.812C561.477 538.66 563.025 544.636 566.121 548.74C569.217 552.844 573.645 554.896 579.405 554.896C583.077 554.896 586.101 554.356 588.477 553.276C590.853 552.124 592.725 550.54 594.093 548.524C595.533 546.508 596.541 544.132 597.117 541.396C597.765 538.588 598.089 535.6 598.089 532.432V528.652C598.089 523.756 597.513 519.616 596.361 516.232C595.209 512.848 593.301 510.256 590.637 508.456C588.045 506.656 584.553 505.756 580.161 505.756ZM674.704 500.572C676.144 500.572 677.512 500.68 678.808 500.896C680.176 501.04 681.4 501.256 682.48 501.544L681.616 507.16C680.464 506.872 679.312 506.656 678.16 506.512C677.008 506.296 675.748 506.188 674.38 506.188C671.788 506.188 669.448 506.692 667.36 507.7C665.272 508.708 663.472 510.148 661.96 512.02C660.448 513.892 659.296 516.124 658.504 518.716C657.712 521.308 657.316 524.224 657.316 527.464V559H651.16V501.544H656.344L656.992 512.344H657.316C658.252 510.112 659.512 508.132 661.096 506.404C662.752 504.604 664.732 503.2 667.036 502.192C669.34 501.112 671.896 500.572 674.704 500.572ZM713.263 500.464C718.231 500.464 722.335 501.616 725.575 503.92C728.887 506.152 731.371 509.248 733.027 513.208C734.755 517.168 735.619 521.74 735.619 526.924V531.028H694.579C694.579 538.732 696.343 544.6 699.871 548.632C703.471 552.664 708.547 554.68 715.099 554.68C718.699 554.68 721.831 554.392 724.495 553.816C727.159 553.24 730.075 552.232 733.243 550.792V556.408C730.363 557.704 727.519 558.64 724.711 559.216C721.903 559.792 718.627 560.08 714.883 560.08C709.195 560.08 704.335 558.892 700.303 556.516C696.343 554.14 693.319 550.756 691.231 546.364C689.215 541.9 688.207 536.716 688.207 530.812C688.207 524.908 689.179 519.688 691.123 515.152C693.067 510.616 695.911 507.052 699.655 504.46C703.399 501.796 707.935 500.464 713.263 500.464ZM713.263 505.648C707.935 505.648 703.651 507.412 700.411 510.94C697.171 514.396 695.263 519.4 694.687 525.952H729.247C729.247 521.92 728.671 518.392 727.519 515.368C726.367 512.344 724.603 509.968 722.227 508.24C719.923 506.512 716.935 505.648 713.263 505.648ZM787.217 543.772C787.217 547.228 786.353 550.18 784.625 552.628C782.897 555.076 780.377 556.948 777.065 558.244C773.753 559.468 769.721 560.08 764.969 560.08C761.009 560.08 757.481 559.72 754.385 559C751.289 558.28 748.661 557.416 746.501 556.408V550.468C749.093 551.764 752.009 552.844 755.249 553.708C758.489 554.5 761.765 554.896 765.077 554.896C770.837 554.896 774.977 553.96 777.497 552.088C780.017 550.144 781.277 547.516 781.277 544.204C781.277 542.044 780.665 540.28 779.441 538.912C778.289 537.472 776.525 536.212 774.149 535.132C771.845 533.98 768.965 532.828 765.509 531.676C761.981 530.452 758.849 529.228 756.113 528.004C753.377 526.708 751.253 525.088 749.741 523.144C748.229 521.2 747.473 518.536 747.473 515.152C747.473 510.544 749.345 506.944 753.089 504.352C756.833 501.76 761.837 500.464 768.101 500.464C771.557 500.464 774.761 500.788 777.713 501.436C780.737 502.084 783.473 502.948 785.921 504.028L783.761 509.104C782.321 508.456 780.701 507.88 778.901 507.376C777.101 506.8 775.265 506.368 773.393 506.08C771.521 505.792 769.649 505.648 767.777 505.648C763.241 505.648 759.713 506.44 757.193 508.024C754.673 509.608 753.413 511.912 753.413 514.936C753.413 517.24 753.989 519.076 755.141 520.444C756.365 521.74 758.129 522.856 760.433 523.792C762.809 524.728 765.653 525.808 768.965 527.032C772.349 528.184 775.409 529.408 778.145 530.704C780.953 532 783.149 533.656 784.733 535.672C786.389 537.688 787.217 540.388 787.217 543.772ZM827.368 500.464C834.712 500.464 840.436 502.948 844.54 507.916C848.716 512.884 850.804 520.228 850.804 529.948C850.804 536.428 849.832 541.936 847.888 546.472C845.944 550.936 843.172 554.32 839.572 556.624C836.044 558.928 831.796 560.08 826.828 560.08C823.444 560.08 820.492 559.576 817.972 558.568C815.452 557.56 813.364 556.228 811.708 554.572C810.052 552.916 808.756 551.08 807.82 549.064H807.388C807.532 550.864 807.64 552.844 807.712 555.004C807.784 557.092 807.82 559.036 807.82 560.836V584.488H801.664V501.544H806.74L807.496 512.344H807.82C808.756 510.256 810.088 508.312 811.816 506.512C813.544 504.712 815.668 503.272 818.188 502.192C820.78 501.04 823.84 500.464 827.368 500.464ZM826.504 505.756C822.256 505.756 818.764 506.656 816.028 508.456C813.292 510.256 811.24 512.92 809.872 516.448C808.504 519.904 807.82 524.188 807.82 529.3V530.38C807.82 535.78 808.468 540.316 809.764 543.988C811.132 547.588 813.148 550.288 815.812 552.088C818.548 553.888 821.968 554.788 826.072 554.788C830.104 554.788 833.452 553.816 836.116 551.872C838.852 549.856 840.904 547.012 842.272 543.34C843.712 539.596 844.432 535.132 844.432 529.948C844.432 522.1 842.956 516.124 840.004 512.02C837.052 507.844 832.552 505.756 826.504 505.756ZM914.377 530.272C914.377 534.736 913.801 538.804 912.649 542.476C911.569 546.076 909.913 549.208 907.681 551.872C905.521 554.464 902.821 556.48 899.581 557.92C896.341 559.36 892.633 560.08 888.457 560.08C884.497 560.08 880.933 559.396 877.765 558.028C874.669 556.588 872.005 554.572 869.773 551.98C867.541 549.316 865.849 546.148 864.697 542.476C863.545 538.804 862.969 534.736 862.969 530.272C862.969 524.008 863.977 518.68 865.993 514.288C868.081 509.824 871.069 506.404 874.957 504.028C878.917 501.652 883.597 500.464 888.997 500.464C894.469 500.464 899.077 501.724 902.821 504.244C906.637 506.692 909.517 510.148 911.461 514.612C913.405 519.076 914.377 524.296 914.377 530.272ZM869.341 530.272C869.341 535.168 870.025 539.488 871.393 543.232C872.761 546.904 874.885 549.748 877.765 551.764C880.645 553.78 884.245 554.788 888.564 554.788C893.029 554.788 896.701 553.78 899.581 551.764C902.461 549.676 904.585 546.796 905.953 543.124C907.321 539.38 908.005 535.096 908.005 530.272C908.005 525.448 907.357 521.2 906.061 517.528C904.765 513.856 902.713 510.976 899.905 508.888C897.097 506.8 893.425 505.756 888.889 505.756C882.337 505.756 877.441 507.916 874.201 512.236C870.961 516.556 869.341 522.568 869.341 530.272ZM955.724 500.464C962.276 500.464 967.28 502.156 970.736 505.54C974.192 508.924 975.92 514.252 975.92 521.524V559H969.872V521.848C969.872 516.304 968.612 512.236 966.092 509.644C963.572 507.052 959.864 505.756 954.968 505.756C948.704 505.756 943.988 507.592 940.82 511.264C937.652 514.936 936.068 520.408 936.068 527.68V559H930.02V501.544H934.88L935.852 511.48H936.176C937.256 509.392 938.696 507.52 940.496 505.864C942.296 504.208 944.456 502.912 946.976 501.976C949.568 500.968 952.484 500.464 955.724 500.464ZM1030.32 543.772C1030.32 547.228 1029.46 550.18 1027.73 552.628C1026 555.076 1023.48 556.948 1020.17 558.244C1016.86 559.468 1012.83 560.08 1008.07 560.08C1004.11 560.08 1000.59 559.72 997.49 559C994.394 558.28 991.766 557.416 989.606 556.408V550.468C992.198 551.764 995.114 552.844 998.354 553.708C1001.59 554.5 1004.87 554.896 1008.18 554.896C1013.94 554.896 1018.08 553.96 1020.6 552.088C1023.12 550.144 1024.38 547.516 1024.38 544.204C1024.38 542.044 1023.77 540.28 1022.55 538.912C1021.39 537.472 1019.63 536.212 1017.25 535.132C1014.95 533.98 1012.07 532.828 1008.61 531.676C1005.09 530.452 1001.95 529.228 999.218 528.004C996.482 526.708 994.358 525.088 992.846 523.144C991.334 521.2 990.578 518.536 990.578 515.152C990.578 510.544 992.45 506.944 996.194 504.352C999.938 501.76 1004.94 500.464 1011.21 500.464C1014.66 500.464 1017.87 500.788 1020.82 501.436C1023.84 502.084 1026.58 502.948 1029.03 504.028L1026.87 509.104C1025.43 508.456 1023.81 507.88 1022.01 507.376C1020.21 506.8 1018.37 506.368 1016.5 506.08C1014.63 505.792 1012.75 505.648 1010.88 505.648C1006.35 505.648 1002.82 506.44 1000.3 508.024C997.778 509.608 996.518 511.912 996.518 514.936C996.518 517.24 997.094 519.076 998.246 520.444C999.47 521.74 1001.23 522.856 1003.54 523.792C1005.91 524.728 1008.76 525.808 1012.07 527.032C1015.45 528.184 1018.51 529.408 1021.25 530.704C1024.06 532 1026.25 533.656 1027.84 535.672C1029.49 537.688 1030.32 540.388 1030.32 543.772ZM1050.82 501.544V559H1044.77V501.544H1050.82ZM1047.79 480.268C1049.16 480.268 1050.21 480.7 1050.93 481.564C1051.65 482.356 1052.01 483.472 1052.01 484.912C1052.01 486.424 1051.65 487.612 1050.93 488.476C1050.21 489.268 1049.16 489.664 1047.79 489.664C1046.5 489.664 1045.49 489.268 1044.77 488.476C1044.05 487.612 1043.69 486.424 1043.69 484.912C1043.69 483.472 1044.05 482.356 1044.77 481.564C1045.49 480.7 1046.5 480.268 1047.79 480.268ZM1075.92 499.6C1075.92 501.688 1075.88 503.92 1075.81 506.296C1075.74 508.6 1075.63 510.508 1075.49 512.02H1075.92C1077.36 508.708 1079.7 505.972 1082.94 503.812C1086.25 501.58 1090.43 500.464 1095.47 500.464C1102.81 500.464 1108.54 502.984 1112.64 508.024C1116.82 512.992 1118.9 520.372 1118.9 530.164C1118.9 536.212 1117.97 541.468 1116.1 545.932C1114.3 550.396 1111.56 553.888 1107.89 556.408C1104.29 558.856 1099.86 560.08 1094.6 560.08C1089.78 560.08 1085.82 559.072 1082.72 557.056C1079.7 555.04 1077.47 552.592 1076.03 549.712H1075.49L1074.3 559H1069.76V476.92H1075.92V499.6ZM1094.6 505.756C1090.21 505.756 1086.61 506.692 1083.8 508.564C1081.07 510.436 1079.05 513.172 1077.76 516.772C1076.53 520.372 1075.92 524.836 1075.92 530.164V530.92C1075.92 538.696 1077.29 544.636 1080.02 548.74C1082.83 552.772 1087.44 554.788 1093.85 554.788C1100.04 554.788 1104.68 552.664 1107.78 548.416C1110.95 544.168 1112.53 538.084 1112.53 530.164C1112.53 522.028 1111.06 515.944 1108.1 511.912C1105.15 507.808 1100.65 505.756 1094.6 505.756ZM1140.68 559H1134.52V476.92H1140.68V559ZM1181.33 500.464C1186.3 500.464 1190.41 501.616 1193.65 503.92C1196.96 506.152 1199.44 509.248 1201.1 513.208C1202.83 517.168 1203.69 521.74 1203.69 526.924V531.028H1162.65C1162.65 538.732 1164.41 544.6 1167.94 548.632C1171.54 552.664 1176.62 554.68 1183.17 554.68C1186.77 554.68 1189.9 554.392 1192.57 553.816C1195.23 553.24 1198.15 552.232 1201.31 550.792V556.408C1198.43 557.704 1195.59 558.64 1192.78 559.216C1189.97 559.792 1186.7 560.08 1182.95 560.08C1177.27 560.08 1172.41 558.892 1168.37 556.516C1164.41 554.14 1161.39 550.756 1159.3 546.364C1157.29 541.9 1156.28 536.716 1156.28 530.812C1156.28 524.908 1157.25 519.688 1159.19 515.152C1161.14 510.616 1163.98 507.052 1167.73 504.46C1171.47 501.796 1176.01 500.464 1181.33 500.464ZM1181.33 505.648C1176.01 505.648 1171.72 507.412 1168.48 510.94C1165.24 514.396 1163.33 519.4 1162.76 525.952H1197.32C1197.32 521.92 1196.74 518.392 1195.59 515.368C1194.44 512.344 1192.67 509.968 1190.3 508.24C1187.99 506.512 1185.01 505.648 1181.33 505.648ZM1296.84 559L1286.58 532.432H1254.51L1244.14 559H1237.77L1268.11 481.672H1273.73L1303.32 559H1296.84ZM1274.27 498.952C1274.05 498.232 1273.73 497.26 1273.3 496.036C1272.87 494.812 1272.43 493.516 1272 492.148C1271.57 490.78 1271.14 489.556 1270.71 488.476C1270.35 489.7 1269.95 490.96 1269.52 492.256C1269.16 493.552 1268.76 494.776 1268.33 495.928C1267.97 497.08 1267.61 498.124 1267.25 499.06L1256.67 526.816H1284.64L1274.27 498.952ZM1331.55 559H1308.98V555.112L1317.19 553.924V487.072L1308.98 485.776V481.888H1331.55V485.776L1323.34 487.072V553.924L1331.55 555.112V559ZM1380.62 501.544V559H1374.57V501.544H1380.62ZM1377.59 480.268C1378.96 480.268 1380.01 480.7 1380.73 481.564C1381.45 482.356 1381.81 483.472 1381.81 484.912C1381.81 486.424 1381.45 487.612 1380.73 488.476C1380.01 489.268 1378.96 489.664 1377.59 489.664C1376.3 489.664 1375.29 489.268 1374.57 488.476C1373.85 487.612 1373.49 486.424 1373.49 484.912C1373.49 483.472 1373.85 482.356 1374.57 481.564C1375.29 480.7 1376.3 480.268 1377.59 480.268ZM1425.38 500.464C1431.93 500.464 1436.93 502.156 1440.39 505.54C1443.84 508.924 1445.57 514.252 1445.57 521.524V559H1439.52V521.848C1439.52 516.304 1438.26 512.236 1435.74 509.644C1433.22 507.052 1429.52 505.756 1424.62 505.756C1418.36 505.756 1413.64 507.592 1410.47 511.264C1407.3 514.936 1405.72 520.408 1405.72 527.68V559H1399.67V501.544H1404.53L1405.5 511.48H1405.83C1406.91 509.392 1408.35 507.52 1410.15 505.864C1411.95 504.208 1414.11 502.912 1416.63 501.976C1419.22 500.968 1422.14 500.464 1425.38 500.464ZM1480.1 554.896C1481.69 554.896 1483.2 554.788 1484.64 554.572C1486.08 554.284 1487.34 553.96 1488.42 553.6V558.568C1487.34 559 1485.97 559.36 1484.31 559.648C1482.73 559.936 1481.04 560.08 1479.24 560.08C1476.07 560.08 1473.37 559.504 1471.14 558.352C1468.91 557.128 1467.18 555.256 1465.95 552.736C1464.8 550.216 1464.23 546.976 1464.23 543.016V506.512H1455.8V503.056L1464.23 501.112L1466.49 487.828H1470.38V501.544H1488.09V506.512H1470.38V542.8C1470.38 546.76 1471.17 549.784 1472.76 551.872C1474.34 553.888 1476.79 554.896 1480.1 554.896ZM1548.67 530.272C1548.67 534.736 1548.09 538.804 1546.94 542.476C1545.86 546.076 1544.2 549.208 1541.97 551.872C1539.81 554.464 1537.11 556.48 1533.87 557.92C1530.63 559.36 1526.92 560.08 1522.75 560.08C1518.79 560.08 1515.22 559.396 1512.05 558.028C1508.96 556.588 1506.29 554.572 1504.06 551.98C1501.83 549.316 1500.14 546.148 1498.99 542.476C1497.83 538.804 1497.26 534.736 1497.26 530.272C1497.26 524.008 1498.27 518.68 1500.28 514.288C1502.37 509.824 1505.36 506.404 1509.25 504.028C1513.21 501.652 1517.89 500.464 1523.29 500.464C1528.76 500.464 1533.37 501.724 1537.11 504.244C1540.93 506.692 1543.81 510.148 1545.75 514.612C1547.69 519.076 1548.67 524.296 1548.67 530.272ZM1503.63 530.272C1503.63 535.168 1504.31 539.488 1505.68 543.232C1507.05 546.904 1509.17 549.748 1512.05 551.764C1514.93 553.78 1518.53 554.788 1522.85 554.788C1527.32 554.788 1530.99 553.78 1533.87 551.764C1536.75 549.676 1538.87 546.796 1540.24 543.124C1541.61 539.38 1542.29 535.096 1542.29 530.272C1542.29 525.448 1541.65 521.2 1540.35 517.528C1539.05 513.856 1537 510.976 1534.19 508.888C1531.39 506.8 1527.71 505.756 1523.18 505.756C1516.63 505.756 1511.73 507.916 1508.49 512.236C1505.25 516.556 1503.63 522.568 1503.63 530.272ZM1608.56 554.896C1610.15 554.896 1611.66 554.788 1613.1 554.572C1614.54 554.284 1615.8 553.96 1616.88 553.6V558.568C1615.8 559 1614.43 559.36 1612.78 559.648C1611.19 559.936 1609.5 560.08 1607.7 560.08C1604.53 560.08 1601.83 559.504 1599.6 558.352C1597.37 557.128 1595.64 555.256 1594.42 552.736C1593.26 550.216 1592.69 546.976 1592.69 543.016V506.512H1584.26V503.056L1592.69 501.112L1594.96 487.828H1598.84V501.544H1616.56V506.512H1598.84V542.8C1598.84 546.76 1599.64 549.784 1601.22 551.872C1602.8 553.888 1605.25 554.896 1608.56 554.896ZM1635.11 503.272C1635.11 504.712 1635.08 506.116 1635.01 507.484C1634.93 508.852 1634.86 510.22 1634.79 511.588H1635.22C1636.23 509.428 1637.63 507.52 1639.43 505.864C1641.23 504.208 1643.39 502.912 1645.91 501.976C1648.51 501.04 1651.42 500.572 1654.66 500.572C1659.05 500.572 1662.76 501.328 1665.79 502.84C1668.81 504.28 1671.08 506.548 1672.59 509.644C1674.17 512.668 1674.97 516.628 1674.97 521.524V559H1668.92V521.848C1668.92 516.304 1667.66 512.236 1665.14 509.644C1662.62 507.052 1658.91 505.756 1654.01 505.756C1649.84 505.756 1646.35 506.584 1643.54 508.24C1640.73 509.824 1638.61 512.272 1637.17 515.584C1635.8 518.824 1635.11 522.856 1635.11 527.68V559H1629.07V476.92H1635.11V503.272ZM1715 500.464C1719.97 500.464 1724.08 501.616 1727.32 503.92C1730.63 506.152 1733.11 509.248 1734.77 513.208C1736.5 517.168 1737.36 521.74 1737.36 526.924V531.028H1696.32C1696.32 538.732 1698.08 544.6 1701.61 548.632C1705.21 552.664 1710.29 554.68 1716.84 554.68C1720.44 554.68 1723.57 554.392 1726.24 553.816C1728.9 553.24 1731.82 552.232 1734.98 550.792V556.408C1732.1 557.704 1729.26 558.64 1726.45 559.216C1723.64 559.792 1720.37 560.08 1716.62 560.08C1710.94 560.08 1706.08 558.892 1702.04 556.516C1698.08 554.14 1695.06 550.756 1692.97 546.364C1690.96 541.9 1689.95 536.716 1689.95 530.812C1689.95 524.908 1690.92 519.688 1692.86 515.152C1694.81 510.616 1697.65 507.052 1701.4 504.46C1705.14 501.796 1709.68 500.464 1715 500.464ZM1715 505.648C1709.68 505.648 1705.39 507.412 1702.15 510.94C1698.91 514.396 1697 519.4 1696.43 525.952H1730.99C1730.99 521.92 1730.41 518.392 1729.26 515.368C1728.11 512.344 1726.34 509.968 1723.97 508.24C1721.66 506.512 1718.68 505.648 1715 505.648ZM267.74 645.632C267.38 644.408 267.02 643.22 266.66 642.068C266.372 640.916 266.084 639.836 265.796 638.828C265.508 637.748 265.22 636.704 264.932 635.696C264.644 634.688 264.392 633.752 264.176 632.888H263.852C263.636 633.752 263.384 634.688 263.096 635.696C262.88 636.704 262.628 637.784 262.34 638.936C262.052 640.016 261.728 641.132 261.368 642.284C261.08 643.364 260.756 644.516 260.396 645.74L248.192 683H241.712L225.512 625.544H231.884L241.604 661.076C242.18 663.236 242.684 665.216 243.116 667.016C243.548 668.744 243.944 670.364 244.304 671.876C244.664 673.316 244.916 674.648 245.06 675.872H245.384C245.6 675.008 245.816 674.072 246.032 673.064C246.32 671.984 246.608 670.868 246.896 669.716C247.184 668.564 247.508 667.34 247.868 666.044C248.3 664.676 248.732 663.308 249.164 661.94L261.044 625.544H267.416L278.756 661.832C279.332 663.56 279.836 665.288 280.268 667.016C280.772 668.672 281.204 670.256 281.564 671.768C281.996 673.208 282.32 674.576 282.536 675.872H282.86C283.004 674.648 283.22 673.316 283.508 671.876C283.868 670.364 284.264 668.708 284.696 666.908C285.2 665.108 285.74 663.164 286.316 661.076L295.712 625.544H301.976L286.316 683H279.512L267.74 645.632ZM360.982 654.272C360.982 658.736 360.406 662.804 359.254 666.476C358.174 670.076 356.518 673.208 354.286 675.872C352.126 678.464 349.426 680.48 346.186 681.92C342.946 683.36 339.238 684.08 335.062 684.08C331.102 684.08 327.538 683.396 324.37 682.028C321.274 680.588 318.61 678.572 316.378 675.98C314.146 673.316 312.454 670.148 311.302 666.476C310.15 662.804 309.574 658.736 309.574 654.272C309.574 648.008 310.582 642.68 312.598 638.288C314.686 633.824 317.674 630.404 321.562 628.028C325.522 625.652 330.202 624.464 335.602 624.464C341.074 624.464 345.682 625.724 349.426 628.244C353.242 630.692 356.122 634.148 358.066 638.612C360.01 643.076 360.982 648.296 360.982 654.272ZM315.946 654.272C315.946 659.168 316.63 663.488 317.998 667.232C319.366 670.904 321.49 673.748 324.37 675.764C327.25 677.78 330.85 678.788 335.17 678.788C339.634 678.788 343.306 677.78 346.186 675.764C349.066 673.676 351.19 670.796 352.558 667.124C353.926 663.38 354.61 659.096 354.61 654.272C354.61 649.448 353.962 645.2 352.666 641.528C351.37 637.856 349.318 634.976 346.51 632.888C343.702 630.8 340.03 629.756 335.494 629.756C328.942 629.756 324.046 631.916 320.806 636.236C317.566 640.556 315.946 646.568 315.946 654.272ZM400.169 624.572C401.609 624.572 402.977 624.68 404.273 624.896C405.641 625.04 406.865 625.256 407.945 625.544L407.081 631.16C405.929 630.872 404.777 630.656 403.625 630.512C402.473 630.296 401.213 630.188 399.845 630.188C397.253 630.188 394.913 630.692 392.825 631.7C390.737 632.708 388.937 634.148 387.425 636.02C385.913 637.892 384.761 640.124 383.969 642.716C383.177 645.308 382.781 648.224 382.781 651.464V683H376.625V625.544H381.809L382.457 636.344H382.781C383.717 634.112 384.977 632.132 386.561 630.404C388.217 628.604 390.197 627.2 392.501 626.192C394.805 625.112 397.361 624.572 400.169 624.572ZM425.285 683H419.129V600.92H425.285V683ZM464.859 684.08C457.155 684.08 451.215 681.632 447.039 676.736C442.935 671.768 440.883 664.496 440.883 654.92C440.883 644.984 443.043 637.424 447.363 632.24C451.755 627.056 457.767 624.464 465.399 624.464C468.639 624.464 471.447 624.968 473.823 625.976C476.199 626.912 478.215 628.208 479.871 629.864C481.599 631.52 482.931 633.392 483.867 635.48H484.299C484.227 633.752 484.119 631.88 483.975 629.864C483.903 627.776 483.867 625.904 483.867 624.248V600.92H490.023V683H485.055L484.191 672.956H483.867C482.859 674.972 481.527 676.844 479.871 678.572C478.215 680.228 476.163 681.56 473.715 682.568C471.267 683.576 468.315 684.08 464.859 684.08ZM465.615 678.788C472.311 678.788 477.027 676.772 479.763 672.74C482.571 668.708 483.975 662.876 483.975 655.244V654.272C483.975 646.352 482.571 640.304 479.763 636.128C477.027 631.88 472.455 629.756 466.047 629.756C459.855 629.756 455.175 631.952 452.007 636.344C448.839 640.664 447.255 646.892 447.255 655.028C447.255 662.804 448.767 668.708 451.791 672.74C454.815 676.772 459.423 678.788 465.615 678.788ZM516.443 671.768C515.867 674.36 515.147 677.132 514.283 680.084C513.419 683.036 512.483 685.952 511.475 688.832C510.467 691.712 509.423 694.412 508.343 696.932H503.591C504.527 693.764 505.355 690.668 506.075 687.644C506.795 684.62 507.443 681.668 508.019 678.788C508.595 675.908 509.063 673.136 509.423 670.472H515.903L516.443 671.768ZM595.431 645.632C595.071 644.408 594.711 643.22 594.351 642.068C594.063 640.916 593.775 639.836 593.487 638.828C593.199 637.748 592.911 636.704 592.623 635.696C592.335 634.688 592.083 633.752 591.867 632.888H591.543C591.327 633.752 591.075 634.688 590.787 635.696C590.571 636.704 590.319 637.784 590.031 638.936C589.743 640.016 589.419 641.132 589.059 642.284C588.771 643.364 588.447 644.516 588.087 645.74L575.883 683H569.403L553.203 625.544H559.575L569.295 661.076C569.871 663.236 570.375 665.216 570.807 667.016C571.239 668.744 571.635 670.364 571.995 671.876C572.355 673.316 572.607 674.648 572.751 675.872H573.075C573.291 675.008 573.507 674.072 573.723 673.064C574.011 671.984 574.299 670.868 574.587 669.716C574.875 668.564 575.199 667.34 575.559 666.044C575.991 664.676 576.423 663.308 576.855 661.94L588.735 625.544H595.107L606.447 661.832C607.023 663.56 607.527 665.288 607.959 667.016C608.463 668.672 608.895 670.256 609.255 671.768C609.687 673.208 610.011 674.576 610.227 675.872H610.551C610.695 674.648 610.911 673.316 611.199 671.876C611.559 670.364 611.955 668.708 612.387 666.908C612.891 665.108 613.431 663.164 614.007 661.076L623.403 625.544H629.667L614.007 683H607.203L595.431 645.632ZM646.661 627.272C646.661 628.712 646.625 630.116 646.553 631.484C646.481 632.852 646.409 634.22 646.337 635.588H646.769C647.777 633.428 649.181 631.52 650.981 629.864C652.781 628.208 654.941 626.912 657.461 625.976C660.053 625.04 662.969 624.572 666.209 624.572C670.601 624.572 674.309 625.328 677.333 626.84C680.357 628.28 682.625 630.548 684.137 633.644C685.721 636.668 686.513 640.628 686.513 645.524V683H680.465V645.848C680.465 640.304 679.205 636.236 676.685 633.644C674.165 631.052 670.457 629.756 665.561 629.756C661.385 629.756 657.893 630.584 655.085 632.24C652.277 633.824 650.153 636.272 648.713 639.584C647.345 642.824 646.661 646.856 646.661 651.68V683H640.613V600.92H646.661V627.272ZM725.148 624.572C731.628 624.572 736.452 626.156 739.62 629.324C742.788 632.492 744.372 637.532 744.372 644.444V683H739.728L738.648 673.28H738.324C736.956 675.44 735.372 677.348 733.572 679.004C731.844 680.588 729.72 681.848 727.2 682.784C724.752 683.648 721.728 684.08 718.128 684.08C714.528 684.08 711.396 683.468 708.732 682.244C706.068 680.948 704.016 679.112 702.576 676.736C701.136 674.36 700.416 671.444 700.416 667.988C700.416 662.3 702.756 657.98 707.436 655.028C712.116 652.004 718.92 650.276 727.848 649.844L738.324 649.412V645.308C738.324 639.62 737.172 635.624 734.868 633.32C732.636 630.944 729.288 629.756 724.824 629.756C721.872 629.756 719.028 630.152 716.292 630.944C713.628 631.664 710.928 632.708 708.192 634.076L706.248 629.216C708.912 627.848 711.864 626.732 715.104 625.868C718.344 625.004 721.692 624.572 725.148 624.572ZM728.496 654.38C721.224 654.74 715.788 656.036 712.188 658.268C708.588 660.428 706.788 663.704 706.788 668.096C706.788 671.624 707.904 674.324 710.136 676.196C712.368 677.996 715.392 678.896 719.208 678.896C725.328 678.896 730.008 677.204 733.248 673.82C736.56 670.436 738.252 665.684 738.324 659.564V653.948L728.496 654.38ZM778.946 678.896C780.53 678.896 782.042 678.788 783.482 678.572C784.922 678.284 786.182 677.96 787.262 677.6V682.568C786.182 683 784.814 683.36 783.158 683.648C781.574 683.936 779.882 684.08 778.082 684.08C774.914 684.08 772.214 683.504 769.982 682.352C767.75 681.128 766.022 679.256 764.798 676.736C763.646 674.216 763.07 670.976 763.07 667.016V630.512H754.646V627.056L763.07 625.112L765.338 611.828H769.226V625.544H786.938V630.512H769.226V666.8C769.226 670.76 770.018 673.784 771.602 675.872C773.186 677.888 775.634 678.896 778.946 678.896ZM861.74 645.632C861.38 644.408 861.02 643.22 860.66 642.068C860.372 640.916 860.084 639.836 859.796 638.828C859.508 637.748 859.22 636.704 858.932 635.696C858.644 634.688 858.392 633.752 858.176 632.888H857.852C857.636 633.752 857.384 634.688 857.096 635.696C856.88 636.704 856.628 637.784 856.34 638.936C856.052 640.016 855.728 641.132 855.368 642.284C855.08 643.364 854.756 644.516 854.396 645.74L842.192 683H835.712L819.512 625.544H825.884L835.604 661.076C836.18 663.236 836.684 665.216 837.116 667.016C837.548 668.744 837.944 670.364 838.304 671.876C838.664 673.316 838.916 674.648 839.06 675.872H839.384C839.6 675.008 839.816 674.072 840.032 673.064C840.32 671.984 840.608 670.868 840.896 669.716C841.184 668.564 841.508 667.34 841.868 666.044C842.3 664.676 842.732 663.308 843.164 661.94L855.044 625.544H861.416L872.756 661.832C873.332 663.56 873.836 665.288 874.268 667.016C874.772 668.672 875.204 670.256 875.564 671.768C875.996 673.208 876.32 674.576 876.536 675.872H876.86C877.004 674.648 877.22 673.316 877.508 671.876C877.868 670.364 878.264 668.708 878.696 666.908C879.2 665.108 879.74 663.164 880.316 661.076L889.712 625.544H895.976L880.316 683H873.512L861.74 645.632ZM954.982 654.272C954.982 658.736 954.406 662.804 953.254 666.476C952.174 670.076 950.518 673.208 948.286 675.872C946.126 678.464 943.426 680.48 940.186 681.92C936.946 683.36 933.238 684.08 929.062 684.08C925.102 684.08 921.538 683.396 918.37 682.028C915.274 680.588 912.61 678.572 910.378 675.98C908.146 673.316 906.454 670.148 905.302 666.476C904.15 662.804 903.574 658.736 903.574 654.272C903.574 648.008 904.582 642.68 906.598 638.288C908.686 633.824 911.674 630.404 915.562 628.028C919.522 625.652 924.202 624.464 929.602 624.464C935.074 624.464 939.682 625.724 943.426 628.244C947.242 630.692 950.122 634.148 952.066 638.612C954.01 643.076 954.982 648.296 954.982 654.272ZM909.946 654.272C909.946 659.168 910.63 663.488 911.998 667.232C913.366 670.904 915.49 673.748 918.37 675.764C921.25 677.78 924.85 678.788 929.17 678.788C933.634 678.788 937.306 677.78 940.186 675.764C943.066 673.676 945.19 670.796 946.558 667.124C947.926 663.38 948.61 659.096 948.61 654.272C948.61 649.448 947.962 645.2 946.666 641.528C945.37 637.856 943.318 634.976 940.51 632.888C937.702 630.8 934.03 629.756 929.494 629.756C922.942 629.756 918.046 631.916 914.806 636.236C911.566 640.556 909.946 646.568 909.946 654.272ZM1015.88 625.544V683H1010.8L1009.94 673.172H1009.61C1008.61 675.26 1007.17 677.132 1005.29 678.788C1003.49 680.444 1001.33 681.74 998.813 682.676C996.293 683.612 993.377 684.08 990.065 684.08C985.601 684.08 981.857 683.324 978.833 681.812C975.881 680.228 973.649 677.888 972.137 674.792C970.625 671.696 969.869 667.844 969.869 663.236V625.544H976.025V662.696C976.025 668.168 977.249 672.236 979.697 674.9C982.217 677.492 985.889 678.788 990.713 678.788C994.961 678.788 998.489 677.996 1001.3 676.412C1004.11 674.756 1006.19 672.308 1007.56 669.068C1009 665.828 1009.72 661.796 1009.72 656.972V625.544H1015.88ZM1041.01 683H1034.86V600.92H1041.01V683ZM1080.59 684.08C1072.88 684.08 1066.94 681.632 1062.77 676.736C1058.66 671.768 1056.61 664.496 1056.61 654.92C1056.61 644.984 1058.77 637.424 1063.09 632.24C1067.48 627.056 1073.49 624.464 1081.13 624.464C1084.37 624.464 1087.17 624.968 1089.55 625.976C1091.93 626.912 1093.94 628.208 1095.6 629.864C1097.33 631.52 1098.66 633.392 1099.59 635.48H1100.03C1099.95 633.752 1099.85 631.88 1099.7 629.864C1099.63 627.776 1099.59 625.904 1099.59 624.248V600.92H1105.75V683H1100.78L1099.92 672.956H1099.59C1098.59 674.972 1097.25 676.844 1095.6 678.572C1093.94 680.228 1091.89 681.56 1089.44 682.568C1086.99 683.576 1084.04 684.08 1080.59 684.08ZM1081.34 678.788C1088.04 678.788 1092.75 676.772 1095.49 672.74C1098.3 668.708 1099.7 662.876 1099.7 655.244V654.272C1099.7 646.352 1098.3 640.304 1095.49 636.128C1092.75 631.88 1088.18 629.756 1081.77 629.756C1075.58 629.756 1070.9 631.952 1067.73 636.344C1064.57 640.664 1062.98 646.892 1062.98 655.028C1062.98 662.804 1064.49 668.708 1067.52 672.74C1070.54 676.772 1075.15 678.788 1081.34 678.788ZM1158.71 625.544V683H1152.66V625.544H1158.71ZM1155.69 604.268C1157.06 604.268 1158.1 604.7 1158.82 605.564C1159.54 606.356 1159.9 607.472 1159.9 608.912C1159.9 610.424 1159.54 611.612 1158.82 612.476C1158.1 613.268 1157.06 613.664 1155.69 613.664C1154.39 613.664 1153.38 613.268 1152.66 612.476C1151.94 611.612 1151.58 610.424 1151.58 608.912C1151.58 607.472 1151.94 606.356 1152.66 605.564C1153.38 604.7 1154.39 604.268 1155.69 604.268ZM1193.97 678.896C1195.55 678.896 1197.06 678.788 1198.5 678.572C1199.94 678.284 1201.2 677.96 1202.28 677.6V682.568C1201.2 683 1199.83 683.36 1198.18 683.648C1196.59 683.936 1194.9 684.08 1193.1 684.08C1189.93 684.08 1187.23 683.504 1185 682.352C1182.77 681.128 1181.04 679.256 1179.82 676.736C1178.67 674.216 1178.09 670.976 1178.09 667.016V630.512H1169.67V627.056L1178.09 625.112L1180.36 611.828H1184.25V625.544H1201.96V630.512H1184.25V666.8C1184.25 670.76 1185.04 673.784 1186.62 675.872C1188.21 677.888 1190.65 678.896 1193.97 678.896ZM1248.57 623.6C1248.57 625.688 1248.54 627.92 1248.46 630.296C1248.39 632.6 1248.28 634.508 1248.14 636.02H1248.57C1250.01 632.708 1252.35 629.972 1255.59 627.812C1258.9 625.58 1263.08 624.464 1268.12 624.464C1275.46 624.464 1281.19 626.984 1285.29 632.024C1289.47 636.992 1291.56 644.372 1291.56 654.164C1291.56 660.212 1290.62 665.468 1288.75 669.932C1286.95 674.396 1284.21 677.888 1280.54 680.408C1276.94 682.856 1272.51 684.08 1267.26 684.08C1262.43 684.08 1258.47 683.072 1255.38 681.056C1252.35 679.04 1250.12 676.592 1248.68 673.712H1248.14L1246.95 683H1242.42V600.92H1248.57V623.6ZM1267.26 629.756C1262.86 629.756 1259.26 630.692 1256.46 632.564C1253.72 634.436 1251.7 637.172 1250.41 640.772C1249.18 644.372 1248.57 648.836 1248.57 654.164V654.92C1248.57 662.696 1249.94 668.636 1252.68 672.74C1255.48 676.772 1260.09 678.788 1266.5 678.788C1272.69 678.788 1277.34 676.664 1280.43 672.416C1283.6 668.168 1285.18 662.084 1285.18 654.164C1285.18 646.028 1283.71 639.944 1280.76 635.912C1277.8 631.808 1273.3 629.756 1267.26 629.756ZM1328.88 624.464C1333.85 624.464 1337.96 625.616 1341.2 627.92C1344.51 630.152 1346.99 633.248 1348.65 637.208C1350.38 641.168 1351.24 645.74 1351.24 650.924V655.028H1310.2C1310.2 662.732 1311.96 668.6 1315.49 672.632C1319.09 676.664 1324.17 678.68 1330.72 678.68C1334.32 678.68 1337.45 678.392 1340.12 677.816C1342.78 677.24 1345.7 676.232 1348.86 674.792V680.408C1345.98 681.704 1343.14 682.64 1340.33 683.216C1337.52 683.792 1334.25 684.08 1330.5 684.08C1324.82 684.08 1319.96 682.892 1315.92 680.516C1311.96 678.14 1308.94 674.756 1306.85 670.364C1304.84 665.9 1303.83 660.716 1303.83 654.812C1303.83 648.908 1304.8 643.688 1306.74 639.152C1308.69 634.616 1311.53 631.052 1315.28 628.46C1319.02 625.796 1323.56 624.464 1328.88 624.464ZM1328.88 629.648C1323.56 629.648 1319.27 631.412 1316.03 634.94C1312.79 638.396 1310.88 643.4 1310.31 649.952H1344.87C1344.87 645.92 1344.29 642.392 1343.14 639.368C1341.99 636.344 1340.22 633.968 1337.85 632.24C1335.54 630.512 1332.56 629.648 1328.88 629.648ZM1372.6 660.644C1372.6 657.476 1372.85 654.848 1373.35 652.76C1373.93 650.6 1374.87 648.656 1376.16 646.928C1377.53 645.128 1379.4 643.328 1381.78 641.528C1384.44 639.368 1386.64 637.46 1388.37 635.804C1390.09 634.148 1391.39 632.384 1392.25 630.512C1393.12 628.64 1393.55 626.3 1393.55 623.492C1393.55 619.1 1392.18 615.824 1389.45 613.664C1386.71 611.432 1383 610.316 1378.32 610.316C1375.23 610.316 1372.38 610.676 1369.79 611.396C1367.27 612.116 1364.75 613.124 1362.23 614.42L1359.96 609.236C1362.99 607.796 1365.94 606.716 1368.82 605.996C1371.77 605.204 1375.05 604.808 1378.65 604.808C1385.13 604.808 1390.2 606.428 1393.87 609.668C1397.62 612.836 1399.49 617.408 1399.49 623.384C1399.49 626.84 1398.91 629.792 1397.76 632.24C1396.68 634.616 1395.13 636.776 1393.12 638.72C1391.1 640.664 1388.73 642.68 1385.99 644.768C1383.83 646.424 1382.14 648.008 1380.91 649.52C1379.76 650.96 1378.93 652.616 1378.43 654.488C1377.93 656.288 1377.67 658.52 1377.67 661.184V662.804H1372.6V660.644ZM1370.76 678.896C1370.76 677.096 1371.16 675.764 1371.95 674.9C1372.74 674.036 1373.89 673.604 1375.41 673.604C1376.99 673.604 1378.18 674.036 1378.97 674.9C1379.76 675.764 1380.16 677.096 1380.16 678.896C1380.16 680.624 1379.76 681.956 1378.97 682.892C1378.18 683.756 1376.99 684.188 1375.41 684.188C1373.89 684.188 1372.74 683.756 1371.95 682.892C1371.16 681.956 1370.76 680.624 1370.76 678.896Z" fill="#F2F2F2"/>
<path d="M1364.78 1026.92C1364.78 1028.49 1364.48 1029.8 1363.89 1030.86C1363.3 1031.9 1362.45 1032.68 1361.34 1033.21C1360.24 1033.74 1358.91 1034 1357.36 1034H1353.4V1020.2H1357.74C1359.98 1020.2 1361.71 1020.78 1362.93 1021.93C1364.16 1023.08 1364.78 1024.74 1364.78 1026.92ZM1362.18 1026.99C1362.18 1025.41 1361.8 1024.22 1361.03 1023.44C1360.28 1022.64 1359.17 1022.24 1357.7 1022.24H1355.9V1031.96H1357.43C1359.03 1031.96 1360.22 1031.55 1361.01 1030.74C1361.79 1029.9 1362.18 1028.66 1362.18 1026.99ZM1367.63 1020.2H1375.67V1022.19H1370.12V1025.84H1375.31V1027.83H1370.12V1032.01H1375.67V1034H1367.63V1020.2ZM1386.95 1030.14C1386.95 1030.92 1386.75 1031.62 1386.35 1032.25C1385.95 1032.86 1385.37 1033.34 1384.6 1033.69C1383.83 1034.02 1382.9 1034.19 1381.81 1034.19C1381.24 1034.19 1380.7 1034.16 1380.21 1034.1C1379.73 1034.05 1379.29 1033.98 1378.89 1033.88C1378.49 1033.77 1378.09 1033.63 1377.71 1033.47V1031.22C1378.33 1031.5 1379.01 1031.74 1379.73 1031.91C1380.45 1032.09 1381.16 1032.18 1381.86 1032.18C1382.66 1032.18 1383.29 1032.02 1383.76 1031.7C1384.22 1031.36 1384.45 1030.9 1384.45 1030.33C1384.45 1029.91 1384.33 1029.57 1384.09 1029.3C1383.87 1029.02 1383.53 1028.78 1383.06 1028.55C1382.61 1028.33 1382.06 1028.1 1381.41 1027.86C1380.7 1027.57 1380.08 1027.26 1379.53 1026.94C1379.01 1026.61 1378.59 1026.19 1378.29 1025.7C1378 1025.2 1377.85 1024.58 1377.85 1023.82C1377.85 1022.99 1378.06 1022.3 1378.48 1021.74C1378.89 1021.18 1379.46 1020.75 1380.18 1020.46C1380.92 1020.16 1381.76 1020.01 1382.7 1020.01C1383.47 1020.01 1384.19 1020.1 1384.86 1020.27C1385.55 1020.43 1386.19 1020.64 1386.78 1020.9L1385.99 1022.82C1385.4 1022.56 1384.82 1022.36 1384.26 1022.22C1383.7 1022.07 1383.16 1022 1382.63 1022C1381.91 1022 1381.34 1022.15 1380.93 1022.46C1380.53 1022.76 1380.33 1023.18 1380.33 1023.73C1380.33 1024.13 1380.44 1024.46 1380.66 1024.74C1380.89 1025.01 1381.22 1025.25 1381.67 1025.46C1382.13 1025.66 1382.69 1025.9 1383.35 1026.15C1384.07 1026.44 1384.7 1026.75 1385.25 1027.09C1385.79 1027.42 1386.21 1027.83 1386.49 1028.31C1386.8 1028.78 1386.95 1029.38 1386.95 1030.14ZM1388.58 1034V1032.58L1390.21 1032.1V1022.1L1388.58 1021.64V1020.2H1394.34V1021.64L1392.71 1022.1V1032.1L1394.34 1032.58V1034H1388.58ZM1408.06 1033.35C1407.36 1033.61 1406.58 1033.82 1405.73 1033.98C1404.9 1034.12 1404 1034.19 1403.04 1034.19C1401.64 1034.19 1400.42 1033.93 1399.4 1033.4C1398.39 1032.86 1397.61 1032.06 1397.07 1031C1396.54 1029.94 1396.28 1028.65 1396.28 1027.11C1396.28 1025.7 1396.55 1024.47 1397.09 1023.42C1397.65 1022.36 1398.48 1021.53 1399.56 1020.92C1400.65 1020.31 1401.98 1020.01 1403.55 1020.01C1404.36 1020.01 1405.14 1020.09 1405.88 1020.25C1406.61 1020.39 1407.28 1020.6 1407.87 1020.87L1407.03 1022.84C1406.5 1022.58 1405.94 1022.39 1405.35 1022.26C1404.77 1022.14 1404.17 1022.07 1403.55 1022.07C1402.52 1022.07 1401.66 1022.29 1400.96 1022.72C1400.27 1023.14 1399.75 1023.73 1399.4 1024.5C1399.04 1025.25 1398.87 1026.12 1398.87 1027.11C1398.87 1028.74 1399.24 1029.99 1400 1030.86C1400.75 1031.72 1401.87 1032.15 1403.36 1032.15C1403.79 1032.15 1404.2 1032.12 1404.6 1032.06C1405.02 1031.99 1405.37 1031.91 1405.66 1031.82V1028.46H1402.44V1026.46H1408.06V1033.35ZM1423.15 1020.2V1034H1420.05L1413.43 1023.13H1413.33C1413.35 1023.32 1413.36 1023.56 1413.38 1023.85C1413.4 1024.14 1413.41 1024.44 1413.43 1024.76C1413.44 1025.08 1413.45 1025.4 1413.45 1025.72C1413.47 1026.04 1413.48 1026.34 1413.48 1026.61V1034H1411.24V1020.2H1414.36L1420.96 1031H1421.04C1421.02 1030.82 1421 1030.61 1420.99 1030.35C1420.97 1030.1 1420.96 1029.82 1420.94 1029.51C1420.94 1029.21 1420.93 1028.9 1420.92 1028.6C1420.92 1028.28 1420.92 1027.97 1420.92 1027.66V1020.2H1423.15ZM1425.73 1034V1032.58L1427.36 1032.1V1022.1L1425.73 1021.64V1020.2H1431.49V1021.64L1429.86 1022.1V1032.1L1431.49 1032.58V1034H1425.73ZM1445.95 1020.2V1034H1442.86L1436.23 1023.13H1436.14C1436.15 1023.32 1436.17 1023.56 1436.18 1023.85C1436.2 1024.14 1436.22 1024.44 1436.23 1024.76C1436.25 1025.08 1436.26 1025.4 1436.26 1025.72C1436.27 1026.04 1436.28 1026.34 1436.28 1026.61V1034H1434.05V1020.2H1437.17L1443.77 1031H1443.84C1443.82 1030.82 1443.81 1030.61 1443.79 1030.35C1443.78 1030.1 1443.76 1029.82 1443.74 1029.51C1443.74 1029.21 1443.74 1028.9 1443.72 1028.6C1443.72 1028.28 1443.72 1027.97 1443.72 1027.66V1020.2H1445.95ZM1460.63 1033.35C1459.93 1033.61 1459.15 1033.82 1458.3 1033.98C1457.47 1034.12 1456.57 1034.19 1455.61 1034.19C1454.21 1034.19 1452.99 1033.93 1451.97 1033.4C1450.96 1032.86 1450.18 1032.06 1449.64 1031C1449.11 1029.94 1448.85 1028.65 1448.85 1027.11C1448.85 1025.7 1449.12 1024.47 1449.66 1023.42C1450.22 1022.36 1451.05 1021.53 1452.13 1020.92C1453.22 1020.31 1454.55 1020.01 1456.12 1020.01C1456.93 1020.01 1457.71 1020.09 1458.45 1020.25C1459.18 1020.39 1459.85 1020.6 1460.44 1020.87L1459.6 1022.84C1459.07 1022.58 1458.51 1022.39 1457.92 1022.26C1457.34 1022.14 1456.74 1022.07 1456.12 1022.07C1455.09 1022.07 1454.23 1022.29 1453.53 1022.72C1452.84 1023.14 1452.32 1023.73 1451.97 1024.5C1451.61 1025.25 1451.44 1026.12 1451.44 1027.11C1451.44 1028.74 1451.81 1029.99 1452.57 1030.86C1453.32 1031.72 1454.44 1032.15 1455.93 1032.15C1456.36 1032.15 1456.77 1032.12 1457.17 1032.06C1457.59 1031.99 1457.94 1031.91 1458.23 1031.82V1028.46H1455.01V1026.46H1460.63V1033.35ZM1474.03 1020.2C1475.87 1020.2 1477.24 1020.54 1478.14 1021.21C1479.05 1021.88 1479.5 1022.87 1479.5 1024.18C1479.5 1025.08 1479.28 1025.84 1478.83 1026.46C1478.38 1027.09 1477.71 1027.57 1476.82 1027.9L1480.75 1034H1477.94L1474.66 1028.53H1472.54V1034H1470.05V1020.2H1474.03ZM1474.13 1026.58C1475.04 1026.58 1475.74 1026.41 1476.22 1026.06C1476.71 1025.69 1476.96 1025.11 1476.96 1024.33C1476.96 1023.54 1476.71 1022.99 1476.22 1022.67C1475.72 1022.34 1474.98 1022.17 1473.98 1022.17H1472.54V1026.58H1474.13ZM1482.66 1020.2H1490.7V1022.19H1485.15V1025.84H1490.34V1027.83H1485.15V1032.01H1490.7V1034H1482.66V1020.2ZM1501.98 1030.14C1501.98 1030.92 1501.78 1031.62 1501.38 1032.25C1500.98 1032.86 1500.4 1033.34 1499.63 1033.69C1498.86 1034.02 1497.93 1034.19 1496.85 1034.19C1496.27 1034.19 1495.73 1034.16 1495.24 1034.1C1494.76 1034.05 1494.32 1033.98 1493.92 1033.88C1493.52 1033.77 1493.13 1033.63 1492.74 1033.47V1031.22C1493.37 1031.5 1494.04 1031.74 1494.76 1031.91C1495.48 1032.09 1496.19 1032.18 1496.89 1032.18C1497.69 1032.18 1498.33 1032.02 1498.79 1031.7C1499.25 1031.36 1499.49 1030.9 1499.49 1030.33C1499.49 1029.91 1499.37 1029.57 1499.13 1029.3C1498.9 1029.02 1498.56 1028.78 1498.09 1028.55C1497.65 1028.33 1497.09 1028.1 1496.44 1027.86C1495.73 1027.57 1495.11 1027.26 1494.57 1026.94C1494.04 1026.61 1493.62 1026.19 1493.32 1025.7C1493.03 1025.2 1492.89 1024.58 1492.89 1023.82C1492.89 1022.99 1493.09 1022.3 1493.51 1021.74C1493.93 1021.18 1494.49 1020.75 1495.21 1020.46C1495.95 1020.16 1496.79 1020.01 1497.73 1020.01C1498.5 1020.01 1499.22 1020.1 1499.89 1020.27C1500.58 1020.43 1501.22 1020.64 1501.81 1020.9L1501.02 1022.82C1500.43 1022.56 1499.85 1022.36 1499.29 1022.22C1498.73 1022.07 1498.19 1022 1497.66 1022C1496.94 1022 1496.37 1022.15 1495.96 1022.46C1495.56 1022.76 1495.36 1023.18 1495.36 1023.73C1495.36 1024.13 1495.47 1024.46 1495.69 1024.74C1495.92 1025.01 1496.25 1025.25 1496.7 1025.46C1497.17 1025.66 1497.73 1025.9 1498.38 1026.15C1499.1 1026.44 1499.73 1026.75 1500.28 1027.09C1500.82 1027.42 1501.24 1027.83 1501.53 1028.31C1501.83 1028.78 1501.98 1029.38 1501.98 1030.14ZM1508.75 1020.2C1510.51 1020.2 1511.81 1020.56 1512.66 1021.28C1513.52 1022 1513.96 1023.04 1513.96 1024.4C1513.96 1025.06 1513.84 1025.66 1513.62 1026.22C1513.41 1026.77 1513.08 1027.25 1512.64 1027.66C1512.2 1028.06 1511.65 1028.38 1510.98 1028.6C1510.31 1028.81 1509.51 1028.91 1508.58 1028.91H1507.04V1034H1504.55V1020.2H1508.75ZM1508.34 1026.9C1509.28 1026.9 1510.03 1026.72 1510.57 1026.37C1511.13 1026.02 1511.41 1025.39 1511.41 1024.5C1511.41 1023.73 1511.19 1023.15 1510.74 1022.77C1510.29 1022.38 1509.6 1022.19 1508.68 1022.19H1507.04V1026.9H1508.34ZM1529.17 1027.09C1529.17 1028.5 1528.93 1029.74 1528.45 1030.81C1527.99 1031.88 1527.27 1032.71 1526.29 1033.3C1525.33 1033.9 1524.1 1034.19 1522.6 1034.19C1521.12 1034.19 1519.89 1033.9 1518.9 1033.3C1517.92 1032.71 1517.2 1031.88 1516.72 1030.81C1516.25 1029.72 1516.02 1028.47 1516.02 1027.06C1516.02 1025.66 1516.26 1024.42 1516.74 1023.37C1517.22 1022.3 1517.95 1021.46 1518.92 1020.87C1519.9 1020.28 1521.13 1019.98 1522.62 1019.98C1524.11 1019.98 1525.33 1020.28 1526.29 1020.87C1527.27 1021.46 1527.99 1022.3 1528.45 1023.37C1528.93 1024.42 1529.17 1025.66 1529.17 1027.09ZM1518.64 1027.09C1518.64 1028.1 1518.77 1028.98 1519.04 1029.73C1519.32 1030.48 1519.74 1031.06 1520.32 1031.48C1520.91 1031.9 1521.67 1032.1 1522.6 1032.1C1523.52 1032.1 1524.28 1031.9 1524.85 1031.5C1525.43 1031.09 1525.85 1030.5 1526.12 1029.75C1526.4 1029 1526.53 1028.11 1526.53 1027.09C1526.53 1025.5 1526.21 1024.27 1525.57 1023.39C1524.93 1022.51 1523.94 1022.07 1522.6 1022.07C1521.68 1022.07 1520.93 1022.28 1520.34 1022.7C1519.76 1023.1 1519.33 1023.67 1519.04 1024.42C1518.77 1025.16 1518.64 1026.05 1518.64 1027.09ZM1543.95 1020.2V1034H1540.85L1534.23 1023.13H1534.13C1534.15 1023.32 1534.16 1023.56 1534.18 1023.85C1534.19 1024.14 1534.21 1024.44 1534.23 1024.76C1534.24 1025.08 1534.25 1025.4 1534.25 1025.72C1534.27 1026.04 1534.27 1026.34 1534.27 1026.61V1034H1532.04V1020.2H1535.16L1541.76 1031H1541.83C1541.82 1030.82 1541.8 1030.61 1541.79 1030.35C1541.77 1030.1 1541.75 1029.82 1541.74 1029.51C1541.74 1029.21 1541.73 1028.9 1541.71 1028.6C1541.71 1028.28 1541.71 1027.97 1541.71 1027.66V1020.2H1543.95ZM1555.91 1030.14C1555.91 1030.92 1555.71 1031.62 1555.31 1032.25C1554.91 1032.86 1554.33 1033.34 1553.56 1033.69C1552.79 1034.02 1551.86 1034.19 1550.77 1034.19C1550.2 1034.19 1549.66 1034.16 1549.17 1034.1C1548.69 1034.05 1548.25 1033.98 1547.85 1033.88C1547.45 1033.77 1547.05 1033.63 1546.67 1033.47V1031.22C1547.29 1031.5 1547.97 1031.74 1548.69 1031.91C1549.41 1032.09 1550.12 1032.18 1550.82 1032.18C1551.62 1032.18 1552.25 1032.02 1552.72 1031.7C1553.18 1031.36 1553.41 1030.9 1553.41 1030.33C1553.41 1029.91 1553.29 1029.57 1553.05 1029.3C1552.83 1029.02 1552.49 1028.78 1552.02 1028.55C1551.57 1028.33 1551.02 1028.1 1550.37 1027.86C1549.66 1027.57 1549.04 1027.26 1548.49 1026.94C1547.97 1026.61 1547.55 1026.19 1547.25 1025.7C1546.96 1025.2 1546.81 1024.58 1546.81 1023.82C1546.81 1022.99 1547.02 1022.3 1547.44 1021.74C1547.85 1021.18 1548.42 1020.75 1549.14 1020.46C1549.88 1020.16 1550.72 1020.01 1551.66 1020.01C1552.43 1020.01 1553.15 1020.1 1553.82 1020.27C1554.51 1020.43 1555.15 1020.64 1555.74 1020.9L1554.95 1022.82C1554.36 1022.56 1553.78 1022.36 1553.22 1022.22C1552.66 1022.07 1552.12 1022 1551.59 1022C1550.87 1022 1550.3 1022.15 1549.89 1022.46C1549.49 1022.76 1549.29 1023.18 1549.29 1023.73C1549.29 1024.13 1549.4 1024.46 1549.62 1024.74C1549.85 1025.01 1550.18 1025.25 1550.63 1025.46C1551.09 1025.66 1551.65 1025.9 1552.31 1026.15C1553.03 1026.44 1553.66 1026.75 1554.21 1027.09C1554.75 1027.42 1555.17 1027.83 1555.45 1028.31C1555.76 1028.78 1555.91 1029.38 1555.91 1030.14ZM1557.54 1034V1032.58L1559.17 1032.1V1022.1L1557.54 1021.64V1020.2H1563.3V1021.64L1561.67 1022.1V1032.1L1563.3 1032.58V1034H1557.54ZM1570.23 1020.2C1571.49 1020.2 1572.52 1020.33 1573.3 1020.58C1574.1 1020.84 1574.69 1021.22 1575.08 1021.74C1575.46 1022.25 1575.65 1022.9 1575.65 1023.68C1575.65 1024.24 1575.55 1024.73 1575.34 1025.14C1575.13 1025.56 1574.84 1025.9 1574.45 1026.18C1574.09 1026.43 1573.65 1026.61 1573.16 1026.7V1026.78C1573.7 1026.87 1574.18 1027.04 1574.6 1027.28C1575.01 1027.52 1575.34 1027.86 1575.58 1028.31C1575.82 1028.74 1575.94 1029.31 1575.94 1030.02C1575.94 1031.31 1575.48 1032.3 1574.55 1032.99C1573.62 1033.66 1572.38 1034 1570.83 1034H1565.86V1020.2H1570.23ZM1570.45 1025.94C1571.41 1025.94 1572.09 1025.78 1572.49 1025.46C1572.89 1025.12 1573.09 1024.63 1573.09 1023.99C1573.09 1023.35 1572.85 1022.89 1572.39 1022.6C1571.93 1022.3 1571.21 1022.14 1570.25 1022.14H1568.36V1025.94H1570.45ZM1570.64 1032.06C1571.6 1032.06 1572.29 1031.86 1572.73 1031.48C1573.17 1031.08 1573.4 1030.53 1573.4 1029.82C1573.4 1029.2 1573.17 1028.7 1572.7 1028.34C1572.25 1027.95 1571.52 1027.76 1570.49 1027.76H1568.36V1032.06H1570.64ZM1581.25 1020.2V1031.96H1587.22V1034H1578.75V1020.2H1581.25ZM1589.58 1020.2H1597.62V1022.19H1592.08V1025.84H1597.26V1027.83H1592.08V1032.01H1597.62V1034H1589.58V1020.2ZM1604.94 1034L1610.05 1020.15H1613L1618.07 1034H1615.35L1614.13 1030.35H1608.95L1607.65 1034H1604.94ZM1612.28 1024.76C1612.2 1024.54 1612.11 1024.28 1612.02 1023.99C1611.92 1023.7 1611.83 1023.41 1611.73 1023.1C1611.65 1022.8 1611.58 1022.51 1611.51 1022.24C1611.45 1022.51 1611.38 1022.8 1611.3 1023.1C1611.22 1023.39 1611.13 1023.69 1611.03 1023.99C1610.95 1024.28 1610.87 1024.54 1610.77 1024.78L1609.57 1028.31H1613.46L1612.28 1024.76ZM1618.88 1034V1032.58L1620.51 1032.1V1022.1L1618.88 1021.64V1020.2H1624.64V1021.64L1623.01 1022.1V1032.1L1624.64 1032.58V1034H1618.88ZM1637.3 1015.78H1639.29V1039.69H1637.3V1015.78ZM1656.87 1020.2C1658.71 1020.2 1660.08 1020.54 1660.97 1021.21C1661.88 1021.88 1662.34 1022.87 1662.34 1024.18C1662.34 1025.08 1662.12 1025.84 1661.67 1026.46C1661.22 1027.09 1660.55 1027.57 1659.65 1027.9L1663.59 1034H1660.78L1657.49 1028.53H1655.38V1034H1652.88V1020.2H1656.87ZM1656.96 1026.58C1657.88 1026.58 1658.57 1026.41 1659.05 1026.06C1659.55 1025.69 1659.8 1025.11 1659.8 1024.33C1659.8 1023.54 1659.55 1022.99 1659.05 1022.67C1658.56 1022.34 1657.81 1022.17 1656.82 1022.17H1655.38V1026.58H1656.96ZM1663.74 1034L1668.85 1020.15H1671.81L1676.87 1034H1674.16L1672.93 1030.35H1667.75L1666.45 1034H1663.74ZM1671.09 1024.76C1671.01 1024.54 1670.92 1024.28 1670.82 1023.99C1670.73 1023.7 1670.63 1023.41 1670.53 1023.1C1670.45 1022.8 1670.38 1022.51 1670.32 1022.24C1670.25 1022.51 1670.18 1022.8 1670.1 1023.1C1670.02 1023.39 1669.93 1023.69 1669.84 1023.99C1669.76 1024.28 1669.67 1024.54 1669.57 1024.78L1668.37 1028.31H1672.26L1671.09 1024.76ZM1684.5 1022.07C1683.61 1022.07 1682.85 1022.28 1682.22 1022.7C1681.62 1023.1 1681.15 1023.67 1680.83 1024.42C1680.51 1025.18 1680.35 1026.07 1680.35 1027.11C1680.35 1028.7 1680.69 1029.93 1681.36 1030.81C1682.05 1031.69 1683.1 1032.13 1684.5 1032.13C1685.11 1032.13 1685.7 1032.06 1686.26 1031.94C1686.82 1031.81 1687.38 1031.63 1687.94 1031.41V1033.57C1687.39 1033.78 1686.81 1033.93 1686.18 1034.02C1685.58 1034.14 1684.91 1034.19 1684.19 1034.19C1682.74 1034.19 1681.53 1033.9 1680.57 1033.3C1679.62 1032.71 1678.91 1031.88 1678.43 1030.81C1677.97 1029.74 1677.74 1028.5 1677.74 1027.09C1677.74 1025.7 1678 1024.47 1678.53 1023.42C1679.07 1022.34 1679.85 1021.51 1680.86 1020.92C1681.86 1020.31 1683.07 1020.01 1684.48 1020.01C1685.17 1020.01 1685.86 1020.09 1686.54 1020.25C1687.23 1020.39 1687.88 1020.61 1688.49 1020.9L1687.7 1022.89C1687.18 1022.65 1686.66 1022.46 1686.14 1022.31C1685.61 1022.15 1685.06 1022.07 1684.5 1022.07ZM1702.08 1020.2V1034H1699.61V1027.86H1693.42V1034H1690.92V1020.2H1693.42V1025.79H1699.61V1020.2H1702.08ZM1705.62 1020.2H1713.66V1022.19H1708.12V1025.84H1713.3V1027.83H1708.12V1032.01H1713.66V1034H1705.62V1020.2ZM1718.99 1020.2V1031.96H1724.97V1034H1716.49V1020.2H1718.99ZM1731.8 1034L1736.92 1020.15H1739.87L1744.93 1034H1742.22L1741 1030.35H1735.81L1734.52 1034H1731.8ZM1739.15 1024.76C1739.07 1024.54 1738.98 1024.28 1738.88 1023.99C1738.79 1023.7 1738.69 1023.41 1738.6 1023.1C1738.52 1022.8 1738.44 1022.51 1738.38 1022.24C1738.32 1022.51 1738.24 1022.8 1738.16 1023.1C1738.08 1023.39 1738 1023.69 1737.9 1023.99C1737.82 1024.28 1737.73 1024.54 1737.64 1024.78L1736.44 1028.31H1740.32L1739.15 1024.76ZM1755.07 1020.2V1022.29H1751.09V1034H1748.62V1022.29H1744.63V1020.2H1755.07ZM1771.75 1020.2V1034H1769.42V1026.03C1769.42 1025.68 1769.42 1025.29 1769.42 1024.86C1769.44 1024.41 1769.45 1023.99 1769.47 1023.61C1769.49 1023.22 1769.5 1022.94 1769.52 1022.77H1769.45L1765.49 1034H1763.25L1759.32 1022.74H1759.25C1759.25 1022.92 1759.25 1023.21 1759.27 1023.61C1759.3 1023.99 1759.33 1024.41 1759.34 1024.86C1759.36 1025.3 1759.37 1025.73 1759.37 1026.13V1034H1757.13V1020.2H1760.54L1764.41 1031.1H1764.45L1768.34 1020.2H1771.75ZM1773.52 1034L1778.64 1020.15H1781.59L1786.65 1034H1783.94L1782.72 1030.35H1777.53L1776.24 1034H1773.52ZM1780.87 1024.76C1780.79 1024.54 1780.7 1024.28 1780.6 1023.99C1780.51 1023.7 1780.41 1023.41 1780.32 1023.1C1780.24 1022.8 1780.16 1022.51 1780.1 1022.24C1780.04 1022.51 1779.96 1022.8 1779.88 1023.1C1779.8 1023.39 1779.72 1023.69 1779.62 1023.99C1779.54 1024.28 1779.45 1024.54 1779.36 1024.78L1778.16 1028.31H1782.04L1780.87 1024.76ZM1799.78 1026.92C1799.78 1028.49 1799.48 1029.8 1798.89 1030.86C1798.3 1031.9 1797.45 1032.68 1796.34 1033.21C1795.24 1033.74 1793.91 1034 1792.36 1034H1788.4V1020.2H1792.74C1794.98 1020.2 1796.71 1020.78 1797.93 1021.93C1799.16 1023.08 1799.78 1024.74 1799.78 1026.92ZM1797.18 1026.99C1797.18 1025.41 1796.8 1024.22 1796.03 1023.44C1795.28 1022.64 1794.17 1022.24 1792.7 1022.24H1790.9V1031.96H1792.43C1794.03 1031.96 1795.22 1031.55 1796.01 1030.74C1796.79 1029.9 1797.18 1028.66 1797.18 1026.99ZM1800.95 1037.91C1800.59 1037.91 1800.28 1037.89 1800.01 1037.84C1799.72 1037.81 1799.47 1037.76 1799.24 1037.7V1035.75C1799.48 1035.8 1799.72 1035.84 1799.96 1035.87C1800.19 1035.92 1800.42 1035.94 1800.66 1035.94C1801.36 1035.94 1801.88 1035.74 1802.2 1035.34C1802.52 1034.96 1802.68 1034.34 1802.68 1033.47V1020.2H1805.15V1033.28C1805.15 1034.37 1804.98 1035.26 1804.64 1035.94C1804.31 1036.63 1803.83 1037.13 1803.2 1037.43C1802.58 1037.75 1801.83 1037.91 1800.95 1037.91ZM1806.88 1034L1811.99 1020.15H1814.94L1820 1034H1817.29L1816.07 1030.35H1810.88L1809.59 1034H1806.88ZM1814.22 1024.76C1814.14 1024.54 1814.05 1024.28 1813.96 1023.99C1813.86 1023.7 1813.76 1023.41 1813.67 1023.1C1813.59 1022.8 1813.52 1022.51 1813.45 1022.24C1813.39 1022.51 1813.32 1022.8 1813.24 1023.1C1813.16 1023.39 1813.07 1023.69 1812.97 1023.99C1812.89 1024.28 1812.8 1024.54 1812.71 1024.78L1811.51 1028.31H1815.4L1814.22 1024.76Z" fill="#F2F2F2"/>
</svg>
