<svg width="409" height="272" viewBox="0 0 409 272" fill="none" xmlns="http://www.w3.org/2000/svg">
<path d="M35.6484 215.508V203.133C35.6484 203.133 35.6016 203.039 35.5078 202.852C31.1016 202.758 27.6328 202.711 25.1016 202.711C17.8828 202.711 14.2734 202.828 14.2734 203.062V215.227C14.2734 217.945 14.4844 220.125 14.9062 221.766C15 222.094 15.6562 222.422 16.875 222.75C18.0938 223.031 18.9375 223.172 19.4062 223.172C19.5469 223.172 19.6172 223.453 19.6172 224.016C19.6641 224.578 19.6406 224.977 19.5469 225.211C14.8594 224.977 12.1406 224.859 11.3906 224.859C11.1562 224.859 8.34375 224.977 2.95312 225.211C2.76562 225.023 2.67188 224.672 2.67188 224.156C2.67188 223.5 2.76562 223.172 2.95312 223.172C3.5625 223.172 4.45312 223.031 5.625 222.75C6.84375 222.469 7.52344 222.141 7.66406 221.766C7.99219 220.5 8.15625 218.414 8.15625 215.508V188.227C8.15625 185.32 7.99219 183.234 7.66406 181.969C7.52344 181.594 6.84375 181.266 5.625 180.984C4.45312 180.656 3.5625 180.492 2.95312 180.492C2.76562 180.492 2.67188 180.188 2.67188 179.578C2.67188 179.016 2.76562 178.641 2.95312 178.453C3.5625 178.5 4.80469 178.594 6.67969 178.734C8.55469 178.828 10.125 178.875 11.3906 178.875C12.3281 178.875 13.2422 178.852 14.1328 178.805C15.0234 178.758 15.9844 178.711 17.0156 178.664C18.0469 178.57 18.8906 178.5 19.5469 178.453C19.6406 178.641 19.6641 179.039 19.6172 179.648C19.6172 180.211 19.5469 180.492 19.4062 180.492C18.9375 180.492 18.0938 180.656 16.875 180.984C15.6562 181.312 15 181.641 14.9062 181.969C14.4844 183.609 14.2734 185.789 14.2734 188.508V198.984L14.4141 199.195C19.0078 199.289 22.5703 199.336 25.1016 199.336C27.8203 199.336 31.2891 199.289 35.5078 199.195C35.6016 199.102 35.6484 199.008 35.6484 198.914V188.227C35.6484 185.32 35.4844 183.234 35.1562 181.969C35.0156 181.594 34.3359 181.266 33.1172 180.984C31.9453 180.656 31.0547 180.492 30.4453 180.492C30.2578 180.492 30.1641 180.211 30.1641 179.648C30.1641 179.039 30.2578 178.641 30.4453 178.453C31.0078 178.5 32.25 178.594 34.1719 178.734C36.0938 178.828 37.6875 178.875 38.9531 178.875C39.8438 178.875 40.7344 178.852 41.625 178.805C42.5156 178.758 43.4531 178.711 44.4375 178.664C45.4688 178.57 46.3125 178.5 46.9688 178.453C47.0625 178.734 47.1094 179.086 47.1094 179.508C47.1094 180.164 47.0156 180.492 46.8281 180.492C46.3594 180.492 45.5156 180.656 44.2969 180.984C43.0781 181.312 42.4219 181.641 42.3281 181.969C41.9531 183.422 41.7656 185.602 41.7656 188.508V215.227C41.7656 218.133 41.9531 220.312 42.3281 221.766C42.4219 222.094 43.0781 222.422 44.2969 222.75C45.5156 223.031 46.3594 223.172 46.8281 223.172C47.0156 223.172 47.1094 223.523 47.1094 224.227C47.1094 224.602 47.0625 224.93 46.9688 225.211C42.2812 224.977 39.6094 224.859 38.9531 224.859C38.6719 224.859 35.8359 224.977 30.4453 225.211C30.2578 225.023 30.1641 224.648 30.1641 224.086C30.1641 223.477 30.2578 223.172 30.4453 223.172C31.0547 223.172 31.9453 223.031 33.1172 222.75C34.3359 222.469 35.0156 222.141 35.1562 221.766C35.4844 220.5 35.6484 218.414 35.6484 215.508ZM59.5547 220.5C60.3516 221.156 61.3828 221.484 62.6484 221.484C63.9141 221.484 65.1328 221.109 66.3047 220.359C67.4766 219.562 68.0625 218.766 68.0625 217.969V210.727C67.6875 210.914 66.7734 211.242 65.3203 211.711C63.8672 212.18 62.7188 212.602 61.875 212.977C61.0781 213.305 60.2812 213.891 59.4844 214.734C58.7344 215.531 58.3594 216.469 58.3594 217.547C58.3594 218.812 58.7578 219.797 59.5547 220.5ZM66.1641 194.344C68.7422 194.344 70.5938 194.977 71.7188 196.242C72.8438 197.461 73.4062 199.453 73.4062 202.219V218.461C73.4062 219.445 73.6641 220.266 74.1797 220.922C74.6953 221.578 75.3984 221.906 76.2891 221.906C76.9453 221.906 77.7656 221.578 78.75 220.922C78.9375 220.922 79.0312 221.109 79.0312 221.484C79.0312 222.094 78.9141 222.586 78.6797 222.961C76.7578 224.602 75.1172 225.422 73.7578 225.422C72.6797 225.422 71.6484 224.977 70.6641 224.086C69.6797 223.195 69 222.258 68.625 221.273C68.5781 221.273 68.3906 221.438 68.0625 221.766C67.7812 222.047 67.3828 222.398 66.8672 222.82C66.3516 223.195 65.7422 223.594 65.0391 224.016C64.3828 224.438 63.5859 224.789 62.6484 225.07C61.7578 225.352 60.8438 225.492 59.9062 225.492C57.75 225.492 55.9688 224.93 54.5625 223.805C53.1562 222.633 52.4531 220.898 52.4531 218.602C52.4531 217.57 52.7109 216.609 53.2266 215.719C53.7422 214.781 54.3516 214.031 55.0547 213.469C55.7578 212.859 56.7188 212.25 57.9375 211.641C59.1562 211.031 60.1875 210.586 61.0312 210.305C61.9219 209.977 63.0703 209.578 64.4766 209.109C65.8828 208.641 66.8672 208.289 67.4297 208.055C67.8516 207.914 68.0625 207.562 68.0625 207V201.727C68.0625 200.227 67.5938 199.078 66.6562 198.281C65.7188 197.438 64.5938 197.016 63.2812 197.016C61.875 197.016 60.7031 197.508 59.7656 198.492C58.8281 199.43 58.3594 200.672 58.3594 202.219C58.3594 203.859 57.3984 204.68 55.4766 204.68C54.1641 204.68 53.25 204.234 52.7344 203.344C52.7344 201.328 54.2109 199.336 57.1641 197.367C60.1172 195.352 63.1172 194.344 66.1641 194.344ZM102.094 194.203C105.375 194.203 107.672 195.375 108.984 197.719C110.297 200.062 110.953 203.859 110.953 209.109V215.508C110.953 218.227 111.141 220.312 111.516 221.766C111.609 222.094 112.219 222.422 113.344 222.75C114.469 223.031 115.266 223.172 115.734 223.172C115.875 223.172 115.969 223.453 116.016 224.016C116.062 224.578 116.039 224.977 115.945 225.211C111.258 224.977 108.75 224.859 108.422 224.859C108.328 224.859 105.867 224.977 101.039 225.211C100.852 225.023 100.758 224.648 100.758 224.086C100.758 223.477 100.852 223.172 101.039 223.172C101.602 223.172 102.375 223.031 103.359 222.75C104.391 222.422 104.953 222.094 105.047 221.766C105.375 220.406 105.539 218.766 105.539 216.844V209.812C105.539 205.453 104.977 202.477 103.852 200.883C102.727 199.289 100.898 198.492 98.3672 198.492C96.8672 198.492 95.4141 199.055 94.0078 200.18C92.6484 201.258 91.9688 202.242 91.9688 203.133V215.508C91.9688 218.227 92.1562 220.312 92.5312 221.766C92.625 222.094 93.2344 222.422 94.3594 222.75C95.4844 223.031 96.2812 223.172 96.75 223.172C96.8906 223.172 96.9844 223.453 97.0312 224.016C97.0781 224.578 97.0547 224.977 96.9609 225.211C92.2734 224.977 89.7656 224.859 89.4375 224.859C89.1562 224.859 86.6016 224.977 81.7734 225.211C81.5859 225.023 81.4922 224.648 81.4922 224.086C81.4922 223.477 81.5859 223.172 81.7734 223.172C82.3359 223.172 83.1562 223.031 84.2344 222.75C85.3594 222.422 85.9688 222.094 86.0625 221.766C86.3906 220.406 86.5547 218.766 86.5547 216.844V203.555C86.5547 201.727 86.2266 200.461 85.5703 199.758C85.1016 199.195 84.5156 198.82 83.8125 198.633C83.1562 198.398 82.5938 198.281 82.125 198.281C81.7031 198.281 81.4922 198.234 81.4922 198.141C81.4922 197.016 81.6328 196.43 81.9141 196.383C86.8828 195.633 90.1172 195.023 91.6172 194.555C91.6641 194.555 91.7344 194.555 91.8281 194.555C91.9219 194.508 91.9688 194.484 91.9688 194.484C92.1562 194.484 92.2734 194.695 92.3203 195.117C92.3672 195.492 92.3672 195.773 92.3203 195.961C92.1328 197.273 92.0391 198.211 92.0391 198.773C92.0391 198.961 92.0859 199.055 92.1797 199.055C92.2266 199.055 92.2969 199.008 92.3906 198.914C93.4688 197.789 94.9219 196.734 96.75 195.75C98.625 194.719 100.406 194.203 102.094 194.203ZM135.07 197.016C132.352 197.016 130.219 198.234 128.672 200.672C127.125 203.109 126.352 205.945 126.352 209.18C126.352 212.602 127.266 215.578 129.094 218.109C130.922 220.594 133.453 221.836 136.688 221.836C138.281 221.836 139.523 221.484 140.414 220.781C141.305 220.031 141.75 219.047 141.75 217.828V201.094C141.75 200.109 141.211 199.195 140.133 198.352C139.102 197.461 137.414 197.016 135.07 197.016ZM135.984 194.062C138 194.062 139.758 194.461 141.258 195.258C141.586 195.258 141.75 194.836 141.75 193.992V186.398C141.75 184.805 141.609 183.305 141.328 181.898C141.094 181.148 139.898 180.773 137.742 180.773H137.109C136.828 180.773 136.688 180.516 136.688 180C136.688 179.25 136.828 178.875 137.109 178.875C138.516 178.734 139.805 178.547 140.977 178.312C142.195 178.078 143.133 177.844 143.789 177.609C144.492 177.375 145.078 177.164 145.547 176.977C146.016 176.742 146.367 176.555 146.602 176.414L146.883 176.203H147.023C147.211 176.203 147.398 176.344 147.586 176.625C147.773 176.859 147.891 177.094 147.938 177.328C147.422 178.828 147.164 180.867 147.164 183.445V215.086C147.164 217.336 147.305 219.117 147.586 220.43C147.68 220.758 147.938 221.016 148.359 221.203C148.781 221.391 149.203 221.508 149.625 221.555C150.094 221.602 150.539 221.625 150.961 221.625L151.594 221.695C151.734 221.742 151.805 222.023 151.805 222.539C151.805 223.242 151.664 223.594 151.383 223.594C150.68 223.641 149.883 223.734 148.992 223.875C148.148 224.016 147.328 224.18 146.531 224.367C145.781 224.508 145.078 224.672 144.422 224.859C143.766 225 143.227 225.141 142.805 225.281L142.172 225.422C141.891 225.422 141.75 225.023 141.75 224.227V223.383C141.75 223.102 141.656 223.008 141.469 223.102C138.844 224.555 136.359 225.281 134.016 225.281C130.125 225.281 126.867 223.898 124.242 221.133C121.617 218.367 120.305 215.062 120.305 211.219C120.305 206.672 121.898 202.688 125.086 199.266C128.32 195.797 131.953 194.062 135.984 194.062ZM179.227 230.977C179.227 229.008 178.266 227.672 176.344 226.969C174.422 226.312 170.602 225.984 164.883 225.984C164.789 225.984 164.648 226.031 164.461 226.125C164.414 226.172 164.203 226.266 163.828 226.406C163.453 226.594 163.219 226.711 163.125 226.758C163.031 226.805 162.82 226.922 162.492 227.109C162.164 227.344 161.93 227.484 161.789 227.531C161.695 227.625 161.508 227.766 161.227 227.953C160.945 228.188 160.758 228.375 160.664 228.516C160.57 228.703 160.43 228.914 160.242 229.148C160.055 229.383 159.914 229.617 159.82 229.852C159.773 230.086 159.703 230.344 159.609 230.625C159.562 230.953 159.539 231.281 159.539 231.609C159.539 233.625 160.57 235.242 162.633 236.461C164.742 237.727 167.062 238.359 169.594 238.359C172.406 238.359 174.703 237.609 176.484 236.109C178.312 234.609 179.227 232.898 179.227 230.977ZM161.227 204.188C161.227 206.344 161.883 208.172 163.195 209.672C164.555 211.172 166.125 211.922 167.906 211.922C169.734 211.922 171.234 211.219 172.406 209.812C173.625 208.406 174.234 206.719 174.234 204.75C174.234 202.594 173.555 200.766 172.195 199.266C170.883 197.766 169.336 197.016 167.555 197.016C165.727 197.016 164.203 197.719 162.984 199.125C161.812 200.531 161.227 202.219 161.227 204.188ZM167.836 194.625C169.57 194.625 171.562 194.93 173.812 195.539C176.062 196.148 177.914 196.453 179.367 196.453H183.445C183.727 196.547 183.867 197.133 183.867 198.211C183.867 198.867 183.727 199.195 183.445 199.195H178.453C178.266 199.195 178.172 199.266 178.172 199.406L178.875 201.094C179.391 202.219 179.648 203.344 179.648 204.469C179.648 207 178.523 209.273 176.273 211.289C174.023 213.305 171.258 214.312 167.977 214.312C166.477 214.312 165.164 214.219 164.039 214.031C163.43 214.359 162.773 214.945 162.07 215.789C161.414 216.633 161.086 217.383 161.086 218.039C161.086 218.695 161.273 219.234 161.648 219.656C162.023 220.031 162.562 220.312 163.266 220.5C163.969 220.641 164.648 220.758 165.305 220.852C165.961 220.898 166.734 220.922 167.625 220.922C167.859 220.922 168.023 220.922 168.117 220.922C173.93 221.016 178.008 221.625 180.352 222.75C182.695 223.828 183.867 225.469 183.867 227.672C183.867 231.281 182.344 234.375 179.297 236.953C176.25 239.578 172.336 240.914 167.555 240.961C164.227 241.008 161.227 240.375 158.555 239.062C155.93 237.75 154.617 235.781 154.617 233.156C154.617 230.25 156.914 227.766 161.508 225.703C160.242 225.516 159.07 224.93 157.992 223.945C156.914 222.961 156.375 221.766 156.375 220.359C156.375 219.141 156.891 217.875 157.922 216.562C159 215.25 160.195 214.172 161.508 213.328C160.102 212.812 158.789 211.711 157.57 210.023C156.398 208.289 155.812 206.438 155.812 204.469C155.812 201.703 156.961 199.383 159.258 197.508C161.602 195.586 164.461 194.625 167.836 194.625ZM192.023 216.844V186.398C192.023 184.805 191.883 183.305 191.602 181.898C191.367 181.148 190.172 180.773 188.016 180.773H187.383C187.102 180.773 186.961 180.516 186.961 180C186.961 179.25 187.102 178.875 187.383 178.875C188.789 178.734 190.078 178.547 191.25 178.312C192.469 178.078 193.406 177.844 194.062 177.609C194.766 177.375 195.352 177.164 195.82 176.977C196.289 176.742 196.641 176.555 196.875 176.414L197.156 176.203H197.297C197.484 176.203 197.672 176.344 197.859 176.625C198.047 176.859 198.164 177.094 198.211 177.328C197.695 178.828 197.438 180.867 197.438 183.445V215.508C197.438 218.227 197.625 220.312 198 221.766C198.094 222.094 198.703 222.422 199.828 222.75C200.953 223.031 201.75 223.172 202.219 223.172C202.359 223.172 202.453 223.453 202.5 224.016C202.547 224.578 202.523 224.977 202.43 225.211C197.742 224.977 195.234 224.859 194.906 224.859C194.625 224.859 192.07 224.977 187.242 225.211C187.055 225.023 186.961 224.648 186.961 224.086C186.961 223.477 187.055 223.172 187.242 223.172C187.805 223.172 188.625 223.031 189.703 222.75C190.828 222.422 191.438 222.094 191.531 221.766C191.859 220.406 192.023 218.766 192.023 216.844ZM220.641 197.016C218.156 197.016 216.117 198.164 214.523 200.461C212.977 202.711 212.203 205.477 212.203 208.758C212.203 212.602 213.188 215.906 215.156 218.672C217.172 221.391 219.516 222.75 222.188 222.75C224.672 222.75 226.711 221.578 228.305 219.234C229.898 216.891 230.695 214.078 230.695 210.797C230.695 207 229.688 203.766 227.672 201.094C225.656 198.375 223.312 197.016 220.641 197.016ZM221.414 194.273C225.633 194.273 229.242 195.797 232.242 198.844C235.242 201.891 236.742 205.547 236.742 209.812C236.742 214.125 235.266 217.828 232.312 220.922C229.406 223.969 225.82 225.492 221.555 225.492C217.289 225.492 213.656 223.969 210.656 220.922C207.656 217.828 206.156 214.125 206.156 209.812C206.156 205.453 207.609 201.773 210.516 198.773C213.422 195.773 217.055 194.273 221.414 194.273ZM266.344 198.773C266.344 197.273 264.656 196.523 261.281 196.523C261.094 196.523 261 196.242 261 195.68C261 195.07 261.094 194.672 261.281 194.484C261.797 194.531 262.758 194.602 264.164 194.695C265.57 194.789 266.836 194.836 267.961 194.836L274.992 194.484C275.086 194.766 275.133 195.117 275.133 195.539C275.133 196.195 274.969 196.523 274.641 196.523C273.984 196.523 273.117 196.711 272.039 197.086C270.961 197.461 270.234 198.07 269.859 198.914L258.68 224.156C258.586 224.484 258.305 224.836 257.836 225.211C257.367 225.586 256.969 225.773 256.641 225.773C256.312 225.773 256.102 225.68 256.008 225.492C255.211 223.758 253.453 219.727 250.734 213.398C248.062 207.07 245.719 201.914 243.703 197.93C243.234 196.992 241.852 196.523 239.555 196.523C239.367 196.523 239.273 196.219 239.273 195.609C239.273 195.047 239.367 194.672 239.555 194.484C244.383 194.719 246.82 194.836 246.867 194.836L253.898 194.484C253.992 194.672 253.992 195.07 253.898 195.68C253.852 196.242 253.758 196.523 253.617 196.523C251.32 196.523 250.172 196.922 250.172 197.719C250.172 197.812 250.195 197.906 250.242 198L258.68 217.055L265.781 200.883C266.156 199.992 266.344 199.289 266.344 198.773ZM289.898 196.945C287.461 196.945 285.586 198 284.273 200.109C283.008 202.172 282.375 203.883 282.375 205.242C282.375 205.57 282.516 205.734 282.797 205.734H296.508C296.742 205.734 296.859 205.5 296.859 205.031C296.859 203.531 296.227 201.82 294.961 199.898C293.695 197.93 292.008 196.945 289.898 196.945ZM290.602 194.344C292.758 194.344 294.656 194.766 296.297 195.609C297.938 196.406 299.18 197.461 300.023 198.773C300.914 200.039 301.547 201.352 301.922 202.711C302.344 204.023 302.555 205.336 302.555 206.648C302.555 207.586 302.414 208.172 302.133 208.406C301.852 208.594 301.312 208.688 300.516 208.688H282.797C282.422 208.688 282.234 208.805 282.234 209.039C282.234 211.992 283.125 214.711 284.906 217.195C286.688 219.68 289.266 220.922 292.641 220.922C293.625 220.922 294.562 220.828 295.453 220.641C296.344 220.453 297.094 220.242 297.703 220.008C298.359 219.727 298.898 219.469 299.32 219.234C299.789 218.953 300.188 218.695 300.516 218.461L301.008 218.109C301.289 218.109 301.43 218.414 301.43 219.023C301.43 219.398 301.289 219.82 301.008 220.289C300.07 221.602 298.688 222.797 296.859 223.875C295.031 224.906 293.039 225.422 290.883 225.422C286.992 225.422 283.641 223.969 280.828 221.062C278.062 218.109 276.68 214.523 276.68 210.305C276.68 205.383 277.992 201.492 280.617 198.633C283.289 195.773 286.617 194.344 290.602 194.344ZM317.742 194.273C318.773 194.273 320.062 194.414 321.609 194.695C323.203 194.93 324.305 195.094 324.914 195.188C325.383 197.344 325.664 199.734 325.758 202.359C325.758 202.594 325.453 202.711 324.844 202.711C324.188 202.711 323.836 202.547 323.789 202.219C323.555 200.906 322.875 199.664 321.75 198.492C320.672 197.32 319.43 196.734 318.023 196.734C314.648 196.734 312.961 198.117 312.961 200.883C312.961 201.586 313.055 202.219 313.242 202.781C313.43 203.297 313.781 203.812 314.297 204.328C314.859 204.797 315.281 205.148 315.562 205.383C315.844 205.57 316.453 205.945 317.391 206.508C318.375 207.023 318.984 207.352 319.219 207.492C319.406 207.586 319.945 207.914 320.836 208.477C321.773 208.992 322.43 209.367 322.805 209.602C323.18 209.836 323.719 210.234 324.422 210.797C325.172 211.359 325.711 211.875 326.039 212.344C326.367 212.766 326.672 213.328 326.953 214.031C327.281 214.688 327.445 215.367 327.445 216.07C327.445 218.836 326.367 221.156 324.211 223.031C322.055 224.859 319.523 225.773 316.617 225.773C315.633 225.773 314.719 225.703 313.875 225.562C313.078 225.469 312.117 225.281 310.992 225C309.867 224.719 309 224.531 308.391 224.438C308.109 223.688 307.828 222.516 307.547 220.922C307.312 219.328 307.195 218.062 307.195 217.125C307.57 216.844 307.852 216.703 308.039 216.703C308.742 216.703 309.117 216.844 309.164 217.125C309.445 218.531 310.312 219.914 311.766 221.273C313.266 222.586 314.883 223.242 316.617 223.242C318.117 223.242 319.336 222.844 320.273 222.047C321.258 221.203 321.75 220.008 321.75 218.461C321.75 217.664 321.586 216.938 321.258 216.281C320.977 215.578 320.484 214.969 319.781 214.453C319.125 213.891 318.492 213.445 317.883 213.117C317.32 212.742 316.5 212.273 315.422 211.711C314.344 211.148 313.547 210.703 313.031 210.375C309.375 208.266 307.547 205.758 307.547 202.852C307.547 200.32 308.555 198.258 310.57 196.664C312.633 195.07 315.023 194.273 317.742 194.273Z" fill="black"/>
<path d="M44.008 42.144V88H37.8V67.136H13.064V88H6.856V42.144H13.064V62.592H37.8V42.144H44.008ZM71.0175 73.408C68.3935 73.4933 66.1535 73.7067 64.2975 74.048C62.4628 74.368 60.9588 74.7947 59.7855 75.328C58.6335 75.8613 57.7908 76.4907 57.2575 77.216C56.7455 77.9413 56.4895 78.752 56.4895 79.648C56.4895 80.5013 56.6282 81.2373 56.9055 81.856C57.1828 82.4747 57.5562 82.9867 58.0255 83.392C58.5162 83.776 59.0815 84.064 59.7215 84.256C60.3828 84.4267 61.0868 84.512 61.8335 84.512C62.8362 84.512 63.7535 84.416 64.5855 84.224C65.4175 84.0107 66.1962 83.712 66.9215 83.328C67.6682 82.944 68.3722 82.4853 69.0335 81.952C69.7162 81.4187 70.3775 80.8107 71.0175 80.128V73.408ZM52.6175 60.16C54.4095 58.432 56.3402 57.1413 58.4095 56.288C60.4788 55.4347 62.7722 55.008 65.2895 55.008C67.1028 55.008 68.7135 55.3067 70.1215 55.904C71.5295 56.5013 72.7135 57.3333 73.6735 58.4C74.6335 59.4667 75.3588 60.7573 75.8495 62.272C76.3402 63.7867 76.5855 65.4507 76.5855 67.264V88H74.0575C73.5028 88 73.0762 87.9147 72.7775 87.744C72.4788 87.552 72.2442 87.1893 72.0735 86.656L71.4335 83.584C70.5802 84.3733 69.7482 85.0773 68.9375 85.696C68.1268 86.2933 67.2735 86.8053 66.3775 87.232C65.4815 87.6373 64.5215 87.9467 63.4975 88.16C62.4948 88.3947 61.3748 88.512 60.1375 88.512C58.8788 88.512 57.6948 88.3413 56.5855 88C55.4762 87.6373 54.5055 87.104 53.6735 86.4C52.8628 85.696 52.2122 84.8107 51.7215 83.744C51.2522 82.656 51.0175 81.376 51.0175 79.904C51.0175 78.624 51.3695 77.3973 52.0735 76.224C52.7775 75.0293 53.9188 73.9733 55.4975 73.056C57.0762 72.1387 59.1348 71.392 61.6735 70.816C64.2122 70.2187 67.3268 69.8773 71.0175 69.792V67.264C71.0175 64.7467 70.4735 62.848 69.3855 61.568C68.2975 60.2667 66.7082 59.616 64.6175 59.616C63.2095 59.616 62.0255 59.7973 61.0655 60.16C60.1268 60.5013 59.3055 60.896 58.6015 61.344C57.9188 61.7707 57.3215 62.1653 56.8095 62.528C56.3188 62.8693 55.8282 63.04 55.3375 63.04C54.9535 63.04 54.6228 62.944 54.3455 62.752C54.0682 62.5387 53.8335 62.2827 53.6415 61.984L52.6175 60.16ZM90.638 60.288C91.342 59.4987 92.0887 58.784 92.878 58.144C93.6673 57.504 94.4993 56.96 95.374 56.512C96.27 56.0427 97.2087 55.6907 98.19 55.456C99.1927 55.2 100.27 55.072 101.422 55.072C103.193 55.072 104.75 55.3707 106.094 55.968C107.459 56.544 108.59 57.376 109.486 58.464C110.403 59.5307 111.097 60.8213 111.566 62.336C112.035 63.8507 112.27 65.5253 112.27 67.36V88H106.542V67.36C106.542 64.9067 105.977 63.008 104.846 61.664C103.737 60.2987 102.041 59.616 99.758 59.616C98.0727 59.616 96.494 60.0213 95.022 60.832C93.5713 61.6427 92.2273 62.7413 90.99 64.128V88H85.262V55.584H88.686C89.4967 55.584 89.998 55.9787 90.19 56.768L90.638 60.288ZM142.07 63.296C141.003 61.8667 139.851 60.8747 138.614 60.32C137.376 59.744 135.99 59.456 134.454 59.456C131.446 59.456 129.131 60.5333 127.51 62.688C125.888 64.8427 125.078 67.9147 125.078 71.904C125.078 74.016 125.259 75.8293 125.622 77.344C125.984 78.8373 126.518 80.0747 127.222 81.056C127.926 82.016 128.79 82.72 129.814 83.168C130.838 83.616 132 83.84 133.302 83.84C135.179 83.84 136.811 83.4133 138.198 82.56C139.606 81.7067 140.896 80.5013 142.07 78.944V63.296ZM147.766 40.864V88H144.374C143.563 88 143.051 87.6053 142.838 86.816L142.326 82.88C140.939 84.544 139.36 85.888 137.59 86.912C135.819 87.936 133.771 88.448 131.446 88.448C129.59 88.448 127.904 88.096 126.39 87.392C124.875 86.6667 123.584 85.6107 122.518 84.224C121.451 82.8373 120.63 81.1093 120.054 79.04C119.478 76.9707 119.19 74.592 119.19 71.904C119.19 69.5147 119.51 67.296 120.15 65.248C120.79 63.1787 121.707 61.3867 122.902 59.872C124.096 58.3573 125.558 57.1733 127.286 56.32C129.035 55.4453 130.998 55.008 133.174 55.008C135.158 55.008 136.854 55.3493 138.262 56.032C139.691 56.6933 140.96 57.6213 142.07 58.816V40.864H147.766ZM168.058 72.16C169.21 72.16 170.223 72 171.098 71.68C171.973 71.36 172.709 70.912 173.306 70.336C173.903 69.76 174.351 69.0773 174.65 68.288C174.949 67.4773 175.098 66.592 175.098 65.632C175.098 63.648 174.49 62.0693 173.274 60.896C172.079 59.7227 170.341 59.136 168.058 59.136C165.754 59.136 163.994 59.7227 162.778 60.896C161.583 62.0693 160.986 63.648 160.986 65.632C160.986 66.592 161.135 67.4773 161.434 68.288C161.754 69.0773 162.213 69.76 162.81 70.336C163.407 70.912 164.143 71.36 165.018 71.68C165.893 72 166.906 72.16 168.058 72.16ZM178.33 89.76C178.33 88.9707 178.106 88.3307 177.658 87.84C177.21 87.3493 176.602 86.9653 175.834 86.688C175.087 86.4107 174.213 86.2187 173.21 86.112C172.207 85.984 171.141 85.888 170.01 85.824C168.901 85.76 167.77 85.696 166.618 85.632C165.466 85.568 164.357 85.4613 163.29 85.312C162.095 85.8667 161.114 86.5707 160.346 87.424C159.599 88.256 159.226 89.2373 159.226 90.368C159.226 91.0933 159.407 91.7653 159.77 92.384C160.154 93.024 160.73 93.568 161.498 94.016C162.266 94.4853 163.226 94.848 164.378 95.104C165.551 95.3813 166.927 95.52 168.506 95.52C170.042 95.52 171.418 95.3813 172.634 95.104C173.85 94.8267 174.874 94.432 175.706 93.92C176.559 93.408 177.21 92.8 177.658 92.096C178.106 91.392 178.33 90.6133 178.33 89.76ZM184.122 56.864V58.976C184.122 59.68 183.674 60.128 182.778 60.32L179.098 60.8C179.823 62.208 180.186 63.7653 180.186 65.472C180.186 67.0507 179.877 68.4907 179.258 69.792C178.661 71.072 177.829 72.1707 176.762 73.088C175.695 74.0053 174.415 74.7093 172.922 75.2C171.429 75.6907 169.807 75.936 168.058 75.936C166.543 75.936 165.114 75.7547 163.77 75.392C163.087 75.8187 162.565 76.2773 162.202 76.768C161.839 77.2373 161.658 77.7173 161.658 78.208C161.658 78.976 161.967 79.5627 162.586 79.968C163.226 80.352 164.058 80.6293 165.082 80.8C166.106 80.9707 167.269 81.0773 168.57 81.12C169.893 81.1627 171.237 81.2373 172.602 81.344C173.989 81.4293 175.333 81.5893 176.634 81.824C177.957 82.0587 179.13 82.4427 180.154 82.976C181.178 83.5093 181.999 84.2453 182.618 85.184C183.258 86.1227 183.578 87.3387 183.578 88.832C183.578 90.2187 183.226 91.5627 182.522 92.864C181.839 94.1653 180.847 95.3173 179.546 96.32C178.245 97.344 176.645 98.1547 174.746 98.752C172.869 99.3707 170.746 99.68 168.378 99.68C166.01 99.68 163.941 99.4453 162.17 98.976C160.399 98.5067 158.927 97.8773 157.754 97.088C156.581 96.2987 155.695 95.3813 155.098 94.336C154.522 93.312 154.234 92.2347 154.234 91.104C154.234 89.504 154.735 88.1493 155.738 87.04C156.741 85.9307 158.117 85.0453 159.866 84.384C158.906 83.9573 158.138 83.392 157.562 82.688C157.007 81.9627 156.73 80.992 156.73 79.776C156.73 79.3067 156.815 78.8267 156.986 78.336C157.157 77.824 157.413 77.3227 157.754 76.832C158.117 76.32 158.554 75.84 159.066 75.392C159.578 74.944 160.175 74.5493 160.858 74.208C159.258 73.312 158.01 72.128 157.114 70.656C156.218 69.1627 155.77 67.4347 155.77 65.472C155.77 63.8933 156.069 62.464 156.666 61.184C157.285 59.8827 158.138 58.784 159.226 57.888C160.314 56.9707 161.605 56.2667 163.098 55.776C164.613 55.2853 166.266 55.04 168.058 55.04C169.466 55.04 170.778 55.2 171.994 55.52C173.21 55.8187 174.319 56.2667 175.322 56.864H184.122ZM195.9 40.864V88H190.204V40.864H195.9ZM218.801 55.072C221.169 55.072 223.302 55.4667 225.201 56.256C227.1 57.0453 228.721 58.1653 230.065 59.616C231.409 61.0667 232.433 62.8267 233.137 64.896C233.862 66.944 234.225 69.2373 234.225 71.776C234.225 74.336 233.862 76.64 233.137 78.688C232.433 80.736 231.409 82.4853 230.065 83.936C228.721 85.3867 227.1 86.5067 225.201 87.296C223.302 88.064 221.169 88.448 218.801 88.448C216.412 88.448 214.257 88.064 212.337 87.296C210.438 86.5067 208.817 85.3867 207.473 83.936C206.129 82.4853 205.094 80.736 204.369 78.688C203.665 76.64 203.313 74.336 203.313 71.776C203.313 69.2373 203.665 66.944 204.369 64.896C205.094 62.8267 206.129 61.0667 207.473 59.616C208.817 58.1653 210.438 57.0453 212.337 56.256C214.257 55.4667 216.412 55.072 218.801 55.072ZM218.801 84C222.001 84 224.39 82.9333 225.969 80.8C227.548 78.6453 228.337 75.648 228.337 71.808C228.337 67.9467 227.548 64.9387 225.969 62.784C224.39 60.6293 222.001 59.552 218.801 59.552C217.18 59.552 215.761 59.8293 214.545 60.384C213.35 60.9387 212.348 61.7387 211.537 62.784C210.748 63.8293 210.15 65.12 209.745 66.656C209.361 68.1707 209.169 69.888 209.169 71.808C209.169 75.648 209.958 78.6453 211.537 80.8C213.137 82.9333 215.558 84 218.801 84ZM268.351 55.584L255.135 88H250.015L236.799 55.584H241.439C241.908 55.584 242.292 55.7013 242.591 55.936C242.889 56.1707 243.092 56.448 243.199 56.768L251.423 77.632C251.679 78.4213 251.903 79.1893 252.095 79.936C252.287 80.6827 252.468 81.4293 252.639 82.176C252.809 81.4293 252.991 80.6827 253.183 79.936C253.375 79.1893 253.609 78.4213 253.887 77.632L262.207 56.768C262.335 56.4267 262.548 56.1493 262.847 55.936C263.145 55.7013 263.497 55.584 263.903 55.584H268.351ZM294.396 68.256C294.396 66.9333 294.204 65.728 293.82 64.64C293.457 63.5307 292.913 62.5813 292.188 61.792C291.484 60.9813 290.62 60.3627 289.596 59.936C288.572 59.488 287.409 59.264 286.108 59.264C283.377 59.264 281.212 60.064 279.612 61.664C278.033 63.2427 277.052 65.44 276.668 68.256H294.396ZM299.004 83.456C298.3 84.3093 297.457 85.056 296.476 85.696C295.494 86.3147 294.438 86.8267 293.308 87.232C292.198 87.6373 291.046 87.936 289.852 88.128C288.657 88.3413 287.473 88.448 286.3 88.448C284.06 88.448 281.99 88.0747 280.092 87.328C278.214 86.56 276.582 85.4507 275.196 84C273.83 82.528 272.764 80.7147 271.996 78.56C271.228 76.4053 270.844 73.9307 270.844 71.136C270.844 68.8747 271.185 66.7627 271.868 64.8C272.572 62.8373 273.574 61.1413 274.876 59.712C276.177 58.2613 277.766 57.1307 279.644 56.32C281.521 55.488 283.633 55.072 285.98 55.072C287.921 55.072 289.713 55.4027 291.356 56.064C293.02 56.704 294.449 57.6427 295.644 58.88C296.86 60.096 297.809 61.6107 298.492 63.424C299.174 65.216 299.516 67.264 299.516 69.568C299.516 70.464 299.42 71.0613 299.228 71.36C299.036 71.6587 298.673 71.808 298.14 71.808H276.476C276.54 73.856 276.817 75.6373 277.308 77.152C277.82 78.6667 278.524 79.936 279.42 80.96C280.316 81.9627 281.382 82.72 282.62 83.232C283.857 83.7227 285.244 83.968 286.78 83.968C288.209 83.968 289.436 83.808 290.46 83.488C291.505 83.1467 292.401 82.784 293.148 82.4C293.894 82.016 294.513 81.664 295.004 81.344C295.516 81.0027 295.953 80.832 296.316 80.832C296.785 80.832 297.148 81.0133 297.404 81.376L299.004 83.456ZM325.392 60.928C325.136 61.3973 324.741 61.632 324.208 61.632C323.888 61.632 323.525 61.5147 323.12 61.28C322.715 61.0453 322.213 60.7893 321.616 60.512C321.04 60.2133 320.347 59.9467 319.536 59.712C318.725 59.456 317.765 59.328 316.656 59.328C315.696 59.328 314.832 59.456 314.064 59.712C313.296 59.9467 312.635 60.2773 312.08 60.704C311.547 61.1307 311.131 61.632 310.832 62.208C310.555 62.7627 310.416 63.3707 310.416 64.032C310.416 64.864 310.651 65.5573 311.12 66.112C311.611 66.6667 312.251 67.1467 313.04 67.552C313.829 67.9573 314.725 68.32 315.728 68.64C316.731 68.9387 317.755 69.2693 318.8 69.632C319.867 69.9733 320.901 70.3573 321.904 70.784C322.907 71.2107 323.803 71.744 324.592 72.384C325.381 73.024 326.011 73.8133 326.48 74.752C326.971 75.6693 327.216 76.7787 327.216 78.08C327.216 79.5733 326.949 80.96 326.416 82.24C325.883 83.4987 325.093 84.5973 324.048 85.536C323.003 86.4533 321.723 87.1787 320.208 87.712C318.693 88.2453 316.944 88.512 314.96 88.512C312.699 88.512 310.651 88.1493 308.816 87.424C306.981 86.6773 305.424 85.728 304.144 84.576L305.488 82.4C305.659 82.1227 305.861 81.9093 306.096 81.76C306.331 81.6107 306.629 81.536 306.992 81.536C307.376 81.536 307.781 81.6853 308.208 81.984C308.635 82.2827 309.147 82.6133 309.744 82.976C310.363 83.3387 311.109 83.6693 311.984 83.968C312.859 84.2667 313.947 84.416 315.248 84.416C316.357 84.416 317.328 84.2773 318.16 84C318.992 83.7013 319.685 83.3067 320.24 82.816C320.795 82.3253 321.2 81.76 321.456 81.12C321.733 80.48 321.872 79.7973 321.872 79.072C321.872 78.176 321.627 77.44 321.136 76.864C320.667 76.2667 320.037 75.7653 319.248 75.36C318.459 74.9333 317.552 74.5707 316.528 74.272C315.525 73.952 314.491 73.6213 313.424 73.28C312.379 72.9387 311.344 72.5547 310.32 72.128C309.317 71.68 308.421 71.1253 307.632 70.464C306.843 69.8027 306.203 68.992 305.712 68.032C305.243 67.0507 305.008 65.8667 305.008 64.48C305.008 63.2427 305.264 62.0587 305.776 60.928C306.288 59.776 307.035 58.7733 308.016 57.92C308.997 57.0453 310.203 56.352 311.632 55.84C313.061 55.328 314.693 55.072 316.528 55.072C318.661 55.072 320.571 55.4133 322.256 56.096C323.963 56.7573 325.435 57.6747 326.672 58.848L325.392 60.928Z" fill="black"/>
<rect x="1" width="339" height="1" fill="#828282"/>
<path d="M8.924 120.95V122H2.512V112.76H3.632V120.95H8.924ZM16.6332 119.438H12.4472L11.4672 122H10.2912L13.8892 112.76H15.2192L18.8032 122H17.6132L16.6332 119.438ZM16.2272 118.388L14.9812 115.112L14.5472 113.824H14.5192L14.1132 115.07L12.8532 118.388H16.2272ZM26.4796 113.81H23.2596V122H22.1396V113.81H18.9196V112.76H26.4796V113.81ZM32.4023 112.62C33.2703 112.62 34.0263 112.816 34.6703 113.208C35.3143 113.591 35.809 114.141 36.1543 114.86C36.509 115.569 36.6863 116.409 36.6863 117.38C36.6863 118.351 36.509 119.195 36.1543 119.914C35.809 120.623 35.3143 121.174 34.6703 121.566C34.0263 121.949 33.2703 122.14 32.4023 122.14C31.5343 122.14 30.7783 121.949 30.1343 121.566C29.4903 121.174 28.991 120.623 28.6363 119.914C28.291 119.195 28.1183 118.351 28.1183 117.38C28.1183 116.409 28.291 115.569 28.6363 114.86C28.991 114.141 29.4903 113.591 30.1343 113.208C30.7783 112.816 31.5343 112.62 32.4023 112.62ZM32.4023 113.67C31.441 113.67 30.6803 114.001 30.1203 114.664C29.5697 115.317 29.2943 116.223 29.2943 117.38C29.2943 118.537 29.5697 119.447 30.1203 120.11C30.6803 120.763 31.441 121.09 32.4023 121.09C33.3637 121.09 34.1197 120.763 34.6703 120.11C35.2303 119.447 35.5103 118.537 35.5103 117.38C35.5103 116.223 35.2303 115.317 34.6703 114.664C34.1197 114.001 33.3637 113.67 32.4023 113.67Z" fill="#4D4D4D"/>
<path d="M9.96 262.634C9.67067 263.418 9.19467 264.034 8.532 264.482C7.86933 264.921 7.104 265.14 6.236 265.14C5.368 265.14 4.612 264.949 3.968 264.566C3.324 264.174 2.82467 263.623 2.47 262.914C2.12467 262.195 1.952 261.351 1.952 260.38C1.952 259.419 2.12467 258.579 2.47 257.86C2.82467 257.141 3.324 256.591 3.968 256.208C4.612 255.816 5.35867 255.62 6.208 255.62C7.09467 255.62 7.83667 255.802 8.434 256.166C9.04067 256.53 9.49333 257.067 9.792 257.776L8.686 258.294C8.48067 257.753 8.182 257.347 7.79 257.076C7.398 256.805 6.89867 256.67 6.292 256.67C5.65733 256.67 5.102 256.819 4.626 257.118C4.15 257.407 3.78133 257.832 3.52 258.392C3.25867 258.952 3.128 259.615 3.128 260.38C3.128 261.537 3.40333 262.447 3.954 263.11C4.514 263.763 5.27467 264.09 6.236 264.09C6.86133 264.09 7.40267 263.931 7.86 263.614C8.31733 263.297 8.644 262.83 8.84 262.214L9.96 262.634ZM16.0017 261.164H13.7897V265H12.6697V255.76H16.1697C17.1123 255.76 17.8683 256.003 18.4377 256.488C19.007 256.973 19.2917 257.631 19.2917 258.462C19.2917 259.115 19.1097 259.666 18.7457 260.114C18.3817 260.562 17.8823 260.87 17.2477 261.038L19.8517 265H18.5217L16.0017 261.164ZM13.7897 260.114H16.1557C17.4623 260.114 18.1157 259.563 18.1157 258.462C18.1157 257.361 17.4623 256.81 16.1557 256.81H13.7897V260.114ZM23.6602 265H22.5402V255.76H23.6602V265ZM36.1748 265H35.1108V259.19L35.2368 256.754H35.2228L32.1848 265H31.2328L28.1948 256.754H28.1808L28.3068 259.19V265H27.2428V255.76H28.9648L30.9948 261.374L31.6948 263.684H31.7228L32.4368 261.388L34.4528 255.76H36.1748V265ZM42.72 255.62C44.372 255.62 45.562 256.273 46.29 257.58L45.324 258.364C45.044 257.748 44.708 257.314 44.316 257.062C43.9333 256.801 43.406 256.67 42.734 256.67C42.0247 256.67 41.4647 256.819 41.054 257.118C40.6527 257.407 40.452 257.781 40.452 258.238C40.452 258.537 40.5313 258.784 40.69 258.98C40.8487 259.176 41.11 259.349 41.474 259.498C41.8473 259.638 42.3607 259.764 43.014 259.876C44.2367 260.081 45.1 260.389 45.604 260.8C46.1173 261.211 46.374 261.78 46.374 262.508C46.374 263.031 46.2247 263.493 45.926 263.894C45.6367 264.286 45.2213 264.594 44.68 264.818C44.1387 265.033 43.5133 265.14 42.804 265.14C41.8707 265.14 41.0727 264.958 40.41 264.594C39.7567 264.23 39.2573 263.745 38.912 263.138L39.878 262.354C40.13 262.905 40.4987 263.334 40.984 263.642C41.4787 263.941 42.0947 264.09 42.832 264.09C43.56 264.09 44.1387 263.959 44.568 263.698C44.9973 263.427 45.212 263.049 45.212 262.564C45.212 262.153 45.0253 261.827 44.652 261.584C44.2787 261.341 43.616 261.136 42.664 260.968C41.432 260.753 40.5593 260.445 40.046 260.044C39.5327 259.643 39.276 259.083 39.276 258.364C39.276 257.869 39.416 257.412 39.696 256.992C39.976 256.572 40.3773 256.241 40.9 255.998C41.4227 255.746 42.0293 255.62 42.72 255.62ZM53.0048 255.62C53.8728 255.62 54.6288 255.816 55.2728 256.208C55.9168 256.591 56.4114 257.141 56.7568 257.86C57.1114 258.569 57.2888 259.409 57.2888 260.38C57.2888 261.351 57.1114 262.195 56.7568 262.914C56.4114 263.623 55.9168 264.174 55.2728 264.566C54.6288 264.949 53.8728 265.14 53.0048 265.14C52.1368 265.14 51.3808 264.949 50.7368 264.566C50.0928 264.174 49.5934 263.623 49.2388 262.914C48.8934 262.195 48.7208 261.351 48.7208 260.38C48.7208 259.409 48.8934 258.569 49.2388 257.86C49.5934 257.141 50.0928 256.591 50.7368 256.208C51.3808 255.816 52.1368 255.62 53.0048 255.62ZM53.0048 256.67C52.0434 256.67 51.2828 257.001 50.7228 257.664C50.1721 258.317 49.8968 259.223 49.8968 260.38C49.8968 261.537 50.1721 262.447 50.7228 263.11C51.2828 263.763 52.0434 264.09 53.0048 264.09C53.9661 264.09 54.7221 263.763 55.2728 263.11C55.8328 262.447 56.1128 261.537 56.1128 260.38C56.1128 259.223 55.8328 258.317 55.2728 257.664C54.7221 257.001 53.9661 256.67 53.0048 256.67ZM67.5654 265H66.1794L62.3154 258.812L61.3354 256.992H61.3214L61.3774 258.476V265H60.3134V255.76H61.6994L65.5494 261.92L66.5434 263.768H66.5574L66.5014 262.284V255.76H67.5654V265ZM82.5993 256.81H79.3793V265H78.2593V256.81H75.0393V255.76H82.5993V256.81ZM91.8045 263.95V265H85.1125V255.76H91.5945V256.81H86.2325V259.792H90.4045V260.842H86.2325V263.95H91.8045ZM99.7523 265L97.2463 261.178L94.7403 265H93.4383L96.6723 260.296L93.7183 255.76H95.0483L97.4003 259.372L99.7663 255.76H100.956L97.9743 260.24L101.054 265H99.7523ZM110.064 256.81H106.844V265H105.724V256.81H102.504V255.76H110.064V256.81Z" fill="#4D4D4D"/>
</svg>
