<svg width="477" height="257" viewBox="0 0 477 257" fill="none" xmlns="http://www.w3.org/2000/svg">
<path d="M5 48V128H120.455" stroke="#BDBDBD" stroke-width="0.5"/>
<g filter="url(#filter0_d)">
<path d="M5 127.333C5 94.1368 32.0874 73.0004 46.7413 64.3641C60.6405 56.1725 92.701 48 120.455 48" stroke="#C50063" stroke-linecap="round"/>
</g>
<path d="M10.664 161.856C11.368 163.019 12.2533 164.299 13.32 165.696L13.304 165.856C12.92 166.005 12.5253 166.101 12.12 166.144L11.944 166.032C11.0693 164.72 10.2853 163.44 9.592 162.192H7.72V162.8L7.784 166H6.488L6.568 162.912L6.488 155.744L9.624 155.728C10.6267 155.728 11.4 155.984 11.944 156.496C12.4987 156.997 12.776 157.717 12.776 158.656C12.776 159.36 12.5893 159.995 12.216 160.56C11.8533 161.115 11.336 161.547 10.664 161.856ZM7.736 161.104L9.656 161.152C10.8507 160.811 11.448 160.016 11.448 158.768C11.448 158.117 11.272 157.632 10.92 157.312C10.568 156.981 10.04 156.805 9.336 156.784L7.784 156.832L7.736 161.104ZM15.1529 162.288V162.32C15.1529 163.216 15.3555 163.904 15.7609 164.384C16.1662 164.864 16.7422 165.104 17.4889 165.104C17.8622 165.104 18.2355 165.045 18.6089 164.928C18.9822 164.8 19.3235 164.624 19.6329 164.4L19.7609 164.496L19.5689 165.584C18.8222 165.947 18.0755 166.128 17.3289 166.128C16.2835 166.128 15.4622 165.797 14.8649 165.136C14.2675 164.464 13.9689 163.547 13.9689 162.384C13.9689 161.211 14.2675 160.277 14.8649 159.584C15.4622 158.891 16.2675 158.544 17.2809 158.544C18.1342 158.544 18.7955 158.789 19.2649 159.28C19.7342 159.76 19.9689 160.432 19.9689 161.296C19.9689 161.584 19.9475 161.856 19.9049 162.112L19.7449 162.272L15.1529 162.288ZM17.2809 159.44C16.7475 159.44 16.2995 159.616 15.9369 159.968C15.5849 160.309 15.3502 160.795 15.2329 161.424L18.7689 161.36L18.8009 161.136C18.8009 160.592 18.6675 160.176 18.4009 159.888C18.1449 159.589 17.7715 159.44 17.2809 159.44ZM24.5919 158.544C24.9225 158.544 25.2639 158.587 25.6159 158.672C25.9785 158.747 26.2932 158.848 26.5599 158.976L26.3359 160.08L26.1919 160.128C25.6372 159.765 25.0879 159.584 24.5439 159.584C23.9145 159.584 23.4239 159.824 23.0719 160.304C22.7199 160.784 22.5439 161.456 22.5439 162.32C22.5439 163.184 22.7252 163.867 23.0879 164.368C23.4612 164.859 23.9732 165.104 24.6239 165.104C24.9119 165.104 25.2105 165.056 25.5199 164.96C25.8399 164.864 26.1385 164.731 26.4159 164.56L26.5599 164.64L26.4159 165.712C25.7652 165.989 25.1145 166.128 24.4639 166.128C23.4932 166.128 22.7305 165.797 22.1759 165.136C21.6212 164.464 21.3439 163.547 21.3439 162.384C21.3439 161.2 21.6319 160.267 22.2079 159.584C22.7945 158.891 23.5892 158.544 24.5919 158.544ZM28.1881 162.896L28.1401 158.752L29.3721 158.64L29.3401 162.784L29.3721 166H28.1241L28.1881 162.896ZM28.7801 155.392C28.9935 155.392 29.1641 155.456 29.2921 155.584C29.4201 155.712 29.4841 155.888 29.4841 156.112C29.4841 156.347 29.4148 156.533 29.2761 156.672C29.1481 156.811 28.9668 156.88 28.7321 156.88C28.5081 156.88 28.3321 156.816 28.2041 156.688C28.0868 156.56 28.0281 156.379 28.0281 156.144C28.0281 155.92 28.0921 155.739 28.2201 155.6C28.3588 155.461 28.5455 155.392 28.7801 155.392ZM35.3111 158.592C36.2285 158.592 36.9325 158.896 37.4231 159.504C37.9138 160.112 38.1591 160.981 38.1591 162.112C38.1591 163.392 37.8498 164.384 37.2311 165.088C36.6125 165.781 35.7325 166.128 34.5911 166.128C34.1431 166.128 33.6791 166.08 33.1991 165.984L33.2311 168.96H31.9831L32.0631 162.896L31.9831 158.752L33.1991 158.64L33.1831 159.68H33.2951C33.6685 159.371 34.0045 159.136 34.3031 158.976C34.6018 158.816 34.9378 158.688 35.3111 158.592ZM34.7511 165.2C35.4551 165.2 35.9991 164.955 36.3831 164.464C36.7671 163.973 36.9591 163.275 36.9591 162.368C36.9591 161.483 36.8045 160.805 36.4951 160.336C36.1965 159.867 35.7645 159.632 35.1991 159.632C34.8685 159.632 34.5378 159.723 34.2071 159.904C33.8871 160.085 33.5458 160.368 33.1831 160.752L33.1671 162.784L33.1831 164.784C33.7058 165.061 34.2285 165.2 34.7511 165.2ZM40.6998 162.288V162.32C40.6998 163.216 40.9024 163.904 41.3078 164.384C41.7131 164.864 42.2891 165.104 43.0358 165.104C43.4091 165.104 43.7824 165.045 44.1558 164.928C44.5291 164.8 44.8704 164.624 45.1798 164.4L45.3078 164.496L45.1158 165.584C44.3691 165.947 43.6224 166.128 42.8758 166.128C41.8304 166.128 41.0091 165.797 40.4118 165.136C39.8144 164.464 39.5158 163.547 39.5158 162.384C39.5158 161.211 39.8144 160.277 40.4118 159.584C41.0091 158.891 41.8144 158.544 42.8278 158.544C43.6811 158.544 44.3424 158.789 44.8118 159.28C45.2811 159.76 45.5158 160.432 45.5158 161.296C45.5158 161.584 45.4944 161.856 45.4518 162.112L45.2918 162.272L40.6998 162.288ZM42.8278 159.44C42.2944 159.44 41.8464 159.616 41.4838 159.968C41.1318 160.309 40.8971 160.795 40.7798 161.424L44.3158 161.36L44.3478 161.136C44.3478 160.592 44.2144 160.176 43.9478 159.888C43.6918 159.589 43.3184 159.44 42.8278 159.44ZM50.2194 162.896L50.1714 158.752L51.4034 158.64L51.3714 162.784L51.4034 166H50.1554L50.2194 162.896ZM50.8114 155.392C51.0247 155.392 51.1954 155.456 51.3234 155.584C51.4514 155.712 51.5154 155.888 51.5154 156.112C51.5154 156.347 51.446 156.533 51.3074 156.672C51.1794 156.811 50.998 156.88 50.7634 156.88C50.5394 156.88 50.3634 156.816 50.2354 156.688C50.118 156.56 50.0594 156.379 50.0594 156.144C50.0594 155.92 50.1234 155.739 50.2514 155.6C50.39 155.461 50.5767 155.392 50.8114 155.392ZM58.6384 161.024C58.649 160.587 58.5477 160.245 58.3344 160C58.121 159.755 57.8064 159.632 57.3904 159.632C56.7184 159.632 55.993 160.011 55.2144 160.768V162.784L55.2784 166H54.0144L54.0944 162.896L54.0304 158.752L55.2304 158.64V159.712H55.3264C55.9877 159.125 56.665 158.747 57.3584 158.576C58.1584 158.576 58.7664 158.763 59.1824 159.136C59.609 159.509 59.817 160.043 59.8064 160.736L59.7744 162.816L59.8384 166H58.5584L58.6384 161.024ZM65.1801 154.736C65.5641 154.736 65.9801 154.784 66.4281 154.88L66.3321 155.872L66.2361 155.952C65.8521 155.76 65.4628 155.664 65.0681 155.664C64.6521 155.664 64.3321 155.797 64.1081 156.064C63.8841 156.32 63.7668 156.704 63.7561 157.216L63.7401 158.688H65.6601L65.7081 158.784L65.6281 159.536H63.7241L63.6921 162.784L63.7721 166H62.5081L62.6041 162.88L62.5721 159.536H61.4681L61.4041 159.44L61.4841 158.688H62.5721L62.5561 157.408C62.5455 156.544 62.7695 155.883 63.2281 155.424C63.6868 154.965 64.3375 154.736 65.1801 154.736ZM69.4066 158.544C70.3986 158.544 71.1666 158.869 71.7106 159.52C72.2653 160.16 72.5426 161.067 72.5426 162.24C72.5426 163.477 72.2546 164.437 71.6786 165.12C71.1026 165.792 70.2813 166.128 69.2146 166.128C68.212 166.128 67.4333 165.808 66.8786 165.168C66.3346 164.517 66.0626 163.605 66.0626 162.432C66.0626 161.195 66.3506 160.24 66.9266 159.568C67.5133 158.885 68.34 158.544 69.4066 158.544ZM69.3266 159.44C68.6546 159.44 68.1426 159.669 67.7906 160.128C67.4386 160.587 67.2626 161.259 67.2626 162.144C67.2626 163.168 67.4333 163.936 67.7746 164.448C68.1266 164.96 68.6333 165.216 69.2946 165.216C69.9666 165.216 70.4786 164.992 70.8306 164.544C71.1826 164.096 71.3586 163.424 71.3586 162.528C71.3586 161.515 71.1826 160.747 70.8306 160.224C70.4893 159.701 69.988 159.44 69.3266 159.44ZM80.5306 158.656C80.6586 158.656 80.7973 158.667 80.9466 158.688V159.92L80.8026 159.968C80.6213 159.915 80.424 159.888 80.2106 159.888C79.8586 159.888 79.5333 160.032 79.2346 160.32C78.9466 160.597 78.6586 161.045 78.3706 161.664L78.3546 162.784L78.4346 166H77.1706L77.2506 162.896L77.1866 158.752L78.3866 158.64L78.3706 160.144H78.4666C78.7653 159.611 79.096 159.232 79.4586 159.008C79.8213 158.773 80.1786 158.656 80.5306 158.656ZM82.9029 162.288V162.32C82.9029 163.216 83.1055 163.904 83.5109 164.384C83.9162 164.864 84.4922 165.104 85.2389 165.104C85.6122 165.104 85.9855 165.045 86.3589 164.928C86.7322 164.8 87.0735 164.624 87.3829 164.4L87.5109 164.496L87.3189 165.584C86.5722 165.947 85.8255 166.128 85.0789 166.128C84.0335 166.128 83.2122 165.797 82.6149 165.136C82.0175 164.464 81.7189 163.547 81.7189 162.384C81.7189 161.211 82.0175 160.277 82.6149 159.584C83.2122 158.891 84.0175 158.544 85.0309 158.544C85.8842 158.544 86.5455 158.789 87.0149 159.28C87.4842 159.76 87.7189 160.432 87.7189 161.296C87.7189 161.584 87.6975 161.856 87.6549 162.112L87.4949 162.272L82.9029 162.288ZM85.0309 159.44C84.4975 159.44 84.0495 159.616 83.6869 159.968C83.3349 160.309 83.1002 160.795 82.9829 161.424L86.5189 161.36L86.5509 161.136C86.5509 160.592 86.4175 160.176 86.1509 159.888C85.8949 159.589 85.5215 159.44 85.0309 159.44ZM90.1339 159.6L91.7179 164.736H91.8139L93.6699 159.664L93.9259 158.672H95.0619L92.3739 166H91.0139L88.7419 158.704L89.9259 158.624L90.1339 159.6ZM96.8248 162.288V162.32C96.8248 163.216 97.0274 163.904 97.4328 164.384C97.8381 164.864 98.4141 165.104 99.1608 165.104C99.5341 165.104 99.9074 165.045 100.281 164.928C100.654 164.8 100.995 164.624 101.305 164.4L101.433 164.496L101.241 165.584C100.494 165.947 99.7474 166.128 99.0008 166.128C97.9554 166.128 97.1341 165.797 96.5368 165.136C95.9394 164.464 95.6408 163.547 95.6408 162.384C95.6408 161.211 95.9394 160.277 96.5368 159.584C97.1341 158.891 97.9394 158.544 98.9528 158.544C99.8061 158.544 100.467 158.789 100.937 159.28C101.406 159.76 101.641 160.432 101.641 161.296C101.641 161.584 101.619 161.856 101.577 162.112L101.417 162.272L96.8248 162.288ZM98.9528 159.44C98.4194 159.44 97.9714 159.616 97.6088 159.968C97.2568 160.309 97.0221 160.795 96.9048 161.424L100.441 161.36L100.473 161.136C100.473 160.592 100.339 160.176 100.073 159.888C99.8168 159.589 99.4434 159.44 98.9528 159.44ZM106.04 158.544C106.733 158.544 107.277 158.715 107.672 159.056C108.077 159.397 108.28 159.867 108.28 160.464C108.28 160.645 108.248 161.301 108.184 162.432C108.12 163.563 108.088 164.224 108.088 164.416C108.088 164.651 108.125 164.816 108.2 164.912C108.274 164.997 108.402 165.04 108.584 165.04C108.744 165.04 108.925 165.008 109.128 164.944L109.256 165.056L109.128 165.776C108.818 165.957 108.514 166.064 108.216 166.096C107.885 166.064 107.618 165.947 107.416 165.744C107.224 165.541 107.122 165.264 107.112 164.912H107C106.424 165.499 105.853 165.899 105.288 166.112C104.573 166.112 104.013 165.936 103.608 165.584C103.213 165.221 103.016 164.731 103.016 164.112C103.016 163.643 103.138 163.269 103.384 162.992C103.64 162.715 104.013 162.517 104.504 162.4L107.096 161.792L107.112 160.752C107.112 160.336 107 160.016 106.776 159.792C106.562 159.568 106.253 159.456 105.848 159.456C105.485 159.456 105.122 159.541 104.76 159.712C104.397 159.883 104.008 160.149 103.592 160.512L103.464 160.448L103.304 159.536C104.189 158.875 105.101 158.544 106.04 158.544ZM104.76 163.168C104.546 163.232 104.392 163.323 104.296 163.44C104.2 163.547 104.152 163.712 104.152 163.936C104.152 164.288 104.248 164.565 104.44 164.768C104.642 164.96 104.909 165.056 105.24 165.056C105.826 165.056 106.424 164.677 107.032 163.92L107.08 162.608L104.76 163.168ZM112.262 162.784L112.342 166H111.078L111.174 162.88L111.094 154.88L112.358 154.768L112.262 162.784ZM116.968 158.56C117.576 158.56 118.162 158.677 118.728 158.912L118.552 159.952L118.36 160C117.826 159.648 117.314 159.472 116.824 159.472C116.461 159.472 116.168 159.573 115.944 159.776C115.72 159.979 115.608 160.224 115.608 160.512C115.608 160.8 115.72 161.035 115.944 161.216C116.178 161.387 116.536 161.584 117.016 161.808C117.432 162 117.762 162.176 118.008 162.336C118.264 162.485 118.482 162.688 118.664 162.944C118.845 163.2 118.936 163.515 118.936 163.888C118.936 164.283 118.834 164.651 118.632 164.992C118.429 165.333 118.13 165.611 117.736 165.824C117.341 166.027 116.872 166.128 116.328 166.128C115.581 166.128 114.872 165.952 114.2 165.6L114.36 164.512L114.504 164.416C114.802 164.672 115.122 164.869 115.464 165.008C115.816 165.147 116.146 165.216 116.456 165.216C116.85 165.216 117.17 165.109 117.416 164.896C117.661 164.672 117.784 164.411 117.784 164.112C117.784 163.824 117.666 163.595 117.432 163.424C117.208 163.243 116.856 163.04 116.376 162.816C115.96 162.624 115.624 162.453 115.368 162.304C115.112 162.144 114.893 161.931 114.712 161.664C114.53 161.397 114.44 161.067 114.44 160.672C114.44 160.053 114.664 159.547 115.112 159.152C115.57 158.757 116.189 158.56 116.968 158.56ZM6.36 185.896L6.312 181.752L7.544 181.64L7.512 185.784L7.544 189H6.296L6.36 185.896ZM6.952 178.392C7.16533 178.392 7.336 178.456 7.464 178.584C7.592 178.712 7.656 178.888 7.656 179.112C7.656 179.347 7.58667 179.533 7.448 179.672C7.32 179.811 7.13867 179.88 6.904 179.88C6.68 179.88 6.504 179.816 6.376 179.688C6.25867 179.56 6.2 179.379 6.2 179.144C6.2 178.92 6.264 178.739 6.392 178.6C6.53067 178.461 6.71733 178.392 6.952 178.392ZM12.459 188.024C12.811 188.024 13.195 187.917 13.611 187.704L13.755 187.8L13.627 188.632C13.051 188.899 12.5177 189.053 12.027 189.096C11.419 188.979 10.9817 188.755 10.715 188.424C10.4483 188.093 10.315 187.613 10.315 186.984L10.363 185.848L10.347 182.536H9.339L9.275 182.44L9.355 181.688H10.331V180.504L11.435 180.024L11.563 180.136L11.531 181.688H13.707L13.771 181.784L13.691 182.536H11.531L11.451 186.872C11.4403 187.299 11.515 187.597 11.675 187.768C11.835 187.939 12.0963 188.024 12.459 188.024ZM17.2644 181.56C17.8724 181.56 18.459 181.677 19.0244 181.912L18.8484 182.952L18.6564 183C18.123 182.648 17.611 182.472 17.1204 182.472C16.7577 182.472 16.4644 182.573 16.2404 182.776C16.0164 182.979 15.9044 183.224 15.9044 183.512C15.9044 183.8 16.0164 184.035 16.2404 184.216C16.475 184.387 16.8324 184.584 17.3124 184.808C17.7284 185 18.059 185.176 18.3044 185.336C18.5604 185.485 18.779 185.688 18.9604 185.944C19.1417 186.2 19.2324 186.515 19.2324 186.888C19.2324 187.283 19.131 187.651 18.9284 187.992C18.7257 188.333 18.427 188.611 18.0324 188.824C17.6377 189.027 17.1684 189.128 16.6244 189.128C15.8777 189.128 15.1684 188.952 14.4964 188.6L14.6564 187.512L14.8004 187.416C15.099 187.672 15.419 187.869 15.7604 188.008C16.1124 188.147 16.443 188.216 16.7524 188.216C17.147 188.216 17.467 188.109 17.7124 187.896C17.9577 187.672 18.0804 187.411 18.0804 187.112C18.0804 186.824 17.963 186.595 17.7284 186.424C17.5044 186.243 17.1524 186.04 16.6724 185.816C16.2564 185.624 15.9204 185.453 15.6644 185.304C15.4084 185.144 15.1897 184.931 15.0084 184.664C14.827 184.397 14.7364 184.067 14.7364 183.672C14.7364 183.053 14.9604 182.547 15.4084 182.152C15.867 181.757 16.4857 181.56 17.2644 181.56ZM21.7623 185.288V185.32C21.7623 186.216 21.9649 186.904 22.3703 187.384C22.7756 187.864 23.3516 188.104 24.0983 188.104C24.4716 188.104 24.8449 188.045 25.2183 187.928C25.5916 187.8 25.9329 187.624 26.2423 187.4L26.3703 187.496L26.1783 188.584C25.4316 188.947 24.6849 189.128 23.9383 189.128C22.8929 189.128 22.0716 188.797 21.4743 188.136C20.8769 187.464 20.5783 186.547 20.5783 185.384C20.5783 184.211 20.8769 183.277 21.4743 182.584C22.0716 181.891 22.8769 181.544 23.8903 181.544C24.7436 181.544 25.4049 181.789 25.8743 182.28C26.3436 182.76 26.5783 183.432 26.5783 184.296C26.5783 184.584 26.5569 184.856 26.5143 185.112L26.3543 185.272L21.7623 185.288ZM23.8903 182.44C23.3569 182.44 22.9089 182.616 22.5463 182.968C22.1943 183.309 21.9596 183.795 21.8423 184.424L25.3783 184.36L25.4103 184.136C25.4103 183.592 25.2769 183.176 25.0103 182.888C24.7543 182.589 24.3809 182.44 23.8903 182.44ZM29.8093 185.784L29.8893 189H28.6253L28.7213 185.88L28.6413 177.88L29.9053 177.768L29.8093 185.784ZM35.5864 177.736C35.9704 177.736 36.3864 177.784 36.8344 177.88L36.7384 178.872L36.6424 178.952C36.2584 178.76 35.869 178.664 35.4744 178.664C35.0584 178.664 34.7384 178.797 34.5144 179.064C34.2904 179.32 34.173 179.704 34.1624 180.216L34.1464 181.688H36.0664L36.1144 181.784L36.0344 182.536H34.1304L34.0984 185.784L34.1784 189H32.9144L33.0104 185.88L32.9784 182.536H31.8744L31.8104 182.44L31.8904 181.688H32.9784L32.9624 180.408C32.9517 179.544 33.1757 178.883 33.6344 178.424C34.093 177.965 34.7437 177.736 35.5864 177.736ZM42.7348 181.544C43.7268 181.544 44.4948 181.869 45.0388 182.52C45.5934 183.16 45.8708 184.067 45.8708 185.24C45.8708 186.477 45.5828 187.437 45.0068 188.12C44.4308 188.792 43.6094 189.128 42.5428 189.128C41.5401 189.128 40.7614 188.808 40.2068 188.168C39.6628 187.517 39.3908 186.605 39.3908 185.432C39.3908 184.195 39.6788 183.24 40.2548 182.568C40.8414 181.885 41.6681 181.544 42.7348 181.544ZM42.6548 182.44C41.9828 182.44 41.4708 182.669 41.1188 183.128C40.7668 183.587 40.5908 184.259 40.5908 185.144C40.5908 186.168 40.7614 186.936 41.1028 187.448C41.4548 187.96 41.9614 188.216 42.6228 188.216C43.2948 188.216 43.8068 187.992 44.1588 187.544C44.5108 187.096 44.6868 186.424 44.6868 185.528C44.6868 184.515 44.5108 183.747 44.1588 183.224C43.8174 182.701 43.3161 182.44 42.6548 182.44ZM52.3259 184.024C52.3365 183.587 52.2352 183.245 52.0219 183C51.8085 182.755 51.4939 182.632 51.0779 182.632C50.4059 182.632 49.6805 183.011 48.9019 183.768V185.784L48.9659 189H47.7019L47.7819 185.896L47.7179 181.752L48.9179 181.64V182.712H49.0139C49.6752 182.125 50.3525 181.747 51.0459 181.576C51.8459 181.576 52.4539 181.763 52.8699 182.136C53.2965 182.509 53.5045 183.043 53.4939 183.736L53.4619 185.816L53.5259 189H52.2459L52.3259 184.024ZM59.0245 182.6L60.6085 187.736H60.7045L62.5605 182.664L62.8165 181.672H63.9525L61.2645 189H59.9045L57.6325 181.704L58.8165 181.624L59.0245 182.6ZM65.7154 185.288V185.32C65.7154 186.216 65.918 186.904 66.3234 187.384C66.7287 187.864 67.3047 188.104 68.0514 188.104C68.4247 188.104 68.798 188.045 69.1714 187.928C69.5447 187.8 69.886 187.624 70.1954 187.4L70.3234 187.496L70.1314 188.584C69.3847 188.947 68.638 189.128 67.8914 189.128C66.846 189.128 66.0247 188.797 65.4274 188.136C64.83 187.464 64.5314 186.547 64.5314 185.384C64.5314 184.211 64.83 183.277 65.4274 182.584C66.0247 181.891 66.83 181.544 67.8434 181.544C68.6967 181.544 69.358 181.789 69.8274 182.28C70.2967 182.76 70.5314 183.432 70.5314 184.296C70.5314 184.584 70.51 184.856 70.4674 185.112L70.3074 185.272L65.7154 185.288ZM67.8434 182.44C67.31 182.44 66.862 182.616 66.4994 182.968C66.1474 183.309 65.9127 183.795 65.7954 184.424L69.3314 184.36L69.3634 184.136C69.3634 183.592 69.23 183.176 68.9634 182.888C68.7074 182.589 68.334 182.44 67.8434 182.44ZM75.8744 181.656C76.0024 181.656 76.141 181.667 76.2904 181.688V182.92L76.1464 182.968C75.965 182.915 75.7677 182.888 75.5544 182.888C75.2024 182.888 74.877 183.032 74.5784 183.32C74.2904 183.597 74.0024 184.045 73.7144 184.664L73.6984 185.784L73.7784 189H72.5144L72.5944 185.896L72.5304 181.752L73.7304 181.64L73.7144 183.144H73.8104C74.109 182.611 74.4397 182.232 74.8024 182.008C75.165 181.773 75.5224 181.656 75.8744 181.656ZM79.9903 188.024C80.3423 188.024 80.7263 187.917 81.1423 187.704L81.2863 187.8L81.1583 188.632C80.5823 188.899 80.0489 189.053 79.5583 189.096C78.9503 188.979 78.5129 188.755 78.2463 188.424C77.9796 188.093 77.8463 187.613 77.8463 186.984L77.8943 185.848L77.8783 182.536H76.8703L76.8063 182.44L76.8863 181.688H77.8623V180.504L78.9663 180.024L79.0943 180.136L79.0623 181.688H81.2383L81.3023 181.784L81.2223 182.536H79.0623L78.9823 186.872C78.9716 187.299 79.0463 187.597 79.2063 187.768C79.3663 187.939 79.6276 188.024 79.9903 188.024ZM82.8756 185.896L82.8276 181.752L84.0596 181.64L84.0276 185.784L84.0596 189H82.8116L82.8756 185.896ZM83.4676 178.392C83.681 178.392 83.8516 178.456 83.9796 178.584C84.1076 178.712 84.1716 178.888 84.1716 179.112C84.1716 179.347 84.1023 179.533 83.9636 179.672C83.8356 179.811 83.6543 179.88 83.4196 179.88C83.1956 179.88 83.0196 179.816 82.8916 179.688C82.7743 179.56 82.7156 179.379 82.7156 179.144C82.7156 178.92 82.7796 178.739 82.9076 178.6C83.0463 178.461 83.233 178.392 83.4676 178.392ZM89.3106 181.544C89.6413 181.544 89.9826 181.587 90.3346 181.672C90.6973 181.747 91.012 181.848 91.2786 181.976L91.0546 183.08L90.9106 183.128C90.356 182.765 89.8066 182.584 89.2626 182.584C88.6333 182.584 88.1426 182.824 87.7906 183.304C87.4386 183.784 87.2626 184.456 87.2626 185.32C87.2626 186.184 87.444 186.867 87.8066 187.368C88.18 187.859 88.692 188.104 89.3426 188.104C89.6306 188.104 89.9293 188.056 90.2386 187.96C90.5586 187.864 90.8573 187.731 91.1346 187.56L91.2786 187.64L91.1346 188.712C90.484 188.989 89.8333 189.128 89.1826 189.128C88.212 189.128 87.4493 188.797 86.8946 188.136C86.34 187.464 86.0626 186.547 86.0626 185.384C86.0626 184.2 86.3506 183.267 86.9266 182.584C87.5133 181.891 88.308 181.544 89.3106 181.544ZM95.0866 181.544C95.78 181.544 96.324 181.715 96.7186 182.056C97.124 182.397 97.3266 182.867 97.3266 183.464C97.3266 183.645 97.2946 184.301 97.2306 185.432C97.1666 186.563 97.1346 187.224 97.1346 187.416C97.1346 187.651 97.172 187.816 97.2466 187.912C97.3213 187.997 97.4493 188.04 97.6306 188.04C97.7906 188.04 97.972 188.008 98.1746 187.944L98.3026 188.056L98.1746 188.776C97.8653 188.957 97.5613 189.064 97.2626 189.096C96.932 189.064 96.6653 188.947 96.4626 188.744C96.2706 188.541 96.1693 188.264 96.1586 187.912H96.0466C95.4706 188.499 94.9 188.899 94.3346 189.112C93.62 189.112 93.06 188.936 92.6546 188.584C92.26 188.221 92.0626 187.731 92.0626 187.112C92.0626 186.643 92.1853 186.269 92.4306 185.992C92.6866 185.715 93.06 185.517 93.5506 185.4L96.1426 184.792L96.1586 183.752C96.1586 183.336 96.0466 183.016 95.8226 182.792C95.6093 182.568 95.3 182.456 94.8946 182.456C94.532 182.456 94.1693 182.541 93.8066 182.712C93.444 182.883 93.0546 183.149 92.6386 183.512L92.5106 183.448L92.3506 182.536C93.236 181.875 94.148 181.544 95.0866 181.544ZM93.8066 186.168C93.5933 186.232 93.4386 186.323 93.3426 186.44C93.2466 186.547 93.1986 186.712 93.1986 186.936C93.1986 187.288 93.2946 187.565 93.4866 187.768C93.6893 187.96 93.956 188.056 94.2866 188.056C94.8733 188.056 95.4706 187.677 96.0786 186.92L96.1266 185.608L93.8066 186.168ZM101.309 185.784L101.389 189H100.125L100.221 185.88L100.141 177.88L101.405 177.768L101.309 185.784ZM112.143 185.784L112.191 187.432C112.202 187.656 112.239 187.816 112.303 187.912C112.367 187.997 112.484 188.04 112.655 188.04C112.826 188.04 113.007 188.008 113.199 187.944L113.327 188.056L113.199 188.776C112.911 188.957 112.612 189.064 112.303 189.096C111.972 189.064 111.711 188.952 111.519 188.76C111.338 188.568 111.226 188.307 111.183 187.976H111.071C110.751 188.253 110.463 188.477 110.207 188.648C109.951 188.808 109.658 188.952 109.327 189.08C108.271 189.08 107.46 188.76 106.895 188.12C106.33 187.469 106.047 186.547 106.047 185.352C106.047 184.147 106.362 183.213 106.991 182.552C107.62 181.88 108.49 181.544 109.599 181.544C110.1 181.544 110.57 181.597 111.007 181.704L110.991 177.88L112.255 177.768L112.143 185.784ZM109.455 182.44C108.772 182.44 108.234 182.675 107.839 183.144C107.444 183.603 107.247 184.269 107.247 185.144C107.247 186.051 107.423 186.755 107.775 187.256C108.138 187.757 108.634 188.008 109.263 188.008C109.562 188.008 109.85 187.933 110.127 187.784C110.415 187.635 110.714 187.384 111.023 187.032L111.055 185.88L111.007 182.84C110.442 182.573 109.924 182.44 109.455 182.44ZM118.296 181.656C118.424 181.656 118.563 181.667 118.712 181.688V182.92L118.568 182.968C118.387 182.915 118.19 182.888 117.976 182.888C117.624 182.888 117.299 183.032 117 183.32C116.712 183.597 116.424 184.045 116.136 184.664L116.12 185.784L116.2 189H114.936L115.016 185.896L114.952 181.752L116.152 181.64L116.136 183.144H116.232C116.531 182.611 116.862 182.232 117.224 182.008C117.587 181.773 117.944 181.656 118.296 181.656ZM122.368 181.544C123.061 181.544 123.605 181.715 124 182.056C124.405 182.397 124.608 182.867 124.608 183.464C124.608 183.645 124.576 184.301 124.512 185.432C124.448 186.563 124.416 187.224 124.416 187.416C124.416 187.651 124.453 187.816 124.528 187.912C124.603 187.997 124.731 188.04 124.912 188.04C125.072 188.04 125.253 188.008 125.456 187.944L125.584 188.056L125.456 188.776C125.147 188.957 124.843 189.064 124.544 189.096C124.213 189.064 123.947 188.947 123.744 188.744C123.552 188.541 123.451 188.264 123.44 187.912H123.328C122.752 188.499 122.181 188.899 121.616 189.112C120.901 189.112 120.341 188.936 119.936 188.584C119.541 188.221 119.344 187.731 119.344 187.112C119.344 186.643 119.467 186.269 119.712 185.992C119.968 185.715 120.341 185.517 120.832 185.4L123.424 184.792L123.44 183.752C123.44 183.336 123.328 183.016 123.104 182.792C122.891 182.568 122.581 182.456 122.176 182.456C121.813 182.456 121.451 182.541 121.088 182.712C120.725 182.883 120.336 183.149 119.92 183.512L119.792 183.448L119.632 182.536C120.517 181.875 121.429 181.544 122.368 181.544ZM121.088 186.168C120.875 186.232 120.72 186.323 120.624 186.44C120.528 186.547 120.48 186.712 120.48 186.936C120.48 187.288 120.576 187.565 120.768 187.768C120.971 187.96 121.237 188.056 121.568 188.056C122.155 188.056 122.752 187.677 123.36 186.92L123.408 185.608L121.088 186.168ZM133.823 182.296C133.492 182.392 133.001 182.504 132.351 182.632L132.319 182.696C132.553 183.069 132.671 183.523 132.671 184.056C132.671 184.835 132.409 185.453 131.887 185.912C131.375 186.371 130.676 186.6 129.791 186.6C129.439 186.6 129.108 186.557 128.799 186.472C128.617 186.611 128.495 186.723 128.431 186.808C128.367 186.893 128.335 186.989 128.335 187.096C128.335 187.32 128.473 187.48 128.751 187.576C129.028 187.661 129.481 187.752 130.111 187.848C130.729 187.933 131.236 188.029 131.631 188.136C132.025 188.243 132.367 188.419 132.655 188.664C132.943 188.899 133.087 189.229 133.087 189.656C133.087 190.104 132.932 190.515 132.623 190.888C132.324 191.261 131.908 191.555 131.375 191.768C130.852 191.981 130.276 192.088 129.647 192.088C128.793 192.088 128.127 191.891 127.647 191.496C127.177 191.112 126.943 190.611 126.943 189.992C127.199 189.48 127.668 189.016 128.351 188.6V188.52C127.967 188.403 127.668 188.248 127.455 188.056C127.252 187.853 127.151 187.581 127.151 187.24C127.375 186.867 127.7 186.541 128.127 186.264V186.2C127.785 185.987 127.524 185.709 127.343 185.368C127.172 185.016 127.087 184.611 127.087 184.152C127.087 183.352 127.343 182.728 127.855 182.28C128.377 181.821 129.071 181.592 129.935 181.592C130.5 181.592 130.98 181.688 131.375 181.88C132.111 181.741 132.884 181.56 133.695 181.336L133.823 181.432V182.296ZM129.855 185.736C130.388 185.736 130.799 185.587 131.087 185.288C131.385 184.989 131.535 184.573 131.535 184.04C131.535 183.528 131.396 183.133 131.119 182.856C130.841 182.579 130.441 182.44 129.919 182.44C129.385 182.44 128.969 182.584 128.671 182.872C128.372 183.16 128.223 183.571 128.223 184.104C128.223 184.616 128.361 185.016 128.639 185.304C128.927 185.592 129.332 185.736 129.855 185.736ZM131.967 189.896C131.967 189.544 131.785 189.299 131.423 189.16C131.071 189.021 130.532 188.899 129.807 188.792L129.295 188.712C128.889 188.957 128.58 189.192 128.367 189.416C128.164 189.64 128.062 189.875 128.062 190.12C128.062 190.429 128.212 190.685 128.511 190.888C128.82 191.091 129.247 191.192 129.791 191.192C130.409 191.192 130.927 191.064 131.343 190.808C131.759 190.563 131.967 190.259 131.967 189.896ZM15.448 207.024C15.4587 206.587 15.3573 206.245 15.144 206C14.9307 205.755 14.616 205.632 14.2 205.632C13.5173 205.632 12.808 206 12.072 206.736L12.04 208.816L12.104 212H10.808L10.904 207.024C10.9147 206.587 10.8133 206.245 10.6 206C10.3867 205.755 10.072 205.632 9.656 205.632C8.984 205.632 8.25867 206.011 7.48 206.768V208.784L7.544 212H6.28L6.36 208.896L6.296 204.752L7.496 204.64V205.712H7.592C8.25333 205.125 8.93067 204.747 9.624 204.576C10.2213 204.576 10.712 204.683 11.096 204.896C11.48 205.099 11.752 205.397 11.912 205.792H12.008C12.68 205.184 13.4 204.779 14.168 204.576C14.9787 204.576 15.592 204.763 16.008 205.136C16.424 205.509 16.6267 206.043 16.616 206.736L16.584 208.816L16.648 212H15.368L15.448 207.024ZM21.8129 204.544C22.8049 204.544 23.5729 204.869 24.1169 205.52C24.6715 206.16 24.9489 207.067 24.9489 208.24C24.9489 209.477 24.6609 210.437 24.0849 211.12C23.5089 211.792 22.6875 212.128 21.6209 212.128C20.6182 212.128 19.8395 211.808 19.2849 211.168C18.7409 210.517 18.4689 209.605 18.4689 208.432C18.4689 207.195 18.7569 206.24 19.3329 205.568C19.9195 204.885 20.7462 204.544 21.8129 204.544ZM21.7329 205.44C21.0609 205.44 20.5489 205.669 20.1969 206.128C19.8449 206.587 19.6689 207.259 19.6689 208.144C19.6689 209.168 19.8395 209.936 20.1809 210.448C20.5329 210.96 21.0395 211.216 21.7009 211.216C22.3729 211.216 22.8849 210.992 23.2369 210.544C23.5889 210.096 23.7649 209.424 23.7649 208.528C23.7649 207.515 23.5889 206.747 23.2369 206.224C22.8955 205.701 22.3942 205.44 21.7329 205.44ZM29.2403 211.024C29.5923 211.024 29.9763 210.917 30.3923 210.704L30.5363 210.8L30.4083 211.632C29.8323 211.899 29.2989 212.053 28.8083 212.096C28.2003 211.979 27.7629 211.755 27.4963 211.424C27.2296 211.093 27.0963 210.613 27.0963 209.984L27.1443 208.848L27.1283 205.536H26.1203L26.0563 205.44L26.1363 204.688H27.1123V203.504L28.2163 203.024L28.3443 203.136L28.3123 204.688H30.4883L30.5523 204.784L30.4723 205.536H28.3123L28.2323 209.872C28.2216 210.299 28.2963 210.597 28.4563 210.768C28.6163 210.939 28.8776 211.024 29.2403 211.024ZM32.1256 208.896L32.0776 204.752L33.3096 204.64L33.2776 208.784L33.3096 212H32.0616L32.1256 208.896ZM32.7176 201.392C32.931 201.392 33.1016 201.456 33.2296 201.584C33.3576 201.712 33.4216 201.888 33.4216 202.112C33.4216 202.347 33.3523 202.533 33.2136 202.672C33.0856 202.811 32.9043 202.88 32.6696 202.88C32.4456 202.88 32.2696 202.816 32.1416 202.688C32.0243 202.56 31.9656 202.379 31.9656 202.144C31.9656 201.92 32.0296 201.739 32.1576 201.6C32.2963 201.461 32.483 201.392 32.7176 201.392ZM38.6566 204.544C39.6486 204.544 40.4166 204.869 40.9606 205.52C41.5153 206.16 41.7926 207.067 41.7926 208.24C41.7926 209.477 41.5046 210.437 40.9286 211.12C40.3526 211.792 39.5313 212.128 38.4646 212.128C37.462 212.128 36.6833 211.808 36.1286 211.168C35.5846 210.517 35.3126 209.605 35.3126 208.432C35.3126 207.195 35.6006 206.24 36.1766 205.568C36.7633 204.885 37.59 204.544 38.6566 204.544ZM38.5766 205.44C37.9046 205.44 37.3926 205.669 37.0406 206.128C36.6886 206.587 36.5126 207.259 36.5126 208.144C36.5126 209.168 36.6833 209.936 37.0246 210.448C37.3766 210.96 37.8833 211.216 38.5446 211.216C39.2166 211.216 39.7286 210.992 40.0806 210.544C40.4326 210.096 40.6086 209.424 40.6086 208.528C40.6086 207.515 40.4326 206.747 40.0806 206.224C39.7393 205.701 39.238 205.44 38.5766 205.44ZM48.2478 207.024C48.2584 206.587 48.1571 206.245 47.9438 206C47.7304 205.755 47.4158 205.632 46.9998 205.632C46.3278 205.632 45.6024 206.011 44.8238 206.768V208.784L44.8878 212H43.6238L43.7038 208.896L43.6398 204.752L44.8398 204.64V205.712H44.9358C45.5971 205.125 46.2744 204.747 46.9678 204.576C47.7678 204.576 48.3758 204.763 48.7918 205.136C49.2184 205.509 49.4264 206.043 49.4158 206.736L49.3838 208.816L49.4478 212H48.1678L48.2478 207.024ZM61.0744 211.056L60.9464 211.776C60.637 211.957 60.333 212.064 60.0344 212.096C59.725 212.053 59.4744 211.947 59.2824 211.776C59.101 211.595 58.973 211.328 58.8984 210.976H58.8024C58.1624 211.552 57.501 211.925 56.8184 212.096C56.029 212.096 55.4264 211.909 55.0104 211.536C54.605 211.163 54.4077 210.629 54.4184 209.936L54.4344 207.904L54.3864 204.752L55.6664 204.64L55.5704 209.632C55.5704 210.069 55.6717 210.411 55.8744 210.656C56.0877 210.901 56.397 211.024 56.8024 211.024C57.4637 211.024 58.125 210.704 58.7864 210.064V204.752L60.0024 204.64L59.9224 210.432C59.9224 210.656 59.9544 210.816 60.0184 210.912C60.093 210.997 60.2157 211.04 60.3864 211.04C60.557 211.04 60.7437 211.008 60.9464 210.944L61.0744 211.056ZM65.9986 204.592C66.916 204.592 67.62 204.896 68.1106 205.504C68.6013 206.112 68.8466 206.981 68.8466 208.112C68.8466 209.392 68.5373 210.384 67.9186 211.088C67.3 211.781 66.42 212.128 65.2786 212.128C64.8306 212.128 64.3666 212.08 63.8866 211.984L63.9186 214.96H62.6706L62.7506 208.896L62.6706 204.752L63.8866 204.64L63.8706 205.68H63.9826C64.356 205.371 64.692 205.136 64.9906 204.976C65.2893 204.816 65.6253 204.688 65.9986 204.592ZM65.4386 211.2C66.1426 211.2 66.6866 210.955 67.0706 210.464C67.4546 209.973 67.6466 209.275 67.6466 208.368C67.6466 207.483 67.492 206.805 67.1826 206.336C66.884 205.867 66.452 205.632 65.8866 205.632C65.556 205.632 65.2253 205.723 64.8946 205.904C64.5746 206.085 64.2333 206.368 63.8706 206.752L63.8546 208.784L63.8706 210.784C64.3933 211.061 64.916 211.2 65.4386 211.2ZM70.9765 205.568L72.3205 210.624H72.4165L73.9685 205.632L74.2085 204.672H75.4565L75.6325 205.568L76.9765 210.624H77.0725L78.6245 205.632L78.8645 204.672H79.9685L77.5525 212H76.3525L74.8165 206.32H74.7045L72.9285 212H71.6805L69.6325 204.704L70.8005 204.624L70.9765 205.568ZM83.5398 204.544C84.2331 204.544 84.7771 204.715 85.1718 205.056C85.5771 205.397 85.7798 205.867 85.7798 206.464C85.7798 206.645 85.7478 207.301 85.6838 208.432C85.6198 209.563 85.5878 210.224 85.5878 210.416C85.5878 210.651 85.6251 210.816 85.6998 210.912C85.7744 210.997 85.9024 211.04 86.0838 211.04C86.2438 211.04 86.4251 211.008 86.6278 210.944L86.7558 211.056L86.6278 211.776C86.3184 211.957 86.0144 212.064 85.7158 212.096C85.3851 212.064 85.1184 211.947 84.9158 211.744C84.7238 211.541 84.6224 211.264 84.6118 210.912H84.4998C83.9238 211.499 83.3531 211.899 82.7878 212.112C82.0731 212.112 81.5131 211.936 81.1078 211.584C80.7131 211.221 80.5158 210.731 80.5158 210.112C80.5158 209.643 80.6384 209.269 80.8838 208.992C81.1398 208.715 81.5131 208.517 82.0038 208.4L84.5958 207.792L84.6118 206.752C84.6118 206.336 84.4998 206.016 84.2758 205.792C84.0624 205.568 83.7531 205.456 83.3478 205.456C82.9851 205.456 82.6224 205.541 82.2598 205.712C81.8971 205.883 81.5078 206.149 81.0918 206.512L80.9638 206.448L80.8038 205.536C81.6891 204.875 82.6011 204.544 83.5398 204.544ZM82.2598 209.168C82.0464 209.232 81.8918 209.323 81.7958 209.44C81.6998 209.547 81.6518 209.712 81.6518 209.936C81.6518 210.288 81.7478 210.565 81.9398 210.768C82.1424 210.96 82.4091 211.056 82.7398 211.056C83.3264 211.056 83.9238 210.677 84.5318 209.92L84.5798 208.608L82.2598 209.168ZM91.7181 204.656C91.8461 204.656 91.9848 204.667 92.1341 204.688V205.92L91.9901 205.968C91.8088 205.915 91.6115 205.888 91.3981 205.888C91.0461 205.888 90.7208 206.032 90.4221 206.32C90.1341 206.597 89.8461 207.045 89.5581 207.664L89.5421 208.784L89.6221 212H88.3581L88.4381 208.896L88.3741 204.752L89.5741 204.64L89.5581 206.144H89.6541C89.9528 205.611 90.2835 205.232 90.6461 205.008C91.0088 204.773 91.3661 204.656 91.7181 204.656ZM99.0024 208.784L99.0504 210.432C99.061 210.656 99.0984 210.816 99.1624 210.912C99.2264 210.997 99.3437 211.04 99.5144 211.04C99.685 211.04 99.8664 211.008 100.058 210.944L100.186 211.056L100.058 211.776C99.7704 211.957 99.4717 212.064 99.1624 212.096C98.8317 212.064 98.5704 211.952 98.3784 211.76C98.197 211.568 98.085 211.307 98.0424 210.976H97.9304C97.6104 211.253 97.3224 211.477 97.0664 211.648C96.8104 211.808 96.517 211.952 96.1864 212.08C95.1304 212.08 94.3197 211.76 93.7544 211.12C93.189 210.469 92.9064 209.547 92.9064 208.352C92.9064 207.147 93.221 206.213 93.8504 205.552C94.4797 204.88 95.349 204.544 96.4584 204.544C96.9597 204.544 97.429 204.597 97.8664 204.704L97.8504 200.88L99.1144 200.768L99.0024 208.784ZM96.3144 205.44C95.6317 205.44 95.093 205.675 94.6984 206.144C94.3037 206.603 94.1064 207.269 94.1064 208.144C94.1064 209.051 94.2824 209.755 94.6344 210.256C94.997 210.757 95.493 211.008 96.1224 211.008C96.421 211.008 96.709 210.933 96.9864 210.784C97.2744 210.635 97.573 210.384 97.8824 210.032L97.9144 208.88L97.8664 205.84C97.301 205.573 96.7837 205.44 96.3144 205.44ZM103.796 204.56C104.404 204.56 104.99 204.677 105.556 204.912L105.38 205.952L105.188 206C104.654 205.648 104.142 205.472 103.652 205.472C103.289 205.472 102.996 205.573 102.772 205.776C102.548 205.979 102.436 206.224 102.436 206.512C102.436 206.8 102.548 207.035 102.772 207.216C103.006 207.387 103.364 207.584 103.844 207.808C104.26 208 104.59 208.176 104.836 208.336C105.092 208.485 105.31 208.688 105.492 208.944C105.673 209.2 105.764 209.515 105.764 209.888C105.764 210.283 105.662 210.651 105.46 210.992C105.257 211.333 104.958 211.611 104.564 211.824C104.169 212.027 103.7 212.128 103.156 212.128C102.409 212.128 101.7 211.952 101.028 211.6L101.188 210.512L101.332 210.416C101.63 210.672 101.95 210.869 102.292 211.008C102.644 211.147 102.974 211.216 103.284 211.216C103.678 211.216 103.998 211.109 104.244 210.896C104.489 210.672 104.612 210.411 104.612 210.112C104.612 209.824 104.494 209.595 104.26 209.424C104.036 209.243 103.684 209.04 103.204 208.816C102.788 208.624 102.452 208.453 102.196 208.304C101.94 208.144 101.721 207.931 101.54 207.664C101.358 207.397 101.268 207.067 101.268 206.672C101.268 206.053 101.492 205.547 101.94 205.152C102.398 204.757 103.017 204.56 103.796 204.56Z" fill="#333333"/>
<path d="M178.664 161.856C179.368 163.019 180.253 164.299 181.32 165.696L181.304 165.856C180.92 166.005 180.525 166.101 180.12 166.144L179.944 166.032C179.069 164.72 178.285 163.44 177.592 162.192H175.72V162.8L175.784 166H174.488L174.568 162.912L174.488 155.744L177.624 155.728C178.627 155.728 179.4 155.984 179.944 156.496C180.499 156.997 180.776 157.717 180.776 158.656C180.776 159.36 180.589 159.995 180.216 160.56C179.853 161.115 179.336 161.547 178.664 161.856ZM175.736 161.104L177.656 161.152C178.851 160.811 179.448 160.016 179.448 158.768C179.448 158.117 179.272 157.632 178.92 157.312C178.568 156.981 178.04 156.805 177.336 156.784L175.784 156.832L175.736 161.104ZM183.153 162.288V162.32C183.153 163.216 183.356 163.904 183.761 164.384C184.166 164.864 184.742 165.104 185.489 165.104C185.862 165.104 186.236 165.045 186.609 164.928C186.982 164.8 187.324 164.624 187.633 164.4L187.761 164.496L187.569 165.584C186.822 165.947 186.076 166.128 185.329 166.128C184.284 166.128 183.462 165.797 182.865 165.136C182.268 164.464 181.969 163.547 181.969 162.384C181.969 161.211 182.268 160.277 182.865 159.584C183.462 158.891 184.268 158.544 185.281 158.544C186.134 158.544 186.796 158.789 187.265 159.28C187.734 159.76 187.969 160.432 187.969 161.296C187.969 161.584 187.948 161.856 187.905 162.112L187.745 162.272L183.153 162.288ZM185.281 159.44C184.748 159.44 184.3 159.616 183.937 159.968C183.585 160.309 183.35 160.795 183.233 161.424L186.769 161.36L186.801 161.136C186.801 160.592 186.668 160.176 186.401 159.888C186.145 159.589 185.772 159.44 185.281 159.44ZM192.592 158.544C192.923 158.544 193.264 158.587 193.616 158.672C193.979 158.747 194.293 158.848 194.56 158.976L194.336 160.08L194.192 160.128C193.637 159.765 193.088 159.584 192.544 159.584C191.915 159.584 191.424 159.824 191.072 160.304C190.72 160.784 190.544 161.456 190.544 162.32C190.544 163.184 190.725 163.867 191.088 164.368C191.461 164.859 191.973 165.104 192.624 165.104C192.912 165.104 193.211 165.056 193.52 164.96C193.84 164.864 194.139 164.731 194.416 164.56L194.56 164.64L194.416 165.712C193.765 165.989 193.115 166.128 192.464 166.128C191.493 166.128 190.731 165.797 190.176 165.136C189.621 164.464 189.344 163.547 189.344 162.384C189.344 161.2 189.632 160.267 190.208 159.584C190.795 158.891 191.589 158.544 192.592 158.544ZM196.188 162.896L196.14 158.752L197.372 158.64L197.34 162.784L197.372 166H196.124L196.188 162.896ZM196.78 155.392C196.993 155.392 197.164 155.456 197.292 155.584C197.42 155.712 197.484 155.888 197.484 156.112C197.484 156.347 197.415 156.533 197.276 156.672C197.148 156.811 196.967 156.88 196.732 156.88C196.508 156.88 196.332 156.816 196.204 156.688C196.087 156.56 196.028 156.379 196.028 156.144C196.028 155.92 196.092 155.739 196.22 155.6C196.359 155.461 196.545 155.392 196.78 155.392ZM203.311 158.592C204.228 158.592 204.932 158.896 205.423 159.504C205.914 160.112 206.159 160.981 206.159 162.112C206.159 163.392 205.85 164.384 205.231 165.088C204.612 165.781 203.732 166.128 202.591 166.128C202.143 166.128 201.679 166.08 201.199 165.984L201.231 168.96H199.983L200.063 162.896L199.983 158.752L201.199 158.64L201.183 159.68H201.295C201.668 159.371 202.004 159.136 202.303 158.976C202.602 158.816 202.938 158.688 203.311 158.592ZM202.751 165.2C203.455 165.2 203.999 164.955 204.383 164.464C204.767 163.973 204.959 163.275 204.959 162.368C204.959 161.483 204.804 160.805 204.495 160.336C204.196 159.867 203.764 159.632 203.199 159.632C202.868 159.632 202.538 159.723 202.207 159.904C201.887 160.085 201.546 160.368 201.183 160.752L201.167 162.784L201.183 164.784C201.706 165.061 202.228 165.2 202.751 165.2ZM208.7 162.288V162.32C208.7 163.216 208.902 163.904 209.308 164.384C209.713 164.864 210.289 165.104 211.036 165.104C211.409 165.104 211.782 165.045 212.156 164.928C212.529 164.8 212.87 164.624 213.18 164.4L213.308 164.496L213.116 165.584C212.369 165.947 211.622 166.128 210.876 166.128C209.83 166.128 209.009 165.797 208.412 165.136C207.814 164.464 207.516 163.547 207.516 162.384C207.516 161.211 207.814 160.277 208.412 159.584C209.009 158.891 209.814 158.544 210.828 158.544C211.681 158.544 212.342 158.789 212.812 159.28C213.281 159.76 213.516 160.432 213.516 161.296C213.516 161.584 213.494 161.856 213.452 162.112L213.292 162.272L208.7 162.288ZM210.828 159.44C210.294 159.44 209.846 159.616 209.484 159.968C209.132 160.309 208.897 160.795 208.78 161.424L212.316 161.36L212.348 161.136C212.348 160.592 212.214 160.176 211.948 159.888C211.692 159.589 211.318 159.44 210.828 159.44ZM218.219 162.896L218.171 158.752L219.403 158.64L219.371 162.784L219.403 166H218.155L218.219 162.896ZM218.811 155.392C219.025 155.392 219.195 155.456 219.323 155.584C219.451 155.712 219.515 155.888 219.515 156.112C219.515 156.347 219.446 156.533 219.307 156.672C219.179 156.811 218.998 156.88 218.763 156.88C218.539 156.88 218.363 156.816 218.235 156.688C218.118 156.56 218.059 156.379 218.059 156.144C218.059 155.92 218.123 155.739 218.251 155.6C218.39 155.461 218.577 155.392 218.811 155.392ZM226.638 161.024C226.649 160.587 226.548 160.245 226.334 160C226.121 159.755 225.806 159.632 225.39 159.632C224.718 159.632 223.993 160.011 223.214 160.768V162.784L223.278 166H222.014L222.094 162.896L222.03 158.752L223.23 158.64V159.712H223.326C223.988 159.125 224.665 158.747 225.358 158.576C226.158 158.576 226.766 158.763 227.182 159.136C227.609 159.509 227.817 160.043 227.806 160.736L227.774 162.816L227.838 166H226.558L226.638 161.024ZM233.18 154.736C233.564 154.736 233.98 154.784 234.428 154.88L234.332 155.872L234.236 155.952C233.852 155.76 233.463 155.664 233.068 155.664C232.652 155.664 232.332 155.797 232.108 156.064C231.884 156.32 231.767 156.704 231.756 157.216L231.74 158.688H233.66L233.708 158.784L233.628 159.536H231.724L231.692 162.784L231.772 166H230.508L230.604 162.88L230.572 159.536H229.468L229.404 159.44L229.484 158.688H230.572L230.556 157.408C230.545 156.544 230.769 155.883 231.228 155.424C231.687 154.965 232.337 154.736 233.18 154.736ZM237.407 158.544C238.399 158.544 239.167 158.869 239.711 159.52C240.265 160.16 240.543 161.067 240.543 162.24C240.543 163.477 240.255 164.437 239.679 165.12C239.103 165.792 238.281 166.128 237.215 166.128C236.212 166.128 235.433 165.808 234.879 165.168C234.335 164.517 234.063 163.605 234.063 162.432C234.063 161.195 234.351 160.24 234.927 159.568C235.513 158.885 236.34 158.544 237.407 158.544ZM237.327 159.44C236.655 159.44 236.143 159.669 235.791 160.128C235.439 160.587 235.263 161.259 235.263 162.144C235.263 163.168 235.433 163.936 235.775 164.448C236.127 164.96 236.633 165.216 237.295 165.216C237.967 165.216 238.479 164.992 238.831 164.544C239.183 164.096 239.359 163.424 239.359 162.528C239.359 161.515 239.183 160.747 238.831 160.224C238.489 159.701 237.988 159.44 237.327 159.44ZM247.811 158.544C248.141 158.544 248.483 158.587 248.835 158.672C249.197 158.747 249.512 158.848 249.779 158.976L249.555 160.08L249.411 160.128C248.856 159.765 248.307 159.584 247.763 159.584C247.133 159.584 246.643 159.824 246.291 160.304C245.939 160.784 245.763 161.456 245.763 162.32C245.763 163.184 245.944 163.867 246.307 164.368C246.68 164.859 247.192 165.104 247.843 165.104C248.131 165.104 248.429 165.056 248.739 164.96C249.059 164.864 249.357 164.731 249.635 164.56L249.779 164.64L249.635 165.712C248.984 165.989 248.333 166.128 247.683 166.128C246.712 166.128 245.949 165.797 245.395 165.136C244.84 164.464 244.563 163.547 244.563 162.384C244.563 161.2 244.851 160.267 245.427 159.584C246.013 158.891 246.808 158.544 247.811 158.544ZM252.575 162.784L252.655 166H251.391L251.487 162.88L251.407 154.88L252.671 154.768L252.575 162.784ZM258.016 158.544C259.008 158.544 259.776 158.869 260.32 159.52C260.875 160.16 261.152 161.067 261.152 162.24C261.152 163.477 260.864 164.437 260.288 165.12C259.712 165.792 258.891 166.128 257.824 166.128C256.821 166.128 256.043 165.808 255.488 165.168C254.944 164.517 254.672 163.605 254.672 162.432C254.672 161.195 254.96 160.24 255.536 159.568C256.123 158.885 256.949 158.544 258.016 158.544ZM257.936 159.44C257.264 159.44 256.752 159.669 256.4 160.128C256.048 160.587 255.872 161.259 255.872 162.144C255.872 163.168 256.043 163.936 256.384 164.448C256.736 164.96 257.243 165.216 257.904 165.216C258.576 165.216 259.088 164.992 259.44 164.544C259.792 164.096 259.968 163.424 259.968 162.528C259.968 161.515 259.792 160.747 259.44 160.224C259.099 159.701 258.597 159.44 257.936 159.44ZM265.139 158.56C265.747 158.56 266.334 158.677 266.899 158.912L266.723 159.952L266.531 160C265.998 159.648 265.486 159.472 264.995 159.472C264.633 159.472 264.339 159.573 264.115 159.776C263.891 159.979 263.779 160.224 263.779 160.512C263.779 160.8 263.891 161.035 264.115 161.216C264.35 161.387 264.707 161.584 265.187 161.808C265.603 162 265.934 162.176 266.179 162.336C266.435 162.485 266.654 162.688 266.835 162.944C267.017 163.2 267.107 163.515 267.107 163.888C267.107 164.283 267.006 164.651 266.803 164.992C266.601 165.333 266.302 165.611 265.907 165.824C265.513 166.027 265.043 166.128 264.499 166.128C263.753 166.128 263.043 165.952 262.371 165.6L262.531 164.512L262.675 164.416C262.974 164.672 263.294 164.869 263.635 165.008C263.987 165.147 264.318 165.216 264.627 165.216C265.022 165.216 265.342 165.109 265.587 164.896C265.833 164.672 265.955 164.411 265.955 164.112C265.955 163.824 265.838 163.595 265.603 163.424C265.379 163.243 265.027 163.04 264.547 162.816C264.131 162.624 263.795 162.453 263.539 162.304C263.283 162.144 263.065 161.931 262.883 161.664C262.702 161.397 262.611 161.067 262.611 160.672C262.611 160.053 262.835 159.547 263.283 159.152C263.742 158.757 264.361 158.56 265.139 158.56ZM269.637 162.288V162.32C269.637 163.216 269.84 163.904 270.245 164.384C270.651 164.864 271.227 165.104 271.973 165.104C272.347 165.104 272.72 165.045 273.093 164.928C273.467 164.8 273.808 164.624 274.117 164.4L274.245 164.496L274.053 165.584C273.307 165.947 272.56 166.128 271.813 166.128C270.768 166.128 269.947 165.797 269.349 165.136C268.752 164.464 268.453 163.547 268.453 162.384C268.453 161.211 268.752 160.277 269.349 159.584C269.947 158.891 270.752 158.544 271.765 158.544C272.619 158.544 273.28 158.789 273.749 159.28C274.219 159.76 274.453 160.432 274.453 161.296C274.453 161.584 274.432 161.856 274.389 162.112L274.229 162.272L269.637 162.288ZM271.765 159.44C271.232 159.44 270.784 159.616 270.421 159.968C270.069 160.309 269.835 160.795 269.717 161.424L273.253 161.36L273.285 161.136C273.285 160.592 273.152 160.176 272.885 159.888C272.629 159.589 272.256 159.44 271.765 159.44ZM278.436 158.56C279.044 158.56 279.631 158.677 280.196 158.912L280.02 159.952L279.828 160C279.295 159.648 278.783 159.472 278.292 159.472C277.93 159.472 277.636 159.573 277.412 159.776C277.188 159.979 277.076 160.224 277.076 160.512C277.076 160.8 277.188 161.035 277.412 161.216C277.647 161.387 278.004 161.584 278.484 161.808C278.9 162 279.231 162.176 279.476 162.336C279.732 162.485 279.951 162.688 280.132 162.944C280.314 163.2 280.404 163.515 280.404 163.888C280.404 164.283 280.303 164.651 280.1 164.992C279.898 165.333 279.599 165.611 279.204 165.824C278.81 166.027 278.34 166.128 277.796 166.128C277.05 166.128 276.34 165.952 275.668 165.6L275.828 164.512L275.972 164.416C276.271 164.672 276.591 164.869 276.932 165.008C277.284 165.147 277.615 165.216 277.924 165.216C278.319 165.216 278.639 165.109 278.884 164.896C279.13 164.672 279.252 164.411 279.252 164.112C279.252 163.824 279.135 163.595 278.9 163.424C278.676 163.243 278.324 163.04 277.844 162.816C277.428 162.624 277.092 162.453 276.836 162.304C276.58 162.144 276.362 161.931 276.18 161.664C275.999 161.397 275.908 161.067 275.908 160.672C275.908 160.053 276.132 159.547 276.58 159.152C277.039 158.757 277.658 158.56 278.436 158.56ZM287.735 158.544C288.727 158.544 289.495 158.869 290.039 159.52C290.593 160.16 290.871 161.067 290.871 162.24C290.871 163.477 290.583 164.437 290.007 165.12C289.431 165.792 288.609 166.128 287.543 166.128C286.54 166.128 285.761 165.808 285.207 165.168C284.663 164.517 284.391 163.605 284.391 162.432C284.391 161.195 284.679 160.24 285.255 159.568C285.841 158.885 286.668 158.544 287.735 158.544ZM287.655 159.44C286.983 159.44 286.471 159.669 286.119 160.128C285.767 160.587 285.591 161.259 285.591 162.144C285.591 163.168 285.761 163.936 286.103 164.448C286.455 164.96 286.961 165.216 287.623 165.216C288.295 165.216 288.807 164.992 289.159 164.544C289.511 164.096 289.687 163.424 289.687 162.528C289.687 161.515 289.511 160.747 289.159 160.224C288.817 159.701 288.316 159.44 287.655 159.44ZM297.326 161.024C297.337 160.587 297.235 160.245 297.022 160C296.809 159.755 296.494 159.632 296.078 159.632C295.406 159.632 294.681 160.011 293.902 160.768V162.784L293.966 166H292.702L292.782 162.896L292.718 158.752L293.918 158.64V159.712H294.014C294.675 159.125 295.353 158.747 296.046 158.576C296.846 158.576 297.454 158.763 297.87 159.136C298.297 159.509 298.505 160.043 298.494 160.736L298.462 162.816L298.526 166H297.246L297.326 161.024ZM174.712 182.6L176.296 187.736H176.392L178.248 182.664L178.504 181.672H179.64L176.952 189H175.592L173.32 181.704L174.504 181.624L174.712 182.6ZM181.403 185.288V185.32C181.403 186.216 181.606 186.904 182.011 187.384C182.416 187.864 182.992 188.104 183.739 188.104C184.112 188.104 184.486 188.045 184.859 187.928C185.232 187.8 185.574 187.624 185.883 187.4L186.011 187.496L185.819 188.584C185.072 188.947 184.326 189.128 183.579 189.128C182.534 189.128 181.712 188.797 181.115 188.136C180.518 187.464 180.219 186.547 180.219 185.384C180.219 184.211 180.518 183.277 181.115 182.584C181.712 181.891 182.518 181.544 183.531 181.544C184.384 181.544 185.046 181.789 185.515 182.28C185.984 182.76 186.219 183.432 186.219 184.296C186.219 184.584 186.198 184.856 186.155 185.112L185.995 185.272L181.403 185.288ZM183.531 182.44C182.998 182.44 182.55 182.616 182.187 182.968C181.835 183.309 181.6 183.795 181.483 184.424L185.019 184.36L185.051 184.136C185.051 183.592 184.918 183.176 184.651 182.888C184.395 182.589 184.022 182.44 183.531 182.44ZM191.562 181.656C191.69 181.656 191.829 181.667 191.978 181.688V182.92L191.834 182.968C191.653 182.915 191.455 182.888 191.242 182.888C190.89 182.888 190.565 183.032 190.266 183.32C189.978 183.597 189.69 184.045 189.402 184.664L189.386 185.784L189.466 189H188.202L188.282 185.896L188.218 181.752L189.418 181.64L189.402 183.144H189.498C189.797 182.611 190.127 182.232 190.49 182.008C190.853 181.773 191.21 181.656 191.562 181.656ZM195.678 188.024C196.03 188.024 196.414 187.917 196.83 187.704L196.974 187.8L196.846 188.632C196.27 188.899 195.736 189.053 195.246 189.096C194.638 188.979 194.2 188.755 193.934 188.424C193.667 188.093 193.534 187.613 193.534 186.984L193.582 185.848L193.566 182.536H192.558L192.494 182.44L192.574 181.688H193.55V180.504L194.654 180.024L194.782 180.136L194.75 181.688H196.926L196.99 181.784L196.91 182.536H194.75L194.67 186.872C194.659 187.299 194.734 187.597 194.894 187.768C195.054 187.939 195.315 188.024 195.678 188.024ZM198.563 185.896L198.515 181.752L199.747 181.64L199.715 185.784L199.747 189H198.499L198.563 185.896ZM199.155 178.392C199.368 178.392 199.539 178.456 199.667 178.584C199.795 178.712 199.859 178.888 199.859 179.112C199.859 179.347 199.79 179.533 199.651 179.672C199.523 179.811 199.342 179.88 199.107 179.88C198.883 179.88 198.707 179.816 198.579 179.688C198.462 179.56 198.403 179.379 198.403 179.144C198.403 178.92 198.467 178.739 198.595 178.6C198.734 178.461 198.92 178.392 199.155 178.392ZM204.998 181.544C205.329 181.544 205.67 181.587 206.022 181.672C206.385 181.747 206.699 181.848 206.966 181.976L206.742 183.08L206.598 183.128C206.043 182.765 205.494 182.584 204.95 182.584C204.321 182.584 203.83 182.824 203.478 183.304C203.126 183.784 202.95 184.456 202.95 185.32C202.95 186.184 203.131 186.867 203.494 187.368C203.867 187.859 204.379 188.104 205.03 188.104C205.318 188.104 205.617 188.056 205.926 187.96C206.246 187.864 206.545 187.731 206.822 187.56L206.966 187.64L206.822 188.712C206.171 188.989 205.521 189.128 204.87 189.128C203.899 189.128 203.137 188.797 202.582 188.136C202.027 187.464 201.75 186.547 201.75 185.384C201.75 184.2 202.038 183.267 202.614 182.584C203.201 181.891 203.995 181.544 204.998 181.544ZM210.774 181.544C211.467 181.544 212.011 181.715 212.406 182.056C212.811 182.397 213.014 182.867 213.014 183.464C213.014 183.645 212.982 184.301 212.918 185.432C212.854 186.563 212.822 187.224 212.822 187.416C212.822 187.651 212.859 187.816 212.934 187.912C213.009 187.997 213.137 188.04 213.318 188.04C213.478 188.04 213.659 188.008 213.862 187.944L213.99 188.056L213.862 188.776C213.553 188.957 213.249 189.064 212.95 189.096C212.619 189.064 212.353 188.947 212.15 188.744C211.958 188.541 211.857 188.264 211.846 187.912H211.734C211.158 188.499 210.587 188.899 210.022 189.112C209.307 189.112 208.747 188.936 208.342 188.584C207.947 188.221 207.75 187.731 207.75 187.112C207.75 186.643 207.873 186.269 208.118 185.992C208.374 185.715 208.747 185.517 209.238 185.4L211.83 184.792L211.846 183.752C211.846 183.336 211.734 183.016 211.51 182.792C211.297 182.568 210.987 182.456 210.582 182.456C210.219 182.456 209.857 182.541 209.494 182.712C209.131 182.883 208.742 183.149 208.326 183.512L208.198 183.448L208.038 182.536C208.923 181.875 209.835 181.544 210.774 181.544ZM209.494 186.168C209.281 186.232 209.126 186.323 209.03 186.44C208.934 186.547 208.886 186.712 208.886 186.936C208.886 187.288 208.982 187.565 209.174 187.768C209.377 187.96 209.643 188.056 209.974 188.056C210.561 188.056 211.158 187.677 211.766 186.92L211.814 185.608L209.494 186.168ZM216.997 185.784L217.077 189H215.813L215.909 185.88L215.829 177.88L217.093 177.768L216.997 185.784ZM227.831 185.784L227.879 187.432C227.889 187.656 227.927 187.816 227.991 187.912C228.055 187.997 228.172 188.04 228.343 188.04C228.513 188.04 228.695 188.008 228.887 187.944L229.015 188.056L228.887 188.776C228.599 188.957 228.3 189.064 227.991 189.096C227.66 189.064 227.399 188.952 227.207 188.76C227.025 188.568 226.913 188.307 226.871 187.976H226.759C226.439 188.253 226.151 188.477 225.895 188.648C225.639 188.808 225.345 188.952 225.015 189.08C223.959 189.08 223.148 188.76 222.583 188.12C222.017 187.469 221.735 186.547 221.735 185.352C221.735 184.147 222.049 183.213 222.679 182.552C223.308 181.88 224.177 181.544 225.286 181.544C225.788 181.544 226.257 181.597 226.695 181.704L226.679 177.88L227.943 177.768L227.831 185.784ZM225.143 182.44C224.46 182.44 223.921 182.675 223.527 183.144C223.132 183.603 222.935 184.269 222.935 185.144C222.935 186.051 223.111 186.755 223.463 187.256C223.825 187.757 224.321 188.008 224.951 188.008C225.249 188.008 225.537 187.933 225.815 187.784C226.103 187.635 226.401 187.384 226.711 187.032L226.743 185.88L226.695 182.84C226.129 182.573 225.612 182.44 225.143 182.44ZM233.984 181.656C234.112 181.656 234.25 181.667 234.4 181.688V182.92L234.256 182.968C234.074 182.915 233.877 182.888 233.664 182.888C233.312 182.888 232.986 183.032 232.688 183.32C232.4 183.597 232.112 184.045 231.824 184.664L231.808 185.784L231.888 189H230.624L230.704 185.896L230.64 181.752L231.84 181.64L231.824 183.144H231.92C232.218 182.611 232.549 182.232 232.912 182.008C233.274 181.773 233.632 181.656 233.984 181.656ZM238.055 181.544C238.749 181.544 239.293 181.715 239.687 182.056C240.093 182.397 240.295 182.867 240.295 183.464C240.295 183.645 240.263 184.301 240.199 185.432C240.135 186.563 240.103 187.224 240.103 187.416C240.103 187.651 240.141 187.816 240.215 187.912C240.29 187.997 240.418 188.04 240.599 188.04C240.759 188.04 240.941 188.008 241.143 187.944L241.271 188.056L241.143 188.776C240.834 188.957 240.53 189.064 240.231 189.096C239.901 189.064 239.634 188.947 239.431 188.744C239.239 188.541 239.138 188.264 239.127 187.912H239.015C238.439 188.499 237.869 188.899 237.303 189.112C236.589 189.112 236.029 188.936 235.623 188.584C235.229 188.221 235.031 187.731 235.031 187.112C235.031 186.643 235.154 186.269 235.399 185.992C235.655 185.715 236.029 185.517 236.519 185.4L239.111 184.792L239.127 183.752C239.127 183.336 239.015 183.016 238.791 182.792C238.578 182.568 238.269 182.456 237.863 182.456C237.501 182.456 237.138 182.541 236.775 182.712C236.413 182.883 236.023 183.149 235.607 183.512L235.479 183.448L235.319 182.536C236.205 181.875 237.117 181.544 238.055 181.544ZM236.775 186.168C236.562 186.232 236.407 186.323 236.311 186.44C236.215 186.547 236.167 186.712 236.167 186.936C236.167 187.288 236.263 187.565 236.455 187.768C236.658 187.96 236.925 188.056 237.255 188.056C237.842 188.056 238.439 187.677 239.047 186.92L239.095 185.608L236.775 186.168ZM249.51 182.296C249.179 182.392 248.689 182.504 248.038 182.632L248.006 182.696C248.241 183.069 248.358 183.523 248.358 184.056C248.358 184.835 248.097 185.453 247.574 185.912C247.062 186.371 246.363 186.6 245.478 186.6C245.126 186.6 244.795 186.557 244.486 186.472C244.305 186.611 244.182 186.723 244.118 186.808C244.054 186.893 244.022 186.989 244.022 187.096C244.022 187.32 244.161 187.48 244.438 187.576C244.715 187.661 245.169 187.752 245.798 187.848C246.417 187.933 246.923 188.029 247.318 188.136C247.713 188.243 248.054 188.419 248.342 188.664C248.63 188.899 248.774 189.229 248.774 189.656C248.774 190.104 248.619 190.515 248.31 190.888C248.011 191.261 247.595 191.555 247.062 191.768C246.539 191.981 245.963 192.088 245.334 192.088C244.481 192.088 243.814 191.891 243.334 191.496C242.865 191.112 242.63 190.611 242.63 189.992C242.886 189.48 243.355 189.016 244.038 188.6V188.52C243.654 188.403 243.355 188.248 243.142 188.056C242.939 187.853 242.838 187.581 242.838 187.24C243.062 186.867 243.387 186.541 243.814 186.264V186.2C243.473 185.987 243.211 185.709 243.03 185.368C242.859 185.016 242.774 184.611 242.774 184.152C242.774 183.352 243.03 182.728 243.542 182.28C244.065 181.821 244.758 181.592 245.622 181.592C246.187 181.592 246.667 181.688 247.062 181.88C247.798 181.741 248.571 181.56 249.382 181.336L249.51 181.432V182.296ZM245.542 185.736C246.075 185.736 246.486 185.587 246.774 185.288C247.073 184.989 247.222 184.573 247.222 184.04C247.222 183.528 247.083 183.133 246.806 182.856C246.529 182.579 246.129 182.44 245.606 182.44C245.073 182.44 244.657 182.584 244.358 182.872C244.059 183.16 243.91 183.571 243.91 184.104C243.91 184.616 244.049 185.016 244.326 185.304C244.614 185.592 245.019 185.736 245.542 185.736ZM247.654 189.896C247.654 189.544 247.473 189.299 247.11 189.16C246.758 189.021 246.219 188.899 245.494 188.792L244.982 188.712C244.577 188.957 244.267 189.192 244.054 189.416C243.851 189.64 243.75 189.875 243.75 190.12C243.75 190.429 243.899 190.685 244.198 190.888C244.507 191.091 244.934 191.192 245.478 191.192C246.097 191.192 246.614 191.064 247.03 190.808C247.446 190.563 247.654 190.259 247.654 189.896ZM262.636 184.024C262.646 183.587 262.545 183.245 262.332 183C262.118 182.755 261.804 182.632 261.388 182.632C260.705 182.632 259.996 183 259.26 183.736L259.228 185.816L259.292 189H257.996L258.092 184.024C258.102 183.587 258.001 183.245 257.788 183C257.574 182.755 257.26 182.632 256.844 182.632C256.172 182.632 255.446 183.011 254.668 183.768V185.784L254.732 189H253.468L253.548 185.896L253.484 181.752L254.684 181.64V182.712H254.78C255.441 182.125 256.118 181.747 256.812 181.576C257.409 181.576 257.9 181.683 258.284 181.896C258.668 182.099 258.94 182.397 259.1 182.792H259.196C259.868 182.184 260.588 181.779 261.356 181.576C262.166 181.576 262.78 181.763 263.196 182.136C263.612 182.509 263.814 183.043 263.804 183.736L263.772 185.816L263.836 189H262.556L262.636 184.024ZM269 181.544C269.992 181.544 270.76 181.869 271.304 182.52C271.859 183.16 272.136 184.067 272.136 185.24C272.136 186.477 271.848 187.437 271.272 188.12C270.696 188.792 269.875 189.128 268.808 189.128C267.806 189.128 267.027 188.808 266.472 188.168C265.928 187.517 265.656 186.605 265.656 185.432C265.656 184.195 265.944 183.24 266.52 182.568C267.107 181.885 267.934 181.544 269 181.544ZM268.92 182.44C268.248 182.44 267.736 182.669 267.384 183.128C267.032 183.587 266.856 184.259 266.856 185.144C266.856 186.168 267.027 186.936 267.368 187.448C267.72 187.96 268.227 188.216 268.888 188.216C269.56 188.216 270.072 187.992 270.424 187.544C270.776 187.096 270.952 186.424 270.952 185.528C270.952 184.515 270.776 183.747 270.424 183.224C270.083 182.701 269.582 182.44 268.92 182.44ZM276.428 188.024C276.78 188.024 277.164 187.917 277.58 187.704L277.724 187.8L277.596 188.632C277.02 188.899 276.486 189.053 275.996 189.096C275.388 188.979 274.95 188.755 274.684 188.424C274.417 188.093 274.284 187.613 274.284 186.984L274.332 185.848L274.316 182.536H273.308L273.244 182.44L273.324 181.688H274.3V180.504L275.404 180.024L275.532 180.136L275.5 181.688H277.676L277.74 181.784L277.66 182.536H275.5L275.42 186.872C275.409 187.299 275.484 187.597 275.644 187.768C275.804 187.939 276.065 188.024 276.428 188.024ZM279.313 185.896L279.265 181.752L280.497 181.64L280.465 185.784L280.497 189H279.249L279.313 185.896ZM279.905 178.392C280.118 178.392 280.289 178.456 280.417 178.584C280.545 178.712 280.609 178.888 280.609 179.112C280.609 179.347 280.54 179.533 280.401 179.672C280.273 179.811 280.092 179.88 279.857 179.88C279.633 179.88 279.457 179.816 279.329 179.688C279.212 179.56 279.153 179.379 279.153 179.144C279.153 178.92 279.217 178.739 279.345 178.6C279.484 178.461 279.67 178.392 279.905 178.392ZM285.844 181.544C286.836 181.544 287.604 181.869 288.148 182.52C288.703 183.16 288.98 184.067 288.98 185.24C288.98 186.477 288.692 187.437 288.116 188.12C287.54 188.792 286.719 189.128 285.652 189.128C284.649 189.128 283.871 188.808 283.316 188.168C282.772 187.517 282.5 186.605 282.5 185.432C282.5 184.195 282.788 183.24 283.364 182.568C283.951 181.885 284.777 181.544 285.844 181.544ZM285.764 182.44C285.092 182.44 284.58 182.669 284.228 183.128C283.876 183.587 283.7 184.259 283.7 185.144C283.7 186.168 283.871 186.936 284.212 187.448C284.564 187.96 285.071 188.216 285.732 188.216C286.404 188.216 286.916 187.992 287.268 187.544C287.62 187.096 287.796 186.424 287.796 185.528C287.796 184.515 287.62 183.747 287.268 183.224C286.927 182.701 286.425 182.44 285.764 182.44ZM295.435 184.024C295.446 183.587 295.345 183.245 295.131 183C294.918 182.755 294.603 182.632 294.187 182.632C293.515 182.632 292.79 183.011 292.011 183.768V185.784L292.075 189H290.811L290.891 185.896L290.827 181.752L292.027 181.64V182.712H292.123C292.785 182.125 293.462 181.747 294.155 181.576C294.955 181.576 295.563 181.763 295.979 182.136C296.406 182.509 296.614 183.043 296.603 183.736L296.571 185.816L296.635 189H295.355L295.435 184.024ZM179.768 208.784L179.816 210.432C179.827 210.656 179.864 210.816 179.928 210.912C179.992 210.997 180.109 211.04 180.28 211.04C180.451 211.04 180.632 211.008 180.824 210.944L180.952 211.056L180.824 211.776C180.536 211.957 180.237 212.064 179.928 212.096C179.597 212.064 179.336 211.952 179.144 211.76C178.963 211.568 178.851 211.307 178.808 210.976H178.696C178.376 211.253 178.088 211.477 177.832 211.648C177.576 211.808 177.283 211.952 176.952 212.08C175.896 212.08 175.085 211.76 174.52 211.12C173.955 210.469 173.672 209.547 173.672 208.352C173.672 207.147 173.987 206.213 174.616 205.552C175.245 204.88 176.115 204.544 177.224 204.544C177.725 204.544 178.195 204.597 178.632 204.704L178.616 200.88L179.88 200.768L179.768 208.784ZM177.08 205.44C176.397 205.44 175.859 205.675 175.464 206.144C175.069 206.603 174.872 207.269 174.872 208.144C174.872 209.051 175.048 209.755 175.4 210.256C175.763 210.757 176.259 211.008 176.888 211.008C177.187 211.008 177.475 210.933 177.752 210.784C178.04 210.635 178.339 210.384 178.648 210.032L178.68 208.88L178.632 205.84C178.067 205.573 177.549 205.44 177.08 205.44ZM185.297 204.544C186.289 204.544 187.057 204.869 187.601 205.52C188.156 206.16 188.433 207.067 188.433 208.24C188.433 209.477 188.145 210.437 187.569 211.12C186.993 211.792 186.172 212.128 185.105 212.128C184.103 212.128 183.324 211.808 182.769 211.168C182.225 210.517 181.953 209.605 181.953 208.432C181.953 207.195 182.241 206.24 182.817 205.568C183.404 204.885 184.231 204.544 185.297 204.544ZM185.217 205.44C184.545 205.44 184.033 205.669 183.681 206.128C183.329 206.587 183.153 207.259 183.153 208.144C183.153 209.168 183.324 209.936 183.665 210.448C184.017 210.96 184.524 211.216 185.185 211.216C185.857 211.216 186.369 210.992 186.721 210.544C187.073 210.096 187.249 209.424 187.249 208.528C187.249 207.515 187.073 206.747 186.721 206.224C186.38 205.701 185.879 205.44 185.217 205.44ZM190.586 205.568L191.93 210.624H192.026L193.578 205.632L193.818 204.672H195.066L195.242 205.568L196.586 210.624H196.682L198.234 205.632L198.474 204.672H199.578L197.162 212H195.962L194.426 206.32H194.314L192.538 212H191.29L189.242 204.704L190.41 204.624L190.586 205.568ZM205.607 207.024C205.618 206.587 205.516 206.245 205.303 206C205.09 205.755 204.775 205.632 204.359 205.632C203.687 205.632 202.962 206.011 202.183 206.768V208.784L202.247 212H200.983L201.063 208.896L200.999 204.752L202.199 204.64V205.712H202.295C202.956 205.125 203.634 204.747 204.327 204.576C205.127 204.576 205.735 204.763 206.151 205.136C206.578 205.509 206.786 206.043 206.775 206.736L206.743 208.816L206.807 212H205.527L205.607 207.024ZM209.32 205.568L210.664 210.624H210.76L212.312 205.632L212.552 204.672H213.8L213.976 205.568L215.32 210.624H215.416L216.968 205.632L217.208 204.672H218.312L215.896 212H214.696L213.16 206.32H213.048L211.272 212H210.024L207.976 204.704L209.144 204.624L209.32 205.568ZM221.884 204.544C222.577 204.544 223.121 204.715 223.516 205.056C223.921 205.397 224.124 205.867 224.124 206.464C224.124 206.645 224.092 207.301 224.028 208.432C223.964 209.563 223.932 210.224 223.932 210.416C223.932 210.651 223.969 210.816 224.044 210.912C224.118 210.997 224.246 211.04 224.428 211.04C224.588 211.04 224.769 211.008 224.972 210.944L225.1 211.056L224.972 211.776C224.662 211.957 224.358 212.064 224.06 212.096C223.729 212.064 223.462 211.947 223.26 211.744C223.068 211.541 222.966 211.264 222.956 210.912H222.844C222.268 211.499 221.697 211.899 221.132 212.112C220.417 212.112 219.857 211.936 219.452 211.584C219.057 211.221 218.86 210.731 218.86 210.112C218.86 209.643 218.982 209.269 219.228 208.992C219.484 208.715 219.857 208.517 220.348 208.4L222.94 207.792L222.956 206.752C222.956 206.336 222.844 206.016 222.62 205.792C222.406 205.568 222.097 205.456 221.692 205.456C221.329 205.456 220.966 205.541 220.604 205.712C220.241 205.883 219.852 206.149 219.436 206.512L219.308 206.448L219.148 205.536C220.033 204.875 220.945 204.544 221.884 204.544ZM220.604 209.168C220.39 209.232 220.236 209.323 220.14 209.44C220.044 209.547 219.996 209.712 219.996 209.936C219.996 210.288 220.092 210.565 220.284 210.768C220.486 210.96 220.753 211.056 221.084 211.056C221.67 211.056 222.268 210.677 222.876 209.92L222.924 208.608L220.604 209.168ZM230.062 204.656C230.19 204.656 230.329 204.667 230.478 204.688V205.92L230.334 205.968C230.153 205.915 229.955 205.888 229.742 205.888C229.39 205.888 229.065 206.032 228.766 206.32C228.478 206.597 228.19 207.045 227.902 207.664L227.886 208.784L227.966 212H226.702L226.782 208.896L226.718 204.752L227.918 204.64L227.902 206.144H227.998C228.297 205.611 228.627 205.232 228.99 205.008C229.353 204.773 229.71 204.656 230.062 204.656ZM237.346 208.784L237.394 210.432C237.405 210.656 237.442 210.816 237.506 210.912C237.57 210.997 237.687 211.04 237.858 211.04C238.029 211.04 238.21 211.008 238.402 210.944L238.53 211.056L238.402 211.776C238.114 211.957 237.815 212.064 237.506 212.096C237.175 212.064 236.914 211.952 236.722 211.76C236.541 211.568 236.429 211.307 236.386 210.976H236.274C235.954 211.253 235.666 211.477 235.41 211.648C235.154 211.808 234.861 211.952 234.53 212.08C233.474 212.08 232.663 211.76 232.098 211.12C231.533 210.469 231.25 209.547 231.25 208.352C231.25 207.147 231.565 206.213 232.194 205.552C232.823 204.88 233.693 204.544 234.802 204.544C235.303 204.544 235.773 204.597 236.21 204.704L236.194 200.88L237.458 200.768L237.346 208.784ZM234.658 205.44C233.975 205.44 233.437 205.675 233.042 206.144C232.647 206.603 232.45 207.269 232.45 208.144C232.45 209.051 232.626 209.755 232.978 210.256C233.341 210.757 233.837 211.008 234.466 211.008C234.765 211.008 235.053 210.933 235.33 210.784C235.618 210.635 235.917 210.384 236.226 210.032L236.258 208.88L236.21 205.84C235.645 205.573 235.127 205.44 234.658 205.44ZM242.139 204.56C242.747 204.56 243.334 204.677 243.899 204.912L243.723 205.952L243.531 206C242.998 205.648 242.486 205.472 241.995 205.472C241.633 205.472 241.339 205.573 241.115 205.776C240.891 205.979 240.779 206.224 240.779 206.512C240.779 206.8 240.891 207.035 241.115 207.216C241.35 207.387 241.707 207.584 242.187 207.808C242.603 208 242.934 208.176 243.179 208.336C243.435 208.485 243.654 208.688 243.835 208.944C244.017 209.2 244.107 209.515 244.107 209.888C244.107 210.283 244.006 210.651 243.803 210.992C243.601 211.333 243.302 211.611 242.907 211.824C242.513 212.027 242.043 212.128 241.499 212.128C240.753 212.128 240.043 211.952 239.371 211.6L239.531 210.512L239.675 210.416C239.974 210.672 240.294 210.869 240.635 211.008C240.987 211.147 241.318 211.216 241.627 211.216C242.022 211.216 242.342 211.109 242.587 210.896C242.833 210.672 242.955 210.411 242.955 210.112C242.955 209.824 242.838 209.595 242.603 209.424C242.379 209.243 242.027 209.04 241.547 208.816C241.131 208.624 240.795 208.453 240.539 208.304C240.283 208.144 240.065 207.931 239.883 207.664C239.702 207.397 239.611 207.067 239.611 206.672C239.611 206.053 239.835 205.547 240.283 205.152C240.742 204.757 241.361 204.56 242.139 204.56Z" fill="#333333"/>
<circle cx="17" cy="12" r="12" fill="#C50063"/>
<path d="M18.5279 7.76V17H16.6519V10.112C16.6519 9.96267 16.6565 9.846 16.6659 9.762C16.3299 10.07 15.9659 10.3313 15.5739 10.546C15.1912 10.7607 14.8039 10.9053 14.4119 10.98L14.1599 9.356C14.5892 9.30933 15.1025 9.118 15.6999 8.782C16.3065 8.43667 16.7265 8.096 16.9599 7.76H18.5279Z" fill="#F2F2F2"/>
<path d="M173 48V128H288.455" stroke="#BDBDBD" stroke-width="0.5"/>
<g filter="url(#filter1_d)">
<path d="M173 127.333C209.08 127.333 221.756 121.585 228.917 89.0345C236.944 52.5455 259.992 48 288.455 48" stroke="#C50063" stroke-linecap="round"/>
</g>
<circle cx="185" cy="12" r="12" fill="#C50063"/>
<path d="M181.494 15.684C182.624 14.928 183.52 14.2653 184.182 13.696C184.845 13.1267 185.326 12.5993 185.624 12.114C185.923 11.6287 186.072 11.148 186.072 10.672C186.072 10.2333 185.937 9.87867 185.666 9.608C185.405 9.33733 185.041 9.202 184.574 9.202C184.061 9.202 183.655 9.37933 183.356 9.734C183.058 10.0887 182.894 10.5927 182.866 11.246L181.2 10.616C181.266 9.68267 181.611 8.95 182.236 8.418C182.862 7.886 183.678 7.62 184.686 7.62C185.405 7.62 186.012 7.75533 186.506 8.026C187.01 8.29667 187.388 8.656 187.64 9.104C187.892 9.54267 188.018 10.028 188.018 10.56C188.018 11.428 187.692 12.2493 187.038 13.024C186.385 13.7893 185.344 14.6107 183.916 15.488V15.502C184.458 15.4647 185.022 15.446 185.61 15.446H188.158V17H181.494V15.684Z" fill="#F2F2F2"/>
<rect x="5" y="256" width="472" height="1" fill="#F8F8F8"/>
<defs>
<filter id="filter0_d" x="0.5" y="47.5" width="124.455" height="88.3333" filterUnits="userSpaceOnUse" color-interpolation-filters="sRGB">
<feFlood flood-opacity="0" result="BackgroundImageFix"/>
<feColorMatrix in="SourceAlpha" type="matrix" values="0 0 0 0 0 0 0 0 0 0 0 0 0 0 0 0 0 0 127 0"/>
<feOffset dy="4"/>
<feGaussianBlur stdDeviation="2"/>
<feColorMatrix type="matrix" values="0 0 0 0 0.768627 0 0 0 0 0.768627 0 0 0 0 0.768627 0 0 0 0.5 0"/>
<feBlend mode="normal" in2="BackgroundImageFix" result="effect1_dropShadow"/>
<feBlend mode="normal" in="SourceGraphic" in2="effect1_dropShadow" result="shape"/>
</filter>
<filter id="filter1_d" x="168.5" y="47.5" width="124.455" height="88.3333" filterUnits="userSpaceOnUse" color-interpolation-filters="sRGB">
<feFlood flood-opacity="0" result="BackgroundImageFix"/>
<feColorMatrix in="SourceAlpha" type="matrix" values="0 0 0 0 0 0 0 0 0 0 0 0 0 0 0 0 0 0 127 0"/>
<feOffset dy="4"/>
<feGaussianBlur stdDeviation="2"/>
<feColorMatrix type="matrix" values="0 0 0 0 0.768627 0 0 0 0 0.768627 0 0 0 0 0.768627 0 0 0 0.5 0"/>
<feBlend mode="normal" in2="BackgroundImageFix" result="effect1_dropShadow"/>
<feBlend mode="normal" in="SourceGraphic" in2="effect1_dropShadow" result="shape"/>
</filter>
</defs>
</svg>
