<svg width="477" height="257" viewBox="0 0 477 257" fill="none" xmlns="http://www.w3.org/2000/svg">
<path d="M5 48V128H120.455" stroke="#BDBDBD" stroke-width="0.5"/>
<g filter="url(#filter0_d)">
<path d="M5 127.333C5 94.1368 32.0874 73.0004 46.7413 64.3641C60.6405 56.1725 92.701 48 120.455 48" stroke="#C50063" stroke-linecap="round"/>
</g>
<path d="M10.664 161.856C11.368 163.019 12.2533 164.299 13.32 165.696L13.304 165.856C12.92 166.005 12.5253 166.101 12.12 166.144L11.944 166.032C11.0693 164.72 10.2853 163.44 9.592 162.192H7.72V162.8L7.784 166H6.488L6.568 162.912L6.488 155.744L9.624 155.728C10.6267 155.728 11.4 155.984 11.944 156.496C12.4987 156.997 12.776 157.717 12.776 158.656C12.776 159.36 12.5893 159.995 12.216 160.56C11.8533 161.115 11.336 161.547 10.664 161.856ZM7.736 161.104L9.656 161.152C10.8507 160.811 11.448 160.016 11.448 158.768C11.448 158.117 11.272 157.632 10.92 157.312C10.568 156.981 10.04 156.805 9.336 156.784L7.784 156.832L7.736 161.104ZM15.1529 162.288V162.32C15.1529 163.216 15.3555 163.904 15.7609 164.384C16.1662 164.864 16.7422 165.104 17.4889 165.104C17.8622 165.104 18.2355 165.045 18.6089 164.928C18.9822 164.8 19.3235 164.624 19.6329 164.4L19.7609 164.496L19.5689 165.584C18.8222 165.947 18.0755 166.128 17.3289 166.128C16.2835 166.128 15.4622 165.797 14.8649 165.136C14.2675 164.464 13.9689 163.547 13.9689 162.384C13.9689 161.211 14.2675 160.277 14.8649 159.584C15.4622 158.891 16.2675 158.544 17.2809 158.544C18.1342 158.544 18.7955 158.789 19.2649 159.28C19.7342 159.76 19.9689 160.432 19.9689 161.296C19.9689 161.584 19.9475 161.856 19.9049 162.112L19.7449 162.272L15.1529 162.288ZM17.2809 159.44C16.7475 159.44 16.2995 159.616 15.9369 159.968C15.5849 160.309 15.3502 160.795 15.2329 161.424L18.7689 161.36L18.8009 161.136C18.8009 160.592 18.6675 160.176 18.4009 159.888C18.1449 159.589 17.7715 159.44 17.2809 159.44ZM24.5919 158.544C24.9225 158.544 25.2639 158.587 25.6159 158.672C25.9785 158.747 26.2932 158.848 26.5599 158.976L26.3359 160.08L26.1919 160.128C25.6372 159.765 25.0879 159.584 24.5439 159.584C23.9145 159.584 23.4239 159.824 23.0719 160.304C22.7199 160.784 22.5439 161.456 22.5439 162.32C22.5439 163.184 22.7252 163.867 23.0879 164.368C23.4612 164.859 23.9732 165.104 24.6239 165.104C24.9119 165.104 25.2105 165.056 25.5199 164.96C25.8399 164.864 26.1385 164.731 26.4159 164.56L26.5599 164.64L26.4159 165.712C25.7652 165.989 25.1145 166.128 24.4639 166.128C23.4932 166.128 22.7305 165.797 22.1759 165.136C21.6212 164.464 21.3439 163.547 21.3439 162.384C21.3439 161.2 21.6319 160.267 22.2079 159.584C22.7945 158.891 23.5892 158.544 24.5919 158.544ZM28.1881 162.896L28.1401 158.752L29.3721 158.64L29.3401 162.784L29.3721 166H28.1241L28.1881 162.896ZM28.7801 155.392C28.9935 155.392 29.1641 155.456 29.2921 155.584C29.4201 155.712 29.4841 155.888 29.4841 156.112C29.4841 156.347 29.4148 156.533 29.2761 156.672C29.1481 156.811 28.9668 156.88 28.7321 156.88C28.5081 156.88 28.3321 156.816 28.2041 156.688C28.0868 156.56 28.0281 156.379 28.0281 156.144C28.0281 155.92 28.0921 155.739 28.2201 155.6C28.3588 155.461 28.5455 155.392 28.7801 155.392ZM35.3111 158.592C36.2285 158.592 36.9325 158.896 37.4231 159.504C37.9138 160.112 38.1591 160.981 38.1591 162.112C38.1591 163.392 37.8498 164.384 37.2311 165.088C36.6125 165.781 35.7325 166.128 34.5911 166.128C34.1431 166.128 33.6791 166.08 33.1991 165.984L33.2311 168.96H31.9831L32.0631 162.896L31.9831 158.752L33.1991 158.64L33.1831 159.68H33.2951C33.6685 159.371 34.0045 159.136 34.3031 158.976C34.6018 158.816 34.9378 158.688 35.3111 158.592ZM34.7511 165.2C35.4551 165.2 35.9991 164.955 36.3831 164.464C36.7671 163.973 36.9591 163.275 36.9591 162.368C36.9591 161.483 36.8045 160.805 36.4951 160.336C36.1965 159.867 35.7645 159.632 35.1991 159.632C34.8685 159.632 34.5378 159.723 34.2071 159.904C33.8871 160.085 33.5458 160.368 33.1831 160.752L33.1671 162.784L33.1831 164.784C33.7058 165.061 34.2285 165.2 34.7511 165.2ZM40.6998 162.288V162.32C40.6998 163.216 40.9024 163.904 41.3078 164.384C41.7131 164.864 42.2891 165.104 43.0358 165.104C43.4091 165.104 43.7824 165.045 44.1558 164.928C44.5291 164.8 44.8704 164.624 45.1798 164.4L45.3078 164.496L45.1158 165.584C44.3691 165.947 43.6224 166.128 42.8758 166.128C41.8304 166.128 41.0091 165.797 40.4118 165.136C39.8144 164.464 39.5158 163.547 39.5158 162.384C39.5158 161.211 39.8144 160.277 40.4118 159.584C41.0091 158.891 41.8144 158.544 42.8278 158.544C43.6811 158.544 44.3424 158.789 44.8118 159.28C45.2811 159.76 45.5158 160.432 45.5158 161.296C45.5158 161.584 45.4944 161.856 45.4518 162.112L45.2918 162.272L40.6998 162.288ZM42.8278 159.44C42.2944 159.44 41.8464 159.616 41.4838 159.968C41.1318 160.309 40.8971 160.795 40.7798 161.424L44.3158 161.36L44.3478 161.136C44.3478 160.592 44.2144 160.176 43.9478 159.888C43.6918 159.589 43.3184 159.44 42.8278 159.44ZM50.2194 162.896L50.1714 158.752L51.4034 158.64L51.3714 162.784L51.4034 166H50.1554L50.2194 162.896ZM50.8114 155.392C51.0247 155.392 51.1954 155.456 51.3234 155.584C51.4514 155.712 51.5154 155.888 51.5154 156.112C51.5154 156.347 51.446 156.533 51.3074 156.672C51.1794 156.811 50.998 156.88 50.7634 156.88C50.5394 156.88 50.3634 156.816 50.2354 156.688C50.118 156.56 50.0594 156.379 50.0594 156.144C50.0594 155.92 50.1234 155.739 50.2514 155.6C50.39 155.461 50.5767 155.392 50.8114 155.392ZM58.6384 161.024C58.649 160.587 58.5477 160.245 58.3344 160C58.121 159.755 57.8064 159.632 57.3904 159.632C56.7184 159.632 55.993 160.011 55.2144 160.768V162.784L55.2784 166H54.0144L54.0944 162.896L54.0304 158.752L55.2304 158.64V159.712H55.3264C55.9877 159.125 56.665 158.747 57.3584 158.576C58.1584 158.576 58.7664 158.763 59.1824 159.136C59.609 159.509 59.817 160.043 59.8064 160.736L59.7744 162.816L59.8384 166H58.5584L58.6384 161.024ZM65.1801 154.736C65.5641 154.736 65.9801 154.784 66.4281 154.88L66.3321 155.872L66.2361 155.952C65.8521 155.76 65.4628 155.664 65.0681 155.664C64.6521 155.664 64.3321 155.797 64.1081 156.064C63.8841 156.32 63.7668 156.704 63.7561 157.216L63.7401 158.688H65.6601L65.7081 158.784L65.6281 159.536H63.7241L63.6921 162.784L63.7721 166H62.5081L62.6041 162.88L62.5721 159.536H61.4681L61.4041 159.44L61.4841 158.688H62.5721L62.5561 157.408C62.5455 156.544 62.7695 155.883 63.2281 155.424C63.6868 154.965 64.3375 154.736 65.1801 154.736ZM69.4066 158.544C70.3986 158.544 71.1666 158.869 71.7106 159.52C72.2653 160.16 72.5426 161.067 72.5426 162.24C72.5426 163.477 72.2546 164.437 71.6786 165.12C71.1026 165.792 70.2813 166.128 69.2146 166.128C68.212 166.128 67.4333 165.808 66.8786 165.168C66.3346 164.517 66.0626 163.605 66.0626 162.432C66.0626 161.195 66.3506 160.24 66.9266 159.568C67.5133 158.885 68.34 158.544 69.4066 158.544ZM69.3266 159.44C68.6546 159.44 68.1426 159.669 67.7906 160.128C67.4386 160.587 67.2626 161.259 67.2626 162.144C67.2626 163.168 67.4333 163.936 67.7746 164.448C68.1266 164.96 68.6333 165.216 69.2946 165.216C69.9666 165.216 70.4786 164.992 70.8306 164.544C71.1826 164.096 71.3586 163.424 71.3586 162.528C71.3586 161.515 71.1826 160.747 70.8306 160.224C70.4893 159.701 69.988 159.44 69.3266 159.44ZM80.5306 158.656C80.6586 158.656 80.7973 158.667 80.9466 158.688V159.92L80.8026 159.968C80.6213 159.915 80.424 159.888 80.2106 159.888C79.8586 159.888 79.5333 160.032 79.2346 160.32C78.9466 160.597 78.6586 161.045 78.3706 161.664L78.3546 162.784L78.4346 166H77.1706L77.2506 162.896L77.1866 158.752L78.3866 158.64L78.3706 160.144H78.4666C78.7653 159.611 79.096 159.232 79.4586 159.008C79.8213 158.773 80.1786 158.656 80.5306 158.656ZM82.9029 162.288V162.32C82.9029 163.216 83.1055 163.904 83.5109 164.384C83.9162 164.864 84.4922 165.104 85.2389 165.104C85.6122 165.104 85.9855 165.045 86.3589 164.928C86.7322 164.8 87.0735 164.624 87.3829 164.4L87.5109 164.496L87.3189 165.584C86.5722 165.947 85.8255 166.128 85.0789 166.128C84.0335 166.128 83.2122 165.797 82.6149 165.136C82.0175 164.464 81.7189 163.547 81.7189 162.384C81.7189 161.211 82.0175 160.277 82.6149 159.584C83.2122 158.891 84.0175 158.544 85.0309 158.544C85.8842 158.544 86.5455 158.789 87.0149 159.28C87.4842 159.76 87.7189 160.432 87.7189 161.296C87.7189 161.584 87.6975 161.856 87.6549 162.112L87.4949 162.272L82.9029 162.288ZM85.0309 159.44C84.4975 159.44 84.0495 159.616 83.6869 159.968C83.3349 160.309 83.1002 160.795 82.9829 161.424L86.5189 161.36L86.5509 161.136C86.5509 160.592 86.4175 160.176 86.1509 159.888C85.8949 159.589 85.5215 159.44 85.0309 159.44ZM90.1339 159.6L91.7179 164.736H91.8139L93.6699 159.664L93.9259 158.672H95.0619L92.3739 166H91.0139L88.7419 158.704L89.9259 158.624L90.1339 159.6ZM96.8248 162.288V162.32C96.8248 163.216 97.0274 163.904 97.4328 164.384C97.8381 164.864 98.4141 165.104 99.1608 165.104C99.5341 165.104 99.9074 165.045 100.281 164.928C100.654 164.8 100.995 164.624 101.305 164.4L101.433 164.496L101.241 165.584C100.494 165.947 99.7474 166.128 99.0008 166.128C97.9554 166.128 97.1341 165.797 96.5368 165.136C95.9394 164.464 95.6408 163.547 95.6408 162.384C95.6408 161.211 95.9394 160.277 96.5368 159.584C97.1341 158.891 97.9394 158.544 98.9528 158.544C99.8061 158.544 100.467 158.789 100.937 159.28C101.406 159.76 101.641 160.432 101.641 161.296C101.641 161.584 101.619 161.856 101.577 162.112L101.417 162.272L96.8248 162.288ZM98.9528 159.44C98.4194 159.44 97.9714 159.616 97.6088 159.968C97.2568 160.309 97.0221 160.795 96.9048 161.424L100.441 161.36L100.473 161.136C100.473 160.592 100.339 160.176 100.073 159.888C99.8168 159.589 99.4434 159.44 98.9528 159.44ZM106.04 158.544C106.733 158.544 107.277 158.715 107.672 159.056C108.077 159.397 108.28 159.867 108.28 160.464C108.28 160.645 108.248 161.301 108.184 162.432C108.12 163.563 108.088 164.224 108.088 164.416C108.088 164.651 108.125 164.816 108.2 164.912C108.274 164.997 108.402 165.04 108.584 165.04C108.744 165.04 108.925 165.008 109.128 164.944L109.256 165.056L109.128 165.776C108.818 165.957 108.514 166.064 108.216 166.096C107.885 166.064 107.618 165.947 107.416 165.744C107.224 165.541 107.122 165.264 107.112 164.912H107C106.424 165.499 105.853 165.899 105.288 166.112C104.573 166.112 104.013 165.936 103.608 165.584C103.213 165.221 103.016 164.731 103.016 164.112C103.016 163.643 103.138 163.269 103.384 162.992C103.64 162.715 104.013 162.517 104.504 162.4L107.096 161.792L107.112 160.752C107.112 160.336 107 160.016 106.776 159.792C106.562 159.568 106.253 159.456 105.848 159.456C105.485 159.456 105.122 159.541 104.76 159.712C104.397 159.883 104.008 160.149 103.592 160.512L103.464 160.448L103.304 159.536C104.189 158.875 105.101 158.544 106.04 158.544ZM104.76 163.168C104.546 163.232 104.392 163.323 104.296 163.44C104.2 163.547 104.152 163.712 104.152 163.936C104.152 164.288 104.248 164.565 104.44 164.768C104.642 164.96 104.909 165.056 105.24 165.056C105.826 165.056 106.424 164.677 107.032 163.92L107.08 162.608L104.76 163.168ZM112.262 162.784L112.342 166H111.078L111.174 162.88L111.094 154.88L112.358 154.768L112.262 162.784ZM116.968 158.56C117.576 158.56 118.162 158.677 118.728 158.912L118.552 159.952L118.36 160C117.826 159.648 117.314 159.472 116.824 159.472C116.461 159.472 116.168 159.573 115.944 159.776C115.72 159.979 115.608 160.224 115.608 160.512C115.608 160.8 115.72 161.035 115.944 161.216C116.178 161.387 116.536 161.584 117.016 161.808C117.432 162 117.762 162.176 118.008 162.336C118.264 162.485 118.482 162.688 118.664 162.944C118.845 163.2 118.936 163.515 118.936 163.888C118.936 164.283 118.834 164.651 118.632 164.992C118.429 165.333 118.13 165.611 117.736 165.824C117.341 166.027 116.872 166.128 116.328 166.128C115.581 166.128 114.872 165.952 114.2 165.6L114.36 164.512L114.504 164.416C114.802 164.672 115.122 164.869 115.464 165.008C115.816 165.147 116.146 165.216 116.456 165.216C116.85 165.216 117.17 165.109 117.416 164.896C117.661 164.672 117.784 164.411 117.784 164.112C117.784 163.824 117.666 163.595 117.432 163.424C117.208 163.243 116.856 163.04 116.376 162.816C115.96 162.624 115.624 162.453 115.368 162.304C115.112 162.144 114.893 161.931 114.712 161.664C114.53 161.397 114.44 161.067 114.44 160.672C114.44 160.053 114.664 159.547 115.112 159.152C115.57 158.757 116.189 158.56 116.968 158.56ZM6.36 185.896L6.312 181.752L7.544 181.64L7.512 185.784L7.544 189H6.296L6.36 185.896ZM6.952 178.392C7.16533 178.392 7.336 178.456 7.464 178.584C7.592 178.712 7.656 178.888 7.656 179.112C7.656 179.347 7.58667 179.533 7.448 179.672C7.32 179.811 7.13867 179.88 6.904 179.88C6.68 179.88 6.504 179.816 6.376 179.688C6.25867 179.56 6.2 179.379 6.2 179.144C6.2 178.92 6.264 178.739 6.392 178.6C6.53067 178.461 6.71733 178.392 6.952 178.392ZM12.459 188.024C12.811 188.024 13.195 187.917 13.611 187.704L13.755 187.8L13.627 188.632C13.051 188.899 12.5177 189.053 12.027 189.096C11.419 188.979 10.9817 188.755 10.715 188.424C10.4483 188.093 10.315 187.613 10.315 186.984L10.363 185.848L10.347 182.536H9.339L9.275 182.44L9.355 181.688H10.331V180.504L11.435 180.024L11.563 180.136L11.531 181.688H13.707L13.771 181.784L13.691 182.536H11.531L11.451 186.872C11.4403 187.299 11.515 187.597 11.675 187.768C11.835 187.939 12.0963 188.024 12.459 188.024ZM17.2644 181.56C17.8724 181.56 18.459 181.677 19.0244 181.912L18.8484 182.952L18.6564 183C18.123 182.648 17.611 182.472 17.1204 182.472C16.7577 182.472 16.4644 182.573 16.2404 182.776C16.0164 182.979 15.9044 183.224 15.9044 183.512C15.9044 183.8 16.0164 184.035 16.2404 184.216C16.475 184.387 16.8324 184.584 17.3124 184.808C17.7284 185 18.059 185.176 18.3044 185.336C18.5604 185.485 18.779 185.688 18.9604 185.944C19.1417 186.2 19.2324 186.515 19.2324 186.888C19.2324 187.283 19.131 187.651 18.9284 187.992C18.7257 188.333 18.427 188.611 18.0324 188.824C17.6377 189.027 17.1684 189.128 16.6244 189.128C15.8777 189.128 15.1684 188.952 14.4964 188.6L14.6564 187.512L14.8004 187.416C15.099 187.672 15.419 187.869 15.7604 188.008C16.1124 188.147 16.443 188.216 16.7524 188.216C17.147 188.216 17.467 188.109 17.7124 187.896C17.9577 187.672 18.0804 187.411 18.0804 187.112C18.0804 186.824 17.963 186.595 17.7284 186.424C17.5044 186.243 17.1524 186.04 16.6724 185.816C16.2564 185.624 15.9204 185.453 15.6644 185.304C15.4084 185.144 15.1897 184.931 15.0084 184.664C14.827 184.397 14.7364 184.067 14.7364 183.672C14.7364 183.053 14.9604 182.547 15.4084 182.152C15.867 181.757 16.4857 181.56 17.2644 181.56ZM21.7623 185.288V185.32C21.7623 186.216 21.9649 186.904 22.3703 187.384C22.7756 187.864 23.3516 188.104 24.0983 188.104C24.4716 188.104 24.8449 188.045 25.2183 187.928C25.5916 187.8 25.9329 187.624 26.2423 187.4L26.3703 187.496L26.1783 188.584C25.4316 188.947 24.6849 189.128 23.9383 189.128C22.8929 189.128 22.0716 188.797 21.4743 188.136C20.8769 187.464 20.5783 186.547 20.5783 185.384C20.5783 184.211 20.8769 183.277 21.4743 182.584C22.0716 181.891 22.8769 181.544 23.8903 181.544C24.7436 181.544 25.4049 181.789 25.8743 182.28C26.3436 182.76 26.5783 183.432 26.5783 184.296C26.5783 184.584 26.5569 184.856 26.5143 185.112L26.3543 185.272L21.7623 185.288ZM23.8903 182.44C23.3569 182.44 22.9089 182.616 22.5463 182.968C22.1943 183.309 21.9596 183.795 21.8423 184.424L25.3783 184.36L25.4103 184.136C25.4103 183.592 25.2769 183.176 25.0103 182.888C24.7543 182.589 24.3809 182.44 23.8903 182.44ZM29.8093 185.784L29.8893 189H28.6253L28.7213 185.88L28.6413 177.88L29.9053 177.768L29.8093 185.784ZM35.5864 177.736C35.9704 177.736 36.3864 177.784 36.8344 177.88L36.7384 178.872L36.6424 178.952C36.2584 178.76 35.869 178.664 35.4744 178.664C35.0584 178.664 34.7384 178.797 34.5144 179.064C34.2904 179.32 34.173 179.704 34.1624 180.216L34.1464 181.688H36.0664L36.1144 181.784L36.0344 182.536H34.1304L34.0984 185.784L34.1784 189H32.9144L33.0104 185.88L32.9784 182.536H31.8744L31.8104 182.44L31.8904 181.688H32.9784L32.9624 180.408C32.9517 179.544 33.1757 178.883 33.6344 178.424C34.093 177.965 34.7437 177.736 35.5864 177.736ZM42.7348 181.544C43.7268 181.544 44.4948 181.869 45.0388 182.52C45.5934 183.16 45.8708 184.067 45.8708 185.24C45.8708 186.477 45.5828 187.437 45.0068 188.12C44.4308 188.792 43.6094 189.128 42.5428 189.128C41.5401 189.128 40.7614 188.808 40.2068 188.168C39.6628 187.517 39.3908 186.605 39.3908 185.432C39.3908 184.195 39.6788 183.24 40.2548 182.568C40.8414 181.885 41.6681 181.544 42.7348 181.544ZM42.6548 182.44C41.9828 182.44 41.4708 182.669 41.1188 183.128C40.7668 183.587 40.5908 184.259 40.5908 185.144C40.5908 186.168 40.7614 186.936 41.1028 187.448C41.4548 187.96 41.9614 188.216 42.6228 188.216C43.2948 188.216 43.8068 187.992 44.1588 187.544C44.5108 187.096 44.6868 186.424 44.6868 185.528C44.6868 184.515 44.5108 183.747 44.1588 183.224C43.8174 182.701 43.3161 182.44 42.6548 182.44ZM52.3259 184.024C52.3365 183.587 52.2352 183.245 52.0219 183C51.8085 182.755 51.4939 182.632 51.0779 182.632C50.4059 182.632 49.6805 183.011 48.9019 183.768V185.784L48.9659 189H47.7019L47.7819 185.896L47.7179 181.752L48.9179 181.64V182.712H49.0139C49.6752 182.125 50.3525 181.747 51.0459 181.576C51.8459 181.576 52.4539 181.763 52.8699 182.136C53.2965 182.509 53.5045 183.043 53.4939 183.736L53.4619 185.816L53.5259 189H52.2459L52.3259 184.024ZM59.0245 182.6L60.6085 187.736H60.7045L62.5605 182.664L62.8165 181.672H63.9525L61.2645 189H59.9045L57.6325 181.704L58.8165 181.624L59.0245 182.6ZM65.7154 185.288V185.32C65.7154 186.216 65.918 186.904 66.3234 187.384C66.7287 187.864 67.3047 188.104 68.0514 188.104C68.4247 188.104 68.798 188.045 69.1714 187.928C69.5447 187.8 69.886 187.624 70.1954 187.4L70.3234 187.496L70.1314 188.584C69.3847 188.947 68.638 189.128 67.8914 189.128C66.846 189.128 66.0247 188.797 65.4274 188.136C64.83 187.464 64.5314 186.547 64.5314 185.384C64.5314 184.211 64.83 183.277 65.4274 182.584C66.0247 181.891 66.83 181.544 67.8434 181.544C68.6967 181.544 69.358 181.789 69.8274 182.28C70.2967 182.76 70.5314 183.432 70.5314 184.296C70.5314 184.584 70.51 184.856 70.4674 185.112L70.3074 185.272L65.7154 185.288ZM67.8434 182.44C67.31 182.44 66.862 182.616 66.4994 182.968C66.1474 183.309 65.9127 183.795 65.7954 184.424L69.3314 184.36L69.3634 184.136C69.3634 183.592 69.23 183.176 68.9634 182.888C68.7074 182.589 68.334 182.44 67.8434 182.44ZM75.8744 181.656C76.0024 181.656 76.141 181.667 76.2904 181.688V182.92L76.1464 182.968C75.965 182.915 75.7677 182.888 75.5544 182.888C75.2024 182.888 74.877 183.032 74.5784 183.32C74.2904 183.597 74.0024 184.045 73.7144 184.664L73.6984 185.784L73.7784 189H72.5144L72.5944 185.896L72.5304 181.752L73.7304 181.64L73.7144 183.144H73.8104C74.109 182.611 74.4397 182.232 74.8024 182.008C75.165 181.773 75.5224 181.656 75.8744 181.656ZM79.9903 188.024C80.3423 188.024 80.7263 187.917 81.1423 187.704L81.2863 187.8L81.1583 188.632C80.5823 188.899 80.0489 189.053 79.5583 189.096C78.9503 188.979 78.5129 188.755 78.2463 188.424C77.9796 188.093 77.8463 187.613 77.8463 186.984L77.8943 185.848L77.8783 182.536H76.8703L76.8063 182.44L76.8863 181.688H77.8623V180.504L78.9663 180.024L79.0943 180.136L79.0623 181.688H81.2383L81.3023 181.784L81.2223 182.536H79.0623L78.9823 186.872C78.9716 187.299 79.0463 187.597 79.2063 187.768C79.3663 187.939 79.6276 188.024 79.9903 188.024ZM82.8756 185.896L82.8276 181.752L84.0596 181.64L84.0276 185.784L84.0596 189H82.8116L82.8756 185.896ZM83.4676 178.392C83.681 178.392 83.8516 178.456 83.9796 178.584C84.1076 178.712 84.1716 178.888 84.1716 179.112C84.1716 179.347 84.1023 179.533 83.9636 179.672C83.8356 179.811 83.6543 179.88 83.4196 179.88C83.1956 179.88 83.0196 179.816 82.8916 179.688C82.7743 179.56 82.7156 179.379 82.7156 179.144C82.7156 178.92 82.7796 178.739 82.9076 178.6C83.0463 178.461 83.233 178.392 83.4676 178.392ZM89.3106 181.544C89.6413 181.544 89.9826 181.587 90.3346 181.672C90.6973 181.747 91.012 181.848 91.2786 181.976L91.0546 183.08L90.9106 183.128C90.356 182.765 89.8066 182.584 89.2626 182.584C88.6333 182.584 88.1426 182.824 87.7906 183.304C87.4386 183.784 87.2626 184.456 87.2626 185.32C87.2626 186.184 87.444 186.867 87.8066 187.368C88.18 187.859 88.692 188.104 89.3426 188.104C89.6306 188.104 89.9293 188.056 90.2386 187.96C90.5586 187.864 90.8573 187.731 91.1346 187.56L91.2786 187.64L91.1346 188.712C90.484 188.989 89.8333 189.128 89.1826 189.128C88.212 189.128 87.4493 188.797 86.8946 188.136C86.34 187.464 86.0626 186.547 86.0626 185.384C86.0626 184.2 86.3506 183.267 86.9266 182.584C87.5133 181.891 88.308 181.544 89.3106 181.544ZM95.0866 181.544C95.78 181.544 96.324 181.715 96.7186 182.056C97.124 182.397 97.3266 182.867 97.3266 183.464C97.3266 183.645 97.2946 184.301 97.2306 185.432C97.1666 186.563 97.1346 187.224 97.1346 187.416C97.1346 187.651 97.172 187.816 97.2466 187.912C97.3213 187.997 97.4493 188.04 97.6306 188.04C97.7906 188.04 97.972 188.008 98.1746 187.944L98.3026 188.056L98.1746 188.776C97.8653 188.957 97.5613 189.064 97.2626 189.096C96.932 189.064 96.6653 188.947 96.4626 188.744C96.2706 188.541 96.1693 188.264 96.1586 187.912H96.0466C95.4706 188.499 94.9 188.899 94.3346 189.112C93.62 189.112 93.06 188.936 92.6546 188.584C92.26 188.221 92.0626 187.731 92.0626 187.112C92.0626 186.643 92.1853 186.269 92.4306 185.992C92.6866 185.715 93.06 185.517 93.5506 185.4L96.1426 184.792L96.1586 183.752C96.1586 183.336 96.0466 183.016 95.8226 182.792C95.6093 182.568 95.3 182.456 94.8946 182.456C94.532 182.456 94.1693 182.541 93.8066 182.712C93.444 182.883 93.0546 183.149 92.6386 183.512L92.5106 183.448L92.3506 182.536C93.236 181.875 94.148 181.544 95.0866 181.544ZM93.8066 186.168C93.5933 186.232 93.4386 186.323 93.3426 186.44C93.2466 186.547 93.1986 186.712 93.1986 186.936C93.1986 187.288 93.2946 187.565 93.4866 187.768C93.6893 187.96 93.956 188.056 94.2866 188.056C94.8733 188.056 95.4706 187.677 96.0786 186.92L96.1266 185.608L93.8066 186.168ZM101.309 185.784L101.389 189H100.125L100.221 185.88L100.141 177.88L101.405 177.768L101.309 185.784ZM112.143 185.784L112.191 187.432C112.202 187.656 112.239 187.816 112.303 187.912C112.367 187.997 112.484 188.04 112.655 188.04C112.826 188.04 113.007 188.008 113.199 187.944L113.327 188.056L113.199 188.776C112.911 188.957 112.612 189.064 112.303 189.096C111.972 189.064 111.711 188.952 111.519 188.76C111.338 188.568 111.226 188.307 111.183 187.976H111.071C110.751 188.253 110.463 188.477 110.207 188.648C109.951 188.808 109.658 188.952 109.327 189.08C108.271 189.08 107.46 188.76 106.895 188.12C106.33 187.469 106.047 186.547 106.047 185.352C106.047 184.147 106.362 183.213 106.991 182.552C107.62 181.88 108.49 181.544 109.599 181.544C110.1 181.544 110.57 181.597 111.007 181.704L110.991 177.88L112.255 177.768L112.143 185.784ZM109.455 182.44C108.772 182.44 108.234 182.675 107.839 183.144C107.444 183.603 107.247 184.269 107.247 185.144C107.247 186.051 107.423 186.755 107.775 187.256C108.138 187.757 108.634 188.008 109.263 188.008C109.562 188.008 109.85 187.933 110.127 187.784C110.415 187.635 110.714 187.384 111.023 187.032L111.055 185.88L111.007 182.84C110.442 182.573 109.924 182.44 109.455 182.44ZM118.296 181.656C118.424 181.656 118.563 181.667 118.712 181.688V182.92L118.568 182.968C118.387 182.915 118.19 182.888 117.976 182.888C117.624 182.888 117.299 183.032 117 183.32C116.712 183.597 116.424 184.045 116.136 184.664L116.12 185.784L116.2 189H114.936L115.016 185.896L114.952 181.752L116.152 181.64L116.136 183.144H116.232C116.531 182.611 116.862 182.232 117.224 182.008C117.587 181.773 117.944 181.656 118.296 181.656ZM122.368 181.544C123.061 181.544 123.605 181.715 124 182.056C124.405 182.397 124.608 182.867 124.608 183.464C124.608 183.645 124.576 184.301 124.512 185.432C124.448 186.563 124.416 187.224 124.416 187.416C124.416 187.651 124.453 187.816 124.528 187.912C124.603 187.997 124.731 188.04 124.912 188.04C125.072 188.04 125.253 188.008 125.456 187.944L125.584 188.056L125.456 188.776C125.147 188.957 124.843 189.064 124.544 189.096C124.213 189.064 123.947 188.947 123.744 188.744C123.552 188.541 123.451 188.264 123.44 187.912H123.328C122.752 188.499 122.181 188.899 121.616 189.112C120.901 189.112 120.341 188.936 119.936 188.584C119.541 188.221 119.344 187.731 119.344 187.112C119.344 186.643 119.467 186.269 119.712 185.992C119.968 185.715 120.341 185.517 120.832 185.4L123.424 184.792L123.44 183.752C123.44 183.336 123.328 183.016 123.104 182.792C122.891 182.568 122.581 182.456 122.176 182.456C121.813 182.456 121.451 182.541 121.088 182.712C120.725 182.883 120.336 183.149 119.92 183.512L119.792 183.448L119.632 182.536C120.517 181.875 121.429 181.544 122.368 181.544ZM121.088 186.168C120.875 186.232 120.72 186.323 120.624 186.44C120.528 186.547 120.48 186.712 120.48 186.936C120.48 187.288 120.576 187.565 120.768 187.768C120.971 187.96 121.237 188.056 121.568 188.056C122.155 188.056 122.752 187.677 123.36 186.92L123.408 185.608L121.088 186.168ZM133.823 182.296C133.492 182.392 133.001 182.504 132.351 182.632L132.319 182.696C132.553 183.069 132.671 183.523 132.671 184.056C132.671 184.835 132.409 185.453 131.887 185.912C131.375 186.371 130.676 186.6 129.791 186.6C129.439 186.6 129.108 186.557 128.799 186.472C128.617 186.611 128.495 186.723 128.431 186.808C128.367 186.893 128.335 186.989 128.335 187.096C128.335 187.32 128.473 187.48 128.751 187.576C129.028 187.661 129.481 187.752 130.111 187.848C130.729 187.933 131.236 188.029 131.631 188.136C132.025 188.243 132.367 188.419 132.655 188.664C132.943 188.899 133.087 189.229 133.087 189.656C133.087 190.104 132.932 190.515 132.623 190.888C132.324 191.261 131.908 191.555 131.375 191.768C130.852 191.981 130.276 192.088 129.647 192.088C128.793 192.088 128.127 191.891 127.647 191.496C127.177 191.112 126.943 190.611 126.943 189.992C127.199 189.48 127.668 189.016 128.351 188.6V188.52C127.967 188.403 127.668 188.248 127.455 188.056C127.252 187.853 127.151 187.581 127.151 187.24C127.375 186.867 127.7 186.541 128.127 186.264V186.2C127.785 185.987 127.524 185.709 127.343 185.368C127.172 185.016 127.087 184.611 127.087 184.152C127.087 183.352 127.343 182.728 127.855 182.28C128.377 181.821 129.071 181.592 129.935 181.592C130.5 181.592 130.98 181.688 131.375 181.88C132.111 181.741 132.884 181.56 133.695 181.336L133.823 181.432V182.296ZM129.855 185.736C130.388 185.736 130.799 185.587 131.087 185.288C131.385 184.989 131.535 184.573 131.535 184.04C131.535 183.528 131.396 183.133 131.119 182.856C130.841 182.579 130.441 182.44 129.919 182.44C129.385 182.44 128.969 182.584 128.671 182.872C128.372 183.16 128.223 183.571 128.223 184.104C128.223 184.616 128.361 185.016 128.639 185.304C128.927 185.592 129.332 185.736 129.855 185.736ZM131.967 189.896C131.967 189.544 131.785 189.299 131.423 189.16C131.071 189.021 130.532 188.899 129.807 188.792L129.295 188.712C128.889 188.957 128.58 189.192 128.367 189.416C128.164 189.64 128.062 189.875 128.062 190.12C128.062 190.429 128.212 190.685 128.511 190.888C128.82 191.091 129.247 191.192 129.791 191.192C130.409 191.192 130.927 191.064 131.343 190.808C131.759 190.563 131.967 190.259 131.967 189.896ZM15.448 207.024C15.4587 206.587 15.3573 206.245 15.144 206C14.9307 205.755 14.616 205.632 14.2 205.632C13.5173 205.632 12.808 206 12.072 206.736L12.04 208.816L12.104 212H10.808L10.904 207.024C10.9147 206.587 10.8133 206.245 10.6 206C10.3867 205.755 10.072 205.632 9.656 205.632C8.984 205.632 8.25867 206.011 7.48 206.768V208.784L7.544 212H6.28L6.36 208.896L6.296 204.752L7.496 204.64V205.712H7.592C8.25333 205.125 8.93067 204.747 9.624 204.576C10.2213 204.576 10.712 204.683 11.096 204.896C11.48 205.099 11.752 205.397 11.912 205.792H12.008C12.68 205.184 13.4 204.779 14.168 204.576C14.9787 204.576 15.592 204.763 16.008 205.136C16.424 205.509 16.6267 206.043 16.616 206.736L16.584 208.816L16.648 212H15.368L15.448 207.024ZM21.8129 204.544C22.8049 204.544 23.5729 204.869 24.1169 205.52C24.6715 206.16 24.9489 207.067 24.9489 208.24C24.9489 209.477 24.6609 210.437 24.0849 211.12C23.5089 211.792 22.6875 212.128 21.6209 212.128C20.6182 212.128 19.8395 211.808 19.2849 211.168C18.7409 210.517 18.4689 209.605 18.4689 208.432C18.4689 207.195 18.7569 206.24 19.3329 205.568C19.9195 204.885 20.7462 204.544 21.8129 204.544ZM21.7329 205.44C21.0609 205.44 20.5489 205.669 20.1969 206.128C19.8449 206.587 19.6689 207.259 19.6689 208.144C19.6689 209.168 19.8395 209.936 20.1809 210.448C20.5329 210.96 21.0395 211.216 21.7009 211.216C22.3729 211.216 22.8849 210.992 23.2369 210.544C23.5889 210.096 23.7649 209.424 23.7649 208.528C23.7649 207.515 23.5889 206.747 23.2369 206.224C22.8955 205.701 22.3942 205.44 21.7329 205.44ZM29.2403 211.024C29.5923 211.024 29.9763 210.917 30.3923 210.704L30.5363 210.8L30.4083 211.632C29.8323 211.899 29.2989 212.053 28.8083 212.096C28.2003 211.979 27.7629 211.755 27.4963 211.424C27.2296 211.093 27.0963 210.613 27.0963 209.984L27.1443 208.848L27.1283 205.536H26.1203L26.0563 205.44L26.1363 204.688H27.1123V203.504L28.2163 203.024L28.3443 203.136L28.3123 204.688H30.4883L30.5523 204.784L30.4723 205.536H28.3123L28.2323 209.872C28.2216 210.299 28.2963 210.597 28.4563 210.768C28.6163 210.939 28.8776 211.024 29.2403 211.024ZM32.1256 208.896L32.0776 204.752L33.3096 204.64L33.2776 208.784L33.3096 212H32.0616L32.1256 208.896ZM32.7176 201.392C32.931 201.392 33.1016 201.456 33.2296 201.584C33.3576 201.712 33.4216 201.888 33.4216 202.112C33.4216 202.347 33.3523 202.533 33.2136 202.672C33.0856 202.811 32.9043 202.88 32.6696 202.88C32.4456 202.88 32.2696 202.816 32.1416 202.688C32.0243 202.56 31.9656 202.379 31.9656 202.144C31.9656 201.92 32.0296 201.739 32.1576 201.6C32.2963 201.461 32.483 201.392 32.7176 201.392ZM38.6566 204.544C39.6486 204.544 40.4166 204.869 40.9606 205.52C41.5153 206.16 41.7926 207.067 41.7926 208.24C41.7926 209.477 41.5046 210.437 40.9286 211.12C40.3526 211.792 39.5313 212.128 38.4646 212.128C37.462 212.128 36.6833 211.808 36.1286 211.168C35.5846 210.517 35.3126 209.605 35.3126 208.432C35.3126 207.195 35.6006 206.24 36.1766 205.568C36.7633 204.885 37.59 204.544 38.6566 204.544ZM38.5766 205.44C37.9046 205.44 37.3926 205.669 37.0406 206.128C36.6886 206.587 36.5126 207.259 36.5126 208.144C36.5126 209.168 36.6833 209.936 37.0246 210.448C37.3766 210.96 37.8833 211.216 38.5446 211.216C39.2166 211.216 39.7286 210.992 40.0806 210.544C40.4326 210.096 40.6086 209.424 40.6086 208.528C40.6086 207.515 40.4326 206.747 40.0806 206.224C39.7393 205.701 39.238 205.44 38.5766 205.44ZM48.2478 207.024C48.2584 206.587 48.1571 206.245 47.9438 206C47.7304 205.755 47.4158 205.632 46.9998 205.632C46.3278 205.632 45.6024 206.011 44.8238 206.768V208.784L44.8878 212H43.6238L43.7038 208.896L43.6398 204.752L44.8398 204.64V205.712H44.9358C45.5971 205.125 46.2744 204.747 46.9678 204.576C47.7678 204.576 48.3758 204.763 48.7918 205.136C49.2184 205.509 49.4264 206.043 49.4158 206.736L49.3838 208.816L49.4478 212H48.1678L48.2478 207.024Z" fill="#333333"/>
<path d="M178.664 161.856C179.368 163.019 180.253 164.299 181.32 165.696L181.304 165.856C180.92 166.005 180.525 166.101 180.12 166.144L179.944 166.032C179.069 164.72 178.285 163.44 177.592 162.192H175.72V162.8L175.784 166H174.488L174.568 162.912L174.488 155.744L177.624 155.728C178.627 155.728 179.4 155.984 179.944 156.496C180.499 156.997 180.776 157.717 180.776 158.656C180.776 159.36 180.589 159.995 180.216 160.56C179.853 161.115 179.336 161.547 178.664 161.856ZM175.736 161.104L177.656 161.152C178.851 160.811 179.448 160.016 179.448 158.768C179.448 158.117 179.272 157.632 178.92 157.312C178.568 156.981 178.04 156.805 177.336 156.784L175.784 156.832L175.736 161.104ZM183.153 162.288V162.32C183.153 163.216 183.356 163.904 183.761 164.384C184.166 164.864 184.742 165.104 185.489 165.104C185.862 165.104 186.236 165.045 186.609 164.928C186.982 164.8 187.324 164.624 187.633 164.4L187.761 164.496L187.569 165.584C186.822 165.947 186.076 166.128 185.329 166.128C184.284 166.128 183.462 165.797 182.865 165.136C182.268 164.464 181.969 163.547 181.969 162.384C181.969 161.211 182.268 160.277 182.865 159.584C183.462 158.891 184.268 158.544 185.281 158.544C186.134 158.544 186.796 158.789 187.265 159.28C187.734 159.76 187.969 160.432 187.969 161.296C187.969 161.584 187.948 161.856 187.905 162.112L187.745 162.272L183.153 162.288ZM185.281 159.44C184.748 159.44 184.3 159.616 183.937 159.968C183.585 160.309 183.35 160.795 183.233 161.424L186.769 161.36L186.801 161.136C186.801 160.592 186.668 160.176 186.401 159.888C186.145 159.589 185.772 159.44 185.281 159.44ZM192.592 158.544C192.923 158.544 193.264 158.587 193.616 158.672C193.979 158.747 194.293 158.848 194.56 158.976L194.336 160.08L194.192 160.128C193.637 159.765 193.088 159.584 192.544 159.584C191.915 159.584 191.424 159.824 191.072 160.304C190.72 160.784 190.544 161.456 190.544 162.32C190.544 163.184 190.725 163.867 191.088 164.368C191.461 164.859 191.973 165.104 192.624 165.104C192.912 165.104 193.211 165.056 193.52 164.96C193.84 164.864 194.139 164.731 194.416 164.56L194.56 164.64L194.416 165.712C193.765 165.989 193.115 166.128 192.464 166.128C191.493 166.128 190.731 165.797 190.176 165.136C189.621 164.464 189.344 163.547 189.344 162.384C189.344 161.2 189.632 160.267 190.208 159.584C190.795 158.891 191.589 158.544 192.592 158.544ZM196.188 162.896L196.14 158.752L197.372 158.64L197.34 162.784L197.372 166H196.124L196.188 162.896ZM196.78 155.392C196.993 155.392 197.164 155.456 197.292 155.584C197.42 155.712 197.484 155.888 197.484 156.112C197.484 156.347 197.415 156.533 197.276 156.672C197.148 156.811 196.967 156.88 196.732 156.88C196.508 156.88 196.332 156.816 196.204 156.688C196.087 156.56 196.028 156.379 196.028 156.144C196.028 155.92 196.092 155.739 196.22 155.6C196.359 155.461 196.545 155.392 196.78 155.392ZM203.311 158.592C204.228 158.592 204.932 158.896 205.423 159.504C205.914 160.112 206.159 160.981 206.159 162.112C206.159 163.392 205.85 164.384 205.231 165.088C204.612 165.781 203.732 166.128 202.591 166.128C202.143 166.128 201.679 166.08 201.199 165.984L201.231 168.96H199.983L200.063 162.896L199.983 158.752L201.199 158.64L201.183 159.68H201.295C201.668 159.371 202.004 159.136 202.303 158.976C202.602 158.816 202.938 158.688 203.311 158.592ZM202.751 165.2C203.455 165.2 203.999 164.955 204.383 164.464C204.767 163.973 204.959 163.275 204.959 162.368C204.959 161.483 204.804 160.805 204.495 160.336C204.196 159.867 203.764 159.632 203.199 159.632C202.868 159.632 202.538 159.723 202.207 159.904C201.887 160.085 201.546 160.368 201.183 160.752L201.167 162.784L201.183 164.784C201.706 165.061 202.228 165.2 202.751 165.2ZM208.7 162.288V162.32C208.7 163.216 208.902 163.904 209.308 164.384C209.713 164.864 210.289 165.104 211.036 165.104C211.409 165.104 211.782 165.045 212.156 164.928C212.529 164.8 212.87 164.624 213.18 164.4L213.308 164.496L213.116 165.584C212.369 165.947 211.622 166.128 210.876 166.128C209.83 166.128 209.009 165.797 208.412 165.136C207.814 164.464 207.516 163.547 207.516 162.384C207.516 161.211 207.814 160.277 208.412 159.584C209.009 158.891 209.814 158.544 210.828 158.544C211.681 158.544 212.342 158.789 212.812 159.28C213.281 159.76 213.516 160.432 213.516 161.296C213.516 161.584 213.494 161.856 213.452 162.112L213.292 162.272L208.7 162.288ZM210.828 159.44C210.294 159.44 209.846 159.616 209.484 159.968C209.132 160.309 208.897 160.795 208.78 161.424L212.316 161.36L212.348 161.136C212.348 160.592 212.214 160.176 211.948 159.888C211.692 159.589 211.318 159.44 210.828 159.44ZM218.219 162.896L218.171 158.752L219.403 158.64L219.371 162.784L219.403 166H218.155L218.219 162.896ZM218.811 155.392C219.025 155.392 219.195 155.456 219.323 155.584C219.451 155.712 219.515 155.888 219.515 156.112C219.515 156.347 219.446 156.533 219.307 156.672C219.179 156.811 218.998 156.88 218.763 156.88C218.539 156.88 218.363 156.816 218.235 156.688C218.118 156.56 218.059 156.379 218.059 156.144C218.059 155.92 218.123 155.739 218.251 155.6C218.39 155.461 218.577 155.392 218.811 155.392ZM226.638 161.024C226.649 160.587 226.548 160.245 226.334 160C226.121 159.755 225.806 159.632 225.39 159.632C224.718 159.632 223.993 160.011 223.214 160.768V162.784L223.278 166H222.014L222.094 162.896L222.03 158.752L223.23 158.64V159.712H223.326C223.988 159.125 224.665 158.747 225.358 158.576C226.158 158.576 226.766 158.763 227.182 159.136C227.609 159.509 227.817 160.043 227.806 160.736L227.774 162.816L227.838 166H226.558L226.638 161.024ZM233.18 154.736C233.564 154.736 233.98 154.784 234.428 154.88L234.332 155.872L234.236 155.952C233.852 155.76 233.463 155.664 233.068 155.664C232.652 155.664 232.332 155.797 232.108 156.064C231.884 156.32 231.767 156.704 231.756 157.216L231.74 158.688H233.66L233.708 158.784L233.628 159.536H231.724L231.692 162.784L231.772 166H230.508L230.604 162.88L230.572 159.536H229.468L229.404 159.44L229.484 158.688H230.572L230.556 157.408C230.545 156.544 230.769 155.883 231.228 155.424C231.687 154.965 232.337 154.736 233.18 154.736ZM237.407 158.544C238.399 158.544 239.167 158.869 239.711 159.52C240.265 160.16 240.543 161.067 240.543 162.24C240.543 163.477 240.255 164.437 239.679 165.12C239.103 165.792 238.281 166.128 237.215 166.128C236.212 166.128 235.433 165.808 234.879 165.168C234.335 164.517 234.063 163.605 234.063 162.432C234.063 161.195 234.351 160.24 234.927 159.568C235.513 158.885 236.34 158.544 237.407 158.544ZM237.327 159.44C236.655 159.44 236.143 159.669 235.791 160.128C235.439 160.587 235.263 161.259 235.263 162.144C235.263 163.168 235.433 163.936 235.775 164.448C236.127 164.96 236.633 165.216 237.295 165.216C237.967 165.216 238.479 164.992 238.831 164.544C239.183 164.096 239.359 163.424 239.359 162.528C239.359 161.515 239.183 160.747 238.831 160.224C238.489 159.701 237.988 159.44 237.327 159.44ZM247.811 158.544C248.141 158.544 248.483 158.587 248.835 158.672C249.197 158.747 249.512 158.848 249.779 158.976L249.555 160.08L249.411 160.128C248.856 159.765 248.307 159.584 247.763 159.584C247.133 159.584 246.643 159.824 246.291 160.304C245.939 160.784 245.763 161.456 245.763 162.32C245.763 163.184 245.944 163.867 246.307 164.368C246.68 164.859 247.192 165.104 247.843 165.104C248.131 165.104 248.429 165.056 248.739 164.96C249.059 164.864 249.357 164.731 249.635 164.56L249.779 164.64L249.635 165.712C248.984 165.989 248.333 166.128 247.683 166.128C246.712 166.128 245.949 165.797 245.395 165.136C244.84 164.464 244.563 163.547 244.563 162.384C244.563 161.2 244.851 160.267 245.427 159.584C246.013 158.891 246.808 158.544 247.811 158.544ZM252.575 162.784L252.655 166H251.391L251.487 162.88L251.407 154.88L252.671 154.768L252.575 162.784ZM258.016 158.544C259.008 158.544 259.776 158.869 260.32 159.52C260.875 160.16 261.152 161.067 261.152 162.24C261.152 163.477 260.864 164.437 260.288 165.12C259.712 165.792 258.891 166.128 257.824 166.128C256.821 166.128 256.043 165.808 255.488 165.168C254.944 164.517 254.672 163.605 254.672 162.432C254.672 161.195 254.96 160.24 255.536 159.568C256.123 158.885 256.949 158.544 258.016 158.544ZM257.936 159.44C257.264 159.44 256.752 159.669 256.4 160.128C256.048 160.587 255.872 161.259 255.872 162.144C255.872 163.168 256.043 163.936 256.384 164.448C256.736 164.96 257.243 165.216 257.904 165.216C258.576 165.216 259.088 164.992 259.44 164.544C259.792 164.096 259.968 163.424 259.968 162.528C259.968 161.515 259.792 160.747 259.44 160.224C259.099 159.701 258.597 159.44 257.936 159.44ZM265.139 158.56C265.747 158.56 266.334 158.677 266.899 158.912L266.723 159.952L266.531 160C265.998 159.648 265.486 159.472 264.995 159.472C264.633 159.472 264.339 159.573 264.115 159.776C263.891 159.979 263.779 160.224 263.779 160.512C263.779 160.8 263.891 161.035 264.115 161.216C264.35 161.387 264.707 161.584 265.187 161.808C265.603 162 265.934 162.176 266.179 162.336C266.435 162.485 266.654 162.688 266.835 162.944C267.017 163.2 267.107 163.515 267.107 163.888C267.107 164.283 267.006 164.651 266.803 164.992C266.601 165.333 266.302 165.611 265.907 165.824C265.513 166.027 265.043 166.128 264.499 166.128C263.753 166.128 263.043 165.952 262.371 165.6L262.531 164.512L262.675 164.416C262.974 164.672 263.294 164.869 263.635 165.008C263.987 165.147 264.318 165.216 264.627 165.216C265.022 165.216 265.342 165.109 265.587 164.896C265.833 164.672 265.955 164.411 265.955 164.112C265.955 163.824 265.838 163.595 265.603 163.424C265.379 163.243 265.027 163.04 264.547 162.816C264.131 162.624 263.795 162.453 263.539 162.304C263.283 162.144 263.065 161.931 262.883 161.664C262.702 161.397 262.611 161.067 262.611 160.672C262.611 160.053 262.835 159.547 263.283 159.152C263.742 158.757 264.361 158.56 265.139 158.56ZM269.637 162.288V162.32C269.637 163.216 269.84 163.904 270.245 164.384C270.651 164.864 271.227 165.104 271.973 165.104C272.347 165.104 272.72 165.045 273.093 164.928C273.467 164.8 273.808 164.624 274.117 164.4L274.245 164.496L274.053 165.584C273.307 165.947 272.56 166.128 271.813 166.128C270.768 166.128 269.947 165.797 269.349 165.136C268.752 164.464 268.453 163.547 268.453 162.384C268.453 161.211 268.752 160.277 269.349 159.584C269.947 158.891 270.752 158.544 271.765 158.544C272.619 158.544 273.28 158.789 273.749 159.28C274.219 159.76 274.453 160.432 274.453 161.296C274.453 161.584 274.432 161.856 274.389 162.112L274.229 162.272L269.637 162.288ZM271.765 159.44C271.232 159.44 270.784 159.616 270.421 159.968C270.069 160.309 269.835 160.795 269.717 161.424L273.253 161.36L273.285 161.136C273.285 160.592 273.152 160.176 272.885 159.888C272.629 159.589 272.256 159.44 271.765 159.44ZM278.436 158.56C279.044 158.56 279.631 158.677 280.196 158.912L280.02 159.952L279.828 160C279.295 159.648 278.783 159.472 278.292 159.472C277.93 159.472 277.636 159.573 277.412 159.776C277.188 159.979 277.076 160.224 277.076 160.512C277.076 160.8 277.188 161.035 277.412 161.216C277.647 161.387 278.004 161.584 278.484 161.808C278.9 162 279.231 162.176 279.476 162.336C279.732 162.485 279.951 162.688 280.132 162.944C280.314 163.2 280.404 163.515 280.404 163.888C280.404 164.283 280.303 164.651 280.1 164.992C279.898 165.333 279.599 165.611 279.204 165.824C278.81 166.027 278.34 166.128 277.796 166.128C277.05 166.128 276.34 165.952 275.668 165.6L275.828 164.512L275.972 164.416C276.271 164.672 276.591 164.869 276.932 165.008C277.284 165.147 277.615 165.216 277.924 165.216C278.319 165.216 278.639 165.109 278.884 164.896C279.13 164.672 279.252 164.411 279.252 164.112C279.252 163.824 279.135 163.595 278.9 163.424C278.676 163.243 278.324 163.04 277.844 162.816C277.428 162.624 277.092 162.453 276.836 162.304C276.58 162.144 276.362 161.931 276.18 161.664C275.999 161.397 275.908 161.067 275.908 160.672C275.908 160.053 276.132 159.547 276.58 159.152C277.039 158.757 277.658 158.56 278.436 158.56ZM287.735 158.544C288.727 158.544 289.495 158.869 290.039 159.52C290.593 160.16 290.871 161.067 290.871 162.24C290.871 163.477 290.583 164.437 290.007 165.12C289.431 165.792 288.609 166.128 287.543 166.128C286.54 166.128 285.761 165.808 285.207 165.168C284.663 164.517 284.391 163.605 284.391 162.432C284.391 161.195 284.679 160.24 285.255 159.568C285.841 158.885 286.668 158.544 287.735 158.544ZM287.655 159.44C286.983 159.44 286.471 159.669 286.119 160.128C285.767 160.587 285.591 161.259 285.591 162.144C285.591 163.168 285.761 163.936 286.103 164.448C286.455 164.96 286.961 165.216 287.623 165.216C288.295 165.216 288.807 164.992 289.159 164.544C289.511 164.096 289.687 163.424 289.687 162.528C289.687 161.515 289.511 160.747 289.159 160.224C288.817 159.701 288.316 159.44 287.655 159.44ZM297.326 161.024C297.337 160.587 297.235 160.245 297.022 160C296.809 159.755 296.494 159.632 296.078 159.632C295.406 159.632 294.681 160.011 293.902 160.768V162.784L293.966 166H292.702L292.782 162.896L292.718 158.752L293.918 158.64V159.712H294.014C294.675 159.125 295.353 158.747 296.046 158.576C296.846 158.576 297.454 158.763 297.87 159.136C298.297 159.509 298.505 160.043 298.494 160.736L298.462 162.816L298.526 166H297.246L297.326 161.024ZM178.968 184.024C178.979 183.587 178.877 183.245 178.664 183C178.451 182.755 178.136 182.632 177.72 182.632C177.016 182.632 176.296 183.011 175.56 183.768L175.528 185.784L175.608 189H174.344L174.44 185.88L174.36 177.88L175.624 177.768L175.56 182.712H175.656C176.317 182.125 176.995 181.747 177.688 181.576C178.499 181.576 179.112 181.763 179.528 182.136C179.944 182.509 180.147 183.043 180.136 183.736L180.104 185.816L180.168 189H178.888L178.968 184.024ZM185.329 181.544C186.321 181.544 187.089 181.869 187.633 182.52C188.187 183.16 188.465 184.067 188.465 185.24C188.465 186.477 188.177 187.437 187.601 188.12C187.025 188.792 186.203 189.128 185.137 189.128C184.134 189.128 183.355 188.808 182.801 188.168C182.257 187.517 181.985 186.605 181.985 185.432C181.985 184.195 182.273 183.24 182.849 182.568C183.435 181.885 184.262 181.544 185.329 181.544ZM185.249 182.44C184.577 182.44 184.065 182.669 183.713 183.128C183.361 183.587 183.185 184.259 183.185 185.144C183.185 186.168 183.355 186.936 183.697 187.448C184.049 187.96 184.555 188.216 185.217 188.216C185.889 188.216 186.401 187.992 186.753 187.544C187.105 187.096 187.281 186.424 187.281 185.528C187.281 184.515 187.105 183.747 186.753 183.224C186.411 182.701 185.91 182.44 185.249 182.44ZM193.656 181.656C193.784 181.656 193.922 181.667 194.072 181.688V182.92L193.928 182.968C193.746 182.915 193.549 182.888 193.336 182.888C192.984 182.888 192.658 183.032 192.36 183.32C192.072 183.597 191.784 184.045 191.496 184.664L191.48 185.784L191.56 189H190.296L190.376 185.896L190.312 181.752L191.512 181.64L191.496 183.144H191.592C191.89 182.611 192.221 182.232 192.584 182.008C192.946 181.773 193.304 181.656 193.656 181.656ZM195.548 185.896L195.5 181.752L196.732 181.64L196.7 185.784L196.732 189H195.484L195.548 185.896ZM196.14 178.392C196.353 178.392 196.524 178.456 196.652 178.584C196.78 178.712 196.844 178.888 196.844 179.112C196.844 179.347 196.774 179.533 196.636 179.672C196.508 179.811 196.326 179.88 196.092 179.88C195.868 179.88 195.692 179.816 195.564 179.688C195.446 179.56 195.388 179.379 195.388 179.144C195.388 178.92 195.452 178.739 195.58 178.6C195.718 178.461 195.905 178.392 196.14 178.392ZM200.127 181.672H203.407L204.015 181.656L204.047 182.424L199.951 188.104H202.847L204.047 187.992L204.127 188.104L204.015 189.032L202.543 189H199.343L198.59 189.032V188.264L202.703 182.552H199.935L198.799 182.68L198.703 182.568L198.815 181.64L200.127 181.672ZM208.454 181.544C209.446 181.544 210.214 181.869 210.758 182.52C211.312 183.16 211.59 184.067 211.59 185.24C211.59 186.477 211.302 187.437 210.726 188.12C210.15 188.792 209.328 189.128 208.262 189.128C207.259 189.128 206.48 188.808 205.926 188.168C205.382 187.517 205.11 186.605 205.11 185.432C205.11 184.195 205.398 183.24 205.974 182.568C206.56 181.885 207.387 181.544 208.454 181.544ZM208.374 182.44C207.702 182.44 207.19 182.669 206.838 183.128C206.486 183.587 206.31 184.259 206.31 185.144C206.31 186.168 206.48 186.936 206.822 187.448C207.174 187.96 207.68 188.216 208.342 188.216C209.014 188.216 209.526 187.992 209.878 187.544C210.23 187.096 210.406 186.424 210.406 185.528C210.406 184.515 210.23 183.747 209.878 183.224C209.536 182.701 209.035 182.44 208.374 182.44ZM218.045 184.024C218.055 183.587 217.954 183.245 217.741 183C217.527 182.755 217.213 182.632 216.797 182.632C216.125 182.632 215.399 183.011 214.621 183.768V185.784L214.685 189H213.421L213.501 185.896L213.437 181.752L214.637 181.64V182.712H214.733C215.394 182.125 216.071 181.747 216.765 181.576C217.565 181.576 218.173 181.763 218.589 182.136C219.015 182.509 219.223 183.043 219.213 183.736L219.181 185.816L219.245 189H217.965L218.045 184.024ZM223.975 188.024C224.327 188.024 224.711 187.917 225.127 187.704L225.271 187.8L225.143 188.632C224.567 188.899 224.033 189.053 223.543 189.096C222.935 188.979 222.497 188.755 222.231 188.424C221.964 188.093 221.831 187.613 221.831 186.984L221.879 185.848L221.863 182.536H220.855L220.791 182.44L220.871 181.688H221.847V180.504L222.951 180.024L223.079 180.136L223.047 181.688H225.223L225.287 181.784L225.207 182.536H223.047L222.967 186.872C222.956 187.299 223.031 187.597 223.191 187.768C223.351 187.939 223.612 188.024 223.975 188.024ZM229.196 181.544C229.889 181.544 230.433 181.715 230.828 182.056C231.233 182.397 231.436 182.867 231.436 183.464C231.436 183.645 231.404 184.301 231.34 185.432C231.276 186.563 231.244 187.224 231.244 187.416C231.244 187.651 231.281 187.816 231.356 187.912C231.431 187.997 231.559 188.04 231.74 188.04C231.9 188.04 232.081 188.008 232.284 187.944L232.412 188.056L232.284 188.776C231.975 188.957 231.671 189.064 231.372 189.096C231.041 189.064 230.775 188.947 230.572 188.744C230.38 188.541 230.279 188.264 230.268 187.912H230.156C229.58 188.499 229.009 188.899 228.444 189.112C227.729 189.112 227.169 188.936 226.764 188.584C226.369 188.221 226.172 187.731 226.172 187.112C226.172 186.643 226.295 186.269 226.54 185.992C226.796 185.715 227.169 185.517 227.66 185.4L230.252 184.792L230.268 183.752C230.268 183.336 230.156 183.016 229.932 182.792C229.719 182.568 229.409 182.456 229.004 182.456C228.641 182.456 228.279 182.541 227.916 182.712C227.553 182.883 227.164 183.149 226.748 183.512L226.62 183.448L226.46 182.536C227.345 181.875 228.257 181.544 229.196 181.544ZM227.916 186.168C227.703 186.232 227.548 186.323 227.452 186.44C227.356 186.547 227.308 186.712 227.308 186.936C227.308 187.288 227.404 187.565 227.596 187.768C227.799 187.96 228.065 188.056 228.396 188.056C228.983 188.056 229.58 187.677 230.188 186.92L230.236 185.608L227.916 186.168ZM235.419 185.784L235.499 189H234.235L234.331 185.88L234.251 177.88L235.515 177.768L235.419 185.784ZM246.252 185.784L246.3 187.432C246.311 187.656 246.348 187.816 246.412 187.912C246.476 187.997 246.594 188.04 246.764 188.04C246.935 188.04 247.116 188.008 247.308 187.944L247.436 188.056L247.308 188.776C247.02 188.957 246.722 189.064 246.412 189.096C246.082 189.064 245.82 188.952 245.628 188.76C245.447 188.568 245.335 188.307 245.292 187.976H245.18C244.86 188.253 244.572 188.477 244.316 188.648C244.06 188.808 243.767 188.952 243.436 189.08C242.38 189.08 241.57 188.76 241.004 188.12C240.439 187.469 240.156 186.547 240.156 185.352C240.156 184.147 240.471 183.213 241.1 182.552C241.73 181.88 242.599 181.544 243.708 181.544C244.21 181.544 244.679 181.597 245.116 181.704L245.1 177.88L246.364 177.768L246.252 185.784ZM243.564 182.44C242.882 182.44 242.343 182.675 241.948 183.144C241.554 183.603 241.356 184.269 241.356 185.144C241.356 186.051 241.532 186.755 241.884 187.256C242.247 187.757 242.743 188.008 243.372 188.008C243.671 188.008 243.959 187.933 244.236 187.784C244.524 187.635 244.823 187.384 245.132 187.032L245.164 185.88L245.116 182.84C244.551 182.573 244.034 182.44 243.564 182.44ZM252.406 181.656C252.534 181.656 252.672 181.667 252.822 181.688V182.92L252.678 182.968C252.496 182.915 252.299 182.888 252.086 182.888C251.734 182.888 251.408 183.032 251.11 183.32C250.822 183.597 250.534 184.045 250.246 184.664L250.23 185.784L250.31 189H249.046L249.126 185.896L249.062 181.752L250.262 181.64L250.246 183.144H250.342C250.64 182.611 250.971 182.232 251.334 182.008C251.696 181.773 252.054 181.656 252.406 181.656ZM256.477 181.544C257.171 181.544 257.715 181.715 258.109 182.056C258.515 182.397 258.717 182.867 258.717 183.464C258.717 183.645 258.685 184.301 258.621 185.432C258.557 186.563 258.525 187.224 258.525 187.416C258.525 187.651 258.563 187.816 258.637 187.912C258.712 187.997 258.84 188.04 259.021 188.04C259.181 188.04 259.363 188.008 259.565 187.944L259.693 188.056L259.565 188.776C259.256 188.957 258.952 189.064 258.653 189.096C258.323 189.064 258.056 188.947 257.853 188.744C257.661 188.541 257.56 188.264 257.549 187.912H257.437C256.861 188.499 256.291 188.899 255.725 189.112C255.011 189.112 254.451 188.936 254.045 188.584C253.651 188.221 253.453 187.731 253.453 187.112C253.453 186.643 253.576 186.269 253.821 185.992C254.077 185.715 254.451 185.517 254.941 185.4L257.533 184.792L257.549 183.752C257.549 183.336 257.437 183.016 257.213 182.792C257 182.568 256.691 182.456 256.285 182.456C255.923 182.456 255.56 182.541 255.197 182.712C254.835 182.883 254.445 183.149 254.029 183.512L253.901 183.448L253.741 182.536C254.627 181.875 255.539 181.544 256.477 181.544ZM255.197 186.168C254.984 186.232 254.829 186.323 254.733 186.44C254.637 186.547 254.589 186.712 254.589 186.936C254.589 187.288 254.685 187.565 254.877 187.768C255.08 187.96 255.347 188.056 255.677 188.056C256.264 188.056 256.861 187.677 257.469 186.92L257.517 185.608L255.197 186.168ZM267.932 182.296C267.601 182.392 267.111 182.504 266.46 182.632L266.428 182.696C266.663 183.069 266.78 183.523 266.78 184.056C266.78 184.835 266.519 185.453 265.996 185.912C265.484 186.371 264.785 186.6 263.9 186.6C263.548 186.6 263.217 186.557 262.908 186.472C262.727 186.611 262.604 186.723 262.54 186.808C262.476 186.893 262.444 186.989 262.444 187.096C262.444 187.32 262.583 187.48 262.86 187.576C263.137 187.661 263.591 187.752 264.22 187.848C264.839 187.933 265.345 188.029 265.74 188.136C266.135 188.243 266.476 188.419 266.764 188.664C267.052 188.899 267.196 189.229 267.196 189.656C267.196 190.104 267.041 190.515 266.732 190.888C266.433 191.261 266.017 191.555 265.484 191.768C264.961 191.981 264.385 192.088 263.756 192.088C262.903 192.088 262.236 191.891 261.756 191.496C261.287 191.112 261.052 190.611 261.052 189.992C261.308 189.48 261.777 189.016 262.46 188.6V188.52C262.076 188.403 261.777 188.248 261.564 188.056C261.361 187.853 261.26 187.581 261.26 187.24C261.484 186.867 261.809 186.541 262.236 186.264V186.2C261.895 185.987 261.633 185.709 261.452 185.368C261.281 185.016 261.196 184.611 261.196 184.152C261.196 183.352 261.452 182.728 261.964 182.28C262.487 181.821 263.18 181.592 264.044 181.592C264.609 181.592 265.089 181.688 265.484 181.88C266.22 181.741 266.993 181.56 267.804 181.336L267.932 181.432V182.296ZM263.964 185.736C264.497 185.736 264.908 185.587 265.196 185.288C265.495 184.989 265.644 184.573 265.644 184.04C265.644 183.528 265.505 183.133 265.228 182.856C264.951 182.579 264.551 182.44 264.028 182.44C263.495 182.44 263.079 182.584 262.78 182.872C262.481 183.16 262.332 183.571 262.332 184.104C262.332 184.616 262.471 185.016 262.748 185.304C263.036 185.592 263.441 185.736 263.964 185.736ZM266.076 189.896C266.076 189.544 265.895 189.299 265.532 189.16C265.18 189.021 264.641 188.899 263.916 188.792L263.404 188.712C262.999 188.957 262.689 189.192 262.476 189.416C262.273 189.64 262.172 189.875 262.172 190.12C262.172 190.429 262.321 190.685 262.62 190.888C262.929 191.091 263.356 191.192 263.9 191.192C264.519 191.192 265.036 191.064 265.452 190.808C265.868 190.563 266.076 190.259 266.076 189.896ZM183.448 207.024C183.459 206.587 183.357 206.245 183.144 206C182.931 205.755 182.616 205.632 182.2 205.632C181.517 205.632 180.808 206 180.072 206.736L180.04 208.816L180.104 212H178.808L178.904 207.024C178.915 206.587 178.813 206.245 178.6 206C178.387 205.755 178.072 205.632 177.656 205.632C176.984 205.632 176.259 206.011 175.48 206.768V208.784L175.544 212H174.28L174.36 208.896L174.296 204.752L175.496 204.64V205.712H175.592C176.253 205.125 176.931 204.747 177.624 204.576C178.221 204.576 178.712 204.683 179.096 204.896C179.48 205.099 179.752 205.397 179.912 205.792H180.008C180.68 205.184 181.4 204.779 182.168 204.576C182.979 204.576 183.592 204.763 184.008 205.136C184.424 205.509 184.627 206.043 184.616 206.736L184.584 208.816L184.648 212H183.368L183.448 207.024ZM189.813 204.544C190.805 204.544 191.573 204.869 192.117 205.52C192.672 206.16 192.949 207.067 192.949 208.24C192.949 209.477 192.661 210.437 192.085 211.12C191.509 211.792 190.688 212.128 189.621 212.128C188.618 212.128 187.84 211.808 187.285 211.168C186.741 210.517 186.469 209.605 186.469 208.432C186.469 207.195 186.757 206.24 187.333 205.568C187.92 204.885 188.746 204.544 189.813 204.544ZM189.733 205.44C189.061 205.44 188.549 205.669 188.197 206.128C187.845 206.587 187.669 207.259 187.669 208.144C187.669 209.168 187.84 209.936 188.181 210.448C188.533 210.96 189.04 211.216 189.701 211.216C190.373 211.216 190.885 210.992 191.237 210.544C191.589 210.096 191.765 209.424 191.765 208.528C191.765 207.515 191.589 206.747 191.237 206.224C190.896 205.701 190.394 205.44 189.733 205.44ZM197.24 211.024C197.592 211.024 197.976 210.917 198.392 210.704L198.536 210.8L198.408 211.632C197.832 211.899 197.299 212.053 196.808 212.096C196.2 211.979 195.763 211.755 195.496 211.424C195.23 211.093 195.096 210.613 195.096 209.984L195.144 208.848L195.128 205.536H194.12L194.056 205.44L194.136 204.688H195.112V203.504L196.216 203.024L196.344 203.136L196.312 204.688H198.488L198.552 204.784L198.472 205.536H196.312L196.232 209.872C196.222 210.299 196.296 210.597 196.456 210.768C196.616 210.939 196.878 211.024 197.24 211.024ZM200.126 208.896L200.078 204.752L201.31 204.64L201.278 208.784L201.31 212H200.062L200.126 208.896ZM200.718 201.392C200.931 201.392 201.102 201.456 201.23 201.584C201.358 201.712 201.422 201.888 201.422 202.112C201.422 202.347 201.352 202.533 201.214 202.672C201.086 202.811 200.904 202.88 200.67 202.88C200.446 202.88 200.27 202.816 200.142 202.688C200.024 202.56 199.966 202.379 199.966 202.144C199.966 201.92 200.03 201.739 200.158 201.6C200.296 201.461 200.483 201.392 200.718 201.392ZM206.657 204.544C207.649 204.544 208.417 204.869 208.961 205.52C209.515 206.16 209.793 207.067 209.793 208.24C209.793 209.477 209.505 210.437 208.929 211.12C208.353 211.792 207.531 212.128 206.465 212.128C205.462 212.128 204.683 211.808 204.129 211.168C203.585 210.517 203.313 209.605 203.313 208.432C203.313 207.195 203.601 206.24 204.177 205.568C204.763 204.885 205.59 204.544 206.657 204.544ZM206.577 205.44C205.905 205.44 205.393 205.669 205.041 206.128C204.689 206.587 204.513 207.259 204.513 208.144C204.513 209.168 204.683 209.936 205.025 210.448C205.377 210.96 205.883 211.216 206.545 211.216C207.217 211.216 207.729 210.992 208.081 210.544C208.433 210.096 208.609 209.424 208.609 208.528C208.609 207.515 208.433 206.747 208.081 206.224C207.739 205.701 207.238 205.44 206.577 205.44ZM216.248 207.024C216.258 206.587 216.157 206.245 215.944 206C215.73 205.755 215.416 205.632 215 205.632C214.328 205.632 213.602 206.011 212.824 206.768V208.784L212.888 212H211.624L211.704 208.896L211.64 204.752L212.84 204.64V205.712H212.936C213.597 205.125 214.274 204.747 214.968 204.576C215.768 204.576 216.376 204.763 216.792 205.136C217.218 205.509 217.426 206.043 217.416 206.736L217.384 208.816L217.448 212H216.168L216.248 207.024Z" fill="#333333"/>
<circle cx="17" cy="12" r="12" fill="#C50063"/>
<path d="M18.5279 7.76V17H16.6519V10.112C16.6519 9.96267 16.6565 9.846 16.6659 9.762C16.3299 10.07 15.9659 10.3313 15.5739 10.546C15.1912 10.7607 14.8039 10.9053 14.4119 10.98L14.1599 9.356C14.5892 9.30933 15.1025 9.118 15.6999 8.782C16.3065 8.43667 16.7265 8.096 16.9599 7.76H18.5279Z" fill="#F2F2F2"/>
<path d="M173 48V128H288.455" stroke="#BDBDBD" stroke-width="0.5"/>
<g filter="url(#filter1_d)">
<path d="M173 127.333C209.08 127.333 221.756 121.585 228.917 89.0345C236.944 52.5455 259.992 48 288.455 48" stroke="#C50063" stroke-linecap="round"/>
</g>
<circle cx="185" cy="12" r="12" fill="#C50063"/>
<path d="M181.494 15.684C182.624 14.928 183.52 14.2653 184.182 13.696C184.845 13.1267 185.326 12.5993 185.624 12.114C185.923 11.6287 186.072 11.148 186.072 10.672C186.072 10.2333 185.937 9.87867 185.666 9.608C185.405 9.33733 185.041 9.202 184.574 9.202C184.061 9.202 183.655 9.37933 183.356 9.734C183.058 10.0887 182.894 10.5927 182.866 11.246L181.2 10.616C181.266 9.68267 181.611 8.95 182.236 8.418C182.862 7.886 183.678 7.62 184.686 7.62C185.405 7.62 186.012 7.75533 186.506 8.026C187.01 8.29667 187.388 8.656 187.64 9.104C187.892 9.54267 188.018 10.028 188.018 10.56C188.018 11.428 187.692 12.2493 187.038 13.024C186.385 13.7893 185.344 14.6107 183.916 15.488V15.502C184.458 15.4647 185.022 15.446 185.61 15.446H188.158V17H181.494V15.684Z" fill="#F2F2F2"/>
<rect x="5" y="256" width="472" height="1" fill="#F8F8F8"/>
<defs>
<filter id="filter0_d" x="0.5" y="47.5" width="124.455" height="88.3333" filterUnits="userSpaceOnUse" color-interpolation-filters="sRGB">
<feFlood flood-opacity="0" result="BackgroundImageFix"/>
<feColorMatrix in="SourceAlpha" type="matrix" values="0 0 0 0 0 0 0 0 0 0 0 0 0 0 0 0 0 0 127 0"/>
<feOffset dy="4"/>
<feGaussianBlur stdDeviation="2"/>
<feColorMatrix type="matrix" values="0 0 0 0 0.768627 0 0 0 0 0.768627 0 0 0 0 0.768627 0 0 0 0.5 0"/>
<feBlend mode="normal" in2="BackgroundImageFix" result="effect1_dropShadow"/>
<feBlend mode="normal" in="SourceGraphic" in2="effect1_dropShadow" result="shape"/>
</filter>
<filter id="filter1_d" x="168.5" y="47.5" width="124.455" height="88.3333" filterUnits="userSpaceOnUse" color-interpolation-filters="sRGB">
<feFlood flood-opacity="0" result="BackgroundImageFix"/>
<feColorMatrix in="SourceAlpha" type="matrix" values="0 0 0 0 0 0 0 0 0 0 0 0 0 0 0 0 0 0 127 0"/>
<feOffset dy="4"/>
<feGaussianBlur stdDeviation="2"/>
<feColorMatrix type="matrix" values="0 0 0 0 0.768627 0 0 0 0 0.768627 0 0 0 0 0.768627 0 0 0 0.5 0"/>
<feBlend mode="normal" in2="BackgroundImageFix" result="effect1_dropShadow"/>
<feBlend mode="normal" in="SourceGraphic" in2="effect1_dropShadow" result="shape"/>
</filter>
</defs>
</svg>
