<svg width="477" height="256" viewBox="0 0 477 256" fill="none" xmlns="http://www.w3.org/2000/svg">
<rect x="5" y="255" width="472" height="1" fill="#F8F8F8"/>
<path d="M5 48V128H120.455" stroke="#BDBDBD" stroke-width="0.5"/>
<g filter="url(#filter0_d)">
<path d="M5 127.333C5 94.1368 32.0874 73.0004 46.7413 64.3641C60.6405 56.1725 92.701 48 120.455 48" stroke="#C50063" stroke-linecap="round"/>
</g>
<path d="M12.504 155.872L12.408 156.864L10.616 156.768H9.576L9.528 162.8L9.576 166H8.28L8.376 162.912L8.296 156.768H7.256L5.432 156.864L5.352 156.736L5.448 155.744H12.408L12.504 155.872ZM15.4773 158.544C16.1706 158.544 16.7146 158.715 17.1093 159.056C17.5146 159.397 17.7173 159.867 17.7173 160.464C17.7173 160.645 17.6853 161.301 17.6213 162.432C17.5573 163.563 17.5253 164.224 17.5253 164.416C17.5253 164.651 17.5626 164.816 17.6373 164.912C17.7119 164.997 17.8399 165.04 18.0213 165.04C18.1813 165.04 18.3626 165.008 18.5653 164.944L18.6933 165.056L18.5653 165.776C18.2559 165.957 17.9519 166.064 17.6533 166.096C17.3226 166.064 17.0559 165.947 16.8533 165.744C16.6613 165.541 16.5599 165.264 16.5493 164.912H16.4373C15.8613 165.499 15.2906 165.899 14.7253 166.112C14.0106 166.112 13.4506 165.936 13.0453 165.584C12.6506 165.221 12.4533 164.731 12.4533 164.112C12.4533 163.643 12.5759 163.269 12.8213 162.992C13.0773 162.715 13.4506 162.517 13.9413 162.4L16.5333 161.792L16.5493 160.752C16.5493 160.336 16.4373 160.016 16.2133 159.792C15.9999 159.568 15.6906 159.456 15.2853 159.456C14.9226 159.456 14.5599 159.541 14.1973 159.712C13.8346 159.883 13.4453 160.149 13.0293 160.512L12.9013 160.448L12.7413 159.536C13.6266 158.875 14.5386 158.544 15.4773 158.544ZM14.1973 163.168C13.9839 163.232 13.8293 163.323 13.7333 163.44C13.6373 163.547 13.5893 163.712 13.5893 163.936C13.5893 164.288 13.6853 164.565 13.8773 164.768C14.0799 164.96 14.3466 165.056 14.6773 165.056C15.2639 165.056 15.8613 164.677 16.4693 163.92L16.5173 162.608L14.1973 163.168ZM23.7799 158.592C24.6972 158.592 25.4012 158.896 25.8919 159.504C26.3825 160.112 26.6279 160.981 26.6279 162.112C26.6279 163.392 26.3185 164.384 25.6999 165.088C25.0812 165.781 24.2012 166.128 23.0599 166.128C22.6119 166.128 22.1479 166.08 21.6679 165.984L21.6999 168.96H20.4519L20.5319 162.896L20.4519 158.752L21.6679 158.64L21.6519 159.68H21.7639C22.1372 159.371 22.4732 159.136 22.7719 158.976C23.0705 158.816 23.4065 158.688 23.7799 158.592ZM23.2199 165.2C23.9239 165.2 24.4679 164.955 24.8519 164.464C25.2359 163.973 25.4279 163.275 25.4279 162.368C25.4279 161.483 25.2732 160.805 24.9639 160.336C24.6652 159.867 24.2332 159.632 23.6679 159.632C23.3372 159.632 23.0065 159.723 22.6759 159.904C22.3559 160.085 22.0145 160.368 21.6519 160.752L21.6359 162.784L21.6519 164.784C22.1745 165.061 22.6972 165.2 23.2199 165.2ZM31.9205 158.592C32.8378 158.592 33.5418 158.896 34.0325 159.504C34.5232 160.112 34.7685 160.981 34.7685 162.112C34.7685 163.392 34.4592 164.384 33.8405 165.088C33.2218 165.781 32.3418 166.128 31.2005 166.128C30.7525 166.128 30.2885 166.08 29.8085 165.984L29.8405 168.96H28.5925L28.6725 162.896L28.5925 158.752L29.8085 158.64L29.7925 159.68H29.9045C30.2778 159.371 30.6138 159.136 30.9125 158.976C31.2112 158.816 31.5472 158.688 31.9205 158.592ZM31.3605 165.2C32.0645 165.2 32.6085 164.955 32.9925 164.464C33.3765 163.973 33.5685 163.275 33.5685 162.368C33.5685 161.483 33.4138 160.805 33.1045 160.336C32.8058 159.867 32.3738 159.632 31.8085 159.632C31.4778 159.632 31.1472 159.723 30.8165 159.904C30.4965 160.085 30.1552 160.368 29.7925 160.752L29.7765 162.784L29.7925 164.784C30.3152 165.061 30.8378 165.2 31.3605 165.2ZM36.8131 162.896L36.7651 158.752L37.9971 158.64L37.9651 162.784L37.9971 166H36.7491L36.8131 162.896ZM37.4051 155.392C37.6185 155.392 37.7891 155.456 37.9171 155.584C38.0451 155.712 38.1091 155.888 38.1091 156.112C38.1091 156.347 38.0398 156.533 37.9011 156.672C37.7731 156.811 37.5918 156.88 37.3571 156.88C37.1331 156.88 36.9571 156.816 36.8291 156.688C36.7118 156.56 36.6531 156.379 36.6531 156.144C36.6531 155.92 36.7171 155.739 36.8451 155.6C36.9838 155.461 37.1705 155.392 37.4051 155.392ZM45.2321 161.024C45.2428 160.587 45.1415 160.245 44.9281 160C44.7148 159.755 44.4001 159.632 43.9841 159.632C43.3121 159.632 42.5868 160.011 41.8081 160.768V162.784L41.8721 166H40.6081L40.6881 162.896L40.6241 158.752L41.8241 158.64V159.712H41.9201C42.5815 159.125 43.2588 158.747 43.9521 158.576C44.7521 158.576 45.3601 158.763 45.7761 159.136C46.2028 159.509 46.4108 160.043 46.4001 160.736L46.3681 162.816L46.4321 166H45.1521L45.2321 161.024ZM55.3381 159.296C55.0075 159.392 54.5168 159.504 53.8661 159.632L53.8341 159.696C54.0688 160.069 54.1861 160.523 54.1861 161.056C54.1861 161.835 53.9248 162.453 53.4021 162.912C52.8901 163.371 52.1915 163.6 51.3061 163.6C50.9541 163.6 50.6235 163.557 50.3141 163.472C50.1328 163.611 50.0101 163.723 49.9461 163.808C49.8821 163.893 49.8501 163.989 49.8501 164.096C49.8501 164.32 49.9888 164.48 50.2661 164.576C50.5435 164.661 50.9968 164.752 51.6261 164.848C52.2448 164.933 52.7515 165.029 53.1461 165.136C53.5408 165.243 53.8821 165.419 54.1701 165.664C54.4581 165.899 54.6021 166.229 54.6021 166.656C54.6021 167.104 54.4475 167.515 54.1381 167.888C53.8395 168.261 53.4235 168.555 52.8901 168.768C52.3675 168.981 51.7915 169.088 51.1621 169.088C50.3088 169.088 49.6421 168.891 49.1621 168.496C48.6928 168.112 48.4581 167.611 48.4581 166.992C48.7141 166.48 49.1835 166.016 49.8661 165.6V165.52C49.4821 165.403 49.1835 165.248 48.9701 165.056C48.7675 164.853 48.6661 164.581 48.6661 164.24C48.8901 163.867 49.2155 163.541 49.6421 163.264V163.2C49.3008 162.987 49.0395 162.709 48.8581 162.368C48.6875 162.016 48.6021 161.611 48.6021 161.152C48.6021 160.352 48.8581 159.728 49.3701 159.28C49.8928 158.821 50.5861 158.592 51.4501 158.592C52.0155 158.592 52.4955 158.688 52.8901 158.88C53.6261 158.741 54.3995 158.56 55.2101 158.336L55.3381 158.432V159.296ZM51.3701 162.736C51.9035 162.736 52.3141 162.587 52.6021 162.288C52.9008 161.989 53.0501 161.573 53.0501 161.04C53.0501 160.528 52.9115 160.133 52.6341 159.856C52.3568 159.579 51.9568 159.44 51.4341 159.44C50.9008 159.44 50.4848 159.584 50.1861 159.872C49.8875 160.16 49.7381 160.571 49.7381 161.104C49.7381 161.616 49.8768 162.016 50.1541 162.304C50.4421 162.592 50.8475 162.736 51.3701 162.736ZM53.4821 166.896C53.4821 166.544 53.3008 166.299 52.9381 166.16C52.5861 166.021 52.0475 165.899 51.3221 165.792L50.8101 165.712C50.4048 165.957 50.0955 166.192 49.8821 166.416C49.6795 166.64 49.5781 166.875 49.5781 167.12C49.5781 167.429 49.7275 167.685 50.0261 167.888C50.3355 168.091 50.7621 168.192 51.3061 168.192C51.9248 168.192 52.4421 168.064 52.8581 167.808C53.2741 167.563 53.4821 167.259 53.4821 166.896ZM61.5996 165.024C61.9516 165.024 62.3356 164.917 62.7516 164.704L62.8956 164.8L62.7676 165.632C62.1916 165.899 61.6583 166.053 61.1676 166.096C60.5596 165.979 60.1223 165.755 59.8556 165.424C59.589 165.093 59.4556 164.613 59.4556 163.984L59.5036 162.848L59.4876 159.536H58.4796L58.4156 159.44L58.4956 158.688H59.4716V157.504L60.5756 157.024L60.7036 157.136L60.6716 158.688H62.8476L62.9116 158.784L62.8316 159.536H60.6716L60.5916 163.872C60.581 164.299 60.6556 164.597 60.8156 164.768C60.9756 164.939 61.237 165.024 61.5996 165.024ZM69.093 161.024C69.1037 160.587 69.0023 160.245 68.789 160C68.5757 159.755 68.261 159.632 67.845 159.632C67.141 159.632 66.421 160.011 65.685 160.768L65.653 162.784L65.733 166H64.469L64.565 162.88L64.485 154.88L65.749 154.768L65.685 159.712H65.781C66.4423 159.125 67.1197 158.747 67.813 158.576C68.6237 158.576 69.237 158.763 69.653 159.136C70.069 159.509 70.2717 160.043 70.261 160.736L70.229 162.816L70.293 166H69.013L69.093 161.024ZM73.2935 162.288V162.32C73.2935 163.216 73.4962 163.904 73.9015 164.384C74.3068 164.864 74.8828 165.104 75.6295 165.104C76.0028 165.104 76.3762 165.045 76.7495 164.928C77.1228 164.8 77.4642 164.624 77.7735 164.4L77.9015 164.496L77.7095 165.584C76.9628 165.947 76.2162 166.128 75.4695 166.128C74.4242 166.128 73.6028 165.797 73.0055 165.136C72.4082 164.464 72.1095 163.547 72.1095 162.384C72.1095 161.211 72.4082 160.277 73.0055 159.584C73.6028 158.891 74.4082 158.544 75.4215 158.544C76.2748 158.544 76.9362 158.789 77.4055 159.28C77.8748 159.76 78.1095 160.432 78.1095 161.296C78.1095 161.584 78.0882 161.856 78.0455 162.112L77.8855 162.272L73.2935 162.288ZM75.4215 159.44C74.8882 159.44 74.4402 159.616 74.0775 159.968C73.7255 160.309 73.4908 160.795 73.3735 161.424L76.9095 161.36L76.9415 161.136C76.9415 160.592 76.8082 160.176 76.5415 159.888C76.2855 159.589 75.9122 159.44 75.4215 159.44ZM82.8131 162.896L82.7651 158.752L83.9971 158.64L83.9651 162.784L83.9971 166H82.7491L82.8131 162.896ZM83.4051 155.392C83.6185 155.392 83.7891 155.456 83.9171 155.584C84.0451 155.712 84.1091 155.888 84.1091 156.112C84.1091 156.347 84.0398 156.533 83.9011 156.672C83.7731 156.811 83.5918 156.88 83.3571 156.88C83.1331 156.88 82.9571 156.816 82.8291 156.688C82.7118 156.56 82.6531 156.379 82.6531 156.144C82.6531 155.92 82.7171 155.739 82.8451 155.6C82.9838 155.461 83.1705 155.392 83.4051 155.392ZM95.7761 161.024C95.7868 160.587 95.6855 160.245 95.4721 160C95.2588 159.755 94.9441 159.632 94.5281 159.632C93.8455 159.632 93.1361 160 92.4001 160.736L92.3681 162.816L92.4321 166H91.1361L91.2321 161.024C91.2428 160.587 91.1415 160.245 90.9281 160C90.7148 159.755 90.4001 159.632 89.9841 159.632C89.3121 159.632 88.5868 160.011 87.8081 160.768V162.784L87.8721 166H86.6081L86.6881 162.896L86.6241 158.752L87.8241 158.64V159.712H87.9201C88.5815 159.125 89.2588 158.747 89.9521 158.576C90.5495 158.576 91.0401 158.683 91.4241 158.896C91.8081 159.099 92.0801 159.397 92.2401 159.792H92.3361C93.0081 159.184 93.7281 158.779 94.4961 158.576C95.3068 158.576 95.9201 158.763 96.3361 159.136C96.7521 159.509 96.9548 160.043 96.9441 160.736L96.9121 162.816L96.9761 166H95.6961L95.7761 161.024ZM101.821 158.544C102.514 158.544 103.058 158.715 103.453 159.056C103.858 159.397 104.061 159.867 104.061 160.464C104.061 160.645 104.029 161.301 103.965 162.432C103.901 163.563 103.869 164.224 103.869 164.416C103.869 164.651 103.906 164.816 103.981 164.912C104.056 164.997 104.184 165.04 104.365 165.04C104.525 165.04 104.706 165.008 104.909 164.944L105.037 165.056L104.909 165.776C104.6 165.957 104.296 166.064 103.997 166.096C103.666 166.064 103.4 165.947 103.197 165.744C103.005 165.541 102.904 165.264 102.893 164.912H102.781C102.205 165.499 101.634 165.899 101.069 166.112C100.354 166.112 99.7943 165.936 99.389 165.584C98.9943 165.221 98.797 164.731 98.797 164.112C98.797 163.643 98.9197 163.269 99.165 162.992C99.421 162.715 99.7943 162.517 100.285 162.4L102.877 161.792L102.893 160.752C102.893 160.336 102.781 160.016 102.557 159.792C102.344 159.568 102.034 159.456 101.629 159.456C101.266 159.456 100.904 159.541 100.541 159.712C100.178 159.883 99.789 160.149 99.373 160.512L99.245 160.448L99.085 159.536C99.9703 158.875 100.882 158.544 101.821 158.544ZM100.541 163.168C100.328 163.232 100.173 163.323 100.077 163.44C99.981 163.547 99.933 163.712 99.933 163.936C99.933 164.288 100.029 164.565 100.221 164.768C100.424 164.96 100.69 165.056 101.021 165.056C101.608 165.056 102.205 164.677 102.813 163.92L102.861 162.608L100.541 163.168ZM113.276 159.296C112.945 159.392 112.454 159.504 111.804 159.632L111.772 159.696C112.006 160.069 112.124 160.523 112.124 161.056C112.124 161.835 111.862 162.453 111.34 162.912C110.828 163.371 110.129 163.6 109.244 163.6C108.892 163.6 108.561 163.557 108.252 163.472C108.07 163.611 107.948 163.723 107.884 163.808C107.82 163.893 107.788 163.989 107.788 164.096C107.788 164.32 107.926 164.48 108.204 164.576C108.481 164.661 108.934 164.752 109.564 164.848C110.182 164.933 110.689 165.029 111.084 165.136C111.478 165.243 111.82 165.419 112.108 165.664C112.396 165.899 112.54 166.229 112.54 166.656C112.54 167.104 112.385 167.515 112.076 167.888C111.777 168.261 111.361 168.555 110.828 168.768C110.305 168.981 109.729 169.088 109.1 169.088C108.246 169.088 107.58 168.891 107.1 168.496C106.63 168.112 106.396 167.611 106.396 166.992C106.652 166.48 107.121 166.016 107.804 165.6V165.52C107.42 165.403 107.121 165.248 106.908 165.056C106.705 164.853 106.604 164.581 106.604 164.24C106.828 163.867 107.153 163.541 107.58 163.264V163.2C107.238 162.987 106.977 162.709 106.796 162.368C106.625 162.016 106.54 161.611 106.54 161.152C106.54 160.352 106.796 159.728 107.308 159.28C107.83 158.821 108.524 158.592 109.388 158.592C109.953 158.592 110.433 158.688 110.828 158.88C111.564 158.741 112.337 158.56 113.148 158.336L113.276 158.432V159.296ZM109.308 162.736C109.841 162.736 110.252 162.587 110.54 162.288C110.838 161.989 110.988 161.573 110.988 161.04C110.988 160.528 110.849 160.133 110.572 159.856C110.294 159.579 109.894 159.44 109.372 159.44C108.838 159.44 108.422 159.584 108.124 159.872C107.825 160.16 107.676 160.571 107.676 161.104C107.676 161.616 107.814 162.016 108.092 162.304C108.38 162.592 108.785 162.736 109.308 162.736ZM111.42 166.896C111.42 166.544 111.238 166.299 110.876 166.16C110.524 166.021 109.985 165.899 109.26 165.792L108.748 165.712C108.342 165.957 108.033 166.192 107.82 166.416C107.617 166.64 107.516 166.875 107.516 167.12C107.516 167.429 107.665 167.685 107.964 167.888C108.273 168.091 108.7 168.192 109.244 168.192C109.862 168.192 110.38 168.064 110.796 167.808C111.212 167.563 111.42 167.259 111.42 166.896ZM115.169 162.288V162.32C115.169 163.216 115.371 163.904 115.777 164.384C116.182 164.864 116.758 165.104 117.505 165.104C117.878 165.104 118.251 165.045 118.625 164.928C118.998 164.8 119.339 164.624 119.649 164.4L119.777 164.496L119.585 165.584C118.838 165.947 118.091 166.128 117.345 166.128C116.299 166.128 115.478 165.797 114.881 165.136C114.283 164.464 113.985 163.547 113.985 162.384C113.985 161.211 114.283 160.277 114.881 159.584C115.478 158.891 116.283 158.544 117.297 158.544C118.15 158.544 118.811 158.789 119.281 159.28C119.75 159.76 119.985 160.432 119.985 161.296C119.985 161.584 119.963 161.856 119.921 162.112L119.761 162.272L115.169 162.288ZM117.297 159.44C116.763 159.44 116.315 159.616 115.953 159.968C115.601 160.309 115.366 160.795 115.249 161.424L118.785 161.36L118.817 161.136C118.817 160.592 118.683 160.176 118.417 159.888C118.161 159.589 117.787 159.44 117.297 159.44ZM6.856 185.288V185.32C6.856 186.216 7.05867 186.904 7.464 187.384C7.86933 187.864 8.44533 188.104 9.192 188.104C9.56533 188.104 9.93867 188.045 10.312 187.928C10.6853 187.8 11.0267 187.624 11.336 187.4L11.464 187.496L11.272 188.584C10.5253 188.947 9.77867 189.128 9.032 189.128C7.98667 189.128 7.16533 188.797 6.568 188.136C5.97067 187.464 5.672 186.547 5.672 185.384C5.672 184.211 5.97067 183.277 6.568 182.584C7.16533 181.891 7.97067 181.544 8.984 181.544C9.83733 181.544 10.4987 181.789 10.968 182.28C11.4373 182.76 11.672 183.432 11.672 184.296C11.672 184.584 11.6507 184.856 11.608 185.112L11.448 185.272L6.856 185.288ZM8.984 182.44C8.45067 182.44 8.00267 182.616 7.64 182.968C7.288 183.309 7.05333 183.795 6.936 184.424L10.472 184.36L10.504 184.136C10.504 183.592 10.3707 183.176 10.104 182.888C9.848 182.589 9.47467 182.44 8.984 182.44ZM18.279 184.024C18.2897 183.587 18.1883 183.245 17.975 183C17.7617 182.755 17.447 182.632 17.031 182.632C16.359 182.632 15.6337 183.011 14.855 183.768V185.784L14.919 189H13.655L13.735 185.896L13.671 181.752L14.871 181.64V182.712H14.967C15.6283 182.125 16.3057 181.747 16.999 181.576C17.799 181.576 18.407 181.763 18.823 182.136C19.2497 182.509 19.4577 183.043 19.447 183.736L19.415 185.816L19.479 189H18.199L18.279 184.024ZM23.153 185.784L23.233 189H21.969L22.065 185.88L21.985 177.88L23.249 177.768L23.153 185.784ZM28.2741 181.544C28.9675 181.544 29.5115 181.715 29.9061 182.056C30.3115 182.397 30.5141 182.867 30.5141 183.464C30.5141 183.645 30.4821 184.301 30.4181 185.432C30.3541 186.563 30.3221 187.224 30.3221 187.416C30.3221 187.651 30.3595 187.816 30.4341 187.912C30.5088 187.997 30.6368 188.04 30.8181 188.04C30.9781 188.04 31.1595 188.008 31.3621 187.944L31.4901 188.056L31.3621 188.776C31.0528 188.957 30.7488 189.064 30.4501 189.096C30.1195 189.064 29.8528 188.947 29.6501 188.744C29.4581 188.541 29.3568 188.264 29.3461 187.912H29.2341C28.6581 188.499 28.0875 188.899 27.5221 189.112C26.8075 189.112 26.2475 188.936 25.8421 188.584C25.4475 188.221 25.2501 187.731 25.2501 187.112C25.2501 186.643 25.3728 186.269 25.6181 185.992C25.8741 185.715 26.2475 185.517 26.7381 185.4L29.3301 184.792L29.3461 183.752C29.3461 183.336 29.2341 183.016 29.0101 182.792C28.7968 182.568 28.4875 182.456 28.0821 182.456C27.7195 182.456 27.3568 182.541 26.9941 182.712C26.6315 182.883 26.2421 183.149 25.8261 183.512L25.6981 183.448L25.5381 182.536C26.4235 181.875 27.3355 181.544 28.2741 181.544ZM26.9941 186.168C26.7808 186.232 26.6261 186.323 26.5301 186.44C26.4341 186.547 26.3861 186.712 26.3861 186.936C26.3861 187.288 26.4821 187.565 26.6741 187.768C26.8768 187.96 27.1435 188.056 27.4741 188.056C28.0608 188.056 28.6581 187.677 29.2661 186.92L29.3141 185.608L26.9941 186.168ZM36.4525 181.656C36.5805 181.656 36.7192 181.667 36.8685 181.688V182.92L36.7245 182.968C36.5432 182.915 36.3458 182.888 36.1325 182.888C35.7805 182.888 35.4552 183.032 35.1565 183.32C34.8685 183.597 34.5805 184.045 34.2925 184.664L34.2765 185.784L34.3565 189H33.0925L33.1725 185.896L33.1085 181.752L34.3085 181.64L34.2925 183.144H34.3885C34.6872 182.611 35.0178 182.232 35.3805 182.008C35.7432 181.773 36.1005 181.656 36.4525 181.656ZM44.7444 182.296C44.4137 182.392 43.923 182.504 43.2724 182.632L43.2404 182.696C43.475 183.069 43.5924 183.523 43.5924 184.056C43.5924 184.835 43.331 185.453 42.8084 185.912C42.2964 186.371 41.5977 186.6 40.7124 186.6C40.3604 186.6 40.0297 186.557 39.7204 186.472C39.539 186.611 39.4164 186.723 39.3524 186.808C39.2884 186.893 39.2564 186.989 39.2564 187.096C39.2564 187.32 39.395 187.48 39.6724 187.576C39.9497 187.661 40.403 187.752 41.0324 187.848C41.651 187.933 42.1577 188.029 42.5524 188.136C42.947 188.243 43.2884 188.419 43.5764 188.664C43.8644 188.899 44.0084 189.229 44.0084 189.656C44.0084 190.104 43.8537 190.515 43.5444 190.888C43.2457 191.261 42.8297 191.555 42.2964 191.768C41.7737 191.981 41.1977 192.088 40.5684 192.088C39.715 192.088 39.0484 191.891 38.5684 191.496C38.099 191.112 37.8644 190.611 37.8644 189.992C38.1204 189.48 38.5897 189.016 39.2724 188.6V188.52C38.8884 188.403 38.5897 188.248 38.3764 188.056C38.1737 187.853 38.0724 187.581 38.0724 187.24C38.2964 186.867 38.6217 186.541 39.0484 186.264V186.2C38.707 185.987 38.4457 185.709 38.2644 185.368C38.0937 185.016 38.0084 184.611 38.0084 184.152C38.0084 183.352 38.2644 182.728 38.7764 182.28C39.299 181.821 39.9924 181.592 40.8564 181.592C41.4217 181.592 41.9017 181.688 42.2964 181.88C43.0324 181.741 43.8057 181.56 44.6164 181.336L44.7444 181.432V182.296ZM40.7764 185.736C41.3097 185.736 41.7204 185.587 42.0084 185.288C42.307 184.989 42.4564 184.573 42.4564 184.04C42.4564 183.528 42.3177 183.133 42.0404 182.856C41.763 182.579 41.363 182.44 40.8404 182.44C40.307 182.44 39.891 182.584 39.5924 182.872C39.2937 183.16 39.1444 183.571 39.1444 184.104C39.1444 184.616 39.283 185.016 39.5604 185.304C39.8484 185.592 40.2537 185.736 40.7764 185.736ZM42.8884 189.896C42.8884 189.544 42.707 189.299 42.3444 189.16C41.9924 189.021 41.4537 188.899 40.7284 188.792L40.2164 188.712C39.811 188.957 39.5017 189.192 39.2884 189.416C39.0857 189.64 38.9844 189.875 38.9844 190.12C38.9844 190.429 39.1337 190.685 39.4324 190.888C39.7417 191.091 40.1684 191.192 40.7124 191.192C41.331 191.192 41.8484 191.064 42.2644 190.808C42.6804 190.563 42.8884 190.259 42.8884 189.896ZM46.6373 185.288V185.32C46.6373 186.216 46.8399 186.904 47.2453 187.384C47.6506 187.864 48.2266 188.104 48.9733 188.104C49.3466 188.104 49.7199 188.045 50.0933 187.928C50.4666 187.8 50.8079 187.624 51.1173 187.4L51.2453 187.496L51.0533 188.584C50.3066 188.947 49.5599 189.128 48.8133 189.128C47.7679 189.128 46.9466 188.797 46.3493 188.136C45.7519 187.464 45.4533 186.547 45.4533 185.384C45.4533 184.211 45.7519 183.277 46.3493 182.584C46.9466 181.891 47.7519 181.544 48.7653 181.544C49.6186 181.544 50.2799 181.789 50.7493 182.28C51.2186 182.76 51.4533 183.432 51.4533 184.296C51.4533 184.584 51.4319 184.856 51.3893 185.112L51.2293 185.272L46.6373 185.288ZM48.7653 182.44C48.2319 182.44 47.7839 182.616 47.4213 182.968C47.0693 183.309 46.8346 183.795 46.7173 184.424L50.2533 184.36L50.2853 184.136C50.2853 183.592 50.1519 183.176 49.8853 182.888C49.6293 182.589 49.2559 182.44 48.7653 182.44ZM55.4363 181.56C56.0443 181.56 56.6309 181.677 57.1963 181.912L57.0203 182.952L56.8283 183C56.2949 182.648 55.7829 182.472 55.2923 182.472C54.9296 182.472 54.6363 182.573 54.4123 182.776C54.1883 182.979 54.0763 183.224 54.0763 183.512C54.0763 183.8 54.1883 184.035 54.4123 184.216C54.6469 184.387 55.0043 184.584 55.4843 184.808C55.9003 185 56.2309 185.176 56.4763 185.336C56.7323 185.485 56.9509 185.688 57.1323 185.944C57.3136 186.2 57.4043 186.515 57.4043 186.888C57.4043 187.283 57.3029 187.651 57.1003 187.992C56.8976 188.333 56.5989 188.611 56.2043 188.824C55.8096 189.027 55.3403 189.128 54.7963 189.128C54.0496 189.128 53.3403 188.952 52.6683 188.6L52.8283 187.512L52.9723 187.416C53.2709 187.672 53.5909 187.869 53.9323 188.008C54.2843 188.147 54.6149 188.216 54.9243 188.216C55.3189 188.216 55.6389 188.109 55.8843 187.896C56.1296 187.672 56.2523 187.411 56.2523 187.112C56.2523 186.824 56.1349 186.595 55.9003 186.424C55.6763 186.243 55.3243 186.04 54.8443 185.816C54.4283 185.624 54.0923 185.453 53.8363 185.304C53.5803 185.144 53.3616 184.931 53.1803 184.664C52.9989 184.397 52.9083 184.067 52.9083 183.672C52.9083 183.053 53.1323 182.547 53.5803 182.152C54.0389 181.757 54.6576 181.56 55.4363 181.56ZM62.0788 185.896L62.0308 181.752L63.2628 181.64L63.2308 185.784L63.2628 189H62.0148L62.0788 185.896ZM62.6708 178.392C62.8841 178.392 63.0548 178.456 63.1828 178.584C63.3108 178.712 63.3748 178.888 63.3748 179.112C63.3748 179.347 63.3054 179.533 63.1668 179.672C63.0388 179.811 62.8574 179.88 62.6228 179.88C62.3988 179.88 62.2228 179.816 62.0948 179.688C61.9774 179.56 61.9188 179.379 61.9188 179.144C61.9188 178.92 61.9828 178.739 62.1108 178.6C62.2494 178.461 62.4361 178.392 62.6708 178.392ZM68.1778 188.024C68.5298 188.024 68.9138 187.917 69.3298 187.704L69.4738 187.8L69.3458 188.632C68.7698 188.899 68.2364 189.053 67.7458 189.096C67.1378 188.979 66.7004 188.755 66.4338 188.424C66.1671 188.093 66.0338 187.613 66.0338 186.984L66.0818 185.848L66.0658 182.536H65.0578L64.9938 182.44L65.0738 181.688H66.0498V180.504L67.1538 180.024L67.2818 180.136L67.2498 181.688H69.4258L69.4898 181.784L69.4098 182.536H67.2498L67.1698 186.872C67.1591 187.299 67.2338 187.597 67.3938 187.768C67.5538 187.939 67.8151 188.024 68.1778 188.024ZM75.9278 188.024C76.2798 188.024 76.6638 187.917 77.0798 187.704L77.2238 187.8L77.0958 188.632C76.5198 188.899 75.9864 189.053 75.4958 189.096C74.8878 188.979 74.4504 188.755 74.1838 188.424C73.9171 188.093 73.7838 187.613 73.7838 186.984L73.8318 185.848L73.8158 182.536H72.8078L72.7438 182.44L72.8238 181.688H73.7998V180.504L74.9038 180.024L75.0318 180.136L74.9998 181.688H77.1758L77.2398 181.784L77.1598 182.536H74.9998L74.9198 186.872C74.9091 187.299 74.9838 187.597 75.1438 187.768C75.3038 187.939 75.5651 188.024 75.9278 188.024ZM81.2504 181.544C82.2424 181.544 83.0104 181.869 83.5544 182.52C84.109 183.16 84.3864 184.067 84.3864 185.24C84.3864 186.477 84.0984 187.437 83.5224 188.12C82.9464 188.792 82.125 189.128 81.0584 189.128C80.0557 189.128 79.277 188.808 78.7224 188.168C78.1784 187.517 77.9064 186.605 77.9064 185.432C77.9064 184.195 78.1944 183.24 78.7704 182.568C79.357 181.885 80.1837 181.544 81.2504 181.544ZM81.1704 182.44C80.4984 182.44 79.9864 182.669 79.6344 183.128C79.2824 183.587 79.1064 184.259 79.1064 185.144C79.1064 186.168 79.277 186.936 79.6184 187.448C79.9704 187.96 80.477 188.216 81.1384 188.216C81.8104 188.216 82.3224 187.992 82.6744 187.544C83.0264 187.096 83.2024 186.424 83.2024 185.528C83.2024 184.515 83.0264 183.747 82.6744 183.224C82.333 182.701 81.8317 182.44 81.1704 182.44ZM92.4864 177.736C93.105 177.736 93.793 177.843 94.5504 178.056L94.3904 179.112L94.2304 179.16C93.8784 178.989 93.553 178.867 93.2544 178.792C92.9557 178.707 92.6517 178.664 92.3424 178.664C91.7664 178.664 91.3397 178.813 91.0624 179.112C90.7957 179.4 90.6624 179.853 90.6624 180.472L90.6464 181.688H94.5824L95.3344 181.592L95.4304 181.64L95.3344 185.816L95.4304 189H94.1504L94.2464 185.912L94.1824 182.536H90.6464L90.5984 185.8L90.6784 189H89.4144L89.5104 185.896L89.4784 182.536H88.3744L88.3104 182.44L88.3904 181.688H89.4624V180.712C89.4624 179.688 89.7024 178.936 90.1824 178.456C90.673 177.976 91.441 177.736 92.4864 177.736ZM99.1374 185.784L99.2174 189H97.9534L98.0494 185.88L97.9694 177.88L99.2334 177.768L99.1374 185.784ZM103.091 185.784L103.171 189H101.907L102.003 185.88L101.923 177.88L103.187 177.768L103.091 185.784ZM110.74 188.024C111.092 188.024 111.476 187.917 111.892 187.704L112.036 187.8L111.908 188.632C111.332 188.899 110.799 189.053 110.308 189.096C109.7 188.979 109.263 188.755 108.996 188.424C108.73 188.093 108.596 187.613 108.596 186.984L108.644 185.848L108.628 182.536H107.62L107.556 182.44L107.636 181.688H108.612V180.504L109.716 180.024L109.844 180.136L109.812 181.688H111.988L112.052 181.784L111.972 182.536H109.812L109.732 186.872C109.722 187.299 109.796 187.597 109.956 187.768C110.116 187.939 110.378 188.024 110.74 188.024ZM118.234 184.024C118.244 183.587 118.143 183.245 117.93 183C117.716 182.755 117.402 182.632 116.986 182.632C116.282 182.632 115.562 183.011 114.826 183.768L114.794 185.784L114.874 189H113.61L113.706 185.88L113.626 177.88L114.89 177.768L114.826 182.712H114.922C115.583 182.125 116.26 181.747 116.954 181.576C117.764 181.576 118.378 181.763 118.794 182.136C119.21 182.509 119.412 183.043 119.402 183.736L119.37 185.816L119.434 189H118.154L118.234 184.024ZM122.434 185.288V185.32C122.434 186.216 122.637 186.904 123.042 187.384C123.447 187.864 124.023 188.104 124.77 188.104C125.143 188.104 125.517 188.045 125.89 187.928C126.263 187.8 126.605 187.624 126.914 187.4L127.042 187.496L126.85 188.584C126.103 188.947 125.357 189.128 124.61 189.128C123.565 189.128 122.743 188.797 122.146 188.136C121.549 187.464 121.25 186.547 121.25 185.384C121.25 184.211 121.549 183.277 122.146 182.584C122.743 181.891 123.549 181.544 124.562 181.544C125.415 181.544 126.077 181.789 126.546 182.28C127.015 182.76 127.25 183.432 127.25 184.296C127.25 184.584 127.229 184.856 127.186 185.112L127.026 185.272L122.434 185.288ZM124.562 182.44C124.029 182.44 123.581 182.616 123.218 182.968C122.866 183.309 122.631 183.795 122.514 184.424L126.05 184.36L126.082 184.136C126.082 183.592 125.949 183.176 125.682 182.888C125.426 182.589 125.053 182.44 124.562 182.44ZM6.856 208.288V208.32C6.856 209.216 7.05867 209.904 7.464 210.384C7.86933 210.864 8.44533 211.104 9.192 211.104C9.56533 211.104 9.93867 211.045 10.312 210.928C10.6853 210.8 11.0267 210.624 11.336 210.4L11.464 210.496L11.272 211.584C10.5253 211.947 9.77867 212.128 9.032 212.128C7.98667 212.128 7.16533 211.797 6.568 211.136C5.97067 210.464 5.672 209.547 5.672 208.384C5.672 207.211 5.97067 206.277 6.568 205.584C7.16533 204.891 7.97067 204.544 8.984 204.544C9.83733 204.544 10.4987 204.789 10.968 205.28C11.4373 205.76 11.672 206.432 11.672 207.296C11.672 207.584 11.6507 207.856 11.608 208.112L11.448 208.272L6.856 208.288ZM8.984 205.44C8.45067 205.44 8.00267 205.616 7.64 205.968C7.288 206.309 7.05333 206.795 6.936 207.424L10.472 207.36L10.504 207.136C10.504 206.592 10.3707 206.176 10.104 205.888C9.848 205.589 9.47467 205.44 8.984 205.44ZM18.279 207.024C18.2897 206.587 18.1883 206.245 17.975 206C17.7617 205.755 17.447 205.632 17.031 205.632C16.359 205.632 15.6337 206.011 14.855 206.768V208.784L14.919 212H13.655L13.735 208.896L13.671 204.752L14.871 204.64V205.712H14.967C15.6283 205.125 16.3057 204.747 16.999 204.576C17.799 204.576 18.407 204.763 18.823 205.136C19.2497 205.509 19.4577 206.043 19.447 206.736L19.415 208.816L19.479 212H18.199L18.279 207.024ZM24.209 211.024C24.561 211.024 24.945 210.917 25.361 210.704L25.505 210.8L25.377 211.632C24.801 211.899 24.2677 212.053 23.777 212.096C23.169 211.979 22.7317 211.755 22.465 211.424C22.1983 211.093 22.065 210.613 22.065 209.984L22.113 208.848L22.097 205.536H21.089L21.025 205.44L21.105 204.688H22.081V203.504L23.185 203.024L23.313 203.136L23.281 204.688H25.457L25.521 204.784L25.441 205.536H23.281L23.201 209.872C23.1903 210.299 23.265 210.597 23.425 210.768C23.585 210.939 23.8463 211.024 24.209 211.024ZM27.0944 208.896L27.0464 204.752L28.2784 204.64L28.2464 208.784L28.2784 212H27.0304L27.0944 208.896ZM27.6864 201.392C27.8997 201.392 28.0704 201.456 28.1984 201.584C28.3264 201.712 28.3904 201.888 28.3904 202.112C28.3904 202.347 28.321 202.533 28.1824 202.672C28.0544 202.811 27.873 202.88 27.6384 202.88C27.4144 202.88 27.2384 202.816 27.1104 202.688C26.993 202.56 26.9344 202.379 26.9344 202.144C26.9344 201.92 26.9984 201.739 27.1264 201.6C27.265 201.461 27.4517 201.392 27.6864 201.392ZM34.2494 204.656C34.3774 204.656 34.516 204.667 34.6654 204.688V205.92L34.5214 205.968C34.34 205.915 34.1427 205.888 33.9294 205.888C33.5774 205.888 33.252 206.032 32.9534 206.32C32.6654 206.597 32.3774 207.045 32.0894 207.664L32.0734 208.784L32.1534 212H30.8894L30.9694 208.896L30.9054 204.752L32.1054 204.64L32.0894 206.144H32.1854C32.484 205.611 32.8147 205.232 33.1774 205.008C33.54 204.773 33.8974 204.656 34.2494 204.656ZM36.6216 208.288V208.32C36.6216 209.216 36.8243 209.904 37.2296 210.384C37.635 210.864 38.211 211.104 38.9576 211.104C39.331 211.104 39.7043 211.045 40.0776 210.928C40.451 210.8 40.7923 210.624 41.1016 210.4L41.2296 210.496L41.0376 211.584C40.291 211.947 39.5443 212.128 38.7976 212.128C37.7523 212.128 36.931 211.797 36.3336 211.136C35.7363 210.464 35.4376 209.547 35.4376 208.384C35.4376 207.211 35.7363 206.277 36.3336 205.584C36.931 204.891 37.7363 204.544 38.7496 204.544C39.603 204.544 40.2643 204.789 40.7336 205.28C41.203 205.76 41.4376 206.432 41.4376 207.296C41.4376 207.584 41.4163 207.856 41.3736 208.112L41.2136 208.272L36.6216 208.288ZM38.7496 205.44C38.2163 205.44 37.7683 205.616 37.4056 205.968C37.0536 206.309 36.819 206.795 36.7016 207.424L40.2376 207.36L40.2696 207.136C40.2696 206.592 40.1363 206.176 39.8696 205.888C39.6136 205.589 39.2403 205.44 38.7496 205.44ZM48.0613 204.56C48.6693 204.56 49.2559 204.677 49.8213 204.912L49.6453 205.952L49.4533 206C48.9199 205.648 48.4079 205.472 47.9173 205.472C47.5546 205.472 47.2613 205.573 47.0373 205.776C46.8133 205.979 46.7013 206.224 46.7013 206.512C46.7013 206.8 46.8133 207.035 47.0373 207.216C47.2719 207.387 47.6293 207.584 48.1093 207.808C48.5253 208 48.8559 208.176 49.1013 208.336C49.3573 208.485 49.5759 208.688 49.7573 208.944C49.9386 209.2 50.0293 209.515 50.0293 209.888C50.0293 210.283 49.9279 210.651 49.7253 210.992C49.5226 211.333 49.2239 211.611 48.8293 211.824C48.4346 212.027 47.9653 212.128 47.4213 212.128C46.6746 212.128 45.9653 211.952 45.2933 211.6L45.4533 210.512L45.5973 210.416C45.8959 210.672 46.2159 210.869 46.5573 211.008C46.9093 211.147 47.2399 211.216 47.5493 211.216C47.9439 211.216 48.2639 211.109 48.5093 210.896C48.7546 210.672 48.8773 210.411 48.8773 210.112C48.8773 209.824 48.7599 209.595 48.5253 209.424C48.3013 209.243 47.9493 209.04 47.4693 208.816C47.0533 208.624 46.7173 208.453 46.4613 208.304C46.2053 208.144 45.9866 207.931 45.8053 207.664C45.6239 207.397 45.5333 207.067 45.5333 206.672C45.5333 206.053 45.7573 205.547 46.2053 205.152C46.6639 204.757 47.2826 204.56 48.0613 204.56ZM54.6231 204.544C54.9538 204.544 55.2951 204.587 55.6471 204.672C56.0098 204.747 56.3245 204.848 56.5911 204.976L56.3671 206.08L56.2231 206.128C55.6685 205.765 55.1191 205.584 54.5751 205.584C53.9458 205.584 53.4551 205.824 53.1031 206.304C52.7511 206.784 52.5751 207.456 52.5751 208.32C52.5751 209.184 52.7565 209.867 53.1191 210.368C53.4925 210.859 54.0045 211.104 54.6551 211.104C54.9431 211.104 55.2418 211.056 55.5511 210.96C55.8711 210.864 56.1698 210.731 56.4471 210.56L56.5911 210.64L56.4471 211.712C55.7965 211.989 55.1458 212.128 54.4951 212.128C53.5245 212.128 52.7618 211.797 52.2071 211.136C51.6525 210.464 51.3751 209.547 51.3751 208.384C51.3751 207.2 51.6631 206.267 52.2391 205.584C52.8258 204.891 53.6205 204.544 54.6231 204.544ZM61.3588 204.656C61.4868 204.656 61.6254 204.667 61.7748 204.688V205.92L61.6308 205.968C61.4494 205.915 61.2521 205.888 61.0388 205.888C60.6868 205.888 60.3614 206.032 60.0628 206.32C59.7748 206.597 59.4868 207.045 59.1988 207.664L59.1828 208.784L59.2628 212H57.9988L58.0788 208.896L58.0148 204.752L59.2148 204.64L59.1988 206.144H59.2948C59.5934 205.611 59.9241 205.232 60.2868 205.008C60.6494 204.773 61.0068 204.656 61.3588 204.656ZM63.731 208.288V208.32C63.731 209.216 63.9337 209.904 64.339 210.384C64.7443 210.864 65.3203 211.104 66.067 211.104C66.4403 211.104 66.8137 211.045 67.187 210.928C67.5603 210.8 67.9017 210.624 68.211 210.4L68.339 210.496L68.147 211.584C67.4003 211.947 66.6537 212.128 65.907 212.128C64.8617 212.128 64.0403 211.797 63.443 211.136C62.8457 210.464 62.547 209.547 62.547 208.384C62.547 207.211 62.8457 206.277 63.443 205.584C64.0403 204.891 64.8457 204.544 65.859 204.544C66.7123 204.544 67.3737 204.789 67.843 205.28C68.3123 205.76 68.547 206.432 68.547 207.296C68.547 207.584 68.5257 207.856 68.483 208.112L68.323 208.272L63.731 208.288ZM65.859 205.44C65.3257 205.44 64.8777 205.616 64.515 205.968C64.163 206.309 63.9283 206.795 63.811 207.424L67.347 207.36L67.379 207.136C67.379 206.592 67.2457 206.176 66.979 205.888C66.723 205.589 66.3497 205.44 65.859 205.44ZM71.106 208.288V208.32C71.106 209.216 71.3087 209.904 71.714 210.384C72.1193 210.864 72.6953 211.104 73.442 211.104C73.8153 211.104 74.1887 211.045 74.562 210.928C74.9353 210.8 75.2767 210.624 75.586 210.4L75.714 210.496L75.522 211.584C74.7753 211.947 74.0287 212.128 73.282 212.128C72.2367 212.128 71.4153 211.797 70.818 211.136C70.2207 210.464 69.922 209.547 69.922 208.384C69.922 207.211 70.2207 206.277 70.818 205.584C71.4153 204.891 72.2207 204.544 73.234 204.544C74.0873 204.544 74.7487 204.789 75.218 205.28C75.6873 205.76 75.922 206.432 75.922 207.296C75.922 207.584 75.9007 207.856 75.858 208.112L75.698 208.272L71.106 208.288ZM73.234 205.44C72.7007 205.44 72.2527 205.616 71.89 205.968C71.538 206.309 71.3033 206.795 71.186 207.424L74.722 207.36L74.754 207.136C74.754 206.592 74.6207 206.176 74.354 205.888C74.098 205.589 73.7247 205.44 73.234 205.44ZM82.529 207.024C82.5397 206.587 82.4383 206.245 82.225 206C82.0117 205.755 81.697 205.632 81.281 205.632C80.609 205.632 79.8837 206.011 79.105 206.768V208.784L79.169 212H77.905L77.985 208.896L77.921 204.752L79.121 204.64V205.712H79.217C79.8783 205.125 80.5557 204.747 81.249 204.576C82.049 204.576 82.657 204.763 83.073 205.136C83.4997 205.509 83.7077 206.043 83.697 206.736L83.665 208.816L83.729 212H82.449L82.529 207.024ZM89.1796 205.568L90.5236 210.624H90.6196L92.1716 205.632L92.4116 204.672H93.6596L93.8356 205.568L95.1796 210.624H95.2756L96.8276 205.632L97.0676 204.672H98.1716L95.7556 212H94.5556L93.0196 206.32H92.9076L91.1316 212H89.8836L87.8356 204.704L89.0036 204.624L89.1796 205.568ZM99.6569 208.896L99.6089 204.752L100.841 204.64L100.809 208.784L100.841 212H99.5929L99.6569 208.896ZM100.249 201.392C100.462 201.392 100.633 201.456 100.761 201.584C100.889 201.712 100.953 201.888 100.953 202.112C100.953 202.347 100.884 202.533 100.745 202.672C100.617 202.811 100.436 202.88 100.201 202.88C99.9769 202.88 99.8009 202.816 99.6729 202.688C99.5555 202.56 99.4969 202.379 99.4969 202.144C99.4969 201.92 99.5609 201.739 99.6889 201.6C99.8275 201.461 100.014 201.392 100.249 201.392ZM108.94 208.784L108.988 210.432C108.999 210.656 109.036 210.816 109.1 210.912C109.164 210.997 109.281 211.04 109.452 211.04C109.623 211.04 109.804 211.008 109.996 210.944L110.124 211.056L109.996 211.776C109.708 211.957 109.409 212.064 109.1 212.096C108.769 212.064 108.508 211.952 108.316 211.76C108.135 211.568 108.023 211.307 107.98 210.976H107.868C107.548 211.253 107.26 211.477 107.004 211.648C106.748 211.808 106.455 211.952 106.124 212.08C105.068 212.08 104.257 211.76 103.692 211.12C103.127 210.469 102.844 209.547 102.844 208.352C102.844 207.147 103.159 206.213 103.788 205.552C104.417 204.88 105.287 204.544 106.396 204.544C106.897 204.544 107.367 204.597 107.804 204.704L107.788 200.88L109.052 200.768L108.94 208.784ZM106.252 205.44C105.569 205.44 105.031 205.675 104.636 206.144C104.241 206.603 104.044 207.269 104.044 208.144C104.044 209.051 104.22 209.755 104.572 210.256C104.935 210.757 105.431 211.008 106.06 211.008C106.359 211.008 106.647 210.933 106.924 210.784C107.212 210.635 107.511 210.384 107.82 210.032L107.852 208.88L107.804 205.84C107.239 205.573 106.721 205.44 106.252 205.44ZM114.037 211.024C114.389 211.024 114.773 210.917 115.189 210.704L115.333 210.8L115.205 211.632C114.629 211.899 114.096 212.053 113.605 212.096C112.997 211.979 112.56 211.755 112.293 211.424C112.026 211.093 111.893 210.613 111.893 209.984L111.941 208.848L111.925 205.536H110.917L110.853 205.44L110.933 204.688H111.909V203.504L113.013 203.024L113.141 203.136L113.109 204.688H115.285L115.349 204.784L115.269 205.536H113.109L113.029 209.872C113.018 210.299 113.093 210.597 113.253 210.768C113.413 210.939 113.674 211.024 114.037 211.024ZM121.531 207.024C121.541 206.587 121.44 206.245 121.227 206C121.013 205.755 120.699 205.632 120.283 205.632C119.579 205.632 118.859 206.011 118.123 206.768L118.091 208.784L118.171 212H116.907L117.003 208.88L116.923 200.88L118.187 200.768L118.123 205.712H118.219C118.88 205.125 119.557 204.747 120.251 204.576C121.061 204.576 121.675 204.763 122.091 205.136C122.507 205.509 122.709 206.043 122.699 206.736L122.667 208.816L122.731 212H121.451L121.531 207.024Z" fill="#333333"/>
<circle cx="17" cy="12" r="12" fill="#C50063"/>
<path d="M18.5279 7.76V17H16.6519V10.112C16.6519 9.96267 16.6565 9.846 16.6659 9.762C16.3299 10.07 15.9659 10.3313 15.5739 10.546C15.1912 10.7607 14.8039 10.9053 14.4119 10.98L14.1599 9.356C14.5892 9.30933 15.1025 9.118 15.6999 8.782C16.3065 8.43667 16.7265 8.096 16.9599 7.76H18.5279Z" fill="#F2F2F2"/>
<circle cx="185" cy="12" r="12" fill="#C50063"/>
<path d="M181.494 15.684C182.624 14.928 183.52 14.2653 184.182 13.696C184.845 13.1267 185.326 12.5993 185.624 12.114C185.923 11.6287 186.072 11.148 186.072 10.672C186.072 10.2333 185.937 9.87867 185.666 9.608C185.405 9.33733 185.041 9.202 184.574 9.202C184.061 9.202 183.655 9.37933 183.356 9.734C183.058 10.0887 182.894 10.5927 182.866 11.246L181.2 10.616C181.266 9.68267 181.611 8.95 182.236 8.418C182.862 7.886 183.678 7.62 184.686 7.62C185.405 7.62 186.012 7.75533 186.506 8.026C187.01 8.29667 187.388 8.656 187.64 9.104C187.892 9.54267 188.018 10.028 188.018 10.56C188.018 11.428 187.692 12.2493 187.038 13.024C186.385 13.7893 185.344 14.6107 183.916 15.488V15.502C184.458 15.4647 185.022 15.446 185.61 15.446H188.158V17H181.494V15.684Z" fill="#F2F2F2"/>
<path d="M180.504 155.872L180.408 156.864L178.616 156.768H177.576L177.528 162.8L177.576 166H176.28L176.376 162.912L176.296 156.768H175.256L173.432 156.864L173.352 156.736L173.448 155.744H180.408L180.504 155.872ZM183.477 158.544C184.171 158.544 184.715 158.715 185.109 159.056C185.515 159.397 185.717 159.867 185.717 160.464C185.717 160.645 185.685 161.301 185.621 162.432C185.557 163.563 185.525 164.224 185.525 164.416C185.525 164.651 185.563 164.816 185.637 164.912C185.712 164.997 185.84 165.04 186.021 165.04C186.181 165.04 186.363 165.008 186.565 164.944L186.693 165.056L186.565 165.776C186.256 165.957 185.952 166.064 185.653 166.096C185.323 166.064 185.056 165.947 184.853 165.744C184.661 165.541 184.56 165.264 184.549 164.912H184.437C183.861 165.499 183.291 165.899 182.725 166.112C182.011 166.112 181.451 165.936 181.045 165.584C180.651 165.221 180.453 164.731 180.453 164.112C180.453 163.643 180.576 163.269 180.821 162.992C181.077 162.715 181.451 162.517 181.941 162.4L184.533 161.792L184.549 160.752C184.549 160.336 184.437 160.016 184.213 159.792C184 159.568 183.691 159.456 183.285 159.456C182.923 159.456 182.56 159.541 182.197 159.712C181.835 159.883 181.445 160.149 181.029 160.512L180.901 160.448L180.741 159.536C181.627 158.875 182.539 158.544 183.477 158.544ZM182.197 163.168C181.984 163.232 181.829 163.323 181.733 163.44C181.637 163.547 181.589 163.712 181.589 163.936C181.589 164.288 181.685 164.565 181.877 164.768C182.08 164.96 182.347 165.056 182.677 165.056C183.264 165.056 183.861 164.677 184.469 163.92L184.517 162.608L182.197 163.168ZM191.78 158.592C192.697 158.592 193.401 158.896 193.892 159.504C194.383 160.112 194.628 160.981 194.628 162.112C194.628 163.392 194.319 164.384 193.7 165.088C193.081 165.781 192.201 166.128 191.06 166.128C190.612 166.128 190.148 166.08 189.668 165.984L189.7 168.96H188.452L188.532 162.896L188.452 158.752L189.668 158.64L189.652 159.68H189.764C190.137 159.371 190.473 159.136 190.772 158.976C191.071 158.816 191.407 158.688 191.78 158.592ZM191.22 165.2C191.924 165.2 192.468 164.955 192.852 164.464C193.236 163.973 193.428 163.275 193.428 162.368C193.428 161.483 193.273 160.805 192.964 160.336C192.665 159.867 192.233 159.632 191.668 159.632C191.337 159.632 191.007 159.723 190.676 159.904C190.356 160.085 190.015 160.368 189.652 160.752L189.636 162.784L189.652 164.784C190.175 165.061 190.697 165.2 191.22 165.2ZM199.921 158.592C200.838 158.592 201.542 158.896 202.033 159.504C202.523 160.112 202.769 160.981 202.769 162.112C202.769 163.392 202.459 164.384 201.841 165.088C201.222 165.781 200.342 166.128 199.201 166.128C198.753 166.128 198.289 166.08 197.809 165.984L197.841 168.96H196.593L196.673 162.896L196.593 158.752L197.809 158.64L197.793 159.68H197.905C198.278 159.371 198.614 159.136 198.913 158.976C199.211 158.816 199.547 158.688 199.921 158.592ZM199.361 165.2C200.065 165.2 200.609 164.955 200.993 164.464C201.377 163.973 201.569 163.275 201.569 162.368C201.569 161.483 201.414 160.805 201.105 160.336C200.806 159.867 200.374 159.632 199.809 159.632C199.478 159.632 199.147 159.723 198.817 159.904C198.497 160.085 198.155 160.368 197.793 160.752L197.777 162.784L197.793 164.784C198.315 165.061 198.838 165.2 199.361 165.2ZM204.813 162.896L204.765 158.752L205.997 158.64L205.965 162.784L205.997 166H204.749L204.813 162.896ZM205.405 155.392C205.618 155.392 205.789 155.456 205.917 155.584C206.045 155.712 206.109 155.888 206.109 156.112C206.109 156.347 206.04 156.533 205.901 156.672C205.773 156.811 205.592 156.88 205.357 156.88C205.133 156.88 204.957 156.816 204.829 156.688C204.712 156.56 204.653 156.379 204.653 156.144C204.653 155.92 204.717 155.739 204.845 155.6C204.984 155.461 205.17 155.392 205.405 155.392ZM213.232 161.024C213.243 160.587 213.141 160.245 212.928 160C212.715 159.755 212.4 159.632 211.984 159.632C211.312 159.632 210.587 160.011 209.808 160.768V162.784L209.872 166H208.608L208.688 162.896L208.624 158.752L209.824 158.64V159.712H209.92C210.581 159.125 211.259 158.747 211.952 158.576C212.752 158.576 213.36 158.763 213.776 159.136C214.203 159.509 214.411 160.043 214.4 160.736L214.368 162.816L214.432 166H213.152L213.232 161.024ZM223.338 159.296C223.007 159.392 222.517 159.504 221.866 159.632L221.834 159.696C222.069 160.069 222.186 160.523 222.186 161.056C222.186 161.835 221.925 162.453 221.402 162.912C220.89 163.371 220.191 163.6 219.306 163.6C218.954 163.6 218.623 163.557 218.314 163.472C218.133 163.611 218.01 163.723 217.946 163.808C217.882 163.893 217.85 163.989 217.85 164.096C217.85 164.32 217.989 164.48 218.266 164.576C218.543 164.661 218.997 164.752 219.626 164.848C220.245 164.933 220.751 165.029 221.146 165.136C221.541 165.243 221.882 165.419 222.17 165.664C222.458 165.899 222.602 166.229 222.602 166.656C222.602 167.104 222.447 167.515 222.138 167.888C221.839 168.261 221.423 168.555 220.89 168.768C220.367 168.981 219.791 169.088 219.162 169.088C218.309 169.088 217.642 168.891 217.162 168.496C216.693 168.112 216.458 167.611 216.458 166.992C216.714 166.48 217.183 166.016 217.866 165.6V165.52C217.482 165.403 217.183 165.248 216.97 165.056C216.767 164.853 216.666 164.581 216.666 164.24C216.89 163.867 217.215 163.541 217.642 163.264V163.2C217.301 162.987 217.039 162.709 216.858 162.368C216.687 162.016 216.602 161.611 216.602 161.152C216.602 160.352 216.858 159.728 217.37 159.28C217.893 158.821 218.586 158.592 219.45 158.592C220.015 158.592 220.495 158.688 220.89 158.88C221.626 158.741 222.399 158.56 223.21 158.336L223.338 158.432V159.296ZM219.37 162.736C219.903 162.736 220.314 162.587 220.602 162.288C220.901 161.989 221.05 161.573 221.05 161.04C221.05 160.528 220.911 160.133 220.634 159.856C220.357 159.579 219.957 159.44 219.434 159.44C218.901 159.44 218.485 159.584 218.186 159.872C217.887 160.16 217.738 160.571 217.738 161.104C217.738 161.616 217.877 162.016 218.154 162.304C218.442 162.592 218.847 162.736 219.37 162.736ZM221.482 166.896C221.482 166.544 221.301 166.299 220.938 166.16C220.586 166.021 220.047 165.899 219.322 165.792L218.81 165.712C218.405 165.957 218.095 166.192 217.882 166.416C217.679 166.64 217.578 166.875 217.578 167.12C217.578 167.429 217.727 167.685 218.026 167.888C218.335 168.091 218.762 168.192 219.306 168.192C219.925 168.192 220.442 168.064 220.858 167.808C221.274 167.563 221.482 167.259 221.482 166.896ZM229.6 165.024C229.952 165.024 230.336 164.917 230.752 164.704L230.896 164.8L230.768 165.632C230.192 165.899 229.658 166.053 229.168 166.096C228.56 165.979 228.122 165.755 227.856 165.424C227.589 165.093 227.456 164.613 227.456 163.984L227.504 162.848L227.488 159.536H226.48L226.416 159.44L226.496 158.688H227.472V157.504L228.576 157.024L228.704 157.136L228.672 158.688H230.848L230.912 158.784L230.832 159.536H228.672L228.592 163.872C228.581 164.299 228.656 164.597 228.816 164.768C228.976 164.939 229.237 165.024 229.6 165.024ZM237.093 161.024C237.104 160.587 237.002 160.245 236.789 160C236.576 159.755 236.261 159.632 235.845 159.632C235.141 159.632 234.421 160.011 233.685 160.768L233.653 162.784L233.733 166H232.469L232.565 162.88L232.485 154.88L233.749 154.768L233.685 159.712H233.781C234.442 159.125 235.12 158.747 235.813 158.576C236.624 158.576 237.237 158.763 237.653 159.136C238.069 159.509 238.272 160.043 238.261 160.736L238.229 162.816L238.293 166H237.013L237.093 161.024ZM241.294 162.288V162.32C241.294 163.216 241.496 163.904 241.902 164.384C242.307 164.864 242.883 165.104 243.63 165.104C244.003 165.104 244.376 165.045 244.75 164.928C245.123 164.8 245.464 164.624 245.774 164.4L245.902 164.496L245.71 165.584C244.963 165.947 244.216 166.128 243.47 166.128C242.424 166.128 241.603 165.797 241.006 165.136C240.408 164.464 240.11 163.547 240.11 162.384C240.11 161.211 240.408 160.277 241.006 159.584C241.603 158.891 242.408 158.544 243.422 158.544C244.275 158.544 244.936 158.789 245.406 159.28C245.875 159.76 246.11 160.432 246.11 161.296C246.11 161.584 246.088 161.856 246.046 162.112L245.886 162.272L241.294 162.288ZM243.422 159.44C242.888 159.44 242.44 159.616 242.078 159.968C241.726 160.309 241.491 160.795 241.374 161.424L244.91 161.36L244.942 161.136C244.942 160.592 244.808 160.176 244.542 159.888C244.286 159.589 243.912 159.44 243.422 159.44ZM177.688 181.592C178.616 181.592 179.32 181.901 179.8 182.52C180.291 183.128 180.536 183.992 180.536 185.112C180.536 186.392 180.227 187.384 179.608 188.088C178.989 188.781 178.125 189.128 177.016 189.128C176.504 189.128 175.981 189.011 175.448 188.776L174.568 189.176L174.344 189.048L174.44 185.928L174.36 177.88L175.624 177.768L175.576 182.68H175.672C176.035 182.381 176.365 182.152 176.664 181.992C176.963 181.832 177.304 181.699 177.688 181.592ZM177.128 188.2C177.811 188.2 178.349 187.96 178.744 187.48C179.139 187 179.336 186.291 179.336 185.352C179.336 184.488 179.181 183.821 178.872 183.352C178.573 182.872 178.141 182.632 177.576 182.632C177.245 182.632 176.915 182.723 176.584 182.904C176.264 183.085 175.923 183.368 175.56 183.752L175.544 185.784L175.592 187.688C176.104 188.029 176.616 188.2 177.128 188.2ZM184.915 181.544C185.608 181.544 186.152 181.715 186.547 182.056C186.952 182.397 187.155 182.867 187.155 183.464C187.155 183.645 187.123 184.301 187.059 185.432C186.995 186.563 186.963 187.224 186.963 187.416C186.963 187.651 187 187.816 187.075 187.912C187.149 187.997 187.277 188.04 187.459 188.04C187.619 188.04 187.8 188.008 188.003 187.944L188.131 188.056L188.003 188.776C187.693 188.957 187.389 189.064 187.091 189.096C186.76 189.064 186.493 188.947 186.291 188.744C186.099 188.541 185.997 188.264 185.987 187.912H185.875C185.299 188.499 184.728 188.899 184.163 189.112C183.448 189.112 182.888 188.936 182.483 188.584C182.088 188.221 181.891 187.731 181.891 187.112C181.891 186.643 182.013 186.269 182.259 185.992C182.515 185.715 182.888 185.517 183.379 185.4L185.971 184.792L185.987 183.752C185.987 183.336 185.875 183.016 185.651 182.792C185.437 182.568 185.128 182.456 184.723 182.456C184.36 182.456 183.997 182.541 183.635 182.712C183.272 182.883 182.883 183.149 182.467 183.512L182.339 183.448L182.179 182.536C183.064 181.875 183.976 181.544 184.915 181.544ZM183.635 186.168C183.421 186.232 183.267 186.323 183.171 186.44C183.075 186.547 183.027 186.712 183.027 186.936C183.027 187.288 183.123 187.565 183.315 187.768C183.517 187.96 183.784 188.056 184.115 188.056C184.701 188.056 185.299 187.677 185.907 186.92L185.955 185.608L183.635 186.168ZM192.514 181.544C192.844 181.544 193.186 181.587 193.538 181.672C193.9 181.747 194.215 181.848 194.482 181.976L194.258 183.08L194.114 183.128C193.559 182.765 193.01 182.584 192.466 182.584C191.836 182.584 191.346 182.824 190.994 183.304C190.642 183.784 190.466 184.456 190.466 185.32C190.466 186.184 190.647 186.867 191.01 187.368C191.383 187.859 191.895 188.104 192.546 188.104C192.834 188.104 193.132 188.056 193.442 187.96C193.762 187.864 194.06 187.731 194.338 187.56L194.482 187.64L194.338 188.712C193.687 188.989 193.036 189.128 192.386 189.128C191.415 189.128 190.652 188.797 190.098 188.136C189.543 187.464 189.266 186.547 189.266 185.384C189.266 184.2 189.554 183.267 190.13 182.584C190.716 181.891 191.511 181.544 192.514 181.544ZM197.278 185.784L197.358 189H196.094L196.19 185.88L196.11 177.88L197.374 177.768L197.278 185.784ZM198.846 185.032C199.582 186.024 200.606 187.272 201.918 188.776V188.92C201.715 188.984 201.491 189.032 201.246 189.064C201.011 189.107 200.857 189.133 200.782 189.144L200.622 189.08C199.417 187.651 198.403 186.339 197.582 185.144V185.032L199.87 182.328L200.286 181.672H201.726L198.846 185.032ZM206.011 184.312V185.112L202.155 185.672L202.027 185.544V184.744L205.899 184.2L206.011 184.312ZM211.157 181.592C212.085 181.592 212.789 181.901 213.269 182.52C213.759 183.128 214.005 183.992 214.005 185.112C214.005 186.392 213.695 187.384 213.077 188.088C212.458 188.781 211.594 189.128 210.485 189.128C209.973 189.128 209.45 189.011 208.917 188.776L208.037 189.176L207.813 189.048L207.909 185.928L207.829 177.88L209.093 177.768L209.045 182.68H209.141C209.503 182.381 209.834 182.152 210.133 181.992C210.431 181.832 210.773 181.699 211.157 181.592ZM210.597 188.2C211.279 188.2 211.818 187.96 212.213 187.48C212.607 187 212.805 186.291 212.805 185.352C212.805 184.488 212.65 183.821 212.341 183.352C212.042 182.872 211.61 182.632 211.045 182.632C210.714 182.632 210.383 182.723 210.053 182.904C209.733 183.085 209.391 183.368 209.029 183.752L209.013 185.784L209.061 187.688C209.573 188.029 210.085 188.2 210.597 188.2ZM222.528 188.056L222.4 188.776C222.09 188.957 221.786 189.064 221.488 189.096C221.178 189.053 220.928 188.947 220.736 188.776C220.554 188.595 220.426 188.328 220.352 187.976H220.256C219.616 188.552 218.954 188.925 218.272 189.096C217.482 189.096 216.88 188.909 216.464 188.536C216.058 188.163 215.861 187.629 215.872 186.936L215.888 184.904L215.84 181.752L217.12 181.64L217.024 186.632C217.024 187.069 217.125 187.411 217.328 187.656C217.541 187.901 217.85 188.024 218.256 188.024C218.917 188.024 219.578 187.704 220.24 187.064V181.752L221.456 181.64L221.376 187.432C221.376 187.656 221.408 187.816 221.472 187.912C221.546 187.997 221.669 188.04 221.84 188.04C222.01 188.04 222.197 188.008 222.4 187.944L222.528 188.056ZM226.428 188.024C226.78 188.024 227.164 187.917 227.58 187.704L227.724 187.8L227.596 188.632C227.02 188.899 226.486 189.053 225.996 189.096C225.388 188.979 224.95 188.755 224.684 188.424C224.417 188.093 224.284 187.613 224.284 186.984L224.332 185.848L224.316 182.536H223.308L223.244 182.44L223.324 181.688H224.3V180.504L225.404 180.024L225.532 180.136L225.5 181.688H227.676L227.74 181.784L227.66 182.536H225.5L225.42 186.872C225.409 187.299 225.484 187.597 225.644 187.768C225.804 187.939 226.065 188.024 226.428 188.024ZM231.537 188.024C231.889 188.024 232.273 187.917 232.689 187.704L232.833 187.8L232.705 188.632C232.129 188.899 231.596 189.053 231.105 189.096C230.497 188.979 230.06 188.755 229.793 188.424C229.526 188.093 229.393 187.613 229.393 186.984L229.441 185.848L229.425 182.536H228.417L228.353 182.44L228.433 181.688H229.409V180.504L230.513 180.024L230.641 180.136L230.609 181.688H232.785L232.849 181.784L232.769 182.536H230.609L230.529 186.872C230.518 187.299 230.593 187.597 230.753 187.768C230.913 187.939 231.174 188.024 231.537 188.024ZM236.86 181.544C237.852 181.544 238.62 181.869 239.164 182.52C239.718 183.16 239.996 184.067 239.996 185.24C239.996 186.477 239.708 187.437 239.132 188.12C238.556 188.792 237.734 189.128 236.668 189.128C235.665 189.128 234.886 188.808 234.332 188.168C233.788 187.517 233.516 186.605 233.516 185.432C233.516 184.195 233.804 183.24 234.38 182.568C234.966 181.885 235.793 181.544 236.86 181.544ZM236.78 182.44C236.108 182.44 235.596 182.669 235.244 183.128C234.892 183.587 234.716 184.259 234.716 185.144C234.716 186.168 234.886 186.936 235.228 187.448C235.58 187.96 236.086 188.216 236.748 188.216C237.42 188.216 237.932 187.992 238.284 187.544C238.636 187.096 238.812 186.424 238.812 185.528C238.812 184.515 238.636 183.747 238.284 183.224C237.942 182.701 237.441 182.44 236.78 182.44ZM246.451 184.024C246.462 183.587 246.36 183.245 246.147 183C245.934 182.755 245.619 182.632 245.203 182.632C244.531 182.632 243.806 183.011 243.027 183.768V185.784L243.091 189H241.827L241.907 185.896L241.843 181.752L243.043 181.64V182.712H243.139C243.8 182.125 244.478 181.747 245.171 181.576C245.971 181.576 246.579 181.763 246.995 182.136C247.422 182.509 247.63 183.043 247.619 183.736L247.587 185.816L247.651 189H246.371L246.451 184.024ZM255.358 181.544C255.688 181.544 256.03 181.587 256.382 181.672C256.744 181.747 257.059 181.848 257.326 181.976L257.102 183.08L256.958 183.128C256.403 182.765 255.854 182.584 255.31 182.584C254.68 182.584 254.19 182.824 253.838 183.304C253.486 183.784 253.31 184.456 253.31 185.32C253.31 186.184 253.491 186.867 253.854 187.368C254.227 187.859 254.739 188.104 255.39 188.104C255.678 188.104 255.976 188.056 256.286 187.96C256.606 187.864 256.904 187.731 257.182 187.56L257.326 187.64L257.182 188.712C256.531 188.989 255.88 189.128 255.23 189.128C254.259 189.128 253.496 188.797 252.942 188.136C252.387 187.464 252.11 186.547 252.11 185.384C252.11 184.2 252.398 183.267 252.974 182.584C253.56 181.891 254.355 181.544 255.358 181.544ZM260.122 185.784L260.202 189H258.938L259.034 185.88L258.954 177.88L260.218 177.768L260.122 185.784ZM265.563 181.544C266.555 181.544 267.323 181.869 267.867 182.52C268.422 183.16 268.699 184.067 268.699 185.24C268.699 186.477 268.411 187.437 267.835 188.12C267.259 188.792 266.438 189.128 265.371 189.128C264.368 189.128 263.59 188.808 263.035 188.168C262.491 187.517 262.219 186.605 262.219 185.432C262.219 184.195 262.507 183.24 263.083 182.568C263.67 181.885 264.496 181.544 265.563 181.544ZM265.483 182.44C264.811 182.44 264.299 182.669 263.947 183.128C263.595 183.587 263.419 184.259 263.419 185.144C263.419 186.168 263.59 186.936 263.931 187.448C264.283 187.96 264.79 188.216 265.451 188.216C266.123 188.216 266.635 187.992 266.987 187.544C267.339 187.096 267.515 186.424 267.515 185.528C267.515 184.515 267.339 183.747 266.987 183.224C266.646 182.701 266.144 182.44 265.483 182.44ZM272.686 181.56C273.294 181.56 273.881 181.677 274.446 181.912L274.27 182.952L274.078 183C273.545 182.648 273.033 182.472 272.542 182.472C272.18 182.472 271.886 182.573 271.662 182.776C271.438 182.979 271.326 183.224 271.326 183.512C271.326 183.8 271.438 184.035 271.662 184.216C271.897 184.387 272.254 184.584 272.734 184.808C273.15 185 273.481 185.176 273.726 185.336C273.982 185.485 274.201 185.688 274.382 185.944C274.564 186.2 274.654 186.515 274.654 186.888C274.654 187.283 274.553 187.651 274.35 187.992C274.148 188.333 273.849 188.611 273.454 188.824C273.06 189.027 272.59 189.128 272.046 189.128C271.3 189.128 270.59 188.952 269.918 188.6L270.078 187.512L270.222 187.416C270.521 187.672 270.841 187.869 271.182 188.008C271.534 188.147 271.865 188.216 272.174 188.216C272.569 188.216 272.889 188.109 273.134 187.896C273.38 187.672 273.502 187.411 273.502 187.112C273.502 186.824 273.385 186.595 273.15 186.424C272.926 186.243 272.574 186.04 272.094 185.816C271.678 185.624 271.342 185.453 271.086 185.304C270.83 185.144 270.612 184.931 270.43 184.664C270.249 184.397 270.158 184.067 270.158 183.672C270.158 183.053 270.382 182.547 270.83 182.152C271.289 181.757 271.908 181.56 272.686 181.56ZM277.184 185.288V185.32C277.184 186.216 277.387 186.904 277.792 187.384C278.197 187.864 278.773 188.104 279.52 188.104C279.893 188.104 280.267 188.045 280.64 187.928C281.013 187.8 281.355 187.624 281.664 187.4L281.792 187.496L281.6 188.584C280.853 188.947 280.107 189.128 279.36 189.128C278.315 189.128 277.493 188.797 276.896 188.136C276.299 187.464 276 186.547 276 185.384C276 184.211 276.299 183.277 276.896 182.584C277.493 181.891 278.299 181.544 279.312 181.544C280.165 181.544 280.827 181.789 281.296 182.28C281.765 182.76 282 183.432 282 184.296C282 184.584 281.979 184.856 281.936 185.112L281.776 185.272L277.184 185.288ZM279.312 182.44C278.779 182.44 278.331 182.616 277.968 182.968C277.616 183.309 277.381 183.795 277.264 184.424L280.8 184.36L280.832 184.136C280.832 183.592 280.699 183.176 280.432 182.888C280.176 182.589 279.803 182.44 279.312 182.44ZM285.983 181.56C286.591 181.56 287.178 181.677 287.743 181.912L287.567 182.952L287.375 183C286.842 182.648 286.33 182.472 285.839 182.472C285.476 182.472 285.183 182.573 284.959 182.776C284.735 182.979 284.623 183.224 284.623 183.512C284.623 183.8 284.735 184.035 284.959 184.216C285.194 184.387 285.551 184.584 286.031 184.808C286.447 185 286.778 185.176 287.023 185.336C287.279 185.485 287.498 185.688 287.679 185.944C287.86 186.2 287.951 186.515 287.951 186.888C287.951 187.283 287.85 187.651 287.647 187.992C287.444 188.333 287.146 188.611 286.751 188.824C286.356 189.027 285.887 189.128 285.343 189.128C284.596 189.128 283.887 188.952 283.215 188.6L283.375 187.512L283.519 187.416C283.818 187.672 284.138 187.869 284.479 188.008C284.831 188.147 285.162 188.216 285.471 188.216C285.866 188.216 286.186 188.109 286.431 187.896C286.676 187.672 286.799 187.411 286.799 187.112C286.799 186.824 286.682 186.595 286.447 186.424C286.223 186.243 285.871 186.04 285.391 185.816C284.975 185.624 284.639 185.453 284.383 185.304C284.127 185.144 283.908 184.931 283.727 184.664C283.546 184.397 283.455 184.067 283.455 183.672C283.455 183.053 283.679 182.547 284.127 182.152C284.586 181.757 285.204 181.56 285.983 181.56ZM176.584 211.024C176.936 211.024 177.32 210.917 177.736 210.704L177.88 210.8L177.752 211.632C177.176 211.899 176.643 212.053 176.152 212.096C175.544 211.979 175.107 211.755 174.84 211.424C174.573 211.093 174.44 210.613 174.44 209.984L174.488 208.848L174.472 205.536H173.464L173.4 205.44L173.48 204.688H174.456V203.504L175.56 203.024L175.688 203.136L175.656 204.688H177.832L177.896 204.784L177.816 205.536H175.656L175.576 209.872C175.565 210.299 175.64 210.597 175.8 210.768C175.96 210.939 176.221 211.024 176.584 211.024ZM184.077 207.024C184.088 206.587 183.987 206.245 183.773 206C183.56 205.755 183.245 205.632 182.829 205.632C182.125 205.632 181.405 206.011 180.669 206.768L180.637 208.784L180.717 212H179.453L179.549 208.88L179.469 200.88L180.733 200.768L180.669 205.712H180.765C181.427 205.125 182.104 204.747 182.797 204.576C183.608 204.576 184.221 204.763 184.637 205.136C185.053 205.509 185.256 206.043 185.245 206.736L185.213 208.816L185.277 212H183.997L184.077 207.024ZM188.278 208.288V208.32C188.278 209.216 188.481 209.904 188.886 210.384C189.291 210.864 189.867 211.104 190.614 211.104C190.987 211.104 191.361 211.045 191.734 210.928C192.107 210.8 192.449 210.624 192.758 210.4L192.886 210.496L192.694 211.584C191.947 211.947 191.201 212.128 190.454 212.128C189.409 212.128 188.587 211.797 187.99 211.136C187.393 210.464 187.094 209.547 187.094 208.384C187.094 207.211 187.393 206.277 187.99 205.584C188.587 204.891 189.393 204.544 190.406 204.544C191.259 204.544 191.921 204.789 192.39 205.28C192.859 205.76 193.094 206.432 193.094 207.296C193.094 207.584 193.073 207.856 193.03 208.112L192.87 208.272L188.278 208.288ZM190.406 205.44C189.873 205.44 189.425 205.616 189.062 205.968C188.71 206.309 188.475 206.795 188.358 207.424L191.894 207.36L191.926 207.136C191.926 206.592 191.793 206.176 191.526 205.888C191.27 205.589 190.897 205.44 190.406 205.44ZM197.798 208.896L197.75 204.752L198.982 204.64L198.95 208.784L198.982 212H197.734L197.798 208.896ZM198.39 201.392C198.603 201.392 198.774 201.456 198.902 201.584C199.03 201.712 199.094 201.888 199.094 202.112C199.094 202.347 199.024 202.533 198.886 202.672C198.758 202.811 198.576 202.88 198.342 202.88C198.118 202.88 197.942 202.816 197.814 202.688C197.696 202.56 197.638 202.379 197.638 202.144C197.638 201.92 197.702 201.739 197.83 201.6C197.968 201.461 198.155 201.392 198.39 201.392ZM210.761 207.024C210.771 206.587 210.67 206.245 210.457 206C210.243 205.755 209.929 205.632 209.513 205.632C208.83 205.632 208.121 206 207.385 206.736L207.353 208.816L207.417 212H206.121L206.217 207.024C206.227 206.587 206.126 206.245 205.913 206C205.699 205.755 205.385 205.632 204.969 205.632C204.297 205.632 203.571 206.011 202.793 206.768V208.784L202.857 212H201.593L201.673 208.896L201.609 204.752L202.809 204.64V205.712H202.905C203.566 205.125 204.243 204.747 204.937 204.576C205.534 204.576 206.025 204.683 206.409 204.896C206.793 205.099 207.065 205.397 207.225 205.792H207.321C207.993 205.184 208.713 204.779 209.481 204.576C210.291 204.576 210.905 204.763 211.321 205.136C211.737 205.509 211.939 206.043 211.929 206.736L211.897 208.816L211.961 212H210.681L210.761 207.024ZM216.805 204.544C217.499 204.544 218.043 204.715 218.437 205.056C218.843 205.397 219.045 205.867 219.045 206.464C219.045 206.645 219.013 207.301 218.949 208.432C218.885 209.563 218.853 210.224 218.853 210.416C218.853 210.651 218.891 210.816 218.965 210.912C219.04 210.997 219.168 211.04 219.349 211.04C219.509 211.04 219.691 211.008 219.893 210.944L220.021 211.056L219.893 211.776C219.584 211.957 219.28 212.064 218.981 212.096C218.651 212.064 218.384 211.947 218.181 211.744C217.989 211.541 217.888 211.264 217.877 210.912H217.765C217.189 211.499 216.619 211.899 216.053 212.112C215.339 212.112 214.779 211.936 214.373 211.584C213.979 211.221 213.781 210.731 213.781 210.112C213.781 209.643 213.904 209.269 214.149 208.992C214.405 208.715 214.779 208.517 215.269 208.4L217.861 207.792L217.877 206.752C217.877 206.336 217.765 206.016 217.541 205.792C217.328 205.568 217.019 205.456 216.613 205.456C216.251 205.456 215.888 205.541 215.525 205.712C215.163 205.883 214.773 206.149 214.357 206.512L214.229 206.448L214.069 205.536C214.955 204.875 215.867 204.544 216.805 204.544ZM215.525 209.168C215.312 209.232 215.157 209.323 215.061 209.44C214.965 209.547 214.917 209.712 214.917 209.936C214.917 210.288 215.013 210.565 215.205 210.768C215.408 210.96 215.675 211.056 216.005 211.056C216.592 211.056 217.189 210.677 217.797 209.92L217.845 208.608L215.525 209.168ZM228.26 205.296C227.929 205.392 227.439 205.504 226.788 205.632L226.756 205.696C226.991 206.069 227.108 206.523 227.108 207.056C227.108 207.835 226.847 208.453 226.324 208.912C225.812 209.371 225.113 209.6 224.228 209.6C223.876 209.6 223.545 209.557 223.236 209.472C223.055 209.611 222.932 209.723 222.868 209.808C222.804 209.893 222.772 209.989 222.772 210.096C222.772 210.32 222.911 210.48 223.188 210.576C223.465 210.661 223.919 210.752 224.548 210.848C225.167 210.933 225.673 211.029 226.068 211.136C226.463 211.243 226.804 211.419 227.092 211.664C227.38 211.899 227.524 212.229 227.524 212.656C227.524 213.104 227.369 213.515 227.06 213.888C226.761 214.261 226.345 214.555 225.812 214.768C225.289 214.981 224.713 215.088 224.084 215.088C223.231 215.088 222.564 214.891 222.084 214.496C221.615 214.112 221.38 213.611 221.38 212.992C221.636 212.48 222.105 212.016 222.788 211.6V211.52C222.404 211.403 222.105 211.248 221.892 211.056C221.689 210.853 221.588 210.581 221.588 210.24C221.812 209.867 222.137 209.541 222.564 209.264V209.2C222.223 208.987 221.961 208.709 221.78 208.368C221.609 208.016 221.524 207.611 221.524 207.152C221.524 206.352 221.78 205.728 222.292 205.28C222.815 204.821 223.508 204.592 224.372 204.592C224.937 204.592 225.417 204.688 225.812 204.88C226.548 204.741 227.321 204.56 228.132 204.336L228.26 204.432V205.296ZM224.292 208.736C224.825 208.736 225.236 208.587 225.524 208.288C225.823 207.989 225.972 207.573 225.972 207.04C225.972 206.528 225.833 206.133 225.556 205.856C225.279 205.579 224.879 205.44 224.356 205.44C223.823 205.44 223.407 205.584 223.108 205.872C222.809 206.16 222.66 206.571 222.66 207.104C222.66 207.616 222.799 208.016 223.076 208.304C223.364 208.592 223.769 208.736 224.292 208.736ZM226.404 212.896C226.404 212.544 226.223 212.299 225.86 212.16C225.508 212.021 224.969 211.899 224.244 211.792L223.732 211.712C223.327 211.957 223.017 212.192 222.804 212.416C222.601 212.64 222.5 212.875 222.5 213.12C222.5 213.429 222.649 213.685 222.948 213.888C223.257 214.091 223.684 214.192 224.228 214.192C224.847 214.192 225.364 214.064 225.78 213.808C226.196 213.563 226.404 213.259 226.404 212.896ZM230.153 208.288V208.32C230.153 209.216 230.356 209.904 230.761 210.384C231.166 210.864 231.742 211.104 232.489 211.104C232.862 211.104 233.236 211.045 233.609 210.928C233.982 210.8 234.324 210.624 234.633 210.4L234.761 210.496L234.569 211.584C233.822 211.947 233.076 212.128 232.329 212.128C231.284 212.128 230.462 211.797 229.865 211.136C229.268 210.464 228.969 209.547 228.969 208.384C228.969 207.211 229.268 206.277 229.865 205.584C230.462 204.891 231.268 204.544 232.281 204.544C233.134 204.544 233.796 204.789 234.265 205.28C234.734 205.76 234.969 206.432 234.969 207.296C234.969 207.584 234.948 207.856 234.905 208.112L234.745 208.272L230.153 208.288ZM232.281 205.44C231.748 205.44 231.3 205.616 230.937 205.968C230.585 206.309 230.35 206.795 230.233 207.424L233.769 207.36L233.801 207.136C233.801 206.592 233.668 206.176 233.401 205.888C233.145 205.589 232.772 205.44 232.281 205.44Z" fill="#333333"/>
<path d="M173 48V128H288.455" stroke="#BDBDBD" stroke-width="0.5"/>
<g filter="url(#filter1_d)">
<path d="M173 127.333C209.08 127.333 221.756 121.585 228.917 89.0345C236.944 52.5455 259.992 48 288.455 48" stroke="#C50063" stroke-linecap="round"/>
</g>
<defs>
<filter id="filter0_d" x="0.5" y="47.5" width="124.455" height="88.3333" filterUnits="userSpaceOnUse" color-interpolation-filters="sRGB">
<feFlood flood-opacity="0" result="BackgroundImageFix"/>
<feColorMatrix in="SourceAlpha" type="matrix" values="0 0 0 0 0 0 0 0 0 0 0 0 0 0 0 0 0 0 127 0"/>
<feOffset dy="4"/>
<feGaussianBlur stdDeviation="2"/>
<feColorMatrix type="matrix" values="0 0 0 0 0.768627 0 0 0 0 0.768627 0 0 0 0 0.768627 0 0 0 0.5 0"/>
<feBlend mode="normal" in2="BackgroundImageFix" result="effect1_dropShadow"/>
<feBlend mode="normal" in="SourceGraphic" in2="effect1_dropShadow" result="shape"/>
</filter>
<filter id="filter1_d" x="168.5" y="47.5" width="124.455" height="88.3333" filterUnits="userSpaceOnUse" color-interpolation-filters="sRGB">
<feFlood flood-opacity="0" result="BackgroundImageFix"/>
<feColorMatrix in="SourceAlpha" type="matrix" values="0 0 0 0 0 0 0 0 0 0 0 0 0 0 0 0 0 0 127 0"/>
<feOffset dy="4"/>
<feGaussianBlur stdDeviation="2"/>
<feColorMatrix type="matrix" values="0 0 0 0 0.768627 0 0 0 0 0.768627 0 0 0 0 0.768627 0 0 0 0.5 0"/>
<feBlend mode="normal" in2="BackgroundImageFix" result="effect1_dropShadow"/>
<feBlend mode="normal" in="SourceGraphic" in2="effect1_dropShadow" result="shape"/>
</filter>
</defs>
</svg>
