<svg width="477" height="256" viewBox="0 0 477 256" fill="none" xmlns="http://www.w3.org/2000/svg">
<rect x="5" y="255" width="472" height="1" fill="#F8F8F8"/>
<path d="M5 48V128H120.455" stroke="#BDBDBD" stroke-width="0.5"/>
<g filter="url(#filter0_d)">
<path d="M5 127.333C41.0795 127.333 53.7565 121.585 60.917 89.0345C68.9441 52.5455 91.9918 48 120.455 48" stroke="#C50063" stroke-linecap="round"/>
</g>
<path d="M12.504 155.872L12.408 156.864L10.616 156.768H9.576L9.528 162.8L9.576 166H8.28L8.376 162.912L8.296 156.768H7.256L5.432 156.864L5.352 156.736L5.448 155.744H12.408L12.504 155.872ZM15.7973 158.544C16.7893 158.544 17.5573 158.869 18.1013 159.52C18.6559 160.16 18.9333 161.067 18.9333 162.24C18.9333 163.477 18.6453 164.437 18.0693 165.12C17.4933 165.792 16.6719 166.128 15.6053 166.128C14.6026 166.128 13.8239 165.808 13.2693 165.168C12.7253 164.517 12.4533 163.605 12.4533 162.432C12.4533 161.195 12.7413 160.24 13.3173 159.568C13.9039 158.885 14.7306 158.544 15.7973 158.544ZM15.7173 159.44C15.0453 159.44 14.5333 159.669 14.1813 160.128C13.8293 160.587 13.6533 161.259 13.6533 162.144C13.6533 163.168 13.8239 163.936 14.1653 164.448C14.5173 164.96 15.0239 165.216 15.6853 165.216C16.3573 165.216 16.8693 164.992 17.2213 164.544C17.5733 164.096 17.7493 163.424 17.7493 162.528C17.7493 161.515 17.5733 160.747 17.2213 160.224C16.8799 159.701 16.3786 159.44 15.7173 159.44ZM24.2486 158.592C25.166 158.592 25.87 158.896 26.3606 159.504C26.8513 160.112 27.0966 160.981 27.0966 162.112C27.0966 163.392 26.7873 164.384 26.1686 165.088C25.55 165.781 24.67 166.128 23.5286 166.128C23.0806 166.128 22.6166 166.08 22.1366 165.984L22.1686 168.96H20.9206L21.0006 162.896L20.9206 158.752L22.1366 158.64L22.1206 159.68H22.2326C22.606 159.371 22.942 159.136 23.2406 158.976C23.5393 158.816 23.8753 158.688 24.2486 158.592ZM23.6886 165.2C24.3926 165.2 24.9366 164.955 25.3206 164.464C25.7046 163.973 25.8966 163.275 25.8966 162.368C25.8966 161.483 25.742 160.805 25.4326 160.336C25.134 159.867 24.702 159.632 24.1366 159.632C23.806 159.632 23.4753 159.723 23.1446 159.904C22.8246 160.085 22.4833 160.368 22.1206 160.752L22.1046 162.784L22.1206 164.784C22.6433 165.061 23.166 165.2 23.6886 165.2ZM36.3259 161.024C36.3365 160.587 36.2352 160.245 36.0219 160C35.8085 159.755 35.4939 159.632 35.0779 159.632C34.4059 159.632 33.6805 160.011 32.9019 160.768V162.784L32.9659 166H31.7019L31.7819 162.896L31.7179 158.752L32.9179 158.64V159.712H33.0139C33.6752 159.125 34.3525 158.747 35.0459 158.576C35.8459 158.576 36.4539 158.763 36.8699 159.136C37.2965 159.509 37.5045 160.043 37.4939 160.736L37.4619 162.816L37.5259 166H36.2459L36.3259 161.024ZM42.3679 158.544C43.0612 158.544 43.6052 158.715 43.9999 159.056C44.4052 159.397 44.6079 159.867 44.6079 160.464C44.6079 160.645 44.5759 161.301 44.5119 162.432C44.4479 163.563 44.4159 164.224 44.4159 164.416C44.4159 164.651 44.4532 164.816 44.5279 164.912C44.6025 164.997 44.7305 165.04 44.9119 165.04C45.0719 165.04 45.2532 165.008 45.4559 164.944L45.5839 165.056L45.4559 165.776C45.1465 165.957 44.8425 166.064 44.5439 166.096C44.2132 166.064 43.9465 165.947 43.7439 165.744C43.5519 165.541 43.4505 165.264 43.4399 164.912H43.3279C42.7519 165.499 42.1812 165.899 41.6159 166.112C40.9012 166.112 40.3412 165.936 39.9359 165.584C39.5412 165.221 39.3439 164.731 39.3439 164.112C39.3439 163.643 39.4665 163.269 39.7119 162.992C39.9679 162.715 40.3412 162.517 40.8319 162.4L43.4239 161.792L43.4399 160.752C43.4399 160.336 43.3279 160.016 43.1039 159.792C42.8905 159.568 42.5812 159.456 42.1759 159.456C41.8132 159.456 41.4505 159.541 41.0879 159.712C40.7252 159.883 40.3359 160.149 39.9199 160.512L39.7919 160.448L39.6319 159.536C40.5172 158.875 41.4292 158.544 42.3679 158.544ZM41.0879 163.168C40.8745 163.232 40.7199 163.323 40.6239 163.44C40.5279 163.547 40.4799 163.712 40.4799 163.936C40.4799 164.288 40.5759 164.565 40.7679 164.768C40.9705 164.96 41.2372 165.056 41.5679 165.056C42.1545 165.056 42.7519 164.677 43.3599 163.92L43.4079 162.608L41.0879 163.168ZM47.5714 159.6L49.1554 164.736H49.2514L51.1074 159.664L51.3634 158.672H52.4994L49.8114 166H48.4514L46.1794 158.704L47.3634 158.624L47.5714 159.6ZM53.985 162.896L53.937 158.752L55.169 158.64L55.137 162.784L55.169 166H53.921L53.985 162.896ZM54.577 155.392C54.7903 155.392 54.961 155.456 55.089 155.584C55.217 155.712 55.281 155.888 55.281 156.112C55.281 156.347 55.2117 156.533 55.073 156.672C54.945 156.811 54.7637 156.88 54.529 156.88C54.305 156.88 54.129 156.816 54.001 156.688C53.8837 156.56 53.825 156.379 53.825 156.144C53.825 155.92 53.889 155.739 54.017 155.6C54.1557 155.461 54.3423 155.392 54.577 155.392ZM64.26 159.296C63.9293 159.392 63.4387 159.504 62.788 159.632L62.756 159.696C62.9907 160.069 63.108 160.523 63.108 161.056C63.108 161.835 62.8467 162.453 62.324 162.912C61.812 163.371 61.1133 163.6 60.228 163.6C59.876 163.6 59.5453 163.557 59.236 163.472C59.0547 163.611 58.932 163.723 58.868 163.808C58.804 163.893 58.772 163.989 58.772 164.096C58.772 164.32 58.9107 164.48 59.188 164.576C59.4653 164.661 59.9187 164.752 60.548 164.848C61.1667 164.933 61.6733 165.029 62.068 165.136C62.4627 165.243 62.804 165.419 63.092 165.664C63.38 165.899 63.524 166.229 63.524 166.656C63.524 167.104 63.3693 167.515 63.06 167.888C62.7613 168.261 62.3453 168.555 61.812 168.768C61.2893 168.981 60.7133 169.088 60.084 169.088C59.2307 169.088 58.564 168.891 58.084 168.496C57.6147 168.112 57.38 167.611 57.38 166.992C57.636 166.48 58.1053 166.016 58.788 165.6V165.52C58.404 165.403 58.1053 165.248 57.892 165.056C57.6893 164.853 57.588 164.581 57.588 164.24C57.812 163.867 58.1373 163.541 58.564 163.264V163.2C58.2227 162.987 57.9613 162.709 57.78 162.368C57.6093 162.016 57.524 161.611 57.524 161.152C57.524 160.352 57.78 159.728 58.292 159.28C58.8147 158.821 59.508 158.592 60.372 158.592C60.9373 158.592 61.4173 158.688 61.812 158.88C62.548 158.741 63.3213 158.56 64.132 158.336L64.26 158.432V159.296ZM60.292 162.736C60.8253 162.736 61.236 162.587 61.524 162.288C61.8227 161.989 61.972 161.573 61.972 161.04C61.972 160.528 61.8333 160.133 61.556 159.856C61.2787 159.579 60.8787 159.44 60.356 159.44C59.8227 159.44 59.4067 159.584 59.108 159.872C58.8093 160.16 58.66 160.571 58.66 161.104C58.66 161.616 58.7987 162.016 59.076 162.304C59.364 162.592 59.7693 162.736 60.292 162.736ZM62.404 166.896C62.404 166.544 62.2227 166.299 61.86 166.16C61.508 166.021 60.9693 165.899 60.244 165.792L59.732 165.712C59.3267 165.957 59.0173 166.192 58.804 166.416C58.6013 166.64 58.5 166.875 58.5 167.12C58.5 167.429 58.6493 167.685 58.948 167.888C59.2573 168.091 59.684 168.192 60.228 168.192C60.8467 168.192 61.364 168.064 61.78 167.808C62.196 167.563 62.404 167.259 62.404 166.896ZM67.7898 158.544C68.4831 158.544 69.0271 158.715 69.4218 159.056C69.8271 159.397 70.0298 159.867 70.0298 160.464C70.0298 160.645 69.9978 161.301 69.9338 162.432C69.8698 163.563 69.8378 164.224 69.8378 164.416C69.8378 164.651 69.8751 164.816 69.9498 164.912C70.0244 164.997 70.1524 165.04 70.3338 165.04C70.4938 165.04 70.6751 165.008 70.8778 164.944L71.0058 165.056L70.8778 165.776C70.5684 165.957 70.2644 166.064 69.9658 166.096C69.6351 166.064 69.3684 165.947 69.1658 165.744C68.9738 165.541 68.8724 165.264 68.8618 164.912H68.7498C68.1738 165.499 67.6031 165.899 67.0378 166.112C66.3231 166.112 65.7631 165.936 65.3578 165.584C64.9631 165.221 64.7658 164.731 64.7658 164.112C64.7658 163.643 64.8884 163.269 65.1338 162.992C65.3898 162.715 65.7631 162.517 66.2538 162.4L68.8458 161.792L68.8618 160.752C68.8618 160.336 68.7498 160.016 68.5258 159.792C68.3124 159.568 68.0031 159.456 67.5978 159.456C67.2351 159.456 66.8724 159.541 66.5098 159.712C66.1471 159.883 65.7578 160.149 65.3418 160.512L65.2138 160.448L65.0538 159.536C65.9391 158.875 66.8511 158.544 67.7898 158.544ZM66.5098 163.168C66.2964 163.232 66.1418 163.323 66.0458 163.44C65.9498 163.547 65.9018 163.712 65.9018 163.936C65.9018 164.288 65.9978 164.565 66.1898 164.768C66.3924 164.96 66.6591 165.056 66.9898 165.056C67.5764 165.056 68.1738 164.677 68.7818 163.92L68.8298 162.608L66.5098 163.168ZM75.0684 165.024C75.4204 165.024 75.8044 164.917 76.2204 164.704L76.3644 164.8L76.2364 165.632C75.6604 165.899 75.127 166.053 74.6364 166.096C74.0284 165.979 73.591 165.755 73.3244 165.424C73.0577 165.093 72.9244 164.613 72.9244 163.984L72.9724 162.848L72.9564 159.536H71.9484L71.8844 159.44L71.9644 158.688H72.9404V157.504L74.0444 157.024L74.1724 157.136L74.1404 158.688H76.3164L76.3804 158.784L76.3004 159.536H74.1404L74.0604 163.872C74.0497 164.299 74.1244 164.597 74.2844 164.768C74.4444 164.939 74.7057 165.024 75.0684 165.024ZM77.9538 162.896L77.9058 158.752L79.1378 158.64L79.1058 162.784L79.1378 166H77.8898L77.9538 162.896ZM78.5458 155.392C78.7591 155.392 78.9298 155.456 79.0578 155.584C79.1858 155.712 79.2498 155.888 79.2498 156.112C79.2498 156.347 79.1804 156.533 79.0418 156.672C78.9138 156.811 78.7324 156.88 78.4978 156.88C78.2738 156.88 78.0978 156.816 77.9698 156.688C77.8524 156.56 77.7938 156.379 77.7938 156.144C77.7938 155.92 77.8578 155.739 77.9858 155.6C78.1244 155.461 78.3111 155.392 78.5458 155.392ZM84.4848 158.544C85.4768 158.544 86.2448 158.869 86.7888 159.52C87.3434 160.16 87.6208 161.067 87.6208 162.24C87.6208 163.477 87.3328 164.437 86.7568 165.12C86.1808 165.792 85.3594 166.128 84.2928 166.128C83.2901 166.128 82.5114 165.808 81.9568 165.168C81.4128 164.517 81.1408 163.605 81.1408 162.432C81.1408 161.195 81.4288 160.24 82.0048 159.568C82.5914 158.885 83.4181 158.544 84.4848 158.544ZM84.4048 159.44C83.7328 159.44 83.2208 159.669 82.8688 160.128C82.5168 160.587 82.3408 161.259 82.3408 162.144C82.3408 163.168 82.5114 163.936 82.8528 164.448C83.2048 164.96 83.7114 165.216 84.3728 165.216C85.0448 165.216 85.5568 164.992 85.9088 164.544C86.2608 164.096 86.4368 163.424 86.4368 162.528C86.4368 161.515 86.2608 160.747 85.9088 160.224C85.5674 159.701 85.0661 159.44 84.4048 159.44ZM94.0759 161.024C94.0865 160.587 93.9852 160.245 93.7719 160C93.5585 159.755 93.2439 159.632 92.8279 159.632C92.1559 159.632 91.4305 160.011 90.6519 160.768V162.784L90.7159 166H89.4519L89.5319 162.896L89.4679 158.752L90.6679 158.64V159.712H90.7639C91.4252 159.125 92.1025 158.747 92.7959 158.576C93.5959 158.576 94.2039 158.763 94.6199 159.136C95.0465 159.509 95.2545 160.043 95.2439 160.736L95.2119 162.816L95.2759 166H93.9959L94.0759 161.024ZM6.856 185.288V185.32C6.856 186.216 7.05867 186.904 7.464 187.384C7.86933 187.864 8.44533 188.104 9.192 188.104C9.56533 188.104 9.93867 188.045 10.312 187.928C10.6853 187.8 11.0267 187.624 11.336 187.4L11.464 187.496L11.272 188.584C10.5253 188.947 9.77867 189.128 9.032 189.128C7.98667 189.128 7.16533 188.797 6.568 188.136C5.97067 187.464 5.672 186.547 5.672 185.384C5.672 184.211 5.97067 183.277 6.568 182.584C7.16533 181.891 7.97067 181.544 8.984 181.544C9.83733 181.544 10.4987 181.789 10.968 182.28C11.4373 182.76 11.672 183.432 11.672 184.296C11.672 184.584 11.6507 184.856 11.608 185.112L11.448 185.272L6.856 185.288ZM8.984 182.44C8.45067 182.44 8.00267 182.616 7.64 182.968C7.288 183.309 7.05333 183.795 6.936 184.424L10.472 184.36L10.504 184.136C10.504 183.592 10.3707 183.176 10.104 182.888C9.848 182.589 9.47467 182.44 8.984 182.44ZM14.903 185.784L14.983 189H13.719L13.815 185.88L13.735 177.88L14.999 177.768L14.903 185.784ZM18.1841 185.288V185.32C18.1841 186.216 18.3868 186.904 18.7921 187.384C19.1975 187.864 19.7735 188.104 20.5201 188.104C20.8935 188.104 21.2668 188.045 21.6401 187.928C22.0135 187.8 22.3548 187.624 22.6641 187.4L22.7921 187.496L22.6001 188.584C21.8535 188.947 21.1068 189.128 20.3601 189.128C19.3148 189.128 18.4935 188.797 17.8961 188.136C17.2988 187.464 17.0001 186.547 17.0001 185.384C17.0001 184.211 17.2988 183.277 17.8961 182.584C18.4935 181.891 19.2988 181.544 20.3121 181.544C21.1655 181.544 21.8268 181.789 22.2961 182.28C22.7655 182.76 23.0001 183.432 23.0001 184.296C23.0001 184.584 22.9788 184.856 22.9361 185.112L22.7761 185.272L18.1841 185.288ZM20.3121 182.44C19.7788 182.44 19.3308 182.616 18.9681 182.968C18.6161 183.309 18.3815 183.795 18.2641 184.424L21.8001 184.36L21.8321 184.136C21.8321 183.592 21.6988 183.176 21.4321 182.888C21.1761 182.589 20.8028 182.44 20.3121 182.44ZM34.1511 184.024C34.1618 183.587 34.0605 183.245 33.8471 183C33.6338 182.755 33.3191 182.632 32.9031 182.632C32.2205 182.632 31.5111 183 30.7751 183.736L30.7431 185.816L30.8071 189H29.5111L29.6071 184.024C29.6178 183.587 29.5165 183.245 29.3031 183C29.0898 182.755 28.7751 182.632 28.3591 182.632C27.6871 182.632 26.9618 183.011 26.1831 183.768V185.784L26.2471 189H24.9831L25.0631 185.896L24.9991 181.752L26.1991 181.64V182.712H26.2951C26.9565 182.125 27.6338 181.747 28.3271 181.576C28.9245 181.576 29.4151 181.683 29.7991 181.896C30.1831 182.099 30.4551 182.397 30.6151 182.792H30.7111C31.3831 182.184 32.1031 181.779 32.8711 181.576C33.6818 181.576 34.2951 181.763 34.7111 182.136C35.1271 182.509 35.3298 183.043 35.3191 183.736L35.2871 185.816L35.3511 189H34.0711L34.1511 184.024ZM38.356 185.288V185.32C38.356 186.216 38.5587 186.904 38.964 187.384C39.3693 187.864 39.9453 188.104 40.692 188.104C41.0653 188.104 41.4387 188.045 41.812 187.928C42.1853 187.8 42.5267 187.624 42.836 187.4L42.964 187.496L42.772 188.584C42.0253 188.947 41.2787 189.128 40.532 189.128C39.4867 189.128 38.6653 188.797 38.068 188.136C37.4707 187.464 37.172 186.547 37.172 185.384C37.172 184.211 37.4707 183.277 38.068 182.584C38.6653 181.891 39.4707 181.544 40.484 181.544C41.3373 181.544 41.9987 181.789 42.468 182.28C42.9373 182.76 43.172 183.432 43.172 184.296C43.172 184.584 43.1507 184.856 43.108 185.112L42.948 185.272L38.356 185.288ZM40.484 182.44C39.9507 182.44 39.5027 182.616 39.14 182.968C38.788 183.309 38.5533 183.795 38.436 184.424L41.972 184.36L42.004 184.136C42.004 183.592 41.8707 183.176 41.604 182.888C41.348 182.589 40.9747 182.44 40.484 182.44ZM49.779 184.024C49.7897 183.587 49.6883 183.245 49.475 183C49.2617 182.755 48.947 182.632 48.531 182.632C47.859 182.632 47.1337 183.011 46.355 183.768V185.784L46.419 189H45.155L45.235 185.896L45.171 181.752L46.371 181.64V182.712H46.467C47.1283 182.125 47.8057 181.747 48.499 181.576C49.299 181.576 49.907 181.763 50.323 182.136C50.7497 182.509 50.9577 183.043 50.947 183.736L50.915 185.816L50.979 189H49.699L49.779 184.024ZM55.709 188.024C56.061 188.024 56.445 187.917 56.861 187.704L57.005 187.8L56.877 188.632C56.301 188.899 55.7677 189.053 55.277 189.096C54.669 188.979 54.2317 188.755 53.965 188.424C53.6983 188.093 53.565 187.613 53.565 186.984L53.613 185.848L53.597 182.536H52.589L52.525 182.44L52.605 181.688H53.581V180.504L54.685 180.024L54.813 180.136L54.781 181.688H56.957L57.021 181.784L56.941 182.536H54.781L54.701 186.872C54.6903 187.299 54.765 187.597 54.925 187.768C55.085 187.939 55.3463 188.024 55.709 188.024ZM64.515 181.656C64.643 181.656 64.7817 181.667 64.931 181.688V182.92L64.787 182.968C64.6057 182.915 64.4083 182.888 64.195 182.888C63.843 182.888 63.5177 183.032 63.219 183.32C62.931 183.597 62.643 184.045 62.355 184.664L62.339 185.784L62.419 189H61.155L61.235 185.896L61.171 181.752L62.371 181.64L62.355 183.144H62.451C62.7497 182.611 63.0803 182.232 63.443 182.008C63.8057 181.773 64.163 181.656 64.515 181.656ZM66.8873 185.288V185.32C66.8873 186.216 67.0899 186.904 67.4953 187.384C67.9006 187.864 68.4766 188.104 69.2233 188.104C69.5966 188.104 69.9699 188.045 70.3433 187.928C70.7166 187.8 71.0579 187.624 71.3673 187.4L71.4953 187.496L71.3033 188.584C70.5566 188.947 69.8099 189.128 69.0633 189.128C68.0179 189.128 67.1966 188.797 66.5993 188.136C66.0019 187.464 65.7033 186.547 65.7033 185.384C65.7033 184.211 66.0019 183.277 66.5993 182.584C67.1966 181.891 68.0019 181.544 69.0153 181.544C69.8686 181.544 70.5299 181.789 70.9993 182.28C71.4686 182.76 71.7033 183.432 71.7033 184.296C71.7033 184.584 71.6819 184.856 71.6393 185.112L71.4793 185.272L66.8873 185.288ZM69.0153 182.44C68.4819 182.44 68.0339 182.616 67.6713 182.968C67.3193 183.309 67.0846 183.795 66.9673 184.424L70.5033 184.36L70.5353 184.136C70.5353 183.592 70.4019 183.176 70.1353 182.888C69.8793 182.589 69.5059 182.44 69.0153 182.44ZM79.1743 185.784L79.2223 187.432C79.2329 187.656 79.2703 187.816 79.3343 187.912C79.3983 187.997 79.5156 188.04 79.6863 188.04C79.8569 188.04 80.0383 188.008 80.2303 187.944L80.3583 188.056L80.2303 188.776C79.9423 188.957 79.6436 189.064 79.3343 189.096C79.0036 189.064 78.7423 188.952 78.5503 188.76C78.3689 188.568 78.2569 188.307 78.2143 187.976H78.1023C77.7823 188.253 77.4943 188.477 77.2383 188.648C76.9823 188.808 76.6889 188.952 76.3583 189.08C75.3023 189.08 74.4916 188.76 73.9263 188.12C73.3609 187.469 73.0783 186.547 73.0783 185.352C73.0783 184.147 73.3929 183.213 74.0223 182.552C74.6516 181.88 75.5209 181.544 76.6302 181.544C77.1316 181.544 77.6009 181.597 78.0383 181.704L78.0223 177.88L79.2863 177.768L79.1743 185.784ZM76.4863 182.44C75.8036 182.44 75.2649 182.675 74.8703 183.144C74.4756 183.603 74.2783 184.269 74.2783 185.144C74.2783 186.051 74.4543 186.755 74.8063 187.256C75.1689 187.757 75.6649 188.008 76.2943 188.008C76.5929 188.008 76.8809 187.933 77.1583 187.784C77.4463 187.635 77.7449 187.384 78.0543 187.032L78.0863 185.88L78.0383 182.84C77.4729 182.573 76.9556 182.44 76.4863 182.44ZM88.5275 188.056L88.3995 188.776C88.0902 188.957 87.7862 189.064 87.4875 189.096C87.1782 189.053 86.9275 188.947 86.7355 188.776C86.5542 188.595 86.4262 188.328 86.3515 187.976H86.2555C85.6155 188.552 84.9542 188.925 84.2715 189.096C83.4822 189.096 82.8795 188.909 82.4635 188.536C82.0582 188.163 81.8608 187.629 81.8715 186.936L81.8875 184.904L81.8395 181.752L83.1195 181.64L83.0235 186.632C83.0235 187.069 83.1248 187.411 83.3275 187.656C83.5408 187.901 83.8502 188.024 84.2555 188.024C84.9168 188.024 85.5782 187.704 86.2395 187.064V181.752L87.4555 181.64L87.3755 187.432C87.3755 187.656 87.4075 187.816 87.4715 187.912C87.5462 187.997 87.6688 188.04 87.8395 188.04C88.0102 188.04 88.1968 188.008 88.3995 187.944L88.5275 188.056ZM92.7481 181.544C93.0788 181.544 93.4201 181.587 93.7721 181.672C94.1348 181.747 94.4495 181.848 94.7161 181.976L94.4921 183.08L94.3481 183.128C93.7935 182.765 93.2441 182.584 92.7001 182.584C92.0708 182.584 91.5801 182.824 91.2281 183.304C90.8761 183.784 90.7001 184.456 90.7001 185.32C90.7001 186.184 90.8815 186.867 91.2441 187.368C91.6175 187.859 92.1295 188.104 92.7801 188.104C93.0681 188.104 93.3668 188.056 93.6761 187.96C93.9961 187.864 94.2948 187.731 94.5721 187.56L94.7161 187.64L94.5721 188.712C93.9215 188.989 93.2708 189.128 92.6201 189.128C91.6495 189.128 90.8868 188.797 90.3321 188.136C89.7775 187.464 89.5001 186.547 89.5001 185.384C89.5001 184.2 89.7881 183.267 90.3641 182.584C90.9508 181.891 91.7455 181.544 92.7481 181.544ZM96.8404 185.288V185.32C96.8404 186.216 97.043 186.904 97.4484 187.384C97.8537 187.864 98.4297 188.104 99.1764 188.104C99.5497 188.104 99.923 188.045 100.296 187.928C100.67 187.8 101.011 187.624 101.32 187.4L101.448 187.496L101.256 188.584C100.51 188.947 99.763 189.128 99.0164 189.128C97.971 189.128 97.1497 188.797 96.5524 188.136C95.955 187.464 95.6564 186.547 95.6564 185.384C95.6564 184.211 95.955 183.277 96.5524 182.584C97.1497 181.891 97.955 181.544 98.9684 181.544C99.8217 181.544 100.483 181.789 100.952 182.28C101.422 182.76 101.656 183.432 101.656 184.296C101.656 184.584 101.635 184.856 101.592 185.112L101.432 185.272L96.8404 185.288ZM98.9684 182.44C98.435 182.44 97.987 182.616 97.6244 182.968C97.2724 183.309 97.0377 183.795 96.9204 184.424L100.456 184.36L100.488 184.136C100.488 183.592 100.355 183.176 100.088 182.888C99.8324 182.589 99.459 182.44 98.9684 182.44ZM105.639 181.56C106.247 181.56 106.834 181.677 107.399 181.912L107.223 182.952L107.031 183C106.498 182.648 105.986 182.472 105.495 182.472C105.133 182.472 104.839 182.573 104.615 182.776C104.391 182.979 104.279 183.224 104.279 183.512C104.279 183.8 104.391 184.035 104.615 184.216C104.85 184.387 105.207 184.584 105.687 184.808C106.103 185 106.434 185.176 106.679 185.336C106.935 185.485 107.154 185.688 107.335 185.944C107.517 186.2 107.607 186.515 107.607 186.888C107.607 187.283 107.506 187.651 107.303 187.992C107.101 188.333 106.802 188.611 106.407 188.824C106.013 189.027 105.543 189.128 104.999 189.128C104.253 189.128 103.543 188.952 102.871 188.6L103.031 187.512L103.175 187.416C103.474 187.672 103.794 187.869 104.135 188.008C104.487 188.147 104.818 188.216 105.127 188.216C105.522 188.216 105.842 188.109 106.087 187.896C106.333 187.672 106.455 187.411 106.455 187.112C106.455 186.824 106.338 186.595 106.103 186.424C105.879 186.243 105.527 186.04 105.047 185.816C104.631 185.624 104.295 185.453 104.039 185.304C103.783 185.144 103.565 184.931 103.383 184.664C103.202 184.397 103.111 184.067 103.111 183.672C103.111 183.053 103.335 182.547 103.783 182.152C104.242 181.757 104.861 181.56 105.639 181.56ZM112.282 185.896L112.234 181.752L113.466 181.64L113.434 185.784L113.466 189H112.218L112.282 185.896ZM112.874 178.392C113.087 178.392 113.258 178.456 113.386 178.584C113.514 178.712 113.578 178.888 113.578 179.112C113.578 179.347 113.509 179.533 113.37 179.672C113.242 179.811 113.061 179.88 112.826 179.88C112.602 179.88 112.426 179.816 112.298 179.688C112.181 179.56 112.122 179.379 112.122 179.144C112.122 178.92 112.186 178.739 112.314 178.6C112.453 178.461 112.639 178.392 112.874 178.392ZM120.701 184.024C120.712 183.587 120.61 183.245 120.397 183C120.184 182.755 119.869 182.632 119.453 182.632C118.781 182.632 118.056 183.011 117.277 183.768V185.784L117.341 189H116.077L116.157 185.896L116.093 181.752L117.293 181.64V182.712H117.389C118.05 182.125 118.728 181.747 119.421 181.576C120.221 181.576 120.829 181.763 121.245 182.136C121.672 182.509 121.88 183.043 121.869 183.736L121.837 185.816L121.901 189H120.621L120.701 184.024ZM8.28 204.56C8.888 204.56 9.47467 204.677 10.04 204.912L9.864 205.952L9.672 206C9.13867 205.648 8.62667 205.472 8.136 205.472C7.77333 205.472 7.48 205.573 7.256 205.776C7.032 205.979 6.92 206.224 6.92 206.512C6.92 206.8 7.032 207.035 7.256 207.216C7.49067 207.387 7.848 207.584 8.328 207.808C8.744 208 9.07467 208.176 9.32 208.336C9.576 208.485 9.79467 208.688 9.976 208.944C10.1573 209.2 10.248 209.515 10.248 209.888C10.248 210.283 10.1467 210.651 9.944 210.992C9.74133 211.333 9.44267 211.611 9.048 211.824C8.65333 212.027 8.184 212.128 7.64 212.128C6.89333 212.128 6.184 211.952 5.512 211.6L5.672 210.512L5.816 210.416C6.11467 210.672 6.43467 210.869 6.776 211.008C7.128 211.147 7.45867 211.216 7.768 211.216C8.16267 211.216 8.48267 211.109 8.728 210.896C8.97333 210.672 9.096 210.411 9.096 210.112C9.096 209.824 8.97867 209.595 8.744 209.424C8.52 209.243 8.168 209.04 7.688 208.816C7.272 208.624 6.936 208.453 6.68 208.304C6.424 208.144 6.20533 207.931 6.024 207.664C5.84267 207.397 5.752 207.067 5.752 206.672C5.752 206.053 5.976 205.547 6.424 205.152C6.88267 204.757 7.50133 204.56 8.28 204.56ZM12.2819 208.896L12.2339 204.752L13.4659 204.64L13.4339 208.784L13.4659 212H12.2179L12.2819 208.896ZM12.8739 201.392C13.0872 201.392 13.2579 201.456 13.3859 201.584C13.5139 201.712 13.5779 201.888 13.5779 202.112C13.5779 202.347 13.5085 202.533 13.3699 202.672C13.2419 202.811 13.0605 202.88 12.8259 202.88C12.6019 202.88 12.4259 202.816 12.2979 202.688C12.1805 202.56 12.1219 202.379 12.1219 202.144C12.1219 201.92 12.1859 201.739 12.3139 201.6C12.4525 201.461 12.6392 201.392 12.8739 201.392ZM16.8609 204.672H20.1409L20.7489 204.656L20.7809 205.424L16.6849 211.104H19.5809L20.7809 210.992L20.8609 211.104L20.7489 212.032L19.2769 212H16.0769L15.3249 212.032V211.264L19.4369 205.552H16.6689L15.5329 205.68L15.4369 205.568L15.5489 204.64L16.8609 204.672ZM23.0279 208.288V208.32C23.0279 209.216 23.2305 209.904 23.6359 210.384C24.0412 210.864 24.6172 211.104 25.3639 211.104C25.7372 211.104 26.1105 211.045 26.4839 210.928C26.8572 210.8 27.1985 210.624 27.5079 210.4L27.6359 210.496L27.4439 211.584C26.6972 211.947 25.9505 212.128 25.2039 212.128C24.1585 212.128 23.3372 211.797 22.7399 211.136C22.1425 210.464 21.8439 209.547 21.8439 208.384C21.8439 207.211 22.1425 206.277 22.7399 205.584C23.3372 204.891 24.1425 204.544 25.1559 204.544C26.0092 204.544 26.6705 204.789 27.1399 205.28C27.6092 205.76 27.8439 206.432 27.8439 207.296C27.8439 207.584 27.8225 207.856 27.7799 208.112L27.6199 208.272L23.0279 208.288ZM25.1559 205.44C24.6225 205.44 24.1745 205.616 23.8119 205.968C23.4599 206.309 23.2252 206.795 23.1079 207.424L26.6439 207.36L26.6759 207.136C26.6759 206.592 26.5425 206.176 26.2759 205.888C26.0199 205.589 25.6465 205.44 25.1559 205.44ZM35.2035 204.544C36.1955 204.544 36.9635 204.869 37.5075 205.52C38.0622 206.16 38.3395 207.067 38.3395 208.24C38.3395 209.477 38.0515 210.437 37.4755 211.12C36.8995 211.792 36.0782 212.128 35.0115 212.128C34.0088 212.128 33.2302 211.808 32.6755 211.168C32.1315 210.517 31.8595 209.605 31.8595 208.432C31.8595 207.195 32.1475 206.24 32.7235 205.568C33.3102 204.885 34.1368 204.544 35.2035 204.544ZM35.1235 205.44C34.4515 205.44 33.9395 205.669 33.5875 206.128C33.2355 206.587 33.0595 207.259 33.0595 208.144C33.0595 209.168 33.2302 209.936 33.5715 210.448C33.9235 210.96 34.4302 211.216 35.0915 211.216C35.7635 211.216 36.2755 210.992 36.6275 210.544C36.9795 210.096 37.1555 209.424 37.1555 208.528C37.1555 207.515 36.9795 206.747 36.6275 206.224C36.2862 205.701 35.7848 205.44 35.1235 205.44ZM44.7946 207.024C44.8053 206.587 44.704 206.245 44.4906 206C44.2773 205.755 43.9626 205.632 43.5466 205.632C42.8746 205.632 42.1493 206.011 41.3706 206.768V208.784L41.4346 212H40.1706L40.2506 208.896L40.1866 204.752L41.3866 204.64V205.712H41.4826C42.144 205.125 42.8213 204.747 43.5146 204.576C44.3146 204.576 44.9226 204.763 45.3386 205.136C45.7653 205.509 45.9733 206.043 45.9626 206.736L45.9306 208.816L45.9946 212H44.7146L44.7946 207.024ZM53.0613 204.56C53.6693 204.56 54.2559 204.677 54.8213 204.912L54.6453 205.952L54.4533 206C53.9199 205.648 53.4079 205.472 52.9173 205.472C52.5546 205.472 52.2613 205.573 52.0373 205.776C51.8133 205.979 51.7013 206.224 51.7013 206.512C51.7013 206.8 51.8133 207.035 52.0373 207.216C52.2719 207.387 52.6293 207.584 53.1093 207.808C53.5253 208 53.8559 208.176 54.1013 208.336C54.3573 208.485 54.5759 208.688 54.7573 208.944C54.9386 209.2 55.0293 209.515 55.0293 209.888C55.0293 210.283 54.9279 210.651 54.7253 210.992C54.5226 211.333 54.2239 211.611 53.8293 211.824C53.4346 212.027 52.9653 212.128 52.4213 212.128C51.6746 212.128 50.9653 211.952 50.2933 211.6L50.4533 210.512L50.5973 210.416C50.8959 210.672 51.2159 210.869 51.5573 211.008C51.9093 211.147 52.2399 211.216 52.5493 211.216C52.9439 211.216 53.2639 211.109 53.5093 210.896C53.7546 210.672 53.8773 210.411 53.8773 210.112C53.8773 209.824 53.7599 209.595 53.5253 209.424C53.3013 209.243 52.9493 209.04 52.4693 208.816C52.0533 208.624 51.7173 208.453 51.4613 208.304C51.2053 208.144 50.9866 207.931 50.8053 207.664C50.6239 207.397 50.5333 207.067 50.5333 206.672C50.5333 206.053 50.7573 205.547 51.2053 205.152C51.6639 204.757 52.2826 204.56 53.0613 204.56ZM59.6231 204.544C59.9538 204.544 60.2951 204.587 60.6471 204.672C61.0098 204.747 61.3245 204.848 61.5911 204.976L61.3671 206.08L61.2231 206.128C60.6685 205.765 60.1191 205.584 59.5751 205.584C58.9458 205.584 58.4551 205.824 58.1031 206.304C57.7511 206.784 57.5751 207.456 57.5751 208.32C57.5751 209.184 57.7565 209.867 58.1191 210.368C58.4925 210.859 59.0045 211.104 59.6551 211.104C59.9431 211.104 60.2418 211.056 60.5511 210.96C60.8711 210.864 61.1698 210.731 61.4471 210.56L61.5911 210.64L61.4471 211.712C60.7965 211.989 60.1458 212.128 59.4951 212.128C58.5245 212.128 57.7618 211.797 57.2071 211.136C56.6525 210.464 56.3751 209.547 56.3751 208.384C56.3751 207.2 56.6631 206.267 57.2391 205.584C57.8258 204.891 58.6205 204.544 59.6231 204.544ZM66.3588 204.656C66.4868 204.656 66.6254 204.667 66.7748 204.688V205.92L66.6308 205.968C66.4494 205.915 66.2521 205.888 66.0388 205.888C65.6868 205.888 65.3614 206.032 65.0628 206.32C64.7748 206.597 64.4868 207.045 64.1988 207.664L64.1828 208.784L64.2628 212H62.9988L63.0788 208.896L63.0148 204.752L64.2148 204.64L64.1988 206.144H64.2948C64.5934 205.611 64.9241 205.232 65.2868 205.008C65.6494 204.773 66.0068 204.656 66.3588 204.656ZM70.891 204.544C71.883 204.544 72.651 204.869 73.195 205.52C73.7497 206.16 74.027 207.067 74.027 208.24C74.027 209.477 73.739 210.437 73.163 211.12C72.587 211.792 71.7657 212.128 70.699 212.128C69.6963 212.128 68.9177 211.808 68.363 211.168C67.819 210.517 67.547 209.605 67.547 208.432C67.547 207.195 67.835 206.24 68.411 205.568C68.9977 204.885 69.8243 204.544 70.891 204.544ZM70.811 205.44C70.139 205.44 69.627 205.669 69.275 206.128C68.923 206.587 68.747 207.259 68.747 208.144C68.747 209.168 68.9177 209.936 69.259 210.448C69.611 210.96 70.1177 211.216 70.779 211.216C71.451 211.216 71.963 210.992 72.315 210.544C72.667 210.096 72.843 209.424 72.843 208.528C72.843 207.515 72.667 206.747 72.315 206.224C71.9737 205.701 71.4723 205.44 70.811 205.44ZM77.2624 208.784L77.3424 212H76.0784L76.1744 208.88L76.0944 200.88L77.3584 200.768L77.2624 208.784ZM81.2155 208.784L81.2955 212H80.0315L80.1275 208.88L80.0475 200.88L81.3115 200.768L81.2155 208.784ZM88.5613 204.56C89.1693 204.56 89.7559 204.677 90.3213 204.912L90.1453 205.952L89.9533 206C89.4199 205.648 88.9079 205.472 88.4173 205.472C88.0546 205.472 87.7613 205.573 87.5373 205.776C87.3133 205.979 87.2013 206.224 87.2013 206.512C87.2013 206.8 87.3133 207.035 87.5373 207.216C87.7719 207.387 88.1293 207.584 88.6093 207.808C89.0253 208 89.3559 208.176 89.6013 208.336C89.8573 208.485 90.0759 208.688 90.2573 208.944C90.4386 209.2 90.5293 209.515 90.5293 209.888C90.5293 210.283 90.4279 210.651 90.2253 210.992C90.0226 211.333 89.7239 211.611 89.3293 211.824C88.9346 212.027 88.4653 212.128 87.9213 212.128C87.1746 212.128 86.4653 211.952 85.7933 211.6L85.9533 210.512L86.0973 210.416C86.3959 210.672 86.7159 210.869 87.0573 211.008C87.4093 211.147 87.7399 211.216 88.0493 211.216C88.4439 211.216 88.7639 211.109 89.0093 210.896C89.2546 210.672 89.3773 210.411 89.3773 210.112C89.3773 209.824 89.2599 209.595 89.0253 209.424C88.8013 209.243 88.4493 209.04 87.9693 208.816C87.5533 208.624 87.2173 208.453 86.9613 208.304C86.7053 208.144 86.4866 207.931 86.3053 207.664C86.1239 207.397 86.0333 207.067 86.0333 206.672C86.0333 206.053 86.2573 205.547 86.7053 205.152C87.1639 204.757 87.7826 204.56 88.5613 204.56ZM94.7871 211.024C95.1391 211.024 95.5231 210.917 95.9391 210.704L96.0831 210.8L95.9551 211.632C95.3791 211.899 94.8458 212.053 94.3551 212.096C93.7471 211.979 93.3098 211.755 93.0431 211.424C92.7765 211.093 92.6431 210.613 92.6431 209.984L92.6911 208.848L92.6751 205.536H91.6671L91.6031 205.44L91.6831 204.688H92.6591V203.504L93.7631 203.024L93.8911 203.136L93.8591 204.688H96.0351L96.0991 204.784L96.0191 205.536H93.8591L93.7791 209.872C93.7685 210.299 93.8431 210.597 94.0031 210.768C94.1631 210.939 94.4245 211.024 94.7871 211.024ZM100.009 204.544C100.702 204.544 101.246 204.715 101.641 205.056C102.046 205.397 102.249 205.867 102.249 206.464C102.249 206.645 102.217 207.301 102.153 208.432C102.089 209.563 102.057 210.224 102.057 210.416C102.057 210.651 102.094 210.816 102.169 210.912C102.243 210.997 102.371 211.04 102.553 211.04C102.713 211.04 102.894 211.008 103.097 210.944L103.225 211.056L103.097 211.776C102.787 211.957 102.483 212.064 102.185 212.096C101.854 212.064 101.587 211.947 101.385 211.744C101.193 211.541 101.091 211.264 101.081 210.912H100.969C100.393 211.499 99.8218 211.899 99.2565 212.112C98.5418 212.112 97.9818 211.936 97.5765 211.584C97.1818 211.221 96.9845 210.731 96.9845 210.112C96.9845 209.643 97.1072 209.269 97.3525 208.992C97.6085 208.715 97.9818 208.517 98.4725 208.4L101.065 207.792L101.081 206.752C101.081 206.336 100.969 206.016 100.745 205.792C100.531 205.568 100.222 205.456 99.8165 205.456C99.4538 205.456 99.0912 205.541 98.7285 205.712C98.3658 205.883 97.9765 206.149 97.5605 206.512L97.4325 206.448L97.2725 205.536C98.1578 204.875 99.0698 204.544 100.009 204.544ZM98.7285 209.168C98.5152 209.232 98.3605 209.323 98.2645 209.44C98.1685 209.547 98.1205 209.712 98.1205 209.936C98.1205 210.288 98.2165 210.565 98.4085 210.768C98.6112 210.96 98.8778 211.056 99.2085 211.056C99.7952 211.056 100.393 210.677 101.001 209.92L101.049 208.608L98.7285 209.168ZM108.187 204.656C108.315 204.656 108.454 204.667 108.603 204.688V205.92L108.459 205.968C108.278 205.915 108.08 205.888 107.867 205.888C107.515 205.888 107.19 206.032 106.891 206.32C106.603 206.597 106.315 207.045 106.027 207.664L106.011 208.784L106.091 212H104.827L104.907 208.896L104.843 204.752L106.043 204.64L106.027 206.144H106.123C106.422 205.611 106.752 205.232 107.115 205.008C107.478 204.773 107.835 204.656 108.187 204.656ZM112.303 211.024C112.655 211.024 113.039 210.917 113.455 210.704L113.599 210.8L113.471 211.632C112.895 211.899 112.361 212.053 111.871 212.096C111.263 211.979 110.825 211.755 110.559 211.424C110.292 211.093 110.159 210.613 110.159 209.984L110.207 208.848L110.191 205.536H109.183L109.119 205.44L109.199 204.688H110.175V203.504L111.279 203.024L111.407 203.136L111.375 204.688H113.551L113.615 204.784L113.535 205.536H111.375L111.295 209.872C111.284 210.299 111.359 210.597 111.519 210.768C111.679 210.939 111.94 211.024 112.303 211.024Z" fill="#333333"/>
<circle cx="17" cy="12" r="12" fill="#C50063"/>
<path d="M14.2283 7.76V17H12.3523V10.112C12.3523 9.96267 12.357 9.846 12.3663 9.762C12.0303 10.07 11.6663 10.3313 11.2743 10.546C10.8917 10.7607 10.5043 10.9053 10.1123 10.98L9.86033 9.356C10.2897 9.30933 10.803 9.118 11.4003 8.782C12.007 8.43667 12.427 8.096 12.6603 7.76H14.2283ZM23.3806 15.838C23.5766 15.838 23.7353 15.8193 23.8566 15.782L23.7166 16.944C23.4553 17.0747 23.1519 17.14 22.8066 17.14C21.9106 17.14 21.3739 16.79 21.1966 16.09C20.9913 16.4353 20.6739 16.6967 20.2446 16.874C19.8153 17.0513 19.3066 17.14 18.7186 17.14C18.0373 17.14 17.5053 16.986 17.1226 16.678C16.7399 16.37 16.5486 15.9267 16.5486 15.348C16.5486 14.2093 17.4586 13.472 19.2786 13.136L20.9586 12.814V12.478C20.9586 12.1047 20.8513 11.8107 20.6366 11.596C20.4313 11.372 20.1419 11.26 19.7686 11.26C19.3393 11.26 18.9893 11.3533 18.7186 11.54C18.4479 11.7267 18.2613 12.03 18.1586 12.45L16.6326 11.806C16.7819 11.1993 17.1179 10.7233 17.6406 10.378C18.1633 10.0327 18.8446 9.86 19.6846 9.86C20.6833 9.86 21.4626 10.0793 22.0226 10.518C22.5826 10.9473 22.8626 11.5867 22.8626 12.436V15.306C22.8626 15.4927 22.9046 15.628 22.9886 15.712C23.0726 15.796 23.2033 15.838 23.3806 15.838ZM19.3206 15.838C19.7313 15.838 20.1046 15.74 20.4406 15.544C20.7859 15.3387 20.9586 15.0633 20.9586 14.718V13.99L19.4606 14.326C19.1433 14.4007 18.9053 14.5033 18.7466 14.634C18.5973 14.7553 18.5226 14.928 18.5226 15.152C18.5226 15.376 18.5926 15.5487 18.7326 15.67C18.8726 15.782 19.0686 15.838 19.3206 15.838Z" fill="#F2F2F2"/>
<circle cx="185" cy="12" r="12" fill="#C50063"/>
<path d="M181.846 7.76V17H179.97V10.112C179.97 9.96267 179.974 9.846 179.984 9.762C179.648 10.07 179.284 10.3313 178.892 10.546C178.509 10.7607 178.122 10.9053 177.73 10.98L177.478 9.356C177.907 9.30933 178.42 9.118 179.018 8.782C179.624 8.43667 180.044 8.096 180.278 7.76H181.846ZM188.716 9.86C189.649 9.86 190.382 10.182 190.914 10.826C191.446 11.47 191.712 12.366 191.712 13.514C191.712 14.6527 191.446 15.544 190.914 16.188C190.382 16.8227 189.649 17.14 188.716 17.14C188.165 17.14 187.684 17.0047 187.274 16.734C186.872 16.454 186.569 16.0807 186.364 15.614L186.294 17H184.6V6.934H186.518V11.148C186.732 10.7467 187.026 10.434 187.4 10.21C187.773 9.97667 188.212 9.86 188.716 9.86ZM188.142 15.67C188.664 15.67 189.07 15.4833 189.36 15.11C189.649 14.7367 189.794 14.2 189.794 13.5C189.794 12.8 189.649 12.2633 189.36 11.89C189.07 11.5167 188.664 11.33 188.142 11.33C187.675 11.33 187.297 11.4933 187.008 11.82C186.718 12.1467 186.555 12.604 186.518 13.192V13.808C186.555 14.4053 186.718 14.8673 187.008 15.194C187.297 15.5113 187.675 15.67 188.142 15.67Z" fill="#F2F2F2"/>
<path d="M180.504 155.872L180.408 156.864L178.616 156.768H177.576L177.528 162.8L177.576 166H176.28L176.376 162.912L176.296 156.768H175.256L173.432 156.864L173.352 156.736L173.448 155.744H180.408L180.504 155.872ZM183.477 158.544C184.171 158.544 184.715 158.715 185.109 159.056C185.515 159.397 185.717 159.867 185.717 160.464C185.717 160.645 185.685 161.301 185.621 162.432C185.557 163.563 185.525 164.224 185.525 164.416C185.525 164.651 185.563 164.816 185.637 164.912C185.712 164.997 185.84 165.04 186.021 165.04C186.181 165.04 186.363 165.008 186.565 164.944L186.693 165.056L186.565 165.776C186.256 165.957 185.952 166.064 185.653 166.096C185.323 166.064 185.056 165.947 184.853 165.744C184.661 165.541 184.56 165.264 184.549 164.912H184.437C183.861 165.499 183.291 165.899 182.725 166.112C182.011 166.112 181.451 165.936 181.045 165.584C180.651 165.221 180.453 164.731 180.453 164.112C180.453 163.643 180.576 163.269 180.821 162.992C181.077 162.715 181.451 162.517 181.941 162.4L184.533 161.792L184.549 160.752C184.549 160.336 184.437 160.016 184.213 159.792C184 159.568 183.691 159.456 183.285 159.456C182.923 159.456 182.56 159.541 182.197 159.712C181.835 159.883 181.445 160.149 181.029 160.512L180.901 160.448L180.741 159.536C181.627 158.875 182.539 158.544 183.477 158.544ZM182.197 163.168C181.984 163.232 181.829 163.323 181.733 163.44C181.637 163.547 181.589 163.712 181.589 163.936C181.589 164.288 181.685 164.565 181.877 164.768C182.08 164.96 182.347 165.056 182.677 165.056C183.264 165.056 183.861 164.677 184.469 163.92L184.517 162.608L182.197 163.168ZM191.86 158.592C192.788 158.592 193.492 158.901 193.972 159.52C194.463 160.128 194.708 160.992 194.708 162.112C194.708 163.392 194.399 164.384 193.78 165.088C193.161 165.781 192.297 166.128 191.188 166.128C190.676 166.128 190.153 166.011 189.62 165.776L188.74 166.176L188.516 166.048L188.612 162.928L188.532 154.88L189.796 154.768L189.748 159.68H189.844C190.207 159.381 190.537 159.152 190.836 158.992C191.135 158.832 191.476 158.699 191.86 158.592ZM191.3 165.2C191.983 165.2 192.521 164.96 192.916 164.48C193.311 164 193.508 163.291 193.508 162.352C193.508 161.488 193.353 160.821 193.044 160.352C192.745 159.872 192.313 159.632 191.748 159.632C191.417 159.632 191.087 159.723 190.756 159.904C190.436 160.085 190.095 160.368 189.732 160.752L189.716 162.784L189.764 164.688C190.276 165.029 190.788 165.2 191.3 165.2ZM202.719 158.592C203.647 158.592 204.351 158.901 204.831 159.52C205.322 160.128 205.567 160.992 205.567 162.112C205.567 163.392 205.258 164.384 204.639 165.088C204.021 165.781 203.157 166.128 202.047 166.128C201.535 166.128 201.013 166.011 200.479 165.776L199.599 166.176L199.375 166.048L199.471 162.928L199.391 154.88L200.655 154.768L200.607 159.68H200.703C201.066 159.381 201.397 159.152 201.695 158.992C201.994 158.832 202.335 158.699 202.719 158.592ZM202.159 165.2C202.842 165.2 203.381 164.96 203.775 164.48C204.17 164 204.367 163.291 204.367 162.352C204.367 161.488 204.213 160.821 203.903 160.352C203.605 159.872 203.173 159.632 202.607 159.632C202.277 159.632 201.946 159.723 201.615 159.904C201.295 160.085 200.954 160.368 200.591 160.752L200.575 162.784L200.623 164.688C201.135 165.029 201.647 165.2 202.159 165.2ZM209.946 158.544C210.639 158.544 211.183 158.715 211.578 159.056C211.983 159.397 212.186 159.867 212.186 160.464C212.186 160.645 212.154 161.301 212.09 162.432C212.026 163.563 211.994 164.224 211.994 164.416C211.994 164.651 212.031 164.816 212.106 164.912C212.181 164.997 212.309 165.04 212.49 165.04C212.65 165.04 212.831 165.008 213.034 164.944L213.162 165.056L213.034 165.776C212.725 165.957 212.421 166.064 212.122 166.096C211.791 166.064 211.525 165.947 211.322 165.744C211.13 165.541 211.029 165.264 211.018 164.912H210.906C210.33 165.499 209.759 165.899 209.194 166.112C208.479 166.112 207.919 165.936 207.514 165.584C207.119 165.221 206.922 164.731 206.922 164.112C206.922 163.643 207.045 163.269 207.29 162.992C207.546 162.715 207.919 162.517 208.41 162.4L211.002 161.792L211.018 160.752C211.018 160.336 210.906 160.016 210.682 159.792C210.469 159.568 210.159 159.456 209.754 159.456C209.391 159.456 209.029 159.541 208.666 159.712C208.303 159.883 207.914 160.149 207.498 160.512L207.37 160.448L207.21 159.536C208.095 158.875 209.007 158.544 209.946 158.544ZM208.666 163.168C208.453 163.232 208.298 163.323 208.202 163.44C208.106 163.547 208.058 163.712 208.058 163.936C208.058 164.288 208.154 164.565 208.346 164.768C208.549 164.96 208.815 165.056 209.146 165.056C209.733 165.056 210.33 164.677 210.938 163.92L210.986 162.608L208.666 163.168ZM218.124 158.656C218.252 158.656 218.391 158.667 218.54 158.688V159.92L218.396 159.968C218.215 159.915 218.018 159.888 217.804 159.888C217.452 159.888 217.127 160.032 216.828 160.32C216.54 160.597 216.252 161.045 215.964 161.664L215.948 162.784L216.028 166H214.764L214.844 162.896L214.78 158.752L215.98 158.64L215.964 160.144H216.06C216.359 159.611 216.69 159.232 217.052 159.008C217.415 158.773 217.772 158.656 218.124 158.656ZM221.936 158.56C222.544 158.56 223.131 158.677 223.696 158.912L223.52 159.952L223.328 160C222.795 159.648 222.283 159.472 221.792 159.472C221.43 159.472 221.136 159.573 220.912 159.776C220.688 159.979 220.576 160.224 220.576 160.512C220.576 160.8 220.688 161.035 220.912 161.216C221.147 161.387 221.504 161.584 221.984 161.808C222.4 162 222.731 162.176 222.976 162.336C223.232 162.485 223.451 162.688 223.632 162.944C223.814 163.2 223.904 163.515 223.904 163.888C223.904 164.283 223.803 164.651 223.6 164.992C223.398 165.333 223.099 165.611 222.704 165.824C222.31 166.027 221.84 166.128 221.296 166.128C220.55 166.128 219.84 165.952 219.168 165.6L219.328 164.512L219.472 164.416C219.771 164.672 220.091 164.869 220.432 165.008C220.784 165.147 221.115 165.216 221.424 165.216C221.819 165.216 222.139 165.109 222.384 164.896C222.63 164.672 222.752 164.411 222.752 164.112C222.752 163.824 222.635 163.595 222.4 163.424C222.176 163.243 221.824 163.04 221.344 162.816C220.928 162.624 220.592 162.453 220.336 162.304C220.08 162.144 219.862 161.931 219.68 161.664C219.499 161.397 219.408 161.067 219.408 160.672C219.408 160.053 219.632 159.547 220.08 159.152C220.539 158.757 221.158 158.56 221.936 158.56ZM233.187 161.024C233.197 160.587 233.096 160.245 232.883 160C232.669 159.755 232.355 159.632 231.939 159.632C231.235 159.632 230.515 160.011 229.779 160.768L229.747 162.784L229.827 166H228.563L228.659 162.88L228.579 154.88L229.843 154.768L229.779 159.712H229.875C230.536 159.125 231.213 158.747 231.907 158.576C232.717 158.576 233.331 158.763 233.747 159.136C234.163 159.509 234.365 160.043 234.355 160.736L234.323 162.816L234.387 166H233.107L233.187 161.024ZM236.891 162.896L236.843 158.752L238.075 158.64L238.043 162.784L238.075 166H236.827L236.891 162.896ZM237.483 155.392C237.697 155.392 237.867 155.456 237.995 155.584C238.123 155.712 238.187 155.888 238.187 156.112C238.187 156.347 238.118 156.533 237.979 156.672C237.851 156.811 237.67 156.88 237.435 156.88C237.211 156.88 237.035 156.816 236.907 156.688C236.79 156.56 236.731 156.379 236.731 156.144C236.731 155.92 236.795 155.739 236.923 155.6C237.062 155.461 237.249 155.392 237.483 155.392ZM246.174 162.784L246.222 164.432C246.233 164.656 246.27 164.816 246.334 164.912C246.398 164.997 246.516 165.04 246.686 165.04C246.857 165.04 247.038 165.008 247.23 164.944L247.358 165.056L247.23 165.776C246.942 165.957 246.644 166.064 246.334 166.096C246.004 166.064 245.742 165.952 245.55 165.76C245.369 165.568 245.257 165.307 245.214 164.976H245.102C244.782 165.253 244.494 165.477 244.238 165.648C243.982 165.808 243.689 165.952 243.358 166.08C242.302 166.08 241.492 165.76 240.926 165.12C240.361 164.469 240.078 163.547 240.078 162.352C240.078 161.147 240.393 160.213 241.022 159.552C241.652 158.88 242.521 158.544 243.63 158.544C244.132 158.544 244.601 158.597 245.038 158.704L245.022 154.88L246.286 154.768L246.174 162.784ZM243.486 159.44C242.804 159.44 242.265 159.675 241.87 160.144C241.476 160.603 241.278 161.269 241.278 162.144C241.278 163.051 241.454 163.755 241.806 164.256C242.169 164.757 242.665 165.008 243.294 165.008C243.593 165.008 243.881 164.933 244.158 164.784C244.446 164.635 244.745 164.384 245.054 164.032L245.086 162.88L245.038 159.84C244.473 159.573 243.956 159.44 243.486 159.44ZM249.544 162.288V162.32C249.544 163.216 249.746 163.904 250.152 164.384C250.557 164.864 251.133 165.104 251.88 165.104C252.253 165.104 252.626 165.045 253 164.928C253.373 164.8 253.714 164.624 254.024 164.4L254.152 164.496L253.96 165.584C253.213 165.947 252.466 166.128 251.72 166.128C250.674 166.128 249.853 165.797 249.256 165.136C248.658 164.464 248.36 163.547 248.36 162.384C248.36 161.211 248.658 160.277 249.256 159.584C249.853 158.891 250.658 158.544 251.672 158.544C252.525 158.544 253.186 158.789 253.656 159.28C254.125 159.76 254.36 160.432 254.36 161.296C254.36 161.584 254.338 161.856 254.296 162.112L254.136 162.272L249.544 162.288ZM251.672 159.44C251.138 159.44 250.69 159.616 250.328 159.968C249.976 160.309 249.741 160.795 249.624 161.424L253.16 161.36L253.192 161.136C253.192 160.592 253.058 160.176 252.792 159.888C252.536 159.589 252.162 159.44 251.672 159.44ZM259.063 162.896L259.015 158.752L260.247 158.64L260.215 162.784L260.247 166H258.999L259.063 162.896ZM259.655 155.392C259.868 155.392 260.039 155.456 260.167 155.584C260.295 155.712 260.359 155.888 260.359 156.112C260.359 156.347 260.29 156.533 260.151 156.672C260.023 156.811 259.842 156.88 259.607 156.88C259.383 156.88 259.207 156.816 259.079 156.688C258.962 156.56 258.903 156.379 258.903 156.144C258.903 155.92 258.967 155.739 259.095 155.6C259.234 155.461 259.42 155.392 259.655 155.392ZM265.162 165.024C265.514 165.024 265.898 164.917 266.314 164.704L266.458 164.8L266.33 165.632C265.754 165.899 265.221 166.053 264.73 166.096C264.122 165.979 263.685 165.755 263.418 165.424C263.151 165.093 263.018 164.613 263.018 163.984L263.066 162.848L263.05 159.536H262.042L261.978 159.44L262.058 158.688H263.034V157.504L264.138 157.024L264.266 157.136L264.234 158.688H266.41L266.474 158.784L266.394 159.536H264.234L264.154 163.872C264.143 164.299 264.218 164.597 264.378 164.768C264.538 164.939 264.799 165.024 265.162 165.024ZM269.968 158.56C270.576 158.56 271.162 158.677 271.728 158.912L271.552 159.952L271.36 160C270.826 159.648 270.314 159.472 269.824 159.472C269.461 159.472 269.168 159.573 268.944 159.776C268.72 159.979 268.608 160.224 268.608 160.512C268.608 160.8 268.72 161.035 268.944 161.216C269.178 161.387 269.536 161.584 270.016 161.808C270.432 162 270.762 162.176 271.008 162.336C271.264 162.485 271.482 162.688 271.664 162.944C271.845 163.2 271.936 163.515 271.936 163.888C271.936 164.283 271.834 164.651 271.632 164.992C271.429 165.333 271.13 165.611 270.736 165.824C270.341 166.027 269.872 166.128 269.328 166.128C268.581 166.128 267.872 165.952 267.2 165.6L267.36 164.512L267.504 164.416C267.802 164.672 268.122 164.869 268.464 165.008C268.816 165.147 269.146 165.216 269.456 165.216C269.85 165.216 270.17 165.109 270.416 164.896C270.661 164.672 270.784 164.411 270.784 164.112C270.784 163.824 270.666 163.595 270.432 163.424C270.208 163.243 269.856 163.04 269.376 162.816C268.96 162.624 268.624 162.453 268.368 162.304C268.112 162.144 267.893 161.931 267.712 161.664C267.53 161.397 267.44 161.067 267.44 160.672C267.44 160.053 267.664 159.547 268.112 159.152C268.57 158.757 269.189 158.56 269.968 158.56ZM274.465 162.288V162.32C274.465 163.216 274.668 163.904 275.073 164.384C275.479 164.864 276.055 165.104 276.801 165.104C277.175 165.104 277.548 165.045 277.921 164.928C278.295 164.8 278.636 164.624 278.945 164.4L279.073 164.496L278.881 165.584C278.135 165.947 277.388 166.128 276.641 166.128C275.596 166.128 274.775 165.797 274.177 165.136C273.58 164.464 273.281 163.547 273.281 162.384C273.281 161.211 273.58 160.277 274.177 159.584C274.775 158.891 275.58 158.544 276.593 158.544C277.447 158.544 278.108 158.789 278.577 159.28C279.047 159.76 279.281 160.432 279.281 161.296C279.281 161.584 279.26 161.856 279.217 162.112L279.057 162.272L274.465 162.288ZM276.593 159.44C276.06 159.44 275.612 159.616 275.249 159.968C274.897 160.309 274.663 160.795 274.545 161.424L278.081 161.36L278.113 161.136C278.113 160.592 277.98 160.176 277.713 159.888C277.457 159.589 277.084 159.44 276.593 159.44ZM282.512 162.784L282.592 166H281.328L281.424 162.88L281.344 154.88L282.608 154.768L282.512 162.784ZM288.29 154.736C288.674 154.736 289.09 154.784 289.538 154.88L289.442 155.872L289.346 155.952C288.962 155.76 288.572 155.664 288.178 155.664C287.762 155.664 287.442 155.797 287.218 156.064C286.994 156.32 286.876 156.704 286.866 157.216L286.85 158.688H288.77L288.818 158.784L288.738 159.536H286.834L286.802 162.784L286.882 166H285.618L285.714 162.88L285.682 159.536H284.578L284.514 159.44L284.594 158.688H285.682L285.666 157.408C285.655 156.544 285.879 155.883 286.338 155.424C286.796 154.965 287.447 154.736 288.29 154.736ZM295.438 158.544C296.43 158.544 297.198 158.869 297.742 159.52C298.297 160.16 298.574 161.067 298.574 162.24C298.574 163.477 298.286 164.437 297.71 165.12C297.134 165.792 296.313 166.128 295.246 166.128C294.243 166.128 293.465 165.808 292.91 165.168C292.366 164.517 292.094 163.605 292.094 162.432C292.094 161.195 292.382 160.24 292.958 159.568C293.545 158.885 294.371 158.544 295.438 158.544ZM295.358 159.44C294.686 159.44 294.174 159.669 293.822 160.128C293.47 160.587 293.294 161.259 293.294 162.144C293.294 163.168 293.465 163.936 293.806 164.448C294.158 164.96 294.665 165.216 295.326 165.216C295.998 165.216 296.51 164.992 296.862 164.544C297.214 164.096 297.39 163.424 297.39 162.528C297.39 161.515 297.214 160.747 296.862 160.224C296.521 159.701 296.019 159.44 295.358 159.44ZM305.029 161.024C305.04 160.587 304.938 160.245 304.725 160C304.512 159.755 304.197 159.632 303.781 159.632C303.109 159.632 302.384 160.011 301.605 160.768V162.784L301.669 166H300.405L300.485 162.896L300.421 158.752L301.621 158.64V159.712H301.717C302.378 159.125 303.056 158.747 303.749 158.576C304.549 158.576 305.157 158.763 305.573 159.136C306 159.509 306.208 160.043 306.197 160.736L306.165 162.816L306.229 166H304.949L305.029 161.024ZM176.28 181.56C176.888 181.56 177.475 181.677 178.04 181.912L177.864 182.952L177.672 183C177.139 182.648 176.627 182.472 176.136 182.472C175.773 182.472 175.48 182.573 175.256 182.776C175.032 182.979 174.92 183.224 174.92 183.512C174.92 183.8 175.032 184.035 175.256 184.216C175.491 184.387 175.848 184.584 176.328 184.808C176.744 185 177.075 185.176 177.32 185.336C177.576 185.485 177.795 185.688 177.976 185.944C178.157 186.2 178.248 186.515 178.248 186.888C178.248 187.283 178.147 187.651 177.944 187.992C177.741 188.333 177.443 188.611 177.048 188.824C176.653 189.027 176.184 189.128 175.64 189.128C174.893 189.128 174.184 188.952 173.512 188.6L173.672 187.512L173.816 187.416C174.115 187.672 174.435 187.869 174.776 188.008C175.128 188.147 175.459 188.216 175.768 188.216C176.163 188.216 176.483 188.109 176.728 187.896C176.973 187.672 177.096 187.411 177.096 187.112C177.096 186.824 176.979 186.595 176.744 186.424C176.52 186.243 176.168 186.04 175.688 185.816C175.272 185.624 174.936 185.453 174.68 185.304C174.424 185.144 174.205 184.931 174.024 184.664C173.843 184.397 173.752 184.067 173.752 183.672C173.752 183.053 173.976 182.547 174.424 182.152C174.883 181.757 175.501 181.56 176.28 181.56ZM182.842 181.544C183.173 181.544 183.514 181.587 183.866 181.672C184.229 181.747 184.543 181.848 184.81 181.976L184.586 183.08L184.442 183.128C183.887 182.765 183.338 182.584 182.794 182.584C182.165 182.584 181.674 182.824 181.322 183.304C180.97 183.784 180.794 184.456 180.794 185.32C180.794 186.184 180.975 186.867 181.338 187.368C181.711 187.859 182.223 188.104 182.874 188.104C183.162 188.104 183.461 188.056 183.77 187.96C184.09 187.864 184.389 187.731 184.666 187.56L184.81 187.64L184.666 188.712C184.015 188.989 183.365 189.128 182.714 189.128C181.743 189.128 180.981 188.797 180.426 188.136C179.871 187.464 179.594 186.547 179.594 185.384C179.594 184.2 179.882 183.267 180.458 182.584C181.045 181.891 181.839 181.544 182.842 181.544ZM189.578 181.656C189.706 181.656 189.844 181.667 189.994 181.688V182.92L189.85 182.968C189.668 182.915 189.471 182.888 189.258 182.888C188.906 182.888 188.58 183.032 188.282 183.32C187.994 183.597 187.706 184.045 187.418 184.664L187.402 185.784L187.482 189H186.218L186.298 185.896L186.234 181.752L187.434 181.64L187.418 183.144H187.514C187.812 182.611 188.143 182.232 188.506 182.008C188.868 181.773 189.226 181.656 189.578 181.656ZM194.11 181.544C195.102 181.544 195.87 181.869 196.414 182.52C196.968 183.16 197.246 184.067 197.246 185.24C197.246 186.477 196.958 187.437 196.382 188.12C195.806 188.792 194.984 189.128 193.918 189.128C192.915 189.128 192.136 188.808 191.582 188.168C191.038 187.517 190.766 186.605 190.766 185.432C190.766 184.195 191.054 183.24 191.63 182.568C192.216 181.885 193.043 181.544 194.11 181.544ZM194.03 182.44C193.358 182.44 192.846 182.669 192.494 183.128C192.142 183.587 191.966 184.259 191.966 185.144C191.966 186.168 192.136 186.936 192.478 187.448C192.83 187.96 193.336 188.216 193.998 188.216C194.67 188.216 195.182 187.992 195.534 187.544C195.886 187.096 196.062 186.424 196.062 185.528C196.062 184.515 195.886 183.747 195.534 183.224C195.192 182.701 194.691 182.44 194.03 182.44ZM200.481 185.784L200.561 189H199.297L199.393 185.88L199.313 177.88L200.577 177.768L200.481 185.784ZM204.434 185.784L204.514 189H203.25L203.346 185.88L203.266 177.88L204.53 177.768L204.434 185.784ZM211.78 181.56C212.388 181.56 212.975 181.677 213.54 181.912L213.364 182.952L213.172 183C212.639 182.648 212.127 182.472 211.636 182.472C211.273 182.472 210.98 182.573 210.756 182.776C210.532 182.979 210.42 183.224 210.42 183.512C210.42 183.8 210.532 184.035 210.756 184.216C210.991 184.387 211.348 184.584 211.828 184.808C212.244 185 212.575 185.176 212.82 185.336C213.076 185.485 213.295 185.688 213.476 185.944C213.657 186.2 213.748 186.515 213.748 186.888C213.748 187.283 213.647 187.651 213.444 187.992C213.241 188.333 212.943 188.611 212.548 188.824C212.153 189.027 211.684 189.128 211.14 189.128C210.393 189.128 209.684 188.952 209.012 188.6L209.172 187.512L209.316 187.416C209.615 187.672 209.935 187.869 210.276 188.008C210.628 188.147 210.959 188.216 211.268 188.216C211.663 188.216 211.983 188.109 212.228 187.896C212.473 187.672 212.596 187.411 212.596 187.112C212.596 186.824 212.479 186.595 212.244 186.424C212.02 186.243 211.668 186.04 211.188 185.816C210.772 185.624 210.436 185.453 210.18 185.304C209.924 185.144 209.705 184.931 209.524 184.664C209.343 184.397 209.252 184.067 209.252 183.672C209.252 183.053 209.476 182.547 209.924 182.152C210.383 181.757 211.001 181.56 211.78 181.56ZM218.006 188.024C218.358 188.024 218.742 187.917 219.158 187.704L219.302 187.8L219.174 188.632C218.598 188.899 218.065 189.053 217.574 189.096C216.966 188.979 216.529 188.755 216.262 188.424C215.995 188.093 215.862 187.613 215.862 186.984L215.91 185.848L215.894 182.536H214.886L214.822 182.44L214.902 181.688H215.878V180.504L216.982 180.024L217.11 180.136L217.078 181.688H219.254L219.318 181.784L219.238 182.536H217.078L216.998 186.872C216.987 187.299 217.062 187.597 217.222 187.768C217.382 187.939 217.643 188.024 218.006 188.024ZM223.227 181.544C223.921 181.544 224.465 181.715 224.859 182.056C225.265 182.397 225.467 182.867 225.467 183.464C225.467 183.645 225.435 184.301 225.371 185.432C225.307 186.563 225.275 187.224 225.275 187.416C225.275 187.651 225.313 187.816 225.387 187.912C225.462 187.997 225.59 188.04 225.771 188.04C225.931 188.04 226.113 188.008 226.315 187.944L226.443 188.056L226.315 188.776C226.006 188.957 225.702 189.064 225.403 189.096C225.073 189.064 224.806 188.947 224.603 188.744C224.411 188.541 224.31 188.264 224.299 187.912H224.187C223.611 188.499 223.041 188.899 222.475 189.112C221.761 189.112 221.201 188.936 220.795 188.584C220.401 188.221 220.203 187.731 220.203 187.112C220.203 186.643 220.326 186.269 220.571 185.992C220.827 185.715 221.201 185.517 221.691 185.4L224.283 184.792L224.299 183.752C224.299 183.336 224.187 183.016 223.963 182.792C223.75 182.568 223.441 182.456 223.035 182.456C222.673 182.456 222.31 182.541 221.947 182.712C221.585 182.883 221.195 183.149 220.779 183.512L220.651 183.448L220.491 182.536C221.377 181.875 222.289 181.544 223.227 181.544ZM221.947 186.168C221.734 186.232 221.579 186.323 221.483 186.44C221.387 186.547 221.339 186.712 221.339 186.936C221.339 187.288 221.435 187.565 221.627 187.768C221.83 187.96 222.097 188.056 222.427 188.056C223.014 188.056 223.611 187.677 224.219 186.92L224.267 185.608L221.947 186.168ZM231.406 181.656C231.534 181.656 231.672 181.667 231.822 181.688V182.92L231.678 182.968C231.496 182.915 231.299 182.888 231.086 182.888C230.734 182.888 230.408 183.032 230.11 183.32C229.822 183.597 229.534 184.045 229.246 184.664L229.23 185.784L229.31 189H228.046L228.126 185.896L228.062 181.752L229.262 181.64L229.246 183.144H229.342C229.64 182.611 229.971 182.232 230.334 182.008C230.696 181.773 231.054 181.656 231.406 181.656ZM235.522 188.024C235.874 188.024 236.258 187.917 236.674 187.704L236.818 187.8L236.69 188.632C236.114 188.899 235.58 189.053 235.09 189.096C234.482 188.979 234.044 188.755 233.778 188.424C233.511 188.093 233.378 187.613 233.378 186.984L233.426 185.848L233.41 182.536H232.402L232.338 182.44L232.418 181.688H233.394V180.504L234.498 180.024L234.626 180.136L234.594 181.688H236.77L236.834 181.784L236.754 182.536H234.594L234.514 186.872C234.503 187.299 234.578 187.597 234.738 187.768C234.898 187.939 235.159 188.024 235.522 188.024Z" fill="#333333"/>
<path d="M173 48V128H288.455" stroke="#BDBDBD" stroke-width="0.5"/>
<g filter="url(#filter1_d)">
<path d="M173 127.333C209.08 127.333 221.756 121.585 228.917 89.0345C236.944 52.5455 259.992 48 288.455 48" stroke="#C50063" stroke-linecap="round"/>
</g>
<path d="M348.504 155.872L348.408 156.864L346.616 156.768H345.576L345.528 162.8L345.576 166H344.28L344.376 162.912L344.296 156.768H343.256L341.432 156.864L341.352 156.736L341.448 155.744H348.408L348.504 155.872ZM351.477 158.544C352.171 158.544 352.715 158.715 353.109 159.056C353.515 159.397 353.717 159.867 353.717 160.464C353.717 160.645 353.685 161.301 353.621 162.432C353.557 163.563 353.525 164.224 353.525 164.416C353.525 164.651 353.563 164.816 353.637 164.912C353.712 164.997 353.84 165.04 354.021 165.04C354.181 165.04 354.363 165.008 354.565 164.944L354.693 165.056L354.565 165.776C354.256 165.957 353.952 166.064 353.653 166.096C353.323 166.064 353.056 165.947 352.853 165.744C352.661 165.541 352.56 165.264 352.549 164.912H352.437C351.861 165.499 351.291 165.899 350.725 166.112C350.011 166.112 349.451 165.936 349.045 165.584C348.651 165.221 348.453 164.731 348.453 164.112C348.453 163.643 348.576 163.269 348.821 162.992C349.077 162.715 349.451 162.517 349.941 162.4L352.533 161.792L352.549 160.752C352.549 160.336 352.437 160.016 352.213 159.792C352 159.568 351.691 159.456 351.285 159.456C350.923 159.456 350.56 159.541 350.197 159.712C349.835 159.883 349.445 160.149 349.029 160.512L348.901 160.448L348.741 159.536C349.627 158.875 350.539 158.544 351.477 158.544ZM350.197 163.168C349.984 163.232 349.829 163.323 349.733 163.44C349.637 163.547 349.589 163.712 349.589 163.936C349.589 164.288 349.685 164.565 349.877 164.768C350.08 164.96 350.347 165.056 350.677 165.056C351.264 165.056 351.861 164.677 352.469 163.92L352.517 162.608L350.197 163.168ZM359.86 158.592C360.788 158.592 361.492 158.901 361.972 159.52C362.463 160.128 362.708 160.992 362.708 162.112C362.708 163.392 362.399 164.384 361.78 165.088C361.161 165.781 360.297 166.128 359.188 166.128C358.676 166.128 358.153 166.011 357.62 165.776L356.74 166.176L356.516 166.048L356.612 162.928L356.532 154.88L357.796 154.768L357.748 159.68H357.844C358.207 159.381 358.537 159.152 358.836 158.992C359.135 158.832 359.476 158.699 359.86 158.592ZM359.3 165.2C359.983 165.2 360.521 164.96 360.916 164.48C361.311 164 361.508 163.291 361.508 162.352C361.508 161.488 361.353 160.821 361.044 160.352C360.745 159.872 360.313 159.632 359.748 159.632C359.417 159.632 359.087 159.723 358.756 159.904C358.436 160.085 358.095 160.368 357.732 160.752L357.716 162.784L357.764 164.688C358.276 165.029 358.788 165.2 359.3 165.2ZM370.719 158.592C371.647 158.592 372.351 158.901 372.831 159.52C373.322 160.128 373.567 160.992 373.567 162.112C373.567 163.392 373.258 164.384 372.639 165.088C372.021 165.781 371.157 166.128 370.047 166.128C369.535 166.128 369.013 166.011 368.479 165.776L367.599 166.176L367.375 166.048L367.471 162.928L367.391 154.88L368.655 154.768L368.607 159.68H368.703C369.066 159.381 369.397 159.152 369.695 158.992C369.994 158.832 370.335 158.699 370.719 158.592ZM370.159 165.2C370.842 165.2 371.381 164.96 371.775 164.48C372.17 164 372.367 163.291 372.367 162.352C372.367 161.488 372.213 160.821 371.903 160.352C371.605 159.872 371.173 159.632 370.607 159.632C370.277 159.632 369.946 159.723 369.615 159.904C369.295 160.085 368.954 160.368 368.591 160.752L368.575 162.784L368.623 164.688C369.135 165.029 369.647 165.2 370.159 165.2ZM377.946 158.544C378.639 158.544 379.183 158.715 379.578 159.056C379.983 159.397 380.186 159.867 380.186 160.464C380.186 160.645 380.154 161.301 380.09 162.432C380.026 163.563 379.994 164.224 379.994 164.416C379.994 164.651 380.031 164.816 380.106 164.912C380.181 164.997 380.309 165.04 380.49 165.04C380.65 165.04 380.831 165.008 381.034 164.944L381.162 165.056L381.034 165.776C380.725 165.957 380.421 166.064 380.122 166.096C379.791 166.064 379.525 165.947 379.322 165.744C379.13 165.541 379.029 165.264 379.018 164.912H378.906C378.33 165.499 377.759 165.899 377.194 166.112C376.479 166.112 375.919 165.936 375.514 165.584C375.119 165.221 374.922 164.731 374.922 164.112C374.922 163.643 375.045 163.269 375.29 162.992C375.546 162.715 375.919 162.517 376.41 162.4L379.002 161.792L379.018 160.752C379.018 160.336 378.906 160.016 378.682 159.792C378.469 159.568 378.159 159.456 377.754 159.456C377.391 159.456 377.029 159.541 376.666 159.712C376.303 159.883 375.914 160.149 375.498 160.512L375.37 160.448L375.21 159.536C376.095 158.875 377.007 158.544 377.946 158.544ZM376.666 163.168C376.453 163.232 376.298 163.323 376.202 163.44C376.106 163.547 376.058 163.712 376.058 163.936C376.058 164.288 376.154 164.565 376.346 164.768C376.549 164.96 376.815 165.056 377.146 165.056C377.733 165.056 378.33 164.677 378.938 163.92L378.986 162.608L376.666 163.168ZM386.124 158.656C386.252 158.656 386.391 158.667 386.54 158.688V159.92L386.396 159.968C386.215 159.915 386.018 159.888 385.804 159.888C385.452 159.888 385.127 160.032 384.828 160.32C384.54 160.597 384.252 161.045 383.964 161.664L383.948 162.784L384.028 166H382.764L382.844 162.896L382.78 158.752L383.98 158.64L383.964 160.144H384.06C384.359 159.611 384.69 159.232 385.052 159.008C385.415 158.773 385.772 158.656 386.124 158.656ZM389.936 158.56C390.544 158.56 391.131 158.677 391.696 158.912L391.52 159.952L391.328 160C390.795 159.648 390.283 159.472 389.792 159.472C389.43 159.472 389.136 159.573 388.912 159.776C388.688 159.979 388.576 160.224 388.576 160.512C388.576 160.8 388.688 161.035 388.912 161.216C389.147 161.387 389.504 161.584 389.984 161.808C390.4 162 390.731 162.176 390.976 162.336C391.232 162.485 391.451 162.688 391.632 162.944C391.814 163.2 391.904 163.515 391.904 163.888C391.904 164.283 391.803 164.651 391.6 164.992C391.398 165.333 391.099 165.611 390.704 165.824C390.31 166.027 389.84 166.128 389.296 166.128C388.55 166.128 387.84 165.952 387.168 165.6L387.328 164.512L387.472 164.416C387.771 164.672 388.091 164.869 388.432 165.008C388.784 165.147 389.115 165.216 389.424 165.216C389.819 165.216 390.139 165.109 390.384 164.896C390.63 164.672 390.752 164.411 390.752 164.112C390.752 163.824 390.635 163.595 390.4 163.424C390.176 163.243 389.824 163.04 389.344 162.816C388.928 162.624 388.592 162.453 388.336 162.304C388.08 162.144 387.862 161.931 387.68 161.664C387.499 161.397 387.408 161.067 387.408 160.672C387.408 160.053 387.632 159.547 388.08 159.152C388.539 158.757 389.158 158.56 389.936 158.56ZM399.859 158.656C399.987 158.656 400.125 158.667 400.275 158.688V159.92L400.131 159.968C399.949 159.915 399.752 159.888 399.539 159.888C399.187 159.888 398.861 160.032 398.563 160.32C398.275 160.597 397.987 161.045 397.699 161.664L397.683 162.784L397.763 166H396.499L396.579 162.896L396.515 158.752L397.715 158.64L397.699 160.144H397.795C398.093 159.611 398.424 159.232 398.787 159.008C399.149 158.773 399.507 158.656 399.859 158.656ZM402.231 162.288V162.32C402.231 163.216 402.434 163.904 402.839 164.384C403.244 164.864 403.82 165.104 404.567 165.104C404.94 165.104 405.314 165.045 405.687 164.928C406.06 164.8 406.402 164.624 406.711 164.4L406.839 164.496L406.647 165.584C405.9 165.947 405.154 166.128 404.407 166.128C403.362 166.128 402.54 165.797 401.943 165.136C401.346 164.464 401.047 163.547 401.047 162.384C401.047 161.211 401.346 160.277 401.943 159.584C402.54 158.891 403.346 158.544 404.359 158.544C405.212 158.544 405.874 158.789 406.343 159.28C406.812 159.76 407.047 160.432 407.047 161.296C407.047 161.584 407.026 161.856 406.983 162.112L406.823 162.272L402.231 162.288ZM404.359 159.44C403.826 159.44 403.378 159.616 403.015 159.968C402.663 160.309 402.428 160.795 402.311 161.424L405.847 161.36L405.879 161.136C405.879 160.592 405.746 160.176 405.479 159.888C405.223 159.589 404.85 159.44 404.359 159.44ZM411.446 158.544C412.139 158.544 412.683 158.715 413.078 159.056C413.483 159.397 413.686 159.867 413.686 160.464C413.686 160.645 413.654 161.301 413.59 162.432C413.526 163.563 413.494 164.224 413.494 164.416C413.494 164.651 413.531 164.816 413.606 164.912C413.681 164.997 413.809 165.04 413.99 165.04C414.15 165.04 414.331 165.008 414.534 164.944L414.662 165.056L414.534 165.776C414.225 165.957 413.921 166.064 413.622 166.096C413.291 166.064 413.025 165.947 412.822 165.744C412.63 165.541 412.529 165.264 412.518 164.912H412.406C411.83 165.499 411.259 165.899 410.694 166.112C409.979 166.112 409.419 165.936 409.014 165.584C408.619 165.221 408.422 164.731 408.422 164.112C408.422 163.643 408.545 163.269 408.79 162.992C409.046 162.715 409.419 162.517 409.91 162.4L412.502 161.792L412.518 160.752C412.518 160.336 412.406 160.016 412.182 159.792C411.969 159.568 411.659 159.456 411.254 159.456C410.891 159.456 410.529 159.541 410.166 159.712C409.803 159.883 409.414 160.149 408.998 160.512L408.87 160.448L408.71 159.536C409.595 158.875 410.507 158.544 411.446 158.544ZM410.166 163.168C409.953 163.232 409.798 163.323 409.702 163.44C409.606 163.547 409.558 163.712 409.558 163.936C409.558 164.288 409.654 164.565 409.846 164.768C410.049 164.96 410.315 165.056 410.646 165.056C411.233 165.056 411.83 164.677 412.438 163.92L412.486 162.608L410.166 163.168ZM419.749 158.592C420.666 158.592 421.37 158.896 421.861 159.504C422.351 160.112 422.597 160.981 422.597 162.112C422.597 163.392 422.287 164.384 421.669 165.088C421.05 165.781 420.17 166.128 419.029 166.128C418.581 166.128 418.117 166.08 417.637 165.984L417.669 168.96H416.421L416.501 162.896L416.421 158.752L417.637 158.64L417.621 159.68H417.733C418.106 159.371 418.442 159.136 418.741 158.976C419.039 158.816 419.375 158.688 419.749 158.592ZM419.189 165.2C419.893 165.2 420.437 164.955 420.821 164.464C421.205 163.973 421.397 163.275 421.397 162.368C421.397 161.483 421.242 160.805 420.933 160.336C420.634 159.867 420.202 159.632 419.637 159.632C419.306 159.632 418.975 159.723 418.645 159.904C418.325 160.085 417.983 160.368 417.621 160.752L417.605 162.784L417.621 164.784C418.143 165.061 418.666 165.2 419.189 165.2ZM427.889 158.592C428.807 158.592 429.511 158.896 430.001 159.504C430.492 160.112 430.737 160.981 430.737 162.112C430.737 163.392 430.428 164.384 429.809 165.088C429.191 165.781 428.311 166.128 427.169 166.128C426.721 166.128 426.257 166.08 425.777 165.984L425.809 168.96H424.561L424.641 162.896L424.561 158.752L425.777 158.64L425.761 159.68H425.873C426.247 159.371 426.583 159.136 426.881 158.976C427.18 158.816 427.516 158.688 427.889 158.592ZM427.329 165.2C428.033 165.2 428.577 164.955 428.961 164.464C429.345 163.973 429.537 163.275 429.537 162.368C429.537 161.483 429.383 160.805 429.073 160.336C428.775 159.867 428.343 159.632 427.777 159.632C427.447 159.632 427.116 159.723 426.785 159.904C426.465 160.085 426.124 160.368 425.761 160.752L425.745 162.784L425.761 164.784C426.284 165.061 426.807 165.2 427.329 165.2ZM433.278 162.288V162.32C433.278 163.216 433.481 163.904 433.886 164.384C434.291 164.864 434.867 165.104 435.614 165.104C435.987 165.104 436.361 165.045 436.734 164.928C437.107 164.8 437.449 164.624 437.758 164.4L437.886 164.496L437.694 165.584C436.947 165.947 436.201 166.128 435.454 166.128C434.409 166.128 433.587 165.797 432.99 165.136C432.393 164.464 432.094 163.547 432.094 162.384C432.094 161.211 432.393 160.277 432.99 159.584C433.587 158.891 434.393 158.544 435.406 158.544C436.259 158.544 436.921 158.789 437.39 159.28C437.859 159.76 438.094 160.432 438.094 161.296C438.094 161.584 438.073 161.856 438.03 162.112L437.87 162.272L433.278 162.288ZM435.406 159.44C434.873 159.44 434.425 159.616 434.062 159.968C433.71 160.309 433.475 160.795 433.358 161.424L436.894 161.36L436.926 161.136C436.926 160.592 436.793 160.176 436.526 159.888C436.27 159.589 435.897 159.44 435.406 159.44ZM442.493 158.544C443.186 158.544 443.73 158.715 444.125 159.056C444.53 159.397 444.733 159.867 444.733 160.464C444.733 160.645 444.701 161.301 444.637 162.432C444.573 163.563 444.541 164.224 444.541 164.416C444.541 164.651 444.578 164.816 444.653 164.912C444.728 164.997 444.856 165.04 445.037 165.04C445.197 165.04 445.378 165.008 445.581 164.944L445.709 165.056L445.581 165.776C445.272 165.957 444.968 166.064 444.669 166.096C444.338 166.064 444.072 165.947 443.869 165.744C443.677 165.541 443.576 165.264 443.565 164.912H443.453C442.877 165.499 442.306 165.899 441.741 166.112C441.026 166.112 440.466 165.936 440.061 165.584C439.666 165.221 439.469 164.731 439.469 164.112C439.469 163.643 439.592 163.269 439.837 162.992C440.093 162.715 440.466 162.517 440.957 162.4L443.549 161.792L443.565 160.752C443.565 160.336 443.453 160.016 443.229 159.792C443.016 159.568 442.706 159.456 442.301 159.456C441.938 159.456 441.576 159.541 441.213 159.712C440.85 159.883 440.461 160.149 440.045 160.512L439.917 160.448L439.757 159.536C440.642 158.875 441.554 158.544 442.493 158.544ZM441.213 163.168C441 163.232 440.845 163.323 440.749 163.44C440.653 163.547 440.605 163.712 440.605 163.936C440.605 164.288 440.701 164.565 440.893 164.768C441.096 164.96 441.362 165.056 441.693 165.056C442.28 165.056 442.877 164.677 443.485 163.92L443.533 162.608L441.213 163.168ZM450.671 158.656C450.799 158.656 450.938 158.667 451.087 158.688V159.92L450.943 159.968C450.762 159.915 450.565 159.888 450.351 159.888C449.999 159.888 449.674 160.032 449.375 160.32C449.087 160.597 448.799 161.045 448.511 161.664L448.495 162.784L448.575 166H447.311L447.391 162.896L447.327 158.752L448.527 158.64L448.511 160.144H448.607C448.906 159.611 449.237 159.232 449.599 159.008C449.962 158.773 450.319 158.656 450.671 158.656ZM454.483 158.56C455.091 158.56 455.678 158.677 456.243 158.912L456.067 159.952L455.875 160C455.342 159.648 454.83 159.472 454.339 159.472C453.976 159.472 453.683 159.573 453.459 159.776C453.235 159.979 453.123 160.224 453.123 160.512C453.123 160.8 453.235 161.035 453.459 161.216C453.694 161.387 454.051 161.584 454.531 161.808C454.947 162 455.278 162.176 455.523 162.336C455.779 162.485 455.998 162.688 456.179 162.944C456.36 163.2 456.451 163.515 456.451 163.888C456.451 164.283 456.35 164.651 456.147 164.992C455.944 165.333 455.646 165.611 455.251 165.824C454.856 166.027 454.387 166.128 453.843 166.128C453.096 166.128 452.387 165.952 451.715 165.6L451.875 164.512L452.019 164.416C452.318 164.672 452.638 164.869 452.979 165.008C453.331 165.147 453.662 165.216 453.971 165.216C454.366 165.216 454.686 165.109 454.931 164.896C455.176 164.672 455.299 164.411 455.299 164.112C455.299 163.824 455.182 163.595 454.947 163.424C454.723 163.243 454.371 163.04 453.891 162.816C453.475 162.624 453.139 162.453 452.883 162.304C452.627 162.144 452.408 161.931 452.227 161.664C452.046 161.397 451.955 161.067 451.955 160.672C451.955 160.053 452.179 159.547 452.627 159.152C453.086 158.757 453.704 158.56 454.483 158.56ZM463.782 158.544C464.774 158.544 465.542 158.869 466.086 159.52C466.64 160.16 466.918 161.067 466.918 162.24C466.918 163.477 466.63 164.437 466.054 165.12C465.478 165.792 464.656 166.128 463.59 166.128C462.587 166.128 461.808 165.808 461.254 165.168C460.71 164.517 460.438 163.605 460.438 162.432C460.438 161.195 460.726 160.24 461.302 159.568C461.888 158.885 462.715 158.544 463.782 158.544ZM463.702 159.44C463.03 159.44 462.518 159.669 462.166 160.128C461.814 160.587 461.638 161.259 461.638 162.144C461.638 163.168 461.808 163.936 462.15 164.448C462.502 164.96 463.008 165.216 463.67 165.216C464.342 165.216 464.854 164.992 465.206 164.544C465.558 164.096 465.734 163.424 465.734 162.528C465.734 161.515 465.558 160.747 465.206 160.224C464.864 159.701 464.363 159.44 463.702 159.44ZM473.373 161.024C473.383 160.587 473.282 160.245 473.069 160C472.855 159.755 472.541 159.632 472.125 159.632C471.453 159.632 470.727 160.011 469.949 160.768V162.784L470.013 166H468.749L468.829 162.896L468.765 158.752L469.965 158.64V159.712H470.061C470.722 159.125 471.399 158.747 472.093 158.576C472.893 158.576 473.501 158.763 473.917 159.136C474.343 159.509 474.551 160.043 474.541 160.736L474.509 162.816L474.573 166H473.293L473.373 161.024ZM344.28 181.56C344.888 181.56 345.475 181.677 346.04 181.912L345.864 182.952L345.672 183C345.139 182.648 344.627 182.472 344.136 182.472C343.773 182.472 343.48 182.573 343.256 182.776C343.032 182.979 342.92 183.224 342.92 183.512C342.92 183.8 343.032 184.035 343.256 184.216C343.491 184.387 343.848 184.584 344.328 184.808C344.744 185 345.075 185.176 345.32 185.336C345.576 185.485 345.795 185.688 345.976 185.944C346.157 186.2 346.248 186.515 346.248 186.888C346.248 187.283 346.147 187.651 345.944 187.992C345.741 188.333 345.443 188.611 345.048 188.824C344.653 189.027 344.184 189.128 343.64 189.128C342.893 189.128 342.184 188.952 341.512 188.6L341.672 187.512L341.816 187.416C342.115 187.672 342.435 187.869 342.776 188.008C343.128 188.147 343.459 188.216 343.768 188.216C344.163 188.216 344.483 188.109 344.728 187.896C344.973 187.672 345.096 187.411 345.096 187.112C345.096 186.824 344.979 186.595 344.744 186.424C344.52 186.243 344.168 186.04 343.688 185.816C343.272 185.624 342.936 185.453 342.68 185.304C342.424 185.144 342.205 184.931 342.024 184.664C341.843 184.397 341.752 184.067 341.752 183.672C341.752 183.053 341.976 182.547 342.424 182.152C342.883 181.757 343.501 181.56 344.28 181.56ZM350.842 181.544C351.173 181.544 351.514 181.587 351.866 181.672C352.229 181.747 352.543 181.848 352.81 181.976L352.586 183.08L352.442 183.128C351.887 182.765 351.338 182.584 350.794 182.584C350.165 182.584 349.674 182.824 349.322 183.304C348.97 183.784 348.794 184.456 348.794 185.32C348.794 186.184 348.975 186.867 349.338 187.368C349.711 187.859 350.223 188.104 350.874 188.104C351.162 188.104 351.461 188.056 351.77 187.96C352.09 187.864 352.389 187.731 352.666 187.56L352.81 187.64L352.666 188.712C352.015 188.989 351.365 189.128 350.714 189.128C349.743 189.128 348.981 188.797 348.426 188.136C347.871 187.464 347.594 186.547 347.594 185.384C347.594 184.2 347.882 183.267 348.458 182.584C349.045 181.891 349.839 181.544 350.842 181.544ZM357.578 181.656C357.706 181.656 357.844 181.667 357.994 181.688V182.92L357.85 182.968C357.668 182.915 357.471 182.888 357.258 182.888C356.906 182.888 356.58 183.032 356.282 183.32C355.994 183.597 355.706 184.045 355.418 184.664L355.402 185.784L355.482 189H354.218L354.298 185.896L354.234 181.752L355.434 181.64L355.418 183.144H355.514C355.812 182.611 356.143 182.232 356.506 182.008C356.868 181.773 357.226 181.656 357.578 181.656ZM362.11 181.544C363.102 181.544 363.87 181.869 364.414 182.52C364.968 183.16 365.246 184.067 365.246 185.24C365.246 186.477 364.958 187.437 364.382 188.12C363.806 188.792 362.984 189.128 361.918 189.128C360.915 189.128 360.136 188.808 359.582 188.168C359.038 187.517 358.766 186.605 358.766 185.432C358.766 184.195 359.054 183.24 359.63 182.568C360.216 181.885 361.043 181.544 362.11 181.544ZM362.03 182.44C361.358 182.44 360.846 182.669 360.494 183.128C360.142 183.587 359.966 184.259 359.966 185.144C359.966 186.168 360.136 186.936 360.478 187.448C360.83 187.96 361.336 188.216 361.998 188.216C362.67 188.216 363.182 187.992 363.534 187.544C363.886 187.096 364.062 186.424 364.062 185.528C364.062 184.515 363.886 183.747 363.534 183.224C363.192 182.701 362.691 182.44 362.03 182.44ZM368.481 185.784L368.561 189H367.297L367.393 185.88L367.313 177.88L368.577 177.768L368.481 185.784ZM372.434 185.784L372.514 189H371.25L371.346 185.88L371.266 177.88L372.53 177.768L372.434 185.784ZM379.78 181.56C380.388 181.56 380.975 181.677 381.54 181.912L381.364 182.952L381.172 183C380.639 182.648 380.127 182.472 379.636 182.472C379.273 182.472 378.98 182.573 378.756 182.776C378.532 182.979 378.42 183.224 378.42 183.512C378.42 183.8 378.532 184.035 378.756 184.216C378.991 184.387 379.348 184.584 379.828 184.808C380.244 185 380.575 185.176 380.82 185.336C381.076 185.485 381.295 185.688 381.476 185.944C381.657 186.2 381.748 186.515 381.748 186.888C381.748 187.283 381.647 187.651 381.444 187.992C381.241 188.333 380.943 188.611 380.548 188.824C380.153 189.027 379.684 189.128 379.14 189.128C378.393 189.128 377.684 188.952 377.012 188.6L377.172 187.512L377.316 187.416C377.615 187.672 377.935 187.869 378.276 188.008C378.628 188.147 378.959 188.216 379.268 188.216C379.663 188.216 379.983 188.109 380.228 187.896C380.473 187.672 380.596 187.411 380.596 187.112C380.596 186.824 380.479 186.595 380.244 186.424C380.02 186.243 379.668 186.04 379.188 185.816C378.772 185.624 378.436 185.453 378.18 185.304C377.924 185.144 377.705 184.931 377.524 184.664C377.343 184.397 377.252 184.067 377.252 183.672C377.252 183.053 377.476 182.547 377.924 182.152C378.383 181.757 379.001 181.56 379.78 181.56ZM386.006 188.024C386.358 188.024 386.742 187.917 387.158 187.704L387.302 187.8L387.174 188.632C386.598 188.899 386.065 189.053 385.574 189.096C384.966 188.979 384.529 188.755 384.262 188.424C383.995 188.093 383.862 187.613 383.862 186.984L383.91 185.848L383.894 182.536H382.886L382.822 182.44L382.902 181.688H383.878V180.504L384.982 180.024L385.11 180.136L385.078 181.688H387.254L387.318 181.784L387.238 182.536H385.078L384.998 186.872C384.987 187.299 385.062 187.597 385.222 187.768C385.382 187.939 385.643 188.024 386.006 188.024ZM391.329 181.544C392.321 181.544 393.089 181.869 393.633 182.52C394.187 183.16 394.465 184.067 394.465 185.24C394.465 186.477 394.177 187.437 393.601 188.12C393.025 188.792 392.203 189.128 391.137 189.128C390.134 189.128 389.355 188.808 388.801 188.168C388.257 187.517 387.985 186.605 387.985 185.432C387.985 184.195 388.273 183.24 388.849 182.568C389.435 181.885 390.262 181.544 391.329 181.544ZM391.249 182.44C390.577 182.44 390.065 182.669 389.713 183.128C389.361 183.587 389.185 184.259 389.185 185.144C389.185 186.168 389.355 186.936 389.697 187.448C390.049 187.96 390.555 188.216 391.217 188.216C391.889 188.216 392.401 187.992 392.753 187.544C393.105 187.096 393.281 186.424 393.281 185.528C393.281 184.515 393.105 183.747 392.753 183.224C392.411 182.701 391.91 182.44 391.249 182.44ZM399.78 181.592C400.697 181.592 401.401 181.896 401.892 182.504C402.383 183.112 402.628 183.981 402.628 185.112C402.628 186.392 402.319 187.384 401.7 188.088C401.081 188.781 400.201 189.128 399.06 189.128C398.612 189.128 398.148 189.08 397.668 188.984L397.7 191.96H396.452L396.532 185.896L396.452 181.752L397.668 181.64L397.652 182.68H397.764C398.137 182.371 398.473 182.136 398.772 181.976C399.071 181.816 399.407 181.688 399.78 181.592ZM399.22 188.2C399.924 188.2 400.468 187.955 400.852 187.464C401.236 186.973 401.428 186.275 401.428 185.368C401.428 184.483 401.273 183.805 400.964 183.336C400.665 182.867 400.233 182.632 399.668 182.632C399.337 182.632 399.007 182.723 398.676 182.904C398.356 183.085 398.015 183.368 397.652 183.752L397.636 185.784L397.652 187.784C398.175 188.061 398.697 188.2 399.22 188.2Z" fill="#333333"/>
<circle cx="353" cy="12" r="12" fill="#C50063"/>
<path d="M349.494 15.684C350.624 14.928 351.52 14.2653 352.182 13.696C352.845 13.1267 353.326 12.5993 353.624 12.114C353.923 11.6287 354.072 11.148 354.072 10.672C354.072 10.2333 353.937 9.87867 353.666 9.608C353.405 9.33733 353.041 9.202 352.574 9.202C352.061 9.202 351.655 9.37933 351.356 9.734C351.058 10.0887 350.894 10.5927 350.866 11.246L349.2 10.616C349.266 9.68267 349.611 8.95 350.236 8.418C350.862 7.886 351.678 7.62 352.686 7.62C353.405 7.62 354.012 7.75533 354.506 8.026C355.01 8.29667 355.388 8.656 355.64 9.104C355.892 9.54267 356.018 10.028 356.018 10.56C356.018 11.428 355.692 12.2493 355.038 13.024C354.385 13.7893 353.344 14.6107 351.916 15.488V15.502C352.458 15.4647 353.022 15.446 353.61 15.446H356.158V17H349.494V15.684Z" fill="#F2F2F2"/>
<path d="M341 48V128H456.455" stroke="#BDBDBD" stroke-width="0.5"/>
<g filter="url(#filter2_d)">
<path d="M341 127.333C341 94.1368 368.087 73.0004 382.741 64.3641C396.64 56.1725 428.701 48 456.455 48" stroke="#C50063" stroke-linecap="round"/>
</g>
<defs>
<filter id="filter0_d" x="0.5" y="47.5" width="124.455" height="88.3333" filterUnits="userSpaceOnUse" color-interpolation-filters="sRGB">
<feFlood flood-opacity="0" result="BackgroundImageFix"/>
<feColorMatrix in="SourceAlpha" type="matrix" values="0 0 0 0 0 0 0 0 0 0 0 0 0 0 0 0 0 0 127 0"/>
<feOffset dy="4"/>
<feGaussianBlur stdDeviation="2"/>
<feColorMatrix type="matrix" values="0 0 0 0 0.768627 0 0 0 0 0.768627 0 0 0 0 0.768627 0 0 0 0.5 0"/>
<feBlend mode="normal" in2="BackgroundImageFix" result="effect1_dropShadow"/>
<feBlend mode="normal" in="SourceGraphic" in2="effect1_dropShadow" result="shape"/>
</filter>
<filter id="filter1_d" x="168.5" y="47.5" width="124.455" height="88.3333" filterUnits="userSpaceOnUse" color-interpolation-filters="sRGB">
<feFlood flood-opacity="0" result="BackgroundImageFix"/>
<feColorMatrix in="SourceAlpha" type="matrix" values="0 0 0 0 0 0 0 0 0 0 0 0 0 0 0 0 0 0 127 0"/>
<feOffset dy="4"/>
<feGaussianBlur stdDeviation="2"/>
<feColorMatrix type="matrix" values="0 0 0 0 0.768627 0 0 0 0 0.768627 0 0 0 0 0.768627 0 0 0 0.5 0"/>
<feBlend mode="normal" in2="BackgroundImageFix" result="effect1_dropShadow"/>
<feBlend mode="normal" in="SourceGraphic" in2="effect1_dropShadow" result="shape"/>
</filter>
<filter id="filter2_d" x="336.5" y="47.5" width="124.455" height="88.3333" filterUnits="userSpaceOnUse" color-interpolation-filters="sRGB">
<feFlood flood-opacity="0" result="BackgroundImageFix"/>
<feColorMatrix in="SourceAlpha" type="matrix" values="0 0 0 0 0 0 0 0 0 0 0 0 0 0 0 0 0 0 127 0"/>
<feOffset dy="4"/>
<feGaussianBlur stdDeviation="2"/>
<feColorMatrix type="matrix" values="0 0 0 0 0.768627 0 0 0 0 0.768627 0 0 0 0 0.768627 0 0 0 0.5 0"/>
<feBlend mode="normal" in2="BackgroundImageFix" result="effect1_dropShadow"/>
<feBlend mode="normal" in="SourceGraphic" in2="effect1_dropShadow" result="shape"/>
</filter>
</defs>
</svg>
