<svg width="477" height="257" viewBox="0 0 477 257" fill="none" xmlns="http://www.w3.org/2000/svg">
<path d="M5 48V128H120.455" stroke="#BDBDBD" stroke-width="0.5"/>
<g filter="url(#filter0_d)">
<path d="M5 127.333C41.0795 127.333 53.7565 121.585 60.917 89.0345C68.9441 52.5455 91.9918 48 120.455 48" stroke="#C50063" stroke-linecap="round"/>
</g>
<path d="M10.2 155.648C11.608 155.648 12.6853 156.08 13.432 156.944C14.1893 157.808 14.568 159.051 14.568 160.672C14.568 162.421 14.168 163.771 13.368 164.72C12.568 165.659 11.4267 166.128 9.944 166.128C8.55733 166.128 7.48533 165.68 6.728 164.784C5.98133 163.888 5.608 162.613 5.608 160.96C5.608 159.253 6.00267 157.941 6.792 157.024C7.592 156.107 8.728 155.648 10.2 155.648ZM10.12 156.688C7.98667 156.688 6.92 158.064 6.92 160.816C6.92 162.277 7.176 163.36 7.688 164.064C8.21067 164.768 8.99467 165.12 10.04 165.12C12.1733 165.12 13.24 163.717 13.24 160.912C13.24 159.483 12.9787 158.421 12.456 157.728C11.944 157.035 11.1653 156.688 10.12 156.688ZM21.0603 161.024C21.0709 160.587 20.9696 160.245 20.7563 160C20.5429 159.755 20.2283 159.632 19.8123 159.632C19.1403 159.632 18.4149 160.011 17.6363 160.768V162.784L17.7003 166H16.4363L16.5163 162.896L16.4523 158.752L17.6523 158.64V159.712H17.7483C18.4096 159.125 19.0869 158.747 19.7803 158.576C20.5803 158.576 21.1883 158.763 21.6043 159.136C22.0309 159.509 22.2389 160.043 22.2283 160.736L22.1963 162.816L22.2603 166H20.9803L21.0603 161.024ZM29.6309 165.024C29.9829 165.024 30.3669 164.917 30.7829 164.704L30.9269 164.8L30.7989 165.632C30.2229 165.899 29.6895 166.053 29.1989 166.096C28.5909 165.979 28.1535 165.755 27.8869 165.424C27.6202 165.093 27.4869 164.613 27.4869 163.984L27.5349 162.848L27.5189 159.536H26.5109L26.4469 159.44L26.5269 158.688H27.5029V157.504L28.6069 157.024L28.7349 157.136L28.7029 158.688H30.8789L30.9429 158.784L30.8629 159.536H28.7029L28.6229 163.872C28.6122 164.299 28.6869 164.597 28.8469 164.768C29.0069 164.939 29.2682 165.024 29.6309 165.024ZM34.8523 158.544C35.5456 158.544 36.0896 158.715 36.4843 159.056C36.8896 159.397 37.0923 159.867 37.0923 160.464C37.0923 160.645 37.0603 161.301 36.9963 162.432C36.9323 163.563 36.9003 164.224 36.9003 164.416C36.9003 164.651 36.9376 164.816 37.0123 164.912C37.0869 164.997 37.2149 165.04 37.3963 165.04C37.5563 165.04 37.7376 165.008 37.9403 164.944L38.0683 165.056L37.9403 165.776C37.6309 165.957 37.3269 166.064 37.0283 166.096C36.6976 166.064 36.4309 165.947 36.2283 165.744C36.0363 165.541 35.9349 165.264 35.9243 164.912H35.8123C35.2363 165.499 34.6656 165.899 34.1003 166.112C33.3856 166.112 32.8256 165.936 32.4203 165.584C32.0256 165.221 31.8283 164.731 31.8283 164.112C31.8283 163.643 31.9509 163.269 32.1963 162.992C32.4523 162.715 32.8256 162.517 33.3163 162.4L35.9083 161.792L35.9243 160.752C35.9243 160.336 35.8123 160.016 35.5883 159.792C35.3749 159.568 35.0656 159.456 34.6603 159.456C34.2976 159.456 33.9349 159.541 33.5723 159.712C33.2096 159.883 32.8203 160.149 32.4043 160.512L32.2763 160.448L32.1163 159.536C33.0016 158.875 33.9136 158.544 34.8523 158.544ZM33.5723 163.168C33.3589 163.232 33.2043 163.323 33.1083 163.44C33.0123 163.547 32.9643 163.712 32.9643 163.936C32.9643 164.288 33.0603 164.565 33.2523 164.768C33.4549 164.96 33.7216 165.056 34.0523 165.056C34.6389 165.056 35.2363 164.677 35.8443 163.92L35.8923 162.608L33.5723 163.168ZM43.1549 158.592C44.0722 158.592 44.7762 158.896 45.2669 159.504C45.7575 160.112 46.0029 160.981 46.0029 162.112C46.0029 163.392 45.6935 164.384 45.0749 165.088C44.4562 165.781 43.5762 166.128 42.4349 166.128C41.9869 166.128 41.5229 166.08 41.0429 165.984L41.0749 168.96H39.8269L39.9069 162.896L39.8269 158.752L41.0429 158.64L41.0269 159.68H41.1389C41.5122 159.371 41.8482 159.136 42.1469 158.976C42.4455 158.816 42.7815 158.688 43.1549 158.592ZM42.5949 165.2C43.2989 165.2 43.8429 164.955 44.2269 164.464C44.6109 163.973 44.8029 163.275 44.8029 162.368C44.8029 161.483 44.6482 160.805 44.3389 160.336C44.0402 159.867 43.6082 159.632 43.0429 159.632C42.7122 159.632 42.3815 159.723 42.0509 159.904C41.7309 160.085 41.3895 160.368 41.0269 160.752L41.0109 162.784L41.0269 164.784C41.5495 165.061 42.0722 165.2 42.5949 165.2ZM51.2955 158.592C52.2128 158.592 52.9168 158.896 53.4075 159.504C53.8982 160.112 54.1435 160.981 54.1435 162.112C54.1435 163.392 53.8342 164.384 53.2155 165.088C52.5968 165.781 51.7168 166.128 50.5755 166.128C50.1275 166.128 49.6635 166.08 49.1835 165.984L49.2155 168.96H47.9675L48.0475 162.896L47.9675 158.752L49.1835 158.64L49.1675 159.68H49.2795C49.6528 159.371 49.9888 159.136 50.2875 158.976C50.5862 158.816 50.9222 158.688 51.2955 158.592ZM50.7355 165.2C51.4395 165.2 51.9835 164.955 52.3675 164.464C52.7515 163.973 52.9435 163.275 52.9435 162.368C52.9435 161.483 52.7888 160.805 52.4795 160.336C52.1808 159.867 51.7488 159.632 51.1835 159.632C50.8528 159.632 50.5222 159.723 50.1915 159.904C49.8715 160.085 49.5302 160.368 49.1675 160.752L49.1515 162.784L49.1675 164.784C49.6902 165.061 50.2128 165.2 50.7355 165.2ZM56.1881 162.896L56.1401 158.752L57.3721 158.64L57.3401 162.784L57.3721 166H56.1241L56.1881 162.896ZM56.7801 155.392C56.9935 155.392 57.1641 155.456 57.2921 155.584C57.4201 155.712 57.4841 155.888 57.4841 156.112C57.4841 156.347 57.4148 156.533 57.2761 156.672C57.1481 156.811 56.9668 156.88 56.7321 156.88C56.5081 156.88 56.3321 156.816 56.2041 156.688C56.0868 156.56 56.0281 156.379 56.0281 156.144C56.0281 155.92 56.0921 155.739 56.2201 155.6C56.3588 155.461 56.5455 155.392 56.7801 155.392ZM64.6071 161.024C64.6178 160.587 64.5165 160.245 64.3031 160C64.0898 159.755 63.7751 159.632 63.3591 159.632C62.6871 159.632 61.9618 160.011 61.1831 160.768V162.784L61.2471 166H59.9831L60.0631 162.896L59.9991 158.752L61.1991 158.64V159.712H61.2951C61.9565 159.125 62.6338 158.747 63.3271 158.576C64.1271 158.576 64.7351 158.763 65.1511 159.136C65.5778 159.509 65.7858 160.043 65.7751 160.736L65.7431 162.816L65.8071 166H64.5271L64.6071 161.024ZM74.7131 159.296C74.3825 159.392 73.8918 159.504 73.2411 159.632L73.2091 159.696C73.4438 160.069 73.5611 160.523 73.5611 161.056C73.5611 161.835 73.2998 162.453 72.7771 162.912C72.2651 163.371 71.5665 163.6 70.6811 163.6C70.3291 163.6 69.9985 163.557 69.6891 163.472C69.5078 163.611 69.3851 163.723 69.3211 163.808C69.2571 163.893 69.2251 163.989 69.2251 164.096C69.2251 164.32 69.3638 164.48 69.6411 164.576C69.9185 164.661 70.3718 164.752 71.0011 164.848C71.6198 164.933 72.1265 165.029 72.5211 165.136C72.9158 165.243 73.2571 165.419 73.5451 165.664C73.8331 165.899 73.9771 166.229 73.9771 166.656C73.9771 167.104 73.8225 167.515 73.5131 167.888C73.2145 168.261 72.7985 168.555 72.2651 168.768C71.7425 168.981 71.1665 169.088 70.5371 169.088C69.6838 169.088 69.0171 168.891 68.5371 168.496C68.0678 168.112 67.8331 167.611 67.8331 166.992C68.0891 166.48 68.5585 166.016 69.2411 165.6V165.52C68.8571 165.403 68.5585 165.248 68.3451 165.056C68.1425 164.853 68.0411 164.581 68.0411 164.24C68.2651 163.867 68.5905 163.541 69.0171 163.264V163.2C68.6758 162.987 68.4145 162.709 68.2331 162.368C68.0625 162.016 67.9771 161.611 67.9771 161.152C67.9771 160.352 68.2331 159.728 68.7451 159.28C69.2678 158.821 69.9611 158.592 70.8251 158.592C71.3905 158.592 71.8705 158.688 72.2651 158.88C73.0011 158.741 73.7745 158.56 74.5851 158.336L74.7131 158.432V159.296ZM70.7451 162.736C71.2785 162.736 71.6891 162.587 71.9771 162.288C72.2758 161.989 72.4251 161.573 72.4251 161.04C72.4251 160.528 72.2865 160.133 72.0091 159.856C71.7318 159.579 71.3318 159.44 70.8091 159.44C70.2758 159.44 69.8598 159.584 69.5611 159.872C69.2625 160.16 69.1131 160.571 69.1131 161.104C69.1131 161.616 69.2518 162.016 69.5291 162.304C69.8171 162.592 70.2225 162.736 70.7451 162.736ZM72.8571 166.896C72.8571 166.544 72.6758 166.299 72.3131 166.16C71.9611 166.021 71.4225 165.899 70.6971 165.792L70.1851 165.712C69.7798 165.957 69.4705 166.192 69.2571 166.416C69.0545 166.64 68.9531 166.875 68.9531 167.12C68.9531 167.429 69.1025 167.685 69.4011 167.888C69.7105 168.091 70.1371 168.192 70.6811 168.192C71.2998 168.192 71.8171 168.064 72.2331 167.808C72.6491 167.563 72.8571 167.259 72.8571 166.896ZM80.9746 165.024C81.3266 165.024 81.7106 164.917 82.1266 164.704L82.2706 164.8L82.1426 165.632C81.5666 165.899 81.0333 166.053 80.5426 166.096C79.9346 165.979 79.4973 165.755 79.2306 165.424C78.964 165.093 78.8306 164.613 78.8306 163.984L78.8786 162.848L78.8626 159.536H77.8546L77.7906 159.44L77.8706 158.688H78.8466V157.504L79.9506 157.024L80.0786 157.136L80.0466 158.688H82.2226L82.2866 158.784L82.2066 159.536H80.0466L79.9666 163.872C79.956 164.299 80.0306 164.597 80.1906 164.768C80.3506 164.939 80.612 165.024 80.9746 165.024ZM88.468 161.024C88.4787 160.587 88.3773 160.245 88.164 160C87.9507 159.755 87.636 159.632 87.22 159.632C86.516 159.632 85.796 160.011 85.06 160.768L85.028 162.784L85.108 166H83.844L83.94 162.88L83.86 154.88L85.124 154.768L85.06 159.712H85.156C85.8173 159.125 86.4947 158.747 87.188 158.576C87.9987 158.576 88.612 158.763 89.028 159.136C89.444 159.509 89.6467 160.043 89.636 160.736L89.604 162.816L89.668 166H88.388L88.468 161.024ZM92.6685 162.288V162.32C92.6685 163.216 92.8712 163.904 93.2765 164.384C93.6818 164.864 94.2578 165.104 95.0045 165.104C95.3778 165.104 95.7512 165.045 96.1245 164.928C96.4978 164.8 96.8392 164.624 97.1485 164.4L97.2765 164.496L97.0845 165.584C96.3378 165.947 95.5912 166.128 94.8445 166.128C93.7992 166.128 92.9778 165.797 92.3805 165.136C91.7832 164.464 91.4845 163.547 91.4845 162.384C91.4845 161.211 91.7832 160.277 92.3805 159.584C92.9778 158.891 93.7832 158.544 94.7965 158.544C95.6498 158.544 96.3112 158.789 96.7805 159.28C97.2498 159.76 97.4845 160.432 97.4845 161.296C97.4845 161.584 97.4632 161.856 97.4205 162.112L97.2605 162.272L92.6685 162.288ZM94.7965 159.44C94.2632 159.44 93.8152 159.616 93.4525 159.968C93.1005 160.309 92.8658 160.795 92.7485 161.424L96.2845 161.36L96.3165 161.136C96.3165 160.592 96.1832 160.176 95.9165 159.888C95.6605 159.589 95.2872 159.44 94.7965 159.44ZM104.524 158.544C105.217 158.544 105.761 158.715 106.156 159.056C106.561 159.397 106.764 159.867 106.764 160.464C106.764 160.645 106.732 161.301 106.668 162.432C106.604 163.563 106.572 164.224 106.572 164.416C106.572 164.651 106.609 164.816 106.684 164.912C106.759 164.997 106.887 165.04 107.068 165.04C107.228 165.04 107.409 165.008 107.612 164.944L107.74 165.056L107.612 165.776C107.303 165.957 106.999 166.064 106.7 166.096C106.369 166.064 106.103 165.947 105.9 165.744C105.708 165.541 105.607 165.264 105.596 164.912H105.484C104.908 165.499 104.337 165.899 103.772 166.112C103.057 166.112 102.497 165.936 102.092 165.584C101.697 165.221 101.5 164.731 101.5 164.112C101.5 163.643 101.623 163.269 101.868 162.992C102.124 162.715 102.497 162.517 102.988 162.4L105.58 161.792L105.596 160.752C105.596 160.336 105.484 160.016 105.26 159.792C105.047 159.568 104.737 159.456 104.332 159.456C103.969 159.456 103.607 159.541 103.244 159.712C102.881 159.883 102.492 160.149 102.076 160.512L101.948 160.448L101.788 159.536C102.673 158.875 103.585 158.544 104.524 158.544ZM103.244 163.168C103.031 163.232 102.876 163.323 102.78 163.44C102.684 163.547 102.636 163.712 102.636 163.936C102.636 164.288 102.732 164.565 102.924 164.768C103.127 164.96 103.393 165.056 103.724 165.056C104.311 165.056 104.908 164.677 105.516 163.92L105.564 162.608L103.244 163.168ZM114.971 162.784L115.019 164.432C115.03 164.656 115.067 164.816 115.131 164.912C115.195 164.997 115.312 165.04 115.483 165.04C115.654 165.04 115.835 165.008 116.027 164.944L116.155 165.056L116.027 165.776C115.739 165.957 115.44 166.064 115.131 166.096C114.8 166.064 114.539 165.952 114.347 165.76C114.166 165.568 114.054 165.307 114.011 164.976H113.899C113.579 165.253 113.291 165.477 113.035 165.648C112.779 165.808 112.486 165.952 112.155 166.08C111.099 166.08 110.288 165.76 109.723 165.12C109.158 164.469 108.875 163.547 108.875 162.352C108.875 161.147 109.19 160.213 109.819 159.552C110.448 158.88 111.318 158.544 112.427 158.544C112.928 158.544 113.398 158.597 113.835 158.704L113.819 154.88L115.083 154.768L114.971 162.784ZM112.283 159.44C111.6 159.44 111.062 159.675 110.667 160.144C110.272 160.603 110.075 161.269 110.075 162.144C110.075 163.051 110.251 163.755 110.603 164.256C110.966 164.757 111.462 165.008 112.091 165.008C112.39 165.008 112.678 164.933 112.955 164.784C113.243 164.635 113.542 164.384 113.851 164.032L113.883 162.88L113.835 159.84C113.27 159.573 112.752 159.44 112.283 159.44ZM123.252 162.784L123.3 164.432C123.311 164.656 123.348 164.816 123.412 164.912C123.476 164.997 123.594 165.04 123.764 165.04C123.935 165.04 124.116 165.008 124.308 164.944L124.436 165.056L124.308 165.776C124.02 165.957 123.722 166.064 123.412 166.096C123.082 166.064 122.82 165.952 122.628 165.76C122.447 165.568 122.335 165.307 122.292 164.976H122.18C121.86 165.253 121.572 165.477 121.316 165.648C121.06 165.808 120.767 165.952 120.436 166.08C119.38 166.08 118.57 165.76 118.004 165.12C117.439 164.469 117.156 163.547 117.156 162.352C117.156 161.147 117.471 160.213 118.1 159.552C118.73 158.88 119.599 158.544 120.708 158.544C121.21 158.544 121.679 158.597 122.116 158.704L122.1 154.88L123.364 154.768L123.252 162.784ZM120.564 159.44C119.882 159.44 119.343 159.675 118.948 160.144C118.554 160.603 118.356 161.269 118.356 162.144C118.356 163.051 118.532 163.755 118.884 164.256C119.247 164.757 119.743 165.008 120.372 165.008C120.671 165.008 120.959 164.933 121.236 164.784C121.524 164.635 121.823 164.384 122.132 164.032L122.164 162.88L122.116 159.84C121.551 159.573 121.034 159.44 120.564 159.44ZM9.688 181.592C10.616 181.592 11.32 181.901 11.8 182.52C12.2907 183.128 12.536 183.992 12.536 185.112C12.536 186.392 12.2267 187.384 11.608 188.088C10.9893 188.781 10.1253 189.128 9.016 189.128C8.504 189.128 7.98133 189.011 7.448 188.776L6.568 189.176L6.344 189.048L6.44 185.928L6.36 177.88L7.624 177.768L7.576 182.68H7.672C8.03467 182.381 8.36533 182.152 8.664 181.992C8.96267 181.832 9.304 181.699 9.688 181.592ZM9.128 188.2C9.81067 188.2 10.3493 187.96 10.744 187.48C11.1387 187 11.336 186.291 11.336 185.352C11.336 184.488 11.1813 183.821 10.872 183.352C10.5733 182.872 10.1413 182.632 9.576 182.632C9.24533 182.632 8.91467 182.723 8.584 182.904C8.264 183.085 7.92267 183.368 7.56 183.752L7.544 185.784L7.592 187.688C8.104 188.029 8.616 188.2 9.128 188.2ZM21.0588 188.056L20.9308 188.776C20.6214 188.957 20.3174 189.064 20.0188 189.096C19.7094 189.053 19.4588 188.947 19.2668 188.776C19.0854 188.595 18.9574 188.328 18.8828 187.976H18.7868C18.1468 188.552 17.4854 188.925 16.8028 189.096C16.0134 189.096 15.4108 188.909 14.9948 188.536C14.5894 188.163 14.3921 187.629 14.4028 186.936L14.4188 184.904L14.3708 181.752L15.6508 181.64L15.5548 186.632C15.5548 187.069 15.6561 187.411 15.8588 187.656C16.0721 187.901 16.3814 188.024 16.7868 188.024C17.4481 188.024 18.1094 187.704 18.7708 187.064V181.752L19.9868 181.64L19.9068 187.432C19.9068 187.656 19.9388 187.816 20.0028 187.912C20.0774 187.997 20.2001 188.04 20.3708 188.04C20.5414 188.04 20.7281 188.008 20.9308 187.944L21.0588 188.056ZM24.959 188.024C25.311 188.024 25.695 187.917 26.111 187.704L26.255 187.8L26.127 188.632C25.551 188.899 25.0177 189.053 24.527 189.096C23.919 188.979 23.4817 188.755 23.215 188.424C22.9483 188.093 22.815 187.613 22.815 186.984L22.863 185.848L22.847 182.536H21.839L21.775 182.44L21.855 181.688H22.831V180.504L23.935 180.024L24.063 180.136L24.031 181.688H26.207L26.271 181.784L26.191 182.536H24.031L23.951 186.872C23.9403 187.299 24.015 187.597 24.175 187.768C24.335 187.939 24.5963 188.024 24.959 188.024ZM30.0684 188.024C30.4204 188.024 30.8044 187.917 31.2204 187.704L31.3644 187.8L31.2364 188.632C30.6604 188.899 30.127 189.053 29.6364 189.096C29.0284 188.979 28.591 188.755 28.3244 188.424C28.0577 188.093 27.9244 187.613 27.9244 186.984L27.9724 185.848L27.9564 182.536H26.9484L26.8844 182.44L26.9644 181.688H27.9404V180.504L29.0444 180.024L29.1724 180.136L29.1404 181.688H31.3164L31.3804 181.784L31.3004 182.536H29.1404L29.0604 186.872C29.0497 187.299 29.1244 187.597 29.2844 187.768C29.4444 187.939 29.7057 188.024 30.0684 188.024ZM35.391 181.544C36.383 181.544 37.151 181.869 37.695 182.52C38.2497 183.16 38.527 184.067 38.527 185.24C38.527 186.477 38.239 187.437 37.663 188.12C37.087 188.792 36.2657 189.128 35.199 189.128C34.1963 189.128 33.4177 188.808 32.863 188.168C32.319 187.517 32.047 186.605 32.047 185.432C32.047 184.195 32.335 183.24 32.911 182.568C33.4977 181.885 34.3243 181.544 35.391 181.544ZM35.311 182.44C34.639 182.44 34.127 182.669 33.775 183.128C33.423 183.587 33.247 184.259 33.247 185.144C33.247 186.168 33.4177 186.936 33.759 187.448C34.111 187.96 34.6177 188.216 35.279 188.216C35.951 188.216 36.463 187.992 36.815 187.544C37.167 187.096 37.343 186.424 37.343 185.528C37.343 184.515 37.167 183.747 36.815 183.224C36.4737 182.701 35.9723 182.44 35.311 182.44ZM44.9821 184.024C44.9928 183.587 44.8915 183.245 44.6781 183C44.4648 182.755 44.1501 182.632 43.7341 182.632C43.0621 182.632 42.3368 183.011 41.5581 183.768V185.784L41.6221 189H40.3581L40.4381 185.896L40.3741 181.752L41.5741 181.64V182.712H41.6701C42.3315 182.125 43.0088 181.747 43.7021 181.576C44.5021 181.576 45.1101 181.763 45.5261 182.136C45.9528 182.509 46.1608 183.043 46.1501 183.736L46.1181 185.816L46.1821 189H44.9021L44.9821 184.024ZM49.3601 187.608C49.8081 187.885 50.0321 188.243 50.0321 188.68C50.0321 189.373 49.5308 190.088 48.5281 190.824L48.0961 190.424V190.312C48.6828 189.853 48.9761 189.384 48.9761 188.904C48.9761 188.616 48.8108 188.365 48.4801 188.152V188.024C48.7788 187.821 49.0721 187.683 49.3601 187.608ZM57.641 181.544C58.633 181.544 59.401 181.869 59.945 182.52C60.4997 183.16 60.777 184.067 60.777 185.24C60.777 186.477 60.489 187.437 59.913 188.12C59.337 188.792 58.5157 189.128 57.449 189.128C56.4463 189.128 55.6677 188.808 55.113 188.168C54.569 187.517 54.297 186.605 54.297 185.432C54.297 184.195 54.585 183.24 55.161 182.568C55.7477 181.885 56.5743 181.544 57.641 181.544ZM57.561 182.44C56.889 182.44 56.377 182.669 56.025 183.128C55.673 183.587 55.497 184.259 55.497 185.144C55.497 186.168 55.6677 186.936 56.009 187.448C56.361 187.96 56.8677 188.216 57.529 188.216C58.201 188.216 58.713 187.992 59.065 187.544C59.417 187.096 59.593 186.424 59.593 185.528C59.593 184.515 59.417 183.747 59.065 183.224C58.7237 182.701 58.2223 182.44 57.561 182.44ZM67.2321 184.024C67.2428 183.587 67.1415 183.245 66.9281 183C66.7148 182.755 66.4001 182.632 65.9841 182.632C65.3121 182.632 64.5868 183.011 63.8081 183.768V185.784L63.8721 189H62.6081L62.6881 185.896L62.6241 181.752L63.8241 181.64V182.712H63.9201C64.5815 182.125 65.2588 181.747 65.9521 181.576C66.7521 181.576 67.3601 181.763 67.7761 182.136C68.2028 182.509 68.4108 183.043 68.4001 183.736L68.3681 185.816L68.4321 189H67.1521L67.2321 184.024ZM74.0261 184.312V185.112L70.1701 185.672L70.0421 185.544V184.744L73.9141 184.2L74.0261 184.312ZM77.7644 181.56C78.3724 181.56 78.959 181.677 79.5244 181.912L79.3484 182.952L79.1564 183C78.623 182.648 78.111 182.472 77.6204 182.472C77.2577 182.472 76.9644 182.573 76.7404 182.776C76.5164 182.979 76.4044 183.224 76.4044 183.512C76.4044 183.8 76.5164 184.035 76.7404 184.216C76.975 184.387 77.3324 184.584 77.8124 184.808C78.2284 185 78.559 185.176 78.8044 185.336C79.0604 185.485 79.279 185.688 79.4604 185.944C79.6417 186.2 79.7324 186.515 79.7324 186.888C79.7324 187.283 79.631 187.651 79.4284 187.992C79.2257 188.333 78.927 188.611 78.5324 188.824C78.1377 189.027 77.6684 189.128 77.1244 189.128C76.3777 189.128 75.6684 188.952 74.9964 188.6L75.1564 187.512L75.3004 187.416C75.599 187.672 75.919 187.869 76.2604 188.008C76.6124 188.147 76.943 188.216 77.2524 188.216C77.647 188.216 77.967 188.109 78.2124 187.896C78.4577 187.672 78.5804 187.411 78.5804 187.112C78.5804 186.824 78.463 186.595 78.2284 186.424C78.0044 186.243 77.6524 186.04 77.1724 185.816C76.7564 185.624 76.4204 185.453 76.1644 185.304C75.9084 185.144 75.6897 184.931 75.5084 184.664C75.327 184.397 75.2364 184.067 75.2364 183.672C75.2364 183.053 75.4604 182.547 75.9084 182.152C76.367 181.757 76.9857 181.56 77.7644 181.56ZM84.3263 181.544C84.6569 181.544 84.9983 181.587 85.3503 181.672C85.7129 181.747 86.0276 181.848 86.2943 181.976L86.0703 183.08L85.9263 183.128C85.3716 182.765 84.8223 182.584 84.2783 182.584C83.6489 182.584 83.1583 182.824 82.8063 183.304C82.4543 183.784 82.2783 184.456 82.2783 185.32C82.2783 186.184 82.4596 186.867 82.8223 187.368C83.1956 187.859 83.7076 188.104 84.3583 188.104C84.6463 188.104 84.9449 188.056 85.2543 187.96C85.5743 187.864 85.8729 187.731 86.1503 187.56L86.2943 187.64L86.1503 188.712C85.4996 188.989 84.8489 189.128 84.1983 189.128C83.2276 189.128 82.4649 188.797 81.9103 188.136C81.3556 187.464 81.0783 186.547 81.0783 185.384C81.0783 184.2 81.3663 183.267 81.9423 182.584C82.5289 181.891 83.3236 181.544 84.3263 181.544ZM91.0619 181.656C91.1899 181.656 91.3285 181.667 91.4779 181.688V182.92L91.3339 182.968C91.1525 182.915 90.9552 182.888 90.7419 182.888C90.3899 182.888 90.0645 183.032 89.7659 183.32C89.4779 183.597 89.1899 184.045 88.9019 184.664L88.8859 185.784L88.9659 189H87.7019L87.7819 185.896L87.7179 181.752L88.9179 181.64L88.9019 183.144H88.9979C89.2965 182.611 89.6272 182.232 89.9899 182.008C90.3525 181.773 90.7099 181.656 91.0619 181.656ZM93.4341 185.288V185.32C93.4341 186.216 93.6368 186.904 94.0421 187.384C94.4475 187.864 95.0235 188.104 95.7701 188.104C96.1435 188.104 96.5168 188.045 96.8901 187.928C97.2635 187.8 97.6048 187.624 97.9141 187.4L98.0421 187.496L97.8501 188.584C97.1035 188.947 96.3568 189.128 95.6101 189.128C94.5648 189.128 93.7435 188.797 93.1461 188.136C92.5488 187.464 92.2501 186.547 92.2501 185.384C92.2501 184.211 92.5488 183.277 93.1461 182.584C93.7435 181.891 94.5488 181.544 95.5621 181.544C96.4155 181.544 97.0768 181.789 97.5461 182.28C98.0155 182.76 98.2501 183.432 98.2501 184.296C98.2501 184.584 98.2288 184.856 98.1861 185.112L98.0261 185.272L93.4341 185.288ZM95.5621 182.44C95.0288 182.44 94.5808 182.616 94.2181 182.968C93.8661 183.309 93.6315 183.795 93.5141 184.424L97.0501 184.36L97.0821 184.136C97.0821 183.592 96.9488 183.176 96.6821 182.888C96.4261 182.589 96.0528 182.44 95.5621 182.44ZM100.809 185.288V185.32C100.809 186.216 101.012 186.904 101.417 187.384C101.822 187.864 102.398 188.104 103.145 188.104C103.518 188.104 103.892 188.045 104.265 187.928C104.638 187.8 104.98 187.624 105.289 187.4L105.417 187.496L105.225 188.584C104.478 188.947 103.732 189.128 102.985 189.128C101.94 189.128 101.118 188.797 100.521 188.136C99.9238 187.464 99.6251 186.547 99.6251 185.384C99.6251 184.211 99.9238 183.277 100.521 182.584C101.118 181.891 101.924 181.544 102.937 181.544C103.79 181.544 104.452 181.789 104.921 182.28C105.39 182.76 105.625 183.432 105.625 184.296C105.625 184.584 105.604 184.856 105.561 185.112L105.401 185.272L100.809 185.288ZM102.937 182.44C102.404 182.44 101.956 182.616 101.593 182.968C101.241 183.309 101.006 183.795 100.889 184.424L104.425 184.36L104.457 184.136C104.457 183.592 104.324 183.176 104.057 182.888C103.801 182.589 103.428 182.44 102.937 182.44ZM112.232 184.024C112.243 183.587 112.141 183.245 111.928 183C111.715 182.755 111.4 182.632 110.984 182.632C110.312 182.632 109.587 183.011 108.808 183.768V185.784L108.872 189H107.608L107.688 185.896L107.624 181.752L108.824 181.64V182.712H108.92C109.581 182.125 110.259 181.747 110.952 181.576C111.752 181.576 112.36 181.763 112.776 182.136C113.203 182.509 113.411 183.043 113.4 183.736L113.368 185.816L113.432 189H112.152L112.232 184.024ZM8.92 204.544C9.25067 204.544 9.592 204.587 9.944 204.672C10.3067 204.747 10.6213 204.848 10.888 204.976L10.664 206.08L10.52 206.128C9.96533 205.765 9.416 205.584 8.872 205.584C8.24267 205.584 7.752 205.824 7.4 206.304C7.048 206.784 6.872 207.456 6.872 208.32C6.872 209.184 7.05333 209.867 7.416 210.368C7.78933 210.859 8.30133 211.104 8.952 211.104C9.24 211.104 9.53867 211.056 9.848 210.96C10.168 210.864 10.4667 210.731 10.744 210.56L10.888 210.64L10.744 211.712C10.0933 211.989 9.44267 212.128 8.792 212.128C7.82133 212.128 7.05867 211.797 6.504 211.136C5.94933 210.464 5.672 209.547 5.672 208.384C5.672 207.2 5.96 206.267 6.536 205.584C7.12267 204.891 7.91733 204.544 8.92 204.544ZM15.1723 204.544C16.1643 204.544 16.9323 204.869 17.4763 205.52C18.0309 206.16 18.3083 207.067 18.3083 208.24C18.3083 209.477 18.0203 210.437 17.4443 211.12C16.8683 211.792 16.0469 212.128 14.9803 212.128C13.9776 212.128 13.1989 211.808 12.6443 211.168C12.1003 210.517 11.8283 209.605 11.8283 208.432C11.8283 207.195 12.1163 206.24 12.6923 205.568C13.2789 204.885 14.1056 204.544 15.1723 204.544ZM15.0923 205.44C14.4203 205.44 13.9083 205.669 13.5563 206.128C13.2043 206.587 13.0283 207.259 13.0283 208.144C13.0283 209.168 13.1989 209.936 13.5403 210.448C13.8923 210.96 14.3989 211.216 15.0603 211.216C15.7323 211.216 16.2443 210.992 16.5963 210.544C16.9483 210.096 17.1243 209.424 17.1243 208.528C17.1243 207.515 16.9483 206.747 16.5963 206.224C16.2549 205.701 15.7536 205.44 15.0923 205.44ZM24.7634 207.024C24.774 206.587 24.6727 206.245 24.4594 206C24.246 205.755 23.9314 205.632 23.5154 205.632C22.8434 205.632 22.118 206.011 21.3394 206.768V208.784L21.4034 212H20.1394L20.2194 208.896L20.1554 204.752L21.3554 204.64V205.712H21.4514C22.1127 205.125 22.79 204.747 23.4834 204.576C24.2834 204.576 24.8914 204.763 25.3074 205.136C25.734 205.509 25.942 206.043 25.9314 206.736L25.8994 208.816L25.9634 212H24.6834L24.7634 207.024ZM30.6934 211.024C31.0454 211.024 31.4294 210.917 31.8454 210.704L31.9894 210.8L31.8614 211.632C31.2854 211.899 30.752 212.053 30.2614 212.096C29.6534 211.979 29.216 211.755 28.9494 211.424C28.6827 211.093 28.5494 210.613 28.5494 209.984L28.5974 208.848L28.5814 205.536H27.5734L27.5094 205.44L27.5894 204.688H28.5654V203.504L29.6694 203.024L29.7974 203.136L29.7654 204.688H31.9414L32.0054 204.784L31.9254 205.536H29.7654L29.6854 209.872C29.6747 210.299 29.7494 210.597 29.9094 210.768C30.0694 210.939 30.3307 211.024 30.6934 211.024ZM33.856 208.288V208.32C33.856 209.216 34.0587 209.904 34.464 210.384C34.8693 210.864 35.4453 211.104 36.192 211.104C36.5653 211.104 36.9387 211.045 37.312 210.928C37.6853 210.8 38.0267 210.624 38.336 210.4L38.464 210.496L38.272 211.584C37.5253 211.947 36.7787 212.128 36.032 212.128C34.9867 212.128 34.1653 211.797 33.568 211.136C32.9707 210.464 32.672 209.547 32.672 208.384C32.672 207.211 32.9707 206.277 33.568 205.584C34.1653 204.891 34.9707 204.544 35.984 204.544C36.8373 204.544 37.4987 204.789 37.968 205.28C38.4373 205.76 38.672 206.432 38.672 207.296C38.672 207.584 38.6507 207.856 38.608 208.112L38.448 208.272L33.856 208.288ZM35.984 205.44C35.4507 205.44 35.0027 205.616 34.64 205.968C34.288 206.309 34.0533 206.795 33.936 207.424L37.472 207.36L37.504 207.136C37.504 206.592 37.3707 206.176 37.104 205.888C36.848 205.589 36.4747 205.44 35.984 205.44ZM45.279 207.024C45.2897 206.587 45.1883 206.245 44.975 206C44.7617 205.755 44.447 205.632 44.031 205.632C43.359 205.632 42.6337 206.011 41.855 206.768V208.784L41.919 212H40.655L40.735 208.896L40.671 204.752L41.871 204.64V205.712H41.967C42.6283 205.125 43.3057 204.747 43.999 204.576C44.799 204.576 45.407 204.763 45.823 205.136C46.2497 205.509 46.4577 206.043 46.447 206.736L46.415 208.816L46.479 212H45.199L45.279 207.024ZM51.209 211.024C51.561 211.024 51.945 210.917 52.361 210.704L52.505 210.8L52.377 211.632C51.801 211.899 51.2677 212.053 50.777 212.096C50.169 211.979 49.7317 211.755 49.465 211.424C49.1983 211.093 49.065 210.613 49.065 209.984L49.113 208.848L49.097 205.536H48.089L48.025 205.44L48.105 204.688H49.081V203.504L50.185 203.024L50.313 203.136L50.281 204.688H52.457L52.521 204.784L52.441 205.536H50.281L50.201 209.872C50.1903 210.299 50.265 210.597 50.425 210.768C50.585 210.939 50.8463 211.024 51.209 211.024ZM57.231 208.288V208.32C57.231 209.216 57.4337 209.904 57.839 210.384C58.2443 210.864 58.8203 211.104 59.567 211.104C59.9403 211.104 60.3137 211.045 60.687 210.928C61.0603 210.8 61.4017 210.624 61.711 210.4L61.839 210.496L61.647 211.584C60.9003 211.947 60.1537 212.128 59.407 212.128C58.3617 212.128 57.5403 211.797 56.943 211.136C56.3457 210.464 56.047 209.547 56.047 208.384C56.047 207.211 56.3457 206.277 56.943 205.584C57.5403 204.891 58.3457 204.544 59.359 204.544C60.2123 204.544 60.8737 204.789 61.343 205.28C61.8123 205.76 62.047 206.432 62.047 207.296C62.047 207.584 62.0257 207.856 61.983 208.112L61.823 208.272L57.231 208.288ZM59.359 205.44C58.8257 205.44 58.3777 205.616 58.015 205.968C57.663 206.309 57.4283 206.795 57.311 207.424L60.847 207.36L60.879 207.136C60.879 206.592 60.7457 206.176 60.479 205.888C60.223 205.589 59.8497 205.44 59.359 205.44ZM64.798 205.312L66.318 207.536L67.71 205.328L68.078 204.672H69.262L66.974 208.256L69.422 211.936L68.078 212.064L67.726 211.312L66.158 208.992L64.622 211.376L64.302 212H63.118L65.47 208.272L63.134 204.72L64.494 204.624L64.798 205.312ZM71.0631 208.896L71.0151 204.752L72.2471 204.64L72.2151 208.784L72.2471 212H70.9991L71.0631 208.896ZM71.6551 201.392C71.8685 201.392 72.0391 201.456 72.1671 201.584C72.2951 201.712 72.3591 201.888 72.3591 202.112C72.3591 202.347 72.2898 202.533 72.1511 202.672C72.0231 202.811 71.8418 202.88 71.6071 202.88C71.3831 202.88 71.2071 202.816 71.0791 202.688C70.9618 202.56 70.9031 202.379 70.9031 202.144C70.9031 201.92 70.9671 201.739 71.0951 201.6C71.2338 201.461 71.4205 201.392 71.6551 201.392ZM77.1621 211.024C77.5141 211.024 77.8981 210.917 78.3141 210.704L78.4581 210.8L78.3301 211.632C77.7541 211.899 77.2208 212.053 76.7301 212.096C76.1221 211.979 75.6848 211.755 75.4181 211.424C75.1515 211.093 75.0181 210.613 75.0181 209.984L75.0661 208.848L75.0501 205.536H74.0421L73.9781 205.44L74.0581 204.688H75.0341V203.504L76.1381 203.024L76.2661 203.136L76.2341 204.688H78.4101L78.4741 204.784L78.3941 205.536H76.2341L76.1541 209.872C76.1435 210.299 76.2181 210.597 76.3781 210.768C76.5381 210.939 76.7995 211.024 77.1621 211.024ZM81.9675 204.56C82.5755 204.56 83.1622 204.677 83.7275 204.912L83.5515 205.952L83.3595 206C82.8262 205.648 82.3142 205.472 81.8235 205.472C81.4608 205.472 81.1675 205.573 80.9435 205.776C80.7195 205.979 80.6075 206.224 80.6075 206.512C80.6075 206.8 80.7195 207.035 80.9435 207.216C81.1782 207.387 81.5355 207.584 82.0155 207.808C82.4315 208 82.7622 208.176 83.0075 208.336C83.2635 208.485 83.4822 208.688 83.6635 208.944C83.8448 209.2 83.9355 209.515 83.9355 209.888C83.9355 210.283 83.8342 210.651 83.6315 210.992C83.4288 211.333 83.1302 211.611 82.7355 211.824C82.3408 212.027 81.8715 212.128 81.3275 212.128C80.5808 212.128 79.8715 211.952 79.1995 211.6L79.3595 210.512L79.5035 210.416C79.8022 210.672 80.1222 210.869 80.4635 211.008C80.8155 211.147 81.1462 211.216 81.4555 211.216C81.8502 211.216 82.1702 211.109 82.4155 210.896C82.6608 210.672 82.7835 210.411 82.7835 210.112C82.7835 209.824 82.6662 209.595 82.4315 209.424C82.2075 209.243 81.8555 209.04 81.3755 208.816C80.9595 208.624 80.6235 208.453 80.3675 208.304C80.1115 208.144 79.8928 207.931 79.7115 207.664C79.5302 207.397 79.4395 207.067 79.4395 206.672C79.4395 206.053 79.6635 205.547 80.1115 205.152C80.5702 204.757 81.1888 204.56 81.9675 204.56ZM91.266 204.544C92.258 204.544 93.026 204.869 93.57 205.52C94.1247 206.16 94.402 207.067 94.402 208.24C94.402 209.477 94.114 210.437 93.538 211.12C92.962 211.792 92.1407 212.128 91.074 212.128C90.0713 212.128 89.2927 211.808 88.738 211.168C88.194 210.517 87.922 209.605 87.922 208.432C87.922 207.195 88.21 206.24 88.786 205.568C89.3727 204.885 90.1993 204.544 91.266 204.544ZM91.186 205.44C90.514 205.44 90.002 205.669 89.65 206.128C89.298 206.587 89.122 207.259 89.122 208.144C89.122 209.168 89.2927 209.936 89.634 210.448C89.986 210.96 90.4927 211.216 91.154 211.216C91.826 211.216 92.338 210.992 92.69 210.544C93.042 210.096 93.218 209.424 93.218 208.528C93.218 207.515 93.042 206.747 92.69 206.224C92.3487 205.701 91.8473 205.44 91.186 205.44ZM102.949 211.056L102.821 211.776C102.512 211.957 102.208 212.064 101.909 212.096C101.6 212.053 101.349 211.947 101.157 211.776C100.976 211.595 100.848 211.328 100.773 210.976H100.677C100.037 211.552 99.376 211.925 98.6934 212.096C97.904 212.096 97.3014 211.909 96.8854 211.536C96.48 211.163 96.2827 210.629 96.2934 209.936L96.3094 207.904L96.2614 204.752L97.5414 204.64L97.4454 209.632C97.4454 210.069 97.5467 210.411 97.7494 210.656C97.9627 210.901 98.272 211.024 98.6774 211.024C99.3387 211.024 100 210.704 100.661 210.064V204.752L101.877 204.64L101.797 210.432C101.797 210.656 101.829 210.816 101.893 210.912C101.968 210.997 102.091 211.04 102.261 211.04C102.432 211.04 102.619 211.008 102.821 210.944L102.949 211.056ZM106.85 211.024C107.202 211.024 107.586 210.917 108.002 210.704L108.146 210.8L108.018 211.632C107.442 211.899 106.908 212.053 106.418 212.096C105.81 211.979 105.372 211.755 105.106 211.424C104.839 211.093 104.706 210.613 104.706 209.984L104.754 208.848L104.738 205.536H103.73L103.666 205.44L103.746 204.688H104.722V203.504L105.826 203.024L105.954 203.136L105.922 204.688H108.098L108.162 204.784L108.082 205.536H105.922L105.842 209.872C105.831 210.299 105.906 210.597 106.066 210.768C106.226 210.939 106.487 211.024 106.85 211.024ZM115.032 204.544C116.024 204.544 116.792 204.869 117.336 205.52C117.89 206.16 118.168 207.067 118.168 208.24C118.168 209.477 117.88 210.437 117.304 211.12C116.728 211.792 115.906 212.128 114.84 212.128C113.837 212.128 113.058 211.808 112.504 211.168C111.96 210.517 111.688 209.605 111.688 208.432C111.688 207.195 111.976 206.24 112.552 205.568C113.138 204.885 113.965 204.544 115.032 204.544ZM114.952 205.44C114.28 205.44 113.768 205.669 113.416 206.128C113.064 206.587 112.888 207.259 112.888 208.144C112.888 209.168 113.058 209.936 113.4 210.448C113.752 210.96 114.258 211.216 114.92 211.216C115.592 211.216 116.104 210.992 116.456 210.544C116.808 210.096 116.984 209.424 116.984 208.528C116.984 207.515 116.808 206.747 116.456 206.224C116.114 205.701 115.613 205.44 114.952 205.44ZM122.915 200.736C123.299 200.736 123.715 200.784 124.163 200.88L124.067 201.872L123.971 201.952C123.587 201.76 123.197 201.664 122.803 201.664C122.387 201.664 122.067 201.797 121.843 202.064C121.619 202.32 121.501 202.704 121.491 203.216L121.475 204.688H123.395L123.443 204.784L123.363 205.536H121.459L121.427 208.784L121.507 212H120.243L120.339 208.88L120.307 205.536H119.203L119.139 205.44L119.219 204.688H120.307L120.291 203.408C120.28 202.544 120.504 201.883 120.963 201.424C121.421 200.965 122.072 200.736 122.915 200.736ZM8.584 233.024C8.936 233.024 9.32 232.917 9.736 232.704L9.88 232.8L9.752 233.632C9.176 233.899 8.64267 234.053 8.152 234.096C7.544 233.979 7.10667 233.755 6.84 233.424C6.57333 233.093 6.44 232.613 6.44 231.984L6.488 230.848L6.472 227.536H5.464L5.4 227.44L5.48 226.688H6.456V225.504L7.56 225.024L7.688 225.136L7.656 226.688H9.832L9.896 226.784L9.816 227.536H7.656L7.576 231.872C7.56533 232.299 7.64 232.597 7.8 232.768C7.96 232.939 8.22133 233.024 8.584 233.024ZM16.0774 229.024C16.088 228.587 15.9867 228.245 15.7734 228C15.56 227.755 15.2454 227.632 14.8294 227.632C14.1254 227.632 13.4054 228.011 12.6694 228.768L12.6374 230.784L12.7174 234H11.4534L11.5494 230.88L11.4694 222.88L12.7334 222.768L12.6694 227.712H12.7654C13.4267 227.125 14.104 226.747 14.7974 226.576C15.608 226.576 16.2214 226.763 16.6374 227.136C17.0534 227.509 17.256 228.043 17.2454 228.736L17.2134 230.816L17.2774 234H15.9974L16.0774 229.024ZM20.2779 230.288V230.32C20.2779 231.216 20.4805 231.904 20.8859 232.384C21.2912 232.864 21.8672 233.104 22.6139 233.104C22.9872 233.104 23.3605 233.045 23.7339 232.928C24.1072 232.8 24.4485 232.624 24.7579 232.4L24.8859 232.496L24.6939 233.584C23.9472 233.947 23.2005 234.128 22.4539 234.128C21.4085 234.128 20.5872 233.797 19.9899 233.136C19.3925 232.464 19.0939 231.547 19.0939 230.384C19.0939 229.211 19.3925 228.277 19.9899 227.584C20.5872 226.891 21.3925 226.544 22.4059 226.544C23.2592 226.544 23.9205 226.789 24.3899 227.28C24.8592 227.76 25.0939 228.432 25.0939 229.296C25.0939 229.584 25.0725 229.856 25.0299 230.112L24.8699 230.272L20.2779 230.288ZM22.4059 227.44C21.8725 227.44 21.4245 227.616 21.0619 227.968C20.7099 228.309 20.4752 228.795 20.3579 229.424L23.8939 229.36L23.9259 229.136C23.9259 228.592 23.7925 228.176 23.5259 227.888C23.2699 227.589 22.8965 227.44 22.4059 227.44ZM31.7175 226.56C32.3255 226.56 32.9122 226.677 33.4775 226.912L33.3015 227.952L33.1095 228C32.5762 227.648 32.0642 227.472 31.5735 227.472C31.2108 227.472 30.9175 227.573 30.6935 227.776C30.4695 227.979 30.3575 228.224 30.3575 228.512C30.3575 228.8 30.4695 229.035 30.6935 229.216C30.9282 229.387 31.2855 229.584 31.7655 229.808C32.1815 230 32.5122 230.176 32.7575 230.336C33.0135 230.485 33.2322 230.688 33.4135 230.944C33.5948 231.2 33.6855 231.515 33.6855 231.888C33.6855 232.283 33.5842 232.651 33.3815 232.992C33.1788 233.333 32.8802 233.611 32.4855 233.824C32.0908 234.027 31.6215 234.128 31.0775 234.128C30.3308 234.128 29.6215 233.952 28.9495 233.6L29.1095 232.512L29.2535 232.416C29.5522 232.672 29.8722 232.869 30.2135 233.008C30.5655 233.147 30.8962 233.216 31.2055 233.216C31.6002 233.216 31.9202 233.109 32.1655 232.896C32.4108 232.672 32.5335 232.411 32.5335 232.112C32.5335 231.824 32.4162 231.595 32.1815 231.424C31.9575 231.243 31.6055 231.04 31.1255 230.816C30.7095 230.624 30.3735 230.453 30.1175 230.304C29.8615 230.144 29.6428 229.931 29.4615 229.664C29.2802 229.397 29.1895 229.067 29.1895 228.672C29.1895 228.053 29.4135 227.547 29.8615 227.152C30.3202 226.757 30.9388 226.56 31.7175 226.56ZM38.2794 226.544C38.61 226.544 38.9514 226.587 39.3034 226.672C39.666 226.747 39.9807 226.848 40.2474 226.976L40.0234 228.08L39.8794 228.128C39.3247 227.765 38.7754 227.584 38.2314 227.584C37.602 227.584 37.1114 227.824 36.7594 228.304C36.4074 228.784 36.2314 229.456 36.2314 230.32C36.2314 231.184 36.4127 231.867 36.7754 232.368C37.1487 232.859 37.6607 233.104 38.3114 233.104C38.5994 233.104 38.898 233.056 39.2074 232.96C39.5274 232.864 39.826 232.731 40.1034 232.56L40.2474 232.64L40.1034 233.712C39.4527 233.989 38.802 234.128 38.1514 234.128C37.1807 234.128 36.418 233.797 35.8634 233.136C35.3087 232.464 35.0314 231.547 35.0314 230.384C35.0314 229.2 35.3194 228.267 35.8954 227.584C36.482 226.891 37.2767 226.544 38.2794 226.544ZM45.015 226.656C45.143 226.656 45.2817 226.667 45.431 226.688V227.92L45.287 227.968C45.1057 227.915 44.9083 227.888 44.695 227.888C44.343 227.888 44.0177 228.032 43.719 228.32C43.431 228.597 43.143 229.045 42.855 229.664L42.839 230.784L42.919 234H41.655L41.735 230.896L41.671 226.752L42.871 226.64L42.855 228.144H42.951C43.2497 227.611 43.5803 227.232 43.943 227.008C44.3057 226.773 44.663 226.656 45.015 226.656ZM47.3873 230.288V230.32C47.3873 231.216 47.5899 231.904 47.9953 232.384C48.4006 232.864 48.9766 233.104 49.7233 233.104C50.0966 233.104 50.4699 233.045 50.8433 232.928C51.2166 232.8 51.5579 232.624 51.8673 232.4L51.9953 232.496L51.8033 233.584C51.0566 233.947 50.3099 234.128 49.5633 234.128C48.5179 234.128 47.6966 233.797 47.0993 233.136C46.5019 232.464 46.2033 231.547 46.2033 230.384C46.2033 229.211 46.5019 228.277 47.0993 227.584C47.6966 226.891 48.5019 226.544 49.5153 226.544C50.3686 226.544 51.0299 226.789 51.4993 227.28C51.9686 227.76 52.2033 228.432 52.2033 229.296C52.2033 229.584 52.1819 229.856 52.1393 230.112L51.9793 230.272L47.3873 230.288ZM49.5153 227.44C48.9819 227.44 48.5339 227.616 48.1713 227.968C47.8193 228.309 47.5846 228.795 47.4673 229.424L51.0033 229.36L51.0353 229.136C51.0353 228.592 50.9019 228.176 50.6353 227.888C50.3793 227.589 50.0059 227.44 49.5153 227.44ZM54.7623 230.288V230.32C54.7623 231.216 54.9649 231.904 55.3703 232.384C55.7756 232.864 56.3516 233.104 57.0983 233.104C57.4716 233.104 57.8449 233.045 58.2183 232.928C58.5916 232.8 58.9329 232.624 59.2423 232.4L59.3703 232.496L59.1783 233.584C58.4316 233.947 57.6849 234.128 56.9383 234.128C55.8929 234.128 55.0716 233.797 54.4743 233.136C53.8769 232.464 53.5783 231.547 53.5783 230.384C53.5783 229.211 53.8769 228.277 54.4743 227.584C55.0716 226.891 55.8769 226.544 56.8903 226.544C57.7436 226.544 58.4049 226.789 58.8743 227.28C59.3436 227.76 59.5783 228.432 59.5783 229.296C59.5783 229.584 59.5569 229.856 59.5143 230.112L59.3543 230.272L54.7623 230.288ZM56.8903 227.44C56.3569 227.44 55.9089 227.616 55.5463 227.968C55.1943 228.309 54.9596 228.795 54.8423 229.424L58.3783 229.36L58.4103 229.136C58.4103 228.592 58.2769 228.176 58.0103 227.888C57.7543 227.589 57.3809 227.44 56.8903 227.44ZM66.1853 229.024C66.1959 228.587 66.0946 228.245 65.8813 228C65.6679 227.755 65.3533 227.632 64.9373 227.632C64.2653 227.632 63.5399 228.011 62.7613 228.768V230.784L62.8253 234H61.5613L61.6413 230.896L61.5773 226.752L62.7773 226.64V227.712H62.8733C63.5346 227.125 64.2119 226.747 64.9053 226.576C65.7053 226.576 66.3133 226.763 66.7293 227.136C67.1559 227.509 67.3639 228.043 67.3533 228.736L67.3213 230.816L67.3853 234H66.1053L66.1853 229.024Z" fill="#333333"/>
<path d="M178.2 155.648C179.608 155.648 180.685 156.08 181.432 156.944C182.189 157.808 182.568 159.051 182.568 160.672C182.568 162.421 182.168 163.771 181.368 164.72C180.568 165.659 179.427 166.128 177.944 166.128C176.557 166.128 175.485 165.68 174.728 164.784C173.981 163.888 173.608 162.613 173.608 160.96C173.608 159.253 174.003 157.941 174.792 157.024C175.592 156.107 176.728 155.648 178.2 155.648ZM178.12 156.688C175.987 156.688 174.92 158.064 174.92 160.816C174.92 162.277 175.176 163.36 175.688 164.064C176.211 164.768 176.995 165.12 178.04 165.12C180.173 165.12 181.24 163.717 181.24 160.912C181.24 159.483 180.979 158.421 180.456 157.728C179.944 157.035 179.165 156.688 178.12 156.688ZM189.06 161.024C189.071 160.587 188.97 160.245 188.756 160C188.543 159.755 188.228 159.632 187.812 159.632C187.14 159.632 186.415 160.011 185.636 160.768V162.784L185.7 166H184.436L184.516 162.896L184.452 158.752L185.652 158.64V159.712H185.748C186.41 159.125 187.087 158.747 187.78 158.576C188.58 158.576 189.188 158.763 189.604 159.136C190.031 159.509 190.239 160.043 190.228 160.736L190.196 162.816L190.26 166H188.98L189.06 161.024ZM197.631 165.024C197.983 165.024 198.367 164.917 198.783 164.704L198.927 164.8L198.799 165.632C198.223 165.899 197.69 166.053 197.199 166.096C196.591 165.979 196.154 165.755 195.887 165.424C195.62 165.093 195.487 164.613 195.487 163.984L195.535 162.848L195.519 159.536H194.511L194.447 159.44L194.527 158.688H195.503V157.504L196.607 157.024L196.735 157.136L196.703 158.688H198.879L198.943 158.784L198.863 159.536H196.703L196.623 163.872C196.612 164.299 196.687 164.597 196.847 164.768C197.007 164.939 197.268 165.024 197.631 165.024ZM202.852 158.544C203.546 158.544 204.09 158.715 204.484 159.056C204.89 159.397 205.092 159.867 205.092 160.464C205.092 160.645 205.06 161.301 204.996 162.432C204.932 163.563 204.9 164.224 204.9 164.416C204.9 164.651 204.938 164.816 205.012 164.912C205.087 164.997 205.215 165.04 205.396 165.04C205.556 165.04 205.738 165.008 205.94 164.944L206.068 165.056L205.94 165.776C205.631 165.957 205.327 166.064 205.028 166.096C204.698 166.064 204.431 165.947 204.228 165.744C204.036 165.541 203.935 165.264 203.924 164.912H203.812C203.236 165.499 202.666 165.899 202.1 166.112C201.386 166.112 200.826 165.936 200.42 165.584C200.026 165.221 199.828 164.731 199.828 164.112C199.828 163.643 199.951 163.269 200.196 162.992C200.452 162.715 200.826 162.517 201.316 162.4L203.908 161.792L203.924 160.752C203.924 160.336 203.812 160.016 203.588 159.792C203.375 159.568 203.066 159.456 202.66 159.456C202.298 159.456 201.935 159.541 201.572 159.712C201.21 159.883 200.82 160.149 200.404 160.512L200.276 160.448L200.116 159.536C201.002 158.875 201.914 158.544 202.852 158.544ZM201.572 163.168C201.359 163.232 201.204 163.323 201.108 163.44C201.012 163.547 200.964 163.712 200.964 163.936C200.964 164.288 201.06 164.565 201.252 164.768C201.455 164.96 201.722 165.056 202.052 165.056C202.639 165.056 203.236 164.677 203.844 163.92L203.892 162.608L201.572 163.168ZM211.155 158.592C212.072 158.592 212.776 158.896 213.267 159.504C213.758 160.112 214.003 160.981 214.003 162.112C214.003 163.392 213.694 164.384 213.075 165.088C212.456 165.781 211.576 166.128 210.435 166.128C209.987 166.128 209.523 166.08 209.043 165.984L209.075 168.96H207.827L207.907 162.896L207.827 158.752L209.043 158.64L209.027 159.68H209.139C209.512 159.371 209.848 159.136 210.147 158.976C210.446 158.816 210.782 158.688 211.155 158.592ZM210.595 165.2C211.299 165.2 211.843 164.955 212.227 164.464C212.611 163.973 212.803 163.275 212.803 162.368C212.803 161.483 212.648 160.805 212.339 160.336C212.04 159.867 211.608 159.632 211.043 159.632C210.712 159.632 210.382 159.723 210.051 159.904C209.731 160.085 209.39 160.368 209.027 160.752L209.011 162.784L209.027 164.784C209.55 165.061 210.072 165.2 210.595 165.2ZM219.296 158.592C220.213 158.592 220.917 158.896 221.408 159.504C221.898 160.112 222.144 160.981 222.144 162.112C222.144 163.392 221.834 164.384 221.216 165.088C220.597 165.781 219.717 166.128 218.576 166.128C218.128 166.128 217.664 166.08 217.184 165.984L217.216 168.96H215.968L216.048 162.896L215.968 158.752L217.184 158.64L217.168 159.68H217.28C217.653 159.371 217.989 159.136 218.288 158.976C218.586 158.816 218.922 158.688 219.296 158.592ZM218.736 165.2C219.44 165.2 219.984 164.955 220.368 164.464C220.752 163.973 220.944 163.275 220.944 162.368C220.944 161.483 220.789 160.805 220.48 160.336C220.181 159.867 219.749 159.632 219.184 159.632C218.853 159.632 218.522 159.723 218.192 159.904C217.872 160.085 217.53 160.368 217.168 160.752L217.152 162.784L217.168 164.784C217.69 165.061 218.213 165.2 218.736 165.2ZM224.188 162.896L224.14 158.752L225.372 158.64L225.34 162.784L225.372 166H224.124L224.188 162.896ZM224.78 155.392C224.993 155.392 225.164 155.456 225.292 155.584C225.42 155.712 225.484 155.888 225.484 156.112C225.484 156.347 225.415 156.533 225.276 156.672C225.148 156.811 224.967 156.88 224.732 156.88C224.508 156.88 224.332 156.816 224.204 156.688C224.087 156.56 224.028 156.379 224.028 156.144C224.028 155.92 224.092 155.739 224.22 155.6C224.359 155.461 224.545 155.392 224.78 155.392ZM232.607 161.024C232.618 160.587 232.516 160.245 232.303 160C232.09 159.755 231.775 159.632 231.359 159.632C230.687 159.632 229.962 160.011 229.183 160.768V162.784L229.247 166H227.983L228.063 162.896L227.999 158.752L229.199 158.64V159.712H229.295C229.956 159.125 230.634 158.747 231.327 158.576C232.127 158.576 232.735 158.763 233.151 159.136C233.578 159.509 233.786 160.043 233.775 160.736L233.743 162.816L233.807 166H232.527L232.607 161.024ZM242.713 159.296C242.382 159.392 241.892 159.504 241.241 159.632L241.209 159.696C241.444 160.069 241.561 160.523 241.561 161.056C241.561 161.835 241.3 162.453 240.777 162.912C240.265 163.371 239.566 163.6 238.681 163.6C238.329 163.6 237.998 163.557 237.689 163.472C237.508 163.611 237.385 163.723 237.321 163.808C237.257 163.893 237.225 163.989 237.225 164.096C237.225 164.32 237.364 164.48 237.641 164.576C237.918 164.661 238.372 164.752 239.001 164.848C239.62 164.933 240.126 165.029 240.521 165.136C240.916 165.243 241.257 165.419 241.545 165.664C241.833 165.899 241.977 166.229 241.977 166.656C241.977 167.104 241.822 167.515 241.513 167.888C241.214 168.261 240.798 168.555 240.265 168.768C239.742 168.981 239.166 169.088 238.537 169.088C237.684 169.088 237.017 168.891 236.537 168.496C236.068 168.112 235.833 167.611 235.833 166.992C236.089 166.48 236.558 166.016 237.241 165.6V165.52C236.857 165.403 236.558 165.248 236.345 165.056C236.142 164.853 236.041 164.581 236.041 164.24C236.265 163.867 236.59 163.541 237.017 163.264V163.2C236.676 162.987 236.414 162.709 236.233 162.368C236.062 162.016 235.977 161.611 235.977 161.152C235.977 160.352 236.233 159.728 236.745 159.28C237.268 158.821 237.961 158.592 238.825 158.592C239.39 158.592 239.87 158.688 240.265 158.88C241.001 158.741 241.774 158.56 242.585 158.336L242.713 158.432V159.296ZM238.745 162.736C239.278 162.736 239.689 162.587 239.977 162.288C240.276 161.989 240.425 161.573 240.425 161.04C240.425 160.528 240.286 160.133 240.009 159.856C239.732 159.579 239.332 159.44 238.809 159.44C238.276 159.44 237.86 159.584 237.561 159.872C237.262 160.16 237.113 160.571 237.113 161.104C237.113 161.616 237.252 162.016 237.529 162.304C237.817 162.592 238.222 162.736 238.745 162.736ZM240.857 166.896C240.857 166.544 240.676 166.299 240.313 166.16C239.961 166.021 239.422 165.899 238.697 165.792L238.185 165.712C237.78 165.957 237.47 166.192 237.257 166.416C237.054 166.64 236.953 166.875 236.953 167.12C236.953 167.429 237.102 167.685 237.401 167.888C237.71 168.091 238.137 168.192 238.681 168.192C239.3 168.192 239.817 168.064 240.233 167.808C240.649 167.563 240.857 167.259 240.857 166.896ZM248.975 165.024C249.327 165.024 249.711 164.917 250.127 164.704L250.271 164.8L250.143 165.632C249.567 165.899 249.033 166.053 248.543 166.096C247.935 165.979 247.497 165.755 247.231 165.424C246.964 165.093 246.831 164.613 246.831 163.984L246.879 162.848L246.863 159.536H245.855L245.791 159.44L245.871 158.688H246.847V157.504L247.951 157.024L248.079 157.136L248.047 158.688H250.223L250.287 158.784L250.207 159.536H248.047L247.967 163.872C247.956 164.299 248.031 164.597 248.191 164.768C248.351 164.939 248.612 165.024 248.975 165.024ZM256.468 161.024C256.479 160.587 256.377 160.245 256.164 160C255.951 159.755 255.636 159.632 255.22 159.632C254.516 159.632 253.796 160.011 253.06 160.768L253.028 162.784L253.108 166H251.844L251.94 162.88L251.86 154.88L253.124 154.768L253.06 159.712H253.156C253.817 159.125 254.495 158.747 255.188 158.576C255.999 158.576 256.612 158.763 257.028 159.136C257.444 159.509 257.647 160.043 257.636 160.736L257.604 162.816L257.668 166H256.388L256.468 161.024ZM260.669 162.288V162.32C260.669 163.216 260.871 163.904 261.277 164.384C261.682 164.864 262.258 165.104 263.005 165.104C263.378 165.104 263.751 165.045 264.125 164.928C264.498 164.8 264.839 164.624 265.149 164.4L265.277 164.496L265.085 165.584C264.338 165.947 263.591 166.128 262.845 166.128C261.799 166.128 260.978 165.797 260.381 165.136C259.783 164.464 259.485 163.547 259.485 162.384C259.485 161.211 259.783 160.277 260.381 159.584C260.978 158.891 261.783 158.544 262.797 158.544C263.65 158.544 264.311 158.789 264.781 159.28C265.25 159.76 265.485 160.432 265.485 161.296C265.485 161.584 265.463 161.856 265.421 162.112L265.261 162.272L260.669 162.288ZM262.797 159.44C262.263 159.44 261.815 159.616 261.453 159.968C261.101 160.309 260.866 160.795 260.749 161.424L264.285 161.36L264.317 161.136C264.317 160.592 264.183 160.176 263.917 159.888C263.661 159.589 263.287 159.44 262.797 159.44ZM272.108 158.56C272.716 158.56 273.303 158.677 273.868 158.912L273.692 159.952L273.5 160C272.967 159.648 272.455 159.472 271.964 159.472C271.601 159.472 271.308 159.573 271.084 159.776C270.86 159.979 270.748 160.224 270.748 160.512C270.748 160.8 270.86 161.035 271.084 161.216C271.319 161.387 271.676 161.584 272.156 161.808C272.572 162 272.903 162.176 273.148 162.336C273.404 162.485 273.623 162.688 273.804 162.944C273.985 163.2 274.076 163.515 274.076 163.888C274.076 164.283 273.975 164.651 273.772 164.992C273.569 165.333 273.271 165.611 272.876 165.824C272.481 166.027 272.012 166.128 271.468 166.128C270.721 166.128 270.012 165.952 269.34 165.6L269.5 164.512L269.644 164.416C269.943 164.672 270.263 164.869 270.604 165.008C270.956 165.147 271.287 165.216 271.596 165.216C271.991 165.216 272.311 165.109 272.556 164.896C272.801 164.672 272.924 164.411 272.924 164.112C272.924 163.824 272.807 163.595 272.572 163.424C272.348 163.243 271.996 163.04 271.516 162.816C271.1 162.624 270.764 162.453 270.508 162.304C270.252 162.144 270.033 161.931 269.852 161.664C269.671 161.397 269.58 161.067 269.58 160.672C269.58 160.053 269.804 159.547 270.252 159.152C270.711 158.757 271.329 158.56 272.108 158.56ZM278.446 158.544C279.139 158.544 279.683 158.715 280.078 159.056C280.483 159.397 280.686 159.867 280.686 160.464C280.686 160.645 280.654 161.301 280.59 162.432C280.526 163.563 280.494 164.224 280.494 164.416C280.494 164.651 280.531 164.816 280.606 164.912C280.681 164.997 280.809 165.04 280.99 165.04C281.15 165.04 281.331 165.008 281.534 164.944L281.662 165.056L281.534 165.776C281.225 165.957 280.921 166.064 280.622 166.096C280.291 166.064 280.025 165.947 279.822 165.744C279.63 165.541 279.529 165.264 279.518 164.912H279.406C278.83 165.499 278.259 165.899 277.694 166.112C276.979 166.112 276.419 165.936 276.014 165.584C275.619 165.221 275.422 164.731 275.422 164.112C275.422 163.643 275.545 163.269 275.79 162.992C276.046 162.715 276.419 162.517 276.91 162.4L279.502 161.792L279.518 160.752C279.518 160.336 279.406 160.016 279.182 159.792C278.969 159.568 278.659 159.456 278.254 159.456C277.891 159.456 277.529 159.541 277.166 159.712C276.803 159.883 276.414 160.149 275.998 160.512L275.87 160.448L275.71 159.536C276.595 158.875 277.507 158.544 278.446 158.544ZM277.166 163.168C276.953 163.232 276.798 163.323 276.702 163.44C276.606 163.547 276.558 163.712 276.558 163.936C276.558 164.288 276.654 164.565 276.846 164.768C277.049 164.96 277.315 165.056 277.646 165.056C278.233 165.056 278.83 164.677 279.438 163.92L279.486 162.608L277.166 163.168ZM283.65 159.6L285.234 164.736H285.33L287.186 159.664L287.442 158.672H288.578L285.89 166H284.53L282.258 158.704L283.442 158.624L283.65 159.6ZM290.34 162.288V162.32C290.34 163.216 290.543 163.904 290.948 164.384C291.354 164.864 291.93 165.104 292.676 165.104C293.05 165.104 293.423 165.045 293.796 164.928C294.17 164.8 294.511 164.624 294.82 164.4L294.948 164.496L294.756 165.584C294.01 165.947 293.263 166.128 292.516 166.128C291.471 166.128 290.65 165.797 290.052 165.136C289.455 164.464 289.156 163.547 289.156 162.384C289.156 161.211 289.455 160.277 290.052 159.584C290.65 158.891 291.455 158.544 292.468 158.544C293.322 158.544 293.983 158.789 294.452 159.28C294.922 159.76 295.156 160.432 295.156 161.296C295.156 161.584 295.135 161.856 295.092 162.112L294.932 162.272L290.34 162.288ZM292.468 159.44C291.935 159.44 291.487 159.616 291.124 159.968C290.772 160.309 290.538 160.795 290.42 161.424L293.956 161.36L293.988 161.136C293.988 160.592 293.855 160.176 293.588 159.888C293.332 159.589 292.959 159.44 292.468 159.44ZM177.688 181.592C178.616 181.592 179.32 181.901 179.8 182.52C180.291 183.128 180.536 183.992 180.536 185.112C180.536 186.392 180.227 187.384 179.608 188.088C178.989 188.781 178.125 189.128 177.016 189.128C176.504 189.128 175.981 189.011 175.448 188.776L174.568 189.176L174.344 189.048L174.44 185.928L174.36 177.88L175.624 177.768L175.576 182.68H175.672C176.035 182.381 176.365 182.152 176.664 181.992C176.963 181.832 177.304 181.699 177.688 181.592ZM177.128 188.2C177.811 188.2 178.349 187.96 178.744 187.48C179.139 187 179.336 186.291 179.336 185.352C179.336 184.488 179.181 183.821 178.872 183.352C178.573 182.872 178.141 182.632 177.576 182.632C177.245 182.632 176.915 182.723 176.584 182.904C176.264 183.085 175.923 183.368 175.56 183.752L175.544 185.784L175.592 187.688C176.104 188.029 176.616 188.2 177.128 188.2ZM189.059 188.056L188.931 188.776C188.621 188.957 188.317 189.064 188.019 189.096C187.709 189.053 187.459 188.947 187.267 188.776C187.085 188.595 186.957 188.328 186.883 187.976H186.787C186.147 188.552 185.485 188.925 184.803 189.096C184.013 189.096 183.411 188.909 182.995 188.536C182.589 188.163 182.392 187.629 182.403 186.936L182.419 184.904L182.371 181.752L183.651 181.64L183.555 186.632C183.555 187.069 183.656 187.411 183.859 187.656C184.072 187.901 184.381 188.024 184.787 188.024C185.448 188.024 186.109 187.704 186.771 187.064V181.752L187.987 181.64L187.907 187.432C187.907 187.656 187.939 187.816 188.003 187.912C188.077 187.997 188.2 188.04 188.371 188.04C188.541 188.04 188.728 188.008 188.931 187.944L189.059 188.056ZM192.959 188.024C193.311 188.024 193.695 187.917 194.111 187.704L194.255 187.8L194.127 188.632C193.551 188.899 193.018 189.053 192.527 189.096C191.919 188.979 191.482 188.755 191.215 188.424C190.948 188.093 190.815 187.613 190.815 186.984L190.863 185.848L190.847 182.536H189.839L189.775 182.44L189.855 181.688H190.831V180.504L191.935 180.024L192.063 180.136L192.031 181.688H194.207L194.271 181.784L194.191 182.536H192.031L191.951 186.872C191.94 187.299 192.015 187.597 192.175 187.768C192.335 187.939 192.596 188.024 192.959 188.024ZM198.068 188.024C198.42 188.024 198.804 187.917 199.22 187.704L199.364 187.8L199.236 188.632C198.66 188.899 198.127 189.053 197.636 189.096C197.028 188.979 196.591 188.755 196.324 188.424C196.058 188.093 195.924 187.613 195.924 186.984L195.972 185.848L195.956 182.536H194.948L194.884 182.44L194.964 181.688H195.94V180.504L197.044 180.024L197.172 180.136L197.14 181.688H199.316L199.38 181.784L199.3 182.536H197.14L197.06 186.872C197.05 187.299 197.124 187.597 197.284 187.768C197.444 187.939 197.706 188.024 198.068 188.024ZM203.391 181.544C204.383 181.544 205.151 181.869 205.695 182.52C206.25 183.16 206.527 184.067 206.527 185.24C206.527 186.477 206.239 187.437 205.663 188.12C205.087 188.792 204.266 189.128 203.199 189.128C202.196 189.128 201.418 188.808 200.863 188.168C200.319 187.517 200.047 186.605 200.047 185.432C200.047 184.195 200.335 183.24 200.911 182.568C201.498 181.885 202.324 181.544 203.391 181.544ZM203.311 182.44C202.639 182.44 202.127 182.669 201.775 183.128C201.423 183.587 201.247 184.259 201.247 185.144C201.247 186.168 201.418 186.936 201.759 187.448C202.111 187.96 202.618 188.216 203.279 188.216C203.951 188.216 204.463 187.992 204.815 187.544C205.167 187.096 205.343 186.424 205.343 185.528C205.343 184.515 205.167 183.747 204.815 183.224C204.474 182.701 203.972 182.44 203.311 182.44ZM212.982 184.024C212.993 183.587 212.891 183.245 212.678 183C212.465 182.755 212.15 182.632 211.734 182.632C211.062 182.632 210.337 183.011 209.558 183.768V185.784L209.622 189H208.358L208.438 185.896L208.374 181.752L209.574 181.64V182.712H209.67C210.331 182.125 211.009 181.747 211.702 181.576C212.502 181.576 213.11 181.763 213.526 182.136C213.953 182.509 214.161 183.043 214.15 183.736L214.118 185.816L214.182 189H212.902L212.982 184.024ZM217.36 187.608C217.808 187.885 218.032 188.243 218.032 188.68C218.032 189.373 217.531 190.088 216.528 190.824L216.096 190.424V190.312C216.683 189.853 216.976 189.384 216.976 188.904C216.976 188.616 216.811 188.365 216.48 188.152V188.024C216.779 187.821 217.072 187.683 217.36 187.608ZM228.874 181.592C229.791 181.592 230.495 181.896 230.986 182.504C231.476 183.112 231.722 183.981 231.722 185.112C231.722 186.392 231.412 187.384 230.794 188.088C230.175 188.781 229.295 189.128 228.154 189.128C227.706 189.128 227.242 189.08 226.762 188.984L226.794 191.96H225.546L225.626 185.896L225.546 181.752L226.762 181.64L226.746 182.68H226.858C227.231 182.371 227.567 182.136 227.866 181.976C228.164 181.816 228.5 181.688 228.874 181.592ZM228.314 188.2C229.018 188.2 229.562 187.955 229.946 187.464C230.33 186.973 230.522 186.275 230.522 185.368C230.522 184.483 230.367 183.805 230.058 183.336C229.759 182.867 229.327 182.632 228.762 182.632C228.431 182.632 228.1 182.723 227.77 182.904C227.45 183.085 227.108 183.368 226.746 183.752L226.73 185.784L226.746 187.784C227.268 188.061 227.791 188.2 228.314 188.2ZM236.89 181.656C237.018 181.656 237.157 181.667 237.306 181.688V182.92L237.162 182.968C236.981 182.915 236.783 182.888 236.57 182.888C236.218 182.888 235.893 183.032 235.594 183.32C235.306 183.597 235.018 184.045 234.73 184.664L234.714 185.784L234.794 189H233.53L233.61 185.896L233.546 181.752L234.746 181.64L234.73 183.144H234.826C235.125 182.611 235.455 182.232 235.818 182.008C236.181 181.773 236.538 181.656 236.89 181.656ZM239.262 185.288V185.32C239.262 186.216 239.465 186.904 239.87 187.384C240.276 187.864 240.852 188.104 241.598 188.104C241.972 188.104 242.345 188.045 242.718 187.928C243.092 187.8 243.433 187.624 243.742 187.4L243.87 187.496L243.678 188.584C242.932 188.947 242.185 189.128 241.438 189.128C240.393 189.128 239.572 188.797 238.974 188.136C238.377 187.464 238.078 186.547 238.078 185.384C238.078 184.211 238.377 183.277 238.974 182.584C239.572 181.891 240.377 181.544 241.39 181.544C242.244 181.544 242.905 181.789 243.374 182.28C243.844 182.76 244.078 183.432 244.078 184.296C244.078 184.584 244.057 184.856 244.014 185.112L243.854 185.272L239.262 185.288ZM241.39 182.44C240.857 182.44 240.409 182.616 240.046 182.968C239.694 183.309 239.46 183.795 239.342 184.424L242.878 184.36L242.91 184.136C242.91 183.592 242.777 183.176 242.51 182.888C242.254 182.589 241.881 182.44 241.39 182.44ZM246.493 182.6L248.077 187.736H248.173L250.029 182.664L250.285 181.672H251.421L248.733 189H247.373L245.101 181.704L246.285 181.624L246.493 182.6ZM252.907 185.896L252.859 181.752L254.091 181.64L254.059 185.784L254.091 189H252.843L252.907 185.896ZM253.499 178.392C253.712 178.392 253.883 178.456 254.011 178.584C254.139 178.712 254.203 178.888 254.203 179.112C254.203 179.347 254.134 179.533 253.995 179.672C253.867 179.811 253.686 179.88 253.451 179.88C253.227 179.88 253.051 179.816 252.923 179.688C252.806 179.56 252.747 179.379 252.747 179.144C252.747 178.92 252.811 178.739 252.939 178.6C253.078 178.461 253.264 178.392 253.499 178.392ZM259.438 181.544C260.43 181.544 261.198 181.869 261.742 182.52C262.297 183.16 262.574 184.067 262.574 185.24C262.574 186.477 262.286 187.437 261.71 188.12C261.134 188.792 260.313 189.128 259.246 189.128C258.243 189.128 257.465 188.808 256.91 188.168C256.366 187.517 256.094 186.605 256.094 185.432C256.094 184.195 256.382 183.24 256.958 182.568C257.545 181.885 258.371 181.544 259.438 181.544ZM259.358 182.44C258.686 182.44 258.174 182.669 257.822 183.128C257.47 183.587 257.294 184.259 257.294 185.144C257.294 186.168 257.465 186.936 257.806 187.448C258.158 187.96 258.665 188.216 259.326 188.216C259.998 188.216 260.51 187.992 260.862 187.544C261.214 187.096 261.39 186.424 261.39 185.528C261.39 184.515 261.214 183.747 260.862 183.224C260.521 182.701 260.019 182.44 259.358 182.44ZM271.121 188.056L270.993 188.776C270.684 188.957 270.38 189.064 270.081 189.096C269.772 189.053 269.521 188.947 269.329 188.776C269.148 188.595 269.02 188.328 268.945 187.976H268.849C268.209 188.552 267.548 188.925 266.865 189.096C266.076 189.096 265.473 188.909 265.057 188.536C264.652 188.163 264.455 187.629 264.465 186.936L264.481 184.904L264.433 181.752L265.713 181.64L265.617 186.632C265.617 187.069 265.719 187.411 265.921 187.656C266.135 187.901 266.444 188.024 266.849 188.024C267.511 188.024 268.172 187.704 268.833 187.064V181.752L270.049 181.64L269.969 187.432C269.969 187.656 270.001 187.816 270.065 187.912C270.14 187.997 270.263 188.04 270.433 188.04C270.604 188.04 270.791 188.008 270.993 187.944L271.121 188.056ZM274.718 181.56C275.326 181.56 275.912 181.677 276.478 181.912L276.302 182.952L276.11 183C275.576 182.648 275.064 182.472 274.574 182.472C274.211 182.472 273.918 182.573 273.694 182.776C273.47 182.979 273.358 183.224 273.358 183.512C273.358 183.8 273.47 184.035 273.694 184.216C273.928 184.387 274.286 184.584 274.766 184.808C275.182 185 275.512 185.176 275.758 185.336C276.014 185.485 276.232 185.688 276.414 185.944C276.595 186.2 276.686 186.515 276.686 186.888C276.686 187.283 276.584 187.651 276.382 187.992C276.179 188.333 275.88 188.611 275.486 188.824C275.091 189.027 274.622 189.128 274.078 189.128C273.331 189.128 272.622 188.952 271.95 188.6L272.11 187.512L272.254 187.416C272.552 187.672 272.872 187.869 273.214 188.008C273.566 188.147 273.896 188.216 274.206 188.216C274.6 188.216 274.92 188.109 275.166 187.896C275.411 187.672 275.534 187.411 275.534 187.112C275.534 186.824 275.416 186.595 275.182 186.424C274.958 186.243 274.606 186.04 274.126 185.816C273.71 185.624 273.374 185.453 273.118 185.304C272.862 185.144 272.643 184.931 272.462 184.664C272.28 184.397 272.19 184.067 272.19 183.672C272.19 183.053 272.414 182.547 272.862 182.152C273.32 181.757 273.939 181.56 274.718 181.56ZM176.92 204.544C177.251 204.544 177.592 204.587 177.944 204.672C178.307 204.747 178.621 204.848 178.888 204.976L178.664 206.08L178.52 206.128C177.965 205.765 177.416 205.584 176.872 205.584C176.243 205.584 175.752 205.824 175.4 206.304C175.048 206.784 174.872 207.456 174.872 208.32C174.872 209.184 175.053 209.867 175.416 210.368C175.789 210.859 176.301 211.104 176.952 211.104C177.24 211.104 177.539 211.056 177.848 210.96C178.168 210.864 178.467 210.731 178.744 210.56L178.888 210.64L178.744 211.712C178.093 211.989 177.443 212.128 176.792 212.128C175.821 212.128 175.059 211.797 174.504 211.136C173.949 210.464 173.672 209.547 173.672 208.384C173.672 207.2 173.96 206.267 174.536 205.584C175.123 204.891 175.917 204.544 176.92 204.544ZM183.172 204.544C184.164 204.544 184.932 204.869 185.476 205.52C186.031 206.16 186.308 207.067 186.308 208.24C186.308 209.477 186.02 210.437 185.444 211.12C184.868 211.792 184.047 212.128 182.98 212.128C181.978 212.128 181.199 211.808 180.644 211.168C180.1 210.517 179.828 209.605 179.828 208.432C179.828 207.195 180.116 206.24 180.692 205.568C181.279 204.885 182.106 204.544 183.172 204.544ZM183.092 205.44C182.42 205.44 181.908 205.669 181.556 206.128C181.204 206.587 181.028 207.259 181.028 208.144C181.028 209.168 181.199 209.936 181.54 210.448C181.892 210.96 182.399 211.216 183.06 211.216C183.732 211.216 184.244 210.992 184.596 210.544C184.948 210.096 185.124 209.424 185.124 208.528C185.124 207.515 184.948 206.747 184.596 206.224C184.255 205.701 183.754 205.44 183.092 205.44ZM192.763 207.024C192.774 206.587 192.673 206.245 192.459 206C192.246 205.755 191.931 205.632 191.515 205.632C190.843 205.632 190.118 206.011 189.339 206.768V208.784L189.403 212H188.139L188.219 208.896L188.155 204.752L189.355 204.64V205.712H189.451C190.113 205.125 190.79 204.747 191.483 204.576C192.283 204.576 192.891 204.763 193.307 205.136C193.734 205.509 193.942 206.043 193.931 206.736L193.899 208.816L193.963 212H192.683L192.763 207.024ZM198.693 211.024C199.045 211.024 199.429 210.917 199.845 210.704L199.989 210.8L199.861 211.632C199.285 211.899 198.752 212.053 198.261 212.096C197.653 211.979 197.216 211.755 196.949 211.424C196.683 211.093 196.549 210.613 196.549 209.984L196.597 208.848L196.581 205.536H195.573L195.509 205.44L195.589 204.688H196.565V203.504L197.669 203.024L197.797 203.136L197.765 204.688H199.941L200.005 204.784L199.925 205.536H197.765L197.685 209.872C197.675 210.299 197.749 210.597 197.909 210.768C198.069 210.939 198.331 211.024 198.693 211.024ZM201.856 208.288V208.32C201.856 209.216 202.059 209.904 202.464 210.384C202.869 210.864 203.445 211.104 204.192 211.104C204.565 211.104 204.939 211.045 205.312 210.928C205.685 210.8 206.027 210.624 206.336 210.4L206.464 210.496L206.272 211.584C205.525 211.947 204.779 212.128 204.032 212.128C202.987 212.128 202.165 211.797 201.568 211.136C200.971 210.464 200.672 209.547 200.672 208.384C200.672 207.211 200.971 206.277 201.568 205.584C202.165 204.891 202.971 204.544 203.984 204.544C204.837 204.544 205.499 204.789 205.968 205.28C206.437 205.76 206.672 206.432 206.672 207.296C206.672 207.584 206.651 207.856 206.608 208.112L206.448 208.272L201.856 208.288ZM203.984 205.44C203.451 205.44 203.003 205.616 202.64 205.968C202.288 206.309 202.053 206.795 201.936 207.424L205.472 207.36L205.504 207.136C205.504 206.592 205.371 206.176 205.104 205.888C204.848 205.589 204.475 205.44 203.984 205.44ZM213.279 207.024C213.29 206.587 213.188 206.245 212.975 206C212.762 205.755 212.447 205.632 212.031 205.632C211.359 205.632 210.634 206.011 209.855 206.768V208.784L209.919 212H208.655L208.735 208.896L208.671 204.752L209.871 204.64V205.712H209.967C210.628 205.125 211.306 204.747 211.999 204.576C212.799 204.576 213.407 204.763 213.823 205.136C214.25 205.509 214.458 206.043 214.447 206.736L214.415 208.816L214.479 212H213.199L213.279 207.024ZM219.209 211.024C219.561 211.024 219.945 210.917 220.361 210.704L220.505 210.8L220.377 211.632C219.801 211.899 219.268 212.053 218.777 212.096C218.169 211.979 217.732 211.755 217.465 211.424C217.198 211.093 217.065 210.613 217.065 209.984L217.113 208.848L217.097 205.536H216.089L216.025 205.44L216.105 204.688H217.081V203.504L218.185 203.024L218.313 203.136L218.281 204.688H220.457L220.521 204.784L220.441 205.536H218.281L218.201 209.872C218.19 210.299 218.265 210.597 218.425 210.768C218.585 210.939 218.846 211.024 219.209 211.024ZM228.015 204.656C228.143 204.656 228.282 204.667 228.431 204.688V205.92L228.287 205.968C228.106 205.915 227.908 205.888 227.695 205.888C227.343 205.888 227.018 206.032 226.719 206.32C226.431 206.597 226.143 207.045 225.855 207.664L225.839 208.784L225.919 212H224.655L224.735 208.896L224.671 204.752L225.871 204.64L225.855 206.144H225.951C226.25 205.611 226.58 205.232 226.943 205.008C227.306 204.773 227.663 204.656 228.015 204.656ZM230.387 208.288V208.32C230.387 209.216 230.59 209.904 230.995 210.384C231.401 210.864 231.977 211.104 232.723 211.104C233.097 211.104 233.47 211.045 233.843 210.928C234.217 210.8 234.558 210.624 234.867 210.4L234.995 210.496L234.803 211.584C234.057 211.947 233.31 212.128 232.563 212.128C231.518 212.128 230.697 211.797 230.099 211.136C229.502 210.464 229.203 209.547 229.203 208.384C229.203 207.211 229.502 206.277 230.099 205.584C230.697 204.891 231.502 204.544 232.515 204.544C233.369 204.544 234.03 204.789 234.499 205.28C234.969 205.76 235.203 206.432 235.203 207.296C235.203 207.584 235.182 207.856 235.139 208.112L234.979 208.272L230.387 208.288ZM232.515 205.44C231.982 205.44 231.534 205.616 231.171 205.968C230.819 206.309 230.585 206.795 230.467 207.424L234.003 207.36L234.035 207.136C234.035 206.592 233.902 206.176 233.635 205.888C233.379 205.589 233.006 205.44 232.515 205.44ZM239.602 204.544C240.296 204.544 240.84 204.715 241.234 205.056C241.64 205.397 241.842 205.867 241.842 206.464C241.842 206.645 241.81 207.301 241.746 208.432C241.682 209.563 241.65 210.224 241.65 210.416C241.65 210.651 241.688 210.816 241.762 210.912C241.837 210.997 241.965 211.04 242.146 211.04C242.306 211.04 242.488 211.008 242.69 210.944L242.818 211.056L242.69 211.776C242.381 211.957 242.077 212.064 241.778 212.096C241.448 212.064 241.181 211.947 240.978 211.744C240.786 211.541 240.685 211.264 240.674 210.912H240.562C239.986 211.499 239.416 211.899 238.85 212.112C238.136 212.112 237.576 211.936 237.17 211.584C236.776 211.221 236.578 210.731 236.578 210.112C236.578 209.643 236.701 209.269 236.946 208.992C237.202 208.715 237.576 208.517 238.066 208.4L240.658 207.792L240.674 206.752C240.674 206.336 240.562 206.016 240.338 205.792C240.125 205.568 239.816 205.456 239.41 205.456C239.048 205.456 238.685 205.541 238.322 205.712C237.96 205.883 237.57 206.149 237.154 206.512L237.026 206.448L236.866 205.536C237.752 204.875 238.664 204.544 239.602 204.544ZM238.322 209.168C238.109 209.232 237.954 209.323 237.858 209.44C237.762 209.547 237.714 209.712 237.714 209.936C237.714 210.288 237.81 210.565 238.002 210.768C238.205 210.96 238.472 211.056 238.802 211.056C239.389 211.056 239.986 210.677 240.594 209.92L240.642 208.608L238.322 209.168ZM247.905 204.592C248.822 204.592 249.526 204.896 250.017 205.504C250.508 206.112 250.753 206.981 250.753 208.112C250.753 209.392 250.444 210.384 249.825 211.088C249.206 211.781 248.326 212.128 247.185 212.128C246.737 212.128 246.273 212.08 245.793 211.984L245.825 214.96H244.577L244.657 208.896L244.577 204.752L245.793 204.64L245.777 205.68H245.889C246.262 205.371 246.598 205.136 246.897 204.976C247.196 204.816 247.532 204.688 247.905 204.592ZM247.345 211.2C248.049 211.2 248.593 210.955 248.977 210.464C249.361 209.973 249.553 209.275 249.553 208.368C249.553 207.483 249.398 206.805 249.089 206.336C248.79 205.867 248.358 205.632 247.793 205.632C247.462 205.632 247.132 205.723 246.801 205.904C246.481 206.085 246.14 206.368 245.777 206.752L245.761 208.784L245.777 210.784C246.3 211.061 246.822 211.2 247.345 211.2ZM256.046 204.592C256.963 204.592 257.667 204.896 258.158 205.504C258.648 206.112 258.894 206.981 258.894 208.112C258.894 209.392 258.584 210.384 257.966 211.088C257.347 211.781 256.467 212.128 255.326 212.128C254.878 212.128 254.414 212.08 253.934 211.984L253.966 214.96H252.718L252.798 208.896L252.718 204.752L253.934 204.64L253.918 205.68H254.03C254.403 205.371 254.739 205.136 255.038 204.976C255.336 204.816 255.672 204.688 256.046 204.592ZM255.486 211.2C256.19 211.2 256.734 210.955 257.118 210.464C257.502 209.973 257.694 209.275 257.694 208.368C257.694 207.483 257.539 206.805 257.23 206.336C256.931 205.867 256.499 205.632 255.934 205.632C255.603 205.632 255.272 205.723 254.942 205.904C254.622 206.085 254.28 206.368 253.918 206.752L253.902 208.784L253.918 210.784C254.44 211.061 254.963 211.2 255.486 211.2ZM261.434 208.288V208.32C261.434 209.216 261.637 209.904 262.042 210.384C262.447 210.864 263.023 211.104 263.77 211.104C264.143 211.104 264.517 211.045 264.89 210.928C265.263 210.8 265.605 210.624 265.914 210.4L266.042 210.496L265.85 211.584C265.103 211.947 264.357 212.128 263.61 212.128C262.565 212.128 261.743 211.797 261.146 211.136C260.549 210.464 260.25 209.547 260.25 208.384C260.25 207.211 260.549 206.277 261.146 205.584C261.743 204.891 262.549 204.544 263.562 204.544C264.415 204.544 265.077 204.789 265.546 205.28C266.015 205.76 266.25 206.432 266.25 207.296C266.25 207.584 266.229 207.856 266.186 208.112L266.026 208.272L261.434 208.288ZM263.562 205.44C263.029 205.44 262.581 205.616 262.218 205.968C261.866 206.309 261.631 206.795 261.514 207.424L265.05 207.36L265.082 207.136C265.082 206.592 264.949 206.176 264.682 205.888C264.426 205.589 264.053 205.44 263.562 205.44ZM270.649 204.544C271.342 204.544 271.886 204.715 272.281 205.056C272.686 205.397 272.889 205.867 272.889 206.464C272.889 206.645 272.857 207.301 272.793 208.432C272.729 209.563 272.697 210.224 272.697 210.416C272.697 210.651 272.734 210.816 272.809 210.912C272.884 210.997 273.012 211.04 273.193 211.04C273.353 211.04 273.534 211.008 273.737 210.944L273.865 211.056L273.737 211.776C273.428 211.957 273.124 212.064 272.825 212.096C272.494 212.064 272.228 211.947 272.025 211.744C271.833 211.541 271.732 211.264 271.721 210.912H271.609C271.033 211.499 270.462 211.899 269.897 212.112C269.182 212.112 268.622 211.936 268.217 211.584C267.822 211.221 267.625 210.731 267.625 210.112C267.625 209.643 267.748 209.269 267.993 208.992C268.249 208.715 268.622 208.517 269.113 208.4L271.705 207.792L271.721 206.752C271.721 206.336 271.609 206.016 271.385 205.792C271.172 205.568 270.862 205.456 270.457 205.456C270.094 205.456 269.732 205.541 269.369 205.712C269.006 205.883 268.617 206.149 268.201 206.512L268.073 206.448L267.913 205.536C268.798 204.875 269.71 204.544 270.649 204.544ZM269.369 209.168C269.156 209.232 269.001 209.323 268.905 209.44C268.809 209.547 268.761 209.712 268.761 209.936C268.761 210.288 268.857 210.565 269.049 210.768C269.252 210.96 269.518 211.056 269.849 211.056C270.436 211.056 271.033 210.677 271.641 209.92L271.689 208.608L269.369 209.168ZM278.828 204.656C278.956 204.656 279.094 204.667 279.244 204.688V205.92L279.1 205.968C278.918 205.915 278.721 205.888 278.508 205.888C278.156 205.888 277.83 206.032 277.532 206.32C277.244 206.597 276.956 207.045 276.668 207.664L276.652 208.784L276.732 212H275.468L275.548 208.896L275.484 204.752L276.684 204.64L276.668 206.144H276.764C277.062 205.611 277.393 205.232 277.756 205.008C278.118 204.773 278.476 204.656 278.828 204.656ZM282.639 204.56C283.247 204.56 283.834 204.677 284.399 204.912L284.223 205.952L284.031 206C283.498 205.648 282.986 205.472 282.495 205.472C282.133 205.472 281.839 205.573 281.615 205.776C281.391 205.979 281.279 206.224 281.279 206.512C281.279 206.8 281.391 207.035 281.615 207.216C281.85 207.387 282.207 207.584 282.687 207.808C283.103 208 283.434 208.176 283.679 208.336C283.935 208.485 284.154 208.688 284.335 208.944C284.517 209.2 284.607 209.515 284.607 209.888C284.607 210.283 284.506 210.651 284.303 210.992C284.101 211.333 283.802 211.611 283.407 211.824C283.013 212.027 282.543 212.128 281.999 212.128C281.253 212.128 280.543 211.952 279.871 211.6L280.031 210.512L280.175 210.416C280.474 210.672 280.794 210.869 281.135 211.008C281.487 211.147 281.818 211.216 282.127 211.216C282.522 211.216 282.842 211.109 283.087 210.896C283.333 210.672 283.455 210.411 283.455 210.112C283.455 209.824 283.338 209.595 283.103 209.424C282.879 209.243 282.527 209.04 282.047 208.816C281.631 208.624 281.295 208.453 281.039 208.304C280.783 208.144 280.565 207.931 280.383 207.664C280.202 207.397 280.111 207.067 280.111 206.672C280.111 206.053 280.335 205.547 280.783 205.152C281.242 204.757 281.861 204.56 282.639 204.56ZM291.938 204.544C292.93 204.544 293.698 204.869 294.242 205.52C294.797 206.16 295.074 207.067 295.074 208.24C295.074 209.477 294.786 210.437 294.21 211.12C293.634 211.792 292.813 212.128 291.746 212.128C290.743 212.128 289.965 211.808 289.41 211.168C288.866 210.517 288.594 209.605 288.594 208.432C288.594 207.195 288.882 206.24 289.458 205.568C290.045 204.885 290.871 204.544 291.938 204.544ZM291.858 205.44C291.186 205.44 290.674 205.669 290.322 206.128C289.97 206.587 289.794 207.259 289.794 208.144C289.794 209.168 289.965 209.936 290.306 210.448C290.658 210.96 291.165 211.216 291.826 211.216C292.498 211.216 293.01 210.992 293.362 210.544C293.714 210.096 293.89 209.424 293.89 208.528C293.89 207.515 293.714 206.747 293.362 206.224C293.021 205.701 292.519 205.44 291.858 205.44ZM301.529 207.024C301.54 206.587 301.438 206.245 301.225 206C301.012 205.755 300.697 205.632 300.281 205.632C299.609 205.632 298.884 206.011 298.105 206.768V208.784L298.169 212H296.905L296.985 208.896L296.921 204.752L298.121 204.64V205.712H298.217C298.878 205.125 299.556 204.747 300.249 204.576C301.049 204.576 301.657 204.763 302.073 205.136C302.5 205.509 302.708 206.043 302.697 206.736L302.665 208.816L302.729 212H301.449L301.529 207.024ZM176.28 226.56C176.888 226.56 177.475 226.677 178.04 226.912L177.864 227.952L177.672 228C177.139 227.648 176.627 227.472 176.136 227.472C175.773 227.472 175.48 227.573 175.256 227.776C175.032 227.979 174.92 228.224 174.92 228.512C174.92 228.8 175.032 229.035 175.256 229.216C175.491 229.387 175.848 229.584 176.328 229.808C176.744 230 177.075 230.176 177.32 230.336C177.576 230.485 177.795 230.688 177.976 230.944C178.157 231.2 178.248 231.515 178.248 231.888C178.248 232.283 178.147 232.651 177.944 232.992C177.741 233.333 177.443 233.611 177.048 233.824C176.653 234.027 176.184 234.128 175.64 234.128C174.893 234.128 174.184 233.952 173.512 233.6L173.672 232.512L173.816 232.416C174.115 232.672 174.435 232.869 174.776 233.008C175.128 233.147 175.459 233.216 175.768 233.216C176.163 233.216 176.483 233.109 176.728 232.896C176.973 232.672 177.096 232.411 177.096 232.112C177.096 231.824 176.979 231.595 176.744 231.424C176.52 231.243 176.168 231.04 175.688 230.816C175.272 230.624 174.936 230.453 174.68 230.304C174.424 230.144 174.205 229.931 174.024 229.664C173.843 229.397 173.752 229.067 173.752 228.672C173.752 228.053 173.976 227.547 174.424 227.152C174.883 226.757 175.501 226.56 176.28 226.56ZM182.842 226.544C183.173 226.544 183.514 226.587 183.866 226.672C184.229 226.747 184.543 226.848 184.81 226.976L184.586 228.08L184.442 228.128C183.887 227.765 183.338 227.584 182.794 227.584C182.165 227.584 181.674 227.824 181.322 228.304C180.97 228.784 180.794 229.456 180.794 230.32C180.794 231.184 180.975 231.867 181.338 232.368C181.711 232.859 182.223 233.104 182.874 233.104C183.162 233.104 183.461 233.056 183.77 232.96C184.09 232.864 184.389 232.731 184.666 232.56L184.81 232.64L184.666 233.712C184.015 233.989 183.365 234.128 182.714 234.128C181.743 234.128 180.981 233.797 180.426 233.136C179.871 232.464 179.594 231.547 179.594 230.384C179.594 229.2 179.882 228.267 180.458 227.584C181.045 226.891 181.839 226.544 182.842 226.544ZM189.578 226.656C189.706 226.656 189.844 226.667 189.994 226.688V227.92L189.85 227.968C189.668 227.915 189.471 227.888 189.258 227.888C188.906 227.888 188.58 228.032 188.282 228.32C187.994 228.597 187.706 229.045 187.418 229.664L187.402 230.784L187.482 234H186.218L186.298 230.896L186.234 226.752L187.434 226.64L187.418 228.144H187.514C187.812 227.611 188.143 227.232 188.506 227.008C188.868 226.773 189.226 226.656 189.578 226.656ZM191.95 230.288V230.32C191.95 231.216 192.152 231.904 192.558 232.384C192.963 232.864 193.539 233.104 194.286 233.104C194.659 233.104 195.032 233.045 195.406 232.928C195.779 232.8 196.12 232.624 196.43 232.4L196.558 232.496L196.366 233.584C195.619 233.947 194.872 234.128 194.126 234.128C193.08 234.128 192.259 233.797 191.662 233.136C191.064 232.464 190.766 231.547 190.766 230.384C190.766 229.211 191.064 228.277 191.662 227.584C192.259 226.891 193.064 226.544 194.078 226.544C194.931 226.544 195.592 226.789 196.062 227.28C196.531 227.76 196.766 228.432 196.766 229.296C196.766 229.584 196.744 229.856 196.702 230.112L196.542 230.272L191.95 230.288ZM194.078 227.44C193.544 227.44 193.096 227.616 192.734 227.968C192.382 228.309 192.147 228.795 192.03 229.424L195.566 229.36L195.598 229.136C195.598 228.592 195.464 228.176 195.198 227.888C194.942 227.589 194.568 227.44 194.078 227.44ZM199.325 230.288V230.32C199.325 231.216 199.527 231.904 199.933 232.384C200.338 232.864 200.914 233.104 201.661 233.104C202.034 233.104 202.407 233.045 202.781 232.928C203.154 232.8 203.495 232.624 203.805 232.4L203.933 232.496L203.741 233.584C202.994 233.947 202.247 234.128 201.501 234.128C200.455 234.128 199.634 233.797 199.037 233.136C198.439 232.464 198.141 231.547 198.141 230.384C198.141 229.211 198.439 228.277 199.037 227.584C199.634 226.891 200.439 226.544 201.453 226.544C202.306 226.544 202.967 226.789 203.437 227.28C203.906 227.76 204.141 228.432 204.141 229.296C204.141 229.584 204.119 229.856 204.077 230.112L203.917 230.272L199.325 230.288ZM201.453 227.44C200.919 227.44 200.471 227.616 200.109 227.968C199.757 228.309 199.522 228.795 199.405 229.424L202.941 229.36L202.973 229.136C202.973 228.592 202.839 228.176 202.573 227.888C202.317 227.589 201.943 227.44 201.453 227.44ZM210.748 229.024C210.758 228.587 210.657 228.245 210.444 228C210.23 227.755 209.916 227.632 209.5 227.632C208.828 227.632 208.102 228.011 207.324 228.768V230.784L207.388 234H206.124L206.204 230.896L206.14 226.752L207.34 226.64V227.712H207.436C208.097 227.125 208.774 226.747 209.468 226.576C210.268 226.576 210.876 226.763 211.292 227.136C211.718 227.509 211.926 228.043 211.916 228.736L211.884 230.816L211.948 234H210.668L210.748 229.024Z" fill="#333333"/>
<circle cx="17" cy="12" r="12" fill="#C50063"/>
<path d="M18.5279 7.76V17H16.6519V10.112C16.6519 9.96267 16.6565 9.846 16.6659 9.762C16.3299 10.07 15.9659 10.3313 15.5739 10.546C15.1912 10.7607 14.8039 10.9053 14.4119 10.98L14.1599 9.356C14.5892 9.30933 15.1025 9.118 15.6999 8.782C16.3065 8.43667 16.7265 8.096 16.9599 7.76H18.5279Z" fill="#F2F2F2"/>
<path d="M173 48V128H288.455" stroke="#BDBDBD" stroke-width="0.5"/>
<g filter="url(#filter1_d)">
<path d="M173 127.333C173 94.1368 200.087 73.0004 214.741 64.3641C228.64 56.1725 260.701 48 288.455 48" stroke="#C50063" stroke-linecap="round"/>
</g>
<circle cx="185" cy="12" r="12" fill="#C50063"/>
<path d="M181.494 15.684C182.624 14.928 183.52 14.2653 184.182 13.696C184.845 13.1267 185.326 12.5993 185.624 12.114C185.923 11.6287 186.072 11.148 186.072 10.672C186.072 10.2333 185.937 9.87867 185.666 9.608C185.405 9.33733 185.041 9.202 184.574 9.202C184.061 9.202 183.655 9.37933 183.356 9.734C183.058 10.0887 182.894 10.5927 182.866 11.246L181.2 10.616C181.266 9.68267 181.611 8.95 182.236 8.418C182.862 7.886 183.678 7.62 184.686 7.62C185.405 7.62 186.012 7.75533 186.506 8.026C187.01 8.29667 187.388 8.656 187.64 9.104C187.892 9.54267 188.018 10.028 188.018 10.56C188.018 11.428 187.692 12.2493 187.038 13.024C186.385 13.7893 185.344 14.6107 183.916 15.488V15.502C184.458 15.4647 185.022 15.446 185.61 15.446H188.158V17H181.494V15.684Z" fill="#F2F2F2"/>
<rect x="5" y="256" width="472" height="1" fill="#F8F8F8"/>
<defs>
<filter id="filter0_d" x="0.5" y="47.5" width="124.455" height="88.3333" filterUnits="userSpaceOnUse" color-interpolation-filters="sRGB">
<feFlood flood-opacity="0" result="BackgroundImageFix"/>
<feColorMatrix in="SourceAlpha" type="matrix" values="0 0 0 0 0 0 0 0 0 0 0 0 0 0 0 0 0 0 127 0"/>
<feOffset dy="4"/>
<feGaussianBlur stdDeviation="2"/>
<feColorMatrix type="matrix" values="0 0 0 0 0.768627 0 0 0 0 0.768627 0 0 0 0 0.768627 0 0 0 0.5 0"/>
<feBlend mode="normal" in2="BackgroundImageFix" result="effect1_dropShadow"/>
<feBlend mode="normal" in="SourceGraphic" in2="effect1_dropShadow" result="shape"/>
</filter>
<filter id="filter1_d" x="168.5" y="47.5" width="124.455" height="88.3333" filterUnits="userSpaceOnUse" color-interpolation-filters="sRGB">
<feFlood flood-opacity="0" result="BackgroundImageFix"/>
<feColorMatrix in="SourceAlpha" type="matrix" values="0 0 0 0 0 0 0 0 0 0 0 0 0 0 0 0 0 0 127 0"/>
<feOffset dy="4"/>
<feGaussianBlur stdDeviation="2"/>
<feColorMatrix type="matrix" values="0 0 0 0 0.768627 0 0 0 0 0.768627 0 0 0 0 0.768627 0 0 0 0.5 0"/>
<feBlend mode="normal" in2="BackgroundImageFix" result="effect1_dropShadow"/>
<feBlend mode="normal" in="SourceGraphic" in2="effect1_dropShadow" result="shape"/>
</filter>
</defs>
</svg>
