<svg width="319" height="353" viewBox="0 0 319 353" fill="none" xmlns="http://www.w3.org/2000/svg">
<path d="M8.132 280.704L8.096 284.718L10.04 284.754L11.912 284.7L12.02 284.844L11.894 285.942L9.896 285.888L8.078 285.906L8.06 287.4L8.132 291H6.674L6.764 287.526L6.674 279.462H12.812L12.92 279.606L12.794 280.758L10.148 280.668L8.132 280.704ZM16.6723 282.612C17.7883 282.612 18.6523 282.978 19.2643 283.71C19.8883 284.43 20.2003 285.45 20.2003 286.77C20.2003 288.162 19.8763 289.242 19.2283 290.01C18.5803 290.766 17.6563 291.144 16.4563 291.144C15.3283 291.144 14.4523 290.784 13.8283 290.064C13.2163 289.332 12.9103 288.306 12.9103 286.986C12.9103 285.594 13.2343 284.52 13.8823 283.764C14.5423 282.996 15.4723 282.612 16.6723 282.612ZM16.5823 283.62C15.8263 283.62 15.2503 283.878 14.8543 284.394C14.4583 284.91 14.2603 285.666 14.2603 286.662C14.2603 287.814 14.4523 288.678 14.8363 289.254C15.2323 289.83 15.8023 290.118 16.5463 290.118C17.3023 290.118 17.8783 289.866 18.2743 289.362C18.6703 288.858 18.8683 288.102 18.8683 287.094C18.8683 285.954 18.6703 285.09 18.2743 284.502C17.8903 283.914 17.3263 283.62 16.5823 283.62ZM26.0403 282.738C26.1843 282.738 26.3403 282.75 26.5083 282.774V284.16L26.3463 284.214C26.1423 284.154 25.9203 284.124 25.6803 284.124C25.2843 284.124 24.9183 284.286 24.5823 284.61C24.2583 284.922 23.9343 285.426 23.6103 286.122L23.5923 287.382L23.6823 291H22.2603L22.3503 287.508L22.2783 282.846L23.6283 282.72L23.6103 284.412H23.7183C24.0543 283.812 24.4263 283.386 24.8343 283.134C25.2423 282.87 25.6443 282.738 26.0403 282.738ZM31.6974 286.824V286.86C31.6974 287.868 31.9254 288.642 32.3814 289.182C32.8374 289.722 33.4854 289.992 34.3254 289.992C34.7454 289.992 35.1654 289.926 35.5854 289.794C36.0054 289.65 36.3894 289.452 36.7374 289.2L36.8814 289.308L36.6654 290.532C35.8254 290.94 34.9854 291.144 34.1454 291.144C32.9694 291.144 32.0454 290.772 31.3734 290.028C30.7014 289.272 30.3654 288.24 30.3654 286.932C30.3654 285.612 30.7014 284.562 31.3734 283.782C32.0454 283.002 32.9514 282.612 34.0914 282.612C35.0514 282.612 35.7954 282.888 36.3234 283.44C36.8514 283.98 37.1154 284.736 37.1154 285.708C37.1154 286.032 37.0914 286.338 37.0434 286.626L36.8634 286.806L31.6974 286.824ZM34.0914 283.62C33.4914 283.62 32.9874 283.818 32.5794 284.214C32.1834 284.598 31.9194 285.144 31.7874 285.852L35.7654 285.78L35.8014 285.528C35.8014 284.916 35.6514 284.448 35.3514 284.124C35.0634 283.788 34.6434 283.62 34.0914 283.62ZM40.7503 287.382L40.8403 291H39.4183L39.5263 287.49L39.4363 278.49L40.8583 278.364L40.7503 287.382ZM44.4415 286.824V286.86C44.4415 287.868 44.6695 288.642 45.1255 289.182C45.5815 289.722 46.2295 289.992 47.0695 289.992C47.4895 289.992 47.9095 289.926 48.3295 289.794C48.7495 289.65 49.1335 289.452 49.4815 289.2L49.6255 289.308L49.4095 290.532C48.5695 290.94 47.7295 291.144 46.8895 291.144C45.7135 291.144 44.7895 290.772 44.1175 290.028C43.4455 289.272 43.1095 288.24 43.1095 286.932C43.1095 285.612 43.4455 284.562 44.1175 283.782C44.7895 283.002 45.6955 282.612 46.8355 282.612C47.7955 282.612 48.5395 282.888 49.0675 283.44C49.5955 283.98 49.8595 284.736 49.8595 285.708C49.8595 286.032 49.8355 286.338 49.7875 286.626L49.6075 286.806L44.4415 286.824ZM46.8355 283.62C46.2355 283.62 45.7315 283.818 45.3235 284.214C44.9275 284.598 44.6635 285.144 44.5315 285.852L48.5095 285.78L48.5455 285.528C48.5455 284.916 48.3955 284.448 48.0955 284.124C47.8075 283.788 47.3875 283.62 46.8355 283.62ZM62.4044 285.402C62.4164 284.91 62.3024 284.526 62.0624 284.25C61.8224 283.974 61.4684 283.836 61.0004 283.836C60.2324 283.836 59.4344 284.25 58.6064 285.078L58.5704 287.418L58.6424 291H57.1844L57.2924 285.402C57.3044 284.91 57.1904 284.526 56.9504 284.25C56.7104 283.974 56.3564 283.836 55.8884 283.836C55.1324 283.836 54.3164 284.262 53.4404 285.114V287.382L53.5124 291H52.0904L52.1804 287.508L52.1084 282.846L53.4584 282.72V283.926H53.5664C54.3104 283.266 55.0724 282.84 55.8524 282.648C56.5244 282.648 57.0764 282.768 57.5084 283.008C57.9404 283.236 58.2464 283.572 58.4264 284.016H58.5344C59.2904 283.332 60.1004 282.876 60.9644 282.648C61.8764 282.648 62.5664 282.858 63.0344 283.278C63.5024 283.698 63.7304 284.298 63.7184 285.078L63.6824 287.418L63.7544 291H62.3144L62.4044 285.402ZM67.1349 286.824V286.86C67.1349 287.868 67.3629 288.642 67.8189 289.182C68.2749 289.722 68.9229 289.992 69.7629 289.992C70.1829 289.992 70.6029 289.926 71.0229 289.794C71.4429 289.65 71.8269 289.452 72.1749 289.2L72.3189 289.308L72.1029 290.532C71.2629 290.94 70.4229 291.144 69.5829 291.144C68.4069 291.144 67.4829 290.772 66.8109 290.028C66.1389 289.272 65.8029 288.24 65.8029 286.932C65.8029 285.612 66.1389 284.562 66.8109 283.782C67.4829 283.002 68.3889 282.612 69.5289 282.612C70.4889 282.612 71.2329 282.888 71.7609 283.44C72.2889 283.98 72.5529 284.736 72.5529 285.708C72.5529 286.032 72.5289 286.338 72.4809 286.626L72.3009 286.806L67.1349 286.824ZM69.5289 283.62C68.9289 283.62 68.4249 283.818 68.0169 284.214C67.6209 284.598 67.3569 285.144 67.2249 285.852L71.2029 285.78L71.2389 285.528C71.2389 284.916 71.0889 284.448 70.7889 284.124C70.5009 283.788 70.0809 283.62 69.5289 283.62ZM79.9858 285.402C79.9978 284.91 79.8838 284.526 79.6438 284.25C79.4038 283.974 79.0498 283.836 78.5818 283.836C77.8258 283.836 77.0098 284.262 76.1338 285.114V287.382L76.2058 291H74.7838L74.8738 287.508L74.8018 282.846L76.1518 282.72V283.926H76.2598C77.0038 283.266 77.7658 282.84 78.5458 282.648C79.4458 282.648 80.1298 282.858 80.5978 283.278C81.0778 283.698 81.3118 284.298 81.2998 285.078L81.2638 287.418L81.3358 291H79.8958L79.9858 285.402ZM86.657 289.902C87.053 289.902 87.485 289.782 87.953 289.542L88.115 289.65L87.971 290.586C87.323 290.886 86.723 291.06 86.171 291.108C85.487 290.976 84.995 290.724 84.695 290.352C84.395 289.98 84.245 289.44 84.245 288.732L84.299 287.454L84.281 283.728H83.147L83.075 283.62L83.165 282.774H84.263V281.442L85.505 280.902L85.649 281.028L85.613 282.774H88.061L88.133 282.882L88.043 283.728H85.613L85.523 288.606C85.511 289.086 85.595 289.422 85.775 289.614C85.955 289.806 86.249 289.902 86.657 289.902ZM92.063 282.63C92.747 282.63 93.407 282.762 94.043 283.026L93.845 284.196L93.629 284.25C93.029 283.854 92.453 283.656 91.901 283.656C91.493 283.656 91.163 283.77 90.911 283.998C90.659 284.226 90.533 284.502 90.533 284.826C90.533 285.15 90.659 285.414 90.911 285.618C91.175 285.81 91.577 286.032 92.117 286.284C92.585 286.5 92.957 286.698 93.233 286.878C93.521 287.046 93.767 287.274 93.971 287.562C94.175 287.85 94.277 288.204 94.277 288.624C94.277 289.068 94.163 289.482 93.935 289.866C93.707 290.25 93.371 290.562 92.927 290.802C92.483 291.03 91.955 291.144 91.343 291.144C90.503 291.144 89.705 290.946 88.949 290.55L89.129 289.326L89.291 289.218C89.627 289.506 89.987 289.728 90.371 289.884C90.767 290.04 91.139 290.118 91.487 290.118C91.931 290.118 92.291 289.998 92.567 289.758C92.843 289.506 92.981 289.212 92.981 288.876C92.981 288.552 92.849 288.294 92.585 288.102C92.333 287.898 91.937 287.67 91.397 287.418C90.929 287.202 90.551 287.01 90.263 286.842C89.975 286.662 89.729 286.422 89.525 286.122C89.321 285.822 89.219 285.45 89.219 285.006C89.219 284.31 89.471 283.74 89.975 283.296C90.491 282.852 91.187 282.63 92.063 282.63ZM100.85 287.382L100.94 291H99.5179L99.6259 287.49L99.5359 278.49L100.958 278.364L100.85 287.382ZM104.541 286.824V286.86C104.541 287.868 104.769 288.642 105.225 289.182C105.681 289.722 106.329 289.992 107.169 289.992C107.589 289.992 108.009 289.926 108.429 289.794C108.849 289.65 109.233 289.452 109.581 289.2L109.725 289.308L109.509 290.532C108.669 290.94 107.829 291.144 106.989 291.144C105.813 291.144 104.889 290.772 104.217 290.028C103.545 289.272 103.209 288.24 103.209 286.932C103.209 285.612 103.545 284.562 104.217 283.782C104.889 283.002 105.795 282.612 106.935 282.612C107.895 282.612 108.639 282.888 109.167 283.44C109.695 283.98 109.959 284.736 109.959 285.708C109.959 286.032 109.935 286.338 109.887 286.626L109.707 286.806L104.541 286.824ZM106.935 283.62C106.335 283.62 105.831 283.818 105.423 284.214C105.027 284.598 104.763 285.144 104.631 285.852L108.609 285.78L108.645 285.528C108.645 284.916 108.495 284.448 108.195 284.124C107.907 283.788 107.487 283.62 106.935 283.62ZM114.908 282.612C115.688 282.612 116.3 282.804 116.744 283.188C117.2 283.572 117.428 284.1 117.428 284.772C117.428 284.976 117.392 285.714 117.32 286.986C117.248 288.258 117.212 289.002 117.212 289.218C117.212 289.482 117.254 289.668 117.338 289.776C117.422 289.872 117.566 289.92 117.77 289.92C117.95 289.92 118.154 289.884 118.382 289.812L118.526 289.938L118.382 290.748C118.034 290.952 117.692 291.072 117.356 291.108C116.984 291.072 116.684 290.94 116.456 290.712C116.24 290.484 116.126 290.172 116.114 289.776H115.988C115.34 290.436 114.698 290.886 114.062 291.126C113.258 291.126 112.628 290.928 112.172 290.532C111.728 290.124 111.506 289.572 111.506 288.876C111.506 288.348 111.644 287.928 111.92 287.616C112.208 287.304 112.628 287.082 113.18 286.95L116.096 286.266L116.114 285.096C116.114 284.628 115.988 284.268 115.736 284.016C115.496 283.764 115.148 283.638 114.692 283.638C114.284 283.638 113.876 283.734 113.468 283.926C113.06 284.118 112.622 284.418 112.154 284.826L112.01 284.754L111.83 283.728C112.826 282.984 113.852 282.612 114.908 282.612ZM113.468 287.814C113.228 287.886 113.054 287.988 112.946 288.12C112.838 288.24 112.784 288.426 112.784 288.678C112.784 289.074 112.892 289.386 113.108 289.614C113.336 289.83 113.636 289.938 114.008 289.938C114.668 289.938 115.34 289.512 116.024 288.66L116.078 287.184L113.468 287.814ZM120.762 283.8L122.544 289.578H122.652L124.74 283.872L125.028 282.756H126.306L123.282 291H121.752L119.196 282.792L120.528 282.702L120.762 283.8ZM127.977 287.508L127.923 282.846L129.309 282.72L129.273 287.382L129.309 291H127.905L127.977 287.508ZM128.643 279.066C128.883 279.066 129.075 279.138 129.219 279.282C129.363 279.426 129.435 279.624 129.435 279.876C129.435 280.14 129.357 280.35 129.201 280.506C129.057 280.662 128.853 280.74 128.589 280.74C128.337 280.74 128.139 280.668 127.995 280.524C127.863 280.38 127.797 280.176 127.797 279.912C127.797 279.66 127.869 279.456 128.013 279.3C128.169 279.144 128.379 279.066 128.643 279.066ZM137.449 285.402C137.461 284.91 137.347 284.526 137.107 284.25C136.867 283.974 136.513 283.836 136.045 283.836C135.289 283.836 134.473 284.262 133.597 285.114V287.382L133.669 291H132.247L132.337 287.508L132.265 282.846L133.615 282.72V283.926H133.723C134.467 283.266 135.229 282.84 136.009 282.648C136.909 282.648 137.593 282.858 138.061 283.278C138.541 283.698 138.775 284.298 138.763 285.078L138.727 287.418L138.799 291H137.359L137.449 285.402ZM148.818 283.458C148.446 283.566 147.894 283.692 147.162 283.836L147.126 283.908C147.39 284.328 147.522 284.838 147.522 285.438C147.522 286.314 147.228 287.01 146.64 287.526C146.064 288.042 145.278 288.3 144.282 288.3C143.886 288.3 143.514 288.252 143.166 288.156C142.962 288.312 142.824 288.438 142.752 288.534C142.68 288.63 142.644 288.738 142.644 288.858C142.644 289.11 142.8 289.29 143.112 289.398C143.424 289.494 143.934 289.596 144.642 289.704C145.338 289.8 145.908 289.908 146.352 290.028C146.796 290.148 147.18 290.346 147.504 290.622C147.828 290.886 147.99 291.258 147.99 291.738C147.99 292.242 147.816 292.704 147.468 293.124C147.132 293.544 146.664 293.874 146.064 294.114C145.476 294.354 144.828 294.474 144.12 294.474C143.16 294.474 142.41 294.252 141.87 293.808C141.342 293.376 141.078 292.812 141.078 292.116C141.366 291.54 141.894 291.018 142.662 290.55V290.46C142.23 290.328 141.894 290.154 141.654 289.938C141.426 289.71 141.312 289.404 141.312 289.02C141.564 288.6 141.93 288.234 142.41 287.922V287.85C142.026 287.61 141.732 287.298 141.528 286.914C141.336 286.518 141.24 286.062 141.24 285.546C141.24 284.646 141.528 283.944 142.104 283.44C142.692 282.924 143.472 282.666 144.444 282.666C145.08 282.666 145.62 282.774 146.064 282.99C146.892 282.834 147.762 282.63 148.674 282.378L148.818 282.486V283.458ZM144.354 287.328C144.954 287.328 145.416 287.16 145.74 286.824C146.076 286.488 146.244 286.02 146.244 285.42C146.244 284.844 146.088 284.4 145.776 284.088C145.464 283.776 145.014 283.62 144.426 283.62C143.826 283.62 143.358 283.782 143.022 284.106C142.686 284.43 142.518 284.892 142.518 285.492C142.518 286.068 142.674 286.518 142.986 286.842C143.31 287.166 143.766 287.328 144.354 287.328ZM146.73 292.008C146.73 291.612 146.526 291.336 146.118 291.18C145.722 291.024 145.116 290.886 144.3 290.766L143.724 290.676C143.268 290.952 142.92 291.216 142.68 291.468C142.452 291.72 142.338 291.984 142.338 292.26C142.338 292.608 142.506 292.896 142.842 293.124C143.19 293.352 143.67 293.466 144.282 293.466C144.978 293.466 145.56 293.322 146.028 293.034C146.496 292.758 146.73 292.416 146.73 292.008ZM155.862 289.902C156.258 289.902 156.69 289.782 157.158 289.542L157.32 289.65L157.176 290.586C156.528 290.886 155.928 291.06 155.376 291.108C154.692 290.976 154.2 290.724 153.9 290.352C153.6 289.98 153.45 289.44 153.45 288.732L153.504 287.454L153.486 283.728H152.352L152.28 283.62L152.37 282.774H153.468V281.442L154.71 280.902L154.854 281.028L154.818 282.774H157.266L157.338 282.882L157.248 283.728H154.818L154.728 288.606C154.716 289.086 154.8 289.422 154.98 289.614C155.16 289.806 155.454 289.902 155.862 289.902ZM164.292 285.402C164.304 284.91 164.19 284.526 163.95 284.25C163.71 283.974 163.356 283.836 162.888 283.836C162.096 283.836 161.286 284.262 160.458 285.114L160.422 287.382L160.512 291H159.09L159.198 287.49L159.108 278.49L160.53 278.364L160.458 283.926H160.566C161.31 283.266 162.072 282.84 162.852 282.648C163.764 282.648 164.454 282.858 164.922 283.278C165.39 283.698 165.618 284.298 165.606 285.078L165.57 287.418L165.642 291H164.202L164.292 285.402ZM169.018 286.824V286.86C169.018 287.868 169.246 288.642 169.702 289.182C170.158 289.722 170.806 289.992 171.646 289.992C172.066 289.992 172.486 289.926 172.906 289.794C173.326 289.65 173.71 289.452 174.058 289.2L174.202 289.308L173.986 290.532C173.146 290.94 172.306 291.144 171.466 291.144C170.29 291.144 169.366 290.772 168.694 290.028C168.022 289.272 167.686 288.24 167.686 286.932C167.686 285.612 168.022 284.562 168.694 283.782C169.366 283.002 170.272 282.612 171.412 282.612C172.372 282.612 173.116 282.888 173.644 283.44C174.172 283.98 174.436 284.736 174.436 285.708C174.436 286.032 174.412 286.338 174.364 286.626L174.184 286.806L169.018 286.824ZM171.412 283.62C170.812 283.62 170.308 283.818 169.9 284.214C169.504 284.598 169.24 285.144 169.108 285.852L173.086 285.78L173.122 285.528C173.122 284.916 172.972 284.448 172.672 284.124C172.384 283.788 171.964 283.62 171.412 283.62ZM181.887 282.63C182.571 282.63 183.231 282.762 183.867 283.026L183.669 284.196L183.453 284.25C182.853 283.854 182.277 283.656 181.725 283.656C181.317 283.656 180.987 283.77 180.735 283.998C180.483 284.226 180.357 284.502 180.357 284.826C180.357 285.15 180.483 285.414 180.735 285.618C180.999 285.81 181.401 286.032 181.941 286.284C182.409 286.5 182.781 286.698 183.057 286.878C183.345 287.046 183.591 287.274 183.795 287.562C183.999 287.85 184.101 288.204 184.101 288.624C184.101 289.068 183.987 289.482 183.759 289.866C183.531 290.25 183.195 290.562 182.751 290.802C182.307 291.03 181.779 291.144 181.167 291.144C180.327 291.144 179.529 290.946 178.773 290.55L178.953 289.326L179.115 289.218C179.451 289.506 179.811 289.728 180.195 289.884C180.591 290.04 180.963 290.118 181.311 290.118C181.755 290.118 182.115 289.998 182.391 289.758C182.667 289.506 182.805 289.212 182.805 288.876C182.805 288.552 182.673 288.294 182.409 288.102C182.157 287.898 181.761 287.67 181.221 287.418C180.753 287.202 180.375 287.01 180.087 286.842C179.799 286.662 179.553 286.422 179.349 286.122C179.145 285.822 179.043 285.45 179.043 285.006C179.043 284.31 179.295 283.74 179.799 283.296C180.315 282.852 181.011 282.63 181.887 282.63ZM189.269 282.612C189.641 282.612 190.025 282.66 190.421 282.756C190.829 282.84 191.183 282.954 191.483 283.098L191.231 284.34L191.069 284.394C190.445 283.986 189.827 283.782 189.215 283.782C188.507 283.782 187.955 284.052 187.559 284.592C187.163 285.132 186.965 285.888 186.965 286.86C186.965 287.832 187.169 288.6 187.577 289.164C187.997 289.716 188.573 289.992 189.305 289.992C189.629 289.992 189.965 289.938 190.313 289.83C190.673 289.722 191.009 289.572 191.321 289.38L191.483 289.47L191.321 290.676C190.589 290.988 189.857 291.144 189.125 291.144C188.033 291.144 187.175 290.772 186.551 290.028C185.927 289.272 185.615 288.24 185.615 286.932C185.615 285.6 185.939 284.55 186.587 283.782C187.247 283.002 188.141 282.612 189.269 282.612ZM196.847 282.738C196.991 282.738 197.147 282.75 197.315 282.774V284.16L197.153 284.214C196.949 284.154 196.727 284.124 196.487 284.124C196.091 284.124 195.725 284.286 195.389 284.61C195.065 284.922 194.741 285.426 194.417 286.122L194.399 287.382L194.489 291H193.067L193.157 287.508L193.085 282.846L194.435 282.72L194.417 284.412H194.525C194.861 283.812 195.233 283.386 195.641 283.134C196.049 282.87 196.451 282.738 196.847 282.738ZM199.516 286.824V286.86C199.516 287.868 199.744 288.642 200.2 289.182C200.656 289.722 201.304 289.992 202.144 289.992C202.564 289.992 202.984 289.926 203.404 289.794C203.824 289.65 204.208 289.452 204.556 289.2L204.7 289.308L204.484 290.532C203.644 290.94 202.804 291.144 201.964 291.144C200.788 291.144 199.864 290.772 199.192 290.028C198.52 289.272 198.184 288.24 198.184 286.932C198.184 285.612 198.52 284.562 199.192 283.782C199.864 283.002 200.77 282.612 201.91 282.612C202.87 282.612 203.614 282.888 204.142 283.44C204.67 283.98 204.934 284.736 204.934 285.708C204.934 286.032 204.91 286.338 204.862 286.626L204.682 286.806L199.516 286.824ZM201.91 283.62C201.31 283.62 200.806 283.818 200.398 284.214C200.002 284.598 199.738 285.144 199.606 285.852L203.584 285.78L203.62 285.528C203.62 284.916 203.47 284.448 203.17 284.124C202.882 283.788 202.462 283.62 201.91 283.62ZM207.813 286.824V286.86C207.813 287.868 208.041 288.642 208.497 289.182C208.953 289.722 209.601 289.992 210.441 289.992C210.861 289.992 211.281 289.926 211.701 289.794C212.121 289.65 212.505 289.452 212.853 289.2L212.997 289.308L212.781 290.532C211.941 290.94 211.101 291.144 210.261 291.144C209.085 291.144 208.161 290.772 207.489 290.028C206.817 289.272 206.481 288.24 206.481 286.932C206.481 285.612 206.817 284.562 207.489 283.782C208.161 283.002 209.067 282.612 210.207 282.612C211.167 282.612 211.911 282.888 212.439 283.44C212.967 283.98 213.231 284.736 213.231 285.708C213.231 286.032 213.207 286.338 213.159 286.626L212.979 286.806L207.813 286.824ZM210.207 283.62C209.607 283.62 209.103 283.818 208.695 284.214C208.299 284.598 208.035 285.144 207.903 285.852L211.881 285.78L211.917 285.528C211.917 284.916 211.767 284.448 211.467 284.124C211.179 283.788 210.759 283.62 210.207 283.62ZM220.663 285.402C220.675 284.91 220.561 284.526 220.321 284.25C220.081 283.974 219.727 283.836 219.259 283.836C218.503 283.836 217.687 284.262 216.811 285.114V287.382L216.883 291H215.461L215.551 287.508L215.479 282.846L216.829 282.72V283.926H216.937C217.681 283.266 218.443 282.84 219.223 282.648C220.123 282.648 220.807 282.858 221.275 283.278C221.755 283.698 221.989 284.298 221.977 285.078L221.941 287.418L222.013 291H220.573L220.663 285.402ZM10.184 308.666C11.216 308.666 12.008 309.008 12.56 309.692C13.112 310.376 13.388 311.354 13.388 312.626C13.388 314.066 13.04 315.182 12.344 315.974C11.648 316.754 10.658 317.144 9.374 317.144C8.87 317.144 8.348 317.09 7.808 316.982L7.844 320.33H6.44L6.53 313.508L6.44 308.846L7.808 308.72L7.79 309.89H7.916C8.336 309.542 8.714 309.278 9.05 309.098C9.386 308.918 9.764 308.774 10.184 308.666ZM9.554 316.1C10.346 316.1 10.958 315.824 11.39 315.272C11.822 314.72 12.038 313.934 12.038 312.914C12.038 311.918 11.864 311.156 11.516 310.628C11.18 310.1 10.694 309.836 10.058 309.836C9.686 309.836 9.314 309.938 8.942 310.142C8.582 310.346 8.198 310.664 7.79 311.096L7.772 313.382L7.79 315.632C8.378 315.944 8.966 316.1 9.554 316.1ZM16.2462 312.824V312.86C16.2462 313.868 16.4742 314.642 16.9302 315.182C17.3862 315.722 18.0342 315.992 18.8742 315.992C19.2942 315.992 19.7142 315.926 20.1342 315.794C20.5542 315.65 20.9382 315.452 21.2862 315.2L21.4302 315.308L21.2142 316.532C20.3742 316.94 19.5342 317.144 18.6942 317.144C17.5182 317.144 16.5942 316.772 15.9222 316.028C15.2502 315.272 14.9142 314.24 14.9142 312.932C14.9142 311.612 15.2502 310.562 15.9222 309.782C16.5942 309.002 17.5002 308.612 18.6402 308.612C19.6002 308.612 20.3442 308.888 20.8722 309.44C21.4002 309.98 21.6642 310.736 21.6642 311.708C21.6642 312.032 21.6402 312.338 21.5922 312.626L21.4122 312.806L16.2462 312.824ZM18.6402 309.62C18.0402 309.62 17.5362 309.818 17.1282 310.214C16.7322 310.598 16.4682 311.144 16.3362 311.852L20.3142 311.78L20.3502 311.528C20.3502 310.916 20.2002 310.448 19.9002 310.124C19.6122 309.788 19.1922 309.62 18.6402 309.62ZM27.6751 308.738C27.8191 308.738 27.9751 308.75 28.1431 308.774V310.16L27.9811 310.214C27.7771 310.154 27.5551 310.124 27.3151 310.124C26.9191 310.124 26.5531 310.286 26.2171 310.61C25.8931 310.922 25.5691 311.426 25.2451 312.122L25.2271 313.382L25.3171 317H23.8951L23.9851 313.508L23.9131 308.846L25.2631 308.72L25.2451 310.412H25.3531C25.6891 309.812 26.0611 309.386 26.4691 309.134C26.8771 308.87 27.2791 308.738 27.6751 308.738ZM40.0274 311.402C40.0394 310.91 39.9254 310.526 39.6854 310.25C39.4454 309.974 39.0914 309.836 38.6234 309.836C37.8554 309.836 37.0574 310.25 36.2294 311.078L36.1934 313.418L36.2654 317H34.8074L34.9154 311.402C34.9274 310.91 34.8134 310.526 34.5734 310.25C34.3334 309.974 33.9794 309.836 33.5114 309.836C32.7554 309.836 31.9394 310.262 31.0634 311.114V313.382L31.1354 317H29.7134L29.8034 313.508L29.7314 308.846L31.0814 308.72V309.926H31.1894C31.9334 309.266 32.6954 308.84 33.4754 308.648C34.1474 308.648 34.6994 308.768 35.1314 309.008C35.5634 309.236 35.8694 309.572 36.0494 310.016H36.1574C36.9134 309.332 37.7234 308.876 38.5874 308.648C39.4994 308.648 40.1894 308.858 40.6574 309.278C41.1254 309.698 41.3534 310.298 41.3414 311.078L41.3054 313.418L41.3774 317H39.9374L40.0274 311.402ZM46.8279 308.612C47.6079 308.612 48.2199 308.804 48.6639 309.188C49.1199 309.572 49.3479 310.1 49.3479 310.772C49.3479 310.976 49.3119 311.714 49.2399 312.986C49.1679 314.258 49.1319 315.002 49.1319 315.218C49.1319 315.482 49.1739 315.668 49.2579 315.776C49.3419 315.872 49.4859 315.92 49.6899 315.92C49.8699 315.92 50.0739 315.884 50.3019 315.812L50.4459 315.938L50.3019 316.748C49.9539 316.952 49.6119 317.072 49.2759 317.108C48.9039 317.072 48.6039 316.94 48.3759 316.712C48.1599 316.484 48.0459 316.172 48.0339 315.776H47.9079C47.2599 316.436 46.6179 316.886 45.9819 317.126C45.1779 317.126 44.5479 316.928 44.0919 316.532C43.6479 316.124 43.4259 315.572 43.4259 314.876C43.4259 314.348 43.5639 313.928 43.8399 313.616C44.1279 313.304 44.5479 313.082 45.0999 312.95L48.0159 312.266L48.0339 311.096C48.0339 310.628 47.9079 310.268 47.6559 310.016C47.4159 309.764 47.0679 309.638 46.6119 309.638C46.2039 309.638 45.7959 309.734 45.3879 309.926C44.9799 310.118 44.5419 310.418 44.0739 310.826L43.9299 310.754L43.7499 309.728C44.7459 308.984 45.7719 308.612 46.8279 308.612ZM45.3879 313.814C45.1479 313.886 44.9739 313.988 44.8659 314.12C44.7579 314.24 44.7039 314.426 44.7039 314.678C44.7039 315.074 44.8119 315.386 45.0279 315.614C45.2559 315.83 45.5559 315.938 45.9279 315.938C46.5879 315.938 47.2599 315.512 47.9439 314.66L47.9979 313.184L45.3879 313.814ZM57.4506 311.402C57.4626 310.91 57.3486 310.526 57.1086 310.25C56.8686 309.974 56.5146 309.836 56.0466 309.836C55.2906 309.836 54.4746 310.262 53.5986 311.114V313.382L53.6706 317H52.2486L52.3386 313.508L52.2666 308.846L53.6166 308.72V309.926H53.7246C54.4686 309.266 55.2306 308.84 56.0106 308.648C56.9106 308.648 57.5946 308.858 58.0626 309.278C58.5426 309.698 58.7766 310.298 58.7646 311.078L58.7286 313.418L58.8006 317H57.3606L57.4506 311.402ZM62.1778 312.824V312.86C62.1778 313.868 62.4058 314.642 62.8618 315.182C63.3178 315.722 63.9658 315.992 64.8058 315.992C65.2258 315.992 65.6458 315.926 66.0658 315.794C66.4858 315.65 66.8698 315.452 67.2178 315.2L67.3618 315.308L67.1458 316.532C66.3058 316.94 65.4658 317.144 64.6258 317.144C63.4498 317.144 62.5258 316.772 61.8538 316.028C61.1818 315.272 60.8458 314.24 60.8458 312.932C60.8458 311.612 61.1818 310.562 61.8538 309.782C62.5258 309.002 63.4318 308.612 64.5718 308.612C65.5318 308.612 66.2758 308.888 66.8038 309.44C67.3318 309.98 67.5958 310.736 67.5958 311.708C67.5958 312.032 67.5718 312.338 67.5238 312.626L67.3438 312.806L62.1778 312.824ZM64.5718 309.62C63.9718 309.62 63.4678 309.818 63.0598 310.214C62.6638 310.598 62.3998 311.144 62.2678 311.852L66.2458 311.78L66.2818 311.528C66.2818 310.916 66.1318 310.448 65.8318 310.124C65.5438 309.788 65.1238 309.62 64.5718 309.62ZM75.0287 311.402C75.0407 310.91 74.9267 310.526 74.6867 310.25C74.4467 309.974 74.0927 309.836 73.6247 309.836C72.8687 309.836 72.0527 310.262 71.1767 311.114V313.382L71.2487 317H69.8267L69.9167 313.508L69.8447 308.846L71.1947 308.72V309.926H71.3027C72.0467 309.266 72.8087 308.84 73.5887 308.648C74.4887 308.648 75.1727 308.858 75.6407 309.278C76.1207 309.698 76.3547 310.298 76.3427 311.078L76.3067 313.418L76.3787 317H74.9387L75.0287 311.402ZM81.7 315.902C82.096 315.902 82.528 315.782 82.996 315.542L83.158 315.65L83.014 316.586C82.366 316.886 81.766 317.06 81.214 317.108C80.53 316.976 80.038 316.724 79.738 316.352C79.438 315.98 79.288 315.44 79.288 314.732L79.342 313.454L79.324 309.728H78.19L78.118 309.62L78.208 308.774H79.306V307.442L80.548 306.902L80.692 307.028L80.656 308.774H83.104L83.176 308.882L83.086 309.728H80.656L80.566 314.606C80.554 315.086 80.638 315.422 80.818 315.614C80.998 315.806 81.292 315.902 81.7 315.902ZM86.26 313.382L86.35 317H84.928L85.036 313.49L84.946 304.49L86.368 304.364L86.26 313.382ZM89.6277 309.764L91.6077 315.452H91.7337L93.7857 309.89L94.0557 308.756H95.3337L92.3817 316.712C92.0817 317.528 91.7577 318.17 91.4097 318.638C91.0737 319.106 90.6597 319.472 90.1677 319.736C89.6877 320.012 89.0517 320.246 88.2597 320.438H88.1337C87.8817 320.186 87.6837 319.904 87.5397 319.592L87.5757 319.43C88.4877 319.25 89.1837 318.992 89.6637 318.656C90.1557 318.332 90.6117 317.78 91.0317 317L88.0077 308.792L89.3577 308.702L89.6277 309.764ZM96.5477 315.434C97.0517 315.746 97.3037 316.148 97.3037 316.64C97.3037 317.42 96.7397 318.224 95.6117 319.052L95.1257 318.602V318.476C95.7857 317.96 96.1157 317.432 96.1157 316.892C96.1157 316.568 95.9297 316.286 95.5577 316.046V315.902C95.8937 315.674 96.2237 315.518 96.5477 315.434Z" fill="#4F4F4F"/>
<rect x="5" width="314" height="1" fill="#E0E0E0"/>
<path d="M12.536 15.232H8.088L7.08 18H5.32L9.304 7.44H11.352L15.336 18H13.528L12.536 15.232ZM12.024 13.84L10.808 10.448L10.328 8.928H10.28L9.832 10.416L8.584 13.84H12.024ZM25.5856 15.2C25.2656 16.1493 24.7163 16.88 23.9376 17.392C23.1696 17.904 22.263 18.16 21.2176 18.16C20.2043 18.16 19.3243 17.9413 18.5776 17.504C17.831 17.0667 17.255 16.4373 16.8496 15.616C16.4443 14.7947 16.2416 13.8293 16.2416 12.72C16.2416 11.6107 16.4443 10.6453 16.8496 9.824C17.255 9.00267 17.831 8.37333 18.5776 7.936C19.3243 7.49867 20.199 7.28 21.2016 7.28C22.2576 7.28 23.143 7.49867 23.8576 7.936C24.583 8.37333 25.1056 9.01867 25.4256 9.872L23.8096 10.592C23.5963 9.96267 23.287 9.504 22.8816 9.216C22.4763 8.91733 21.9483 8.768 21.2976 8.768C20.3056 8.768 19.511 9.12 18.9136 9.824C18.327 10.5173 18.0336 11.4827 18.0336 12.72C18.0336 13.968 18.3163 14.9387 18.8816 15.632C19.447 16.3253 20.231 16.672 21.2336 16.672C21.9163 16.672 22.487 16.5013 22.9456 16.16C23.415 15.8187 23.751 15.3173 23.9536 14.656L25.5856 15.2ZM36.5231 15.2C36.2031 16.1493 35.6538 16.88 34.8751 17.392C34.1071 17.904 33.2005 18.16 32.1551 18.16C31.1418 18.16 30.2618 17.9413 29.5151 17.504C28.7685 17.0667 28.1925 16.4373 27.7871 15.616C27.3818 14.7947 27.1791 13.8293 27.1791 12.72C27.1791 11.6107 27.3818 10.6453 27.7871 9.824C28.1925 9.00267 28.7685 8.37333 29.5151 7.936C30.2618 7.49867 31.1365 7.28 32.1391 7.28C33.1951 7.28 34.0805 7.49867 34.7951 7.936C35.5205 8.37333 36.0431 9.01867 36.3631 9.872L34.7471 10.592C34.5338 9.96267 34.2245 9.504 33.8191 9.216C33.4138 8.91733 32.8858 8.768 32.2351 8.768C31.2431 8.768 30.4485 9.12 29.8511 9.824C29.2645 10.5173 28.9711 11.4827 28.9711 12.72C28.9711 13.968 29.2538 14.9387 29.8191 15.632C30.3845 16.3253 31.1685 16.672 32.1711 16.672C32.8538 16.672 33.4245 16.5013 33.8831 16.16C34.3525 15.8187 34.6885 15.3173 34.8911 14.656L36.5231 15.2ZM46.5806 16.528V18H38.7086V7.44H46.3566V8.912H40.4206V11.952H45.0606V13.392H40.4206V16.528H46.5806ZM56.4165 16.528V18H48.8805V7.44H50.5925V16.528H56.4165ZM66.3306 16.528V18H58.4586V7.44H66.1066V8.912H60.1706V11.952H64.8106V13.392H60.1706V16.528H66.3306ZM72.5985 13.776H70.3265V18H68.6305V7.44H72.9345C74.0758 7.44 74.9772 7.72267 75.6385 8.288C76.2998 8.84267 76.6305 9.616 76.6305 10.608C76.6305 11.3653 76.4332 12 76.0385 12.512C75.6545 13.0133 75.1052 13.3707 74.3905 13.584L77.2545 18H75.2865L72.5985 13.776ZM70.3265 12.352H72.7905C73.4838 12.352 74.0012 12.2133 74.3425 11.936C74.6838 11.648 74.8545 11.2107 74.8545 10.624C74.8545 10.0373 74.6838 9.60533 74.3425 9.328C74.0012 9.04 73.4838 8.896 72.7905 8.896H70.3265V12.352ZM85.3485 15.232H80.9005L79.8925 18H78.1325L82.1165 7.44H84.1645L88.1485 18H86.3405L85.3485 15.232ZM84.8365 13.84L83.6205 10.448L83.1405 8.928H83.0925L82.6445 10.416L81.3965 13.84H84.8365ZM96.4396 8.912H92.8236V18H91.1116V8.912H87.4956V7.44H96.4396V8.912ZM100.202 18H98.4899V7.44H100.202V18ZM107.718 7.28C108.731 7.28 109.611 7.49867 110.358 7.936C111.115 8.37333 111.696 9.00267 112.102 9.824C112.507 10.6453 112.71 11.6107 112.71 12.72C112.71 13.8293 112.507 14.7947 112.102 15.616C111.696 16.4373 111.115 17.0667 110.358 17.504C109.611 17.9413 108.731 18.16 107.718 18.16C106.704 18.16 105.824 17.9413 105.078 17.504C104.331 17.0667 103.755 16.4373 103.35 15.616C102.944 14.7947 102.742 13.8293 102.742 12.72C102.742 11.6107 102.944 10.6453 103.35 9.824C103.755 9.00267 104.331 8.37333 105.078 7.936C105.824 7.49867 106.704 7.28 107.718 7.28ZM107.718 8.768C106.726 8.768 105.947 9.11467 105.382 9.808C104.816 10.5013 104.534 11.472 104.534 12.72C104.534 13.968 104.816 14.9387 105.382 15.632C105.947 16.3253 106.726 16.672 107.718 16.672C108.72 16.672 109.504 16.3253 110.07 15.632C110.635 14.9387 110.918 13.968 110.918 12.72C110.918 11.472 110.635 10.5013 110.07 9.808C109.504 9.11467 108.72 8.768 107.718 8.768ZM123.912 18H121.88L117.799 11.344L116.776 9.392H116.76L116.824 11.184V18H115.256V7.44H117.272L121.336 14.08L122.376 16.048H122.392L122.328 14.256V7.44H123.912V18ZM140.992 15.2C140.672 16.1493 140.123 16.88 139.344 17.392C138.576 17.904 137.669 18.16 136.624 18.16C135.611 18.16 134.731 17.9413 133.984 17.504C133.237 17.0667 132.661 16.4373 132.256 15.616C131.851 14.7947 131.648 13.8293 131.648 12.72C131.648 11.6107 131.851 10.6453 132.256 9.824C132.661 9.00267 133.237 8.37333 133.984 7.936C134.731 7.49867 135.605 7.28 136.608 7.28C137.664 7.28 138.549 7.49867 139.264 7.936C139.989 8.37333 140.512 9.01867 140.832 9.872L139.216 10.592C139.003 9.96267 138.693 9.504 138.288 9.216C137.883 8.91733 137.355 8.768 136.704 8.768C135.712 8.768 134.917 9.12 134.32 9.824C133.733 10.5173 133.44 11.4827 133.44 12.72C133.44 13.968 133.723 14.9387 134.288 15.632C134.853 16.3253 135.637 16.672 136.64 16.672C137.323 16.672 137.893 16.5013 138.352 16.16C138.821 15.8187 139.157 15.3173 139.36 14.656L140.992 15.2ZM151.673 13.952C151.673 15.3387 151.305 16.3893 150.569 17.104C149.833 17.808 148.761 18.16 147.353 18.16C145.945 18.16 144.873 17.808 144.137 17.104C143.401 16.3893 143.033 15.3387 143.033 13.952V7.44H144.761V13.744C144.761 14.7467 144.969 15.488 145.385 15.968C145.812 16.4373 146.468 16.672 147.353 16.672C148.239 16.672 148.889 16.4373 149.305 15.968C149.732 15.488 149.945 14.7467 149.945 13.744V7.44H151.673V13.952ZM158.63 13.776H156.358V18H154.662V7.44H158.966C160.107 7.44 161.008 7.72267 161.67 8.288C162.331 8.84267 162.662 9.616 162.662 10.608C162.662 11.3653 162.464 12 162.07 12.512C161.686 13.0133 161.136 13.3707 160.422 13.584L163.286 18H161.318L158.63 13.776ZM156.358 12.352H158.822C159.515 12.352 160.032 12.2133 160.374 11.936C160.715 11.648 160.886 11.2107 160.886 10.624C160.886 10.0373 160.715 9.60533 160.374 9.328C160.032 9.04 159.515 8.896 158.822 8.896H156.358V12.352ZM169.944 18H167.944L164.024 7.44H165.848L168.312 14.464L168.952 16.56L169.592 14.48L172.056 7.44H173.864L169.944 18ZM183.659 16.528V18H175.787V7.44H183.435V8.912H177.499V11.952H182.139V13.392H177.499V16.528H183.659Z" fill="#4F4F4F"/>
<path d="M5 49V250.638H296" stroke="#E0E0E0"/>
<g filter="url(#filter0_d)">
<path d="M5 248.957C44.5256 248.957 143.626 244.915 211.793 196.792C279.961 148.669 296 62.1758 296 49" stroke="#C50063" stroke-width="2" stroke-linecap="round"/>
</g>
<defs>
<filter id="filter0_d" x="0" y="48" width="301" height="209.958" filterUnits="userSpaceOnUse" color-interpolation-filters="sRGB">
<feFlood flood-opacity="0" result="BackgroundImageFix"/>
<feColorMatrix in="SourceAlpha" type="matrix" values="0 0 0 0 0 0 0 0 0 0 0 0 0 0 0 0 0 0 127 0"/>
<feOffset dy="4"/>
<feGaussianBlur stdDeviation="2"/>
<feColorMatrix type="matrix" values="0 0 0 0 0.768627 0 0 0 0 0.768627 0 0 0 0 0.768627 0 0 0 0.3 0"/>
<feBlend mode="normal" in2="BackgroundImageFix" result="effect1_dropShadow"/>
<feBlend mode="normal" in="SourceGraphic" in2="effect1_dropShadow" result="shape"/>
</filter>
</defs>
</svg>
