<svg width="319" height="379" viewBox="0 0 319 379" fill="none" xmlns="http://www.w3.org/2000/svg">
<path d="M8.132 280.704L8.096 284.718L10.04 284.754L11.912 284.7L12.02 284.844L11.894 285.942L9.896 285.888L8.078 285.906L8.06 287.4L8.132 291H6.674L6.764 287.526L6.674 279.462H12.812L12.92 279.606L12.794 280.758L10.148 280.668L8.132 280.704ZM16.6723 282.612C17.7883 282.612 18.6523 282.978 19.2643 283.71C19.8883 284.43 20.2003 285.45 20.2003 286.77C20.2003 288.162 19.8763 289.242 19.2283 290.01C18.5803 290.766 17.6563 291.144 16.4563 291.144C15.3283 291.144 14.4523 290.784 13.8283 290.064C13.2163 289.332 12.9103 288.306 12.9103 286.986C12.9103 285.594 13.2343 284.52 13.8823 283.764C14.5423 282.996 15.4723 282.612 16.6723 282.612ZM16.5823 283.62C15.8263 283.62 15.2503 283.878 14.8543 284.394C14.4583 284.91 14.2603 285.666 14.2603 286.662C14.2603 287.814 14.4523 288.678 14.8363 289.254C15.2323 289.83 15.8023 290.118 16.5463 290.118C17.3023 290.118 17.8783 289.866 18.2743 289.362C18.6703 288.858 18.8683 288.102 18.8683 287.094C18.8683 285.954 18.6703 285.09 18.2743 284.502C17.8903 283.914 17.3263 283.62 16.5823 283.62ZM26.0403 282.738C26.1843 282.738 26.3403 282.75 26.5083 282.774V284.16L26.3463 284.214C26.1423 284.154 25.9203 284.124 25.6803 284.124C25.2843 284.124 24.9183 284.286 24.5823 284.61C24.2583 284.922 23.9343 285.426 23.6103 286.122L23.5923 287.382L23.6823 291H22.2603L22.3503 287.508L22.2783 282.846L23.6283 282.72L23.6103 284.412H23.7183C24.0543 283.812 24.4263 283.386 24.8343 283.134C25.2423 282.87 25.6443 282.738 26.0403 282.738ZM37.2234 287.382L37.2774 289.236C37.2894 289.488 37.3314 289.668 37.4034 289.776C37.4754 289.872 37.6074 289.92 37.7994 289.92C37.9914 289.92 38.1954 289.884 38.4114 289.812L38.5554 289.938L38.4114 290.748C38.0874 290.952 37.7514 291.072 37.4034 291.108C37.0314 291.072 36.7374 290.946 36.5214 290.73C36.3174 290.514 36.1914 290.22 36.1434 289.848H36.0174C35.6574 290.16 35.3334 290.412 35.0454 290.604C34.7574 290.784 34.4274 290.946 34.0554 291.09C32.8674 291.09 31.9554 290.73 31.3194 290.01C30.6834 289.278 30.3654 288.24 30.3654 286.896C30.3654 285.54 30.7194 284.49 31.4274 283.746C32.1354 282.99 33.1134 282.612 34.3614 282.612C34.9254 282.612 35.4534 282.672 35.9454 282.792L35.9274 278.49L37.3494 278.364L37.2234 287.382ZM34.1994 283.62C33.4314 283.62 32.8254 283.884 32.3814 284.412C31.9374 284.928 31.7154 285.678 31.7154 286.662C31.7154 287.682 31.9134 288.474 32.3094 289.038C32.7174 289.602 33.2754 289.884 33.9834 289.884C34.3194 289.884 34.6434 289.8 34.9554 289.632C35.2794 289.464 35.6154 289.182 35.9634 288.786L35.9994 287.49L35.9454 284.07C35.3094 283.77 34.7274 283.62 34.1994 283.62ZM40.4558 287.508L40.4018 282.846L41.7878 282.72L41.7518 287.382L41.7878 291H40.3838L40.4558 287.508ZM41.1218 279.066C41.3618 279.066 41.5538 279.138 41.6978 279.282C41.8418 279.426 41.9138 279.624 41.9138 279.876C41.9138 280.14 41.8358 280.35 41.6798 280.506C41.5358 280.662 41.3318 280.74 41.0678 280.74C40.8158 280.74 40.6178 280.668 40.4738 280.524C40.3418 280.38 40.2758 280.176 40.2758 279.912C40.2758 279.66 40.3478 279.456 40.4918 279.3C40.6478 279.144 40.8578 279.066 41.1218 279.066ZM48.5052 282.738C48.6492 282.738 48.8052 282.75 48.9732 282.774V284.16L48.8112 284.214C48.6072 284.154 48.3852 284.124 48.1452 284.124C47.7492 284.124 47.3832 284.286 47.0472 284.61C46.7232 284.922 46.3992 285.426 46.0752 286.122L46.0572 287.382L46.1472 291H44.7252L44.8152 287.508L44.7432 282.846L46.0932 282.72L46.0752 284.412H46.1832C46.5192 283.812 46.8912 283.386 47.2992 283.134C47.7072 282.87 48.1092 282.738 48.5052 282.738ZM51.1739 286.824V286.86C51.1739 287.868 51.4019 288.642 51.8579 289.182C52.3139 289.722 52.9619 289.992 53.8019 289.992C54.2219 289.992 54.6419 289.926 55.0619 289.794C55.4819 289.65 55.8659 289.452 56.2139 289.2L56.3579 289.308L56.1419 290.532C55.3019 290.94 54.4619 291.144 53.6219 291.144C52.4459 291.144 51.5219 290.772 50.8499 290.028C50.1779 289.272 49.8419 288.24 49.8419 286.932C49.8419 285.612 50.1779 284.562 50.8499 283.782C51.5219 283.002 52.4279 282.612 53.5679 282.612C54.5279 282.612 55.2719 282.888 55.7999 283.44C56.3279 283.98 56.5919 284.736 56.5919 285.708C56.5919 286.032 56.5679 286.338 56.5199 286.626L56.3399 286.806L51.1739 286.824ZM53.5679 283.62C52.9679 283.62 52.4639 283.818 52.0559 284.214C51.6599 284.598 51.3959 285.144 51.2639 285.852L55.2419 285.78L55.2779 285.528C55.2779 284.916 55.1279 284.448 54.8279 284.124C54.5399 283.788 54.1199 283.62 53.5679 283.62ZM61.7928 282.612C62.1648 282.612 62.5488 282.66 62.9448 282.756C63.3528 282.84 63.7068 282.954 64.0068 283.098L63.7548 284.34L63.5928 284.394C62.9688 283.986 62.3508 283.782 61.7388 283.782C61.0308 283.782 60.4788 284.052 60.0828 284.592C59.6868 285.132 59.4888 285.888 59.4888 286.86C59.4888 287.832 59.6928 288.6 60.1008 289.164C60.5208 289.716 61.0968 289.992 61.8288 289.992C62.1528 289.992 62.4888 289.938 62.8368 289.83C63.1968 289.722 63.5328 289.572 63.8448 289.38L64.0068 289.47L63.8448 290.676C63.1128 290.988 62.3808 291.144 61.6488 291.144C60.5568 291.144 59.6988 290.772 59.0748 290.028C58.4508 289.272 58.1388 288.24 58.1388 286.932C58.1388 285.6 58.4628 284.55 59.1108 283.782C59.7708 283.002 60.6648 282.612 61.7928 282.612ZM68.3406 289.902C68.7366 289.902 69.1686 289.782 69.6366 289.542L69.7986 289.65L69.6546 290.586C69.0066 290.886 68.4066 291.06 67.8546 291.108C67.1706 290.976 66.6786 290.724 66.3786 290.352C66.0786 289.98 65.9286 289.44 65.9286 288.732L65.9826 287.454L65.9646 283.728H64.8306L64.7586 283.62L64.8486 282.774H65.9466V281.442L67.1886 280.902L67.3326 281.028L67.2966 282.774H69.7446L69.8166 282.882L69.7266 283.728H67.2966L67.2066 288.606C67.1946 289.086 67.2786 289.422 67.4586 289.614C67.6386 289.806 67.9326 289.902 68.3406 289.902ZM71.5866 287.508L71.5326 282.846L72.9186 282.72L72.8826 287.382L72.9186 291H71.5146L71.5866 287.508ZM72.2526 279.066C72.4926 279.066 72.6846 279.138 72.8286 279.282C72.9726 279.426 73.0446 279.624 73.0446 279.876C73.0446 280.14 72.9666 280.35 72.8106 280.506C72.6666 280.662 72.4626 280.74 72.1986 280.74C71.9466 280.74 71.7486 280.668 71.6046 280.524C71.4726 280.38 71.4066 280.176 71.4066 279.912C71.4066 279.66 71.4786 279.456 71.6226 279.3C71.7786 279.144 71.9886 279.066 72.2526 279.066ZM81.058 285.402C81.07 284.91 80.956 284.526 80.716 284.25C80.476 283.974 80.122 283.836 79.654 283.836C78.898 283.836 78.082 284.262 77.206 285.114V287.382L77.278 291H75.856L75.946 287.508L75.874 282.846L77.224 282.72V283.926H77.332C78.076 283.266 78.838 282.84 79.618 282.648C80.518 282.648 81.202 282.858 81.67 283.278C82.15 283.698 82.384 284.298 82.372 285.078L82.336 287.418L82.408 291H80.968L81.058 285.402ZM92.4273 283.458C92.0553 283.566 91.5033 283.692 90.7713 283.836L90.7353 283.908C90.9993 284.328 91.1313 284.838 91.1313 285.438C91.1313 286.314 90.8373 287.01 90.2493 287.526C89.6733 288.042 88.8873 288.3 87.8913 288.3C87.4953 288.3 87.1233 288.252 86.7753 288.156C86.5713 288.312 86.4333 288.438 86.3613 288.534C86.2893 288.63 86.2533 288.738 86.2533 288.858C86.2533 289.11 86.4093 289.29 86.7213 289.398C87.0333 289.494 87.5433 289.596 88.2513 289.704C88.9473 289.8 89.5173 289.908 89.9613 290.028C90.4053 290.148 90.7893 290.346 91.1133 290.622C91.4373 290.886 91.5993 291.258 91.5993 291.738C91.5993 292.242 91.4253 292.704 91.0773 293.124C90.7413 293.544 90.2733 293.874 89.6733 294.114C89.0853 294.354 88.4373 294.474 87.7293 294.474C86.7693 294.474 86.0193 294.252 85.4793 293.808C84.9513 293.376 84.6873 292.812 84.6873 292.116C84.9753 291.54 85.5033 291.018 86.2713 290.55V290.46C85.8393 290.328 85.5033 290.154 85.2633 289.938C85.0353 289.71 84.9213 289.404 84.9213 289.02C85.1733 288.6 85.5393 288.234 86.0193 287.922V287.85C85.6353 287.61 85.3413 287.298 85.1373 286.914C84.9453 286.518 84.8493 286.062 84.8493 285.546C84.8493 284.646 85.1373 283.944 85.7133 283.44C86.3013 282.924 87.0813 282.666 88.0533 282.666C88.6893 282.666 89.2293 282.774 89.6733 282.99C90.5013 282.834 91.3713 282.63 92.2833 282.378L92.4273 282.486V283.458ZM87.9633 287.328C88.5633 287.328 89.0253 287.16 89.3493 286.824C89.6853 286.488 89.8533 286.02 89.8533 285.42C89.8533 284.844 89.6973 284.4 89.3853 284.088C89.0733 283.776 88.6233 283.62 88.0353 283.62C87.4353 283.62 86.9673 283.782 86.6313 284.106C86.2953 284.43 86.1273 284.892 86.1273 285.492C86.1273 286.068 86.2833 286.518 86.5953 286.842C86.9193 287.166 87.3753 287.328 87.9633 287.328ZM90.3393 292.008C90.3393 291.612 90.1353 291.336 89.7273 291.18C89.3313 291.024 88.7253 290.886 87.9093 290.766L87.3333 290.676C86.8773 290.952 86.5293 291.216 86.2893 291.468C86.0613 291.72 85.9473 291.984 85.9473 292.26C85.9473 292.608 86.1153 292.896 86.4513 293.124C86.7993 293.352 87.2793 293.466 87.8913 293.466C88.5873 293.466 89.1693 293.322 89.6373 293.034C90.1053 292.758 90.3393 292.416 90.3393 292.008ZM99.4715 289.902C99.8675 289.902 100.299 289.782 100.767 289.542L100.929 289.65L100.785 290.586C100.137 290.886 99.5375 291.06 98.9855 291.108C98.3015 290.976 97.8095 290.724 97.5095 290.352C97.2095 289.98 97.0595 289.44 97.0595 288.732L97.1135 287.454L97.0955 283.728H95.9615L95.8895 283.62L95.9795 282.774H97.0775V281.442L98.3195 280.902L98.4635 281.028L98.4275 282.774H100.875L100.947 282.882L100.857 283.728H98.4275L98.3375 288.606C98.3255 289.086 98.4095 289.422 98.5895 289.614C98.7695 289.806 99.0635 289.902 99.4715 289.902ZM107.902 285.402C107.914 284.91 107.8 284.526 107.56 284.25C107.32 283.974 106.966 283.836 106.498 283.836C105.706 283.836 104.896 284.262 104.068 285.114L104.032 287.382L104.122 291H102.7L102.808 287.49L102.718 278.49L104.14 278.364L104.068 283.926H104.176C104.92 283.266 105.682 282.84 106.462 282.648C107.374 282.648 108.064 282.858 108.532 283.278C109 283.698 109.228 284.298 109.216 285.078L109.18 287.418L109.252 291H107.812L107.902 285.402ZM112.627 286.824V286.86C112.627 287.868 112.855 288.642 113.311 289.182C113.767 289.722 114.415 289.992 115.255 289.992C115.675 289.992 116.095 289.926 116.515 289.794C116.935 289.65 117.319 289.452 117.667 289.2L117.811 289.308L117.595 290.532C116.755 290.94 115.915 291.144 115.075 291.144C113.899 291.144 112.975 290.772 112.303 290.028C111.631 289.272 111.295 288.24 111.295 286.932C111.295 285.612 111.631 284.562 112.303 283.782C112.975 283.002 113.881 282.612 115.021 282.612C115.981 282.612 116.725 282.888 117.253 283.44C117.781 283.98 118.045 284.736 118.045 285.708C118.045 286.032 118.021 286.338 117.973 286.626L117.793 286.806L112.627 286.824ZM115.021 283.62C114.421 283.62 113.917 283.818 113.509 284.214C113.113 284.598 112.849 285.144 112.717 285.852L116.695 285.78L116.731 285.528C116.731 284.916 116.581 284.448 116.281 284.124C115.993 283.788 115.573 283.62 115.021 283.62ZM130.627 289.938L130.483 290.748C130.135 290.952 129.793 291.072 129.457 291.108C129.109 291.06 128.827 290.94 128.611 290.748C128.407 290.544 128.263 290.244 128.179 289.848H128.071C127.351 290.496 126.607 290.916 125.839 291.108C124.951 291.108 124.273 290.898 123.805 290.478C123.349 290.058 123.127 289.458 123.139 288.678L123.157 286.392L123.103 282.846L124.543 282.72L124.435 288.336C124.435 288.828 124.549 289.212 124.777 289.488C125.017 289.764 125.365 289.902 125.821 289.902C126.565 289.902 127.309 289.542 128.053 288.822V282.846L129.421 282.72L129.331 289.236C129.331 289.488 129.367 289.668 129.439 289.776C129.523 289.872 129.661 289.92 129.853 289.92C130.045 289.92 130.255 289.884 130.483 289.812L130.627 289.938ZM134.672 282.63C135.356 282.63 136.016 282.762 136.652 283.026L136.454 284.196L136.238 284.25C135.638 283.854 135.062 283.656 134.51 283.656C134.102 283.656 133.772 283.77 133.52 283.998C133.268 284.226 133.142 284.502 133.142 284.826C133.142 285.15 133.268 285.414 133.52 285.618C133.784 285.81 134.186 286.032 134.726 286.284C135.194 286.5 135.566 286.698 135.842 286.878C136.13 287.046 136.376 287.274 136.58 287.562C136.784 287.85 136.886 288.204 136.886 288.624C136.886 289.068 136.772 289.482 136.544 289.866C136.316 290.25 135.98 290.562 135.536 290.802C135.092 291.03 134.564 291.144 133.952 291.144C133.112 291.144 132.314 290.946 131.558 290.55L131.738 289.326L131.9 289.218C132.236 289.506 132.596 289.728 132.98 289.884C133.376 290.04 133.748 290.118 134.096 290.118C134.54 290.118 134.9 289.998 135.176 289.758C135.452 289.506 135.59 289.212 135.59 288.876C135.59 288.552 135.458 288.294 135.194 288.102C134.942 287.898 134.546 287.67 134.006 287.418C133.538 287.202 133.16 287.01 132.872 286.842C132.584 286.662 132.338 286.422 132.134 286.122C131.93 285.822 131.828 285.45 131.828 285.006C131.828 284.31 132.08 283.74 132.584 283.296C133.1 282.852 133.796 282.63 134.672 282.63ZM139.733 286.824V286.86C139.733 287.868 139.961 288.642 140.417 289.182C140.873 289.722 141.521 289.992 142.361 289.992C142.781 289.992 143.201 289.926 143.621 289.794C144.041 289.65 144.425 289.452 144.773 289.2L144.917 289.308L144.701 290.532C143.861 290.94 143.021 291.144 142.181 291.144C141.005 291.144 140.081 290.772 139.409 290.028C138.737 289.272 138.401 288.24 138.401 286.932C138.401 285.612 138.737 284.562 139.409 283.782C140.081 283.002 140.987 282.612 142.127 282.612C143.087 282.612 143.831 282.888 144.359 283.44C144.887 283.98 145.151 284.736 145.151 285.708C145.151 286.032 145.127 286.338 145.079 286.626L144.899 286.806L139.733 286.824ZM142.127 283.62C141.527 283.62 141.023 283.818 140.615 284.214C140.219 284.598 139.955 285.144 139.823 285.852L143.801 285.78L143.837 285.528C143.837 284.916 143.687 284.448 143.387 284.124C143.099 283.788 142.679 283.62 142.127 283.62ZM151.161 282.738C151.305 282.738 151.461 282.75 151.629 282.774V284.16L151.467 284.214C151.263 284.154 151.041 284.124 150.801 284.124C150.405 284.124 150.039 284.286 149.703 284.61C149.379 284.922 149.055 285.426 148.731 286.122L148.713 287.382L148.803 291H147.381L147.471 287.508L147.399 282.846L148.749 282.72L148.731 284.412H148.839C149.175 283.812 149.547 283.386 149.955 283.134C150.363 282.87 150.765 282.738 151.161 282.738ZM153.605 279.444C154.253 279.684 154.577 280.134 154.577 280.794C154.577 281.538 154.139 282.342 153.263 283.206L152.723 282.828L152.705 282.702C153.209 282.162 153.461 281.658 153.461 281.19C153.461 280.71 153.227 280.38 152.759 280.2V280.056C152.987 279.84 153.269 279.636 153.605 279.444ZM158.807 282.63C159.491 282.63 160.151 282.762 160.787 283.026L160.589 284.196L160.373 284.25C159.773 283.854 159.197 283.656 158.645 283.656C158.237 283.656 157.907 283.77 157.655 283.998C157.403 284.226 157.277 284.502 157.277 284.826C157.277 285.15 157.403 285.414 157.655 285.618C157.919 285.81 158.321 286.032 158.861 286.284C159.329 286.5 159.701 286.698 159.977 286.878C160.265 287.046 160.511 287.274 160.715 287.562C160.919 287.85 161.021 288.204 161.021 288.624C161.021 289.068 160.907 289.482 160.679 289.866C160.451 290.25 160.115 290.562 159.671 290.802C159.227 291.03 158.699 291.144 158.087 291.144C157.247 291.144 156.449 290.946 155.693 290.55L155.873 289.326L156.035 289.218C156.371 289.506 156.731 289.728 157.115 289.884C157.511 290.04 157.883 290.118 158.231 290.118C158.675 290.118 159.035 289.998 159.311 289.758C159.587 289.506 159.725 289.212 159.725 288.876C159.725 288.552 159.593 288.294 159.329 288.102C159.077 287.898 158.681 287.67 158.141 287.418C157.673 287.202 157.295 287.01 157.007 286.842C156.719 286.662 156.473 286.422 156.269 286.122C156.065 285.822 155.963 285.45 155.963 285.006C155.963 284.31 156.215 283.74 156.719 283.296C157.235 282.852 157.931 282.63 158.807 282.63ZM168.908 282.612C169.688 282.612 170.3 282.804 170.744 283.188C171.2 283.572 171.428 284.1 171.428 284.772C171.428 284.976 171.392 285.714 171.32 286.986C171.248 288.258 171.212 289.002 171.212 289.218C171.212 289.482 171.254 289.668 171.338 289.776C171.422 289.872 171.566 289.92 171.77 289.92C171.95 289.92 172.154 289.884 172.382 289.812L172.526 289.938L172.382 290.748C172.034 290.952 171.692 291.072 171.356 291.108C170.984 291.072 170.684 290.94 170.456 290.712C170.24 290.484 170.126 290.172 170.114 289.776H169.988C169.34 290.436 168.698 290.886 168.062 291.126C167.258 291.126 166.628 290.928 166.172 290.532C165.728 290.124 165.506 289.572 165.506 288.876C165.506 288.348 165.644 287.928 165.92 287.616C166.208 287.304 166.628 287.082 167.18 286.95L170.096 286.266L170.114 285.096C170.114 284.628 169.988 284.268 169.736 284.016C169.496 283.764 169.148 283.638 168.692 283.638C168.284 283.638 167.876 283.734 167.468 283.926C167.06 284.118 166.622 284.418 166.154 284.826L166.01 284.754L165.83 283.728C166.826 282.984 167.852 282.612 168.908 282.612ZM167.468 287.814C167.228 287.886 167.054 287.988 166.946 288.12C166.838 288.24 166.784 288.426 166.784 288.678C166.784 289.074 166.892 289.386 167.108 289.614C167.336 289.83 167.636 289.938 168.008 289.938C168.668 289.938 169.34 289.512 170.024 288.66L170.078 287.184L167.468 287.814ZM177.096 289.902C177.492 289.902 177.924 289.782 178.392 289.542L178.554 289.65L178.41 290.586C177.762 290.886 177.162 291.06 176.61 291.108C175.926 290.976 175.434 290.724 175.134 290.352C174.834 289.98 174.684 289.44 174.684 288.732L174.738 287.454L174.72 283.728H173.586L173.514 283.62L173.604 282.774H174.702V281.442L175.944 280.902L176.088 281.028L176.052 282.774H178.5L178.572 282.882L178.482 283.728H176.052L175.962 288.606C175.95 289.086 176.034 289.422 176.214 289.614C176.394 289.806 176.688 289.902 177.096 289.902ZM182.845 289.902C183.241 289.902 183.673 289.782 184.141 289.542L184.303 289.65L184.159 290.586C183.511 290.886 182.911 291.06 182.359 291.108C181.675 290.976 181.183 290.724 180.883 290.352C180.583 289.98 180.433 289.44 180.433 288.732L180.487 287.454L180.469 283.728H179.335L179.263 283.62L179.353 282.774H180.451V281.442L181.693 280.902L181.837 281.028L181.801 282.774H184.249L184.321 282.882L184.231 283.728H181.801L181.711 288.606C181.699 289.086 181.783 289.422 181.963 289.614C182.143 289.806 182.437 289.902 182.845 289.902ZM186.402 286.824V286.86C186.402 287.868 186.63 288.642 187.086 289.182C187.542 289.722 188.19 289.992 189.03 289.992C189.45 289.992 189.87 289.926 190.29 289.794C190.71 289.65 191.094 289.452 191.442 289.2L191.586 289.308L191.37 290.532C190.53 290.94 189.69 291.144 188.85 291.144C187.674 291.144 186.75 290.772 186.078 290.028C185.406 289.272 185.07 288.24 185.07 286.932C185.07 285.612 185.406 284.562 186.078 283.782C186.75 283.002 187.656 282.612 188.796 282.612C189.756 282.612 190.5 282.888 191.028 283.44C191.556 283.98 191.82 284.736 191.82 285.708C191.82 286.032 191.796 286.338 191.748 286.626L191.568 286.806L186.402 286.824ZM188.796 283.62C188.196 283.62 187.692 283.818 187.284 284.214C186.888 284.598 186.624 285.144 186.492 285.852L190.47 285.78L190.506 285.528C190.506 284.916 190.356 284.448 190.056 284.124C189.768 283.788 189.348 283.62 188.796 283.62ZM199.253 285.402C199.265 284.91 199.151 284.526 198.911 284.25C198.671 283.974 198.317 283.836 197.849 283.836C197.093 283.836 196.277 284.262 195.401 285.114V287.382L195.473 291H194.051L194.141 287.508L194.069 282.846L195.419 282.72V283.926H195.527C196.271 283.266 197.033 282.84 197.813 282.648C198.713 282.648 199.397 282.858 199.865 283.278C200.345 283.698 200.579 284.298 200.567 285.078L200.531 287.418L200.603 291H199.163L199.253 285.402ZM205.925 289.902C206.321 289.902 206.753 289.782 207.221 289.542L207.383 289.65L207.239 290.586C206.591 290.886 205.991 291.06 205.439 291.108C204.755 290.976 204.263 290.724 203.963 290.352C203.663 289.98 203.513 289.44 203.513 288.732L203.567 287.454L203.549 283.728H202.415L202.343 283.62L202.433 282.774H203.531V281.442L204.773 280.902L204.917 281.028L204.881 282.774H207.329L207.401 282.882L207.311 283.728H204.881L204.791 288.606C204.779 289.086 204.863 289.422 205.043 289.614C205.223 289.806 205.517 289.902 205.925 289.902ZM209.171 287.508L209.117 282.846L210.503 282.72L210.467 287.382L210.503 291H209.099L209.171 287.508ZM209.837 279.066C210.077 279.066 210.269 279.138 210.413 279.282C210.557 279.426 210.629 279.624 210.629 279.876C210.629 280.14 210.551 280.35 210.395 280.506C210.251 280.662 210.047 280.74 209.783 280.74C209.531 280.74 209.333 280.668 209.189 280.524C209.057 280.38 208.991 280.176 208.991 279.912C208.991 279.66 209.063 279.456 209.207 279.3C209.363 279.144 209.573 279.066 209.837 279.066ZM216.518 282.612C217.634 282.612 218.498 282.978 219.11 283.71C219.734 284.43 220.046 285.45 220.046 286.77C220.046 288.162 219.722 289.242 219.074 290.01C218.426 290.766 217.502 291.144 216.302 291.144C215.174 291.144 214.298 290.784 213.674 290.064C213.062 289.332 212.756 288.306 212.756 286.986C212.756 285.594 213.08 284.52 213.728 283.764C214.388 282.996 215.318 282.612 216.518 282.612ZM216.428 283.62C215.672 283.62 215.096 283.878 214.7 284.394C214.304 284.91 214.106 285.666 214.106 286.662C214.106 287.814 214.298 288.678 214.682 289.254C215.078 289.83 215.648 290.118 216.392 290.118C217.148 290.118 217.724 289.866 218.12 289.362C218.516 288.858 218.714 288.102 218.714 287.094C218.714 285.954 218.516 285.09 218.12 284.502C217.736 283.914 217.172 283.62 216.428 283.62ZM227.308 285.402C227.32 284.91 227.206 284.526 226.966 284.25C226.726 283.974 226.372 283.836 225.904 283.836C225.148 283.836 224.332 284.262 223.456 285.114V287.382L223.528 291H222.106L222.196 287.508L222.124 282.846L223.474 282.72V283.926H223.582C224.326 283.266 225.088 282.84 225.868 282.648C226.768 282.648 227.452 282.858 227.92 283.278C228.4 283.698 228.634 284.298 228.622 285.078L228.586 287.418L228.658 291H227.218L227.308 285.402ZM236.95 289.902C237.346 289.902 237.778 289.782 238.246 289.542L238.408 289.65L238.264 290.586C237.616 290.886 237.016 291.06 236.464 291.108C235.78 290.976 235.288 290.724 234.988 290.352C234.688 289.98 234.538 289.44 234.538 288.732L234.592 287.454L234.574 283.728H233.44L233.368 283.62L233.458 282.774H234.556V281.442L235.798 280.902L235.942 281.028L235.906 282.774H238.354L238.426 282.882L238.336 283.728H235.906L235.816 288.606C235.804 289.086 235.888 289.422 236.068 289.614C236.248 289.806 236.542 289.902 236.95 289.902ZM242.938 282.612C244.054 282.612 244.918 282.978 245.53 283.71C246.154 284.43 246.466 285.45 246.466 286.77C246.466 288.162 246.142 289.242 245.494 290.01C244.846 290.766 243.922 291.144 242.722 291.144C241.594 291.144 240.718 290.784 240.094 290.064C239.482 289.332 239.176 288.306 239.176 286.986C239.176 285.594 239.5 284.52 240.148 283.764C240.808 282.996 241.738 282.612 242.938 282.612ZM242.848 283.62C242.092 283.62 241.516 283.878 241.12 284.394C240.724 284.91 240.526 285.666 240.526 286.662C240.526 287.814 240.718 288.678 241.102 289.254C241.498 289.83 242.068 290.118 242.812 290.118C243.568 290.118 244.144 289.866 244.54 289.362C244.936 288.858 245.134 288.102 245.134 287.094C245.134 285.954 244.936 285.09 244.54 284.502C244.156 283.914 243.592 283.62 242.848 283.62ZM9.032 315.902C9.428 315.902 9.86 315.782 10.328 315.542L10.49 315.65L10.346 316.586C9.698 316.886 9.098 317.06 8.546 317.108C7.862 316.976 7.37 316.724 7.07 316.352C6.77 315.98 6.62 315.44 6.62 314.732L6.674 313.454L6.656 309.728H5.522L5.45 309.62L5.54 308.774H6.638V307.442L7.88 306.902L8.024 307.028L7.988 308.774H10.436L10.508 308.882L10.418 309.728H7.988L7.898 314.606C7.886 315.086 7.97 315.422 8.15 315.614C8.33 315.806 8.624 315.902 9.032 315.902ZM17.462 311.402C17.474 310.91 17.36 310.526 17.12 310.25C16.88 309.974 16.526 309.836 16.058 309.836C15.266 309.836 14.456 310.262 13.628 311.114L13.592 313.382L13.682 317H12.26L12.368 313.49L12.278 304.49L13.7 304.364L13.628 309.926H13.736C14.48 309.266 15.242 308.84 16.022 308.648C16.934 308.648 17.624 308.858 18.092 309.278C18.56 309.698 18.788 310.298 18.776 311.078L18.74 313.418L18.812 317H17.372L17.462 311.402ZM22.1876 312.824V312.86C22.1876 313.868 22.4156 314.642 22.8716 315.182C23.3276 315.722 23.9756 315.992 24.8156 315.992C25.2356 315.992 25.6556 315.926 26.0756 315.794C26.4956 315.65 26.8796 315.452 27.2276 315.2L27.3716 315.308L27.1556 316.532C26.3156 316.94 25.4756 317.144 24.6356 317.144C23.4596 317.144 22.5356 316.772 21.8636 316.028C21.1916 315.272 20.8556 314.24 20.8556 312.932C20.8556 311.612 21.1916 310.562 21.8636 309.782C22.5356 309.002 23.4416 308.612 24.5816 308.612C25.5416 308.612 26.2856 308.888 26.8136 309.44C27.3416 309.98 27.6056 310.736 27.6056 311.708C27.6056 312.032 27.5816 312.338 27.5336 312.626L27.3536 312.806L22.1876 312.824ZM24.5816 309.62C23.9816 309.62 23.4776 309.818 23.0696 310.214C22.6736 310.598 22.4096 311.144 22.2776 311.852L26.2556 311.78L26.2916 311.528C26.2916 310.916 26.1416 310.448 25.8416 310.124C25.5536 309.788 25.1336 309.62 24.5816 309.62ZM35.8852 308.612C37.0012 308.612 37.8652 308.978 38.4772 309.71C39.1012 310.43 39.4132 311.45 39.4132 312.77C39.4132 314.162 39.0892 315.242 38.4412 316.01C37.7932 316.766 36.8692 317.144 35.6692 317.144C34.5412 317.144 33.6652 316.784 33.0412 316.064C32.4292 315.332 32.1232 314.306 32.1232 312.986C32.1232 311.594 32.4472 310.52 33.0952 309.764C33.7552 308.996 34.6852 308.612 35.8852 308.612ZM35.7952 309.62C35.0392 309.62 34.4632 309.878 34.0672 310.394C33.6712 310.91 33.4732 311.666 33.4732 312.662C33.4732 313.814 33.6652 314.678 34.0492 315.254C34.4452 315.83 35.0152 316.118 35.7592 316.118C36.5152 316.118 37.0912 315.866 37.4872 315.362C37.8832 314.858 38.0812 314.102 38.0812 313.094C38.0812 311.954 37.8832 311.09 37.4872 310.502C37.1032 309.914 36.5392 309.62 35.7952 309.62ZM45.483 308.666C46.527 308.666 47.319 309.014 47.859 309.71C48.411 310.394 48.687 311.366 48.687 312.626C48.687 314.066 48.339 315.182 47.643 315.974C46.947 316.754 45.975 317.144 44.727 317.144C44.151 317.144 43.563 317.012 42.963 316.748L41.973 317.198L41.721 317.054L41.829 313.544L41.739 304.49L43.161 304.364L43.107 309.89H43.215C43.623 309.554 43.995 309.296 44.331 309.116C44.667 308.936 45.051 308.786 45.483 308.666ZM44.853 316.1C45.621 316.1 46.227 315.83 46.671 315.29C47.115 314.75 47.337 313.952 47.337 312.896C47.337 311.924 47.163 311.174 46.815 310.646C46.479 310.106 45.993 309.836 45.357 309.836C44.985 309.836 44.613 309.938 44.241 310.142C43.881 310.346 43.497 310.664 43.089 311.096L43.071 313.382L43.125 315.524C43.701 315.908 44.277 316.1 44.853 316.1ZM52.7311 308.756L52.6051 313.382L52.6951 316.658C52.6951 317.594 52.5031 318.344 52.1191 318.908C51.7471 319.484 51.1051 320.012 50.1931 320.492L49.6531 319.844V319.682C50.2891 319.31 50.7271 318.908 50.9671 318.476C51.2191 318.044 51.3451 317.462 51.3451 316.73L51.3811 313.508L51.3091 309.728H49.6531L49.5451 309.602L49.6351 308.774H51.3271L52.6771 308.72L52.7311 308.756ZM51.7591 305.066C51.9991 305.066 52.1911 305.138 52.3351 305.282C52.4791 305.426 52.5511 305.624 52.5511 305.876C52.5511 306.14 52.4731 306.35 52.3171 306.506C52.1731 306.662 51.9691 306.74 51.7051 306.74C51.4531 306.74 51.2551 306.668 51.1111 306.524C50.9791 306.38 50.9131 306.176 50.9131 305.912C50.9131 305.66 50.9851 305.456 51.1291 305.3C51.2851 305.144 51.4951 305.066 51.7591 305.066ZM56.3068 312.824V312.86C56.3068 313.868 56.5348 314.642 56.9908 315.182C57.4468 315.722 58.0948 315.992 58.9348 315.992C59.3548 315.992 59.7748 315.926 60.1948 315.794C60.6148 315.65 60.9988 315.452 61.3468 315.2L61.4908 315.308L61.2748 316.532C60.4348 316.94 59.5948 317.144 58.7548 317.144C57.5788 317.144 56.6548 316.772 55.9828 316.028C55.3108 315.272 54.9748 314.24 54.9748 312.932C54.9748 311.612 55.3108 310.562 55.9828 309.782C56.6548 309.002 57.5608 308.612 58.7008 308.612C59.6608 308.612 60.4048 308.888 60.9328 309.44C61.4608 309.98 61.7248 310.736 61.7248 311.708C61.7248 312.032 61.7008 312.338 61.6528 312.626L61.4728 312.806L56.3068 312.824ZM58.7008 309.62C58.1008 309.62 57.5968 309.818 57.1888 310.214C56.7928 310.598 56.5288 311.144 56.3968 311.852L60.3748 311.78L60.4108 311.528C60.4108 310.916 60.2608 310.448 59.9608 310.124C59.6728 309.788 59.2528 309.62 58.7008 309.62ZM66.9256 308.612C67.2976 308.612 67.6816 308.66 68.0776 308.756C68.4856 308.84 68.8396 308.954 69.1396 309.098L68.8876 310.34L68.7256 310.394C68.1016 309.986 67.4836 309.782 66.8716 309.782C66.1636 309.782 65.6116 310.052 65.2156 310.592C64.8196 311.132 64.6216 311.888 64.6216 312.86C64.6216 313.832 64.8256 314.6 65.2336 315.164C65.6536 315.716 66.2296 315.992 66.9616 315.992C67.2856 315.992 67.6216 315.938 67.9696 315.83C68.3296 315.722 68.6656 315.572 68.9776 315.38L69.1396 315.47L68.9776 316.676C68.2456 316.988 67.5136 317.144 66.7816 317.144C65.6896 317.144 64.8316 316.772 64.2076 316.028C63.5836 315.272 63.2716 314.24 63.2716 312.932C63.2716 311.6 63.5956 310.55 64.2436 309.782C64.9036 309.002 65.7976 308.612 66.9256 308.612ZM73.4734 315.902C73.8694 315.902 74.3014 315.782 74.7694 315.542L74.9314 315.65L74.7874 316.586C74.1394 316.886 73.5394 317.06 72.9874 317.108C72.3034 316.976 71.8114 316.724 71.5114 316.352C71.2114 315.98 71.0614 315.44 71.0614 314.732L71.1154 313.454L71.0974 309.728H69.9634L69.8914 309.62L69.9814 308.774H71.0794V307.442L72.3214 306.902L72.4654 307.028L72.4294 308.774H74.8774L74.9494 308.882L74.8594 309.728H72.4294L72.3394 314.606C72.3274 315.086 72.4114 315.422 72.5914 315.614C72.7714 315.806 73.0654 315.902 73.4734 315.902ZM77.035 305.444C77.683 305.684 78.007 306.134 78.007 306.794C78.007 307.538 77.569 308.342 76.693 309.206L76.153 308.828L76.135 308.702C76.639 308.162 76.891 307.658 76.891 307.19C76.891 306.71 76.657 306.38 76.189 306.2V306.056C76.417 305.84 76.699 305.636 77.035 305.444ZM82.2369 308.63C82.9209 308.63 83.5809 308.762 84.2169 309.026L84.0189 310.196L83.8029 310.25C83.2029 309.854 82.6269 309.656 82.0749 309.656C81.6669 309.656 81.3369 309.77 81.0849 309.998C80.8329 310.226 80.7069 310.502 80.7069 310.826C80.7069 311.15 80.8329 311.414 81.0849 311.618C81.3489 311.81 81.7509 312.032 82.2909 312.284C82.7589 312.5 83.1309 312.698 83.4069 312.878C83.6949 313.046 83.9409 313.274 84.1449 313.562C84.3489 313.85 84.4509 314.204 84.4509 314.624C84.4509 315.068 84.3369 315.482 84.1089 315.866C83.8809 316.25 83.5449 316.562 83.1009 316.802C82.6569 317.03 82.1289 317.144 81.5169 317.144C80.6769 317.144 79.8789 316.946 79.1229 316.55L79.3029 315.326L79.4649 315.218C79.8009 315.506 80.1609 315.728 80.5449 315.884C80.9409 316.04 81.3129 316.118 81.6609 316.118C82.1049 316.118 82.4649 315.998 82.7409 315.758C83.0169 315.506 83.1549 315.212 83.1549 314.876C83.1549 314.552 83.0229 314.294 82.7589 314.102C82.5069 313.898 82.1109 313.67 81.5709 313.418C81.1029 313.202 80.7249 313.01 80.4369 312.842C80.1489 312.662 79.9029 312.422 79.6989 312.122C79.4949 311.822 79.3929 311.45 79.3929 311.006C79.3929 310.31 79.6449 309.74 80.1489 309.296C80.6649 308.852 81.3609 308.63 82.2369 308.63ZM93.5257 304.328C94.2217 304.328 94.9957 304.448 95.8477 304.688L95.6677 305.876L95.4877 305.93C95.0917 305.738 94.7257 305.6 94.3897 305.516C94.0537 305.42 93.7117 305.372 93.3637 305.372C92.7157 305.372 92.2357 305.54 91.9237 305.876C91.6237 306.2 91.4737 306.71 91.4737 307.406L91.4557 308.774H95.8837L96.7297 308.666L96.8377 308.72L96.7297 313.418L96.8377 317H95.3977L95.5057 313.526L95.4337 309.728H91.4557L91.4017 313.4L91.4917 317H90.0697L90.1777 313.508L90.1417 309.728H88.8997L88.8277 309.62L88.9177 308.774H90.1237V307.676C90.1237 306.524 90.3937 305.678 90.9337 305.138C91.4857 304.598 92.3497 304.328 93.5257 304.328ZM104.806 311.402C104.818 310.91 104.704 310.526 104.464 310.25C104.224 309.974 103.87 309.836 103.402 309.836C102.646 309.836 101.83 310.262 100.954 311.114V313.382L101.026 317H99.6041L99.6941 313.508L99.6221 308.846L100.972 308.72V309.926H101.08C101.824 309.266 102.586 308.84 103.366 308.648C104.266 308.648 104.95 308.858 105.418 309.278C105.898 309.698 106.132 310.298 106.12 311.078L106.084 313.418L106.156 317H104.716L104.806 311.402ZM111.603 308.612C112.383 308.612 112.995 308.804 113.439 309.188C113.895 309.572 114.123 310.1 114.123 310.772C114.123 310.976 114.087 311.714 114.015 312.986C113.943 314.258 113.907 315.002 113.907 315.218C113.907 315.482 113.949 315.668 114.033 315.776C114.117 315.872 114.261 315.92 114.465 315.92C114.645 315.92 114.849 315.884 115.077 315.812L115.221 315.938L115.077 316.748C114.729 316.952 114.387 317.072 114.051 317.108C113.679 317.072 113.379 316.94 113.151 316.712C112.935 316.484 112.821 316.172 112.809 315.776H112.683C112.035 316.436 111.393 316.886 110.757 317.126C109.953 317.126 109.323 316.928 108.867 316.532C108.423 316.124 108.201 315.572 108.201 314.876C108.201 314.348 108.339 313.928 108.615 313.616C108.903 313.304 109.323 313.082 109.875 312.95L112.791 312.266L112.809 311.096C112.809 310.628 112.683 310.268 112.431 310.016C112.191 309.764 111.843 309.638 111.387 309.638C110.979 309.638 110.571 309.734 110.163 309.926C109.755 310.118 109.317 310.418 108.849 310.826L108.705 310.754L108.525 309.728C109.521 308.984 110.547 308.612 111.603 308.612ZM110.163 313.814C109.923 313.886 109.749 313.988 109.641 314.12C109.533 314.24 109.479 314.426 109.479 314.678C109.479 315.074 109.587 315.386 109.803 315.614C110.031 315.83 110.331 315.938 110.703 315.938C111.363 315.938 112.035 315.512 112.719 314.66L112.773 313.184L110.163 313.814ZM118.604 313.382L118.694 317H117.272L117.38 313.49L117.29 304.49L118.712 304.364L118.604 313.382ZM128.398 308.738C128.542 308.738 128.698 308.75 128.866 308.774V310.16L128.704 310.214C128.5 310.154 128.278 310.124 128.038 310.124C127.642 310.124 127.276 310.286 126.94 310.61C126.616 310.922 126.292 311.426 125.968 312.122L125.95 313.382L126.04 317H124.618L124.708 313.508L124.636 308.846L125.986 308.72L125.968 310.412H126.076C126.412 309.812 126.784 309.386 127.192 309.134C127.6 308.87 128.002 308.738 128.398 308.738ZM131.067 312.824V312.86C131.067 313.868 131.295 314.642 131.751 315.182C132.207 315.722 132.855 315.992 133.695 315.992C134.115 315.992 134.535 315.926 134.955 315.794C135.375 315.65 135.759 315.452 136.107 315.2L136.251 315.308L136.035 316.532C135.195 316.94 134.355 317.144 133.515 317.144C132.339 317.144 131.415 316.772 130.743 316.028C130.071 315.272 129.735 314.24 129.735 312.932C129.735 311.612 130.071 310.562 130.743 309.782C131.415 309.002 132.321 308.612 133.461 308.612C134.421 308.612 135.165 308.888 135.693 309.44C136.221 309.98 136.485 310.736 136.485 311.708C136.485 312.032 136.461 312.338 136.413 312.626L136.233 312.806L131.067 312.824ZM133.461 309.62C132.861 309.62 132.357 309.818 131.949 310.214C131.553 310.598 131.289 311.144 131.157 311.852L135.135 311.78L135.171 311.528C135.171 310.916 135.021 310.448 134.721 310.124C134.433 309.788 134.013 309.62 133.461 309.62ZM140.965 308.63C141.649 308.63 142.309 308.762 142.945 309.026L142.747 310.196L142.531 310.25C141.931 309.854 141.355 309.656 140.803 309.656C140.395 309.656 140.065 309.77 139.813 309.998C139.561 310.226 139.435 310.502 139.435 310.826C139.435 311.15 139.561 311.414 139.813 311.618C140.077 311.81 140.479 312.032 141.019 312.284C141.487 312.5 141.859 312.698 142.135 312.878C142.423 313.046 142.669 313.274 142.873 313.562C143.077 313.85 143.179 314.204 143.179 314.624C143.179 315.068 143.065 315.482 142.837 315.866C142.609 316.25 142.273 316.562 141.829 316.802C141.385 317.03 140.857 317.144 140.245 317.144C139.405 317.144 138.607 316.946 137.851 316.55L138.031 315.326L138.193 315.218C138.529 315.506 138.889 315.728 139.273 315.884C139.669 316.04 140.041 316.118 140.389 316.118C140.833 316.118 141.193 315.998 141.469 315.758C141.745 315.506 141.883 315.212 141.883 314.876C141.883 314.552 141.751 314.294 141.487 314.102C141.235 313.898 140.839 313.67 140.299 313.418C139.831 313.202 139.453 313.01 139.165 312.842C138.877 312.662 138.631 312.422 138.427 312.122C138.223 311.822 138.121 311.45 138.121 311.006C138.121 310.31 138.373 309.74 138.877 309.296C139.393 308.852 140.089 308.63 140.965 308.63ZM147.97 315.902C148.366 315.902 148.798 315.782 149.266 315.542L149.428 315.65L149.284 316.586C148.636 316.886 148.036 317.06 147.484 317.108C146.8 316.976 146.308 316.724 146.008 316.352C145.708 315.98 145.558 315.44 145.558 314.732L145.612 313.454L145.594 309.728H144.46L144.388 309.62L144.478 308.774H145.576V307.442L146.818 306.902L146.962 307.028L146.926 308.774H149.374L149.446 308.882L149.356 309.728H146.926L146.836 314.606C146.824 315.086 146.908 315.422 147.088 315.614C147.268 315.806 147.562 315.902 147.97 315.902ZM151.216 313.508L151.162 308.846L152.548 308.72L152.512 313.382L152.548 317H151.144L151.216 313.508ZM151.882 305.066C152.122 305.066 152.314 305.138 152.458 305.282C152.602 305.426 152.674 305.624 152.674 305.876C152.674 306.14 152.596 306.35 152.44 306.506C152.296 306.662 152.092 306.74 151.828 306.74C151.576 306.74 151.378 306.668 151.234 306.524C151.102 306.38 151.036 306.176 151.036 305.912C151.036 305.66 151.108 305.456 151.252 305.3C151.408 305.144 151.618 305.066 151.882 305.066ZM160.687 311.402C160.699 310.91 160.585 310.526 160.345 310.25C160.105 309.974 159.751 309.836 159.283 309.836C158.527 309.836 157.711 310.262 156.835 311.114V313.382L156.907 317H155.485L155.575 313.508L155.503 308.846L156.853 308.72V309.926H156.961C157.705 309.266 158.467 308.84 159.247 308.648C160.147 308.648 160.831 308.858 161.299 309.278C161.779 309.698 162.013 310.298 162.001 311.078L161.965 313.418L162.037 317H160.597L160.687 311.402ZM172.056 309.458C171.684 309.566 171.132 309.692 170.4 309.836L170.364 309.908C170.628 310.328 170.76 310.838 170.76 311.438C170.76 312.314 170.466 313.01 169.878 313.526C169.302 314.042 168.516 314.3 167.52 314.3C167.124 314.3 166.752 314.252 166.404 314.156C166.2 314.312 166.062 314.438 165.99 314.534C165.918 314.63 165.882 314.738 165.882 314.858C165.882 315.11 166.038 315.29 166.35 315.398C166.662 315.494 167.172 315.596 167.88 315.704C168.576 315.8 169.146 315.908 169.59 316.028C170.034 316.148 170.418 316.346 170.742 316.622C171.066 316.886 171.228 317.258 171.228 317.738C171.228 318.242 171.054 318.704 170.706 319.124C170.37 319.544 169.902 319.874 169.302 320.114C168.714 320.354 168.066 320.474 167.358 320.474C166.398 320.474 165.648 320.252 165.108 319.808C164.58 319.376 164.316 318.812 164.316 318.116C164.604 317.54 165.132 317.018 165.9 316.55V316.46C165.468 316.328 165.132 316.154 164.892 315.938C164.664 315.71 164.55 315.404 164.55 315.02C164.802 314.6 165.168 314.234 165.648 313.922V313.85C165.264 313.61 164.97 313.298 164.766 312.914C164.574 312.518 164.478 312.062 164.478 311.546C164.478 310.646 164.766 309.944 165.342 309.44C165.93 308.924 166.71 308.666 167.682 308.666C168.318 308.666 168.858 308.774 169.302 308.99C170.13 308.834 171 308.63 171.912 308.378L172.056 308.486V309.458ZM167.592 313.328C168.192 313.328 168.654 313.16 168.978 312.824C169.314 312.488 169.482 312.02 169.482 311.42C169.482 310.844 169.326 310.4 169.014 310.088C168.702 309.776 168.252 309.62 167.664 309.62C167.064 309.62 166.596 309.782 166.26 310.106C165.924 310.43 165.756 310.892 165.756 311.492C165.756 312.068 165.912 312.518 166.224 312.842C166.548 313.166 167.004 313.328 167.592 313.328ZM169.968 318.008C169.968 317.612 169.764 317.336 169.356 317.18C168.96 317.024 168.354 316.886 167.538 316.766L166.962 316.676C166.506 316.952 166.158 317.216 165.918 317.468C165.69 317.72 165.576 317.984 165.576 318.26C165.576 318.608 165.744 318.896 166.08 319.124C166.428 319.352 166.908 319.466 167.52 319.466C168.216 319.466 168.798 319.322 169.266 319.034C169.734 318.758 169.968 318.416 169.968 318.008ZM180.252 308.666C181.284 308.666 182.076 309.008 182.628 309.692C183.18 310.376 183.456 311.354 183.456 312.626C183.456 314.066 183.108 315.182 182.412 315.974C181.716 316.754 180.726 317.144 179.442 317.144C178.938 317.144 178.416 317.09 177.876 316.982L177.912 320.33H176.508L176.598 313.508L176.508 308.846L177.876 308.72L177.858 309.89H177.984C178.404 309.542 178.782 309.278 179.118 309.098C179.454 308.918 179.832 308.774 180.252 308.666ZM179.622 316.1C180.414 316.1 181.026 315.824 181.458 315.272C181.89 314.72 182.106 313.934 182.106 312.914C182.106 311.918 181.932 311.156 181.584 310.628C181.248 310.1 180.762 309.836 180.126 309.836C179.754 309.836 179.382 309.938 179.01 310.142C178.65 310.346 178.266 310.664 177.858 311.096L177.84 313.382L177.858 315.632C178.446 315.944 179.034 316.1 179.622 316.1ZM188.745 308.612C189.861 308.612 190.725 308.978 191.337 309.71C191.961 310.43 192.273 311.45 192.273 312.77C192.273 314.162 191.949 315.242 191.301 316.01C190.653 316.766 189.729 317.144 188.529 317.144C187.401 317.144 186.525 316.784 185.901 316.064C185.289 315.332 184.983 314.306 184.983 312.986C184.983 311.594 185.307 310.52 185.955 309.764C186.615 308.996 187.545 308.612 188.745 308.612ZM188.655 309.62C187.899 309.62 187.323 309.878 186.927 310.394C186.531 310.91 186.333 311.666 186.333 312.662C186.333 313.814 186.525 314.678 186.909 315.254C187.305 315.83 187.875 316.118 188.619 316.118C189.375 316.118 189.951 315.866 190.347 315.362C190.743 314.858 190.941 314.102 190.941 313.094C190.941 311.954 190.743 311.09 190.347 310.502C189.963 309.914 189.399 309.62 188.655 309.62ZM196.758 308.63C197.442 308.63 198.102 308.762 198.738 309.026L198.54 310.196L198.324 310.25C197.724 309.854 197.148 309.656 196.596 309.656C196.188 309.656 195.858 309.77 195.606 309.998C195.354 310.226 195.228 310.502 195.228 310.826C195.228 311.15 195.354 311.414 195.606 311.618C195.87 311.81 196.272 312.032 196.812 312.284C197.28 312.5 197.652 312.698 197.928 312.878C198.216 313.046 198.462 313.274 198.666 313.562C198.87 313.85 198.972 314.204 198.972 314.624C198.972 315.068 198.858 315.482 198.63 315.866C198.402 316.25 198.066 316.562 197.622 316.802C197.178 317.03 196.65 317.144 196.038 317.144C195.198 317.144 194.4 316.946 193.644 316.55L193.824 315.326L193.986 315.218C194.322 315.506 194.682 315.728 195.066 315.884C195.462 316.04 195.834 316.118 196.182 316.118C196.626 316.118 196.986 315.998 197.262 315.758C197.538 315.506 197.676 315.212 197.676 314.876C197.676 314.552 197.544 314.294 197.28 314.102C197.028 313.898 196.632 313.67 196.092 313.418C195.624 313.202 195.246 313.01 194.958 312.842C194.67 312.662 194.424 312.422 194.22 312.122C194.016 311.822 193.914 311.45 193.914 311.006C193.914 310.31 194.166 309.74 194.67 309.296C195.186 308.852 195.882 308.63 196.758 308.63ZM201.26 313.508L201.206 308.846L202.592 308.72L202.556 313.382L202.592 317H201.188L201.26 313.508ZM201.926 305.066C202.166 305.066 202.358 305.138 202.502 305.282C202.646 305.426 202.718 305.624 202.718 305.876C202.718 306.14 202.64 306.35 202.484 306.506C202.34 306.662 202.136 306.74 201.872 306.74C201.62 306.74 201.422 306.668 201.278 306.524C201.146 306.38 201.08 306.176 201.08 305.912C201.08 305.66 201.152 305.456 201.296 305.3C201.452 305.144 201.662 305.066 201.926 305.066ZM208.122 315.902C208.518 315.902 208.95 315.782 209.418 315.542L209.58 315.65L209.436 316.586C208.788 316.886 208.188 317.06 207.636 317.108C206.952 316.976 206.46 316.724 206.16 316.352C205.86 315.98 205.71 315.44 205.71 314.732L205.764 313.454L205.746 309.728H204.612L204.54 309.62L204.63 308.774H205.728V307.442L206.97 306.902L207.114 307.028L207.078 308.774H209.526L209.598 308.882L209.508 309.728H207.078L206.988 314.606C206.976 315.086 207.06 315.422 207.24 315.614C207.42 315.806 207.714 315.902 208.122 315.902ZM211.368 313.508L211.314 308.846L212.7 308.72L212.664 313.382L212.7 317H211.296L211.368 313.508ZM212.034 305.066C212.274 305.066 212.466 305.138 212.61 305.282C212.754 305.426 212.826 305.624 212.826 305.876C212.826 306.14 212.748 306.35 212.592 306.506C212.448 306.662 212.244 306.74 211.98 306.74C211.728 306.74 211.53 306.668 211.386 306.524C211.254 306.38 211.188 306.176 211.188 305.912C211.188 305.66 211.26 305.456 211.404 305.3C211.56 305.144 211.77 305.066 212.034 305.066ZM218.715 308.612C219.831 308.612 220.695 308.978 221.307 309.71C221.931 310.43 222.243 311.45 222.243 312.77C222.243 314.162 221.919 315.242 221.271 316.01C220.623 316.766 219.699 317.144 218.499 317.144C217.371 317.144 216.495 316.784 215.871 316.064C215.259 315.332 214.953 314.306 214.953 312.986C214.953 311.594 215.277 310.52 215.925 309.764C216.585 308.996 217.515 308.612 218.715 308.612ZM218.625 309.62C217.869 309.62 217.293 309.878 216.897 310.394C216.501 310.91 216.303 311.666 216.303 312.662C216.303 313.814 216.495 314.678 216.879 315.254C217.275 315.83 217.845 316.118 218.589 316.118C219.345 316.118 219.921 315.866 220.317 315.362C220.713 314.858 220.911 314.102 220.911 313.094C220.911 311.954 220.713 311.09 220.317 310.502C219.933 309.914 219.369 309.62 218.625 309.62ZM229.505 311.402C229.517 310.91 229.403 310.526 229.163 310.25C228.923 309.974 228.569 309.836 228.101 309.836C227.345 309.836 226.529 310.262 225.653 311.114V313.382L225.725 317H224.303L224.393 313.508L224.321 308.846L225.671 308.72V309.926H225.779C226.523 309.266 227.285 308.84 228.065 308.648C228.965 308.648 229.649 308.858 230.117 309.278C230.597 309.698 230.831 310.298 230.819 311.078L230.783 313.418L230.855 317H229.415L229.505 311.402ZM234.431 315.434C234.935 315.746 235.187 316.148 235.187 316.64C235.187 317.42 234.623 318.224 233.495 319.052L233.009 318.602V318.476C233.669 317.96 233.999 317.432 233.999 316.892C233.999 316.568 233.813 316.286 233.441 316.046V315.902C233.777 315.674 234.107 315.518 234.431 315.434ZM7.088 337.824V337.86C7.088 338.868 7.316 339.642 7.772 340.182C8.228 340.722 8.876 340.992 9.716 340.992C10.136 340.992 10.556 340.926 10.976 340.794C11.396 340.65 11.78 340.452 12.128 340.2L12.272 340.308L12.056 341.532C11.216 341.94 10.376 342.144 9.536 342.144C8.36 342.144 7.436 341.772 6.764 341.028C6.092 340.272 5.756 339.24 5.756 337.932C5.756 336.612 6.092 335.562 6.764 334.782C7.436 334.002 8.342 333.612 9.482 333.612C10.442 333.612 11.186 333.888 11.714 334.44C12.242 334.98 12.506 335.736 12.506 336.708C12.506 337.032 12.482 337.338 12.434 337.626L12.254 337.806L7.088 337.824ZM9.482 334.62C8.882 334.62 8.378 334.818 7.97 335.214C7.574 335.598 7.31 336.144 7.178 336.852L11.156 336.78L11.192 336.528C11.192 335.916 11.042 335.448 10.742 335.124C10.454 334.788 10.034 334.62 9.482 334.62ZM16.9869 333.63C17.6709 333.63 18.3309 333.762 18.9669 334.026L18.7689 335.196L18.5529 335.25C17.9529 334.854 17.3769 334.656 16.8249 334.656C16.4169 334.656 16.0869 334.77 15.8349 334.998C15.5829 335.226 15.4569 335.502 15.4569 335.826C15.4569 336.15 15.5829 336.414 15.8349 336.618C16.0989 336.81 16.5009 337.032 17.0409 337.284C17.5089 337.5 17.8809 337.698 18.1569 337.878C18.4449 338.046 18.6909 338.274 18.8949 338.562C19.0989 338.85 19.2009 339.204 19.2009 339.624C19.2009 340.068 19.0869 340.482 18.8589 340.866C18.6309 341.25 18.2949 341.562 17.8509 341.802C17.4069 342.03 16.8789 342.144 16.2669 342.144C15.4269 342.144 14.6289 341.946 13.8729 341.55L14.0529 340.326L14.2149 340.218C14.5509 340.506 14.9109 340.728 15.2949 340.884C15.6909 341.04 16.0629 341.118 16.4109 341.118C16.8549 341.118 17.2149 340.998 17.4909 340.758C17.7669 340.506 17.9049 340.212 17.9049 339.876C17.9049 339.552 17.7729 339.294 17.5089 339.102C17.2569 338.898 16.8609 338.67 16.3209 338.418C15.8529 338.202 15.4749 338.01 15.1869 337.842C14.8989 337.662 14.6529 337.422 14.4489 337.122C14.2449 336.822 14.1429 336.45 14.1429 336.006C14.1429 335.31 14.3949 334.74 14.8989 334.296C15.4149 333.852 16.1109 333.63 16.9869 333.63ZM25.143 333.666C26.175 333.666 26.967 334.008 27.519 334.692C28.071 335.376 28.347 336.354 28.347 337.626C28.347 339.066 27.999 340.182 27.303 340.974C26.607 341.754 25.617 342.144 24.333 342.144C23.829 342.144 23.307 342.09 22.767 341.982L22.803 345.33H21.399L21.489 338.508L21.399 333.846L22.767 333.72L22.749 334.89H22.875C23.295 334.542 23.673 334.278 24.009 334.098C24.345 333.918 24.723 333.774 25.143 333.666ZM24.513 341.1C25.305 341.1 25.917 340.824 26.349 340.272C26.781 339.72 26.997 338.934 26.997 337.914C26.997 336.918 26.823 336.156 26.475 335.628C26.139 335.1 25.653 334.836 25.017 334.836C24.645 334.836 24.273 334.938 23.901 335.142C23.541 335.346 23.157 335.664 22.749 336.096L22.731 338.382L22.749 340.632C23.337 340.944 23.925 341.1 24.513 341.1ZM31.2052 337.824V337.86C31.2052 338.868 31.4332 339.642 31.8892 340.182C32.3452 340.722 32.9932 340.992 33.8332 340.992C34.2532 340.992 34.6732 340.926 35.0932 340.794C35.5132 340.65 35.8972 340.452 36.2452 340.2L36.3892 340.308L36.1732 341.532C35.3332 341.94 34.4932 342.144 33.6532 342.144C32.4772 342.144 31.5532 341.772 30.8812 341.028C30.2092 340.272 29.8732 339.24 29.8732 337.932C29.8732 336.612 30.2092 335.562 30.8812 334.782C31.5532 334.002 32.4592 333.612 33.5992 333.612C34.5592 333.612 35.3032 333.888 35.8312 334.44C36.3592 334.98 36.6232 335.736 36.6232 336.708C36.6232 337.032 36.5992 337.338 36.5512 337.626L36.3712 337.806L31.2052 337.824ZM33.5992 334.62C32.9992 334.62 32.4952 334.818 32.0872 335.214C31.6912 335.598 31.4272 336.144 31.2952 336.852L35.2732 336.78L35.3092 336.528C35.3092 335.916 35.1592 335.448 34.8592 335.124C34.5712 334.788 34.1512 334.62 33.5992 334.62ZM41.8241 333.612C42.1961 333.612 42.5801 333.66 42.9761 333.756C43.3841 333.84 43.7381 333.954 44.0381 334.098L43.7861 335.34L43.6241 335.394C43.0001 334.986 42.3821 334.782 41.7701 334.782C41.0621 334.782 40.5101 335.052 40.1141 335.592C39.7181 336.132 39.5201 336.888 39.5201 337.86C39.5201 338.832 39.7241 339.6 40.1321 340.164C40.5521 340.716 41.1281 340.992 41.8601 340.992C42.1841 340.992 42.5201 340.938 42.8681 340.83C43.2281 340.722 43.5641 340.572 43.8761 340.38L44.0381 340.47L43.8761 341.676C43.1441 341.988 42.4121 342.144 41.6801 342.144C40.5881 342.144 39.7301 341.772 39.1061 341.028C38.4821 340.272 38.1701 339.24 38.1701 337.932C38.1701 336.6 38.4941 335.55 39.1421 334.782C39.8021 334.002 40.6961 333.612 41.8241 333.612ZM45.8698 338.508L45.8158 333.846L47.2018 333.72L47.1658 338.382L47.2018 342H45.7978L45.8698 338.508ZM46.5358 330.066C46.7758 330.066 46.9678 330.138 47.1118 330.282C47.2558 330.426 47.3278 330.624 47.3278 330.876C47.3278 331.14 47.2498 331.35 47.0938 331.506C46.9498 331.662 46.7458 331.74 46.4818 331.74C46.2298 331.74 46.0318 331.668 45.8878 331.524C45.7558 331.38 45.6898 331.176 45.6898 330.912C45.6898 330.66 45.7618 330.456 45.9058 330.3C46.0618 330.144 46.2718 330.066 46.5358 330.066ZM52.8572 333.612C53.6372 333.612 54.2492 333.804 54.6932 334.188C55.1492 334.572 55.3772 335.1 55.3772 335.772C55.3772 335.976 55.3412 336.714 55.2692 337.986C55.1972 339.258 55.1612 340.002 55.1612 340.218C55.1612 340.482 55.2032 340.668 55.2872 340.776C55.3712 340.872 55.5152 340.92 55.7192 340.92C55.8992 340.92 56.1032 340.884 56.3312 340.812L56.4752 340.938L56.3312 341.748C55.9832 341.952 55.6412 342.072 55.3052 342.108C54.9332 342.072 54.6332 341.94 54.4052 341.712C54.1892 341.484 54.0752 341.172 54.0632 340.776H53.9372C53.2892 341.436 52.6472 341.886 52.0112 342.126C51.2072 342.126 50.5772 341.928 50.1212 341.532C49.6772 341.124 49.4552 340.572 49.4552 339.876C49.4552 339.348 49.5932 338.928 49.8692 338.616C50.1572 338.304 50.5772 338.082 51.1292 337.95L54.0452 337.266L54.0632 336.096C54.0632 335.628 53.9372 335.268 53.6852 335.016C53.4452 334.764 53.0972 334.638 52.6412 334.638C52.2332 334.638 51.8252 334.734 51.4172 334.926C51.0092 335.118 50.5712 335.418 50.1032 335.826L49.9592 335.754L49.7792 334.728C50.7752 333.984 51.8012 333.612 52.8572 333.612ZM51.4172 338.814C51.1772 338.886 51.0032 338.988 50.8952 339.12C50.7872 339.24 50.7332 339.426 50.7332 339.678C50.7332 340.074 50.8412 340.386 51.0572 340.614C51.2852 340.83 51.5852 340.938 51.9572 340.938C52.6172 340.938 53.2892 340.512 53.9732 339.66L54.0272 338.184L51.4172 338.814ZM59.8577 338.382L59.9477 342H58.5257L58.6337 338.49L58.5437 329.49L59.9657 329.364L59.8577 338.382ZM64.3049 338.382L64.3949 342H62.9729L63.0809 338.49L62.9909 329.49L64.4129 329.364L64.3049 338.382ZM67.6726 334.764L69.6526 340.452H69.7786L71.8306 334.89L72.1006 333.756H73.3786L70.4266 341.712C70.1266 342.528 69.8026 343.17 69.4546 343.638C69.1186 344.106 68.7046 344.472 68.2126 344.736C67.7326 345.012 67.0966 345.246 66.3046 345.438H66.1786C65.9266 345.186 65.7286 344.904 65.5846 344.592L65.6206 344.43C66.5326 344.25 67.2286 343.992 67.7086 343.656C68.2006 343.332 68.6566 342.78 69.0766 342L66.0526 333.792L67.4026 333.702L67.6726 334.764ZM78.415 334.764L79.927 340.452H80.035L81.781 334.836L82.051 333.756H83.455L83.653 334.764L85.165 340.452H85.273L87.019 334.836L87.289 333.756H88.531L85.813 342H84.463L82.735 335.61H82.609L80.611 342H79.207L76.903 333.792L78.217 333.702L78.415 334.764ZM95.3859 336.402C95.3979 335.91 95.2839 335.526 95.0439 335.25C94.8039 334.974 94.4499 334.836 93.9819 334.836C93.1899 334.836 92.3799 335.262 91.5519 336.114L91.5159 338.382L91.6059 342H90.1839L90.2919 338.49L90.2019 329.49L91.6239 329.364L91.5519 334.926H91.6599C92.4039 334.266 93.1659 333.84 93.9459 333.648C94.8579 333.648 95.5479 333.858 96.0159 334.278C96.4839 334.698 96.7119 335.298 96.6999 336.078L96.6639 338.418L96.7359 342H95.2959L95.3859 336.402ZM100.111 337.824V337.86C100.111 338.868 100.339 339.642 100.795 340.182C101.251 340.722 101.899 340.992 102.739 340.992C103.159 340.992 103.579 340.926 103.999 340.794C104.419 340.65 104.803 340.452 105.151 340.2L105.295 340.308L105.079 341.532C104.239 341.94 103.399 342.144 102.559 342.144C101.383 342.144 100.459 341.772 99.7874 341.028C99.1154 340.272 98.7794 339.24 98.7794 337.932C98.7794 336.612 99.1154 335.562 99.7874 334.782C100.459 334.002 101.365 333.612 102.505 333.612C103.465 333.612 104.209 333.888 104.737 334.44C105.265 334.98 105.529 335.736 105.529 336.708C105.529 337.032 105.505 337.338 105.457 337.626L105.277 337.806L100.111 337.824ZM102.505 334.62C101.905 334.62 101.401 334.818 100.993 335.214C100.597 335.598 100.333 336.144 100.201 336.852L104.179 336.78L104.215 336.528C104.215 335.916 104.065 335.448 103.765 335.124C103.477 334.788 103.057 334.62 102.505 334.62ZM112.962 336.402C112.974 335.91 112.86 335.526 112.62 335.25C112.38 334.974 112.026 334.836 111.558 334.836C110.802 334.836 109.986 335.262 109.11 336.114V338.382L109.182 342H107.76L107.85 338.508L107.778 333.846L109.128 333.72V334.926H109.236C109.98 334.266 110.742 333.84 111.522 333.648C112.422 333.648 113.106 333.858 113.574 334.278C114.054 334.698 114.288 335.298 114.276 336.078L114.24 338.418L114.312 342H112.872L112.962 336.402ZM117.132 338.508L117.078 333.846L118.464 333.72L118.428 338.382L118.464 342H117.06L117.132 338.508ZM117.798 330.066C118.038 330.066 118.23 330.138 118.374 330.282C118.518 330.426 118.59 330.624 118.59 330.876C118.59 331.14 118.512 331.35 118.356 331.506C118.212 331.662 118.008 331.74 117.744 331.74C117.492 331.74 117.294 331.668 117.15 331.524C117.018 331.38 116.952 331.176 116.952 330.912C116.952 330.66 117.024 330.456 117.168 330.3C117.324 330.144 117.534 330.066 117.798 330.066ZM123.993 340.902C124.389 340.902 124.821 340.782 125.289 340.542L125.451 340.65L125.307 341.586C124.659 341.886 124.059 342.06 123.507 342.108C122.823 341.976 122.331 341.724 122.031 341.352C121.731 340.98 121.581 340.44 121.581 339.732L121.635 338.454L121.617 334.728H120.483L120.411 334.62L120.501 333.774H121.599V332.442L122.841 331.902L122.985 332.028L122.949 333.774H125.397L125.469 333.882L125.379 334.728H122.949L122.859 339.606C122.847 340.086 122.931 340.422 123.111 340.614C123.291 340.806 123.585 340.902 123.993 340.902ZM130.21 338.508L130.156 333.846L131.542 333.72L131.506 338.382L131.542 342H130.138L130.21 338.508ZM130.876 330.066C131.116 330.066 131.308 330.138 131.452 330.282C131.596 330.426 131.668 330.624 131.668 330.876C131.668 331.14 131.59 331.35 131.434 331.506C131.29 331.662 131.086 331.74 130.822 331.74C130.57 331.74 130.372 331.668 130.228 331.524C130.096 331.38 130.03 331.176 130.03 330.912C130.03 330.66 130.102 330.456 130.246 330.3C130.402 330.144 130.612 330.066 130.876 330.066ZM136.729 333.63C137.413 333.63 138.073 333.762 138.709 334.026L138.511 335.196L138.295 335.25C137.695 334.854 137.119 334.656 136.567 334.656C136.159 334.656 135.829 334.77 135.577 334.998C135.325 335.226 135.199 335.502 135.199 335.826C135.199 336.15 135.325 336.414 135.577 336.618C135.841 336.81 136.243 337.032 136.783 337.284C137.251 337.5 137.623 337.698 137.899 337.878C138.187 338.046 138.433 338.274 138.637 338.562C138.841 338.85 138.943 339.204 138.943 339.624C138.943 340.068 138.829 340.482 138.601 340.866C138.373 341.25 138.037 341.562 137.593 341.802C137.149 342.03 136.621 342.144 136.009 342.144C135.169 342.144 134.371 341.946 133.615 341.55L133.795 340.326L133.957 340.218C134.293 340.506 134.653 340.728 135.037 340.884C135.433 341.04 135.805 341.118 136.153 341.118C136.597 341.118 136.957 340.998 137.233 340.758C137.509 340.506 137.647 340.212 137.647 339.876C137.647 339.552 137.515 339.294 137.251 339.102C136.999 338.898 136.603 338.67 136.063 338.418C135.595 338.202 135.217 338.01 134.929 337.842C134.641 337.662 134.395 337.422 134.191 337.122C133.987 336.822 133.885 336.45 133.885 336.006C133.885 335.31 134.137 334.74 134.641 334.296C135.157 333.852 135.853 333.63 136.729 333.63ZM146.83 333.612C147.61 333.612 148.222 333.804 148.666 334.188C149.122 334.572 149.35 335.1 149.35 335.772C149.35 335.976 149.314 336.714 149.242 337.986C149.17 339.258 149.134 340.002 149.134 340.218C149.134 340.482 149.176 340.668 149.26 340.776C149.344 340.872 149.488 340.92 149.692 340.92C149.872 340.92 150.076 340.884 150.304 340.812L150.448 340.938L150.304 341.748C149.956 341.952 149.614 342.072 149.278 342.108C148.906 342.072 148.606 341.94 148.378 341.712C148.162 341.484 148.048 341.172 148.036 340.776H147.91C147.262 341.436 146.62 341.886 145.984 342.126C145.18 342.126 144.55 341.928 144.094 341.532C143.65 341.124 143.428 340.572 143.428 339.876C143.428 339.348 143.566 338.928 143.842 338.616C144.13 338.304 144.55 338.082 145.102 337.95L148.018 337.266L148.036 336.096C148.036 335.628 147.91 335.268 147.658 335.016C147.418 334.764 147.07 334.638 146.614 334.638C146.206 334.638 145.798 334.734 145.39 334.926C144.982 335.118 144.544 335.418 144.076 335.826L143.932 335.754L143.752 334.728C144.748 333.984 145.774 333.612 146.83 333.612ZM145.39 338.814C145.15 338.886 144.976 338.988 144.868 339.12C144.76 339.24 144.706 339.426 144.706 339.678C144.706 340.074 144.814 340.386 145.03 340.614C145.258 340.83 145.558 340.938 145.93 340.938C146.59 340.938 147.262 340.512 147.946 339.66L148 338.184L145.39 338.814ZM157.453 336.402C157.465 335.91 157.351 335.526 157.111 335.25C156.871 334.974 156.517 334.836 156.049 334.836C155.293 334.836 154.477 335.262 153.601 336.114V338.382L153.673 342H152.251L152.341 338.508L152.269 333.846L153.619 333.72V334.926H153.727C154.471 334.266 155.233 333.84 156.013 333.648C156.913 333.648 157.597 333.858 158.065 334.278C158.545 334.698 158.779 335.298 158.767 336.078L158.731 338.418L158.803 342H157.363L157.453 336.402ZM167.581 333.612C168.697 333.612 169.561 333.978 170.173 334.71C170.797 335.43 171.109 336.45 171.109 337.77C171.109 339.162 170.785 340.242 170.137 341.01C169.489 341.766 168.565 342.144 167.365 342.144C166.237 342.144 165.361 341.784 164.737 341.064C164.125 340.332 163.819 339.306 163.819 337.986C163.819 336.594 164.143 335.52 164.791 334.764C165.451 333.996 166.381 333.612 167.581 333.612ZM167.491 334.62C166.735 334.62 166.159 334.878 165.763 335.394C165.367 335.91 165.169 336.666 165.169 337.662C165.169 338.814 165.361 339.678 165.745 340.254C166.141 340.83 166.711 341.118 167.455 341.118C168.211 341.118 168.787 340.866 169.183 340.362C169.579 339.858 169.777 339.102 169.777 338.094C169.777 336.954 169.579 336.09 169.183 335.502C168.799 334.914 168.235 334.62 167.491 334.62ZM178.371 336.402C178.383 335.91 178.269 335.526 178.029 335.25C177.789 334.974 177.435 334.836 176.967 334.836C176.211 334.836 175.395 335.262 174.519 336.114V338.382L174.591 342H173.169L173.259 338.508L173.187 333.846L174.537 333.72V334.926H174.645C175.389 334.266 176.151 333.84 176.931 333.648C177.831 333.648 178.515 333.858 178.983 334.278C179.463 334.698 179.697 335.298 179.685 336.078L179.649 338.418L179.721 342H178.281L178.371 336.402ZM186.014 336.726V337.626L181.676 338.256L181.532 338.112V337.212L185.888 336.6L186.014 336.726ZM190.219 333.63C190.903 333.63 191.563 333.762 192.199 334.026L192.001 335.196L191.785 335.25C191.185 334.854 190.609 334.656 190.057 334.656C189.649 334.656 189.319 334.77 189.067 334.998C188.815 335.226 188.689 335.502 188.689 335.826C188.689 336.15 188.815 336.414 189.067 336.618C189.331 336.81 189.733 337.032 190.273 337.284C190.741 337.5 191.113 337.698 191.389 337.878C191.677 338.046 191.923 338.274 192.127 338.562C192.331 338.85 192.433 339.204 192.433 339.624C192.433 340.068 192.319 340.482 192.091 340.866C191.863 341.25 191.527 341.562 191.083 341.802C190.639 342.03 190.111 342.144 189.499 342.144C188.659 342.144 187.861 341.946 187.105 341.55L187.285 340.326L187.447 340.218C187.783 340.506 188.143 340.728 188.527 340.884C188.923 341.04 189.295 341.118 189.643 341.118C190.087 341.118 190.447 340.998 190.723 340.758C190.999 340.506 191.137 340.212 191.137 339.876C191.137 339.552 191.005 339.294 190.741 339.102C190.489 338.898 190.093 338.67 189.553 338.418C189.085 338.202 188.707 338.01 188.419 337.842C188.131 337.662 187.885 337.422 187.681 337.122C187.477 336.822 187.375 336.45 187.375 336.006C187.375 335.31 187.627 334.74 188.131 334.296C188.647 333.852 189.343 333.63 190.219 333.63ZM197.601 333.612C197.973 333.612 198.357 333.66 198.753 333.756C199.161 333.84 199.515 333.954 199.815 334.098L199.563 335.34L199.401 335.394C198.777 334.986 198.159 334.782 197.547 334.782C196.839 334.782 196.287 335.052 195.891 335.592C195.495 336.132 195.297 336.888 195.297 337.86C195.297 338.832 195.501 339.6 195.909 340.164C196.329 340.716 196.905 340.992 197.637 340.992C197.961 340.992 198.297 340.938 198.645 340.83C199.005 340.722 199.341 340.572 199.653 340.38L199.815 340.47L199.653 341.676C198.921 341.988 198.189 342.144 197.457 342.144C196.365 342.144 195.507 341.772 194.883 341.028C194.259 340.272 193.947 339.24 193.947 337.932C193.947 336.6 194.271 335.55 194.919 334.782C195.579 334.002 196.473 333.612 197.601 333.612ZM205.179 333.738C205.323 333.738 205.479 333.75 205.647 333.774V335.16L205.485 335.214C205.281 335.154 205.059 335.124 204.819 335.124C204.423 335.124 204.057 335.286 203.721 335.61C203.397 335.922 203.073 336.426 202.749 337.122L202.731 338.382L202.821 342H201.399L201.489 338.508L201.417 333.846L202.767 333.72L202.749 335.412H202.857C203.193 334.812 203.565 334.386 203.973 334.134C204.381 333.87 204.783 333.738 205.179 333.738ZM207.848 337.824V337.86C207.848 338.868 208.076 339.642 208.532 340.182C208.988 340.722 209.636 340.992 210.476 340.992C210.896 340.992 211.316 340.926 211.736 340.794C212.156 340.65 212.54 340.452 212.888 340.2L213.032 340.308L212.816 341.532C211.976 341.94 211.136 342.144 210.296 342.144C209.12 342.144 208.196 341.772 207.524 341.028C206.852 340.272 206.516 339.24 206.516 337.932C206.516 336.612 206.852 335.562 207.524 334.782C208.196 334.002 209.102 333.612 210.242 333.612C211.202 333.612 211.946 333.888 212.474 334.44C213.002 334.98 213.266 335.736 213.266 336.708C213.266 337.032 213.242 337.338 213.194 337.626L213.014 337.806L207.848 337.824ZM210.242 334.62C209.642 334.62 209.138 334.818 208.73 335.214C208.334 335.598 208.07 336.144 207.938 336.852L211.916 336.78L211.952 336.528C211.952 335.916 211.802 335.448 211.502 335.124C211.214 334.788 210.794 334.62 210.242 334.62ZM216.145 337.824V337.86C216.145 338.868 216.373 339.642 216.829 340.182C217.285 340.722 217.933 340.992 218.773 340.992C219.193 340.992 219.613 340.926 220.033 340.794C220.453 340.65 220.837 340.452 221.185 340.2L221.329 340.308L221.113 341.532C220.273 341.94 219.433 342.144 218.593 342.144C217.417 342.144 216.493 341.772 215.821 341.028C215.149 340.272 214.813 339.24 214.813 337.932C214.813 336.612 215.149 335.562 215.821 334.782C216.493 334.002 217.399 333.612 218.539 333.612C219.499 333.612 220.243 333.888 220.771 334.44C221.299 334.98 221.563 335.736 221.563 336.708C221.563 337.032 221.539 337.338 221.491 337.626L221.311 337.806L216.145 337.824ZM218.539 334.62C217.939 334.62 217.435 334.818 217.027 335.214C216.631 335.598 216.367 336.144 216.235 336.852L220.213 336.78L220.249 336.528C220.249 335.916 220.099 335.448 219.799 335.124C219.511 334.788 219.091 334.62 218.539 334.62ZM228.996 336.402C229.008 335.91 228.894 335.526 228.654 335.25C228.414 334.974 228.06 334.836 227.592 334.836C226.836 334.836 226.02 335.262 225.144 336.114V338.382L225.216 342H223.794L223.884 338.508L223.812 333.846L225.162 333.72V334.926H225.27C226.014 334.266 226.776 333.84 227.556 333.648C228.456 333.648 229.14 333.858 229.608 334.278C230.088 334.698 230.322 335.298 230.31 336.078L230.274 338.418L230.346 342H228.906L228.996 336.402ZM7.088 363.824V363.86C7.088 364.868 7.316 365.642 7.772 366.182C8.228 366.722 8.876 366.992 9.716 366.992C10.136 366.992 10.556 366.926 10.976 366.794C11.396 366.65 11.78 366.452 12.128 366.2L12.272 366.308L12.056 367.532C11.216 367.94 10.376 368.144 9.536 368.144C8.36 368.144 7.436 367.772 6.764 367.028C6.092 366.272 5.756 365.24 5.756 363.932C5.756 362.612 6.092 361.562 6.764 360.782C7.436 360.002 8.342 359.612 9.482 359.612C10.442 359.612 11.186 359.888 11.714 360.44C12.242 360.98 12.506 361.736 12.506 362.708C12.506 363.032 12.482 363.338 12.434 363.626L12.254 363.806L7.088 363.824ZM9.482 360.62C8.882 360.62 8.378 360.818 7.97 361.214C7.574 361.598 7.31 362.144 7.178 362.852L11.156 362.78L11.192 362.528C11.192 361.916 11.042 361.448 10.742 361.124C10.454 360.788 10.034 360.62 9.482 360.62ZM16.1409 364.382L16.2309 368H14.8089L14.9169 364.49L14.8269 355.49L16.2489 355.364L16.1409 364.382ZM19.8321 363.824V363.86C19.8321 364.868 20.0601 365.642 20.5161 366.182C20.9721 366.722 21.6201 366.992 22.4601 366.992C22.8801 366.992 23.3001 366.926 23.7201 366.794C24.1401 366.65 24.5241 366.452 24.8721 366.2L25.0161 366.308L24.8001 367.532C23.9601 367.94 23.1201 368.144 22.2801 368.144C21.1041 368.144 20.1801 367.772 19.5081 367.028C18.8361 366.272 18.5001 365.24 18.5001 363.932C18.5001 362.612 18.8361 361.562 19.5081 360.782C20.1801 360.002 21.0861 359.612 22.2261 359.612C23.1861 359.612 23.9301 359.888 24.4581 360.44C24.9861 360.98 25.2501 361.736 25.2501 362.708C25.2501 363.032 25.2261 363.338 25.1781 363.626L24.9981 363.806L19.8321 363.824ZM22.2261 360.62C21.6261 360.62 21.1221 360.818 20.7141 361.214C20.3181 361.598 20.0541 362.144 19.9221 362.852L23.9001 362.78L23.9361 362.528C23.9361 361.916 23.7861 361.448 23.4861 361.124C23.1981 360.788 22.7781 360.62 22.2261 360.62ZM37.795 362.402C37.807 361.91 37.693 361.526 37.453 361.25C37.213 360.974 36.859 360.836 36.391 360.836C35.623 360.836 34.825 361.25 33.997 362.078L33.961 364.418L34.033 368H32.575L32.683 362.402C32.695 361.91 32.581 361.526 32.341 361.25C32.101 360.974 31.747 360.836 31.279 360.836C30.523 360.836 29.707 361.262 28.831 362.114V364.382L28.903 368H27.481L27.571 364.508L27.499 359.846L28.849 359.72V360.926H28.957C29.701 360.266 30.463 359.84 31.243 359.648C31.915 359.648 32.467 359.768 32.899 360.008C33.331 360.236 33.637 360.572 33.817 361.016H33.925C34.681 360.332 35.491 359.876 36.355 359.648C37.267 359.648 37.957 359.858 38.425 360.278C38.893 360.698 39.121 361.298 39.109 362.078L39.073 364.418L39.145 368H37.705L37.795 362.402ZM42.5255 363.824V363.86C42.5255 364.868 42.7535 365.642 43.2095 366.182C43.6655 366.722 44.3135 366.992 45.1535 366.992C45.5735 366.992 45.9935 366.926 46.4135 366.794C46.8335 366.65 47.2175 366.452 47.5655 366.2L47.7095 366.308L47.4935 367.532C46.6535 367.94 45.8135 368.144 44.9735 368.144C43.7975 368.144 42.8735 367.772 42.2015 367.028C41.5295 366.272 41.1935 365.24 41.1935 363.932C41.1935 362.612 41.5295 361.562 42.2015 360.782C42.8735 360.002 43.7795 359.612 44.9195 359.612C45.8795 359.612 46.6235 359.888 47.1515 360.44C47.6795 360.98 47.9435 361.736 47.9435 362.708C47.9435 363.032 47.9195 363.338 47.8715 363.626L47.6915 363.806L42.5255 363.824ZM44.9195 360.62C44.3195 360.62 43.8155 360.818 43.4075 361.214C43.0115 361.598 42.7475 362.144 42.6155 362.852L46.5935 362.78L46.6295 362.528C46.6295 361.916 46.4795 361.448 46.1795 361.124C45.8915 360.788 45.4715 360.62 44.9195 360.62ZM55.3764 362.402C55.3884 361.91 55.2744 361.526 55.0344 361.25C54.7944 360.974 54.4404 360.836 53.9724 360.836C53.2164 360.836 52.4004 361.262 51.5244 362.114V364.382L51.5964 368H50.1744L50.2644 364.508L50.1924 359.846L51.5424 359.72V360.926H51.6504C52.3944 360.266 53.1564 359.84 53.9364 359.648C54.8364 359.648 55.5204 359.858 55.9884 360.278C56.4684 360.698 56.7024 361.298 56.6904 362.078L56.6544 364.418L56.7264 368H55.2864L55.3764 362.402ZM62.0476 366.902C62.4436 366.902 62.8756 366.782 63.3436 366.542L63.5056 366.65L63.3616 367.586C62.7136 367.886 62.1136 368.06 61.5616 368.108C60.8776 367.976 60.3856 367.724 60.0856 367.352C59.7856 366.98 59.6356 366.44 59.6356 365.732L59.6896 364.454L59.6716 360.728H58.5376L58.4656 360.62L58.5556 359.774H59.6536V358.442L60.8956 357.902L61.0396 358.028L61.0036 359.774H63.4516L63.5236 359.882L63.4336 360.728H61.0036L60.9136 365.606C60.9016 366.086 60.9856 366.422 61.1656 366.614C61.3456 366.806 61.6396 366.902 62.0476 366.902ZM70.7664 366.902C71.1624 366.902 71.5944 366.782 72.0624 366.542L72.2244 366.65L72.0804 367.586C71.4324 367.886 70.8324 368.06 70.2804 368.108C69.5964 367.976 69.1044 367.724 68.8044 367.352C68.5044 366.98 68.3544 366.44 68.3544 365.732L68.4084 364.454L68.3904 360.728H67.2564L67.1844 360.62L67.2744 359.774H68.3724V358.442L69.6144 357.902L69.7584 358.028L69.7224 359.774H72.1704L72.2424 359.882L72.1524 360.728H69.7224L69.6324 365.606C69.6204 366.086 69.7044 366.422 69.8844 366.614C70.0644 366.806 70.3584 366.902 70.7664 366.902ZM79.1964 362.402C79.2084 361.91 79.0944 361.526 78.8544 361.25C78.6144 360.974 78.2604 360.836 77.7924 360.836C77.0004 360.836 76.1904 361.262 75.3624 362.114L75.3264 364.382L75.4164 368H73.9944L74.1024 364.49L74.0124 355.49L75.4344 355.364L75.3624 360.926H75.4704C76.2144 360.266 76.9764 359.84 77.7564 359.648C78.6684 359.648 79.3584 359.858 79.8264 360.278C80.2944 360.698 80.5224 361.298 80.5104 362.078L80.4744 364.418L80.5464 368H79.1064L79.1964 362.402ZM85.992 359.612C86.772 359.612 87.384 359.804 87.828 360.188C88.284 360.572 88.512 361.1 88.512 361.772C88.512 361.976 88.476 362.714 88.404 363.986C88.332 365.258 88.296 366.002 88.296 366.218C88.296 366.482 88.338 366.668 88.422 366.776C88.506 366.872 88.65 366.92 88.854 366.92C89.034 366.92 89.238 366.884 89.466 366.812L89.61 366.938L89.466 367.748C89.118 367.952 88.776 368.072 88.44 368.108C88.068 368.072 87.768 367.94 87.54 367.712C87.324 367.484 87.21 367.172 87.198 366.776H87.072C86.424 367.436 85.782 367.886 85.146 368.126C84.342 368.126 83.712 367.928 83.256 367.532C82.812 367.124 82.59 366.572 82.59 365.876C82.59 365.348 82.728 364.928 83.004 364.616C83.292 364.304 83.712 364.082 84.264 363.95L87.18 363.266L87.198 362.096C87.198 361.628 87.072 361.268 86.82 361.016C86.58 360.764 86.232 360.638 85.776 360.638C85.368 360.638 84.96 360.734 84.552 360.926C84.144 361.118 83.706 361.418 83.238 361.826L83.094 361.754L82.914 360.728C83.91 359.984 84.936 359.612 85.992 359.612ZM84.552 364.814C84.312 364.886 84.138 364.988 84.03 365.12C83.922 365.24 83.868 365.426 83.868 365.678C83.868 366.074 83.976 366.386 84.192 366.614C84.42 366.83 84.72 366.938 85.092 366.938C85.752 366.938 86.424 366.512 87.108 365.66L87.162 364.184L84.552 364.814ZM94.1804 366.902C94.5764 366.902 95.0084 366.782 95.4764 366.542L95.6384 366.65L95.4944 367.586C94.8464 367.886 94.2464 368.06 93.6944 368.108C93.0104 367.976 92.5184 367.724 92.2184 367.352C91.9184 366.98 91.7684 366.44 91.7684 365.732L91.8224 364.454L91.8044 360.728H90.6704L90.5984 360.62L90.6884 359.774H91.7864V358.442L93.0284 357.902L93.1724 358.028L93.1364 359.774H95.5844L95.6564 359.882L95.5664 360.728H93.1364L93.0464 365.606C93.0344 366.086 93.1184 366.422 93.2984 366.614C93.4784 366.806 93.7724 366.902 94.1804 366.902ZM103.277 359.612C103.649 359.612 104.033 359.66 104.429 359.756C104.837 359.84 105.191 359.954 105.491 360.098L105.239 361.34L105.077 361.394C104.453 360.986 103.835 360.782 103.223 360.782C102.515 360.782 101.963 361.052 101.567 361.592C101.171 362.132 100.973 362.888 100.973 363.86C100.973 364.832 101.177 365.6 101.585 366.164C102.005 366.716 102.581 366.992 103.313 366.992C103.637 366.992 103.973 366.938 104.321 366.83C104.681 366.722 105.017 366.572 105.329 366.38L105.491 366.47L105.329 367.676C104.597 367.988 103.865 368.144 103.133 368.144C102.041 368.144 101.183 367.772 100.559 367.028C99.9352 366.272 99.6232 365.24 99.6232 363.932C99.6232 362.6 99.9472 361.55 100.595 360.782C101.255 360.002 102.149 359.612 103.277 359.612ZM112.507 362.402C112.519 361.91 112.405 361.526 112.165 361.25C111.925 360.974 111.571 360.836 111.103 360.836C110.311 360.836 109.501 361.262 108.673 362.114L108.637 364.382L108.727 368H107.305L107.413 364.49L107.323 355.49L108.745 355.364L108.673 360.926H108.781C109.525 360.266 110.287 359.84 111.067 359.648C111.979 359.648 112.669 359.858 113.137 360.278C113.605 360.698 113.833 361.298 113.821 362.078L113.785 364.418L113.857 368H112.417L112.507 362.402ZM119.303 359.612C120.083 359.612 120.695 359.804 121.139 360.188C121.595 360.572 121.823 361.1 121.823 361.772C121.823 361.976 121.787 362.714 121.715 363.986C121.643 365.258 121.607 366.002 121.607 366.218C121.607 366.482 121.649 366.668 121.733 366.776C121.817 366.872 121.961 366.92 122.165 366.92C122.345 366.92 122.549 366.884 122.777 366.812L122.921 366.938L122.777 367.748C122.429 367.952 122.087 368.072 121.751 368.108C121.379 368.072 121.079 367.94 120.851 367.712C120.635 367.484 120.521 367.172 120.509 366.776H120.383C119.735 367.436 119.093 367.886 118.457 368.126C117.653 368.126 117.023 367.928 116.567 367.532C116.123 367.124 115.901 366.572 115.901 365.876C115.901 365.348 116.039 364.928 116.315 364.616C116.603 364.304 117.023 364.082 117.575 363.95L120.491 363.266L120.509 362.096C120.509 361.628 120.383 361.268 120.131 361.016C119.891 360.764 119.543 360.638 119.087 360.638C118.679 360.638 118.271 360.734 117.863 360.926C117.455 361.118 117.017 361.418 116.549 361.826L116.405 361.754L116.225 360.728C117.221 359.984 118.247 359.612 119.303 359.612ZM117.863 364.814C117.623 364.886 117.449 364.988 117.341 365.12C117.233 365.24 117.179 365.426 117.179 365.678C117.179 366.074 117.287 366.386 117.503 366.614C117.731 366.83 118.031 366.938 118.403 366.938C119.063 366.938 119.735 366.512 120.419 365.66L120.473 364.184L117.863 364.814ZM129.925 362.402C129.937 361.91 129.823 361.526 129.583 361.25C129.343 360.974 128.989 360.836 128.521 360.836C127.765 360.836 126.949 361.262 126.073 362.114V364.382L126.145 368H124.723L124.813 364.508L124.741 359.846L126.091 359.72V360.926H126.199C126.943 360.266 127.705 359.84 128.485 359.648C129.385 359.648 130.069 359.858 130.537 360.278C131.017 360.698 131.251 361.298 131.239 362.078L131.203 364.418L131.275 368H129.835L129.925 362.402ZM141.294 360.458C140.922 360.566 140.37 360.692 139.638 360.836L139.602 360.908C139.866 361.328 139.998 361.838 139.998 362.438C139.998 363.314 139.704 364.01 139.116 364.526C138.54 365.042 137.754 365.3 136.758 365.3C136.362 365.3 135.99 365.252 135.642 365.156C135.438 365.312 135.3 365.438 135.228 365.534C135.156 365.63 135.12 365.738 135.12 365.858C135.12 366.11 135.276 366.29 135.588 366.398C135.9 366.494 136.41 366.596 137.118 366.704C137.814 366.8 138.384 366.908 138.828 367.028C139.272 367.148 139.656 367.346 139.98 367.622C140.304 367.886 140.466 368.258 140.466 368.738C140.466 369.242 140.292 369.704 139.944 370.124C139.608 370.544 139.14 370.874 138.54 371.114C137.952 371.354 137.304 371.474 136.596 371.474C135.636 371.474 134.886 371.252 134.346 370.808C133.818 370.376 133.554 369.812 133.554 369.116C133.842 368.54 134.37 368.018 135.138 367.55V367.46C134.706 367.328 134.37 367.154 134.13 366.938C133.902 366.71 133.788 366.404 133.788 366.02C134.04 365.6 134.406 365.234 134.886 364.922V364.85C134.502 364.61 134.208 364.298 134.004 363.914C133.812 363.518 133.716 363.062 133.716 362.546C133.716 361.646 134.004 360.944 134.58 360.44C135.168 359.924 135.948 359.666 136.92 359.666C137.556 359.666 138.096 359.774 138.54 359.99C139.368 359.834 140.238 359.63 141.15 359.378L141.294 359.486V360.458ZM136.83 364.328C137.43 364.328 137.892 364.16 138.216 363.824C138.552 363.488 138.72 363.02 138.72 362.42C138.72 361.844 138.564 361.4 138.252 361.088C137.94 360.776 137.49 360.62 136.902 360.62C136.302 360.62 135.834 360.782 135.498 361.106C135.162 361.43 134.994 361.892 134.994 362.492C134.994 363.068 135.15 363.518 135.462 363.842C135.786 364.166 136.242 364.328 136.83 364.328ZM139.206 369.008C139.206 368.612 139.002 368.336 138.594 368.18C138.198 368.024 137.592 367.886 136.776 367.766L136.2 367.676C135.744 367.952 135.396 368.216 135.156 368.468C134.928 368.72 134.814 368.984 134.814 369.26C134.814 369.608 134.982 369.896 135.318 370.124C135.666 370.352 136.146 370.466 136.758 370.466C137.454 370.466 138.036 370.322 138.504 370.034C138.972 369.758 139.206 369.416 139.206 369.008ZM143.424 363.824V363.86C143.424 364.868 143.652 365.642 144.108 366.182C144.564 366.722 145.212 366.992 146.052 366.992C146.472 366.992 146.892 366.926 147.312 366.794C147.732 366.65 148.116 366.452 148.464 366.2L148.608 366.308L148.392 367.532C147.552 367.94 146.712 368.144 145.872 368.144C144.696 368.144 143.772 367.772 143.1 367.028C142.428 366.272 142.092 365.24 142.092 363.932C142.092 362.612 142.428 361.562 143.1 360.782C143.772 360.002 144.678 359.612 145.818 359.612C146.778 359.612 147.522 359.888 148.05 360.44C148.578 360.98 148.842 361.736 148.842 362.708C148.842 363.032 148.818 363.338 148.77 363.626L148.59 363.806L143.424 363.824ZM145.818 360.62C145.218 360.62 144.714 360.818 144.306 361.214C143.91 361.598 143.646 362.144 143.514 362.852L147.492 362.78L147.528 362.528C147.528 361.916 147.378 361.448 147.078 361.124C146.79 360.788 146.37 360.62 145.818 360.62ZM153.323 359.63C154.007 359.63 154.667 359.762 155.303 360.026L155.105 361.196L154.889 361.25C154.289 360.854 153.713 360.656 153.161 360.656C152.753 360.656 152.423 360.77 152.171 360.998C151.919 361.226 151.793 361.502 151.793 361.826C151.793 362.15 151.919 362.414 152.171 362.618C152.435 362.81 152.837 363.032 153.377 363.284C153.845 363.5 154.217 363.698 154.493 363.878C154.781 364.046 155.027 364.274 155.231 364.562C155.435 364.85 155.537 365.204 155.537 365.624C155.537 366.068 155.423 366.482 155.195 366.866C154.967 367.25 154.631 367.562 154.187 367.802C153.743 368.03 153.215 368.144 152.603 368.144C151.763 368.144 150.965 367.946 150.209 367.55L150.389 366.326L150.551 366.218C150.887 366.506 151.247 366.728 151.631 366.884C152.027 367.04 152.399 367.118 152.747 367.118C153.191 367.118 153.551 366.998 153.827 366.758C154.103 366.506 154.241 366.212 154.241 365.876C154.241 365.552 154.109 365.294 153.845 365.102C153.593 364.898 153.197 364.67 152.657 364.418C152.189 364.202 151.811 364.01 151.523 363.842C151.235 363.662 150.989 363.422 150.785 363.122C150.581 362.822 150.479 362.45 150.479 362.006C150.479 361.31 150.731 360.74 151.235 360.296C151.751 359.852 152.447 359.63 153.323 359.63ZM160.796 364.508L160.742 359.846L162.128 359.72L162.092 364.382L162.128 368H160.724L160.796 364.508ZM161.462 356.066C161.702 356.066 161.894 356.138 162.038 356.282C162.182 356.426 162.254 356.624 162.254 356.876C162.254 357.14 162.176 357.35 162.02 357.506C161.876 357.662 161.672 357.74 161.408 357.74C161.156 357.74 160.958 357.668 160.814 357.524C160.682 357.38 160.616 357.176 160.616 356.912C160.616 356.66 160.688 356.456 160.832 356.3C160.988 356.144 161.198 356.066 161.462 356.066ZM170.267 362.402C170.279 361.91 170.165 361.526 169.925 361.25C169.685 360.974 169.331 360.836 168.863 360.836C168.107 360.836 167.291 361.262 166.415 362.114V364.382L166.487 368H165.065L165.155 364.508L165.083 359.846L166.433 359.72V360.926H166.541C167.285 360.266 168.047 359.84 168.827 359.648C169.727 359.648 170.411 359.858 170.879 360.278C171.359 360.698 171.593 361.298 171.581 362.078L171.545 364.418L171.617 368H170.177L170.267 362.402ZM179.567 359.63C180.251 359.63 180.911 359.762 181.547 360.026L181.349 361.196L181.133 361.25C180.533 360.854 179.957 360.656 179.405 360.656C178.997 360.656 178.667 360.77 178.415 360.998C178.163 361.226 178.037 361.502 178.037 361.826C178.037 362.15 178.163 362.414 178.415 362.618C178.679 362.81 179.081 363.032 179.621 363.284C180.089 363.5 180.461 363.698 180.737 363.878C181.025 364.046 181.271 364.274 181.475 364.562C181.679 364.85 181.781 365.204 181.781 365.624C181.781 366.068 181.667 366.482 181.439 366.866C181.211 367.25 180.875 367.562 180.431 367.802C179.987 368.03 179.459 368.144 178.847 368.144C178.007 368.144 177.209 367.946 176.453 367.55L176.633 366.326L176.795 366.218C177.131 366.506 177.491 366.728 177.875 366.884C178.271 367.04 178.643 367.118 178.991 367.118C179.435 367.118 179.795 366.998 180.071 366.758C180.347 366.506 180.485 366.212 180.485 365.876C180.485 365.552 180.353 365.294 180.089 365.102C179.837 364.898 179.441 364.67 178.901 364.418C178.433 364.202 178.055 364.01 177.767 363.842C177.479 363.662 177.233 363.422 177.029 363.122C176.825 362.822 176.723 362.45 176.723 362.006C176.723 361.31 176.975 360.74 177.479 360.296C177.995 359.852 178.691 359.63 179.567 359.63ZM186.949 359.612C187.321 359.612 187.705 359.66 188.101 359.756C188.509 359.84 188.863 359.954 189.163 360.098L188.911 361.34L188.749 361.394C188.125 360.986 187.507 360.782 186.895 360.782C186.187 360.782 185.635 361.052 185.239 361.592C184.843 362.132 184.645 362.888 184.645 363.86C184.645 364.832 184.849 365.6 185.257 366.164C185.677 366.716 186.253 366.992 186.985 366.992C187.309 366.992 187.645 366.938 187.993 366.83C188.353 366.722 188.689 366.572 189.001 366.38L189.163 366.47L189.001 367.676C188.269 367.988 187.537 368.144 186.805 368.144C185.713 368.144 184.855 367.772 184.231 367.028C183.607 366.272 183.295 365.24 183.295 363.932C183.295 362.6 183.619 361.55 184.267 360.782C184.927 360.002 185.821 359.612 186.949 359.612ZM193.447 359.612C194.227 359.612 194.839 359.804 195.283 360.188C195.739 360.572 195.967 361.1 195.967 361.772C195.967 361.976 195.931 362.714 195.859 363.986C195.787 365.258 195.751 366.002 195.751 366.218C195.751 366.482 195.793 366.668 195.877 366.776C195.961 366.872 196.105 366.92 196.309 366.92C196.489 366.92 196.693 366.884 196.921 366.812L197.065 366.938L196.921 367.748C196.573 367.952 196.231 368.072 195.895 368.108C195.523 368.072 195.223 367.94 194.995 367.712C194.779 367.484 194.665 367.172 194.653 366.776H194.527C193.879 367.436 193.237 367.886 192.601 368.126C191.797 368.126 191.167 367.928 190.711 367.532C190.267 367.124 190.045 366.572 190.045 365.876C190.045 365.348 190.183 364.928 190.459 364.616C190.747 364.304 191.167 364.082 191.719 363.95L194.635 363.266L194.653 362.096C194.653 361.628 194.527 361.268 194.275 361.016C194.035 360.764 193.687 360.638 193.231 360.638C192.823 360.638 192.415 360.734 192.007 360.926C191.599 361.118 191.161 361.418 190.693 361.826L190.549 361.754L190.369 360.728C191.365 359.984 192.391 359.612 193.447 359.612ZM192.007 364.814C191.767 364.886 191.593 364.988 191.485 365.12C191.377 365.24 191.323 365.426 191.323 365.678C191.323 366.074 191.431 366.386 191.647 366.614C191.875 366.83 192.175 366.938 192.547 366.938C193.207 366.938 193.879 366.512 194.563 365.66L194.617 364.184L192.007 364.814ZM200.448 364.382L200.538 368H199.116L199.224 364.49L199.134 355.49L200.556 355.364L200.448 364.382ZM204.139 363.824V363.86C204.139 364.868 204.367 365.642 204.823 366.182C205.279 366.722 205.927 366.992 206.767 366.992C207.187 366.992 207.607 366.926 208.027 366.794C208.447 366.65 208.831 366.452 209.179 366.2L209.323 366.308L209.107 367.532C208.267 367.94 207.427 368.144 206.587 368.144C205.411 368.144 204.487 367.772 203.815 367.028C203.143 366.272 202.807 365.24 202.807 363.932C202.807 362.612 203.143 361.562 203.815 360.782C204.487 360.002 205.393 359.612 206.533 359.612C207.493 359.612 208.237 359.888 208.765 360.44C209.293 360.98 209.557 361.736 209.557 362.708C209.557 363.032 209.533 363.338 209.485 363.626L209.305 363.806L204.139 363.824ZM206.533 360.62C205.933 360.62 205.429 360.818 205.021 361.214C204.625 361.598 204.361 362.144 204.229 362.852L208.207 362.78L208.243 362.528C208.243 361.916 208.093 361.448 207.793 361.124C207.505 360.788 207.085 360.62 206.533 360.62ZM211.873 366.416C212.113 366.416 212.305 366.488 212.449 366.632C212.593 366.776 212.665 366.974 212.665 367.226C212.665 367.49 212.587 367.7 212.431 367.856C212.287 368.012 212.083 368.09 211.819 368.09C211.567 368.09 211.369 368.018 211.225 367.874C211.093 367.73 211.027 367.526 211.027 367.262C211.027 367.01 211.099 366.806 211.243 366.65C211.399 366.494 211.609 366.416 211.873 366.416Z" fill="#4F4F4F"/>
<path d="M12.536 15.232H8.088L7.08 18H5.32L9.304 7.44H11.352L15.336 18H13.528L12.536 15.232ZM12.024 13.84L10.808 10.448L10.328 8.928H10.28L9.832 10.416L8.584 13.84H12.024ZM20.6993 7.28C21.6699 7.28 22.4966 7.456 23.1793 7.808C23.8726 8.16 24.4539 8.69867 24.9233 9.424L23.6273 10.592C23.3286 9.952 22.9553 9.488 22.5073 9.2C22.0593 8.912 21.4619 8.768 20.7153 8.768C19.9793 8.768 19.4086 8.91733 19.0033 9.216C18.5979 9.504 18.3953 9.87733 18.3953 10.336C18.3953 10.7627 18.5926 11.104 18.9873 11.36C19.3819 11.6053 20.0859 11.8187 21.0993 12C22.0486 12.1707 22.8006 12.3893 23.3553 12.656C23.9206 12.912 24.3313 13.2373 24.5873 13.632C24.8433 14.016 24.9713 14.496 24.9713 15.072C24.9713 15.6907 24.7953 16.2347 24.4433 16.704C24.0913 17.1733 23.5953 17.536 22.9553 17.792C22.3259 18.0373 21.5953 18.16 20.7633 18.16C18.6193 18.16 17.1046 17.4453 16.2193 16.016L17.4193 14.816C17.7606 15.456 18.1979 15.9253 18.7313 16.224C19.2753 16.5227 19.9473 16.672 20.7473 16.672C21.5046 16.672 22.0966 16.544 22.5233 16.288C22.9606 16.0213 23.1793 15.648 23.1793 15.168C23.1793 14.784 22.9819 14.4747 22.5873 14.24C22.2033 14.0053 21.5259 13.7973 20.5553 13.616C19.5846 13.4347 18.8113 13.2107 18.2353 12.944C17.6593 12.6773 17.2379 12.3467 16.9713 11.952C16.7153 11.5573 16.5872 11.0773 16.5872 10.512C16.5872 9.91467 16.7526 9.37067 17.0833 8.88C17.4139 8.38933 17.8886 8 18.5073 7.712C19.1366 7.424 19.8673 7.28 20.6993 7.28ZM31.1633 13.952V18H29.4513V13.952L25.6913 7.44H27.5953L29.4833 10.832L30.3153 12.416L31.1473 10.832L33.0193 7.44H34.9392L31.1633 13.952ZM47.4461 18H45.8781V11.888L45.9901 8.976H45.9741L42.7581 18H41.3341L38.1181 8.976H38.1021L38.2301 11.888V18H36.6461V7.44H39.1901L41.3181 13.552L42.0541 16.064H42.0861L42.8381 13.552L44.9501 7.44H47.4461V18ZM58.4556 16.528V18H50.5836V7.44H58.2316V8.912H52.2956V11.952H56.9356V13.392H52.2956V16.528H58.4556ZM68.6115 8.912H64.9955V18H63.2835V8.912H59.6675V7.44H68.6115V8.912ZM74.6298 13.776H72.3578V18H70.6618V7.44H74.9658C76.1071 7.44 77.0084 7.72267 77.6698 8.288C78.3311 8.84267 78.6618 9.616 78.6618 10.608C78.6618 11.3653 78.4644 12 78.0698 12.512C77.6858 13.0133 77.1364 13.3707 76.4218 13.584L79.2858 18H77.3177L74.6298 13.776ZM72.3578 12.352H74.8218C75.5151 12.352 76.0324 12.2133 76.3738 11.936C76.7151 11.648 76.8858 11.2107 76.8858 10.624C76.8858 10.0373 76.7151 9.60533 76.3738 9.328C76.0324 9.04 75.5151 8.896 74.8218 8.896H72.3578V12.352ZM83.1238 18H81.4118V7.44H83.1238V18ZM95.0075 15.2C94.6875 16.1493 94.1382 16.88 93.3595 17.392C92.5915 17.904 91.6848 18.16 90.6395 18.16C89.6262 18.16 88.7462 17.9413 87.9995 17.504C87.2528 17.0667 86.6768 16.4373 86.2715 15.616C85.8662 14.7947 85.6635 13.8293 85.6635 12.72C85.6635 11.6107 85.8662 10.6453 86.2715 9.824C86.6768 9.00267 87.2528 8.37333 87.9995 7.936C88.7462 7.49867 89.6208 7.28 90.6235 7.28C91.6795 7.28 92.5648 7.49867 93.2795 7.936C94.0048 8.37333 94.5275 9.01867 94.8475 9.872L93.2315 10.592C93.0182 9.96267 92.7088 9.504 92.3035 9.216C91.8982 8.91733 91.3702 8.768 90.7195 8.768C89.7275 8.768 88.9328 9.12 88.3355 9.824C87.7488 10.5173 87.4555 11.4827 87.4555 12.72C87.4555 13.968 87.7382 14.9387 88.3035 15.632C88.8688 16.3253 89.6528 16.672 90.6555 16.672C91.3382 16.672 91.9088 16.5013 92.3675 16.16C92.8368 15.8187 93.1728 15.3173 93.3755 14.656L95.0075 15.2ZM105.996 7.28C106.967 7.28 107.793 7.456 108.476 7.808C109.169 8.16 109.751 8.69867 110.22 9.424L108.924 10.592C108.625 9.952 108.252 9.488 107.804 9.2C107.356 8.912 106.759 8.768 106.012 8.768C105.276 8.768 104.705 8.91733 104.3 9.216C103.895 9.504 103.692 9.87733 103.692 10.336C103.692 10.7627 103.889 11.104 104.284 11.36C104.679 11.6053 105.383 11.8187 106.396 12C107.345 12.1707 108.097 12.3893 108.652 12.656C109.217 12.912 109.628 13.2373 109.884 13.632C110.14 14.016 110.268 14.496 110.268 15.072C110.268 15.6907 110.092 16.2347 109.74 16.704C109.388 17.1733 108.892 17.536 108.252 17.792C107.623 18.0373 106.892 18.16 106.06 18.16C103.916 18.16 102.401 17.4453 101.516 16.016L102.716 14.816C103.057 15.456 103.495 15.9253 104.028 16.224C104.572 16.5227 105.244 16.672 106.044 16.672C106.801 16.672 107.393 16.544 107.82 16.288C108.257 16.0213 108.476 15.648 108.476 15.168C108.476 14.784 108.279 14.4747 107.884 14.24C107.5 14.0053 106.823 13.7973 105.852 13.616C104.881 13.4347 104.108 13.2107 103.532 12.944C102.956 12.6773 102.535 12.3467 102.268 11.952C102.012 11.5573 101.884 11.0773 101.884 10.512C101.884 9.91467 102.049 9.37067 102.38 8.88C102.711 8.38933 103.185 8 103.804 7.712C104.433 7.424 105.164 7.28 105.996 7.28ZM120.112 8.912H116.496V18H114.784V8.912H111.168V7.44H120.112V8.912ZM126.692 15.232H122.244L121.236 18H119.476L123.46 7.44H125.508L129.492 18H127.684L126.692 15.232ZM126.18 13.84L124.964 10.448L124.484 8.928H124.436L123.988 10.416L122.74 13.84H126.18ZM140.021 18H137.989L133.909 11.344L132.885 9.392H132.869L132.933 11.184V18H131.365V7.44H133.381L137.445 14.08L138.485 16.048H138.501L138.437 14.256V7.44H140.021V18ZM146.874 7.44C148.538 7.44 149.829 7.89867 150.746 8.816C151.663 9.73333 152.122 11.0347 152.122 12.72C152.122 14.4053 151.663 15.7067 150.746 16.624C149.829 17.5413 148.538 18 146.874 18H143.146V7.44H146.874ZM146.874 16.544C147.983 16.544 148.837 16.2133 149.434 15.552C150.031 14.88 150.33 13.936 150.33 12.72C150.33 11.504 150.031 10.5653 149.434 9.904C148.837 9.232 147.983 8.896 146.874 8.896H144.858V16.544H146.874ZM160.255 15.232H155.807L154.799 18H153.039L157.023 7.44H159.071L163.055 18H161.247L160.255 15.232ZM159.743 13.84L158.527 10.448L158.047 8.928H157.999L157.551 10.416L156.303 13.84H159.743ZM168.895 13.776H166.623V18H164.927V7.44H169.231C170.373 7.44 171.274 7.72267 171.935 8.288C172.597 8.84267 172.927 9.616 172.927 10.608C172.927 11.3653 172.73 12 172.335 12.512C171.951 13.0133 171.402 13.3707 170.687 13.584L173.551 18H171.583L168.895 13.776ZM166.623 12.352H169.087C169.781 12.352 170.298 12.2133 170.639 11.936C170.981 11.648 171.151 11.2107 171.151 10.624C171.151 10.0373 170.981 9.60533 170.639 9.328C170.298 9.04 169.781 8.896 169.087 8.896H166.623V12.352ZM179.405 7.44C181.069 7.44 182.36 7.89867 183.277 8.816C184.195 9.73333 184.653 11.0347 184.653 12.72C184.653 14.4053 184.195 15.7067 183.277 16.624C182.36 17.5413 181.069 18 179.405 18H175.677V7.44H179.405ZM179.405 16.544C180.515 16.544 181.368 16.2133 181.965 15.552C182.563 14.88 182.861 13.936 182.861 12.72C182.861 11.504 182.563 10.5653 181.965 9.904C181.368 9.232 180.515 8.896 179.405 8.896H177.389V16.544H179.405ZM201.148 15.2C200.828 16.1493 200.279 16.88 199.5 17.392C198.732 17.904 197.825 18.16 196.78 18.16C195.767 18.16 194.887 17.9413 194.14 17.504C193.393 17.0667 192.817 16.4373 192.412 15.616C192.007 14.7947 191.804 13.8293 191.804 12.72C191.804 11.6107 192.007 10.6453 192.412 9.824C192.817 9.00267 193.393 8.37333 194.14 7.936C194.887 7.49867 195.761 7.28 196.764 7.28C197.82 7.28 198.705 7.49867 199.42 7.936C200.145 8.37333 200.668 9.01867 200.988 9.872L199.372 10.592C199.159 9.96267 198.849 9.504 198.444 9.216C198.039 8.91733 197.511 8.768 196.86 8.768C195.868 8.768 195.073 9.12 194.476 9.824C193.889 10.5173 193.596 11.4827 193.596 12.72C193.596 13.968 193.879 14.9387 194.444 15.632C195.009 16.3253 195.793 16.672 196.796 16.672C197.479 16.672 198.049 16.5013 198.508 16.16C198.977 15.8187 199.313 15.3173 199.516 14.656L201.148 15.2ZM211.83 13.952C211.83 15.3387 211.462 16.3893 210.726 17.104C209.99 17.808 208.918 18.16 207.51 18.16C206.102 18.16 205.03 17.808 204.294 17.104C203.558 16.3893 203.19 15.3387 203.19 13.952V7.44H204.918V13.744C204.918 14.7467 205.126 15.488 205.542 15.968C205.968 16.4373 206.624 16.672 207.51 16.672C208.395 16.672 209.046 16.4373 209.462 15.968C209.888 15.488 210.102 14.7467 210.102 13.744V7.44H211.83V13.952ZM218.786 13.776H216.514V18H214.818V7.44H219.122C220.263 7.44 221.165 7.72267 221.826 8.288C222.487 8.84267 222.818 9.616 222.818 10.608C222.818 11.3653 222.621 12 222.226 12.512C221.842 13.0133 221.293 13.3707 220.578 13.584L223.442 18H221.474L218.786 13.776ZM216.514 12.352H218.978C219.671 12.352 220.189 12.2133 220.53 11.936C220.871 11.648 221.042 11.2107 221.042 10.624C221.042 10.0373 220.871 9.60533 220.53 9.328C220.189 9.04 219.671 8.896 218.978 8.896H216.514V12.352ZM230.1 18H228.1L224.18 7.44H226.004L228.468 14.464L229.108 16.56L229.748 14.48L232.212 7.44H234.02L230.1 18ZM243.815 16.528V18H235.943V7.44H243.591V8.912H237.655V11.952H242.295V13.392H237.655V16.528H243.815Z" fill="#4F4F4F"/>
<rect x="5" width="314" height="1" fill="#E0E0E0"/>
<path d="M5 49.002V250.64H296" stroke="#E0E0E0"/>
<g filter="url(#filter0_d)">
<path d="M5 248.959C69.3558 248.959 75.4113 220.86 113.565 146.383C161.692 52.4381 239.479 49.002 296 49.002" stroke="#C50063" stroke-width="2" stroke-linecap="round"/>
</g>
<defs>
<filter id="filter0_d" x="0" y="48.002" width="301" height="209.957" filterUnits="userSpaceOnUse" color-interpolation-filters="sRGB">
<feFlood flood-opacity="0" result="BackgroundImageFix"/>
<feColorMatrix in="SourceAlpha" type="matrix" values="0 0 0 0 0 0 0 0 0 0 0 0 0 0 0 0 0 0 127 0"/>
<feOffset dy="4"/>
<feGaussianBlur stdDeviation="2"/>
<feColorMatrix type="matrix" values="0 0 0 0 0.768627 0 0 0 0 0.768627 0 0 0 0 0.768627 0 0 0 0.3 0"/>
<feBlend mode="normal" in2="BackgroundImageFix" result="effect1_dropShadow"/>
<feBlend mode="normal" in="SourceGraphic" in2="effect1_dropShadow" result="shape"/>
</filter>
</defs>
</svg>
